<svg xmlns="http://www.w3.org/2000/svg" viewBox="0 0 1024 1024">
  <g style="fill:none;stroke:#000000;stroke-width:50;stroke-linecap:round;stroke-linejoin:round;" transform="scale(1, 1) translate(0, 0)">
    <path d="M 320.0,195.0 L 347.0,228.0 L 244.0,367.0"/>
    <path d="M 193.0,365.0 L 218.0,384.0 L 228.0,399.0 L 230.0,418.0 L 224.0,584.0 L 212.0,666.0 L 193.0,749.0 L 156.0,845.0 L 115.0,917.0 L 83.0,959.0"/>
    <path d="M 266.0,402.0 L 273.0,388.0 L 301.0,377.0 L 388.0,359.0 L 429.0,359.0 L 453.0,376.0 L 459.0,385.0 L 430.0,516.0 L 407.0,587.0 L 411.0,606.0"/>
    <path d="M 260.0,505.0 L 269.0,492.0 L 301.0,483.0 L 341.0,476.0 L 361.0,480.0"/>
    <path d="M 250.0,611.0 L 260.0,601.0 L 360.0,580.0 L 374.0,572.0"/>
    <path d="M 230.0,731.0 L 359.0,693.0 L 390.0,693.0 L 410.0,710.0 L 388.0,845.0 L 372.0,897.0 L 351.0,935.0 L 327.0,957.0 L 291.0,939.0 L 261.0,914.0"/>
  </g>
</svg>
