<svg xmlns="http://www.w3.org/2000/svg" viewBox="0 0 1024 1024">
  <g style="fill:none;stroke:#000000;stroke-width:50;stroke-linecap:round;stroke-linejoin:round;" transform="scale(1, 1) translate(0, 0)">
    <path d="M 101.0,543.0 L 138.0,552.0 L 177.0,550.0 L 519.0,480.0 L 549.0,478.0 L 578.0,484.0"/>
    <path d="M 312.0,436.0 L 341.0,464.0 L 304.0,581.0 L 287.0,606.0"/>
    <path d="M 148.0,628.0 L 171.0,647.0 L 182.0,668.0 L 224.0,916.0"/>
    <path d="M 201.0,632.0 L 218.0,640.0 L 324.0,612.0 L 462.0,586.0 L 482.0,584.0 L 522.0,594.0 L 546.0,625.0 L 504.0,830.0 L 493.0,859.0 L 474.0,866.0"/>
    <path d="M 257.0,691.0 L 281.0,717.0 L 301.0,823.0"/>
    <path d="M 290.0,690.0 L 303.0,696.0 L 382.0,674.0 L 402.0,679.0 L 416.0,695.0 L 409.0,727.0 L 399.0,747.0 L 385.0,753.0"/>
    <path d="M 319.0,802.0 L 325.0,793.0 L 375.0,780.0 L 413.0,776.0 L 437.0,781.0"/>
    <path d="M 244.0,893.0 L 292.0,878.0 L 435.0,854.0 L 463.0,838.0"/>
  </g>
</svg>
