<svg xmlns="http://www.w3.org/2000/svg" viewBox="0 0 1024 1024">
  <g style="fill:none;stroke:#000000;stroke-width:50;stroke-linecap:round;stroke-linejoin:round;" transform="scale(1, 1) translate(0, 0)">
    <path d="M 153.0,421.0 L 209.0,423.0 L 422.0,385.0 L 753.0,337.0 L 798.0,335.0 L 853.0,348.0"/>
    <path d="M 285.0,271.0 L 307.0,279.0 L 327.0,297.0 L 364.0,567.0"/>
    <path d="M 603.0,187.0 L 637.0,229.0 L 589.0,441.0 L 578.0,462.0 L 565.0,468.0"/>
    <path d="M 382.0,538.0 L 401.0,521.0 L 521.0,500.0 L 594.0,493.0 L 618.0,501.0"/>
    <path d="M 140.0,658.0 L 166.0,679.0 L 180.0,734.0 L 185.0,817.0 L 177.0,988.0"/>
    <path d="M 202.0,691.0 L 212.0,675.0 L 228.0,671.0 L 612.0,608.0 L 803.0,589.0 L 826.0,599.0 L 844.0,616.0 L 842.0,783.0 L 834.0,903.0 L 820.0,976.0 L 800.0,1006.0 L 721.0,966.0 L 705.0,949.0"/>
    <path d="M 453.0,530.0 L 477.0,548.0 L 487.0,566.0 L 491.0,774.0 L 484.0,910.0 L 500.0,989.0"/>
    <path d="M 311.0,774.0 L 322.0,811.0 L 296.0,840.0 L 256.0,870.0"/>
    <path d="M 268.0,721.0 L 283.0,725.0 L 287.0,735.0 L 303.0,741.0 L 306.0,749.0 L 378.0,791.0 L 404.0,815.0 L 412.0,832.0"/>
    <path d="M 621.0,771.0 L 624.0,796.0 L 612.0,807.0 L 577.0,831.0 L 538.0,847.0"/>
    <path d="M 563.0,703.0 L 579.0,709.0 L 587.0,720.0 L 714.0,807.0 L 743.0,837.0 L 749.0,858.0"/>
  </g>
</svg>
