<svg xmlns="http://www.w3.org/2000/svg" viewBox="0 0 1024 1024">
  <g style="fill:none;stroke:#000000;stroke-width:50;stroke-linecap:round;stroke-linejoin:round;" transform="scale(1, 1) translate(0, 0)">
    <path d="M 299.0,421.0 L 316.0,429.0 L 346.0,427.0 L 690.0,370.0 L 707.0,370.0 L 734.0,390.0 L 716.0,603.0 L 700.0,673.0 L 683.0,713.0 L 646.0,754.0 L 597.0,731.0 L 555.0,702.0"/>
    <path d="M 250.0,409.0 L 273.0,438.0 L 277.0,454.0 L 260.0,762.0 L 262.0,868.0 L 269.0,910.0 L 285.0,950.0 L 325.0,986.0 L 364.0,1005.0 L 418.0,1020.0 L 553.0,1037.0 L 654.0,1032.0 L 782.0,1005.0 L 864.0,968.0 L 900.0,937.0 L 915.0,780.0"/>
  </g>
</svg>
