<svg xmlns="http://www.w3.org/2000/svg" viewBox="0 0 1024 1024">
  <g style="fill:none;stroke:#000000;stroke-width:50;stroke-linecap:round;stroke-linejoin:round;" transform="scale(1, 1) translate(0, 0)">
    <path d="M 479.0,259.0 L 502.0,278.0 L 512.0,300.0 L 548.0,491.0"/>
    <path d="M 536.0,261.0 L 544.0,271.0 L 552.0,271.0 L 722.0,233.0 L 753.0,237.0 L 775.0,254.0 L 782.0,273.0 L 754.0,396.0 L 735.0,450.0 L 739.0,469.0"/>
    <path d="M 553.0,376.0 L 562.0,365.0 L 619.0,352.0 L 665.0,344.0 L 696.0,348.0"/>
    <path d="M 569.0,471.0 L 574.0,461.0 L 686.0,443.0 L 703.0,435.0"/>
    <path d="M 508.0,574.0 L 533.0,580.0 L 570.0,577.0 L 739.0,537.0 L 771.0,537.0"/>
    <path d="M 441.0,712.0 L 486.0,718.0 L 634.0,688.0 L 860.0,655.0 L 913.0,656.0 L 957.0,668.0"/>
    <path d="M 702.0,597.0 L 731.0,621.0 L 748.0,645.0 L 745.0,961.0 L 722.0,1001.0 L 691.0,991.0 L 610.0,944.0"/>
    <path d="M 512.0,778.0 L 577.0,824.0 L 591.0,852.0"/>
  </g>
</svg>
