<svg xmlns="http://www.w3.org/2000/svg" viewBox="0 0 1024 1024">
  <g style="fill:none;stroke:#000000;stroke-width:50;stroke-linecap:round;stroke-linejoin:round;" transform="scale(1, 1) translate(0, 0)">
    <path d="M 546.0,226.0 L 566.0,256.0 L 517.0,359.0 L 506.0,399.0 L 571.0,396.0 L 579.0,388.0"/>
    <path d="M 621.0,307.0 L 634.0,333.0 L 588.0,412.0 L 524.0,501.0 L 522.0,517.0 L 533.0,527.0 L 549.0,527.0 L 594.0,516.0"/>
    <path d="M 600.0,482.0 L 632.0,541.0"/>
    <path d="M 752.0,207.0 L 767.0,238.0 L 695.0,359.0 L 694.0,375.0 L 722.0,381.0 L 760.0,375.0 L 767.0,368.0"/>
    <path d="M 815.0,288.0 L 828.0,316.0 L 774.0,394.0 L 707.0,474.0 L 705.0,490.0 L 715.0,499.0 L 731.0,499.0 L 786.0,482.0 L 792.0,485.0"/>
    <path d="M 789.0,447.0 L 830.0,493.0 L 836.0,514.0"/>
    <path d="M 446.0,616.0 L 485.0,620.0 L 521.0,615.0 L 815.0,562.0 L 845.0,561.0 L 864.0,567.0"/>
    <path d="M 525.0,636.0 L 538.0,646.0 L 541.0,661.0 L 500.0,730.0 L 499.0,749.0 L 537.0,754.0 L 558.0,743.0"/>
    <path d="M 603.0,666.0 L 614.0,691.0 L 570.0,758.0 L 542.0,789.0 L 524.0,818.0 L 523.0,836.0 L 549.0,839.0 L 598.0,824.0"/>
    <path d="M 602.0,787.0 L 632.0,837.0"/>
    <path d="M 710.0,605.0 L 728.0,624.0 L 678.0,731.0 L 737.0,731.0 L 760.0,719.0"/>
    <path d="M 802.0,649.0 L 813.0,666.0 L 812.0,682.0 L 785.0,724.0 L 730.0,784.0 L 716.0,815.0 L 717.0,824.0 L 730.0,828.0 L 798.0,813.0 L 805.0,819.0"/>
    <path d="M 801.0,778.0 L 841.0,825.0 L 848.0,851.0"/>
    <path d="M 389.0,249.0 L 417.0,279.0 L 423.0,315.0 L 424.0,599.0 L 407.0,940.0 L 448.0,943.0 L 543.0,925.0 L 635.0,918.0 L 836.0,913.0 L 905.0,914.0 L 945.0,932.0"/>
  </g>
</svg>
