<svg xmlns="http://www.w3.org/2000/svg" viewBox="0 0 1024 1024">
  <g style="fill:none;stroke:#000000;stroke-width:50;stroke-linecap:round;stroke-linejoin:round;" transform="scale(1, 1) translate(0, 0)">
    <path d="M 426.0,175.0 L 456.0,217.0 L 418.0,299.0 L 345.0,393.0 L 273.0,448.0"/>
    <path d="M 434.0,327.0 L 562.0,301.0 L 602.0,312.0 L 598.0,335.0 L 522.0,453.0 L 496.0,468.0"/>
    <path d="M 243.0,496.0 L 287.0,524.0 L 344.0,698.0"/>
    <path d="M 326.0,529.0 L 338.0,512.0 L 465.0,495.0 L 633.0,458.0 L 677.0,454.0 L 699.0,464.0 L 725.0,496.0 L 683.0,584.0 L 650.0,605.0"/>
    <path d="M 357.0,655.0 L 372.0,666.0 L 640.0,629.0 L 708.0,638.0"/>
    <path d="M 316.0,825.0 L 326.0,814.0 L 382.0,796.0 L 444.0,785.0 L 479.0,789.0"/>
    <path d="M 244.0,705.0 L 274.0,736.0 L 283.0,767.0 L 286.0,869.0 L 277.0,961.0 L 331.0,952.0 L 467.0,886.0"/>
    <path d="M 750.0,697.0 L 761.0,721.0 L 762.0,740.0 L 691.0,785.0 L 605.0,826.0 L 597.0,840.0"/>
    <path d="M 543.0,699.0 L 570.0,739.0 L 565.0,877.0 L 572.0,939.0 L 587.0,973.0 L 630.0,1002.0 L 679.0,1014.0 L 746.0,1016.0 L 813.0,1003.0 L 852.0,985.0 L 876.0,962.0 L 888.0,847.0"/>
  </g>
</svg>
