<svg xmlns="http://www.w3.org/2000/svg" viewBox="0 0 1024 1024">
  <g style="fill:none;stroke:#000000;stroke-width:50;stroke-linecap:round;stroke-linejoin:round;" transform="scale(1, 1) translate(0, 0)">
    <path d="M 236.0,642.0 L 302.0,676.0 L 334.0,712.0"/>
    <path d="M 160.0,745.0 L 220.0,786.0 L 241.0,814.0"/>
    <path d="M 214.0,1076.0 L 209.0,1047.0 L 213.0,999.0 L 336.0,835.0"/>
    <path d="M 490.0,579.0 L 518.0,611.0 L 502.0,661.0 L 458.0,741.0 L 401.0,801.0"/>
    <path d="M 514.0,694.0 L 544.0,693.0 L 704.0,643.0 L 747.0,639.0 L 775.0,662.0 L 714.0,752.0"/>
    <path d="M 556.0,747.0 L 586.0,786.0 L 557.0,876.0 L 530.0,932.0 L 489.0,983.0 L 455.0,1010.0 L 412.0,1035.0 L 362.0,1052.0"/>
    <path d="M 596.0,859.0 L 600.0,876.0 L 648.0,934.0 L 747.0,1029.0 L 872.0,1052.0"/>
  </g>
</svg>
