<svg xmlns="http://www.w3.org/2000/svg" viewBox="0 0 1024 1024">
  <g style="fill:none;stroke:#000000;stroke-width:50;stroke-linecap:round;stroke-linejoin:round;" transform="scale(1, 1) translate(0, 0)">
    <path d="M 506.0,292.0 L 529.0,319.0 L 503.0,382.0 L 443.0,466.0 L 424.0,484.0 L 414.0,486.0 L 409.0,496.0"/>
    <path d="M 614.0,215.0 L 647.0,226.0 L 762.0,359.0 L 847.0,435.0 L 893.0,451.0 L 975.0,460.0"/>
    <path d="M 503.0,458.0 L 571.0,455.0 L 681.0,417.0 L 717.0,415.0"/>
    <path d="M 532.0,480.0 L 556.0,501.0 L 534.0,547.0 L 531.0,572.0 L 557.0,577.0 L 634.0,547.0 L 671.0,540.0 L 693.0,543.0 L 719.0,568.0 L 695.0,652.0 L 661.0,699.0 L 643.0,712.0 L 631.0,717.0 L 554.0,664.0"/>
    <path d="M 439.0,784.0 L 466.0,811.0 L 487.0,941.0 L 501.0,954.0"/>
    <path d="M 497.0,814.0 L 512.0,797.0 L 740.0,757.0 L 787.0,759.0 L 812.0,785.0 L 815.0,797.0 L 787.0,897.0 L 758.0,922.0"/>
    <path d="M 556.0,807.0 L 567.0,826.0 L 579.0,925.0 L 588.0,945.0"/>
    <path d="M 654.0,793.0 L 680.0,810.0 L 683.0,818.0 L 676.0,880.0 L 665.0,923.0 L 654.0,940.0"/>
    <path d="M 370.0,981.0 L 415.0,990.0 L 603.0,963.0 L 858.0,941.0 L 892.0,943.0 L 948.0,960.0"/>
  </g>
</svg>
