<svg xmlns="http://www.w3.org/2000/svg" viewBox="0 0 1024 1024">
  <g style="fill:none;stroke:#000000;stroke-width:50;stroke-linecap:round;stroke-linejoin:round;" transform="scale(1, 1) translate(0, 0)">
    <path d="M 750.0,266.0 L 735.0,261.0 L 692.0,265.0 L 605.0,332.0 L 515.0,378.0"/>
    <path d="M 484.0,426.0 L 541.0,465.0 L 558.0,494.0"/>
    <path d="M 619.0,397.0 L 660.0,436.0 L 669.0,454.0"/>
    <path d="M 799.0,348.0 L 821.0,381.0 L 705.0,518.0"/>
    <path d="M 540.0,546.0 L 557.0,573.0 L 537.0,617.0 L 516.0,649.0 L 465.0,696.0"/>
    <path d="M 569.0,615.0 L 636.0,611.0 L 762.0,579.0 L 805.0,580.0"/>
    <path d="M 464.0,761.0 L 507.0,766.0 L 829.0,709.0 L 866.0,710.0 L 913.0,721.0"/>
    <path d="M 641.0,634.0 L 670.0,656.0 L 675.0,697.0 L 670.0,872.0 L 653.0,897.0"/>
    <path d="M 495.0,821.0 L 521.0,858.0 L 513.0,953.0 L 552.0,952.0 L 602.0,935.0 L 774.0,896.0 L 805.0,892.0 L 822.0,905.0"/>
    <path d="M 819.0,779.0 L 849.0,810.0 L 850.0,985.0"/>
  </g>
</svg>
