<svg xmlns="http://www.w3.org/2000/svg" viewBox="0 0 1024 1024">
  <g style="fill:none;stroke:#000000;stroke-width:50;stroke-linecap:round;stroke-linejoin:round;" transform="scale(1, 1) translate(0, 0)">
    <path d="M 203.0,315.0 L 256.0,323.0 L 437.0,292.0 L 755.0,257.0 L 836.0,276.0"/>
    <path d="M 464.0,314.0 L 496.0,344.0 L 491.0,593.0 L 473.0,616.0"/>
    <path d="M 531.0,450.0 L 540.0,458.0 L 560.0,459.0 L 697.0,432.0 L 733.0,435.0"/>
    <path d="M 269.0,457.0 L 283.0,468.0 L 300.0,496.0 L 266.0,676.0 L 318.0,676.0 L 445.0,644.0 L 659.0,612.0 L 708.0,621.0 L 734.0,645.0 L 720.0,736.0 L 687.0,874.0 L 666.0,942.0 L 652.0,967.0 L 627.0,993.0 L 602.0,1003.0 L 497.0,929.0"/>
  </g>
</svg>
