<svg xmlns="http://www.w3.org/2000/svg" viewBox="0 0 1024 1024">
  <g style="fill:none;stroke:#000000;stroke-width:50;stroke-linecap:round;stroke-linejoin:round;" transform="scale(1, 1) translate(0, 0)">
    <path d="M 323.0,290.0 L 359.0,321.0 L 370.0,369.0 L 370.0,875.0 L 350.0,888.0"/>
    <path d="M 387.0,306.0 L 416.0,317.0 L 625.0,269.0 L 660.0,276.0 L 683.0,306.0 L 687.0,315.0 L 672.0,496.0 L 667.0,832.0 L 665.0,847.0 L 643.0,872.0"/>
    <path d="M 401.0,505.0 L 424.0,512.0 L 479.0,506.0 L 534.0,491.0 L 579.0,493.0"/>
    <path d="M 401.0,675.0 L 411.0,684.0 L 440.0,685.0 L 546.0,663.0 L 593.0,665.0"/>
    <path d="M 99.0,927.0 L 125.0,939.0 L 168.0,947.0 L 432.0,915.0 L 848.0,887.0 L 864.0,888.0 L 938.0,917.0"/>
  </g>
</svg>
