<svg xmlns="http://www.w3.org/2000/svg" viewBox="0 0 1024 1024">
  <g style="fill:none;stroke:#000000;stroke-width:50;stroke-linecap:round;stroke-linejoin:round;" transform="scale(1, 1) translate(0, 0)">
    <path d="M 272.0,319.0 L 300.0,337.0 L 317.0,358.0 L 306.0,487.0 L 282.0,601.0 L 239.0,687.0 L 190.0,750.0 L 115.0,816.0 L 66.0,844.0"/>
    <path d="M 321.0,587.0 L 327.0,598.0 L 401.0,649.0 L 419.0,669.0 L 435.0,703.0"/>
    <path d="M 576.0,231.0 L 602.0,245.0 L 637.0,289.0 L 614.0,458.0 L 581.0,592.0 L 528.0,711.0 L 483.0,771.0 L 420.0,831.0 L 358.0,863.0"/>
    <path d="M 625.0,569.0 L 627.0,594.0 L 664.0,647.0 L 713.0,708.0 L 787.0,783.0 L 832.0,816.0 L 958.0,838.0"/>
    <path d="M 203.0,970.0 L 237.0,980.0 L 267.0,981.0 L 407.0,960.0 L 694.0,937.0 L 781.0,961.0"/>
  </g>
</svg>
