<svg xmlns="http://www.w3.org/2000/svg" viewBox="0 0 1024 1024">
  <g style="fill:none;stroke:#000000;stroke-width:50;stroke-linecap:round;stroke-linejoin:round;" transform="scale(1, 1) translate(0, 0)">
    <path d="M 192.0,449.0 L 244.0,458.0 L 323.0,454.0 L 525.0,424.0 L 741.0,377.0 L 811.0,376.0"/>
    <path d="M 465.0,185.0 L 502.0,241.0 L 390.0,533.0 L 320.0,673.0 L 311.0,702.0 L 356.0,710.0 L 690.0,659.0 L 744.0,671.0"/>
    <path d="M 487.0,532.0 L 535.0,585.0 L 534.0,812.0 L 526.0,964.0 L 507.0,998.0 L 458.0,981.0 L 375.0,931.0"/>
    <path d="M 314.0,811.0 L 286.0,872.0 L 223.0,953.0 L 206.0,986.0"/>
    <path d="M 669.0,789.0 L 746.0,843.0 L 807.0,895.0 L 826.0,923.0 L 840.0,962.0"/>
  </g>
</svg>
