<svg xmlns="http://www.w3.org/2000/svg" viewBox="0 0 1024 1024">
  <g style="fill:none;stroke:#000000;stroke-width:50;stroke-linecap:round;stroke-linejoin:round;" transform="scale(1, 1) translate(0, 0)">
    <path d="M 662.0,294.0 L 576.0,303.0 L 529.0,354.0 L 469.0,406.0 L 382.0,465.0 L 378.0,473.0 L 363.0,480.0 L 356.0,476.0"/>
    <path d="M 273.0,471.0 L 317.0,508.0 L 325.0,526.0 L 338.0,588.0 L 366.0,844.0 L 369.0,857.0 L 385.0,864.0"/>
    <path d="M 375.0,630.0 L 391.0,616.0 L 640.0,573.0 L 750.0,548.0 L 784.0,550.0 L 815.0,561.0"/>
    <path d="M 595.0,610.0 L 627.0,631.0 L 634.0,648.0 L 603.0,835.0 L 583.0,850.0"/>
    <path d="M 104.0,910.0 L 161.0,923.0 L 490.0,888.0 L 848.0,866.0 L 885.0,871.0 L 941.0,892.0"/>
  </g>
</svg>
