<svg xmlns="http://www.w3.org/2000/svg" viewBox="0 0 1024 1024">
  <g style="fill:none;stroke:#000000;stroke-width:50;stroke-linecap:round;stroke-linejoin:round;" transform="scale(1, 1) translate(0, 0)">
    <path d="M 295.0,338.0 L 328.0,345.0 L 388.0,345.0 L 523.0,324.0 L 665.0,293.0 L 753.0,287.0"/>
    <path d="M 168.0,550.0 L 200.0,583.0 L 214.0,611.0 L 222.0,888.0 L 237.0,952.0"/>
    <path d="M 231.0,569.0 L 251.0,579.0 L 397.0,554.0 L 574.0,533.0 L 774.0,517.0 L 815.0,523.0 L 845.0,556.0 L 831.0,777.0 L 808.0,914.0 L 774.0,967.0 L 728.0,947.0 L 668.0,906.0"/>
    <path d="M 458.0,371.0 L 487.0,386.0 L 503.0,411.0 L 481.0,559.0 L 455.0,649.0 L 424.0,708.0 L 375.0,764.0 L 326.0,802.0 L 290.0,818.0"/>
    <path d="M 493.0,650.0 L 519.0,658.0 L 610.0,718.0 L 646.0,752.0 L 666.0,792.0"/>
  </g>
</svg>
