<svg xmlns="http://www.w3.org/2000/svg" viewBox="0 0 1024 1024">
  <g style="fill:none;stroke:#000000;stroke-width:50;stroke-linecap:round;stroke-linejoin:round;" transform="scale(1, 1) translate(0, 0)">
    <path d="M 688.0,286.0 L 663.0,275.0 L 615.0,267.0 L 569.0,292.0 L 477.0,327.0 L 331.0,367.0 L 317.0,362.0 L 306.0,370.0"/>
    <path d="M 271.0,514.0 L 296.0,522.0 L 350.0,524.0 L 494.0,503.0 L 656.0,468.0 L 725.0,467.0"/>
    <path d="M 468.0,351.0 L 519.0,382.0 L 514.0,627.0 L 498.0,649.0"/>
    <path d="M 122.0,711.0 L 187.0,729.0 L 407.0,690.0 L 844.0,637.0 L 916.0,658.0 L 934.0,673.0"/>
    <path d="M 538.0,725.0 L 492.0,740.0 L 436.0,825.0 L 357.0,915.0 L 344.0,951.0 L 381.0,955.0 L 623.0,909.0 L 668.0,903.0 L 684.0,909.0"/>
    <path d="M 631.0,800.0 L 746.0,922.0 L 763.0,951.0 L 775.0,1001.0"/>
  </g>
</svg>
