<svg xmlns="http://www.w3.org/2000/svg" viewBox="0 0 1024 1024">
  <g style="fill:none;stroke:#000000;stroke-width:50;stroke-linecap:round;stroke-linejoin:round;" transform="scale(1, 1) translate(0, 0)">
    <path d="M 336.0,262.0 L 406.0,326.0 L 424.0,359.0"/>
    <path d="M 646.0,195.0 L 669.0,216.0 L 679.0,234.0 L 676.0,240.0 L 605.0,341.0 L 553.0,404.0 L 533.0,420.0"/>
    <path d="M 238.0,475.0 L 296.0,483.0 L 452.0,454.0 L 713.0,421.0 L 746.0,423.0 L 807.0,439.0"/>
    <path d="M 381.0,492.0 L 417.0,514.0 L 422.0,536.0 L 430.0,892.0 L 428.0,913.0 L 409.0,928.0"/>
    <path d="M 558.0,466.0 L 595.0,494.0 L 596.0,522.0 L 589.0,899.0 L 570.0,915.0"/>
    <path d="M 223.0,658.0 L 288.0,731.0 L 307.0,787.0"/>
    <path d="M 763.0,564.0 L 777.0,575.0 L 792.0,609.0 L 741.0,666.0 L 618.0,778.0"/>
    <path d="M 114.0,973.0 L 136.0,981.0 L 185.0,985.0 L 367.0,964.0 L 836.0,934.0 L 876.0,942.0 L 935.0,965.0"/>
  </g>
</svg>
