<svg xmlns="http://www.w3.org/2000/svg" viewBox="0 0 1024 1024">
  <g style="fill:none;stroke:#000000;stroke-width:50;stroke-linecap:round;stroke-linejoin:round;" transform="scale(1, 1) translate(0, 0)">
    <path d="M 162.0,382.0 L 193.0,412.0 L 209.0,444.0 L 214.0,541.0 L 203.0,696.0 L 246.0,692.0 L 360.0,654.0 L 376.0,631.0"/>
    <path d="M 360.0,275.0 L 390.0,293.0 L 415.0,324.0 L 412.0,598.0 L 404.0,713.0 L 392.0,782.0 L 355.0,894.0 L 311.0,968.0 L 240.0,1031.0 L 199.0,1053.0"/>
    <path d="M 549.0,201.0 L 577.0,208.0 L 613.0,242.0 L 606.0,375.0 L 603.0,1086.0"/>
    <path d="M 803.0,331.0 L 823.0,347.0 L 845.0,380.0 L 818.0,573.0 L 813.0,587.0 L 798.0,598.0"/>
    <path d="M 635.0,672.0 L 651.0,655.0 L 783.0,632.0 L 836.0,630.0 L 862.0,639.0"/>
  </g>
</svg>
