<svg xmlns="http://www.w3.org/2000/svg" viewBox="0 0 1024 1024">
  <g style="fill:none;stroke:#000000;stroke-width:50;stroke-linecap:round;stroke-linejoin:round;" transform="scale(1, 1) translate(0, 0)">
    <path d="M 285.0,313.0 L 354.0,361.0 L 378.0,401.0"/>
    <path d="M 417.0,231.0 L 494.0,285.0 L 514.0,320.0"/>
    <path d="M 667.0,222.0 L 693.0,253.0 L 581.0,423.0 L 562.0,434.0"/>
    <path d="M 162.0,503.0 L 220.0,511.0 L 496.0,467.0 L 785.0,436.0 L 870.0,455.0"/>
    <path d="M 342.0,509.0 L 368.0,547.0 L 346.0,589.0 L 303.0,648.0 L 209.0,746.0 L 122.0,808.0 L 75.0,832.0"/>
    <path d="M 576.0,483.0 L 598.0,498.0 L 745.0,651.0 L 798.0,694.0 L 864.0,719.0 L 988.0,742.0"/>
    <path d="M 346.0,696.0 L 388.0,703.0 L 437.0,700.0 L 576.0,671.0 L 650.0,668.0"/>
    <path d="M 234.0,840.0 L 271.0,848.0 L 303.0,846.0 L 418.0,825.0 L 669.0,797.0 L 715.0,797.0 L 772.0,813.0"/>
    <path d="M 473.0,571.0 L 493.0,582.0 L 514.0,608.0 L 503.0,1086.0"/>
  </g>
</svg>
