<svg xmlns="http://www.w3.org/2000/svg" viewBox="0 0 1024 1024">
  <g style="fill:none;stroke:#000000;stroke-width:50;stroke-linecap:round;stroke-linejoin:round;" transform="scale(1, 1) translate(0, 0)">
    <path d="M 477.0,179.0 L 490.0,188.0 L 508.0,217.0 L 446.0,294.0 L 399.0,343.0 L 391.0,342.0"/>
    <path d="M 397.0,396.0 L 416.0,374.0 L 542.0,343.0 L 618.0,330.0 L 662.0,340.0 L 677.0,357.0 L 673.0,382.0 L 649.0,499.0 L 627.0,537.0 L 616.0,547.0 L 520.0,500.0"/>
    <path d="M 328.0,339.0 L 339.0,344.0 L 363.0,373.0 L 355.0,656.0 L 359.0,692.0 L 386.0,694.0 L 529.0,666.0 L 761.0,641.0 L 787.0,649.0 L 814.0,678.0 L 792.0,763.0 L 767.0,909.0 L 749.0,966.0 L 732.0,995.0 L 705.0,1015.0 L 693.0,1012.0 L 577.0,951.0"/>
    <path d="M 123.0,843.0 L 182.0,857.0 L 356.0,824.0 L 611.0,793.0 L 680.0,815.0"/>
  </g>
</svg>
