<svg xmlns="http://www.w3.org/2000/svg" viewBox="0 0 1024 1024">
  <g style="fill:none;stroke:#000000;stroke-width:50;stroke-linecap:round;stroke-linejoin:round;" transform="scale(1, 1) translate(0, 0)">
    <path d="M 660.0,228.0 L 591.0,210.0 L 514.0,251.0 L 401.0,291.0 L 321.0,310.0"/>
    <path d="M 185.0,427.0 L 242.0,434.0 L 405.0,402.0 L 752.0,357.0 L 836.0,374.0"/>
    <path d="M 463.0,296.0 L 496.0,309.0 L 514.0,329.0 L 509.0,764.0 L 494.0,1002.0 L 495.0,1085.0"/>
    <path d="M 359.0,463.0 L 379.0,485.0 L 382.0,497.0 L 381.0,717.0"/>
    <path d="M 200.0,577.0 L 221.0,582.0 L 270.0,578.0 L 341.0,561.0 L 356.0,546.0"/>
    <path d="M 196.0,700.0 L 250.0,709.0 L 324.0,673.0 L 338.0,672.0 L 344.0,656.0"/>
    <path d="M 812.0,483.0 L 780.0,475.0 L 738.0,506.0 L 667.0,543.0 L 653.0,561.0"/>
    <path d="M 613.0,443.0 L 636.0,472.0 L 631.0,597.0 L 636.0,631.0 L 649.0,664.0 L 667.0,680.0 L 709.0,693.0 L 749.0,696.0 L 786.0,689.0 L 808.0,677.0 L 823.0,664.0 L 830.0,569.0"/>
    <path d="M 479.0,659.0 L 482.0,668.0 L 459.0,735.0 L 358.0,843.0 L 247.0,934.0 L 172.0,979.0 L 125.0,997.0"/>
    <path d="M 536.0,688.0 L 551.0,727.0 L 588.0,766.0 L 696.0,869.0 L 777.0,930.0 L 831.0,949.0 L 974.0,976.0"/>
  </g>
</svg>
