<svg xmlns="http://www.w3.org/2000/svg" viewBox="0 0 1024 1024">
  <g style="fill:none;stroke:#000000;stroke-width:50;stroke-linecap:round;stroke-linejoin:round;" transform="scale(1, 1) translate(0, 0)">
    <path d="M 676.0,258.0 L 601.0,249.0 L 545.0,286.0 L 470.0,324.0 L 404.0,347.0 L 398.0,354.0 L 383.0,358.0 L 375.0,351.0"/>
    <path d="M 295.0,343.0 L 343.0,392.0 L 375.0,677.0 L 378.0,691.0 L 394.0,701.0"/>
    <path d="M 385.0,502.0 L 399.0,489.0 L 546.0,463.0 L 683.0,428.0 L 714.0,426.0 L 749.0,435.0"/>
    <path d="M 570.0,477.0 L 610.0,511.0 L 586.0,660.0 L 566.0,678.0"/>
    <path d="M 95.0,758.0 L 151.0,767.0 L 468.0,717.0 L 816.0,678.0 L 867.0,685.0 L 908.0,700.0"/>
    <path d="M 388.0,810.0 L 414.0,852.0 L 387.0,893.0 L 304.0,978.0 L 262.0,1009.0 L 197.0,1044.0"/>
  </g>
</svg>
