<svg xmlns="http://www.w3.org/2000/svg" viewBox="0 0 1024 1024">
  <g style="fill:none;stroke:#000000;stroke-width:50;stroke-linecap:round;stroke-linejoin:round;" transform="scale(1, 1) translate(0, 0)">
    <path d="M 84.0,715.0 L 134.0,717.0 L 165.0,708.0 L 419.0,593.0 L 662.0,471.0 L 688.0,468.0 L 713.0,483.0 L 672.0,646.0 L 651.0,715.0 L 639.0,736.0 L 621.0,754.0 L 612.0,753.0 L 588.0,745.0 L 534.0,708.0"/>
    <path d="M 438.0,216.0 L 462.0,231.0 L 484.0,258.0 L 487.0,295.0 L 478.0,524.0 L 452.0,798.0"/>
    <path d="M 251.0,484.0 L 272.0,497.0 L 303.0,531.0 L 295.0,716.0 L 308.0,852.0 L 320.0,881.0 L 338.0,902.0 L 389.0,932.0 L 479.0,954.0 L 583.0,964.0 L 759.0,960.0 L 848.0,946.0 L 900.0,916.0 L 899.0,732.0"/>
  </g>
</svg>
