<svg xmlns="http://www.w3.org/2000/svg" viewBox="0 0 1024 1024">
  <g style="fill:none;stroke:#000000;stroke-width:50;stroke-linecap:round;stroke-linejoin:round;" transform="scale(1, 1) translate(0, 0)">
    <path d="M 94.0,653.0 L 128.0,660.0 L 167.0,658.0 L 508.0,549.0 L 697.0,479.0 L 728.0,477.0 L 754.0,494.0 L 710.0,645.0 L 693.0,690.0 L 671.0,722.0 L 665.0,726.0 L 633.0,718.0 L 570.0,676.0"/>
    <path d="M 335.0,357.0 L 370.0,382.0 L 388.0,403.0 L 379.0,677.0 L 392.0,822.0 L 400.0,856.0 L 420.0,897.0 L 466.0,938.0 L 540.0,959.0 L 689.0,964.0 L 799.0,952.0 L 864.0,923.0 L 872.0,916.0 L 876.0,881.0 L 875.0,696.0"/>
  </g>
</svg>
