<svg xmlns="http://www.w3.org/2000/svg" viewBox="0 0 1024 1024">
  <g style="fill:none;stroke:#000000;stroke-width:50;stroke-linecap:round;stroke-linejoin:round;" transform="scale(1, 1) translate(0, 0)">
    <path d="M 304.0,464.0 L 359.0,468.0 L 525.0,441.0 L 628.0,415.0 L 660.0,419.0 L 699.0,450.0 L 666.0,567.0 L 660.0,581.0 L 635.0,600.0"/>
    <path d="M 165.0,671.0 L 233.0,679.0 L 431.0,640.0 L 705.0,617.0 L 789.0,613.0 L 818.0,626.0 L 841.0,662.0 L 789.0,828.0 L 760.0,889.0 L 739.0,906.0 L 641.0,856.0"/>
    <path d="M 465.0,225.0 L 499.0,251.0 L 511.0,268.0 L 512.0,286.0 L 495.0,1068.0"/>
    <path d="M 721.0,287.0 L 797.0,344.0 L 816.0,378.0"/>
  </g>
</svg>
