<svg xmlns="http://www.w3.org/2000/svg" viewBox="0 0 1024 1024">
  <g style="fill:none;stroke:#000000;stroke-width:50;stroke-linecap:round;stroke-linejoin:round;" transform="scale(1, 1) translate(0, 0)">
    <path d="M 462.0,172.0 L 478.0,198.0 L 481.0,222.0 L 458.0,250.0 L 418.0,292.0 L 335.0,361.0 L 254.0,408.0"/>
    <path d="M 449.0,302.0 L 506.0,301.0 L 591.0,284.0 L 617.0,287.0 L 640.0,301.0 L 624.0,331.0 L 569.0,403.0 L 507.0,473.0"/>
    <path d="M 303.0,508.0 L 364.0,512.0 L 519.0,489.0 L 670.0,458.0 L 700.0,467.0 L 730.0,494.0 L 729.0,503.0 L 676.0,688.0 L 651.0,705.0"/>
    <path d="M 107.0,655.0 L 162.0,665.0 L 372.0,634.0 L 830.0,592.0 L 895.0,598.0 L 941.0,612.0"/>
    <path d="M 283.0,773.0 L 315.0,781.0 L 648.0,737.0 L 688.0,738.0 L 722.0,749.0"/>
    <path d="M 473.0,513.0 L 508.0,539.0 L 509.0,941.0 L 503.0,987.0 L 482.0,1026.0 L 438.0,1012.0 L 348.0,962.0"/>
  </g>
</svg>
