<svg xmlns="http://www.w3.org/2000/svg" viewBox="0 0 1024 1024">
  <g style="fill:none;stroke:#000000;stroke-width:50;stroke-linecap:round;stroke-linejoin:round;" transform="scale(1, 1) translate(0, 0)">
    <path d="M 272.0,459.0 L 294.0,467.0 L 354.0,470.0 L 593.0,432.0 L 742.0,401.0 L 789.0,402.0"/>
    <path d="M 118.0,683.0 L 156.0,697.0 L 200.0,699.0 L 438.0,663.0 L 829.0,625.0 L 885.0,638.0 L 922.0,654.0"/>
    <path d="M 337.0,268.0 L 357.0,278.0 L 382.0,302.0 L 387.0,327.0 L 391.0,494.0 L 382.0,632.0 L 371.0,695.0 L 337.0,796.0 L 295.0,873.0 L 243.0,938.0 L 167.0,1001.0"/>
    <path d="M 561.0,197.0 L 589.0,204.0 L 626.0,239.0 L 617.0,490.0 L 615.0,1066.0"/>
  </g>
</svg>
