<svg xmlns="http://www.w3.org/2000/svg" viewBox="0 0 1024 1024">
  <g style="fill:none;stroke:#000000;stroke-width:50;stroke-linecap:round;stroke-linejoin:round;" transform="scale(1, 1) translate(0, 0)">
    <path d="M 433.0,195.0 L 547.0,257.0 L 577.0,298.0"/>
    <path d="M 132.0,454.0 L 190.0,463.0 L 459.0,417.0 L 800.0,379.0 L 831.0,381.0 L 896.0,400.0"/>
    <path d="M 415.0,452.0 L 446.0,478.0 L 445.0,493.0 L 407.0,556.0 L 335.0,646.0 L 309.0,695.0 L 333.0,702.0 L 459.0,697.0 L 487.0,683.0"/>
    <path d="M 595.0,487.0 L 615.0,510.0 L 624.0,533.0 L 621.0,540.0 L 577.0,616.0 L 481.0,738.0 L 399.0,822.0 L 333.0,879.0 L 209.0,962.0 L 140.0,995.0"/>
    <path d="M 652.0,666.0 L 675.0,695.0 L 679.0,710.0 L 605.0,826.0 L 550.0,888.0 L 486.0,946.0 L 372.0,1019.0"/>
    <path d="M 601.0,878.0 L 619.0,878.0 L 637.0,887.0 L 724.0,947.0 L 775.0,1000.0 L 789.0,1033.0"/>
  </g>
</svg>
