<svg xmlns="http://www.w3.org/2000/svg" viewBox="0 0 1024 1024">
  <g style="fill:none;stroke:#000000;stroke-width:50;stroke-linecap:round;stroke-linejoin:round;" transform="scale(1, 1) translate(0, 0)">
    <path d="M 435.0,213.0 L 535.0,267.0 L 569.0,308.0"/>
    <path d="M 151.0,463.0 L 214.0,472.0 L 451.0,434.0 L 780.0,405.0 L 826.0,411.0 L 870.0,425.0"/>
    <path d="M 384.0,515.0 L 402.0,526.0 L 427.0,558.0 L 420.0,661.0 L 397.0,779.0 L 377.0,832.0 L 342.0,894.0 L 293.0,945.0 L 261.0,969.0 L 238.0,978.0"/>
    <path d="M 564.0,449.0 L 607.0,487.0 L 609.0,917.0 L 603.0,958.0 L 582.0,992.0 L 537.0,979.0 L 457.0,935.0"/>
    <path d="M 266.0,624.0 L 242.0,685.0 L 184.0,770.0 L 177.0,790.0"/>
    <path d="M 715.0,597.0 L 832.0,686.0 L 855.0,714.0 L 873.0,760.0"/>
  </g>
</svg>
