<svg xmlns="http://www.w3.org/2000/svg" viewBox="0 0 1024 1024">
  <g style="fill:none;stroke:#000000;stroke-width:50;stroke-linecap:round;stroke-linejoin:round;" transform="scale(1, 1) translate(0, 0)">
    <path d="M 473.0,169.0 L 536.0,207.0 L 556.0,234.0"/>
    <path d="M 276.0,319.0 L 331.0,330.0 L 671.0,277.0 L 725.0,274.0 L 769.0,283.0"/>
    <path d="M 359.0,406.0 L 385.0,426.0 L 394.0,441.0 L 424.0,557.0"/>
    <path d="M 407.0,406.0 L 425.0,415.0 L 572.0,384.0 L 614.0,383.0 L 626.0,388.0 L 645.0,415.0 L 624.0,455.0 L 597.0,469.0"/>
    <path d="M 439.0,529.0 L 454.0,520.0 L 594.0,499.0 L 653.0,506.0"/>
    <path d="M 210.0,591.0 L 221.0,623.0 L 218.0,638.0 L 170.0,726.0 L 163.0,782.0"/>
    <path d="M 252.0,615.0 L 264.0,634.0 L 291.0,634.0 L 558.0,588.0 L 747.0,567.0 L 830.0,570.0 L 844.0,582.0 L 858.0,609.0 L 778.0,678.0"/>
    <path d="M 297.0,724.0 L 325.0,730.0 L 366.0,727.0 L 455.0,705.0 L 655.0,677.0 L 699.0,681.0 L 733.0,692.0"/>
    <path d="M 505.0,722.0 L 532.0,746.0 L 540.0,766.0 L 542.0,931.0 L 535.0,982.0 L 515.0,1015.0 L 471.0,999.0 L 404.0,961.0"/>
  </g>
</svg>
