<svg xmlns="http://www.w3.org/2000/svg" viewBox="0 0 1024 1024">
  <g style="fill:none;stroke:#000000;stroke-width:50;stroke-linecap:round;stroke-linejoin:round;" transform="scale(1, 1) translate(0, 0)">
    <path d="M 346.0,243.0 L 365.0,259.0 L 384.0,295.0 L 339.0,380.0 L 280.0,472.0 L 194.0,585.0 L 109.0,676.0 L 79.0,697.0"/>
    <path d="M 268.0,534.0 L 272.0,567.0 L 288.0,591.0 L 293.0,618.0 L 285.0,828.0 L 270.0,963.0 L 275.0,1031.0"/>
    <path d="M 422.0,500.0 L 438.0,508.0 L 487.0,509.0 L 685.0,457.0 L 721.0,459.0 L 750.0,478.0 L 706.0,625.0 L 667.0,708.0 L 624.0,775.0 L 576.0,829.0 L 525.0,869.0 L 443.0,917.0 L 361.0,954.0"/>
    <path d="M 434.0,613.0 L 472.0,623.0 L 660.0,839.0 L 766.0,933.0 L 810.0,952.0 L 964.0,972.0"/>
  </g>
</svg>
