<svg xmlns="http://www.w3.org/2000/svg" viewBox="0 0 1024 1024">
  <g style="fill:none;stroke:#000000;stroke-width:50;stroke-linecap:round;stroke-linejoin:round;" transform="scale(1, 1) translate(0, 0)">
    <path d="M 329.0,215.0 L 348.0,231.0 L 368.0,268.0 L 325.0,353.0 L 250.0,469.0 L 184.0,555.0 L 122.0,626.0 L 72.0,668.0"/>
    <path d="M 267.0,499.0 L 269.0,528.0 L 286.0,559.0 L 288.0,614.0 L 279.0,785.0 L 262.0,930.0 L 268.0,983.0"/>
    <path d="M 381.0,587.0 L 441.0,592.0 L 604.0,559.0 L 840.0,523.0 L 893.0,528.0 L 932.0,539.0"/>
    <path d="M 593.0,201.0 L 621.0,208.0 L 645.0,227.0 L 658.0,249.0 L 649.0,452.0 L 650.0,718.0 L 643.0,945.0 L 647.0,1074.0"/>
  </g>
</svg>
