<svg xmlns="http://www.w3.org/2000/svg" viewBox="0 0 1024 1024">
  <g style="fill:none;stroke:#000000;stroke-width:50;stroke-linecap:round;stroke-linejoin:round;" transform="scale(1, 1) translate(0, 0)">
    <path d="M 328.0,226.0 L 347.0,241.0 L 370.0,278.0 L 327.0,373.0 L 277.0,463.0 L 195.0,584.0 L 98.0,704.0 L 55.0,744.0"/>
    <path d="M 290.0,496.0 L 296.0,533.0 L 308.0,561.0 L 308.0,589.0 L 299.0,781.0 L 282.0,926.0 L 288.0,979.0"/>
    <path d="M 393.0,563.0 L 453.0,569.0 L 605.0,539.0 L 854.0,504.0 L 904.0,506.0 L 954.0,519.0"/>
    <path d="M 673.0,207.0 L 698.0,221.0 L 734.0,257.0 L 726.0,439.0 L 734.0,931.0 L 725.0,962.0 L 709.0,986.0 L 574.0,921.0"/>
    <path d="M 467.0,646.0 L 528.0,712.0 L 546.0,750.0"/>
  </g>
</svg>
