<svg xmlns="http://www.w3.org/2000/svg" viewBox="0 0 1024 1024">
  <g style="fill:none;stroke:#000000;stroke-width:50;stroke-linecap:round;stroke-linejoin:round;" transform="scale(1, 1) translate(0, 0)">
    <path d="M 342.0,223.0 L 361.0,239.0 L 381.0,275.0 L 341.0,353.0 L 291.0,435.0 L 195.0,568.0 L 115.0,661.0 L 59.0,709.0"/>
    <path d="M 245.0,545.0 L 249.0,571.0 L 271.0,614.0 L 268.0,773.0 L 252.0,919.0 L 258.0,984.0"/>
    <path d="M 464.0,398.0 L 536.0,442.0 L 567.0,483.0"/>
    <path d="M 684.0,403.0 L 726.0,443.0 L 725.0,495.0 L 708.0,600.0 L 684.0,675.0 L 649.0,748.0 L 603.0,811.0 L 550.0,857.0 L 460.0,906.0 L 347.0,946.0"/>
    <path d="M 418.0,585.0 L 438.0,587.0 L 463.0,602.0 L 650.0,826.0 L 765.0,931.0 L 788.0,943.0 L 850.0,958.0 L 968.0,971.0"/>
  </g>
</svg>
