<svg xmlns="http://www.w3.org/2000/svg" viewBox="0 0 1024 1024">
  <g style="fill:none;stroke:#000000;stroke-width:50;stroke-linecap:round;stroke-linejoin:round;" transform="scale(1, 1) translate(0, 0)">
    <path d="M 333.0,216.0 L 351.0,233.0 L 368.0,266.0 L 327.0,353.0 L 271.0,444.0 L 185.0,560.0 L 113.0,643.0 L 76.0,673.0"/>
    <path d="M 268.0,495.0 L 272.0,525.0 L 290.0,562.0 L 289.0,740.0 L 274.0,922.0 L 280.0,975.0"/>
    <path d="M 388.0,490.0 L 416.0,512.0 L 425.0,531.0 L 468.0,724.0"/>
    <path d="M 444.0,492.0 L 467.0,504.0 L 631.0,480.0 L 759.0,451.0 L 802.0,453.0 L 840.0,489.0 L 803.0,600.0 L 775.0,619.0"/>
    <path d="M 488.0,676.0 L 500.0,687.0 L 512.0,687.0 L 767.0,649.0 L 819.0,650.0 L 842.0,659.0"/>
    <path d="M 571.0,220.0 L 598.0,227.0 L 633.0,260.0 L 626.0,460.0 L 627.0,1070.0"/>
  </g>
</svg>
