<svg xmlns="http://www.w3.org/2000/svg" viewBox="0 0 1024 1024">
  <g style="fill:none;stroke:#000000;stroke-width:50;stroke-linecap:round;stroke-linejoin:round;" transform="scale(1, 1) translate(0, 0)">
    <path d="M 304.0,220.0 L 337.0,256.0 L 341.0,273.0 L 309.0,340.0 L 181.0,535.0 L 115.0,614.0 L 60.0,665.0"/>
    <path d="M 239.0,498.0 L 244.0,530.0 L 257.0,551.0 L 258.0,579.0 L 252.0,821.0 L 240.0,927.0 L 246.0,992.0"/>
    <path d="M 791.0,316.0 L 743.0,305.0 L 713.0,305.0 L 615.0,362.0 L 535.0,396.0 L 482.0,411.0 L 473.0,419.0 L 444.0,428.0 L 431.0,425.0 L 421.0,433.0"/>
    <path d="M 339.0,655.0 L 398.0,661.0 L 642.0,617.0 L 846.0,591.0 L 931.0,608.0"/>
    <path d="M 579.0,403.0 L 609.0,420.0 L 619.0,438.0 L 620.0,461.0 L 614.0,848.0 L 594.0,872.0"/>
    <path d="M 397.0,915.0 L 454.0,923.0 L 508.0,912.0 L 790.0,880.0 L 835.0,886.0 L 868.0,898.0"/>
  </g>
</svg>
