<svg xmlns="http://www.w3.org/2000/svg" viewBox="0 0 1024 1024">
  <g style="fill:none;stroke:#000000;stroke-width:50;stroke-linecap:round;stroke-linejoin:round;" transform="scale(1, 1) translate(0, 0)">
    <path d="M 310.0,213.0 L 337.0,239.0 L 348.0,267.0 L 299.0,366.0 L 259.0,434.0 L 170.0,560.0 L 118.0,622.0 L 60.0,677.0"/>
    <path d="M 232.0,519.0 L 236.0,547.0 L 256.0,579.0 L 257.0,600.0 L 253.0,796.0 L 240.0,923.0 L 246.0,988.0"/>
    <path d="M 515.0,220.0 L 537.0,240.0 L 548.0,264.0 L 526.0,319.0 L 467.0,426.0 L 416.0,496.0 L 370.0,546.0"/>
    <path d="M 498.0,427.0 L 522.0,418.0 L 565.0,416.0 L 647.0,398.0 L 752.0,370.0 L 809.0,367.0"/>
    <path d="M 346.0,671.0 L 404.0,678.0 L 535.0,653.0 L 835.0,614.0 L 876.0,617.0 L 924.0,631.0"/>
    <path d="M 584.0,441.0 L 627.0,470.0 L 623.0,1077.0"/>
  </g>
</svg>
