<svg xmlns="http://www.w3.org/2000/svg" viewBox="0 0 1024 1024">
  <g style="fill:none;stroke:#000000;stroke-width:50;stroke-linecap:round;stroke-linejoin:round;" transform="scale(1, 1) translate(0, 0)">
    <path d="M 290.0,263.0 L 309.0,279.0 L 328.0,315.0 L 302.0,365.0 L 228.0,484.0 L 175.0,556.0 L 97.0,642.0 L 59.0,673.0"/>
    <path d="M 225.0,535.0 L 229.0,567.0 L 242.0,592.0 L 244.0,637.0 L 236.0,808.0 L 224.0,911.0 L 230.0,976.0"/>
    <path d="M 452.0,357.0 L 480.0,392.0 L 449.0,482.0 L 406.0,560.0 L 367.0,611.0 L 318.0,656.0"/>
    <path d="M 530.0,227.0 L 571.0,241.0 L 596.0,263.0 L 707.0,434.0 L 744.0,480.0 L 801.0,533.0 L 843.0,549.0 L 993.0,577.0"/>
    <path d="M 385.0,684.0 L 425.0,692.0 L 446.0,690.0 L 687.0,630.0 L 705.0,629.0 L 734.0,651.0 L 711.0,834.0 L 694.0,903.0 L 668.0,958.0 L 638.0,984.0 L 607.0,971.0 L 539.0,922.0"/>
    <path d="M 490.0,706.0 L 513.0,722.0 L 519.0,743.0 L 486.0,820.0 L 408.0,939.0 L 363.0,990.0 L 327.0,1018.0"/>
  </g>
</svg>
