<svg xmlns="http://www.w3.org/2000/svg" viewBox="0 0 1024 1024">
  <g style="fill:none;stroke:#000000;stroke-width:50;stroke-linecap:round;stroke-linejoin:round;" transform="scale(1, 1) translate(0, 0)">
    <path d="M 327.0,229.0 L 345.0,245.0 L 362.0,284.0 L 317.0,365.0 L 246.0,469.0 L 170.0,562.0 L 105.0,630.0 L 57.0,668.0"/>
    <path d="M 260.0,497.0 L 262.0,530.0 L 273.0,551.0 L 273.0,606.0 L 268.0,761.0 L 250.0,930.0 L 256.0,983.0"/>
    <path d="M 478.0,381.0 L 499.0,387.0 L 562.0,386.0 L 765.0,339.0 L 811.0,340.0"/>
    <path d="M 581.0,415.0 L 606.0,441.0 L 595.0,501.0 L 517.0,839.0 L 502.0,859.0 L 490.0,864.0"/>
    <path d="M 409.0,620.0 L 463.0,623.0 L 604.0,601.0 L 720.0,573.0 L 744.0,573.0 L 758.0,580.0 L 789.0,610.0 L 732.0,820.0 L 703.0,845.0"/>
    <path d="M 327.0,898.0 L 381.0,909.0 L 603.0,879.0 L 862.0,858.0 L 929.0,868.0 L 961.0,881.0"/>
  </g>
</svg>
