<svg xmlns="http://www.w3.org/2000/svg" viewBox="0 0 1024 1024">
  <g style="fill:none;stroke:#000000;stroke-width:50;stroke-linecap:round;stroke-linejoin:round;" transform="scale(1, 1) translate(0, 0)">
    <path d="M 319.0,269.0 L 337.0,285.0 L 354.0,322.0 L 319.0,389.0 L 260.0,478.0 L 183.0,577.0 L 116.0,652.0 L 57.0,700.0"/>
    <path d="M 249.0,540.0 L 253.0,571.0 L 268.0,602.0 L 269.0,673.0 L 264.0,804.0 L 248.0,951.0 L 254.0,1016.0"/>
    <path d="M 354.0,601.0 L 409.0,605.0 L 749.0,528.0 L 790.0,527.0 L 852.0,539.0"/>
    <path d="M 526.0,234.0 L 546.0,245.0 L 579.0,278.0 L 574.0,521.0 L 560.0,651.0 L 543.0,735.0 L 508.0,827.0 L 469.0,887.0 L 402.0,947.0 L 316.0,993.0"/>
    <path d="M 592.0,627.0 L 602.0,679.0 L 631.0,726.0 L 721.0,856.0 L 783.0,927.0 L 825.0,961.0 L 977.0,1001.0"/>
    <path d="M 698.0,307.0 L 713.0,319.0 L 804.0,360.0 L 838.0,401.0"/>
  </g>
</svg>
