<svg xmlns="http://www.w3.org/2000/svg" viewBox="0 0 1024 1024">
  <g style="fill:none;stroke:#000000;stroke-width:50;stroke-linecap:round;stroke-linejoin:round;" transform="scale(1, 1) translate(0, 0)">
    <path d="M 302.0,260.0 L 328.0,285.0 L 339.0,310.0 L 290.0,406.0 L 181.0,569.0 L 86.0,679.0 L 51.0,709.0"/>
    <path d="M 261.0,501.0 L 269.0,537.0 L 281.0,555.0 L 283.0,590.0 L 272.0,812.0 L 257.0,918.0 L 262.0,1004.0"/>
    <path d="M 424.0,476.0 L 447.0,481.0 L 498.0,478.0 L 601.0,453.0 L 769.0,401.0 L 817.0,398.0"/>
    <path d="M 552.0,199.0 L 600.0,241.0 L 582.0,590.0 L 564.0,614.0"/>
    <path d="M 435.0,660.0 L 506.0,656.0 L 643.0,611.0 L 675.0,612.0 L 698.0,623.0 L 680.0,695.0 L 652.0,766.0 L 615.0,833.0 L 577.0,880.0 L 530.0,919.0 L 469.0,953.0 L 400.0,975.0 L 364.0,979.0"/>
    <path d="M 452.0,711.0 L 482.0,721.0 L 506.0,737.0 L 638.0,874.0 L 721.0,941.0 L 773.0,973.0 L 819.0,991.0 L 965.0,996.0"/>
  </g>
</svg>
