<svg xmlns="http://www.w3.org/2000/svg" viewBox="0 0 1024 1024">
  <g style="fill:none;stroke:#000000;stroke-width:50;stroke-linecap:round;stroke-linejoin:round;" transform="scale(1, 1) translate(0, 0)">
    <path d="M 296.0,293.0 L 314.0,308.0 L 335.0,342.0 L 304.0,411.0 L 270.0,473.0 L 169.0,622.0 L 83.0,722.0 L 55.0,745.0"/>
    <path d="M 267.0,529.0 L 278.0,588.0 L 278.0,683.0 L 271.0,862.0 L 258.0,975.0 L 263.0,1043.0"/>
    <path d="M 397.0,590.0 L 432.0,591.0 L 485.0,579.0 L 703.0,483.0 L 757.0,471.0"/>
    <path d="M 460.0,249.0 L 502.0,265.0 L 534.0,292.0 L 560.0,458.0 L 597.0,604.0 L 630.0,702.0 L 674.0,801.0 L 735.0,897.0 L 785.0,952.0 L 818.0,978.0 L 878.0,997.0 L 898.0,961.0 L 934.0,829.0"/>
    <path d="M 746.0,581.0 L 761.0,630.0 L 651.0,749.0 L 517.0,838.0 L 410.0,881.0"/>
    <path d="M 682.0,280.0 L 769.0,325.0 L 803.0,365.0"/>
  </g>
</svg>
