<svg xmlns="http://www.w3.org/2000/svg" viewBox="0 0 1024 1024">
  <g style="fill:none;stroke:#000000;stroke-width:50;stroke-linecap:round;stroke-linejoin:round;" transform="scale(1, 1) translate(0, 0)">
    <path d="M 500.0,234.0 L 520.0,272.0 L 515.0,287.0 L 476.0,373.0 L 432.0,437.0 L 384.0,489.0 L 335.0,530.0 L 220.0,596.0"/>
    <path d="M 512.0,381.0 L 511.0,390.0 L 555.0,432.0 L 716.0,554.0 L 764.0,567.0 L 889.0,578.0"/>
    <path d="M 326.0,618.0 L 354.0,660.0 L 287.0,793.0 L 200.0,897.0 L 113.0,965.0"/>
    <path d="M 319.0,799.0 L 334.0,801.0 L 413.0,852.0 L 433.0,871.0 L 455.0,915.0"/>
    <path d="M 639.0,612.0 L 663.0,638.0 L 666.0,652.0 L 627.0,784.0 L 579.0,866.0 L 544.0,909.0 L 450.0,987.0"/>
    <path d="M 667.0,770.0 L 672.0,788.0 L 726.0,855.0 L 830.0,959.0 L 905.0,981.0 L 969.0,991.0"/>
  </g>
</svg>
