<svg xmlns="http://www.w3.org/2000/svg" viewBox="0 0 1024 1024">
  <g style="fill:none;stroke:#000000;stroke-width:50;stroke-linecap:round;stroke-linejoin:round;" transform="scale(1, 1) translate(0, 0)">
    <path d="M 294.0,258.0 L 312.0,272.0 L 332.0,307.0 L 287.0,403.0 L 178.0,577.0 L 118.0,653.0 L 71.0,697.0"/>
    <path d="M 221.0,557.0 L 226.0,583.0 L 248.0,620.0 L 252.0,760.0 L 240.0,939.0 L 246.0,1004.0"/>
    <path d="M 701.0,309.0 L 716.0,336.0 L 720.0,359.0 L 715.0,366.0 L 654.0,433.0 L 550.0,519.0"/>
    <path d="M 334.0,628.0 L 389.0,633.0 L 594.0,595.0 L 792.0,569.0 L 833.0,573.0 L 872.0,585.0"/>
    <path d="M 472.0,254.0 L 515.0,284.0 L 521.0,312.0 L 523.0,532.0 L 514.0,773.0 L 501.0,911.0 L 506.0,960.0 L 540.0,952.0 L 656.0,870.0"/>
    <path d="M 548.0,631.0 L 579.0,645.0 L 705.0,782.0 L 818.0,873.0 L 959.0,889.0"/>
  </g>
</svg>
