<svg xmlns="http://www.w3.org/2000/svg" viewBox="0 0 1024 1024">
  <g style="fill:none;stroke:#000000;stroke-width:50;stroke-linecap:round;stroke-linejoin:round;" transform="scale(1, 1) translate(0, 0)">
    <path d="M 320.0,238.0 L 339.0,253.0 L 360.0,287.0 L 319.0,377.0 L 251.0,495.0 L 197.0,574.0 L 112.0,680.0 L 76.0,712.0"/>
    <path d="M 252.0,545.0 L 257.0,573.0 L 277.0,613.0 L 270.0,815.0 L 254.0,958.0 L 260.0,1011.0"/>
    <path d="M 578.0,249.0 L 602.0,275.0 L 614.0,299.0 L 592.0,348.0 L 527.0,464.0 L 454.0,569.0 L 386.0,652.0 L 332.0,701.0"/>
    <path d="M 629.0,355.0 L 634.0,376.0 L 704.0,461.0 L 777.0,540.0 L 820.0,577.0 L 877.0,598.0 L 977.0,616.0"/>
    <path d="M 683.0,622.0 L 694.0,659.0 L 550.0,758.0 L 538.0,761.0 L 535.0,773.0 L 523.0,776.0"/>
    <path d="M 478.0,634.0 L 507.0,671.0 L 496.0,812.0 L 498.0,903.0 L 514.0,949.0 L 543.0,971.0 L 588.0,987.0 L 664.0,994.0 L 721.0,989.0 L 784.0,963.0 L 803.0,941.0 L 804.0,801.0"/>
  </g>
</svg>
