<svg xmlns="http://www.w3.org/2000/svg" viewBox="0 0 1024 1024">
  <g style="fill:none;stroke:#000000;stroke-width:50;stroke-linecap:round;stroke-linejoin:round;" transform="scale(1, 1) translate(0, 0)">
    <path d="M 290.0,217.0 L 307.0,232.0 L 325.0,267.0 L 298.0,327.0 L 238.0,431.0 L 194.0,494.0 L 114.0,593.0 L 55.0,649.0"/>
    <path d="M 247.0,463.0 L 251.0,498.0 L 261.0,523.0 L 261.0,562.0 L 249.0,801.0 L 234.0,915.0 L 239.0,983.0"/>
    <path d="M 545.0,202.0 L 585.0,236.0 L 567.0,304.0 L 528.0,398.0 L 465.0,513.0 L 429.0,563.0 L 351.0,650.0 L 313.0,677.0 L 310.0,685.0"/>
    <path d="M 589.0,335.0 L 594.0,351.0 L 633.0,397.0 L 731.0,493.0 L 787.0,539.0 L 827.0,556.0 L 984.0,585.0"/>
    <path d="M 527.0,549.0 L 585.0,593.0 L 605.0,621.0"/>
    <path d="M 397.0,738.0 L 422.0,750.0 L 457.0,752.0 L 646.0,691.0 L 685.0,687.0 L 707.0,699.0 L 724.0,722.0 L 710.0,746.0 L 575.0,887.0 L 563.0,887.0"/>
    <path d="M 486.0,868.0 L 570.0,930.0 L 621.0,976.0 L 640.0,1003.0 L 651.0,1035.0"/>
  </g>
</svg>
