<svg xmlns="http://www.w3.org/2000/svg" viewBox="0 0 1024 1024">
  <g style="fill:none;stroke:#000000;stroke-width:50;stroke-linecap:round;stroke-linejoin:round;" transform="scale(1, 1) translate(0, 0)">
    <path d="M 297.0,224.0 L 323.0,247.0 L 336.0,271.0 L 305.0,345.0 L 193.0,541.0 L 117.0,641.0 L 67.0,693.0"/>
    <path d="M 238.0,518.0 L 244.0,547.0 L 263.0,580.0 L 265.0,623.0 L 260.0,800.0 L 244.0,947.0 L 250.0,1012.0"/>
    <path d="M 409.0,408.0 L 451.0,411.0 L 766.0,341.0 L 810.0,340.0 L 856.0,349.0"/>
    <path d="M 629.0,395.0 L 658.0,425.0 L 620.0,510.0 L 570.0,592.0 L 472.0,706.0 L 370.0,787.0"/>
    <path d="M 553.0,505.0 L 589.0,571.0 L 591.0,699.0 L 581.0,819.0 L 587.0,875.0"/>
    <path d="M 704.0,622.0 L 849.0,705.0 L 875.0,729.0 L 901.0,771.0"/>
    <path d="M 383.0,958.0 L 438.0,969.0 L 627.0,943.0 L 826.0,929.0 L 862.0,934.0 L 913.0,953.0"/>
  </g>
</svg>
