<svg xmlns="http://www.w3.org/2000/svg" viewBox="0 0 1024 1024">
  <g style="fill:none;stroke:#000000;stroke-width:50;stroke-linecap:round;stroke-linejoin:round;" transform="scale(1, 1) translate(0, 0)">
    <path d="M 302.0,225.0 L 321.0,239.0 L 343.0,276.0 L 299.0,364.0 L 185.0,540.0 L 115.0,626.0 L 44.0,697.0"/>
    <path d="M 242.0,505.0 L 246.0,543.0 L 258.0,568.0 L 259.0,628.0 L 254.0,830.0 L 242.0,943.0 L 247.0,1011.0"/>
    <path d="M 346.0,466.0 L 378.0,493.0 L 399.0,528.0 L 422.0,734.0 L 428.0,844.0 L 449.0,932.0"/>
    <path d="M 407.0,473.0 L 416.0,482.0 L 452.0,489.0 L 785.0,433.0 L 820.0,436.0 L 853.0,463.0 L 858.0,471.0 L 838.0,668.0 L 808.0,867.0 L 783.0,906.0 L 746.0,882.0 L 735.0,853.0"/>
    <path d="M 491.0,683.0 L 519.0,683.0 L 675.0,653.0 L 719.0,654.0 L 733.0,660.0"/>
    <path d="M 567.0,491.0 L 602.0,516.0 L 604.0,531.0 L 605.0,826.0 L 588.0,850.0"/>
    <path d="M 470.0,902.0 L 483.0,889.0 L 704.0,866.0 L 722.0,853.0"/>
  </g>
</svg>
