<svg xmlns="http://www.w3.org/2000/svg" viewBox="0 0 1024 1024">
  <g style="fill:none;stroke:#000000;stroke-width:50;stroke-linecap:round;stroke-linejoin:round;" transform="scale(1, 1) translate(0, 0)">
    <path d="M 278.0,262.0 L 296.0,276.0 L 316.0,311.0 L 279.0,391.0 L 224.0,487.0 L 155.0,587.0 L 106.0,648.0 L 59.0,693.0"/>
    <path d="M 198.0,569.0 L 203.0,596.0 L 224.0,629.0 L 226.0,657.0 L 219.0,865.0 L 208.0,974.0 L 214.0,1034.0"/>
    <path d="M 428.0,484.0 L 457.0,489.0 L 510.0,485.0 L 623.0,459.0 L 701.0,432.0 L 750.0,424.0 L 774.0,427.0"/>
    <path d="M 544.0,265.0 L 593.0,306.0 L 585.0,614.0 L 568.0,633.0"/>
    <path d="M 330.0,687.0 L 367.0,694.0 L 392.0,691.0 L 514.0,666.0 L 820.0,621.0 L 892.0,637.0"/>
    <path d="M 539.0,688.0 L 570.0,714.0 L 567.0,724.0 L 536.0,790.0 L 469.0,892.0 L 488.0,899.0 L 502.0,934.0 L 643.0,895.0 L 657.0,896.0 L 667.0,889.0 L 717.0,881.0 L 722.0,875.0 L 740.0,885.0"/>
    <path d="M 703.0,801.0 L 774.0,867.0 L 833.0,937.0 L 852.0,997.0"/>
  </g>
</svg>
