<svg xmlns="http://www.w3.org/2000/svg" viewBox="0 0 1024 1024">
  <g style="fill:none;stroke:#000000;stroke-width:50;stroke-linecap:round;stroke-linejoin:round;" transform="scale(1, 1) translate(0, 0)">
    <path d="M 296.0,238.0 L 315.0,253.0 L 334.0,287.0 L 291.0,388.0 L 201.0,533.0 L 129.0,629.0 L 64.0,696.0"/>
    <path d="M 244.0,515.0 L 249.0,545.0 L 268.0,576.0 L 267.0,787.0 L 256.0,911.0 L 262.0,976.0"/>
    <path d="M 538.0,229.0 L 632.0,283.0 L 660.0,324.0"/>
    <path d="M 427.0,490.0 L 464.0,497.0 L 520.0,493.0 L 762.0,436.0 L 827.0,432.0"/>
    <path d="M 455.0,619.0 L 500.0,689.0 L 524.0,745.0"/>
    <path d="M 701.0,552.0 L 731.0,601.0 L 643.0,825.0 L 613.0,846.0"/>
    <path d="M 336.0,895.0 L 388.0,904.0 L 543.0,880.0 L 857.0,848.0 L 893.0,851.0 L 943.0,868.0"/>
  </g>
</svg>
