<svg xmlns="http://www.w3.org/2000/svg" viewBox="0 0 1024 1024">
  <g style="fill:none;stroke:#000000;stroke-width:50;stroke-linecap:round;stroke-linejoin:round;" transform="scale(1, 1) translate(0, 0)">
    <path d="M 299.0,239.0 L 316.0,254.0 L 334.0,289.0 L 296.0,365.0 L 179.0,538.0 L 104.0,623.0 L 67.0,654.0"/>
    <path d="M 226.0,515.0 L 230.0,545.0 L 245.0,576.0 L 245.0,720.0 L 228.0,926.0 L 234.0,986.0"/>
    <path d="M 344.0,484.0 L 403.0,487.0 L 514.0,461.0 L 734.0,422.0 L 794.0,421.0 L 842.0,432.0"/>
    <path d="M 537.0,207.0 L 577.0,244.0 L 587.0,267.0 L 579.0,827.0 L 565.0,966.0 L 568.0,1050.0"/>
    <path d="M 558.0,479.0 L 544.0,494.0 L 539.0,522.0 L 521.0,563.0 L 447.0,681.0 L 354.0,788.0 L 293.0,837.0"/>
    <path d="M 606.0,492.0 L 617.0,522.0 L 699.0,633.0 L 750.0,695.0 L 812.0,755.0 L 968.0,799.0"/>
    <path d="M 435.0,812.0 L 469.0,818.0 L 652.0,784.0 L 703.0,788.0"/>
  </g>
</svg>
