<svg xmlns="http://www.w3.org/2000/svg" viewBox="0 0 1024 1024">
  <g style="fill:none;stroke:#000000;stroke-width:50;stroke-linecap:round;stroke-linejoin:round;" transform="scale(1, 1) translate(0, 0)">
    <path d="M 290.0,229.0 L 308.0,244.0 L 327.0,277.0 L 288.0,358.0 L 165.0,547.0 L 82.0,644.0 L 55.0,665.0"/>
    <path d="M 231.0,504.0 L 234.0,533.0 L 253.0,570.0 L 248.0,789.0 L 230.0,958.0 L 236.0,1011.0"/>
    <path d="M 443.0,356.0 L 463.0,370.0 L 476.0,391.0 L 465.0,441.0 L 442.0,504.0 L 417.0,549.0 L 381.0,592.0"/>
    <path d="M 480.0,480.0 L 567.0,474.0 L 743.0,428.0 L 784.0,433.0"/>
    <path d="M 358.0,668.0 L 412.0,672.0 L 658.0,622.0 L 794.0,602.0 L 868.0,617.0"/>
    <path d="M 567.0,207.0 L 601.0,224.0 L 622.0,247.0 L 609.0,536.0 L 581.0,725.0 L 549.0,805.0 L 487.0,883.0 L 423.0,932.0 L 329.0,976.0"/>
    <path d="M 624.0,676.0 L 628.0,706.0 L 646.0,730.0 L 753.0,865.0 L 811.0,924.0 L 847.0,940.0 L 984.0,975.0"/>
  </g>
</svg>
