<svg xmlns="http://www.w3.org/2000/svg" viewBox="0 0 1024 1024">
  <g style="fill:none;stroke:#000000;stroke-width:50;stroke-linecap:round;stroke-linejoin:round;" transform="scale(1, 1) translate(0, 0)">
    <path d="M 305.0,221.0 L 332.0,250.0 L 341.0,274.0 L 318.0,323.0 L 245.0,449.0 L 180.0,539.0 L 107.0,627.0 L 60.0,669.0"/>
    <path d="M 225.0,521.0 L 230.0,547.0 L 251.0,590.0 L 248.0,776.0 L 232.0,923.0 L 238.0,988.0"/>
    <path d="M 526.0,207.0 L 546.0,227.0 L 556.0,250.0 L 523.0,310.0 L 474.0,385.0 L 419.0,453.0 L 347.0,520.0"/>
    <path d="M 504.0,385.0 L 648.0,357.0 L 687.0,364.0 L 694.0,372.0 L 680.0,406.0 L 645.0,459.0 L 543.0,579.0 L 431.0,681.0 L 313.0,756.0"/>
    <path d="M 455.0,471.0 L 482.0,479.0 L 516.0,500.0 L 653.0,624.0 L 772.0,699.0 L 809.0,709.0 L 965.0,718.0"/>
    <path d="M 521.0,714.0 L 609.0,759.0 L 638.0,795.0"/>
    <path d="M 490.0,868.0 L 582.0,935.0 L 630.0,978.0 L 650.0,1008.0 L 661.0,1042.0"/>
  </g>
</svg>
