<svg xmlns="http://www.w3.org/2000/svg" viewBox="0 0 1024 1024">
  <g style="fill:none;stroke:#000000;stroke-width:50;stroke-linecap:round;stroke-linejoin:round;" transform="scale(1, 1) translate(0, 0)">
    <path d="M 321.0,240.0 L 338.0,255.0 L 358.0,290.0 L 297.0,406.0 L 171.0,584.0 L 88.0,676.0 L 59.0,697.0"/>
    <path d="M 239.0,535.0 L 244.0,565.0 L 260.0,592.0 L 263.0,657.0 L 260.0,818.0 L 248.0,943.0 L 254.0,1008.0"/>
    <path d="M 462.0,347.0 L 522.0,355.0 L 685.0,321.0 L 732.0,324.0"/>
    <path d="M 400.0,496.0 L 452.0,506.0 L 728.0,459.0 L 773.0,458.0 L 809.0,466.0"/>
    <path d="M 536.0,564.0 L 553.0,580.0 L 564.0,606.0 L 494.0,798.0 L 512.0,815.0 L 592.0,852.0 L 722.0,934.0 L 768.0,975.0 L 801.0,1020.0"/>
    <path d="M 646.0,630.0 L 682.0,658.0 L 681.0,698.0 L 667.0,762.0 L 645.0,822.0 L 600.0,891.0 L 560.0,928.0 L 488.0,969.0 L 430.0,990.0 L 378.0,1000.0"/>
    <path d="M 330.0,699.0 L 350.0,706.0 L 386.0,707.0 L 609.0,672.0 L 803.0,653.0 L 849.0,653.0 L 908.0,670.0"/>
  </g>
</svg>
