<svg xmlns="http://www.w3.org/2000/svg" viewBox="0 0 1024 1024">
  <g style="fill:none;stroke:#000000;stroke-width:50;stroke-linecap:round;stroke-linejoin:round;" transform="scale(1, 1) translate(0, 0)">
    <path d="M 322.0,201.0 L 341.0,216.0 L 361.0,253.0 L 329.0,321.0 L 283.0,402.0 L 204.0,517.0 L 121.0,616.0 L 84.0,649.0"/>
    <path d="M 261.0,490.0 L 264.0,517.0 L 283.0,551.0 L 286.0,604.0 L 281.0,790.0 L 266.0,934.0 L 272.0,987.0"/>
    <path d="M 571.0,213.0 L 617.0,251.0 L 613.0,516.0 L 597.0,540.0"/>
    <path d="M 648.0,389.0 L 666.0,378.0 L 699.0,373.0 L 770.0,349.0 L 818.0,346.0"/>
    <path d="M 353.0,599.0 L 409.0,604.0 L 615.0,562.0 L 848.0,528.0 L 922.0,542.0"/>
    <path d="M 586.0,588.0 L 612.0,609.0 L 618.0,621.0 L 605.0,975.0 L 618.0,1053.0"/>
    <path d="M 654.0,696.0 L 659.0,707.0 L 733.0,735.0 L 791.0,766.0 L 812.0,784.0 L 830.0,813.0"/>
  </g>
</svg>
