<svg xmlns="http://www.w3.org/2000/svg" viewBox="0 0 1024 1024">
  <g style="fill:none;stroke:#000000;stroke-width:50;stroke-linecap:round;stroke-linejoin:round;" transform="scale(1, 1) translate(0, 0)">
    <path d="M 330.0,248.0 L 349.0,264.0 L 369.0,298.0 L 312.0,408.0 L 201.0,569.0 L 130.0,652.0 L 80.0,697.0"/>
    <path d="M 282.0,508.0 L 287.0,541.0 L 304.0,575.0 L 305.0,605.0 L 302.0,770.0 L 286.0,943.0 L 291.0,1011.0"/>
    <path d="M 485.0,454.0 L 527.0,460.0 L 575.0,455.0 L 737.0,415.0 L 793.0,413.0"/>
    <path d="M 584.0,217.0 L 633.0,258.0 L 626.0,551.0 L 608.0,574.0"/>
    <path d="M 397.0,624.0 L 442.0,630.0 L 567.0,605.0 L 810.0,569.0 L 855.0,573.0 L 889.0,584.0"/>
    <path d="M 474.0,786.0 L 506.0,793.0 L 546.0,792.0 L 711.0,759.0 L 771.0,756.0"/>
    <path d="M 591.0,626.0 L 622.0,650.0 L 629.0,688.0 L 624.0,903.0 L 608.0,921.0"/>
    <path d="M 364.0,967.0 L 416.0,976.0 L 841.0,927.0 L 890.0,934.0 L 927.0,948.0"/>
  </g>
</svg>
