<svg xmlns="http://www.w3.org/2000/svg" viewBox="0 0 1024 1024">
  <g style="fill:none;stroke:#000000;stroke-width:50;stroke-linecap:round;stroke-linejoin:round;" transform="scale(1, 1) translate(0, 0)">
    <path d="M 287.0,216.0 L 306.0,230.0 L 328.0,265.0 L 292.0,348.0 L 245.0,438.0 L 187.0,530.0 L 101.0,641.0 L 74.0,665.0"/>
    <path d="M 249.0,490.0 L 253.0,517.0 L 274.0,558.0 L 273.0,750.0 L 258.0,934.0 L 264.0,987.0"/>
    <path d="M 464.0,268.0 L 532.0,321.0 L 546.0,352.0"/>
    <path d="M 731.0,176.0 L 753.0,192.0 L 764.0,210.0 L 644.0,376.0"/>
    <path d="M 422.0,473.0 L 474.0,479.0 L 768.0,414.0 L 811.0,411.0 L 843.0,416.0"/>
    <path d="M 361.0,663.0 L 395.0,669.0 L 436.0,665.0 L 590.0,633.0 L 841.0,596.0 L 872.0,596.0 L 936.0,611.0"/>
    <path d="M 491.0,504.0 L 522.0,523.0 L 532.0,537.0 L 530.0,668.0 L 512.0,775.0 L 491.0,830.0 L 465.0,874.0 L 422.0,923.0 L 374.0,956.0"/>
    <path d="M 675.0,464.0 L 699.0,479.0 L 710.0,498.0 L 711.0,818.0 L 704.0,992.0 L 720.0,1079.0"/>
  </g>
</svg>
