<svg xmlns="http://www.w3.org/2000/svg" viewBox="0 0 1024 1024">
  <g style="fill:none;stroke:#000000;stroke-width:50;stroke-linecap:round;stroke-linejoin:round;" transform="scale(1, 1) translate(0, 0)">
    <path d="M 303.0,216.0 L 337.0,254.0 L 341.0,269.0 L 308.0,336.0 L 245.0,440.0 L 179.0,532.0 L 116.0,609.0 L 60.0,661.0"/>
    <path d="M 230.0,515.0 L 233.0,541.0 L 252.0,575.0 L 255.0,650.0 L 250.0,855.0 L 238.0,978.0 L 244.0,1031.0"/>
    <path d="M 403.0,361.0 L 445.0,369.0 L 491.0,366.0 L 615.0,345.0 L 765.0,310.0 L 832.0,306.0"/>
    <path d="M 444.0,395.0 L 479.0,418.0 L 486.0,440.0 L 485.0,751.0 L 468.0,762.0"/>
    <path d="M 663.0,362.0 L 712.0,393.0 L 707.0,1089.0"/>
    <path d="M 519.0,520.0 L 529.0,507.0 L 555.0,500.0 L 603.0,493.0 L 639.0,499.0"/>
    <path d="M 512.0,641.0 L 524.0,630.0 L 588.0,616.0 L 615.0,613.0 L 647.0,619.0"/>
    <path d="M 314.0,803.0 L 365.0,812.0 L 561.0,780.0 L 849.0,749.0 L 909.0,755.0 L 943.0,767.0"/>
  </g>
</svg>
