<svg xmlns="http://www.w3.org/2000/svg" viewBox="0 0 1024 1024">
  <g style="fill:none;stroke:#000000;stroke-width:50;stroke-linecap:round;stroke-linejoin:round;" transform="scale(1, 1) translate(0, 0)">
    <path d="M 314.0,227.0 L 331.0,243.0 L 350.0,277.0 L 307.0,362.0 L 258.0,441.0 L 165.0,567.0 L 84.0,656.0 L 55.0,677.0"/>
    <path d="M 228.0,523.0 L 233.0,554.0 L 248.0,580.0 L 251.0,646.0 L 246.0,831.0 L 236.0,935.0 L 242.0,1000.0"/>
    <path d="M 430.0,371.0 L 463.0,378.0 L 507.0,377.0 L 712.0,331.0 L 780.0,328.0"/>
    <path d="M 525.0,399.0 L 557.0,430.0 L 513.0,505.0 L 458.0,576.0 L 443.0,611.0 L 490.0,612.0 L 698.0,563.0 L 712.0,561.0 L 725.0,569.0"/>
    <path d="M 684.0,479.0 L 772.0,570.0 L 786.0,594.0 L 792.0,620.0"/>
    <path d="M 429.0,770.0 L 460.0,775.0 L 520.0,771.0 L 705.0,727.0 L 742.0,729.0"/>
    <path d="M 546.0,617.0 L 570.0,634.0 L 582.0,660.0 L 581.0,883.0 L 565.0,905.0"/>
    <path d="M 342.0,947.0 L 401.0,956.0 L 539.0,934.0 L 787.0,911.0 L 830.0,914.0 L 879.0,931.0"/>
  </g>
</svg>
