<svg xmlns="http://www.w3.org/2000/svg" viewBox="0 0 1024 1024">
  <g style="fill:none;stroke:#000000;stroke-width:50;stroke-linecap:round;stroke-linejoin:round;" transform="scale(1, 1) translate(0, 0)">
    <path d="M 279.0,257.0 L 296.0,271.0 L 315.0,307.0 L 270.0,398.0 L 159.0,570.0 L 94.0,647.0 L 55.0,681.0"/>
    <path d="M 204.0,547.0 L 208.0,577.0 L 226.0,608.0 L 229.0,673.0 L 226.0,796.0 L 212.0,939.0 L 218.0,1004.0"/>
    <path d="M 382.0,393.0 L 429.0,399.0 L 468.0,396.0 L 702.0,339.0 L 772.0,334.0"/>
    <path d="M 527.0,198.0 L 553.0,214.0 L 571.0,236.0 L 489.0,455.0 L 447.0,531.0 L 403.0,594.0 L 324.0,676.0 L 276.0,713.0"/>
    <path d="M 613.0,396.0 L 627.0,398.0 L 751.0,541.0 L 827.0,607.0 L 977.0,636.0"/>
    <path d="M 466.0,579.0 L 490.0,582.0 L 529.0,576.0 L 619.0,547.0 L 654.0,545.0"/>
    <path d="M 368.0,700.0 L 413.0,704.0 L 552.0,671.0 L 690.0,647.0 L 749.0,650.0 L 778.0,658.0"/>
    <path d="M 498.0,715.0 L 518.0,731.0 L 492.0,789.0 L 486.0,817.0 L 526.0,819.0 L 664.0,792.0 L 691.0,802.0 L 709.0,821.0 L 700.0,879.0 L 683.0,928.0 L 646.0,995.0 L 620.0,1022.0 L 596.0,1034.0 L 503.0,984.0"/>
  </g>
</svg>
