<svg xmlns="http://www.w3.org/2000/svg" viewBox="0 0 1024 1024">
  <g style="fill:none;stroke:#000000;stroke-width:50;stroke-linecap:round;stroke-linejoin:round;" transform="scale(1, 1) translate(0, 0)">
    <path d="M 270.0,220.0 L 288.0,233.0 L 308.0,269.0 L 267.0,364.0 L 154.0,554.0 L 106.0,617.0 L 58.0,665.0"/>
    <path d="M 213.0,509.0 L 219.0,536.0 L 241.0,571.0 L 242.0,591.0 L 234.0,780.0 L 221.0,882.0 L 226.0,968.0"/>
    <path d="M 359.0,396.0 L 384.0,401.0 L 422.0,398.0 L 577.0,354.0 L 614.0,355.0"/>
    <path d="M 429.0,425.0 L 457.0,449.0 L 438.0,499.0 L 377.0,605.0 L 337.0,662.0 L 311.0,687.0"/>
    <path d="M 418.0,583.0 L 528.0,562.0 L 551.0,579.0 L 509.0,702.0 L 437.0,818.0 L 372.0,894.0 L 302.0,947.0"/>
    <path d="M 361.0,661.0 L 382.0,668.0 L 412.0,695.0 L 427.0,730.0"/>
    <path d="M 639.0,460.0 L 666.0,492.0 L 665.0,748.0"/>
    <path d="M 774.0,231.0 L 796.0,244.0 L 829.0,279.0 L 819.0,531.0 L 822.0,927.0 L 801.0,977.0 L 692.0,925.0"/>
  </g>
</svg>
