<svg xmlns="http://www.w3.org/2000/svg" viewBox="0 0 1024 1024">
  <g style="fill:none;stroke:#000000;stroke-width:50;stroke-linecap:round;stroke-linejoin:round;" transform="scale(1, 1) translate(0, 0)">
    <path d="M 463.0,197.0 L 480.0,218.0 L 487.0,243.0 L 450.0,301.0 L 381.0,383.0 L 313.0,449.0 L 263.0,487.0 L 167.0,547.0 L 135.0,562.0 L 122.0,562.0 L 117.0,569.0"/>
    <path d="M 523.0,265.0 L 582.0,325.0 L 739.0,440.0 L 787.0,462.0 L 950.0,479.0"/>
    <path d="M 461.0,372.0 L 514.0,413.0 L 523.0,430.0"/>
    <path d="M 368.0,521.0 L 386.0,529.0 L 417.0,529.0 L 558.0,481.0 L 595.0,494.0 L 597.0,500.0 L 581.0,529.0 L 484.0,654.0"/>
    <path d="M 359.0,698.0 L 391.0,699.0 L 609.0,660.0 L 631.0,658.0 L 661.0,666.0"/>
    <path d="M 220.0,809.0 L 244.0,815.0 L 283.0,813.0 L 414.0,790.0 L 726.0,754.0 L 807.0,772.0"/>
    <path d="M 492.0,818.0 L 441.0,837.0 L 409.0,883.0 L 357.0,935.0 L 351.0,946.0 L 369.0,954.0 L 366.0,991.0 L 606.0,938.0 L 612.0,932.0 L 628.0,935.0 L 640.0,925.0 L 652.0,936.0"/>
    <path d="M 624.0,846.0 L 728.0,968.0 L 749.0,1011.0 L 756.0,1049.0"/>
  </g>
</svg>
