<svg xmlns="http://www.w3.org/2000/svg" viewBox="0 0 1024 1024">
  <g style="fill:none;stroke:#000000;stroke-width:50;stroke-linecap:round;stroke-linejoin:round;" transform="scale(1, 1) translate(0, 0)">
    <path d="M 314.0,225.0 L 340.0,250.0 L 351.0,273.0 L 318.0,345.0 L 263.0,441.0 L 174.0,567.0 L 103.0,651.0 L 67.0,681.0"/>
    <path d="M 236.0,525.0 L 242.0,552.0 L 265.0,587.0 L 266.0,607.0 L 258.0,796.0 L 245.0,898.0 L 250.0,984.0"/>
    <path d="M 576.0,215.0 L 601.0,251.0 L 598.0,264.0 L 536.0,365.0 L 495.0,412.0 L 475.0,459.0 L 506.0,463.0 L 532.0,458.0 L 719.0,411.0 L 730.0,420.0"/>
    <path d="M 695.0,339.0 L 783.0,420.0 L 803.0,468.0"/>
    <path d="M 456.0,538.0 L 480.0,571.0 L 470.0,598.0 L 426.0,678.0 L 370.0,734.0"/>
    <path d="M 477.0,645.0 L 545.0,642.0 L 713.0,600.0 L 750.0,594.0 L 773.0,597.0"/>
    <path d="M 333.0,823.0 L 372.0,831.0 L 393.0,829.0 L 534.0,800.0 L 812.0,762.0 L 851.0,765.0 L 900.0,779.0"/>
    <path d="M 581.0,495.0 L 606.0,511.0 L 623.0,537.0 L 619.0,1092.0"/>
  </g>
</svg>
