<svg xmlns="http://www.w3.org/2000/svg" viewBox="0 0 1024 1024">
  <g style="fill:none;stroke:#000000;stroke-width:50;stroke-linecap:round;stroke-linejoin:round;" transform="scale(1, 1) translate(0, 0)">
    <path d="M 304.0,222.0 L 323.0,237.0 L 344.0,271.0 L 312.0,343.0 L 265.0,429.0 L 174.0,569.0 L 103.0,655.0 L 68.0,688.0"/>
    <path d="M 217.0,549.0 L 223.0,576.0 L 245.0,619.0 L 241.0,783.0 L 224.0,947.0 L 230.0,1012.0"/>
    <path d="M 547.0,240.0 L 572.0,265.0 L 583.0,287.0 L 535.0,384.0 L 488.0,462.0 L 422.0,553.0 L 351.0,637.0 L 307.0,674.0"/>
    <path d="M 602.0,341.0 L 600.0,352.0 L 702.0,466.0 L 810.0,563.0 L 961.0,592.0"/>
    <path d="M 449.0,614.0 L 473.0,620.0 L 511.0,618.0 L 636.0,587.0 L 691.0,585.0"/>
    <path d="M 361.0,752.0 L 413.0,757.0 L 542.0,730.0 L 730.0,702.0 L 766.0,703.0 L 813.0,716.0"/>
    <path d="M 573.0,770.0 L 558.0,771.0 L 539.0,785.0 L 514.0,834.0 L 459.0,917.0 L 455.0,941.0 L 504.0,939.0 L 673.0,902.0 L 703.0,898.0 L 710.0,906.0"/>
    <path d="M 678.0,807.0 L 776.0,932.0 L 791.0,974.0 L 789.0,1001.0"/>
  </g>
</svg>
