<svg xmlns="http://www.w3.org/2000/svg" viewBox="0 0 1024 1024">
  <g style="fill:none;stroke:#000000;stroke-width:50;stroke-linecap:round;stroke-linejoin:round;" transform="scale(1, 1) translate(0, 0)">
    <path d="M 324.0,210.0 L 343.0,225.0 L 364.0,259.0 L 322.0,352.0 L 257.0,464.0 L 190.0,562.0 L 107.0,665.0 L 72.0,696.0"/>
    <path d="M 237.0,536.0 L 244.0,572.0 L 256.0,592.0 L 253.0,792.0 L 240.0,919.0 L 246.0,984.0"/>
    <path d="M 394.0,430.0 L 406.0,463.0 L 404.0,481.0 L 369.0,573.0 L 366.0,602.0"/>
    <path d="M 437.0,467.0 L 448.0,475.0 L 460.0,474.0 L 625.0,428.0 L 742.0,407.0 L 775.0,420.0 L 789.0,439.0 L 733.0,528.0"/>
    <path d="M 567.0,215.0 L 605.0,240.0 L 617.0,254.0 L 616.0,265.0 L 534.0,538.0 L 490.0,637.0 L 433.0,728.0 L 369.0,803.0 L 304.0,864.0"/>
    <path d="M 480.0,712.0 L 495.0,759.0 L 489.0,925.0 L 497.0,969.0 L 528.0,960.0 L 560.0,941.0 L 640.0,883.0"/>
    <path d="M 811.0,613.0 L 778.0,603.0 L 684.0,684.0 L 685.0,691.0"/>
    <path d="M 544.0,599.0 L 559.0,596.0 L 569.0,602.0 L 690.0,748.0 L 763.0,823.0 L 814.0,865.0 L 827.0,873.0 L 876.0,883.0 L 978.0,896.0"/>
  </g>
</svg>
