<svg xmlns="http://www.w3.org/2000/svg" viewBox="0 0 1024 1024">
  <g style="fill:none;stroke:#000000;stroke-width:50;stroke-linecap:round;stroke-linejoin:round;" transform="scale(1, 1) translate(0, 0)">
    <path d="M 291.0,221.0 L 309.0,237.0 L 330.0,272.0 L 292.0,351.0 L 232.0,451.0 L 164.0,548.0 L 95.0,630.0 L 64.0,657.0"/>
    <path d="M 256.0,469.0 L 259.0,502.0 L 270.0,530.0 L 270.0,635.0 L 262.0,793.0 L 246.0,938.0 L 252.0,991.0"/>
    <path d="M 439.0,324.0 L 469.0,344.0 L 476.0,359.0 L 527.0,525.0"/>
    <path d="M 499.0,323.0 L 513.0,333.0 L 644.0,306.0 L 698.0,288.0 L 714.0,286.0 L 744.0,294.0 L 771.0,326.0 L 733.0,419.0 L 703.0,441.0"/>
    <path d="M 545.0,506.0 L 558.0,492.0 L 701.0,467.0 L 747.0,465.0 L 771.0,473.0"/>
    <path d="M 597.0,505.0 L 628.0,533.0 L 632.0,627.0 L 626.0,803.0 L 630.0,828.0 L 646.0,854.0"/>
    <path d="M 661.0,665.0 L 675.0,656.0 L 787.0,634.0 L 833.0,634.0"/>
    <path d="M 445.0,650.0 L 475.0,688.0 L 443.0,774.0 L 407.0,835.0 L 370.0,882.0 L 311.0,937.0"/>
    <path d="M 493.0,745.0 L 501.0,773.0 L 582.0,845.0 L 670.0,911.0 L 751.0,960.0 L 785.0,974.0 L 821.0,979.0 L 954.0,977.0"/>
  </g>
</svg>
