<svg xmlns="http://www.w3.org/2000/svg" viewBox="0 0 1024 1024">
  <g style="fill:none;stroke:#000000;stroke-width:50;stroke-linecap:round;stroke-linejoin:round;" transform="scale(1, 1) translate(0, 0)">
    <path d="M 306.0,252.0 L 325.0,268.0 L 345.0,306.0 L 311.0,374.0 L 194.0,555.0 L 135.0,626.0 L 56.0,705.0"/>
    <path d="M 245.0,529.0 L 250.0,562.0 L 267.0,588.0 L 270.0,623.0 L 262.0,829.0 L 248.0,955.0 L 254.0,1020.0"/>
    <path d="M 470.0,325.0 L 541.0,331.0 L 628.0,316.0 L 736.0,286.0 L 797.0,287.0"/>
    <path d="M 557.0,355.0 L 563.0,364.0 L 586.0,375.0 L 599.0,395.0 L 544.0,638.0 L 521.0,665.0"/>
    <path d="M 439.0,514.0 L 488.0,514.0 L 689.0,461.0 L 723.0,464.0 L 743.0,480.0 L 752.0,495.0 L 750.0,508.0 L 714.0,612.0 L 683.0,640.0"/>
    <path d="M 349.0,707.0 L 409.0,713.0 L 594.0,677.0 L 850.0,643.0 L 907.0,649.0 L 940.0,659.0"/>
    <path d="M 438.0,793.0 L 458.0,810.0 L 472.0,835.0 L 512.0,1049.0"/>
    <path d="M 488.0,794.0 L 513.0,806.0 L 712.0,764.0 L 736.0,766.0 L 774.0,802.0 L 741.0,895.0 L 713.0,914.0"/>
    <path d="M 526.0,955.0 L 539.0,966.0 L 550.0,967.0 L 698.0,945.0 L 750.0,946.0 L 778.0,955.0"/>
  </g>
</svg>
