<svg xmlns="http://www.w3.org/2000/svg" viewBox="0 0 1024 1024">
  <g style="fill:none;stroke:#000000;stroke-width:50;stroke-linecap:round;stroke-linejoin:round;" transform="scale(1, 1) translate(0, 0)">
    <path d="M 293.0,265.0 L 310.0,280.0 L 329.0,315.0 L 284.0,406.0 L 180.0,562.0 L 129.0,624.0 L 68.0,685.0"/>
    <path d="M 252.0,512.0 L 255.0,549.0 L 265.0,571.0 L 261.0,754.0 L 240.0,959.0 L 246.0,1024.0"/>
    <path d="M 527.0,339.0 L 540.0,374.0 L 370.0,495.0"/>
    <path d="M 356.0,595.0 L 398.0,599.0 L 460.0,590.0 L 756.0,503.0 L 813.0,497.0"/>
    <path d="M 467.0,457.0 L 486.0,468.0 L 495.0,483.0 L 496.0,768.0 L 502.0,851.0 L 498.0,905.0 L 490.0,934.0 L 478.0,948.0 L 403.0,906.0"/>
    <path d="M 315.0,790.0 L 358.0,797.0 L 597.0,667.0"/>
    <path d="M 598.0,198.0 L 618.0,207.0 L 640.0,238.0 L 642.0,310.0 L 668.0,520.0 L 693.0,641.0 L 720.0,728.0 L 755.0,812.0 L 800.0,891.0 L 846.0,945.0 L 879.0,961.0 L 904.0,905.0 L 921.0,816.0"/>
    <path d="M 848.0,621.0 L 819.0,628.0 L 755.0,715.0 L 679.0,790.0 L 590.0,850.0"/>
    <path d="M 748.0,324.0 L 821.0,382.0 L 835.0,414.0"/>
  </g>
</svg>
