<svg xmlns="http://www.w3.org/2000/svg" viewBox="0 0 1024 1024">
  <g style="fill:none;stroke:#000000;stroke-width:50;stroke-linecap:round;stroke-linejoin:round;" transform="scale(1, 1) translate(0, 0)">
    <path d="M 299.0,234.0 L 326.0,260.0 L 339.0,284.0 L 305.0,359.0 L 234.0,484.0 L 178.0,566.0 L 117.0,647.0 L 52.0,713.0"/>
    <path d="M 214.0,558.0 L 220.0,589.0 L 237.0,623.0 L 236.0,795.0 L 224.0,939.0 L 230.0,1004.0"/>
    <path d="M 385.0,491.0 L 409.0,497.0 L 460.0,495.0 L 685.0,435.0 L 719.0,429.0 L 744.0,432.0"/>
    <path d="M 538.0,230.0 L 554.0,238.0 L 585.0,270.0 L 575.0,607.0 L 580.0,944.0 L 574.0,975.0 L 558.0,1006.0 L 482.0,977.0 L 446.0,960.0 L 444.0,953.0 L 433.0,953.0"/>
    <path d="M 383.0,605.0 L 447.0,655.0 L 463.0,680.0"/>
    <path d="M 304.0,862.0 L 324.0,870.0 L 351.0,869.0 L 512.0,724.0"/>
    <path d="M 747.0,534.0 L 765.0,570.0 L 652.0,668.0 L 643.0,666.0"/>
    <path d="M 604.0,644.0 L 618.0,678.0 L 657.0,722.0 L 743.0,809.0 L 827.0,878.0 L 984.0,904.0"/>
    <path d="M 713.0,287.0 L 794.0,334.0 L 823.0,371.0"/>
  </g>
</svg>
