<svg xmlns="http://www.w3.org/2000/svg" viewBox="0 0 1024 1024">
  <g style="fill:none;stroke:#000000;stroke-width:50;stroke-linecap:round;stroke-linejoin:round;" transform="scale(1, 1) translate(0, 0)">
    <path d="M 314.0,205.0 L 333.0,220.0 L 355.0,256.0 L 310.0,345.0 L 257.0,436.0 L 167.0,562.0 L 79.0,663.0 L 52.0,685.0"/>
    <path d="M 250.0,499.0 L 254.0,529.0 L 271.0,559.0 L 273.0,612.0 L 269.0,760.0 L 250.0,946.0 L 256.0,999.0"/>
    <path d="M 457.0,288.0 L 479.0,299.0 L 512.0,302.0 L 706.0,241.0 L 740.0,243.0 L 755.0,253.0 L 767.0,276.0 L 666.0,390.0 L 656.0,389.0"/>
    <path d="M 564.0,381.0 L 630.0,412.0 L 659.0,446.0"/>
    <path d="M 414.0,502.0 L 442.0,527.0 L 453.0,604.0 L 449.0,761.0 L 438.0,852.0 L 423.0,907.0 L 422.0,966.0"/>
    <path d="M 471.0,513.0 L 490.0,523.0 L 759.0,467.0 L 789.0,470.0 L 816.0,496.0 L 831.0,876.0 L 827.0,954.0 L 813.0,985.0 L 753.0,971.0 L 702.0,948.0"/>
    <path d="M 527.0,647.0 L 559.0,650.0 L 599.0,643.0 L 684.0,615.0 L 719.0,614.0"/>
    <path d="M 527.0,770.0 L 585.0,773.0 L 680.0,745.0 L 729.0,742.0"/>
    <path d="M 588.0,521.0 L 623.0,547.0 L 618.0,919.0 L 612.0,972.0"/>
  </g>
</svg>
