<svg xmlns="http://www.w3.org/2000/svg" viewBox="0 0 1024 1024">
  <g style="fill:none;stroke:#000000;stroke-width:50;stroke-linecap:round;stroke-linejoin:round;" transform="scale(1, 1) translate(0, 0)">
    <path d="M 317.0,236.0 L 342.0,262.0 L 352.0,288.0 L 304.0,382.0 L 173.0,570.0 L 100.0,651.0 L 72.0,673.0"/>
    <path d="M 235.0,531.0 L 239.0,558.0 L 260.0,592.0 L 262.0,627.0 L 261.0,791.0 L 248.0,955.0 L 254.0,1020.0"/>
    <path d="M 484.0,317.0 L 501.0,337.0 L 502.0,358.0 L 459.0,429.0 L 429.0,465.0 L 379.0,503.0"/>
    <path d="M 653.0,303.0 L 757.0,363.0 L 787.0,403.0"/>
    <path d="M 566.0,436.0 L 586.0,459.0 L 591.0,475.0 L 568.0,530.0 L 524.0,602.0 L 436.0,712.0 L 354.0,785.0 L 325.0,805.0 L 310.0,808.0 L 307.0,815.0"/>
    <path d="M 608.0,524.0 L 612.0,537.0 L 688.0,609.0 L 814.0,702.0 L 874.0,718.0 L 991.0,731.0"/>
    <path d="M 424.0,784.0 L 451.0,808.0 L 457.0,821.0 L 492.0,1021.0"/>
    <path d="M 483.0,790.0 L 500.0,799.0 L 675.0,764.0 L 707.0,771.0 L 736.0,799.0 L 706.0,888.0 L 679.0,908.0"/>
    <path d="M 509.0,945.0 L 525.0,956.0 L 668.0,936.0 L 723.0,936.0 L 747.0,945.0"/>
  </g>
</svg>
