<svg xmlns="http://www.w3.org/2000/svg" viewBox="0 0 1024 1024">
  <g style="fill:none;stroke:#000000;stroke-width:50;stroke-linecap:round;stroke-linejoin:round;" transform="scale(1, 1) translate(0, 0)">
    <path d="M 462.0,180.0 L 490.0,224.0 L 443.0,310.0 L 376.0,400.0 L 300.0,482.0 L 241.0,534.0 L 156.0,595.0 L 75.0,639.0"/>
    <path d="M 502.0,280.0 L 530.0,292.0 L 646.0,410.0 L 757.0,495.0 L 803.0,518.0 L 970.0,525.0"/>
    <path d="M 369.0,495.0 L 424.0,501.0 L 557.0,474.0 L 600.0,476.0"/>
    <path d="M 246.0,612.0 L 272.0,637.0 L 276.0,705.0 L 262.0,872.0 L 242.0,961.0 L 240.0,1001.0"/>
    <path d="M 302.0,624.0 L 314.0,630.0 L 411.0,603.0 L 426.0,609.0 L 446.0,630.0 L 444.0,719.0 L 453.0,915.0 L 447.0,972.0 L 432.0,995.0 L 350.0,959.0"/>
    <path d="M 296.0,738.0 L 327.0,721.0 L 388.0,721.0"/>
    <path d="M 290.0,849.0 L 303.0,838.0 L 326.0,831.0 L 354.0,827.0 L 388.0,833.0"/>
    <path d="M 538.0,643.0 L 562.0,674.0 L 565.0,893.0"/>
    <path d="M 664.0,559.0 L 686.0,571.0 L 706.0,597.0 L 704.0,783.0 L 714.0,986.0 L 698.0,1024.0 L 589.0,981.0"/>
  </g>
</svg>
