<svg xmlns="http://www.w3.org/2000/svg" viewBox="0 0 1024 1024">
  <g style="fill:none;stroke:#000000;stroke-width:50;stroke-linecap:round;stroke-linejoin:round;" transform="scale(1, 1) translate(0, 0)">
    <path d="M 327.0,223.0 L 345.0,238.0 L 366.0,276.0 L 327.0,351.0 L 256.0,466.0 L 174.0,576.0 L 110.0,650.0 L 56.0,697.0"/>
    <path d="M 246.0,526.0 L 250.0,552.0 L 271.0,588.0 L 274.0,655.0 L 268.0,825.0 L 256.0,931.0 L 262.0,996.0"/>
    <path d="M 577.0,208.0 L 604.0,244.0 L 601.0,254.0 L 557.0,334.0 L 496.0,419.0 L 490.0,444.0 L 530.0,445.0 L 702.0,404.0 L 733.0,407.0"/>
    <path d="M 694.0,326.0 L 766.0,396.0 L 779.0,414.0 L 791.0,454.0"/>
    <path d="M 488.0,514.0 L 512.0,545.0 L 509.0,556.0 L 477.0,621.0 L 418.0,686.0"/>
    <path d="M 504.0,620.0 L 568.0,617.0 L 736.0,575.0 L 768.0,580.0"/>
    <path d="M 358.0,788.0 L 412.0,792.0 L 788.0,724.0 L 837.0,725.0 L 882.0,737.0"/>
    <path d="M 572.0,643.0 L 603.0,661.0 L 610.0,673.0 L 608.0,713.0 L 590.0,799.0 L 567.0,854.0 L 534.0,901.0 L 490.0,939.0 L 449.0,965.0 L 374.0,991.0"/>
    <path d="M 624.0,778.0 L 628.0,794.0 L 709.0,885.0 L 808.0,977.0 L 953.0,1003.0"/>
  </g>
</svg>
