<svg xmlns="http://www.w3.org/2000/svg" viewBox="0 0 1024 1024">
  <g style="fill:none;stroke:#000000;stroke-width:50;stroke-linecap:round;stroke-linejoin:round;" transform="scale(1, 1) translate(0, 0)">
    <path d="M 319.0,233.0 L 346.0,260.0 L 359.0,284.0 L 324.0,357.0 L 268.0,454.0 L 181.0,581.0 L 97.0,680.0 L 68.0,705.0"/>
    <path d="M 226.0,562.0 L 230.0,588.0 L 253.0,623.0 L 251.0,784.0 L 236.0,951.0 L 242.0,1016.0"/>
    <path d="M 403.0,368.0 L 430.0,389.0 L 447.0,418.0 L 472.0,567.0 L 489.0,618.0"/>
    <path d="M 452.0,377.0 L 484.0,387.0 L 730.0,341.0 L 780.0,346.0 L 811.0,383.0 L 742.0,579.0"/>
    <path d="M 520.0,481.0 L 658.0,452.0 L 699.0,457.0"/>
    <path d="M 573.0,183.0 L 617.0,220.0 L 610.0,530.0 L 594.0,555.0"/>
    <path d="M 507.0,597.0 L 524.0,588.0 L 672.0,562.0 L 709.0,562.0 L 717.0,570.0"/>
    <path d="M 334.0,708.0 L 381.0,715.0 L 633.0,670.0 L 855.0,644.0 L 897.0,649.0 L 933.0,661.0"/>
    <path d="M 530.0,714.0 L 555.0,731.0 L 525.0,791.0 L 522.0,818.0 L 557.0,824.0 L 659.0,797.0 L 700.0,793.0 L 728.0,799.0 L 753.0,822.0 L 742.0,899.0 L 724.0,950.0 L 702.0,993.0 L 671.0,1035.0 L 640.0,1055.0 L 540.0,1004.0"/>
  </g>
</svg>
