<svg xmlns="http://www.w3.org/2000/svg" viewBox="0 0 1024 1024">
  <g style="fill:none;stroke:#000000;stroke-width:50;stroke-linecap:round;stroke-linejoin:round;" transform="scale(1, 1) translate(0, 0)">
    <path d="M 287.0,229.0 L 305.0,244.0 L 326.0,280.0 L 294.0,346.0 L 230.0,455.0 L 166.0,546.0 L 104.0,621.0 L 56.0,665.0"/>
    <path d="M 211.0,527.0 L 216.0,554.0 L 236.0,587.0 L 237.0,608.0 L 233.0,804.0 L 220.0,931.0 L 226.0,996.0"/>
    <path d="M 511.0,210.0 L 536.0,248.0 L 499.0,322.0 L 434.0,398.0 L 376.0,442.0"/>
    <path d="M 528.0,328.0 L 631.0,306.0 L 658.0,309.0 L 680.0,319.0 L 632.0,403.0 L 568.0,484.0"/>
    <path d="M 362.0,513.0 L 396.0,552.0 L 428.0,710.0"/>
    <path d="M 411.0,514.0 L 434.0,526.0 L 587.0,497.0 L 692.0,469.0 L 726.0,473.0 L 763.0,506.0 L 726.0,591.0 L 697.0,610.0"/>
    <path d="M 447.0,688.0 L 462.0,675.0 L 657.0,642.0 L 737.0,636.0 L 762.0,645.0"/>
    <path d="M 532.0,522.0 L 536.0,531.0 L 565.0,551.0 L 551.0,639.0 L 518.0,741.0 L 476.0,821.0 L 438.0,875.0 L 371.0,950.0 L 310.0,1000.0"/>
    <path d="M 591.0,707.0 L 615.0,739.0 L 608.0,864.0 L 615.0,935.0 L 638.0,966.0 L 689.0,988.0 L 748.0,994.0 L 804.0,990.0 L 852.0,978.0 L 882.0,962.0 L 899.0,945.0 L 900.0,789.0"/>
  </g>
</svg>
