<svg xmlns="http://www.w3.org/2000/svg" viewBox="0 0 1024 1024">
  <g style="fill:none;stroke:#000000;stroke-width:50;stroke-linecap:round;stroke-linejoin:round;" transform="scale(1, 1) translate(0, 0)">
    <path d="M 324.0,236.0 L 357.0,272.0 L 361.0,289.0 L 328.0,357.0 L 280.0,441.0 L 192.0,565.0 L 116.0,654.0 L 76.0,689.0"/>
    <path d="M 236.0,549.0 L 242.0,576.0 L 264.0,618.0 L 258.0,807.0 L 244.0,931.0 L 250.0,996.0"/>
    <path d="M 411.0,400.0 L 458.0,408.0 L 755.0,352.0 L 822.0,358.0"/>
    <path d="M 370.0,579.0 L 394.0,604.0 L 403.0,635.0 L 404.0,757.0 L 389.0,879.0 L 391.0,932.0"/>
    <path d="M 422.0,592.0 L 440.0,601.0 L 607.0,562.0 L 818.0,530.0 L 858.0,555.0 L 855.0,787.0 L 834.0,920.0 L 810.0,958.0 L 724.0,926.0 L 705.0,913.0"/>
    <path d="M 506.0,426.0 L 538.0,451.0 L 528.0,614.0 L 491.0,730.0 L 450.0,793.0"/>
    <path d="M 532.0,688.0 L 535.0,698.0 L 576.0,731.0 L 586.0,753.0"/>
    <path d="M 651.0,400.0 L 681.0,421.0 L 685.0,434.0 L 682.0,572.0 L 675.0,621.0 L 642.0,742.0 L 614.0,799.0 L 575.0,855.0"/>
    <path d="M 689.0,697.0 L 690.0,708.0 L 755.0,763.0 L 773.0,801.0"/>
  </g>
</svg>
