<svg xmlns="http://www.w3.org/2000/svg" viewBox="0 0 1024 1024">
  <g style="fill:none;stroke:#000000;stroke-width:50;stroke-linecap:round;stroke-linejoin:round;" transform="scale(1, 1) translate(0, 0)">
    <path d="M 296.0,233.0 L 315.0,248.0 L 336.0,283.0 L 311.0,339.0 L 254.0,443.0 L 192.0,539.0 L 106.0,652.0 L 51.0,705.0"/>
    <path d="M 211.0,554.0 L 216.0,580.0 L 236.0,620.0 L 236.0,755.0 L 220.0,942.0 L 226.0,1002.0"/>
    <path d="M 445.0,302.0 L 508.0,310.0 L 749.0,262.0 L 790.0,265.0"/>
    <path d="M 524.0,336.0 L 550.0,353.0 L 554.0,375.0 L 553.0,531.0 L 550.0,543.0 L 538.0,549.0"/>
    <path d="M 640.0,314.0 L 664.0,337.0 L 660.0,522.0 L 643.0,533.0"/>
    <path d="M 404.0,410.0 L 463.0,447.0 L 487.0,484.0"/>
    <path d="M 779.0,336.0 L 796.0,364.0 L 712.0,459.0"/>
    <path d="M 442.0,576.0 L 459.0,591.0 L 533.0,584.0 L 777.0,542.0 L 817.0,540.0 L 857.0,548.0"/>
    <path d="M 374.0,559.0 L 395.0,578.0 L 405.0,598.0 L 406.0,620.0 L 402.0,703.0 L 385.0,811.0 L 346.0,933.0 L 299.0,1015.0 L 268.0,1050.0"/>
  </g>
</svg>
