<svg xmlns="http://www.w3.org/2000/svg" viewBox="0 0 1024 1024">
  <g style="fill:none;stroke:#000000;stroke-width:50;stroke-linecap:round;stroke-linejoin:round;" transform="scale(1, 1) translate(0, 0)">
    <path d="M 310.0,237.0 L 329.0,251.0 L 351.0,288.0 L 307.0,376.0 L 257.0,460.0 L 164.0,590.0 L 100.0,665.0 L 52.0,709.0"/>
    <path d="M 227.0,547.0 L 232.0,578.0 L 247.0,604.0 L 251.0,671.0 L 246.0,858.0 L 236.0,963.0 L 242.0,1028.0"/>
    <path d="M 426.0,382.0 L 469.0,389.0 L 507.0,385.0 L 676.0,346.0 L 733.0,336.0 L 765.0,337.0"/>
    <path d="M 427.0,499.0 L 486.0,503.0 L 663.0,466.0 L 702.0,461.0 L 741.0,466.0"/>
    <path d="M 349.0,624.0 L 401.0,629.0 L 612.0,588.0 L 811.0,561.0 L 885.0,576.0"/>
    <path d="M 567.0,196.0 L 603.0,242.0 L 577.0,404.0 L 536.0,568.0 L 498.0,668.0 L 437.0,782.0 L 351.0,898.0 L 306.0,942.0"/>
    <path d="M 516.0,757.0 L 566.0,767.0 L 829.0,725.0 L 893.0,732.0"/>
    <path d="M 684.0,633.0 L 712.0,657.0 L 729.0,681.0 L 724.0,760.0 L 727.0,903.0 L 721.0,974.0 L 706.0,1004.0 L 666.0,993.0 L 598.0,958.0"/>
    <path d="M 496.0,813.0 L 562.0,854.0 L 587.0,892.0"/>
  </g>
</svg>
