<svg xmlns="http://www.w3.org/2000/svg" viewBox="0 0 1024 1024">
  <g style="fill:none;stroke:#000000;stroke-width:50;stroke-linecap:round;stroke-linejoin:round;" transform="scale(1, 1) translate(0, 0)">
    <path d="M 299.0,219.0 L 328.0,248.0 L 338.0,271.0 L 301.0,355.0 L 247.0,452.0 L 176.0,560.0 L 93.0,662.0 L 66.0,684.0"/>
    <path d="M 222.0,538.0 L 227.0,566.0 L 248.0,606.0 L 248.0,725.0 L 232.0,927.0 L 238.0,992.0"/>
    <path d="M 386.0,363.0 L 410.0,370.0 L 475.0,368.0 L 754.0,304.0 L 827.0,299.0"/>
    <path d="M 362.0,479.0 L 377.0,492.0 L 393.0,521.0 L 396.0,600.0 L 384.0,804.0 L 368.0,881.0 L 368.0,936.0"/>
    <path d="M 415.0,491.0 L 428.0,498.0 L 507.0,473.0 L 526.0,478.0 L 545.0,499.0 L 552.0,829.0 L 547.0,913.0 L 533.0,937.0 L 446.0,903.0"/>
    <path d="M 416.0,618.0 L 431.0,637.0 L 460.0,654.0 L 482.0,690.0"/>
    <path d="M 621.0,449.0 L 648.0,478.0 L 654.0,495.0 L 660.0,588.0 L 656.0,768.0 L 635.0,917.0 L 636.0,972.0"/>
    <path d="M 676.0,462.0 L 685.0,470.0 L 702.0,470.0 L 780.0,444.0 L 807.0,459.0 L 818.0,476.0 L 816.0,557.0 L 831.0,909.0 L 811.0,950.0 L 771.0,937.0 L 713.0,907.0"/>
    <path d="M 678.0,606.0 L 687.0,608.0 L 691.0,620.0 L 733.0,651.0 L 749.0,678.0"/>
  </g>
</svg>
