<svg xmlns="http://www.w3.org/2000/svg" viewBox="0 0 1024 1024">
  <g style="fill:none;stroke:#000000;stroke-width:50;stroke-linecap:round;stroke-linejoin:round;" transform="scale(1, 1) translate(0, 0)">
    <path d="M 318.0,233.0 L 344.0,258.0 L 354.0,285.0 L 306.0,381.0 L 197.0,549.0 L 103.0,660.0 L 75.0,681.0"/>
    <path d="M 251.0,520.0 L 253.0,557.0 L 264.0,575.0 L 266.0,663.0 L 261.0,817.0 L 246.0,962.0 L 252.0,1015.0"/>
    <path d="M 559.0,230.0 L 577.0,244.0 L 597.0,277.0 L 549.0,382.0 L 477.0,501.0 L 414.0,589.0 L 380.0,631.0 L 331.0,677.0"/>
    <path d="M 601.0,355.0 L 603.0,371.0 L 651.0,426.0 L 735.0,513.0 L 807.0,575.0 L 839.0,588.0 L 969.0,608.0"/>
    <path d="M 472.0,610.0 L 525.0,614.0 L 633.0,585.0 L 690.0,581.0"/>
    <path d="M 391.0,758.0 L 456.0,812.0 L 479.0,858.0"/>
    <path d="M 538.0,712.0 L 579.0,760.0 L 591.0,790.0"/>
    <path d="M 708.0,672.0 L 725.0,690.0 L 734.0,718.0 L 656.0,872.0 L 638.0,901.0 L 614.0,922.0"/>
    <path d="M 362.0,963.0 L 421.0,972.0 L 755.0,932.0 L 791.0,933.0 L 851.0,951.0"/>
  </g>
</svg>
