<svg xmlns="http://www.w3.org/2000/svg" viewBox="0 0 1024 1024">
  <g style="fill:none;stroke:#000000;stroke-width:50;stroke-linecap:round;stroke-linejoin:round;" transform="scale(1, 1) translate(0, 0)">
    <path d="M 294.0,230.0 L 317.0,253.0 L 329.0,275.0 L 291.0,354.0 L 226.0,462.0 L 160.0,556.0 L 110.0,615.0 L 71.0,650.0"/>
    <path d="M 221.0,511.0 L 226.0,543.0 L 239.0,565.0 L 241.0,610.0 L 235.0,780.0 L 220.0,910.0 L 226.0,970.0"/>
    <path d="M 330.0,495.0 L 351.0,519.0 L 355.0,534.0 L 349.0,755.0 L 354.0,789.0"/>
    <path d="M 527.0,181.0 L 545.0,198.0 L 554.0,218.0 L 514.0,311.0 L 444.0,405.0 L 398.0,441.0"/>
    <path d="M 518.0,356.0 L 670.0,311.0 L 685.0,313.0 L 704.0,326.0 L 696.0,353.0 L 637.0,442.0 L 565.0,525.0 L 472.0,596.0 L 381.0,644.0"/>
    <path d="M 467.0,405.0 L 482.0,403.0 L 513.0,419.0 L 679.0,554.0 L 806.0,624.0 L 968.0,618.0"/>
    <path d="M 627.0,612.0 L 604.0,615.0 L 552.0,676.0 L 503.0,715.0 L 453.0,744.0"/>
    <path d="M 688.0,701.0 L 657.0,706.0 L 616.0,760.0 L 557.0,817.0 L 495.0,865.0 L 438.0,896.0"/>
    <path d="M 687.0,787.0 L 708.0,830.0 L 630.0,922.0 L 516.0,1011.0 L 434.0,1055.0 L 385.0,1073.0"/>
  </g>
</svg>
