<svg xmlns="http://www.w3.org/2000/svg" viewBox="0 0 1024 1024">
  <g style="fill:none;stroke:#000000;stroke-width:50;stroke-linecap:round;stroke-linejoin:round;" transform="scale(1, 1) translate(0, 0)">
    <path d="M 318.0,193.0 L 355.0,243.0 L 318.0,319.0 L 253.0,429.0 L 176.0,537.0 L 92.0,637.0 L 56.0,669.0"/>
    <path d="M 223.0,513.0 L 228.0,543.0 L 245.0,579.0 L 241.0,743.0 L 224.0,907.0 L 230.0,972.0"/>
    <path d="M 421.0,355.0 L 461.0,362.0 L 507.0,358.0 L 700.0,313.0 L 752.0,312.0"/>
    <path d="M 419.0,463.0 L 469.0,467.0 L 654.0,425.0 L 724.0,425.0"/>
    <path d="M 344.0,576.0 L 389.0,582.0 L 550.0,552.0 L 785.0,519.0 L 858.0,534.0"/>
    <path d="M 546.0,191.0 L 572.0,204.0 L 594.0,229.0 L 565.0,349.0 L 507.0,526.0 L 471.0,605.0 L 423.0,684.0 L 357.0,766.0 L 288.0,832.0"/>
    <path d="M 641.0,563.0 L 820.0,715.0 L 879.0,732.0 L 990.0,747.0"/>
    <path d="M 456.0,733.0 L 515.0,736.0 L 651.0,702.0 L 704.0,699.0"/>
    <path d="M 380.0,860.0 L 425.0,866.0 L 706.0,820.0 L 757.0,824.0 L 790.0,834.0"/>
    <path d="M 552.0,630.0 L 586.0,662.0 L 579.0,1072.0"/>
  </g>
</svg>
