<svg xmlns="http://www.w3.org/2000/svg" viewBox="0 0 1024 1024">
  <g style="fill:none;stroke:#000000;stroke-width:50;stroke-linecap:round;stroke-linejoin:round;" transform="scale(1, 1) translate(0, 0)">
    <path d="M 314.0,212.0 L 339.0,237.0 L 352.0,261.0 L 301.0,363.0 L 244.0,454.0 L 151.0,582.0 L 87.0,652.0 L 59.0,673.0"/>
    <path d="M 239.0,503.0 L 244.0,532.0 L 262.0,567.0 L 262.0,736.0 L 248.0,903.0 L 254.0,968.0"/>
    <path d="M 562.0,181.0 L 594.0,210.0 L 525.0,335.0 L 506.0,349.0"/>
    <path d="M 403.0,360.0 L 429.0,379.0 L 447.0,407.0 L 477.0,579.0 L 496.0,631.0"/>
    <path d="M 451.0,367.0 L 480.0,374.0 L 500.0,372.0 L 703.0,330.0 L 745.0,330.0 L 770.0,338.0 L 795.0,369.0 L 748.0,539.0 L 728.0,584.0 L 732.0,605.0"/>
    <path d="M 512.0,489.0 L 640.0,465.0 L 670.0,463.0 L 691.0,469.0"/>
    <path d="M 512.0,604.0 L 528.0,596.0 L 679.0,571.0 L 702.0,559.0"/>
    <path d="M 578.0,375.0 L 609.0,402.0 L 603.0,511.0 L 588.0,589.0 L 570.0,641.0 L 539.0,690.0 L 495.0,734.0 L 468.0,746.0"/>
    <path d="M 318.0,776.0 L 366.0,785.0 L 511.0,759.0 L 866.0,726.0 L 912.0,732.0 L 947.0,744.0"/>
    <path d="M 626.0,646.0 L 649.0,662.0 L 664.0,686.0 L 662.0,969.0 L 655.0,1085.0"/>
  </g>
</svg>
