<svg xmlns="http://www.w3.org/2000/svg" viewBox="0 0 1024 1024">
  <g style="fill:none;stroke:#000000;stroke-width:50;stroke-linecap:round;stroke-linejoin:round;" transform="scale(1, 1) translate(0, 0)">
    <path d="M 472.0,171.0 L 487.0,183.0 L 504.0,213.0 L 466.0,295.0 L 414.0,373.0 L 351.0,453.0 L 290.0,514.0 L 198.0,590.0 L 132.0,631.0"/>
    <path d="M 532.0,248.0 L 539.0,256.0 L 537.0,265.0 L 644.0,360.0 L 730.0,426.0 L 792.0,465.0 L 820.0,478.0 L 976.0,498.0"/>
    <path d="M 482.0,384.0 L 538.0,424.0 L 547.0,443.0"/>
    <path d="M 434.0,534.0 L 454.0,540.0 L 527.0,516.0 L 607.0,501.0 L 645.0,506.0 L 661.0,522.0 L 671.0,536.0 L 631.0,684.0 L 612.0,734.0 L 594.0,739.0"/>
    <path d="M 427.0,655.0 L 440.0,645.0 L 523.0,629.0 L 546.0,627.0 L 567.0,633.0"/>
    <path d="M 403.0,757.0 L 422.0,745.0 L 565.0,724.0 L 585.0,712.0"/>
    <path d="M 379.0,518.0 L 406.0,547.0 L 411.0,565.0 L 388.0,710.0 L 360.0,813.0 L 312.0,906.0 L 287.0,938.0 L 202.0,1009.0 L 167.0,1024.0"/>
    <path d="M 394.0,861.0 L 413.0,877.0 L 429.0,904.0 L 457.0,1049.0"/>
    <path d="M 431.0,861.0 L 465.0,872.0 L 587.0,853.0 L 659.0,834.0 L 702.0,835.0 L 735.0,870.0 L 698.0,959.0 L 671.0,974.0"/>
    <path d="M 474.0,1033.0 L 491.0,1021.0 L 639.0,1003.0 L 678.0,1002.0 L 723.0,1011.0"/>
  </g>
</svg>
