<svg xmlns="http://www.w3.org/2000/svg" viewBox="0 0 1024 1024">
  <g style="fill:none;stroke:#000000;stroke-width:50;stroke-linecap:round;stroke-linejoin:round;" transform="scale(1, 1) translate(0, 0)">
    <path d="M 310.0,189.0 L 336.0,214.0 L 347.0,241.0 L 316.0,306.0 L 192.0,503.0 L 104.0,610.0 L 75.0,633.0"/>
    <path d="M 245.0,477.0 L 248.0,505.0 L 267.0,539.0 L 269.0,591.0 L 262.0,793.0 L 246.0,938.0 L 252.0,991.0"/>
    <path d="M 403.0,321.0 L 431.0,350.0 L 440.0,396.0 L 434.0,699.0 L 412.0,899.0 L 416.0,962.0"/>
    <path d="M 463.0,334.0 L 478.0,346.0 L 496.0,344.0 L 784.0,294.0 L 813.0,300.0 L 849.0,333.0 L 857.0,888.0 L 844.0,926.0 L 777.0,912.0"/>
    <path d="M 516.0,505.0 L 573.0,508.0 L 712.0,472.0 L 759.0,472.0"/>
    <path d="M 599.0,351.0 L 619.0,362.0 L 639.0,386.0 L 614.0,599.0 L 608.0,615.0 L 597.0,622.0"/>
    <path d="M 511.0,634.0 L 537.0,665.0 L 561.0,807.0"/>
    <path d="M 557.0,641.0 L 567.0,648.0 L 684.0,624.0 L 704.0,630.0 L 721.0,651.0 L 719.0,662.0 L 693.0,723.0 L 674.0,733.0"/>
    <path d="M 578.0,780.0 L 588.0,772.0 L 660.0,759.0 L 715.0,767.0"/>
    <path d="M 445.0,927.0 L 462.0,914.0 L 513.0,907.0 L 726.0,885.0 L 775.0,884.0 L 798.0,890.0"/>
  </g>
</svg>
