<svg xmlns="http://www.w3.org/2000/svg" viewBox="0 0 1024 1024">
  <g style="fill:none;stroke:#000000;stroke-width:50;stroke-linecap:round;stroke-linejoin:round;" transform="scale(1, 1) translate(0, 0)">
    <path d="M 293.0,214.0 L 311.0,228.0 L 332.0,262.0 L 291.0,349.0 L 240.0,439.0 L 159.0,556.0 L 90.0,638.0 L 55.0,669.0"/>
    <path d="M 225.0,512.0 L 227.0,546.0 L 238.0,567.0 L 240.0,632.0 L 231.0,793.0 L 214.0,938.0 L 220.0,991.0"/>
    <path d="M 386.0,311.0 L 423.0,344.0 L 429.0,365.0 L 434.0,480.0 L 425.0,647.0 L 414.0,719.0 L 387.0,819.0 L 348.0,912.0 L 295.0,997.0"/>
    <path d="M 462.0,327.0 L 482.0,340.0 L 765.0,282.0 L 791.0,287.0 L 824.0,316.0 L 825.0,796.0 L 823.0,905.0 L 815.0,956.0 L 796.0,994.0 L 743.0,977.0 L 678.0,942.0"/>
    <path d="M 508.0,481.0 L 531.0,487.0 L 568.0,486.0 L 682.0,459.0 L 733.0,459.0"/>
    <path d="M 579.0,348.0 L 607.0,358.0 L 616.0,368.0 L 611.0,552.0 L 596.0,575.0"/>
    <path d="M 494.0,616.0 L 536.0,614.0 L 672.0,585.0 L 730.0,590.0"/>
    <path d="M 494.0,694.0 L 511.0,711.0 L 520.0,736.0 L 534.0,874.0"/>
    <path d="M 541.0,701.0 L 550.0,708.0 L 656.0,681.0 L 690.0,686.0 L 706.0,705.0 L 705.0,716.0 L 685.0,773.0 L 664.0,788.0"/>
    <path d="M 553.0,834.0 L 570.0,824.0 L 662.0,814.0 L 700.0,815.0 L 718.0,824.0"/>
  </g>
</svg>
