<svg xmlns="http://www.w3.org/2000/svg" viewBox="0 0 1024 1024">
  <g style="fill:none;stroke:#000000;stroke-width:50;stroke-linecap:round;stroke-linejoin:round;" transform="scale(1, 1) translate(0, 0)">
    <path d="M 302.0,217.0 L 327.0,242.0 L 339.0,266.0 L 297.0,352.0 L 241.0,446.0 L 159.0,560.0 L 86.0,644.0 L 51.0,673.0"/>
    <path d="M 237.0,496.0 L 242.0,529.0 L 255.0,552.0 L 257.0,597.0 L 252.0,762.0 L 236.0,911.0 L 242.0,976.0"/>
    <path d="M 527.0,312.0 L 537.0,303.0 L 706.0,266.0 L 750.0,265.0 L 785.0,295.0 L 757.0,365.0 L 729.0,382.0"/>
    <path d="M 514.0,449.0 L 726.0,409.0 L 765.0,410.0 L 787.0,417.0"/>
    <path d="M 455.0,275.0 L 477.0,294.0 L 490.0,319.0 L 479.0,476.0 L 458.0,598.0 L 433.0,684.0 L 384.0,793.0 L 315.0,899.0 L 292.0,923.0"/>
    <path d="M 518.0,575.0 L 541.0,606.0 L 536.0,702.0 L 573.0,702.0 L 641.0,681.0 L 753.0,659.0 L 770.0,671.0"/>
    <path d="M 793.0,515.0 L 821.0,555.0 L 796.0,706.0"/>
    <path d="M 627.0,491.0 L 659.0,514.0 L 671.0,535.0 L 666.0,849.0 L 650.0,874.0"/>
    <path d="M 477.0,785.0 L 504.0,821.0 L 497.0,932.0 L 542.0,931.0 L 609.0,909.0 L 746.0,879.0 L 789.0,873.0 L 805.0,886.0"/>
    <path d="M 793.0,760.0 L 827.0,793.0 L 841.0,972.0"/>
  </g>
</svg>
