<svg xmlns="http://www.w3.org/2000/svg" viewBox="0 0 1024 1024">
  <g style="fill:none;stroke:#000000;stroke-width:50;stroke-linecap:round;stroke-linejoin:round;" transform="scale(1, 1) translate(0, 0)">
    <path d="M 189.0,361.0 L 246.0,366.0 L 458.0,316.0 L 497.0,320.0"/>
    <path d="M 331.0,189.0 L 365.0,231.0 L 317.0,451.0 L 295.0,480.0"/>
    <path d="M 160.0,505.0 L 187.0,526.0 L 196.0,542.0 L 236.0,733.0"/>
    <path d="M 212.0,507.0 L 234.0,514.0 L 411.0,475.0 L 440.0,477.0 L 455.0,486.0 L 472.0,507.0 L 421.0,673.0 L 422.0,702.0"/>
    <path d="M 243.0,615.0 L 267.0,603.0 L 336.0,588.0 L 377.0,592.0"/>
    <path d="M 259.0,711.0 L 266.0,699.0 L 374.0,680.0 L 392.0,667.0"/>
    <path d="M 73.0,856.0 L 122.0,865.0 L 461.0,781.0 L 508.0,784.0"/>
    <path d="M 301.0,714.0 L 323.0,732.0 L 327.0,755.0 L 320.0,904.0 L 310.0,979.0 L 318.0,1055.0"/>
    <path d="M 594.0,261.0 L 638.0,287.0 L 659.0,317.0 L 632.0,582.0 L 598.0,731.0 L 561.0,818.0 L 526.0,874.0 L 493.0,913.0 L 411.0,980.0 L 362.0,1003.0"/>
    <path d="M 652.0,664.0 L 654.0,693.0 L 686.0,747.0 L 751.0,841.0 L 823.0,923.0 L 861.0,950.0 L 995.0,986.0"/>
  </g>
</svg>
