<svg xmlns="http://www.w3.org/2000/svg" viewBox="0 0 1024 1024">
  <g style="fill:none;stroke:#000000;stroke-width:50;stroke-linecap:round;stroke-linejoin:round;" transform="scale(1, 1) translate(0, 0)">
    <path d="M 308.0,210.0 L 327.0,225.0 L 346.0,262.0 L 317.0,330.0 L 260.0,432.0 L 195.0,530.0 L 134.0,611.0 L 80.0,664.0"/>
    <path d="M 261.0,480.0 L 265.0,514.0 L 281.0,547.0 L 282.0,597.0 L 278.0,782.0 L 262.0,939.0 L 267.0,1007.0"/>
    <path d="M 501.0,334.0 L 575.0,339.0 L 747.0,299.0 L 789.0,301.0"/>
    <path d="M 606.0,171.0 L 647.0,207.0 L 638.0,417.0 L 623.0,439.0"/>
    <path d="M 358.0,492.0 L 396.0,499.0 L 423.0,497.0 L 569.0,469.0 L 899.0,427.0 L 978.0,444.0"/>
    <path d="M 517.0,530.0 L 550.0,569.0 L 559.0,598.0"/>
    <path d="M 698.0,477.0 L 724.0,508.0 L 670.0,612.0 L 649.0,627.0"/>
    <path d="M 476.0,667.0 L 524.0,673.0 L 730.0,636.0 L 783.0,642.0"/>
    <path d="M 385.0,812.0 L 438.0,819.0 L 523.0,803.0 L 803.0,768.0 L 862.0,773.0 L 893.0,784.0"/>
    <path d="M 593.0,684.0 L 632.0,711.0 L 619.0,1101.0"/>
  </g>
</svg>
