<svg xmlns="http://www.w3.org/2000/svg" viewBox="0 0 1024 1024">
  <g style="fill:none;stroke:#000000;stroke-width:50;stroke-linecap:round;stroke-linejoin:round;" transform="scale(1, 1) translate(0, 0)">
    <path d="M 296.0,229.0 L 330.0,266.0 L 334.0,282.0 L 304.0,348.0 L 257.0,431.0 L 154.0,583.0 L 91.0,658.0 L 63.0,681.0"/>
    <path d="M 233.0,517.0 L 238.0,546.0 L 257.0,575.0 L 252.0,792.0 L 232.0,983.0 L 238.0,1048.0"/>
    <path d="M 560.0,259.0 L 608.0,304.0 L 600.0,552.0 L 598.0,571.0 L 580.0,592.0"/>
    <path d="M 388.0,432.0 L 460.0,487.0 L 484.0,529.0"/>
    <path d="M 847.0,390.0 L 807.0,376.0 L 696.0,475.0"/>
    <path d="M 352.0,634.0 L 380.0,655.0 L 389.0,698.0 L 386.0,851.0 L 374.0,928.0 L 374.0,973.0"/>
    <path d="M 410.0,642.0 L 420.0,650.0 L 432.0,649.0 L 599.0,611.0 L 801.0,581.0 L 841.0,583.0 L 866.0,603.0 L 863.0,835.0 L 842.0,968.0 L 818.0,1005.0 L 719.0,967.0 L 701.0,953.0"/>
    <path d="M 485.0,740.0 L 514.0,776.0 L 536.0,911.0"/>
    <path d="M 521.0,736.0 L 542.0,746.0 L 616.0,735.0 L 651.0,721.0 L 681.0,723.0 L 702.0,747.0 L 680.0,814.0 L 656.0,824.0"/>
    <path d="M 554.0,881.0 L 565.0,871.0 L 653.0,856.0 L 690.0,856.0 L 711.0,863.0"/>
  </g>
</svg>
