<svg xmlns="http://www.w3.org/2000/svg" viewBox="0 0 1024 1024">
  <g style="fill:none;stroke:#000000;stroke-width:50;stroke-linecap:round;stroke-linejoin:round;" transform="scale(1, 1) translate(0, 0)">
    <path d="M 262.0,243.0 L 280.0,257.0 L 298.0,290.0 L 266.0,368.0 L 161.0,542.0 L 94.0,628.0 L 59.0,661.0"/>
    <path d="M 209.0,516.0 L 214.0,547.0 L 229.0,571.0 L 230.0,615.0 L 224.0,792.0 L 208.0,939.0 L 214.0,1004.0"/>
    <path d="M 391.0,326.0 L 448.0,374.0 L 467.0,414.0"/>
    <path d="M 705.0,264.0 L 723.0,297.0 L 629.0,386.0"/>
    <path d="M 397.0,495.0 L 437.0,502.0 L 483.0,498.0 L 659.0,458.0 L 712.0,456.0"/>
    <path d="M 301.0,620.0 L 354.0,626.0 L 565.0,586.0 L 767.0,560.0 L 845.0,575.0"/>
    <path d="M 525.0,199.0 L 548.0,211.0 L 566.0,233.0 L 566.0,263.0 L 550.0,444.0 L 521.0,557.0 L 476.0,653.0 L 404.0,745.0 L 339.0,803.0 L 269.0,846.0"/>
    <path d="M 625.0,604.0 L 644.0,612.0 L 735.0,707.0 L 796.0,756.0 L 852.0,773.0 L 961.0,790.0"/>
    <path d="M 482.0,727.0 L 508.0,733.0 L 619.0,708.0 L 644.0,726.0 L 633.0,799.0 L 621.0,834.0 L 594.0,866.0 L 588.0,870.0 L 560.0,856.0 L 531.0,831.0"/>
    <path d="M 460.0,725.0 L 468.0,766.0 L 459.0,876.0 L 465.0,953.0 L 491.0,993.0 L 538.0,1014.0 L 581.0,1024.0 L 657.0,1024.0 L 712.0,1013.0 L 751.0,996.0 L 778.0,971.0 L 788.0,848.0"/>
  </g>
</svg>
