<svg xmlns="http://www.w3.org/2000/svg" viewBox="0 0 1024 1024">
  <g style="fill:none;stroke:#000000;stroke-width:50;stroke-linecap:round;stroke-linejoin:round;" transform="scale(1, 1) translate(0, 0)">
    <path d="M 285.0,245.0 L 302.0,260.0 L 321.0,295.0 L 275.0,388.0 L 170.0,546.0 L 85.0,646.0 L 56.0,669.0"/>
    <path d="M 225.0,521.0 L 228.0,549.0 L 247.0,589.0 L 248.0,626.0 L 242.0,822.0 L 226.0,966.0 L 232.0,1019.0"/>
    <path d="M 541.0,207.0 L 629.0,261.0 L 654.0,299.0"/>
    <path d="M 386.0,416.0 L 433.0,422.0 L 628.0,384.0 L 815.0,360.0 L 885.0,377.0"/>
    <path d="M 438.0,510.0 L 466.0,532.0 L 474.0,549.0 L 512.0,722.0"/>
    <path d="M 495.0,512.0 L 510.0,522.0 L 698.0,480.0 L 725.0,486.0 L 756.0,517.0 L 720.0,609.0 L 692.0,626.0"/>
    <path d="M 530.0,691.0 L 540.0,678.0 L 680.0,654.0 L 729.0,654.0 L 750.0,661.0"/>
    <path d="M 585.0,690.0 L 612.0,714.0 L 620.0,734.0 L 622.0,893.0 L 615.0,966.0 L 596.0,997.0 L 549.0,978.0 L 496.0,947.0"/>
    <path d="M 459.0,807.0 L 432.0,866.0 L 378.0,936.0 L 365.0,963.0"/>
    <path d="M 738.0,789.0 L 845.0,871.0 L 867.0,897.0 L 885.0,945.0"/>
  </g>
</svg>
