<svg xmlns="http://www.w3.org/2000/svg" viewBox="0 0 1024 1024">
  <g style="fill:none;stroke:#000000;stroke-width:50;stroke-linecap:round;stroke-linejoin:round;" transform="scale(1, 1) translate(0, 0)">
    <path d="M 292.0,233.0 L 318.0,259.0 L 331.0,282.0 L 311.0,333.0 L 242.0,460.0 L 189.0,539.0 L 106.0,647.0 L 52.0,700.0"/>
    <path d="M 253.0,494.0 L 258.0,528.0 L 272.0,557.0 L 275.0,626.0 L 269.0,809.0 L 254.0,954.0 L 260.0,1007.0"/>
    <path d="M 433.0,296.0 L 455.0,314.0 L 474.0,341.0 L 504.0,502.0 L 524.0,556.0"/>
    <path d="M 492.0,305.0 L 504.0,308.0 L 691.0,266.0 L 743.0,269.0 L 768.0,289.0 L 777.0,303.0 L 734.0,472.0 L 716.0,515.0 L 720.0,541.0"/>
    <path d="M 520.0,421.0 L 545.0,408.0 L 628.0,392.0 L 663.0,397.0"/>
    <path d="M 540.0,531.0 L 570.0,516.0 L 683.0,497.0"/>
    <path d="M 391.0,647.0 L 427.0,680.0 L 437.0,705.0 L 459.0,902.0 L 476.0,962.0"/>
    <path d="M 459.0,665.0 L 470.0,676.0 L 485.0,679.0 L 791.0,626.0 L 810.0,631.0 L 832.0,649.0 L 845.0,666.0 L 843.0,680.0 L 807.0,892.0 L 784.0,938.0 L 782.0,997.0"/>
    <path d="M 480.0,815.0 L 495.0,805.0 L 642.0,773.0 L 687.0,768.0 L 710.0,774.0"/>
    <path d="M 494.0,913.0 L 516.0,919.0 L 704.0,889.0 L 754.0,894.0"/>
  </g>
</svg>
