<svg xmlns="http://www.w3.org/2000/svg" viewBox="0 0 1024 1024">
  <g style="fill:none;stroke:#000000;stroke-width:50;stroke-linecap:round;stroke-linejoin:round;" transform="scale(1, 1) translate(0, 0)">
    <path d="M 279.0,232.0 L 313.0,270.0 L 317.0,285.0 L 284.0,352.0 L 214.0,467.0 L 157.0,546.0 L 65.0,654.0 L 36.0,677.0"/>
    <path d="M 214.0,517.0 L 218.0,547.0 L 239.0,583.0 L 241.0,647.0 L 229.0,868.0 L 214.0,983.0 L 219.0,1051.0"/>
    <path d="M 486.0,238.0 L 510.0,259.0 L 522.0,281.0 L 503.0,337.0 L 462.0,423.0 L 411.0,508.0 L 367.0,573.0 L 322.0,622.0"/>
    <path d="M 438.0,507.0 L 446.0,545.0 L 460.0,570.0 L 465.0,607.0 L 463.0,833.0 L 449.0,979.0 L 455.0,1055.0"/>
    <path d="M 631.0,289.0 L 715.0,336.0 L 745.0,375.0"/>
    <path d="M 531.0,512.0 L 568.0,518.0 L 602.0,514.0 L 770.0,463.0 L 810.0,454.0 L 842.0,455.0"/>
    <path d="M 565.0,655.0 L 597.0,652.0 L 780.0,601.0 L 827.0,604.0"/>
    <path d="M 562.0,779.0 L 594.0,778.0 L 782.0,735.0 L 830.0,741.0"/>
    <path d="M 653.0,532.0 L 679.0,545.0 L 694.0,568.0 L 690.0,849.0 L 670.0,875.0"/>
    <path d="M 491.0,919.0 L 516.0,929.0 L 549.0,928.0 L 654.0,905.0 L 835.0,880.0 L 892.0,885.0 L 926.0,896.0"/>
  </g>
</svg>
