<svg xmlns="http://www.w3.org/2000/svg" viewBox="0 0 1024 1024">
  <g style="fill:none;stroke:#000000;stroke-width:50;stroke-linecap:round;stroke-linejoin:round;" transform="scale(1, 1) translate(0, 0)">
    <path d="M 324.0,215.0 L 350.0,242.0 L 360.0,269.0 L 326.0,337.0 L 202.0,523.0 L 106.0,635.0 L 67.0,665.0"/>
    <path d="M 250.0,501.0 L 255.0,532.0 L 271.0,560.0 L 273.0,624.0 L 268.0,778.0 L 252.0,923.0 L 258.0,988.0"/>
    <path d="M 448.0,363.0 L 521.0,364.0 L 631.0,341.0 L 708.0,317.0 L 755.0,317.0"/>
    <path d="M 448.0,477.0 L 531.0,477.0 L 623.0,458.0 L 696.0,435.0 L 739.0,435.0"/>
    <path d="M 556.0,203.0 L 589.0,228.0 L 601.0,249.0 L 590.0,526.0 L 574.0,548.0"/>
    <path d="M 346.0,600.0 L 401.0,605.0 L 548.0,574.0 L 818.0,534.0 L 854.0,534.0 L 905.0,549.0"/>
    <path d="M 456.0,652.0 L 484.0,680.0 L 489.0,753.0 L 480.0,853.0 L 451.0,1028.0"/>
    <path d="M 516.0,668.0 L 548.0,669.0 L 668.0,638.0 L 686.0,645.0 L 707.0,664.0 L 705.0,719.0 L 720.0,908.0 L 718.0,990.0 L 695.0,1031.0 L 597.0,996.0"/>
    <path d="M 511.0,782.0 L 524.0,771.0 L 578.0,759.0 L 620.0,755.0 L 640.0,760.0"/>
    <path d="M 503.0,880.0 L 515.0,869.0 L 588.0,857.0 L 626.0,855.0 L 647.0,861.0"/>
  </g>
</svg>
