<svg xmlns="http://www.w3.org/2000/svg" viewBox="0 0 1024 1024">
  <g style="fill:none;stroke:#000000;stroke-width:50;stroke-linecap:round;stroke-linejoin:round;" transform="scale(1, 1) translate(0, 0)">
    <path d="M 309.0,233.0 L 334.0,259.0 L 345.0,286.0 L 288.0,399.0 L 238.0,479.0 L 168.0,574.0 L 97.0,657.0 L 60.0,689.0"/>
    <path d="M 233.0,529.0 L 238.0,556.0 L 257.0,587.0 L 255.0,748.0 L 240.0,915.0 L 246.0,980.0"/>
    <path d="M 557.0,195.0 L 598.0,229.0 L 594.0,396.0 L 578.0,422.0"/>
    <path d="M 622.0,319.0 L 633.0,315.0 L 637.0,305.0 L 684.0,291.0 L 725.0,284.0 L 760.0,287.0"/>
    <path d="M 414.0,454.0 L 441.0,475.0 L 448.0,492.0 L 488.0,682.0"/>
    <path d="M 470.0,456.0 L 488.0,466.0 L 688.0,424.0 L 746.0,427.0 L 775.0,464.0 L 758.0,501.0 L 710.0,655.0"/>
    <path d="M 497.0,569.0 L 503.0,559.0 L 574.0,542.0 L 630.0,532.0 L 652.0,537.0"/>
    <path d="M 507.0,664.0 L 531.0,651.0 L 689.0,627.0"/>
    <path d="M 319.0,799.0 L 371.0,808.0 L 640.0,767.0 L 832.0,749.0 L 911.0,768.0"/>
    <path d="M 555.0,670.0 L 588.0,688.0 L 598.0,701.0 L 591.0,1085.0"/>
  </g>
</svg>
