<svg xmlns="http://www.w3.org/2000/svg" viewBox="0 0 1024 1024">
  <g style="fill:none;stroke:#000000;stroke-width:50;stroke-linecap:round;stroke-linejoin:round;" transform="scale(1, 1) translate(0, 0)">
    <path d="M 322.0,222.0 L 338.0,238.0 L 356.0,276.0 L 319.0,346.0 L 207.0,504.0 L 102.0,624.0 L 54.0,663.0"/>
    <path d="M 238.0,513.0 L 241.0,538.0 L 261.0,575.0 L 255.0,789.0 L 239.0,923.0 L 245.0,987.0"/>
    <path d="M 352.0,385.0 L 391.0,389.0 L 430.0,383.0 L 600.0,331.0 L 650.0,326.0"/>
    <path d="M 391.0,409.0 L 417.0,428.0 L 428.0,449.0 L 421.0,709.0 L 425.0,744.0 L 405.0,761.0"/>
    <path d="M 528.0,381.0 L 552.0,395.0 L 558.0,405.0 L 556.0,706.0 L 547.0,927.0 L 560.0,1005.0"/>
    <path d="M 452.0,544.0 L 467.0,522.0 L 513.0,513.0"/>
    <path d="M 450.0,655.0 L 463.0,636.0 L 509.0,629.0"/>
    <path d="M 321.0,810.0 L 342.0,819.0 L 375.0,822.0 L 507.0,750.0 L 587.0,714.0 L 631.0,685.0"/>
    <path d="M 714.0,383.0 L 741.0,386.0 L 807.0,354.0 L 837.0,348.0 L 854.0,356.0 L 869.0,373.0 L 803.0,527.0 L 800.0,552.0 L 871.0,613.0 L 895.0,645.0 L 914.0,701.0 L 910.0,735.0 L 885.0,775.0 L 771.0,741.0"/>
    <path d="M 651.0,380.0 L 676.0,397.0 L 691.0,420.0 L 686.0,1112.0"/>
  </g>
</svg>
