<svg xmlns="http://www.w3.org/2000/svg" viewBox="0 0 1024 1024">
  <g style="fill:none;stroke:#000000;stroke-width:50;stroke-linecap:round;stroke-linejoin:round;" transform="scale(1, 1) translate(0, 0)">
    <path d="M 290.0,225.0 L 316.0,250.0 L 327.0,277.0 L 288.0,358.0 L 172.0,539.0 L 84.0,646.0 L 55.0,669.0"/>
    <path d="M 218.0,518.0 L 222.0,544.0 L 244.0,586.0 L 243.0,749.0 L 228.0,911.0 L 234.0,976.0"/>
    <path d="M 403.0,289.0 L 420.0,303.0 L 439.0,340.0 L 476.0,538.0"/>
    <path d="M 441.0,287.0 L 472.0,296.0 L 571.0,272.0 L 704.0,250.0 L 742.0,255.0 L 772.0,291.0 L 710.0,498.0"/>
    <path d="M 512.0,401.0 L 644.0,372.0 L 673.0,377.0"/>
    <path d="M 572.0,293.0 L 592.0,312.0 L 592.0,447.0 L 589.0,462.0 L 578.0,471.0"/>
    <path d="M 495.0,520.0 L 527.0,506.0 L 650.0,480.0 L 674.0,478.0 L 683.0,487.0"/>
    <path d="M 332.0,628.0 L 383.0,633.0 L 573.0,590.0 L 806.0,556.0 L 878.0,570.0"/>
    <path d="M 407.0,649.0 L 441.0,667.0 L 446.0,680.0 L 450.0,802.0 L 440.0,894.0 L 444.0,931.0 L 464.0,929.0 L 496.0,914.0 L 603.0,838.0"/>
    <path d="M 780.0,614.0 L 791.0,629.0 L 795.0,648.0 L 772.0,676.0 L 695.0,742.0 L 694.0,749.0"/>
    <path d="M 515.0,624.0 L 546.0,632.0 L 696.0,794.0 L 799.0,878.0 L 848.0,894.0 L 965.0,904.0"/>
  </g>
</svg>
