<svg xmlns="http://www.w3.org/2000/svg" viewBox="0 0 1024 1024">
  <g style="fill:none;stroke:#000000;stroke-width:50;stroke-linecap:round;stroke-linejoin:round;" transform="scale(1, 1) translate(0, 0)">
    <path d="M 299.0,240.0 L 316.0,253.0 L 337.0,286.0 L 306.0,360.0 L 184.0,570.0 L 121.0,654.0 L 66.0,709.0"/>
    <path d="M 230.0,543.0 L 235.0,576.0 L 248.0,597.0 L 251.0,664.0 L 245.0,853.0 L 236.0,938.0 L 242.0,998.0"/>
    <path d="M 541.0,231.0 L 622.0,263.0 L 659.0,299.0"/>
    <path d="M 494.0,413.0 L 503.0,421.0 L 521.0,422.0 L 620.0,403.0 L 707.0,378.0 L 733.0,383.0 L 760.0,412.0 L 733.0,482.0 L 706.0,495.0"/>
    <path d="M 479.0,569.0 L 695.0,527.0 L 742.0,525.0 L 763.0,531.0"/>
    <path d="M 438.0,401.0 L 456.0,419.0 L 467.0,447.0 L 451.0,551.0 L 420.0,675.0 L 367.0,791.0 L 314.0,864.0 L 285.0,892.0"/>
    <path d="M 441.0,696.0 L 452.0,743.0 L 454.0,833.0 L 439.0,938.0 L 440.0,976.0"/>
    <path d="M 448.0,689.0 L 482.0,701.0 L 597.0,671.0 L 746.0,649.0 L 800.0,644.0 L 825.0,654.0 L 846.0,679.0 L 839.0,712.0 L 841.0,870.0 L 833.0,958.0 L 821.0,980.0 L 716.0,946.0"/>
    <path d="M 498.0,824.0 L 542.0,824.0 L 715.0,795.0 L 744.0,794.0 L 766.0,801.0"/>
    <path d="M 544.0,704.0 L 568.0,728.0 L 571.0,923.0"/>
    <path d="M 658.0,681.0 L 686.0,709.0 L 679.0,934.0"/>
  </g>
</svg>
