<svg xmlns="http://www.w3.org/2000/svg" viewBox="0 0 1024 1024">
  <g style="fill:none;stroke:#000000;stroke-width:50;stroke-linecap:round;stroke-linejoin:round;" transform="scale(1, 1) translate(0, 0)">
    <path d="M 266.0,228.0 L 284.0,241.0 L 305.0,276.0 L 264.0,371.0 L 167.0,538.0 L 106.0,621.0 L 58.0,669.0"/>
    <path d="M 223.0,503.0 L 227.0,533.0 L 243.0,563.0 L 245.0,629.0 L 240.0,773.0 L 222.0,942.0 L 228.0,995.0"/>
    <path d="M 416.0,381.0 L 427.0,370.0 L 502.0,349.0 L 529.0,348.0 L 544.0,360.0 L 553.0,371.0 L 534.0,453.0 L 528.0,466.0 L 512.0,478.0"/>
    <path d="M 419.0,533.0 L 427.0,525.0 L 505.0,505.0 L 559.0,507.0"/>
    <path d="M 351.0,346.0 L 383.0,383.0 L 390.0,437.0 L 381.0,817.0 L 366.0,925.0 L 372.0,984.0"/>
    <path d="M 407.0,673.0 L 421.0,662.0 L 472.0,650.0 L 524.0,646.0 L 536.0,651.0"/>
    <path d="M 403.0,798.0 L 418.0,786.0 L 485.0,772.0 L 514.0,769.0 L 547.0,775.0"/>
    <path d="M 627.0,348.0 L 655.0,349.0 L 760.0,318.0 L 777.0,325.0 L 801.0,350.0 L 778.0,432.0 L 753.0,448.0"/>
    <path d="M 624.0,495.0 L 651.0,498.0 L 746.0,476.0 L 804.0,480.0"/>
    <path d="M 596.0,621.0 L 646.0,617.0 L 750.0,586.0 L 770.0,594.0 L 784.0,612.0 L 758.0,731.0 L 730.0,796.0 L 688.0,859.0 L 656.0,887.0 L 615.0,909.0 L 508.0,941.0"/>
    <path d="M 591.0,681.0 L 622.0,697.0 L 757.0,860.0 L 842.0,942.0 L 904.0,958.0 L 976.0,967.0"/>
  </g>
</svg>
