<svg xmlns="http://www.w3.org/2000/svg" viewBox="0 0 1024 1024">
  <g style="fill:none;stroke:#000000;stroke-width:50;stroke-linecap:round;stroke-linejoin:round;" transform="scale(1, 1) translate(0, 0)">
    <path d="M 310.0,217.0 L 328.0,232.0 L 348.0,266.0 L 311.0,344.0 L 247.0,453.0 L 173.0,560.0 L 95.0,654.0 L 43.0,701.0"/>
    <path d="M 229.0,527.0 L 231.0,557.0 L 244.0,579.0 L 246.0,635.0 L 243.0,791.0 L 232.0,915.0 L 238.0,980.0"/>
    <path d="M 444.0,281.0 L 469.0,303.0 L 476.0,324.0 L 509.0,509.0"/>
    <path d="M 499.0,288.0 L 516.0,295.0 L 596.0,273.0 L 691.0,257.0 L 720.0,261.0 L 743.0,278.0 L 752.0,291.0 L 709.0,465.0 L 701.0,477.0 L 679.0,478.0"/>
    <path d="M 518.0,405.0 L 528.0,395.0 L 601.0,375.0 L 648.0,378.0"/>
    <path d="M 527.0,491.0 L 561.0,476.0 L 674.0,457.0"/>
    <path d="M 462.0,532.0 L 477.0,561.0 L 429.0,644.0 L 368.0,703.0 L 334.0,724.0"/>
    <path d="M 481.0,616.0 L 497.0,610.0 L 566.0,606.0 L 792.0,564.0 L 817.0,569.0 L 845.0,599.0 L 837.0,647.0 L 827.0,823.0 L 807.0,927.0 L 786.0,983.0 L 765.0,1013.0 L 737.0,1034.0 L 666.0,988.0 L 663.0,978.0 L 648.0,973.0"/>
    <path d="M 587.0,643.0 L 605.0,670.0 L 576.0,731.0 L 543.0,777.0 L 481.0,831.0"/>
    <path d="M 593.0,743.0 L 608.0,743.0 L 662.0,771.0 L 690.0,789.0 L 712.0,816.0"/>
    <path d="M 398.0,725.0 L 430.0,763.0 L 413.0,909.0 L 434.0,911.0 L 537.0,888.0 L 631.0,881.0 L 681.0,881.0 L 730.0,898.0"/>
  </g>
</svg>
