<svg xmlns="http://www.w3.org/2000/svg" viewBox="0 0 1024 1024">
  <g style="fill:none;stroke:#000000;stroke-width:50;stroke-linecap:round;stroke-linejoin:round;" transform="scale(1, 1) translate(0, 0)">
    <path d="M 280.0,249.0 L 297.0,263.0 L 316.0,295.0 L 271.0,385.0 L 162.0,548.0 L 109.0,613.0 L 58.0,658.0"/>
    <path d="M 224.0,511.0 L 225.0,542.0 L 235.0,559.0 L 239.0,593.0 L 233.0,797.0 L 220.0,925.0 L 225.0,986.0"/>
    <path d="M 311.0,521.0 L 367.0,522.0 L 513.0,479.0 L 556.0,476.0"/>
    <path d="M 417.0,257.0 L 457.0,297.0 L 457.0,305.0 L 413.0,646.0 L 396.0,664.0"/>
    <path d="M 301.0,684.0 L 329.0,719.0 L 353.0,887.0"/>
    <path d="M 339.0,682.0 L 360.0,691.0 L 471.0,669.0 L 500.0,686.0 L 508.0,695.0 L 485.0,780.0 L 462.0,796.0"/>
    <path d="M 371.0,848.0 L 390.0,835.0 L 461.0,822.0 L 497.0,821.0 L 519.0,828.0"/>
    <path d="M 653.0,241.0 L 678.0,258.0 L 693.0,279.0 L 678.0,348.0 L 612.0,519.0 L 548.0,626.0"/>
    <path d="M 641.0,511.0 L 658.0,503.0 L 758.0,485.0 L 862.0,452.0 L 899.0,453.0"/>
    <path d="M 716.0,521.0 L 746.0,540.0 L 754.0,553.0 L 733.0,679.0 L 708.0,753.0 L 675.0,813.0 L 635.0,863.0 L 570.0,918.0 L 499.0,955.0"/>
    <path d="M 573.0,659.0 L 592.0,663.0 L 618.0,685.0 L 726.0,837.0 L 831.0,946.0 L 926.0,972.0 L 973.0,978.0"/>
  </g>
</svg>
