<svg xmlns="http://www.w3.org/2000/svg" viewBox="0 0 1024 1024">
  <g style="fill:none;stroke:#000000;stroke-width:50;stroke-linecap:round;stroke-linejoin:round;" transform="scale(1, 1) translate(0, 0)">
    <path d="M 283.0,243.0 L 300.0,256.0 L 321.0,290.0 L 283.0,373.0 L 168.0,560.0 L 97.0,650.0 L 59.0,685.0"/>
    <path d="M 218.0,533.0 L 233.0,591.0 L 234.0,638.0 L 228.0,850.0 L 216.0,955.0 L 222.0,1020.0"/>
    <path d="M 515.0,421.0 L 555.0,422.0 L 766.0,367.0 L 787.0,374.0 L 812.0,402.0 L 776.0,538.0 L 751.0,561.0"/>
    <path d="M 489.0,536.0 L 511.0,539.0 L 844.0,471.0 L 893.0,468.0 L 935.0,477.0"/>
    <path d="M 510.0,632.0 L 543.0,633.0 L 742.0,585.0 L 788.0,581.0 L 808.0,586.0"/>
    <path d="M 539.0,715.0 L 594.0,716.0 L 682.0,696.0 L 720.0,681.0 L 756.0,674.0 L 773.0,678.0"/>
    <path d="M 516.0,817.0 L 546.0,818.0 L 773.0,775.0 L 837.0,784.0"/>
    <path d="M 604.0,213.0 L 627.0,219.0 L 659.0,249.0 L 650.0,492.0 L 647.0,923.0"/>
    <path d="M 313.0,493.0 L 397.0,458.0 L 421.0,474.0 L 411.0,523.0 L 359.0,679.0 L 369.0,686.0 L 414.0,691.0 L 435.0,706.0 L 424.0,768.0 L 387.0,869.0 L 330.0,958.0 L 288.0,1001.0"/>
    <path d="M 284.0,814.0 L 328.0,816.0 L 384.0,836.0 L 591.0,951.0 L 728.0,1006.0 L 803.0,1010.0 L 961.0,987.0"/>
  </g>
</svg>
