<svg xmlns="http://www.w3.org/2000/svg" viewBox="0 0 1024 1024">
  <g style="fill:none;stroke:#000000;stroke-width:50;stroke-linecap:round;stroke-linejoin:round;" transform="scale(1, 1) translate(0, 0)">
    <path d="M 275.0,217.0 L 292.0,230.0 L 314.0,262.0 L 270.0,366.0 L 164.0,548.0 L 97.0,637.0 L 50.0,685.0"/>
    <path d="M 242.0,474.0 L 254.0,531.0 L 255.0,588.0 L 250.0,760.0 L 233.0,910.0 L 238.0,996.0"/>
    <path d="M 369.0,359.0 L 390.0,378.0 L 400.0,399.0 L 406.0,473.0 L 399.0,758.0"/>
    <path d="M 423.0,374.0 L 438.0,380.0 L 546.0,351.0 L 585.0,375.0 L 587.0,674.0 L 579.0,723.0 L 584.0,770.0"/>
    <path d="M 429.0,503.0 L 441.0,491.0 L 474.0,483.0 L 516.0,485.0"/>
    <path d="M 434.0,610.0 L 443.0,598.0 L 462.0,593.0 L 520.0,593.0"/>
    <path d="M 424.0,733.0 L 446.0,718.0 L 526.0,709.0 L 545.0,699.0"/>
    <path d="M 465.0,814.0 L 438.0,821.0 L 394.0,887.0 L 339.0,942.0 L 308.0,963.0"/>
    <path d="M 530.0,814.0 L 598.0,881.0 L 611.0,917.0"/>
    <path d="M 683.0,441.0 L 706.0,469.0 L 709.0,685.0"/>
    <path d="M 790.0,240.0 L 808.0,248.0 L 843.0,284.0 L 839.0,537.0 L 853.0,907.0 L 833.0,958.0 L 795.0,947.0 L 721.0,912.0"/>
  </g>
</svg>
