<svg xmlns="http://www.w3.org/2000/svg" viewBox="0 0 1024 1024">
  <g style="fill:none;stroke:#000000;stroke-width:50;stroke-linecap:round;stroke-linejoin:round;" transform="scale(1, 1) translate(0, 0)">
    <path d="M 286.0,265.0 L 302.0,280.0 L 322.0,315.0 L 275.0,408.0 L 219.0,500.0 L 156.0,587.0 L 96.0,658.0 L 55.0,693.0"/>
    <path d="M 232.0,525.0 L 237.0,563.0 L 245.0,575.0 L 246.0,663.0 L 238.0,833.0 L 224.0,959.0 L 230.0,1024.0"/>
    <path d="M 719.0,253.0 L 657.0,243.0 L 567.0,298.0 L 453.0,342.0"/>
    <path d="M 404.0,390.0 L 444.0,424.0 L 457.0,448.0"/>
    <path d="M 528.0,363.0 L 559.0,395.0 L 574.0,421.0"/>
    <path d="M 754.0,327.0 L 764.0,360.0 L 650.0,436.0"/>
    <path d="M 420.0,495.0 L 439.0,514.0 L 449.0,536.0 L 434.0,639.0 L 410.0,727.0 L 356.0,844.0 L 308.0,907.0 L 288.0,924.0"/>
    <path d="M 479.0,541.0 L 494.0,531.0 L 626.0,495.0 L 655.0,495.0 L 674.0,513.0 L 679.0,527.0 L 656.0,575.0 L 632.0,596.0 L 617.0,599.0"/>
    <path d="M 459.0,659.0 L 483.0,647.0 L 523.0,643.0 L 576.0,628.0 L 683.0,610.0 L 710.0,613.0 L 730.0,643.0 L 699.0,698.0 L 662.0,723.0"/>
    <path d="M 421.0,772.0 L 433.0,767.0 L 478.0,772.0 L 520.0,762.0 L 562.0,761.0 L 599.0,750.0 L 810.0,718.0 L 862.0,716.0 L 873.0,723.0 L 887.0,737.0 L 876.0,854.0 L 859.0,955.0 L 842.0,1004.0 L 825.0,1030.0 L 803.0,1049.0 L 761.0,1029.0 L 720.0,996.0"/>
    <path d="M 384.0,871.0 L 420.0,945.0 L 419.0,985.0"/>
    <path d="M 485.0,848.0 L 517.0,901.0 L 525.0,927.0"/>
    <path d="M 583.0,829.0 L 617.0,879.0 L 620.0,893.0"/>
    <path d="M 675.0,802.0 L 738.0,852.0 L 759.0,894.0"/>
  </g>
</svg>
