<svg xmlns="http://www.w3.org/2000/svg" viewBox="0 0 1024 1024">
  <g style="fill:none;stroke:#000000;stroke-width:50;stroke-linecap:round;stroke-linejoin:round;" transform="scale(1, 1) translate(0, 0)">
    <path d="M 299.0,245.0 L 324.0,269.0 L 336.0,292.0 L 279.0,408.0 L 158.0,589.0 L 96.0,662.0 L 59.0,694.0"/>
    <path d="M 217.0,548.0 L 221.0,574.0 L 239.0,605.0 L 242.0,661.0 L 238.0,823.0 L 228.0,930.0 L 234.0,990.0"/>
    <path d="M 472.0,327.0 L 535.0,330.0 L 707.0,286.0 L 740.0,289.0"/>
    <path d="M 570.0,190.0 L 595.0,207.0 L 606.0,224.0 L 594.0,432.0"/>
    <path d="M 330.0,516.0 L 367.0,522.0 L 395.0,519.0 L 569.0,483.0 L 797.0,449.0 L 847.0,447.0 L 910.0,460.0"/>
    <path d="M 446.0,407.0 L 465.0,415.0 L 483.0,432.0 L 511.0,572.0"/>
    <path d="M 708.0,344.0 L 732.0,377.0 L 699.0,486.0 L 669.0,555.0"/>
    <path d="M 441.0,598.0 L 460.0,615.0 L 471.0,643.0 L 460.0,881.0"/>
    <path d="M 499.0,632.0 L 507.0,624.0 L 589.0,607.0 L 653.0,585.0 L 683.0,585.0 L 701.0,597.0 L 717.0,619.0 L 713.0,726.0 L 718.0,808.0 L 711.0,880.0"/>
    <path d="M 543.0,681.0 L 563.0,689.0 L 592.0,718.0 L 585.0,844.0 L 559.0,932.0 L 527.0,978.0 L 487.0,1008.0 L 418.0,1039.0 L 384.0,1046.0"/>
    <path d="M 654.0,920.0 L 749.0,989.0 L 774.0,1043.0"/>
  </g>
</svg>
