<svg xmlns="http://www.w3.org/2000/svg" viewBox="0 0 1024 1024">
  <g style="fill:none;stroke:#000000;stroke-width:50;stroke-linecap:round;stroke-linejoin:round;" transform="scale(1, 1) translate(0, 0)">
    <path d="M 314.0,212.0 L 339.0,237.0 L 349.0,264.0 L 317.0,329.0 L 253.0,432.0 L 186.0,524.0 L 120.0,602.0 L 67.0,649.0"/>
    <path d="M 250.0,481.0 L 255.0,511.0 L 273.0,539.0 L 275.0,574.0 L 264.0,796.0 L 249.0,902.0 L 254.0,988.0"/>
    <path d="M 573.0,185.0 L 627.0,218.0 L 652.0,250.0"/>
    <path d="M 457.0,363.0 L 480.0,370.0 L 518.0,370.0 L 775.0,318.0 L 808.0,320.0"/>
    <path d="M 495.0,428.0 L 538.0,467.0 L 550.0,490.0"/>
    <path d="M 684.0,365.0 L 709.0,392.0 L 666.0,483.0 L 636.0,515.0"/>
    <path d="M 386.0,533.0 L 397.0,568.0 L 395.0,580.0 L 367.0,644.0 L 359.0,686.0"/>
    <path d="M 423.0,566.0 L 437.0,574.0 L 463.0,574.0 L 639.0,531.0 L 767.0,507.0 L 806.0,505.0 L 831.0,516.0 L 849.0,539.0 L 786.0,615.0"/>
    <path d="M 556.0,593.0 L 616.0,631.0 L 634.0,659.0"/>
    <path d="M 424.0,749.0 L 469.0,753.0 L 531.0,735.0 L 748.0,695.0 L 785.0,694.0 L 829.0,704.0"/>
    <path d="M 616.0,809.0 L 642.0,802.0 L 687.0,806.0 L 739.0,823.0 L 755.0,844.0 L 739.0,892.0 L 694.0,993.0 L 653.0,1036.0 L 642.0,1040.0 L 554.0,975.0"/>
    <path d="M 582.0,750.0 L 602.0,772.0 L 575.0,818.0 L 526.0,880.0 L 435.0,966.0 L 358.0,1019.0 L 325.0,1029.0 L 319.0,1037.0"/>
  </g>
</svg>
