<svg xmlns="http://www.w3.org/2000/svg" viewBox="0 0 1024 1024">
  <g style="fill:none;stroke:#000000;stroke-width:50;stroke-linecap:round;stroke-linejoin:round;" transform="scale(1, 1) translate(0, 0)">
    <path d="M 315.0,223.0 L 340.0,246.0 L 353.0,270.0 L 313.0,358.0 L 194.0,552.0 L 112.0,656.0 L 75.0,689.0"/>
    <path d="M 254.0,505.0 L 275.0,564.0 L 279.0,639.0 L 273.0,821.0 L 260.0,947.0 L 266.0,1012.0"/>
    <path d="M 449.0,391.0 L 496.0,398.0 L 554.0,392.0 L 747.0,345.0 L 816.0,340.0"/>
    <path d="M 496.0,274.0 L 536.0,318.0 L 547.0,495.0 L 535.0,514.0"/>
    <path d="M 676.0,204.0 L 715.0,242.0 L 682.0,476.0 L 664.0,495.0"/>
    <path d="M 361.0,560.0 L 413.0,565.0 L 604.0,526.0 L 858.0,489.0 L 903.0,493.0 L 937.0,504.0"/>
    <path d="M 563.0,575.0 L 526.0,587.0 L 497.0,633.0 L 452.0,682.0 L 407.0,721.0 L 348.0,760.0"/>
    <path d="M 503.0,667.0 L 501.0,818.0 L 475.0,1013.0"/>
    <path d="M 522.0,667.0 L 538.0,672.0 L 564.0,669.0 L 686.0,642.0 L 759.0,633.0 L 783.0,636.0 L 814.0,662.0 L 810.0,717.0 L 819.0,949.0 L 814.0,983.0 L 788.0,1015.0 L 755.0,1003.0 L 705.0,973.0"/>
    <path d="M 559.0,777.0 L 579.0,777.0 L 699.0,748.0 L 736.0,752.0"/>
    <path d="M 552.0,873.0 L 686.0,849.0 L 718.0,847.0 L 739.0,853.0"/>
    <path d="M 614.0,676.0 L 643.0,695.0 L 635.0,1004.0"/>
  </g>
</svg>
