<svg xmlns="http://www.w3.org/2000/svg" viewBox="0 0 1024 1024">
  <g style="fill:none;stroke:#000000;stroke-width:50;stroke-linecap:round;stroke-linejoin:round;" transform="scale(1, 1) translate(0, 0)">
    <path d="M 238.0,226.0 L 257.0,239.0 L 278.0,273.0 L 247.0,353.0 L 136.0,557.0 L 46.0,669.0"/>
    <path d="M 181.0,527.0 L 198.0,584.0 L 197.0,728.0 L 180.0,934.0 L 186.0,994.0"/>
    <path d="M 400.0,267.0 L 467.0,327.0 L 475.0,342.0"/>
    <path d="M 299.0,471.0 L 323.0,476.0 L 361.0,473.0 L 529.0,424.0 L 576.0,421.0"/>
    <path d="M 352.0,548.0 L 370.0,574.0 L 288.0,687.0"/>
    <path d="M 478.0,509.0 L 537.0,551.0 L 554.0,589.0"/>
    <path d="M 467.0,617.0 L 486.0,646.0 L 457.0,735.0 L 438.0,774.0 L 396.0,836.0 L 350.0,885.0 L 263.0,945.0"/>
    <path d="M 359.0,710.0 L 491.0,813.0 L 513.0,855.0"/>
    <path d="M 670.0,250.0 L 705.0,278.0 L 706.0,306.0 L 669.0,430.0 L 621.0,536.0 L 604.0,558.0"/>
    <path d="M 650.0,525.0 L 763.0,507.0 L 838.0,484.0 L 882.0,485.0"/>
    <path d="M 713.0,542.0 L 749.0,566.0 L 752.0,575.0 L 729.0,706.0 L 699.0,785.0 L 661.0,845.0 L 617.0,891.0 L 562.0,932.0 L 508.0,958.0"/>
    <path d="M 575.0,646.0 L 598.0,654.0 L 618.0,674.0 L 734.0,839.0 L 826.0,935.0 L 911.0,960.0 L 973.0,970.0"/>
  </g>
</svg>
