<svg xmlns="http://www.w3.org/2000/svg" viewBox="0 0 1024 1024">
  <g style="fill:none;stroke:#000000;stroke-width:50;stroke-linecap:round;stroke-linejoin:round;" transform="scale(1, 1) translate(0, 0)">
    <path d="M 297.0,219.0 L 324.0,242.0 L 337.0,266.0 L 289.0,371.0 L 234.0,468.0 L 168.0,565.0 L 96.0,655.0 L 59.0,689.0"/>
    <path d="M 214.0,542.0 L 218.0,570.0 L 232.0,598.0 L 234.0,643.0 L 231.0,785.0 L 215.0,929.0 L 221.0,990.0"/>
    <path d="M 284.0,510.0 L 341.0,507.0 L 423.0,478.0 L 461.0,485.0 L 454.0,537.0 L 432.0,617.0 L 382.0,722.0 L 328.0,773.0 L 306.0,787.0 L 263.0,801.0 L 258.0,810.0"/>
    <path d="M 294.0,598.0 L 457.0,744.0 L 480.0,778.0 L 488.0,804.0"/>
    <path d="M 627.0,248.0 L 641.0,255.0 L 665.0,288.0 L 648.0,342.0 L 606.0,439.0 L 558.0,527.0 L 532.0,570.0 L 485.0,626.0"/>
    <path d="M 570.0,555.0 L 598.0,616.0 L 594.0,816.0 L 580.0,957.0 L 585.0,1018.0"/>
    <path d="M 707.0,330.0 L 776.0,372.0 L 803.0,412.0"/>
    <path d="M 636.0,523.0 L 692.0,525.0 L 762.0,507.0 L 820.0,484.0 L 877.0,481.0"/>
    <path d="M 668.0,672.0 L 809.0,637.0 L 841.0,642.0"/>
    <path d="M 663.0,769.0 L 809.0,737.0 L 848.0,741.0"/>
    <path d="M 724.0,541.0 L 749.0,558.0 L 753.0,576.0 L 750.0,844.0 L 735.0,868.0"/>
    <path d="M 624.0,905.0 L 634.0,913.0 L 649.0,912.0 L 846.0,877.0 L 914.0,889.0"/>
  </g>
</svg>
