<svg xmlns="http://www.w3.org/2000/svg" viewBox="0 0 1024 1024">
  <g style="fill:none;stroke:#000000;stroke-width:50;stroke-linecap:round;stroke-linejoin:round;" transform="scale(1, 1) translate(0, 0)">
    <path d="M 267.0,248.0 L 285.0,261.0 L 305.0,293.0 L 279.0,356.0 L 243.0,428.0 L 191.0,512.0 L 111.0,622.0 L 71.0,661.0"/>
    <path d="M 189.0,556.0 L 193.0,581.0 L 215.0,617.0 L 213.0,776.0 L 200.0,922.0 L 206.0,982.0"/>
    <path d="M 372.0,255.0 L 447.0,318.0 L 459.0,348.0"/>
    <path d="M 251.0,559.0 L 297.0,558.0 L 376.0,515.0 L 405.0,512.0 L 413.0,519.0 L 396.0,750.0 L 400.0,792.0 L 406.0,801.0 L 436.0,787.0 L 498.0,725.0 L 509.0,706.0"/>
    <path d="M 524.0,437.0 L 579.0,438.0 L 706.0,401.0 L 748.0,399.0"/>
    <path d="M 619.0,243.0 L 660.0,279.0 L 647.0,529.0 L 642.0,544.0 L 630.0,555.0"/>
    <path d="M 480.0,601.0 L 534.0,601.0 L 822.0,540.0 L 879.0,541.0 L 910.0,549.0"/>
    <path d="M 872.0,357.0 L 822.0,371.0 L 757.0,505.0 L 557.0,812.0 L 463.0,928.0 L 369.0,1012.0"/>
    <path d="M 569.0,702.0 L 600.0,742.0 L 594.0,908.0 L 585.0,977.0 L 588.0,1013.0"/>
    <path d="M 641.0,728.0 L 665.0,710.0 L 755.0,683.0 L 781.0,697.0 L 794.0,712.0 L 791.0,743.0 L 804.0,964.0 L 793.0,992.0 L 743.0,982.0"/>
    <path d="M 627.0,857.0 L 635.0,845.0 L 648.0,841.0 L 700.0,832.0 L 732.0,837.0"/>
    <path d="M 612.0,988.0 L 628.0,974.0 L 650.0,969.0 L 708.0,961.0 L 752.0,965.0"/>
  </g>
</svg>
