<svg xmlns="http://www.w3.org/2000/svg" viewBox="0 0 1024 1024">
  <g style="fill:none;stroke:#000000;stroke-width:50;stroke-linecap:round;stroke-linejoin:round;" transform="scale(1, 1) translate(0, 0)">
    <path d="M 310.0,240.0 L 335.0,265.0 L 346.0,289.0 L 294.0,391.0 L 172.0,568.0 L 87.0,665.0 L 51.0,693.0"/>
    <path d="M 218.0,545.0 L 223.0,575.0 L 239.0,604.0 L 242.0,650.0 L 239.0,805.0 L 228.0,931.0 L 234.0,996.0"/>
    <path d="M 552.0,201.0 L 582.0,225.0 L 592.0,242.0 L 584.0,413.0 L 578.0,432.0 L 567.0,442.0"/>
    <path d="M 419.0,330.0 L 476.0,375.0 L 494.0,413.0"/>
    <path d="M 781.0,308.0 L 746.0,296.0 L 657.0,378.0"/>
    <path d="M 371.0,447.0 L 383.0,482.0 L 349.0,584.0 L 346.0,614.0"/>
    <path d="M 412.0,498.0 L 425.0,490.0 L 610.0,452.0 L 757.0,429.0 L 797.0,443.0 L 811.0,464.0 L 757.0,540.0"/>
    <path d="M 433.0,559.0 L 462.0,590.0 L 492.0,723.0"/>
    <path d="M 484.0,564.0 L 493.0,571.0 L 510.0,569.0 L 629.0,538.0 L 656.0,541.0 L 675.0,563.0 L 656.0,623.0 L 633.0,634.0"/>
    <path d="M 508.0,696.0 L 518.0,687.0 L 620.0,666.0 L 666.0,665.0 L 687.0,671.0"/>
    <path d="M 468.0,744.0 L 488.0,776.0 L 474.0,821.0 L 445.0,878.0 L 378.0,957.0 L 304.0,1009.0"/>
    <path d="M 576.0,694.0 L 605.0,715.0 L 616.0,732.0 L 605.0,825.0 L 605.0,915.0 L 613.0,958.0 L 624.0,979.0 L 651.0,999.0 L 712.0,1011.0 L 806.0,1011.0 L 869.0,1001.0 L 921.0,979.0 L 925.0,916.0 L 920.0,825.0"/>
  </g>
</svg>
