<svg xmlns="http://www.w3.org/2000/svg" viewBox="0 0 1024 1024">
  <g style="fill:none;stroke:#000000;stroke-width:50;stroke-linecap:round;stroke-linejoin:round;" transform="scale(1, 1) translate(0, 0)">
    <path d="M 302.0,236.0 L 327.0,261.0 L 337.0,288.0 L 305.0,354.0 L 242.0,457.0 L 176.0,549.0 L 101.0,638.0 L 55.0,677.0"/>
    <path d="M 241.0,507.0 L 246.0,537.0 L 267.0,579.0 L 268.0,620.0 L 260.0,813.0 L 246.0,927.0 L 251.0,995.0"/>
    <path d="M 608.0,184.0 L 642.0,218.0 L 635.0,343.0 L 620.0,353.0"/>
    <path d="M 457.0,272.0 L 482.0,315.0 L 469.0,412.0 L 513.0,410.0 L 675.0,369.0 L 755.0,358.0 L 773.0,343.0"/>
    <path d="M 803.0,231.0 L 829.0,274.0 L 788.0,415.0"/>
    <path d="M 484.0,485.0 L 501.0,505.0 L 507.0,524.0 L 487.0,559.0 L 409.0,656.0 L 361.0,704.0 L 338.0,719.0"/>
    <path d="M 464.0,632.0 L 477.0,723.0 L 470.0,867.0 L 452.0,1017.0 L 457.0,1078.0"/>
    <path d="M 628.0,433.0 L 688.0,471.0 L 706.0,499.0"/>
    <path d="M 557.0,579.0 L 618.0,583.0 L 701.0,567.0 L 798.0,539.0 L 848.0,536.0"/>
    <path d="M 566.0,704.0 L 609.0,701.0 L 772.0,665.0 L 818.0,670.0"/>
    <path d="M 562.0,812.0 L 592.0,812.0 L 752.0,778.0 L 794.0,775.0 L 818.0,782.0"/>
    <path d="M 659.0,600.0 L 686.0,617.0 L 689.0,644.0 L 686.0,873.0 L 671.0,893.0"/>
    <path d="M 492.0,932.0 L 541.0,940.0 L 653.0,921.0 L 850.0,903.0 L 883.0,906.0 L 928.0,921.0"/>
  </g>
</svg>
