<svg xmlns="http://www.w3.org/2000/svg" viewBox="0 0 1024 1024">
  <g style="fill:none;stroke:#000000;stroke-width:50;stroke-linecap:round;stroke-linejoin:round;" transform="scale(1, 1) translate(0, 0)">
    <path d="M 308.0,241.0 L 334.0,267.0 L 347.0,291.0 L 315.0,363.0 L 187.0,569.0 L 124.0,650.0 L 67.0,705.0"/>
    <path d="M 251.0,522.0 L 257.0,553.0 L 273.0,579.0 L 274.0,607.0 L 268.0,790.0 L 252.0,939.0 L 258.0,1004.0"/>
    <path d="M 502.0,177.0 L 527.0,212.0 L 517.0,239.0 L 471.0,318.0 L 414.0,374.0"/>
    <path d="M 532.0,275.0 L 611.0,265.0 L 749.0,227.0 L 782.0,229.0"/>
    <path d="M 494.0,365.0 L 513.0,390.0 L 520.0,415.0 L 534.0,586.0"/>
    <path d="M 540.0,390.0 L 571.0,369.0 L 663.0,345.0 L 695.0,345.0 L 723.0,366.0 L 727.0,374.0 L 703.0,481.0 L 684.0,538.0 L 687.0,563.0"/>
    <path d="M 553.0,477.0 L 560.0,464.0 L 579.0,457.0 L 637.0,452.0"/>
    <path d="M 552.0,565.0 L 580.0,549.0 L 634.0,541.0 L 650.0,533.0"/>
    <path d="M 358.0,672.0 L 412.0,676.0 L 584.0,636.0 L 845.0,595.0 L 894.0,598.0 L 929.0,609.0"/>
    <path d="M 517.0,680.0 L 515.0,693.0 L 495.0,704.0 L 461.0,756.0 L 435.0,783.0 L 400.0,812.0 L 362.0,833.0"/>
    <path d="M 490.0,760.0 L 515.0,751.0 L 790.0,705.0 L 817.0,706.0 L 840.0,729.0 L 796.0,907.0 L 769.0,977.0 L 736.0,1029.0 L 699.0,1053.0 L 624.0,1006.0"/>
    <path d="M 532.0,775.0 L 545.0,798.0 L 509.0,848.0 L 446.0,910.0 L 388.0,944.0"/>
    <path d="M 653.0,751.0 L 669.0,767.0 L 673.0,791.0 L 620.0,878.0 L 550.0,959.0 L 516.0,989.0 L 448.0,1042.0 L 404.0,1066.0"/>
  </g>
</svg>
