<svg xmlns="http://www.w3.org/2000/svg" viewBox="0 0 1024 1024">
  <g style="fill:none;stroke:#000000;stroke-width:50;stroke-linecap:round;stroke-linejoin:round;" transform="scale(1, 1) translate(0, 0)">
    <path d="M 292.0,221.0 L 310.0,236.0 L 330.0,273.0 L 298.0,341.0 L 244.0,436.0 L 174.0,538.0 L 91.0,637.0 L 55.0,669.0"/>
    <path d="M 234.0,499.0 L 239.0,532.0 L 256.0,563.0 L 257.0,606.0 L 252.0,792.0 L 234.0,967.0 L 239.0,1035.0"/>
    <path d="M 462.0,313.0 L 503.0,319.0 L 551.0,316.0 L 740.0,276.0 L 792.0,275.0"/>
    <path d="M 479.0,413.0 L 530.0,417.0 L 701.0,379.0 L 746.0,375.0 L 773.0,380.0"/>
    <path d="M 580.0,175.0 L 613.0,203.0 L 623.0,227.0 L 617.0,458.0 L 602.0,476.0"/>
    <path d="M 342.0,536.0 L 396.0,540.0 L 563.0,504.0 L 867.0,458.0 L 910.0,462.0 L 946.0,473.0"/>
    <path d="M 466.0,578.0 L 488.0,598.0 L 497.0,636.0 L 500.0,738.0 L 489.0,861.0 L 491.0,901.0"/>
    <path d="M 516.0,588.0 L 527.0,596.0 L 719.0,551.0 L 735.0,554.0 L 761.0,576.0 L 771.0,591.0 L 764.0,684.0 L 769.0,818.0 L 763.0,895.0"/>
    <path d="M 519.0,698.0 L 533.0,685.0 L 573.0,675.0 L 656.0,660.0 L 684.0,665.0"/>
    <path d="M 523.0,778.0 L 535.0,767.0 L 638.0,747.0 L 670.0,743.0 L 691.0,749.0"/>
    <path d="M 517.0,877.0 L 531.0,863.0 L 688.0,841.0 L 713.0,842.0 L 720.0,853.0"/>
    <path d="M 591.0,948.0 L 558.0,951.0 L 506.0,1004.0 L 460.0,1039.0 L 372.0,1084.0"/>
    <path d="M 697.0,924.0 L 812.0,1021.0 L 832.0,1050.0 L 842.0,1085.0"/>
  </g>
</svg>
