<svg xmlns="http://www.w3.org/2000/svg" viewBox="0 0 1024 1024">
  <g style="fill:none;stroke:#000000;stroke-width:50;stroke-linecap:round;stroke-linejoin:round;" transform="scale(1, 1) translate(0, 0)">
    <path d="M 309.0,252.0 L 339.0,286.0 L 342.0,301.0 L 297.0,391.0 L 192.0,547.0 L 127.0,624.0 L 79.0,666.0"/>
    <path d="M 244.0,516.0 L 249.0,544.0 L 268.0,576.0 L 272.0,663.0 L 268.0,809.0 L 252.0,979.0 L 258.0,1044.0"/>
    <path d="M 477.0,287.0 L 538.0,293.0 L 661.0,272.0 L 738.0,252.0 L 788.0,252.0"/>
    <path d="M 592.0,306.0 L 620.0,337.0 L 617.0,487.0 L 603.0,505.0"/>
    <path d="M 647.0,401.0 L 660.0,393.0 L 753.0,372.0 L 793.0,370.0"/>
    <path d="M 460.0,390.0 L 489.0,418.0 L 503.0,509.0 L 495.0,518.0"/>
    <path d="M 384.0,557.0 L 434.0,561.0 L 592.0,526.0 L 780.0,498.0 L 814.0,497.0 L 866.0,509.0"/>
    <path d="M 521.0,650.0 L 687.0,616.0 L 727.0,619.0"/>
    <path d="M 487.0,572.0 L 510.0,593.0 L 469.0,744.0 L 470.0,759.0 L 507.0,761.0 L 615.0,729.0 L 808.0,697.0 L 845.0,704.0 L 869.0,725.0 L 838.0,915.0 L 804.0,1012.0 L 785.0,1032.0 L 767.0,1041.0 L 680.0,978.0"/>
    <path d="M 409.0,847.0 L 393.0,903.0 L 360.0,975.0"/>
    <path d="M 485.0,835.0 L 525.0,897.0 L 526.0,929.0"/>
    <path d="M 578.0,818.0 L 621.0,871.0 L 624.0,893.0"/>
    <path d="M 684.0,806.0 L 740.0,851.0 L 755.0,881.0"/>
  </g>
</svg>
