<svg xmlns="http://www.w3.org/2000/svg" viewBox="0 0 1024 1024">
  <g style="fill:none;stroke:#000000;stroke-width:50;stroke-linecap:round;stroke-linejoin:round;" transform="scale(1, 1) translate(0, 0)">
    <path d="M 275.0,217.0 L 302.0,240.0 L 315.0,261.0 L 264.0,380.0 L 155.0,565.0 L 90.0,651.0 L 54.0,686.0"/>
    <path d="M 228.0,495.0 L 234.0,525.0 L 254.0,563.0 L 253.0,738.0 L 236.0,947.0 L 242.0,1012.0"/>
    <path d="M 420.0,324.0 L 446.0,345.0 L 453.0,359.0 L 500.0,538.0"/>
    <path d="M 472.0,326.0 L 486.0,334.0 L 665.0,288.0 L 705.0,282.0 L 733.0,286.0 L 758.0,316.0 L 728.0,438.0 L 712.0,480.0 L 715.0,502.0"/>
    <path d="M 332.0,449.0 L 377.0,453.0 L 572.0,407.0 L 828.0,360.0 L 876.0,359.0 L 915.0,368.0"/>
    <path d="M 517.0,518.0 L 532.0,505.0 L 636.0,480.0 L 666.0,476.0 L 674.0,485.0"/>
    <path d="M 402.0,594.0 L 434.0,620.0 L 471.0,735.0"/>
    <path d="M 461.0,613.0 L 468.0,605.0 L 717.0,554.0 L 737.0,564.0 L 749.0,579.0 L 733.0,626.0 L 713.0,640.0"/>
    <path d="M 484.0,698.0 L 494.0,704.0 L 704.0,664.0 L 738.0,663.0 L 759.0,669.0"/>
    <path d="M 555.0,181.0 L 597.0,216.0 L 599.0,237.0 L 595.0,627.0 L 590.0,657.0 L 578.0,667.0"/>
    <path d="M 543.0,713.0 L 560.0,726.0 L 568.0,748.0 L 510.0,879.0 L 541.0,900.0 L 651.0,949.0 L 723.0,993.0 L 762.0,1021.0 L 804.0,1072.0"/>
    <path d="M 673.0,741.0 L 691.0,770.0 L 688.0,794.0 L 626.0,916.0 L 599.0,949.0 L 524.0,1003.0 L 427.0,1034.0"/>
    <path d="M 329.0,828.0 L 384.0,835.0 L 610.0,795.0 L 839.0,769.0 L 927.0,784.0"/>
  </g>
</svg>
