<svg xmlns="http://www.w3.org/2000/svg" viewBox="0 0 1024 1024">
  <g style="fill:none;stroke:#000000;stroke-width:50;stroke-linecap:round;stroke-linejoin:round;" transform="scale(1, 1) translate(0, 0)">
    <path d="M 279.0,196.0 L 296.0,209.0 L 317.0,242.0 L 287.0,316.0 L 186.0,494.0 L 101.0,610.0 L 51.0,661.0"/>
    <path d="M 235.0,468.0 L 242.0,502.0 L 257.0,534.0 L 259.0,581.0 L 254.0,807.0 L 242.0,930.0 L 248.0,983.0"/>
    <path d="M 518.0,466.0 L 463.0,473.0 L 427.0,492.0 L 417.0,509.0"/>
    <path d="M 355.0,387.0 L 372.0,398.0 L 390.0,430.0 L 392.0,528.0 L 385.0,644.0 L 394.0,689.0 L 423.0,678.0 L 452.0,656.0 L 488.0,619.0 L 501.0,615.0 L 505.0,602.0 L 516.0,601.0 L 523.0,591.0"/>
    <path d="M 537.0,290.0 L 546.0,295.0 L 605.0,297.0 L 842.0,249.0 L 907.0,244.0"/>
    <path d="M 653.0,314.0 L 677.0,338.0 L 627.0,431.0"/>
    <path d="M 556.0,439.0 L 578.0,462.0 L 588.0,516.0 L 589.0,662.0 L 583.0,744.0 L 589.0,809.0"/>
    <path d="M 600.0,449.0 L 622.0,457.0 L 804.0,415.0 L 826.0,423.0 L 844.0,444.0 L 843.0,704.0 L 833.0,753.0 L 844.0,829.0"/>
    <path d="M 613.0,572.0 L 624.0,560.0 L 700.0,542.0 L 756.0,542.0"/>
    <path d="M 615.0,674.0 L 625.0,664.0 L 680.0,650.0 L 726.0,644.0 L 756.0,649.0"/>
    <path d="M 611.0,783.0 L 633.0,766.0 L 749.0,743.0 L 774.0,748.0 L 782.0,758.0"/>
    <path d="M 664.0,872.0 L 630.0,876.0 L 589.0,925.0 L 547.0,961.0 L 460.0,1011.0"/>
    <path d="M 769.0,845.0 L 884.0,961.0 L 904.0,1021.0"/>
  </g>
</svg>
