<svg xmlns="http://www.w3.org/2000/svg" viewBox="0 0 1024 1024">
  <g style="fill:none;stroke:#000000;stroke-width:50;stroke-linecap:round;stroke-linejoin:round;" transform="scale(1, 1) translate(0, 0)">
    <path d="M 306.0,236.0 L 324.0,250.0 L 346.0,282.0 L 316.0,355.0 L 267.0,450.0 L 184.0,583.0 L 127.0,657.0 L 82.0,701.0"/>
    <path d="M 253.0,523.0 L 259.0,556.0 L 277.0,591.0 L 276.0,764.0 L 258.0,975.0 L 263.0,1043.0"/>
    <path d="M 396.0,400.0 L 448.0,405.0 L 660.0,363.0 L 845.0,338.0 L 900.0,341.0 L 932.0,350.0"/>
    <path d="M 497.0,244.0 L 525.0,258.0 L 539.0,277.0 L 565.0,501.0"/>
    <path d="M 708.0,180.0 L 727.0,197.0 L 743.0,223.0 L 705.0,422.0 L 687.0,436.0"/>
    <path d="M 581.0,494.0 L 587.0,483.0 L 601.0,476.0 L 643.0,467.0 L 700.0,459.0 L 735.0,465.0"/>
    <path d="M 428.0,577.0 L 458.0,601.0 L 496.0,723.0"/>
    <path d="M 484.0,580.0 L 501.0,589.0 L 619.0,562.0 L 783.0,537.0 L 806.0,552.0 L 816.0,571.0 L 793.0,616.0 L 766.0,624.0"/>
    <path d="M 511.0,705.0 L 525.0,695.0 L 733.0,659.0 L 796.0,657.0 L 814.0,663.0"/>
    <path d="M 459.0,788.0 L 508.0,794.0 L 722.0,757.0 L 783.0,760.0"/>
    <path d="M 470.0,892.0 L 505.0,893.0 L 724.0,852.0 L 747.0,850.0 L 770.0,857.0"/>
    <path d="M 584.0,504.0 L 616.0,521.0 L 624.0,548.0 L 622.0,921.0 L 621.0,937.0 L 606.0,954.0"/>
    <path d="M 362.0,991.0 L 421.0,1002.0 L 693.0,970.0 L 846.0,960.0 L 869.0,960.0 L 938.0,982.0"/>
  </g>
</svg>
