<svg xmlns="http://www.w3.org/2000/svg" viewBox="0 0 1024 1024">
  <g style="fill:none;stroke:#000000;stroke-width:50;stroke-linecap:round;stroke-linejoin:round;" transform="scale(1, 1) translate(0, 0)">
    <path d="M 481.0,190.0 L 502.0,212.0 L 511.0,234.0 L 470.0,314.0 L 398.0,414.0 L 340.0,484.0 L 287.0,535.0 L 216.0,592.0 L 138.0,642.0 L 124.0,643.0 L 120.0,651.0"/>
    <path d="M 521.0,295.0 L 540.0,305.0 L 681.0,449.0 L 791.0,536.0 L 824.0,545.0 L 968.0,560.0"/>
    <path d="M 397.0,533.0 L 455.0,539.0 L 577.0,513.0 L 615.0,515.0"/>
    <path d="M 272.0,652.0 L 303.0,681.0 L 333.0,802.0"/>
    <path d="M 329.0,670.0 L 350.0,656.0 L 436.0,638.0 L 459.0,660.0 L 443.0,715.0 L 428.0,721.0"/>
    <path d="M 348.0,777.0 L 365.0,766.0 L 422.0,751.0 L 472.0,754.0"/>
    <path d="M 517.0,627.0 L 546.0,657.0 L 572.0,775.0"/>
    <path d="M 566.0,633.0 L 591.0,636.0 L 666.0,612.0 L 698.0,615.0 L 715.0,634.0 L 713.0,645.0 L 700.0,687.0 L 678.0,703.0"/>
    <path d="M 589.0,740.0 L 598.0,747.0 L 667.0,728.0 L 728.0,730.0"/>
    <path d="M 343.0,815.0 L 356.0,828.0 L 366.0,852.0 L 337.0,903.0 L 271.0,981.0 L 217.0,1026.0 L 184.0,1040.0 L 179.0,1048.0"/>
    <path d="M 378.0,897.0 L 390.0,919.0 L 450.0,966.0"/>
    <path d="M 609.0,782.0 L 630.0,811.0 L 605.0,870.0 L 556.0,945.0 L 501.0,1001.0 L 466.0,1027.0"/>
    <path d="M 628.0,885.0 L 644.0,885.0 L 742.0,951.0 L 759.0,968.0 L 779.0,1007.0"/>
  </g>
</svg>
