<svg xmlns="http://www.w3.org/2000/svg" viewBox="0 0 1024 1024">
  <g style="fill:none;stroke:#000000;stroke-width:50;stroke-linecap:round;stroke-linejoin:round;" transform="scale(1, 1) translate(0, 0)">
    <path d="M 306.0,228.0 L 331.0,253.0 L 343.0,277.0 L 300.0,363.0 L 235.0,468.0 L 175.0,550.0 L 87.0,652.0 L 51.0,681.0"/>
    <path d="M 250.0,495.0 L 257.0,553.0 L 255.0,686.0 L 251.0,776.0 L 230.0,966.0 L 236.0,1019.0"/>
    <path d="M 491.0,355.0 L 544.0,356.0 L 679.0,314.0 L 734.0,309.0"/>
    <path d="M 574.0,164.0 L 617.0,200.0 L 610.0,397.0 L 593.0,420.0"/>
    <path d="M 438.0,476.0 L 482.0,474.0 L 740.0,415.0 L 790.0,419.0"/>
    <path d="M 364.0,622.0 L 415.0,619.0 L 512.0,577.0 L 552.0,571.0"/>
    <path d="M 427.0,523.0 L 460.0,550.0 L 460.0,666.0 L 448.0,685.0"/>
    <path d="M 336.0,739.0 L 377.0,743.0 L 487.0,690.0 L 492.0,682.0 L 507.0,680.0 L 512.0,672.0 L 528.0,670.0 L 554.0,652.0"/>
    <path d="M 631.0,558.0 L 687.0,560.0 L 784.0,533.0 L 816.0,535.0"/>
    <path d="M 687.0,476.0 L 709.0,493.0 L 719.0,512.0 L 718.0,598.0 L 704.0,624.0"/>
    <path d="M 602.0,664.0 L 633.0,664.0 L 827.0,625.0 L 870.0,630.0"/>
    <path d="M 416.0,789.0 L 472.0,789.0 L 606.0,757.0 L 717.0,738.0 L 785.0,748.0"/>
    <path d="M 502.0,809.0 L 524.0,832.0 L 498.0,884.0 L 461.0,933.0 L 377.0,1003.0 L 297.0,1038.0"/>
    <path d="M 616.0,780.0 L 648.0,808.0 L 641.0,917.0 L 649.0,979.0 L 667.0,1008.0 L 713.0,1031.0 L 793.0,1041.0 L 861.0,1031.0 L 903.0,1010.0 L 918.0,997.0 L 940.0,877.0"/>
  </g>
</svg>
