<svg xmlns="http://www.w3.org/2000/svg" viewBox="0 0 1024 1024">
  <g style="fill:none;stroke:#000000;stroke-width:50;stroke-linecap:round;stroke-linejoin:round;" transform="scale(1, 1) translate(0, 0)">
    <path d="M 278.0,223.0 L 302.0,243.0 L 316.0,266.0 L 271.0,369.0 L 164.0,549.0 L 94.0,640.0 L 58.0,674.0"/>
    <path d="M 206.0,526.0 L 210.0,552.0 L 228.0,583.0 L 230.0,635.0 L 226.0,803.0 L 212.0,929.0 L 217.0,990.0"/>
    <path d="M 399.0,301.0 L 436.0,304.0 L 539.0,278.0 L 576.0,276.0"/>
    <path d="M 338.0,335.0 L 358.0,358.0 L 363.0,375.0 L 350.0,452.0 L 381.0,454.0 L 513.0,425.0 L 563.0,432.0"/>
    <path d="M 436.0,324.0 L 457.0,341.0 L 464.0,365.0 L 443.0,474.0 L 427.0,523.0 L 400.0,574.0 L 361.0,619.0 L 300.0,654.0"/>
    <path d="M 482.0,478.0 L 504.0,508.0 L 499.0,561.0 L 505.0,601.0 L 538.0,585.0 L 591.0,540.0"/>
    <path d="M 647.0,271.0 L 683.0,275.0 L 744.0,265.0 L 819.0,243.0 L 848.0,246.0"/>
    <path d="M 611.0,325.0 L 631.0,345.0 L 618.0,425.0 L 632.0,428.0 L 792.0,399.0 L 866.0,409.0"/>
    <path d="M 707.0,293.0 L 735.0,323.0 L 717.0,429.0 L 684.0,520.0 L 640.0,584.0 L 606.0,615.0 L 556.0,642.0"/>
    <path d="M 749.0,456.0 L 769.0,481.0 L 772.0,497.0 L 765.0,542.0 L 768.0,592.0 L 777.0,613.0 L 812.0,630.0 L 852.0,634.0 L 886.0,629.0 L 912.0,619.0 L 930.0,604.0 L 930.0,501.0"/>
    <path d="M 437.0,705.0 L 460.0,728.0 L 467.0,753.0 L 469.0,816.0 L 454.0,963.0 L 456.0,1008.0"/>
    <path d="M 485.0,714.0 L 500.0,725.0 L 675.0,682.0 L 688.0,686.0 L 713.0,708.0 L 725.0,937.0 L 713.0,980.0 L 717.0,1038.0"/>
    <path d="M 492.0,847.0 L 504.0,837.0 L 572.0,825.0 L 601.0,823.0 L 634.0,830.0"/>
    <path d="M 482.0,977.0 L 506.0,963.0 L 628.0,948.0 L 673.0,949.0"/>
  </g>
</svg>
