<svg xmlns="http://www.w3.org/2000/svg" viewBox="0 0 1024 1024">
  <g style="fill:none;stroke:#000000;stroke-width:50;stroke-linecap:round;stroke-linejoin:round;" transform="scale(1, 1) translate(0, 0)">
    <path d="M 273.0,203.0 L 298.0,226.0 L 310.0,247.0 L 267.0,343.0 L 229.0,413.0 L 158.0,521.0 L 63.0,629.0"/>
    <path d="M 202.0,496.0 L 216.0,544.0 L 217.0,569.0 L 213.0,730.0 L 197.0,882.0 L 203.0,931.0"/>
    <path d="M 407.0,378.0 L 422.0,365.0 L 494.0,343.0 L 524.0,343.0 L 543.0,364.0 L 541.0,373.0 L 515.0,449.0 L 498.0,455.0"/>
    <path d="M 394.0,515.0 L 417.0,503.0 L 478.0,489.0 L 543.0,491.0"/>
    <path d="M 347.0,347.0 L 365.0,362.0 L 377.0,384.0 L 372.0,497.0 L 358.0,580.0 L 344.0,640.0 L 314.0,721.0 L 283.0,776.0 L 247.0,819.0"/>
    <path d="M 367.0,648.0 L 374.0,658.0 L 373.0,684.0 L 401.0,867.0"/>
    <path d="M 393.0,649.0 L 411.0,654.0 L 497.0,629.0 L 530.0,631.0 L 549.0,650.0 L 533.0,730.0 L 512.0,752.0"/>
    <path d="M 418.0,807.0 L 428.0,797.0 L 494.0,781.0 L 540.0,779.0 L 559.0,784.0"/>
    <path d="M 665.0,187.0 L 732.0,231.0 L 760.0,270.0"/>
    <path d="M 612.0,375.0 L 684.0,376.0 L 844.0,336.0 L 896.0,333.0"/>
    <path d="M 623.0,451.0 L 660.0,493.0 L 672.0,516.0"/>
    <path d="M 782.0,384.0 L 801.0,397.0 L 807.0,413.0 L 765.0,509.0 L 736.0,544.0"/>
    <path d="M 575.0,587.0 L 630.0,590.0 L 829.0,542.0 L 881.0,534.0 L 916.0,539.0"/>
    <path d="M 592.0,733.0 L 628.0,736.0 L 823.0,690.0 L 880.0,690.0 L 913.0,698.0"/>
    <path d="M 692.0,598.0 L 731.0,622.0 L 727.0,1086.0"/>
  </g>
</svg>
