<svg xmlns="http://www.w3.org/2000/svg" viewBox="0 0 1024 1024">
  <g style="fill:none;stroke:#000000;stroke-width:50;stroke-linecap:round;stroke-linejoin:round;" transform="scale(1, 1) translate(0, 0)">
    <path d="M 286.0,201.0 L 305.0,215.0 L 325.0,248.0 L 298.0,317.0 L 254.0,407.0 L 193.0,510.0 L 139.0,588.0 L 82.0,649.0"/>
    <path d="M 257.0,456.0 L 263.0,495.0 L 275.0,514.0 L 275.0,612.0 L 267.0,779.0 L 250.0,935.0 L 255.0,1003.0"/>
    <path d="M 557.0,163.0 L 630.0,203.0 L 652.0,233.0"/>
    <path d="M 461.0,311.0 L 518.0,316.0 L 686.0,279.0 L 740.0,276.0"/>
    <path d="M 481.0,350.0 L 514.0,387.0 L 524.0,412.0"/>
    <path d="M 672.0,313.0 L 694.0,338.0 L 659.0,401.0 L 638.0,417.0"/>
    <path d="M 364.0,476.0 L 400.0,483.0 L 426.0,479.0 L 533.0,452.0 L 840.0,401.0 L 877.0,402.0 L 922.0,414.0"/>
    <path d="M 421.0,545.0 L 443.0,560.0 L 463.0,586.0 L 491.0,717.0 L 504.0,748.0"/>
    <path d="M 466.0,546.0 L 489.0,554.0 L 680.0,514.0 L 714.0,514.0 L 733.0,522.0 L 755.0,550.0 L 720.0,675.0 L 707.0,703.0 L 711.0,725.0"/>
    <path d="M 506.0,641.0 L 512.0,633.0 L 614.0,612.0 L 648.0,617.0"/>
    <path d="M 520.0,723.0 L 535.0,712.0 L 670.0,686.0"/>
    <path d="M 400.0,811.0 L 387.0,885.0 L 355.0,967.0"/>
    <path d="M 480.0,839.0 L 517.0,915.0 L 554.0,953.0 L 610.0,980.0 L 676.0,995.0 L 759.0,997.0 L 795.0,989.0 L 821.0,973.0 L 803.0,927.0 L 761.0,858.0"/>
    <path d="M 580.0,800.0 L 642.0,829.0 L 663.0,852.0"/>
    <path d="M 778.0,751.0 L 860.0,787.0 L 898.0,825.0"/>
  </g>
</svg>
