<svg xmlns="http://www.w3.org/2000/svg" viewBox="0 0 1024 1024">
  <g style="fill:none;stroke:#000000;stroke-width:50;stroke-linecap:round;stroke-linejoin:round;" transform="scale(1, 1) translate(0, 0)">
    <path d="M 233.0,239.0 L 251.0,251.0 L 272.0,282.0 L 237.0,375.0 L 137.0,560.0 L 93.0,623.0 L 58.0,661.0"/>
    <path d="M 178.0,539.0 L 183.0,564.0 L 203.0,599.0 L 205.0,641.0 L 200.0,809.0 L 188.0,913.0 L 193.0,974.0"/>
    <path d="M 279.0,437.0 L 329.0,442.0 L 535.0,405.0 L 577.0,401.0 L 612.0,406.0"/>
    <path d="M 338.0,331.0 L 370.0,355.0 L 389.0,511.0"/>
    <path d="M 488.0,273.0 L 515.0,304.0 L 497.0,405.0 L 466.0,516.0"/>
    <path d="M 341.0,535.0 L 359.0,557.0 L 333.0,607.0 L 298.0,659.0 L 283.0,671.0 L 278.0,686.0"/>
    <path d="M 331.0,639.0 L 491.0,605.0 L 519.0,614.0 L 526.0,623.0 L 512.0,799.0 L 483.0,915.0 L 473.0,932.0 L 449.0,952.0 L 382.0,918.0"/>
    <path d="M 270.0,717.0 L 293.0,740.0 L 318.0,854.0"/>
    <path d="M 306.0,716.0 L 317.0,722.0 L 384.0,702.0 L 402.0,706.0 L 416.0,721.0 L 402.0,781.0 L 389.0,792.0"/>
    <path d="M 328.0,834.0 L 338.0,824.0 L 381.0,814.0 L 429.0,815.0"/>
    <path d="M 686.0,249.0 L 711.0,265.0 L 725.0,285.0 L 706.0,367.0 L 651.0,512.0 L 588.0,622.0"/>
    <path d="M 679.0,510.0 L 777.0,491.0 L 864.0,464.0 L 902.0,463.0"/>
    <path d="M 745.0,526.0 L 779.0,552.0 L 776.0,613.0 L 753.0,720.0 L 718.0,800.0 L 678.0,849.0 L 644.0,877.0 L 587.0,909.0 L 542.0,923.0"/>
    <path d="M 606.0,622.0 L 637.0,636.0 L 738.0,783.0 L 831.0,889.0 L 851.0,901.0 L 971.0,931.0"/>
  </g>
</svg>
