<svg xmlns="http://www.w3.org/2000/svg" viewBox="0 0 1024 1024">
  <g style="fill:none;stroke:#000000;stroke-width:50;stroke-linecap:round;stroke-linejoin:round;" transform="scale(1, 1) translate(0, 0)">
    <path d="M 267.0,245.0 L 284.0,260.0 L 301.0,294.0 L 269.0,364.0 L 160.0,534.0 L 109.0,595.0 L 67.0,633.0"/>
    <path d="M 206.0,510.0 L 212.0,542.0 L 227.0,568.0 L 227.0,645.0 L 215.0,817.0 L 201.0,902.0 L 206.0,988.0"/>
    <path d="M 528.0,183.0 L 594.0,220.0 L 619.0,255.0"/>
    <path d="M 376.0,365.0 L 424.0,370.0 L 585.0,336.0 L 739.0,315.0 L 811.0,329.0"/>
    <path d="M 488.0,413.0 L 521.0,439.0 L 534.0,458.0"/>
    <path d="M 679.0,408.0 L 648.0,410.0 L 587.0,499.0"/>
    <path d="M 553.0,504.0 L 574.0,530.0 L 569.0,691.0"/>
    <path d="M 293.0,539.0 L 329.0,541.0 L 449.0,505.0 L 463.0,509.0 L 473.0,523.0 L 463.0,637.0 L 446.0,678.0 L 428.0,695.0 L 378.0,667.0"/>
    <path d="M 355.0,550.0 L 368.0,562.0 L 373.0,577.0 L 362.0,605.0 L 322.0,664.0 L 282.0,701.0"/>
    <path d="M 807.0,433.0 L 778.0,429.0 L 689.0,507.0"/>
    <path d="M 651.0,504.0 L 674.0,531.0 L 676.0,632.0 L 715.0,616.0 L 733.0,605.0 L 736.0,595.0 L 751.0,589.0"/>
    <path d="M 724.0,502.0 L 734.0,506.0 L 790.0,572.0 L 854.0,633.0 L 929.0,655.0 L 965.0,657.0"/>
    <path d="M 396.0,760.0 L 431.0,796.0 L 413.0,910.0 L 392.0,958.0 L 366.0,993.0 L 315.0,1025.0"/>
    <path d="M 704.0,713.0 L 735.0,753.0 L 733.0,1104.0"/>
    <path d="M 500.0,762.0 L 537.0,768.0 L 615.0,753.0 L 652.0,754.0"/>
    <path d="M 488.0,863.0 L 537.0,866.0 L 623.0,846.0 L 670.0,846.0"/>
  </g>
</svg>
