<svg xmlns="http://www.w3.org/2000/svg" viewBox="0 0 1024 1024">
  <g style="fill:none;stroke:#000000;stroke-width:50;stroke-linecap:round;stroke-linejoin:round;" transform="scale(1, 1) translate(0, 0)">
    <path d="M 285.0,219.0 L 312.0,242.0 L 325.0,266.0 L 279.0,366.0 L 219.0,470.0 L 148.0,574.0 L 80.0,656.0 L 55.0,677.0"/>
    <path d="M 234.0,496.0 L 239.0,526.0 L 261.0,562.0 L 264.0,616.0 L 263.0,813.0 L 250.0,967.0 L 255.0,1035.0"/>
    <path d="M 593.0,166.0 L 629.0,201.0 L 625.0,321.0 L 609.0,333.0"/>
    <path d="M 481.0,244.0 L 538.0,302.0"/>
    <path d="M 765.0,187.0 L 782.0,216.0 L 709.0,290.0"/>
    <path d="M 403.0,352.0 L 411.0,366.0 L 411.0,393.0 L 377.0,463.0 L 375.0,503.0"/>
    <path d="M 441.0,382.0 L 449.0,389.0 L 467.0,389.0 L 652.0,348.0 L 827.0,324.0 L 853.0,335.0 L 871.0,358.0 L 811.0,431.0"/>
    <path d="M 486.0,435.0 L 514.0,464.0 L 537.0,563.0"/>
    <path d="M 532.0,440.0 L 543.0,446.0 L 568.0,444.0 L 663.0,417.0 L 709.0,415.0 L 730.0,437.0 L 714.0,473.0 L 692.0,483.0"/>
    <path d="M 552.0,544.0 L 568.0,534.0 L 678.0,513.0 L 718.0,511.0 L 739.0,517.0"/>
    <path d="M 463.0,590.0 L 489.0,615.0 L 494.0,635.0 L 498.0,730.0 L 487.0,849.0 L 491.0,885.0"/>
    <path d="M 516.0,624.0 L 541.0,609.0 L 618.0,596.0 L 700.0,573.0 L 722.0,578.0 L 744.0,597.0 L 754.0,610.0 L 747.0,884.0"/>
    <path d="M 521.0,699.0 L 531.0,689.0 L 590.0,679.0 L 625.0,674.0 L 656.0,679.0"/>
    <path d="M 518.0,777.0 L 618.0,756.0 L 640.0,754.0 L 661.0,760.0"/>
    <path d="M 514.0,869.0 L 528.0,856.0 L 672.0,836.0 L 701.0,840.0 L 708.0,851.0"/>
    <path d="M 569.0,952.0 L 539.0,955.0 L 484.0,1019.0 L 439.0,1054.0 L 400.0,1074.0"/>
    <path d="M 689.0,920.0 L 780.0,995.0 L 807.0,1034.0 L 814.0,1066.0"/>
  </g>
</svg>
