<svg xmlns="http://www.w3.org/2000/svg" viewBox="0 0 1024 1024">
  <g style="fill:none;stroke:#000000;stroke-width:50;stroke-linecap:round;stroke-linejoin:round;" transform="scale(1, 1) translate(0, 0)">
    <path d="M 301.0,222.0 L 328.0,246.0 L 339.0,272.0 L 294.0,365.0 L 250.0,441.0 L 175.0,549.0 L 115.0,621.0 L 75.0,657.0"/>
    <path d="M 247.0,490.0 L 267.0,548.0 L 269.0,591.0 L 261.0,799.0 L 244.0,947.0 L 250.0,1012.0"/>
    <path d="M 450.0,233.0 L 477.0,240.0 L 518.0,240.0 L 752.0,197.0 L 811.0,194.0"/>
    <path d="M 574.0,257.0 L 589.0,273.0 L 561.0,322.0 L 543.0,335.0"/>
    <path d="M 470.0,342.0 L 486.0,356.0 L 498.0,380.0 L 505.0,538.0 L 504.0,548.0 L 494.0,557.0"/>
    <path d="M 509.0,346.0 L 532.0,356.0 L 670.0,323.0 L 709.0,328.0 L 727.0,356.0 L 715.0,502.0 L 695.0,517.0"/>
    <path d="M 534.0,434.0 L 537.0,426.0 L 585.0,414.0 L 633.0,415.0"/>
    <path d="M 529.0,510.0 L 540.0,500.0 L 579.0,489.0 L 618.0,483.0 L 637.0,487.0"/>
    <path d="M 362.0,566.0 L 374.0,586.0 L 369.0,623.0 L 350.0,669.0 L 352.0,707.0"/>
    <path d="M 398.0,611.0 L 409.0,600.0 L 631.0,553.0 L 825.0,521.0 L 871.0,527.0 L 889.0,555.0 L 824.0,623.0"/>
    <path d="M 463.0,661.0 L 454.0,703.0 L 431.0,755.0"/>
    <path d="M 520.0,677.0 L 560.0,716.0 L 609.0,739.0 L 654.0,747.0 L 694.0,745.0 L 720.0,735.0 L 710.0,703.0 L 691.0,675.0 L 679.0,670.0 L 682.0,659.0 L 673.0,655.0"/>
    <path d="M 571.0,632.0 L 607.0,651.0 L 629.0,673.0"/>
    <path d="M 704.0,601.0 L 758.0,633.0 L 772.0,655.0"/>
    <path d="M 565.0,780.0 L 534.0,791.0 L 512.0,833.0 L 465.0,895.0 L 402.0,956.0 L 352.0,990.0"/>
    <path d="M 538.0,837.0 L 598.0,830.0 L 673.0,810.0 L 699.0,828.0 L 701.0,837.0 L 686.0,883.0 L 661.0,931.0 L 615.0,985.0 L 592.0,1002.0 L 520.0,1034.0 L 394.0,1056.0"/>
    <path d="M 506.0,879.0 L 523.0,884.0 L 657.0,984.0 L 767.0,1042.0 L 820.0,1052.0 L 947.0,1051.0"/>
  </g>
</svg>
