<svg xmlns="http://www.w3.org/2000/svg" viewBox="0 0 1024 1024">
  <g style="fill:none;stroke:#000000;stroke-width:50;stroke-linecap:round;stroke-linejoin:round;" transform="scale(1, 1) translate(0, 0)">
    <path d="M 239.0,240.0 L 257.0,254.0 L 278.0,285.0 L 250.0,351.0 L 195.0,457.0 L 131.0,556.0 L 47.0,653.0"/>
    <path d="M 187.0,516.0 L 192.0,540.0 L 215.0,573.0 L 218.0,587.0 L 218.0,794.0 L 208.0,919.0 L 214.0,984.0"/>
    <path d="M 381.0,251.0 L 446.0,289.0 L 467.0,319.0"/>
    <path d="M 287.0,447.0 L 310.0,451.0 L 347.0,446.0 L 466.0,409.0 L 513.0,404.0"/>
    <path d="M 322.0,547.0 L 358.0,548.0 L 457.0,520.0 L 471.0,522.0"/>
    <path d="M 318.0,646.0 L 369.0,644.0 L 448.0,620.0 L 481.0,620.0"/>
    <path d="M 281.0,738.0 L 309.0,768.0 L 337.0,914.0"/>
    <path d="M 332.0,761.0 L 342.0,750.0 L 429.0,724.0 L 455.0,735.0 L 465.0,746.0 L 452.0,807.0 L 447.0,819.0 L 431.0,831.0"/>
    <path d="M 352.0,885.0 L 370.0,872.0 L 426.0,857.0 L 477.0,858.0"/>
    <path d="M 561.0,421.0 L 597.0,421.0 L 647.0,409.0 L 720.0,381.0 L 753.0,380.0"/>
    <path d="M 624.0,195.0 L 668.0,233.0 L 655.0,500.0 L 638.0,529.0"/>
    <path d="M 512.0,573.0 L 566.0,572.0 L 704.0,535.0 L 835.0,508.0 L 883.0,511.0 L 900.0,518.0"/>
    <path d="M 879.0,356.0 L 826.0,371.0 L 730.0,561.0 L 607.0,757.0 L 480.0,924.0 L 437.0,970.0 L 389.0,1008.0"/>
    <path d="M 584.0,706.0 L 601.0,720.0 L 615.0,748.0 L 616.0,875.0 L 605.0,970.0 L 608.0,1018.0"/>
    <path d="M 622.0,711.0 L 651.0,719.0 L 772.0,684.0 L 793.0,692.0 L 816.0,716.0 L 824.0,970.0 L 813.0,1001.0 L 760.0,989.0"/>
    <path d="M 644.0,856.0 L 653.0,844.0 L 688.0,835.0 L 722.0,832.0 L 744.0,837.0"/>
    <path d="M 631.0,997.0 L 645.0,983.0 L 657.0,980.0 L 716.0,970.0 L 761.0,970.0"/>
  </g>
</svg>
