<svg xmlns="http://www.w3.org/2000/svg" viewBox="0 0 1024 1024">
  <g style="fill:none;stroke:#000000;stroke-width:50;stroke-linecap:round;stroke-linejoin:round;" transform="scale(1, 1) translate(0, 0)">
    <path d="M 234.0,241.0 L 258.0,259.0 L 272.0,283.0 L 240.0,361.0 L 145.0,533.0 L 79.0,624.0 L 46.0,658.0"/>
    <path d="M 201.0,484.0 L 218.0,540.0 L 218.0,606.0 L 206.0,825.0 L 192.0,934.0 L 198.0,994.0"/>
    <path d="M 306.0,382.0 L 339.0,385.0 L 568.0,328.0 L 622.0,327.0"/>
    <path d="M 359.0,241.0 L 381.0,253.0 L 394.0,273.0 L 409.0,483.0"/>
    <path d="M 504.0,182.0 L 536.0,213.0 L 512.0,387.0 L 507.0,411.0 L 496.0,417.0"/>
    <path d="M 426.0,463.0 L 444.0,452.0 L 485.0,441.0 L 537.0,443.0"/>
    <path d="M 291.0,546.0 L 323.0,570.0 L 356.0,660.0"/>
    <path d="M 345.0,548.0 L 354.0,553.0 L 370.0,549.0 L 494.0,504.0 L 527.0,499.0 L 542.0,501.0 L 558.0,520.0 L 549.0,554.0 L 530.0,566.0"/>
    <path d="M 368.0,629.0 L 381.0,633.0 L 523.0,593.0 L 557.0,587.0 L 577.0,591.0"/>
    <path d="M 342.0,707.0 L 397.0,705.0 L 458.0,690.0 L 505.0,671.0 L 540.0,670.0"/>
    <path d="M 271.0,798.0 L 316.0,804.0 L 514.0,746.0 L 553.0,739.0 L 579.0,742.0"/>
    <path d="M 406.0,498.0 L 435.0,523.0 L 440.0,575.0 L 430.0,716.0 L 416.0,789.0 L 396.0,844.0 L 362.0,905.0 L 318.0,956.0 L 288.0,982.0 L 268.0,991.0"/>
    <path d="M 470.0,830.0 L 523.0,880.0 L 537.0,914.0"/>
    <path d="M 684.0,192.0 L 697.0,200.0 L 715.0,230.0 L 695.0,278.0 L 636.0,379.0 L 566.0,464.0"/>
    <path d="M 633.0,430.0 L 646.0,466.0 L 649.0,619.0 L 646.0,756.0 L 623.0,972.0 L 629.0,1029.0"/>
    <path d="M 748.0,298.0 L 811.0,344.0 L 823.0,374.0"/>
    <path d="M 691.0,463.0 L 748.0,466.0 L 805.0,454.0 L 878.0,429.0 L 923.0,429.0"/>
    <path d="M 703.0,594.0 L 747.0,598.0 L 840.0,572.0 L 881.0,570.0"/>
    <path d="M 707.0,694.0 L 760.0,698.0 L 834.0,676.0 L 885.0,674.0"/>
    <path d="M 764.0,492.0 L 791.0,511.0 L 790.0,774.0 L 786.0,788.0 L 774.0,798.0"/>
    <path d="M 665.0,830.0 L 695.0,839.0 L 902.0,804.0 L 974.0,815.0"/>
  </g>
</svg>
