<svg xmlns="http://www.w3.org/2000/svg" viewBox="0 0 1024 1024">
  <g style="fill:none;stroke:#000000;stroke-width:50;stroke-linecap:round;stroke-linejoin:round;" transform="scale(1, 1) translate(0, 0)">
    <path d="M 265.0,243.0 L 282.0,257.0 L 300.0,288.0 L 274.0,352.0 L 217.0,458.0 L 144.0,569.0 L 100.0,626.0 L 63.0,661.0"/>
    <path d="M 201.0,528.0 L 206.0,556.0 L 224.0,585.0 L 228.0,662.0 L 224.0,831.0 L 212.0,962.0 L 218.0,1022.0"/>
    <path d="M 372.0,269.0 L 407.0,309.0 L 444.0,442.0"/>
    <path d="M 385.0,264.0 L 432.0,276.0 L 598.0,247.0 L 721.0,233.0 L 786.0,234.0 L 799.0,242.0 L 817.0,270.0 L 751.0,413.0"/>
    <path d="M 524.0,281.0 L 543.0,377.0 L 554.0,392.0"/>
    <path d="M 643.0,260.0 L 663.0,280.0 L 662.0,289.0 L 643.0,368.0 L 630.0,373.0"/>
    <path d="M 460.0,429.0 L 476.0,419.0 L 731.0,385.0"/>
    <path d="M 379.0,472.0 L 396.0,509.0 L 309.0,650.0 L 343.0,657.0 L 398.0,652.0 L 410.0,643.0"/>
    <path d="M 468.0,555.0 L 480.0,590.0 L 433.0,656.0 L 356.0,741.0 L 348.0,773.0 L 370.0,776.0 L 464.0,748.0"/>
    <path d="M 464.0,710.0 L 490.0,746.0 L 499.0,770.0"/>
    <path d="M 295.0,874.0 L 323.0,948.0 L 321.0,993.0"/>
    <path d="M 389.0,860.0 L 418.0,909.0 L 422.0,926.0"/>
    <path d="M 468.0,825.0 L 503.0,884.0"/>
    <path d="M 670.0,476.0 L 646.0,487.0 L 618.0,547.0 L 574.0,615.0 L 520.0,672.0"/>
    <path d="M 586.0,639.0 L 596.0,677.0 L 600.0,754.0 L 597.0,918.0 L 588.0,1001.0 L 593.0,1063.0"/>
    <path d="M 711.0,473.0 L 758.0,505.0 L 784.0,543.0"/>
    <path d="M 659.0,631.0 L 716.0,631.0 L 824.0,595.0 L 865.0,594.0"/>
    <path d="M 671.0,741.0 L 713.0,744.0 L 816.0,717.0 L 848.0,716.0"/>
    <path d="M 672.0,837.0 L 727.0,840.0 L 819.0,817.0 L 860.0,816.0"/>
    <path d="M 735.0,645.0 L 754.0,658.0 L 761.0,675.0 L 758.0,906.0 L 742.0,929.0"/>
    <path d="M 623.0,980.0 L 633.0,973.0 L 859.0,934.0 L 903.0,931.0 L 930.0,938.0"/>
  </g>
</svg>
