<svg xmlns="http://www.w3.org/2000/svg" viewBox="0 0 1024 1024">
  <g style="fill:none;stroke:#000000;stroke-width:50;stroke-linecap:round;stroke-linejoin:round;" transform="scale(1, 1) translate(0, 0)">
    <path d="M 443.0,186.0 L 533.0,240.0 L 556.0,276.0"/>
    <path d="M 232.0,401.0 L 287.0,410.0 L 335.0,408.0 L 545.0,376.0 L 723.0,336.0 L 783.0,338.0"/>
    <path d="M 506.0,440.0 L 466.0,446.0 L 415.0,520.0 L 346.0,595.0 L 336.0,623.0 L 383.0,626.0 L 580.0,587.0 L 611.0,583.0 L 626.0,588.0"/>
    <path d="M 580.0,495.0 L 669.0,585.0 L 687.0,633.0"/>
    <path d="M 380.0,654.0 L 411.0,688.0 L 374.0,778.0 L 340.0,836.0 L 304.0,883.0 L 249.0,937.0 L 195.0,978.0 L 116.0,1021.0"/>
    <path d="M 511.0,624.0 L 541.0,638.0 L 558.0,665.0 L 550.0,805.0 L 557.0,895.0 L 577.0,953.0 L 589.0,967.0 L 616.0,982.0 L 663.0,992.0 L 770.0,995.0 L 838.0,988.0 L 914.0,963.0 L 924.0,953.0 L 927.0,938.0 L 935.0,795.0"/>
  </g>
</svg>
