<svg xmlns="http://www.w3.org/2000/svg" viewBox="0 0 1024 1024">
  <g style="fill:none;stroke:#000000;stroke-width:50;stroke-linecap:round;stroke-linejoin:round;" transform="scale(1, 1) translate(0, 0)">
    <path d="M 468.0,224.0 L 497.0,268.0 L 486.0,293.0 L 422.0,399.0 L 320.0,532.0 L 303.0,574.0 L 348.0,578.0 L 549.0,538.0 L 655.0,524.0 L 666.0,528.0"/>
    <path d="M 605.0,424.0 L 708.0,513.0 L 741.0,564.0 L 744.0,589.0"/>
    <path d="M 384.0,637.0 L 404.0,665.0 L 405.0,680.0 L 379.0,757.0 L 342.0,828.0 L 309.0,874.0 L 251.0,935.0 L 203.0,974.0 L 152.0,1004.0"/>
    <path d="M 530.0,601.0 L 569.0,650.0 L 556.0,747.0 L 555.0,877.0 L 564.0,931.0 L 575.0,954.0 L 595.0,971.0 L 631.0,985.0 L 727.0,994.0 L 812.0,989.0 L 882.0,967.0 L 892.0,960.0 L 893.0,946.0 L 888.0,806.0"/>
  </g>
</svg>
