<svg xmlns="http://www.w3.org/2000/svg" viewBox="0 0 1024 1024">
  <g style="fill:none;stroke:#000000;stroke-width:50;stroke-linecap:round;stroke-linejoin:round;" transform="scale(1, 1) translate(0, 0)">
    <path d="M 461.0,221.0 L 511.0,264.0 L 498.0,534.0 L 495.0,555.0 L 477.0,575.0"/>
    <path d="M 293.0,418.0 L 372.0,484.0 L 382.0,507.0"/>
    <path d="M 696.0,317.0 L 717.0,341.0 L 724.0,363.0 L 639.0,439.0 L 578.0,484.0"/>
    <path d="M 167.0,635.0 L 219.0,643.0 L 390.0,611.0 L 757.0,566.0 L 808.0,572.0 L 847.0,584.0"/>
    <path d="M 385.0,665.0 L 406.0,706.0 L 369.0,790.0 L 334.0,846.0 L 247.0,936.0 L 174.0,986.0 L 113.0,1016.0"/>
    <path d="M 514.0,624.0 L 543.0,641.0 L 564.0,674.0 L 551.0,754.0 L 545.0,868.0 L 556.0,956.0 L 571.0,985.0 L 613.0,1010.0 L 667.0,1019.0 L 759.0,1022.0 L 846.0,1011.0 L 902.0,991.0 L 912.0,984.0 L 914.0,970.0 L 915.0,799.0"/>
  </g>
</svg>
