<svg xmlns="http://www.w3.org/2000/svg" viewBox="0 0 1024 1024">
  <g style="fill:none;stroke:#000000;stroke-width:50;stroke-linecap:round;stroke-linejoin:round;" transform="scale(1, 1) translate(0, 0)">
    <path d="M 264.0,392.0 L 319.0,401.0 L 637.0,342.0 L 686.0,340.0 L 721.0,347.0"/>
    <path d="M 452.0,184.0 L 492.0,227.0 L 451.0,491.0 L 431.0,512.0"/>
    <path d="M 263.0,535.0 L 289.0,554.0 L 307.0,586.0 L 339.0,729.0"/>
    <path d="M 318.0,535.0 L 342.0,547.0 L 441.0,534.0 L 556.0,508.0 L 598.0,510.0 L 634.0,549.0 L 602.0,624.0 L 564.0,652.0"/>
    <path d="M 357.0,719.0 L 377.0,707.0 L 565.0,679.0 L 622.0,676.0 L 646.0,685.0"/>
    <path d="M 366.0,758.0 L 384.0,800.0 L 358.0,849.0 L 319.0,901.0 L 240.0,966.0 L 154.0,1008.0"/>
    <path d="M 490.0,711.0 L 527.0,739.0 L 535.0,755.0 L 524.0,867.0 L 531.0,959.0 L 555.0,996.0 L 602.0,1018.0 L 656.0,1027.0 L 766.0,1029.0 L 843.0,1018.0 L 898.0,995.0 L 903.0,943.0 L 900.0,830.0"/>
  </g>
</svg>
