<svg xmlns="http://www.w3.org/2000/svg" viewBox="0 0 1024 1024">
  <g style="fill:none;stroke:#000000;stroke-width:50;stroke-linecap:round;stroke-linejoin:round;" transform="scale(1, 1) translate(0, 0)">
    <path d="M 134.0,331.0 L 163.0,339.0 L 215.0,338.0 L 412.0,299.0 L 462.0,300.0"/>
    <path d="M 97.0,461.0 L 130.0,494.0 L 136.0,514.0 L 112.0,657.0 L 148.0,662.0 L 337.0,619.0 L 420.0,593.0 L 465.0,594.0"/>
    <path d="M 288.0,358.0 L 333.0,395.0 L 301.0,675.0 L 258.0,765.0 L 208.0,841.0 L 122.0,944.0 L 64.0,990.0"/>
    <path d="M 328.0,705.0 L 345.0,749.0 L 334.0,886.0 L 345.0,923.0 L 378.0,904.0 L 444.0,836.0 L 476.0,794.0"/>
    <path d="M 521.0,310.0 L 563.0,318.0 L 603.0,316.0 L 758.0,284.0 L 816.0,276.0 L 850.0,278.0"/>
    <path d="M 511.0,434.0 L 533.0,453.0 L 553.0,484.0 L 544.0,561.0 L 523.0,620.0 L 527.0,639.0 L 561.0,637.0 L 723.0,599.0 L 840.0,579.0 L 868.0,578.0 L 917.0,588.0"/>
    <path d="M 676.0,337.0 L 715.0,365.0 L 721.0,376.0 L 699.0,520.0 L 649.0,690.0 L 615.0,775.0 L 545.0,905.0 L 491.0,975.0 L 435.0,1026.0"/>
    <path d="M 700.0,683.0 L 725.0,717.0 L 713.0,875.0 L 717.0,942.0 L 730.0,979.0 L 750.0,996.0 L 789.0,1008.0 L 859.0,1006.0 L 895.0,998.0 L 933.0,977.0 L 944.0,965.0 L 940.0,823.0"/>
  </g>
</svg>
