<svg xmlns="http://www.w3.org/2000/svg" viewBox="0 0 1024 1024">
  <g style="fill:none;stroke:#000000;stroke-width:50;stroke-linecap:round;stroke-linejoin:round;" transform="scale(1, 1) translate(0, 0)">
    <path d="M 440.0,180.0 L 462.0,220.0 L 417.0,299.0 L 327.0,394.0 L 277.0,425.0"/>
    <path d="M 445.0,305.0 L 568.0,282.0 L 593.0,281.0 L 622.0,293.0 L 617.0,315.0 L 556.0,399.0 L 521.0,443.0 L 504.0,452.0"/>
    <path d="M 247.0,492.0 L 260.0,499.0 L 290.0,539.0 L 335.0,708.0"/>
    <path d="M 285.0,487.0 L 324.0,503.0 L 505.0,477.0 L 649.0,445.0 L 688.0,444.0 L 702.0,450.0 L 728.0,482.0 L 686.0,589.0 L 658.0,602.0"/>
    <path d="M 355.0,665.0 L 366.0,676.0 L 376.0,676.0 L 656.0,637.0 L 704.0,637.0 L 727.0,645.0"/>
    <path d="M 454.0,505.0 L 484.0,528.0 L 491.0,542.0 L 440.0,715.0 L 379.0,832.0 L 333.0,889.0 L 270.0,943.0 L 224.0,973.0 L 120.0,1015.0"/>
    <path d="M 514.0,678.0 L 546.0,698.0 L 562.0,729.0 L 549.0,840.0 L 551.0,909.0 L 559.0,952.0 L 581.0,987.0 L 631.0,1011.0 L 725.0,1021.0 L 786.0,1020.0 L 869.0,1008.0 L 917.0,987.0 L 922.0,968.0 L 920.0,810.0"/>
  </g>
</svg>
