<svg xmlns="http://www.w3.org/2000/svg" viewBox="0 0 1024 1024">
  <g style="fill:none;stroke:#000000;stroke-width:50;stroke-linecap:round;stroke-linejoin:round;" transform="scale(1, 1) translate(0, 0)">
    <path d="M 449.0,166.0 L 521.0,216.0 L 538.0,242.0"/>
    <path d="M 203.0,359.0 L 263.0,366.0 L 433.0,333.0 L 776.0,290.0 L 821.0,293.0 L 872.0,308.0"/>
    <path d="M 360.0,401.0 L 381.0,441.0 L 363.0,470.0 L 317.0,524.0 L 272.0,559.0 L 228.0,583.0"/>
    <path d="M 610.0,393.0 L 726.0,452.0 L 749.0,476.0 L 765.0,506.0"/>
    <path d="M 334.0,574.0 L 371.0,619.0 L 393.0,721.0 L 413.0,749.0"/>
    <path d="M 348.0,566.0 L 398.0,582.0 L 521.0,558.0 L 603.0,533.0 L 631.0,536.0 L 667.0,573.0 L 631.0,660.0 L 600.0,680.0"/>
    <path d="M 420.0,725.0 L 441.0,734.0 L 597.0,706.0 L 640.0,706.0 L 663.0,714.0"/>
    <path d="M 400.0,762.0 L 423.0,799.0 L 384.0,876.0 L 354.0,917.0 L 310.0,964.0 L 237.0,1019.0 L 125.0,1073.0"/>
    <path d="M 534.0,741.0 L 567.0,778.0 L 553.0,929.0 L 558.0,989.0 L 578.0,1026.0 L 633.0,1055.0 L 702.0,1067.0 L 789.0,1065.0 L 880.0,1047.0 L 917.0,1029.0 L 941.0,1005.0 L 948.0,848.0"/>
  </g>
</svg>
