<svg xmlns="http://www.w3.org/2000/svg" viewBox="0 0 1024 1024">
  <g style="fill:none;stroke:#000000;stroke-width:50;stroke-linecap:round;stroke-linejoin:round;" transform="scale(1, 1) translate(0, 0)">
    <path d="M 437.0,183.0 L 523.0,224.0 L 552.0,258.0"/>
    <path d="M 222.0,352.0 L 267.0,360.0 L 437.0,331.0 L 731.0,298.0 L 770.0,303.0 L 805.0,316.0"/>
    <path d="M 328.0,431.0 L 344.0,465.0 L 242.0,556.0 L 210.0,574.0 L 207.0,584.0"/>
    <path d="M 621.0,386.0 L 716.0,434.0 L 741.0,455.0 L 763.0,486.0"/>
    <path d="M 464.0,448.0 L 484.0,484.0 L 439.0,554.0 L 363.0,634.0 L 348.0,664.0 L 380.0,669.0 L 571.0,626.0 L 629.0,617.0 L 647.0,622.0"/>
    <path d="M 589.0,536.0 L 693.0,623.0 L 713.0,657.0 L 717.0,682.0"/>
    <path d="M 391.0,691.0 L 418.0,727.0 L 395.0,788.0 L 363.0,846.0 L 328.0,892.0 L 270.0,949.0 L 220.0,985.0 L 180.0,1004.0"/>
    <path d="M 522.0,657.0 L 553.0,676.0 L 560.0,687.0 L 546.0,804.0 L 549.0,907.0 L 564.0,952.0 L 594.0,975.0 L 655.0,990.0 L 753.0,993.0 L 841.0,982.0 L 878.0,967.0 L 888.0,960.0 L 891.0,932.0 L 892.0,810.0"/>
  </g>
</svg>
