<svg xmlns="http://www.w3.org/2000/svg" viewBox="0 0 1024 1024">
  <g style="fill:none;stroke:#000000;stroke-width:50;stroke-linecap:round;stroke-linejoin:round;" transform="scale(1, 1) translate(0, 0)">
    <path d="M 188.0,415.0 L 217.0,420.0 L 257.0,416.0 L 363.0,390.0 L 401.0,375.0 L 458.0,373.0"/>
    <path d="M 320.0,222.0 L 357.0,262.0 L 317.0,500.0 L 295.0,532.0"/>
    <path d="M 172.0,552.0 L 199.0,574.0 L 230.0,694.0 L 241.0,709.0"/>
    <path d="M 227.0,558.0 L 238.0,564.0 L 251.0,562.0 L 363.0,533.0 L 397.0,538.0 L 418.0,560.0 L 395.0,629.0 L 376.0,644.0"/>
    <path d="M 254.0,696.0 L 270.0,686.0 L 345.0,671.0 L 402.0,667.0 L 423.0,673.0"/>
    <path d="M 230.0,725.0 L 251.0,756.0 L 201.0,854.0 L 164.0,899.0 L 123.0,935.0 L 79.0,965.0 L 48.0,978.0"/>
    <path d="M 320.0,697.0 L 344.0,711.0 L 356.0,731.0 L 350.0,848.0 L 360.0,900.0 L 400.0,879.0 L 446.0,841.0 L 449.0,829.0 L 460.0,828.0 L 466.0,819.0"/>
    <path d="M 513.0,382.0 L 543.0,388.0 L 586.0,386.0 L 756.0,345.0 L 805.0,345.0"/>
    <path d="M 640.0,192.0 L 667.0,220.0 L 674.0,246.0 L 622.0,489.0 L 601.0,510.0"/>
    <path d="M 492.0,527.0 L 516.0,548.0 L 523.0,566.0 L 546.0,678.0 L 557.0,698.0"/>
    <path d="M 541.0,530.0 L 550.0,538.0 L 578.0,538.0 L 702.0,507.0 L 722.0,510.0 L 751.0,538.0 L 725.0,608.0 L 702.0,625.0"/>
    <path d="M 570.0,680.0 L 586.0,670.0 L 692.0,651.0 L 743.0,647.0 L 763.0,656.0"/>
    <path d="M 547.0,713.0 L 571.0,742.0 L 561.0,782.0 L 529.0,856.0 L 464.0,941.0 L 394.0,994.0"/>
    <path d="M 645.0,682.0 L 676.0,707.0 L 666.0,844.0 L 674.0,926.0 L 690.0,959.0 L 719.0,977.0 L 760.0,989.0 L 821.0,993.0 L 890.0,980.0 L 927.0,959.0 L 940.0,945.0 L 940.0,812.0"/>
  </g>
</svg>
