<svg xmlns="http://www.w3.org/2000/svg" viewBox="0 0 1024 1024">
  <g style="fill:none;stroke:#000000;stroke-width:50;stroke-linecap:round;stroke-linejoin:round;" transform="scale(1, 1) translate(0, 0)">
    <path d="M 466.0,230.0 L 481.0,243.0 L 499.0,275.0 L 461.0,350.0 L 409.0,429.0 L 326.0,529.0 L 251.0,600.0 L 180.0,654.0 L 99.0,703.0"/>
    <path d="M 522.0,329.0 L 523.0,346.0 L 660.0,477.0 L 729.0,536.0 L 785.0,574.0 L 805.0,584.0 L 864.0,592.0 L 980.0,600.0"/>
    <path d="M 319.0,641.0 L 358.0,648.0 L 402.0,646.0 L 603.0,603.0 L 652.0,606.0"/>
    <path d="M 310.0,810.0 L 334.0,818.0 L 388.0,818.0 L 588.0,779.0 L 653.0,777.0"/>
    <path d="M 458.0,662.0 L 487.0,682.0 L 494.0,695.0 L 490.0,930.0 L 474.0,951.0"/>
    <path d="M 187.0,998.0 L 241.0,1009.0 L 418.0,984.0 L 734.0,957.0 L 821.0,981.0"/>
  </g>
</svg>
