<svg xmlns="http://www.w3.org/2000/svg" viewBox="0 0 1024 1024">
  <g style="fill:none;stroke:#000000;stroke-width:50;stroke-linecap:round;stroke-linejoin:round;" transform="scale(1, 1) translate(0, 0)">
    <path d="M 340.0,336.0 L 354.0,358.0 L 360.0,385.0 L 280.0,502.0 L 180.0,592.0 L 86.0,646.0"/>
    <path d="M 490.0,218.0 L 535.0,234.0 L 561.0,258.0 L 649.0,383.0 L 716.0,464.0 L 798.0,535.0 L 874.0,551.0 L 989.0,561.0"/>
    <path d="M 311.0,557.0 L 368.0,563.0 L 568.0,523.0 L 609.0,518.0 L 650.0,524.0"/>
    <path d="M 425.0,576.0 L 451.0,603.0 L 394.0,702.0 L 390.0,730.0 L 416.0,737.0 L 531.0,709.0 L 573.0,708.0 L 610.0,735.0 L 611.0,780.0 L 598.0,848.0 L 567.0,929.0 L 537.0,975.0 L 511.0,999.0 L 499.0,1005.0 L 391.0,948.0"/>
  </g>
</svg>
