<svg xmlns="http://www.w3.org/2000/svg" viewBox="0 0 1024 1024">
  <g style="fill:none;stroke:#000000;stroke-width:50;stroke-linecap:round;stroke-linejoin:round;" transform="scale(1, 1) translate(0, 0)">
    <path d="M 314.0,370.0 L 347.0,410.0 L 296.0,512.0 L 215.0,620.0 L 128.0,702.0 L 68.0,742.0"/>
    <path d="M 473.0,234.0 L 518.0,254.0 L 544.0,282.0 L 671.0,484.0 L 756.0,579.0 L 783.0,600.0 L 803.0,606.0 L 874.0,624.0 L 982.0,641.0"/>
    <path d="M 423.0,604.0 L 446.0,629.0 L 457.0,646.0 L 455.0,652.0 L 389.0,774.0 L 316.0,877.0 L 303.0,916.0 L 347.0,921.0 L 439.0,897.0 L 608.0,865.0 L 639.0,873.0"/>
    <path d="M 582.0,748.0 L 662.0,833.0 L 706.0,892.0 L 724.0,943.0 L 723.0,967.0"/>
  </g>
</svg>
