<svg xmlns="http://www.w3.org/2000/svg" viewBox="0 0 1024 1024">
  <g style="fill:none;stroke:#000000;stroke-width:50;stroke-linecap:round;stroke-linejoin:round;" transform="scale(1, 1) translate(0, 0)">
    <path d="M 311.0,310.0 L 344.0,318.0 L 402.0,319.0 L 644.0,276.0 L 695.0,281.0"/>
    <path d="M 134.0,533.0 L 168.0,573.0 L 176.0,598.0 L 180.0,882.0 L 192.0,940.0"/>
    <path d="M 201.0,559.0 L 218.0,570.0 L 534.0,514.0 L 784.0,488.0 L 802.0,489.0 L 828.0,505.0 L 844.0,523.0 L 834.0,721.0 L 825.0,822.0 L 807.0,916.0 L 789.0,949.0 L 773.0,962.0 L 737.0,949.0 L 660.0,901.0"/>
    <path d="M 439.0,340.0 L 482.0,371.0 L 479.0,908.0"/>
    <path d="M 321.0,705.0 L 327.0,729.0 L 310.0,759.0 L 283.0,788.0 L 240.0,817.0"/>
    <path d="M 262.0,641.0 L 383.0,721.0 L 401.0,741.0 L 412.0,765.0"/>
    <path d="M 616.0,673.0 L 623.0,701.0 L 609.0,721.0 L 573.0,757.0 L 534.0,781.0"/>
    <path d="M 556.0,598.0 L 700.0,706.0 L 729.0,741.0 L 740.0,766.0"/>
  </g>
</svg>
