<svg xmlns="http://www.w3.org/2000/svg" viewBox="0 0 1024 1024">
  <g style="fill:none;stroke:#000000;stroke-width:50;stroke-linecap:round;stroke-linejoin:round;" transform="scale(1, 1) translate(0, 0)">
    <path d="M 221.0,299.0 L 253.0,334.0 L 260.0,357.0 L 262.0,437.0 L 246.0,730.0 L 214.0,916.0 L 211.0,981.0"/>
    <path d="M 287.0,319.0 L 300.0,330.0 L 318.0,331.0 L 704.0,263.0 L 725.0,263.0 L 746.0,273.0 L 776.0,305.0 L 774.0,395.0 L 790.0,865.0 L 783.0,948.0 L 766.0,981.0 L 732.0,973.0 L 647.0,937.0"/>
    <path d="M 415.0,385.0 L 431.0,413.0 L 405.0,468.0 L 359.0,522.0 L 318.0,551.0"/>
    <path d="M 516.0,336.0 L 547.0,373.0 L 542.0,464.0 L 560.0,493.0 L 579.0,503.0 L 617.0,510.0 L 657.0,506.0 L 694.0,494.0 L 736.0,499.0"/>
    <path d="M 360.0,619.0 L 380.0,636.0 L 393.0,662.0 L 424.0,814.0"/>
    <path d="M 400.0,619.0 L 424.0,628.0 L 559.0,595.0 L 590.0,604.0 L 611.0,625.0 L 585.0,700.0 L 563.0,716.0"/>
    <path d="M 441.0,778.0 L 451.0,765.0 L 558.0,743.0 L 593.0,742.0 L 618.0,749.0"/>
  </g>
</svg>
