<svg xmlns="http://www.w3.org/2000/svg" viewBox="0 0 1024 1024">
  <g style="fill:none;stroke:#000000;stroke-width:50;stroke-linecap:round;stroke-linejoin:round;" transform="scale(1, 1) translate(0, 0)">
    <path d="M 222.0,297.0 L 254.0,331.0 L 262.0,360.0 L 262.0,436.0 L 249.0,703.0 L 234.0,829.0 L 214.0,916.0 L 212.0,982.0"/>
    <path d="M 288.0,317.0 L 301.0,328.0 L 320.0,328.0 L 716.0,260.0 L 743.0,266.0 L 779.0,303.0 L 792.0,799.0 L 789.0,935.0 L 768.0,980.0 L 734.0,973.0 L 651.0,937.0"/>
    <path d="M 363.0,527.0 L 385.0,546.0 L 395.0,564.0 L 429.0,723.0"/>
    <path d="M 405.0,528.0 L 430.0,537.0 L 555.0,505.0 L 574.0,504.0 L 596.0,512.0 L 617.0,534.0 L 591.0,609.0 L 570.0,621.0"/>
    <path d="M 444.0,664.0 L 455.0,674.0 L 565.0,653.0 L 606.0,652.0 L 623.0,658.0"/>
  </g>
</svg>
