<svg xmlns="http://www.w3.org/2000/svg" viewBox="0 0 1024 1024">
  <g style="fill:none;stroke:#000000;stroke-width:50;stroke-linecap:round;stroke-linejoin:round;" transform="scale(1, 1) translate(0, 0)">
    <path d="M 233.0,307.0 L 269.0,331.0 L 279.0,356.0 L 335.0,565.0"/>
    <path d="M 300.0,311.0 L 319.0,321.0 L 503.0,288.0 L 675.0,265.0 L 739.0,264.0 L 761.0,271.0 L 791.0,313.0 L 761.0,374.0 L 725.0,474.0 L 708.0,509.0 L 698.0,509.0"/>
    <path d="M 387.0,414.0 L 428.0,419.0 L 551.0,395.0 L 597.0,390.0 L 632.0,394.0"/>
    <path d="M 462.0,161.0 L 510.0,199.0 L 509.0,469.0 L 492.0,493.0"/>
    <path d="M 354.0,548.0 L 371.0,535.0 L 386.0,532.0 L 578.0,500.0 L 666.0,493.0 L 684.0,483.0"/>
    <path d="M 323.0,629.0 L 351.0,655.0 L 357.0,727.0 L 341.0,916.0 L 325.0,981.0 L 319.0,1043.0"/>
    <path d="M 382.0,644.0 L 411.0,648.0 L 628.0,599.0 L 651.0,608.0 L 675.0,630.0 L 671.0,706.0 L 685.0,953.0 L 679.0,1013.0 L 667.0,1036.0 L 649.0,1051.0 L 613.0,1038.0 L 558.0,1006.0"/>
    <path d="M 380.0,759.0 L 405.0,749.0 L 497.0,734.0 L 545.0,727.0 L 572.0,730.0"/>
    <path d="M 374.0,863.0 L 386.0,856.0 L 446.0,852.0 L 531.0,836.0 L 579.0,839.0"/>
  </g>
</svg>
