<svg xmlns="http://www.w3.org/2000/svg" viewBox="0 0 1024 1024">
  <g style="fill:none;stroke:#000000;stroke-width:50;stroke-linecap:round;stroke-linejoin:round;" transform="scale(1, 1) translate(0, 0)">
    <path d="M 252.0,205.0 L 259.0,234.0 L 256.0,247.0 L 217.0,322.0 L 213.0,368.0"/>
    <path d="M 283.0,235.0 L 298.0,245.0 L 322.0,245.0 L 533.0,206.0 L 710.0,187.0 L 754.0,197.0 L 775.0,228.0 L 702.0,296.0"/>
    <path d="M 130.0,433.0 L 177.0,442.0 L 433.0,390.0 L 703.0,346.0 L 789.0,346.0"/>
    <path d="M 191.0,469.0 L 224.0,487.0 L 227.0,514.0 L 227.0,811.0 L 210.0,842.0"/>
    <path d="M 380.0,427.0 L 410.0,447.0 L 419.0,464.0 L 419.0,834.0 L 409.0,967.0 L 425.0,1057.0"/>
    <path d="M 261.0,592.0 L 275.0,574.0 L 321.0,567.0 L 357.0,572.0"/>
    <path d="M 257.0,713.0 L 276.0,693.0 L 322.0,685.0 L 356.0,688.0"/>
    <path d="M 77.0,895.0 L 91.0,903.0 L 140.0,911.0 L 520.0,738.0"/>
    <path d="M 499.0,517.0 L 528.0,519.0 L 579.0,510.0 L 699.0,466.0 L 736.0,464.0 L 762.0,472.0 L 749.0,568.0 L 725.0,661.0 L 702.0,726.0 L 669.0,793.0 L 631.0,846.0 L 586.0,890.0 L 522.0,927.0 L 480.0,936.0"/>
    <path d="M 513.0,592.0 L 557.0,620.0 L 689.0,792.0 L 783.0,883.0 L 832.0,914.0 L 991.0,944.0"/>
  </g>
</svg>
