<svg xmlns="http://www.w3.org/2000/svg" viewBox="0 0 1024 1024">
  <g style="fill:none;stroke:#000000;stroke-width:50;stroke-linecap:round;stroke-linejoin:round;" transform="scale(1, 1) translate(0, 0)">
    <path d="M 442.0,173.0 L 469.0,215.0 L 407.0,336.0 L 322.0,435.0 L 232.0,501.0"/>
    <path d="M 420.0,364.0 L 480.0,356.0 L 584.0,324.0 L 629.0,330.0 L 639.0,342.0 L 604.0,410.0 L 541.0,499.0 L 469.0,579.0 L 400.0,639.0 L 340.0,681.0 L 263.0,723.0 L 182.0,755.0 L 90.0,774.0"/>
    <path d="M 318.0,464.0 L 349.0,468.0 L 381.0,483.0 L 599.0,649.0 L 677.0,696.0 L 735.0,723.0 L 761.0,732.0 L 790.0,733.0 L 979.0,724.0"/>
    <path d="M 416.0,734.0 L 538.0,789.0 L 571.0,827.0"/>
    <path d="M 398.0,901.0 L 535.0,990.0 L 561.0,1016.0 L 586.0,1057.0"/>
  </g>
</svg>
