<svg xmlns="http://www.w3.org/2000/svg" viewBox="0 0 1024 1024">
  <g style="fill:none;stroke:#000000;stroke-width:50;stroke-linecap:round;stroke-linejoin:round;" transform="scale(1, 1) translate(0, 0)">
    <path d="M 292.0,262.0 L 300.0,279.0 L 298.0,304.0 L 291.0,327.0 L 245.0,402.0 L 239.0,454.0"/>
    <path d="M 322.0,320.0 L 346.0,306.0 L 549.0,274.0 L 697.0,256.0 L 736.0,258.0 L 767.0,276.0 L 777.0,299.0 L 706.0,380.0"/>
    <path d="M 330.0,426.0 L 356.0,447.0 L 365.0,464.0 L 408.0,646.0"/>
    <path d="M 381.0,426.0 L 406.0,435.0 L 465.0,420.0 L 585.0,403.0 L 625.0,403.0 L 648.0,412.0 L 670.0,441.0 L 668.0,450.0 L 620.0,601.0 L 611.0,617.0 L 589.0,617.0"/>
    <path d="M 414.0,542.0 L 440.0,529.0 L 514.0,516.0 L 559.0,521.0"/>
    <path d="M 424.0,629.0 L 437.0,617.0 L 584.0,596.0"/>
    <path d="M 456.0,657.0 L 516.0,695.0 L 538.0,726.0"/>
    <path d="M 152.0,778.0 L 212.0,796.0 L 478.0,760.0 L 809.0,735.0 L 848.0,743.0 L 893.0,762.0"/>
    <path d="M 436.0,864.0 L 400.0,870.0 L 336.0,940.0 L 256.0,998.0 L 219.0,1015.0"/>
    <path d="M 594.0,833.0 L 721.0,936.0 L 746.0,973.0 L 757.0,1011.0"/>
  </g>
</svg>
