<svg xmlns="http://www.w3.org/2000/svg" viewBox="0 0 1024 1024">
  <g style="fill:none;stroke:#000000;stroke-width:50;stroke-linecap:round;stroke-linejoin:round;" transform="scale(1, 1) translate(0, 0)">
    <path d="M 257.0,256.0 L 267.0,289.0 L 258.0,322.0 L 215.0,402.0 L 214.0,449.0"/>
    <path d="M 293.0,314.0 L 304.0,306.0 L 389.0,288.0 L 521.0,266.0 L 713.0,247.0 L 744.0,266.0 L 754.0,286.0 L 686.0,375.0"/>
    <path d="M 429.0,304.0 L 451.0,322.0 L 431.0,368.0 L 365.0,455.0 L 301.0,512.0"/>
    <path d="M 435.0,400.0 L 535.0,377.0 L 571.0,381.0 L 584.0,392.0 L 519.0,491.0 L 500.0,503.0"/>
    <path d="M 244.0,555.0 L 267.0,571.0 L 281.0,593.0 L 323.0,738.0"/>
    <path d="M 288.0,554.0 L 311.0,563.0 L 578.0,511.0 L 661.0,501.0 L 701.0,506.0 L 728.0,541.0 L 668.0,691.0"/>
    <path d="M 337.0,719.0 L 356.0,709.0 L 410.0,706.0 L 501.0,685.0 L 627.0,671.0 L 649.0,662.0"/>
    <path d="M 450.0,556.0 L 479.0,575.0 L 481.0,595.0 L 440.0,743.0 L 388.0,846.0 L 357.0,886.0 L 290.0,951.0 L 231.0,988.0 L 162.0,1016.0"/>
    <path d="M 499.0,739.0 L 524.0,768.0 L 519.0,895.0 L 527.0,942.0 L 536.0,962.0 L 560.0,985.0 L 620.0,1008.0 L 670.0,1015.0 L 763.0,1013.0 L 805.0,1003.0 L 855.0,979.0 L 881.0,954.0 L 877.0,832.0"/>
    <path d="M 637.0,762.0 L 714.0,809.0 L 739.0,846.0"/>
  </g>
</svg>
