<svg xmlns="http://www.w3.org/2000/svg" viewBox="0 0 1024 1024">
  <g style="fill:none;stroke:#000000;stroke-width:50;stroke-linecap:round;stroke-linejoin:round;" transform="scale(1, 1) translate(0, 0)">
    <path d="M 186.0,281.0 L 271.0,337.0 L 290.0,357.0 L 306.0,390.0"/>
    <path d="M 171.0,961.0 L 159.0,930.0 L 158.0,872.0 L 312.0,598.0"/>
    <path d="M 366.0,470.0 L 397.0,494.0 L 409.0,522.0 L 448.0,708.0"/>
    <path d="M 426.0,474.0 L 444.0,484.0 L 776.0,431.0 L 810.0,432.0 L 830.0,451.0 L 844.0,476.0 L 802.0,580.0 L 778.0,597.0 L 765.0,599.0"/>
    <path d="M 467.0,686.0 L 485.0,671.0 L 739.0,636.0 L 821.0,634.0 L 846.0,643.0"/>
    <path d="M 560.0,221.0 L 588.0,229.0 L 625.0,264.0 L 616.0,435.0 L 611.0,1057.0"/>
  </g>
</svg>
