<svg xmlns="http://www.w3.org/2000/svg" viewBox="0 0 1024 1024">
  <g style="fill:none;stroke:#000000;stroke-width:50;stroke-linecap:round;stroke-linejoin:round;" transform="scale(1, 1) translate(0, 0)">
    <path d="M 195.0,322.0 L 296.0,385.0 L 316.0,420.0"/>
    <path d="M 172.0,910.0 L 162.0,866.0 L 166.0,825.0 L 203.0,775.0 L 323.0,580.0"/>
    <path d="M 523.0,208.0 L 630.0,266.0 L 663.0,309.0"/>
    <path d="M 369.0,447.0 L 419.0,452.0 L 540.0,425.0 L 809.0,380.0 L 852.0,383.0 L 890.0,394.0"/>
    <path d="M 418.0,550.0 L 449.0,575.0 L 454.0,587.0 L 491.0,733.0"/>
    <path d="M 477.0,551.0 L 490.0,561.0 L 680.0,518.0 L 707.0,523.0 L 736.0,551.0 L 706.0,623.0 L 677.0,639.0"/>
    <path d="M 506.0,707.0 L 518.0,694.0 L 664.0,667.0 L 713.0,667.0 L 734.0,673.0"/>
    <path d="M 576.0,705.0 L 604.0,728.0 L 609.0,751.0 L 607.0,913.0 L 600.0,963.0 L 581.0,993.0 L 536.0,976.0 L 484.0,946.0"/>
    <path d="M 418.0,787.0 L 397.0,862.0 L 369.0,909.0 L 358.0,941.0"/>
    <path d="M 721.0,765.0 L 787.0,814.0 L 839.0,862.0 L 859.0,892.0 L 869.0,931.0"/>
  </g>
</svg>
