<svg xmlns="http://www.w3.org/2000/svg" viewBox="0 0 1024 1024">
  <g style="fill:none;stroke:#000000;stroke-width:50;stroke-linecap:round;stroke-linejoin:round;" transform="scale(1, 1) translate(0, 0)">
    <path d="M 159.0,337.0 L 249.0,386.0 L 273.0,419.0"/>
    <path d="M 141.0,898.0 L 130.0,851.0 L 209.0,727.0 L 292.0,577.0"/>
    <path d="M 756.0,215.0 L 684.0,195.0 L 608.0,233.0 L 520.0,265.0 L 370.0,302.0"/>
    <path d="M 382.0,354.0 L 430.0,395.0 L 443.0,431.0"/>
    <path d="M 519.0,319.0 L 563.0,363.0 L 575.0,386.0"/>
    <path d="M 727.0,276.0 L 750.0,310.0 L 667.0,410.0 L 624.0,448.0"/>
    <path d="M 369.0,515.0 L 424.0,516.0 L 608.0,477.0 L 692.0,452.0 L 738.0,453.0 L 773.0,484.0 L 730.0,648.0 L 707.0,663.0"/>
    <path d="M 326.0,640.0 L 380.0,644.0 L 520.0,612.0 L 845.0,557.0 L 905.0,559.0 L 941.0,569.0"/>
    <path d="M 386.0,742.0 L 407.0,748.0 L 703.0,695.0 L 746.0,695.0 L 770.0,703.0"/>
    <path d="M 544.0,517.0 L 572.0,530.0 L 584.0,549.0 L 579.0,694.0 L 582.0,939.0 L 574.0,985.0 L 562.0,1010.0 L 553.0,1020.0 L 545.0,1019.0 L 500.0,999.0 L 440.0,958.0"/>
  </g>
</svg>
