<svg xmlns="http://www.w3.org/2000/svg" viewBox="0 0 1024 1024">
  <g style="fill:none;stroke:#000000;stroke-width:50;stroke-linecap:round;stroke-linejoin:round;" transform="scale(1, 1) translate(0, 0)">
    <path d="M 173.0,345.0 L 261.0,407.0 L 282.0,446.0"/>
    <path d="M 183.0,950.0 L 164.0,901.0 L 221.0,789.0 L 293.0,611.0"/>
    <path d="M 504.0,185.0 L 522.0,198.0 L 543.0,229.0 L 506.0,320.0 L 469.0,391.0 L 392.0,512.0 L 326.0,590.0"/>
    <path d="M 441.0,485.0 L 444.0,520.0 L 456.0,539.0 L 460.0,583.0 L 453.0,820.0 L 437.0,969.0 L 444.0,1031.0"/>
    <path d="M 621.0,263.0 L 699.0,309.0 L 727.0,347.0"/>
    <path d="M 537.0,469.0 L 598.0,472.0 L 701.0,452.0 L 798.0,424.0 L 841.0,429.0"/>
    <path d="M 561.0,627.0 L 591.0,626.0 L 750.0,587.0 L 798.0,592.0"/>
    <path d="M 550.0,752.0 L 596.0,749.0 L 745.0,715.0 L 788.0,712.0 L 814.0,719.0"/>
    <path d="M 650.0,493.0 L 679.0,513.0 L 680.0,537.0 L 674.0,848.0 L 657.0,870.0"/>
    <path d="M 487.0,910.0 L 495.0,918.0 L 521.0,917.0 L 829.0,877.0 L 864.0,878.0 L 920.0,892.0"/>
  </g>
</svg>
