<svg xmlns="http://www.w3.org/2000/svg" viewBox="0 0 1024 1024">
  <g style="fill:none;stroke:#000000;stroke-width:50;stroke-linecap:round;stroke-linejoin:round;" transform="scale(1, 1) translate(0, 0)">
    <path d="M 181.0,325.0 L 269.0,401.0 L 286.0,439.0"/>
    <path d="M 174.0,967.0 L 159.0,929.0 L 156.0,889.0 L 182.0,843.0 L 282.0,617.0"/>
    <path d="M 410.0,503.0 L 425.0,510.0 L 460.0,508.0 L 679.0,445.0 L 725.0,442.0"/>
    <path d="M 347.0,483.0 L 378.0,522.0 L 367.0,656.0 L 351.0,741.0 L 330.0,808.0 L 297.0,882.0 L 259.0,942.0 L 232.0,971.0"/>
    <path d="M 416.0,632.0 L 462.0,631.0 L 533.0,603.0 L 578.0,596.0"/>
    <path d="M 382.0,737.0 L 404.0,770.0 L 425.0,919.0"/>
    <path d="M 417.0,738.0 L 431.0,746.0 L 525.0,719.0 L 545.0,731.0 L 553.0,741.0 L 543.0,792.0 L 539.0,804.0 L 520.0,821.0"/>
    <path d="M 445.0,879.0 L 461.0,862.0 L 515.0,847.0 L 550.0,843.0 L 573.0,848.0"/>
    <path d="M 527.0,213.0 L 562.0,227.0 L 589.0,253.0 L 609.0,439.0 L 631.0,546.0 L 683.0,722.0 L 736.0,836.0 L 811.0,935.0 L 857.0,971.0 L 897.0,984.0 L 909.0,958.0 L 927.0,842.0 L 923.0,833.0"/>
    <path d="M 764.0,547.0 L 791.0,582.0 L 779.0,645.0 L 745.0,738.0 L 686.0,834.0 L 613.0,907.0 L 573.0,935.0"/>
    <path d="M 705.0,293.0 L 791.0,346.0 L 809.0,366.0"/>
  </g>
</svg>
