<svg xmlns="http://www.w3.org/2000/svg" viewBox="0 0 1024 1024">
  <g style="fill:none;stroke:#000000;stroke-width:50;stroke-linecap:round;stroke-linejoin:round;" transform="scale(1, 1) translate(0, 0)">
    <path d="M 137.0,318.0 L 212.0,379.0 L 227.0,404.0"/>
    <path d="M 151.0,878.0 L 138.0,828.0 L 159.0,801.0 L 269.0,601.0"/>
    <path d="M 505.0,167.0 L 576.0,197.0 L 605.0,230.0"/>
    <path d="M 328.0,328.0 L 373.0,333.0 L 547.0,293.0 L 782.0,254.0 L 855.0,266.0"/>
    <path d="M 340.0,412.0 L 361.0,426.0 L 377.0,447.0 L 435.0,631.0"/>
    <path d="M 377.0,406.0 L 405.0,414.0 L 699.0,351.0 L 750.0,359.0 L 776.0,390.0 L 722.0,567.0 L 716.0,579.0 L 693.0,584.0"/>
    <path d="M 463.0,452.0 L 484.0,462.0 L 490.0,472.0 L 516.0,545.0"/>
    <path d="M 502.0,448.0 L 512.0,454.0 L 592.0,433.0 L 621.0,432.0 L 638.0,450.0 L 627.0,478.0 L 611.0,486.0"/>
    <path d="M 527.0,530.0 L 542.0,519.0 L 600.0,506.0 L 640.0,509.0"/>
    <path d="M 452.0,620.0 L 484.0,606.0 L 664.0,568.0 L 683.0,557.0"/>
    <path d="M 684.0,661.0 L 433.0,717.0"/>
    <path d="M 320.0,804.0 L 364.0,810.0 L 515.0,779.0 L 770.0,740.0 L 840.0,754.0"/>
    <path d="M 546.0,706.0 L 563.0,718.0 L 574.0,738.0 L 563.0,1005.0 L 573.0,1088.0"/>
    <path d="M 542.0,798.0 L 483.0,873.0 L 435.0,918.0 L 341.0,982.0 L 261.0,1017.0"/>
    <path d="M 602.0,792.0 L 610.0,809.0 L 669.0,861.0 L 787.0,944.0 L 863.0,957.0 L 965.0,963.0"/>
  </g>
</svg>
