<svg xmlns="http://www.w3.org/2000/svg" viewBox="0 0 1024 1024">
  <g style="fill:none;stroke:#000000;stroke-width:50;stroke-linecap:round;stroke-linejoin:round;" transform="scale(1, 1) translate(0, 0)">
    <path d="M 322.0,316.0 L 344.0,327.0 L 363.0,347.0 L 370.0,399.0 L 363.0,597.0 L 335.0,709.0 L 286.0,810.0 L 246.0,864.0 L 208.0,906.0 L 117.0,976.0"/>
    <path d="M 401.0,319.0 L 422.0,331.0 L 517.0,304.0 L 574.0,279.0 L 604.0,274.0 L 632.0,292.0 L 639.0,304.0 L 620.0,386.0 L 607.0,483.0 L 591.0,710.0 L 596.0,834.0 L 611.0,887.0 L 628.0,906.0 L 675.0,932.0 L 758.0,949.0 L 833.0,946.0 L 885.0,933.0 L 930.0,906.0 L 953.0,764.0"/>
    <path d="M 400.0,568.0 L 408.0,579.0 L 480.0,626.0 L 503.0,660.0"/>
  </g>
</svg>
