<svg xmlns="http://www.w3.org/2000/svg" viewBox="0 0 1024 1024">
  <g style="fill:none;stroke:#000000;stroke-width:50;stroke-linecap:round;stroke-linejoin:round;" transform="scale(1, 1) translate(0, 0)">
    <path d="M 237.0,360.0 L 275.0,395.0 L 280.0,436.0 L 280.0,548.0 L 266.0,690.0 L 248.0,773.0 L 216.0,866.0 L 180.0,937.0 L 136.0,1001.0"/>
    <path d="M 322.0,403.0 L 331.0,389.0 L 347.0,383.0 L 506.0,344.0 L 657.0,313.0 L 703.0,319.0 L 716.0,338.0 L 699.0,410.0 L 688.0,511.0 L 688.0,637.0 L 705.0,745.0 L 741.0,845.0 L 772.0,895.0 L 804.0,930.0 L 859.0,965.0 L 886.0,971.0 L 908.0,939.0 L 934.0,795.0"/>
    <path d="M 365.0,561.0 L 412.0,559.0 L 530.0,526.0 L 550.0,534.0 L 564.0,551.0 L 551.0,622.0 L 532.0,682.0 L 509.0,733.0 L 475.0,783.0 L 439.0,817.0 L 400.0,840.0 L 280.0,878.0"/>
    <path d="M 371.0,658.0 L 590.0,838.0 L 632.0,887.0 L 645.0,923.0"/>
  </g>
</svg>
