<svg xmlns="http://www.w3.org/2000/svg" viewBox="0 0 1024 1024">
  <g style="fill:none;stroke:#000000;stroke-width:50;stroke-linecap:round;stroke-linejoin:round;" transform="scale(1, 1) translate(0, 0)">
    <path d="M 451.0,191.0 L 467.0,225.0 L 404.0,295.0 L 372.0,320.0"/>
    <path d="M 386.0,367.0 L 397.0,348.0 L 487.0,327.0 L 578.0,309.0 L 614.0,310.0 L 631.0,317.0 L 642.0,329.0 L 641.0,350.0 L 624.0,448.0 L 606.0,497.0 L 589.0,516.0 L 511.0,483.0"/>
    <path d="M 416.0,412.0 L 452.0,435.0 L 469.0,459.0"/>
    <path d="M 321.0,322.0 L 349.0,357.0 L 340.0,582.0 L 346.0,621.0 L 398.0,619.0 L 479.0,602.0 L 747.0,571.0 L 767.0,579.0 L 786.0,598.0 L 791.0,606.0 L 788.0,622.0 L 759.0,731.0 L 743.0,773.0 L 724.0,796.0 L 709.0,805.0 L 619.0,753.0"/>
    <path d="M 300.0,711.0 L 321.0,724.0 L 335.0,746.0 L 326.0,832.0 L 304.0,904.0 L 277.0,950.0 L 238.0,993.0 L 169.0,1035.0"/>
    <path d="M 373.0,724.0 L 385.0,733.0 L 487.0,704.0 L 510.0,704.0 L 532.0,720.0 L 534.0,737.0 L 513.0,809.0 L 509.0,845.0 L 515.0,921.0 L 538.0,973.0 L 561.0,994.0 L 608.0,1016.0 L 691.0,1028.0 L 749.0,1027.0 L 803.0,1019.0 L 864.0,992.0 L 874.0,983.0 L 876.0,859.0 L 882.0,839.0"/>
  </g>
</svg>
