<svg xmlns="http://www.w3.org/2000/svg" viewBox="0 0 1024 1024">
  <g style="fill:none;stroke:#000000;stroke-width:50;stroke-linecap:round;stroke-linejoin:round;" transform="scale(1, 1) translate(0, 0)">
    <path d="M 284.0,232.0 L 319.0,268.0 L 310.0,417.0 L 293.0,430.0"/>
    <path d="M 159.0,350.0 L 187.0,389.0 L 181.0,487.0 L 226.0,484.0 L 286.0,461.0 L 391.0,436.0 L 404.0,422.0"/>
    <path d="M 439.0,276.0 L 465.0,320.0 L 424.0,487.0"/>
    <path d="M 181.0,611.0 L 238.0,607.0 L 359.0,567.0 L 399.0,564.0 L 429.0,591.0 L 409.0,654.0 L 384.0,667.0"/>
    <path d="M 228.0,730.0 L 250.0,738.0 L 380.0,700.0 L 440.0,701.0"/>
    <path d="M 174.0,719.0 L 192.0,731.0 L 209.0,764.0 L 210.0,836.0 L 203.0,889.0 L 211.0,937.0 L 251.0,925.0 L 417.0,803.0"/>
    <path d="M 521.0,428.0 L 547.0,448.0 L 563.0,472.0 L 561.0,620.0 L 541.0,744.0 L 513.0,827.0 L 476.0,893.0 L 421.0,953.0 L 369.0,987.0"/>
    <path d="M 595.0,447.0 L 610.0,450.0 L 683.0,421.0 L 717.0,420.0 L 736.0,431.0 L 704.0,638.0 L 706.0,768.0 L 719.0,838.0 L 735.0,881.0 L 763.0,926.0 L 808.0,963.0 L 841.0,975.0 L 881.0,978.0 L 920.0,963.0 L 915.0,767.0"/>
  </g>
</svg>
