<svg xmlns="http://www.w3.org/2000/svg" viewBox="0 0 1024 1024">
  <g style="fill:none;stroke:#000000;stroke-width:50;stroke-linecap:round;stroke-linejoin:round;" transform="scale(1, 1) translate(0, 0)">
    <path d="M 482.0,291.0 L 499.0,296.0 L 519.0,312.0 L 533.0,332.0 L 525.0,772.0 L 508.0,813.0 L 412.0,776.0"/>
    <path d="M 238.0,550.0 L 292.0,558.0 L 388.0,534.0 L 420.0,538.0 L 436.0,548.0 L 423.0,598.0 L 369.0,698.0 L 303.0,769.0 L 267.0,795.0"/>
    <path d="M 673.0,433.0 L 689.0,467.0 L 609.0,545.0 L 578.0,566.0 L 579.0,574.0"/>
    <path d="M 558.0,571.0 L 567.0,597.0 L 585.0,619.0 L 680.0,716.0 L 792.0,741.0"/>
    <path d="M 174.0,643.0 L 212.0,684.0 L 219.0,714.0 L 223.0,790.0 L 209.0,919.0 L 213.0,942.0 L 249.0,944.0 L 430.0,912.0 L 648.0,892.0 L 766.0,891.0 L 790.0,909.0"/>
    <path d="M 798.0,570.0 L 815.0,582.0 L 845.0,620.0 L 824.0,967.0"/>
  </g>
</svg>
