<svg xmlns="http://www.w3.org/2000/svg" viewBox="0 0 1024 1024">
  <g style="fill:none;stroke:#000000;stroke-width:50;stroke-linecap:round;stroke-linejoin:round;" transform="scale(1, 1) translate(0, 0)">
    <path d="M 337.0,273.0 L 365.0,300.0 L 380.0,326.0 L 390.0,580.0 L 392.0,599.0 L 406.0,606.0"/>
    <path d="M 231.0,652.0 L 250.0,663.0 L 367.0,639.0 L 435.0,640.0"/>
    <path d="M 158.0,634.0 L 199.0,668.0 L 210.0,696.0 L 250.0,916.0 L 270.0,972.0"/>
    <path d="M 396.0,281.0 L 424.0,295.0 L 587.0,257.0 L 616.0,258.0 L 638.0,282.0 L 621.0,385.0 L 607.0,609.0 L 641.0,617.0 L 746.0,601.0 L 802.0,602.0 L 822.0,612.0 L 846.0,643.0 L 832.0,696.0 L 808.0,857.0 L 769.0,986.0"/>
    <path d="M 287.0,929.0 L 307.0,942.0 L 732.0,905.0"/>
  </g>
</svg>
