<svg xmlns="http://www.w3.org/2000/svg" viewBox="0 0 1024 1024">
  <g style="fill:none;stroke:#000000;stroke-width:50;stroke-linecap:round;stroke-linejoin:round;" transform="scale(1, 1) translate(0, 0)">
    <path d="M 408.0,239.0 L 436.0,264.0 L 445.0,284.0 L 455.0,443.0 L 443.0,449.0"/>
    <path d="M 559.0,204.0 L 592.0,241.0 L 570.0,406.0 L 561.0,433.0 L 550.0,440.0"/>
    <path d="M 276.0,330.0 L 345.0,379.0 L 363.0,412.0"/>
    <path d="M 777.0,308.0 L 742.0,296.0 L 646.0,382.0"/>
    <path d="M 162.0,503.0 L 219.0,512.0 L 492.0,469.0 L 792.0,439.0 L 875.0,458.0"/>
    <path d="M 375.0,538.0 L 418.0,583.0 L 430.0,608.0"/>
    <path d="M 602.0,481.0 L 622.0,510.0 L 582.0,591.0 L 563.0,615.0 L 552.0,620.0"/>
    <path d="M 347.0,664.0 L 391.0,670.0 L 595.0,635.0 L 641.0,631.0 L 671.0,636.0"/>
    <path d="M 379.0,791.0 L 426.0,797.0 L 588.0,766.0 L 647.0,770.0"/>
    <path d="M 483.0,676.0 L 512.0,702.0 L 508.0,879.0 L 496.0,898.0"/>
    <path d="M 216.0,735.0 L 255.0,782.0 L 258.0,861.0 L 249.0,938.0 L 252.0,964.0 L 288.0,965.0 L 381.0,941.0 L 536.0,914.0 L 727.0,895.0 L 745.0,880.0"/>
    <path d="M 758.0,695.0 L 793.0,739.0 L 771.0,927.0 L 770.0,985.0"/>
  </g>
</svg>
