<svg xmlns="http://www.w3.org/2000/svg" viewBox="0 0 1024 1024">
  <g style="fill:none;stroke:#000000;stroke-width:50;stroke-linecap:round;stroke-linejoin:round;" transform="scale(1, 1) translate(0, 0)">
    <path d="M 250.0,233.0 L 266.0,245.0 L 287.0,276.0 L 279.0,296.0 L 217.0,421.0 L 166.0,504.0 L 91.0,593.0"/>
    <path d="M 194.0,503.0 L 212.0,495.0 L 473.0,450.0 L 497.0,458.0 L 522.0,484.0 L 492.0,740.0 L 469.0,841.0 L 439.0,912.0 L 417.0,943.0 L 381.0,967.0 L 308.0,919.0 L 305.0,909.0 L 293.0,909.0"/>
    <path d="M 254.0,509.0 L 276.0,533.0 L 245.0,597.0 L 182.0,685.0 L 135.0,732.0 L 106.0,751.0"/>
    <path d="M 372.0,491.0 L 392.0,509.0 L 396.0,525.0 L 355.0,622.0 L 304.0,717.0 L 262.0,778.0 L 210.0,836.0 L 112.0,907.0"/>
    <path d="M 611.0,436.0 L 639.0,468.0 L 640.0,478.0 L 636.0,701.0 L 641.0,745.0"/>
    <path d="M 772.0,223.0 L 822.0,264.0 L 817.0,586.0 L 826.0,911.0 L 819.0,944.0 L 803.0,975.0 L 760.0,958.0 L 678.0,909.0"/>
  </g>
</svg>
