<svg xmlns="http://www.w3.org/2000/svg" viewBox="0 0 1024 1024">
  <g style="fill:none;stroke:#000000;stroke-width:50;stroke-linecap:round;stroke-linejoin:round;" transform="scale(1, 1) translate(0, 0)">
    <path d="M 197.0,353.0 L 220.0,359.0 L 273.0,356.0 L 434.0,313.0 L 504.0,308.0"/>
    <path d="M 70.0,608.0 L 135.0,616.0 L 451.0,539.0 L 486.0,534.0 L 530.0,538.0"/>
    <path d="M 312.0,380.0 L 343.0,401.0 L 351.0,416.0 L 351.0,437.0 L 330.0,760.0 L 321.0,832.0 L 298.0,933.0 L 295.0,991.0"/>
    <path d="M 590.0,414.0 L 618.0,446.0 L 621.0,580.0 L 613.0,696.0 L 617.0,752.0"/>
    <path d="M 754.0,220.0 L 776.0,232.0 L 810.0,266.0 L 805.0,530.0 L 815.0,909.0 L 810.0,939.0 L 793.0,976.0 L 756.0,964.0 L 669.0,920.0"/>
  </g>
</svg>
