<svg xmlns="http://www.w3.org/2000/svg" viewBox="0 0 1024 1024">
  <g style="fill:none;stroke:#000000;stroke-width:50;stroke-linecap:round;stroke-linejoin:round;" transform="scale(1, 1) translate(0, 0)">
    <path d="M 205.0,302.0 L 241.0,339.0 L 242.0,519.0 L 234.0,619.0 L 219.0,696.0 L 190.0,791.0 L 164.0,852.0 L 106.0,948.0"/>
    <path d="M 264.0,307.0 L 279.0,312.0 L 324.0,300.0 L 353.0,325.0 L 350.0,502.0 L 339.0,802.0 L 320.0,829.0 L 255.0,785.0"/>
    <path d="M 421.0,299.0 L 448.0,318.0 L 458.0,338.0 L 465.0,439.0 L 459.0,606.0 L 444.0,690.0 L 423.0,764.0 L 373.0,878.0 L 345.0,919.0"/>
    <path d="M 476.0,300.0 L 495.0,306.0 L 541.0,288.0 L 557.0,293.0 L 578.0,315.0 L 583.0,674.0 L 583.0,833.0 L 577.0,875.0 L 564.0,895.0 L 482.0,859.0"/>
    <path d="M 97.0,615.0 L 160.0,624.0 L 524.0,553.0 L 614.0,541.0 L 642.0,548.0"/>
    <path d="M 672.0,397.0 L 695.0,424.0 L 698.0,438.0 L 690.0,713.0"/>
    <path d="M 777.0,227.0 L 794.0,235.0 L 826.0,266.0 L 820.0,697.0 L 826.0,911.0 L 820.0,942.0 L 805.0,971.0 L 746.0,949.0 L 710.0,929.0 L 708.0,922.0 L 697.0,922.0"/>
  </g>
</svg>
