<svg xmlns="http://www.w3.org/2000/svg" viewBox="0 0 1024 1024">
  <g style="fill:none;stroke:#000000;stroke-width:50;stroke-linecap:round;stroke-linejoin:round;" transform="scale(1, 1) translate(0, 0)">
    <path d="M 176.0,363.0 L 252.0,430.0 L 269.0,464.0"/>
    <path d="M 503.0,302.0 L 521.0,319.0 L 528.0,339.0 L 440.0,434.0"/>
    <path d="M 196.0,578.0 L 252.0,581.0 L 443.0,533.0 L 488.0,536.0"/>
    <path d="M 73.0,747.0 L 91.0,753.0 L 137.0,753.0 L 487.0,655.0 L 531.0,659.0"/>
    <path d="M 318.0,233.0 L 367.0,275.0 L 365.0,511.0 L 341.0,757.0 L 313.0,860.0 L 276.0,939.0 L 248.0,980.0 L 204.0,1027.0 L 175.0,1041.0 L 170.0,1049.0"/>
    <path d="M 604.0,425.0 L 633.0,461.0 L 625.0,757.0"/>
    <path d="M 769.0,215.0 L 817.0,256.0 L 810.0,575.0 L 815.0,926.0 L 808.0,960.0 L 791.0,991.0 L 748.0,974.0 L 666.0,925.0"/>
  </g>
</svg>
