<svg xmlns="http://www.w3.org/2000/svg" viewBox="0 0 1024 1024">
  <g style="fill:none;stroke:#000000;stroke-width:50;stroke-linecap:round;stroke-linejoin:round;" transform="scale(1, 1) translate(0, 0)">
    <path d="M 194.0,320.0 L 223.0,349.0 L 252.0,540.0"/>
    <path d="M 256.0,355.0 L 268.0,340.0 L 282.0,335.0 L 417.0,300.0 L 449.0,305.0 L 475.0,330.0 L 445.0,426.0 L 419.0,445.0"/>
    <path d="M 275.0,494.0 L 285.0,501.0 L 302.0,500.0 L 413.0,475.0 L 471.0,482.0"/>
    <path d="M 138.0,656.0 L 185.0,666.0 L 429.0,617.0 L 458.0,615.0 L 483.0,629.0 L 491.0,642.0 L 470.0,779.0 L 452.0,854.0 L 426.0,922.0 L 407.0,945.0 L 386.0,956.0 L 305.0,898.0"/>
    <path d="M 308.0,526.0 L 339.0,546.0 L 329.0,630.0 L 298.0,742.0 L 268.0,807.0 L 231.0,867.0 L 170.0,940.0 L 116.0,988.0"/>
    <path d="M 602.0,429.0 L 631.0,462.0 L 633.0,768.0"/>
    <path d="M 760.0,236.0 L 777.0,244.0 L 811.0,276.0 L 811.0,563.0 L 824.0,949.0 L 804.0,999.0 L 754.0,985.0 L 679.0,952.0 L 677.0,946.0 L 666.0,946.0"/>
  </g>
</svg>
