<svg xmlns="http://www.w3.org/2000/svg" viewBox="0 0 1024 1024">
  <g style="fill:none;stroke:#000000;stroke-width:50;stroke-linecap:round;stroke-linejoin:round;" transform="scale(1, 1) translate(0, 0)">
    <path d="M 504.0,300.0 L 427.0,288.0 L 372.0,325.0 L 301.0,359.0 L 216.0,390.0 L 203.0,388.0 L 192.0,397.0"/>
    <path d="M 64.0,549.0 L 125.0,559.0 L 501.0,481.0 L 561.0,485.0"/>
    <path d="M 324.0,372.0 L 352.0,394.0 L 364.0,425.0 L 344.0,628.0 L 342.0,639.0 L 324.0,659.0"/>
    <path d="M 188.0,682.0 L 213.0,701.0 L 224.0,720.0 L 268.0,916.0"/>
    <path d="M 244.0,683.0 L 253.0,690.0 L 271.0,690.0 L 439.0,656.0 L 471.0,687.0 L 449.0,759.0 L 421.0,779.0"/>
    <path d="M 284.0,854.0 L 296.0,839.0 L 394.0,815.0 L 470.0,809.0 L 491.0,816.0"/>
    <path d="M 612.0,413.0 L 639.0,444.0 L 643.0,459.0 L 645.0,756.0"/>
    <path d="M 772.0,211.0 L 807.0,235.0 L 830.0,261.0 L 821.0,520.0 L 825.0,937.0 L 803.0,989.0 L 764.0,974.0 L 681.0,925.0"/>
  </g>
</svg>
