<svg xmlns="http://www.w3.org/2000/svg" viewBox="0 0 1024 1024">
  <g style="fill:none;stroke:#000000;stroke-width:50;stroke-linecap:round;stroke-linejoin:round;" transform="scale(1, 1) translate(0, 0)">
    <path d="M 249.0,303.0 L 277.0,335.0 L 272.0,351.0 L 229.0,441.0 L 200.0,480.0 L 168.0,502.0 L 166.0,509.0"/>
    <path d="M 271.0,425.0 L 284.0,419.0 L 342.0,415.0 L 489.0,376.0 L 524.0,377.0"/>
    <path d="M 115.0,577.0 L 166.0,584.0 L 491.0,517.0 L 544.0,511.0 L 582.0,516.0"/>
    <path d="M 227.0,663.0 L 246.0,682.0 L 251.0,701.0 L 248.0,810.0 L 237.0,868.0 L 240.0,901.0"/>
    <path d="M 280.0,696.0 L 289.0,683.0 L 316.0,677.0 L 455.0,650.0 L 522.0,647.0 L 543.0,667.0 L 544.0,679.0 L 545.0,796.0 L 537.0,838.0 L 527.0,853.0 L 519.0,852.0 L 442.0,825.0"/>
    <path d="M 357.0,207.0 L 406.0,258.0 L 392.0,764.0 L 374.0,947.0 L 377.0,1027.0"/>
    <path d="M 633.0,421.0 L 663.0,454.0 L 665.0,585.0 L 657.0,689.0 L 661.0,732.0"/>
    <path d="M 774.0,222.0 L 790.0,230.0 L 822.0,262.0 L 814.0,530.0 L 819.0,892.0 L 814.0,923.0 L 798.0,954.0 L 730.0,930.0 L 690.0,912.0 L 688.0,905.0 L 677.0,905.0"/>
  </g>
</svg>
