<svg xmlns="http://www.w3.org/2000/svg" viewBox="0 0 1024 1024">
  <g style="fill:none;stroke:#000000;stroke-width:50;stroke-linecap:round;stroke-linejoin:round;" transform="scale(1, 1) translate(0, 0)">
    <path d="M 311.0,284.0 L 364.0,317.0 L 389.0,351.0"/>
    <path d="M 667.0,198.0 L 687.0,239.0 L 576.0,329.0"/>
    <path d="M 306.0,428.0 L 349.0,436.0 L 393.0,433.0 L 619.0,388.0 L 670.0,388.0"/>
    <path d="M 185.0,575.0 L 236.0,584.0 L 518.0,539.0 L 741.0,515.0 L 822.0,534.0"/>
    <path d="M 466.0,180.0 L 491.0,200.0 L 504.0,226.0 L 463.0,426.0 L 404.0,572.0 L 346.0,658.0 L 268.0,737.0 L 199.0,787.0 L 108.0,831.0"/>
    <path d="M 566.0,558.0 L 589.0,567.0 L 770.0,714.0 L 817.0,740.0 L 989.0,760.0"/>
    <path d="M 302.0,741.0 L 352.0,746.0 L 595.0,702.0 L 622.0,709.0 L 637.0,725.0 L 615.0,864.0 L 594.0,932.0 L 574.0,969.0 L 542.0,997.0 L 507.0,983.0 L 461.0,954.0"/>
    <path d="M 404.0,765.0 L 429.0,788.0 L 404.0,842.0 L 369.0,896.0 L 289.0,971.0 L 208.0,1013.0"/>
  </g>
</svg>
