<svg xmlns="http://www.w3.org/2000/svg" viewBox="0 0 1024 1024">
  <g style="fill:none;stroke:#000000;stroke-width:50;stroke-linecap:round;stroke-linejoin:round;" transform="scale(1, 1) translate(0, 0)">
    <path d="M 452.0,210.0 L 472.0,252.0 L 405.0,357.0 L 351.0,418.0 L 306.0,458.0 L 201.0,523.0"/>
    <path d="M 240.0,296.0 L 450.0,412.0 L 488.0,444.0 L 503.0,470.0"/>
    <path d="M 77.0,651.0 L 135.0,662.0 L 463.0,600.0 L 527.0,603.0"/>
    <path d="M 347.0,510.0 L 380.0,541.0 L 388.0,557.0 L 383.0,852.0 L 377.0,913.0 L 361.0,942.0 L 325.0,929.0 L 261.0,891.0"/>
    <path d="M 238.0,741.0 L 214.0,797.0 L 164.0,871.0"/>
    <path d="M 459.0,706.0 L 534.0,775.0 L 551.0,816.0"/>
    <path d="M 610.0,430.0 L 638.0,462.0 L 637.0,772.0"/>
    <path d="M 761.0,239.0 L 778.0,247.0 L 810.0,278.0 L 806.0,663.0 L 814.0,922.0 L 809.0,954.0 L 793.0,986.0 L 718.0,957.0 L 682.0,940.0 L 680.0,933.0 L 669.0,933.0"/>
  </g>
</svg>
