<svg xmlns="http://www.w3.org/2000/svg" viewBox="0 0 1024 1024">
  <g style="fill:none;stroke:#000000;stroke-width:50;stroke-linecap:round;stroke-linejoin:round;" transform="scale(1, 1) translate(0, 0)">
    <path d="M 236.0,254.0 L 293.0,289.0 L 314.0,323.0"/>
    <path d="M 477.0,181.0 L 497.0,214.0 L 393.0,328.0"/>
    <path d="M 215.0,411.0 L 268.0,412.0 L 455.0,366.0 L 472.0,367.0 L 485.0,372.0 L 505.0,397.0 L 478.0,461.0 L 456.0,471.0"/>
    <path d="M 217.0,567.0 L 232.0,551.0 L 439.0,505.0 L 482.0,502.0 L 502.0,507.0"/>
    <path d="M 172.0,517.0 L 191.0,550.0 L 168.0,631.0 L 164.0,668.0 L 193.0,671.0 L 292.0,645.0 L 477.0,611.0 L 525.0,610.0 L 547.0,623.0 L 561.0,642.0 L 532.0,762.0 L 519.0,786.0 L 508.0,793.0 L 490.0,787.0 L 424.0,749.0"/>
    <path d="M 318.0,421.0 L 334.0,430.0 L 350.0,454.0 L 351.0,608.0 L 338.0,925.0 L 349.0,1008.0"/>
    <path d="M 325.0,662.0 L 316.0,669.0 L 304.0,710.0 L 238.0,798.0 L 169.0,870.0 L 75.0,947.0"/>
    <path d="M 636.0,431.0 L 662.0,462.0 L 657.0,720.0"/>
    <path d="M 765.0,243.0 L 782.0,251.0 L 814.0,282.0 L 808.0,496.0 L 812.0,925.0 L 793.0,970.0 L 750.0,955.0 L 682.0,921.0 L 680.0,914.0 L 669.0,913.0"/>
  </g>
</svg>
