<svg xmlns="http://www.w3.org/2000/svg" viewBox="0 0 1024 1024">
  <g style="fill:none;stroke:#000000;stroke-width:50;stroke-linecap:round;stroke-linejoin:round;" transform="scale(1, 1) translate(0, 0)">
    <path d="M 348.0,208.0 L 386.0,244.0 L 376.0,377.0 L 373.0,392.0 L 359.0,408.0"/>
    <path d="M 207.0,318.0 L 233.0,352.0 L 224.0,454.0 L 231.0,462.0 L 261.0,461.0 L 364.0,431.0 L 478.0,410.0 L 493.0,396.0"/>
    <path d="M 524.0,265.0 L 551.0,306.0 L 512.0,467.0"/>
    <path d="M 213.0,574.0 L 259.0,575.0 L 430.0,531.0 L 449.0,534.0 L 482.0,562.0 L 447.0,644.0 L 421.0,660.0"/>
    <path d="M 271.0,714.0 L 290.0,722.0 L 417.0,688.0 L 476.0,689.0"/>
    <path d="M 217.0,702.0 L 241.0,724.0 L 253.0,751.0 L 243.0,890.0 L 249.0,939.0 L 303.0,923.0 L 460.0,823.0"/>
    <path d="M 607.0,457.0 L 633.0,485.0 L 638.0,504.0 L 633.0,752.0"/>
    <path d="M 766.0,259.0 L 814.0,298.0 L 811.0,537.0 L 821.0,932.0 L 801.0,981.0 L 751.0,967.0 L 654.0,925.0"/>
  </g>
</svg>
