<svg xmlns="http://www.w3.org/2000/svg" viewBox="0 0 1024 1024">
  <g style="fill:none;stroke:#000000;stroke-width:50;stroke-linecap:round;stroke-linejoin:round;" transform="scale(1, 1) translate(0, 0)">
    <path d="M 350.0,208.0 L 386.0,241.0 L 377.0,382.0 L 360.0,409.0"/>
    <path d="M 208.0,318.0 L 234.0,352.0 L 229.0,461.0 L 273.0,459.0 L 403.0,421.0 L 475.0,409.0 L 489.0,396.0"/>
    <path d="M 517.0,262.0 L 544.0,302.0 L 512.0,467.0"/>
    <path d="M 314.0,468.0 L 332.0,482.0 L 341.0,500.0 L 343.0,508.0 L 334.0,526.0 L 285.0,600.0 L 206.0,696.0 L 119.0,772.0"/>
    <path d="M 305.0,615.0 L 430.0,583.0 L 460.0,588.0 L 474.0,607.0 L 411.0,766.0 L 350.0,862.0 L 315.0,901.0 L 246.0,959.0 L 157.0,1001.0"/>
    <path d="M 233.0,699.0 L 245.0,699.0 L 282.0,726.0 L 305.0,749.0 L 315.0,772.0"/>
    <path d="M 595.0,448.0 L 622.0,480.0 L 625.0,600.0 L 617.0,713.0 L 621.0,764.0"/>
    <path d="M 760.0,243.0 L 778.0,251.0 L 810.0,284.0 L 806.0,655.0 L 813.0,929.0 L 792.0,979.0 L 741.0,963.0 L 667.0,928.0 L 665.0,922.0 L 654.0,922.0"/>
  </g>
</svg>
