<svg xmlns="http://www.w3.org/2000/svg" viewBox="0 0 1024 1024">
  <g style="fill:none;stroke:#000000;stroke-width:50;stroke-linecap:round;stroke-linejoin:round;" transform="scale(1, 1) translate(0, 0)">
    <path d="M 381.0,226.0 L 397.0,241.0 L 416.0,277.0 L 367.0,364.0 L 295.0,471.0 L 233.0,547.0 L 149.0,638.0 L 93.0,684.0"/>
    <path d="M 416.0,355.0 L 431.0,352.0 L 494.0,386.0 L 524.0,409.0 L 546.0,450.0"/>
    <path d="M 276.0,594.0 L 302.0,599.0 L 343.0,596.0 L 460.0,565.0 L 507.0,566.0"/>
    <path d="M 171.0,746.0 L 189.0,752.0 L 239.0,752.0 L 448.0,696.0 L 518.0,684.0 L 548.0,688.0"/>
    <path d="M 401.0,758.0 L 365.0,771.0 L 333.0,833.0 L 277.0,910.0 L 271.0,940.0 L 308.0,938.0 L 464.0,891.0 L 477.0,889.0 L 483.0,895.0"/>
    <path d="M 459.0,804.0 L 535.0,895.0 L 550.0,951.0"/>
    <path d="M 614.0,433.0 L 641.0,467.0 L 633.0,742.0"/>
    <path d="M 764.0,263.0 L 782.0,271.0 L 814.0,304.0 L 809.0,642.0 L 818.0,924.0 L 812.0,957.0 L 796.0,989.0 L 747.0,971.0 L 662.0,926.0"/>
  </g>
</svg>
