<svg xmlns="http://www.w3.org/2000/svg" viewBox="0 0 1024 1024">
  <g style="fill:none;stroke:#000000;stroke-width:50;stroke-linecap:round;stroke-linejoin:round;" transform="scale(1, 1) translate(0, 0)">
    <path d="M 360.0,219.0 L 428.0,268.0 L 443.0,286.0 L 454.0,314.0"/>
    <path d="M 658.0,168.0 L 678.0,189.0 L 686.0,208.0 L 645.0,257.0 L 573.0,324.0"/>
    <path d="M 110.0,425.0 L 174.0,442.0 L 486.0,392.0 L 855.0,354.0 L 895.0,359.0 L 953.0,379.0"/>
    <path d="M 252.0,528.0 L 275.0,546.0 L 284.0,568.0 L 285.0,644.0 L 273.0,786.0 L 262.0,857.0 L 245.0,915.0 L 243.0,960.0"/>
    <path d="M 311.0,558.0 L 323.0,549.0 L 434.0,519.0 L 449.0,524.0 L 469.0,547.0 L 473.0,883.0 L 466.0,930.0 L 452.0,951.0 L 365.0,912.0"/>
    <path d="M 305.0,676.0 L 318.0,665.0 L 364.0,654.0 L 408.0,658.0"/>
    <path d="M 302.0,788.0 L 314.0,772.0 L 344.0,765.0 L 381.0,764.0 L 403.0,770.0"/>
    <path d="M 581.0,551.0 L 606.0,581.0 L 602.0,825.0"/>
    <path d="M 723.0,455.0 L 756.0,497.0 L 760.0,958.0 L 749.0,985.0 L 733.0,1002.0 L 684.0,980.0 L 640.0,947.0"/>
  </g>
</svg>
