<svg xmlns="http://www.w3.org/2000/svg" viewBox="0 0 1024 1024">
  <g style="fill:none;stroke:#000000;stroke-width:50;stroke-linecap:round;stroke-linejoin:round;" transform="scale(1, 1) translate(0, 0)">
    <path d="M 212.0,387.0 L 232.0,392.0 L 298.0,387.0 L 455.0,345.0 L 503.0,345.0"/>
    <path d="M 154.0,511.0 L 192.0,555.0 L 223.0,685.0"/>
    <path d="M 189.0,506.0 L 220.0,519.0 L 243.0,516.0 L 360.0,493.0 L 427.0,473.0 L 464.0,470.0 L 478.0,477.0 L 499.0,503.0 L 478.0,571.0 L 456.0,579.0"/>
    <path d="M 241.0,666.0 L 251.0,655.0 L 274.0,648.0 L 439.0,615.0 L 502.0,621.0"/>
    <path d="M 302.0,172.0 L 345.0,212.0 L 355.0,235.0 L 349.0,761.0 L 334.0,941.0 L 336.0,1030.0"/>
    <path d="M 323.0,664.0 L 314.0,672.0 L 303.0,710.0 L 221.0,816.0 L 123.0,911.0 L 75.0,947.0"/>
    <path d="M 409.0,758.0 L 489.0,808.0 L 519.0,848.0"/>
    <path d="M 615.0,419.0 L 643.0,450.0 L 644.0,460.0 L 648.0,674.0 L 643.0,714.0 L 649.0,760.0"/>
    <path d="M 767.0,211.0 L 785.0,219.0 L 818.0,252.0 L 816.0,609.0 L 827.0,917.0 L 822.0,949.0 L 806.0,981.0 L 682.0,934.0"/>
  </g>
</svg>
