<svg xmlns="http://www.w3.org/2000/svg" viewBox="0 0 1024 1024">
  <g style="fill:none;stroke:#000000;stroke-width:50;stroke-linecap:round;stroke-linejoin:round;" transform="scale(1, 1) translate(0, 0)">
    <path d="M 206.0,357.0 L 232.0,380.0 L 239.0,394.0 L 272.0,561.0"/>
    <path d="M 260.0,358.0 L 275.0,368.0 L 413.0,327.0 L 434.0,332.0 L 456.0,355.0 L 455.0,362.0 L 433.0,452.0 L 407.0,472.0"/>
    <path d="M 290.0,540.0 L 308.0,525.0 L 398.0,501.0 L 449.0,496.0 L 471.0,501.0"/>
    <path d="M 129.0,638.0 L 154.0,670.0 L 161.0,697.0 L 152.0,897.0 L 160.0,956.0"/>
    <path d="M 183.0,661.0 L 202.0,671.0 L 285.0,644.0 L 458.0,608.0 L 493.0,607.0 L 522.0,629.0 L 530.0,640.0 L 522.0,722.0 L 525.0,863.0 L 516.0,912.0 L 510.0,921.0 L 478.0,916.0 L 396.0,879.0"/>
    <path d="M 302.0,556.0 L 320.0,563.0 L 336.0,584.0 L 333.0,649.0 L 315.0,735.0 L 289.0,795.0 L 272.0,817.0 L 248.0,842.0 L 202.0,870.0"/>
    <path d="M 342.0,756.0 L 350.0,753.0 L 407.0,785.0 L 430.0,808.0 L 440.0,829.0"/>
    <path d="M 614.0,433.0 L 641.0,467.0 L 633.0,742.0"/>
    <path d="M 764.0,263.0 L 782.0,271.0 L 814.0,304.0 L 809.0,642.0 L 818.0,924.0 L 812.0,957.0 L 796.0,989.0 L 747.0,971.0 L 662.0,926.0"/>
  </g>
</svg>
