<svg xmlns="http://www.w3.org/2000/svg" viewBox="0 0 1024 1024">
  <g style="fill:none;stroke:#000000;stroke-width:50;stroke-linecap:round;stroke-linejoin:round;" transform="scale(1, 1) translate(0, 0)">
    <path d="M 169.0,366.0 L 230.0,405.0 L 253.0,443.0"/>
    <path d="M 479.0,284.0 L 495.0,320.0 L 417.0,392.0 L 399.0,400.0 L 396.0,410.0"/>
    <path d="M 314.0,226.0 L 334.0,236.0 L 363.0,266.0 L 350.0,382.0 L 331.0,464.0 L 294.0,535.0 L 253.0,579.0 L 194.0,612.0 L 164.0,621.0"/>
    <path d="M 388.0,473.0 L 451.0,509.0 L 481.0,546.0"/>
    <path d="M 158.0,694.0 L 214.0,739.0 L 225.0,761.0"/>
    <path d="M 489.0,613.0 L 505.0,644.0 L 409.0,734.0"/>
    <path d="M 318.0,606.0 L 332.0,614.0 L 355.0,642.0 L 337.0,761.0 L 312.0,835.0 L 281.0,888.0 L 242.0,932.0 L 176.0,980.0 L 145.0,995.0"/>
    <path d="M 362.0,808.0 L 364.0,823.0 L 378.0,827.0 L 425.0,861.0 L 471.0,901.0 L 500.0,950.0 L 500.0,969.0"/>
    <path d="M 595.0,436.0 L 623.0,469.0 L 626.0,629.0 L 620.0,708.0 L 625.0,753.0"/>
    <path d="M 743.0,259.0 L 761.0,267.0 L 794.0,299.0 L 791.0,573.0 L 800.0,933.0 L 780.0,979.0 L 730.0,962.0 L 655.0,928.0 L 653.0,922.0 L 642.0,922.0"/>
  </g>
</svg>
