<svg xmlns="http://www.w3.org/2000/svg" viewBox="0 0 1024 1024">
  <g style="fill:none;stroke:#000000;stroke-width:50;stroke-linecap:round;stroke-linejoin:round;" transform="scale(1, 1) translate(0, 0)">
    <path d="M 340.0,201.0 L 362.0,240.0 L 283.0,411.0 L 326.0,418.0 L 415.0,402.0 L 425.0,405.0 L 444.0,393.0"/>
    <path d="M 368.0,301.0 L 487.0,284.0 L 522.0,298.0 L 449.0,444.0 L 421.0,493.0 L 409.0,502.0"/>
    <path d="M 109.0,555.0 L 134.0,563.0 L 164.0,562.0 L 517.0,508.0 L 555.0,506.0 L 591.0,514.0"/>
    <path d="M 347.0,555.0 L 378.0,573.0 L 389.0,592.0 L 381.0,936.0 L 362.0,977.0 L 334.0,969.0 L 265.0,927.0"/>
    <path d="M 207.0,626.0 L 268.0,675.0 L 282.0,700.0"/>
    <path d="M 120.0,880.0 L 169.0,875.0 L 315.0,747.0"/>
    <path d="M 572.0,638.0 L 539.0,633.0 L 460.0,723.0 L 450.0,721.0"/>
    <path d="M 411.0,725.0 L 422.0,739.0 L 521.0,800.0 L 537.0,816.0 L 556.0,851.0"/>
    <path d="M 643.0,432.0 L 670.0,464.0 L 671.0,474.0 L 671.0,675.0 L 665.0,744.0 L 669.0,784.0"/>
    <path d="M 770.0,240.0 L 819.0,276.0 L 827.0,297.0 L 822.0,604.0 L 831.0,922.0 L 811.0,971.0 L 775.0,957.0 L 704.0,913.0"/>
  </g>
</svg>
