<svg xmlns="http://www.w3.org/2000/svg" viewBox="0 0 1024 1024">
  <g style="fill:none;stroke:#000000;stroke-width:50;stroke-linecap:round;stroke-linejoin:round;" transform="scale(1, 1) translate(0, 0)">
    <path d="M 296.0,295.0 L 308.0,305.0 L 468.0,266.0 L 491.0,268.0 L 523.0,299.0 L 502.0,357.0 L 475.0,378.0"/>
    <path d="M 283.0,458.0 L 307.0,441.0 L 474.0,405.0 L 514.0,403.0 L 539.0,409.0"/>
    <path d="M 226.0,280.0 L 256.0,307.0 L 263.0,336.0 L 244.0,526.0 L 216.0,670.0 L 187.0,756.0 L 133.0,869.0 L 48.0,983.0"/>
    <path d="M 258.0,634.0 L 306.0,639.0 L 504.0,593.0 L 579.0,593.0"/>
    <path d="M 400.0,467.0 L 438.0,505.0 L 410.0,736.0 L 392.0,764.0"/>
    <path d="M 255.0,785.0 L 283.0,808.0 L 290.0,825.0 L 328.0,994.0"/>
    <path d="M 314.0,793.0 L 330.0,799.0 L 380.0,791.0 L 479.0,763.0 L 518.0,760.0 L 551.0,791.0 L 528.0,867.0 L 505.0,882.0"/>
    <path d="M 342.0,931.0 L 355.0,939.0 L 498.0,911.0 L 558.0,916.0"/>
    <path d="M 619.0,432.0 L 646.0,464.0 L 648.0,631.0 L 640.0,710.0 L 645.0,752.0"/>
    <path d="M 766.0,220.0 L 784.0,228.0 L 819.0,261.0 L 818.0,591.0 L 831.0,952.0 L 809.0,1007.0 L 761.0,994.0 L 669.0,956.0"/>
  </g>
</svg>
