<svg xmlns="http://www.w3.org/2000/svg" viewBox="0 0 1024 1024">
  <g style="fill:none;stroke:#000000;stroke-width:50;stroke-linecap:round;stroke-linejoin:round;" transform="scale(1, 1) translate(0, 0)">
    <path d="M 515.0,245.0 L 454.0,236.0 L 360.0,294.0 L 273.0,330.0 L 265.0,328.0 L 258.0,337.0 L 238.0,336.0 L 228.0,346.0"/>
    <path d="M 155.0,448.0 L 209.0,452.0 L 496.0,394.0 L 560.0,397.0"/>
    <path d="M 340.0,326.0 L 371.0,337.0 L 387.0,365.0 L 383.0,800.0 L 371.0,943.0 L 373.0,1027.0"/>
    <path d="M 263.0,497.0 L 282.0,519.0 L 281.0,690.0"/>
    <path d="M 135.0,581.0 L 186.0,582.0 L 248.0,569.0 L 258.0,560.0"/>
    <path d="M 140.0,698.0 L 173.0,703.0 L 246.0,673.0 L 247.0,664.0"/>
    <path d="M 579.0,478.0 L 582.0,506.0 L 502.0,549.0 L 496.0,547.0 L 488.0,565.0"/>
    <path d="M 447.0,468.0 L 466.0,490.0 L 461.0,607.0 L 471.0,645.0 L 482.0,659.0 L 501.0,669.0 L 539.0,675.0 L 579.0,664.0 L 592.0,654.0 L 608.0,582.0"/>
    <path d="M 361.0,661.0 L 336.0,741.0 L 290.0,794.0 L 173.0,895.0 L 97.0,933.0"/>
    <path d="M 404.0,721.0 L 415.0,723.0 L 419.0,736.0 L 524.0,804.0 L 552.0,831.0 L 571.0,867.0"/>
    <path d="M 668.0,423.0 L 694.0,454.0 L 695.0,590.0 L 685.0,709.0 L 689.0,752.0"/>
    <path d="M 805.0,259.0 L 822.0,267.0 L 854.0,298.0 L 849.0,570.0 L 858.0,910.0 L 852.0,942.0 L 836.0,972.0 L 772.0,945.0 L 734.0,925.0 L 732.0,918.0 L 721.0,918.0"/>
  </g>
</svg>
