<svg xmlns="http://www.w3.org/2000/svg" viewBox="0 0 1024 1024">
  <g style="fill:none;stroke:#000000;stroke-width:50;stroke-linecap:round;stroke-linejoin:round;" transform="scale(1, 1) translate(0, 0)">
    <path d="M 379.0,197.0 L 443.0,244.0 L 458.0,268.0"/>
    <path d="M 633.0,150.0 L 654.0,169.0 L 661.0,186.0 L 596.0,276.0 L 574.0,285.0"/>
    <path d="M 146.0,355.0 L 198.0,365.0 L 424.0,330.0 L 825.0,291.0 L 858.0,294.0 L 907.0,311.0"/>
    <path d="M 265.0,426.0 L 287.0,447.0 L 293.0,499.0 L 276.0,705.0"/>
    <path d="M 317.0,449.0 L 327.0,438.0 L 445.0,410.0 L 462.0,415.0 L 481.0,431.0 L 479.0,614.0 L 472.0,648.0 L 457.0,666.0 L 388.0,640.0"/>
    <path d="M 318.0,525.0 L 324.0,514.0 L 371.0,504.0 L 405.0,507.0"/>
    <path d="M 317.0,599.0 L 323.0,588.0 L 366.0,577.0 L 409.0,580.0"/>
    <path d="M 577.0,426.0 L 599.0,452.0 L 601.0,617.0"/>
    <path d="M 720.0,364.0 L 749.0,404.0 L 751.0,603.0 L 733.0,639.0 L 704.0,632.0 L 659.0,610.0"/>
    <path d="M 261.0,775.0 L 314.0,787.0 L 640.0,739.0 L 685.0,736.0 L 702.0,744.0 L 718.0,760.0 L 703.0,861.0 L 680.0,953.0 L 659.0,993.0 L 626.0,1024.0 L 596.0,1012.0 L 537.0,974.0"/>
    <path d="M 456.0,793.0 L 478.0,824.0 L 428.0,898.0 L 371.0,956.0 L 316.0,996.0 L 248.0,1033.0 L 185.0,1057.0 L 158.0,1061.0"/>
  </g>
</svg>
