<svg xmlns="http://www.w3.org/2000/svg" viewBox="0 0 1024 1024">
  <g style="fill:none;stroke:#000000;stroke-width:50;stroke-linecap:round;stroke-linejoin:round;" transform="scale(1, 1) translate(0, 0)">
    <path d="M 335.0,178.0 L 398.0,206.0 L 427.0,239.0"/>
    <path d="M 210.0,335.0 L 265.0,337.0 L 465.0,287.0 L 533.0,287.0"/>
    <path d="M 424.0,327.0 L 439.0,347.0 L 385.0,432.0 L 326.0,483.0 L 264.0,512.0"/>
    <path d="M 310.0,395.0 L 447.0,432.0 L 484.0,459.0"/>
    <path d="M 237.0,555.0 L 252.0,568.0 L 463.0,516.0 L 514.0,509.0 L 540.0,514.0"/>
    <path d="M 180.0,546.0 L 204.0,569.0 L 210.0,608.0 L 201.0,693.0 L 180.0,785.0 L 160.0,851.0 L 125.0,928.0 L 83.0,991.0 L 56.0,1020.0"/>
    <path d="M 293.0,646.0 L 313.0,670.0 L 304.0,702.0 L 281.0,753.0 L 239.0,807.0"/>
    <path d="M 319.0,734.0 L 328.0,728.0 L 357.0,729.0 L 405.0,719.0 L 490.0,692.0 L 529.0,690.0"/>
    <path d="M 315.0,831.0 L 389.0,827.0 L 472.0,799.0 L 520.0,793.0"/>
    <path d="M 395.0,587.0 L 427.0,617.0 L 426.0,881.0 L 412.0,909.0"/>
    <path d="M 212.0,981.0 L 265.0,996.0 L 565.0,871.0"/>
    <path d="M 615.0,444.0 L 642.0,476.0 L 645.0,596.0 L 637.0,709.0 L 641.0,760.0"/>
    <path d="M 762.0,212.0 L 784.0,224.0 L 818.0,258.0 L 813.0,490.0 L 822.0,928.0 L 815.0,957.0 L 801.0,981.0 L 745.0,962.0 L 674.0,928.0"/>
  </g>
</svg>
