<svg xmlns="http://www.w3.org/2000/svg" viewBox="0 0 1024 1024">
  <g style="fill:none;stroke:#000000;stroke-width:50;stroke-linecap:round;stroke-linejoin:round;" transform="scale(1, 1) translate(0, 0)">
    <path d="M 297.0,247.0 L 308.0,256.0 L 324.0,289.0 L 281.0,367.0 L 178.0,507.0 L 95.0,584.0"/>
    <path d="M 249.0,458.0 L 265.0,539.0 L 261.0,672.0 L 250.0,764.0 L 255.0,831.0"/>
    <path d="M 396.0,239.0 L 462.0,276.0 L 487.0,311.0"/>
    <path d="M 308.0,437.0 L 363.0,440.0 L 537.0,396.0 L 580.0,396.0"/>
    <path d="M 335.0,561.0 L 378.0,556.0 L 497.0,525.0 L 536.0,529.0"/>
    <path d="M 332.0,657.0 L 501.0,624.0 L 543.0,629.0"/>
    <path d="M 415.0,450.0 L 439.0,471.0 L 440.0,480.0 L 434.0,702.0 L 419.0,725.0"/>
    <path d="M 284.0,782.0 L 302.0,769.0 L 508.0,733.0 L 558.0,728.0 L 587.0,734.0"/>
    <path d="M 199.0,882.0 L 184.0,941.0 L 147.0,1006.0 L 138.0,1035.0"/>
    <path d="M 293.0,887.0 L 331.0,951.0 L 339.0,998.0"/>
    <path d="M 402.0,867.0 L 448.0,929.0 L 458.0,973.0"/>
    <path d="M 514.0,845.0 L 570.0,915.0 L 583.0,944.0"/>
    <path d="M 634.0,463.0 L 661.0,497.0 L 653.0,764.0"/>
    <path d="M 777.0,263.0 L 794.0,271.0 L 826.0,302.0 L 820.0,533.0 L 825.0,943.0 L 806.0,991.0 L 686.0,946.0"/>
  </g>
</svg>
