<svg xmlns="http://www.w3.org/2000/svg" viewBox="0 0 1024 1024">
  <g style="fill:none;stroke:#000000;stroke-width:50;stroke-linecap:round;stroke-linejoin:round;" transform="scale(1, 1) translate(0, 0)">
    <path d="M 354.0,232.0 L 320.0,229.0 L 278.0,276.0 L 229.0,316.0 L 227.0,331.0"/>
    <path d="M 173.0,309.0 L 201.0,341.0 L 209.0,467.0 L 219.0,498.0 L 239.0,490.0 L 301.0,439.0 L 329.0,409.0 L 327.0,404.0"/>
    <path d="M 324.0,343.0 L 359.0,386.0 L 369.0,408.0"/>
    <path d="M 404.0,287.0 L 441.0,290.0 L 590.0,249.0 L 609.0,264.0 L 602.0,347.0 L 590.0,400.0 L 572.0,437.0 L 553.0,456.0 L 495.0,424.0"/>
    <path d="M 475.0,302.0 L 489.0,320.0 L 469.0,369.0 L 422.0,436.0 L 386.0,468.0"/>
    <path d="M 413.0,510.0 L 384.0,516.0 L 309.0,616.0 L 234.0,687.0 L 171.0,737.0 L 93.0,779.0"/>
    <path d="M 411.0,539.0 L 429.0,536.0 L 505.0,566.0 L 547.0,588.0 L 575.0,618.0"/>
    <path d="M 299.0,670.0 L 349.0,672.0 L 459.0,639.0 L 493.0,639.0"/>
    <path d="M 247.0,786.0 L 272.0,789.0 L 311.0,783.0 L 453.0,736.0 L 513.0,727.0"/>
    <path d="M 367.0,693.0 L 390.0,707.0 L 394.0,722.0 L 391.0,892.0 L 374.0,920.0"/>
    <path d="M 231.0,841.0 L 287.0,880.0 L 302.0,905.0"/>
    <path d="M 503.0,774.0 L 518.0,799.0 L 456.0,871.0"/>
    <path d="M 183.0,980.0 L 236.0,998.0 L 495.0,911.0 L 572.0,878.0"/>
    <path d="M 653.0,445.0 L 683.0,478.0 L 685.0,609.0 L 677.0,713.0 L 681.0,756.0"/>
    <path d="M 796.0,251.0 L 814.0,259.0 L 846.0,292.0 L 842.0,601.0 L 850.0,941.0 L 830.0,991.0 L 702.0,944.0"/>
  </g>
</svg>
