<svg xmlns="http://www.w3.org/2000/svg" viewBox="0 0 1024 1024">
  <g style="fill:none;stroke:#000000;stroke-width:50;stroke-linecap:round;stroke-linejoin:round;" transform="scale(1, 1) translate(0, 0)">
    <path d="M 271.0,335.0 L 280.0,342.0 L 322.0,344.0 L 535.0,298.0 L 601.0,293.0"/>
    <path d="M 203.0,315.0 L 231.0,343.0 L 236.0,361.0 L 231.0,466.0 L 201.0,633.0 L 173.0,721.0 L 141.0,790.0 L 64.0,899.0"/>
    <path d="M 292.0,442.0 L 331.0,506.0"/>
    <path d="M 412.0,412.0 L 433.0,432.0 L 384.0,529.0 L 385.0,538.0 L 363.0,555.0"/>
    <path d="M 270.0,589.0 L 321.0,590.0 L 420.0,559.0 L 453.0,556.0"/>
    <path d="M 248.0,651.0 L 265.0,679.0 L 254.0,755.0 L 255.0,769.0 L 266.0,775.0 L 395.0,733.0 L 408.0,721.0"/>
    <path d="M 428.0,630.0 L 440.0,662.0 L 422.0,771.0"/>
    <path d="M 326.0,608.0 L 341.0,616.0 L 355.0,644.0 L 339.0,763.0 L 325.0,817.0 L 298.0,873.0 L 257.0,926.0 L 229.0,949.0 L 195.0,966.0"/>
    <path d="M 518.0,385.0 L 544.0,406.0 L 545.0,421.0 L 517.0,511.0 L 464.0,604.0"/>
    <path d="M 508.0,571.0 L 582.0,535.0 L 605.0,535.0 L 618.0,544.0 L 618.0,563.0 L 576.0,622.0"/>
    <path d="M 511.0,655.0 L 531.0,690.0 L 510.0,778.0 L 454.0,886.0 L 393.0,947.0"/>
    <path d="M 526.0,805.0 L 530.0,815.0 L 598.0,873.0 L 619.0,904.0 L 625.0,926.0"/>
    <path d="M 662.0,445.0 L 685.0,475.0 L 681.0,725.0"/>
    <path d="M 778.0,239.0 L 826.0,278.0 L 823.0,563.0 L 832.0,953.0 L 814.0,997.0 L 701.0,953.0"/>
  </g>
</svg>
