<svg xmlns="http://www.w3.org/2000/svg" viewBox="0 0 1024 1024">
  <g style="fill:none;stroke:#000000;stroke-width:50;stroke-linecap:round;stroke-linejoin:round;" transform="scale(1, 1) translate(0, 0)">
    <path d="M 357.0,183.0 L 429.0,221.0 L 447.0,249.0"/>
    <path d="M 208.0,331.0 L 264.0,336.0 L 511.0,288.0 L 565.0,285.0 L 587.0,290.0"/>
    <path d="M 290.0,384.0 L 321.0,408.0 L 335.0,427.0"/>
    <path d="M 449.0,350.0 L 464.0,370.0 L 439.0,415.0 L 403.0,459.0"/>
    <path d="M 365.0,464.0 L 387.0,498.0 L 385.0,661.0"/>
    <path d="M 120.0,508.0 L 165.0,508.0 L 218.0,487.0 L 276.0,474.0 L 293.0,489.0 L 289.0,576.0 L 271.0,639.0 L 249.0,660.0 L 204.0,638.0"/>
    <path d="M 183.0,518.0 L 197.0,529.0 L 202.0,543.0 L 180.0,594.0 L 132.0,663.0 L 94.0,696.0"/>
    <path d="M 591.0,414.0 L 564.0,409.0 L 494.0,467.0"/>
    <path d="M 455.0,455.0 L 476.0,481.0 L 472.0,560.0 L 479.0,607.0 L 502.0,599.0 L 550.0,564.0"/>
    <path d="M 546.0,517.0 L 591.0,565.0 L 606.0,603.0"/>
    <path d="M 232.0,733.0 L 250.0,746.0 L 265.0,768.0 L 264.0,820.0 L 245.0,920.0 L 223.0,968.0 L 202.0,997.0 L 167.0,1027.0 L 150.0,1033.0"/>
    <path d="M 504.0,693.0 L 514.0,699.0 L 531.0,727.0 L 528.0,972.0 L 542.0,1035.0"/>
    <path d="M 322.0,773.0 L 364.0,771.0 L 445.0,751.0 L 458.0,753.0"/>
    <path d="M 312.0,870.0 L 363.0,871.0 L 434.0,854.0 L 461.0,854.0"/>
    <path d="M 643.0,448.0 L 670.0,480.0 L 673.0,598.0 L 665.0,708.0 L 669.0,760.0"/>
    <path d="M 765.0,263.0 L 782.0,271.0 L 814.0,302.0 L 810.0,663.0 L 819.0,923.0 L 814.0,955.0 L 798.0,987.0 L 674.0,941.0"/>
  </g>
</svg>
