<svg xmlns="http://www.w3.org/2000/svg" viewBox="0 0 1024 1024">
  <g style="fill:none;stroke:#000000;stroke-width:50;stroke-linecap:round;stroke-linejoin:round;" transform="scale(1, 1) translate(0, 0)">
    <path d="M 348.0,201.0 L 367.0,218.0 L 380.0,248.0 L 312.0,372.0 L 244.0,464.0 L 187.0,523.0 L 109.0,587.0 L 78.0,608.0 L 63.0,611.0 L 60.0,618.0"/>
    <path d="M 397.0,300.0 L 413.0,298.0 L 511.0,344.0 L 540.0,367.0 L 555.0,391.0"/>
    <path d="M 290.0,486.0 L 327.0,488.0 L 452.0,453.0 L 474.0,454.0"/>
    <path d="M 147.0,607.0 L 174.0,635.0 L 197.0,750.0"/>
    <path d="M 184.0,608.0 L 213.0,609.0 L 269.0,588.0 L 282.0,589.0 L 302.0,604.0 L 304.0,618.0 L 291.0,674.0 L 272.0,690.0"/>
    <path d="M 211.0,734.0 L 222.0,725.0 L 261.0,713.0 L 321.0,713.0"/>
    <path d="M 355.0,566.0 L 381.0,595.0 L 401.0,706.0"/>
    <path d="M 397.0,569.0 L 409.0,575.0 L 476.0,554.0 L 509.0,556.0 L 523.0,573.0 L 506.0,630.0 L 491.0,636.0"/>
    <path d="M 417.0,690.0 L 432.0,678.0 L 472.0,668.0 L 532.0,670.0"/>
    <path d="M 236.0,747.0 L 252.0,759.0 L 258.0,772.0 L 225.0,847.0 L 188.0,902.0 L 114.0,971.0"/>
    <path d="M 253.0,853.0 L 301.0,896.0 L 311.0,921.0"/>
    <path d="M 478.0,730.0 L 456.0,742.0 L 424.0,817.0 L 362.0,896.0"/>
    <path d="M 454.0,819.0 L 463.0,817.0 L 527.0,869.0 L 553.0,917.0"/>
    <path d="M 614.0,427.0 L 653.0,468.0 L 645.0,742.0"/>
    <path d="M 758.0,216.0 L 780.0,228.0 L 814.0,262.0 L 809.0,510.0 L 818.0,928.0 L 796.0,979.0 L 677.0,928.0"/>
  </g>
</svg>
