<svg xmlns="http://www.w3.org/2000/svg" viewBox="0 0 1024 1024">
  <g style="fill:none;stroke:#000000;stroke-width:50;stroke-linecap:round;stroke-linejoin:round;" transform="scale(1, 1) translate(0, 0)">
    <path d="M 476.0,202.0 L 503.0,222.0 L 517.0,243.0 L 508.0,428.0 L 513.0,480.0"/>
    <path d="M 318.0,331.0 L 298.0,406.0 L 257.0,489.0"/>
    <path d="M 704.0,276.0 L 829.0,336.0 L 865.0,382.0"/>
    <path d="M 709.0,390.0 L 675.0,393.0 L 591.0,489.0 L 514.0,558.0 L 346.0,679.0 L 211.0,754.0 L 108.0,792.0"/>
    <path d="M 361.0,750.0 L 398.0,761.0 L 439.0,756.0 L 684.0,699.0 L 710.0,698.0 L 737.0,712.0 L 748.0,725.0 L 728.0,858.0 L 706.0,945.0 L 683.0,992.0 L 649.0,1018.0 L 546.0,958.0"/>
    <path d="M 540.0,594.0 L 568.0,633.0 L 568.0,654.0 L 510.0,794.0 L 456.0,880.0 L 391.0,947.0 L 330.0,987.0 L 284.0,1009.0 L 207.0,1031.0"/>
  </g>
</svg>
