<svg xmlns="http://www.w3.org/2000/svg" viewBox="0 0 1024 1024">
  <g style="fill:none;stroke:#000000;stroke-width:50;stroke-linecap:round;stroke-linejoin:round;" transform="scale(1, 1) translate(0, 0)">
    <path d="M 164.0,452.0 L 188.0,458.0 L 225.0,457.0 L 327.0,434.0 L 389.0,413.0 L 450.0,411.0"/>
    <path d="M 284.0,469.0 L 314.0,499.0 L 304.0,683.0 L 292.0,701.0 L 281.0,706.0"/>
    <path d="M 107.0,782.0 L 145.0,795.0 L 175.0,795.0 L 394.0,699.0 L 464.0,662.0"/>
    <path d="M 449.0,528.0 L 503.0,540.0 L 786.0,483.0 L 805.0,489.0 L 826.0,509.0 L 797.0,761.0 L 773.0,863.0 L 749.0,920.0 L 707.0,962.0 L 602.0,902.0"/>
    <path d="M 602.0,220.0 L 623.0,230.0 L 653.0,262.0 L 626.0,532.0 L 588.0,662.0 L 528.0,786.0 L 464.0,868.0 L 402.0,930.0 L 314.0,994.0 L 274.0,1015.0"/>
  </g>
</svg>
