<svg xmlns="http://www.w3.org/2000/svg" viewBox="0 0 1024 1024">
  <g style="fill:none;stroke:#000000;stroke-width:50;stroke-linecap:round;stroke-linejoin:round;" transform="scale(1, 1) translate(0, 0)">
    <path d="M 337.0,172.0 L 356.0,192.0 L 368.0,220.0 L 275.0,475.0 L 306.0,497.0 L 428.0,553.0 L 455.0,590.0"/>
    <path d="M 445.0,311.0 L 462.0,329.0 L 472.0,352.0 L 440.0,438.0 L 393.0,525.0 L 356.0,571.0 L 305.0,614.0 L 229.0,653.0 L 179.0,666.0"/>
    <path d="M 92.0,395.0 L 139.0,419.0 L 248.0,393.0 L 415.0,364.0 L 433.0,352.0"/>
    <path d="M 538.0,307.0 L 610.0,308.0 L 711.0,279.0 L 750.0,282.0 L 762.0,295.0 L 723.0,377.0 L 660.0,463.0 L 568.0,531.0 L 496.0,554.0"/>
    <path d="M 524.0,387.0 L 561.0,400.0 L 676.0,502.0 L 782.0,569.0 L 838.0,578.0 L 939.0,582.0"/>
    <path d="M 269.0,755.0 L 324.0,765.0 L 644.0,703.0 L 667.0,701.0 L 687.0,710.0 L 704.0,733.0 L 680.0,840.0 L 653.0,927.0 L 619.0,991.0 L 581.0,1017.0 L 548.0,1000.0 L 492.0,955.0"/>
    <path d="M 488.0,614.0 L 510.0,642.0 L 512.0,655.0 L 481.0,762.0 L 436.0,852.0 L 376.0,932.0 L 328.0,981.0 L 230.0,1052.0"/>
  </g>
</svg>
