<svg xmlns="http://www.w3.org/2000/svg" viewBox="0 0 1024 1024">
  <g style="fill:none;stroke:#000000;stroke-width:50;stroke-linecap:round;stroke-linejoin:round;" transform="scale(1, 1) translate(0, 0)">
    <path d="M 189.0,477.0 L 248.0,481.0 L 420.0,441.0 L 470.0,443.0"/>
    <path d="M 318.0,227.0 L 363.0,267.0 L 347.0,563.0 L 329.0,590.0"/>
    <path d="M 49.0,658.0 L 100.0,667.0 L 434.0,594.0 L 496.0,596.0"/>
    <path d="M 360.0,665.0 L 334.0,669.0 L 322.0,679.0 L 281.0,756.0 L 221.0,836.0 L 216.0,867.0 L 254.0,864.0 L 396.0,809.0 L 423.0,800.0 L 435.0,803.0"/>
    <path d="M 394.0,711.0 L 463.0,788.0 L 476.0,835.0"/>
    <path d="M 501.0,542.0 L 546.0,553.0 L 814.0,497.0 L 833.0,503.0 L 854.0,523.0 L 819.0,784.0 L 798.0,861.0 L 778.0,906.0 L 755.0,934.0 L 737.0,945.0 L 641.0,889.0"/>
    <path d="M 635.0,234.0 L 661.0,248.0 L 679.0,267.0 L 685.0,275.0 L 685.0,300.0 L 663.0,560.0 L 628.0,682.0 L 583.0,783.0 L 508.0,884.0 L 435.0,955.0 L 334.0,1023.0"/>
  </g>
</svg>
