<svg xmlns="http://www.w3.org/2000/svg" viewBox="0 0 1024 1024">
  <g style="fill:none;stroke:#000000;stroke-width:50;stroke-linecap:round;stroke-linejoin:round;" transform="scale(1, 1) translate(0, 0)">
    <path d="M 166.0,345.0 L 225.0,351.0 L 459.0,295.0 L 491.0,315.0 L 491.0,346.0 L 465.0,476.0 L 440.0,541.0 L 425.0,564.0 L 398.0,585.0 L 367.0,569.0 L 327.0,537.0"/>
    <path d="M 275.0,364.0 L 301.0,387.0 L 263.0,487.0 L 213.0,575.0 L 174.0,624.0 L 98.0,695.0"/>
    <path d="M 156.0,729.0 L 184.0,753.0 L 192.0,769.0 L 232.0,968.0"/>
    <path d="M 215.0,731.0 L 230.0,742.0 L 389.0,703.0 L 423.0,709.0 L 447.0,733.0 L 420.0,835.0 L 399.0,852.0"/>
    <path d="M 250.0,922.0 L 265.0,906.0 L 383.0,882.0 L 429.0,878.0 L 454.0,885.0"/>
    <path d="M 530.0,559.0 L 579.0,569.0 L 830.0,518.0 L 857.0,531.0 L 866.0,544.0 L 841.0,787.0 L 823.0,868.0 L 797.0,938.0 L 776.0,965.0 L 758.0,977.0 L 661.0,921.0"/>
    <path d="M 668.0,241.0 L 690.0,252.0 L 722.0,289.0 L 683.0,565.0 L 642.0,730.0 L 594.0,847.0 L 543.0,928.0 L 479.0,996.0 L 420.0,1035.0"/>
  </g>
</svg>
