<svg xmlns="http://www.w3.org/2000/svg" viewBox="0 0 1024 1024">
  <g style="fill:none;stroke:#000000;stroke-width:50;stroke-linecap:round;stroke-linejoin:round;" transform="scale(1, 1) translate(0, 0)">
    <path d="M 293.0,222.0 L 309.0,236.0 L 324.0,262.0 L 317.0,292.0 L 280.0,363.0 L 213.0,467.0 L 143.0,542.0"/>
    <path d="M 240.0,466.0 L 268.0,454.0 L 390.0,425.0 L 413.0,429.0 L 448.0,462.0 L 425.0,689.0 L 402.0,809.0 L 384.0,868.0 L 352.0,918.0 L 332.0,929.0 L 244.0,863.0"/>
    <path d="M 105.0,587.0 L 133.0,623.0 L 157.0,787.0"/>
    <path d="M 144.0,585.0 L 152.0,592.0 L 171.0,591.0 L 248.0,570.0 L 260.0,571.0 L 275.0,583.0 L 284.0,594.0 L 266.0,665.0 L 243.0,689.0"/>
    <path d="M 173.0,744.0 L 189.0,728.0 L 240.0,716.0 L 272.0,714.0 L 296.0,720.0"/>
    <path d="M 505.0,551.0 L 550.0,560.0 L 795.0,502.0 L 812.0,507.0 L 833.0,527.0 L 801.0,751.0 L 772.0,863.0 L 747.0,919.0 L 719.0,951.0 L 701.0,958.0 L 601.0,901.0"/>
    <path d="M 662.0,241.0 L 699.0,288.0 L 672.0,468.0 L 637.0,613.0 L 594.0,727.0 L 542.0,827.0 L 465.0,935.0 L 418.0,982.0"/>
  </g>
</svg>
