<svg xmlns="http://www.w3.org/2000/svg" viewBox="0 0 1024 1024">
  <g style="fill:none;stroke:#000000;stroke-width:50;stroke-linecap:round;stroke-linejoin:round;" transform="scale(1, 1) translate(0, 0)">
    <path d="M 242.0,285.0 L 264.0,291.0 L 313.0,290.0 L 459.0,256.0 L 520.0,254.0"/>
    <path d="M 192.0,349.0 L 217.0,398.0 L 132.0,569.0 L 218.0,632.0 L 238.0,676.0"/>
    <path d="M 329.0,342.0 L 351.0,358.0 L 362.0,384.0 L 330.0,456.0 L 293.0,519.0 L 309.0,542.0 L 365.0,582.0 L 376.0,612.0"/>
    <path d="M 483.0,332.0 L 497.0,344.0 L 508.0,371.0 L 451.0,474.0 L 447.0,494.0 L 460.0,510.0 L 511.0,547.0 L 524.0,577.0"/>
    <path d="M 229.0,727.0 L 251.0,733.0 L 290.0,731.0 L 439.0,694.0 L 492.0,692.0"/>
    <path d="M 339.0,747.0 L 360.0,766.0 L 356.0,822.0 L 338.0,839.0"/>
    <path d="M 120.0,908.0 L 175.0,927.0 L 513.0,815.0"/>
    <path d="M 573.0,535.0 L 583.0,541.0 L 623.0,544.0 L 856.0,489.0 L 872.0,494.0 L 893.0,514.0 L 849.0,800.0 L 816.0,899.0 L 795.0,935.0 L 764.0,960.0 L 695.0,913.0"/>
    <path d="M 718.0,271.0 L 739.0,294.0 L 753.0,326.0 L 711.0,537.0 L 668.0,673.0 L 620.0,782.0 L 559.0,884.0 L 499.0,962.0 L 434.0,1026.0"/>
  </g>
</svg>
