<svg xmlns="http://www.w3.org/2000/svg" viewBox="0 0 1024 1024">
  <g style="fill:none;stroke:#000000;stroke-width:50;stroke-linecap:round;stroke-linejoin:round;" transform="scale(1, 1) translate(0, 0)">
    <path d="M 339.0,171.0 L 362.0,209.0 L 353.0,233.0 L 257.0,358.0 L 187.0,422.0 L 164.0,435.0"/>
    <path d="M 318.0,326.0 L 369.0,319.0 L 422.0,303.0 L 460.0,308.0 L 471.0,318.0 L 454.0,347.0 L 408.0,400.0 L 349.0,462.0 L 325.0,478.0"/>
    <path d="M 150.0,502.0 L 180.0,524.0 L 187.0,538.0 L 223.0,677.0"/>
    <path d="M 208.0,504.0 L 222.0,513.0 L 359.0,490.0 L 438.0,467.0 L 479.0,471.0 L 505.0,500.0 L 467.0,584.0 L 442.0,594.0"/>
    <path d="M 242.0,665.0 L 260.0,653.0 L 431.0,624.0 L 482.0,624.0 L 498.0,632.0"/>
    <path d="M 320.0,513.0 L 343.0,531.0 L 348.0,544.0 L 310.0,673.0 L 275.0,758.0 L 240.0,823.0 L 185.0,902.0 L 93.0,990.0"/>
    <path d="M 363.0,662.0 L 386.0,678.0 L 373.0,838.0 L 388.0,915.0 L 417.0,952.0 L 450.0,973.0 L 545.0,1006.0 L 636.0,1018.0 L 711.0,1017.0 L 828.0,995.0 L 887.0,969.0 L 922.0,941.0 L 940.0,792.0"/>
    <path d="M 571.0,545.0 L 598.0,554.0 L 623.0,553.0 L 811.0,518.0 L 839.0,541.0 L 810.0,702.0 L 796.0,756.0 L 763.0,835.0 L 727.0,868.0 L 662.0,824.0"/>
    <path d="M 695.0,261.0 L 729.0,302.0 L 713.0,431.0 L 673.0,598.0 L 627.0,708.0 L 587.0,779.0 L 521.0,865.0 L 501.0,882.0"/>
  </g>
</svg>
