<svg xmlns="http://www.w3.org/2000/svg" viewBox="0 0 1024 1024">
  <g style="fill:none;stroke:#000000;stroke-width:50;stroke-linecap:round;stroke-linejoin:round;" transform="scale(1, 1) translate(0, 0)">
    <path d="M 195.0,269.0 L 227.0,301.0 L 260.0,446.0"/>
    <path d="M 253.0,274.0 L 263.0,282.0 L 422.0,249.0 L 451.0,252.0 L 481.0,283.0 L 461.0,339.0 L 433.0,355.0"/>
    <path d="M 279.0,409.0 L 289.0,416.0 L 432.0,387.0 L 474.0,385.0 L 494.0,391.0"/>
    <path d="M 186.0,503.0 L 207.0,523.0 L 219.0,545.0 L 222.0,653.0 L 205.0,800.0 L 207.0,848.0"/>
    <path d="M 242.0,518.0 L 254.0,526.0 L 270.0,526.0 L 277.0,520.0 L 317.0,515.0 L 430.0,485.0 L 448.0,487.0 L 476.0,517.0 L 471.0,597.0 L 475.0,769.0 L 467.0,840.0"/>
    <path d="M 302.0,580.0 L 327.0,591.0 L 352.0,618.0 L 342.0,774.0 L 314.0,892.0 L 283.0,948.0 L 242.0,987.0 L 164.0,1026.0 L 136.0,1033.0"/>
    <path d="M 382.0,855.0 L 443.0,914.0 L 459.0,953.0"/>
    <path d="M 554.0,582.0 L 597.0,589.0 L 837.0,529.0 L 860.0,532.0 L 881.0,552.0 L 851.0,797.0 L 831.0,879.0 L 803.0,949.0 L 786.0,972.0 L 763.0,988.0 L 665.0,922.0"/>
    <path d="M 695.0,318.0 L 732.0,362.0 L 710.0,522.0 L 677.0,664.0 L 623.0,800.0 L 586.0,870.0 L 538.0,940.0 L 477.0,1007.0"/>
  </g>
</svg>
