<svg xmlns="http://www.w3.org/2000/svg" viewBox="0 0 1024 1024">
  <g style="fill:none;stroke:#000000;stroke-width:50;stroke-linecap:round;stroke-linejoin:round;" transform="scale(1, 1) translate(0, 0)">
    <path d="M 127.0,388.0 L 199.0,389.0 L 478.0,330.0 L 505.0,327.0 L 541.0,333.0"/>
    <path d="M 220.0,245.0 L 240.0,252.0 L 262.0,272.0 L 285.0,497.0"/>
    <path d="M 426.0,181.0 L 459.0,222.0 L 416.0,413.0 L 398.0,431.0"/>
    <path d="M 299.0,488.0 L 322.0,474.0 L 393.0,459.0 L 422.0,457.0 L 448.0,464.0"/>
    <path d="M 160.0,589.0 L 192.0,616.0 L 228.0,738.0"/>
    <path d="M 220.0,608.0 L 235.0,597.0 L 365.0,573.0 L 373.0,565.0 L 445.0,556.0 L 458.0,560.0 L 476.0,581.0 L 455.0,641.0 L 439.0,649.0"/>
    <path d="M 243.0,704.0 L 262.0,710.0 L 427.0,677.0 L 478.0,683.0"/>
    <path d="M 80.0,847.0 L 110.0,855.0 L 146.0,853.0 L 437.0,782.0 L 496.0,784.0"/>
    <path d="M 305.0,496.0 L 333.0,521.0 L 336.0,548.0 L 328.0,963.0 L 342.0,1039.0"/>
    <path d="M 537.0,561.0 L 564.0,569.0 L 595.0,567.0 L 828.0,511.0 L 855.0,516.0 L 873.0,534.0 L 836.0,781.0 L 805.0,889.0 L 785.0,932.0 L 762.0,960.0 L 741.0,973.0 L 659.0,919.0"/>
    <path d="M 691.0,258.0 L 714.0,279.0 L 729.0,305.0 L 707.0,501.0 L 682.0,619.0 L 654.0,708.0 L 609.0,812.0 L 558.0,899.0 L 477.0,998.0"/>
  </g>
</svg>
