<svg xmlns="http://www.w3.org/2000/svg" viewBox="0 0 1024 1024">
  <g style="fill:none;stroke:#000000;stroke-width:50;stroke-linecap:round;stroke-linejoin:round;" transform="scale(1, 1) translate(0, 0)">
    <path d="M 208.0,313.0 L 230.0,319.0 L 282.0,319.0 L 486.0,291.0 L 738.0,267.0 L 778.0,268.0 L 824.0,282.0"/>
    <path d="M 364.0,199.0 L 401.0,225.0 L 424.0,349.0"/>
    <path d="M 600.0,151.0 L 614.0,158.0 L 632.0,189.0 L 576.0,337.0"/>
    <path d="M 304.0,388.0 L 333.0,413.0 L 376.0,578.0"/>
    <path d="M 361.0,416.0 L 372.0,402.0 L 457.0,384.0 L 586.0,371.0 L 600.0,365.0 L 640.0,365.0 L 663.0,374.0 L 676.0,390.0 L 681.0,412.0 L 647.0,505.0 L 626.0,544.0 L 627.0,564.0"/>
    <path d="M 382.0,491.0 L 390.0,483.0 L 403.0,485.0 L 414.0,478.0 L 479.0,468.0 L 557.0,458.0 L 576.0,462.0"/>
    <path d="M 393.0,562.0 L 411.0,553.0 L 593.0,526.0"/>
    <path d="M 170.0,669.0 L 222.0,677.0 L 468.0,643.0 L 785.0,617.0 L 829.0,621.0 L 875.0,636.0"/>
    <path d="M 417.0,575.0 L 439.0,599.0 L 429.0,619.0 L 375.0,704.0 L 320.0,762.0 L 249.0,816.0 L 172.0,857.0 L 113.0,878.0"/>
    <path d="M 608.0,650.0 L 629.0,660.0 L 718.0,739.0 L 809.0,806.0 L 870.0,820.0 L 980.0,831.0"/>
    <path d="M 294.0,849.0 L 323.0,858.0 L 352.0,858.0 L 620.0,809.0 L 642.0,808.0 L 658.0,815.0 L 672.0,831.0 L 658.0,898.0 L 634.0,972.0 L 601.0,1017.0 L 582.0,1030.0 L 575.0,1028.0 L 500.0,985.0"/>
    <path d="M 474.0,731.0 L 495.0,765.0 L 469.0,838.0 L 434.0,902.0 L 399.0,948.0 L 342.0,1004.0 L 294.0,1040.0 L 247.0,1064.0"/>
  </g>
</svg>
