<svg xmlns="http://www.w3.org/2000/svg" viewBox="0 0 1024 1024">
  <g style="fill:none;stroke:#000000;stroke-width:50;stroke-linecap:round;stroke-linejoin:round;" transform="scale(1, 1) translate(0, 0)">
    <path d="M 358.0,224.0 L 389.0,260.0 L 392.0,272.0 L 382.0,293.0 L 342.0,367.0 L 301.0,425.0 L 244.0,494.0 L 207.0,525.0"/>
    <path d="M 351.0,412.0 L 364.0,404.0 L 415.0,404.0 L 504.0,391.0 L 741.0,347.0 L 778.0,355.0 L 809.0,385.0 L 801.0,450.0 L 802.0,553.0 L 790.0,744.0 L 768.0,870.0 L 739.0,954.0 L 710.0,997.0 L 675.0,1026.0 L 577.0,971.0 L 572.0,962.0 L 557.0,958.0"/>
    <path d="M 352.0,451.0 L 364.0,462.0 L 373.0,486.0 L 361.0,512.0 L 306.0,586.0 L 266.0,614.0"/>
    <path d="M 367.0,548.0 L 422.0,546.0 L 480.0,535.0 L 549.0,512.0 L 606.0,509.0"/>
    <path d="M 181.0,708.0 L 233.0,713.0 L 350.0,685.0 L 621.0,639.0 L 678.0,642.0 L 714.0,652.0"/>
    <path d="M 437.0,567.0 L 470.0,598.0 L 466.0,816.0 L 449.0,841.0"/>
    <path d="M 282.0,752.0 L 309.0,795.0 L 297.0,894.0 L 304.0,901.0 L 334.0,900.0 L 407.0,876.0 L 578.0,843.0 L 592.0,829.0"/>
    <path d="M 604.0,715.0 L 628.0,748.0 L 616.0,879.0 L 618.0,917.0"/>
  </g>
</svg>
