<svg xmlns="http://www.w3.org/2000/svg" viewBox="0 0 1024 1024">
  <g style="fill:none;stroke:#000000;stroke-width:50;stroke-linecap:round;stroke-linejoin:round;" transform="scale(1, 1) translate(0, 0)">
    <path d="M 376.0,204.0 L 387.0,213.0 L 402.0,244.0 L 386.0,280.0 L 301.0,401.0 L 243.0,456.0"/>
    <path d="M 361.0,370.0 L 722.0,314.0 L 747.0,324.0 L 779.0,351.0 L 786.0,531.0 L 784.0,707.0 L 773.0,831.0 L 759.0,903.0 L 740.0,956.0 L 705.0,998.0 L 615.0,950.0 L 596.0,946.0"/>
    <path d="M 164.0,549.0 L 207.0,556.0 L 348.0,533.0 L 564.0,510.0 L 614.0,514.0 L 646.0,525.0"/>
    <path d="M 243.0,620.0 L 269.0,643.0 L 274.0,675.0 L 271.0,769.0 L 251.0,868.0 L 248.0,925.0"/>
    <path d="M 295.0,632.0 L 313.0,638.0 L 513.0,604.0 L 542.0,611.0 L 562.0,629.0 L 564.0,876.0 L 556.0,910.0 L 539.0,933.0 L 456.0,896.0"/>
    <path d="M 337.0,720.0 L 438.0,700.0 L 485.0,703.0"/>
    <path d="M 324.0,809.0 L 368.0,806.0 L 441.0,788.0 L 496.0,791.0"/>
    <path d="M 373.0,443.0 L 408.0,476.0 L 403.0,951.0"/>
    <path d="M 494.0,401.0 L 547.0,425.0 L 561.0,438.0"/>
  </g>
</svg>
