<svg xmlns="http://www.w3.org/2000/svg" viewBox="0 0 1024 1024">
  <g style="fill:none;stroke:#000000;stroke-width:50;stroke-linecap:round;stroke-linejoin:round;" transform="scale(1, 1) translate(0, 0)">
    <path d="M 303.0,326.0 L 320.0,305.0 L 702.0,251.0 L 740.0,249.0 L 788.0,259.0"/>
    <path d="M 358.0,405.0 L 386.0,429.0 L 395.0,458.0 L 436.0,685.0"/>
    <path d="M 421.0,435.0 L 432.0,419.0 L 515.0,406.0 L 522.0,400.0 L 686.0,374.0 L 739.0,383.0 L 765.0,418.0 L 711.0,625.0 L 702.0,641.0 L 677.0,642.0"/>
    <path d="M 475.0,541.0 L 604.0,517.0 L 652.0,520.0"/>
    <path d="M 455.0,662.0 L 473.0,652.0 L 671.0,619.0"/>
    <path d="M 537.0,418.0 L 572.0,444.0 L 563.0,900.0"/>
    <path d="M 217.0,273.0 L 229.0,277.0 L 254.0,302.0 L 260.0,345.0 L 256.0,716.0 L 238.0,972.0 L 286.0,978.0 L 510.0,949.0 L 772.0,934.0 L 805.0,935.0 L 875.0,955.0"/>
  </g>
</svg>
