<svg xmlns="http://www.w3.org/2000/svg" viewBox="0 0 1024 1024">
  <g style="fill:none;stroke:#000000;stroke-width:50;stroke-linecap:round;stroke-linejoin:round;" transform="scale(1, 1) translate(0, 0)">
    <path d="M 289.0,315.0 L 308.0,327.0 L 380.0,328.0 L 717.0,277.0 L 774.0,278.0"/>
    <path d="M 328.0,502.0 L 395.0,501.0 L 499.0,469.0 L 542.0,466.0"/>
    <path d="M 422.0,374.0 L 437.0,396.0 L 445.0,425.0 L 411.0,523.0 L 363.0,633.0 L 354.0,672.0 L 377.0,675.0 L 512.0,641.0 L 539.0,646.0"/>
    <path d="M 441.0,571.0 L 456.0,587.0 L 462.0,606.0 L 455.0,857.0 L 465.0,909.0"/>
    <path d="M 288.0,807.0 L 335.0,815.0 L 525.0,727.0 L 549.0,710.0"/>
    <path d="M 623.0,390.0 L 651.0,426.0 L 643.0,548.0 L 627.0,639.0 L 593.0,739.0 L 553.0,807.0 L 519.0,849.0"/>
    <path d="M 544.0,552.0 L 598.0,549.0 L 700.0,513.0 L 732.0,511.0 L 751.0,518.0 L 733.0,649.0 L 739.0,733.0 L 751.0,770.0 L 768.0,798.0 L 789.0,820.0 L 817.0,836.0 L 842.0,840.0 L 846.0,833.0 L 864.0,789.0 L 884.0,706.0"/>
    <path d="M 214.0,304.0 L 253.0,338.0 L 256.0,366.0 L 242.0,829.0 L 226.0,980.0 L 273.0,986.0 L 447.0,963.0 L 774.0,945.0 L 805.0,949.0 L 860.0,968.0"/>
  </g>
</svg>
