<svg xmlns="http://www.w3.org/2000/svg" viewBox="0 0 1024 1024">
  <g style="fill:none;stroke:#000000;stroke-width:50;stroke-linecap:round;stroke-linejoin:round;" transform="scale(1, 1) translate(0, 0)">
    <path d="M 262.0,271.0 L 284.0,285.0 L 347.0,289.0 L 563.0,266.0 L 719.0,240.0 L 786.0,242.0"/>
    <path d="M 307.0,463.0 L 328.0,468.0 L 369.0,464.0 L 473.0,434.0 L 508.0,433.0"/>
    <path d="M 275.0,548.0 L 296.0,564.0 L 308.0,589.0 L 337.0,715.0"/>
    <path d="M 321.0,548.0 L 331.0,555.0 L 464.0,517.0 L 499.0,515.0 L 515.0,520.0 L 532.0,539.0 L 495.0,673.0 L 499.0,688.0"/>
    <path d="M 362.0,620.0 L 440.0,598.0 L 474.0,600.0"/>
    <path d="M 350.0,699.0 L 391.0,681.0 L 467.0,662.0"/>
    <path d="M 259.0,803.0 L 304.0,806.0 L 464.0,757.0 L 520.0,747.0 L 540.0,750.0"/>
    <path d="M 381.0,340.0 L 418.0,378.0 L 412.0,758.0 L 403.0,855.0 L 403.0,936.0"/>
    <path d="M 627.0,336.0 L 643.0,342.0 L 671.0,371.0 L 658.0,540.0 L 640.0,646.0 L 609.0,745.0 L 574.0,811.0 L 529.0,864.0 L 488.0,892.0"/>
    <path d="M 574.0,515.0 L 626.0,513.0 L 730.0,478.0 L 759.0,475.0 L 775.0,484.0 L 746.0,654.0 L 746.0,717.0 L 761.0,782.0 L 782.0,817.0 L 810.0,842.0 L 844.0,856.0 L 889.0,849.0 L 909.0,720.0"/>
    <path d="M 191.0,261.0 L 210.0,270.0 L 230.0,297.0 L 234.0,422.0 L 223.0,740.0 L 202.0,997.0 L 266.0,1001.0 L 477.0,970.0 L 492.0,973.0 L 525.0,966.0 L 770.0,950.0 L 855.0,971.0"/>
  </g>
</svg>
