<svg xmlns="http://www.w3.org/2000/svg" viewBox="0 0 1024 1024">
  <g style="fill:none;stroke:#000000;stroke-width:50;stroke-linecap:round;stroke-linejoin:round;" transform="scale(1, 1) translate(0, 0)">
    <path d="M 309.0,277.0 L 322.0,291.0 L 418.0,289.0 L 561.0,270.0 L 734.0,238.0 L 794.0,241.0"/>
    <path d="M 466.0,379.0 L 495.0,409.0 L 500.0,426.0 L 501.0,658.0 L 481.0,816.0 L 484.0,860.0"/>
    <path d="M 331.0,498.0 L 366.0,504.0 L 459.0,483.0 L 469.0,490.0"/>
    <path d="M 342.0,606.0 L 386.0,609.0 L 461.0,589.0 L 471.0,596.0"/>
    <path d="M 304.0,741.0 L 346.0,748.0 L 465.0,689.0"/>
    <path d="M 601.0,324.0 L 643.0,367.0 L 638.0,452.0 L 638.0,880.0"/>
    <path d="M 668.0,456.0 L 700.0,462.0 L 775.0,444.0 L 806.0,445.0"/>
    <path d="M 667.0,578.0 L 676.0,584.0 L 697.0,584.0 L 770.0,573.0 L 800.0,575.0"/>
    <path d="M 666.0,732.0 L 681.0,725.0 L 782.0,713.0 L 804.0,712.0 L 841.0,723.0"/>
    <path d="M 225.0,260.0 L 243.0,270.0 L 266.0,299.0 L 268.0,373.0 L 251.0,824.0 L 235.0,969.0 L 277.0,973.0 L 461.0,948.0 L 804.0,929.0 L 838.0,932.0 L 899.0,951.0"/>
  </g>
</svg>
