<svg xmlns="http://www.w3.org/2000/svg" viewBox="0 0 1024 1024">
  <g style="fill:none;stroke:#000000;stroke-width:50;stroke-linecap:round;stroke-linejoin:round;" transform="scale(1, 1) translate(0, 0)">
    <path d="M 289.0,237.0 L 308.0,251.0 L 400.0,249.0 L 703.0,199.0 L 758.0,201.0"/>
    <path d="M 382.0,350.0 L 410.0,372.0 L 443.0,471.0"/>
    <path d="M 424.0,347.0 L 446.0,356.0 L 475.0,352.0 L 664.0,313.0 L 681.0,320.0 L 701.0,341.0 L 688.0,373.0 L 665.0,391.0"/>
    <path d="M 455.0,442.0 L 467.0,449.0 L 664.0,415.0 L 695.0,414.0 L 720.0,422.0"/>
    <path d="M 522.0,276.0 L 556.0,305.0 L 550.0,477.0 L 537.0,495.0"/>
    <path d="M 296.0,545.0 L 339.0,551.0 L 625.0,501.0 L 779.0,482.0 L 836.0,480.0 L 882.0,493.0"/>
    <path d="M 416.0,580.0 L 428.0,591.0 L 442.0,621.0 L 445.0,700.0 L 439.0,788.0 L 445.0,836.0"/>
    <path d="M 459.0,589.0 L 479.0,596.0 L 640.0,558.0 L 663.0,564.0 L 675.0,575.0 L 690.0,594.0 L 675.0,825.0"/>
    <path d="M 466.0,678.0 L 478.0,667.0 L 553.0,652.0 L 586.0,647.0 L 604.0,651.0"/>
    <path d="M 470.0,747.0 L 475.0,737.0 L 552.0,723.0 L 597.0,718.0 L 617.0,723.0"/>
    <path d="M 460.0,821.0 L 478.0,806.0 L 610.0,790.0 L 642.0,781.0"/>
    <path d="M 530.0,876.0 L 491.0,879.0 L 439.0,927.0 L 355.0,974.0"/>
    <path d="M 612.0,850.0 L 680.0,892.0 L 701.0,916.0 L 708.0,936.0"/>
    <path d="M 203.0,220.0 L 222.0,231.0 L 247.0,263.0 L 239.0,722.0 L 215.0,1019.0 L 273.0,1026.0 L 395.0,1008.0 L 763.0,985.0 L 823.0,985.0 L 900.0,1009.0"/>
  </g>
</svg>
