<svg xmlns="http://www.w3.org/2000/svg" viewBox="0 0 1024 1024">
  <g style="fill:none;stroke:#000000;stroke-width:50;stroke-linecap:round;stroke-linejoin:round;" transform="scale(1, 1) translate(0, 0)">
    <path d="M 281.0,313.0 L 305.0,327.0 L 348.0,331.0 L 570.0,311.0 L 754.0,281.0 L 812.0,284.0"/>
    <path d="M 426.0,405.0 L 464.0,436.0 L 457.0,525.0 L 438.0,606.0 L 394.0,683.0 L 365.0,712.0 L 308.0,747.0"/>
    <path d="M 587.0,333.0 L 616.0,354.0 L 628.0,379.0 L 616.0,441.0 L 608.0,582.0 L 617.0,651.0 L 634.0,676.0 L 657.0,689.0 L 713.0,701.0 L 774.0,703.0 L 839.0,690.0 L 848.0,683.0 L 849.0,668.0 L 844.0,541.0"/>
    <path d="M 209.0,304.0 L 228.0,314.0 L 250.0,345.0 L 250.0,509.0 L 239.0,746.0 L 223.0,892.0 L 272.0,898.0 L 523.0,871.0 L 778.0,860.0 L 816.0,861.0 L 884.0,884.0"/>
  </g>
</svg>
