<svg xmlns="http://www.w3.org/2000/svg" viewBox="0 0 1024 1024">
  <g style="fill:none;stroke:#000000;stroke-width:50;stroke-linecap:round;stroke-linejoin:round;" transform="scale(1, 1) translate(0, 0)">
    <path d="M 437.0,183.0 L 450.0,192.0 L 468.0,221.0 L 374.0,333.0 L 342.0,352.0"/>
    <path d="M 252.0,359.0 L 286.0,385.0 L 320.0,500.0 L 351.0,637.0"/>
    <path d="M 319.0,366.0 L 342.0,375.0 L 660.0,315.0 L 694.0,316.0 L 715.0,324.0 L 743.0,359.0 L 687.0,534.0 L 662.0,591.0 L 664.0,622.0"/>
    <path d="M 391.0,478.0 L 456.0,480.0 L 565.0,449.0 L 613.0,446.0"/>
    <path d="M 370.0,624.0 L 389.0,609.0 L 605.0,576.0 L 630.0,564.0"/>
    <path d="M 464.0,373.0 L 494.0,394.0 L 498.0,404.0 L 482.0,536.0 L 461.0,599.0 L 437.0,648.0 L 362.0,746.0"/>
    <path d="M 115.0,794.0 L 150.0,803.0 L 180.0,803.0 L 410.0,762.0 L 838.0,717.0 L 877.0,722.0 L 936.0,740.0"/>
    <path d="M 526.0,643.0 L 545.0,654.0 L 565.0,678.0 L 563.0,1093.0"/>
  </g>
</svg>
