<svg xmlns="http://www.w3.org/2000/svg" viewBox="0 0 1024 1024">
  <g style="fill:none;stroke:#000000;stroke-width:50;stroke-linecap:round;stroke-linejoin:round;" transform="scale(1, 1) translate(0, 0)">
    <path d="M 319.0,367.0 L 343.0,375.0 L 395.0,377.0 L 513.0,360.0 L 668.0,327.0 L 733.0,326.0"/>
    <path d="M 482.0,193.0 L 504.0,205.0 L 525.0,232.0 L 520.0,462.0 L 512.0,542.0"/>
    <path d="M 102.0,667.0 L 167.0,686.0 L 433.0,646.0 L 849.0,605.0 L 905.0,618.0 L 942.0,634.0"/>
    <path d="M 339.0,523.0 L 354.0,529.0 L 378.0,559.0 L 372.0,681.0 L 357.0,754.0 L 329.0,819.0 L 288.0,878.0 L 242.0,921.0 L 191.0,955.0"/>
    <path d="M 631.0,482.0 L 642.0,488.0 L 663.0,521.0 L 665.0,836.0 L 659.0,965.0 L 675.0,1049.0"/>
  </g>
</svg>
