<svg xmlns="http://www.w3.org/2000/svg" viewBox="0 0 1024 1024">
  <g style="fill:none;stroke:#000000;stroke-width:50;stroke-linecap:round;stroke-linejoin:round;" transform="scale(1, 1) translate(0, 0)">
    <path d="M 95.0,560.0 L 124.0,563.0 L 180.0,556.0 L 362.0,497.0 L 418.0,491.0"/>
    <path d="M 232.0,227.0 L 261.0,251.0 L 283.0,282.0 L 269.0,684.0 L 248.0,934.0 L 247.0,1022.0"/>
    <path d="M 461.0,350.0 L 502.0,358.0 L 699.0,309.0 L 733.0,304.0 L 749.0,310.0 L 764.0,327.0 L 751.0,393.0 L 729.0,467.0 L 706.0,504.0 L 680.0,524.0 L 619.0,485.0"/>
    <path d="M 619.0,186.0 L 646.0,225.0 L 610.0,373.0 L 566.0,465.0 L 519.0,526.0 L 497.0,544.0"/>
    <path d="M 325.0,689.0 L 363.0,695.0 L 548.0,654.0 L 573.0,671.0 L 563.0,762.0 L 532.0,861.0 L 503.0,893.0 L 460.0,875.0"/>
    <path d="M 449.0,597.0 L 468.0,632.0 L 436.0,749.0 L 386.0,847.0 L 341.0,899.0 L 320.0,914.0"/>
    <path d="M 623.0,690.0 L 674.0,692.0 L 837.0,649.0 L 866.0,648.0 L 886.0,665.0 L 865.0,837.0 L 844.0,916.0 L 825.0,951.0 L 795.0,976.0 L 760.0,962.0 L 716.0,934.0"/>
    <path d="M 725.0,576.0 L 741.0,596.0 L 750.0,622.0 L 705.0,768.0 L 660.0,859.0 L 627.0,911.0 L 560.0,983.0 L 539.0,996.0"/>
  </g>
</svg>
