<svg xmlns="http://www.w3.org/2000/svg" viewBox="0 0 1024 1024">
  <g style="fill:none;stroke:#000000;stroke-width:50;stroke-linecap:round;stroke-linejoin:round;" transform="scale(1, 1) translate(0, 0)">
    <path d="M 469.0,172.0 L 548.0,217.0 L 569.0,240.0"/>
    <path d="M 303.0,339.0 L 323.0,345.0 L 399.0,344.0 L 683.0,295.0 L 729.0,296.0"/>
    <path d="M 359.0,404.0 L 383.0,437.0 L 353.0,505.0 L 310.0,567.0 L 239.0,630.0"/>
    <path d="M 361.0,541.0 L 375.0,541.0 L 424.0,577.0 L 435.0,589.0 L 442.0,615.0"/>
    <path d="M 638.0,357.0 L 663.0,391.0 L 632.0,465.0 L 602.0,512.0 L 570.0,548.0 L 544.0,570.0 L 537.0,568.0"/>
    <path d="M 642.0,501.0 L 658.0,501.0 L 718.0,538.0 L 740.0,558.0 L 757.0,586.0"/>
    <path d="M 112.0,730.0 L 168.0,741.0 L 413.0,705.0 L 828.0,668.0 L 918.0,692.0"/>
    <path d="M 483.0,575.0 L 515.0,601.0 L 523.0,627.0 L 515.0,1077.0"/>
  </g>
</svg>
