<svg xmlns="http://www.w3.org/2000/svg" viewBox="0 0 1024 1024">
  <g style="fill:none;stroke:#000000;stroke-width:50;stroke-linecap:round;stroke-linejoin:round;" transform="scale(1, 1) translate(0, 0)">
    <path d="M 315.0,381.0 L 356.0,389.0 L 410.0,386.0 L 652.0,341.0 L 695.0,342.0"/>
    <path d="M 476.0,180.0 L 515.0,228.0 L 455.0,505.0 L 435.0,524.0"/>
    <path d="M 158.0,557.0 L 185.0,587.0 L 198.0,614.0 L 204.0,725.0 L 200.0,905.0 L 212.0,971.0"/>
    <path d="M 207.0,568.0 L 235.0,579.0 L 467.0,542.0 L 779.0,516.0 L 808.0,516.0 L 832.0,531.0 L 848.0,553.0 L 841.0,728.0 L 832.0,838.0 L 813.0,936.0 L 782.0,985.0 L 685.0,948.0 L 666.0,933.0"/>
    <path d="M 362.0,598.0 L 404.0,651.0 L 408.0,668.0"/>
    <path d="M 564.0,556.0 L 585.0,586.0 L 537.0,674.0 L 518.0,689.0"/>
    <path d="M 339.0,724.0 L 385.0,730.0 L 577.0,698.0 L 655.0,700.0"/>
    <path d="M 316.0,834.0 L 368.0,838.0 L 615.0,805.0 L 661.0,809.0 L 689.0,818.0"/>
    <path d="M 454.0,742.0 L 485.0,766.0 L 483.0,1003.0"/>
  </g>
</svg>
