<svg xmlns="http://www.w3.org/2000/svg" viewBox="0 0 1024 1024">
  <g style="fill:none;stroke:#000000;stroke-width:50;stroke-linecap:round;stroke-linejoin:round;" transform="scale(1, 1) translate(0, 0)">
    <path d="M 471.0,176.0 L 513.0,209.0 L 512.0,378.0 L 509.0,390.0 L 497.0,400.0"/>
    <path d="M 545.0,291.0 L 564.0,281.0 L 665.0,263.0 L 719.0,261.0"/>
    <path d="M 284.0,435.0 L 313.0,457.0 L 323.0,475.0 L 375.0,685.0"/>
    <path d="M 347.0,432.0 L 359.0,446.0 L 640.0,400.0 L 703.0,409.0 L 727.0,440.0 L 664.0,641.0 L 666.0,661.0"/>
    <path d="M 379.0,563.0 L 386.0,554.0 L 551.0,525.0 L 574.0,523.0 L 595.0,529.0"/>
    <path d="M 395.0,663.0 L 428.0,651.0 L 635.0,622.0"/>
    <path d="M 99.0,814.0 L 153.0,826.0 L 413.0,791.0 L 829.0,760.0 L 881.0,765.0 L 930.0,780.0"/>
    <path d="M 478.0,661.0 L 522.0,698.0 L 519.0,1089.0"/>
  </g>
</svg>
