<svg xmlns="http://www.w3.org/2000/svg" viewBox="0 0 1024 1024">
  <g style="fill:none;stroke:#000000;stroke-width:50;stroke-linecap:round;stroke-linejoin:round;" transform="scale(1, 1) translate(0, 0)">
    <path d="M 87.0,526.0 L 158.0,524.0 L 321.0,473.0 L 362.0,468.0 L 377.0,472.0"/>
    <path d="M 213.0,248.0 L 255.0,289.0 L 265.0,312.0 L 252.0,756.0 L 235.0,930.0 L 235.0,1018.0"/>
    <path d="M 479.0,306.0 L 502.0,311.0 L 543.0,306.0 L 687.0,266.0 L 733.0,262.0"/>
    <path d="M 394.0,399.0 L 424.0,427.0 L 431.0,447.0 L 448.0,606.0 L 461.0,644.0"/>
    <path d="M 453.0,417.0 L 470.0,425.0 L 700.0,368.0 L 741.0,364.0 L 772.0,374.0 L 794.0,403.0 L 773.0,461.0 L 742.0,590.0"/>
    <path d="M 508.0,496.0 L 637.0,463.0 L 660.0,460.0 L 681.0,465.0"/>
    <path d="M 508.0,577.0 L 645.0,545.0 L 684.0,548.0"/>
    <path d="M 547.0,183.0 L 571.0,190.0 L 596.0,220.0 L 590.0,276.0 L 583.0,648.0"/>
    <path d="M 756.0,209.0 L 814.0,247.0 L 830.0,271.0"/>
    <path d="M 322.0,760.0 L 377.0,766.0 L 556.0,731.0 L 852.0,694.0 L 904.0,696.0 L 953.0,709.0"/>
    <path d="M 652.0,614.0 L 700.0,663.0 L 698.0,981.0 L 680.0,1017.0 L 643.0,1005.0 L 571.0,963.0"/>
    <path d="M 484.0,795.0 L 548.0,848.0 L 559.0,876.0"/>
  </g>
</svg>
