<svg xmlns="http://www.w3.org/2000/svg" viewBox="0 0 1024 1024">
  <g style="fill:none;stroke:#000000;stroke-width:50;stroke-linecap:round;stroke-linejoin:round;" transform="scale(1, 1) translate(0, 0)">
    <path d="M 452.0,228.0 L 509.0,274.0 L 510.0,288.0 L 501.0,667.0 L 479.0,692.0"/>
    <path d="M 542.0,469.0 L 563.0,454.0 L 644.0,441.0 L 729.0,418.0 L 794.0,418.0"/>
    <path d="M 241.0,717.0 L 276.0,745.0 L 290.0,777.0 L 347.0,1055.0"/>
    <path d="M 308.0,722.0 L 333.0,737.0 L 347.0,736.0 L 487.0,719.0 L 656.0,685.0 L 698.0,686.0 L 736.0,717.0 L 743.0,737.0 L 698.0,896.0 L 666.0,923.0"/>
    <path d="M 371.0,1007.0 L 383.0,990.0 L 651.0,957.0 L 714.0,959.0 L 739.0,969.0"/>
  </g>
</svg>
