<svg xmlns="http://www.w3.org/2000/svg" viewBox="0 0 1024 1024">
  <g style="fill:none;stroke:#000000;stroke-width:50;stroke-linecap:round;stroke-linejoin:round;" transform="scale(1, 1) translate(0, 0)">
    <path d="M 451.0,211.0 L 474.0,226.0 L 495.0,252.0 L 487.0,437.0 L 470.0,460.0"/>
    <path d="M 527.0,342.0 L 541.0,329.0 L 597.0,320.0 L 701.0,290.0 L 738.0,289.0"/>
    <path d="M 242.0,480.0 L 266.0,508.0 L 277.0,534.0 L 279.0,569.0 L 270.0,832.0 L 255.0,959.0 L 260.0,1025.0"/>
    <path d="M 288.0,492.0 L 318.0,503.0 L 373.0,497.0 L 491.0,481.0 L 677.0,444.0 L 708.0,450.0 L 747.0,483.0 L 752.0,926.0 L 737.0,978.0 L 740.0,1045.0"/>
    <path d="M 309.0,679.0 L 317.0,673.0 L 369.0,668.0 L 515.0,635.0 L 547.0,665.0 L 522.0,744.0 L 505.0,751.0"/>
    <path d="M 300.0,804.0 L 313.0,813.0 L 333.0,811.0 L 493.0,784.0 L 549.0,792.0"/>
    <path d="M 290.0,988.0 L 307.0,974.0 L 327.0,971.0 L 684.0,942.0"/>
  </g>
</svg>
