<svg xmlns="http://www.w3.org/2000/svg" viewBox="0 0 1024 1024">
  <g style="fill:none;stroke:#000000;stroke-width:50;stroke-linecap:round;stroke-linejoin:round;" transform="scale(1, 1) translate(0, 0)">
    <path d="M 475.0,215.0 L 518.0,252.0 L 510.0,457.0 L 494.0,481.0"/>
    <path d="M 546.0,362.0 L 560.0,353.0 L 677.0,330.0 L 725.0,330.0"/>
    <path d="M 367.0,511.0 L 386.0,523.0 L 634.0,473.0 L 675.0,475.0 L 709.0,507.0 L 681.0,591.0 L 653.0,610.0"/>
    <path d="M 358.0,687.0 L 377.0,676.0 L 638.0,641.0 L 690.0,642.0 L 718.0,651.0"/>
    <path d="M 293.0,495.0 L 321.0,520.0 L 333.0,548.0 L 320.0,696.0 L 308.0,767.0 L 289.0,829.0 L 259.0,893.0 L 225.0,944.0 L 180.0,990.0 L 114.0,1030.0"/>
  </g>
</svg>
