<svg xmlns="http://www.w3.org/2000/svg" viewBox="0 0 1024 1024">
  <g style="fill:none;stroke:#000000;stroke-width:50;stroke-linecap:round;stroke-linejoin:round;" transform="scale(1, 1) translate(0, 0)">
    <path d="M 474.0,212.0 L 516.0,248.0 L 509.0,443.0 L 494.0,464.0"/>
    <path d="M 546.0,345.0 L 557.0,338.0 L 615.0,331.0 L 685.0,312.0 L 742.0,309.0"/>
    <path d="M 258.0,472.0 L 287.0,506.0 L 295.0,549.0 L 287.0,838.0 L 275.0,915.0 L 280.0,997.0"/>
    <path d="M 319.0,492.0 L 337.0,504.0 L 372.0,501.0 L 702.0,452.0 L 733.0,468.0 L 755.0,492.0 L 759.0,930.0 L 745.0,969.0 L 677.0,954.0"/>
    <path d="M 584.0,525.0 L 600.0,562.0 L 596.0,585.0 L 513.0,735.0 L 468.0,788.0 L 420.0,832.0 L 356.0,871.0"/>
    <path d="M 399.0,607.0 L 601.0,787.0 L 637.0,834.0 L 648.0,870.0"/>
    <path d="M 310.0,963.0 L 324.0,951.0 L 612.0,930.0 L 689.0,931.0"/>
  </g>
</svg>
