<svg xmlns="http://www.w3.org/2000/svg" viewBox="0 0 1024 1024">
  <g style="fill:none;stroke:#000000;stroke-width:50;stroke-linecap:round;stroke-linejoin:round;" transform="scale(1, 1) translate(0, 0)">
    <path d="M 222.0,394.0 L 291.0,400.0 L 411.0,378.0 L 471.0,360.0 L 524.0,361.0"/>
    <path d="M 337.0,193.0 L 383.0,231.0 L 377.0,487.0 L 360.0,514.0"/>
    <path d="M 104.0,574.0 L 167.0,583.0 L 513.0,509.0 L 573.0,513.0"/>
    <path d="M 202.0,714.0 L 250.0,720.0 L 466.0,672.0 L 519.0,676.0"/>
    <path d="M 339.0,568.0 L 373.0,599.0 L 370.0,806.0 L 353.0,833.0"/>
    <path d="M 157.0,888.0 L 212.0,908.0 L 470.0,832.0 L 549.0,803.0"/>
    <path d="M 632.0,200.0 L 648.0,208.0 L 687.0,252.0 L 686.0,673.0 L 672.0,944.0 L 675.0,1045.0"/>
    <path d="M 709.0,466.0 L 721.0,467.0 L 728.0,480.0 L 785.0,499.0 L 871.0,541.0 L 909.0,570.0 L 930.0,599.0"/>
  </g>
</svg>
