<svg xmlns="http://www.w3.org/2000/svg" viewBox="0 0 1024 1024">
  <g style="fill:none;stroke:#000000;stroke-width:50;stroke-linecap:round;stroke-linejoin:round;" transform="scale(1, 1) translate(0, 0)">
    <path d="M 424.0,239.0 L 434.0,251.0 L 443.0,282.0 L 393.0,327.0 L 290.0,398.0 L 277.0,415.0"/>
    <path d="M 197.0,383.0 L 213.0,394.0 L 239.0,435.0 L 243.0,585.0 L 229.0,728.0 L 234.0,767.0 L 285.0,750.0 L 449.0,628.0"/>
    <path d="M 595.0,430.0 L 608.0,441.0 L 788.0,388.0 L 806.0,388.0 L 831.0,406.0 L 822.0,594.0 L 813.0,657.0 L 796.0,715.0 L 786.0,735.0 L 757.0,766.0 L 716.0,750.0 L 673.0,723.0"/>
    <path d="M 512.0,417.0 L 527.0,424.0 L 552.0,451.0 L 560.0,478.0 L 555.0,592.0 L 558.0,967.0 L 551.0,1094.0"/>
  </g>
</svg>
