<svg xmlns="http://www.w3.org/2000/svg" viewBox="0 0 1024 1024">
  <g style="fill:none;stroke:#000000;stroke-width:50;stroke-linecap:round;stroke-linejoin:round;" transform="scale(1, 1) translate(0, 0)">
    <path d="M 453.0,161.0 L 470.0,183.0 L 477.0,207.0 L 435.0,284.0 L 372.0,360.0 L 282.0,427.0"/>
    <path d="M 459.0,300.0 L 570.0,282.0 L 583.0,275.0 L 616.0,278.0 L 646.0,294.0 L 616.0,338.0 L 533.0,428.0 L 510.0,450.0 L 485.0,462.0"/>
    <path d="M 319.0,506.0 L 341.0,518.0 L 486.0,484.0 L 712.0,444.0 L 789.0,455.0"/>
    <path d="M 244.0,498.0 L 281.0,528.0 L 286.0,558.0 L 276.0,705.0 L 244.0,822.0 L 212.0,881.0 L 167.0,937.0 L 124.0,977.0 L 60.0,1021.0"/>
  </g>
</svg>
