<svg xmlns="http://www.w3.org/2000/svg" viewBox="0 0 1024 1024">
  <g style="fill:none;stroke:#000000;stroke-width:50;stroke-linecap:round;stroke-linejoin:round;" transform="scale(1, 1) translate(0, 0)">
    <path d="M 350.0,320.0 L 369.0,335.0 L 422.0,333.0 L 681.0,285.0 L 735.0,277.0 L 769.0,279.0"/>
    <path d="M 269.0,301.0 L 283.0,308.0 L 309.0,337.0 L 312.0,352.0 L 306.0,503.0 L 279.0,665.0 L 245.0,751.0 L 208.0,812.0 L 128.0,895.0 L 78.0,926.0"/>
    <path d="M 347.0,615.0 L 404.0,627.0 L 719.0,558.0 L 754.0,557.0 L 786.0,579.0 L 757.0,800.0 L 736.0,881.0 L 710.0,937.0 L 670.0,970.0 L 562.0,905.0"/>
    <path d="M 540.0,420.0 L 566.0,445.0 L 573.0,460.0 L 549.0,611.0 L 512.0,720.0 L 471.0,798.0 L 416.0,877.0 L 347.0,955.0 L 286.0,1010.0"/>
  </g>
</svg>
