<svg xmlns="http://www.w3.org/2000/svg" viewBox="0 0 1024 1024">
  <g style="fill:none;stroke:#000000;stroke-width:50;stroke-linecap:round;stroke-linejoin:round;" transform="scale(1, 1) translate(0, 0)">
    <path d="M 339.0,317.0 L 369.0,330.0 L 421.0,327.0 L 535.0,309.0 L 709.0,270.0 L 750.0,271.0 L 761.0,280.0"/>
    <path d="M 269.0,295.0 L 307.0,334.0 L 309.0,355.0 L 292.0,519.0 L 264.0,670.0 L 221.0,794.0 L 187.0,865.0 L 122.0,966.0 L 81.0,1009.0"/>
    <path d="M 479.0,517.0 L 490.0,528.0 L 661.0,486.0 L 678.0,486.0 L 702.0,507.0 L 683.0,632.0 L 657.0,696.0 L 640.0,717.0 L 621.0,729.0 L 537.0,689.0"/>
    <path d="M 400.0,486.0 L 427.0,518.0 L 439.0,549.0 L 418.0,687.0 L 415.0,767.0 L 421.0,853.0 L 435.0,895.0 L 474.0,930.0 L 551.0,955.0 L 680.0,965.0 L 788.0,960.0 L 872.0,937.0 L 893.0,922.0 L 895.0,907.0 L 899.0,719.0"/>
  </g>
</svg>
