<svg xmlns="http://www.w3.org/2000/svg" viewBox="0 0 1024 1024">
  <g style="fill:none;stroke:#000000;stroke-width:50;stroke-linecap:round;stroke-linejoin:round;" transform="scale(1, 1) translate(0, 0)">
    <path d="M 336.0,277.0 L 355.0,291.0 L 397.0,291.0 L 571.0,268.0 L 731.0,237.0 L 784.0,240.0"/>
    <path d="M 254.0,250.0 L 289.0,282.0 L 298.0,299.0 L 299.0,324.0 L 281.0,501.0 L 251.0,659.0 L 223.0,745.0 L 160.0,878.0 L 92.0,973.0 L 66.0,1000.0"/>
    <path d="M 378.0,516.0 L 490.0,515.0 L 574.0,503.0 L 665.0,480.0 L 721.0,480.0"/>
    <path d="M 500.0,343.0 L 525.0,358.0 L 546.0,382.0 L 536.0,595.0 L 521.0,613.0"/>
    <path d="M 313.0,662.0 L 338.0,669.0 L 371.0,668.0 L 720.0,608.0 L 762.0,613.0 L 801.0,627.0"/>
    <path d="M 366.0,822.0 L 472.0,822.0 L 681.0,782.0 L 722.0,783.0"/>
    <path d="M 507.0,696.0 L 524.0,711.0 L 538.0,738.0 L 534.0,925.0 L 517.0,943.0"/>
    <path d="M 265.0,984.0 L 322.0,996.0 L 520.0,971.0 L 774.0,953.0 L 849.0,963.0 L 885.0,978.0"/>
  </g>
</svg>
