<svg xmlns="http://www.w3.org/2000/svg" viewBox="0 0 1024 1024">
  <g style="fill:none;stroke:#000000;stroke-width:50;stroke-linecap:round;stroke-linejoin:round;" transform="scale(1, 1) translate(0, 0)">
    <path d="M 313.0,319.0 L 336.0,328.0 L 392.0,327.0 L 553.0,302.0 L 704.0,268.0 L 751.0,269.0"/>
    <path d="M 235.0,292.0 L 267.0,323.0 L 274.0,347.0 L 254.0,553.0 L 230.0,675.0 L 201.0,759.0 L 158.0,848.0 L 73.0,965.0"/>
    <path d="M 325.0,466.0 L 355.0,505.0 L 354.0,676.0 L 338.0,793.0 L 340.0,837.0"/>
    <path d="M 372.0,478.0 L 396.0,483.0 L 507.0,453.0 L 534.0,465.0 L 549.0,486.0 L 541.0,569.0 L 543.0,757.0 L 534.0,819.0"/>
    <path d="M 404.0,558.0 L 432.0,572.0 L 446.0,599.0 L 444.0,740.0 L 427.0,846.0 L 404.0,898.0 L 371.0,940.0 L 316.0,981.0 L 264.0,1006.0 L 240.0,1010.0"/>
    <path d="M 452.0,826.0 L 527.0,898.0 L 549.0,931.0 L 554.0,952.0"/>
    <path d="M 636.0,527.0 L 662.0,558.0 L 662.0,684.0 L 653.0,779.0 L 657.0,820.0"/>
    <path d="M 756.0,411.0 L 781.0,426.0 L 802.0,451.0 L 798.0,654.0 L 808.0,929.0 L 790.0,976.0 L 669.0,929.0"/>
  </g>
</svg>
