<svg xmlns="http://www.w3.org/2000/svg" viewBox="0 0 1024 1024">
  <g style="fill:none;stroke:#000000;stroke-width:50;stroke-linecap:round;stroke-linejoin:round;" transform="scale(1, 1) translate(0, 0)">
    <path d="M 317.0,303.0 L 332.0,311.0 L 413.0,311.0 L 745.0,256.0 L 785.0,260.0"/>
    <path d="M 237.0,278.0 L 252.0,287.0 L 279.0,319.0 L 280.0,365.0 L 266.0,515.0 L 237.0,683.0 L 212.0,767.0 L 163.0,877.0 L 109.0,965.0 L 63.0,1020.0"/>
    <path d="M 313.0,494.0 L 343.0,502.0 L 374.0,502.0 L 720.0,442.0 L 770.0,438.0 L 808.0,443.0"/>
    <path d="M 423.0,380.0 L 462.0,404.0 L 491.0,604.0"/>
    <path d="M 615.0,335.0 L 645.0,374.0 L 616.0,523.0 L 599.0,539.0"/>
    <path d="M 506.0,583.0 L 516.0,575.0 L 589.0,561.0 L 651.0,566.0"/>
    <path d="M 353.0,665.0 L 374.0,678.0 L 387.0,698.0 L 425.0,823.0"/>
    <path d="M 410.0,668.0 L 431.0,675.0 L 560.0,657.0 L 677.0,630.0 L 715.0,630.0 L 737.0,642.0 L 755.0,666.0 L 730.0,714.0 L 703.0,733.0"/>
    <path d="M 437.0,782.0 L 447.0,790.0 L 463.0,789.0 L 699.0,757.0 L 759.0,764.0"/>
    <path d="M 419.0,884.0 L 529.0,873.0 L 643.0,848.0 L 675.0,846.0 L 706.0,852.0"/>
    <path d="M 402.0,959.0 L 436.0,964.0 L 668.0,933.0 L 700.0,932.0 L 723.0,941.0"/>
    <path d="M 529.0,599.0 L 557.0,612.0 L 567.0,626.0 L 568.0,641.0 L 564.0,991.0 L 563.0,1009.0 L 549.0,1025.0"/>
    <path d="M 259.0,1062.0 L 287.0,1073.0 L 317.0,1074.0 L 468.0,1052.0 L 809.0,1025.0 L 867.0,1025.0 L 934.0,1044.0"/>
  </g>
</svg>
