<svg xmlns="http://www.w3.org/2000/svg" viewBox="0 0 1024 1024">
  <g style="fill:none;stroke:#000000;stroke-width:50;stroke-linecap:round;stroke-linejoin:round;" transform="scale(1, 1) translate(0, 0)">
    <path d="M 315.0,463.0 L 338.0,470.0 L 389.0,471.0 L 541.0,445.0 L 636.0,419.0 L 704.0,420.0"/>
    <path d="M 463.0,209.0 L 513.0,254.0 L 502.0,612.0 L 485.0,635.0"/>
    <path d="M 83.0,695.0 L 138.0,705.0 L 368.0,669.0 L 850.0,624.0 L 900.0,631.0 L 938.0,645.0"/>
    <path d="M 454.0,682.0 L 485.0,711.0 L 427.0,808.0 L 352.0,897.0 L 327.0,953.0 L 357.0,958.0 L 632.0,899.0 L 661.0,902.0"/>
    <path d="M 612.0,795.0 L 678.0,869.0 L 734.0,945.0 L 751.0,1001.0 L 748.0,1015.0"/>
  </g>
</svg>
