<svg xmlns="http://www.w3.org/2000/svg" viewBox="0 0 1024 1024">
  <g style="fill:none;stroke:#000000;stroke-width:50;stroke-linecap:round;stroke-linejoin:round;" transform="scale(1, 1) translate(0, 0)">
    <path d="M 491.0,178.0 L 513.0,213.0 L 508.0,224.0 L 463.0,289.0 L 405.0,354.0 L 388.0,390.0 L 417.0,397.0 L 598.0,358.0 L 642.0,351.0 L 658.0,356.0"/>
    <path d="M 619.0,282.0 L 687.0,344.0 L 709.0,392.0"/>
    <path d="M 303.0,445.0 L 325.0,483.0 L 283.0,547.0 L 224.0,614.0 L 212.0,644.0 L 236.0,649.0 L 403.0,614.0 L 432.0,617.0"/>
    <path d="M 413.0,545.0 L 453.0,599.0 L 464.0,624.0"/>
    <path d="M 637.0,408.0 L 660.0,444.0 L 616.0,523.0 L 579.0,566.0 L 562.0,608.0 L 609.0,608.0 L 752.0,575.0 L 762.0,585.0"/>
    <path d="M 734.0,502.0 L 804.0,574.0 L 822.0,608.0 L 827.0,636.0"/>
  </g>
</svg>
