<svg xmlns="http://www.w3.org/2000/svg" viewBox="0 0 1024 1024">
  <g style="fill:none;stroke:#000000;stroke-width:50;stroke-linecap:round;stroke-linejoin:round;" transform="scale(1, 1) translate(0, 0)">
    <path d="M 470.0,200.0 L 493.0,238.0 L 488.0,248.0 L 445.0,310.0 L 370.0,390.0 L 352.0,426.0 L 390.0,432.0 L 519.0,404.0 L 635.0,387.0 L 646.0,396.0"/>
    <path d="M 607.0,310.0 L 682.0,380.0 L 699.0,406.0 L 709.0,442.0"/>
    <path d="M 158.0,583.0 L 209.0,592.0 L 503.0,549.0 L 762.0,524.0 L 820.0,530.0 L 855.0,543.0"/>
    <path d="M 453.0,446.0 L 479.0,472.0 L 434.0,568.0 L 366.0,665.0 L 289.0,740.0 L 243.0,774.0 L 147.0,829.0 L 97.0,849.0"/>
    <path d="M 577.0,566.0 L 723.0,695.0 L 799.0,748.0 L 882.0,770.0 L 995.0,782.0"/>
    <path d="M 366.0,726.0 L 414.0,734.0 L 445.0,732.0 L 560.0,706.0 L 627.0,704.0"/>
    <path d="M 356.0,846.0 L 403.0,855.0 L 595.0,827.0 L 646.0,835.0"/>
    <path d="M 242.0,992.0 L 292.0,1002.0 L 446.0,981.0 L 681.0,964.0 L 715.0,964.0 L 779.0,986.0"/>
  </g>
</svg>
