<svg xmlns="http://www.w3.org/2000/svg" viewBox="0 0 1024 1024">
  <g style="fill:none;stroke:#000000;stroke-width:50;stroke-linecap:round;stroke-linejoin:round;" transform="scale(1, 1) translate(0, 0)">
    <path d="M 734.0,277.0 L 657.0,255.0 L 549.0,303.0 L 422.0,341.0 L 385.0,348.0 L 379.0,342.0"/>
    <path d="M 293.0,328.0 L 310.0,338.0 L 333.0,365.0 L 336.0,390.0 L 320.0,607.0 L 292.0,725.0 L 255.0,811.0 L 212.0,877.0 L 154.0,937.0 L 86.0,982.0"/>
    <path d="M 358.0,577.0 L 372.0,570.0 L 455.0,559.0 L 574.0,524.0 L 612.0,522.0 L 646.0,534.0 L 638.0,579.0 L 601.0,690.0 L 557.0,776.0 L 513.0,834.0 L 451.0,887.0 L 390.0,924.0 L 301.0,954.0 L 261.0,959.0"/>
    <path d="M 371.0,657.0 L 419.0,681.0 L 579.0,852.0 L 704.0,951.0 L 748.0,972.0 L 916.0,984.0"/>
  </g>
</svg>
