<svg xmlns="http://www.w3.org/2000/svg" viewBox="0 0 1024 1024">
  <g style="fill:none;stroke:#000000;stroke-width:50;stroke-linecap:round;stroke-linejoin:round;" transform="scale(1, 1) translate(0, 0)">
    <path d="M 262.0,439.0 L 302.0,446.0 L 358.0,442.0 L 560.0,401.0 L 724.0,359.0 L 771.0,359.0"/>
    <path d="M 459.0,195.0 L 491.0,223.0 L 506.0,247.0 L 508.0,264.0 L 434.0,497.0 L 375.0,627.0 L 294.0,755.0 L 234.0,826.0 L 169.0,886.0 L 111.0,928.0 L 81.0,940.0"/>
    <path d="M 411.0,629.0 L 431.0,618.0 L 494.0,607.0 L 587.0,578.0 L 628.0,576.0 L 663.0,590.0 L 645.0,665.0 L 610.0,756.0 L 574.0,830.0 L 539.0,878.0 L 489.0,924.0 L 428.0,966.0 L 332.0,1003.0 L 293.0,1007.0"/>
    <path d="M 392.0,702.0 L 422.0,713.0 L 452.0,735.0 L 610.0,900.0 L 728.0,989.0 L 797.0,1006.0 L 938.0,1022.0"/>
  </g>
</svg>
