<svg xmlns="http://www.w3.org/2000/svg" viewBox="0 0 1024 1024">
  <g style="fill:none;stroke:#000000;stroke-width:50;stroke-linecap:round;stroke-linejoin:round;" transform="scale(1, 1) translate(0, 0)">
    <path d="M 175.0,479.0 L 244.0,482.0 L 356.0,454.0 L 392.0,455.0 L 413.0,463.0 L 396.0,554.0 L 368.0,644.0 L 336.0,717.0 L 306.0,768.0 L 261.0,820.0 L 202.0,866.0 L 141.0,894.0 L 93.0,902.0"/>
    <path d="M 179.0,587.0 L 262.0,662.0 L 388.0,790.0 L 418.0,826.0 L 440.0,879.0"/>
    <path d="M 494.0,429.0 L 528.0,439.0 L 566.0,435.0 L 711.0,393.0 L 755.0,399.0 L 771.0,411.0 L 736.0,563.0 L 709.0,638.0 L 663.0,736.0 L 628.0,787.0 L 578.0,836.0 L 527.0,874.0 L 453.0,917.0"/>
    <path d="M 478.0,556.0 L 513.0,569.0 L 687.0,804.0 L 792.0,914.0 L 854.0,934.0 L 977.0,959.0"/>
  </g>
</svg>
