<svg xmlns="http://www.w3.org/2000/svg" viewBox="0 0 1024 1024">
  <g style="fill:none;stroke:#000000;stroke-width:50;stroke-linecap:round;stroke-linejoin:round;" transform="scale(1, 1) translate(0, 0)">
    <path d="M 146.0,382.0 L 157.0,398.0 L 204.0,435.0 L 221.0,476.0"/>
    <path d="M 447.0,320.0 L 465.0,349.0 L 398.0,433.0"/>
    <path d="M 155.0,583.0 L 215.0,585.0 L 401.0,533.0 L 442.0,533.0"/>
    <path d="M 64.0,742.0 L 126.0,745.0 L 399.0,661.0 L 449.0,661.0"/>
    <path d="M 287.0,227.0 L 334.0,268.0 L 324.0,514.0 L 312.0,662.0 L 294.0,770.0 L 262.0,867.0 L 219.0,940.0 L 158.0,996.0 L 107.0,1026.0"/>
    <path d="M 732.0,281.0 L 743.0,293.0 L 752.0,325.0 L 682.0,381.0 L 591.0,438.0 L 584.0,450.0"/>
    <path d="M 504.0,428.0 L 546.0,460.0 L 539.0,640.0 L 520.0,735.0 L 478.0,831.0 L 440.0,886.0 L 399.0,929.0 L 321.0,986.0"/>
    <path d="M 570.0,630.0 L 582.0,622.0 L 660.0,605.0 L 725.0,582.0 L 760.0,583.0 L 781.0,592.0 L 765.0,674.0 L 733.0,771.0 L 714.0,814.0 L 683.0,862.0 L 648.0,904.0 L 586.0,952.0 L 509.0,986.0 L 476.0,990.0"/>
    <path d="M 561.0,692.0 L 729.0,894.0 L 814.0,973.0 L 909.0,994.0 L 957.0,998.0"/>
  </g>
</svg>
