<svg xmlns="http://www.w3.org/2000/svg" viewBox="0 0 1024 1024">
  <g style="fill:none;stroke:#000000;stroke-width:50;stroke-linecap:round;stroke-linejoin:round;" transform="scale(1, 1) translate(0, 0)">
    <path d="M 131.0,306.0 L 182.0,313.0 L 472.0,258.0 L 527.0,264.0"/>
    <path d="M 198.0,338.0 L 230.0,355.0 L 231.0,367.0 L 229.0,724.0 L 212.0,739.0"/>
    <path d="M 398.0,298.0 L 424.0,325.0 L 427.0,415.0 L 422.0,1048.0"/>
    <path d="M 261.0,471.0 L 272.0,458.0 L 293.0,452.0 L 322.0,447.0 L 356.0,453.0"/>
    <path d="M 253.0,595.0 L 268.0,583.0 L 306.0,572.0 L 352.0,573.0"/>
    <path d="M 89.0,789.0 L 146.0,806.0 L 504.0,667.0"/>
    <path d="M 520.0,432.0 L 591.0,429.0 L 701.0,394.0 L 739.0,394.0 L 763.0,402.0 L 755.0,463.0 L 726.0,573.0 L 689.0,668.0 L 665.0,711.0 L 627.0,758.0 L 584.0,797.0 L 541.0,823.0 L 504.0,838.0 L 479.0,840.0"/>
    <path d="M 506.0,506.0 L 548.0,532.0 L 682.0,710.0 L 765.0,792.0 L 813.0,823.0 L 959.0,850.0"/>
  </g>
</svg>
