<svg xmlns="http://www.w3.org/2000/svg" viewBox="0 0 1024 1024">
  <g style="fill:none;stroke:#000000;stroke-width:50;stroke-linecap:round;stroke-linejoin:round;" transform="scale(1, 1) translate(0, 0)">
    <path d="M 363.0,193.0 L 380.0,208.0 L 397.0,242.0 L 331.0,357.0 L 278.0,436.0 L 202.0,526.0 L 132.0,600.0 L 75.0,646.0"/>
    <path d="M 401.0,311.0 L 414.0,308.0 L 503.0,368.0 L 523.0,387.0 L 539.0,418.0"/>
    <path d="M 259.0,546.0 L 319.0,547.0 L 432.0,511.0 L 480.0,511.0"/>
    <path d="M 161.0,710.0 L 212.0,714.0 L 421.0,660.0 L 466.0,652.0 L 509.0,656.0"/>
    <path d="M 352.0,566.0 L 378.0,588.0 L 378.0,886.0 L 373.0,936.0 L 363.0,961.0 L 348.0,974.0 L 321.0,966.0 L 259.0,930.0"/>
    <path d="M 242.0,790.0 L 219.0,845.0 L 168.0,926.0"/>
    <path d="M 448.0,765.0 L 493.0,807.0 L 508.0,832.0"/>
    <path d="M 537.0,534.0 L 571.0,543.0 L 607.0,540.0 L 742.0,502.0 L 769.0,508.0 L 785.0,520.0 L 749.0,663.0 L 713.0,748.0 L 677.0,807.0 L 607.0,879.0 L 547.0,920.0 L 489.0,950.0"/>
    <path d="M 553.0,623.0 L 572.0,627.0 L 590.0,640.0 L 720.0,819.0 L 814.0,920.0 L 840.0,934.0 L 977.0,962.0"/>
  </g>
</svg>
