<svg xmlns="http://www.w3.org/2000/svg" viewBox="0 0 1024 1024">
  <g style="fill:none;stroke:#000000;stroke-width:50;stroke-linecap:round;stroke-linejoin:round;" transform="scale(1, 1) translate(0, 0)">
    <path d="M 126.0,527.0 L 164.0,541.0 L 208.0,543.0 L 468.0,504.0 L 841.0,468.0 L 916.0,490.0 L 933.0,505.0"/>
    <path d="M 480.0,207.0 L 521.0,244.0 L 530.0,259.0 L 530.0,274.0 L 478.0,697.0 L 452.0,725.0"/>
    <path d="M 287.0,742.0 L 325.0,772.0 L 330.0,784.0 L 379.0,1003.0"/>
    <path d="M 360.0,748.0 L 370.0,757.0 L 384.0,759.0 L 476.0,746.0 L 626.0,714.0 L 655.0,718.0 L 694.0,758.0 L 653.0,884.0 L 623.0,905.0"/>
    <path d="M 399.0,945.0 L 419.0,957.0 L 611.0,935.0 L 665.0,937.0 L 692.0,947.0"/>
  </g>
</svg>
