<svg xmlns="http://www.w3.org/2000/svg" viewBox="0 0 1024 1024">
  <g style="fill:none;stroke:#000000;stroke-width:50;stroke-linecap:round;stroke-linejoin:round;" transform="scale(1, 1) translate(0, 0)">
    <path d="M 322.0,279.0 L 359.0,307.0 L 415.0,500.0"/>
    <path d="M 390.0,282.0 L 415.0,293.0 L 530.0,275.0 L 640.0,248.0 L 682.0,253.0 L 716.0,288.0 L 678.0,382.0 L 647.0,402.0"/>
    <path d="M 435.0,480.0 L 448.0,465.0 L 636.0,432.0 L 710.0,439.0"/>
    <path d="M 243.0,676.0 L 305.0,687.0 L 713.0,602.0 L 734.0,608.0 L 749.0,620.0 L 757.0,631.0 L 755.0,659.0 L 728.0,796.0 L 702.0,886.0 L 668.0,950.0 L 632.0,979.0 L 598.0,965.0 L 517.0,914.0"/>
    <path d="M 481.0,492.0 L 514.0,521.0 L 480.0,649.0 L 419.0,777.0 L 354.0,863.0 L 301.0,918.0 L 215.0,989.0 L 167.0,1019.0"/>
  </g>
</svg>
