<svg xmlns="http://www.w3.org/2000/svg" viewBox="0 0 1024 1024">
  <g style="fill:none;stroke:#000000;stroke-width:50;stroke-linecap:round;stroke-linejoin:round;" transform="scale(1, 1) translate(0, 0)">
    <path d="M 112.0,464.0 L 138.0,487.0 L 146.0,505.0 L 180.0,721.0"/>
    <path d="M 173.0,469.0 L 187.0,479.0 L 316.0,446.0 L 330.0,451.0 L 353.0,475.0 L 324.0,597.0 L 298.0,620.0"/>
    <path d="M 202.0,682.0 L 219.0,666.0 L 290.0,649.0 L 347.0,643.0 L 372.0,650.0"/>
    <path d="M 767.0,326.0 L 793.0,355.0 L 801.0,374.0 L 751.0,471.0 L 691.0,557.0 L 622.0,639.0 L 558.0,703.0 L 472.0,772.0 L 371.0,834.0"/>
    <path d="M 473.0,283.0 L 513.0,309.0 L 531.0,335.0 L 516.0,501.0 L 515.0,748.0 L 524.0,836.0 L 555.0,891.0 L 600.0,922.0 L 670.0,938.0 L 784.0,938.0 L 885.0,916.0 L 916.0,892.0 L 905.0,717.0"/>
  </g>
</svg>
