<svg xmlns="http://www.w3.org/2000/svg" viewBox="0 0 1024 1024">
  <g style="fill:none;stroke:#000000;stroke-width:50;stroke-linecap:round;stroke-linejoin:round;" transform="scale(1, 1) translate(0, 0)">
    <path d="M 262.0,406.0 L 281.0,419.0 L 308.0,456.0 L 359.0,645.0"/>
    <path d="M 303.0,403.0 L 339.0,418.0 L 352.0,417.0 L 567.0,389.0 L 661.0,369.0 L 680.0,371.0 L 708.0,387.0 L 725.0,408.0 L 683.0,523.0 L 655.0,541.0"/>
    <path d="M 372.0,593.0 L 392.0,603.0 L 432.0,602.0 L 642.0,572.0 L 693.0,573.0 L 722.0,583.0"/>
    <path d="M 457.0,202.0 L 486.0,220.0 L 512.0,247.0 L 502.0,650.0 L 494.0,726.0 L 477.0,795.0 L 452.0,845.0 L 381.0,915.0 L 289.0,962.0 L 149.0,1003.0"/>
    <path d="M 215.0,688.0 L 279.0,687.0 L 337.0,709.0 L 541.0,884.0 L 648.0,965.0 L 713.0,1002.0 L 740.0,1011.0 L 796.0,1012.0 L 942.0,1000.0"/>
  </g>
</svg>
