<svg xmlns="http://www.w3.org/2000/svg" viewBox="0 0 1024 1024">
  <g style="fill:none;stroke:#000000;stroke-width:50;stroke-linecap:round;stroke-linejoin:round;" transform="scale(1, 1) translate(0, 0)">
    <path d="M 98.0,477.0 L 124.0,500.0 L 130.0,513.0 L 172.0,753.0"/>
    <path d="M 157.0,498.0 L 167.0,488.0 L 196.0,477.0 L 285.0,451.0 L 322.0,478.0 L 295.0,607.0 L 271.0,625.0"/>
    <path d="M 189.0,687.0 L 199.0,672.0 L 270.0,651.0 L 329.0,652.0"/>
    <path d="M 551.0,192.0 L 586.0,233.0 L 550.0,337.0 L 533.0,374.0 L 484.0,449.0 L 399.0,535.0"/>
    <path d="M 513.0,449.0 L 636.0,436.0 L 766.0,399.0 L 805.0,397.0 L 820.0,403.0"/>
    <path d="M 446.0,647.0 L 504.0,639.0 L 587.0,607.0 L 621.0,608.0 L 637.0,621.0 L 615.0,663.0 L 515.0,802.0 L 486.0,883.0 L 485.0,918.0 L 500.0,955.0 L 530.0,981.0 L 566.0,996.0 L 653.0,1011.0 L 754.0,1009.0 L 829.0,994.0 L 889.0,970.0 L 917.0,951.0 L 938.0,790.0"/>
  </g>
</svg>
