<svg xmlns="http://www.w3.org/2000/svg" viewBox="0 0 1024 1024">
  <g style="fill:none;stroke:#000000;stroke-width:50;stroke-linecap:round;stroke-linejoin:round;" transform="scale(1, 1) translate(0, 0)">
    <path d="M 427.0,215.0 L 511.0,255.0 L 540.0,290.0"/>
    <path d="M 167.0,425.0 L 224.0,431.0 L 407.0,394.0 L 741.0,351.0 L 819.0,369.0"/>
    <path d="M 325.0,434.0 L 357.0,460.0 L 351.0,565.0 L 362.0,588.0 L 380.0,597.0 L 418.0,607.0 L 478.0,607.0 L 563.0,599.0 L 652.0,578.0 L 718.0,579.0"/>
    <path d="M 309.0,768.0 L 336.0,786.0 L 353.0,817.0 L 402.0,1040.0"/>
    <path d="M 376.0,773.0 L 397.0,787.0 L 424.0,785.0 L 648.0,744.0 L 685.0,749.0 L 720.0,789.0 L 680.0,893.0 L 644.0,921.0"/>
    <path d="M 417.0,964.0 L 431.0,975.0 L 445.0,975.0 L 632.0,952.0 L 695.0,954.0 L 714.0,963.0"/>
  </g>
</svg>
