<svg xmlns="http://www.w3.org/2000/svg" viewBox="0 0 1024 1024">
  <g style="fill:none;stroke:#000000;stroke-width:50;stroke-linecap:round;stroke-linejoin:round;" transform="scale(1, 1) translate(0, 0)">
    <path d="M 496.0,196.0 L 517.0,242.0 L 448.0,343.0 L 355.0,433.0 L 314.0,463.0 L 245.0,499.0"/>
    <path d="M 476.0,351.0 L 501.0,342.0 L 575.0,335.0 L 635.0,322.0 L 672.0,327.0 L 687.0,336.0 L 669.0,376.0 L 603.0,470.0 L 533.0,556.0 L 409.0,687.0 L 318.0,768.0 L 180.0,873.0 L 49.0,949.0"/>
    <path d="M 355.0,460.0 L 434.0,524.0 L 451.0,559.0"/>
    <path d="M 367.0,763.0 L 395.0,780.0 L 407.0,810.0 L 440.0,1013.0"/>
    <path d="M 427.0,761.0 L 443.0,774.0 L 610.0,751.0 L 702.0,730.0 L 741.0,733.0 L 781.0,771.0 L 736.0,893.0 L 705.0,914.0"/>
    <path d="M 462.0,986.0 L 474.0,971.0 L 693.0,944.0 L 753.0,945.0 L 776.0,955.0"/>
  </g>
</svg>
