<svg xmlns="http://www.w3.org/2000/svg" viewBox="0 0 1024 1024">
  <g style="fill:none;stroke:#000000;stroke-width:50;stroke-linecap:round;stroke-linejoin:round;" transform="scale(1, 1) translate(0, 0)">
    <path d="M 463.0,226.0 L 489.0,255.0 L 496.0,274.0 L 453.0,361.0 L 393.0,447.0 L 336.0,516.0 L 247.0,604.0 L 160.0,672.0 L 76.0,722.0"/>
    <path d="M 525.0,327.0 L 525.0,340.0 L 670.0,490.0 L 787.0,589.0 L 862.0,605.0 L 993.0,620.0"/>
    <path d="M 338.0,615.0 L 360.0,622.0 L 411.0,621.0 L 584.0,585.0 L 624.0,588.0"/>
    <path d="M 270.0,758.0 L 300.0,781.0 L 310.0,802.0 L 360.0,1028.0"/>
    <path d="M 332.0,760.0 L 354.0,774.0 L 380.0,772.0 L 594.0,731.0 L 631.0,733.0 L 672.0,773.0 L 640.0,875.0 L 606.0,903.0"/>
    <path d="M 376.0,950.0 L 389.0,962.0 L 595.0,934.0 L 650.0,934.0 L 678.0,943.0"/>
  </g>
</svg>
