<svg xmlns="http://www.w3.org/2000/svg" viewBox="0 0 1024 1024">
  <g style="fill:none;stroke:#000000;stroke-width:50;stroke-linecap:round;stroke-linejoin:round;" transform="scale(1, 1) translate(0, 0)">
    <path d="M 286.0,331.0 L 324.0,359.0 L 387.0,576.0"/>
    <path d="M 360.0,363.0 L 377.0,347.0 L 519.0,325.0 L 603.0,304.0 L 645.0,309.0 L 666.0,323.0 L 682.0,344.0 L 639.0,462.0 L 609.0,480.0"/>
    <path d="M 406.0,556.0 L 418.0,542.0 L 591.0,512.0 L 670.0,519.0"/>
    <path d="M 239.0,698.0 L 278.0,730.0 L 339.0,995.0"/>
    <path d="M 317.0,708.0 L 330.0,720.0 L 364.0,719.0 L 647.0,673.0 L 700.0,675.0 L 727.0,694.0 L 746.0,718.0 L 745.0,726.0 L 703.0,861.0 L 673.0,881.0"/>
    <path d="M 360.0,937.0 L 384.0,951.0 L 662.0,917.0 L 719.0,921.0 L 743.0,931.0"/>
  </g>
</svg>
