<svg xmlns="http://www.w3.org/2000/svg" viewBox="0 0 1024 1024">
  <g style="fill:none;stroke:#000000;stroke-width:50;stroke-linecap:round;stroke-linejoin:round;" transform="scale(1, 1) translate(0, 0)">
    <path d="M 118.0,463.0 L 149.0,490.0 L 155.0,509.0 L 192.0,724.0"/>
    <path d="M 182.0,470.0 L 194.0,476.0 L 313.0,439.0 L 340.0,455.0 L 349.0,465.0 L 327.0,585.0 L 304.0,596.0"/>
    <path d="M 211.0,668.0 L 228.0,650.0 L 293.0,632.0 L 342.0,628.0 L 365.0,634.0"/>
    <path d="M 453.0,293.0 L 509.0,296.0 L 575.0,275.0 L 688.0,254.0 L 721.0,272.0 L 736.0,289.0 L 715.0,380.0 L 695.0,543.0 L 687.0,575.0 L 671.0,602.0"/>
    <path d="M 470.0,366.0 L 489.0,381.0 L 504.0,407.0 L 492.0,621.0 L 496.0,651.0 L 525.0,652.0 L 606.0,634.0 L 802.0,605.0 L 829.0,613.0 L 855.0,641.0 L 840.0,697.0 L 807.0,922.0 L 780.0,986.0 L 754.0,1007.0 L 744.0,1004.0 L 639.0,942.0"/>
    <path d="M 279.0,833.0 L 335.0,845.0 L 495.0,812.0 L 690.0,781.0 L 763.0,800.0"/>
  </g>
</svg>
