<svg xmlns="http://www.w3.org/2000/svg" viewBox="0 0 1024 1024">
  <g style="fill:none;stroke:#000000;stroke-width:50;stroke-linecap:round;stroke-linejoin:round;" transform="scale(1, 1) translate(0, 0)">
    <path d="M 102.0,504.0 L 134.0,544.0 L 164.0,748.0"/>
    <path d="M 149.0,503.0 L 158.0,511.0 L 178.0,512.0 L 274.0,487.0 L 307.0,490.0 L 328.0,513.0 L 303.0,627.0 L 320.0,648.0"/>
    <path d="M 185.0,698.0 L 200.0,684.0 L 272.0,669.0 L 330.0,677.0"/>
    <path d="M 772.0,301.0 L 721.0,294.0 L 690.0,297.0 L 577.0,379.0 L 501.0,420.0 L 491.0,420.0 L 481.0,430.0 L 468.0,430.0 L 433.0,451.0 L 418.0,451.0 L 408.0,461.0"/>
    <path d="M 373.0,647.0 L 423.0,652.0 L 599.0,613.0 L 816.0,577.0 L 891.0,591.0"/>
    <path d="M 526.0,430.0 L 564.0,443.0 L 581.0,467.0 L 574.0,826.0 L 585.0,906.0 L 609.0,939.0 L 669.0,965.0 L 775.0,969.0 L 845.0,960.0 L 896.0,938.0 L 909.0,928.0 L 912.0,917.0 L 918.0,756.0"/>
  </g>
</svg>
