<svg xmlns="http://www.w3.org/2000/svg" viewBox="0 0 1024 1024">
  <g style="fill:none;stroke:#000000;stroke-width:50;stroke-linecap:round;stroke-linejoin:round;" transform="scale(1, 1) translate(0, 0)">
    <path d="M 118.0,427.0 L 143.0,448.0 L 155.0,468.0 L 192.0,676.0"/>
    <path d="M 176.0,429.0 L 193.0,440.0 L 307.0,407.0 L 329.0,409.0 L 346.0,422.0 L 357.0,435.0 L 332.0,542.0 L 328.0,553.0 L 302.0,576.0"/>
    <path d="M 212.0,637.0 L 227.0,622.0 L 304.0,604.0 L 351.0,599.0 L 375.0,607.0"/>
    <path d="M 435.0,307.0 L 531.0,396.0 L 550.0,441.0"/>
    <path d="M 759.0,260.0 L 774.0,269.0 L 795.0,299.0 L 771.0,343.0 L 635.0,518.0"/>
    <path d="M 577.0,509.0 L 606.0,536.0 L 621.0,564.0 L 617.0,1030.0"/>
  </g>
</svg>
