<svg xmlns="http://www.w3.org/2000/svg" viewBox="0 0 1024 1024">
  <g style="fill:none;stroke:#000000;stroke-width:50;stroke-linecap:round;stroke-linejoin:round;" transform="scale(1, 1) translate(0, 0)">
    <path d="M 76.0,495.0 L 110.0,526.0 L 114.0,540.0 L 149.0,771.0"/>
    <path d="M 146.0,505.0 L 157.0,514.0 L 266.0,484.0 L 282.0,485.0 L 309.0,511.0 L 282.0,628.0 L 256.0,647.0"/>
    <path d="M 169.0,716.0 L 183.0,697.0 L 245.0,680.0 L 297.0,675.0 L 324.0,680.0"/>
    <path d="M 382.0,596.0 L 447.0,601.0 L 745.0,535.0 L 780.0,532.0 L 815.0,539.0"/>
    <path d="M 504.0,237.0 L 529.0,248.0 L 564.0,283.0 L 545.0,557.0 L 528.0,658.0 L 506.0,742.0 L 463.0,834.0 L 424.0,884.0 L 344.0,948.0 L 265.0,988.0"/>
    <path d="M 565.0,634.0 L 572.0,673.0 L 602.0,721.0 L 718.0,878.0 L 780.0,942.0 L 812.0,967.0 L 973.0,1006.0"/>
    <path d="M 688.0,296.0 L 785.0,359.0 L 812.0,403.0"/>
  </g>
</svg>
