<svg xmlns="http://www.w3.org/2000/svg" viewBox="0 0 1024 1024">
  <g style="fill:none;stroke:#000000;stroke-width:50;stroke-linecap:round;stroke-linejoin:round;" transform="scale(1, 1) translate(0, 0)">
    <path d="M 58.0,508.0 L 84.0,533.0 L 90.0,550.0 L 120.0,756.0"/>
    <path d="M 111.0,514.0 L 126.0,519.0 L 218.0,487.0 L 236.0,486.0 L 270.0,510.0 L 247.0,627.0 L 222.0,646.0"/>
    <path d="M 140.0,704.0 L 153.0,690.0 L 214.0,673.0 L 263.0,667.0 L 284.0,672.0"/>
    <path d="M 479.0,218.0 L 494.0,230.0 L 588.0,266.0 L 624.0,306.0"/>
    <path d="M 339.0,470.0 L 396.0,479.0 L 740.0,410.0 L 788.0,407.0 L 829.0,414.0"/>
    <path d="M 394.0,597.0 L 423.0,619.0 L 433.0,638.0 L 426.0,727.0 L 411.0,807.0 L 384.0,871.0 L 345.0,926.0 L 280.0,985.0 L 236.0,1010.0"/>
    <path d="M 471.0,609.0 L 484.0,619.0 L 554.0,595.0 L 605.0,585.0 L 630.0,597.0 L 639.0,610.0 L 617.0,686.0 L 608.0,755.0 L 609.0,869.0 L 618.0,910.0 L 639.0,952.0 L 663.0,978.0 L 686.0,990.0 L 736.0,1003.0 L 824.0,1003.0 L 862.0,994.0 L 911.0,968.0 L 921.0,924.0 L 923.0,826.0 L 930.0,809.0"/>
  </g>
</svg>
