<svg xmlns="http://www.w3.org/2000/svg" viewBox="0 0 1024 1024">
  <g style="fill:none;stroke:#000000;stroke-width:50;stroke-linecap:round;stroke-linejoin:round;" transform="scale(1, 1) translate(0, 0)">
    <path d="M 456.0,218.0 L 477.0,240.0 L 486.0,265.0 L 445.0,344.0 L 390.0,423.0 L 267.0,558.0 L 159.0,642.0 L 88.0,682.0"/>
    <path d="M 526.0,295.0 L 526.0,307.0 L 618.0,400.0 L 725.0,496.0 L 788.0,540.0 L 842.0,552.0 L 979.0,564.0"/>
    <path d="M 448.0,448.0 L 512.0,487.0 L 533.0,514.0"/>
    <path d="M 310.0,627.0 L 355.0,635.0 L 549.0,585.0 L 592.0,581.0 L 614.0,587.0 L 618.0,595.0 L 595.0,644.0 L 516.0,767.0"/>
    <path d="M 298.0,834.0 L 329.0,858.0 L 338.0,880.0 L 376.0,1052.0"/>
    <path d="M 361.0,837.0 L 372.0,847.0 L 385.0,849.0 L 624.0,807.0 L 659.0,808.0 L 684.0,825.0 L 698.0,845.0 L 662.0,935.0 L 633.0,949.0"/>
    <path d="M 395.0,1027.0 L 410.0,1013.0 L 425.0,1010.0 L 620.0,987.0 L 675.0,989.0 L 704.0,1000.0"/>
  </g>
</svg>
