<svg xmlns="http://www.w3.org/2000/svg" viewBox="0 0 1024 1024">
  <g style="fill:none;stroke:#000000;stroke-width:50;stroke-linecap:round;stroke-linejoin:round;" transform="scale(1, 1) translate(0, 0)">
    <path d="M 100.0,471.0 L 128.0,497.0 L 132.0,510.0 L 161.0,705.0"/>
    <path d="M 160.0,481.0 L 171.0,486.0 L 266.0,457.0 L 289.0,460.0 L 309.0,480.0 L 285.0,584.0 L 261.0,602.0"/>
    <path d="M 181.0,661.0 L 196.0,644.0 L 254.0,630.0 L 305.0,627.0 L 324.0,634.0"/>
    <path d="M 423.0,340.0 L 462.0,341.0 L 555.0,310.0 L 573.0,313.0 L 586.0,324.0 L 597.0,336.0 L 569.0,436.0 L 541.0,457.0"/>
    <path d="M 464.0,498.0 L 486.0,505.0 L 535.0,487.0 L 593.0,488.0"/>
    <path d="M 413.0,484.0 L 438.0,510.0 L 445.0,547.0 L 422.0,658.0 L 448.0,660.0 L 486.0,648.0 L 563.0,639.0 L 588.0,646.0 L 606.0,670.0 L 599.0,761.0 L 579.0,879.0 L 563.0,925.0 L 544.0,955.0 L 517.0,974.0 L 423.0,920.0"/>
    <path d="M 756.0,261.0 L 787.0,285.0 L 811.0,314.0 L 813.0,772.0 L 803.0,960.0 L 808.0,1049.0"/>
  </g>
</svg>
