<svg xmlns="http://www.w3.org/2000/svg" viewBox="0 0 1024 1024">
  <g style="fill:none;stroke:#000000;stroke-width:50;stroke-linecap:round;stroke-linejoin:round;" transform="scale(1, 1) translate(0, 0)">
    <path d="M 110.0,455.0 L 140.0,483.0 L 146.0,500.0 L 177.0,720.0"/>
    <path d="M 174.0,463.0 L 183.0,469.0 L 300.0,438.0 L 333.0,464.0 L 308.0,582.0 L 285.0,599.0"/>
    <path d="M 194.0,660.0 L 207.0,645.0 L 277.0,626.0 L 322.0,623.0 L 344.0,628.0"/>
    <path d="M 526.0,207.0 L 545.0,220.0 L 567.0,252.0 L 556.0,284.0 L 499.0,411.0 L 441.0,506.0 L 397.0,557.0"/>
    <path d="M 481.0,488.0 L 795.0,431.0 L 827.0,438.0 L 856.0,472.0 L 818.0,732.0 L 789.0,846.0 L 759.0,918.0 L 728.0,959.0 L 691.0,983.0 L 606.0,925.0 L 602.0,914.0 L 588.0,909.0"/>
    <path d="M 532.0,501.0 L 553.0,519.0 L 557.0,535.0 L 535.0,584.0 L 460.0,696.0 L 423.0,736.0 L 382.0,766.0"/>
    <path d="M 667.0,481.0 L 696.0,508.0 L 672.0,602.0 L 622.0,709.0 L 592.0,757.0 L 543.0,817.0 L 480.0,877.0 L 402.0,932.0"/>
  </g>
</svg>
