<svg xmlns="http://www.w3.org/2000/svg" viewBox="0 0 1024 1024">
  <g style="fill:none;stroke:#000000;stroke-width:50;stroke-linecap:round;stroke-linejoin:round;" transform="scale(1, 1) translate(0, 0)">
    <path d="M 328.0,285.0 L 354.0,292.0 L 407.0,293.0 L 644.0,256.0 L 703.0,258.0"/>
    <path d="M 462.0,315.0 L 485.0,339.0 L 482.0,380.0 L 421.0,626.0 L 416.0,637.0 L 393.0,653.0"/>
    <path d="M 308.0,472.0 L 363.0,476.0 L 600.0,429.0 L 642.0,430.0 L 665.0,447.0 L 678.0,467.0 L 631.0,606.0 L 600.0,632.0"/>
    <path d="M 111.0,699.0 L 151.0,709.0 L 184.0,707.0 L 461.0,670.0 L 842.0,635.0 L 892.0,643.0 L 930.0,657.0"/>
    <path d="M 302.0,794.0 L 344.0,845.0 L 388.0,1040.0"/>
    <path d="M 336.0,789.0 L 339.0,795.0 L 377.0,807.0 L 616.0,765.0 L 645.0,762.0 L 674.0,770.0 L 705.0,800.0 L 666.0,919.0 L 640.0,937.0"/>
    <path d="M 405.0,1010.0 L 422.0,994.0 L 625.0,968.0 L 677.0,969.0 L 704.0,979.0"/>
  </g>
</svg>
