<svg xmlns="http://www.w3.org/2000/svg" viewBox="0 0 1024 1024">
  <g style="fill:none;stroke:#000000;stroke-width:50;stroke-linecap:round;stroke-linejoin:round;" transform="scale(1, 1) translate(0, 0)">
    <path d="M 302.0,266.0 L 348.0,318.0 L 383.0,469.0"/>
    <path d="M 336.0,262.0 L 380.0,279.0 L 505.0,260.0 L 572.0,242.0 L 622.0,241.0 L 658.0,278.0 L 622.0,362.0 L 592.0,382.0"/>
    <path d="M 401.0,456.0 L 418.0,439.0 L 589.0,410.0 L 632.0,410.0 L 660.0,418.0"/>
    <path d="M 143.0,623.0 L 195.0,631.0 L 376.0,597.0 L 769.0,546.0 L 806.0,549.0 L 860.0,564.0"/>
    <path d="M 453.0,457.0 L 475.0,470.0 L 490.0,493.0 L 492.0,757.0 L 484.0,964.0 L 499.0,1049.0"/>
    <path d="M 463.0,610.0 L 410.0,691.0 L 301.0,805.0 L 222.0,868.0 L 133.0,913.0"/>
    <path d="M 519.0,604.0 L 531.0,631.0 L 627.0,731.0 L 708.0,810.0 L 761.0,851.0 L 801.0,865.0 L 948.0,884.0"/>
  </g>
</svg>
