<svg xmlns="http://www.w3.org/2000/svg" viewBox="0 0 1024 1024">
  <g style="fill:none;stroke:#000000;stroke-width:50;stroke-linecap:round;stroke-linejoin:round;" transform="scale(1, 1) translate(0, 0)">
    <path d="M 96.0,468.0 L 129.0,503.0 L 168.0,736.0"/>
    <path d="M 162.0,496.0 L 171.0,485.0 L 277.0,453.0 L 302.0,456.0 L 315.0,467.0 L 325.0,479.0 L 299.0,596.0 L 273.0,616.0"/>
    <path d="M 186.0,677.0 L 203.0,661.0 L 273.0,643.0 L 315.0,639.0 L 340.0,646.0"/>
    <path d="M 384.0,397.0 L 421.0,404.0 L 463.0,402.0 L 788.0,349.0 L 858.0,349.0 L 895.0,363.0"/>
    <path d="M 471.0,271.0 L 492.0,283.0 L 512.0,305.0 L 537.0,493.0"/>
    <path d="M 681.0,221.0 L 698.0,228.0 L 720.0,261.0 L 691.0,389.0 L 663.0,476.0"/>
    <path d="M 432.0,603.0 L 503.0,599.0 L 623.0,566.0 L 657.0,570.0 L 670.0,582.0 L 651.0,619.0 L 565.0,706.0 L 529.0,751.0 L 495.0,801.0 L 477.0,847.0 L 472.0,883.0 L 485.0,916.0 L 516.0,946.0 L 570.0,971.0 L 665.0,985.0 L 795.0,983.0 L 867.0,965.0 L 911.0,943.0 L 922.0,934.0 L 927.0,901.0 L 931.0,762.0"/>
  </g>
</svg>
