<svg xmlns="http://www.w3.org/2000/svg" viewBox="0 0 1024 1024">
  <g style="fill:none;stroke:#000000;stroke-width:50;stroke-linecap:round;stroke-linejoin:round;" transform="scale(1, 1) translate(0, 0)">
    <path d="M 72.0,404.0 L 100.0,430.0 L 107.0,448.0 L 140.0,661.0"/>
    <path d="M 130.0,410.0 L 143.0,416.0 L 267.0,380.0 L 287.0,384.0 L 299.0,394.0 L 309.0,405.0 L 281.0,524.0 L 256.0,542.0"/>
    <path d="M 159.0,605.0 L 175.0,589.0 L 248.0,571.0 L 295.0,567.0 L 320.0,574.0"/>
    <path d="M 511.0,358.0 L 530.0,339.0 L 701.0,295.0 L 738.0,303.0 L 768.0,333.0 L 727.0,439.0 L 696.0,459.0"/>
    <path d="M 488.0,536.0 L 513.0,519.0 L 685.0,489.0 L 738.0,487.0 L 763.0,495.0"/>
    <path d="M 432.0,314.0 L 460.0,338.0 L 473.0,366.0 L 462.0,507.0 L 447.0,601.0 L 426.0,684.0 L 376.0,796.0 L 329.0,861.0 L 253.0,932.0 L 198.0,962.0"/>
    <path d="M 484.0,570.0 L 493.0,592.0 L 600.0,736.0 L 695.0,849.0 L 773.0,925.0 L 797.0,943.0 L 832.0,953.0 L 975.0,978.0"/>
  </g>
</svg>
