<svg xmlns="http://www.w3.org/2000/svg" viewBox="0 0 1024 1024">
  <g style="fill:none;stroke:#000000;stroke-width:50;stroke-linecap:round;stroke-linejoin:round;" transform="scale(1, 1) translate(0, 0)">
    <path d="M 84.0,480.0 L 107.0,499.0 L 117.0,517.0 L 152.0,740.0"/>
    <path d="M 137.0,483.0 L 156.0,491.0 L 264.0,457.0 L 286.0,460.0 L 300.0,471.0 L 310.0,482.0 L 284.0,598.0 L 261.0,616.0"/>
    <path d="M 171.0,680.0 L 188.0,663.0 L 261.0,644.0 L 300.0,640.0 L 325.0,646.0"/>
    <path d="M 477.0,327.0 L 488.0,338.0 L 552.0,335.0 L 774.0,285.0 L 816.0,279.0 L 840.0,282.0"/>
    <path d="M 732.0,414.0 L 757.0,450.0 L 733.0,537.0 L 694.0,625.0 L 665.0,672.0 L 604.0,743.0 L 544.0,795.0 L 498.0,824.0"/>
    <path d="M 539.0,511.0 L 746.0,692.0 L 798.0,748.0 L 825.0,803.0"/>
    <path d="M 404.0,301.0 L 438.0,340.0 L 442.0,360.0 L 440.0,684.0 L 425.0,977.0 L 467.0,979.0 L 607.0,948.0 L 828.0,926.0 L 862.0,925.0 L 899.0,938.0"/>
  </g>
</svg>
