<svg xmlns="http://www.w3.org/2000/svg" viewBox="0 0 1024 1024">
  <g style="fill:none;stroke:#000000;stroke-width:50;stroke-linecap:round;stroke-linejoin:round;" transform="scale(1, 1) translate(0, 0)">
    <path d="M 291.0,256.0 L 311.0,273.0 L 323.0,294.0 L 356.0,462.0"/>
    <path d="M 339.0,257.0 L 348.0,266.0 L 368.0,270.0 L 603.0,225.0 L 637.0,225.0 L 675.0,258.0 L 650.0,338.0 L 625.0,356.0"/>
    <path d="M 374.0,412.0 L 387.0,421.0 L 616.0,385.0 L 660.0,385.0 L 686.0,394.0"/>
    <path d="M 298.0,511.0 L 323.0,537.0 L 331.0,558.0 L 333.0,708.0 L 320.0,825.0 L 323.0,868.0"/>
    <path d="M 349.0,522.0 L 374.0,535.0 L 510.0,515.0 L 522.0,508.0 L 635.0,487.0 L 658.0,491.0 L 682.0,511.0 L 693.0,526.0 L 687.0,587.0 L 690.0,810.0 L 683.0,871.0"/>
    <path d="M 455.0,591.0 L 474.0,598.0 L 506.0,627.0 L 499.0,816.0 L 474.0,913.0 L 447.0,955.0 L 399.0,994.0 L 310.0,1037.0 L 236.0,1055.0"/>
    <path d="M 571.0,916.0 L 705.0,1004.0 L 735.0,1040.0 L 749.0,1073.0"/>
  </g>
</svg>
