<svg xmlns="http://www.w3.org/2000/svg" viewBox="0 0 1024 1024">
  <g style="fill:none;stroke:#000000;stroke-width:50;stroke-linecap:round;stroke-linejoin:round;" transform="scale(1, 1) translate(0, 0)">
    <path d="M 106.0,457.0 L 133.0,481.0 L 140.0,498.0 L 180.0,709.0"/>
    <path d="M 162.0,460.0 L 174.0,467.0 L 185.0,465.0 L 297.0,434.0 L 309.0,434.0 L 329.0,450.0 L 337.0,459.0 L 336.0,469.0 L 316.0,567.0 L 313.0,578.0 L 291.0,594.0"/>
    <path d="M 195.0,656.0 L 212.0,639.0 L 291.0,621.0 L 352.0,624.0"/>
    <path d="M 568.0,173.0 L 595.0,208.0 L 521.0,306.0 L 513.0,308.0 L 501.0,328.0 L 491.0,325.0"/>
    <path d="M 515.0,379.0 L 529.0,361.0 L 684.0,320.0 L 722.0,323.0 L 744.0,343.0 L 717.0,479.0 L 706.0,511.0 L 690.0,531.0 L 682.0,535.0 L 599.0,496.0"/>
    <path d="M 449.0,340.0 L 458.0,342.0 L 473.0,360.0 L 483.0,386.0 L 479.0,648.0 L 486.0,681.0 L 515.0,682.0 L 636.0,657.0 L 801.0,635.0 L 826.0,642.0 L 852.0,670.0 L 810.0,897.0 L 783.0,975.0 L 752.0,1002.0 L 711.0,983.0 L 651.0,943.0"/>
    <path d="M 239.0,850.0 L 294.0,860.0 L 418.0,830.0 L 675.0,787.0 L 701.0,788.0 L 754.0,803.0"/>
  </g>
</svg>
