<svg xmlns="http://www.w3.org/2000/svg" viewBox="0 0 1024 1024">
  <g style="fill:none;stroke:#000000;stroke-width:50;stroke-linecap:round;stroke-linejoin:round;" transform="scale(1, 1) translate(0, 0)">
    <path d="M 306.0,282.0 L 338.0,306.0 L 347.0,323.0 L 383.0,469.0"/>
    <path d="M 368.0,283.0 L 377.0,292.0 L 398.0,294.0 L 527.0,274.0 L 590.0,258.0 L 636.0,256.0 L 664.0,277.0 L 676.0,294.0 L 652.0,357.0 L 621.0,376.0"/>
    <path d="M 402.0,449.0 L 414.0,435.0 L 589.0,407.0 L 645.0,406.0 L 681.0,413.0"/>
    <path d="M 216.0,600.0 L 248.0,633.0 L 256.0,664.0 L 255.0,824.0 L 241.0,941.0 L 243.0,995.0"/>
    <path d="M 280.0,621.0 L 301.0,634.0 L 455.0,602.0 L 714.0,576.0 L 752.0,577.0 L 768.0,587.0 L 791.0,616.0 L 782.0,701.0 L 787.0,886.0 L 780.0,950.0 L 769.0,975.0 L 756.0,975.0 L 645.0,935.0"/>
    <path d="M 481.0,449.0 L 507.0,467.0 L 518.0,486.0 L 503.0,600.0 L 475.0,705.0 L 438.0,765.0 L 402.0,805.0 L 374.0,828.0 L 328.0,851.0"/>
    <path d="M 504.0,703.0 L 534.0,711.0 L 642.0,781.0 L 665.0,805.0 L 679.0,834.0"/>
  </g>
</svg>
