<svg xmlns="http://www.w3.org/2000/svg" viewBox="0 0 1024 1024">
  <g style="fill:none;stroke:#000000;stroke-width:50;stroke-linecap:round;stroke-linejoin:round;" transform="scale(1, 1) translate(0, 0)">
    <path d="M 64.0,504.0 L 92.0,529.0 L 99.0,546.0 L 132.0,741.0"/>
    <path d="M 120.0,511.0 L 135.0,514.0 L 238.0,482.0 L 263.0,494.0 L 274.0,507.0 L 251.0,614.0 L 229.0,625.0"/>
    <path d="M 150.0,696.0 L 164.0,679.0 L 213.0,663.0 L 290.0,663.0"/>
    <path d="M 429.0,342.0 L 451.0,355.0 L 480.0,386.0 L 480.0,758.0 L 463.0,780.0"/>
    <path d="M 513.0,597.0 L 518.0,585.0 L 538.0,573.0 L 571.0,563.0 L 605.0,563.0"/>
    <path d="M 324.0,596.0 L 366.0,635.0 L 368.0,644.0 L 384.0,787.0 L 370.0,803.0"/>
    <path d="M 281.0,847.0 L 305.0,856.0 L 346.0,860.0 L 596.0,755.0"/>
    <path d="M 829.0,452.0 L 838.0,464.0 L 846.0,496.0 L 791.0,539.0 L 695.0,595.0 L 687.0,606.0"/>
    <path d="M 616.0,268.0 L 645.0,286.0 L 668.0,317.0 L 658.0,448.0 L 659.0,700.0 L 669.0,812.0 L 685.0,859.0 L 706.0,883.0 L 768.0,904.0 L 830.0,906.0 L 898.0,890.0 L 919.0,874.0 L 913.0,759.0 L 917.0,732.0"/>
  </g>
</svg>
