<svg xmlns="http://www.w3.org/2000/svg" viewBox="0 0 1024 1024">
  <g style="fill:none;stroke:#000000;stroke-width:50;stroke-linecap:round;stroke-linejoin:round;" transform="scale(1, 1) translate(0, 0)">
    <path d="M 72.0,468.0 L 105.0,504.0 L 144.0,744.0"/>
    <path d="M 131.0,478.0 L 145.0,482.0 L 252.0,452.0 L 272.0,456.0 L 285.0,466.0 L 293.0,478.0 L 276.0,604.0 L 254.0,618.0"/>
    <path d="M 162.0,688.0 L 174.0,672.0 L 255.0,651.0 L 294.0,647.0 L 320.0,654.0"/>
    <path d="M 399.0,360.0 L 427.0,367.0 L 466.0,366.0 L 768.0,309.0 L 837.0,316.0"/>
    <path d="M 680.0,388.0 L 658.0,387.0 L 645.0,395.0 L 577.0,522.0 L 512.0,610.0 L 433.0,697.0 L 345.0,776.0 L 224.0,855.0"/>
    <path d="M 541.0,517.0 L 576.0,575.0 L 576.0,739.0 L 568.0,821.0 L 573.0,882.0"/>
    <path d="M 700.0,595.0 L 850.0,683.0 L 888.0,717.0 L 912.0,759.0"/>
    <path d="M 352.0,983.0 L 404.0,992.0 L 575.0,966.0 L 754.0,950.0 L 787.0,952.0 L 851.0,972.0"/>
  </g>
</svg>
