<svg xmlns="http://www.w3.org/2000/svg" viewBox="0 0 1024 1024">
  <g style="fill:none;stroke:#000000;stroke-width:50;stroke-linecap:round;stroke-linejoin:round;" transform="scale(1, 1) translate(0, 0)">
    <path d="M 67.0,488.0 L 88.0,506.0 L 98.0,529.0 L 125.0,725.0"/>
    <path d="M 115.0,494.0 L 134.0,497.0 L 214.0,470.0 L 233.0,471.0 L 251.0,485.0 L 257.0,492.0 L 234.0,607.0 L 250.0,624.0"/>
    <path d="M 142.0,680.0 L 156.0,664.0 L 209.0,649.0 L 264.0,652.0"/>
    <path d="M 434.0,244.0 L 460.0,263.0 L 480.0,297.0 L 415.0,572.0 L 368.0,715.0 L 386.0,738.0 L 522.0,830.0 L 545.0,854.0 L 560.0,891.0"/>
    <path d="M 511.0,507.0 L 529.0,522.0 L 544.0,546.0 L 509.0,696.0 L 479.0,761.0 L 441.0,819.0 L 386.0,871.0 L 325.0,910.0 L 281.0,927.0"/>
    <path d="M 291.0,589.0 L 338.0,607.0 L 491.0,561.0 L 502.0,550.0"/>
    <path d="M 620.0,522.0 L 647.0,524.0 L 695.0,516.0 L 749.0,494.0 L 781.0,494.0 L 803.0,502.0 L 800.0,538.0 L 777.0,631.0 L 732.0,736.0 L 698.0,780.0 L 665.0,808.0 L 624.0,831.0 L 593.0,838.0"/>
    <path d="M 606.0,596.0 L 639.0,608.0 L 768.0,781.0 L 849.0,862.0 L 981.0,890.0"/>
  </g>
</svg>
