<svg xmlns="http://www.w3.org/2000/svg" viewBox="0 0 1024 1024">
  <g style="fill:none;stroke:#000000;stroke-width:50;stroke-linecap:round;stroke-linejoin:round;" transform="scale(1, 1) translate(0, 0)">
    <path d="M 76.0,427.0 L 108.0,462.0 L 141.0,689.0"/>
    <path d="M 139.0,454.0 L 148.0,444.0 L 247.0,420.0 L 279.0,420.0 L 296.0,435.0 L 305.0,445.0 L 279.0,559.0 L 253.0,579.0"/>
    <path d="M 164.0,641.0 L 176.0,625.0 L 245.0,608.0 L 301.0,602.0 L 324.0,610.0"/>
    <path d="M 351.0,358.0 L 405.0,367.0 L 593.0,334.0 L 858.0,306.0 L 894.0,309.0 L 947.0,325.0"/>
    <path d="M 383.0,512.0 L 409.0,536.0 L 414.0,551.0 L 441.0,725.0"/>
    <path d="M 442.0,538.0 L 465.0,523.0 L 559.0,498.0 L 574.0,500.0 L 591.0,513.0 L 600.0,524.0 L 574.0,621.0 L 549.0,638.0"/>
    <path d="M 459.0,691.0 L 477.0,679.0 L 550.0,664.0 L 587.0,661.0 L 611.0,668.0"/>
    <path d="M 708.0,351.0 L 746.0,378.0 L 756.0,401.0 L 750.0,911.0 L 739.0,948.0 L 718.0,971.0 L 671.0,953.0 L 609.0,915.0"/>
  </g>
</svg>
