<svg xmlns="http://www.w3.org/2000/svg" viewBox="0 0 1024 1024">
  <g style="fill:none;stroke:#000000;stroke-width:50;stroke-linecap:round;stroke-linejoin:round;" transform="scale(1, 1) translate(0, 0)">
    <path d="M 468.0,188.0 L 482.0,201.0 L 498.0,232.0 L 445.0,326.0 L 366.0,427.0 L 282.0,512.0 L 227.0,557.0 L 160.0,603.0 L 79.0,647.0"/>
    <path d="M 528.0,276.0 L 527.0,285.0 L 645.0,403.0 L 718.0,468.0 L 785.0,515.0 L 960.0,536.0"/>
    <path d="M 376.0,488.0 L 399.0,494.0 L 435.0,493.0 L 541.0,465.0 L 601.0,462.0"/>
    <path d="M 207.0,620.0 L 232.0,643.0 L 237.0,655.0 L 261.0,821.0"/>
    <path d="M 264.0,627.0 L 273.0,633.0 L 374.0,609.0 L 393.0,614.0 L 412.0,634.0 L 410.0,645.0 L 388.0,725.0 L 370.0,738.0"/>
    <path d="M 278.0,796.0 L 291.0,781.0 L 351.0,766.0 L 416.0,768.0"/>
    <path d="M 544.0,601.0 L 557.0,612.0 L 700.0,581.0 L 721.0,597.0 L 715.0,703.0 L 704.0,755.0 L 687.0,793.0 L 662.0,816.0 L 584.0,776.0"/>
    <path d="M 481.0,594.0 L 501.0,609.0 L 515.0,638.0 L 511.0,1074.0"/>
  </g>
</svg>
