<svg xmlns="http://www.w3.org/2000/svg" viewBox="0 0 1024 1024">
  <g style="fill:none;stroke:#000000;stroke-width:50;stroke-linecap:round;stroke-linejoin:round;" transform="scale(1, 1) translate(0, 0)">
    <path d="M 327.0,220.0 L 350.0,243.0 L 357.0,267.0 L 333.0,317.0 L 258.0,431.0 L 200.0,500.0 L 163.0,531.0"/>
    <path d="M 321.0,391.0 L 456.0,365.0 L 481.0,371.0 L 493.0,386.0 L 417.0,527.0 L 316.0,649.0 L 194.0,738.0 L 134.0,765.0 L 80.0,778.0"/>
    <path d="M 277.0,490.0 L 306.0,490.0 L 357.0,504.0 L 565.0,647.0 L 686.0,712.0 L 750.0,739.0 L 829.0,744.0 L 977.0,734.0"/>
    <path d="M 574.0,185.0 L 601.0,201.0 L 616.0,225.0 L 619.0,446.0 L 609.0,607.0"/>
    <path d="M 651.0,413.0 L 664.0,428.0 L 786.0,473.0 L 814.0,494.0 L 834.0,519.0"/>
    <path d="M 293.0,792.0 L 327.0,823.0 L 364.0,1032.0"/>
    <path d="M 361.0,800.0 L 376.0,811.0 L 571.0,772.0 L 592.0,773.0 L 606.0,781.0 L 634.0,812.0 L 603.0,905.0 L 570.0,935.0"/>
    <path d="M 386.0,998.0 L 403.0,984.0 L 558.0,964.0 L 619.0,964.0 L 644.0,975.0"/>
  </g>
</svg>
