<svg xmlns="http://www.w3.org/2000/svg" viewBox="0 0 1024 1024">
  <g style="fill:none;stroke:#000000;stroke-width:50;stroke-linecap:round;stroke-linejoin:round;" transform="scale(1, 1) translate(0, 0)">
    <path d="M 60.0,472.0 L 83.0,491.0 L 94.0,509.0 L 124.0,700.0"/>
    <path d="M 99.0,471.0 L 133.0,475.0 L 212.0,452.0 L 241.0,452.0 L 265.0,474.0 L 242.0,580.0 L 220.0,597.0"/>
    <path d="M 143.0,648.0 L 152.0,638.0 L 220.0,621.0 L 276.0,622.0"/>
    <path d="M 457.0,246.0 L 477.0,260.0 L 503.0,295.0 L 458.0,411.0 L 346.0,621.0 L 261.0,742.0 L 222.0,784.0"/>
    <path d="M 392.0,592.0 L 415.0,658.0 L 415.0,766.0 L 400.0,947.0 L 406.0,1012.0"/>
    <path d="M 493.0,548.0 L 546.0,553.0 L 659.0,527.0 L 829.0,500.0 L 888.0,500.0 L 930.0,512.0"/>
    <path d="M 710.0,231.0 L 732.0,243.0 L 766.0,277.0 L 757.0,482.0 L 763.0,912.0 L 742.0,966.0 L 667.0,941.0 L 614.0,916.0"/>
    <path d="M 528.0,650.0 L 588.0,707.0 L 602.0,725.0 L 604.0,738.0"/>
  </g>
</svg>
