<svg xmlns="http://www.w3.org/2000/svg" viewBox="0 0 1024 1024">
  <g style="fill:none;stroke:#000000;stroke-width:50;stroke-linecap:round;stroke-linejoin:round;" transform="scale(1, 1) translate(0, 0)">
    <path d="M 108.0,452.0 L 140.0,487.0 L 176.0,717.0"/>
    <path d="M 171.0,462.0 L 181.0,467.0 L 283.0,433.0 L 304.0,437.0 L 326.0,457.0 L 303.0,576.0 L 279.0,594.0"/>
    <path d="M 197.0,656.0 L 211.0,641.0 L 269.0,625.0 L 324.0,621.0 L 344.0,628.0"/>
    <path d="M 560.0,215.0 L 604.0,253.0 L 598.0,494.0 L 581.0,519.0"/>
    <path d="M 633.0,388.0 L 650.0,378.0 L 768.0,351.0 L 806.0,351.0"/>
    <path d="M 375.0,571.0 L 424.0,578.0 L 635.0,536.0 L 834.0,508.0 L 870.0,510.0 L 924.0,524.0"/>
    <path d="M 569.0,571.0 L 602.0,603.0 L 589.0,967.0 L 602.0,1051.0"/>
    <path d="M 677.0,675.0 L 784.0,748.0 L 805.0,775.0 L 818.0,806.0"/>
  </g>
</svg>
