<svg xmlns="http://www.w3.org/2000/svg" viewBox="0 0 1024 1024">
  <g style="fill:none;stroke:#000000;stroke-width:50;stroke-linecap:round;stroke-linejoin:round;" transform="scale(1, 1) translate(0, 0)">
    <path d="M 84.0,484.0 L 117.0,516.0 L 156.0,741.0"/>
    <path d="M 148.0,507.0 L 156.0,497.0 L 258.0,467.0 L 294.0,492.0 L 272.0,604.0 L 249.0,623.0"/>
    <path d="M 175.0,678.0 L 185.0,664.0 L 241.0,651.0 L 293.0,646.0 L 316.0,654.0"/>
    <path d="M 359.0,520.0 L 414.0,527.0 L 690.0,469.0 L 735.0,465.0 L 769.0,472.0"/>
    <path d="M 508.0,210.0 L 551.0,253.0 L 549.0,297.0 L 521.0,528.0 L 484.0,672.0 L 438.0,767.0 L 388.0,837.0 L 310.0,912.0 L 228.0,965.0"/>
    <path d="M 556.0,534.0 L 572.0,543.0 L 592.0,575.0 L 570.0,746.0 L 569.0,840.0 L 576.0,913.0 L 589.0,948.0 L 606.0,967.0 L 664.0,987.0 L 767.0,992.0 L 832.0,986.0 L 902.0,963.0 L 913.0,951.0 L 919.0,795.0"/>
    <path d="M 724.0,619.0 L 740.0,642.0 L 745.0,666.0 L 705.0,714.0 L 604.0,811.0 L 498.0,883.0"/>
    <path d="M 693.0,283.0 L 780.0,331.0 L 810.0,368.0"/>
  </g>
</svg>
