<svg xmlns="http://www.w3.org/2000/svg" viewBox="0 0 1024 1024">
  <g style="fill:none;stroke:#000000;stroke-width:50;stroke-linecap:round;stroke-linejoin:round;" transform="scale(1, 1) translate(0, 0)">
    <path d="M 88.0,459.0 L 120.0,493.0 L 152.0,716.0"/>
    <path d="M 150.0,486.0 L 160.0,476.0 L 246.0,449.0 L 272.0,449.0 L 288.0,461.0 L 297.0,472.0 L 296.0,481.0 L 274.0,577.0 L 250.0,600.0"/>
    <path d="M 174.0,657.0 L 183.0,642.0 L 243.0,628.0 L 303.0,633.0"/>
    <path d="M 458.0,270.0 L 474.0,283.0 L 491.0,317.0 L 399.0,523.0 L 378.0,556.0 L 376.0,574.0 L 378.0,581.0 L 400.0,587.0 L 473.0,581.0 L 492.0,568.0"/>
    <path d="M 554.0,423.0 L 571.0,443.0 L 577.0,462.0 L 513.0,583.0 L 417.0,732.0 L 409.0,768.0 L 440.0,766.0 L 562.0,727.0"/>
    <path d="M 722.0,253.0 L 737.0,265.0 L 755.0,300.0 L 725.0,373.0 L 637.0,546.0 L 631.0,572.0 L 729.0,571.0 L 748.0,560.0"/>
    <path d="M 804.0,419.0 L 829.0,457.0 L 776.0,565.0 L 689.0,702.0 L 679.0,742.0 L 710.0,741.0 L 834.0,703.0"/>
    <path d="M 303.0,914.0 L 364.0,931.0 L 526.0,905.0 L 822.0,872.0 L 901.0,898.0"/>
  </g>
</svg>
