<svg xmlns="http://www.w3.org/2000/svg" viewBox="0 0 1024 1024">
  <g style="fill:none;stroke:#000000;stroke-width:50;stroke-linecap:round;stroke-linejoin:round;" transform="scale(1, 1) translate(0, 0)">
    <path d="M 98.0,471.0 L 122.0,492.0 L 133.0,512.0 L 161.0,712.0"/>
    <path d="M 145.0,469.0 L 155.0,477.0 L 171.0,477.0 L 274.0,448.0 L 309.0,467.0 L 317.0,476.0 L 294.0,580.0 L 267.0,605.0"/>
    <path d="M 184.0,668.0 L 194.0,652.0 L 257.0,636.0 L 307.0,633.0 L 332.0,639.0"/>
    <path d="M 555.0,213.0 L 642.0,262.0 L 661.0,291.0"/>
    <path d="M 427.0,369.0 L 441.0,400.0 L 442.0,417.0 L 416.0,505.0 L 414.0,543.0"/>
    <path d="M 472.0,399.0 L 494.0,410.0 L 591.0,385.0 L 745.0,357.0 L 796.0,361.0 L 813.0,372.0 L 825.0,393.0 L 746.0,471.0"/>
    <path d="M 705.0,509.0 L 654.0,509.0 L 607.0,550.0 L 560.0,579.0 L 490.0,607.0 L 483.0,615.0 L 464.0,615.0 L 460.0,622.0"/>
    <path d="M 364.0,756.0 L 387.0,761.0 L 423.0,758.0 L 555.0,726.0 L 748.0,691.0 L 794.0,690.0 L 840.0,700.0"/>
    <path d="M 557.0,604.0 L 588.0,627.0 L 575.0,781.0 L 581.0,875.0 L 595.0,921.0 L 631.0,952.0 L 691.0,971.0 L 766.0,974.0 L 838.0,962.0 L 878.0,942.0 L 899.0,921.0 L 892.0,777.0"/>
  </g>
</svg>
