<svg xmlns="http://www.w3.org/2000/svg" viewBox="0 0 1024 1024">
  <g style="fill:none;stroke:#000000;stroke-width:50;stroke-linecap:round;stroke-linejoin:round;" transform="scale(1, 1) translate(0, 0)">
    <path d="M 78.0,456.0 L 104.0,480.0 L 111.0,498.0 L 140.0,696.0"/>
    <path d="M 133.0,461.0 L 146.0,467.0 L 161.0,464.0 L 251.0,437.0 L 271.0,440.0 L 294.0,462.0 L 271.0,568.0 L 247.0,588.0"/>
    <path d="M 164.0,648.0 L 178.0,632.0 L 239.0,616.0 L 286.0,611.0 L 312.0,618.0"/>
    <path d="M 407.0,361.0 L 457.0,369.0 L 705.0,321.0 L 778.0,324.0"/>
    <path d="M 418.0,485.0 L 464.0,488.0 L 594.0,464.0 L 680.0,441.0 L 700.0,444.0 L 720.0,454.0 L 736.0,473.0 L 711.0,528.0 L 684.0,542.0"/>
    <path d="M 441.0,600.0 L 461.0,611.0 L 681.0,573.0 L 719.0,573.0 L 742.0,581.0"/>
    <path d="M 397.0,587.0 L 414.0,608.0 L 418.0,624.0 L 391.0,709.0 L 389.0,736.0 L 399.0,739.0 L 768.0,675.0 L 807.0,680.0 L 831.0,705.0 L 836.0,714.0 L 803.0,805.0 L 779.0,837.0 L 759.0,833.0 L 696.0,790.0"/>
    <path d="M 527.0,193.0 L 555.0,210.0 L 579.0,239.0 L 560.0,668.0 L 538.0,803.0 L 504.0,883.0 L 449.0,946.0 L 388.0,987.0 L 329.0,1015.0 L 268.0,1034.0"/>
    <path d="M 580.0,753.0 L 587.0,783.0 L 633.0,843.0 L 716.0,940.0 L 771.0,992.0 L 928.0,1032.0"/>
  </g>
</svg>
