<svg xmlns="http://www.w3.org/2000/svg" viewBox="0 0 1024 1024">
  <g style="fill:none;stroke:#000000;stroke-width:50;stroke-linecap:round;stroke-linejoin:round;" transform="scale(1, 1) translate(0, 0)">
    <path d="M 88.0,464.0 L 116.0,490.0 L 122.0,504.0 L 152.0,705.0"/>
    <path d="M 152.0,490.0 L 169.0,473.0 L 259.0,447.0 L 275.0,451.0 L 301.0,474.0 L 275.0,589.0 L 249.0,609.0"/>
    <path d="M 173.0,668.0 L 189.0,651.0 L 242.0,637.0 L 297.0,632.0 L 316.0,638.0"/>
    <path d="M 396.0,389.0 L 460.0,438.0 L 483.0,479.0"/>
    <path d="M 731.0,312.0 L 751.0,332.0 L 759.0,350.0 L 718.0,400.0 L 657.0,456.0"/>
    <path d="M 356.0,596.0 L 424.0,602.0 L 765.0,537.0 L 837.0,543.0"/>
    <path d="M 532.0,205.0 L 557.0,224.0 L 585.0,258.0 L 582.0,737.0 L 576.0,877.0 L 566.0,959.0 L 573.0,1022.0 L 570.0,1052.0"/>
    <path d="M 552.0,609.0 L 536.0,626.0 L 529.0,654.0 L 504.0,688.0 L 404.0,800.0 L 332.0,862.0 L 249.0,909.0"/>
    <path d="M 611.0,611.0 L 619.0,641.0 L 669.0,702.0 L 740.0,782.0 L 805.0,842.0 L 964.0,879.0"/>
  </g>
</svg>
