<svg xmlns="http://www.w3.org/2000/svg" viewBox="0 0 1024 1024">
  <g style="fill:none;stroke:#000000;stroke-width:50;stroke-linecap:round;stroke-linejoin:round;" transform="scale(1, 1) translate(0, 0)">
    <path d="M 55.0,443.0 L 83.0,476.0 L 113.0,685.0"/>
    <path d="M 108.0,448.0 L 127.0,452.0 L 206.0,426.0 L 233.0,425.0 L 248.0,437.0 L 257.0,447.0 L 236.0,545.0 L 232.0,557.0 L 216.0,563.0"/>
    <path d="M 131.0,628.0 L 142.0,613.0 L 197.0,598.0 L 263.0,599.0"/>
    <path d="M 417.0,253.0 L 437.0,265.0 L 462.0,297.0 L 418.0,426.0 L 318.0,629.0 L 245.0,740.0 L 221.0,765.0"/>
    <path d="M 376.0,578.0 L 390.0,632.0 L 390.0,767.0 L 376.0,929.0 L 381.0,990.0"/>
    <path d="M 525.0,418.0 L 582.0,417.0 L 775.0,364.0 L 812.0,381.0 L 828.0,398.0 L 823.0,422.0 L 780.0,605.0 L 756.0,622.0"/>
    <path d="M 468.0,565.0 L 503.0,571.0 L 727.0,526.0 L 880.0,505.0 L 962.0,515.0"/>
    <path d="M 505.0,690.0 L 533.0,695.0 L 748.0,652.0 L 799.0,650.0 L 822.0,658.0"/>
    <path d="M 600.0,434.0 L 640.0,458.0 L 640.0,480.0 L 623.0,706.0 L 597.0,810.0 L 569.0,880.0 L 517.0,960.0 L 447.0,1030.0 L 393.0,1064.0"/>
  </g>
</svg>
