<svg xmlns="http://www.w3.org/2000/svg" viewBox="0 0 1024 1024">
  <g style="fill:none;stroke:#000000;stroke-width:50;stroke-linecap:round;stroke-linejoin:round;" transform="scale(1, 1) translate(0, 0)">
    <path d="M 67.0,448.0 L 93.0,471.0 L 98.0,488.0 L 133.0,697.0"/>
    <path d="M 126.0,473.0 L 138.0,460.0 L 244.0,428.0 L 276.0,443.0 L 286.0,454.0 L 259.0,572.0 L 235.0,590.0"/>
    <path d="M 153.0,649.0 L 168.0,632.0 L 226.0,619.0 L 280.0,615.0 L 300.0,622.0"/>
    <path d="M 520.0,254.0 L 541.0,269.0 L 559.0,295.0 L 524.0,395.0 L 474.0,492.0 L 415.0,586.0 L 365.0,651.0 L 291.0,729.0 L 193.0,809.0"/>
    <path d="M 578.0,368.0 L 578.0,382.0 L 689.0,509.0 L 809.0,624.0 L 846.0,639.0 L 992.0,664.0"/>
    <path d="M 448.0,654.0 L 473.0,660.0 L 510.0,658.0 L 631.0,628.0 L 687.0,625.0"/>
    <path d="M 382.0,793.0 L 413.0,819.0 L 420.0,837.0 L 460.0,1040.0"/>
    <path d="M 445.0,798.0 L 456.0,807.0 L 474.0,807.0 L 665.0,768.0 L 695.0,774.0 L 727.0,804.0 L 702.0,887.0 L 670.0,920.0"/>
    <path d="M 476.0,993.0 L 493.0,975.0 L 659.0,948.0 L 714.0,944.0 L 745.0,954.0"/>
  </g>
</svg>
