<svg xmlns="http://www.w3.org/2000/svg" viewBox="0 0 1024 1024">
  <g style="fill:none;stroke:#000000;stroke-width:50;stroke-linecap:round;stroke-linejoin:round;" transform="scale(1, 1) translate(0, 0)">
    <path d="M 224.0,446.0 L 279.0,451.0 L 462.0,405.0 L 501.0,406.0"/>
    <path d="M 335.0,233.0 L 382.0,271.0 L 378.0,562.0 L 361.0,588.0"/>
    <path d="M 109.0,647.0 L 182.0,656.0 L 679.0,547.0 L 754.0,538.0 L 791.0,544.0"/>
    <path d="M 219.0,757.0 L 241.0,774.0 L 251.0,791.0 L 292.0,982.0"/>
    <path d="M 271.0,758.0 L 283.0,766.0 L 400.0,734.0 L 432.0,729.0 L 440.0,734.0 L 465.0,756.0 L 444.0,844.0 L 421.0,861.0"/>
    <path d="M 304.0,929.0 L 322.0,911.0 L 410.0,890.0 L 479.0,893.0"/>
    <path d="M 531.0,195.0 L 552.0,202.0 L 587.0,232.0 L 596.0,384.0 L 635.0,600.0 L 686.0,764.0 L 726.0,843.0 L 777.0,918.0 L 808.0,952.0 L 846.0,978.0 L 876.0,984.0 L 897.0,940.0 L 920.0,834.0"/>
    <path d="M 769.0,608.0 L 788.0,646.0 L 746.0,740.0 L 702.0,807.0 L 658.0,856.0 L 603.0,903.0 L 492.0,965.0"/>
    <path d="M 689.0,311.0 L 783.0,363.0 L 812.0,401.0"/>
  </g>
</svg>
