<svg xmlns="http://www.w3.org/2000/svg" viewBox="0 0 1024 1024">
  <g style="fill:none;stroke:#000000;stroke-width:50;stroke-linecap:round;stroke-linejoin:round;" transform="scale(1, 1) translate(0, 0)">
    <path d="M 91.0,452.0 L 119.0,476.0 L 126.0,490.0 L 160.0,696.0"/>
    <path d="M 148.0,453.0 L 163.0,463.0 L 271.0,432.0 L 302.0,446.0 L 312.0,458.0 L 288.0,562.0 L 262.0,578.0"/>
    <path d="M 183.0,644.0 L 195.0,627.0 L 254.0,613.0 L 310.0,608.0 L 331.0,615.0"/>
    <path d="M 403.0,404.0 L 432.0,407.0 L 488.0,400.0 L 687.0,337.0 L 730.0,335.0"/>
    <path d="M 478.0,192.0 L 523.0,230.0 L 548.0,335.0 L 591.0,423.0 L 649.0,508.0 L 719.0,581.0 L 784.0,627.0 L 810.0,638.0 L 840.0,640.0 L 853.0,601.0 L 862.0,536.0 L 859.0,519.0"/>
    <path d="M 751.0,401.0 L 760.0,426.0 L 760.0,450.0 L 704.0,492.0 L 635.0,537.0 L 539.0,583.0 L 464.0,611.0"/>
    <path d="M 379.0,721.0 L 423.0,730.0 L 686.0,683.0 L 749.0,687.0"/>
    <path d="M 476.0,749.0 L 506.0,778.0 L 475.0,874.0 L 449.0,923.0 L 419.0,960.0 L 383.0,990.0 L 304.0,1025.0"/>
    <path d="M 596.0,727.0 L 624.0,742.0 L 638.0,760.0 L 628.0,826.0 L 627.0,925.0 L 632.0,963.0 L 643.0,989.0 L 669.0,1008.0 L 701.0,1017.0 L 794.0,1020.0 L 862.0,1011.0 L 906.0,994.0 L 912.0,850.0"/>
  </g>
</svg>
