<svg xmlns="http://www.w3.org/2000/svg" viewBox="0 0 1024 1024">
  <g style="fill:none;stroke:#000000;stroke-width:50;stroke-linecap:round;stroke-linejoin:round;" transform="scale(1, 1) translate(0, 0)">
    <path d="M 67.0,500.0 L 86.0,517.0 L 97.0,537.0 L 125.0,721.0"/>
    <path d="M 116.0,502.0 L 129.0,508.0 L 218.0,481.0 L 235.0,481.0 L 265.0,504.0 L 240.0,606.0 L 216.0,626.0"/>
    <path d="M 142.0,684.0 L 163.0,665.0 L 218.0,652.0 L 261.0,647.0 L 284.0,654.0"/>
    <path d="M 541.0,544.0 L 568.0,549.0 L 603.0,546.0 L 785.0,495.0 L 847.0,495.0"/>
    <path d="M 634.0,247.0 L 678.0,273.0 L 687.0,289.0 L 681.0,486.0 L 667.0,604.0 L 641.0,708.0 L 620.0,755.0 L 572.0,816.0 L 527.0,847.0"/>
    <path d="M 696.0,638.0 L 697.0,654.0 L 758.0,707.0 L 821.0,774.0 L 845.0,812.0 L 852.0,843.0"/>
    <path d="M 373.0,315.0 L 462.0,366.0 L 487.0,400.0"/>
    <path d="M 297.0,578.0 L 343.0,572.0 L 384.0,548.0 L 418.0,540.0 L 447.0,559.0 L 445.0,596.0 L 417.0,657.0 L 412.0,686.0 L 421.0,722.0 L 456.0,791.0 L 460.0,814.0 L 453.0,842.0 L 438.0,854.0"/>
    <path d="M 291.0,894.0 L 331.0,904.0 L 397.0,879.0 L 465.0,877.0 L 504.0,886.0 L 670.0,956.0 L 802.0,989.0 L 868.0,985.0 L 940.0,966.0"/>
  </g>
</svg>
