<svg xmlns="http://www.w3.org/2000/svg" viewBox="0 0 1024 1024">
  <g style="fill:none;stroke:#000000;stroke-width:50;stroke-linecap:round;stroke-linejoin:round;" transform="scale(1, 1) translate(0, 0)">
    <path d="M 103.0,424.0 L 128.0,447.0 L 135.0,466.0 L 165.0,653.0"/>
    <path d="M 156.0,430.0 L 168.0,435.0 L 242.0,410.0 L 270.0,409.0 L 294.0,430.0 L 277.0,527.0 L 254.0,542.0"/>
    <path d="M 182.0,607.0 L 193.0,591.0 L 231.0,579.0 L 300.0,566.0 L 321.0,572.0"/>
    <path d="M 475.0,227.0 L 487.0,235.0 L 505.0,267.0 L 491.0,301.0 L 407.0,439.0 L 351.0,499.0"/>
    <path d="M 468.0,402.0 L 468.0,523.0 L 459.0,608.0 L 464.0,666.0"/>
    <path d="M 776.0,257.0 L 790.0,282.0 L 793.0,305.0 L 769.0,334.0 L 661.0,435.0 L 569.0,492.0"/>
    <path d="M 607.0,205.0 L 628.0,227.0 L 642.0,253.0 L 629.0,361.0 L 630.0,496.0 L 641.0,550.0 L 654.0,573.0 L 690.0,591.0 L 748.0,598.0 L 827.0,593.0 L 869.0,579.0 L 880.0,571.0 L 880.0,429.0"/>
    <path d="M 326.0,779.0 L 378.0,788.0 L 557.0,761.0 L 845.0,731.0 L 892.0,738.0 L 927.0,751.0"/>
    <path d="M 554.0,622.0 L 572.0,632.0 L 592.0,658.0 L 583.0,1069.0"/>
  </g>
</svg>
