<svg xmlns="http://www.w3.org/2000/svg" viewBox="0 0 1024 1024">
  <g style="fill:none;stroke:#000000;stroke-width:50;stroke-linecap:round;stroke-linejoin:round;" transform="scale(1, 1) translate(0, 0)">
    <path d="M 56.0,496.0 L 83.0,520.0 L 89.0,533.0 L 120.0,732.0"/>
    <path d="M 110.0,497.0 L 123.0,504.0 L 219.0,472.0 L 235.0,476.0 L 258.0,495.0 L 236.0,612.0 L 218.0,629.0"/>
    <path d="M 141.0,685.0 L 151.0,674.0 L 206.0,657.0 L 250.0,651.0 L 273.0,656.0"/>
    <path d="M 442.0,261.0 L 456.0,272.0 L 472.0,305.0 L 426.0,408.0 L 344.0,555.0 L 340.0,577.0 L 445.0,575.0 L 464.0,564.0"/>
    <path d="M 528.0,433.0 L 543.0,453.0 L 547.0,474.0 L 481.0,583.0 L 401.0,690.0 L 388.0,717.0 L 386.0,737.0 L 412.0,736.0 L 551.0,687.0"/>
    <path d="M 281.0,912.0 L 336.0,918.0 L 555.0,799.0"/>
    <path d="M 682.0,243.0 L 707.0,260.0 L 720.0,279.0 L 711.0,321.0 L 660.0,458.0 L 627.0,523.0 L 596.0,567.0"/>
    <path d="M 661.0,496.0 L 681.0,486.0 L 830.0,449.0 L 860.0,462.0 L 877.0,485.0 L 862.0,760.0 L 846.0,852.0 L 813.0,945.0 L 800.0,965.0 L 766.0,992.0 L 687.0,936.0 L 685.0,926.0 L 672.0,922.0"/>
    <path d="M 583.0,638.0 L 659.0,700.0 L 675.0,734.0"/>
  </g>
</svg>
