<svg xmlns="http://www.w3.org/2000/svg" viewBox="0 0 1024 1024">
  <g style="fill:none;stroke:#000000;stroke-width:50;stroke-linecap:round;stroke-linejoin:round;" transform="scale(1, 1) translate(0, 0)">
    <path d="M 90.0,479.0 L 118.0,504.0 L 125.0,520.0 L 152.0,705.0"/>
    <path d="M 146.0,480.0 L 162.0,490.0 L 269.0,456.0 L 297.0,470.0 L 308.0,483.0 L 281.0,591.0 L 256.0,605.0"/>
    <path d="M 173.0,673.0 L 191.0,655.0 L 249.0,640.0 L 302.0,636.0 L 323.0,643.0"/>
    <path d="M 409.0,400.0 L 423.0,435.0 L 395.0,529.0 L 393.0,559.0"/>
    <path d="M 456.0,435.0 L 478.0,442.0 L 631.0,401.0 L 728.0,385.0 L 762.0,399.0 L 776.0,418.0 L 717.0,498.0"/>
    <path d="M 563.0,212.0 L 593.0,235.0 L 608.0,271.0 L 552.0,489.0 L 490.0,650.0 L 448.0,728.0 L 365.0,831.0 L 280.0,895.0 L 248.0,908.0"/>
    <path d="M 497.0,703.0 L 507.0,741.0 L 505.0,917.0 L 515.0,957.0 L 557.0,940.0 L 645.0,864.0"/>
    <path d="M 760.0,530.0 L 777.0,551.0 L 782.0,568.0 L 708.0,643.0 L 675.0,668.0 L 673.0,680.0"/>
    <path d="M 551.0,598.0 L 566.0,595.0 L 586.0,613.0 L 720.0,777.0 L 813.0,863.0 L 872.0,883.0 L 970.0,896.0"/>
  </g>
</svg>
