<svg xmlns="http://www.w3.org/2000/svg" viewBox="0 0 1024 1024">
  <g style="fill:none;stroke:#000000;stroke-width:50;stroke-linecap:round;stroke-linejoin:round;" transform="scale(1, 1) translate(0, 0)">
    <path d="M 320.0,265.0 L 391.0,275.0 L 569.0,251.0 L 691.0,226.0 L 763.0,226.0"/>
    <path d="M 320.0,368.0 L 351.0,399.0 L 380.0,518.0"/>
    <path d="M 374.0,371.0 L 383.0,379.0 L 476.0,356.0 L 508.0,357.0 L 526.0,378.0 L 510.0,428.0 L 487.0,440.0"/>
    <path d="M 397.0,499.0 L 413.0,488.0 L 477.0,473.0 L 521.0,470.0 L 544.0,476.0"/>
    <path d="M 633.0,270.0 L 666.0,294.0 L 648.0,498.0 L 656.0,526.0"/>
    <path d="M 108.0,610.0 L 149.0,619.0 L 189.0,617.0 L 461.0,578.0 L 829.0,545.0 L 864.0,546.0 L 943.0,569.0"/>
    <path d="M 292.0,694.0 L 317.0,714.0 L 325.0,729.0 L 360.0,869.0"/>
    <path d="M 344.0,693.0 L 359.0,703.0 L 482.0,674.0 L 502.0,678.0 L 522.0,692.0 L 529.0,705.0 L 506.0,774.0 L 489.0,779.0"/>
    <path d="M 376.0,820.0 L 387.0,830.0 L 477.0,813.0 L 534.0,820.0"/>
    <path d="M 630.0,589.0 L 659.0,611.0 L 674.0,632.0 L 676.0,937.0 L 670.0,978.0 L 647.0,1019.0 L 599.0,1007.0 L 513.0,966.0"/>
  </g>
</svg>
