<svg xmlns="http://www.w3.org/2000/svg" viewBox="0 0 1024 1024">
  <g style="fill:none;stroke:#000000;stroke-width:50;stroke-linecap:round;stroke-linejoin:round;" transform="scale(1, 1) translate(0, 0)">
    <path d="M 119.0,444.0 L 148.0,476.0 L 185.0,697.0"/>
    <path d="M 178.0,468.0 L 191.0,455.0 L 282.0,426.0 L 305.0,428.0 L 327.0,448.0 L 310.0,561.0 L 300.0,580.0 L 287.0,587.0"/>
    <path d="M 203.0,649.0 L 213.0,634.0 L 287.0,615.0 L 345.0,616.0"/>
    <path d="M 596.0,195.0 L 629.0,220.0 L 641.0,238.0 L 631.0,503.0 L 613.0,524.0"/>
    <path d="M 428.0,343.0 L 505.0,411.0 L 517.0,440.0"/>
    <path d="M 807.0,262.0 L 828.0,284.0 L 834.0,301.0 L 781.0,359.0 L 705.0,424.0"/>
    <path d="M 467.0,537.0 L 493.0,562.0 L 500.0,579.0 L 502.0,656.0 L 490.0,816.0 L 479.0,883.0 L 460.0,942.0 L 459.0,999.0"/>
    <path d="M 523.0,544.0 L 531.0,553.0 L 549.0,554.0 L 651.0,536.0 L 727.0,513.0 L 755.0,527.0 L 769.0,545.0 L 769.0,693.0 L 781.0,923.0 L 775.0,989.0 L 757.0,1014.0 L 643.0,975.0"/>
    <path d="M 524.0,686.0 L 536.0,676.0 L 634.0,658.0 L 657.0,656.0 L 679.0,662.0"/>
    <path d="M 517.0,799.0 L 550.0,786.0 L 615.0,775.0 L 647.0,771.0 L 682.0,777.0"/>
  </g>
</svg>
