<svg xmlns="http://www.w3.org/2000/svg" viewBox="0 0 1024 1024">
  <g style="fill:none;stroke:#000000;stroke-width:50;stroke-linecap:round;stroke-linejoin:round;" transform="scale(1, 1) translate(0, 0)">
    <path d="M 100.0,460.0 L 128.0,485.0 L 134.0,499.0 L 168.0,712.0"/>
    <path d="M 164.0,484.0 L 173.0,473.0 L 280.0,440.0 L 312.0,455.0 L 322.0,466.0 L 295.0,581.0 L 271.0,599.0"/>
    <path d="M 186.0,661.0 L 199.0,645.0 L 263.0,628.0 L 310.0,623.0 L 336.0,630.0"/>
    <path d="M 457.0,429.0 L 540.0,429.0 L 713.0,385.0 L 765.0,382.0"/>
    <path d="M 566.0,223.0 L 612.0,263.0 L 602.0,528.0 L 585.0,552.0"/>
    <path d="M 378.0,604.0 L 432.0,608.0 L 589.0,575.0 L 796.0,543.0 L 840.0,545.0 L 890.0,557.0"/>
    <path d="M 501.0,615.0 L 535.0,634.0 L 544.0,650.0 L 533.0,766.0 L 516.0,829.0 L 495.0,873.0 L 455.0,928.0 L 401.0,976.0 L 368.0,995.0"/>
    <path d="M 643.0,591.0 L 673.0,613.0 L 684.0,635.0 L 689.0,937.0 L 685.0,966.0 L 677.0,991.0 L 664.0,1007.0 L 616.0,991.0 L 564.0,962.0"/>
    <path d="M 415.0,710.0 L 393.0,776.0 L 342.0,871.0"/>
    <path d="M 776.0,705.0 L 866.0,781.0 L 889.0,842.0"/>
  </g>
</svg>
