<svg xmlns="http://www.w3.org/2000/svg" viewBox="0 0 1024 1024">
  <g style="fill:none;stroke:#000000;stroke-width:50;stroke-linecap:round;stroke-linejoin:round;" transform="scale(1, 1) translate(0, 0)">
    <path d="M 106.0,436.0 L 138.0,474.0 L 168.0,676.0"/>
    <path d="M 144.0,432.0 L 168.0,439.0 L 282.0,407.0 L 311.0,425.0 L 316.0,442.0 L 294.0,540.0 L 270.0,563.0"/>
    <path d="M 187.0,617.0 L 202.0,602.0 L 267.0,590.0 L 322.0,595.0"/>
    <path d="M 449.0,379.0 L 480.0,385.0 L 539.0,381.0 L 660.0,353.0 L 692.0,357.0"/>
    <path d="M 540.0,203.0 L 580.0,237.0 L 571.0,475.0 L 566.0,489.0 L 554.0,499.0"/>
    <path d="M 357.0,544.0 L 410.0,550.0 L 571.0,520.0 L 797.0,489.0 L 858.0,493.0 L 893.0,504.0"/>
    <path d="M 750.0,243.0 L 767.0,270.0 L 775.0,302.0 L 714.0,403.0 L 643.0,501.0 L 480.0,676.0 L 376.0,767.0 L 288.0,835.0 L 168.0,906.0"/>
    <path d="M 447.0,652.0 L 502.0,662.0 L 628.0,617.0 L 674.0,615.0 L 698.0,637.0 L 686.0,659.0 L 618.0,733.0"/>
    <path d="M 566.0,733.0 L 595.0,749.0 L 621.0,792.0 L 632.0,868.0 L 632.0,930.0 L 624.0,983.0 L 608.0,1024.0 L 575.0,1049.0 L 495.0,992.0"/>
    <path d="M 378.0,836.0 L 431.0,843.0 L 578.0,817.0 L 784.0,796.0 L 842.0,801.0 L 873.0,812.0"/>
  </g>
</svg>
