<svg xmlns="http://www.w3.org/2000/svg" viewBox="0 0 1024 1024">
  <g style="fill:none;stroke:#000000;stroke-width:50;stroke-linecap:round;stroke-linejoin:round;" transform="scale(1, 1) translate(0, 0)">
    <path d="M 181.0,394.0 L 231.0,399.0 L 352.0,374.0 L 435.0,349.0 L 482.0,351.0"/>
    <path d="M 340.0,214.0 L 362.0,229.0 L 379.0,253.0 L 370.0,482.0 L 373.0,654.0 L 356.0,693.0 L 245.0,653.0"/>
    <path d="M 103.0,587.0 L 159.0,600.0 L 475.0,447.0"/>
    <path d="M 816.0,273.0 L 750.0,271.0 L 666.0,333.0 L 618.0,357.0 L 618.0,363.0"/>
    <path d="M 535.0,352.0 L 550.0,357.0 L 574.0,379.0 L 573.0,484.0 L 555.0,571.0 L 511.0,646.0 L 466.0,694.0 L 435.0,715.0"/>
    <path d="M 602.0,486.0 L 613.0,478.0 L 684.0,468.0 L 844.0,428.0 L 874.0,426.0 L 908.0,435.0"/>
    <path d="M 709.0,487.0 L 741.0,508.0 L 739.0,755.0"/>
    <path d="M 298.0,822.0 L 331.0,847.0 L 338.0,864.0 L 380.0,1052.0"/>
    <path d="M 368.0,852.0 L 387.0,835.0 L 515.0,815.0 L 629.0,788.0 L 663.0,789.0 L 704.0,827.0 L 668.0,928.0 L 660.0,941.0 L 632.0,961.0"/>
    <path d="M 399.0,1027.0 L 412.0,1013.0 L 619.0,991.0 L 683.0,992.0 L 708.0,1002.0"/>
  </g>
</svg>
