<svg xmlns="http://www.w3.org/2000/svg" viewBox="0 0 1024 1024">
  <g style="fill:none;stroke:#000000;stroke-width:50;stroke-linecap:round;stroke-linejoin:round;" transform="scale(1, 1) translate(0, 0)">
    <path d="M 78.0,481.0 L 105.0,505.0 L 112.0,521.0 L 152.0,737.0"/>
    <path d="M 136.0,485.0 L 150.0,495.0 L 260.0,458.0 L 286.0,458.0 L 303.0,470.0 L 313.0,482.0 L 280.0,609.0 L 256.0,621.0"/>
    <path d="M 172.0,686.0 L 183.0,671.0 L 252.0,656.0 L 320.0,664.0"/>
    <path d="M 486.0,361.0 L 528.0,367.0 L 566.0,363.0 L 736.0,325.0 L 776.0,326.0"/>
    <path d="M 593.0,181.0 L 624.0,206.0 L 633.0,221.0 L 617.0,428.0 L 599.0,452.0"/>
    <path d="M 422.0,458.0 L 435.0,490.0 L 396.0,598.0 L 395.0,639.0"/>
    <path d="M 455.0,521.0 L 492.0,499.0 L 700.0,452.0 L 804.0,435.0 L 851.0,442.0 L 874.0,476.0 L 780.0,571.0"/>
    <path d="M 474.0,608.0 L 491.0,616.0 L 529.0,617.0 L 656.0,570.0 L 684.0,570.0 L 708.0,595.0 L 704.0,602.0 L 633.0,680.0 L 621.0,680.0"/>
    <path d="M 568.0,681.0 L 592.0,691.0 L 616.0,713.0 L 631.0,746.0 L 655.0,872.0 L 653.0,967.0 L 639.0,1018.0 L 605.0,1051.0 L 509.0,995.0"/>
    <path d="M 337.0,807.0 L 396.0,813.0 L 587.0,776.0 L 863.0,738.0 L 943.0,755.0"/>
  </g>
</svg>
