<svg xmlns="http://www.w3.org/2000/svg" viewBox="0 0 1024 1024">
  <g style="fill:none;stroke:#000000;stroke-width:50;stroke-linecap:round;stroke-linejoin:round;" transform="scale(1, 1) translate(0, 0)">
    <path d="M 90.0,441.0 L 111.0,459.0 L 123.0,482.0 L 164.0,717.0"/>
    <path d="M 143.0,439.0 L 157.0,449.0 L 269.0,416.0 L 304.0,441.0 L 287.0,563.0 L 264.0,584.0"/>
    <path d="M 184.0,644.0 L 196.0,628.0 L 256.0,613.0 L 311.0,607.0 L 332.0,614.0"/>
    <path d="M 374.0,432.0 L 428.0,436.0 L 583.0,402.0 L 811.0,364.0 L 845.0,364.0 L 905.0,377.0"/>
    <path d="M 415.0,554.0 L 440.0,574.0 L 450.0,600.0 L 454.0,669.0 L 445.0,846.0 L 422.0,1000.0"/>
    <path d="M 465.0,560.0 L 488.0,571.0 L 755.0,515.0 L 786.0,526.0 L 810.0,552.0 L 816.0,878.0 L 811.0,984.0 L 797.0,1016.0 L 753.0,1008.0 L 682.0,981.0"/>
    <path d="M 525.0,691.0 L 659.0,657.0 L 689.0,653.0 L 712.0,658.0"/>
    <path d="M 512.0,809.0 L 659.0,777.0 L 695.0,772.0 L 727.0,777.0"/>
    <path d="M 563.0,202.0 L 587.0,208.0 L 620.0,242.0 L 612.0,375.0 L 607.0,974.0"/>
    <path d="M 711.0,216.0 L 781.0,262.0 L 792.0,284.0"/>
  </g>
</svg>
