<svg xmlns="http://www.w3.org/2000/svg" viewBox="0 0 1024 1024">
  <g style="fill:none;stroke:#000000;stroke-width:50;stroke-linecap:round;stroke-linejoin:round;" transform="scale(1, 1) translate(0, 0)">
    <path d="M 99.0,476.0 L 124.0,500.0 L 134.0,533.0 L 165.0,745.0"/>
    <path d="M 156.0,499.0 L 179.0,483.0 L 272.0,456.0 L 285.0,456.0 L 304.0,470.0 L 313.0,480.0 L 290.0,594.0 L 269.0,604.0"/>
    <path d="M 182.0,665.0 L 196.0,653.0 L 261.0,637.0 L 323.0,639.0"/>
    <path d="M 545.0,192.0 L 573.0,208.0 L 591.0,235.0 L 556.0,301.0 L 469.0,422.0 L 461.0,457.0 L 488.0,458.0 L 589.0,430.0 L 700.0,410.0 L 720.0,409.0 L 735.0,416.0"/>
    <path d="M 698.0,331.0 L 765.0,400.0 L 779.0,422.0 L 787.0,459.0"/>
    <path d="M 509.0,573.0 L 477.0,580.0 L 459.0,609.0 L 394.0,674.0 L 329.0,718.0"/>
    <path d="M 706.0,514.0 L 825.0,587.0 L 857.0,637.0"/>
    <path d="M 512.0,638.0 L 532.0,676.0 L 500.0,728.0 L 445.0,794.0 L 386.0,850.0 L 328.0,894.0 L 262.0,933.0 L 250.0,932.0 L 244.0,940.0"/>
    <path d="M 542.0,723.0 L 674.0,686.0 L 702.0,690.0 L 722.0,701.0 L 681.0,813.0 L 647.0,874.0 L 609.0,921.0 L 550.0,968.0 L 496.0,997.0 L 399.0,1029.0 L 359.0,1032.0"/>
    <path d="M 485.0,790.0 L 505.0,792.0 L 525.0,807.0 L 649.0,934.0 L 753.0,1011.0 L 775.0,1021.0 L 826.0,1029.0 L 948.0,1041.0"/>
  </g>
</svg>
