<svg xmlns="http://www.w3.org/2000/svg" viewBox="0 0 1024 1024">
  <g style="fill:none;stroke:#000000;stroke-width:50;stroke-linecap:round;stroke-linejoin:round;" transform="scale(1, 1) translate(0, 0)">
    <path d="M 470.0,179.0 L 552.0,215.0 L 590.0,253.0"/>
    <path d="M 347.0,354.0 L 365.0,366.0 L 419.0,364.0 L 614.0,335.0 L 726.0,311.0 L 785.0,308.0"/>
    <path d="M 276.0,331.0 L 298.0,350.0 L 313.0,382.0 L 295.0,544.0 L 260.0,707.0 L 225.0,802.0 L 182.0,884.0 L 147.0,938.0 L 89.0,1006.0"/>
    <path d="M 394.0,518.0 L 451.0,520.0 L 593.0,496.0 L 688.0,470.0 L 727.0,474.0 L 754.0,502.0 L 704.0,661.0 L 679.0,678.0"/>
    <path d="M 336.0,633.0 L 386.0,640.0 L 621.0,601.0 L 842.0,578.0 L 868.0,578.0 L 928.0,593.0"/>
    <path d="M 396.0,743.0 L 416.0,749.0 L 680.0,706.0 L 724.0,704.0 L 745.0,713.0"/>
    <path d="M 519.0,395.0 L 547.0,414.0 L 560.0,438.0 L 557.0,587.0 L 541.0,801.0"/>
    <path d="M 356.0,855.0 L 385.0,876.0 L 395.0,896.0 L 435.0,1065.0"/>
    <path d="M 414.0,855.0 L 425.0,864.0 L 446.0,866.0 L 661.0,828.0 L 704.0,831.0 L 740.0,863.0 L 709.0,948.0 L 682.0,966.0"/>
    <path d="M 450.0,1030.0 L 466.0,1016.0 L 635.0,997.0 L 718.0,996.0 L 740.0,1005.0"/>
  </g>
</svg>
