<svg xmlns="http://www.w3.org/2000/svg" viewBox="0 0 1024 1024">
  <g style="fill:none;stroke:#000000;stroke-width:50;stroke-linecap:round;stroke-linejoin:round;" transform="scale(1, 1) translate(0, 0)">
    <path d="M 99.0,452.0 L 124.0,475.0 L 128.0,487.0 L 157.0,677.0"/>
    <path d="M 153.0,459.0 L 173.0,462.0 L 254.0,437.0 L 281.0,437.0 L 296.0,448.0 L 305.0,459.0 L 285.0,547.0 L 280.0,559.0 L 263.0,571.0"/>
    <path d="M 175.0,630.0 L 189.0,615.0 L 249.0,601.0 L 293.0,598.0 L 321.0,605.0"/>
    <path d="M 655.0,188.0 L 674.0,232.0 L 631.0,295.0 L 584.0,348.0 L 543.0,383.0 L 448.0,440.0"/>
    <path d="M 472.0,267.0 L 691.0,369.0 L 728.0,397.0 L 745.0,424.0"/>
    <path d="M 354.0,540.0 L 410.0,546.0 L 605.0,510.0 L 847.0,484.0 L 924.0,500.0"/>
    <path d="M 578.0,453.0 L 547.0,467.0 L 487.0,593.0 L 445.0,659.0 L 368.0,760.0 L 299.0,833.0 L 241.0,880.0"/>
    <path d="M 469.0,676.0 L 481.0,756.0 L 478.0,817.0 L 469.0,858.0 L 470.0,907.0"/>
    <path d="M 487.0,671.0 L 511.0,681.0 L 751.0,629.0 L 764.0,629.0 L 780.0,640.0 L 792.0,663.0 L 792.0,791.0 L 789.0,837.0 L 780.0,869.0 L 772.0,881.0 L 765.0,881.0 L 686.0,850.0"/>
    <path d="M 592.0,574.0 L 622.0,596.0 L 631.0,623.0 L 619.0,1082.0"/>
  </g>
</svg>
