<svg xmlns="http://www.w3.org/2000/svg" viewBox="0 0 1024 1024">
  <g style="fill:none;stroke:#000000;stroke-width:50;stroke-linecap:round;stroke-linejoin:round;" transform="scale(1, 1) translate(0, 0)">
    <path d="M 84.0,492.0 L 108.0,512.0 L 118.0,531.0 L 152.0,740.0"/>
    <path d="M 144.0,512.0 L 163.0,497.0 L 264.0,471.0 L 273.0,470.0 L 294.0,484.0 L 305.0,496.0 L 304.0,506.0 L 279.0,614.0 L 256.0,630.0"/>
    <path d="M 170.0,692.0 L 184.0,676.0 L 245.0,660.0 L 292.0,656.0 L 316.0,662.0"/>
    <path d="M 559.0,203.0 L 583.0,240.0 L 577.0,260.0 L 526.0,331.0 L 482.0,379.0 L 441.0,418.0 L 404.0,443.0"/>
    <path d="M 526.0,369.0 L 656.0,344.0 L 691.0,355.0 L 679.0,388.0 L 604.0,494.0 L 581.0,511.0"/>
    <path d="M 376.0,533.0 L 407.0,560.0 L 417.0,585.0 L 433.0,723.0 L 421.0,732.0"/>
    <path d="M 435.0,544.0 L 454.0,553.0 L 682.0,505.0 L 743.0,503.0 L 770.0,529.0 L 774.0,542.0 L 742.0,672.0 L 712.0,699.0"/>
    <path d="M 282.0,767.0 L 331.0,777.0 L 639.0,733.0 L 831.0,716.0 L 874.0,717.0 L 933.0,734.0"/>
    <path d="M 547.0,551.0 L 585.0,581.0 L 583.0,639.0 L 556.0,774.0 L 520.0,851.0 L 456.0,928.0 L 377.0,977.0 L 310.0,1002.0"/>
    <path d="M 595.0,769.0 L 683.0,877.0 L 774.0,969.0 L 829.0,988.0 L 928.0,1007.0"/>
  </g>
</svg>
