<svg xmlns="http://www.w3.org/2000/svg" viewBox="0 0 1024 1024">
  <g style="fill:none;stroke:#000000;stroke-width:50;stroke-linecap:round;stroke-linejoin:round;" transform="scale(1, 1) translate(0, 0)">
    <path d="M 104.0,476.0 L 137.0,510.0 L 172.0,732.0"/>
    <path d="M 164.0,486.0 L 178.0,490.0 L 284.0,457.0 L 307.0,460.0 L 330.0,481.0 L 307.0,593.0 L 283.0,611.0"/>
    <path d="M 191.0,676.0 L 206.0,659.0 L 275.0,640.0 L 322.0,637.0 L 345.0,642.0"/>
    <path d="M 592.0,199.0 L 622.0,222.0 L 632.0,240.0 L 622.0,422.0 L 606.0,444.0"/>
    <path d="M 440.0,318.0 L 509.0,365.0 L 523.0,396.0"/>
    <path d="M 774.0,234.0 L 792.0,254.0 L 799.0,272.0 L 719.0,350.0 L 704.0,356.0 L 700.0,366.0"/>
    <path d="M 460.0,451.0 L 485.0,476.0 L 492.0,500.0 L 494.0,706.0 L 486.0,768.0 L 492.0,835.0"/>
    <path d="M 523.0,489.0 L 532.0,480.0 L 599.0,470.0 L 658.0,448.0 L 709.0,440.0 L 725.0,443.0 L 756.0,474.0 L 752.0,606.0 L 758.0,747.0 L 751.0,823.0"/>
    <path d="M 566.0,543.0 L 588.0,551.0 L 619.0,579.0 L 615.0,752.0 L 606.0,804.0 L 583.0,875.0 L 550.0,926.0 L 507.0,965.0 L 426.0,1011.0 L 372.0,1029.0"/>
    <path d="M 678.0,880.0 L 803.0,971.0 L 824.0,999.0 L 837.0,1034.0"/>
  </g>
</svg>
