<svg xmlns="http://www.w3.org/2000/svg" viewBox="0 0 1024 1024">
  <g style="fill:none;stroke:#000000;stroke-width:50;stroke-linecap:round;stroke-linejoin:round;" transform="scale(1, 1) translate(0, 0)">
    <path d="M 94.0,409.0 L 126.0,443.0 L 164.0,653.0"/>
    <path d="M 152.0,413.0 L 162.0,419.0 L 256.0,386.0 L 285.0,387.0 L 310.0,408.0 L 287.0,525.0 L 266.0,540.0"/>
    <path d="M 179.0,597.0 L 196.0,580.0 L 239.0,571.0 L 319.0,571.0"/>
    <path d="M 511.0,179.0 L 529.0,192.0 L 553.0,223.0 L 499.0,369.0 L 393.0,570.0 L 339.0,652.0 L 289.0,709.0"/>
    <path d="M 453.0,511.0 L 460.0,544.0 L 478.0,582.0 L 475.0,812.0 L 458.0,983.0 L 463.0,1051.0"/>
    <path d="M 652.0,236.0 L 722.0,274.0 L 749.0,311.0"/>
    <path d="M 557.0,434.0 L 601.0,440.0 L 647.0,436.0 L 830.0,391.0 L 879.0,394.0"/>
    <path d="M 582.0,584.0 L 625.0,581.0 L 767.0,548.0 L 811.0,544.0 L 834.0,550.0"/>
    <path d="M 573.0,712.0 L 605.0,712.0 L 786.0,677.0 L 818.0,675.0 L 842.0,682.0"/>
    <path d="M 668.0,459.0 L 703.0,488.0 L 701.0,792.0 L 684.0,815.0"/>
    <path d="M 504.0,853.0 L 515.0,861.0 L 539.0,864.0 L 860.0,820.0 L 918.0,825.0 L 949.0,836.0"/>
  </g>
</svg>
