<svg xmlns="http://www.w3.org/2000/svg" viewBox="0 0 1024 1024">
  <g style="fill:none;stroke:#000000;stroke-width:50;stroke-linecap:round;stroke-linejoin:round;" transform="scale(1, 1) translate(0, 0)">
    <path d="M 71.0,464.0 L 97.0,487.0 L 101.0,498.0 L 141.0,729.0"/>
    <path d="M 129.0,488.0 L 137.0,477.0 L 228.0,448.0 L 261.0,451.0 L 282.0,472.0 L 262.0,566.0 L 238.0,590.0"/>
    <path d="M 155.0,652.0 L 169.0,637.0 L 231.0,619.0 L 292.0,621.0"/>
    <path d="M 353.0,418.0 L 376.0,425.0 L 417.0,426.0 L 694.0,369.0 L 759.0,364.0"/>
    <path d="M 503.0,201.0 L 519.0,209.0 L 553.0,245.0 L 491.0,416.0 L 432.0,543.0 L 384.0,622.0 L 331.0,689.0 L 275.0,748.0 L 193.0,811.0"/>
    <path d="M 601.0,417.0 L 617.0,424.0 L 746.0,571.0 L 816.0,631.0 L 965.0,660.0"/>
    <path d="M 394.0,666.0 L 429.0,893.0"/>
    <path d="M 423.0,686.0 L 432.0,671.0 L 610.0,637.0 L 667.0,632.0 L 697.0,640.0 L 719.0,666.0 L 664.0,849.0 L 667.0,869.0"/>
    <path d="M 459.0,765.0 L 582.0,740.0 L 620.0,744.0"/>
    <path d="M 449.0,868.0 L 478.0,856.0 L 631.0,829.0"/>
    <path d="M 521.0,558.0 L 546.0,588.0 L 547.0,601.0 L 534.0,792.0 L 535.0,899.0 L 550.0,965.0 L 575.0,1003.0 L 624.0,1026.0 L 696.0,1034.0 L 791.0,1022.0 L 831.0,1002.0 L 853.0,981.0 L 852.0,836.0"/>
  </g>
</svg>
