<svg xmlns="http://www.w3.org/2000/svg" viewBox="0 0 1024 1024">
  <g style="fill:none;stroke:#000000;stroke-width:50;stroke-linecap:round;stroke-linejoin:round;" transform="scale(1, 1) translate(0, 0)">
    <path d="M 58.0,421.0 L 85.0,445.0 L 92.0,462.0 L 132.0,677.0"/>
    <path d="M 113.0,423.0 L 126.0,431.0 L 243.0,396.0 L 274.0,410.0 L 285.0,422.0 L 284.0,432.0 L 261.0,530.0 L 237.0,548.0"/>
    <path d="M 152.0,611.0 L 157.0,598.0 L 233.0,576.0 L 296.0,577.0"/>
    <path d="M 501.0,190.0 L 540.0,223.0 L 517.0,311.0 L 473.0,412.0 L 384.0,560.0 L 335.0,619.0 L 257.0,693.0"/>
    <path d="M 563.0,275.0 L 570.0,281.0 L 569.0,293.0 L 635.0,362.0 L 740.0,460.0 L 802.0,507.0 L 893.0,535.0 L 979.0,550.0"/>
    <path d="M 500.0,450.0 L 561.0,483.0 L 586.0,516.0"/>
    <path d="M 401.0,632.0 L 423.0,638.0 L 467.0,633.0 L 589.0,592.0 L 609.0,590.0 L 642.0,600.0 L 619.0,655.0 L 567.0,739.0"/>
    <path d="M 350.0,819.0 L 333.0,881.0 L 303.0,936.0 L 294.0,965.0"/>
    <path d="M 429.0,844.0 L 442.0,862.0 L 462.0,914.0 L 501.0,955.0 L 545.0,978.0 L 651.0,996.0 L 717.0,989.0 L 748.0,971.0 L 694.0,858.0"/>
    <path d="M 525.0,793.0 L 583.0,822.0 L 607.0,854.0"/>
    <path d="M 733.0,735.0 L 832.0,786.0 L 863.0,826.0"/>
  </g>
</svg>
