<svg xmlns="http://www.w3.org/2000/svg" viewBox="0 0 1024 1024">
  <g style="fill:none;stroke:#000000;stroke-width:50;stroke-linecap:round;stroke-linejoin:round;" transform="scale(1, 1) translate(0, 0)">
    <path d="M 86.0,459.0 L 120.0,496.0 L 152.0,713.0"/>
    <path d="M 149.0,484.0 L 169.0,468.0 L 256.0,442.0 L 282.0,441.0 L 301.0,455.0 L 311.0,466.0 L 285.0,584.0 L 259.0,604.0"/>
    <path d="M 173.0,661.0 L 184.0,651.0 L 251.0,631.0 L 302.0,623.0 L 325.0,628.0"/>
    <path d="M 534.0,209.0 L 620.0,262.0 L 639.0,292.0"/>
    <path d="M 484.0,427.0 L 495.0,414.0 L 717.0,359.0 L 747.0,371.0 L 766.0,394.0 L 733.0,468.0 L 705.0,482.0"/>
    <path d="M 473.0,545.0 L 483.0,552.0 L 697.0,511.0 L 754.0,517.0"/>
    <path d="M 410.0,384.0 L 436.0,407.0 L 448.0,432.0 L 435.0,563.0 L 414.0,677.0 L 395.0,742.0 L 356.0,825.0 L 319.0,882.0 L 253.0,947.0 L 175.0,995.0"/>
    <path d="M 470.0,730.0 L 490.0,736.0 L 537.0,736.0 L 720.0,693.0 L 777.0,693.0"/>
    <path d="M 582.0,612.0 L 614.0,651.0 L 603.0,753.0 L 569.0,858.0 L 547.0,895.0 L 500.0,946.0 L 446.0,981.0 L 390.0,1002.0"/>
    <path d="M 629.0,773.0 L 631.0,788.0 L 710.0,879.0 L 817.0,979.0 L 961.0,1008.0"/>
    <path d="M 765.0,571.0 L 834.0,617.0 L 864.0,658.0"/>
  </g>
</svg>
