<svg xmlns="http://www.w3.org/2000/svg" viewBox="0 0 1024 1024">
  <g style="fill:none;stroke:#000000;stroke-width:50;stroke-linecap:round;stroke-linejoin:round;" transform="scale(1, 1) translate(0, 0)">
    <path d="M 79.0,412.0 L 109.0,445.0 L 141.0,649.0"/>
    <path d="M 127.0,415.0 L 153.0,419.0 L 234.0,393.0 L 262.0,393.0 L 277.0,405.0 L 285.0,414.0 L 263.0,525.0 L 243.0,538.0"/>
    <path d="M 157.0,601.0 L 169.0,586.0 L 245.0,569.0 L 276.0,565.0 L 304.0,572.0"/>
    <path d="M 389.0,302.0 L 411.0,309.0 L 454.0,309.0 L 685.0,265.0 L 751.0,260.0"/>
    <path d="M 540.0,350.0 L 510.0,354.0 L 475.0,405.0 L 424.0,462.0 L 348.0,517.0 L 336.0,516.0 L 331.0,525.0"/>
    <path d="M 450.0,468.0 L 472.0,470.0 L 516.0,493.0 L 550.0,517.0 L 592.0,563.0 L 626.0,643.0 L 636.0,768.0 L 632.0,819.0 L 612.0,914.0 L 591.0,956.0 L 576.0,972.0 L 571.0,975.0 L 525.0,957.0 L 441.0,915.0"/>
    <path d="M 497.0,504.0 L 501.0,541.0 L 450.0,597.0 L 378.0,659.0 L 306.0,699.0"/>
    <path d="M 583.0,594.0 L 575.0,648.0 L 476.0,760.0 L 355.0,857.0 L 261.0,905.0"/>
    <path d="M 347.0,576.0 L 429.0,639.0 L 452.0,676.0"/>
    <path d="M 733.0,381.0 L 754.0,412.0 L 626.0,557.0 L 629.0,567.0"/>
    <path d="M 640.0,607.0 L 663.0,647.0 L 765.0,743.0 L 827.0,790.0 L 860.0,801.0 L 981.0,812.0"/>
  </g>
</svg>
