<svg xmlns="http://www.w3.org/2000/svg" viewBox="0 0 1024 1024">
  <g style="fill:none;stroke:#000000;stroke-width:50;stroke-linecap:round;stroke-linejoin:round;" transform="scale(1, 1) translate(0, 0)">
    <path d="M 77.0,423.0 L 101.0,446.0 L 107.0,466.0 L 133.0,647.0"/>
    <path d="M 136.0,444.0 L 139.0,436.0 L 212.0,412.0 L 246.0,411.0 L 265.0,430.0 L 242.0,536.0 L 221.0,553.0"/>
    <path d="M 153.0,608.0 L 168.0,591.0 L 212.0,580.0 L 253.0,574.0 L 280.0,580.0"/>
    <path d="M 367.0,317.0 L 381.0,324.0 L 461.0,293.0 L 482.0,304.0 L 445.0,398.0 L 442.0,425.0 L 447.0,452.0 L 477.0,505.0 L 481.0,556.0 L 473.0,572.0 L 441.0,572.0 L 377.0,556.0 L 373.0,549.0"/>
    <path d="M 300.0,300.0 L 327.0,325.0 L 340.0,349.0 L 347.0,450.0 L 346.0,710.0 L 341.0,807.0 L 325.0,907.0 L 327.0,966.0"/>
    <path d="M 537.0,368.0 L 590.0,373.0 L 727.0,344.0 L 881.0,321.0 L 950.0,336.0"/>
    <path d="M 529.0,506.0 L 557.0,535.0 L 585.0,687.0"/>
    <path d="M 581.0,532.0 L 592.0,522.0 L 646.0,508.0 L 674.0,502.0 L 693.0,506.0 L 707.0,524.0 L 686.0,595.0 L 698.0,608.0"/>
    <path d="M 603.0,653.0 L 616.0,641.0 L 655.0,631.0 L 708.0,636.0"/>
    <path d="M 761.0,364.0 L 796.0,389.0 L 806.0,410.0 L 812.0,869.0 L 804.0,900.0 L 787.0,927.0 L 746.0,916.0 L 669.0,875.0"/>
  </g>
</svg>
