<svg xmlns="http://www.w3.org/2000/svg" viewBox="0 0 1024 1024">
  <g style="fill:none;stroke:#000000;stroke-width:50;stroke-linecap:round;stroke-linejoin:round;" transform="scale(1, 1) translate(0, 0)">
    <path d="M 67.0,480.0 L 89.0,499.0 L 97.0,516.0 L 129.0,733.0"/>
    <path d="M 117.0,487.0 L 132.0,490.0 L 233.0,461.0 L 247.0,464.0 L 268.0,483.0 L 243.0,595.0 L 220.0,607.0"/>
    <path d="M 149.0,672.0 L 166.0,654.0 L 212.0,641.0 L 264.0,635.0 L 285.0,642.0"/>
    <path d="M 316.0,527.0 L 386.0,527.0 L 494.0,497.0 L 552.0,493.0"/>
    <path d="M 403.0,251.0 L 450.0,300.0 L 442.0,650.0 L 425.0,1006.0"/>
    <path d="M 421.0,547.0 L 398.0,640.0 L 376.0,682.0 L 335.0,749.0 L 252.0,857.0"/>
    <path d="M 467.0,614.0 L 481.0,633.0 L 528.0,660.0 L 543.0,691.0"/>
    <path d="M 592.0,492.0 L 614.0,497.0 L 667.0,495.0 L 808.0,456.0 L 857.0,454.0"/>
    <path d="M 661.0,227.0 L 687.0,247.0 L 710.0,276.0 L 712.0,302.0 L 704.0,849.0 L 693.0,959.0 L 696.0,1046.0"/>
    <path d="M 683.0,522.0 L 665.0,615.0 L 644.0,663.0 L 593.0,749.0 L 524.0,835.0"/>
    <path d="M 728.0,565.0 L 746.0,620.0 L 774.0,664.0 L 861.0,772.0 L 874.0,783.0 L 975.0,812.0"/>
  </g>
</svg>
