<svg xmlns="http://www.w3.org/2000/svg" viewBox="0 0 1024 1024">
  <g style="fill:none;stroke:#000000;stroke-width:50;stroke-linecap:round;stroke-linejoin:round;" transform="scale(1, 1) translate(0, 0)">
    <path d="M 78.0,489.0 L 111.0,525.0 L 148.0,709.0"/>
    <path d="M 118.0,488.0 L 143.0,493.0 L 256.0,464.0 L 277.0,468.0 L 297.0,488.0 L 275.0,591.0 L 254.0,600.0"/>
    <path d="M 167.0,668.0 L 182.0,653.0 L 247.0,635.0 L 308.0,637.0"/>
    <path d="M 502.0,199.0 L 597.0,244.0 L 630.0,281.0"/>
    <path d="M 417.0,366.0 L 455.0,375.0 L 481.0,374.0 L 735.0,327.0 L 767.0,328.0"/>
    <path d="M 448.0,442.0 L 473.0,474.0 L 441.0,551.0 L 395.0,616.0 L 346.0,662.0"/>
    <path d="M 474.0,557.0 L 476.0,566.0 L 499.0,578.0 L 524.0,603.0"/>
    <path d="M 671.0,401.0 L 699.0,432.0 L 678.0,498.0 L 628.0,581.0 L 592.0,620.0 L 583.0,620.0"/>
    <path d="M 689.0,548.0 L 706.0,543.0 L 769.0,565.0 L 795.0,582.0 L 819.0,613.0"/>
    <path d="M 282.0,767.0 L 333.0,776.0 L 524.0,744.0 L 831.0,712.0 L 907.0,731.0"/>
    <path d="M 549.0,636.0 L 567.0,644.0 L 589.0,672.0 L 583.0,1094.0"/>
  </g>
</svg>
