<svg xmlns="http://www.w3.org/2000/svg" viewBox="0 0 1024 1024">
  <g style="fill:none;stroke:#000000;stroke-width:50;stroke-linecap:round;stroke-linejoin:round;" transform="scale(1, 1) translate(0, 0)">
    <path d="M 110.0,452.0 L 130.0,470.0 L 142.0,491.0 L 172.0,692.0"/>
    <path d="M 157.0,454.0 L 177.0,461.0 L 277.0,435.0 L 297.0,439.0 L 318.0,459.0 L 297.0,573.0 L 276.0,589.0"/>
    <path d="M 194.0,645.0 L 208.0,629.0 L 269.0,616.0 L 331.0,620.0"/>
    <path d="M 501.0,191.0 L 527.0,212.0 L 538.0,233.0 L 521.0,281.0 L 455.0,404.0 L 398.0,477.0"/>
    <path d="M 469.0,427.0 L 519.0,422.0 L 775.0,370.0 L 808.0,376.0 L 840.0,404.0 L 827.0,765.0 L 814.0,858.0 L 793.0,932.0 L 764.0,989.0 L 719.0,1028.0 L 622.0,968.0 L 619.0,958.0 L 604.0,953.0"/>
    <path d="M 514.0,505.0 L 483.0,505.0 L 413.0,603.0 L 398.0,611.0 L 396.0,622.0"/>
    <path d="M 466.0,571.0 L 520.0,565.0 L 660.0,530.0 L 693.0,530.0"/>
    <path d="M 352.0,701.0 L 396.0,706.0 L 501.0,684.0 L 678.0,659.0 L 753.0,671.0"/>
    <path d="M 538.0,580.0 L 565.0,605.0 L 566.0,621.0 L 562.0,803.0 L 557.0,819.0 L 545.0,829.0"/>
    <path d="M 395.0,770.0 L 421.0,808.0 L 416.0,874.0 L 423.0,884.0 L 452.0,882.0 L 521.0,859.0 L 664.0,830.0 L 672.0,817.0"/>
    <path d="M 671.0,739.0 L 701.0,768.0 L 702.0,861.0 L 709.0,893.0"/>
  </g>
</svg>
