<svg xmlns="http://www.w3.org/2000/svg" viewBox="0 0 1024 1024">
  <g style="fill:none;stroke:#000000;stroke-width:50;stroke-linecap:round;stroke-linejoin:round;" transform="scale(1, 1) translate(0, 0)">
    <path d="M 75.0,456.0 L 102.0,480.0 L 107.0,499.0 L 145.0,733.0"/>
    <path d="M 132.0,485.0 L 148.0,472.0 L 236.0,443.0 L 261.0,440.0 L 280.0,453.0 L 289.0,468.0 L 268.0,579.0 L 247.0,590.0"/>
    <path d="M 161.0,654.0 L 177.0,641.0 L 246.0,622.0 L 283.0,619.0 L 305.0,624.0"/>
    <path d="M 482.0,294.0 L 519.0,335.0 L 524.0,395.0 L 523.0,721.0 L 520.0,802.0 L 506.0,914.0 L 512.0,996.0"/>
    <path d="M 348.0,497.0 L 375.0,502.0 L 415.0,499.0 L 484.0,486.0 L 497.0,474.0"/>
    <path d="M 336.0,637.0 L 397.0,637.0 L 481.0,616.0 L 497.0,603.0"/>
    <path d="M 283.0,805.0 L 336.0,815.0 L 475.0,750.0 L 487.0,731.0"/>
    <path d="M 637.0,228.0 L 690.0,282.0 L 685.0,416.0 L 687.0,769.0 L 672.0,967.0 L 676.0,1049.0"/>
    <path d="M 715.0,461.0 L 729.0,445.0 L 800.0,429.0 L 851.0,422.0 L 886.0,429.0"/>
    <path d="M 713.0,601.0 L 726.0,589.0 L 812.0,571.0 L 838.0,569.0 L 866.0,577.0"/>
    <path d="M 711.0,750.0 L 728.0,737.0 L 882.0,721.0 L 910.0,724.0 L 940.0,736.0"/>
  </g>
</svg>
