<svg xmlns="http://www.w3.org/2000/svg" viewBox="0 0 1024 1024">
  <g style="fill:none;stroke:#000000;stroke-width:50;stroke-linecap:round;stroke-linejoin:round;" transform="scale(1, 1) translate(0, 0)">
    <path d="M 110.0,449.0 L 142.0,483.0 L 180.0,693.0"/>
    <path d="M 164.0,455.0 L 181.0,459.0 L 289.0,424.0 L 304.0,428.0 L 327.0,450.0 L 301.0,569.0 L 276.0,589.0"/>
    <path d="M 199.0,651.0 L 209.0,635.0 L 269.0,616.0 L 318.0,608.0 L 341.0,612.0"/>
    <path d="M 449.0,343.0 L 482.0,350.0 L 520.0,348.0 L 800.0,289.0 L 829.0,292.0"/>
    <path d="M 524.0,372.0 L 554.0,394.0 L 556.0,404.0 L 561.0,613.0"/>
    <path d="M 430.0,592.0 L 449.0,599.0 L 517.0,582.0 L 528.0,595.0"/>
    <path d="M 380.0,592.0 L 399.0,600.0 L 419.0,628.0 L 431.0,745.0 L 467.0,745.0 L 478.0,737.0 L 520.0,730.0 L 547.0,749.0 L 540.0,878.0 L 517.0,893.0"/>
    <path d="M 669.0,345.0 L 704.0,372.0 L 698.0,553.0 L 723.0,556.0 L 815.0,535.0 L 837.0,547.0 L 859.0,574.0 L 822.0,659.0 L 791.0,687.0"/>
    <path d="M 720.0,712.0 L 743.0,720.0 L 838.0,703.0 L 864.0,710.0"/>
    <path d="M 663.0,695.0 L 688.0,727.0 L 693.0,750.0 L 692.0,859.0 L 677.0,878.0"/>
    <path d="M 322.0,935.0 L 373.0,945.0 L 588.0,914.0 L 848.0,890.0 L 903.0,895.0 L 950.0,910.0"/>
  </g>
</svg>
