<svg xmlns="http://www.w3.org/2000/svg" viewBox="0 0 1024 1024">
  <g style="fill:none;stroke:#000000;stroke-width:50;stroke-linecap:round;stroke-linejoin:round;" transform="scale(1, 1) translate(0, 0)">
    <path d="M 71.0,496.0 L 96.0,519.0 L 103.0,540.0 L 133.0,745.0"/>
    <path d="M 131.0,517.0 L 138.0,508.0 L 230.0,481.0 L 253.0,480.0 L 272.0,493.0 L 280.0,504.0 L 256.0,609.0 L 233.0,619.0"/>
    <path d="M 150.0,685.0 L 165.0,670.0 L 229.0,654.0 L 291.0,657.0"/>
    <path d="M 336.0,419.0 L 398.0,419.0 L 464.0,403.0 L 538.0,376.0 L 587.0,373.0"/>
    <path d="M 462.0,225.0 L 485.0,264.0 L 488.0,280.0 L 436.0,426.0 L 364.0,591.0 L 356.0,625.0 L 391.0,627.0 L 550.0,589.0 L 572.0,596.0"/>
    <path d="M 474.0,492.0 L 502.0,527.0 L 487.0,932.0 L 497.0,1020.0"/>
    <path d="M 303.0,790.0 L 355.0,799.0 L 580.0,683.0"/>
    <path d="M 627.0,456.0 L 648.0,460.0 L 698.0,455.0 L 787.0,424.0 L 844.0,419.0"/>
    <path d="M 600.0,608.0 L 636.0,611.0 L 670.0,605.0 L 847.0,562.0 L 894.0,562.0 L 928.0,571.0"/>
    <path d="M 707.0,214.0 L 746.0,248.0 L 752.0,265.0 L 731.0,467.0 L 688.0,712.0 L 729.0,717.0 L 833.0,693.0 L 853.0,703.0 L 858.0,716.0 L 777.0,874.0 L 779.0,889.0"/>
    <path d="M 663.0,824.0 L 781.0,940.0 L 802.0,969.0 L 815.0,1020.0"/>
  </g>
</svg>
