<svg xmlns="http://www.w3.org/2000/svg" viewBox="0 0 1024 1024">
  <g style="fill:none;stroke:#000000;stroke-width:50;stroke-linecap:round;stroke-linejoin:round;" transform="scale(1, 1) translate(0, 0)">
    <path d="M 72.0,451.0 L 92.0,467.0 L 103.0,490.0 L 130.0,717.0"/>
    <path d="M 129.0,479.0 L 146.0,466.0 L 218.0,446.0 L 247.0,446.0 L 263.0,456.0 L 273.0,468.0 L 272.0,478.0 L 246.0,583.0 L 227.0,593.0"/>
    <path d="M 151.0,653.0 L 161.0,638.0 L 200.0,628.0 L 225.0,623.0 L 276.0,626.0"/>
    <path d="M 481.0,433.0 L 534.0,438.0 L 644.0,408.0 L 695.0,407.0"/>
    <path d="M 538.0,203.0 L 587.0,243.0 L 580.0,518.0 L 564.0,537.0"/>
    <path d="M 398.0,581.0 L 453.0,586.0 L 612.0,549.0 L 862.0,508.0 L 908.0,508.0 L 952.0,518.0"/>
    <path d="M 759.0,276.0 L 780.0,301.0 L 790.0,334.0 L 738.0,448.0 L 634.0,611.0 L 554.0,714.0 L 523.0,742.0 L 520.0,884.0 L 507.0,984.0 L 510.0,1023.0"/>
    <path d="M 490.0,757.0 L 478.0,796.0 L 398.0,872.0 L 323.0,932.0"/>
    <path d="M 571.0,737.0 L 601.0,716.0 L 717.0,690.0 L 746.0,706.0 L 764.0,728.0 L 759.0,772.0 L 760.0,924.0 L 756.0,975.0 L 743.0,1009.0 L 744.0,1072.0"/>
    <path d="M 547.0,832.0 L 559.0,839.0 L 641.0,823.0 L 676.0,822.0"/>
    <path d="M 534.0,997.0 L 554.0,982.0 L 579.0,978.0 L 681.0,968.0 L 706.0,974.0"/>
  </g>
</svg>
