<svg xmlns="http://www.w3.org/2000/svg" viewBox="0 0 1024 1024">
  <g style="fill:none;stroke:#000000;stroke-width:50;stroke-linecap:round;stroke-linejoin:round;" transform="scale(1, 1) translate(0, 0)">
    <path d="M 69.0,484.0 L 88.0,501.0 L 98.0,520.0 L 132.0,719.0"/>
    <path d="M 110.0,480.0 L 127.0,489.0 L 230.0,459.0 L 258.0,472.0 L 267.0,481.0 L 253.0,576.0 L 249.0,589.0 L 235.0,602.0"/>
    <path d="M 150.0,661.0 L 165.0,648.0 L 229.0,628.0 L 284.0,628.0"/>
    <path d="M 322.0,518.0 L 378.0,516.0 L 505.0,470.0 L 554.0,467.0"/>
    <path d="M 409.0,218.0 L 434.0,234.0 L 453.0,258.0 L 442.0,650.0 L 446.0,938.0 L 424.0,993.0 L 313.0,934.0"/>
    <path d="M 211.0,804.0 L 255.0,810.0 L 527.0,624.0"/>
    <path d="M 683.0,323.0 L 720.0,348.0 L 720.0,360.0 L 685.0,442.0 L 631.0,542.0 L 622.0,546.0"/>
    <path d="M 574.0,542.0 L 593.0,561.0 L 605.0,598.0 L 606.0,699.0 L 593.0,872.0 L 597.0,943.0"/>
    <path d="M 622.0,556.0 L 641.0,568.0 L 805.0,526.0 L 835.0,540.0 L 851.0,558.0 L 857.0,880.0 L 845.0,912.0 L 788.0,901.0"/>
    <path d="M 629.0,734.0 L 692.0,712.0 L 741.0,708.0 L 766.0,714.0"/>
    <path d="M 624.0,912.0 L 635.0,899.0 L 707.0,885.0 L 756.0,878.0 L 805.0,880.0"/>
  </g>
</svg>
