<svg xmlns="http://www.w3.org/2000/svg" viewBox="0 0 1024 1024">
  <g style="fill:none;stroke:#000000;stroke-width:50;stroke-linecap:round;stroke-linejoin:round;" transform="scale(1, 1) translate(0, 0)">
    <path d="M 84.0,505.0 L 109.0,528.0 L 114.0,540.0 L 153.0,745.0"/>
    <path d="M 138.0,511.0 L 152.0,514.0 L 254.0,485.0 L 269.0,487.0 L 290.0,506.0 L 270.0,616.0 L 251.0,631.0"/>
    <path d="M 169.0,686.0 L 183.0,674.0 L 248.0,657.0 L 303.0,659.0"/>
    <path d="M 546.0,236.0 L 574.0,268.0 L 534.0,373.0 L 449.0,508.0 L 384.0,578.0 L 330.0,623.0"/>
    <path d="M 586.0,336.0 L 600.0,360.0 L 681.0,438.0 L 807.0,539.0 L 866.0,554.0 L 982.0,570.0"/>
    <path d="M 453.0,575.0 L 514.0,580.0 L 657.0,545.0 L 692.0,549.0"/>
    <path d="M 340.0,736.0 L 392.0,741.0 L 527.0,713.0 L 738.0,682.0 L 775.0,683.0 L 820.0,694.0"/>
    <path d="M 531.0,604.0 L 561.0,620.0 L 564.0,631.0 L 543.0,804.0 L 537.0,821.0 L 526.0,830.0"/>
    <path d="M 398.0,854.0 L 433.0,894.0 L 468.0,1050.0"/>
    <path d="M 417.0,846.0 L 467.0,859.0 L 601.0,840.0 L 667.0,823.0 L 695.0,827.0 L 725.0,856.0 L 693.0,951.0 L 676.0,957.0"/>
    <path d="M 485.0,999.0 L 495.0,1009.0 L 651.0,990.0 L 699.0,992.0 L 719.0,999.0"/>
  </g>
</svg>
