<svg xmlns="http://www.w3.org/2000/svg" viewBox="0 0 1024 1024">
  <g style="fill:none;stroke:#000000;stroke-width:50;stroke-linecap:round;stroke-linejoin:round;" transform="scale(1, 1) translate(0, 0)">
    <path d="M 91.0,396.0 L 116.0,419.0 L 122.0,433.0 L 161.0,665.0"/>
    <path d="M 146.0,402.0 L 156.0,409.0 L 281.0,374.0 L 310.0,389.0 L 321.0,401.0 L 292.0,518.0 L 269.0,534.0"/>
    <path d="M 179.0,599.0 L 192.0,584.0 L 265.0,563.0 L 311.0,560.0 L 329.0,566.0"/>
    <path d="M 553.0,174.0 L 575.0,206.0 L 514.0,296.0 L 484.0,325.0"/>
    <path d="M 391.0,332.0 L 415.0,350.0 L 434.0,378.0 L 459.0,537.0 L 480.0,604.0"/>
    <path d="M 436.0,339.0 L 465.0,347.0 L 718.0,299.0 L 738.0,298.0 L 776.0,308.0 L 800.0,336.0 L 796.0,358.0 L 744.0,546.0 L 737.0,556.0 L 716.0,560.0"/>
    <path d="M 511.0,457.0 L 655.0,428.0 L 692.0,432.0"/>
    <path d="M 495.0,581.0 L 512.0,571.0 L 689.0,542.0 L 711.0,532.0"/>
    <path d="M 571.0,347.0 L 599.0,369.0 L 583.0,516.0 L 563.0,592.0 L 544.0,632.0 L 503.0,689.0 L 460.0,728.0 L 432.0,738.0 L 427.0,746.0"/>
    <path d="M 254.0,775.0 L 304.0,784.0 L 513.0,750.0 L 832.0,717.0 L 882.0,719.0 L 934.0,737.0"/>
    <path d="M 623.0,611.0 L 640.0,620.0 L 662.0,647.0 L 651.0,1093.0"/>
  </g>
</svg>
