<svg xmlns="http://www.w3.org/2000/svg" viewBox="0 0 1024 1024">
  <g style="fill:none;stroke:#000000;stroke-width:50;stroke-linecap:round;stroke-linejoin:round;" transform="scale(1, 1) translate(0, 0)">
    <path d="M 112.0,456.0 L 145.0,491.0 L 176.0,680.0"/>
    <path d="M 173.0,461.0 L 181.0,467.0 L 285.0,436.0 L 297.0,436.0 L 318.0,452.0 L 325.0,460.0 L 324.0,470.0 L 306.0,557.0 L 297.0,571.0 L 283.0,578.0"/>
    <path d="M 198.0,637.0 L 211.0,622.0 L 266.0,609.0 L 336.0,612.0"/>
    <path d="M 470.0,320.0 L 479.0,325.0 L 546.0,326.0 L 655.0,309.0 L 730.0,290.0 L 777.0,293.0"/>
    <path d="M 497.0,423.0 L 534.0,429.0 L 581.0,426.0 L 696.0,401.0 L 739.0,402.0"/>
    <path d="M 576.0,187.0 L 618.0,228.0 L 612.0,482.0 L 598.0,498.0"/>
    <path d="M 385.0,540.0 L 439.0,547.0 L 556.0,526.0 L 863.0,491.0 L 902.0,495.0 L 937.0,508.0"/>
    <path d="M 464.0,610.0 L 494.0,648.0 L 497.0,755.0 L 485.0,846.0 L 488.0,906.0"/>
    <path d="M 502.0,611.0 L 532.0,624.0 L 688.0,588.0 L 706.0,594.0 L 726.0,614.0 L 733.0,625.0 L 729.0,712.0 L 734.0,828.0 L 727.0,903.0"/>
    <path d="M 568.0,665.0 L 610.0,692.0 L 618.0,707.0 L 612.0,826.0 L 594.0,903.0 L 579.0,939.0 L 545.0,984.0 L 496.0,1022.0 L 417.0,1059.0 L 383.0,1066.0"/>
    <path d="M 658.0,942.0 L 721.0,977.0 L 786.0,1023.0 L 817.0,1074.0"/>
  </g>
</svg>
