<svg xmlns="http://www.w3.org/2000/svg" viewBox="0 0 1024 1024">
  <g style="fill:none;stroke:#000000;stroke-width:50;stroke-linecap:round;stroke-linejoin:round;" transform="scale(1, 1) translate(0, 0)">
    <path d="M 111.0,447.0 L 142.0,481.0 L 182.0,691.0"/>
    <path d="M 165.0,453.0 L 182.0,457.0 L 288.0,422.0 L 306.0,427.0 L 328.0,447.0 L 301.0,567.0 L 276.0,589.0"/>
    <path d="M 201.0,650.0 L 217.0,631.0 L 279.0,613.0 L 324.0,606.0 L 344.0,611.0"/>
    <path d="M 520.0,257.0 L 575.0,312.0 L 590.0,337.0"/>
    <path d="M 743.0,190.0 L 760.0,207.0 L 765.0,221.0 L 722.0,280.0 L 660.0,349.0 L 653.0,350.0 L 652.0,358.0"/>
    <path d="M 454.0,433.0 L 480.0,454.0 L 493.0,485.0 L 534.0,677.0"/>
    <path d="M 506.0,436.0 L 529.0,443.0 L 719.0,402.0 L 766.0,395.0 L 804.0,399.0 L 832.0,429.0 L 820.0,467.0 L 805.0,561.0 L 785.0,626.0 L 790.0,649.0"/>
    <path d="M 559.0,544.0 L 705.0,517.0 L 744.0,522.0"/>
    <path d="M 551.0,652.0 L 559.0,646.0 L 690.0,621.0 L 738.0,617.0 L 753.0,609.0"/>
    <path d="M 383.0,795.0 L 432.0,802.0 L 609.0,772.0 L 869.0,739.0 L 907.0,743.0 L 958.0,758.0"/>
    <path d="M 609.0,444.0 L 655.0,472.0 L 654.0,1080.0"/>
  </g>
</svg>
