<svg xmlns="http://www.w3.org/2000/svg" viewBox="0 0 1024 1024">
  <g style="fill:none;stroke:#000000;stroke-width:50;stroke-linecap:round;stroke-linejoin:round;" transform="scale(1, 1) translate(0, 0)">
    <path d="M 56.0,462.0 L 75.0,481.0 L 85.0,504.0 L 113.0,731.0"/>
    <path d="M 107.0,468.0 L 121.0,473.0 L 204.0,445.0 L 225.0,447.0 L 246.0,466.0 L 224.0,592.0 L 239.0,610.0"/>
    <path d="M 133.0,663.0 L 147.0,647.0 L 175.0,640.0 L 202.0,635.0 L 255.0,639.0"/>
    <path d="M 556.0,311.0 L 532.0,308.0 L 485.0,314.0 L 452.0,345.0 L 384.0,392.0 L 347.0,413.0 L 330.0,414.0 L 327.0,425.0"/>
    <path d="M 288.0,547.0 L 309.0,552.0 L 357.0,547.0 L 487.0,512.0 L 540.0,509.0"/>
    <path d="M 404.0,402.0 L 430.0,421.0 L 424.0,777.0 L 413.0,920.0 L 426.0,1001.0"/>
    <path d="M 408.0,565.0 L 384.0,652.0 L 359.0,693.0 L 308.0,766.0 L 213.0,873.0"/>
    <path d="M 451.0,648.0 L 512.0,693.0 L 523.0,714.0"/>
    <path d="M 534.0,554.0 L 586.0,618.0 L 590.0,645.0"/>
    <path d="M 836.0,442.0 L 855.0,463.0 L 862.0,481.0 L 813.0,533.0 L 736.0,599.0"/>
    <path d="M 647.0,228.0 L 673.0,245.0 L 695.0,273.0 L 685.0,550.0 L 662.0,730.0 L 638.0,798.0 L 591.0,873.0 L 526.0,924.0 L 471.0,949.0"/>
    <path d="M 700.0,692.0 L 707.0,725.0 L 722.0,747.0 L 788.0,839.0 L 858.0,914.0 L 872.0,925.0 L 982.0,953.0"/>
  </g>
</svg>
