<svg xmlns="http://www.w3.org/2000/svg" viewBox="0 0 1024 1024">
  <g style="fill:none;stroke:#000000;stroke-width:50;stroke-linecap:round;stroke-linejoin:round;" transform="scale(1, 1) translate(0, 0)">
    <path d="M 102.0,432.0 L 128.0,456.0 L 134.0,473.0 L 168.0,708.0"/>
    <path d="M 158.0,436.0 L 168.0,443.0 L 285.0,408.0 L 304.0,412.0 L 326.0,432.0 L 302.0,550.0 L 280.0,568.0"/>
    <path d="M 185.0,630.0 L 195.0,616.0 L 273.0,596.0 L 317.0,591.0 L 340.0,596.0"/>
    <path d="M 406.0,275.0 L 438.0,300.0 L 499.0,553.0"/>
    <path d="M 469.0,281.0 L 488.0,290.0 L 719.0,247.0 L 773.0,256.0 L 796.0,287.0 L 756.0,456.0 L 735.0,517.0 L 739.0,536.0"/>
    <path d="M 535.0,413.0 L 643.0,390.0 L 672.0,387.0 L 692.0,392.0"/>
    <path d="M 517.0,537.0 L 535.0,526.0 L 701.0,497.0"/>
    <path d="M 353.0,656.0 L 378.0,685.0 L 390.0,715.0 L 392.0,901.0 L 404.0,952.0"/>
    <path d="M 407.0,673.0 L 426.0,682.0 L 682.0,640.0 L 836.0,625.0 L 857.0,628.0 L 887.0,659.0 L 873.0,845.0 L 852.0,935.0 L 828.0,967.0 L 752.0,930.0 L 734.0,914.0"/>
    <path d="M 566.0,296.0 L 594.0,308.0 L 607.0,321.0 L 606.0,758.0 L 588.0,783.0"/>
    <path d="M 455.0,823.0 L 503.0,840.0 L 682.0,779.0 L 700.0,779.0"/>
    <path d="M 694.0,709.0 L 744.0,789.0 L 749.0,835.0"/>
  </g>
</svg>
