<svg xmlns="http://www.w3.org/2000/svg" viewBox="0 0 1024 1024">
  <g style="fill:none;stroke:#000000;stroke-width:50;stroke-linecap:round;stroke-linejoin:round;" transform="scale(1, 1) translate(0, 0)">
    <path d="M 70.0,520.0 L 97.0,545.0 L 105.0,574.0 L 132.0,764.0"/>
    <path d="M 128.0,526.0 L 138.0,532.0 L 234.0,506.0 L 253.0,510.0 L 272.0,530.0 L 250.0,640.0 L 231.0,651.0"/>
    <path d="M 155.0,719.0 L 171.0,701.0 L 229.0,684.0 L 270.0,681.0 L 288.0,686.0"/>
    <path d="M 415.0,495.0 L 437.0,503.0 L 493.0,497.0 L 650.0,458.0 L 700.0,439.0 L 730.0,435.0 L 756.0,440.0"/>
    <path d="M 353.0,481.0 L 390.0,524.0 L 374.0,677.0 L 344.0,792.0 L 312.0,860.0 L 259.0,928.0 L 205.0,972.0 L 170.0,988.0"/>
    <path d="M 430.0,661.0 L 468.0,662.0 L 543.0,642.0 L 586.0,639.0"/>
    <path d="M 393.0,762.0 L 421.0,792.0 L 449.0,951.0"/>
    <path d="M 444.0,785.0 L 453.0,775.0 L 506.0,762.0 L 532.0,749.0 L 566.0,751.0 L 583.0,771.0 L 561.0,843.0 L 541.0,852.0"/>
    <path d="M 465.0,910.0 L 483.0,896.0 L 540.0,883.0 L 592.0,886.0"/>
    <path d="M 532.0,196.0 L 566.0,211.0 L 592.0,236.0 L 610.0,425.0 L 639.0,579.0 L 697.0,764.0 L 754.0,876.0 L 834.0,973.0 L 869.0,997.0 L 902.0,1007.0 L 926.0,962.0 L 954.0,853.0"/>
    <path d="M 777.0,577.0 L 804.0,608.0 L 786.0,700.0 L 745.0,804.0 L 681.0,899.0 L 642.0,941.0 L 570.0,1000.0"/>
    <path d="M 705.0,275.0 L 778.0,314.0 L 813.0,353.0"/>
  </g>
</svg>
