<svg xmlns="http://www.w3.org/2000/svg" viewBox="0 0 1024 1024">
  <g style="fill:none;stroke:#000000;stroke-width:50;stroke-linecap:round;stroke-linejoin:round;" transform="scale(1, 1) translate(0, 0)">
    <path d="M 71.0,448.0 L 100.0,480.0 L 133.0,689.0"/>
    <path d="M 127.0,456.0 L 148.0,459.0 L 238.0,435.0 L 254.0,439.0 L 273.0,458.0 L 254.0,556.0 L 250.0,566.0 L 233.0,578.0"/>
    <path d="M 154.0,630.0 L 168.0,619.0 L 223.0,607.0 L 283.0,613.0"/>
    <path d="M 357.0,398.0 L 431.0,401.0 L 550.0,371.0 L 581.0,366.0 L 614.0,370.0"/>
    <path d="M 312.0,520.0 L 340.0,542.0 L 372.0,674.0"/>
    <path d="M 370.0,528.0 L 388.0,533.0 L 554.0,489.0 L 587.0,490.0 L 610.0,514.0 L 590.0,572.0 L 570.0,582.0"/>
    <path d="M 389.0,637.0 L 400.0,644.0 L 562.0,613.0 L 619.0,619.0"/>
    <path d="M 437.0,211.0 L 477.0,250.0 L 487.0,271.0 L 478.0,752.0 L 463.0,913.0 L 465.0,1002.0"/>
    <path d="M 453.0,656.0 L 444.0,664.0 L 434.0,710.0 L 375.0,790.0 L 288.0,875.0 L 218.0,922.0"/>
    <path d="M 503.0,720.0 L 517.0,736.0 L 579.0,775.0 L 598.0,804.0 L 598.0,813.0"/>
    <path d="M 679.0,445.0 L 710.0,481.0 L 705.0,764.0"/>
    <path d="M 792.0,235.0 L 810.0,243.0 L 842.0,276.0 L 837.0,549.0 L 846.0,916.0 L 841.0,949.0 L 824.0,979.0 L 731.0,942.0 L 729.0,934.0 L 718.0,934.0"/>
  </g>
</svg>
