<svg xmlns="http://www.w3.org/2000/svg" viewBox="0 0 1024 1024">
  <g style="fill:none;stroke:#000000;stroke-width:50;stroke-linecap:round;stroke-linejoin:round;" transform="scale(1, 1) translate(0, 0)">
    <path d="M 86.0,445.0 L 110.0,465.0 L 118.0,480.0 L 156.0,689.0"/>
    <path d="M 142.0,450.0 L 164.0,453.0 L 273.0,417.0 L 299.0,431.0 L 310.0,442.0 L 291.0,536.0 L 288.0,547.0 L 262.0,569.0"/>
    <path d="M 172.0,629.0 L 188.0,615.0 L 264.0,593.0 L 304.0,588.0 L 325.0,592.0"/>
    <path d="M 529.0,195.0 L 615.0,239.0 L 643.0,274.0"/>
    <path d="M 425.0,367.0 L 458.0,374.0 L 512.0,368.0 L 728.0,319.0 L 780.0,316.0"/>
    <path d="M 444.0,440.0 L 476.0,471.0 L 508.0,594.0"/>
    <path d="M 497.0,445.0 L 513.0,449.0 L 654.0,412.0 L 675.0,414.0 L 695.0,427.0 L 705.0,442.0 L 686.0,492.0 L 661.0,507.0"/>
    <path d="M 524.0,571.0 L 538.0,561.0 L 661.0,535.0 L 719.0,538.0"/>
    <path d="M 372.0,603.0 L 384.0,646.0 L 346.0,750.0 L 343.0,783.0"/>
    <path d="M 417.0,665.0 L 559.0,631.0 L 784.0,594.0 L 821.0,605.0 L 840.0,630.0 L 780.0,716.0"/>
    <path d="M 483.0,745.0 L 502.0,761.0 L 513.0,784.0 L 498.0,868.0 L 477.0,916.0 L 433.0,967.0 L 385.0,996.0 L 338.0,1011.0"/>
    <path d="M 617.0,710.0 L 644.0,744.0 L 637.0,853.0 L 643.0,952.0 L 654.0,981.0 L 685.0,1005.0 L 743.0,1020.0 L 804.0,1019.0 L 858.0,1008.0 L 896.0,987.0 L 909.0,974.0 L 912.0,852.0"/>
  </g>
</svg>
