<svg xmlns="http://www.w3.org/2000/svg" viewBox="0 0 1024 1024">
  <g style="fill:none;stroke:#000000;stroke-width:50;stroke-linecap:round;stroke-linejoin:round;" transform="scale(1, 1) translate(0, 0)">
    <path d="M 72.0,455.0 L 99.0,480.0 L 105.0,496.0 L 137.0,749.0"/>
    <path d="M 126.0,461.0 L 151.0,464.0 L 239.0,437.0 L 260.0,440.0 L 282.0,460.0 L 254.0,603.0 L 232.0,620.0"/>
    <path d="M 158.0,676.0 L 171.0,660.0 L 224.0,647.0 L 275.0,643.0 L 292.0,648.0"/>
    <path d="M 468.0,320.0 L 483.0,333.0 L 509.0,334.0 L 606.0,320.0 L 778.0,279.0 L 823.0,280.0"/>
    <path d="M 392.0,300.0 L 409.0,310.0 L 429.0,335.0 L 431.0,355.0 L 414.0,518.0 L 389.0,659.0 L 365.0,741.0 L 322.0,839.0 L 263.0,937.0 L 221.0,986.0"/>
    <path d="M 471.0,480.0 L 503.0,518.0 L 548.0,742.0"/>
    <path d="M 516.0,481.0 L 544.0,488.0 L 760.0,443.0 L 808.0,440.0 L 829.0,445.0 L 855.0,477.0 L 816.0,627.0 L 791.0,687.0 L 795.0,708.0"/>
    <path d="M 580.0,597.0 L 710.0,570.0 L 759.0,573.0"/>
    <path d="M 568.0,716.0 L 587.0,704.0 L 755.0,673.0"/>
    <path d="M 625.0,490.0 L 653.0,503.0 L 662.0,516.0 L 658.0,917.0 L 642.0,939.0"/>
    <path d="M 526.0,834.0 L 551.0,840.0 L 624.0,837.0 L 747.0,809.0 L 803.0,808.0"/>
    <path d="M 386.0,984.0 L 439.0,992.0 L 572.0,971.0 L 854.0,943.0 L 899.0,946.0 L 945.0,961.0"/>
  </g>
</svg>
