<svg xmlns="http://www.w3.org/2000/svg" viewBox="0 0 1024 1024">
  <g style="fill:none;stroke:#000000;stroke-width:50;stroke-linecap:round;stroke-linejoin:round;" transform="scale(1, 1) translate(0, 0)">
    <path d="M 82.0,460.0 L 107.0,483.0 L 113.0,497.0 L 144.0,704.0"/>
    <path d="M 137.0,461.0 L 152.0,471.0 L 267.0,436.0 L 302.0,462.0 L 276.0,576.0 L 252.0,593.0"/>
    <path d="M 165.0,653.0 L 181.0,638.0 L 250.0,621.0 L 311.0,625.0"/>
    <path d="M 425.0,294.0 L 494.0,338.0 L 510.0,372.0"/>
    <path d="M 733.0,228.0 L 747.0,259.0 L 661.0,335.0"/>
    <path d="M 387.0,441.0 L 438.0,449.0 L 567.0,430.0 L 733.0,396.0 L 778.0,394.0 L 810.0,400.0"/>
    <path d="M 562.0,206.0 L 588.0,226.0 L 605.0,251.0 L 586.0,576.0 L 593.0,626.0"/>
    <path d="M 567.0,453.0 L 473.0,570.0 L 411.0,616.0 L 381.0,631.0"/>
    <path d="M 620.0,447.0 L 626.0,460.0 L 685.0,515.0 L 769.0,575.0 L 850.0,591.0 L 918.0,596.0"/>
    <path d="M 522.0,637.0 L 538.0,651.0 L 551.0,676.0 L 486.0,854.0 L 522.0,876.0 L 652.0,931.0 L 742.0,982.0 L 805.0,1047.0"/>
    <path d="M 640.0,702.0 L 671.0,731.0 L 665.0,785.0 L 634.0,866.0 L 591.0,928.0 L 512.0,982.0 L 429.0,1009.0 L 379.0,1014.0"/>
    <path d="M 294.0,768.0 L 344.0,777.0 L 596.0,742.0 L 838.0,722.0 L 918.0,741.0"/>
  </g>
</svg>
