<svg xmlns="http://www.w3.org/2000/svg" viewBox="0 0 1024 1024">
  <g style="fill:none;stroke:#000000;stroke-width:50;stroke-linecap:round;stroke-linejoin:round;" transform="scale(1, 1) translate(0, 0)">
    <path d="M 88.0,520.0 L 116.0,544.0 L 121.0,556.0 L 156.0,776.0"/>
    <path d="M 144.0,526.0 L 157.0,531.0 L 264.0,497.0 L 284.0,500.0 L 297.0,511.0 L 306.0,522.0 L 286.0,634.0 L 262.0,648.0"/>
    <path d="M 174.0,716.0 L 192.0,698.0 L 263.0,680.0 L 324.0,680.0"/>
    <path d="M 365.0,459.0 L 385.0,465.0 L 450.0,464.0 L 590.0,440.0 L 829.0,412.0 L 886.0,418.0 L 911.0,429.0"/>
    <path d="M 463.0,326.0 L 506.0,357.0 L 524.0,426.0 L 539.0,538.0 L 548.0,567.0"/>
    <path d="M 696.0,265.0 L 714.0,273.0 L 737.0,307.0 L 704.0,450.0 L 671.0,547.0"/>
    <path d="M 376.0,636.0 L 404.0,658.0 L 424.0,692.0 L 446.0,897.0 L 468.0,995.0"/>
    <path d="M 430.0,641.0 L 439.0,650.0 L 474.0,657.0 L 626.0,636.0 L 780.0,605.0 L 800.0,607.0 L 824.0,623.0 L 836.0,638.0 L 820.0,783.0 L 795.0,933.0 L 775.0,962.0 L 775.0,1019.0"/>
    <path d="M 510.0,808.0 L 552.0,805.0 L 666.0,781.0 L 699.0,779.0 L 722.0,786.0"/>
    <path d="M 583.0,664.0 L 614.0,692.0 L 613.0,889.0 L 597.0,913.0"/>
    <path d="M 487.0,958.0 L 504.0,947.0 L 650.0,928.0 L 740.0,927.0"/>
  </g>
</svg>
