<svg xmlns="http://www.w3.org/2000/svg" viewBox="0 0 1024 1024">
  <g style="fill:none;stroke:#000000;stroke-width:50;stroke-linecap:round;stroke-linejoin:round;" transform="scale(1, 1) translate(0, 0)">
    <path d="M 94.0,441.0 L 122.0,465.0 L 127.0,479.0 L 164.0,685.0"/>
    <path d="M 154.0,450.0 L 172.0,454.0 L 260.0,424.0 L 287.0,424.0 L 304.0,437.0 L 313.0,448.0 L 291.0,559.0 L 268.0,571.0"/>
    <path d="M 184.0,640.0 L 200.0,624.0 L 269.0,604.0 L 313.0,600.0 L 333.0,606.0"/>
    <path d="M 485.0,295.0 L 556.0,299.0 L 687.0,268.0 L 764.0,260.0"/>
    <path d="M 588.0,179.0 L 602.0,183.0 L 626.0,208.0 L 619.0,309.0 L 605.0,389.0"/>
    <path d="M 384.0,456.0 L 420.0,463.0 L 445.0,460.0 L 580.0,431.0 L 821.0,399.0 L 872.0,399.0 L 914.0,410.0"/>
    <path d="M 451.0,379.0 L 470.0,387.0 L 488.0,404.0 L 519.0,532.0"/>
    <path d="M 719.0,313.0 L 743.0,345.0 L 718.0,434.0 L 688.0,506.0"/>
    <path d="M 447.0,559.0 L 475.0,585.0 L 479.0,599.0 L 482.0,722.0 L 469.0,816.0 L 471.0,880.0"/>
    <path d="M 506.0,593.0 L 526.0,582.0 L 596.0,573.0 L 689.0,545.0 L 717.0,545.0 L 735.0,556.0 L 754.0,580.0 L 750.0,624.0 L 757.0,807.0 L 750.0,871.0"/>
    <path d="M 564.0,641.0 L 583.0,649.0 L 613.0,678.0 L 603.0,836.0 L 579.0,922.0 L 537.0,982.0 L 507.0,1003.0 L 424.0,1040.0 L 375.0,1050.0"/>
    <path d="M 685.0,900.0 L 788.0,986.0 L 812.0,1018.0 L 826.0,1062.0"/>
  </g>
</svg>
