<svg xmlns="http://www.w3.org/2000/svg" viewBox="0 0 1024 1024">
  <g style="fill:none;stroke:#000000;stroke-width:50;stroke-linecap:round;stroke-linejoin:round;" transform="scale(1, 1) translate(0, 0)">
    <path d="M 95.0,452.0 L 120.0,476.0 L 125.0,490.0 L 161.0,725.0"/>
    <path d="M 152.0,476.0 L 173.0,460.0 L 274.0,431.0 L 288.0,433.0 L 314.0,456.0 L 291.0,576.0 L 268.0,597.0"/>
    <path d="M 180.0,653.0 L 188.0,643.0 L 263.0,625.0 L 319.0,627.0"/>
    <path d="M 577.0,189.0 L 601.0,219.0 L 544.0,313.0 L 536.0,317.0 L 530.0,335.0 L 522.0,337.0 L 511.0,353.0"/>
    <path d="M 436.0,343.0 L 462.0,370.0 L 465.0,382.0 L 466.0,530.0 L 460.0,623.0 L 465.0,690.0"/>
    <path d="M 491.0,376.0 L 503.0,367.0 L 571.0,355.0 L 675.0,325.0 L 697.0,329.0 L 726.0,360.0 L 721.0,411.0 L 725.0,617.0 L 719.0,679.0"/>
    <path d="M 491.0,481.0 L 525.0,463.0 L 589.0,448.0 L 612.0,444.0 L 633.0,449.0"/>
    <path d="M 491.0,570.0 L 503.0,559.0 L 591.0,539.0 L 640.0,540.0"/>
    <path d="M 490.0,666.0 L 501.0,654.0 L 672.0,630.0 L 684.0,622.0"/>
    <path d="M 290.0,820.0 L 345.0,827.0 L 532.0,798.0 L 793.0,771.0 L 831.0,776.0 L 868.0,789.0"/>
    <path d="M 522.0,688.0 L 557.0,726.0 L 554.0,762.0 L 536.0,843.0 L 503.0,909.0 L 465.0,954.0 L 409.0,994.0 L 329.0,1027.0 L 288.0,1035.0"/>
    <path d="M 577.0,822.0 L 713.0,960.0 L 777.0,1013.0 L 808.0,1025.0 L 941.0,1044.0"/>
    <path d="M 800.0,599.0 L 865.0,638.0 L 894.0,677.0"/>
  </g>
</svg>
