<svg xmlns="http://www.w3.org/2000/svg" viewBox="0 0 1024 1024">
  <g style="fill:none;stroke:#000000;stroke-width:50;stroke-linecap:round;stroke-linejoin:round;" transform="scale(1, 1) translate(0, 0)">
    <path d="M 297.0,393.0 L 321.0,428.0 L 309.0,456.0 L 277.0,510.0 L 214.0,575.0"/>
    <path d="M 325.0,496.0 L 338.0,494.0 L 373.0,513.0 L 405.0,551.0"/>
    <path d="M 661.0,352.0 L 685.0,387.0 L 679.0,403.0 L 633.0,478.0 L 574.0,530.0"/>
    <path d="M 675.0,469.0 L 687.0,468.0 L 724.0,486.0 L 749.0,503.0 L 762.0,523.0"/>
    <path d="M 372.0,343.0 L 396.0,348.0 L 447.0,344.0 L 617.0,296.0 L 663.0,286.0 L 689.0,288.0"/>
    <path d="M 457.0,170.0 L 510.0,213.0 L 506.0,558.0 L 504.0,579.0 L 488.0,598.0"/>
    <path d="M 91.0,670.0 L 130.0,679.0 L 164.0,676.0 L 370.0,638.0 L 826.0,580.0 L 873.0,581.0 L 931.0,597.0"/>
    <path d="M 231.0,741.0 L 265.0,768.0 L 274.0,791.0 L 331.0,1067.0"/>
    <path d="M 298.0,746.0 L 310.0,756.0 L 326.0,758.0 L 524.0,726.0 L 683.0,687.0 L 711.0,687.0 L 731.0,697.0 L 758.0,728.0 L 718.0,986.0 L 695.0,1026.0 L 695.0,1092.0"/>
    <path d="M 377.0,818.0 L 403.0,836.0 L 410.0,849.0 L 440.0,947.0"/>
    <path d="M 426.0,819.0 L 441.0,824.0 L 464.0,821.0 L 554.0,802.0 L 574.0,809.0 L 593.0,827.0 L 573.0,877.0 L 557.0,887.0"/>
    <path d="M 458.0,935.0 L 473.0,924.0 L 534.0,912.0 L 596.0,918.0"/>
    <path d="M 354.0,1034.0 L 369.0,1018.0 L 664.0,985.0"/>
  </g>
</svg>
