<svg xmlns="http://www.w3.org/2000/svg" viewBox="0 0 1024 1024">
  <g style="fill:none;stroke:#000000;stroke-width:50;stroke-linecap:round;stroke-linejoin:round;" transform="scale(1, 1) translate(0, 0)">
    <path d="M 74.0,504.0 L 105.0,539.0 L 136.0,748.0"/>
    <path d="M 138.0,526.0 L 143.0,517.0 L 232.0,487.0 L 263.0,488.0 L 285.0,509.0 L 257.0,620.0 L 234.0,638.0"/>
    <path d="M 158.0,696.0 L 172.0,680.0 L 226.0,665.0 L 274.0,658.0 L 300.0,664.0"/>
    <path d="M 559.0,201.0 L 630.0,238.0 L 663.0,277.0"/>
    <path d="M 413.0,354.0 L 423.0,386.0 L 421.0,407.0 L 391.0,474.0 L 383.0,516.0"/>
    <path d="M 454.0,390.0 L 469.0,398.0 L 497.0,395.0 L 618.0,363.0 L 799.0,334.0 L 832.0,348.0 L 845.0,373.0 L 784.0,447.0"/>
    <path d="M 480.0,559.0 L 548.0,559.0 L 719.0,512.0 L 760.0,513.0"/>
    <path d="M 489.0,664.0 L 520.0,663.0 L 684.0,622.0 L 728.0,616.0 L 751.0,622.0"/>
    <path d="M 361.0,788.0 L 414.0,793.0 L 636.0,745.0 L 818.0,718.0 L 854.0,718.0 L 902.0,732.0"/>
    <path d="M 578.0,423.0 L 606.0,444.0 L 617.0,463.0 L 607.0,708.0 L 591.0,732.0"/>
    <path d="M 440.0,862.0 L 465.0,881.0 L 477.0,900.0 L 516.0,1068.0"/>
    <path d="M 496.0,861.0 L 514.0,872.0 L 718.0,829.0 L 741.0,831.0 L 776.0,866.0 L 742.0,949.0 L 714.0,969.0"/>
    <path d="M 534.0,1033.0 L 546.0,1019.0 L 702.0,997.0 L 762.0,996.0 L 786.0,1005.0"/>
  </g>
</svg>
