<svg xmlns="http://www.w3.org/2000/svg" viewBox="0 0 1024 1024">
  <g style="fill:none;stroke:#000000;stroke-width:50;stroke-linecap:round;stroke-linejoin:round;" transform="scale(1, 1) translate(0, 0)">
    <path d="M 83.0,496.0 L 108.0,519.0 L 115.0,537.0 L 145.0,729.0"/>
    <path d="M 137.0,501.0 L 147.0,507.0 L 233.0,479.0 L 262.0,483.0 L 283.0,504.0 L 257.0,616.0 L 235.0,631.0"/>
    <path d="M 164.0,688.0 L 180.0,671.0 L 223.0,659.0 L 288.0,660.0"/>
    <path d="M 376.0,320.0 L 424.0,372.0 L 442.0,410.0"/>
    <path d="M 605.0,237.0 L 638.0,269.0 L 567.0,380.0 L 530.0,422.0 L 528.0,433.0"/>
    <path d="M 379.0,511.0 L 436.0,513.0 L 501.0,496.0 L 573.0,468.0 L 606.0,463.0 L 629.0,467.0"/>
    <path d="M 339.0,595.0 L 357.0,617.0 L 362.0,635.0 L 356.0,732.0 L 381.0,735.0 L 550.0,680.0 L 566.0,664.0"/>
    <path d="M 584.0,542.0 L 610.0,578.0 L 584.0,740.0"/>
    <path d="M 452.0,534.0 L 485.0,555.0 L 476.0,702.0 L 454.0,807.0 L 426.0,872.0 L 399.0,914.0 L 334.0,979.0 L 302.0,996.0"/>
    <path d="M 678.0,382.0 L 708.0,407.0 L 717.0,447.0 L 714.0,579.0 L 700.0,724.0 L 670.0,842.0 L 643.0,909.0 L 588.0,1008.0 L 567.0,1034.0"/>
    <path d="M 741.0,389.0 L 757.0,399.0 L 851.0,371.0 L 879.0,384.0 L 893.0,401.0 L 898.0,689.0 L 894.0,973.0 L 884.0,994.0 L 872.0,1003.0 L 833.0,988.0 L 773.0,952.0"/>
    <path d="M 747.0,568.0 L 753.0,557.0 L 770.0,548.0 L 827.0,546.0"/>
    <path d="M 726.0,713.0 L 742.0,700.0 L 777.0,691.0 L 813.0,688.0 L 836.0,695.0"/>
  </g>
</svg>
