<svg xmlns="http://www.w3.org/2000/svg" viewBox="0 0 1024 1024">
  <g style="fill:none;stroke:#000000;stroke-width:50;stroke-linecap:round;stroke-linejoin:round;" transform="scale(1, 1) translate(0, 0)">
    <path d="M 90.0,473.0 L 123.0,509.0 L 156.0,697.0"/>
    <path d="M 142.0,473.0 L 157.0,481.0 L 254.0,447.0 L 279.0,447.0 L 295.0,459.0 L 305.0,471.0 L 280.0,575.0 L 257.0,586.0"/>
    <path d="M 176.0,649.0 L 186.0,636.0 L 254.0,620.0 L 293.0,619.0 L 315.0,625.0"/>
    <path d="M 449.0,278.0 L 527.0,333.0 L 547.0,372.0"/>
    <path d="M 703.0,209.0 L 735.0,245.0 L 625.0,385.0"/>
    <path d="M 418.0,477.0 L 453.0,484.0 L 488.0,482.0 L 769.0,422.0 L 816.0,422.0"/>
    <path d="M 494.0,531.0 L 511.0,562.0 L 493.0,593.0 L 428.0,660.0 L 368.0,697.0"/>
    <path d="M 649.0,525.0 L 754.0,582.0 L 782.0,604.0 L 806.0,643.0"/>
    <path d="M 378.0,730.0 L 408.0,757.0 L 418.0,783.0 L 439.0,905.0 L 457.0,926.0"/>
    <path d="M 437.0,734.0 L 460.0,744.0 L 714.0,698.0 L 774.0,698.0 L 806.0,733.0 L 769.0,865.0 L 739.0,891.0"/>
    <path d="M 536.0,753.0 L 530.0,764.0 L 536.0,775.0 L 533.0,786.0 L 550.0,881.0 L 549.0,916.0"/>
    <path d="M 642.0,729.0 L 670.0,755.0 L 632.0,897.0 L 621.0,908.0"/>
    <path d="M 286.0,952.0 L 336.0,962.0 L 590.0,929.0 L 872.0,909.0 L 915.0,913.0 L 963.0,930.0"/>
  </g>
</svg>
