<svg xmlns="http://www.w3.org/2000/svg" viewBox="0 0 1024 1024">
  <g style="fill:none;stroke:#000000;stroke-width:50;stroke-linecap:round;stroke-linejoin:round;" transform="scale(1, 1) translate(0, 0)">
    <path d="M 88.0,461.0 L 112.0,483.0 L 119.0,503.0 L 157.0,717.0"/>
    <path d="M 143.0,465.0 L 152.0,471.0 L 174.0,466.0 L 269.0,436.0 L 281.0,436.0 L 301.0,451.0 L 310.0,460.0 L 289.0,562.0 L 267.0,580.0"/>
    <path d="M 171.0,648.0 L 187.0,629.0 L 267.0,607.0 L 304.0,604.0 L 329.0,610.0"/>
    <path d="M 359.0,383.0 L 424.0,389.0 L 755.0,338.0 L 810.0,339.0 L 853.0,353.0"/>
    <path d="M 432.0,263.0 L 471.0,291.0 L 497.0,461.0"/>
    <path d="M 677.0,205.0 L 693.0,214.0 L 713.0,246.0 L 676.0,373.0 L 643.0,456.0"/>
    <path d="M 533.0,452.0 L 559.0,493.0 L 518.0,564.0 L 462.0,635.0 L 383.0,715.0 L 328.0,759.0 L 209.0,827.0"/>
    <path d="M 593.0,527.0 L 603.0,526.0 L 703.0,619.0 L 814.0,704.0 L 864.0,719.0 L 1003.0,735.0"/>
    <path d="M 461.0,714.0 L 520.0,719.0 L 631.0,696.0 L 681.0,697.0"/>
    <path d="M 405.0,826.0 L 441.0,866.0 L 480.0,1052.0"/>
    <path d="M 440.0,822.0 L 472.0,832.0 L 670.0,795.0 L 700.0,801.0 L 730.0,829.0 L 698.0,912.0 L 672.0,932.0"/>
    <path d="M 494.0,974.0 L 514.0,986.0 L 662.0,962.0 L 720.0,961.0 L 745.0,971.0"/>
  </g>
</svg>
