<svg xmlns="http://www.w3.org/2000/svg" viewBox="0 0 1024 1024">
  <g style="fill:none;stroke:#000000;stroke-width:50;stroke-linecap:round;stroke-linejoin:round;" transform="scale(1, 1) translate(0, 0)">
    <path d="M 96.0,427.0 L 121.0,449.0 L 129.0,465.0 L 160.0,680.0"/>
    <path d="M 157.0,452.0 L 166.0,441.0 L 262.0,413.0 L 288.0,412.0 L 307.0,426.0 L 317.0,437.0 L 316.0,446.0 L 292.0,541.0 L 265.0,566.0"/>
    <path d="M 181.0,625.0 L 195.0,610.0 L 261.0,594.0 L 323.0,597.0"/>
    <path d="M 491.0,226.0 L 558.0,276.0 L 574.0,300.0"/>
    <path d="M 742.0,165.0 L 764.0,185.0 L 772.0,203.0 L 674.0,310.0"/>
    <path d="M 453.0,396.0 L 515.0,402.0 L 753.0,355.0 L 796.0,356.0"/>
    <path d="M 447.0,527.0 L 474.0,533.0 L 505.0,531.0 L 703.0,489.0 L 747.0,485.0 L 777.0,490.0"/>
    <path d="M 362.0,652.0 L 417.0,658.0 L 619.0,622.0 L 815.0,600.0 L 893.0,617.0"/>
    <path d="M 580.0,420.0 L 605.0,439.0 L 606.0,455.0 L 548.0,622.0 L 491.0,743.0 L 438.0,823.0 L 377.0,897.0 L 328.0,943.0 L 271.0,985.0"/>
    <path d="M 504.0,777.0 L 567.0,776.0 L 650.0,763.0 L 750.0,738.0 L 787.0,742.0"/>
    <path d="M 611.0,793.0 L 634.0,813.0 L 642.0,832.0 L 633.0,922.0 L 612.0,936.0"/>
    <path d="M 394.0,980.0 L 450.0,989.0 L 559.0,972.0 L 831.0,948.0 L 854.0,949.0 L 915.0,969.0"/>
  </g>
</svg>
