<svg xmlns="http://www.w3.org/2000/svg" viewBox="0 0 1024 1024">
  <g style="fill:none;stroke:#000000;stroke-width:50;stroke-linecap:round;stroke-linejoin:round;" transform="scale(1, 1) translate(0, 0)">
    <path d="M 91.0,424.0 L 117.0,447.0 L 121.0,459.0 L 153.0,649.0"/>
    <path d="M 150.0,445.0 L 170.0,431.0 L 252.0,408.0 L 270.0,411.0 L 289.0,430.0 L 270.0,532.0 L 248.0,548.0"/>
    <path d="M 172.0,602.0 L 185.0,590.0 L 248.0,574.0 L 303.0,575.0"/>
    <path d="M 433.0,341.0 L 486.0,346.0 L 631.0,318.0 L 677.0,319.0"/>
    <path d="M 534.0,189.0 L 554.0,202.0 L 572.0,225.0 L 563.0,417.0 L 559.0,431.0 L 548.0,440.0"/>
    <path d="M 340.0,488.0 L 385.0,494.0 L 575.0,457.0 L 815.0,422.0 L 848.0,422.0 L 905.0,434.0"/>
    <path d="M 729.0,237.0 L 746.0,263.0 L 750.0,295.0 L 674.0,401.0 L 609.0,477.0 L 509.0,572.0 L 401.0,660.0 L 298.0,731.0 L 205.0,777.0"/>
    <path d="M 727.0,567.0 L 700.0,552.0 L 543.0,615.0 L 541.0,624.0"/>
    <path d="M 494.0,532.0 L 520.0,572.0 L 514.0,619.0 L 518.0,662.0 L 534.0,685.0 L 564.0,699.0 L 676.0,702.0 L 719.0,696.0 L 765.0,679.0 L 779.0,670.0 L 778.0,589.0"/>
    <path d="M 465.0,766.0 L 490.0,793.0 L 494.0,808.0 L 484.0,1049.0"/>
    <path d="M 520.0,781.0 L 530.0,789.0 L 548.0,786.0 L 682.0,753.0 L 722.0,783.0 L 723.0,973.0 L 711.0,1012.0 L 712.0,1062.0"/>
    <path d="M 519.0,903.0 L 551.0,889.0 L 599.0,882.0 L 648.0,887.0"/>
    <path d="M 514.0,1009.0 L 527.0,996.0 L 635.0,983.0 L 667.0,985.0"/>
  </g>
</svg>
