<svg xmlns="http://www.w3.org/2000/svg" viewBox="0 0 1024 1024">
  <g style="fill:none;stroke:#000000;stroke-width:50;stroke-linecap:round;stroke-linejoin:round;" transform="scale(1, 1) translate(0, 0)">
    <path d="M 82.0,477.0 L 114.0,511.0 L 152.0,721.0"/>
    <path d="M 135.0,482.0 L 150.0,485.0 L 238.0,458.0 L 264.0,458.0 L 282.0,471.0 L 290.0,480.0 L 289.0,491.0 L 271.0,591.0 L 248.0,609.0"/>
    <path d="M 171.0,673.0 L 182.0,656.0 L 242.0,639.0 L 286.0,633.0 L 314.0,637.0"/>
    <path d="M 445.0,314.0 L 470.0,353.0 L 464.0,446.0 L 512.0,444.0 L 644.0,411.0 L 706.0,402.0 L 724.0,415.0"/>
    <path d="M 754.0,264.0 L 778.0,307.0 L 744.0,451.0"/>
    <path d="M 578.0,231.0 L 618.0,266.0 L 607.0,508.0 L 591.0,529.0"/>
    <path d="M 353.0,584.0 L 398.0,590.0 L 522.0,563.0 L 786.0,523.0 L 842.0,524.0 L 885.0,536.0"/>
    <path d="M 419.0,693.0 L 449.0,719.0 L 480.0,862.0"/>
    <path d="M 480.0,701.0 L 493.0,710.0 L 507.0,708.0 L 701.0,661.0 L 735.0,658.0 L 762.0,678.0 L 768.0,692.0 L 748.0,747.0 L 724.0,759.0"/>
    <path d="M 498.0,840.0 L 508.0,831.0 L 709.0,791.0 L 774.0,795.0"/>
    <path d="M 573.0,607.0 L 603.0,645.0 L 604.0,669.0 L 601.0,904.0 L 585.0,922.0"/>
    <path d="M 362.0,974.0 L 418.0,997.0 L 719.0,916.0 L 745.0,910.0 L 758.0,915.0"/>
    <path d="M 739.0,848.0 L 833.0,959.0 L 844.0,986.0 L 848.0,1019.0"/>
  </g>
</svg>
