<svg xmlns="http://www.w3.org/2000/svg" viewBox="0 0 1024 1024">
  <g style="fill:none;stroke:#000000;stroke-width:50;stroke-linecap:round;stroke-linejoin:round;" transform="scale(1, 1) translate(0, 0)">
    <path d="M 59.0,456.0 L 80.0,474.0 L 90.0,494.0 L 117.0,681.0"/>
    <path d="M 110.0,459.0 L 122.0,467.0 L 218.0,442.0 L 237.0,446.0 L 257.0,466.0 L 237.0,562.0 L 215.0,578.0"/>
    <path d="M 137.0,636.0 L 151.0,621.0 L 215.0,605.0 L 271.0,607.0"/>
    <path d="M 336.0,303.0 L 405.0,345.0 L 431.0,383.0"/>
    <path d="M 300.0,513.0 L 363.0,550.0 L 388.0,575.0"/>
    <path d="M 314.0,935.0 L 302.0,909.0 L 296.0,861.0 L 397.0,641.0"/>
    <path d="M 580.0,213.0 L 603.0,233.0 L 614.0,254.0 L 597.0,300.0 L 527.0,425.0 L 497.0,469.0 L 474.0,490.0"/>
    <path d="M 578.0,394.0 L 595.0,388.0 L 662.0,385.0 L 791.0,352.0 L 824.0,354.0"/>
    <path d="M 520.0,470.0 L 530.0,471.0 L 550.0,496.0 L 556.0,516.0 L 552.0,548.0 L 519.0,683.0 L 465.0,825.0 L 508.0,831.0 L 591.0,820.0 L 706.0,820.0 L 815.0,829.0 L 865.0,853.0"/>
    <path d="M 580.0,484.0 L 593.0,495.0 L 665.0,482.0 L 702.0,469.0 L 743.0,467.0 L 778.0,498.0 L 742.0,792.0 L 726.0,871.0 L 704.0,929.0 L 688.0,948.0 L 666.0,959.0 L 579.0,909.0"/>
    <path d="M 607.0,537.0 L 641.0,568.0 L 658.0,598.0"/>
    <path d="M 425.0,665.0 L 471.0,673.0 L 633.0,647.0 L 858.0,626.0 L 892.0,628.0 L 946.0,643.0"/>
    <path d="M 593.0,698.0 L 637.0,742.0 L 648.0,765.0"/>
  </g>
</svg>
