<svg xmlns="http://www.w3.org/2000/svg" viewBox="0 0 1024 1024">
  <g style="fill:none;stroke:#000000;stroke-width:50;stroke-linecap:round;stroke-linejoin:round;" transform="scale(1, 1) translate(0, 0)">
    <path d="M 74.0,472.0 L 101.0,497.0 L 106.0,512.0 L 140.0,740.0"/>
    <path d="M 132.0,482.0 L 148.0,486.0 L 237.0,458.0 L 257.0,457.0 L 289.0,482.0 L 261.0,596.0 L 237.0,608.0"/>
    <path d="M 158.0,673.0 L 173.0,658.0 L 234.0,642.0 L 295.0,645.0"/>
    <path d="M 371.0,280.0 L 399.0,305.0 L 407.0,325.0 L 439.0,498.0 L 460.0,657.0"/>
    <path d="M 428.0,286.0 L 451.0,296.0 L 548.0,272.0 L 713.0,244.0 L 763.0,247.0 L 791.0,267.0 L 806.0,286.0 L 758.0,536.0 L 734.0,615.0 L 741.0,649.0"/>
    <path d="M 483.0,416.0 L 546.0,412.0 L 661.0,384.0 L 709.0,386.0"/>
    <path d="M 563.0,316.0 L 586.0,343.0 L 577.0,418.0 L 539.0,503.0 L 496.0,555.0"/>
    <path d="M 618.0,457.0 L 675.0,498.0 L 686.0,519.0"/>
    <path d="M 479.0,638.0 L 494.0,626.0 L 675.0,603.0 L 697.0,591.0"/>
    <path d="M 367.0,751.0 L 345.0,847.0 L 313.0,910.0 L 304.0,945.0"/>
    <path d="M 446.0,797.0 L 457.0,812.0 L 486.0,889.0 L 533.0,939.0 L 608.0,974.0 L 681.0,989.0 L 773.0,992.0 L 806.0,981.0 L 819.0,969.0 L 809.0,935.0 L 765.0,845.0"/>
    <path d="M 564.0,719.0 L 637.0,772.0 L 662.0,814.0"/>
    <path d="M 789.0,701.0 L 894.0,758.0 L 922.0,780.0 L 946.0,819.0"/>
  </g>
</svg>
