<svg xmlns="http://www.w3.org/2000/svg" viewBox="0 0 1024 1024">
  <g style="fill:none;stroke:#000000;stroke-width:50;stroke-linecap:round;stroke-linejoin:round;" transform="scale(1, 1) translate(0, 0)">
    <path d="M 66.0,477.0 L 98.0,511.0 L 140.0,741.0"/>
    <path d="M 121.0,481.0 L 137.0,486.0 L 239.0,457.0 L 259.0,460.0 L 282.0,481.0 L 259.0,589.0 L 235.0,609.0"/>
    <path d="M 157.0,668.0 L 170.0,653.0 L 227.0,637.0 L 282.0,632.0 L 301.0,638.0"/>
    <path d="M 728.0,237.0 L 668.0,218.0 L 592.0,257.0 L 469.0,291.0"/>
    <path d="M 432.0,346.0 L 488.0,391.0 L 509.0,433.0"/>
    <path d="M 563.0,326.0 L 602.0,368.0 L 614.0,392.0"/>
    <path d="M 764.0,291.0 L 781.0,323.0 L 719.0,379.0 L 687.0,397.0 L 680.0,409.0"/>
    <path d="M 375.0,475.0 L 385.0,500.0 L 386.0,522.0 L 360.0,593.0 L 358.0,623.0"/>
    <path d="M 413.0,502.0 L 448.0,511.0 L 578.0,480.0 L 812.0,447.0 L 846.0,464.0 L 855.0,474.0 L 856.0,486.0 L 794.0,557.0"/>
    <path d="M 410.0,634.0 L 469.0,638.0 L 668.0,596.0 L 709.0,591.0 L 755.0,596.0"/>
    <path d="M 537.0,509.0 L 558.0,532.0 L 565.0,558.0 L 532.0,656.0 L 490.0,748.0 L 435.0,834.0 L 391.0,888.0 L 335.0,940.0 L 303.0,961.0"/>
    <path d="M 515.0,760.0 L 537.0,744.0 L 669.0,713.0 L 691.0,723.0 L 705.0,742.0 L 686.0,813.0 L 664.0,864.0 L 623.0,924.0 L 601.0,945.0 L 530.0,982.0 L 413.0,1010.0"/>
    <path d="M 506.0,807.0 L 536.0,817.0 L 560.0,833.0 L 682.0,952.0 L 756.0,1002.0 L 813.0,1021.0 L 930.0,1038.0 L 944.0,1034.0"/>
  </g>
</svg>
