<svg xmlns="http://www.w3.org/2000/svg" viewBox="0 0 1024 1024">
  <g style="fill:none;stroke:#000000;stroke-width:50;stroke-linecap:round;stroke-linejoin:round;" transform="scale(1, 1) translate(0, 0)">
    <path d="M 59.0,488.0 L 89.0,520.0 L 125.0,725.0"/>
    <path d="M 107.0,490.0 L 132.0,493.0 L 212.0,465.0 L 233.0,467.0 L 244.0,476.0 L 254.0,486.0 L 235.0,591.0 L 249.0,608.0"/>
    <path d="M 140.0,658.0 L 151.0,647.0 L 207.0,632.0 L 260.0,636.0"/>
    <path d="M 320.0,431.0 L 348.0,436.0 L 390.0,433.0 L 526.0,398.0 L 576.0,397.0"/>
    <path d="M 331.0,541.0 L 373.0,544.0 L 503.0,510.0 L 554.0,512.0"/>
    <path d="M 418.0,240.0 L 450.0,263.0 L 462.0,285.0 L 450.0,588.0 L 434.0,607.0"/>
    <path d="M 303.0,647.0 L 346.0,652.0 L 508.0,615.0 L 560.0,619.0"/>
    <path d="M 440.0,712.0 L 459.0,706.0 L 483.0,711.0 L 518.0,732.0 L 529.0,748.0 L 479.0,894.0 L 456.0,926.0 L 430.0,942.0 L 362.0,879.0"/>
    <path d="M 440.0,681.0 L 425.0,681.0 L 409.0,696.0 L 359.0,791.0 L 313.0,854.0 L 252.0,914.0 L 195.0,956.0"/>
    <path d="M 681.0,257.0 L 694.0,263.0 L 720.0,293.0 L 712.0,334.0 L 670.0,451.0 L 636.0,523.0 L 600.0,578.0"/>
    <path d="M 647.0,543.0 L 739.0,514.0 L 815.0,481.0 L 879.0,469.0"/>
    <path d="M 721.0,542.0 L 752.0,566.0 L 756.0,580.0 L 746.0,686.0 L 715.0,796.0 L 671.0,869.0 L 608.0,918.0 L 550.0,945.0"/>
    <path d="M 590.0,641.0 L 621.0,657.0 L 749.0,854.0 L 821.0,937.0 L 916.0,969.0 L 961.0,977.0"/>
  </g>
</svg>
