<svg xmlns="http://www.w3.org/2000/svg" viewBox="0 0 1024 1024">
  <g style="fill:none;stroke:#000000;stroke-width:50;stroke-linecap:round;stroke-linejoin:round;" transform="scale(1, 1) translate(0, 0)">
    <path d="M 55.0,396.0 L 82.0,420.0 L 89.0,440.0 L 128.0,642.0"/>
    <path d="M 113.0,402.0 L 121.0,407.0 L 220.0,376.0 L 241.0,380.0 L 261.0,399.0 L 235.0,511.0 L 215.0,525.0"/>
    <path d="M 144.0,583.0 L 158.0,566.0 L 199.0,553.0 L 265.0,552.0"/>
    <path d="M 360.0,243.0 L 385.0,262.0 L 395.0,281.0 L 448.0,473.0"/>
    <path d="M 407.0,242.0 L 427.0,252.0 L 668.0,207.0 L 708.0,206.0 L 732.0,213.0 L 759.0,250.0 L 690.0,439.0"/>
    <path d="M 475.0,353.0 L 609.0,324.0 L 648.0,328.0"/>
    <path d="M 465.0,461.0 L 481.0,451.0 L 656.0,422.0 L 668.0,415.0"/>
    <path d="M 262.0,616.0 L 309.0,624.0 L 593.0,580.0 L 866.0,553.0 L 907.0,553.0 L 964.0,569.0"/>
    <path d="M 361.0,515.0 L 402.0,537.0 L 446.0,690.0"/>
    <path d="M 731.0,454.0 L 754.0,494.0 L 704.0,648.0 L 683.0,666.0"/>
    <path d="M 368.0,727.0 L 424.0,733.0 L 725.0,686.0 L 770.0,694.0"/>
    <path d="M 274.0,855.0 L 313.0,865.0 L 594.0,825.0 L 828.0,803.0 L 870.0,808.0 L 908.0,822.0"/>
    <path d="M 519.0,252.0 L 555.0,271.0 L 563.0,299.0 L 551.0,1094.0"/>
  </g>
</svg>
