<svg xmlns="http://www.w3.org/2000/svg" viewBox="0 0 1024 1024">
  <g style="fill:none;stroke:#000000;stroke-width:50;stroke-linecap:round;stroke-linejoin:round;" transform="scale(1, 1) translate(0, 0)">
    <path d="M 52.0,510.0 L 74.0,533.0 L 81.0,551.0 L 101.0,711.0"/>
    <path d="M 99.0,514.0 L 111.0,520.0 L 174.0,496.0 L 207.0,497.0 L 226.0,514.0 L 213.0,602.0 L 226.0,615.0"/>
    <path d="M 122.0,668.0 L 136.0,652.0 L 175.0,642.0 L 240.0,644.0"/>
    <path d="M 319.0,419.0 L 374.0,421.0 L 484.0,390.0 L 539.0,385.0"/>
    <path d="M 281.0,534.0 L 310.0,567.0 L 329.0,687.0"/>
    <path d="M 313.0,531.0 L 337.0,539.0 L 527.0,499.0 L 546.0,512.0 L 554.0,528.0 L 533.0,597.0 L 519.0,601.0"/>
    <path d="M 346.0,669.0 L 362.0,659.0 L 506.0,631.0 L 560.0,638.0"/>
    <path d="M 391.0,203.0 L 430.0,241.0 L 440.0,262.0 L 431.0,786.0 L 415.0,953.0 L 417.0,1030.0"/>
    <path d="M 409.0,672.0 L 402.0,677.0 L 381.0,742.0 L 322.0,815.0 L 255.0,879.0 L 189.0,922.0"/>
    <path d="M 452.0,708.0 L 468.0,726.0 L 511.0,755.0 L 526.0,779.0 L 526.0,791.0"/>
    <path d="M 664.0,274.0 L 689.0,288.0 L 703.0,306.0 L 697.0,343.0 L 654.0,483.0 L 637.0,524.0 L 607.0,571.0"/>
    <path d="M 661.0,518.0 L 785.0,477.0 L 824.0,480.0 L 841.0,499.0 L 770.0,589.0"/>
    <path d="M 648.0,612.0 L 679.0,645.0 L 662.0,739.0 L 637.0,806.0 L 576.0,882.0 L 492.0,932.0"/>
    <path d="M 688.0,746.0 L 693.0,766.0 L 749.0,833.0 L 837.0,919.0 L 929.0,944.0 L 968.0,948.0"/>
  </g>
</svg>
