<svg xmlns="http://www.w3.org/2000/svg" viewBox="0 0 1024 1024">
  <g style="fill:none;stroke:#000000;stroke-width:50;stroke-linecap:round;stroke-linejoin:round;" transform="scale(1, 1) translate(0, 0)">
    <path d="M 80.0,498.0 L 112.0,525.0 L 115.0,534.0 L 161.0,760.0"/>
    <path d="M 150.0,527.0 L 172.0,510.0 L 267.0,481.0 L 291.0,477.0 L 315.0,493.0 L 326.0,505.0 L 293.0,636.0 L 268.0,653.0"/>
    <path d="M 180.0,716.0 L 191.0,700.0 L 257.0,682.0 L 328.0,683.0"/>
    <path d="M 441.0,365.0 L 451.0,348.0 L 461.0,343.0 L 542.0,319.0 L 567.0,328.0 L 589.0,352.0 L 572.0,418.0 L 549.0,587.0"/>
    <path d="M 444.0,478.0 L 451.0,466.0 L 500.0,457.0 L 517.0,461.0"/>
    <path d="M 442.0,593.0 L 450.0,580.0 L 523.0,559.0"/>
    <path d="M 381.0,325.0 L 408.0,351.0 L 418.0,448.0 L 417.0,593.0 L 402.0,786.0 L 407.0,812.0 L 441.0,805.0 L 530.0,749.0 L 530.0,740.0"/>
    <path d="M 516.0,679.0 L 568.0,732.0 L 580.0,756.0 L 582.0,779.0"/>
    <path d="M 663.0,356.0 L 706.0,358.0 L 772.0,346.0 L 856.0,320.0 L 899.0,319.0"/>
    <path d="M 627.0,478.0 L 648.0,500.0 L 632.0,570.0 L 630.0,598.0 L 635.0,600.0 L 670.0,598.0 L 847.0,563.0 L 886.0,563.0 L 929.0,572.0"/>
    <path d="M 719.0,381.0 L 761.0,410.0 L 728.0,615.0 L 684.0,753.0 L 618.0,868.0 L 534.0,942.0 L 477.0,970.0"/>
    <path d="M 768.0,674.0 L 794.0,707.0 L 784.0,860.0 L 792.0,923.0 L 804.0,951.0 L 822.0,970.0 L 868.0,988.0 L 920.0,974.0 L 943.0,957.0 L 946.0,824.0"/>
  </g>
</svg>
