<svg xmlns="http://www.w3.org/2000/svg" viewBox="0 0 1024 1024">
  <g style="fill:none;stroke:#000000;stroke-width:50;stroke-linecap:round;stroke-linejoin:round;" transform="scale(1, 1) translate(0, 0)">
    <path d="M 91.0,440.0 L 120.0,473.0 L 157.0,697.0"/>
    <path d="M 151.0,462.0 L 157.0,452.0 L 248.0,418.0 L 277.0,420.0 L 299.0,439.0 L 281.0,549.0 L 259.0,566.0"/>
    <path d="M 171.0,631.0 L 183.0,615.0 L 251.0,594.0 L 317.0,592.0"/>
    <path d="M 393.0,259.0 L 416.0,266.0 L 454.0,265.0 L 674.0,222.0 L 746.0,216.0"/>
    <path d="M 546.0,291.0 L 515.0,301.0 L 475.0,358.0"/>
    <path d="M 419.0,360.0 L 440.0,382.0 L 446.0,398.0 L 448.0,482.0 L 437.0,574.0 L 440.0,618.0"/>
    <path d="M 465.0,375.0 L 485.0,381.0 L 520.0,375.0 L 568.0,364.0 L 578.0,356.0 L 634.0,346.0 L 657.0,348.0 L 680.0,369.0 L 685.0,377.0 L 685.0,552.0 L 678.0,615.0"/>
    <path d="M 473.0,468.0 L 482.0,458.0 L 557.0,436.0 L 601.0,436.0"/>
    <path d="M 470.0,534.0 L 481.0,523.0 L 546.0,508.0 L 594.0,500.0 L 613.0,504.0"/>
    <path d="M 456.0,609.0 L 472.0,598.0 L 500.0,591.0 L 634.0,568.0 L 645.0,558.0"/>
    <path d="M 282.0,781.0 L 321.0,786.0 L 360.0,779.0 L 692.0,693.0 L 756.0,695.0"/>
    <path d="M 482.0,634.0 L 535.0,674.0 L 567.0,769.0 L 621.0,855.0 L 693.0,935.0 L 755.0,984.0 L 806.0,1007.0 L 849.0,1011.0 L 866.0,960.0 L 881.0,859.0"/>
    <path d="M 732.0,736.0 L 745.0,760.0 L 748.0,783.0 L 677.0,860.0 L 621.0,910.0 L 522.0,974.0 L 436.0,1016.0 L 369.0,1037.0"/>
    <path d="M 749.0,557.0 L 816.0,595.0 L 842.0,631.0"/>
  </g>
</svg>
