<svg xmlns="http://www.w3.org/2000/svg" viewBox="0 0 1024 1024">
  <g style="fill:none;stroke:#000000;stroke-width:50;stroke-linecap:round;stroke-linejoin:round;" transform="scale(1, 1) translate(0, 0)">
    <path d="M 63.0,525.0 L 96.0,562.0 L 136.0,750.0"/>
    <path d="M 109.0,522.0 L 126.0,529.0 L 208.0,502.0 L 233.0,501.0 L 258.0,522.0 L 240.0,621.0 L 222.0,638.0"/>
    <path d="M 152.0,699.0 L 167.0,680.0 L 212.0,666.0 L 254.0,660.0 L 276.0,664.0"/>
    <path d="M 393.0,277.0 L 411.0,297.0 L 416.0,312.0 L 355.0,448.0 L 351.0,470.0 L 360.0,473.0 L 420.0,462.0 L 429.0,454.0"/>
    <path d="M 469.0,377.0 L 483.0,408.0 L 439.0,481.0 L 384.0,556.0 L 382.0,581.0 L 409.0,583.0 L 473.0,559.0"/>
    <path d="M 480.0,518.0 L 514.0,582.0"/>
    <path d="M 689.0,227.0 L 704.0,247.0 L 709.0,267.0 L 640.0,396.0 L 635.0,418.0 L 678.0,422.0 L 720.0,410.0"/>
    <path d="M 766.0,324.0 L 778.0,340.0 L 781.0,358.0 L 748.0,407.0 L 673.0,497.0 L 671.0,521.0 L 704.0,522.0 L 768.0,504.0"/>
    <path d="M 771.0,457.0 L 799.0,500.0 L 810.0,530.0"/>
    <path d="M 280.0,732.0 L 330.0,732.0 L 480.0,689.0 L 700.0,638.0 L 748.0,634.0 L 792.0,643.0"/>
    <path d="M 408.0,666.0 L 429.0,695.0 L 428.0,705.0 L 414.0,758.0 L 384.0,826.0 L 316.0,917.0 L 238.0,977.0"/>
    <path d="M 437.0,781.0 L 448.0,794.0 L 504.0,824.0 L 520.0,855.0"/>
    <path d="M 492.0,196.0 L 526.0,211.0 L 552.0,236.0 L 569.0,425.0 L 606.0,621.0 L 643.0,747.0 L 672.0,817.0 L 714.0,893.0 L 760.0,954.0 L 798.0,993.0 L 832.0,1014.0 L 861.0,1019.0 L 879.0,974.0 L 895.0,853.0"/>
    <path d="M 771.0,709.0 L 784.0,746.0 L 722.0,837.0 L 659.0,892.0 L 582.0,933.0 L 529.0,950.0"/>
    <path d="M 819.0,583.0 L 879.0,636.0 L 897.0,676.0"/>
  </g>
</svg>
