<svg xmlns="http://www.w3.org/2000/svg" viewBox="0 0 1024 1024">
  <g style="fill:none;stroke:#000000;stroke-width:50;stroke-linecap:round;stroke-linejoin:round;" transform="scale(1, 1) translate(0, 0)">
    <path d="M 91.0,456.0 L 110.0,473.0 L 122.0,495.0 L 153.0,713.0"/>
    <path d="M 137.0,457.0 L 155.0,465.0 L 256.0,439.0 L 277.0,443.0 L 297.0,464.0 L 277.0,567.0 L 253.0,590.0"/>
    <path d="M 171.0,643.0 L 185.0,630.0 L 241.0,619.0 L 287.0,618.0 L 310.0,625.0"/>
    <path d="M 439.0,260.0 L 470.0,300.0 L 497.0,481.0"/>
    <path d="M 472.0,261.0 L 509.0,267.0 L 671.0,243.0 L 726.0,252.0 L 748.0,277.0 L 709.0,434.0 L 711.0,460.0"/>
    <path d="M 511.0,370.0 L 517.0,362.0 L 607.0,347.0 L 650.0,352.0"/>
    <path d="M 518.0,457.0 L 534.0,448.0 L 660.0,434.0 L 674.0,427.0"/>
    <path d="M 346.0,564.0 L 375.0,572.0 L 408.0,570.0 L 595.0,542.0 L 836.0,521.0 L 915.0,540.0"/>
    <path d="M 381.0,599.0 L 405.0,618.0 L 411.0,639.0 L 413.0,850.0 L 409.0,866.0 L 397.0,875.0"/>
    <path d="M 537.0,575.0 L 563.0,598.0 L 565.0,794.0 L 557.0,972.0 L 569.0,1052.0"/>
    <path d="M 439.0,687.0 L 451.0,675.0 L 471.0,668.0 L 518.0,668.0"/>
    <path d="M 441.0,776.0 L 448.0,765.0 L 483.0,757.0 L 525.0,760.0"/>
    <path d="M 278.0,918.0 L 329.0,935.0 L 628.0,827.0"/>
    <path d="M 605.0,661.0 L 663.0,664.0 L 744.0,642.0 L 778.0,644.0 L 799.0,654.0 L 770.0,768.0 L 744.0,827.0 L 718.0,866.0 L 672.0,908.0 L 621.0,934.0 L 598.0,939.0 L 594.0,946.0"/>
    <path d="M 603.0,718.0 L 634.0,735.0 L 742.0,866.0 L 841.0,953.0 L 971.0,975.0"/>
  </g>
</svg>
