<svg xmlns="http://www.w3.org/2000/svg" viewBox="0 0 1024 1024">
  <g style="fill:none;stroke:#000000;stroke-width:50;stroke-linecap:round;stroke-linejoin:round;" transform="scale(1, 1) translate(0, 0)">
    <path d="M 65.0,435.0 L 92.0,467.0 L 125.0,671.0"/>
    <path d="M 124.0,460.0 L 129.0,450.0 L 223.0,423.0 L 252.0,437.0 L 262.0,447.0 L 241.0,558.0 L 254.0,572.0"/>
    <path d="M 145.0,621.0 L 159.0,606.0 L 213.0,594.0 L 268.0,600.0"/>
    <path d="M 341.0,375.0 L 414.0,378.0 L 540.0,348.0 L 588.0,348.0"/>
    <path d="M 451.0,197.0 L 488.0,235.0 L 462.0,446.0 L 443.0,472.0"/>
    <path d="M 315.0,491.0 L 342.0,521.0 L 381.0,698.0"/>
    <path d="M 370.0,514.0 L 382.0,503.0 L 525.0,474.0 L 566.0,476.0 L 582.0,484.0 L 597.0,505.0 L 550.0,664.0 L 550.0,687.0"/>
    <path d="M 380.0,601.0 L 391.0,590.0 L 451.0,573.0 L 509.0,573.0"/>
    <path d="M 398.0,684.0 L 406.0,675.0 L 520.0,655.0"/>
    <path d="M 221.0,811.0 L 232.0,819.0 L 277.0,824.0 L 511.0,768.0 L 577.0,760.0 L 600.0,764.0"/>
    <path d="M 427.0,687.0 L 451.0,711.0 L 443.0,951.0 L 453.0,1024.0"/>
    <path d="M 653.0,342.0 L 685.0,371.0 L 692.0,394.0 L 694.0,476.0 L 677.0,685.0 L 659.0,770.0 L 629.0,858.0 L 593.0,932.0 L 540.0,1013.0"/>
    <path d="M 716.0,351.0 L 736.0,361.0 L 827.0,333.0 L 847.0,340.0 L 873.0,366.0 L 876.0,862.0 L 870.0,941.0 L 849.0,974.0 L 814.0,960.0 L 746.0,916.0"/>
    <path d="M 724.0,533.0 L 743.0,513.0 L 791.0,505.0 L 812.0,509.0"/>
    <path d="M 709.0,674.0 L 720.0,661.0 L 733.0,658.0 L 780.0,652.0 L 811.0,657.0"/>
  </g>
</svg>
