<svg xmlns="http://www.w3.org/2000/svg" viewBox="0 0 1024 1024">
  <g style="fill:none;stroke:#000000;stroke-width:50;stroke-linecap:round;stroke-linejoin:round;" transform="scale(1, 1) translate(0, 0)">
    <path d="M 95.0,444.0 L 122.0,467.0 L 157.0,669.0"/>
    <path d="M 152.0,465.0 L 171.0,453.0 L 223.0,441.0 L 260.0,425.0 L 282.0,428.0 L 302.0,446.0 L 285.0,534.0 L 285.0,551.0 L 299.0,565.0"/>
    <path d="M 175.0,624.0 L 190.0,607.0 L 246.0,591.0 L 312.0,592.0"/>
    <path d="M 487.0,302.0 L 498.0,309.0 L 515.0,307.0 L 618.0,287.0 L 706.0,262.0 L 727.0,263.0 L 757.0,291.0 L 736.0,345.0 L 715.0,360.0"/>
    <path d="M 473.0,439.0 L 493.0,429.0 L 697.0,388.0 L 741.0,386.0 L 762.0,391.0"/>
    <path d="M 420.0,282.0 L 452.0,318.0 L 454.0,337.0 L 433.0,499.0 L 394.0,663.0 L 363.0,746.0 L 312.0,844.0 L 253.0,930.0 L 209.0,978.0"/>
    <path d="M 740.0,470.0 L 682.0,459.0 L 611.0,498.0 L 550.0,521.0 L 509.0,528.0 L 501.0,535.0"/>
    <path d="M 465.0,587.0 L 495.0,617.0 L 520.0,735.0"/>
    <path d="M 520.0,595.0 L 529.0,602.0 L 728.0,559.0 L 755.0,585.0 L 741.0,624.0 L 720.0,637.0"/>
    <path d="M 536.0,707.0 L 553.0,695.0 L 694.0,667.0 L 748.0,664.0 L 768.0,670.0"/>
    <path d="M 396.0,772.0 L 417.0,796.0 L 423.0,818.0 L 423.0,972.0 L 431.0,999.0"/>
    <path d="M 438.0,788.0 L 462.0,797.0 L 596.0,763.0 L 820.0,734.0 L 854.0,766.0 L 848.0,820.0 L 847.0,976.0 L 832.0,1004.0 L 743.0,978.0"/>
    <path d="M 603.0,521.0 L 626.0,538.0 L 627.0,551.0 L 622.0,848.0 L 608.0,869.0"/>
    <path d="M 486.0,905.0 L 527.0,918.0 L 687.0,870.0 L 711.0,864.0 L 716.0,870.0"/>
    <path d="M 712.0,818.0 L 764.0,894.0 L 770.0,922.0"/>
  </g>
</svg>
