<svg xmlns="http://www.w3.org/2000/svg" viewBox="0 0 1024 1024">
  <g style="fill:none;stroke:#000000;stroke-width:50;stroke-linecap:round;stroke-linejoin:round;" transform="scale(1, 1) translate(0, 0)">
    <path d="M 92.0,439.0 L 116.0,460.0 L 124.0,477.0 L 153.0,677.0"/>
    <path d="M 150.0,445.0 L 162.0,451.0 L 261.0,417.0 L 277.0,421.0 L 298.0,440.0 L 273.0,549.0 L 250.0,566.0"/>
    <path d="M 173.0,630.0 L 191.0,611.0 L 222.0,601.0 L 262.0,592.0 L 308.0,593.0"/>
    <path d="M 437.0,342.0 L 470.0,345.0 L 510.0,338.0 L 720.0,282.0 L 741.0,289.0 L 765.0,316.0 L 732.0,446.0 L 711.0,464.0"/>
    <path d="M 380.0,456.0 L 431.0,459.0 L 666.0,402.0 L 849.0,368.0 L 893.0,365.0 L 947.0,375.0"/>
    <path d="M 432.0,547.0 L 451.0,551.0 L 705.0,492.0 L 765.0,497.0"/>
    <path d="M 550.0,178.0 L 559.0,177.0 L 587.0,193.0 L 604.0,209.0 L 609.0,228.0 L 601.0,384.0 L 599.0,1023.0"/>
    <path d="M 364.0,630.0 L 399.0,662.0 L 397.0,765.0 L 384.0,853.0 L 361.0,919.0 L 332.0,965.0 L 294.0,1006.0 L 258.0,1029.0"/>
    <path d="M 805.0,521.0 L 847.0,563.0 L 849.0,895.0 L 842.0,992.0 L 846.0,1064.0"/>
    <path d="M 494.0,585.0 L 506.0,616.0 L 499.0,651.0 L 510.0,661.0"/>
    <path d="M 425.0,706.0 L 438.0,693.0 L 471.0,686.0 L 525.0,689.0"/>
    <path d="M 693.0,541.0 L 715.0,568.0 L 717.0,633.0 L 747.0,632.0 L 798.0,618.0 L 816.0,624.0"/>
    <path d="M 443.0,765.0 L 488.0,764.0 L 749.0,706.0 L 775.0,703.0 L 796.0,708.0"/>
    <path d="M 407.0,857.0 L 418.0,848.0 L 477.0,837.0 L 500.0,851.0 L 486.0,953.0 L 492.0,997.0"/>
    <path d="M 745.0,808.0 L 774.0,790.0 L 808.0,785.0 L 823.0,771.0"/>
    <path d="M 700.0,785.0 L 718.0,801.0 L 722.0,819.0 L 713.0,970.0"/>
  </g>
</svg>
