<svg xmlns="http://www.w3.org/2000/svg" viewBox="0 0 1024 1024">
  <g style="fill:none;stroke:#000000;stroke-width:50;stroke-linecap:round;stroke-linejoin:round;" transform="scale(1, 1) translate(0, 0)">
    <path d="M 83.0,456.0 L 113.0,492.0 L 145.0,709.0"/>
    <path d="M 131.0,458.0 L 148.0,466.0 L 238.0,441.0 L 264.0,441.0 L 293.0,465.0 L 271.0,572.0 L 248.0,588.0"/>
    <path d="M 165.0,648.0 L 182.0,631.0 L 241.0,617.0 L 299.0,621.0"/>
    <path d="M 362.0,278.0 L 382.0,294.0 L 397.0,319.0 L 448.0,554.0"/>
    <path d="M 400.0,277.0 L 430.0,287.0 L 743.0,253.0 L 804.0,265.0 L 827.0,297.0 L 785.0,432.0 L 758.0,498.0 L 749.0,505.0 L 729.0,492.0"/>
    <path d="M 475.0,368.0 L 508.0,401.0 L 522.0,424.0"/>
    <path d="M 687.0,327.0 L 703.0,351.0 L 651.0,415.0"/>
    <path d="M 466.0,533.0 L 476.0,522.0 L 500.0,516.0 L 669.0,493.0 L 699.0,494.0 L 709.0,505.0"/>
    <path d="M 555.0,292.0 L 588.0,310.0 L 594.0,337.0 L 590.0,698.0 L 589.0,714.0 L 573.0,732.0"/>
    <path d="M 455.0,645.0 L 488.0,647.0 L 683.0,622.0 L 706.0,622.0 L 733.0,631.0"/>
    <path d="M 376.0,772.0 L 428.0,779.0 L 746.0,738.0 L 817.0,754.0"/>
    <path d="M 277.0,854.0 L 277.0,920.0 L 257.0,1027.0"/>
    <path d="M 420.0,878.0 L 465.0,934.0 L 472.0,960.0"/>
    <path d="M 583.0,843.0 L 643.0,907.0 L 654.0,930.0"/>
    <path d="M 776.0,832.0 L 888.0,919.0 L 900.0,932.0 L 921.0,978.0"/>
  </g>
</svg>
