<svg xmlns="http://www.w3.org/2000/svg" viewBox="0 0 1024 1024">
  <g style="fill:none;stroke:#000000;stroke-width:50;stroke-linecap:round;stroke-linejoin:round;" transform="scale(1, 1) translate(0, 0)">
    <path d="M 41.0,435.0 L 68.0,466.0 L 101.0,679.0"/>
    <path d="M 94.0,459.0 L 103.0,449.0 L 184.0,422.0 L 198.0,423.0 L 219.0,442.0 L 199.0,557.0 L 183.0,564.0"/>
    <path d="M 124.0,626.0 L 130.0,612.0 L 172.0,598.0 L 225.0,591.0 L 237.0,596.0"/>
    <path d="M 280.0,430.0 L 331.0,432.0 L 530.0,374.0 L 573.0,370.0"/>
    <path d="M 307.0,288.0 L 344.0,334.0 L 348.0,393.0 L 342.0,704.0 L 327.0,717.0"/>
    <path d="M 457.0,195.0 L 490.0,219.0 L 503.0,244.0 L 491.0,655.0 L 474.0,683.0"/>
    <path d="M 365.0,535.0 L 398.0,517.0 L 430.0,512.0 L 450.0,516.0"/>
    <path d="M 367.0,631.0 L 376.0,619.0 L 394.0,614.0 L 417.0,609.0 L 446.0,612.0"/>
    <path d="M 149.0,767.0 L 173.0,776.0 L 215.0,777.0 L 520.0,699.0 L 576.0,700.0"/>
    <path d="M 375.0,829.0 L 346.0,838.0 L 323.0,875.0 L 263.0,941.0 L 194.0,990.0"/>
    <path d="M 463.0,790.0 L 502.0,832.0 L 514.0,856.0"/>
    <path d="M 863.0,329.0 L 795.0,332.0 L 748.0,376.0 L 683.0,416.0 L 683.0,427.0"/>
    <path d="M 604.0,409.0 L 642.0,439.0 L 645.0,457.0 L 647.0,581.0 L 630.0,730.0 L 612.0,789.0 L 580.0,854.0 L 514.0,933.0 L 469.0,964.0"/>
    <path d="M 674.0,569.0 L 695.0,555.0 L 879.0,519.0 L 938.0,527.0"/>
    <path d="M 759.0,575.0 L 796.0,593.0 L 799.0,600.0 L 795.0,1074.0"/>
  </g>
</svg>
