<svg xmlns="http://www.w3.org/2000/svg" viewBox="0 0 1024 1024">
  <g style="fill:none;stroke:#000000;stroke-width:50;stroke-linecap:round;stroke-linejoin:round;" transform="scale(1, 1) translate(0, 0)">
    <path d="M 75.0,493.0 L 103.0,516.0 L 108.0,533.0 L 148.0,746.0"/>
    <path d="M 137.0,518.0 L 154.0,503.0 L 258.0,475.0 L 272.0,479.0 L 293.0,500.0 L 264.0,623.0 L 241.0,639.0"/>
    <path d="M 165.0,674.0 L 176.0,683.0 L 242.0,666.0 L 283.0,663.0 L 300.0,668.0"/>
    <path d="M 518.0,204.0 L 551.0,241.0 L 530.0,308.0 L 482.0,397.0 L 406.0,480.0"/>
    <path d="M 526.0,382.0 L 630.0,366.0 L 717.0,341.0 L 777.0,338.0"/>
    <path d="M 328.0,628.0 L 387.0,630.0 L 593.0,583.0 L 818.0,546.0 L 890.0,558.0"/>
    <path d="M 388.0,542.0 L 406.0,560.0 L 418.0,588.0 L 428.0,747.0 L 417.0,756.0"/>
    <path d="M 495.0,488.0 L 530.0,519.0 L 533.0,722.0 L 530.0,736.0 L 520.0,743.0"/>
    <path d="M 617.0,454.0 L 648.0,483.0 L 632.0,690.0 L 628.0,719.0 L 618.0,729.0"/>
    <path d="M 742.0,414.0 L 778.0,454.0 L 734.0,696.0 L 716.0,713.0"/>
    <path d="M 261.0,795.0 L 318.0,802.0 L 545.0,762.0 L 861.0,722.0 L 905.0,724.0 L 954.0,739.0"/>
    <path d="M 363.0,859.0 L 355.0,902.0 L 309.0,1013.0"/>
    <path d="M 470.0,863.0 L 516.0,924.0 L 530.0,971.0"/>
    <path d="M 615.0,850.0 L 680.0,915.0 L 698.0,958.0"/>
    <path d="M 776.0,825.0 L 882.0,933.0 L 899.0,959.0 L 911.0,1010.0"/>
  </g>
</svg>
