<svg xmlns="http://www.w3.org/2000/svg" viewBox="0 0 1024 1024">
  <g style="fill:none;stroke:#000000;stroke-width:50;stroke-linecap:round;stroke-linejoin:round;" transform="scale(1, 1) translate(0, 0)">
    <path d="M 86.0,488.0 L 112.0,512.0 L 118.0,526.0 L 148.0,728.0"/>
    <path d="M 141.0,492.0 L 152.0,500.0 L 263.0,473.0 L 293.0,489.0 L 302.0,502.0 L 275.0,598.0 L 270.0,612.0 L 243.0,631.0"/>
    <path d="M 169.0,682.0 L 187.0,671.0 L 234.0,659.0 L 291.0,655.0 L 312.0,662.0"/>
    <path d="M 443.0,273.0 L 508.0,280.0 L 704.0,243.0 L 788.0,238.0"/>
    <path d="M 510.0,304.0 L 546.0,333.0 L 546.0,409.0 L 556.0,419.0"/>
    <path d="M 436.0,471.0 L 448.0,460.0 L 513.0,446.0 L 554.0,444.0 L 575.0,450.0"/>
    <path d="M 383.0,444.0 L 399.0,453.0 L 414.0,481.0 L 414.0,589.0 L 461.0,585.0 L 504.0,566.0 L 532.0,566.0 L 552.0,581.0 L 548.0,660.0 L 526.0,677.0"/>
    <path d="M 653.0,285.0 L 674.0,303.0 L 678.0,314.0 L 665.0,416.0 L 703.0,418.0 L 788.0,399.0 L 807.0,409.0 L 824.0,430.0 L 796.0,499.0 L 776.0,506.0"/>
    <path d="M 701.0,539.0 L 712.0,548.0 L 765.0,538.0 L 823.0,546.0"/>
    <path d="M 650.0,524.0 L 667.0,550.0 L 672.0,574.0 L 667.0,645.0 L 650.0,657.0"/>
    <path d="M 380.0,716.0 L 431.0,722.0 L 773.0,672.0 L 812.0,672.0 L 865.0,686.0"/>
    <path d="M 379.0,815.0 L 356.0,905.0 L 324.0,964.0 L 317.0,989.0"/>
    <path d="M 458.0,809.0 L 469.0,826.0 L 490.0,891.0 L 515.0,926.0 L 543.0,952.0 L 614.0,986.0 L 698.0,1003.0 L 768.0,1006.0 L 822.0,985.0 L 801.0,920.0 L 765.0,847.0"/>
    <path d="M 576.0,775.0 L 638.0,813.0 L 659.0,847.0"/>
    <path d="M 813.0,773.0 L 905.0,837.0 L 926.0,874.0"/>
  </g>
</svg>
