<svg xmlns="http://www.w3.org/2000/svg" viewBox="0 0 1024 1024">
  <g style="fill:none;stroke:#000000;stroke-width:50;stroke-linecap:round;stroke-linejoin:round;" transform="scale(1, 1) translate(0, 0)">
    <path d="M 87.0,435.0 L 113.0,460.0 L 145.0,697.0"/>
    <path d="M 148.0,461.0 L 154.0,451.0 L 262.0,419.0 L 276.0,423.0 L 297.0,443.0 L 268.0,560.0 L 245.0,575.0"/>
    <path d="M 164.0,633.0 L 180.0,620.0 L 244.0,602.0 L 300.0,603.0"/>
    <path d="M 567.0,186.0 L 607.0,222.0 L 599.0,380.0 L 582.0,404.0"/>
    <path d="M 639.0,299.0 L 649.0,290.0 L 727.0,277.0 L 775.0,277.0"/>
    <path d="M 446.0,439.0 L 462.0,450.0 L 789.0,385.0 L 808.0,395.0 L 822.0,412.0 L 760.0,480.0"/>
    <path d="M 375.0,421.0 L 401.0,445.0 L 412.0,472.0 L 391.0,649.0 L 360.0,778.0 L 314.0,874.0 L 263.0,940.0 L 206.0,990.0 L 146.0,1023.0"/>
    <path d="M 472.0,572.0 L 495.0,573.0 L 597.0,548.0 L 672.0,521.0 L 715.0,520.0"/>
    <path d="M 551.0,471.0 L 571.0,493.0 L 573.0,504.0 L 573.0,609.0 L 593.0,637.0 L 622.0,649.0 L 658.0,654.0 L 703.0,651.0 L 759.0,631.0 L 776.0,613.0 L 788.0,543.0"/>
    <path d="M 424.0,785.0 L 447.0,814.0 L 447.0,910.0 L 528.0,897.0 L 543.0,903.0"/>
    <path d="M 528.0,731.0 L 561.0,773.0 L 562.0,965.0 L 549.0,977.0"/>
    <path d="M 649.0,707.0 L 683.0,738.0 L 666.0,944.0 L 664.0,955.0 L 651.0,966.0"/>
    <path d="M 796.0,726.0 L 814.0,760.0 L 797.0,812.0 L 790.0,825.0 L 778.0,827.0"/>
    <path d="M 694.0,886.0 L 710.0,872.0 L 772.0,860.0 L 819.0,868.0"/>
    <path d="M 350.0,1016.0 L 400.0,1025.0 L 606.0,997.0 L 862.0,974.0 L 939.0,993.0"/>
  </g>
</svg>
