<svg xmlns="http://www.w3.org/2000/svg" viewBox="0 0 1024 1024">
  <g style="fill:none;stroke:#000000;stroke-width:50;stroke-linecap:round;stroke-linejoin:round;" transform="scale(1, 1) translate(0, 0)">
    <path d="M 68.0,444.0 L 96.0,469.0 L 103.0,487.0 L 132.0,676.0"/>
    <path d="M 124.0,451.0 L 139.0,455.0 L 228.0,428.0 L 258.0,431.0 L 278.0,450.0 L 257.0,556.0 L 271.0,574.0"/>
    <path d="M 152.0,629.0 L 170.0,613.0 L 229.0,599.0 L 287.0,605.0"/>
    <path d="M 385.0,313.0 L 426.0,313.0 L 510.0,297.0 L 527.0,298.0 L 545.0,308.0 L 509.0,393.0 L 460.0,478.0 L 402.0,562.0 L 321.0,655.0 L 248.0,715.0"/>
    <path d="M 348.0,410.0 L 409.0,450.0 L 425.0,473.0"/>
    <path d="M 750.0,274.0 L 718.0,268.0 L 638.0,350.0 L 640.0,356.0"/>
    <path d="M 811.0,325.0 L 822.0,358.0 L 721.0,435.0 L 711.0,432.0"/>
    <path d="M 576.0,345.0 L 589.0,342.0 L 608.0,356.0 L 636.0,395.0 L 720.0,485.0 L 829.0,579.0 L 962.0,601.0"/>
    <path d="M 465.0,550.0 L 515.0,557.0 L 620.0,534.0 L 677.0,533.0"/>
    <path d="M 419.0,649.0 L 445.0,670.0 L 452.0,685.0 L 480.0,818.0"/>
    <path d="M 472.0,651.0 L 486.0,661.0 L 591.0,644.0 L 645.0,629.0 L 669.0,632.0 L 690.0,645.0 L 701.0,660.0 L 677.0,719.0 L 654.0,735.0"/>
    <path d="M 500.0,793.0 L 514.0,781.0 L 643.0,760.0 L 681.0,760.0 L 702.0,767.0"/>
    <path d="M 423.0,838.0 L 480.0,886.0 L 499.0,926.0"/>
    <path d="M 654.0,788.0 L 670.0,801.0 L 680.0,828.0 L 633.0,922.0 L 603.0,951.0"/>
    <path d="M 322.0,988.0 L 378.0,998.0 L 508.0,981.0 L 761.0,963.0 L 812.0,968.0 L 858.0,985.0"/>
  </g>
</svg>
