<svg xmlns="http://www.w3.org/2000/svg" viewBox="0 0 1024 1024">
  <g style="fill:none;stroke:#000000;stroke-width:50;stroke-linecap:round;stroke-linejoin:round;" transform="scale(1, 1) translate(0, 0)">
    <path d="M 89.0,447.0 L 117.0,480.0 L 152.0,703.0"/>
    <path d="M 143.0,473.0 L 167.0,456.0 L 254.0,428.0 L 268.0,429.0 L 287.0,443.0 L 295.0,452.0 L 294.0,464.0 L 274.0,559.0 L 253.0,574.0"/>
    <path d="M 169.0,630.0 L 183.0,618.0 L 250.0,601.0 L 303.0,603.0"/>
    <path d="M 356.0,321.0 L 380.0,338.0 L 391.0,358.0 L 436.0,522.0"/>
    <path d="M 406.0,322.0 L 429.0,330.0 L 574.0,297.0 L 662.0,286.0 L 691.0,275.0 L 735.0,274.0 L 759.0,281.0 L 784.0,319.0 L 720.0,479.0"/>
    <path d="M 463.0,409.0 L 500.0,406.0 L 654.0,368.0 L 685.0,371.0"/>
    <path d="M 471.0,218.0 L 508.0,256.0 L 522.0,455.0 L 510.0,472.0"/>
    <path d="M 607.0,166.0 L 643.0,200.0 L 618.0,433.0 L 602.0,455.0"/>
    <path d="M 454.0,509.0 L 460.0,502.0 L 698.0,455.0"/>
    <path d="M 445.0,597.0 L 470.0,608.0 L 512.0,605.0 L 699.0,561.0 L 753.0,558.0"/>
    <path d="M 387.0,577.0 L 404.0,592.0 L 417.0,627.0 L 378.0,773.0 L 352.0,840.0 L 319.0,908.0 L 280.0,968.0 L 243.0,1013.0 L 195.0,1056.0"/>
    <path d="M 488.0,682.0 L 536.0,686.0 L 651.0,659.0 L 697.0,658.0"/>
    <path d="M 409.0,784.0 L 430.0,788.0 L 583.0,754.0 L 739.0,731.0 L 804.0,741.0"/>
    <path d="M 438.0,810.0 L 465.0,824.0 L 469.0,833.0 L 462.0,969.0 L 471.0,1005.0 L 521.0,983.0 L 559.0,952.0 L 573.0,948.0 L 579.0,935.0 L 589.0,935.0 L 597.0,927.0"/>
    <path d="M 729.0,776.0 L 743.0,805.0 L 681.0,863.0 L 671.0,861.0"/>
    <path d="M 534.0,788.0 L 567.0,799.0 L 697.0,924.0 L 790.0,989.0 L 863.0,1003.0 L 975.0,1011.0"/>
  </g>
</svg>
