<svg xmlns="http://www.w3.org/2000/svg" viewBox="0 0 1024 1024">
  <g style="fill:none;stroke:#000000;stroke-width:50;stroke-linecap:round;stroke-linejoin:round;" transform="scale(1, 1) translate(0, 0)">
    <path d="M 83.0,440.0 L 113.0,474.0 L 149.0,681.0"/>
    <path d="M 135.0,446.0 L 147.0,451.0 L 259.0,419.0 L 276.0,421.0 L 294.0,435.0 L 301.0,444.0 L 278.0,562.0 L 256.0,574.0"/>
    <path d="M 169.0,640.0 L 185.0,624.0 L 257.0,606.0 L 299.0,603.0 L 316.0,608.0"/>
    <path d="M 545.0,171.0 L 578.0,202.0 L 526.0,294.0 L 478.0,358.0"/>
    <path d="M 403.0,351.0 L 428.0,376.0 L 436.0,403.0 L 438.0,523.0 L 424.0,646.0 L 427.0,692.0"/>
    <path d="M 453.0,362.0 L 474.0,374.0 L 515.0,370.0 L 719.0,327.0 L 754.0,339.0 L 776.0,370.0 L 769.0,465.0 L 772.0,600.0 L 763.0,672.0"/>
    <path d="M 498.0,437.0 L 532.0,479.0"/>
    <path d="M 686.0,394.0 L 697.0,412.0 L 657.0,453.0 L 657.0,460.0"/>
    <path d="M 487.0,538.0 L 548.0,533.0 L 652.0,510.0 L 693.0,511.0"/>
    <path d="M 574.0,403.0 L 600.0,431.0 L 593.0,578.0 L 599.0,654.0"/>
    <path d="M 575.0,547.0 L 537.0,595.0 L 486.0,633.0"/>
    <path d="M 644.0,572.0 L 688.0,597.0 L 705.0,623.0"/>
    <path d="M 290.0,795.0 L 341.0,805.0 L 544.0,777.0 L 833.0,751.0 L 914.0,770.0"/>
    <path d="M 532.0,697.0 L 569.0,727.0 L 550.0,823.0 L 531.0,869.0 L 507.0,905.0 L 471.0,941.0 L 424.0,971.0 L 384.0,989.0 L 303.0,1006.0"/>
    <path d="M 586.0,803.0 L 593.0,821.0 L 649.0,876.0 L 773.0,974.0 L 860.0,995.0 L 946.0,1006.0"/>
  </g>
</svg>
