<svg xmlns="http://www.w3.org/2000/svg" viewBox="0 0 1024 1024">
  <g style="fill:none;stroke:#000000;stroke-width:50;stroke-linecap:round;stroke-linejoin:round;" transform="scale(1, 1) translate(0, 0)">
    <path d="M 63.0,436.0 L 93.0,469.0 L 125.0,669.0"/>
    <path d="M 112.0,439.0 L 125.0,444.0 L 218.0,419.0 L 231.0,419.0 L 249.0,432.0 L 258.0,442.0 L 241.0,534.0 L 221.0,554.0"/>
    <path d="M 141.0,589.0 L 153.0,598.0 L 216.0,581.0 L 265.0,584.0"/>
    <path d="M 719.0,231.0 L 654.0,221.0 L 586.0,264.0 L 491.0,306.0 L 419.0,330.0"/>
    <path d="M 415.0,377.0 L 462.0,407.0 L 481.0,430.0"/>
    <path d="M 543.0,339.0 L 587.0,381.0 L 596.0,401.0"/>
    <path d="M 732.0,281.0 L 752.0,313.0 L 666.0,409.0"/>
    <path d="M 344.0,479.0 L 356.0,507.0 L 355.0,524.0 L 336.0,572.0 L 325.0,628.0"/>
    <path d="M 384.0,509.0 L 396.0,516.0 L 442.0,509.0 L 580.0,474.0 L 794.0,441.0 L 819.0,449.0 L 838.0,474.0 L 779.0,543.0"/>
    <path d="M 431.0,586.0 L 421.0,631.0 L 395.0,696.0"/>
    <path d="M 477.0,605.0 L 503.0,649.0 L 529.0,676.0 L 577.0,696.0 L 617.0,701.0 L 676.0,695.0 L 705.0,677.0 L 668.0,613.0"/>
    <path d="M 524.0,553.0 L 578.0,577.0 L 599.0,605.0"/>
    <path d="M 667.0,529.0 L 728.0,560.0 L 757.0,592.0"/>
    <path d="M 526.0,744.0 L 496.0,754.0 L 426.0,862.0 L 363.0,928.0 L 293.0,981.0"/>
    <path d="M 514.0,793.0 L 647.0,767.0 L 667.0,779.0 L 678.0,797.0 L 656.0,864.0 L 637.0,901.0 L 577.0,973.0 L 519.0,1007.0 L 460.0,1028.0 L 345.0,1047.0"/>
    <path d="M 469.0,848.0 L 485.0,846.0 L 519.0,868.0 L 670.0,996.0 L 779.0,1057.0 L 929.0,1055.0"/>
  </g>
</svg>
