<svg xmlns="http://www.w3.org/2000/svg" viewBox="0 0 1024 1024">
  <g style="fill:none;stroke:#000000;stroke-width:50;stroke-linecap:round;stroke-linejoin:round;" transform="scale(1, 1) translate(0, 0)">
    <path d="M 88.0,453.0 L 107.0,469.0 L 119.0,490.0 L 153.0,669.0"/>
    <path d="M 139.0,453.0 L 150.0,460.0 L 249.0,428.0 L 262.0,431.0 L 286.0,450.0 L 265.0,549.0 L 246.0,567.0"/>
    <path d="M 169.0,621.0 L 183.0,607.0 L 237.0,592.0 L 278.0,586.0 L 302.0,591.0"/>
    <path d="M 448.0,233.0 L 475.0,254.0 L 483.0,272.0 L 520.0,398.0"/>
    <path d="M 503.0,238.0 L 515.0,245.0 L 655.0,217.0 L 686.0,227.0 L 704.0,247.0 L 680.0,309.0 L 657.0,325.0"/>
    <path d="M 535.0,376.0 L 551.0,365.0 L 645.0,348.0 L 685.0,347.0 L 707.0,354.0"/>
    <path d="M 337.0,468.0 L 366.0,495.0 L 396.0,623.0"/>
    <path d="M 388.0,472.0 L 397.0,478.0 L 449.0,466.0 L 477.0,453.0 L 510.0,455.0 L 524.0,472.0 L 523.0,484.0 L 507.0,543.0 L 490.0,554.0"/>
    <path d="M 412.0,602.0 L 472.0,579.0 L 529.0,581.0"/>
    <path d="M 597.0,435.0 L 626.0,466.0 L 652.0,579.0"/>
    <path d="M 644.0,442.0 L 678.0,443.0 L 760.0,425.0 L 782.0,429.0 L 798.0,450.0 L 796.0,461.0 L 781.0,504.0 L 759.0,518.0"/>
    <path d="M 668.0,565.0 L 678.0,556.0 L 745.0,543.0 L 787.0,543.0 L 807.0,550.0"/>
    <path d="M 266.0,732.0 L 322.0,739.0 L 614.0,694.0 L 845.0,671.0 L 883.0,676.0 L 920.0,689.0"/>
    <path d="M 548.0,609.0 L 575.0,643.0 L 577.0,668.0 L 575.0,870.0 L 566.0,985.0 L 578.0,1053.0"/>
    <path d="M 546.0,726.0 L 486.0,804.0 L 428.0,855.0 L 334.0,915.0 L 249.0,949.0"/>
    <path d="M 602.0,720.0 L 608.0,721.0 L 616.0,746.0 L 628.0,757.0 L 790.0,892.0 L 867.0,911.0 L 979.0,923.0"/>
  </g>
</svg>
