<svg xmlns="http://www.w3.org/2000/svg" viewBox="0 0 1024 1024">
  <g style="fill:none;stroke:#000000;stroke-width:50;stroke-linecap:round;stroke-linejoin:round;" transform="scale(1, 1) translate(0, 0)">
    <path d="M 75.0,416.0 L 100.0,439.0 L 108.0,460.0 L 141.0,653.0"/>
    <path d="M 134.0,435.0 L 156.0,421.0 L 232.0,399.0 L 247.0,403.0 L 271.0,424.0 L 253.0,514.0 L 229.0,534.0"/>
    <path d="M 159.0,595.0 L 169.0,579.0 L 211.0,566.0 L 281.0,565.0"/>
    <path d="M 538.0,167.0 L 607.0,199.0 L 638.0,235.0"/>
    <path d="M 390.0,289.0 L 401.0,313.0 L 399.0,335.0 L 372.0,400.0 L 371.0,443.0"/>
    <path d="M 428.0,316.0 L 440.0,325.0 L 467.0,323.0 L 656.0,284.0 L 811.0,267.0 L 836.0,277.0 L 854.0,302.0 L 791.0,371.0"/>
    <path d="M 447.0,410.0 L 437.0,455.0 L 407.0,524.0"/>
    <path d="M 488.0,429.0 L 527.0,468.0 L 576.0,493.0 L 622.0,503.0 L 673.0,502.0 L 704.0,487.0 L 704.0,480.0 L 651.0,395.0"/>
    <path d="M 539.0,365.0 L 584.0,398.0 L 595.0,416.0"/>
    <path d="M 700.0,369.0 L 751.0,398.0 L 771.0,425.0"/>
    <path d="M 397.0,596.0 L 424.0,621.0 L 454.0,716.0 L 465.0,725.0"/>
    <path d="M 444.0,597.0 L 455.0,606.0 L 468.0,607.0 L 667.0,564.0 L 738.0,557.0 L 753.0,566.0 L 767.0,588.0 L 747.0,662.0 L 724.0,684.0"/>
    <path d="M 532.0,617.0 L 538.0,670.0 L 548.0,702.0 L 557.0,710.0"/>
    <path d="M 632.0,595.0 L 654.0,616.0 L 633.0,693.0 L 621.0,702.0"/>
    <path d="M 292.0,760.0 L 343.0,767.0 L 587.0,725.0 L 848.0,694.0 L 917.0,710.0"/>
    <path d="M 388.0,841.0 L 431.0,847.0 L 568.0,821.0 L 744.0,800.0 L 817.0,813.0"/>
    <path d="M 598.0,839.0 L 624.0,861.0 L 628.0,879.0 L 626.0,992.0 L 612.0,1035.0 L 603.0,1047.0 L 592.0,1044.0 L 511.0,1005.0"/>
  </g>
</svg>
