<svg xmlns="http://www.w3.org/2000/svg" viewBox="0 0 1024 1024">
  <g style="fill:none;stroke:#000000;stroke-width:50;stroke-linecap:round;stroke-linejoin:round;" transform="scale(1, 1) translate(0, 0)">
    <path d="M 69.0,435.0 L 96.0,467.0 L 125.0,671.0"/>
    <path d="M 122.0,461.0 L 132.0,449.0 L 220.0,421.0 L 238.0,422.0 L 255.0,435.0 L 261.0,443.0 L 243.0,534.0 L 239.0,546.0 L 223.0,553.0"/>
    <path d="M 145.0,619.0 L 161.0,602.0 L 217.0,586.0 L 273.0,588.0"/>
    <path d="M 391.0,369.0 L 403.0,374.0 L 483.0,350.0 L 506.0,349.0 L 516.0,351.0 L 536.0,371.0 L 512.0,453.0 L 487.0,470.0"/>
    <path d="M 376.0,530.0 L 391.0,517.0 L 487.0,496.0 L 524.0,493.0 L 547.0,500.0"/>
    <path d="M 331.0,354.0 L 362.0,396.0 L 349.0,539.0 L 332.0,629.0 L 280.0,772.0 L 231.0,857.0 L 176.0,923.0"/>
    <path d="M 356.0,650.0 L 389.0,859.0"/>
    <path d="M 388.0,653.0 L 397.0,660.0 L 494.0,634.0 L 522.0,647.0 L 532.0,659.0 L 511.0,737.0 L 487.0,754.0"/>
    <path d="M 407.0,807.0 L 417.0,796.0 L 487.0,780.0 L 524.0,778.0 L 548.0,784.0"/>
    <path d="M 649.0,207.0 L 730.0,255.0 L 751.0,287.0"/>
    <path d="M 605.0,371.0 L 658.0,376.0 L 841.0,337.0 L 874.0,341.0"/>
    <path d="M 614.0,443.0 L 647.0,490.0 L 656.0,513.0"/>
    <path d="M 758.0,381.0 L 781.0,401.0 L 787.0,415.0 L 739.0,530.0 L 720.0,550.0"/>
    <path d="M 576.0,589.0 L 625.0,592.0 L 848.0,550.0 L 899.0,552.0 L 931.0,561.0"/>
    <path d="M 587.0,738.0 L 623.0,747.0 L 822.0,716.0 L 875.0,723.0"/>
    <path d="M 679.0,603.0 L 718.0,634.0 L 710.0,1066.0"/>
  </g>
</svg>
