<svg xmlns="http://www.w3.org/2000/svg" viewBox="0 0 1024 1024">
  <g style="fill:none;stroke:#000000;stroke-width:50;stroke-linecap:round;stroke-linejoin:round;" transform="scale(1, 1) translate(0, 0)">
    <path d="M 83.0,440.0 L 112.0,475.0 L 141.0,665.0"/>
    <path d="M 120.0,440.0 L 149.0,444.0 L 246.0,416.0 L 260.0,420.0 L 282.0,440.0 L 261.0,542.0 L 239.0,559.0"/>
    <path d="M 157.0,617.0 L 170.0,607.0 L 234.0,585.0 L 293.0,584.0"/>
    <path d="M 482.0,265.0 L 558.0,271.0 L 716.0,236.0 L 764.0,238.0"/>
    <path d="M 398.0,374.0 L 406.0,387.0 L 407.0,418.0 L 378.0,487.0 L 377.0,533.0"/>
    <path d="M 433.0,399.0 L 448.0,407.0 L 470.0,407.0 L 721.0,353.0 L 807.0,345.0 L 840.0,360.0 L 849.0,381.0 L 793.0,453.0"/>
    <path d="M 575.0,295.0 L 606.0,320.0 L 598.0,609.0"/>
    <path d="M 460.0,485.0 L 496.0,497.0 L 518.0,512.0"/>
    <path d="M 444.0,566.0 L 486.0,585.0 L 505.0,602.0"/>
    <path d="M 685.0,452.0 L 736.0,470.0 L 754.0,484.0"/>
    <path d="M 678.0,537.0 L 731.0,561.0 L 745.0,574.0"/>
    <path d="M 466.0,684.0 L 486.0,690.0 L 539.0,690.0 L 707.0,657.0 L 754.0,661.0"/>
    <path d="M 582.0,733.0 L 558.0,735.0 L 522.0,786.0"/>
    <path d="M 349.0,814.0 L 374.0,838.0 L 386.0,864.0 L 400.0,990.0 L 413.0,1028.0"/>
    <path d="M 396.0,823.0 L 422.0,835.0 L 586.0,799.0 L 726.0,781.0 L 800.0,775.0 L 841.0,778.0 L 871.0,813.0 L 859.0,862.0 L 850.0,954.0 L 839.0,992.0 L 824.0,1013.0 L 736.0,968.0"/>
    <path d="M 508.0,839.0 L 528.0,855.0 L 530.0,994.0"/>
    <path d="M 632.0,808.0 L 663.0,837.0 L 655.0,1021.0"/>
  </g>
</svg>
