<svg xmlns="http://www.w3.org/2000/svg" viewBox="0 0 1024 1024">
  <g style="fill:none;stroke:#000000;stroke-width:50;stroke-linecap:round;stroke-linejoin:round;" transform="scale(1, 1) translate(0, 0)">
    <path d="M 77.0,455.0 L 104.0,487.0 L 137.0,707.0"/>
    <path d="M 129.0,481.0 L 140.0,469.0 L 231.0,441.0 L 253.0,444.0 L 273.0,463.0 L 248.0,572.0 L 225.0,589.0"/>
    <path d="M 152.0,644.0 L 161.0,631.0 L 216.0,615.0 L 261.0,611.0 L 284.0,616.0"/>
    <path d="M 505.0,163.0 L 586.0,207.0 L 604.0,233.0"/>
    <path d="M 397.0,313.0 L 419.0,319.0 L 467.0,317.0 L 717.0,264.0 L 755.0,262.0"/>
    <path d="M 420.0,389.0 L 444.0,406.0 L 454.0,422.0 L 480.0,518.0"/>
    <path d="M 468.0,394.0 L 489.0,397.0 L 609.0,360.0 L 635.0,359.0 L 663.0,385.0 L 646.0,425.0 L 618.0,440.0"/>
    <path d="M 497.0,502.0 L 513.0,490.0 L 618.0,468.0 L 654.0,465.0 L 677.0,471.0"/>
    <path d="M 338.0,558.0 L 349.0,590.0 L 349.0,609.0 L 321.0,681.0 L 319.0,710.0"/>
    <path d="M 380.0,592.0 L 390.0,600.0 L 407.0,600.0 L 583.0,557.0 L 733.0,531.0 L 772.0,531.0 L 797.0,544.0 L 811.0,563.0 L 749.0,644.0"/>
    <path d="M 399.0,670.0 L 456.0,671.0 L 498.0,664.0 L 570.0,639.0 L 607.0,632.0 L 628.0,635.0"/>
    <path d="M 502.0,708.0 L 477.0,712.0 L 394.0,783.0 L 333.0,813.0"/>
    <path d="M 480.0,748.0 L 497.0,747.0 L 529.0,764.0 L 574.0,802.0 L 604.0,851.0 L 611.0,900.0 L 594.0,992.0 L 562.0,1045.0 L 556.0,1049.0 L 462.0,1007.0"/>
    <path d="M 533.0,790.0 L 502.0,793.0 L 462.0,832.0 L 404.0,872.0 L 335.0,906.0"/>
    <path d="M 555.0,814.0 L 554.0,850.0 L 508.0,899.0 L 430.0,961.0 L 327.0,1011.0"/>
    <path d="M 736.0,718.0 L 702.0,707.0 L 608.0,790.0 L 609.0,797.0"/>
    <path d="M 619.0,823.0 L 658.0,869.0 L 788.0,955.0 L 831.0,964.0 L 956.0,970.0"/>
  </g>
</svg>
