<svg xmlns="http://www.w3.org/2000/svg" viewBox="0 0 1024 1024">
  <g style="fill:none;stroke:#000000;stroke-width:50;stroke-linecap:round;stroke-linejoin:round;" transform="scale(1, 1) translate(0, 0)">
    <path d="M 61.0,463.0 L 80.0,481.0 L 91.0,507.0 L 117.0,691.0"/>
    <path d="M 106.0,470.0 L 124.0,474.0 L 214.0,442.0 L 229.0,445.0 L 250.0,464.0 L 230.0,568.0 L 207.0,587.0"/>
    <path d="M 135.0,641.0 L 144.0,627.0 L 208.0,610.0 L 264.0,610.0"/>
    <path d="M 396.0,199.0 L 456.0,237.0 L 477.0,272.0"/>
    <path d="M 347.0,366.0 L 407.0,366.0 L 531.0,330.0 L 577.0,326.0"/>
    <path d="M 351.0,425.0 L 393.0,462.0 L 403.0,481.0"/>
    <path d="M 496.0,366.0 L 514.0,381.0 L 518.0,392.0 L 492.0,462.0 L 465.0,504.0"/>
    <path d="M 292.0,551.0 L 320.0,558.0 L 342.0,555.0 L 542.0,503.0 L 601.0,501.0"/>
    <path d="M 324.0,625.0 L 345.0,646.0 L 349.0,659.0 L 352.0,717.0 L 341.0,860.0 L 318.0,976.0 L 316.0,1014.0"/>
    <path d="M 377.0,649.0 L 382.0,641.0 L 474.0,612.0 L 490.0,618.0 L 510.0,638.0 L 507.0,761.0 L 513.0,950.0 L 508.0,981.0 L 493.0,1005.0 L 414.0,975.0"/>
    <path d="M 373.0,750.0 L 381.0,738.0 L 396.0,734.0 L 446.0,732.0"/>
    <path d="M 362.0,836.0 L 393.0,819.0 L 449.0,820.0"/>
    <path d="M 710.0,327.0 L 825.0,299.0 L 854.0,299.0"/>
    <path d="M 658.0,196.0 L 677.0,208.0 L 693.0,229.0 L 670.0,451.0 L 715.0,450.0 L 770.0,432.0 L 802.0,435.0 L 815.0,452.0 L 798.0,504.0 L 793.0,517.0 L 770.0,529.0"/>
    <path d="M 668.0,571.0 L 680.0,577.0 L 758.0,559.0 L 799.0,557.0 L 819.0,562.0"/>
    <path d="M 614.0,555.0 L 633.0,574.0 L 641.0,594.0 L 631.0,751.0 L 634.0,884.0 L 652.0,956.0 L 674.0,989.0 L 712.0,1008.0 L 762.0,1017.0 L 844.0,1010.0 L 879.0,998.0 L 913.0,970.0 L 916.0,852.0"/>
    <path d="M 662.0,694.0 L 672.0,685.0 L 771.0,666.0 L 801.0,666.0"/>
    <path d="M 657.0,782.0 L 664.0,776.0 L 758.0,761.0 L 799.0,762.0"/>
    <path d="M 658.0,864.0 L 666.0,871.0 L 779.0,856.0 L 808.0,858.0"/>
  </g>
</svg>
