<svg xmlns="http://www.w3.org/2000/svg" viewBox="0 0 1024 1024">
  <g style="fill:none;stroke:#000000;stroke-width:50;stroke-linecap:round;stroke-linejoin:round;" transform="scale(1, 1) translate(0, 0)">
    <path d="M 76.0,447.0 L 100.0,468.0 L 110.0,490.0 L 140.0,700.0"/>
    <path d="M 129.0,455.0 L 145.0,458.0 L 242.0,432.0 L 271.0,449.0 L 276.0,465.0 L 257.0,559.0 L 234.0,577.0"/>
    <path d="M 159.0,634.0 L 173.0,619.0 L 227.0,606.0 L 278.0,602.0 L 301.0,609.0"/>
    <path d="M 481.0,259.0 L 490.0,264.0 L 550.0,266.0 L 695.0,235.0 L 748.0,236.0"/>
    <path d="M 387.0,351.0 L 399.0,379.0 L 398.0,397.0 L 368.0,481.0 L 366.0,510.0"/>
    <path d="M 425.0,383.0 L 439.0,391.0 L 466.0,391.0 L 668.0,347.0 L 783.0,331.0 L 814.0,342.0 L 833.0,366.0 L 774.0,433.0"/>
    <path d="M 567.0,286.0 L 595.0,311.0 L 593.0,529.0"/>
    <path d="M 462.0,448.0 L 500.0,461.0 L 521.0,477.0"/>
    <path d="M 457.0,513.0 L 517.0,550.0"/>
    <path d="M 665.0,420.0 L 723.0,443.0 L 737.0,456.0"/>
    <path d="M 665.0,493.0 L 708.0,512.0 L 736.0,535.0"/>
    <path d="M 523.0,617.0 L 495.0,624.0 L 428.0,720.0 L 366.0,783.0 L 299.0,837.0 L 245.0,870.0"/>
    <path d="M 448.0,739.0 L 460.0,789.0 L 457.0,894.0 L 445.0,1005.0 L 451.0,1063.0"/>
    <path d="M 602.0,558.0 L 655.0,587.0 L 671.0,611.0"/>
    <path d="M 544.0,681.0 L 601.0,685.0 L 743.0,653.0 L 792.0,651.0"/>
    <path d="M 551.0,793.0 L 579.0,792.0 L 728.0,758.0 L 760.0,755.0 L 780.0,760.0"/>
    <path d="M 540.0,885.0 L 569.0,885.0 L 729.0,850.0 L 762.0,847.0 L 783.0,853.0"/>
    <path d="M 639.0,700.0 L 664.0,721.0 L 666.0,739.0 L 661.0,926.0 L 646.0,944.0"/>
    <path d="M 486.0,978.0 L 495.0,986.0 L 529.0,988.0 L 792.0,955.0 L 838.0,960.0 L 869.0,972.0"/>
  </g>
</svg>
