<svg xmlns="http://www.w3.org/2000/svg" viewBox="0 0 1024 1024">
  <g style="fill:none;stroke:#000000;stroke-width:50;stroke-linecap:round;stroke-linejoin:round;" transform="scale(1, 1) translate(0, 0)">
    <path d="M 89.0,465.0 L 115.0,487.0 L 121.0,505.0 L 156.0,683.0"/>
    <path d="M 146.0,489.0 L 162.0,477.0 L 230.0,458.0 L 265.0,458.0 L 285.0,478.0 L 269.0,561.0 L 263.0,575.0 L 247.0,588.0"/>
    <path d="M 174.0,635.0 L 188.0,624.0 L 246.0,613.0 L 278.0,611.0 L 299.0,617.0"/>
    <path d="M 516.0,170.0 L 585.0,206.0 L 613.0,241.0"/>
    <path d="M 383.0,320.0 L 421.0,327.0 L 694.0,281.0 L 755.0,284.0"/>
    <path d="M 359.0,400.0 L 387.0,428.0 L 408.0,515.0"/>
    <path d="M 409.0,414.0 L 431.0,401.0 L 505.0,387.0 L 528.0,405.0 L 519.0,443.0 L 501.0,458.0"/>
    <path d="M 420.0,485.0 L 435.0,490.0 L 528.0,477.0 L 548.0,482.0"/>
    <path d="M 584.0,351.0 L 609.0,375.0 L 629.0,472.0"/>
    <path d="M 633.0,368.0 L 673.0,354.0 L 743.0,341.0 L 762.0,361.0 L 746.0,405.0 L 733.0,409.0"/>
    <path d="M 643.0,456.0 L 714.0,438.0 L 771.0,444.0"/>
    <path d="M 392.0,580.0 L 413.0,586.0 L 471.0,585.0 L 699.0,540.0 L 754.0,536.0"/>
    <path d="M 392.0,674.0 L 449.0,672.0 L 677.0,632.0 L 710.0,630.0 L 732.0,636.0"/>
    <path d="M 451.0,529.0 L 484.0,562.0 L 494.0,723.0 L 484.0,731.0"/>
    <path d="M 612.0,493.0 L 641.0,522.0 L 626.0,689.0 L 614.0,711.0"/>
    <path d="M 312.0,773.0 L 356.0,778.0 L 566.0,736.0 L 778.0,707.0 L 814.0,708.0 L 857.0,719.0"/>
    <path d="M 518.0,781.0 L 479.0,799.0 L 410.0,874.0 L 360.0,913.0 L 305.0,950.0 L 248.0,977.0"/>
    <path d="M 457.0,871.0 L 464.0,928.0 L 459.0,977.0 L 466.0,1013.0 L 505.0,1000.0 L 555.0,965.0 L 571.0,960.0 L 575.0,949.0 L 595.0,942.0"/>
    <path d="M 768.0,807.0 L 737.0,797.0 L 684.0,848.0 L 670.0,858.0 L 664.0,856.0"/>
    <path d="M 526.0,796.0 L 539.0,793.0 L 555.0,801.0 L 684.0,915.0 L 773.0,974.0 L 824.0,992.0 L 942.0,990.0"/>
  </g>
</svg>
