<svg xmlns="http://www.w3.org/2000/svg" viewBox="0 0 1024 1024">
  <g style="fill:none;stroke:#000000;stroke-width:50;stroke-linecap:round;stroke-linejoin:round;" transform="scale(1, 1) translate(0, 0)">
    <path d="M 72.0,415.0 L 97.0,438.0 L 105.0,459.0 L 140.0,639.0"/>
    <path d="M 126.0,435.0 L 149.0,420.0 L 218.0,398.0 L 235.0,396.0 L 255.0,407.0 L 266.0,418.0 L 249.0,496.0 L 244.0,508.0 L 228.0,520.0"/>
    <path d="M 156.0,572.0 L 162.0,563.0 L 212.0,547.0 L 273.0,546.0"/>
    <path d="M 474.0,215.0 L 494.0,223.0 L 513.0,241.0 L 539.0,355.0"/>
    <path d="M 332.0,309.0 L 376.0,320.0 L 559.0,283.0"/>
    <path d="M 687.0,160.0 L 706.0,197.0 L 668.0,286.0 L 628.0,352.0"/>
    <path d="M 695.0,280.0 L 810.0,261.0 L 837.0,263.0 L 871.0,275.0"/>
    <path d="M 344.0,441.0 L 396.0,442.0 L 508.0,413.0 L 544.0,412.0"/>
    <path d="M 432.0,362.0 L 458.0,392.0 L 456.0,461.0 L 445.0,486.0"/>
    <path d="M 311.0,527.0 L 350.0,532.0 L 504.0,491.0 L 564.0,487.0"/>
    <path d="M 361.0,554.0 L 375.0,571.0 L 360.0,593.0 L 321.0,630.0 L 291.0,648.0"/>
    <path d="M 526.0,536.0 L 576.0,569.0 L 590.0,591.0"/>
    <path d="M 358.0,649.0 L 407.0,648.0 L 496.0,622.0 L 529.0,620.0"/>
    <path d="M 436.0,570.0 L 454.0,597.0 L 453.0,678.0 L 440.0,699.0"/>
    <path d="M 264.0,754.0 L 312.0,765.0 L 570.0,675.0"/>
    <path d="M 683.0,345.0 L 707.0,377.0 L 700.0,464.0 L 686.0,536.0 L 655.0,615.0 L 606.0,682.0"/>
    <path d="M 600.0,471.0 L 638.0,474.0 L 727.0,445.0 L 754.0,430.0 L 795.0,425.0 L 809.0,437.0 L 787.0,521.0 L 787.0,580.0 L 810.0,652.0 L 837.0,681.0 L 859.0,694.0 L 886.0,704.0 L 916.0,705.0 L 936.0,696.0 L 923.0,602.0"/>
    <path d="M 618.0,549.0 L 696.0,598.0 L 719.0,634.0"/>
    <path d="M 485.0,757.0 L 550.0,761.0 L 663.0,738.0 L 711.0,738.0"/>
    <path d="M 364.0,873.0 L 406.0,879.0 L 585.0,842.0 L 781.0,816.0 L 853.0,829.0"/>
    <path d="M 573.0,895.0 L 540.0,899.0 L 509.0,940.0 L 466.0,979.0 L 447.0,1019.0 L 499.0,1017.0 L 709.0,975.0 L 721.0,984.0"/>
    <path d="M 675.0,900.0 L 782.0,998.0 L 802.0,1028.0 L 809.0,1065.0"/>
  </g>
</svg>
