<svg xmlns="http://www.w3.org/2000/svg" viewBox="0 0 1024 1024">
  <g style="fill:none;stroke:#000000;stroke-width:50;stroke-linecap:round;stroke-linejoin:round;" transform="scale(1, 1) translate(0, 0)">
    <path d="M 244.0,246.0 L 274.0,266.0 L 312.0,378.0"/>
    <path d="M 303.0,247.0 L 310.0,254.0 L 417.0,226.0 L 441.0,225.0 L 464.0,248.0 L 448.0,297.0 L 422.0,319.0"/>
    <path d="M 328.0,367.0 L 342.0,358.0 L 424.0,340.0 L 460.0,335.0 L 481.0,341.0"/>
    <path d="M 543.0,212.0 L 570.0,239.0 L 597.0,351.0"/>
    <path d="M 591.0,230.0 L 616.0,218.0 L 709.0,194.0 L 735.0,194.0 L 757.0,218.0 L 755.0,228.0 L 736.0,271.0 L 711.0,286.0"/>
    <path d="M 612.0,332.0 L 626.0,321.0 L 710.0,308.0 L 764.0,312.0"/>
    <path d="M 232.0,449.0 L 279.0,455.0 L 457.0,423.0 L 717.0,394.0 L 786.0,409.0"/>
    <path d="M 487.0,455.0 L 456.0,464.0 L 435.0,497.0 L 420.0,502.0"/>
    <path d="M 312.0,513.0 L 323.0,523.0 L 336.0,553.0 L 339.0,619.0 L 331.0,720.0 L 337.0,768.0"/>
    <path d="M 351.0,523.0 L 367.0,530.0 L 414.0,525.0 L 587.0,488.0 L 608.0,489.0 L 629.0,499.0 L 654.0,526.0 L 643.0,756.0"/>
    <path d="M 362.0,609.0 L 373.0,599.0 L 387.0,601.0 L 400.0,594.0 L 501.0,578.0 L 549.0,573.0 L 565.0,579.0"/>
    <path d="M 363.0,681.0 L 368.0,671.0 L 461.0,656.0 L 557.0,645.0 L 573.0,651.0"/>
    <path d="M 358.0,751.0 L 371.0,741.0 L 555.0,720.0 L 600.0,718.0 L 610.0,729.0"/>
    <path d="M 430.0,784.0 L 400.0,788.0 L 336.0,844.0 L 230.0,913.0 L 115.0,958.0"/>
    <path d="M 645.0,787.0 L 826.0,862.0 L 870.0,889.0 L 898.0,922.0"/>
    <path d="M 255.0,923.0 L 276.0,931.0 L 283.0,943.0 L 313.0,1071.0"/>
    <path d="M 308.0,934.0 L 317.0,926.0 L 397.0,904.0 L 420.0,902.0 L 428.0,907.0 L 442.0,925.0 L 421.0,988.0 L 402.0,997.0"/>
    <path d="M 327.0,1050.0 L 337.0,1040.0 L 392.0,1027.0 L 448.0,1030.0"/>
    <path d="M 515.0,895.0 L 536.0,912.0 L 545.0,935.0 L 569.0,1051.0"/>
    <path d="M 558.0,896.0 L 571.0,904.0 L 668.0,882.0 L 698.0,886.0 L 715.0,905.0 L 713.0,916.0 L 695.0,971.0 L 673.0,989.0"/>
    <path d="M 583.0,1032.0 L 615.0,1018.0 L 673.0,1010.0 L 726.0,1015.0"/>
  </g>
</svg>
