<svg xmlns="http://www.w3.org/2000/svg" viewBox="0 0 1024 1024">
  <g style="fill:none;stroke:#000000;stroke-width:50;stroke-linecap:round;stroke-linejoin:round;" transform="scale(1, 1) translate(0, 0)">
    <path d="M 53.0,456.0 L 81.0,489.0 L 112.0,675.0"/>
    <path d="M 106.0,475.0 L 126.0,461.0 L 204.0,439.0 L 232.0,452.0 L 241.0,463.0 L 217.0,574.0 L 231.0,588.0"/>
    <path d="M 132.0,637.0 L 146.0,624.0 L 194.0,612.0 L 244.0,614.0"/>
    <path d="M 461.0,223.0 L 497.0,247.0 L 528.0,406.0"/>
    <path d="M 323.0,334.0 L 376.0,342.0 L 562.0,292.0"/>
    <path d="M 665.0,170.0 L 681.0,179.0 L 700.0,206.0 L 669.0,328.0 L 642.0,400.0"/>
    <path d="M 642.0,278.0 L 701.0,286.0 L 803.0,274.0 L 841.0,278.0 L 873.0,292.0"/>
    <path d="M 435.0,411.0 L 409.0,422.0 L 370.0,488.0 L 311.0,546.0"/>
    <path d="M 413.0,472.0 L 474.0,460.0 L 505.0,468.0 L 457.0,552.0 L 432.0,571.0"/>
    <path d="M 283.0,603.0 L 310.0,634.0 L 345.0,794.0"/>
    <path d="M 327.0,605.0 L 338.0,612.0 L 507.0,571.0 L 527.0,571.0 L 542.0,580.0 L 558.0,599.0 L 529.0,723.0 L 515.0,758.0 L 518.0,774.0"/>
    <path d="M 371.0,684.0 L 452.0,664.0 L 481.0,665.0"/>
    <path d="M 404.0,611.0 L 422.0,626.0 L 424.0,636.0 L 423.0,725.0 L 411.0,738.0"/>
    <path d="M 361.0,779.0 L 377.0,767.0 L 488.0,741.0"/>
    <path d="M 285.0,831.0 L 278.0,884.0 L 243.0,979.0"/>
    <path d="M 358.0,839.0 L 378.0,888.0 L 381.0,911.0"/>
    <path d="M 438.0,827.0 L 464.0,859.0 L 474.0,885.0"/>
    <path d="M 508.0,810.0 L 541.0,846.0 L 550.0,871.0"/>
    <path d="M 853.0,425.0 L 836.0,419.0 L 791.0,418.0 L 725.0,464.0 L 672.0,492.0 L 661.0,491.0 L 652.0,500.0 L 621.0,511.0 L 613.0,508.0 L 604.0,518.0"/>
    <path d="M 597.0,668.0 L 639.0,665.0 L 844.0,615.0 L 916.0,621.0"/>
    <path d="M 697.0,500.0 L 718.0,512.0 L 727.0,528.0 L 725.0,827.0 L 717.0,998.0 L 730.0,1070.0"/>
    <path d="M 703.0,671.0 L 682.0,757.0 L 619.0,857.0 L 557.0,933.0 L 491.0,986.0"/>
    <path d="M 750.0,698.0 L 757.0,703.0 L 760.0,726.0 L 774.0,748.0 L 837.0,836.0 L 882.0,887.0 L 894.0,897.0 L 987.0,925.0"/>
  </g>
</svg>
