<svg xmlns="http://www.w3.org/2000/svg" viewBox="0 0 1024 1024">
  <g style="fill:none;stroke:#000000;stroke-width:50;stroke-linecap:round;stroke-linejoin:round;" transform="scale(1, 1) translate(0, 0)">
    <path d="M 106.0,427.0 L 131.0,458.0 L 154.0,634.0"/>
    <path d="M 152.0,433.0 L 164.0,438.0 L 246.0,411.0 L 273.0,425.0 L 283.0,436.0 L 268.0,505.0 L 263.0,518.0 L 248.0,528.0"/>
    <path d="M 171.0,578.0 L 186.0,568.0 L 239.0,555.0 L 291.0,559.0"/>
    <path d="M 469.0,249.0 L 492.0,254.0 L 540.0,252.0 L 702.0,218.0 L 730.0,220.0"/>
    <path d="M 436.0,315.0 L 463.0,343.0 L 477.0,412.0"/>
    <path d="M 471.0,318.0 L 492.0,323.0 L 563.0,316.0 L 715.0,284.0 L 728.0,290.0 L 740.0,308.0 L 734.0,320.0 L 713.0,333.0"/>
    <path d="M 488.0,384.0 L 551.0,380.0 L 563.0,373.0 L 605.0,372.0 L 700.0,353.0 L 752.0,359.0"/>
    <path d="M 564.0,175.0 L 600.0,206.0 L 594.0,400.0 L 582.0,414.0"/>
    <path d="M 358.0,433.0 L 369.0,473.0 L 352.0,529.0 L 349.0,565.0"/>
    <path d="M 393.0,453.0 L 411.0,462.0 L 429.0,460.0 L 546.0,435.0 L 771.0,402.0 L 811.0,400.0 L 839.0,408.0 L 857.0,433.0 L 798.0,482.0"/>
    <path d="M 415.0,513.0 L 439.0,536.0 L 461.0,622.0"/>
    <path d="M 457.0,523.0 L 548.0,498.0 L 566.0,516.0 L 554.0,549.0 L 537.0,558.0"/>
    <path d="M 472.0,586.0 L 479.0,591.0 L 527.0,579.0 L 570.0,584.0"/>
    <path d="M 612.0,481.0 L 630.0,494.0 L 650.0,578.0"/>
    <path d="M 651.0,495.0 L 670.0,484.0 L 735.0,470.0 L 754.0,488.0 L 743.0,522.0 L 729.0,528.0"/>
    <path d="M 662.0,569.0 L 676.0,560.0 L 726.0,553.0 L 767.0,558.0"/>
    <path d="M 429.0,670.0 L 471.0,676.0 L 533.0,670.0 L 729.0,631.0 L 763.0,631.0"/>
    <path d="M 431.0,750.0 L 494.0,749.0 L 695.0,713.0 L 743.0,718.0"/>
    <path d="M 493.0,620.0 L 518.0,647.0 L 526.0,762.0 L 525.0,783.0 L 515.0,793.0"/>
    <path d="M 630.0,597.0 L 658.0,625.0 L 646.0,757.0 L 634.0,778.0"/>
    <path d="M 336.0,830.0 L 392.0,835.0 L 555.0,808.0 L 800.0,782.0 L 874.0,796.0"/>
    <path d="M 535.0,846.0 L 504.0,857.0 L 430.0,931.0 L 357.0,983.0 L 269.0,1025.0"/>
    <path d="M 509.0,893.0 L 503.0,999.0 L 507.0,1035.0 L 534.0,1028.0 L 600.0,987.0 L 603.0,976.0 L 623.0,970.0"/>
    <path d="M 773.0,832.0 L 781.0,861.0 L 729.0,898.0 L 707.0,902.0"/>
    <path d="M 569.0,824.0 L 599.0,830.0 L 695.0,929.0 L 808.0,1015.0 L 923.0,1025.0"/>
  </g>
</svg>
