<svg xmlns="http://www.w3.org/2000/svg" viewBox="0 0 1024 1024">
  <g style="fill:none;stroke:#000000;stroke-width:50;stroke-linecap:round;stroke-linejoin:round;" transform="scale(1, 1) translate(0, 0)">
    <path d="M 200.0,279.0 L 232.0,316.0 L 242.0,389.0 L 238.0,694.0 L 228.0,827.0 L 215.0,912.0 L 220.0,996.0"/>
    <path d="M 270.0,306.0 L 288.0,320.0 L 356.0,315.0 L 721.0,263.0 L 753.0,277.0 L 782.0,306.0 L 798.0,884.0 L 795.0,932.0 L 783.0,964.0 L 788.0,1032.0"/>
    <path d="M 359.0,420.0 L 405.0,432.0 L 531.0,394.0 L 577.0,394.0 L 599.0,417.0 L 596.0,423.0 L 553.0,479.0 L 525.0,505.0 L 523.0,515.0 L 514.0,517.0"/>
    <path d="M 471.0,521.0 L 492.0,530.0 L 509.0,546.0 L 524.0,573.0 L 538.0,680.0 L 527.0,778.0 L 509.0,818.0 L 490.0,835.0 L 402.0,804.0"/>
    <path d="M 284.0,638.0 L 319.0,645.0 L 382.0,631.0 L 651.0,595.0 L 684.0,594.0 L 738.0,608.0"/>
    <path d="M 252.0,970.0 L 273.0,953.0 L 652.0,924.0 L 726.0,924.0"/>
  </g>
</svg>
