<svg xmlns="http://www.w3.org/2000/svg" viewBox="0 0 1024 1024">
  <g style="fill:none;stroke:#000000;stroke-width:50;stroke-linecap:round;stroke-linejoin:round;" transform="scale(1, 1) translate(0, 0)">
    <path d="M 209.0,284.0 L 234.0,312.0 L 246.0,346.0 L 250.0,428.0 L 241.0,737.0 L 219.0,916.0 L 224.0,984.0"/>
    <path d="M 268.0,302.0 L 291.0,317.0 L 521.0,283.0 L 724.0,263.0 L 752.0,270.0 L 783.0,298.0 L 790.0,313.0 L 788.0,541.0 L 800.0,863.0 L 797.0,917.0 L 785.0,963.0 L 791.0,1033.0"/>
    <path d="M 334.0,530.0 L 375.0,537.0 L 629.0,483.0 L 688.0,488.0"/>
    <path d="M 539.0,347.0 L 564.0,368.0 L 580.0,393.0 L 578.0,766.0 L 560.0,806.0 L 457.0,755.0"/>
    <path d="M 551.0,528.0 L 506.0,604.0 L 442.0,685.0 L 377.0,746.0 L 306.0,793.0"/>
    <path d="M 247.0,974.0 L 268.0,957.0 L 302.0,953.0 L 680.0,920.0 L 746.0,928.0"/>
  </g>
</svg>
