<svg xmlns="http://www.w3.org/2000/svg" viewBox="0 0 1024 1024">
  <g style="fill:none;stroke:#000000;stroke-width:50;stroke-linecap:round;stroke-linejoin:round;" transform="scale(1, 1) translate(0, 0)">
    <path d="M 206.0,269.0 L 230.0,294.0 L 238.0,313.0 L 246.0,384.0 L 240.0,673.0 L 227.0,831.0 L 212.0,929.0 L 216.0,1001.0"/>
    <path d="M 269.0,290.0 L 291.0,303.0 L 547.0,263.0 L 715.0,245.0 L 743.0,246.0 L 777.0,276.0 L 787.0,291.0 L 788.0,596.0 L 802.0,868.0 L 799.0,919.0 L 789.0,956.0 L 796.0,1021.0"/>
    <path d="M 338.0,463.0 L 384.0,467.0 L 545.0,424.0 L 583.0,418.0 L 619.0,423.0"/>
    <path d="M 323.0,539.0 L 341.0,561.0 L 347.0,579.0 L 347.0,613.0 L 337.0,659.0 L 340.0,681.0 L 378.0,681.0 L 445.0,656.0 L 562.0,628.0 L 571.0,615.0"/>
    <path d="M 603.0,496.0 L 627.0,533.0 L 593.0,671.0"/>
    <path d="M 438.0,333.0 L 464.0,356.0 L 482.0,383.0 L 466.0,684.0 L 470.0,734.0 L 486.0,778.0 L 516.0,798.0 L 552.0,806.0 L 604.0,807.0 L 669.0,795.0 L 704.0,773.0 L 709.0,667.0"/>
    <path d="M 245.0,973.0 L 264.0,958.0 L 310.0,952.0 L 642.0,923.0 L 743.0,923.0"/>
  </g>
</svg>
