<svg xmlns="http://www.w3.org/2000/svg" viewBox="0 0 1024 1024">
  <g style="fill:none;stroke:#000000;stroke-width:50;stroke-linecap:round;stroke-linejoin:round;" transform="scale(1, 1) translate(0, 0)">
    <path d="M 214.0,277.0 L 244.0,312.0 L 254.0,337.0 L 259.0,413.0 L 251.0,758.0 L 233.0,932.0 L 240.0,984.0"/>
    <path d="M 275.0,295.0 L 306.0,309.0 L 527.0,277.0 L 732.0,256.0 L 759.0,263.0 L 791.0,290.0 L 799.0,302.0 L 794.0,548.0 L 804.0,904.0 L 790.0,953.0 L 753.0,944.0 L 731.0,923.0"/>
    <path d="M 353.0,555.0 L 397.0,561.0 L 439.0,557.0 L 621.0,514.0 L 673.0,512.0"/>
    <path d="M 485.0,384.0 L 521.0,428.0 L 507.0,547.0 L 482.0,649.0 L 463.0,691.0 L 425.0,747.0 L 376.0,794.0 L 327.0,819.0"/>
    <path d="M 552.0,643.0 L 651.0,731.0 L 672.0,762.0 L 680.0,790.0"/>
    <path d="M 271.0,953.0 L 292.0,942.0 L 644.0,913.0 L 721.0,919.0"/>
  </g>
</svg>
