<svg xmlns="http://www.w3.org/2000/svg" viewBox="0 0 1024 1024">
  <g style="fill:none;stroke:#000000;stroke-width:50;stroke-linecap:round;stroke-linejoin:round;" transform="scale(1, 1) translate(0, 0)">
    <path d="M 200.0,275.0 L 224.0,300.0 L 234.0,321.0 L 242.0,390.0 L 236.0,714.0 L 214.0,930.0 L 220.0,992.0"/>
    <path d="M 268.0,298.0 L 285.0,312.0 L 418.0,293.0 L 429.0,287.0 L 729.0,252.0 L 763.0,262.0 L 792.0,290.0 L 800.0,302.0 L 797.0,543.0 L 809.0,848.0 L 807.0,901.0 L 793.0,949.0 L 800.0,1018.0"/>
    <path d="M 472.0,337.0 L 494.0,367.0 L 446.0,461.0 L 375.0,555.0 L 315.0,611.0 L 262.0,646.0"/>
    <path d="M 510.0,410.0 L 522.0,435.0 L 572.0,487.0 L 643.0,546.0 L 671.0,557.0 L 757.0,566.0"/>
    <path d="M 462.0,532.0 L 497.0,554.0 L 512.0,571.0"/>
    <path d="M 362.0,672.0 L 380.0,680.0 L 407.0,680.0 L 548.0,631.0 L 577.0,632.0 L 591.0,639.0 L 603.0,654.0 L 594.0,672.0 L 526.0,753.0 L 524.0,763.0 L 516.0,765.0"/>
    <path d="M 438.0,745.0 L 523.0,808.0 L 543.0,835.0 L 549.0,854.0"/>
    <path d="M 252.0,954.0 L 272.0,938.0 L 333.0,932.0 L 659.0,909.0 L 705.0,909.0 L 746.0,917.0"/>
  </g>
</svg>
