<svg xmlns="http://www.w3.org/2000/svg" viewBox="0 0 1024 1024">
  <g style="fill:none;stroke:#000000;stroke-width:50;stroke-linecap:round;stroke-linejoin:round;" transform="scale(1, 1) translate(0, 0)">
    <path d="M 208.0,287.0 L 235.0,317.0 L 249.0,390.0 L 238.0,718.0 L 216.0,928.0 L 220.0,995.0"/>
    <path d="M 265.0,303.0 L 291.0,316.0 L 320.0,314.0 L 492.0,286.0 L 747.0,259.0 L 762.0,260.0 L 796.0,289.0 L 806.0,307.0 L 805.0,527.0 L 819.0,874.0 L 818.0,907.0 L 806.0,959.0 L 812.0,1022.0"/>
    <path d="M 365.0,451.0 L 406.0,458.0 L 435.0,456.0 L 620.0,415.0 L 665.0,416.0"/>
    <path d="M 369.0,551.0 L 429.0,556.0 L 547.0,538.0 L 620.0,519.0 L 653.0,522.0"/>
    <path d="M 302.0,660.0 L 344.0,665.0 L 465.0,635.0 L 624.0,615.0 L 681.0,614.0 L 697.0,625.0 L 713.0,653.0 L 683.0,747.0 L 665.0,779.0 L 651.0,792.0 L 583.0,757.0"/>
    <path d="M 481.0,335.0 L 504.0,351.0 L 516.0,368.0 L 511.0,894.0"/>
    <path d="M 253.0,970.0 L 275.0,956.0 L 690.0,926.0 L 755.0,928.0"/>
  </g>
</svg>
