<svg xmlns="http://www.w3.org/2000/svg" viewBox="0 0 1024 1024">
  <g style="fill:none;stroke:#000000;stroke-width:50;stroke-linecap:round;stroke-linejoin:round;" transform="scale(1, 1) translate(0, 0)">
    <path d="M 192.0,267.0 L 222.0,300.0 L 236.0,377.0 L 232.0,704.0 L 212.0,933.0 L 216.0,1016.0"/>
    <path d="M 257.0,287.0 L 281.0,302.0 L 549.0,262.0 L 739.0,243.0 L 769.0,253.0 L 792.0,276.0 L 801.0,292.0 L 799.0,610.0 L 810.0,886.0 L 806.0,938.0 L 795.0,978.0 L 800.0,1041.0"/>
    <path d="M 361.0,352.0 L 392.0,382.0 L 420.0,496.0"/>
    <path d="M 412.0,354.0 L 426.0,364.0 L 587.0,331.0 L 612.0,356.0 L 597.0,400.0 L 578.0,411.0"/>
    <path d="M 434.0,458.0 L 444.0,465.0 L 576.0,439.0 L 624.0,444.0"/>
    <path d="M 369.0,528.0 L 387.0,547.0 L 395.0,572.0 L 397.0,658.0 L 386.0,741.0 L 389.0,773.0"/>
    <path d="M 412.0,538.0 L 423.0,546.0 L 452.0,543.0 L 578.0,512.0 L 613.0,525.0 L 624.0,542.0 L 621.0,597.0 L 628.0,704.0 L 622.0,764.0"/>
    <path d="M 466.0,591.0 L 483.0,598.0 L 507.0,624.0 L 496.0,743.0 L 477.0,805.0 L 443.0,858.0 L 414.0,882.0 L 357.0,908.0 L 333.0,911.0"/>
    <path d="M 554.0,793.0 L 635.0,851.0 L 653.0,887.0"/>
    <path d="M 244.0,996.0 L 267.0,981.0 L 693.0,950.0 L 738.0,955.0 L 751.0,949.0"/>
  </g>
</svg>
