<svg xmlns="http://www.w3.org/2000/svg" viewBox="0 0 1024 1024">
  <g style="fill:none;stroke:#000000;stroke-width:50;stroke-linecap:round;stroke-linejoin:round;" transform="scale(1, 1) translate(0, 0)">
    <path d="M 197.0,249.0 L 224.0,280.0 L 239.0,358.0 L 228.0,732.0 L 208.0,906.0 L 212.0,988.0"/>
    <path d="M 257.0,266.0 L 280.0,284.0 L 462.0,253.0 L 717.0,222.0 L 746.0,231.0 L 782.0,266.0 L 781.0,555.0 L 796.0,852.0 L 793.0,903.0 L 781.0,941.0 L 788.0,1005.0"/>
    <path d="M 370.0,356.0 L 417.0,364.0 L 577.0,337.0 L 618.0,340.0"/>
    <path d="M 447.0,386.0 L 465.0,402.0 L 463.0,444.0 L 435.0,569.0 L 426.0,589.0 L 413.0,596.0"/>
    <path d="M 351.0,488.0 L 397.0,491.0 L 539.0,463.0 L 571.0,462.0 L 599.0,489.0 L 568.0,560.0 L 546.0,581.0"/>
    <path d="M 294.0,630.0 L 326.0,632.0 L 637.0,590.0 L 698.0,593.0 L 725.0,602.0"/>
    <path d="M 356.0,692.0 L 384.0,715.0 L 424.0,870.0"/>
    <path d="M 412.0,716.0 L 436.0,703.0 L 490.0,696.0 L 527.0,683.0 L 587.0,679.0 L 610.0,703.0 L 585.0,764.0 L 559.0,779.0"/>
    <path d="M 438.0,817.0 L 449.0,823.0 L 556.0,804.0 L 593.0,804.0 L 614.0,811.0"/>
    <path d="M 243.0,950.0 L 256.0,937.0 L 278.0,933.0 L 684.0,909.0 L 739.0,911.0"/>
  </g>
</svg>
