<svg xmlns="http://www.w3.org/2000/svg" viewBox="0 0 1024 1024">
  <g style="fill:none;stroke:#000000;stroke-width:50;stroke-linecap:round;stroke-linejoin:round;" transform="scale(1, 1) translate(0, 0)">
    <path d="M 204.0,290.0 L 229.0,319.0 L 241.0,354.0 L 245.0,406.0 L 240.0,675.0 L 212.0,948.0 L 216.0,1015.0"/>
    <path d="M 260.0,305.0 L 290.0,324.0 L 465.0,296.0 L 734.0,265.0 L 764.0,274.0 L 790.0,300.0 L 800.0,314.0 L 797.0,544.0 L 812.0,883.0 L 810.0,918.0 L 797.0,965.0 L 804.0,1034.0"/>
    <path d="M 353.0,419.0 L 409.0,424.0 L 492.0,410.0 L 607.0,379.0 L 652.0,381.0"/>
    <path d="M 479.0,442.0 L 475.0,458.0 L 419.0,513.0 L 368.0,547.0 L 319.0,570.0"/>
    <path d="M 444.0,519.0 L 461.0,521.0 L 482.0,535.0 L 531.0,587.0 L 555.0,632.0 L 564.0,712.0 L 554.0,786.0 L 530.0,834.0 L 520.0,838.0 L 439.0,798.0"/>
    <path d="M 457.0,536.0 L 460.0,572.0 L 441.0,593.0 L 400.0,630.0 L 324.0,673.0"/>
    <path d="M 509.0,599.0 L 507.0,641.0 L 470.0,688.0 L 396.0,757.0 L 314.0,806.0"/>
    <path d="M 640.0,470.0 L 653.0,501.0 L 614.0,542.0 L 558.0,587.0"/>
    <path d="M 586.0,637.0 L 599.0,659.0 L 697.0,717.0 L 717.0,738.0 L 730.0,765.0"/>
    <path d="M 249.0,966.0 L 269.0,950.0 L 589.0,925.0 L 689.0,920.0 L 749.0,931.0"/>
  </g>
</svg>
