<svg xmlns="http://www.w3.org/2000/svg" viewBox="0 0 1024 1024">
  <g style="fill:none;stroke:#000000;stroke-width:50;stroke-linecap:round;stroke-linejoin:round;" transform="scale(1, 1) translate(0, 0)">
    <path d="M 184.0,247.0 L 201.0,267.0 L 221.0,310.0 L 226.0,366.0 L 216.0,726.0 L 190.0,964.0 L 196.0,1022.0"/>
    <path d="M 232.0,255.0 L 270.0,278.0 L 438.0,253.0 L 750.0,223.0 L 775.0,234.0 L 798.0,258.0 L 807.0,271.0 L 802.0,473.0 L 818.0,897.0 L 815.0,949.0 L 802.0,997.0 L 807.0,1065.0"/>
    <path d="M 464.0,300.0 L 480.0,320.0 L 480.0,347.0 L 417.0,452.0 L 340.0,539.0 L 281.0,585.0 L 266.0,588.0 L 263.0,596.0"/>
    <path d="M 505.0,380.0 L 504.0,387.0 L 534.0,418.0 L 630.0,495.0 L 658.0,507.0 L 763.0,518.0 L 777.0,526.0"/>
    <path d="M 388.0,558.0 L 448.0,561.0 L 545.0,538.0 L 581.0,538.0"/>
    <path d="M 308.0,646.0 L 327.0,664.0 L 331.0,681.0 L 330.0,761.0 L 319.0,826.0 L 321.0,866.0"/>
    <path d="M 355.0,671.0 L 368.0,660.0 L 514.0,641.0 L 627.0,634.0 L 667.0,641.0 L 680.0,652.0 L 681.0,669.0 L 676.0,825.0 L 662.0,849.0 L 595.0,824.0"/>
    <path d="M 376.0,758.0 L 409.0,758.0 L 565.0,730.0 L 604.0,735.0"/>
    <path d="M 415.0,671.0 L 434.0,693.0 L 438.0,852.0"/>
    <path d="M 509.0,656.0 L 536.0,685.0 L 521.0,883.0"/>
    <path d="M 230.0,998.0 L 248.0,987.0 L 676.0,958.0 L 714.0,962.0 L 726.0,969.0 L 759.0,969.0"/>
  </g>
</svg>
