<svg xmlns="http://www.w3.org/2000/svg" viewBox="0 0 1024 1024">
  <g style="fill:none;stroke:#000000;stroke-width:50;stroke-linecap:round;stroke-linejoin:round;" transform="scale(1, 1) translate(0, 0)">
    <path d="M 191.0,264.0 L 216.0,290.0 L 232.0,324.0 L 235.0,396.0 L 232.0,670.0 L 226.0,710.0 L 230.0,726.0 L 207.0,934.0 L 212.0,1015.0"/>
    <path d="M 242.0,274.0 L 277.0,293.0 L 536.0,256.0 L 733.0,237.0 L 756.0,240.0 L 787.0,263.0 L 801.0,285.0 L 798.0,534.0 L 810.0,904.0 L 795.0,977.0 L 800.0,1041.0"/>
    <path d="M 355.0,365.0 L 391.0,389.0 L 407.0,410.0"/>
    <path d="M 627.0,307.0 L 638.0,335.0 L 565.0,391.0"/>
    <path d="M 372.0,474.0 L 436.0,478.0 L 500.0,468.0 L 587.0,444.0 L 628.0,447.0"/>
    <path d="M 288.0,581.0 L 323.0,588.0 L 484.0,558.0 L 650.0,539.0 L 718.0,551.0"/>
    <path d="M 467.0,305.0 L 496.0,336.0 L 470.0,488.0 L 445.0,556.0 L 423.0,599.0 L 384.0,651.0 L 316.0,712.0 L 254.0,747.0"/>
    <path d="M 559.0,580.0 L 581.0,584.0 L 630.0,633.0 L 692.0,679.0 L 761.0,685.0 L 766.0,691.0"/>
    <path d="M 443.0,695.0 L 446.0,685.0 L 526.0,664.0 L 547.0,661.0 L 565.0,675.0 L 554.0,754.0 L 526.0,788.0 L 477.0,762.0"/>
    <path d="M 402.0,670.0 L 413.0,702.0 L 406.0,746.0 L 411.0,825.0 L 424.0,859.0 L 439.0,868.0 L 496.0,879.0 L 568.0,874.0 L 619.0,860.0 L 636.0,846.0 L 638.0,760.0"/>
    <path d="M 238.0,993.0 L 258.0,978.0 L 292.0,974.0 L 685.0,947.0 L 734.0,950.0"/>
  </g>
</svg>
