<svg xmlns="http://www.w3.org/2000/svg" viewBox="0 0 1024 1024">
  <g style="fill:none;stroke:#000000;stroke-width:50;stroke-linecap:round;stroke-linejoin:round;" transform="scale(1, 1) translate(0, 0)">
    <path d="M 176.0,247.0 L 192.0,261.0 L 212.0,295.0 L 219.0,390.0 L 210.0,752.0 L 187.0,951.0 L 192.0,1019.0"/>
    <path d="M 240.0,266.0 L 261.0,281.0 L 560.0,238.0 L 720.0,223.0 L 748.0,230.0 L 779.0,258.0 L 787.0,271.0 L 785.0,589.0 L 798.0,893.0 L 795.0,946.0 L 782.0,992.0 L 787.0,1061.0"/>
    <path d="M 435.0,275.0 L 458.0,290.0 L 468.0,307.0 L 440.0,426.0 L 420.0,450.0"/>
    <path d="M 358.0,373.0 L 415.0,374.0 L 565.0,343.0 L 589.0,369.0 L 574.0,406.0 L 552.0,429.0"/>
    <path d="M 293.0,486.0 L 346.0,484.0 L 482.0,455.0 L 632.0,434.0 L 684.0,435.0 L 712.0,443.0"/>
    <path d="M 347.0,537.0 L 377.0,566.0 L 400.0,643.0"/>
    <path d="M 386.0,537.0 L 407.0,542.0 L 557.0,515.0 L 577.0,526.0 L 585.0,542.0 L 574.0,566.0 L 550.0,582.0"/>
    <path d="M 415.0,632.0 L 432.0,623.0 L 549.0,602.0 L 597.0,607.0"/>
    <path d="M 377.0,703.0 L 428.0,711.0 L 551.0,689.0 L 619.0,686.0"/>
    <path d="M 335.0,745.0 L 358.0,768.0 L 342.0,844.0 L 348.0,847.0 L 570.0,810.0 L 625.0,808.0 L 675.0,820.0"/>
    <path d="M 460.0,642.0 L 490.0,659.0 L 489.0,922.0 L 482.0,950.0"/>
    <path d="M 222.0,1003.0 L 243.0,990.0 L 594.0,960.0 L 681.0,955.0 L 726.0,962.0"/>
  </g>
</svg>
