<svg xmlns="http://www.w3.org/2000/svg" viewBox="0 0 1024 1024">
  <g style="fill:none;stroke:#000000;stroke-width:50;stroke-linecap:round;stroke-linejoin:round;" transform="scale(1, 1) translate(0, 0)">
    <path d="M 192.0,267.0 L 221.0,300.0 L 234.0,389.0 L 224.0,739.0 L 204.0,922.0 L 208.0,999.0"/>
    <path d="M 256.0,287.0 L 279.0,303.0 L 476.0,274.0 L 718.0,251.0 L 737.0,256.0 L 770.0,285.0 L 779.0,299.0 L 778.0,548.0 L 791.0,872.0 L 790.0,907.0 L 778.0,959.0 L 784.0,1025.0"/>
    <path d="M 384.0,418.0 L 408.0,424.0 L 449.0,422.0 L 545.0,397.0 L 604.0,394.0"/>
    <path d="M 458.0,316.0 L 491.0,349.0 L 487.0,474.0 L 473.0,498.0"/>
    <path d="M 280.0,545.0 L 332.0,548.0 L 434.0,525.0 L 626.0,494.0 L 675.0,493.0 L 721.0,503.0"/>
    <path d="M 386.0,571.0 L 421.0,621.0"/>
    <path d="M 546.0,531.0 L 563.0,549.0 L 534.0,611.0 L 518.0,627.0"/>
    <path d="M 347.0,665.0 L 392.0,669.0 L 582.0,635.0 L 628.0,639.0"/>
    <path d="M 317.0,784.0 L 350.0,786.0 L 605.0,741.0 L 655.0,740.0 L 696.0,750.0"/>
    <path d="M 461.0,678.0 L 489.0,701.0 L 485.0,885.0 L 479.0,920.0"/>
    <path d="M 239.0,976.0 L 261.0,960.0 L 633.0,926.0 L 733.0,926.0"/>
  </g>
</svg>
