<svg xmlns="http://www.w3.org/2000/svg" viewBox="0 0 1024 1024">
  <g style="fill:none;stroke:#000000;stroke-width:50;stroke-linecap:round;stroke-linejoin:round;" transform="scale(1, 1) translate(0, 0)">
    <path d="M 200.0,283.0 L 223.0,306.0 L 230.0,322.0 L 238.0,345.0 L 243.0,404.0 L 231.0,812.0 L 215.0,954.0 L 220.0,1012.0"/>
    <path d="M 257.0,295.0 L 288.0,313.0 L 450.0,285.0 L 726.0,252.0 L 756.0,263.0 L 777.0,284.0 L 787.0,300.0 L 787.0,576.0 L 799.0,876.0 L 798.0,911.0 L 786.0,962.0 L 792.0,1029.0"/>
    <path d="M 347.0,364.0 L 376.0,391.0 L 400.0,491.0"/>
    <path d="M 403.0,381.0 L 407.0,372.0 L 429.0,366.0 L 592.0,338.0 L 620.0,340.0 L 639.0,363.0 L 625.0,405.0 L 606.0,416.0"/>
    <path d="M 455.0,378.0 L 478.0,444.0"/>
    <path d="M 536.0,368.0 L 550.0,382.0 L 532.0,427.0"/>
    <path d="M 416.0,464.0 L 423.0,470.0 L 595.0,442.0 L 651.0,446.0"/>
    <path d="M 304.0,549.0 L 336.0,551.0 L 469.0,525.0 L 651.0,502.0 L 698.0,504.0 L 727.0,513.0"/>
    <path d="M 371.0,597.0 L 400.0,622.0 L 421.0,694.0 L 429.0,704.0"/>
    <path d="M 414.0,596.0 L 426.0,603.0 L 557.0,571.0 L 570.0,573.0 L 590.0,583.0 L 599.0,598.0 L 586.0,630.0 L 567.0,640.0"/>
    <path d="M 438.0,697.0 L 468.0,684.0 L 555.0,668.0 L 613.0,671.0"/>
    <path d="M 421.0,714.0 L 432.0,734.0 L 396.0,772.0 L 335.0,814.0 L 299.0,832.0 L 284.0,832.0 L 279.0,839.0"/>
    <path d="M 442.0,769.0 L 435.0,837.0 L 441.0,865.0 L 465.0,859.0 L 538.0,812.0"/>
    <path d="M 642.0,680.0 L 651.0,705.0 L 603.0,752.0 L 594.0,750.0"/>
    <path d="M 506.0,729.0 L 614.0,800.0 L 649.0,836.0 L 657.0,857.0"/>
    <path d="M 251.0,981.0 L 268.0,966.0 L 301.0,962.0 L 661.0,932.0 L 728.0,933.0"/>
  </g>
</svg>
