<svg xmlns="http://www.w3.org/2000/svg" viewBox="0 0 1024 1024">
  <g style="fill:none;stroke:#000000;stroke-width:50;stroke-linecap:round;stroke-linejoin:round;" transform="scale(1, 1) translate(0, 0)">
    <path d="M 132.0,484.0 L 191.0,487.0 L 346.0,446.0 L 370.0,443.0 L 396.0,449.0"/>
    <path d="M 244.0,219.0 L 293.0,261.0 L 294.0,283.0 L 279.0,648.0 L 260.0,683.0"/>
    <path d="M 103.0,758.0 L 162.0,767.0 L 404.0,638.0"/>
    <path d="M 494.0,335.0 L 527.0,343.0 L 567.0,341.0 L 766.0,298.0 L 812.0,300.0"/>
    <path d="M 417.0,575.0 L 473.0,582.0 L 586.0,559.0 L 829.0,524.0 L 883.0,525.0 L 932.0,539.0"/>
    <path d="M 603.0,362.0 L 640.0,390.0 L 659.0,511.0 L 665.0,761.0 L 655.0,885.0 L 631.0,950.0 L 603.0,978.0 L 564.0,958.0 L 506.0,910.0 L 492.0,905.0"/>
  </g>
</svg>
