<svg xmlns="http://www.w3.org/2000/svg" viewBox="0 0 1024 1024">
  <g style="fill:none;stroke:#000000;stroke-width:50;stroke-linecap:round;stroke-linejoin:round;" transform="scale(1, 1) translate(0, 0)">
    <path d="M 131.0,552.0 L 195.0,553.0 L 361.0,504.0 L 414.0,503.0"/>
    <path d="M 247.0,277.0 L 298.0,322.0 L 286.0,711.0 L 283.0,724.0 L 266.0,745.0"/>
    <path d="M 95.0,818.0 L 160.0,831.0 L 359.0,738.0 L 423.0,702.0"/>
    <path d="M 572.0,194.0 L 598.0,217.0 L 609.0,240.0 L 588.0,299.0 L 519.0,432.0 L 460.0,519.0 L 438.0,541.0"/>
    <path d="M 534.0,456.0 L 558.0,447.0 L 640.0,435.0 L 755.0,400.0 L 817.0,396.0"/>
    <path d="M 455.0,640.0 L 507.0,632.0 L 605.0,593.0 L 638.0,594.0 L 653.0,604.0 L 643.0,632.0 L 551.0,768.0 L 515.0,861.0 L 515.0,905.0 L 533.0,943.0 L 566.0,967.0 L 601.0,979.0 L 677.0,989.0 L 785.0,986.0 L 852.0,969.0 L 892.0,947.0 L 902.0,940.0 L 906.0,908.0 L 907.0,790.0"/>
  </g>
</svg>
