<svg xmlns="http://www.w3.org/2000/svg" viewBox="0 0 1024 1024">
  <g style="fill:none;stroke:#000000;stroke-width:50;stroke-linecap:round;stroke-linejoin:round;" transform="scale(1, 1) translate(0, 0)">
    <path d="M 127.0,544.0 L 161.0,548.0 L 201.0,543.0 L 316.0,508.0 L 359.0,500.0 L 382.0,503.0"/>
    <path d="M 228.0,264.0 L 268.0,294.0 L 278.0,305.0 L 279.0,317.0 L 272.0,693.0 L 255.0,718.0"/>
    <path d="M 86.0,800.0 L 148.0,810.0 L 407.0,671.0"/>
    <path d="M 440.0,386.0 L 457.0,395.0 L 484.0,423.0 L 488.0,565.0 L 475.0,686.0 L 447.0,781.0 L 413.0,844.0 L 361.0,905.0 L 313.0,939.0"/>
    <path d="M 608.0,386.0 L 638.0,421.0 L 633.0,824.0"/>
    <path d="M 753.0,240.0 L 782.0,262.0 L 807.0,293.0 L 809.0,733.0 L 799.0,933.0 L 803.0,1032.0"/>
  </g>
</svg>
