<svg xmlns="http://www.w3.org/2000/svg" viewBox="0 0 1024 1024">
  <g style="fill:none;stroke:#000000;stroke-width:50;stroke-linecap:round;stroke-linejoin:round;" transform="scale(1, 1) translate(0, 0)">
    <path d="M 131.0,540.0 L 161.0,543.0 L 206.0,536.0 L 330.0,493.0 L 389.0,486.0"/>
    <path d="M 237.0,255.0 L 279.0,285.0 L 289.0,296.0 L 290.0,308.0 L 282.0,681.0 L 279.0,694.0 L 261.0,716.0"/>
    <path d="M 87.0,798.0 L 146.0,808.0 L 400.0,674.0"/>
    <path d="M 795.0,254.0 L 719.0,248.0 L 611.0,320.0 L 543.0,352.0 L 533.0,346.0"/>
    <path d="M 459.0,347.0 L 475.0,355.0 L 504.0,385.0 L 508.0,490.0 L 501.0,600.0 L 490.0,669.0 L 463.0,756.0 L 433.0,813.0 L 374.0,885.0 L 321.0,922.0"/>
    <path d="M 534.0,530.0 L 557.0,517.0 L 686.0,496.0 L 823.0,465.0 L 870.0,461.0 L 908.0,471.0"/>
    <path d="M 675.0,520.0 L 722.0,553.0 L 719.0,1052.0"/>
  </g>
</svg>
