<svg xmlns="http://www.w3.org/2000/svg" viewBox="0 0 1024 1024">
  <g style="fill:none;stroke:#000000;stroke-width:50;stroke-linecap:round;stroke-linejoin:round;" transform="scale(1, 1) translate(0, 0)">
    <path d="M 107.0,562.0 L 160.0,563.0 L 254.0,540.0 L 326.0,515.0 L 369.0,514.0"/>
    <path d="M 218.0,269.0 L 270.0,311.0 L 271.0,324.0 L 262.0,714.0 L 259.0,729.0 L 241.0,750.0"/>
    <path d="M 74.0,834.0 L 131.0,843.0 L 368.0,711.0"/>
    <path d="M 500.0,378.0 L 528.0,401.0 L 527.0,408.0 L 494.0,545.0 L 449.0,665.0 L 402.0,758.0 L 368.0,809.0 L 303.0,886.0 L 254.0,928.0"/>
    <path d="M 429.0,354.0 L 471.0,357.0 L 509.0,351.0 L 683.0,298.0 L 719.0,309.0 L 727.0,321.0 L 719.0,349.0 L 641.0,533.0 L 637.0,555.0 L 661.0,565.0 L 699.0,556.0 L 747.0,554.0 L 761.0,558.0 L 778.0,574.0 L 758.0,659.0 L 732.0,727.0 L 702.0,776.0 L 657.0,826.0 L 586.0,879.0 L 533.0,909.0 L 466.0,934.0 L 459.0,942.0 L 409.0,950.0"/>
    <path d="M 503.0,617.0 L 698.0,840.0 L 758.0,888.0 L 789.0,909.0 L 816.0,917.0 L 974.0,944.0"/>
  </g>
</svg>
