<svg xmlns="http://www.w3.org/2000/svg" viewBox="0 0 1024 1024">
  <g style="fill:none;stroke:#000000;stroke-width:50;stroke-linecap:round;stroke-linejoin:round;" transform="scale(1, 1) translate(0, 0)">
    <path d="M 131.0,594.0 L 198.0,592.0 L 327.0,553.0 L 393.0,545.0"/>
    <path d="M 237.0,306.0 L 286.0,345.0 L 289.0,375.0 L 280.0,769.0 L 263.0,793.0"/>
    <path d="M 86.0,878.0 L 135.0,888.0 L 151.0,884.0 L 412.0,743.0"/>
    <path d="M 596.0,271.0 L 650.0,314.0 L 652.0,332.0 L 646.0,836.0 L 644.0,857.0 L 627.0,876.0"/>
    <path d="M 679.0,569.0 L 693.0,577.0 L 717.0,576.0 L 841.0,548.0 L 877.0,548.0"/>
    <path d="M 449.0,581.0 L 493.0,627.0 L 514.0,877.0 L 501.0,886.0"/>
    <path d="M 362.0,923.0 L 414.0,932.0 L 646.0,900.0 L 835.0,883.0 L 872.0,886.0 L 923.0,903.0"/>
  </g>
</svg>
