<svg xmlns="http://www.w3.org/2000/svg" viewBox="0 0 1024 1024">
  <g style="fill:none;stroke:#000000;stroke-width:50;stroke-linecap:round;stroke-linejoin:round;" transform="scale(1, 1) translate(0, 0)">
    <path d="M 110.0,532.0 L 139.0,533.0 L 195.0,523.0 L 325.0,479.0 L 371.0,475.0"/>
    <path d="M 229.0,234.0 L 281.0,276.0 L 267.0,684.0 L 264.0,697.0 L 246.0,718.0"/>
    <path d="M 88.0,790.0 L 138.0,801.0 L 152.0,798.0 L 416.0,666.0"/>
    <path d="M 558.0,236.0 L 645.0,282.0 L 683.0,329.0"/>
    <path d="M 413.0,495.0 L 461.0,501.0 L 586.0,471.0 L 844.0,428.0 L 913.0,441.0"/>
    <path d="M 618.0,610.0 L 753.0,634.0 L 782.0,661.0 L 783.0,683.0 L 724.0,864.0 L 694.0,924.0 L 664.0,957.0 L 638.0,967.0 L 543.0,900.0"/>
    <path d="M 572.0,503.0 L 605.0,530.0 L 568.0,638.0 L 512.0,742.0 L 463.0,804.0 L 398.0,868.0 L 323.0,924.0 L 264.0,959.0"/>
  </g>
</svg>
