<svg xmlns="http://www.w3.org/2000/svg" viewBox="0 0 1024 1024">
  <g style="fill:none;stroke:#000000;stroke-width:50;stroke-linecap:round;stroke-linejoin:round;" transform="scale(1, 1) translate(0, 0)">
    <path d="M 208.0,382.0 L 243.0,423.0 L 254.0,600.0 L 265.0,644.0"/>
    <path d="M 326.0,265.0 L 350.0,275.0 L 375.0,300.0 L 391.0,496.0 L 392.0,686.0"/>
    <path d="M 496.0,344.0 L 525.0,346.0 L 578.0,338.0 L 635.0,318.0 L 686.0,309.0 L 700.0,308.0 L 735.0,320.0 L 728.0,357.0 L 704.0,422.0 L 649.0,519.0 L 614.0,553.0 L 560.0,588.0 L 510.0,609.0 L 456.0,619.0"/>
    <path d="M 486.0,415.0 L 539.0,439.0 L 678.0,572.0 L 763.0,628.0 L 804.0,644.0 L 960.0,657.0"/>
    <path d="M 304.0,811.0 L 328.0,820.0 L 379.0,823.0 L 542.0,802.0 L 640.0,779.0 L 707.0,783.0"/>
    <path d="M 464.0,679.0 L 496.0,706.0 L 506.0,726.0 L 502.0,912.0 L 486.0,932.0"/>
    <path d="M 148.0,974.0 L 173.0,983.0 L 216.0,987.0 L 368.0,969.0 L 771.0,945.0 L 838.0,953.0 L 888.0,972.0"/>
  </g>
</svg>
