<svg xmlns="http://www.w3.org/2000/svg" viewBox="0 0 1024 1024">
  <g style="fill:none;stroke:#000000;stroke-width:50;stroke-linecap:round;stroke-linejoin:round;" transform="scale(1, 1) translate(0, 0)">
    <path d="M 268.0,301.0 L 294.0,310.0 L 393.0,279.0 L 404.0,279.0 L 417.0,292.0 L 369.0,406.0 L 375.0,428.0 L 425.0,494.0 L 433.0,519.0 L 429.0,546.0 L 390.0,548.0 L 310.0,529.0"/>
    <path d="M 210.0,287.0 L 246.0,331.0 L 249.0,545.0 L 229.0,696.0 L 232.0,752.0"/>
    <path d="M 605.0,260.0 L 629.0,285.0 L 633.0,299.0 L 614.0,389.0 L 589.0,457.0 L 555.0,518.0 L 509.0,574.0 L 441.0,636.0"/>
    <path d="M 630.0,440.0 L 631.0,453.0 L 683.0,513.0 L 786.0,604.0 L 891.0,636.0 L 943.0,642.0"/>
    <path d="M 312.0,797.0 L 358.0,807.0 L 397.0,807.0 L 539.0,788.0 L 659.0,764.0 L 719.0,766.0"/>
    <path d="M 469.0,659.0 L 512.0,694.0 L 506.0,920.0 L 490.0,941.0"/>
    <path d="M 175.0,983.0 L 218.0,994.0 L 246.0,993.0 L 420.0,971.0 L 777.0,948.0 L 811.0,953.0 L 861.0,971.0"/>
  </g>
</svg>
