<svg xmlns="http://www.w3.org/2000/svg" viewBox="0 0 1024 1024">
  <g style="fill:none;stroke:#000000;stroke-width:50;stroke-linecap:round;stroke-linejoin:round;" transform="scale(1, 1) translate(0, 0)">
    <path d="M 118.0,540.0 L 178.0,540.0 L 325.0,489.0 L 383.0,483.0"/>
    <path d="M 234.0,264.0 L 285.0,304.0 L 287.0,318.0 L 277.0,718.0 L 257.0,743.0"/>
    <path d="M 97.0,814.0 L 155.0,826.0 L 352.0,734.0 L 416.0,698.0"/>
    <path d="M 538.0,237.0 L 633.0,283.0 L 654.0,298.0 L 678.0,330.0"/>
    <path d="M 422.0,500.0 L 482.0,504.0 L 793.0,433.0 L 818.0,429.0 L 864.0,435.0"/>
    <path d="M 653.0,497.0 L 681.0,512.0 L 694.0,531.0 L 694.0,604.0 L 677.0,696.0 L 639.0,782.0 L 591.0,840.0 L 514.0,893.0 L 402.0,941.0 L 363.0,949.0"/>
    <path d="M 457.0,608.0 L 493.0,619.0 L 658.0,828.0 L 763.0,930.0 L 818.0,951.0 L 945.0,971.0"/>
  </g>
</svg>
