<svg xmlns="http://www.w3.org/2000/svg" viewBox="0 0 1024 1024">
  <g style="fill:none;stroke:#000000;stroke-width:50;stroke-linecap:round;stroke-linejoin:round;" transform="scale(1, 1) translate(0, 0)">
    <path d="M 115.0,578.0 L 190.0,575.0 L 291.0,543.0 L 349.0,537.0"/>
    <path d="M 209.0,269.0 L 248.0,299.0 L 258.0,314.0 L 245.0,725.0 L 227.0,750.0"/>
    <path d="M 73.0,823.0 L 129.0,833.0 L 364.0,707.0"/>
    <path d="M 466.0,452.0 L 503.0,458.0 L 741.0,399.0 L 778.0,399.0 L 802.0,408.0 L 822.0,432.0 L 757.0,533.0"/>
    <path d="M 408.0,444.0 L 426.0,455.0 L 448.0,492.0 L 439.0,649.0 L 414.0,778.0 L 385.0,849.0 L 355.0,898.0 L 286.0,972.0 L 234.0,1003.0"/>
    <path d="M 582.0,191.0 L 620.0,221.0 L 629.0,231.0 L 630.0,243.0 L 618.0,598.0 L 601.0,619.0"/>
    <path d="M 505.0,645.0 L 542.0,649.0 L 597.0,643.0 L 653.0,623.0 L 692.0,625.0 L 714.0,635.0 L 667.0,791.0 L 625.0,863.0 L 592.0,899.0 L 537.0,942.0 L 490.0,963.0 L 436.0,975.0"/>
    <path d="M 498.0,698.0 L 526.0,711.0 L 545.0,728.0 L 679.0,891.0 L 769.0,971.0 L 813.0,994.0 L 956.0,1015.0"/>
  </g>
</svg>
