<svg xmlns="http://www.w3.org/2000/svg" viewBox="0 0 1024 1024">
  <g style="fill:none;stroke:#000000;stroke-width:50;stroke-linecap:round;stroke-linejoin:round;" transform="scale(1, 1) translate(0, 0)">
    <path d="M 112.0,530.0 L 182.0,530.0 L 326.0,487.0 L 373.0,485.0"/>
    <path d="M 228.0,265.0 L 278.0,304.0 L 279.0,323.0 L 269.0,691.0 L 251.0,714.0"/>
    <path d="M 80.0,788.0 L 137.0,799.0 L 217.0,757.0 L 392.0,680.0"/>
    <path d="M 395.0,433.0 L 431.0,462.0 L 444.0,487.0 L 473.0,669.0 L 494.0,737.0"/>
    <path d="M 455.0,446.0 L 479.0,455.0 L 739.0,407.0 L 775.0,407.0 L 804.0,416.0 L 832.0,447.0 L 813.0,517.0 L 797.0,615.0 L 773.0,690.0 L 780.0,725.0"/>
    <path d="M 533.0,580.0 L 668.0,551.0 L 697.0,548.0 L 719.0,554.0"/>
    <path d="M 512.0,721.0 L 557.0,706.0 L 718.0,682.0 L 733.0,672.0"/>
    <path d="M 580.0,204.0 L 605.0,210.0 L 642.0,246.0 L 631.0,456.0 L 627.0,1082.0"/>
  </g>
</svg>
