<svg xmlns="http://www.w3.org/2000/svg" viewBox="0 0 1024 1024">
  <g style="fill:none;stroke:#000000;stroke-width:50;stroke-linecap:round;stroke-linejoin:round;" transform="scale(1, 1) translate(0, 0)">
    <path d="M 123.0,560.0 L 151.0,563.0 L 210.0,555.0 L 367.0,506.0 L 422.0,503.0"/>
    <path d="M 250.0,285.0 L 302.0,330.0 L 293.0,727.0 L 275.0,751.0"/>
    <path d="M 108.0,824.0 L 165.0,835.0 L 452.0,700.0"/>
    <path d="M 593.0,230.0 L 636.0,261.0 L 646.0,272.0 L 647.0,286.0 L 642.0,683.0 L 623.0,711.0"/>
    <path d="M 674.0,500.0 L 694.0,484.0 L 812.0,454.0 L 870.0,453.0"/>
    <path d="M 461.0,737.0 L 501.0,787.0 L 544.0,1004.0"/>
    <path d="M 495.0,733.0 L 541.0,749.0 L 639.0,736.0 L 747.0,711.0 L 783.0,719.0 L 813.0,748.0 L 784.0,864.0 L 758.0,881.0"/>
    <path d="M 562.0,927.0 L 582.0,939.0 L 748.0,913.0 L 793.0,915.0 L 818.0,923.0"/>
  </g>
</svg>
