<svg xmlns="http://www.w3.org/2000/svg" viewBox="0 0 1024 1024">
  <g style="fill:none;stroke:#000000;stroke-width:50;stroke-linecap:round;stroke-linejoin:round;" transform="scale(1, 1) translate(0, 0)">
    <path d="M 343.0,361.0 L 410.0,369.0 L 646.0,326.0 L 684.0,331.0"/>
    <path d="M 471.0,219.0 L 494.0,234.0 L 515.0,261.0 L 506.0,455.0 L 489.0,480.0"/>
    <path d="M 185.0,535.0 L 236.0,544.0 L 537.0,498.0 L 731.0,476.0 L 768.0,478.0 L 820.0,494.0"/>
    <path d="M 380.0,563.0 L 394.0,598.0 L 362.0,649.0 L 308.0,700.0 L 229.0,738.0"/>
    <path d="M 582.0,535.0 L 604.0,553.0 L 614.0,572.0 L 611.0,646.0 L 615.0,661.0 L 638.0,684.0 L 700.0,694.0 L 776.0,677.0 L 823.0,683.0"/>
    <path d="M 328.0,809.0 L 349.0,816.0 L 411.0,816.0 L 507.0,802.0 L 611.0,778.0 L 683.0,777.0"/>
    <path d="M 466.0,660.0 L 506.0,696.0 L 502.0,903.0 L 486.0,923.0"/>
    <path d="M 166.0,973.0 L 230.0,993.0 L 443.0,955.0 L 663.0,946.0 L 794.0,952.0 L 889.0,989.0"/>
  </g>
</svg>
