<svg xmlns="http://www.w3.org/2000/svg" viewBox="0 0 1024 1024">
  <g style="fill:none;stroke:#000000;stroke-width:50;stroke-linecap:round;stroke-linejoin:round;" transform="scale(1, 1) translate(0, 0)">
    <path d="M 110.0,588.0 L 169.0,586.0 L 328.0,532.0 L 369.0,532.0"/>
    <path d="M 220.0,313.0 L 269.0,352.0 L 271.0,371.0 L 261.0,741.0 L 241.0,766.0"/>
    <path d="M 84.0,840.0 L 141.0,847.0 L 399.0,719.0"/>
    <path d="M 775.0,298.0 L 700.0,293.0 L 656.0,330.0 L 598.0,366.0 L 520.0,407.0 L 510.0,410.0 L 502.0,404.0"/>
    <path d="M 426.0,404.0 L 465.0,432.0 L 476.0,460.0 L 484.0,576.0 L 472.0,787.0 L 476.0,829.0 L 526.0,815.0 L 630.0,735.0"/>
    <path d="M 542.0,588.0 L 619.0,583.0 L 706.0,556.0 L 775.0,526.0 L 836.0,519.0"/>
    <path d="M 621.0,386.0 L 647.0,395.0 L 663.0,423.0 L 663.0,500.0 L 677.0,583.0 L 726.0,716.0 L 790.0,817.0 L 830.0,860.0 L 868.0,887.0 L 898.0,894.0 L 905.0,884.0 L 923.0,836.0 L 941.0,736.0"/>
    <path d="M 597.0,869.0 L 685.0,907.0 L 718.0,952.0"/>
  </g>
</svg>
