<svg xmlns="http://www.w3.org/2000/svg" viewBox="0 0 1024 1024">
  <g style="fill:none;stroke:#000000;stroke-width:50;stroke-linecap:round;stroke-linejoin:round;" transform="scale(1, 1) translate(0, 0)">
    <path d="M 95.0,532.0 L 157.0,533.0 L 304.0,489.0 L 370.0,483.0"/>
    <path d="M 215.0,261.0 L 266.0,307.0 L 253.0,700.0 L 236.0,724.0"/>
    <path d="M 60.0,792.0 L 120.0,807.0 L 384.0,686.0"/>
    <path d="M 394.0,395.0 L 442.0,402.0 L 582.0,370.0 L 861.0,328.0 L 894.0,328.0 L 956.0,343.0"/>
    <path d="M 401.0,516.0 L 420.0,532.0 L 430.0,552.0 L 456.0,711.0"/>
    <path d="M 451.0,518.0 L 462.0,526.0 L 560.0,501.0 L 587.0,515.0 L 596.0,527.0 L 578.0,612.0 L 555.0,624.0"/>
    <path d="M 475.0,683.0 L 492.0,670.0 L 547.0,658.0 L 598.0,653.0 L 620.0,660.0"/>
    <path d="M 697.0,378.0 L 736.0,403.0 L 745.0,424.0 L 743.0,931.0 L 730.0,966.0 L 717.0,982.0 L 651.0,959.0 L 589.0,923.0"/>
  </g>
</svg>
