<svg xmlns="http://www.w3.org/2000/svg" viewBox="0 0 1024 1024">
  <g style="fill:none;stroke:#000000;stroke-width:50;stroke-linecap:round;stroke-linejoin:round;" transform="scale(1, 1) translate(0, 0)">
    <path d="M 287.0,387.0 L 354.0,395.0 L 524.0,369.0 L 658.0,339.0 L 701.0,340.0"/>
    <path d="M 472.0,213.0 L 501.0,259.0 L 461.0,396.0 L 411.0,506.0 L 367.0,565.0 L 311.0,615.0 L 230.0,657.0 L 212.0,659.0"/>
    <path d="M 528.0,392.0 L 547.0,405.0 L 566.0,434.0 L 556.0,528.0 L 559.0,595.0 L 572.0,627.0 L 597.0,645.0 L 629.0,654.0 L 732.0,656.0 L 791.0,647.0 L 836.0,628.0 L 842.0,591.0 L 839.0,497.0"/>
    <path d="M 677.0,416.0 L 686.0,448.0 L 655.0,483.0 L 576.0,538.0 L 498.0,576.0"/>
    <path d="M 684.0,249.0 L 766.0,291.0 L 791.0,322.0"/>
    <path d="M 284.0,807.0 L 308.0,816.0 L 373.0,818.0 L 542.0,796.0 L 658.0,770.0 L 715.0,775.0"/>
    <path d="M 470.0,663.0 L 511.0,699.0 L 503.0,917.0 L 487.0,939.0"/>
    <path d="M 156.0,978.0 L 211.0,992.0 L 531.0,962.0 L 796.0,949.0 L 852.0,954.0 L 913.0,974.0"/>
  </g>
</svg>
