<svg xmlns="http://www.w3.org/2000/svg" viewBox="0 0 1024 1024">
  <g style="fill:none;stroke:#000000;stroke-width:50;stroke-linecap:round;stroke-linejoin:round;" transform="scale(1, 1) translate(0, 0)">
    <path d="M 127.0,564.0 L 188.0,566.0 L 330.0,524.0 L 378.0,523.0"/>
    <path d="M 220.0,276.0 L 270.0,317.0 L 272.0,342.0 L 265.0,698.0 L 247.0,735.0"/>
    <path d="M 81.0,816.0 L 137.0,824.0 L 376.0,691.0"/>
    <path d="M 558.0,233.0 L 650.0,288.0 L 679.0,319.0"/>
    <path d="M 409.0,483.0 L 457.0,488.0 L 615.0,449.0 L 789.0,419.0 L 834.0,418.0 L 886.0,429.0"/>
    <path d="M 562.0,488.0 L 589.0,514.0 L 590.0,525.0 L 508.0,656.0 L 491.0,698.0 L 570.0,706.0 L 601.0,704.0 L 622.0,694.0"/>
    <path d="M 710.0,542.0 L 723.0,554.0 L 736.0,586.0 L 681.0,670.0 L 618.0,744.0 L 534.0,823.0 L 459.0,880.0 L 385.0,926.0 L 312.0,960.0"/>
    <path d="M 814.0,743.0 L 782.0,750.0 L 701.0,855.0 L 592.0,956.0 L 519.0,1007.0 L 479.0,1025.0"/>
    <path d="M 705.0,897.0 L 722.0,897.0 L 742.0,908.0 L 834.0,969.0 L 853.0,993.0 L 868.0,1027.0"/>
  </g>
</svg>
