<svg xmlns="http://www.w3.org/2000/svg" viewBox="0 0 1024 1024">
  <g style="fill:none;stroke:#000000;stroke-width:50;stroke-linecap:round;stroke-linejoin:round;" transform="scale(1, 1) translate(0, 0)">
    <path d="M 347.0,417.0 L 393.0,425.0 L 437.0,423.0 L 625.0,381.0 L 660.0,376.0 L 696.0,381.0"/>
    <path d="M 471.0,181.0 L 519.0,223.0 L 503.0,536.0 L 485.0,558.0"/>
    <path d="M 195.0,614.0 L 249.0,623.0 L 429.0,593.0 L 758.0,554.0 L 794.0,557.0 L 847.0,573.0"/>
    <path d="M 177.0,821.0 L 238.0,825.0 L 355.0,800.0 L 389.0,787.0 L 453.0,787.0"/>
    <path d="M 293.0,671.0 L 331.0,707.0 L 330.0,906.0 L 325.0,923.0 L 314.0,934.0"/>
    <path d="M 99.0,1003.0 L 158.0,1022.0 L 465.0,906.0"/>
    <path d="M 534.0,789.0 L 593.0,795.0 L 697.0,777.0 L 772.0,754.0 L 832.0,755.0"/>
    <path d="M 625.0,630.0 L 668.0,667.0 L 659.0,930.0 L 642.0,953.0"/>
    <path d="M 458.0,995.0 L 516.0,1003.0 L 591.0,989.0 L 840.0,960.0 L 919.0,979.0"/>
  </g>
</svg>
