<svg xmlns="http://www.w3.org/2000/svg" viewBox="0 0 1024 1024">
  <g style="fill:none;stroke:#000000;stroke-width:50;stroke-linecap:round;stroke-linejoin:round;" transform="scale(1, 1) translate(0, 0)">
    <path d="M 355.0,260.0 L 373.0,273.0 L 546.0,234.0 L 566.0,232.0 L 599.0,242.0 L 621.0,266.0 L 578.0,457.0 L 582.0,475.0"/>
    <path d="M 364.0,386.0 L 375.0,375.0 L 469.0,355.0 L 500.0,351.0 L 520.0,356.0"/>
    <path d="M 360.0,488.0 L 373.0,477.0 L 385.0,480.0 L 398.0,473.0 L 522.0,454.0 L 546.0,444.0"/>
    <path d="M 293.0,255.0 L 321.0,282.0 L 333.0,313.0 L 336.0,476.0 L 322.0,624.0 L 327.0,660.0 L 376.0,649.0 L 475.0,586.0"/>
    <path d="M 691.0,456.0 L 706.0,490.0 L 657.0,538.0 L 602.0,581.0 L 590.0,581.0"/>
    <path d="M 411.0,494.0 L 441.0,498.0 L 580.0,608.0 L 654.0,653.0 L 717.0,681.0 L 791.0,688.0 L 901.0,682.0"/>
    <path d="M 320.0,829.0 L 379.0,840.0 L 652.0,798.0 L 687.0,802.0"/>
    <path d="M 458.0,692.0 L 500.0,728.0 L 494.0,923.0 L 478.0,943.0"/>
    <path d="M 163.0,986.0 L 198.0,997.0 L 237.0,997.0 L 409.0,975.0 L 764.0,949.0 L 818.0,956.0 L 866.0,973.0"/>
  </g>
</svg>
