<svg xmlns="http://www.w3.org/2000/svg" viewBox="0 0 1024 1024">
  <g style="fill:none;stroke:#000000;stroke-width:50;stroke-linecap:round;stroke-linejoin:round;" transform="scale(1, 1) translate(0, 0)">
    <path d="M 127.0,566.0 L 192.0,564.0 L 338.0,516.0 L 382.0,514.0"/>
    <path d="M 234.0,268.0 L 283.0,310.0 L 277.0,732.0 L 260.0,756.0"/>
    <path d="M 82.0,840.0 L 137.0,850.0 L 349.0,743.0 L 416.0,702.0"/>
    <path d="M 482.0,337.0 L 540.0,344.0 L 744.0,299.0 L 804.0,298.0"/>
    <path d="M 446.0,505.0 L 466.0,522.0 L 480.0,545.0 L 521.0,765.0"/>
    <path d="M 499.0,507.0 L 511.0,510.0 L 715.0,465.0 L 759.0,470.0 L 780.0,485.0 L 789.0,498.0 L 788.0,509.0 L 777.0,543.0 L 756.0,672.0 L 738.0,732.0 L 743.0,752.0"/>
    <path d="M 526.0,634.0 L 558.0,620.0 L 654.0,604.0 L 691.0,609.0"/>
    <path d="M 543.0,749.0 L 551.0,736.0 L 559.0,739.0 L 702.0,716.0"/>
    <path d="M 328.0,917.0 L 390.0,935.0 L 554.0,913.0 L 848.0,885.0 L 916.0,893.0 L 960.0,912.0"/>
  </g>
</svg>
