<svg xmlns="http://www.w3.org/2000/svg" viewBox="0 0 1024 1024">
  <g style="fill:none;stroke:#000000;stroke-width:50;stroke-linecap:round;stroke-linejoin:round;" transform="scale(1, 1) translate(0, 0)">
    <path d="M 106.0,573.0 L 172.0,567.0 L 279.0,529.0 L 324.0,523.0"/>
    <path d="M 197.0,293.0 L 234.0,318.0 L 247.0,333.0 L 249.0,346.0 L 243.0,704.0 L 236.0,726.0 L 224.0,737.0"/>
    <path d="M 83.0,809.0 L 96.0,815.0 L 141.0,817.0 L 295.0,732.0 L 342.0,700.0"/>
    <path d="M 548.0,539.0 L 581.0,543.0 L 626.0,537.0 L 797.0,494.0 L 836.0,492.0 L 863.0,498.0"/>
    <path d="M 655.0,254.0 L 679.0,264.0 L 704.0,296.0 L 688.0,534.0 L 673.0,620.0 L 653.0,681.0 L 628.0,728.0 L 573.0,789.0 L 524.0,820.0"/>
    <path d="M 711.0,598.0 L 710.0,614.0 L 762.0,672.0 L 818.0,748.0 L 843.0,800.0 L 846.0,825.0"/>
    <path d="M 436.0,365.0 L 485.0,413.0 L 495.0,438.0"/>
    <path d="M 327.0,618.0 L 367.0,614.0 L 416.0,593.0 L 438.0,594.0 L 453.0,604.0 L 451.0,639.0 L 431.0,695.0 L 433.0,717.0 L 460.0,771.0 L 467.0,805.0 L 457.0,831.0 L 445.0,837.0"/>
    <path d="M 336.0,849.0 L 358.0,860.0 L 431.0,859.0 L 488.0,874.0 L 704.0,965.0 L 773.0,983.0 L 961.0,955.0"/>
  </g>
</svg>
