<svg xmlns="http://www.w3.org/2000/svg" viewBox="0 0 1024 1024">
  <g style="fill:none;stroke:#000000;stroke-width:50;stroke-linecap:round;stroke-linejoin:round;" transform="scale(1, 1) translate(0, 0)">
    <path d="M 138.0,584.0 L 208.0,581.0 L 355.0,530.0 L 390.0,522.0 L 414.0,524.0"/>
    <path d="M 268.0,261.0 L 318.0,300.0 L 319.0,309.0 L 310.0,747.0 L 309.0,758.0 L 289.0,784.0"/>
    <path d="M 108.0,873.0 L 144.0,882.0 L 174.0,880.0 L 432.0,735.0"/>
    <path d="M 473.0,382.0 L 507.0,390.0 L 547.0,389.0 L 711.0,358.0 L 792.0,336.0 L 848.0,337.0"/>
    <path d="M 552.0,416.0 L 582.0,429.0 L 591.0,443.0 L 591.0,836.0 L 590.0,859.0 L 573.0,870.0"/>
    <path d="M 668.0,393.0 L 703.0,423.0 L 710.0,514.0 L 709.0,844.0 L 692.0,857.0"/>
    <path d="M 426.0,594.0 L 483.0,653.0 L 499.0,677.0 L 506.0,706.0"/>
    <path d="M 837.0,519.0 L 848.0,530.0 L 859.0,559.0 L 733.0,672.0"/>
    <path d="M 391.0,911.0 L 443.0,921.0 L 833.0,879.0 L 893.0,884.0 L 942.0,900.0"/>
  </g>
</svg>
