<svg xmlns="http://www.w3.org/2000/svg" viewBox="0 0 1024 1024">
  <g style="fill:none;stroke:#000000;stroke-width:50;stroke-linecap:round;stroke-linejoin:round;" transform="scale(1, 1) translate(0, 0)">
    <path d="M 191.0,419.0 L 239.0,422.0 L 411.0,375.0 L 452.0,373.0"/>
    <path d="M 332.0,226.0 L 354.0,239.0 L 372.0,265.0 L 362.0,466.0 L 364.0,642.0 L 348.0,681.0 L 241.0,641.0"/>
    <path d="M 142.0,578.0 L 186.0,586.0 L 304.0,518.0 L 395.0,480.0 L 399.0,470.0 L 414.0,468.0 L 437.0,453.0"/>
    <path d="M 580.0,199.0 L 610.0,235.0 L 592.0,413.0 L 563.0,510.0 L 530.0,586.0 L 468.0,671.0"/>
    <path d="M 476.0,420.0 L 530.0,418.0 L 689.0,369.0 L 722.0,373.0 L 735.0,385.0 L 711.0,453.0 L 700.0,507.0 L 699.0,538.0 L 709.0,582.0 L 735.0,619.0 L 758.0,637.0 L 799.0,659.0 L 837.0,670.0 L 871.0,668.0 L 877.0,652.0 L 887.0,528.0 L 885.0,482.0"/>
    <path d="M 476.0,510.0 L 585.0,576.0 L 615.0,606.0 L 627.0,633.0"/>
    <path d="M 308.0,831.0 L 332.0,840.0 L 383.0,842.0 L 548.0,820.0 L 632.0,800.0 L 673.0,798.0 L 699.0,804.0"/>
    <path d="M 474.0,715.0 L 494.0,730.0 L 513.0,760.0 L 507.0,928.0 L 490.0,950.0"/>
    <path d="M 188.0,991.0 L 239.0,1003.0 L 449.0,979.0 L 763.0,960.0 L 849.0,983.0"/>
  </g>
</svg>
