<svg xmlns="http://www.w3.org/2000/svg" viewBox="0 0 1024 1024">
  <g style="fill:none;stroke:#000000;stroke-width:50;stroke-linecap:round;stroke-linejoin:round;" transform="scale(1, 1) translate(0, 0)">
    <path d="M 104.0,514.0 L 163.0,516.0 L 318.0,475.0 L 370.0,473.0"/>
    <path d="M 228.0,231.0 L 268.0,263.0 L 277.0,280.0 L 262.0,676.0 L 244.0,699.0"/>
    <path d="M 60.0,770.0 L 118.0,785.0 L 380.0,667.0"/>
    <path d="M 406.0,377.0 L 436.0,383.0 L 487.0,381.0 L 609.0,359.0 L 732.0,327.0 L 792.0,326.0"/>
    <path d="M 630.0,204.0 L 591.0,217.0 L 573.0,318.0 L 533.0,417.0 L 503.0,468.0 L 423.0,564.0 L 350.0,624.0"/>
    <path d="M 613.0,383.0 L 732.0,495.0 L 820.0,562.0 L 865.0,576.0 L 989.0,596.0"/>
    <path d="M 476.0,563.0 L 533.0,566.0 L 643.0,543.0 L 676.0,545.0"/>
    <path d="M 404.0,681.0 L 447.0,687.0 L 559.0,665.0 L 714.0,645.0 L 754.0,644.0 L 810.0,657.0"/>
    <path d="M 500.0,703.0 L 525.0,722.0 L 490.0,802.0 L 535.0,806.0 L 653.0,782.0 L 691.0,790.0 L 719.0,814.0 L 712.0,871.0 L 687.0,944.0 L 656.0,998.0 L 630.0,1025.0 L 608.0,1037.0 L 507.0,980.0"/>
  </g>
</svg>
