<svg xmlns="http://www.w3.org/2000/svg" viewBox="0 0 1024 1024">
  <g style="fill:none;stroke:#000000;stroke-width:50;stroke-linecap:round;stroke-linejoin:round;" transform="scale(1, 1) translate(0, 0)">
    <path d="M 111.0,580.0 L 159.0,584.0 L 296.0,548.0 L 340.0,544.0 L 353.0,550.0"/>
    <path d="M 200.0,285.0 L 251.0,325.0 L 253.0,350.0 L 250.0,726.0 L 248.0,752.0 L 231.0,777.0"/>
    <path d="M 65.0,862.0 L 123.0,870.0 L 364.0,731.0"/>
    <path d="M 462.0,309.0 L 531.0,315.0 L 728.0,277.0 L 772.0,278.0"/>
    <path d="M 399.0,452.0 L 432.0,493.0 L 472.0,698.0"/>
    <path d="M 434.0,452.0 L 470.0,462.0 L 722.0,418.0 L 763.0,418.0 L 786.0,426.0 L 812.0,457.0 L 774.0,595.0 L 747.0,662.0 L 719.0,662.0"/>
    <path d="M 508.0,561.0 L 652.0,536.0 L 703.0,541.0"/>
    <path d="M 488.0,677.0 L 510.0,667.0 L 558.0,664.0 L 720.0,635.0"/>
    <path d="M 546.0,340.0 L 590.0,357.0 L 604.0,379.0 L 596.0,677.0 L 568.0,803.0 L 540.0,853.0 L 476.0,912.0 L 407.0,951.0 L 316.0,985.0"/>
    <path d="M 408.0,738.0 L 438.0,746.0 L 469.0,765.0 L 632.0,910.0 L 763.0,996.0 L 816.0,1013.0 L 971.0,1009.0"/>
  </g>
</svg>
