<svg xmlns="http://www.w3.org/2000/svg" viewBox="0 0 1024 1024">
  <g style="fill:none;stroke:#000000;stroke-width:50;stroke-linecap:round;stroke-linejoin:round;" transform="scale(1, 1) translate(0, 0)">
    <path d="M 129.0,548.0 L 204.0,547.0 L 363.0,502.0 L 411.0,500.0"/>
    <path d="M 251.0,260.0 L 288.0,287.0 L 304.0,309.0 L 294.0,710.0 L 273.0,735.0"/>
    <path d="M 111.0,817.0 L 172.0,825.0 L 434.0,681.0"/>
    <path d="M 554.0,152.0 L 577.0,182.0 L 580.0,191.0 L 574.0,203.0 L 490.0,326.0 L 400.0,416.0"/>
    <path d="M 551.0,280.0 L 661.0,265.0 L 701.0,281.0 L 667.0,342.0 L 555.0,469.0 L 444.0,560.0 L 363.0,607.0"/>
    <path d="M 488.0,354.0 L 525.0,373.0 L 563.0,406.0 L 646.0,461.0 L 742.0,517.0 L 829.0,558.0 L 893.0,567.0 L 996.0,562.0"/>
    <path d="M 435.0,640.0 L 497.0,643.0 L 688.0,609.0 L 732.0,611.0"/>
    <path d="M 452.0,744.0 L 551.0,733.0 L 669.0,707.0 L 729.0,712.0"/>
    <path d="M 317.0,849.0 L 375.0,853.0 L 505.0,828.0 L 736.0,798.0 L 806.0,796.0 L 858.0,807.0"/>
    <path d="M 553.0,538.0 L 568.0,547.0 L 593.0,577.0 L 586.0,1115.0"/>
  </g>
</svg>
