<svg xmlns="http://www.w3.org/2000/svg" viewBox="0 0 1024 1024">
  <g style="fill:none;stroke:#000000;stroke-width:50;stroke-linecap:round;stroke-linejoin:round;" transform="scale(1, 1) translate(0, 0)">
    <path d="M 106.0,572.0 L 140.0,575.0 L 176.0,569.0 L 277.0,535.0 L 306.0,529.0 L 332.0,533.0"/>
    <path d="M 199.0,289.0 L 245.0,327.0 L 247.0,346.0 L 237.0,730.0 L 220.0,754.0"/>
    <path d="M 69.0,827.0 L 132.0,834.0 L 326.0,727.0"/>
    <path d="M 354.0,379.0 L 383.0,419.0 L 384.0,440.0 L 388.0,562.0 L 371.0,813.0 L 377.0,863.0"/>
    <path d="M 398.0,385.0 L 419.0,390.0 L 491.0,359.0 L 521.0,366.0 L 540.0,383.0 L 540.0,705.0 L 534.0,800.0 L 527.0,823.0 L 532.0,872.0"/>
    <path d="M 407.0,598.0 L 420.0,586.0 L 481.0,580.0"/>
    <path d="M 402.0,825.0 L 418.0,808.0 L 484.0,800.0"/>
    <path d="M 582.0,524.0 L 624.0,531.0 L 872.0,479.0 L 926.0,484.0"/>
    <path d="M 746.0,239.0 L 794.0,278.0 L 789.0,464.0 L 802.0,922.0 L 796.0,954.0 L 780.0,986.0 L 735.0,970.0 L 683.0,944.0 L 664.0,926.0 L 654.0,926.0"/>
    <path d="M 603.0,638.0 L 664.0,688.0 L 684.0,731.0"/>
  </g>
</svg>
