<svg xmlns="http://www.w3.org/2000/svg" viewBox="0 0 1024 1024">
  <g style="fill:none;stroke:#000000;stroke-width:50;stroke-linecap:round;stroke-linejoin:round;" transform="scale(1, 1) translate(0, 0)">
    <path d="M 129.0,548.0 L 204.0,547.0 L 363.0,502.0 L 411.0,500.0"/>
    <path d="M 251.0,260.0 L 288.0,287.0 L 304.0,309.0 L 294.0,710.0 L 273.0,735.0"/>
    <path d="M 111.0,817.0 L 172.0,825.0 L 434.0,681.0"/>
    <path d="M 612.0,201.0 L 650.0,234.0 L 655.0,253.0 L 647.0,463.0 L 632.0,477.0"/>
    <path d="M 681.0,341.0 L 717.0,323.0 L 769.0,309.0 L 824.0,301.0 L 850.0,306.0"/>
    <path d="M 467.0,357.0 L 504.0,387.0 L 527.0,487.0 L 516.0,497.0"/>
    <path d="M 414.0,539.0 L 468.0,541.0 L 608.0,507.0 L 878.0,461.0 L 942.0,474.0"/>
    <path d="M 631.0,526.0 L 656.0,546.0 L 659.0,560.0 L 658.0,717.0 L 650.0,747.0 L 637.0,768.0 L 601.0,757.0 L 543.0,727.0"/>
    <path d="M 494.0,615.0 L 478.0,686.0 L 443.0,764.0"/>
    <path d="M 804.0,591.0 L 826.0,642.0 L 763.0,769.0 L 693.0,867.0 L 602.0,958.0 L 541.0,1002.0 L 438.0,1062.0 L 350.0,1098.0"/>
  </g>
</svg>
