<svg xmlns="http://www.w3.org/2000/svg" viewBox="0 0 1024 1024">
  <g style="fill:none;stroke:#000000;stroke-width:50;stroke-linecap:round;stroke-linejoin:round;" transform="scale(1, 1) translate(0, 0)">
    <path d="M 107.0,562.0 L 170.0,561.0 L 300.0,523.0 L 361.0,517.0"/>
    <path d="M 218.0,279.0 L 266.0,320.0 L 267.0,335.0 L 255.0,687.0 L 254.0,698.0 L 236.0,723.0"/>
    <path d="M 86.0,794.0 L 144.0,802.0 L 376.0,679.0"/>
    <path d="M 438.0,417.0 L 484.0,419.0 L 616.0,392.0 L 689.0,370.0 L 724.0,376.0 L 749.0,403.0 L 716.0,538.0 L 695.0,555.0"/>
    <path d="M 400.0,528.0 L 451.0,533.0 L 646.0,490.0 L 804.0,465.0 L 849.0,463.0 L 906.0,474.0"/>
    <path d="M 445.0,627.0 L 459.0,631.0 L 492.0,626.0 L 691.0,583.0 L 746.0,589.0"/>
    <path d="M 546.0,223.0 L 573.0,240.0 L 593.0,262.0 L 586.0,468.0 L 592.0,932.0 L 586.0,963.0 L 570.0,994.0 L 502.0,970.0 L 462.0,952.0 L 460.0,945.0 L 449.0,945.0"/>
    <path d="M 405.0,709.0 L 477.0,743.0 L 498.0,769.0"/>
    <path d="M 326.0,908.0 L 365.0,923.0 L 374.0,919.0 L 512.0,815.0"/>
    <path d="M 749.0,646.0 L 765.0,680.0 L 688.0,750.0 L 674.0,759.0 L 667.0,757.0"/>
    <path d="M 616.0,729.0 L 627.0,758.0 L 649.0,784.0 L 723.0,859.0 L 790.0,915.0 L 933.0,940.0"/>
  </g>
</svg>
