<svg xmlns="http://www.w3.org/2000/svg" viewBox="0 0 1024 1024">
  <g style="fill:none;stroke:#000000;stroke-width:50;stroke-linecap:round;stroke-linejoin:round;" transform="scale(1, 1) translate(0, 0)">
    <path d="M 119.0,530.0 L 191.0,527.0 L 338.0,481.0 L 385.0,477.0"/>
    <path d="M 239.0,265.0 L 289.0,306.0 L 278.0,672.0 L 275.0,686.0 L 257.0,707.0"/>
    <path d="M 98.0,784.0 L 158.0,792.0 L 339.0,700.0 L 399.0,662.0"/>
    <path d="M 578.0,185.0 L 608.0,218.0 L 550.0,311.0 L 524.0,343.0 L 517.0,343.0"/>
    <path d="M 428.0,363.0 L 450.0,382.0 L 462.0,409.0 L 500.0,594.0"/>
    <path d="M 477.0,369.0 L 510.0,377.0 L 667.0,343.0 L 743.0,334.0 L 780.0,340.0 L 808.0,375.0 L 747.0,568.0"/>
    <path d="M 535.0,469.0 L 572.0,466.0 L 671.0,443.0 L 700.0,448.0"/>
    <path d="M 520.0,581.0 L 527.0,574.0 L 629.0,553.0 L 711.0,543.0 L 729.0,533.0"/>
    <path d="M 593.0,377.0 L 618.0,398.0 L 594.0,540.0 L 559.0,630.0 L 499.0,709.0"/>
    <path d="M 366.0,756.0 L 420.0,761.0 L 606.0,726.0 L 811.0,697.0 L 872.0,695.0 L 928.0,708.0"/>
    <path d="M 616.0,618.0 L 629.0,624.0 L 653.0,653.0 L 643.0,1054.0"/>
  </g>
</svg>
