<svg xmlns="http://www.w3.org/2000/svg" viewBox="0 0 1024 1024">
  <g style="fill:none;stroke:#000000;stroke-width:50;stroke-linecap:round;stroke-linejoin:round;" transform="scale(1, 1) translate(0, 0)">
    <path d="M 100.0,569.0 L 158.0,572.0 L 295.0,531.0 L 357.0,525.0"/>
    <path d="M 196.0,289.0 L 246.0,330.0 L 237.0,720.0 L 219.0,746.0"/>
    <path d="M 49.0,827.0 L 106.0,837.0 L 368.0,695.0"/>
    <path d="M 776.0,270.0 L 759.0,261.0 L 708.0,253.0 L 635.0,292.0 L 551.0,317.0 L 542.0,325.0 L 505.0,330.0 L 498.0,337.0 L 466.0,345.0 L 452.0,342.0 L 441.0,350.0"/>
    <path d="M 453.0,452.0 L 526.0,457.0 L 727.0,416.0 L 794.0,412.0"/>
    <path d="M 569.0,341.0 L 599.0,353.0 L 622.0,381.0 L 614.0,935.0 L 593.0,957.0"/>
    <path d="M 361.0,660.0 L 397.0,668.0 L 562.0,640.0 L 865.0,604.0 L 922.0,609.0 L 953.0,620.0"/>
    <path d="M 440.0,552.0 L 478.0,581.0 L 512.0,761.0"/>
    <path d="M 752.0,470.0 L 767.0,478.0 L 787.0,507.0 L 752.0,641.0 L 714.0,742.0"/>
    <path d="M 436.0,842.0 L 480.0,851.0 L 701.0,814.0 L 740.0,812.0 L 778.0,819.0"/>
    <path d="M 334.0,995.0 L 393.0,1006.0 L 652.0,977.0 L 793.0,968.0 L 851.0,974.0 L 897.0,990.0"/>
  </g>
</svg>
