<svg xmlns="http://www.w3.org/2000/svg" viewBox="0 0 1024 1024">
  <g style="fill:none;stroke:#000000;stroke-width:50;stroke-linecap:round;stroke-linejoin:round;" transform="scale(1, 1) translate(0, 0)">
    <path d="M 228.0,367.0 L 250.0,372.0 L 289.0,369.0 L 413.0,335.0 L 466.0,333.0"/>
    <path d="M 310.0,183.0 L 340.0,206.0 L 352.0,231.0 L 343.0,434.0 L 326.0,462.0"/>
    <path d="M 76.0,528.0 L 130.0,535.0 L 398.0,467.0 L 474.0,453.0 L 511.0,455.0"/>
    <path d="M 229.0,565.0 L 258.0,597.0 L 270.0,621.0"/>
    <path d="M 380.0,496.0 L 396.0,507.0 L 409.0,532.0 L 369.0,628.0 L 350.0,646.0"/>
    <path d="M 192.0,702.0 L 266.0,698.0 L 383.0,662.0 L 441.0,654.0"/>
    <path d="M 76.0,832.0 L 129.0,839.0 L 388.0,773.0 L 454.0,764.0 L 475.0,767.0"/>
    <path d="M 309.0,711.0 L 329.0,727.0 L 319.0,988.0 L 329.0,1064.0"/>
    <path d="M 608.0,236.0 L 648.0,277.0 L 632.0,486.0 L 604.0,629.0 L 545.0,790.0 L 505.0,862.0 L 432.0,959.0"/>
    <path d="M 532.0,482.0 L 551.0,487.0 L 592.0,484.0 L 667.0,462.0 L 747.0,429.0 L 774.0,428.0 L 790.0,434.0 L 795.0,439.0 L 793.0,454.0 L 768.0,556.0 L 753.0,691.0 L 754.0,753.0 L 772.0,834.0 L 807.0,890.0 L 852.0,934.0 L 887.0,952.0 L 920.0,955.0 L 934.0,917.0 L 948.0,829.0 L 953.0,826.0"/>
    <path d="M 514.0,610.0 L 637.0,715.0 L 661.0,744.0 L 675.0,778.0"/>
  </g>
</svg>
