<svg xmlns="http://www.w3.org/2000/svg" viewBox="0 0 1024 1024">
  <g style="fill:none;stroke:#000000;stroke-width:50;stroke-linecap:round;stroke-linejoin:round;" transform="scale(1, 1) translate(0, 0)">
    <path d="M 119.0,542.0 L 148.0,544.0 L 206.0,535.0 L 326.0,493.0 L 380.0,490.0"/>
    <path d="M 223.0,265.0 L 271.0,307.0 L 261.0,698.0 L 244.0,722.0"/>
    <path d="M 82.0,798.0 L 140.0,807.0 L 356.0,691.0"/>
    <path d="M 509.0,293.0 L 523.0,304.0 L 540.0,302.0 L 713.0,263.0 L 741.0,265.0 L 777.0,295.0 L 753.0,354.0 L 725.0,372.0"/>
    <path d="M 493.0,452.0 L 544.0,434.0 L 713.0,400.0 L 782.0,404.0"/>
    <path d="M 444.0,279.0 L 474.0,310.0 L 476.0,356.0 L 453.0,533.0 L 417.0,685.0 L 385.0,767.0 L 337.0,859.0 L 300.0,915.0 L 244.0,979.0"/>
    <path d="M 502.0,548.0 L 527.0,581.0 L 520.0,694.0 L 562.0,692.0 L 692.0,657.0 L 747.0,649.0 L 760.0,639.0"/>
    <path d="M 791.0,498.0 L 816.0,536.0 L 784.0,695.0"/>
    <path d="M 619.0,479.0 L 662.0,513.0 L 663.0,528.0 L 654.0,852.0 L 638.0,874.0"/>
    <path d="M 470.0,767.0 L 497.0,813.0 L 481.0,924.0 L 527.0,925.0 L 586.0,908.0 L 755.0,881.0 L 793.0,880.0 L 806.0,892.0"/>
    <path d="M 790.0,745.0 L 824.0,776.0 L 841.0,973.0"/>
  </g>
</svg>
