<svg xmlns="http://www.w3.org/2000/svg" viewBox="0 0 1024 1024">
  <g style="fill:none;stroke:#000000;stroke-width:50;stroke-linecap:round;stroke-linejoin:round;" transform="scale(1, 1) translate(0, 0)">
    <path d="M 115.0,550.0 L 158.0,551.0 L 303.0,508.0 L 346.0,506.0"/>
    <path d="M 215.0,289.0 L 262.0,327.0 L 254.0,691.0 L 236.0,725.0"/>
    <path d="M 82.0,794.0 L 140.0,803.0 L 360.0,691.0"/>
    <path d="M 470.0,270.0 L 492.0,274.0 L 550.0,268.0 L 687.0,234.0 L 714.0,241.0 L 736.0,263.0 L 703.0,389.0 L 684.0,398.0"/>
    <path d="M 479.0,369.0 L 626.0,340.0 L 656.0,344.0"/>
    <path d="M 471.0,460.0 L 505.0,462.0 L 668.0,430.0 L 711.0,428.0 L 735.0,436.0"/>
    <path d="M 405.0,526.0 L 417.0,557.0 L 386.0,643.0 L 382.0,674.0"/>
    <path d="M 440.0,578.0 L 577.0,543.0 L 787.0,511.0 L 817.0,520.0 L 840.0,544.0 L 788.0,615.0"/>
    <path d="M 452.0,675.0 L 474.0,705.0 L 477.0,724.0 L 472.0,864.0 L 479.0,891.0"/>
    <path d="M 504.0,713.0 L 514.0,704.0 L 537.0,698.0 L 669.0,671.0 L 731.0,666.0 L 751.0,686.0 L 752.0,696.0 L 752.0,811.0 L 745.0,852.0 L 735.0,870.0 L 659.0,845.0"/>
    <path d="M 573.0,594.0 L 607.0,625.0 L 608.0,637.0 L 603.0,1066.0"/>
  </g>
</svg>
