<svg xmlns="http://www.w3.org/2000/svg" viewBox="0 0 1024 1024">
  <g style="fill:none;stroke:#000000;stroke-width:50;stroke-linecap:round;stroke-linejoin:round;" transform="scale(1, 1) translate(0, 0)">
    <path d="M 264.0,337.0 L 323.0,348.0 L 390.0,344.0 L 682.0,296.0 L 738.0,297.0"/>
    <path d="M 337.0,222.0 L 381.0,271.0 L 389.0,603.0 L 374.0,620.0"/>
    <path d="M 568.0,167.0 L 616.0,211.0 L 600.0,577.0 L 581.0,601.0"/>
    <path d="M 411.0,466.0 L 425.0,455.0 L 498.0,441.0 L 522.0,439.0 L 543.0,445.0"/>
    <path d="M 417.0,557.0 L 425.0,545.0 L 478.0,535.0 L 518.0,531.0 L 539.0,537.0"/>
    <path d="M 162.0,660.0 L 218.0,669.0 L 460.0,637.0 L 765.0,613.0 L 851.0,633.0"/>
    <path d="M 331.0,677.0 L 354.0,708.0 L 282.0,803.0 L 181.0,890.0 L 103.0,936.0 L 64.0,952.0"/>
    <path d="M 576.0,651.0 L 603.0,665.0 L 706.0,768.0 L 796.0,837.0 L 858.0,854.0 L 989.0,873.0"/>
    <path d="M 327.0,855.0 L 404.0,862.0 L 602.0,828.0 L 641.0,833.0"/>
    <path d="M 456.0,718.0 L 496.0,752.0 L 489.0,960.0 L 475.0,977.0"/>
    <path d="M 222.0,1016.0 L 279.0,1026.0 L 519.0,998.0 L 677.0,988.0 L 726.0,991.0 L 778.0,1009.0"/>
  </g>
</svg>
