<svg xmlns="http://www.w3.org/2000/svg" viewBox="0 0 1024 1024">
  <g style="fill:none;stroke:#000000;stroke-width:50;stroke-linecap:round;stroke-linejoin:round;" transform="scale(1, 1) translate(0, 0)">
    <path d="M 124.0,526.0 L 183.0,527.0 L 321.0,490.0 L 382.0,485.0"/>
    <path d="M 239.0,269.0 L 286.0,307.0 L 287.0,319.0 L 277.0,685.0 L 260.0,709.0"/>
    <path d="M 98.0,786.0 L 156.0,796.0 L 391.0,671.0"/>
    <path d="M 476.0,262.0 L 496.0,282.0 L 505.0,303.0 L 533.0,519.0"/>
    <path d="M 529.0,291.0 L 546.0,273.0 L 684.0,248.0 L 713.0,255.0 L 737.0,280.0 L 699.0,467.0 L 690.0,478.0 L 669.0,478.0"/>
    <path d="M 544.0,389.0 L 552.0,379.0 L 597.0,365.0 L 649.0,365.0"/>
    <path d="M 551.0,483.0 L 563.0,473.0 L 666.0,457.0"/>
    <path d="M 496.0,540.0 L 518.0,567.0 L 508.0,594.0 L 439.0,693.0 L 402.0,733.0 L 381.0,747.0"/>
    <path d="M 515.0,631.0 L 536.0,622.0 L 641.0,610.0 L 784.0,580.0 L 823.0,587.0 L 848.0,616.0 L 818.0,826.0 L 800.0,896.0 L 770.0,964.0 L 747.0,988.0 L 722.0,998.0 L 621.0,940.0"/>
    <path d="M 541.0,638.0 L 559.0,661.0 L 563.0,676.0 L 543.0,715.0 L 469.0,806.0 L 419.0,843.0"/>
    <path d="M 663.0,624.0 L 695.0,651.0 L 674.0,709.0 L 638.0,777.0 L 573.0,871.0 L 535.0,913.0 L 466.0,970.0"/>
  </g>
</svg>
