<svg xmlns="http://www.w3.org/2000/svg" viewBox="0 0 1024 1024">
  <g style="fill:none;stroke:#000000;stroke-width:50;stroke-linecap:round;stroke-linejoin:round;" transform="scale(1, 1) translate(0, 0)">
    <path d="M 208.0,361.0 L 247.0,372.0 L 272.0,372.0 L 414.0,359.0 L 729.0,317.0 L 781.0,315.0 L 824.0,324.0"/>
    <path d="M 352.0,252.0 L 372.0,257.0 L 397.0,277.0 L 435.0,491.0"/>
    <path d="M 594.0,193.0 L 626.0,233.0 L 587.0,407.0 L 569.0,425.0"/>
    <path d="M 450.0,477.0 L 461.0,466.0 L 558.0,449.0 L 593.0,448.0 L 616.0,454.0"/>
    <path d="M 268.0,559.0 L 299.0,582.0 L 339.0,722.0"/>
    <path d="M 329.0,563.0 L 347.0,574.0 L 547.0,551.0 L 642.0,531.0 L 686.0,528.0 L 705.0,537.0 L 726.0,564.0 L 701.0,622.0 L 675.0,632.0"/>
    <path d="M 356.0,710.0 L 371.0,697.0 L 659.0,665.0 L 706.0,668.0 L 728.0,677.0"/>
    <path d="M 331.0,780.0 L 360.0,788.0 L 406.0,789.0 L 546.0,773.0 L 643.0,753.0 L 696.0,756.0"/>
    <path d="M 347.0,881.0 L 387.0,889.0 L 434.0,888.0 L 544.0,874.0 L 626.0,855.0 L 677.0,859.0"/>
    <path d="M 473.0,488.0 L 507.0,510.0 L 515.0,556.0 L 510.0,913.0 L 507.0,942.0 L 493.0,955.0"/>
    <path d="M 198.0,995.0 L 257.0,1007.0 L 420.0,986.0 L 776.0,963.0 L 809.0,968.0 L 857.0,986.0"/>
  </g>
</svg>
