<svg xmlns="http://www.w3.org/2000/svg" viewBox="0 0 1024 1024">
  <g style="fill:none;stroke:#000000;stroke-width:50;stroke-linecap:round;stroke-linejoin:round;" transform="scale(1, 1) translate(0, 0)">
    <path d="M 327.0,229.0 L 339.0,240.0 L 356.0,276.0 L 326.0,328.0 L 235.0,451.0 L 156.0,534.0 L 100.0,579.0"/>
    <path d="M 298.0,415.0 L 309.0,458.0 L 294.0,672.0 L 299.0,733.0"/>
    <path d="M 444.0,252.0 L 465.0,268.0 L 477.0,288.0 L 508.0,418.0"/>
    <path d="M 487.0,250.0 L 496.0,258.0 L 521.0,260.0 L 686.0,228.0 L 699.0,231.0 L 729.0,262.0 L 700.0,324.0 L 674.0,341.0"/>
    <path d="M 524.0,400.0 L 540.0,390.0 L 663.0,367.0 L 711.0,365.0 L 731.0,371.0"/>
    <path d="M 388.0,509.0 L 431.0,515.0 L 527.0,496.0 L 764.0,464.0 L 815.0,468.0 L 846.0,477.0"/>
    <path d="M 574.0,404.0 L 597.0,424.0 L 597.0,652.0 L 609.0,721.0"/>
    <path d="M 571.0,514.0 L 512.0,590.0 L 467.0,629.0 L 403.0,672.0 L 362.0,689.0"/>
    <path d="M 624.0,509.0 L 630.0,510.0 L 633.0,525.0 L 681.0,569.0 L 778.0,642.0 L 865.0,658.0 L 934.0,662.0"/>
    <path d="M 320.0,841.0 L 342.0,849.0 L 405.0,852.0 L 497.0,842.0 L 635.0,816.0 L 706.0,817.0"/>
    <path d="M 465.0,721.0 L 507.0,757.0 L 505.0,942.0 L 489.0,963.0"/>
    <path d="M 164.0,1003.0 L 218.0,1015.0 L 386.0,996.0 L 800.0,972.0 L 847.0,978.0 L 897.0,996.0"/>
  </g>
</svg>
