<svg xmlns="http://www.w3.org/2000/svg" viewBox="0 0 1024 1024">
  <g style="fill:none;stroke:#000000;stroke-width:50;stroke-linecap:round;stroke-linejoin:round;" transform="scale(1, 1) translate(0, 0)">
    <path d="M 115.0,562.0 L 180.0,560.0 L 311.0,514.0 L 374.0,506.0"/>
    <path d="M 224.0,272.0 L 264.0,302.0 L 274.0,313.0 L 275.0,324.0 L 268.0,714.0 L 251.0,739.0"/>
    <path d="M 84.0,821.0 L 106.0,829.0 L 143.0,831.0 L 376.0,699.0"/>
    <path d="M 429.0,436.0 L 453.0,443.0 L 535.0,438.0 L 809.0,379.0 L 866.0,376.0"/>
    <path d="M 491.0,268.0 L 532.0,318.0 L 538.0,419.0 L 538.0,701.0 L 522.0,715.0"/>
    <path d="M 690.0,192.0 L 740.0,234.0 L 742.0,257.0 L 726.0,659.0 L 708.0,686.0"/>
    <path d="M 562.0,541.0 L 591.0,525.0 L 654.0,515.0 L 672.0,519.0"/>
    <path d="M 565.0,634.0 L 572.0,622.0 L 620.0,611.0 L 658.0,606.0 L 677.0,611.0"/>
    <path d="M 372.0,756.0 L 424.0,762.0 L 615.0,722.0 L 872.0,685.0 L 922.0,688.0 L 953.0,698.0"/>
    <path d="M 587.0,782.0 L 601.0,804.0 L 587.0,836.0 L 544.0,893.0 L 526.0,910.0 L 513.0,912.0 L 510.0,920.0"/>
    <path d="M 711.0,766.0 L 771.0,823.0 L 792.0,850.0 L 801.0,878.0"/>
    <path d="M 440.0,784.0 L 470.0,800.0 L 474.0,818.0 L 457.0,1001.0 L 484.0,1003.0 L 625.0,972.0 L 762.0,958.0 L 844.0,956.0 L 897.0,975.0"/>
  </g>
</svg>
