<svg xmlns="http://www.w3.org/2000/svg" viewBox="0 0 1024 1024">
  <g style="fill:none;stroke:#000000;stroke-width:50;stroke-linecap:round;stroke-linejoin:round;" transform="scale(1, 1) translate(0, 0)">
    <path d="M 98.0,558.0 L 149.0,557.0 L 284.0,508.0 L 347.0,498.0"/>
    <path d="M 201.0,277.0 L 247.0,316.0 L 242.0,688.0 L 241.0,701.0 L 225.0,726.0"/>
    <path d="M 59.0,818.0 L 116.0,824.0 L 379.0,663.0"/>
    <path d="M 444.0,289.0 L 451.0,287.0 L 458.0,295.0 L 477.0,300.0 L 532.0,297.0 L 658.0,276.0 L 766.0,250.0 L 820.0,252.0"/>
    <path d="M 519.0,395.0 L 544.0,418.0 L 552.0,438.0 L 580.0,587.0"/>
    <path d="M 565.0,399.0 L 587.0,403.0 L 630.0,388.0 L 716.0,372.0 L 737.0,370.0 L 765.0,377.0 L 786.0,403.0 L 743.0,558.0 L 747.0,574.0"/>
    <path d="M 593.0,496.0 L 597.0,487.0 L 616.0,482.0 L 680.0,473.0 L 693.0,476.0"/>
    <path d="M 598.0,576.0 L 616.0,566.0 L 701.0,551.0 L 715.0,541.0"/>
    <path d="M 609.0,584.0 L 630.0,605.0 L 572.0,739.0 L 568.0,761.0 L 731.0,841.0 L 759.0,861.0 L 793.0,899.0"/>
    <path d="M 708.0,624.0 L 726.0,644.0 L 731.0,662.0 L 712.0,725.0 L 683.0,781.0 L 649.0,823.0 L 623.0,844.0 L 576.0,869.0 L 527.0,886.0"/>
    <path d="M 451.0,697.0 L 492.0,704.0 L 640.0,675.0 L 870.0,649.0 L 933.0,661.0"/>
    <path d="M 385.0,269.0 L 412.0,297.0 L 423.0,329.0 L 425.0,626.0 L 410.0,990.0 L 471.0,990.0 L 576.0,968.0 L 838.0,951.0 L 875.0,952.0 L 910.0,966.0"/>
  </g>
</svg>
