<svg xmlns="http://www.w3.org/2000/svg" viewBox="0 0 1024 1024">
  <g style="fill:none;stroke:#000000;stroke-width:50;stroke-linecap:round;stroke-linejoin:round;" transform="scale(1, 1) translate(0, 0)">
    <path d="M 392.0,303.0 L 454.0,307.0 L 599.0,272.0 L 641.0,272.0"/>
    <path d="M 474.0,152.0 L 513.0,188.0 L 510.0,353.0 L 493.0,376.0"/>
    <path d="M 337.0,424.0 L 380.0,423.0 L 525.0,389.0 L 651.0,368.0 L 723.0,377.0"/>
    <path d="M 203.0,578.0 L 251.0,580.0 L 375.0,541.0 L 418.0,539.0"/>
    <path d="M 279.0,474.0 L 315.0,505.0 L 317.0,623.0 L 303.0,649.0"/>
    <path d="M 131.0,702.0 L 177.0,715.0 L 417.0,637.0 L 445.0,622.0"/>
    <path d="M 537.0,522.0 L 560.0,529.0 L 601.0,527.0 L 726.0,498.0 L 771.0,498.0"/>
    <path d="M 608.0,437.0 L 634.0,459.0 L 642.0,479.0 L 639.0,582.0 L 624.0,606.0"/>
    <path d="M 480.0,635.0 L 525.0,643.0 L 769.0,607.0 L 823.0,614.0"/>
    <path d="M 247.0,777.0 L 300.0,785.0 L 610.0,728.0 L 655.0,726.0 L 686.0,732.0"/>
    <path d="M 367.0,806.0 L 386.0,826.0 L 355.0,883.0 L 292.0,959.0 L 206.0,1025.0 L 109.0,1067.0"/>
    <path d="M 492.0,778.0 L 511.0,791.0 L 519.0,805.0 L 509.0,928.0 L 519.0,997.0 L 545.0,1027.0 L 609.0,1054.0 L 681.0,1062.0 L 751.0,1056.0 L 823.0,1038.0 L 856.0,1021.0 L 878.0,1002.0 L 895.0,869.0"/>
  </g>
</svg>
