<svg xmlns="http://www.w3.org/2000/svg" viewBox="0 0 1024 1024">
  <g style="fill:none;stroke:#000000;stroke-width:50;stroke-linecap:round;stroke-linejoin:round;" transform="scale(1, 1) translate(0, 0)">
    <path d="M 215.0,391.0 L 281.0,390.0 L 412.0,353.0 L 455.0,353.0"/>
    <path d="M 317.0,186.0 L 359.0,222.0 L 346.0,460.0 L 330.0,480.0"/>
    <path d="M 75.0,555.0 L 107.0,562.0 L 138.0,559.0 L 400.0,484.0 L 467.0,473.0 L 487.0,475.0"/>
    <path d="M 238.0,583.0 L 275.0,640.0 L 273.0,656.0"/>
    <path d="M 396.0,508.0 L 413.0,525.0 L 415.0,536.0 L 384.0,615.0 L 370.0,631.0"/>
    <path d="M 190.0,689.0 L 240.0,690.0 L 390.0,648.0 L 438.0,648.0"/>
    <path d="M 58.0,851.0 L 112.0,855.0 L 389.0,765.0 L 459.0,750.0 L 481.0,752.0"/>
    <path d="M 305.0,693.0 L 327.0,716.0 L 327.0,853.0 L 319.0,972.0 L 330.0,1034.0"/>
    <path d="M 563.0,347.0 L 592.0,353.0 L 671.0,321.0 L 732.0,304.0 L 755.0,306.0 L 774.0,322.0 L 757.0,437.0 L 731.0,498.0 L 705.0,523.0 L 635.0,478.0"/>
    <path d="M 503.0,329.0 L 536.0,371.0 L 544.0,441.0 L 538.0,777.0 L 522.0,936.0 L 528.0,1005.0"/>
    <path d="M 570.0,659.0 L 577.0,653.0 L 623.0,648.0 L 742.0,618.0 L 763.0,625.0 L 777.0,643.0 L 765.0,718.0 L 750.0,764.0 L 725.0,819.0 L 694.0,860.0 L 652.0,891.0 L 597.0,916.0 L 568.0,922.0 L 559.0,931.0"/>
    <path d="M 562.0,711.0 L 577.0,710.0 L 606.0,730.0 L 723.0,857.0 L 816.0,924.0 L 888.0,941.0 L 980.0,953.0"/>
  </g>
</svg>
