<svg xmlns="http://www.w3.org/2000/svg" viewBox="0 0 1024 1024">
  <g style="fill:none;stroke:#000000;stroke-width:50;stroke-linecap:round;stroke-linejoin:round;" transform="scale(1, 1) translate(0, 0)">
    <path d="M 115.0,564.0 L 175.0,566.0 L 327.0,521.0 L 374.0,519.0"/>
    <path d="M 232.0,285.0 L 254.0,298.0 L 282.0,327.0 L 273.0,704.0 L 255.0,728.0"/>
    <path d="M 88.0,800.0 L 145.0,810.0 L 399.0,691.0"/>
    <path d="M 452.0,426.0 L 509.0,430.0 L 657.0,393.0 L 703.0,395.0"/>
    <path d="M 556.0,223.0 L 600.0,261.0 L 587.0,529.0 L 570.0,555.0"/>
    <path d="M 377.0,607.0 L 432.0,611.0 L 793.0,542.0 L 854.0,543.0 L 889.0,553.0"/>
    <path d="M 764.0,275.0 L 784.0,302.0 L 793.0,334.0 L 714.0,477.0 L 632.0,590.0 L 511.0,730.0 L 426.0,813.0 L 308.0,913.0 L 216.0,972.0"/>
    <path d="M 493.0,682.0 L 511.0,700.0 L 521.0,729.0 L 522.0,850.0 L 510.0,960.0 L 512.0,1005.0"/>
    <path d="M 548.0,722.0 L 588.0,698.0 L 710.0,659.0 L 727.0,663.0 L 753.0,685.0 L 768.0,925.0 L 756.0,969.0 L 761.0,1026.0"/>
    <path d="M 550.0,833.0 L 559.0,822.0 L 633.0,806.0 L 661.0,804.0 L 683.0,810.0"/>
    <path d="M 542.0,965.0 L 565.0,950.0 L 672.0,936.0 L 707.0,939.0"/>
  </g>
</svg>
