<svg xmlns="http://www.w3.org/2000/svg" viewBox="0 0 1024 1024">
  <g style="fill:none;stroke:#000000;stroke-width:50;stroke-linecap:round;stroke-linejoin:round;" transform="scale(1, 1) translate(0, 0)">
    <path d="M 124.0,542.0 L 183.0,543.0 L 333.0,503.0 L 382.0,501.0"/>
    <path d="M 238.0,260.0 L 286.0,299.0 L 288.0,324.0 L 281.0,689.0 L 264.0,712.0"/>
    <path d="M 88.0,792.0 L 144.0,801.0 L 386.0,679.0"/>
    <path d="M 408.0,284.0 L 428.0,300.0 L 442.0,324.0 L 480.0,478.0"/>
    <path d="M 453.0,286.0 L 476.0,296.0 L 594.0,269.0 L 742.0,246.0 L 781.0,245.0 L 805.0,251.0 L 832.0,285.0 L 775.0,431.0"/>
    <path d="M 559.0,301.0 L 568.0,310.0 L 580.0,403.0 L 576.0,412.0"/>
    <path d="M 657.0,284.0 L 684.0,305.0 L 677.0,351.0 L 657.0,400.0"/>
    <path d="M 499.0,456.0 L 505.0,449.0 L 755.0,399.0"/>
    <path d="M 557.0,479.0 L 636.0,526.0 L 653.0,553.0"/>
    <path d="M 414.0,628.0 L 459.0,636.0 L 622.0,609.0 L 845.0,586.0 L 913.0,604.0"/>
    <path d="M 617.0,708.0 L 639.0,702.0 L 723.0,717.0 L 760.0,738.0 L 769.0,758.0 L 743.0,842.0 L 700.0,944.0 L 677.0,977.0 L 653.0,996.0 L 642.0,1000.0 L 539.0,931.0"/>
    <path d="M 569.0,643.0 L 594.0,672.0 L 575.0,723.0 L 532.0,802.0 L 453.0,902.0 L 378.0,966.0"/>
  </g>
</svg>
