<svg xmlns="http://www.w3.org/2000/svg" viewBox="0 0 1024 1024">
  <g style="fill:none;stroke:#000000;stroke-width:50;stroke-linecap:round;stroke-linejoin:round;" transform="scale(1, 1) translate(0, 0)">
    <path d="M 111.0,522.0 L 163.0,522.0 L 303.0,477.0 L 350.0,474.0"/>
    <path d="M 207.0,249.0 L 255.0,287.0 L 256.0,301.0 L 251.0,639.0 L 249.0,665.0 L 230.0,692.0"/>
    <path d="M 67.0,787.0 L 123.0,791.0 L 359.0,639.0"/>
    <path d="M 359.0,376.0 L 432.0,381.0 L 758.0,331.0 L 833.0,330.0 L 875.0,342.0"/>
    <path d="M 452.0,258.0 L 487.0,285.0 L 513.0,453.0"/>
    <path d="M 678.0,198.0 L 702.0,217.0 L 713.0,241.0 L 677.0,365.0 L 639.0,464.0"/>
    <path d="M 606.0,487.0 L 568.0,500.0 L 485.0,626.0 L 392.0,723.0 L 335.0,772.0 L 261.0,818.0"/>
    <path d="M 598.0,528.0 L 598.0,541.0 L 656.0,589.0 L 736.0,651.0 L 813.0,697.0 L 862.0,709.0 L 985.0,720.0"/>
    <path d="M 464.0,722.0 L 489.0,728.0 L 528.0,726.0 L 632.0,699.0 L 687.0,697.0"/>
    <path d="M 406.0,834.0 L 431.0,855.0 L 440.0,871.0 L 476.0,1042.0"/>
    <path d="M 459.0,833.0 L 474.0,844.0 L 605.0,819.0 L 667.0,801.0 L 691.0,803.0 L 726.0,834.0 L 700.0,928.0 L 678.0,942.0"/>
    <path d="M 495.0,1012.0 L 510.0,998.0 L 668.0,972.0 L 729.0,982.0"/>
  </g>
</svg>
