<svg xmlns="http://www.w3.org/2000/svg" viewBox="0 0 1024 1024">
  <g style="fill:none;stroke:#000000;stroke-width:50;stroke-linecap:round;stroke-linejoin:round;" transform="scale(1, 1) translate(0, 0)">
    <path d="M 119.0,556.0 L 147.0,559.0 L 198.0,552.0 L 337.0,510.0 L 377.0,513.0"/>
    <path d="M 232.0,265.0 L 282.0,306.0 L 274.0,698.0 L 256.0,732.0"/>
    <path d="M 87.0,810.0 L 145.0,820.0 L 386.0,695.0"/>
    <path d="M 486.0,281.0 L 508.0,287.0 L 558.0,287.0 L 747.0,245.0 L 796.0,246.0"/>
    <path d="M 472.0,403.0 L 492.0,420.0 L 505.0,444.0 L 532.0,562.0"/>
    <path d="M 509.0,403.0 L 533.0,411.0 L 687.0,371.0 L 708.0,374.0 L 737.0,399.0 L 714.0,461.0 L 697.0,467.0"/>
    <path d="M 547.0,539.0 L 565.0,526.0 L 688.0,498.0 L 736.0,504.0"/>
    <path d="M 405.0,622.0 L 432.0,642.0 L 443.0,691.0 L 444.0,804.0 L 429.0,890.0 L 430.0,950.0"/>
    <path d="M 462.0,630.0 L 484.0,641.0 L 601.0,613.0 L 799.0,587.0 L 838.0,597.0 L 859.0,622.0 L 851.0,682.0 L 860.0,863.0 L 853.0,937.0 L 845.0,952.0 L 815.0,948.0 L 736.0,915.0"/>
    <path d="M 516.0,686.0 L 560.0,719.0 L 577.0,749.0"/>
    <path d="M 693.0,637.0 L 709.0,661.0 L 648.0,743.0"/>
    <path d="M 509.0,810.0 L 569.0,815.0 L 656.0,803.0 L 671.0,795.0 L 738.0,783.0 L 767.0,787.0"/>
    <path d="M 639.0,833.0 L 625.0,846.0 L 622.0,866.0 L 624.0,978.0"/>
  </g>
</svg>
