<svg xmlns="http://www.w3.org/2000/svg" viewBox="0 0 1024 1024">
  <g style="fill:none;stroke:#000000;stroke-width:50;stroke-linecap:round;stroke-linejoin:round;" transform="scale(1, 1) translate(0, 0)">
    <path d="M 243.0,305.0 L 286.0,306.0 L 429.0,266.0 L 468.0,264.0"/>
    <path d="M 188.0,405.0 L 214.0,424.0 L 223.0,440.0 L 268.0,594.0"/>
    <path d="M 240.0,403.0 L 253.0,413.0 L 421.0,373.0 L 460.0,370.0 L 484.0,376.0 L 506.0,401.0 L 461.0,547.0 L 463.0,569.0"/>
    <path d="M 295.0,486.0 L 390.0,460.0 L 417.0,464.0"/>
    <path d="M 281.0,579.0 L 291.0,571.0 L 426.0,540.0"/>
    <path d="M 74.0,707.0 L 128.0,714.0 L 413.0,636.0 L 487.0,631.0"/>
    <path d="M 323.0,159.0 L 358.0,194.0 L 366.0,213.0 L 360.0,576.0 L 349.0,815.0"/>
    <path d="M 810.0,258.0 L 793.0,255.0 L 747.0,263.0 L 715.0,298.0 L 641.0,353.0 L 642.0,360.0"/>
    <path d="M 568.0,349.0 L 588.0,360.0 L 605.0,380.0 L 608.0,489.0 L 598.0,566.0 L 578.0,622.0 L 552.0,662.0 L 501.0,701.0"/>
    <path d="M 636.0,466.0 L 649.0,472.0 L 686.0,471.0 L 865.0,432.0 L 909.0,432.0"/>
    <path d="M 742.0,488.0 L 776.0,516.0 L 770.0,763.0"/>
    <path d="M 369.0,866.0 L 433.0,872.0 L 564.0,852.0 L 659.0,828.0 L 713.0,829.0"/>
    <path d="M 493.0,737.0 L 520.0,762.0 L 530.0,786.0 L 526.0,968.0 L 511.0,987.0"/>
    <path d="M 207.0,1035.0 L 259.0,1046.0 L 497.0,1014.0 L 805.0,989.0 L 840.0,994.0 L 890.0,1012.0"/>
  </g>
</svg>
