<svg xmlns="http://www.w3.org/2000/svg" viewBox="0 0 1024 1024">
  <g style="fill:none;stroke:#000000;stroke-width:50;stroke-linecap:round;stroke-linejoin:round;" transform="scale(1, 1) translate(0, 0)">
    <path d="M 111.0,539.0 L 141.0,542.0 L 184.0,536.0 L 327.0,487.0 L 383.0,482.0"/>
    <path d="M 224.0,279.0 L 273.0,321.0 L 274.0,333.0 L 262.0,703.0 L 244.0,727.0"/>
    <path d="M 76.0,800.0 L 133.0,811.0 L 182.0,783.0 L 383.0,691.0"/>
    <path d="M 550.0,175.0 L 630.0,214.0 L 650.0,239.0"/>
    <path d="M 469.0,323.0 L 488.0,329.0 L 557.0,325.0 L 700.0,292.0 L 768.0,288.0"/>
    <path d="M 477.0,386.0 L 521.0,430.0 L 532.0,453.0"/>
    <path d="M 673.0,330.0 L 688.0,344.0 L 692.0,362.0 L 640.0,449.0 L 624.0,463.0"/>
    <path d="M 400.0,512.0 L 445.0,518.0 L 797.0,456.0 L 848.0,454.0 L 902.0,466.0"/>
    <path d="M 424.0,592.0 L 445.0,608.0 L 458.0,628.0 L 491.0,760.0 L 504.0,790.0"/>
    <path d="M 471.0,591.0 L 495.0,600.0 L 679.0,565.0 L 699.0,563.0 L 728.0,571.0 L 750.0,597.0 L 704.0,752.0 L 707.0,769.0"/>
    <path d="M 501.0,690.0 L 531.0,676.0 L 618.0,660.0 L 651.0,665.0"/>
    <path d="M 517.0,768.0 L 526.0,759.0 L 662.0,742.0 L 678.0,733.0"/>
    <path d="M 487.0,799.0 L 503.0,834.0 L 446.0,924.0 L 413.0,957.0 L 366.0,991.0 L 285.0,1029.0"/>
    <path d="M 600.0,770.0 L 624.0,785.0 L 631.0,799.0 L 622.0,922.0 L 627.0,978.0 L 650.0,1011.0 L 700.0,1033.0 L 773.0,1041.0 L 828.0,1037.0 L 877.0,1023.0 L 906.0,1004.0 L 915.0,993.0 L 908.0,857.0"/>
  </g>
</svg>
