<svg xmlns="http://www.w3.org/2000/svg" viewBox="0 0 1024 1024">
  <g style="fill:none;stroke:#000000;stroke-width:50;stroke-linecap:round;stroke-linejoin:round;" transform="scale(1, 1) translate(0, 0)">
    <path d="M 128.0,549.0 L 189.0,550.0 L 310.0,516.0 L 368.0,511.0"/>
    <path d="M 223.0,283.0 L 270.0,321.0 L 261.0,667.0 L 245.0,690.0"/>
    <path d="M 90.0,766.0 L 142.0,772.0 L 312.0,686.0 L 368.0,651.0"/>
    <path d="M 582.0,197.0 L 633.0,243.0 L 650.0,269.0"/>
    <path d="M 471.0,362.0 L 496.0,369.0 L 556.0,363.0 L 780.0,315.0 L 812.0,316.0"/>
    <path d="M 403.0,344.0 L 419.0,354.0 L 440.0,385.0 L 433.0,524.0 L 405.0,702.0 L 378.0,796.0 L 333.0,897.0 L 290.0,968.0 L 243.0,1027.0"/>
    <path d="M 520.0,475.0 L 572.0,475.0 L 722.0,436.0 L 753.0,444.0 L 774.0,461.0 L 773.0,468.0 L 748.0,573.0 L 729.0,588.0"/>
    <path d="M 473.0,572.0 L 496.0,575.0 L 608.0,549.0 L 832.0,510.0 L 870.0,509.0 L 910.0,518.0"/>
    <path d="M 515.0,644.0 L 549.0,646.0 L 728.0,613.0 L 764.0,612.0 L 783.0,620.0"/>
    <path d="M 465.0,728.0 L 491.0,754.0 L 497.0,775.0 L 488.0,925.0 L 474.0,985.0 L 471.0,1037.0"/>
    <path d="M 515.0,738.0 L 543.0,741.0 L 762.0,694.0 L 803.0,718.0 L 800.0,772.0 L 808.0,981.0 L 801.0,1016.0 L 784.0,1041.0 L 758.0,1033.0 L 696.0,997.0"/>
    <path d="M 547.0,825.0 L 689.0,799.0 L 720.0,804.0"/>
    <path d="M 548.0,909.0 L 593.0,906.0 L 682.0,886.0 L 724.0,891.0"/>
    <path d="M 595.0,380.0 L 604.0,390.0 L 626.0,397.0 L 637.0,410.0 L 638.0,426.0 L 627.0,1027.0"/>
  </g>
</svg>
