<svg xmlns="http://www.w3.org/2000/svg" viewBox="0 0 1024 1024">
  <g style="fill:none;stroke:#000000;stroke-width:50;stroke-linecap:round;stroke-linejoin:round;" transform="scale(1, 1) translate(0, 0)">
    <path d="M 111.0,551.0 L 141.0,554.0 L 184.0,547.0 L 309.0,508.0 L 353.0,504.0"/>
    <path d="M 218.0,283.0 L 265.0,323.0 L 266.0,337.0 L 254.0,691.0 L 236.0,715.0"/>
    <path d="M 82.0,788.0 L 137.0,797.0 L 360.0,678.0"/>
    <path d="M 578.0,202.0 L 616.0,236.0 L 613.0,376.0 L 598.0,392.0"/>
    <path d="M 643.0,312.0 L 656.0,304.0 L 758.0,280.0 L 796.0,279.0"/>
    <path d="M 470.0,427.0 L 483.0,439.0 L 491.0,438.0 L 703.0,399.0 L 711.0,393.0 L 794.0,386.0 L 815.0,396.0 L 828.0,411.0 L 764.0,485.0"/>
    <path d="M 399.0,410.0 L 433.0,441.0 L 437.0,467.0 L 429.0,601.0 L 404.0,742.0 L 372.0,828.0 L 328.0,900.0 L 252.0,976.0 L 202.0,1008.0"/>
    <path d="M 502.0,557.0 L 537.0,560.0 L 673.0,522.0 L 730.0,520.0"/>
    <path d="M 581.0,454.0 L 604.0,481.0 L 600.0,577.0 L 607.0,610.0 L 620.0,628.0 L 639.0,636.0 L 702.0,641.0 L 750.0,631.0 L 771.0,620.0 L 784.0,608.0 L 792.0,528.0"/>
    <path d="M 540.0,713.0 L 570.0,744.0 L 574.0,756.0 L 578.0,926.0 L 576.0,949.0 L 565.0,955.0"/>
    <path d="M 661.0,691.0 L 695.0,722.0 L 679.0,934.0 L 664.0,948.0"/>
    <path d="M 435.0,818.0 L 497.0,869.0 L 507.0,894.0"/>
    <path d="M 809.0,741.0 L 828.0,770.0 L 744.0,870.0"/>
    <path d="M 394.0,992.0 L 448.0,1001.0 L 612.0,979.0 L 795.0,964.0 L 851.0,969.0 L 895.0,984.0"/>
  </g>
</svg>
