<svg xmlns="http://www.w3.org/2000/svg" viewBox="0 0 1024 1024">
  <g style="fill:none;stroke:#000000;stroke-width:50;stroke-linecap:round;stroke-linejoin:round;" transform="scale(1, 1) translate(0, 0)">
    <path d="M 107.0,530.0 L 160.0,531.0 L 313.0,487.0 L 357.0,485.0"/>
    <path d="M 220.0,257.0 L 242.0,270.0 L 270.0,299.0 L 262.0,684.0 L 261.0,695.0 L 241.0,721.0"/>
    <path d="M 73.0,802.0 L 86.0,811.0 L 134.0,813.0 L 384.0,671.0"/>
    <path d="M 468.0,243.0 L 538.0,296.0 L 557.0,331.0"/>
    <path d="M 737.0,175.0 L 758.0,197.0 L 766.0,215.0 L 716.0,272.0 L 633.0,344.0"/>
    <path d="M 383.0,422.0 L 402.0,436.0 L 418.0,462.0 L 472.0,670.0"/>
    <path d="M 419.0,421.0 L 453.0,432.0 L 644.0,394.0 L 773.0,377.0 L 827.0,380.0 L 859.0,419.0 L 831.0,484.0 L 782.0,631.0"/>
    <path d="M 590.0,425.0 L 614.0,445.0 L 617.0,455.0 L 617.0,586.0 L 603.0,605.0"/>
    <path d="M 500.0,498.0 L 537.0,528.0 L 553.0,554.0"/>
    <path d="M 725.0,443.0 L 740.0,470.0 L 664.0,547.0"/>
    <path d="M 489.0,650.0 L 500.0,641.0 L 533.0,635.0 L 724.0,610.0 L 747.0,612.0 L 754.0,622.0"/>
    <path d="M 477.0,722.0 L 498.0,744.0 L 506.0,766.0 L 508.0,835.0 L 494.0,988.0 L 496.0,1021.0"/>
    <path d="M 520.0,726.0 L 529.0,734.0 L 552.0,736.0 L 703.0,704.0 L 741.0,731.0 L 750.0,955.0 L 738.0,990.0 L 695.0,974.0 L 686.0,958.0"/>
    <path d="M 531.0,866.0 L 544.0,856.0 L 598.0,844.0 L 652.0,839.0 L 675.0,846.0"/>
    <path d="M 523.0,985.0 L 547.0,970.0 L 675.0,954.0"/>
  </g>
</svg>
