<svg xmlns="http://www.w3.org/2000/svg" viewBox="0 0 1024 1024">
  <g style="fill:none;stroke:#000000;stroke-width:50;stroke-linecap:round;stroke-linejoin:round;" transform="scale(1, 1) translate(0, 0)">
    <path d="M 223.0,303.0 L 236.0,312.0 L 336.0,276.0 L 356.0,289.0 L 346.0,318.0 L 305.0,371.0 L 294.0,399.0 L 311.0,440.0 L 318.0,443.0 L 355.0,503.0 L 360.0,529.0 L 356.0,553.0 L 308.0,546.0 L 275.0,531.0"/>
    <path d="M 161.0,288.0 L 194.0,326.0 L 205.0,448.0 L 204.0,626.0 L 188.0,753.0 L 191.0,800.0"/>
    <path d="M 480.0,230.0 L 530.0,264.0 L 546.0,280.0 L 558.0,306.0"/>
    <path d="M 762.0,215.0 L 726.0,208.0 L 637.0,314.0"/>
    <path d="M 448.0,385.0 L 508.0,381.0 L 747.0,331.0 L 779.0,337.0"/>
    <path d="M 598.0,398.0 L 567.0,410.0 L 481.0,490.0 L 433.0,516.0"/>
    <path d="M 563.0,453.0 L 590.0,461.0 L 651.0,514.0 L 675.0,569.0 L 681.0,632.0 L 669.0,708.0 L 646.0,743.0 L 561.0,707.0"/>
    <path d="M 580.0,471.0 L 582.0,501.0 L 546.0,538.0 L 467.0,591.0 L 446.0,601.0 L 431.0,600.0 L 428.0,606.0"/>
    <path d="M 634.0,537.0 L 627.0,576.0 L 566.0,630.0 L 460.0,695.0 L 391.0,719.0"/>
    <path d="M 755.0,404.0 L 769.0,433.0 L 715.0,484.0 L 687.0,506.0 L 680.0,503.0"/>
    <path d="M 691.0,526.0 L 701.0,549.0 L 728.0,573.0 L 852.0,660.0 L 968.0,662.0"/>
    <path d="M 324.0,873.0 L 377.0,882.0 L 422.0,879.0 L 605.0,844.0 L 663.0,845.0"/>
    <path d="M 454.0,755.0 L 493.0,792.0 L 487.0,969.0 L 470.0,991.0"/>
    <path d="M 164.0,1031.0 L 215.0,1043.0 L 516.0,1011.0 L 765.0,996.0 L 825.0,1002.0 L 873.0,1019.0"/>
  </g>
</svg>
