<svg xmlns="http://www.w3.org/2000/svg" viewBox="0 0 1024 1024">
  <g style="fill:none;stroke:#000000;stroke-width:50;stroke-linecap:round;stroke-linejoin:round;" transform="scale(1, 1) translate(0, 0)">
    <path d="M 103.0,543.0 L 125.0,547.0 L 163.0,542.0 L 261.0,511.0 L 298.0,509.0"/>
    <path d="M 191.0,301.0 L 233.0,336.0 L 235.0,356.0 L 229.0,658.0 L 213.0,679.0"/>
    <path d="M 54.0,753.0 L 106.0,763.0 L 316.0,651.0"/>
    <path d="M 445.0,207.0 L 534.0,258.0 L 552.0,285.0"/>
    <path d="M 344.0,371.0 L 354.0,376.0 L 406.0,375.0 L 576.0,332.0 L 628.0,329.0"/>
    <path d="M 342.0,465.0 L 364.0,481.0 L 374.0,497.0 L 404.0,600.0"/>
    <path d="M 385.0,463.0 L 405.0,470.0 L 517.0,437.0 L 536.0,437.0 L 564.0,463.0 L 545.0,514.0 L 524.0,524.0"/>
    <path d="M 419.0,582.0 L 434.0,572.0 L 510.0,555.0 L 571.0,558.0"/>
    <path d="M 342.0,673.0 L 359.0,680.0 L 384.0,680.0 L 487.0,638.0 L 531.0,641.0 L 546.0,658.0 L 540.0,670.0 L 482.0,740.0 L 472.0,739.0"/>
    <path d="M 435.0,749.0 L 454.0,755.0 L 474.0,771.0 L 492.0,807.0 L 505.0,901.0 L 500.0,965.0 L 482.0,1007.0 L 461.0,1026.0 L 388.0,993.0"/>
    <path d="M 214.0,903.0 L 268.0,919.0 L 505.0,815.0 L 576.0,778.0"/>
    <path d="M 710.0,253.0 L 735.0,269.0 L 749.0,289.0 L 739.0,334.0 L 684.0,489.0 L 648.0,561.0 L 624.0,594.0"/>
    <path d="M 671.0,557.0 L 773.0,540.0 L 849.0,511.0 L 906.0,506.0"/>
    <path d="M 733.0,575.0 L 769.0,603.0 L 758.0,701.0 L 735.0,785.0 L 711.0,833.0 L 685.0,864.0 L 623.0,910.0 L 578.0,927.0"/>
    <path d="M 618.0,672.0 L 650.0,685.0 L 761.0,831.0 L 862.0,935.0 L 993.0,962.0"/>
  </g>
</svg>
