<svg xmlns="http://www.w3.org/2000/svg" viewBox="0 0 1024 1024">
  <g style="fill:none;stroke:#000000;stroke-width:50;stroke-linecap:round;stroke-linejoin:round;" transform="scale(1, 1) translate(0, 0)">
    <path d="M 258.0,247.0 L 286.0,267.0 L 298.0,286.0 L 355.0,461.0"/>
    <path d="M 315.0,243.0 L 332.0,256.0 L 426.0,239.0 L 667.0,212.0 L 716.0,224.0 L 737.0,260.0 L 728.0,280.0 L 679.0,385.0 L 655.0,421.0 L 634.0,403.0"/>
    <path d="M 383.0,310.0 L 419.0,346.0 L 427.0,362.0"/>
    <path d="M 631.0,304.0 L 611.0,299.0 L 552.0,353.0"/>
    <path d="M 371.0,448.0 L 387.0,437.0 L 603.0,408.0 L 617.0,400.0"/>
    <path d="M 468.0,254.0 L 498.0,280.0 L 501.0,311.0 L 498.0,581.0 L 483.0,601.0"/>
    <path d="M 370.0,540.0 L 402.0,541.0 L 566.0,513.0 L 614.0,510.0 L 637.0,517.0"/>
    <path d="M 253.0,641.0 L 303.0,649.0 L 402.0,634.0 L 668.0,609.0 L 704.0,612.0 L 749.0,627.0"/>
    <path d="M 182.0,715.0 L 165.0,777.0 L 129.0,853.0"/>
    <path d="M 331.0,719.0 L 382.0,762.0 L 394.0,785.0"/>
    <path d="M 558.0,689.0 L 613.0,734.0 L 633.0,761.0"/>
    <path d="M 766.0,691.0 L 874.0,760.0 L 896.0,787.0 L 910.0,818.0"/>
    <path d="M 327.0,872.0 L 356.0,880.0 L 421.0,881.0 L 632.0,849.0 L 684.0,852.0"/>
    <path d="M 464.0,757.0 L 499.0,790.0 L 498.0,971.0 L 484.0,991.0"/>
    <path d="M 202.0,1028.0 L 258.0,1039.0 L 386.0,1022.0 L 734.0,999.0 L 770.0,1002.0 L 822.0,1021.0"/>
  </g>
</svg>
