<svg xmlns="http://www.w3.org/2000/svg" viewBox="0 0 1024 1024">
  <g style="fill:none;stroke:#000000;stroke-width:50;stroke-linecap:round;stroke-linejoin:round;" transform="scale(1, 1) translate(0, 0)">
    <path d="M 239.0,307.0 L 258.0,314.0 L 345.0,287.0 L 356.0,290.0 L 364.0,303.0 L 329.0,363.0 L 323.0,386.0 L 330.0,414.0 L 363.0,469.0 L 364.0,516.0 L 358.0,522.0 L 339.0,520.0 L 286.0,499.0"/>
    <path d="M 185.0,296.0 L 218.0,335.0 L 225.0,385.0 L 229.0,600.0 L 213.0,762.0 L 215.0,804.0"/>
    <path d="M 455.0,280.0 L 490.0,287.0 L 524.0,285.0 L 749.0,246.0 L 801.0,243.0 L 827.0,248.0"/>
    <path d="M 575.0,167.0 L 594.0,183.0 L 606.0,210.0 L 560.0,337.0 L 498.0,450.0 L 427.0,542.0 L 381.0,584.0"/>
    <path d="M 600.0,345.0 L 643.0,350.0 L 730.0,331.0 L 764.0,332.0"/>
    <path d="M 687.0,364.0 L 656.0,413.0"/>
    <path d="M 528.0,450.0 L 698.0,430.0 L 799.0,411.0 L 860.0,415.0"/>
    <path d="M 508.0,521.0 L 526.0,539.0 L 532.0,559.0 L 533.0,628.0 L 522.0,693.0 L 525.0,734.0"/>
    <path d="M 548.0,527.0 L 565.0,535.0 L 603.0,523.0 L 734.0,503.0 L 770.0,529.0 L 776.0,723.0 L 767.0,757.0 L 758.0,769.0 L 752.0,768.0 L 673.0,733.0"/>
    <path d="M 558.0,612.0 L 565.0,603.0 L 645.0,595.0 L 679.0,602.0"/>
    <path d="M 556.0,682.0 L 657.0,665.0 L 687.0,670.0"/>
    <path d="M 332.0,893.0 L 353.0,900.0 L 404.0,903.0 L 592.0,871.0 L 651.0,874.0"/>
    <path d="M 444.0,763.0 L 487.0,801.0 L 482.0,990.0 L 466.0,1011.0"/>
    <path d="M 152.0,1051.0 L 204.0,1063.0 L 439.0,1037.0 L 773.0,1016.0 L 820.0,1022.0 L 869.0,1039.0"/>
  </g>
</svg>
