<svg xmlns="http://www.w3.org/2000/svg" viewBox="0 0 1024 1024">
  <g style="fill:none;stroke:#000000;stroke-width:50;stroke-linecap:round;stroke-linejoin:round;" transform="scale(1, 1) translate(0, 0)">
    <path d="M 115.0,540.0 L 190.0,536.0 L 300.0,498.0 L 361.0,490.0"/>
    <path d="M 222.0,257.0 L 274.0,299.0 L 275.0,311.0 L 266.0,680.0 L 262.0,696.0 L 245.0,717.0"/>
    <path d="M 77.0,810.0 L 113.0,816.0 L 144.0,811.0 L 400.0,658.0"/>
    <path d="M 499.0,314.0 L 528.0,317.0 L 573.0,311.0 L 695.0,273.0 L 736.0,265.0 L 757.0,267.0"/>
    <path d="M 599.0,167.0 L 620.0,179.0 L 636.0,201.0 L 623.0,409.0"/>
    <path d="M 404.0,480.0 L 449.0,486.0 L 582.0,454.0 L 844.0,411.0 L 930.0,422.0"/>
    <path d="M 463.0,392.0 L 501.0,416.0 L 531.0,536.0"/>
    <path d="M 759.0,318.0 L 783.0,355.0 L 751.0,441.0 L 715.0,514.0"/>
    <path d="M 472.0,570.0 L 498.0,597.0 L 504.0,623.0 L 506.0,700.0 L 493.0,842.0 L 496.0,886.0"/>
    <path d="M 526.0,584.0 L 538.0,592.0 L 718.0,547.0 L 742.0,549.0 L 773.0,570.0 L 783.0,583.0 L 777.0,653.0 L 781.0,792.0 L 775.0,875.0"/>
    <path d="M 529.0,687.0 L 542.0,675.0 L 651.0,652.0 L 682.0,648.0 L 704.0,653.0"/>
    <path d="M 530.0,772.0 L 564.0,758.0 L 664.0,741.0 L 690.0,739.0 L 711.0,745.0"/>
    <path d="M 521.0,865.0 L 534.0,851.0 L 684.0,827.0 L 719.0,825.0 L 734.0,838.0"/>
    <path d="M 576.0,942.0 L 542.0,949.0 L 521.0,977.0 L 457.0,1035.0 L 392.0,1070.0"/>
    <path d="M 698.0,912.0 L 773.0,966.0 L 807.0,999.0 L 822.0,1025.0 L 833.0,1063.0"/>
  </g>
</svg>
