<svg xmlns="http://www.w3.org/2000/svg" viewBox="0 0 1024 1024">
  <g style="fill:none;stroke:#000000;stroke-width:50;stroke-linecap:round;stroke-linejoin:round;" transform="scale(1, 1) translate(0, 0)">
    <path d="M 95.0,515.0 L 155.0,514.0 L 292.0,471.0 L 333.0,468.0"/>
    <path d="M 200.0,259.0 L 249.0,301.0 L 250.0,316.0 L 239.0,668.0 L 227.0,697.0 L 217.0,706.0"/>
    <path d="M 72.0,785.0 L 125.0,790.0 L 331.0,667.0"/>
    <path d="M 530.0,171.0 L 596.0,201.0 L 626.0,235.0"/>
    <path d="M 400.0,319.0 L 444.0,326.0 L 748.0,272.0 L 803.0,278.0"/>
    <path d="M 464.0,389.0 L 492.0,416.0 L 516.0,508.0"/>
    <path d="M 504.0,388.0 L 516.0,395.0 L 656.0,362.0 L 667.0,364.0 L 687.0,374.0 L 697.0,391.0 L 686.0,417.0 L 662.0,435.0"/>
    <path d="M 531.0,491.0 L 546.0,480.0 L 651.0,458.0 L 691.0,455.0 L 712.0,460.0"/>
    <path d="M 383.0,530.0 L 394.0,556.0 L 393.0,576.0 L 365.0,643.0 L 362.0,671.0"/>
    <path d="M 423.0,560.0 L 433.0,568.0 L 463.0,566.0 L 608.0,532.0 L 785.0,508.0 L 813.0,519.0 L 832.0,542.0 L 773.0,622.0"/>
    <path d="M 455.0,634.0 L 490.0,639.0 L 560.0,629.0 L 637.0,605.0 L 689.0,603.0"/>
    <path d="M 545.0,657.0 L 539.0,665.0 L 507.0,677.0 L 455.0,716.0 L 371.0,751.0"/>
    <path d="M 498.0,713.0 L 517.0,713.0 L 543.0,728.0 L 600.0,773.0 L 636.0,834.0 L 644.0,883.0 L 637.0,972.0 L 627.0,1008.0 L 611.0,1036.0 L 600.0,1045.0 L 504.0,1011.0"/>
    <path d="M 552.0,765.0 L 521.0,763.0 L 475.0,810.0 L 415.0,854.0 L 325.0,898.0"/>
    <path d="M 587.0,796.0 L 584.0,836.0 L 519.0,900.0 L 412.0,977.0 L 364.0,1003.0 L 311.0,1022.0"/>
    <path d="M 719.0,643.0 L 730.0,664.0 L 729.0,682.0 L 649.0,755.0 L 637.0,762.0 L 628.0,759.0"/>
    <path d="M 630.0,776.0 L 693.0,833.0 L 828.0,906.0 L 853.0,912.0 L 907.0,912.0 L 990.0,905.0"/>
  </g>
</svg>
