<svg xmlns="http://www.w3.org/2000/svg" viewBox="0 0 1024 1024">
  <g style="fill:none;stroke:#000000;stroke-width:50;stroke-linecap:round;stroke-linejoin:round;" transform="scale(1, 1) translate(0, 0)">
    <path d="M 236.0,348.0 L 289.0,358.0 L 480.0,335.0 L 706.0,298.0 L 751.0,297.0 L 783.0,305.0"/>
    <path d="M 483.0,199.0 L 502.0,214.0 L 520.0,240.0 L 514.0,403.0 L 498.0,429.0"/>
    <path d="M 324.0,463.0 L 382.0,470.0 L 649.0,427.0 L 698.0,434.0"/>
    <path d="M 339.0,569.0 L 354.0,581.0 L 520.0,558.0 L 645.0,533.0 L 672.0,533.0 L 694.0,542.0 L 719.0,572.0 L 691.0,638.0 L 661.0,659.0"/>
    <path d="M 484.0,581.0 L 506.0,613.0 L 500.0,670.0 L 482.0,684.0"/>
    <path d="M 319.0,745.0 L 334.0,733.0 L 354.0,729.0 L 651.0,689.0 L 710.0,688.0 L 734.0,697.0"/>
    <path d="M 263.0,550.0 L 299.0,584.0 L 301.0,611.0 L 280.0,781.0 L 257.0,863.0 L 218.0,942.0 L 190.0,981.0 L 129.0,1038.0 L 83.0,1063.0"/>
  </g>
</svg>
