<svg xmlns="http://www.w3.org/2000/svg" viewBox="0 0 1024 1024">
  <g style="fill:none;stroke:#000000;stroke-width:50;stroke-linecap:round;stroke-linejoin:round;" transform="scale(1, 1) translate(0, 0)">
    <path d="M 156.0,400.0 L 248.0,463.0 L 274.0,506.0"/>
    <path d="M 89.0,818.0 L 147.0,813.0 L 327.0,657.0 L 332.0,645.0"/>
    <path d="M 322.0,243.0 L 373.0,297.0 L 366.0,654.0 L 349.0,917.0 L 348.0,1022.0"/>
    <path d="M 420.0,622.0 L 475.0,633.0 L 633.0,610.0 L 816.0,574.0 L 852.0,572.0 L 904.0,582.0"/>
    <path d="M 606.0,287.0 L 657.0,328.0 L 659.0,350.0 L 647.0,811.0 L 645.0,832.0 L 628.0,851.0"/>
    <path d="M 458.0,892.0 L 495.0,899.0 L 776.0,858.0 L 837.0,862.0 L 869.0,873.0"/>
  </g>
</svg>
