<svg xmlns="http://www.w3.org/2000/svg" viewBox="0 0 1024 1024">
  <g style="fill:none;stroke:#000000;stroke-width:50;stroke-linecap:round;stroke-linejoin:round;" transform="scale(1, 1) translate(0, 0)">
    <path d="M 90.0,535.0 L 158.0,530.0 L 273.0,489.0 L 314.0,485.0"/>
    <path d="M 183.0,303.0 L 218.0,329.0 L 230.0,352.0 L 222.0,670.0 L 221.0,682.0 L 205.0,706.0"/>
    <path d="M 64.0,783.0 L 115.0,788.0 L 274.0,696.0 L 327.0,659.0"/>
    <path d="M 489.0,251.0 L 498.0,256.0 L 543.0,256.0 L 613.0,247.0 L 695.0,225.0 L 755.0,225.0"/>
    <path d="M 388.0,340.0 L 399.0,383.0 L 371.0,458.0 L 369.0,486.0"/>
    <path d="M 429.0,386.0 L 686.0,332.0 L 809.0,318.0 L 834.0,328.0 L 851.0,351.0 L 787.0,427.0"/>
    <path d="M 576.0,278.0 L 605.0,302.0 L 601.0,533.0"/>
    <path d="M 474.0,422.0 L 526.0,442.0"/>
    <path d="M 464.0,480.0 L 513.0,508.0"/>
    <path d="M 670.0,394.0 L 734.0,418.0"/>
    <path d="M 669.0,464.0 L 708.0,480.0 L 729.0,496.0"/>
    <path d="M 340.0,633.0 L 398.0,631.0 L 574.0,593.0 L 614.0,597.0"/>
    <path d="M 389.0,564.0 L 416.0,588.0 L 430.0,732.0"/>
    <path d="M 538.0,529.0 L 558.0,556.0 L 538.0,653.0 L 528.0,664.0"/>
    <path d="M 444.0,707.0 L 518.0,685.0 L 569.0,685.0"/>
    <path d="M 337.0,768.0 L 362.0,794.0 L 385.0,884.0"/>
    <path d="M 374.0,769.0 L 389.0,776.0 L 578.0,742.0 L 600.0,765.0 L 584.0,801.0 L 568.0,811.0"/>
    <path d="M 399.0,855.0 L 407.0,862.0 L 564.0,834.0 L 608.0,840.0"/>
    <path d="M 257.0,958.0 L 304.0,966.0 L 511.0,916.0 L 583.0,906.0 L 603.0,910.0"/>
    <path d="M 462.0,716.0 L 483.0,735.0 L 471.0,1002.0 L 481.0,1069.0"/>
    <path d="M 648.0,576.0 L 674.0,600.0 L 678.0,613.0 L 680.0,688.0 L 673.0,792.0 L 650.0,893.0 L 633.0,938.0 L 578.0,1028.0"/>
    <path d="M 704.0,586.0 L 716.0,594.0 L 802.0,567.0 L 826.0,572.0 L 851.0,595.0 L 850.0,726.0 L 861.0,934.0 L 851.0,1008.0 L 839.0,1025.0 L 825.0,1023.0 L 734.0,987.0"/>
    <path d="M 705.0,719.0 L 715.0,708.0 L 744.0,702.0 L 781.0,704.0"/>
    <path d="M 689.0,822.0 L 703.0,812.0 L 743.0,803.0 L 788.0,808.0"/>
  </g>
</svg>
