<svg xmlns="http://www.w3.org/2000/svg" viewBox="0 0 1024 1024">
  <g style="fill:none;stroke:#000000;stroke-width:50;stroke-linecap:round;stroke-linejoin:round;" transform="scale(1, 1) translate(0, 0)">
    <path d="M 272.0,270.0 L 298.0,291.0 L 311.0,315.0 L 282.0,395.0 L 197.0,560.0 L 127.0,664.0 L 90.0,705.0"/>
    <path d="M 254.0,515.0 L 316.0,498.0 L 359.0,479.0 L 404.0,479.0 L 423.0,497.0 L 370.0,645.0 L 303.0,769.0 L 228.0,857.0 L 180.0,900.0 L 135.0,932.0 L 72.0,961.0"/>
    <path d="M 173.0,678.0 L 219.0,681.0 L 272.0,700.0 L 495.0,858.0 L 575.0,905.0 L 682.0,954.0 L 729.0,964.0 L 885.0,963.0 L 931.0,957.0"/>
    <path d="M 556.0,255.0 L 582.0,268.0 L 608.0,297.0 L 611.0,330.0 L 610.0,611.0 L 595.0,838.0"/>
    <path d="M 658.0,507.0 L 782.0,586.0 L 815.0,622.0 L 829.0,654.0"/>
  </g>
</svg>
