<svg xmlns="http://www.w3.org/2000/svg" viewBox="0 0 1024 1024">
  <g style="fill:none;stroke:#000000;stroke-width:50;stroke-linecap:round;stroke-linejoin:round;" transform="scale(1, 1) translate(0, 0)">
    <path d="M 573.0,196.0 L 599.0,229.0 L 592.0,255.0 L 539.0,345.0 L 499.0,394.0 L 482.0,439.0 L 508.0,443.0 L 692.0,400.0 L 727.0,401.0"/>
    <path d="M 679.0,326.0 L 768.0,398.0 L 791.0,442.0"/>
    <path d="M 496.0,540.0 L 469.0,547.0 L 433.0,597.0 L 387.0,645.0 L 338.0,678.0"/>
    <path d="M 695.0,493.0 L 780.0,541.0 L 800.0,558.0 L 817.0,588.0"/>
    <path d="M 524.0,591.0 L 545.0,622.0 L 531.0,655.0 L 474.0,743.0 L 391.0,830.0 L 310.0,888.0"/>
    <path d="M 542.0,691.0 L 567.0,679.0 L 656.0,656.0 L 687.0,659.0 L 708.0,670.0 L 664.0,792.0 L 633.0,850.0 L 595.0,897.0 L 556.0,929.0 L 497.0,965.0 L 431.0,988.0 L 379.0,995.0"/>
    <path d="M 498.0,751.0 L 511.0,749.0 L 526.0,757.0 L 664.0,897.0 L 787.0,996.0 L 867.0,1006.0 L 932.0,1006.0"/>
  </g>
</svg>
