<svg xmlns="http://www.w3.org/2000/svg" viewBox="0 0 1024 1024">
  <g style="fill:none;stroke:#000000;stroke-width:50;stroke-linecap:round;stroke-linejoin:round;" transform="scale(1, 1) translate(0, 0)">
    <path d="M 226.0,255.0 L 277.0,265.0 L 499.0,233.0 L 750.0,213.0 L 826.0,235.0"/>
    <path d="M 444.0,266.0 L 461.0,287.0 L 458.0,297.0 L 429.0,343.0 L 401.0,359.0"/>
    <path d="M 316.0,370.0 L 338.0,391.0 L 347.0,411.0 L 369.0,645.0"/>
    <path d="M 369.0,378.0 L 385.0,386.0 L 401.0,384.0 L 618.0,341.0 L 653.0,349.0 L 669.0,362.0 L 679.0,374.0 L 678.0,385.0 L 647.0,580.0 L 635.0,610.0 L 612.0,614.0"/>
    <path d="M 384.0,475.0 L 393.0,467.0 L 520.0,443.0 L 556.0,446.0"/>
    <path d="M 389.0,552.0 L 420.0,539.0 L 518.0,523.0 L 564.0,526.0"/>
    <path d="M 388.0,630.0 L 401.0,621.0 L 602.0,593.0"/>
    <path d="M 447.0,678.0 L 417.0,683.0 L 355.0,767.0 L 253.0,863.0 L 167.0,927.0 L 90.0,968.0"/>
    <path d="M 412.0,738.0 L 507.0,732.0 L 592.0,712.0 L 623.0,717.0 L 644.0,730.0 L 618.0,798.0 L 589.0,852.0 L 538.0,919.0 L 510.0,944.0 L 453.0,980.0 L 393.0,1006.0 L 304.0,1029.0 L 263.0,1031.0"/>
    <path d="M 391.0,795.0 L 421.0,804.0 L 457.0,827.0 L 612.0,963.0 L 708.0,1021.0 L 754.0,1034.0 L 911.0,1040.0"/>
  </g>
</svg>
