<svg xmlns="http://www.w3.org/2000/svg" viewBox="0 0 1024 1024">
  <g style="fill:none;stroke:#000000;stroke-width:50;stroke-linecap:round;stroke-linejoin:round;" transform="scale(1, 1) translate(0, 0)">
    <path d="M 407.0,210.0 L 427.0,233.0 L 436.0,259.0 L 405.0,305.0 L 369.0,355.0 L 296.0,437.0 L 238.0,492.0 L 188.0,527.0"/>
    <path d="M 402.0,359.0 L 433.0,346.0 L 575.0,318.0 L 621.0,323.0 L 631.0,338.0 L 548.0,478.0 L 507.0,530.0 L 423.0,614.0 L 349.0,670.0 L 242.0,731.0 L 178.0,753.0 L 125.0,762.0"/>
    <path d="M 369.0,434.0 L 422.0,450.0 L 584.0,575.0 L 675.0,633.0 L 768.0,677.0 L 806.0,686.0 L 971.0,669.0"/>
    <path d="M 263.0,748.0 L 292.0,761.0 L 310.0,789.0 L 337.0,979.0 L 355.0,1039.0"/>
    <path d="M 316.0,746.0 L 354.0,754.0 L 594.0,715.0 L 634.0,714.0 L 674.0,729.0 L 696.0,753.0 L 652.0,977.0 L 641.0,1004.0 L 603.0,998.0"/>
    <path d="M 388.0,885.0 L 547.0,860.0 L 581.0,858.0 L 602.0,864.0"/>
    <path d="M 466.0,755.0 L 490.0,777.0 L 492.0,811.0 L 492.0,951.0 L 477.0,971.0"/>
    <path d="M 375.0,1015.0 L 392.0,1006.0 L 607.0,981.0"/>
  </g>
</svg>
