<svg xmlns="http://www.w3.org/2000/svg" viewBox="0 0 1024 1024">
  <g style="fill:none;stroke:#000000;stroke-width:50;stroke-linecap:round;stroke-linejoin:round;" transform="scale(1, 1) translate(0, 0)">
    <path d="M 222.0,341.0 L 247.0,360.0 L 261.0,390.0 L 256.0,541.0 L 241.0,655.0 L 210.0,780.0 L 179.0,860.0 L 129.0,947.0 L 92.0,993.0"/>
    <path d="M 288.0,357.0 L 314.0,366.0 L 539.0,321.0 L 642.0,306.0 L 690.0,308.0 L 709.0,331.0 L 691.0,404.0 L 679.0,544.0 L 680.0,616.0 L 699.0,742.0 L 736.0,842.0 L 767.0,892.0 L 811.0,938.0 L 857.0,966.0 L 888.0,972.0 L 901.0,954.0 L 910.0,925.0 L 925.0,802.0"/>
    <path d="M 349.0,465.0 L 409.0,470.0 L 543.0,438.0 L 574.0,435.0 L 597.0,440.0"/>
    <path d="M 412.0,489.0 L 441.0,518.0 L 432.0,541.0 L 375.0,642.0 L 321.0,706.0 L 317.0,718.0 L 308.0,722.0"/>
    <path d="M 429.0,605.0 L 528.0,592.0 L 549.0,595.0 L 562.0,609.0 L 521.0,737.0 L 460.0,842.0 L 426.0,890.0 L 370.0,950.0 L 314.0,990.0"/>
    <path d="M 363.0,693.0 L 374.0,692.0 L 415.0,719.0 L 440.0,751.0"/>
  </g>
</svg>
