<svg xmlns="http://www.w3.org/2000/svg" viewBox="0 0 1024 1024">
  <g style="fill:none;stroke:#000000;stroke-width:50;stroke-linecap:round;stroke-linejoin:round;" transform="scale(1, 1) translate(0, 0)">
    <path d="M 476.0,186.0 L 494.0,228.0 L 452.0,287.0 L 366.0,369.0 L 336.0,390.0 L 262.0,425.0"/>
    <path d="M 484.0,298.0 L 630.0,290.0 L 666.0,307.0 L 645.0,346.0 L 606.0,394.0 L 494.0,504.0 L 354.0,603.0 L 250.0,654.0"/>
    <path d="M 358.0,399.0 L 407.0,427.0 L 421.0,441.0 L 432.0,467.0"/>
    <path d="M 596.0,546.0 L 567.0,552.0 L 505.0,627.0 L 398.0,718.0 L 331.0,760.0 L 295.0,775.0"/>
    <path d="M 531.0,641.0 L 672.0,613.0 L 722.0,622.0 L 734.0,640.0 L 682.0,730.0 L 619.0,820.0 L 510.0,931.0 L 428.0,990.0 L 338.0,1037.0 L 270.0,1063.0 L 190.0,1078.0"/>
    <path d="M 382.0,751.0 L 402.0,758.0 L 460.0,804.0 L 486.0,846.0"/>
  </g>
</svg>
