<svg xmlns="http://www.w3.org/2000/svg" viewBox="0 0 1024 1024">
  <g style="fill:none;stroke:#000000;stroke-width:50;stroke-linecap:round;stroke-linejoin:round;" transform="scale(1, 1) translate(0, 0)">
    <path d="M 203.0,546.0 L 258.0,554.0 L 375.0,530.0 L 729.0,480.0 L 763.0,480.0 L 832.0,497.0"/>
    <path d="M 444.0,212.0 L 470.0,223.0 L 500.0,252.0 L 503.0,277.0 L 478.0,532.0 L 456.0,643.0 L 427.0,735.0 L 384.0,823.0 L 332.0,882.0 L 232.0,959.0 L 133.0,1004.0"/>
    <path d="M 503.0,566.0 L 510.0,602.0 L 596.0,743.0 L 673.0,852.0 L 722.0,909.0 L 773.0,946.0 L 958.0,997.0"/>
    <path d="M 398.0,862.0 L 423.0,865.0 L 460.0,893.0 L 483.0,916.0 L 499.0,951.0"/>
  </g>
</svg>
