<svg xmlns="http://www.w3.org/2000/svg" viewBox="0 0 1024 1024">
  <g style="fill:none;stroke:#000000;stroke-width:50;stroke-linecap:round;stroke-linejoin:round;" transform="scale(1, 1) translate(0, 0)">
    <path d="M 329.0,324.0 L 412.0,374.0 L 436.0,400.0"/>
    <path d="M 262.0,469.0 L 356.0,527.0 L 388.0,568.0"/>
    <path d="M 124.0,702.0 L 182.0,712.0 L 388.0,679.0 L 805.0,638.0 L 857.0,645.0 L 898.0,660.0"/>
    <path d="M 514.0,254.0 L 551.0,276.0 L 570.0,298.0 L 574.0,319.0 L 534.0,614.0 L 518.0,685.0 L 488.0,768.0 L 442.0,847.0 L 367.0,915.0 L 280.0,964.0 L 207.0,991.0 L 174.0,997.0"/>
    <path d="M 607.0,790.0 L 700.0,862.0 L 765.0,923.0 L 790.0,955.0 L 808.0,1005.0"/>
  </g>
</svg>
