<svg xmlns="http://www.w3.org/2000/svg" viewBox="0 0 1024 1024">
  <g style="fill:none;stroke:#000000;stroke-width:50;stroke-linecap:round;stroke-linejoin:round;" transform="scale(1, 1) translate(0, 0)">
    <path d="M 196.0,383.0 L 250.0,394.0 L 439.0,369.0 L 670.0,328.0 L 710.0,326.0 L 757.0,335.0"/>
    <path d="M 457.0,185.0 L 484.0,224.0 L 468.0,290.0 L 419.0,425.0 L 379.0,497.0 L 340.0,555.0 L 285.0,620.0 L 166.0,723.0 L 103.0,763.0"/>
    <path d="M 524.0,375.0 L 543.0,386.0 L 699.0,564.0 L 792.0,646.0 L 972.0,680.0"/>
    <path d="M 260.0,753.0 L 310.0,759.0 L 595.0,684.0 L 623.0,683.0 L 650.0,704.0 L 622.0,885.0 L 604.0,953.0 L 577.0,1007.0 L 545.0,1034.0 L 452.0,989.0"/>
    <path d="M 438.0,566.0 L 455.0,582.0 L 469.0,609.0 L 438.0,736.0 L 381.0,861.0 L 322.0,937.0 L 268.0,983.0 L 225.0,1010.0 L 154.0,1038.0"/>
  </g>
</svg>
