<svg xmlns="http://www.w3.org/2000/svg" viewBox="0 0 1024 1024">
  <g style="fill:none;stroke:#000000;stroke-width:50;stroke-linecap:round;stroke-linejoin:round;" transform="scale(1, 1) translate(0, 0)">
    <path d="M 323.0,322.0 L 351.0,358.0 L 324.0,427.0 L 279.0,500.0 L 211.0,564.0"/>
    <path d="M 333.0,467.0 L 474.0,451.0 L 656.0,402.0 L 705.0,404.0"/>
    <path d="M 203.0,675.0 L 262.0,681.0 L 402.0,652.0 L 744.0,603.0 L 828.0,621.0"/>
    <path d="M 474.0,204.0 L 526.0,249.0 L 506.0,597.0 L 487.0,707.0 L 466.0,769.0 L 439.0,822.0 L 407.0,865.0 L 344.0,920.0 L 265.0,963.0 L 144.0,1002.0"/>
    <path d="M 525.0,675.0 L 530.0,703.0 L 558.0,738.0 L 680.0,882.0 L 754.0,952.0 L 792.0,969.0 L 943.0,999.0"/>
  </g>
</svg>
