<svg xmlns="http://www.w3.org/2000/svg" viewBox="0 0 1024 1024">
  <g style="fill:none;stroke:#000000;stroke-width:50;stroke-linecap:round;stroke-linejoin:round;" transform="scale(1, 1) translate(0, 0)">
    <path d="M 235.0,383.0 L 284.0,394.0 L 440.0,373.0 L 667.0,332.0 L 702.0,331.0 L 745.0,339.0"/>
    <path d="M 457.0,186.0 L 481.0,231.0 L 475.0,252.0 L 417.0,403.0 L 356.0,505.0 L 312.0,560.0 L 250.0,622.0 L 180.0,678.0 L 76.0,743.0"/>
    <path d="M 551.0,388.0 L 569.0,388.0 L 595.0,422.0 L 717.0,545.0 L 807.0,615.0 L 972.0,640.0"/>
    <path d="M 381.0,558.0 L 405.0,564.0 L 442.0,562.0 L 540.0,538.0 L 595.0,537.0"/>
    <path d="M 264.0,684.0 L 309.0,691.0 L 466.0,663.0 L 647.0,642.0 L 723.0,658.0"/>
    <path d="M 390.0,703.0 L 417.0,725.0 L 389.0,784.0 L 384.0,811.0 L 388.0,813.0 L 423.0,815.0 L 537.0,787.0 L 578.0,784.0 L 608.0,790.0 L 636.0,816.0 L 630.0,862.0 L 608.0,925.0 L 570.0,990.0 L 542.0,1019.0 L 515.0,1032.0 L 416.0,973.0"/>
  </g>
</svg>
