<svg xmlns="http://www.w3.org/2000/svg" viewBox="0 0 1024 1024">
  <g style="fill:none;stroke:#000000;stroke-width:50;stroke-linecap:round;stroke-linejoin:round;" transform="scale(1, 1) translate(0, 0)">
    <path d="M 213.0,415.0 L 269.0,422.0 L 393.0,400.0 L 698.0,361.0 L 736.0,362.0 L 790.0,379.0"/>
    <path d="M 476.0,207.0 L 497.0,238.0 L 499.0,259.0 L 444.0,406.0 L 403.0,477.0 L 353.0,546.0 L 291.0,611.0 L 179.0,700.0 L 112.0,739.0"/>
    <path d="M 549.0,404.0 L 579.0,417.0 L 720.0,555.0 L 807.0,620.0 L 976.0,640.0"/>
    <path d="M 312.0,638.0 L 326.0,641.0 L 351.0,671.0 L 344.0,791.0 L 326.0,874.0 L 300.0,933.0 L 273.0,969.0 L 230.0,1008.0 L 206.0,1020.0"/>
    <path d="M 476.0,631.0 L 502.0,662.0 L 497.0,972.0"/>
    <path d="M 623.0,599.0 L 656.0,635.0 L 658.0,977.0 L 675.0,1059.0"/>
  </g>
</svg>
