<svg xmlns="http://www.w3.org/2000/svg" viewBox="0 0 1024 1024">
  <g style="fill:none;stroke:#000000;stroke-width:50;stroke-linecap:round;stroke-linejoin:round;" transform="scale(1, 1) translate(0, 0)">
    <path d="M 350.0,457.0 L 383.0,464.0 L 438.0,461.0 L 559.0,436.0 L 664.0,406.0 L 703.0,399.0 L 743.0,400.0"/>
    <path d="M 474.0,217.0 L 505.0,240.0 L 528.0,274.0 L 507.0,602.0 L 497.0,687.0 L 472.0,785.0 L 454.0,824.0 L 430.0,857.0 L 383.0,904.0 L 284.0,957.0 L 150.0,994.0"/>
    <path d="M 530.0,692.0 L 535.0,720.0 L 624.0,821.0 L 721.0,922.0 L 771.0,964.0 L 810.0,981.0 L 967.0,1007.0"/>
    <path d="M 337.0,528.0 L 356.0,564.0 L 319.0,634.0 L 262.0,697.0 L 204.0,736.0 L 164.0,753.0"/>
    <path d="M 337.0,663.0 L 347.0,682.0 L 395.0,730.0"/>
    <path d="M 703.0,494.0 L 729.0,525.0 L 706.0,584.0 L 676.0,633.0 L 609.0,698.0"/>
    <path d="M 703.0,634.0 L 718.0,635.0 L 779.0,669.0 L 817.0,718.0"/>
  </g>
</svg>
