<svg xmlns="http://www.w3.org/2000/svg" viewBox="0 0 1024 1024">
  <g style="fill:none;stroke:#000000;stroke-width:50;stroke-linecap:round;stroke-linejoin:round;" transform="scale(1, 1) translate(0, 0)">
    <path d="M 308.0,325.0 L 348.0,333.0 L 406.0,330.0 L 495.0,317.0 L 639.0,285.0 L 699.0,285.0"/>
    <path d="M 322.0,432.0 L 365.0,440.0 L 409.0,438.0 L 621.0,396.0 L 665.0,401.0"/>
    <path d="M 185.0,567.0 L 245.0,573.0 L 490.0,525.0 L 732.0,490.0 L 813.0,507.0"/>
    <path d="M 465.0,179.0 L 497.0,213.0 L 500.0,235.0 L 446.0,460.0 L 391.0,579.0 L 329.0,666.0 L 238.0,750.0 L 178.0,788.0 L 87.0,830.0"/>
    <path d="M 591.0,543.0 L 602.0,545.0 L 746.0,694.0 L 817.0,750.0 L 865.0,762.0 L 976.0,776.0"/>
    <path d="M 365.0,712.0 L 423.0,719.0 L 579.0,690.0 L 625.0,693.0"/>
    <path d="M 258.0,852.0 L 295.0,859.0 L 323.0,856.0 L 651.0,805.0 L 709.0,810.0 L 741.0,821.0"/>
    <path d="M 461.0,599.0 L 480.0,611.0 L 501.0,636.0 L 499.0,1100.0"/>
  </g>
</svg>
