<svg xmlns="http://www.w3.org/2000/svg" viewBox="0 0 1024 1024">
  <g style="fill:none;stroke:#000000;stroke-width:50;stroke-linecap:round;stroke-linejoin:round;" transform="scale(1, 1) translate(0, 0)">
    <path d="M 235.0,451.0 L 259.0,459.0 L 324.0,460.0 L 496.0,433.0 L 681.0,391.0 L 745.0,390.0"/>
    <path d="M 465.0,189.0 L 489.0,212.0 L 501.0,236.0 L 461.0,389.0 L 428.0,476.0 L 387.0,553.0 L 350.0,607.0 L 278.0,679.0 L 192.0,735.0 L 97.0,774.0"/>
    <path d="M 545.0,450.0 L 559.0,457.0 L 705.0,603.0 L 800.0,677.0 L 887.0,702.0 L 978.0,716.0"/>
    <path d="M 268.0,718.0 L 296.0,734.0 L 316.0,769.0 L 335.0,930.0 L 356.0,1011.0"/>
    <path d="M 324.0,716.0 L 334.0,725.0 L 360.0,732.0 L 623.0,678.0 L 641.0,679.0 L 665.0,695.0 L 680.0,713.0 L 660.0,867.0 L 640.0,967.0 L 623.0,994.0 L 596.0,978.0 L 570.0,946.0"/>
    <path d="M 381.0,852.0 L 536.0,831.0 L 566.0,830.0 L 589.0,837.0"/>
    <path d="M 458.0,734.0 L 485.0,757.0 L 487.0,777.0 L 484.0,922.0 L 469.0,945.0"/>
    <path d="M 377.0,990.0 L 395.0,979.0 L 528.0,962.0 L 547.0,961.0 L 562.0,976.0"/>
  </g>
</svg>
