<svg xmlns="http://www.w3.org/2000/svg" viewBox="0 0 1024 1024">
  <g style="fill:none;stroke:#000000;stroke-width:50;stroke-linecap:round;stroke-linejoin:round;" transform="scale(1, 1) translate(0, 0)">
    <path d="M 260.0,330.0 L 306.0,341.0 L 356.0,340.0 L 508.0,320.0 L 713.0,279.0 L 781.0,279.0"/>
    <path d="M 457.0,170.0 L 480.0,211.0 L 437.0,321.0 L 371.0,431.0 L 311.0,502.0 L 233.0,573.0 L 159.0,624.0 L 84.0,663.0"/>
    <path d="M 537.0,342.0 L 561.0,353.0 L 712.0,510.0 L 808.0,588.0 L 859.0,601.0 L 987.0,616.0"/>
    <path d="M 466.0,410.0 L 482.0,441.0 L 459.0,478.0 L 418.0,525.0 L 353.0,584.0 L 266.0,629.0"/>
    <path d="M 460.0,516.0 L 526.0,488.0 L 566.0,481.0 L 584.0,491.0 L 591.0,508.0 L 542.0,583.0 L 454.0,673.0 L 366.0,736.0 L 313.0,763.0 L 276.0,774.0"/>
    <path d="M 373.0,589.0 L 430.0,613.0 L 444.0,642.0"/>
    <path d="M 528.0,661.0 L 542.0,697.0 L 503.0,751.0 L 463.0,792.0 L 379.0,858.0 L 284.0,905.0"/>
    <path d="M 510.0,780.0 L 520.0,781.0 L 619.0,744.0 L 665.0,749.0 L 675.0,762.0 L 639.0,828.0 L 599.0,883.0 L 521.0,966.0 L 469.0,1007.0 L 371.0,1064.0 L 279.0,1096.0 L 225.0,1103.0"/>
    <path d="M 425.0,855.0 L 453.0,866.0 L 492.0,895.0 L 505.0,914.0 L 509.0,937.0"/>
  </g>
</svg>
