<svg xmlns="http://www.w3.org/2000/svg" viewBox="0 0 1024 1024">
  <g style="fill:none;stroke:#000000;stroke-width:50;stroke-linecap:round;stroke-linejoin:round;" transform="scale(1, 1) translate(0, 0)">
    <path d="M 301.0,344.0 L 324.0,350.0 L 376.0,350.0 L 473.0,334.0 L 657.0,291.0 L 698.0,292.0"/>
    <path d="M 304.0,463.0 L 360.0,468.0 L 607.0,421.0 L 655.0,426.0"/>
    <path d="M 205.0,592.0 L 250.0,598.0 L 507.0,548.0 L 703.0,521.0 L 780.0,535.0"/>
    <path d="M 464.0,192.0 L 490.0,214.0 L 503.0,238.0 L 466.0,427.0 L 413.0,573.0 L 361.0,657.0 L 276.0,749.0 L 208.0,799.0 L 107.0,850.0"/>
    <path d="M 557.0,563.0 L 586.0,580.0 L 674.0,665.0 L 790.0,755.0 L 840.0,771.0 L 979.0,788.0"/>
    <path d="M 376.0,719.0 L 433.0,723.0 L 566.0,688.0 L 608.0,689.0"/>
    <path d="M 268.0,861.0 L 303.0,868.0 L 654.0,810.0 L 723.0,823.0"/>
    <path d="M 437.0,751.0 L 466.0,768.0 L 466.0,817.0 L 454.0,868.0 L 423.0,929.0 L 390.0,967.0 L 349.0,997.0 L 279.0,1027.0 L 250.0,1033.0"/>
    <path d="M 542.0,895.0 L 666.0,981.0 L 683.0,998.0 L 702.0,1038.0"/>
  </g>
</svg>
