<svg xmlns="http://www.w3.org/2000/svg" viewBox="0 0 1024 1024">
  <g style="fill:none;stroke:#000000;stroke-width:50;stroke-linecap:round;stroke-linejoin:round;" transform="scale(1, 1) translate(0, 0)">
    <path d="M 424.0,180.0 L 444.0,221.0 L 410.0,281.0 L 345.0,352.0 L 288.0,390.0"/>
    <path d="M 448.0,277.0 L 581.0,254.0 L 619.0,272.0 L 593.0,314.0 L 547.0,369.0 L 510.0,411.0 L 486.0,425.0"/>
    <path d="M 253.0,475.0 L 272.0,486.0 L 299.0,520.0 L 338.0,644.0"/>
    <path d="M 297.0,471.0 L 332.0,483.0 L 583.0,428.0 L 670.0,422.0 L 686.0,430.0 L 707.0,465.0 L 639.0,615.0"/>
    <path d="M 450.0,480.0 L 467.0,498.0 L 444.0,544.0 L 399.0,595.0 L 381.0,607.0"/>
    <path d="M 469.0,544.0 L 484.0,541.0 L 538.0,564.0 L 566.0,583.0 L 577.0,599.0"/>
    <path d="M 162.0,768.0 L 199.0,774.0 L 226.0,771.0 L 507.0,718.0 L 733.0,688.0 L 775.0,689.0 L 821.0,701.0"/>
    <path d="M 399.0,643.0 L 436.0,680.0 L 434.0,712.0 L 419.0,791.0 L 378.0,882.0 L 324.0,941.0 L 282.0,968.0 L 202.0,1003.0 L 153.0,1015.0"/>
    <path d="M 467.0,751.0 L 658.0,940.0 L 745.0,999.0 L 768.0,1008.0 L 933.0,1020.0"/>
  </g>
</svg>
