<svg xmlns="http://www.w3.org/2000/svg" viewBox="0 0 1024 1024">
  <g style="fill:none;stroke:#000000;stroke-width:50;stroke-linecap:round;stroke-linejoin:round;" transform="scale(1, 1) translate(0, 0)">
    <path d="M 280.0,361.0 L 321.0,369.0 L 379.0,367.0 L 602.0,330.0 L 699.0,307.0 L 747.0,309.0"/>
    <path d="M 480.0,184.0 L 499.0,212.0 L 498.0,234.0 L 450.0,360.0 L 392.0,459.0 L 347.0,516.0 L 276.0,587.0 L 206.0,642.0 L 108.0,700.0"/>
    <path d="M 572.0,360.0 L 590.0,371.0 L 736.0,532.0 L 794.0,580.0 L 842.0,594.0 L 952.0,611.0"/>
    <path d="M 416.0,516.0 L 448.0,522.0 L 570.0,495.0 L 617.0,494.0"/>
    <path d="M 394.0,510.0 L 406.0,560.0 L 414.0,759.0 L 428.0,770.0"/>
    <path d="M 441.0,631.0 L 450.0,620.0 L 526.0,603.0 L 570.0,596.0 L 603.0,601.0"/>
    <path d="M 441.0,715.0 L 450.0,706.0 L 537.0,688.0 L 593.0,683.0 L 615.0,689.0"/>
    <path d="M 158.0,816.0 L 214.0,824.0 L 476.0,787.0 L 750.0,762.0 L 796.0,768.0 L 835.0,781.0"/>
    <path d="M 477.0,832.0 L 461.0,832.0 L 439.0,842.0 L 357.0,958.0 L 349.0,989.0 L 384.0,990.0 L 635.0,935.0 L 643.0,943.0"/>
    <path d="M 608.0,854.0 L 710.0,966.0 L 732.0,1013.0 L 732.0,1038.0"/>
  </g>
</svg>
