<svg xmlns="http://www.w3.org/2000/svg" viewBox="0 0 1024 1024">
  <g style="fill:none;stroke:#000000;stroke-width:50;stroke-linecap:round;stroke-linejoin:round;" transform="scale(1, 1) translate(0, 0)">
    <path d="M 226.0,300.0 L 279.0,307.0 L 500.0,273.0 L 683.0,255.0 L 722.0,259.0 L 757.0,272.0"/>
    <path d="M 429.0,153.0 L 450.0,191.0 L 447.0,201.0 L 393.0,330.0 L 340.0,412.0 L 246.0,511.0 L 153.0,580.0 L 84.0,617.0"/>
    <path d="M 546.0,300.0 L 560.0,304.0 L 563.0,314.0 L 572.0,317.0 L 714.0,457.0 L 793.0,512.0 L 837.0,522.0 L 956.0,532.0"/>
    <path d="M 405.0,410.0 L 420.0,444.0 L 384.0,492.0 L 309.0,561.0 L 304.0,572.0 L 226.0,625.0"/>
    <path d="M 341.0,564.0 L 351.0,600.0 L 339.0,724.0 L 344.0,764.0"/>
    <path d="M 472.0,375.0 L 516.0,406.0 L 531.0,425.0"/>
    <path d="M 408.0,500.0 L 464.0,496.0 L 579.0,467.0 L 624.0,464.0"/>
    <path d="M 417.0,577.0 L 475.0,571.0 L 577.0,542.0 L 613.0,538.0 L 629.0,543.0"/>
    <path d="M 413.0,645.0 L 477.0,639.0 L 601.0,610.0 L 632.0,614.0"/>
    <path d="M 489.0,511.0 L 511.0,529.0 L 509.0,663.0 L 505.0,678.0 L 495.0,687.0"/>
    <path d="M 375.0,725.0 L 379.0,731.0 L 399.0,731.0 L 611.0,691.0 L 679.0,701.0"/>
    <path d="M 126.0,855.0 L 167.0,865.0 L 197.0,863.0 L 383.0,833.0 L 759.0,800.0 L 806.0,804.0 L 854.0,818.0"/>
    <path d="M 537.0,743.0 L 569.0,783.0 L 572.0,981.0 L 564.0,1041.0 L 546.0,1062.0 L 456.0,1033.0"/>
    <path d="M 336.0,887.0 L 402.0,941.0 L 414.0,970.0"/>
  </g>
</svg>
