<svg xmlns="http://www.w3.org/2000/svg" viewBox="0 0 1024 1024">
  <g style="fill:none;stroke:#000000;stroke-width:50;stroke-linecap:round;stroke-linejoin:round;" transform="scale(1, 1) translate(0, 0)">
    <path d="M 303.0,216.0 L 327.0,235.0 L 347.0,270.0 L 291.0,536.0 L 233.0,727.0 L 252.0,747.0 L 380.0,816.0 L 422.0,845.0 L 438.0,861.0 L 454.0,893.0"/>
    <path d="M 419.0,489.0 L 447.0,537.0 L 402.0,684.0 L 343.0,804.0 L 302.0,859.0 L 258.0,899.0 L 196.0,940.0 L 130.0,963.0"/>
    <path d="M 80.0,594.0 L 103.0,607.0 L 136.0,614.0 L 199.0,591.0 L 389.0,546.0 L 407.0,532.0"/>
    <path d="M 534.0,513.0 L 568.0,524.0 L 606.0,520.0 L 749.0,481.0 L 774.0,481.0 L 799.0,498.0 L 754.0,660.0 L 687.0,786.0 L 631.0,849.0 L 587.0,883.0 L 457.0,954.0"/>
    <path d="M 522.0,616.0 L 570.0,648.0 L 688.0,807.0 L 785.0,909.0 L 834.0,934.0 L 969.0,972.0 L 991.0,973.0"/>
  </g>
</svg>
