<svg xmlns="http://www.w3.org/2000/svg" viewBox="0 0 1024 1024">
  <g style="fill:none;stroke:#000000;stroke-width:50;stroke-linecap:round;stroke-linejoin:round;" transform="scale(1, 1) translate(0, 0)">
    <path d="M 255.0,242.0 L 271.0,251.0 L 302.0,294.0 L 253.0,571.0 L 200.0,760.0 L 220.0,784.0 L 381.0,878.0 L 401.0,900.0 L 413.0,933.0"/>
    <path d="M 352.0,541.0 L 373.0,556.0 L 389.0,580.0 L 361.0,725.0 L 325.0,817.0 L 297.0,864.0 L 251.0,915.0 L 180.0,969.0 L 119.0,998.0"/>
    <path d="M 42.0,630.0 L 94.0,650.0 L 180.0,622.0 L 330.0,585.0 L 344.0,573.0"/>
    <path d="M 787.0,309.0 L 711.0,312.0 L 609.0,401.0 L 472.0,485.0"/>
    <path d="M 444.0,654.0 L 476.0,658.0 L 509.0,651.0 L 648.0,609.0 L 796.0,575.0 L 880.0,582.0"/>
    <path d="M 544.0,463.0 L 570.0,475.0 L 580.0,503.0 L 559.0,761.0 L 564.0,840.0 L 579.0,901.0 L 612.0,938.0 L 678.0,966.0 L 753.0,975.0 L 837.0,968.0 L 897.0,947.0 L 929.0,920.0 L 940.0,765.0"/>
  </g>
</svg>
