<svg xmlns="http://www.w3.org/2000/svg" viewBox="0 0 1024 1024">
  <g style="fill:none;stroke:#000000;stroke-width:50;stroke-linecap:round;stroke-linejoin:round;" transform="scale(1, 1) translate(0, 0)">
    <path d="M 284.0,230.0 L 308.0,249.0 L 329.0,282.0 L 291.0,513.0 L 240.0,708.0 L 248.0,722.0 L 272.0,739.0 L 399.0,812.0 L 421.0,836.0 L 432.0,868.0"/>
    <path d="M 414.0,478.0 L 442.0,521.0 L 404.0,658.0 L 367.0,750.0 L 325.0,819.0 L 287.0,857.0 L 222.0,905.0 L 156.0,932.0"/>
    <path d="M 70.0,573.0 L 122.0,595.0 L 213.0,567.0 L 386.0,526.0 L 402.0,513.0"/>
    <path d="M 505.0,431.0 L 527.0,438.0 L 571.0,435.0 L 787.0,374.0 L 817.0,377.0 L 835.0,398.0 L 750.0,602.0 L 781.0,607.0 L 834.0,602.0 L 857.0,612.0 L 882.0,641.0 L 866.0,759.0 L 840.0,861.0 L 829.0,892.0 L 801.0,939.0 L 756.0,973.0 L 658.0,914.0"/>
    <path d="M 588.0,455.0 L 610.0,468.0 L 621.0,492.0 L 599.0,602.0 L 566.0,710.0 L 546.0,763.0 L 494.0,859.0 L 430.0,936.0 L 402.0,959.0"/>
  </g>
</svg>
