<svg xmlns="http://www.w3.org/2000/svg" viewBox="0 0 1024 1024">
  <g style="fill:none;stroke:#000000;stroke-width:50;stroke-linecap:round;stroke-linejoin:round;" transform="scale(1, 1) translate(0, 0)">
    <path d="M 296.0,246.0 L 319.0,267.0 L 337.0,302.0 L 270.0,560.0 L 217.0,711.0 L 235.0,732.0 L 366.0,811.0 L 414.0,849.0 L 441.0,896.0"/>
    <path d="M 388.0,484.0 L 408.0,498.0 L 424.0,524.0 L 392.0,674.0 L 366.0,737.0 L 323.0,808.0 L 273.0,858.0 L 224.0,897.0 L 157.0,927.0"/>
    <path d="M 66.0,573.0 L 118.0,596.0 L 178.0,576.0 L 363.0,536.0 L 380.0,523.0"/>
    <path d="M 602.0,205.0 L 632.0,225.0 L 647.0,252.0 L 616.0,351.0 L 568.0,467.0 L 520.0,561.0 L 484.0,608.0"/>
    <path d="M 575.0,503.0 L 803.0,456.0 L 828.0,463.0 L 857.0,493.0 L 833.0,788.0 L 811.0,884.0 L 782.0,954.0 L 755.0,988.0 L 730.0,1004.0 L 625.0,944.0"/>
    <path d="M 536.0,651.0 L 547.0,666.0 L 618.0,721.0 L 641.0,764.0"/>
  </g>
</svg>
