<svg xmlns="http://www.w3.org/2000/svg" viewBox="0 0 1024 1024">
  <g style="fill:none;stroke:#000000;stroke-width:50;stroke-linecap:round;stroke-linejoin:round;" transform="scale(1, 1) translate(0, 0)">
    <path d="M 338.0,227.0 L 362.0,247.0 L 383.0,284.0 L 325.0,532.0 L 261.0,736.0 L 278.0,755.0 L 475.0,881.0 L 494.0,906.0 L 504.0,935.0"/>
    <path d="M 450.0,489.0 L 468.0,503.0 L 486.0,534.0 L 442.0,693.0 L 392.0,799.0 L 354.0,851.0 L 300.0,900.0 L 241.0,939.0 L 164.0,970.0"/>
    <path d="M 78.0,596.0 L 133.0,619.0 L 217.0,593.0 L 424.0,547.0 L 441.0,530.0"/>
    <path d="M 558.0,567.0 L 582.0,588.0 L 595.0,611.0 L 636.0,844.0"/>
    <path d="M 613.0,570.0 L 624.0,578.0 L 640.0,579.0 L 793.0,536.0 L 822.0,542.0 L 844.0,558.0 L 854.0,570.0 L 820.0,716.0 L 792.0,741.0"/>
    <path d="M 656.0,811.0 L 674.0,794.0 L 779.0,774.0 L 830.0,772.0 L 858.0,780.0"/>
  </g>
</svg>
