<svg xmlns="http://www.w3.org/2000/svg" viewBox="0 0 1024 1024">
  <g style="fill:none;stroke:#000000;stroke-width:50;stroke-linecap:round;stroke-linejoin:round;" transform="scale(1, 1) translate(0, 0)">
    <path d="M 275.0,254.0 L 300.0,272.0 L 323.0,306.0 L 290.0,523.0 L 267.0,638.0 L 240.0,731.0 L 252.0,752.0 L 399.0,855.0 L 421.0,881.0 L 431.0,915.0"/>
    <path d="M 395.0,521.0 L 430.0,559.0 L 406.0,683.0 L 372.0,773.0 L 336.0,835.0 L 284.0,890.0 L 238.0,924.0 L 167.0,959.0"/>
    <path d="M 72.0,626.0 L 123.0,645.0 L 373.0,580.0 L 388.0,568.0"/>
    <path d="M 488.0,492.0 L 512.0,497.0 L 562.0,494.0 L 682.0,465.0 L 790.0,431.0 L 849.0,426.0"/>
    <path d="M 616.0,203.0 L 665.0,245.0 L 653.0,589.0 L 636.0,612.0"/>
    <path d="M 516.0,649.0 L 581.0,648.0 L 699.0,614.0 L 730.0,616.0 L 752.0,627.0 L 710.0,755.0 L 674.0,825.0 L 641.0,868.0 L 553.0,934.0 L 470.0,964.0 L 435.0,967.0"/>
    <path d="M 512.0,702.0 L 552.0,720.0 L 580.0,744.0 L 694.0,870.0 L 787.0,942.0 L 850.0,958.0 L 974.0,977.0"/>
  </g>
</svg>
