<svg xmlns="http://www.w3.org/2000/svg" viewBox="0 0 1024 1024">
  <g style="fill:none;stroke:#000000;stroke-width:50;stroke-linecap:round;stroke-linejoin:round;" transform="scale(1, 1) translate(0, 0)">
    <path d="M 235.0,237.0 L 260.0,256.0 L 281.0,290.0 L 221.0,588.0 L 176.0,739.0 L 193.0,760.0 L 334.0,855.0 L 359.0,882.0 L 372.0,918.0"/>
    <path d="M 329.0,516.0 L 354.0,539.0 L 361.0,555.0 L 327.0,706.0 L 292.0,786.0 L 264.0,831.0 L 218.0,882.0 L 156.0,926.0 L 88.0,960.0"/>
    <path d="M 44.0,617.0 L 92.0,635.0 L 301.0,576.0 L 321.0,562.0"/>
    <path d="M 587.0,236.0 L 622.0,267.0 L 613.0,313.0 L 572.0,428.0 L 492.0,570.0 L 448.0,628.0 L 382.0,693.0"/>
    <path d="M 632.0,362.0 L 642.0,391.0 L 720.0,485.0 L 831.0,594.0 L 989.0,632.0"/>
    <path d="M 556.0,591.0 L 623.0,635.0 L 648.0,674.0"/>
    <path d="M 452.0,795.0 L 493.0,806.0 L 514.0,805.0 L 654.0,759.0 L 699.0,750.0 L 716.0,752.0 L 734.0,764.0 L 739.0,776.0 L 727.0,809.0 L 658.0,944.0 L 623.0,994.0 L 606.0,1048.0"/>
  </g>
</svg>
