<svg xmlns="http://www.w3.org/2000/svg" viewBox="0 0 1024 1024">
  <g style="fill:none;stroke:#000000;stroke-width:50;stroke-linecap:round;stroke-linejoin:round;" transform="scale(1, 1) translate(0, 0)">
    <path d="M 282.0,224.0 L 307.0,243.0 L 327.0,278.0 L 261.0,560.0 L 209.0,719.0 L 228.0,742.0 L 364.0,829.0 L 389.0,859.0 L 399.0,892.0"/>
    <path d="M 382.0,491.0 L 400.0,506.0 L 416.0,531.0 L 380.0,679.0 L 348.0,757.0 L 309.0,819.0 L 251.0,877.0 L 178.0,929.0 L 121.0,951.0"/>
    <path d="M 49.0,591.0 L 99.0,612.0 L 195.0,583.0 L 362.0,546.0 L 371.0,534.0"/>
    <path d="M 527.0,440.0 L 575.0,450.0 L 792.0,403.0 L 818.0,409.0 L 842.0,439.0 L 812.0,607.0 L 783.0,829.0 L 756.0,861.0"/>
    <path d="M 617.0,467.0 L 643.0,488.0 L 647.0,498.0 L 596.0,852.0 L 575.0,876.0"/>
    <path d="M 456.0,665.0 L 501.0,675.0 L 684.0,645.0 L 749.0,652.0"/>
    <path d="M 426.0,905.0 L 464.0,915.0 L 658.0,894.0 L 836.0,883.0 L 893.0,888.0 L 939.0,904.0"/>
  </g>
</svg>
