<svg xmlns="http://www.w3.org/2000/svg" viewBox="0 0 1024 1024">
  <g style="fill:none;stroke:#000000;stroke-width:50;stroke-linecap:round;stroke-linejoin:round;" transform="scale(1, 1) translate(0, 0)">
    <path d="M 243.0,242.0 L 259.0,251.0 L 290.0,294.0 L 241.0,564.0 L 191.0,744.0 L 207.0,767.0 L 343.0,885.0 L 365.0,915.0 L 374.0,950.0"/>
    <path d="M 351.0,524.0 L 385.0,562.0 L 353.0,709.0 L 310.0,813.0 L 262.0,882.0 L 208.0,933.0 L 156.0,968.0 L 93.0,995.0"/>
    <path d="M 43.0,657.0 L 94.0,676.0 L 331.0,599.0 L 343.0,583.0"/>
    <path d="M 517.0,630.0 L 522.0,618.0 L 553.0,603.0 L 585.0,596.0 L 621.0,600.0"/>
    <path d="M 446.0,448.0 L 468.0,460.0 L 487.0,483.0 L 487.0,658.0 L 473.0,816.0 L 481.0,855.0 L 519.0,842.0 L 630.0,741.0"/>
    <path d="M 838.0,481.0 L 846.0,493.0 L 850.0,524.0 L 764.0,577.0 L 719.0,597.0 L 708.0,611.0"/>
    <path d="M 642.0,320.0 L 670.0,337.0 L 692.0,366.0 L 684.0,458.0 L 681.0,694.0 L 690.0,829.0 L 706.0,884.0 L 738.0,917.0 L 793.0,936.0 L 872.0,937.0 L 913.0,924.0 L 928.0,913.0 L 928.0,772.0"/>
  </g>
</svg>
