<svg xmlns="http://www.w3.org/2000/svg" viewBox="0 0 1024 1024">
  <g style="fill:none;stroke:#000000;stroke-width:50;stroke-linecap:round;stroke-linejoin:round;" transform="scale(1, 1) translate(0, 0)">
    <path d="M 254.0,262.0 L 272.0,272.0 L 301.0,313.0 L 253.0,572.0 L 204.0,745.0 L 235.0,775.0 L 363.0,851.0 L 390.0,898.0"/>
    <path d="M 349.0,537.0 L 361.0,544.0 L 385.0,576.0 L 361.0,700.0 L 323.0,798.0 L 284.0,856.0 L 230.0,908.0 L 171.0,945.0 L 137.0,958.0"/>
    <path d="M 57.0,623.0 L 107.0,644.0 L 180.0,621.0 L 331.0,587.0 L 341.0,575.0"/>
    <path d="M 445.0,563.0 L 480.0,593.0 L 491.0,618.0 L 514.0,855.0 L 532.0,927.0"/>
    <path d="M 508.0,577.0 L 538.0,590.0 L 669.0,570.0 L 818.0,538.0 L 848.0,548.0 L 873.0,575.0 L 839.0,840.0 L 828.0,879.0 L 811.0,903.0 L 811.0,962.0"/>
    <path d="M 566.0,728.0 L 696.0,705.0 L 750.0,710.0"/>
    <path d="M 616.0,244.0 L 670.0,288.0 L 672.0,324.0 L 657.0,834.0 L 636.0,855.0"/>
    <path d="M 550.0,904.0 L 567.0,890.0 L 779.0,864.0"/>
  </g>
</svg>
