<svg xmlns="http://www.w3.org/2000/svg" viewBox="0 0 1024 1024">
  <g style="fill:none;stroke:#000000;stroke-width:50;stroke-linecap:round;stroke-linejoin:round;" transform="scale(1, 1) translate(0, 0)">
    <path d="M 283.0,264.0 L 300.0,275.0 L 327.0,318.0 L 285.0,524.0 L 248.0,664.0 L 220.0,743.0 L 236.0,765.0 L 345.0,846.0 L 379.0,878.0 L 390.0,892.0 L 403.0,931.0"/>
    <path d="M 379.0,520.0 L 398.0,535.0 L 413.0,558.0 L 384.0,692.0 L 352.0,771.0 L 329.0,809.0 L 279.0,867.0 L 221.0,911.0 L 153.0,943.0"/>
    <path d="M 67.0,637.0 L 118.0,656.0 L 176.0,632.0 L 363.0,575.0 L 371.0,564.0"/>
    <path d="M 574.0,243.0 L 594.0,253.0 L 620.0,283.0 L 613.0,318.0 L 591.0,395.0 L 556.0,485.0 L 521.0,561.0 L 480.0,624.0"/>
    <path d="M 569.0,518.0 L 612.0,513.0 L 786.0,455.0 L 822.0,457.0 L 846.0,480.0 L 829.0,509.0 L 766.0,580.0"/>
    <path d="M 634.0,589.0 L 660.0,610.0 L 681.0,639.0 L 676.0,726.0 L 680.0,880.0 L 674.0,948.0 L 657.0,978.0 L 546.0,923.0"/>
    <path d="M 525.0,711.0 L 508.0,775.0 L 468.0,863.0"/>
    <path d="M 765.0,722.0 L 877.0,794.0 L 899.0,819.0 L 913.0,850.0"/>
  </g>
</svg>
