<svg xmlns="http://www.w3.org/2000/svg" viewBox="0 0 1024 1024">
  <g style="fill:none;stroke:#000000;stroke-width:50;stroke-linecap:round;stroke-linejoin:round;" transform="scale(1, 1) translate(0, 0)">
    <path d="M 247.0,257.0 L 272.0,276.0 L 292.0,310.0 L 244.0,557.0 L 211.0,683.0 L 189.0,740.0 L 190.0,756.0 L 207.0,773.0 L 341.0,855.0 L 368.0,880.0 L 385.0,916.0"/>
    <path d="M 352.0,500.0 L 374.0,517.0 L 389.0,542.0 L 361.0,685.0 L 315.0,795.0 L 277.0,851.0 L 231.0,896.0 L 178.0,936.0 L 107.0,970.0"/>
    <path d="M 49.0,606.0 L 100.0,627.0 L 325.0,575.0 L 345.0,561.0"/>
    <path d="M 488.0,452.0 L 542.0,456.0 L 602.0,446.0 L 743.0,406.0 L 783.0,408.0"/>
    <path d="M 432.0,620.0 L 485.0,623.0 L 789.0,559.0 L 863.0,572.0"/>
    <path d="M 573.0,199.0 L 616.0,239.0 L 626.0,263.0 L 619.0,762.0 L 606.0,976.0 L 607.0,1061.0"/>
    <path d="M 635.0,617.0 L 589.0,644.0 L 541.0,723.0 L 496.0,783.0 L 422.0,862.0"/>
    <path d="M 647.0,619.0 L 654.0,645.0 L 685.0,685.0 L 744.0,755.0 L 825.0,835.0 L 875.0,853.0 L 980.0,875.0"/>
  </g>
</svg>
