<svg xmlns="http://www.w3.org/2000/svg" viewBox="0 0 1024 1024">
  <g style="fill:none;stroke:#000000;stroke-width:50;stroke-linecap:round;stroke-linejoin:round;" transform="scale(1, 1) translate(0, 0)">
    <path d="M 276.0,232.0 L 300.0,250.0 L 320.0,284.0 L 262.0,546.0 L 205.0,724.0 L 210.0,737.0 L 234.0,755.0 L 387.0,849.0 L 405.0,872.0 L 414.0,897.0"/>
    <path d="M 364.0,503.0 L 398.0,540.0 L 368.0,678.0 L 338.0,752.0 L 275.0,842.0 L 207.0,896.0 L 132.0,932.0"/>
    <path d="M 62.0,599.0 L 111.0,621.0 L 202.0,593.0 L 336.0,565.0 L 357.0,550.0"/>
    <path d="M 630.0,260.0 L 661.0,296.0 L 656.0,311.0 L 610.0,412.0 L 524.0,556.0 L 505.0,611.0 L 547.0,613.0 L 782.0,555.0 L 793.0,565.0"/>
    <path d="M 739.0,456.0 L 832.0,543.0 L 853.0,587.0 L 855.0,609.0"/>
    <path d="M 482.0,757.0 L 508.0,779.0 L 516.0,797.0 L 556.0,997.0"/>
    <path d="M 536.0,759.0 L 545.0,767.0 L 567.0,768.0 L 739.0,726.0 L 763.0,727.0 L 799.0,758.0 L 775.0,851.0 L 751.0,869.0"/>
    <path d="M 571.0,918.0 L 584.0,929.0 L 749.0,899.0 L 793.0,898.0 L 814.0,906.0"/>
  </g>
</svg>
