<svg xmlns="http://www.w3.org/2000/svg" viewBox="0 0 1024 1024">
  <g style="fill:none;stroke:#000000;stroke-width:50;stroke-linecap:round;stroke-linejoin:round;" transform="scale(1, 1) translate(0, 0)">
    <path d="M 650.0,244.0 L 583.0,223.0 L 506.0,257.0 L 397.0,285.0 L 384.0,283.0 L 366.0,291.0 L 356.0,287.0 L 336.0,299.0"/>
    <path d="M 226.0,428.0 L 280.0,435.0 L 421.0,409.0 L 689.0,376.0 L 745.0,382.0 L 775.0,392.0"/>
    <path d="M 474.0,291.0 L 502.0,308.0 L 516.0,326.0 L 506.0,467.0 L 508.0,598.0"/>
    <path d="M 481.0,427.0 L 430.0,491.0 L 377.0,540.0 L 284.0,598.0 L 225.0,621.0"/>
    <path d="M 535.0,422.0 L 544.0,439.0 L 592.0,479.0 L 708.0,559.0 L 794.0,572.0 L 875.0,575.0"/>
    <path d="M 443.0,603.0 L 458.0,620.0 L 466.0,646.0 L 377.0,806.0 L 370.0,832.0 L 393.0,849.0 L 505.0,892.0 L 613.0,946.0 L 692.0,995.0 L 745.0,1051.0"/>
    <path d="M 584.0,683.0 L 611.0,710.0 L 608.0,752.0 L 568.0,849.0 L 520.0,914.0 L 458.0,963.0 L 421.0,981.0 L 337.0,1005.0 L 268.0,1011.0"/>
    <path d="M 100.0,750.0 L 154.0,762.0 L 503.0,722.0 L 836.0,702.0 L 871.0,707.0 L 931.0,728.0"/>
  </g>
</svg>
