<svg xmlns="http://www.w3.org/2000/svg" viewBox="0 0 1024 1024">
  <g style="fill:none;stroke:#000000;stroke-width:50;stroke-linecap:round;stroke-linejoin:round;" transform="scale(1, 1) translate(0, 0)">
    <path d="M 263.0,260.0 L 287.0,279.0 L 307.0,314.0 L 253.0,564.0 L 205.0,719.0 L 222.0,740.0 L 365.0,829.0 L 383.0,848.0 L 397.0,880.0"/>
    <path d="M 355.0,504.0 L 389.0,542.0 L 362.0,670.0 L 331.0,752.0 L 293.0,815.0 L 259.0,851.0 L 195.0,903.0 L 121.0,939.0"/>
    <path d="M 53.0,602.0 L 111.0,619.0 L 174.0,595.0 L 327.0,554.0 L 346.0,539.0"/>
    <path d="M 513.0,347.0 L 542.0,358.0 L 577.0,358.0 L 803.0,317.0 L 853.0,317.0"/>
    <path d="M 677.0,365.0 L 707.0,402.0 L 697.0,504.0 L 676.0,523.0"/>
    <path d="M 561.0,548.0 L 585.0,570.0 L 591.0,587.0 L 616.0,735.0"/>
    <path d="M 614.0,556.0 L 625.0,562.0 L 763.0,530.0 L 785.0,538.0 L 807.0,560.0 L 781.0,637.0 L 759.0,656.0"/>
    <path d="M 636.0,709.0 L 652.0,697.0 L 746.0,681.0 L 799.0,679.0 L 818.0,687.0"/>
    <path d="M 678.0,713.0 L 706.0,745.0 L 699.0,874.0 L 682.0,885.0"/>
    <path d="M 461.0,332.0 L 490.0,364.0 L 500.0,409.0 L 495.0,714.0 L 482.0,942.0 L 524.0,945.0 L 627.0,923.0 L 865.0,903.0 L 884.0,904.0 L 924.0,920.0"/>
  </g>
</svg>
