<svg xmlns="http://www.w3.org/2000/svg" viewBox="0 0 1024 1024">
  <g style="fill:none;stroke:#000000;stroke-width:50;stroke-linecap:round;stroke-linejoin:round;" transform="scale(1, 1) translate(0, 0)">
    <path d="M 252.0,270.0 L 321.0,311.0 L 351.0,349.0"/>
    <path d="M 241.0,647.0 L 237.0,621.0 L 243.0,580.0 L 367.0,431.0"/>
    <path d="M 492.0,201.0 L 522.0,233.0 L 515.0,265.0 L 473.0,361.0 L 430.0,418.0 L 405.0,441.0"/>
    <path d="M 504.0,360.0 L 678.0,318.0 L 723.0,318.0 L 745.0,344.0 L 711.0,381.0 L 649.0,429.0"/>
    <path d="M 530.0,405.0 L 541.0,414.0 L 553.0,441.0 L 514.0,541.0 L 462.0,599.0 L 417.0,628.0 L 361.0,646.0"/>
    <path d="M 565.0,496.0 L 594.0,531.0 L 704.0,618.0 L 745.0,628.0 L 853.0,635.0"/>
    <path d="M 451.0,633.0 L 462.0,675.0 L 372.0,851.0 L 394.0,866.0 L 459.0,889.0 L 539.0,928.0 L 620.0,972.0 L 671.0,1004.0 L 720.0,1059.0"/>
    <path d="M 573.0,690.0 L 605.0,725.0 L 592.0,773.0 L 552.0,862.0 L 503.0,925.0 L 448.0,968.0 L 399.0,994.0 L 315.0,1018.0 L 248.0,1024.0"/>
    <path d="M 118.0,775.0 L 177.0,786.0 L 468.0,751.0 L 802.0,729.0 L 863.0,734.0 L 909.0,750.0"/>
  </g>
</svg>
