<svg xmlns="http://www.w3.org/2000/svg" viewBox="0 0 1024 1024">
  <g style="fill:none;stroke:#000000;stroke-width:50;stroke-linecap:round;stroke-linejoin:round;" transform="scale(1, 1) translate(0, 0)">
    <path d="M 266.0,266.0 L 292.0,284.0 L 313.0,318.0 L 264.0,573.0 L 217.0,738.0 L 233.0,763.0 L 378.0,853.0 L 395.0,871.0 L 409.0,904.0"/>
    <path d="M 371.0,532.0 L 389.0,546.0 L 404.0,571.0 L 378.0,693.0 L 343.0,789.0 L 315.0,837.0 L 264.0,893.0 L 195.0,944.0 L 135.0,971.0"/>
    <path d="M 64.0,638.0 L 114.0,657.0 L 355.0,581.0 L 362.0,571.0"/>
    <path d="M 521.0,474.0 L 577.0,480.0 L 685.0,460.0 L 760.0,439.0 L 802.0,442.0"/>
    <path d="M 613.0,231.0 L 651.0,261.0 L 661.0,280.0 L 647.0,580.0 L 630.0,599.0"/>
    <path d="M 452.0,640.0 L 497.0,647.0 L 800.0,600.0 L 844.0,603.0 L 887.0,614.0"/>
    <path d="M 499.0,806.0 L 547.0,813.0 L 730.0,779.0 L 791.0,784.0"/>
    <path d="M 616.0,650.0 L 643.0,668.0 L 651.0,694.0 L 648.0,917.0 L 633.0,936.0"/>
    <path d="M 414.0,976.0 L 470.0,985.0 L 565.0,970.0 L 822.0,945.0 L 867.0,946.0 L 931.0,965.0"/>
  </g>
</svg>
