<svg xmlns="http://www.w3.org/2000/svg" viewBox="0 0 1024 1024">
  <g style="fill:none;stroke:#000000;stroke-width:50;stroke-linecap:round;stroke-linejoin:round;" transform="scale(1, 1) translate(0, 0)">
    <path d="M 329.0,303.0 L 400.0,348.0 L 421.0,384.0"/>
    <path d="M 664.0,243.0 L 681.0,277.0 L 575.0,370.0"/>
    <path d="M 240.0,465.0 L 277.0,476.0 L 499.0,449.0 L 650.0,422.0 L 735.0,416.0 L 769.0,424.0"/>
    <path d="M 476.0,199.0 L 495.0,210.0 L 520.0,239.0 L 506.0,599.0 L 513.0,648.0"/>
    <path d="M 485.0,473.0 L 412.0,562.0 L 374.0,595.0 L 313.0,637.0 L 245.0,668.0"/>
    <path d="M 536.0,467.0 L 613.0,542.0 L 706.0,607.0 L 762.0,620.0 L 872.0,631.0"/>
    <path d="M 437.0,670.0 L 453.0,686.0 L 464.0,712.0 L 408.0,835.0 L 401.0,864.0 L 644.0,988.0 L 673.0,1010.0 L 719.0,1064.0"/>
    <path d="M 564.0,714.0 L 581.0,726.0 L 594.0,747.0 L 586.0,784.0 L 546.0,877.0 L 491.0,948.0 L 429.0,994.0 L 375.0,1017.0 L 302.0,1036.0 L 236.0,1040.0"/>
    <path d="M 127.0,794.0 L 182.0,806.0 L 508.0,765.0 L 808.0,742.0 L 850.0,747.0 L 902.0,764.0"/>
  </g>
</svg>
