<svg xmlns="http://www.w3.org/2000/svg" viewBox="0 0 1024 1024">
  <g style="fill:none;stroke:#000000;stroke-width:50;stroke-linecap:round;stroke-linejoin:round;" transform="scale(1, 1) translate(0, 0)">
    <path d="M 450.0,207.0 L 539.0,246.0 L 573.0,282.0"/>
    <path d="M 265.0,366.0 L 324.0,378.0 L 711.0,323.0 L 754.0,324.0 L 791.0,333.0"/>
    <path d="M 407.0,394.0 L 425.0,407.0 L 439.0,430.0 L 426.0,550.0 L 414.0,597.0 L 412.0,649.0"/>
    <path d="M 566.0,371.0 L 591.0,391.0 L 585.0,589.0 L 598.0,667.0"/>
    <path d="M 314.0,480.0 L 296.0,525.0 L 237.0,618.0"/>
    <path d="M 670.0,467.0 L 718.0,493.0 L 777.0,536.0 L 796.0,559.0 L 810.0,590.0"/>
    <path d="M 449.0,658.0 L 462.0,674.0 L 468.0,706.0 L 395.0,866.0 L 419.0,882.0 L 483.0,901.0 L 631.0,973.0 L 684.0,1006.0 L 729.0,1053.0"/>
    <path d="M 638.0,772.0 L 603.0,794.0 L 556.0,897.0 L 518.0,945.0 L 482.0,976.0 L 434.0,1002.0 L 379.0,1021.0 L 272.0,1034.0"/>
    <path d="M 128.0,764.0 L 189.0,784.0 L 390.0,758.0 L 835.0,726.0 L 915.0,757.0"/>
  </g>
</svg>
