<svg xmlns="http://www.w3.org/2000/svg" viewBox="0 0 1024 1024">
  <g style="fill:none;stroke:#000000;stroke-width:50;stroke-linecap:round;stroke-linejoin:round;" transform="scale(1, 1) translate(0, 0)">
    <path d="M 249.0,238.0 L 273.0,256.0 L 293.0,288.0 L 250.0,521.0 L 210.0,677.0 L 226.0,698.0 L 292.0,738.0 L 359.0,789.0 L 373.0,809.0 L 383.0,840.0"/>
    <path d="M 363.0,475.0 L 380.0,492.0 L 392.0,517.0 L 364.0,637.0 L 324.0,739.0 L 284.0,806.0 L 221.0,868.0 L 166.0,901.0 L 132.0,912.0"/>
    <path d="M 48.0,581.0 L 96.0,599.0 L 332.0,535.0 L 354.0,519.0"/>
    <path d="M 547.0,290.0 L 572.0,300.0 L 756.0,259.0 L 789.0,265.0 L 815.0,290.0 L 791.0,361.0 L 765.0,378.0"/>
    <path d="M 557.0,453.0 L 591.0,438.0 L 757.0,407.0 L 801.0,407.0 L 823.0,414.0"/>
    <path d="M 489.0,285.0 L 512.0,302.0 L 529.0,328.0 L 520.0,517.0 L 500.0,642.0 L 464.0,765.0 L 429.0,846.0 L 369.0,944.0 L 340.0,977.0"/>
    <path d="M 792.0,514.0 L 734.0,508.0 L 658.0,558.0 L 567.0,596.0 L 556.0,592.0 L 547.0,603.0"/>
    <path d="M 548.0,681.0 L 617.0,682.0 L 681.0,669.0 L 777.0,639.0 L 819.0,640.0"/>
    <path d="M 499.0,804.0 L 554.0,805.0 L 800.0,752.0 L 839.0,749.0 L 894.0,761.0"/>
    <path d="M 630.0,588.0 L 656.0,612.0 L 641.0,819.0 L 648.0,892.0 L 655.0,919.0 L 679.0,952.0 L 720.0,972.0 L 773.0,981.0 L 860.0,975.0 L 908.0,958.0 L 938.0,931.0 L 944.0,808.0"/>
  </g>
</svg>
