<svg xmlns="http://www.w3.org/2000/svg" viewBox="0 0 1024 1024">
  <g style="fill:none;stroke:#000000;stroke-width:50;stroke-linecap:round;stroke-linejoin:round;" transform="scale(1, 1) translate(0, 0)">
    <path d="M 266.0,237.0 L 292.0,255.0 L 313.0,290.0 L 257.0,562.0 L 208.0,728.0 L 238.0,760.0 L 352.0,841.0 L 376.0,869.0 L 387.0,905.0"/>
    <path d="M 363.0,523.0 L 380.0,535.0 L 399.0,566.0 L 370.0,688.0 L 344.0,757.0 L 300.0,830.0 L 256.0,874.0 L 190.0,920.0 L 127.0,947.0"/>
    <path d="M 49.0,624.0 L 101.0,645.0 L 313.0,582.0 L 341.0,575.0 L 359.0,578.0"/>
    <path d="M 458.0,390.0 L 483.0,411.0 L 493.0,429.0 L 544.0,670.0"/>
    <path d="M 508.0,391.0 L 528.0,401.0 L 748.0,362.0 L 796.0,358.0 L 831.0,366.0 L 857.0,402.0 L 838.0,462.0 L 819.0,557.0 L 795.0,623.0 L 800.0,645.0"/>
    <path d="M 587.0,521.0 L 700.0,497.0 L 748.0,500.0"/>
    <path d="M 564.0,646.0 L 580.0,636.0 L 721.0,617.0 L 744.0,616.0 L 755.0,629.0"/>
    <path d="M 620.0,403.0 L 655.0,421.0 L 663.0,433.0 L 662.0,867.0 L 661.0,884.0 L 645.0,902.0"/>
    <path d="M 534.0,776.0 L 556.0,783.0 L 593.0,783.0 L 750.0,754.0 L 802.0,757.0"/>
    <path d="M 422.0,940.0 L 472.0,950.0 L 679.0,924.0 L 856.0,911.0 L 901.0,919.0 L 939.0,934.0"/>
  </g>
</svg>
