<svg xmlns="http://www.w3.org/2000/svg" viewBox="0 0 1024 1024">
  <g style="fill:none;stroke:#000000;stroke-width:50;stroke-linecap:round;stroke-linejoin:round;" transform="scale(1, 1) translate(0, 0)">
    <path d="M 266.0,198.0 L 292.0,216.0 L 313.0,250.0 L 269.0,490.0 L 231.0,647.0 L 209.0,701.0 L 210.0,716.0 L 226.0,737.0 L 348.0,815.0 L 387.0,848.0 L 408.0,875.0 L 416.0,902.0"/>
    <path d="M 368.0,473.0 L 389.0,487.0 L 406.0,511.0 L 368.0,686.0 L 333.0,769.0 L 306.0,813.0 L 255.0,865.0 L 196.0,909.0 L 135.0,938.0"/>
    <path d="M 60.0,598.0 L 115.0,616.0 L 170.0,595.0 L 354.0,543.0 L 363.0,532.0"/>
    <path d="M 500.0,286.0 L 526.0,306.0 L 533.0,321.0 L 568.0,469.0"/>
    <path d="M 558.0,288.0 L 573.0,299.0 L 729.0,265.0 L 766.0,273.0 L 788.0,298.0 L 762.0,366.0 L 736.0,383.0"/>
    <path d="M 586.0,441.0 L 600.0,429.0 L 734.0,408.0 L 772.0,408.0 L 794.0,416.0"/>
    <path d="M 520.0,544.0 L 548.0,571.0 L 554.0,656.0 L 543.0,802.0 L 516.0,917.0 L 514.0,965.0"/>
    <path d="M 581.0,560.0 L 594.0,567.0 L 607.0,565.0 L 759.0,526.0 L 784.0,540.0 L 798.0,557.0 L 813.0,911.0 L 806.0,950.0 L 792.0,971.0 L 778.0,969.0 L 690.0,931.0"/>
    <path d="M 576.0,687.0 L 609.0,672.0 L 671.0,663.0 L 714.0,668.0"/>
    <path d="M 572.0,785.0 L 581.0,775.0 L 664.0,762.0 L 701.0,761.0 L 723.0,769.0"/>
  </g>
</svg>
