<svg xmlns="http://www.w3.org/2000/svg" viewBox="0 0 1024 1024">
  <g style="fill:none;stroke:#000000;stroke-width:50;stroke-linecap:round;stroke-linejoin:round;" transform="scale(1, 1) translate(0, 0)">
    <path d="M 238.0,225.0 L 261.0,243.0 L 281.0,275.0 L 238.0,515.0 L 184.0,709.0 L 202.0,732.0 L 321.0,803.0 L 346.0,832.0 L 356.0,863.0"/>
    <path d="M 323.0,481.0 L 342.0,494.0 L 358.0,521.0 L 341.0,622.0 L 304.0,731.0 L 267.0,793.0 L 242.0,822.0 L 174.0,876.0 L 107.0,911.0"/>
    <path d="M 57.0,570.0 L 78.0,582.0 L 109.0,589.0 L 297.0,534.0 L 316.0,519.0"/>
    <path d="M 505.0,275.0 L 576.0,312.0 L 609.0,349.0"/>
    <path d="M 416.0,350.0 L 425.0,354.0 L 454.0,393.0 L 456.0,432.0 L 448.0,733.0 L 439.0,824.0 L 425.0,891.0 L 424.0,951.0"/>
    <path d="M 670.0,321.0 L 737.0,315.0 L 817.0,290.0 L 847.0,305.0 L 861.0,323.0 L 857.0,379.0 L 866.0,709.0 L 863.0,922.0 L 843.0,959.0 L 816.0,952.0 L 729.0,911.0"/>
    <path d="M 511.0,567.0 L 550.0,573.0 L 751.0,537.0 L 799.0,542.0"/>
    <path d="M 626.0,449.0 L 658.0,490.0 L 638.0,858.0"/>
    <path d="M 632.0,586.0 L 624.0,592.0 L 613.0,645.0 L 578.0,701.0 L 531.0,760.0 L 488.0,794.0"/>
    <path d="M 681.0,648.0 L 684.0,663.0 L 715.0,681.0 L 761.0,721.0 L 781.0,748.0 L 789.0,771.0"/>
  </g>
</svg>
