<svg xmlns="http://www.w3.org/2000/svg" viewBox="0 0 1024 1024">
  <g style="fill:none;stroke:#000000;stroke-width:50;stroke-linecap:round;stroke-linejoin:round;" transform="scale(1, 1) translate(0, 0)">
    <path d="M 193.0,264.0 L 215.0,270.0 L 266.0,269.0 L 512.0,223.0 L 550.0,224.0"/>
    <path d="M 256.0,293.0 L 281.0,312.0 L 288.0,350.0 L 288.0,538.0 L 274.0,553.0"/>
    <path d="M 434.0,266.0 L 464.0,288.0 L 465.0,296.0 L 461.0,594.0 L 466.0,607.0"/>
    <path d="M 316.0,388.0 L 343.0,369.0 L 398.0,364.0"/>
    <path d="M 313.0,480.0 L 324.0,469.0 L 362.0,459.0 L 402.0,460.0"/>
    <path d="M 160.0,590.0 L 210.0,608.0 L 490.0,524.0 L 529.0,506.0"/>
    <path d="M 556.0,328.0 L 621.0,329.0 L 705.0,304.0 L 749.0,307.0 L 759.0,313.0 L 748.0,368.0 L 727.0,424.0 L 683.0,494.0 L 651.0,524.0 L 612.0,548.0 L 576.0,565.0 L 527.0,575.0"/>
    <path d="M 541.0,391.0 L 586.0,410.0 L 707.0,516.0 L 783.0,565.0 L 812.0,575.0 L 951.0,583.0"/>
    <path d="M 446.0,613.0 L 463.0,633.0 L 471.0,654.0 L 388.0,836.0 L 599.0,943.0 L 673.0,993.0 L 723.0,1050.0"/>
    <path d="M 571.0,696.0 L 598.0,726.0 L 600.0,741.0 L 589.0,780.0 L 550.0,859.0 L 502.0,920.0 L 445.0,965.0 L 380.0,993.0 L 323.0,1008.0 L 236.0,1012.0"/>
    <path d="M 135.0,771.0 L 190.0,781.0 L 507.0,736.0 L 846.0,708.0 L 914.0,719.0 L 942.0,735.0"/>
  </g>
</svg>
