<svg xmlns="http://www.w3.org/2000/svg" viewBox="0 0 1024 1024">
  <g style="fill:none;stroke:#000000;stroke-width:50;stroke-linecap:round;stroke-linejoin:round;" transform="scale(1, 1) translate(0, 0)">
    <path d="M 274.0,233.0 L 297.0,251.0 L 318.0,283.0 L 281.0,490.0 L 221.0,723.0 L 238.0,741.0 L 398.0,855.0 L 413.0,877.0 L 421.0,904.0"/>
    <path d="M 383.0,510.0 L 401.0,524.0 L 415.0,551.0 L 374.0,702.0 L 349.0,757.0 L 302.0,829.0 L 274.0,855.0 L 198.0,911.0 L 130.0,939.0"/>
    <path d="M 46.0,615.0 L 95.0,638.0 L 161.0,618.0 L 361.0,575.0 L 373.0,565.0"/>
    <path d="M 479.0,296.0 L 513.0,324.0 L 524.0,349.0 L 553.0,515.0 L 572.0,567.0"/>
    <path d="M 547.0,307.0 L 558.0,319.0 L 749.0,279.0 L 782.0,284.0 L 807.0,304.0 L 817.0,318.0 L 797.0,382.0 L 783.0,457.0 L 759.0,527.0 L 763.0,547.0"/>
    <path d="M 570.0,441.0 L 594.0,428.0 L 668.0,413.0 L 694.0,411.0 L 715.0,417.0"/>
    <path d="M 588.0,543.0 L 598.0,535.0 L 637.0,526.0 L 706.0,518.0 L 723.0,508.0"/>
    <path d="M 462.0,677.0 L 481.0,693.0 L 500.0,734.0 L 540.0,961.0"/>
    <path d="M 508.0,680.0 L 545.0,694.0 L 656.0,677.0 L 818.0,642.0 L 839.0,647.0 L 859.0,663.0 L 872.0,679.0 L 871.0,691.0 L 835.0,908.0 L 816.0,940.0 L 815.0,997.0"/>
    <path d="M 545.0,823.0 L 557.0,813.0 L 701.0,789.0 L 727.0,787.0 L 750.0,794.0"/>
    <path d="M 559.0,941.0 L 571.0,929.0 L 593.0,923.0 L 784.0,900.0"/>
  </g>
</svg>
