<svg xmlns="http://www.w3.org/2000/svg" viewBox="0 0 1024 1024">
  <g style="fill:none;stroke:#000000;stroke-width:50;stroke-linecap:round;stroke-linejoin:round;" transform="scale(1, 1) translate(0, 0)">
    <path d="M 257.0,251.0 L 317.0,280.0 L 334.0,292.0 L 352.0,317.0"/>
    <path d="M 203.0,388.0 L 268.0,427.0 L 279.0,444.0"/>
    <path d="M 256.0,683.0 L 246.0,640.0 L 292.0,572.0 L 350.0,467.0"/>
    <path d="M 484.0,364.0 L 502.0,346.0 L 717.0,297.0 L 756.0,298.0 L 777.0,318.0 L 723.0,390.0"/>
    <path d="M 426.0,321.0 L 452.0,347.0 L 454.0,366.0 L 448.0,434.0 L 432.0,508.0 L 403.0,591.0 L 359.0,661.0 L 339.0,681.0"/>
    <path d="M 566.0,177.0 L 586.0,190.0 L 604.0,213.0 L 595.0,404.0 L 579.0,433.0"/>
    <path d="M 504.0,461.0 L 580.0,454.0 L 637.0,434.0 L 667.0,436.0 L 682.0,445.0 L 664.0,501.0 L 626.0,567.0 L 601.0,591.0 L 550.0,621.0 L 485.0,637.0"/>
    <path d="M 510.0,505.0 L 559.0,529.0 L 645.0,602.0 L 722.0,647.0 L 761.0,660.0 L 878.0,660.0"/>
    <path d="M 449.0,667.0 L 462.0,682.0 L 468.0,708.0 L 373.0,870.0 L 405.0,889.0 L 494.0,916.0 L 638.0,982.0 L 687.0,1008.0 L 742.0,1061.0"/>
    <path d="M 602.0,729.0 L 623.0,749.0 L 626.0,761.0 L 610.0,817.0 L 564.0,896.0 L 516.0,947.0 L 474.0,974.0 L 409.0,1000.0 L 324.0,1015.0 L 295.0,1013.0"/>
    <path d="M 127.0,803.0 L 185.0,813.0 L 474.0,775.0 L 829.0,746.0 L 885.0,749.0 L 934.0,766.0"/>
  </g>
</svg>
