<svg xmlns="http://www.w3.org/2000/svg" viewBox="0 0 1024 1024">
  <g style="fill:none;stroke:#000000;stroke-width:50;stroke-linecap:round;stroke-linejoin:round;" transform="scale(1, 1) translate(0, 0)">
    <path d="M 239.0,234.0 L 262.0,251.0 L 282.0,282.0 L 240.0,533.0 L 218.0,633.0 L 192.0,716.0 L 211.0,739.0 L 340.0,815.0 L 357.0,832.0 L 371.0,866.0"/>
    <path d="M 330.0,500.0 L 357.0,523.0 L 362.0,535.0 L 342.0,642.0 L 297.0,765.0 L 261.0,820.0 L 209.0,874.0 L 151.0,914.0 L 96.0,940.0"/>
    <path d="M 76.0,581.0 L 124.0,600.0 L 315.0,546.0 L 323.0,537.0"/>
    <path d="M 472.0,375.0 L 544.0,377.0 L 685.0,342.0 L 732.0,340.0"/>
    <path d="M 458.0,498.0 L 515.0,499.0 L 704.0,454.0 L 738.0,460.0 L 762.0,485.0 L 729.0,621.0 L 704.0,642.0"/>
    <path d="M 408.0,609.0 L 451.0,614.0 L 538.0,596.0 L 810.0,557.0 L 848.0,556.0 L 897.0,567.0"/>
    <path d="M 460.0,707.0 L 497.0,710.0 L 716.0,670.0 L 740.0,669.0 L 768.0,677.0"/>
    <path d="M 560.0,206.0 L 600.0,248.0 L 589.0,862.0 L 592.0,879.0 L 608.0,901.0"/>
    <path d="M 616.0,813.0 L 628.0,805.0 L 725.0,786.0 L 772.0,783.0"/>
    <path d="M 433.0,781.0 L 457.0,812.0 L 417.0,902.0 L 382.0,950.0 L 313.0,1012.0"/>
    <path d="M 484.0,841.0 L 486.0,857.0 L 586.0,923.0 L 685.0,974.0 L 763.0,1003.0 L 813.0,1009.0 L 946.0,987.0"/>
  </g>
</svg>
