<svg xmlns="http://www.w3.org/2000/svg" viewBox="0 0 1024 1024">
  <g style="fill:none;stroke:#000000;stroke-width:50;stroke-linecap:round;stroke-linejoin:round;" transform="scale(1, 1) translate(0, 0)">
    <path d="M 251.0,240.0 L 276.0,259.0 L 296.0,294.0 L 244.0,541.0 L 185.0,739.0 L 205.0,761.0 L 320.0,823.0 L 356.0,849.0 L 375.0,872.0 L 386.0,898.0"/>
    <path d="M 347.0,496.0 L 381.0,534.0 L 352.0,665.0 L 315.0,762.0 L 269.0,832.0 L 210.0,888.0 L 160.0,921.0 L 99.0,947.0"/>
    <path d="M 52.0,594.0 L 102.0,616.0 L 319.0,559.0 L 339.0,545.0"/>
    <path d="M 779.0,264.0 L 763.0,257.0 L 710.0,254.0 L 665.0,285.0 L 596.0,320.0 L 535.0,345.0 L 520.0,340.0"/>
    <path d="M 459.0,332.0 L 479.0,350.0 L 492.0,375.0 L 496.0,496.0 L 485.0,642.0 L 520.0,637.0 L 635.0,578.0"/>
    <path d="M 560.0,471.0 L 620.0,472.0 L 763.0,428.0 L 821.0,421.0"/>
    <path d="M 619.0,334.0 L 651.0,348.0 L 662.0,361.0 L 670.0,418.0 L 692.0,483.0 L 741.0,574.0 L 788.0,630.0 L 823.0,661.0 L 871.0,686.0 L 896.0,688.0 L 915.0,623.0 L 921.0,563.0"/>
    <path d="M 508.0,717.0 L 536.0,751.0 L 540.0,785.0 L 536.0,887.0 L 523.0,971.0 L 524.0,1021.0"/>
    <path d="M 554.0,722.0 L 572.0,733.0 L 717.0,698.0 L 730.0,702.0 L 754.0,724.0 L 762.0,956.0 L 750.0,1002.0 L 753.0,1057.0"/>
    <path d="M 565.0,869.0 L 573.0,857.0 L 616.0,847.0 L 658.0,844.0 L 679.0,849.0"/>
    <path d="M 549.0,998.0 L 564.0,988.0 L 602.0,981.0 L 711.0,973.0"/>
  </g>
</svg>
