<svg xmlns="http://www.w3.org/2000/svg" viewBox="0 0 1024 1024">
  <g style="fill:none;stroke:#000000;stroke-width:50;stroke-linecap:round;stroke-linejoin:round;" transform="scale(1, 1) translate(0, 0)">
    <path d="M 235.0,264.0 L 255.0,285.0 L 264.0,330.0 L 264.0,430.0 L 253.0,507.0 L 256.0,542.0"/>
    <path d="M 281.0,275.0 L 305.0,281.0 L 414.0,254.0 L 439.0,263.0 L 451.0,279.0 L 446.0,370.0 L 450.0,477.0 L 442.0,536.0"/>
    <path d="M 316.0,336.0 L 353.0,362.0 L 357.0,377.0 L 348.0,487.0 L 330.0,551.0 L 304.0,595.0 L 275.0,622.0 L 225.0,647.0 L 201.0,651.0"/>
    <path d="M 388.0,557.0 L 442.0,589.0 L 456.0,611.0"/>
    <path d="M 531.0,244.0 L 558.0,280.0 L 562.0,364.0 L 550.0,468.0 L 552.0,522.0"/>
    <path d="M 578.0,254.0 L 588.0,261.0 L 605.0,259.0 L 716.0,229.0 L 734.0,232.0 L 760.0,260.0 L 756.0,324.0 L 761.0,455.0 L 754.0,519.0"/>
    <path d="M 612.0,313.0 L 640.0,327.0 L 653.0,342.0 L 651.0,442.0 L 636.0,520.0 L 619.0,562.0 L 580.0,609.0 L 543.0,633.0 L 512.0,642.0"/>
    <path d="M 676.0,549.0 L 743.0,593.0 L 771.0,631.0"/>
    <path d="M 429.0,653.0 L 446.0,670.0 L 454.0,695.0 L 383.0,854.0 L 415.0,875.0 L 550.0,934.0 L 622.0,975.0 L 670.0,1008.0 L 716.0,1059.0"/>
    <path d="M 550.0,701.0 L 566.0,710.0 L 580.0,728.0 L 577.0,772.0 L 550.0,851.0 L 494.0,934.0 L 452.0,972.0 L 401.0,999.0 L 330.0,1022.0 L 257.0,1030.0"/>
    <path d="M 108.0,769.0 L 171.0,787.0 L 504.0,743.0 L 835.0,716.0 L 864.0,720.0 L 924.0,744.0"/>
  </g>
</svg>
