<svg xmlns="http://www.w3.org/2000/svg" viewBox="0 0 1024 1024">
  <g style="fill:none;stroke:#000000;stroke-width:50;stroke-linecap:round;stroke-linejoin:round;" transform="scale(1, 1) translate(0, 0)">
    <path d="M 223.0,279.0 L 248.0,296.0 L 271.0,330.0 L 235.0,566.0 L 191.0,742.0 L 208.0,768.0 L 325.0,868.0 L 337.0,885.0 L 348.0,927.0"/>
    <path d="M 328.0,547.0 L 354.0,571.0 L 360.0,594.0 L 333.0,711.0 L 287.0,828.0 L 249.0,884.0 L 199.0,934.0 L 140.0,975.0 L 81.0,1000.0"/>
    <path d="M 52.0,645.0 L 98.0,664.0 L 185.0,637.0 L 313.0,608.0 L 321.0,597.0"/>
    <path d="M 476.0,307.0 L 509.0,339.0 L 518.0,362.0 L 535.0,603.0 L 521.0,615.0"/>
    <path d="M 542.0,320.0 L 557.0,331.0 L 738.0,289.0 L 754.0,289.0 L 785.0,318.0 L 748.0,559.0 L 724.0,583.0"/>
    <path d="M 604.0,447.0 L 624.0,460.0 L 633.0,477.0 L 636.0,585.0 L 625.0,597.0"/>
    <path d="M 665.0,467.0 L 669.0,459.0 L 734.0,440.0"/>
    <path d="M 413.0,626.0 L 440.0,658.0 L 448.0,681.0 L 451.0,802.0 L 443.0,948.0 L 452.0,992.0"/>
    <path d="M 467.0,646.0 L 494.0,654.0 L 643.0,616.0 L 813.0,588.0 L 848.0,588.0 L 875.0,610.0 L 882.0,620.0 L 873.0,677.0 L 877.0,846.0 L 868.0,951.0 L 855.0,972.0 L 819.0,966.0 L 752.0,942.0"/>
    <path d="M 521.0,743.0 L 550.0,774.0 L 576.0,891.0"/>
    <path d="M 573.0,748.0 L 581.0,754.0 L 703.0,725.0 L 731.0,750.0 L 714.0,805.0 L 693.0,814.0"/>
    <path d="M 592.0,872.0 L 608.0,860.0 L 682.0,846.0 L 742.0,851.0"/>
  </g>
</svg>
