<svg xmlns="http://www.w3.org/2000/svg" viewBox="0 0 1024 1024">
  <g style="fill:none;stroke:#000000;stroke-width:50;stroke-linecap:round;stroke-linejoin:round;" transform="scale(1, 1) translate(0, 0)">
    <path d="M 240.0,263.0 L 258.0,274.0 L 282.0,310.0 L 240.0,536.0 L 190.0,717.0 L 217.0,747.0 L 326.0,819.0 L 350.0,853.0 L 354.0,873.0"/>
    <path d="M 318.0,500.0 L 351.0,532.0 L 328.0,677.0 L 298.0,759.0 L 272.0,807.0 L 236.0,850.0 L 177.0,900.0 L 125.0,927.0"/>
    <path d="M 60.0,594.0 L 106.0,609.0 L 164.0,588.0 L 293.0,555.0 L 312.0,541.0"/>
    <path d="M 477.0,332.0 L 520.0,339.0 L 556.0,337.0 L 615.0,330.0 L 765.0,292.0 L 826.0,297.0"/>
    <path d="M 576.0,180.0 L 600.0,206.0 L 616.0,235.0 L 578.0,347.0 L 519.0,473.0 L 450.0,596.0 L 389.0,687.0 L 370.0,704.0"/>
    <path d="M 570.0,433.0 L 629.0,429.0 L 746.0,405.0 L 782.0,408.0"/>
    <path d="M 648.0,447.0 L 667.0,466.0 L 665.0,495.0 L 649.0,509.0"/>
    <path d="M 500.0,559.0 L 541.0,558.0 L 710.0,526.0 L 810.0,514.0 L 881.0,525.0"/>
    <path d="M 506.0,654.0 L 533.0,682.0 L 537.0,727.0 L 519.0,891.0 L 495.0,981.0 L 490.0,1038.0"/>
    <path d="M 567.0,685.0 L 583.0,675.0 L 733.0,641.0 L 755.0,650.0 L 773.0,671.0 L 769.0,724.0 L 779.0,968.0 L 769.0,1013.0 L 749.0,1038.0 L 648.0,995.0"/>
    <path d="M 559.0,781.0 L 571.0,768.0 L 627.0,755.0 L 686.0,755.0"/>
    <path d="M 549.0,875.0 L 559.0,866.0 L 637.0,851.0 L 691.0,855.0"/>
  </g>
</svg>
