<svg xmlns="http://www.w3.org/2000/svg" viewBox="0 0 1024 1024">
  <g style="fill:none;stroke:#000000;stroke-width:50;stroke-linecap:round;stroke-linejoin:round;" transform="scale(1, 1) translate(0, 0)">
    <path d="M 257.0,257.0 L 271.0,264.0 L 300.0,308.0 L 249.0,562.0 L 201.0,723.0 L 211.0,742.0 L 352.0,835.0 L 373.0,868.0 L 377.0,888.0"/>
    <path d="M 353.0,520.0 L 386.0,556.0 L 347.0,722.0 L 323.0,773.0 L 295.0,822.0 L 259.0,864.0 L 177.0,925.0 L 120.0,952.0"/>
    <path d="M 44.0,618.0 L 94.0,640.0 L 159.0,618.0 L 336.0,575.0 L 345.0,565.0"/>
    <path d="M 463.0,312.0 L 495.0,339.0 L 507.0,361.0 L 534.0,526.0 L 553.0,590.0"/>
    <path d="M 523.0,319.0 L 540.0,331.0 L 729.0,297.0 L 771.0,306.0 L 786.0,322.0 L 795.0,335.0 L 793.0,347.0 L 780.0,377.0 L 753.0,487.0 L 728.0,550.0 L 731.0,568.0"/>
    <path d="M 550.0,461.0 L 561.0,449.0 L 628.0,433.0 L 669.0,429.0 L 692.0,435.0"/>
    <path d="M 569.0,563.0 L 580.0,554.0 L 672.0,541.0 L 702.0,528.0"/>
    <path d="M 427.0,692.0 L 449.0,712.0 L 458.0,734.0 L 485.0,907.0 L 495.0,918.0"/>
    <path d="M 475.0,695.0 L 494.0,706.0 L 742.0,666.0 L 801.0,661.0 L 820.0,666.0 L 845.0,692.0 L 848.0,705.0 L 804.0,865.0 L 775.0,889.0"/>
    <path d="M 559.0,717.0 L 574.0,746.0 L 583.0,858.0 L 595.0,910.0"/>
    <path d="M 678.0,700.0 L 698.0,713.0 L 705.0,727.0 L 681.0,890.0 L 664.0,899.0"/>
    <path d="M 370.0,945.0 L 417.0,954.0 L 642.0,928.0 L 878.0,911.0 L 926.0,919.0 L 958.0,932.0"/>
  </g>
</svg>
