<svg xmlns="http://www.w3.org/2000/svg" viewBox="0 0 1024 1024">
  <g style="fill:none;stroke:#000000;stroke-width:50;stroke-linecap:round;stroke-linejoin:round;" transform="scale(1, 1) translate(0, 0)">
    <path d="M 260.0,241.0 L 272.0,247.0 L 300.0,289.0 L 263.0,488.0 L 206.0,702.0 L 239.0,729.0 L 362.0,806.0 L 382.0,835.0 L 386.0,854.0"/>
    <path d="M 354.0,487.0 L 386.0,522.0 L 358.0,646.0 L 339.0,702.0 L 314.0,750.0 L 293.0,783.0 L 232.0,844.0 L 180.0,881.0 L 125.0,904.0"/>
    <path d="M 55.0,563.0 L 103.0,586.0 L 334.0,533.0 L 350.0,538.0"/>
    <path d="M 616.0,186.0 L 629.0,192.0 L 647.0,216.0 L 613.0,285.0 L 571.0,347.0 L 568.0,362.0 L 552.0,373.0"/>
    <path d="M 474.0,368.0 L 501.0,395.0 L 514.0,430.0 L 524.0,618.0 L 538.0,700.0"/>
    <path d="M 527.0,383.0 L 546.0,392.0 L 714.0,351.0 L 746.0,355.0 L 779.0,382.0 L 760.0,605.0 L 743.0,665.0 L 748.0,720.0"/>
    <path d="M 545.0,498.0 L 555.0,488.0 L 616.0,472.0 L 676.0,472.0"/>
    <path d="M 551.0,586.0 L 561.0,577.0 L 639.0,561.0 L 662.0,559.0 L 683.0,565.0"/>
    <path d="M 562.0,680.0 L 570.0,668.0 L 647.0,657.0 L 682.0,654.0 L 699.0,665.0"/>
    <path d="M 445.0,824.0 L 437.0,879.0 L 407.0,967.0"/>
    <path d="M 511.0,821.0 L 545.0,904.0 L 584.0,946.0 L 658.0,981.0 L 732.0,995.0 L 785.0,996.0 L 829.0,980.0 L 817.0,937.0 L 765.0,849.0"/>
    <path d="M 592.0,750.0 L 653.0,795.0 L 676.0,835.0"/>
    <path d="M 816.0,755.0 L 905.0,813.0 L 934.0,853.0"/>
  </g>
</svg>
