<svg xmlns="http://www.w3.org/2000/svg" viewBox="0 0 1024 1024">
  <g style="fill:none;stroke:#000000;stroke-width:50;stroke-linecap:round;stroke-linejoin:round;" transform="scale(1, 1) translate(0, 0)">
    <path d="M 239.0,266.0 L 264.0,285.0 L 286.0,318.0 L 239.0,576.0 L 189.0,753.0 L 190.0,768.0 L 222.0,794.0 L 345.0,866.0 L 365.0,886.0 L 381.0,921.0"/>
    <path d="M 331.0,534.0 L 343.0,540.0 L 367.0,570.0 L 344.0,695.0 L 309.0,797.0 L 279.0,850.0 L 249.0,884.0 L 185.0,938.0 L 115.0,975.0"/>
    <path d="M 49.0,634.0 L 99.0,654.0 L 306.0,592.0 L 324.0,578.0"/>
    <path d="M 483.0,335.0 L 501.0,357.0 L 506.0,375.0 L 497.0,477.0 L 531.0,477.0 L 613.0,452.0 L 716.0,431.0 L 741.0,429.0 L 754.0,436.0"/>
    <path d="M 765.0,288.0 L 796.0,326.0 L 781.0,419.0 L 779.0,476.0"/>
    <path d="M 605.0,214.0 L 646.0,252.0 L 635.0,524.0 L 619.0,547.0"/>
    <path d="M 425.0,592.0 L 478.0,597.0 L 670.0,561.0 L 861.0,536.0 L 932.0,551.0"/>
    <path d="M 452.0,692.0 L 473.0,708.0 L 484.0,728.0 L 516.0,858.0"/>
    <path d="M 493.0,691.0 L 523.0,701.0 L 758.0,657.0 L 771.0,664.0 L 791.0,689.0 L 770.0,745.0 L 745.0,757.0"/>
    <path d="M 529.0,829.0 L 547.0,818.0 L 734.0,789.0 L 778.0,788.0 L 797.0,795.0"/>
    <path d="M 603.0,594.0 L 635.0,619.0 L 637.0,648.0 L 633.0,895.0 L 617.0,918.0"/>
    <path d="M 437.0,959.0 L 487.0,980.0 L 710.0,922.0 L 763.0,910.0 L 777.0,913.0"/>
    <path d="M 762.0,854.0 L 847.0,953.0 L 861.0,979.0 L 867.0,1008.0"/>
  </g>
</svg>
