<svg xmlns="http://www.w3.org/2000/svg" viewBox="0 0 1024 1024">
  <g style="fill:none;stroke:#000000;stroke-width:50;stroke-linecap:round;stroke-linejoin:round;" transform="scale(1, 1) translate(0, 0)">
    <path d="M 242.0,245.0 L 265.0,264.0 L 285.0,297.0 L 246.0,505.0 L 193.0,703.0 L 210.0,720.0 L 338.0,806.0 L 358.0,830.0 L 368.0,863.0"/>
    <path d="M 337.0,477.0 L 371.0,512.0 L 343.0,655.0 L 307.0,746.0 L 272.0,802.0 L 221.0,852.0 L 163.0,894.0 L 117.0,916.0"/>
    <path d="M 36.0,590.0 L 86.0,612.0 L 178.0,583.0 L 315.0,552.0 L 331.0,539.0"/>
    <path d="M 573.0,187.0 L 651.0,229.0 L 674.0,260.0"/>
    <path d="M 443.0,323.0 L 453.0,351.0 L 451.0,369.0 L 422.0,442.0 L 418.0,471.0"/>
    <path d="M 483.0,355.0 L 503.0,363.0 L 706.0,318.0 L 767.0,312.0 L 804.0,326.0 L 819.0,345.0 L 765.0,416.0"/>
    <path d="M 473.0,475.0 L 506.0,481.0 L 546.0,478.0 L 691.0,443.0 L 726.0,445.0"/>
    <path d="M 588.0,526.0 L 566.0,524.0 L 544.0,555.0 L 497.0,602.0 L 433.0,645.0 L 416.0,646.0 L 412.0,654.0"/>
    <path d="M 538.0,594.0 L 556.0,593.0 L 595.0,617.0 L 616.0,632.0 L 649.0,670.0 L 679.0,738.0 L 683.0,827.0 L 668.0,928.0 L 655.0,962.0 L 629.0,994.0 L 598.0,985.0 L 514.0,939.0"/>
    <path d="M 555.0,615.0 L 557.0,650.0 L 531.0,680.0 L 461.0,742.0 L 415.0,768.0"/>
    <path d="M 624.0,675.0 L 621.0,721.0 L 557.0,805.0 L 480.0,878.0 L 410.0,922.0"/>
    <path d="M 750.0,500.0 L 763.0,513.0 L 773.0,538.0 L 739.0,575.0 L 665.0,635.0 L 666.0,640.0"/>
    <path d="M 682.0,673.0 L 681.0,680.0 L 717.0,721.0 L 833.0,814.0 L 891.0,827.0 L 990.0,835.0"/>
  </g>
</svg>
