<svg xmlns="http://www.w3.org/2000/svg" viewBox="0 0 1024 1024">
  <g style="fill:none;stroke:#000000;stroke-width:50;stroke-linecap:round;stroke-linejoin:round;" transform="scale(1, 1) translate(0, 0)">
    <path d="M 258.0,249.0 L 281.0,267.0 L 301.0,300.0 L 256.0,540.0 L 200.0,742.0 L 231.0,773.0 L 263.0,789.0 L 371.0,864.0 L 385.0,880.0 L 398.0,914.0"/>
    <path d="M 349.0,536.0 L 382.0,572.0 L 360.0,681.0 L 328.0,776.0 L 281.0,854.0 L 230.0,906.0 L 172.0,947.0 L 116.0,972.0"/>
    <path d="M 40.0,627.0 L 88.0,648.0 L 178.0,619.0 L 334.0,581.0 L 340.0,572.0"/>
    <path d="M 526.0,320.0 L 538.0,345.0 L 474.0,409.0 L 466.0,407.0"/>
    <path d="M 412.0,408.0 L 442.0,435.0 L 492.0,642.0"/>
    <path d="M 493.0,509.0 L 497.0,500.0 L 516.0,493.0 L 566.0,492.0"/>
    <path d="M 705.0,345.0 L 830.0,345.0 L 855.0,379.0 L 798.0,565.0 L 782.0,594.0 L 767.0,592.0"/>
    <path d="M 687.0,470.0 L 782.0,461.0 L 798.0,453.0"/>
    <path d="M 511.0,622.0 L 527.0,612.0 L 759.0,573.0"/>
    <path d="M 590.0,203.0 L 628.0,233.0 L 638.0,249.0 L 623.0,660.0 L 605.0,690.0"/>
    <path d="M 497.0,720.0 L 595.0,713.0 L 677.0,694.0 L 708.0,702.0 L 720.0,721.0 L 707.0,776.0 L 680.0,842.0 L 619.0,918.0 L 549.0,955.0 L 466.0,978.0 L 429.0,982.0"/>
    <path d="M 487.0,769.0 L 533.0,792.0 L 668.0,928.0 L 780.0,1009.0 L 850.0,1022.0 L 944.0,1025.0"/>
  </g>
</svg>
