<svg xmlns="http://www.w3.org/2000/svg" viewBox="0 0 1024 1024">
  <g style="fill:none;stroke:#000000;stroke-width:50;stroke-linecap:round;stroke-linejoin:round;" transform="scale(1, 1) translate(0, 0)">
    <path d="M 218.0,234.0 L 241.0,252.0 L 262.0,284.0 L 221.0,534.0 L 168.0,741.0 L 187.0,765.0 L 310.0,846.0 L 329.0,871.0 L 338.0,895.0"/>
    <path d="M 294.0,537.0 L 313.0,550.0 L 328.0,571.0 L 314.0,672.0 L 283.0,772.0 L 251.0,831.0 L 208.0,878.0 L 161.0,914.0 L 108.0,944.0"/>
    <path d="M 41.0,616.0 L 86.0,634.0 L 268.0,583.0 L 286.0,569.0"/>
    <path d="M 586.0,233.0 L 671.0,277.0 L 699.0,313.0"/>
    <path d="M 528.0,430.0 L 546.0,438.0 L 584.0,437.0 L 672.0,422.0 L 810.0,387.0 L 844.0,387.0 L 855.0,395.0"/>
    <path d="M 464.0,416.0 L 499.0,444.0 L 505.0,505.0 L 499.0,674.0 L 478.0,778.0 L 454.0,848.0 L 412.0,920.0 L 355.0,986.0 L 301.0,1026.0"/>
    <path d="M 385.0,519.0 L 417.0,550.0 L 437.0,582.0"/>
    <path d="M 351.0,756.0 L 387.0,754.0 L 463.0,694.0"/>
    <path d="M 631.0,498.0 L 652.0,524.0 L 640.0,562.0 L 597.0,638.0 L 559.0,675.0"/>
    <path d="M 620.0,639.0 L 679.0,631.0 L 794.0,592.0 L 821.0,592.0"/>
    <path d="M 516.0,801.0 L 551.0,804.0 L 824.0,736.0 L 872.0,735.0 L 903.0,741.0"/>
    <path d="M 651.0,653.0 L 685.0,683.0 L 673.0,795.0 L 646.0,871.0 L 625.0,908.0 L 593.0,945.0 L 542.0,980.0 L 485.0,1002.0"/>
    <path d="M 701.0,803.0 L 702.0,817.0 L 740.0,864.0 L 847.0,973.0 L 915.0,993.0 L 976.0,1000.0"/>
  </g>
</svg>
