<svg xmlns="http://www.w3.org/2000/svg" viewBox="0 0 1024 1024">
  <g style="fill:none;stroke:#000000;stroke-width:50;stroke-linecap:round;stroke-linejoin:round;" transform="scale(1, 1) translate(0, 0)">
    <path d="M 262.0,245.0 L 288.0,264.0 L 308.0,298.0 L 273.0,475.0 L 237.0,616.0 L 209.0,694.0 L 210.0,708.0 L 229.0,726.0 L 354.0,800.0 L 379.0,824.0 L 393.0,859.0"/>
    <path d="M 355.0,507.0 L 372.0,522.0 L 388.0,549.0 L 357.0,677.0 L 324.0,754.0 L 285.0,810.0 L 228.0,862.0 L 187.0,888.0 L 133.0,911.0"/>
    <path d="M 58.0,599.0 L 107.0,621.0 L 196.0,594.0 L 335.0,563.0 L 346.0,551.0"/>
    <path d="M 428.0,275.0 L 451.0,290.0 L 464.0,313.0 L 519.0,498.0"/>
    <path d="M 476.0,274.0 L 498.0,285.0 L 611.0,261.0 L 760.0,241.0 L 818.0,248.0 L 845.0,289.0 L 765.0,465.0"/>
    <path d="M 552.0,373.0 L 687.0,348.0 L 731.0,353.0"/>
    <path d="M 607.0,283.0 L 634.0,309.0 L 636.0,420.0 L 621.0,438.0"/>
    <path d="M 538.0,480.0 L 553.0,471.0 L 707.0,445.0 L 724.0,445.0 L 735.0,456.0"/>
    <path d="M 580.0,489.0 L 593.0,504.0 L 595.0,522.0 L 534.0,591.0 L 526.0,618.0 L 552.0,627.0 L 640.0,621.0"/>
    <path d="M 732.0,514.0 L 743.0,554.0 L 659.0,634.0 L 561.0,708.0 L 546.0,738.0 L 567.0,746.0 L 750.0,703.0 L 762.0,703.0 L 766.0,709.0"/>
    <path d="M 755.0,636.0 L 815.0,708.0 L 826.0,753.0"/>
    <path d="M 633.0,750.0 L 660.0,770.0 L 663.0,783.0 L 667.0,931.0 L 660.0,982.0 L 645.0,1005.0 L 635.0,1003.0 L 555.0,958.0"/>
    <path d="M 503.0,833.0 L 483.0,894.0 L 438.0,978.0"/>
    <path d="M 763.0,828.0 L 873.0,902.0 L 895.0,932.0 L 909.0,966.0"/>
  </g>
</svg>
