<svg xmlns="http://www.w3.org/2000/svg" viewBox="0 0 1024 1024">
  <g style="fill:none;stroke:#000000;stroke-width:50;stroke-linecap:round;stroke-linejoin:round;" transform="scale(1, 1) translate(0, 0)">
    <path d="M 214.0,281.0 L 237.0,299.0 L 257.0,332.0 L 213.0,562.0 L 169.0,727.0 L 185.0,746.0 L 252.0,790.0 L 321.0,847.0 L 341.0,890.0"/>
    <path d="M 296.0,533.0 L 316.0,547.0 L 331.0,568.0 L 308.0,697.0 L 286.0,762.0 L 253.0,820.0 L 210.0,871.0 L 174.0,900.0 L 105.0,936.0"/>
    <path d="M 52.0,613.0 L 98.0,629.0 L 272.0,579.0 L 290.0,567.0"/>
    <path d="M 737.0,261.0 L 675.0,248.0 L 581.0,298.0 L 497.0,322.0"/>
    <path d="M 451.0,378.0 L 505.0,416.0 L 525.0,456.0"/>
    <path d="M 575.0,351.0 L 608.0,385.0 L 624.0,412.0"/>
    <path d="M 766.0,317.0 L 779.0,346.0 L 701.0,414.0 L 690.0,416.0 L 688.0,423.0"/>
    <path d="M 428.0,479.0 L 440.0,522.0 L 418.0,586.0 L 413.0,625.0"/>
    <path d="M 469.0,513.0 L 487.0,521.0 L 515.0,519.0 L 561.0,504.0 L 573.0,506.0 L 613.0,494.0 L 745.0,472.0 L 784.0,469.0 L 812.0,475.0 L 828.0,486.0 L 838.0,503.0 L 774.0,568.0"/>
    <path d="M 448.0,655.0 L 481.0,661.0 L 516.0,659.0 L 710.0,622.0 L 771.0,626.0"/>
    <path d="M 548.0,563.0 L 572.0,593.0 L 555.0,666.0 L 519.0,753.0 L 489.0,803.0 L 446.0,855.0 L 391.0,907.0 L 358.0,928.0"/>
    <path d="M 544.0,767.0 L 620.0,751.0 L 672.0,733.0 L 703.0,735.0 L 722.0,746.0 L 676.0,859.0 L 618.0,933.0 L 580.0,960.0 L 526.0,985.0 L 439.0,1004.0"/>
    <path d="M 520.0,811.0 L 535.0,812.0 L 566.0,828.0 L 678.0,930.0 L 736.0,975.0 L 793.0,1005.0 L 904.0,1020.0 L 964.0,1019.0"/>
  </g>
</svg>
