<svg xmlns="http://www.w3.org/2000/svg" viewBox="0 0 1024 1024">
  <g style="fill:none;stroke:#000000;stroke-width:50;stroke-linecap:round;stroke-linejoin:round;" transform="scale(1, 1) translate(0, 0)">
    <path d="M 230.0,243.0 L 256.0,261.0 L 279.0,294.0 L 247.0,527.0 L 199.0,739.0 L 227.0,769.0 L 341.0,864.0 L 360.0,889.0 L 372.0,932.0"/>
    <path d="M 340.0,524.0 L 374.0,560.0 L 352.0,668.0 L 307.0,799.0 L 266.0,863.0 L 238.0,892.0 L 185.0,936.0 L 96.0,984.0"/>
    <path d="M 35.0,639.0 L 84.0,657.0 L 318.0,584.0 L 334.0,570.0"/>
    <path d="M 496.0,300.0 L 526.0,310.0 L 664.0,290.0 L 819.0,256.0 L 866.0,256.0"/>
    <path d="M 588.0,420.0 L 619.0,450.0 L 648.0,566.0"/>
    <path d="M 639.0,424.0 L 655.0,430.0 L 753.0,400.0 L 779.0,400.0 L 802.0,423.0 L 785.0,476.0 L 762.0,487.0"/>
    <path d="M 664.0,543.0 L 673.0,535.0 L 751.0,518.0 L 796.0,516.0 L 815.0,521.0"/>
    <path d="M 527.0,678.0 L 552.0,706.0 L 577.0,838.0"/>
    <path d="M 575.0,682.0 L 582.0,687.0 L 650.0,667.0 L 666.0,670.0 L 677.0,681.0 L 679.0,697.0 L 666.0,745.0 L 661.0,758.0 L 647.0,766.0"/>
    <path d="M 590.0,810.0 L 601.0,798.0 L 627.0,791.0 L 685.0,793.0"/>
    <path d="M 727.0,637.0 L 752.0,669.0 L 769.0,788.0"/>
    <path d="M 773.0,658.0 L 780.0,649.0 L 839.0,628.0 L 865.0,621.0 L 885.0,624.0 L 899.0,641.0 L 889.0,685.0 L 878.0,706.0 L 863.0,711.0"/>
    <path d="M 786.0,767.0 L 802.0,756.0 L 866.0,740.0 L 904.0,736.0 L 925.0,743.0"/>
    <path d="M 436.0,281.0 L 464.0,309.0 L 476.0,346.0 L 481.0,679.0 L 474.0,959.0 L 498.0,960.0 L 694.0,925.0 L 852.0,911.0 L 907.0,910.0 L 946.0,924.0"/>
  </g>
</svg>
