<svg xmlns="http://www.w3.org/2000/svg" viewBox="0 0 1024 1024">
  <g style="fill:none;stroke:#000000;stroke-width:50;stroke-linecap:round;stroke-linejoin:round;" transform="scale(1, 1) translate(0, 0)">
    <path d="M 243.0,246.0 L 268.0,265.0 L 289.0,298.0 L 245.0,541.0 L 196.0,723.0 L 216.0,746.0 L 363.0,846.0 L 388.0,883.0 L 391.0,905.0"/>
    <path d="M 342.0,525.0 L 360.0,544.0 L 371.0,572.0 L 320.0,741.0 L 282.0,817.0 L 238.0,871.0 L 193.0,911.0 L 136.0,943.0 L 105.0,952.0"/>
    <path d="M 42.0,617.0 L 88.0,639.0 L 151.0,620.0 L 321.0,586.0 L 333.0,576.0"/>
    <path d="M 472.0,251.0 L 503.0,283.0 L 544.0,462.0"/>
    <path d="M 529.0,275.0 L 546.0,261.0 L 699.0,225.0 L 748.0,225.0 L 762.0,233.0 L 778.0,254.0 L 733.0,411.0 L 735.0,433.0"/>
    <path d="M 545.0,357.0 L 554.0,345.0 L 593.0,335.0 L 651.0,324.0 L 677.0,328.0"/>
    <path d="M 561.0,435.0 L 592.0,422.0 L 698.0,401.0"/>
    <path d="M 425.0,524.0 L 451.0,545.0 L 459.0,564.0 L 492.0,692.0"/>
    <path d="M 476.0,528.0 L 498.0,536.0 L 592.0,514.0 L 600.0,507.0 L 636.0,505.0 L 778.0,476.0 L 819.0,475.0 L 846.0,481.0 L 862.0,499.0 L 865.0,513.0 L 836.0,593.0 L 814.0,631.0 L 792.0,618.0"/>
    <path d="M 571.0,533.0 L 583.0,604.0 L 597.0,629.0"/>
    <path d="M 684.0,509.0 L 705.0,534.0 L 682.0,604.0 L 669.0,609.0"/>
    <path d="M 508.0,668.0 L 522.0,659.0 L 563.0,651.0 L 744.0,622.0 L 763.0,621.0 L 775.0,633.0"/>
    <path d="M 512.0,749.0 L 577.0,748.0 L 694.0,714.0 L 725.0,716.0 L 743.0,727.0 L 727.0,778.0 L 692.0,849.0 L 668.0,884.0 L 620.0,934.0 L 572.0,965.0 L 490.0,1000.0 L 399.0,1016.0"/>
    <path d="M 511.0,803.0 L 564.0,826.0 L 694.0,945.0 L 802.0,1018.0 L 882.0,1030.0 L 991.0,1035.0"/>
  </g>
</svg>
