<svg xmlns="http://www.w3.org/2000/svg" viewBox="0 0 1024 1024">
  <g style="fill:none;stroke:#000000;stroke-width:50;stroke-linecap:round;stroke-linejoin:round;" transform="scale(1, 1) translate(0, 0)">
    <path d="M 250.0,246.0 L 276.0,264.0 L 297.0,298.0 L 245.0,567.0 L 200.0,723.0 L 221.0,746.0 L 345.0,826.0 L 366.0,858.0 L 371.0,878.0"/>
    <path d="M 337.0,513.0 L 355.0,526.0 L 370.0,549.0 L 343.0,684.0 L 309.0,774.0 L 270.0,833.0 L 228.0,874.0 L 190.0,905.0 L 121.0,940.0"/>
    <path d="M 52.0,603.0 L 103.0,619.0 L 304.0,561.0 L 329.0,545.0"/>
    <path d="M 478.0,278.0 L 530.0,284.0 L 640.0,267.0 L 651.0,260.0 L 754.0,238.0 L 792.0,242.0"/>
    <path d="M 597.0,297.0 L 621.0,320.0 L 622.0,337.0 L 621.0,458.0 L 617.0,470.0 L 605.0,477.0"/>
    <path d="M 651.0,385.0 L 768.0,360.0 L 792.0,364.0"/>
    <path d="M 466.0,376.0 L 497.0,407.0 L 506.0,488.0 L 496.0,495.0"/>
    <path d="M 436.0,525.0 L 481.0,531.0 L 596.0,506.0 L 773.0,480.0 L 846.0,491.0"/>
    <path d="M 530.0,646.0 L 549.0,634.0 L 709.0,602.0 L 747.0,602.0"/>
    <path d="M 498.0,552.0 L 516.0,565.0 L 522.0,580.0 L 484.0,743.0 L 511.0,748.0 L 699.0,710.0 L 826.0,698.0 L 860.0,709.0 L 883.0,732.0 L 848.0,908.0 L 832.0,962.0 L 817.0,990.0 L 801.0,1008.0 L 780.0,1019.0 L 724.0,984.0 L 717.0,974.0 L 706.0,974.0 L 697.0,966.0"/>
    <path d="M 441.0,835.0 L 435.0,905.0 L 418.0,972.0"/>
    <path d="M 528.0,832.0 L 550.0,869.0 L 560.0,903.0"/>
    <path d="M 618.0,818.0 L 653.0,861.0 L 659.0,879.0"/>
    <path d="M 709.0,795.0 L 757.0,840.0 L 772.0,876.0"/>
  </g>
</svg>
