<svg xmlns="http://www.w3.org/2000/svg" viewBox="0 0 1024 1024">
  <g style="fill:none;stroke:#000000;stroke-width:50;stroke-linecap:round;stroke-linejoin:round;" transform="scale(1, 1) translate(0, 0)">
    <path d="M 232.0,337.0 L 251.0,341.0 L 311.0,335.0 L 415.0,304.0 L 456.0,303.0"/>
    <path d="M 138.0,458.0 L 197.0,462.0 L 418.0,405.0 L 464.0,406.0"/>
    <path d="M 328.0,201.0 L 346.0,212.0 L 369.0,241.0 L 348.0,551.0 L 353.0,600.0"/>
    <path d="M 329.0,449.0 L 276.0,516.0 L 235.0,556.0 L 188.0,593.0 L 149.0,612.0"/>
    <path d="M 406.0,479.0 L 464.0,523.0"/>
    <path d="M 562.0,194.0 L 588.0,220.0 L 584.0,247.0 L 568.0,288.0 L 525.0,363.0 L 481.0,420.0"/>
    <path d="M 574.0,329.0 L 654.0,315.0 L 736.0,288.0 L 787.0,285.0"/>
    <path d="M 660.0,337.0 L 674.0,348.0 L 683.0,374.0 L 646.0,457.0 L 625.0,488.0 L 554.0,546.0 L 476.0,571.0"/>
    <path d="M 527.0,389.0 L 546.0,392.0 L 574.0,413.0 L 677.0,516.0 L 746.0,567.0 L 811.0,585.0 L 908.0,595.0"/>
    <path d="M 336.0,650.0 L 344.0,658.0 L 422.0,657.0 L 652.0,618.0 L 689.0,619.0"/>
    <path d="M 266.0,621.0 L 294.0,652.0 L 297.0,673.0 L 283.0,755.0 L 252.0,852.0 L 216.0,920.0 L 192.0,951.0 L 150.0,989.0 L 88.0,1020.0"/>
    <path d="M 465.0,679.0 L 478.0,685.0 L 491.0,706.0 L 404.0,894.0 L 427.0,910.0 L 526.0,947.0 L 639.0,1004.0 L 705.0,1066.0"/>
    <path d="M 590.0,750.0 L 616.0,776.0 L 613.0,810.0 L 591.0,870.0 L 543.0,941.0 L 505.0,977.0 L 442.0,1009.0 L 374.0,1026.0 L 312.0,1029.0"/>
    <path d="M 314.0,801.0 L 365.0,809.0 L 498.0,790.0 L 764.0,767.0 L 796.0,771.0 L 841.0,787.0"/>
  </g>
</svg>
