<svg xmlns="http://www.w3.org/2000/svg" viewBox="0 0 1024 1024">
  <g style="fill:none;stroke:#000000;stroke-width:50;stroke-linecap:round;stroke-linejoin:round;" transform="scale(1, 1) translate(0, 0)">
    <path d="M 194.0,263.0 L 216.0,279.0 L 234.0,310.0 L 195.0,565.0 L 148.0,755.0 L 166.0,777.0 L 287.0,860.0 L 307.0,886.0 L 314.0,910.0"/>
    <path d="M 271.0,535.0 L 284.0,541.0 L 303.0,563.0 L 291.0,667.0 L 265.0,766.0 L 227.0,840.0 L 190.0,884.0 L 129.0,934.0 L 88.0,956.0"/>
    <path d="M 41.0,611.0 L 80.0,626.0 L 248.0,583.0 L 261.0,579.0 L 265.0,571.0"/>
    <path d="M 375.0,419.0 L 441.0,419.0 L 529.0,397.0 L 560.0,383.0 L 615.0,381.0"/>
    <path d="M 355.0,536.0 L 377.0,555.0 L 383.0,568.0 L 413.0,691.0"/>
    <path d="M 400.0,540.0 L 411.0,545.0 L 475.0,532.0 L 574.0,503.0 L 596.0,508.0 L 617.0,530.0 L 595.0,595.0 L 589.0,606.0 L 575.0,609.0"/>
    <path d="M 427.0,676.0 L 437.0,667.0 L 561.0,640.0 L 611.0,646.0"/>
    <path d="M 459.0,205.0 L 498.0,241.0 L 508.0,263.0 L 501.0,795.0 L 487.0,951.0 L 489.0,1034.0"/>
    <path d="M 478.0,681.0 L 463.0,732.0 L 439.0,770.0 L 348.0,883.0"/>
    <path d="M 544.0,741.0 L 606.0,779.0 L 620.0,803.0"/>
    <path d="M 742.0,256.0 L 768.0,275.0 L 781.0,297.0 L 772.0,342.0 L 748.0,419.0 L 709.0,511.0 L 685.0,560.0 L 648.0,614.0"/>
    <path d="M 722.0,535.0 L 743.0,524.0 L 868.0,494.0 L 914.0,490.0 L 936.0,496.0"/>
    <path d="M 767.0,543.0 L 794.0,560.0 L 805.0,575.0 L 788.0,690.0 L 772.0,744.0 L 734.0,820.0 L 690.0,875.0 L 643.0,915.0 L 585.0,944.0"/>
    <path d="M 647.0,677.0 L 676.0,695.0 L 766.0,819.0 L 861.0,922.0 L 977.0,951.0"/>
  </g>
</svg>
