<svg xmlns="http://www.w3.org/2000/svg" viewBox="0 0 1024 1024">
  <g style="fill:none;stroke:#000000;stroke-width:50;stroke-linecap:round;stroke-linejoin:round;" transform="scale(1, 1) translate(0, 0)">
    <path d="M 201.0,231.0 L 225.0,248.0 L 246.0,279.0 L 206.0,535.0 L 161.0,719.0 L 177.0,739.0 L 279.0,797.0 L 315.0,825.0 L 338.0,869.0"/>
    <path d="M 290.0,497.0 L 324.0,531.0 L 300.0,667.0 L 265.0,754.0 L 240.0,798.0 L 199.0,843.0 L 140.0,892.0 L 85.0,920.0"/>
    <path d="M 43.0,585.0 L 92.0,603.0 L 132.0,587.0 L 266.0,552.0 L 284.0,539.0"/>
    <path d="M 368.0,286.0 L 426.0,283.0 L 432.0,276.0 L 490.0,262.0 L 518.0,268.0 L 537.0,290.0 L 493.0,483.0"/>
    <path d="M 377.0,340.0 L 414.0,357.0 L 435.0,374.0"/>
    <path d="M 355.0,472.0 L 388.0,470.0 L 477.0,403.0"/>
    <path d="M 595.0,257.0 L 634.0,259.0 L 736.0,232.0 L 759.0,243.0 L 774.0,262.0 L 779.0,273.0 L 758.0,331.0 L 722.0,471.0"/>
    <path d="M 605.0,314.0 L 641.0,336.0 L 657.0,353.0"/>
    <path d="M 594.0,441.0 L 628.0,436.0 L 704.0,371.0"/>
    <path d="M 553.0,461.0 L 569.0,496.0 L 500.0,585.0 L 433.0,644.0 L 335.0,697.0"/>
    <path d="M 597.0,524.0 L 609.0,522.0 L 673.0,580.0 L 775.0,648.0 L 851.0,662.0 L 947.0,667.0"/>
    <path d="M 569.0,601.0 L 586.0,633.0 L 561.0,669.0 L 495.0,733.0 L 424.0,773.0"/>
    <path d="M 615.0,699.0 L 634.0,732.0 L 599.0,782.0 L 533.0,848.0 L 439.0,905.0"/>
    <path d="M 686.0,777.0 L 703.0,800.0 L 709.0,822.0 L 624.0,930.0 L 514.0,1021.0 L 409.0,1076.0"/>
  </g>
</svg>
