<svg xmlns="http://www.w3.org/2000/svg" viewBox="0 0 1024 1024">
  <g style="fill:none;stroke:#000000;stroke-width:50;stroke-linecap:round;stroke-linejoin:round;" transform="scale(1, 1) translate(0, 0)">
    <path d="M 221.0,206.0 L 262.0,253.0 L 216.0,539.0 L 172.0,708.0 L 181.0,725.0 L 314.0,821.0 L 330.0,839.0 L 341.0,870.0"/>
    <path d="M 304.0,497.0 L 324.0,511.0 L 339.0,532.0 L 322.0,637.0 L 284.0,749.0 L 244.0,815.0 L 205.0,857.0 L 155.0,895.0 L 97.0,924.0"/>
    <path d="M 48.0,591.0 L 94.0,609.0 L 278.0,555.0 L 298.0,540.0"/>
    <path d="M 762.0,225.0 L 744.0,216.0 L 696.0,208.0 L 614.0,252.0 L 546.0,274.0 L 536.0,283.0 L 523.0,281.0 L 512.0,290.0 L 498.0,287.0 L 492.0,295.0 L 472.0,293.0 L 460.0,302.0"/>
    <path d="M 415.0,425.0 L 470.0,425.0 L 640.0,384.0 L 780.0,360.0 L 847.0,368.0"/>
    <path d="M 557.0,291.0 L 587.0,320.0 L 565.0,400.0 L 540.0,456.0 L 465.0,557.0 L 382.0,621.0"/>
    <path d="M 651.0,406.0 L 664.0,409.0 L 723.0,467.0 L 818.0,539.0 L 882.0,557.0 L 946.0,567.0 L 969.0,565.0"/>
    <path d="M 497.0,563.0 L 512.0,567.0 L 516.0,574.0 L 544.0,680.0"/>
    <path d="M 533.0,545.0 L 543.0,552.0 L 641.0,526.0 L 661.0,526.0 L 686.0,549.0 L 668.0,597.0 L 647.0,608.0"/>
    <path d="M 559.0,655.0 L 572.0,646.0 L 642.0,632.0 L 687.0,638.0"/>
    <path d="M 393.0,730.0 L 421.0,750.0 L 428.0,771.0 L 433.0,868.0 L 420.0,962.0 L 422.0,1018.0"/>
    <path d="M 456.0,762.0 L 462.0,747.0 L 470.0,744.0 L 594.0,720.0 L 786.0,694.0 L 828.0,701.0 L 846.0,718.0 L 847.0,730.0 L 849.0,877.0 L 839.0,954.0 L 825.0,974.0 L 795.0,967.0 L 740.0,940.0"/>
    <path d="M 507.0,806.0 L 533.0,838.0 L 549.0,935.0"/>
    <path d="M 534.0,804.0 L 559.0,811.0 L 652.0,787.0 L 684.0,789.0 L 701.0,809.0 L 689.0,843.0 L 667.0,856.0"/>
    <path d="M 566.0,911.0 L 580.0,900.0 L 666.0,885.0 L 697.0,883.0 L 719.0,889.0"/>
  </g>
</svg>
