<svg xmlns="http://www.w3.org/2000/svg" viewBox="0 0 1024 1024">
  <g style="fill:none;stroke:#000000;stroke-width:50;stroke-linecap:round;stroke-linejoin:round;" transform="scale(1, 1) translate(0, 0)">
    <path d="M 232.0,240.0 L 248.0,246.0 L 280.0,289.0 L 253.0,509.0 L 233.0,624.0 L 211.0,708.0 L 226.0,730.0 L 323.0,803.0 L 354.0,834.0 L 371.0,881.0"/>
    <path d="M 341.0,489.0 L 375.0,525.0 L 345.0,668.0 L 311.0,761.0 L 286.0,806.0 L 250.0,850.0 L 176.0,911.0 L 109.0,944.0"/>
    <path d="M 39.0,608.0 L 92.0,627.0 L 318.0,553.0 L 334.0,538.0"/>
    <path d="M 439.0,296.0 L 467.0,321.0 L 500.0,448.0"/>
    <path d="M 490.0,316.0 L 499.0,305.0 L 557.0,287.0 L 589.0,288.0 L 604.0,304.0 L 603.0,314.0 L 585.0,374.0 L 569.0,385.0"/>
    <path d="M 515.0,428.0 L 524.0,419.0 L 553.0,409.0 L 609.0,409.0"/>
    <path d="M 663.0,256.0 L 691.0,283.0 L 721.0,407.0"/>
    <path d="M 716.0,278.0 L 732.0,267.0 L 798.0,249.0 L 829.0,250.0 L 846.0,270.0 L 826.0,330.0 L 805.0,341.0"/>
    <path d="M 736.0,388.0 L 751.0,378.0 L 795.0,369.0 L 851.0,374.0"/>
    <path d="M 452.0,495.0 L 478.0,514.0 L 487.0,532.0 L 532.0,697.0"/>
    <path d="M 504.0,494.0 L 514.0,502.0 L 528.0,502.0 L 744.0,456.0 L 803.0,454.0 L 836.0,489.0 L 793.0,643.0 L 784.0,657.0 L 767.0,662.0"/>
    <path d="M 568.0,581.0 L 704.0,549.0 L 741.0,553.0"/>
    <path d="M 549.0,682.0 L 564.0,671.0 L 738.0,643.0 L 758.0,634.0"/>
    <path d="M 417.0,796.0 L 473.0,803.0 L 705.0,766.0 L 879.0,748.0 L 955.0,764.0"/>
    <path d="M 611.0,499.0 L 652.0,524.0 L 653.0,536.0 L 647.0,1088.0"/>
  </g>
</svg>
