<svg xmlns="http://www.w3.org/2000/svg" viewBox="0 0 1024 1024">
  <g style="fill:none;stroke:#000000;stroke-width:50;stroke-linecap:round;stroke-linejoin:round;" transform="scale(1, 1) translate(0, 0)">
    <path d="M 218.0,260.0 L 245.0,277.0 L 268.0,310.0 L 234.0,588.0 L 215.0,690.0 L 195.0,760.0 L 206.0,781.0 L 306.0,856.0 L 348.0,895.0 L 367.0,942.0"/>
    <path d="M 328.0,537.0 L 348.0,551.0 L 363.0,577.0 L 336.0,710.0 L 299.0,810.0 L 270.0,858.0 L 212.0,920.0 L 153.0,960.0 L 109.0,980.0"/>
    <path d="M 48.0,647.0 L 103.0,664.0 L 316.0,598.0 L 322.0,588.0"/>
    <path d="M 581.0,167.0 L 654.0,209.0 L 675.0,239.0"/>
    <path d="M 442.0,306.0 L 455.0,336.0 L 441.0,384.0 L 423.0,419.0 L 423.0,463.0"/>
    <path d="M 480.0,352.0 L 516.0,337.0 L 656.0,304.0 L 831.0,277.0 L 862.0,295.0 L 871.0,313.0 L 808.0,377.0"/>
    <path d="M 512.0,418.0 L 566.0,422.0 L 617.0,414.0 L 716.0,386.0 L 755.0,387.0"/>
    <path d="M 580.0,441.0 L 608.0,462.0 L 603.0,574.0"/>
    <path d="M 498.0,489.0 L 491.0,521.0 L 456.0,598.0"/>
    <path d="M 776.0,468.0 L 737.0,470.0 L 654.0,565.0 L 642.0,570.0 L 632.0,585.0 L 528.0,678.0 L 428.0,754.0 L 354.0,793.0"/>
    <path d="M 525.0,614.0 L 542.0,631.0 L 552.0,658.0 L 547.0,858.0 L 553.0,907.0"/>
    <path d="M 559.0,620.0 L 590.0,628.0 L 749.0,590.0 L 771.0,597.0 L 793.0,619.0 L 799.0,630.0 L 793.0,693.0 L 797.0,835.0 L 791.0,908.0"/>
    <path d="M 581.0,719.0 L 588.0,708.0 L 659.0,693.0 L 702.0,687.0 L 721.0,691.0"/>
    <path d="M 578.0,799.0 L 609.0,786.0 L 692.0,771.0 L 724.0,776.0"/>
    <path d="M 575.0,889.0 L 588.0,875.0 L 709.0,859.0 L 741.0,860.0 L 750.0,870.0"/>
    <path d="M 620.0,967.0 L 588.0,969.0 L 516.0,1029.0 L 465.0,1058.0 L 423.0,1073.0"/>
    <path d="M 734.0,937.0 L 836.0,1030.0 L 858.0,1090.0"/>
  </g>
</svg>
