<svg xmlns="http://www.w3.org/2000/svg" viewBox="0 0 1024 1024">
  <g style="fill:none;stroke:#000000;stroke-width:50;stroke-linecap:round;stroke-linejoin:round;" transform="scale(1, 1) translate(0, 0)">
    <path d="M 465.0,182.0 L 537.0,213.0 L 569.0,247.0"/>
    <path d="M 190.0,336.0 L 241.0,344.0 L 468.0,307.0 L 762.0,278.0 L 801.0,283.0 L 837.0,296.0"/>
    <path d="M 385.0,342.0 L 364.0,363.0 L 358.0,430.0 L 365.0,432.0 L 406.0,429.0 L 513.0,405.0 L 651.0,391.0 L 729.0,405.0"/>
    <path d="M 353.0,504.0 L 384.0,539.0 L 404.0,627.0"/>
    <path d="M 382.0,499.0 L 409.0,511.0 L 426.0,509.0 L 626.0,469.0 L 656.0,478.0 L 672.0,499.0 L 657.0,531.0 L 633.0,546.0"/>
    <path d="M 416.0,609.0 L 435.0,598.0 L 623.0,570.0 L 659.0,571.0 L 679.0,578.0"/>
    <path d="M 172.0,632.0 L 199.0,656.0 L 203.0,668.0 L 196.0,826.0 L 183.0,891.0 L 153.0,970.0 L 110.0,1036.0"/>
    <path d="M 227.0,642.0 L 246.0,645.0 L 300.0,624.0 L 314.0,629.0 L 333.0,650.0 L 328.0,759.0 L 334.0,958.0 L 329.0,991.0 L 313.0,1022.0 L 233.0,992.0 L 232.0,987.0"/>
    <path d="M 228.0,770.0 L 238.0,758.0 L 266.0,755.0 L 285.0,760.0"/>
    <path d="M 212.0,869.0 L 224.0,857.0 L 237.0,854.0 L 266.0,851.0 L 285.0,856.0"/>
    <path d="M 459.0,611.0 L 484.0,633.0 L 490.0,646.0 L 472.0,725.0 L 426.0,864.0 L 444.0,879.0 L 534.0,920.0 L 556.0,951.0"/>
    <path d="M 544.0,712.0 L 565.0,739.0 L 545.0,834.0 L 519.0,893.0 L 496.0,927.0 L 463.0,958.0 L 396.0,995.0"/>
    <path d="M 369.0,763.0 L 401.0,775.0 L 519.0,748.0 L 532.0,739.0"/>
    <path d="M 605.0,624.0 L 632.0,646.0 L 637.0,659.0 L 633.0,824.0 L 621.0,888.0 L 596.0,965.0 L 550.0,1040.0"/>
    <path d="M 657.0,631.0 L 670.0,638.0 L 755.0,614.0 L 764.0,615.0 L 783.0,632.0 L 763.0,739.0 L 760.0,852.0 L 779.0,941.0 L 817.0,996.0 L 848.0,1017.0 L 874.0,1026.0 L 914.0,1022.0 L 926.0,988.0 L 938.0,899.0"/>
    <path d="M 657.0,799.0 L 702.0,840.0 L 718.0,870.0"/>
  </g>
</svg>
