<svg xmlns="http://www.w3.org/2000/svg" viewBox="0 0 1024 1024">
  <g style="fill:none;stroke:#000000;stroke-width:50;stroke-linecap:round;stroke-linejoin:round;" transform="scale(1, 1) translate(0, 0)">
    <path d="M 277.0,287.0 L 324.0,299.0 L 580.0,245.0 L 603.0,246.0 L 620.0,256.0 L 570.0,353.0 L 564.0,384.0 L 602.0,387.0 L 693.0,371.0 L 730.0,380.0 L 751.0,409.0 L 718.0,544.0 L 704.0,572.0 L 686.0,591.0 L 667.0,601.0 L 606.0,568.0 L 588.0,566.0"/>
    <path d="M 381.0,317.0 L 404.0,336.0 L 385.0,395.0 L 351.0,463.0 L 318.0,510.0 L 273.0,558.0 L 228.0,594.0 L 179.0,621.0"/>
    <path d="M 321.0,548.0 L 372.0,550.0 L 501.0,509.0 L 548.0,507.0 L 570.0,529.0 L 503.0,614.0 L 494.0,614.0"/>
    <path d="M 448.0,622.0 L 463.0,626.0 L 491.0,649.0 L 517.0,700.0 L 534.0,829.0 L 523.0,938.0 L 505.0,978.0 L 476.0,1004.0 L 357.0,953.0"/>
    <path d="M 106.0,771.0 L 165.0,782.0 L 401.0,749.0 L 818.0,718.0 L 873.0,725.0 L 910.0,738.0"/>
  </g>
</svg>
