<svg xmlns="http://www.w3.org/2000/svg" viewBox="0 0 1024 1024">
  <g style="fill:none;stroke:#000000;stroke-width:50;stroke-linecap:round;stroke-linejoin:round;" transform="scale(1, 1) translate(0, 0)">
    <path d="M 148.0,365.0 L 196.0,377.0 L 360.0,316.0 L 385.0,314.0 L 407.0,325.0 L 422.0,343.0 L 409.0,369.0 L 321.0,476.0"/>
    <path d="M 272.0,482.0 L 312.0,509.0 L 343.0,577.0 L 363.0,700.0 L 366.0,778.0 L 359.0,857.0 L 339.0,924.0 L 300.0,962.0 L 209.0,918.0"/>
    <path d="M 74.0,743.0 L 138.0,748.0 L 405.0,577.0 L 440.0,549.0"/>
    <path d="M 613.0,213.0 L 707.0,279.0 L 725.0,314.0"/>
    <path d="M 455.0,437.0 L 504.0,445.0 L 794.0,389.0 L 845.0,387.0 L 870.0,392.0"/>
    <path d="M 599.0,450.0 L 627.0,480.0 L 576.0,561.0 L 537.0,607.0 L 517.0,649.0 L 550.0,654.0 L 646.0,647.0 L 669.0,636.0"/>
    <path d="M 730.0,509.0 L 754.0,545.0 L 744.0,569.0 L 698.0,644.0 L 640.0,720.0 L 593.0,771.0 L 502.0,850.0 L 419.0,900.0"/>
    <path d="M 835.0,713.0 L 799.0,720.0 L 739.0,801.0 L 688.0,853.0 L 585.0,935.0 L 531.0,965.0"/>
    <path d="M 720.0,863.0 L 740.0,864.0 L 844.0,939.0 L 870.0,968.0 L 890.0,1010.0"/>
  </g>
</svg>
