<svg xmlns="http://www.w3.org/2000/svg" viewBox="0 0 1024 1024">
  <g style="fill:none;stroke:#000000;stroke-width:50;stroke-linecap:round;stroke-linejoin:round;" transform="scale(1, 1) translate(0, 0)">
    <path d="M 353.0,290.0 L 402.0,299.0 L 530.0,253.0 L 580.0,248.0 L 606.0,271.0 L 544.0,350.0 L 536.0,350.0"/>
    <path d="M 495.0,341.0 L 512.0,355.0 L 524.0,376.0 L 534.0,416.0 L 526.0,519.0 L 513.0,536.0 L 445.0,508.0 L 421.0,504.0"/>
    <path d="M 297.0,435.0 L 345.0,440.0 L 472.0,414.0 L 687.0,384.0 L 756.0,385.0 L 786.0,393.0"/>
    <path d="M 210.0,612.0 L 245.0,621.0 L 342.0,583.0 L 379.0,579.0 L 405.0,588.0 L 415.0,599.0 L 412.0,607.0 L 352.0,692.0"/>
    <path d="M 316.0,689.0 L 342.0,725.0 L 356.0,770.0 L 362.0,840.0 L 351.0,912.0 L 326.0,952.0 L 245.0,918.0"/>
    <path d="M 78.0,835.0 L 132.0,844.0 L 431.0,716.0"/>
    <path d="M 567.0,561.0 L 608.0,571.0 L 720.0,530.0 L 767.0,536.0 L 783.0,554.0 L 772.0,573.0 L 708.0,639.0 L 705.0,649.0 L 691.0,649.0"/>
    <path d="M 650.0,662.0 L 668.0,666.0 L 696.0,686.0 L 712.0,709.0 L 728.0,759.0 L 734.0,803.0 L 734.0,895.0 L 720.0,940.0 L 682.0,977.0 L 601.0,935.0"/>
    <path d="M 480.0,762.0 L 512.0,766.0 L 662.0,736.0 L 851.0,710.0 L 906.0,709.0 L 954.0,721.0"/>
  </g>
</svg>
