<svg xmlns="http://www.w3.org/2000/svg" viewBox="0 0 1024 1024">
  <g style="fill:none;stroke:#000000;stroke-width:50;stroke-linecap:round;stroke-linejoin:round;" transform="scale(1, 1) translate(0, 0)">
    <path d="M 458.0,179.0 L 534.0,220.0 L 567.0,260.0"/>
    <path d="M 252.0,344.0 L 312.0,355.0 L 709.0,305.0 L 748.0,304.0 L 792.0,312.0"/>
    <path d="M 405.0,373.0 L 432.0,393.0 L 428.0,470.0 L 416.0,524.0 L 417.0,568.0"/>
    <path d="M 580.0,353.0 L 607.0,376.0 L 603.0,526.0 L 609.0,562.0"/>
    <path d="M 317.0,448.0 L 277.0,512.0 L 226.0,571.0"/>
    <path d="M 678.0,442.0 L 778.0,497.0 L 815.0,552.0"/>
    <path d="M 327.0,633.0 L 349.0,645.0 L 375.0,649.0 L 554.0,604.0 L 591.0,608.0 L 614.0,633.0 L 545.0,714.0 L 534.0,715.0"/>
    <path d="M 476.0,718.0 L 510.0,733.0 L 534.0,761.0 L 540.0,779.0 L 560.0,880.0 L 558.0,944.0 L 550.0,983.0 L 531.0,1022.0 L 505.0,1045.0 L 393.0,1004.0"/>
    <path d="M 132.0,818.0 L 189.0,830.0 L 397.0,801.0 L 805.0,767.0 L 857.0,773.0 L 915.0,793.0"/>
  </g>
</svg>
