<svg xmlns="http://www.w3.org/2000/svg" viewBox="0 0 1024 1024">
  <g style="fill:none;stroke:#000000;stroke-width:50;stroke-linecap:round;stroke-linejoin:round;" transform="scale(1, 1) translate(0, 0)">
    <path d="M 443.0,194.0 L 544.0,257.0 L 564.0,292.0"/>
    <path d="M 218.0,385.0 L 231.0,416.0 L 229.0,428.0 L 183.0,538.0 L 179.0,593.0"/>
    <path d="M 259.0,442.0 L 274.0,429.0 L 433.0,396.0 L 746.0,347.0 L 784.0,359.0 L 808.0,390.0 L 722.0,492.0"/>
    <path d="M 650.0,565.0 L 664.0,612.0 L 544.0,683.0 L 409.0,745.0 L 399.0,757.0"/>
    <path d="M 345.0,545.0 L 382.0,591.0 L 371.0,799.0 L 378.0,900.0 L 398.0,945.0 L 424.0,966.0 L 477.0,987.0 L 582.0,994.0 L 695.0,984.0 L 771.0,963.0 L 793.0,949.0 L 795.0,793.0"/>
  </g>
</svg>
