<svg xmlns="http://www.w3.org/2000/svg" viewBox="0 0 1024 1024">
  <g style="fill:none;stroke:#000000;stroke-width:50;stroke-linecap:round;stroke-linejoin:round;" transform="scale(1, 1) translate(0, 0)">
    <path d="M 486.0,169.0 L 563.0,223.0 L 585.0,262.0"/>
    <path d="M 229.0,358.0 L 238.0,389.0 L 233.0,414.0 L 188.0,496.0 L 176.0,553.0"/>
    <path d="M 271.0,390.0 L 283.0,403.0 L 296.0,403.0 L 382.0,382.0 L 569.0,350.0 L 776.0,327.0 L 815.0,343.0 L 833.0,370.0 L 750.0,457.0"/>
    <path d="M 197.0,647.0 L 218.0,654.0 L 254.0,655.0 L 447.0,620.0 L 788.0,581.0 L 833.0,584.0 L 880.0,598.0"/>
    <path d="M 548.0,436.0 L 577.0,459.0 L 601.0,491.0 L 601.0,833.0 L 593.0,981.0 L 576.0,1014.0 L 558.0,1011.0 L 438.0,951.0"/>
    <path d="M 321.0,708.0 L 383.0,768.0 L 396.0,801.0"/>
  </g>
</svg>
