<svg xmlns="http://www.w3.org/2000/svg" viewBox="0 0 1024 1024">
  <g style="fill:none;stroke:#000000;stroke-width:50;stroke-linecap:round;stroke-linejoin:round;" transform="scale(1, 1) translate(0, 0)">
    <path d="M 451.0,189.0 L 544.0,244.0 L 568.0,280.0"/>
    <path d="M 248.0,339.0 L 258.0,379.0 L 198.0,497.0 L 191.0,549.0"/>
    <path d="M 274.0,416.0 L 308.0,399.0 L 525.0,360.0 L 749.0,333.0 L 796.0,342.0 L 819.0,362.0 L 826.0,379.0 L 730.0,471.0"/>
    <path d="M 283.0,574.0 L 306.0,581.0 L 382.0,581.0 L 504.0,562.0 L 639.0,532.0 L 705.0,531.0"/>
    <path d="M 474.0,628.0 L 458.0,624.0 L 434.0,638.0 L 390.0,723.0 L 332.0,803.0 L 281.0,861.0 L 198.0,935.0 L 104.0,999.0"/>
    <path d="M 376.0,802.0 L 372.0,842.0 L 408.0,1032.0"/>
    <path d="M 403.0,825.0 L 425.0,810.0 L 575.0,790.0 L 633.0,775.0 L 668.0,777.0 L 706.0,818.0 L 673.0,899.0 L 636.0,929.0"/>
    <path d="M 428.0,970.0 L 443.0,982.0 L 625.0,960.0 L 678.0,961.0 L 708.0,972.0"/>
  </g>
</svg>
