<svg xmlns="http://www.w3.org/2000/svg" viewBox="0 0 1024 1024">
  <g style="fill:none;stroke:#000000;stroke-width:50;stroke-linecap:round;stroke-linejoin:round;" transform="scale(1, 1) translate(0, 0)">
    <path d="M 429.0,208.0 L 524.0,257.0 L 553.0,298.0"/>
    <path d="M 244.0,384.0 L 253.0,413.0 L 251.0,435.0 L 212.0,514.0 L 204.0,540.0 L 203.0,577.0"/>
    <path d="M 284.0,413.0 L 301.0,426.0 L 325.0,424.0 L 593.0,373.0 L 738.0,359.0 L 766.0,368.0 L 791.0,399.0 L 722.0,487.0"/>
    <path d="M 251.0,679.0 L 237.0,744.0 L 199.0,828.0 L 189.0,864.0"/>
    <path d="M 328.0,668.0 L 347.0,690.0 L 381.0,781.0 L 410.0,833.0 L 454.0,873.0 L 537.0,907.0 L 600.0,921.0 L 657.0,925.0 L 708.0,915.0 L 736.0,895.0 L 729.0,865.0 L 678.0,756.0"/>
    <path d="M 397.0,560.0 L 469.0,612.0 L 486.0,645.0"/>
    <path d="M 600.0,485.0 L 615.0,498.0 L 634.0,533.0 L 566.0,719.0 L 491.0,845.0 L 443.0,899.0 L 380.0,948.0 L 294.0,996.0 L 201.0,1026.0"/>
    <path d="M 722.0,640.0 L 827.0,716.0 L 853.0,772.0"/>
  </g>
</svg>
