<svg xmlns="http://www.w3.org/2000/svg" viewBox="0 0 1024 1024">
  <g style="fill:none;stroke:#000000;stroke-width:50;stroke-linecap:round;stroke-linejoin:round;" transform="scale(1, 1) translate(0, 0)">
    <path d="M 427.0,180.0 L 498.0,216.0 L 535.0,251.0"/>
    <path d="M 252.0,315.0 L 262.0,349.0 L 216.0,446.0 L 211.0,497.0"/>
    <path d="M 294.0,353.0 L 302.0,361.0 L 331.0,363.0 L 494.0,329.0 L 716.0,299.0 L 753.0,312.0 L 773.0,340.0 L 702.0,413.0"/>
    <path d="M 253.0,595.0 L 280.0,601.0 L 337.0,598.0 L 431.0,581.0 L 609.0,536.0 L 652.0,536.0"/>
    <path d="M 412.0,424.0 L 443.0,445.0 L 461.0,468.0 L 430.0,656.0 L 389.0,781.0 L 349.0,852.0 L 309.0,896.0 L 254.0,938.0 L 190.0,973.0 L 165.0,980.0"/>
    <path d="M 500.0,655.0 L 539.0,704.0 L 528.0,801.0 L 531.0,905.0 L 547.0,939.0 L 578.0,961.0 L 623.0,972.0 L 706.0,976.0 L 791.0,967.0 L 862.0,944.0 L 872.0,937.0 L 872.0,798.0"/>
    <path d="M 698.0,631.0 L 712.0,653.0 L 717.0,678.0 L 681.0,724.0 L 619.0,789.0 L 515.0,878.0 L 428.0,933.0"/>
    <path d="M 629.0,431.0 L 687.0,470.0 L 707.0,494.0"/>
  </g>
</svg>
