<svg xmlns="http://www.w3.org/2000/svg" viewBox="0 0 1024 1024">
  <g style="fill:none;stroke:#000000;stroke-width:50;stroke-linecap:round;stroke-linejoin:round;" transform="scale(1, 1) translate(0, 0)">
    <path d="M 436.0,181.0 L 512.0,230.0 L 534.0,252.0 L 543.0,271.0"/>
    <path d="M 229.0,361.0 L 239.0,378.0 L 241.0,407.0 L 201.0,506.0 L 195.0,561.0"/>
    <path d="M 272.0,422.0 L 287.0,410.0 L 431.0,378.0 L 716.0,333.0 L 748.0,345.0 L 772.0,374.0 L 694.0,465.0"/>
    <path d="M 338.0,550.0 L 362.0,556.0 L 400.0,555.0 L 569.0,514.0 L 628.0,512.0"/>
    <path d="M 455.0,578.0 L 482.0,592.0 L 494.0,611.0 L 486.0,811.0 L 490.0,845.0 L 507.0,872.0"/>
    <path d="M 525.0,721.0 L 538.0,710.0 L 634.0,690.0 L 683.0,690.0"/>
    <path d="M 299.0,677.0 L 327.0,717.0 L 286.0,812.0 L 217.0,910.0 L 184.0,945.0 L 128.0,988.0"/>
    <path d="M 344.0,777.0 L 353.0,802.0 L 493.0,903.0 L 587.0,958.0 L 684.0,1005.0 L 749.0,1023.0 L 867.0,1018.0 L 947.0,1006.0"/>
  </g>
</svg>
