<svg xmlns="http://www.w3.org/2000/svg" viewBox="0 0 1024 1024">
  <g style="fill:none;stroke:#000000;stroke-width:50;stroke-linecap:round;stroke-linejoin:round;" transform="scale(1, 1) translate(0, 0)">
    <path d="M 428.0,183.0 L 520.0,232.0 L 535.0,244.0 L 560.0,281.0"/>
    <path d="M 243.0,355.0 L 252.0,384.0 L 247.0,408.0 L 197.0,509.0 L 188.0,562.0"/>
    <path d="M 282.0,407.0 L 295.0,397.0 L 334.0,395.0 L 472.0,368.0 L 742.0,337.0 L 777.0,351.0 L 796.0,379.0 L 726.0,457.0"/>
    <path d="M 332.0,503.0 L 352.0,517.0 L 372.0,543.0 L 407.0,685.0"/>
    <path d="M 379.0,503.0 L 412.0,511.0 L 612.0,476.0 L 626.0,484.0 L 648.0,511.0 L 616.0,583.0 L 588.0,603.0"/>
    <path d="M 425.0,641.0 L 436.0,651.0 L 586.0,628.0 L 626.0,628.0 L 649.0,637.0"/>
    <path d="M 279.0,754.0 L 311.0,779.0 L 321.0,797.0 L 367.0,1007.0"/>
    <path d="M 357.0,789.0 L 378.0,773.0 L 555.0,753.0 L 645.0,735.0 L 683.0,742.0 L 703.0,756.0 L 720.0,779.0 L 684.0,878.0 L 648.0,909.0"/>
    <path d="M 388.0,956.0 L 402.0,968.0 L 636.0,940.0 L 697.0,941.0 L 720.0,951.0"/>
  </g>
</svg>
