<svg xmlns="http://www.w3.org/2000/svg" viewBox="0 0 1024 1024">
  <g style="fill:none;stroke:#000000;stroke-width:50;stroke-linecap:round;stroke-linejoin:round;" transform="scale(1, 1) translate(0, 0)">
    <path d="M 446.0,169.0 L 533.0,215.0 L 561.0,254.0"/>
    <path d="M 223.0,329.0 L 237.0,362.0 L 235.0,374.0 L 222.0,416.0 L 194.0,470.0 L 189.0,532.0"/>
    <path d="M 269.0,386.0 L 282.0,375.0 L 396.0,352.0 L 713.0,304.0 L 748.0,304.0 L 780.0,319.0 L 798.0,344.0 L 726.0,428.0"/>
    <path d="M 376.0,494.0 L 394.0,502.0 L 438.0,500.0 L 550.0,483.0 L 660.0,457.0 L 697.0,461.0"/>
    <path d="M 509.0,516.0 L 533.0,542.0 L 526.0,619.0 L 502.0,639.0"/>
    <path d="M 371.0,694.0 L 393.0,682.0 L 504.0,668.0 L 601.0,643.0 L 634.0,640.0 L 662.0,653.0 L 679.0,675.0 L 647.0,733.0 L 618.0,751.0"/>
    <path d="M 365.0,808.0 L 376.0,815.0 L 408.0,814.0 L 607.0,778.0 L 655.0,777.0 L 678.0,785.0"/>
    <path d="M 520.0,814.0 L 542.0,833.0 L 553.0,856.0 L 546.0,934.0 L 524.0,952.0"/>
    <path d="M 307.0,484.0 L 334.0,503.0 L 347.0,526.0 L 338.0,796.0 L 319.0,996.0 L 368.0,1001.0 L 473.0,986.0 L 744.0,969.0 L 791.0,974.0 L 837.0,992.0"/>
  </g>
</svg>
