<svg xmlns="http://www.w3.org/2000/svg" viewBox="0 0 1024 1024">
  <g style="fill:none;stroke:#000000;stroke-width:50;stroke-linecap:round;stroke-linejoin:round;" transform="scale(1, 1) translate(0, 0)">
    <path d="M 452.0,172.0 L 520.0,210.0 L 548.0,248.0"/>
    <path d="M 231.0,315.0 L 240.0,341.0 L 239.0,361.0 L 193.0,450.0 L 188.0,505.0"/>
    <path d="M 266.0,344.0 L 288.0,354.0 L 321.0,353.0 L 430.0,330.0 L 672.0,296.0 L 741.0,290.0 L 789.0,299.0 L 813.0,332.0 L 738.0,403.0"/>
    <path d="M 470.0,385.0 L 507.0,418.0 L 501.0,563.0 L 497.0,585.0 L 484.0,601.0"/>
    <path d="M 305.0,462.0 L 367.0,499.0 L 391.0,536.0"/>
    <path d="M 670.0,398.0 L 682.0,432.0 L 611.0,487.0 L 580.0,502.0 L 573.0,513.0"/>
    <path d="M 323.0,609.0 L 346.0,627.0 L 355.0,649.0 L 356.0,726.0 L 344.0,858.0 L 321.0,969.0 L 315.0,1031.0"/>
    <path d="M 385.0,624.0 L 396.0,633.0 L 478.0,624.0 L 618.0,589.0 L 643.0,604.0 L 657.0,622.0 L 670.0,939.0 L 663.0,1001.0 L 647.0,1026.0 L 632.0,1023.0 L 526.0,972.0"/>
    <path d="M 379.0,756.0 L 392.0,745.0 L 503.0,726.0 L 541.0,723.0 L 563.0,729.0"/>
    <path d="M 374.0,860.0 L 407.0,847.0 L 514.0,832.0 L 554.0,830.0 L 575.0,836.0"/>
  </g>
</svg>
