<svg xmlns="http://www.w3.org/2000/svg" viewBox="0 0 1024 1024">
  <g style="fill:none;stroke:#000000;stroke-width:50;stroke-linecap:round;stroke-linejoin:round;" transform="scale(1, 1) translate(0, 0)">
    <path d="M 446.0,187.0 L 516.0,233.0 L 539.0,267.0"/>
    <path d="M 221.0,340.0 L 234.0,374.0 L 226.0,409.0 L 187.0,485.0 L 187.0,535.0"/>
    <path d="M 267.0,378.0 L 277.0,390.0 L 287.0,392.0 L 432.0,366.0 L 605.0,344.0 L 774.0,330.0 L 807.0,337.0 L 823.0,348.0 L 838.0,377.0 L 753.0,457.0"/>
    <path d="M 332.0,503.0 L 364.0,526.0 L 371.0,541.0 L 407.0,685.0"/>
    <path d="M 394.0,505.0 L 414.0,517.0 L 607.0,480.0 L 631.0,485.0 L 659.0,516.0 L 624.0,590.0 L 598.0,602.0"/>
    <path d="M 425.0,665.0 L 439.0,651.0 L 575.0,631.0 L 645.0,640.0"/>
    <path d="M 456.0,668.0 L 487.0,694.0 L 451.0,768.0 L 436.0,780.0"/>
    <path d="M 287.0,789.0 L 320.0,816.0 L 332.0,843.0 L 367.0,1036.0"/>
    <path d="M 351.0,794.0 L 376.0,807.0 L 641.0,766.0 L 665.0,764.0 L 691.0,771.0 L 728.0,807.0 L 690.0,914.0 L 655.0,941.0"/>
    <path d="M 390.0,985.0 L 411.0,997.0 L 643.0,971.0 L 696.0,973.0 L 725.0,983.0"/>
  </g>
</svg>
