<svg xmlns="http://www.w3.org/2000/svg" viewBox="0 0 1024 1024">
  <g style="fill:none;stroke:#000000;stroke-width:50;stroke-linecap:round;stroke-linejoin:round;" transform="scale(1, 1) translate(0, 0)">
    <path d="M 453.0,175.0 L 533.0,216.0 L 552.0,242.0"/>
    <path d="M 237.0,302.0 L 245.0,329.0 L 242.0,341.0 L 193.0,433.0 L 186.0,478.0"/>
    <path d="M 268.0,355.0 L 282.0,344.0 L 456.0,314.0 L 745.0,284.0 L 774.0,296.0 L 794.0,321.0 L 749.0,388.0 L 740.0,391.0"/>
    <path d="M 273.0,489.0 L 330.0,492.0 L 631.0,438.0 L 677.0,441.0 L 698.0,449.0"/>
    <path d="M 367.0,388.0 L 399.0,412.0 L 417.0,518.0"/>
    <path d="M 553.0,347.0 L 576.0,376.0 L 538.0,517.0"/>
    <path d="M 337.0,590.0 L 366.0,628.0 L 365.0,720.0 L 353.0,785.0 L 356.0,841.0"/>
    <path d="M 372.0,590.0 L 404.0,604.0 L 549.0,571.0 L 597.0,571.0 L 625.0,603.0 L 619.0,652.0 L 620.0,756.0 L 611.0,828.0"/>
    <path d="M 448.0,648.0 L 467.0,658.0 L 493.0,689.0 L 473.0,810.0 L 436.0,901.0 L 405.0,943.0 L 357.0,981.0 L 263.0,1019.0 L 216.0,1023.0"/>
    <path d="M 522.0,833.0 L 545.0,862.0 L 542.0,963.0 L 557.0,1005.0 L 604.0,1031.0 L 685.0,1041.0 L 787.0,1029.0 L 822.0,1016.0 L 853.0,993.0 L 864.0,824.0"/>
  </g>
</svg>
