<svg xmlns="http://www.w3.org/2000/svg" viewBox="0 0 1024 1024">
  <g style="fill:none;stroke:#000000;stroke-width:50;stroke-linecap:round;stroke-linejoin:round;" transform="scale(1, 1) translate(0, 0)">
    <path d="M 462.0,185.0 L 541.0,234.0 L 568.0,273.0"/>
    <path d="M 246.0,346.0 L 254.0,364.0 L 254.0,390.0 L 205.0,484.0 L 200.0,534.0"/>
    <path d="M 285.0,405.0 L 298.0,395.0 L 469.0,359.0 L 656.0,331.0 L 737.0,326.0 L 771.0,342.0 L 787.0,363.0 L 721.0,452.0"/>
    <path d="M 332.0,493.0 L 353.0,516.0 L 361.0,540.0 L 331.0,594.0 L 248.0,711.0 L 162.0,803.0 L 100.0,855.0"/>
    <path d="M 295.0,691.0 L 298.0,716.0 L 313.0,743.0 L 307.0,864.0 L 292.0,991.0 L 297.0,1050.0"/>
    <path d="M 443.0,553.0 L 492.0,561.0 L 759.0,512.0 L 818.0,516.0"/>
    <path d="M 572.0,572.0 L 589.0,590.0 L 591.0,601.0 L 559.0,668.0 L 538.0,695.0"/>
    <path d="M 460.0,691.0 L 485.0,716.0 L 494.0,746.0 L 499.0,859.0 L 488.0,958.0 L 491.0,1016.0"/>
    <path d="M 511.0,703.0 L 537.0,713.0 L 724.0,671.0 L 760.0,693.0 L 768.0,705.0 L 765.0,803.0 L 771.0,960.0 L 759.0,991.0 L 699.0,978.0"/>
    <path d="M 523.0,840.0 L 534.0,830.0 L 633.0,813.0 L 686.0,817.0"/>
    <path d="M 519.0,981.0 L 541.0,966.0 L 652.0,953.0 L 697.0,953.0 L 719.0,961.0"/>
  </g>
</svg>
