<svg xmlns="http://www.w3.org/2000/svg" viewBox="0 0 1024 1024">
  <g style="fill:none;stroke:#000000;stroke-width:50;stroke-linecap:round;stroke-linejoin:round;" transform="scale(1, 1) translate(0, 0)">
    <path d="M 457.0,189.0 L 541.0,243.0 L 562.0,281.0"/>
    <path d="M 237.0,347.0 L 249.0,379.0 L 244.0,403.0 L 204.0,470.0 L 196.0,529.0"/>
    <path d="M 274.0,407.0 L 298.0,393.0 L 472.0,361.0 L 718.0,331.0 L 760.0,348.0 L 777.0,372.0 L 715.0,455.0 L 703.0,460.0"/>
    <path d="M 331.0,475.0 L 367.0,507.0 L 365.0,658.0 L 349.0,670.0"/>
    <path d="M 400.0,591.0 L 410.0,576.0 L 451.0,564.0 L 481.0,559.0 L 516.0,563.0"/>
    <path d="M 80.0,740.0 L 133.0,749.0 L 398.0,689.0 L 453.0,680.0 L 498.0,683.0"/>
    <path d="M 331.0,726.0 L 349.0,740.0 L 362.0,770.0 L 364.0,930.0 L 357.0,981.0 L 343.0,1004.0 L 255.0,969.0"/>
    <path d="M 234.0,782.0 L 209.0,844.0 L 159.0,924.0"/>
    <path d="M 431.0,774.0 L 484.0,823.0 L 505.0,866.0"/>
    <path d="M 548.0,624.0 L 613.0,625.0 L 694.0,600.0 L 729.0,600.0 L 751.0,611.0 L 717.0,747.0 L 695.0,800.0 L 663.0,850.0 L 623.0,893.0 L 590.0,917.0 L 555.0,934.0 L 504.0,946.0"/>
    <path d="M 530.0,685.0 L 578.0,713.0 L 705.0,864.0 L 798.0,938.0 L 898.0,965.0 L 972.0,977.0"/>
  </g>
</svg>
