<svg xmlns="http://www.w3.org/2000/svg" viewBox="0 0 1024 1024">
  <g style="fill:none;stroke:#000000;stroke-width:50;stroke-linecap:round;stroke-linejoin:round;" transform="scale(1, 1) translate(0, 0)">
    <path d="M 461.0,181.0 L 536.0,228.0 L 558.0,253.0"/>
    <path d="M 266.0,329.0 L 273.0,345.0 L 273.0,372.0 L 257.0,408.0 L 220.0,463.0 L 211.0,514.0"/>
    <path d="M 303.0,384.0 L 316.0,374.0 L 434.0,352.0 L 716.0,308.0 L 755.0,322.0 L 774.0,347.0 L 710.0,424.0"/>
    <path d="M 283.0,550.0 L 336.0,552.0 L 448.0,522.0 L 485.0,521.0"/>
    <path d="M 164.0,697.0 L 221.0,701.0 L 436.0,646.0 L 493.0,638.0 L 511.0,643.0"/>
    <path d="M 274.0,713.0 L 303.0,744.0 L 282.0,802.0 L 251.0,858.0 L 192.0,929.0 L 124.0,982.0 L 88.0,1000.0"/>
    <path d="M 400.0,681.0 L 425.0,697.0 L 431.0,708.0 L 421.0,865.0 L 434.0,931.0 L 470.0,968.0 L 544.0,998.0 L 600.0,1007.0 L 705.0,1009.0 L 771.0,1001.0 L 848.0,977.0 L 900.0,938.0 L 896.0,796.0"/>
    <path d="M 597.0,447.0 L 631.0,478.0 L 624.0,625.0 L 618.0,645.0 L 608.0,652.0"/>
    <path d="M 654.0,551.0 L 691.0,536.0 L 777.0,523.0"/>
    <path d="M 525.0,683.0 L 583.0,682.0 L 653.0,659.0 L 692.0,660.0 L 711.0,669.0 L 688.0,745.0 L 666.0,792.0 L 636.0,832.0 L 595.0,869.0 L 559.0,888.0 L 520.0,902.0 L 482.0,907.0"/>
    <path d="M 548.0,741.0 L 737.0,864.0 L 770.0,896.0 L 784.0,927.0"/>
  </g>
</svg>
