<svg xmlns="http://www.w3.org/2000/svg" viewBox="0 0 1024 1024">
  <g style="fill:none;stroke:#000000;stroke-width:50;stroke-linecap:round;stroke-linejoin:round;" transform="scale(1, 1) translate(0, 0)">
    <path d="M 450.0,169.0 L 525.0,219.0 L 542.0,254.0"/>
    <path d="M 228.0,309.0 L 238.0,338.0 L 235.0,356.0 L 217.0,390.0 L 192.0,419.0 L 183.0,474.0"/>
    <path d="M 267.0,345.0 L 276.0,354.0 L 302.0,355.0 L 518.0,314.0 L 718.0,293.0 L 746.0,307.0 L 764.0,331.0 L 702.0,408.0"/>
    <path d="M 216.0,494.0 L 233.0,516.0 L 239.0,535.0 L 231.0,633.0 L 260.0,636.0 L 344.0,610.0 L 352.0,600.0"/>
    <path d="M 343.0,411.0 L 386.0,456.0 L 365.0,1023.0"/>
    <path d="M 117.0,766.0 L 151.0,772.0 L 192.0,766.0 L 333.0,731.0 L 349.0,720.0"/>
    <path d="M 218.0,786.0 L 233.0,794.0 L 245.0,813.0 L 232.0,853.0 L 187.0,941.0 L 153.0,986.0 L 123.0,1014.0"/>
    <path d="M 492.0,535.0 L 547.0,537.0 L 683.0,502.0 L 728.0,501.0"/>
    <path d="M 430.0,688.0 L 453.0,693.0 L 506.0,687.0 L 755.0,637.0 L 798.0,635.0 L 841.0,646.0"/>
    <path d="M 573.0,380.0 L 619.0,426.0 L 614.0,853.0 L 603.0,985.0 L 605.0,1066.0"/>
    <path d="M 627.0,686.0 L 593.0,709.0 L 571.0,753.0 L 500.0,856.0 L 414.0,947.0"/>
    <path d="M 642.0,693.0 L 648.0,718.0 L 676.0,753.0 L 768.0,859.0 L 817.0,904.0 L 852.0,919.0 L 966.0,944.0"/>
  </g>
</svg>
