<svg xmlns="http://www.w3.org/2000/svg" viewBox="0 0 1024 1024">
  <g style="fill:none;stroke:#000000;stroke-width:50;stroke-linecap:round;stroke-linejoin:round;" transform="scale(1, 1) translate(0, 0)">
    <path d="M 449.0,167.0 L 527.0,204.0 L 558.0,240.0"/>
    <path d="M 250.0,303.0 L 257.0,318.0 L 255.0,348.0 L 204.0,438.0 L 198.0,486.0"/>
    <path d="M 289.0,337.0 L 297.0,346.0 L 329.0,346.0 L 482.0,315.0 L 620.0,295.0 L 758.0,280.0 L 789.0,288.0 L 804.0,299.0 L 815.0,320.0 L 742.0,391.0"/>
    <path d="M 319.0,448.0 L 339.0,463.0 L 363.0,495.0 L 382.0,612.0 L 402.0,682.0"/>
    <path d="M 354.0,444.0 L 387.0,453.0 L 583.0,417.0 L 656.0,414.0 L 687.0,449.0 L 653.0,582.0 L 633.0,633.0 L 597.0,622.0"/>
    <path d="M 429.0,552.0 L 478.0,549.0 L 560.0,530.0 L 600.0,534.0"/>
    <path d="M 419.0,669.0 L 439.0,657.0 L 563.0,635.0 L 585.0,637.0 L 595.0,646.0"/>
    <path d="M 222.0,744.0 L 247.0,770.0 L 259.0,799.0 L 260.0,968.0 L 270.0,1013.0"/>
    <path d="M 269.0,758.0 L 296.0,770.0 L 429.0,741.0 L 583.0,719.0 L 743.0,706.0 L 776.0,710.0 L 788.0,717.0 L 809.0,747.0 L 799.0,800.0 L 795.0,906.0 L 786.0,969.0 L 771.0,998.0 L 739.0,990.0 L 673.0,959.0"/>
    <path d="M 478.0,454.0 L 509.0,474.0 L 512.0,505.0 L 510.0,832.0 L 494.0,853.0"/>
    <path d="M 344.0,889.0 L 389.0,908.0 L 599.0,852.0 L 623.0,854.0"/>
    <path d="M 606.0,791.0 L 665.0,858.0 L 673.0,889.0"/>
  </g>
</svg>
