<svg xmlns="http://www.w3.org/2000/svg" viewBox="0 0 1024 1024">
  <g style="fill:none;stroke:#000000;stroke-width:50;stroke-linecap:round;stroke-linejoin:round;" transform="scale(1, 1) translate(0, 0)">
    <path d="M 437.0,167.0 L 512.0,203.0 L 542.0,240.0"/>
    <path d="M 250.0,289.0 L 260.0,315.0 L 255.0,337.0 L 208.0,406.0 L 198.0,458.0"/>
    <path d="M 283.0,342.0 L 541.0,292.0 L 748.0,270.0 L 783.0,289.0 L 791.0,308.0 L 734.0,373.0"/>
    <path d="M 297.0,407.0 L 321.0,427.0 L 337.0,455.0 L 328.0,839.0 L 313.0,966.0 L 314.0,1044.0"/>
    <path d="M 176.0,534.0 L 238.0,574.0 L 262.0,611.0"/>
    <path d="M 116.0,866.0 L 167.0,857.0 L 276.0,740.0 L 292.0,730.0 L 303.0,708.0"/>
    <path d="M 485.0,423.0 L 547.0,421.0 L 661.0,395.0 L 680.0,402.0 L 701.0,423.0 L 669.0,519.0 L 650.0,531.0"/>
    <path d="M 480.0,508.0 L 601.0,484.0 L 634.0,487.0"/>
    <path d="M 475.0,588.0 L 492.0,592.0 L 645.0,559.0 L 676.0,557.0 L 699.0,564.0"/>
    <path d="M 418.0,638.0 L 426.0,662.0 L 424.0,682.0 L 401.0,737.0 L 394.0,775.0"/>
    <path d="M 453.0,683.0 L 576.0,650.0 L 759.0,626.0 L 783.0,637.0 L 799.0,657.0 L 746.0,725.0"/>
    <path d="M 477.0,764.0 L 524.0,765.0 L 641.0,738.0 L 660.0,747.0 L 672.0,765.0 L 642.0,856.0 L 615.0,902.0 L 580.0,941.0 L 550.0,963.0 L 483.0,990.0 L 389.0,1007.0"/>
    <path d="M 471.0,816.0 L 505.0,829.0 L 620.0,943.0 L 733.0,1025.0 L 756.0,1033.0 L 877.0,1038.0"/>
  </g>
</svg>
