<svg xmlns="http://www.w3.org/2000/svg" viewBox="0 0 1024 1024">
  <g style="fill:none;stroke:#000000;stroke-width:50;stroke-linecap:round;stroke-linejoin:round;" transform="scale(1, 1) translate(0, 0)">
    <path d="M 433.0,187.0 L 513.0,228.0 L 532.0,254.0"/>
    <path d="M 224.0,302.0 L 233.0,330.0 L 230.0,352.0 L 188.0,422.0 L 183.0,474.0"/>
    <path d="M 263.0,334.0 L 274.0,343.0 L 288.0,344.0 L 482.0,307.0 L 696.0,282.0 L 728.0,293.0 L 746.0,320.0 L 678.0,401.0"/>
    <path d="M 341.0,402.0 L 361.0,408.0 L 400.0,407.0 L 467.0,399.0 L 570.0,369.0 L 620.0,371.0"/>
    <path d="M 456.0,430.0 L 428.0,443.0 L 407.0,479.0 L 393.0,483.0"/>
    <path d="M 328.0,494.0 L 351.0,520.0 L 357.0,541.0 L 369.0,691.0 L 357.0,708.0"/>
    <path d="M 374.0,504.0 L 396.0,507.0 L 546.0,471.0 L 565.0,473.0 L 586.0,490.0 L 596.0,503.0 L 572.0,664.0 L 548.0,680.0"/>
    <path d="M 387.0,590.0 L 399.0,579.0 L 455.0,567.0 L 494.0,562.0 L 513.0,567.0"/>
    <path d="M 389.0,662.0 L 401.0,651.0 L 441.0,642.0 L 498.0,634.0 L 517.0,639.0"/>
    <path d="M 178.0,748.0 L 233.0,755.0 L 443.0,722.0 L 726.0,692.0 L 759.0,693.0 L 816.0,709.0"/>
    <path d="M 344.0,761.0 L 361.0,780.0 L 359.0,792.0 L 312.0,856.0 L 221.0,936.0 L 166.0,972.0 L 135.0,987.0 L 125.0,985.0 L 119.0,993.0"/>
    <path d="M 557.0,730.0 L 580.0,743.0 L 629.0,798.0 L 704.0,865.0 L 760.0,905.0 L 832.0,923.0 L 939.0,938.0"/>
    <path d="M 352.0,851.0 L 401.0,858.0 L 563.0,826.0 L 592.0,848.0 L 580.0,912.0 L 558.0,982.0 L 528.0,1025.0 L 511.0,1036.0 L 439.0,990.0"/>
    <path d="M 416.0,881.0 L 433.0,896.0 L 435.0,909.0 L 415.0,944.0 L 357.0,1015.0 L 318.0,1049.0 L 291.0,1063.0"/>
  </g>
</svg>
