<svg xmlns="http://www.w3.org/2000/svg" viewBox="0 0 1024 1024">
  <g style="fill:none;stroke:#000000;stroke-width:50;stroke-linecap:round;stroke-linejoin:round;" transform="scale(1, 1) translate(0, 0)">
    <path d="M 406.0,307.0 L 425.0,290.0 L 607.0,246.0 L 628.0,248.0 L 663.0,280.0 L 637.0,342.0 L 609.0,359.0"/>
    <path d="M 387.0,429.0 L 401.0,421.0 L 605.0,385.0 L 663.0,388.0"/>
    <path d="M 337.0,261.0 L 371.0,308.0 L 359.0,436.0 L 369.0,517.0 L 379.0,534.0 L 417.0,559.0 L 507.0,570.0 L 577.0,567.0 L 666.0,553.0 L 712.0,537.0 L 735.0,517.0 L 728.0,406.0"/>
    <path d="M 138.0,753.0 L 202.0,771.0 L 441.0,733.0 L 808.0,694.0 L 859.0,698.0 L 916.0,720.0"/>
    <path d="M 599.0,608.0 L 626.0,630.0 L 647.0,658.0 L 645.0,934.0 L 639.0,974.0 L 628.0,1000.0 L 617.0,1008.0 L 583.0,998.0 L 495.0,955.0"/>
    <path d="M 352.0,793.0 L 417.0,845.0 L 439.0,887.0"/>
  </g>
</svg>
