<svg xmlns="http://www.w3.org/2000/svg" viewBox="0 0 1024 1024">
  <g style="fill:none;stroke:#000000;stroke-width:50;stroke-linecap:round;stroke-linejoin:round;" transform="scale(1, 1) translate(0, 0)">
    <path d="M 378.0,296.0 L 440.0,299.0 L 637.0,256.0 L 676.0,269.0 L 697.0,290.0 L 695.0,301.0 L 646.0,460.0 L 626.0,472.0"/>
    <path d="M 344.0,419.0 L 358.0,424.0 L 380.0,421.0 L 561.0,384.0 L 602.0,393.0"/>
    <path d="M 350.0,542.0 L 380.0,547.0 L 616.0,503.0 L 679.0,512.0"/>
    <path d="M 128.0,726.0 L 182.0,737.0 L 460.0,699.0 L 830.0,668.0 L 898.0,674.0 L 946.0,691.0"/>
    <path d="M 611.0,556.0 L 638.0,579.0 L 660.0,610.0 L 659.0,925.0 L 649.0,1001.0 L 637.0,1022.0 L 613.0,1018.0 L 479.0,958.0"/>
    <path d="M 333.0,775.0 L 409.0,828.0 L 434.0,865.0"/>
  </g>
</svg>
