<svg xmlns="http://www.w3.org/2000/svg" viewBox="0 0 1024 1024">
  <g style="fill:none;stroke:#000000;stroke-width:50;stroke-linecap:round;stroke-linejoin:round;" transform="scale(1, 1) translate(0, 0)">
    <path d="M 165.0,389.0 L 246.0,461.0 L 263.0,500.0"/>
    <path d="M 77.0,782.0 L 89.0,786.0 L 137.0,780.0 L 288.0,657.0 L 301.0,653.0 L 322.0,626.0"/>
    <path d="M 313.0,228.0 L 364.0,282.0 L 355.0,705.0 L 338.0,927.0 L 339.0,1013.0"/>
    <path d="M 606.0,200.0 L 627.0,235.0 L 618.0,258.0 L 541.0,357.0 L 445.0,440.0"/>
    <path d="M 591.0,338.0 L 649.0,333.0 L 717.0,318.0 L 749.0,320.0 L 767.0,331.0 L 722.0,409.0 L 638.0,503.0 L 531.0,592.0 L 461.0,629.0"/>
    <path d="M 496.0,432.0 L 508.0,432.0 L 549.0,473.0 L 560.0,493.0"/>
    <path d="M 432.0,684.0 L 484.0,689.0 L 638.0,658.0 L 811.0,632.0 L 865.0,630.0 L 920.0,642.0"/>
    <path d="M 680.0,534.0 L 714.0,563.0 L 729.0,587.0 L 726.0,963.0 L 708.0,1003.0 L 672.0,994.0 L 599.0,959.0"/>
    <path d="M 485.0,761.0 L 554.0,818.0 L 575.0,859.0"/>
  </g>
</svg>
