<svg xmlns="http://www.w3.org/2000/svg" viewBox="0 0 1024 1024">
  <g style="fill:none;stroke:#000000;stroke-width:50;stroke-linecap:round;stroke-linejoin:round;" transform="scale(1, 1) translate(0, 0)">
    <path d="M 317.0,295.0 L 337.0,305.0 L 474.0,269.0 L 502.0,276.0 L 524.0,300.0 L 498.0,360.0 L 471.0,378.0"/>
    <path d="M 302.0,450.0 L 325.0,434.0 L 461.0,404.0 L 526.0,407.0"/>
    <path d="M 254.0,277.0 L 284.0,311.0 L 287.0,338.0 L 264.0,491.0 L 222.0,656.0 L 155.0,800.0 L 97.0,884.0 L 45.0,939.0"/>
    <path d="M 319.0,549.0 L 363.0,552.0 L 459.0,528.0 L 492.0,528.0"/>
    <path d="M 242.0,681.0 L 259.0,673.0 L 455.0,637.0 L 508.0,632.0 L 539.0,636.0"/>
    <path d="M 382.0,676.0 L 407.0,696.0 L 411.0,719.0 L 412.0,853.0 L 405.0,901.0 L 388.0,925.0 L 304.0,891.0"/>
    <path d="M 280.0,757.0 L 261.0,808.0 L 218.0,881.0"/>
    <path d="M 484.0,752.0 L 533.0,794.0 L 546.0,814.0"/>
    <path d="M 556.0,540.0 L 612.0,542.0 L 694.0,520.0 L 861.0,490.0 L 909.0,488.0 L 966.0,498.0"/>
    <path d="M 753.0,211.0 L 769.0,219.0 L 802.0,252.0 L 795.0,474.0 L 804.0,916.0 L 798.0,949.0 L 782.0,983.0 L 654.0,934.0"/>
    <path d="M 580.0,646.0 L 644.0,690.0 L 670.0,731.0"/>
  </g>
</svg>
