<svg xmlns="http://www.w3.org/2000/svg" viewBox="0 0 1024 1024">
  <g style="fill:none;stroke:#000000;stroke-width:50;stroke-linecap:round;stroke-linejoin:round;" transform="scale(1, 1) translate(0, 0)">
    <path d="M 357.0,280.0 L 398.0,287.0 L 429.0,285.0 L 607.0,250.0 L 662.0,248.0"/>
    <path d="M 271.0,396.0 L 298.0,415.0 L 309.0,434.0 L 359.0,601.0"/>
    <path d="M 321.0,394.0 L 344.0,405.0 L 573.0,364.0 L 669.0,356.0 L 696.0,360.0 L 708.0,368.0 L 729.0,401.0 L 663.0,560.0"/>
    <path d="M 420.0,477.0 L 568.0,454.0 L 599.0,461.0"/>
    <path d="M 373.0,587.0 L 395.0,576.0 L 464.0,571.0 L 562.0,551.0 L 618.0,545.0 L 640.0,557.0"/>
    <path d="M 461.0,173.0 L 483.0,187.0 L 506.0,213.0 L 498.0,624.0 L 497.0,642.0 L 482.0,658.0"/>
    <path d="M 291.0,693.0 L 334.0,712.0 L 630.0,650.0 L 641.0,656.0"/>
    <path d="M 624.0,605.0 L 677.0,650.0 L 690.0,670.0"/>
    <path d="M 112.0,819.0 L 164.0,828.0 L 412.0,789.0 L 837.0,748.0 L 886.0,755.0 L 923.0,768.0"/>
    <path d="M 564.0,685.0 L 580.0,695.0 L 592.0,713.0 L 598.0,739.0 L 601.0,947.0 L 595.0,1018.0 L 580.0,1048.0 L 484.0,1020.0"/>
    <path d="M 352.0,847.0 L 427.0,908.0 L 440.0,937.0"/>
  </g>
</svg>
