<svg xmlns="http://www.w3.org/2000/svg" viewBox="0 0 1024 1024">
  <g style="fill:none;stroke:#000000;stroke-width:50;stroke-linecap:round;stroke-linejoin:round;" transform="scale(1, 1) translate(0, 0)">
    <path d="M 456.0,201.0 L 505.0,242.0 L 499.0,499.0 L 497.0,517.0 L 480.0,536.0"/>
    <path d="M 257.0,354.0 L 326.0,417.0 L 353.0,457.0"/>
    <path d="M 705.0,267.0 L 724.0,290.0 L 731.0,310.0 L 683.0,357.0 L 579.0,442.0"/>
    <path d="M 172.0,576.0 L 206.0,603.0 L 214.0,641.0 L 215.0,785.0 L 199.0,907.0 L 201.0,962.0"/>
    <path d="M 243.0,623.0 L 263.0,601.0 L 440.0,567.0 L 760.0,529.0 L 791.0,529.0 L 815.0,543.0 L 832.0,561.0 L 826.0,734.0 L 815.0,860.0 L 798.0,938.0 L 769.0,982.0 L 723.0,969.0 L 644.0,933.0"/>
    <path d="M 350.0,697.0 L 375.0,720.0 L 385.0,741.0 L 412.0,889.0"/>
    <path d="M 399.0,698.0 L 420.0,708.0 L 565.0,680.0 L 586.0,684.0 L 617.0,712.0 L 594.0,783.0 L 577.0,790.0"/>
    <path d="M 431.0,856.0 L 446.0,842.0 L 566.0,824.0 L 609.0,826.0 L 626.0,833.0"/>
  </g>
</svg>
