<svg xmlns="http://www.w3.org/2000/svg" viewBox="0 0 1024 1024">
  <g style="fill:none;stroke:#000000;stroke-width:50;stroke-linecap:round;stroke-linejoin:round;" transform="scale(1, 1) translate(0, 0)">
    <path d="M 439.0,193.0 L 477.0,218.0 L 494.0,240.0 L 489.0,501.0 L 487.0,518.0 L 470.0,538.0"/>
    <path d="M 325.0,314.0 L 333.0,326.0 L 338.0,360.0 L 251.0,441.0 L 190.0,473.0"/>
    <path d="M 623.0,306.0 L 725.0,358.0 L 754.0,387.0 L 771.0,419.0"/>
    <path d="M 164.0,579.0 L 195.0,601.0 L 209.0,657.0 L 211.0,767.0 L 199.0,906.0 L 201.0,962.0"/>
    <path d="M 234.0,592.0 L 257.0,604.0 L 358.0,581.0 L 577.0,550.0 L 786.0,529.0 L 815.0,536.0 L 844.0,564.0 L 847.0,577.0 L 830.0,795.0 L 808.0,924.0 L 795.0,952.0 L 773.0,977.0 L 705.0,945.0 L 662.0,912.0"/>
    <path d="M 337.0,695.0 L 363.0,717.0 L 372.0,733.0 L 398.0,883.0"/>
    <path d="M 396.0,701.0 L 413.0,710.0 L 532.0,682.0 L 571.0,680.0 L 585.0,686.0 L 608.0,715.0 L 584.0,780.0 L 558.0,790.0"/>
    <path d="M 417.0,855.0 L 429.0,843.0 L 546.0,824.0 L 606.0,831.0"/>
  </g>
</svg>
