<svg xmlns="http://www.w3.org/2000/svg" viewBox="0 0 1024 1024">
  <g style="fill:none;stroke:#000000;stroke-width:50;stroke-linecap:round;stroke-linejoin:round;" transform="scale(1, 1) translate(0, 0)">
    <path d="M 160.0,488.0 L 221.0,493.0 L 359.0,460.0 L 418.0,439.0 L 481.0,434.0"/>
    <path d="M 301.0,229.0 L 335.0,250.0 L 354.0,280.0 L 325.0,493.0 L 291.0,654.0 L 250.0,772.0 L 200.0,868.0 L 168.0,914.0 L 125.0,960.0 L 72.0,998.0"/>
    <path d="M 375.0,553.0 L 403.0,589.0 L 385.0,798.0 L 392.0,884.0 L 416.0,934.0 L 471.0,973.0 L 545.0,998.0 L 658.0,1008.0 L 763.0,999.0 L 842.0,977.0 L 890.0,949.0 L 905.0,933.0 L 908.0,800.0"/>
    <path d="M 595.0,269.0 L 626.0,298.0 L 629.0,309.0 L 619.0,346.0 L 557.0,486.0 L 493.0,579.0"/>
    <path d="M 587.0,481.0 L 598.0,473.0 L 776.0,441.0 L 807.0,452.0 L 823.0,473.0 L 798.0,719.0 L 784.0,773.0 L 761.0,824.0 L 724.0,855.0 L 648.0,806.0 L 645.0,797.0 L 633.0,797.0"/>
    <path d="M 547.0,591.0 L 610.0,646.0 L 630.0,689.0"/>
  </g>
</svg>
