<svg xmlns="http://www.w3.org/2000/svg" viewBox="0 0 1024 1024">
  <g style="fill:none;stroke:#000000;stroke-width:50;stroke-linecap:round;stroke-linejoin:round;" transform="scale(1, 1) translate(0, 0)">
    <path d="M 231.0,483.0 L 275.0,492.0 L 336.0,489.0 L 506.0,461.0 L 654.0,425.0 L 709.0,426.0"/>
    <path d="M 431.0,209.0 L 472.0,256.0 L 467.0,321.0 L 440.0,505.0 L 392.0,678.0 L 349.0,763.0 L 285.0,848.0 L 194.0,930.0 L 122.0,971.0"/>
    <path d="M 512.0,548.0 L 539.0,578.0 L 553.0,605.0 L 537.0,701.0 L 532.0,843.0 L 542.0,914.0 L 552.0,934.0 L 573.0,952.0 L 640.0,972.0 L 751.0,975.0 L 839.0,963.0 L 897.0,943.0 L 912.0,932.0 L 912.0,903.0 L 897.0,765.0"/>
    <path d="M 677.0,265.0 L 754.0,311.0 L 767.0,322.0 L 786.0,355.0"/>
  </g>
</svg>
