<svg xmlns="http://www.w3.org/2000/svg" viewBox="0 0 1024 1024">
  <g style="fill:none;stroke:#000000;stroke-width:50;stroke-linecap:round;stroke-linejoin:round;" transform="scale(1, 1) translate(0, 0)">
    <path d="M 135.0,450.0 L 173.0,453.0 L 214.0,446.0 L 365.0,394.0 L 408.0,384.0 L 432.0,387.0"/>
    <path d="M 260.0,208.0 L 284.0,227.0 L 300.0,253.0 L 280.0,462.0 L 249.0,604.0 L 223.0,690.0 L 183.0,782.0 L 124.0,881.0 L 65.0,954.0"/>
    <path d="M 325.0,511.0 L 352.0,545.0 L 337.0,773.0 L 347.0,872.0 L 359.0,905.0 L 382.0,932.0 L 438.0,963.0 L 531.0,985.0 L 632.0,989.0 L 710.0,982.0 L 807.0,960.0 L 868.0,932.0 L 905.0,901.0 L 916.0,764.0"/>
    <path d="M 587.0,198.0 L 610.0,216.0 L 624.0,241.0 L 586.0,337.0 L 514.0,473.0 L 461.0,553.0 L 413.0,606.0"/>
    <path d="M 623.0,334.0 L 633.0,358.0 L 727.0,461.0 L 823.0,545.0 L 956.0,565.0"/>
    <path d="M 517.0,566.0 L 550.0,595.0 L 554.0,609.0 L 549.0,673.0 L 533.0,749.0 L 508.0,804.0 L 476.0,839.0 L 438.0,861.0"/>
    <path d="M 664.0,538.0 L 698.0,568.0 L 700.0,577.0 L 695.0,915.0"/>
  </g>
</svg>
