<svg xmlns="http://www.w3.org/2000/svg" viewBox="0 0 1024 1024">
  <g style="fill:none;stroke:#000000;stroke-width:50;stroke-linecap:round;stroke-linejoin:round;" transform="scale(1, 1) translate(0, 0)">
    <path d="M 132.0,524.0 L 155.0,529.0 L 205.0,525.0 L 334.0,493.0 L 458.0,453.0 L 489.0,455.0"/>
    <path d="M 293.0,239.0 L 315.0,258.0 L 330.0,282.0 L 329.0,307.0 L 298.0,538.0 L 260.0,677.0 L 204.0,815.0 L 133.0,928.0 L 69.0,1002.0"/>
    <path d="M 363.0,569.0 L 387.0,597.0 L 392.0,620.0 L 375.0,816.0 L 385.0,922.0 L 405.0,962.0 L 459.0,996.0 L 521.0,1014.0 L 632.0,1022.0 L 728.0,1015.0 L 822.0,986.0 L 878.0,945.0 L 876.0,805.0"/>
    <path d="M 420.0,313.0 L 490.0,348.0 L 523.0,386.0"/>
    <path d="M 695.0,300.0 L 716.0,333.0 L 686.0,394.0 L 647.0,450.0 L 600.0,503.0 L 562.0,537.0 L 515.0,567.0"/>
    <path d="M 752.0,455.0 L 772.0,492.0 L 707.0,588.0 L 630.0,666.0 L 588.0,697.0 L 524.0,732.0"/>
    <path d="M 803.0,603.0 L 830.0,645.0 L 800.0,698.0 L 751.0,761.0 L 655.0,855.0 L 559.0,919.0 L 524.0,935.0"/>
  </g>
</svg>
