<svg xmlns="http://www.w3.org/2000/svg" viewBox="0 0 1024 1024">
  <g style="fill:none;stroke:#000000;stroke-width:50;stroke-linecap:round;stroke-linejoin:round;" transform="scale(1, 1) translate(0, 0)">
    <path d="M 111.0,446.0 L 183.0,444.0 L 361.0,388.0 L 417.0,381.0"/>
    <path d="M 240.0,204.0 L 273.0,235.0 L 280.0,249.0 L 280.0,275.0 L 262.0,473.0 L 238.0,598.0 L 198.0,729.0 L 146.0,843.0 L 110.0,901.0 L 49.0,977.0"/>
    <path d="M 328.0,493.0 L 355.0,529.0 L 335.0,741.0 L 338.0,869.0 L 360.0,936.0 L 376.0,954.0 L 411.0,976.0 L 494.0,1002.0 L 585.0,1011.0 L 716.0,1005.0 L 830.0,978.0 L 882.0,955.0 L 923.0,923.0 L 944.0,789.0"/>
    <path d="M 491.0,282.0 L 503.0,287.0 L 533.0,284.0 L 636.0,254.0 L 664.0,253.0"/>
    <path d="M 600.0,297.0 L 584.0,307.0 L 582.0,347.0 L 566.0,369.0"/>
    <path d="M 492.0,410.0 L 596.0,379.0 L 625.0,378.0 L 643.0,400.0 L 626.0,443.0 L 608.0,454.0"/>
    <path d="M 492.0,502.0 L 513.0,492.0 L 549.0,490.0 L 575.0,480.0 L 616.0,475.0 L 645.0,479.0"/>
    <path d="M 568.0,498.0 L 583.0,519.0 L 579.0,554.0 L 570.0,565.0"/>
    <path d="M 450.0,269.0 L 472.0,291.0 L 477.0,334.0 L 471.0,607.0 L 483.0,609.0 L 636.0,572.0 L 670.0,577.0"/>
    <path d="M 733.0,217.0 L 762.0,237.0 L 762.0,270.0 L 723.0,403.0 L 692.0,455.0"/>
    <path d="M 746.0,394.0 L 758.0,386.0 L 803.0,382.0 L 847.0,366.0 L 906.0,359.0"/>
    <path d="M 744.0,481.0 L 795.0,513.0 L 819.0,535.0 L 830.0,557.0"/>
    <path d="M 469.0,676.0 L 495.0,701.0 L 526.0,809.0 L 538.0,819.0"/>
    <path d="M 517.0,678.0 L 531.0,688.0 L 542.0,687.0 L 730.0,650.0 L 770.0,649.0 L 786.0,659.0 L 797.0,683.0 L 772.0,771.0 L 750.0,787.0"/>
    <path d="M 594.0,699.0 L 600.0,750.0 L 614.0,804.0 L 622.0,812.0"/>
    <path d="M 674.0,675.0 L 695.0,697.0 L 688.0,764.0 L 681.0,778.0 L 684.0,791.0 L 669.0,800.0"/>
    <path d="M 401.0,839.0 L 438.0,850.0 L 618.0,835.0 L 834.0,807.0 L 885.0,817.0"/>
  </g>
</svg>
