<svg xmlns="http://www.w3.org/2000/svg" viewBox="0 0 1024 1024">
  <g style="fill:none;stroke:#000000;stroke-width:50;stroke-linecap:round;stroke-linejoin:round;" transform="scale(1, 1) translate(0, 0)">
    <path d="M 377.0,285.0 L 389.0,272.0 L 538.0,248.0 L 648.0,223.0 L 668.0,231.0 L 694.0,261.0 L 664.0,332.0 L 634.0,349.0"/>
    <path d="M 354.0,426.0 L 624.0,378.0 L 671.0,379.0 L 693.0,387.0"/>
    <path d="M 303.0,237.0 L 336.0,277.0 L 336.0,309.0 L 311.0,463.0 L 265.0,633.0 L 220.0,737.0 L 162.0,836.0 L 111.0,901.0 L 66.0,946.0"/>
    <path d="M 512.0,462.0 L 553.0,493.0 L 558.0,506.0 L 551.0,667.0 L 559.0,920.0 L 555.0,950.0 L 539.0,983.0 L 452.0,956.0 L 415.0,942.0 L 412.0,935.0 L 402.0,936.0"/>
    <path d="M 297.0,645.0 L 307.0,638.0 L 348.0,637.0 L 420.0,621.0 L 452.0,636.0 L 428.0,701.0 L 362.0,809.0 L 316.0,858.0 L 234.0,916.0"/>
    <path d="M 729.0,484.0 L 740.0,495.0 L 751.0,530.0 L 687.0,588.0 L 610.0,645.0 L 601.0,643.0"/>
    <path d="M 577.0,637.0 L 589.0,663.0 L 634.0,710.0 L 735.0,804.0 L 792.0,848.0 L 845.0,866.0 L 988.0,891.0"/>
  </g>
</svg>
