<svg xmlns="http://www.w3.org/2000/svg" viewBox="0 0 1024 1024">
  <g style="fill:none;stroke:#000000;stroke-width:50;stroke-linecap:round;stroke-linejoin:round;" transform="scale(1, 1) translate(0, 0)">
    <path d="M 376.0,330.0 L 392.0,316.0 L 497.0,302.0 L 673.0,266.0 L 695.0,275.0 L 719.0,305.0 L 689.0,372.0 L 657.0,395.0"/>
    <path d="M 361.0,456.0 L 369.0,465.0 L 398.0,462.0 L 656.0,422.0 L 703.0,421.0 L 726.0,430.0"/>
    <path d="M 302.0,274.0 L 324.0,295.0 L 338.0,328.0 L 308.0,526.0 L 269.0,678.0 L 224.0,782.0 L 187.0,848.0 L 126.0,932.0 L 82.0,978.0"/>
    <path d="M 425.0,595.0 L 435.0,600.0 L 487.0,601.0 L 648.0,567.0 L 696.0,567.0"/>
    <path d="M 293.0,751.0 L 320.0,759.0 L 349.0,759.0 L 486.0,733.0 L 769.0,700.0 L 810.0,705.0 L 848.0,718.0"/>
    <path d="M 549.0,758.0 L 511.0,778.0 L 467.0,844.0 L 412.0,910.0 L 397.0,950.0 L 441.0,950.0 L 683.0,904.0 L 690.0,912.0"/>
    <path d="M 652.0,818.0 L 730.0,898.0 L 762.0,940.0 L 784.0,990.0 L 784.0,1016.0"/>
  </g>
</svg>
