<svg xmlns="http://www.w3.org/2000/svg" viewBox="0 0 1024 1024">
  <g style="fill:none;stroke:#000000;stroke-width:50;stroke-linecap:round;stroke-linejoin:round;" transform="scale(1, 1) translate(0, 0)">
    <path d="M 426.0,280.0 L 438.0,265.0 L 628.0,217.0 L 667.0,216.0 L 704.0,251.0 L 668.0,336.0 L 639.0,354.0"/>
    <path d="M 392.0,440.0 L 415.0,424.0 L 628.0,385.0 L 677.0,385.0 L 703.0,392.0"/>
    <path d="M 348.0,224.0 L 383.0,269.0 L 384.0,282.0 L 353.0,443.0 L 315.0,579.0 L 264.0,701.0 L 222.0,774.0 L 143.0,879.0 L 90.0,930.0"/>
    <path d="M 348.0,575.0 L 470.0,562.0 L 778.0,512.0 L 801.0,516.0 L 831.0,538.0 L 841.0,552.0 L 818.0,790.0 L 800.0,886.0 L 773.0,960.0 L 754.0,993.0 L 719.0,1020.0 L 697.0,1008.0 L 629.0,946.0"/>
    <path d="M 356.0,693.0 L 379.0,714.0 L 386.0,730.0 L 417.0,893.0"/>
    <path d="M 407.0,693.0 L 421.0,704.0 L 569.0,675.0 L 589.0,685.0 L 608.0,708.0 L 583.0,782.0 L 556.0,796.0"/>
    <path d="M 432.0,864.0 L 449.0,846.0 L 523.0,833.0 L 593.0,832.0 L 614.0,838.0"/>
  </g>
</svg>
