<svg xmlns="http://www.w3.org/2000/svg" viewBox="0 0 1024 1024">
  <g style="fill:none;stroke:#000000;stroke-width:50;stroke-linecap:round;stroke-linejoin:round;" transform="scale(1, 1) translate(0, 0)">
    <path d="M 378.0,340.0 L 388.0,326.0 L 399.0,322.0 L 602.0,275.0 L 642.0,276.0 L 676.0,310.0 L 645.0,396.0 L 628.0,412.0 L 613.0,416.0"/>
    <path d="M 354.0,512.0 L 378.0,494.0 L 588.0,454.0 L 667.0,446.0 L 690.0,454.0"/>
    <path d="M 289.0,292.0 L 318.0,317.0 L 334.0,344.0 L 321.0,508.0 L 288.0,663.0 L 244.0,763.0 L 191.0,838.0 L 123.0,900.0 L 70.0,929.0"/>
    <path d="M 446.0,507.0 L 477.0,517.0 L 640.0,698.0 L 703.0,756.0 L 770.0,804.0 L 841.0,821.0 L 988.0,840.0"/>
    <path d="M 415.0,660.0 L 504.0,727.0 L 528.0,759.0"/>
    <path d="M 389.0,847.0 L 507.0,928.0 L 539.0,961.0 L 561.0,1010.0"/>
  </g>
</svg>
