<svg xmlns="http://www.w3.org/2000/svg" viewBox="0 0 1024 1024">
  <g style="fill:none;stroke:#000000;stroke-width:50;stroke-linecap:round;stroke-linejoin:round;" transform="scale(1, 1) translate(0, 0)">
    <path d="M 388.0,264.0 L 399.0,274.0 L 416.0,275.0 L 636.0,229.0 L 675.0,231.0 L 711.0,270.0 L 682.0,335.0 L 642.0,366.0"/>
    <path d="M 368.0,453.0 L 392.0,436.0 L 631.0,395.0 L 684.0,395.0 L 707.0,401.0"/>
    <path d="M 317.0,246.0 L 340.0,266.0 L 355.0,306.0 L 331.0,460.0 L 294.0,622.0 L 249.0,745.0 L 201.0,838.0 L 137.0,932.0 L 66.0,1010.0"/>
    <path d="M 320.0,657.0 L 609.0,611.0 L 812.0,586.0 L 847.0,589.0 L 896.0,603.0"/>
    <path d="M 541.0,463.0 L 582.0,506.0 L 542.0,761.0 L 522.0,781.0"/>
    <path d="M 357.0,800.0 L 386.0,825.0 L 395.0,843.0 L 428.0,1040.0"/>
    <path d="M 414.0,803.0 L 436.0,815.0 L 556.0,798.0 L 672.0,772.0 L 693.0,771.0 L 715.0,779.0 L 745.0,807.0 L 710.0,919.0 L 683.0,939.0"/>
    <path d="M 451.0,985.0 L 462.0,996.0 L 475.0,996.0 L 709.0,968.0 L 753.0,979.0"/>
  </g>
</svg>
