<svg xmlns="http://www.w3.org/2000/svg" viewBox="0 0 1024 1024">
  <g style="fill:none;stroke:#000000;stroke-width:50;stroke-linecap:round;stroke-linejoin:round;" transform="scale(1, 1) translate(0, 0)">
    <path d="M 399.0,275.0 L 412.0,286.0 L 553.0,263.0 L 660.0,236.0 L 694.0,237.0 L 709.0,244.0 L 733.0,274.0 L 706.0,343.0 L 677.0,359.0"/>
    <path d="M 380.0,431.0 L 388.0,440.0 L 417.0,436.0 L 668.0,390.0 L 730.0,398.0"/>
    <path d="M 326.0,252.0 L 348.0,274.0 L 363.0,305.0 L 332.0,484.0 L 281.0,678.0 L 241.0,770.0 L 186.0,866.0 L 112.0,961.0 L 70.0,1002.0"/>
    <path d="M 388.0,566.0 L 414.0,600.0 L 408.0,707.0 L 451.0,706.0 L 568.0,675.0 L 718.0,652.0 L 727.0,643.0"/>
    <path d="M 763.0,490.0 L 790.0,534.0 L 752.0,706.0"/>
    <path d="M 551.0,479.0 L 564.0,485.0 L 591.0,520.0 L 582.0,891.0 L 565.0,915.0"/>
    <path d="M 366.0,798.0 L 392.0,844.0 L 370.0,972.0 L 408.0,974.0 L 523.0,946.0 L 682.0,920.0 L 763.0,915.0 L 778.0,929.0"/>
    <path d="M 763.0,781.0 L 800.0,815.0 L 809.0,1019.0"/>
  </g>
</svg>
