<svg xmlns="http://www.w3.org/2000/svg" viewBox="0 0 1024 1024">
  <g style="fill:none;stroke:#000000;stroke-width:50;stroke-linecap:round;stroke-linejoin:round;" transform="scale(1, 1) translate(0, 0)">
    <path d="M 359.0,252.0 L 382.0,264.0 L 400.0,262.0 L 518.0,243.0 L 626.0,216.0 L 659.0,216.0 L 674.0,224.0 L 698.0,254.0 L 672.0,314.0 L 638.0,335.0"/>
    <path d="M 352.0,401.0 L 358.0,409.0 L 376.0,407.0 L 638.0,366.0 L 689.0,364.0 L 709.0,373.0"/>
    <path d="M 295.0,237.0 L 323.0,268.0 L 330.0,294.0 L 293.0,501.0 L 254.0,637.0 L 206.0,746.0 L 145.0,846.0 L 92.0,912.0 L 45.0,958.0"/>
    <path d="M 405.0,487.0 L 422.0,514.0 L 394.0,561.0 L 337.0,619.0 L 303.0,640.0"/>
    <path d="M 413.0,618.0 L 428.0,639.0 L 432.0,661.0 L 389.0,720.0 L 323.0,792.0 L 260.0,848.0 L 203.0,886.0"/>
    <path d="M 368.0,780.0 L 373.0,816.0 L 367.0,968.0 L 372.0,1026.0"/>
    <path d="M 509.0,553.0 L 567.0,559.0 L 668.0,543.0 L 765.0,516.0 L 807.0,519.0"/>
    <path d="M 602.0,425.0 L 638.0,459.0 L 631.0,642.0 L 626.0,659.0 L 615.0,668.0"/>
    <path d="M 512.0,697.0 L 568.0,701.0 L 683.0,674.0 L 710.0,677.0 L 732.0,688.0 L 695.0,799.0 L 647.0,881.0 L 603.0,921.0 L 542.0,955.0 L 459.0,975.0"/>
    <path d="M 519.0,759.0 L 568.0,781.0 L 685.0,895.0 L 797.0,972.0 L 907.0,988.0 L 972.0,991.0"/>
  </g>
</svg>
