<svg xmlns="http://www.w3.org/2000/svg" viewBox="0 0 1024 1024">
  <g style="fill:none;stroke:#000000;stroke-width:50;stroke-linecap:round;stroke-linejoin:round;" transform="scale(1, 1) translate(0, 0)">
    <path d="M 377.0,264.0 L 392.0,276.0 L 630.0,232.0 L 661.0,232.0 L 675.0,239.0 L 699.0,267.0 L 671.0,332.0 L 642.0,349.0"/>
    <path d="M 359.0,423.0 L 393.0,413.0 L 639.0,376.0 L 678.0,377.0 L 702.0,385.0"/>
    <path d="M 307.0,245.0 L 340.0,283.0 L 343.0,297.0 L 314.0,466.0 L 272.0,623.0 L 221.0,741.0 L 177.0,816.0 L 125.0,883.0 L 78.0,930.0"/>
    <path d="M 380.0,534.0 L 430.0,576.0 L 444.0,600.0"/>
    <path d="M 703.0,468.0 L 720.0,500.0 L 625.0,587.0"/>
    <path d="M 305.0,704.0 L 358.0,710.0 L 504.0,681.0 L 765.0,644.0 L 836.0,659.0"/>
    <path d="M 507.0,451.0 L 542.0,486.0 L 550.0,505.0 L 533.0,1039.0"/>
    <path d="M 515.0,703.0 L 475.0,770.0 L 403.0,851.0 L 335.0,910.0 L 258.0,957.0"/>
    <path d="M 570.0,699.0 L 577.0,715.0 L 629.0,774.0 L 765.0,904.0 L 782.0,913.0 L 837.0,924.0 L 925.0,936.0"/>
  </g>
</svg>
