<svg xmlns="http://www.w3.org/2000/svg" viewBox="0 0 1024 1024">
  <g style="fill:none;stroke:#000000;stroke-width:50;stroke-linecap:round;stroke-linejoin:round;" transform="scale(1, 1) translate(0, 0)">
    <path d="M 375.0,253.0 L 384.0,262.0 L 404.0,264.0 L 555.0,241.0 L 643.0,220.0 L 681.0,226.0 L 709.0,254.0 L 680.0,327.0 L 653.0,347.0"/>
    <path d="M 360.0,408.0 L 371.0,416.0 L 392.0,415.0 L 652.0,373.0 L 692.0,372.0 L 718.0,381.0"/>
    <path d="M 308.0,237.0 L 340.0,273.0 L 343.0,291.0 L 320.0,457.0 L 281.0,620.0 L 237.0,734.0 L 197.0,811.0 L 134.0,903.0 L 77.0,963.0"/>
    <path d="M 430.0,474.0 L 479.0,523.0 L 491.0,546.0"/>
    <path d="M 664.0,424.0 L 685.0,453.0 L 618.0,548.0 L 599.0,560.0"/>
    <path d="M 372.0,610.0 L 428.0,618.0 L 718.0,569.0 L 782.0,575.0"/>
    <path d="M 282.0,787.0 L 331.0,797.0 L 525.0,766.0 L 795.0,740.0 L 859.0,745.0 L 898.0,758.0"/>
    <path d="M 432.0,644.0 L 470.0,674.0 L 461.0,796.0 L 447.0,861.0 L 427.0,914.0 L 383.0,977.0 L 358.0,999.0 L 313.0,1025.0"/>
    <path d="M 629.0,610.0 L 652.0,627.0 L 658.0,651.0 L 659.0,883.0 L 653.0,982.0 L 666.0,1062.0"/>
  </g>
</svg>
