<svg xmlns="http://www.w3.org/2000/svg" viewBox="0 0 1024 1024">
  <g style="fill:none;stroke:#000000;stroke-width:50;stroke-linecap:round;stroke-linejoin:round;" transform="scale(1, 1) translate(0, 0)">
    <path d="M 363.0,288.0 L 375.0,300.0 L 494.0,279.0 L 628.0,245.0 L 661.0,247.0 L 681.0,257.0 L 696.0,280.0 L 668.0,357.0 L 642.0,368.0"/>
    <path d="M 342.0,442.0 L 361.0,452.0 L 639.0,403.0 L 676.0,402.0 L 702.0,410.0"/>
    <path d="M 289.0,267.0 L 319.0,298.0 L 325.0,322.0 L 305.0,473.0 L 277.0,606.0 L 236.0,724.0 L 195.0,802.0 L 121.0,910.0 L 89.0,942.0"/>
    <path d="M 376.0,582.0 L 388.0,589.0 L 471.0,555.0 L 491.0,567.0 L 457.0,644.0 L 454.0,663.0 L 489.0,729.0 L 492.0,772.0 L 489.0,778.0 L 464.0,777.0 L 400.0,754.0"/>
    <path d="M 320.0,562.0 L 347.0,597.0 L 351.0,611.0 L 352.0,816.0 L 333.0,955.0 L 335.0,1008.0"/>
    <path d="M 564.0,561.0 L 608.0,564.0 L 720.0,538.0 L 809.0,525.0 L 853.0,527.0 L 882.0,536.0"/>
    <path d="M 528.0,690.0 L 552.0,717.0 L 573.0,839.0"/>
    <path d="M 577.0,709.0 L 582.0,700.0 L 638.0,682.0 L 653.0,679.0 L 667.0,685.0 L 680.0,699.0 L 664.0,761.0 L 651.0,766.0"/>
    <path d="M 588.0,818.0 L 598.0,809.0 L 636.0,797.0 L 693.0,797.0"/>
    <path d="M 744.0,561.0 L 774.0,585.0 L 779.0,597.0 L 784.0,931.0 L 779.0,978.0 L 759.0,1017.0 L 660.0,974.0"/>
  </g>
</svg>
