<svg xmlns="http://www.w3.org/2000/svg" viewBox="0 0 1024 1024">
  <g style="fill:none;stroke:#000000;stroke-width:50;stroke-linecap:round;stroke-linejoin:round;" transform="scale(1, 1) translate(0, 0)">
    <path d="M 360.0,232.0 L 377.0,244.0 L 393.0,242.0 L 661.0,191.0 L 681.0,200.0 L 702.0,226.0 L 684.0,260.0 L 654.0,276.0"/>
    <path d="M 351.0,361.0 L 642.0,305.0 L 707.0,311.0"/>
    <path d="M 287.0,214.0 L 317.0,245.0 L 325.0,272.0 L 303.0,455.0 L 264.0,624.0 L 224.0,732.0 L 185.0,809.0 L 122.0,906.0 L 65.0,970.0"/>
    <path d="M 381.0,443.0 L 403.0,461.0 L 411.0,476.0 L 444.0,627.0"/>
    <path d="M 431.0,449.0 L 442.0,455.0 L 634.0,409.0 L 676.0,406.0 L 702.0,412.0 L 721.0,436.0 L 681.0,568.0 L 683.0,591.0"/>
    <path d="M 332.0,541.0 L 383.0,545.0 L 497.0,519.0 L 792.0,474.0 L 828.0,472.0 L 886.0,483.0"/>
    <path d="M 460.0,608.0 L 476.0,599.0 L 650.0,560.0"/>
    <path d="M 359.0,668.0 L 382.0,685.0 L 388.0,697.0 L 412.0,792.0"/>
    <path d="M 403.0,671.0 L 420.0,677.0 L 458.0,673.0 L 590.0,651.0 L 658.0,633.0 L 688.0,632.0 L 705.0,640.0 L 720.0,663.0 L 707.0,686.0 L 684.0,701.0"/>
    <path d="M 427.0,773.0 L 441.0,764.0 L 649.0,730.0 L 694.0,727.0 L 729.0,735.0"/>
    <path d="M 518.0,370.0 L 557.0,401.0 L 550.0,709.0 L 536.0,729.0"/>
    <path d="M 479.0,780.0 L 500.0,801.0 L 460.0,889.0 L 449.0,920.0 L 452.0,927.0 L 644.0,1002.0 L 710.0,1040.0 L 752.0,1080.0"/>
    <path d="M 630.0,775.0 L 641.0,783.0 L 653.0,809.0 L 635.0,863.0 L 577.0,949.0 L 535.0,990.0 L 488.0,1018.0 L 436.0,1036.0 L 379.0,1047.0 L 312.0,1046.0"/>
    <path d="M 246.0,863.0 L 297.0,873.0 L 557.0,836.0 L 813.0,813.0 L 862.0,814.0 L 923.0,831.0"/>
  </g>
</svg>
