<svg xmlns="http://www.w3.org/2000/svg" viewBox="0 0 1024 1024">
  <g style="fill:none;stroke:#000000;stroke-width:50;stroke-linecap:round;stroke-linejoin:round;" transform="scale(1, 1) translate(0, 0)">
    <path d="M 362.0,271.0 L 371.0,281.0 L 414.0,271.0 L 422.0,274.0 L 430.0,268.0 L 642.0,228.0 L 670.0,241.0 L 686.0,263.0 L 665.0,309.0 L 637.0,322.0"/>
    <path d="M 342.0,411.0 L 360.0,402.0 L 625.0,355.0 L 694.0,360.0"/>
    <path d="M 283.0,242.0 L 312.0,274.0 L 319.0,297.0 L 299.0,453.0 L 263.0,606.0 L 219.0,721.0 L 163.0,824.0 L 102.0,906.0 L 65.0,943.0"/>
    <path d="M 403.0,465.0 L 422.0,495.0 L 412.0,520.0 L 343.0,609.0 L 298.0,643.0"/>
    <path d="M 389.0,620.0 L 404.0,640.0 L 409.0,661.0 L 367.0,726.0 L 269.0,832.0 L 202.0,883.0"/>
    <path d="M 361.0,775.0 L 363.0,855.0 L 351.0,972.0 L 356.0,1030.0"/>
    <path d="M 628.0,420.0 L 662.0,452.0 L 657.0,597.0 L 642.0,607.0"/>
    <path d="M 690.0,527.0 L 703.0,513.0 L 744.0,501.0 L 796.0,503.0"/>
    <path d="M 520.0,518.0 L 542.0,536.0 L 553.0,560.0 L 560.0,619.0 L 550.0,628.0"/>
    <path d="M 472.0,661.0 L 517.0,665.0 L 635.0,637.0 L 787.0,611.0 L 826.0,610.0 L 869.0,620.0"/>
    <path d="M 633.0,658.0 L 660.0,688.0 L 657.0,860.0 L 672.0,886.0"/>
    <path d="M 686.0,780.0 L 700.0,768.0 L 727.0,760.0 L 772.0,753.0 L 808.0,759.0"/>
    <path d="M 509.0,715.0 L 533.0,747.0 L 506.0,823.0 L 459.0,896.0 L 410.0,945.0"/>
    <path d="M 537.0,810.0 L 547.0,829.0 L 647.0,906.0 L 793.0,997.0 L 955.0,995.0"/>
  </g>
</svg>
