<svg xmlns="http://www.w3.org/2000/svg" viewBox="0 0 1024 1024">
  <g style="fill:none;stroke:#000000;stroke-width:50;stroke-linecap:round;stroke-linejoin:round;" transform="scale(1, 1) translate(0, 0)">
    <path d="M 363.0,228.0 L 377.0,239.0 L 525.0,210.0 L 634.0,181.0 L 656.0,190.0 L 676.0,217.0 L 654.0,256.0 L 633.0,272.0 L 618.0,274.0"/>
    <path d="M 348.0,364.0 L 371.0,352.0 L 618.0,303.0 L 679.0,305.0"/>
    <path d="M 293.0,211.0 L 326.0,247.0 L 328.0,283.0 L 297.0,497.0 L 262.0,637.0 L 225.0,742.0 L 161.0,864.0 L 85.0,968.0 L 53.0,998.0"/>
    <path d="M 511.0,361.0 L 527.0,379.0 L 531.0,395.0 L 529.0,494.0"/>
    <path d="M 397.0,402.0 L 436.0,410.0 L 461.0,424.0"/>
    <path d="M 385.0,471.0 L 427.0,485.0 L 449.0,500.0"/>
    <path d="M 610.0,371.0 L 651.0,383.0 L 673.0,398.0"/>
    <path d="M 600.0,436.0 L 651.0,456.0 L 665.0,469.0"/>
    <path d="M 333.0,545.0 L 332.0,550.0 L 367.0,583.0 L 396.0,676.0"/>
    <path d="M 343.0,542.0 L 393.0,552.0 L 503.0,526.0 L 642.0,503.0 L 695.0,503.0 L 711.0,510.0 L 726.0,538.0 L 678.0,638.0"/>
    <path d="M 450.0,558.0 L 458.0,564.0 L 469.0,612.0 L 480.0,627.0"/>
    <path d="M 561.0,536.0 L 580.0,554.0 L 562.0,605.0 L 550.0,610.0"/>
    <path d="M 409.0,662.0 L 423.0,653.0 L 652.0,617.0 L 662.0,611.0"/>
    <path d="M 469.0,686.0 L 448.0,689.0 L 403.0,741.0 L 357.0,779.0 L 331.0,788.0 L 327.0,795.0"/>
    <path d="M 452.0,728.0 L 472.0,719.0 L 579.0,709.0 L 746.0,682.0 L 791.0,690.0 L 816.0,717.0 L 795.0,907.0 L 776.0,980.0 L 758.0,1020.0 L 721.0,1060.0 L 636.0,1005.0"/>
    <path d="M 287.0,821.0 L 317.0,847.0 L 348.0,947.0"/>
    <path d="M 337.0,824.0 L 348.0,830.0 L 455.0,811.0 L 549.0,785.0 L 568.0,787.0 L 593.0,814.0 L 572.0,857.0 L 552.0,868.0"/>
    <path d="M 362.0,917.0 L 371.0,924.0 L 543.0,891.0 L 592.0,898.0"/>
    <path d="M 420.0,761.0 L 429.0,764.0 L 444.0,786.0 L 441.0,959.0 L 438.0,974.0 L 427.0,981.0"/>
    <path d="M 262.0,1022.0 L 303.0,1038.0 L 543.0,977.0 L 555.0,983.0"/>
    <path d="M 542.0,933.0 L 591.0,989.0 L 601.0,1018.0"/>
  </g>
</svg>
