<svg xmlns="http://www.w3.org/2000/svg" viewBox="0 0 1024 1024">
  <g style="fill:none;stroke:#000000;stroke-width:50;stroke-linecap:round;stroke-linejoin:round;" transform="scale(1, 1) translate(0, 0)">
    <path d="M 234.0,267.0 L 282.0,308.0 L 270.0,670.0 L 269.0,680.0 L 252.0,700.0"/>
    <path d="M 109.0,561.0 L 129.0,583.0 L 141.0,614.0 L 126.0,760.0 L 163.0,759.0 L 244.0,727.0 L 297.0,715.0 L 349.0,697.0 L 357.0,683.0"/>
    <path d="M 383.0,503.0 L 411.0,541.0 L 383.0,743.0"/>
    <path d="M 503.0,377.0 L 558.0,386.0 L 806.0,339.0 L 845.0,342.0"/>
    <path d="M 450.0,632.0 L 502.0,637.0 L 647.0,612.0 L 861.0,588.0 L 898.0,591.0 L 943.0,604.0"/>
    <path d="M 527.0,452.0 L 566.0,488.0 L 560.0,650.0 L 540.0,750.0 L 512.0,816.0 L 478.0,867.0 L 434.0,909.0 L 397.0,932.0"/>
    <path d="M 695.0,397.0 L 739.0,419.0 L 742.0,454.0 L 739.0,1041.0"/>
  </g>
</svg>
