<svg xmlns="http://www.w3.org/2000/svg" viewBox="0 0 1024 1024">
  <g style="fill:none;stroke:#000000;stroke-width:50;stroke-linecap:round;stroke-linejoin:round;" transform="scale(1, 1) translate(0, 0)">
    <path d="M 227.0,335.0 L 262.0,361.0 L 274.0,379.0 L 268.0,652.0 L 266.0,672.0 L 249.0,694.0"/>
    <path d="M 107.0,550.0 L 128.0,572.0 L 140.0,602.0 L 141.0,653.0 L 130.0,757.0 L 175.0,751.0 L 243.0,722.0 L 343.0,691.0 L 358.0,673.0"/>
    <path d="M 387.0,503.0 L 412.0,543.0 L 380.0,734.0"/>
    <path d="M 489.0,445.0 L 512.0,450.0 L 577.0,446.0 L 670.0,426.0 L 776.0,394.0 L 825.0,395.0"/>
    <path d="M 597.0,208.0 L 644.0,253.0 L 630.0,568.0 L 612.0,592.0"/>
    <path d="M 504.0,632.0 L 547.0,633.0 L 591.0,624.0 L 679.0,594.0 L 710.0,595.0 L 732.0,607.0 L 718.0,664.0 L 670.0,775.0 L 644.0,817.0 L 601.0,866.0 L 554.0,905.0 L 495.0,939.0 L 429.0,963.0 L 356.0,975.0"/>
    <path d="M 507.0,695.0 L 553.0,724.0 L 664.0,862.0 L 738.0,935.0 L 775.0,963.0 L 823.0,988.0 L 964.0,1007.0"/>
  </g>
</svg>
