<svg xmlns="http://www.w3.org/2000/svg" viewBox="0 0 1024 1024">
  <g style="fill:none;stroke:#000000;stroke-width:50;stroke-linecap:round;stroke-linejoin:round;" transform="scale(1, 1) translate(0, 0)">
    <path d="M 471.0,190.0 L 509.0,226.0 L 502.0,348.0 L 486.0,360.0"/>
    <path d="M 298.0,268.0 L 326.0,315.0 L 313.0,421.0 L 360.0,421.0 L 516.0,384.0 L 642.0,368.0 L 656.0,355.0"/>
    <path d="M 674.0,220.0 L 708.0,268.0 L 693.0,336.0 L 682.0,433.0"/>
    <path d="M 465.0,422.0 L 482.0,438.0 L 495.0,465.0 L 444.0,549.0 L 391.0,614.0 L 283.0,721.0 L 191.0,786.0 L 120.0,823.0"/>
    <path d="M 528.0,507.0 L 528.0,517.0 L 544.0,534.0 L 621.0,603.0 L 705.0,673.0 L 773.0,718.0 L 788.0,725.0 L 956.0,736.0"/>
    <path d="M 450.0,656.0 L 509.0,694.0 L 530.0,720.0"/>
    <path d="M 293.0,819.0 L 348.0,833.0 L 566.0,776.0 L 600.0,772.0 L 619.0,778.0 L 635.0,797.0 L 629.0,817.0 L 573.0,929.0 L 536.0,988.0 L 522.0,1031.0"/>
  </g>
</svg>
