<svg xmlns="http://www.w3.org/2000/svg" viewBox="0 0 1024 1024">
  <g style="fill:none;stroke:#000000;stroke-width:50;stroke-linecap:round;stroke-linejoin:round;" transform="scale(1, 1) translate(0, 0)">
    <path d="M 640.0,256.0 L 589.0,242.0 L 570.0,243.0 L 467.0,292.0 L 292.0,342.0"/>
    <path d="M 170.0,491.0 L 221.0,499.0 L 498.0,451.0 L 707.0,426.0 L 751.0,429.0 L 800.0,443.0"/>
    <path d="M 427.0,325.0 L 461.0,361.0 L 418.0,474.0 L 365.0,564.0 L 303.0,639.0 L 266.0,674.0 L 164.0,749.0 L 108.0,779.0"/>
    <path d="M 538.0,471.0 L 557.0,481.0 L 669.0,602.0 L 781.0,695.0 L 843.0,714.0 L 973.0,737.0"/>
    <path d="M 444.0,647.0 L 488.0,685.0 L 483.0,874.0 L 479.0,894.0 L 466.0,907.0"/>
    <path d="M 258.0,782.0 L 292.0,830.0 L 280.0,966.0 L 325.0,966.0 L 440.0,938.0 L 641.0,913.0 L 657.0,898.0"/>
    <path d="M 665.0,730.0 L 700.0,778.0 L 693.0,897.0 L 682.0,963.0 L 682.0,1017.0"/>
  </g>
</svg>
