<svg xmlns="http://www.w3.org/2000/svg" viewBox="0 0 1024 1024">
  <g style="fill:none;stroke:#000000;stroke-width:50;stroke-linecap:round;stroke-linejoin:round;" transform="scale(1, 1) translate(0, 0)">
    <path d="M 490.0,186.0 L 533.0,230.0 L 523.0,373.0 L 504.0,389.0"/>
    <path d="M 283.0,304.0 L 312.0,343.0 L 304.0,450.0 L 304.0,456.0 L 312.0,458.0 L 351.0,456.0 L 539.0,412.0 L 682.0,394.0 L 697.0,391.0 L 707.0,379.0"/>
    <path d="M 741.0,230.0 L 774.0,279.0 L 732.0,456.0"/>
    <path d="M 258.0,555.0 L 286.0,583.0 L 298.0,620.0 L 294.0,784.0 L 267.0,1038.0"/>
    <path d="M 313.0,566.0 L 337.0,580.0 L 353.0,580.0 L 687.0,522.0 L 729.0,527.0 L 763.0,557.0 L 775.0,931.0 L 771.0,984.0 L 757.0,1017.0 L 698.0,1004.0 L 630.0,977.0"/>
    <path d="M 586.0,595.0 L 607.0,630.0 L 578.0,705.0 L 537.0,776.0 L 503.0,819.0 L 456.0,861.0 L 397.0,905.0 L 363.0,920.0"/>
    <path d="M 396.0,682.0 L 593.0,829.0 L 632.0,868.0 L 648.0,896.0 L 649.0,912.0"/>
  </g>
</svg>
