<svg xmlns="http://www.w3.org/2000/svg" viewBox="0 0 1024 1024">
  <g style="fill:none;stroke:#000000;stroke-width:50;stroke-linecap:round;stroke-linejoin:round;" transform="scale(1, 1) translate(0, 0)">
    <path d="M 222.0,303.0 L 260.0,333.0 L 270.0,350.0 L 260.0,658.0 L 258.0,678.0 L 240.0,701.0"/>
    <path d="M 95.0,558.0 L 116.0,580.0 L 128.0,610.0 L 129.0,661.0 L 118.0,765.0 L 152.0,763.0 L 220.0,734.0 L 341.0,697.0 L 355.0,680.0"/>
    <path d="M 375.0,511.0 L 403.0,549.0 L 379.0,742.0"/>
    <path d="M 535.0,323.0 L 565.0,333.0 L 602.0,331.0 L 814.0,291.0 L 849.0,293.0 L 854.0,302.0"/>
    <path d="M 760.0,405.0 L 774.0,416.0 L 788.0,441.0 L 776.0,507.0 L 752.0,581.0 L 699.0,677.0 L 650.0,734.0 L 578.0,796.0"/>
    <path d="M 600.0,508.0 L 750.0,650.0 L 807.0,712.0 L 836.0,763.0 L 837.0,788.0"/>
    <path d="M 467.0,299.0 L 502.0,340.0 L 508.0,381.0 L 503.0,690.0 L 490.0,932.0 L 532.0,935.0 L 643.0,911.0 L 790.0,894.0 L 898.0,890.0 L 931.0,902.0"/>
  </g>
</svg>
