<svg xmlns="http://www.w3.org/2000/svg" viewBox="0 0 1024 1024">
  <g style="fill:none;stroke:#000000;stroke-width:50;stroke-linecap:round;stroke-linejoin:round;" transform="scale(1, 1) translate(0, 0)">
    <path d="M 216.0,281.0 L 245.0,319.0 L 252.0,346.0 L 253.0,397.0 L 235.0,704.0 L 208.0,882.0 L 212.0,943.0"/>
    <path d="M 281.0,299.0 L 289.0,310.0 L 306.0,316.0 L 723.0,253.0 L 752.0,267.0 L 780.0,295.0 L 779.0,404.0 L 796.0,853.0 L 790.0,926.0 L 770.0,968.0 L 729.0,956.0 L 643.0,906.0"/>
    <path d="M 392.0,374.0 L 429.0,404.0 L 445.0,430.0"/>
    <path d="M 585.0,322.0 L 599.0,348.0 L 516.0,439.0"/>
    <path d="M 349.0,509.0 L 429.0,509.0 L 621.0,470.0 L 651.0,471.0"/>
    <path d="M 475.0,528.0 L 490.0,538.0 L 504.0,576.0 L 499.0,692.0 L 494.0,709.0 L 483.0,720.0"/>
    <path d="M 340.0,625.0 L 367.0,656.0 L 372.0,698.0 L 368.0,773.0 L 408.0,770.0 L 501.0,738.0 L 588.0,719.0 L 609.0,702.0"/>
    <path d="M 625.0,583.0 L 654.0,626.0 L 632.0,737.0 L 628.0,790.0"/>
  </g>
</svg>
