<svg xmlns="http://www.w3.org/2000/svg" viewBox="0 0 1024 1024">
  <g style="fill:none;stroke:#000000;stroke-width:50;stroke-linecap:round;stroke-linejoin:round;" transform="scale(1, 1) translate(0, 0)">
    <path d="M 195.0,285.0 L 236.0,317.0 L 245.0,333.0 L 236.0,659.0 L 234.0,682.0 L 216.0,704.0"/>
    <path d="M 79.0,557.0 L 109.0,595.0 L 113.0,611.0 L 101.0,734.0 L 101.0,756.0 L 108.0,760.0 L 139.0,758.0 L 311.0,707.0 L 325.0,691.0"/>
    <path d="M 352.0,511.0 L 374.0,543.0 L 353.0,747.0"/>
    <path d="M 578.0,213.0 L 594.0,220.0 L 618.0,246.0 L 603.0,316.0 L 575.0,392.0 L 521.0,504.0 L 436.0,616.0 L 405.0,645.0"/>
    <path d="M 630.0,346.0 L 629.0,357.0 L 639.0,377.0 L 686.0,433.0 L 780.0,533.0 L 825.0,571.0 L 977.0,604.0"/>
    <path d="M 563.0,545.0 L 612.0,578.0 L 643.0,613.0"/>
    <path d="M 452.0,735.0 L 477.0,746.0 L 512.0,747.0 L 663.0,690.0 L 704.0,685.0 L 727.0,696.0 L 745.0,714.0 L 731.0,743.0 L 641.0,868.0 L 638.0,880.0 L 628.0,880.0"/>
    <path d="M 538.0,860.0 L 660.0,954.0 L 686.0,1010.0"/>
  </g>
</svg>
