<svg xmlns="http://www.w3.org/2000/svg" viewBox="0 0 1024 1024">
  <g style="fill:none;stroke:#000000;stroke-width:50;stroke-linecap:round;stroke-linejoin:round;" transform="scale(1, 1) translate(0, 0)">
    <path d="M 211.0,250.0 L 262.0,291.0 L 263.0,305.0 L 258.0,665.0 L 239.0,689.0"/>
    <path d="M 87.0,543.0 L 108.0,565.0 L 123.0,594.0 L 118.0,753.0 L 153.0,750.0 L 247.0,712.0 L 335.0,687.0 L 353.0,667.0"/>
    <path d="M 370.0,501.0 L 398.0,543.0 L 381.0,743.0"/>
    <path d="M 429.0,334.0 L 465.0,364.0 L 479.0,390.0 L 509.0,598.0 L 532.0,679.0"/>
    <path d="M 488.0,346.0 L 525.0,355.0 L 725.0,317.0 L 800.0,309.0 L 828.0,314.0 L 854.0,334.0 L 867.0,351.0 L 820.0,560.0 L 795.0,632.0 L 800.0,664.0"/>
    <path d="M 561.0,500.0 L 710.0,469.0 L 755.0,474.0"/>
    <path d="M 550.0,653.0 L 568.0,642.0 L 755.0,610.0"/>
    <path d="M 615.0,369.0 L 651.0,385.0 L 657.0,407.0 L 655.0,1081.0"/>
  </g>
</svg>
