<svg xmlns="http://www.w3.org/2000/svg" viewBox="0 0 1024 1024">
  <g style="fill:none;stroke:#000000;stroke-width:50;stroke-linecap:round;stroke-linejoin:round;" transform="scale(1, 1) translate(0, 0)">
    <path d="M 337.0,250.0 L 351.0,266.0 L 364.0,301.0 L 319.0,372.0 L 223.0,489.0 L 122.0,585.0 L 81.0,614.0"/>
    <path d="M 305.0,443.0 L 306.0,466.0 L 319.0,497.0 L 313.0,647.0 L 319.0,695.0"/>
    <path d="M 423.0,476.0 L 466.0,479.0 L 510.0,472.0 L 702.0,410.0 L 750.0,407.0"/>
    <path d="M 476.0,208.0 L 523.0,239.0 L 563.0,376.0 L 623.0,498.0 L 693.0,592.0 L 747.0,643.0 L 816.0,685.0 L 866.0,691.0 L 878.0,638.0 L 887.0,531.0"/>
    <path d="M 669.0,231.0 L 755.0,277.0 L 778.0,308.0"/>
    <path d="M 487.0,669.0 L 531.0,711.0 L 520.0,892.0 L 502.0,917.0"/>
    <path d="M 280.0,789.0 L 315.0,840.0 L 304.0,954.0 L 304.0,974.0 L 313.0,979.0 L 354.0,978.0 L 442.0,955.0 L 622.0,926.0 L 701.0,920.0 L 718.0,936.0"/>
    <path d="M 713.0,741.0 L 729.0,751.0 L 753.0,784.0 L 746.0,961.0 L 749.0,1026.0"/>
  </g>
</svg>
