<svg xmlns="http://www.w3.org/2000/svg" viewBox="0 0 1024 1024">
  <g style="fill:none;stroke:#000000;stroke-width:50;stroke-linecap:round;stroke-linejoin:round;" transform="scale(1, 1) translate(0, 0)">
    <path d="M 657.0,225.0 L 583.0,223.0 L 489.0,296.0 L 408.0,344.0 L 389.0,344.0"/>
    <path d="M 309.0,335.0 L 355.0,380.0 L 382.0,609.0 L 385.0,624.0 L 400.0,634.0"/>
    <path d="M 397.0,427.0 L 404.0,434.0 L 424.0,436.0 L 467.0,433.0 L 718.0,378.0 L 767.0,377.0"/>
    <path d="M 595.0,435.0 L 625.0,467.0 L 602.0,596.0 L 583.0,611.0"/>
    <path d="M 131.0,682.0 L 186.0,692.0 L 462.0,654.0 L 830.0,620.0 L 869.0,624.0 L 923.0,643.0"/>
    <path d="M 487.0,710.0 L 524.0,742.0 L 519.0,887.0 L 515.0,903.0 L 504.0,912.0"/>
    <path d="M 292.0,790.0 L 316.0,825.0 L 322.0,847.0 L 302.0,953.0 L 301.0,973.0 L 306.0,978.0 L 343.0,978.0 L 447.0,950.0 L 649.0,913.0 L 719.0,908.0 L 735.0,922.0"/>
    <path d="M 719.0,733.0 L 756.0,768.0 L 759.0,781.0 L 765.0,1031.0"/>
  </g>
</svg>
