<svg xmlns="http://www.w3.org/2000/svg" viewBox="0 0 1024 1024">
  <g style="fill:none;stroke:#000000;stroke-width:50;stroke-linecap:round;stroke-linejoin:round;" transform="scale(1, 1) translate(0, 0)">
    <path d="M 207.0,257.0 L 254.0,297.0 L 246.0,650.0 L 228.0,679.0"/>
    <path d="M 87.0,541.0 L 114.0,571.0 L 119.0,587.0 L 117.0,736.0 L 156.0,731.0 L 206.0,710.0 L 313.0,680.0 L 326.0,664.0"/>
    <path d="M 349.0,483.0 L 378.0,518.0 L 380.0,531.0 L 359.0,665.0 L 356.0,722.0"/>
    <path d="M 476.0,271.0 L 522.0,276.0 L 562.0,271.0 L 670.0,241.0 L 714.0,245.0 L 727.0,260.0 L 681.0,357.0 L 637.0,426.0 L 603.0,467.0 L 562.0,504.0 L 498.0,548.0 L 437.0,575.0 L 404.0,581.0"/>
    <path d="M 471.0,335.0 L 501.0,343.0 L 522.0,356.0 L 668.0,488.0 L 734.0,537.0 L 784.0,563.0 L 845.0,577.0 L 981.0,581.0"/>
    <path d="M 478.0,682.0 L 538.0,688.0 L 715.0,652.0 L 763.0,652.0"/>
    <path d="M 393.0,836.0 L 449.0,843.0 L 608.0,817.0 L 787.0,797.0 L 825.0,798.0 L 879.0,812.0"/>
    <path d="M 574.0,563.0 L 593.0,573.0 L 615.0,603.0 L 611.0,1057.0"/>
  </g>
</svg>
