<svg xmlns="http://www.w3.org/2000/svg" viewBox="0 0 1024 1024">
  <g style="fill:none;stroke:#000000;stroke-width:50;stroke-linecap:round;stroke-linejoin:round;" transform="scale(1, 1) translate(0, 0)">
    <path d="M 491.0,200.0 L 533.0,241.0 L 525.0,364.0 L 521.0,385.0 L 506.0,402.0"/>
    <path d="M 279.0,304.0 L 300.0,329.0 L 310.0,355.0 L 300.0,461.0 L 349.0,461.0 L 494.0,428.0 L 677.0,408.0 L 696.0,394.0"/>
    <path d="M 742.0,238.0 L 756.0,254.0 L 772.0,291.0 L 713.0,475.0"/>
    <path d="M 220.0,615.0 L 243.0,643.0 L 246.0,659.0 L 241.0,880.0"/>
    <path d="M 376.0,540.0 L 415.0,575.0 L 418.0,599.0 L 410.0,745.0 L 389.0,849.0 L 369.0,906.0 L 332.0,974.0 L 309.0,1004.0 L 257.0,1052.0 L 222.0,1071.0"/>
    <path d="M 531.0,624.0 L 577.0,629.0 L 766.0,595.0 L 804.0,616.0 L 820.0,635.0 L 818.0,648.0 L 772.0,828.0 L 746.0,846.0"/>
    <path d="M 487.0,758.0 L 535.0,766.0 L 674.0,744.0 L 723.0,751.0"/>
    <path d="M 503.0,901.0 L 536.0,908.0 L 729.0,878.0 L 784.0,879.0 L 814.0,889.0"/>
  </g>
</svg>
