<svg xmlns="http://www.w3.org/2000/svg" viewBox="0 0 1024 1024">
  <g style="fill:none;stroke:#000000;stroke-width:50;stroke-linecap:round;stroke-linejoin:round;" transform="scale(1, 1) translate(0, 0)">
    <path d="M 228.0,277.0 L 268.0,307.0 L 278.0,323.0 L 270.0,668.0 L 252.0,692.0"/>
    <path d="M 117.0,547.0 L 139.0,572.0 L 151.0,598.0 L 141.0,750.0 L 176.0,748.0 L 244.0,720.0 L 348.0,688.0 L 363.0,671.0"/>
    <path d="M 367.0,501.0 L 400.0,536.0 L 391.0,739.0"/>
    <path d="M 567.0,190.0 L 601.0,221.0 L 604.0,232.0 L 594.0,270.0 L 534.0,410.0 L 503.0,465.0 L 465.0,514.0"/>
    <path d="M 541.0,444.0 L 556.0,436.0 L 657.0,423.0 L 692.0,411.0 L 804.0,390.0 L 832.0,396.0 L 860.0,425.0 L 844.0,761.0 L 822.0,868.0 L 805.0,912.0 L 775.0,963.0 L 743.0,988.0 L 633.0,929.0"/>
    <path d="M 491.0,537.0 L 511.0,563.0 L 514.0,580.0 L 513.0,692.0 L 505.0,774.0 L 509.0,826.0"/>
    <path d="M 540.0,554.0 L 559.0,558.0 L 662.0,539.0 L 694.0,562.0 L 695.0,726.0 L 685.0,782.0 L 692.0,842.0"/>
    <path d="M 540.0,678.0 L 551.0,665.0 L 564.0,661.0 L 624.0,661.0"/>
    <path d="M 531.0,783.0 L 544.0,773.0 L 569.0,768.0 L 647.0,762.0"/>
  </g>
</svg>
