<svg xmlns="http://www.w3.org/2000/svg" viewBox="0 0 1024 1024">
  <g style="fill:none;stroke:#000000;stroke-width:50;stroke-linecap:round;stroke-linejoin:round;" transform="scale(1, 1) translate(0, 0)">
    <path d="M 217.0,242.0 L 261.0,279.0 L 262.0,291.0 L 250.0,614.0 L 248.0,636.0 L 231.0,656.0"/>
    <path d="M 97.0,524.0 L 113.0,540.0 L 126.0,566.0 L 128.0,625.0 L 121.0,712.0 L 163.0,706.0 L 223.0,682.0 L 325.0,654.0 L 338.0,639.0"/>
    <path d="M 355.0,468.0 L 383.0,505.0 L 363.0,702.0"/>
    <path d="M 497.0,374.0 L 554.0,380.0 L 716.0,341.0 L 781.0,337.0"/>
    <path d="M 601.0,186.0 L 644.0,222.0 L 635.0,469.0 L 618.0,491.0"/>
    <path d="M 437.0,536.0 L 489.0,541.0 L 690.0,502.0 L 838.0,482.0 L 895.0,486.0 L 925.0,496.0"/>
    <path d="M 422.0,700.0 L 476.0,705.0 L 546.0,689.0 L 821.0,649.0 L 903.0,665.0"/>
    <path d="M 668.0,554.0 L 713.0,599.0 L 714.0,881.0 L 708.0,959.0 L 694.0,989.0 L 653.0,979.0 L 582.0,946.0"/>
    <path d="M 488.0,767.0 L 556.0,814.0 L 580.0,854.0"/>
  </g>
</svg>
