<svg xmlns="http://www.w3.org/2000/svg" viewBox="0 0 1024 1024">
  <g style="fill:none;stroke:#000000;stroke-width:50;stroke-linecap:round;stroke-linejoin:round;" transform="scale(1, 1) translate(0, 0)">
    <path d="M 179.0,339.0 L 214.0,365.0 L 225.0,377.0 L 227.0,390.0 L 218.0,714.0 L 201.0,737.0"/>
    <path d="M 73.0,593.0 L 102.0,629.0 L 106.0,646.0 L 105.0,707.0 L 94.0,768.0 L 98.0,798.0 L 133.0,796.0 L 195.0,765.0 L 287.0,731.0 L 299.0,714.0"/>
    <path d="M 320.0,568.0 L 341.0,601.0 L 326.0,768.0"/>
    <path d="M 509.0,349.0 L 519.0,384.0 L 447.0,447.0 L 405.0,477.0 L 395.0,477.0 L 393.0,487.0"/>
    <path d="M 398.0,581.0 L 421.0,585.0 L 472.0,580.0 L 732.0,506.0 L 771.0,499.0 L 812.0,502.0"/>
    <path d="M 459.0,467.0 L 484.0,477.0 L 496.0,497.0 L 489.0,919.0 L 469.0,960.0 L 389.0,919.0"/>
    <path d="M 281.0,853.0 L 330.0,853.0 L 462.0,763.0 L 521.0,735.0 L 529.0,721.0 L 540.0,722.0 L 549.0,710.0 L 581.0,694.0"/>
    <path d="M 584.0,233.0 L 617.0,250.0 L 641.0,276.0 L 643.0,435.0 L 662.0,596.0 L 686.0,716.0 L 706.0,782.0 L 749.0,879.0 L 806.0,961.0 L 838.0,987.0 L 875.0,1000.0 L 897.0,956.0 L 916.0,846.0"/>
    <path d="M 768.0,595.0 L 789.0,621.0 L 790.0,632.0 L 744.0,716.0 L 656.0,820.0 L 575.0,879.0"/>
    <path d="M 737.0,315.0 L 805.0,350.0 L 838.0,386.0"/>
  </g>
</svg>
