<svg xmlns="http://www.w3.org/2000/svg" viewBox="0 0 1024 1024">
  <g style="fill:none;stroke:#000000;stroke-width:50;stroke-linecap:round;stroke-linejoin:round;" transform="scale(1, 1) translate(0, 0)">
    <path d="M 459.0,201.0 L 545.0,250.0 L 570.0,286.0"/>
    <path d="M 180.0,395.0 L 222.0,407.0 L 249.0,406.0 L 801.0,332.0 L 864.0,344.0"/>
    <path d="M 408.0,412.0 L 427.0,424.0 L 442.0,457.0 L 440.0,547.0 L 425.0,617.0 L 428.0,676.0"/>
    <path d="M 559.0,388.0 L 587.0,406.0 L 598.0,426.0 L 596.0,555.0 L 589.0,615.0 L 596.0,695.0"/>
    <path d="M 314.0,523.0 L 283.0,579.0 L 218.0,660.0"/>
    <path d="M 706.0,511.0 L 809.0,575.0 L 837.0,626.0"/>
    <path d="M 486.0,718.0 L 526.0,755.0 L 513.0,913.0 L 499.0,928.0"/>
    <path d="M 272.0,792.0 L 307.0,844.0 L 292.0,982.0 L 306.0,988.0 L 346.0,986.0 L 502.0,954.0 L 707.0,935.0 L 723.0,921.0"/>
    <path d="M 725.0,745.0 L 749.0,767.0 L 766.0,795.0 L 754.0,964.0 L 757.0,1025.0"/>
  </g>
</svg>
