<svg xmlns="http://www.w3.org/2000/svg" viewBox="0 0 1024 1024">
  <g style="fill:none;stroke:#000000;stroke-width:50;stroke-linecap:round;stroke-linejoin:round;" transform="scale(1, 1) translate(0, 0)">
    <path d="M 467.0,155.0 L 480.0,163.0 L 497.0,189.0 L 443.0,269.0 L 395.0,323.0"/>
    <path d="M 305.0,315.0 L 327.0,331.0 L 343.0,358.0 L 333.0,715.0 L 355.0,742.0"/>
    <path d="M 373.0,335.0 L 392.0,344.0 L 488.0,314.0 L 609.0,287.0 L 649.0,293.0 L 678.0,335.0 L 611.0,497.0"/>
    <path d="M 369.0,450.0 L 389.0,439.0 L 498.0,415.0 L 535.0,415.0"/>
    <path d="M 367.0,543.0 L 378.0,532.0 L 571.0,489.0 L 589.0,472.0"/>
    <path d="M 366.0,627.0 L 374.0,620.0 L 459.0,613.0 L 555.0,584.0 L 606.0,583.0"/>
    <path d="M 371.0,738.0 L 386.0,715.0 L 501.0,688.0 L 638.0,665.0 L 785.0,657.0 L 815.0,662.0 L 829.0,671.0 L 848.0,692.0 L 819.0,868.0 L 796.0,968.0 L 780.0,1007.0 L 751.0,1038.0 L 637.0,989.0"/>
    <path d="M 400.0,760.0 L 433.0,793.0 L 428.0,893.0 L 411.0,907.0"/>
    <path d="M 243.0,804.0 L 269.0,850.0 L 254.0,969.0 L 301.0,966.0 L 372.0,944.0 L 514.0,913.0 L 553.0,910.0 L 564.0,920.0"/>
    <path d="M 561.0,795.0 L 588.0,825.0 L 593.0,929.0 L 601.0,968.0"/>
  </g>
</svg>
