<svg xmlns="http://www.w3.org/2000/svg" viewBox="0 0 1024 1024">
  <g style="fill:none;stroke:#000000;stroke-width:50;stroke-linecap:round;stroke-linejoin:round;" transform="scale(1, 1) translate(0, 0)">
    <path d="M 186.0,283.0 L 224.0,313.0 L 234.0,330.0 L 224.0,645.0 L 222.0,666.0 L 204.0,689.0"/>
    <path d="M 70.0,555.0 L 100.0,594.0 L 104.0,650.0 L 96.0,744.0 L 132.0,743.0 L 196.0,715.0 L 290.0,687.0 L 311.0,667.0"/>
    <path d="M 339.0,522.0 L 359.0,556.0 L 333.0,733.0"/>
    <path d="M 454.0,430.0 L 529.0,436.0 L 744.0,391.0 L 811.0,388.0"/>
    <path d="M 574.0,206.0 L 627.0,249.0 L 615.0,640.0 L 606.0,733.0 L 590.0,805.0 L 562.0,868.0 L 497.0,939.0 L 403.0,996.0 L 288.0,1034.0"/>
    <path d="M 637.0,746.0 L 641.0,773.0 L 688.0,832.0 L 759.0,915.0 L 830.0,983.0 L 862.0,998.0 L 1000.0,1027.0"/>
    <path d="M 464.0,527.0 L 488.0,554.0 L 476.0,602.0 L 448.0,667.0 L 392.0,737.0"/>
    <path d="M 487.0,656.0 L 489.0,666.0 L 536.0,703.0"/>
    <path d="M 743.0,488.0 L 770.0,519.0 L 755.0,567.0 L 719.0,634.0 L 660.0,698.0"/>
    <path d="M 747.0,634.0 L 762.0,634.0 L 815.0,660.0 L 831.0,672.0 L 850.0,700.0"/>
  </g>
</svg>
