<svg xmlns="http://www.w3.org/2000/svg" viewBox="0 0 1024 1024">
  <g style="fill:none;stroke:#000000;stroke-width:50;stroke-linecap:round;stroke-linejoin:round;" transform="scale(1, 1) translate(0, 0)">
    <path d="M 206.0,259.0 L 254.0,300.0 L 242.0,657.0 L 236.0,676.0 L 224.0,688.0"/>
    <path d="M 94.0,551.0 L 124.0,590.0 L 128.0,646.0 L 120.0,740.0 L 157.0,739.0 L 204.0,718.0 L 313.0,685.0 L 327.0,670.0"/>
    <path d="M 344.0,482.0 L 378.0,522.0 L 358.0,735.0"/>
    <path d="M 489.0,386.0 L 518.0,391.0 L 579.0,386.0 L 721.0,348.0 L 781.0,345.0"/>
    <path d="M 459.0,482.0 L 516.0,530.0 L 535.0,570.0"/>
    <path d="M 760.0,433.0 L 776.0,464.0 L 685.0,550.0"/>
    <path d="M 414.0,655.0 L 471.0,660.0 L 571.0,639.0 L 814.0,602.0 L 900.0,618.0"/>
    <path d="M 581.0,201.0 L 610.0,225.0 L 633.0,264.0 L 626.0,758.0 L 609.0,961.0 L 611.0,1049.0"/>
    <path d="M 598.0,663.0 L 576.0,713.0 L 519.0,790.0 L 411.0,896.0 L 346.0,937.0"/>
    <path d="M 655.0,663.0 L 662.0,688.0 L 714.0,757.0 L 793.0,845.0 L 841.0,885.0 L 853.0,894.0 L 974.0,913.0"/>
  </g>
</svg>
