<svg xmlns="http://www.w3.org/2000/svg" viewBox="0 0 1024 1024">
  <g style="fill:none;stroke:#000000;stroke-width:50;stroke-linecap:round;stroke-linejoin:round;" transform="scale(1, 1) translate(0, 0)">
    <path d="M 200.0,307.0 L 241.0,341.0 L 250.0,359.0 L 240.0,690.0 L 238.0,712.0 L 220.0,734.0"/>
    <path d="M 76.0,610.0 L 98.0,633.0 L 110.0,661.0 L 105.0,789.0 L 148.0,788.0 L 211.0,762.0 L 317.0,735.0 L 332.0,718.0"/>
    <path d="M 345.0,564.0 L 378.0,603.0 L 358.0,787.0"/>
    <path d="M 563.0,249.0 L 651.0,290.0 L 682.0,328.0"/>
    <path d="M 456.0,390.0 L 470.0,425.0 L 441.0,515.0 L 439.0,546.0"/>
    <path d="M 498.0,444.0 L 511.0,435.0 L 739.0,394.0 L 800.0,387.0 L 829.0,397.0 L 849.0,425.0 L 770.0,500.0"/>
    <path d="M 539.0,537.0 L 558.0,567.0 L 552.0,585.0 L 506.0,649.0 L 450.0,695.0"/>
    <path d="M 685.0,538.0 L 768.0,590.0 L 795.0,630.0"/>
    <path d="M 486.0,739.0 L 495.0,744.0 L 552.0,745.0 L 728.0,708.0 L 770.0,713.0"/>
    <path d="M 606.0,762.0 L 632.0,790.0 L 621.0,903.0 L 602.0,917.0"/>
    <path d="M 395.0,963.0 L 434.0,973.0 L 454.0,972.0 L 621.0,947.0 L 813.0,930.0 L 839.0,932.0 L 903.0,952.0"/>
  </g>
</svg>
