<svg xmlns="http://www.w3.org/2000/svg" viewBox="0 0 1024 1024">
  <g style="fill:none;stroke:#000000;stroke-width:50;stroke-linecap:round;stroke-linejoin:round;" transform="scale(1, 1) translate(0, 0)">
    <path d="M 227.0,297.0 L 271.0,333.0 L 274.0,352.0 L 268.0,648.0 L 266.0,669.0 L 248.0,691.0"/>
    <path d="M 111.0,576.0 L 131.0,596.0 L 140.0,615.0 L 143.0,655.0 L 136.0,746.0 L 178.0,743.0 L 240.0,718.0 L 330.0,693.0 L 350.0,675.0"/>
    <path d="M 371.0,523.0 L 400.0,560.0 L 375.0,735.0"/>
    <path d="M 553.0,191.0 L 633.0,237.0 L 655.0,268.0"/>
    <path d="M 420.0,372.0 L 463.0,376.0 L 566.0,351.0 L 765.0,318.0 L 799.0,317.0 L 852.0,329.0"/>
    <path d="M 489.0,437.0 L 512.0,457.0 L 521.0,476.0 L 544.0,594.0"/>
    <path d="M 533.0,439.0 L 551.0,447.0 L 683.0,414.0 L 706.0,416.0 L 727.0,433.0 L 733.0,447.0 L 717.0,489.0 L 692.0,507.0"/>
    <path d="M 561.0,563.0 L 570.0,555.0 L 693.0,531.0 L 730.0,528.0 L 752.0,534.0"/>
    <path d="M 479.0,648.0 L 507.0,659.0 L 524.0,659.0 L 671.0,612.0 L 698.0,607.0 L 716.0,611.0 L 738.0,634.0 L 733.0,643.0 L 658.0,728.0 L 650.0,729.0"/>
    <path d="M 595.0,733.0 L 635.0,753.0 L 656.0,785.0 L 677.0,894.0 L 672.0,972.0 L 657.0,1015.0 L 629.0,1041.0 L 533.0,994.0"/>
    <path d="M 393.0,832.0 L 448.0,839.0 L 582.0,814.0 L 833.0,785.0 L 889.0,790.0 L 919.0,800.0"/>
  </g>
</svg>
