<svg xmlns="http://www.w3.org/2000/svg" viewBox="0 0 1024 1024">
  <g style="fill:none;stroke:#000000;stroke-width:50;stroke-linecap:round;stroke-linejoin:round;" transform="scale(1, 1) translate(0, 0)">
    <path d="M 464.0,202.0 L 500.0,239.0 L 492.0,330.0 L 487.0,351.0 L 472.0,367.0"/>
    <path d="M 267.0,274.0 L 293.0,308.0 L 284.0,423.0 L 325.0,424.0 L 397.0,405.0 L 558.0,376.0 L 662.0,369.0 L 676.0,357.0"/>
    <path d="M 713.0,223.0 L 740.0,269.0 L 693.0,429.0"/>
    <path d="M 451.0,414.0 L 470.0,436.0 L 478.0,459.0 L 432.0,532.0 L 374.0,601.0 L 268.0,698.0 L 210.0,739.0 L 107.0,793.0"/>
    <path d="M 504.0,495.0 L 522.0,501.0 L 672.0,622.0 L 794.0,697.0 L 888.0,711.0 L 981.0,715.0"/>
    <path d="M 372.0,667.0 L 428.0,670.0 L 542.0,644.0 L 584.0,645.0"/>
    <path d="M 234.0,772.0 L 256.0,794.0 L 270.0,822.0 L 272.0,987.0 L 282.0,1025.0"/>
    <path d="M 282.0,786.0 L 305.0,796.0 L 463.0,764.0 L 576.0,752.0 L 690.0,748.0 L 720.0,783.0 L 711.0,809.0 L 702.0,929.0 L 691.0,992.0 L 674.0,1023.0 L 592.0,986.0"/>
    <path d="M 329.0,905.0 L 363.0,907.0 L 579.0,869.0 L 619.0,876.0"/>
    <path d="M 378.0,801.0 L 404.0,824.0 L 414.0,987.0"/>
    <path d="M 513.0,776.0 L 540.0,805.0 L 529.0,999.0"/>
  </g>
</svg>
