<svg xmlns="http://www.w3.org/2000/svg" viewBox="0 0 1024 1024">
  <g style="fill:none;stroke:#000000;stroke-width:50;stroke-linecap:round;stroke-linejoin:round;" transform="scale(1, 1) translate(0, 0)">
    <path d="M 197.0,319.0 L 235.0,349.0 L 244.0,363.0 L 232.0,669.0 L 230.0,690.0 L 212.0,711.0"/>
    <path d="M 78.0,575.0 L 108.0,614.0 L 111.0,668.0 L 104.0,760.0 L 116.0,764.0 L 148.0,759.0 L 190.0,741.0 L 299.0,714.0 L 311.0,699.0"/>
    <path d="M 332.0,543.0 L 358.0,581.0 L 335.0,756.0"/>
    <path d="M 413.0,422.0 L 436.0,429.0 L 492.0,428.0 L 742.0,375.0 L 787.0,376.0"/>
    <path d="M 549.0,215.0 L 574.0,229.0 L 589.0,253.0 L 535.0,453.0 L 475.0,564.0 L 431.0,619.0 L 387.0,660.0"/>
    <path d="M 637.0,425.0 L 654.0,433.0 L 761.0,553.0 L 833.0,616.0 L 854.0,626.0 L 981.0,648.0"/>
    <path d="M 419.0,672.0 L 442.0,694.0 L 449.0,710.0 L 477.0,893.0"/>
    <path d="M 471.0,672.0 L 484.0,683.0 L 692.0,641.0 L 739.0,650.0 L 758.0,674.0 L 730.0,787.0 L 707.0,849.0 L 711.0,869.0"/>
    <path d="M 520.0,765.0 L 623.0,744.0 L 669.0,747.0"/>
    <path d="M 498.0,872.0 L 505.0,863.0 L 623.0,841.0 L 660.0,838.0 L 667.0,847.0"/>
    <path d="M 573.0,550.0 L 600.0,584.0 L 588.0,778.0 L 591.0,899.0 L 607.0,960.0 L 639.0,1001.0 L 706.0,1024.0 L 765.0,1028.0 L 819.0,1021.0 L 872.0,999.0 L 894.0,978.0 L 900.0,836.0"/>
  </g>
</svg>
