<svg xmlns="http://www.w3.org/2000/svg" viewBox="0 0 1024 1024">
  <g style="fill:none;stroke:#000000;stroke-width:50;stroke-linecap:round;stroke-linejoin:round;" transform="scale(1, 1) translate(0, 0)">
    <path d="M 215.0,281.0 L 262.0,320.0 L 254.0,662.0 L 248.0,681.0 L 236.0,694.0"/>
    <path d="M 97.0,564.0 L 130.0,606.0 L 126.0,757.0 L 165.0,752.0 L 258.0,711.0 L 324.0,690.0 L 342.0,670.0"/>
    <path d="M 354.0,533.0 L 387.0,571.0 L 370.0,739.0"/>
    <path d="M 732.0,179.0 L 748.0,207.0 L 748.0,219.0 L 698.0,287.0 L 596.0,377.0 L 530.0,417.0 L 468.0,444.0"/>
    <path d="M 524.0,259.0 L 750.0,365.0 L 788.0,393.0 L 805.0,420.0"/>
    <path d="M 436.0,548.0 L 487.0,554.0 L 721.0,510.0 L 873.0,491.0 L 946.0,506.0"/>
    <path d="M 611.0,431.0 L 628.0,449.0 L 630.0,472.0 L 596.0,555.0 L 544.0,643.0 L 441.0,770.0 L 342.0,851.0"/>
    <path d="M 565.0,659.0 L 571.0,673.0 L 563.0,861.0 L 554.0,936.0 L 537.0,1005.0 L 534.0,1053.0"/>
    <path d="M 592.0,660.0 L 604.0,668.0 L 637.0,664.0 L 645.0,658.0 L 766.0,638.0 L 784.0,644.0 L 806.0,664.0 L 802.0,719.0 L 813.0,934.0 L 809.0,1000.0 L 785.0,1040.0 L 764.0,1035.0 L 701.0,1001.0"/>
    <path d="M 595.0,789.0 L 604.0,776.0 L 669.0,758.0 L 716.0,757.0"/>
    <path d="M 589.0,890.0 L 598.0,878.0 L 672.0,862.0 L 701.0,860.0 L 723.0,866.0"/>
  </g>
</svg>
