<svg xmlns="http://www.w3.org/2000/svg" viewBox="0 0 1024 1024">
  <g style="fill:none;stroke:#000000;stroke-width:50;stroke-linecap:round;stroke-linejoin:round;" transform="scale(1, 1) translate(0, 0)">
    <path d="M 208.0,271.0 L 252.0,309.0 L 253.0,322.0 L 242.0,618.0 L 225.0,639.0"/>
    <path d="M 78.0,480.0 L 100.0,501.0 L 116.0,531.0 L 113.0,702.0 L 158.0,695.0 L 306.0,639.0 L 335.0,616.0"/>
    <path d="M 349.0,463.0 L 380.0,503.0 L 357.0,657.0 L 356.0,702.0"/>
    <path d="M 781.0,222.0 L 718.0,206.0 L 641.0,248.0 L 597.0,265.0 L 453.0,307.0"/>
    <path d="M 459.0,354.0 L 512.0,400.0 L 523.0,429.0"/>
    <path d="M 581.0,319.0 L 613.0,350.0 L 632.0,381.0"/>
    <path d="M 747.0,298.0 L 776.0,329.0 L 680.0,452.0 L 681.0,458.0"/>
    <path d="M 474.0,518.0 L 532.0,520.0 L 753.0,473.0 L 787.0,480.0 L 811.0,507.0 L 765.0,669.0 L 744.0,685.0"/>
    <path d="M 424.0,636.0 L 477.0,643.0 L 693.0,608.0 L 896.0,587.0 L 951.0,592.0 L 981.0,602.0"/>
    <path d="M 465.0,747.0 L 501.0,751.0 L 732.0,713.0 L 781.0,712.0 L 802.0,721.0"/>
    <path d="M 582.0,527.0 L 620.0,555.0 L 626.0,580.0 L 643.0,767.0 L 636.0,930.0 L 624.0,971.0 L 596.0,1004.0 L 493.0,959.0"/>
  </g>
</svg>
