<svg xmlns="http://www.w3.org/2000/svg" viewBox="0 0 1024 1024">
  <g style="fill:none;stroke:#000000;stroke-width:50;stroke-linecap:round;stroke-linejoin:round;" transform="scale(1, 1) translate(0, 0)">
    <path d="M 459.0,201.0 L 496.0,238.0 L 487.0,366.0 L 471.0,379.0"/>
    <path d="M 274.0,295.0 L 300.0,334.0 L 289.0,441.0 L 332.0,442.0 L 445.0,412.0 L 640.0,384.0 L 656.0,371.0"/>
    <path d="M 667.0,246.0 L 703.0,287.0 L 686.0,406.0 L 686.0,453.0"/>
    <path d="M 128.0,668.0 L 179.0,675.0 L 397.0,624.0 L 435.0,627.0"/>
    <path d="M 304.0,506.0 L 328.0,527.0 L 343.0,551.0 L 322.0,1024.0"/>
    <path d="M 310.0,672.0 L 300.0,681.0 L 282.0,735.0 L 237.0,799.0 L 180.0,867.0 L 98.0,943.0"/>
    <path d="M 362.0,732.0 L 417.0,777.0 L 436.0,802.0"/>
    <path d="M 583.0,578.0 L 555.0,589.0 L 530.0,636.0 L 492.0,686.0 L 448.0,725.0"/>
    <path d="M 610.0,495.0 L 631.0,500.0 L 643.0,510.0 L 722.0,608.0 L 836.0,717.0 L 943.0,736.0"/>
    <path d="M 598.0,719.0 L 622.0,755.0 L 613.0,776.0 L 571.0,843.0 L 514.0,913.0 L 499.0,947.0 L 543.0,949.0 L 660.0,918.0 L 715.0,908.0 L 728.0,912.0"/>
    <path d="M 688.0,825.0 L 791.0,935.0 L 808.0,974.0 L 809.0,999.0"/>
  </g>
</svg>
