<svg xmlns="http://www.w3.org/2000/svg" viewBox="0 0 1024 1024">
  <g style="fill:none;stroke:#000000;stroke-width:50;stroke-linecap:round;stroke-linejoin:round;" transform="scale(1, 1) translate(0, 0)">
    <path d="M 478.0,168.0 L 512.0,203.0 L 504.0,296.0 L 488.0,309.0"/>
    <path d="M 300.0,227.0 L 318.0,254.0 L 323.0,277.0 L 310.0,365.0 L 348.0,367.0 L 447.0,344.0 L 651.0,318.0 L 666.0,306.0"/>
    <path d="M 695.0,186.0 L 710.0,200.0 L 723.0,230.0 L 694.0,334.0 L 688.0,378.0"/>
    <path d="M 157.0,567.0 L 199.0,574.0 L 240.0,570.0 L 316.0,558.0 L 411.0,532.0 L 464.0,532.0"/>
    <path d="M 311.0,416.0 L 334.0,468.0 L 277.0,591.0 L 214.0,702.0 L 206.0,738.0 L 239.0,740.0 L 409.0,702.0 L 434.0,701.0 L 447.0,707.0"/>
    <path d="M 332.0,619.0 L 355.0,650.0 L 357.0,680.0 L 339.0,979.0 L 351.0,1053.0"/>
    <path d="M 97.0,873.0 L 151.0,889.0 L 450.0,798.0 L 485.0,782.0"/>
    <path d="M 787.0,452.0 L 722.0,450.0 L 651.0,505.0 L 601.0,530.0 L 597.0,542.0"/>
    <path d="M 518.0,516.0 L 541.0,531.0 L 558.0,552.0 L 555.0,726.0 L 542.0,799.0 L 519.0,865.0 L 489.0,913.0 L 442.0,966.0 L 402.0,991.0"/>
    <path d="M 589.0,659.0 L 849.0,609.0 L 879.0,611.0 L 907.0,621.0"/>
    <path d="M 693.0,666.0 L 731.0,687.0 L 739.0,698.0 L 731.0,1089.0"/>
  </g>
</svg>
