<svg xmlns="http://www.w3.org/2000/svg" viewBox="0 0 1024 1024">
  <g style="fill:none;stroke:#000000;stroke-width:50;stroke-linecap:round;stroke-linejoin:round;" transform="scale(1, 1) translate(0, 0)">
    <path d="M 471.0,190.0 L 509.0,227.0 L 502.0,340.0 L 486.0,354.0"/>
    <path d="M 292.0,264.0 L 317.0,306.0 L 302.0,412.0 L 342.0,414.0 L 531.0,373.0 L 654.0,359.0 L 663.0,347.0"/>
    <path d="M 693.0,223.0 L 724.0,267.0 L 701.0,348.0 L 691.0,413.0"/>
    <path d="M 318.0,565.0 L 327.0,574.0 L 425.0,566.0 L 644.0,519.0 L 671.0,516.0 L 694.0,521.0"/>
    <path d="M 243.0,539.0 L 265.0,559.0 L 278.0,586.0 L 255.0,765.0 L 216.0,887.0 L 175.0,964.0 L 124.0,1027.0"/>
    <path d="M 342.0,674.0 L 378.0,679.0 L 468.0,656.0 L 530.0,655.0"/>
    <path d="M 391.0,699.0 L 412.0,720.0 L 366.0,869.0 L 500.0,944.0 L 540.0,993.0"/>
    <path d="M 495.0,737.0 L 512.0,766.0 L 486.0,844.0 L 458.0,898.0 L 428.0,935.0 L 387.0,966.0 L 349.0,987.0 L 311.0,999.0"/>
    <path d="M 279.0,805.0 L 353.0,797.0 L 463.0,774.0 L 472.0,761.0 L 482.0,758.0"/>
    <path d="M 492.0,437.0 L 526.0,448.0 L 549.0,464.0 L 599.0,662.0 L 624.0,735.0 L 679.0,855.0 L 733.0,934.0 L 773.0,976.0 L 817.0,1007.0 L 858.0,1018.0 L 863.0,1009.0 L 876.0,962.0 L 887.0,857.0"/>
    <path d="M 723.0,641.0 L 745.0,673.0 L 705.0,779.0 L 644.0,862.0 L 555.0,928.0"/>
    <path d="M 724.0,462.0 L 774.0,496.0 L 790.0,512.0 L 802.0,538.0"/>
  </g>
</svg>
