<svg xmlns="http://www.w3.org/2000/svg" viewBox="0 0 1024 1024">
  <g style="fill:none;stroke:#000000;stroke-width:50;stroke-linecap:round;stroke-linejoin:round;" transform="scale(1, 1) translate(0, 0)">
    <path d="M 210.0,259.0 L 257.0,299.0 L 244.0,687.0 L 225.0,709.0"/>
    <path d="M 96.0,579.0 L 125.0,622.0 L 117.0,761.0 L 131.0,765.0 L 161.0,757.0 L 245.0,726.0 L 322.0,706.0 L 331.0,693.0"/>
    <path d="M 352.0,532.0 L 380.0,568.0 L 359.0,751.0"/>
    <path d="M 554.0,316.0 L 569.0,328.0 L 784.0,281.0 L 813.0,287.0 L 843.0,314.0 L 811.0,411.0 L 787.0,427.0"/>
    <path d="M 650.0,329.0 L 675.0,354.0 L 670.0,436.0 L 653.0,449.0"/>
    <path d="M 541.0,512.0 L 564.0,495.0 L 773.0,455.0 L 844.0,461.0"/>
    <path d="M 480.0,301.0 L 504.0,319.0 L 520.0,346.0 L 515.0,454.0 L 481.0,689.0 L 436.0,829.0 L 391.0,922.0 L 344.0,994.0 L 304.0,1042.0"/>
    <path d="M 560.0,597.0 L 579.0,620.0 L 587.0,643.0 L 588.0,728.0 L 568.0,933.0 L 573.0,994.0"/>
    <path d="M 609.0,605.0 L 617.0,614.0 L 642.0,614.0 L 784.0,581.0 L 811.0,596.0 L 827.0,614.0 L 833.0,928.0 L 822.0,965.0 L 825.0,1018.0"/>
    <path d="M 616.0,745.0 L 627.0,732.0 L 678.0,720.0 L 709.0,716.0 L 740.0,721.0"/>
    <path d="M 611.0,843.0 L 620.0,830.0 L 688.0,817.0 L 726.0,815.0 L 747.0,821.0"/>
    <path d="M 601.0,961.0 L 615.0,946.0 L 639.0,941.0 L 736.0,926.0 L 786.0,927.0"/>
  </g>
</svg>
