<svg xmlns="http://www.w3.org/2000/svg" viewBox="0 0 1024 1024">
  <g style="fill:none;stroke:#000000;stroke-width:50;stroke-linecap:round;stroke-linejoin:round;" transform="scale(1, 1) translate(0, 0)">
    <path d="M 485.0,160.0 L 519.0,196.0 L 508.0,317.0 L 491.0,329.0"/>
    <path d="M 287.0,238.0 L 313.0,272.0 L 316.0,288.0 L 304.0,390.0 L 340.0,391.0 L 432.0,367.0 L 636.0,336.0 L 673.0,335.0 L 685.0,346.0"/>
    <path d="M 731.0,182.0 L 757.0,230.0 L 705.0,381.0"/>
    <path d="M 235.0,499.0 L 270.0,528.0 L 274.0,542.0 L 271.0,684.0 L 247.0,821.0 L 221.0,890.0 L 183.0,956.0 L 150.0,996.0 L 111.0,1030.0 L 78.0,1048.0"/>
    <path d="M 305.0,512.0 L 316.0,523.0 L 403.0,512.0 L 682.0,450.0 L 711.0,454.0 L 733.0,474.0 L 715.0,540.0 L 700.0,642.0 L 699.0,788.0 L 710.0,868.0 L 738.0,948.0 L 768.0,995.0 L 814.0,1037.0 L 858.0,1058.0 L 913.0,1062.0 L 932.0,1056.0 L 937.0,1038.0 L 953.0,918.0"/>
    <path d="M 581.0,581.0 L 525.0,570.0 L 454.0,608.0 L 359.0,636.0"/>
    <path d="M 325.0,714.0 L 347.0,733.0 L 353.0,746.0 L 377.0,866.0"/>
    <path d="M 374.0,722.0 L 392.0,728.0 L 578.0,691.0 L 600.0,708.0 L 606.0,722.0 L 586.0,780.0 L 565.0,789.0"/>
    <path d="M 394.0,849.0 L 410.0,838.0 L 555.0,818.0 L 611.0,826.0"/>
    <path d="M 444.0,629.0 L 463.0,644.0 L 470.0,660.0 L 466.0,923.0 L 450.0,946.0"/>
    <path d="M 281.0,994.0 L 325.0,1011.0 L 340.0,1010.0 L 551.0,945.0 L 573.0,946.0"/>
    <path d="M 562.0,886.0 L 633.0,971.0 L 642.0,987.0 L 647.0,1025.0"/>
  </g>
</svg>
