<svg xmlns="http://www.w3.org/2000/svg" viewBox="0 0 1024 1024">
  <g style="fill:none;stroke:#000000;stroke-width:50;stroke-linecap:round;stroke-linejoin:round;" transform="scale(1, 1) translate(0, 0)">
    <path d="M 350.0,258.0 L 378.0,280.0 L 385.0,297.0 L 420.0,462.0"/>
    <path d="M 410.0,260.0 L 422.0,271.0 L 592.0,236.0 L 643.0,235.0 L 674.0,266.0 L 647.0,337.0 L 620.0,357.0"/>
    <path d="M 440.0,431.0 L 454.0,415.0 L 593.0,388.0 L 659.0,382.0 L 682.0,389.0"/>
    <path d="M 160.0,549.0 L 183.0,570.0 L 190.0,585.0 L 221.0,749.0"/>
    <path d="M 211.0,552.0 L 225.0,561.0 L 339.0,534.0 L 378.0,538.0 L 398.0,560.0 L 397.0,568.0 L 376.0,640.0 L 351.0,658.0"/>
    <path d="M 240.0,719.0 L 255.0,706.0 L 349.0,684.0 L 407.0,687.0"/>
    <path d="M 623.0,496.0 L 653.0,529.0 L 681.0,693.0"/>
    <path d="M 679.0,504.0 L 699.0,509.0 L 805.0,485.0 L 843.0,491.0 L 863.0,513.0 L 836.0,600.0 L 809.0,618.0"/>
    <path d="M 701.0,677.0 L 719.0,662.0 L 807.0,644.0 L 866.0,647.0"/>
    <path d="M 494.0,688.0 L 536.0,723.0 L 530.0,900.0 L 525.0,919.0 L 513.0,930.0"/>
    <path d="M 302.0,805.0 L 320.0,834.0 L 328.0,862.0 L 295.0,986.0 L 294.0,1002.0 L 311.0,1007.0 L 342.0,1005.0 L 444.0,974.0 L 603.0,938.0 L 721.0,923.0 L 741.0,904.0"/>
    <path d="M 766.0,736.0 L 797.0,780.0 L 759.0,1001.0"/>
  </g>
</svg>
