<svg xmlns="http://www.w3.org/2000/svg" viewBox="0 0 1024 1024">
  <g style="fill:none;stroke:#000000;stroke-width:50;stroke-linecap:round;stroke-linejoin:round;" transform="scale(1, 1) translate(0, 0)">
    <path d="M 194.0,271.0 L 232.0,301.0 L 242.0,326.0 L 232.0,638.0 L 230.0,659.0 L 212.0,681.0"/>
    <path d="M 75.0,544.0 L 96.0,567.0 L 105.0,588.0 L 107.0,635.0 L 97.0,736.0 L 111.0,740.0 L 141.0,734.0 L 189.0,713.0 L 295.0,682.0 L 311.0,665.0"/>
    <path d="M 329.0,504.0 L 360.0,543.0 L 339.0,728.0"/>
    <path d="M 408.0,367.0 L 429.0,373.0 L 489.0,372.0 L 582.0,354.0 L 792.0,329.0 L 840.0,332.0 L 871.0,344.0"/>
    <path d="M 504.0,267.0 L 541.0,297.0 L 564.0,441.0"/>
    <path d="M 697.0,202.0 L 713.0,210.0 L 733.0,242.0 L 699.0,363.0 L 671.0,436.0"/>
    <path d="M 443.0,484.0 L 457.0,516.0 L 428.0,614.0 L 425.0,648.0"/>
    <path d="M 485.0,533.0 L 605.0,503.0 L 771.0,479.0 L 799.0,490.0 L 815.0,507.0 L 816.0,518.0 L 750.0,586.0"/>
    <path d="M 435.0,705.0 L 486.0,712.0 L 729.0,662.0 L 776.0,659.0 L 806.0,664.0"/>
    <path d="M 589.0,573.0 L 618.0,610.0 L 616.0,855.0 L 609.0,959.0 L 622.0,1036.0"/>
    <path d="M 588.0,720.0 L 530.0,806.0 L 458.0,881.0 L 391.0,929.0 L 332.0,959.0"/>
    <path d="M 650.0,711.0 L 654.0,724.0 L 721.0,811.0 L 821.0,918.0 L 969.0,959.0"/>
  </g>
</svg>
