<svg xmlns="http://www.w3.org/2000/svg" viewBox="0 0 1024 1024">
  <g style="fill:none;stroke:#000000;stroke-width:50;stroke-linecap:round;stroke-linejoin:round;" transform="scale(1, 1) translate(0, 0)">
    <path d="M 187.0,301.0 L 224.0,329.0 L 234.0,345.0 L 228.0,643.0 L 226.0,664.0 L 208.0,688.0"/>
    <path d="M 65.0,553.0 L 89.0,576.0 L 101.0,600.0 L 101.0,747.0 L 143.0,742.0 L 187.0,720.0 L 293.0,685.0 L 311.0,666.0"/>
    <path d="M 326.0,509.0 L 357.0,547.0 L 338.0,735.0"/>
    <path d="M 441.0,326.0 L 503.0,363.0 L 527.0,400.0"/>
    <path d="M 737.0,271.0 L 751.0,302.0 L 665.0,375.0"/>
    <path d="M 415.0,477.0 L 465.0,485.0 L 736.0,434.0 L 776.0,430.0 L 814.0,436.0"/>
    <path d="M 564.0,195.0 L 591.0,214.0 L 607.0,235.0 L 592.0,547.0 L 591.0,641.0 L 597.0,668.0"/>
    <path d="M 572.0,494.0 L 554.0,513.0 L 536.0,549.0 L 475.0,617.0 L 401.0,667.0"/>
    <path d="M 622.0,487.0 L 712.0,573.0 L 799.0,635.0 L 961.0,661.0"/>
    <path d="M 514.0,681.0 L 530.0,695.0 L 541.0,720.0 L 495.0,857.0 L 682.0,964.0 L 733.0,1007.0 L 766.0,1051.0"/>
    <path d="M 640.0,726.0 L 667.0,748.0 L 671.0,760.0 L 665.0,809.0 L 633.0,892.0 L 595.0,945.0 L 550.0,980.0 L 514.0,999.0 L 443.0,1022.0 L 391.0,1026.0"/>
    <path d="M 306.0,788.0 L 354.0,797.0 L 598.0,761.0 L 827.0,742.0 L 896.0,756.0 L 906.0,765.0"/>
  </g>
</svg>
