<svg xmlns="http://www.w3.org/2000/svg" viewBox="0 0 1024 1024">
  <g style="fill:none;stroke:#000000;stroke-width:50;stroke-linecap:round;stroke-linejoin:round;" transform="scale(1, 1) translate(0, 0)">
    <path d="M 223.0,281.0 L 260.0,309.0 L 270.0,325.0 L 264.0,620.0 L 262.0,640.0 L 245.0,661.0"/>
    <path d="M 97.0,537.0 L 128.0,570.0 L 133.0,584.0 L 132.0,718.0 L 175.0,713.0 L 237.0,688.0 L 342.0,661.0 L 356.0,646.0"/>
    <path d="M 375.0,495.0 L 404.0,532.0 L 379.0,711.0"/>
    <path d="M 496.0,246.0 L 557.0,293.0 L 579.0,334.0"/>
    <path d="M 748.0,188.0 L 766.0,219.0 L 673.0,321.0 L 662.0,324.0 L 661.0,333.0"/>
    <path d="M 481.0,415.0 L 490.0,420.0 L 542.0,421.0 L 646.0,403.0 L 749.0,374.0 L 795.0,377.0"/>
    <path d="M 500.0,535.0 L 553.0,542.0 L 725.0,512.0 L 771.0,518.0"/>
    <path d="M 432.0,661.0 L 480.0,667.0 L 682.0,632.0 L 804.0,618.0 L 878.0,633.0"/>
    <path d="M 595.0,440.0 L 625.0,463.0 L 613.0,519.0 L 583.0,616.0 L 521.0,740.0 L 459.0,826.0 L 389.0,900.0 L 300.0,974.0 L 258.0,1000.0"/>
    <path d="M 536.0,775.0 L 550.0,769.0 L 591.0,771.0 L 674.0,760.0 L 751.0,741.0 L 806.0,745.0"/>
    <path d="M 631.0,788.0 L 653.0,811.0 L 650.0,909.0 L 634.0,920.0"/>
    <path d="M 422.0,964.0 L 478.0,973.0 L 608.0,954.0 L 862.0,932.0 L 939.0,953.0"/>
  </g>
</svg>
