<svg xmlns="http://www.w3.org/2000/svg" viewBox="0 0 1024 1024">
  <g style="fill:none;stroke:#000000;stroke-width:50;stroke-linecap:round;stroke-linejoin:round;" transform="scale(1, 1) translate(0, 0)">
    <path d="M 191.0,289.0 L 237.0,327.0 L 232.0,615.0 L 230.0,636.0 L 212.0,660.0"/>
    <path d="M 73.0,545.0 L 104.0,578.0 L 108.0,592.0 L 108.0,717.0 L 134.0,717.0 L 286.0,659.0 L 312.0,667.0"/>
    <path d="M 322.0,497.0 L 353.0,535.0 L 338.0,699.0"/>
    <path d="M 429.0,336.0 L 482.0,354.0 L 515.0,381.0"/>
    <path d="M 409.0,487.0 L 446.0,490.0 L 509.0,454.0 L 522.0,439.0 L 537.0,435.0"/>
    <path d="M 766.0,277.0 L 775.0,307.0 L 673.0,376.0"/>
    <path d="M 687.0,419.0 L 767.0,451.0 L 793.0,467.0 L 808.0,485.0"/>
    <path d="M 590.0,205.0 L 622.0,249.0 L 613.0,319.0 L 578.0,469.0 L 535.0,579.0 L 501.0,640.0 L 463.0,688.0 L 390.0,749.0 L 315.0,788.0"/>
    <path d="M 617.0,431.0 L 623.0,446.0 L 709.0,548.0 L 835.0,668.0 L 856.0,682.0 L 881.0,688.0 L 986.0,701.0"/>
    <path d="M 519.0,670.0 L 512.0,840.0 L 487.0,1013.0"/>
    <path d="M 535.0,670.0 L 551.0,675.0 L 682.0,646.0 L 721.0,670.0 L 719.0,722.0 L 733.0,936.0 L 726.0,994.0 L 709.0,1020.0 L 697.0,1018.0 L 620.0,973.0"/>
    <path d="M 544.0,778.0 L 552.0,766.0 L 580.0,760.0 L 616.0,755.0 L 656.0,760.0"/>
    <path d="M 539.0,868.0 L 547.0,856.0 L 583.0,850.0 L 639.0,846.0 L 660.0,851.0"/>
  </g>
</svg>
