<svg xmlns="http://www.w3.org/2000/svg" viewBox="0 0 1024 1024">
  <g style="fill:none;stroke:#000000;stroke-width:50;stroke-linecap:round;stroke-linejoin:round;" transform="scale(1, 1) translate(0, 0)">
    <path d="M 199.0,229.0 L 246.0,268.0 L 239.0,628.0 L 220.0,650.0"/>
    <path d="M 83.0,508.0 L 104.0,531.0 L 113.0,552.0 L 115.0,599.0 L 104.0,699.0 L 114.0,704.0 L 144.0,700.0 L 196.0,680.0 L 305.0,653.0 L 321.0,664.0"/>
    <path d="M 337.0,468.0 L 369.0,507.0 L 347.0,700.0"/>
    <path d="M 404.0,249.0 L 431.0,270.0 L 439.0,288.0 L 476.0,414.0"/>
    <path d="M 457.0,255.0 L 475.0,260.0 L 736.0,216.0 L 785.0,222.0 L 810.0,254.0 L 755.0,382.0"/>
    <path d="M 545.0,268.0 L 553.0,272.0 L 568.0,344.0 L 577.0,350.0"/>
    <path d="M 646.0,248.0 L 667.0,267.0 L 646.0,335.0 L 633.0,340.0"/>
    <path d="M 488.0,393.0 L 505.0,382.0 L 733.0,350.0"/>
    <path d="M 480.0,478.0 L 538.0,482.0 L 687.0,448.0 L 731.0,446.0"/>
    <path d="M 575.0,393.0 L 610.0,417.0 L 607.0,517.0 L 603.0,532.0 L 593.0,541.0"/>
    <path d="M 396.0,588.0 L 447.0,593.0 L 556.0,569.0 L 773.0,535.0 L 820.0,535.0 L 868.0,546.0"/>
    <path d="M 501.0,604.0 L 534.0,644.0 L 545.0,668.0"/>
    <path d="M 673.0,574.0 L 695.0,602.0 L 670.0,649.0 L 670.0,660.0 L 650.0,678.0"/>
    <path d="M 451.0,716.0 L 488.0,724.0 L 703.0,691.0 L 767.0,696.0"/>
    <path d="M 378.0,848.0 L 431.0,856.0 L 648.0,824.0 L 800.0,810.0 L 847.0,817.0 L 880.0,829.0"/>
    <path d="M 573.0,732.0 L 608.0,760.0 L 603.0,1078.0"/>
  </g>
</svg>
