<svg xmlns="http://www.w3.org/2000/svg" viewBox="0 0 1024 1024">
  <g style="fill:none;stroke:#000000;stroke-width:50;stroke-linecap:round;stroke-linejoin:round;" transform="scale(1, 1) translate(0, 0)">
    <path d="M 202.0,340.0 L 234.0,363.0 L 245.0,388.0 L 236.0,666.0 L 218.0,689.0"/>
    <path d="M 95.0,546.0 L 122.0,586.0 L 124.0,627.0 L 112.0,713.0 L 114.0,742.0 L 151.0,742.0 L 210.0,716.0 L 303.0,688.0 L 323.0,668.0"/>
    <path d="M 348.0,510.0 L 374.0,547.0 L 344.0,732.0"/>
    <path d="M 547.0,356.0 L 516.0,359.0 L 486.0,408.0 L 462.0,433.0 L 464.0,442.0"/>
    <path d="M 407.0,442.0 L 449.0,479.0 L 488.0,732.0 L 493.0,752.0 L 506.0,759.0"/>
    <path d="M 491.0,545.0 L 499.0,532.0 L 512.0,528.0 L 544.0,524.0 L 565.0,529.0"/>
    <path d="M 499.0,647.0 L 509.0,636.0 L 527.0,631.0 L 574.0,632.0"/>
    <path d="M 663.0,320.0 L 678.0,309.0 L 747.0,295.0 L 777.0,295.0"/>
    <path d="M 608.0,191.0 L 623.0,197.0 L 649.0,226.0 L 626.0,443.0 L 656.0,444.0 L 693.0,434.0 L 709.0,438.0 L 722.0,452.0 L 705.0,654.0 L 693.0,702.0 L 699.0,733.0"/>
    <path d="M 602.0,517.0 L 619.0,537.0 L 617.0,698.0"/>
    <path d="M 759.0,368.0 L 773.0,373.0 L 861.0,370.0 L 887.0,396.0 L 840.0,699.0 L 821.0,717.0"/>
    <path d="M 771.0,505.0 L 818.0,498.0 L 841.0,486.0"/>
    <path d="M 763.0,605.0 L 816.0,597.0 L 830.0,583.0"/>
    <path d="M 334.0,796.0 L 389.0,803.0 L 583.0,771.0 L 890.0,740.0 L 925.0,741.0 L 981.0,757.0"/>
    <path d="M 590.0,865.0 L 559.0,869.0 L 519.0,914.0 L 463.0,963.0 L 413.0,999.0 L 356.0,1026.0"/>
    <path d="M 762.0,857.0 L 870.0,960.0 L 882.0,978.0 L 898.0,1032.0"/>
  </g>
</svg>
