<svg xmlns="http://www.w3.org/2000/svg" viewBox="0 0 1024 1024">
  <g style="fill:none;stroke:#000000;stroke-width:50;stroke-linecap:round;stroke-linejoin:round;" transform="scale(1, 1) translate(0, 0)">
    <path d="M 155.0,380.0 L 186.0,384.0 L 250.0,375.0 L 358.0,343.0 L 427.0,334.0"/>
    <path d="M 271.0,395.0 L 299.0,419.0 L 299.0,455.0 L 293.0,612.0 L 270.0,640.0"/>
    <path d="M 97.0,722.0 L 122.0,731.0 L 159.0,734.0 L 440.0,586.0"/>
    <path d="M 495.0,336.0 L 563.0,341.0 L 863.0,281.0 L 917.0,288.0"/>
    <path d="M 611.0,363.0 L 641.0,383.0 L 644.0,391.0 L 619.0,470.0 L 572.0,583.0 L 616.0,587.0 L 772.0,559.0 L 793.0,563.0 L 815.0,579.0 L 824.0,589.0 L 826.0,606.0 L 815.0,699.0 L 797.0,780.0 L 762.0,876.0 L 736.0,921.0 L 685.0,965.0 L 584.0,901.0"/>
  </g>
</svg>
