<svg xmlns="http://www.w3.org/2000/svg" viewBox="0 0 1024 1024">
  <g style="fill:none;stroke:#000000;stroke-width:50;stroke-linecap:round;stroke-linejoin:round;" transform="scale(1, 1) translate(0, 0)">
    <path d="M 267.0,487.0 L 291.0,495.0 L 357.0,496.0 L 521.0,469.0 L 701.0,430.0 L 757.0,430.0"/>
    <path d="M 470.0,198.0 L 519.0,244.0 L 512.0,317.0 L 488.0,430.0 L 417.0,602.0 L 354.0,712.0 L 278.0,813.0 L 182.0,907.0 L 68.0,986.0"/>
    <path d="M 411.0,705.0 L 432.0,712.0 L 497.0,711.0 L 694.0,672.0 L 741.0,675.0"/>
    <path d="M 531.0,731.0 L 559.0,760.0 L 553.0,908.0 L 534.0,923.0"/>
    <path d="M 283.0,971.0 L 335.0,981.0 L 508.0,958.0 L 784.0,934.0 L 827.0,939.0 L 878.0,956.0"/>
  </g>
</svg>
