<svg xmlns="http://www.w3.org/2000/svg" viewBox="0 0 1024 1024">
  <g style="fill:none;stroke:#000000;stroke-width:50;stroke-linecap:round;stroke-linejoin:round;" transform="scale(1, 1) translate(0, 0)">
    <path d="M 466.0,341.0 L 498.0,394.0 L 452.0,520.0 L 401.0,616.0 L 394.0,641.0 L 515.0,753.0 L 535.0,780.0 L 545.0,825.0"/>
    <path d="M 618.0,322.0 L 651.0,374.0 L 610.0,491.0 L 560.0,598.0 L 635.0,683.0 L 670.0,732.0 L 691.0,768.0 L 700.0,818.0"/>
    <path d="M 787.0,299.0 L 820.0,356.0 L 782.0,450.0 L 744.0,526.0 L 718.0,564.0 L 710.0,590.0 L 776.0,652.0 L 837.0,722.0 L 857.0,752.0 L 867.0,799.0"/>
    <path d="M 223.0,258.0 L 313.0,315.0 L 332.0,348.0"/>
    <path d="M 105.0,562.0 L 153.0,559.0 L 270.0,510.0 L 294.0,515.0 L 310.0,529.0 L 304.0,569.0 L 270.0,629.0 L 263.0,661.0 L 268.0,690.0 L 303.0,767.0 L 311.0,799.0 L 312.0,815.0 L 300.0,830.0"/>
    <path d="M 108.0,876.0 L 151.0,888.0 L 246.0,858.0 L 298.0,854.0 L 335.0,859.0 L 618.0,960.0 L 772.0,988.0 L 824.0,983.0 L 935.0,955.0"/>
  </g>
</svg>
