<svg xmlns="http://www.w3.org/2000/svg" viewBox="0 0 1024 1024">
  <g style="fill:none;stroke:#000000;stroke-width:50;stroke-linecap:round;stroke-linejoin:round;" transform="scale(1, 1) translate(0, 0)">
    <path d="M 327.0,305.0 L 338.0,311.0 L 390.0,313.0 L 632.0,265.0 L 687.0,264.0"/>
    <path d="M 316.0,388.0 L 337.0,408.0 L 346.0,436.0 L 273.0,541.0 L 256.0,575.0 L 282.0,605.0 L 356.0,660.0 L 367.0,689.0"/>
    <path d="M 483.0,362.0 L 505.0,380.0 L 515.0,407.0 L 485.0,461.0 L 442.0,520.0 L 428.0,552.0 L 453.0,578.0 L 523.0,625.0 L 535.0,654.0"/>
    <path d="M 688.0,343.0 L 701.0,361.0 L 707.0,394.0 L 623.0,500.0 L 612.0,530.0 L 637.0,556.0 L 732.0,610.0 L 756.0,634.0 L 768.0,658.0"/>
    <path d="M 315.0,769.0 L 343.0,776.0 L 398.0,776.0 L 634.0,730.0 L 679.0,737.0"/>
    <path d="M 470.0,788.0 L 500.0,825.0 L 495.0,928.0 L 475.0,943.0"/>
    <path d="M 152.0,994.0 L 209.0,1007.0 L 420.0,980.0 L 778.0,954.0 L 835.0,961.0 L 885.0,980.0"/>
  </g>
</svg>
