<svg xmlns="http://www.w3.org/2000/svg" viewBox="0 0 1024 1024">
  <g style="fill:none;stroke:#000000;stroke-width:50;stroke-linecap:round;stroke-linejoin:round;" transform="scale(1, 1) translate(0, 0)">
    <path d="M 321.0,191.0 L 335.0,201.0 L 346.0,235.0 L 279.0,314.0 L 272.0,333.0 L 288.0,351.0 L 312.0,359.0 L 372.0,396.0 L 385.0,419.0"/>
    <path d="M 489.0,175.0 L 503.0,187.0 L 514.0,218.0 L 450.0,299.0 L 444.0,317.0 L 450.0,326.0 L 527.0,370.0 L 542.0,397.0"/>
    <path d="M 646.0,164.0 L 659.0,175.0 L 668.0,209.0 L 596.0,283.0 L 589.0,301.0 L 603.0,318.0 L 691.0,361.0 L 705.0,383.0"/>
    <path d="M 255.0,473.0 L 272.0,483.0 L 299.0,520.0 L 355.0,690.0"/>
    <path d="M 293.0,467.0 L 330.0,481.0 L 595.0,443.0 L 646.0,439.0 L 694.0,446.0 L 723.0,484.0 L 664.0,649.0"/>
    <path d="M 396.0,573.0 L 546.0,545.0 L 574.0,543.0 L 595.0,549.0"/>
    <path d="M 372.0,658.0 L 380.0,665.0 L 617.0,640.0 L 645.0,650.0"/>
    <path d="M 158.0,780.0 L 212.0,788.0 L 535.0,743.0 L 780.0,722.0 L 819.0,727.0 L 855.0,740.0"/>
    <path d="M 478.0,478.0 L 501.0,506.0 L 498.0,1088.0"/>
    <path d="M 471.0,773.0 L 411.0,850.0 L 320.0,928.0 L 221.0,985.0 L 156.0,1009.0"/>
    <path d="M 526.0,767.0 L 543.0,796.0 L 647.0,884.0 L 750.0,949.0 L 827.0,966.0 L 934.0,976.0"/>
  </g>
</svg>
