<svg xmlns="http://www.w3.org/2000/svg" viewBox="0 0 1024 1024">
  <g style="fill:none;stroke:#000000;stroke-width:50;stroke-linecap:round;stroke-linejoin:round;" transform="scale(1, 1) translate(0, 0)">
    <path d="M 145.0,366.0 L 200.0,373.0 L 325.0,339.0 L 341.0,341.0 L 361.0,354.0 L 340.0,409.0 L 264.0,528.0 L 189.0,600.0 L 99.0,655.0"/>
    <path d="M 317.0,508.0 L 348.0,513.0 L 384.0,536.0 L 410.0,560.0 L 420.0,581.0"/>
    <path d="M 156.0,682.0 L 207.0,686.0 L 327.0,657.0 L 372.0,658.0"/>
    <path d="M 253.0,702.0 L 276.0,725.0 L 273.0,822.0 L 256.0,836.0"/>
    <path d="M 75.0,896.0 L 128.0,914.0 L 421.0,811.0"/>
    <path d="M 546.0,227.0 L 633.0,268.0 L 668.0,306.0"/>
    <path d="M 465.0,414.0 L 502.0,420.0 L 546.0,416.0 L 740.0,370.0 L 793.0,369.0"/>
    <path d="M 565.0,440.0 L 597.0,469.0 L 560.0,538.0 L 512.0,596.0 L 506.0,620.0 L 552.0,619.0 L 710.0,575.0 L 718.0,583.0"/>
    <path d="M 691.0,507.0 L 773.0,587.0 L 788.0,629.0"/>
    <path d="M 454.0,721.0 L 485.0,750.0 L 488.0,764.0 L 468.0,888.0 L 448.0,936.0 L 431.0,960.0 L 408.0,983.0 L 370.0,1005.0"/>
    <path d="M 573.0,719.0 L 595.0,745.0 L 598.0,759.0 L 594.0,973.0"/>
    <path d="M 691.0,667.0 L 712.0,693.0 L 716.0,712.0 L 707.0,789.0 L 707.0,906.0 L 718.0,954.0 L 742.0,983.0 L 784.0,999.0 L 842.0,1002.0 L 877.0,995.0 L 907.0,980.0 L 920.0,966.0 L 918.0,817.0"/>
  </g>
</svg>
