<svg xmlns="http://www.w3.org/2000/svg" viewBox="0 0 1024 1024">
  <g style="fill:none;stroke:#000000;stroke-width:50;stroke-linecap:round;stroke-linejoin:round;" transform="scale(1, 1) translate(0, 0)">
    <path d="M 713.0,273.0 L 629.0,259.0 L 506.0,330.0 L 407.0,372.0 L 366.0,382.0 L 362.0,394.0"/>
    <path d="M 273.0,360.0 L 306.0,388.0 L 316.0,404.0 L 300.0,580.0 L 268.0,717.0 L 226.0,811.0 L 188.0,864.0 L 123.0,925.0 L 65.0,959.0"/>
    <path d="M 335.0,561.0 L 359.0,572.0 L 380.0,572.0 L 605.0,525.0 L 790.0,497.0 L 826.0,499.0 L 876.0,513.0"/>
    <path d="M 409.0,641.0 L 437.0,652.0 L 690.0,593.0 L 718.0,594.0 L 733.0,602.0 L 759.0,633.0 L 725.0,701.0 L 691.0,723.0"/>
    <path d="M 541.0,652.0 L 561.0,672.0 L 554.0,734.0 L 537.0,752.0"/>
    <path d="M 412.0,804.0 L 423.0,797.0 L 683.0,749.0 L 740.0,747.0 L 757.0,755.0"/>
    <path d="M 363.0,636.0 L 382.0,657.0 L 391.0,679.0 L 383.0,855.0 L 395.0,921.0 L 413.0,949.0 L 433.0,965.0 L 462.0,983.0 L 509.0,1000.0 L 599.0,1015.0 L 666.0,1014.0 L 750.0,1001.0 L 833.0,971.0 L 866.0,948.0 L 880.0,928.0 L 896.0,771.0"/>
  </g>
</svg>
