<svg xmlns="http://www.w3.org/2000/svg" viewBox="0 0 1024 1024">
  <g style="fill:none;stroke:#000000;stroke-width:50;stroke-linecap:round;stroke-linejoin:round;" transform="scale(1, 1) translate(0, 0)">
    <path d="M 172.0,383.0 L 188.0,396.0 L 204.0,423.0 L 204.0,715.0"/>
    <path d="M 334.0,258.0 L 377.0,294.0 L 380.0,306.0 L 382.0,509.0 L 373.0,621.0 L 361.0,686.0 L 336.0,768.0 L 283.0,868.0 L 202.0,963.0 L 141.0,1007.0"/>
    <path d="M 473.0,486.0 L 492.0,508.0 L 507.0,539.0 L 504.0,740.0 L 512.0,784.0"/>
    <path d="M 520.0,498.0 L 548.0,509.0 L 803.0,461.0 L 824.0,460.0 L 839.0,470.0 L 851.0,483.0 L 852.0,493.0 L 853.0,653.0 L 841.0,715.0 L 831.0,730.0 L 821.0,729.0 L 730.0,694.0"/>
    <path d="M 616.0,244.0 L 641.0,250.0 L 677.0,284.0 L 667.0,522.0 L 667.0,1058.0"/>
  </g>
</svg>
