<svg xmlns="http://www.w3.org/2000/svg" viewBox="0 0 1024 1024">
  <g style="fill:none;stroke:#000000;stroke-width:50;stroke-linecap:round;stroke-linejoin:round;" transform="scale(1, 1) translate(0, 0)">
    <path d="M 113.0,490.0 L 129.0,505.0 L 139.0,542.0 L 128.0,733.0"/>
    <path d="M 162.0,516.0 L 169.0,500.0 L 303.0,464.0 L 354.0,460.0 L 375.0,477.0 L 377.0,614.0 L 364.0,689.0 L 356.0,700.0 L 279.0,668.0"/>
    <path d="M 209.0,253.0 L 249.0,290.0 L 258.0,302.0 L 259.0,316.0 L 256.0,764.0 L 242.0,938.0 L 245.0,1026.0"/>
    <path d="M 534.0,487.0 L 549.0,468.0 L 735.0,423.0 L 778.0,414.0 L 808.0,422.0 L 824.0,441.0 L 744.0,530.0"/>
    <path d="M 466.0,443.0 L 495.0,473.0 L 499.0,493.0 L 493.0,616.0 L 476.0,728.0 L 457.0,799.0 L 412.0,906.0 L 362.0,984.0 L 344.0,1002.0"/>
    <path d="M 610.0,228.0 L 653.0,262.0 L 654.0,275.0 L 642.0,614.0 L 637.0,632.0 L 626.0,643.0"/>
    <path d="M 537.0,676.0 L 591.0,674.0 L 721.0,638.0 L 733.0,641.0 L 755.0,662.0 L 730.0,768.0 L 692.0,845.0 L 665.0,881.0 L 620.0,917.0 L 585.0,936.0 L 527.0,959.0 L 457.0,974.0"/>
    <path d="M 532.0,730.0 L 565.0,741.0 L 701.0,892.0 L 803.0,980.0 L 814.0,987.0 L 893.0,1000.0 L 957.0,1002.0"/>
  </g>
</svg>
