<svg xmlns="http://www.w3.org/2000/svg" viewBox="0 0 1024 1024">
  <g style="fill:none;stroke:#000000;stroke-width:50;stroke-linecap:round;stroke-linejoin:round;" transform="scale(1, 1) translate(0, 0)">
    <path d="M 109.0,470.0 L 129.0,488.0 L 136.0,521.0 L 132.0,625.0 L 122.0,669.0 L 124.0,721.0"/>
    <path d="M 156.0,478.0 L 181.0,485.0 L 328.0,453.0 L 359.0,461.0 L 372.0,472.0 L 375.0,613.0 L 364.0,677.0 L 356.0,688.0 L 350.0,687.0 L 278.0,659.0"/>
    <path d="M 211.0,204.0 L 256.0,249.0 L 262.0,267.0 L 253.0,400.0 L 255.0,494.0 L 244.0,804.0 L 227.0,949.0 L 228.0,1034.0"/>
    <path d="M 495.0,355.0 L 523.0,380.0 L 512.0,442.0 L 491.0,499.0 L 446.0,565.0"/>
    <path d="M 530.0,476.0 L 541.0,470.0 L 600.0,466.0 L 730.0,431.0 L 778.0,431.0"/>
    <path d="M 438.0,652.0 L 491.0,656.0 L 558.0,639.0 L 798.0,597.0 L 845.0,597.0 L 892.0,609.0"/>
    <path d="M 607.0,222.0 L 650.0,259.0 L 654.0,275.0 L 631.0,606.0 L 615.0,710.0 L 600.0,764.0 L 566.0,836.0 L 519.0,891.0 L 462.0,934.0 L 368.0,974.0"/>
    <path d="M 648.0,670.0 L 656.0,710.0 L 707.0,789.0 L 769.0,872.0 L 819.0,923.0 L 847.0,946.0 L 974.0,977.0"/>
  </g>
</svg>
