<svg xmlns="http://www.w3.org/2000/svg" viewBox="0 0 1024 1024">
  <g style="fill:none;stroke:#000000;stroke-width:50;stroke-linecap:round;stroke-linejoin:round;" transform="scale(1, 1) translate(0, 0)">
    <path d="M 343.0,237.0 L 402.0,241.0 L 606.0,203.0 L 640.0,210.0 L 665.0,237.0 L 632.0,355.0 L 608.0,373.0"/>
    <path d="M 349.0,335.0 L 393.0,341.0 L 530.0,317.0 L 575.0,318.0"/>
    <path d="M 329.0,438.0 L 350.0,445.0 L 608.0,402.0 L 650.0,401.0 L 673.0,410.0"/>
    <path d="M 220.0,500.0 L 230.0,536.0 L 221.0,568.0 L 183.0,648.0 L 179.0,693.0"/>
    <path d="M 257.0,557.0 L 271.0,550.0 L 555.0,502.0 L 802.0,477.0 L 837.0,493.0 L 851.0,516.0 L 778.0,604.0"/>
    <path d="M 311.0,661.0 L 334.0,679.0 L 343.0,701.0 L 342.0,804.0 L 330.0,868.0 L 330.0,915.0"/>
    <path d="M 359.0,665.0 L 369.0,674.0 L 389.0,677.0 L 646.0,641.0 L 685.0,643.0 L 696.0,651.0 L 707.0,674.0 L 705.0,814.0 L 693.0,859.0 L 683.0,873.0 L 672.0,871.0 L 586.0,827.0"/>
    <path d="M 475.0,555.0 L 505.0,578.0 L 515.0,607.0 L 507.0,1073.0"/>
  </g>
</svg>
