<svg xmlns="http://www.w3.org/2000/svg" viewBox="0 0 1024 1024">
  <g style="fill:none;stroke:#000000;stroke-width:50;stroke-linecap:round;stroke-linejoin:round;" transform="scale(1, 1) translate(0, 0)">
    <path d="M 442.0,167.0 L 515.0,205.0 L 547.0,242.0"/>
    <path d="M 339.0,337.0 L 348.0,342.0 L 410.0,344.0 L 683.0,289.0 L 728.0,290.0"/>
    <path d="M 387.0,387.0 L 424.0,430.0 L 434.0,460.0"/>
    <path d="M 580.0,342.0 L 604.0,363.0 L 607.0,376.0 L 552.0,477.0 L 539.0,488.0"/>
    <path d="M 200.0,505.0 L 214.0,539.0 L 208.0,567.0 L 173.0,650.0 L 169.0,703.0"/>
    <path d="M 248.0,542.0 L 261.0,555.0 L 269.0,555.0 L 422.0,523.0 L 685.0,484.0 L 789.0,473.0 L 832.0,481.0 L 856.0,504.0 L 861.0,518.0 L 778.0,605.0"/>
    <path d="M 313.0,653.0 L 340.0,675.0 L 347.0,708.0 L 343.0,790.0 L 333.0,842.0 L 334.0,894.0"/>
    <path d="M 373.0,664.0 L 387.0,676.0 L 665.0,632.0 L 675.0,632.0 L 692.0,645.0 L 704.0,667.0 L 703.0,751.0 L 700.0,812.0 L 688.0,854.0 L 679.0,865.0 L 671.0,864.0 L 583.0,838.0"/>
    <path d="M 472.0,539.0 L 514.0,565.0 L 511.0,1084.0"/>
  </g>
</svg>
