<svg xmlns="http://www.w3.org/2000/svg" viewBox="0 0 1024 1024">
  <g style="fill:none;stroke:#000000;stroke-width:50;stroke-linecap:round;stroke-linejoin:round;" transform="scale(1, 1) translate(0, 0)">
    <path d="M 133.0,467.0 L 153.0,485.0 L 160.0,546.0 L 156.0,620.0 L 142.0,696.0 L 143.0,735.0"/>
    <path d="M 183.0,474.0 L 195.0,484.0 L 205.0,483.0 L 365.0,451.0 L 378.0,451.0 L 403.0,472.0 L 404.0,610.0 L 396.0,661.0 L 387.0,674.0 L 375.0,674.0 L 301.0,655.0"/>
    <path d="M 237.0,211.0 L 280.0,252.0 L 287.0,271.0 L 280.0,416.0 L 278.0,771.0 L 262.0,935.0 L 264.0,1022.0"/>
    <path d="M 474.0,409.0 L 500.0,432.0 L 506.0,447.0 L 544.0,661.0"/>
    <path d="M 529.0,413.0 L 539.0,421.0 L 557.0,420.0 L 715.0,383.0 L 736.0,386.0 L 755.0,398.0 L 772.0,415.0 L 765.0,443.0 L 733.0,553.0 L 708.0,572.0"/>
    <path d="M 567.0,635.0 L 582.0,620.0 L 707.0,598.0 L 746.0,597.0 L 771.0,605.0"/>
    <path d="M 584.0,766.0 L 554.0,775.0 L 526.0,822.0 L 475.0,882.0 L 431.0,922.0 L 395.0,944.0"/>
    <path d="M 698.0,734.0 L 793.0,824.0 L 842.0,882.0 L 859.0,914.0 L 868.0,948.0"/>
  </g>
</svg>
