<svg xmlns="http://www.w3.org/2000/svg" viewBox="0 0 1024 1024">
  <g style="fill:none;stroke:#000000;stroke-width:50;stroke-linecap:round;stroke-linejoin:round;" transform="scale(1, 1) translate(0, 0)">
    <path d="M 473.0,182.0 L 513.0,222.0 L 506.0,365.0 L 489.0,377.0"/>
    <path d="M 316.0,263.0 L 378.0,308.0 L 397.0,343.0"/>
    <path d="M 676.0,211.0 L 693.0,245.0 L 591.0,334.0"/>
    <path d="M 200.0,396.0 L 211.0,429.0 L 175.0,516.0 L 171.0,564.0"/>
    <path d="M 239.0,429.0 L 256.0,439.0 L 300.0,436.0 L 590.0,387.0 L 734.0,371.0 L 775.0,372.0 L 800.0,383.0 L 820.0,412.0 L 750.0,489.0"/>
    <path d="M 332.0,494.0 L 357.0,514.0 L 365.0,528.0 L 396.0,653.0"/>
    <path d="M 384.0,493.0 L 398.0,504.0 L 602.0,469.0 L 615.0,476.0 L 636.0,502.0 L 615.0,551.0 L 587.0,568.0"/>
    <path d="M 413.0,617.0 L 423.0,624.0 L 583.0,593.0 L 639.0,599.0"/>
    <path d="M 285.0,725.0 L 314.0,749.0 L 318.0,775.0 L 306.0,946.0"/>
    <path d="M 350.0,766.0 L 367.0,749.0 L 653.0,709.0 L 694.0,711.0 L 715.0,734.0 L 717.0,746.0 L 717.0,870.0 L 703.0,913.0 L 690.0,917.0 L 657.0,909.0 L 591.0,882.0"/>
    <path d="M 462.0,638.0 L 501.0,663.0 L 499.0,1085.0"/>
  </g>
</svg>
