<svg xmlns="http://www.w3.org/2000/svg" viewBox="0 0 1024 1024">
  <g style="fill:none;stroke:#000000;stroke-width:50;stroke-linecap:round;stroke-linejoin:round;" transform="scale(1, 1) translate(0, 0)">
    <path d="M 127.0,453.0 L 152.0,474.0 L 159.0,501.0 L 159.0,572.0 L 146.0,711.0"/>
    <path d="M 181.0,460.0 L 195.0,471.0 L 380.0,440.0 L 407.0,464.0 L 407.0,611.0 L 392.0,659.0 L 366.0,658.0 L 309.0,639.0"/>
    <path d="M 238.0,211.0 L 280.0,251.0 L 290.0,275.0 L 280.0,758.0 L 263.0,935.0 L 264.0,1030.0"/>
    <path d="M 470.0,282.0 L 501.0,308.0 L 548.0,522.0"/>
    <path d="M 533.0,289.0 L 549.0,299.0 L 756.0,262.0 L 791.0,262.0 L 818.0,272.0 L 838.0,303.0 L 778.0,503.0"/>
    <path d="M 576.0,401.0 L 690.0,386.0 L 723.0,392.0"/>
    <path d="M 588.0,502.0 L 692.0,486.0 L 724.0,491.0"/>
    <path d="M 509.0,602.0 L 532.0,625.0 L 539.0,645.0 L 538.0,779.0 L 525.0,934.0 L 529.0,991.0"/>
    <path d="M 559.0,610.0 L 576.0,622.0 L 750.0,591.0 L 775.0,605.0 L 794.0,625.0 L 796.0,919.0 L 782.0,965.0 L 784.0,1027.0"/>
    <path d="M 563.0,740.0 L 574.0,731.0 L 623.0,720.0 L 719.0,709.0"/>
    <path d="M 560.0,838.0 L 579.0,830.0 L 712.0,810.0 L 725.0,813.0"/>
    <path d="M 554.0,959.0 L 575.0,948.0 L 735.0,931.0"/>
  </g>
</svg>
