<svg xmlns="http://www.w3.org/2000/svg" viewBox="0 0 1024 1024">
  <g style="fill:none;stroke:#000000;stroke-width:50;stroke-linecap:round;stroke-linejoin:round;" transform="scale(1, 1) translate(0, 0)">
    <path d="M 233.0,275.0 L 278.0,280.0 L 357.0,270.0 L 422.0,253.0 L 478.0,255.0"/>
    <path d="M 342.0,185.0 L 375.0,213.0 L 373.0,310.0 L 360.0,332.0"/>
    <path d="M 123.0,386.0 L 157.0,393.0 L 193.0,391.0 L 460.0,334.0 L 512.0,338.0"/>
    <path d="M 236.0,451.0 L 292.0,455.0 L 411.0,426.0 L 459.0,426.0"/>
    <path d="M 345.0,377.0 L 373.0,405.0 L 370.0,485.0 L 355.0,503.0"/>
    <path d="M 187.0,548.0 L 223.0,562.0 L 239.0,562.0 L 462.0,492.0"/>
    <path d="M 567.0,324.0 L 609.0,331.0 L 789.0,302.0 L 838.0,298.0 L 875.0,304.0"/>
    <path d="M 711.0,179.0 L 736.0,200.0 L 753.0,225.0 L 755.0,473.0 L 738.0,509.0 L 642.0,478.0"/>
    <path d="M 561.0,387.0 L 608.0,413.0 L 622.0,428.0"/>
    <path d="M 491.0,458.0 L 509.0,482.0 L 485.0,522.0 L 449.0,563.0"/>
    <path d="M 342.0,585.0 L 372.0,613.0 L 408.0,744.0"/>
    <path d="M 394.0,590.0 L 409.0,595.0 L 600.0,556.0 L 640.0,563.0 L 656.0,580.0 L 658.0,597.0 L 625.0,700.0 L 619.0,707.0 L 599.0,709.0"/>
    <path d="M 411.0,659.0 L 418.0,651.0 L 432.0,653.0 L 497.0,637.0 L 557.0,630.0 L 572.0,634.0"/>
    <path d="M 425.0,724.0 L 432.0,715.0 L 596.0,689.0"/>
    <path d="M 309.0,801.0 L 321.0,810.0 L 331.0,838.0 L 332.0,881.0 L 322.0,931.0 L 327.0,982.0"/>
    <path d="M 355.0,805.0 L 367.0,816.0 L 550.0,791.0 L 648.0,771.0 L 690.0,774.0 L 714.0,795.0 L 713.0,904.0 L 701.0,944.0 L 692.0,955.0 L 684.0,954.0 L 602.0,922.0"/>
    <path d="M 475.0,726.0 L 514.0,758.0 L 515.0,1033.0 L 512.0,1096.0 L 507.0,1104.0"/>
  </g>
</svg>
