<svg xmlns="http://www.w3.org/2000/svg" viewBox="0 0 1024 1024">
  <g style="fill:none;stroke:#000000;stroke-width:50;stroke-linecap:round;stroke-linejoin:round;" transform="scale(1, 1) translate(0, 0)">
    <path d="M 304.0,268.0 L 320.0,283.0 L 335.0,321.0 L 274.0,433.0 L 172.0,592.0 L 166.0,616.0 L 221.0,621.0 L 316.0,615.0 L 337.0,603.0"/>
    <path d="M 423.0,448.0 L 443.0,486.0 L 345.0,633.0 L 226.0,781.0 L 206.0,830.0 L 237.0,830.0 L 398.0,783.0 L 404.0,789.0"/>
    <path d="M 377.0,698.0 L 434.0,769.0 L 445.0,792.0 L 450.0,825.0"/>
    <path d="M 478.0,563.0 L 527.0,573.0 L 813.0,511.0 L 828.0,516.0 L 849.0,537.0 L 814.0,781.0 L 768.0,920.0 L 742.0,952.0 L 722.0,963.0 L 630.0,908.0"/>
    <path d="M 649.0,242.0 L 672.0,255.0 L 699.0,287.0 L 702.0,309.0 L 649.0,574.0 L 598.0,724.0 L 549.0,825.0 L 482.0,921.0 L 407.0,992.0 L 346.0,1027.0"/>
  </g>
</svg>
