<svg xmlns="http://www.w3.org/2000/svg" viewBox="0 0 1024 1024">
  <g style="fill:none;stroke:#000000;stroke-width:50;stroke-linecap:round;stroke-linejoin:round;" transform="scale(1, 1) translate(0, 0)">
    <path d="M 339.0,345.0 L 379.0,353.0 L 443.0,350.0 L 631.0,312.0 L 683.0,314.0"/>
    <path d="M 483.0,175.0 L 506.0,190.0 L 527.0,215.0 L 518.0,428.0 L 502.0,449.0"/>
    <path d="M 132.0,511.0 L 184.0,520.0 L 476.0,475.0 L 812.0,440.0 L 846.0,443.0 L 899.0,460.0"/>
    <path d="M 363.0,541.0 L 407.0,595.0 L 417.0,626.0"/>
    <path d="M 608.0,485.0 L 631.0,514.0 L 581.0,613.0 L 554.0,640.0"/>
    <path d="M 300.0,677.0 L 336.0,687.0 L 363.0,686.0 L 640.0,648.0 L 678.0,647.0 L 716.0,655.0"/>
    <path d="M 186.0,838.0 L 242.0,848.0 L 420.0,818.0 L 762.0,785.0 L 813.0,792.0 L 850.0,805.0"/>
    <path d="M 537.0,691.0 L 514.0,728.0 L 511.0,1093.0"/>
  </g>
</svg>
