<svg xmlns="http://www.w3.org/2000/svg" viewBox="0 0 1024 1024">
  <g style="fill:none;stroke:#000000;stroke-width:50;stroke-linecap:round;stroke-linejoin:round;" transform="scale(1, 1) translate(0, 0)">
    <path d="M 468.0,176.0 L 551.0,238.0 L 574.0,283.0"/>
    <path d="M 330.0,392.0 L 351.0,406.0 L 410.0,403.0 L 724.0,342.0 L 787.0,342.0"/>
    <path d="M 250.0,372.0 L 278.0,393.0 L 290.0,407.0 L 293.0,422.0 L 283.0,616.0 L 259.0,746.0 L 227.0,832.0 L 175.0,916.0 L 104.0,988.0 L 50.0,1022.0"/>
    <path d="M 692.0,524.0 L 704.0,538.0 L 716.0,574.0 L 625.0,651.0 L 483.0,747.0"/>
    <path d="M 436.0,506.0 L 477.0,556.0 L 461.0,704.0 L 462.0,841.0 L 476.0,932.0 L 485.0,952.0 L 505.0,972.0 L 528.0,985.0 L 581.0,998.0 L 675.0,1003.0 L 792.0,992.0 L 847.0,975.0 L 871.0,961.0 L 874.0,946.0 L 879.0,803.0"/>
  </g>
</svg>
