<svg xmlns="http://www.w3.org/2000/svg" viewBox="0 0 1024 1024">
  <g style="fill:none;stroke:#000000;stroke-width:50;stroke-linecap:round;stroke-linejoin:round;" transform="scale(1, 1) translate(0, 0)">
    <path d="M 465.0,180.0 L 566.0,237.0 L 596.0,280.0"/>
    <path d="M 331.0,417.0 L 360.0,427.0 L 435.0,423.0 L 702.0,365.0 L 734.0,360.0 L 767.0,363.0"/>
    <path d="M 255.0,386.0 L 277.0,406.0 L 293.0,435.0 L 274.0,613.0 L 246.0,735.0 L 211.0,834.0 L 167.0,919.0 L 113.0,996.0 L 81.0,1030.0"/>
    <path d="M 414.0,703.0 L 428.0,689.0 L 524.0,665.0 L 561.0,664.0"/>
    <path d="M 352.0,574.0 L 366.0,585.0 L 386.0,619.0 L 384.0,754.0 L 366.0,888.0 L 370.0,908.0 L 409.0,901.0 L 526.0,838.0"/>
    <path d="M 799.0,550.0 L 814.0,594.0 L 734.0,648.0 L 650.0,691.0 L 644.0,704.0"/>
    <path d="M 586.0,519.0 L 609.0,541.0 L 626.0,570.0 L 614.0,666.0 L 614.0,817.0 L 628.0,899.0 L 647.0,930.0 L 697.0,952.0 L 783.0,962.0 L 867.0,956.0 L 916.0,936.0 L 912.0,770.0"/>
  </g>
</svg>
