<svg xmlns="http://www.w3.org/2000/svg" viewBox="0 0 1024 1024">
  <g style="fill:none;stroke:#000000;stroke-width:50;stroke-linecap:round;stroke-linejoin:round;" transform="scale(1, 1) translate(0, 0)">
    <path d="M 459.0,169.0 L 545.0,217.0 L 574.0,257.0"/>
    <path d="M 333.0,368.0 L 366.0,382.0 L 406.0,379.0 L 592.0,352.0 L 697.0,328.0 L 739.0,322.0 L 775.0,326.0"/>
    <path d="M 271.0,350.0 L 301.0,384.0 L 306.0,404.0 L 279.0,573.0 L 234.0,743.0 L 208.0,808.0 L 147.0,918.0 L 97.0,985.0 L 50.0,1034.0"/>
    <path d="M 355.0,604.0 L 409.0,611.0 L 708.0,548.0 L 755.0,545.0 L 789.0,552.0"/>
    <path d="M 517.0,417.0 L 544.0,438.0 L 566.0,467.0 L 549.0,1074.0"/>
    <path d="M 530.0,617.0 L 521.0,627.0 L 506.0,675.0 L 428.0,786.0 L 331.0,880.0 L 253.0,930.0"/>
    <path d="M 591.0,640.0 L 603.0,665.0 L 651.0,722.0 L 736.0,812.0 L 809.0,877.0 L 867.0,896.0 L 992.0,916.0"/>
  </g>
</svg>
