<svg xmlns="http://www.w3.org/2000/svg" viewBox="0 0 1024 1024">
  <g style="fill:none;stroke:#000000;stroke-width:50;stroke-linecap:round;stroke-linejoin:round;" transform="scale(1, 1) translate(0, 0)">
    <path d="M 465.0,179.0 L 551.0,223.0 L 579.0,258.0"/>
    <path d="M 337.0,374.0 L 353.0,383.0 L 397.0,383.0 L 534.0,358.0 L 724.0,310.0 L 772.0,310.0"/>
    <path d="M 258.0,344.0 L 281.0,364.0 L 298.0,394.0 L 286.0,541.0 L 262.0,678.0 L 221.0,801.0 L 179.0,886.0 L 123.0,968.0 L 92.0,1002.0"/>
    <path d="M 691.0,461.0 L 628.0,452.0 L 546.0,506.0 L 449.0,547.0 L 447.0,554.0"/>
    <path d="M 372.0,539.0 L 412.0,576.0 L 416.0,706.0 L 412.0,795.0 L 403.0,845.0 L 405.0,882.0 L 456.0,871.0 L 571.0,801.0"/>
    <path d="M 475.0,683.0 L 513.0,684.0 L 576.0,672.0 L 730.0,614.0 L 774.0,603.0 L 798.0,607.0"/>
    <path d="M 542.0,532.0 L 572.0,543.0 L 598.0,572.0 L 611.0,645.0 L 649.0,745.0 L 724.0,860.0 L 793.0,930.0 L 848.0,964.0 L 893.0,971.0 L 908.0,927.0 L 920.0,823.0"/>
    <path d="M 540.0,883.0 L 608.0,930.0 L 632.0,970.0"/>
  </g>
</svg>
