<svg xmlns="http://www.w3.org/2000/svg" viewBox="0 0 1024 1024">
  <g style="fill:none;stroke:#000000;stroke-width:50;stroke-linecap:round;stroke-linejoin:round;" transform="scale(1, 1) translate(0, 0)">
    <path d="M 466.0,169.0 L 553.0,215.0 L 581.0,254.0"/>
    <path d="M 293.0,355.0 L 317.0,367.0 L 369.0,366.0 L 578.0,328.0 L 718.0,295.0 L 775.0,295.0"/>
    <path d="M 219.0,332.0 L 249.0,361.0 L 258.0,384.0 L 245.0,544.0 L 221.0,669.0 L 191.0,763.0 L 156.0,840.0 L 104.0,924.0 L 65.0,969.0"/>
    <path d="M 428.0,438.0 L 448.0,461.0 L 455.0,487.0 L 426.0,541.0 L 319.0,685.0 L 271.0,735.0 L 239.0,759.0"/>
    <path d="M 392.0,637.0 L 394.0,664.0 L 404.0,686.0 L 398.0,836.0 L 386.0,934.0 L 391.0,991.0"/>
    <path d="M 492.0,628.0 L 545.0,632.0 L 666.0,603.0 L 845.0,572.0 L 926.0,584.0"/>
    <path d="M 663.0,423.0 L 681.0,431.0 L 714.0,464.0 L 711.0,674.0 L 721.0,937.0 L 702.0,985.0 L 578.0,938.0"/>
    <path d="M 517.0,714.0 L 561.0,748.0 L 576.0,767.0 L 581.0,785.0"/>
  </g>
</svg>
