<svg xmlns="http://www.w3.org/2000/svg" viewBox="0 0 1024 1024">
  <g style="fill:none;stroke:#000000;stroke-width:50;stroke-linecap:round;stroke-linejoin:round;" transform="scale(1, 1) translate(0, 0)">
    <path d="M 450.0,179.0 L 536.0,220.0 L 572.0,258.0"/>
    <path d="M 327.0,351.0 L 341.0,364.0 L 413.0,362.0 L 709.0,305.0 L 755.0,305.0"/>
    <path d="M 253.0,327.0 L 286.0,363.0 L 288.0,378.0 L 260.0,580.0 L 229.0,699.0 L 205.0,765.0 L 159.0,859.0 L 92.0,958.0 L 49.0,1002.0"/>
    <path d="M 327.0,644.0 L 380.0,652.0 L 638.0,601.0 L 699.0,596.0 L 734.0,602.0"/>
    <path d="M 492.0,423.0 L 517.0,447.0 L 529.0,477.0 L 489.0,680.0 L 467.0,756.0 L 440.0,819.0 L 412.0,868.0 L 356.0,935.0 L 274.0,998.0 L 219.0,1023.0"/>
    <path d="M 562.0,674.0 L 597.0,721.0 L 586.0,784.0 L 581.0,874.0 L 585.0,944.0 L 594.0,974.0 L 628.0,1004.0 L 689.0,1019.0 L 783.0,1020.0 L 865.0,1007.0 L 893.0,995.0 L 904.0,989.0 L 906.0,974.0 L 912.0,850.0"/>
    <path d="M 735.0,697.0 L 745.0,708.0 L 757.0,743.0 L 731.0,781.0 L 606.0,916.0 L 545.0,964.0 L 521.0,976.0"/>
    <path d="M 677.0,427.0 L 758.0,476.0 L 787.0,515.0"/>
  </g>
</svg>
