<svg xmlns="http://www.w3.org/2000/svg" viewBox="0 0 1024 1024">
  <g style="fill:none;stroke:#000000;stroke-width:50;stroke-linecap:round;stroke-linejoin:round;" transform="scale(1, 1) translate(0, 0)">
    <path d="M 474.0,184.0 L 563.0,232.0 L 582.0,256.0"/>
    <path d="M 305.0,383.0 L 331.0,398.0 L 397.0,395.0 L 698.0,336.0 L 771.0,333.0"/>
    <path d="M 232.0,363.0 L 255.0,384.0 L 270.0,411.0 L 251.0,594.0 L 220.0,734.0 L 186.0,831.0 L 147.0,909.0 L 93.0,990.0 L 53.0,1034.0"/>
    <path d="M 760.0,476.0 L 726.0,468.0 L 698.0,470.0 L 637.0,512.0 L 552.0,552.0 L 543.0,550.0 L 537.0,559.0 L 516.0,559.0 L 505.0,570.0"/>
    <path d="M 500.0,667.0 L 560.0,671.0 L 793.0,628.0 L 839.0,634.0"/>
    <path d="M 635.0,537.0 L 658.0,550.0 L 666.0,570.0 L 662.0,767.0 L 658.0,782.0 L 646.0,792.0"/>
    <path d="M 520.0,829.0 L 555.0,835.0 L 762.0,803.0 L 831.0,817.0"/>
    <path d="M 305.0,558.0 L 387.0,536.0 L 417.0,545.0 L 410.0,583.0 L 364.0,671.0 L 375.0,682.0 L 411.0,686.0 L 443.0,706.0 L 405.0,806.0 L 363.0,872.0 L 304.0,940.0 L 253.0,978.0"/>
    <path d="M 280.0,802.0 L 324.0,804.0 L 366.0,819.0 L 564.0,935.0 L 646.0,976.0 L 740.0,1011.0 L 805.0,1015.0 L 960.0,997.0"/>
  </g>
</svg>
