<svg xmlns="http://www.w3.org/2000/svg" viewBox="0 0 1024 1024">
  <g style="fill:none;stroke:#000000;stroke-width:50;stroke-linecap:round;stroke-linejoin:round;" transform="scale(1, 1) translate(0, 0)">
    <path d="M 481.0,184.0 L 566.0,230.0 L 599.0,259.0"/>
    <path d="M 348.0,383.0 L 358.0,393.0 L 412.0,391.0 L 725.0,333.0 L 771.0,333.0"/>
    <path d="M 269.0,351.0 L 298.0,381.0 L 304.0,404.0 L 282.0,576.0 L 245.0,731.0 L 211.0,822.0 L 158.0,921.0 L 100.0,1002.0 L 65.0,1038.0"/>
    <path d="M 412.0,523.0 L 434.0,553.0 L 414.0,608.0 L 371.0,683.0 L 304.0,750.0"/>
    <path d="M 409.0,665.0 L 422.0,665.0 L 463.0,687.0 L 488.0,718.0"/>
    <path d="M 711.0,481.0 L 737.0,513.0 L 722.0,560.0 L 693.0,621.0 L 652.0,675.0 L 620.0,706.0"/>
    <path d="M 704.0,648.0 L 722.0,646.0 L 786.0,678.0 L 811.0,701.0 L 822.0,721.0"/>
    <path d="M 411.0,817.0 L 441.0,823.0 L 491.0,821.0 L 598.0,804.0 L 673.0,785.0 L 724.0,786.0"/>
    <path d="M 531.0,439.0 L 577.0,478.0 L 579.0,506.0 L 567.0,908.0 L 562.0,932.0 L 550.0,944.0"/>
    <path d="M 271.0,986.0 L 325.0,998.0 L 553.0,971.0 L 780.0,953.0 L 825.0,958.0 L 877.0,976.0"/>
  </g>
</svg>
