<svg xmlns="http://www.w3.org/2000/svg" viewBox="0 0 1024 1024">
  <g style="fill:none;stroke:#000000;stroke-width:50;stroke-linecap:round;stroke-linejoin:round;" transform="scale(1, 1) translate(0, 0)">
    <path d="M 490.0,167.0 L 567.0,207.0 L 590.0,236.0"/>
    <path d="M 337.0,323.0 L 361.0,332.0 L 457.0,330.0 L 745.0,279.0 L 791.0,282.0"/>
    <path d="M 259.0,295.0 L 289.0,325.0 L 298.0,344.0 L 280.0,522.0 L 254.0,659.0 L 224.0,757.0 L 191.0,833.0 L 117.0,958.0 L 57.0,1030.0"/>
    <path d="M 413.0,453.0 L 473.0,459.0 L 602.0,437.0 L 673.0,417.0 L 719.0,420.0"/>
    <path d="M 358.0,553.0 L 377.0,569.0 L 392.0,593.0 L 428.0,777.0"/>
    <path d="M 404.0,554.0 L 427.0,564.0 L 686.0,519.0 L 747.0,523.0 L 775.0,558.0 L 733.0,689.0 L 710.0,737.0 L 682.0,721.0"/>
    <path d="M 468.0,653.0 L 530.0,646.0 L 601.0,629.0 L 634.0,627.0 L 655.0,633.0"/>
    <path d="M 448.0,761.0 L 492.0,747.0 L 637.0,729.0 L 649.0,729.0 L 669.0,745.0"/>
    <path d="M 262.0,888.0 L 312.0,897.0 L 462.0,874.0 L 814.0,843.0 L 866.0,848.0 L 903.0,861.0"/>
    <path d="M 527.0,363.0 L 561.0,391.0 L 570.0,417.0 L 563.0,1092.0"/>
  </g>
</svg>
