<svg xmlns="http://www.w3.org/2000/svg" viewBox="0 0 1024 1024">
  <g style="fill:none;stroke:#000000;stroke-width:50;stroke-linecap:round;stroke-linejoin:round;" transform="scale(1, 1) translate(0, 0)">
    <path d="M 445.0,179.0 L 516.0,209.0 L 545.0,242.0"/>
    <path d="M 316.0,325.0 L 348.0,337.0 L 450.0,331.0 L 703.0,283.0 L 747.0,286.0"/>
    <path d="M 247.0,303.0 L 264.0,314.0 L 283.0,339.0 L 286.0,363.0 L 266.0,538.0 L 246.0,640.0 L 214.0,742.0 L 174.0,830.0 L 110.0,927.0 L 77.0,961.0"/>
    <path d="M 347.0,502.0 L 387.0,510.0 L 691.0,457.0 L 747.0,463.0"/>
    <path d="M 493.0,376.0 L 516.0,410.0 L 475.0,524.0 L 437.0,593.0 L 395.0,649.0 L 340.0,704.0 L 274.0,754.0 L 227.0,780.0"/>
    <path d="M 584.0,500.0 L 604.0,509.0 L 733.0,628.0 L 819.0,689.0 L 889.0,701.0 L 973.0,704.0"/>
    <path d="M 380.0,709.0 L 374.0,732.0 L 398.0,880.0 L 409.0,908.0"/>
    <path d="M 406.0,730.0 L 416.0,717.0 L 447.0,708.0 L 562.0,693.0 L 573.0,687.0 L 638.0,679.0 L 677.0,688.0 L 698.0,713.0 L 663.0,837.0 L 652.0,860.0 L 620.0,849.0"/>
    <path d="M 449.0,800.0 L 487.0,797.0 L 567.0,776.0 L 605.0,779.0"/>
    <path d="M 425.0,894.0 L 454.0,882.0 L 581.0,861.0 L 602.0,861.0 L 619.0,873.0"/>
    <path d="M 497.0,606.0 L 533.0,650.0 L 520.0,784.0 L 521.0,902.0 L 537.0,977.0 L 561.0,1006.0 L 599.0,1021.0 L 659.0,1028.0 L 761.0,1026.0 L 809.0,1014.0 L 832.0,1001.0 L 836.0,865.0"/>
  </g>
</svg>
