<svg xmlns="http://www.w3.org/2000/svg" viewBox="0 0 1024 1024">
  <g style="fill:none;stroke:#000000;stroke-width:50;stroke-linecap:round;stroke-linejoin:round;" transform="scale(1, 1) translate(0, 0)">
    <path d="M 461.0,175.0 L 549.0,218.0 L 578.0,253.0"/>
    <path d="M 299.0,359.0 L 334.0,369.0 L 395.0,366.0 L 695.0,308.0 L 743.0,309.0"/>
    <path d="M 224.0,332.0 L 262.0,371.0 L 262.0,393.0 L 246.0,555.0 L 221.0,694.0 L 191.0,785.0 L 155.0,862.0 L 103.0,947.0 L 61.0,998.0"/>
    <path d="M 373.0,510.0 L 383.0,518.0 L 420.0,503.0 L 498.0,489.0 L 514.0,494.0 L 535.0,516.0 L 492.0,689.0 L 494.0,710.0"/>
    <path d="M 373.0,618.0 L 382.0,605.0 L 395.0,601.0 L 429.0,596.0 L 449.0,600.0"/>
    <path d="M 369.0,712.0 L 379.0,699.0 L 455.0,684.0"/>
    <path d="M 310.0,496.0 L 337.0,524.0 L 343.0,542.0 L 346.0,698.0 L 331.0,913.0 L 368.0,913.0 L 461.0,860.0 L 464.0,850.0"/>
    <path d="M 446.0,786.0 L 494.0,836.0 L 514.0,867.0 L 524.0,902.0"/>
    <path d="M 653.0,486.0 L 661.0,472.0 L 714.0,450.0 L 756.0,449.0 L 768.0,462.0 L 752.0,515.0 L 744.0,579.0 L 748.0,606.0 L 757.0,619.0 L 778.0,633.0 L 818.0,639.0 L 899.0,625.0 L 930.0,630.0"/>
    <path d="M 600.0,456.0 L 621.0,474.0 L 624.0,484.0 L 624.0,559.0 L 606.0,641.0 L 571.0,700.0"/>
    <path d="M 597.0,745.0 L 644.0,741.0 L 744.0,708.0 L 764.0,717.0 L 777.0,734.0 L 761.0,799.0 L 740.0,852.0 L 686.0,932.0 L 658.0,955.0 L 610.0,980.0 L 516.0,1010.0 L 481.0,1014.0"/>
    <path d="M 556.0,794.0 L 583.0,805.0 L 612.0,827.0 L 722.0,944.0 L 793.0,996.0 L 818.0,1008.0 L 951.0,1033.0 L 965.0,1031.0"/>
  </g>
</svg>
