<svg xmlns="http://www.w3.org/2000/svg" viewBox="0 0 1024 1024">
  <g style="fill:none;stroke:#000000;stroke-width:50;stroke-linecap:round;stroke-linejoin:round;" transform="scale(1, 1) translate(0, 0)">
    <path d="M 480.0,187.0 L 545.0,226.0 L 574.0,265.0"/>
    <path d="M 323.0,340.0 L 346.0,352.0 L 398.0,353.0 L 619.0,324.0 L 709.0,306.0 L 761.0,307.0"/>
    <path d="M 255.0,324.0 L 291.0,360.0 L 295.0,388.0 L 280.0,534.0 L 249.0,707.0 L 195.0,855.0 L 138.0,954.0 L 77.0,1029.0"/>
    <path d="M 348.0,481.0 L 372.0,489.0 L 407.0,489.0 L 710.0,438.0 L 760.0,432.0 L 813.0,440.0"/>
    <path d="M 442.0,399.0 L 478.0,423.0 L 501.0,590.0"/>
    <path d="M 612.0,353.0 L 639.0,379.0 L 645.0,394.0 L 628.0,503.0 L 612.0,521.0"/>
    <path d="M 520.0,569.0 L 526.0,562.0 L 610.0,546.0 L 659.0,553.0"/>
    <path d="M 364.0,655.0 L 392.0,674.0 L 397.0,685.0 L 428.0,798.0"/>
    <path d="M 420.0,658.0 L 436.0,665.0 L 713.0,622.0 L 733.0,631.0 L 752.0,655.0 L 735.0,689.0 L 710.0,705.0"/>
    <path d="M 444.0,777.0 L 458.0,768.0 L 692.0,731.0 L 738.0,732.0 L 757.0,739.0"/>
    <path d="M 426.0,860.0 L 474.0,859.0 L 670.0,824.0 L 695.0,822.0 L 718.0,829.0"/>
    <path d="M 409.0,941.0 L 446.0,944.0 L 690.0,912.0 L 726.0,920.0"/>
    <path d="M 535.0,581.0 L 565.0,602.0 L 570.0,635.0 L 565.0,962.0 L 563.0,976.0 L 550.0,988.0"/>
    <path d="M 290.0,1028.0 L 344.0,1037.0 L 523.0,1014.0 L 797.0,992.0 L 847.0,998.0 L 883.0,1012.0"/>
  </g>
</svg>
