<svg xmlns="http://www.w3.org/2000/svg" viewBox="0 0 1024 1024">
  <g style="fill:none;stroke:#000000;stroke-width:50;stroke-linecap:round;stroke-linejoin:round;" transform="scale(1, 1) translate(0, 0)">
    <path d="M 430.0,159.0 L 507.0,199.0 L 530.0,228.0"/>
    <path d="M 280.0,324.0 L 303.0,333.0 L 388.0,326.0 L 685.0,260.0 L 747.0,256.0"/>
    <path d="M 203.0,302.0 L 226.0,320.0 L 245.0,350.0 L 240.0,502.0 L 216.0,672.0 L 192.0,760.0 L 144.0,877.0 L 92.0,964.0 L 60.0,1001.0"/>
    <path d="M 295.0,510.0 L 328.0,515.0 L 386.0,507.0 L 538.0,464.0 L 577.0,462.0"/>
    <path d="M 328.0,423.0 L 358.0,457.0 L 363.0,492.0 L 362.0,737.0 L 348.0,747.0"/>
    <path d="M 472.0,357.0 L 508.0,390.0 L 496.0,692.0 L 491.0,709.0 L 481.0,717.0"/>
    <path d="M 386.0,598.0 L 404.0,584.0 L 450.0,584.0"/>
    <path d="M 385.0,678.0 L 393.0,667.0 L 404.0,664.0 L 450.0,664.0"/>
    <path d="M 243.0,785.0 L 292.0,792.0 L 535.0,729.0 L 580.0,730.0"/>
    <path d="M 362.0,820.0 L 377.0,841.0 L 381.0,858.0 L 315.0,943.0 L 282.0,974.0 L 256.0,989.0"/>
    <path d="M 475.0,806.0 L 512.0,845.0 L 520.0,862.0"/>
    <path d="M 863.0,400.0 L 796.0,402.0 L 735.0,457.0 L 683.0,488.0 L 681.0,498.0"/>
    <path d="M 611.0,484.0 L 644.0,510.0 L 650.0,548.0 L 645.0,701.0 L 629.0,788.0 L 604.0,855.0 L 572.0,905.0 L 522.0,957.0 L 490.0,977.0"/>
    <path d="M 675.0,632.0 L 866.0,591.0 L 904.0,591.0 L 934.0,599.0"/>
    <path d="M 753.0,646.0 L 792.0,667.0 L 791.0,1097.0"/>
  </g>
</svg>
