<svg xmlns="http://www.w3.org/2000/svg" viewBox="0 0 1024 1024">
  <g style="fill:none;stroke:#000000;stroke-width:50;stroke-linecap:round;stroke-linejoin:round;" transform="scale(1, 1) translate(0, 0)">
    <path d="M 457.0,165.0 L 537.0,216.0 L 560.0,255.0"/>
    <path d="M 290.0,367.0 L 307.0,376.0 L 355.0,377.0 L 713.0,309.0 L 755.0,310.0"/>
    <path d="M 222.0,343.0 L 251.0,374.0 L 257.0,394.0 L 245.0,505.0 L 220.0,648.0 L 193.0,734.0 L 137.0,851.0 L 91.0,919.0 L 49.0,966.0"/>
    <path d="M 390.0,449.0 L 427.0,485.0 L 422.0,616.0 L 414.0,647.0 L 403.0,657.0"/>
    <path d="M 284.0,558.0 L 342.0,599.0 L 355.0,624.0"/>
    <path d="M 539.0,493.0 L 554.0,521.0 L 473.0,595.0"/>
    <path d="M 239.0,689.0 L 264.0,729.0 L 267.0,774.0 L 267.0,833.0 L 252.0,920.0 L 254.0,975.0"/>
    <path d="M 287.0,719.0 L 297.0,702.0 L 483.0,658.0 L 506.0,662.0 L 531.0,686.0 L 534.0,918.0 L 522.0,974.0 L 514.0,987.0 L 498.0,984.0 L 435.0,953.0 L 422.0,952.0"/>
    <path d="M 314.0,760.0 L 336.0,784.0 L 353.0,888.0"/>
    <path d="M 352.0,761.0 L 361.0,766.0 L 424.0,744.0 L 443.0,746.0 L 457.0,762.0 L 447.0,808.0 L 458.0,819.0"/>
    <path d="M 367.0,866.0 L 384.0,852.0 L 411.0,844.0 L 470.0,845.0"/>
    <path d="M 669.0,425.0 L 693.0,443.0 L 705.0,463.0 L 691.0,514.0 L 628.0,648.0 L 577.0,718.0"/>
    <path d="M 670.0,623.0 L 752.0,609.0 L 844.0,582.0 L 901.0,577.0"/>
    <path d="M 743.0,637.0 L 752.0,648.0 L 768.0,654.0 L 779.0,670.0 L 764.0,765.0 L 738.0,839.0 L 708.0,884.0 L 658.0,927.0 L 565.0,968.0"/>
    <path d="M 618.0,733.0 L 645.0,747.0 L 743.0,876.0 L 832.0,960.0 L 850.0,970.0 L 966.0,992.0"/>
  </g>
</svg>
