<svg xmlns="http://www.w3.org/2000/svg" viewBox="0 0 1024 1024">
  <g style="fill:none;stroke:#000000;stroke-width:50;stroke-linecap:round;stroke-linejoin:round;" transform="scale(1, 1) translate(0, 0)">
    <path d="M 460.0,188.0 L 538.0,214.0 L 575.0,249.0"/>
    <path d="M 348.0,306.0 L 381.0,317.0 L 418.0,316.0 L 712.0,269.0 L 741.0,271.0"/>
    <path d="M 268.0,275.0 L 306.0,316.0 L 297.0,424.0 L 264.0,614.0 L 238.0,701.0 L 196.0,796.0 L 150.0,877.0 L 77.0,966.0"/>
    <path d="M 522.0,325.0 L 584.0,365.0"/>
    <path d="M 384.0,407.0 L 429.0,415.0 L 693.0,372.0 L 754.0,378.0"/>
    <path d="M 362.0,482.0 L 384.0,498.0 L 397.0,518.0 L 436.0,686.0"/>
    <path d="M 411.0,481.0 L 430.0,490.0 L 685.0,444.0 L 741.0,452.0 L 762.0,476.0 L 719.0,630.0 L 719.0,657.0"/>
    <path d="M 475.0,522.0 L 494.0,535.0 L 518.0,620.0"/>
    <path d="M 517.0,535.0 L 524.0,528.0 L 596.0,509.0 L 629.0,509.0 L 641.0,524.0 L 629.0,553.0 L 613.0,565.0"/>
    <path d="M 530.0,608.0 L 544.0,599.0 L 610.0,586.0 L 653.0,591.0"/>
    <path d="M 454.0,674.0 L 500.0,658.0 L 656.0,633.0 L 668.0,633.0 L 680.0,644.0"/>
    <path d="M 683.0,711.0 L 661.0,701.0 L 623.0,696.0 L 564.0,724.0 L 497.0,741.0 L 489.0,749.0 L 474.0,746.0 L 466.0,754.0 L 450.0,752.0 L 431.0,759.0 L 423.0,754.0 L 412.0,763.0"/>
    <path d="M 280.0,844.0 L 333.0,852.0 L 543.0,823.0 L 788.0,801.0 L 853.0,819.0"/>
    <path d="M 535.0,754.0 L 561.0,779.0 L 554.0,988.0 L 565.0,1060.0"/>
    <path d="M 529.0,847.0 L 485.0,901.0 L 421.0,957.0 L 330.0,1008.0 L 301.0,1017.0"/>
    <path d="M 588.0,843.0 L 633.0,893.0 L 733.0,969.0 L 821.0,987.0 L 890.0,990.0"/>
  </g>
</svg>
