<svg xmlns="http://www.w3.org/2000/svg" viewBox="0 0 1024 1024">
  <g style="fill:none;stroke:#000000;stroke-width:50;stroke-linecap:round;stroke-linejoin:round;" transform="scale(1, 1) translate(0, 0)">
    <path d="M 481.0,175.0 L 554.0,215.0 L 576.0,245.0"/>
    <path d="M 292.0,331.0 L 307.0,340.0 L 390.0,342.0 L 584.0,313.0 L 727.0,283.0 L 787.0,286.0"/>
    <path d="M 216.0,304.0 L 247.0,333.0 L 254.0,345.0 L 255.0,367.0 L 234.0,559.0 L 214.0,666.0 L 190.0,743.0 L 145.0,843.0 L 89.0,930.0 L 57.0,966.0"/>
    <path d="M 369.0,386.0 L 386.0,412.0 L 361.0,465.0 L 330.0,506.0 L 294.0,535.0"/>
    <path d="M 386.0,463.0 L 421.0,464.0 L 453.0,456.0 L 490.0,468.0 L 427.0,568.0 L 408.0,580.0"/>
    <path d="M 276.0,591.0 L 295.0,605.0 L 306.0,630.0 L 294.0,793.0 L 258.0,912.0 L 232.0,960.0 L 206.0,993.0"/>
    <path d="M 330.0,621.0 L 345.0,608.0 L 486.0,580.0 L 500.0,582.0 L 525.0,606.0 L 528.0,934.0 L 515.0,966.0 L 437.0,950.0"/>
    <path d="M 346.0,715.0 L 382.0,716.0 L 451.0,695.0 L 475.0,696.0"/>
    <path d="M 335.0,803.0 L 381.0,805.0 L 440.0,789.0 L 483.0,787.0"/>
    <path d="M 386.0,617.0 L 411.0,637.0 L 403.0,947.0"/>
    <path d="M 589.0,421.0 L 627.0,427.0 L 761.0,393.0 L 800.0,387.0 L 815.0,393.0 L 825.0,411.0 L 815.0,482.0 L 800.0,531.0 L 768.0,567.0 L 721.0,538.0"/>
    <path d="M 667.0,440.0 L 688.0,457.0 L 683.0,475.0 L 643.0,550.0 L 601.0,596.0"/>
    <path d="M 599.0,655.0 L 619.0,676.0 L 605.0,725.0 L 571.0,770.0"/>
    <path d="M 631.0,721.0 L 642.0,714.0 L 704.0,708.0 L 802.0,682.0 L 841.0,682.0"/>
    <path d="M 552.0,835.0 L 594.0,843.0 L 689.0,823.0 L 876.0,801.0 L 938.0,814.0"/>
    <path d="M 692.0,619.0 L 727.0,650.0 L 727.0,1084.0"/>
  </g>
</svg>
