<svg xmlns="http://www.w3.org/2000/svg" viewBox="0 0 1024 1024">
  <g style="fill:none;stroke:#000000;stroke-width:50;stroke-linecap:round;stroke-linejoin:round;" transform="scale(1, 1) translate(0, 0)">
    <path d="M 445.0,186.0 L 533.0,217.0 L 567.0,247.0"/>
    <path d="M 331.0,324.0 L 340.0,335.0 L 349.0,336.0 L 421.0,333.0 L 514.0,320.0 L 699.0,280.0 L 759.0,282.0"/>
    <path d="M 252.0,300.0 L 283.0,329.0 L 291.0,351.0 L 280.0,499.0 L 254.0,660.0 L 235.0,733.0 L 196.0,829.0 L 145.0,923.0 L 81.0,1005.0"/>
    <path d="M 511.0,365.0 L 531.0,397.0 L 478.0,485.0 L 377.0,594.0 L 327.0,633.0 L 296.0,648.0 L 282.0,667.0"/>
    <path d="M 563.0,420.0 L 586.0,446.0 L 660.0,500.0 L 780.0,571.0 L 814.0,584.0 L 854.0,588.0 L 947.0,587.0"/>
    <path d="M 479.0,555.0 L 513.0,556.0 L 608.0,535.0 L 622.0,538.0"/>
    <path d="M 347.0,645.0 L 369.0,656.0 L 383.0,682.0 L 412.0,807.0"/>
    <path d="M 387.0,640.0 L 422.0,649.0 L 592.0,615.0 L 673.0,605.0 L 702.0,610.0 L 726.0,638.0 L 670.0,782.0"/>
    <path d="M 519.0,644.0 L 538.0,663.0 L 537.0,738.0 L 524.0,752.0"/>
    <path d="M 438.0,692.0 L 463.0,714.0 L 476.0,735.0"/>
    <path d="M 622.0,656.0 L 631.0,672.0 L 587.0,724.0"/>
    <path d="M 429.0,798.0 L 436.0,792.0 L 640.0,765.0 L 653.0,758.0"/>
    <path d="M 417.0,848.0 L 437.0,865.0 L 443.0,883.0 L 437.0,1059.0"/>
    <path d="M 470.0,879.0 L 476.0,872.0 L 600.0,843.0 L 627.0,840.0 L 650.0,848.0 L 662.0,866.0 L 662.0,983.0 L 653.0,1030.0 L 661.0,1093.0"/>
    <path d="M 462.0,958.0 L 474.0,948.0 L 524.0,937.0 L 577.0,939.0"/>
    <path d="M 459.0,1042.0 L 483.0,1031.0 L 561.0,1018.0 L 595.0,1017.0 L 605.0,1029.0"/>
  </g>
</svg>
