<svg xmlns="http://www.w3.org/2000/svg" viewBox="0 0 1024 1024">
  <g style="fill:none;stroke:#000000;stroke-width:50;stroke-linecap:round;stroke-linejoin:round;" transform="scale(1, 1) translate(0, 0)">
    <path d="M 779.0,283.0 L 714.0,275.0 L 646.0,323.0 L 547.0,371.0 L 537.0,370.0 L 500.0,389.0 L 486.0,388.0 L 476.0,398.0"/>
    <path d="M 438.0,569.0 L 490.0,575.0 L 761.0,511.0 L 805.0,504.0 L 854.0,509.0"/>
    <path d="M 611.0,364.0 L 641.0,384.0 L 647.0,427.0 L 643.0,701.0 L 624.0,726.0"/>
    <path d="M 465.0,768.0 L 502.0,775.0 L 751.0,736.0 L 830.0,752.0"/>
    <path d="M 136.0,369.0 L 181.0,376.0 L 226.0,366.0 L 294.0,340.0 L 321.0,337.0 L 337.0,346.0 L 323.0,391.0 L 261.0,515.0 L 248.0,562.0 L 335.0,567.0 L 357.0,589.0 L 302.0,743.0 L 260.0,815.0 L 173.0,899.0 L 81.0,955.0"/>
    <path d="M 101.0,733.0 L 167.0,736.0 L 208.0,749.0 L 488.0,905.0 L 586.0,949.0 L 700.0,987.0 L 788.0,987.0 L 956.0,964.0"/>
  </g>
</svg>
