<svg xmlns="http://www.w3.org/2000/svg" viewBox="0 0 1024 1024">
  <g style="fill:none;stroke:#000000;stroke-width:50;stroke-linecap:round;stroke-linejoin:round;" transform="scale(1, 1) translate(0, 0)">
    <path d="M 340.0,277.0 L 375.0,286.0 L 413.0,287.0 L 656.0,248.0 L 715.0,250.0"/>
    <path d="M 349.0,427.0 L 390.0,434.0 L 439.0,430.0 L 543.0,410.0 L 620.0,388.0 L 674.0,388.0"/>
    <path d="M 480.0,306.0 L 509.0,332.0 L 509.0,485.0 L 493.0,510.0"/>
    <path d="M 272.0,560.0 L 317.0,567.0 L 511.0,532.0 L 666.0,512.0 L 713.0,516.0 L 746.0,526.0"/>
    <path d="M 99.0,723.0 L 152.0,733.0 L 474.0,687.0 L 860.0,655.0 L 910.0,663.0 L 946.0,676.0"/>
    <path d="M 355.0,620.0 L 376.0,633.0 L 392.0,655.0 L 384.0,753.0 L 360.0,842.0 L 327.0,902.0 L 300.0,934.0 L 261.0,967.0 L 207.0,999.0"/>
    <path d="M 593.0,584.0 L 613.0,594.0 L 635.0,621.0 L 627.0,1085.0"/>
  </g>
</svg>
