<svg xmlns="http://www.w3.org/2000/svg" viewBox="0 0 1024 1024">
  <g style="fill:none;stroke:#000000;stroke-width:50;stroke-linecap:round;stroke-linejoin:round;" transform="scale(1, 1) translate(0, 0)">
    <path d="M 230.0,520.0 L 240.0,525.0 L 304.0,526.0 L 468.0,490.0 L 626.0,446.0 L 695.0,441.0"/>
    <path d="M 228.0,683.0 L 249.0,688.0 L 303.0,684.0 L 434.0,649.0 L 478.0,649.0"/>
    <path d="M 323.0,704.0 L 347.0,726.0 L 345.0,799.0 L 327.0,819.0"/>
    <path d="M 147.0,881.0 L 217.0,900.0 L 547.0,773.0"/>
    <path d="M 447.0,211.0 L 471.0,221.0 L 498.0,250.0 L 519.0,375.0 L 567.0,545.0 L 596.0,635.0 L 644.0,748.0 L 697.0,845.0 L 740.0,905.0 L 794.0,963.0 L 826.0,985.0 L 851.0,993.0 L 860.0,991.0 L 868.0,977.0 L 888.0,916.0 L 910.0,807.0"/>
    <path d="M 648.0,270.0 L 752.0,309.0 L 785.0,344.0"/>
  </g>
</svg>
