<svg xmlns="http://www.w3.org/2000/svg" viewBox="0 0 1024 1024">
  <g style="fill:none;stroke:#000000;stroke-width:50;stroke-linecap:round;stroke-linejoin:round;" transform="scale(1, 1) translate(0, 0)">
    <path d="M 233.0,299.0 L 301.0,296.0 L 403.0,267.0 L 431.0,273.0 L 453.0,297.0 L 452.0,304.0 L 420.0,405.0 L 392.0,424.0"/>
    <path d="M 260.0,473.0 L 277.0,480.0 L 390.0,451.0 L 451.0,453.0"/>
    <path d="M 206.0,458.0 L 233.0,488.0 L 239.0,507.0 L 211.0,653.0 L 254.0,655.0 L 356.0,630.0 L 407.0,625.0 L 436.0,631.0 L 460.0,662.0 L 420.0,854.0 L 405.0,899.0 L 375.0,948.0 L 335.0,976.0 L 242.0,919.0"/>
    <path d="M 682.0,211.0 L 714.0,235.0 L 739.0,265.0 L 742.0,279.0 L 737.0,367.0 L 740.0,710.0 L 727.0,943.0 L 730.0,1044.0"/>
  </g>
</svg>
