<svg xmlns="http://www.w3.org/2000/svg" viewBox="0 0 1024 1024">
  <g style="fill:none;stroke:#000000;stroke-width:50;stroke-linecap:round;stroke-linejoin:round;" transform="scale(1, 1) translate(0, 0)">
    <path d="M 213.0,332.0 L 258.0,333.0 L 358.0,307.0 L 378.0,312.0 L 389.0,323.0 L 399.0,335.0 L 362.0,441.0 L 334.0,457.0"/>
    <path d="M 246.0,523.0 L 259.0,506.0 L 332.0,485.0 L 392.0,486.0"/>
    <path d="M 184.0,479.0 L 211.0,510.0 L 216.0,545.0 L 191.0,661.0 L 238.0,663.0 L 300.0,647.0 L 333.0,645.0 L 355.0,650.0 L 378.0,675.0 L 348.0,862.0 L 324.0,930.0 L 307.0,957.0 L 272.0,983.0 L 171.0,920.0"/>
    <path d="M 736.0,323.0 L 751.0,348.0 L 754.0,373.0 L 675.0,459.0 L 631.0,495.0 L 605.0,508.0"/>
    <path d="M 434.0,620.0 L 487.0,624.0 L 645.0,587.0 L 784.0,565.0 L 827.0,563.0 L 881.0,577.0"/>
    <path d="M 510.0,265.0 L 544.0,287.0 L 555.0,300.0 L 556.0,313.0 L 560.0,569.0 L 552.0,816.0 L 542.0,916.0 L 548.0,962.0 L 587.0,946.0 L 688.0,858.0"/>
    <path d="M 586.0,630.0 L 602.0,639.0 L 706.0,760.0 L 819.0,859.0 L 950.0,880.0"/>
  </g>
</svg>
