<svg xmlns="http://www.w3.org/2000/svg" viewBox="0 0 1024 1024">
  <g style="fill:none;stroke:#000000;stroke-width:50;stroke-linecap:round;stroke-linejoin:round;" transform="scale(1, 1) translate(0, 0)">
    <path d="M 302.0,265.0 L 367.0,299.0 L 391.0,330.0"/>
    <path d="M 654.0,199.0 L 670.0,232.0 L 582.0,310.0"/>
    <path d="M 318.0,418.0 L 349.0,425.0 L 392.0,424.0 L 585.0,383.0 L 651.0,380.0"/>
    <path d="M 190.0,563.0 L 241.0,571.0 L 482.0,528.0 L 736.0,497.0 L 785.0,503.0 L 820.0,515.0"/>
    <path d="M 457.0,215.0 L 481.0,236.0 L 494.0,262.0 L 448.0,446.0 L 403.0,554.0 L 345.0,640.0 L 295.0,690.0 L 224.0,743.0 L 121.0,790.0"/>
    <path d="M 602.0,543.0 L 631.0,553.0 L 729.0,641.0 L 798.0,689.0 L 881.0,706.0 L 979.0,714.0"/>
    <path d="M 384.0,636.0 L 435.0,637.0 L 565.0,610.0 L 586.0,612.0 L 615.0,639.0 L 594.0,685.0 L 571.0,696.0"/>
    <path d="M 401.0,768.0 L 425.0,752.0 L 552.0,730.0 L 598.0,729.0 L 623.0,738.0"/>
    <path d="M 355.0,716.0 L 372.0,742.0 L 373.0,765.0 L 338.0,847.0 L 337.0,865.0 L 373.0,870.0 L 478.0,846.0 L 615.0,830.0 L 657.0,835.0 L 687.0,864.0 L 641.0,982.0 L 613.0,1030.0 L 596.0,1047.0 L 565.0,1058.0 L 474.0,1005.0"/>
  </g>
</svg>
