<svg xmlns="http://www.w3.org/2000/svg" viewBox="0 0 1024 1024">
  <g style="fill:none;stroke:#000000;stroke-width:50;stroke-linecap:round;stroke-linejoin:round;" transform="scale(1, 1) translate(0, 0)">
    <path d="M 185.0,287.0 L 229.0,286.0 L 341.0,256.0 L 370.0,264.0 L 389.0,283.0 L 355.0,371.0 L 333.0,385.0"/>
    <path d="M 224.0,431.0 L 246.0,440.0 L 324.0,413.0 L 382.0,415.0"/>
    <path d="M 181.0,418.0 L 198.0,441.0 L 205.0,476.0 L 161.0,614.0 L 191.0,618.0 L 283.0,602.0 L 320.0,612.0 L 340.0,634.0 L 312.0,816.0 L 278.0,892.0 L 244.0,914.0 L 167.0,869.0"/>
    <path d="M 463.0,276.0 L 491.0,284.0 L 532.0,281.0 L 788.0,229.0 L 854.0,234.0"/>
    <path d="M 493.0,308.0 L 528.0,336.0 L 532.0,369.0 L 529.0,647.0 L 513.0,660.0"/>
    <path d="M 700.0,276.0 L 745.0,298.0 L 752.0,304.0 L 754.0,321.0 L 743.0,1087.0"/>
    <path d="M 563.0,427.0 L 575.0,415.0 L 630.0,403.0 L 672.0,406.0"/>
    <path d="M 561.0,554.0 L 574.0,537.0 L 600.0,528.0 L 649.0,521.0 L 672.0,526.0"/>
    <path d="M 385.0,699.0 L 435.0,706.0 L 622.0,671.0 L 867.0,639.0 L 904.0,639.0 L 968.0,654.0"/>
  </g>
</svg>
