<svg xmlns="http://www.w3.org/2000/svg" viewBox="0 0 1024 1024">
  <g style="fill:none;stroke:#000000;stroke-width:50;stroke-linecap:round;stroke-linejoin:round;" transform="scale(1, 1) translate(0, 0)">
    <path d="M 179.0,364.0 L 219.0,362.0 L 328.0,328.0 L 344.0,328.0 L 361.0,340.0 L 372.0,353.0 L 371.0,361.0 L 344.0,445.0 L 338.0,458.0 L 310.0,478.0"/>
    <path d="M 225.0,544.0 L 237.0,524.0 L 301.0,506.0 L 353.0,500.0 L 377.0,506.0"/>
    <path d="M 169.0,495.0 L 194.0,524.0 L 198.0,551.0 L 174.0,657.0 L 201.0,661.0 L 270.0,640.0 L 313.0,639.0 L 343.0,647.0 L 361.0,671.0 L 328.0,855.0 L 312.0,909.0 L 281.0,957.0 L 253.0,976.0 L 159.0,920.0"/>
    <path d="M 512.0,335.0 L 589.0,335.0 L 723.0,297.0 L 789.0,292.0"/>
    <path d="M 493.0,422.0 L 515.0,438.0 L 526.0,463.0 L 485.0,553.0 L 462.0,583.0 L 453.0,612.0 L 477.0,640.0 L 538.0,688.0 L 548.0,719.0"/>
    <path d="M 629.0,399.0 L 645.0,407.0 L 662.0,439.0 L 595.0,570.0 L 605.0,593.0 L 672.0,654.0 L 680.0,686.0"/>
    <path d="M 798.0,369.0 L 816.0,392.0 L 821.0,413.0 L 745.0,534.0 L 740.0,553.0 L 755.0,571.0 L 846.0,637.0 L 864.0,671.0"/>
    <path d="M 479.0,797.0 L 530.0,804.0 L 719.0,764.0 L 770.0,759.0 L 802.0,765.0"/>
    <path d="M 610.0,812.0 L 635.0,837.0 L 631.0,942.0 L 612.0,959.0"/>
    <path d="M 394.0,1007.0 L 445.0,1016.0 L 602.0,993.0 L 844.0,968.0 L 923.0,987.0"/>
  </g>
</svg>
