<svg xmlns="http://www.w3.org/2000/svg" viewBox="0 0 1024 1024">
  <g style="fill:none;stroke:#000000;stroke-width:50;stroke-linecap:round;stroke-linejoin:round;" transform="scale(1, 1) translate(0, 0)">
    <path d="M 200.0,328.0 L 235.0,330.0 L 346.0,300.0 L 363.0,302.0 L 379.0,315.0 L 389.0,329.0 L 352.0,444.0 L 323.0,464.0"/>
    <path d="M 221.0,499.0 L 246.0,507.0 L 323.0,489.0 L 366.0,486.0 L 387.0,491.0"/>
    <path d="M 177.0,491.0 L 199.0,514.0 L 206.0,537.0 L 178.0,662.0 L 209.0,665.0 L 252.0,651.0 L 311.0,647.0 L 336.0,655.0 L 354.0,676.0 L 323.0,865.0 L 301.0,933.0 L 283.0,964.0 L 245.0,994.0 L 167.0,944.0"/>
    <path d="M 468.0,347.0 L 495.0,366.0 L 506.0,385.0 L 543.0,541.0"/>
    <path d="M 531.0,350.0 L 552.0,358.0 L 711.0,318.0 L 735.0,321.0 L 765.0,352.0 L 737.0,430.0 L 711.0,442.0"/>
    <path d="M 564.0,512.0 L 578.0,498.0 L 701.0,475.0 L 749.0,472.0 L 771.0,480.0"/>
    <path d="M 440.0,639.0 L 470.0,663.0 L 512.0,814.0"/>
    <path d="M 498.0,641.0 L 508.0,650.0 L 537.0,647.0 L 673.0,622.0 L 734.0,604.0 L 770.0,602.0 L 791.0,610.0 L 809.0,635.0 L 789.0,690.0 L 763.0,704.0"/>
    <path d="M 527.0,794.0 L 543.0,779.0 L 754.0,736.0 L 805.0,733.0 L 823.0,740.0"/>
    <path d="M 604.0,517.0 L 632.0,533.0 L 640.0,561.0 L 638.0,867.0 L 621.0,890.0"/>
    <path d="M 410.0,942.0 L 461.0,962.0 L 753.0,882.0 L 783.0,882.0"/>
    <path d="M 750.0,809.0 L 840.0,915.0 L 862.0,958.0 L 866.0,987.0"/>
  </g>
</svg>
