<svg xmlns="http://www.w3.org/2000/svg" viewBox="0 0 1024 1024">
  <g style="fill:none;stroke:#000000;stroke-width:50;stroke-linecap:round;stroke-linejoin:round;" transform="scale(1, 1) translate(0, 0)">
    <path d="M 166.0,332.0 L 230.0,332.0 L 299.0,314.0 L 331.0,319.0 L 350.0,341.0 L 347.0,351.0 L 318.0,427.0 L 293.0,442.0"/>
    <path d="M 208.0,497.0 L 218.0,487.0 L 279.0,471.0 L 343.0,471.0"/>
    <path d="M 150.0,459.0 L 164.0,471.0 L 178.0,503.0 L 154.0,623.0 L 169.0,626.0 L 228.0,611.0 L 283.0,607.0 L 304.0,612.0 L 325.0,638.0 L 300.0,797.0 L 279.0,874.0 L 256.0,916.0 L 222.0,943.0 L 142.0,895.0"/>
    <path d="M 476.0,279.0 L 537.0,326.0 L 562.0,370.0"/>
    <path d="M 701.0,231.0 L 715.0,238.0 L 732.0,262.0 L 659.0,384.0 L 628.0,426.0 L 616.0,432.0"/>
    <path d="M 412.0,465.0 L 443.0,502.0 L 481.0,705.0"/>
    <path d="M 452.0,464.0 L 475.0,474.0 L 723.0,435.0 L 762.0,436.0 L 788.0,446.0 L 807.0,472.0 L 767.0,619.0 L 751.0,657.0 L 755.0,677.0"/>
    <path d="M 515.0,573.0 L 653.0,548.0 L 680.0,546.0 L 701.0,552.0"/>
    <path d="M 502.0,680.0 L 510.0,672.0 L 531.0,667.0 L 716.0,636.0"/>
    <path d="M 361.0,808.0 L 417.0,815.0 L 666.0,776.0 L 831.0,759.0 L 872.0,764.0 L 907.0,776.0"/>
    <path d="M 564.0,479.0 L 591.0,491.0 L 612.0,511.0 L 607.0,1092.0"/>
  </g>
</svg>
