<svg xmlns="http://www.w3.org/2000/svg" viewBox="0 0 1024 1024">
  <g style="fill:none;stroke:#000000;stroke-width:50;stroke-linecap:round;stroke-linejoin:round;" transform="scale(1, 1) translate(0, 0)">
    <path d="M 183.0,337.0 L 209.0,338.0 L 299.0,305.0 L 316.0,306.0 L 340.0,329.0 L 305.0,435.0 L 278.0,451.0"/>
    <path d="M 207.0,511.0 L 222.0,492.0 L 250.0,483.0 L 289.0,475.0 L 328.0,476.0"/>
    <path d="M 152.0,468.0 L 177.0,495.0 L 181.0,527.0 L 153.0,654.0 L 186.0,655.0 L 233.0,641.0 L 271.0,644.0 L 294.0,665.0 L 293.0,690.0 L 268.0,869.0 L 244.0,931.0 L 226.0,954.0 L 206.0,967.0 L 126.0,922.0"/>
    <path d="M 477.0,268.0 L 547.0,272.0 L 732.0,223.0 L 781.0,223.0"/>
    <path d="M 462.0,345.0 L 478.0,363.0 L 484.0,382.0 L 480.0,389.0 L 411.0,479.0 L 350.0,531.0"/>
    <path d="M 741.0,328.0 L 829.0,362.0 L 854.0,384.0 L 870.0,410.0"/>
    <path d="M 579.0,295.0 L 607.0,305.0 L 623.0,320.0 L 622.0,749.0 L 613.0,998.0"/>
    <path d="M 399.0,549.0 L 424.0,583.0 L 429.0,613.0 L 426.0,772.0 L 401.0,941.0 L 400.0,988.0"/>
    <path d="M 435.0,554.0 L 474.0,563.0 L 588.0,544.0 L 778.0,501.0 L 809.0,504.0 L 840.0,531.0 L 854.0,891.0 L 851.0,970.0 L 837.0,1002.0 L 789.0,993.0 L 718.0,968.0"/>
    <path d="M 541.0,604.0 L 551.0,625.0 L 541.0,649.0 L 506.0,707.0 L 471.0,743.0"/>
    <path d="M 465.0,649.0 L 547.0,703.0 L 566.0,733.0"/>
    <path d="M 534.0,779.0 L 545.0,799.0 L 542.0,808.0 L 490.0,889.0 L 454.0,924.0"/>
    <path d="M 457.0,805.0 L 541.0,877.0 L 551.0,901.0"/>
    <path d="M 740.0,575.0 L 749.0,601.0 L 706.0,675.0 L 671.0,707.0"/>
    <path d="M 665.0,620.0 L 754.0,672.0 L 783.0,699.0 L 789.0,713.0"/>
    <path d="M 750.0,744.0 L 763.0,766.0 L 741.0,809.0 L 711.0,858.0 L 658.0,912.0"/>
    <path d="M 666.0,789.0 L 760.0,856.0 L 781.0,880.0 L 789.0,902.0"/>
  </g>
</svg>
