<svg xmlns="http://www.w3.org/2000/svg" viewBox="0 0 1024 1024">
  <g style="fill:none;stroke:#000000;stroke-width:50;stroke-linecap:round;stroke-linejoin:round;" transform="scale(1, 1) translate(0, 0)">
    <path d="M 166.0,312.0 L 224.0,311.0 L 314.0,290.0 L 335.0,304.0 L 344.0,325.0 L 312.0,401.0 L 305.0,413.0 L 279.0,429.0"/>
    <path d="M 202.0,463.0 L 214.0,470.0 L 277.0,454.0 L 336.0,456.0"/>
    <path d="M 150.0,442.0 L 175.0,472.0 L 177.0,492.0 L 150.0,607.0 L 165.0,610.0 L 246.0,593.0 L 294.0,592.0 L 317.0,611.0 L 321.0,632.0 L 292.0,810.0 L 271.0,871.0 L 253.0,902.0 L 222.0,926.0 L 139.0,876.0"/>
    <path d="M 403.0,256.0 L 430.0,283.0 L 461.0,411.0"/>
    <path d="M 448.0,259.0 L 471.0,262.0 L 546.0,241.0 L 566.0,253.0 L 574.0,263.0 L 561.0,324.0 L 557.0,335.0 L 542.0,345.0"/>
    <path d="M 479.0,390.0 L 485.0,381.0 L 534.0,369.0 L 581.0,373.0"/>
    <path d="M 627.0,214.0 L 652.0,244.0 L 677.0,382.0"/>
    <path d="M 673.0,221.0 L 686.0,227.0 L 776.0,208.0 L 793.0,213.0 L 810.0,234.0 L 784.0,301.0 L 768.0,306.0"/>
    <path d="M 694.0,356.0 L 708.0,346.0 L 758.0,336.0 L 807.0,342.0"/>
    <path d="M 403.0,466.0 L 432.0,488.0 L 440.0,506.0 L 488.0,697.0"/>
    <path d="M 469.0,487.0 L 475.0,477.0 L 521.0,466.0 L 606.0,452.0 L 618.0,455.0 L 654.0,445.0 L 729.0,435.0 L 769.0,437.0 L 788.0,444.0 L 811.0,473.0 L 750.0,653.0 L 751.0,677.0"/>
    <path d="M 515.0,573.0 L 537.0,573.0 L 668.0,544.0 L 708.0,548.0"/>
    <path d="M 505.0,680.0 L 535.0,666.0 L 716.0,636.0"/>
    <path d="M 349.0,804.0 L 404.0,811.0 L 647.0,771.0 L 833.0,751.0 L 903.0,768.0"/>
    <path d="M 564.0,478.0 L 604.0,503.0 L 613.0,531.0 L 607.0,1092.0"/>
  </g>
</svg>
