<svg xmlns="http://www.w3.org/2000/svg" viewBox="0 0 1024 1024">
  <g style="fill:none;stroke:#000000;stroke-width:50;stroke-linecap:round;stroke-linejoin:round;" transform="scale(1, 1) translate(0, 0)">
    <path d="M 450.0,171.0 L 469.0,200.0 L 439.0,250.0 L 407.0,282.0 L 393.0,314.0 L 418.0,319.0 L 561.0,307.0 L 577.0,301.0"/>
    <path d="M 481.0,234.0 L 595.0,222.0 L 616.0,224.0 L 645.0,240.0 L 566.0,350.0 L 535.0,373.0"/>
    <path d="M 312.0,413.0 L 352.0,420.0 L 643.0,372.0 L 685.0,369.0 L 720.0,375.0"/>
    <path d="M 212.0,481.0 L 222.0,507.0 L 221.0,528.0 L 183.0,602.0 L 178.0,655.0"/>
    <path d="M 250.0,503.0 L 265.0,515.0 L 290.0,514.0 L 469.0,480.0 L 656.0,455.0 L 806.0,440.0 L 843.0,445.0 L 869.0,479.0 L 796.0,551.0"/>
    <path d="M 325.0,556.0 L 350.0,576.0 L 359.0,599.0 L 396.0,748.0"/>
    <path d="M 378.0,583.0 L 391.0,568.0 L 461.0,559.0 L 473.0,551.0 L 523.0,548.0 L 600.0,532.0 L 638.0,530.0 L 671.0,537.0 L 693.0,564.0 L 640.0,707.0 L 639.0,729.0"/>
    <path d="M 428.0,649.0 L 476.0,645.0 L 558.0,627.0 L 596.0,630.0"/>
    <path d="M 413.0,733.0 L 419.0,726.0 L 608.0,694.0"/>
    <path d="M 221.0,837.0 L 275.0,844.0 L 422.0,821.0 L 745.0,790.0 L 768.0,790.0 L 827.0,807.0"/>
    <path d="M 482.0,571.0 L 505.0,587.0 L 508.0,608.0 L 503.0,1006.0 L 513.0,1096.0"/>
    <path d="M 479.0,838.0 L 418.0,908.0 L 346.0,964.0 L 249.0,1020.0 L 157.0,1050.0"/>
    <path d="M 535.0,832.0 L 543.0,847.0 L 555.0,851.0 L 600.0,893.0 L 752.0,996.0 L 784.0,1009.0 L 940.0,1022.0"/>
  </g>
</svg>
