<svg xmlns="http://www.w3.org/2000/svg" viewBox="0 0 1024 1024">
  <g style="fill:none;stroke:#000000;stroke-width:50;stroke-linecap:round;stroke-linejoin:round;" transform="scale(1, 1) translate(0, 0)">
    <path d="M 348.0,305.0 L 392.0,311.0 L 620.0,274.0 L 653.0,283.0 L 681.0,313.0 L 679.0,325.0 L 631.0,485.0 L 602.0,510.0"/>
    <path d="M 327.0,426.0 L 374.0,433.0 L 518.0,410.0 L 546.0,408.0 L 587.0,415.0"/>
    <path d="M 171.0,579.0 L 226.0,589.0 L 486.0,550.0 L 773.0,521.0 L 826.0,526.0 L 874.0,541.0"/>
    <path d="M 485.0,576.0 L 524.0,600.0 L 531.0,613.0 L 529.0,886.0 L 523.0,965.0 L 503.0,998.0 L 464.0,985.0 L 378.0,939.0"/>
    <path d="M 289.0,655.0 L 363.0,700.0 L 383.0,731.0"/>
    <path d="M 193.0,935.0 L 257.0,931.0 L 435.0,774.0"/>
    <path d="M 763.0,651.0 L 723.0,639.0 L 618.0,737.0 L 611.0,751.0"/>
    <path d="M 558.0,701.0 L 570.0,732.0 L 630.0,800.0 L 707.0,880.0 L 777.0,939.0 L 940.0,972.0"/>
  </g>
</svg>
