<svg xmlns="http://www.w3.org/2000/svg" viewBox="0 0 1024 1024">
  <g style="fill:none;stroke:#000000;stroke-width:50;stroke-linecap:round;stroke-linejoin:round;" transform="scale(1, 1) translate(0, 0)">
    <path d="M 468.0,239.0 L 515.0,281.0 L 504.0,528.0 L 502.0,546.0 L 484.0,566.0"/>
    <path d="M 264.0,377.0 L 346.0,447.0 L 365.0,478.0"/>
    <path d="M 702.0,280.0 L 724.0,305.0 L 732.0,326.0 L 673.0,389.0 L 591.0,459.0"/>
    <path d="M 272.0,604.0 L 309.0,611.0 L 346.0,609.0 L 505.0,588.0 L 677.0,555.0 L 699.0,557.0 L 718.0,567.0 L 755.0,603.0 L 691.0,848.0 L 657.0,880.0"/>
    <path d="M 244.0,767.0 L 299.0,778.0 L 558.0,740.0 L 603.0,739.0 L 637.0,747.0"/>
    <path d="M 257.0,948.0 L 275.0,956.0 L 296.0,956.0 L 656.0,914.0 L 703.0,914.0 L 744.0,928.0"/>
  </g>
</svg>
