<svg xmlns="http://www.w3.org/2000/svg" viewBox="0 0 1024 1024">
  <g style="fill:none;stroke:#000000;stroke-width:50;stroke-linecap:round;stroke-linejoin:round;" transform="scale(1, 1) translate(0, 0)">
    <path d="M 181.0,387.0 L 204.0,394.0 L 241.0,393.0 L 422.0,354.0 L 465.0,356.0"/>
    <path d="M 216.0,505.0 L 268.0,508.0 L 404.0,475.0 L 445.0,475.0"/>
    <path d="M 127.0,639.0 L 173.0,655.0 L 414.0,583.0 L 461.0,563.0"/>
    <path d="M 303.0,260.0 L 333.0,275.0 L 351.0,301.0 L 360.0,480.0 L 360.0,693.0"/>
    <path d="M 522.0,354.0 L 565.0,361.0 L 617.0,358.0 L 743.0,329.0 L 803.0,328.0"/>
    <path d="M 535.0,472.0 L 591.0,476.0 L 720.0,451.0 L 767.0,456.0"/>
    <path d="M 480.0,584.0 L 532.0,592.0 L 784.0,562.0 L 821.0,565.0 L 864.0,578.0"/>
    <path d="M 610.0,205.0 L 632.0,216.0 L 655.0,244.0 L 654.0,418.0 L 637.0,686.0"/>
    <path d="M 298.0,766.0 L 342.0,772.0 L 383.0,767.0 L 631.0,719.0 L 659.0,719.0 L 678.0,726.0 L 704.0,751.0 L 706.0,768.0 L 655.0,928.0 L 651.0,937.0 L 625.0,954.0"/>
    <path d="M 259.0,885.0 L 309.0,895.0 L 595.0,855.0 L 619.0,857.0 L 641.0,870.0"/>
    <path d="M 296.0,1013.0 L 329.0,1021.0 L 608.0,988.0 L 663.0,989.0 L 696.0,1002.0"/>
  </g>
</svg>
