<svg xmlns="http://www.w3.org/2000/svg" viewBox="0 0 1024 1024">
  <g style="fill:none;stroke:#000000;stroke-width:50;stroke-linecap:round;stroke-linejoin:round;" transform="scale(1, 1) translate(0, 0)">
    <path d="M 460.0,166.0 L 472.0,205.0 L 412.0,276.0 L 400.0,311.0 L 420.0,319.0 L 470.0,319.0 L 542.0,314.0 L 552.0,305.0"/>
    <path d="M 478.0,244.0 L 599.0,226.0 L 632.0,241.0 L 569.0,323.0 L 548.0,345.0 L 528.0,354.0"/>
    <path d="M 269.0,395.0 L 328.0,403.0 L 688.0,350.0 L 747.0,346.0 L 783.0,354.0"/>
    <path d="M 239.0,473.0 L 286.0,499.0 L 301.0,523.0"/>
    <path d="M 474.0,430.0 L 482.0,447.0 L 427.0,504.0"/>
    <path d="M 176.0,585.0 L 230.0,590.0 L 401.0,554.0 L 464.0,548.0 L 483.0,553.0"/>
    <path d="M 346.0,439.0 L 373.0,467.0 L 365.0,623.0 L 371.0,702.0"/>
    <path d="M 346.0,589.0 L 285.0,656.0 L 246.0,689.0 L 168.0,729.0"/>
    <path d="M 414.0,604.0 L 445.0,630.0 L 459.0,651.0"/>
    <path d="M 604.0,389.0 L 614.0,408.0 L 583.0,437.0 L 564.0,472.0 L 628.0,483.0 L 637.0,476.0"/>
    <path d="M 711.0,407.0 L 717.0,425.0 L 714.0,439.0 L 645.0,496.0 L 624.0,506.0 L 599.0,532.0 L 591.0,533.0 L 576.0,559.0 L 603.0,562.0 L 668.0,545.0 L 728.0,539.0"/>
    <path d="M 727.0,498.0 L 759.0,540.0 L 762.0,553.0"/>
    <path d="M 621.0,571.0 L 636.0,589.0 L 634.0,665.0 L 644.0,721.0"/>
    <path d="M 575.0,634.0 L 557.0,638.0 L 509.0,687.0 L 493.0,690.0 L 490.0,697.0"/>
    <path d="M 698.0,609.0 L 767.0,660.0 L 781.0,692.0"/>
    <path d="M 96.0,820.0 L 157.0,841.0 L 534.0,798.0 L 854.0,778.0 L 941.0,807.0"/>
    <path d="M 355.0,746.0 L 373.0,758.0 L 388.0,787.0 L 360.0,919.0 L 333.0,965.0 L 305.0,998.0 L 265.0,1029.0 L 229.0,1047.0"/>
    <path d="M 604.0,741.0 L 619.0,751.0 L 634.0,781.0 L 632.0,1012.0 L 646.0,1083.0"/>
  </g>
</svg>
