<svg xmlns="http://www.w3.org/2000/svg" viewBox="0 0 1024 1024">
  <g style="fill:none;stroke:#000000;stroke-width:50;stroke-linecap:round;stroke-linejoin:round;" transform="scale(1, 1) translate(0, 0)">
    <path d="M 238.0,274.0 L 274.0,301.0 L 281.0,315.0 L 285.0,366.0 L 281.0,570.0 L 258.0,709.0 L 230.0,785.0 L 188.0,857.0 L 125.0,930.0 L 66.0,976.0"/>
    <path d="M 302.0,278.0 L 322.0,288.0 L 445.0,258.0 L 472.0,275.0 L 481.0,288.0 L 477.0,781.0 L 471.0,869.0 L 452.0,902.0 L 407.0,886.0 L 345.0,851.0"/>
    <path d="M 351.0,387.0 L 384.0,425.0 L 403.0,460.0"/>
    <path d="M 54.0,609.0 L 118.0,620.0 L 501.0,551.0 L 542.0,546.0 L 585.0,554.0"/>
    <path d="M 770.0,213.0 L 784.0,229.0 L 796.0,264.0 L 776.0,295.0 L 724.0,362.0 L 663.0,426.0 L 592.0,479.0"/>
    <path d="M 790.0,447.0 L 807.0,472.0 L 813.0,495.0 L 721.0,603.0 L 632.0,680.0 L 585.0,708.0"/>
    <path d="M 807.0,667.0 L 839.0,715.0 L 802.0,780.0 L 744.0,855.0 L 632.0,969.0 L 533.0,1039.0 L 461.0,1078.0"/>
  </g>
</svg>
