<svg xmlns="http://www.w3.org/2000/svg" viewBox="0 0 1024 1024">
  <g style="fill:none;stroke:#000000;stroke-width:50;stroke-linecap:round;stroke-linejoin:round;" transform="scale(1, 1) translate(0, 0)">
    <path d="M 249.0,457.0 L 272.0,462.0 L 331.0,457.0 L 467.0,427.0 L 620.0,384.0 L 669.0,383.0"/>
    <path d="M 211.0,565.0 L 237.0,586.0 L 246.0,606.0 L 280.0,762.0"/>
    <path d="M 259.0,571.0 L 278.0,573.0 L 371.0,544.0 L 396.0,547.0 L 416.0,566.0 L 400.0,646.0 L 379.0,670.0"/>
    <path d="M 296.0,728.0 L 314.0,712.0 L 374.0,697.0 L 428.0,700.0"/>
    <path d="M 148.0,879.0 L 210.0,894.0 L 464.0,778.0"/>
    <path d="M 433.0,231.0 L 452.0,237.0 L 479.0,265.0 L 501.0,380.0 L 544.0,532.0 L 619.0,723.0 L 697.0,860.0 L 755.0,930.0 L 798.0,968.0 L 825.0,980.0 L 846.0,979.0 L 870.0,920.0 L 901.0,796.0"/>
    <path d="M 646.0,481.0 L 665.0,511.0 L 616.0,584.0 L 549.0,653.0 L 479.0,697.0"/>
    <path d="M 701.0,588.0 L 718.0,619.0 L 662.0,702.0 L 598.0,768.0 L 483.0,841.0"/>
    <path d="M 766.0,691.0 L 782.0,728.0 L 714.0,818.0 L 614.0,906.0 L 519.0,962.0 L 472.0,981.0"/>
    <path d="M 637.0,255.0 L 727.0,299.0 L 756.0,333.0"/>
  </g>
</svg>
