<svg xmlns="http://www.w3.org/2000/svg" viewBox="0 0 1024 1024">
  <g style="fill:none;stroke:#000000;stroke-width:50;stroke-linecap:round;stroke-linejoin:round;" transform="scale(1, 1) translate(0, 0)">
    <path d="M 315.0,251.0 L 332.0,274.0 L 339.0,296.0 L 302.0,355.0 L 206.0,464.0 L 168.0,499.0 L 140.0,515.0"/>
    <path d="M 309.0,461.0 L 333.0,490.0 L 339.0,512.0 L 298.0,586.0 L 252.0,653.0 L 165.0,760.0 L 101.0,826.0 L 55.0,863.0"/>
    <path d="M 263.0,686.0 L 265.0,717.0 L 273.0,736.0 L 257.0,957.0 L 262.0,1014.0"/>
    <path d="M 486.0,458.0 L 513.0,469.0 L 733.0,412.0 L 791.0,409.0 L 821.0,433.0 L 755.0,529.0"/>
    <path d="M 431.0,452.0 L 457.0,473.0 L 469.0,507.0 L 463.0,612.0 L 448.0,717.0 L 428.0,793.0 L 393.0,883.0 L 361.0,939.0 L 320.0,990.0"/>
    <path d="M 583.0,208.0 L 619.0,237.0 L 628.0,247.0 L 629.0,259.0 L 614.0,592.0 L 596.0,622.0"/>
    <path d="M 491.0,661.0 L 569.0,651.0 L 686.0,618.0 L 698.0,620.0 L 720.0,643.0 L 696.0,764.0 L 676.0,816.0 L 635.0,882.0 L 599.0,917.0 L 559.0,943.0 L 492.0,969.0 L 440.0,981.0"/>
    <path d="M 507.0,719.0 L 555.0,748.0 L 691.0,907.0 L 796.0,994.0 L 825.0,1006.0 L 967.0,1023.0"/>
  </g>
</svg>
