<svg xmlns="http://www.w3.org/2000/svg" viewBox="0 0 1024 1024">
  <g style="fill:none;stroke:#000000;stroke-width:50;stroke-linecap:round;stroke-linejoin:round;" transform="scale(1, 1) translate(0, 0)">
    <path d="M 332.0,207.0 L 355.0,249.0 L 352.0,263.0 L 246.0,385.0 L 188.0,435.0 L 145.0,459.0"/>
    <path d="M 329.0,422.0 L 344.0,438.0 L 358.0,470.0 L 311.0,546.0 L 264.0,608.0 L 187.0,692.0 L 97.0,776.0 L 52.0,807.0"/>
    <path d="M 272.0,643.0 L 272.0,666.0 L 285.0,691.0 L 269.0,973.0 L 274.0,1006.0"/>
    <path d="M 561.0,223.0 L 655.0,280.0 L 684.0,324.0"/>
    <path d="M 454.0,477.0 L 494.0,483.0 L 535.0,480.0 L 770.0,427.0 L 804.0,423.0 L 830.0,428.0"/>
    <path d="M 459.0,673.0 L 481.0,680.0 L 531.0,681.0 L 757.0,639.0 L 795.0,642.0"/>
    <path d="M 598.0,494.0 L 627.0,517.0 L 631.0,551.0 L 629.0,827.0 L 612.0,849.0"/>
    <path d="M 351.0,895.0 L 404.0,905.0 L 541.0,884.0 L 843.0,855.0 L 888.0,859.0 L 939.0,876.0"/>
  </g>
</svg>
