<svg xmlns="http://www.w3.org/2000/svg" viewBox="0 0 1024 1024">
  <g style="fill:none;stroke:#000000;stroke-width:50;stroke-linecap:round;stroke-linejoin:round;" transform="scale(1, 1) translate(0, 0)">
    <path d="M 322.0,228.0 L 343.0,255.0 L 349.0,276.0 L 300.0,352.0 L 259.0,402.0 L 185.0,476.0 L 157.0,494.0"/>
    <path d="M 295.0,450.0 L 316.0,472.0 L 326.0,496.0 L 283.0,577.0 L 185.0,712.0 L 89.0,818.0 L 47.0,851.0"/>
    <path d="M 264.0,652.0 L 282.0,702.0 L 265.0,1005.0 L 270.0,1038.0"/>
    <path d="M 492.0,420.0 L 515.0,425.0 L 569.0,421.0 L 722.0,376.0 L 776.0,376.0"/>
    <path d="M 596.0,215.0 L 640.0,253.0 L 631.0,514.0 L 614.0,540.0"/>
    <path d="M 353.0,612.0 L 408.0,614.0 L 524.0,583.0 L 803.0,527.0 L 845.0,527.0 L 891.0,537.0"/>
    <path d="M 605.0,590.0 L 632.0,606.0 L 639.0,621.0 L 632.0,823.0 L 649.0,852.0"/>
    <path d="M 667.0,718.0 L 786.0,694.0 L 823.0,697.0"/>
    <path d="M 463.0,679.0 L 488.0,710.0 L 459.0,781.0 L 406.0,862.0 L 358.0,914.0 L 331.0,934.0"/>
    <path d="M 499.0,771.0 L 511.0,789.0 L 598.0,852.0 L 788.0,961.0 L 835.0,967.0 L 966.0,967.0"/>
  </g>
</svg>
