<svg xmlns="http://www.w3.org/2000/svg" viewBox="0 0 1024 1024">
  <g style="fill:none;stroke:#000000;stroke-width:50;stroke-linecap:round;stroke-linejoin:round;" transform="scale(1, 1) translate(0, 0)">
    <path d="M 315.0,222.0 L 334.0,246.0 L 341.0,270.0 L 252.0,389.0 L 184.0,456.0 L 144.0,483.0"/>
    <path d="M 318.0,424.0 L 332.0,439.0 L 346.0,474.0 L 292.0,563.0 L 170.0,710.0 L 96.0,782.0 L 52.0,815.0"/>
    <path d="M 268.0,638.0 L 272.0,669.0 L 281.0,685.0 L 268.0,957.0 L 274.0,1006.0"/>
    <path d="M 456.0,261.0 L 479.0,282.0 L 487.0,301.0 L 521.0,485.0"/>
    <path d="M 506.0,263.0 L 521.0,272.0 L 682.0,241.0 L 736.0,248.0 L 759.0,278.0 L 715.0,445.0 L 719.0,466.0"/>
    <path d="M 527.0,373.0 L 538.0,363.0 L 590.0,350.0 L 643.0,343.0 L 664.0,348.0"/>
    <path d="M 539.0,463.0 L 572.0,448.0 L 680.0,429.0"/>
    <path d="M 490.0,566.0 L 544.0,571.0 L 703.0,540.0 L 767.0,537.0"/>
    <path d="M 365.0,711.0 L 422.0,719.0 L 591.0,689.0 L 860.0,657.0 L 917.0,663.0 L 948.0,674.0"/>
    <path d="M 658.0,585.0 L 694.0,603.0 L 700.0,618.0 L 709.0,906.0 L 703.0,969.0 L 684.0,1003.0 L 641.0,993.0 L 561.0,958.0"/>
    <path d="M 467.0,774.0 L 541.0,837.0 L 558.0,877.0"/>
  </g>
</svg>
