<svg xmlns="http://www.w3.org/2000/svg" viewBox="0 0 1024 1024">
  <g style="fill:none;stroke:#000000;stroke-width:50;stroke-linecap:round;stroke-linejoin:round;" transform="scale(1, 1) translate(0, 0)">
    <path d="M 298.0,213.0 L 316.0,237.0 L 323.0,259.0 L 293.0,309.0 L 219.0,406.0 L 140.0,475.0"/>
    <path d="M 307.0,436.0 L 327.0,458.0 L 336.0,484.0 L 304.0,537.0 L 203.0,668.0 L 102.0,767.0 L 64.0,795.0"/>
    <path d="M 255.0,650.0 L 255.0,678.0 L 265.0,695.0 L 266.0,740.0 L 253.0,965.0 L 257.0,1030.0"/>
    <path d="M 585.0,177.0 L 599.0,184.0 L 618.0,212.0 L 530.0,345.0 L 500.0,365.0"/>
    <path d="M 424.0,374.0 L 454.0,400.0 L 508.0,609.0"/>
    <path d="M 484.0,404.0 L 504.0,385.0 L 621.0,357.0 L 734.0,338.0 L 777.0,344.0 L 808.0,384.0 L 781.0,444.0 L 737.0,580.0"/>
    <path d="M 511.0,491.0 L 517.0,485.0 L 635.0,462.0 L 679.0,466.0"/>
    <path d="M 524.0,594.0 L 544.0,583.0 L 672.0,565.0 L 697.0,566.0 L 707.0,578.0"/>
    <path d="M 458.0,696.0 L 500.0,703.0 L 529.0,701.0 L 743.0,665.0 L 769.0,668.0"/>
    <path d="M 478.0,829.0 L 519.0,835.0 L 570.0,832.0 L 679.0,807.0 L 718.0,803.0 L 739.0,808.0"/>
    <path d="M 583.0,717.0 L 609.0,741.0 L 605.0,917.0 L 589.0,934.0"/>
    <path d="M 346.0,971.0 L 404.0,982.0 L 561.0,962.0 L 844.0,943.0 L 877.0,948.0 L 925.0,966.0"/>
  </g>
</svg>
