<svg xmlns="http://www.w3.org/2000/svg" viewBox="0 0 1024 1024">
  <g style="fill:none;stroke:#000000;stroke-width:50;stroke-linecap:round;stroke-linejoin:round;" transform="scale(1, 1) translate(0, 0)">
    <path d="M 304.0,213.0 L 324.0,237.0 L 331.0,258.0 L 302.0,310.0 L 236.0,395.0 L 187.0,444.0 L 164.0,459.0"/>
    <path d="M 291.0,438.0 L 311.0,460.0 L 321.0,485.0 L 301.0,522.0 L 249.0,602.0 L 180.0,691.0 L 97.0,778.0 L 67.0,799.0"/>
    <path d="M 244.0,653.0 L 257.0,704.0 L 252.0,856.0 L 240.0,961.0 L 245.0,1022.0"/>
    <path d="M 794.0,277.0 L 776.0,268.0 L 728.0,260.0 L 673.0,292.0 L 611.0,318.0 L 564.0,335.0 L 552.0,334.0 L 547.0,340.0 L 530.0,343.0 L 526.0,338.0"/>
    <path d="M 447.0,325.0 L 458.0,330.0 L 485.0,362.0 L 480.0,493.0 L 456.0,662.0 L 436.0,732.0 L 401.0,818.0 L 342.0,920.0 L 312.0,954.0"/>
    <path d="M 532.0,489.0 L 584.0,492.0 L 819.0,450.0 L 846.0,448.0 L 904.0,459.0"/>
    <path d="M 663.0,356.0 L 687.0,380.0 L 693.0,395.0 L 663.0,566.0 L 654.0,586.0 L 643.0,594.0"/>
    <path d="M 533.0,610.0 L 564.0,653.0 L 562.0,775.0 L 549.0,939.0 L 553.0,995.0"/>
    <path d="M 561.0,607.0 L 566.0,614.0 L 595.0,622.0 L 678.0,611.0 L 768.0,589.0 L 807.0,617.0 L 814.0,943.0 L 802.0,979.0 L 805.0,1034.0"/>
    <path d="M 590.0,738.0 L 600.0,728.0 L 641.0,719.0 L 695.0,711.0 L 728.0,716.0"/>
    <path d="M 586.0,850.0 L 595.0,838.0 L 650.0,826.0 L 705.0,820.0 L 727.0,826.0"/>
    <path d="M 576.0,971.0 L 598.0,956.0 L 704.0,941.0 L 751.0,945.0"/>
  </g>
</svg>
