<svg xmlns="http://www.w3.org/2000/svg" viewBox="0 0 1024 1024">
  <g style="fill:none;stroke:#000000;stroke-width:50;stroke-linecap:round;stroke-linejoin:round;" transform="scale(1, 1) translate(0, 0)">
    <path d="M 251.0,250.0 L 270.0,271.0 L 277.0,292.0 L 249.0,345.0 L 182.0,430.0 L 116.0,492.0"/>
    <path d="M 242.0,484.0 L 254.0,494.0 L 271.0,527.0 L 247.0,577.0 L 160.0,707.0 L 107.0,768.0 L 59.0,812.0"/>
    <path d="M 225.0,664.0 L 232.0,740.0 L 217.0,921.0 L 223.0,987.0"/>
    <path d="M 443.0,251.0 L 478.0,284.0 L 469.0,396.0 L 463.0,414.0 L 453.0,423.0"/>
    <path d="M 338.0,347.0 L 366.0,389.0 L 360.0,468.0 L 393.0,466.0 L 444.0,447.0 L 529.0,428.0 L 547.0,413.0"/>
    <path d="M 573.0,300.0 L 596.0,336.0 L 566.0,467.0"/>
    <path d="M 362.0,565.0 L 416.0,562.0 L 487.0,540.0 L 529.0,536.0"/>
    <path d="M 327.0,666.0 L 369.0,670.0 L 500.0,636.0 L 537.0,634.0"/>
    <path d="M 339.0,774.0 L 384.0,775.0 L 495.0,741.0 L 537.0,739.0"/>
    <path d="M 413.0,682.0 L 435.0,701.0 L 438.0,724.0 L 437.0,826.0 L 422.0,846.0"/>
    <path d="M 286.0,895.0 L 336.0,899.0 L 505.0,850.0 L 530.0,845.0 L 557.0,848.0"/>
    <path d="M 699.0,222.0 L 714.0,229.0 L 739.0,260.0 L 719.0,335.0 L 646.0,501.0 L 621.0,536.0 L 620.0,549.0 L 606.0,559.0 L 585.0,594.0"/>
    <path d="M 644.0,545.0 L 668.0,534.0 L 741.0,521.0 L 838.0,485.0 L 888.0,485.0"/>
    <path d="M 709.0,559.0 L 732.0,571.0 L 749.0,596.0 L 739.0,697.0 L 707.0,803.0 L 672.0,861.0 L 645.0,890.0 L 607.0,918.0 L 528.0,954.0"/>
    <path d="M 586.0,654.0 L 625.0,684.0 L 687.0,787.0 L 734.0,852.0 L 801.0,922.0 L 834.0,945.0 L 958.0,977.0"/>
  </g>
</svg>
