<svg xmlns="http://www.w3.org/2000/svg" viewBox="0 0 1024 1024">
  <g style="fill:none;stroke:#000000;stroke-width:50;stroke-linecap:round;stroke-linejoin:round;" transform="scale(1, 1) translate(0, 0)">
    <path d="M 234.0,240.0 L 245.0,249.0 L 259.0,279.0 L 238.0,320.0 L 171.0,415.0 L 115.0,468.0"/>
    <path d="M 239.0,436.0 L 259.0,456.0 L 269.0,477.0 L 237.0,542.0 L 161.0,656.0 L 105.0,721.0 L 55.0,768.0"/>
    <path d="M 207.0,636.0 L 220.0,698.0 L 214.0,831.0 L 202.0,926.0 L 207.0,983.0"/>
    <path d="M 447.0,223.0 L 477.0,255.0 L 471.0,382.0 L 456.0,392.0"/>
    <path d="M 349.0,328.0 L 365.0,356.0 L 360.0,438.0 L 392.0,438.0 L 448.0,419.0 L 553.0,397.0 L 560.0,389.0"/>
    <path d="M 586.0,287.0 L 607.0,322.0 L 582.0,428.0"/>
    <path d="M 343.0,521.0 L 396.0,521.0 L 509.0,490.0 L 556.0,484.0"/>
    <path d="M 387.0,544.0 L 402.0,564.0 L 353.0,617.0 L 343.0,647.0 L 370.0,658.0 L 409.0,658.0 L 434.0,649.0"/>
    <path d="M 501.0,563.0 L 510.0,584.0 L 509.0,599.0 L 455.0,658.0 L 360.0,739.0 L 350.0,767.0 L 378.0,769.0 L 492.0,731.0 L 506.0,729.0 L 512.0,734.0"/>
    <path d="M 512.0,691.0 L 549.0,744.0 L 557.0,778.0"/>
    <path d="M 425.0,770.0 L 441.0,780.0 L 454.0,803.0 L 454.0,961.0 L 436.0,1000.0 L 367.0,973.0"/>
    <path d="M 330.0,869.0 L 318.0,913.0 L 284.0,979.0"/>
    <path d="M 518.0,832.0 L 558.0,864.0 L 571.0,883.0"/>
    <path d="M 703.0,221.0 L 728.0,236.0 L 745.0,258.0 L 727.0,329.0 L 668.0,481.0 L 630.0,556.0 L 592.0,610.0"/>
    <path d="M 668.0,535.0 L 731.0,526.0 L 851.0,484.0 L 894.0,481.0"/>
    <path d="M 751.0,543.0 L 779.0,559.0 L 792.0,576.0 L 775.0,685.0 L 732.0,806.0 L 690.0,867.0 L 640.0,915.0 L 561.0,960.0"/>
    <path d="M 610.0,667.0 L 642.0,688.0 L 754.0,853.0 L 821.0,921.0 L 850.0,942.0 L 977.0,974.0"/>
  </g>
</svg>
