<svg xmlns="http://www.w3.org/2000/svg" viewBox="0 0 1024 1024">
  <g style="fill:none;stroke:#000000;stroke-width:50;stroke-linecap:round;stroke-linejoin:round;" transform="scale(1, 1) translate(0, 0)">
    <path d="M 148.0,501.0 L 139.0,582.0 L 110.0,660.0 L 107.0,688.0"/>
    <path d="M 306.0,447.0 L 321.0,466.0 L 363.0,494.0 L 391.0,536.0"/>
    <path d="M 233.0,224.0 L 262.0,248.0 L 285.0,278.0 L 274.0,800.0 L 257.0,965.0 L 259.0,1046.0"/>
    <path d="M 440.0,458.0 L 500.0,455.0 L 620.0,424.0 L 655.0,428.0 L 667.0,438.0 L 641.0,491.0 L 564.0,581.0 L 508.0,660.0 L 448.0,782.0 L 437.0,835.0 L 439.0,871.0 L 460.0,910.0 L 505.0,943.0 L 582.0,965.0 L 724.0,972.0 L 820.0,959.0 L 878.0,938.0 L 917.0,914.0 L 922.0,868.0 L 919.0,730.0"/>
  </g>
</svg>
