<svg xmlns="http://www.w3.org/2000/svg" viewBox="0 0 1024 1024">
  <g style="fill:none;stroke:#000000;stroke-width:50;stroke-linecap:round;stroke-linejoin:round;" transform="scale(1, 1) translate(0, 0)">
    <path d="M 199.0,343.0 L 252.0,351.0 L 429.0,320.0 L 733.0,285.0 L 820.0,304.0"/>
    <path d="M 476.0,337.0 L 502.0,361.0 L 493.0,607.0 L 506.0,682.0"/>
    <path d="M 573.0,442.0 L 682.0,486.0 L 719.0,523.0"/>
    <path d="M 227.0,752.0 L 209.0,850.0 L 180.0,916.0 L 172.0,952.0"/>
    <path d="M 323.0,773.0 L 335.0,792.0 L 356.0,857.0 L 382.0,894.0 L 418.0,929.0 L 498.0,969.0 L 584.0,988.0 L 706.0,991.0 L 754.0,968.0 L 738.0,917.0 L 688.0,817.0"/>
    <path d="M 453.0,719.0 L 538.0,765.0 L 568.0,801.0"/>
    <path d="M 714.0,677.0 L 833.0,733.0 L 868.0,764.0 L 885.0,793.0"/>
  </g>
</svg>
