<svg xmlns="http://www.w3.org/2000/svg" viewBox="0 0 1024 1024">
  <g style="fill:none;stroke:#000000;stroke-width:50;stroke-linecap:round;stroke-linejoin:round;" transform="scale(1, 1) translate(0, 0)">
    <path d="M 300.0,322.0 L 358.0,333.0 L 676.0,273.0 L 695.0,274.0 L 726.0,299.0 L 702.0,444.0 L 680.0,529.0 L 663.0,574.0 L 641.0,608.0 L 610.0,633.0 L 577.0,618.0 L 520.0,575.0"/>
    <path d="M 467.0,341.0 L 496.0,364.0 L 495.0,370.0 L 471.0,449.0 L 437.0,520.0 L 397.0,576.0 L 354.0,622.0 L 254.0,696.0"/>
    <path d="M 358.0,421.0 L 349.0,449.0 L 296.0,535.0"/>
    <path d="M 207.0,773.0 L 190.0,855.0 L 146.0,961.0"/>
    <path d="M 325.0,783.0 L 337.0,798.0 L 362.0,869.0 L 388.0,906.0 L 418.0,935.0 L 494.0,975.0 L 604.0,998.0 L 706.0,999.0 L 743.0,990.0 L 768.0,974.0 L 762.0,946.0 L 704.0,825.0"/>
    <path d="M 472.0,699.0 L 547.0,767.0 L 559.0,786.0"/>
    <path d="M 752.0,663.0 L 878.0,735.0 L 909.0,767.0 L 924.0,800.0"/>
  </g>
</svg>
