<svg xmlns="http://www.w3.org/2000/svg" viewBox="0 0 1024 1024">
  <g style="fill:none;stroke:#000000;stroke-width:50;stroke-linecap:round;stroke-linejoin:round;" transform="scale(1, 1) translate(0, 0)">
    <path d="M 457.0,200.0 L 540.0,257.0 L 564.0,299.0"/>
    <path d="M 212.0,413.0 L 259.0,423.0 L 339.0,417.0 L 575.0,380.0 L 732.0,346.0 L 791.0,346.0"/>
    <path d="M 315.0,443.0 L 353.0,470.0 L 336.0,617.0 L 349.0,622.0 L 377.0,622.0 L 498.0,591.0 L 647.0,570.0 L 693.0,571.0 L 753.0,584.0"/>
    <path d="M 226.0,773.0 L 203.0,870.0 L 173.0,927.0 L 165.0,956.0"/>
    <path d="M 329.0,786.0 L 342.0,803.0 L 374.0,886.0 L 420.0,937.0 L 489.0,976.0 L 592.0,1000.0 L 714.0,1008.0 L 755.0,1002.0 L 794.0,980.0 L 769.0,921.0 L 718.0,842.0"/>
    <path d="M 474.0,708.0 L 556.0,757.0 L 579.0,788.0"/>
    <path d="M 757.0,694.0 L 885.0,762.0 L 918.0,794.0 L 935.0,827.0"/>
  </g>
</svg>
