<svg xmlns="http://www.w3.org/2000/svg" viewBox="0 0 1024 1024">
  <g style="fill:none;stroke:#000000;stroke-width:50;stroke-linecap:round;stroke-linejoin:round;" transform="scale(1, 1) translate(0, 0)">
    <path d="M 251.0,430.0 L 311.0,440.0 L 362.0,437.0 L 503.0,416.0 L 708.0,372.0 L 777.0,371.0"/>
    <path d="M 468.0,209.0 L 508.0,239.0 L 518.0,259.0 L 510.0,550.0 L 492.0,575.0"/>
    <path d="M 321.0,616.0 L 374.0,622.0 L 638.0,584.0 L 683.0,589.0 L 713.0,600.0"/>
    <path d="M 234.0,749.0 L 213.0,841.0 L 179.0,909.0 L 169.0,944.0"/>
    <path d="M 335.0,739.0 L 357.0,776.0 L 362.0,812.0 L 381.0,866.0 L 408.0,913.0 L 451.0,948.0 L 535.0,978.0 L 606.0,985.0 L 689.0,980.0 L 736.0,969.0 L 771.0,948.0 L 777.0,940.0 L 765.0,910.0 L 691.0,818.0"/>
    <path d="M 464.0,694.0 L 539.0,756.0 L 560.0,790.0"/>
    <path d="M 733.0,670.0 L 864.0,738.0 L 889.0,763.0 L 908.0,795.0"/>
  </g>
</svg>
