<svg xmlns="http://www.w3.org/2000/svg" viewBox="0 0 1024 1024">
  <g style="fill:none;stroke:#000000;stroke-width:50;stroke-linecap:round;stroke-linejoin:round;" transform="scale(1, 1) translate(0, 0)">
    <path d="M 451.0,169.0 L 527.0,210.0 L 551.0,241.0"/>
    <path d="M 203.0,371.0 L 256.0,379.0 L 467.0,343.0 L 737.0,313.0 L 824.0,332.0"/>
    <path d="M 561.0,363.0 L 592.0,398.0 L 578.0,445.0 L 534.0,539.0 L 489.0,592.0 L 445.0,621.0 L 380.0,649.0 L 264.0,669.0 L 218.0,667.0"/>
    <path d="M 326.0,446.0 L 366.0,450.0 L 415.0,476.0 L 565.0,603.0 L 649.0,657.0 L 703.0,684.0 L 749.0,696.0 L 903.0,700.0"/>
    <path d="M 231.0,807.0 L 212.0,887.0 L 172.0,977.0"/>
    <path d="M 316.0,823.0 L 363.0,917.0 L 411.0,965.0 L 489.0,1002.0 L 587.0,1019.0 L 707.0,1017.0 L 739.0,1006.0 L 757.0,991.0 L 736.0,947.0 L 665.0,854.0"/>
    <path d="M 448.0,727.0 L 530.0,784.0 L 552.0,822.0"/>
    <path d="M 746.0,789.0 L 831.0,826.0 L 876.0,853.0 L 898.0,874.0 L 914.0,902.0"/>
  </g>
</svg>
