<svg xmlns="http://www.w3.org/2000/svg" viewBox="0 0 1024 1024">
  <g style="fill:none;stroke:#000000;stroke-width:50;stroke-linecap:round;stroke-linejoin:round;" transform="scale(1, 1) translate(0, 0)">
    <path d="M 144.0,497.0 L 137.0,571.0 L 110.0,651.0 L 107.0,680.0"/>
    <path d="M 302.0,428.0 L 316.0,443.0 L 350.0,456.0 L 380.0,476.0 L 395.0,510.0"/>
    <path d="M 229.0,220.0 L 257.0,244.0 L 280.0,284.0 L 268.0,712.0 L 247.0,958.0 L 247.0,1049.0"/>
    <path d="M 403.0,544.0 L 455.0,550.0 L 739.0,494.0 L 802.0,498.0"/>
    <path d="M 545.0,246.0 L 566.0,256.0 L 599.0,290.0 L 567.0,555.0 L 532.0,722.0 L 503.0,810.0 L 453.0,902.0 L 394.0,971.0 L 340.0,1013.0 L 324.0,1019.0"/>
    <path d="M 605.0,626.0 L 632.0,660.0 L 623.0,795.0 L 624.0,881.0 L 631.0,928.0 L 646.0,963.0 L 678.0,987.0 L 734.0,1004.0 L 807.0,1007.0 L 876.0,995.0 L 912.0,976.0 L 931.0,957.0 L 932.0,809.0"/>
    <path d="M 721.0,323.0 L 803.0,378.0 L 823.0,411.0"/>
  </g>
</svg>
