<svg xmlns="http://www.w3.org/2000/svg" viewBox="0 0 1024 1024">
  <g style="fill:none;stroke:#000000;stroke-width:50;stroke-linecap:round;stroke-linejoin:round;" transform="scale(1, 1) translate(0, 0)">
    <path d="M 463.0,176.0 L 491.0,209.0 L 491.0,232.0 L 445.0,322.0 L 397.0,392.0 L 331.0,475.0 L 259.0,548.0 L 175.0,617.0 L 96.0,666.0"/>
    <path d="M 520.0,273.0 L 520.0,284.0 L 649.0,411.0 L 734.0,486.0 L 797.0,530.0 L 850.0,541.0 L 987.0,552.0"/>
    <path d="M 451.0,441.0 L 500.0,474.0 L 531.0,509.0"/>
    <path d="M 316.0,624.0 L 330.0,631.0 L 376.0,633.0 L 553.0,587.0 L 595.0,584.0 L 617.0,591.0 L 622.0,596.0 L 609.0,630.0 L 517.0,767.0"/>
    <path d="M 243.0,807.0 L 224.0,891.0 L 193.0,955.0 L 180.0,997.0"/>
    <path d="M 343.0,833.0 L 387.0,931.0 L 426.0,972.0 L 494.0,1009.0 L 606.0,1032.0 L 692.0,1034.0 L 729.0,1026.0 L 755.0,1009.0 L 747.0,981.0 L 685.0,873.0"/>
    <path d="M 479.0,809.0 L 542.0,855.0 L 570.0,888.0"/>
    <path d="M 704.0,742.0 L 833.0,813.0 L 859.0,840.0 L 876.0,870.0"/>
  </g>
</svg>
