<svg xmlns="http://www.w3.org/2000/svg" viewBox="0 0 1024 1024">
  <g style="fill:none;stroke:#000000;stroke-width:50;stroke-linecap:round;stroke-linejoin:round;" transform="scale(1, 1) translate(0, 0)">
    <path d="M 350.0,287.0 L 369.0,302.0 L 384.0,327.0 L 363.0,421.0 L 333.0,498.0 L 288.0,562.0 L 254.0,595.0 L 199.0,632.0 L 153.0,651.0"/>
    <path d="M 366.0,502.0 L 377.0,516.0 L 424.0,544.0 L 451.0,584.0"/>
    <path d="M 629.0,252.0 L 640.0,260.0 L 659.0,296.0 L 622.0,427.0 L 593.0,495.0 L 561.0,543.0 L 518.0,593.0 L 489.0,617.0"/>
    <path d="M 641.0,450.0 L 649.0,455.0 L 648.0,467.0 L 689.0,511.0 L 781.0,595.0 L 836.0,613.0 L 945.0,631.0"/>
    <path d="M 239.0,779.0 L 213.0,876.0 L 169.0,972.0"/>
    <path d="M 325.0,782.0 L 337.0,798.0 L 367.0,879.0 L 424.0,940.0 L 480.0,969.0 L 607.0,996.0 L 710.0,997.0 L 757.0,974.0 L 734.0,910.0 L 688.0,817.0"/>
    <path d="M 464.0,698.0 L 525.0,747.0 L 547.0,771.0 L 552.0,785.0"/>
    <path d="M 720.0,698.0 L 826.0,754.0 L 860.0,787.0 L 877.0,819.0"/>
  </g>
</svg>
