<svg xmlns="http://www.w3.org/2000/svg" viewBox="0 0 1024 1024">
  <g style="fill:none;stroke:#000000;stroke-width:50;stroke-linecap:round;stroke-linejoin:round;" transform="scale(1, 1) translate(0, 0)">
    <path d="M 153.0,503.0 L 148.0,577.0 L 120.0,674.0 L 118.0,700.0"/>
    <path d="M 299.0,458.0 L 317.0,477.0 L 359.0,500.0 L 389.0,540.0"/>
    <path d="M 225.0,236.0 L 254.0,260.0 L 276.0,290.0 L 266.0,760.0 L 250.0,974.0 L 251.0,1050.0"/>
    <path d="M 553.0,272.0 L 590.0,307.0 L 568.0,380.0 L 545.0,429.0 L 482.0,536.0 L 444.0,586.0 L 364.0,670.0 L 333.0,694.0"/>
    <path d="M 613.0,367.0 L 614.0,384.0 L 692.0,476.0 L 769.0,558.0 L 817.0,598.0 L 969.0,628.0"/>
    <path d="M 503.0,662.0 L 513.0,655.0 L 516.0,644.0 L 644.0,610.0 L 679.0,608.0 L 693.0,613.0 L 704.0,627.0 L 686.0,733.0 L 655.0,793.0 L 634.0,808.0 L 559.0,761.0"/>
    <path d="M 451.0,626.0 L 470.0,644.0 L 477.0,676.0 L 465.0,804.0 L 470.0,887.0 L 482.0,926.0 L 521.0,959.0 L 594.0,981.0 L 657.0,983.0 L 710.0,977.0 L 766.0,958.0 L 799.0,930.0 L 796.0,797.0"/>
  </g>
</svg>
