<svg xmlns="http://www.w3.org/2000/svg" viewBox="0 0 1024 1024">
  <g style="fill:none;stroke:#000000;stroke-width:50;stroke-linecap:round;stroke-linejoin:round;" transform="scale(1, 1) translate(0, 0)">
    <path d="M 154.0,499.0 L 146.0,598.0 L 122.0,692.0"/>
    <path d="M 315.0,448.0 L 385.0,490.0 L 403.0,515.0"/>
    <path d="M 241.0,217.0 L 270.0,241.0 L 292.0,271.0 L 283.0,778.0 L 269.0,923.0 L 271.0,1001.0"/>
    <path d="M 418.0,432.0 L 465.0,437.0 L 629.0,401.0 L 816.0,371.0 L 864.0,375.0 L 897.0,385.0"/>
    <path d="M 574.0,185.0 L 604.0,211.0 L 619.0,237.0 L 618.0,246.0 L 569.0,415.0 L 535.0,504.0 L 489.0,592.0 L 444.0,654.0 L 385.0,713.0 L 311.0,759.0"/>
    <path d="M 505.0,619.0 L 503.0,729.0 L 494.0,789.0 L 498.0,838.0"/>
    <path d="M 514.0,614.0 L 527.0,623.0 L 546.0,624.0 L 763.0,584.0 L 809.0,584.0 L 832.0,616.0 L 831.0,751.0 L 823.0,796.0 L 811.0,813.0 L 805.0,813.0 L 710.0,774.0"/>
    <path d="M 612.0,468.0 L 654.0,506.0 L 647.0,1089.0"/>
  </g>
</svg>
