<svg xmlns="http://www.w3.org/2000/svg" viewBox="0 0 1024 1024">
  <g style="fill:none;stroke:#000000;stroke-width:50;stroke-linecap:round;stroke-linejoin:round;" transform="scale(1, 1) translate(0, 0)">
    <path d="M 162.0,511.0 L 154.0,599.0 L 132.0,673.0 L 130.0,700.0"/>
    <path d="M 324.0,409.0 L 389.0,450.0 L 421.0,492.0"/>
    <path d="M 248.0,200.0 L 293.0,241.0 L 303.0,264.0 L 297.0,735.0 L 281.0,954.0 L 283.0,1045.0"/>
    <path d="M 645.0,238.0 L 660.0,244.0 L 686.0,272.0 L 615.0,423.0 L 583.0,479.0 L 566.0,492.0"/>
    <path d="M 486.0,495.0 L 512.0,521.0 L 520.0,545.0 L 524.0,655.0 L 512.0,880.0 L 517.0,934.0"/>
    <path d="M 537.0,506.0 L 559.0,517.0 L 576.0,515.0 L 776.0,470.0 L 806.0,485.0 L 824.0,504.0 L 831.0,861.0 L 817.0,897.0 L 753.0,882.0"/>
    <path d="M 549.0,697.0 L 564.0,684.0 L 698.0,663.0 L 743.0,664.0"/>
    <path d="M 546.0,891.0 L 561.0,874.0 L 611.0,866.0 L 721.0,854.0 L 773.0,862.0"/>
  </g>
</svg>
