<svg xmlns="http://www.w3.org/2000/svg" viewBox="0 0 1024 1024">
  <g style="fill:none;stroke:#000000;stroke-width:50;stroke-linecap:round;stroke-linejoin:round;" transform="scale(1, 1) translate(0, 0)">
    <path d="M 392.0,184.0 L 410.0,199.0 L 426.0,229.0 L 394.0,293.0 L 287.0,444.0 L 227.0,498.0"/>
    <path d="M 387.0,361.0 L 449.0,360.0 L 694.0,310.0 L 764.0,306.0"/>
    <path d="M 466.0,386.0 L 491.0,402.0 L 499.0,418.0 L 499.0,538.0 L 488.0,669.0 L 495.0,715.0"/>
    <path d="M 527.0,489.0 L 559.0,475.0 L 638.0,459.0 L 687.0,463.0"/>
    <path d="M 527.0,595.0 L 558.0,582.0 L 655.0,568.0 L 683.0,567.0 L 706.0,574.0"/>
    <path d="M 223.0,765.0 L 203.0,859.0 L 166.0,950.0"/>
    <path d="M 333.0,767.0 L 349.0,790.0 L 381.0,881.0 L 405.0,917.0 L 447.0,952.0 L 498.0,973.0 L 547.0,984.0 L 612.0,991.0 L 684.0,990.0 L 749.0,975.0 L 781.0,954.0 L 787.0,944.0 L 779.0,923.0 L 707.0,838.0"/>
    <path d="M 512.0,758.0 L 590.0,825.0 L 598.0,844.0"/>
    <path d="M 752.0,705.0 L 881.0,767.0 L 906.0,790.0 L 924.0,820.0"/>
  </g>
</svg>
