<svg xmlns="http://www.w3.org/2000/svg" viewBox="0 0 1024 1024">
  <g style="fill:none;stroke:#000000;stroke-width:50;stroke-linecap:round;stroke-linejoin:round;" transform="scale(1, 1) translate(0, 0)">
    <path d="M 328.0,187.0 L 343.0,195.0 L 366.0,234.0 L 326.0,393.0 L 277.0,525.0 L 278.0,535.0 L 283.0,545.0 L 310.0,562.0 L 423.0,622.0 L 447.0,642.0 L 465.0,673.0"/>
    <path d="M 440.0,358.0 L 467.0,395.0 L 435.0,499.0 L 399.0,569.0 L 358.0,621.0 L 315.0,655.0 L 263.0,684.0 L 215.0,701.0"/>
    <path d="M 92.0,460.0 L 113.0,472.0 L 146.0,479.0 L 221.0,455.0 L 400.0,414.0 L 429.0,397.0"/>
    <path d="M 567.0,356.0 L 618.0,353.0 L 716.0,320.0 L 737.0,327.0 L 752.0,343.0 L 742.0,401.0 L 722.0,459.0 L 698.0,514.0 L 670.0,554.0 L 625.0,590.0 L 592.0,606.0 L 533.0,627.0 L 496.0,633.0"/>
    <path d="M 536.0,423.0 L 583.0,445.0 L 710.0,565.0 L 785.0,614.0 L 837.0,627.0 L 941.0,641.0 L 956.0,638.0"/>
    <path d="M 234.0,775.0 L 214.0,849.0 L 158.0,963.0"/>
    <path d="M 330.0,769.0 L 340.0,784.0 L 360.0,852.0 L 381.0,888.0 L 409.0,919.0 L 450.0,948.0 L 495.0,969.0 L 594.0,994.0 L 699.0,1000.0 L 748.0,980.0 L 728.0,919.0 L 684.0,833.0"/>
    <path d="M 473.0,727.0 L 551.0,776.0 L 573.0,810.0"/>
    <path d="M 740.0,723.0 L 811.0,763.0 L 853.0,795.0 L 870.0,817.0 L 884.0,852.0"/>
  </g>
</svg>
