<svg xmlns="http://www.w3.org/2000/svg" viewBox="0 0 1024 1024">
  <g style="fill:none;stroke:#000000;stroke-width:50;stroke-linecap:round;stroke-linejoin:round;" transform="scale(1, 1) translate(0, 0)">
    <path d="M 228.0,288.0 L 271.0,322.0 L 283.0,345.0 L 327.0,552.0 L 355.0,630.0"/>
    <path d="M 301.0,302.0 L 323.0,313.0 L 433.0,289.0 L 654.0,256.0 L 689.0,257.0 L 720.0,268.0 L 746.0,304.0 L 692.0,538.0 L 671.0,586.0 L 631.0,580.0"/>
    <path d="M 398.0,452.0 L 561.0,419.0 L 618.0,423.0"/>
    <path d="M 477.0,304.0 L 509.0,336.0 L 506.0,529.0 L 502.0,544.0 L 489.0,555.0"/>
    <path d="M 371.0,611.0 L 380.0,600.0 L 418.0,590.0 L 579.0,564.0 L 630.0,563.0"/>
    <path d="M 219.0,723.0 L 200.0,807.0 L 169.0,871.0 L 156.0,913.0"/>
    <path d="M 338.0,750.0 L 382.0,848.0 L 417.0,891.0 L 451.0,917.0 L 511.0,943.0 L 642.0,968.0 L 732.0,968.0 L 762.0,959.0 L 784.0,943.0 L 768.0,893.0 L 724.0,815.0 L 716.0,789.0"/>
    <path d="M 480.0,669.0 L 556.0,722.0 L 579.0,753.0"/>
    <path d="M 768.0,637.0 L 836.0,667.0 L 895.0,702.0 L 933.0,752.0"/>
  </g>
</svg>
