<svg xmlns="http://www.w3.org/2000/svg" viewBox="0 0 1024 1024">
  <g style="fill:none;stroke:#000000;stroke-width:50;stroke-linecap:round;stroke-linejoin:round;" transform="scale(1, 1) translate(0, 0)">
    <path d="M 127.0,532.0 L 112.0,626.0 L 80.0,716.0"/>
    <path d="M 268.0,438.0 L 336.0,479.0 L 364.0,522.0"/>
    <path d="M 189.0,229.0 L 218.0,252.0 L 242.0,283.0 L 237.0,418.0 L 241.0,708.0 L 229.0,928.0 L 232.0,1024.0"/>
    <path d="M 400.0,389.0 L 434.0,419.0 L 448.0,447.0 L 475.0,638.0 L 495.0,705.0"/>
    <path d="M 457.0,399.0 L 480.0,407.0 L 570.0,383.0 L 714.0,357.0 L 742.0,361.0 L 770.0,384.0 L 780.0,402.0 L 760.0,469.0 L 735.0,604.0 L 710.0,673.0 L 716.0,708.0"/>
    <path d="M 491.0,528.0 L 514.0,534.0 L 636.0,510.0 L 658.0,513.0"/>
    <path d="M 513.0,689.0 L 524.0,680.0 L 628.0,661.0 L 651.0,663.0 L 659.0,674.0"/>
    <path d="M 331.0,863.0 L 374.0,872.0 L 577.0,840.0 L 840.0,813.0 L 919.0,832.0"/>
  </g>
</svg>
