<svg xmlns="http://www.w3.org/2000/svg" viewBox="0 0 1024 1024">
  <g style="fill:none;stroke:#000000;stroke-width:50;stroke-linecap:round;stroke-linejoin:round;" transform="scale(1, 1) translate(0, 0)">
    <path d="M 461.0,211.0 L 475.0,231.0 L 481.0,259.0 L 407.0,358.0 L 339.0,422.0 L 319.0,462.0 L 346.0,469.0 L 372.0,467.0 L 469.0,442.0 L 634.0,411.0 L 663.0,407.0 L 672.0,414.0 L 690.0,415.0"/>
    <path d="M 632.0,331.0 L 735.0,410.0 L 763.0,460.0"/>
    <path d="M 307.0,568.0 L 344.0,594.0 L 390.0,744.0"/>
    <path d="M 378.0,593.0 L 390.0,578.0 L 597.0,530.0 L 632.0,531.0 L 668.0,566.0 L 643.0,634.0 L 613.0,652.0"/>
    <path d="M 405.0,732.0 L 421.0,715.0 L 595.0,684.0 L 636.0,684.0 L 675.0,692.0"/>
    <path d="M 246.0,812.0 L 233.0,892.0 L 190.0,1009.0"/>
    <path d="M 345.0,829.0 L 358.0,846.0 L 383.0,914.0 L 408.0,948.0 L 439.0,976.0 L 507.0,1011.0 L 614.0,1034.0 L 709.0,1034.0 L 772.0,1012.0 L 776.0,1004.0 L 769.0,987.0 L 706.0,874.0"/>
    <path d="M 501.0,782.0 L 578.0,844.0 L 592.0,867.0"/>
    <path d="M 736.0,742.0 L 802.0,773.0 L 859.0,809.0 L 878.0,830.0 L 896.0,865.0"/>
  </g>
</svg>
