<svg xmlns="http://www.w3.org/2000/svg" viewBox="0 0 1024 1024">
  <g style="fill:none;stroke:#000000;stroke-width:50;stroke-linecap:round;stroke-linejoin:round;" transform="scale(1, 1) translate(0, 0)">
    <path d="M 136.0,487.0 L 126.0,562.0 L 87.0,685.0"/>
    <path d="M 298.0,426.0 L 354.0,466.0 L 379.0,504.0"/>
    <path d="M 225.0,232.0 L 253.0,256.0 L 276.0,287.0 L 269.0,401.0 L 267.0,639.0 L 247.0,919.0 L 247.0,1005.0"/>
    <path d="M 525.0,216.0 L 565.0,249.0 L 554.0,305.0 L 512.0,422.0 L 461.0,522.0 L 412.0,596.0 L 376.0,642.0 L 305.0,713.0"/>
    <path d="M 577.0,335.0 L 585.0,358.0 L 691.0,491.0 L 744.0,553.0 L 802.0,607.0 L 968.0,647.0"/>
    <path d="M 523.0,558.0 L 581.0,597.0 L 601.0,622.0"/>
    <path d="M 412.0,751.0 L 446.0,764.0 L 471.0,764.0 L 636.0,702.0 L 669.0,702.0 L 687.0,713.0 L 703.0,731.0 L 688.0,761.0 L 616.0,851.0 L 586.0,898.0 L 575.0,898.0"/>
    <path d="M 494.0,884.0 L 601.0,962.0 L 623.0,994.0 L 634.0,1026.0"/>
  </g>
</svg>
