<svg xmlns="http://www.w3.org/2000/svg" viewBox="0 0 1024 1024">
  <g style="fill:none;stroke:#000000;stroke-width:50;stroke-linecap:round;stroke-linejoin:round;" transform="scale(1, 1) translate(0, 0)">
    <path d="M 156.0,475.0 L 149.0,540.0 L 107.0,677.0"/>
    <path d="M 305.0,419.0 L 316.0,423.0 L 322.0,436.0 L 378.0,466.0 L 403.0,498.0"/>
    <path d="M 233.0,204.0 L 262.0,228.0 L 285.0,258.0 L 273.0,794.0 L 257.0,945.0 L 259.0,1026.0"/>
    <path d="M 399.0,551.0 L 458.0,556.0 L 555.0,535.0 L 826.0,492.0 L 866.0,495.0 L 920.0,509.0"/>
    <path d="M 607.0,235.0 L 636.0,259.0 L 655.0,285.0 L 610.0,671.0 L 605.0,696.0 L 584.0,715.0"/>
    <path d="M 446.0,733.0 L 472.0,755.0 L 480.0,775.0 L 524.0,993.0"/>
    <path d="M 501.0,738.0 L 522.0,750.0 L 647.0,732.0 L 735.0,711.0 L 771.0,720.0 L 800.0,751.0 L 761.0,866.0 L 732.0,888.0"/>
    <path d="M 544.0,957.0 L 556.0,943.0 L 722.0,918.0 L 780.0,917.0 L 805.0,927.0"/>
  </g>
</svg>
