<svg xmlns="http://www.w3.org/2000/svg" viewBox="0 0 1024 1024">
  <g style="fill:none;stroke:#000000;stroke-width:50;stroke-linecap:round;stroke-linejoin:round;" transform="scale(1, 1) translate(0, 0)">
    <path d="M 137.0,490.0 L 138.0,550.0 L 116.0,673.0"/>
    <path d="M 295.0,398.0 L 307.0,413.0 L 354.0,435.0 L 376.0,460.0"/>
    <path d="M 218.0,219.0 L 246.0,243.0 L 268.0,273.0 L 260.0,675.0 L 252.0,844.0 L 243.0,911.0 L 244.0,1002.0"/>
    <path d="M 422.0,417.0 L 445.0,422.0 L 483.0,419.0 L 579.0,391.0 L 739.0,362.0 L 758.0,376.0 L 771.0,396.0 L 744.0,468.0 L 719.0,477.0"/>
    <path d="M 439.0,578.0 L 451.0,563.0 L 465.0,559.0 L 693.0,512.0 L 762.0,517.0"/>
    <path d="M 381.0,538.0 L 400.0,558.0 L 408.0,578.0 L 387.0,695.0 L 415.0,698.0 L 559.0,659.0 L 758.0,618.0 L 814.0,617.0 L 838.0,633.0 L 854.0,655.0 L 815.0,780.0 L 794.0,813.0 L 784.0,820.0 L 697.0,774.0"/>
    <path d="M 474.0,268.0 L 520.0,307.0 L 515.0,383.0 L 518.0,569.0 L 510.0,737.0 L 495.0,813.0 L 465.0,896.0 L 431.0,946.0 L 378.0,989.0"/>
    <path d="M 590.0,216.0 L 609.0,226.0 L 633.0,251.0 L 635.0,271.0 L 627.0,1040.0"/>
  </g>
</svg>
