<svg xmlns="http://www.w3.org/2000/svg" viewBox="0 0 1024 1024">
  <g style="fill:none;stroke:#000000;stroke-width:50;stroke-linecap:round;stroke-linejoin:round;" transform="scale(1, 1) translate(0, 0)">
    <path d="M 153.0,505.0 L 148.0,586.0 L 124.0,662.0 L 122.0,690.0"/>
    <path d="M 297.0,411.0 L 309.0,416.0 L 314.0,429.0 L 364.0,458.0 L 386.0,488.0"/>
    <path d="M 225.0,212.0 L 253.0,236.0 L 276.0,267.0 L 266.0,694.0 L 247.0,940.0 L 247.0,1026.0"/>
    <path d="M 477.0,331.0 L 536.0,333.0 L 676.0,293.0 L 717.0,296.0 L 728.0,309.0 L 700.0,377.0 L 662.0,443.0 L 585.0,540.0 L 476.0,624.0 L 414.0,655.0 L 357.0,670.0"/>
    <path d="M 447.0,387.0 L 477.0,396.0 L 513.0,419.0 L 640.0,535.0 L 748.0,607.0 L 770.0,616.0 L 825.0,622.0 L 950.0,626.0"/>
    <path d="M 450.0,798.0 L 508.0,804.0 L 628.0,785.0 L 689.0,766.0 L 726.0,762.0 L 751.0,767.0"/>
    <path d="M 560.0,635.0 L 600.0,669.0 L 590.0,913.0 L 575.0,933.0"/>
    <path d="M 354.0,972.0 L 374.0,979.0 L 409.0,980.0 L 520.0,964.0 L 820.0,937.0 L 891.0,956.0"/>
  </g>
</svg>
