<svg xmlns="http://www.w3.org/2000/svg" viewBox="0 0 1024 1024">
  <g style="fill:none;stroke:#000000;stroke-width:50;stroke-linecap:round;stroke-linejoin:round;" transform="scale(1, 1) translate(0, 0)">
    <path d="M 131.0,501.0 L 120.0,601.0 L 88.0,702.0"/>
    <path d="M 301.0,427.0 L 313.0,440.0 L 374.0,458.0 L 398.0,481.0"/>
    <path d="M 225.0,216.0 L 253.0,240.0 L 275.0,271.0 L 266.0,663.0 L 257.0,837.0 L 247.0,911.0 L 247.0,1009.0"/>
    <path d="M 514.0,305.0 L 535.0,311.0 L 587.0,311.0 L 814.0,259.0 L 860.0,261.0"/>
    <path d="M 603.0,343.0 L 622.0,365.0 L 583.0,472.0 L 460.0,711.0"/>
    <path d="M 587.0,512.0 L 693.0,492.0 L 757.0,488.0 L 771.0,493.0 L 792.0,527.0 L 671.0,813.0 L 660.0,835.0 L 627.0,858.0"/>
    <path d="M 579.0,613.0 L 623.0,640.0 L 636.0,660.0"/>
    <path d="M 527.0,706.0 L 573.0,749.0 L 585.0,772.0"/>
    <path d="M 324.0,902.0 L 383.0,918.0 L 581.0,888.0 L 889.0,862.0 L 968.0,887.0"/>
  </g>
</svg>
