<svg xmlns="http://www.w3.org/2000/svg" viewBox="0 0 1024 1024">
  <g style="fill:none;stroke:#000000;stroke-width:50;stroke-linecap:round;stroke-linejoin:round;" transform="scale(1, 1) translate(0, 0)">
    <path d="M 140.0,473.0 L 133.0,539.0 L 97.0,647.0 L 95.0,668.0"/>
    <path d="M 299.0,419.0 L 309.0,420.0 L 319.0,440.0 L 357.0,463.0 L 378.0,492.0"/>
    <path d="M 229.0,208.0 L 257.0,232.0 L 280.0,263.0 L 268.0,722.0 L 251.0,911.0 L 251.0,1009.0"/>
    <path d="M 536.0,222.0 L 562.0,244.0 L 573.0,267.0 L 560.0,306.0 L 476.0,461.0 L 414.0,537.0"/>
    <path d="M 501.0,459.0 L 743.0,409.0 L 777.0,414.0 L 806.0,445.0 L 792.0,737.0 L 778.0,836.0 L 755.0,915.0 L 719.0,981.0 L 686.0,1007.0 L 593.0,956.0"/>
    <path d="M 430.0,570.0 L 454.0,595.0 L 460.0,617.0 L 455.0,841.0"/>
    <path d="M 479.0,582.0 L 503.0,586.0 L 592.0,562.0 L 604.0,566.0 L 629.0,594.0 L 632.0,779.0 L 626.0,843.0"/>
    <path d="M 489.0,708.0 L 495.0,697.0 L 510.0,690.0 L 564.0,689.0"/>
    <path d="M 480.0,822.0 L 494.0,807.0 L 579.0,796.0 L 594.0,787.0"/>
  </g>
</svg>
