<svg xmlns="http://www.w3.org/2000/svg" viewBox="0 0 1024 1024">
  <g style="fill:none;stroke:#000000;stroke-width:50;stroke-linecap:round;stroke-linejoin:round;" transform="scale(1, 1) translate(0, 0)">
    <path d="M 332.0,217.0 L 352.0,240.0 L 360.0,261.0 L 314.0,342.0 L 285.0,385.0 L 189.0,497.0 L 116.0,559.0"/>
    <path d="M 292.0,417.0 L 294.0,443.0 L 304.0,462.0 L 289.0,674.0 L 295.0,723.0"/>
    <path d="M 727.0,294.0 L 709.0,286.0 L 655.0,280.0 L 599.0,315.0 L 531.0,347.0 L 467.0,368.0 L 455.0,366.0 L 452.0,372.0 L 419.0,382.0"/>
    <path d="M 384.0,492.0 L 436.0,502.0 L 712.0,455.0 L 747.0,453.0 L 793.0,462.0"/>
    <path d="M 555.0,362.0 L 580.0,380.0 L 584.0,416.0 L 581.0,587.0 L 565.0,610.0"/>
    <path d="M 424.0,645.0 L 461.0,652.0 L 673.0,622.0 L 710.0,624.0 L 754.0,637.0"/>
    <path d="M 231.0,799.0 L 218.0,864.0 L 176.0,969.0"/>
    <path d="M 330.0,794.0 L 342.0,809.0 L 355.0,851.0 L 376.0,890.0 L 425.0,941.0 L 496.0,976.0 L 599.0,996.0 L 709.0,998.0 L 750.0,986.0 L 769.0,972.0 L 753.0,927.0 L 701.0,829.0"/>
    <path d="M 470.0,737.0 L 557.0,789.0 L 576.0,810.0"/>
    <path d="M 722.0,709.0 L 836.0,765.0 L 861.0,788.0 L 877.0,818.0"/>
  </g>
</svg>
