<svg xmlns="http://www.w3.org/2000/svg" viewBox="0 0 1024 1024">
  <g style="fill:none;stroke:#000000;stroke-width:50;stroke-linecap:round;stroke-linejoin:round;" transform="scale(1, 1) translate(0, 0)">
    <path d="M 164.0,501.0 L 157.0,575.0 L 130.0,655.0 L 127.0,684.0"/>
    <path d="M 313.0,427.0 L 383.0,462.0 L 408.0,492.0"/>
    <path d="M 238.0,252.0 L 267.0,275.0 L 290.0,314.0 L 283.0,435.0 L 280.0,818.0 L 268.0,931.0 L 272.0,1006.0"/>
    <path d="M 497.0,394.0 L 552.0,400.0 L 662.0,379.0 L 738.0,357.0 L 785.0,357.0"/>
    <path d="M 587.0,203.0 L 633.0,241.0 L 626.0,482.0 L 610.0,506.0"/>
    <path d="M 388.0,560.0 L 439.0,565.0 L 673.0,517.0 L 820.0,496.0 L 886.0,510.0"/>
    <path d="M 386.0,704.0 L 441.0,709.0 L 632.0,673.0 L 819.0,650.0 L 900.0,665.0"/>
    <path d="M 665.0,561.0 L 692.0,582.0 L 713.0,609.0 L 712.0,950.0 L 703.0,982.0 L 688.0,1001.0 L 653.0,990.0 L 582.0,951.0"/>
    <path d="M 489.0,762.0 L 561.0,809.0 L 577.0,839.0"/>
  </g>
</svg>
