<svg xmlns="http://www.w3.org/2000/svg" viewBox="0 0 1024 1024">
  <g style="fill:none;stroke:#000000;stroke-width:50;stroke-linecap:round;stroke-linejoin:round;" transform="scale(1, 1) translate(0, 0)">
    <path d="M 128.0,520.0 L 127.0,569.0 L 94.0,708.0"/>
    <path d="M 274.0,432.0 L 286.0,436.0 L 295.0,454.0 L 339.0,480.0 L 362.0,513.0"/>
    <path d="M 202.0,227.0 L 253.0,281.0 L 244.0,745.0 L 230.0,916.0 L 232.0,993.0"/>
    <path d="M 562.0,215.0 L 608.0,259.0 L 595.0,525.0 L 578.0,546.0"/>
    <path d="M 417.0,396.0 L 462.0,435.0 L 482.0,472.0"/>
    <path d="M 767.0,292.0 L 785.0,313.0 L 792.0,334.0 L 679.0,438.0"/>
    <path d="M 357.0,603.0 L 412.0,607.0 L 554.0,575.0 L 768.0,538.0 L 817.0,538.0 L 865.0,549.0"/>
    <path d="M 496.0,653.0 L 522.0,687.0 L 476.0,779.0 L 423.0,851.0 L 383.0,894.0 L 328.0,939.0 L 314.0,943.0 L 311.0,951.0"/>
    <path d="M 609.0,587.0 L 639.0,608.0 L 653.0,632.0 L 640.0,743.0 L 643.0,854.0 L 659.0,905.0 L 681.0,927.0 L 737.0,944.0 L 828.0,951.0 L 888.0,948.0 L 930.0,934.0 L 940.0,928.0 L 942.0,914.0 L 944.0,786.0"/>
  </g>
</svg>
