<svg xmlns="http://www.w3.org/2000/svg" viewBox="0 0 1024 1024">
  <g style="fill:none;stroke:#000000;stroke-width:50;stroke-linecap:round;stroke-linejoin:round;" transform="scale(1, 1) translate(0, 0)">
    <path d="M 231.0,378.0 L 290.0,378.0 L 421.0,341.0 L 473.0,337.0"/>
    <path d="M 238.0,497.0 L 293.0,494.0 L 401.0,456.0 L 457.0,448.0"/>
    <path d="M 184.0,629.0 L 208.0,639.0 L 241.0,642.0 L 495.0,536.0"/>
    <path d="M 321.0,239.0 L 349.0,255.0 L 367.0,274.0 L 376.0,426.0 L 376.0,702.0"/>
    <path d="M 506.0,389.0 L 547.0,397.0 L 763.0,344.0 L 780.0,349.0 L 798.0,366.0 L 773.0,526.0 L 751.0,592.0 L 736.0,615.0 L 710.0,636.0 L 679.0,621.0 L 627.0,581.0"/>
    <path d="M 621.0,406.0 L 643.0,425.0 L 619.0,493.0 L 556.0,601.0 L 506.0,654.0"/>
    <path d="M 259.0,795.0 L 245.0,856.0 L 197.0,968.0"/>
    <path d="M 342.0,810.0 L 355.0,826.0 L 388.0,900.0 L 441.0,951.0 L 505.0,981.0 L 557.0,993.0 L 635.0,1000.0 L 726.0,993.0 L 745.0,987.0 L 771.0,967.0 L 755.0,927.0 L 689.0,818.0"/>
    <path d="M 480.0,741.0 L 556.0,792.0 L 579.0,820.0"/>
    <path d="M 731.0,721.0 L 795.0,750.0 L 860.0,789.0 L 897.0,839.0"/>
  </g>
</svg>
