<svg xmlns="http://www.w3.org/2000/svg" viewBox="0 0 1024 1024">
  <g style="fill:none;stroke:#000000;stroke-width:50;stroke-linecap:round;stroke-linejoin:round;" transform="scale(1, 1) translate(0, 0)">
    <path d="M 445.0,166.0 L 459.0,174.0 L 478.0,199.0 L 418.0,298.0 L 383.0,334.0"/>
    <path d="M 314.0,336.0 L 335.0,355.0 L 355.0,390.0 L 363.0,483.0 L 365.0,623.0 L 381.0,715.0"/>
    <path d="M 357.0,343.0 L 394.0,357.0 L 568.0,315.0 L 639.0,308.0 L 670.0,322.0 L 687.0,343.0 L 691.0,355.0 L 677.0,531.0 L 661.0,665.0 L 644.0,690.0 L 594.0,677.0"/>
    <path d="M 389.0,467.0 L 400.0,460.0 L 456.0,453.0 L 526.0,434.0 L 573.0,434.0"/>
    <path d="M 393.0,571.0 L 405.0,562.0 L 472.0,551.0 L 575.0,542.0"/>
    <path d="M 399.0,693.0 L 413.0,682.0 L 611.0,656.0"/>
    <path d="M 221.0,749.0 L 207.0,830.0 L 158.0,953.0"/>
    <path d="M 325.0,789.0 L 338.0,806.0 L 351.0,848.0 L 373.0,888.0 L 423.0,940.0 L 452.0,959.0 L 495.0,976.0 L 609.0,998.0 L 701.0,1001.0 L 744.0,990.0 L 775.0,971.0 L 769.0,943.0 L 716.0,829.0"/>
    <path d="M 480.0,750.0 L 541.0,799.0 L 563.0,823.0 L 568.0,837.0"/>
    <path d="M 755.0,689.0 L 886.0,762.0 L 917.0,803.0"/>
  </g>
</svg>
