<svg xmlns="http://www.w3.org/2000/svg" viewBox="0 0 1024 1024">
  <g style="fill:none;stroke:#000000;stroke-width:50;stroke-linecap:round;stroke-linejoin:round;" transform="scale(1, 1) translate(0, 0)">
    <path d="M 156.0,493.0 L 148.0,572.0 L 114.0,681.0"/>
    <path d="M 305.0,432.0 L 330.0,456.0 L 363.0,474.0 L 391.0,512.0"/>
    <path d="M 233.0,232.0 L 262.0,256.0 L 284.0,286.0 L 273.0,789.0 L 258.0,970.0 L 259.0,1046.0"/>
    <path d="M 588.0,228.0 L 626.0,264.0 L 616.0,397.0 L 613.0,412.0 L 599.0,428.0"/>
    <path d="M 451.0,327.0 L 472.0,351.0 L 479.0,373.0 L 472.0,477.0 L 511.0,477.0 L 590.0,454.0 L 733.0,428.0 L 741.0,416.0"/>
    <path d="M 775.0,282.0 L 789.0,294.0 L 805.0,327.0 L 776.0,423.0 L 765.0,484.0"/>
    <path d="M 477.0,582.0 L 500.0,585.0 L 536.0,579.0 L 674.0,538.0 L 696.0,538.0 L 732.0,567.0 L 707.0,633.0 L 681.0,652.0"/>
    <path d="M 507.0,700.0 L 519.0,709.0 L 681.0,679.0 L 725.0,677.0 L 747.0,684.0"/>
    <path d="M 436.0,674.0 L 472.0,721.0 L 462.0,850.0 L 474.0,930.0 L 506.0,964.0 L 559.0,983.0 L 628.0,990.0 L 732.0,987.0 L 820.0,972.0 L 864.0,952.0 L 872.0,901.0 L 872.0,774.0"/>
  </g>
</svg>
