<svg xmlns="http://www.w3.org/2000/svg" viewBox="0 0 1024 1024">
  <g style="fill:none;stroke:#000000;stroke-width:50;stroke-linecap:round;stroke-linejoin:round;" transform="scale(1, 1) translate(0, 0)">
    <path d="M 367.0,295.0 L 373.0,283.0 L 398.0,273.0 L 527.0,250.0 L 537.0,243.0 L 576.0,241.0 L 603.0,250.0 L 624.0,274.0 L 601.0,390.0 L 578.0,465.0 L 583.0,484.0"/>
    <path d="M 365.0,398.0 L 376.0,388.0 L 465.0,367.0 L 506.0,360.0 L 528.0,365.0"/>
    <path d="M 365.0,485.0 L 371.0,490.0 L 403.0,484.0 L 549.0,449.0"/>
    <path d="M 293.0,251.0 L 314.0,270.0 L 330.0,296.0 L 338.0,370.0 L 338.0,506.0 L 325.0,635.0 L 328.0,668.0 L 375.0,657.0 L 470.0,599.0"/>
    <path d="M 675.0,465.0 L 691.0,487.0 L 696.0,506.0 L 590.0,591.0 L 578.0,590.0"/>
    <path d="M 413.0,502.0 L 446.0,510.0 L 565.0,617.0 L 668.0,684.0 L 732.0,700.0 L 860.0,704.0"/>
    <path d="M 235.0,794.0 L 216.0,868.0 L 169.0,976.0"/>
    <path d="M 341.0,810.0 L 353.0,826.0 L 381.0,895.0 L 427.0,948.0 L 499.0,983.0 L 582.0,1001.0 L 669.0,1005.0 L 709.0,998.0 L 744.0,979.0 L 682.0,855.0"/>
    <path d="M 464.0,739.0 L 549.0,799.0 L 572.0,838.0"/>
    <path d="M 726.0,777.0 L 840.0,833.0 L 865.0,856.0 L 881.0,886.0"/>
  </g>
</svg>
