<svg xmlns="http://www.w3.org/2000/svg" viewBox="0 0 1024 1024">
  <g style="fill:none;stroke:#000000;stroke-width:50;stroke-linecap:round;stroke-linejoin:round;" transform="scale(1, 1) translate(0, 0)">
    <path d="M 160.0,491.0 L 146.0,570.0 L 108.0,671.0"/>
    <path d="M 299.0,460.0 L 361.0,511.0 L 378.0,543.0"/>
    <path d="M 229.0,240.0 L 257.0,264.0 L 280.0,295.0 L 267.0,722.0 L 247.0,951.0 L 247.0,1038.0"/>
    <path d="M 510.0,372.0 L 535.0,383.0 L 571.0,381.0 L 648.0,370.0 L 764.0,338.0 L 825.0,339.0"/>
    <path d="M 440.0,357.0 L 463.0,375.0 L 480.0,405.0 L 472.0,541.0 L 449.0,679.0 L 424.0,763.0 L 384.0,851.0 L 344.0,918.0 L 304.0,965.0"/>
    <path d="M 507.0,664.0 L 563.0,672.0 L 789.0,628.0 L 858.0,634.0"/>
    <path d="M 626.0,467.0 L 666.0,502.0 L 666.0,526.0 L 653.0,673.0 L 625.0,768.0 L 577.0,858.0 L 530.0,915.0 L 470.0,968.0 L 427.0,994.0"/>
    <path d="M 676.0,688.0 L 682.0,720.0 L 723.0,795.0 L 767.0,865.0 L 823.0,934.0 L 846.0,956.0 L 962.0,992.0"/>
    <path d="M 757.0,455.0 L 836.0,502.0 L 853.0,529.0"/>
  </g>
</svg>
