<svg xmlns="http://www.w3.org/2000/svg" viewBox="0 0 1024 1024">
  <g style="fill:none;stroke:#000000;stroke-width:50;stroke-linecap:round;stroke-linejoin:round;" transform="scale(1, 1) translate(0, 0)">
    <path d="M 316.0,289.0 L 349.0,298.0 L 384.0,299.0 L 597.0,270.0 L 657.0,256.0 L 692.0,253.0 L 715.0,258.0"/>
    <path d="M 396.0,324.0 L 426.0,347.0 L 428.0,373.0 L 429.0,632.0 L 413.0,645.0"/>
    <path d="M 550.0,302.0 L 577.0,327.0 L 579.0,354.0 L 574.0,608.0 L 570.0,622.0 L 558.0,633.0"/>
    <path d="M 244.0,445.0 L 326.0,513.0 L 339.0,543.0"/>
    <path d="M 714.0,370.0 L 733.0,389.0 L 740.0,408.0 L 639.0,504.0"/>
    <path d="M 166.0,688.0 L 222.0,697.0 L 474.0,662.0 L 808.0,636.0 L 879.0,657.0"/>
    <path d="M 250.0,799.0 L 224.0,889.0 L 191.0,944.0 L 182.0,973.0"/>
    <path d="M 339.0,787.0 L 377.0,879.0 L 422.0,929.0 L 463.0,955.0 L 512.0,974.0 L 596.0,991.0 L 694.0,992.0 L 729.0,981.0 L 744.0,970.0 L 724.0,910.0 L 680.0,818.0"/>
    <path d="M 465.0,745.0 L 532.0,795.0 L 558.0,826.0"/>
    <path d="M 707.0,725.0 L 835.0,793.0 L 861.0,819.0 L 877.0,848.0"/>
  </g>
</svg>
