<svg xmlns="http://www.w3.org/2000/svg" viewBox="0 0 1024 1024">
  <g style="fill:none;stroke:#000000;stroke-width:50;stroke-linecap:round;stroke-linejoin:round;" transform="scale(1, 1) translate(0, 0)">
    <path d="M 120.0,484.0 L 111.0,563.0 L 79.0,661.0"/>
    <path d="M 277.0,463.0 L 288.0,467.0 L 298.0,484.0 L 337.0,508.0 L 358.0,536.0"/>
    <path d="M 209.0,200.0 L 224.0,210.0 L 260.0,255.0 L 251.0,422.0 L 249.0,634.0 L 227.0,935.0 L 227.0,1021.0"/>
    <path d="M 403.0,333.0 L 435.0,376.0 L 442.0,447.0 L 438.0,696.0 L 418.0,893.0 L 424.0,953.0"/>
    <path d="M 465.0,348.0 L 482.0,361.0 L 502.0,358.0 L 649.0,330.0 L 795.0,294.0 L 828.0,309.0 L 851.0,335.0 L 860.0,598.0 L 861.0,876.0 L 847.0,918.0 L 794.0,899.0 L 786.0,879.0"/>
    <path d="M 517.0,551.0 L 553.0,548.0 L 711.0,508.0 L 770.0,514.0"/>
    <path d="M 593.0,392.0 L 615.0,410.0 L 629.0,432.0 L 629.0,671.0 L 623.0,766.0 L 627.0,817.0"/>
    <path d="M 600.0,558.0 L 588.0,605.0 L 565.0,644.0 L 480.0,748.0"/>
    <path d="M 655.0,626.0 L 668.0,638.0 L 728.0,664.0 L 764.0,700.0"/>
    <path d="M 456.0,915.0 L 475.0,901.0 L 689.0,879.0 L 754.0,879.0 L 773.0,873.0"/>
  </g>
</svg>
