<svg xmlns="http://www.w3.org/2000/svg" viewBox="0 0 1024 1024">
  <g style="fill:none;stroke:#000000;stroke-width:50;stroke-linecap:round;stroke-linejoin:round;" transform="scale(1, 1) translate(0, 0)">
    <path d="M 141.0,494.0 L 139.0,577.0 L 118.0,660.0 L 117.0,688.0"/>
    <path d="M 303.0,437.0 L 372.0,494.0 L 383.0,526.0"/>
    <path d="M 229.0,212.0 L 280.0,266.0 L 271.0,688.0 L 253.0,933.0 L 255.0,1014.0"/>
    <path d="M 579.0,207.0 L 625.0,246.0 L 618.0,502.0 L 601.0,522.0"/>
    <path d="M 443.0,366.0 L 506.0,423.0 L 521.0,446.0"/>
    <path d="M 795.0,276.0 L 815.0,296.0 L 824.0,316.0 L 746.0,401.0 L 701.0,440.0"/>
    <path d="M 474.0,533.0 L 505.0,567.0 L 510.0,640.0 L 494.0,831.0 L 469.0,929.0 L 466.0,991.0"/>
    <path d="M 534.0,543.0 L 551.0,552.0 L 593.0,546.0 L 725.0,510.0 L 751.0,524.0 L 766.0,542.0 L 766.0,625.0 L 783.0,882.0 L 779.0,972.0 L 763.0,998.0 L 733.0,991.0 L 642.0,947.0"/>
    <path d="M 534.0,673.0 L 546.0,666.0 L 609.0,657.0 L 684.0,655.0"/>
    <path d="M 526.0,789.0 L 537.0,783.0 L 648.0,772.0 L 691.0,774.0"/>
  </g>
</svg>
