<svg xmlns="http://www.w3.org/2000/svg" viewBox="0 0 1024 1024">
  <g style="fill:none;stroke:#000000;stroke-width:50;stroke-linecap:round;stroke-linejoin:round;" transform="scale(1, 1) translate(0, 0)">
    <path d="M 141.0,486.0 L 137.0,563.0 L 113.0,661.0"/>
    <path d="M 291.0,399.0 L 365.0,449.0 L 380.0,473.0"/>
    <path d="M 214.0,192.0 L 243.0,215.0 L 266.0,244.0 L 267.0,255.0 L 265.0,661.0 L 260.0,841.0 L 249.0,965.0 L 253.0,1034.0"/>
    <path d="M 565.0,239.0 L 669.0,297.0 L 695.0,332.0"/>
    <path d="M 423.0,464.0 L 470.0,473.0 L 773.0,410.0 L 817.0,404.0 L 870.0,410.0"/>
    <path d="M 701.0,497.0 L 726.0,529.0 L 707.0,575.0 L 660.0,654.0 L 590.0,740.0 L 504.0,811.0"/>
    <path d="M 519.0,573.0 L 690.0,702.0 L 735.0,746.0 L 756.0,789.0"/>
    <path d="M 398.0,647.0 L 427.0,678.0 L 437.0,699.0 L 440.0,786.0 L 430.0,878.0 L 434.0,900.0 L 476.0,898.0 L 659.0,856.0 L 781.0,842.0 L 794.0,838.0 L 804.0,826.0"/>
    <path d="M 822.0,615.0 L 857.0,659.0 L 834.0,909.0"/>
  </g>
</svg>
