<svg xmlns="http://www.w3.org/2000/svg" viewBox="0 0 1024 1024">
  <g style="fill:none;stroke:#000000;stroke-width:50;stroke-linecap:round;stroke-linejoin:round;" transform="scale(1, 1) translate(0, 0)">
    <path d="M 133.0,462.0 L 134.0,522.0 L 112.0,645.0"/>
    <path d="M 287.0,381.0 L 303.0,394.0 L 363.0,415.0 L 386.0,445.0"/>
    <path d="M 214.0,184.0 L 243.0,207.0 L 266.0,236.0 L 267.0,247.0 L 261.0,359.0 L 261.0,718.0 L 246.0,901.0 L 248.0,989.0"/>
    <path d="M 492.0,234.0 L 545.0,282.0 L 559.0,309.0"/>
    <path d="M 734.0,165.0 L 753.0,184.0 L 760.0,203.0 L 660.0,309.0"/>
    <path d="M 461.0,414.0 L 506.0,417.0 L 725.0,359.0 L 742.0,360.0 L 755.0,365.0 L 779.0,390.0 L 754.0,447.0 L 728.0,463.0"/>
    <path d="M 467.0,538.0 L 477.0,546.0 L 491.0,546.0 L 720.0,490.0 L 765.0,487.0 L 788.0,492.0"/>
    <path d="M 416.0,527.0 L 443.0,566.0 L 424.0,653.0 L 421.0,696.0 L 449.0,697.0 L 580.0,661.0 L 833.0,609.0 L 876.0,612.0 L 892.0,625.0 L 907.0,647.0 L 905.0,655.0 L 870.0,757.0 L 846.0,793.0 L 837.0,799.0 L 822.0,792.0 L 756.0,746.0"/>
    <path d="M 560.0,425.0 L 589.0,436.0 L 610.0,456.0 L 609.0,800.0 L 598.0,980.0 L 601.0,1066.0"/>
    <path d="M 579.0,683.0 L 568.0,697.0 L 560.0,732.0 L 532.0,776.0 L 468.0,855.0 L 380.0,934.0 L 330.0,965.0"/>
  </g>
</svg>
