<svg xmlns="http://www.w3.org/2000/svg" viewBox="0 0 1024 1024">
  <g style="fill:none;stroke:#000000;stroke-width:50;stroke-linecap:round;stroke-linejoin:round;" transform="scale(1, 1) translate(0, 0)">
    <path d="M 130.0,492.0 L 127.0,572.0 L 105.0,680.0"/>
    <path d="M 280.0,387.0 L 346.0,423.0 L 364.0,448.0"/>
    <path d="M 205.0,197.0 L 234.0,220.0 L 257.0,250.0 L 250.0,415.0 L 250.0,682.0 L 234.0,913.0 L 235.0,1005.0"/>
    <path d="M 485.0,323.0 L 544.0,330.0 L 731.0,291.0 L 768.0,292.0"/>
    <path d="M 601.0,164.0 L 638.0,206.0 L 607.0,418.0 L 589.0,436.0"/>
    <path d="M 412.0,460.0 L 421.0,501.0 L 387.0,566.0 L 382.0,616.0"/>
    <path d="M 440.0,472.0 L 459.0,484.0 L 477.0,482.0 L 717.0,430.0 L 822.0,422.0 L 850.0,439.0 L 858.0,460.0 L 795.0,526.0 L 786.0,529.0"/>
    <path d="M 475.0,583.0 L 492.0,592.0 L 519.0,595.0 L 652.0,553.0 L 692.0,562.0 L 703.0,576.0 L 696.0,590.0 L 626.0,675.0"/>
    <path d="M 583.0,681.0 L 622.0,705.0 L 633.0,721.0 L 649.0,773.0 L 658.0,886.0 L 647.0,968.0 L 634.0,1002.0 L 597.0,1035.0 L 509.0,983.0"/>
    <path d="M 354.0,776.0 L 410.0,782.0 L 549.0,757.0 L 833.0,720.0 L 874.0,722.0 L 924.0,736.0"/>
  </g>
</svg>
