<svg xmlns="http://www.w3.org/2000/svg" viewBox="0 0 1024 1024">
  <g style="fill:none;stroke:#000000;stroke-width:50;stroke-linecap:round;stroke-linejoin:round;" transform="scale(1, 1) translate(0, 0)">
    <path d="M 128.0,479.0 L 121.0,544.0 L 79.0,681.0"/>
    <path d="M 271.0,463.0 L 284.0,478.0 L 341.0,511.0 L 360.0,547.0"/>
    <path d="M 201.0,212.0 L 216.0,222.0 L 252.0,267.0 L 243.0,434.0 L 240.0,676.0 L 219.0,947.0 L 219.0,1033.0"/>
    <path d="M 443.0,297.0 L 470.0,319.0 L 477.0,336.0 L 512.0,494.0"/>
    <path d="M 501.0,300.0 L 513.0,310.0 L 689.0,268.0 L 717.0,268.0 L 736.0,278.0 L 754.0,298.0 L 728.0,372.0 L 701.0,388.0"/>
    <path d="M 529.0,466.0 L 544.0,451.0 L 698.0,417.0 L 760.0,420.0"/>
    <path d="M 487.0,580.0 L 499.0,590.0 L 621.0,562.0 L 707.0,535.0 L 744.0,533.0 L 770.0,551.0 L 779.0,565.0 L 751.0,647.0 L 725.0,667.0"/>
    <path d="M 587.0,587.0 L 607.0,610.0 L 603.0,682.0 L 587.0,693.0"/>
    <path d="M 479.0,751.0 L 495.0,741.0 L 726.0,693.0 L 770.0,690.0 L 790.0,697.0"/>
    <path d="M 429.0,568.0 L 450.0,588.0 L 457.0,610.0 L 450.0,790.0 L 460.0,896.0 L 474.0,936.0 L 487.0,953.0 L 532.0,982.0 L 590.0,1002.0 L 711.0,1010.0 L 786.0,1003.0 L 860.0,979.0 L 906.0,948.0 L 919.0,929.0 L 916.0,801.0"/>
  </g>
</svg>
