<svg xmlns="http://www.w3.org/2000/svg" viewBox="0 0 1024 1024">
  <g style="fill:none;stroke:#000000;stroke-width:50;stroke-linecap:round;stroke-linejoin:round;" transform="scale(1, 1) translate(0, 0)">
    <path d="M 295.0,308.0 L 328.0,333.0 L 371.0,469.0"/>
    <path d="M 352.0,308.0 L 370.0,318.0 L 653.0,264.0 L 683.0,266.0 L 705.0,281.0 L 714.0,302.0 L 692.0,351.0 L 667.0,361.0"/>
    <path d="M 389.0,445.0 L 403.0,434.0 L 602.0,398.0 L 653.0,391.0 L 710.0,399.0"/>
    <path d="M 279.0,541.0 L 318.0,574.0 L 362.0,701.0"/>
    <path d="M 324.0,535.0 L 349.0,544.0 L 449.0,521.0 L 678.0,487.0 L 706.0,501.0 L 723.0,525.0 L 705.0,571.0 L 685.0,589.0 L 670.0,593.0"/>
    <path d="M 377.0,661.0 L 399.0,667.0 L 658.0,625.0 L 710.0,624.0 L 729.0,630.0"/>
    <path d="M 468.0,181.0 L 491.0,187.0 L 521.0,218.0 L 514.0,314.0 L 507.0,727.0"/>
    <path d="M 246.0,775.0 L 230.0,841.0 L 178.0,951.0"/>
    <path d="M 335.0,811.0 L 379.0,904.0 L 436.0,959.0 L 508.0,991.0 L 622.0,1009.0 L 705.0,1006.0 L 760.0,980.0 L 752.0,952.0 L 693.0,841.0"/>
    <path d="M 492.0,778.0 L 550.0,827.0 L 576.0,860.0"/>
    <path d="M 738.0,718.0 L 870.0,780.0 L 886.0,793.0 L 916.0,836.0"/>
  </g>
</svg>
