<svg xmlns="http://www.w3.org/2000/svg" viewBox="0 0 1024 1024">
  <g style="fill:none;stroke:#000000;stroke-width:50;stroke-linecap:round;stroke-linejoin:round;" transform="scale(1, 1) translate(0, 0)">
    <path d="M 352.0,243.0 L 373.0,265.0 L 382.0,293.0 L 391.0,509.0 L 378.0,525.0"/>
    <path d="M 398.0,254.0 L 418.0,263.0 L 574.0,231.0 L 622.0,235.0 L 643.0,268.0 L 624.0,481.0 L 602.0,496.0"/>
    <path d="M 415.0,374.0 L 425.0,363.0 L 494.0,346.0 L 536.0,340.0 L 557.0,345.0"/>
    <path d="M 412.0,466.0 L 424.0,454.0 L 467.0,443.0 L 530.0,432.0 L 556.0,436.0"/>
    <path d="M 158.0,564.0 L 211.0,573.0 L 522.0,533.0 L 776.0,512.0 L 825.0,519.0 L 860.0,532.0"/>
    <path d="M 485.0,575.0 L 475.0,573.0 L 448.0,583.0 L 412.0,624.0 L 370.0,656.0 L 348.0,697.0 L 392.0,698.0 L 627.0,652.0 L 634.0,661.0"/>
    <path d="M 607.0,590.0 L 686.0,665.0 L 701.0,706.0"/>
    <path d="M 223.0,803.0 L 209.0,864.0 L 161.0,976.0"/>
    <path d="M 305.0,821.0 L 318.0,838.0 L 343.0,906.0 L 398.0,966.0 L 473.0,1002.0 L 585.0,1022.0 L 672.0,1021.0 L 709.0,1010.0 L 732.0,994.0 L 724.0,965.0 L 657.0,842.0"/>
    <path d="M 456.0,758.0 L 527.0,817.0 L 541.0,843.0"/>
    <path d="M 727.0,754.0 L 857.0,828.0 L 881.0,854.0 L 897.0,884.0"/>
  </g>
</svg>
