<svg xmlns="http://www.w3.org/2000/svg" viewBox="0 0 1024 1024">
  <g style="fill:none;stroke:#000000;stroke-width:50;stroke-linecap:round;stroke-linejoin:round;" transform="scale(1, 1) translate(0, 0)">
    <path d="M 141.0,478.0 L 136.0,558.0 L 109.0,665.0"/>
    <path d="M 296.0,437.0 L 354.0,482.0 L 369.0,511.0"/>
    <path d="M 222.0,239.0 L 251.0,263.0 L 273.0,293.0 L 265.0,709.0 L 252.0,913.0 L 252.0,1010.0"/>
    <path d="M 406.0,372.0 L 427.0,403.0 L 425.0,617.0"/>
    <path d="M 511.0,302.0 L 541.0,336.0 L 535.0,644.0"/>
    <path d="M 593.0,363.0 L 640.0,366.0 L 760.0,329.0 L 788.0,332.0 L 803.0,347.0 L 771.0,433.0 L 728.0,510.0 L 703.0,539.0 L 651.0,581.0 L 588.0,610.0"/>
    <path d="M 589.0,430.0 L 633.0,451.0 L 735.0,553.0 L 818.0,613.0 L 867.0,628.0 L 969.0,643.0 L 980.0,639.0"/>
    <path d="M 431.0,785.0 L 459.0,791.0 L 531.0,787.0 L 636.0,768.0 L 715.0,745.0 L 752.0,742.0 L 778.0,747.0"/>
    <path d="M 564.0,666.0 L 602.0,701.0 L 598.0,903.0 L 583.0,924.0"/>
    <path d="M 368.0,967.0 L 420.0,976.0 L 531.0,958.0 L 817.0,928.0 L 841.0,929.0 L 903.0,948.0"/>
  </g>
</svg>
