<svg xmlns="http://www.w3.org/2000/svg" viewBox="0 0 1024 1024">
  <g style="fill:none;stroke:#000000;stroke-width:50;stroke-linecap:round;stroke-linejoin:round;" transform="scale(1, 1) translate(0, 0)">
    <path d="M 137.0,501.0 L 139.0,562.0 L 117.0,659.0 L 117.0,682.0"/>
    <path d="M 302.0,414.0 L 371.0,445.0 L 404.0,480.0"/>
    <path d="M 225.0,241.0 L 254.0,265.0 L 277.0,295.0 L 268.0,751.0 L 253.0,950.0 L 255.0,1029.0"/>
    <path d="M 540.0,259.0 L 551.0,269.0 L 563.0,270.0 L 720.0,230.0 L 772.0,229.0"/>
    <path d="M 470.0,241.0 L 503.0,278.0 L 513.0,337.0 L 513.0,554.0 L 497.0,567.0"/>
    <path d="M 539.0,391.0 L 559.0,381.0 L 655.0,361.0 L 705.0,358.0"/>
    <path d="M 539.0,484.0 L 550.0,477.0 L 662.0,457.0 L 708.0,458.0"/>
    <path d="M 344.0,612.0 L 378.0,618.0 L 402.0,615.0 L 600.0,573.0 L 794.0,544.0 L 865.0,558.0"/>
    <path d="M 424.0,638.0 L 449.0,650.0 L 457.0,670.0 L 439.0,932.0 L 446.0,972.0 L 485.0,962.0 L 605.0,879.0"/>
    <path d="M 766.0,663.0 L 730.0,656.0 L 668.0,733.0 L 654.0,747.0 L 646.0,746.0"/>
    <path d="M 491.0,667.0 L 530.0,687.0 L 716.0,844.0 L 819.0,910.0 L 972.0,909.0"/>
  </g>
</svg>
