<svg xmlns="http://www.w3.org/2000/svg" viewBox="0 0 1024 1024">
  <g style="fill:none;stroke:#000000;stroke-width:50;stroke-linecap:round;stroke-linejoin:round;" transform="scale(1, 1) translate(0, 0)">
    <path d="M 117.0,498.0 L 114.0,581.0 L 95.0,652.0 L 93.0,681.0"/>
    <path d="M 270.0,401.0 L 284.0,413.0 L 342.0,436.0 L 367.0,465.0"/>
    <path d="M 198.0,200.0 L 226.0,223.0 L 249.0,253.0 L 242.0,391.0 L 241.0,716.0 L 226.0,906.0 L 228.0,994.0"/>
    <path d="M 550.0,167.0 L 634.0,213.0 L 659.0,245.0"/>
    <path d="M 461.0,351.0 L 484.0,356.0 L 536.0,352.0 L 729.0,306.0 L 792.0,300.0"/>
    <path d="M 472.0,414.0 L 491.0,443.0 L 461.0,505.0 L 414.0,568.0 L 353.0,619.0"/>
    <path d="M 487.0,523.0 L 488.0,534.0 L 523.0,562.0 L 536.0,584.0"/>
    <path d="M 711.0,361.0 L 735.0,392.0 L 726.0,422.0 L 675.0,504.0 L 608.0,575.0"/>
    <path d="M 703.0,506.0 L 718.0,506.0 L 773.0,535.0 L 808.0,577.0"/>
    <path d="M 333.0,735.0 L 390.0,742.0 L 519.0,715.0 L 852.0,669.0 L 936.0,686.0"/>
    <path d="M 573.0,615.0 L 592.0,627.0 L 613.0,652.0 L 611.0,1080.0"/>
  </g>
</svg>
