<svg xmlns="http://www.w3.org/2000/svg" viewBox="0 0 1024 1024">
  <g style="fill:none;stroke:#000000;stroke-width:50;stroke-linecap:round;stroke-linejoin:round;" transform="scale(1, 1) translate(0, 0)">
    <path d="M 148.0,504.0 L 141.0,588.0 L 114.0,671.0 L 111.0,701.0"/>
    <path d="M 298.0,450.0 L 360.0,494.0 L 377.0,521.0"/>
    <path d="M 225.0,216.0 L 254.0,240.0 L 276.0,270.0 L 267.0,710.0 L 250.0,949.0 L 251.0,1026.0"/>
    <path d="M 492.0,327.0 L 514.0,332.0 L 570.0,328.0 L 723.0,287.0 L 768.0,285.0"/>
    <path d="M 469.0,458.0 L 526.0,457.0 L 735.0,401.0 L 767.0,406.0 L 792.0,431.0 L 754.0,574.0 L 730.0,592.0"/>
    <path d="M 388.0,573.0 L 411.0,578.0 L 444.0,575.0 L 587.0,541.0 L 854.0,495.0 L 911.0,496.0 L 938.0,504.0"/>
    <path d="M 455.0,668.0 L 512.0,664.0 L 731.0,616.0 L 768.0,613.0 L 791.0,620.0"/>
    <path d="M 573.0,179.0 L 617.0,214.0 L 619.0,225.0 L 611.0,585.0 L 605.0,614.0 L 594.0,624.0"/>
    <path d="M 559.0,673.0 L 581.0,700.0 L 527.0,856.0 L 559.0,874.0 L 681.0,919.0 L 755.0,959.0 L 802.0,990.0 L 842.0,1032.0"/>
    <path d="M 697.0,719.0 L 710.0,737.0 L 717.0,767.0 L 666.0,865.0 L 626.0,919.0 L 568.0,966.0 L 534.0,985.0 L 476.0,1006.0 L 428.0,1014.0"/>
    <path d="M 329.0,812.0 L 366.0,819.0 L 392.0,816.0 L 597.0,776.0 L 879.0,738.0 L 927.0,740.0 L 974.0,751.0"/>
  </g>
</svg>
