<svg xmlns="http://www.w3.org/2000/svg" viewBox="0 0 1024 1024">
  <g style="fill:none;stroke:#000000;stroke-width:50;stroke-linecap:round;stroke-linejoin:round;" transform="scale(1, 1) translate(0, 0)">
    <path d="M 125.0,486.0 L 121.0,571.0 L 102.0,633.0 L 97.0,673.0"/>
    <path d="M 285.0,400.0 L 304.0,419.0 L 342.0,442.0 L 362.0,472.0"/>
    <path d="M 214.0,210.0 L 241.0,232.0 L 263.0,263.0 L 248.0,747.0 L 231.0,925.0 L 231.0,1014.0"/>
    <path d="M 476.0,386.0 L 515.0,390.0 L 555.0,384.0 L 711.0,337.0 L 753.0,340.0"/>
    <path d="M 563.0,178.0 L 597.0,204.0 L 608.0,221.0 L 599.0,452.0 L 582.0,477.0"/>
    <path d="M 370.0,532.0 L 423.0,536.0 L 558.0,504.0 L 836.0,458.0 L 909.0,473.0"/>
    <path d="M 486.0,582.0 L 527.0,633.0 L 537.0,655.0"/>
    <path d="M 670.0,512.0 L 685.0,523.0 L 694.0,546.0 L 651.0,649.0 L 639.0,662.0"/>
    <path d="M 423.0,715.0 L 477.0,719.0 L 697.0,672.0 L 740.0,679.0"/>
    <path d="M 346.0,856.0 L 400.0,860.0 L 536.0,830.0 L 790.0,790.0 L 864.0,805.0"/>
    <path d="M 557.0,725.0 L 589.0,745.0 L 598.0,758.0 L 595.0,1098.0"/>
  </g>
</svg>
