<svg xmlns="http://www.w3.org/2000/svg" viewBox="0 0 1024 1024">
  <g style="fill:none;stroke:#000000;stroke-width:50;stroke-linecap:round;stroke-linejoin:round;" transform="scale(1, 1) translate(0, 0)">
    <path d="M 129.0,489.0 L 125.0,562.0 L 100.0,642.0 L 98.0,670.0"/>
    <path d="M 287.0,467.0 L 298.0,470.0 L 304.0,483.0 L 352.0,502.0 L 378.0,533.0"/>
    <path d="M 218.0,247.0 L 246.0,271.0 L 268.0,301.0 L 257.0,742.0 L 239.0,949.0 L 240.0,1034.0"/>
    <path d="M 409.0,318.0 L 471.0,355.0 L 495.0,392.0"/>
    <path d="M 738.0,254.0 L 756.0,286.0 L 665.0,374.0"/>
    <path d="M 425.0,483.0 L 446.0,489.0 L 499.0,488.0 L 572.0,476.0 L 693.0,443.0 L 737.0,444.0"/>
    <path d="M 331.0,628.0 L 377.0,634.0 L 592.0,592.0 L 786.0,564.0 L 860.0,578.0"/>
    <path d="M 545.0,255.0 L 573.0,270.0 L 593.0,292.0 L 583.0,350.0 L 519.0,550.0 L 477.0,646.0 L 424.0,729.0 L 359.0,809.0 L 304.0,860.0"/>
    <path d="M 661.0,609.0 L 679.0,616.0 L 765.0,701.0 L 835.0,756.0 L 959.0,769.0"/>
    <path d="M 511.0,769.0 L 522.0,764.0 L 524.0,755.0 L 652.0,724.0 L 675.0,729.0 L 685.0,741.0 L 671.0,836.0 L 645.0,889.0 L 622.0,903.0 L 559.0,868.0"/>
    <path d="M 462.0,733.0 L 480.0,752.0 L 488.0,782.0 L 479.0,868.0 L 480.0,931.0 L 487.0,967.0 L 504.0,995.0 L 543.0,1017.0 L 577.0,1028.0 L 635.0,1034.0 L 723.0,1024.0 L 761.0,1012.0 L 795.0,992.0 L 809.0,974.0 L 810.0,877.0"/>
  </g>
</svg>
