<svg xmlns="http://www.w3.org/2000/svg" viewBox="0 0 1024 1024">
  <g style="fill:none;stroke:#000000;stroke-width:50;stroke-linecap:round;stroke-linejoin:round;" transform="scale(1, 1) translate(0, 0)">
    <path d="M 145.0,466.0 L 138.0,561.0 L 113.0,661.0"/>
    <path d="M 295.0,403.0 L 361.0,436.0 L 377.0,457.0"/>
    <path d="M 222.0,219.0 L 251.0,243.0 L 273.0,273.0 L 267.0,382.0 L 267.0,630.0 L 252.0,998.0"/>
    <path d="M 529.0,195.0 L 547.0,207.0 L 568.0,238.0 L 539.0,317.0 L 496.0,406.0 L 432.0,516.0 L 388.0,580.0 L 350.0,622.0"/>
    <path d="M 478.0,495.0 L 480.0,519.0 L 506.0,566.0 L 501.0,835.0 L 486.0,986.0 L 492.0,1039.0"/>
    <path d="M 657.0,251.0 L 727.0,293.0 L 755.0,331.0"/>
    <path d="M 573.0,457.0 L 641.0,461.0 L 725.0,448.0 L 813.0,424.0 L 864.0,423.0"/>
    <path d="M 605.0,596.0 L 647.0,593.0 L 779.0,565.0 L 808.0,563.0 L 831.0,570.0"/>
    <path d="M 598.0,716.0 L 670.0,709.0 L 771.0,688.0 L 822.0,693.0"/>
    <path d="M 676.0,476.0 L 705.0,499.0 L 708.0,517.0 L 705.0,795.0 L 689.0,816.0"/>
    <path d="M 535.0,854.0 L 544.0,863.0 L 581.0,861.0 L 845.0,824.0 L 906.0,829.0 L 937.0,840.0"/>
  </g>
</svg>
