<svg xmlns="http://www.w3.org/2000/svg" viewBox="0 0 1024 1024">
  <g style="fill:none;stroke:#000000;stroke-width:50;stroke-linecap:round;stroke-linejoin:round;" transform="scale(1, 1) translate(0, 0)">
    <path d="M 125.0,494.0 L 122.0,570.0 L 97.0,677.0"/>
    <path d="M 285.0,427.0 L 336.0,453.0 L 364.0,484.0"/>
    <path d="M 213.0,204.0 L 241.0,228.0 L 264.0,259.0 L 255.0,661.0 L 246.0,839.0 L 235.0,927.0 L 235.0,1025.0"/>
    <path d="M 518.0,211.0 L 547.0,244.0 L 545.0,263.0 L 467.0,399.0 L 406.0,467.0"/>
    <path d="M 496.0,400.0 L 548.0,397.0 L 770.0,353.0 L 785.0,354.0 L 808.0,375.0 L 777.0,530.0 L 753.0,604.0 L 727.0,656.0 L 702.0,685.0 L 684.0,694.0 L 616.0,657.0"/>
    <path d="M 520.0,424.0 L 536.0,442.0 L 536.0,452.0 L 520.0,486.0 L 457.0,565.0 L 406.0,603.0"/>
    <path d="M 643.0,398.0 L 666.0,423.0 L 653.0,461.0 L 613.0,535.0 L 570.0,594.0 L 523.0,644.0 L 481.0,678.0 L 469.0,680.0 L 466.0,688.0"/>
    <path d="M 380.0,759.0 L 359.0,850.0 L 328.0,925.0"/>
    <path d="M 455.0,778.0 L 488.0,862.0 L 535.0,915.0 L 600.0,947.0 L 701.0,969.0 L 773.0,970.0 L 815.0,950.0 L 803.0,904.0 L 760.0,809.0"/>
    <path d="M 563.0,730.0 L 622.0,791.0 L 638.0,818.0"/>
    <path d="M 773.0,706.0 L 872.0,764.0 L 891.0,782.0 L 911.0,819.0"/>
  </g>
</svg>
