<svg xmlns="http://www.w3.org/2000/svg" viewBox="0 0 1024 1024">
  <g style="fill:none;stroke:#000000;stroke-width:50;stroke-linecap:round;stroke-linejoin:round;" transform="scale(1, 1) translate(0, 0)">
    <path d="M 121.0,470.0 L 118.0,546.0 L 93.0,653.0"/>
    <path d="M 276.0,414.0 L 335.0,451.0 L 359.0,482.0"/>
    <path d="M 201.0,208.0 L 252.0,262.0 L 245.0,409.0 L 249.0,449.0 L 244.0,671.0 L 226.0,938.0 L 227.0,1014.0"/>
    <path d="M 402.0,310.0 L 431.0,339.0 L 443.0,388.0 L 433.0,695.0 L 423.0,795.0 L 405.0,886.0 L 403.0,943.0"/>
    <path d="M 457.0,323.0 L 483.0,335.0 L 769.0,279.0 L 807.0,286.0 L 839.0,319.0 L 848.0,791.0 L 845.0,910.0 L 824.0,962.0 L 779.0,949.0 L 722.0,921.0"/>
    <path d="M 536.0,416.0 L 571.0,460.0 L 575.0,474.0"/>
    <path d="M 672.0,371.0 L 690.0,384.0 L 692.0,394.0 L 659.0,469.0 L 644.0,495.0 L 632.0,501.0"/>
    <path d="M 512.0,538.0 L 532.0,543.0 L 579.0,539.0 L 726.0,502.0 L 757.0,502.0"/>
    <path d="M 565.0,563.0 L 601.0,590.0 L 631.0,629.0"/>
    <path d="M 475.0,670.0 L 524.0,674.0 L 721.0,633.0 L 756.0,630.0 L 781.0,635.0"/>
    <path d="M 544.0,694.0 L 564.0,711.0 L 556.0,797.0 L 597.0,800.0 L 714.0,776.0 L 757.0,787.0"/>
  </g>
</svg>
