<svg xmlns="http://www.w3.org/2000/svg" viewBox="0 0 1024 1024">
  <g style="fill:none;stroke:#000000;stroke-width:50;stroke-linecap:round;stroke-linejoin:round;" transform="scale(1, 1) translate(0, 0)">
    <path d="M 125.0,516.0 L 117.0,599.0 L 100.0,645.0 L 94.0,682.0"/>
    <path d="M 274.0,469.0 L 333.0,520.0"/>
    <path d="M 201.0,255.0 L 249.0,307.0 L 241.0,739.0 L 227.0,926.0 L 228.0,1015.0"/>
    <path d="M 373.0,379.0 L 411.0,376.0 L 480.0,354.0 L 508.0,360.0 L 514.0,372.0 L 489.0,438.0 L 445.0,509.0 L 392.0,570.0 L 338.0,608.0"/>
    <path d="M 366.0,438.0 L 492.0,528.0 L 521.0,559.0 L 529.0,582.0"/>
    <path d="M 603.0,351.0 L 641.0,347.0 L 711.0,325.0 L 732.0,327.0 L 746.0,344.0 L 719.0,411.0 L 660.0,499.0 L 609.0,548.0 L 566.0,576.0"/>
    <path d="M 586.0,416.0 L 740.0,514.0 L 772.0,543.0 L 788.0,571.0"/>
    <path d="M 328.0,687.0 L 377.0,691.0 L 474.0,661.0 L 487.0,661.0 L 510.0,675.0 L 481.0,761.0 L 461.0,797.0 L 425.0,841.0 L 370.0,882.0 L 284.0,920.0"/>
    <path d="M 350.0,748.0 L 490.0,837.0 L 516.0,865.0 L 525.0,884.0"/>
    <path d="M 580.0,670.0 L 636.0,669.0 L 702.0,649.0 L 731.0,650.0 L 748.0,660.0 L 712.0,781.0 L 657.0,875.0 L 613.0,918.0 L 565.0,949.0 L 471.0,975.0"/>
    <path d="M 559.0,733.0 L 605.0,761.0 L 705.0,878.0 L 796.0,957.0 L 813.0,967.0 L 879.0,984.0 L 966.0,998.0"/>
  </g>
</svg>
