<svg xmlns="http://www.w3.org/2000/svg" viewBox="0 0 1024 1024">
  <g style="fill:none;stroke:#000000;stroke-width:50;stroke-linecap:round;stroke-linejoin:round;" transform="scale(1, 1) translate(0, 0)">
    <path d="M 125.0,507.0 L 121.0,572.0 L 94.0,680.0"/>
    <path d="M 304.0,446.0 L 314.0,448.0 L 318.0,459.0 L 372.0,493.0 L 388.0,517.0"/>
    <path d="M 234.0,223.0 L 262.0,247.0 L 284.0,277.0 L 276.0,723.0 L 270.0,859.0 L 259.0,947.0 L 260.0,1042.0"/>
    <path d="M 450.0,301.0 L 487.0,346.0 L 496.0,436.0 L 494.0,746.0 L 478.0,757.0"/>
    <path d="M 525.0,348.0 L 549.0,329.0 L 699.0,291.0 L 726.0,298.0 L 750.0,331.0 L 740.0,430.0 L 735.0,685.0 L 733.0,703.0 L 710.0,721.0"/>
    <path d="M 518.0,465.0 L 531.0,455.0 L 593.0,438.0 L 621.0,433.0 L 653.0,438.0"/>
    <path d="M 514.0,569.0 L 526.0,559.0 L 591.0,545.0 L 619.0,541.0 L 648.0,546.0"/>
    <path d="M 520.0,673.0 L 528.0,662.0 L 607.0,646.0 L 637.0,644.0 L 659.0,650.0"/>
    <path d="M 325.0,796.0 L 372.0,804.0 L 566.0,771.0 L 844.0,740.0 L 880.0,741.0 L 935.0,756.0"/>
    <path d="M 555.0,864.0 L 519.0,869.0 L 472.0,927.0 L 421.0,973.0 L 377.0,1006.0 L 323.0,1035.0"/>
    <path d="M 682.0,865.0 L 758.0,924.0 L 802.0,967.0 L 815.0,988.0 L 825.0,1027.0"/>
  </g>
</svg>
