<svg xmlns="http://www.w3.org/2000/svg" viewBox="0 0 1024 1024">
  <g style="fill:none;stroke:#000000;stroke-width:50;stroke-linecap:round;stroke-linejoin:round;" transform="scale(1, 1) translate(0, 0)">
    <path d="M 430.0,187.0 L 443.0,212.0 L 445.0,235.0 L 419.0,266.0 L 307.0,363.0 L 214.0,417.0"/>
    <path d="M 430.0,298.0 L 584.0,271.0 L 620.0,280.0 L 629.0,294.0 L 609.0,327.0 L 549.0,398.0 L 471.0,468.0 L 408.0,513.0 L 286.0,570.0 L 213.0,587.0 L 157.0,590.0"/>
    <path d="M 373.0,341.0 L 421.0,349.0 L 595.0,467.0 L 741.0,536.0 L 784.0,546.0 L 932.0,523.0"/>
    <path d="M 306.0,584.0 L 340.0,604.0 L 380.0,805.0"/>
    <path d="M 364.0,581.0 L 382.0,591.0 L 604.0,557.0 L 652.0,568.0 L 671.0,591.0 L 626.0,758.0 L 627.0,782.0"/>
    <path d="M 419.0,684.0 L 444.0,684.0 L 554.0,662.0 L 592.0,666.0"/>
    <path d="M 483.0,592.0 L 506.0,614.0 L 505.0,721.0 L 491.0,743.0"/>
    <path d="M 399.0,783.0 L 448.0,770.0 L 581.0,756.0 L 596.0,748.0"/>
    <path d="M 251.0,831.0 L 237.0,896.0 L 196.0,997.0"/>
    <path d="M 319.0,841.0 L 333.0,861.0 L 350.0,911.0 L 373.0,947.0 L 416.0,984.0 L 481.0,1013.0 L 579.0,1031.0 L 683.0,1029.0 L 714.0,1019.0 L 735.0,1002.0 L 676.0,864.0"/>
    <path d="M 476.0,821.0 L 541.0,870.0 L 556.0,893.0"/>
    <path d="M 726.0,770.0 L 829.0,830.0 L 850.0,855.0 L 865.0,886.0"/>
  </g>
</svg>
