<svg xmlns="http://www.w3.org/2000/svg" viewBox="0 0 1024 1024">
  <g style="fill:none;stroke:#000000;stroke-width:50;stroke-linecap:round;stroke-linejoin:round;" transform="scale(1, 1) translate(0, 0)">
    <path d="M 144.0,497.0 L 139.0,568.0 L 106.0,688.0"/>
    <path d="M 293.0,456.0 L 361.0,505.0 L 377.0,530.0"/>
    <path d="M 221.0,232.0 L 249.0,256.0 L 272.0,287.0 L 261.0,728.0 L 243.0,953.0 L 243.0,1046.0"/>
    <path d="M 459.0,324.0 L 474.0,333.0 L 523.0,334.0 L 776.0,290.0 L 809.0,292.0"/>
    <path d="M 524.0,477.0 L 591.0,478.0 L 716.0,445.0 L 767.0,444.0"/>
    <path d="M 499.0,542.0 L 553.0,580.0 L 573.0,620.0"/>
    <path d="M 754.0,501.0 L 766.0,530.0 L 696.0,595.0"/>
    <path d="M 463.0,682.0 L 518.0,689.0 L 789.0,641.0 L 851.0,647.0"/>
    <path d="M 595.0,371.0 L 614.0,378.0 L 643.0,403.0 L 641.0,586.0 L 629.0,710.0 L 605.0,776.0 L 585.0,806.0 L 524.0,861.0 L 477.0,881.0"/>
    <path d="M 692.0,739.0 L 788.0,815.0 L 805.0,835.0 L 819.0,875.0"/>
    <path d="M 393.0,299.0 L 428.0,345.0 L 430.0,429.0 L 417.0,773.0 L 402.0,974.0 L 444.0,977.0 L 586.0,952.0 L 776.0,940.0 L 850.0,941.0 L 882.0,954.0"/>
  </g>
</svg>
