<svg xmlns="http://www.w3.org/2000/svg" viewBox="0 0 1024 1024">
  <g style="fill:none;stroke:#000000;stroke-width:50;stroke-linecap:round;stroke-linejoin:round;" transform="scale(1, 1) translate(0, 0)">
    <path d="M 138.0,464.0 L 139.0,545.0 L 120.0,657.0"/>
    <path d="M 293.0,368.0 L 306.0,382.0 L 367.0,416.0 L 383.0,443.0"/>
    <path d="M 213.0,220.0 L 241.0,244.0 L 264.0,275.0 L 255.0,696.0 L 238.0,933.0 L 239.0,1014.0"/>
    <path d="M 472.0,279.0 L 536.0,330.0 L 558.0,373.0"/>
    <path d="M 706.0,219.0 L 728.0,236.0 L 737.0,251.0 L 734.0,258.0 L 639.0,410.0 L 615.0,427.0"/>
    <path d="M 411.0,465.0 L 429.0,480.0 L 443.0,503.0 L 481.0,701.0"/>
    <path d="M 455.0,466.0 L 476.0,475.0 L 726.0,424.0 L 790.0,430.0 L 814.0,460.0 L 759.0,645.0 L 759.0,668.0"/>
    <path d="M 511.0,573.0 L 671.0,544.0 L 713.0,548.0"/>
    <path d="M 500.0,682.0 L 508.0,674.0 L 529.0,669.0 L 700.0,640.0 L 728.0,627.0"/>
    <path d="M 361.0,811.0 L 422.0,816.0 L 701.0,769.0 L 829.0,755.0 L 878.0,760.0 L 912.0,771.0"/>
    <path d="M 571.0,474.0 L 604.0,491.0 L 617.0,506.0 L 611.0,1085.0"/>
  </g>
</svg>
