<svg xmlns="http://www.w3.org/2000/svg" viewBox="0 0 1024 1024">
  <g style="fill:none;stroke:#000000;stroke-width:50;stroke-linecap:round;stroke-linejoin:round;" transform="scale(1, 1) translate(0, 0)">
    <path d="M 140.0,496.0 L 133.0,573.0 L 103.0,681.0"/>
    <path d="M 291.0,433.0 L 360.0,478.0 L 378.0,504.0"/>
    <path d="M 218.0,223.0 L 246.0,247.0 L 268.0,277.0 L 260.0,712.0 L 254.0,850.0 L 243.0,943.0 L 244.0,1034.0"/>
    <path d="M 432.0,277.0 L 463.0,317.0 L 501.0,517.0"/>
    <path d="M 466.0,275.0 L 492.0,283.0 L 710.0,254.0 L 766.0,265.0 L 789.0,292.0 L 757.0,427.0 L 734.0,496.0 L 711.0,496.0"/>
    <path d="M 507.0,400.0 L 516.0,392.0 L 644.0,375.0 L 676.0,373.0 L 695.0,380.0"/>
    <path d="M 519.0,494.0 L 539.0,499.0 L 703.0,472.0"/>
    <path d="M 447.0,572.0 L 471.0,605.0 L 459.0,636.0 L 431.0,689.0 L 405.0,723.0 L 346.0,775.0"/>
    <path d="M 478.0,665.0 L 599.0,657.0 L 739.0,630.0 L 794.0,632.0"/>
    <path d="M 475.0,800.0 L 497.0,808.0 L 535.0,809.0 L 711.0,782.0 L 769.0,783.0"/>
    <path d="M 588.0,535.0 L 620.0,575.0 L 617.0,910.0 L 602.0,925.0"/>
    <path d="M 354.0,963.0 L 413.0,974.0 L 560.0,955.0 L 826.0,936.0 L 883.0,944.0 L 917.0,958.0"/>
  </g>
</svg>
