<svg xmlns="http://www.w3.org/2000/svg" viewBox="0 0 1024 1024">
  <g style="fill:none;stroke:#000000;stroke-width:50;stroke-linecap:round;stroke-linejoin:round;" transform="scale(1, 1) translate(0, 0)">
    <path d="M 489.0,255.0 L 420.0,250.0 L 363.0,295.0 L 302.0,331.0 L 250.0,354.0 L 241.0,352.0 L 233.0,361.0"/>
    <path d="M 120.0,492.0 L 173.0,499.0 L 380.0,447.0 L 442.0,436.0 L 471.0,439.0"/>
    <path d="M 347.0,335.0 L 385.0,359.0 L 367.0,688.0 L 373.0,735.0"/>
    <path d="M 350.0,481.0 L 337.0,503.0 L 333.0,524.0 L 297.0,571.0 L 229.0,639.0 L 162.0,686.0"/>
    <path d="M 428.0,533.0 L 491.0,570.0 L 503.0,592.0"/>
    <path d="M 511.0,404.0 L 558.0,448.0 L 573.0,473.0"/>
    <path d="M 792.0,318.0 L 809.0,338.0 L 814.0,357.0 L 720.0,446.0"/>
    <path d="M 608.0,223.0 L 623.0,230.0 L 655.0,265.0 L 649.0,459.0 L 631.0,559.0 L 598.0,626.0 L 570.0,657.0 L 507.0,694.0 L 477.0,702.0"/>
    <path d="M 664.0,512.0 L 672.0,533.0 L 724.0,593.0 L 800.0,664.0 L 851.0,680.0 L 947.0,696.0"/>
    <path d="M 251.0,800.0 L 240.0,881.0 L 203.0,988.0"/>
    <path d="M 331.0,822.0 L 378.0,918.0 L 416.0,959.0 L 494.0,1000.0 L 573.0,1018.0 L 706.0,1022.0 L 744.0,1013.0 L 769.0,999.0 L 773.0,993.0 L 751.0,945.0 L 696.0,866.0"/>
    <path d="M 491.0,756.0 L 575.0,817.0 L 593.0,834.0 L 596.0,845.0"/>
    <path d="M 735.0,757.0 L 855.0,820.0 L 889.0,867.0"/>
  </g>
</svg>
