<svg xmlns="http://www.w3.org/2000/svg" viewBox="0 0 1024 1024">
  <g style="fill:none;stroke:#000000;stroke-width:50;stroke-linecap:round;stroke-linejoin:round;" transform="scale(1, 1) translate(0, 0)">
    <path d="M 642.0,225.0 L 574.0,209.0 L 509.0,246.0 L 464.0,264.0 L 350.0,298.0"/>
    <path d="M 308.0,342.0 L 358.0,376.0 L 374.0,392.0 L 386.0,418.0"/>
    <path d="M 461.0,322.0 L 497.0,357.0 L 511.0,382.0"/>
    <path d="M 697.0,271.0 L 706.0,306.0 L 620.0,365.0 L 612.0,365.0 L 609.0,373.0"/>
    <path d="M 216.0,461.0 L 227.0,486.0 L 226.0,508.0 L 187.0,591.0 L 188.0,639.0"/>
    <path d="M 252.0,488.0 L 268.0,497.0 L 300.0,497.0 L 492.0,458.0 L 709.0,424.0 L 796.0,416.0 L 827.0,424.0 L 849.0,458.0 L 774.0,538.0 L 761.0,541.0"/>
    <path d="M 340.0,553.0 L 325.0,608.0 L 285.0,692.0"/>
    <path d="M 402.0,606.0 L 472.0,658.0 L 525.0,677.0 L 608.0,680.0 L 651.0,664.0 L 658.0,657.0 L 648.0,638.0 L 595.0,585.0"/>
    <path d="M 458.0,531.0 L 501.0,553.0 L 527.0,577.0"/>
    <path d="M 605.0,497.0 L 674.0,529.0 L 696.0,556.0"/>
    <path d="M 409.0,699.0 L 429.0,734.0 L 371.0,829.0 L 264.0,941.0 L 186.0,997.0 L 139.0,1021.0"/>
    <path d="M 448.0,776.0 L 605.0,751.0 L 616.0,755.0 L 636.0,778.0 L 613.0,850.0 L 581.0,913.0 L 525.0,972.0 L 495.0,993.0 L 439.0,1018.0 L 333.0,1044.0 L 297.0,1046.0"/>
    <path d="M 401.0,837.0 L 412.0,833.0 L 457.0,859.0 L 619.0,998.0 L 706.0,1049.0 L 757.0,1062.0 L 915.0,1067.0"/>
  </g>
</svg>
