<svg xmlns="http://www.w3.org/2000/svg" viewBox="0 0 1024 1024">
  <g style="fill:none;stroke:#000000;stroke-width:50;stroke-linecap:round;stroke-linejoin:round;" transform="scale(1, 1) translate(0, 0)">
    <path d="M 283.0,254.0 L 300.0,267.0 L 323.0,305.0 L 368.0,478.0"/>
    <path d="M 314.0,251.0 L 349.0,264.0 L 609.0,226.0 L 647.0,226.0 L 671.0,234.0 L 694.0,264.0 L 658.0,378.0 L 634.0,433.0 L 635.0,456.0"/>
    <path d="M 403.0,361.0 L 464.0,354.0 L 548.0,333.0 L 596.0,336.0"/>
    <path d="M 381.0,461.0 L 416.0,448.0 L 599.0,417.0"/>
    <path d="M 224.0,536.0 L 247.0,558.0 L 261.0,602.0 L 265.0,717.0 L 277.0,764.0"/>
    <path d="M 273.0,551.0 L 295.0,562.0 L 450.0,529.0 L 728.0,505.0 L 744.0,515.0 L 763.0,543.0 L 743.0,669.0 L 729.0,709.0 L 718.0,724.0 L 629.0,691.0"/>
    <path d="M 468.0,266.0 L 498.0,285.0 L 502.0,308.0 L 498.0,606.0 L 482.0,632.0"/>
    <path d="M 351.0,676.0 L 394.0,689.0 L 576.0,624.0 L 586.0,628.0"/>
    <path d="M 574.0,583.0 L 614.0,619.0 L 634.0,657.0"/>
    <path d="M 223.0,821.0 L 196.0,898.0 L 151.0,981.0"/>
    <path d="M 327.0,826.0 L 339.0,841.0 L 361.0,896.0 L 385.0,931.0 L 428.0,966.0 L 472.0,986.0 L 523.0,999.0 L 616.0,1007.0 L 691.0,1000.0 L 709.0,995.0 L 735.0,976.0 L 720.0,934.0 L 673.0,845.0"/>
    <path d="M 460.0,770.0 L 518.0,814.0 L 539.0,845.0"/>
    <path d="M 774.0,785.0 L 868.0,843.0 L 900.0,884.0"/>
  </g>
</svg>
