<svg xmlns="http://www.w3.org/2000/svg" viewBox="0 0 1024 1024">
  <g style="fill:none;stroke:#000000;stroke-width:50;stroke-linecap:round;stroke-linejoin:round;" transform="scale(1, 1) translate(0, 0)">
    <path d="M 312.0,392.0 L 345.0,399.0 L 429.0,388.0 L 660.0,332.0 L 697.0,333.0"/>
    <path d="M 238.0,380.0 L 262.0,392.0 L 280.0,415.0 L 276.0,532.0 L 262.0,613.0 L 236.0,683.0 L 187.0,755.0 L 129.0,812.0 L 87.0,838.0"/>
    <path d="M 352.0,515.0 L 488.0,477.0 L 524.0,479.0"/>
    <path d="M 313.0,596.0 L 341.0,627.0 L 360.0,743.0"/>
    <path d="M 358.0,599.0 L 382.0,601.0 L 457.0,574.0 L 481.0,576.0 L 500.0,596.0 L 484.0,651.0 L 461.0,662.0"/>
    <path d="M 378.0,722.0 L 394.0,711.0 L 452.0,694.0 L 512.0,694.0"/>
    <path d="M 481.0,184.0 L 528.0,219.0 L 549.0,344.0 L 595.0,480.0 L 646.0,582.0 L 722.0,686.0 L 765.0,725.0 L 817.0,759.0 L 846.0,769.0 L 868.0,769.0 L 888.0,686.0 L 892.0,662.0 L 887.0,657.0 L 894.0,631.0"/>
    <path d="M 723.0,422.0 L 745.0,454.0 L 743.0,465.0 L 712.0,555.0 L 685.0,605.0 L 648.0,653.0 L 603.0,697.0 L 534.0,744.0"/>
    <path d="M 649.0,211.0 L 722.0,253.0 L 743.0,283.0"/>
    <path d="M 271.0,855.0 L 257.0,920.0 L 216.0,1021.0"/>
    <path d="M 342.0,833.0 L 353.0,848.0 L 378.0,916.0 L 421.0,967.0 L 478.0,999.0 L 557.0,1021.0 L 654.0,1027.0 L 690.0,1021.0 L 721.0,1007.0 L 718.0,982.0 L 661.0,879.0"/>
    <path d="M 472.0,788.0 L 548.0,833.0 L 572.0,859.0"/>
    <path d="M 713.0,810.0 L 808.0,873.0 L 837.0,915.0"/>
  </g>
</svg>
