<svg xmlns="http://www.w3.org/2000/svg" viewBox="0 0 1024 1024">
  <g style="fill:none;stroke:#000000;stroke-width:50;stroke-linecap:round;stroke-linejoin:round;" transform="scale(1, 1) translate(0, 0)">
    <path d="M 128.0,504.0 L 123.0,580.0 L 98.0,655.0 L 95.0,685.0"/>
    <path d="M 284.0,399.0 L 360.0,441.0 L 379.0,466.0"/>
    <path d="M 209.0,229.0 L 238.0,253.0 L 261.0,283.0 L 254.0,415.0 L 251.0,773.0 L 237.0,926.0 L 239.0,1005.0"/>
    <path d="M 461.0,331.0 L 515.0,338.0 L 633.0,318.0 L 685.0,301.0 L 746.0,301.0"/>
    <path d="M 471.0,433.0 L 515.0,439.0 L 673.0,410.0 L 724.0,415.0"/>
    <path d="M 564.0,195.0 L 604.0,229.0 L 593.0,475.0 L 578.0,497.0"/>
    <path d="M 360.0,540.0 L 413.0,547.0 L 644.0,509.0 L 827.0,490.0 L 899.0,506.0"/>
    <path d="M 541.0,549.0 L 557.0,577.0 L 493.0,641.0 L 483.0,667.0 L 513.0,677.0 L 569.0,676.0 L 594.0,666.0"/>
    <path d="M 673.0,574.0 L 684.0,611.0 L 617.0,678.0 L 518.0,760.0 L 510.0,787.0 L 533.0,793.0 L 688.0,757.0 L 704.0,755.0 L 713.0,762.0"/>
    <path d="M 687.0,702.0 L 745.0,750.0 L 766.0,793.0"/>
    <path d="M 582.0,802.0 L 605.0,819.0 L 610.0,836.0 L 612.0,928.0 L 604.0,993.0 L 588.0,1014.0 L 555.0,999.0 L 506.0,965.0"/>
    <path d="M 467.0,885.0 L 444.0,941.0 L 407.0,1002.0"/>
    <path d="M 709.0,871.0 L 797.0,932.0 L 820.0,961.0 L 831.0,992.0"/>
  </g>
</svg>
