<svg xmlns="http://www.w3.org/2000/svg" viewBox="0 0 1024 1024">
  <g style="fill:none;stroke:#000000;stroke-width:50;stroke-linecap:round;stroke-linejoin:round;" transform="scale(1, 1) translate(0, 0)">
    <path d="M 144.0,456.0 L 137.0,533.0 L 107.0,641.0"/>
    <path d="M 296.0,415.0 L 310.0,429.0 L 358.0,449.0 L 377.0,479.0"/>
    <path d="M 221.0,224.0 L 272.0,278.0 L 264.0,687.0 L 246.0,954.0 L 247.0,1030.0"/>
    <path d="M 436.0,320.0 L 468.0,351.0 L 496.0,470.0"/>
    <path d="M 496.0,330.0 L 504.0,337.0 L 522.0,334.0 L 704.0,288.0 L 728.0,287.0 L 750.0,295.0 L 770.0,315.0 L 752.0,360.0 L 727.0,377.0"/>
    <path d="M 514.0,451.0 L 521.0,442.0 L 718.0,403.0 L 778.0,407.0"/>
    <path d="M 580.0,182.0 L 619.0,219.0 L 614.0,484.0 L 599.0,504.0"/>
    <path d="M 354.0,560.0 L 409.0,565.0 L 575.0,530.0 L 842.0,490.0 L 880.0,491.0 L 929.0,505.0"/>
    <path d="M 465.0,622.0 L 488.0,646.0 L 495.0,669.0 L 492.0,781.0 L 482.0,860.0 L 484.0,909.0"/>
    <path d="M 512.0,629.0 L 520.0,637.0 L 534.0,638.0 L 589.0,628.0 L 681.0,600.0 L 702.0,604.0 L 724.0,624.0 L 733.0,641.0 L 729.0,722.0 L 734.0,839.0 L 727.0,903.0"/>
    <path d="M 566.0,697.0 L 588.0,706.0 L 613.0,732.0 L 607.0,850.0 L 584.0,937.0 L 560.0,975.0 L 514.0,1015.0 L 464.0,1042.0 L 417.0,1057.0 L 411.0,1054.0"/>
    <path d="M 661.0,939.0 L 770.0,1016.0 L 798.0,1070.0"/>
  </g>
</svg>
