<svg xmlns="http://www.w3.org/2000/svg" viewBox="0 0 1024 1024">
  <g style="fill:none;stroke:#000000;stroke-width:50;stroke-linecap:round;stroke-linejoin:round;" transform="scale(1, 1) translate(0, 0)">
    <path d="M 121.0,510.0 L 115.0,593.0 L 92.0,665.0 L 89.0,693.0"/>
    <path d="M 266.0,448.0 L 272.0,460.0 L 332.0,490.0 L 356.0,520.0"/>
    <path d="M 189.0,239.0 L 215.0,259.0 L 238.0,288.0 L 233.0,742.0 L 218.0,948.0 L 220.0,1038.0"/>
    <path d="M 428.0,323.0 L 448.0,341.0 L 462.0,367.0 L 508.0,586.0"/>
    <path d="M 482.0,329.0 L 490.0,333.0 L 696.0,292.0 L 743.0,298.0 L 760.0,313.0 L 769.0,325.0 L 756.0,368.0 L 734.0,494.0 L 715.0,555.0 L 697.0,558.0"/>
    <path d="M 588.0,352.0 L 604.0,373.0 L 603.0,380.0 L 578.0,436.0 L 545.0,480.0 L 534.0,484.0 L 535.0,491.0"/>
    <path d="M 607.0,442.0 L 613.0,437.0 L 638.0,446.0 L 666.0,465.0"/>
    <path d="M 526.0,576.0 L 561.0,559.0 L 686.0,536.0"/>
    <path d="M 384.0,688.0 L 403.0,703.0 L 419.0,728.0 L 458.0,883.0 L 472.0,900.0"/>
    <path d="M 419.0,689.0 L 448.0,697.0 L 769.0,646.0 L 803.0,651.0 L 827.0,678.0 L 829.0,692.0 L 782.0,834.0 L 761.0,857.0 L 747.0,861.0"/>
    <path d="M 533.0,703.0 L 529.0,713.0 L 563.0,890.0"/>
    <path d="M 640.0,683.0 L 668.0,708.0 L 651.0,832.0 L 641.0,873.0 L 630.0,882.0"/>
    <path d="M 318.0,932.0 L 368.0,941.0 L 521.0,918.0 L 848.0,887.0 L 884.0,889.0 L 939.0,905.0"/>
  </g>
</svg>
