<svg xmlns="http://www.w3.org/2000/svg" viewBox="0 0 1024 1024">
  <g style="fill:none;stroke:#000000;stroke-width:50;stroke-linecap:round;stroke-linejoin:round;" transform="scale(1, 1) translate(0, 0)">
    <path d="M 129.0,474.0 L 123.0,557.0 L 100.0,629.0 L 97.0,657.0"/>
    <path d="M 277.0,403.0 L 344.0,452.0 L 353.0,479.0"/>
    <path d="M 201.0,217.0 L 230.0,240.0 L 253.0,270.0 L 242.0,808.0 L 228.0,951.0 L 231.0,1029.0"/>
    <path d="M 435.0,230.0 L 489.0,277.0 L 509.0,308.0"/>
    <path d="M 670.0,177.0 L 697.0,208.0 L 609.0,319.0"/>
    <path d="M 421.0,403.0 L 460.0,409.0 L 490.0,406.0 L 734.0,348.0 L 764.0,348.0"/>
    <path d="M 398.0,518.0 L 431.0,522.0 L 496.0,513.0 L 698.0,465.0 L 736.0,470.0 L 765.0,497.0 L 722.0,630.0 L 696.0,654.0"/>
    <path d="M 320.0,632.0 L 365.0,639.0 L 545.0,606.0 L 822.0,571.0 L 900.0,586.0"/>
    <path d="M 412.0,719.0 L 427.0,724.0 L 466.0,720.0 L 695.0,681.0 L 736.0,680.0 L 757.0,689.0"/>
    <path d="M 460.0,433.0 L 494.0,462.0 L 499.0,514.0 L 494.0,822.0 L 479.0,969.0 L 485.0,1038.0"/>
    <path d="M 593.0,409.0 L 612.0,422.0 L 617.0,442.0 L 614.0,1064.0"/>
    <path d="M 471.0,741.0 L 455.0,793.0 L 425.0,836.0 L 358.0,911.0 L 298.0,960.0"/>
    <path d="M 646.0,731.0 L 653.0,757.0 L 666.0,774.0 L 718.0,829.0 L 786.0,887.0 L 876.0,917.0 L 943.0,927.0"/>
  </g>
</svg>
