<svg xmlns="http://www.w3.org/2000/svg" viewBox="0 0 1024 1024">
  <g style="fill:none;stroke:#000000;stroke-width:50;stroke-linecap:round;stroke-linejoin:round;" transform="scale(1, 1) translate(0, 0)">
    <path d="M 314.0,190.0 L 343.0,217.0 L 349.0,239.0 L 317.0,286.0 L 238.0,370.0 L 226.0,395.0 L 227.0,408.0 L 252.0,411.0 L 398.0,364.0 L 431.0,358.0 L 445.0,365.0"/>
    <path d="M 412.0,302.0 L 469.0,347.0 L 492.0,386.0"/>
    <path d="M 244.0,494.0 L 265.0,514.0 L 270.0,571.0 L 264.0,660.0 L 244.0,798.0"/>
    <path d="M 291.0,500.0 L 301.0,506.0 L 376.0,489.0 L 401.0,477.0 L 425.0,481.0 L 445.0,502.0 L 442.0,596.0 L 448.0,713.0 L 441.0,749.0 L 429.0,768.0 L 354.0,735.0"/>
    <path d="M 292.0,600.0 L 308.0,587.0 L 324.0,584.0 L 356.0,580.0 L 377.0,585.0"/>
    <path d="M 288.0,676.0 L 299.0,664.0 L 327.0,657.0 L 362.0,654.0 L 381.0,659.0"/>
    <path d="M 734.0,205.0 L 741.0,243.0 L 608.0,317.0"/>
    <path d="M 566.0,188.0 L 588.0,214.0 L 585.0,317.0 L 590.0,367.0 L 605.0,404.0 L 625.0,418.0 L 711.0,428.0 L 751.0,419.0 L 775.0,406.0 L 793.0,383.0 L 798.0,313.0"/>
    <path d="M 783.0,534.0 L 738.0,529.0 L 688.0,559.0 L 628.0,577.0 L 618.0,590.0"/>
    <path d="M 566.0,474.0 L 593.0,505.0 L 594.0,651.0 L 601.0,674.0 L 627.0,697.0 L 659.0,708.0 L 699.0,711.0 L 748.0,704.0 L 780.0,691.0 L 807.0,671.0 L 817.0,593.0"/>
    <path d="M 231.0,864.0 L 216.0,930.0 L 177.0,1024.0"/>
    <path d="M 342.0,854.0 L 387.0,938.0 L 438.0,987.0 L 509.0,1018.0 L 563.0,1028.0 L 690.0,1028.0 L 726.0,1017.0 L 755.0,999.0 L 736.0,957.0 L 689.0,889.0"/>
    <path d="M 506.0,800.0 L 576.0,848.0 L 592.0,872.0"/>
    <path d="M 760.0,800.0 L 864.0,861.0 L 896.0,904.0"/>
  </g>
</svg>
