<svg xmlns="http://www.w3.org/2000/svg" viewBox="0 0 1024 1024">
  <g style="fill:none;stroke:#000000;stroke-width:50;stroke-linecap:round;stroke-linejoin:round;" transform="scale(1, 1) translate(0, 0)">
    <path d="M 126.0,515.0 L 121.0,598.0 L 94.0,712.0"/>
    <path d="M 265.0,427.0 L 328.0,460.0 L 350.0,490.0"/>
    <path d="M 193.0,220.0 L 245.0,275.0 L 232.0,774.0 L 215.0,944.0 L 215.0,1030.0"/>
    <path d="M 360.0,373.0 L 382.0,377.0 L 583.0,340.0 L 780.0,316.0 L 819.0,315.0 L 874.0,327.0"/>
    <path d="M 465.0,255.0 L 500.0,280.0 L 524.0,417.0"/>
    <path d="M 681.0,185.0 L 704.0,201.0 L 715.0,221.0 L 651.0,405.0"/>
    <path d="M 552.0,425.0 L 595.0,447.0 L 633.0,480.0"/>
    <path d="M 363.0,538.0 L 422.0,544.0 L 735.0,487.0 L 780.0,485.0 L 811.0,491.0"/>
    <path d="M 464.0,565.0 L 478.0,570.0 L 488.0,583.0 L 482.0,685.0 L 499.0,686.0 L 601.0,663.0 L 702.0,654.0 L 763.0,670.0"/>
    <path d="M 420.0,751.0 L 450.0,785.0 L 440.0,844.0 L 417.0,912.0 L 365.0,974.0 L 314.0,1008.0 L 292.0,1016.0"/>
    <path d="M 549.0,742.0 L 573.0,774.0 L 566.0,997.0"/>
    <path d="M 680.0,727.0 L 708.0,763.0 L 700.0,877.0 L 705.0,944.0 L 720.0,977.0 L 743.0,994.0 L 777.0,1005.0 L 834.0,1007.0 L 889.0,998.0 L 919.0,982.0 L 930.0,970.0 L 940.0,840.0"/>
  </g>
</svg>
