<svg xmlns="http://www.w3.org/2000/svg" viewBox="0 0 1024 1024">
  <g style="fill:none;stroke:#000000;stroke-width:50;stroke-linecap:round;stroke-linejoin:round;" transform="scale(1, 1) translate(0, 0)">
    <path d="M 356.0,262.0 L 419.0,305.0 L 444.0,340.0"/>
    <path d="M 636.0,188.0 L 665.0,224.0 L 627.0,276.0 L 557.0,353.0"/>
    <path d="M 200.0,427.0 L 227.0,434.0 L 280.0,435.0 L 375.0,426.0 L 614.0,392.0 L 787.0,356.0 L 841.0,356.0"/>
    <path d="M 338.0,468.0 L 351.0,489.0 L 354.0,510.0 L 299.0,588.0 L 286.0,620.0 L 366.0,621.0 L 383.0,611.0"/>
    <path d="M 438.0,513.0 L 456.0,550.0 L 404.0,625.0 L 328.0,713.0 L 325.0,743.0 L 345.0,746.0 L 429.0,719.0 L 436.0,724.0"/>
    <path d="M 436.0,677.0 L 473.0,733.0"/>
    <path d="M 594.0,420.0 L 616.0,442.0 L 620.0,463.0 L 565.0,550.0 L 554.0,578.0 L 569.0,583.0 L 622.0,582.0 L 641.0,581.0 L 653.0,573.0"/>
    <path d="M 727.0,465.0 L 743.0,501.0 L 679.0,581.0 L 601.0,662.0 L 592.0,696.0 L 616.0,702.0 L 724.0,675.0 L 732.0,682.0"/>
    <path d="M 723.0,624.0 L 771.0,683.0 L 777.0,712.0"/>
    <path d="M 249.0,837.0 L 232.0,925.0 L 198.0,1009.0"/>
    <path d="M 348.0,819.0 L 385.0,901.0 L 432.0,955.0 L 473.0,983.0 L 508.0,998.0 L 572.0,1015.0 L 630.0,1022.0 L 711.0,1022.0 L 746.0,1016.0 L 776.0,1000.0 L 773.0,979.0 L 757.0,950.0 L 701.0,874.0"/>
    <path d="M 499.0,797.0 L 563.0,844.0 L 578.0,868.0"/>
    <path d="M 744.0,772.0 L 862.0,844.0 L 890.0,887.0"/>
  </g>
</svg>
