<svg xmlns="http://www.w3.org/2000/svg" viewBox="0 0 1024 1024">
  <g style="fill:none;stroke:#000000;stroke-width:50;stroke-linecap:round;stroke-linejoin:round;" transform="scale(1, 1) translate(0, 0)">
    <path d="M 192.0,311.0 L 212.0,317.0 L 267.0,317.0 L 482.0,287.0 L 728.0,263.0 L 792.0,269.0 L 817.0,280.0"/>
    <path d="M 356.0,228.0 L 394.0,253.0 L 420.0,378.0"/>
    <path d="M 601.0,167.0 L 614.0,174.0 L 632.0,204.0 L 603.0,296.0 L 575.0,361.0"/>
    <path d="M 312.0,420.0 L 340.0,446.0 L 376.0,587.0 L 389.0,602.0"/>
    <path d="M 366.0,420.0 L 379.0,431.0 L 433.0,417.0 L 601.0,391.0 L 647.0,395.0 L 672.0,429.0 L 628.0,552.0 L 617.0,579.0 L 612.0,578.0"/>
    <path d="M 388.0,522.0 L 396.0,512.0 L 472.0,498.0 L 522.0,491.0 L 560.0,494.0"/>
    <path d="M 402.0,601.0 L 411.0,593.0 L 582.0,569.0 L 594.0,562.0"/>
    <path d="M 182.0,712.0 L 233.0,719.0 L 452.0,686.0 L 742.0,658.0 L 815.0,675.0"/>
    <path d="M 383.0,621.0 L 401.0,642.0 L 399.0,661.0 L 346.0,751.0 L 292.0,812.0 L 198.0,885.0 L 133.0,920.0 L 73.0,942.0"/>
    <path d="M 582.0,702.0 L 595.0,704.0 L 695.0,790.0 L 803.0,867.0 L 871.0,882.0 L 977.0,889.0"/>
    <path d="M 455.0,749.0 L 478.0,770.0 L 491.0,792.0 L 487.0,954.0 L 481.0,993.0 L 465.0,1019.0 L 362.0,981.0"/>
    <path d="M 343.0,862.0 L 324.0,916.0 L 288.0,973.0 L 279.0,998.0"/>
    <path d="M 538.0,890.0 L 593.0,951.0 L 602.0,986.0"/>
    <path d="M 639.0,866.0 L 701.0,929.0 L 718.0,970.0"/>
  </g>
</svg>
