<svg xmlns="http://www.w3.org/2000/svg" viewBox="0 0 1024 1024">
  <g style="fill:none;stroke:#000000;stroke-width:50;stroke-linecap:round;stroke-linejoin:round;" transform="scale(1, 1) translate(0, 0)">
    <path d="M 132.0,544.0 L 127.0,605.0 L 95.0,713.0"/>
    <path d="M 264.0,404.0 L 272.0,414.0 L 311.0,430.0 L 328.0,449.0"/>
    <path d="M 190.0,254.0 L 203.0,261.0 L 237.0,302.0 L 230.0,420.0 L 227.0,733.0 L 211.0,926.0 L 212.0,1011.0"/>
    <path d="M 371.0,387.0 L 394.0,391.0 L 432.0,386.0 L 531.0,354.0 L 589.0,348.0"/>
    <path d="M 317.0,499.0 L 336.0,515.0 L 348.0,538.0 L 380.0,695.0"/>
    <path d="M 356.0,499.0 L 375.0,506.0 L 533.0,466.0 L 568.0,462.0 L 593.0,467.0 L 614.0,490.0 L 571.0,652.0 L 574.0,666.0"/>
    <path d="M 410.0,584.0 L 498.0,559.0 L 521.0,555.0 L 538.0,560.0"/>
    <path d="M 394.0,679.0 L 404.0,670.0 L 543.0,636.0"/>
    <path d="M 271.0,801.0 L 286.0,807.0 L 328.0,806.0 L 532.0,751.0 L 587.0,743.0 L 608.0,746.0"/>
    <path d="M 437.0,200.0 L 464.0,222.0 L 486.0,250.0 L 487.0,261.0 L 476.0,791.0 L 463.0,915.0 L 465.0,1006.0"/>
    <path d="M 816.0,288.0 L 841.0,324.0 L 792.0,380.0 L 737.0,428.0 L 737.0,435.0"/>
    <path d="M 661.0,421.0 L 677.0,430.0 L 700.0,458.0 L 703.0,579.0 L 692.0,696.0 L 660.0,797.0 L 628.0,852.0 L 584.0,903.0 L 541.0,932.0"/>
    <path d="M 731.0,581.0 L 747.0,588.0 L 793.0,584.0 L 919.0,550.0 L 964.0,549.0"/>
    <path d="M 799.0,608.0 L 838.0,635.0 L 837.0,960.0 L 831.0,1086.0"/>
  </g>
</svg>
