<svg xmlns="http://www.w3.org/2000/svg" viewBox="0 0 1024 1024">
  <g style="fill:none;stroke:#000000;stroke-width:50;stroke-linecap:round;stroke-linejoin:round;" transform="scale(1, 1) translate(0, 0)">
    <path d="M 161.0,477.0 L 163.0,561.0 L 144.0,675.0"/>
    <path d="M 316.0,433.0 L 386.0,489.0 L 399.0,516.0"/>
    <path d="M 241.0,217.0 L 270.0,240.0 L 293.0,270.0 L 286.0,408.0 L 282.0,794.0 L 269.0,942.0 L 271.0,1021.0"/>
    <path d="M 492.0,227.0 L 511.0,247.0 L 519.0,298.0 L 492.0,484.0 L 518.0,485.0 L 569.0,470.0 L 690.0,455.0 L 712.0,444.0"/>
    <path d="M 533.0,235.0 L 556.0,243.0 L 730.0,206.0 L 760.0,209.0 L 785.0,226.0 L 792.0,246.0 L 754.0,424.0 L 739.0,474.0 L 724.0,478.0"/>
    <path d="M 617.0,247.0 L 639.0,264.0 L 640.0,288.0 L 623.0,414.0 L 605.0,440.0"/>
    <path d="M 380.0,385.0 L 428.0,391.0 L 667.0,350.0 L 877.0,326.0 L 946.0,341.0"/>
    <path d="M 476.0,575.0 L 501.0,601.0 L 507.0,631.0 L 502.0,837.0 L 509.0,889.0"/>
    <path d="M 531.0,604.0 L 550.0,589.0 L 660.0,568.0 L 713.0,551.0 L 738.0,553.0 L 765.0,574.0 L 775.0,587.0 L 768.0,658.0 L 771.0,783.0 L 763.0,884.0"/>
    <path d="M 537.0,695.0 L 544.0,685.0 L 638.0,667.0 L 680.0,662.0 L 701.0,668.0"/>
    <path d="M 536.0,779.0 L 546.0,769.0 L 609.0,758.0 L 681.0,750.0 L 702.0,756.0"/>
    <path d="M 533.0,874.0 L 552.0,863.0 L 691.0,842.0 L 714.0,842.0 L 729.0,851.0"/>
    <path d="M 588.0,949.0 L 555.0,953.0 L 489.0,1017.0 L 406.0,1064.0"/>
    <path d="M 697.0,924.0 L 809.0,1020.0 L 825.0,1049.0 L 834.0,1086.0"/>
  </g>
</svg>
