<svg xmlns="http://www.w3.org/2000/svg" viewBox="0 0 1024 1024">
  <g style="fill:none;stroke:#000000;stroke-width:50;stroke-linecap:round;stroke-linejoin:round;" transform="scale(1, 1) translate(0, 0)">
    <path d="M 136.0,468.0 L 131.0,546.0 L 106.0,623.0 L 102.0,654.0"/>
    <path d="M 288.0,401.0 L 356.0,441.0 L 382.0,474.0"/>
    <path d="M 214.0,219.0 L 242.0,243.0 L 264.0,273.0 L 257.0,705.0 L 249.0,871.0 L 239.0,943.0 L 240.0,1038.0"/>
    <path d="M 440.0,247.0 L 472.0,283.0 L 512.0,466.0"/>
    <path d="M 468.0,246.0 L 502.0,253.0 L 578.0,238.0 L 703.0,226.0 L 744.0,238.0 L 763.0,263.0 L 719.0,416.0 L 723.0,437.0"/>
    <path d="M 515.0,354.0 L 522.0,347.0 L 576.0,334.0 L 623.0,327.0 L 656.0,332.0"/>
    <path d="M 528.0,429.0 L 537.0,433.0 L 685.0,404.0"/>
    <path d="M 380.0,520.0 L 408.0,546.0 L 444.0,690.0"/>
    <path d="M 434.0,525.0 L 452.0,535.0 L 751.0,492.0 L 805.0,497.0 L 818.0,504.0 L 836.0,529.0 L 794.0,638.0 L 796.0,657.0"/>
    <path d="M 520.0,545.0 L 533.0,565.0 L 542.0,625.0 L 550.0,632.0"/>
    <path d="M 638.0,523.0 L 659.0,543.0 L 651.0,586.0 L 632.0,622.0"/>
    <path d="M 462.0,670.0 L 477.0,663.0 L 761.0,621.0"/>
    <path d="M 475.0,743.0 L 544.0,746.0 L 638.0,721.0 L 676.0,729.0 L 692.0,739.0 L 647.0,846.0 L 588.0,918.0 L 500.0,972.0 L 412.0,997.0 L 379.0,999.0"/>
    <path d="M 480.0,802.0 L 518.0,817.0 L 643.0,933.0 L 765.0,1016.0 L 795.0,1027.0 L 935.0,1030.0"/>
  </g>
</svg>
