<svg xmlns="http://www.w3.org/2000/svg" viewBox="0 0 1024 1024">
  <g style="fill:none;stroke:#000000;stroke-width:50;stroke-linecap:round;stroke-linejoin:round;" transform="scale(1, 1) translate(0, 0)">
    <path d="M 498.0,161.0 L 534.0,193.0 L 530.0,296.0 L 515.0,317.0"/>
    <path d="M 564.0,246.0 L 688.0,213.0 L 725.0,212.0"/>
    <path d="M 328.0,362.0 L 349.0,376.0 L 612.0,321.0 L 738.0,304.0 L 766.0,308.0 L 783.0,318.0 L 798.0,342.0 L 736.0,411.0"/>
    <path d="M 254.0,348.0 L 278.0,367.0 L 292.0,405.0 L 276.0,571.0 L 250.0,713.0 L 222.0,805.0 L 170.0,918.0 L 106.0,1015.0 L 73.0,1049.0"/>
    <path d="M 366.0,474.0 L 411.0,475.0 L 608.0,428.0 L 663.0,427.0"/>
    <path d="M 481.0,371.0 L 503.0,395.0 L 502.0,467.0 L 509.0,502.0 L 535.0,527.0 L 569.0,538.0 L 641.0,537.0 L 699.0,516.0 L 712.0,497.0 L 703.0,425.0"/>
    <path d="M 364.0,627.0 L 394.0,651.0 L 448.0,845.0"/>
    <path d="M 429.0,653.0 L 438.0,639.0 L 452.0,634.0 L 594.0,608.0 L 683.0,598.0 L 719.0,606.0 L 741.0,636.0 L 702.0,762.0 L 685.0,799.0 L 687.0,821.0"/>
    <path d="M 475.0,729.0 L 522.0,724.0 L 591.0,705.0 L 644.0,708.0"/>
    <path d="M 525.0,640.0 L 550.0,660.0 L 555.0,679.0 L 556.0,759.0 L 542.0,781.0"/>
    <path d="M 466.0,808.0 L 472.0,814.0 L 497.0,811.0 L 647.0,783.0"/>
    <path d="M 319.0,891.0 L 295.0,984.0 L 264.0,1053.0"/>
    <path d="M 409.0,881.0 L 422.0,898.0 L 449.0,966.0 L 489.0,1007.0 L 542.0,1036.0 L 632.0,1055.0 L 679.0,1058.0 L 732.0,1052.0 L 780.0,1031.0 L 733.0,912.0 L 728.0,911.0"/>
    <path d="M 541.0,859.0 L 612.0,898.0 L 645.0,937.0"/>
    <path d="M 770.0,813.0 L 889.0,873.0 L 914.0,900.0 L 930.0,931.0"/>
  </g>
</svg>
