<svg xmlns="http://www.w3.org/2000/svg" viewBox="0 0 1024 1024">
  <g style="fill:none;stroke:#000000;stroke-width:50;stroke-linecap:round;stroke-linejoin:round;" transform="scale(1, 1) translate(0, 0)">
    <path d="M 129.0,475.0 L 126.0,554.0 L 102.0,664.0"/>
    <path d="M 269.0,438.0 L 334.0,473.0 L 359.0,502.0"/>
    <path d="M 197.0,220.0 L 249.0,275.0 L 235.0,760.0 L 219.0,917.0 L 219.0,1009.0"/>
    <path d="M 553.0,167.0 L 613.0,196.0 L 630.0,208.0 L 648.0,233.0"/>
    <path d="M 461.0,329.0 L 487.0,343.0 L 521.0,340.0 L 596.0,328.0 L 741.0,291.0 L 804.0,288.0"/>
    <path d="M 398.0,317.0 L 425.0,341.0 L 434.0,361.0 L 429.0,509.0 L 410.0,647.0 L 390.0,726.0 L 348.0,833.0 L 275.0,943.0"/>
    <path d="M 494.0,483.0 L 548.0,482.0 L 711.0,436.0 L 743.0,441.0 L 767.0,471.0 L 736.0,592.0 L 715.0,611.0"/>
    <path d="M 470.0,580.0 L 502.0,582.0 L 817.0,527.0 L 851.0,527.0 L 897.0,538.0"/>
    <path d="M 495.0,672.0 L 588.0,665.0 L 715.0,637.0 L 752.0,636.0 L 771.0,643.0"/>
    <path d="M 588.0,370.0 L 611.0,385.0 L 629.0,408.0 L 623.0,621.0 L 628.0,981.0 L 612.0,1020.0 L 509.0,985.0"/>
    <path d="M 476.0,733.0 L 530.0,763.0 L 549.0,789.0"/>
    <path d="M 401.0,929.0 L 436.0,940.0 L 568.0,835.0"/>
    <path d="M 806.0,728.0 L 774.0,722.0 L 713.0,782.0 L 698.0,784.0"/>
    <path d="M 648.0,750.0 L 657.0,772.0 L 694.0,810.0 L 815.0,908.0 L 906.0,931.0 L 975.0,937.0"/>
  </g>
</svg>
