<svg xmlns="http://www.w3.org/2000/svg" viewBox="0 0 1024 1024">
  <g style="fill:none;stroke:#000000;stroke-width:50;stroke-linecap:round;stroke-linejoin:round;" transform="scale(1, 1) translate(0, 0)">
    <path d="M 213.0,279.0 L 274.0,321.0 L 296.0,358.0"/>
    <path d="M 174.0,673.0 L 171.0,645.0 L 179.0,604.0 L 303.0,467.0"/>
    <path d="M 465.0,246.0 L 487.0,254.0 L 525.0,251.0 L 604.0,237.0 L 697.0,211.0 L 756.0,207.0"/>
    <path d="M 412.0,234.0 L 438.0,257.0 L 447.0,274.0 L 441.0,553.0 L 446.0,564.0 L 460.0,572.0"/>
    <path d="M 515.0,353.0 L 667.0,319.0 L 716.0,320.0"/>
    <path d="M 516.0,441.0 L 572.0,435.0 L 678.0,409.0 L 719.0,413.0"/>
    <path d="M 582.0,265.0 L 614.0,293.0 L 609.0,482.0 L 592.0,501.0"/>
    <path d="M 468.0,525.0 L 490.0,550.0 L 552.0,532.0 L 731.0,499.0 L 801.0,495.0 L 834.0,509.0 L 846.0,526.0 L 844.0,543.0 L 806.0,682.0 L 785.0,717.0 L 763.0,735.0 L 684.0,689.0"/>
    <path d="M 297.0,656.0 L 335.0,728.0 L 334.0,759.0"/>
    <path d="M 405.0,639.0 L 442.0,693.0 L 446.0,710.0"/>
    <path d="M 505.0,614.0 L 554.0,683.0"/>
    <path d="M 612.0,586.0 L 665.0,628.0 L 675.0,653.0"/>
    <path d="M 206.0,835.0 L 201.0,886.0 L 167.0,980.0 L 164.0,1004.0"/>
    <path d="M 330.0,858.0 L 343.0,876.0 L 376.0,955.0 L 417.0,998.0 L 473.0,1032.0 L 576.0,1058.0 L 688.0,1061.0 L 723.0,1054.0 L 770.0,1031.0 L 757.0,997.0 L 698.0,895.0"/>
    <path d="M 492.0,799.0 L 560.0,846.0 L 584.0,886.0"/>
    <path d="M 798.0,818.0 L 894.0,872.0 L 914.0,895.0 L 929.0,925.0"/>
  </g>
</svg>
