<svg xmlns="http://www.w3.org/2000/svg" viewBox="0 0 1024 1024">
  <g style="fill:none;stroke:#000000;stroke-width:50;stroke-linecap:round;stroke-linejoin:round;" transform="scale(1, 1) translate(0, 0)">
    <path d="M 192.0,297.0 L 246.0,330.0 L 261.0,343.0 L 275.0,368.0"/>
    <path d="M 475.0,251.0 L 488.0,276.0 L 412.0,351.0"/>
    <path d="M 172.0,454.0 L 187.0,468.0 L 198.0,492.0 L 200.0,572.0 L 190.0,638.0 L 193.0,682.0"/>
    <path d="M 207.0,453.0 L 230.0,462.0 L 371.0,436.0 L 439.0,417.0 L 459.0,415.0 L 476.0,423.0 L 491.0,442.0 L 488.0,618.0 L 480.0,662.0 L 470.0,676.0 L 404.0,648.0"/>
    <path d="M 318.0,217.0 L 339.0,231.0 L 359.0,261.0 L 346.0,464.0 L 348.0,599.0 L 343.0,653.0 L 348.0,695.0"/>
    <path d="M 275.0,505.0 L 288.0,529.0 L 281.0,566.0 L 242.0,625.0"/>
    <path d="M 392.0,501.0 L 424.0,551.0"/>
    <path d="M 611.0,195.0 L 631.0,211.0 L 641.0,231.0 L 628.0,276.0 L 589.0,358.0 L 550.0,423.0 L 524.0,453.0"/>
    <path d="M 597.0,389.0 L 665.0,382.0 L 791.0,338.0 L 837.0,339.0"/>
    <path d="M 686.0,402.0 L 713.0,421.0 L 718.0,432.0 L 699.0,498.0 L 669.0,569.0 L 636.0,611.0 L 605.0,636.0 L 569.0,660.0 L 522.0,677.0"/>
    <path d="M 563.0,473.0 L 601.0,491.0 L 685.0,581.0 L 745.0,633.0 L 799.0,670.0 L 845.0,680.0 L 931.0,685.0"/>
    <path d="M 223.0,796.0 L 210.0,866.0 L 164.0,980.0"/>
    <path d="M 307.0,793.0 L 341.0,875.0 L 383.0,929.0 L 443.0,966.0 L 532.0,991.0 L 671.0,1000.0 L 704.0,992.0 L 726.0,975.0 L 707.0,925.0 L 665.0,854.0"/>
    <path d="M 453.0,753.0 L 522.0,801.0 L 546.0,841.0"/>
    <path d="M 702.0,747.0 L 811.0,818.0 L 836.0,847.0 L 850.0,878.0"/>
  </g>
</svg>
