<svg xmlns="http://www.w3.org/2000/svg" viewBox="0 0 1024 1024">
  <g style="fill:none;stroke:#000000;stroke-width:50;stroke-linecap:round;stroke-linejoin:round;" transform="scale(1, 1) translate(0, 0)">
    <path d="M 275.0,204.0 L 289.0,214.0 L 308.0,246.0 L 276.0,312.0 L 238.0,378.0 L 165.0,477.0 L 83.0,559.0"/>
    <path d="M 248.0,411.0 L 258.0,454.0 L 246.0,668.0 L 251.0,729.0"/>
    <path d="M 413.0,306.0 L 446.0,313.0 L 477.0,311.0 L 730.0,254.0 L 763.0,254.0"/>
    <path d="M 468.0,216.0 L 501.0,250.0 L 506.0,273.0 L 511.0,365.0 L 499.0,385.0"/>
    <path d="M 609.0,169.0 L 643.0,206.0 L 624.0,350.0 L 608.0,367.0"/>
    <path d="M 352.0,425.0 L 406.0,428.0 L 652.0,377.0 L 790.0,357.0 L 836.0,357.0 L 878.0,367.0"/>
    <path d="M 481.0,447.0 L 457.0,460.0 L 429.0,506.0 L 392.0,548.0 L 359.0,575.0 L 346.0,577.0 L 342.0,586.0"/>
    <path d="M 470.0,492.0 L 459.0,528.0 L 462.0,629.0 L 446.0,705.0 L 448.0,751.0"/>
    <path d="M 481.0,497.0 L 498.0,502.0 L 579.0,480.0 L 595.0,481.0 L 600.0,475.0 L 616.0,476.0 L 623.0,469.0 L 690.0,458.0 L 713.0,460.0 L 739.0,482.0 L 739.0,655.0 L 728.0,735.0 L 716.0,752.0 L 710.0,751.0 L 644.0,720.0"/>
    <path d="M 519.0,573.0 L 548.0,572.0 L 610.0,555.0 L 649.0,556.0"/>
    <path d="M 516.0,649.0 L 550.0,648.0 L 608.0,634.0 L 657.0,638.0"/>
    <path d="M 555.0,502.0 L 579.0,521.0 L 579.0,746.0"/>
    <path d="M 255.0,829.0 L 236.0,893.0 L 183.0,996.0"/>
    <path d="M 345.0,818.0 L 357.0,834.0 L 386.0,913.0 L 423.0,956.0 L 474.0,991.0 L 562.0,1021.0 L 636.0,1031.0 L 704.0,1030.0 L 740.0,1021.0 L 762.0,1008.0 L 716.0,894.0"/>
    <path d="M 497.0,806.0 L 578.0,860.0 L 595.0,890.0"/>
    <path d="M 799.0,793.0 L 911.0,851.0 L 945.0,900.0"/>
  </g>
</svg>
