<svg xmlns="http://www.w3.org/2000/svg" viewBox="0 0 1024 1024">
  <g style="fill:none;stroke:#000000;stroke-width:50;stroke-linecap:round;stroke-linejoin:round;" transform="scale(1, 1) translate(0, 0)">
    <path d="M 154.0,488.0 L 155.0,569.0 L 136.0,681.0"/>
    <path d="M 293.0,418.0 L 358.0,458.0 L 375.0,487.0"/>
    <path d="M 217.0,213.0 L 246.0,236.0 L 270.0,266.0 L 264.0,414.0 L 265.0,710.0 L 250.0,917.0 L 252.0,1008.0"/>
    <path d="M 410.0,269.0 L 441.0,298.0 L 476.0,424.0"/>
    <path d="M 456.0,271.0 L 471.0,273.0 L 542.0,250.0 L 573.0,251.0 L 593.0,271.0 L 578.0,336.0 L 556.0,348.0"/>
    <path d="M 491.0,398.0 L 499.0,389.0 L 546.0,377.0 L 605.0,377.0"/>
    <path d="M 667.0,219.0 L 694.0,248.0 L 721.0,371.0"/>
    <path d="M 721.0,242.0 L 731.0,233.0 L 821.0,213.0 L 849.0,227.0 L 859.0,240.0 L 844.0,286.0 L 840.0,296.0 L 816.0,312.0"/>
    <path d="M 736.0,357.0 L 751.0,346.0 L 792.0,338.0 L 868.0,342.0"/>
    <path d="M 418.0,499.0 L 446.0,519.0 L 456.0,537.0 L 507.0,721.0"/>
    <path d="M 473.0,499.0 L 498.0,508.0 L 587.0,485.0 L 753.0,457.0 L 789.0,457.0 L 811.0,464.0 L 836.0,494.0 L 803.0,625.0 L 783.0,674.0 L 787.0,695.0"/>
    <path d="M 537.0,596.0 L 672.0,570.0 L 701.0,567.0 L 723.0,574.0"/>
    <path d="M 524.0,705.0 L 542.0,694.0 L 695.0,668.0 L 731.0,667.0 L 740.0,677.0"/>
    <path d="M 358.0,831.0 L 380.0,837.0 L 426.0,837.0 L 668.0,798.0 L 867.0,776.0 L 947.0,795.0"/>
    <path d="M 590.0,506.0 L 632.0,529.0 L 633.0,541.0 L 633.0,1075.0 L 627.0,1103.0"/>
  </g>
</svg>
