<svg xmlns="http://www.w3.org/2000/svg" viewBox="0 0 1024 1024">
  <g style="fill:none;stroke:#000000;stroke-width:50;stroke-linecap:round;stroke-linejoin:round;" transform="scale(1, 1) translate(0, 0)">
    <path d="M 310.0,213.0 L 371.0,240.0 L 399.0,271.0"/>
    <path d="M 168.0,343.0 L 222.0,349.0 L 468.0,305.0 L 531.0,310.0"/>
    <path d="M 247.0,401.0 L 277.0,427.0 L 304.0,511.0"/>
    <path d="M 289.0,400.0 L 302.0,405.0 L 378.0,380.0 L 437.0,372.0 L 457.0,396.0 L 442.0,428.0 L 419.0,445.0"/>
    <path d="M 318.0,494.0 L 333.0,484.0 L 411.0,467.0 L 468.0,470.0"/>
    <path d="M 238.0,554.0 L 279.0,563.0 L 376.0,525.0 L 414.0,519.0 L 433.0,528.0 L 441.0,543.0 L 393.0,602.0"/>
    <path d="M 331.0,603.0 L 366.0,616.0 L 387.0,641.0 L 397.0,680.0 L 394.0,736.0 L 380.0,767.0 L 364.0,781.0 L 292.0,749.0"/>
    <path d="M 172.0,698.0 L 215.0,712.0 L 511.0,623.0"/>
    <path d="M 604.0,248.0 L 634.0,277.0 L 637.0,285.0 L 629.0,314.0 L 570.0,440.0 L 517.0,511.0"/>
    <path d="M 599.0,437.0 L 720.0,410.0 L 792.0,387.0 L 836.0,387.0"/>
    <path d="M 669.0,449.0 L 701.0,469.0 L 696.0,528.0 L 675.0,595.0 L 652.0,630.0 L 610.0,666.0 L 559.0,693.0 L 512.0,705.0"/>
    <path d="M 552.0,526.0 L 598.0,549.0 L 704.0,655.0 L 778.0,706.0 L 830.0,720.0 L 931.0,733.0"/>
    <path d="M 252.0,834.0 L 232.0,913.0 L 207.0,960.0 L 197.0,994.0"/>
    <path d="M 342.0,846.0 L 355.0,862.0 L 385.0,928.0 L 432.0,976.0 L 499.0,1007.0 L 597.0,1022.0 L 685.0,1019.0 L 724.0,1005.0 L 739.0,993.0 L 723.0,956.0 L 652.0,858.0"/>
    <path d="M 484.0,787.0 L 551.0,831.0 L 576.0,870.0"/>
    <path d="M 713.0,785.0 L 816.0,830.0 L 849.0,858.0 L 866.0,886.0"/>
  </g>
</svg>
