<svg xmlns="http://www.w3.org/2000/svg" viewBox="0 0 1024 1024">
  <g style="fill:none;stroke:#000000;stroke-width:50;stroke-linecap:round;stroke-linejoin:round;" transform="scale(1, 1) translate(0, 0)">
    <path d="M 154.0,503.0 L 149.0,586.0 L 122.0,700.0"/>
    <path d="M 297.0,443.0 L 305.0,455.0 L 354.0,487.0 L 367.0,512.0"/>
    <path d="M 221.0,220.0 L 250.0,244.0 L 273.0,274.0 L 261.0,810.0 L 245.0,961.0 L 247.0,1042.0"/>
    <path d="M 513.0,299.0 L 567.0,306.0 L 631.0,297.0 L 730.0,272.0 L 800.0,268.0"/>
    <path d="M 615.0,161.0 L 631.0,166.0 L 656.0,190.0 L 649.0,315.0 L 636.0,397.0"/>
    <path d="M 408.0,481.0 L 456.0,485.0 L 581.0,456.0 L 857.0,411.0 L 889.0,409.0 L 946.0,421.0"/>
    <path d="M 482.0,394.0 L 518.0,413.0 L 558.0,540.0"/>
    <path d="M 748.0,314.0 L 763.0,326.0 L 776.0,354.0 L 725.0,473.0 L 694.0,527.0 L 673.0,548.0"/>
    <path d="M 485.0,572.0 L 505.0,591.0 L 515.0,612.0 L 514.0,851.0 L 521.0,889.0"/>
    <path d="M 529.0,579.0 L 556.0,589.0 L 753.0,551.0 L 779.0,566.0 L 799.0,590.0 L 792.0,707.0 L 794.0,830.0 L 787.0,902.0"/>
    <path d="M 545.0,686.0 L 552.0,675.0 L 597.0,667.0 L 685.0,655.0 L 707.0,662.0"/>
    <path d="M 545.0,779.0 L 576.0,766.0 L 659.0,753.0 L 692.0,751.0 L 714.0,757.0"/>
    <path d="M 544.0,874.0 L 564.0,859.0 L 673.0,844.0 L 728.0,841.0 L 743.0,855.0"/>
    <path d="M 601.0,935.0 L 570.0,938.0 L 499.0,1009.0 L 448.0,1042.0 L 408.0,1059.0"/>
    <path d="M 721.0,928.0 L 822.0,1022.0 L 838.0,1074.0"/>
  </g>
</svg>
