<svg xmlns="http://www.w3.org/2000/svg" viewBox="0 0 1024 1024">
  <g style="fill:none;stroke:#000000;stroke-width:50;stroke-linecap:round;stroke-linejoin:round;" transform="scale(1, 1) translate(0, 0)">
    <path d="M 124.0,501.0 L 121.0,565.0 L 90.0,680.0"/>
    <path d="M 259.0,432.0 L 313.0,467.0 L 335.0,500.0"/>
    <path d="M 186.0,228.0 L 214.0,251.0 L 237.0,281.0 L 229.0,724.0 L 214.0,922.0 L 216.0,1010.0"/>
    <path d="M 370.0,313.0 L 396.0,341.0 L 402.0,356.0 L 410.0,479.0 L 404.0,762.0 L 390.0,905.0 L 396.0,965.0"/>
    <path d="M 433.0,348.0 L 452.0,334.0 L 522.0,315.0 L 552.0,341.0 L 541.0,410.0 L 533.0,541.0 L 528.0,557.0 L 513.0,558.0"/>
    <path d="M 436.0,455.0 L 453.0,440.0 L 485.0,445.0"/>
    <path d="M 434.0,567.0 L 444.0,555.0 L 491.0,549.0 L 502.0,542.0"/>
    <path d="M 641.0,250.0 L 670.0,283.0 L 678.0,315.0 L 678.0,461.0 L 689.0,532.0"/>
    <path d="M 699.0,269.0 L 708.0,277.0 L 726.0,277.0 L 817.0,253.0 L 831.0,259.0 L 859.0,287.0 L 858.0,513.0 L 867.0,803.0 L 864.0,960.0 L 855.0,988.0 L 842.0,1002.0 L 820.0,996.0 L 750.0,956.0"/>
    <path d="M 708.0,393.0 L 713.0,382.0 L 732.0,373.0 L 788.0,373.0"/>
    <path d="M 707.0,507.0 L 721.0,493.0 L 792.0,481.0 L 831.0,495.0"/>
    <path d="M 586.0,548.0 L 634.0,576.0 L 648.0,595.0"/>
    <path d="M 491.0,678.0 L 562.0,677.0 L 691.0,643.0 L 745.0,638.0"/>
    <path d="M 637.0,688.0 L 655.0,710.0 L 626.0,770.0 L 603.0,802.0 L 535.0,869.0 L 468.0,903.0"/>
    <path d="M 529.0,752.0 L 700.0,834.0 L 720.0,852.0 L 741.0,885.0"/>
  </g>
</svg>
