<svg xmlns="http://www.w3.org/2000/svg" viewBox="0 0 1024 1024">
  <g style="fill:none;stroke:#000000;stroke-width:50;stroke-linecap:round;stroke-linejoin:round;" transform="scale(1, 1) translate(0, 0)">
    <path d="M 462.0,253.0 L 415.0,251.0 L 384.0,277.0 L 327.0,310.0 L 271.0,335.0 L 214.0,353.0 L 203.0,348.0 L 201.0,354.0"/>
    <path d="M 122.0,472.0 L 152.0,480.0 L 183.0,479.0 L 448.0,420.0 L 502.0,423.0"/>
    <path d="M 324.0,336.0 L 359.0,361.0 L 342.0,515.0 L 325.0,542.0"/>
    <path d="M 204.0,568.0 L 224.0,584.0 L 240.0,611.0 L 268.0,718.0"/>
    <path d="M 242.0,566.0 L 265.0,576.0 L 392.0,547.0 L 422.0,549.0 L 445.0,577.0 L 426.0,634.0 L 407.0,642.0"/>
    <path d="M 285.0,704.0 L 295.0,694.0 L 386.0,675.0 L 450.0,679.0"/>
    <path d="M 642.0,185.0 L 676.0,214.0 L 628.0,302.0 L 594.0,352.0 L 584.0,357.0"/>
    <path d="M 535.0,354.0 L 558.0,377.0 L 563.0,391.0 L 570.0,535.0 L 565.0,643.0 L 573.0,691.0"/>
    <path d="M 585.0,368.0 L 624.0,369.0 L 729.0,340.0 L 751.0,344.0 L 777.0,373.0 L 769.0,450.0 L 771.0,617.0 L 763.0,682.0"/>
    <path d="M 594.0,470.0 L 600.0,459.0 L 635.0,453.0 L 696.0,454.0"/>
    <path d="M 596.0,559.0 L 601.0,549.0 L 650.0,542.0 L 700.0,546.0"/>
    <path d="M 592.0,675.0 L 612.0,663.0 L 701.0,652.0 L 724.0,654.0 L 733.0,666.0"/>
    <path d="M 235.0,800.0 L 215.0,897.0 L 186.0,958.0 L 178.0,989.0"/>
    <path d="M 337.0,815.0 L 349.0,830.0 L 380.0,908.0 L 427.0,958.0 L 484.0,989.0 L 593.0,1012.0 L 703.0,1013.0 L 734.0,1002.0 L 749.0,988.0 L 725.0,928.0 L 695.0,883.0 L 686.0,858.0"/>
    <path d="M 465.0,741.0 L 534.0,789.0 L 558.0,829.0"/>
    <path d="M 757.0,737.0 L 872.0,796.0 L 908.0,848.0"/>
  </g>
</svg>
