<svg xmlns="http://www.w3.org/2000/svg" viewBox="0 0 1024 1024">
  <g style="fill:none;stroke:#000000;stroke-width:50;stroke-linecap:round;stroke-linejoin:round;" transform="scale(1, 1) translate(0, 0)">
    <path d="M 458.0,167.0 L 535.0,207.0 L 558.0,236.0"/>
    <path d="M 244.0,306.0 L 255.0,333.0 L 255.0,358.0 L 224.0,435.0 L 225.0,483.0"/>
    <path d="M 282.0,328.0 L 298.0,341.0 L 451.0,312.0 L 610.0,292.0 L 743.0,280.0 L 778.0,286.0 L 797.0,302.0 L 807.0,323.0 L 731.0,394.0 L 717.0,397.0"/>
    <path d="M 360.0,416.0 L 442.0,417.0 L 619.0,376.0 L 654.0,377.0"/>
    <path d="M 396.0,493.0 L 497.0,483.0 L 596.0,461.0 L 633.0,464.0"/>
    <path d="M 480.0,345.0 L 508.0,367.0 L 516.0,381.0 L 514.0,521.0 L 500.0,543.0"/>
    <path d="M 312.0,589.0 L 364.0,592.0 L 476.0,567.0 L 667.0,536.0 L 747.0,547.0"/>
    <path d="M 294.0,671.0 L 323.0,689.0 L 372.0,819.0"/>
    <path d="M 357.0,686.0 L 362.0,677.0 L 409.0,667.0 L 578.0,647.0 L 613.0,637.0 L 654.0,636.0 L 678.0,643.0 L 702.0,674.0 L 647.0,802.0"/>
    <path d="M 434.0,687.0 L 442.0,693.0 L 453.0,752.0 L 465.0,774.0"/>
    <path d="M 540.0,665.0 L 561.0,687.0 L 540.0,753.0 L 529.0,757.0"/>
    <path d="M 387.0,810.0 L 395.0,803.0 L 631.0,766.0"/>
    <path d="M 239.0,856.0 L 228.0,922.0 L 192.0,1021.0"/>
    <path d="M 340.0,874.0 L 378.0,953.0 L 423.0,1003.0 L 479.0,1035.0 L 585.0,1059.0 L 703.0,1060.0 L 741.0,1052.0 L 775.0,1029.0 L 759.0,986.0 L 708.0,898.0"/>
    <path d="M 507.0,845.0 L 567.0,888.0 L 582.0,912.0"/>
    <path d="M 774.0,775.0 L 885.0,831.0 L 918.0,869.0"/>
  </g>
</svg>
