<svg xmlns="http://www.w3.org/2000/svg" viewBox="0 0 1024 1024">
  <g style="fill:none;stroke:#000000;stroke-width:50;stroke-linecap:round;stroke-linejoin:round;" transform="scale(1, 1) translate(0, 0)">
    <path d="M 435.0,233.0 L 377.0,228.0 L 338.0,266.0 L 299.0,292.0 L 204.0,342.0"/>
    <path d="M 188.0,385.0 L 238.0,420.0 L 250.0,448.0"/>
    <path d="M 320.0,329.0 L 350.0,350.0 L 366.0,374.0"/>
    <path d="M 493.0,364.0 L 452.0,359.0 L 373.0,424.0 L 286.0,479.0 L 182.0,533.0 L 117.0,555.0"/>
    <path d="M 329.0,472.0 L 366.0,488.0 L 412.0,540.0 L 438.0,595.0 L 446.0,663.0 L 435.0,741.0 L 409.0,781.0 L 318.0,739.0"/>
    <path d="M 339.0,491.0 L 341.0,522.0 L 299.0,567.0 L 205.0,638.0 L 163.0,660.0 L 147.0,659.0 L 144.0,666.0"/>
    <path d="M 391.0,550.0 L 387.0,589.0 L 309.0,672.0 L 241.0,724.0 L 187.0,756.0 L 133.0,778.0"/>
    <path d="M 567.0,292.0 L 586.0,299.0 L 722.0,263.0 L 735.0,265.0 L 757.0,284.0 L 763.0,293.0 L 733.0,422.0 L 715.0,466.0 L 719.0,486.0"/>
    <path d="M 586.0,400.0 L 590.0,389.0 L 607.0,383.0 L 654.0,373.0 L 674.0,376.0"/>
    <path d="M 585.0,480.0 L 596.0,465.0 L 681.0,453.0"/>
    <path d="M 522.0,285.0 L 543.0,304.0 L 555.0,337.0 L 565.0,494.0 L 558.0,664.0 L 564.0,687.0 L 606.0,676.0 L 678.0,631.0"/>
    <path d="M 787.0,470.0 L 799.0,498.0 L 732.0,562.0 L 721.0,562.0"/>
    <path d="M 601.0,494.0 L 722.0,596.0 L 807.0,651.0 L 850.0,657.0 L 940.0,657.0"/>
    <path d="M 258.0,858.0 L 231.0,927.0 L 182.0,999.0 L 172.0,1024.0"/>
    <path d="M 343.0,871.0 L 356.0,885.0 L 395.0,962.0 L 424.0,993.0 L 470.0,1022.0 L 552.0,1045.0 L 662.0,1051.0 L 737.0,1044.0 L 769.0,1031.0 L 791.0,1013.0 L 763.0,958.0 L 696.0,866.0"/>
    <path d="M 497.0,824.0 L 572.0,869.0 L 596.0,904.0"/>
    <path d="M 759.0,781.0 L 869.0,838.0 L 893.0,863.0 L 909.0,892.0"/>
  </g>
</svg>
