<svg xmlns="http://www.w3.org/2000/svg" viewBox="0 0 1024 1024">
  <g style="fill:none;stroke:#000000;stroke-width:50;stroke-linecap:round;stroke-linejoin:round;" transform="scale(1, 1) translate(0, 0)">
    <path d="M 133.0,501.0 L 134.0,572.0 L 117.0,682.0"/>
    <path d="M 292.0,441.0 L 352.0,479.0 L 377.0,516.0"/>
    <path d="M 217.0,217.0 L 246.0,240.0 L 270.0,270.0 L 264.0,753.0 L 249.0,942.0 L 252.0,1020.0"/>
    <path d="M 569.0,195.0 L 592.0,212.0 L 600.0,230.0 L 565.0,294.0 L 519.0,360.0"/>
    <path d="M 425.0,371.0 L 445.0,389.0 L 455.0,413.0 L 459.0,551.0 L 454.0,619.0 L 461.0,691.0"/>
    <path d="M 468.0,379.0 L 490.0,389.0 L 600.0,367.0 L 607.0,370.0 L 616.0,362.0 L 747.0,329.0 L 782.0,339.0 L 804.0,365.0 L 799.0,444.0 L 802.0,618.0 L 795.0,680.0"/>
    <path d="M 525.0,470.0 L 563.0,504.0"/>
    <path d="M 714.0,418.0 L 723.0,438.0 L 681.0,472.0 L 671.0,474.0 L 670.0,481.0"/>
    <path d="M 522.0,554.0 L 557.0,553.0 L 680.0,525.0 L 717.0,528.0"/>
    <path d="M 600.0,418.0 L 624.0,444.0 L 618.0,595.0 L 622.0,659.0"/>
    <path d="M 602.0,563.0 L 565.0,615.0 L 516.0,653.0"/>
    <path d="M 668.0,588.0 L 712.0,613.0 L 729.0,639.0"/>
    <path d="M 346.0,788.0 L 399.0,796.0 L 653.0,760.0 L 856.0,742.0 L 895.0,747.0 L 931.0,760.0"/>
    <path d="M 568.0,705.0 L 605.0,736.0 L 588.0,829.0 L 554.0,899.0 L 519.0,939.0 L 464.0,978.0 L 396.0,1002.0 L 346.0,1009.0"/>
    <path d="M 622.0,808.0 L 629.0,827.0 L 704.0,902.0 L 800.0,980.0 L 889.0,1004.0 L 974.0,1016.0"/>
  </g>
</svg>
