<svg xmlns="http://www.w3.org/2000/svg" viewBox="0 0 1024 1024">
  <g style="fill:none;stroke:#000000;stroke-width:50;stroke-linecap:round;stroke-linejoin:round;" transform="scale(1, 1) translate(0, 0)">
    <path d="M 149.0,454.0 L 144.0,526.0 L 121.0,621.0"/>
    <path d="M 303.0,424.0 L 374.0,481.0 L 387.0,508.0"/>
    <path d="M 229.0,224.0 L 257.0,248.0 L 279.0,279.0 L 268.0,738.0 L 251.0,925.0 L 251.0,1017.0"/>
    <path d="M 562.0,197.0 L 641.0,258.0"/>
    <path d="M 431.0,310.0 L 492.0,317.0 L 735.0,272.0 L 779.0,268.0 L 819.0,275.0"/>
    <path d="M 423.0,398.0 L 445.0,414.0 L 455.0,433.0 L 496.0,630.0"/>
    <path d="M 472.0,398.0 L 491.0,407.0 L 732.0,360.0 L 766.0,361.0 L 784.0,369.0 L 804.0,396.0 L 785.0,454.0 L 758.0,591.0"/>
    <path d="M 530.0,443.0 L 551.0,460.0 L 574.0,554.0"/>
    <path d="M 575.0,460.0 L 611.0,444.0 L 657.0,437.0 L 676.0,452.0 L 666.0,488.0 L 650.0,500.0"/>
    <path d="M 585.0,535.0 L 634.0,520.0 L 682.0,518.0"/>
    <path d="M 515.0,610.0 L 525.0,601.0 L 580.0,591.0 L 725.0,573.0 L 731.0,580.0"/>
    <path d="M 473.0,692.0 L 534.0,698.0 L 691.0,668.0 L 742.0,668.0"/>
    <path d="M 377.0,796.0 L 424.0,804.0 L 569.0,779.0 L 820.0,751.0 L 895.0,768.0"/>
    <path d="M 598.0,799.0 L 624.0,821.0 L 629.0,839.0 L 629.0,949.0 L 618.0,991.0 L 604.0,1006.0 L 587.0,1003.0 L 500.0,969.0"/>
    <path d="M 467.0,861.0 L 453.0,900.0 L 400.0,987.0"/>
    <path d="M 737.0,848.0 L 833.0,925.0 L 852.0,954.0 L 862.0,989.0"/>
  </g>
</svg>
