<svg xmlns="http://www.w3.org/2000/svg" viewBox="0 0 1024 1024">
  <g style="fill:none;stroke:#000000;stroke-width:50;stroke-linecap:round;stroke-linejoin:round;" transform="scale(1, 1) translate(0, 0)">
    <path d="M 133.0,458.0 L 128.0,538.0 L 101.0,649.0"/>
    <path d="M 263.0,385.0 L 331.0,432.0"/>
    <path d="M 195.0,211.0 L 233.0,249.0 L 242.0,270.0 L 235.0,682.0 L 219.0,903.0 L 221.0,982.0"/>
    <path d="M 359.0,377.0 L 409.0,380.0 L 527.0,344.0 L 565.0,343.0"/>
    <path d="M 312.0,487.0 L 332.0,504.0 L 339.0,519.0 L 369.0,656.0"/>
    <path d="M 355.0,491.0 L 365.0,498.0 L 508.0,462.0 L 545.0,461.0 L 569.0,485.0 L 548.0,548.0 L 534.0,555.0"/>
    <path d="M 380.0,604.0 L 391.0,611.0 L 523.0,581.0 L 572.0,586.0"/>
    <path d="M 413.0,220.0 L 452.0,257.0 L 460.0,277.0 L 456.0,720.0 L 443.0,885.0 L 445.0,966.0"/>
    <path d="M 434.0,640.0 L 416.0,707.0 L 402.0,733.0 L 350.0,806.0 L 292.0,871.0"/>
    <path d="M 502.0,667.0 L 551.0,706.0 L 565.0,732.0"/>
    <path d="M 692.0,204.0 L 703.0,209.0 L 720.0,233.0 L 709.0,274.0 L 661.0,377.0 L 622.0,431.0"/>
    <path d="M 682.0,371.0 L 758.0,348.0 L 797.0,357.0 L 728.0,490.0 L 709.0,508.0"/>
    <path d="M 613.0,508.0 L 637.0,534.0 L 644.0,564.0 L 643.0,684.0 L 627.0,773.0 L 628.0,832.0"/>
    <path d="M 660.0,522.0 L 686.0,526.0 L 805.0,498.0 L 816.0,502.0 L 842.0,530.0 L 837.0,630.0 L 844.0,782.0 L 838.0,835.0"/>
    <path d="M 693.0,573.0 L 710.0,579.0 L 737.0,605.0 L 729.0,779.0 L 710.0,865.0 L 691.0,911.0 L 653.0,954.0 L 599.0,988.0 L 554.0,1002.0"/>
    <path d="M 770.0,874.0 L 844.0,947.0 L 861.0,974.0 L 870.0,1006.0"/>
  </g>
</svg>
