<svg xmlns="http://www.w3.org/2000/svg" viewBox="0 0 1024 1024">
  <g style="fill:none;stroke:#000000;stroke-width:50;stroke-linecap:round;stroke-linejoin:round;" transform="scale(1, 1) translate(0, 0)">
    <path d="M 229.0,247.0 L 310.0,291.0 L 328.0,317.0"/>
    <path d="M 173.0,403.0 L 237.0,438.0 L 261.0,462.0"/>
    <path d="M 202.0,751.0 L 195.0,727.0 L 197.0,685.0 L 324.0,490.0"/>
    <path d="M 364.0,345.0 L 416.0,348.0 L 539.0,321.0 L 726.0,293.0 L 773.0,293.0 L 817.0,303.0"/>
    <path d="M 456.0,235.0 L 473.0,242.0 L 493.0,262.0 L 517.0,456.0"/>
    <path d="M 654.0,174.0 L 683.0,213.0 L 651.0,361.0 L 633.0,378.0"/>
    <path d="M 532.0,435.0 L 554.0,419.0 L 617.0,407.0 L 663.0,404.0 L 683.0,412.0"/>
    <path d="M 358.0,517.0 L 375.0,537.0 L 384.0,563.0 L 377.0,732.0 L 384.0,760.0"/>
    <path d="M 398.0,529.0 L 421.0,539.0 L 551.0,503.0 L 754.0,472.0 L 777.0,473.0 L 809.0,505.0 L 802.0,533.0 L 798.0,669.0 L 791.0,714.0 L 780.0,739.0 L 696.0,709.0"/>
    <path d="M 551.0,443.0 L 578.0,459.0 L 573.0,756.0"/>
    <path d="M 475.0,633.0 L 480.0,645.0 L 472.0,663.0 L 424.0,698.0"/>
    <path d="M 446.0,579.0 L 505.0,631.0 L 527.0,673.0"/>
    <path d="M 666.0,612.0 L 670.0,621.0 L 658.0,642.0 L 610.0,682.0"/>
    <path d="M 627.0,551.0 L 640.0,555.0 L 704.0,616.0 L 733.0,660.0"/>
    <path d="M 270.0,834.0 L 249.0,897.0 L 195.0,996.0"/>
    <path d="M 356.0,850.0 L 397.0,931.0 L 422.0,963.0 L 456.0,988.0 L 537.0,1017.0 L 626.0,1028.0 L 716.0,1023.0 L 761.0,998.0 L 741.0,957.0 L 692.0,892.0 L 682.0,869.0"/>
    <path d="M 504.0,813.0 L 569.0,849.0 L 594.0,883.0"/>
    <path d="M 773.0,833.0 L 875.0,889.0 L 900.0,920.0 L 906.0,937.0"/>
  </g>
</svg>
