<svg xmlns="http://www.w3.org/2000/svg" viewBox="0 0 1024 1024">
  <g style="fill:none;stroke:#000000;stroke-width:50;stroke-linecap:round;stroke-linejoin:round;" transform="scale(1, 1) translate(0, 0)">
    <path d="M 148.0,456.0 L 142.0,526.0 L 107.0,645.0"/>
    <path d="M 291.0,414.0 L 305.0,431.0 L 342.0,454.0 L 355.0,475.0"/>
    <path d="M 218.0,219.0 L 246.0,243.0 L 268.0,276.0 L 260.0,656.0 L 251.0,834.0 L 239.0,943.0 L 240.0,1026.0"/>
    <path d="M 516.0,275.0 L 571.0,278.0 L 711.0,242.0 L 756.0,241.0"/>
    <path d="M 440.0,367.0 L 452.0,399.0 L 424.0,479.0 L 418.0,519.0"/>
    <path d="M 482.0,415.0 L 568.0,389.0 L 807.0,342.0 L 844.0,355.0 L 858.0,374.0 L 801.0,435.0"/>
    <path d="M 601.0,299.0 L 626.0,315.0 L 630.0,324.0 L 625.0,593.0"/>
    <path d="M 500.0,472.0 L 537.0,485.0 L 557.0,500.0"/>
    <path d="M 489.0,554.0 L 523.0,569.0 L 541.0,587.0"/>
    <path d="M 697.0,441.0 L 742.0,460.0 L 761.0,476.0"/>
    <path d="M 693.0,528.0 L 733.0,543.0 L 757.0,560.0"/>
    <path d="M 482.0,665.0 L 490.0,670.0 L 540.0,672.0 L 614.0,662.0 L 710.0,639.0 L 764.0,639.0"/>
    <path d="M 577.0,692.0 L 595.0,711.0 L 570.0,757.0 L 544.0,776.0"/>
    <path d="M 376.0,790.0 L 405.0,818.0 L 414.0,841.0 L 425.0,966.0 L 437.0,1002.0"/>
    <path d="M 430.0,805.0 L 450.0,815.0 L 608.0,781.0 L 772.0,761.0 L 826.0,761.0 L 857.0,795.0 L 848.0,822.0 L 832.0,976.0 L 816.0,1004.0 L 728.0,974.0"/>
    <path d="M 530.0,818.0 L 549.0,834.0 L 554.0,984.0"/>
    <path d="M 645.0,794.0 L 671.0,820.0 L 657.0,994.0"/>
  </g>
</svg>
