<svg xmlns="http://www.w3.org/2000/svg" viewBox="0 0 1024 1024">
  <g style="fill:none;stroke:#000000;stroke-width:50;stroke-linecap:round;stroke-linejoin:round;" transform="scale(1, 1) translate(0, 0)">
    <path d="M 117.0,458.0 L 112.0,538.0 L 85.0,645.0"/>
    <path d="M 238.0,381.0 L 250.0,394.0 L 287.0,412.0 L 304.0,430.0"/>
    <path d="M 171.0,227.0 L 217.0,278.0 L 208.0,764.0 L 191.0,927.0 L 193.0,994.0"/>
    <path d="M 352.0,362.0 L 410.0,362.0 L 520.0,328.0 L 561.0,326.0"/>
    <path d="M 312.0,467.0 L 337.0,495.0 L 369.0,640.0"/>
    <path d="M 354.0,472.0 L 371.0,476.0 L 527.0,436.0 L 545.0,436.0 L 574.0,459.0 L 553.0,541.0 L 563.0,551.0"/>
    <path d="M 384.0,611.0 L 416.0,597.0 L 533.0,571.0 L 572.0,577.0"/>
    <path d="M 417.0,199.0 L 462.0,246.0 L 453.0,711.0 L 436.0,914.0 L 437.0,999.0"/>
    <path d="M 430.0,619.0 L 416.0,686.0 L 397.0,720.0 L 324.0,821.0 L 282.0,867.0 L 273.0,869.0 L 272.0,876.0"/>
    <path d="M 510.0,675.0 L 567.0,718.0 L 581.0,748.0"/>
    <path d="M 632.0,294.0 L 670.0,298.0 L 820.0,259.0 L 848.0,255.0 L 859.0,260.0 L 870.0,271.0 L 869.0,304.0 L 862.0,361.0 L 845.0,402.0 L 825.0,420.0 L 780.0,399.0"/>
    <path d="M 727.0,304.0 L 742.0,320.0 L 721.0,369.0 L 674.0,436.0 L 638.0,468.0"/>
    <path d="M 628.0,497.0 L 646.0,515.0 L 654.0,535.0 L 653.0,828.0"/>
    <path d="M 680.0,527.0 L 700.0,514.0 L 824.0,481.0 L 844.0,486.0 L 870.0,514.0 L 864.0,590.0 L 866.0,766.0 L 859.0,828.0"/>
    <path d="M 673.0,613.0 L 683.0,605.0 L 761.0,588.0 L 797.0,592.0"/>
    <path d="M 677.0,702.0 L 687.0,694.0 L 743.0,682.0 L 781.0,678.0 L 801.0,683.0"/>
    <path d="M 674.0,806.0 L 694.0,794.0 L 826.0,771.0"/>
    <path d="M 717.0,891.0 L 691.0,895.0 L 632.0,961.0 L 593.0,992.0 L 542.0,1020.0"/>
    <path d="M 803.0,866.0 L 883.0,953.0 L 895.0,972.0 L 902.0,1002.0"/>
  </g>
</svg>
