<svg xmlns="http://www.w3.org/2000/svg" viewBox="0 0 1024 1024">
  <g style="fill:none;stroke:#000000;stroke-width:50;stroke-linecap:round;stroke-linejoin:round;" transform="scale(1, 1) translate(0, 0)">
    <path d="M 137.0,470.0 L 133.0,547.0 L 109.0,645.0"/>
    <path d="M 293.0,418.0 L 362.0,456.0 L 384.0,484.0"/>
    <path d="M 213.0,213.0 L 242.0,236.0 L 265.0,266.0 L 261.0,707.0 L 246.0,913.0 L 248.0,1004.0"/>
    <path d="M 430.0,240.0 L 448.0,257.0 L 457.0,292.0 L 460.0,374.0 L 453.0,494.0 L 461.0,540.0"/>
    <path d="M 475.0,249.0 L 492.0,255.0 L 571.0,231.0 L 602.0,259.0 L 596.0,327.0 L 601.0,468.0 L 594.0,528.0"/>
    <path d="M 482.0,347.0 L 489.0,336.0 L 506.0,331.0 L 550.0,332.0"/>
    <path d="M 483.0,431.0 L 490.0,420.0 L 510.0,414.0 L 537.0,411.0 L 554.0,416.0"/>
    <path d="M 481.0,517.0 L 492.0,504.0 L 512.0,500.0 L 555.0,495.0 L 563.0,505.0"/>
    <path d="M 676.0,201.0 L 698.0,234.0 L 699.0,344.0 L 692.0,433.0 L 697.0,484.0"/>
    <path d="M 720.0,209.0 L 738.0,216.0 L 818.0,190.0 L 834.0,194.0 L 857.0,219.0 L 852.0,308.0 L 857.0,419.0 L 850.0,480.0"/>
    <path d="M 723.0,301.0 L 729.0,291.0 L 760.0,284.0 L 801.0,287.0"/>
    <path d="M 718.0,386.0 L 729.0,377.0 L 766.0,368.0 L 813.0,371.0"/>
    <path d="M 719.0,467.0 L 728.0,457.0 L 805.0,445.0 L 822.0,436.0"/>
    <path d="M 528.0,574.0 L 496.0,585.0 L 466.0,636.0 L 422.0,690.0 L 358.0,751.0 L 324.0,773.0"/>
    <path d="M 483.0,659.0 L 485.0,677.0 L 504.0,718.0 L 506.0,762.0 L 501.0,916.0 L 487.0,1031.0 L 493.0,1090.0"/>
    <path d="M 664.0,502.0 L 705.0,527.0 L 719.0,550.0"/>
    <path d="M 584.0,603.0 L 626.0,607.0 L 734.0,588.0 L 814.0,564.0 L 843.0,559.0 L 864.0,563.0"/>
    <path d="M 588.0,711.0 L 612.0,716.0 L 667.0,711.0 L 802.0,677.0 L 835.0,677.0"/>
    <path d="M 589.0,807.0 L 646.0,812.0 L 753.0,796.0 L 809.0,780.0 L 851.0,781.0"/>
    <path d="M 693.0,619.0 L 719.0,636.0 L 724.0,659.0 L 721.0,875.0 L 705.0,896.0"/>
    <path d="M 532.0,933.0 L 539.0,942.0 L 561.0,944.0 L 861.0,903.0 L 909.0,907.0 L 941.0,918.0"/>
  </g>
</svg>
