<svg xmlns="http://www.w3.org/2000/svg" viewBox="0 0 1024 1024">
  <g style="fill:none;stroke:#000000;stroke-width:50;stroke-linecap:round;stroke-linejoin:round;" transform="scale(1, 1) translate(0, 0)">
    <path d="M 133.0,470.0 L 130.0,547.0 L 105.0,649.0"/>
    <path d="M 280.0,382.0 L 346.0,418.0 L 375.0,454.0"/>
    <path d="M 209.0,211.0 L 235.0,231.0 L 258.0,261.0 L 251.0,380.0 L 247.0,809.0 L 233.0,952.0 L 236.0,1030.0"/>
    <path d="M 465.0,231.0 L 520.0,237.0 L 738.0,194.0 L 799.0,190.0"/>
    <path d="M 508.0,256.0 L 534.0,279.0 L 537.0,314.0 L 536.0,457.0 L 522.0,469.0"/>
    <path d="M 683.0,233.0 L 709.0,250.0 L 713.0,259.0 L 706.0,539.0"/>
    <path d="M 565.0,328.0 L 573.0,316.0 L 598.0,309.0 L 626.0,306.0 L 642.0,311.0"/>
    <path d="M 563.0,408.0 L 570.0,396.0 L 583.0,392.0 L 633.0,386.0 L 649.0,391.0"/>
    <path d="M 420.0,505.0 L 472.0,506.0 L 579.0,481.0 L 761.0,451.0 L 801.0,450.0 L 842.0,460.0"/>
    <path d="M 345.0,645.0 L 366.0,651.0 L 401.0,648.0 L 552.0,617.0 L 564.0,620.0"/>
    <path d="M 365.0,665.0 L 387.0,693.0 L 385.0,870.0 L 372.0,882.0"/>
    <path d="M 494.0,649.0 L 521.0,668.0 L 525.0,678.0 L 519.0,1008.0"/>
    <path d="M 413.0,734.0 L 421.0,721.0 L 475.0,712.0"/>
    <path d="M 410.0,811.0 L 417.0,797.0 L 466.0,788.0 L 482.0,792.0"/>
    <path d="M 301.0,914.0 L 341.0,923.0 L 486.0,871.0 L 499.0,857.0"/>
    <path d="M 601.0,599.0 L 658.0,603.0 L 825.0,571.0 L 868.0,570.0"/>
    <path d="M 622.0,620.0 L 648.0,648.0 L 649.0,804.0 L 646.0,818.0 L 636.0,825.0"/>
    <path d="M 761.0,608.0 L 796.0,629.0 L 799.0,644.0 L 791.0,1087.0"/>
    <path d="M 675.0,700.0 L 681.0,689.0 L 693.0,686.0 L 741.0,685.0"/>
    <path d="M 672.0,777.0 L 678.0,765.0 L 691.0,761.0 L 749.0,757.0"/>
    <path d="M 585.0,853.0 L 608.0,856.0 L 883.0,808.0 L 939.0,809.0 L 966.0,817.0"/>
  </g>
</svg>
