<svg xmlns="http://www.w3.org/2000/svg" viewBox="0 0 1024 1024">
  <g style="fill:none;stroke:#000000;stroke-width:50;stroke-linecap:round;stroke-linejoin:round;" transform="scale(1, 1) translate(0, 0)">
    <path d="M 168.0,349.0 L 213.0,354.0 L 301.0,338.0 L 388.0,313.0 L 437.0,311.0"/>
    <path d="M 285.0,194.0 L 324.0,228.0 L 318.0,391.0 L 302.0,412.0"/>
    <path d="M 220.0,448.0 L 255.0,447.0 L 375.0,415.0 L 401.0,419.0"/>
    <path d="M 126.0,506.0 L 137.0,528.0 L 136.0,545.0 L 109.0,606.0 L 109.0,652.0"/>
    <path d="M 162.0,546.0 L 173.0,536.0 L 236.0,515.0 L 407.0,482.0 L 431.0,490.0 L 449.0,508.0 L 404.0,569.0"/>
    <path d="M 195.0,590.0 L 236.0,591.0 L 345.0,562.0 L 370.0,563.0"/>
    <path d="M 171.0,672.0 L 199.0,699.0 L 224.0,796.0"/>
    <path d="M 218.0,671.0 L 232.0,677.0 L 321.0,648.0 L 354.0,643.0 L 379.0,665.0 L 365.0,708.0 L 343.0,725.0"/>
    <path d="M 237.0,774.0 L 254.0,763.0 L 342.0,745.0 L 389.0,747.0"/>
    <path d="M 172.0,827.0 L 223.0,868.0 L 234.0,897.0"/>
    <path d="M 341.0,766.0 L 365.0,790.0 L 331.0,886.0 L 318.0,898.0"/>
    <path d="M 134.0,951.0 L 183.0,967.0 L 393.0,892.0"/>
    <path d="M 472.0,354.0 L 518.0,395.0 L 528.0,425.0"/>
    <path d="M 480.0,669.0 L 474.0,614.0 L 545.0,507.0"/>
    <path d="M 623.0,224.0 L 652.0,247.0 L 650.0,278.0 L 612.0,393.0 L 574.0,457.0"/>
    <path d="M 636.0,385.0 L 736.0,342.0 L 753.0,339.0 L 778.0,345.0 L 799.0,367.0 L 757.0,424.0"/>
    <path d="M 706.0,467.0 L 675.0,476.0 L 664.0,524.0 L 636.0,582.0 L 589.0,638.0 L 550.0,666.0"/>
    <path d="M 692.0,535.0 L 691.0,548.0 L 788.0,647.0 L 845.0,663.0 L 878.0,665.0"/>
    <path d="M 489.0,802.0 L 477.0,858.0 L 444.0,944.0"/>
    <path d="M 543.0,801.0 L 565.0,870.0 L 590.0,905.0 L 644.0,942.0 L 722.0,965.0 L 768.0,968.0 L 815.0,952.0 L 772.0,825.0"/>
    <path d="M 622.0,722.0 L 677.0,783.0 L 683.0,798.0"/>
    <path d="M 793.0,723.0 L 868.0,772.0 L 889.0,799.0 L 900.0,825.0"/>
  </g>
</svg>
