<svg xmlns="http://www.w3.org/2000/svg" viewBox="0 0 1024 1024">
  <g style="fill:none;stroke:#000000;stroke-width:50;stroke-linecap:round;stroke-linejoin:round;" transform="scale(1, 1) translate(0, 0)">
    <path d="M 186.0,573.0 L 211.0,576.0 L 265.0,567.0 L 424.0,509.0 L 532.0,461.0 L 565.0,453.0 L 592.0,454.0"/>
    <path d="M 301.0,243.0 L 341.0,252.0 L 374.0,274.0 L 430.0,472.0 L 529.0,705.0 L 580.0,793.0 L 686.0,919.0 L 753.0,971.0 L 790.0,987.0 L 827.0,993.0 L 847.0,943.0 L 870.0,796.0"/>
    <path d="M 656.0,536.0 L 671.0,569.0 L 671.0,588.0 L 606.0,695.0 L 516.0,798.0 L 454.0,848.0 L 383.0,892.0 L 302.0,930.0 L 238.0,951.0"/>
    <path d="M 586.0,249.0 L 690.0,298.0 L 726.0,338.0"/>
  </g>
</svg>
