<svg xmlns="http://www.w3.org/2000/svg" viewBox="0 0 1024 1024">
  <g style="fill:none;stroke:#000000;stroke-width:50;stroke-linecap:round;stroke-linejoin:round;" transform="scale(1, 1) translate(0, 0)">
    <path d="M 313.0,185.0 L 368.0,211.0 L 381.0,231.0"/>
    <path d="M 225.0,285.0 L 263.0,293.0 L 348.0,284.0 L 437.0,266.0 L 473.0,268.0"/>
    <path d="M 263.0,312.0 L 305.0,366.0"/>
    <path d="M 396.0,297.0 L 409.0,311.0 L 395.0,340.0 L 378.0,351.0"/>
    <path d="M 126.0,404.0 L 175.0,412.0 L 413.0,367.0 L 457.0,363.0 L 478.0,369.0"/>
    <path d="M 213.0,460.0 L 232.0,475.0 L 241.0,494.0 L 269.0,612.0"/>
    <path d="M 263.0,475.0 L 267.0,466.0 L 372.0,441.0 L 413.0,436.0 L 437.0,442.0 L 451.0,458.0 L 421.0,571.0 L 423.0,593.0"/>
    <path d="M 274.0,537.0 L 281.0,528.0 L 322.0,519.0 L 376.0,510.0 L 389.0,513.0"/>
    <path d="M 284.0,600.0 L 292.0,591.0 L 386.0,578.0 L 396.0,567.0"/>
    <path d="M 144.0,687.0 L 193.0,696.0 L 395.0,661.0 L 471.0,661.0"/>
    <path d="M 326.0,604.0 L 339.0,617.0 L 342.0,641.0 L 335.0,747.0 L 345.0,804.0"/>
    <path d="M 584.0,175.0 L 597.0,188.0 L 602.0,206.0 L 558.0,274.0 L 497.0,332.0"/>
    <path d="M 607.0,254.0 L 623.0,244.0 L 670.0,235.0 L 702.0,237.0 L 716.0,244.0 L 697.0,280.0 L 626.0,355.0 L 563.0,399.0 L 500.0,430.0"/>
    <path d="M 575.0,301.0 L 656.0,353.0 L 806.0,424.0 L 875.0,424.0 L 939.0,415.0"/>
    <path d="M 549.0,435.0 L 594.0,440.0 L 674.0,426.0 L 706.0,427.0"/>
    <path d="M 608.0,454.0 L 621.0,471.0 L 621.0,482.0 L 612.0,490.0"/>
    <path d="M 492.0,517.0 L 551.0,524.0 L 715.0,500.0 L 776.0,506.0"/>
    <path d="M 507.0,580.0 L 526.0,604.0 L 527.0,671.0 L 518.0,717.0 L 522.0,748.0"/>
    <path d="M 549.0,601.0 L 554.0,595.0 L 588.0,593.0 L 594.0,587.0 L 669.0,571.0 L 697.0,574.0 L 717.0,597.0 L 710.0,753.0"/>
    <path d="M 595.0,619.0 L 614.0,637.0 L 608.0,699.0 L 589.0,755.0 L 568.0,791.0 L 544.0,812.0 L 542.0,822.0"/>
    <path d="M 636.0,753.0 L 692.0,791.0 L 713.0,826.0"/>
    <path d="M 231.0,852.0 L 216.0,931.0 L 186.0,996.0 L 180.0,1025.0"/>
    <path d="M 316.0,861.0 L 364.0,950.0 L 404.0,988.0 L 469.0,1018.0 L 566.0,1032.0 L 671.0,1027.0 L 702.0,1016.0 L 721.0,1002.0 L 650.0,878.0"/>
    <path d="M 453.0,820.0 L 511.0,860.0 L 526.0,884.0"/>
    <path d="M 773.0,815.0 L 851.0,862.0 L 879.0,915.0"/>
  </g>
</svg>
