<svg xmlns="http://www.w3.org/2000/svg" viewBox="0 0 1024 1024">
  <g style="fill:none;stroke:#000000;stroke-width:50;stroke-linecap:round;stroke-linejoin:round;" transform="scale(1, 1) translate(0, 0)">
    <path d="M 325.0,439.0 L 394.0,416.0 L 520.0,336.0 L 569.0,318.0"/>
    <path d="M 309.0,218.0 L 333.0,219.0 L 387.0,240.0 L 448.0,338.0 L 509.0,410.0 L 581.0,477.0 L 665.0,533.0 L 718.0,557.0 L 759.0,567.0 L 811.0,560.0 L 828.0,475.0"/>
    <path d="M 688.0,291.0 L 707.0,329.0 L 627.0,426.0 L 555.0,487.0 L 451.0,541.0"/>
    <path d="M 530.0,171.0 L 604.0,205.0 L 636.0,242.0"/>
    <path d="M 247.0,751.0 L 269.0,751.0 L 326.0,733.0 L 483.0,650.0 L 534.0,637.0"/>
    <path d="M 303.0,534.0 L 324.0,538.0 L 364.0,559.0 L 402.0,647.0 L 444.0,719.0 L 527.0,835.0 L 618.0,928.0 L 705.0,992.0 L 757.0,1018.0 L 822.0,1039.0 L 875.0,1034.0 L 882.0,978.0 L 883.0,879.0"/>
    <path d="M 599.0,656.0 L 623.0,702.0 L 573.0,771.0 L 511.0,841.0 L 394.0,938.0 L 309.0,991.0 L 225.0,1028.0"/>
    <path d="M 525.0,556.0 L 586.0,576.0 L 615.0,605.0"/>
  </g>
</svg>
