<svg xmlns="http://www.w3.org/2000/svg" viewBox="0 0 1024 1024">
  <g style="fill:none;stroke:#000000;stroke-width:50;stroke-linecap:round;stroke-linejoin:round;" transform="scale(1, 1) translate(0, 0)">
    <path d="M 221.0,489.0 L 265.0,495.0 L 326.0,487.0 L 589.0,414.0 L 656.0,408.0"/>
    <path d="M 120.0,742.0 L 137.0,748.0 L 177.0,748.0 L 421.0,683.0 L 475.0,684.0"/>
    <path d="M 322.0,566.0 L 336.0,570.0 L 362.0,594.0 L 365.0,655.0 L 355.0,763.0 L 342.0,804.0 L 316.0,853.0 L 281.0,893.0 L 227.0,935.0"/>
    <path d="M 424.0,194.0 L 453.0,209.0 L 470.0,233.0 L 503.0,399.0 L 537.0,519.0 L 572.0,625.0 L 630.0,758.0 L 718.0,900.0 L 750.0,939.0 L 804.0,987.0 L 843.0,1000.0 L 849.0,991.0 L 871.0,931.0 L 897.0,820.0"/>
    <path d="M 697.0,527.0 L 724.0,572.0 L 653.0,702.0 L 594.0,779.0 L 551.0,823.0 L 490.0,873.0 L 436.0,905.0"/>
    <path d="M 626.0,235.0 L 724.0,283.0 L 758.0,321.0"/>
  </g>
</svg>
