<svg xmlns="http://www.w3.org/2000/svg" viewBox="0 0 1024 1024">
  <g style="fill:none;stroke:#000000;stroke-width:50;stroke-linecap:round;stroke-linejoin:round;" transform="scale(1, 1) translate(0, 0)">
    <path d="M 148.0,481.0 L 188.0,484.0 L 247.0,474.0 L 338.0,447.0 L 390.0,459.0 L 350.0,607.0 L 323.0,671.0 L 286.0,731.0 L 247.0,772.0 L 183.0,817.0 L 120.0,843.0 L 88.0,846.0"/>
    <path d="M 166.0,576.0 L 279.0,669.0 L 368.0,754.0 L 391.0,785.0 L 400.0,822.0"/>
    <path d="M 450.0,504.0 L 481.0,506.0 L 541.0,495.0 L 631.0,466.0 L 703.0,434.0 L 763.0,427.0"/>
    <path d="M 512.0,204.0 L 531.0,213.0 L 555.0,243.0 L 590.0,450.0 L 634.0,618.0 L 678.0,736.0 L 754.0,881.0 L 810.0,950.0 L 845.0,976.0 L 878.0,985.0 L 911.0,913.0 L 936.0,820.0"/>
    <path d="M 772.0,524.0 L 788.0,555.0 L 781.0,585.0 L 729.0,682.0 L 670.0,759.0 L 613.0,816.0 L 558.0,858.0 L 484.0,903.0 L 401.0,940.0"/>
    <path d="M 721.0,263.0 L 806.0,309.0 L 836.0,345.0"/>
  </g>
</svg>
