<svg xmlns="http://www.w3.org/2000/svg" viewBox="0 0 1024 1024">
  <g style="fill:none;stroke:#000000;stroke-width:50;stroke-linecap:round;stroke-linejoin:round;" transform="scale(1, 1) translate(0, 0)">
    <path d="M 216.0,307.0 L 250.0,337.0 L 283.0,458.0"/>
    <path d="M 275.0,323.0 L 296.0,310.0 L 426.0,284.0 L 454.0,310.0 L 440.0,356.0 L 415.0,369.0"/>
    <path d="M 299.0,416.0 L 308.0,422.0 L 412.0,399.0 L 467.0,402.0"/>
    <path d="M 126.0,552.0 L 176.0,559.0 L 674.0,445.0 L 728.0,436.0 L 771.0,443.0"/>
    <path d="M 235.0,574.0 L 259.0,593.0 L 260.0,604.0 L 262.0,804.0 L 256.0,840.0 L 245.0,850.0"/>
    <path d="M 407.0,530.0 L 431.0,549.0 L 425.0,962.0 L 438.0,1042.0"/>
    <path d="M 290.0,659.0 L 301.0,645.0 L 314.0,640.0 L 336.0,633.0 L 366.0,633.0"/>
    <path d="M 289.0,760.0 L 294.0,748.0 L 313.0,735.0 L 367.0,727.0"/>
    <path d="M 126.0,902.0 L 183.0,917.0 L 504.0,767.0"/>
    <path d="M 517.0,183.0 L 553.0,199.0 L 579.0,226.0 L 584.0,354.0 L 604.0,510.0 L 629.0,635.0 L 677.0,786.0 L 702.0,839.0 L 751.0,918.0 L 799.0,971.0 L 835.0,993.0 L 861.0,997.0 L 875.0,968.0 L 897.0,826.0"/>
    <path d="M 748.0,564.0 L 769.0,584.0 L 778.0,605.0 L 711.0,719.0 L 628.0,818.0 L 555.0,878.0 L 507.0,907.0"/>
    <path d="M 689.0,271.0 L 769.0,314.0 L 792.0,345.0"/>
  </g>
</svg>
