<svg xmlns="http://www.w3.org/2000/svg" viewBox="0 0 1024 1024">
  <g style="fill:none;stroke:#000000;stroke-width:50;stroke-linecap:round;stroke-linejoin:round;" transform="scale(1, 1) translate(0, 0)">
    <path d="M 455.0,163.0 L 538.0,200.0 L 569.0,234.0"/>
    <path d="M 363.0,363.0 L 372.0,350.0 L 383.0,346.0 L 614.0,294.0 L 645.0,307.0 L 661.0,327.0 L 637.0,384.0 L 619.0,399.0 L 605.0,402.0"/>
    <path d="M 331.0,506.0 L 349.0,491.0 L 370.0,485.0 L 563.0,443.0 L 648.0,431.0 L 675.0,438.0"/>
    <path d="M 289.0,313.0 L 315.0,343.0 L 322.0,365.0 L 291.0,552.0 L 259.0,669.0 L 230.0,743.0 L 165.0,855.0 L 74.0,962.0"/>
    <path d="M 396.0,560.0 L 462.0,593.0 L 479.0,613.0"/>
    <path d="M 358.0,668.0 L 411.0,693.0 L 437.0,721.0"/>
    <path d="M 249.0,811.0 L 288.0,819.0 L 323.0,815.0 L 496.0,779.0 L 804.0,736.0 L 839.0,736.0 L 903.0,751.0"/>
    <path d="M 560.0,520.0 L 578.0,530.0 L 603.0,558.0 L 595.0,1089.0"/>
  </g>
</svg>
