<svg xmlns="http://www.w3.org/2000/svg" viewBox="0 0 1024 1024">
  <g style="fill:none;stroke:#000000;stroke-width:50;stroke-linecap:round;stroke-linejoin:round;" transform="scale(1, 1) translate(0, 0)">
    <path d="M 467.0,192.0 L 479.0,203.0 L 563.0,243.0 L 597.0,287.0"/>
    <path d="M 383.0,438.0 L 394.0,446.0 L 413.0,447.0 L 519.0,427.0 L 648.0,391.0 L 693.0,395.0 L 732.0,438.0 L 690.0,537.0 L 647.0,566.0"/>
    <path d="M 371.0,654.0 L 394.0,641.0 L 636.0,596.0 L 705.0,592.0 L 731.0,600.0"/>
    <path d="M 307.0,424.0 L 324.0,434.0 L 346.0,460.0 L 351.0,489.0 L 332.0,708.0 L 304.0,824.0 L 267.0,908.0 L 227.0,964.0 L 152.0,1038.0 L 97.0,1070.0"/>
  </g>
</svg>
