<svg xmlns="http://www.w3.org/2000/svg" viewBox="0 0 1024 1024">
  <g style="fill:none;stroke:#000000;stroke-width:50;stroke-linecap:round;stroke-linejoin:round;" transform="scale(1, 1) translate(0, 0)">
    <path d="M 454.0,185.0 L 534.0,233.0 L 552.0,258.0"/>
    <path d="M 369.0,357.0 L 380.0,367.0 L 395.0,367.0 L 519.0,343.0 L 624.0,314.0 L 657.0,313.0 L 671.0,320.0 L 697.0,349.0 L 674.0,407.0 L 644.0,425.0"/>
    <path d="M 355.0,491.0 L 375.0,499.0 L 636.0,454.0 L 699.0,461.0"/>
    <path d="M 299.0,337.0 L 320.0,358.0 L 334.0,390.0 L 305.0,559.0 L 269.0,693.0 L 242.0,760.0 L 188.0,859.0 L 128.0,938.0 L 90.0,974.0"/>
    <path d="M 340.0,700.0 L 376.0,708.0 L 704.0,656.0 L 738.0,657.0 L 792.0,670.0"/>
    <path d="M 492.0,554.0 L 529.0,593.0 L 514.0,712.0 L 478.0,811.0 L 439.0,867.0 L 411.0,892.0 L 354.0,928.0 L 274.0,958.0"/>
    <path d="M 549.0,706.0 L 556.0,725.0 L 642.0,830.0 L 752.0,938.0 L 912.0,975.0"/>
    <path d="M 641.0,517.0 L 709.0,548.0 L 743.0,583.0"/>
  </g>
</svg>
