<svg xmlns="http://www.w3.org/2000/svg" viewBox="0 0 1024 1024">
  <g style="fill:none;stroke:#000000;stroke-width:50;stroke-linecap:round;stroke-linejoin:round;" transform="scale(1, 1) translate(0, 0)">
    <path d="M 414.0,163.0 L 510.0,211.0 L 538.0,245.0"/>
    <path d="M 375.0,368.0 L 386.0,354.0 L 397.0,351.0 L 586.0,303.0 L 637.0,298.0 L 661.0,317.0 L 667.0,332.0 L 633.0,412.0 L 603.0,430.0"/>
    <path d="M 346.0,524.0 L 372.0,506.0 L 590.0,462.0 L 642.0,460.0 L 670.0,468.0"/>
    <path d="M 301.0,318.0 L 333.0,355.0 L 333.0,403.0 L 313.0,550.0 L 266.0,733.0 L 222.0,840.0 L 171.0,929.0 L 111.0,1008.0 L 76.0,1043.0"/>
    <path d="M 484.0,518.0 L 538.0,551.0 L 559.0,584.0"/>
    <path d="M 369.0,647.0 L 392.0,653.0 L 446.0,650.0 L 679.0,597.0 L 720.0,596.0"/>
    <path d="M 514.0,688.0 L 500.0,687.0 L 484.0,697.0 L 437.0,759.0 L 369.0,824.0 L 290.0,876.0 L 268.0,887.0 L 257.0,886.0 L 251.0,893.0"/>
    <path d="M 469.0,770.0 L 462.0,963.0 L 471.0,1002.0 L 500.0,993.0 L 606.0,911.0"/>
    <path d="M 762.0,706.0 L 729.0,693.0 L 627.0,773.0 L 620.0,770.0"/>
    <path d="M 521.0,718.0 L 520.0,726.0 L 644.0,830.0 L 770.0,913.0 L 819.0,931.0 L 974.0,946.0"/>
  </g>
</svg>
