<svg xmlns="http://www.w3.org/2000/svg" viewBox="0 0 1024 1024">
  <g style="fill:none;stroke:#000000;stroke-width:50;stroke-linecap:round;stroke-linejoin:round;" transform="scale(1, 1) translate(0, 0)">
    <path d="M 458.0,207.0 L 555.0,248.0 L 579.0,275.0"/>
    <path d="M 379.0,407.0 L 404.0,390.0 L 533.0,366.0 L 611.0,344.0 L 645.0,343.0 L 682.0,375.0 L 656.0,445.0 L 629.0,462.0"/>
    <path d="M 356.0,546.0 L 368.0,539.0 L 621.0,492.0 L 664.0,492.0 L 687.0,499.0"/>
    <path d="M 308.0,356.0 L 337.0,391.0 L 341.0,414.0 L 320.0,539.0 L 286.0,675.0 L 266.0,731.0 L 220.0,821.0 L 147.0,922.0 L 110.0,959.0"/>
    <path d="M 312.0,685.0 L 323.0,771.0 L 317.0,968.0 L 328.0,1023.0"/>
    <path d="M 335.0,691.0 L 362.0,705.0 L 491.0,671.0 L 639.0,646.0 L 742.0,633.0 L 766.0,643.0 L 794.0,674.0 L 783.0,733.0 L 782.0,900.0 L 771.0,986.0 L 760.0,1006.0 L 748.0,1005.0 L 649.0,963.0"/>
    <path d="M 409.0,780.0 L 437.0,812.0 L 464.0,955.0"/>
    <path d="M 463.0,786.0 L 472.0,793.0 L 581.0,763.0 L 610.0,777.0 L 619.0,789.0 L 602.0,853.0 L 577.0,872.0"/>
    <path d="M 484.0,923.0 L 493.0,914.0 L 567.0,899.0 L 616.0,896.0 L 639.0,904.0"/>
  </g>
</svg>
