<svg xmlns="http://www.w3.org/2000/svg" viewBox="0 0 1024 1024">
  <g style="fill:none;stroke:#000000;stroke-width:50;stroke-linecap:round;stroke-linejoin:round;" transform="scale(1, 1) translate(0, 0)">
    <path d="M 131.0,528.0 L 190.0,528.0 L 371.0,469.0 L 403.0,462.0 L 427.0,465.0"/>
    <path d="M 293.0,222.0 L 310.0,230.0 L 341.0,262.0 L 329.0,633.0 L 332.0,928.0 L 312.0,975.0 L 198.0,937.0"/>
    <path d="M 65.0,836.0 L 113.0,838.0 L 255.0,728.0 L 382.0,640.0"/>
    <path d="M 770.0,362.0 L 694.0,362.0 L 633.0,416.0 L 584.0,450.0 L 496.0,504.0 L 484.0,504.0 L 463.0,521.0"/>
    <path d="M 409.0,684.0 L 464.0,688.0 L 771.0,604.0 L 805.0,599.0 L 839.0,603.0"/>
    <path d="M 534.0,500.0 L 563.0,516.0 L 568.0,525.0 L 557.0,791.0 L 575.0,885.0 L 583.0,905.0 L 605.0,932.0 L 662.0,961.0 L 730.0,974.0 L 795.0,973.0 L 870.0,955.0 L 921.0,917.0 L 928.0,764.0"/>
  </g>
</svg>
