<svg xmlns="http://www.w3.org/2000/svg" viewBox="0 0 1024 1024">
  <g style="fill:none;stroke:#000000;stroke-width:50;stroke-linecap:round;stroke-linejoin:round;" transform="scale(1, 1) translate(0, 0)">
    <path d="M 151.0,520.0 L 199.0,523.0 L 303.0,498.0 L 402.0,464.0 L 462.0,459.0"/>
    <path d="M 300.0,219.0 L 328.0,237.0 L 349.0,261.0 L 339.0,651.0 L 344.0,925.0 L 338.0,957.0 L 321.0,989.0 L 255.0,964.0 L 215.0,945.0 L 213.0,938.0 L 202.0,938.0"/>
    <path d="M 60.0,807.0 L 93.0,817.0 L 114.0,816.0 L 442.0,626.0"/>
    <path d="M 485.0,560.0 L 514.0,585.0 L 523.0,606.0 L 568.0,860.0"/>
    <path d="M 544.0,564.0 L 571.0,576.0 L 764.0,536.0 L 801.0,544.0 L 833.0,577.0 L 832.0,587.0 L 795.0,722.0 L 763.0,754.0"/>
    <path d="M 591.0,824.0 L 607.0,807.0 L 734.0,786.0 L 807.0,781.0 L 837.0,791.0"/>
  </g>
</svg>
