<svg xmlns="http://www.w3.org/2000/svg" viewBox="0 0 1024 1024">
  <g style="fill:none;stroke:#000000;stroke-width:50;stroke-linecap:round;stroke-linejoin:round;" transform="scale(1, 1) translate(0, 0)">
    <path d="M 131.0,486.0 L 152.0,489.0 L 208.0,481.0 L 351.0,432.0 L 395.0,430.0"/>
    <path d="M 253.0,222.0 L 270.0,230.0 L 301.0,262.0 L 292.0,400.0 L 291.0,879.0 L 285.0,910.0 L 269.0,939.0 L 207.0,913.0 L 169.0,893.0 L 168.0,886.0 L 157.0,886.0"/>
    <path d="M 67.0,772.0 L 116.0,774.0 L 346.0,584.0"/>
    <path d="M 523.0,317.0 L 578.0,361.0 L 596.0,389.0"/>
    <path d="M 429.0,399.0 L 467.0,444.0 L 469.0,493.0 L 464.0,747.0 L 459.0,817.0 L 442.0,912.0 L 443.0,967.0"/>
    <path d="M 657.0,351.0 L 693.0,357.0 L 780.0,333.0 L 824.0,328.0 L 856.0,334.0 L 887.0,364.0 L 888.0,890.0 L 880.0,944.0 L 865.0,977.0 L 832.0,971.0 L 734.0,933.0"/>
  </g>
</svg>
