<svg xmlns="http://www.w3.org/2000/svg" viewBox="0 0 1024 1024">
  <g style="fill:none;stroke:#000000;stroke-width:50;stroke-linecap:round;stroke-linejoin:round;" transform="scale(1, 1) translate(0, 0)">
    <path d="M 120.0,496.0 L 167.0,501.0 L 348.0,453.0 L 401.0,450.0"/>
    <path d="M 274.0,217.0 L 290.0,226.0 L 321.0,260.0 L 305.0,592.0 L 302.0,936.0 L 282.0,979.0 L 236.0,965.0 L 166.0,932.0 L 164.0,926.0 L 154.0,926.0"/>
    <path d="M 55.0,792.0 L 101.0,798.0 L 256.0,686.0 L 394.0,596.0"/>
    <path d="M 492.0,436.0 L 536.0,442.0 L 759.0,396.0 L 790.0,406.0 L 813.0,431.0 L 751.0,789.0 L 747.0,803.0 L 722.0,825.0"/>
    <path d="M 595.0,451.0 L 619.0,471.0 L 622.0,482.0 L 565.0,821.0 L 544.0,846.0"/>
    <path d="M 448.0,647.0 L 493.0,653.0 L 706.0,615.0 L 735.0,616.0 L 745.0,627.0"/>
    <path d="M 374.0,880.0 L 424.0,889.0 L 844.0,843.0 L 894.0,847.0 L 939.0,861.0"/>
  </g>
</svg>
