<svg xmlns="http://www.w3.org/2000/svg" viewBox="0 0 1024 1024">
  <g style="fill:none;stroke:#000000;stroke-width:50;stroke-linecap:round;stroke-linejoin:round;" transform="scale(1, 1) translate(0, 0)">
    <path d="M 135.0,507.0 L 160.0,511.0 L 211.0,504.0 L 345.0,459.0 L 409.0,452.0"/>
    <path d="M 265.0,222.0 L 282.0,230.0 L 313.0,264.0 L 301.0,572.0 L 304.0,911.0 L 297.0,942.0 L 281.0,971.0 L 219.0,945.0 L 181.0,925.0 L 180.0,918.0 L 169.0,918.0"/>
    <path d="M 55.0,791.0 L 102.0,797.0 L 378.0,611.0"/>
    <path d="M 501.0,412.0 L 513.0,420.0 L 533.0,453.0 L 508.0,513.0 L 431.0,635.0 L 382.0,687.0"/>
    <path d="M 563.0,262.0 L 592.0,271.0 L 620.0,293.0 L 731.0,464.0 L 813.0,551.0 L 831.0,564.0 L 864.0,574.0 L 997.0,597.0"/>
    <path d="M 441.0,690.0 L 498.0,696.0 L 715.0,647.0 L 746.0,669.0 L 719.0,855.0 L 697.0,927.0 L 678.0,961.0 L 650.0,985.0 L 618.0,973.0 L 564.0,937.0"/>
    <path d="M 544.0,709.0 L 575.0,735.0 L 536.0,824.0 L 475.0,914.0 L 441.0,951.0 L 383.0,998.0"/>
  </g>
</svg>
