<svg xmlns="http://www.w3.org/2000/svg" viewBox="0 0 1024 1024">
  <g style="fill:none;stroke:#000000;stroke-width:50;stroke-linecap:round;stroke-linejoin:round;" transform="scale(1, 1) translate(0, 0)">
    <path d="M 118.0,534.0 L 138.0,537.0 L 190.0,529.0 L 331.0,480.0 L 386.0,474.0"/>
    <path d="M 256.0,229.0 L 296.0,262.0 L 301.0,281.0 L 291.0,467.0 L 292.0,918.0 L 270.0,977.0 L 157.0,925.0"/>
    <path d="M 68.0,794.0 L 119.0,795.0 L 377.0,611.0"/>
    <path d="M 493.0,607.0 L 503.0,595.0 L 562.0,575.0 L 605.0,574.0"/>
    <path d="M 422.0,419.0 L 454.0,453.0 L 461.0,486.0 L 464.0,620.0 L 451.0,799.0 L 456.0,837.0 L 491.0,827.0 L 610.0,735.0"/>
    <path d="M 822.0,454.0 L 831.0,467.0 L 838.0,499.0 L 699.0,586.0 L 690.0,597.0"/>
    <path d="M 628.0,271.0 L 658.0,289.0 L 679.0,317.0 L 665.0,521.0 L 666.0,695.0 L 673.0,813.0 L 692.0,860.0 L 729.0,891.0 L 774.0,905.0 L 854.0,908.0 L 904.0,897.0 L 931.0,878.0 L 943.0,740.0"/>
  </g>
</svg>
