<svg xmlns="http://www.w3.org/2000/svg" viewBox="0 0 1024 1024">
  <g style="fill:none;stroke:#000000;stroke-width:50;stroke-linecap:round;stroke-linejoin:round;" transform="scale(1, 1) translate(0, 0)">
    <path d="M 124.0,492.0 L 147.0,497.0 L 196.0,494.0 L 363.0,445.0 L 417.0,442.0"/>
    <path d="M 290.0,217.0 L 306.0,226.0 L 336.0,259.0 L 319.0,590.0 L 314.0,926.0 L 293.0,970.0 L 203.0,931.0 L 184.0,914.0 L 173.0,914.0"/>
    <path d="M 45.0,791.0 L 88.0,799.0 L 407.0,598.0"/>
    <path d="M 486.0,341.0 L 533.0,355.0 L 700.0,301.0 L 737.0,304.0 L 762.0,334.0 L 668.0,457.0 L 656.0,457.0"/>
    <path d="M 571.0,446.0 L 627.0,478.0 L 648.0,496.0 L 667.0,528.0"/>
    <path d="M 425.0,624.0 L 468.0,626.0 L 786.0,555.0 L 823.0,551.0 L 847.0,556.0 L 870.0,578.0 L 791.0,681.0"/>
    <path d="M 620.0,612.0 L 656.0,632.0 L 662.0,648.0 L 668.0,962.0 L 662.0,1002.0 L 643.0,1035.0 L 600.0,1024.0 L 508.0,978.0"/>
  </g>
</svg>
