<svg xmlns="http://www.w3.org/2000/svg" viewBox="0 0 1024 1024">
  <g style="fill:none;stroke:#000000;stroke-width:50;stroke-linecap:round;stroke-linejoin:round;" transform="scale(1, 1) translate(0, 0)">
    <path d="M 143.0,483.0 L 207.0,483.0 L 354.0,434.0 L 417.0,428.0"/>
    <path d="M 280.0,198.0 L 305.0,214.0 L 325.0,242.0 L 315.0,393.0 L 311.0,875.0 L 292.0,919.0 L 182.0,881.0"/>
    <path d="M 61.0,757.0 L 116.0,763.0 L 351.0,605.0 L 412.0,571.0"/>
    <path d="M 812.0,314.0 L 737.0,312.0 L 643.0,382.0 L 569.0,420.0 L 568.0,428.0"/>
    <path d="M 481.0,410.0 L 522.0,443.0 L 525.0,458.0 L 527.0,622.0 L 513.0,737.0 L 486.0,819.0 L 456.0,876.0 L 415.0,927.0 L 353.0,975.0"/>
    <path d="M 558.0,608.0 L 575.0,593.0 L 827.0,536.0 L 872.0,532.0 L 932.0,541.0"/>
    <path d="M 690.0,589.0 L 726.0,617.0 L 723.0,1092.0"/>
  </g>
</svg>
