<svg xmlns="http://www.w3.org/2000/svg" viewBox="0 0 1024 1024">
  <g style="fill:none;stroke:#000000;stroke-width:50;stroke-linecap:round;stroke-linejoin:round;" transform="scale(1, 1) translate(0, 0)">
    <path d="M 123.0,503.0 L 148.0,507.0 L 200.0,501.0 L 356.0,452.0 L 412.0,448.0"/>
    <path d="M 277.0,242.0 L 305.0,260.0 L 325.0,286.0 L 313.0,579.0 L 313.0,922.0 L 304.0,948.0 L 289.0,967.0 L 187.0,920.0 L 168.0,902.0 L 157.0,902.0"/>
    <path d="M 54.0,788.0 L 72.0,795.0 L 116.0,794.0 L 375.0,608.0"/>
    <path d="M 477.0,411.0 L 508.0,416.0 L 559.0,413.0 L 715.0,369.0 L 775.0,369.0"/>
    <path d="M 413.0,639.0 L 434.0,645.0 L 467.0,644.0 L 640.0,605.0 L 766.0,586.0 L 810.0,590.0 L 845.0,601.0"/>
    <path d="M 566.0,440.0 L 596.0,464.0 L 598.0,476.0 L 579.0,609.0 L 554.0,713.0 L 516.0,814.0 L 477.0,890.0 L 431.0,955.0 L 386.0,1002.0"/>
    <path d="M 600.0,661.0 L 637.0,719.0 L 624.0,829.0 L 630.0,935.0 L 640.0,954.0 L 666.0,972.0 L 719.0,983.0 L 793.0,984.0 L 848.0,977.0 L 886.0,961.0 L 892.0,818.0"/>
  </g>
</svg>
