<svg xmlns="http://www.w3.org/2000/svg" viewBox="0 0 1024 1024">
  <g style="fill:none;stroke:#000000;stroke-width:50;stroke-linecap:round;stroke-linejoin:round;" transform="scale(1, 1) translate(0, 0)">
    <path d="M 103.0,512.0 L 126.0,516.0 L 163.0,511.0 L 236.0,493.0 L 334.0,459.0 L 390.0,455.0"/>
    <path d="M 264.0,206.0 L 289.0,222.0 L 308.0,248.0 L 293.0,590.0 L 293.0,898.0 L 286.0,929.0 L 271.0,958.0 L 161.0,913.0"/>
    <path d="M 42.0,799.0 L 89.0,804.0 L 207.0,713.0 L 387.0,588.0"/>
    <path d="M 489.0,349.0 L 549.0,354.0 L 756.0,305.0 L 803.0,308.0"/>
    <path d="M 460.0,490.0 L 516.0,541.0 L 531.0,571.0"/>
    <path d="M 804.0,399.0 L 822.0,418.0 L 827.0,439.0 L 733.0,530.0 L 722.0,533.0 L 721.0,541.0"/>
    <path d="M 365.0,683.0 L 422.0,690.0 L 564.0,662.0 L 868.0,621.0 L 951.0,638.0"/>
    <path d="M 598.0,375.0 L 641.0,401.0 L 631.0,1093.0"/>
  </g>
</svg>
