<svg xmlns="http://www.w3.org/2000/svg" viewBox="0 0 1024 1024">
  <g style="fill:none;stroke:#000000;stroke-width:50;stroke-linecap:round;stroke-linejoin:round;" transform="scale(1, 1) translate(0, 0)">
    <path d="M 131.0,498.0 L 184.0,497.0 L 351.0,444.0 L 395.0,442.0"/>
    <path d="M 256.0,234.0 L 281.0,250.0 L 301.0,277.0 L 291.0,579.0 L 294.0,901.0 L 288.0,932.0 L 273.0,960.0 L 177.0,914.0 L 175.0,906.0 L 165.0,906.0"/>
    <path d="M 65.0,760.0 L 107.0,765.0 L 382.0,583.0"/>
    <path d="M 507.0,497.0 L 523.0,462.0 L 745.0,402.0 L 798.0,398.0 L 828.0,421.0 L 763.0,521.0"/>
    <path d="M 446.0,445.0 L 472.0,468.0 L 482.0,516.0 L 479.0,600.0 L 458.0,741.0 L 422.0,851.0 L 376.0,934.0 L 352.0,962.0"/>
    <path d="M 598.0,203.0 L 636.0,233.0 L 646.0,254.0 L 633.0,596.0 L 616.0,618.0"/>
    <path d="M 516.0,655.0 L 570.0,653.0 L 707.0,611.0 L 729.0,620.0 L 742.0,637.0 L 729.0,707.0 L 699.0,790.0 L 675.0,833.0 L 639.0,879.0 L 563.0,931.0 L 469.0,964.0 L 433.0,970.0"/>
    <path d="M 528.0,707.0 L 566.0,726.0 L 646.0,822.0 L 719.0,897.0 L 816.0,973.0 L 843.0,985.0 L 986.0,1001.0"/>
  </g>
</svg>
