<svg xmlns="http://www.w3.org/2000/svg" viewBox="0 0 1024 1024">
  <g style="fill:none;stroke:#000000;stroke-width:50;stroke-linecap:round;stroke-linejoin:round;" transform="scale(1, 1) translate(0, 0)">
    <path d="M 147.0,496.0 L 206.0,499.0 L 379.0,450.0 L 434.0,447.0"/>
    <path d="M 301.0,202.0 L 318.0,210.0 L 349.0,242.0 L 340.0,406.0 L 337.0,922.0 L 316.0,967.0 L 278.0,955.0 L 208.0,920.0 L 188.0,902.0 L 177.0,901.0"/>
    <path d="M 90.0,763.0 L 138.0,768.0 L 229.0,696.0 L 422.0,560.0"/>
    <path d="M 552.0,343.0 L 564.0,354.0 L 584.0,355.0 L 726.0,321.0 L 755.0,342.0 L 735.0,452.0 L 723.0,484.0 L 697.0,519.0 L 680.0,531.0 L 666.0,526.0 L 599.0,478.0"/>
    <path d="M 490.0,331.0 L 519.0,360.0 L 530.0,388.0 L 536.0,523.0 L 529.0,732.0 L 521.0,817.0 L 499.0,943.0 L 499.0,1006.0"/>
    <path d="M 558.0,664.0 L 567.0,657.0 L 630.0,651.0 L 685.0,634.0 L 716.0,632.0 L 756.0,644.0 L 746.0,699.0 L 725.0,759.0 L 703.0,808.0 L 676.0,847.0 L 620.0,895.0 L 550.0,922.0 L 543.0,931.0"/>
    <path d="M 554.0,715.0 L 580.0,724.0 L 600.0,739.0 L 716.0,857.0 L 796.0,916.0 L 954.0,946.0 L 969.0,944.0"/>
  </g>
</svg>
