<svg xmlns="http://www.w3.org/2000/svg" viewBox="0 0 1024 1024">
  <g style="fill:none;stroke:#000000;stroke-width:50;stroke-linecap:round;stroke-linejoin:round;" transform="scale(1, 1) translate(0, 0)">
    <path d="M 112.0,482.0 L 159.0,485.0 L 263.0,465.0 L 341.0,441.0 L 387.0,443.0"/>
    <path d="M 248.0,209.0 L 273.0,226.0 L 293.0,253.0 L 283.0,406.0 L 280.0,931.0 L 274.0,961.0 L 259.0,990.0 L 149.0,945.0"/>
    <path d="M 44.0,789.0 L 91.0,790.0 L 229.0,677.0 L 362.0,580.0"/>
    <path d="M 488.0,368.0 L 502.0,357.0 L 707.0,300.0 L 729.0,307.0 L 752.0,331.0 L 732.0,393.0 L 707.0,406.0"/>
    <path d="M 486.0,484.0 L 515.0,488.0 L 703.0,438.0 L 759.0,439.0"/>
    <path d="M 418.0,328.0 L 452.0,364.0 L 458.0,410.0 L 463.0,611.0 L 446.0,871.0 L 453.0,906.0 L 491.0,898.0 L 618.0,815.0"/>
    <path d="M 527.0,663.0 L 587.0,663.0 L 690.0,633.0 L 779.0,599.0 L 829.0,592.0"/>
    <path d="M 598.0,485.0 L 627.0,500.0 L 646.0,529.0 L 647.0,579.0 L 658.0,644.0 L 701.0,764.0 L 764.0,864.0 L 815.0,918.0 L 849.0,944.0 L 892.0,955.0 L 900.0,942.0 L 915.0,892.0 L 924.0,816.0 L 931.0,805.0 L 929.0,788.0"/>
  </g>
</svg>
