<svg xmlns="http://www.w3.org/2000/svg" viewBox="0 0 1024 1024">
  <g style="fill:none;stroke:#000000;stroke-width:50;stroke-linecap:round;stroke-linejoin:round;" transform="scale(1, 1) translate(0, 0)">
    <path d="M 132.0,506.0 L 157.0,511.0 L 198.0,508.0 L 368.0,460.0 L 422.0,457.0"/>
    <path d="M 284.0,213.0 L 309.0,230.0 L 329.0,254.0 L 319.0,447.0 L 320.0,894.0 L 314.0,925.0 L 298.0,954.0 L 262.0,944.0 L 177.0,901.0"/>
    <path d="M 74.0,796.0 L 121.0,802.0 L 229.0,721.0 L 410.0,600.0"/>
    <path d="M 577.0,247.0 L 669.0,296.0 L 705.0,342.0"/>
    <path d="M 475.0,483.0 L 484.0,488.0 L 544.0,490.0 L 778.0,447.0 L 817.0,453.0"/>
    <path d="M 504.0,677.0 L 564.0,687.0 L 737.0,659.0 L 791.0,661.0"/>
    <path d="M 614.0,508.0 L 645.0,531.0 L 647.0,568.0 L 646.0,840.0 L 629.0,861.0"/>
    <path d="M 387.0,903.0 L 438.0,913.0 L 603.0,890.0 L 864.0,868.0 L 946.0,890.0"/>
  </g>
</svg>
