<svg xmlns="http://www.w3.org/2000/svg" viewBox="0 0 1024 1024">
  <g style="fill:none;stroke:#000000;stroke-width:50;stroke-linecap:round;stroke-linejoin:round;" transform="scale(1, 1) translate(0, 0)">
    <path d="M 111.0,522.0 L 171.0,520.0 L 314.0,473.0 L 358.0,470.0"/>
    <path d="M 232.0,229.0 L 257.0,246.0 L 277.0,273.0 L 267.0,461.0 L 268.0,918.0 L 262.0,948.0 L 247.0,978.0 L 137.0,933.0"/>
    <path d="M 54.0,793.0 L 99.0,795.0 L 342.0,616.0"/>
    <path d="M 366.0,531.0 L 404.0,533.0 L 444.0,525.0 L 571.0,478.0 L 601.0,470.0 L 632.0,470.0"/>
    <path d="M 458.0,262.0 L 481.0,279.0 L 497.0,303.0 L 492.0,463.0 L 471.0,621.0 L 435.0,738.0 L 404.0,808.0 L 356.0,889.0 L 320.0,933.0"/>
    <path d="M 518.0,613.0 L 543.0,645.0 L 532.0,813.0 L 541.0,916.0 L 567.0,963.0 L 602.0,988.0 L 673.0,1010.0 L 738.0,1014.0 L 808.0,1010.0 L 865.0,992.0 L 908.0,959.0 L 908.0,816.0"/>
    <path d="M 616.0,586.0 L 654.0,588.0 L 784.0,542.0 L 815.0,537.0 L 837.0,553.0 L 821.0,706.0 L 798.0,782.0 L 779.0,812.0 L 763.0,823.0 L 729.0,806.0 L 710.0,789.0"/>
    <path d="M 713.0,378.0 L 732.0,395.0 L 742.0,414.0 L 721.0,589.0 L 702.0,657.0 L 669.0,736.0 L 619.0,819.0 L 592.0,848.0"/>
  </g>
</svg>
