<svg xmlns="http://www.w3.org/2000/svg" viewBox="0 0 1024 1024">
  <g style="fill:none;stroke:#000000;stroke-width:50;stroke-linecap:round;stroke-linejoin:round;" transform="scale(1, 1) translate(0, 0)">
    <path d="M 143.0,498.0 L 209.0,497.0 L 385.0,443.0 L 432.0,443.0"/>
    <path d="M 285.0,206.0 L 302.0,214.0 L 333.0,246.0 L 319.0,591.0 L 319.0,912.0 L 311.0,947.0 L 297.0,972.0 L 198.0,929.0 L 196.0,922.0 L 185.0,922.0"/>
    <path d="M 75.0,774.0 L 123.0,782.0 L 230.0,708.0 L 350.0,639.0 L 359.0,627.0 L 371.0,625.0 L 375.0,616.0 L 414.0,595.0"/>
    <path d="M 490.0,457.0 L 524.0,464.0 L 578.0,461.0 L 814.0,407.0 L 859.0,408.0"/>
    <path d="M 585.0,493.0 L 613.0,518.0 L 594.0,571.0 L 550.0,655.0 L 490.0,743.0 L 419.0,817.0 L 369.0,862.0 L 359.0,862.0 L 356.0,874.0"/>
    <path d="M 541.0,724.0 L 541.0,756.0 L 580.0,984.0"/>
    <path d="M 570.0,747.0 L 589.0,730.0 L 680.0,714.0 L 767.0,690.0 L 801.0,697.0 L 829.0,727.0 L 827.0,737.0 L 794.0,840.0 L 766.0,858.0"/>
    <path d="M 596.0,936.0 L 614.0,918.0 L 705.0,901.0 L 811.0,889.0 L 842.0,898.0"/>
  </g>
</svg>
