<svg xmlns="http://www.w3.org/2000/svg" viewBox="0 0 1024 1024">
  <g style="fill:none;stroke:#000000;stroke-width:50;stroke-linecap:round;stroke-linejoin:round;" transform="scale(1, 1) translate(0, 0)">
    <path d="M 111.0,492.0 L 150.0,496.0 L 192.0,490.0 L 334.0,449.0 L 382.0,447.0"/>
    <path d="M 261.0,206.0 L 278.0,214.0 L 309.0,246.0 L 298.0,426.0 L 296.0,891.0 L 289.0,922.0 L 271.0,950.0 L 218.0,929.0 L 181.0,909.0 L 180.0,902.0 L 169.0,902.0"/>
    <path d="M 41.0,771.0 L 90.0,777.0 L 207.0,689.0 L 371.0,579.0"/>
    <path d="M 452.0,386.0 L 499.0,427.0 L 519.0,463.0"/>
    <path d="M 800.0,300.0 L 818.0,320.0 L 825.0,340.0 L 722.0,432.0"/>
    <path d="M 490.0,573.0 L 562.0,577.0 L 728.0,540.0 L 788.0,538.0"/>
    <path d="M 381.0,731.0 L 403.0,737.0 L 449.0,736.0 L 631.0,703.0 L 856.0,674.0 L 891.0,677.0 L 940.0,691.0"/>
    <path d="M 591.0,191.0 L 639.0,233.0 L 643.0,282.0 L 630.0,1083.0"/>
  </g>
</svg>
