<svg xmlns="http://www.w3.org/2000/svg" viewBox="0 0 1024 1024">
  <g style="fill:none;stroke:#000000;stroke-width:50;stroke-linecap:round;stroke-linejoin:round;" transform="scale(1, 1) translate(0, 0)">
    <path d="M 139.0,508.0 L 216.0,505.0 L 365.0,456.0 L 420.0,451.0"/>
    <path d="M 292.0,206.0 L 317.0,222.0 L 336.0,246.0 L 323.0,568.0 L 324.0,903.0 L 317.0,933.0 L 302.0,961.0 L 276.0,954.0 L 193.0,913.0"/>
    <path d="M 74.0,784.0 L 120.0,789.0 L 236.0,701.0 L 401.0,588.0"/>
    <path d="M 478.0,397.0 L 519.0,405.0 L 536.0,402.0 L 782.0,342.0 L 798.0,342.0 L 826.0,365.0 L 804.0,502.0 L 793.0,542.0 L 765.0,601.0 L 732.0,629.0 L 644.0,582.0"/>
    <path d="M 581.0,420.0 L 598.0,434.0 L 608.0,459.0 L 572.0,537.0 L 517.0,623.0 L 468.0,685.0 L 407.0,737.0"/>
    <path d="M 466.0,759.0 L 490.0,779.0 L 503.0,802.0 L 540.0,1024.0"/>
    <path d="M 520.0,762.0 L 531.0,770.0 L 550.0,772.0 L 686.0,746.0 L 737.0,730.0 L 777.0,731.0 L 815.0,768.0 L 783.0,868.0 L 753.0,891.0"/>
    <path d="M 562.0,963.0 L 574.0,949.0 L 741.0,920.0 L 803.0,917.0 L 825.0,926.0"/>
  </g>
</svg>
