<svg xmlns="http://www.w3.org/2000/svg" viewBox="0 0 1024 1024">
  <g style="fill:none;stroke:#000000;stroke-width:50;stroke-linecap:round;stroke-linejoin:round;" transform="scale(1, 1) translate(0, 0)">
    <path d="M 131.0,508.0 L 191.0,510.0 L 367.0,460.0 L 404.0,456.0 L 417.0,461.0"/>
    <path d="M 274.0,201.0 L 321.0,242.0 L 308.0,448.0 L 304.0,903.0 L 297.0,934.0 L 281.0,963.0 L 243.0,949.0 L 186.0,918.0 L 184.0,911.0 L 173.0,910.0"/>
    <path d="M 53.0,798.0 L 97.0,803.0 L 377.0,600.0"/>
    <path d="M 594.0,198.0 L 614.0,216.0 L 632.0,252.0 L 604.0,315.0 L 542.0,423.0 L 486.0,502.0 L 418.0,572.0"/>
    <path d="M 513.0,504.0 L 579.0,503.0 L 784.0,459.0 L 825.0,467.0 L 861.0,500.0 L 848.0,701.0 L 833.0,825.0 L 816.0,911.0 L 797.0,969.0 L 777.0,999.0 L 753.0,1018.0 L 654.0,943.0"/>
    <path d="M 423.0,632.0 L 450.0,656.0 L 481.0,845.0"/>
    <path d="M 484.0,659.0 L 494.0,650.0 L 604.0,625.0 L 633.0,641.0 L 643.0,654.0 L 619.0,734.0 L 615.0,744.0 L 588.0,760.0"/>
    <path d="M 499.0,811.0 L 517.0,799.0 L 585.0,786.0 L 642.0,791.0"/>
  </g>
</svg>
