<svg xmlns="http://www.w3.org/2000/svg" viewBox="0 0 1024 1024">
  <g style="fill:none;stroke:#000000;stroke-width:50;stroke-linecap:round;stroke-linejoin:round;" transform="scale(1, 1) translate(0, 0)">
    <path d="M 124.0,476.0 L 155.0,481.0 L 197.0,478.0 L 359.0,436.0 L 413.0,434.0"/>
    <path d="M 274.0,213.0 L 321.0,254.0 L 304.0,637.0 L 305.0,916.0 L 299.0,947.0 L 282.0,977.0 L 220.0,954.0 L 182.0,936.0 L 180.0,929.0 L 169.0,929.0"/>
    <path d="M 44.0,807.0 L 93.0,809.0 L 253.0,682.0 L 391.0,583.0"/>
    <path d="M 485.0,350.0 L 557.0,397.0 L 573.0,427.0"/>
    <path d="M 725.0,259.0 L 759.0,294.0 L 735.0,333.0 L 651.0,438.0"/>
    <path d="M 467.0,531.0 L 490.0,538.0 L 541.0,538.0 L 765.0,494.0 L 811.0,495.0"/>
    <path d="M 494.0,703.0 L 529.0,710.0 L 569.0,709.0 L 724.0,679.0 L 779.0,679.0"/>
    <path d="M 387.0,891.0 L 440.0,901.0 L 593.0,879.0 L 832.0,858.0 L 882.0,866.0 L 918.0,880.0"/>
  </g>
</svg>
