<svg xmlns="http://www.w3.org/2000/svg" viewBox="0 0 1024 1024">
  <g style="fill:none;stroke:#000000;stroke-width:50;stroke-linecap:round;stroke-linejoin:round;" transform="scale(1, 1) translate(0, 0)">
    <path d="M 119.0,496.0 L 192.0,496.0 L 346.0,448.0 L 395.0,447.0"/>
    <path d="M 276.0,218.0 L 316.0,249.0 L 321.0,263.0 L 311.0,383.0 L 305.0,592.0 L 304.0,926.0 L 298.0,956.0 L 281.0,987.0 L 161.0,929.0"/>
    <path d="M 58.0,805.0 L 104.0,808.0 L 377.0,600.0"/>
    <path d="M 424.0,547.0 L 440.0,558.0 L 456.0,585.0 L 454.0,707.0 L 444.0,782.0 L 452.0,826.0 L 498.0,810.0 L 617.0,723.0"/>
    <path d="M 525.0,422.0 L 595.0,490.0 L 607.0,515.0"/>
    <path d="M 717.0,355.0 L 740.0,365.0 L 763.0,387.0 L 771.0,397.0 L 772.0,412.0 L 751.0,616.0 L 718.0,753.0 L 694.0,812.0 L 646.0,884.0 L 591.0,938.0 L 516.0,984.0"/>
    <path d="M 753.0,765.0 L 754.0,779.0 L 829.0,842.0 L 886.0,901.0 L 906.0,932.0 L 915.0,962.0"/>
  </g>
</svg>
