<svg xmlns="http://www.w3.org/2000/svg" viewBox="0 0 1024 1024">
  <g style="fill:none;stroke:#000000;stroke-width:50;stroke-linecap:round;stroke-linejoin:round;" transform="scale(1, 1) translate(0, 0)">
    <path d="M 131.0,488.0 L 155.0,492.0 L 206.0,487.0 L 359.0,441.0 L 406.0,439.0"/>
    <path d="M 272.0,225.0 L 297.0,242.0 L 317.0,270.0 L 306.0,553.0 L 308.0,914.0 L 301.0,944.0 L 285.0,974.0 L 169.0,921.0"/>
    <path d="M 63.0,788.0 L 113.0,792.0 L 379.0,591.0"/>
    <path d="M 594.0,213.0 L 671.0,262.0 L 693.0,300.0"/>
    <path d="M 461.0,390.0 L 473.0,419.0 L 471.0,442.0 L 445.0,509.0 L 439.0,553.0"/>
    <path d="M 503.0,422.0 L 525.0,431.0 L 645.0,403.0 L 791.0,383.0 L 819.0,393.0 L 841.0,417.0 L 788.0,496.0 L 779.0,500.0"/>
    <path d="M 437.0,628.0 L 478.0,634.0 L 772.0,580.0 L 818.0,580.0 L 865.0,592.0"/>
    <path d="M 630.0,627.0 L 669.0,648.0 L 677.0,663.0 L 675.0,924.0 L 670.0,957.0 L 651.0,987.0 L 618.0,978.0 L 534.0,935.0"/>
  </g>
</svg>
