<svg xmlns="http://www.w3.org/2000/svg" viewBox="0 0 1024 1024">
  <g style="fill:none;stroke:#000000;stroke-width:50;stroke-linecap:round;stroke-linejoin:round;" transform="scale(1, 1) translate(0, 0)">
    <path d="M 127.0,504.0 L 160.0,507.0 L 221.0,498.0 L 361.0,451.0 L 418.0,447.0"/>
    <path d="M 286.0,226.0 L 302.0,234.0 L 333.0,266.0 L 317.0,630.0 L 318.0,909.0 L 312.0,939.0 L 296.0,971.0 L 181.0,929.0"/>
    <path d="M 53.0,804.0 L 95.0,808.0 L 107.0,803.0 L 204.0,722.0 L 376.0,593.0"/>
    <path d="M 795.0,352.0 L 730.0,350.0 L 692.0,382.0 L 617.0,427.0 L 575.0,448.0 L 491.0,475.0"/>
    <path d="M 409.0,635.0 L 466.0,639.0 L 604.0,607.0 L 837.0,567.0 L 882.0,568.0 L 931.0,579.0"/>
    <path d="M 598.0,461.0 L 604.0,469.0 L 631.0,478.0 L 644.0,494.0 L 618.0,737.0 L 600.0,761.0"/>
    <path d="M 460.0,781.0 L 484.0,801.0 L 496.0,822.0 L 536.0,1020.0"/>
    <path d="M 514.0,784.0 L 538.0,797.0 L 730.0,760.0 L 759.0,764.0 L 795.0,796.0 L 765.0,897.0 L 739.0,916.0"/>
    <path d="M 556.0,985.0 L 569.0,970.0 L 722.0,946.0 L 776.0,947.0 L 802.0,955.0"/>
  </g>
</svg>
