<svg xmlns="http://www.w3.org/2000/svg" viewBox="0 0 1024 1024">
  <g style="fill:none;stroke:#000000;stroke-width:50;stroke-linecap:round;stroke-linejoin:round;" transform="scale(1, 1) translate(0, 0)">
    <path d="M 108.0,536.0 L 144.0,542.0 L 185.0,537.0 L 350.0,491.0 L 397.0,490.0"/>
    <path d="M 271.0,238.0 L 296.0,254.0 L 316.0,280.0 L 299.0,622.0 L 296.0,914.0 L 290.0,944.0 L 273.0,973.0 L 161.0,917.0"/>
    <path d="M 51.0,798.0 L 103.0,798.0 L 353.0,604.0"/>
    <path d="M 584.0,255.0 L 609.0,278.0 L 620.0,304.0 L 562.0,428.0 L 455.0,592.0 L 367.0,690.0"/>
    <path d="M 636.0,361.0 L 636.0,375.0 L 703.0,453.0 L 763.0,518.0 L 823.0,571.0 L 874.0,589.0 L 981.0,608.0"/>
    <path d="M 485.0,645.0 L 558.0,647.0 L 684.0,617.0 L 741.0,614.0"/>
    <path d="M 474.0,802.0 L 547.0,807.0 L 707.0,772.0 L 753.0,773.0"/>
    <path d="M 576.0,676.0 L 603.0,697.0 L 604.0,714.0 L 600.0,920.0 L 585.0,939.0"/>
    <path d="M 390.0,976.0 L 444.0,985.0 L 587.0,965.0 L 779.0,948.0 L 836.0,953.0 L 879.0,968.0"/>
  </g>
</svg>
