<svg xmlns="http://www.w3.org/2000/svg" viewBox="0 0 1024 1024">
  <g style="fill:none;stroke:#000000;stroke-width:50;stroke-linecap:round;stroke-linejoin:round;" transform="scale(1, 1) translate(0, 0)">
    <path d="M 144.0,512.0 L 204.0,515.0 L 370.0,471.0 L 417.0,470.0"/>
    <path d="M 269.0,238.0 L 286.0,246.0 L 317.0,280.0 L 307.0,572.0 L 310.0,894.0 L 289.0,953.0 L 200.0,910.0 L 199.0,903.0 L 188.0,902.0"/>
    <path d="M 54.0,784.0 L 101.0,790.0 L 350.0,616.0"/>
    <path d="M 496.0,424.0 L 519.0,429.0 L 569.0,426.0 L 706.0,387.0 L 785.0,378.0"/>
    <path d="M 600.0,191.0 L 648.0,233.0 L 638.0,512.0 L 621.0,532.0"/>
    <path d="M 414.0,580.0 L 465.0,589.0 L 602.0,559.0 L 841.0,524.0 L 916.0,542.0"/>
    <path d="M 421.0,735.0 L 476.0,739.0 L 795.0,677.0 L 843.0,677.0 L 892.0,689.0"/>
    <path d="M 682.0,597.0 L 728.0,644.0 L 722.0,997.0 L 703.0,1027.0 L 670.0,1018.0 L 586.0,975.0"/>
    <path d="M 500.0,799.0 L 551.0,842.0 L 567.0,870.0"/>
  </g>
</svg>
