<svg xmlns="http://www.w3.org/2000/svg" viewBox="0 0 1024 1024">
  <g style="fill:none;stroke:#000000;stroke-width:50;stroke-linecap:round;stroke-linejoin:round;" transform="scale(1, 1) translate(0, 0)">
    <path d="M 115.0,528.0 L 135.0,531.0 L 210.0,521.0 L 333.0,479.0 L 390.0,475.0"/>
    <path d="M 257.0,238.0 L 274.0,246.0 L 305.0,278.0 L 291.0,625.0 L 292.0,923.0 L 287.0,955.0 L 270.0,985.0 L 208.0,962.0 L 170.0,944.0 L 168.0,937.0 L 157.0,937.0"/>
    <path d="M 54.0,821.0 L 102.0,822.0 L 214.0,737.0 L 364.0,635.0"/>
    <path d="M 465.0,481.0 L 486.0,486.0 L 542.0,483.0 L 707.0,441.0 L 769.0,439.0"/>
    <path d="M 576.0,225.0 L 616.0,255.0 L 626.0,275.0 L 618.0,568.0 L 600.0,594.0"/>
    <path d="M 400.0,648.0 L 453.0,652.0 L 652.0,609.0 L 792.0,586.0 L 823.0,587.0 L 870.0,600.0"/>
    <path d="M 442.0,805.0 L 492.0,811.0 L 718.0,764.0 L 779.0,768.0"/>
    <path d="M 582.0,647.0 L 615.0,674.0 L 622.0,707.0 L 618.0,914.0 L 597.0,935.0"/>
    <path d="M 355.0,987.0 L 408.0,995.0 L 655.0,956.0 L 820.0,938.0 L 862.0,941.0 L 912.0,956.0"/>
  </g>
</svg>
