<svg xmlns="http://www.w3.org/2000/svg" viewBox="0 0 1024 1024">
  <g style="fill:none;stroke:#000000;stroke-width:50;stroke-linecap:round;stroke-linejoin:round;" transform="scale(1, 1) translate(0, 0)">
    <path d="M 132.0,480.0 L 154.0,485.0 L 227.0,478.0 L 349.0,443.0 L 397.0,442.0"/>
    <path d="M 254.0,210.0 L 278.0,225.0 L 296.0,249.0 L 284.0,540.0 L 284.0,883.0 L 277.0,915.0 L 263.0,940.0 L 149.0,897.0"/>
    <path d="M 54.0,759.0 L 97.0,766.0 L 232.0,675.0 L 375.0,590.0"/>
    <path d="M 504.0,286.0 L 558.0,338.0 L 571.0,366.0"/>
    <path d="M 731.0,207.0 L 753.0,224.0 L 761.0,247.0 L 659.0,386.0"/>
    <path d="M 455.0,470.0 L 496.0,478.0 L 737.0,434.0 L 778.0,429.0 L 815.0,435.0"/>
    <path d="M 374.0,696.0 L 421.0,705.0 L 637.0,671.0 L 869.0,651.0 L 915.0,657.0 L 949.0,669.0"/>
    <path d="M 497.0,538.0 L 517.0,552.0 L 534.0,580.0 L 523.0,731.0 L 508.0,800.0 L 481.0,865.0 L 461.0,894.0 L 419.0,940.0 L 374.0,969.0"/>
    <path d="M 672.0,470.0 L 719.0,504.0 L 711.0,1060.0"/>
  </g>
</svg>
