<svg xmlns="http://www.w3.org/2000/svg" viewBox="0 0 1024 1024">
  <g style="fill:none;stroke:#000000;stroke-width:50;stroke-linecap:round;stroke-linejoin:round;" transform="scale(1, 1) translate(0, 0)">
    <path d="M 131.0,508.0 L 192.0,510.0 L 381.0,457.0 L 430.0,455.0"/>
    <path d="M 284.0,209.0 L 309.0,226.0 L 329.0,251.0 L 317.0,574.0 L 320.0,910.0 L 314.0,940.0 L 297.0,971.0 L 177.0,921.0"/>
    <path d="M 65.0,795.0 L 110.0,800.0 L 265.0,687.0 L 419.0,587.0"/>
    <path d="M 735.0,287.0 L 748.0,327.0 L 739.0,337.0 L 673.0,377.0 L 562.0,426.0 L 542.0,442.0"/>
    <path d="M 489.0,265.0 L 524.0,306.0 L 517.0,408.0 L 526.0,489.0 L 541.0,522.0 L 565.0,540.0 L 612.0,552.0 L 713.0,553.0 L 787.0,541.0 L 835.0,521.0 L 842.0,502.0 L 843.0,401.0"/>
    <path d="M 505.0,662.0 L 528.0,684.0 L 535.0,709.0 L 537.0,794.0 L 522.0,948.0 L 524.0,989.0"/>
    <path d="M 559.0,699.0 L 585.0,684.0 L 742.0,649.0 L 771.0,664.0 L 787.0,683.0 L 787.0,940.0 L 775.0,972.0 L 715.0,958.0"/>
    <path d="M 560.0,826.0 L 573.0,814.0 L 627.0,802.0 L 683.0,796.0 L 707.0,803.0"/>
    <path d="M 550.0,958.0 L 574.0,943.0 L 692.0,932.0 L 734.0,940.0"/>
  </g>
</svg>
