<svg xmlns="http://www.w3.org/2000/svg" viewBox="0 0 1024 1024">
  <g style="fill:none;stroke:#000000;stroke-width:50;stroke-linecap:round;stroke-linejoin:round;" transform="scale(1, 1) translate(0, 0)">
    <path d="M 127.0,496.0 L 201.0,496.0 L 345.0,452.0 L 394.0,451.0"/>
    <path d="M 257.0,218.0 L 274.0,226.0 L 305.0,258.0 L 295.0,412.0 L 292.0,903.0 L 286.0,935.0 L 271.0,964.0 L 201.0,938.0 L 182.0,929.0 L 180.0,922.0 L 169.0,922.0"/>
    <path d="M 53.0,805.0 L 99.0,808.0 L 215.0,709.0 L 362.0,596.0"/>
    <path d="M 581.0,249.0 L 656.0,301.0 L 677.0,338.0"/>
    <path d="M 443.0,447.0 L 454.0,494.0 L 428.0,560.0 L 423.0,602.0"/>
    <path d="M 484.0,492.0 L 495.0,481.0 L 618.0,448.0 L 731.0,425.0 L 769.0,425.0 L 793.0,436.0 L 808.0,455.0 L 749.0,545.0"/>
    <path d="M 574.0,529.0 L 590.0,544.0 L 600.0,571.0 L 568.0,678.0 L 517.0,806.0 L 548.0,827.0 L 627.0,860.0 L 755.0,935.0 L 801.0,973.0 L 834.0,1015.0"/>
    <path d="M 687.0,670.0 L 713.0,693.0 L 711.0,747.0 L 692.0,806.0 L 635.0,897.0 L 603.0,926.0 L 544.0,961.0 L 461.0,989.0 L 411.0,995.0"/>
    <path d="M 362.0,728.0 L 416.0,736.0 L 624.0,706.0 L 847.0,686.0 L 883.0,688.0 L 939.0,704.0"/>
  </g>
</svg>
