<svg xmlns="http://www.w3.org/2000/svg" viewBox="0 0 1024 1024">
  <g style="fill:none;stroke:#000000;stroke-width:50;stroke-linecap:round;stroke-linejoin:round;" transform="scale(1, 1) translate(0, 0)">
    <path d="M 115.0,466.0 L 204.0,458.0 L 325.0,419.0 L 381.0,413.0"/>
    <path d="M 246.0,210.0 L 262.0,218.0 L 293.0,250.0 L 277.0,595.0 L 276.0,895.0 L 263.0,940.0 L 250.0,953.0 L 161.0,910.0 L 159.0,903.0 L 148.0,902.0"/>
    <path d="M 48.0,761.0 L 89.0,766.0 L 223.0,672.0 L 360.0,586.0"/>
    <path d="M 429.0,394.0 L 451.0,400.0 L 503.0,399.0 L 724.0,347.0 L 781.0,345.0"/>
    <path d="M 549.0,194.0 L 584.0,215.0 L 594.0,229.0 L 564.0,342.0 L 522.0,460.0 L 483.0,543.0 L 452.0,592.0 L 404.0,652.0 L 335.0,716.0"/>
    <path d="M 631.0,399.0 L 656.0,418.0 L 752.0,531.0 L 823.0,596.0 L 869.0,613.0 L 969.0,632.0"/>
    <path d="M 491.0,581.0 L 639.0,541.0 L 670.0,541.0"/>
    <path d="M 395.0,709.0 L 442.0,711.0 L 712.0,651.0 L 749.0,650.0 L 790.0,660.0"/>
    <path d="M 512.0,716.0 L 536.0,734.0 L 512.0,806.0 L 557.0,809.0 L 633.0,791.0 L 673.0,790.0 L 705.0,799.0 L 723.0,819.0 L 713.0,887.0 L 695.0,938.0 L 674.0,981.0 L 633.0,1029.0 L 614.0,1039.0 L 520.0,973.0"/>
  </g>
</svg>
