<svg xmlns="http://www.w3.org/2000/svg" viewBox="0 0 1024 1024">
  <g style="fill:none;stroke:#000000;stroke-width:50;stroke-linecap:round;stroke-linejoin:round;" transform="scale(1, 1) translate(0, 0)">
    <path d="M 144.0,520.0 L 213.0,521.0 L 373.0,479.0 L 421.0,478.0"/>
    <path d="M 274.0,218.0 L 290.0,226.0 L 321.0,258.0 L 305.0,597.0 L 305.0,903.0 L 298.0,934.0 L 282.0,965.0 L 182.0,921.0 L 180.0,914.0 L 169.0,914.0"/>
    <path d="M 54.0,825.0 L 91.0,828.0 L 104.0,823.0 L 230.0,723.0 L 374.0,620.0"/>
    <path d="M 522.0,378.0 L 538.0,386.0 L 564.0,416.0 L 566.0,583.0 L 549.0,711.0 L 526.0,781.0 L 494.0,842.0 L 456.0,894.0 L 421.0,929.0 L 382.0,956.0"/>
    <path d="M 426.0,552.0 L 467.0,579.0 L 486.0,601.0"/>
    <path d="M 372.0,756.0 L 414.0,758.0 L 518.0,691.0 L 521.0,676.0"/>
    <path d="M 652.0,255.0 L 681.0,272.0 L 702.0,301.0 L 689.0,426.0 L 680.0,621.0 L 685.0,795.0 L 703.0,873.0 L 734.0,906.0 L 800.0,936.0 L 865.0,942.0 L 920.0,935.0 L 942.0,921.0 L 951.0,788.0"/>
    <path d="M 819.0,443.0 L 840.0,474.0 L 756.0,577.0"/>
    <path d="M 741.0,665.0 L 825.0,706.0 L 849.0,730.0 L 862.0,757.0"/>
  </g>
</svg>
