<svg xmlns="http://www.w3.org/2000/svg" viewBox="0 0 1024 1024">
  <g style="fill:none;stroke:#000000;stroke-width:50;stroke-linecap:round;stroke-linejoin:round;" transform="scale(1, 1) translate(0, 0)">
    <path d="M 134.0,490.0 L 202.0,485.0 L 355.0,434.0 L 402.0,430.0"/>
    <path d="M 265.0,210.0 L 282.0,218.0 L 313.0,250.0 L 301.0,562.0 L 304.0,894.0 L 297.0,926.0 L 279.0,954.0 L 226.0,933.0 L 189.0,913.0 L 188.0,906.0 L 177.0,906.0"/>
    <path d="M 54.0,762.0 L 102.0,769.0 L 374.0,587.0"/>
    <path d="M 573.0,223.0 L 664.0,271.0 L 691.0,306.0"/>
    <path d="M 462.0,389.0 L 472.0,428.0 L 437.0,514.0 L 431.0,549.0"/>
    <path d="M 500.0,443.0 L 514.0,433.0 L 553.0,428.0 L 685.0,392.0 L 781.0,378.0 L 809.0,388.0 L 828.0,410.0 L 779.0,485.0 L 771.0,488.0"/>
    <path d="M 538.0,497.0 L 556.0,525.0 L 548.0,546.0 L 496.0,612.0 L 464.0,643.0 L 441.0,656.0"/>
    <path d="M 668.0,498.0 L 749.0,556.0 L 766.0,575.0 L 781.0,607.0"/>
    <path d="M 460.0,703.0 L 513.0,702.0 L 620.0,671.0 L 654.0,675.0 L 667.0,686.0 L 647.0,722.0 L 551.0,827.0 L 513.0,899.0 L 508.0,926.0 L 518.0,959.0 L 548.0,987.0 L 592.0,1006.0 L 651.0,1015.0 L 753.0,1014.0 L 805.0,1006.0 L 871.0,979.0 L 892.0,964.0 L 884.0,818.0"/>
  </g>
</svg>
