<svg xmlns="http://www.w3.org/2000/svg" viewBox="0 0 1024 1024">
  <g style="fill:none;stroke:#000000;stroke-width:50;stroke-linecap:round;stroke-linejoin:round;" transform="scale(1, 1) translate(0, 0)">
    <path d="M 131.0,480.0 L 150.0,484.0 L 217.0,476.0 L 334.0,440.0 L 398.0,435.0"/>
    <path d="M 270.0,210.0 L 286.0,218.0 L 317.0,250.0 L 303.0,530.0 L 301.0,900.0 L 295.0,931.0 L 279.0,961.0 L 182.0,921.0 L 180.0,914.0 L 169.0,914.0"/>
    <path d="M 57.0,803.0 L 100.0,805.0 L 230.0,697.0 L 386.0,580.0"/>
    <path d="M 602.0,212.0 L 624.0,246.0 L 622.0,259.0 L 526.0,381.0 L 445.0,448.0"/>
    <path d="M 583.0,354.0 L 688.0,335.0 L 715.0,337.0 L 736.0,348.0 L 718.0,384.0 L 623.0,501.0"/>
    <path d="M 478.0,533.0 L 524.0,536.0 L 623.0,521.0 L 757.0,486.0 L 792.0,491.0 L 819.0,520.0 L 780.0,683.0 L 761.0,696.0"/>
    <path d="M 396.0,656.0 L 441.0,663.0 L 574.0,637.0 L 854.0,597.0 L 903.0,597.0 L 950.0,610.0"/>
    <path d="M 473.0,762.0 L 493.0,768.0 L 524.0,764.0 L 756.0,725.0 L 795.0,727.0 L 813.0,735.0"/>
    <path d="M 583.0,543.0 L 610.0,557.0 L 624.0,573.0 L 628.0,594.0 L 644.0,711.0 L 651.0,831.0 L 645.0,952.0 L 631.0,995.0 L 608.0,1021.0 L 496.0,971.0"/>
  </g>
</svg>
