<svg xmlns="http://www.w3.org/2000/svg" viewBox="0 0 1024 1024">
  <g style="fill:none;stroke:#000000;stroke-width:50;stroke-linecap:round;stroke-linejoin:round;" transform="scale(1, 1) translate(0, 0)">
    <path d="M 99.0,470.0 L 153.0,470.0 L 295.0,429.0 L 337.0,425.0"/>
    <path d="M 238.0,205.0 L 277.0,236.0 L 281.0,248.0 L 270.0,380.0 L 264.0,585.0 L 264.0,866.0 L 256.0,899.0 L 242.0,922.0 L 145.0,880.0 L 143.0,873.0 L 133.0,873.0"/>
    <path d="M 38.0,740.0 L 86.0,741.0 L 323.0,571.0"/>
    <path d="M 379.0,385.0 L 425.0,384.0 L 553.0,352.0 L 576.0,358.0 L 597.0,379.0 L 589.0,623.0 L 580.0,701.0 L 563.0,775.0 L 542.0,811.0 L 530.0,820.0 L 455.0,789.0"/>
    <path d="M 363.0,519.0 L 397.0,522.0 L 496.0,496.0 L 533.0,493.0"/>
    <path d="M 320.0,652.0 L 356.0,657.0 L 537.0,574.0"/>
    <path d="M 442.0,397.0 L 471.0,421.0 L 467.0,497.0 L 450.0,611.0 L 413.0,722.0 L 373.0,795.0 L 335.0,841.0"/>
    <path d="M 727.0,352.0 L 746.0,360.0 L 837.0,332.0 L 866.0,358.0 L 808.0,470.0 L 798.0,507.0 L 849.0,553.0 L 882.0,596.0 L 897.0,622.0 L 911.0,669.0 L 906.0,711.0 L 880.0,748.0 L 762.0,708.0"/>
    <path d="M 658.0,347.0 L 683.0,363.0 L 700.0,388.0 L 691.0,1081.0"/>
  </g>
</svg>
