<svg xmlns="http://www.w3.org/2000/svg" viewBox="0 0 1024 1024">
  <g style="fill:none;stroke:#000000;stroke-width:50;stroke-linecap:round;stroke-linejoin:round;" transform="scale(1, 1) translate(0, 0)">
    <path d="M 127.0,528.0 L 150.0,532.0 L 198.0,526.0 L 336.0,482.0 L 380.0,479.0"/>
    <path d="M 274.0,226.0 L 290.0,234.0 L 321.0,266.0 L 305.0,605.0 L 305.0,907.0 L 298.0,939.0 L 284.0,966.0 L 225.0,947.0 L 206.0,937.0 L 204.0,930.0 L 193.0,930.0"/>
    <path d="M 51.0,821.0 L 70.0,825.0 L 96.0,820.0 L 253.0,681.0 L 348.0,610.0 L 369.0,588.0"/>
    <path d="M 450.0,457.0 L 490.0,463.0 L 531.0,460.0 L 619.0,443.0 L 738.0,410.0 L 808.0,406.0"/>
    <path d="M 562.0,217.0 L 588.0,234.0 L 612.0,262.0 L 604.0,593.0 L 583.0,755.0 L 548.0,840.0 L 503.0,894.0 L 432.0,943.0 L 367.0,969.0"/>
    <path d="M 622.0,724.0 L 623.0,739.0 L 664.0,790.0 L 749.0,883.0 L 823.0,951.0 L 874.0,968.0 L 985.0,988.0"/>
    <path d="M 469.0,530.0 L 488.0,559.0 L 459.0,621.0 L 416.0,678.0 L 377.0,709.0"/>
    <path d="M 468.0,652.0 L 492.0,662.0 L 526.0,700.0"/>
    <path d="M 769.0,488.0 L 784.0,512.0 L 785.0,529.0 L 710.0,625.0 L 661.0,657.0"/>
    <path d="M 735.0,631.0 L 761.0,637.0 L 805.0,664.0 L 837.0,706.0"/>
  </g>
</svg>
