<svg xmlns="http://www.w3.org/2000/svg" viewBox="0 0 1024 1024">
  <g style="fill:none;stroke:#000000;stroke-width:50;stroke-linecap:round;stroke-linejoin:round;" transform="scale(1, 1) translate(0, 0)">
    <path d="M 123.0,498.0 L 191.0,496.0 L 330.0,455.0 L 377.0,453.0"/>
    <path d="M 241.0,198.0 L 258.0,206.0 L 289.0,241.0 L 279.0,443.0 L 280.0,923.0 L 274.0,955.0 L 258.0,985.0 L 162.0,945.0 L 160.0,938.0 L 149.0,938.0"/>
    <path d="M 35.0,780.0 L 67.0,786.0 L 85.0,783.0 L 364.0,595.0"/>
    <path d="M 813.0,344.0 L 747.0,345.0 L 692.0,394.0 L 605.0,449.0 L 598.0,448.0 L 593.0,456.0 L 574.0,458.0 L 571.0,469.0"/>
    <path d="M 578.0,592.0 L 605.0,597.0 L 635.0,594.0 L 801.0,554.0 L 848.0,558.0"/>
    <path d="M 674.0,436.0 L 694.0,447.0 L 700.0,478.0 L 698.0,718.0 L 694.0,733.0 L 683.0,742.0"/>
    <path d="M 589.0,780.0 L 613.0,783.0 L 784.0,752.0 L 850.0,762.0"/>
    <path d="M 409.0,425.0 L 500.0,397.0 L 520.0,410.0 L 494.0,497.0 L 444.0,614.0 L 452.0,623.0 L 508.0,642.0 L 510.0,648.0 L 486.0,743.0 L 449.0,826.0 L 397.0,899.0 L 356.0,937.0"/>
    <path d="M 353.0,753.0 L 386.0,754.0 L 428.0,767.0 L 651.0,901.0 L 766.0,949.0 L 830.0,955.0 L 984.0,938.0"/>
  </g>
</svg>
