<svg xmlns="http://www.w3.org/2000/svg" viewBox="0 0 1024 1024">
  <g style="fill:none;stroke:#000000;stroke-width:50;stroke-linecap:round;stroke-linejoin:round;" transform="scale(1, 1) translate(0, 0)">
    <path d="M 128.0,504.0 L 157.0,509.0 L 191.0,505.0 L 353.0,463.0 L 397.0,462.0"/>
    <path d="M 269.0,206.0 L 286.0,214.0 L 317.0,246.0 L 308.0,420.0 L 306.0,919.0 L 286.0,964.0 L 162.0,917.0"/>
    <path d="M 46.0,808.0 L 93.0,812.0 L 208.0,721.0 L 380.0,599.0"/>
    <path d="M 429.0,367.0 L 456.0,396.0 L 466.0,443.0 L 463.0,783.0 L 450.0,881.0 L 456.0,953.0"/>
    <path d="M 487.0,382.0 L 505.0,395.0 L 544.0,392.0 L 673.0,371.0 L 756.0,348.0 L 789.0,346.0 L 818.0,361.0 L 839.0,382.0 L 852.0,892.0 L 840.0,930.0 L 766.0,912.0"/>
    <path d="M 528.0,557.0 L 565.0,564.0 L 716.0,544.0 L 765.0,551.0"/>
    <path d="M 625.0,425.0 L 649.0,455.0 L 655.0,519.0 L 651.0,711.0 L 639.0,802.0 L 645.0,848.0"/>
    <path d="M 630.0,581.0 L 623.0,587.0 L 615.0,638.0 L 586.0,693.0 L 533.0,763.0 L 487.0,800.0"/>
    <path d="M 679.0,662.0 L 683.0,671.0 L 751.0,704.0 L 772.0,733.0"/>
    <path d="M 483.0,926.0 L 504.0,911.0 L 658.0,893.0 L 756.0,884.0 L 798.0,892.0"/>
  </g>
</svg>
