<svg xmlns="http://www.w3.org/2000/svg" viewBox="0 0 1024 1024">
  <g style="fill:none;stroke:#000000;stroke-width:50;stroke-linecap:round;stroke-linejoin:round;" transform="scale(1, 1) translate(0, 0)">
    <path d="M 136.0,478.0 L 162.0,483.0 L 203.0,480.0 L 361.0,436.0 L 419.0,434.0"/>
    <path d="M 281.0,210.0 L 298.0,218.0 L 329.0,250.0 L 318.0,529.0 L 318.0,927.0 L 298.0,972.0 L 196.0,933.0 L 178.0,924.0 L 176.0,917.0 L 165.0,917.0"/>
    <path d="M 51.0,768.0 L 97.0,774.0 L 203.0,696.0 L 397.0,568.0"/>
    <path d="M 453.0,335.0 L 483.0,360.0 L 497.0,385.0 L 520.0,544.0 L 542.0,630.0"/>
    <path d="M 514.0,341.0 L 531.0,355.0 L 710.0,318.0 L 749.0,316.0 L 782.0,326.0 L 807.0,353.0 L 762.0,562.0 L 750.0,595.0 L 725.0,600.0"/>
    <path d="M 542.0,494.0 L 552.0,484.0 L 649.0,463.0 L 673.0,461.0 L 696.0,467.0"/>
    <path d="M 561.0,615.0 L 572.0,605.0 L 699.0,583.0 L 715.0,572.0"/>
    <path d="M 482.0,766.0 L 490.0,771.0 L 556.0,773.0 L 674.0,755.0 L 747.0,736.0 L 802.0,737.0"/>
    <path d="M 614.0,654.0 L 641.0,691.0 L 636.0,874.0 L 621.0,891.0"/>
    <path d="M 382.0,931.0 L 434.0,942.0 L 595.0,921.0 L 851.0,901.0 L 893.0,905.0 L 942.0,922.0"/>
  </g>
</svg>
