<svg xmlns="http://www.w3.org/2000/svg" viewBox="0 0 1024 1024">
  <g style="fill:none;stroke:#000000;stroke-width:50;stroke-linecap:round;stroke-linejoin:round;" transform="scale(1, 1) translate(0, 0)">
    <path d="M 127.0,504.0 L 184.0,505.0 L 282.0,481.0 L 333.0,462.0 L 391.0,460.0"/>
    <path d="M 257.0,222.0 L 274.0,230.0 L 305.0,262.0 L 291.0,619.0 L 293.0,908.0 L 287.0,939.0 L 270.0,971.0 L 162.0,928.0 L 160.0,921.0 L 149.0,921.0"/>
    <path d="M 61.0,789.0 L 82.0,793.0 L 111.0,788.0 L 348.0,597.0"/>
    <path d="M 423.0,401.0 L 488.0,405.0 L 791.0,359.0 L 850.0,374.0"/>
    <path d="M 485.0,293.0 L 505.0,303.0 L 524.0,324.0 L 545.0,485.0"/>
    <path d="M 685.0,228.0 L 701.0,236.0 L 721.0,262.0 L 693.0,395.0 L 666.0,477.0"/>
    <path d="M 420.0,529.0 L 429.0,573.0 L 398.0,647.0 L 390.0,687.0"/>
    <path d="M 454.0,558.0 L 469.0,566.0 L 505.0,566.0 L 616.0,540.0 L 792.0,514.0 L 826.0,528.0 L 843.0,550.0 L 778.0,625.0"/>
    <path d="M 423.0,750.0 L 468.0,758.0 L 732.0,707.0 L 749.0,707.0 L 773.0,728.0 L 750.0,875.0 L 734.0,926.0 L 708.0,975.0 L 677.0,998.0 L 588.0,953.0"/>
    <path d="M 578.0,613.0 L 605.0,643.0 L 592.0,711.0 L 558.0,809.0 L 523.0,870.0 L 483.0,921.0 L 441.0,964.0 L 390.0,1004.0"/>
  </g>
</svg>
