<svg xmlns="http://www.w3.org/2000/svg" viewBox="0 0 1024 1024">
  <g style="fill:none;stroke:#000000;stroke-width:50;stroke-linecap:round;stroke-linejoin:round;" transform="scale(1, 1) translate(0, 0)">
    <path d="M 116.0,454.0 L 150.0,458.0 L 186.0,453.0 L 341.0,409.0 L 377.0,410.0"/>
    <path d="M 244.0,198.0 L 285.0,230.0 L 289.0,243.0 L 275.0,553.0 L 274.0,904.0 L 254.0,948.0 L 137.0,901.0"/>
    <path d="M 46.0,740.0 L 93.0,746.0 L 212.0,657.0 L 346.0,568.0"/>
    <path d="M 441.0,343.0 L 464.0,350.0 L 503.0,350.0 L 709.0,307.0 L 753.0,308.0"/>
    <path d="M 451.0,451.0 L 502.0,457.0 L 680.0,422.0 L 729.0,426.0"/>
    <path d="M 376.0,573.0 L 426.0,577.0 L 582.0,543.0 L 764.0,515.0 L 815.0,515.0 L 861.0,525.0"/>
    <path d="M 562.0,196.0 L 591.0,234.0 L 569.0,370.0 L 534.0,506.0 L 494.0,599.0 L 440.0,693.0 L 352.0,793.0"/>
    <path d="M 668.0,554.0 L 687.0,562.0 L 788.0,669.0 L 861.0,727.0 L 991.0,745.0"/>
    <path d="M 476.0,729.0 L 544.0,731.0 L 665.0,702.0 L 705.0,703.0"/>
    <path d="M 392.0,865.0 L 441.0,870.0 L 568.0,845.0 L 746.0,820.0 L 781.0,821.0 L 827.0,833.0"/>
    <path d="M 567.0,611.0 L 594.0,633.0 L 603.0,660.0 L 595.0,1091.0"/>
  </g>
</svg>
