<svg xmlns="http://www.w3.org/2000/svg" viewBox="0 0 1024 1024">
  <g style="fill:none;stroke:#000000;stroke-width:50;stroke-linecap:round;stroke-linejoin:round;" transform="scale(1, 1) translate(0, 0)">
    <path d="M 116.0,474.0 L 149.0,480.0 L 185.0,477.0 L 351.0,435.0 L 388.0,440.0"/>
    <path d="M 248.0,242.0 L 273.0,258.0 L 293.0,285.0 L 280.0,558.0 L 280.0,883.0 L 274.0,913.0 L 258.0,942.0 L 145.0,893.0"/>
    <path d="M 55.0,749.0 L 100.0,756.0 L 192.0,689.0 L 379.0,571.0"/>
    <path d="M 537.0,333.0 L 549.0,343.0 L 722.0,305.0 L 744.0,307.0 L 773.0,338.0 L 755.0,394.0 L 730.0,408.0"/>
    <path d="M 527.0,488.0 L 561.0,473.0 L 720.0,440.0 L 765.0,438.0 L 787.0,444.0"/>
    <path d="M 467.0,316.0 L 489.0,334.0 L 504.0,363.0 L 489.0,545.0 L 474.0,630.0 L 449.0,719.0 L 398.0,834.0 L 345.0,915.0 L 320.0,943.0"/>
    <path d="M 498.0,671.0 L 846.0,619.0 L 879.0,620.0 L 927.0,634.0"/>
    <path d="M 636.0,515.0 L 671.0,552.0 L 650.0,765.0 L 632.0,790.0"/>
    <path d="M 504.0,804.0 L 531.0,827.0 L 538.0,844.0 L 564.0,1008.0"/>
    <path d="M 561.0,810.0 L 580.0,821.0 L 764.0,786.0 L 781.0,791.0 L 813.0,822.0 L 783.0,905.0 L 757.0,924.0"/>
    <path d="M 586.0,959.0 L 595.0,970.0 L 756.0,950.0 L 795.0,950.0 L 823.0,960.0"/>
  </g>
</svg>
