<svg xmlns="http://www.w3.org/2000/svg" viewBox="0 0 1024 1024">
  <g style="fill:none;stroke:#000000;stroke-width:50;stroke-linecap:round;stroke-linejoin:round;" transform="scale(1, 1) translate(0, 0)">
    <path d="M 127.0,519.0 L 150.0,523.0 L 190.0,518.0 L 334.0,477.0 L 385.0,473.0"/>
    <path d="M 257.0,210.0 L 285.0,228.0 L 305.0,254.0 L 294.0,435.0 L 293.0,899.0 L 287.0,931.0 L 271.0,961.0 L 201.0,937.0 L 182.0,928.0 L 180.0,921.0 L 169.0,921.0"/>
    <path d="M 49.0,796.0 L 91.0,800.0 L 103.0,795.0 L 191.0,721.0 L 374.0,584.0"/>
    <path d="M 431.0,334.0 L 478.0,376.0 L 491.0,401.0"/>
    <path d="M 766.0,240.0 L 779.0,259.0 L 784.0,275.0 L 780.0,281.0 L 679.0,370.0"/>
    <path d="M 469.0,482.0 L 492.0,489.0 L 563.0,482.0 L 611.0,475.0 L 727.0,442.0 L 790.0,439.0"/>
    <path d="M 396.0,608.0 L 447.0,613.0 L 590.0,581.0 L 821.0,545.0 L 891.0,558.0"/>
    <path d="M 564.0,193.0 L 595.0,213.0 L 613.0,243.0 L 585.0,443.0 L 541.0,602.0 L 500.0,690.0 L 458.0,753.0 L 387.0,827.0 L 340.0,859.0"/>
    <path d="M 658.0,595.0 L 678.0,602.0 L 742.0,666.0 L 826.0,730.0 L 888.0,746.0 L 986.0,756.0"/>
    <path d="M 533.0,746.0 L 550.0,758.0 L 674.0,730.0 L 693.0,745.0 L 689.0,815.0 L 680.0,850.0 L 665.0,874.0 L 650.0,888.0 L 601.0,864.0"/>
    <path d="M 502.0,745.0 L 514.0,783.0 L 508.0,876.0 L 515.0,962.0 L 530.0,998.0 L 571.0,1027.0 L 617.0,1040.0 L 677.0,1045.0 L 744.0,1034.0 L 779.0,1017.0 L 805.0,994.0 L 812.0,876.0"/>
  </g>
</svg>
