<svg xmlns="http://www.w3.org/2000/svg" viewBox="0 0 1024 1024">
  <g style="fill:none;stroke:#000000;stroke-width:50;stroke-linecap:round;stroke-linejoin:round;" transform="scale(1, 1) translate(0, 0)">
    <path d="M 123.0,492.0 L 193.0,492.0 L 334.0,451.0 L 394.0,447.0"/>
    <path d="M 260.0,230.0 L 300.0,261.0 L 305.0,277.0 L 291.0,621.0 L 292.0,895.0 L 287.0,925.0 L 270.0,956.0 L 149.0,905.0"/>
    <path d="M 53.0,796.0 L 100.0,799.0 L 356.0,597.0"/>
    <path d="M 469.0,342.0 L 500.0,347.0 L 558.0,342.0 L 701.0,304.0 L 739.0,298.0 L 761.0,301.0"/>
    <path d="M 433.0,490.0 L 479.0,491.0 L 576.0,471.0 L 682.0,439.0 L 724.0,436.0 L 758.0,463.0 L 723.0,608.0 L 735.0,624.0"/>
    <path d="M 392.0,593.0 L 441.0,597.0 L 681.0,549.0 L 824.0,530.0 L 873.0,532.0 L 906.0,541.0"/>
    <path d="M 444.0,690.0 L 459.0,695.0 L 480.0,692.0 L 699.0,646.0 L 750.0,653.0"/>
    <path d="M 555.0,202.0 L 596.0,233.0 L 608.0,250.0 L 597.0,873.0 L 615.0,902.0"/>
    <path d="M 626.0,799.0 L 639.0,784.0 L 716.0,762.0 L 754.0,756.0 L 791.0,760.0"/>
    <path d="M 441.0,743.0 L 469.0,776.0 L 431.0,875.0 L 367.0,962.0 L 325.0,997.0"/>
    <path d="M 480.0,833.0 L 493.0,853.0 L 658.0,963.0 L 785.0,1028.0 L 847.0,1029.0 L 948.0,1015.0"/>
  </g>
</svg>
