<svg xmlns="http://www.w3.org/2000/svg" viewBox="0 0 1024 1024">
  <g style="fill:none;stroke:#000000;stroke-width:50;stroke-linecap:round;stroke-linejoin:round;" transform="scale(1, 1) translate(0, 0)">
    <path d="M 115.0,530.0 L 144.0,533.0 L 204.0,524.0 L 326.0,483.0 L 372.0,483.0"/>
    <path d="M 248.0,246.0 L 273.0,262.0 L 293.0,290.0 L 283.0,444.0 L 279.0,651.0 L 281.0,912.0 L 275.0,942.0 L 261.0,970.0 L 158.0,937.0"/>
    <path d="M 63.0,794.0 L 106.0,796.0 L 353.0,607.0"/>
    <path d="M 423.0,433.0 L 472.0,441.0 L 748.0,386.0 L 806.0,392.0"/>
    <path d="M 573.0,226.0 L 601.0,258.0 L 575.0,397.0 L 537.0,491.0 L 499.0,554.0 L 451.0,615.0 L 378.0,691.0 L 349.0,711.0"/>
    <path d="M 634.0,432.0 L 653.0,444.0 L 762.0,553.0 L 821.0,596.0 L 913.0,619.0 L 985.0,628.0"/>
    <path d="M 496.0,638.0 L 516.0,642.0 L 571.0,637.0 L 656.0,614.0 L 702.0,613.0"/>
    <path d="M 420.0,765.0 L 458.0,770.0 L 731.0,718.0 L 766.0,718.0 L 814.0,729.0"/>
    <path d="M 584.0,766.0 L 609.0,785.0 L 614.0,803.0 L 615.0,946.0 L 609.0,977.0 L 593.0,1001.0 L 505.0,971.0"/>
    <path d="M 475.0,845.0 L 467.0,874.0 L 415.0,970.0"/>
    <path d="M 721.0,839.0 L 813.0,899.0 L 842.0,954.0"/>
  </g>
</svg>
