<svg xmlns="http://www.w3.org/2000/svg" viewBox="0 0 1024 1024">
  <g style="fill:none;stroke:#000000;stroke-width:50;stroke-linecap:round;stroke-linejoin:round;" transform="scale(1, 1) translate(0, 0)">
    <path d="M 111.0,502.0 L 146.0,506.0 L 182.0,501.0 L 320.0,459.0 L 365.0,457.0"/>
    <path d="M 236.0,246.0 L 261.0,262.0 L 281.0,290.0 L 271.0,421.0 L 267.0,903.0 L 247.0,948.0 L 130.0,905.0"/>
    <path d="M 63.0,772.0 L 109.0,777.0 L 358.0,607.0"/>
    <path d="M 569.0,219.0 L 657.0,262.0 L 686.0,297.0"/>
    <path d="M 500.0,424.0 L 535.0,433.0 L 581.0,428.0 L 764.0,378.0 L 798.0,372.0 L 821.0,375.0"/>
    <path d="M 439.0,408.0 L 471.0,438.0 L 475.0,461.0 L 469.0,588.0 L 450.0,711.0 L 422.0,812.0 L 391.0,883.0 L 332.0,981.0 L 303.0,1015.0"/>
    <path d="M 621.0,470.0 L 664.0,506.0 L 655.0,747.0 L 638.0,774.0"/>
    <path d="M 689.0,627.0 L 702.0,617.0 L 814.0,590.0 L 857.0,588.0"/>
    <path d="M 500.0,795.0 L 528.0,820.0 L 534.0,835.0 L 568.0,1029.0"/>
    <path d="M 557.0,801.0 L 567.0,809.0 L 581.0,809.0 L 754.0,767.0 L 783.0,769.0 L 817.0,797.0 L 788.0,900.0 L 764.0,918.0"/>
    <path d="M 589.0,984.0 L 602.0,969.0 L 753.0,946.0 L 800.0,944.0 L 826.0,953.0"/>
  </g>
</svg>
