<svg xmlns="http://www.w3.org/2000/svg" viewBox="0 0 1024 1024">
  <g style="fill:none;stroke:#000000;stroke-width:50;stroke-linecap:round;stroke-linejoin:round;" transform="scale(1, 1) translate(0, 0)">
    <path d="M 130.0,474.0 L 183.0,473.0 L 289.0,442.0 L 342.0,420.0 L 389.0,412.0 L 401.0,416.0"/>
    <path d="M 262.0,179.0 L 278.0,187.0 L 309.0,219.0 L 300.0,408.0 L 303.0,882.0 L 296.0,914.0 L 280.0,942.0 L 184.0,894.0 L 183.0,887.0 L 172.0,886.0"/>
    <path d="M 57.0,746.0 L 103.0,748.0 L 367.0,527.0"/>
    <path d="M 513.0,274.0 L 558.0,276.0 L 734.0,228.0 L 767.0,234.0 L 792.0,259.0 L 761.0,371.0 L 738.0,392.0"/>
    <path d="M 523.0,373.0 L 684.0,337.0 L 716.0,341.0"/>
    <path d="M 503.0,460.0 L 528.0,463.0 L 717.0,420.0 L 783.0,424.0"/>
    <path d="M 434.0,523.0 L 424.0,577.0 L 395.0,653.0"/>
    <path d="M 452.0,566.0 L 465.0,557.0 L 525.0,546.0 L 829.0,494.0 L 871.0,493.0 L 898.0,511.0 L 902.0,523.0 L 836.0,596.0"/>
    <path d="M 473.0,661.0 L 489.0,676.0 L 496.0,726.0 L 494.0,782.0 L 485.0,824.0 L 486.0,875.0"/>
    <path d="M 521.0,690.0 L 534.0,675.0 L 595.0,670.0 L 735.0,640.0 L 766.0,636.0 L 791.0,646.0 L 808.0,663.0 L 809.0,676.0 L 808.0,783.0 L 798.0,827.0 L 787.0,842.0 L 705.0,806.0"/>
    <path d="M 591.0,559.0 L 635.0,586.0 L 631.0,1096.0"/>
  </g>
</svg>
