<svg xmlns="http://www.w3.org/2000/svg" viewBox="0 0 1024 1024">
  <g style="fill:none;stroke:#000000;stroke-width:50;stroke-linecap:round;stroke-linejoin:round;" transform="scale(1, 1) translate(0, 0)">
    <path d="M 99.0,536.0 L 120.0,539.0 L 175.0,532.0 L 307.0,488.0 L 360.0,483.0"/>
    <path d="M 244.0,217.0 L 269.0,234.0 L 289.0,259.0 L 279.0,439.0 L 279.0,913.0 L 258.0,971.0 L 172.0,933.0 L 171.0,926.0 L 161.0,926.0"/>
    <path d="M 48.0,795.0 L 90.0,797.0 L 105.0,791.0 L 341.0,612.0"/>
    <path d="M 545.0,229.0 L 572.0,253.0 L 582.0,274.0 L 558.0,336.0 L 533.0,392.0 L 465.0,510.0 L 421.0,577.0 L 362.0,642.0"/>
    <path d="M 602.0,328.0 L 602.0,341.0 L 686.0,427.0 L 757.0,493.0 L 819.0,539.0 L 973.0,560.0"/>
    <path d="M 480.0,582.0 L 530.0,587.0 L 654.0,560.0 L 687.0,561.0"/>
    <path d="M 377.0,711.0 L 396.0,727.0 L 408.0,779.0 L 408.0,850.0 L 397.0,932.0 L 400.0,967.0"/>
    <path d="M 420.0,714.0 L 437.0,724.0 L 626.0,687.0 L 725.0,675.0 L 768.0,676.0 L 793.0,692.0 L 801.0,849.0 L 799.0,928.0 L 782.0,962.0 L 695.0,938.0"/>
    <path d="M 462.0,828.0 L 499.0,828.0 L 657.0,796.0 L 706.0,801.0"/>
    <path d="M 486.0,730.0 L 508.0,752.0 L 519.0,947.0"/>
    <path d="M 600.0,716.0 L 628.0,735.0 L 612.0,968.0"/>
  </g>
</svg>
