<svg xmlns="http://www.w3.org/2000/svg" viewBox="0 0 1024 1024">
  <g style="fill:none;stroke:#000000;stroke-width:50;stroke-linecap:round;stroke-linejoin:round;" transform="scale(1, 1) translate(0, 0)">
    <path d="M 127.0,520.0 L 186.0,521.0 L 343.0,471.0 L 392.0,467.0"/>
    <path d="M 276.0,214.0 L 301.0,230.0 L 320.0,256.0 L 309.0,452.0 L 303.0,921.0 L 280.0,977.0 L 241.0,960.0 L 192.0,926.0 L 191.0,919.0 L 180.0,918.0"/>
    <path d="M 64.0,813.0 L 111.0,816.0 L 369.0,604.0"/>
    <path d="M 752.0,266.0 L 687.0,255.0 L 622.0,299.0 L 506.0,346.0"/>
    <path d="M 475.0,402.0 L 527.0,452.0 L 539.0,484.0"/>
    <path d="M 608.0,379.0 L 655.0,442.0"/>
    <path d="M 814.0,330.0 L 831.0,362.0 L 725.0,462.0"/>
    <path d="M 448.0,525.0 L 456.0,569.0 L 425.0,644.0 L 422.0,672.0"/>
    <path d="M 485.0,552.0 L 507.0,560.0 L 565.0,543.0 L 731.0,513.0 L 747.0,515.0 L 754.0,509.0 L 811.0,508.0 L 837.0,522.0 L 848.0,538.0 L 785.0,611.0"/>
    <path d="M 500.0,684.0 L 551.0,684.0 L 676.0,653.0 L 696.0,662.0 L 709.0,682.0 L 680.0,782.0 L 653.0,832.0 L 609.0,885.0 L 533.0,930.0 L 489.0,945.0 L 401.0,962.0"/>
    <path d="M 488.0,742.0 L 526.0,759.0 L 659.0,895.0 L 779.0,984.0 L 850.0,997.0 L 945.0,1000.0"/>
  </g>
</svg>
