<svg xmlns="http://www.w3.org/2000/svg" viewBox="0 0 1024 1024">
  <g style="fill:none;stroke:#000000;stroke-width:50;stroke-linecap:round;stroke-linejoin:round;" transform="scale(1, 1) translate(0, 0)">
    <path d="M 132.0,480.0 L 191.0,484.0 L 378.0,431.0 L 428.0,432.0"/>
    <path d="M 277.0,202.0 L 294.0,210.0 L 325.0,242.0 L 313.0,557.0 L 316.0,902.0 L 309.0,934.0 L 293.0,962.0 L 193.0,914.0"/>
    <path d="M 51.0,804.0 L 101.0,806.0 L 239.0,685.0 L 404.0,555.0"/>
    <path d="M 786.0,233.0 L 718.0,217.0 L 653.0,254.0 L 608.0,272.0 L 494.0,306.0"/>
    <path d="M 463.0,370.0 L 513.0,421.0 L 520.0,453.0"/>
    <path d="M 593.0,342.0 L 626.0,383.0 L 639.0,413.0"/>
    <path d="M 769.0,311.0 L 791.0,341.0 L 694.0,471.0 L 680.0,477.0 L 674.0,489.0"/>
    <path d="M 486.0,529.0 L 547.0,530.0 L 638.0,515.0 L 779.0,481.0 L 808.0,486.0 L 829.0,502.0 L 838.0,520.0 L 794.0,678.0 L 771.0,693.0"/>
    <path d="M 397.0,664.0 L 450.0,670.0 L 717.0,621.0 L 893.0,599.0 L 939.0,598.0 L 997.0,612.0"/>
    <path d="M 493.0,758.0 L 507.0,763.0 L 761.0,722.0 L 810.0,722.0 L 832.0,729.0"/>
    <path d="M 602.0,541.0 L 626.0,555.0 L 646.0,588.0 L 644.0,720.0 L 652.0,977.0 L 643.0,1015.0 L 629.0,1036.0 L 585.0,1026.0 L 520.0,997.0"/>
  </g>
</svg>
