<svg xmlns="http://www.w3.org/2000/svg" viewBox="0 0 1024 1024">
  <g style="fill:none;stroke:#000000;stroke-width:50;stroke-linecap:round;stroke-linejoin:round;" transform="scale(1, 1) translate(0, 0)">
    <path d="M 115.0,512.0 L 171.0,513.0 L 322.0,469.0 L 370.0,467.0"/>
    <path d="M 249.0,190.0 L 266.0,198.0 L 297.0,230.0 L 286.0,424.0 L 284.0,907.0 L 278.0,938.0 L 262.0,969.0 L 162.0,925.0 L 160.0,918.0 L 149.0,918.0"/>
    <path d="M 49.0,781.0 L 97.0,785.0 L 186.0,715.0 L 358.0,596.0"/>
    <path d="M 549.0,215.0 L 639.0,259.0 L 668.0,293.0"/>
    <path d="M 410.0,409.0 L 447.0,416.0 L 511.0,411.0 L 748.0,358.0 L 799.0,349.0 L 832.0,350.0"/>
    <path d="M 489.0,442.0 L 518.0,470.0 L 498.0,514.0 L 419.0,639.0 L 372.0,697.0 L 332.0,735.0"/>
    <path d="M 442.0,640.0 L 454.0,687.0 L 450.0,844.0 L 440.0,943.0 L 443.0,1019.0"/>
    <path d="M 639.0,443.0 L 665.0,473.0 L 660.0,497.0 L 583.0,627.0 L 564.0,650.0 L 549.0,652.0"/>
    <path d="M 640.0,585.0 L 666.0,570.0 L 734.0,547.0 L 776.0,556.0 L 763.0,623.0 L 742.0,688.0 L 691.0,792.0 L 652.0,837.0 L 603.0,875.0 L 526.0,909.0 L 500.0,910.0"/>
    <path d="M 606.0,631.0 L 632.0,641.0 L 667.0,674.0"/>
    <path d="M 519.0,671.0 L 556.0,685.0 L 708.0,847.0 L 820.0,943.0 L 869.0,957.0 L 988.0,966.0"/>
  </g>
</svg>
