<svg xmlns="http://www.w3.org/2000/svg" viewBox="0 0 1024 1024">
  <g style="fill:none;stroke:#000000;stroke-width:50;stroke-linecap:round;stroke-linejoin:round;" transform="scale(1, 1) translate(0, 0)">
    <path d="M 111.0,484.0 L 168.0,485.0 L 311.0,443.0 L 366.0,439.0"/>
    <path d="M 248.0,234.0 L 288.0,265.0 L 293.0,279.0 L 280.0,563.0 L 280.0,891.0 L 273.0,921.0 L 258.0,949.0 L 145.0,897.0"/>
    <path d="M 54.0,769.0 L 80.0,772.0 L 106.0,766.0 L 228.0,671.0 L 354.0,584.0"/>
    <path d="M 443.0,299.0 L 455.0,327.0 L 454.0,346.0 L 421.0,433.0 L 419.0,462.0"/>
    <path d="M 484.0,331.0 L 505.0,339.0 L 531.0,336.0 L 589.0,319.0 L 762.0,291.0 L 792.0,300.0 L 813.0,326.0 L 753.0,403.0"/>
    <path d="M 518.0,432.0 L 536.0,466.0 L 482.0,535.0 L 437.0,568.0"/>
    <path d="M 656.0,422.0 L 723.0,466.0 L 751.0,508.0"/>
    <path d="M 403.0,665.0 L 457.0,672.0 L 745.0,620.0 L 789.0,618.0 L 822.0,624.0"/>
    <path d="M 580.0,533.0 L 610.0,571.0 L 595.0,956.0 L 606.0,1034.0"/>
    <path d="M 580.0,679.0 L 571.0,686.0 L 559.0,734.0 L 513.0,792.0 L 433.0,871.0 L 342.0,934.0"/>
    <path d="M 636.0,671.0 L 643.0,700.0 L 674.0,738.0 L 758.0,831.0 L 807.0,876.0 L 834.0,888.0 L 961.0,916.0"/>
  </g>
</svg>
