<svg xmlns="http://www.w3.org/2000/svg" viewBox="0 0 1024 1024">
  <g style="fill:none;stroke:#000000;stroke-width:50;stroke-linecap:round;stroke-linejoin:round;" transform="scale(1, 1) translate(0, 0)">
    <path d="M 288.0,220.0 L 303.0,251.0 L 287.0,282.0 L 247.0,334.0 L 205.0,364.0"/>
    <path d="M 299.0,306.0 L 322.0,295.0 L 380.0,290.0 L 469.0,270.0 L 515.0,270.0"/>
    <path d="M 139.0,403.0 L 179.0,410.0 L 214.0,407.0 L 346.0,373.0 L 489.0,347.0 L 540.0,350.0"/>
    <path d="M 241.0,445.0 L 268.0,482.0 L 269.0,560.0 L 278.0,592.0"/>
    <path d="M 282.0,453.0 L 297.0,460.0 L 392.0,445.0 L 429.0,433.0 L 498.0,426.0 L 506.0,431.0 L 517.0,445.0 L 517.0,495.0 L 511.0,530.0 L 502.0,543.0 L 432.0,515.0"/>
    <path d="M 373.0,188.0 L 398.0,215.0 L 391.0,582.0"/>
    <path d="M 597.0,279.0 L 618.0,311.0 L 613.0,466.0"/>
    <path d="M 715.0,195.0 L 757.0,238.0 L 757.0,501.0 L 739.0,546.0 L 716.0,541.0 L 649.0,506.0"/>
    <path d="M 639.0,607.0 L 583.0,590.0 L 499.0,629.0 L 421.0,651.0 L 399.0,651.0 L 387.0,659.0 L 372.0,654.0 L 360.0,663.0"/>
    <path d="M 323.0,729.0 L 363.0,737.0 L 411.0,736.0 L 565.0,716.0 L 645.0,699.0 L 684.0,702.0"/>
    <path d="M 153.0,847.0 L 208.0,864.0 L 412.0,832.0 L 826.0,795.0 L 889.0,811.0 L 918.0,828.0"/>
    <path d="M 490.0,653.0 L 522.0,677.0 L 533.0,757.0 L 538.0,929.0 L 525.0,1000.0 L 501.0,1036.0 L 396.0,968.0"/>
  </g>
</svg>
