<svg xmlns="http://www.w3.org/2000/svg" viewBox="0 0 1024 1024">
  <g style="fill:none;stroke:#000000;stroke-width:50;stroke-linecap:round;stroke-linejoin:round;" transform="scale(1, 1) translate(0, 0)">
    <path d="M 115.0,494.0 L 162.0,494.0 L 312.0,449.0 L 358.0,446.0"/>
    <path d="M 240.0,234.0 L 265.0,250.0 L 285.0,277.0 L 273.0,575.0 L 275.0,891.0 L 253.0,946.0 L 221.0,937.0 L 137.0,893.0"/>
    <path d="M 54.0,771.0 L 98.0,773.0 L 186.0,698.0 L 339.0,583.0"/>
    <path d="M 380.0,298.0 L 436.0,347.0 L 451.0,382.0"/>
    <path d="M 588.0,238.0 L 610.0,265.0 L 520.0,398.0"/>
    <path d="M 383.0,486.0 L 446.0,485.0 L 549.0,451.0 L 584.0,444.0 L 609.0,447.0"/>
    <path d="M 330.0,655.0 L 384.0,656.0 L 595.0,599.0 L 637.0,603.0"/>
    <path d="M 463.0,503.0 L 491.0,526.0 L 493.0,545.0 L 483.0,646.0 L 459.0,733.0 L 435.0,780.0 L 399.0,824.0 L 353.0,860.0 L 307.0,878.0"/>
    <path d="M 504.0,703.0 L 506.0,714.0 L 589.0,780.0 L 607.0,823.0"/>
    <path d="M 718.0,407.0 L 736.0,409.0 L 800.0,377.0 L 839.0,368.0 L 867.0,390.0 L 854.0,429.0 L 816.0,503.0 L 809.0,543.0 L 883.0,619.0 L 908.0,661.0 L 923.0,710.0 L 918.0,764.0 L 906.0,786.0 L 886.0,802.0 L 766.0,752.0"/>
    <path d="M 648.0,397.0 L 671.0,410.0 L 693.0,439.0 L 691.0,1053.0"/>
  </g>
</svg>
