<svg xmlns="http://www.w3.org/2000/svg" viewBox="0 0 1024 1024">
  <g style="fill:none;stroke:#000000;stroke-width:50;stroke-linecap:round;stroke-linejoin:round;" transform="scale(1, 1) translate(0, 0)">
    <path d="M 115.0,500.0 L 170.0,500.0 L 340.0,447.0 L 380.0,441.0 L 392.0,445.0"/>
    <path d="M 250.0,223.0 L 277.0,240.0 L 297.0,262.0 L 290.0,434.0 L 296.0,888.0 L 291.0,919.0 L 275.0,951.0 L 158.0,909.0"/>
    <path d="M 62.0,781.0 L 108.0,784.0 L 374.0,584.0"/>
    <path d="M 511.0,241.0 L 531.0,278.0 L 531.0,329.0 L 494.0,492.0 L 523.0,494.0 L 595.0,477.0 L 694.0,464.0 L 713.0,450.0"/>
    <path d="M 551.0,256.0 L 566.0,264.0 L 580.0,262.0 L 624.0,247.0 L 744.0,226.0 L 773.0,232.0 L 789.0,249.0 L 793.0,267.0 L 752.0,435.0 L 736.0,476.0 L 718.0,479.0"/>
    <path d="M 625.0,268.0 L 645.0,292.0 L 624.0,429.0 L 605.0,453.0"/>
    <path d="M 392.0,392.0 L 437.0,400.0 L 565.0,377.0 L 835.0,343.0 L 868.0,343.0 L 923.0,358.0"/>
    <path d="M 481.0,569.0 L 503.0,595.0 L 510.0,613.0 L 511.0,716.0 L 500.0,827.0 L 505.0,875.0"/>
    <path d="M 529.0,577.0 L 537.0,585.0 L 553.0,587.0 L 711.0,548.0 L 734.0,559.0 L 751.0,580.0 L 746.0,653.0 L 748.0,805.0 L 739.0,876.0"/>
    <path d="M 580.0,630.0 L 622.0,656.0 L 630.0,674.0 L 626.0,786.0 L 602.0,876.0 L 576.0,921.0 L 540.0,955.0 L 477.0,991.0 L 407.0,1014.0"/>
    <path d="M 687.0,910.0 L 803.0,977.0 L 834.0,1008.0 L 850.0,1041.0"/>
  </g>
</svg>
