<svg xmlns="http://www.w3.org/2000/svg" viewBox="0 0 1024 1024">
  <g style="fill:none;stroke:#000000;stroke-width:50;stroke-linecap:round;stroke-linejoin:round;" transform="scale(1, 1) translate(0, 0)">
    <path d="M 111.0,515.0 L 178.0,513.0 L 311.0,471.0 L 365.0,464.0"/>
    <path d="M 248.0,190.0 L 273.0,206.0 L 293.0,229.0 L 284.0,425.0 L 286.0,870.0 L 280.0,900.0 L 266.0,927.0 L 180.0,889.0 L 179.0,882.0 L 169.0,882.0"/>
    <path d="M 40.0,781.0 L 91.0,780.0 L 230.0,667.0 L 382.0,558.0"/>
    <path d="M 488.0,339.0 L 516.0,344.0 L 571.0,339.0 L 662.0,319.0 L 720.0,299.0 L 778.0,297.0"/>
    <path d="M 408.0,460.0 L 429.0,477.0 L 442.0,499.0 L 484.0,674.0"/>
    <path d="M 450.0,461.0 L 473.0,470.0 L 724.0,415.0 L 781.0,406.0 L 822.0,412.0 L 851.0,449.0 L 782.0,635.0"/>
    <path d="M 528.0,525.0 L 561.0,551.0 L 574.0,570.0"/>
    <path d="M 727.0,474.0 L 741.0,495.0 L 679.0,567.0"/>
    <path d="M 499.0,665.0 L 519.0,655.0 L 761.0,608.0"/>
    <path d="M 581.0,164.0 L 634.0,218.0 L 632.0,735.0 L 617.0,965.0 L 619.0,1057.0"/>
    <path d="M 646.0,654.0 L 600.0,683.0 L 542.0,765.0 L 455.0,856.0 L 354.0,926.0"/>
    <path d="M 657.0,667.0 L 664.0,691.0 L 725.0,764.0 L 827.0,864.0 L 874.0,880.0 L 977.0,899.0"/>
  </g>
</svg>
