<svg xmlns="http://www.w3.org/2000/svg" viewBox="0 0 1024 1024">
  <g style="fill:none;stroke:#000000;stroke-width:50;stroke-linecap:round;stroke-linejoin:round;" transform="scale(1, 1) translate(0, 0)">
    <path d="M 115.0,478.0 L 187.0,475.0 L 313.0,435.0 L 369.0,429.0"/>
    <path d="M 240.0,218.0 L 265.0,234.0 L 285.0,261.0 L 277.0,393.0 L 276.0,914.0 L 256.0,957.0 L 227.0,947.0 L 157.0,909.0 L 155.0,902.0 L 145.0,901.0"/>
    <path d="M 51.0,770.0 L 94.0,772.0 L 340.0,583.0"/>
    <path d="M 565.0,200.0 L 588.0,236.0 L 544.0,315.0 L 507.0,358.0 L 490.0,401.0 L 520.0,404.0 L 665.0,371.0 L 696.0,374.0"/>
    <path d="M 651.0,294.0 L 726.0,362.0 L 741.0,398.0"/>
    <path d="M 380.0,552.0 L 431.0,557.0 L 613.0,519.0 L 776.0,494.0 L 813.0,495.0 L 860.0,506.0"/>
    <path d="M 545.0,422.0 L 569.0,454.0 L 540.0,529.0 L 506.0,591.0 L 462.0,648.0 L 410.0,697.0 L 364.0,732.0 L 315.0,758.0"/>
    <path d="M 640.0,541.0 L 666.0,557.0 L 746.0,629.0 L 817.0,677.0 L 890.0,692.0 L 974.0,698.0"/>
    <path d="M 579.0,608.0 L 597.0,638.0 L 566.0,690.0 L 494.0,767.0 L 427.0,808.0"/>
    <path d="M 639.0,688.0 L 657.0,718.0 L 620.0,777.0 L 552.0,850.0 L 484.0,899.0 L 459.0,906.0 L 455.0,913.0"/>
    <path d="M 689.0,771.0 L 703.0,785.0 L 716.0,813.0 L 666.0,896.0 L 581.0,995.0 L 519.0,1044.0 L 468.0,1075.0"/>
  </g>
</svg>
