<svg xmlns="http://www.w3.org/2000/svg" viewBox="0 0 1024 1024">
  <g style="fill:none;stroke:#000000;stroke-width:50;stroke-linecap:round;stroke-linejoin:round;" transform="scale(1, 1) translate(0, 0)">
    <path d="M 119.0,492.0 L 189.0,491.0 L 340.0,445.0 L 406.0,439.0"/>
    <path d="M 261.0,198.0 L 278.0,206.0 L 309.0,241.0 L 298.0,430.0 L 297.0,911.0 L 290.0,943.0 L 274.0,973.0 L 170.0,929.0 L 168.0,922.0 L 157.0,922.0"/>
    <path d="M 55.0,785.0 L 101.0,786.0 L 243.0,671.0 L 377.0,575.0"/>
    <path d="M 472.0,281.0 L 503.0,319.0 L 541.0,529.0"/>
    <path d="M 511.0,280.0 L 534.0,288.0 L 701.0,253.0 L 729.0,256.0 L 751.0,277.0 L 760.0,290.0 L 707.0,479.0 L 707.0,508.0"/>
    <path d="M 543.0,405.0 L 570.0,390.0 L 600.0,383.0 L 630.0,378.0 L 661.0,382.0"/>
    <path d="M 561.0,514.0 L 576.0,499.0 L 655.0,484.0 L 673.0,473.0"/>
    <path d="M 388.0,637.0 L 431.0,642.0 L 530.0,619.0 L 805.0,576.0 L 877.0,589.0"/>
    <path d="M 586.0,628.0 L 615.0,655.0 L 614.0,820.0 L 617.0,839.0 L 632.0,865.0"/>
    <path d="M 646.0,752.0 L 659.0,742.0 L 742.0,724.0 L 788.0,725.0"/>
    <path d="M 445.0,713.0 L 473.0,745.0 L 449.0,821.0 L 401.0,904.0 L 349.0,957.0"/>
    <path d="M 499.0,785.0 L 505.0,806.0 L 612.0,886.0 L 729.0,955.0 L 781.0,979.0 L 833.0,986.0 L 962.0,974.0"/>
  </g>
</svg>
