<svg xmlns="http://www.w3.org/2000/svg" viewBox="0 0 1024 1024">
  <g style="fill:none;stroke:#000000;stroke-width:50;stroke-linecap:round;stroke-linejoin:round;" transform="scale(1, 1) translate(0, 0)">
    <path d="M 127.0,512.0 L 181.0,512.0 L 333.0,469.0 L 373.0,467.0"/>
    <path d="M 261.0,230.0 L 278.0,238.0 L 309.0,269.0 L 298.0,447.0 L 296.0,923.0 L 289.0,954.0 L 272.0,984.0 L 165.0,933.0 L 164.0,926.0 L 153.0,926.0"/>
    <path d="M 65.0,773.0 L 112.0,777.0 L 358.0,600.0"/>
    <path d="M 571.0,249.0 L 652.0,294.0 L 681.0,331.0"/>
    <path d="M 445.0,412.0 L 458.0,445.0 L 458.0,462.0 L 428.0,555.0 L 426.0,583.0"/>
    <path d="M 485.0,446.0 L 501.0,454.0 L 533.0,453.0 L 614.0,430.0 L 733.0,407.0 L 779.0,400.0 L 813.0,402.0 L 836.0,411.0 L 856.0,435.0 L 790.0,520.0"/>
    <path d="M 524.0,559.0 L 578.0,563.0 L 686.0,539.0 L 728.0,540.0"/>
    <path d="M 471.0,667.0 L 496.0,691.0 L 500.0,704.0 L 525.0,881.0"/>
    <path d="M 530.0,693.0 L 553.0,679.0 L 696.0,650.0 L 732.0,649.0 L 754.0,657.0 L 775.0,682.0 L 739.0,827.0 L 727.0,855.0 L 731.0,873.0"/>
    <path d="M 539.0,782.0 L 549.0,773.0 L 610.0,758.0 L 663.0,761.0"/>
    <path d="M 543.0,865.0 L 556.0,855.0 L 579.0,850.0 L 698.0,835.0"/>
    <path d="M 395.0,975.0 L 446.0,985.0 L 619.0,961.0 L 828.0,944.0 L 910.0,966.0"/>
  </g>
</svg>
