<svg xmlns="http://www.w3.org/2000/svg" viewBox="0 0 1024 1024">
  <g style="fill:none;stroke:#000000;stroke-width:50;stroke-linecap:round;stroke-linejoin:round;" transform="scale(1, 1) translate(0, 0)">
    <path d="M 116.0,522.0 L 182.0,523.0 L 336.0,478.0 L 394.0,473.0"/>
    <path d="M 257.0,238.0 L 274.0,246.0 L 305.0,278.0 L 290.0,656.0 L 292.0,907.0 L 286.0,938.0 L 270.0,969.0 L 170.0,925.0 L 168.0,918.0 L 157.0,918.0"/>
    <path d="M 61.0,804.0 L 105.0,807.0 L 200.0,730.0 L 382.0,600.0"/>
    <path d="M 583.0,197.0 L 608.0,232.0 L 602.0,256.0 L 544.0,351.0 L 495.0,410.0 L 459.0,443.0"/>
    <path d="M 589.0,333.0 L 701.0,321.0 L 733.0,335.0 L 683.0,414.0 L 623.0,486.0"/>
    <path d="M 425.0,513.0 L 455.0,537.0 L 467.0,558.0 L 486.0,704.0 L 490.0,722.0 L 503.0,730.0"/>
    <path d="M 479.0,519.0 L 501.0,528.0 L 754.0,469.0 L 801.0,468.0 L 828.0,494.0 L 832.0,506.0 L 798.0,666.0 L 769.0,694.0"/>
    <path d="M 563.0,556.0 L 577.0,575.0 L 577.0,584.0 L 541.0,634.0 L 522.0,654.0 L 510.0,656.0 L 506.0,665.0"/>
    <path d="M 649.0,512.0 L 670.0,525.0 L 664.0,592.0 L 675.0,618.0 L 697.0,630.0 L 734.0,634.0 L 755.0,628.0 L 773.0,610.0"/>
    <path d="M 368.0,760.0 L 406.0,768.0 L 430.0,766.0 L 576.0,741.0 L 871.0,707.0 L 932.0,711.0 L 965.0,722.0"/>
    <path d="M 593.0,684.0 L 614.0,712.0 L 615.0,734.0 L 578.0,831.0 L 548.0,879.0 L 512.0,919.0 L 465.0,953.0 L 419.0,975.0 L 367.0,989.0"/>
    <path d="M 642.0,767.0 L 642.0,782.0 L 713.0,861.0 L 825.0,967.0 L 973.0,996.0"/>
  </g>
</svg>
