<svg xmlns="http://www.w3.org/2000/svg" viewBox="0 0 1024 1024">
  <g style="fill:none;stroke:#000000;stroke-width:50;stroke-linecap:round;stroke-linejoin:round;" transform="scale(1, 1) translate(0, 0)">
    <path d="M 148.0,482.0 L 204.0,487.0 L 366.0,446.0 L 411.0,445.0"/>
    <path d="M 280.0,230.0 L 305.0,246.0 L 325.0,272.0 L 312.0,614.0 L 315.0,883.0 L 309.0,913.0 L 294.0,941.0 L 181.0,889.0"/>
    <path d="M 80.0,764.0 L 129.0,767.0 L 390.0,568.0"/>
    <path d="M 561.0,220.0 L 659.0,270.0 L 677.0,293.0"/>
    <path d="M 494.0,410.0 L 552.0,416.0 L 672.0,396.0 L 774.0,371.0 L 816.0,373.0"/>
    <path d="M 504.0,487.0 L 548.0,535.0 L 557.0,555.0"/>
    <path d="M 703.0,414.0 L 726.0,434.0 L 733.0,453.0 L 690.0,545.0 L 658.0,590.0"/>
    <path d="M 401.0,636.0 L 454.0,643.0 L 509.0,631.0 L 843.0,588.0 L 898.0,593.0 L 929.0,604.0"/>
    <path d="M 485.0,713.0 L 514.0,740.0 L 519.0,763.0 L 519.0,849.0 L 504.0,956.0 L 506.0,1002.0"/>
    <path d="M 542.0,722.0 L 564.0,729.0 L 718.0,693.0 L 735.0,699.0 L 759.0,721.0 L 763.0,938.0 L 749.0,977.0 L 753.0,1035.0"/>
    <path d="M 550.0,849.0 L 557.0,837.0 L 607.0,826.0 L 649.0,820.0 L 680.0,825.0"/>
    <path d="M 535.0,970.0 L 549.0,959.0 L 574.0,954.0 L 664.0,941.0 L 709.0,943.0"/>
  </g>
</svg>
