<svg xmlns="http://www.w3.org/2000/svg" viewBox="0 0 1024 1024">
  <g style="fill:none;stroke:#000000;stroke-width:50;stroke-linecap:round;stroke-linejoin:round;" transform="scale(1, 1) translate(0, 0)">
    <path d="M 126.0,522.0 L 190.0,518.0 L 312.0,472.0 L 365.0,467.0"/>
    <path d="M 240.0,213.0 L 265.0,230.0 L 285.0,255.0 L 275.0,458.0 L 276.0,914.0 L 255.0,972.0 L 157.0,929.0"/>
    <path d="M 52.0,809.0 L 97.0,812.0 L 351.0,608.0"/>
    <path d="M 586.0,224.0 L 623.0,259.0 L 612.0,409.0 L 596.0,429.0"/>
    <path d="M 453.0,358.0 L 478.0,397.0 L 472.0,478.0 L 508.0,478.0 L 587.0,455.0 L 713.0,434.0 L 726.0,431.0 L 734.0,419.0"/>
    <path d="M 780.0,283.0 L 802.0,327.0 L 754.0,478.0"/>
    <path d="M 445.0,607.0 L 468.0,613.0 L 520.0,610.0 L 695.0,567.0 L 760.0,560.0"/>
    <path d="M 586.0,645.0 L 572.0,642.0 L 561.0,648.0 L 537.0,696.0 L 512.0,721.0"/>
    <path d="M 358.0,740.0 L 381.0,764.0 L 392.0,789.0 L 399.0,931.0 L 408.0,965.0"/>
    <path d="M 403.0,752.0 L 427.0,762.0 L 585.0,722.0 L 810.0,696.0 L 842.0,731.0 L 831.0,781.0 L 819.0,900.0 L 805.0,954.0 L 788.0,976.0 L 704.0,939.0"/>
    <path d="M 498.0,765.0 L 524.0,788.0 L 530.0,927.0"/>
    <path d="M 617.0,736.0 L 648.0,763.0 L 642.0,967.0"/>
  </g>
</svg>
