<svg xmlns="http://www.w3.org/2000/svg" viewBox="0 0 1024 1024">
  <g style="fill:none;stroke:#000000;stroke-width:50;stroke-linecap:round;stroke-linejoin:round;" transform="scale(1, 1) translate(0, 0)">
    <path d="M 107.0,532.0 L 136.0,535.0 L 190.0,525.0 L 320.0,482.0 L 376.0,475.0"/>
    <path d="M 248.0,254.0 L 288.0,286.0 L 293.0,302.0 L 285.0,464.0 L 286.0,909.0 L 265.0,955.0 L 145.0,905.0"/>
    <path d="M 63.0,780.0 L 95.0,786.0 L 113.0,783.0 L 368.0,611.0"/>
    <path d="M 384.0,415.0 L 426.0,422.0 L 472.0,418.0 L 784.0,364.0 L 820.0,363.0 L 850.0,370.0"/>
    <path d="M 553.0,260.0 L 573.0,267.0 L 592.0,286.0 L 613.0,539.0"/>
    <path d="M 706.0,203.0 L 741.0,237.0 L 741.0,247.0 L 717.0,449.0 L 703.0,462.0"/>
    <path d="M 630.0,507.0 L 698.0,488.0 L 725.0,487.0 L 748.0,495.0"/>
    <path d="M 440.0,305.0 L 475.0,332.0 L 488.0,364.0 L 489.0,590.0 L 494.0,611.0 L 538.0,612.0 L 763.0,579.0 L 812.0,593.0"/>
    <path d="M 377.0,764.0 L 430.0,770.0 L 526.0,750.0 L 827.0,708.0 L 871.0,712.0 L 909.0,724.0"/>
    <path d="M 598.0,645.0 L 617.0,663.0 L 626.0,685.0 L 624.0,904.0 L 617.0,987.0 L 629.0,1063.0"/>
    <path d="M 595.0,765.0 L 576.0,810.0 L 511.0,886.0 L 458.0,928.0 L 376.0,971.0"/>
    <path d="M 653.0,764.0 L 661.0,790.0 L 737.0,867.0 L 810.0,929.0 L 856.0,941.0 L 943.0,949.0"/>
  </g>
</svg>
