<svg xmlns="http://www.w3.org/2000/svg" viewBox="0 0 1024 1024">
  <g style="fill:none;stroke:#000000;stroke-width:50;stroke-linecap:round;stroke-linejoin:round;" transform="scale(1, 1) translate(0, 0)">
    <path d="M 119.0,478.0 L 172.0,479.0 L 236.0,466.0 L 353.0,427.0 L 400.0,427.0"/>
    <path d="M 260.0,214.0 L 285.0,230.0 L 305.0,257.0 L 291.0,568.0 L 292.0,887.0 L 285.0,917.0 L 270.0,945.0 L 244.0,938.0 L 161.0,897.0"/>
    <path d="M 58.0,772.0 L 105.0,777.0 L 379.0,584.0"/>
    <path d="M 447.0,258.0 L 473.0,279.0 L 482.0,302.0 L 520.0,490.0"/>
    <path d="M 505.0,262.0 L 518.0,273.0 L 688.0,249.0 L 735.0,251.0 L 750.0,259.0 L 769.0,289.0 L 711.0,471.0"/>
    <path d="M 526.0,370.0 L 532.0,362.0 L 614.0,351.0 L 656.0,355.0"/>
    <path d="M 537.0,469.0 L 588.0,453.0 L 692.0,443.0"/>
    <path d="M 486.0,518.0 L 503.0,545.0 L 468.0,603.0 L 417.0,656.0 L 368.0,688.0"/>
    <path d="M 495.0,604.0 L 792.0,561.0 L 819.0,571.0 L 846.0,600.0 L 829.0,818.0 L 814.0,904.0 L 793.0,965.0 L 764.0,1006.0 L 746.0,1017.0 L 652.0,953.0"/>
    <path d="M 627.0,619.0 L 602.0,633.0 L 589.0,680.0 L 562.0,730.0 L 505.0,789.0 L 487.0,799.0"/>
    <path d="M 593.0,719.0 L 608.0,716.0 L 670.0,742.0 L 705.0,768.0 L 716.0,785.0"/>
    <path d="M 406.0,716.0 L 426.0,731.0 L 439.0,751.0 L 430.0,885.0 L 550.0,867.0 L 638.0,861.0 L 697.0,860.0 L 745.0,878.0"/>
  </g>
</svg>
