<svg xmlns="http://www.w3.org/2000/svg" viewBox="0 0 1024 1024">
  <g style="fill:none;stroke:#000000;stroke-width:50;stroke-linecap:round;stroke-linejoin:round;" transform="scale(1, 1) translate(0, 0)">
    <path d="M 135.0,498.0 L 194.0,500.0 L 355.0,451.0 L 401.0,449.0"/>
    <path d="M 268.0,241.0 L 293.0,258.0 L 313.0,285.0 L 301.0,597.0 L 304.0,899.0 L 298.0,929.0 L 282.0,958.0 L 169.0,913.0"/>
    <path d="M 71.0,760.0 L 121.0,764.0 L 225.0,690.0 L 382.0,591.0"/>
    <path d="M 451.0,405.0 L 499.0,414.0 L 789.0,376.0 L 845.0,384.0"/>
    <path d="M 592.0,211.0 L 611.0,222.0 L 635.0,251.0 L 622.0,588.0 L 629.0,632.0"/>
    <path d="M 601.0,430.0 L 577.0,478.0 L 529.0,539.0 L 478.0,587.0 L 392.0,640.0"/>
    <path d="M 655.0,422.0 L 682.0,458.0 L 738.0,514.0 L 795.0,562.0 L 857.0,582.0 L 955.0,596.0"/>
    <path d="M 463.0,696.0 L 494.0,734.0 L 525.0,921.0"/>
    <path d="M 502.0,697.0 L 526.0,705.0 L 593.0,689.0 L 719.0,671.0 L 764.0,681.0 L 783.0,705.0 L 750.0,849.0 L 734.0,885.0 L 711.0,874.0"/>
    <path d="M 534.0,808.0 L 566.0,795.0 L 622.0,786.0 L 667.0,782.0 L 688.0,787.0"/>
    <path d="M 544.0,904.0 L 577.0,892.0 L 635.0,885.0 L 685.0,882.0 L 699.0,891.0"/>
    <path d="M 398.0,1009.0 L 452.0,1018.0 L 586.0,1000.0 L 832.0,986.0 L 902.0,1008.0"/>
  </g>
</svg>
