<svg xmlns="http://www.w3.org/2000/svg" viewBox="0 0 1024 1024">
  <g style="fill:none;stroke:#000000;stroke-width:50;stroke-linecap:round;stroke-linejoin:round;" transform="scale(1, 1) translate(0, 0)">
    <path d="M 124.0,510.0 L 156.0,514.0 L 198.0,509.0 L 336.0,471.0 L 386.0,469.0"/>
    <path d="M 262.0,254.0 L 278.0,262.0 L 309.0,294.0 L 299.0,429.0 L 295.0,899.0 L 289.0,930.0 L 273.0,959.0 L 245.0,950.0 L 174.0,910.0 L 172.0,903.0 L 161.0,902.0"/>
    <path d="M 64.0,798.0 L 111.0,800.0 L 367.0,600.0"/>
    <path d="M 464.0,352.0 L 512.0,393.0 L 523.0,414.0"/>
    <path d="M 739.0,274.0 L 757.0,305.0 L 669.0,394.0"/>
    <path d="M 427.0,487.0 L 484.0,491.0 L 748.0,439.0 L 807.0,442.0"/>
    <path d="M 572.0,211.0 L 599.0,230.0 L 616.0,255.0 L 605.0,475.0 L 609.0,660.0"/>
    <path d="M 582.0,499.0 L 505.0,602.0 L 445.0,653.0 L 384.0,688.0"/>
    <path d="M 630.0,488.0 L 693.0,552.0 L 775.0,617.0 L 822.0,631.0 L 929.0,641.0"/>
    <path d="M 547.0,680.0 L 563.0,694.0 L 574.0,718.0 L 517.0,858.0 L 524.0,867.0 L 642.0,924.0 L 712.0,967.0 L 757.0,1001.0 L 795.0,1049.0"/>
    <path d="M 649.0,725.0 L 680.0,753.0 L 673.0,806.0 L 647.0,873.0 L 606.0,934.0 L 563.0,970.0 L 499.0,1000.0 L 453.0,1013.0 L 399.0,1019.0"/>
    <path d="M 368.0,796.0 L 404.0,804.0 L 430.0,802.0 L 596.0,775.0 L 832.0,750.0 L 876.0,755.0 L 909.0,766.0"/>
  </g>
</svg>
