<svg xmlns="http://www.w3.org/2000/svg" viewBox="0 0 1024 1024">
  <g style="fill:none;stroke:#000000;stroke-width:50;stroke-linecap:round;stroke-linejoin:round;" transform="scale(1, 1) translate(0, 0)">
    <path d="M 119.0,476.0 L 181.0,476.0 L 342.0,429.0 L 386.0,427.0"/>
    <path d="M 266.0,199.0 L 293.0,216.0 L 313.0,238.0 L 306.0,505.0 L 312.0,904.0 L 306.0,935.0 L 289.0,967.0 L 243.0,953.0 L 174.0,920.0 L 172.0,914.0 L 162.0,914.0"/>
    <path d="M 62.0,761.0 L 109.0,763.0 L 252.0,654.0 L 375.0,571.0"/>
    <path d="M 581.0,193.0 L 597.0,212.0 L 600.0,236.0 L 549.0,305.0 L 460.0,385.0"/>
    <path d="M 577.0,309.0 L 691.0,282.0 L 720.0,289.0 L 722.0,299.0 L 714.0,314.0 L 664.0,381.0 L 633.0,400.0"/>
    <path d="M 420.0,438.0 L 439.0,452.0 L 455.0,479.0 L 484.0,598.0"/>
    <path d="M 466.0,436.0 L 489.0,446.0 L 622.0,423.0 L 715.0,399.0 L 747.0,397.0 L 761.0,404.0 L 779.0,432.0 L 755.0,490.0 L 732.0,501.0"/>
    <path d="M 500.0,577.0 L 515.0,566.0 L 717.0,532.0 L 770.0,533.0 L 781.0,539.0"/>
    <path d="M 575.0,448.0 L 593.0,461.0 L 599.0,479.0 L 573.0,585.0 L 545.0,644.0 L 474.0,730.0 L 411.0,775.0 L 368.0,793.0"/>
    <path d="M 648.0,566.0 L 679.0,591.0 L 672.0,643.0 L 675.0,683.0 L 686.0,714.0 L 703.0,732.0 L 735.0,743.0 L 832.0,745.0 L 897.0,727.0 L 903.0,693.0 L 902.0,605.0"/>
    <path d="M 559.0,767.0 L 630.0,808.0 L 651.0,829.0"/>
    <path d="M 545.0,903.0 L 653.0,975.0 L 680.0,1003.0 L 698.0,1042.0"/>
  </g>
</svg>
