<svg xmlns="http://www.w3.org/2000/svg" viewBox="0 0 1024 1024">
  <g style="fill:none;stroke:#000000;stroke-width:50;stroke-linecap:round;stroke-linejoin:round;" transform="scale(1, 1) translate(0, 0)">
    <path d="M 107.0,503.0 L 134.0,506.0 L 175.0,499.0 L 307.0,457.0 L 353.0,452.0"/>
    <path d="M 237.0,226.0 L 277.0,256.0 L 281.0,275.0 L 272.0,441.0 L 274.0,897.0 L 252.0,952.0 L 223.0,941.0 L 145.0,894.0"/>
    <path d="M 57.0,768.0 L 104.0,764.0 L 244.0,642.0 L 332.0,576.0"/>
    <path d="M 481.0,321.0 L 532.0,366.0 L 549.0,392.0"/>
    <path d="M 390.0,398.0 L 417.0,427.0 L 424.0,467.0 L 420.0,691.0 L 414.0,782.0 L 394.0,894.0 L 396.0,936.0"/>
    <path d="M 646.0,354.0 L 699.0,354.0 L 814.0,325.0 L 841.0,339.0 L 854.0,358.0 L 868.0,863.0 L 865.0,950.0 L 847.0,981.0 L 818.0,975.0 L 730.0,939.0"/>
    <path d="M 559.0,466.0 L 581.0,492.0 L 579.0,504.0 L 510.0,615.0 L 460.0,668.0"/>
    <path d="M 557.0,578.0 L 638.0,554.0 L 666.0,551.0 L 690.0,559.0 L 682.0,583.0 L 650.0,632.0 L 594.0,698.0 L 507.0,775.0 L 447.0,813.0"/>
    <path d="M 538.0,612.0 L 639.0,691.0 L 706.0,732.0 L 748.0,750.0 L 825.0,755.0 L 830.0,760.0"/>
    <path d="M 507.0,798.0 L 528.0,813.0 L 549.0,927.0"/>
    <path d="M 552.0,807.0 L 575.0,794.0 L 662.0,775.0 L 684.0,796.0 L 672.0,842.0 L 654.0,850.0"/>
    <path d="M 564.0,904.0 L 573.0,895.0 L 638.0,881.0 L 680.0,880.0 L 700.0,886.0"/>
  </g>
</svg>
