<svg xmlns="http://www.w3.org/2000/svg" viewBox="0 0 1024 1024">
  <g style="fill:none;stroke:#000000;stroke-width:50;stroke-linecap:round;stroke-linejoin:round;" transform="scale(1, 1) translate(0, 0)">
    <path d="M 121.0,479.0 L 182.0,483.0 L 352.0,438.0 L 409.0,436.0"/>
    <path d="M 285.0,190.0 L 302.0,198.0 L 333.0,230.0 L 321.0,577.0 L 324.0,898.0 L 317.0,930.0 L 302.0,958.0 L 205.0,914.0"/>
    <path d="M 55.0,792.0 L 108.0,790.0 L 394.0,540.0"/>
    <path d="M 498.0,283.0 L 528.0,305.0 L 535.0,322.0 L 564.0,450.0"/>
    <path d="M 560.0,305.0 L 571.0,294.0 L 605.0,285.0 L 753.0,250.0 L 770.0,251.0 L 797.0,271.0 L 806.0,287.0 L 776.0,352.0 L 749.0,368.0"/>
    <path d="M 581.0,432.0 L 612.0,418.0 L 747.0,394.0 L 786.0,393.0 L 807.0,399.0"/>
    <path d="M 489.0,522.0 L 514.0,547.0 L 521.0,572.0 L 523.0,705.0 L 513.0,818.0 L 516.0,854.0"/>
    <path d="M 543.0,537.0 L 552.0,544.0 L 694.0,518.0 L 754.0,501.0 L 775.0,501.0 L 809.0,527.0 L 819.0,540.0 L 813.0,614.0 L 817.0,776.0 L 811.0,855.0"/>
    <path d="M 548.0,644.0 L 559.0,634.0 L 659.0,616.0 L 705.0,611.0 L 731.0,617.0"/>
    <path d="M 549.0,732.0 L 560.0,721.0 L 671.0,702.0 L 709.0,699.0 L 731.0,705.0"/>
    <path d="M 537.0,836.0 L 563.0,824.0 L 713.0,806.0 L 762.0,804.0 L 772.0,813.0"/>
    <path d="M 610.0,911.0 L 574.0,914.0 L 545.0,952.0 L 497.0,993.0 L 411.0,1043.0"/>
    <path d="M 717.0,888.0 L 827.0,978.0 L 847.0,1007.0 L 857.0,1043.0"/>
  </g>
</svg>
