<svg xmlns="http://www.w3.org/2000/svg" viewBox="0 0 1024 1024">
  <g style="fill:none;stroke:#000000;stroke-width:50;stroke-linecap:round;stroke-linejoin:round;" transform="scale(1, 1) translate(0, 0)">
    <path d="M 111.0,490.0 L 183.0,487.0 L 308.0,446.0 L 373.0,437.0"/>
    <path d="M 238.0,227.0 L 265.0,244.0 L 285.0,266.0 L 277.0,579.0 L 283.0,903.0 L 277.0,934.0 L 261.0,964.0 L 218.0,949.0 L 162.0,921.0 L 160.0,914.0 L 149.0,914.0"/>
    <path d="M 62.0,787.0 L 106.0,789.0 L 360.0,590.0"/>
    <path d="M 556.0,210.0 L 633.0,248.0 L 664.0,285.0"/>
    <path d="M 476.0,383.0 L 516.0,387.0 L 567.0,381.0 L 756.0,328.0 L 808.0,325.0"/>
    <path d="M 510.0,443.0 L 541.0,476.0 L 556.0,505.0"/>
    <path d="M 692.0,377.0 L 712.0,393.0 L 717.0,407.0 L 674.0,495.0 L 647.0,523.0"/>
    <path d="M 420.0,535.0 L 429.0,556.0 L 430.0,578.0 L 397.0,663.0 L 394.0,691.0"/>
    <path d="M 458.0,570.0 L 470.0,578.0 L 490.0,579.0 L 569.0,557.0 L 797.0,510.0 L 833.0,507.0 L 859.0,512.0 L 872.0,520.0 L 888.0,545.0 L 811.0,631.0"/>
    <path d="M 596.0,589.0 L 658.0,631.0 L 671.0,656.0"/>
    <path d="M 432.0,753.0 L 468.0,756.0 L 625.0,716.0 L 776.0,688.0 L 836.0,698.0"/>
    <path d="M 634.0,807.0 L 666.0,801.0 L 701.0,807.0 L 735.0,826.0 L 749.0,847.0 L 704.0,960.0 L 672.0,1007.0 L 642.0,1026.0 L 547.0,966.0"/>
    <path d="M 592.0,750.0 L 614.0,777.0 L 552.0,874.0 L 480.0,952.0 L 425.0,997.0 L 386.0,1022.0 L 370.0,1025.0 L 367.0,1032.0"/>
  </g>
</svg>
