<svg xmlns="http://www.w3.org/2000/svg" viewBox="0 0 1024 1024">
  <g style="fill:none;stroke:#000000;stroke-width:50;stroke-linecap:round;stroke-linejoin:round;" transform="scale(1, 1) translate(0, 0)">
    <path d="M 136.0,462.0 L 175.0,466.0 L 218.0,461.0 L 354.0,425.0 L 399.0,427.0"/>
    <path d="M 272.0,218.0 L 297.0,234.0 L 317.0,257.0 L 307.0,545.0 L 311.0,894.0 L 305.0,924.0 L 290.0,954.0 L 177.0,905.0"/>
    <path d="M 72.0,788.0 L 114.0,791.0 L 236.0,688.0 L 375.0,584.0"/>
    <path d="M 578.0,195.0 L 664.0,237.0 L 698.0,273.0"/>
    <path d="M 436.0,380.0 L 495.0,389.0 L 798.0,345.0 L 834.0,345.0 L 869.0,353.0"/>
    <path d="M 620.0,408.0 L 614.0,422.0 L 601.0,428.0 L 514.0,519.0 L 503.0,542.0 L 599.0,556.0 L 620.0,548.0"/>
    <path d="M 710.0,441.0 L 722.0,478.0 L 632.0,567.0 L 544.0,640.0 L 536.0,668.0 L 562.0,674.0 L 731.0,636.0 L 747.0,635.0 L 753.0,642.0"/>
    <path d="M 722.0,562.0 L 787.0,629.0 L 802.0,670.0"/>
    <path d="M 436.0,756.0 L 464.0,781.0 L 473.0,807.0 L 508.0,1024.0"/>
    <path d="M 497.0,763.0 L 511.0,776.0 L 775.0,730.0 L 816.0,738.0 L 837.0,761.0 L 807.0,967.0 L 790.0,994.0 L 790.0,1048.0"/>
    <path d="M 540.0,881.0 L 605.0,875.0 L 688.0,856.0 L 717.0,854.0 L 739.0,861.0"/>
    <path d="M 610.0,779.0 L 634.0,796.0 L 639.0,807.0 L 640.0,927.0 L 626.0,948.0"/>
    <path d="M 530.0,974.0 L 541.0,981.0 L 756.0,960.0"/>
  </g>
</svg>
