<svg xmlns="http://www.w3.org/2000/svg" viewBox="0 0 1024 1024">
  <g style="fill:none;stroke:#000000;stroke-width:50;stroke-linecap:round;stroke-linejoin:round;" transform="scale(1, 1) translate(0, 0)">
    <path d="M 127.0,496.0 L 184.0,497.0 L 345.0,452.0 L 392.0,452.0"/>
    <path d="M 264.0,209.0 L 289.0,226.0 L 309.0,253.0 L 297.0,591.0 L 300.0,890.0 L 278.0,949.0 L 252.0,942.0 L 169.0,901.0"/>
    <path d="M 58.0,796.0 L 99.0,800.0 L 228.0,698.0 L 383.0,587.0"/>
    <path d="M 527.0,312.0 L 540.0,340.0 L 481.0,399.0 L 474.0,413.0"/>
    <path d="M 420.0,407.0 L 450.0,435.0 L 492.0,634.0"/>
    <path d="M 496.0,508.0 L 503.0,495.0 L 517.0,489.0 L 574.0,485.0"/>
    <path d="M 701.0,348.0 L 736.0,351.0 L 830.0,337.0 L 842.0,345.0 L 857.0,374.0 L 800.0,545.0 L 779.0,582.0 L 762.0,579.0"/>
    <path d="M 688.0,458.0 L 781.0,447.0 L 801.0,433.0"/>
    <path d="M 510.0,613.0 L 529.0,603.0 L 758.0,560.0"/>
    <path d="M 593.0,193.0 L 638.0,229.0 L 640.0,255.0 L 630.0,645.0 L 613.0,671.0"/>
    <path d="M 501.0,704.0 L 553.0,705.0 L 694.0,676.0 L 714.0,686.0 L 727.0,708.0 L 711.0,764.0 L 685.0,822.0 L 625.0,896.0 L 588.0,921.0 L 537.0,944.0 L 473.0,964.0 L 397.0,974.0"/>
    <path d="M 495.0,757.0 L 532.0,774.0 L 677.0,928.0 L 774.0,998.0 L 804.0,1010.0 L 934.0,1021.0"/>
  </g>
</svg>
