<svg xmlns="http://www.w3.org/2000/svg" viewBox="0 0 1024 1024">
  <g style="fill:none;stroke:#000000;stroke-width:50;stroke-linecap:round;stroke-linejoin:round;" transform="scale(1, 1) translate(0, 0)">
    <path d="M 123.0,487.0 L 171.0,489.0 L 310.0,443.0 L 366.0,437.0"/>
    <path d="M 250.0,226.0 L 274.0,241.0 L 288.0,256.0 L 293.0,272.0 L 282.0,425.0 L 279.0,902.0 L 257.0,956.0 L 218.0,941.0 L 157.0,906.0"/>
    <path d="M 57.0,737.0 L 97.0,743.0 L 112.0,735.0 L 331.0,583.0"/>
    <path d="M 403.0,334.0 L 446.0,379.0 L 458.0,404.0"/>
    <path d="M 579.0,254.0 L 603.0,277.0 L 572.0,339.0 L 534.0,392.0 L 532.0,403.0 L 520.0,411.0 L 522.0,418.0"/>
    <path d="M 387.0,514.0 L 443.0,514.0 L 572.0,471.0 L 617.0,467.0"/>
    <path d="M 375.0,581.0 L 396.0,613.0 L 388.0,708.0 L 418.0,710.0 L 552.0,665.0 L 572.0,648.0"/>
    <path d="M 587.0,558.0 L 609.0,589.0 L 588.0,686.0 L 586.0,724.0"/>
    <path d="M 478.0,522.0 L 485.0,534.0 L 503.0,544.0 L 506.0,555.0 L 494.0,698.0 L 475.0,775.0 L 431.0,862.0 L 391.0,903.0 L 359.0,927.0 L 338.0,935.0"/>
    <path d="M 650.0,393.0 L 684.0,420.0 L 690.0,453.0 L 694.0,538.0 L 676.0,719.0 L 653.0,797.0 L 613.0,875.0 L 568.0,929.0 L 505.0,978.0"/>
    <path d="M 719.0,420.0 L 728.0,410.0 L 824.0,372.0 L 841.0,378.0 L 864.0,405.0 L 866.0,906.0 L 861.0,955.0 L 843.0,984.0 L 803.0,968.0 L 744.0,932.0"/>
    <path d="M 713.0,576.0 L 734.0,561.0 L 770.0,556.0 L 804.0,562.0"/>
    <path d="M 705.0,710.0 L 713.0,700.0 L 745.0,694.0 L 782.0,694.0 L 803.0,701.0"/>
  </g>
</svg>
