<svg xmlns="http://www.w3.org/2000/svg" viewBox="0 0 1024 1024">
  <g style="fill:none;stroke:#000000;stroke-width:50;stroke-linecap:round;stroke-linejoin:round;" transform="scale(1, 1) translate(0, 0)">
    <path d="M 96.0,506.0 L 131.0,510.0 L 179.0,503.0 L 320.0,463.0 L 366.0,461.0"/>
    <path d="M 225.0,226.0 L 265.0,256.0 L 269.0,277.0 L 256.0,595.0 L 257.0,908.0 L 236.0,962.0 L 196.0,943.0 L 136.0,902.0"/>
    <path d="M 47.0,767.0 L 88.0,773.0 L 358.0,595.0"/>
    <path d="M 576.0,198.0 L 655.0,237.0 L 690.0,276.0"/>
    <path d="M 500.0,380.0 L 520.0,387.0 L 559.0,385.0 L 772.0,335.0 L 821.0,333.0"/>
    <path d="M 438.0,360.0 L 470.0,391.0 L 473.0,410.0 L 460.0,602.0 L 448.0,680.0 L 429.0,753.0 L 380.0,872.0 L 339.0,941.0 L 300.0,990.0"/>
    <path d="M 523.0,538.0 L 544.0,542.0 L 595.0,535.0 L 777.0,490.0 L 797.0,496.0 L 821.0,519.0 L 819.0,531.0 L 783.0,666.0 L 763.0,682.0"/>
    <path d="M 477.0,662.0 L 491.0,654.0 L 606.0,635.0 L 841.0,603.0 L 913.0,597.0 L 967.0,610.0"/>
    <path d="M 512.0,743.0 L 560.0,745.0 L 761.0,709.0 L 800.0,708.0 L 823.0,717.0"/>
    <path d="M 620.0,424.0 L 640.0,434.0 L 659.0,457.0 L 660.0,617.0 L 650.0,802.0"/>
    <path d="M 500.0,849.0 L 519.0,865.0 L 532.0,891.0 L 561.0,1049.0"/>
    <path d="M 547.0,849.0 L 566.0,859.0 L 747.0,817.0 L 771.0,819.0 L 803.0,851.0 L 777.0,930.0 L 749.0,949.0"/>
    <path d="M 577.0,994.0 L 588.0,1004.0 L 793.0,978.0 L 829.0,989.0"/>
  </g>
</svg>
