<svg xmlns="http://www.w3.org/2000/svg" viewBox="0 0 1024 1024">
  <g style="fill:none;stroke:#000000;stroke-width:50;stroke-linecap:round;stroke-linejoin:round;" transform="scale(1, 1) translate(0, 0)">
    <path d="M 120.0,510.0 L 140.0,514.0 L 192.0,509.0 L 328.0,472.0 L 382.0,469.0"/>
    <path d="M 254.0,226.0 L 270.0,234.0 L 301.0,269.0 L 291.0,604.0 L 295.0,923.0 L 289.0,955.0 L 272.0,983.0 L 200.0,954.0 L 182.0,945.0 L 180.0,938.0 L 169.0,938.0"/>
    <path d="M 72.0,778.0 L 123.0,781.0 L 238.0,696.0 L 380.0,603.0"/>
    <path d="M 395.0,397.0 L 415.0,402.0 L 488.0,399.0 L 571.0,382.0 L 772.0,360.0 L 813.0,361.0 L 848.0,373.0"/>
    <path d="M 480.0,289.0 L 515.0,319.0 L 537.0,457.0"/>
    <path d="M 685.0,222.0 L 699.0,228.0 L 719.0,257.0 L 680.0,392.0 L 651.0,465.0"/>
    <path d="M 613.0,506.0 L 578.0,523.0 L 542.0,598.0 L 484.0,680.0 L 422.0,752.0 L 360.0,805.0"/>
    <path d="M 612.0,540.0 L 636.0,571.0 L 695.0,621.0 L 816.0,710.0 L 864.0,723.0 L 989.0,734.0"/>
    <path d="M 499.0,739.0 L 550.0,741.0 L 653.0,715.0 L 688.0,718.0"/>
    <path d="M 447.0,825.0 L 474.0,847.0 L 480.0,861.0 L 520.0,1034.0"/>
    <path d="M 507.0,852.0 L 525.0,836.0 L 617.0,822.0 L 677.0,805.0 L 724.0,803.0 L 757.0,837.0 L 729.0,921.0 L 703.0,934.0"/>
    <path d="M 537.0,1004.0 L 549.0,991.0 L 690.0,969.0 L 740.0,969.0 L 766.0,978.0"/>
  </g>
</svg>
