<svg xmlns="http://www.w3.org/2000/svg" viewBox="0 0 1024 1024">
  <g style="fill:none;stroke:#000000;stroke-width:50;stroke-linecap:round;stroke-linejoin:round;" transform="scale(1, 1) translate(0, 0)">
    <path d="M 441.0,174.0 L 511.0,217.0 L 537.0,249.0"/>
    <path d="M 246.0,267.0 L 254.0,295.0 L 250.0,314.0 L 210.0,384.0 L 202.0,434.0"/>
    <path d="M 282.0,295.0 L 292.0,304.0 L 312.0,303.0 L 557.0,261.0 L 570.0,264.0 L 707.0,246.0 L 748.0,246.0 L 774.0,256.0 L 791.0,284.0 L 714.0,349.0"/>
    <path d="M 328.0,408.0 L 394.0,414.0 L 637.0,367.0 L 670.0,368.0"/>
    <path d="M 325.0,505.0 L 387.0,504.0 L 624.0,466.0 L 645.0,465.0 L 667.0,473.0"/>
    <path d="M 372.0,332.0 L 405.0,365.0 L 409.0,383.0 L 418.0,552.0 L 408.0,562.0"/>
    <path d="M 541.0,306.0 L 565.0,329.0 L 571.0,355.0 L 554.0,523.0 L 539.0,544.0"/>
    <path d="M 220.0,600.0 L 273.0,607.0 L 462.0,575.0 L 695.0,551.0 L 745.0,555.0 L 777.0,566.0"/>
    <path d="M 337.0,622.0 L 354.0,645.0 L 323.0,688.0 L 252.0,759.0 L 169.0,817.0 L 80.0,858.0"/>
    <path d="M 569.0,594.0 L 583.0,598.0 L 623.0,640.0 L 717.0,717.0 L 786.0,763.0 L 818.0,778.0 L 973.0,799.0"/>
    <path d="M 584.25,667.25 L 367.0,721.0"/>
    <path d="M 345.0,790.0 L 354.0,795.0 L 392.0,795.0 L 491.0,782.0 L 558.0,764.0 L 615.0,762.0"/>
    <path d="M 248.0,900.0 L 301.0,907.0 L 458.0,881.0 L 660.0,859.0 L 709.0,863.0 L 741.0,874.0"/>
    <path d="M 471.0,709.0 L 500.0,731.0 L 507.0,760.0 L 517.0,901.0 L 508.0,1008.0 L 485.0,1044.0 L 384.0,984.0"/>
  </g>
</svg>
