<svg xmlns="http://www.w3.org/2000/svg" viewBox="0 0 1024 1024">
  <g style="fill:none;stroke:#000000;stroke-width:50;stroke-linecap:round;stroke-linejoin:round;" transform="scale(1, 1) translate(0, 0)">
    <path d="M 123.0,494.0 L 191.0,492.0 L 341.0,449.0 L 381.0,452.0"/>
    <path d="M 244.0,226.0 L 269.0,242.0 L 289.0,270.0 L 274.0,625.0 L 276.0,875.0 L 270.0,905.0 L 255.0,933.0 L 153.0,893.0"/>
    <path d="M 60.0,766.0 L 107.0,768.0 L 359.0,571.0"/>
    <path d="M 567.0,210.0 L 603.0,242.0 L 598.0,387.0 L 583.0,408.0"/>
    <path d="M 629.0,324.0 L 642.0,314.0 L 725.0,295.0 L 764.0,295.0"/>
    <path d="M 474.0,439.0 L 495.0,449.0 L 702.0,408.0 L 759.0,402.0 L 788.0,410.0 L 805.0,430.0 L 807.0,441.0 L 722.0,507.0"/>
    <path d="M 415.0,425.0 L 442.0,448.0 L 448.0,473.0 L 448.0,556.0 L 437.0,670.0 L 413.0,773.0 L 385.0,847.0 L 346.0,915.0 L 315.0,955.0"/>
    <path d="M 490.0,589.0 L 527.0,592.0 L 653.0,557.0 L 726.0,552.0"/>
    <path d="M 565.0,492.0 L 589.0,520.0 L 588.0,609.0 L 597.0,649.0 L 606.0,662.0 L 640.0,679.0 L 704.0,680.0 L 755.0,661.0 L 766.0,649.0 L 766.0,565.0"/>
    <path d="M 477.0,820.0 L 470.0,872.0 L 439.0,967.0"/>
    <path d="M 535.0,837.0 L 548.0,856.0 L 564.0,902.0 L 592.0,933.0 L 624.0,954.0 L 661.0,967.0 L 717.0,976.0 L 765.0,974.0 L 809.0,955.0 L 761.0,842.0"/>
    <path d="M 609.0,764.0 L 663.0,812.0 L 680.0,839.0"/>
    <path d="M 781.0,754.0 L 873.0,808.0 L 897.0,836.0 L 911.0,865.0"/>
  </g>
</svg>
