<svg xmlns="http://www.w3.org/2000/svg" viewBox="0 0 1024 1024">
  <g style="fill:none;stroke:#000000;stroke-width:50;stroke-linecap:round;stroke-linejoin:round;" transform="scale(1, 1) translate(0, 0)">
    <path d="M 124.0,520.0 L 162.0,524.0 L 203.0,518.0 L 346.0,479.0 L 388.0,479.0"/>
    <path d="M 265.0,234.0 L 282.0,242.0 L 313.0,274.0 L 303.0,436.0 L 300.0,914.0 L 293.0,946.0 L 276.0,976.0 L 174.0,926.0 L 172.0,918.0 L 161.0,918.0"/>
    <path d="M 56.0,810.0 L 103.0,812.0 L 363.0,607.0"/>
    <path d="M 731.0,269.0 L 668.0,259.0 L 578.0,314.0 L 461.0,358.0"/>
    <path d="M 448.0,410.0 L 507.0,454.0 L 530.0,494.0"/>
    <path d="M 571.0,380.0 L 608.0,415.0 L 630.0,448.0"/>
    <path d="M 801.0,332.0 L 819.0,366.0 L 677.0,502.0"/>
    <path d="M 485.0,545.0 L 506.0,574.0 L 481.0,644.0 L 449.0,691.0 L 409.0,730.0"/>
    <path d="M 519.0,623.0 L 642.0,606.0 L 754.0,575.0 L 789.0,577.0"/>
    <path d="M 382.0,788.0 L 437.0,792.0 L 563.0,766.0 L 805.0,728.0 L 875.0,731.0 L 907.0,741.0"/>
    <path d="M 602.0,641.0 L 627.0,657.0 L 635.0,693.0 L 633.0,910.0 L 617.0,933.0"/>
    <path d="M 460.0,837.0 L 482.0,881.0 L 463.0,960.0 L 463.0,980.0 L 474.0,984.0 L 502.0,985.0 L 692.0,944.0 L 773.0,937.0 L 787.0,934.0 L 796.0,922.0"/>
    <path d="M 789.0,800.0 L 824.0,834.0 L 822.0,965.0 L 829.0,1008.0"/>
  </g>
</svg>
