<svg xmlns="http://www.w3.org/2000/svg" viewBox="0 0 1024 1024">
  <g style="fill:none;stroke:#000000;stroke-width:50;stroke-linecap:round;stroke-linejoin:round;" transform="scale(1, 1) translate(0, 0)">
    <path d="M 132.0,498.0 L 202.0,498.0 L 360.0,451.0 L 406.0,450.0"/>
    <path d="M 264.0,229.0 L 289.0,246.0 L 309.0,270.0 L 297.0,597.0 L 300.0,903.0 L 294.0,933.0 L 278.0,963.0 L 242.0,952.0 L 157.0,909.0"/>
    <path d="M 63.0,776.0 L 109.0,783.0 L 333.0,641.0 L 337.0,633.0 L 401.0,598.0"/>
    <path d="M 427.0,303.0 L 449.0,322.0 L 459.0,344.0 L 492.0,515.0"/>
    <path d="M 470.0,307.0 L 499.0,317.0 L 670.0,290.0 L 776.0,280.0 L 825.0,282.0 L 850.0,303.0 L 857.0,319.0 L 803.0,479.0"/>
    <path d="M 576.0,327.0 L 575.0,355.0 L 598.0,457.0"/>
    <path d="M 683.0,308.0 L 707.0,331.0 L 684.0,428.0 L 671.0,449.0"/>
    <path d="M 510.0,496.0 L 528.0,486.0 L 612.0,479.0 L 724.0,459.0 L 766.0,458.0 L 780.0,464.0"/>
    <path d="M 479.0,608.0 L 540.0,618.0 L 717.0,593.0 L 773.0,595.0"/>
    <path d="M 592.0,502.0 L 630.0,539.0 L 626.0,696.0 L 625.0,705.0 L 611.0,719.0"/>
    <path d="M 362.0,764.0 L 415.0,772.0 L 627.0,741.0 L 860.0,718.0 L 899.0,723.0 L 937.0,737.0"/>
    <path d="M 576.0,771.0 L 601.0,795.0 L 557.0,865.0 L 505.0,925.0 L 500.0,954.0 L 540.0,954.0 L 708.0,910.0 L 751.0,902.0 L 764.0,905.0"/>
    <path d="M 731.0,814.0 L 821.0,931.0 L 839.0,978.0 L 837.0,1003.0"/>
  </g>
</svg>
