<svg xmlns="http://www.w3.org/2000/svg" viewBox="0 0 1024 1024">
  <g style="fill:none;stroke:#000000;stroke-width:50;stroke-linecap:round;stroke-linejoin:round;" transform="scale(1, 1) translate(0, 0)">
    <path d="M 106.0,490.0 L 130.0,493.0 L 169.0,487.0 L 306.0,441.0 L 350.0,438.0"/>
    <path d="M 238.0,234.0 L 262.0,249.0 L 281.0,276.0 L 272.0,400.0 L 264.0,911.0 L 244.0,952.0 L 125.0,901.0"/>
    <path d="M 46.0,791.0 L 92.0,790.0 L 322.0,577.0"/>
    <path d="M 329.0,527.0 L 393.0,518.0 L 447.0,493.0 L 488.0,498.0 L 484.0,544.0 L 467.0,609.0 L 443.0,676.0 L 420.0,717.0 L 366.0,774.0 L 305.0,805.0 L 299.0,814.0"/>
    <path d="M 342.0,618.0 L 490.0,754.0 L 512.0,790.0 L 520.0,816.0"/>
    <path d="M 655.0,233.0 L 677.0,249.0 L 691.0,270.0 L 674.0,334.0 L 610.0,476.0 L 574.0,539.0 L 533.0,594.0"/>
    <path d="M 590.0,551.0 L 593.0,575.0 L 614.0,612.0 L 614.0,799.0 L 601.0,948.0 L 606.0,1006.0"/>
    <path d="M 720.0,342.0 L 781.0,375.0 L 806.0,408.0"/>
    <path d="M 650.0,515.0 L 706.0,514.0 L 839.0,470.0 L 872.0,470.0"/>
    <path d="M 676.0,668.0 L 815.0,630.0 L 847.0,625.0 L 868.0,629.0"/>
    <path d="M 672.0,776.0 L 837.0,734.0 L 869.0,738.0"/>
    <path d="M 737.0,531.0 L 764.0,550.0 L 765.0,566.0 L 765.0,836.0 L 761.0,852.0 L 750.0,864.0"/>
    <path d="M 643.0,906.0 L 649.0,912.0 L 668.0,912.0 L 847.0,868.0 L 894.0,869.0 L 920.0,876.0"/>
  </g>
</svg>
