<svg xmlns="http://www.w3.org/2000/svg" viewBox="0 0 1024 1024">
  <g style="fill:none;stroke:#000000;stroke-width:50;stroke-linecap:round;stroke-linejoin:round;" transform="scale(1, 1) translate(0, 0)">
    <path d="M 107.0,494.0 L 172.0,492.0 L 314.0,447.0 L 346.0,446.0"/>
    <path d="M 244.0,254.0 L 285.0,285.0 L 290.0,298.0 L 282.0,425.0 L 280.0,618.0 L 286.0,886.0 L 280.0,916.0 L 264.0,946.0 L 141.0,885.0"/>
    <path d="M 45.0,770.0 L 94.0,773.0 L 346.0,603.0"/>
    <path d="M 544.0,213.0 L 607.0,249.0 L 641.0,282.0"/>
    <path d="M 412.0,364.0 L 423.0,390.0 L 423.0,408.0 L 393.0,489.0 L 389.0,520.0"/>
    <path d="M 453.0,407.0 L 463.0,398.0 L 583.0,370.0 L 742.0,343.0 L 779.0,345.0 L 805.0,359.0 L 816.0,376.0 L 749.0,461.0"/>
    <path d="M 691.0,458.0 L 630.0,457.0 L 561.0,511.0 L 510.0,542.0 L 502.0,537.0"/>
    <path d="M 436.0,534.0 L 474.0,571.0 L 493.0,727.0 L 497.0,745.0 L 510.0,753.0"/>
    <path d="M 507.0,631.0 L 529.0,619.0 L 613.0,605.0 L 724.0,576.0 L 776.0,584.0"/>
    <path d="M 640.0,621.0 L 662.0,648.0 L 653.0,722.0 L 635.0,736.0"/>
    <path d="M 342.0,788.0 L 392.0,797.0 L 573.0,773.0 L 816.0,751.0 L 866.0,755.0 L 911.0,769.0"/>
    <path d="M 539.0,865.0 L 506.0,871.0 L 466.0,923.0 L 428.0,959.0 L 394.0,986.0 L 343.0,1014.0"/>
    <path d="M 642.0,844.0 L 771.0,948.0 L 790.0,976.0 L 801.0,1011.0"/>
  </g>
</svg>
