<svg xmlns="http://www.w3.org/2000/svg" viewBox="0 0 1024 1024">
  <g style="fill:none;stroke:#000000;stroke-width:50;stroke-linecap:round;stroke-linejoin:round;" transform="scale(1, 1) translate(0, 0)">
    <path d="M 470.0,159.0 L 545.0,197.0 L 564.0,222.0"/>
    <path d="M 322.0,299.0 L 353.0,307.0 L 428.0,303.0 L 722.0,248.0 L 775.0,247.0"/>
    <path d="M 253.0,274.0 L 276.0,295.0 L 290.0,320.0 L 275.0,491.0 L 254.0,602.0 L 214.0,733.0 L 165.0,838.0 L 99.0,934.0 L 69.0,966.0"/>
    <path d="M 339.0,448.0 L 384.0,450.0 L 495.0,422.0 L 532.0,421.0"/>
    <path d="M 428.0,343.0 L 451.0,372.0 L 445.0,513.0 L 451.0,606.0"/>
    <path d="M 429.0,465.0 L 421.0,473.0 L 412.0,503.0 L 381.0,546.0 L 315.0,607.0"/>
    <path d="M 490.0,490.0 L 531.0,525.0"/>
    <path d="M 579.0,412.0 L 635.0,414.0 L 745.0,383.0 L 788.0,382.0"/>
    <path d="M 658.0,307.0 L 685.0,336.0 L 677.0,478.0 L 683.0,578.0"/>
    <path d="M 660.0,431.0 L 652.0,438.0 L 647.0,464.0 L 628.0,491.0 L 563.0,555.0"/>
    <path d="M 705.0,424.0 L 803.0,519.0 L 847.0,531.0 L 892.0,532.0"/>
    <path d="M 669.0,611.0 L 611.0,596.0 L 509.0,646.0 L 422.0,671.0 L 409.0,666.0 L 386.0,679.0"/>
    <path d="M 381.0,755.0 L 410.0,762.0 L 471.0,759.0 L 681.0,712.0 L 738.0,713.0"/>
    <path d="M 246.0,876.0 L 301.0,884.0 L 476.0,853.0 L 813.0,819.0 L 851.0,824.0 L 888.0,837.0"/>
    <path d="M 533.0,658.0 L 561.0,676.0 L 577.0,762.0 L 586.0,944.0 L 576.0,1000.0 L 560.0,1033.0 L 549.0,1042.0 L 437.0,995.0"/>
  </g>
</svg>
