<svg xmlns="http://www.w3.org/2000/svg" viewBox="0 0 1024 1024">
  <g style="fill:none;stroke:#000000;stroke-width:50;stroke-linecap:round;stroke-linejoin:round;" transform="scale(1, 1) translate(0, 0)">
    <path d="M 126.0,486.0 L 199.0,481.0 L 338.0,434.0 L 382.0,430.0"/>
    <path d="M 268.0,185.0 L 293.0,202.0 L 313.0,226.0 L 301.0,557.0 L 304.0,893.0 L 297.0,924.0 L 281.0,952.0 L 173.0,901.0"/>
    <path d="M 65.0,790.0 L 108.0,790.0 L 371.0,576.0"/>
    <path d="M 639.0,192.0 L 671.0,226.0 L 663.0,352.0 L 647.0,364.0"/>
    <path d="M 485.0,290.0 L 510.0,329.0 L 504.0,421.0 L 538.0,422.0 L 652.0,391.0 L 768.0,372.0 L 785.0,359.0"/>
    <path d="M 815.0,243.0 L 841.0,286.0 L 800.0,431.0"/>
    <path d="M 574.0,489.0 L 549.0,498.0 L 522.0,547.0 L 458.0,635.0 L 411.0,683.0 L 380.0,705.0"/>
    <path d="M 504.0,618.0 L 516.0,669.0 L 518.0,734.0 L 513.0,884.0 L 501.0,980.0 L 507.0,1047.0"/>
    <path d="M 662.0,428.0 L 706.0,454.0 L 723.0,471.0"/>
    <path d="M 580.0,561.0 L 637.0,565.0 L 783.0,529.0 L 832.0,527.0"/>
    <path d="M 611.0,685.0 L 667.0,677.0 L 781.0,648.0 L 812.0,653.0"/>
    <path d="M 603.0,789.0 L 784.0,752.0 L 816.0,757.0"/>
    <path d="M 674.0,582.0 L 700.0,598.0 L 705.0,629.0 L 701.0,848.0 L 686.0,864.0"/>
    <path d="M 544.0,902.0 L 551.0,910.0 L 566.0,910.0 L 852.0,868.0 L 928.0,882.0"/>
  </g>
</svg>
