<svg xmlns="http://www.w3.org/2000/svg" viewBox="0 0 1024 1024">
  <g style="fill:none;stroke:#000000;stroke-width:50;stroke-linecap:round;stroke-linejoin:round;" transform="scale(1, 1) translate(0, 0)">
    <path d="M 120.0,515.0 L 130.0,520.0 L 170.0,519.0 L 260.0,502.0 L 343.0,477.0 L 392.0,477.0"/>
    <path d="M 249.0,241.0 L 266.0,250.0 L 296.0,282.0 L 278.0,635.0 L 277.0,911.0 L 270.0,943.0 L 254.0,972.0 L 153.0,925.0 L 152.0,918.0 L 141.0,918.0"/>
    <path d="M 60.0,801.0 L 107.0,804.0 L 194.0,727.0 L 367.0,592.0"/>
    <path d="M 570.0,228.0 L 654.0,270.0 L 683.0,306.0"/>
    <path d="M 499.0,430.0 L 527.0,439.0 L 553.0,439.0 L 648.0,424.0 L 775.0,393.0 L 815.0,391.0 L 827.0,400.0"/>
    <path d="M 446.0,419.0 L 472.0,443.0 L 480.0,465.0 L 473.0,584.0 L 450.0,726.0 L 428.0,802.0 L 394.0,882.0 L 361.0,936.0 L 320.0,986.0"/>
    <path d="M 515.0,620.0 L 579.0,626.0 L 778.0,590.0 L 834.0,585.0 L 865.0,592.0"/>
    <path d="M 564.0,523.0 L 596.0,554.0 L 606.0,643.0 L 609.0,765.0"/>
    <path d="M 714.0,463.0 L 748.0,500.0 L 726.0,678.0 L 723.0,688.0 L 710.0,697.0"/>
    <path d="M 628.0,745.0 L 640.0,735.0 L 702.0,724.0 L 743.0,723.0 L 763.0,732.0"/>
    <path d="M 505.0,847.0 L 496.0,903.0 L 467.0,983.0"/>
    <path d="M 587.0,853.0 L 615.0,907.0 L 620.0,933.0"/>
    <path d="M 686.0,839.0 L 726.0,897.0 L 736.0,926.0"/>
    <path d="M 783.0,816.0 L 879.0,908.0 L 897.0,941.0 L 903.0,975.0"/>
  </g>
</svg>
