<svg xmlns="http://www.w3.org/2000/svg" viewBox="0 0 1024 1024">
  <g style="fill:none;stroke:#000000;stroke-width:50;stroke-linecap:round;stroke-linejoin:round;" transform="scale(1, 1) translate(0, 0)">
    <path d="M 239.0,270.0 L 294.0,271.0 L 424.0,233.0 L 469.0,230.0"/>
    <path d="M 352.0,157.0 L 386.0,189.0 L 381.0,297.0 L 367.0,316.0"/>
    <path d="M 124.0,390.0 L 171.0,395.0 L 413.0,326.0 L 457.0,319.0 L 481.0,322.0"/>
    <path d="M 275.0,396.0 L 285.0,397.0 L 300.0,424.0 L 304.0,436.0 L 299.0,449.0"/>
    <path d="M 400.0,354.0 L 415.0,373.0 L 389.0,418.0"/>
    <path d="M 242.0,483.0 L 312.0,470.0 L 432.0,433.0 L 461.0,436.0"/>
    <path d="M 143.0,581.0 L 191.0,585.0 L 410.0,516.0 L 459.0,514.0"/>
    <path d="M 336.0,480.0 L 357.0,498.0 L 355.0,684.0"/>
    <path d="M 583.0,164.0 L 604.0,173.0 L 627.0,199.0 L 622.0,288.0 L 606.0,386.0 L 582.0,456.0 L 556.0,504.0 L 510.0,559.0 L 491.0,577.0 L 480.0,579.0"/>
    <path d="M 524.0,309.0 L 535.0,314.0 L 581.0,311.0 L 715.0,267.0 L 747.0,274.0 L 754.0,283.0 L 741.0,324.0 L 733.0,388.0 L 739.0,458.0 L 748.0,486.0 L 768.0,518.0 L 793.0,541.0 L 825.0,557.0 L 852.0,563.0 L 894.0,555.0 L 911.0,454.0"/>
    <path d="M 522.0,399.0 L 630.0,447.0 L 660.0,469.0 L 673.0,491.0"/>
    <path d="M 649.0,604.0 L 600.0,597.0 L 570.0,619.0 L 510.0,647.0 L 405.0,673.0"/>
    <path d="M 361.0,747.0 L 402.0,754.0 L 431.0,752.0 L 635.0,706.0 L 679.0,709.0"/>
    <path d="M 162.0,875.0 L 220.0,883.0 L 407.0,848.0 L 780.0,805.0 L 816.0,808.0 L 868.0,823.0"/>
    <path d="M 493.0,675.0 L 518.0,684.0 L 537.0,711.0 L 555.0,915.0 L 547.0,1001.0 L 538.0,1031.0 L 518.0,1056.0 L 417.0,1015.0"/>
  </g>
</svg>
