<svg xmlns="http://www.w3.org/2000/svg" viewBox="0 0 1024 1024">
  <g style="fill:none;stroke:#000000;stroke-width:50;stroke-linecap:round;stroke-linejoin:round;" transform="scale(1, 1) translate(0, 0)">
    <path d="M 131.0,460.0 L 202.0,459.0 L 343.0,417.0 L 394.0,415.0"/>
    <path d="M 265.0,210.0 L 293.0,228.0 L 313.0,254.0 L 301.0,542.0 L 303.0,886.0 L 296.0,917.0 L 280.0,946.0 L 184.0,898.0 L 183.0,891.0 L 172.0,890.0"/>
    <path d="M 61.0,742.0 L 118.0,741.0 L 368.0,572.0"/>
    <path d="M 427.0,329.0 L 467.0,330.0 L 563.0,302.0 L 578.0,304.0 L 600.0,319.0 L 608.0,334.0 L 591.0,406.0 L 583.0,501.0 L 569.0,577.0"/>
    <path d="M 446.0,403.0 L 503.0,444.0"/>
    <path d="M 414.0,568.0 L 450.0,562.0 L 505.0,513.0 L 512.0,513.0 L 534.0,486.0"/>
    <path d="M 674.0,299.0 L 716.0,301.0 L 790.0,278.0 L 818.0,276.0 L 837.0,284.0 L 862.0,310.0 L 845.0,370.0 L 806.0,573.0"/>
    <path d="M 669.0,373.0 L 716.0,395.0 L 739.0,423.0"/>
    <path d="M 643.0,532.0 L 676.0,530.0 L 766.0,462.0"/>
    <path d="M 662.0,603.0 L 632.0,605.0 L 588.0,673.0 L 577.0,681.0"/>
    <path d="M 498.0,691.0 L 517.0,712.0 L 525.0,735.0 L 528.0,853.0 L 519.0,945.0 L 525.0,995.0"/>
    <path d="M 542.0,700.0 L 564.0,710.0 L 748.0,668.0 L 774.0,681.0 L 794.0,704.0 L 793.0,909.0 L 779.0,954.0 L 781.0,1014.0"/>
    <path d="M 557.0,834.0 L 566.0,823.0 L 639.0,807.0 L 684.0,800.0 L 707.0,806.0"/>
    <path d="M 552.0,956.0 L 569.0,941.0 L 733.0,920.0"/>
  </g>
</svg>
