<svg xmlns="http://www.w3.org/2000/svg" viewBox="0 0 1024 1024">
  <g style="fill:none;stroke:#000000;stroke-width:50;stroke-linecap:round;stroke-linejoin:round;" transform="scale(1, 1) translate(0, 0)">
    <path d="M 128.0,507.0 L 173.0,510.0 L 332.0,470.0 L 376.0,469.0"/>
    <path d="M 248.0,242.0 L 273.0,258.0 L 292.0,280.0 L 282.0,457.0 L 280.0,934.0 L 273.0,964.0 L 258.0,992.0 L 157.0,945.0"/>
    <path d="M 64.0,801.0 L 111.0,804.0 L 360.0,603.0"/>
    <path d="M 409.0,312.0 L 429.0,346.0 L 431.0,473.0 L 424.0,532.0 L 430.0,568.0"/>
    <path d="M 450.0,320.0 L 456.0,326.0 L 470.0,326.0 L 559.0,299.0 L 574.0,303.0 L 585.0,314.0 L 592.0,327.0 L 588.0,412.0 L 593.0,515.0 L 587.0,568.0"/>
    <path d="M 478.0,369.0 L 514.0,395.0 L 512.0,493.0 L 500.0,560.0 L 474.0,616.0 L 451.0,644.0 L 394.0,675.0"/>
    <path d="M 546.0,600.0 L 572.0,620.0 L 588.0,645.0"/>
    <path d="M 655.0,280.0 L 670.0,298.0 L 676.0,326.0 L 681.0,442.0 L 676.0,514.0 L 681.0,542.0"/>
    <path d="M 691.0,288.0 L 702.0,295.0 L 731.0,292.0 L 820.0,269.0 L 837.0,272.0 L 856.0,292.0 L 861.0,488.0 L 854.0,548.0"/>
    <path d="M 728.0,331.0 L 753.0,342.0 L 767.0,356.0 L 766.0,456.0 L 755.0,524.0 L 735.0,575.0 L 708.0,614.0 L 670.0,642.0 L 647.0,650.0"/>
    <path d="M 791.0,585.0 L 860.0,625.0 L 886.0,663.0"/>
    <path d="M 559.0,681.0 L 581.0,719.0 L 511.0,859.0 L 532.0,876.0 L 614.0,911.0 L 723.0,978.0 L 765.0,1013.0 L 796.0,1051.0"/>
    <path d="M 674.0,734.0 L 687.0,741.0 L 700.0,763.0 L 691.0,823.0 L 658.0,897.0 L 620.0,946.0 L 576.0,980.0 L 538.0,999.0 L 495.0,1013.0 L 426.0,1023.0"/>
    <path d="M 350.0,781.0 L 386.0,791.0 L 611.0,766.0 L 848.0,751.0 L 881.0,752.0 L 939.0,771.0"/>
  </g>
</svg>
