<svg xmlns="http://www.w3.org/2000/svg" viewBox="0 0 1024 1024">
  <g style="fill:none;stroke:#000000;stroke-width:50;stroke-linecap:round;stroke-linejoin:round;" transform="scale(1, 1) translate(0, 0)">
    <path d="M 112.0,521.0 L 164.0,524.0 L 313.0,483.0 L 357.0,481.0"/>
    <path d="M 249.0,214.0 L 266.0,222.0 L 297.0,257.0 L 286.0,460.0 L 288.0,887.0 L 281.0,918.0 L 265.0,948.0 L 206.0,925.0 L 170.0,905.0 L 168.0,898.0 L 157.0,898.0"/>
    <path d="M 45.0,785.0 L 91.0,788.0 L 343.0,588.0"/>
    <path d="M 395.0,396.0 L 435.0,431.0 L 445.0,449.0"/>
    <path d="M 574.0,318.0 L 583.0,342.0 L 552.0,375.0 L 542.0,378.0 L 530.0,396.0"/>
    <path d="M 475.0,257.0 L 507.0,288.0 L 508.0,371.0 L 496.0,457.0 L 482.0,503.0 L 458.0,554.0 L 439.0,579.0"/>
    <path d="M 519.0,477.0 L 561.0,504.0 L 580.0,531.0"/>
    <path d="M 620.0,389.0 L 650.0,417.0 L 662.0,439.0"/>
    <path d="M 842.0,282.0 L 855.0,313.0 L 782.0,371.0"/>
    <path d="M 692.0,216.0 L 716.0,227.0 L 740.0,252.0 L 730.0,380.0 L 715.0,438.0 L 698.0,474.0 L 663.0,522.0 L 631.0,546.0"/>
    <path d="M 764.0,441.0 L 825.0,474.0 L 841.0,499.0"/>
    <path d="M 387.0,582.0 L 398.0,610.0 L 397.0,626.0 L 369.0,695.0 L 366.0,723.0"/>
    <path d="M 424.0,614.0 L 438.0,623.0 L 457.0,623.0 L 598.0,590.0 L 821.0,554.0 L 861.0,567.0 L 878.0,591.0 L 812.0,670.0"/>
    <path d="M 439.0,776.0 L 493.0,779.0 L 710.0,722.0 L 739.0,722.0 L 761.0,741.0 L 738.0,887.0 L 721.0,947.0 L 698.0,991.0 L 664.0,1017.0 L 584.0,974.0"/>
    <path d="M 564.0,644.0 L 576.0,651.0 L 597.0,680.0 L 576.0,788.0 L 544.0,871.0 L 514.0,919.0 L 473.0,963.0 L 417.0,1001.0 L 373.0,1020.0"/>
  </g>
</svg>
