<svg xmlns="http://www.w3.org/2000/svg" viewBox="0 0 1024 1024">
  <g style="fill:none;stroke:#000000;stroke-width:50;stroke-linecap:round;stroke-linejoin:round;" transform="scale(1, 1) translate(0, 0)">
    <path d="M 119.0,506.0 L 159.0,508.0 L 201.0,501.0 L 333.0,459.0 L 389.0,453.0"/>
    <path d="M 254.0,239.0 L 270.0,247.0 L 301.0,278.0 L 293.0,422.0 L 295.0,910.0 L 288.0,942.0 L 272.0,970.0 L 245.0,962.0 L 174.0,922.0 L 172.0,915.0 L 161.0,914.0"/>
    <path d="M 50.0,780.0 L 97.0,786.0 L 363.0,599.0"/>
    <path d="M 424.0,283.0 L 449.0,305.0 L 456.0,321.0 L 496.0,502.0"/>
    <path d="M 472.0,289.0 L 488.0,296.0 L 714.0,259.0 L 756.0,267.0 L 777.0,293.0 L 748.0,401.0 L 724.0,465.0 L 727.0,482.0"/>
    <path d="M 527.0,389.0 L 572.0,386.0 L 655.0,366.0 L 692.0,370.0"/>
    <path d="M 580.0,299.0 L 606.0,322.0 L 604.0,432.0 L 591.0,447.0"/>
    <path d="M 515.0,488.0 L 522.0,481.0 L 682.0,453.0 L 696.0,446.0"/>
    <path d="M 526.0,499.0 L 540.0,510.0 L 548.0,534.0 L 524.0,568.0 L 434.0,660.0 L 386.0,693.0"/>
    <path d="M 551.0,573.0 L 664.0,545.0 L 689.0,546.0 L 706.0,553.0 L 713.0,564.0 L 652.0,663.0 L 616.0,705.0 L 553.0,762.0 L 509.0,794.0 L 453.0,824.0 L 389.0,845.0 L 348.0,851.0"/>
    <path d="M 519.0,612.0 L 527.0,610.0 L 701.0,735.0 L 809.0,791.0 L 844.0,801.0 L 975.0,800.0"/>
    <path d="M 461.0,844.0 L 487.0,857.0 L 494.0,873.0 L 525.0,1037.0"/>
    <path d="M 513.0,838.0 L 522.0,846.0 L 541.0,847.0 L 682.0,816.0 L 711.0,825.0 L 733.0,846.0 L 711.0,930.0 L 691.0,949.0"/>
    <path d="M 542.0,1005.0 L 552.0,993.0 L 679.0,976.0 L 732.0,975.0 L 753.0,985.0"/>
  </g>
</svg>
