<svg xmlns="http://www.w3.org/2000/svg" viewBox="0 0 1024 1024">
  <g style="fill:none;stroke:#000000;stroke-width:50;stroke-linecap:round;stroke-linejoin:round;" transform="scale(1, 1) translate(0, 0)">
    <path d="M 110.0,467.0 L 159.0,467.0 L 278.0,426.0 L 326.0,421.0"/>
    <path d="M 224.0,210.0 L 261.0,238.0 L 265.0,251.0 L 255.0,380.0 L 250.0,596.0 L 251.0,888.0 L 230.0,942.0 L 129.0,893.0"/>
    <path d="M 49.0,770.0 L 95.0,769.0 L 183.0,691.0 L 312.0,591.0"/>
    <path d="M 343.0,442.0 L 379.0,446.0 L 425.0,439.0 L 579.0,393.0 L 617.0,390.0"/>
    <path d="M 367.0,328.0 L 401.0,369.0 L 402.0,702.0 L 388.0,712.0"/>
    <path d="M 507.0,239.0 L 550.0,276.0 L 543.0,638.0 L 537.0,670.0 L 526.0,680.0"/>
    <path d="M 426.0,542.0 L 434.0,530.0 L 446.0,526.0 L 494.0,524.0"/>
    <path d="M 426.0,628.0 L 433.0,616.0 L 446.0,612.0 L 494.0,608.0"/>
    <path d="M 302.0,744.0 L 336.0,748.0 L 398.0,739.0 L 571.0,697.0 L 612.0,702.0"/>
    <path d="M 403.0,759.0 L 423.0,782.0 L 403.0,819.0 L 357.0,882.0 L 305.0,928.0"/>
    <path d="M 503.0,765.0 L 560.0,806.0 L 573.0,830.0"/>
    <path d="M 896.0,352.0 L 859.0,348.0 L 830.0,353.0 L 768.0,404.0 L 721.0,434.0 L 712.0,429.0"/>
    <path d="M 647.0,429.0 L 680.0,455.0 L 685.0,475.0 L 687.0,603.0 L 673.0,723.0 L 642.0,818.0 L 623.0,851.0 L 564.0,923.0 L 522.0,953.0"/>
    <path d="M 713.0,589.0 L 724.0,578.0 L 897.0,542.0 L 954.0,551.0"/>
    <path d="M 786.0,590.0 L 818.0,615.0 L 811.0,1085.0"/>
  </g>
</svg>
