<svg xmlns="http://www.w3.org/2000/svg" viewBox="0 0 1024 1024">
  <g style="fill:none;stroke:#000000;stroke-width:50;stroke-linecap:round;stroke-linejoin:round;" transform="scale(1, 1) translate(0, 0)">
    <path d="M 127.0,492.0 L 186.0,493.0 L 337.0,443.0 L 388.0,439.0"/>
    <path d="M 262.0,223.0 L 278.0,231.0 L 309.0,262.0 L 301.0,401.0 L 303.0,891.0 L 297.0,922.0 L 282.0,950.0 L 212.0,922.0 L 194.0,913.0 L 192.0,906.0 L 181.0,906.0"/>
    <path d="M 65.0,769.0 L 113.0,773.0 L 377.0,580.0"/>
    <path d="M 500.0,214.0 L 558.0,255.0 L 582.0,294.0"/>
    <path d="M 744.0,169.0 L 760.0,201.0 L 657.0,298.0"/>
    <path d="M 460.0,367.0 L 531.0,370.0 L 746.0,330.0 L 823.0,330.0"/>
    <path d="M 457.0,455.0 L 474.0,472.0 L 486.0,508.0 L 482.0,663.0 L 489.0,707.0"/>
    <path d="M 492.0,458.0 L 519.0,468.0 L 556.0,468.0 L 746.0,421.0 L 770.0,422.0 L 786.0,431.0 L 808.0,456.0 L 807.0,616.0 L 799.0,683.0"/>
    <path d="M 566.0,387.0 L 591.0,410.0 L 590.0,470.0 L 575.0,526.0 L 550.0,568.0"/>
    <path d="M 649.0,373.0 L 676.0,387.0 L 671.0,491.0 L 685.0,531.0 L 746.0,536.0 L 760.0,531.0"/>
    <path d="M 560.0,613.0 L 668.0,589.0 L 701.0,593.0"/>
    <path d="M 510.0,688.0 L 522.0,679.0 L 687.0,652.0 L 748.0,645.0 L 768.0,655.0"/>
    <path d="M 378.0,804.0 L 429.0,812.0 L 620.0,782.0 L 826.0,763.0 L 860.0,765.0 L 914.0,780.0"/>
    <path d="M 672.0,695.0 L 713.0,736.0 L 714.0,949.0 L 705.0,1007.0 L 693.0,1028.0 L 679.0,1026.0 L 589.0,982.0"/>
    <path d="M 503.0,849.0 L 561.0,890.0 L 580.0,924.0"/>
  </g>
</svg>
