<svg xmlns="http://www.w3.org/2000/svg" viewBox="0 0 1024 1024">
  <g style="fill:none;stroke:#000000;stroke-width:50;stroke-linecap:round;stroke-linejoin:round;" transform="scale(1, 1) translate(0, 0)">
    <path d="M 99.0,486.0 L 154.0,484.0 L 216.0,471.0 L 298.0,444.0 L 341.0,441.0"/>
    <path d="M 216.0,237.0 L 241.0,254.0 L 261.0,282.0 L 248.0,605.0 L 250.0,893.0 L 243.0,923.0 L 228.0,949.0 L 178.0,924.0 L 144.0,902.0 L 143.0,895.0 L 132.0,894.0"/>
    <path d="M 47.0,764.0 L 97.0,762.0 L 162.0,701.0 L 315.0,576.0"/>
    <path d="M 414.0,312.0 L 497.0,297.0 L 517.0,299.0 L 530.0,313.0 L 495.0,416.0 L 445.0,504.0 L 376.0,589.0 L 306.0,643.0"/>
    <path d="M 372.0,403.0 L 421.0,440.0 L 434.0,459.0"/>
    <path d="M 742.0,234.0 L 709.0,236.0 L 661.0,303.0 L 638.0,324.0 L 637.0,333.0"/>
    <path d="M 803.0,271.0 L 818.0,307.0 L 716.0,400.0 L 706.0,398.0"/>
    <path d="M 569.0,323.0 L 585.0,322.0 L 612.0,337.0 L 641.0,374.0 L 728.0,461.0 L 797.0,520.0 L 851.0,557.0 L 983.0,568.0"/>
    <path d="M 409.0,603.0 L 493.0,585.0 L 520.0,605.0 L 500.0,660.0 L 477.0,679.0"/>
    <path d="M 423.0,703.0 L 432.0,710.0 L 468.0,701.0 L 513.0,705.0"/>
    <path d="M 374.0,690.0 L 393.0,713.0 L 398.0,729.0 L 380.0,810.0 L 393.0,814.0 L 465.0,797.0 L 493.0,804.0 L 509.0,823.0 L 477.0,944.0 L 444.0,997.0 L 418.0,1013.0 L 347.0,974.0"/>
    <path d="M 583.0,556.0 L 608.0,581.0 L 610.0,629.0 L 591.0,695.0 L 569.0,722.0 L 546.0,736.0"/>
    <path d="M 623.0,557.0 L 632.0,564.0 L 696.0,552.0 L 717.0,567.0 L 708.0,595.0 L 703.0,651.0 L 705.0,669.0 L 720.0,685.0 L 755.0,691.0 L 816.0,680.0 L 843.0,685.0"/>
    <path d="M 588.0,781.0 L 660.0,768.0 L 715.0,748.0 L 733.0,755.0 L 746.0,773.0 L 722.0,860.0 L 680.0,927.0 L 623.0,963.0 L 538.0,987.0"/>
    <path d="M 589.0,842.0 L 776.0,963.0 L 812.0,1000.0 L 827.0,1036.0"/>
  </g>
</svg>
