<svg xmlns="http://www.w3.org/2000/svg" viewBox="0 0 1024 1024">
  <g style="fill:none;stroke:#000000;stroke-width:50;stroke-linecap:round;stroke-linejoin:round;" transform="scale(1, 1) translate(0, 0)">
    <path d="M 143.0,500.0 L 213.0,498.0 L 333.0,462.0 L 382.0,459.0"/>
    <path d="M 265.0,234.0 L 282.0,242.0 L 313.0,274.0 L 301.0,584.0 L 304.0,915.0 L 297.0,946.0 L 281.0,976.0 L 222.0,953.0 L 186.0,933.0 L 184.0,926.0 L 173.0,926.0"/>
    <path d="M 54.0,780.0 L 101.0,785.0 L 374.0,592.0"/>
    <path d="M 534.0,270.0 L 571.0,311.0 L 574.0,437.0 L 562.0,445.0"/>
    <path d="M 664.0,183.0 L 684.0,198.0 L 701.0,222.0 L 688.0,390.0 L 683.0,415.0 L 668.0,431.0"/>
    <path d="M 427.0,349.0 L 476.0,382.0 L 490.0,411.0"/>
    <path d="M 819.0,257.0 L 833.0,291.0 L 742.0,363.0"/>
    <path d="M 412.0,489.0 L 460.0,494.0 L 609.0,462.0 L 840.0,429.0 L 876.0,429.0 L 924.0,441.0"/>
    <path d="M 507.0,521.0 L 549.0,553.0 L 559.0,575.0"/>
    <path d="M 690.0,472.0 L 709.0,498.0 L 687.0,546.0 L 654.0,579.0"/>
    <path d="M 471.0,617.0 L 513.0,623.0 L 721.0,585.0 L 761.0,582.0 L 788.0,587.0"/>
    <path d="M 493.0,712.0 L 549.0,707.0 L 715.0,672.0 L 744.0,671.0 L 767.0,678.0"/>
    <path d="M 400.0,797.0 L 437.0,805.0 L 646.0,770.0 L 825.0,750.0 L 894.0,765.0"/>
    <path d="M 580.0,634.0 L 618.0,662.0 L 617.0,695.0 L 599.0,798.0 L 563.0,889.0 L 532.0,933.0 L 488.0,972.0 L 432.0,1003.0 L 386.0,1018.0"/>
    <path d="M 632.0,798.0 L 635.0,809.0 L 736.0,919.0 L 827.0,1001.0 L 973.0,1027.0"/>
  </g>
</svg>
