<svg xmlns="http://www.w3.org/2000/svg" viewBox="0 0 1024 1024">
  <g style="fill:none;stroke:#000000;stroke-width:50;stroke-linecap:round;stroke-linejoin:round;" transform="scale(1, 1) translate(0, 0)">
    <path d="M 99.0,502.0 L 154.0,501.0 L 309.0,451.0 L 362.0,446.0"/>
    <path d="M 246.0,246.0 L 285.0,276.0 L 289.0,289.0 L 278.0,555.0 L 279.0,898.0 L 272.0,931.0 L 255.0,956.0 L 179.0,924.0 L 143.0,901.0 L 133.0,901.0"/>
    <path d="M 47.0,791.0 L 98.0,790.0 L 251.0,662.0 L 356.0,583.0"/>
    <path d="M 690.0,244.0 L 630.0,232.0 L 531.0,285.0 L 420.0,322.0"/>
    <path d="M 427.0,414.0 L 482.0,416.0 L 614.0,377.0 L 669.0,370.0"/>
    <path d="M 387.0,510.0 L 412.0,516.0 L 449.0,512.0 L 679.0,446.0 L 728.0,446.0"/>
    <path d="M 513.0,311.0 L 544.0,339.0 L 537.0,407.0 L 537.0,517.0 L 552.0,553.0 L 581.0,576.0 L 693.0,585.0 L 768.0,575.0 L 812.0,556.0 L 817.0,505.0 L 810.0,434.0"/>
    <path d="M 525.0,645.0 L 482.0,637.0 L 438.0,670.0 L 363.0,705.0 L 351.0,704.0 L 344.0,712.0"/>
    <path d="M 338.0,783.0 L 386.0,784.0 L 486.0,752.0 L 521.0,749.0"/>
    <path d="M 308.0,873.0 L 319.0,878.0 L 377.0,872.0 L 502.0,837.0 L 544.0,833.0"/>
    <path d="M 415.0,698.0 L 435.0,707.0 L 444.0,728.0 L 441.0,824.0 L 428.0,945.0 L 433.0,973.0 L 498.0,948.0 L 502.0,940.0 L 541.0,916.0"/>
    <path d="M 766.0,645.0 L 719.0,637.0 L 630.0,680.0 L 620.0,677.0 L 611.0,686.0 L 596.0,684.0"/>
    <path d="M 591.0,774.0 L 648.0,773.0 L 740.0,741.0 L 779.0,739.0"/>
    <path d="M 570.0,860.0 L 620.0,863.0 L 789.0,822.0 L 852.0,822.0"/>
    <path d="M 650.0,685.0 L 675.0,709.0 L 661.0,836.0 L 662.0,924.0 L 673.0,961.0 L 707.0,990.0 L 741.0,1003.0 L 812.0,1009.0 L 865.0,1003.0 L 908.0,988.0 L 934.0,967.0 L 934.0,853.0"/>
  </g>
</svg>
