<svg xmlns="http://www.w3.org/2000/svg" viewBox="0 0 1024 1024">
  <g style="fill:none;stroke:#000000;stroke-width:50;stroke-linecap:round;stroke-linejoin:round;" transform="scale(1, 1) translate(0, 0)">
    <path d="M 119.0,491.0 L 143.0,496.0 L 180.0,492.0 L 305.0,454.0 L 350.0,453.0"/>
    <path d="M 238.0,218.0 L 262.0,233.0 L 280.0,257.0 L 266.0,595.0 L 267.0,886.0 L 245.0,940.0 L 206.0,925.0 L 145.0,890.0"/>
    <path d="M 63.0,767.0 L 100.0,769.0 L 217.0,673.0 L 336.0,587.0"/>
    <path d="M 395.0,435.0 L 457.0,437.0 L 547.0,409.0 L 596.0,409.0"/>
    <path d="M 456.0,227.0 L 496.0,261.0 L 486.0,513.0 L 485.0,523.0 L 470.0,541.0"/>
    <path d="M 386.0,570.0 L 433.0,572.0 L 542.0,547.0 L 581.0,551.0"/>
    <path d="M 363.0,671.0 L 393.0,701.0 L 424.0,863.0"/>
    <path d="M 423.0,693.0 L 431.0,685.0 L 489.0,666.0 L 525.0,659.0 L 535.0,663.0 L 553.0,681.0 L 552.0,690.0 L 538.0,744.0 L 521.0,756.0"/>
    <path d="M 439.0,806.0 L 452.0,795.0 L 507.0,783.0 L 567.0,786.0"/>
    <path d="M 637.0,363.0 L 693.0,369.0 L 852.0,333.0 L 904.0,332.0"/>
    <path d="M 706.0,391.0 L 727.0,419.0 L 690.0,490.0 L 676.0,501.0"/>
    <path d="M 624.0,497.0 L 639.0,510.0 L 654.0,539.0 L 655.0,663.0 L 637.0,780.0 L 640.0,825.0"/>
    <path d="M 678.0,510.0 L 687.0,517.0 L 819.0,482.0 L 840.0,494.0 L 854.0,511.0 L 855.0,761.0 L 847.0,832.0"/>
    <path d="M 699.0,578.0 L 718.0,585.0 L 746.0,611.0 L 741.0,756.0 L 722.0,867.0 L 705.0,905.0 L 681.0,935.0 L 639.0,964.0 L 582.0,988.0 L 558.0,991.0"/>
    <path d="M 779.0,868.0 L 873.0,955.0 L 889.0,983.0 L 895.0,1015.0"/>
  </g>
</svg>
