<svg xmlns="http://www.w3.org/2000/svg" viewBox="0 0 1024 1024">
  <g style="fill:none;stroke:#000000;stroke-width:50;stroke-linecap:round;stroke-linejoin:round;" transform="scale(1, 1) translate(0, 0)">
    <path d="M 136.0,472.0 L 165.0,476.0 L 212.0,471.0 L 333.0,437.0 L 389.0,436.0"/>
    <path d="M 256.0,242.0 L 281.0,258.0 L 301.0,285.0 L 291.0,546.0 L 293.0,880.0 L 286.0,910.0 L 271.0,937.0 L 233.0,919.0 L 184.0,886.0 L 183.0,879.0 L 172.0,878.0"/>
    <path d="M 66.0,769.0 L 99.0,772.0 L 122.0,764.0 L 378.0,580.0"/>
    <path d="M 561.0,195.0 L 642.0,243.0 L 663.0,275.0"/>
    <path d="M 459.0,323.0 L 469.0,364.0 L 446.0,430.0 L 442.0,468.0"/>
    <path d="M 497.0,372.0 L 508.0,360.0 L 556.0,354.0 L 594.0,341.0 L 809.0,312.0 L 836.0,323.0 L 851.0,347.0 L 794.0,399.0"/>
    <path d="M 544.0,403.0 L 557.0,427.0 L 545.0,446.0 L 513.0,482.0 L 469.0,514.0"/>
    <path d="M 688.0,389.0 L 749.0,427.0 L 767.0,454.0"/>
    <path d="M 473.0,556.0 L 503.0,588.0 L 528.0,691.0"/>
    <path d="M 517.0,559.0 L 534.0,564.0 L 609.0,552.0 L 744.0,521.0 L 763.0,528.0 L 783.0,549.0 L 768.0,586.0 L 746.0,600.0"/>
    <path d="M 544.0,673.0 L 554.0,664.0 L 734.0,629.0 L 773.0,627.0 L 795.0,633.0"/>
    <path d="M 432.0,746.0 L 459.0,766.0 L 465.0,780.0 L 500.0,917.0"/>
    <path d="M 490.0,750.0 L 501.0,759.0 L 567.0,743.0 L 792.0,712.0 L 804.0,718.0 L 824.0,746.0 L 804.0,800.0 L 779.0,812.0"/>
    <path d="M 516.0,888.0 L 530.0,875.0 L 768.0,843.0 L 814.0,842.0 L 838.0,852.0"/>
    <path d="M 604.0,455.0 L 638.0,483.0 L 642.0,513.0 L 639.0,1075.0"/>
  </g>
</svg>
