<svg xmlns="http://www.w3.org/2000/svg" viewBox="0 0 1024 1024">
  <g style="fill:none;stroke:#000000;stroke-width:50;stroke-linecap:round;stroke-linejoin:round;" transform="scale(1, 1) translate(0, 0)">
    <path d="M 98.0,503.0 L 158.0,500.0 L 289.0,456.0 L 330.0,453.0"/>
    <path d="M 210.0,238.0 L 234.0,251.0 L 253.0,277.0 L 242.0,602.0 L 246.0,872.0 L 238.0,903.0 L 225.0,924.0 L 129.0,877.0"/>
    <path d="M 49.0,754.0 L 93.0,753.0 L 217.0,646.0 L 228.0,643.0 L 301.0,583.0"/>
    <path d="M 368.0,389.0 L 413.0,392.0 L 541.0,360.0 L 576.0,359.0"/>
    <path d="M 441.0,228.0 L 477.0,263.0 L 456.0,468.0 L 440.0,486.0"/>
    <path d="M 325.0,506.0 L 353.0,538.0 L 385.0,711.0"/>
    <path d="M 380.0,528.0 L 400.0,514.0 L 489.0,497.0 L 496.0,490.0 L 534.0,489.0 L 558.0,504.0 L 566.0,514.0 L 527.0,669.0 L 530.0,683.0"/>
    <path d="M 393.0,605.0 L 398.0,596.0 L 447.0,585.0 L 482.0,580.0 L 501.0,584.0"/>
    <path d="M 403.0,682.0 L 410.0,675.0 L 489.0,660.0 L 506.0,651.0"/>
    <path d="M 294.0,803.0 L 348.0,805.0 L 506.0,765.0 L 565.0,767.0"/>
    <path d="M 433.0,686.0 L 450.0,702.0 L 454.0,719.0 L 447.0,940.0 L 457.0,1005.0"/>
    <path d="M 688.0,231.0 L 700.0,237.0 L 718.0,264.0 L 713.0,283.0 L 667.0,388.0 L 621.0,464.0 L 597.0,492.0"/>
    <path d="M 726.0,327.0 L 729.0,341.0 L 790.0,409.0 L 873.0,487.0 L 921.0,500.0 L 996.0,509.0"/>
    <path d="M 615.0,550.0 L 658.0,552.0 L 777.0,522.0 L 817.0,524.0"/>
    <path d="M 564.0,724.0 L 620.0,727.0 L 827.0,687.0 L 866.0,687.0 L 909.0,697.0"/>
    <path d="M 676.0,573.0 L 709.0,594.0 L 715.0,605.0 L 715.0,1036.0"/>
  </g>
</svg>
