<svg xmlns="http://www.w3.org/2000/svg" viewBox="0 0 1024 1024">
  <g style="fill:none;stroke:#000000;stroke-width:50;stroke-linecap:round;stroke-linejoin:round;" transform="scale(1, 1) translate(0, 0)">
    <path d="M 106.0,518.0 L 130.0,521.0 L 167.0,515.0 L 285.0,474.0 L 330.0,470.0"/>
    <path d="M 220.0,250.0 L 245.0,266.0 L 265.0,293.0 L 257.0,432.0 L 258.0,906.0 L 252.0,936.0 L 236.0,965.0 L 207.0,955.0 L 137.0,917.0 L 135.0,910.0 L 125.0,909.0"/>
    <path d="M 57.0,767.0 L 101.0,766.0 L 303.0,596.0"/>
    <path d="M 548.0,362.0 L 569.0,380.0 L 582.0,404.0 L 600.0,570.0 L 590.0,579.0"/>
    <path d="M 604.0,377.0 L 621.0,382.0 L 643.0,378.0 L 744.0,346.0 L 763.0,347.0 L 785.0,361.0 L 794.0,374.0 L 793.0,387.0 L 772.0,522.0 L 769.0,537.0 L 750.0,557.0"/>
    <path d="M 652.0,437.0 L 670.0,461.0 L 672.0,476.0 L 674.0,557.0 L 665.0,563.0"/>
    <path d="M 698.0,469.0 L 705.0,458.0 L 732.0,454.0 L 757.0,440.0"/>
    <path d="M 500.0,600.0 L 520.0,616.0 L 525.0,634.0 L 529.0,702.0 L 522.0,781.0 L 527.0,819.0"/>
    <path d="M 544.0,606.0 L 561.0,611.0 L 654.0,586.0 L 817.0,562.0 L 842.0,564.0 L 855.0,572.0 L 867.0,593.0 L 858.0,642.0 L 856.0,751.0 L 843.0,823.0 L 834.0,837.0 L 773.0,813.0"/>
    <path d="M 590.0,665.0 L 610.0,681.0 L 633.0,792.0"/>
    <path d="M 634.0,673.0 L 652.0,674.0 L 707.0,656.0 L 738.0,658.0 L 751.0,674.0 L 737.0,718.0 L 718.0,729.0"/>
    <path d="M 648.0,775.0 L 664.0,766.0 L 708.0,757.0 L 746.0,754.0 L 768.0,760.0"/>
    <path d="M 373.0,386.0 L 434.0,425.0 L 457.0,463.0"/>
    <path d="M 302.0,640.0 L 333.0,638.0 L 373.0,620.0 L 401.0,615.0 L 420.0,628.0 L 419.0,652.0 L 393.0,725.0 L 431.0,805.0 L 427.0,836.0 L 417.0,844.0"/>
    <path d="M 310.0,873.0 L 353.0,881.0 L 405.0,861.0 L 455.0,862.0 L 679.0,953.0 L 781.0,981.0 L 889.0,971.0 L 970.0,955.0"/>
  </g>
</svg>
