<svg xmlns="http://www.w3.org/2000/svg" viewBox="0 0 1024 1024">
  <g style="fill:none;stroke:#000000;stroke-width:50;stroke-linecap:round;stroke-linejoin:round;" transform="scale(1, 1) translate(0, 0)">
    <path d="M 245.0,261.0 L 295.0,265.0 L 427.0,236.0 L 464.0,236.0"/>
    <path d="M 190.0,341.0 L 210.0,355.0 L 226.0,381.0 L 256.0,488.0"/>
    <path d="M 240.0,341.0 L 250.0,348.0 L 433.0,310.0 L 483.0,313.0 L 502.0,335.0 L 462.0,441.0 L 462.0,460.0"/>
    <path d="M 298.0,404.0 L 388.0,384.0 L 421.0,385.0"/>
    <path d="M 273.0,472.0 L 277.0,466.0 L 432.0,433.0"/>
    <path d="M 98.0,548.0 L 121.0,555.0 L 160.0,554.0 L 312.0,522.0 L 487.0,495.0 L 522.0,501.0"/>
    <path d="M 323.0,174.0 L 362.0,206.0 L 363.0,215.0 L 358.0,589.0 L 343.0,612.0"/>
    <path d="M 201.0,571.0 L 226.0,598.0 L 227.0,656.0 L 234.0,661.0 L 263.0,659.0 L 320.0,637.0 L 413.0,613.0 L 455.0,605.0 L 467.0,612.0"/>
    <path d="M 457.0,545.0 L 488.0,596.0 L 493.0,630.0"/>
    <path d="M 566.0,209.0 L 582.0,225.0 L 588.0,243.0 L 585.0,304.0 L 571.0,363.0 L 542.0,409.0"/>
    <path d="M 608.0,217.0 L 619.0,224.0 L 691.0,204.0 L 720.0,208.0 L 729.0,220.0 L 713.0,268.0 L 707.0,313.0 L 710.0,333.0 L 726.0,350.0 L 765.0,356.0 L 832.0,344.0 L 859.0,349.0"/>
    <path d="M 575.0,437.0 L 636.0,432.0 L 711.0,411.0 L 737.0,431.0 L 716.0,502.0 L 686.0,546.0 L 630.0,584.0 L 545.0,604.0"/>
    <path d="M 542.0,484.0 L 588.0,498.0 L 696.0,577.0 L 790.0,628.0 L 848.0,637.0 L 962.0,630.0"/>
    <path d="M 623.0,663.5 L 365.0,714.0"/>
    <path d="M 345.0,789.0 L 403.0,794.0 L 498.0,777.0 L 623.0,744.0 L 672.0,743.0"/>
    <path d="M 189.0,899.0 L 210.0,906.0 L 259.0,906.0 L 462.0,871.0 L 746.0,840.0 L 787.0,844.0 L 835.0,858.0"/>
    <path d="M 486.0,703.0 L 522.0,728.0 L 527.0,752.0 L 541.0,902.0 L 536.0,997.0 L 521.0,1035.0 L 507.0,1048.0 L 405.0,1007.0"/>
  </g>
</svg>
