<svg xmlns="http://www.w3.org/2000/svg" viewBox="0 0 1024 1024">
  <g style="fill:none;stroke:#000000;stroke-width:50;stroke-linecap:round;stroke-linejoin:round;" transform="scale(1, 1) translate(0, 0)">
    <path d="M 100.0,511.0 L 148.0,514.0 L 305.0,468.0 L 349.0,465.0"/>
    <path d="M 240.0,270.0 L 265.0,286.0 L 285.0,312.0 L 275.0,585.0 L 276.0,947.0 L 258.0,988.0 L 218.0,975.0 L 153.0,941.0"/>
    <path d="M 58.0,799.0 L 105.0,798.0 L 337.0,611.0"/>
    <path d="M 575.0,238.0 L 612.0,277.0 L 606.0,420.0 L 590.0,432.0"/>
    <path d="M 455.0,330.0 L 501.0,373.0 L 513.0,396.0"/>
    <path d="M 753.0,271.0 L 767.0,302.0 L 681.0,375.0"/>
    <path d="M 400.0,456.0 L 408.0,468.0 L 413.0,499.0 L 390.0,573.0 L 389.0,601.0"/>
    <path d="M 439.0,480.0 L 455.0,487.0 L 485.0,483.0 L 638.0,446.0 L 771.0,424.0 L 807.0,421.0 L 833.0,426.0 L 846.0,435.0 L 857.0,455.0 L 792.0,523.0"/>
    <path d="M 481.0,567.0 L 502.0,584.0 L 514.0,610.0 L 536.0,715.0"/>
    <path d="M 523.0,567.0 L 545.0,575.0 L 615.0,561.0 L 667.0,543.0 L 689.0,545.0 L 716.0,572.0 L 696.0,621.0 L 675.0,631.0"/>
    <path d="M 552.0,676.0 L 563.0,683.0 L 666.0,662.0 L 722.0,667.0"/>
    <path d="M 397.0,772.0 L 424.0,794.0 L 440.0,824.0 L 459.0,977.0 L 475.0,1029.0"/>
    <path d="M 450.0,780.0 L 479.0,793.0 L 754.0,738.0 L 798.0,745.0 L 822.0,771.0 L 790.0,974.0 L 770.0,1010.0 L 771.0,1067.0"/>
    <path d="M 516.0,889.0 L 571.0,884.0 L 658.0,864.0 L 690.0,863.0 L 711.0,869.0"/>
    <path d="M 575.0,794.0 L 602.0,814.0 L 607.0,836.0 L 604.0,950.0 L 590.0,965.0"/>
    <path d="M 494.0,994.0 L 505.0,1001.0 L 662.0,978.0 L 743.0,973.0"/>
  </g>
</svg>
