<svg xmlns="http://www.w3.org/2000/svg" viewBox="0 0 1024 1024">
  <g style="fill:none;stroke:#000000;stroke-width:50;stroke-linecap:round;stroke-linejoin:round;" transform="scale(1, 1) translate(0, 0)">
    <path d="M 103.0,495.0 L 170.0,492.0 L 288.0,452.0 L 330.0,449.0"/>
    <path d="M 224.0,250.0 L 246.0,263.0 L 264.0,289.0 L 250.0,616.0 L 251.0,904.0 L 230.0,957.0 L 133.0,909.0"/>
    <path d="M 46.0,772.0 L 92.0,772.0 L 224.0,659.0 L 274.0,628.0 L 319.0,587.0"/>
    <path d="M 371.0,345.0 L 414.0,378.0 L 428.0,410.0"/>
    <path d="M 599.0,298.0 L 610.0,321.0 L 552.0,376.0"/>
    <path d="M 351.0,481.0 L 393.0,484.0 L 566.0,440.0 L 614.0,440.0"/>
    <path d="M 467.0,244.0 L 506.0,280.0 L 497.0,433.0 L 495.0,595.0 L 500.0,632.0"/>
    <path d="M 476.0,485.0 L 401.0,587.0 L 322.0,644.0"/>
    <path d="M 539.0,515.0 L 576.0,543.0 L 591.0,563.0"/>
    <path d="M 441.0,657.0 L 453.0,668.0 L 461.0,688.0 L 417.0,846.0 L 533.0,926.0 L 580.0,989.0"/>
    <path d="M 527.0,700.0 L 555.0,726.0 L 555.0,737.0 L 541.0,814.0 L 508.0,883.0 L 454.0,934.0 L 384.0,969.0 L 321.0,986.0"/>
    <path d="M 305.0,763.0 L 343.0,778.0 L 516.0,737.0 L 520.0,729.0"/>
    <path d="M 698.0,277.0 L 734.0,309.0 L 731.0,347.0 L 704.0,441.0 L 674.0,518.0 L 630.0,608.0 L 608.0,638.0"/>
    <path d="M 671.0,568.0 L 734.0,564.0 L 856.0,530.0 L 902.0,529.0"/>
    <path d="M 743.0,595.0 L 769.0,612.0 L 769.0,626.0 L 758.0,720.0 L 732.0,805.0 L 703.0,857.0 L 685.0,877.0 L 644.0,910.0 L 594.0,934.0 L 592.0,940.0"/>
    <path d="M 618.0,691.0 L 654.0,717.0 L 752.0,860.0 L 814.0,927.0 L 854.0,954.0 L 970.0,982.0"/>
  </g>
</svg>
