<svg xmlns="http://www.w3.org/2000/svg" viewBox="0 0 1024 1024">
  <g style="fill:none;stroke:#000000;stroke-width:50;stroke-linecap:round;stroke-linejoin:round;" transform="scale(1, 1) translate(0, 0)">
    <path d="M 102.0,498.0 L 152.0,498.0 L 307.0,454.0 L 354.0,452.0"/>
    <path d="M 230.0,208.0 L 257.0,226.0 L 278.0,253.0 L 268.0,531.0 L 270.0,892.0 L 263.0,922.0 L 250.0,944.0 L 208.0,927.0 L 160.0,894.0"/>
    <path d="M 48.0,757.0 L 101.0,759.0 L 216.0,673.0 L 350.0,586.0"/>
    <path d="M 487.0,309.0 L 539.0,314.0 L 610.0,304.0 L 716.0,276.0 L 768.0,273.0"/>
    <path d="M 588.0,163.0 L 628.0,198.0 L 628.0,346.0 L 613.0,372.0"/>
    <path d="M 509.0,413.0 L 542.0,412.0 L 698.0,379.0 L 747.0,382.0"/>
    <path d="M 475.0,474.0 L 508.0,498.0 L 541.0,586.0"/>
    <path d="M 523.0,473.0 L 532.0,480.0 L 551.0,480.0 L 638.0,462.0 L 674.0,448.0 L 716.0,447.0 L 738.0,471.0 L 716.0,509.0 L 700.0,513.0"/>
    <path d="M 552.0,571.0 L 576.0,558.0 L 686.0,541.0 L 735.0,550.0"/>
    <path d="M 403.0,612.0 L 412.0,633.0 L 410.0,657.0 L 386.0,713.0 L 379.0,753.0"/>
    <path d="M 436.0,635.0 L 452.0,650.0 L 483.0,648.0 L 626.0,613.0 L 825.0,589.0 L 851.0,603.0 L 864.0,626.0 L 794.0,698.0"/>
    <path d="M 498.0,694.0 L 537.0,699.0 L 673.0,671.0 L 722.0,668.0"/>
    <path d="M 599.0,737.0 L 582.0,735.0 L 567.0,742.0 L 515.0,796.0 L 505.0,818.0 L 531.0,826.0 L 674.0,789.0 L 707.0,784.0 L 724.0,789.0"/>
    <path d="M 697.0,734.0 L 759.0,784.0 L 771.0,811.0"/>
    <path d="M 496.0,911.0 L 561.0,917.0 L 680.0,888.0 L 735.0,887.0"/>
    <path d="M 584.0,830.0 L 606.0,844.0 L 615.0,860.0 L 612.0,965.0 L 595.0,979.0"/>
    <path d="M 375.0,1024.0 L 428.0,1033.0 L 783.0,994.0 L 841.0,997.0 L 884.0,1010.0"/>
  </g>
</svg>
