<svg xmlns="http://www.w3.org/2000/svg" viewBox="0 0 1024 1024">
  <g style="fill:none;stroke:#000000;stroke-width:50;stroke-linecap:round;stroke-linejoin:round;" transform="scale(1, 1) translate(0, 0)">
    <path d="M 83.0,519.0 L 138.0,518.0 L 270.0,482.0 L 309.0,480.0"/>
    <path d="M 205.0,214.0 L 230.0,230.0 L 249.0,253.0 L 239.0,460.0 L 242.0,890.0 L 222.0,943.0 L 129.0,898.0"/>
    <path d="M 32.0,768.0 L 70.0,770.0 L 209.0,668.0 L 266.0,636.0 L 294.0,611.0"/>
    <path d="M 550.0,317.0 L 510.0,315.0 L 460.0,344.0 L 418.0,359.0 L 410.0,356.0 L 404.0,364.0"/>
    <path d="M 364.0,248.0 L 383.0,269.0 L 385.0,280.0 L 379.0,369.0 L 384.0,417.0 L 393.0,439.0 L 409.0,455.0 L 476.0,469.0 L 523.0,453.0 L 539.0,439.0 L 548.0,379.0"/>
    <path d="M 384.0,506.0 L 400.0,527.0 L 389.0,560.0 L 352.0,624.0 L 319.0,655.0"/>
    <path d="M 386.0,608.0 L 509.0,566.0 L 534.0,565.0"/>
    <path d="M 290.0,723.0 L 330.0,726.0 L 472.0,682.0 L 537.0,676.0"/>
    <path d="M 415.0,616.0 L 440.0,634.0 L 424.0,750.0 L 388.0,818.0 L 371.0,838.0 L 338.0,869.0 L 308.0,886.0"/>
    <path d="M 451.0,736.0 L 488.0,761.0 L 505.0,787.0"/>
    <path d="M 583.0,317.0 L 618.0,328.0 L 731.0,289.0 L 772.0,296.0 L 787.0,313.0 L 777.0,332.0 L 722.0,391.0 L 718.0,402.0 L 707.0,401.0"/>
    <path d="M 629.0,397.0 L 701.0,435.0 L 724.0,464.0"/>
    <path d="M 560.0,548.0 L 601.0,549.0 L 764.0,503.0 L 813.0,498.0 L 840.0,518.0 L 791.0,582.0"/>
    <path d="M 674.0,550.0 L 702.0,570.0 L 700.0,782.0 L 716.0,811.0"/>
    <path d="M 731.0,700.0 L 750.0,685.0 L 772.0,681.0 L 811.0,677.0 L 836.0,683.0"/>
    <path d="M 582.0,662.0 L 604.0,691.0 L 582.0,774.0 L 536.0,852.0 L 489.0,900.0 L 453.0,925.0"/>
    <path d="M 617.0,759.0 L 631.0,781.0 L 667.0,809.0 L 826.0,911.0 L 883.0,918.0 L 999.0,917.0"/>
  </g>
</svg>
