<svg xmlns="http://www.w3.org/2000/svg" viewBox="0 0 1024 1024">
  <g style="fill:none;stroke:#000000;stroke-width:50;stroke-linecap:round;stroke-linejoin:round;" transform="scale(1, 1) translate(0, 0)">
    <path d="M 107.0,503.0 L 159.0,502.0 L 307.0,457.0 L 353.0,452.0"/>
    <path d="M 237.0,226.0 L 262.0,242.0 L 281.0,265.0 L 271.0,552.0 L 275.0,887.0 L 256.0,942.0 L 157.0,905.0"/>
    <path d="M 41.0,751.0 L 85.0,753.0 L 324.0,568.0"/>
    <path d="M 385.0,312.0 L 414.0,349.0 L 419.0,410.0 L 412.0,775.0 L 398.0,883.0 L 404.0,939.0"/>
    <path d="M 438.0,324.0 L 461.0,327.0 L 524.0,307.0 L 540.0,309.0 L 560.0,329.0 L 551.0,368.0 L 540.0,502.0 L 536.0,518.0 L 525.0,518.0"/>
    <path d="M 444.0,443.0 L 453.0,432.0 L 466.0,429.0 L 490.0,426.0 L 506.0,431.0"/>
    <path d="M 436.0,533.0 L 450.0,521.0 L 511.0,507.0"/>
    <path d="M 667.0,261.0 L 689.0,284.0 L 698.0,306.0 L 703.0,416.0 L 715.0,493.0"/>
    <path d="M 708.0,268.0 L 718.0,276.0 L 740.0,278.0 L 843.0,253.0 L 870.0,269.0 L 883.0,285.0 L 881.0,397.0 L 893.0,782.0 L 890.0,967.0 L 872.0,1000.0 L 841.0,994.0 L 775.0,968.0"/>
    <path d="M 725.0,388.0 L 736.0,377.0 L 774.0,367.0 L 814.0,368.0"/>
    <path d="M 734.0,467.0 L 743.0,456.0 L 819.0,443.0 L 837.0,442.0 L 850.0,452.0"/>
    <path d="M 618.0,542.0 L 598.0,549.0 L 580.0,586.0 L 545.0,635.0 L 503.0,674.0"/>
    <path d="M 612.0,586.0 L 630.0,574.0 L 664.0,568.0 L 697.0,574.0 L 704.0,581.0 L 696.0,603.0 L 672.0,636.0 L 606.0,709.0 L 541.0,763.0 L 491.0,794.0 L 481.0,792.0 L 478.0,802.0"/>
    <path d="M 568.0,634.0 L 604.0,656.0 L 608.0,665.0 L 743.0,732.0 L 852.0,733.0"/>
    <path d="M 532.0,787.0 L 554.0,802.0 L 577.0,924.0"/>
    <path d="M 575.0,804.0 L 596.0,792.0 L 633.0,789.0 L 657.0,779.0 L 686.0,779.0 L 703.0,797.0 L 688.0,843.0 L 674.0,847.0"/>
    <path d="M 591.0,900.0 L 602.0,890.0 L 667.0,879.0 L 715.0,887.0"/>
  </g>
</svg>
