<svg xmlns="http://www.w3.org/2000/svg" viewBox="0 0 1024 1024">
  <g style="fill:none;stroke:#000000;stroke-width:50;stroke-linecap:round;stroke-linejoin:round;" transform="scale(1, 1) translate(0, 0)">
    <path d="M 95.0,503.0 L 150.0,502.0 L 304.0,453.0 L 350.0,449.0"/>
    <path d="M 240.0,198.0 L 265.0,214.0 L 285.0,240.0 L 275.0,587.0 L 279.0,890.0 L 273.0,921.0 L 259.0,949.0 L 157.0,909.0"/>
    <path d="M 43.0,779.0 L 89.0,779.0 L 335.0,561.0"/>
    <path d="M 549.0,183.0 L 625.0,230.0 L 642.0,258.0"/>
    <path d="M 417.0,339.0 L 429.0,368.0 L 406.0,438.0 L 401.0,474.0"/>
    <path d="M 456.0,382.0 L 534.0,357.0 L 653.0,330.0 L 758.0,310.0 L 789.0,315.0 L 801.0,323.0 L 809.0,342.0 L 760.0,385.0"/>
    <path d="M 471.0,461.0 L 459.0,506.0 L 435.0,560.0"/>
    <path d="M 520.0,472.0 L 561.0,507.0 L 598.0,522.0 L 642.0,529.0 L 682.0,526.0 L 711.0,511.0 L 685.0,467.0 L 674.0,460.0 L 675.0,451.0 L 665.0,448.0"/>
    <path d="M 568.0,413.0 L 611.0,438.0 L 623.0,458.0"/>
    <path d="M 733.0,424.0 L 801.0,451.0 L 819.0,473.0"/>
    <path d="M 410.0,623.0 L 435.0,639.0 L 462.0,722.0 L 471.0,730.0"/>
    <path d="M 462.0,624.0 L 472.0,632.0 L 737.0,576.0 L 755.0,584.0 L 774.0,605.0 L 751.0,666.0 L 727.0,687.0"/>
    <path d="M 533.0,637.0 L 543.0,649.0 L 556.0,709.0 L 564.0,714.0"/>
    <path d="M 628.0,619.0 L 646.0,636.0 L 630.0,692.0 L 619.0,710.0"/>
    <path d="M 336.0,765.0 L 371.0,771.0 L 594.0,728.0 L 857.0,691.0 L 933.0,703.0"/>
    <path d="M 433.0,832.0 L 466.0,834.0 L 749.0,780.0 L 779.0,780.0 L 822.0,790.0"/>
    <path d="M 610.0,827.0 L 639.0,849.0 L 641.0,989.0 L 629.0,1029.0 L 614.0,1043.0 L 528.0,1005.0"/>
  </g>
</svg>
