<svg xmlns="http://www.w3.org/2000/svg" viewBox="0 0 1024 1024">
  <g style="fill:none;stroke:#000000;stroke-width:50;stroke-linecap:round;stroke-linejoin:round;" transform="scale(1, 1) translate(0, 0)">
    <path d="M 107.0,516.0 L 173.0,515.0 L 308.0,476.0 L 354.0,475.0"/>
    <path d="M 224.0,222.0 L 265.0,253.0 L 270.0,266.0 L 263.0,628.0 L 270.0,922.0 L 264.0,952.0 L 249.0,981.0 L 141.0,933.0"/>
    <path d="M 42.0,816.0 L 90.0,811.0 L 340.0,579.0"/>
    <path d="M 606.0,209.0 L 674.0,245.0 L 707.0,282.0"/>
    <path d="M 544.0,375.0 L 600.0,378.0 L 802.0,328.0 L 856.0,325.0"/>
    <path d="M 572.0,425.0 L 610.0,462.0 L 618.0,479.0"/>
    <path d="M 726.0,377.0 L 745.0,396.0 L 707.0,473.0 L 691.0,490.0"/>
    <path d="M 523.0,525.0 L 542.0,542.0 L 547.0,555.0 L 551.0,620.0 L 545.0,739.0 L 529.0,813.0 L 529.0,854.0"/>
    <path d="M 563.0,531.0 L 587.0,533.0 L 782.0,482.0 L 817.0,505.0 L 815.0,556.0 L 830.0,774.0 L 827.0,823.0 L 818.0,846.0 L 807.0,861.0 L 800.0,861.0 L 767.0,846.0 L 736.0,821.0"/>
    <path d="M 585.0,621.0 L 628.0,621.0 L 703.0,595.0 L 749.0,589.0"/>
    <path d="M 663.0,528.0 L 679.0,542.0 L 660.0,673.0 L 649.0,683.0"/>
    <path d="M 587.0,693.0 L 606.0,708.0 L 625.0,808.0"/>
    <path d="M 629.0,708.0 L 692.0,685.0 L 720.0,686.0 L 731.0,700.0 L 717.0,747.0 L 699.0,755.0"/>
    <path d="M 642.0,795.0 L 646.0,788.0 L 687.0,781.0 L 742.0,779.0"/>
    <path d="M 393.0,370.0 L 450.0,400.0 L 474.0,432.0"/>
    <path d="M 338.0,624.0 L 384.0,617.0 L 405.0,601.0 L 437.0,591.0 L 460.0,608.0 L 448.0,651.0 L 417.0,703.0 L 411.0,724.0 L 412.0,739.0 L 439.0,785.0 L 452.0,821.0 L 448.0,857.0 L 434.0,872.0"/>
    <path d="M 332.0,882.0 L 348.0,891.0 L 372.0,894.0 L 406.0,890.0 L 455.0,896.0 L 709.0,979.0 L 795.0,997.0 L 827.0,995.0 L 979.0,962.0"/>
  </g>
</svg>
