<svg xmlns="http://www.w3.org/2000/svg" viewBox="0 0 1024 1024">
  <g style="fill:none;stroke:#000000;stroke-width:50;stroke-linecap:round;stroke-linejoin:round;" transform="scale(1, 1) translate(0, 0)">
    <path d="M 127.0,500.0 L 174.0,502.0 L 323.0,455.0 L 355.0,449.0 L 382.0,454.0"/>
    <path d="M 248.0,202.0 L 273.0,218.0 L 293.0,242.0 L 284.0,440.0 L 286.0,909.0 L 273.0,953.0 L 261.0,965.0 L 176.0,922.0 L 175.0,915.0 L 164.0,914.0"/>
    <path d="M 40.0,768.0 L 83.0,772.0 L 229.0,668.0 L 328.0,610.0 L 350.0,591.0"/>
    <path d="M 404.0,266.0 L 443.0,306.0 L 478.0,409.0"/>
    <path d="M 430.0,262.0 L 469.0,274.0 L 632.0,243.0 L 769.0,227.0 L 800.0,230.0 L 815.0,240.0 L 830.0,270.0 L 764.0,386.0"/>
    <path d="M 555.0,282.0 L 551.0,288.0 L 570.0,341.0 L 584.0,359.0"/>
    <path d="M 671.0,258.0 L 689.0,276.0 L 668.0,337.0 L 660.0,339.0"/>
    <path d="M 492.0,401.0 L 501.0,392.0 L 519.0,388.0 L 707.0,361.0 L 743.0,362.0"/>
    <path d="M 492.0,430.0 L 504.0,446.0 L 507.0,464.0 L 471.0,516.0 L 439.0,548.0 L 430.0,569.0 L 454.0,573.0 L 544.0,544.0 L 567.0,545.0"/>
    <path d="M 553.0,490.0 L 593.0,536.0 L 601.0,573.0"/>
    <path d="M 417.0,640.0 L 441.0,674.0 L 441.0,731.0 L 410.0,967.0"/>
    <path d="M 457.0,645.0 L 477.0,650.0 L 543.0,632.0 L 559.0,637.0 L 578.0,656.0 L 575.0,757.0 L 581.0,893.0 L 575.0,947.0 L 562.0,968.0 L 493.0,939.0"/>
    <path d="M 464.0,747.0 L 472.0,735.0 L 517.0,728.0 L 537.0,732.0"/>
    <path d="M 458.0,821.0 L 466.0,809.0 L 485.0,804.0 L 532.0,807.0"/>
    <path d="M 819.0,464.0 L 793.0,454.0 L 702.0,502.0"/>
    <path d="M 664.0,405.0 L 683.0,426.0 L 686.0,440.0 L 685.0,544.0 L 699.0,576.0 L 718.0,590.0 L 753.0,599.0 L 797.0,598.0 L 851.0,577.0 L 862.0,565.0 L 862.0,485.0"/>
    <path d="M 821.0,667.0 L 828.0,704.0 L 742.0,762.0 L 708.0,778.0 L 704.0,789.0"/>
    <path d="M 655.0,659.0 L 680.0,688.0 L 675.0,833.0 L 682.0,888.0 L 694.0,918.0 L 719.0,938.0 L 753.0,950.0 L 806.0,955.0 L 868.0,945.0 L 905.0,928.0 L 924.0,910.0 L 924.0,801.0"/>
  </g>
</svg>
