<svg xmlns="http://www.w3.org/2000/svg" viewBox="0 0 1024 1024">
  <g style="fill:none;stroke:#000000;stroke-width:50;stroke-linecap:round;stroke-linejoin:round;" transform="scale(1, 1) translate(0, 0)">
    <path d="M 103.0,459.0 L 126.0,463.0 L 163.0,458.0 L 307.0,413.0 L 353.0,408.0"/>
    <path d="M 244.0,214.0 L 269.0,230.0 L 289.0,257.0 L 276.0,532.0 L 273.0,894.0 L 254.0,936.0 L 133.0,885.0"/>
    <path d="M 45.0,741.0 L 92.0,744.0 L 348.0,555.0"/>
    <path d="M 501.0,255.0 L 544.0,261.0 L 622.0,251.0 L 703.0,229.0 L 762.0,229.0"/>
    <path d="M 399.0,349.0 L 412.0,373.0 L 415.0,394.0 L 393.0,468.0 L 393.0,501.0"/>
    <path d="M 440.0,372.0 L 452.0,380.0 L 467.0,379.0 L 692.0,334.0 L 805.0,321.0 L 839.0,335.0 L 852.0,354.0 L 793.0,423.0"/>
    <path d="M 586.0,281.0 L 614.0,305.0 L 609.0,504.0"/>
    <path d="M 486.0,431.0 L 544.0,457.0"/>
    <path d="M 480.0,500.0 L 519.0,517.0 L 537.0,532.0"/>
    <path d="M 670.0,411.0 L 712.0,423.0 L 744.0,441.0"/>
    <path d="M 669.0,491.0 L 725.0,512.0 L 747.0,527.0"/>
    <path d="M 471.0,567.0 L 494.0,605.0 L 473.0,647.0 L 425.0,716.0 L 370.0,776.0 L 331.0,808.0"/>
    <path d="M 472.0,704.0 L 470.0,724.0 L 483.0,757.0 L 483.0,801.0 L 466.0,991.0 L 471.0,1037.0"/>
    <path d="M 608.0,545.0 L 662.0,576.0 L 676.0,596.0"/>
    <path d="M 548.0,663.0 L 571.0,668.0 L 613.0,665.0 L 767.0,627.0 L 809.0,626.0"/>
    <path d="M 555.0,773.0 L 600.0,769.0 L 742.0,736.0 L 780.0,740.0"/>
    <path d="M 552.0,866.0 L 624.0,859.0 L 742.0,835.0 L 784.0,839.0"/>
    <path d="M 632.0,683.0 L 659.0,702.0 L 663.0,720.0 L 658.0,910.0 L 642.0,931.0"/>
    <path d="M 506.0,964.0 L 512.0,971.0 L 529.0,973.0 L 798.0,938.0 L 843.0,942.0 L 874.0,952.0"/>
  </g>
</svg>
