<svg xmlns="http://www.w3.org/2000/svg" viewBox="0 0 1024 1024">
  <g style="fill:none;stroke:#000000;stroke-width:50;stroke-linecap:round;stroke-linejoin:round;" transform="scale(1, 1) translate(0, 0)">
    <path d="M 87.0,487.0 L 114.0,490.0 L 154.0,484.0 L 307.0,437.0 L 336.0,436.0"/>
    <path d="M 236.0,222.0 L 261.0,238.0 L 281.0,265.0 L 271.0,577.0 L 276.0,906.0 L 270.0,937.0 L 254.0,968.0 L 137.0,921.0"/>
    <path d="M 53.0,782.0 L 97.0,784.0 L 333.0,588.0"/>
    <path d="M 403.0,321.0 L 420.0,343.0 L 413.0,366.0 L 385.0,418.0 L 363.0,443.0"/>
    <path d="M 430.0,389.0 L 560.0,356.0 L 588.0,358.0"/>
    <path d="M 485.0,231.0 L 518.0,263.0 L 506.0,421.0 L 494.0,437.0"/>
    <path d="M 364.0,484.0 L 403.0,482.0 L 543.0,445.0 L 581.0,447.0"/>
    <path d="M 441.0,491.0 L 458.0,513.0 L 448.0,542.0 L 410.0,604.0 L 374.0,637.0"/>
    <path d="M 515.0,474.0 L 532.0,487.0 L 527.0,531.0 L 531.0,568.0 L 554.0,560.0 L 602.0,528.0 L 603.0,517.0 L 619.0,512.0"/>
    <path d="M 639.0,282.0 L 653.0,308.0 L 625.0,374.0 L 599.0,403.0"/>
    <path d="M 660.0,353.0 L 670.0,346.0 L 717.0,343.0 L 793.0,320.0 L 836.0,317.0"/>
    <path d="M 709.0,207.0 L 740.0,236.0 L 731.0,380.0 L 720.0,403.0"/>
    <path d="M 618.0,441.0 L 645.0,441.0 L 807.0,402.0 L 854.0,399.0 L 881.0,406.0"/>
    <path d="M 679.0,448.0 L 694.0,469.0 L 684.0,495.0 L 646.0,554.0 L 610.0,589.0"/>
    <path d="M 756.0,443.0 L 771.0,474.0 L 765.0,512.0 L 769.0,542.0 L 784.0,560.0 L 809.0,571.0 L 868.0,573.0 L 906.0,555.0 L 913.0,482.0"/>
    <path d="M 465.0,636.0 L 480.0,649.0 L 494.0,676.0 L 492.0,795.0 L 481.0,855.0 L 484.0,900.0"/>
    <path d="M 516.0,650.0 L 527.0,658.0 L 597.0,648.0 L 695.0,622.0 L 728.0,634.0 L 744.0,655.0 L 742.0,819.0 L 734.0,883.0"/>
    <path d="M 565.0,716.0 L 582.0,723.0 L 608.0,749.0 L 601.0,846.0 L 590.0,900.0 L 571.0,951.0 L 552.0,981.0 L 516.0,1008.0 L 446.0,1038.0 L 408.0,1047.0 L 402.0,1043.0"/>
    <path d="M 663.0,915.0 L 761.0,1003.0 L 785.0,1053.0"/>
  </g>
</svg>
