<svg xmlns="http://www.w3.org/2000/svg" viewBox="0 0 1024 1024">
  <g style="fill:none;stroke:#000000;stroke-width:50;stroke-linecap:round;stroke-linejoin:round;" transform="scale(1, 1) translate(0, 0)">
    <path d="M 123.0,499.0 L 170.0,501.0 L 321.0,454.0 L 373.0,448.0"/>
    <path d="M 244.0,222.0 L 269.0,238.0 L 289.0,261.0 L 279.0,622.0 L 283.0,922.0 L 261.0,981.0 L 153.0,929.0"/>
    <path d="M 70.0,779.0 L 116.0,778.0 L 360.0,586.0"/>
    <path d="M 565.0,185.0 L 623.0,214.0 L 647.0,246.0"/>
    <path d="M 439.0,325.0 L 479.0,331.0 L 721.0,287.0 L 775.0,282.0 L 804.0,287.0"/>
    <path d="M 418.0,403.0 L 446.0,429.0 L 465.0,515.0"/>
    <path d="M 468.0,403.0 L 475.0,410.0 L 557.0,390.0 L 579.0,409.0 L 570.0,448.0 L 555.0,455.0"/>
    <path d="M 480.0,499.0 L 495.0,490.0 L 548.0,478.0 L 589.0,483.0"/>
    <path d="M 632.0,358.0 L 657.0,386.0 L 673.0,475.0"/>
    <path d="M 677.0,364.0 L 686.0,368.0 L 761.0,349.0 L 777.0,350.0 L 795.0,369.0 L 784.0,405.0 L 794.0,418.0"/>
    <path d="M 688.0,442.0 L 697.0,449.0 L 763.0,437.0 L 804.0,445.0"/>
    <path d="M 449.0,576.0 L 508.0,584.0 L 709.0,550.0 L 744.0,539.0 L 783.0,540.0"/>
    <path d="M 452.0,669.0 L 514.0,668.0 L 726.0,633.0 L 764.0,640.0"/>
    <path d="M 502.0,532.0 L 535.0,565.0 L 546.0,709.0 L 536.0,724.0"/>
    <path d="M 653.0,506.0 L 671.0,520.0 L 681.0,542.0 L 666.0,687.0 L 651.0,709.0"/>
    <path d="M 407.0,761.0 L 430.0,765.0 L 585.0,738.0 L 787.0,714.0 L 831.0,718.0 L 862.0,728.0"/>
    <path d="M 580.0,781.0 L 546.0,789.0 L 507.0,842.0 L 457.0,892.0 L 373.0,954.0 L 336.0,972.0"/>
    <path d="M 520.0,870.0 L 525.0,901.0 L 521.0,977.0 L 528.0,1009.0 L 551.0,1003.0 L 616.0,961.0 L 620.0,950.0 L 631.0,950.0 L 639.0,942.0"/>
    <path d="M 791.0,804.0 L 762.0,790.0 L 673.0,851.0"/>
    <path d="M 580.0,798.0 L 591.0,798.0 L 608.0,810.0 L 717.0,915.0 L 793.0,970.0 L 845.0,991.0 L 958.0,994.0"/>
  </g>
</svg>
