<svg xmlns="http://www.w3.org/2000/svg" viewBox="0 0 1024 1024">
  <g style="fill:none;stroke:#000000;stroke-width:50;stroke-linecap:round;stroke-linejoin:round;" transform="scale(1, 1) translate(0, 0)">
    <path d="M 79.0,495.0 L 126.0,497.0 L 286.0,450.0 L 317.0,448.0"/>
    <path d="M 222.0,222.0 L 246.0,237.0 L 265.0,263.0 L 254.0,429.0 L 251.0,922.0 L 243.0,955.0 L 229.0,978.0 L 121.0,925.0"/>
    <path d="M 42.0,755.0 L 86.0,756.0 L 202.0,659.0 L 332.0,562.0"/>
    <path d="M 391.0,321.0 L 408.0,343.0 L 404.0,357.0 L 374.0,417.0 L 352.0,443.0"/>
    <path d="M 418.0,387.0 L 477.0,379.0 L 550.0,357.0 L 588.0,358.0"/>
    <path d="M 469.0,239.0 L 498.0,267.0 L 491.0,418.0 L 478.0,441.0"/>
    <path d="M 354.0,489.0 L 416.0,480.0 L 532.0,447.0 L 581.0,447.0"/>
    <path d="M 433.0,494.0 L 446.0,504.0 L 450.0,517.0 L 440.0,543.0 L 402.0,602.0 L 366.0,637.0"/>
    <path d="M 506.0,477.0 L 520.0,485.0 L 524.0,496.0 L 518.0,534.0 L 523.0,572.0 L 546.0,564.0 L 594.0,532.0 L 595.0,521.0 L 611.0,516.0"/>
    <path d="M 635.0,282.0 L 649.0,308.0 L 621.0,374.0 L 595.0,403.0"/>
    <path d="M 655.0,352.0 L 758.0,332.0 L 791.0,318.0 L 830.0,317.0"/>
    <path d="M 702.0,200.0 L 738.0,231.0 L 730.0,380.0 L 717.0,403.0"/>
    <path d="M 618.0,441.0 L 641.0,441.0 L 828.0,399.0 L 881.0,406.0"/>
    <path d="M 669.0,450.0 L 686.0,474.0 L 677.0,499.0 L 648.0,554.0 L 614.0,589.0"/>
    <path d="M 756.0,443.0 L 771.0,474.0 L 765.0,512.0 L 768.0,540.0 L 781.0,559.0 L 811.0,572.0 L 867.0,573.0 L 896.0,563.0 L 911.0,551.0 L 913.0,482.0"/>
    <path d="M 463.0,633.0 L 483.0,658.0 L 489.0,709.0 L 477.0,865.0 L 481.0,914.0"/>
    <path d="M 513.0,665.0 L 522.0,657.0 L 694.0,621.0 L 715.0,625.0 L 739.0,647.0 L 745.0,663.0 L 739.0,716.0 L 739.0,834.0 L 731.0,897.0"/>
    <path d="M 512.0,738.0 L 522.0,729.0 L 564.0,718.0 L 638.0,706.0 L 657.0,711.0"/>
    <path d="M 508.0,808.0 L 519.0,800.0 L 563.0,791.0 L 649.0,781.0 L 668.0,787.0"/>
    <path d="M 505.0,894.0 L 516.0,886.0 L 551.0,880.0 L 686.0,864.0 L 700.0,880.0"/>
    <path d="M 562.0,959.0 L 532.0,959.0 L 472.0,1014.0 L 420.0,1047.0 L 367.0,1069.0"/>
    <path d="M 679.0,924.0 L 734.0,968.0 L 778.0,1013.0 L 800.0,1061.0 L 799.0,1071.0"/>
  </g>
</svg>
