<svg xmlns="http://www.w3.org/2000/svg" viewBox="0 0 1024 1024">
  <g style="fill:none;stroke:#000000;stroke-width:50;stroke-linecap:round;stroke-linejoin:round;" transform="scale(1, 1) translate(0, 0)">
    <path d="M 82.0,517.0 L 135.0,515.0 L 289.0,468.0 L 317.0,467.0"/>
    <path d="M 218.0,254.0 L 242.0,269.0 L 256.0,284.0 L 261.0,300.0 L 250.0,452.0 L 247.0,902.0 L 227.0,956.0 L 133.0,917.0"/>
    <path d="M 49.0,771.0 L 96.0,770.0 L 298.0,600.0"/>
    <path d="M 349.0,425.0 L 372.0,427.0 L 419.0,418.0 L 577.0,378.0 L 607.0,382.0"/>
    <path d="M 375.0,322.0 L 389.0,326.0 L 410.0,345.0 L 434.0,535.0"/>
    <path d="M 525.0,209.0 L 557.0,242.0 L 526.0,458.0 L 509.0,478.0"/>
    <path d="M 458.0,524.0 L 462.0,515.0 L 501.0,502.0 L 534.0,496.0 L 554.0,499.0"/>
    <path d="M 329.0,601.0 L 351.0,615.0 L 358.0,628.0 L 392.0,732.0"/>
    <path d="M 372.0,601.0 L 390.0,606.0 L 522.0,572.0 L 573.0,569.0 L 597.0,590.0 L 579.0,641.0 L 562.0,652.0"/>
    <path d="M 404.0,698.0 L 413.0,705.0 L 556.0,676.0 L 604.0,680.0"/>
    <path d="M 368.0,785.0 L 410.0,789.0 L 535.0,758.0 L 572.0,756.0"/>
    <path d="M 294.0,874.0 L 320.0,880.0 L 356.0,878.0 L 539.0,839.0 L 576.0,835.0 L 600.0,840.0"/>
    <path d="M 445.0,546.0 L 465.0,555.0 L 479.0,571.0 L 471.0,744.0 L 457.0,816.0 L 431.0,892.0 L 400.0,941.0 L 342.0,1000.0 L 310.0,1018.0"/>
    <path d="M 512.0,898.0 L 549.0,928.0 L 565.0,954.0"/>
    <path d="M 700.0,228.0 L 712.0,234.0 L 732.0,261.0 L 722.0,301.0 L 674.0,406.0 L 624.0,489.0 L 611.0,496.0 L 597.0,519.0"/>
    <path d="M 647.0,488.0 L 659.0,491.0 L 675.0,525.0 L 669.0,841.0 L 658.0,1011.0 L 670.0,1086.0"/>
    <path d="M 768.0,345.0 L 830.0,384.0 L 844.0,412.0"/>
    <path d="M 736.0,510.0 L 789.0,512.0 L 891.0,481.0 L 938.0,478.0"/>
    <path d="M 739.0,633.0 L 789.0,636.0 L 869.0,613.0 L 904.0,613.0"/>
    <path d="M 732.0,741.0 L 786.0,743.0 L 876.0,720.0 L 908.0,720.0"/>
    <path d="M 794.0,532.0 L 820.0,553.0 L 822.0,595.0 L 821.0,823.0 L 806.0,846.0"/>
    <path d="M 693.0,881.0 L 738.0,885.0 L 914.0,852.0 L 974.0,862.0"/>
  </g>
</svg>
