<svg xmlns="http://www.w3.org/2000/svg" viewBox="0 0 1024 1024">
  <g style="fill:none;stroke:#000000;stroke-width:50;stroke-linecap:round;stroke-linejoin:round;" transform="scale(1, 1) translate(0, 0)">
    <path d="M 461.0,169.0 L 528.0,201.0 L 544.0,224.0"/>
    <path d="M 407.0,285.0 L 450.0,287.0 L 562.0,258.0 L 596.0,256.0"/>
    <path d="M 422.0,355.0 L 460.0,354.0 L 570.0,327.0"/>
    <path d="M 414.0,425.0 L 441.0,426.0 L 518.0,406.0 L 554.0,405.0"/>
    <path d="M 385.0,489.0 L 411.0,512.0 L 437.0,608.0"/>
    <path d="M 424.0,487.0 L 434.0,493.0 L 452.0,490.0 L 548.0,466.0 L 566.0,485.0 L 551.0,529.0 L 534.0,542.0"/>
    <path d="M 452.0,590.0 L 466.0,580.0 L 533.0,564.0 L 578.0,567.0"/>
    <path d="M 241.0,198.0 L 261.0,235.0 L 172.0,393.0 L 170.0,407.0 L 254.0,400.0 L 272.0,388.0"/>
    <path d="M 325.0,290.0 L 341.0,318.0 L 221.0,487.0 L 218.0,513.0 L 245.0,512.0 L 310.0,485.0 L 315.0,489.0"/>
    <path d="M 321.0,451.0 L 352.0,507.0"/>
    <path d="M 161.0,599.0 L 165.0,644.0 L 159.0,710.0"/>
    <path d="M 236.0,587.0 L 258.0,641.0 L 259.0,657.0"/>
    <path d="M 316.0,566.0 L 347.0,622.0"/>
    <path d="M 679.0,188.0 L 693.0,210.0 L 695.0,229.0 L 629.0,330.0 L 618.0,361.0 L 683.0,359.0 L 708.0,355.0 L 715.0,347.0"/>
    <path d="M 773.0,256.0 L 786.0,288.0 L 670.0,432.0 L 667.0,458.0 L 694.0,461.0 L 745.0,441.0 L 787.0,434.0"/>
    <path d="M 774.0,385.0 L 815.0,425.0 L 828.0,457.0"/>
    <path d="M 643.0,535.0 L 676.0,599.0"/>
    <path d="M 713.0,508.0 L 752.0,559.0 L 758.0,587.0"/>
    <path d="M 794.0,493.0 L 847.0,548.0 L 854.0,572.0"/>
    <path d="M 622.0,644.0 L 571.0,625.0 L 500.0,655.0 L 426.0,671.0 L 419.0,678.0 L 403.0,675.0 L 394.0,683.0 L 378.0,679.0 L 373.0,685.0 L 356.0,686.0 L 351.0,682.0 L 343.0,690.0 L 328.0,692.0"/>
    <path d="M 306.0,769.0 L 332.0,775.0 L 395.0,773.0 L 635.0,723.0 L 683.0,722.0"/>
    <path d="M 107.0,907.0 L 159.0,915.0 L 455.0,864.0 L 799.0,823.0 L 845.0,825.0 L 900.0,840.0"/>
    <path d="M 470.0,683.0 L 495.0,694.0 L 510.0,712.0 L 514.0,734.0 L 525.0,901.0 L 513.0,1018.0 L 501.0,1040.0 L 485.0,1054.0 L 377.0,1011.0"/>
  </g>
</svg>
