<svg xmlns="http://www.w3.org/2000/svg" viewBox="0 0 1024 1024">
  <g style="fill:none;stroke:#000000;stroke-width:50;stroke-linecap:round;stroke-linejoin:round;" transform="scale(1, 1) translate(0, 0)">
    <path d="M 400.0,258.0 L 419.0,271.0 L 443.0,305.0 L 422.0,363.0 L 385.0,444.0 L 322.0,556.0 L 258.0,653.0 L 218.0,696.0"/>
    <path d="M 396.0,490.0 L 413.0,484.0 L 505.0,478.0 L 684.0,432.0 L 747.0,430.0"/>
    <path d="M 540.0,502.0 L 577.0,527.0 L 578.0,539.0 L 563.0,615.0 L 531.0,719.0 L 508.0,774.0 L 480.0,820.0 L 434.0,870.0 L 373.0,910.0 L 260.0,951.0 L 193.0,959.0"/>
    <path d="M 325.0,600.0 L 344.0,603.0 L 364.0,623.0 L 507.0,808.0 L 577.0,883.0 L 639.0,937.0 L 733.0,965.0 L 859.0,990.0"/>
  </g>
</svg>
