<svg xmlns="http://www.w3.org/2000/svg" viewBox="0 0 1024 1024">
  <g style="fill:none;stroke:#000000;stroke-width:50;stroke-linecap:round;stroke-linejoin:round;" transform="scale(1, 1) translate(0, 0)">
    <path d="M 107.0,503.0 L 130.0,507.0 L 167.0,501.0 L 314.0,453.0 L 362.0,449.0"/>
    <path d="M 244.0,226.0 L 269.0,242.0 L 289.0,270.0 L 274.0,609.0 L 275.0,926.0 L 268.0,956.0 L 253.0,983.0 L 196.0,958.0 L 160.0,937.0 L 159.0,931.0 L 148.0,930.0"/>
    <path d="M 49.0,781.0 L 95.0,785.0 L 350.0,600.0"/>
    <path d="M 437.0,285.0 L 451.0,292.0 L 588.0,259.0 L 615.0,261.0"/>
    <path d="M 535.0,296.0 L 545.0,309.0 L 544.0,321.0 L 535.0,344.0 L 524.0,350.0"/>
    <path d="M 439.0,399.0 L 450.0,391.0 L 568.0,365.0 L 588.0,382.0 L 576.0,415.0 L 559.0,424.0"/>
    <path d="M 440.0,480.0 L 560.0,449.0 L 601.0,451.0"/>
    <path d="M 548.0,471.0 L 537.0,489.0 L 537.0,507.0 L 525.0,518.0"/>
    <path d="M 398.0,276.0 L 418.0,297.0 L 425.0,354.0 L 415.0,568.0 L 443.0,566.0 L 568.0,533.0 L 601.0,537.0"/>
    <path d="M 684.0,179.0 L 705.0,204.0 L 701.0,220.0 L 676.0,281.0 L 632.0,338.0"/>
    <path d="M 701.0,278.0 L 838.0,250.0 L 885.0,246.0"/>
    <path d="M 705.0,322.0 L 734.0,338.0 L 753.0,357.0"/>
    <path d="M 628.0,409.0 L 645.0,420.0 L 654.0,443.0 L 673.0,528.0"/>
    <path d="M 669.0,408.0 L 677.0,415.0 L 841.0,380.0 L 885.0,384.0 L 902.0,406.0 L 870.0,491.0 L 870.0,512.0"/>
    <path d="M 721.0,423.0 L 733.0,489.0"/>
    <path d="M 781.0,407.0 L 795.0,421.0 L 786.0,473.0 L 777.0,476.0"/>
    <path d="M 686.0,520.0 L 721.0,507.0 L 841.0,487.0"/>
    <path d="M 488.0,584.0 L 504.0,597.0 L 515.0,617.0 L 519.0,713.0 L 509.0,805.0 L 512.0,846.0"/>
    <path d="M 528.0,590.0 L 541.0,598.0 L 720.0,563.0 L 751.0,579.0 L 766.0,597.0 L 759.0,655.0 L 762.0,758.0 L 755.0,839.0"/>
    <path d="M 542.0,675.0 L 546.0,666.0 L 589.0,656.0 L 645.0,647.0 L 681.0,648.0"/>
    <path d="M 543.0,747.0 L 551.0,735.0 L 588.0,734.0 L 673.0,717.0 L 693.0,721.0"/>
    <path d="M 533.0,822.0 L 556.0,811.0 L 677.0,794.0 L 710.0,792.0 L 720.0,802.0"/>
    <path d="M 552.0,856.0 L 564.0,887.0 L 527.0,949.0 L 496.0,984.0 L 431.0,1033.0 L 361.0,1062.0"/>
    <path d="M 644.0,821.0 L 671.0,853.0 L 666.0,957.0 L 669.0,992.0 L 679.0,1017.0 L 712.0,1042.0 L 758.0,1055.0 L 803.0,1059.0 L 858.0,1054.0 L 905.0,1041.0 L 927.0,1028.0 L 942.0,1014.0 L 956.0,880.0"/>
  </g>
</svg>
