<svg xmlns="http://www.w3.org/2000/svg" viewBox="0 0 1024 1024">
  <g style="fill:none;stroke:#000000;stroke-width:50;stroke-linecap:round;stroke-linejoin:round;" transform="scale(1, 1) translate(0, 0)">
    <path d="M 295.0,244.0 L 401.0,299.0 L 437.0,343.0"/>
    <path d="M 126.0,524.0 L 175.0,531.0 L 447.0,473.0 L 507.0,479.0"/>
    <path d="M 336.0,641.0 L 355.0,636.0 L 420.0,655.0 L 440.0,669.0 L 454.0,692.0 L 391.0,882.0 L 362.0,934.0 L 325.0,965.0 L 223.0,902.0"/>
    <path d="M 314.0,535.0 L 337.0,554.0 L 338.0,565.0 L 286.0,675.0 L 215.0,777.0 L 171.0,828.0 L 121.0,880.0 L 59.0,930.0"/>
    <path d="M 626.0,219.0 L 648.0,233.0 L 664.0,254.0 L 644.0,359.0 L 626.0,414.0 L 592.0,482.0 L 520.0,580.0"/>
    <path d="M 592.0,525.0 L 615.0,515.0 L 727.0,500.0 L 827.0,469.0 L 860.0,465.0 L 889.0,471.0"/>
    <path d="M 688.0,537.0 L 720.0,554.0 L 731.0,574.0 L 719.0,674.0 L 683.0,782.0 L 645.0,841.0 L 604.0,881.0 L 538.0,921.0 L 467.0,945.0"/>
    <path d="M 530.0,660.0 L 579.0,692.0 L 712.0,865.0 L 806.0,951.0 L 896.0,979.0 L 989.0,998.0"/>
  </g>
</svg>
