<svg xmlns="http://www.w3.org/2000/svg" viewBox="0 0 1024 1024">
  <g style="fill:none;stroke:#000000;stroke-width:50;stroke-linecap:round;stroke-linejoin:round;" transform="scale(1, 1) translate(0, 0)">
    <path d="M 157.0,446.0 L 197.0,483.0 L 200.0,638.0 L 191.0,747.0 L 243.0,734.0 L 295.0,696.0 L 325.0,682.0 L 336.0,667.0"/>
    <path d="M 318.0,251.0 L 347.0,275.0 L 369.0,305.0 L 361.0,778.0 L 346.0,938.0 L 348.0,1026.0"/>
    <path d="M 589.0,213.0 L 610.0,228.0 L 628.0,255.0 L 611.0,315.0 L 582.0,388.0 L 534.0,481.0 L 476.0,562.0"/>
    <path d="M 538.0,516.0 L 617.0,505.0 L 830.0,440.0 L 866.0,439.0"/>
    <path d="M 658.0,524.0 L 684.0,538.0 L 698.0,558.0 L 698.0,608.0 L 681.0,712.0 L 650.0,783.0 L 608.0,835.0 L 556.0,874.0 L 482.0,912.0 L 399.0,937.0"/>
    <path d="M 463.0,621.0 L 503.0,640.0 L 522.0,657.0 L 684.0,845.0 L 779.0,922.0 L 982.0,964.0"/>
  </g>
</svg>
