<svg xmlns="http://www.w3.org/2000/svg" viewBox="0 0 1024 1024">
  <g style="fill:none;stroke:#000000;stroke-width:50;stroke-linecap:round;stroke-linejoin:round;" transform="scale(1, 1) translate(0, 0)">
    <path d="M 174.0,389.0 L 236.0,393.0 L 437.0,351.0 L 480.0,350.0"/>
    <path d="M 302.0,412.0 L 332.0,430.0 L 339.0,471.0 L 337.0,773.0 L 319.0,788.0"/>
    <path d="M 370.0,603.0 L 380.0,587.0 L 409.0,578.0 L 472.0,579.0"/>
    <path d="M 153.0,561.0 L 195.0,602.0 L 216.0,810.0 L 202.0,824.0"/>
    <path d="M 93.0,869.0 L 114.0,880.0 L 150.0,887.0 L 464.0,763.0"/>
    <path d="M 600.0,198.0 L 629.0,217.0 L 644.0,236.0 L 634.0,288.0 L 601.0,390.0 L 559.0,491.0 L 508.0,573.0"/>
    <path d="M 589.0,488.0 L 600.0,482.0 L 679.0,473.0 L 817.0,424.0 L 876.0,421.0"/>
    <path d="M 664.0,508.0 L 691.0,522.0 L 704.0,540.0 L 706.0,599.0 L 689.0,707.0 L 656.0,788.0 L 608.0,848.0 L 553.0,891.0 L 464.0,936.0 L 379.0,961.0"/>
    <path d="M 494.0,646.0 L 521.0,658.0 L 544.0,679.0 L 687.0,859.0 L 790.0,948.0 L 820.0,963.0 L 969.0,987.0"/>
  </g>
</svg>
