<svg xmlns="http://www.w3.org/2000/svg" viewBox="0 0 1024 1024">
  <g style="fill:none;stroke:#000000;stroke-width:50;stroke-linecap:round;stroke-linejoin:round;" transform="scale(1, 1) translate(0, 0)">
    <path d="M 191.0,399.0 L 237.0,397.0 L 374.0,354.0 L 395.0,359.0 L 423.0,388.0 L 387.0,512.0 L 362.0,529.0"/>
    <path d="M 244.0,580.0 L 257.0,588.0 L 355.0,557.0 L 415.0,557.0"/>
    <path d="M 166.0,566.0 L 208.0,600.0 L 214.0,616.0 L 220.0,721.0 L 212.0,787.0 L 214.0,830.0 L 267.0,816.0 L 391.0,725.0"/>
    <path d="M 587.0,209.0 L 622.0,240.0 L 627.0,259.0 L 600.0,334.0 L 549.0,440.0 L 477.0,545.0"/>
    <path d="M 533.0,509.0 L 629.0,490.0 L 821.0,438.0 L 853.0,438.0"/>
    <path d="M 647.0,515.0 L 680.0,532.0 L 694.0,552.0 L 688.0,616.0 L 673.0,674.0 L 634.0,759.0 L 591.0,810.0 L 512.0,867.0 L 419.0,904.0 L 373.0,914.0"/>
    <path d="M 462.0,615.0 L 497.0,625.0 L 676.0,826.0 L 720.0,870.0 L 798.0,933.0 L 903.0,953.0 L 975.0,958.0"/>
  </g>
</svg>
