<svg xmlns="http://www.w3.org/2000/svg" viewBox="0 0 1024 1024">
  <g style="fill:none;stroke:#000000;stroke-width:50;stroke-linecap:round;stroke-linejoin:round;" transform="scale(1, 1) translate(0, 0)">
    <path d="M 302.0,249.0 L 379.0,298.0 L 401.0,336.0"/>
    <path d="M 150.0,473.0 L 196.0,478.0 L 418.0,422.0 L 473.0,413.0 L 511.0,417.0"/>
    <path d="M 241.0,546.0 L 260.0,580.0 L 218.0,652.0 L 168.0,707.0 L 111.0,747.0"/>
    <path d="M 397.0,517.0 L 448.0,562.0 L 465.0,588.0"/>
    <path d="M 375.0,633.0 L 395.0,666.0 L 354.0,763.0 L 317.0,821.0 L 272.0,873.0 L 212.0,927.0 L 140.0,974.0 L 103.0,990.0"/>
    <path d="M 246.0,721.0 L 394.0,841.0 L 418.0,871.0 L 428.0,901.0"/>
    <path d="M 629.0,231.0 L 645.0,238.0 L 670.0,270.0 L 654.0,330.0 L 587.0,488.0 L 552.0,550.0 L 520.0,590.0"/>
    <path d="M 590.0,530.0 L 715.0,505.0 L 812.0,472.0 L 844.0,466.0 L 871.0,469.0"/>
    <path d="M 675.0,541.0 L 714.0,571.0 L 713.0,610.0 L 690.0,721.0 L 677.0,762.0 L 654.0,806.0 L 616.0,853.0 L 571.0,891.0 L 455.0,942.0"/>
    <path d="M 523.0,641.0 L 558.0,658.0 L 711.0,852.0 L 807.0,946.0 L 894.0,968.0 L 969.0,978.0"/>
  </g>
</svg>
