<svg xmlns="http://www.w3.org/2000/svg" viewBox="0 0 1024 1024">
  <g style="fill:none;stroke:#000000;stroke-width:50;stroke-linecap:round;stroke-linejoin:round;" transform="scale(1, 1) translate(0, 0)">
    <path d="M 94.0,549.0 L 129.0,555.0 L 165.0,552.0 L 292.0,528.0 L 443.0,486.0 L 469.0,483.0 L 495.0,489.0"/>
    <path d="M 298.0,263.0 L 346.0,307.0 L 346.0,327.0 L 318.0,668.0 L 314.0,682.0 L 295.0,703.0"/>
    <path d="M 158.0,721.0 L 187.0,747.0 L 191.0,760.0 L 228.0,961.0"/>
    <path d="M 224.0,745.0 L 241.0,732.0 L 292.0,723.0 L 353.0,703.0 L 397.0,698.0 L 427.0,725.0 L 400.0,816.0 L 377.0,831.0"/>
    <path d="M 246.0,901.0 L 256.0,888.0 L 371.0,861.0 L 437.0,867.0"/>
    <path d="M 615.0,218.0 L 634.0,230.0 L 658.0,260.0 L 641.0,319.0 L 599.0,425.0 L 544.0,534.0 L 477.0,629.0"/>
    <path d="M 574.0,532.0 L 597.0,522.0 L 711.0,504.0 L 811.0,473.0 L 872.0,468.0"/>
    <path d="M 663.0,546.0 L 702.0,576.0 L 667.0,709.0 L 639.0,773.0 L 601.0,830.0 L 560.0,871.0 L 502.0,912.0 L 430.0,942.0"/>
    <path d="M 506.0,650.0 L 550.0,675.0 L 696.0,850.0 L 806.0,945.0 L 837.0,959.0 L 987.0,979.0"/>
  </g>
</svg>
