<svg xmlns="http://www.w3.org/2000/svg" viewBox="0 0 1024 1024">
  <g style="fill:none;stroke:#000000;stroke-width:50;stroke-linecap:round;stroke-linejoin:round;" transform="scale(1, 1) translate(0, 0)">
    <path d="M 463.0,287.0 L 428.0,280.0 L 396.0,282.0 L 320.0,338.0 L 221.0,391.0 L 210.0,391.0 L 206.0,398.0 L 185.0,400.0 L 177.0,410.0"/>
    <path d="M 71.0,546.0 L 107.0,552.0 L 147.0,548.0 L 388.0,484.0 L 439.0,477.0 L 463.0,480.0"/>
    <path d="M 293.0,376.0 L 320.0,387.0 L 338.0,408.0 L 316.0,650.0 L 299.0,670.0"/>
    <path d="M 172.0,691.0 L 205.0,727.0 L 240.0,925.0"/>
    <path d="M 235.0,715.0 L 243.0,705.0 L 367.0,672.0 L 398.0,678.0 L 421.0,699.0 L 397.0,791.0 L 378.0,806.0"/>
    <path d="M 258.0,873.0 L 274.0,858.0 L 373.0,833.0 L 432.0,838.0"/>
    <path d="M 579.0,227.0 L 606.0,243.0 L 621.0,265.0 L 619.0,273.0 L 588.0,370.0 L 541.0,480.0 L 488.0,557.0"/>
    <path d="M 569.0,476.0 L 646.0,468.0 L 825.0,417.0 L 848.0,416.0 L 862.0,422.0"/>
    <path d="M 672.0,490.0 L 704.0,513.0 L 711.0,525.0 L 682.0,661.0 L 639.0,766.0 L 605.0,818.0 L 551.0,870.0 L 490.0,912.0 L 427.0,942.0"/>
    <path d="M 485.0,617.0 L 506.0,620.0 L 526.0,634.0 L 665.0,813.0 L 727.0,881.0 L 782.0,929.0 L 844.0,950.0 L 954.0,968.0"/>
  </g>
</svg>
