<svg xmlns="http://www.w3.org/2000/svg" viewBox="0 0 1024 1024">
  <g style="fill:none;stroke:#000000;stroke-width:50;stroke-linecap:round;stroke-linejoin:round;" transform="scale(1, 1) translate(0, 0)">
    <path d="M 309.0,241.0 L 337.0,276.0 L 307.0,351.0 L 250.0,445.0 L 203.0,506.0 L 134.0,578.0 L 49.0,643.0"/>
    <path d="M 343.0,354.0 L 354.0,352.0 L 425.0,379.0 L 447.0,394.0 L 465.0,417.0"/>
    <path d="M 215.0,579.0 L 277.0,578.0 L 401.0,542.0 L 440.0,542.0"/>
    <path d="M 114.0,731.0 L 158.0,739.0 L 179.0,736.0 L 405.0,675.0 L 453.0,668.0 L 475.0,671.0"/>
    <path d="M 314.0,598.0 L 337.0,611.0 L 347.0,632.0 L 346.0,911.0 L 341.0,955.0 L 332.0,978.0 L 319.0,990.0 L 287.0,980.0 L 223.0,946.0"/>
    <path d="M 204.0,816.0 L 183.0,876.0 L 130.0,968.0"/>
    <path d="M 418.0,770.0 L 473.0,829.0 L 483.0,864.0"/>
    <path d="M 641.0,238.0 L 664.0,253.0 L 685.0,280.0 L 670.0,335.0 L 589.0,521.0 L 549.0,589.0 L 517.0,629.0"/>
    <path d="M 601.0,551.0 L 676.0,548.0 L 834.0,502.0 L 872.0,504.0"/>
    <path d="M 688.0,580.0 L 718.0,598.0 L 715.0,674.0 L 685.0,793.0 L 656.0,849.0 L 620.0,893.0 L 569.0,933.0 L 503.0,967.0 L 461.0,978.0"/>
    <path d="M 530.0,687.0 L 566.0,699.0 L 710.0,869.0 L 807.0,957.0 L 887.0,973.0 L 953.0,978.0"/>
  </g>
</svg>
