<svg xmlns="http://www.w3.org/2000/svg" viewBox="0 0 1024 1024">
  <g style="fill:none;stroke:#000000;stroke-width:50;stroke-linecap:round;stroke-linejoin:round;" transform="scale(1, 1) translate(0, 0)">
    <path d="M 142.0,325.0 L 165.0,349.0 L 175.0,380.0 L 179.0,521.0 L 169.0,704.0 L 176.0,765.0"/>
    <path d="M 192.0,333.0 L 212.0,341.0 L 335.0,310.0 L 358.0,319.0 L 377.0,337.0 L 378.0,661.0 L 375.0,721.0 L 366.0,745.0 L 372.0,797.0"/>
    <path d="M 210.0,497.0 L 215.0,486.0 L 230.0,477.0 L 276.0,469.0 L 308.0,474.0"/>
    <path d="M 209.0,614.0 L 219.0,601.0 L 252.0,592.0 L 287.0,588.0 L 308.0,594.0"/>
    <path d="M 200.0,747.0 L 215.0,731.0 L 336.0,716.0"/>
    <path d="M 264.0,817.0 L 230.0,825.0 L 191.0,881.0 L 124.0,950.0 L 79.0,986.0 L 43.0,1006.0"/>
    <path d="M 323.0,842.0 L 394.0,906.0 L 415.0,949.0"/>
    <path d="M 587.0,213.0 L 606.0,225.0 L 630.0,255.0 L 607.0,327.0 L 522.0,510.0 L 483.0,572.0 L 449.0,613.0"/>
    <path d="M 568.0,484.0 L 579.0,477.0 L 650.0,474.0 L 798.0,432.0 L 846.0,433.0"/>
    <path d="M 657.0,504.0 L 698.0,531.0 L 689.0,626.0 L 673.0,688.0 L 648.0,748.0 L 605.0,810.0 L 565.0,842.0 L 505.0,875.0 L 471.0,884.0"/>
    <path d="M 494.0,634.0 L 545.0,666.0 L 684.0,837.0 L 779.0,922.0 L 824.0,946.0 L 973.0,967.0"/>
  </g>
</svg>
