<svg xmlns="http://www.w3.org/2000/svg" viewBox="0 0 1024 1024">
  <g style="fill:none;stroke:#000000;stroke-width:50;stroke-linecap:round;stroke-linejoin:round;" transform="scale(1, 1) translate(0, 0)">
    <path d="M 156.0,396.0 L 215.0,465.0 L 225.0,491.0"/>
    <path d="M 459.0,329.0 L 479.0,359.0 L 389.0,466.0"/>
    <path d="M 121.0,584.0 L 148.0,607.0 L 156.0,664.0 L 151.0,797.0 L 128.0,926.0 L 127.0,969.0"/>
    <path d="M 174.0,595.0 L 188.0,600.0 L 205.0,597.0 L 409.0,553.0 L 432.0,554.0 L 461.0,580.0 L 455.0,648.0 L 460.0,872.0 L 455.0,924.0 L 430.0,967.0 L 392.0,952.0 L 356.0,929.0"/>
    <path d="M 273.0,259.0 L 316.0,307.0 L 311.0,594.0 L 306.0,604.0 L 310.0,620.0 L 305.0,632.0 L 309.0,644.0 L 303.0,784.0 L 293.0,867.0 L 293.0,946.0"/>
    <path d="M 224.0,672.0 L 239.0,690.0 L 231.0,722.0 L 206.0,776.0 L 173.0,817.0"/>
    <path d="M 355.0,671.0 L 376.0,705.0 L 392.0,753.0"/>
    <path d="M 624.0,237.0 L 651.0,256.0 L 665.0,278.0 L 656.0,324.0 L 632.0,403.0 L 580.0,525.0 L 532.0,602.0"/>
    <path d="M 609.0,521.0 L 618.0,514.0 L 739.0,490.0 L 805.0,467.0 L 839.0,462.0 L 865.0,467.0"/>
    <path d="M 698.0,525.0 L 729.0,543.0 L 740.0,562.0 L 727.0,661.0 L 695.0,768.0 L 658.0,836.0 L 631.0,865.0 L 570.0,916.0 L 516.0,946.0"/>
    <path d="M 547.0,665.0 L 592.0,694.0 L 706.0,840.0 L 774.0,903.0 L 800.0,921.0 L 960.0,962.0"/>
  </g>
</svg>
