<svg xmlns="http://www.w3.org/2000/svg" viewBox="0 0 1024 1024">
  <g style="fill:none;stroke:#000000;stroke-width:50;stroke-linecap:round;stroke-linejoin:round;" transform="scale(1, 1) translate(0, 0)">
    <path d="M 173.0,443.0 L 195.0,448.0 L 262.0,443.0 L 450.0,393.0 L 504.0,388.0"/>
    <path d="M 234.0,279.0 L 268.0,314.0 L 279.0,400.0 L 283.0,516.0 L 283.0,538.0 L 271.0,552.0"/>
    <path d="M 404.0,210.0 L 441.0,249.0 L 406.0,509.0 L 389.0,527.0"/>
    <path d="M 77.0,601.0 L 101.0,610.0 L 136.0,612.0 L 437.0,541.0 L 480.0,535.0 L 508.0,539.0"/>
    <path d="M 232.0,661.0 L 252.0,683.0 L 256.0,742.0 L 241.0,897.0 L 214.0,996.0 L 212.0,1038.0"/>
    <path d="M 280.0,672.0 L 311.0,672.0 L 320.0,665.0 L 388.0,650.0 L 406.0,655.0 L 424.0,671.0 L 421.0,722.0 L 431.0,908.0 L 428.0,989.0 L 419.0,1013.0 L 402.0,1034.0 L 320.0,1000.0"/>
    <path d="M 273.0,793.0 L 285.0,782.0 L 311.0,775.0 L 346.0,771.0 L 365.0,776.0"/>
    <path d="M 263.0,881.0 L 318.0,864.0 L 369.0,867.0"/>
    <path d="M 634.0,266.0 L 652.0,277.0 L 675.0,306.0 L 648.0,398.0 L 573.0,565.0 L 533.0,634.0 L 496.0,682.0"/>
    <path d="M 604.0,560.0 L 722.0,534.0 L 828.0,496.0 L 873.0,494.0"/>
    <path d="M 683.0,575.0 L 714.0,591.0 L 712.0,640.0 L 694.0,738.0 L 670.0,806.0 L 631.0,866.0 L 597.0,900.0 L 557.0,927.0 L 488.0,954.0"/>
    <path d="M 547.0,665.0 L 576.0,677.0 L 591.0,692.0 L 722.0,862.0 L 819.0,957.0 L 902.0,978.0 L 969.0,986.0"/>
  </g>
</svg>
