<svg xmlns="http://www.w3.org/2000/svg" viewBox="0 0 1024 1024">
  <g style="fill:none;stroke:#000000;stroke-width:50;stroke-linecap:round;stroke-linejoin:round;" transform="scale(1, 1) translate(0, 0)">
    <path d="M 134.0,398.0 L 181.0,402.0 L 258.0,379.0 L 282.0,381.0 L 294.0,393.0 L 258.0,479.0 L 211.0,551.0 L 141.0,613.0 L 99.0,637.0 L 68.0,646.0"/>
    <path d="M 146.0,460.0 L 257.0,529.0 L 276.0,545.0 L 293.0,576.0"/>
    <path d="M 351.0,354.0 L 397.0,358.0 L 481.0,336.0 L 496.0,338.0 L 510.0,353.0 L 477.0,441.0 L 428.0,523.0 L 358.0,586.0 L 312.0,606.0"/>
    <path d="M 362.0,436.0 L 502.0,522.0 L 532.0,564.0"/>
    <path d="M 111.0,699.0 L 148.0,703.0 L 193.0,690.0 L 229.0,671.0 L 252.0,674.0 L 267.0,683.0 L 241.0,787.0 L 201.0,867.0 L 140.0,932.0 L 47.0,984.0"/>
    <path d="M 133.0,777.0 L 238.0,852.0 L 266.0,884.0 L 274.0,902.0"/>
    <path d="M 332.0,691.0 L 390.0,686.0 L 445.0,665.0 L 475.0,665.0 L 492.0,672.0 L 465.0,781.0 L 432.0,848.0 L 395.0,889.0 L 358.0,912.0 L 320.0,922.0"/>
    <path d="M 343.0,757.0 L 491.0,868.0 L 514.0,892.0 L 529.0,923.0"/>
    <path d="M 690.0,251.0 L 716.0,267.0 L 732.0,290.0 L 720.0,336.0 L 677.0,454.0 L 608.0,583.0 L 588.0,606.0"/>
    <path d="M 644.0,559.0 L 856.0,502.0 L 909.0,511.0"/>
    <path d="M 723.0,563.0 L 752.0,580.0 L 766.0,600.0 L 741.0,748.0 L 721.0,801.0 L 664.0,892.0 L 611.0,938.0 L 531.0,982.0"/>
    <path d="M 571.0,669.0 L 595.0,677.0 L 616.0,696.0 L 740.0,856.0 L 839.0,955.0 L 905.0,972.0 L 986.0,983.0"/>
  </g>
</svg>
