<svg xmlns="http://www.w3.org/2000/svg" viewBox="0 0 1024 1024">
  <g style="fill:none;stroke:#000000;stroke-width:50;stroke-linecap:round;stroke-linejoin:round;" transform="scale(1, 1) translate(0, 0)">
    <path d="M 208.0,325.0 L 259.0,328.0 L 324.0,319.0 L 406.0,296.0 L 456.0,295.0"/>
    <path d="M 148.0,414.0 L 173.0,436.0 L 185.0,460.0 L 198.0,609.0 L 209.0,638.0"/>
    <path d="M 198.0,425.0 L 222.0,431.0 L 428.0,381.0 L 468.0,385.0 L 495.0,417.0 L 475.0,480.0 L 446.0,619.0"/>
    <path d="M 259.0,493.0 L 371.0,463.0 L 413.0,465.0"/>
    <path d="M 256.0,564.0 L 366.0,538.0 L 405.0,541.0"/>
    <path d="M 299.0,200.0 L 319.0,211.0 L 340.0,235.0 L 343.0,403.0 L 333.0,626.0"/>
    <path d="M 436.0,213.0 L 503.0,249.0 L 520.0,276.0"/>
    <path d="M 281.0,646.0 L 350.0,689.0"/>
    <path d="M 96.0,760.0 L 127.0,767.0 L 159.0,765.0 L 425.0,697.0 L 475.0,688.0 L 511.0,691.0"/>
    <path d="M 351.0,781.0 L 372.0,778.0 L 403.0,786.0 L 428.0,799.0 L 442.0,815.0 L 445.0,826.0 L 398.0,952.0 L 376.0,985.0 L 352.0,1003.0 L 258.0,950.0"/>
    <path d="M 348.0,747.0 L 345.0,757.0 L 319.0,772.0 L 263.0,855.0 L 199.0,923.0 L 130.0,976.0 L 87.0,1000.0"/>
    <path d="M 632.0,260.0 L 652.0,270.0 L 676.0,299.0 L 658.0,370.0 L 585.0,550.0 L 520.0,653.0"/>
    <path d="M 615.0,549.0 L 630.0,542.0 L 730.0,528.0 L 829.0,496.0 L 887.0,494.0"/>
    <path d="M 691.0,561.0 L 729.0,591.0 L 729.0,613.0 L 714.0,714.0 L 686.0,794.0 L 664.0,832.0 L 615.0,886.0 L 550.0,929.0 L 487.0,950.0"/>
    <path d="M 547.0,650.0 L 559.0,649.0 L 577.0,662.0 L 725.0,860.0 L 823.0,950.0 L 990.0,986.0"/>
  </g>
</svg>
