<svg xmlns="http://www.w3.org/2000/svg" viewBox="0 0 1024 1024">
  <g style="fill:none;stroke:#000000;stroke-width:50;stroke-linecap:round;stroke-linejoin:round;" transform="scale(1, 1) translate(0, 0)">
    <path d="M 289.0,210.0 L 368.0,243.0 L 403.0,279.0"/>
    <path d="M 153.0,395.0 L 213.0,401.0 L 466.0,348.0 L 504.0,348.0"/>
    <path d="M 200.0,480.0 L 226.0,501.0 L 232.0,513.0 L 264.0,634.0"/>
    <path d="M 253.0,482.0 L 268.0,491.0 L 348.0,469.0 L 397.0,465.0 L 421.0,490.0 L 407.0,531.0 L 386.0,548.0"/>
    <path d="M 277.0,584.0 L 288.0,591.0 L 414.0,571.0 L 439.0,580.0"/>
    <path d="M 120.0,712.0 L 150.0,751.0 L 155.0,796.0 L 150.0,993.0"/>
    <path d="M 150.0,707.0 L 181.0,718.0 L 430.0,667.0 L 468.0,668.0 L 481.0,674.0 L 495.0,687.0 L 500.0,766.0 L 490.0,943.0 L 475.0,967.0 L 444.0,958.0 L 395.0,932.0"/>
    <path d="M 219.0,774.0 L 244.0,803.0 L 261.0,916.0"/>
    <path d="M 256.0,776.0 L 274.0,782.0 L 361.0,761.0 L 378.0,766.0 L 391.0,784.0 L 381.0,823.0 L 392.0,837.0"/>
    <path d="M 279.0,883.0 L 342.0,862.0 L 403.0,866.0"/>
    <path d="M 634.0,224.0 L 666.0,247.0 L 677.0,268.0 L 666.0,562.0 L 650.0,588.0"/>
    <path d="M 698.0,436.0 L 713.0,423.0 L 825.0,397.0 L 854.0,398.0"/>
    <path d="M 571.0,616.0 L 644.0,611.0 L 744.0,585.0 L 765.0,592.0 L 777.0,610.0 L 770.0,667.0 L 749.0,744.0 L 703.0,838.0 L 650.0,893.0 L 599.0,921.0 L 539.0,940.0 L 528.0,952.0"/>
    <path d="M 568.0,682.0 L 599.0,694.0 L 735.0,857.0 L 832.0,944.0 L 912.0,961.0 L 973.0,966.0"/>
  </g>
</svg>
