<svg xmlns="http://www.w3.org/2000/svg" viewBox="0 0 1024 1024">
  <g style="fill:none;stroke:#000000;stroke-width:50;stroke-linecap:round;stroke-linejoin:round;" transform="scale(1, 1) translate(0, 0)">
    <path d="M 329.0,216.0 L 404.0,261.0 L 428.0,296.0"/>
    <path d="M 134.0,408.0 L 156.0,415.0 L 209.0,415.0 L 383.0,388.0 L 508.0,361.0 L 549.0,364.0"/>
    <path d="M 214.0,458.0 L 262.0,505.0 L 269.0,533.0"/>
    <path d="M 387.0,412.0 L 411.0,437.0 L 375.0,525.0 L 358.0,550.0"/>
    <path d="M 136.0,581.0 L 163.0,605.0 L 172.0,647.0 L 166.0,819.0 L 144.0,942.0 L 142.0,984.0"/>
    <path d="M 191.0,588.0 L 200.0,596.0 L 227.0,594.0 L 442.0,545.0 L 460.0,550.0 L 482.0,573.0 L 484.0,899.0 L 477.0,943.0 L 462.0,975.0 L 386.0,942.0"/>
    <path d="M 227.0,694.0 L 284.0,696.0 L 374.0,671.0 L 417.0,670.0"/>
    <path d="M 297.0,591.0 L 327.0,617.0 L 309.0,746.0 L 297.0,771.0"/>
    <path d="M 224.0,779.0 L 250.0,805.0 L 273.0,916.0"/>
    <path d="M 273.0,799.0 L 287.0,789.0 L 370.0,773.0 L 391.0,794.0 L 380.0,836.0 L 363.0,848.0"/>
    <path d="M 289.0,891.0 L 297.0,882.0 L 358.0,871.0 L 404.0,878.0"/>
    <path d="M 652.0,243.0 L 671.0,254.0 L 695.0,283.0 L 681.0,341.0 L 617.0,502.0 L 569.0,592.0 L 528.0,649.0"/>
    <path d="M 635.0,527.0 L 739.0,510.0 L 836.0,478.0 L 882.0,477.0"/>
    <path d="M 719.0,546.0 L 732.0,551.0 L 756.0,582.0 L 745.0,681.0 L 716.0,769.0 L 681.0,823.0 L 640.0,863.0 L 577.0,898.0 L 527.0,911.0 L 519.0,918.0"/>
    <path d="M 558.0,643.0 L 589.0,660.0 L 707.0,812.0 L 815.0,911.0 L 844.0,922.0 L 973.0,943.0"/>
  </g>
</svg>
