<svg xmlns="http://www.w3.org/2000/svg" viewBox="0 0 1024 1024">
  <g style="fill:none;stroke:#000000;stroke-width:50;stroke-linecap:round;stroke-linejoin:round;" transform="scale(1, 1) translate(0, 0)">
    <path d="M 466.0,154.0 L 481.0,186.0 L 457.0,219.0 L 424.0,254.0 L 373.0,293.0 L 311.0,325.0"/>
    <path d="M 456.0,260.0 L 530.0,245.0 L 577.0,228.0 L 603.0,227.0 L 633.0,238.0 L 620.0,268.0 L 592.0,297.0 L 558.0,320.0"/>
    <path d="M 240.0,363.0 L 265.0,382.0 L 276.0,401.0 L 308.0,521.0"/>
    <path d="M 291.0,364.0 L 314.0,376.0 L 545.0,337.0 L 701.0,320.0 L 745.0,323.0 L 760.0,331.0 L 778.0,366.0 L 710.0,479.0"/>
    <path d="M 482.0,365.0 L 495.0,380.0 L 492.0,402.0 L 440.0,460.0 L 389.0,494.0"/>
    <path d="M 495.0,434.0 L 515.0,430.0 L 563.0,446.0 L 598.0,470.0"/>
    <path d="M 355.0,524.0 L 377.0,549.0 L 382.0,575.0 L 372.0,766.0"/>
    <path d="M 405.0,539.0 L 420.0,547.0 L 616.0,509.0 L 647.0,515.0 L 673.0,546.0 L 663.0,750.0"/>
    <path d="M 408.0,620.0 L 417.0,609.0 L 443.0,605.0 L 551.0,590.0 L 580.0,595.0"/>
    <path d="M 406.0,685.0 L 416.0,675.0 L 542.0,658.0 L 568.0,657.0 L 587.0,664.0"/>
    <path d="M 393.0,752.0 L 407.0,743.0 L 529.0,728.0 L 618.0,721.0 L 635.0,730.0"/>
    <path d="M 473.0,785.0 L 441.0,787.0 L 375.0,870.0 L 315.0,925.0 L 215.0,990.0 L 169.0,1011.0 L 158.0,1009.0 L 152.0,1017.0"/>
    <path d="M 452.0,832.0 L 472.0,824.0 L 526.0,822.0 L 670.0,801.0 L 692.0,801.0 L 727.0,814.0"/>
    <path d="M 615.0,833.0 L 627.0,855.0 L 629.0,875.0 L 595.0,919.0 L 533.0,977.0 L 474.0,1014.0 L 404.0,1047.0 L 333.0,1067.0 L 295.0,1071.0"/>
    <path d="M 402.0,876.0 L 418.0,874.0 L 451.0,891.0 L 606.0,1003.0 L 712.0,1057.0 L 788.0,1061.0 L 898.0,1052.0"/>
  </g>
</svg>
