<svg xmlns="http://www.w3.org/2000/svg" viewBox="0 0 1024 1024">
  <g style="fill:none;stroke:#000000;stroke-width:50;stroke-linecap:round;stroke-linejoin:round;" transform="scale(1, 1) translate(0, 0)">
    <path d="M 233.0,291.0 L 271.0,318.0 L 291.0,341.0"/>
    <path d="M 510.0,270.0 L 484.0,263.0 L 420.0,324.0"/>
    <path d="M 203.0,406.0 L 218.0,424.0 L 225.0,466.0 L 226.0,506.0 L 213.0,572.0 L 216.0,616.0"/>
    <path d="M 243.0,413.0 L 255.0,420.0 L 438.0,376.0 L 472.0,388.0 L 489.0,408.0 L 479.0,595.0"/>
    <path d="M 330.0,214.0 L 343.0,220.0 L 371.0,250.0 L 360.0,463.0 L 364.0,608.0"/>
    <path d="M 291.0,462.0 L 303.0,481.0 L 299.0,505.0 L 289.0,516.0 L 290.0,525.0 L 275.0,554.0 L 257.0,575.0"/>
    <path d="M 403.0,460.0 L 430.0,492.0 L 435.0,507.0"/>
    <path d="M 597.0,204.0 L 622.0,233.0 L 620.0,251.0 L 578.0,332.0 L 536.0,382.0"/>
    <path d="M 604.0,332.0 L 659.0,330.0 L 787.0,297.0 L 840.0,295.0"/>
    <path d="M 678.0,353.0 L 693.0,362.0 L 702.0,383.0 L 690.0,419.0 L 661.0,471.0 L 620.0,512.0 L 585.0,533.0 L 539.0,547.0"/>
    <path d="M 550.0,413.0 L 585.0,431.0 L 690.0,518.0 L 772.0,566.0 L 834.0,575.0 L 909.0,574.0"/>
    <path d="M 284.0,663.0 L 311.0,671.0 L 346.0,669.0 L 619.0,620.0 L 679.0,626.0"/>
    <path d="M 367.22222222222223,697.5555555555555 L 180.0,851.0"/>
    <path d="M 325.0,777.0 L 347.0,770.0 L 417.0,768.0 L 433.0,770.0 L 448.0,790.0 L 404.0,873.0 L 337.0,950.0 L 243.0,1026.0 L 182.0,1054.0"/>
    <path d="M 246.0,834.0 L 293.0,872.0 L 309.0,900.0"/>
    <path d="M 700.0,689.0 L 720.0,729.0 L 658.0,782.0 L 585.0,833.0 L 581.0,845.0"/>
    <path d="M 524.0,682.0 L 562.0,731.0 L 548.0,884.0 L 557.0,966.0 L 573.0,1000.0 L 609.0,1028.0 L 648.0,1042.0 L 730.0,1051.0 L 832.0,1043.0 L 881.0,1030.0 L 915.0,1007.0 L 923.0,898.0"/>
  </g>
</svg>
