<svg xmlns="http://www.w3.org/2000/svg" viewBox="0 0 1024 1024">
  <g style="fill:none;stroke:#000000;stroke-width:50;stroke-linecap:round;stroke-linejoin:round;" transform="scale(1, 1) translate(0, 0)">
    <path d="M 238.0,298.0 L 304.0,347.0 L 324.0,388.0"/>
    <path d="M 88.0,547.0 L 98.0,552.0 L 163.0,547.0 L 337.0,501.0 L 388.0,497.0"/>
    <path d="M 285.0,544.0 L 317.0,568.0 L 295.0,672.0 L 258.0,763.0 L 230.0,804.0 L 192.0,844.0 L 136.0,881.0 L 93.0,900.0"/>
    <path d="M 147.0,643.0 L 305.0,792.0 L 325.0,822.0 L 335.0,854.0"/>
    <path d="M 430.0,439.0 L 484.0,436.0 L 582.0,408.0 L 602.0,409.0"/>
    <path d="M 401.0,567.0 L 448.0,573.0 L 503.0,564.0 L 765.0,495.0 L 816.0,492.0"/>
    <path d="M 508.0,585.0 L 538.0,610.0 L 540.0,815.0 L 524.0,841.0"/>
    <path d="M 569.0,720.0 L 617.0,695.0 L 674.0,694.0"/>
    <path d="M 387.0,665.0 L 426.0,704.0 L 442.0,852.0 L 428.0,866.0"/>
    <path d="M 337.0,907.0 L 391.0,919.0 L 692.0,804.0"/>
    <path d="M 611.0,194.0 L 629.0,203.0 L 652.0,234.0 L 663.0,373.0 L 685.0,521.0 L 710.0,640.0 L 749.0,764.0 L 809.0,885.0 L 858.0,951.0 L 894.0,979.0 L 913.0,983.0 L 929.0,953.0 L 957.0,828.0"/>
    <path d="M 752.0,334.0 L 830.0,389.0 L 846.0,419.0"/>
  </g>
</svg>
