<svg xmlns="http://www.w3.org/2000/svg" viewBox="0 0 1024 1024">
  <g style="fill:none;stroke:#000000;stroke-width:50;stroke-linecap:round;stroke-linejoin:round;" transform="scale(1, 1) translate(0, 0)">
    <path d="M 150.0,448.0 L 212.0,447.0 L 329.0,404.0 L 377.0,399.0"/>
    <path d="M 145.0,670.0 L 209.0,665.0 L 305.0,627.0 L 363.0,618.0"/>
    <path d="M 229.0,468.0 L 261.0,493.0 L 266.0,593.0 L 261.0,810.0 L 244.0,834.0"/>
    <path d="M 97.0,904.0 L 151.0,914.0 L 380.0,791.0"/>
    <path d="M 458.0,245.0 L 553.0,294.0 L 583.0,333.0"/>
    <path d="M 371.0,531.0 L 388.0,534.0 L 462.0,520.0 L 593.0,476.0 L 635.0,474.0"/>
    <path d="M 536.0,524.0 L 555.0,538.0 L 563.0,561.0 L 537.0,663.0 L 500.0,745.0 L 429.0,835.0 L 345.0,905.0"/>
    <path d="M 421.0,610.0 L 559.0,754.0 L 586.0,796.0 L 593.0,823.0"/>
    <path d="M 639.0,400.0 L 695.0,403.0 L 773.0,385.0 L 834.0,362.0 L 871.0,356.0 L 896.0,360.0"/>
    <path d="M 648.0,639.0 L 671.0,644.0 L 708.0,640.0 L 831.0,601.0 L 887.0,597.0"/>
    <path d="M 728.0,425.0 L 760.0,448.0 L 766.0,548.0 L 758.0,835.0 L 737.0,861.0"/>
    <path d="M 565.0,908.0 L 617.0,913.0 L 880.0,867.0 L 927.0,869.0 L 969.0,880.0"/>
  </g>
</svg>
