<svg xmlns="http://www.w3.org/2000/svg" viewBox="0 0 1024 1024">
  <g style="fill:none;stroke:#000000;stroke-width:50;stroke-linecap:round;stroke-linejoin:round;" transform="scale(1, 1) translate(0, 0)">
    <path d="M 173.0,398.0 L 197.0,404.0 L 236.0,402.0 L 352.0,377.0 L 443.0,348.0 L 491.0,351.0"/>
    <path d="M 323.0,192.0 L 353.0,248.0 L 294.0,413.0 L 204.0,611.0 L 196.0,644.0 L 244.0,646.0 L 457.0,602.0 L 483.0,610.0"/>
    <path d="M 348.0,489.0 L 377.0,526.0 L 371.0,763.0 L 359.0,943.0 L 370.0,1022.0"/>
    <path d="M 93.0,822.0 L 150.0,838.0 L 472.0,703.0"/>
    <path d="M 749.0,235.0 L 760.0,247.0 L 770.0,279.0 L 622.0,404.0"/>
    <path d="M 546.0,385.0 L 588.0,422.0 L 589.0,545.0 L 569.0,701.0 L 545.0,770.0 L 519.0,818.0 L 444.0,903.0 L 410.0,924.0"/>
    <path d="M 618.0,562.0 L 631.0,553.0 L 719.0,538.0 L 876.0,496.0 L 896.0,493.0 L 946.0,503.0"/>
    <path d="M 723.0,559.0 L 770.0,593.0 L 763.0,1072.0"/>
  </g>
</svg>
