<svg xmlns="http://www.w3.org/2000/svg" viewBox="0 0 1024 1024">
  <g style="fill:none;stroke:#000000;stroke-width:50;stroke-linecap:round;stroke-linejoin:round;" transform="scale(1, 1) translate(0, 0)">
    <path d="M 238.0,386.0 L 281.0,424.0 L 301.0,466.0"/>
    <path d="M 471.0,339.0 L 488.0,363.0 L 429.0,434.0"/>
    <path d="M 218.0,543.0 L 254.0,547.0 L 330.0,534.0 L 437.0,505.0 L 484.0,499.0 L 512.0,503.0"/>
    <path d="M 337.0,220.0 L 365.0,240.0 L 383.0,267.0 L 359.0,722.0 L 365.0,771.0"/>
    <path d="M 346.0,555.0 L 317.0,615.0 L 271.0,680.0 L 210.0,740.0"/>
    <path d="M 417.0,594.0 L 477.0,643.0 L 494.0,684.0"/>
    <path d="M 129.0,305.0 L 166.0,347.0 L 168.0,383.0 L 168.0,617.0 L 158.0,869.0 L 188.0,871.0 L 283.0,843.0 L 410.0,818.0 L 436.0,815.0 L 476.0,824.0"/>
    <path d="M 850.0,269.0 L 785.0,266.0 L 707.0,324.0 L 670.0,342.0 L 662.0,352.0 L 646.0,355.0 L 646.0,366.0"/>
    <path d="M 564.0,346.0 L 605.0,380.0 L 609.0,569.0 L 594.0,688.0 L 573.0,758.0 L 533.0,837.0 L 492.0,890.0 L 429.0,940.0"/>
    <path d="M 636.0,516.0 L 690.0,493.0 L 853.0,459.0 L 893.0,454.0 L 948.0,464.0"/>
    <path d="M 742.0,507.0 L 784.0,529.0 L 779.0,1056.0"/>
  </g>
</svg>
