<svg xmlns="http://www.w3.org/2000/svg" viewBox="0 0 1024 1024">
  <g style="fill:none;stroke:#000000;stroke-width:50;stroke-linecap:round;stroke-linejoin:round;" transform="scale(1, 1) translate(0, 0)">
    <path d="M 235.0,368.0 L 280.0,371.0 L 315.0,365.0 L 390.0,339.0 L 427.0,333.0 L 452.0,337.0"/>
    <path d="M 142.0,495.0 L 163.0,510.0 L 179.0,534.0 L 223.0,717.0"/>
    <path d="M 189.0,494.0 L 211.0,502.0 L 403.0,453.0 L 443.0,448.0 L 469.0,453.0 L 495.0,481.0 L 447.0,653.0 L 424.0,663.0"/>
    <path d="M 259.0,588.0 L 352.0,559.0 L 379.0,554.0 L 402.0,558.0"/>
    <path d="M 240.0,690.0 L 250.0,681.0 L 396.0,645.0 L 417.0,635.0"/>
    <path d="M 73.0,844.0 L 101.0,849.0 L 134.0,846.0 L 432.0,753.0 L 489.0,752.0"/>
    <path d="M 289.0,189.0 L 316.0,210.0 L 338.0,238.0 L 339.0,249.0 L 331.0,765.0 L 318.0,923.0 L 321.0,1006.0"/>
    <path d="M 750.0,237.0 L 767.0,262.0 L 771.0,281.0 L 662.0,377.0 L 638.0,394.0 L 630.0,392.0"/>
    <path d="M 559.0,385.0 L 597.0,416.0 L 602.0,468.0 L 594.0,642.0 L 577.0,728.0 L 550.0,800.0 L 515.0,853.0 L 472.0,901.0 L 421.0,936.0"/>
    <path d="M 634.0,557.0 L 643.0,549.0 L 679.0,548.0 L 746.0,534.0 L 913.0,488.0 L 948.0,492.0"/>
    <path d="M 725.0,566.0 L 769.0,594.0 L 769.0,954.0 L 763.0,1100.0"/>
  </g>
</svg>
