<svg xmlns="http://www.w3.org/2000/svg" viewBox="0 0 1024 1024">
  <g style="fill:none;stroke:#000000;stroke-width:50;stroke-linecap:round;stroke-linejoin:round;" transform="scale(1, 1) translate(0, 0)">
    <path d="M 134.0,423.0 L 177.0,427.0 L 238.0,417.0 L 469.0,359.0 L 516.0,363.0"/>
    <path d="M 215.0,283.0 L 253.0,328.0 L 256.0,377.0 L 254.0,696.0 L 238.0,710.0"/>
    <path d="M 392.0,211.0 L 425.0,236.0 L 438.0,254.0 L 423.0,648.0 L 418.0,664.0 L 406.0,675.0"/>
    <path d="M 281.0,523.0 L 290.0,510.0 L 317.0,502.0 L 349.0,497.0 L 369.0,501.0"/>
    <path d="M 280.0,622.0 L 299.0,604.0 L 348.0,596.0 L 369.0,601.0"/>
    <path d="M 47.0,761.0 L 82.0,771.0 L 119.0,769.0 L 465.0,689.0 L 516.0,692.0"/>
    <path d="M 290.0,821.0 L 257.0,828.0 L 222.0,875.0 L 171.0,925.0 L 106.0,970.0"/>
    <path d="M 376.0,777.0 L 414.0,813.0 L 433.0,843.0"/>
    <path d="M 751.0,241.0 L 774.0,283.0 L 710.0,342.0 L 633.0,398.0 L 631.0,405.0"/>
    <path d="M 554.0,389.0 L 591.0,417.0 L 597.0,443.0 L 596.0,596.0 L 579.0,709.0 L 565.0,755.0 L 528.0,827.0 L 476.0,889.0 L 425.0,924.0"/>
    <path d="M 631.0,541.0 L 642.0,534.0 L 654.0,536.0 L 856.0,493.0 L 893.0,492.0 L 939.0,503.0"/>
    <path d="M 728.0,543.0 L 770.0,573.0 L 767.0,1065.0"/>
  </g>
</svg>
