<svg xmlns="http://www.w3.org/2000/svg" viewBox="0 0 1024 1024">
  <g style="fill:none;stroke:#000000;stroke-width:50;stroke-linecap:round;stroke-linejoin:round;" transform="scale(1, 1) translate(0, 0)">
    <path d="M 277.0,217.0 L 291.0,235.0 L 295.0,253.0 L 230.0,394.0 L 287.0,395.0 L 299.0,387.0"/>
    <path d="M 339.0,315.0 L 350.0,340.0 L 306.0,410.0 L 257.0,473.0 L 250.0,504.0 L 265.0,509.0 L 325.0,495.0"/>
    <path d="M 326.0,450.0 L 345.0,472.0 L 356.0,510.0"/>
    <path d="M 466.0,195.0 L 483.0,227.0 L 423.0,331.0 L 421.0,350.0 L 451.0,356.0 L 479.0,350.0 L 487.0,341.0"/>
    <path d="M 523.0,279.0 L 534.0,294.0 L 534.0,311.0 L 494.0,373.0 L 446.0,432.0 L 440.0,463.0 L 467.0,467.0 L 513.0,455.0"/>
    <path d="M 511.0,414.0 L 550.0,462.0 L 554.0,483.0"/>
    <path d="M 204.0,585.0 L 262.0,582.0 L 467.0,539.0 L 517.0,534.0 L 538.0,540.0"/>
    <path d="M 241.0,602.0 L 256.0,616.0 L 259.0,631.0 L 237.0,672.0 L 218.0,692.0 L 217.0,713.0 L 264.0,715.0 L 278.0,713.0 L 284.0,705.0"/>
    <path d="M 327.0,634.0 L 336.0,649.0 L 335.0,664.0 L 234.0,806.0 L 235.0,820.0 L 244.0,823.0 L 308.0,809.0"/>
    <path d="M 310.0,762.0 L 334.0,799.0 L 338.0,824.0"/>
    <path d="M 429.0,570.0 L 444.0,583.0 L 447.0,601.0 L 401.0,665.0 L 399.0,683.0 L 428.0,688.0 L 451.0,687.0 L 459.0,681.0"/>
    <path d="M 501.0,609.0 L 512.0,636.0 L 473.0,692.0 L 423.0,748.0 L 414.0,780.0 L 444.0,784.0 L 499.0,770.0"/>
    <path d="M 500.0,727.0 L 529.0,768.0 L 536.0,799.0"/>
    <path d="M 121.0,276.0 L 158.0,319.0 L 151.0,644.0 L 132.0,922.0 L 137.0,938.0 L 164.0,939.0 L 253.0,915.0 L 408.0,885.0 L 440.0,883.0 L 473.0,892.0"/>
    <path d="M 874.0,305.0 L 810.0,303.0 L 756.0,346.0 L 669.0,393.0 L 669.0,400.0"/>
    <path d="M 588.0,386.0 L 629.0,421.0 L 634.0,587.0 L 627.0,678.0 L 614.0,741.0 L 590.0,812.0 L 563.0,864.0 L 515.0,926.0 L 483.0,957.0 L 453.0,976.0"/>
    <path d="M 660.0,553.0 L 687.0,537.0 L 878.0,495.0 L 917.0,491.0 L 972.0,500.0"/>
    <path d="M 755.0,547.0 L 794.0,570.0 L 791.0,1096.0"/>
  </g>
</svg>
