<svg xmlns="http://www.w3.org/2000/svg" viewBox="0 0 1024 1024">
  <g style="fill:none;stroke:#000000;stroke-width:50;stroke-linecap:round;stroke-linejoin:round;" transform="scale(1, 1) translate(0, 0)">
    <path d="M 453.0,167.0 L 527.0,201.0 L 558.0,237.0"/>
    <path d="M 329.0,339.0 L 352.0,346.0 L 404.0,345.0 L 674.0,287.0 L 712.0,288.0"/>
    <path d="M 388.0,403.0 L 426.0,444.0 L 435.0,462.0"/>
    <path d="M 587.0,338.0 L 606.0,353.0 L 612.0,371.0 L 559.0,468.0 L 538.0,482.0"/>
    <path d="M 185.0,510.0 L 199.0,543.0 L 192.0,577.0 L 161.0,645.0 L 160.0,704.0"/>
    <path d="M 230.0,567.0 L 249.0,554.0 L 632.0,483.0 L 784.0,462.0 L 825.0,471.0 L 850.0,502.0 L 783.0,584.0 L 771.0,588.0"/>
    <path d="M 448.0,546.0 L 506.0,587.0 L 519.0,612.0"/>
    <path d="M 260.0,709.0 L 303.0,713.0 L 513.0,670.0 L 685.0,645.0 L 758.0,657.0"/>
    <path d="M 507.0,757.0 L 534.0,751.0 L 593.0,758.0 L 616.0,766.0 L 638.0,785.0 L 646.0,798.0 L 616.0,896.0 L 566.0,995.0 L 525.0,1027.0 L 423.0,967.0"/>
    <path d="M 497.0,704.0 L 493.0,723.0 L 480.0,733.0 L 451.0,783.0 L 357.0,893.0 L 271.0,965.0 L 187.0,1012.0"/>
  </g>
</svg>
