<svg xmlns="http://www.w3.org/2000/svg" viewBox="0 0 1024 1024">
  <g style="fill:none;stroke:#000000;stroke-width:50;stroke-linecap:round;stroke-linejoin:round;" transform="scale(1, 1) translate(0, 0)">
    <path d="M 267.0,245.0 L 353.0,292.0 L 385.0,331.0"/>
    <path d="M 118.0,517.0 L 165.0,520.0 L 355.0,468.0 L 399.0,462.0 L 432.0,466.0"/>
    <path d="M 297.0,616.0 L 313.0,612.0 L 365.0,624.0 L 384.0,636.0 L 398.0,656.0 L 346.0,843.0 L 318.0,899.0 L 282.0,933.0 L 190.0,878.0"/>
    <path d="M 258.0,527.0 L 288.0,550.0 L 266.0,616.0 L 242.0,664.0 L 179.0,764.0 L 107.0,841.0 L 80.0,865.0 L 69.0,867.0 L 66.0,875.0"/>
    <path d="M 559.0,246.0 L 588.0,276.0 L 592.0,286.0 L 585.0,305.0 L 536.0,412.0 L 457.0,519.0"/>
    <path d="M 568.0,413.0 L 580.0,407.0 L 638.0,402.0 L 791.0,353.0 L 828.0,351.0"/>
    <path d="M 751.0,493.0 L 736.0,487.0 L 689.0,486.0 L 619.0,532.0 L 545.0,569.0 L 534.0,568.0 L 524.0,578.0 L 511.0,577.0 L 492.0,587.0 L 485.0,584.0 L 475.0,594.0"/>
    <path d="M 471.0,685.0 L 541.0,683.0 L 721.0,628.0 L 768.0,623.0"/>
    <path d="M 405.0,819.0 L 441.0,823.0 L 470.0,818.0 L 655.0,769.0 L 768.0,746.0 L 804.0,744.0 L 860.0,753.0"/>
    <path d="M 567.0,578.0 L 591.0,593.0 L 599.0,605.0 L 584.0,824.0 L 589.0,885.0 L 609.0,948.0 L 631.0,968.0 L 686.0,989.0 L 741.0,996.0 L 823.0,991.0 L 891.0,970.0 L 915.0,956.0 L 929.0,937.0 L 936.0,800.0"/>
  </g>
</svg>
