<svg xmlns="http://www.w3.org/2000/svg" viewBox="0 0 1024 1024">
  <g style="fill:none;stroke:#000000;stroke-width:50;stroke-linecap:round;stroke-linejoin:round;" transform="scale(1, 1) translate(0, 0)">
    <path d="M 266.0,235.0 L 352.0,274.0 L 378.0,305.0"/>
    <path d="M 118.0,489.0 L 180.0,491.0 L 373.0,444.0 L 435.0,445.0"/>
    <path d="M 296.0,588.0 L 315.0,585.0 L 364.0,598.0 L 383.0,609.0 L 398.0,632.0 L 350.0,796.0 L 321.0,863.0 L 297.0,895.0 L 274.0,911.0 L 186.0,850.0"/>
    <path d="M 253.0,501.0 L 284.0,524.0 L 258.0,601.0 L 223.0,668.0 L 152.0,770.0 L 66.0,851.0"/>
    <path d="M 566.0,195.0 L 598.0,230.0 L 578.0,301.0 L 542.0,380.0 L 498.0,443.0 L 458.0,484.0"/>
    <path d="M 575.0,378.0 L 590.0,370.0 L 647.0,365.0 L 786.0,330.0 L 845.0,326.0"/>
    <path d="M 528.0,480.0 L 547.0,492.0 L 566.0,520.0 L 563.0,650.0 L 545.0,764.0 L 522.0,834.0 L 497.0,880.0 L 459.0,927.0 L 424.0,959.0 L 393.0,977.0"/>
    <path d="M 590.0,488.0 L 608.0,496.0 L 722.0,464.0 L 752.0,476.0 L 764.0,493.0 L 764.0,938.0 L 749.0,964.0 L 646.0,923.0"/>
    <path d="M 626.0,572.0 L 676.0,606.0 L 688.0,623.0"/>
    <path d="M 426.0,700.0 L 479.0,707.0 L 653.0,679.0 L 879.0,655.0 L 926.0,661.0 L 957.0,672.0"/>
  </g>
</svg>
