<svg xmlns="http://www.w3.org/2000/svg" viewBox="0 0 1024 1024">
  <g style="fill:none;stroke:#000000;stroke-width:50;stroke-linecap:round;stroke-linejoin:round;" transform="scale(1, 1) translate(0, 0)">
    <path d="M 273.0,269.0 L 360.0,328.0 L 382.0,368.0"/>
    <path d="M 124.0,552.0 L 184.0,555.0 L 403.0,497.0 L 449.0,494.0"/>
    <path d="M 302.0,646.0 L 317.0,640.0 L 373.0,645.0 L 391.0,656.0 L 403.0,673.0 L 355.0,859.0 L 329.0,912.0 L 295.0,944.0 L 209.0,890.0"/>
    <path d="M 265.0,567.0 L 290.0,591.0 L 286.0,607.0 L 255.0,683.0 L 213.0,760.0 L 150.0,845.0 L 78.0,916.0 L 64.0,919.0 L 62.0,927.0"/>
    <path d="M 587.0,216.0 L 609.0,234.0 L 621.0,254.0 L 610.0,291.0 L 555.0,409.0 L 485.0,511.0"/>
    <path d="M 577.0,423.0 L 674.0,410.0 L 791.0,380.0 L 826.0,383.0"/>
    <path d="M 618.0,517.0 L 585.0,521.0 L 502.0,662.0"/>
    <path d="M 567.0,605.0 L 581.0,599.0 L 621.0,600.0 L 738.0,571.0 L 800.0,568.0"/>
    <path d="M 448.0,768.0 L 492.0,775.0 L 804.0,725.0 L 837.0,725.0 L 890.0,738.0"/>
    <path d="M 624.0,623.0 L 658.0,651.0 L 630.0,791.0 L 601.0,860.0 L 579.0,895.0 L 532.0,946.0 L 475.0,985.0 L 432.0,1004.0"/>
    <path d="M 665.0,773.0 L 678.0,801.0 L 716.0,849.0 L 816.0,957.0 L 843.0,970.0 L 952.0,992.0"/>
  </g>
</svg>
