<svg xmlns="http://www.w3.org/2000/svg" viewBox="0 0 1024 1024">
  <g style="fill:none;stroke:#000000;stroke-width:50;stroke-linecap:round;stroke-linejoin:round;" transform="scale(1, 1) translate(0, 0)">
    <path d="M 300.0,345.0 L 330.0,352.0 L 381.0,352.0 L 651.0,304.0 L 719.0,301.0"/>
    <path d="M 160.0,622.0 L 216.0,630.0 L 345.0,604.0 L 718.0,553.0 L 780.0,558.0 L 825.0,572.0"/>
    <path d="M 444.0,371.0 L 478.0,396.0 L 483.0,406.0 L 480.0,434.0 L 445.0,607.0 L 415.0,706.0 L 388.0,768.0 L 334.0,856.0 L 262.0,933.0 L 174.0,990.0 L 139.0,1002.0"/>
    <path d="M 498.0,637.0 L 534.0,679.0 L 537.0,691.0 L 522.0,804.0 L 526.0,919.0 L 538.0,953.0 L 572.0,979.0 L 622.0,992.0 L 706.0,997.0 L 813.0,987.0 L 869.0,968.0 L 880.0,960.0 L 884.0,932.0 L 887.0,811.0"/>
  </g>
</svg>
