<svg xmlns="http://www.w3.org/2000/svg" viewBox="0 0 1024 1024">
  <g style="fill:none;stroke:#000000;stroke-width:50;stroke-linecap:round;stroke-linejoin:round;" transform="scale(1, 1) translate(0, 0)">
    <path d="M 294.0,278.0 L 331.0,327.0 L 376.0,530.0"/>
    <path d="M 322.0,274.0 L 369.0,289.0 L 453.0,272.0 L 609.0,252.0 L 671.0,259.0 L 700.0,298.0 L 682.0,336.0 L 629.0,500.0"/>
    <path d="M 378.0,407.0 L 388.0,397.0 L 484.0,378.0 L 536.0,371.0 L 559.0,378.0"/>
    <path d="M 397.0,509.0 L 404.0,500.0 L 518.0,479.0 L 587.0,475.0 L 605.0,484.0"/>
    <path d="M 422.0,551.0 L 454.0,582.0 L 457.0,605.0 L 427.0,734.0 L 380.0,843.0 L 336.0,904.0 L 293.0,947.0 L 237.0,988.0 L 169.0,1019.0"/>
    <path d="M 228.0,708.0 L 288.0,716.0 L 580.0,643.0 L 634.0,645.0 L 654.0,667.0 L 637.0,711.0 L 617.0,802.0 L 605.0,891.0 L 608.0,949.0 L 617.0,968.0 L 637.0,985.0 L 696.0,1004.0 L 787.0,1011.0 L 821.0,1008.0 L 878.0,995.0 L 909.0,978.0 L 898.0,808.0"/>
  </g>
</svg>
