<svg xmlns="http://www.w3.org/2000/svg" viewBox="0 0 1024 1024">
  <g style="fill:none;stroke:#000000;stroke-width:50;stroke-linecap:round;stroke-linejoin:round;" transform="scale(1, 1) translate(0, 0)">
    <path d="M 141.0,335.0 L 170.0,372.0 L 178.0,424.0 L 180.0,560.0 L 163.0,796.0 L 168.0,864.0"/>
    <path d="M 204.0,357.0 L 221.0,362.0 L 318.0,335.0 L 357.0,360.0 L 360.0,686.0 L 355.0,799.0 L 348.0,823.0 L 352.0,869.0"/>
    <path d="M 204.0,597.0 L 216.0,583.0 L 235.0,575.0 L 297.0,573.0"/>
    <path d="M 196.0,830.0 L 212.0,813.0 L 303.0,802.0"/>
    <path d="M 419.0,500.0 L 475.0,509.0 L 835.0,448.0 L 888.0,447.0 L 916.0,455.0"/>
    <path d="M 681.0,219.0 L 710.0,237.0 L 730.0,262.0 L 723.0,437.0 L 731.0,920.0 L 726.0,951.0 L 710.0,984.0 L 578.0,933.0"/>
    <path d="M 464.0,632.0 L 552.0,700.0 L 571.0,738.0"/>
  </g>
</svg>
