<svg xmlns="http://www.w3.org/2000/svg" viewBox="0 0 1024 1024">
  <g style="fill:none;stroke:#000000;stroke-width:50;stroke-linecap:round;stroke-linejoin:round;" transform="scale(1, 1) translate(0, 0)">
    <path d="M 293.0,226.0 L 328.0,253.0 L 337.0,276.0 L 383.0,473.0"/>
    <path d="M 370.0,258.0 L 379.0,243.0 L 498.0,222.0 L 620.0,207.0 L 679.0,218.0 L 703.0,251.0 L 650.0,401.0 L 636.0,426.0 L 614.0,430.0"/>
    <path d="M 387.0,347.0 L 395.0,339.0 L 418.0,334.0 L 558.0,314.0 L 592.0,320.0"/>
    <path d="M 404.0,443.0 L 418.0,429.0 L 583.0,409.0 L 604.0,401.0"/>
    <path d="M 468.0,544.0 L 405.0,537.0 L 323.0,586.0 L 240.0,618.0"/>
    <path d="M 124.0,739.0 L 176.0,748.0 L 527.0,695.0 L 797.0,670.0 L 842.0,672.0 L 899.0,688.0"/>
    <path d="M 328.0,604.0 L 365.0,625.0 L 375.0,637.0 L 373.0,738.0 L 352.0,834.0 L 334.0,873.0 L 294.0,926.0 L 262.0,957.0 L 219.0,986.0"/>
    <path d="M 580.0,526.0 L 607.0,543.0 L 625.0,566.0 L 619.0,1063.0"/>
  </g>
</svg>
