<svg xmlns="http://www.w3.org/2000/svg" viewBox="0 0 1024 1024">
  <g style="fill:none;stroke:#000000;stroke-width:50;stroke-linecap:round;stroke-linejoin:round;" transform="scale(1, 1) translate(0, 0)">
    <path d="M 295.0,225.0 L 331.0,253.0 L 343.0,276.0 L 361.0,396.0 L 387.0,485.0"/>
    <path d="M 354.0,236.0 L 379.0,246.0 L 595.0,211.0 L 660.0,215.0 L 689.0,251.0 L 643.0,433.0 L 634.0,453.0 L 607.0,455.0"/>
    <path d="M 390.0,362.0 L 398.0,353.0 L 515.0,331.0 L 554.0,327.0 L 575.0,333.0"/>
    <path d="M 404.0,472.0 L 421.0,461.0 L 448.0,455.0 L 552.0,435.0 L 596.0,434.0"/>
    <path d="M 429.0,581.0 L 400.0,567.0 L 349.0,598.0 L 307.0,618.0 L 296.0,617.0"/>
    <path d="M 226.0,596.0 L 246.0,609.0 L 264.0,633.0 L 267.0,760.0 L 277.0,809.0 L 327.0,790.0 L 465.0,688.0"/>
    <path d="M 609.0,595.0 L 621.0,576.0 L 745.0,543.0 L 776.0,546.0 L 801.0,569.0 L 774.0,719.0 L 745.0,793.0 L 732.0,804.0 L 709.0,795.0 L 646.0,749.0"/>
    <path d="M 528.0,552.0 L 560.0,577.0 L 570.0,603.0 L 563.0,1062.0"/>
  </g>
</svg>
