<svg xmlns="http://www.w3.org/2000/svg" viewBox="0 0 1024 1024">
  <g style="fill:none;stroke:#000000;stroke-width:50;stroke-linecap:round;stroke-linejoin:round;" transform="scale(1, 1) translate(0, 0)">
    <path d="M 121.0,357.0 L 150.0,389.0 L 156.0,419.0 L 160.0,631.0 L 145.0,838.0 L 152.0,901.0"/>
    <path d="M 184.0,375.0 L 196.0,383.0 L 286.0,355.0 L 317.0,364.0 L 337.0,382.0 L 333.0,779.0 L 330.0,828.0 L 320.0,851.0 L 324.0,904.0"/>
    <path d="M 188.0,612.0 L 201.0,597.0 L 222.0,590.0 L 276.0,591.0"/>
    <path d="M 179.0,851.0 L 202.0,835.0 L 283.0,828.0"/>
    <path d="M 561.0,213.0 L 589.0,238.0 L 600.0,262.0 L 578.0,320.0 L 487.0,483.0 L 422.0,560.0"/>
    <path d="M 529.0,459.0 L 555.0,451.0 L 765.0,424.0 L 796.0,438.0 L 815.0,462.0 L 799.0,749.0 L 785.0,835.0 L 762.0,910.0 L 738.0,955.0 L 703.0,984.0 L 616.0,929.0"/>
    <path d="M 493.0,581.0 L 578.0,622.0 L 611.0,658.0"/>
    <path d="M 447.0,815.0 L 503.0,820.0 L 655.0,719.0"/>
  </g>
</svg>
