<svg xmlns="http://www.w3.org/2000/svg" viewBox="0 0 1024 1024">
  <g style="fill:none;stroke:#000000;stroke-width:50;stroke-linecap:round;stroke-linejoin:round;" transform="scale(1, 1) translate(0, 0)">
    <path d="M 114.0,365.0 L 141.0,392.0 L 148.0,408.0 L 152.0,455.0 L 150.0,736.0 L 138.0,857.0 L 144.0,917.0"/>
    <path d="M 170.0,379.0 L 190.0,383.0 L 287.0,352.0 L 309.0,360.0 L 330.0,379.0 L 335.0,844.0 L 324.0,873.0 L 328.0,926.0"/>
    <path d="M 176.0,617.0 L 192.0,600.0 L 205.0,596.0 L 232.0,591.0 L 267.0,594.0"/>
    <path d="M 174.0,877.0 L 187.0,861.0 L 284.0,852.0"/>
    <path d="M 555.0,261.0 L 658.0,321.0 L 688.0,364.0"/>
    <path d="M 406.0,531.0 L 453.0,536.0 L 598.0,501.0 L 799.0,466.0 L 851.0,465.0 L 897.0,476.0"/>
    <path d="M 637.0,634.0 L 657.0,628.0 L 740.0,643.0 L 765.0,658.0 L 780.0,678.0 L 729.0,881.0 L 688.0,966.0 L 651.0,999.0 L 531.0,938.0"/>
    <path d="M 595.0,531.0 L 630.0,558.0 L 604.0,630.0 L 564.0,706.0 L 513.0,784.0 L 470.0,834.0 L 411.0,892.0 L 370.0,922.0"/>
  </g>
</svg>
