<svg xmlns="http://www.w3.org/2000/svg" viewBox="0 0 1024 1024">
  <g style="fill:none;stroke:#000000;stroke-width:50;stroke-linecap:round;stroke-linejoin:round;" transform="scale(1, 1) translate(0, 0)">
    <path d="M 270.0,290.0 L 304.0,316.0 L 311.0,333.0 L 371.0,565.0"/>
    <path d="M 335.0,296.0 L 358.0,308.0 L 497.0,283.0 L 645.0,267.0 L 673.0,271.0 L 689.0,280.0 L 715.0,314.0 L 696.0,358.0 L 642.0,541.0"/>
    <path d="M 373.0,422.0 L 378.0,415.0 L 561.0,387.0 L 594.0,394.0"/>
    <path d="M 391.0,549.0 L 407.0,534.0 L 576.0,509.0 L 615.0,509.0"/>
    <path d="M 207.0,651.0 L 234.0,671.0 L 259.0,712.0 L 294.0,946.0 L 315.0,1012.0"/>
    <path d="M 260.0,655.0 L 306.0,676.0 L 468.0,659.0 L 697.0,619.0 L 740.0,618.0 L 773.0,637.0 L 790.0,658.0 L 772.0,781.0 L 744.0,929.0 L 716.0,978.0 L 711.0,1041.0"/>
    <path d="M 310.0,818.0 L 321.0,828.0 L 349.0,826.0 L 605.0,780.0 L 653.0,788.0"/>
    <path d="M 336.0,982.0 L 348.0,967.0 L 363.0,964.0 L 547.0,940.0 L 625.0,931.0 L 689.0,937.0"/>
  </g>
</svg>
