<svg xmlns="http://www.w3.org/2000/svg" viewBox="0 0 1024 1024">
  <g style="fill:none;stroke:#000000;stroke-width:50;stroke-linecap:round;stroke-linejoin:round;" transform="scale(1, 1) translate(0, 0)">
    <path d="M 146.0,335.0 L 171.0,361.0 L 180.0,388.0 L 183.0,534.0 L 167.0,776.0 L 173.0,834.0"/>
    <path d="M 197.0,346.0 L 217.0,353.0 L 297.0,328.0 L 326.0,337.0 L 344.0,353.0 L 344.0,707.0 L 341.0,770.0 L 331.0,804.0 L 336.0,852.0"/>
    <path d="M 209.0,581.0 L 228.0,561.0 L 284.0,563.0"/>
    <path d="M 201.0,805.0 L 219.0,787.0 L 299.0,776.0"/>
    <path d="M 746.0,295.0 L 669.0,290.0 L 545.0,372.0 L 530.0,367.0"/>
    <path d="M 458.0,367.0 L 494.0,394.0 L 504.0,412.0 L 507.0,542.0 L 494.0,682.0 L 473.0,757.0 L 444.0,820.0 L 414.0,865.0 L 378.0,904.0 L 349.0,930.0 L 325.0,942.0"/>
    <path d="M 544.0,543.0 L 555.0,536.0 L 813.0,483.0 L 859.0,483.0 L 905.0,493.0"/>
    <path d="M 667.0,537.0 L 706.0,564.0 L 703.0,1032.0"/>
  </g>
</svg>
