<svg xmlns="http://www.w3.org/2000/svg" viewBox="0 0 1024 1024">
  <g style="fill:none;stroke:#000000;stroke-width:50;stroke-linecap:round;stroke-linejoin:round;" transform="scale(1, 1) translate(0, 0)">
    <path d="M 107.0,365.0 L 131.0,389.0 L 140.0,410.0 L 145.0,457.0 L 148.0,638.0 L 134.0,829.0 L 140.0,898.0"/>
    <path d="M 167.0,382.0 L 177.0,387.0 L 264.0,360.0 L 308.0,381.0 L 312.0,737.0 L 308.0,826.0 L 301.0,854.0 L 304.0,898.0"/>
    <path d="M 173.0,618.0 L 181.0,605.0 L 195.0,599.0 L 230.0,597.0 L 256.0,603.0"/>
    <path d="M 166.0,866.0 L 182.0,850.0 L 245.0,843.0 L 263.0,834.0"/>
    <path d="M 395.0,491.0 L 421.0,513.0 L 434.0,537.0 L 455.0,669.0 L 444.0,678.0"/>
    <path d="M 445.0,495.0 L 470.0,506.0 L 624.0,476.0 L 687.0,457.0 L 721.0,453.0 L 739.0,458.0 L 770.0,486.0 L 768.0,499.0 L 734.0,619.0 L 705.0,647.0"/>
    <path d="M 361.0,708.0 L 401.0,716.0 L 428.0,714.0 L 633.0,679.0 L 833.0,657.0 L 870.0,658.0 L 927.0,672.0"/>
    <path d="M 551.0,205.0 L 579.0,222.0 L 603.0,252.0 L 586.0,642.0 L 568.0,753.0 L 523.0,863.0 L 479.0,921.0 L 413.0,974.0 L 315.0,1018.0"/>
    <path d="M 603.0,717.0 L 612.0,750.0 L 688.0,853.0 L 741.0,915.0 L 799.0,970.0 L 827.0,992.0 L 962.0,1018.0"/>
  </g>
</svg>
