<svg xmlns="http://www.w3.org/2000/svg" viewBox="0 0 1024 1024">
  <g style="fill:none;stroke:#000000;stroke-width:50;stroke-linecap:round;stroke-linejoin:round;" transform="scale(1, 1) translate(0, 0)">
    <path d="M 129.0,371.0 L 152.0,397.0 L 162.0,419.0 L 166.0,582.0 L 161.0,702.0 L 147.0,827.0 L 152.0,896.0"/>
    <path d="M 191.0,392.0 L 206.0,396.0 L 294.0,368.0 L 318.0,377.0 L 337.0,393.0 L 342.0,815.0 L 339.0,852.0 L 331.0,865.0 L 336.0,916.0"/>
    <path d="M 191.0,628.0 L 199.0,615.0 L 214.0,607.0 L 272.0,607.0"/>
    <path d="M 177.0,867.0 L 189.0,856.0 L 215.0,847.0 L 291.0,843.0"/>
    <path d="M 552.0,210.0 L 578.0,232.0 L 590.0,254.0 L 572.0,305.0 L 525.0,401.0 L 478.0,479.0 L 402.0,574.0"/>
    <path d="M 507.0,479.0 L 771.0,422.0 L 803.0,429.0 L 833.0,461.0 L 826.0,499.0 L 821.0,658.0 L 810.0,771.0 L 795.0,847.0 L 770.0,922.0 L 740.0,973.0 L 707.0,1000.0 L 621.0,952.0 L 616.0,942.0 L 601.0,938.0"/>
    <path d="M 433.0,619.0 L 452.0,637.0 L 463.0,661.0 L 489.0,835.0"/>
    <path d="M 473.0,621.0 L 493.0,629.0 L 588.0,607.0 L 627.0,610.0 L 647.0,633.0 L 645.0,643.0 L 622.0,718.0 L 597.0,735.0"/>
    <path d="M 506.0,768.0 L 518.0,775.0 L 593.0,762.0 L 650.0,769.0"/>
  </g>
</svg>
