<svg xmlns="http://www.w3.org/2000/svg" viewBox="0 0 1024 1024">
  <g style="fill:none;stroke:#000000;stroke-width:50;stroke-linecap:round;stroke-linejoin:round;" transform="scale(1, 1) translate(0, 0)">
    <path d="M 342.0,265.0 L 364.0,284.0 L 376.0,304.0 L 420.0,522.0"/>
    <path d="M 394.0,267.0 L 412.0,277.0 L 476.0,260.0 L 607.0,243.0 L 645.0,252.0 L 660.0,267.0 L 669.0,280.0 L 629.0,445.0 L 615.0,481.0 L 619.0,500.0"/>
    <path d="M 425.0,393.0 L 451.0,380.0 L 532.0,364.0 L 567.0,369.0"/>
    <path d="M 441.0,496.0 L 450.0,487.0 L 566.0,470.0 L 581.0,462.0"/>
    <path d="M 146.0,631.0 L 193.0,640.0 L 441.0,597.0 L 792.0,557.0 L 827.0,560.0 L 880.0,575.0"/>
    <path d="M 483.0,612.0 L 517.0,644.0 L 509.0,837.0 L 512.0,857.0 L 528.0,880.0"/>
    <path d="M 545.0,756.0 L 578.0,741.0 L 666.0,721.0 L 715.0,724.0"/>
    <path d="M 318.0,678.0 L 345.0,713.0 L 321.0,773.0 L 286.0,835.0 L 249.0,888.0 L 196.0,946.0 L 126.0,1002.0"/>
    <path d="M 357.0,782.0 L 359.0,798.0 L 368.0,806.0 L 463.0,875.0 L 583.0,949.0 L 686.0,996.0 L 709.0,1004.0 L 755.0,1006.0 L 880.0,998.0 L 907.0,990.0"/>
  </g>
</svg>
