<svg xmlns="http://www.w3.org/2000/svg" viewBox="0 0 1024 1024">
  <g style="fill:none;stroke:#000000;stroke-width:50;stroke-linecap:round;stroke-linejoin:round;" transform="scale(1, 1) translate(0, 0)">
    <path d="M 137.0,327.0 L 165.0,357.0 L 174.0,414.0 L 173.0,628.0 L 155.0,838.0 L 160.0,908.0"/>
    <path d="M 195.0,343.0 L 212.0,350.0 L 309.0,323.0 L 333.0,333.0 L 353.0,352.0 L 353.0,809.0 L 350.0,846.0 L 340.0,871.0 L 344.0,926.0"/>
    <path d="M 200.0,608.0 L 206.0,597.0 L 221.0,589.0 L 253.0,584.0 L 288.0,587.0"/>
    <path d="M 185.0,870.0 L 202.0,857.0 L 302.0,846.0"/>
    <path d="M 478.0,357.0 L 536.0,363.0 L 777.0,306.0 L 795.0,306.0 L 818.0,323.0 L 822.0,334.0 L 803.0,468.0 L 782.0,539.0 L 762.0,576.0 L 736.0,600.0 L 706.0,589.0 L 652.0,553.0"/>
    <path d="M 583.0,379.0 L 605.0,393.0 L 614.0,416.0 L 580.0,497.0 L 509.0,607.0 L 439.0,677.0"/>
    <path d="M 454.0,733.0 L 493.0,781.0 L 536.0,996.0"/>
    <path d="M 486.0,731.0 L 533.0,748.0 L 743.0,701.0 L 778.0,708.0 L 804.0,741.0 L 773.0,855.0 L 746.0,869.0"/>
    <path d="M 553.0,919.0 L 575.0,931.0 L 742.0,905.0 L 785.0,906.0 L 813.0,915.0"/>
  </g>
</svg>
