<svg xmlns="http://www.w3.org/2000/svg" viewBox="0 0 1024 1024">
  <g style="fill:none;stroke:#000000;stroke-width:50;stroke-linecap:round;stroke-linejoin:round;" transform="scale(1, 1) translate(0, 0)">
    <path d="M 117.0,315.0 L 145.0,347.0 L 151.0,392.0 L 152.0,595.0 L 135.0,770.0 L 140.0,840.0"/>
    <path d="M 183.0,340.0 L 216.0,341.0 L 274.0,324.0 L 297.0,333.0 L 313.0,349.0 L 317.0,725.0 L 308.0,790.0 L 312.0,842.0"/>
    <path d="M 178.0,575.0 L 201.0,553.0 L 257.0,550.0"/>
    <path d="M 169.0,808.0 L 185.0,793.0 L 253.0,786.0 L 269.0,774.0"/>
    <path d="M 497.0,329.0 L 525.0,339.0 L 599.0,326.0 L 701.0,298.0 L 734.0,306.0 L 755.0,328.0 L 724.0,418.0 L 702.0,434.0"/>
    <path d="M 510.0,511.0 L 532.0,494.0 L 693.0,463.0 L 759.0,470.0"/>
    <path d="M 446.0,328.0 L 469.0,344.0 L 485.0,382.0 L 472.0,602.0 L 449.0,704.0 L 408.0,802.0 L 373.0,857.0 L 292.0,937.0 L 254.0,960.0"/>
    <path d="M 763.0,587.0 L 779.0,626.0 L 614.0,755.0"/>
    <path d="M 560.0,573.0 L 597.0,624.0 L 585.0,714.0 L 587.0,851.0 L 601.0,907.0 L 627.0,929.0 L 673.0,943.0 L 759.0,948.0 L 849.0,939.0 L 901.0,919.0 L 907.0,883.0 L 908.0,770.0"/>
  </g>
</svg>
