<svg xmlns="http://www.w3.org/2000/svg" viewBox="0 0 1024 1024">
  <g style="fill:none;stroke:#000000;stroke-width:50;stroke-linecap:round;stroke-linejoin:round;" transform="scale(1, 1) translate(0, 0)">
    <path d="M 150.0,340.0 L 177.0,373.0 L 185.0,439.0 L 183.0,632.0 L 164.0,812.0 L 168.0,880.0"/>
    <path d="M 208.0,359.0 L 226.0,364.0 L 319.0,339.0 L 342.0,348.0 L 361.0,366.0 L 356.0,796.0 L 345.0,836.0 L 348.0,883.0"/>
    <path d="M 209.0,615.0 L 227.0,596.0 L 265.0,592.0 L 303.0,598.0"/>
    <path d="M 195.0,844.0 L 211.0,829.0 L 286.0,818.0 L 309.0,809.0"/>
    <path d="M 527.0,360.0 L 587.0,362.0 L 744.0,315.0 L 789.0,316.0"/>
    <path d="M 616.0,167.0 L 659.0,205.0 L 648.0,446.0 L 630.0,473.0"/>
    <path d="M 421.0,527.0 L 460.0,533.0 L 490.0,529.0 L 619.0,498.0 L 884.0,456.0 L 953.0,469.0"/>
    <path d="M 467.0,681.0 L 498.0,688.0 L 528.0,686.0 L 811.0,628.0 L 870.0,632.0"/>
    <path d="M 674.0,519.0 L 710.0,539.0 L 716.0,558.0 L 720.0,934.0 L 714.0,982.0 L 695.0,1016.0 L 654.0,1004.0 L 589.0,971.0"/>
    <path d="M 495.0,748.0 L 555.0,818.0 L 567.0,856.0"/>
  </g>
</svg>
