<svg xmlns="http://www.w3.org/2000/svg" viewBox="0 0 1024 1024">
  <g style="fill:none;stroke:#000000;stroke-width:50;stroke-linecap:round;stroke-linejoin:round;" transform="scale(1, 1) translate(0, 0)">
    <path d="M 105.0,351.0 L 133.0,382.0 L 143.0,449.0 L 146.0,571.0 L 127.0,843.0 L 133.0,902.0"/>
    <path d="M 160.0,365.0 L 183.0,369.0 L 269.0,344.0 L 292.0,352.0 L 309.0,368.0 L 309.0,774.0 L 305.0,835.0 L 297.0,851.0 L 300.0,901.0"/>
    <path d="M 169.0,613.0 L 175.0,601.0 L 191.0,592.0 L 231.0,585.0 L 252.0,589.0"/>
    <path d="M 163.0,853.0 L 174.0,839.0 L 266.0,821.0"/>
    <path d="M 443.0,373.0 L 469.0,379.0 L 508.0,377.0 L 770.0,321.0 L 827.0,328.0"/>
    <path d="M 352.0,586.0 L 378.0,608.0 L 396.0,640.0 L 418.0,797.0 L 424.0,888.0 L 438.0,935.0"/>
    <path d="M 404.0,596.0 L 435.0,609.0 L 516.0,602.0 L 788.0,546.0 L 824.0,548.0 L 846.0,563.0 L 861.0,580.0 L 851.0,730.0 L 833.0,870.0 L 811.0,915.0 L 814.0,974.0"/>
    <path d="M 524.0,399.0 L 554.0,420.0 L 556.0,566.0 L 551.0,611.0 L 528.0,697.0 L 482.0,780.0"/>
    <path d="M 636.0,373.0 L 669.0,400.0 L 659.0,645.0 L 673.0,703.0 L 690.0,725.0 L 707.0,734.0 L 786.0,731.0"/>
    <path d="M 457.0,914.0 L 470.0,901.0 L 656.0,877.0 L 733.0,869.0 L 782.0,876.0"/>
  </g>
</svg>
