<svg xmlns="http://www.w3.org/2000/svg" viewBox="0 0 1024 1024">
  <g style="fill:none;stroke:#000000;stroke-width:50;stroke-linecap:round;stroke-linejoin:round;" transform="scale(1, 1) translate(0, 0)">
    <path d="M 105.0,360.0 L 131.0,390.0 L 139.0,447.0 L 138.0,653.0 L 123.0,827.0 L 128.0,883.0"/>
    <path d="M 163.0,379.0 L 194.0,378.0 L 264.0,353.0 L 304.0,375.0 L 304.0,771.0 L 294.0,840.0 L 296.0,885.0"/>
    <path d="M 164.0,612.0 L 183.0,595.0 L 218.0,586.0 L 249.0,589.0"/>
    <path d="M 157.0,850.0 L 162.0,840.0 L 181.0,829.0 L 262.0,809.0"/>
    <path d="M 542.0,206.0 L 564.0,241.0 L 544.0,285.0 L 484.0,364.0 L 391.0,452.0"/>
    <path d="M 529.0,347.0 L 645.0,324.0 L 680.0,337.0 L 631.0,422.0 L 569.0,501.0"/>
    <path d="M 368.0,521.0 L 393.0,544.0 L 399.0,562.0 L 429.0,729.0"/>
    <path d="M 425.0,530.0 L 437.0,538.0 L 548.0,521.0 L 700.0,485.0 L 739.0,486.0 L 770.0,519.0 L 729.0,617.0 L 704.0,626.0"/>
    <path d="M 448.0,708.0 L 465.0,695.0 L 701.0,659.0 L 737.0,660.0 L 762.0,669.0"/>
    <path d="M 537.0,540.0 L 571.0,567.0 L 547.0,706.0 L 512.0,809.0 L 438.0,914.0 L 373.0,968.0 L 296.0,1008.0"/>
    <path d="M 592.0,725.0 L 619.0,761.0 L 609.0,883.0 L 615.0,950.0 L 639.0,983.0 L 682.0,1004.0 L 739.0,1015.0 L 804.0,1014.0 L 867.0,1000.0 L 909.0,977.0 L 920.0,965.0 L 916.0,813.0"/>
  </g>
</svg>
