<svg xmlns="http://www.w3.org/2000/svg" viewBox="0 0 1024 1024">
  <g style="fill:none;stroke:#000000;stroke-width:50;stroke-linecap:round;stroke-linejoin:round;" transform="scale(1, 1) translate(0, 0)">
    <path d="M 136.0,322.0 L 159.0,347.0 L 166.0,368.0 L 170.0,444.0 L 166.0,622.0 L 148.0,819.0 L 152.0,875.0"/>
    <path d="M 195.0,344.0 L 207.0,350.0 L 290.0,330.0 L 313.0,340.0 L 329.0,358.0 L 332.0,704.0 L 329.0,796.0 L 320.0,827.0 L 324.0,873.0"/>
    <path d="M 192.0,581.0 L 205.0,564.0 L 255.0,553.0 L 276.0,557.0"/>
    <path d="M 183.0,830.0 L 209.0,817.0 L 281.0,805.0"/>
    <path d="M 530.0,199.0 L 560.0,236.0 L 537.0,299.0 L 488.0,382.0 L 422.0,448.0"/>
    <path d="M 528.0,364.0 L 631.0,357.0 L 768.0,323.0 L 825.0,321.0"/>
    <path d="M 487.0,472.0 L 515.0,500.0 L 522.0,522.0 L 519.0,554.0 L 481.0,728.0 L 444.0,832.0 L 487.0,838.0 L 601.0,826.0 L 697.0,827.0 L 815.0,837.0 L 865.0,861.0"/>
    <path d="M 543.0,487.0 L 558.0,497.0 L 586.0,492.0 L 701.0,458.0 L 729.0,462.0 L 760.0,490.0 L 736.0,798.0 L 715.0,917.0 L 702.0,957.0 L 681.0,987.0 L 658.0,1000.0 L 552.0,940.0"/>
    <path d="M 602.0,541.0 L 644.0,582.0"/>
    <path d="M 382.0,665.0 L 414.0,673.0 L 439.0,672.0 L 668.0,642.0 L 856.0,628.0 L 933.0,647.0"/>
    <path d="M 582.0,712.0 L 622.0,736.0 L 639.0,755.0"/>
  </g>
</svg>
