<svg xmlns="http://www.w3.org/2000/svg" viewBox="0 0 1024 1024">
  <g style="fill:none;stroke:#000000;stroke-width:50;stroke-linecap:round;stroke-linejoin:round;" transform="scale(1, 1) translate(0, 0)">
    <path d="M 100.0,334.0 L 126.0,365.0 L 134.0,437.0 L 135.0,546.0 L 112.0,796.0 L 116.0,863.0"/>
    <path d="M 158.0,353.0 L 168.0,358.0 L 245.0,336.0 L 281.0,358.0 L 276.0,500.0 L 279.0,746.0 L 276.0,796.0 L 265.0,824.0 L 268.0,868.0"/>
    <path d="M 156.0,587.0 L 161.0,576.0 L 177.0,567.0 L 225.0,564.0"/>
    <path d="M 145.0,825.0 L 158.0,810.0 L 210.0,805.0 L 242.0,792.0"/>
    <path d="M 342.0,503.0 L 396.0,500.0 L 527.0,453.0 L 570.0,449.0"/>
    <path d="M 441.0,176.0 L 490.0,228.0 L 475.0,741.0 L 456.0,934.0 L 457.0,1019.0"/>
    <path d="M 457.0,509.0 L 430.0,607.0 L 366.0,712.0 L 327.0,763.0 L 318.0,767.0 L 310.0,788.0"/>
    <path d="M 500.0,594.0 L 555.0,631.0 L 573.0,650.0"/>
    <path d="M 881.0,334.0 L 812.0,333.0 L 777.0,365.0 L 708.0,412.0 L 676.0,429.0 L 666.0,423.0"/>
    <path d="M 606.0,429.0 L 625.0,440.0 L 645.0,465.0 L 650.0,591.0 L 643.0,664.0 L 620.0,752.0 L 603.0,787.0 L 558.0,848.0 L 513.0,881.0"/>
    <path d="M 679.0,575.0 L 689.0,567.0 L 877.0,522.0 L 914.0,520.0 L 960.0,527.0"/>
    <path d="M 762.0,575.0 L 795.0,591.0 L 803.0,604.0 L 799.0,1092.0"/>
  </g>
</svg>
