<svg xmlns="http://www.w3.org/2000/svg" viewBox="0 0 1024 1024">
  <g style="fill:none;stroke:#000000;stroke-width:50;stroke-linecap:round;stroke-linejoin:round;" transform="scale(1, 1) translate(0, 0)">
    <path d="M 77.0,372.0 L 102.0,401.0 L 111.0,460.0 L 109.0,688.0 L 95.0,839.0 L 100.0,895.0"/>
    <path d="M 137.0,401.0 L 148.0,389.0 L 206.0,367.0 L 229.0,374.0 L 246.0,389.0 L 250.0,799.0 L 241.0,844.0 L 244.0,885.0"/>
    <path d="M 137.0,604.0 L 148.0,590.0 L 193.0,590.0"/>
    <path d="M 130.0,850.0 L 143.0,835.0 L 188.0,830.0 L 207.0,818.0"/>
    <path d="M 382.0,325.0 L 467.0,369.0 L 495.0,405.0"/>
    <path d="M 308.0,558.0 L 360.0,559.0 L 508.0,507.0 L 562.0,502.0"/>
    <path d="M 454.0,651.0 L 461.0,646.0 L 530.0,693.0 L 532.0,714.0 L 510.0,764.0 L 518.0,773.0 L 496.0,824.0 L 512.0,847.0 L 478.0,876.0 L 484.0,912.0 L 464.0,924.0 L 454.0,959.0 L 441.0,966.0 L 427.0,986.0 L 414.0,992.0 L 402.0,987.0 L 383.0,962.0 L 354.0,970.0"/>
    <path d="M 455.0,574.0 L 429.0,590.0 L 404.0,685.0 L 339.0,821.0 L 296.0,882.0 L 244.0,942.0 L 231.0,946.0 L 229.0,955.0"/>
    <path d="M 664.0,264.0 L 684.0,276.0 L 701.0,297.0 L 692.0,342.0 L 635.0,498.0 L 572.0,603.0"/>
    <path d="M 671.0,475.0 L 747.0,461.0 L 827.0,432.0 L 873.0,430.0"/>
    <path d="M 563.0,781.0 L 584.0,782.0 L 623.0,769.0 L 816.0,646.0 L 838.0,640.0 L 859.0,648.0 L 848.0,798.0 L 839.0,822.0 L 824.0,837.0 L 801.0,828.0 L 763.0,795.0"/>
    <path d="M 714.0,536.0 L 727.0,542.0 L 746.0,565.0 L 736.0,739.0 L 719.0,864.0"/>
    <path d="M 617.0,631.0 L 639.0,659.0 L 630.0,808.0 L 637.0,899.0 L 654.0,940.0 L 685.0,965.0 L 728.0,979.0 L 800.0,984.0 L 853.0,977.0 L 899.0,960.0 L 929.0,935.0 L 930.0,821.0"/>
  </g>
</svg>
