<svg xmlns="http://www.w3.org/2000/svg" viewBox="0 0 1024 1024">
  <g style="fill:none;stroke:#000000;stroke-width:50;stroke-linecap:round;stroke-linejoin:round;" transform="scale(1, 1) translate(0, 0)">
    <path d="M 115.0,335.0 L 140.0,360.0 L 147.0,380.0 L 152.0,464.0 L 149.0,659.0 L 135.0,828.0 L 140.0,883.0"/>
    <path d="M 169.0,349.0 L 185.0,352.0 L 253.0,326.0 L 282.0,333.0 L 297.0,347.0 L 293.0,490.0 L 298.0,774.0 L 295.0,814.0 L 286.0,838.0 L 288.0,881.0"/>
    <path d="M 177.0,590.0 L 185.0,577.0 L 229.0,569.0 L 249.0,573.0"/>
    <path d="M 169.0,843.0 L 193.0,824.0 L 255.0,812.0"/>
    <path d="M 435.0,333.0 L 445.0,322.0 L 528.0,294.0 L 553.0,296.0 L 564.0,305.0 L 572.0,315.0 L 547.0,408.0 L 542.0,420.0 L 526.0,426.0"/>
    <path d="M 429.0,490.0 L 450.0,475.0 L 518.0,457.0 L 569.0,459.0"/>
    <path d="M 365.0,291.0 L 400.0,331.0 L 408.0,434.0 L 401.0,792.0 L 375.0,946.0 L 375.0,1011.0"/>
    <path d="M 427.0,624.0 L 440.0,613.0 L 495.0,599.0 L 544.0,602.0"/>
    <path d="M 425.0,749.0 L 438.0,738.0 L 495.0,727.0 L 534.0,723.0 L 555.0,729.0"/>
    <path d="M 643.0,321.0 L 670.0,324.0 L 723.0,316.0 L 787.0,297.0 L 801.0,302.0 L 823.0,326.0 L 792.0,400.0 L 766.0,411.0"/>
    <path d="M 639.0,456.0 L 674.0,458.0 L 764.0,441.0 L 823.0,447.0"/>
    <path d="M 600.0,565.0 L 662.0,564.0 L 744.0,538.0 L 778.0,538.0 L 796.0,546.0 L 787.0,597.0 L 753.0,701.0 L 698.0,799.0 L 652.0,846.0 L 604.0,878.0 L 566.0,894.0 L 508.0,907.0"/>
    <path d="M 599.0,633.0 L 640.0,657.0 L 729.0,779.0 L 841.0,896.0 L 901.0,912.0 L 973.0,922.0"/>
  </g>
</svg>
