<svg xmlns="http://www.w3.org/2000/svg" viewBox="0 0 1024 1024">
  <g style="fill:none;stroke:#000000;stroke-width:50;stroke-linecap:round;stroke-linejoin:round;" transform="scale(1, 1) translate(0, 0)">
    <path d="M 121.0,351.0 L 150.0,388.0 L 157.0,440.0 L 155.0,638.0 L 140.0,827.0 L 144.0,904.0"/>
    <path d="M 185.0,373.0 L 196.0,378.0 L 279.0,349.0 L 302.0,358.0 L 321.0,375.0 L 320.0,827.0 L 310.0,875.0 L 312.0,921.0"/>
    <path d="M 183.0,619.0 L 189.0,607.0 L 205.0,598.0 L 236.0,592.0 L 269.0,594.0"/>
    <path d="M 174.0,876.0 L 185.0,864.0 L 244.0,856.0 L 278.0,843.0"/>
    <path d="M 562.0,185.0 L 640.0,236.0 L 662.0,272.0"/>
    <path d="M 462.0,381.0 L 484.0,387.0 L 534.0,386.0 L 762.0,337.0 L 780.0,334.0 L 806.0,340.0"/>
    <path d="M 486.0,456.0 L 528.0,508.0 L 535.0,530.0"/>
    <path d="M 685.0,384.0 L 713.0,410.0 L 715.0,420.0 L 668.0,530.0 L 639.0,564.0"/>
    <path d="M 366.0,619.0 L 422.0,625.0 L 580.0,594.0 L 844.0,558.0 L 892.0,562.0 L 929.0,573.0"/>
    <path d="M 480.0,711.0 L 506.0,738.0 L 513.0,769.0 L 515.0,885.0 L 505.0,982.0 L 507.0,1032.0"/>
    <path d="M 531.0,727.0 L 551.0,735.0 L 702.0,694.0 L 734.0,706.0 L 754.0,728.0 L 756.0,953.0 L 742.0,997.0 L 744.0,1059.0"/>
    <path d="M 540.0,865.0 L 553.0,854.0 L 613.0,840.0 L 649.0,837.0 L 675.0,843.0"/>
    <path d="M 538.0,994.0 L 553.0,977.0 L 638.0,963.0 L 692.0,963.0"/>
  </g>
</svg>
