<svg xmlns="http://www.w3.org/2000/svg" viewBox="0 0 1024 1024">
  <g style="fill:none;stroke:#000000;stroke-width:50;stroke-linecap:round;stroke-linejoin:round;" transform="scale(1, 1) translate(0, 0)">
    <path d="M 94.0,445.0 L 123.0,471.0 L 128.0,486.0 L 168.0,705.0"/>
    <path d="M 159.0,472.0 L 167.0,458.0 L 183.0,452.0 L 341.0,416.0 L 388.0,417.0 L 407.0,432.0 L 417.0,445.0 L 379.0,628.0 L 366.0,662.0 L 343.0,665.0"/>
    <path d="M 191.0,560.0 L 288.0,533.0 L 332.0,532.0"/>
    <path d="M 183.0,687.0 L 195.0,677.0 L 340.0,638.0"/>
    <path d="M 225.0,199.0 L 251.0,219.0 L 274.0,248.0 L 275.0,259.0 L 269.0,735.0 L 253.0,943.0 L 256.0,1018.0"/>
    <path d="M 534.0,217.0 L 557.0,237.0 L 571.0,265.0 L 584.0,401.0 L 597.0,457.0"/>
    <path d="M 592.0,235.0 L 606.0,243.0 L 639.0,231.0 L 741.0,212.0 L 759.0,215.0 L 774.0,230.0 L 782.0,242.0 L 766.0,306.0 L 754.0,401.0 L 742.0,435.0 L 727.0,435.0"/>
    <path d="M 609.0,351.0 L 614.0,340.0 L 654.0,330.0 L 697.0,332.0"/>
    <path d="M 618.0,448.0 L 624.0,436.0 L 717.0,419.0"/>
    <path d="M 461.0,556.0 L 507.0,563.0 L 651.0,534.0 L 879.0,504.0 L 919.0,508.0 L 954.0,520.0"/>
    <path d="M 540.0,585.0 L 551.0,598.0 L 554.0,615.0 L 530.0,655.0 L 454.0,738.0 L 407.0,767.0"/>
    <path d="M 561.0,656.0 L 655.0,651.0 L 848.0,622.0 L 875.0,632.0 L 889.0,650.0 L 831.0,866.0 L 787.0,957.0 L 758.0,983.0 L 743.0,987.0 L 683.0,945.0"/>
    <path d="M 579.0,678.0 L 598.0,707.0 L 566.0,764.0 L 493.0,844.0 L 439.0,879.0"/>
    <path d="M 698.0,662.0 L 723.0,694.0 L 720.0,705.0 L 683.0,796.0 L 641.0,862.0 L 605.0,904.0 L 543.0,957.0 L 452.0,1013.0"/>
  </g>
</svg>
