<svg xmlns="http://www.w3.org/2000/svg" viewBox="0 0 1024 1024">
  <g style="fill:none;stroke:#000000;stroke-width:50;stroke-linecap:round;stroke-linejoin:round;" transform="scale(1, 1) translate(0, 0)">
    <path d="M 273.0,290.0 L 293.0,297.0 L 308.0,289.0 L 404.0,269.0 L 418.0,271.0 L 437.0,288.0 L 443.0,304.0 L 397.0,454.0"/>
    <path d="M 282.0,395.0 L 289.0,383.0 L 319.0,375.0 L 369.0,376.0"/>
    <path d="M 276.0,479.0 L 284.0,470.0 L 363.0,450.0 L 378.0,459.0"/>
    <path d="M 207.0,285.0 L 229.0,296.0 L 248.0,323.0 L 251.0,438.0 L 241.0,595.0 L 243.0,631.0 L 249.0,640.0 L 296.0,620.0 L 365.0,572.0 L 385.0,549.0"/>
    <path d="M 371.0,507.0 L 422.0,553.0 L 435.0,586.0"/>
    <path d="M 572.0,287.0 L 634.0,290.0 L 750.0,260.0 L 792.0,261.0"/>
    <path d="M 526.0,342.0 L 546.0,368.0 L 526.0,432.0 L 526.0,456.0 L 564.0,456.0 L 726.0,413.0 L 803.0,418.0"/>
    <path d="M 638.0,318.0 L 664.0,338.0 L 648.0,405.0 L 618.0,480.0 L 586.0,533.0 L 534.0,592.0 L 470.0,641.0"/>
    <path d="M 669.0,464.0 L 689.0,489.0 L 692.0,507.0 L 685.0,569.0 L 688.0,599.0 L 703.0,624.0 L 738.0,641.0 L 827.0,645.0 L 862.0,637.0 L 886.0,623.0 L 899.0,609.0 L 879.0,521.0"/>
    <path d="M 322.0,705.0 L 346.0,725.0 L 360.0,747.0 L 392.0,916.0"/>
    <path d="M 384.0,709.0 L 396.0,714.0 L 456.0,699.0 L 601.0,677.0 L 644.0,687.0 L 667.0,718.0 L 632.0,831.0 L 610.0,884.0 L 584.0,872.0"/>
    <path d="M 403.0,810.0 L 429.0,797.0 L 485.0,783.0 L 542.0,775.0 L 563.0,781.0"/>
    <path d="M 413.0,909.0 L 431.0,897.0 L 540.0,879.0 L 551.0,878.0 L 564.0,889.0"/>
    <path d="M 183.0,1003.0 L 209.0,1015.0 L 250.0,1020.0 L 423.0,996.0 L 757.0,970.0 L 823.0,980.0 L 865.0,998.0"/>
  </g>
</svg>
