<svg xmlns="http://www.w3.org/2000/svg" viewBox="0 0 1024 1024">
  <g style="fill:none;stroke:#000000;stroke-width:50;stroke-linecap:round;stroke-linejoin:round;" transform="scale(1, 1) translate(0, 0)">
    <path d="M 248.0,277.0 L 319.0,278.0 L 426.0,248.0 L 488.0,243.0"/>
    <path d="M 184.0,371.0 L 211.0,391.0 L 219.0,406.0 L 263.0,562.0"/>
    <path d="M 239.0,368.0 L 252.0,378.0 L 447.0,330.0 L 483.0,330.0 L 505.0,339.0 L 521.0,360.0 L 478.0,506.0 L 479.0,529.0"/>
    <path d="M 294.0,444.0 L 342.0,442.0 L 400.0,421.0 L 438.0,418.0"/>
    <path d="M 282.0,542.0 L 295.0,531.0 L 445.0,494.0"/>
    <path d="M 72.0,658.0 L 139.0,664.0 L 403.0,607.0 L 470.0,597.0 L 514.0,601.0"/>
    <path d="M 335.0,155.0 L 375.0,196.0 L 369.0,568.0 L 360.0,665.0 L 363.0,736.0"/>
    <path d="M 752.0,213.0 L 771.0,253.0 L 717.0,301.0 L 657.0,342.0 L 657.0,349.0"/>
    <path d="M 587.0,339.0 L 623.0,371.0 L 625.0,418.0 L 615.0,525.0 L 580.0,611.0 L 542.0,656.0 L 510.0,677.0"/>
    <path d="M 651.0,437.0 L 669.0,446.0 L 718.0,444.0 L 898.0,405.0 L 933.0,408.0"/>
    <path d="M 734.0,465.0 L 769.0,490.0 L 767.0,711.0"/>
    <path d="M 377.0,766.0 L 402.0,785.0 L 415.0,829.0 L 415.0,933.0 L 403.0,1016.0 L 406.0,1066.0"/>
    <path d="M 426.0,767.0 L 451.0,778.0 L 679.0,735.0 L 717.0,764.0 L 719.0,970.0 L 714.0,1004.0 L 704.0,1025.0 L 647.0,1011.0"/>
    <path d="M 443.0,896.0 L 455.0,885.0 L 567.0,868.0 L 595.0,866.0 L 618.0,873.0"/>
    <path d="M 439.0,1018.0 L 454.0,1004.0 L 491.0,998.0 L 620.0,984.0 L 663.0,992.0"/>
  </g>
</svg>
