<svg xmlns="http://www.w3.org/2000/svg" viewBox="0 0 1024 1024">
  <g style="fill:none;stroke:#000000;stroke-width:50;stroke-linecap:round;stroke-linejoin:round;" transform="scale(1, 1) translate(0, 0)">
    <path d="M 302.0,234.0 L 326.0,254.0 L 341.0,287.0 L 376.0,450.0"/>
    <path d="M 350.0,235.0 L 376.0,245.0 L 572.0,211.0 L 628.0,213.0 L 649.0,233.0 L 656.0,250.0 L 603.0,396.0"/>
    <path d="M 384.0,338.0 L 390.0,329.0 L 484.0,310.0 L 535.0,303.0 L 556.0,308.0"/>
    <path d="M 395.0,416.0 L 429.0,403.0 L 561.0,386.0 L 582.0,396.0"/>
    <path d="M 275.0,535.0 L 357.0,543.0 L 437.0,534.0 L 638.0,496.0 L 693.0,496.0"/>
    <path d="M 369.0,484.0 L 404.0,519.0 L 412.0,603.0 L 427.0,621.0"/>
    <path d="M 547.0,433.0 L 578.0,471.0 L 561.0,578.0 L 554.0,595.0 L 542.0,604.0"/>
    <path d="M 177.0,667.0 L 227.0,676.0 L 443.0,640.0 L 733.0,608.0 L 766.0,610.0 L 827.0,626.0"/>
    <path d="M 321.0,688.0 L 339.0,710.0 L 298.0,760.0 L 247.0,807.0 L 166.0,862.0 L 104.0,891.0 L 90.0,889.0 L 85.0,897.0"/>
    <path d="M 608.0,648.0 L 635.0,659.0 L 733.0,759.0 L 808.0,820.0 L 863.0,834.0 L 961.0,844.0"/>
    <path d="M 465.0,694.0 L 508.0,739.0 L 507.0,978.0 L 487.0,1019.0 L 386.0,974.0"/>
    <path d="M 341.0,797.0 L 386.0,816.0 L 414.0,845.0"/>
    <path d="M 237.0,976.0 L 288.0,975.0 L 413.0,884.0"/>
    <path d="M 631.0,750.0 L 641.0,778.0 L 565.0,831.0"/>
    <path d="M 586.0,879.0 L 695.0,947.0 L 713.0,964.0 L 735.0,1004.0"/>
  </g>
</svg>
