<svg xmlns="http://www.w3.org/2000/svg" viewBox="0 0 1024 1024">
  <g style="fill:none;stroke:#000000;stroke-width:50;stroke-linecap:round;stroke-linejoin:round;" transform="scale(1, 1) translate(0, 0)">
    <path d="M 428.0,237.0 L 455.0,257.0 L 463.0,274.0 L 508.0,438.0"/>
    <path d="M 482.0,241.0 L 501.0,251.0 L 698.0,214.0 L 758.0,219.0 L 776.0,238.0 L 784.0,259.0 L 730.0,400.0 L 716.0,401.0"/>
    <path d="M 513.0,342.0 L 517.0,334.0 L 595.0,318.0 L 640.0,311.0 L 673.0,316.0"/>
    <path d="M 524.0,421.0 L 540.0,410.0 L 668.0,389.0 L 691.0,390.0 L 699.0,401.0"/>
    <path d="M 469.0,475.0 L 485.0,507.0 L 475.0,527.0 L 423.0,590.0 L 337.0,657.0"/>
    <path d="M 468.0,577.0 L 477.0,623.0 L 477.0,714.0 L 465.0,852.0 L 471.0,897.0"/>
    <path d="M 612.0,448.0 L 648.0,471.0 L 665.0,495.0"/>
    <path d="M 548.0,542.0 L 598.0,548.0 L 685.0,532.0 L 760.0,509.0 L 799.0,511.0"/>
    <path d="M 560.0,645.0 L 737.0,615.0 L 761.0,614.0 L 783.0,621.0"/>
    <path d="M 556.0,741.0 L 627.0,735.0 L 746.0,711.0 L 795.0,716.0"/>
    <path d="M 640.0,566.0 L 664.0,582.0 L 661.0,793.0 L 645.0,815.0"/>
    <path d="M 498.0,861.0 L 607.0,843.0 L 781.0,825.0 L 827.0,829.0 L 858.0,840.0"/>
    <path d="M 188.0,252.0 L 282.0,314.0 L 307.0,358.0"/>
    <path d="M 96.0,565.0 L 151.0,561.0 L 239.0,528.0 L 275.0,547.0 L 271.0,591.0 L 241.0,667.0 L 244.0,699.0 L 280.0,769.0 L 290.0,804.0 L 286.0,839.0 L 266.0,859.0"/>
    <path d="M 85.0,908.0 L 128.0,919.0 L 196.0,889.0 L 253.0,880.0 L 290.0,883.0 L 375.0,907.0 L 573.0,978.0 L 694.0,1005.0 L 778.0,1016.0 L 828.0,1011.0 L 938.0,982.0"/>
  </g>
</svg>
