<svg xmlns="http://www.w3.org/2000/svg" viewBox="0 0 1024 1024">
  <g style="fill:none;stroke:#000000;stroke-width:50;stroke-linecap:round;stroke-linejoin:round;" transform="scale(1, 1) translate(0, 0)">
    <path d="M 126.0,307.0 L 159.0,353.0 L 163.0,408.0 L 161.0,603.0 L 147.0,768.0 L 153.0,838.0"/>
    <path d="M 174.0,318.0 L 202.0,319.0 L 276.0,297.0 L 314.0,321.0 L 319.0,731.0 L 316.0,770.0 L 308.0,786.0 L 312.0,833.0"/>
    <path d="M 189.0,564.0 L 193.0,553.0 L 209.0,544.0 L 240.0,540.0 L 261.0,545.0"/>
    <path d="M 182.0,796.0 L 195.0,781.0 L 269.0,769.0"/>
    <path d="M 396.0,255.0 L 426.0,283.0 L 460.0,434.0"/>
    <path d="M 457.0,289.0 L 471.0,274.0 L 610.0,247.0 L 747.0,229.0 L 789.0,234.0 L 808.0,254.0 L 813.0,271.0 L 763.0,392.0"/>
    <path d="M 540.0,282.0 L 548.0,287.0 L 557.0,359.0 L 561.0,371.0 L 570.0,376.0"/>
    <path d="M 649.0,259.0 L 676.0,285.0 L 656.0,356.0 L 645.0,366.0"/>
    <path d="M 479.0,413.0 L 484.0,408.0 L 733.0,372.0 L 744.0,366.0"/>
    <path d="M 461.0,510.0 L 521.0,516.0 L 659.0,488.0 L 697.0,490.0"/>
    <path d="M 575.0,414.0 L 604.0,449.0 L 599.0,576.0 L 583.0,598.0"/>
    <path d="M 368.0,644.0 L 404.0,652.0 L 530.0,628.0 L 865.0,583.0 L 936.0,598.0"/>
    <path d="M 817.0,477.0 L 768.0,480.0 L 704.0,561.0 L 511.0,753.0 L 421.0,831.0 L 332.0,897.0 L 254.0,937.0"/>
    <path d="M 491.0,722.0 L 507.0,738.0 L 518.0,771.0 L 512.0,996.0"/>
    <path d="M 543.0,752.0 L 579.0,733.0 L 714.0,698.0 L 729.0,702.0 L 753.0,723.0 L 758.0,731.0 L 761.0,950.0 L 750.0,981.0 L 703.0,962.0 L 700.0,951.0"/>
    <path d="M 544.0,854.0 L 608.0,833.0 L 654.0,827.0 L 675.0,833.0"/>
    <path d="M 540.0,964.0 L 554.0,952.0 L 591.0,946.0 L 687.0,943.0"/>
  </g>
</svg>
