<svg xmlns="http://www.w3.org/2000/svg" viewBox="0 0 1024 1024">
  <g style="fill:none;stroke:#000000;stroke-width:50;stroke-linecap:round;stroke-linejoin:round;" transform="scale(1, 1) translate(0, 0)">
    <path d="M 120.0,315.0 L 139.0,334.0 L 147.0,353.0 L 155.0,468.0 L 149.0,671.0 L 139.0,765.0 L 145.0,822.0"/>
    <path d="M 172.0,330.0 L 182.0,335.0 L 268.0,311.0 L 290.0,320.0 L 306.0,342.0 L 301.0,710.0 L 293.0,762.0 L 289.0,771.0 L 251.0,762.0 L 208.0,766.0 L 181.0,773.0 L 172.0,785.0"/>
    <path d="M 177.0,553.0 L 185.0,541.0 L 197.0,538.0 L 229.0,533.0 L 249.0,537.0"/>
    <path d="M 585.0,159.0 L 645.0,188.0 L 662.0,200.0 L 680.0,225.0"/>
    <path d="M 476.0,331.0 L 492.0,338.0 L 555.0,333.0 L 783.0,281.0 L 812.0,276.0 L 834.0,280.0"/>
    <path d="M 414.0,312.0 L 446.0,345.0 L 448.0,373.0 L 436.0,509.0 L 401.0,712.0 L 381.0,778.0 L 327.0,896.0 L 281.0,971.0 L 232.0,1031.0"/>
    <path d="M 523.0,468.0 L 562.0,469.0 L 601.0,461.0 L 744.0,428.0 L 754.0,420.0 L 799.0,413.0 L 830.0,416.0"/>
    <path d="M 558.0,380.0 L 586.0,399.0 L 607.0,566.0"/>
    <path d="M 692.0,329.0 L 722.0,358.0 L 706.0,489.0 L 693.0,502.0"/>
    <path d="M 619.0,547.0 L 628.0,539.0 L 680.0,525.0 L 734.0,527.0"/>
    <path d="M 469.0,620.0 L 501.0,622.0 L 608.0,596.0 L 850.0,558.0 L 922.0,565.0"/>
    <path d="M 492.0,691.0 L 523.0,726.0 L 560.0,894.0"/>
    <path d="M 547.0,696.0 L 564.0,703.0 L 757.0,665.0 L 788.0,667.0 L 806.0,676.0 L 822.0,696.0 L 787.0,837.0 L 775.0,863.0 L 779.0,882.0"/>
    <path d="M 588.0,789.0 L 700.0,764.0 L 736.0,767.0"/>
    <path d="M 635.0,610.0 L 660.0,635.0 L 657.0,820.0 L 643.0,842.0"/>
    <path d="M 574.0,884.0 L 585.0,875.0 L 746.0,846.0"/>
    <path d="M 612.0,955.0 L 578.0,958.0 L 496.0,1037.0 L 408.0,1084.0"/>
    <path d="M 745.0,928.0 L 833.0,1002.0 L 851.0,1030.0 L 858.0,1062.0"/>
  </g>
</svg>
