<svg xmlns="http://www.w3.org/2000/svg" viewBox="0 0 1024 1024">
  <g style="fill:none;stroke:#000000;stroke-width:50;stroke-linecap:round;stroke-linejoin:round;" transform="scale(1, 1) translate(0, 0)">
    <path d="M 121.0,311.0 L 149.0,342.0 L 160.0,411.0 L 158.0,636.0 L 143.0,792.0 L 149.0,862.0"/>
    <path d="M 176.0,325.0 L 195.0,332.0 L 275.0,307.0 L 317.0,333.0 L 316.0,756.0 L 305.0,816.0 L 308.0,864.0"/>
    <path d="M 186.0,580.0 L 192.0,568.0 L 205.0,562.0 L 260.0,563.0"/>
    <path d="M 176.0,824.0 L 192.0,807.0 L 254.0,795.0"/>
    <path d="M 392.0,269.0 L 418.0,273.0 L 535.0,249.0 L 559.0,255.0 L 578.0,274.0 L 563.0,345.0 L 549.0,474.0"/>
    <path d="M 413.0,324.0 L 479.0,365.0"/>
    <path d="M 384.0,466.0 L 416.0,476.0 L 512.0,410.0"/>
    <path d="M 660.0,232.0 L 700.0,235.0 L 797.0,215.0 L 831.0,236.0 L 839.0,253.0 L 822.0,296.0 L 801.0,401.0 L 781.0,465.0"/>
    <path d="M 656.0,289.0 L 710.0,321.0 L 724.0,343.0"/>
    <path d="M 636.0,422.0 L 669.0,425.0 L 765.0,362.0"/>
    <path d="M 555.0,524.0 L 529.0,531.0 L 463.0,622.0 L 404.0,680.0 L 349.0,719.0"/>
    <path d="M 480.0,639.0 L 489.0,689.0 L 490.0,767.0 L 485.0,906.0 L 472.0,1005.0 L 479.0,1063.0"/>
    <path d="M 628.0,477.0 L 673.0,504.0 L 694.0,534.0"/>
    <path d="M 565.0,597.0 L 623.0,602.0 L 776.0,565.0 L 819.0,567.0"/>
    <path d="M 589.0,716.0 L 734.0,683.0 L 762.0,681.0 L 787.0,687.0"/>
    <path d="M 578.0,816.0 L 664.0,804.0 L 732.0,787.0 L 775.0,784.0 L 798.0,790.0"/>
    <path d="M 657.0,619.0 L 683.0,639.0 L 684.0,655.0 L 681.0,868.0 L 666.0,890.0"/>
    <path d="M 510.0,922.0 L 553.0,932.0 L 647.0,916.0 L 821.0,899.0 L 899.0,919.0"/>
  </g>
</svg>
