<svg xmlns="http://www.w3.org/2000/svg" viewBox="0 0 1024 1024">
  <g style="fill:none;stroke:#000000;stroke-width:50;stroke-linecap:round;stroke-linejoin:round;" transform="scale(1, 1) translate(0, 0)">
    <path d="M 296.0,241.0 L 331.0,268.0 L 340.0,285.0 L 371.0,446.0 L 391.0,507.0"/>
    <path d="M 372.0,264.0 L 385.0,274.0 L 597.0,234.0 L 647.0,243.0 L 672.0,273.0 L 612.0,463.0 L 616.0,485.0"/>
    <path d="M 394.0,389.0 L 401.0,380.0 L 460.0,365.0 L 522.0,353.0 L 556.0,357.0"/>
    <path d="M 407.0,481.0 L 422.0,471.0 L 574.0,444.0"/>
    <path d="M 346.0,507.0 L 369.0,542.0 L 353.0,575.0 L 299.0,645.0 L 264.0,673.0 L 252.0,676.0"/>
    <path d="M 355.0,621.0 L 381.0,609.0 L 497.0,594.0 L 680.0,559.0 L 724.0,565.0 L 753.0,593.0 L 734.0,859.0 L 719.0,924.0 L 697.0,974.0 L 659.0,1007.0 L 557.0,952.0"/>
    <path d="M 459.0,622.0 L 484.0,648.0 L 456.0,698.0 L 396.0,769.0 L 343.0,807.0"/>
    <path d="M 479.0,716.0 L 494.0,715.0 L 516.0,724.0 L 587.0,763.0 L 623.0,809.0"/>
    <path d="M 227.0,684.0 L 266.0,720.0 L 261.0,894.0 L 305.0,892.0 L 404.0,871.0 L 534.0,862.0 L 563.0,866.0 L 596.0,881.0"/>
  </g>
</svg>
