<svg xmlns="http://www.w3.org/2000/svg" viewBox="0 0 1024 1024">
  <g style="fill:none;stroke:#000000;stroke-width:50;stroke-linecap:round;stroke-linejoin:round;" transform="scale(1, 1) translate(0, 0)">
    <path d="M 341.0,218.0 L 408.0,270.0 L 425.0,299.0"/>
    <path d="M 650.0,158.0 L 668.0,179.0 L 673.0,197.0 L 538.0,310.0"/>
    <path d="M 189.0,389.0 L 225.0,412.0 L 236.0,435.0 L 298.0,644.0"/>
    <path d="M 255.0,389.0 L 279.0,401.0 L 657.0,347.0 L 742.0,340.0 L 790.0,348.0 L 822.0,392.0 L 783.0,469.0 L 733.0,594.0 L 724.0,593.0"/>
    <path d="M 483.0,388.0 L 509.0,414.0 L 509.0,554.0 L 492.0,567.0"/>
    <path d="M 353.0,460.0 L 394.0,495.0 L 416.0,523.0"/>
    <path d="M 643.0,408.0 L 655.0,435.0 L 580.0,511.0"/>
    <path d="M 317.0,603.0 L 332.0,613.0 L 667.0,576.0 L 688.0,577.0 L 698.0,590.0"/>
    <path d="M 343.0,703.0 L 362.0,720.0 L 375.0,745.0 L 378.0,817.0 L 365.0,956.0 L 367.0,1016.0"/>
    <path d="M 386.0,707.0 L 410.0,719.0 L 449.0,716.0 L 622.0,686.0 L 659.0,714.0 L 665.0,723.0 L 659.0,790.0 L 665.0,944.0 L 651.0,993.0 L 653.0,1051.0"/>
    <path d="M 401.0,851.0 L 416.0,839.0 L 509.0,825.0 L 539.0,822.0 L 573.0,829.0"/>
    <path d="M 394.0,982.0 L 418.0,967.0 L 551.0,952.0 L 601.0,953.0"/>
  </g>
</svg>
