<svg xmlns="http://www.w3.org/2000/svg" viewBox="0 0 1024 1024">
  <g style="fill:none;stroke:#000000;stroke-width:50;stroke-linecap:round;stroke-linejoin:round;" transform="scale(1, 1) translate(0, 0)">
    <path d="M 290.0,231.0 L 307.0,243.0 L 331.0,279.0 L 375.0,445.0"/>
    <path d="M 329.0,227.0 L 365.0,239.0 L 585.0,202.0 L 648.0,208.0 L 674.0,244.0 L 610.0,411.0"/>
    <path d="M 379.0,342.0 L 386.0,333.0 L 429.0,324.0 L 543.0,306.0 L 564.0,311.0"/>
    <path d="M 393.0,425.0 L 404.0,414.0 L 562.0,390.0 L 577.0,389.0 L 584.0,397.0"/>
    <path d="M 198.0,507.0 L 228.0,527.0 L 238.0,545.0 L 283.0,681.0"/>
    <path d="M 255.0,508.0 L 277.0,520.0 L 535.0,480.0 L 691.0,464.0 L 748.0,467.0 L 765.0,476.0 L 785.0,508.0 L 716.0,639.0"/>
    <path d="M 385.0,519.0 L 398.0,532.0 L 417.0,603.0 L 432.0,622.0"/>
    <path d="M 549.0,498.0 L 571.0,522.0 L 549.0,593.0 L 529.0,605.0"/>
    <path d="M 300.0,666.0 L 315.0,656.0 L 696.0,611.0"/>
    <path d="M 315.0,734.0 L 394.0,738.0 L 569.0,704.0 L 602.0,710.0 L 621.0,722.0 L 608.0,760.0 L 569.0,834.0 L 527.0,890.0 L 467.0,945.0 L 400.0,982.0 L 314.0,1014.0 L 178.0,1035.0"/>
    <path d="M 320.0,802.0 L 369.0,809.0 L 419.0,835.0 L 596.0,969.0 L 718.0,1034.0 L 787.0,1043.0 L 935.0,1040.0"/>
  </g>
</svg>
