<svg xmlns="http://www.w3.org/2000/svg" viewBox="0 0 1024 1024">
  <g style="fill:none;stroke:#000000;stroke-width:50;stroke-linecap:round;stroke-linejoin:round;" transform="scale(1, 1) translate(0, 0)">
    <path d="M 143.0,323.0 L 178.0,354.0 L 184.0,402.0 L 184.0,578.0 L 170.0,696.0 L 135.0,824.0 L 101.0,900.0 L 50.0,982.0"/>
    <path d="M 211.0,355.0 L 223.0,344.0 L 296.0,322.0 L 324.0,328.0 L 346.0,352.0 L 347.0,852.0 L 342.0,909.0 L 335.0,928.0 L 322.0,941.0 L 216.0,897.0"/>
    <path d="M 216.0,540.0 L 222.0,528.0 L 235.0,521.0 L 288.0,522.0"/>
    <path d="M 200.0,686.0 L 207.0,674.0 L 224.0,665.0 L 265.0,660.0 L 288.0,667.0"/>
    <path d="M 463.0,314.0 L 521.0,369.0 L 536.0,397.0"/>
    <path d="M 718.0,228.0 L 738.0,246.0 L 748.0,265.0 L 709.0,317.0 L 624.0,410.0"/>
    <path d="M 453.0,509.0 L 516.0,514.0 L 591.0,500.0 L 676.0,475.0 L 737.0,475.0"/>
    <path d="M 397.0,676.0 L 450.0,682.0 L 647.0,647.0 L 782.0,632.0 L 852.0,648.0"/>
    <path d="M 556.0,544.0 L 580.0,559.0 L 579.0,624.0 L 563.0,728.0 L 538.0,808.0 L 505.0,872.0 L 478.0,904.0 L 399.0,954.0"/>
    <path d="M 600.0,696.0 L 602.0,723.0 L 621.0,757.0 L 719.0,884.0 L 764.0,930.0 L 802.0,962.0 L 926.0,990.0"/>
  </g>
</svg>
