<svg xmlns="http://www.w3.org/2000/svg" viewBox="0 0 1024 1024">
  <g style="fill:none;stroke:#000000;stroke-width:50;stroke-linecap:round;stroke-linejoin:round;" transform="scale(1, 1) translate(0, 0)">
    <path d="M 165.0,385.0 L 238.0,390.0 L 501.0,334.0 L 540.0,333.0"/>
    <path d="M 249.0,247.0 L 287.0,291.0 L 292.0,347.0 L 290.0,689.0 L 274.0,703.0"/>
    <path d="M 416.0,179.0 L 449.0,205.0 L 461.0,218.0 L 462.0,228.0 L 447.0,649.0 L 442.0,664.0 L 430.0,674.0"/>
    <path d="M 318.0,498.0 L 329.0,483.0 L 342.0,479.0 L 376.0,475.0 L 397.0,481.0"/>
    <path d="M 316.0,603.0 L 326.0,591.0 L 343.0,587.0 L 374.0,583.0 L 393.0,588.0"/>
    <path d="M 73.0,751.0 L 113.0,761.0 L 140.0,759.0 L 435.0,699.0 L 533.0,686.0 L 558.0,692.0"/>
    <path d="M 323.0,806.0 L 292.0,812.0 L 252.0,863.0 L 200.0,910.0 L 126.0,956.0"/>
    <path d="M 419.0,788.0 L 470.0,835.0 L 485.0,863.0"/>
    <path d="M 599.0,333.0 L 636.0,363.0 L 643.0,416.0 L 643.0,558.0 L 634.0,675.0 L 622.0,738.0 L 590.0,834.0 L 541.0,918.0 L 481.0,988.0 L 417.0,1036.0"/>
    <path d="M 671.0,343.0 L 682.0,353.0 L 794.0,321.0 L 824.0,336.0 L 837.0,356.0 L 838.0,567.0 L 848.0,781.0 L 845.0,943.0 L 827.0,977.0 L 718.0,939.0"/>
    <path d="M 672.0,560.0 L 683.0,546.0 L 706.0,539.0 L 739.0,533.0 L 773.0,538.0"/>
    <path d="M 653.0,711.0 L 666.0,700.0 L 733.0,687.0 L 775.0,693.0"/>
  </g>
</svg>
