<svg xmlns="http://www.w3.org/2000/svg" viewBox="0 0 1024 1024">
  <g style="fill:none;stroke:#000000;stroke-width:50;stroke-linecap:round;stroke-linejoin:round;" transform="scale(1, 1) translate(0, 0)">
    <path d="M 337.0,211.0 L 408.0,243.0 L 440.0,278.0"/>
    <path d="M 138.0,442.0 L 185.0,447.0 L 428.0,392.0 L 465.0,387.0 L 503.0,392.0"/>
    <path d="M 286.0,450.0 L 309.0,464.0 L 321.0,492.0 L 312.0,614.0 L 353.0,607.0 L 459.0,539.0 L 466.0,540.0 L 469.0,532.0 L 488.0,521.0"/>
    <path d="M 554.0,312.0 L 575.0,320.0 L 589.0,335.0 L 588.0,465.0 L 561.0,584.0 L 524.0,655.0"/>
    <path d="M 616.0,309.0 L 628.0,316.0 L 751.0,273.0 L 768.0,279.0 L 788.0,300.0 L 785.0,381.0 L 793.0,590.0 L 787.0,625.0 L 773.0,647.0 L 682.0,614.0"/>
    <path d="M 613.0,437.0 L 625.0,426.0 L 682.0,411.0 L 708.0,408.0 L 729.0,413.0"/>
    <path d="M 597.0,534.0 L 610.0,525.0 L 688.0,511.0 L 724.0,516.0"/>
    <path d="M 347.0,735.0 L 415.0,742.0 L 618.0,706.0 L 681.0,704.0"/>
    <path d="M 316.0,869.0 L 365.0,880.0 L 624.0,844.0 L 670.0,844.0 L 700.0,851.0"/>
    <path d="M 483.0,756.0 L 509.0,780.0 L 505.0,943.0 L 489.0,963.0"/>
    <path d="M 179.0,1002.0 L 235.0,1015.0 L 538.0,985.0 L 776.0,972.0 L 809.0,974.0 L 873.0,996.0"/>
  </g>
</svg>
