<svg xmlns="http://www.w3.org/2000/svg" viewBox="0 0 1024 1024">
  <g style="fill:none;stroke:#000000;stroke-width:50;stroke-linecap:round;stroke-linejoin:round;" transform="scale(1, 1) translate(0, 0)">
    <path d="M 317.0,192.0 L 404.0,245.0 L 428.0,271.0"/>
    <path d="M 246.0,400.0 L 258.0,402.0 L 326.0,378.0 L 382.0,366.0 L 417.0,371.0 L 443.0,396.0 L 403.0,615.0 L 407.0,645.0"/>
    <path d="M 242.0,543.0 L 256.0,529.0 L 304.0,516.0 L 347.0,518.0"/>
    <path d="M 242.0,654.0 L 272.0,638.0 L 352.0,621.0 L 367.0,603.0"/>
    <path d="M 163.0,379.0 L 206.0,414.0 L 214.0,472.0 L 216.0,639.0 L 202.0,823.0 L 205.0,863.0 L 256.0,852.0 L 372.0,779.0 L 375.0,770.0"/>
    <path d="M 363.0,708.0 L 427.0,784.0 L 439.0,824.0"/>
    <path d="M 547.0,353.0 L 584.0,383.0 L 591.0,401.0 L 592.0,433.0 L 586.0,621.0 L 557.0,772.0 L 529.0,850.0 L 482.0,927.0 L 416.0,998.0 L 353.0,1042.0"/>
    <path d="M 616.0,362.0 L 627.0,370.0 L 646.0,371.0 L 766.0,338.0 L 797.0,352.0 L 812.0,375.0 L 813.0,866.0 L 808.0,964.0 L 787.0,1001.0 L 757.0,992.0 L 691.0,954.0 L 669.0,948.0"/>
    <path d="M 622.0,562.0 L 632.0,550.0 L 662.0,543.0 L 710.0,539.0 L 731.0,545.0"/>
    <path d="M 599.0,716.0 L 614.0,705.0 L 676.0,695.0 L 738.0,701.0"/>
  </g>
</svg>
