<svg xmlns="http://www.w3.org/2000/svg" viewBox="0 0 1024 1024">
  <g style="fill:none;stroke:#000000;stroke-width:50;stroke-linecap:round;stroke-linejoin:round;" transform="scale(1, 1) translate(0, 0)">
    <path d="M 195.0,419.0 L 254.0,430.0 L 518.0,396.0 L 668.0,369.0 L 735.0,362.0 L 804.0,372.0"/>
    <path d="M 285.0,596.0 L 322.0,603.0 L 638.0,550.0 L 673.0,550.0 L 729.0,564.0"/>
    <path d="M 457.0,192.0 L 511.0,246.0 L 503.0,815.0 L 489.0,986.0 L 491.0,1081.0"/>
    <path d="M 481.0,602.0 L 472.0,608.0 L 458.0,662.0 L 396.0,742.0 L 342.0,799.0 L 221.0,899.0 L 125.0,953.0"/>
    <path d="M 530.0,601.0 L 538.0,631.0 L 560.0,659.0 L 717.0,834.0 L 767.0,878.0 L 784.0,889.0 L 826.0,900.0 L 959.0,923.0"/>
  </g>
</svg>
