<svg xmlns="http://www.w3.org/2000/svg" viewBox="0 0 1024 1024">
  <g style="fill:none;stroke:#000000;stroke-width:50;stroke-linecap:round;stroke-linejoin:round;" transform="scale(1, 1) translate(0, 0)">
    <path d="M 212.0,450.0 L 269.0,461.0 L 704.0,394.0 L 753.0,393.0 L 790.0,402.0"/>
    <path d="M 451.0,199.0 L 506.0,255.0 L 499.0,814.0 L 485.0,973.0 L 486.0,1076.0"/>
    <path d="M 472.0,462.0 L 462.0,471.0 L 454.0,509.0 L 438.0,543.0 L 366.0,649.0 L 309.0,717.0 L 208.0,817.0 L 130.0,878.0 L 78.0,908.0"/>
    <path d="M 529.0,484.0 L 538.0,514.0 L 618.0,610.0 L 713.0,714.0 L 792.0,785.0 L 847.0,802.0 L 995.0,826.0"/>
    <path d="M 307.0,841.0 L 329.0,848.0 L 374.0,850.0 L 596.0,819.0 L 649.0,828.0"/>
  </g>
</svg>
