<svg xmlns="http://www.w3.org/2000/svg" viewBox="0 0 1024 1024">
  <g style="fill:none;stroke:#000000;stroke-width:50;stroke-linecap:round;stroke-linejoin:round;" transform="scale(1, 1) translate(0, 0)">
    <path d="M 225.0,525.0 L 250.0,532.0 L 319.0,527.0 L 457.0,494.0 L 660.0,432.0 L 720.0,428.0"/>
    <path d="M 431.0,183.0 L 456.0,203.0 L 485.0,240.0 L 478.0,767.0 L 465.0,930.0 L 466.0,1028.0"/>
    <path d="M 285.0,651.0 L 301.0,663.0 L 323.0,700.0 L 303.0,809.0 L 282.0,874.0 L 255.0,926.0 L 233.0,954.0 L 202.0,983.0 L 143.0,1014.0"/>
    <path d="M 611.0,591.0 L 646.0,631.0 L 647.0,844.0 L 666.0,921.0 L 690.0,952.0 L 739.0,977.0 L 796.0,988.0 L 856.0,986.0 L 903.0,968.0 L 933.0,938.0 L 940.0,805.0"/>
    <path d="M 612.0,211.0 L 692.0,246.0 L 716.0,266.0"/>
  </g>
</svg>
