<svg xmlns="http://www.w3.org/2000/svg" viewBox="0 0 1024 1024">
  <g style="fill:none;stroke:#000000;stroke-width:50;stroke-linecap:round;stroke-linejoin:round;" transform="scale(1, 1) translate(0, 0)">
    <path d="M 89.0,526.0 L 109.0,531.0 L 160.0,527.0 L 368.0,473.0 L 404.0,471.0 L 416.0,476.0"/>
    <path d="M 265.0,224.0 L 317.0,279.0 L 301.0,780.0 L 283.0,955.0 L 283.0,1041.0"/>
    <path d="M 281.0,529.0 L 273.0,535.0 L 260.0,601.0 L 222.0,671.0 L 162.0,762.0 L 64.0,877.0"/>
    <path d="M 353.0,616.0 L 402.0,652.0 L 419.0,674.0"/>
    <path d="M 480.0,457.0 L 497.0,466.0 L 520.0,494.0 L 521.0,646.0 L 506.0,763.0 L 481.0,835.0 L 447.0,894.0 L 400.0,947.0 L 357.0,976.0"/>
    <path d="M 550.0,468.0 L 561.0,472.0 L 666.0,432.0 L 689.0,436.0 L 700.0,445.0 L 665.0,606.0 L 658.0,712.0 L 661.0,766.0 L 675.0,828.0 L 692.0,866.0 L 714.0,899.0 L 742.0,924.0 L 774.0,943.0 L 831.0,957.0 L 883.0,955.0 L 928.0,937.0 L 935.0,924.0 L 945.0,764.0"/>
  </g>
</svg>
