<svg xmlns="http://www.w3.org/2000/svg" viewBox="0 0 1024 1024">
  <g style="fill:none;stroke:#000000;stroke-width:50;stroke-linecap:round;stroke-linejoin:round;" transform="scale(1, 1) translate(0, 0)">
    <path d="M 362.0,250.0 L 391.0,275.0 L 400.0,301.0 L 394.0,361.0 L 377.0,432.0 L 342.0,507.0 L 305.0,545.0 L 271.0,564.0"/>
    <path d="M 420.0,259.0 L 441.0,269.0 L 579.0,231.0 L 605.0,241.0 L 615.0,253.0 L 594.0,331.0 L 586.0,435.0 L 594.0,468.0 L 623.0,501.0 L 656.0,512.0 L 703.0,515.0 L 774.0,506.0 L 805.0,495.0 L 851.0,501.0"/>
    <path d="M 154.0,687.0 L 205.0,697.0 L 386.0,669.0 L 773.0,633.0 L 820.0,634.0 L 877.0,650.0"/>
    <path d="M 471.0,542.0 L 482.0,548.0 L 502.0,579.0 L 501.0,854.0 L 492.0,997.0 L 507.0,1081.0"/>
    <path d="M 472.0,684.0 L 461.0,697.0 L 449.0,732.0 L 348.0,838.0 L 236.0,922.0 L 136.0,970.0"/>
    <path d="M 530.0,683.0 L 541.0,712.0 L 593.0,765.0 L 695.0,860.0 L 781.0,925.0 L 959.0,948.0"/>
  </g>
</svg>
