<svg xmlns="http://www.w3.org/2000/svg" viewBox="0 0 1024 1024">
  <g style="fill:none;stroke:#000000;stroke-width:50;stroke-linecap:round;stroke-linejoin:round;" transform="scale(1, 1) translate(0, 0)">
    <path d="M 448.0,197.0 L 469.0,212.0 L 485.0,236.0 L 456.0,381.0 L 419.0,467.0 L 380.0,527.0 L 323.0,582.0 L 282.0,611.0 L 225.0,638.0"/>
    <path d="M 262.0,379.0 L 319.0,383.0 L 531.0,331.0 L 582.0,325.0 L 627.0,329.0 L 644.0,348.0 L 611.0,443.0 L 607.0,488.0 L 617.0,536.0 L 626.0,551.0 L 651.0,568.0 L 686.0,580.0 L 732.0,586.0 L 805.0,582.0 L 855.0,561.0 L 856.0,422.0"/>
    <path d="M 173.0,735.0 L 227.0,749.0 L 755.0,693.0 L 811.0,707.0"/>
    <path d="M 470.0,589.0 L 515.0,635.0 L 516.0,861.0 L 510.0,966.0 L 494.0,998.0 L 456.0,990.0 L 355.0,947.0"/>
    <path d="M 321.0,828.0 L 294.0,879.0 L 225.0,965.0"/>
    <path d="M 650.0,820.0 L 780.0,921.0 L 798.0,948.0 L 809.0,982.0"/>
  </g>
</svg>
