<svg xmlns="http://www.w3.org/2000/svg" viewBox="0 0 1024 1024">
  <g style="fill:none;stroke:#000000;stroke-width:50;stroke-linecap:round;stroke-linejoin:round;" transform="scale(1, 1) translate(0, 0)">
    <path d="M 117.0,523.0 L 140.0,529.0 L 192.0,525.0 L 395.0,470.0 L 454.0,468.0"/>
    <path d="M 285.0,200.0 L 335.0,255.0 L 326.0,655.0 L 305.0,932.0 L 311.0,988.0 L 307.0,1010.0"/>
    <path d="M 302.0,531.0 L 293.0,537.0 L 279.0,604.0 L 224.0,699.0 L 152.0,797.0 L 86.0,869.0"/>
    <path d="M 352.0,597.0 L 407.0,641.0 L 427.0,676.0"/>
    <path d="M 611.0,196.0 L 640.0,219.0 L 654.0,247.0 L 610.0,359.0 L 565.0,448.0 L 514.0,531.0 L 470.0,584.0"/>
    <path d="M 553.0,510.0 L 655.0,495.0 L 801.0,463.0 L 828.0,470.0 L 858.0,502.0 L 835.0,784.0 L 815.0,877.0 L 792.0,933.0 L 771.0,964.0 L 744.0,984.0 L 720.0,971.0 L 668.0,926.0 L 667.0,917.0 L 653.0,910.0"/>
    <path d="M 496.0,641.0 L 582.0,708.0 L 605.0,752.0"/>
  </g>
</svg>
