<svg xmlns="http://www.w3.org/2000/svg" viewBox="0 0 1024 1024">
  <g style="fill:none;stroke:#000000;stroke-width:50;stroke-linecap:round;stroke-linejoin:round;" transform="scale(1, 1) translate(0, 0)">
    <path d="M 91.0,556.0 L 150.0,557.0 L 362.0,487.0 L 410.0,484.0"/>
    <path d="M 257.0,212.0 L 292.0,246.0 L 308.0,277.0 L 292.0,753.0 L 275.0,955.0 L 275.0,1029.0"/>
    <path d="M 271.0,552.0 L 248.0,634.0 L 209.0,701.0 L 147.0,789.0 L 50.0,898.0"/>
    <path d="M 321.0,644.0 L 384.0,690.0 L 405.0,722.0"/>
    <path d="M 454.0,553.0 L 506.0,557.0 L 758.0,490.0 L 800.0,485.0 L 832.0,490.0"/>
    <path d="M 616.0,235.0 L 661.0,275.0 L 664.0,295.0 L 640.0,633.0 L 629.0,715.0 L 612.0,784.0 L 587.0,837.0 L 528.0,898.0 L 457.0,937.0 L 392.0,958.0"/>
    <path d="M 450.0,637.0 L 495.0,662.0 L 638.0,837.0 L 699.0,897.0 L 749.0,936.0 L 794.0,961.0 L 954.0,983.0"/>
  </g>
</svg>
