<svg xmlns="http://www.w3.org/2000/svg" viewBox="0 0 1024 1024">
  <g style="fill:none;stroke:#000000;stroke-width:50;stroke-linecap:round;stroke-linejoin:round;" transform="scale(1, 1) translate(0, 0)">
    <path d="M 75.0,552.0 L 134.0,554.0 L 284.0,514.0 L 356.0,487.0 L 426.0,479.0"/>
    <path d="M 255.0,202.0 L 281.0,224.0 L 302.0,251.0 L 308.0,269.0 L 292.0,780.0 L 275.0,945.0 L 274.0,1049.0"/>
    <path d="M 267.0,549.0 L 247.0,635.0 L 194.0,732.0 L 132.0,821.0 L 57.0,906.0"/>
    <path d="M 325.0,625.0 L 398.0,677.0 L 419.0,708.0"/>
    <path d="M 477.0,514.0 L 549.0,518.0 L 633.0,499.0 L 748.0,462.0 L 808.0,461.0"/>
    <path d="M 585.0,546.0 L 623.0,560.0 L 637.0,579.0 L 617.0,809.0 L 599.0,828.0"/>
    <path d="M 394.0,870.0 L 450.0,880.0 L 617.0,855.0 L 842.0,832.0 L 879.0,836.0 L 930.0,853.0"/>
  </g>
</svg>
