<svg xmlns="http://www.w3.org/2000/svg" viewBox="0 0 1024 1024">
  <g style="fill:none;stroke:#000000;stroke-width:50;stroke-linecap:round;stroke-linejoin:round;" transform="scale(1, 1) translate(0, 0)">
    <path d="M 96.0,510.0 L 121.0,516.0 L 160.0,513.0 L 334.0,468.0 L 387.0,465.0"/>
    <path d="M 252.0,186.0 L 267.0,195.0 L 305.0,241.0 L 288.0,821.0 L 274.0,941.0 L 275.0,1033.0"/>
    <path d="M 267.0,517.0 L 245.0,609.0 L 215.0,666.0 L 137.0,782.0 L 54.0,877.0"/>
    <path d="M 323.0,623.0 L 336.0,642.0 L 385.0,670.0 L 409.0,703.0"/>
    <path d="M 578.0,233.0 L 669.0,293.0 L 693.0,332.0"/>
    <path d="M 446.0,481.0 L 517.0,486.0 L 799.0,423.0 L 844.0,422.0"/>
    <path d="M 498.0,603.0 L 520.0,616.0 L 535.0,641.0 L 533.0,726.0 L 520.0,805.0 L 496.0,865.0 L 469.0,908.0 L 431.0,952.0 L 367.0,999.0"/>
    <path d="M 560.0,607.0 L 584.0,613.0 L 654.0,589.0 L 682.0,586.0 L 702.0,601.0 L 670.0,746.0 L 665.0,848.0 L 680.0,913.0 L 703.0,944.0 L 734.0,966.0 L 782.0,982.0 L 838.0,984.0 L 890.0,972.0 L 923.0,951.0 L 930.0,932.0 L 931.0,784.0"/>
  </g>
</svg>
