<svg xmlns="http://www.w3.org/2000/svg" viewBox="0 0 1024 1024">
  <g style="fill:none;stroke:#000000;stroke-width:50;stroke-linecap:round;stroke-linejoin:round;" transform="scale(1, 1) translate(0, 0)">
    <path d="M 101.0,525.0 L 175.0,526.0 L 360.0,478.0 L 416.0,480.0"/>
    <path d="M 249.0,201.0 L 301.0,254.0 L 293.0,728.0 L 280.0,906.0 L 279.0,1013.0"/>
    <path d="M 270.0,535.0 L 261.0,543.0 L 248.0,607.0 L 193.0,699.0 L 119.0,795.0 L 54.0,862.0"/>
    <path d="M 319.0,596.0 L 336.0,612.0 L 371.0,625.0 L 398.0,644.0 L 417.0,681.0"/>
    <path d="M 577.0,236.0 L 674.0,301.0 L 704.0,347.0"/>
    <path d="M 453.0,515.0 L 511.0,519.0 L 696.0,478.0 L 829.0,457.0 L 875.0,456.0 L 934.0,470.0"/>
    <path d="M 654.0,612.0 L 739.0,630.0 L 761.0,643.0 L 782.0,670.0 L 729.0,862.0 L 693.0,939.0 L 651.0,976.0 L 559.0,912.0"/>
    <path d="M 612.0,526.0 L 638.0,548.0 L 602.0,651.0 L 564.0,721.0 L 516.0,783.0 L 462.0,837.0 L 360.0,908.0"/>
  </g>
</svg>
