<svg xmlns="http://www.w3.org/2000/svg" viewBox="0 0 1024 1024">
  <g style="fill:none;stroke:#000000;stroke-width:50;stroke-linecap:round;stroke-linejoin:round;" transform="scale(1, 1) translate(0, 0)">
    <path d="M 123.0,526.0 L 170.0,529.0 L 298.0,496.0 L 368.0,471.0 L 414.0,470.0"/>
    <path d="M 262.0,195.0 L 314.0,249.0 L 302.0,781.0 L 288.0,942.0 L 288.0,1030.0"/>
    <path d="M 283.0,530.0 L 274.0,539.0 L 260.0,617.0 L 224.0,692.0 L 139.0,820.0 L 78.0,892.0"/>
    <path d="M 327.0,626.0 L 336.0,628.0 L 345.0,646.0 L 389.0,676.0 L 403.0,703.0"/>
    <path d="M 467.0,444.0 L 477.0,470.0 L 477.0,496.0 L 444.0,589.0 L 442.0,618.0"/>
    <path d="M 507.0,500.0 L 656.0,450.0 L 761.0,428.0 L 790.0,438.0 L 811.0,462.0 L 736.0,563.0"/>
    <path d="M 581.0,240.0 L 601.0,249.0 L 632.0,285.0 L 611.0,522.0 L 583.0,669.0 L 554.0,756.0 L 504.0,845.0 L 448.0,907.0 L 376.0,956.0"/>
    <path d="M 645.0,618.0 L 672.0,650.0 L 664.0,761.0 L 671.0,884.0 L 682.0,915.0 L 714.0,940.0 L 746.0,951.0 L 802.0,958.0 L 874.0,949.0 L 916.0,929.0 L 930.0,915.0 L 940.0,780.0"/>
  </g>
</svg>
