<svg xmlns="http://www.w3.org/2000/svg" viewBox="0 0 1024 1024">
  <g style="fill:none;stroke:#000000;stroke-width:50;stroke-linecap:round;stroke-linejoin:round;" transform="scale(1, 1) translate(0, 0)">
    <path d="M 109.0,534.0 L 150.0,539.0 L 193.0,534.0 L 333.0,505.0 L 369.0,491.0 L 429.0,489.0"/>
    <path d="M 263.0,232.0 L 289.0,254.0 L 312.0,285.0 L 298.0,765.0 L 283.0,920.0 L 284.0,1001.0"/>
    <path d="M 279.0,546.0 L 271.0,552.0 L 255.0,620.0 L 211.0,697.0 L 141.0,796.0 L 65.0,878.0"/>
    <path d="M 328.0,612.0 L 342.0,628.0 L 385.0,653.0 L 399.0,673.0"/>
    <path d="M 481.0,495.0 L 504.0,500.0 L 557.0,498.0 L 667.0,472.0 L 765.0,439.0 L 822.0,433.0 L 835.0,438.0"/>
    <path d="M 589.0,195.0 L 642.0,249.0 L 634.0,703.0 L 619.0,1041.0"/>
    <path d="M 606.0,516.0 L 588.0,589.0 L 540.0,668.0 L 456.0,775.0 L 390.0,842.0"/>
    <path d="M 661.0,549.0 L 674.0,585.0 L 718.0,644.0 L 829.0,771.0 L 856.0,785.0 L 985.0,819.0"/>
  </g>
</svg>
