<svg xmlns="http://www.w3.org/2000/svg" viewBox="0 0 1024 1024">
  <g style="fill:none;stroke:#000000;stroke-width:50;stroke-linecap:round;stroke-linejoin:round;" transform="scale(1, 1) translate(0, 0)">
    <path d="M 117.0,505.0 L 161.0,510.0 L 206.0,505.0 L 374.0,463.0 L 409.0,459.0 L 434.0,464.0"/>
    <path d="M 269.0,204.0 L 284.0,214.0 L 321.0,259.0 L 305.0,771.0 L 287.0,940.0 L 287.0,1029.0"/>
    <path d="M 284.0,519.0 L 273.0,529.0 L 264.0,582.0 L 219.0,672.0 L 151.0,775.0 L 70.0,872.0"/>
    <path d="M 336.0,584.0 L 351.0,605.0 L 394.0,630.0 L 417.0,664.0"/>
    <path d="M 521.0,359.0 L 601.0,408.0 L 625.0,441.0"/>
    <path d="M 515.0,505.0 L 578.0,551.0 L 606.0,584.0"/>
    <path d="M 449.0,707.0 L 504.0,711.0 L 661.0,676.0 L 867.0,641.0 L 911.0,642.0 L 957.0,653.0"/>
    <path d="M 672.0,233.0 L 700.0,241.0 L 737.0,276.0 L 729.0,488.0 L 727.0,1084.0"/>
  </g>
</svg>
