<svg xmlns="http://www.w3.org/2000/svg" viewBox="0 0 1024 1024">
  <g style="fill:none;stroke:#000000;stroke-width:50;stroke-linecap:round;stroke-linejoin:round;" transform="scale(1, 1) translate(0, 0)">
    <path d="M 113.0,526.0 L 181.0,529.0 L 394.0,477.0 L 433.0,477.0"/>
    <path d="M 273.0,212.0 L 288.0,222.0 L 325.0,267.0 L 310.0,751.0 L 291.0,952.0 L 291.0,1041.0"/>
    <path d="M 291.0,534.0 L 283.0,540.0 L 268.0,609.0 L 221.0,694.0 L 173.0,768.0 L 61.0,895.0"/>
    <path d="M 341.0,628.0 L 405.0,668.0 L 426.0,699.0"/>
    <path d="M 598.0,238.0 L 627.0,259.0 L 638.0,277.0 L 626.0,331.0 L 556.0,490.0 L 516.0,559.0 L 477.0,609.0"/>
    <path d="M 569.0,523.0 L 577.0,517.0 L 657.0,514.0 L 818.0,465.0 L 867.0,463.0"/>
    <path d="M 665.0,542.0 L 692.0,557.0 L 707.0,577.0 L 707.0,626.0 L 695.0,719.0 L 662.0,801.0 L 628.0,846.0 L 575.0,888.0 L 482.0,938.0 L 416.0,957.0"/>
    <path d="M 490.0,667.0 L 509.0,670.0 L 530.0,683.0 L 694.0,872.0 L 802.0,966.0 L 965.0,992.0"/>
  </g>
</svg>
