<svg xmlns="http://www.w3.org/2000/svg" viewBox="0 0 1024 1024">
  <g style="fill:none;stroke:#000000;stroke-width:50;stroke-linecap:round;stroke-linejoin:round;" transform="scale(1, 1) translate(0, 0)">
    <path d="M 326.0,312.0 L 348.0,319.0 L 401.0,320.0 L 538.0,302.0 L 644.0,276.0 L 707.0,276.0"/>
    <path d="M 258.0,414.0 L 290.0,440.0 L 325.0,586.0"/>
    <path d="M 322.0,423.0 L 337.0,431.0 L 593.0,389.0 L 690.0,386.0 L 705.0,395.0 L 723.0,428.0 L 671.0,551.0"/>
    <path d="M 466.0,183.0 L 494.0,203.0 L 511.0,226.0 L 498.0,487.0 L 502.0,692.0"/>
    <path d="M 478.0,501.0 L 447.0,576.0 L 370.0,649.0 L 239.0,741.0 L 177.0,773.0 L 99.0,803.0"/>
    <path d="M 516.0,511.0 L 525.0,517.0 L 532.0,537.0 L 542.0,540.0 L 589.0,589.0 L 686.0,670.0 L 752.0,716.0 L 805.0,744.0 L 964.0,766.0"/>
    <path d="M 438.0,726.0 L 522.0,769.0 L 543.0,786.0 L 563.0,814.0"/>
    <path d="M 404.0,880.0 L 465.0,916.0 L 534.0,967.0 L 559.0,996.0 L 573.0,1029.0"/>
  </g>
</svg>
