<svg xmlns="http://www.w3.org/2000/svg" viewBox="0 0 1024 1024">
  <g style="fill:none;stroke:#000000;stroke-width:50;stroke-linecap:round;stroke-linejoin:round;" transform="scale(1, 1) translate(0, 0)">
    <path d="M 107.0,526.0 L 160.0,527.0 L 390.0,459.0 L 425.0,457.0"/>
    <path d="M 266.0,231.0 L 318.0,284.0 L 304.0,791.0 L 287.0,954.0 L 288.0,1042.0"/>
    <path d="M 285.0,524.0 L 276.0,531.0 L 262.0,604.0 L 208.0,700.0 L 143.0,792.0 L 65.0,878.0"/>
    <path d="M 332.0,592.0 L 348.0,610.0 L 385.0,632.0 L 398.0,652.0"/>
    <path d="M 607.0,252.0 L 631.0,269.0 L 645.0,291.0 L 612.0,388.0 L 546.0,526.0 L 486.0,625.0 L 429.0,694.0"/>
    <path d="M 651.0,374.0 L 662.0,402.0 L 699.0,447.0 L 770.0,526.0 L 829.0,581.0 L 881.0,600.0 L 985.0,620.0"/>
    <path d="M 555.0,698.0 L 569.0,678.0 L 688.0,642.0 L 723.0,647.0 L 739.0,662.0 L 719.0,795.0 L 708.0,821.0 L 694.0,835.0 L 617.0,802.0"/>
    <path d="M 507.0,662.0 L 525.0,682.0 L 532.0,711.0 L 519.0,822.0 L 526.0,935.0 L 545.0,968.0 L 580.0,990.0 L 640.0,1006.0 L 719.0,1007.0 L 775.0,999.0 L 832.0,975.0 L 856.0,954.0 L 851.0,851.0 L 846.0,844.0 L 849.0,825.0"/>
  </g>
</svg>
