<svg xmlns="http://www.w3.org/2000/svg" viewBox="0 0 1024 1024">
  <g style="fill:none;stroke:#000000;stroke-width:50;stroke-linecap:round;stroke-linejoin:round;" transform="scale(1, 1) translate(0, 0)">
    <path d="M 113.0,517.0 L 149.0,523.0 L 187.0,520.0 L 366.0,476.0 L 426.0,475.0"/>
    <path d="M 257.0,209.0 L 309.0,262.0 L 300.0,740.0 L 286.0,921.0 L 287.0,997.0"/>
    <path d="M 275.0,531.0 L 265.0,541.0 L 253.0,594.0 L 209.0,671.0 L 130.0,780.0 L 66.0,849.0"/>
    <path d="M 327.0,606.0 L 379.0,642.0 L 405.0,678.0"/>
    <path d="M 584.0,214.0 L 610.0,236.0 L 620.0,261.0 L 599.0,323.0 L 513.0,482.0 L 446.0,565.0"/>
    <path d="M 544.0,483.0 L 770.0,434.0 L 802.0,441.0 L 838.0,472.0 L 828.0,767.0 L 812.0,876.0 L 793.0,944.0 L 772.0,980.0 L 751.0,998.0 L 656.0,923.0"/>
    <path d="M 448.0,630.0 L 476.0,667.0 L 497.0,839.0"/>
    <path d="M 502.0,655.0 L 522.0,641.0 L 586.0,627.0 L 623.0,621.0 L 641.0,627.0 L 659.0,648.0 L 657.0,658.0 L 631.0,743.0 L 607.0,758.0"/>
    <path d="M 516.0,811.0 L 533.0,797.0 L 593.0,786.0 L 641.0,786.0 L 662.0,792.0"/>
  </g>
</svg>
