<svg xmlns="http://www.w3.org/2000/svg" viewBox="0 0 1024 1024">
  <g style="fill:none;stroke:#000000;stroke-width:50;stroke-linecap:round;stroke-linejoin:round;" transform="scale(1, 1) translate(0, 0)">
    <path d="M 108.0,500.0 L 169.0,504.0 L 342.0,458.0 L 391.0,460.0"/>
    <path d="M 237.0,216.0 L 266.0,240.0 L 289.0,270.0 L 275.0,828.0 L 262.0,940.0 L 263.0,1029.0"/>
    <path d="M 255.0,516.0 L 233.0,611.0 L 218.0,641.0 L 145.0,754.0 L 62.0,852.0"/>
    <path d="M 306.0,591.0 L 367.0,643.0 L 379.0,664.0"/>
    <path d="M 562.0,244.0 L 652.0,296.0 L 678.0,335.0"/>
    <path d="M 449.0,432.0 L 460.0,458.0 L 460.0,484.0 L 427.0,572.0 L 423.0,609.0"/>
    <path d="M 487.0,458.0 L 511.0,469.0 L 629.0,437.0 L 759.0,411.0 L 804.0,419.0 L 822.0,436.0 L 827.0,451.0 L 738.0,541.0"/>
    <path d="M 722.0,618.0 L 731.0,630.0 L 738.0,663.0 L 655.0,721.0 L 567.0,769.0 L 544.0,790.0"/>
    <path d="M 497.0,606.0 L 527.0,642.0 L 515.0,818.0 L 523.0,910.0 L 538.0,943.0 L 559.0,961.0 L 603.0,978.0 L 675.0,986.0 L 749.0,978.0 L 817.0,956.0 L 852.0,926.0 L 852.0,793.0"/>
  </g>
</svg>
