<svg xmlns="http://www.w3.org/2000/svg" viewBox="0 0 1024 1024">
  <g style="fill:none;stroke:#000000;stroke-width:50;stroke-linecap:round;stroke-linejoin:round;" transform="scale(1, 1) translate(0, 0)">
    <path d="M 109.0,493.0 L 144.0,499.0 L 182.0,496.0 L 368.0,450.0 L 417.0,451.0"/>
    <path d="M 245.0,204.0 L 274.0,228.0 L 297.0,258.0 L 298.0,283.0 L 291.0,382.0 L 284.0,787.0 L 270.0,928.0 L 271.0,1017.0"/>
    <path d="M 263.0,509.0 L 240.0,615.0 L 202.0,684.0 L 124.0,793.0 L 62.0,860.0"/>
    <path d="M 319.0,560.0 L 334.0,586.0 L 365.0,610.0 L 378.0,630.0"/>
    <path d="M 590.0,220.0 L 622.0,244.0 L 629.0,263.0 L 606.0,354.0 L 579.0,424.0 L 504.0,567.0 L 434.0,657.0 L 377.0,713.0"/>
    <path d="M 641.0,355.0 L 643.0,380.0 L 704.0,461.0 L 742.0,510.0 L 826.0,597.0 L 871.0,614.0 L 988.0,643.0"/>
    <path d="M 573.0,563.0 L 644.0,602.0 L 666.0,632.0"/>
    <path d="M 469.0,759.0 L 518.0,774.0 L 679.0,720.0 L 705.0,719.0 L 727.0,732.0 L 745.0,750.0 L 730.0,781.0 L 643.0,906.0 L 632.0,907.0"/>
    <path d="M 538.0,891.0 L 657.0,971.0 L 680.0,1001.0 L 694.0,1034.0"/>
  </g>
</svg>
