<svg xmlns="http://www.w3.org/2000/svg" viewBox="0 0 1024 1024">
  <g style="fill:none;stroke:#000000;stroke-width:50;stroke-linecap:round;stroke-linejoin:round;" transform="scale(1, 1) translate(0, 0)">
    <path d="M 112.0,499.0 L 134.0,504.0 L 189.0,499.0 L 346.0,459.0 L 400.0,456.0"/>
    <path d="M 245.0,208.0 L 297.0,262.0 L 285.0,750.0 L 272.0,906.0 L 271.0,1013.0"/>
    <path d="M 264.0,512.0 L 255.0,518.0 L 240.0,593.0 L 195.0,675.0 L 119.0,784.0 L 65.0,842.0"/>
    <path d="M 321.0,595.0 L 330.0,611.0 L 372.0,630.0 L 395.0,652.0"/>
    <path d="M 447.0,437.0 L 468.0,454.0 L 483.0,478.0 L 529.0,725.0"/>
    <path d="M 486.0,434.0 L 527.0,443.0 L 779.0,403.0 L 820.0,401.0 L 857.0,412.0 L 882.0,442.0 L 843.0,607.0 L 815.0,684.0 L 790.0,686.0"/>
    <path d="M 568.0,573.0 L 622.0,568.0 L 716.0,547.0 L 759.0,553.0"/>
    <path d="M 546.0,709.0 L 557.0,700.0 L 774.0,666.0"/>
    <path d="M 619.0,452.0 L 662.0,475.0 L 665.0,500.0 L 655.0,1089.0"/>
  </g>
</svg>
