<svg xmlns="http://www.w3.org/2000/svg" viewBox="0 0 1024 1024">
  <g style="fill:none;stroke:#000000;stroke-width:50;stroke-linecap:round;stroke-linejoin:round;" transform="scale(1, 1) translate(0, 0)">
    <path d="M 120.0,516.0 L 142.0,521.0 L 197.0,517.0 L 343.0,476.0 L 413.0,470.0"/>
    <path d="M 261.0,220.0 L 290.0,244.0 L 313.0,275.0 L 295.0,801.0 L 279.0,964.0 L 279.0,1053.0"/>
    <path d="M 276.0,528.0 L 251.0,633.0 L 228.0,675.0 L 152.0,791.0 L 70.0,888.0"/>
    <path d="M 328.0,598.0 L 342.0,621.0 L 391.0,653.0 L 410.0,678.0"/>
    <path d="M 501.0,389.0 L 510.0,387.0 L 532.0,400.0 L 565.0,399.0 L 771.0,352.0 L 821.0,355.0"/>
    <path d="M 517.0,608.0 L 529.0,600.0 L 733.0,554.0 L 754.0,556.0 L 790.0,590.0 L 754.0,677.0 L 727.0,691.0"/>
    <path d="M 511.0,746.0 L 540.0,756.0 L 755.0,725.0 L 776.0,725.0 L 801.0,735.0"/>
    <path d="M 454.0,376.0 L 478.0,402.0 L 488.0,426.0 L 491.0,571.0 L 471.0,952.0 L 496.0,955.0 L 611.0,931.0 L 788.0,912.0 L 876.0,910.0 L 912.0,924.0"/>
  </g>
</svg>
