<svg xmlns="http://www.w3.org/2000/svg" viewBox="0 0 1024 1024">
  <g style="fill:none;stroke:#000000;stroke-width:50;stroke-linecap:round;stroke-linejoin:round;" transform="scale(1, 1) translate(0, 0)">
    <path d="M 101.0,514.0 L 151.0,520.0 L 357.0,468.0 L 411.0,465.0"/>
    <path d="M 269.0,211.0 L 309.0,250.0 L 318.0,273.0 L 310.0,410.0 L 305.0,741.0 L 288.0,914.0 L 288.0,1004.0"/>
    <path d="M 283.0,518.0 L 271.0,540.0 L 262.0,578.0 L 210.0,668.0 L 169.0,728.0 L 65.0,842.0"/>
    <path d="M 330.0,626.0 L 346.0,644.0 L 390.0,670.0 L 410.0,700.0"/>
    <path d="M 581.0,197.0 L 598.0,209.0 L 619.0,240.0 L 597.0,300.0 L 496.0,486.0 L 441.0,562.0 L 406.0,598.0"/>
    <path d="M 525.0,487.0 L 610.0,482.0 L 841.0,422.0 L 901.0,419.0"/>
    <path d="M 617.0,508.0 L 643.0,529.0 L 632.0,926.0 L 632.0,998.0 L 642.0,1069.0"/>
    <path d="M 667.0,654.0 L 681.0,643.0 L 771.0,625.0 L 810.0,621.0 L 838.0,627.0"/>
    <path d="M 667.0,796.0 L 680.0,785.0 L 803.0,766.0 L 839.0,764.0 L 865.0,770.0"/>
  </g>
</svg>
