<svg xmlns="http://www.w3.org/2000/svg" viewBox="0 0 1024 1024">
  <g style="fill:none;stroke:#000000;stroke-width:50;stroke-linecap:round;stroke-linejoin:round;" transform="scale(1, 1) translate(0, 0)">
    <path d="M 350.0,341.0 L 423.0,346.0 L 644.0,293.0 L 694.0,295.0"/>
    <path d="M 245.0,470.0 L 267.0,485.0 L 290.0,522.0 L 335.0,705.0"/>
    <path d="M 290.0,468.0 L 331.0,481.0 L 673.0,423.0 L 737.0,429.0 L 770.0,467.0 L 713.0,628.0 L 703.0,648.0 L 678.0,654.0"/>
    <path d="M 383.0,529.0 L 419.0,563.0 L 439.0,592.0"/>
    <path d="M 624.0,476.0 L 642.0,503.0 L 572.0,583.0"/>
    <path d="M 351.0,684.0 L 371.0,674.0 L 641.0,638.0 L 669.0,627.0"/>
    <path d="M 465.0,179.0 L 493.0,201.0 L 518.0,232.0 L 514.0,715.0 L 497.0,993.0 L 498.0,1085.0"/>
    <path d="M 485.0,682.0 L 406.0,784.0 L 311.0,881.0 L 205.0,962.0 L 132.0,997.0"/>
    <path d="M 535.0,675.0 L 541.0,676.0 L 548.0,700.0 L 644.0,798.0 L 715.0,863.0 L 788.0,919.0 L 857.0,933.0 L 963.0,944.0"/>
  </g>
</svg>
