<svg xmlns="http://www.w3.org/2000/svg" viewBox="0 0 1024 1024">
  <g style="fill:none;stroke:#000000;stroke-width:50;stroke-linecap:round;stroke-linejoin:round;" transform="scale(1, 1) translate(0, 0)">
    <path d="M 112.0,474.0 L 186.0,473.0 L 322.0,437.0 L 366.0,437.0"/>
    <path d="M 222.0,207.0 L 264.0,247.0 L 274.0,271.0 L 263.0,711.0 L 247.0,941.0 L 248.0,1014.0"/>
    <path d="M 242.0,490.0 L 219.0,586.0 L 199.0,625.0 L 155.0,699.0 L 61.0,815.0"/>
    <path d="M 292.0,516.0 L 345.0,579.0"/>
    <path d="M 403.0,374.0 L 432.0,398.0 L 437.0,413.0 L 441.0,553.0 L 432.0,676.0 L 418.0,745.0 L 389.0,835.0 L 352.0,912.0 L 322.0,955.0"/>
    <path d="M 464.0,386.0 L 478.0,389.0 L 532.0,368.0 L 549.0,374.0 L 569.0,395.0 L 566.0,810.0 L 564.0,875.0 L 558.0,904.0 L 544.0,922.0 L 453.0,875.0"/>
    <path d="M 644.0,356.0 L 668.0,373.0 L 682.0,393.0 L 686.0,610.0 L 677.0,682.0 L 646.0,790.0 L 591.0,907.0"/>
    <path d="M 682.0,349.0 L 713.0,356.0 L 787.0,329.0 L 814.0,343.0 L 825.0,358.0 L 823.0,940.0 L 813.0,969.0 L 803.0,980.0 L 773.0,972.0 L 698.0,934.0"/>
    <path d="M 342.0,632.0 L 380.0,640.0 L 415.0,638.0 L 617.0,607.0 L 873.0,583.0 L 918.0,586.0 L 963.0,600.0"/>
  </g>
</svg>
