<svg xmlns="http://www.w3.org/2000/svg" viewBox="0 0 1024 1024">
  <g style="fill:none;stroke:#000000;stroke-width:50;stroke-linecap:round;stroke-linejoin:round;" transform="scale(1, 1) translate(0, 0)">
    <path d="M 111.0,516.0 L 155.0,519.0 L 186.0,514.0 L 363.0,463.0 L 418.0,459.0"/>
    <path d="M 275.0,228.0 L 325.0,280.0 L 310.0,739.0 L 304.0,856.0 L 291.0,957.0 L 292.0,1038.0"/>
    <path d="M 292.0,518.0 L 284.0,523.0 L 268.0,609.0 L 226.0,690.0 L 174.0,775.0 L 81.0,890.0"/>
    <path d="M 338.0,606.0 L 349.0,610.0 L 353.0,624.0 L 409.0,663.0 L 423.0,692.0"/>
    <path d="M 473.0,459.0 L 548.0,464.0 L 615.0,452.0 L 782.0,404.0 L 840.0,403.0"/>
    <path d="M 617.0,191.0 L 654.0,240.0 L 584.0,479.0 L 501.0,701.0 L 538.0,707.0 L 814.0,657.0 L 842.0,656.0 L 874.0,664.0"/>
    <path d="M 640.0,534.0 L 685.0,579.0 L 681.0,959.0 L 664.0,997.0 L 537.0,947.0"/>
    <path d="M 511.0,802.0 L 487.0,871.0 L 449.0,927.0 L 443.0,946.0"/>
    <path d="M 781.0,788.0 L 867.0,863.0 L 892.0,901.0 L 901.0,934.0"/>
  </g>
</svg>
