<svg xmlns="http://www.w3.org/2000/svg" viewBox="0 0 1024 1024">
  <g style="fill:none;stroke:#000000;stroke-width:50;stroke-linecap:round;stroke-linejoin:round;" transform="scale(1, 1) translate(0, 0)">
    <path d="M 101.0,509.0 L 121.0,514.0 L 174.0,511.0 L 347.0,471.0 L 400.0,470.0"/>
    <path d="M 257.0,220.0 L 309.0,274.0 L 295.0,757.0 L 279.0,944.0 L 279.0,1034.0"/>
    <path d="M 275.0,522.0 L 266.0,528.0 L 250.0,600.0 L 187.0,704.0 L 110.0,802.0 L 65.0,846.0"/>
    <path d="M 323.0,621.0 L 391.0,668.0 L 411.0,700.0"/>
    <path d="M 415.0,399.0 L 480.0,405.0 L 604.0,381.0 L 813.0,354.0 L 860.0,359.0 L 884.0,369.0"/>
    <path d="M 489.0,278.0 L 527.0,307.0 L 553.0,485.0"/>
    <path d="M 691.0,215.0 L 705.0,220.0 L 727.0,246.0 L 701.0,394.0 L 678.0,477.0"/>
    <path d="M 427.0,585.0 L 486.0,589.0 L 674.0,542.0 L 772.0,529.0 L 809.0,533.0 L 839.0,571.0 L 801.0,748.0 L 789.0,778.0 L 770.0,794.0 L 680.0,737.0"/>
    <path d="M 568.0,588.0 L 601.0,604.0 L 614.0,620.0 L 611.0,1080.0"/>
  </g>
</svg>
