<svg xmlns="http://www.w3.org/2000/svg" viewBox="0 0 1024 1024">
  <g style="fill:none;stroke:#000000;stroke-width:50;stroke-linecap:round;stroke-linejoin:round;" transform="scale(1, 1) translate(0, 0)">
    <path d="M 97.0,516.0 L 120.0,522.0 L 157.0,521.0 L 344.0,472.0 L 401.0,470.0"/>
    <path d="M 253.0,200.0 L 305.0,255.0 L 289.0,758.0 L 271.0,928.0 L 271.0,1017.0"/>
    <path d="M 270.0,527.0 L 262.0,531.0 L 245.0,610.0 L 216.0,664.0 L 150.0,763.0 L 70.0,857.0"/>
    <path d="M 318.0,607.0 L 374.0,651.0 L 398.0,690.0"/>
    <path d="M 790.0,328.0 L 773.0,322.0 L 720.0,322.0 L 627.0,387.0 L 568.0,417.0 L 553.0,422.0 L 548.0,418.0"/>
    <path d="M 475.0,402.0 L 496.0,419.0 L 513.0,446.0 L 503.0,561.0 L 487.0,643.0 L 489.0,672.0 L 510.0,675.0 L 605.0,653.0 L 776.0,632.0 L 829.0,636.0 L 868.0,652.0"/>
    <path d="M 618.0,466.0 L 644.0,486.0 L 665.0,516.0 L 663.0,938.0 L 643.0,982.0 L 542.0,935.0"/>
    <path d="M 507.0,781.0 L 483.0,840.0 L 431.0,923.0"/>
    <path d="M 771.0,770.0 L 864.0,854.0 L 883.0,886.0 L 890.0,922.0"/>
  </g>
</svg>
