<svg xmlns="http://www.w3.org/2000/svg" viewBox="0 0 1024 1024">
  <g style="fill:none;stroke:#000000;stroke-width:50;stroke-linecap:round;stroke-linejoin:round;" transform="scale(1, 1) translate(0, 0)">
    <path d="M 128.0,510.0 L 193.0,511.0 L 373.0,456.0 L 428.0,455.0"/>
    <path d="M 270.0,223.0 L 312.0,263.0 L 322.0,287.0 L 308.0,626.0 L 308.0,762.0 L 291.0,969.0 L 292.0,1038.0"/>
    <path d="M 289.0,514.0 L 281.0,521.0 L 264.0,609.0 L 214.0,702.0 L 136.0,812.0 L 62.0,896.0"/>
    <path d="M 334.0,604.0 L 391.0,654.0 L 412.0,695.0"/>
    <path d="M 463.0,498.0 L 487.0,501.0 L 541.0,493.0 L 682.0,446.0 L 719.0,437.0 L 742.0,438.0"/>
    <path d="M 444.0,638.0 L 488.0,640.0 L 705.0,568.0 L 762.0,556.0 L 795.0,558.0"/>
    <path d="M 505.0,245.0 L 539.0,259.0 L 566.0,282.0 L 588.0,450.0 L 636.0,641.0 L 685.0,768.0 L 717.0,828.0 L 759.0,889.0 L 820.0,950.0 L 846.0,964.0 L 877.0,971.0 L 901.0,922.0 L 929.0,797.0"/>
    <path d="M 789.0,635.0 L 801.0,669.0 L 797.0,685.0 L 729.0,781.0 L 657.0,849.0 L 554.0,909.0 L 500.0,932.0 L 438.0,949.0"/>
    <path d="M 696.0,266.0 L 768.0,310.0 L 799.0,351.0"/>
  </g>
</svg>
