<svg xmlns="http://www.w3.org/2000/svg" viewBox="0 0 1024 1024">
  <g style="fill:none;stroke:#000000;stroke-width:50;stroke-linecap:round;stroke-linejoin:round;" transform="scale(1, 1) translate(0, 0)">
    <path d="M 101.0,513.0 L 137.0,519.0 L 175.0,516.0 L 274.0,495.0 L 351.0,471.0 L 414.0,471.0"/>
    <path d="M 245.0,200.0 L 297.0,255.0 L 285.0,739.0 L 279.0,851.0 L 267.0,935.0 L 267.0,1033.0"/>
    <path d="M 263.0,529.0 L 255.0,534.0 L 241.0,594.0 L 200.0,658.0 L 136.0,744.0 L 58.0,826.0"/>
    <path d="M 313.0,583.0 L 371.0,630.0 L 385.0,650.0"/>
    <path d="M 818.0,290.0 L 745.0,282.0 L 703.0,313.0 L 595.0,369.0 L 456.0,421.0"/>
    <path d="M 423.0,574.0 L 478.0,582.0 L 712.0,541.0 L 855.0,523.0 L 950.0,541.0"/>
    <path d="M 622.0,386.0 L 660.0,401.0 L 667.0,411.0 L 631.0,699.0 L 610.0,727.0"/>
    <path d="M 473.0,740.0 L 505.0,767.0 L 511.0,785.0 L 548.0,1008.0"/>
    <path d="M 537.0,747.0 L 562.0,759.0 L 779.0,718.0 L 805.0,726.0 L 836.0,758.0 L 792.0,876.0 L 756.0,907.0"/>
    <path d="M 570.0,970.0 L 586.0,955.0 L 744.0,936.0 L 797.0,937.0 L 824.0,947.0"/>
  </g>
</svg>
