<svg xmlns="http://www.w3.org/2000/svg" viewBox="0 0 1024 1024">
  <g style="fill:none;stroke:#000000;stroke-width:50;stroke-linecap:round;stroke-linejoin:round;" transform="scale(1, 1) translate(0, 0)">
    <path d="M 99.0,510.0 L 165.0,510.0 L 365.0,449.0 L 405.0,452.0"/>
    <path d="M 262.0,211.0 L 304.0,251.0 L 314.0,275.0 L 301.0,740.0 L 283.0,945.0 L 284.0,1030.0"/>
    <path d="M 279.0,508.0 L 259.0,597.0 L 219.0,672.0 L 131.0,801.0 L 58.0,885.0"/>
    <path d="M 327.0,579.0 L 345.0,603.0 L 373.0,618.0 L 399.0,642.0 L 411.0,667.0 L 410.0,679.0"/>
    <path d="M 489.0,270.0 L 549.0,312.0 L 573.0,351.0"/>
    <path d="M 740.0,201.0 L 763.0,232.0 L 657.0,358.0"/>
    <path d="M 489.0,462.0 L 509.0,467.0 L 571.0,463.0 L 760.0,416.0 L 797.0,417.0"/>
    <path d="M 486.0,618.0 L 545.0,622.0 L 713.0,585.0 L 779.0,588.0"/>
    <path d="M 393.0,775.0 L 448.0,781.0 L 573.0,756.0 L 837.0,719.0 L 919.0,734.0"/>
    <path d="M 591.0,488.0 L 633.0,512.0 L 627.0,1084.0"/>
  </g>
</svg>
