<svg xmlns="http://www.w3.org/2000/svg" viewBox="0 0 1024 1024">
  <g style="fill:none;stroke:#000000;stroke-width:50;stroke-linecap:round;stroke-linejoin:round;" transform="scale(1, 1) translate(0, 0)">
    <path d="M 99.0,524.0 L 122.0,529.0 L 158.0,526.0 L 344.0,474.0 L 400.0,471.0"/>
    <path d="M 261.0,236.0 L 290.0,260.0 L 313.0,290.0 L 302.0,787.0 L 286.0,948.0 L 287.0,1037.0"/>
    <path d="M 280.0,527.0 L 271.0,534.0 L 258.0,602.0 L 211.0,688.0 L 116.0,822.0 L 62.0,881.0"/>
    <path d="M 330.0,627.0 L 347.0,651.0 L 384.0,676.0 L 396.0,694.0"/>
    <path d="M 489.0,450.0 L 518.0,455.0 L 583.0,449.0 L 683.0,421.0 L 737.0,421.0"/>
    <path d="M 584.0,231.0 L 617.0,256.0 L 629.0,277.0 L 618.0,553.0 L 602.0,577.0"/>
    <path d="M 422.0,624.0 L 477.0,628.0 L 798.0,573.0 L 860.0,573.0 L 907.0,585.0"/>
    <path d="M 860.0,395.0 L 807.0,406.0 L 729.0,533.0 L 563.0,747.0 L 434.0,885.0 L 369.0,941.0 L 342.0,956.0"/>
    <path d="M 783.0,684.0 L 791.0,696.0 L 794.0,730.0 L 741.0,763.0 L 603.0,830.0"/>
    <path d="M 542.0,687.0 L 560.0,704.0 L 577.0,735.0 L 565.0,831.0 L 570.0,934.0 L 583.0,961.0 L 613.0,981.0 L 673.0,991.0 L 765.0,986.0 L 827.0,974.0 L 871.0,955.0 L 881.0,933.0 L 880.0,825.0"/>
  </g>
</svg>
