<svg xmlns="http://www.w3.org/2000/svg" viewBox="0 0 1024 1024">
  <g style="fill:none;stroke:#000000;stroke-width:50;stroke-linecap:round;stroke-linejoin:round;" transform="scale(1, 1) translate(0, 0)">
    <path d="M 441.0,191.0 L 533.0,229.0 L 557.0,256.0"/>
    <path d="M 247.0,359.0 L 306.0,370.0 L 714.0,313.0 L 776.0,324.0"/>
    <path d="M 391.0,387.0 L 409.0,399.0 L 424.0,422.0 L 421.0,513.0 L 406.0,599.0 L 408.0,632.0"/>
    <path d="M 550.0,361.0 L 574.0,385.0 L 569.0,584.0 L 579.0,637.0"/>
    <path d="M 302.0,460.0 L 284.0,505.0 L 225.0,598.0"/>
    <path d="M 654.0,438.0 L 762.0,506.0 L 793.0,558.0"/>
    <path d="M 174.0,743.0 L 225.0,753.0 L 440.0,723.0 L 760.0,693.0 L 842.0,714.0"/>
    <path d="M 471.0,633.0 L 500.0,670.0 L 500.0,886.0 L 493.0,990.0 L 507.0,1065.0"/>
    <path d="M 468.0,746.0 L 414.0,818.0 L 339.0,888.0 L 275.0,934.0 L 190.0,972.0"/>
    <path d="M 533.0,739.0 L 545.0,762.0 L 612.0,829.0 L 719.0,919.0 L 811.0,944.0 L 913.0,958.0"/>
  </g>
</svg>
