<svg xmlns="http://www.w3.org/2000/svg" viewBox="0 0 1024 1024">
  <g style="fill:none;stroke:#000000;stroke-width:50;stroke-linecap:round;stroke-linejoin:round;" transform="scale(1, 1) translate(0, 0)">
    <path d="M 120.0,524.0 L 174.0,527.0 L 274.0,504.0 L 344.0,480.0 L 407.0,474.0"/>
    <path d="M 261.0,212.0 L 313.0,267.0 L 300.0,768.0 L 283.0,936.0 L 283.0,1026.0"/>
    <path d="M 278.0,533.0 L 266.0,552.0 L 255.0,606.0 L 205.0,699.0 L 143.0,791.0 L 69.0,878.0"/>
    <path d="M 335.0,627.0 L 346.0,647.0 L 386.0,668.0 L 411.0,699.0"/>
    <path d="M 593.0,248.0 L 682.0,293.0 L 709.0,319.0"/>
    <path d="M 451.0,460.0 L 517.0,465.0 L 800.0,404.0 L 845.0,400.0 L 878.0,406.0"/>
    <path d="M 569.0,485.0 L 594.0,512.0 L 554.0,586.0 L 515.0,640.0 L 501.0,681.0 L 527.0,686.0 L 610.0,682.0 L 637.0,678.0 L 648.0,670.0"/>
    <path d="M 726.0,503.0 L 739.0,514.0 L 756.0,545.0 L 716.0,623.0 L 662.0,705.0 L 589.0,794.0 L 544.0,837.0 L 477.0,893.0 L 384.0,951.0"/>
    <path d="M 830.0,709.0 L 798.0,719.0 L 739.0,809.0 L 662.0,895.0 L 597.0,953.0 L 530.0,998.0"/>
    <path d="M 722.0,870.0 L 742.0,871.0 L 836.0,929.0 L 864.0,955.0 L 885.0,993.0"/>
  </g>
</svg>
