<svg xmlns="http://www.w3.org/2000/svg" viewBox="0 0 1024 1024">
  <g style="fill:none;stroke:#000000;stroke-width:50;stroke-linecap:round;stroke-linejoin:round;" transform="scale(1, 1) translate(0, 0)">
    <path d="M 323.0,236.0 L 341.0,255.0 L 348.0,276.0 L 320.0,331.0 L 218.0,469.0 L 167.0,516.0"/>
    <path d="M 312.0,390.0 L 397.0,368.0 L 420.0,371.0 L 434.0,388.0 L 397.0,478.0 L 330.0,574.0 L 264.0,637.0 L 215.0,667.0"/>
    <path d="M 248.0,475.0 L 259.0,471.0 L 275.0,482.0 L 294.0,498.0 L 309.0,526.0"/>
    <path d="M 536.0,367.0 L 598.0,370.0 L 737.0,336.0 L 773.0,337.0"/>
    <path d="M 506.0,418.0 L 527.0,441.0 L 511.0,515.0 L 518.0,518.0 L 536.0,519.0 L 614.0,499.0 L 738.0,478.0 L 777.0,478.0 L 821.0,488.0"/>
    <path d="M 614.0,229.0 L 635.0,240.0 L 655.0,266.0 L 652.0,553.0 L 646.0,624.0"/>
    <path d="M 158.0,732.0 L 215.0,741.0 L 361.0,717.0 L 762.0,679.0 L 814.0,684.0 L 851.0,697.0"/>
    <path d="M 467.0,605.0 L 496.0,644.0 L 491.0,873.0 L 483.0,969.0 L 495.0,1061.0"/>
    <path d="M 462.0,730.0 L 409.0,806.0 L 321.0,891.0 L 252.0,940.0 L 162.0,984.0"/>
    <path d="M 521.0,726.0 L 536.0,757.0 L 578.0,801.0 L 715.0,915.0 L 783.0,937.0 L 912.0,958.0"/>
  </g>
</svg>
