<svg xmlns="http://www.w3.org/2000/svg" viewBox="0 0 1024 1024">
  <g style="fill:none;stroke:#000000;stroke-width:50;stroke-linecap:round;stroke-linejoin:round;" transform="scale(1, 1) translate(0, 0)">
    <path d="M 111.0,504.0 L 182.0,503.0 L 338.0,455.0 L 398.0,451.0"/>
    <path d="M 257.0,191.0 L 309.0,246.0 L 287.0,840.0 L 271.0,965.0 L 271.0,1054.0"/>
    <path d="M 272.0,509.0 L 250.0,600.0 L 219.0,659.0 L 133.0,792.0 L 49.0,890.0"/>
    <path d="M 322.0,581.0 L 336.0,598.0 L 380.0,624.0 L 398.0,658.0"/>
    <path d="M 529.0,333.0 L 575.0,371.0 L 571.0,608.0 L 551.0,760.0 L 532.0,819.0 L 487.0,892.0 L 438.0,936.0 L 375.0,970.0"/>
    <path d="M 422.0,502.0 L 479.0,532.0 L 497.0,559.0"/>
    <path d="M 379.0,739.0 L 413.0,739.0 L 430.0,732.0 L 527.0,664.0 L 535.0,657.0 L 537.0,642.0"/>
    <path d="M 660.0,243.0 L 690.0,259.0 L 711.0,291.0 L 696.0,431.0 L 687.0,630.0 L 693.0,820.0 L 709.0,884.0 L 734.0,913.0 L 774.0,929.0 L 836.0,934.0 L 899.0,925.0 L 933.0,901.0 L 954.0,773.0"/>
    <path d="M 815.0,400.0 L 830.0,435.0 L 805.0,464.0 L 729.0,524.0 L 718.0,539.0"/>
    <path d="M 714.0,647.0 L 840.0,715.0 L 874.0,760.0"/>
  </g>
</svg>
