<svg xmlns="http://www.w3.org/2000/svg" viewBox="0 0 1024 1024">
  <g style="fill:none;stroke:#000000;stroke-width:50;stroke-linecap:round;stroke-linejoin:round;" transform="scale(1, 1) translate(0, 0)">
    <path d="M 299.0,282.0 L 360.0,331.0 L 374.0,356.0"/>
    <path d="M 667.0,210.0 L 687.0,251.0 L 576.0,341.0"/>
    <path d="M 315.0,439.0 L 358.0,447.0 L 421.0,442.0 L 627.0,400.0 L 680.0,400.0"/>
    <path d="M 193.0,568.0 L 249.0,575.0 L 471.0,539.0 L 733.0,511.0 L 771.0,516.0 L 808.0,529.0"/>
    <path d="M 451.0,201.0 L 477.0,222.0 L 492.0,245.0 L 457.0,426.0 L 409.0,557.0 L 340.0,663.0 L 285.0,718.0 L 190.0,787.0 L 124.0,817.0"/>
    <path d="M 591.0,557.0 L 605.0,563.0 L 642.0,603.0 L 742.0,690.0 L 803.0,733.0 L 864.0,748.0 L 982.0,765.0"/>
    <path d="M 278.0,758.0 L 335.0,766.0 L 616.0,716.0 L 660.0,715.0 L 693.0,722.0"/>
    <path d="M 471.0,621.0 L 500.0,659.0 L 493.0,911.0 L 486.0,978.0 L 499.0,1063.0"/>
    <path d="M 465.0,772.0 L 391.0,867.0 L 359.0,898.0 L 293.0,951.0 L 189.0,1004.0"/>
    <path d="M 574.0,815.0 L 737.0,926.0 L 766.0,955.0 L 786.0,996.0"/>
  </g>
</svg>
