<svg xmlns="http://www.w3.org/2000/svg" viewBox="0 0 1024 1024">
  <g style="fill:none;stroke:#000000;stroke-width:50;stroke-linecap:round;stroke-linejoin:round;" transform="scale(1, 1) translate(0, 0)">
    <path d="M 111.0,536.0 L 146.0,540.0 L 187.0,535.0 L 331.0,492.0 L 394.0,487.0"/>
    <path d="M 249.0,232.0 L 301.0,287.0 L 284.0,843.0 L 271.0,939.0 L 271.0,1037.0"/>
    <path d="M 267.0,544.0 L 259.0,550.0 L 241.0,631.0 L 212.0,683.0 L 134.0,796.0 L 70.0,869.0"/>
    <path d="M 314.0,631.0 L 371.0,674.0 L 383.0,690.0"/>
    <path d="M 574.0,263.0 L 620.0,305.0 L 612.0,564.0 L 608.0,585.0 L 593.0,602.0"/>
    <path d="M 448.0,474.0 L 498.0,508.0 L 514.0,524.0 L 526.0,550.0"/>
    <path d="M 776.0,383.0 L 790.0,403.0 L 793.0,426.0 L 683.0,527.0"/>
    <path d="M 426.0,644.0 L 463.0,651.0 L 490.0,648.0 L 804.0,600.0 L 877.0,617.0"/>
    <path d="M 518.0,705.0 L 540.0,738.0 L 518.0,807.0 L 495.0,849.0 L 438.0,918.0 L 364.0,972.0"/>
    <path d="M 624.0,670.0 L 661.0,719.0 L 648.0,829.0 L 654.0,934.0 L 665.0,955.0 L 690.0,972.0 L 761.0,983.0 L 833.0,981.0 L 885.0,973.0 L 932.0,952.0 L 928.0,798.0"/>
  </g>
</svg>
