<svg xmlns="http://www.w3.org/2000/svg" viewBox="0 0 1024 1024">
  <g style="fill:none;stroke:#000000;stroke-width:50;stroke-linecap:round;stroke-linejoin:round;" transform="scale(1, 1) translate(0, 0)">
    <path d="M 88.0,524.0 L 118.0,529.0 L 170.0,525.0 L 349.0,477.0 L 405.0,474.0"/>
    <path d="M 261.0,200.0 L 276.0,210.0 L 313.0,255.0 L 297.0,768.0 L 279.0,936.0 L 279.0,1025.0"/>
    <path d="M 275.0,531.0 L 264.0,542.0 L 247.0,597.0 L 163.0,725.0 L 50.0,850.0"/>
    <path d="M 325.0,631.0 L 348.0,652.0 L 385.0,672.0 L 407.0,702.0"/>
    <path d="M 439.0,494.0 L 497.0,503.0 L 808.0,447.0 L 842.0,446.0 L 880.0,454.0"/>
    <path d="M 602.0,205.0 L 653.0,247.0 L 646.0,595.0 L 628.0,620.0"/>
    <path d="M 483.0,654.0 L 522.0,662.0 L 760.0,625.0 L 807.0,631.0"/>
    <path d="M 468.0,770.0 L 503.0,803.0 L 536.0,1012.0"/>
    <path d="M 537.0,809.0 L 561.0,791.0 L 734.0,756.0 L 754.0,759.0 L 775.0,771.0 L 794.0,793.0 L 765.0,881.0 L 738.0,895.0"/>
    <path d="M 558.0,945.0 L 569.0,956.0 L 734.0,929.0 L 776.0,930.0 L 802.0,938.0"/>
  </g>
</svg>
