<svg xmlns="http://www.w3.org/2000/svg" viewBox="0 0 1024 1024">
  <g style="fill:none;stroke:#000000;stroke-width:50;stroke-linecap:round;stroke-linejoin:round;" transform="scale(1, 1) translate(0, 0)">
    <path d="M 91.0,532.0 L 153.0,534.0 L 282.0,501.0 L 338.0,480.0 L 402.0,475.0"/>
    <path d="M 256.0,231.0 L 285.0,255.0 L 308.0,286.0 L 291.0,782.0 L 272.0,949.0 L 271.0,1034.0"/>
    <path d="M 272.0,535.0 L 263.0,542.0 L 246.0,617.0 L 198.0,700.0 L 144.0,776.0 L 46.0,884.0"/>
    <path d="M 322.0,665.0 L 335.0,686.0 L 373.0,710.0 L 393.0,742.0"/>
    <path d="M 580.0,271.0 L 615.0,306.0 L 576.0,408.0 L 488.0,549.0 L 411.0,630.0 L 378.0,654.0"/>
    <path d="M 637.0,362.0 L 638.0,378.0 L 684.0,433.0 L 755.0,512.0 L 833.0,584.0 L 985.0,616.0"/>
    <path d="M 492.0,636.0 L 551.0,640.0 L 666.0,609.0 L 725.0,606.0"/>
    <path d="M 413.0,776.0 L 441.0,781.0 L 482.0,777.0 L 605.0,750.0 L 748.0,728.0 L 794.0,728.0 L 841.0,740.0"/>
    <path d="M 546.0,792.0 L 576.0,815.0 L 573.0,823.0 L 548.0,868.0 L 482.0,951.0 L 475.0,974.0 L 509.0,979.0 L 729.0,932.0 L 761.0,935.0"/>
    <path d="M 704.0,823.0 L 755.0,876.0 L 809.0,945.0 L 829.0,992.0 L 828.0,1020.0"/>
  </g>
</svg>
