<svg xmlns="http://www.w3.org/2000/svg" viewBox="0 0 1024 1024">
  <g style="fill:none;stroke:#000000;stroke-width:50;stroke-linecap:round;stroke-linejoin:round;" transform="scale(1, 1) translate(0, 0)">
    <path d="M 136.0,487.0 L 158.0,492.0 L 199.0,489.0 L 360.0,451.0 L 400.0,453.0"/>
    <path d="M 246.0,230.0 L 271.0,249.0 L 294.0,278.0 L 280.0,761.0 L 263.0,928.0 L 265.0,1011.0"/>
    <path d="M 261.0,506.0 L 253.0,512.0 L 238.0,588.0 L 198.0,668.0 L 141.0,760.0 L 72.0,846.0"/>
    <path d="M 305.0,563.0 L 367.0,619.0 L 385.0,648.0"/>
    <path d="M 529.0,351.0 L 552.0,357.0 L 590.0,356.0 L 706.0,327.0 L 758.0,329.0"/>
    <path d="M 612.0,185.0 L 651.0,222.0 L 642.0,421.0 L 627.0,444.0"/>
    <path d="M 475.0,447.0 L 487.0,476.0 L 459.0,572.0 L 458.0,602.0"/>
    <path d="M 511.0,501.0 L 527.0,486.0 L 588.0,472.0 L 815.0,434.0 L 849.0,449.0 L 862.0,471.0 L 796.0,545.0"/>
    <path d="M 515.0,596.0 L 559.0,608.0 L 669.0,570.0 L 717.0,571.0 L 738.0,594.0 L 734.0,602.0 L 664.0,686.0 L 653.0,686.0"/>
    <path d="M 608.0,693.0 L 646.0,715.0 L 666.0,745.0 L 687.0,855.0 L 685.0,935.0 L 672.0,982.0 L 638.0,1017.0 L 553.0,974.0"/>
    <path d="M 396.0,796.0 L 441.0,803.0 L 565.0,778.0 L 868.0,736.0 L 913.0,740.0 L 946.0,750.0"/>
  </g>
</svg>
