<svg xmlns="http://www.w3.org/2000/svg" viewBox="0 0 1024 1024">
  <g style="fill:none;stroke:#000000;stroke-width:50;stroke-linecap:round;stroke-linejoin:round;" transform="scale(1, 1) translate(0, 0)">
    <path d="M 92.0,491.0 L 135.0,494.0 L 186.0,486.0 L 309.0,449.0 L 364.0,445.0"/>
    <path d="M 225.0,188.0 L 270.0,231.0 L 277.0,242.0 L 278.0,270.0 L 271.0,378.0 L 265.0,766.0 L 250.0,928.0 L 251.0,1017.0"/>
    <path d="M 242.0,498.0 L 224.0,583.0 L 186.0,660.0 L 127.0,755.0 L 56.0,842.0"/>
    <path d="M 292.0,563.0 L 303.0,565.0 L 309.0,582.0 L 352.0,610.0 L 373.0,642.0"/>
    <path d="M 484.0,332.0 L 526.0,338.0 L 565.0,334.0 L 725.0,291.0 L 773.0,290.0"/>
    <path d="M 416.0,471.0 L 442.0,493.0 L 449.0,511.0 L 492.0,710.0"/>
    <path d="M 473.0,503.0 L 486.0,485.0 L 703.0,437.0 L 743.0,436.0 L 766.0,442.0 L 791.0,472.0 L 761.0,585.0 L 735.0,656.0 L 739.0,676.0"/>
    <path d="M 520.0,581.0 L 649.0,550.0 L 693.0,553.0"/>
    <path d="M 509.0,688.0 L 527.0,679.0 L 702.0,640.0"/>
    <path d="M 571.0,361.0 L 616.0,379.0 L 612.0,681.0 L 592.0,797.0 L 572.0,846.0 L 539.0,890.0 L 471.0,941.0 L 422.0,967.0 L 368.0,985.0"/>
    <path d="M 405.0,737.0 L 462.0,761.0 L 644.0,920.0 L 759.0,989.0 L 795.0,998.0 L 947.0,993.0"/>
  </g>
</svg>
