<svg xmlns="http://www.w3.org/2000/svg" viewBox="0 0 1024 1024">
  <g style="fill:none;stroke:#000000;stroke-width:50;stroke-linecap:round;stroke-linejoin:round;" transform="scale(1, 1) translate(0, 0)">
    <path d="M 258.0,233.0 L 291.0,266.0 L 297.0,283.0 L 268.0,354.0 L 212.0,464.0 L 152.0,563.0 L 92.0,647.0 L 38.0,705.0"/>
    <path d="M 209.0,529.0 L 212.0,558.0 L 226.0,585.0 L 221.0,813.0 L 206.0,958.0 L 212.0,1011.0"/>
    <path d="M 338.0,471.0 L 362.0,501.0 L 362.0,618.0 L 353.0,724.0 L 358.0,765.0"/>
    <path d="M 550.0,193.0 L 580.0,227.0 L 556.0,305.0 L 494.0,407.0 L 437.0,465.0"/>
    <path d="M 569.0,345.0 L 583.0,339.0 L 640.0,336.0 L 774.0,303.0 L 833.0,301.0"/>
    <path d="M 677.0,359.0 L 699.0,385.0 L 672.0,441.0 L 624.0,510.0 L 544.0,583.0 L 482.0,621.0 L 425.0,645.0"/>
    <path d="M 518.0,407.0 L 533.0,411.0 L 709.0,535.0 L 804.0,583.0 L 875.0,586.0 L 964.0,577.0"/>
    <path d="M 455.0,752.0 L 508.0,756.0 L 708.0,717.0 L 750.0,712.0 L 791.0,716.0"/>
    <path d="M 580.0,618.0 L 624.0,664.0 L 626.0,911.0 L 621.0,994.0 L 603.0,1021.0 L 514.0,979.0"/>
    <path d="M 460.0,824.0 L 433.0,896.0 L 398.0,959.0"/>
    <path d="M 722.0,816.0 L 803.0,872.0 L 829.0,897.0 L 853.0,955.0"/>
  </g>
</svg>
