<svg xmlns="http://www.w3.org/2000/svg" viewBox="0 0 1024 1024">
  <g style="fill:none;stroke:#000000;stroke-width:50;stroke-linecap:round;stroke-linejoin:round;" transform="scale(1, 1) translate(0, 0)">
    <path d="M 96.0,504.0 L 125.0,509.0 L 162.0,506.0 L 239.0,489.0 L 334.0,458.0 L 393.0,454.0"/>
    <path d="M 253.0,204.0 L 305.0,259.0 L 287.0,768.0 L 271.0,943.0 L 271.0,1017.0"/>
    <path d="M 269.0,511.0 L 260.0,519.0 L 246.0,586.0 L 202.0,666.0 L 145.0,750.0 L 61.0,847.0"/>
    <path d="M 319.0,572.0 L 382.0,629.0"/>
    <path d="M 492.0,242.0 L 554.0,297.0 L 568.0,320.0"/>
    <path d="M 725.0,179.0 L 750.0,212.0 L 647.0,345.0"/>
    <path d="M 483.0,415.0 L 524.0,418.0 L 745.0,372.0 L 757.0,374.0 L 786.0,389.0 L 796.0,404.0 L 776.0,457.0 L 749.0,480.0"/>
    <path d="M 502.0,541.0 L 523.0,550.0 L 740.0,505.0 L 795.0,500.0 L 815.0,508.0"/>
    <path d="M 452.0,526.0 L 468.0,544.0 L 477.0,568.0 L 457.0,649.0 L 455.0,687.0 L 488.0,689.0 L 803.0,622.0 L 841.0,620.0 L 867.0,627.0 L 891.0,659.0 L 851.0,790.0 L 833.0,821.0 L 817.0,833.0 L 737.0,790.0"/>
    <path d="M 611.0,420.0 L 636.0,441.0 L 630.0,1056.0"/>
    <path d="M 606.0,684.0 L 591.0,701.0 L 575.0,742.0 L 492.0,848.0 L 438.0,899.0 L 358.0,953.0"/>
  </g>
</svg>
