<svg xmlns="http://www.w3.org/2000/svg" viewBox="0 0 1024 1024">
  <g style="fill:none;stroke:#000000;stroke-width:50;stroke-linecap:round;stroke-linejoin:round;" transform="scale(1, 1) translate(0, 0)">
    <path d="M 88.0,552.0 L 136.0,557.0 L 222.0,538.0 L 322.0,506.0 L 381.0,502.0"/>
    <path d="M 231.0,220.0 L 258.0,243.0 L 280.0,273.0 L 267.0,753.0 L 247.0,966.0 L 248.0,1042.0"/>
    <path d="M 248.0,562.0 L 239.0,569.0 L 225.0,635.0 L 195.0,688.0 L 114.0,796.0 L 53.0,861.0"/>
    <path d="M 290.0,647.0 L 346.0,688.0 L 359.0,707.0"/>
    <path d="M 589.0,206.0 L 614.0,223.0 L 629.0,249.0 L 509.0,418.0 L 495.0,442.0 L 500.0,466.0 L 527.0,469.0 L 689.0,423.0 L 733.0,416.0 L 748.0,423.0"/>
    <path d="M 713.0,338.0 L 778.0,408.0 L 795.0,439.0 L 801.0,465.0"/>
    <path d="M 490.0,558.0 L 506.0,584.0 L 428.0,669.0 L 416.0,673.0 L 416.0,681.0"/>
    <path d="M 680.0,515.0 L 790.0,579.0 L 817.0,617.0"/>
    <path d="M 536.0,631.0 L 556.0,663.0 L 505.0,758.0 L 425.0,853.0 L 357.0,911.0 L 329.0,930.0 L 314.0,933.0 L 311.0,940.0"/>
    <path d="M 573.0,706.0 L 594.0,695.0 L 670.0,684.0 L 702.0,690.0 L 718.0,700.0 L 674.0,821.0 L 644.0,877.0 L 610.0,920.0 L 570.0,954.0 L 492.0,997.0 L 407.0,1016.0"/>
    <path d="M 517.0,782.0 L 531.0,782.0 L 555.0,797.0 L 679.0,926.0 L 784.0,1007.0 L 820.0,1024.0 L 961.0,1033.0"/>
  </g>
</svg>
