<svg xmlns="http://www.w3.org/2000/svg" viewBox="0 0 1024 1024">
  <g style="fill:none;stroke:#000000;stroke-width:50;stroke-linecap:round;stroke-linejoin:round;" transform="scale(1, 1) translate(0, 0)">
    <path d="M 482.0,167.0 L 557.0,205.0 L 576.0,230.0"/>
    <path d="M 293.0,311.0 L 352.0,319.0 L 674.0,273.0 L 731.0,282.0"/>
    <path d="M 491.0,341.0 L 463.0,351.0 L 415.0,415.0 L 406.0,441.0 L 441.0,441.0 L 600.0,394.0 L 610.0,403.0"/>
    <path d="M 594.0,349.0 L 658.0,399.0 L 666.0,414.0"/>
    <path d="M 110.0,615.0 L 161.0,625.0 L 427.0,585.0 L 842.0,548.0 L 887.0,552.0 L 933.0,566.0"/>
    <path d="M 292.0,525.0 L 313.0,531.0 L 335.0,547.0 L 401.0,721.0"/>
    <path d="M 654.0,461.0 L 673.0,490.0 L 676.0,508.0 L 641.0,620.0 L 622.0,636.0"/>
    <path d="M 411.0,707.0 L 427.0,692.0 L 578.0,667.0 L 648.0,664.0 L 666.0,672.0"/>
    <path d="M 197.0,812.0 L 253.0,819.0 L 390.0,794.0 L 717.0,756.0 L 768.0,760.0 L 803.0,772.0"/>
    <path d="M 476.0,492.0 L 499.0,511.0 L 519.0,542.0 L 505.0,1095.0"/>
    <path d="M 486.0,808.0 L 400.0,901.0 L 343.0,948.0 L 246.0,1007.0 L 148.0,1045.0"/>
    <path d="M 537.0,803.0 L 552.0,827.0 L 629.0,886.0 L 708.0,940.0 L 775.0,976.0 L 817.0,988.0 L 960.0,995.0"/>
  </g>
</svg>
