<svg xmlns="http://www.w3.org/2000/svg" viewBox="0 0 1024 1024">
  <g style="fill:none;stroke:#000000;stroke-width:50;stroke-linecap:round;stroke-linejoin:round;" transform="scale(1, 1) translate(0, 0)">
    <path d="M 168.0,423.0 L 189.0,428.0 L 244.0,424.0 L 380.0,390.0 L 428.0,388.0"/>
    <path d="M 143.0,536.0 L 164.0,554.0 L 178.0,580.0 L 200.0,698.0"/>
    <path d="M 188.0,533.0 L 206.0,543.0 L 339.0,507.0 L 398.0,500.0 L 414.0,504.0 L 436.0,530.0 L 415.0,622.0 L 397.0,647.0 L 356.0,629.0"/>
    <path d="M 249.0,217.0 L 276.0,238.0 L 298.0,266.0 L 299.0,277.0 L 296.0,755.0 L 282.0,932.0 L 285.0,1022.0"/>
    <path d="M 272.0,678.0 L 266.0,682.0 L 251.0,748.0 L 207.0,803.0 L 119.0,884.0 L 70.0,914.0"/>
    <path d="M 347.0,737.0 L 391.0,764.0 L 415.0,790.0"/>
    <path d="M 525.0,378.0 L 584.0,383.0 L 755.0,341.0 L 804.0,343.0"/>
    <path d="M 497.0,488.0 L 517.0,506.0 L 526.0,531.0 L 545.0,663.0"/>
    <path d="M 544.0,490.0 L 560.0,501.0 L 688.0,467.0 L 752.0,458.0 L 782.0,458.0 L 801.0,468.0 L 814.0,494.0 L 786.0,604.0 L 776.0,619.0 L 766.0,631.0 L 703.0,602.0"/>
    <path d="M 596.0,176.0 L 626.0,200.0 L 650.0,230.0 L 644.0,795.0 L 629.0,981.0 L 631.0,1073.0"/>
    <path d="M 620.0,645.0 L 597.0,725.0 L 550.0,784.0 L 460.0,871.0 L 382.0,922.0"/>
    <path d="M 668.0,669.0 L 683.0,704.0 L 720.0,749.0 L 829.0,859.0 L 858.0,872.0 L 977.0,895.0"/>
  </g>
</svg>
