<svg xmlns="http://www.w3.org/2000/svg" viewBox="0 0 1024 1024">
  <g style="fill:none;stroke:#000000;stroke-width:50;stroke-linecap:round;stroke-linejoin:round;" transform="scale(1, 1) translate(0, 0)">
    <path d="M 96.0,518.0 L 170.0,516.0 L 322.0,474.0 L 368.0,474.0"/>
    <path d="M 246.0,197.0 L 271.0,217.0 L 293.0,246.0 L 273.0,784.0 L 256.0,927.0 L 256.0,1012.0"/>
    <path d="M 260.0,524.0 L 252.0,529.0 L 236.0,609.0 L 201.0,679.0 L 149.0,762.0 L 64.0,866.0"/>
    <path d="M 309.0,608.0 L 314.0,623.0 L 357.0,651.0 L 368.0,670.0"/>
    <path d="M 404.0,368.0 L 431.0,392.0 L 437.0,425.0 L 434.0,574.0 L 424.0,663.0 L 408.0,735.0 L 370.0,835.0 L 313.0,925.0"/>
    <path d="M 460.0,378.0 L 473.0,383.0 L 487.0,380.0 L 535.0,361.0 L 553.0,365.0 L 573.0,386.0 L 577.0,782.0 L 570.0,858.0 L 555.0,883.0 L 466.0,843.0"/>
    <path d="M 460.0,562.0 L 471.0,548.0 L 485.0,544.0 L 526.0,544.0"/>
    <path d="M 437.0,701.0 L 456.0,685.0 L 497.0,678.0 L 528.0,681.0"/>
    <path d="M 673.0,346.0 L 702.0,370.0 L 710.0,396.0 L 715.0,501.0 L 706.0,658.0 L 690.0,743.0 L 673.0,796.0 L 642.0,871.0 L 594.0,951.0"/>
    <path d="M 731.0,355.0 L 754.0,361.0 L 835.0,333.0 L 855.0,337.0 L 877.0,365.0 L 885.0,806.0 L 881.0,925.0 L 864.0,955.0 L 835.0,948.0 L 762.0,915.0"/>
    <path d="M 744.0,542.0 L 754.0,526.0 L 764.0,523.0 L 797.0,520.0 L 817.0,525.0"/>
    <path d="M 724.0,677.0 L 734.0,676.0 L 741.0,665.0 L 764.0,661.0 L 798.0,659.0 L 819.0,665.0"/>
  </g>
</svg>
