<svg xmlns="http://www.w3.org/2000/svg" viewBox="0 0 1024 1024">
  <g style="fill:none;stroke:#000000;stroke-width:50;stroke-linecap:round;stroke-linejoin:round;" transform="scale(1, 1) translate(0, 0)">
    <path d="M 91.0,540.0 L 150.0,541.0 L 363.0,471.0 L 408.0,467.0"/>
    <path d="M 268.0,192.0 L 315.0,235.0 L 323.0,258.0 L 315.0,765.0 L 301.0,958.0 L 303.0,1029.0"/>
    <path d="M 291.0,529.0 L 281.0,539.0 L 262.0,602.0 L 203.0,691.0 L 126.0,784.0 L 58.0,850.0"/>
    <path d="M 344.0,610.0 L 406.0,648.0 L 423.0,671.0"/>
    <path d="M 473.0,435.0 L 497.0,433.0 L 545.0,415.0 L 661.0,344.0 L 715.0,325.0"/>
    <path d="M 481.0,204.0 L 511.0,214.0 L 543.0,234.0 L 580.0,330.0 L 633.0,416.0 L 698.0,497.0 L 753.0,547.0 L 825.0,588.0 L 879.0,593.0 L 892.0,530.0 L 893.0,487.0"/>
    <path d="M 783.0,337.0 L 800.0,377.0 L 783.0,401.0 L 703.0,484.0 L 624.0,542.0"/>
    <path d="M 683.0,186.0 L 752.0,228.0 L 779.0,268.0"/>
    <path d="M 443.0,751.0 L 521.0,733.0 L 625.0,676.0 L 680.0,661.0"/>
    <path d="M 500.0,562.0 L 518.0,568.0 L 549.0,593.0 L 572.0,673.0 L 642.0,819.0 L 705.0,910.0 L 772.0,978.0 L 858.0,1033.0 L 885.0,1043.0 L 922.0,1043.0 L 931.0,1002.0 L 939.0,895.0"/>
    <path d="M 738.0,700.0 L 751.0,731.0 L 749.0,743.0 L 644.0,852.0 L 541.0,920.0 L 493.0,944.0 L 431.0,965.0"/>
    <path d="M 651.0,585.0 L 686.0,599.0 L 706.0,615.0"/>
  </g>
</svg>
