<svg xmlns="http://www.w3.org/2000/svg" viewBox="0 0 1024 1024">
  <g style="fill:none;stroke:#000000;stroke-width:50;stroke-linecap:round;stroke-linejoin:round;" transform="scale(1, 1) translate(0, 0)">
    <path d="M 95.0,524.0 L 170.0,523.0 L 325.0,478.0 L 382.0,475.0"/>
    <path d="M 246.0,219.0 L 298.0,273.0 L 284.0,776.0 L 267.0,948.0 L 268.0,1030.0"/>
    <path d="M 264.0,530.0 L 255.0,538.0 L 240.0,607.0 L 205.0,674.0 L 129.0,788.0 L 58.0,872.0"/>
    <path d="M 311.0,648.0 L 367.0,686.0 L 391.0,717.0"/>
    <path d="M 425.0,332.0 L 446.0,350.0 L 455.0,371.0 L 496.0,583.0"/>
    <path d="M 481.0,360.0 L 489.0,345.0 L 506.0,339.0 L 664.0,313.0 L 732.0,306.0 L 765.0,316.0 L 789.0,346.0 L 735.0,546.0"/>
    <path d="M 523.0,457.0 L 645.0,430.0 L 672.0,427.0 L 692.0,432.0"/>
    <path d="M 514.0,565.0 L 545.0,553.0 L 673.0,530.0 L 694.0,530.0 L 708.0,538.0"/>
    <path d="M 412.0,672.0 L 465.0,679.0 L 672.0,647.0 L 835.0,630.0 L 871.0,634.0 L 905.0,646.0"/>
    <path d="M 587.0,348.0 L 613.0,367.0 L 606.0,1052.0"/>
    <path d="M 582.0,685.0 L 568.0,707.0 L 563.0,730.0 L 471.0,845.0 L 406.0,904.0 L 342.0,946.0"/>
    <path d="M 636.0,678.0 L 641.0,679.0 L 649.0,705.0 L 688.0,752.0 L 775.0,845.0 L 824.0,886.0 L 965.0,915.0"/>
  </g>
</svg>
