<svg xmlns="http://www.w3.org/2000/svg" viewBox="0 0 1024 1024">
  <g style="fill:none;stroke:#000000;stroke-width:50;stroke-linecap:round;stroke-linejoin:round;" transform="scale(1, 1) translate(0, 0)">
    <path d="M 104.0,496.0 L 138.0,501.0 L 199.0,493.0 L 331.0,456.0 L 385.0,454.0"/>
    <path d="M 241.0,184.0 L 286.0,227.0 L 294.0,249.0 L 283.0,707.0 L 266.0,937.0 L 267.0,1013.0"/>
    <path d="M 262.0,509.0 L 238.0,599.0 L 198.0,664.0 L 126.0,760.0 L 62.0,830.0"/>
    <path d="M 311.0,552.0 L 367.0,594.0 L 379.0,610.0"/>
    <path d="M 767.0,291.0 L 750.0,283.0 L 695.0,277.0 L 622.0,324.0 L 510.0,371.0 L 497.0,370.0 L 462.0,385.0"/>
    <path d="M 485.0,495.0 L 515.0,500.0 L 571.0,495.0 L 743.0,450.0 L 798.0,449.0"/>
    <path d="M 592.0,367.0 L 622.0,383.0 L 629.0,393.0 L 632.0,445.0 L 622.0,916.0 L 605.0,936.0"/>
    <path d="M 349.0,680.0 L 385.0,688.0 L 411.0,685.0 L 646.0,646.0 L 864.0,620.0 L 926.0,625.0 L 959.0,636.0"/>
    <path d="M 451.0,576.0 L 487.0,597.0 L 527.0,763.0"/>
    <path d="M 743.0,518.0 L 757.0,526.0 L 775.0,552.0 L 750.0,658.0 L 723.0,731.0"/>
    <path d="M 412.0,821.0 L 462.0,831.0 L 794.0,778.0 L 832.0,776.0 L 873.0,784.0"/>
    <path d="M 457.0,972.0 L 513.0,979.0 L 735.0,949.0 L 773.0,950.0 L 827.0,964.0"/>
  </g>
</svg>
