<svg xmlns="http://www.w3.org/2000/svg" viewBox="0 0 1024 1024">
  <g style="fill:none;stroke:#000000;stroke-width:50;stroke-linecap:round;stroke-linejoin:round;" transform="scale(1, 1) translate(0, 0)">
    <path d="M 92.0,503.0 L 161.0,503.0 L 340.0,453.0 L 399.0,449.0"/>
    <path d="M 257.0,204.0 L 309.0,258.0 L 296.0,711.0 L 291.0,834.0 L 278.0,952.0 L 279.0,1025.0"/>
    <path d="M 276.0,503.0 L 268.0,508.0 L 253.0,581.0 L 191.0,690.0 L 128.0,777.0 L 68.0,845.0"/>
    <path d="M 327.0,600.0 L 342.0,616.0 L 384.0,641.0 L 402.0,676.0"/>
    <path d="M 578.0,225.0 L 661.0,275.0 L 679.0,302.0"/>
    <path d="M 460.0,396.0 L 472.0,425.0 L 441.0,524.0 L 437.0,556.0"/>
    <path d="M 496.0,449.0 L 511.0,438.0 L 566.0,424.0 L 791.0,376.0 L 823.0,386.0 L 842.0,411.0 L 782.0,488.0"/>
    <path d="M 502.0,563.0 L 535.0,605.0 L 539.0,675.0 L 539.0,846.0 L 519.0,997.0 L 523.0,1032.0"/>
    <path d="M 556.0,577.0 L 571.0,583.0 L 708.0,545.0 L 728.0,547.0 L 758.0,574.0 L 734.0,633.0 L 712.0,646.0"/>
    <path d="M 567.0,692.0 L 577.0,700.0 L 701.0,674.0 L 758.0,681.0"/>
    <path d="M 565.0,829.0 L 576.0,816.0 L 700.0,789.0 L 742.0,783.0 L 765.0,786.0 L 795.0,818.0 L 771.0,875.0 L 741.0,897.0"/>
    <path d="M 558.0,962.0 L 575.0,947.0 L 730.0,925.0 L 784.0,924.0 L 814.0,933.0"/>
  </g>
</svg>
