<svg xmlns="http://www.w3.org/2000/svg" viewBox="0 0 1024 1024">
  <g style="fill:none;stroke:#000000;stroke-width:50;stroke-linecap:round;stroke-linejoin:round;" transform="scale(1, 1) translate(0, 0)">
    <path d="M 121.0,495.0 L 191.0,498.0 L 340.0,462.0 L 392.0,460.0"/>
    <path d="M 226.0,231.0 L 278.0,284.0 L 267.0,814.0 L 251.0,960.0 L 252.0,1054.0"/>
    <path d="M 247.0,514.0 L 240.0,519.0 L 226.0,600.0 L 206.0,648.0 L 131.0,782.0 L 60.0,875.0"/>
    <path d="M 292.0,571.0 L 304.0,575.0 L 308.0,586.0 L 359.0,624.0 L 375.0,652.0"/>
    <path d="M 445.0,314.0 L 480.0,346.0 L 484.0,364.0 L 485.0,464.0 L 469.0,663.0 L 444.0,771.0 L 412.0,858.0 L 372.0,934.0 L 331.0,994.0"/>
    <path d="M 520.0,360.0 L 535.0,343.0 L 738.0,302.0 L 794.0,308.0 L 824.0,339.0 L 821.0,392.0 L 835.0,877.0 L 829.0,948.0 L 811.0,986.0 L 766.0,974.0 L 694.0,937.0"/>
    <path d="M 560.0,491.0 L 620.0,494.0 L 708.0,473.0 L 743.0,474.0"/>
    <path d="M 610.0,352.0 L 636.0,365.0 L 652.0,387.0 L 650.0,552.0 L 636.0,574.0"/>
    <path d="M 532.0,597.0 L 591.0,604.0 L 699.0,587.0 L 743.0,584.0 L 779.0,591.0"/>
    <path d="M 525.0,698.0 L 553.0,728.0 L 577.0,863.0"/>
    <path d="M 577.0,707.0 L 587.0,713.0 L 670.0,691.0 L 704.0,694.0 L 719.0,712.0 L 717.0,724.0 L 700.0,768.0 L 684.0,779.0"/>
    <path d="M 595.0,826.0 L 610.0,816.0 L 652.0,807.0 L 711.0,804.0 L 727.0,809.0"/>
  </g>
</svg>
