<svg xmlns="http://www.w3.org/2000/svg" viewBox="0 0 1024 1024">
  <g style="fill:none;stroke:#000000;stroke-width:50;stroke-linecap:round;stroke-linejoin:round;" transform="scale(1, 1) translate(0, 0)">
    <path d="M 113.0,514.0 L 133.0,519.0 L 185.0,515.0 L 279.0,496.0 L 369.0,468.0 L 419.0,470.0"/>
    <path d="M 253.0,216.0 L 298.0,259.0 L 305.0,270.0 L 306.0,299.0 L 299.0,391.0 L 293.0,796.0 L 278.0,960.0 L 279.0,1049.0"/>
    <path d="M 270.0,526.0 L 252.0,610.0 L 217.0,679.0 L 165.0,762.0 L 80.0,866.0"/>
    <path d="M 322.0,592.0 L 340.0,615.0 L 378.0,641.0 L 395.0,673.0"/>
    <path d="M 555.0,328.0 L 564.0,336.0 L 583.0,338.0 L 742.0,296.0 L 763.0,296.0 L 795.0,326.0 L 773.0,397.0 L 749.0,410.0"/>
    <path d="M 552.0,485.0 L 586.0,470.0 L 739.0,442.0 L 784.0,440.0 L 807.0,448.0"/>
    <path d="M 491.0,320.0 L 509.0,333.0 L 528.0,361.0 L 520.0,520.0 L 505.0,624.0 L 478.0,725.0 L 438.0,824.0 L 394.0,899.0 L 352.0,950.0"/>
    <path d="M 531.0,660.0 L 829.0,614.0 L 879.0,614.0 L 923.0,625.0"/>
    <path d="M 654.0,506.0 L 683.0,533.0 L 692.0,551.0 L 670.0,761.0 L 652.0,789.0"/>
    <path d="M 528.0,809.0 L 554.0,835.0 L 560.0,853.0 L 589.0,1017.0"/>
    <path d="M 577.0,811.0 L 600.0,821.0 L 661.0,813.0 L 758.0,788.0 L 800.0,792.0 L 826.0,818.0 L 795.0,903.0 L 768.0,922.0"/>
    <path d="M 606.0,958.0 L 625.0,968.0 L 794.0,947.0 L 812.0,947.0 L 833.0,957.0"/>
  </g>
</svg>
