<svg xmlns="http://www.w3.org/2000/svg" viewBox="0 0 1024 1024">
  <g style="fill:none;stroke:#000000;stroke-width:50;stroke-linecap:round;stroke-linejoin:round;" transform="scale(1, 1) translate(0, 0)">
    <path d="M 75.0,527.0 L 123.0,529.0 L 292.0,481.0 L 345.0,477.0"/>
    <path d="M 210.0,203.0 L 262.0,257.0 L 248.0,830.0 L 235.0,935.0 L 236.0,1030.0"/>
    <path d="M 228.0,531.0 L 212.0,605.0 L 160.0,706.0 L 94.0,805.0 L 48.0,861.0"/>
    <path d="M 276.0,595.0 L 328.0,646.0 L 337.0,668.0"/>
    <path d="M 448.0,266.0 L 489.0,300.0 L 481.0,520.0 L 466.0,539.0"/>
    <path d="M 513.0,420.0 L 553.0,405.0 L 610.0,394.0 L 637.0,395.0"/>
    <path d="M 338.0,585.0 L 379.0,587.0 L 558.0,538.0 L 594.0,540.0"/>
    <path d="M 457.0,588.0 L 484.0,609.0 L 485.0,866.0 L 467.0,902.0 L 387.0,865.0"/>
    <path d="M 385.0,697.0 L 377.0,730.0 L 333.0,818.0"/>
    <path d="M 513.0,677.0 L 555.0,715.0 L 568.0,743.0"/>
    <path d="M 621.0,527.0 L 689.0,520.0 L 747.0,496.0 L 781.0,495.0 L 798.0,501.0 L 793.0,553.0 L 768.0,652.0 L 750.0,707.0 L 719.0,771.0 L 681.0,822.0 L 648.0,852.0 L 617.0,873.0 L 562.0,890.0"/>
    <path d="M 595.0,590.0 L 626.0,605.0 L 745.0,782.0 L 831.0,878.0 L 967.0,915.0"/>
  </g>
</svg>
