<svg xmlns="http://www.w3.org/2000/svg" viewBox="0 0 1024 1024">
  <g style="fill:none;stroke:#000000;stroke-width:50;stroke-linecap:round;stroke-linejoin:round;" transform="scale(1, 1) translate(0, 0)">
    <path d="M 96.0,496.0 L 127.0,501.0 L 167.0,498.0 L 344.0,452.0 L 397.0,450.0"/>
    <path d="M 253.0,204.0 L 305.0,258.0 L 290.0,766.0 L 275.0,928.0 L 275.0,1018.0"/>
    <path d="M 269.0,505.0 L 248.0,589.0 L 197.0,673.0 L 138.0,750.0 L 69.0,822.0"/>
    <path d="M 321.0,569.0 L 379.0,612.0 L 395.0,639.0"/>
    <path d="M 422.0,319.0 L 450.0,340.0 L 459.0,357.0 L 499.0,505.0"/>
    <path d="M 478.0,321.0 L 496.0,330.0 L 790.0,283.0 L 836.0,288.0 L 856.0,308.0 L 863.0,325.0 L 810.0,458.0 L 798.0,458.0"/>
    <path d="M 587.0,338.0 L 583.0,346.0 L 590.0,394.0 L 610.0,451.0"/>
    <path d="M 689.0,319.0 L 714.0,339.0 L 694.0,409.0 L 674.0,443.0"/>
    <path d="M 516.0,490.0 L 534.0,481.0 L 775.0,448.0 L 786.0,442.0"/>
    <path d="M 579.0,497.0 L 607.0,527.0 L 570.0,592.0 L 487.0,699.0 L 419.0,760.0"/>
    <path d="M 586.0,620.0 L 609.0,610.0 L 744.0,582.0 L 773.0,587.0 L 789.0,606.0 L 715.0,778.0 L 644.0,885.0 L 577.0,951.0 L 515.0,999.0 L 454.0,1031.0 L 409.0,1045.0"/>
    <path d="M 516.0,701.0 L 532.0,704.0 L 572.0,734.0 L 593.0,757.0 L 604.0,781.0"/>
  </g>
</svg>
