<svg xmlns="http://www.w3.org/2000/svg" viewBox="0 0 1024 1024">
  <g style="fill:none;stroke:#000000;stroke-width:50;stroke-linecap:round;stroke-linejoin:round;" transform="scale(1, 1) translate(0, 0)">
    <path d="M 185.0,342.0 L 210.0,350.0 L 264.0,349.0 L 439.0,315.0 L 484.0,317.0"/>
    <path d="M 335.0,184.0 L 361.0,235.0 L 321.0,331.0 L 251.0,472.0 L 245.0,498.0 L 283.0,501.0 L 448.0,464.0 L 475.0,471.0"/>
    <path d="M 363.0,391.0 L 388.0,420.0 L 379.0,692.0"/>
    <path d="M 150.0,619.0 L 200.0,636.0 L 304.0,597.0 L 413.0,566.0 L 502.0,530.0"/>
    <path d="M 692.0,218.0 L 705.0,237.0 L 709.0,257.0 L 680.0,285.0 L 596.0,342.0 L 589.0,353.0"/>
    <path d="M 525.0,329.0 L 559.0,360.0 L 557.0,444.0 L 528.0,560.0 L 495.0,611.0"/>
    <path d="M 586.0,434.0 L 595.0,427.0 L 662.0,420.0 L 779.0,393.0 L 811.0,394.0 L 836.0,402.0"/>
    <path d="M 684.0,436.0 L 716.0,462.0 L 715.0,660.0"/>
    <path d="M 186.0,759.0 L 237.0,769.0 L 406.0,743.0 L 741.0,711.0 L 787.0,718.0 L 823.0,731.0"/>
    <path d="M 471.0,653.0 L 488.0,670.0 L 500.0,700.0 L 494.0,923.0 L 487.0,984.0 L 499.0,1076.0"/>
    <path d="M 463.0,764.0 L 387.0,854.0 L 316.0,914.0 L 239.0,960.0 L 158.0,992.0"/>
    <path d="M 531.0,759.0 L 540.0,778.0 L 617.0,854.0 L 697.0,927.0 L 737.0,955.0 L 827.0,979.0 L 928.0,995.0"/>
  </g>
</svg>
