<svg xmlns="http://www.w3.org/2000/svg" viewBox="0 0 1024 1024">
  <g style="fill:none;stroke:#000000;stroke-width:50;stroke-linecap:round;stroke-linejoin:round;" transform="scale(1, 1) translate(0, 0)">
    <path d="M 76.0,490.0 L 102.0,495.0 L 143.0,492.0 L 294.0,451.0 L 342.0,449.0"/>
    <path d="M 230.0,183.0 L 282.0,237.0 L 268.0,770.0 L 251.0,923.0 L 251.0,1010.0"/>
    <path d="M 250.0,495.0 L 242.0,500.0 L 226.0,575.0 L 183.0,657.0 L 137.0,729.0 L 52.0,831.0"/>
    <path d="M 301.0,570.0 L 306.0,584.0 L 349.0,619.0 L 360.0,638.0"/>
    <path d="M 351.0,387.0 L 406.0,389.0 L 495.0,368.0 L 607.0,332.0 L 649.0,329.0"/>
    <path d="M 382.0,410.0 L 417.0,446.0 L 413.0,750.0 L 396.0,765.0"/>
    <path d="M 542.0,375.0 L 563.0,394.0 L 566.0,471.0 L 562.0,1006.0"/>
    <path d="M 439.0,541.0 L 467.0,519.0 L 511.0,514.0"/>
    <path d="M 443.0,653.0 L 462.0,632.0 L 493.0,624.0 L 514.0,626.0"/>
    <path d="M 321.0,812.0 L 374.0,821.0 L 628.0,687.0"/>
    <path d="M 721.0,382.0 L 736.0,389.0 L 802.0,359.0 L 829.0,354.0 L 860.0,376.0 L 811.0,500.0 L 801.0,543.0 L 864.0,600.0 L 895.0,638.0 L 916.0,696.0 L 913.0,736.0 L 890.0,770.0 L 850.0,762.0 L 770.0,732.0"/>
    <path d="M 657.0,380.0 L 688.0,402.0 L 699.0,427.0 L 698.0,1070.0"/>
  </g>
</svg>
