<svg xmlns="http://www.w3.org/2000/svg" viewBox="0 0 1024 1024">
  <g style="fill:none;stroke:#000000;stroke-width:50;stroke-linecap:round;stroke-linejoin:round;" transform="scale(1, 1) translate(0, 0)">
    <path d="M 113.0,494.0 L 154.0,499.0 L 215.0,491.0 L 345.0,456.0 L 421.0,449.0"/>
    <path d="M 250.0,194.0 L 278.0,218.0 L 300.0,248.0 L 301.0,259.0 L 283.0,761.0 L 264.0,926.0 L 264.0,1015.0"/>
    <path d="M 269.0,508.0 L 263.0,511.0 L 265.0,522.0 L 245.0,606.0 L 221.0,653.0 L 152.0,756.0 L 72.0,849.0"/>
    <path d="M 311.0,588.0 L 327.0,607.0 L 367.0,633.0 L 380.0,651.0"/>
    <path d="M 558.0,325.0 L 568.0,336.0 L 768.0,290.0 L 804.0,291.0 L 836.0,320.0 L 809.0,405.0 L 802.0,418.0 L 785.0,429.0"/>
    <path d="M 650.0,338.0 L 670.0,358.0 L 663.0,438.0 L 647.0,448.0"/>
    <path d="M 539.0,504.0 L 563.0,489.0 L 765.0,456.0 L 829.0,463.0"/>
    <path d="M 490.0,308.0 L 520.0,339.0 L 523.0,353.0 L 518.0,452.0 L 491.0,617.0 L 464.0,707.0 L 433.0,778.0 L 373.0,875.0 L 344.0,907.0"/>
    <path d="M 526.0,595.0 L 549.0,645.0 L 552.0,707.0 L 550.0,807.0 L 535.0,980.0"/>
    <path d="M 567.0,605.0 L 589.0,618.0 L 769.0,576.0 L 794.0,589.0 L 813.0,608.0 L 817.0,900.0 L 808.0,942.0 L 802.0,953.0 L 768.0,944.0 L 724.0,906.0"/>
    <path d="M 574.0,737.0 L 587.0,725.0 L 657.0,710.0 L 695.0,704.0 L 724.0,709.0"/>
    <path d="M 574.0,832.0 L 586.0,822.0 L 674.0,808.0 L 709.0,806.0 L 731.0,812.0"/>
    <path d="M 567.0,947.0 L 588.0,934.0 L 699.0,921.0 L 728.0,935.0"/>
  </g>
</svg>
