<svg xmlns="http://www.w3.org/2000/svg" viewBox="0 0 1024 1024">
  <g style="fill:none;stroke:#000000;stroke-width:50;stroke-linecap:round;stroke-linejoin:round;" transform="scale(1, 1) translate(0, 0)">
    <path d="M 93.0,529.0 L 153.0,534.0 L 338.0,490.0 L 385.0,491.0"/>
    <path d="M 238.0,203.0 L 265.0,226.0 L 288.0,257.0 L 281.0,704.0 L 273.0,855.0 L 263.0,927.0 L 264.0,1022.0"/>
    <path d="M 258.0,543.0 L 238.0,628.0 L 208.0,686.0 L 130.0,799.0 L 48.0,893.0"/>
    <path d="M 310.0,664.0 L 314.0,675.0 L 352.0,710.0"/>
    <path d="M 454.0,454.0 L 526.0,458.0 L 740.0,411.0 L 777.0,413.0"/>
    <path d="M 581.0,204.0 L 616.0,236.0 L 624.0,251.0 L 585.0,546.0 L 566.0,566.0"/>
    <path d="M 389.0,593.0 L 419.0,621.0 L 425.0,657.0 L 426.0,747.0 L 406.0,934.0"/>
    <path d="M 450.0,622.0 L 459.0,611.0 L 480.0,605.0 L 723.0,559.0 L 809.0,549.0 L 847.0,565.0 L 858.0,579.0 L 856.0,765.0 L 848.0,867.0 L 836.0,930.0 L 809.0,973.0 L 732.0,941.0 L 714.0,925.0"/>
    <path d="M 527.0,639.0 L 544.0,654.0 L 564.0,686.0"/>
    <path d="M 664.0,590.0 L 679.0,615.0 L 651.0,669.0 L 623.0,703.0"/>
    <path d="M 517.0,737.0 L 564.0,736.0 L 683.0,711.0 L 729.0,712.0"/>
    <path d="M 494.0,833.0 L 539.0,832.0 L 707.0,801.0 L 767.0,811.0"/>
    <path d="M 580.0,751.0 L 603.0,779.0 L 603.0,1009.0"/>
  </g>
</svg>
