<svg xmlns="http://www.w3.org/2000/svg" viewBox="0 0 1024 1024">
  <g style="fill:none;stroke:#000000;stroke-width:50;stroke-linecap:round;stroke-linejoin:round;" transform="scale(1, 1) translate(0, 0)">
    <path d="M 94.0,534.0 L 138.0,536.0 L 174.0,527.0 L 356.0,461.0 L 422.0,450.0"/>
    <path d="M 262.0,215.0 L 314.0,268.0 L 300.0,769.0 L 282.0,942.0 L 284.0,1022.0"/>
    <path d="M 280.0,522.0 L 269.0,533.0 L 260.0,584.0 L 207.0,686.0 L 117.0,808.0 L 57.0,874.0"/>
    <path d="M 329.0,596.0 L 409.0,661.0"/>
    <path d="M 602.0,184.0 L 644.0,219.0 L 639.0,407.0 L 622.0,430.0"/>
    <path d="M 674.0,321.0 L 688.0,309.0 L 767.0,285.0 L 830.0,277.0"/>
    <path d="M 491.0,447.0 L 515.0,469.0 L 524.0,494.0 L 526.0,679.0 L 513.0,788.0 L 515.0,832.0"/>
    <path d="M 537.0,455.0 L 563.0,465.0 L 751.0,427.0 L 774.0,435.0 L 807.0,468.0 L 801.0,533.0 L 805.0,767.0 L 799.0,788.0 L 799.0,831.0"/>
    <path d="M 550.0,590.0 L 562.0,580.0 L 644.0,558.0 L 684.0,552.0 L 716.0,557.0"/>
    <path d="M 556.0,693.0 L 562.0,683.0 L 667.0,659.0 L 702.0,655.0 L 723.0,661.0"/>
    <path d="M 540.0,817.0 L 564.0,801.0 L 667.0,783.0 L 740.0,774.0 L 757.0,783.0"/>
    <path d="M 611.0,881.0 L 577.0,888.0 L 497.0,979.0 L 449.0,1017.0 L 404.0,1041.0"/>
    <path d="M 713.0,860.0 L 824.0,963.0 L 843.0,995.0 L 850.0,1030.0"/>
  </g>
</svg>
