<svg xmlns="http://www.w3.org/2000/svg" viewBox="0 0 1024 1024">
  <g style="fill:none;stroke:#000000;stroke-width:50;stroke-linecap:round;stroke-linejoin:round;" transform="scale(1, 1) translate(0, 0)">
    <path d="M 100.0,512.0 L 148.0,518.0 L 344.0,469.0 L 397.0,466.0"/>
    <path d="M 264.0,223.0 L 293.0,247.0 L 316.0,278.0 L 295.0,794.0 L 280.0,937.0 L 279.0,1026.0"/>
    <path d="M 280.0,520.0 L 270.0,527.0 L 258.0,596.0 L 226.0,661.0 L 160.0,762.0 L 77.0,859.0"/>
    <path d="M 328.0,609.0 L 339.0,612.0 L 344.0,629.0 L 396.0,670.0 L 408.0,695.0"/>
    <path d="M 488.0,328.0 L 526.0,355.0 L 547.0,381.0"/>
    <path d="M 766.0,257.0 L 781.0,287.0 L 697.0,363.0"/>
    <path d="M 443.0,470.0 L 467.0,476.0 L 516.0,473.0 L 752.0,425.0 L 801.0,422.0 L 831.0,428.0"/>
    <path d="M 600.0,198.0 L 624.0,214.0 L 643.0,242.0 L 628.0,518.0 L 633.0,628.0"/>
    <path d="M 608.0,482.0 L 528.0,577.0 L 482.0,612.0 L 471.0,614.0 L 467.0,622.0 L 444.0,632.0"/>
    <path d="M 656.0,473.0 L 696.0,520.0 L 776.0,586.0 L 836.0,604.0 L 929.0,614.0"/>
    <path d="M 572.0,644.0 L 587.0,659.0 L 597.0,682.0 L 538.0,844.0 L 720.0,948.0 L 772.0,988.0 L 813.0,1039.0"/>
    <path d="M 689.0,708.0 L 702.0,716.0 L 718.0,742.0 L 711.0,788.0 L 684.0,854.0 L 631.0,927.0 L 594.0,955.0 L 541.0,981.0 L 470.0,1001.0 L 419.0,1003.0"/>
    <path d="M 380.0,768.0 L 416.0,777.0 L 649.0,741.0 L 850.0,722.0 L 925.0,738.0"/>
  </g>
</svg>
