<svg xmlns="http://www.w3.org/2000/svg" viewBox="0 0 1024 1024">
  <g style="fill:none;stroke:#000000;stroke-width:50;stroke-linecap:round;stroke-linejoin:round;" transform="scale(1, 1) translate(0, 0)">
    <path d="M 79.0,511.0 L 126.0,512.0 L 270.0,468.0 L 325.0,460.0"/>
    <path d="M 203.0,216.0 L 244.0,256.0 L 254.0,278.0 L 233.0,817.0 L 219.0,949.0 L 220.0,1030.0"/>
    <path d="M 220.0,517.0 L 198.0,619.0 L 183.0,650.0 L 112.0,768.0 L 48.0,847.0"/>
    <path d="M 271.0,574.0 L 316.0,640.0"/>
    <path d="M 400.0,389.0 L 409.0,394.0 L 493.0,360.0 L 511.0,361.0 L 534.0,386.0 L 508.0,583.0 L 501.0,605.0 L 489.0,604.0"/>
    <path d="M 405.0,503.0 L 408.0,492.0 L 423.0,481.0 L 471.0,473.0"/>
    <path d="M 404.0,619.0 L 411.0,608.0 L 478.0,586.0"/>
    <path d="M 338.0,372.0 L 367.0,402.0 L 373.0,427.0 L 380.0,593.0 L 369.0,770.0 L 373.0,804.0 L 410.0,794.0 L 469.0,749.0 L 484.0,744.0 L 490.0,730.0"/>
    <path d="M 473.0,671.0 L 519.0,728.0 L 535.0,772.0"/>
    <path d="M 612.0,362.0 L 669.0,366.0 L 804.0,329.0 L 851.0,329.0"/>
    <path d="M 588.0,468.0 L 612.0,494.0 L 585.0,627.0 L 619.0,627.0 L 799.0,584.0 L 879.0,592.0"/>
    <path d="M 685.0,387.0 L 723.0,411.0 L 729.0,427.0 L 708.0,609.0 L 669.0,735.0 L 639.0,796.0 L 590.0,866.0 L 524.0,930.0 L 426.0,990.0"/>
    <path d="M 734.0,689.0 L 748.0,703.0 L 759.0,734.0 L 746.0,851.0 L 748.0,918.0 L 759.0,958.0 L 776.0,974.0 L 815.0,990.0 L 856.0,993.0 L 907.0,985.0 L 930.0,972.0 L 941.0,962.0 L 952.0,828.0"/>
  </g>
</svg>
