<svg xmlns="http://www.w3.org/2000/svg" viewBox="0 0 1024 1024">
  <g style="fill:none;stroke:#000000;stroke-width:50;stroke-linecap:round;stroke-linejoin:round;" transform="scale(1, 1) translate(0, 0)">
    <path d="M 117.0,468.0 L 139.0,473.0 L 195.0,469.0 L 364.0,427.0 L 413.0,426.0"/>
    <path d="M 262.0,209.0 L 289.0,231.0 L 313.0,262.0 L 287.0,791.0 L 271.0,926.0 L 272.0,1004.0"/>
    <path d="M 274.0,483.0 L 250.0,585.0 L 226.0,632.0 L 164.0,732.0 L 76.0,839.0"/>
    <path d="M 328.0,543.0 L 339.0,565.0 L 381.0,601.0 L 392.0,625.0"/>
    <path d="M 533.0,285.0 L 543.0,293.0 L 567.0,295.0 L 741.0,254.0 L 763.0,256.0 L 795.0,286.0 L 770.0,348.0 L 748.0,362.0"/>
    <path d="M 538.0,420.0 L 554.0,427.0 L 733.0,390.0 L 794.0,397.0"/>
    <path d="M 475.0,279.0 L 501.0,302.0 L 511.0,326.0 L 497.0,495.0 L 475.0,617.0 L 454.0,689.0 L 408.0,792.0 L 365.0,862.0 L 324.0,911.0"/>
    <path d="M 654.0,460.0 L 687.0,490.0 L 682.0,609.0 L 668.0,626.0"/>
    <path d="M 545.0,526.0 L 593.0,554.0 L 615.0,586.0"/>
    <path d="M 818.0,445.0 L 833.0,475.0 L 737.0,563.0"/>
    <path d="M 549.0,635.0 L 577.0,662.0 L 580.0,734.0 L 571.0,838.0 L 547.0,954.0 L 543.0,1006.0"/>
    <path d="M 610.0,654.0 L 618.0,659.0 L 646.0,655.0 L 657.0,648.0 L 668.0,650.0 L 764.0,626.0 L 789.0,633.0 L 809.0,651.0 L 806.0,720.0 L 815.0,942.0 L 807.0,975.0 L 788.0,1002.0 L 701.0,965.0"/>
    <path d="M 598.0,765.0 L 613.0,753.0 L 683.0,737.0 L 740.0,737.0"/>
    <path d="M 597.0,867.0 L 607.0,857.0 L 696.0,840.0 L 720.0,839.0 L 743.0,846.0"/>
  </g>
</svg>
