<svg xmlns="http://www.w3.org/2000/svg" viewBox="0 0 1024 1024">
  <g style="fill:none;stroke:#000000;stroke-width:50;stroke-linecap:round;stroke-linejoin:round;" transform="scale(1, 1) translate(0, 0)">
    <path d="M 87.0,508.0 L 149.0,509.0 L 285.0,469.0 L 334.0,467.0"/>
    <path d="M 209.0,208.0 L 261.0,262.0 L 250.0,712.0 L 234.0,938.0 L 235.0,1009.0"/>
    <path d="M 230.0,520.0 L 224.0,522.0 L 214.0,592.0 L 199.0,639.0 L 119.0,765.0 L 56.0,838.0"/>
    <path d="M 279.0,583.0 L 335.0,625.0 L 355.0,650.0"/>
    <path d="M 523.0,205.0 L 594.0,242.0 L 627.0,281.0"/>
    <path d="M 401.0,352.0 L 416.0,389.0 L 388.0,481.0 L 385.0,515.0"/>
    <path d="M 449.0,401.0 L 460.0,393.0 L 498.0,389.0 L 592.0,363.0 L 768.0,334.0 L 795.0,346.0 L 815.0,368.0 L 757.0,448.0 L 748.0,451.0"/>
    <path d="M 527.0,498.0 L 498.0,506.0 L 452.0,574.0 L 405.0,612.0"/>
    <path d="M 629.0,463.0 L 707.0,512.0 L 735.0,551.0"/>
    <path d="M 608.0,590.0 L 577.0,602.0 L 537.0,669.0 L 437.0,787.0 L 381.0,837.0 L 326.0,872.0"/>
    <path d="M 615.0,616.0 L 627.0,636.0 L 675.0,675.0 L 802.0,763.0 L 877.0,777.0 L 989.0,780.0"/>
    <path d="M 437.0,825.0 L 451.0,828.0 L 465.0,841.0 L 471.0,857.0 L 504.0,1029.0"/>
    <path d="M 497.0,821.0 L 513.0,833.0 L 667.0,800.0 L 693.0,806.0 L 721.0,833.0 L 699.0,903.0 L 672.0,926.0"/>
    <path d="M 519.0,989.0 L 538.0,972.0 L 628.0,959.0 L 722.0,952.0 L 746.0,961.0"/>
  </g>
</svg>
