<svg xmlns="http://www.w3.org/2000/svg" viewBox="0 0 1024 1024">
  <g style="fill:none;stroke:#000000;stroke-width:50;stroke-linecap:round;stroke-linejoin:round;" transform="scale(1, 1) translate(0, 0)">
    <path d="M 283.0,210.0 L 309.0,241.0 L 290.0,290.0 L 259.0,342.0 L 202.0,397.0"/>
    <path d="M 301.0,325.0 L 361.0,324.0 L 450.0,297.0 L 493.0,296.0"/>
    <path d="M 158.0,478.0 L 206.0,485.0 L 431.0,438.0 L 468.0,435.0 L 500.0,440.0"/>
    <path d="M 353.0,354.0 L 377.0,375.0 L 374.0,423.0 L 362.0,485.0 L 335.0,550.0 L 308.0,587.0 L 275.0,617.0 L 223.0,648.0 L 185.0,660.0"/>
    <path d="M 377.0,524.0 L 404.0,533.0 L 442.0,560.0 L 461.0,582.0 L 469.0,604.0"/>
    <path d="M 576.0,274.0 L 608.0,280.0 L 682.0,269.0 L 750.0,251.0 L 793.0,252.0"/>
    <path d="M 584.0,398.0 L 612.0,386.0 L 748.0,364.0 L 767.0,374.0 L 778.0,388.0 L 764.0,426.0 L 742.0,444.0"/>
    <path d="M 586.0,486.0 L 595.0,494.0 L 728.0,469.0 L 770.0,467.0 L 795.0,476.0"/>
    <path d="M 534.0,257.0 L 555.0,281.0 L 562.0,299.0 L 565.0,343.0 L 552.0,595.0 L 762.0,570.0 L 825.0,568.0 L 858.0,578.0"/>
    <path d="M 186.0,759.0 L 242.0,768.0 L 424.0,741.0 L 743.0,710.0 L 786.0,716.0 L 823.0,729.0"/>
    <path d="M 474.0,652.0 L 496.0,677.0 L 501.0,699.0 L 487.0,993.0 L 497.0,1076.0"/>
    <path d="M 469.0,761.0 L 368.0,870.0 L 312.0,916.0 L 226.0,966.0 L 158.0,992.0"/>
    <path d="M 528.0,757.0 L 541.0,780.0 L 609.0,849.0 L 723.0,945.0 L 772.0,968.0 L 924.0,996.0"/>
  </g>
</svg>
