<svg xmlns="http://www.w3.org/2000/svg" viewBox="0 0 1024 1024">
  <g style="fill:none;stroke:#000000;stroke-width:50;stroke-linecap:round;stroke-linejoin:round;" transform="scale(1, 1) translate(0, 0)">
    <path d="M 83.0,518.0 L 134.0,520.0 L 288.0,473.0 L 334.0,470.0"/>
    <path d="M 213.0,228.0 L 261.0,278.0 L 245.0,783.0 L 232.0,910.0 L 232.0,984.0"/>
    <path d="M 227.0,524.0 L 205.0,617.0 L 191.0,644.0 L 146.0,719.0 L 61.0,823.0"/>
    <path d="M 274.0,575.0 L 329.0,626.0"/>
    <path d="M 472.0,191.0 L 497.0,218.0 L 447.0,313.0 L 433.0,325.0 L 433.0,338.0 L 423.0,343.0"/>
    <path d="M 376.0,352.0 L 391.0,366.0 L 404.0,394.0 L 407.0,445.0 L 404.0,652.0 L 389.0,666.0"/>
    <path d="M 414.0,359.0 L 451.0,364.0 L 522.0,337.0 L 538.0,342.0 L 560.0,366.0 L 559.0,873.0 L 554.0,937.0 L 546.0,962.0 L 534.0,977.0 L 434.0,939.0"/>
    <path d="M 434.0,488.0 L 455.0,471.0 L 505.0,468.0"/>
    <path d="M 433.0,580.0 L 438.0,569.0 L 453.0,560.0 L 505.0,558.0"/>
    <path d="M 297.0,707.0 L 332.0,716.0 L 351.0,714.0 L 500.0,660.0 L 530.0,637.0"/>
    <path d="M 536.0,641.0 L 510.0,722.0 L 460.0,782.0 L 378.0,858.0 L 294.0,909.0"/>
    <path d="M 612.0,521.0 L 656.0,524.0 L 852.0,483.0 L 900.0,482.0 L 939.0,492.0"/>
    <path d="M 729.0,220.0 L 758.0,237.0 L 778.0,258.0 L 777.0,592.0 L 789.0,890.0 L 783.0,922.0 L 768.0,951.0 L 728.0,937.0 L 674.0,909.0 L 672.0,902.0 L 661.0,902.0"/>
    <path d="M 612.0,642.0 L 677.0,685.0 L 690.0,697.0 L 703.0,724.0"/>
  </g>
</svg>
