<svg xmlns="http://www.w3.org/2000/svg" viewBox="0 0 1024 1024">
  <g style="fill:none;stroke:#000000;stroke-width:50;stroke-linecap:round;stroke-linejoin:round;" transform="scale(1, 1) translate(0, 0)">
    <path d="M 233.0,234.0 L 295.0,271.0 L 319.0,308.0"/>
    <path d="M 439.0,187.0 L 460.0,213.0 L 405.0,305.0 L 391.0,311.0 L 379.0,326.0"/>
    <path d="M 207.0,371.0 L 233.0,378.0 L 264.0,376.0 L 423.0,337.0 L 464.0,332.0 L 496.0,337.0"/>
    <path d="M 195.0,459.0 L 218.0,492.0 L 216.0,574.0 L 253.0,574.0 L 363.0,537.0 L 420.0,528.0 L 436.0,513.0"/>
    <path d="M 459.0,397.0 L 481.0,429.0 L 458.0,560.0"/>
    <path d="M 329.0,400.0 L 351.0,417.0 L 355.0,432.0 L 351.0,500.0 L 340.0,546.0 L 301.0,632.0 L 248.0,698.0"/>
    <path d="M 546.0,260.0 L 566.0,273.0 L 579.0,295.0 L 580.0,359.0 L 572.0,430.0 L 561.0,492.0 L 544.0,544.0 L 520.0,594.0 L 495.0,627.0"/>
    <path d="M 609.0,289.0 L 616.0,281.0 L 722.0,251.0 L 737.0,257.0 L 756.0,278.0 L 758.0,533.0 L 751.0,592.0 L 736.0,614.0 L 646.0,579.0"/>
    <path d="M 605.0,391.0 L 625.0,374.0 L 659.0,368.0 L 689.0,372.0"/>
    <path d="M 585.0,482.0 L 600.0,471.0 L 661.0,459.0 L 697.0,463.0"/>
    <path d="M 150.0,767.0 L 201.0,777.0 L 426.0,745.0 L 761.0,715.0 L 842.0,734.0"/>
    <path d="M 472.0,652.0 L 497.0,682.0 L 494.0,906.0 L 486.0,995.0 L 497.0,1068.0"/>
    <path d="M 467.0,767.0 L 385.0,853.0 L 313.0,911.0 L 252.0,948.0 L 157.0,985.0"/>
    <path d="M 527.0,761.0 L 534.0,774.0 L 616.0,849.0 L 728.0,930.0 L 780.0,945.0 L 919.0,962.0"/>
  </g>
</svg>
