<svg xmlns="http://www.w3.org/2000/svg" viewBox="0 0 1024 1024">
  <g style="fill:none;stroke:#000000;stroke-width:50;stroke-linecap:round;stroke-linejoin:round;" transform="scale(1, 1) translate(0, 0)">
    <path d="M 95.0,516.0 L 165.0,515.0 L 306.0,471.0 L 367.0,467.0"/>
    <path d="M 227.0,208.0 L 277.0,261.0 L 261.0,775.0 L 243.0,933.0 L 244.0,1018.0"/>
    <path d="M 243.0,525.0 L 219.0,622.0 L 199.0,661.0 L 155.0,735.0 L 61.0,851.0"/>
    <path d="M 288.0,619.0 L 298.0,623.0 L 303.0,637.0 L 348.0,666.0 L 369.0,698.0"/>
    <path d="M 669.0,244.0 L 693.0,262.0 L 700.0,276.0 L 654.0,362.0 L 617.0,418.0 L 608.0,420.0"/>
    <path d="M 557.0,416.0 L 585.0,442.0 L 599.0,531.0 L 598.0,672.0 L 585.0,785.0 L 587.0,836.0"/>
    <path d="M 607.0,429.0 L 627.0,439.0 L 738.0,407.0 L 779.0,410.0 L 798.0,434.0 L 781.0,484.0 L 759.0,496.0"/>
    <path d="M 623.0,563.0 L 669.0,545.0 L 746.0,528.0 L 811.0,531.0"/>
    <path d="M 619.0,654.0 L 633.0,644.0 L 769.0,614.0 L 790.0,618.0 L 820.0,645.0 L 797.0,703.0 L 771.0,720.0"/>
    <path d="M 620.0,789.0 L 643.0,772.0 L 753.0,752.0 L 811.0,751.0 L 834.0,759.0"/>
    <path d="M 413.0,351.0 L 474.0,393.0 L 496.0,430.0"/>
    <path d="M 343.0,579.0 L 384.0,577.0 L 438.0,559.0 L 464.0,562.0 L 474.0,571.0 L 473.0,598.0 L 440.0,668.0 L 474.0,773.0 L 475.0,796.0 L 461.0,812.0"/>
    <path d="M 315.0,850.0 L 355.0,860.0 L 420.0,836.0 L 491.0,841.0 L 697.0,927.0 L 810.0,955.0 L 904.0,948.0 L 945.0,935.0"/>
  </g>
</svg>
