<svg xmlns="http://www.w3.org/2000/svg" viewBox="0 0 1024 1024">
  <g style="fill:none;stroke:#000000;stroke-width:50;stroke-linecap:round;stroke-linejoin:round;" transform="scale(1, 1) translate(0, 0)">
    <path d="M 91.0,554.0 L 145.0,554.0 L 326.0,496.0 L 382.0,490.0"/>
    <path d="M 246.0,215.0 L 273.0,238.0 L 296.0,269.0 L 289.0,610.0 L 279.0,848.0 L 267.0,969.0 L 268.0,1038.0"/>
    <path d="M 266.0,549.0 L 258.0,555.0 L 242.0,627.0 L 195.0,707.0 L 161.0,759.0 L 60.0,871.0"/>
    <path d="M 312.0,583.0 L 324.0,600.0 L 360.0,625.0 L 374.0,647.0"/>
    <path d="M 414.0,397.0 L 443.0,435.0 L 439.0,603.0 L 447.0,635.0"/>
    <path d="M 509.0,312.0 L 536.0,321.0 L 553.0,336.0 L 556.0,501.0 L 544.0,669.0"/>
    <path d="M 685.0,272.0 L 719.0,303.0 L 710.0,354.0 L 661.0,493.0 L 620.0,564.0"/>
    <path d="M 694.0,464.0 L 768.0,454.0 L 846.0,433.0 L 877.0,433.0"/>
    <path d="M 692.0,546.0 L 769.0,599.0 L 795.0,640.0"/>
    <path d="M 411.0,757.0 L 441.0,784.0 L 474.0,925.0 L 490.0,939.0"/>
    <path d="M 469.0,762.0 L 480.0,771.0 L 494.0,771.0 L 721.0,727.0 L 783.0,727.0 L 796.0,736.0 L 813.0,765.0 L 779.0,884.0 L 749.0,910.0"/>
    <path d="M 545.0,782.0 L 557.0,792.0 L 573.0,906.0 L 587.0,930.0"/>
    <path d="M 658.0,757.0 L 686.0,782.0 L 661.0,890.0 L 651.0,917.0 L 642.0,925.0"/>
    <path d="M 350.0,965.0 L 401.0,974.0 L 535.0,955.0 L 846.0,931.0 L 905.0,939.0 L 934.0,951.0"/>
  </g>
</svg>
