<svg xmlns="http://www.w3.org/2000/svg" viewBox="0 0 1024 1024">
  <g style="fill:none;stroke:#000000;stroke-width:50;stroke-linecap:round;stroke-linejoin:round;" transform="scale(1, 1) translate(0, 0)">
    <path d="M 96.0,498.0 L 156.0,500.0 L 310.0,461.0 L 353.0,462.0"/>
    <path d="M 230.0,221.0 L 278.0,270.0 L 261.0,739.0 L 244.0,1012.0"/>
    <path d="M 245.0,512.0 L 226.0,590.0 L 193.0,654.0 L 140.0,732.0 L 60.0,826.0"/>
    <path d="M 291.0,591.0 L 302.0,604.0 L 344.0,626.0 L 356.0,643.0"/>
    <path d="M 458.0,455.0 L 473.0,460.0 L 540.0,451.0 L 632.0,429.0 L 722.0,399.0 L 773.0,395.0"/>
    <path d="M 401.0,439.0 L 433.0,475.0 L 431.0,567.0 L 417.0,666.0 L 373.0,805.0 L 326.0,884.0 L 307.0,903.0"/>
    <path d="M 521.0,497.0 L 542.0,528.0 L 541.0,638.0 L 526.0,649.0"/>
    <path d="M 568.0,584.0 L 579.0,572.0 L 593.0,569.0 L 633.0,572.0"/>
    <path d="M 440.0,683.0 L 503.0,684.0 L 607.0,660.0 L 653.0,663.0"/>
    <path d="M 524.0,699.0 L 543.0,714.0 L 547.0,735.0 L 543.0,891.0 L 528.0,916.0 L 470.0,884.0"/>
    <path d="M 467.0,752.0 L 453.0,795.0 L 424.0,847.0"/>
    <path d="M 600.0,753.0 L 633.0,779.0 L 646.0,798.0"/>
    <path d="M 596.0,199.0 L 618.0,207.0 L 654.0,240.0 L 664.0,437.0 L 691.0,604.0 L 736.0,755.0 L 788.0,859.0 L 850.0,935.0 L 894.0,959.0 L 910.0,957.0 L 928.0,911.0 L 947.0,808.0"/>
    <path d="M 804.0,530.0 L 829.0,559.0 L 828.0,570.0 L 806.0,676.0 L 781.0,743.0 L 750.0,801.0 L 704.0,863.0 L 654.0,916.0 L 606.0,956.0"/>
    <path d="M 749.0,250.0 L 812.0,287.0 L 839.0,324.0"/>
  </g>
</svg>
