<svg xmlns="http://www.w3.org/2000/svg" viewBox="0 0 1024 1024">
  <g style="fill:none;stroke:#000000;stroke-width:50;stroke-linecap:round;stroke-linejoin:round;" transform="scale(1, 1) translate(0, 0)">
    <path d="M 87.0,483.0 L 134.0,485.0 L 288.0,438.0 L 337.0,432.0"/>
    <path d="M 210.0,191.0 L 262.0,244.0 L 250.0,751.0 L 235.0,923.0 L 236.0,1018.0"/>
    <path d="M 232.0,488.0 L 209.0,588.0 L 190.0,627.0 L 113.0,756.0 L 48.0,841.0"/>
    <path d="M 281.0,545.0 L 293.0,559.0 L 327.0,577.0 L 352.0,606.0"/>
    <path d="M 440.0,193.0 L 505.0,229.0 L 530.0,263.0"/>
    <path d="M 375.0,369.0 L 446.0,366.0 L 595.0,316.0 L 652.0,308.0"/>
    <path d="M 371.0,453.0 L 395.0,469.0 L 402.0,482.0 L 432.0,579.0"/>
    <path d="M 421.0,468.0 L 438.0,454.0 L 548.0,423.0 L 575.0,446.0 L 561.0,487.0 L 536.0,504.0"/>
    <path d="M 447.0,561.0 L 460.0,551.0 L 528.0,531.0 L 588.0,530.0"/>
    <path d="M 369.0,662.0 L 410.0,670.0 L 512.0,627.0 L 551.0,621.0 L 575.0,641.0 L 561.0,666.0 L 520.0,713.0"/>
    <path d="M 467.0,713.0 L 495.0,726.0 L 523.0,768.0 L 538.0,862.0 L 531.0,940.0 L 514.0,980.0 L 492.0,999.0 L 408.0,961.0"/>
    <path d="M 309.0,835.0 L 354.0,847.0 L 570.0,760.0 L 617.0,734.0"/>
    <path d="M 730.0,422.0 L 737.0,406.0 L 815.0,376.0 L 840.0,377.0 L 860.0,399.0 L 792.0,522.0 L 783.0,555.0 L 869.0,642.0 L 891.0,681.0 L 901.0,715.0 L 896.0,761.0 L 869.0,799.0 L 767.0,752.0"/>
    <path d="M 657.0,392.0 L 690.0,419.0 L 699.0,475.0 L 699.0,1092.0"/>
  </g>
</svg>
