<svg xmlns="http://www.w3.org/2000/svg" viewBox="0 0 1024 1024">
  <g style="fill:none;stroke:#000000;stroke-width:50;stroke-linecap:round;stroke-linejoin:round;" transform="scale(1, 1) translate(0, 0)">
    <path d="M 108.0,496.0 L 130.0,501.0 L 180.0,497.0 L 319.0,456.0 L 383.0,450.0"/>
    <path d="M 237.0,196.0 L 289.0,250.0 L 276.0,731.0 L 259.0,923.0 L 259.0,1021.0"/>
    <path d="M 254.0,509.0 L 233.0,601.0 L 218.0,633.0 L 166.0,720.0 L 76.0,827.0"/>
    <path d="M 303.0,594.0 L 314.0,597.0 L 317.0,608.0 L 364.0,638.0 L 385.0,670.0"/>
    <path d="M 408.0,393.0 L 458.0,398.0 L 594.0,369.0 L 780.0,344.0 L 814.0,345.0 L 859.0,357.0"/>
    <path d="M 472.0,265.0 L 492.0,272.0 L 512.0,291.0 L 523.0,350.0 L 537.0,513.0"/>
    <path d="M 684.0,183.0 L 716.0,225.0 L 680.0,423.0 L 675.0,435.0 L 662.0,443.0"/>
    <path d="M 553.0,489.0 L 653.0,468.0 L 693.0,466.0 L 712.0,473.0"/>
    <path d="M 415.0,589.0 L 446.0,607.0 L 454.0,622.0 L 491.0,734.0"/>
    <path d="M 479.0,584.0 L 492.0,594.0 L 525.0,583.0 L 742.0,546.0 L 772.0,546.0 L 799.0,582.0 L 777.0,619.0 L 747.0,633.0"/>
    <path d="M 504.0,689.0 L 526.0,696.0 L 735.0,664.0 L 786.0,664.0 L 806.0,671.0"/>
    <path d="M 480.0,797.0 L 527.0,795.0 L 709.0,760.0 L 733.0,758.0 L 754.0,764.0"/>
    <path d="M 486.0,888.0 L 518.0,890.0 L 704.0,862.0 L 749.0,869.0"/>
    <path d="M 572.0,496.0 L 609.0,527.0 L 614.0,557.0 L 610.0,924.0 L 609.0,939.0 L 594.0,957.0"/>
    <path d="M 351.0,995.0 L 408.0,1005.0 L 643.0,975.0 L 852.0,960.0 L 934.0,982.0"/>
  </g>
</svg>
