<svg xmlns="http://www.w3.org/2000/svg" viewBox="0 0 1024 1024">
  <g style="fill:none;stroke:#000000;stroke-width:50;stroke-linecap:round;stroke-linejoin:round;" transform="scale(1, 1) translate(0, 0)">
    <path d="M 486.0,177.0 L 511.0,199.0 L 474.0,290.0 L 475.0,301.0 L 464.0,310.0 L 466.0,326.0 L 455.0,331.0"/>
    <path d="M 398.0,345.0 L 416.0,362.0 L 424.0,391.0 L 430.0,495.0 L 426.0,563.0 L 432.0,603.0"/>
    <path d="M 439.0,352.0 L 453.0,357.0 L 521.0,337.0 L 545.0,342.0 L 563.0,359.0 L 558.0,391.0 L 563.0,539.0 L 550.0,587.0 L 549.0,626.0"/>
    <path d="M 451.0,474.0 L 472.0,460.0 L 513.0,464.0"/>
    <path d="M 454.0,590.0 L 462.0,579.0 L 507.0,573.0 L 527.0,564.0"/>
    <path d="M 258.0,255.0 L 271.0,263.0 L 286.0,293.0 L 204.0,463.0 L 200.0,495.0 L 236.0,496.0 L 277.0,483.0 L 290.0,472.0"/>
    <path d="M 329.0,387.0 L 348.0,417.0 L 318.0,475.0 L 225.0,620.0 L 219.0,649.0 L 240.0,650.0 L 301.0,629.0 L 327.0,623.0 L 332.0,627.0"/>
    <path d="M 333.0,576.0 L 359.0,616.0 L 371.0,647.0"/>
    <path d="M 695.0,227.0 L 718.0,265.0 L 649.0,401.0 L 636.0,440.0 L 681.0,441.0 L 720.0,434.0 L 742.0,420.0"/>
    <path d="M 781.0,351.0 L 797.0,383.0 L 747.0,453.0 L 671.0,541.0 L 665.0,573.0 L 690.0,579.0 L 780.0,556.0 L 785.0,561.0"/>
    <path d="M 776.0,499.0 L 825.0,572.0 L 829.0,598.0"/>
    <path d="M 112.0,767.0 L 164.0,776.0 L 375.0,744.0 L 799.0,701.0 L 840.0,703.0 L 899.0,720.0"/>
    <path d="M 466.0,649.0 L 491.0,675.0 L 497.0,698.0 L 486.0,1015.0 L 499.0,1094.0"/>
    <path d="M 464.0,759.0 L 400.0,840.0 L 298.0,922.0 L 227.0,966.0 L 112.0,1009.0"/>
    <path d="M 530.0,751.0 L 549.0,776.0 L 639.0,859.0 L 750.0,944.0 L 805.0,961.0 L 956.0,976.0"/>
  </g>
</svg>
