<svg xmlns="http://www.w3.org/2000/svg" viewBox="0 0 1024 1024">
  <g style="fill:none;stroke:#000000;stroke-width:50;stroke-linecap:round;stroke-linejoin:round;" transform="scale(1, 1) translate(0, 0)">
    <path d="M 176.0,431.0 L 226.0,436.0 L 351.0,403.0 L 407.0,401.0"/>
    <path d="M 273.0,244.0 L 291.0,255.0 L 314.0,282.0 L 296.0,518.0 L 292.0,649.0 L 297.0,677.0"/>
    <path d="M 280.0,452.0 L 263.0,503.0 L 236.0,539.0 L 136.0,643.0"/>
    <path d="M 318.0,505.0 L 372.0,530.0 L 392.0,552.0"/>
    <path d="M 530.0,237.0 L 549.0,262.0 L 525.0,313.0 L 496.0,358.0 L 411.0,440.0"/>
    <path d="M 414.0,297.0 L 538.0,370.0 L 561.0,406.0"/>
    <path d="M 520.0,444.0 L 533.0,467.0 L 500.0,530.0 L 460.0,581.0 L 414.0,620.0 L 400.0,622.0 L 398.0,629.0"/>
    <path d="M 415.0,496.0 L 525.0,565.0 L 547.0,588.0 L 558.0,611.0"/>
    <path d="M 601.0,395.0 L 673.0,399.0 L 804.0,365.0 L 859.0,365.0"/>
    <path d="M 671.0,183.0 L 696.0,200.0 L 714.0,223.0 L 698.0,486.0 L 695.0,588.0 L 701.0,636.0"/>
    <path d="M 679.0,424.0 L 665.0,474.0 L 623.0,536.0 L 584.0,580.0"/>
    <path d="M 722.0,479.0 L 817.0,534.0 L 849.0,572.0"/>
    <path d="M 128.0,779.0 L 166.0,789.0 L 186.0,788.0 L 464.0,749.0 L 806.0,717.0 L 847.0,719.0 L 907.0,736.0"/>
    <path d="M 452.0,658.0 L 486.0,684.0 L 487.0,711.0 L 463.0,812.0 L 419.0,895.0 L 363.0,951.0 L 300.0,990.0 L 230.0,1016.0 L 181.0,1025.0"/>
    <path d="M 504.0,774.0 L 511.0,792.0 L 598.0,881.0 L 692.0,965.0 L 739.0,999.0 L 807.0,1021.0 L 937.0,1042.0"/>
  </g>
</svg>
