<svg xmlns="http://www.w3.org/2000/svg" viewBox="0 0 1024 1024">
  <g style="fill:none;stroke:#000000;stroke-width:50;stroke-linecap:round;stroke-linejoin:round;" transform="scale(1, 1) translate(0, 0)">
    <path d="M 87.0,476.0 L 145.0,477.0 L 311.0,432.0 L 360.0,432.0"/>
    <path d="M 210.0,196.0 L 239.0,219.0 L 262.0,249.0 L 263.0,259.0 L 252.0,789.0 L 238.0,957.0 L 240.0,1026.0"/>
    <path d="M 235.0,489.0 L 210.0,596.0 L 196.0,624.0 L 130.0,725.0 L 76.0,787.0"/>
    <path d="M 280.0,552.0 L 344.0,598.0 L 365.0,630.0"/>
    <path d="M 493.0,237.0 L 564.0,242.0 L 680.0,211.0 L 741.0,211.0"/>
    <path d="M 413.0,333.0 L 428.0,361.0 L 406.0,455.0 L 412.0,495.0"/>
    <path d="M 455.0,377.0 L 565.0,347.0 L 718.0,319.0 L 821.0,307.0 L 836.0,313.0 L 860.0,337.0 L 806.0,401.0"/>
    <path d="M 581.0,267.0 L 609.0,287.0 L 603.0,565.0"/>
    <path d="M 481.0,422.0 L 532.0,448.0 L 545.0,463.0"/>
    <path d="M 465.0,514.0 L 515.0,540.0 L 534.0,560.0"/>
    <path d="M 685.0,387.0 L 754.0,419.0"/>
    <path d="M 676.0,477.0 L 732.0,504.0 L 752.0,523.0"/>
    <path d="M 488.0,627.0 L 543.0,630.0 L 670.0,600.0 L 712.0,601.0"/>
    <path d="M 373.0,740.0 L 419.0,747.0 L 595.0,713.0 L 831.0,684.0 L 871.0,688.0 L 909.0,700.0"/>
    <path d="M 529.0,750.0 L 549.0,769.0 L 527.0,818.0 L 531.0,838.0 L 566.0,842.0 L 708.0,813.0 L 733.0,824.0 L 750.0,843.0 L 744.0,881.0 L 725.0,932.0 L 701.0,973.0 L 663.0,1009.0 L 642.0,1015.0 L 567.0,949.0"/>
  </g>
</svg>
