<svg xmlns="http://www.w3.org/2000/svg" viewBox="0 0 1024 1024">
  <g style="fill:none;stroke:#000000;stroke-width:50;stroke-linecap:round;stroke-linejoin:round;" transform="scale(1, 1) translate(0, 0)">
    <path d="M 88.0,546.0 L 160.0,545.0 L 305.0,505.0 L 362.0,501.0"/>
    <path d="M 229.0,220.0 L 255.0,242.0 L 280.0,275.0 L 268.0,756.0 L 251.0,1053.0"/>
    <path d="M 248.0,554.0 L 240.0,559.0 L 226.0,627.0 L 169.0,727.0 L 115.0,803.0 L 44.0,885.0"/>
    <path d="M 294.0,626.0 L 360.0,683.0"/>
    <path d="M 434.0,337.0 L 455.0,353.0 L 469.0,384.0 L 504.0,532.0"/>
    <path d="M 476.0,337.0 L 493.0,345.0 L 686.0,304.0 L 738.0,307.0 L 765.0,339.0 L 713.0,501.0"/>
    <path d="M 392.0,449.0 L 438.0,448.0 L 694.0,405.0 L 837.0,388.0 L 895.0,390.0 L 928.0,399.0"/>
    <path d="M 517.0,519.0 L 527.0,511.0 L 691.0,477.0"/>
    <path d="M 408.0,596.0 L 435.0,617.0 L 441.0,629.0 L 468.0,734.0"/>
    <path d="M 463.0,602.0 L 474.0,609.0 L 563.0,596.0 L 724.0,560.0 L 743.0,568.0 L 761.0,593.0 L 739.0,630.0 L 712.0,643.0"/>
    <path d="M 483.0,713.0 L 497.0,702.0 L 684.0,674.0 L 747.0,672.0 L 766.0,677.0"/>
    <path d="M 559.0,163.0 L 594.0,189.0 L 607.0,213.0 L 595.0,632.0 L 591.0,656.0 L 578.0,670.0"/>
    <path d="M 562.0,711.0 L 578.0,726.0 L 584.0,752.0 L 517.0,896.0 L 536.0,909.0 L 613.0,936.0 L 722.0,988.0 L 767.0,1017.0 L 809.0,1061.0"/>
    <path d="M 705.0,740.0 L 724.0,777.0 L 718.0,798.0 L 656.0,901.0 L 615.0,947.0 L 572.0,982.0 L 529.0,1005.0 L 471.0,1026.0 L 405.0,1035.0"/>
    <path d="M 345.0,840.0 L 390.0,847.0 L 655.0,804.0 L 863.0,780.0 L 912.0,783.0 L 955.0,796.0"/>
  </g>
</svg>
