<svg xmlns="http://www.w3.org/2000/svg" viewBox="0 0 1024 1024">
  <g style="fill:none;stroke:#000000;stroke-width:50;stroke-linecap:round;stroke-linejoin:round;" transform="scale(1, 1) translate(0, 0)">
    <path d="M 115.0,532.0 L 138.0,536.0 L 186.0,530.0 L 329.0,482.0 L 376.0,479.0"/>
    <path d="M 233.0,224.0 L 278.0,267.0 L 285.0,278.0 L 286.0,306.0 L 279.0,413.0 L 273.0,793.0 L 257.0,954.0 L 259.0,1049.0"/>
    <path d="M 254.0,541.0 L 231.0,631.0 L 192.0,702.0 L 136.0,784.0 L 45.0,886.0"/>
    <path d="M 302.0,611.0 L 350.0,658.0 L 367.0,693.0"/>
    <path d="M 435.0,281.0 L 486.0,280.0 L 543.0,260.0 L 565.0,262.0 L 586.0,277.0 L 594.0,291.0 L 579.0,356.0 L 575.0,421.0 L 561.0,493.0"/>
    <path d="M 440.0,344.0 L 485.0,367.0 L 500.0,388.0"/>
    <path d="M 408.0,499.0 L 446.0,498.0 L 535.0,432.0"/>
    <path d="M 677.0,232.0 L 718.0,231.0 L 762.0,217.0 L 803.0,213.0 L 825.0,225.0 L 843.0,253.0 L 825.0,295.0 L 805.0,386.0 L 775.0,483.0"/>
    <path d="M 667.0,303.0 L 723.0,329.0 L 735.0,344.0"/>
    <path d="M 638.0,429.0 L 675.0,432.0 L 766.0,376.0"/>
    <path d="M 663.0,478.0 L 634.0,487.0 L 588.0,558.0 L 495.0,656.0 L 430.0,707.0 L 392.0,727.0"/>
    <path d="M 651.0,522.0 L 652.0,533.0 L 713.0,593.0 L 810.0,666.0 L 870.0,682.0 L 986.0,697.0"/>
    <path d="M 658.0,622.0 L 632.0,631.0 L 588.0,697.0 L 536.0,751.0 L 468.0,798.0"/>
    <path d="M 704.0,711.0 L 674.0,720.0 L 644.0,769.0 L 603.0,813.0 L 556.0,856.0 L 502.0,890.0"/>
    <path d="M 744.0,830.0 L 712.0,839.0 L 647.0,930.0 L 564.0,1014.0 L 495.0,1070.0 L 438.0,1102.0"/>
  </g>
</svg>
