<svg xmlns="http://www.w3.org/2000/svg" viewBox="0 0 1024 1024">
  <g style="fill:none;stroke:#000000;stroke-width:50;stroke-linecap:round;stroke-linejoin:round;" transform="scale(1, 1) translate(0, 0)">
    <path d="M 108.0,500.0 L 131.0,505.0 L 181.0,501.0 L 332.0,459.0 L 377.0,458.0"/>
    <path d="M 233.0,208.0 L 285.0,262.0 L 272.0,774.0 L 255.0,943.0 L 255.0,1041.0"/>
    <path d="M 249.0,515.0 L 230.0,600.0 L 193.0,671.0 L 154.0,734.0 L 57.0,851.0"/>
    <path d="M 300.0,611.0 L 314.0,631.0 L 353.0,663.0 L 367.0,693.0"/>
    <path d="M 604.0,198.0 L 625.0,212.0 L 645.0,236.0 L 638.0,441.0 L 623.0,458.0"/>
    <path d="M 476.0,327.0 L 524.0,379.0 L 541.0,415.0"/>
    <path d="M 801.0,268.0 L 815.0,300.0 L 697.0,403.0"/>
    <path d="M 436.0,465.0 L 447.0,496.0 L 414.0,574.0 L 410.0,625.0"/>
    <path d="M 469.0,515.0 L 486.0,505.0 L 680.0,466.0 L 835.0,445.0 L 869.0,463.0 L 879.0,480.0 L 810.0,557.0"/>
    <path d="M 496.0,600.0 L 528.0,631.0 L 560.0,750.0"/>
    <path d="M 554.0,604.0 L 562.0,611.0 L 710.0,578.0 L 729.0,580.0 L 758.0,607.0 L 736.0,663.0 L 715.0,677.0"/>
    <path d="M 578.0,732.0 L 586.0,723.0 L 706.0,703.0 L 762.0,711.0"/>
    <path d="M 503.0,845.0 L 576.0,852.0 L 673.0,835.0 L 712.0,822.0 L 780.0,822.0"/>
    <path d="M 606.0,740.0 L 631.0,758.0 L 640.0,774.0 L 638.0,936.0 L 621.0,957.0"/>
    <path d="M 386.0,995.0 L 438.0,1006.0 L 596.0,985.0 L 826.0,968.0 L 869.0,974.0 L 914.0,990.0"/>
  </g>
</svg>
