<svg xmlns="http://www.w3.org/2000/svg" viewBox="0 0 1024 1024">
  <g style="fill:none;stroke:#000000;stroke-width:50;stroke-linecap:round;stroke-linejoin:round;" transform="scale(1, 1) translate(0, 0)">
    <path d="M 79.0,496.0 L 154.0,495.0 L 308.0,450.0 L 358.0,447.0"/>
    <path d="M 243.0,204.0 L 284.0,243.0 L 294.0,267.0 L 279.0,606.0 L 278.0,764.0 L 259.0,941.0 L 260.0,1022.0"/>
    <path d="M 258.0,498.0 L 237.0,581.0 L 194.0,662.0 L 125.0,766.0 L 49.0,855.0"/>
    <path d="M 309.0,586.0 L 317.0,599.0 L 366.0,628.0 L 383.0,656.0"/>
    <path d="M 469.0,275.0 L 529.0,281.0 L 638.0,262.0 L 741.0,232.0 L 804.0,228.0"/>
    <path d="M 401.0,407.0 L 433.0,431.0 L 483.0,578.0"/>
    <path d="M 457.0,408.0 L 477.0,418.0 L 741.0,360.0 L 797.0,355.0 L 815.0,360.0 L 841.0,396.0 L 794.0,501.0 L 775.0,529.0 L 774.0,555.0"/>
    <path d="M 518.0,305.0 L 545.0,323.0 L 557.0,343.0 L 570.0,506.0 L 570.0,517.0 L 560.0,525.0"/>
    <path d="M 663.0,275.0 L 697.0,306.0 L 669.0,484.0 L 651.0,508.0"/>
    <path d="M 499.0,565.0 L 513.0,556.0 L 728.0,518.0 L 742.0,511.0"/>
    <path d="M 489.0,651.0 L 511.0,657.0 L 549.0,655.0 L 707.0,620.0 L 740.0,620.0"/>
    <path d="M 370.0,776.0 L 424.0,780.0 L 592.0,743.0 L 860.0,703.0 L 930.0,717.0"/>
    <path d="M 605.0,768.0 L 629.0,786.0 L 637.0,806.0 L 637.0,937.0 L 631.0,986.0 L 614.0,1015.0 L 532.0,974.0"/>
    <path d="M 471.0,842.0 L 454.0,898.0 L 419.0,957.0 L 410.0,985.0"/>
    <path d="M 750.0,832.0 L 852.0,904.0 L 871.0,931.0 L 883.0,962.0"/>
  </g>
</svg>
