<svg xmlns="http://www.w3.org/2000/svg" viewBox="0 0 1024 1024">
  <g style="fill:none;stroke:#000000;stroke-width:50;stroke-linecap:round;stroke-linejoin:round;" transform="scale(1, 1) translate(0, 0)">
    <path d="M 95.0,479.0 L 143.0,482.0 L 321.0,432.0 L 372.0,429.0"/>
    <path d="M 229.0,239.0 L 278.0,290.0 L 265.0,745.0 L 247.0,936.0 L 248.0,1020.0"/>
    <path d="M 244.0,485.0 L 226.0,583.0 L 185.0,671.0 L 117.0,786.0 L 59.0,859.0"/>
    <path d="M 292.0,595.0 L 350.0,628.0 L 375.0,659.0"/>
    <path d="M 472.0,221.0 L 539.0,265.0 L 551.0,287.0"/>
    <path d="M 709.0,161.0 L 725.0,192.0 L 621.0,290.0"/>
    <path d="M 465.0,357.0 L 505.0,363.0 L 531.0,360.0 L 628.0,343.0 L 705.0,322.0 L 763.0,319.0"/>
    <path d="M 455.0,454.0 L 477.0,459.0 L 516.0,456.0 L 711.0,418.0 L 758.0,423.0"/>
    <path d="M 583.0,375.0 L 606.0,394.0 L 602.0,496.0 L 587.0,518.0"/>
    <path d="M 416.0,561.0 L 460.0,566.0 L 563.0,544.0 L 742.0,517.0 L 775.0,516.0 L 827.0,527.0"/>
    <path d="M 547.0,583.0 L 606.0,607.0 L 628.0,629.0"/>
    <path d="M 481.0,707.0 L 517.0,707.0 L 578.0,687.0 L 593.0,693.0 L 614.0,714.0 L 613.0,979.0 L 606.0,1005.0 L 592.0,1026.0 L 502.0,994.0"/>
    <path d="M 353.0,802.0 L 395.0,806.0 L 468.0,787.0 L 487.0,788.0 L 507.0,800.0 L 490.0,845.0 L 441.0,919.0 L 408.0,955.0 L 338.0,1000.0"/>
    <path d="M 773.0,664.0 L 786.0,696.0 L 711.0,766.0 L 666.0,796.0"/>
    <path d="M 638.0,784.0 L 719.0,868.0 L 771.0,911.0 L 827.0,946.0 L 866.0,958.0 L 965.0,959.0"/>
  </g>
</svg>
