<svg xmlns="http://www.w3.org/2000/svg" viewBox="0 0 1024 1024">
  <g style="fill:none;stroke:#000000;stroke-width:50;stroke-linecap:round;stroke-linejoin:round;" transform="scale(1, 1) translate(0, 0)">
    <path d="M 99.0,515.0 L 119.0,519.0 L 175.0,513.0 L 314.0,474.0 L 356.0,473.0"/>
    <path d="M 226.0,203.0 L 272.0,249.0 L 278.0,267.0 L 266.0,759.0 L 251.0,923.0 L 252.0,1018.0"/>
    <path d="M 245.0,523.0 L 225.0,611.0 L 201.0,660.0 L 156.0,739.0 L 61.0,859.0"/>
    <path d="M 294.0,612.0 L 349.0,651.0 L 372.0,683.0"/>
    <path d="M 520.0,269.0 L 554.0,305.0 L 557.0,437.0 L 544.0,448.0"/>
    <path d="M 647.0,182.0 L 682.0,216.0 L 666.0,392.0 L 657.0,425.0 L 646.0,433.0"/>
    <path d="M 412.0,346.0 L 464.0,387.0 L 475.0,414.0"/>
    <path d="M 804.0,261.0 L 820.0,292.0 L 733.0,374.0"/>
    <path d="M 396.0,489.0 L 448.0,493.0 L 600.0,461.0 L 821.0,429.0 L 872.0,431.0 L 905.0,439.0"/>
    <path d="M 501.0,509.0 L 518.0,513.0 L 548.0,561.0"/>
    <path d="M 674.0,472.0 L 695.0,494.0 L 666.0,557.0 L 646.0,574.0"/>
    <path d="M 447.0,618.0 L 494.0,622.0 L 733.0,579.0 L 777.0,582.0"/>
    <path d="M 480.0,713.0 L 554.0,706.0 L 683.0,677.0 L 718.0,675.0 L 739.0,681.0"/>
    <path d="M 391.0,817.0 L 414.0,821.0 L 622.0,786.0 L 805.0,765.0 L 870.0,780.0"/>
    <path d="M 563.0,628.0 L 599.0,657.0 L 584.0,775.0 L 556.0,860.0 L 532.0,903.0 L 499.0,944.0 L 427.0,994.0 L 369.0,1014.0"/>
    <path d="M 608.0,813.0 L 704.0,918.0 L 792.0,994.0 L 941.0,1020.0"/>
  </g>
</svg>
