<svg xmlns="http://www.w3.org/2000/svg" viewBox="0 0 1024 1024">
  <g style="fill:none;stroke:#000000;stroke-width:50;stroke-linecap:round;stroke-linejoin:round;" transform="scale(1, 1) translate(0, 0)">
    <path d="M 99.0,536.0 L 172.0,536.0 L 315.0,492.0 L 378.0,487.0"/>
    <path d="M 237.0,243.0 L 286.0,294.0 L 276.0,730.0 L 259.0,963.0 L 261.0,1030.0"/>
    <path d="M 254.0,544.0 L 245.0,552.0 L 231.0,622.0 L 189.0,702.0 L 122.0,805.0 L 49.0,891.0"/>
    <path d="M 299.0,623.0 L 336.0,653.0 L 352.0,675.0"/>
    <path d="M 416.0,418.0 L 436.0,422.0 L 490.0,417.0 L 624.0,380.0 L 674.0,377.0"/>
    <path d="M 501.0,179.0 L 545.0,217.0 L 538.0,473.0 L 522.0,502.0"/>
    <path d="M 436.0,540.0 L 494.0,533.0 L 596.0,504.0 L 629.0,507.0"/>
    <path d="M 392.0,613.0 L 426.0,651.0 L 452.0,736.0"/>
    <path d="M 402.0,610.0 L 439.0,619.0 L 561.0,590.0 L 587.0,591.0 L 609.0,616.0 L 594.0,650.0 L 570.0,663.0"/>
    <path d="M 465.0,717.0 L 480.0,706.0 L 555.0,687.0 L 614.0,690.0"/>
    <path d="M 411.0,767.0 L 448.0,812.0 L 456.0,832.0"/>
    <path d="M 552.0,713.0 L 567.0,723.0 L 579.0,746.0 L 548.0,831.0 L 525.0,854.0"/>
    <path d="M 347.0,903.0 L 396.0,921.0 L 669.0,831.0"/>
    <path d="M 667.0,561.0 L 702.0,564.0 L 910.0,510.0 L 984.0,516.0"/>
    <path d="M 784.0,235.0 L 834.0,276.0 L 828.0,503.0 L 836.0,973.0 L 816.0,1019.0 L 790.0,1012.0 L 714.0,974.0 L 712.0,966.0 L 702.0,966.0"/>
    <path d="M 667.0,683.0 L 726.0,739.0 L 739.0,772.0"/>
  </g>
</svg>
