<svg xmlns="http://www.w3.org/2000/svg" viewBox="0 0 1024 1024">
  <g style="fill:none;stroke:#000000;stroke-width:50;stroke-linecap:round;stroke-linejoin:round;" transform="scale(1, 1) translate(0, 0)">
    <path d="M 87.0,514.0 L 152.0,511.0 L 322.0,459.0 L 360.0,458.0"/>
    <path d="M 225.0,199.0 L 265.0,238.0 L 274.0,261.0 L 257.0,822.0 L 243.0,946.0 L 245.0,1030.0"/>
    <path d="M 243.0,516.0 L 234.0,523.0 L 224.0,579.0 L 184.0,656.0 L 114.0,758.0 L 62.0,818.0"/>
    <path d="M 291.0,566.0 L 300.0,579.0 L 327.0,588.0 L 356.0,612.0"/>
    <path d="M 690.0,243.0 L 631.0,234.0 L 562.0,278.0 L 458.0,323.0 L 448.0,321.0 L 443.0,329.0 L 422.0,329.0 L 412.0,338.0"/>
    <path d="M 438.0,394.0 L 494.0,393.0 L 606.0,361.0 L 657.0,352.0 L 683.0,355.0"/>
    <path d="M 397.0,491.0 L 433.0,497.0 L 656.0,439.0 L 708.0,430.0 L 739.0,433.0"/>
    <path d="M 535.0,315.0 L 559.0,328.0 L 565.0,338.0 L 558.0,434.0 L 567.0,518.0 L 583.0,542.0 L 602.0,554.0 L 651.0,563.0 L 726.0,564.0 L 790.0,553.0 L 827.0,537.0 L 834.0,501.0 L 830.0,414.0"/>
    <path d="M 525.0,637.0 L 352.0,682.0"/>
    <path d="M 343.0,769.0 L 390.0,771.0 L 482.0,744.0 L 524.0,740.0"/>
    <path d="M 310.0,867.0 L 359.0,869.0 L 466.0,832.0 L 548.0,821.0"/>
    <path d="M 408.0,682.0 L 431.0,691.0 L 440.0,708.0 L 430.0,863.0 L 420.0,924.0 L 425.0,957.0 L 472.0,944.0 L 536.0,904.0"/>
    <path d="M 753.0,635.75 L 572.0,700.0"/>
    <path d="M 565.0,774.0 L 587.0,778.0 L 724.0,741.0 L 776.0,739.0"/>
    <path d="M 569.0,867.0 L 600.0,864.0 L 778.0,818.0 L 815.0,816.0 L 844.0,822.0"/>
    <path d="M 638.0,691.0 L 656.0,702.0 L 663.0,723.0 L 649.0,884.0 L 653.0,921.0 L 669.0,967.0 L 687.0,982.0 L 731.0,998.0 L 803.0,1002.0 L 870.0,992.0 L 901.0,979.0 L 926.0,956.0 L 930.0,853.0"/>
  </g>
</svg>
