<svg xmlns="http://www.w3.org/2000/svg" viewBox="0 0 1024 1024">
  <g style="fill:none;stroke:#000000;stroke-width:50;stroke-linecap:round;stroke-linejoin:round;" transform="scale(1, 1) translate(0, 0)">
    <path d="M 372.0,229.0 L 383.0,273.0 L 346.0,320.0 L 258.0,395.0 L 168.0,438.0"/>
    <path d="M 218.0,264.0 L 238.0,282.0 L 300.0,311.0 L 342.0,359.0 L 358.0,407.0 L 367.0,470.0 L 367.0,558.0 L 355.0,612.0 L 334.0,644.0 L 297.0,634.0 L 233.0,603.0"/>
    <path d="M 333.0,406.0 L 318.0,463.0 L 298.0,487.0 L 226.0,551.0 L 142.0,598.0"/>
    <path d="M 473.0,295.0 L 527.0,300.0 L 647.0,277.0 L 684.0,278.0"/>
    <path d="M 568.0,192.0 L 600.0,225.0 L 594.0,346.0 L 581.0,368.0"/>
    <path d="M 404.0,409.0 L 447.0,415.0 L 782.0,361.0 L 834.0,362.0 L 877.0,373.0"/>
    <path d="M 722.0,228.0 L 734.0,252.0 L 737.0,277.0 L 657.0,378.0 L 562.0,466.0 L 486.0,524.0 L 393.0,573.0"/>
    <path d="M 517.0,465.0 L 529.0,476.0 L 538.0,504.0 L 533.0,656.0"/>
    <path d="M 564.0,487.0 L 618.0,465.0 L 685.0,449.0 L 703.0,451.0 L 717.0,463.0 L 725.0,474.0 L 726.0,576.0 L 722.0,611.0 L 714.0,625.0 L 717.0,672.0"/>
    <path d="M 566.0,557.0 L 571.0,547.0 L 606.0,539.0 L 653.0,534.0 L 670.0,539.0"/>
    <path d="M 559.0,628.0 L 569.0,616.0 L 680.0,603.0"/>
    <path d="M 167.0,767.0 L 226.0,777.0 L 549.0,736.0 L 784.0,717.0 L 866.0,738.0"/>
    <path d="M 466.0,661.0 L 493.0,697.0 L 492.0,906.0 L 485.0,999.0 L 497.0,1075.0"/>
    <path d="M 462.0,770.0 L 396.0,848.0 L 300.0,926.0 L 236.0,962.0 L 158.0,992.0"/>
    <path d="M 522.0,763.0 L 622.0,862.0 L 735.0,952.0 L 808.0,970.0 L 918.0,985.0"/>
  </g>
</svg>
