<svg xmlns="http://www.w3.org/2000/svg" viewBox="0 0 1024 1024">
  <g style="fill:none;stroke:#000000;stroke-width:50;stroke-linecap:round;stroke-linejoin:round;" transform="scale(1, 1) translate(0, 0)">
    <path d="M 119.0,538.0 L 168.0,539.0 L 318.0,494.0 L 348.0,488.0 L 372.0,491.0"/>
    <path d="M 245.0,227.0 L 294.0,278.0 L 284.0,715.0 L 268.0,950.0 L 269.0,1026.0"/>
    <path d="M 260.0,543.0 L 240.0,632.0 L 207.0,699.0 L 155.0,785.0 L 77.0,883.0"/>
    <path d="M 316.0,580.0 L 321.0,594.0 L 352.0,613.0 L 368.0,638.0"/>
    <path d="M 476.0,326.0 L 498.0,357.0 L 426.0,515.0 L 428.0,524.0 L 443.0,526.0 L 498.0,520.0 L 507.0,513.0"/>
    <path d="M 540.0,455.0 L 552.0,481.0 L 503.0,559.0 L 454.0,622.0 L 450.0,650.0 L 477.0,649.0 L 509.0,633.0 L 549.0,623.0"/>
    <path d="M 544.0,575.0 L 584.0,622.0 L 592.0,640.0"/>
    <path d="M 746.0,257.0 L 762.0,276.0 L 766.0,294.0 L 709.0,410.0 L 699.0,446.0 L 762.0,445.0 L 780.0,436.0"/>
    <path d="M 829.0,350.0 L 843.0,382.0 L 794.0,453.0 L 737.0,519.0 L 728.0,533.0 L 726.0,555.0 L 756.0,558.0 L 828.0,535.0 L 836.0,541.0"/>
    <path d="M 825.0,495.0 L 870.0,539.0 L 880.0,568.0"/>
    <path d="M 381.0,760.0 L 427.0,762.0 L 633.0,708.0 L 748.0,671.0 L 787.0,663.0 L 825.0,666.0"/>
    <path d="M 498.0,768.0 L 520.0,786.0 L 497.0,842.0 L 439.0,928.0 L 395.0,972.0 L 380.0,974.0 L 378.0,984.0"/>
    <path d="M 543.0,814.0 L 600.0,860.0 L 616.0,885.0"/>
    <path d="M 538.0,184.0 L 570.0,198.0 L 596.0,222.0 L 612.0,412.0 L 654.0,621.0 L 700.0,764.0 L 765.0,893.0 L 830.0,977.0 L 879.0,1013.0 L 911.0,1021.0 L 929.0,984.0 L 949.0,873.0"/>
    <path d="M 828.0,725.0 L 844.0,764.0 L 775.0,857.0 L 693.0,928.0 L 637.0,964.0 L 599.0,980.0"/>
    <path d="M 858.0,614.0 L 914.0,662.0 L 932.0,687.0"/>
  </g>
</svg>
