<svg xmlns="http://www.w3.org/2000/svg" viewBox="0 0 1024 1024">
  <g style="fill:none;stroke:#000000;stroke-width:50;stroke-linecap:round;stroke-linejoin:round;" transform="scale(1, 1) translate(0, 0)">
    <path d="M 91.0,523.0 L 150.0,523.0 L 302.0,483.0 L 348.0,481.0"/>
    <path d="M 230.0,245.0 L 278.0,294.0 L 262.0,794.0 L 244.0,954.0 L 244.0,1040.0"/>
    <path d="M 245.0,530.0 L 237.0,536.0 L 223.0,607.0 L 183.0,690.0 L 118.0,794.0 L 63.0,866.0"/>
    <path d="M 287.0,598.0 L 336.0,647.0 L 345.0,667.0"/>
    <path d="M 471.0,384.0 L 515.0,392.0 L 615.0,377.0 L 751.0,342.0 L 804.0,340.0"/>
    <path d="M 419.0,372.0 L 446.0,395.0 L 453.0,417.0 L 450.0,519.0 L 428.0,666.0 L 409.0,738.0 L 366.0,842.0 L 313.0,926.0 L 296.0,942.0"/>
    <path d="M 491.0,541.0 L 537.0,544.0 L 610.0,524.0 L 648.0,524.0"/>
    <path d="M 462.0,648.0 L 478.0,674.0 L 501.0,776.0"/>
    <path d="M 489.0,645.0 L 505.0,651.0 L 585.0,626.0 L 605.0,633.0 L 616.0,645.0 L 613.0,658.0 L 602.0,701.0 L 586.0,708.0"/>
    <path d="M 515.0,762.0 L 523.0,753.0 L 573.0,737.0 L 626.0,736.0"/>
    <path d="M 457.0,827.0 L 492.0,870.0 L 502.0,893.0"/>
    <path d="M 598.0,781.0 L 616.0,810.0 L 588.0,883.0 L 575.0,899.0"/>
    <path d="M 406.0,950.0 L 452.0,964.0 L 599.0,912.0 L 649.0,886.0"/>
    <path d="M 674.0,632.0 L 729.0,634.0 L 896.0,597.0 L 932.0,602.0"/>
    <path d="M 773.0,440.0 L 799.0,454.0 L 819.0,479.0 L 815.0,587.0 L 830.0,951.0 L 813.0,991.0 L 697.0,941.0"/>
    <path d="M 672.0,738.0 L 728.0,783.0 L 743.0,813.0"/>
  </g>
</svg>
