<svg xmlns="http://www.w3.org/2000/svg" viewBox="0 0 1024 1024">
  <g style="fill:none;stroke:#000000;stroke-width:50;stroke-linecap:round;stroke-linejoin:round;" transform="scale(1, 1) translate(0, 0)">
    <path d="M 121.0,510.0 L 178.0,514.0 L 333.0,477.0 L 379.0,479.0"/>
    <path d="M 246.0,226.0 L 274.0,248.0 L 297.0,279.0 L 278.0,816.0 L 263.0,941.0 L 263.0,1030.0"/>
    <path d="M 262.0,527.0 L 254.0,531.0 L 236.0,611.0 L 193.0,689.0 L 132.0,779.0 L 65.0,854.0"/>
    <path d="M 317.0,577.0 L 330.0,601.0 L 368.0,643.0"/>
    <path d="M 568.0,176.0 L 584.0,197.0 L 584.0,223.0 L 515.0,314.0 L 440.0,377.0"/>
    <path d="M 558.0,298.0 L 665.0,274.0 L 701.0,286.0 L 632.0,387.0 L 612.0,400.0"/>
    <path d="M 427.0,433.0 L 454.0,455.0 L 462.0,474.0 L 496.0,626.0"/>
    <path d="M 488.0,459.0 L 496.0,445.0 L 549.0,432.0 L 738.0,398.0 L 781.0,402.0 L 801.0,421.0 L 809.0,438.0 L 751.0,603.0"/>
    <path d="M 538.0,520.0 L 564.0,520.0 L 670.0,498.0 L 708.0,502.0"/>
    <path d="M 605.0,446.0 L 626.0,461.0 L 622.0,556.0 L 607.0,578.0"/>
    <path d="M 514.0,618.0 L 522.0,611.0 L 680.0,589.0 L 718.0,588.0 L 727.0,597.0"/>
    <path d="M 358.0,707.0 L 410.0,719.0 L 611.0,685.0 L 874.0,659.0 L 951.0,680.0"/>
    <path d="M 475.0,770.0 L 497.0,795.0 L 503.0,819.0 L 504.0,916.0 L 494.0,989.0 L 496.0,1036.0"/>
    <path d="M 526.0,782.0 L 536.0,790.0 L 555.0,788.0 L 705.0,756.0 L 741.0,783.0 L 744.0,966.0 L 731.0,1005.0 L 733.0,1056.0"/>
    <path d="M 530.0,899.0 L 540.0,889.0 L 602.0,877.0 L 634.0,875.0 L 655.0,881.0"/>
    <path d="M 522.0,1008.0 L 536.0,994.0 L 559.0,989.0 L 652.0,974.0 L 697.0,973.0"/>
  </g>
</svg>
