<svg xmlns="http://www.w3.org/2000/svg" viewBox="0 0 1024 1024">
  <g style="fill:none;stroke:#000000;stroke-width:50;stroke-linecap:round;stroke-linejoin:round;" transform="scale(1, 1) translate(0, 0)">
    <path d="M 253.0,315.0 L 265.0,321.0 L 341.0,290.0 L 363.0,288.0 L 377.0,299.0 L 335.0,398.0 L 340.0,417.0 L 370.0,459.0 L 389.0,499.0 L 388.0,527.0 L 385.0,533.0 L 364.0,535.0 L 286.0,514.0"/>
    <path d="M 193.0,300.0 L 223.0,329.0 L 229.0,355.0 L 235.0,564.0 L 222.0,696.0 L 223.0,752.0"/>
    <path d="M 689.0,233.0 L 635.0,220.0 L 591.0,246.0 L 469.0,287.0"/>
    <path d="M 447.0,314.0 L 496.0,350.0 L 507.0,373.0"/>
    <path d="M 555.0,301.0 L 597.0,347.0"/>
    <path d="M 732.0,259.0 L 741.0,284.0 L 662.0,344.0"/>
    <path d="M 485.0,403.0 L 533.0,410.0 L 662.0,384.0 L 699.0,384.0"/>
    <path d="M 607.0,421.0 L 576.0,466.0"/>
    <path d="M 452.0,489.0 L 483.0,497.0 L 696.0,468.0 L 756.0,474.0"/>
    <path d="M 454.0,551.0 L 492.0,555.0 L 678.0,523.0 L 698.0,525.0 L 726.0,552.0 L 698.0,628.0 L 706.0,650.0"/>
    <path d="M 369.0,616.0 L 421.0,626.0 L 671.0,602.0 L 794.0,584.0 L 837.0,583.0 L 874.0,592.0"/>
    <path d="M 448.0,681.0 L 472.0,687.0 L 670.0,667.0 L 717.0,678.0"/>
    <path d="M 170.0,804.0 L 227.0,813.0 L 434.0,784.0 L 758.0,755.0 L 810.0,760.0 L 847.0,773.0"/>
    <path d="M 484.0,716.0 L 509.0,748.0 L 499.0,983.0 L 509.0,1048.0"/>
    <path d="M 477.0,804.0 L 422.0,868.0 L 337.0,932.0 L 275.0,965.0 L 189.0,993.0"/>
    <path d="M 539.0,799.0 L 616.0,876.0 L 712.0,950.0 L 763.0,966.0 L 895.0,979.0"/>
  </g>
</svg>
