<svg xmlns="http://www.w3.org/2000/svg" viewBox="0 0 1024 1024">
  <g style="fill:none;stroke:#000000;stroke-width:50;stroke-linecap:round;stroke-linejoin:round;" transform="scale(1, 1) translate(0, 0)">
    <path d="M 108.0,501.0 L 153.0,505.0 L 238.0,486.0 L 318.0,459.0 L 365.0,457.0"/>
    <path d="M 227.0,220.0 L 277.0,272.0 L 262.0,758.0 L 243.0,949.0 L 244.0,1030.0"/>
    <path d="M 244.0,514.0 L 221.0,607.0 L 197.0,652.0 L 150.0,728.0 L 53.0,843.0"/>
    <path d="M 298.0,573.0 L 299.0,584.0 L 349.0,632.0"/>
    <path d="M 563.0,209.0 L 588.0,245.0 L 534.0,355.0 L 458.0,454.0 L 418.0,493.0 L 373.0,528.0 L 358.0,531.0 L 355.0,539.0"/>
    <path d="M 605.0,291.0 L 610.0,308.0 L 624.0,315.0 L 629.0,326.0 L 681.0,374.0 L 766.0,444.0 L 819.0,478.0 L 886.0,492.0 L 970.0,500.0"/>
    <path d="M 546.0,401.0 L 606.0,429.0 L 622.0,452.0"/>
    <path d="M 466.0,534.0 L 514.0,534.0 L 664.0,494.0 L 711.0,495.0"/>
    <path d="M 604.0,530.0 L 620.0,553.0 L 607.0,577.0 L 565.0,630.0 L 502.0,675.0"/>
    <path d="M 509.0,574.0 L 635.0,618.0 L 667.0,644.0"/>
    <path d="M 424.0,591.0 L 445.0,621.0 L 437.0,718.0 L 474.0,718.0 L 643.0,678.0 L 689.0,675.0 L 700.0,683.0"/>
    <path d="M 724.0,545.0 L 749.0,581.0 L 726.0,666.0 L 721.0,711.0"/>
    <path d="M 363.0,797.0 L 383.0,818.0 L 396.0,853.0 L 394.0,985.0 L 403.0,1024.0"/>
    <path d="M 410.0,809.0 L 422.0,818.0 L 441.0,818.0 L 595.0,785.0 L 776.0,768.0 L 790.0,777.0 L 808.0,802.0 L 800.0,830.0 L 784.0,984.0 L 769.0,1010.0 L 684.0,975.0"/>
    <path d="M 558.0,717.0 L 581.0,733.0 L 582.0,749.0 L 515.0,891.0 L 509.0,924.0 L 545.0,923.0 L 643.0,890.0 L 652.0,894.0"/>
    <path d="M 636.0,839.0 L 688.0,897.0 L 699.0,928.0"/>
  </g>
</svg>
