<svg xmlns="http://www.w3.org/2000/svg" viewBox="0 0 1024 1024">
  <g style="fill:none;stroke:#000000;stroke-width:50;stroke-linecap:round;stroke-linejoin:round;" transform="scale(1, 1) translate(0, 0)">
    <path d="M 286.0,299.0 L 296.0,289.0 L 405.0,256.0 L 438.0,258.0 L 457.0,282.0 L 455.0,288.0 L 429.0,349.0 L 403.0,363.0"/>
    <path d="M 264.0,422.0 L 301.0,408.0 L 403.0,388.0 L 459.0,390.0"/>
    <path d="M 225.0,262.0 L 242.0,280.0 L 252.0,302.0 L 239.0,416.0 L 219.0,497.0 L 170.0,609.0 L 136.0,659.0 L 104.0,692.0"/>
    <path d="M 247.0,507.0 L 263.0,537.0 L 292.0,675.0"/>
    <path d="M 283.0,508.0 L 293.0,514.0 L 386.0,491.0 L 422.0,494.0 L 439.0,514.0 L 437.0,524.0 L 418.0,579.0 L 398.0,594.0"/>
    <path d="M 308.0,643.0 L 317.0,633.0 L 382.0,618.0 L 443.0,622.0"/>
    <path d="M 605.0,185.0 L 661.0,214.0 L 677.0,239.0"/>
    <path d="M 540.0,302.0 L 565.0,307.0 L 606.0,304.0 L 762.0,271.0 L 807.0,270.0"/>
    <path d="M 559.0,358.0 L 596.0,397.0 L 604.0,414.0"/>
    <path d="M 723.0,304.0 L 739.0,321.0 L 744.0,337.0 L 708.0,407.0 L 683.0,437.0"/>
    <path d="M 501.0,481.0 L 532.0,483.0 L 594.0,469.0 L 791.0,442.0 L 854.0,453.0"/>
    <path d="M 538.0,581.0 L 583.0,581.0 L 756.0,553.0 L 793.0,555.0 L 823.0,564.0"/>
    <path d="M 630.0,483.0 L 657.0,506.0 L 655.0,689.0"/>
    <path d="M 166.0,779.0 L 217.0,789.0 L 385.0,763.0 L 779.0,727.0 L 821.0,731.0 L 870.0,746.0"/>
    <path d="M 476.0,649.0 L 493.0,665.0 L 504.0,688.0 L 500.0,890.0 L 490.0,1005.0 L 502.0,1081.0"/>
    <path d="M 471.0,780.0 L 394.0,865.0 L 321.0,925.0 L 216.0,986.0 L 144.0,1013.0"/>
    <path d="M 536.0,770.0 L 559.0,782.0 L 671.0,875.0 L 768.0,939.0 L 827.0,949.0 L 959.0,956.0"/>
  </g>
</svg>
