<svg xmlns="http://www.w3.org/2000/svg" viewBox="0 0 1024 1024">
  <g style="fill:none;stroke:#000000;stroke-width:50;stroke-linecap:round;stroke-linejoin:round;" transform="scale(1, 1) translate(0, 0)">
    <path d="M 80.0,546.0 L 145.0,546.0 L 321.0,495.0 L 365.0,493.0"/>
    <path d="M 234.0,207.0 L 280.0,253.0 L 286.0,272.0 L 276.0,689.0 L 269.0,868.0 L 255.0,987.0 L 255.0,1074.0"/>
    <path d="M 257.0,547.0 L 248.0,552.0 L 233.0,625.0 L 180.0,721.0 L 99.0,835.0 L 48.0,893.0"/>
    <path d="M 300.0,659.0 L 364.0,709.0"/>
    <path d="M 556.0,187.0 L 578.0,208.0 L 589.0,229.0 L 556.0,309.0 L 461.0,464.0 L 391.0,556.0 L 358.0,587.0"/>
    <path d="M 617.0,272.0 L 615.0,280.0 L 718.0,375.0 L 823.0,451.0 L 988.0,476.0"/>
    <path d="M 500.0,461.0 L 545.0,463.0 L 646.0,439.0 L 680.0,439.0"/>
    <path d="M 397.0,580.0 L 417.0,592.0 L 428.0,614.0 L 468.0,756.0"/>
    <path d="M 438.0,577.0 L 454.0,585.0 L 718.0,529.0 L 770.0,531.0 L 784.0,539.0 L 800.0,562.0 L 751.0,699.0 L 751.0,722.0"/>
    <path d="M 575.0,573.0 L 594.0,598.0 L 594.0,679.0 L 579.0,689.0"/>
    <path d="M 493.0,624.0 L 527.0,658.0 L 533.0,673.0"/>
    <path d="M 708.0,607.0 L 689.0,605.0 L 635.0,664.0"/>
    <path d="M 484.0,737.0 L 490.0,730.0 L 706.0,694.0 L 718.0,687.0"/>
    <path d="M 456.0,800.0 L 478.0,826.0 L 481.0,845.0 L 484.0,954.0 L 477.0,1014.0 L 485.0,1064.0"/>
    <path d="M 503.0,835.0 L 529.0,821.0 L 589.0,812.0 L 673.0,787.0 L 696.0,789.0 L 711.0,801.0 L 724.0,818.0 L 722.0,1000.0 L 713.0,1034.0 L 702.0,1041.0 L 683.0,1034.0 L 647.0,1000.0 L 637.0,998.0"/>
    <path d="M 508.0,927.0 L 603.0,905.0 L 650.0,904.0"/>
    <path d="M 507.0,1036.0 L 518.0,1026.0 L 609.0,1013.0 L 620.0,1012.0 L 642.0,1023.0"/>
  </g>
</svg>
