<svg xmlns="http://www.w3.org/2000/svg" viewBox="0 0 1024 1024">
  <g style="fill:none;stroke:#000000;stroke-width:50;stroke-linecap:round;stroke-linejoin:round;" transform="scale(1, 1) translate(0, 0)">
    <path d="M 165.0,312.0 L 213.0,321.0 L 469.0,281.0 L 514.0,279.0 L 535.0,284.0"/>
    <path d="M 273.0,236.0 L 305.0,259.0 L 324.0,359.0"/>
    <path d="M 424.0,201.0 L 443.0,232.0 L 424.0,304.0 L 403.0,356.0"/>
    <path d="M 287.0,388.0 L 262.0,386.0 L 212.0,447.0 L 201.0,450.0 L 202.0,459.0"/>
    <path d="M 251.0,429.0 L 293.0,431.0 L 304.0,423.0 L 425.0,404.0 L 440.0,406.0 L 454.0,418.0 L 441.0,549.0 L 422.0,617.0 L 397.0,644.0 L 340.0,612.0"/>
    <path d="M 160.0,507.0 L 185.0,532.0 L 209.0,636.0"/>
    <path d="M 198.0,507.0 L 209.0,513.0 L 287.0,490.0 L 300.0,491.0 L 319.0,509.0 L 307.0,545.0 L 292.0,551.0"/>
    <path d="M 221.0,602.0 L 233.0,592.0 L 288.0,578.0 L 329.0,581.0"/>
    <path d="M 598.0,198.0 L 620.0,214.0 L 630.0,233.0 L 627.0,245.0 L 565.0,375.0 L 509.0,449.0"/>
    <path d="M 591.0,371.0 L 784.0,327.0 L 827.0,332.0"/>
    <path d="M 669.0,381.0 L 691.0,400.0 L 665.0,480.0 L 638.0,526.0 L 578.0,576.0 L 519.0,603.0"/>
    <path d="M 560.0,464.0 L 720.0,562.0 L 755.0,591.0 L 775.0,624.0"/>
    <path d="M 166.0,752.0 L 206.0,761.0 L 234.0,759.0 L 442.0,729.0 L 758.0,699.0 L 810.0,704.0 L 847.0,717.0"/>
    <path d="M 476.0,649.0 L 500.0,676.0 L 505.0,694.0 L 501.0,897.0 L 494.0,971.0 L 506.0,1049.0"/>
    <path d="M 471.0,750.0 L 409.0,830.0 L 348.0,884.0 L 277.0,932.0 L 178.0,972.0"/>
    <path d="M 535.0,746.0 L 609.0,823.0 L 730.0,918.0 L 803.0,935.0 L 875.0,944.0 L 892.0,941.0 L 915.0,948.0"/>
  </g>
</svg>
