<svg xmlns="http://www.w3.org/2000/svg" viewBox="0 0 1024 1024">
  <g style="fill:none;stroke:#000000;stroke-width:50;stroke-linecap:round;stroke-linejoin:round;" transform="scale(1, 1) translate(0, 0)">
    <path d="M 79.0,511.0 L 146.0,507.0 L 307.0,452.0 L 341.0,444.0 L 363.0,446.0"/>
    <path d="M 226.0,187.0 L 278.0,241.0 L 261.0,787.0 L 247.0,905.0 L 248.0,994.0"/>
    <path d="M 245.0,505.0 L 236.0,513.0 L 221.0,594.0 L 193.0,650.0 L 124.0,755.0 L 61.0,830.0"/>
    <path d="M 291.0,572.0 L 307.0,591.0 L 354.0,621.0 L 367.0,642.0 L 369.0,658.0"/>
    <path d="M 414.0,318.0 L 509.0,319.0 L 584.0,304.0 L 763.0,282.0 L 803.0,283.0 L 844.0,296.0"/>
    <path d="M 500.0,223.0 L 532.0,245.0 L 551.0,371.0"/>
    <path d="M 677.0,180.0 L 703.0,209.0 L 685.0,284.0 L 658.0,361.0"/>
    <path d="M 429.0,400.0 L 441.0,429.0 L 440.0,442.0 L 417.0,505.0 L 413.0,541.0"/>
    <path d="M 467.0,424.0 L 478.0,433.0 L 489.0,432.0 L 709.0,387.0 L 785.0,383.0 L 814.0,398.0 L 824.0,413.0 L 769.0,483.0"/>
    <path d="M 507.0,498.0 L 530.0,503.0 L 572.0,499.0 L 658.0,473.0 L 705.0,470.0"/>
    <path d="M 439.0,593.0 L 495.0,594.0 L 692.0,552.0 L 729.0,556.0"/>
    <path d="M 535.0,609.0 L 550.0,627.0 L 510.0,669.0 L 462.0,705.0 L 415.0,730.0"/>
    <path d="M 537.0,674.0 L 554.0,673.0 L 568.0,681.0 L 629.0,731.0 L 664.0,802.0 L 668.0,898.0 L 652.0,969.0 L 624.0,1010.0 L 504.0,967.0"/>
    <path d="M 558.0,694.0 L 562.0,724.0 L 543.0,745.0 L 463.0,807.0 L 423.0,828.0 L 411.0,827.0 L 407.0,834.0"/>
    <path d="M 612.0,748.0 L 610.0,787.0 L 536.0,867.0 L 472.0,917.0 L 385.0,962.0"/>
    <path d="M 747.0,599.0 L 766.0,630.0 L 687.0,714.0 L 673.0,727.0 L 665.0,726.0"/>
    <path d="M 658.0,734.0 L 700.0,784.0 L 823.0,879.0 L 858.0,890.0 L 988.0,903.0"/>
  </g>
</svg>
