<svg xmlns="http://www.w3.org/2000/svg" viewBox="0 0 1024 1024">
  <g style="fill:none;stroke:#000000;stroke-width:50;stroke-linecap:round;stroke-linejoin:round;" transform="scale(1, 1) translate(0, 0)">
    <path d="M 91.0,526.0 L 151.0,523.0 L 311.0,469.0 L 348.0,461.0 L 373.0,463.0"/>
    <path d="M 231.0,220.0 L 272.0,260.0 L 282.0,282.0 L 267.0,705.0 L 249.0,947.0 L 248.0,1034.0"/>
    <path d="M 246.0,524.0 L 226.0,609.0 L 208.0,643.0 L 143.0,746.0 L 56.0,853.0"/>
    <path d="M 294.0,569.0 L 345.0,614.0 L 363.0,650.0"/>
    <path d="M 485.0,311.0 L 539.0,317.0 L 658.0,296.0 L 714.0,279.0 L 761.0,280.0"/>
    <path d="M 589.0,167.0 L 626.0,201.0 L 625.0,355.0 L 610.0,374.0"/>
    <path d="M 505.0,416.0 L 534.0,416.0 L 691.0,381.0 L 720.0,379.0 L 743.0,386.0"/>
    <path d="M 478.0,478.0 L 502.0,495.0 L 511.0,509.0 L 535.0,587.0"/>
    <path d="M 521.0,475.0 L 530.0,482.0 L 549.0,482.0 L 705.0,447.0 L 724.0,456.0 L 735.0,475.0 L 717.0,508.0 L 697.0,515.0"/>
    <path d="M 550.0,558.0 L 559.0,565.0 L 688.0,542.0 L 732.0,551.0"/>
    <path d="M 399.0,614.0 L 410.0,641.0 L 407.0,664.0 L 381.0,727.0 L 378.0,755.0"/>
    <path d="M 438.0,636.0 L 451.0,652.0 L 471.0,651.0 L 623.0,616.0 L 794.0,590.0 L 839.0,597.0 L 862.0,627.0 L 792.0,699.0"/>
    <path d="M 496.0,694.0 L 534.0,700.0 L 675.0,671.0 L 720.0,670.0"/>
    <path d="M 594.0,738.0 L 580.0,736.0 L 561.0,746.0 L 514.0,797.0 L 501.0,820.0 L 529.0,826.0 L 660.0,793.0 L 706.0,785.0 L 723.0,789.0"/>
    <path d="M 692.0,734.0 L 757.0,786.0 L 768.0,812.0"/>
    <path d="M 497.0,911.0 L 507.0,916.0 L 559.0,917.0 L 692.0,887.0 L 732.0,888.0"/>
    <path d="M 581.0,831.0 L 603.0,844.0 L 612.0,860.0 L 609.0,968.0 L 594.0,984.0"/>
    <path d="M 374.0,1024.0 L 427.0,1033.0 L 794.0,994.0 L 839.0,998.0 L 883.0,1012.0"/>
  </g>
</svg>
