<svg xmlns="http://www.w3.org/2000/svg" viewBox="0 0 1024 1024">
  <g style="fill:none;stroke:#000000;stroke-width:50;stroke-linecap:round;stroke-linejoin:round;" transform="scale(1, 1) translate(0, 0)">
    <path d="M 99.0,518.0 L 165.0,517.0 L 326.0,466.0 L 381.0,461.0"/>
    <path d="M 231.0,200.0 L 281.0,253.0 L 265.0,755.0 L 247.0,929.0 L 248.0,1010.0"/>
    <path d="M 248.0,524.0 L 239.0,530.0 L 226.0,600.0 L 182.0,684.0 L 109.0,792.0 L 56.0,851.0"/>
    <path d="M 294.0,581.0 L 353.0,621.0 L 371.0,648.0"/>
    <path d="M 493.0,311.0 L 548.0,315.0 L 631.0,300.0 L 722.0,274.0 L 772.0,272.0"/>
    <path d="M 603.0,166.0 L 639.0,200.0 L 634.0,347.0 L 619.0,373.0"/>
    <path d="M 528.0,409.0 L 714.0,378.0 L 744.0,383.0"/>
    <path d="M 415.0,498.0 L 439.0,505.0 L 461.0,503.0 L 549.0,478.0 L 679.0,453.0 L 779.0,438.0 L 821.0,441.0 L 846.0,471.0 L 780.0,537.0"/>
    <path d="M 519.0,557.0 L 683.0,527.0 L 704.0,532.0"/>
    <path d="M 631.0,561.0 L 615.0,579.0 L 616.0,597.0 L 600.0,618.0"/>
    <path d="M 487.0,651.0 L 564.0,644.0 L 719.0,614.0 L 762.0,618.0"/>
    <path d="M 361.0,736.0 L 414.0,741.0 L 559.0,707.0 L 848.0,662.0 L 882.0,662.0 L 930.0,676.0"/>
    <path d="M 376.0,817.0 L 404.0,843.0 L 432.0,948.0"/>
    <path d="M 418.0,818.0 L 442.0,820.0 L 499.0,802.0 L 532.0,802.0 L 545.0,820.0 L 529.0,868.0 L 516.0,872.0"/>
    <path d="M 444.0,926.0 L 463.0,914.0 L 512.0,903.0 L 556.0,906.0"/>
    <path d="M 612.0,809.0 L 647.0,809.0 L 837.0,774.0 L 881.0,770.0 L 903.0,776.0"/>
    <path d="M 730.0,719.0 L 769.0,761.0 L 764.0,822.0 L 769.0,934.0 L 761.0,989.0 L 749.0,1007.0 L 742.0,1006.0 L 657.0,966.0"/>
    <path d="M 605.0,849.0 L 669.0,886.0 L 682.0,908.0"/>
  </g>
</svg>
