<svg xmlns="http://www.w3.org/2000/svg" viewBox="0 0 1024 1024">
  <g style="fill:none;stroke:#000000;stroke-width:50;stroke-linecap:round;stroke-linejoin:round;" transform="scale(1, 1) translate(0, 0)">
    <path d="M 83.0,522.0 L 155.0,518.0 L 303.0,471.0 L 357.0,465.0"/>
    <path d="M 222.0,187.0 L 274.0,241.0 L 261.0,813.0 L 246.0,958.0 L 248.0,1046.0"/>
    <path d="M 244.0,522.0 L 235.0,530.0 L 221.0,599.0 L 183.0,671.0 L 142.0,738.0 L 45.0,855.0"/>
    <path d="M 287.0,585.0 L 308.0,608.0 L 337.0,626.0 L 360.0,663.0"/>
    <path d="M 565.0,167.0 L 639.0,199.0 L 673.0,235.0"/>
    <path d="M 426.0,302.0 L 438.0,330.0 L 438.0,352.0 L 417.0,406.0 L 413.0,442.0"/>
    <path d="M 466.0,331.0 L 491.0,339.0 L 617.0,308.0 L 776.0,281.0 L 812.0,280.0 L 843.0,296.0 L 852.0,317.0 L 788.0,390.0"/>
    <path d="M 506.0,425.0 L 570.0,423.0 L 656.0,392.0 L 708.0,388.0"/>
    <path d="M 590.0,441.0 L 612.0,458.0 L 615.0,473.0 L 612.0,524.0 L 598.0,560.0"/>
    <path d="M 481.0,474.0 L 467.0,525.0 L 437.0,588.0"/>
    <path d="M 775.0,465.0 L 730.0,463.0 L 635.0,563.0 L 470.0,702.0 L 366.0,769.0 L 318.0,789.0"/>
    <path d="M 554.0,666.0 L 537.0,695.0 L 528.0,890.0"/>
    <path d="M 511.0,600.0 L 533.0,621.0 L 738.0,578.0 L 772.0,601.0 L 782.0,614.0 L 778.0,700.0 L 784.0,811.0 L 779.0,892.0"/>
    <path d="M 560.0,706.0 L 574.0,694.0 L 645.0,679.0 L 685.0,675.0 L 707.0,682.0"/>
    <path d="M 561.0,790.0 L 573.0,779.0 L 643.0,764.0 L 684.0,759.0 L 715.0,766.0"/>
    <path d="M 547.0,877.0 L 573.0,862.0 L 712.0,841.0 L 729.0,841.0 L 738.0,855.0"/>
    <path d="M 614.0,942.0 L 584.0,945.0 L 550.0,985.0 L 501.0,1027.0 L 448.0,1063.0 L 410.0,1079.0"/>
    <path d="M 706.0,924.0 L 819.0,1016.0 L 840.0,1045.0 L 850.0,1080.0"/>
  </g>
</svg>
