<svg xmlns="http://www.w3.org/2000/svg" viewBox="0 0 1024 1024">
  <g style="fill:none;stroke:#000000;stroke-width:50;stroke-linecap:round;stroke-linejoin:round;" transform="scale(1, 1) translate(0, 0)">
    <path d="M 79.0,522.0 L 109.0,526.0 L 158.0,520.0 L 320.0,476.0 L 361.0,474.0"/>
    <path d="M 238.0,193.0 L 263.0,213.0 L 284.0,242.0 L 267.0,753.0 L 248.0,927.0 L 248.0,1012.0"/>
    <path d="M 250.0,522.0 L 221.0,594.0 L 159.0,697.0 L 56.0,821.0"/>
    <path d="M 292.0,604.0 L 339.0,653.0 L 349.0,671.0"/>
    <path d="M 376.0,339.0 L 409.0,378.0 L 415.0,436.0 L 412.0,770.0 L 397.0,904.0 L 404.0,971.0"/>
    <path d="M 426.0,353.0 L 441.0,356.0 L 524.0,332.0 L 551.0,355.0 L 538.0,511.0 L 529.0,533.0 L 514.0,527.0"/>
    <path d="M 438.0,468.0 L 446.0,456.0 L 457.0,452.0 L 491.0,450.0"/>
    <path d="M 433.0,554.0 L 444.0,542.0 L 489.0,534.0 L 502.0,544.0"/>
    <path d="M 655.0,273.0 L 672.0,289.0 L 687.0,317.0 L 694.0,467.0 L 702.0,501.0"/>
    <path d="M 694.0,282.0 L 718.0,293.0 L 820.0,272.0 L 838.0,279.0 L 864.0,303.0 L 861.0,403.0 L 873.0,784.0 L 871.0,957.0 L 860.0,988.0 L 851.0,997.0 L 758.0,956.0"/>
    <path d="M 718.0,392.0 L 722.0,382.0 L 762.0,375.0 L 789.0,377.0"/>
    <path d="M 722.0,488.0 L 732.0,477.0 L 754.0,473.0 L 811.0,466.0 L 835.0,472.0"/>
    <path d="M 503.0,611.0 L 528.0,630.0 L 556.0,716.0"/>
    <path d="M 550.0,623.0 L 571.0,612.0 L 669.0,594.0 L 688.0,614.0 L 677.0,642.0 L 658.0,653.0"/>
    <path d="M 566.0,683.0 L 574.0,689.0 L 650.0,675.0 L 693.0,679.0"/>
    <path d="M 491.0,784.0 L 511.0,799.0 L 519.0,814.0 L 541.0,907.0"/>
    <path d="M 535.0,788.0 L 558.0,790.0 L 676.0,762.0 L 687.0,764.0 L 708.0,775.0 L 719.0,791.0 L 699.0,834.0 L 682.0,844.0"/>
    <path d="M 558.0,893.0 L 571.0,883.0 L 663.0,867.0 L 720.0,873.0"/>
  </g>
</svg>
