<svg xmlns="http://www.w3.org/2000/svg" viewBox="0 0 1024 1024">
  <g style="fill:none;stroke:#000000;stroke-width:50;stroke-linecap:round;stroke-linejoin:round;" transform="scale(1, 1) translate(0, 0)">
    <path d="M 211.0,320.0 L 265.0,324.0 L 426.0,294.0 L 484.0,297.0"/>
    <path d="M 348.0,353.0 L 320.0,361.0 L 261.0,420.0 L 176.0,469.0"/>
    <path d="M 305.0,412.0 L 320.0,412.0 L 342.0,425.0 L 381.0,461.0 L 403.0,505.0 L 409.0,569.0 L 400.0,628.0 L 373.0,672.0 L 292.0,645.0"/>
    <path d="M 347.0,452.0 L 324.0,454.0 L 260.0,510.0 L 211.0,537.0 L 194.0,537.0 L 191.0,543.0"/>
    <path d="M 363.0,473.0 L 360.0,510.0 L 324.0,549.0 L 265.0,599.0 L 181.0,643.0"/>
    <path d="M 488.0,387.0 L 460.0,381.0 L 395.0,448.0"/>
    <path d="M 410.0,473.0 L 461.0,502.0 L 486.0,537.0"/>
    <path d="M 531.0,322.0 L 581.0,325.0 L 685.0,295.0 L 725.0,294.0"/>
    <path d="M 607.0,211.0 L 639.0,240.0 L 631.0,374.0 L 627.0,389.0 L 617.0,398.0"/>
    <path d="M 489.0,440.0 L 531.0,439.0 L 668.0,406.0 L 786.0,386.0 L 823.0,385.0 L 866.0,393.0"/>
    <path d="M 828.0,288.0 L 789.0,291.0 L 694.0,400.0 L 594.0,495.0 L 514.0,560.0 L 445.0,597.0"/>
    <path d="M 559.0,482.0 L 574.0,497.0 L 581.0,516.0 L 582.0,597.0 L 575.0,677.0"/>
    <path d="M 604.0,508.0 L 649.0,490.0 L 739.0,467.0 L 765.0,483.0 L 773.0,494.0 L 776.0,593.0 L 776.0,631.0 L 766.0,660.0 L 769.0,703.0"/>
    <path d="M 602.0,582.0 L 613.0,573.0 L 671.0,560.0 L 717.0,563.0"/>
    <path d="M 597.0,656.0 L 610.0,646.0 L 633.0,641.0 L 738.0,631.0"/>
    <path d="M 182.0,808.0 L 239.0,817.0 L 547.0,776.0 L 791.0,758.0 L 863.0,777.0"/>
    <path d="M 486.0,688.0 L 512.0,724.0 L 500.0,987.0 L 510.0,1066.0"/>
    <path d="M 478.0,807.0 L 400.0,892.0 L 298.0,966.0 L 217.0,1005.0 L 177.0,1017.0"/>
    <path d="M 542.0,802.0 L 570.0,835.0 L 638.0,895.0 L 745.0,972.0 L 795.0,987.0 L 924.0,1002.0"/>
  </g>
</svg>
