<svg xmlns="http://www.w3.org/2000/svg" viewBox="0 0 1024 1024">
  <g style="fill:none;stroke:#000000;stroke-width:50;stroke-linecap:round;stroke-linejoin:round;" transform="scale(1, 1) translate(0, 0)">
    <path d="M 83.0,503.0 L 145.0,504.0 L 318.0,454.0 L 361.0,453.0"/>
    <path d="M 228.0,207.0 L 257.0,231.0 L 280.0,262.0 L 262.0,753.0 L 244.0,925.0 L 243.0,1014.0"/>
    <path d="M 245.0,507.0 L 221.0,610.0 L 197.0,659.0 L 132.0,766.0 L 64.0,851.0"/>
    <path d="M 295.0,579.0 L 349.0,624.0"/>
    <path d="M 397.0,268.0 L 414.0,289.0 L 420.0,312.0 L 416.0,507.0 L 422.0,542.0"/>
    <path d="M 432.0,275.0 L 449.0,279.0 L 534.0,249.0 L 550.0,254.0 L 570.0,276.0 L 564.0,343.0 L 567.0,459.0 L 558.0,548.0"/>
    <path d="M 443.0,375.0 L 448.0,364.0 L 463.0,359.0 L 515.0,352.0"/>
    <path d="M 444.0,451.0 L 449.0,439.0 L 511.0,432.0"/>
    <path d="M 441.0,534.0 L 448.0,522.0 L 532.0,500.0"/>
    <path d="M 449.0,557.0 L 462.0,581.0 L 445.0,609.0 L 388.0,674.0 L 367.0,686.0"/>
    <path d="M 518.0,579.0 L 554.0,620.0"/>
    <path d="M 645.0,224.0 L 666.0,257.0 L 665.0,512.0"/>
    <path d="M 684.0,231.0 L 692.0,238.0 L 712.0,238.0 L 719.0,231.0 L 801.0,211.0 L 816.0,215.0 L 839.0,239.0 L 833.0,329.0 L 840.0,464.0 L 834.0,524.0"/>
    <path d="M 686.0,343.0 L 696.0,332.0 L 724.0,322.0 L 771.0,319.0"/>
    <path d="M 691.0,420.0 L 697.0,409.0 L 716.0,403.0 L 766.0,395.0 L 782.0,399.0"/>
    <path d="M 687.0,500.0 L 723.0,484.0 L 787.0,476.0 L 809.0,466.0"/>
    <path d="M 672.0,523.0 L 681.0,526.0 L 690.0,543.0 L 655.0,601.0 L 616.0,638.0"/>
    <path d="M 774.0,554.0 L 841.0,608.0 L 851.0,634.0"/>
    <path d="M 555.0,655.0 L 570.0,672.0 L 578.0,698.0 L 504.0,834.0 L 534.0,855.0 L 668.0,913.0 L 740.0,956.0 L 778.0,983.0 L 824.0,1035.0"/>
    <path d="M 694.0,676.0 L 716.0,707.0 L 714.0,734.0 L 656.0,855.0 L 627.0,893.0 L 587.0,933.0 L 531.0,969.0 L 470.0,995.0 L 420.0,1005.0"/>
    <path d="M 344.0,752.0 L 396.0,760.0 L 635.0,723.0 L 839.0,704.0 L 912.0,707.0 L 946.0,722.0"/>
  </g>
</svg>
