<svg xmlns="http://www.w3.org/2000/svg" viewBox="0 0 1024 1024">
  <g style="fill:none;stroke:#000000;stroke-width:50;stroke-linecap:round;stroke-linejoin:round;" transform="scale(1, 1) translate(0, 0)">
    <path d="M 75.0,511.0 L 144.0,509.0 L 295.0,466.0 L 337.0,465.0"/>
    <path d="M 214.0,202.0 L 262.0,251.0 L 246.0,743.0 L 228.0,948.0 L 229.0,1027.0"/>
    <path d="M 228.0,516.0 L 207.0,617.0 L 195.0,645.0 L 147.0,739.0 L 56.0,863.0"/>
    <path d="M 272.0,612.0 L 320.0,646.0 L 337.0,671.0"/>
    <path d="M 359.0,292.0 L 390.0,332.0 L 396.0,407.0 L 394.0,632.0 L 385.0,784.0 L 369.0,909.0 L 373.0,977.0"/>
    <path d="M 417.0,308.0 L 426.0,313.0 L 528.0,283.0 L 554.0,307.0 L 531.0,482.0 L 525.0,496.0 L 512.0,497.0"/>
    <path d="M 421.0,422.0 L 428.0,408.0 L 461.0,398.0 L 491.0,399.0"/>
    <path d="M 421.0,509.0 L 424.0,500.0 L 504.0,479.0"/>
    <path d="M 631.0,233.0 L 657.0,263.0 L 662.0,282.0 L 665.0,421.0 L 676.0,481.0"/>
    <path d="M 686.0,275.0 L 704.0,260.0 L 807.0,237.0 L 847.0,268.0 L 861.0,845.0 L 858.0,984.0 L 840.0,1017.0 L 810.0,1009.0 L 734.0,968.0"/>
    <path d="M 686.0,364.0 L 698.0,353.0 L 719.0,347.0 L 773.0,348.0"/>
    <path d="M 692.0,464.0 L 702.0,454.0 L 781.0,438.0 L 798.0,437.0 L 825.0,448.0"/>
    <path d="M 518.0,586.0 L 556.0,586.0 L 673.0,560.0 L 697.0,564.0"/>
    <path d="M 444.0,655.0 L 470.0,684.0 L 497.0,804.0"/>
    <path d="M 482.0,659.0 L 505.0,664.0 L 676.0,622.0 L 712.0,620.0 L 729.0,625.0 L 745.0,645.0 L 706.0,774.0"/>
    <path d="M 535.0,703.0 L 563.0,737.0"/>
    <path d="M 687.0,691.0 L 670.0,688.0 L 643.0,718.0 L 633.0,719.0 L 633.0,728.0"/>
    <path d="M 511.0,797.0 L 529.0,788.0 L 679.0,761.0 L 687.0,755.0"/>
    <path d="M 581.0,523.0 L 604.0,550.0 L 605.0,561.0 L 598.0,956.0 L 609.0,1017.0"/>
    <path d="M 580.0,798.0 L 569.0,827.0 L 509.0,898.0 L 450.0,942.0"/>
    <path d="M 656.0,836.0 L 719.0,871.0 L 749.0,908.0"/>
  </g>
</svg>
