<svg xmlns="http://www.w3.org/2000/svg" viewBox="0 0 1024 1024">
  <g style="fill:none;stroke:#000000;stroke-width:50;stroke-linecap:round;stroke-linejoin:round;" transform="scale(1, 1) translate(0, 0)">
    <path d="M 87.0,507.0 L 110.0,511.0 L 160.0,503.0 L 300.0,458.0 L 349.0,453.0"/>
    <path d="M 227.0,196.0 L 272.0,241.0 L 278.0,260.0 L 269.0,399.0 L 261.0,758.0 L 243.0,933.0 L 244.0,1018.0"/>
    <path d="M 241.0,506.0 L 219.0,599.0 L 189.0,655.0 L 118.0,760.0 L 52.0,835.0"/>
    <path d="M 301.0,581.0 L 340.0,600.0 L 372.0,634.0"/>
    <path d="M 509.0,224.0 L 529.0,232.0 L 546.0,250.0 L 576.0,378.0"/>
    <path d="M 387.0,335.0 L 438.0,346.0 L 611.0,299.0"/>
    <path d="M 685.0,167.0 L 700.0,174.0 L 719.0,201.0 L 690.0,314.0 L 670.0,362.0"/>
    <path d="M 720.0,306.0 L 731.0,298.0 L 818.0,286.0 L 874.0,297.0"/>
    <path d="M 413.0,444.0 L 438.0,468.0 L 461.0,560.0"/>
    <path d="M 444.0,445.0 L 468.0,446.0 L 530.0,426.0 L 559.0,424.0 L 576.0,441.0 L 564.0,484.0 L 551.0,495.0"/>
    <path d="M 477.0,542.0 L 483.0,535.0 L 539.0,519.0 L 593.0,519.0"/>
    <path d="M 651.0,399.0 L 678.0,427.0 L 697.0,522.0"/>
    <path d="M 695.0,402.0 L 706.0,408.0 L 799.0,385.0 L 817.0,390.0 L 830.0,407.0 L 812.0,451.0 L 798.0,456.0"/>
    <path d="M 715.0,504.0 L 719.0,497.0 L 784.0,483.0 L 837.0,487.0"/>
    <path d="M 490.0,550.0 L 512.0,568.0 L 518.0,584.0 L 488.0,641.0 L 399.0,751.0 L 344.0,796.0"/>
    <path d="M 480.0,695.0 L 484.0,722.0 L 499.0,757.0 L 496.0,915.0 L 484.0,1027.0 L 491.0,1075.0"/>
    <path d="M 624.0,526.0 L 675.0,564.0 L 686.0,588.0"/>
    <path d="M 559.0,646.0 L 582.0,651.0 L 624.0,646.0 L 692.0,632.0 L 788.0,599.0 L 825.0,598.0"/>
    <path d="M 582.0,740.0 L 645.0,740.0 L 746.0,708.0 L 788.0,705.0"/>
    <path d="M 580.0,823.0 L 624.0,828.0 L 712.0,812.0 L 778.0,792.0 L 811.0,794.0"/>
    <path d="M 651.0,663.0 L 680.0,684.0 L 680.0,881.0 L 665.0,898.0"/>
    <path d="M 528.0,932.0 L 543.0,944.0 L 844.0,903.0 L 913.0,918.0"/>
  </g>
</svg>
