<svg xmlns="http://www.w3.org/2000/svg" viewBox="0 0 1024 1024">
  <g style="fill:none;stroke:#000000;stroke-width:50;stroke-linecap:round;stroke-linejoin:round;" transform="scale(1, 1) translate(0, 0)">
    <path d="M 409.0,212.0 L 445.0,257.0 L 398.0,393.0 L 351.0,479.0 L 316.0,529.0 L 273.0,579.0 L 215.0,631.0"/>
    <path d="M 384.0,480.0 L 643.0,413.0 L 683.0,406.0 L 724.0,412.0 L 750.0,437.0 L 716.0,490.0 L 659.0,560.0"/>
    <path d="M 466.0,566.0 L 504.0,613.0 L 501.0,664.0 L 478.0,768.0 L 433.0,856.0 L 395.0,898.0 L 319.0,949.0 L 241.0,982.0 L 153.0,1002.0"/>
    <path d="M 527.0,720.0 L 531.0,751.0 L 619.0,861.0 L 680.0,928.0 L 740.0,978.0 L 749.0,984.0 L 898.0,1010.0"/>
  </g>
</svg>
