<svg xmlns="http://www.w3.org/2000/svg" viewBox="0 0 1024 1024">
  <g style="fill:none;stroke:#000000;stroke-width:50;stroke-linecap:round;stroke-linejoin:round;" transform="scale(1, 1) translate(0, 0)">
    <path d="M 378.0,264.0 L 388.0,275.0 L 396.0,308.0 L 331.0,364.0 L 255.0,416.0 L 254.0,424.0"/>
    <path d="M 177.0,401.0 L 208.0,430.0 L 215.0,449.0 L 211.0,572.0 L 198.0,679.0 L 189.0,727.0 L 150.0,835.0 L 111.0,908.0 L 84.0,941.0"/>
    <path d="M 247.0,558.0 L 256.0,551.0 L 324.0,543.0 L 434.0,508.0 L 482.0,507.0"/>
    <path d="M 343.0,563.0 L 365.0,578.0 L 374.0,601.0 L 359.0,916.0 L 370.0,997.0"/>
    <path d="M 596.0,228.0 L 625.0,247.0 L 641.0,267.0 L 632.0,304.0 L 583.0,446.0 L 546.0,527.0 L 492.0,610.0"/>
    <path d="M 587.0,503.0 L 609.0,490.0 L 690.0,463.0 L 766.0,442.0 L 791.0,441.0 L 814.0,455.0 L 822.0,470.0 L 750.0,564.0"/>
    <path d="M 603.0,570.0 L 616.0,577.0 L 639.0,605.0 L 614.0,746.0 L 586.0,816.0 L 554.0,863.0 L 504.0,912.0 L 423.0,959.0"/>
    <path d="M 657.0,699.0 L 659.0,725.0 L 697.0,783.0 L 755.0,857.0 L 841.0,942.0 L 962.0,969.0"/>
  </g>
</svg>
