<svg xmlns="http://www.w3.org/2000/svg" viewBox="0 0 1024 1024">
  <g style="fill:none;stroke:#000000;stroke-width:50;stroke-linecap:round;stroke-linejoin:round;" transform="scale(1, 1) translate(0, 0)">
    <path d="M 358.0,416.0 L 391.0,459.0 L 397.0,479.0"/>
    <path d="M 544.0,392.0 L 516.0,393.0 L 458.0,506.0 L 445.0,511.0"/>
    <path d="M 316.0,558.0 L 373.0,557.0 L 425.0,546.0 L 498.0,520.0 L 543.0,519.0"/>
    <path d="M 289.0,664.0 L 306.0,692.0 L 299.0,783.0 L 323.0,786.0 L 379.0,767.0 L 471.0,747.0 L 492.0,735.0"/>
    <path d="M 526.0,624.0 L 541.0,658.0 L 507.0,789.0"/>
    <path d="M 390.0,575.0 L 414.0,589.0 L 426.0,606.0 L 413.0,725.0 L 382.0,843.0 L 350.0,909.0 L 320.0,949.0 L 272.0,995.0 L 222.0,1021.0"/>
    <path d="M 643.0,344.0 L 655.0,351.0 L 674.0,378.0 L 666.0,407.0 L 616.0,518.0 L 561.0,600.0"/>
    <path d="M 616.0,558.0 L 761.0,506.0 L 800.0,501.0 L 817.0,510.0 L 829.0,527.0 L 762.0,613.0"/>
    <path d="M 627.0,637.0 L 646.0,650.0 L 662.0,674.0 L 645.0,768.0 L 625.0,833.0 L 590.0,892.0 L 553.0,933.0 L 522.0,956.0 L 455.0,991.0"/>
    <path d="M 675.0,775.0 L 679.0,794.0 L 741.0,877.0 L 816.0,960.0 L 837.0,971.0 L 940.0,996.0"/>
  </g>
</svg>
