<svg xmlns="http://www.w3.org/2000/svg" viewBox="0 0 1024 1024">
  <g style="fill:none;stroke:#000000;stroke-width:50;stroke-linecap:round;stroke-linejoin:round;" transform="scale(1, 1) translate(0, 0)">
    <path d="M 208.0,367.0 L 262.0,373.0 L 429.0,328.0 L 487.0,326.0"/>
    <path d="M 376.0,445.0 L 398.0,467.0 L 402.0,480.0 L 393.0,540.0 L 371.0,614.0 L 345.0,669.0 L 304.0,729.0 L 240.0,795.0 L 231.0,796.0 L 229.0,805.0"/>
    <path d="M 245.0,534.0 L 403.0,695.0 L 434.0,736.0 L 445.0,772.0"/>
    <path d="M 141.0,339.0 L 177.0,387.0 L 173.0,626.0 L 154.0,930.0 L 196.0,928.0 L 395.0,877.0 L 445.0,872.0 L 476.0,880.0"/>
    <path d="M 589.0,236.0 L 615.0,255.0 L 628.0,273.0 L 613.0,339.0 L 593.0,397.0 L 541.0,508.0 L 484.0,597.0"/>
    <path d="M 571.0,504.0 L 594.0,491.0 L 705.0,454.0 L 762.0,441.0 L 784.0,445.0 L 807.0,469.0 L 734.0,560.0"/>
    <path d="M 599.0,596.0 L 619.0,609.0 L 635.0,634.0 L 617.0,765.0 L 604.0,810.0 L 569.0,878.0 L 526.0,931.0 L 486.0,966.0 L 429.0,998.0"/>
    <path d="M 647.0,773.0 L 651.0,793.0 L 717.0,875.0 L 807.0,967.0 L 869.0,989.0 L 953.0,1007.0"/>
  </g>
</svg>
