<svg xmlns="http://www.w3.org/2000/svg" viewBox="0 0 1024 1024">
  <g style="fill:none;stroke:#000000;stroke-width:50;stroke-linecap:round;stroke-linejoin:round;" transform="scale(1, 1) translate(0, 0)">
    <path d="M 293.0,228.0 L 318.0,267.0 L 258.0,379.0 L 216.0,438.0 L 202.0,474.0 L 248.0,474.0 L 376.0,434.0 L 385.0,441.0"/>
    <path d="M 369.0,362.0 L 423.0,430.0 L 436.0,462.0 L 438.0,485.0"/>
    <path d="M 202.0,541.0 L 223.0,568.0 L 214.0,599.0 L 185.0,656.0 L 137.0,714.0"/>
    <path d="M 227.0,633.0 L 319.0,621.0 L 376.0,601.0 L 425.0,599.0"/>
    <path d="M 97.0,773.0 L 147.0,780.0 L 412.0,716.0 L 442.0,711.0 L 484.0,714.0"/>
    <path d="M 272.0,650.0 L 305.0,679.0 L 282.0,793.0 L 259.0,848.0 L 230.0,893.0 L 190.0,932.0 L 149.0,962.0 L 101.0,984.0"/>
    <path d="M 356.0,791.0 L 417.0,842.0 L 431.0,878.0"/>
    <path d="M 588.0,217.0 L 605.0,227.0 L 629.0,255.0 L 614.0,327.0 L 553.0,491.0 L 518.0,562.0 L 479.0,618.0"/>
    <path d="M 597.0,464.0 L 707.0,429.0 L 750.0,420.0 L 777.0,423.0 L 802.0,447.0 L 727.0,526.0"/>
    <path d="M 599.0,570.0 L 619.0,583.0 L 635.0,606.0 L 614.0,725.0 L 590.0,794.0 L 567.0,836.0 L 525.0,887.0 L 469.0,933.0 L 413.0,963.0"/>
    <path d="M 647.0,720.0 L 651.0,748.0 L 667.0,772.0 L 729.0,860.0 L 785.0,923.0 L 921.0,971.0"/>
  </g>
</svg>
