<svg xmlns="http://www.w3.org/2000/svg" viewBox="0 0 1024 1024">
  <g style="fill:none;stroke:#000000;stroke-width:50;stroke-linecap:round;stroke-linejoin:round;" transform="scale(1, 1) translate(0, 0)">
    <path d="M 178.0,386.0 L 242.0,392.0 L 350.0,372.0 L 459.0,342.0 L 494.0,338.0 L 519.0,343.0"/>
    <path d="M 337.0,214.0 L 376.0,249.0 L 367.0,437.0 L 351.0,458.0"/>
    <path d="M 226.0,499.0 L 272.0,503.0 L 414.0,466.0 L 477.0,467.0"/>
    <path d="M 232.0,591.0 L 289.0,594.0 L 422.0,564.0 L 464.0,564.0"/>
    <path d="M 94.0,732.0 L 123.0,740.0 L 151.0,739.0 L 457.0,669.0 L 516.0,671.0"/>
    <path d="M 340.0,716.0 L 360.0,731.0 L 369.0,754.0 L 368.0,900.0 L 361.0,946.0 L 346.0,970.0 L 248.0,927.0"/>
    <path d="M 223.0,806.0 L 206.0,862.0 L 171.0,921.0 L 162.0,949.0"/>
    <path d="M 399.0,780.0 L 462.0,819.0 L 482.0,849.0"/>
    <path d="M 633.0,241.0 L 657.0,258.0 L 671.0,279.0 L 660.0,315.0 L 617.0,422.0 L 571.0,510.0 L 501.0,610.0"/>
    <path d="M 601.0,508.0 L 659.0,496.0 L 761.0,461.0 L 804.0,458.0 L 834.0,482.0 L 770.0,568.0"/>
    <path d="M 604.0,587.0 L 617.0,593.0 L 641.0,620.0 L 625.0,740.0 L 604.0,810.0 L 569.0,868.0 L 527.0,913.0 L 492.0,941.0 L 449.0,963.0"/>
    <path d="M 662.0,711.0 L 665.0,737.0 L 682.0,760.0 L 746.0,844.0 L 822.0,926.0 L 848.0,940.0 L 969.0,971.0"/>
  </g>
</svg>
