<svg xmlns="http://www.w3.org/2000/svg" viewBox="0 0 1024 1024">
  <g style="fill:none;stroke:#000000;stroke-width:50;stroke-linecap:round;stroke-linejoin:round;" transform="scale(1, 1) translate(0, 0)">
    <path d="M 194.0,309.0 L 252.0,316.0 L 452.0,271.0 L 512.0,270.0"/>
    <path d="M 175.0,416.0 L 193.0,430.0 L 206.0,452.0 L 228.0,547.0"/>
    <path d="M 213.0,415.0 L 226.0,421.0 L 313.0,398.0 L 333.0,403.0 L 347.0,421.0 L 334.0,467.0 L 312.0,481.0"/>
    <path d="M 244.0,530.0 L 258.0,520.0 L 313.0,508.0 L 344.0,504.0 L 365.0,509.0"/>
    <path d="M 425.0,311.0 L 446.0,325.0 L 455.0,346.0 L 438.0,463.0 L 438.0,535.0"/>
    <path d="M 62.0,634.0 L 113.0,647.0 L 437.0,594.0 L 470.0,593.0 L 500.0,600.0"/>
    <path d="M 149.0,715.0 L 174.0,736.0 L 204.0,871.0"/>
    <path d="M 202.0,734.0 L 210.0,725.0 L 306.0,703.0 L 331.0,724.0 L 311.0,783.0 L 296.0,788.0"/>
    <path d="M 220.0,842.0 L 229.0,832.0 L 287.0,818.0 L 340.0,823.0"/>
    <path d="M 393.0,626.0 L 423.0,653.0 L 429.0,680.0 L 427.0,902.0 L 420.0,970.0 L 402.0,1005.0 L 360.0,992.0 L 308.0,965.0"/>
    <path d="M 643.0,219.0 L 669.0,235.0 L 684.0,256.0 L 671.0,302.0 L 632.0,405.0 L 586.0,497.0 L 537.0,566.0"/>
    <path d="M 612.0,495.0 L 751.0,449.0 L 814.0,443.0 L 839.0,470.0 L 758.0,568.0"/>
    <path d="M 612.0,590.0 L 625.0,596.0 L 649.0,625.0 L 638.0,705.0 L 609.0,799.0 L 579.0,849.0 L 550.0,883.0 L 510.0,915.0 L 460.0,940.0"/>
    <path d="M 663.0,729.0 L 663.0,740.0 L 677.0,763.0 L 748.0,843.0 L 833.0,923.0 L 984.0,955.0"/>
  </g>
</svg>
