<svg xmlns="http://www.w3.org/2000/svg" viewBox="0 0 1024 1024">
  <g style="fill:none;stroke:#000000;stroke-width:50;stroke-linecap:round;stroke-linejoin:round;" transform="scale(1, 1) translate(0, 0)">
    <path d="M 303.0,208.0 L 378.0,260.0 L 400.0,291.0"/>
    <path d="M 209.0,407.0 L 227.0,412.0 L 279.0,408.0 L 453.0,367.0 L 506.0,365.0"/>
    <path d="M 223.0,470.0 L 257.0,510.0 L 275.0,542.0"/>
    <path d="M 404.0,407.0 L 429.0,432.0 L 382.0,543.0 L 364.0,559.0"/>
    <path d="M 107.0,618.0 L 155.0,625.0 L 422.0,572.0 L 491.0,575.0"/>
    <path d="M 205.0,682.0 L 227.0,707.0 L 231.0,723.0 L 234.0,861.0 L 227.0,942.0 L 233.0,987.0"/>
    <path d="M 262.0,718.0 L 278.0,706.0 L 391.0,677.0 L 414.0,685.0 L 427.0,701.0 L 431.0,881.0 L 423.0,936.0 L 434.0,997.0"/>
    <path d="M 259.0,822.0 L 270.0,813.0 L 315.0,802.0 L 368.0,805.0"/>
    <path d="M 259.0,938.0 L 276.0,928.0 L 371.0,917.0 L 389.0,907.0"/>
    <path d="M 621.0,243.0 L 648.0,259.0 L 664.0,281.0 L 645.0,349.0 L 578.0,506.0 L 508.0,614.0"/>
    <path d="M 607.0,502.0 L 745.0,455.0 L 769.0,451.0 L 799.0,459.0 L 815.0,481.0 L 744.0,576.0"/>
    <path d="M 621.0,601.0 L 660.0,634.0 L 650.0,742.0 L 632.0,814.0 L 606.0,866.0 L 566.0,915.0 L 492.0,967.0"/>
    <path d="M 677.0,761.0 L 682.0,790.0 L 690.0,801.0 L 820.0,945.0 L 947.0,976.0"/>
  </g>
</svg>
