<svg xmlns="http://www.w3.org/2000/svg" viewBox="0 0 1024 1024">
  <g style="fill:none;stroke:#000000;stroke-width:50;stroke-linecap:round;stroke-linejoin:round;" transform="scale(1, 1) translate(0, 0)">
    <path d="M 215.0,282.0 L 268.0,328.0 L 281.0,352.0"/>
    <path d="M 443.0,203.0 L 462.0,221.0 L 469.0,239.0 L 364.0,359.0"/>
    <path d="M 184.0,430.0 L 234.0,435.0 L 443.0,391.0 L 499.0,386.0"/>
    <path d="M 178.0,542.0 L 184.0,547.0 L 219.0,547.0 L 300.0,526.0 L 460.0,497.0 L 491.0,524.0 L 467.0,645.0 L 462.0,659.0 L 447.0,667.0"/>
    <path d="M 104.0,643.0 L 152.0,651.0 L 451.0,594.0 L 502.0,588.0 L 533.0,593.0"/>
    <path d="M 180.0,735.0 L 218.0,737.0 L 442.0,696.0 L 495.0,705.0"/>
    <path d="M 239.0,461.0 L 261.0,473.0 L 267.0,483.0 L 270.0,551.0 L 262.0,826.0 L 240.0,967.0 L 245.0,1027.0"/>
    <path d="M 348.0,439.0 L 366.0,451.0 L 369.0,481.0 L 366.0,1039.0"/>
    <path d="M 244.0,757.0 L 235.0,763.0 L 223.0,807.0 L 191.0,850.0 L 124.0,916.0 L 65.0,954.0"/>
    <path d="M 390.0,770.0 L 459.0,819.0 L 480.0,851.0"/>
    <path d="M 654.0,217.0 L 679.0,234.0 L 693.0,252.0 L 683.0,307.0 L 623.0,475.0 L 586.0,553.0 L 556.0,598.0"/>
    <path d="M 627.0,528.0 L 785.0,476.0 L 821.0,477.0 L 843.0,499.0 L 774.0,584.0"/>
    <path d="M 632.0,609.0 L 661.0,634.0 L 667.0,649.0 L 647.0,769.0 L 628.0,826.0 L 601.0,877.0 L 548.0,941.0 L 507.0,973.0 L 449.0,1004.0"/>
    <path d="M 678.0,759.0 L 684.0,781.0 L 739.0,852.0 L 843.0,963.0 L 985.0,1003.0"/>
  </g>
</svg>
