<svg xmlns="http://www.w3.org/2000/svg" viewBox="0 0 1024 1024">
  <g style="fill:none;stroke:#000000;stroke-width:50;stroke-linecap:round;stroke-linejoin:round;" transform="scale(1, 1) translate(0, 0)">
    <path d="M 191.0,274.0 L 218.0,295.0 L 223.0,308.0 L 264.0,506.0"/>
    <path d="M 248.0,280.0 L 264.0,285.0 L 418.0,253.0 L 455.0,259.0 L 473.0,276.0 L 478.0,285.0 L 451.0,395.0 L 424.0,471.0 L 427.0,490.0"/>
    <path d="M 273.0,392.0 L 277.0,383.0 L 296.0,378.0 L 366.0,366.0 L 385.0,371.0"/>
    <path d="M 281.0,486.0 L 309.0,471.0 L 397.0,453.0"/>
    <path d="M 236.0,532.0 L 251.0,560.0 L 236.0,592.0 L 212.0,628.0 L 175.0,664.0 L 149.0,680.0"/>
    <path d="M 240.0,633.0 L 441.0,597.0 L 462.0,597.0 L 486.0,616.0 L 469.0,805.0 L 455.0,875.0 L 433.0,941.0 L 414.0,969.0 L 397.0,981.0 L 327.0,944.0"/>
    <path d="M 281.0,656.0 L 299.0,672.0 L 280.0,721.0 L 249.0,767.0 L 208.0,807.0"/>
    <path d="M 309.0,713.0 L 317.0,724.0 L 356.0,748.0 L 376.0,778.0"/>
    <path d="M 127.0,712.0 L 146.0,728.0 L 161.0,756.0 L 148.0,877.0 L 186.0,879.0 L 332.0,846.0 L 387.0,856.0"/>
    <path d="M 655.0,212.0 L 680.0,227.0 L 696.0,250.0 L 687.0,284.0 L 623.0,451.0 L 569.0,549.0 L 548.0,574.0"/>
    <path d="M 627.0,503.0 L 763.0,457.0 L 803.0,450.0 L 820.0,455.0 L 845.0,474.0 L 782.0,572.0"/>
    <path d="M 646.0,578.0 L 682.0,611.0 L 672.0,697.0 L 651.0,775.0 L 623.0,832.0 L 601.0,861.0 L 552.0,908.0 L 493.0,943.0"/>
    <path d="M 690.0,748.0 L 694.0,767.0 L 729.0,813.0 L 838.0,929.0 L 866.0,942.0 L 976.0,964.0"/>
  </g>
</svg>
