<svg xmlns="http://www.w3.org/2000/svg" viewBox="0 0 1024 1024">
  <g style="fill:none;stroke:#000000;stroke-width:50;stroke-linecap:round;stroke-linejoin:round;" transform="scale(1, 1) translate(0, 0)">
    <path d="M 186.0,343.0 L 203.0,351.0 L 226.0,351.0 L 404.0,312.0 L 461.0,309.0"/>
    <path d="M 235.0,452.0 L 263.0,477.0 L 292.0,592.0"/>
    <path d="M 289.0,470.0 L 297.0,461.0 L 389.0,431.0 L 418.0,435.0 L 434.0,454.0 L 413.0,511.0 L 395.0,517.0"/>
    <path d="M 307.0,574.0 L 316.0,565.0 L 376.0,549.0 L 436.0,550.0"/>
    <path d="M 194.0,689.0 L 217.0,713.0 L 237.0,816.0"/>
    <path d="M 236.0,691.0 L 242.0,695.0 L 276.0,686.0 L 282.0,679.0 L 315.0,678.0 L 328.0,692.0 L 313.0,742.0 L 323.0,752.0"/>
    <path d="M 252.0,793.0 L 292.0,775.0 L 339.0,778.0"/>
    <path d="M 364.0,646.0 L 388.0,672.0 L 409.0,787.0"/>
    <path d="M 409.0,666.0 L 417.0,657.0 L 479.0,638.0 L 499.0,644.0 L 511.0,657.0 L 509.0,664.0 L 494.0,711.0 L 476.0,718.0"/>
    <path d="M 426.0,766.0 L 433.0,756.0 L 464.0,747.0 L 501.0,744.0 L 521.0,749.0"/>
    <path d="M 121.0,316.0 L 155.0,355.0 L 158.0,378.0 L 153.0,683.0 L 136.0,900.0 L 138.0,937.0 L 166.0,938.0 L 239.0,915.0 L 392.0,881.0 L 425.0,876.0 L 461.0,884.0"/>
    <path d="M 589.0,239.0 L 602.0,244.0 L 630.0,274.0 L 617.0,346.0 L 565.0,492.0 L 515.0,578.0"/>
    <path d="M 589.0,487.0 L 629.0,482.0 L 745.0,441.0 L 772.0,435.0 L 794.0,438.0 L 815.0,461.0 L 734.0,560.0"/>
    <path d="M 599.0,596.0 L 619.0,609.0 L 636.0,635.0 L 622.0,742.0 L 599.0,822.0 L 569.0,878.0 L 526.0,931.0 L 486.0,966.0 L 429.0,998.0"/>
    <path d="M 642.0,790.0 L 646.0,807.0 L 684.0,852.0 L 809.0,975.0 L 857.0,990.0 L 953.0,1007.0"/>
  </g>
</svg>
