<svg xmlns="http://www.w3.org/2000/svg" viewBox="0 0 1024 1024">
  <g style="fill:none;stroke:#000000;stroke-width:50;stroke-linecap:round;stroke-linejoin:round;" transform="scale(1, 1) translate(0, 0)">
    <path d="M 248.0,257.0 L 280.0,274.0 L 288.0,285.0 L 316.0,422.0"/>
    <path d="M 121.0,350.0 L 174.0,363.0 L 350.0,324.0"/>
    <path d="M 431.0,195.0 L 457.0,226.0 L 431.0,332.0 L 407.0,399.0"/>
    <path d="M 456.0,321.0 L 520.0,304.0 L 557.0,304.0 L 588.0,315.0"/>
    <path d="M 151.0,481.0 L 175.0,497.0 L 181.0,508.0 L 212.0,607.0"/>
    <path d="M 201.0,495.0 L 228.0,481.0 L 304.0,466.0 L 323.0,486.0 L 304.0,534.0 L 289.0,542.0"/>
    <path d="M 227.0,583.0 L 241.0,572.0 L 271.0,565.0 L 326.0,568.0"/>
    <path d="M 379.0,455.0 L 399.0,467.0 L 428.0,568.0"/>
    <path d="M 422.0,466.0 L 432.0,458.0 L 493.0,440.0 L 522.0,444.0 L 534.0,458.0 L 531.0,472.0 L 520.0,503.0 L 500.0,517.0"/>
    <path d="M 441.0,555.0 L 489.0,537.0 L 545.0,539.0"/>
    <path d="M 291.0,628.0 L 266.0,636.0 L 211.0,723.0 L 153.0,786.0 L 59.0,859.0"/>
    <path d="M 229.0,739.0 L 234.0,855.0 L 221.0,1028.0 L 227.0,1087.0"/>
    <path d="M 362.0,569.0 L 399.0,598.0 L 411.0,619.0"/>
    <path d="M 303.0,671.0 L 346.0,673.0 L 416.0,660.0 L 465.0,643.0 L 498.0,643.0"/>
    <path d="M 306.0,766.0 L 370.0,763.0 L 454.0,734.0 L 484.0,732.0"/>
    <path d="M 303.0,839.0 L 365.0,835.0 L 450.0,809.0 L 480.0,807.0"/>
    <path d="M 380.0,686.0 L 407.0,707.0 L 405.0,878.0 L 391.0,898.0"/>
    <path d="M 261.0,930.0 L 269.0,939.0 L 287.0,940.0 L 468.0,910.0 L 516.0,915.0"/>
    <path d="M 661.0,210.0 L 674.0,216.0 L 702.0,246.0 L 692.0,296.0 L 664.0,390.0 L 625.0,486.0 L 572.0,578.0"/>
    <path d="M 655.0,479.0 L 787.0,437.0 L 805.0,438.0 L 829.0,454.0 L 838.0,466.0 L 764.0,574.0"/>
    <path d="M 633.0,626.0 L 647.0,633.0 L 670.0,668.0 L 658.0,748.0 L 635.0,827.0 L 615.0,868.0 L 574.0,923.0 L 509.0,973.0 L 463.0,994.0"/>
    <path d="M 683.0,770.0 L 689.0,794.0 L 746.0,869.0 L 859.0,986.0 L 919.0,1004.0 L 977.0,1011.0"/>
  </g>
</svg>
