<svg xmlns="http://www.w3.org/2000/svg" viewBox="0 0 1024 1024">
  <g style="fill:none;stroke:#000000;stroke-width:50;stroke-linecap:round;stroke-linejoin:round;" transform="scale(1, 1) translate(0, 0)">
    <path d="M 248.0,285.0 L 298.0,325.0 L 300.0,351.0 L 297.0,742.0 L 279.0,772.0"/>
    <path d="M 327.0,538.0 L 340.0,525.0 L 405.0,503.0 L 453.0,504.0"/>
    <path d="M 119.0,539.0 L 160.0,578.0 L 187.0,765.0 L 188.0,785.0 L 174.0,798.0"/>
    <path d="M 61.0,845.0 L 118.0,862.0 L 359.0,772.0 L 432.0,739.0"/>
    <path d="M 484.0,468.0 L 508.0,473.0 L 558.0,471.0 L 653.0,449.0 L 769.0,410.0 L 829.0,406.0"/>
    <path d="M 580.0,203.0 L 621.0,237.0 L 629.0,260.0 L 614.0,604.0 L 596.0,626.0"/>
    <path d="M 488.0,664.0 L 518.0,666.0 L 574.0,658.0 L 676.0,626.0 L 716.0,629.0 L 728.0,638.0 L 720.0,675.0 L 684.0,765.0 L 643.0,836.0 L 608.0,881.0 L 558.0,923.0 L 493.0,960.0 L 425.0,984.0 L 352.0,995.0"/>
    <path d="M 468.0,714.0 L 495.0,723.0 L 522.0,742.0 L 663.0,891.0 L 733.0,949.0 L 802.0,996.0 L 829.0,1007.0 L 989.0,1016.0"/>
  </g>
</svg>
