<svg xmlns="http://www.w3.org/2000/svg" viewBox="0 0 1024 1024">
  <g style="fill:none;stroke:#000000;stroke-width:50;stroke-linecap:round;stroke-linejoin:round;" transform="scale(1, 1) translate(0, 0)">
    <path d="M 264.0,307.0 L 319.0,319.0 L 698.0,266.0 L 746.0,266.0 L 784.0,275.0"/>
    <path d="M 577.0,320.0 L 574.0,328.0 L 538.0,346.0 L 471.0,423.0 L 358.0,516.0 L 233.0,585.0 L 180.0,602.0"/>
    <path d="M 486.0,368.0 L 483.0,379.0 L 506.0,414.0 L 501.0,562.0 L 505.0,604.0"/>
    <path d="M 627.0,436.0 L 733.0,478.0 L 787.0,508.0 L 830.0,557.0"/>
    <path d="M 336.0,653.0 L 384.0,663.0 L 636.0,631.0 L 674.0,631.0 L 712.0,640.0"/>
    <path d="M 482.0,680.0 L 515.0,706.0 L 510.0,923.0 L 493.0,935.0"/>
    <path d="M 543.0,807.0 L 556.0,797.0 L 641.0,782.0 L 682.0,779.0 L 717.0,788.0"/>
    <path d="M 287.0,750.0 L 331.0,791.0 L 346.0,938.0 L 361.0,945.0"/>
    <path d="M 127.0,983.0 L 165.0,998.0 L 198.0,1002.0 L 447.0,972.0 L 840.0,943.0 L 870.0,948.0 L 933.0,975.0"/>
  </g>
</svg>
