<svg xmlns="http://www.w3.org/2000/svg" viewBox="0 0 1024 1024">
  <g style="fill:none;stroke:#000000;stroke-width:50;stroke-linecap:round;stroke-linejoin:round;" transform="scale(1, 1) translate(0, 0)">
    <path d="M 311.0,277.0 L 349.0,289.0 L 404.0,289.0 L 681.0,243.0 L 743.0,244.0"/>
    <path d="M 231.0,253.0 L 255.0,272.0 L 273.0,302.0 L 266.0,461.0 L 243.0,620.0 L 215.0,723.0 L 173.0,828.0 L 141.0,890.0 L 68.0,989.0"/>
    <path d="M 517.75,368.75 L 327.0,435.0"/>
    <path d="M 314.0,529.0 L 370.0,529.0 L 471.0,496.0 L 513.0,492.0"/>
    <path d="M 402.0,430.0 L 426.0,439.0 L 436.0,453.0 L 427.0,685.0 L 431.0,720.0"/>
    <path d="M 411.0,541.0 L 393.0,594.0 L 377.0,618.0 L 288.0,716.0"/>
    <path d="M 460.0,565.0 L 501.0,584.0 L 521.0,603.0"/>
    <path d="M 771.0,344.0 L 721.0,335.0 L 625.0,390.0 L 594.0,401.0 L 584.0,397.0 L 576.0,407.0"/>
    <path d="M 570.0,501.0 L 590.0,501.0 L 778.0,457.0 L 836.0,462.0"/>
    <path d="M 646.0,399.0 L 676.0,413.0 L 682.0,422.0 L 675.0,565.0 L 680.0,712.0"/>
    <path d="M 652.0,505.0 L 638.0,553.0 L 610.0,593.0 L 576.0,632.0 L 515.0,678.0"/>
    <path d="M 708.0,504.0 L 708.0,520.0 L 732.0,543.0 L 826.0,616.0 L 893.0,630.0 L 973.0,636.0"/>
    <path d="M 521.0,711.0 L 561.0,746.0 L 558.0,928.0 L 543.0,949.0"/>
    <path d="M 590.0,830.0 L 706.0,804.0 L 749.0,805.0"/>
    <path d="M 351.0,803.0 L 392.0,842.0 L 409.0,952.0 L 423.0,958.0"/>
    <path d="M 246.0,999.0 L 297.0,1009.0 L 515.0,979.0 L 782.0,954.0 L 859.0,975.0"/>
  </g>
</svg>
