<svg xmlns="http://www.w3.org/2000/svg" viewBox="0 0 1024 1024">
  <g style="fill:none;stroke:#000000;stroke-width:50;stroke-linecap:round;stroke-linejoin:round;" transform="scale(1, 1) translate(0, 0)">
    <path d="M 247.0,335.0 L 307.0,346.0 L 697.0,289.0 L 760.0,300.0"/>
    <path d="M 305.0,427.0 L 325.0,455.0 L 327.0,467.0 L 286.0,550.0 L 226.0,624.0 L 174.0,672.0 L 139.0,694.0"/>
    <path d="M 290.0,590.0 L 395.0,570.0 L 417.0,573.0 L 433.0,594.0 L 373.0,724.0 L 294.0,829.0 L 199.0,923.0 L 112.0,976.0"/>
    <path d="M 199.0,678.0 L 224.0,686.0 L 255.0,709.0 L 276.0,747.0"/>
    <path d="M 735.0,462.0 L 747.0,474.0 L 758.0,508.0 L 676.0,578.0 L 586.0,639.0 L 567.0,662.0"/>
    <path d="M 528.0,388.0 L 555.0,418.0 L 569.0,444.0 L 550.0,569.0 L 545.0,724.0 L 556.0,856.0 L 571.0,898.0 L 585.0,913.0 L 632.0,933.0 L 735.0,944.0 L 823.0,940.0 L 887.0,924.0 L 908.0,910.0 L 919.0,763.0"/>
  </g>
</svg>
