<svg xmlns="http://www.w3.org/2000/svg" viewBox="0 0 1024 1024">
  <g style="fill:none;stroke:#000000;stroke-width:50;stroke-linecap:round;stroke-linejoin:round;" transform="scale(1, 1) translate(0, 0)">
    <path d="M 160.0,352.0 L 232.0,354.0 L 287.0,343.0 L 398.0,306.0 L 457.0,302.0"/>
    <path d="M 248.0,375.0 L 280.0,401.0 L 284.0,410.0 L 275.0,433.0 L 184.0,598.0 L 145.0,654.0 L 86.0,716.0"/>
    <path d="M 261.0,524.0 L 352.0,506.0 L 374.0,523.0 L 340.0,643.0 L 293.0,739.0 L 226.0,839.0 L 168.0,905.0 L 98.0,958.0"/>
    <path d="M 180.0,644.0 L 184.0,657.0 L 213.0,686.0 L 224.0,723.0"/>
    <path d="M 584.0,205.0 L 609.0,229.0 L 620.0,250.0 L 606.0,287.0 L 543.0,404.0 L 504.0,463.0 L 458.0,514.0"/>
    <path d="M 530.0,465.0 L 558.0,454.0 L 609.0,449.0 L 712.0,421.0 L 778.0,411.0 L 815.0,422.0 L 843.0,450.0 L 831.0,784.0 L 817.0,886.0 L 799.0,952.0 L 772.0,999.0 L 749.0,1016.0 L 629.0,958.0"/>
    <path d="M 447.0,569.0 L 464.0,589.0 L 471.0,617.0 L 470.0,709.0 L 461.0,790.0 L 465.0,842.0"/>
    <path d="M 489.0,579.0 L 503.0,585.0 L 618.0,557.0 L 639.0,564.0 L 655.0,582.0 L 653.0,774.0 L 645.0,813.0 L 652.0,881.0"/>
    <path d="M 496.0,710.0 L 509.0,693.0 L 546.0,687.0 L 580.0,693.0"/>
    <path d="M 490.0,824.0 L 499.0,811.0 L 604.0,796.0"/>
  </g>
</svg>
