<svg xmlns="http://www.w3.org/2000/svg" viewBox="0 0 1024 1024">
  <g style="fill:none;stroke:#000000;stroke-width:50;stroke-linecap:round;stroke-linejoin:round;" transform="scale(1, 1) translate(0, 0)">
    <path d="M 148.0,370.0 L 210.0,373.0 L 368.0,330.0 L 414.0,329.0"/>
    <path d="M 216.0,402.0 L 229.0,405.0 L 250.0,426.0 L 229.0,488.0 L 178.0,591.0 L 97.0,701.0"/>
    <path d="M 217.0,568.0 L 305.0,546.0 L 327.0,547.0 L 343.0,562.0 L 303.0,690.0 L 230.0,822.0 L 149.0,918.0 L 90.0,962.0"/>
    <path d="M 162.0,687.0 L 206.0,726.0 L 227.0,762.0"/>
    <path d="M 426.0,491.0 L 456.0,512.0 L 468.0,535.0 L 491.0,660.0 L 480.0,668.0"/>
    <path d="M 490.0,501.0 L 500.0,509.0 L 582.0,497.0 L 744.0,458.0 L 775.0,465.0 L 800.0,490.0 L 765.0,612.0 L 739.0,636.0"/>
    <path d="M 369.0,704.0 L 417.0,712.0 L 578.0,684.0 L 844.0,652.0 L 923.0,668.0"/>
    <path d="M 575.0,225.0 L 603.0,242.0 L 627.0,268.0 L 613.0,613.0 L 602.0,711.0 L 589.0,767.0 L 568.0,822.0 L 521.0,888.0 L 457.0,937.0 L 352.0,982.0"/>
    <path d="M 632.0,704.0 L 638.0,732.0 L 682.0,793.0 L 740.0,867.0 L 814.0,946.0 L 969.0,991.0"/>
  </g>
</svg>
