<svg xmlns="http://www.w3.org/2000/svg" viewBox="0 0 1024 1024">
  <g style="fill:none;stroke:#000000;stroke-width:50;stroke-linecap:round;stroke-linejoin:round;" transform="scale(1, 1) translate(0, 0)">
    <path d="M 160.0,350.0 L 185.0,356.0 L 223.0,354.0 L 301.0,338.0 L 371.0,315.0 L 431.0,315.0"/>
    <path d="M 261.0,373.0 L 291.0,401.0 L 260.0,470.0 L 176.0,605.0 L 128.0,666.0 L 102.0,688.0"/>
    <path d="M 250.0,533.0 L 275.0,519.0 L 332.0,510.0 L 356.0,512.0 L 371.0,526.0 L 340.0,652.0 L 298.0,746.0 L 220.0,868.0 L 166.0,924.0 L 131.0,949.0"/>
    <path d="M 179.0,636.0 L 191.0,636.0 L 229.0,664.0 L 249.0,704.0"/>
    <path d="M 484.0,268.0 L 504.0,285.0 L 517.0,313.0 L 544.0,462.0"/>
    <path d="M 532.0,269.0 L 541.0,277.0 L 560.0,279.0 L 731.0,238.0 L 752.0,241.0 L 783.0,271.0 L 751.0,348.0 L 725.0,363.0"/>
    <path d="M 562.0,407.0 L 574.0,416.0 L 718.0,390.0 L 778.0,397.0"/>
    <path d="M 481.0,501.0 L 506.0,527.0 L 516.0,563.0 L 511.0,731.0 L 498.0,819.0 L 500.0,856.0"/>
    <path d="M 535.0,514.0 L 543.0,522.0 L 563.0,525.0 L 725.0,484.0 L 746.0,488.0 L 765.0,504.0 L 778.0,523.0 L 774.0,620.0 L 781.0,777.0 L 775.0,843.0"/>
    <path d="M 590.0,578.0 L 615.0,587.0 L 642.0,620.0 L 631.0,795.0 L 608.0,880.0 L 579.0,928.0 L 534.0,967.0 L 477.0,1000.0 L 392.0,1026.0"/>
    <path d="M 701.0,868.0 L 805.0,954.0 L 825.0,984.0 L 834.0,1018.0"/>
  </g>
</svg>
