<svg xmlns="http://www.w3.org/2000/svg" viewBox="0 0 1024 1024">
  <g style="fill:none;stroke:#000000;stroke-width:50;stroke-linecap:round;stroke-linejoin:round;" transform="scale(1, 1) translate(0, 0)">
    <path d="M 169.0,396.0 L 192.0,402.0 L 245.0,399.0 L 413.0,352.0 L 476.0,352.0"/>
    <path d="M 265.0,426.0 L 281.0,432.0 L 298.0,452.0 L 273.0,510.0 L 219.0,601.0 L 161.0,683.0 L 99.0,747.0"/>
    <path d="M 252.0,593.0 L 368.0,559.0 L 391.0,560.0 L 407.0,575.0 L 359.0,721.0 L 283.0,850.0 L 199.0,947.0 L 130.0,998.0"/>
    <path d="M 210.0,657.0 L 261.0,705.0 L 283.0,748.0"/>
    <path d="M 463.0,496.0 L 521.0,497.0 L 708.0,436.0 L 748.0,437.0"/>
    <path d="M 447.0,671.0 L 502.0,668.0 L 578.0,639.0 L 769.0,581.0 L 804.0,575.0 L 866.0,581.0"/>
    <path d="M 531.0,219.0 L 551.0,229.0 L 574.0,259.0 L 587.0,398.0 L 630.0,610.0 L 677.0,759.0 L 728.0,871.0 L 805.0,979.0 L 827.0,998.0 L 861.0,1009.0 L 884.0,963.0 L 912.0,867.0"/>
    <path d="M 782.0,661.0 L 796.0,701.0 L 748.0,782.0 L 697.0,842.0 L 648.0,884.0 L 598.0,916.0 L 542.0,944.0 L 489.0,961.0"/>
    <path d="M 713.0,275.0 L 794.0,322.0 L 823.0,359.0"/>
  </g>
</svg>
