<svg xmlns="http://www.w3.org/2000/svg" viewBox="0 0 1024 1024">
  <g style="fill:none;stroke:#000000;stroke-width:50;stroke-linecap:round;stroke-linejoin:round;" transform="scale(1, 1) translate(0, 0)">
    <path d="M 152.0,358.0 L 177.0,364.0 L 214.0,361.0 L 383.0,321.0 L 415.0,321.0"/>
    <path d="M 256.0,380.0 L 286.0,406.0 L 270.0,446.0 L 209.0,547.0 L 144.0,629.0 L 118.0,652.0"/>
    <path d="M 242.0,541.0 L 340.0,518.0 L 359.0,520.0 L 375.0,534.0 L 334.0,664.0 L 258.0,797.0 L 185.0,884.0 L 114.0,938.0"/>
    <path d="M 181.0,615.0 L 197.0,618.0 L 227.0,642.0 L 243.0,659.0 L 253.0,684.0"/>
    <path d="M 751.0,264.0 L 684.0,248.0 L 614.0,290.0 L 474.0,338.0"/>
    <path d="M 447.0,405.0 L 506.0,450.0 L 524.0,483.0"/>
    <path d="M 571.0,378.0 L 610.0,423.0 L 619.0,443.0"/>
    <path d="M 776.0,326.0 L 793.0,357.0 L 694.0,452.0"/>
    <path d="M 473.0,555.0 L 504.0,566.0 L 530.0,563.0 L 679.0,512.0 L 704.0,515.0 L 719.0,524.0 L 730.0,538.0 L 720.0,557.0 L 646.0,644.0 L 637.0,643.0"/>
    <path d="M 591.0,649.0 L 628.0,671.0 L 653.0,717.0 L 669.0,836.0 L 655.0,946.0 L 640.0,976.0 L 608.0,1000.0 L 503.0,923.0"/>
    <path d="M 369.0,771.0 L 429.0,777.0 L 552.0,754.0 L 837.0,717.0 L 881.0,720.0 L 930.0,735.0"/>
  </g>
</svg>
