<svg xmlns="http://www.w3.org/2000/svg" viewBox="0 0 1024 1024">
  <g style="fill:none;stroke:#000000;stroke-width:50;stroke-linecap:round;stroke-linejoin:round;" transform="scale(1, 1) translate(0, 0)">
    <path d="M 113.0,371.0 L 122.0,376.0 L 171.0,376.0 L 254.0,364.0 L 268.0,356.0 L 331.0,343.0 L 380.0,345.0"/>
    <path d="M 206.0,395.0 L 237.0,421.0 L 223.0,462.0 L 140.0,618.0 L 85.0,685.0"/>
    <path d="M 215.0,540.0 L 312.0,515.0 L 332.0,516.0 L 346.0,530.0 L 312.0,641.0 L 279.0,711.0 L 234.0,783.0 L 180.0,855.0 L 139.0,897.0 L 65.0,951.0"/>
    <path d="M 173.0,608.0 L 185.0,633.0 L 221.0,679.0"/>
    <path d="M 421.0,372.0 L 445.0,379.0 L 523.0,375.0 L 745.0,327.0 L 786.0,328.0"/>
    <path d="M 624.0,221.0 L 587.0,235.0 L 572.0,321.0 L 550.0,384.0 L 494.0,489.0 L 405.0,596.0 L 331.0,662.0"/>
    <path d="M 622.0,378.0 L 646.0,393.0 L 708.0,457.0 L 803.0,536.0 L 863.0,554.0 L 973.0,567.0"/>
    <path d="M 406.0,628.0 L 432.0,645.0 L 438.0,662.0 L 469.0,867.0"/>
    <path d="M 460.0,631.0 L 475.0,640.0 L 678.0,604.0 L 724.0,607.0 L 747.0,625.0 L 757.0,639.0 L 712.0,815.0 L 702.0,833.0 L 670.0,825.0"/>
    <path d="M 515.0,732.0 L 626.0,714.0 L 664.0,718.0"/>
    <path d="M 487.0,843.0 L 506.0,831.0 L 625.0,805.0 L 676.0,806.0"/>
    <path d="M 555.0,512.0 L 585.0,547.0 L 575.0,749.0 L 577.0,872.0 L 590.0,945.0 L 615.0,995.0 L 642.0,1016.0 L 714.0,1038.0 L 813.0,1033.0 L 855.0,1017.0 L 885.0,990.0 L 888.0,840.0"/>
  </g>
</svg>
