<svg xmlns="http://www.w3.org/2000/svg" viewBox="0 0 1024 1024">
  <g style="fill:none;stroke:#000000;stroke-width:50;stroke-linecap:round;stroke-linejoin:round;" transform="scale(1, 1) translate(0, 0)">
    <path d="M 175.0,396.0 L 250.0,396.0 L 412.0,351.0 L 451.0,353.0"/>
    <path d="M 259.0,426.0 L 289.0,446.0 L 247.0,550.0 L 171.0,675.0 L 106.0,752.0"/>
    <path d="M 259.0,579.0 L 283.0,580.0 L 348.0,566.0 L 376.0,572.0 L 383.0,581.0 L 358.0,684.0 L 321.0,770.0 L 265.0,866.0 L 191.0,955.0 L 138.0,998.0"/>
    <path d="M 203.0,664.0 L 247.0,713.0 L 262.0,750.0"/>
    <path d="M 451.0,429.0 L 502.0,436.0 L 786.0,379.0 L 842.0,384.0"/>
    <path d="M 610.0,250.0 L 649.0,290.0 L 622.0,522.0 L 603.0,552.0"/>
    <path d="M 491.0,560.0 L 515.0,585.0 L 525.0,651.0 L 525.0,939.0 L 508.0,953.0"/>
    <path d="M 544.0,571.0 L 554.0,580.0 L 571.0,579.0 L 721.0,541.0 L 738.0,548.0 L 759.0,576.0 L 752.0,674.0 L 750.0,904.0 L 740.0,919.0 L 728.0,924.0"/>
    <path d="M 553.0,706.0 L 563.0,695.0 L 640.0,675.0 L 664.0,672.0 L 685.0,677.0"/>
    <path d="M 550.0,798.0 L 579.0,782.0 L 648.0,765.0 L 685.0,769.0"/>
    <path d="M 549.0,882.0 L 561.0,871.0 L 614.0,858.0 L 667.0,851.0 L 688.0,856.0"/>
    <path d="M 358.0,992.0 L 407.0,1001.0 L 581.0,976.0 L 841.0,951.0 L 886.0,955.0 L 931.0,969.0"/>
  </g>
</svg>
