<svg xmlns="http://www.w3.org/2000/svg" viewBox="0 0 1024 1024">
  <g style="fill:none;stroke:#000000;stroke-width:50;stroke-linecap:round;stroke-linejoin:round;" transform="scale(1, 1) translate(0, 0)">
    <path d="M 163.0,394.0 L 229.0,394.0 L 369.0,351.0 L 416.0,351.0"/>
    <path d="M 234.0,419.0 L 258.0,440.0 L 262.0,454.0 L 231.0,530.0 L 148.0,657.0 L 94.0,711.0"/>
    <path d="M 249.0,557.0 L 321.0,548.0 L 348.0,556.0 L 354.0,566.0 L 319.0,665.0 L 266.0,759.0 L 201.0,847.0 L 126.0,918.0 L 70.0,955.0"/>
    <path d="M 163.0,671.0 L 178.0,673.0 L 210.0,696.0 L 222.0,724.0"/>
    <path d="M 535.0,172.0 L 563.0,205.0 L 555.0,231.0 L 504.0,323.0 L 450.0,389.0"/>
    <path d="M 553.0,292.0 L 640.0,281.0 L 738.0,256.0 L 780.0,256.0"/>
    <path d="M 484.0,378.0 L 496.0,380.0 L 513.0,410.0 L 519.0,503.0 L 534.0,573.0"/>
    <path d="M 530.0,381.0 L 542.0,387.0 L 559.0,385.0 L 591.0,372.0 L 679.0,352.0 L 696.0,355.0 L 712.0,370.0 L 721.0,385.0 L 706.0,438.0 L 699.0,497.0 L 683.0,549.0 L 669.0,549.0"/>
    <path d="M 545.0,483.0 L 553.0,470.0 L 593.0,459.0 L 636.0,461.0"/>
    <path d="M 550.0,559.0 L 580.0,547.0 L 654.0,532.0"/>
    <path d="M 382.0,648.0 L 411.0,655.0 L 434.0,653.0 L 598.0,624.0 L 842.0,596.0 L 913.0,613.0"/>
    <path d="M 470.0,675.0 L 492.0,696.0 L 469.0,733.0 L 417.0,789.0 L 359.0,828.0"/>
    <path d="M 501.0,742.0 L 769.0,707.0 L 789.0,715.0 L 817.0,746.0 L 782.0,923.0 L 765.0,977.0 L 738.0,1026.0 L 708.0,1049.0 L 616.0,985.0"/>
    <path d="M 514.0,757.0 L 532.0,781.0 L 503.0,826.0 L 429.0,903.0 L 396.0,928.0 L 347.0,953.0"/>
    <path d="M 629.0,748.0 L 655.0,784.0 L 613.0,859.0 L 565.0,920.0 L 507.0,978.0 L 436.0,1032.0 L 410.0,1041.0 L 407.0,1048.0"/>
  </g>
</svg>
