<svg xmlns="http://www.w3.org/2000/svg" viewBox="0 0 1024 1024">
  <g style="fill:none;stroke:#000000;stroke-width:50;stroke-linecap:round;stroke-linejoin:round;" transform="scale(1, 1) translate(0, 0)">
    <path d="M 274.0,222.0 L 300.0,259.0 L 254.0,317.0 L 191.0,379.0 L 193.0,387.0"/>
    <path d="M 130.0,386.0 L 161.0,413.0 L 208.0,634.0"/>
    <path d="M 214.0,503.0 L 221.0,487.0 L 231.0,483.0 L 264.0,476.0 L 286.0,479.0"/>
    <path d="M 339.0,355.0 L 356.0,357.0 L 391.0,346.0 L 445.0,340.0 L 464.0,350.0 L 480.0,371.0 L 442.0,540.0 L 423.0,596.0 L 427.0,610.0"/>
    <path d="M 349.0,468.0 L 409.0,460.0 L 434.0,447.0"/>
    <path d="M 227.0,611.0 L 258.0,596.0 L 400.0,571.0"/>
    <path d="M 177.0,723.0 L 247.0,726.0 L 406.0,687.0 L 450.0,689.0"/>
    <path d="M 296.0,739.0 L 319.0,762.0 L 314.0,838.0 L 297.0,854.0"/>
    <path d="M 118.0,918.0 L 175.0,936.0 L 460.0,827.0"/>
    <path d="M 554.0,288.0 L 573.0,301.0 L 588.0,329.0 L 587.0,391.0 L 575.0,474.0 L 561.0,518.0 L 546.0,553.0 L 519.0,591.0"/>
    <path d="M 594.0,291.0 L 622.0,297.0 L 692.0,267.0 L 728.0,270.0 L 741.0,285.0 L 724.0,341.0 L 713.0,435.0 L 717.0,492.0 L 734.0,515.0 L 758.0,525.0 L 783.0,527.0 L 830.0,522.0 L 876.0,507.0 L 912.0,512.0"/>
    <path d="M 539.0,661.0 L 570.0,661.0 L 608.0,652.0 L 698.0,623.0 L 719.0,632.0 L 733.0,651.0 L 703.0,765.0 L 680.0,814.0 L 632.0,882.0 L 603.0,907.0 L 541.0,941.0 L 462.0,968.0 L 405.0,977.0"/>
    <path d="M 498.0,714.0 L 548.0,741.0 L 678.0,883.0 L 785.0,972.0 L 895.0,996.0 L 977.0,1006.0"/>
  </g>
</svg>
