<svg xmlns="http://www.w3.org/2000/svg" viewBox="0 0 1024 1024">
  <g style="fill:none;stroke:#000000;stroke-width:50;stroke-linecap:round;stroke-linejoin:round;" transform="scale(1, 1) translate(0, 0)">
    <path d="M 384.0,213.0 L 399.0,250.0 L 340.0,329.0 L 245.0,413.0 L 147.0,465.0"/>
    <path d="M 224.0,294.0 L 415.0,372.0 L 453.0,412.0"/>
    <path d="M 70.0,565.0 L 127.0,570.0 L 434.0,495.0 L 475.0,499.0"/>
    <path d="M 290.0,428.0 L 307.0,469.0 L 278.0,544.0 L 222.0,651.0 L 148.0,752.0 L 92.0,803.0 L 43.0,835.0"/>
    <path d="M 260.0,642.0 L 252.0,684.0 L 249.0,798.0 L 226.0,918.0 L 224.0,962.0"/>
    <path d="M 277.0,645.0 L 309.0,644.0 L 365.0,622.0 L 399.0,616.0 L 418.0,621.0 L 437.0,639.0 L 431.0,671.0 L 434.0,882.0 L 429.0,925.0 L 409.0,956.0 L 385.0,949.0 L 336.0,921.0"/>
    <path d="M 278.0,744.0 L 286.0,731.0 L 312.0,724.0 L 365.0,724.0"/>
    <path d="M 271.0,826.0 L 280.0,814.0 L 296.0,811.0 L 336.0,806.0 L 365.0,811.0"/>
    <path d="M 560.0,291.0 L 579.0,303.0 L 593.0,322.0 L 595.0,377.0 L 582.0,463.0 L 549.0,540.0 L 505.0,583.0 L 490.0,589.0"/>
    <path d="M 622.0,331.0 L 640.0,313.0 L 681.0,298.0 L 713.0,291.0 L 730.0,295.0 L 744.0,310.0 L 728.0,382.0 L 725.0,440.0 L 739.0,494.0 L 762.0,508.0 L 784.0,511.0 L 830.0,506.0 L 864.0,495.0 L 900.0,500.0"/>
    <path d="M 567.0,653.0 L 630.0,653.0 L 702.0,629.0 L 734.0,631.0 L 754.0,640.0 L 742.0,694.0 L 708.0,793.0 L 661.0,875.0 L 616.0,922.0 L 569.0,954.0 L 544.0,966.0 L 476.0,983.0"/>
    <path d="M 555.0,725.0 L 604.0,755.0 L 728.0,897.0 L 822.0,970.0 L 989.0,1004.0"/>
  </g>
</svg>
