<svg xmlns="http://www.w3.org/2000/svg" viewBox="0 0 1024 1024">
  <g style="fill:none;stroke:#000000;stroke-width:50;stroke-linecap:round;stroke-linejoin:round;" transform="scale(1, 1) translate(0, 0)">
    <path d="M 169.0,339.0 L 239.0,342.0 L 396.0,302.0 L 448.0,300.0"/>
    <path d="M 132.0,440.0 L 154.0,457.0 L 167.0,484.0 L 204.0,646.0"/>
    <path d="M 174.0,440.0 L 194.0,448.0 L 394.0,400.0 L 444.0,404.0 L 466.0,429.0 L 431.0,569.0 L 419.0,594.0 L 423.0,614.0"/>
    <path d="M 229.0,516.0 L 336.0,493.0 L 362.0,490.0 L 381.0,495.0"/>
    <path d="M 220.0,615.0 L 250.0,601.0 L 389.0,577.0"/>
    <path d="M 79.0,721.0 L 130.0,729.0 L 406.0,679.0 L 467.0,674.0 L 498.0,680.0"/>
    <path d="M 258.0,208.0 L 299.0,240.0 L 308.0,263.0 L 301.0,749.0 L 300.0,765.0 L 285.0,784.0"/>
    <path d="M 155.0,805.0 L 179.0,826.0 L 187.0,842.0 L 224.0,1022.0"/>
    <path d="M 204.0,806.0 L 221.0,816.0 L 384.0,783.0 L 415.0,791.0 L 438.0,816.0 L 406.0,908.0 L 385.0,923.0"/>
    <path d="M 241.0,961.0 L 252.0,971.0 L 377.0,952.0 L 420.0,954.0 L 442.0,962.0"/>
    <path d="M 550.0,315.0 L 577.0,335.0 L 585.0,357.0 L 587.0,405.0 L 580.0,474.0 L 570.0,516.0 L 551.0,558.0 L 514.0,602.0 L 490.0,618.0"/>
    <path d="M 604.0,321.0 L 617.0,330.0 L 629.0,330.0 L 695.0,304.0 L 725.0,301.0 L 738.0,304.0 L 753.0,321.0 L 723.0,465.0 L 727.0,514.0 L 744.0,543.0 L 791.0,557.0 L 837.0,554.0 L 883.0,542.0 L 919.0,549.0"/>
    <path d="M 540.0,693.0 L 592.0,691.0 L 702.0,658.0 L 738.0,662.0 L 755.0,670.0 L 732.0,755.0 L 709.0,812.0 L 690.0,848.0 L 644.0,907.0 L 594.0,947.0 L 543.0,974.0 L 485.0,993.0 L 456.0,995.0"/>
    <path d="M 511.0,747.0 L 548.0,758.0 L 682.0,896.0 L 807.0,996.0 L 952.0,1006.0"/>
  </g>
</svg>
