<svg xmlns="http://www.w3.org/2000/svg" viewBox="0 0 1024 1024">
  <g style="fill:none;stroke:#000000;stroke-width:50;stroke-linecap:round;stroke-linejoin:round;" transform="scale(1, 1) translate(0, 0)">
    <path d="M 325.0,265.0 L 357.0,320.0 L 347.0,433.0 L 306.0,604.0 L 236.0,810.0 L 285.0,817.0 L 406.0,805.0 L 532.0,803.0 L 735.0,815.0 L 796.0,828.0 L 860.0,869.0"/>
    <path d="M 394.0,293.0 L 411.0,305.0 L 546.0,274.0 L 643.0,260.0 L 668.0,268.0 L 701.0,304.0 L 686.0,666.0 L 669.0,789.0 L 637.0,920.0 L 611.0,981.0 L 592.0,1008.0 L 561.0,996.0 L 490.0,951.0"/>
    <path d="M 444.0,371.0 L 512.0,418.0 L 536.0,458.0"/>
    <path d="M 71.0,591.0 L 123.0,602.0 L 383.0,568.0 L 838.0,534.0 L 897.0,540.0 L 947.0,556.0"/>
    <path d="M 424.0,634.0 L 491.0,685.0 L 513.0,717.0"/>
  </g>
</svg>
