<svg xmlns="http://www.w3.org/2000/svg" viewBox="0 0 1024 1024">
  <g style="fill:none;stroke:#000000;stroke-width:50;stroke-linecap:round;stroke-linejoin:round;" transform="scale(1, 1) translate(0, 0)">
    <path d="M 351.0,376.0 L 363.0,365.0 L 427.0,347.0 L 484.0,345.0"/>
    <path d="M 290.0,260.0 L 323.0,297.0 L 327.0,390.0 L 317.0,502.0 L 364.0,496.0 L 481.0,442.0"/>
    <path d="M 726.0,267.0 L 730.0,301.0 L 657.0,339.0 L 576.0,371.0 L 573.0,381.0"/>
    <path d="M 519.0,195.0 L 554.0,240.0 L 544.0,364.0 L 556.0,449.0 L 572.0,475.0 L 591.0,487.0 L 679.0,501.0 L 745.0,498.0 L 818.0,480.0 L 828.0,472.0 L 829.0,452.0 L 824.0,345.0"/>
    <path d="M 264.0,624.0 L 290.0,633.0 L 325.0,634.0 L 664.0,585.0 L 707.0,586.0 L 731.0,593.0"/>
    <path d="M 329.0,662.0 L 351.0,691.0 L 331.0,720.0 L 229.0,828.0 L 164.0,873.0"/>
    <path d="M 341.0,751.0 L 438.0,736.0 L 460.0,741.0 L 472.0,761.0 L 425.0,854.0 L 360.0,935.0 L 279.0,1009.0 L 199.0,1053.0"/>
    <path d="M 285.0,808.0 L 294.0,811.0 L 325.0,846.0 L 336.0,868.0"/>
    <path d="M 732.0,686.0 L 741.0,698.0 L 748.0,728.0 L 602.0,832.0 L 598.0,844.0"/>
    <path d="M 544.0,667.0 L 582.0,716.0 L 571.0,782.0 L 571.0,920.0 L 580.0,962.0 L 611.0,993.0 L 671.0,1008.0 L 757.0,1011.0 L 830.0,1003.0 L 881.0,983.0 L 888.0,838.0"/>
  </g>
</svg>
