<svg xmlns="http://www.w3.org/2000/svg" viewBox="0 0 1024 1024">
  <g style="fill:none;stroke:#000000;stroke-width:50;stroke-linecap:round;stroke-linejoin:round;" transform="scale(1, 1) translate(0, 0)">
    <path d="M 311.0,424.0 L 324.0,411.0 L 388.0,395.0 L 436.0,390.0 L 448.0,394.0"/>
    <path d="M 250.0,300.0 L 283.0,341.0 L 287.0,424.0 L 275.0,555.0 L 321.0,550.0 L 457.0,490.0"/>
    <path d="M 738.0,277.0 L 744.0,313.0 L 670.0,357.0 L 570.0,404.0 L 569.0,413.0"/>
    <path d="M 514.0,231.0 L 550.0,278.0 L 539.0,389.0 L 543.0,480.0 L 552.0,523.0 L 571.0,546.0 L 609.0,561.0 L 674.0,569.0 L 767.0,565.0 L 825.0,548.0 L 836.0,541.0 L 836.0,413.0"/>
    <path d="M 239.0,747.0 L 226.0,812.0 L 180.0,925.0"/>
    <path d="M 335.0,749.0 L 375.0,844.0 L 419.0,895.0 L 473.0,928.0 L 512.0,942.0 L 626.0,963.0 L 722.0,963.0 L 750.0,955.0 L 774.0,938.0 L 713.0,786.0"/>
    <path d="M 419.0,646.0 L 484.0,707.0 L 496.0,730.0"/>
    <path d="M 609.0,651.0 L 625.0,692.0 L 616.0,714.0 L 543.0,824.0 L 467.0,905.0 L 424.0,939.0 L 336.0,990.0 L 214.0,1036.0"/>
    <path d="M 741.0,679.0 L 852.0,764.0 L 877.0,807.0"/>
  </g>
</svg>
