<svg xmlns="http://www.w3.org/2000/svg" viewBox="0 0 1024 1024">
  <g style="fill:none;stroke:#000000;stroke-width:50;stroke-linecap:round;stroke-linejoin:round;" transform="scale(1, 1) translate(0, 0)">
    <path d="M 445.0,167.0 L 519.0,201.0 L 550.0,237.0"/>
    <path d="M 240.0,324.0 L 291.0,331.0 L 436.0,304.0 L 718.0,270.0 L 755.0,274.0 L 789.0,286.0"/>
    <path d="M 344.0,383.0 L 371.0,402.0 L 378.0,416.0 L 407.0,518.0"/>
    <path d="M 398.0,383.0 L 409.0,391.0 L 590.0,349.0 L 611.0,352.0 L 639.0,381.0 L 621.0,423.0 L 599.0,434.0"/>
    <path d="M 424.0,503.0 L 434.0,491.0 L 576.0,465.0 L 643.0,471.0"/>
    <path d="M 206.0,566.0 L 216.0,597.0 L 212.0,619.0 L 168.0,693.0 L 164.0,746.0"/>
    <path d="M 244.0,621.0 L 257.0,610.0 L 442.0,575.0 L 756.0,528.0 L 795.0,544.0 L 812.0,569.0 L 751.0,643.0 L 740.0,647.0"/>
    <path d="M 604.0,653.0 L 542.0,636.0 L 461.0,675.0 L 397.0,698.0 L 386.0,696.0 L 375.0,705.0 L 361.0,702.0 L 356.0,709.0 L 334.0,708.0 L 327.0,716.0 L 312.0,719.0"/>
    <path d="M 309.0,793.0 L 368.0,798.0 L 506.0,772.0 L 578.0,749.0 L 634.0,747.0"/>
    <path d="M 225.0,903.0 L 236.0,911.0 L 291.0,916.0 L 631.0,840.0 L 669.0,835.0 L 706.0,840.0"/>
    <path d="M 441.0,709.0 L 477.0,730.0 L 467.0,858.0 L 473.0,944.0 L 494.0,987.0 L 533.0,1010.0 L 638.0,1024.0 L 738.0,1019.0 L 832.0,994.0 L 852.0,980.0 L 848.0,826.0"/>
  </g>
</svg>
