<svg xmlns="http://www.w3.org/2000/svg" viewBox="0 0 1024 1024">
  <g style="fill:none;stroke:#000000;stroke-width:50;stroke-linecap:round;stroke-linejoin:round;" transform="scale(1, 1) translate(0, 0)">
    <path d="M 660.0,254.0 L 635.0,247.0 L 584.0,247.0 L 485.0,309.0 L 364.0,363.0 L 345.0,366.0 L 337.0,374.0 L 317.0,377.0 L 312.0,388.0"/>
    <path d="M 220.0,354.0 L 269.0,394.0 L 274.0,447.0 L 274.0,639.0 L 267.0,759.0 L 254.0,852.0 L 258.0,892.0 L 291.0,888.0 L 323.0,873.0 L 451.0,781.0"/>
    <path d="M 348.0,595.0 L 394.0,598.0 L 439.0,592.0 L 702.0,514.0 L 749.0,512.0"/>
    <path d="M 444.0,353.0 L 482.0,368.0 L 496.0,385.0 L 498.0,445.0 L 513.0,528.0 L 540.0,614.0 L 586.0,714.0 L 641.0,805.0 L 727.0,907.0 L 805.0,969.0 L 831.0,982.0 L 864.0,987.0 L 883.0,950.0 L 906.0,839.0 L 913.0,830.0 L 913.0,808.0"/>
  </g>
</svg>
