<svg xmlns="http://www.w3.org/2000/svg" viewBox="0 0 1024 1024">
  <g style="fill:none;stroke:#000000;stroke-width:50;stroke-linecap:round;stroke-linejoin:round;" transform="scale(1, 1) translate(0, 0)">
    <path d="M 176.0,276.0 L 195.0,307.0 L 198.0,360.0 L 189.0,523.0 L 193.0,580.0"/>
    <path d="M 214.0,285.0 L 226.0,291.0 L 296.0,271.0 L 312.0,278.0 L 321.0,291.0 L 322.0,425.0 L 311.0,542.0 L 316.0,575.0"/>
    <path d="M 221.0,393.0 L 228.0,380.0 L 275.0,374.0"/>
    <path d="M 219.0,475.0 L 225.0,463.0 L 279.0,456.0"/>
    <path d="M 217.0,557.0 L 223.0,545.0 L 236.0,541.0 L 267.0,535.0 L 278.0,543.0"/>
    <path d="M 381.0,256.0 L 400.0,291.0 L 403.0,383.0 L 396.0,496.0 L 402.0,531.0"/>
    <path d="M 418.0,264.0 L 430.0,271.0 L 494.0,250.0 L 512.0,256.0 L 525.0,269.0 L 523.0,476.0 L 515.0,513.0 L 520.0,551.0"/>
    <path d="M 426.0,359.0 L 432.0,349.0 L 460.0,343.0 L 475.0,347.0"/>
    <path d="M 424.0,438.0 L 431.0,428.0 L 471.0,424.0"/>
    <path d="M 418.0,513.0 L 430.0,503.0 L 490.0,492.0"/>
    <path d="M 232.0,586.0 L 249.0,605.0 L 256.0,624.0 L 223.0,684.0 L 160.0,766.0 L 75.0,845.0"/>
    <path d="M 230.0,713.0 L 241.0,761.0 L 237.0,884.0 L 226.0,971.0 L 232.0,1030.0"/>
    <path d="M 366.0,565.0 L 406.0,592.0 L 416.0,607.0"/>
    <path d="M 292.0,670.0 L 341.0,674.0 L 450.0,649.0 L 503.0,646.0"/>
    <path d="M 317.0,764.0 L 364.0,758.0 L 444.0,736.0 L 480.0,739.0"/>
    <path d="M 313.0,836.0 L 457.0,807.0 L 485.0,811.0"/>
    <path d="M 379.0,690.0 L 400.0,707.0 L 397.0,868.0 L 383.0,890.0"/>
    <path d="M 265.0,923.0 L 271.0,930.0 L 289.0,931.0 L 469.0,902.0 L 542.0,914.0"/>
    <path d="M 825.0,363.0 L 755.0,360.0 L 673.0,424.0 L 581.0,472.0 L 572.0,482.0 L 555.0,482.0 L 544.0,494.0"/>
    <path d="M 559.0,599.0 L 629.0,596.0 L 760.0,552.0 L 796.0,547.0 L 809.0,551.0"/>
    <path d="M 524.0,736.0 L 574.0,737.0 L 803.0,679.0 L 866.0,680.0 L 888.0,687.0"/>
    <path d="M 632.0,474.0 L 660.0,490.0 L 645.0,754.0 L 654.0,856.0 L 677.0,923.0 L 709.0,945.0 L 774.0,961.0 L 819.0,961.0 L 900.0,942.0 L 939.0,911.0 L 949.0,797.0"/>
  </g>
</svg>
