<svg xmlns="http://www.w3.org/2000/svg" viewBox="0 0 1024 1024">
  <g style="fill:none;stroke:#000000;stroke-width:50;stroke-linecap:round;stroke-linejoin:round;" transform="scale(1, 1) translate(0, 0)">
    <path d="M 362.0,216.0 L 385.0,257.0 L 336.0,349.0 L 258.0,436.0 L 192.0,482.0"/>
    <path d="M 381.0,336.0 L 460.0,328.0 L 649.0,288.0 L 680.0,290.0"/>
    <path d="M 360.0,449.0 L 430.0,449.0 L 541.0,419.0 L 604.0,411.0"/>
    <path d="M 223.0,578.0 L 249.0,588.0 L 288.0,591.0 L 469.0,551.0 L 607.0,510.0 L 654.0,509.0 L 668.0,524.0 L 647.0,607.0 L 640.0,662.0 L 640.0,777.0 L 664.0,881.0 L 698.0,942.0 L 748.0,992.0 L 796.0,1023.0 L 860.0,1042.0 L 900.0,1037.0 L 916.0,1026.0 L 919.0,1013.0 L 934.0,887.0"/>
    <path d="M 380.0,657.0 L 401.0,671.0 L 418.0,696.0 L 401.0,786.0 L 381.0,848.0 L 339.0,916.0 L 313.0,942.0 L 266.0,976.0 L 219.0,998.0"/>
  </g>
</svg>
