<svg xmlns="http://www.w3.org/2000/svg" viewBox="0 0 1024 1024">
  <g style="fill:none;stroke:#000000;stroke-width:50;stroke-linecap:round;stroke-linejoin:round;" transform="scale(1, 1) translate(0, 0)">
    <path d="M 656.0,249.0 L 620.0,240.0 L 575.0,238.0 L 493.0,289.0 L 421.0,323.0 L 307.0,365.0 L 304.0,373.0"/>
    <path d="M 219.0,350.0 L 262.0,386.0 L 268.0,415.0 L 267.0,622.0 L 262.0,717.0 L 249.0,804.0 L 251.0,845.0 L 303.0,836.0 L 471.0,741.0"/>
    <path d="M 367.0,563.0 L 431.0,564.0 L 577.0,523.0 L 671.0,487.0 L 737.0,480.0"/>
    <path d="M 462.0,333.0 L 496.0,349.0 L 516.0,374.0 L 528.0,475.0 L 567.0,594.0 L 591.0,642.0 L 664.0,760.0 L 732.0,836.0 L 811.0,893.0 L 857.0,905.0 L 877.0,865.0 L 915.0,723.0"/>
    <path d="M 436.0,819.0 L 543.0,891.0 L 576.0,938.0"/>
  </g>
</svg>
