<svg xmlns="http://www.w3.org/2000/svg" viewBox="0 0 1024 1024">
  <g style="fill:none;stroke:#000000;stroke-width:50;stroke-linecap:round;stroke-linejoin:round;" transform="scale(1, 1) translate(0, 0)">
    <path d="M 358.0,200.0 L 382.0,240.0 L 343.0,314.0 L 274.0,401.0 L 241.0,431.0 L 188.0,466.0"/>
    <path d="M 360.0,343.0 L 438.0,335.0 L 629.0,293.0 L 660.0,294.0"/>
    <path d="M 352.0,445.0 L 409.0,449.0 L 551.0,413.0 L 600.0,411.0"/>
    <path d="M 223.0,574.0 L 249.0,584.0 L 288.0,587.0 L 462.0,548.0 L 605.0,505.0 L 661.0,502.0 L 675.0,516.0 L 655.0,580.0 L 642.0,658.0 L 641.0,781.0 L 664.0,888.0 L 698.0,952.0 L 725.0,984.0 L 776.0,1023.0 L 815.0,1041.0 L 875.0,1054.0 L 915.0,1042.0 L 927.0,920.0"/>
    <path d="M 261.0,661.0 L 286.0,681.0 L 297.0,702.0 L 291.0,768.0 L 273.0,856.0 L 245.0,919.0 L 226.0,945.0 L 191.0,977.0 L 154.0,996.0"/>
    <path d="M 448.0,638.0 L 472.0,655.0 L 484.0,679.0 L 479.0,1027.0"/>
  </g>
</svg>
