<svg xmlns="http://www.w3.org/2000/svg" viewBox="0 0 1024 1024">
  <g style="fill:none;stroke:#000000;stroke-width:50;stroke-linecap:round;stroke-linejoin:round;" transform="scale(1, 1) translate(0, 0)">
    <path d="M 346.0,187.0 L 357.0,196.0 L 373.0,230.0 L 360.0,256.0 L 285.0,369.0 L 242.0,417.0 L 203.0,448.0"/>
    <path d="M 376.0,300.0 L 448.0,293.0 L 630.0,253.0 L 673.0,253.0"/>
    <path d="M 388.0,377.0 L 445.0,382.0 L 571.0,352.0 L 620.0,351.0"/>
    <path d="M 215.0,511.0 L 262.0,512.0 L 645.0,436.0 L 674.0,440.0 L 697.0,463.0 L 687.0,510.0 L 683.0,613.0 L 697.0,756.0 L 720.0,844.0 L 765.0,934.0 L 793.0,968.0 L 837.0,1003.0 L 875.0,1020.0 L 901.0,1023.0 L 923.0,965.0 L 938.0,859.0"/>
    <path d="M 360.0,530.0 L 413.0,569.0 L 419.0,590.0"/>
    <path d="M 245.0,607.0 L 254.0,624.0 L 251.0,649.0 L 214.0,711.0 L 209.0,754.0"/>
    <path d="M 275.0,652.0 L 443.0,606.0 L 524.0,600.0 L 547.0,611.0 L 558.0,624.0 L 512.0,699.0"/>
    <path d="M 346.0,677.0 L 358.0,689.0 L 365.0,710.0 L 303.0,876.0 L 323.0,890.0 L 457.0,947.0 L 513.0,982.0 L 561.0,1031.0"/>
    <path d="M 437.0,743.0 L 461.0,767.0 L 455.0,806.0 L 426.0,885.0 L 389.0,940.0 L 356.0,970.0 L 293.0,1005.0 L 249.0,1020.0 L 197.0,1027.0"/>
    <path d="M 105.0,821.0 L 131.0,829.0 L 175.0,829.0 L 532.0,767.0 L 592.0,760.0 L 634.0,767.0"/>
  </g>
</svg>
