<svg xmlns="http://www.w3.org/2000/svg" viewBox="0 0 1024 1024">
  <g style="fill:none;stroke:#000000;stroke-width:50;stroke-linecap:round;stroke-linejoin:round;" transform="scale(1, 1) translate(0, 0)">
    <path d="M 384.0,169.0 L 405.0,191.0 L 414.0,215.0 L 409.0,224.0 L 363.0,298.0 L 309.0,367.0 L 236.0,445.0 L 200.0,471.0"/>
    <path d="M 395.0,299.0 L 508.0,286.0 L 645.0,241.0 L 702.0,237.0"/>
    <path d="M 387.0,405.0 L 409.0,410.0 L 451.0,405.0 L 576.0,366.0 L 621.0,363.0"/>
    <path d="M 256.0,531.0 L 301.0,544.0 L 318.0,543.0 L 509.0,502.0 L 646.0,462.0 L 690.0,460.0 L 704.0,475.0 L 685.0,537.0 L 672.0,609.0 L 670.0,740.0 L 685.0,824.0 L 721.0,909.0 L 758.0,955.0 L 812.0,996.0 L 864.0,1019.0 L 915.0,1028.0 L 958.0,1014.0 L 954.0,891.0"/>
    <path d="M 237.0,626.0 L 288.0,657.0 L 307.0,689.0"/>
    <path d="M 515.0,570.0 L 532.0,594.0 L 467.0,670.0"/>
    <path d="M 144.0,777.0 L 195.0,786.0 L 538.0,715.0 L 590.0,718.0"/>
    <path d="M 369.0,596.0 L 406.0,634.0 L 399.0,1044.0"/>
    <path d="M 375.0,771.0 L 316.0,851.0 L 250.0,919.0 L 205.0,954.0 L 137.0,991.0"/>
    <path d="M 472.0,826.0 L 550.0,871.0 L 565.0,886.0 L 584.0,924.0"/>
  </g>
</svg>
