<svg xmlns="http://www.w3.org/2000/svg" viewBox="0 0 1024 1024">
  <g style="fill:none;stroke:#000000;stroke-width:50;stroke-linecap:round;stroke-linejoin:round;" transform="scale(1, 1) translate(0, 0)">
    <path d="M 370.0,191.0 L 390.0,219.0 L 391.0,230.0 L 367.0,280.0 L 303.0,366.0 L 224.0,430.0"/>
    <path d="M 377.0,319.0 L 502.0,305.0 L 655.0,269.0 L 695.0,267.0 L 707.0,276.0"/>
    <path d="M 353.0,405.0 L 399.0,411.0 L 574.0,378.0 L 611.0,378.0"/>
    <path d="M 228.0,502.0 L 248.0,512.0 L 290.0,518.0 L 481.0,483.0 L 627.0,446.0 L 681.0,446.0 L 694.0,459.0 L 670.0,518.0 L 651.0,589.0 L 637.0,704.0 L 641.0,790.0 L 671.0,887.0 L 713.0,948.0 L 753.0,982.0 L 815.0,1016.0 L 865.0,1024.0 L 896.0,1013.0 L 903.0,879.0"/>
    <path d="M 357.0,545.0 L 414.0,595.0"/>
    <path d="M 158.0,653.0 L 187.0,661.0 L 218.0,661.0 L 521.0,602.0 L 574.0,606.0"/>
    <path d="M 329.0,664.0 L 348.0,681.0 L 345.0,688.0 L 316.0,733.0 L 277.0,774.0 L 271.0,791.0 L 283.0,796.0 L 374.0,798.0 L 397.0,790.0"/>
    <path d="M 469.0,684.0 L 483.0,721.0 L 411.0,813.0 L 315.0,893.0 L 243.0,937.0 L 212.0,952.0 L 199.0,951.0 L 195.0,957.0"/>
    <path d="M 562.0,812.0 L 531.0,819.0 L 476.0,883.0 L 406.0,945.0 L 323.0,1001.0 L 265.0,1028.0"/>
    <path d="M 469.0,928.0 L 487.0,929.0 L 506.0,939.0 L 566.0,981.0 L 596.0,1028.0"/>
  </g>
</svg>
