<svg xmlns="http://www.w3.org/2000/svg" viewBox="0 0 1024 1024">
  <g style="fill:none;stroke:#000000;stroke-width:50;stroke-linecap:round;stroke-linejoin:round;" transform="scale(1, 1) translate(0, 0)">
    <path d="M 118.0,381.0 L 221.0,372.0 L 325.0,346.0 L 354.0,347.0 L 371.0,360.0 L 354.0,399.0 L 295.0,477.0 L 239.0,572.0 L 207.0,642.0 L 186.0,714.0 L 176.0,801.0 L 180.0,845.0 L 193.0,872.0 L 229.0,897.0 L 310.0,925.0 L 479.0,948.0 L 582.0,945.0 L 763.0,924.0 L 839.0,898.0 L 861.0,882.0 L 866.0,823.0 L 861.0,733.0"/>
    <path d="M 568.0,242.0 L 589.0,256.0 L 608.0,283.0 L 598.0,487.0 L 598.0,776.0 L 581.0,813.0 L 553.0,803.0 L 477.0,755.0"/>
    <path d="M 367.0,535.0 L 412.0,539.0 L 494.0,517.0 L 514.0,530.0 L 493.0,591.0 L 451.0,659.0 L 397.0,718.0 L 353.0,746.0"/>
    <path d="M 752.0,393.0 L 767.0,413.0 L 766.0,430.0 L 659.0,531.0"/>
    <path d="M 625.0,536.0 L 636.0,551.0 L 715.0,597.0 L 762.0,632.0 L 785.0,654.0 L 807.0,695.0"/>
  </g>
</svg>
