<svg xmlns="http://www.w3.org/2000/svg" viewBox="0 0 1024 1024">
  <g style="fill:none;stroke:#000000;stroke-width:50;stroke-linecap:round;stroke-linejoin:round;" transform="scale(1, 1) translate(0, 0)">
    <path d="M 473.0,228.0 L 502.0,272.0 L 455.0,353.0 L 388.0,439.0 L 309.0,524.0 L 274.0,552.0 L 200.0,606.0 L 116.0,651.0"/>
    <path d="M 521.0,317.0 L 525.0,333.0 L 539.0,339.0 L 545.0,351.0 L 620.0,416.0 L 714.0,487.0 L 792.0,535.0 L 824.0,549.0 L 973.0,565.0"/>
    <path d="M 477.0,498.0 L 502.0,513.0 L 521.0,540.0 L 513.0,713.0 L 517.0,956.0 L 508.0,985.0 L 497.0,999.0 L 413.0,972.0 L 375.0,952.0 L 365.0,953.0"/>
    <path d="M 203.0,722.0 L 255.0,732.0 L 373.0,709.0 L 402.0,725.0 L 368.0,802.0 L 297.0,901.0 L 225.0,965.0 L 151.0,1008.0"/>
    <path d="M 745.0,636.0 L 710.0,625.0 L 601.0,726.0 L 594.0,724.0"/>
    <path d="M 542.0,711.0 L 593.0,758.0 L 598.0,771.0 L 682.0,863.0 L 774.0,946.0 L 792.0,956.0 L 906.0,973.0"/>
  </g>
</svg>
