<svg xmlns="http://www.w3.org/2000/svg" viewBox="0 0 1024 1024">
  <g style="fill:none;stroke:#000000;stroke-width:50;stroke-linecap:round;stroke-linejoin:round;" transform="scale(1, 1) translate(0, 0)">
    <path d="M 428.0,200.0 L 503.0,243.0 L 533.0,268.0 L 539.0,283.0"/>
    <path d="M 309.0,445.0 L 358.0,444.0 L 462.0,411.0 L 482.0,416.0 L 508.0,443.0 L 505.0,903.0 L 500.0,965.0 L 478.0,1000.0 L 355.0,946.0"/>
    <path d="M 110.0,633.0 L 149.0,640.0 L 198.0,637.0 L 322.0,606.0 L 339.0,607.0 L 367.0,622.0 L 345.0,691.0 L 273.0,816.0 L 201.0,895.0 L 125.0,946.0"/>
    <path d="M 725.0,403.0 L 743.0,428.0 L 749.0,446.0 L 743.0,454.0 L 656.0,535.0 L 569.0,603.0 L 569.0,609.0"/>
    <path d="M 532.0,583.0 L 551.0,625.0 L 568.0,646.0 L 678.0,765.0 L 750.0,830.0 L 801.0,861.0 L 954.0,879.0"/>
  </g>
</svg>
