<svg xmlns="http://www.w3.org/2000/svg" viewBox="0 0 1024 1024">
  <g style="fill:none;stroke:#000000;stroke-width:50;stroke-linecap:round;stroke-linejoin:round;" transform="scale(1, 1) translate(0, 0)">
    <path d="M 284.0,329.0 L 310.0,341.0 L 347.0,344.0 L 572.0,271.0 L 608.0,267.0 L 633.0,279.0 L 647.0,305.0 L 630.0,330.0 L 517.0,435.0 L 502.0,435.0"/>
    <path d="M 450.0,430.0 L 500.0,477.0 L 506.0,509.0 L 517.0,605.0 L 523.0,743.0 L 515.0,917.0 L 499.0,973.0 L 465.0,1014.0 L 353.0,960.0"/>
    <path d="M 126.0,604.0 L 191.0,610.0 L 335.0,568.0 L 365.0,570.0 L 384.0,584.0 L 366.0,636.0 L 330.0,700.0 L 248.0,809.0 L 160.0,885.0 L 78.0,931.0"/>
    <path d="M 750.0,449.0 L 772.0,492.0 L 621.0,631.0 L 602.0,637.0"/>
    <path d="M 544.0,588.0 L 580.0,650.0 L 640.0,722.0 L 701.0,788.0 L 770.0,848.0 L 801.0,864.0 L 984.0,901.0"/>
  </g>
</svg>
