<svg xmlns="http://www.w3.org/2000/svg" viewBox="0 0 1024 1024">
  <g style="fill:none;stroke:#000000;stroke-width:50;stroke-linecap:round;stroke-linejoin:round;" transform="scale(1, 1) translate(0, 0)">
    <path d="M 231.0,257.0 L 311.0,304.0 L 340.0,344.0"/>
    <path d="M 132.0,448.0 L 211.0,503.0 L 234.0,532.0"/>
    <path d="M 198.0,989.0 L 184.0,951.0 L 183.0,903.0 L 216.0,849.0 L 336.0,610.0"/>
    <path d="M 371.0,432.0 L 397.0,442.0 L 435.0,443.0 L 659.0,395.0 L 692.0,400.0 L 711.0,416.0 L 656.0,607.0 L 614.0,696.0 L 568.0,766.0 L 520.0,822.0 L 468.0,864.0 L 392.0,912.0 L 296.0,959.0"/>
    <path d="M 387.0,548.0 L 418.0,563.0 L 447.0,588.0 L 613.0,798.0 L 732.0,909.0 L 847.0,942.0 L 963.0,964.0"/>
  </g>
</svg>
