<svg xmlns="http://www.w3.org/2000/svg" viewBox="0 0 1024 1024">
  <g style="fill:none;stroke:#000000;stroke-width:50;stroke-linecap:round;stroke-linejoin:round;" transform="scale(1, 1) translate(0, 0)">
    <path d="M 227.0,258.0 L 317.0,312.0 L 340.0,348.0"/>
    <path d="M 129.0,477.0 L 207.0,529.0 L 234.0,569.0"/>
    <path d="M 187.0,949.0 L 177.0,919.0 L 177.0,867.0 L 332.0,604.0"/>
    <path d="M 572.0,219.0 L 589.0,232.0 L 609.0,265.0 L 577.0,335.0 L 485.0,488.0 L 410.0,586.0 L 387.0,605.0"/>
    <path d="M 539.0,460.0 L 599.0,457.0 L 739.0,421.0 L 768.0,424.0 L 790.0,447.0 L 711.0,654.0 L 665.0,739.0 L 609.0,823.0 L 533.0,908.0 L 471.0,963.0 L 376.0,1025.0 L 310.0,1053.0"/>
    <path d="M 485.0,587.0 L 555.0,662.0 L 567.0,690.0"/>
  </g>
</svg>
