<svg xmlns="http://www.w3.org/2000/svg" viewBox="0 0 1024 1024">
  <g style="fill:none;stroke:#000000;stroke-width:50;stroke-linecap:round;stroke-linejoin:round;" transform="scale(1, 1) translate(0, 0)">
    <path d="M 202.0,254.0 L 297.0,318.0 L 323.0,362.0"/>
    <path d="M 120.0,489.0 L 212.0,555.0 L 226.0,578.0"/>
    <path d="M 173.0,1009.0 L 158.0,970.0 L 155.0,924.0 L 285.0,649.0"/>
    <path d="M 406.0,364.0 L 434.0,365.0 L 506.0,353.0 L 676.0,303.0 L 706.0,301.0 L 726.0,309.0 L 739.0,324.0 L 701.0,456.0 L 683.0,609.0 L 688.0,727.0 L 716.0,845.0 L 746.0,900.0 L 804.0,957.0 L 856.0,979.0 L 904.0,982.0 L 923.0,978.0 L 929.0,958.0 L 949.0,814.0"/>
    <path d="M 335.0,635.0 L 391.0,637.0 L 566.0,599.0 L 612.0,603.0"/>
    <path d="M 457.0,422.0 L 491.0,465.0 L 483.0,577.0 L 445.0,797.0 L 407.0,909.0 L 399.0,969.0"/>
  </g>
</svg>
