<svg xmlns="http://www.w3.org/2000/svg" viewBox="0 0 1024 1024">
  <g style="fill:none;stroke:#000000;stroke-width:50;stroke-linecap:round;stroke-linejoin:round;" transform="scale(1, 1) translate(0, 0)">
    <path d="M 239.0,281.0 L 325.0,330.0 L 350.0,366.0"/>
    <path d="M 137.0,458.0 L 207.0,514.0 L 227.0,541.0"/>
    <path d="M 157.0,1004.0 L 144.0,960.0 L 144.0,919.0 L 171.0,879.0 L 292.0,653.0"/>
    <path d="M 550.0,293.0 L 644.0,354.0 L 674.0,398.0"/>
    <path d="M 336.0,582.0 L 388.0,593.0 L 833.0,518.0 L 868.0,517.0 L 916.0,526.0"/>
    <path d="M 435.0,618.0 L 466.0,638.0 L 478.0,659.0 L 475.0,864.0 L 485.0,904.0 L 506.0,925.0 L 553.0,939.0 L 611.0,942.0 L 724.0,934.0 L 811.0,914.0 L 888.0,915.0"/>
  </g>
</svg>
