<svg xmlns="http://www.w3.org/2000/svg" viewBox="0 0 1024 1024">
  <g style="fill:none;stroke:#000000;stroke-width:50;stroke-linecap:round;stroke-linejoin:round;" transform="scale(1, 1) translate(0, 0)">
    <path d="M 237.0,265.0 L 313.0,329.0 L 338.0,375.0"/>
    <path d="M 130.0,491.0 L 202.0,546.0 L 227.0,584.0"/>
    <path d="M 169.0,1011.0 L 157.0,969.0 L 159.0,928.0 L 201.0,863.0 L 292.0,696.0 L 315.0,667.0 L 328.0,636.0"/>
    <path d="M 505.0,419.0 L 528.0,401.0 L 680.0,358.0 L 715.0,351.0 L 739.0,359.0 L 763.0,385.0 L 764.0,401.0 L 719.0,511.0 L 689.0,531.0"/>
    <path d="M 488.0,606.0 L 509.0,593.0 L 679.0,562.0 L 738.0,559.0 L 762.0,567.0"/>
    <path d="M 439.0,378.0 L 466.0,408.0 L 471.0,430.0 L 453.0,651.0 L 454.0,799.0 L 471.0,886.0 L 502.0,930.0 L 550.0,956.0 L 586.0,967.0 L 675.0,976.0 L 767.0,970.0 L 839.0,949.0 L 884.0,921.0 L 897.0,904.0 L 908.0,745.0"/>
  </g>
</svg>
