<svg xmlns="http://www.w3.org/2000/svg" viewBox="0 0 1024 1024">
  <g style="fill:none;stroke:#000000;stroke-width:50;stroke-linecap:round;stroke-linejoin:round;" transform="scale(1, 1) translate(0, 0)">
    <path d="M 189.0,252.0 L 279.0,311.0 L 302.0,350.0"/>
    <path d="M 109.0,454.0 L 187.0,508.0 L 203.0,525.0 L 208.0,542.0"/>
    <path d="M 196.0,941.0 L 184.0,910.0 L 182.0,858.0 L 320.0,598.0"/>
    <path d="M 513.0,217.0 L 606.0,285.0 L 633.0,330.0"/>
    <path d="M 341.0,483.0 L 397.0,488.0 L 596.0,450.0 L 810.0,420.0 L 851.0,421.0 L 904.0,435.0"/>
    <path d="M 577.0,479.0 L 607.0,505.0 L 596.0,967.0 L 608.0,1042.0"/>
    <path d="M 668.0,591.0 L 799.0,672.0 L 829.0,705.0 L 845.0,738.0"/>
  </g>
</svg>
