<svg xmlns="http://www.w3.org/2000/svg" viewBox="0 0 1024 1024">
  <g style="fill:none;stroke:#000000;stroke-width:50;stroke-linecap:round;stroke-linejoin:round;" transform="scale(1, 1) translate(0, 0)">
    <path d="M 219.0,249.0 L 303.0,296.0 L 333.0,335.0"/>
    <path d="M 132.0,445.0 L 215.0,499.0 L 232.0,522.0"/>
    <path d="M 188.0,987.0 L 173.0,949.0 L 169.0,906.0 L 198.0,853.0 L 293.0,633.0"/>
    <path d="M 674.0,330.0 L 699.0,363.0 L 672.0,460.0 L 643.0,522.0 L 616.0,567.0 L 546.0,644.0 L 470.0,700.0"/>
    <path d="M 479.0,433.0 L 670.0,581.0 L 721.0,633.0 L 740.0,672.0"/>
    <path d="M 346.0,535.0 L 386.0,579.0 L 391.0,607.0 L 394.0,687.0 L 382.0,807.0 L 384.0,823.0 L 391.0,827.0 L 417.0,827.0 L 652.0,771.0 L 782.0,755.0 L 802.0,738.0"/>
    <path d="M 827.0,430.0 L 865.0,477.0 L 826.0,844.0"/>
  </g>
</svg>
