<svg xmlns="http://www.w3.org/2000/svg" viewBox="0 0 1024 1024">
  <g style="fill:none;stroke:#000000;stroke-width:50;stroke-linecap:round;stroke-linejoin:round;" transform="scale(1, 1) translate(0, 0)">
    <path d="M 211.0,334.0 L 302.0,391.0 L 321.0,424.0"/>
    <path d="M 109.0,544.0 L 193.0,593.0 L 216.0,619.0"/>
    <path d="M 171.0,1043.0 L 160.0,1012.0 L 159.0,963.0 L 304.0,696.0"/>
    <path d="M 345.0,566.0 L 383.0,572.0 L 403.0,569.0 L 593.0,523.0 L 743.0,495.0 L 783.0,492.0 L 842.0,504.0"/>
    <path d="M 521.0,231.0 L 555.0,251.0 L 575.0,281.0 L 545.0,569.0 L 508.0,731.0 L 470.0,824.0 L 425.0,885.0 L 328.0,961.0 L 265.0,988.0"/>
    <path d="M 571.0,602.0 L 576.0,643.0 L 635.0,736.0 L 700.0,825.0 L 770.0,905.0 L 823.0,946.0 L 986.0,986.0"/>
    <path d="M 494.0,851.0 L 499.0,861.0 L 570.0,917.0 L 588.0,953.0"/>
  </g>
</svg>
