<svg xmlns="http://www.w3.org/2000/svg" viewBox="0 0 1024 1024">
  <g style="fill:none;stroke:#000000;stroke-width:50;stroke-linecap:round;stroke-linejoin:round;" transform="scale(1, 1) translate(0, 0)">
    <path d="M 219.0,281.0 L 299.0,326.0 L 330.0,365.0"/>
    <path d="M 131.0,481.0 L 202.0,526.0 L 234.0,565.0"/>
    <path d="M 181.0,990.0 L 165.0,947.0 L 164.0,905.0 L 190.0,863.0 L 300.0,634.0"/>
    <path d="M 760.0,311.0 L 687.0,301.0 L 585.0,365.0 L 486.0,407.0 L 482.0,414.0 L 442.0,426.0 L 435.0,423.0 L 423.0,433.0"/>
    <path d="M 337.0,604.0 L 389.0,609.0 L 595.0,569.0 L 791.0,541.0 L 868.0,555.0"/>
    <path d="M 506.0,422.0 L 540.0,435.0 L 555.0,462.0 L 535.0,669.0 L 503.0,781.0 L 482.0,820.0 L 441.0,870.0 L 385.0,907.0 L 292.0,945.0"/>
    <path d="M 573.0,642.0 L 577.0,665.0 L 679.0,802.0 L 786.0,918.0 L 834.0,937.0 L 956.0,967.0"/>
  </g>
</svg>
