<svg xmlns="http://www.w3.org/2000/svg" viewBox="0 0 1024 1024">
  <g style="fill:none;stroke:#000000;stroke-width:50;stroke-linecap:round;stroke-linejoin:round;" transform="scale(1, 1) translate(0, 0)">
    <path d="M 191.0,257.0 L 275.0,302.0 L 305.0,340.0"/>
    <path d="M 113.0,469.0 L 195.0,516.0 L 214.0,539.0"/>
    <path d="M 173.0,952.0 L 159.0,910.0 L 159.0,867.0 L 296.0,614.0"/>
    <path d="M 735.0,273.0 L 716.0,267.0 L 662.0,268.0 L 573.0,330.0 L 485.0,374.0 L 485.0,383.0"/>
    <path d="M 390.0,358.0 L 421.0,382.0 L 436.0,408.0 L 435.0,578.0 L 419.0,711.0 L 392.0,795.0 L 358.0,857.0 L 293.0,934.0 L 237.0,975.0"/>
    <path d="M 472.0,568.0 L 487.0,554.0 L 559.0,536.0 L 811.0,489.0 L 857.0,488.0 L 906.0,498.0"/>
    <path d="M 631.0,552.0 L 673.0,578.0 L 671.0,1088.0"/>
  </g>
</svg>
