<svg xmlns="http://www.w3.org/2000/svg" viewBox="0 0 1024 1024">
  <g style="fill:none;stroke:#000000;stroke-width:50;stroke-linecap:round;stroke-linejoin:round;" transform="scale(1, 1) translate(0, 0)">
    <path d="M 207.0,281.0 L 298.0,340.0 L 326.0,383.0"/>
    <path d="M 134.0,473.0 L 214.0,521.0 L 247.0,553.0"/>
    <path d="M 203.0,989.0 L 188.0,952.0 L 184.0,902.0 L 305.0,641.0"/>
    <path d="M 402.0,440.0 L 467.0,444.0 L 707.0,387.0 L 752.0,383.0 L 786.0,388.0"/>
    <path d="M 389.0,551.0 L 422.0,598.0 L 410.0,738.0 L 453.0,737.0 L 606.0,689.0 L 706.0,667.0 L 721.0,651.0"/>
    <path d="M 734.0,483.0 L 748.0,492.0 L 769.0,524.0 L 750.0,725.0"/>
    <path d="M 537.0,199.0 L 569.0,216.0 L 593.0,247.0 L 574.0,476.0 L 571.0,740.0 L 582.0,876.0 L 602.0,933.0 L 620.0,951.0 L 646.0,964.0 L 704.0,975.0 L 783.0,975.0 L 841.0,966.0 L 876.0,952.0 L 898.0,933.0 L 899.0,777.0"/>
  </g>
</svg>
