<svg xmlns="http://www.w3.org/2000/svg" viewBox="0 0 1024 1024">
  <g style="fill:none;stroke:#000000;stroke-width:50;stroke-linecap:round;stroke-linejoin:round;" transform="scale(1, 1) translate(0, 0)">
    <path d="M 177.0,304.0 L 264.0,359.0 L 289.0,400.0"/>
    <path d="M 116.0,513.0 L 203.0,571.0 L 220.0,594.0"/>
    <path d="M 182.0,984.0 L 167.0,939.0 L 164.0,898.0 L 189.0,856.0 L 293.0,629.0"/>
    <path d="M 489.0,232.0 L 592.0,291.0 L 624.0,337.0"/>
    <path d="M 329.0,511.0 L 374.0,517.0 L 522.0,482.0 L 780.0,439.0 L 808.0,440.0 L 861.0,455.0"/>
    <path d="M 423.0,613.0 L 444.0,626.0 L 462.0,650.0 L 454.0,746.0 L 429.0,853.0 L 403.0,903.0 L 360.0,959.0 L 322.0,994.0 L 257.0,1035.0"/>
    <path d="M 495.0,627.0 L 513.0,631.0 L 638.0,592.0 L 657.0,597.0 L 671.0,610.0 L 623.0,782.0 L 616.0,840.0 L 618.0,890.0 L 640.0,950.0 L 669.0,981.0 L 701.0,1001.0 L 754.0,1020.0 L 820.0,1025.0 L 874.0,1015.0 L 914.0,994.0 L 920.0,987.0 L 921.0,962.0 L 919.0,844.0"/>
  </g>
</svg>
