<svg xmlns="http://www.w3.org/2000/svg" viewBox="0 0 1024 1024">
  <g style="fill:none;stroke:#000000;stroke-width:50;stroke-linecap:round;stroke-linejoin:round;" transform="scale(1, 1) translate(0, 0)">
    <path d="M 185.0,289.0 L 275.0,351.0 L 301.0,394.0"/>
    <path d="M 104.0,505.0 L 180.0,561.0 L 195.0,584.0"/>
    <path d="M 165.0,1021.0 L 151.0,980.0 L 150.0,928.0 L 304.0,646.0"/>
    <path d="M 403.0,358.0 L 418.0,393.0 L 408.0,430.0 L 371.0,502.0 L 371.0,553.0"/>
    <path d="M 442.0,421.0 L 464.0,408.0 L 564.0,382.0 L 738.0,351.0 L 774.0,367.0 L 788.0,389.0 L 717.0,484.0"/>
    <path d="M 427.0,584.0 L 450.0,595.0 L 467.0,612.0 L 469.0,625.0 L 465.0,741.0 L 447.0,827.0 L 423.0,880.0 L 380.0,942.0 L 348.0,973.0 L 293.0,1011.0"/>
    <path d="M 509.0,610.0 L 532.0,594.0 L 610.0,571.0 L 640.0,570.0 L 658.0,582.0 L 630.0,726.0 L 626.0,861.0 L 648.0,941.0 L 676.0,977.0 L 714.0,1004.0 L 780.0,1025.0 L 833.0,1028.0 L 882.0,1018.0 L 917.0,1001.0 L 932.0,988.0 L 927.0,833.0"/>
  </g>
</svg>
