<svg xmlns="http://www.w3.org/2000/svg" viewBox="0 0 1024 1024">
  <g style="fill:none;stroke:#000000;stroke-width:50;stroke-linecap:round;stroke-linejoin:round;" transform="scale(1, 1) translate(0, 0)">
    <path d="M 207.0,278.0 L 312.0,345.0 L 332.0,380.0"/>
    <path d="M 129.0,484.0 L 210.0,539.0 L 233.0,569.0"/>
    <path d="M 189.0,982.0 L 177.0,952.0 L 173.0,898.0 L 312.0,618.0"/>
    <path d="M 482.0,334.0 L 505.0,344.0 L 582.0,338.0 L 790.0,289.0 L 828.0,292.0"/>
    <path d="M 413.0,313.0 L 441.0,335.0 L 453.0,364.0 L 447.0,513.0 L 421.0,661.0 L 390.0,760.0 L 355.0,833.0 L 334.0,871.0 L 280.0,941.0"/>
    <path d="M 486.0,614.0 L 514.0,623.0 L 549.0,622.0 L 799.0,565.0 L 827.0,578.0 L 837.0,591.0 L 809.0,806.0 L 788.0,887.0 L 762.0,942.0 L 739.0,964.0 L 726.0,968.0 L 629.0,913.0"/>
    <path d="M 636.0,427.0 L 669.0,473.0 L 637.0,630.0 L 609.0,719.0 L 536.0,861.0 L 477.0,936.0 L 438.0,971.0"/>
  </g>
</svg>
