<svg xmlns="http://www.w3.org/2000/svg" viewBox="0 0 1024 1024">
  <g style="fill:none;stroke:#000000;stroke-width:50;stroke-linecap:round;stroke-linejoin:round;" transform="scale(1, 1) translate(0, 0)">
    <path d="M 210.0,281.0 L 299.0,341.0 L 323.0,382.0"/>
    <path d="M 120.0,476.0 L 199.0,531.0 L 222.0,560.0"/>
    <path d="M 183.0,993.0 L 169.0,953.0 L 169.0,904.0 L 203.0,852.0 L 320.0,633.0"/>
    <path d="M 426.0,443.0 L 449.0,450.0 L 502.0,450.0 L 640.0,424.0 L 740.0,398.0 L 763.0,395.0 L 789.0,401.0"/>
    <path d="M 427.0,589.0 L 449.0,596.0 L 499.0,597.0 L 638.0,575.0 L 752.0,549.0 L 787.0,557.0"/>
    <path d="M 347.0,750.0 L 373.0,757.0 L 417.0,757.0 L 555.0,734.0 L 808.0,706.0 L 850.0,710.0 L 903.0,725.0"/>
    <path d="M 545.0,205.0 L 573.0,212.0 L 610.0,247.0 L 602.0,369.0 L 599.0,1062.0"/>
  </g>
</svg>
