<svg xmlns="http://www.w3.org/2000/svg" viewBox="0 0 1024 1024">
  <g style="fill:none;stroke:#000000;stroke-width:50;stroke-linecap:round;stroke-linejoin:round;" transform="scale(1, 1) translate(0, 0)">
    <path d="M 217.0,272.0 L 300.0,329.0 L 324.0,371.0"/>
    <path d="M 123.0,485.0 L 195.0,533.0 L 216.0,567.0"/>
    <path d="M 181.0,1007.0 L 168.0,977.0 L 166.0,917.0 L 202.0,859.0 L 320.0,626.0"/>
    <path d="M 427.0,353.0 L 462.0,384.0 L 471.0,408.0 L 473.0,445.0 L 470.0,893.0 L 449.0,907.0"/>
    <path d="M 490.0,368.0 L 515.0,379.0 L 671.0,336.0 L 698.0,342.0 L 729.0,379.0 L 718.0,475.0 L 713.0,864.0 L 690.0,891.0"/>
    <path d="M 503.0,576.0 L 535.0,557.0 L 582.0,546.0 L 632.0,547.0"/>
    <path d="M 503.0,733.0 L 513.0,721.0 L 561.0,708.0 L 609.0,698.0 L 643.0,703.0"/>
    <path d="M 274.0,943.0 L 326.0,955.0 L 576.0,926.0 L 841.0,908.0 L 899.0,914.0 L 945.0,930.0"/>
  </g>
</svg>
