<svg xmlns="http://www.w3.org/2000/svg" viewBox="0 0 1024 1024">
  <g style="fill:none;stroke:#000000;stroke-width:50;stroke-linecap:round;stroke-linejoin:round;" transform="scale(1, 1) translate(0, 0)">
    <path d="M 222.0,285.0 L 299.0,337.0 L 319.0,374.0"/>
    <path d="M 129.0,498.0 L 191.0,547.0 L 210.0,582.0"/>
    <path d="M 209.0,973.0 L 194.0,930.0 L 192.0,889.0 L 218.0,845.0 L 317.0,633.0"/>
    <path d="M 542.0,224.0 L 624.0,271.0 L 652.0,306.0"/>
    <path d="M 399.0,416.0 L 412.0,446.0 L 380.0,544.0 L 382.0,587.0"/>
    <path d="M 432.0,475.0 L 454.0,458.0 L 588.0,425.0 L 741.0,395.0 L 778.0,394.0 L 803.0,405.0 L 821.0,428.0 L 754.0,505.0"/>
    <path d="M 702.0,594.0 L 719.0,639.0 L 637.0,696.0 L 532.0,751.0 L 529.0,762.0"/>
    <path d="M 480.0,579.0 L 501.0,602.0 L 508.0,624.0 L 498.0,766.0 L 505.0,878.0 L 518.0,919.0 L 559.0,954.0 L 604.0,972.0 L 674.0,982.0 L 762.0,975.0 L 816.0,957.0 L 845.0,937.0 L 857.0,921.0 L 864.0,785.0"/>
  </g>
</svg>
