<svg xmlns="http://www.w3.org/2000/svg" viewBox="0 0 1024 1024">
  <g style="fill:none;stroke:#000000;stroke-width:50;stroke-linecap:round;stroke-linejoin:round;" transform="scale(1, 1) translate(0, 0)">
    <path d="M 208.0,256.0 L 300.0,310.0 L 328.0,352.0"/>
    <path d="M 141.0,464.0 L 233.0,523.0 L 250.0,545.0"/>
    <path d="M 185.0,974.0 L 173.0,944.0 L 170.0,890.0 L 312.0,610.0"/>
    <path d="M 403.0,367.0 L 459.0,376.0 L 742.0,315.0 L 771.0,320.0 L 786.0,335.0 L 788.0,360.0 L 766.0,482.0 L 744.0,553.0 L 722.0,590.0 L 699.0,612.0 L 688.0,614.0 L 600.0,569.0"/>
    <path d="M 535.0,382.0 L 562.0,405.0 L 565.0,418.0 L 516.0,518.0 L 435.0,632.0 L 395.0,676.0 L 339.0,722.0"/>
    <path d="M 392.0,743.0 L 419.0,766.0 L 431.0,787.0 L 472.0,1004.0"/>
    <path d="M 452.0,747.0 L 463.0,756.0 L 478.0,758.0 L 692.0,716.0 L 706.0,715.0 L 729.0,725.0 L 758.0,756.0 L 720.0,885.0 L 691.0,907.0"/>
    <path d="M 492.0,974.0 L 506.0,960.0 L 680.0,937.0 L 740.0,936.0 L 765.0,947.0"/>
  </g>
</svg>
