<svg xmlns="http://www.w3.org/2000/svg" viewBox="0 0 1024 1024">
  <g style="fill:none;stroke:#000000;stroke-width:50;stroke-linecap:round;stroke-linejoin:round;" transform="scale(1, 1) translate(0, 0)">
    <path d="M 230.0,289.0 L 317.0,338.0 L 334.0,352.0 L 356.0,388.0"/>
    <path d="M 128.0,512.0 L 213.0,566.0 L 237.0,599.0"/>
    <path d="M 187.0,998.0 L 177.0,967.0 L 178.0,914.0 L 207.0,876.0 L 339.0,657.0"/>
    <path d="M 553.0,236.0 L 594.0,267.0 L 605.0,279.0 L 606.0,292.0 L 597.0,697.0 L 579.0,724.0"/>
    <path d="M 638.0,495.0 L 647.0,484.0 L 722.0,470.0 L 782.0,449.0 L 824.0,442.0 L 851.0,445.0"/>
    <path d="M 393.0,745.0 L 429.0,775.0 L 480.0,1012.0"/>
    <path d="M 462.0,753.0 L 472.0,762.0 L 484.0,763.0 L 621.0,741.0 L 722.0,716.0 L 750.0,718.0 L 789.0,754.0 L 756.0,874.0 L 728.0,895.0"/>
    <path d="M 499.0,947.0 L 512.0,958.0 L 526.0,958.0 L 716.0,927.0 L 775.0,927.0 L 801.0,937.0"/>
  </g>
</svg>
