<svg xmlns="http://www.w3.org/2000/svg" viewBox="0 0 1024 1024">
  <g style="fill:none;stroke:#000000;stroke-width:50;stroke-linecap:round;stroke-linejoin:round;" transform="scale(1, 1) translate(0, 0)">
    <path d="M 207.0,285.0 L 287.0,332.0 L 316.0,372.0"/>
    <path d="M 123.0,500.0 L 193.0,543.0 L 221.0,576.0"/>
    <path d="M 179.0,1005.0 L 164.0,968.0 L 160.0,918.0 L 293.0,629.0"/>
    <path d="M 441.0,317.0 L 470.0,332.0 L 483.0,357.0 L 483.0,446.0 L 471.0,518.0 L 455.0,562.0 L 417.0,619.0 L 346.0,683.0"/>
    <path d="M 511.0,321.0 L 524.0,331.0 L 542.0,330.0 L 623.0,303.0 L 653.0,299.0 L 670.0,302.0 L 686.0,316.0 L 665.0,411.0 L 660.0,535.0 L 667.0,588.0 L 684.0,618.0 L 699.0,630.0 L 757.0,643.0 L 822.0,639.0 L 867.0,626.0 L 907.0,633.0"/>
    <path d="M 384.0,750.0 L 419.0,783.0 L 456.0,1012.0"/>
    <path d="M 457.0,763.0 L 470.0,776.0 L 682.0,738.0 L 696.0,737.0 L 718.0,747.0 L 745.0,780.0 L 706.0,908.0 L 680.0,921.0"/>
    <path d="M 477.0,987.0 L 491.0,977.0 L 671.0,955.0 L 716.0,957.0 L 743.0,966.0"/>
  </g>
</svg>
