<svg xmlns="http://www.w3.org/2000/svg" viewBox="0 0 1024 1024">
  <g style="fill:none;stroke:#000000;stroke-width:50;stroke-linecap:round;stroke-linejoin:round;" transform="scale(1, 1) translate(0, 0)">
    <path d="M 214.0,261.0 L 291.0,313.0 L 311.0,350.0"/>
    <path d="M 126.0,473.0 L 203.0,519.0 L 221.0,543.0"/>
    <path d="M 194.0,934.0 L 181.0,907.0 L 175.0,858.0 L 289.0,593.0"/>
    <path d="M 374.0,393.0 L 425.0,397.0 L 545.0,366.0 L 732.0,332.0 L 748.0,338.0 L 771.0,366.0 L 756.0,405.0 L 724.0,428.0"/>
    <path d="M 401.0,511.0 L 429.0,519.0 L 727.0,457.0 L 775.0,453.0 L 795.0,460.0"/>
    <path d="M 354.0,499.0 L 380.0,541.0 L 355.0,624.0 L 352.0,663.0 L 363.0,666.0 L 396.0,665.0 L 512.0,635.0 L 768.0,593.0 L 822.0,593.0 L 847.0,609.0 L 860.0,633.0 L 823.0,759.0 L 802.0,794.0 L 791.0,802.0 L 693.0,757.0"/>
    <path d="M 435.0,253.0 L 470.0,269.0 L 491.0,288.0 L 493.0,301.0 L 496.0,521.0 L 482.0,694.0 L 457.0,785.0 L 429.0,841.0 L 366.0,915.0 L 312.0,951.0"/>
    <path d="M 584.0,177.0 L 611.0,194.0 L 630.0,216.0 L 634.0,265.0 L 619.0,1084.0"/>
  </g>
</svg>
