<svg xmlns="http://www.w3.org/2000/svg" viewBox="0 0 1024 1024">
  <g style="fill:none;stroke:#000000;stroke-width:50;stroke-linecap:round;stroke-linejoin:round;" transform="scale(1, 1) translate(0, 0)">
    <path d="M 209.0,269.0 L 299.0,323.0 L 326.0,363.0"/>
    <path d="M 123.0,493.0 L 198.0,536.0 L 232.0,570.0"/>
    <path d="M 184.0,1027.0 L 173.0,997.0 L 171.0,942.0 L 320.0,662.0"/>
    <path d="M 433.0,376.0 L 462.0,403.0 L 451.0,451.0 L 411.0,541.0 L 372.0,588.0"/>
    <path d="M 467.0,488.0 L 575.0,475.0 L 701.0,437.0 L 738.0,432.0 L 763.0,436.0"/>
    <path d="M 389.0,694.0 L 447.0,698.0 L 527.0,677.0 L 782.0,628.0 L 851.0,633.0 L 869.0,640.0"/>
    <path d="M 558.0,231.0 L 583.0,249.0 L 606.0,280.0 L 586.0,627.0 L 558.0,769.0 L 519.0,857.0 L 474.0,914.0 L 403.0,967.0 L 345.0,996.0 L 304.0,1009.0"/>
    <path d="M 603.0,688.0 L 613.0,719.0 L 646.0,769.0 L 750.0,906.0 L 796.0,954.0 L 815.0,965.0 L 964.0,1007.0"/>
  </g>
</svg>
