<svg xmlns="http://www.w3.org/2000/svg" viewBox="0 0 1024 1024">
  <g style="fill:none;stroke:#000000;stroke-width:50;stroke-linecap:round;stroke-linejoin:round;" transform="scale(1, 1) translate(0, 0)">
    <path d="M 242.0,281.0 L 319.0,333.0 L 339.0,370.0"/>
    <path d="M 144.0,493.0 L 201.0,528.0 L 223.0,563.0"/>
    <path d="M 217.0,974.0 L 201.0,935.0 L 198.0,883.0 L 336.0,598.0"/>
    <path d="M 435.0,334.0 L 456.0,350.0 L 473.0,375.0 L 515.0,565.0 L 511.0,574.0"/>
    <path d="M 486.0,331.0 L 512.0,342.0 L 706.0,293.0 L 742.0,291.0 L 759.0,300.0 L 785.0,331.0 L 786.0,340.0 L 742.0,456.0 L 720.0,472.0 L 706.0,474.0"/>
    <path d="M 536.0,555.0 L 552.0,539.0 L 691.0,510.0 L 766.0,515.0"/>
    <path d="M 518.0,587.0 L 533.0,596.0 L 550.0,627.0 L 502.0,723.0 L 443.0,807.0 L 403.0,851.0 L 343.0,906.0 L 302.0,935.0 L 287.0,939.0 L 283.0,947.0"/>
    <path d="M 646.0,575.0 L 669.0,600.0 L 684.0,630.0 L 664.0,743.0 L 661.0,849.0 L 667.0,879.0 L 700.0,913.0 L 745.0,929.0 L 845.0,938.0 L 900.0,933.0 L 941.0,918.0 L 949.0,908.0 L 963.0,770.0"/>
  </g>
</svg>
