<svg xmlns="http://www.w3.org/2000/svg" viewBox="0 0 1024 1024">
  <g style="fill:none;stroke:#000000;stroke-width:50;stroke-linecap:round;stroke-linejoin:round;" transform="scale(1, 1) translate(0, 0)">
    <path d="M 174.0,272.0 L 185.0,285.0 L 251.0,327.0 L 276.0,371.0"/>
    <path d="M 105.0,458.0 L 161.0,506.0 L 187.0,547.0"/>
    <path d="M 164.0,960.0 L 149.0,922.0 L 145.0,879.0 L 257.0,637.0"/>
    <path d="M 365.0,316.0 L 387.0,319.0 L 508.0,295.0 L 530.0,299.0 L 541.0,310.0 L 550.0,323.0 L 548.0,333.0 L 517.0,416.0 L 512.0,426.0 L 485.0,442.0"/>
    <path d="M 410.0,500.0 L 424.0,482.0 L 468.0,470.0 L 539.0,473.0"/>
    <path d="M 358.0,458.0 L 382.0,485.0 L 387.0,506.0 L 354.0,642.0 L 379.0,645.0 L 463.0,630.0 L 486.0,635.0 L 506.0,658.0 L 485.0,820.0 L 469.0,880.0 L 448.0,926.0 L 410.0,961.0 L 334.0,912.0"/>
    <path d="M 737.0,324.0 L 775.0,359.0 L 772.0,384.0 L 712.0,557.0 L 633.0,737.0 L 623.0,789.0 L 663.0,788.0 L 818.0,743.0 L 827.0,742.0 L 839.0,752.0"/>
    <path d="M 803.0,628.0 L 871.0,718.0 L 908.0,779.0 L 918.0,821.0 L 916.0,850.0"/>
  </g>
</svg>
