<svg xmlns="http://www.w3.org/2000/svg" viewBox="0 0 1024 1024">
  <g style="fill:none;stroke:#000000;stroke-width:50;stroke-linecap:round;stroke-linejoin:round;" transform="scale(1, 1) translate(0, 0)">
    <path d="M 144.0,275.0 L 222.0,330.0 L 238.0,364.0"/>
    <path d="M 93.0,486.0 L 171.0,544.0 L 186.0,567.0"/>
    <path d="M 143.0,987.0 L 129.0,959.0 L 124.0,912.0 L 241.0,652.0"/>
    <path d="M 358.0,381.0 L 367.0,388.0 L 385.0,388.0 L 472.0,356.0 L 494.0,368.0 L 489.0,396.0 L 456.0,469.0 L 449.0,511.0 L 455.0,532.0 L 498.0,606.0 L 504.0,636.0 L 499.0,662.0 L 495.0,670.0 L 469.0,670.0 L 391.0,643.0"/>
    <path d="M 298.0,368.0 L 334.0,410.0 L 341.0,475.0 L 340.0,762.0 L 319.0,918.0 L 319.0,990.0"/>
    <path d="M 542.0,554.0 L 585.0,561.0 L 814.0,505.0 L 840.0,510.0 L 858.0,528.0 L 823.0,788.0 L 802.0,865.0 L 782.0,910.0 L 765.0,932.0 L 742.0,948.0 L 645.0,882.0"/>
    <path d="M 670.0,278.0 L 708.0,324.0 L 683.0,514.0 L 653.0,640.0 L 590.0,803.0 L 519.0,915.0 L 454.0,989.0"/>
  </g>
</svg>
