<svg xmlns="http://www.w3.org/2000/svg" viewBox="0 0 1024 1024">
  <g style="fill:none;stroke:#000000;stroke-width:50;stroke-linecap:round;stroke-linejoin:round;" transform="scale(1, 1) translate(0, 0)">
    <path d="M 246.0,289.0 L 337.0,349.0 L 361.0,388.0"/>
    <path d="M 153.0,470.0 L 223.0,526.0 L 243.0,553.0"/>
    <path d="M 193.0,960.0 L 180.0,916.0 L 180.0,875.0 L 207.0,835.0 L 328.0,609.0"/>
    <path d="M 437.0,463.0 L 468.0,469.0 L 521.0,465.0 L 634.0,442.0 L 730.0,412.0 L 788.0,411.0"/>
    <path d="M 554.0,220.0 L 595.0,252.0 L 605.0,273.0 L 594.0,595.0 L 576.0,619.0"/>
    <path d="M 346.0,676.0 L 400.0,680.0 L 509.0,655.0 L 823.0,603.0 L 859.0,603.0 L 909.0,617.0"/>
    <path d="M 611.0,689.0 L 591.0,691.0 L 570.0,702.0 L 509.0,801.0 L 445.0,883.0 L 435.0,917.0 L 469.0,919.0 L 702.0,861.0 L 729.0,864.0"/>
    <path d="M 692.0,767.0 L 804.0,911.0 L 821.0,949.0 L 825.0,985.0"/>
  </g>
</svg>
