<svg xmlns="http://www.w3.org/2000/svg" viewBox="0 0 1024 1024">
  <g style="fill:none;stroke:#000000;stroke-width:50;stroke-linecap:round;stroke-linejoin:round;" transform="scale(1, 1) translate(0, 0)">
    <path d="M 187.0,289.0 L 282.0,338.0 L 313.0,378.0"/>
    <path d="M 104.0,497.0 L 172.0,540.0 L 202.0,577.0"/>
    <path d="M 186.0,1016.0 L 174.0,989.0 L 168.0,929.0 L 192.0,889.0 L 301.0,649.0"/>
    <path d="M 313.0,579.0 L 380.0,583.0 L 577.0,543.0 L 807.0,509.0 L 852.0,509.0 L 912.0,523.0"/>
    <path d="M 427.0,402.0 L 461.0,440.0 L 469.0,499.0 L 473.0,703.0 L 469.0,836.0 L 461.0,898.0 L 472.0,968.0"/>
    <path d="M 674.0,236.0 L 723.0,272.0 L 730.0,281.0 L 731.0,300.0 L 723.0,489.0 L 732.0,882.0 L 724.0,922.0 L 709.0,950.0 L 702.0,1038.0"/>
    <path d="M 501.0,734.0 L 513.0,723.0 L 576.0,707.0 L 617.0,701.0 L 651.0,707.0"/>
    <path d="M 498.0,919.0 L 518.0,901.0 L 547.0,895.0 L 610.0,888.0 L 654.0,896.0"/>
  </g>
</svg>
