<svg xmlns="http://www.w3.org/2000/svg" viewBox="0 0 1024 1024">
  <g style="fill:none;stroke:#000000;stroke-width:50;stroke-linecap:round;stroke-linejoin:round;" transform="scale(1, 1) translate(0, 0)">
    <path d="M 213.0,249.0 L 305.0,313.0 L 326.0,350.0"/>
    <path d="M 142.0,470.0 L 218.0,527.0 L 234.0,550.0"/>
    <path d="M 185.0,966.0 L 173.0,936.0 L 169.0,882.0 L 309.0,605.0"/>
    <path d="M 463.0,324.0 L 535.0,324.0 L 735.0,267.0 L 776.0,268.0"/>
    <path d="M 412.0,443.0 L 484.0,505.0 L 498.0,541.0"/>
    <path d="M 777.0,362.0 L 799.0,397.0 L 698.0,507.0 L 682.0,517.0"/>
    <path d="M 346.0,659.0 L 368.0,665.0 L 413.0,665.0 L 628.0,630.0 L 855.0,604.0 L 935.0,623.0"/>
    <path d="M 560.0,355.0 L 601.0,372.0 L 609.0,394.0 L 599.0,1070.0"/>
  </g>
</svg>
