<svg xmlns="http://www.w3.org/2000/svg" viewBox="0 0 1024 1024">
  <g style="fill:none;stroke:#000000;stroke-width:50;stroke-linecap:round;stroke-linejoin:round;" transform="scale(1, 1) translate(0, 0)">
    <path d="M 198.0,265.0 L 287.0,318.0 L 309.0,351.0"/>
    <path d="M 120.0,494.0 L 183.0,537.0 L 208.0,572.0"/>
    <path d="M 176.0,991.0 L 165.0,958.0 L 163.0,907.0 L 296.0,658.0"/>
    <path d="M 547.0,193.0 L 633.0,240.0 L 665.0,279.0"/>
    <path d="M 400.0,371.0 L 408.0,387.0 L 407.0,418.0 L 364.0,502.0 L 359.0,553.0"/>
    <path d="M 441.0,407.0 L 450.0,415.0 L 465.0,415.0 L 668.0,373.0 L 793.0,359.0 L 828.0,376.0 L 841.0,395.0 L 777.0,484.0"/>
    <path d="M 390.0,632.0 L 437.0,638.0 L 555.0,613.0 L 747.0,584.0 L 796.0,585.0 L 844.0,597.0"/>
    <path d="M 582.0,634.0 L 619.0,653.0 L 629.0,671.0 L 627.0,932.0 L 622.0,965.0 L 605.0,996.0 L 578.0,991.0 L 486.0,947.0"/>
  </g>
</svg>
