<svg xmlns="http://www.w3.org/2000/svg" viewBox="0 0 1024 1024">
  <g style="fill:none;stroke:#000000;stroke-width:50;stroke-linecap:round;stroke-linejoin:round;" transform="scale(1, 1) translate(0, 0)">
    <path d="M 211.0,273.0 L 297.0,324.0 L 318.0,356.0"/>
    <path d="M 137.0,474.0 L 212.0,531.0 L 228.0,556.0"/>
    <path d="M 189.0,937.0 L 178.0,905.0 L 178.0,854.0 L 320.0,604.0"/>
    <path d="M 507.0,324.0 L 527.0,310.0 L 571.0,304.0 L 691.0,272.0 L 709.0,273.0 L 742.0,305.0 L 711.0,383.0 L 684.0,403.0"/>
    <path d="M 488.0,459.0 L 509.0,466.0 L 684.0,429.0 L 725.0,426.0 L 750.0,433.0"/>
    <path d="M 430.0,284.0 L 453.0,302.0 L 468.0,331.0 L 450.0,532.0 L 426.0,658.0 L 370.0,821.0 L 297.0,949.0 L 240.0,1019.0"/>
    <path d="M 758.0,568.0 L 768.0,579.0 L 777.0,611.0 L 710.0,669.0 L 591.0,752.0 L 584.0,764.0"/>
    <path d="M 532.0,589.0 L 569.0,640.0 L 555.0,774.0 L 559.0,867.0 L 567.0,910.0 L 578.0,931.0 L 614.0,955.0 L 700.0,972.0 L 760.0,973.0 L 851.0,964.0 L 909.0,944.0 L 920.0,936.0 L 921.0,921.0 L 912.0,782.0"/>
  </g>
</svg>
