<svg xmlns="http://www.w3.org/2000/svg" viewBox="0 0 1024 1024">
  <g style="fill:none;stroke:#000000;stroke-width:50;stroke-linecap:round;stroke-linejoin:round;" transform="scale(1, 1) translate(0, 0)">
    <path d="M 202.0,273.0 L 288.0,331.0 L 310.0,366.0"/>
    <path d="M 117.0,464.0 L 203.0,515.0 L 232.0,547.0"/>
    <path d="M 172.0,955.0 L 159.0,914.0 L 159.0,871.0 L 289.0,629.0"/>
    <path d="M 392.0,359.0 L 464.0,420.0 L 475.0,448.0"/>
    <path d="M 766.0,280.0 L 785.0,315.0 L 679.0,417.0 L 663.0,426.0"/>
    <path d="M 407.0,551.0 L 434.0,558.0 L 519.0,554.0 L 730.0,507.0 L 787.0,507.0"/>
    <path d="M 331.0,714.0 L 385.0,723.0 L 646.0,682.0 L 832.0,662.0 L 915.0,681.0"/>
    <path d="M 533.0,213.0 L 560.0,219.0 L 597.0,258.0 L 588.0,419.0 L 583.0,1058.0"/>
  </g>
</svg>
