<svg xmlns="http://www.w3.org/2000/svg" viewBox="0 0 1024 1024">
  <g style="fill:none;stroke:#000000;stroke-width:50;stroke-linecap:round;stroke-linejoin:round;" transform="scale(1, 1) translate(0, 0)">
    <path d="M 246.0,277.0 L 337.0,337.0 L 361.0,376.0"/>
    <path d="M 148.0,485.0 L 222.0,534.0 L 238.0,550.0 L 242.0,563.0"/>
    <path d="M 217.0,982.0 L 205.0,952.0 L 201.0,898.0 L 340.0,618.0"/>
    <path d="M 543.0,240.0 L 647.0,289.0 L 684.0,331.0"/>
    <path d="M 439.0,501.0 L 479.0,509.0 L 536.0,505.0 L 783.0,456.0 L 831.0,458.0"/>
    <path d="M 459.0,701.0 L 498.0,709.0 L 556.0,705.0 L 727.0,670.0 L 787.0,670.0"/>
    <path d="M 593.0,521.0 L 622.0,545.0 L 618.0,844.0 L 615.0,855.0 L 601.0,867.0"/>
    <path d="M 347.0,910.0 L 401.0,921.0 L 651.0,890.0 L 850.0,874.0 L 886.0,879.0 L 937.0,897.0"/>
  </g>
</svg>
