<svg xmlns="http://www.w3.org/2000/svg" viewBox="0 0 1024 1024">
  <g style="fill:none;stroke:#000000;stroke-width:50;stroke-linecap:round;stroke-linejoin:round;" transform="scale(1, 1) translate(0, 0)">
    <path d="M 306.0,328.0 L 329.0,336.0 L 380.0,337.0 L 524.0,319.0 L 655.0,289.0 L 707.0,292.0"/>
    <path d="M 310.0,453.0 L 318.0,458.0 L 382.0,460.0 L 620.0,417.0 L 659.0,418.0"/>
    <path d="M 194.0,588.0 L 249.0,594.0 L 465.0,555.0 L 723.0,524.0 L 804.0,541.0"/>
    <path d="M 469.0,187.0 L 488.0,203.0 L 506.0,231.0 L 458.0,439.0 L 413.0,550.0 L 363.0,631.0 L 296.0,703.0 L 209.0,767.0 L 103.0,818.0"/>
    <path d="M 590.0,569.0 L 609.0,575.0 L 710.0,671.0 L 810.0,745.0 L 870.0,762.0 L 987.0,777.0"/>
    <path d="M 459.0,659.0 L 501.0,702.0 L 502.0,936.0 L 496.0,981.0 L 483.0,1009.0 L 450.0,1001.0 L 377.0,966.0"/>
    <path d="M 320.0,741.0 L 375.0,767.0 L 407.0,802.0"/>
    <path d="M 232.0,937.0 L 285.0,938.0 L 415.0,851.0"/>
    <path d="M 634.0,693.0 L 646.0,724.0 L 567.0,792.0"/>
    <path d="M 590.0,859.0 L 653.0,895.0 L 706.0,936.0 L 725.0,960.0 L 738.0,994.0"/>
  </g>
</svg>
