<svg xmlns="http://www.w3.org/2000/svg" viewBox="0 0 1024 1024">
  <g style="fill:none;stroke:#000000;stroke-width:50;stroke-linecap:round;stroke-linejoin:round;" transform="scale(1, 1) translate(0, 0)">
    <path d="M 186.0,276.0 L 270.0,322.0 L 297.0,358.0"/>
    <path d="M 106.0,493.0 L 181.0,543.0 L 198.0,578.0"/>
    <path d="M 173.0,985.0 L 161.0,956.0 L 159.0,902.0 L 189.0,853.0 L 309.0,613.0"/>
    <path d="M 437.0,322.0 L 460.0,332.0 L 655.0,283.0 L 685.0,289.0 L 716.0,319.0 L 686.0,396.0 L 652.0,426.0"/>
    <path d="M 448.0,506.0 L 459.0,495.0 L 482.0,487.0 L 648.0,452.0 L 710.0,457.0"/>
    <path d="M 375.0,310.0 L 405.0,341.0 L 416.0,363.0 L 421.0,591.0 L 399.0,867.0 L 405.0,899.0 L 449.0,884.0 L 573.0,788.0"/>
    <path d="M 481.0,654.0 L 510.0,659.0 L 563.0,655.0 L 671.0,630.0 L 752.0,603.0 L 787.0,598.0 L 813.0,604.0"/>
    <path d="M 563.0,493.0 L 594.0,507.0 L 617.0,528.0 L 623.0,596.0 L 640.0,665.0 L 677.0,750.0 L 715.0,816.0 L 769.0,887.0 L 801.0,919.0 L 842.0,951.0 L 875.0,967.0 L 910.0,969.0 L 917.0,953.0 L 928.0,881.0 L 930.0,789.0"/>
  </g>
</svg>
