<svg xmlns="http://www.w3.org/2000/svg" viewBox="0 0 1024 1024">
  <g style="fill:none;stroke:#000000;stroke-width:50;stroke-linecap:round;stroke-linejoin:round;" transform="scale(1, 1) translate(0, 0)">
    <path d="M 229.0,260.0 L 320.0,319.0 L 346.0,362.0"/>
    <path d="M 138.0,450.0 L 226.0,515.0 L 241.0,539.0"/>
    <path d="M 182.0,969.0 L 169.0,933.0 L 167.0,883.0 L 304.0,622.0"/>
    <path d="M 586.0,199.0 L 616.0,222.0 L 626.0,239.0 L 618.0,432.0 L 602.0,457.0"/>
    <path d="M 653.0,337.0 L 666.0,328.0 L 750.0,309.0 L 821.0,301.0"/>
    <path d="M 507.0,485.0 L 517.0,495.0 L 734.0,449.0 L 760.0,452.0 L 794.0,486.0 L 768.0,552.0 L 738.0,572.0"/>
    <path d="M 498.0,642.0 L 722.0,603.0 L 776.0,603.0 L 802.0,611.0"/>
    <path d="M 424.0,464.0 L 455.0,489.0 L 468.0,514.0 L 461.0,650.0 L 449.0,730.0 L 428.0,811.0 L 393.0,889.0 L 358.0,939.0 L 308.0,989.0 L 254.0,1022.0"/>
  </g>
</svg>
