<svg xmlns="http://www.w3.org/2000/svg" viewBox="0 0 1024 1024">
  <g style="fill:none;stroke:#000000;stroke-width:50;stroke-linecap:round;stroke-linejoin:round;" transform="scale(1, 1) translate(0, 0)">
    <path d="M 225.0,281.0 L 304.0,340.0 L 326.0,383.0"/>
    <path d="M 151.0,477.0 L 213.0,528.0 L 235.0,565.0"/>
    <path d="M 209.0,964.0 L 197.0,931.0 L 195.0,880.0 L 341.0,609.0"/>
    <path d="M 584.0,221.0 L 611.0,237.0 L 624.0,259.0 L 533.0,433.0 L 512.0,449.0"/>
    <path d="M 435.0,452.0 L 458.0,477.0 L 470.0,509.0 L 472.0,689.0 L 458.0,897.0 L 464.0,949.0"/>
    <path d="M 485.0,462.0 L 509.0,473.0 L 752.0,415.0 L 785.0,431.0 L 807.0,457.0 L 805.0,877.0 L 790.0,918.0 L 748.0,905.0 L 732.0,881.0"/>
    <path d="M 505.0,622.0 L 518.0,608.0 L 597.0,592.0 L 662.0,584.0 L 697.0,592.0"/>
    <path d="M 501.0,751.0 L 533.0,738.0 L 656.0,720.0 L 701.0,728.0"/>
    <path d="M 494.0,918.0 L 511.0,902.0 L 542.0,896.0 L 722.0,874.0"/>
  </g>
</svg>
