<svg xmlns="http://www.w3.org/2000/svg" viewBox="0 0 1024 1024">
  <g style="fill:none;stroke:#000000;stroke-width:50;stroke-linecap:round;stroke-linejoin:round;" transform="scale(1, 1) translate(0, 0)">
    <path d="M 202.0,313.0 L 283.0,364.0 L 313.0,408.0"/>
    <path d="M 126.0,529.0 L 209.0,579.0 L 227.0,606.0"/>
    <path d="M 188.0,981.0 L 175.0,951.0 L 172.0,900.0 L 297.0,649.0"/>
    <path d="M 435.0,348.0 L 464.0,383.0 L 453.0,417.0 L 431.0,466.0 L 400.0,513.0 L 354.0,560.0"/>
    <path d="M 470.0,458.0 L 569.0,448.0 L 732.0,405.0 L 784.0,409.0"/>
    <path d="M 564.0,207.0 L 604.0,239.0 L 613.0,258.0 L 602.0,585.0 L 584.0,605.0"/>
    <path d="M 337.0,660.0 L 382.0,666.0 L 560.0,631.0 L 797.0,598.0 L 842.0,602.0 L 873.0,612.0"/>
    <path d="M 495.0,696.0 L 514.0,733.0 L 486.0,807.0 L 463.0,849.0 L 429.0,895.0 L 371.0,952.0 L 322.0,989.0 L 284.0,1008.0"/>
    <path d="M 609.0,646.0 L 639.0,671.0 L 626.0,842.0 L 633.0,939.0 L 643.0,962.0 L 682.0,991.0 L 744.0,1005.0 L 812.0,1005.0 L 867.0,996.0 L 915.0,975.0 L 937.0,955.0 L 948.0,824.0"/>
  </g>
</svg>
