<svg xmlns="http://www.w3.org/2000/svg" viewBox="0 0 1024 1024">
  <g style="fill:none;stroke:#000000;stroke-width:50;stroke-linecap:round;stroke-linejoin:round;" transform="scale(1, 1) translate(0, 0)">
    <path d="M 194.0,281.0 L 283.0,334.0 L 305.0,367.0"/>
    <path d="M 113.0,474.0 L 188.0,535.0 L 203.0,560.0"/>
    <path d="M 177.0,964.0 L 163.0,920.0 L 164.0,882.0 L 304.0,622.0"/>
    <path d="M 434.0,326.0 L 462.0,355.0 L 458.0,375.0 L 414.0,468.0 L 365.0,529.0"/>
    <path d="M 451.0,455.0 L 538.0,451.0 L 723.0,410.0 L 768.0,410.0"/>
    <path d="M 354.0,632.0 L 409.0,636.0 L 771.0,573.0 L 820.0,573.0 L 878.0,585.0"/>
    <path d="M 548.0,199.0 L 577.0,221.0 L 602.0,252.0 L 599.0,745.0 L 584.0,961.0 L 586.0,1053.0"/>
    <path d="M 570.0,630.0 L 560.0,643.0 L 549.0,683.0 L 454.0,797.0 L 370.0,869.0 L 293.0,913.0"/>
    <path d="M 623.0,623.0 L 634.0,651.0 L 706.0,736.0 L 772.0,805.0 L 829.0,854.0 L 985.0,888.0"/>
  </g>
</svg>
