<svg xmlns="http://www.w3.org/2000/svg" viewBox="0 0 1024 1024">
  <g style="fill:none;stroke:#000000;stroke-width:50;stroke-linecap:round;stroke-linejoin:round;" transform="scale(1, 1) translate(0, 0)">
    <path d="M 198.0,249.0 L 287.0,302.0 L 309.0,335.0"/>
    <path d="M 120.0,454.0 L 183.0,497.0 L 208.0,532.0"/>
    <path d="M 167.0,984.0 L 153.0,948.0 L 150.0,903.0 L 280.0,622.0"/>
    <path d="M 407.0,379.0 L 479.0,387.0 L 740.0,338.0 L 805.0,336.0"/>
    <path d="M 320.0,568.0 L 347.0,591.0 L 367.0,631.0 L 398.0,882.0 L 416.0,938.0"/>
    <path d="M 368.0,574.0 L 405.0,592.0 L 441.0,589.0 L 632.0,565.0 L 812.0,532.0 L 831.0,535.0 L 855.0,552.0 L 871.0,572.0 L 852.0,704.0 L 823.0,855.0 L 799.0,897.0 L 795.0,952.0"/>
    <path d="M 495.0,415.0 L 508.0,417.0 L 532.0,436.0 L 534.0,526.0 L 525.0,613.0 L 511.0,658.0 L 486.0,705.0 L 454.0,743.0 L 421.0,766.0"/>
    <path d="M 619.0,389.0 L 653.0,412.0 L 645.0,628.0 L 660.0,678.0 L 679.0,695.0 L 718.0,702.0 L 771.0,700.0 L 789.0,692.0"/>
    <path d="M 431.0,877.0 L 443.0,888.0 L 455.0,888.0 L 772.0,855.0"/>
  </g>
</svg>
