<svg xmlns="http://www.w3.org/2000/svg" viewBox="0 0 1024 1024">
  <g style="fill:none;stroke:#000000;stroke-width:50;stroke-linecap:round;stroke-linejoin:round;" transform="scale(1, 1) translate(0, 0)">
    <path d="M 181.0,293.0 L 263.0,350.0 L 285.0,390.0"/>
    <path d="M 109.0,492.0 L 169.0,529.0 L 193.0,560.0"/>
    <path d="M 172.0,959.0 L 161.0,928.0 L 159.0,875.0 L 312.0,586.0"/>
    <path d="M 369.0,407.0 L 389.0,412.0 L 436.0,410.0 L 622.0,370.0 L 812.0,342.0 L 894.0,358.0"/>
    <path d="M 576.0,195.0 L 603.0,243.0 L 555.0,408.0 L 521.0,491.0 L 457.0,606.0 L 375.0,706.0 L 300.0,771.0"/>
    <path d="M 515.0,566.0 L 516.0,596.0 L 508.0,618.0 L 504.0,761.0 L 467.0,995.0"/>
    <path d="M 524.0,559.0 L 549.0,569.0 L 634.0,551.0 L 699.0,529.0 L 730.0,544.0 L 744.0,563.0 L 741.0,701.0 L 748.0,925.0 L 742.0,982.0 L 723.0,1012.0 L 626.0,964.0"/>
    <path d="M 535.0,699.0 L 548.0,683.0 L 588.0,672.0 L 625.0,669.0 L 648.0,675.0"/>
    <path d="M 523.0,806.0 L 537.0,794.0 L 596.0,782.0 L 633.0,780.0 L 658.0,786.0"/>
  </g>
</svg>
