<svg xmlns="http://www.w3.org/2000/svg" viewBox="0 0 1024 1024">
  <g style="fill:none;stroke:#000000;stroke-width:50;stroke-linecap:round;stroke-linejoin:round;" transform="scale(1, 1) translate(0, 0)">
    <path d="M 198.0,284.0 L 292.0,345.0 L 316.0,384.0"/>
    <path d="M 93.0,490.0 L 165.0,542.0 L 181.0,571.0"/>
    <path d="M 164.0,988.0 L 150.0,958.0 L 144.0,907.0 L 181.0,837.0 L 274.0,626.0"/>
    <path d="M 520.0,264.0 L 536.0,269.0 L 562.0,295.0 L 537.0,361.0 L 481.0,476.0 L 445.0,544.0 L 423.0,572.0"/>
    <path d="M 322.0,580.0 L 355.0,603.0 L 372.0,634.0 L 412.0,827.0 L 429.0,835.0"/>
    <path d="M 380.0,584.0 L 412.0,596.0 L 717.0,528.0 L 782.0,527.0 L 818.0,564.0 L 769.0,774.0 L 738.0,803.0"/>
    <path d="M 487.0,606.0 L 496.0,611.0 L 503.0,638.0 L 518.0,788.0 L 524.0,820.0 L 532.0,830.0"/>
    <path d="M 610.0,572.0 L 647.0,600.0 L 633.0,720.0 L 615.0,807.0 L 603.0,822.0"/>
    <path d="M 267.0,871.0 L 319.0,881.0 L 562.0,848.0 L 866.0,823.0 L 911.0,827.0 L 966.0,844.0"/>
  </g>
</svg>
