<svg xmlns="http://www.w3.org/2000/svg" viewBox="0 0 1024 1024">
  <g style="fill:none;stroke:#000000;stroke-width:50;stroke-linecap:round;stroke-linejoin:round;" transform="scale(1, 1) translate(0, 0)">
    <path d="M 222.0,305.0 L 304.0,359.0 L 328.0,399.0"/>
    <path d="M 154.0,514.0 L 230.0,573.0 L 245.0,599.0"/>
    <path d="M 224.0,997.0 L 211.0,967.0 L 205.0,906.0 L 333.0,630.0"/>
    <path d="M 371.0,460.0 L 402.0,481.0 L 413.0,500.0 L 479.0,717.0"/>
    <path d="M 430.0,458.0 L 449.0,466.0 L 709.0,390.0 L 745.0,385.0 L 770.0,390.0 L 801.0,423.0 L 759.0,582.0 L 736.0,645.0 L 740.0,668.0"/>
    <path d="M 504.0,567.0 L 652.0,521.0 L 685.0,522.0"/>
    <path d="M 500.0,691.0 L 514.0,675.0 L 681.0,632.0 L 698.0,623.0"/>
    <path d="M 493.0,217.0 L 530.0,232.0 L 558.0,259.0 L 575.0,430.0 L 616.0,620.0 L 660.0,757.0 L 736.0,905.0 L 801.0,983.0 L 836.0,1010.0 L 883.0,1026.0 L 903.0,987.0 L 929.0,858.0"/>
    <path d="M 810.0,682.0 L 825.0,725.0 L 749.0,809.0 L 685.0,863.0 L 550.0,948.0 L 447.0,994.0 L 398.0,1003.0 L 393.0,1009.0"/>
  </g>
</svg>
