<svg xmlns="http://www.w3.org/2000/svg" viewBox="0 0 1024 1024">
  <g style="fill:none;stroke:#000000;stroke-width:50;stroke-linecap:round;stroke-linejoin:round;" transform="scale(1, 1) translate(0, 0)">
    <path d="M 177.0,285.0 L 256.0,340.0 L 278.0,378.0"/>
    <path d="M 105.0,494.0 L 176.0,552.0 L 196.0,583.0"/>
    <path d="M 157.0,1001.0 L 145.0,972.0 L 139.0,917.0 L 249.0,693.0"/>
    <path d="M 437.0,252.0 L 462.0,272.0 L 483.0,308.0 L 433.0,549.0 L 372.0,749.0 L 389.0,773.0 L 553.0,884.0 L 579.0,936.0"/>
    <path d="M 528.0,513.0 L 549.0,528.0 L 565.0,557.0 L 537.0,688.0 L 488.0,809.0 L 455.0,853.0 L 414.0,893.0 L 340.0,941.0 L 307.0,954.0"/>
    <path d="M 252.0,601.0 L 297.0,620.0 L 504.0,567.0 L 521.0,554.0"/>
    <path d="M 628.0,559.0 L 656.0,586.0 L 660.0,599.0 L 693.0,873.0"/>
    <path d="M 691.0,585.0 L 712.0,572.0 L 832.0,545.0 L 849.0,551.0 L 876.0,577.0 L 842.0,720.0 L 817.0,738.0"/>
    <path d="M 715.0,799.0 L 726.0,785.0 L 807.0,769.0 L 857.0,767.0 L 883.0,774.0"/>
  </g>
</svg>
