<svg xmlns="http://www.w3.org/2000/svg" viewBox="0 0 1024 1024">
  <g style="fill:none;stroke:#000000;stroke-width:50;stroke-linecap:round;stroke-linejoin:round;" transform="scale(1, 1) translate(0, 0)">
    <path d="M 234.0,265.0 L 316.0,319.0 L 343.0,362.0"/>
    <path d="M 124.0,441.0 L 192.0,484.0 L 222.0,521.0"/>
    <path d="M 207.0,931.0 L 192.0,903.0 L 184.0,845.0 L 297.0,577.0"/>
    <path d="M 541.0,194.0 L 565.0,218.0 L 574.0,241.0 L 570.0,251.0 L 476.0,406.0 L 419.0,466.0"/>
    <path d="M 505.0,411.0 L 520.0,404.0 L 559.0,404.0 L 768.0,357.0 L 791.0,357.0 L 810.0,365.0 L 845.0,401.0 L 840.0,586.0 L 828.0,735.0 L 791.0,916.0 L 774.0,949.0 L 741.0,983.0 L 642.0,907.0"/>
    <path d="M 545.0,466.0 L 564.0,490.0 L 540.0,545.0 L 490.0,616.0 L 418.0,680.0"/>
    <path d="M 435.0,525.0 L 556.0,600.0 L 577.0,621.0 L 589.0,646.0"/>
    <path d="M 335.0,622.0 L 362.0,658.0 L 364.0,672.0 L 352.0,785.0 L 396.0,783.0 L 486.0,757.0 L 620.0,736.0 L 644.0,719.0"/>
    <path d="M 682.0,558.0 L 709.0,603.0 L 668.0,756.0 L 661.0,804.0"/>
  </g>
</svg>
