<svg xmlns="http://www.w3.org/2000/svg" viewBox="0 0 1024 1024">
  <g style="fill:none;stroke:#000000;stroke-width:50;stroke-linecap:round;stroke-linejoin:round;" transform="scale(1, 1) translate(0, 0)">
    <path d="M 206.0,261.0 L 291.0,305.0 L 319.0,341.0"/>
    <path d="M 128.0,453.0 L 204.0,504.0 L 227.0,532.0"/>
    <path d="M 175.0,898.0 L 164.0,857.0 L 166.0,815.0 L 316.0,577.0"/>
    <path d="M 716.0,258.0 L 698.0,253.0 L 641.0,256.0 L 542.0,331.0 L 468.0,370.0 L 461.0,365.0"/>
    <path d="M 385.0,361.0 L 424.0,394.0 L 428.0,415.0 L 424.0,599.0 L 402.0,729.0 L 371.0,812.0 L 327.0,881.0 L 271.0,940.0 L 221.0,975.0"/>
    <path d="M 711.0,378.0 L 722.0,414.0 L 629.0,482.0 L 575.0,515.0 L 568.0,513.0"/>
    <path d="M 489.0,500.0 L 533.0,536.0 L 536.0,552.0 L 543.0,681.0 L 531.0,889.0 L 535.0,918.0 L 580.0,908.0 L 687.0,830.0"/>
    <path d="M 763.0,515.0 L 778.0,551.0 L 656.0,657.0"/>
    <path d="M 566.0,587.0 L 577.0,609.0 L 675.0,706.0 L 766.0,788.0 L 827.0,831.0 L 1000.0,852.0"/>
  </g>
</svg>
