<svg xmlns="http://www.w3.org/2000/svg" viewBox="0 0 1024 1024">
  <g style="fill:none;stroke:#000000;stroke-width:50;stroke-linecap:round;stroke-linejoin:round;" transform="scale(1, 1) translate(0, 0)">
    <path d="M 197.0,288.0 L 273.0,332.0 L 307.0,376.0"/>
    <path d="M 124.0,486.0 L 191.0,537.0 L 213.0,569.0"/>
    <path d="M 168.0,992.0 L 154.0,962.0 L 149.0,910.0 L 273.0,641.0"/>
    <path d="M 521.0,256.0 L 555.0,292.0 L 530.0,366.0 L 494.0,442.0 L 461.0,502.0 L 400.0,586.0 L 336.0,654.0 L 293.0,683.0 L 291.0,690.0"/>
    <path d="M 576.0,351.0 L 585.0,377.0 L 656.0,455.0 L 741.0,545.0 L 803.0,598.0 L 830.0,611.0 L 984.0,636.0"/>
    <path d="M 425.0,654.0 L 449.0,660.0 L 487.0,658.0 L 612.0,627.0 L 667.0,625.0"/>
    <path d="M 368.0,774.0 L 395.0,796.0 L 406.0,816.0 L 452.0,1024.0"/>
    <path d="M 422.0,774.0 L 444.0,786.0 L 656.0,741.0 L 689.0,747.0 L 717.0,777.0 L 681.0,882.0 L 654.0,901.0"/>
    <path d="M 466.0,944.0 L 478.0,954.0 L 679.0,928.0 L 722.0,938.0"/>
  </g>
</svg>
