<svg xmlns="http://www.w3.org/2000/svg" viewBox="0 0 1024 1024">
  <g style="fill:none;stroke:#000000;stroke-width:50;stroke-linecap:round;stroke-linejoin:round;" transform="scale(1, 1) translate(0, 0)">
    <path d="M 203.0,317.0 L 293.0,366.0 L 317.0,399.0"/>
    <path d="M 136.0,513.0 L 215.0,569.0 L 231.0,592.0"/>
    <path d="M 169.0,1002.0 L 161.0,973.0 L 164.0,922.0 L 324.0,676.0"/>
    <path d="M 439.0,347.0 L 461.0,355.0 L 513.0,355.0 L 716.0,316.0 L 779.0,315.0"/>
    <path d="M 414.0,496.0 L 441.0,522.0 L 446.0,538.0 L 484.0,796.0"/>
    <path d="M 479.0,530.0 L 488.0,516.0 L 500.0,512.0 L 704.0,480.0 L 747.0,490.0 L 763.0,506.0 L 773.0,525.0 L 724.0,726.0 L 706.0,767.0 L 680.0,768.0"/>
    <path d="M 491.0,649.0 L 504.0,641.0 L 614.0,624.0 L 659.0,626.0"/>
    <path d="M 505.0,774.0 L 517.0,765.0 L 550.0,758.0 L 678.0,741.0"/>
    <path d="M 312.0,936.0 L 333.0,948.0 L 374.0,956.0 L 613.0,928.0 L 849.0,914.0 L 925.0,942.0"/>
  </g>
</svg>
