<svg xmlns="http://www.w3.org/2000/svg" viewBox="0 0 1024 1024">
  <g style="fill:none;stroke:#000000;stroke-width:50;stroke-linecap:round;stroke-linejoin:round;" transform="scale(1, 1) translate(0, 0)">
    <path d="M 222.0,260.0 L 309.0,305.0 L 343.0,345.0"/>
    <path d="M 128.0,452.0 L 207.0,507.0 L 230.0,536.0"/>
    <path d="M 175.0,977.0 L 163.0,947.0 L 159.0,896.0 L 289.0,641.0"/>
    <path d="M 354.0,502.0 L 382.0,524.0 L 390.0,540.0 L 435.0,717.0"/>
    <path d="M 410.0,504.0 L 428.0,514.0 L 561.0,491.0 L 695.0,459.0 L 736.0,459.0 L 768.0,490.0 L 734.0,597.0 L 709.0,609.0"/>
    <path d="M 453.0,696.0 L 464.0,684.0 L 486.0,679.0 L 699.0,642.0 L 750.0,641.0 L 770.0,649.0"/>
    <path d="M 527.0,242.0 L 578.0,283.0 L 581.0,309.0 L 574.0,810.0 L 556.0,835.0"/>
    <path d="M 334.0,888.0 L 387.0,910.0 L 718.0,821.0 L 742.0,822.0"/>
    <path d="M 715.0,739.0 L 811.0,876.0 L 829.0,934.0 L 825.0,950.0"/>
  </g>
</svg>
