<svg xmlns="http://www.w3.org/2000/svg" viewBox="0 0 1024 1024">
  <g style="fill:none;stroke:#000000;stroke-width:50;stroke-linecap:round;stroke-linejoin:round;" transform="scale(1, 1) translate(0, 0)">
    <path d="M 185.0,273.0 L 263.0,330.0 L 282.0,366.0"/>
    <path d="M 124.0,450.0 L 185.0,499.0 L 207.0,523.0 L 212.0,537.0"/>
    <path d="M 182.0,950.0 L 169.0,923.0 L 163.0,873.0 L 273.0,621.0"/>
    <path d="M 337.0,322.0 L 360.0,346.0 L 367.0,365.0 L 372.0,428.0 L 372.0,530.0 L 353.0,690.0 L 356.0,733.0"/>
    <path d="M 384.0,330.0 L 410.0,340.0 L 502.0,311.0 L 526.0,309.0 L 561.0,343.0 L 554.0,464.0 L 558.0,662.0 L 551.0,728.0"/>
    <path d="M 417.0,407.0 L 453.0,426.0 L 463.0,448.0 L 459.0,627.0 L 434.0,757.0 L 408.0,818.0 L 365.0,873.0 L 320.0,907.0 L 261.0,933.0"/>
    <path d="M 491.0,774.0 L 568.0,848.0 L 587.0,892.0"/>
    <path d="M 663.0,408.0 L 690.0,440.0 L 692.0,607.0 L 684.0,686.0 L 689.0,728.0"/>
    <path d="M 790.0,220.0 L 808.0,228.0 L 843.0,261.0 L 841.0,572.0 L 853.0,908.0 L 833.0,962.0 L 783.0,947.0 L 694.0,904.0"/>
  </g>
</svg>
