<svg xmlns="http://www.w3.org/2000/svg" viewBox="0 0 1024 1024">
  <g style="fill:none;stroke:#000000;stroke-width:50;stroke-linecap:round;stroke-linejoin:round;" transform="scale(1, 1) translate(0, 0)">
    <path d="M 209.0,263.0 L 288.0,315.0 L 315.0,355.0"/>
    <path d="M 128.0,457.0 L 204.0,510.0 L 227.0,541.0"/>
    <path d="M 183.0,982.0 L 169.0,939.0 L 169.0,903.0 L 305.0,641.0"/>
    <path d="M 375.0,402.0 L 399.0,405.0 L 454.0,397.0 L 529.0,375.0 L 670.0,321.0 L 726.0,314.0"/>
    <path d="M 470.0,221.0 L 517.0,258.0 L 529.0,309.0 L 563.0,390.0 L 615.0,468.0 L 665.0,524.0 L 724.0,573.0 L 779.0,604.0 L 821.0,610.0 L 835.0,569.0 L 846.0,487.0"/>
    <path d="M 703.0,386.0 L 710.0,415.0 L 706.0,429.0 L 664.0,479.0 L 609.0,530.0 L 507.0,588.0 L 390.0,619.0"/>
    <path d="M 371.0,694.0 L 417.0,703.0 L 630.0,665.0 L 684.0,661.0 L 715.0,667.0"/>
    <path d="M 432.0,728.0 L 456.0,747.0 L 462.0,762.0 L 449.0,818.0 L 420.0,890.0 L 388.0,932.0 L 356.0,961.0 L 275.0,1001.0"/>
    <path d="M 564.0,704.0 L 606.0,733.0 L 599.0,853.0 L 606.0,932.0 L 618.0,962.0 L 655.0,985.0 L 730.0,997.0 L 791.0,998.0 L 856.0,990.0 L 905.0,970.0 L 911.0,935.0 L 911.0,806.0"/>
  </g>
</svg>
