<svg xmlns="http://www.w3.org/2000/svg" viewBox="0 0 1024 1024">
  <g style="fill:none;stroke:#000000;stroke-width:50;stroke-linecap:round;stroke-linejoin:round;" transform="scale(1, 1) translate(0, 0)">
    <path d="M 181.0,293.0 L 265.0,347.0 L 286.0,385.0"/>
    <path d="M 112.0,485.0 L 191.0,541.0 L 207.0,564.0"/>
    <path d="M 185.0,952.0 L 172.0,923.0 L 167.0,871.0 L 281.0,620.0"/>
    <path d="M 425.0,273.0 L 500.0,320.0 L 522.0,343.0"/>
    <path d="M 286.0,517.0 L 331.0,521.0 L 536.0,468.0 L 592.0,470.0"/>
    <path d="M 484.0,511.0 L 517.0,534.0 L 491.0,652.0 L 463.0,726.0 L 436.0,772.0 L 381.0,832.0 L 324.0,872.0 L 277.0,892.0"/>
    <path d="M 340.0,647.0 L 520.0,798.0 L 559.0,847.0 L 569.0,883.0"/>
    <path d="M 635.0,452.0 L 662.0,484.0 L 661.0,740.0"/>
    <path d="M 767.0,267.0 L 785.0,275.0 L 818.0,307.0 L 815.0,581.0 L 824.0,941.0 L 804.0,987.0 L 754.0,970.0 L 679.0,936.0 L 677.0,930.0 L 666.0,930.0"/>
  </g>
</svg>
