<svg xmlns="http://www.w3.org/2000/svg" viewBox="0 0 1024 1024">
  <g style="fill:none;stroke:#000000;stroke-width:50;stroke-linecap:round;stroke-linejoin:round;" transform="scale(1, 1) translate(0, 0)">
    <path d="M 221.0,294.0 L 312.0,357.0 L 334.0,395.0"/>
    <path d="M 123.0,506.0 L 202.0,555.0 L 217.0,568.0 L 224.0,584.0"/>
    <path d="M 186.0,1011.0 L 173.0,980.0 L 170.0,925.0 L 313.0,640.0"/>
    <path d="M 570.0,211.0 L 663.0,257.0 L 679.0,268.0 L 695.0,293.0"/>
    <path d="M 483.0,379.0 L 511.0,385.0 L 571.0,382.0 L 810.0,339.0 L 861.0,341.0"/>
    <path d="M 527.0,448.0 L 582.0,510.0 L 589.0,531.0"/>
    <path d="M 723.0,386.0 L 743.0,401.0 L 753.0,422.0 L 713.0,521.0 L 691.0,552.0"/>
    <path d="M 506.0,580.0 L 529.0,597.0 L 798.0,559.0 L 844.0,559.0 L 878.0,566.0"/>
    <path d="M 446.0,571.0 L 475.0,596.0 L 484.0,625.0 L 477.0,715.0 L 456.0,822.0 L 434.0,879.0 L 402.0,936.0 L 377.0,965.0 L 327.0,1006.0 L 298.0,1015.0"/>
  </g>
</svg>
