<svg xmlns="http://www.w3.org/2000/svg" viewBox="0 0 1024 1024">
  <g style="fill:none;stroke:#000000;stroke-width:50;stroke-linecap:round;stroke-linejoin:round;" transform="scale(1, 1) translate(0, 0)">
    <path d="M 207.0,230.0 L 295.0,280.0 L 332.0,331.0"/>
    <path d="M 133.0,436.0 L 225.0,495.0 L 242.0,517.0"/>
    <path d="M 187.0,950.0 L 172.0,912.0 L 169.0,861.0 L 195.0,818.0 L 305.0,589.0"/>
    <path d="M 425.0,247.0 L 435.0,299.0 L 398.0,392.0 L 395.0,422.0"/>
    <path d="M 469.0,287.0 L 480.0,296.0 L 505.0,294.0 L 572.0,275.0 L 773.0,243.0 L 811.0,257.0 L 828.0,279.0 L 772.0,357.0 L 764.0,359.0"/>
    <path d="M 446.0,462.0 L 481.0,469.0 L 523.0,467.0 L 711.0,423.0 L 757.0,425.0"/>
    <path d="M 561.0,332.0 L 586.0,377.0 L 524.0,531.0 L 470.0,629.0 L 465.0,649.0 L 515.0,654.0 L 752.0,620.0 L 796.0,629.0"/>
    <path d="M 326.0,803.0 L 377.0,813.0 L 542.0,787.0 L 861.0,759.0 L 941.0,778.0"/>
    <path d="M 601.0,525.0 L 630.0,562.0 L 621.0,978.0 L 634.0,1050.0"/>
  </g>
</svg>
