<svg xmlns="http://www.w3.org/2000/svg" viewBox="0 0 1024 1024">
  <g style="fill:none;stroke:#000000;stroke-width:50;stroke-linecap:round;stroke-linejoin:round;" transform="scale(1, 1) translate(0, 0)">
    <path d="M 231.0,265.0 L 312.0,312.0 L 342.0,352.0"/>
    <path d="M 149.0,484.0 L 241.0,543.0 L 258.0,565.0"/>
    <path d="M 207.0,998.0 L 191.0,957.0 L 188.0,910.0 L 321.0,637.0"/>
    <path d="M 526.0,211.0 L 611.0,251.0 L 643.0,287.0"/>
    <path d="M 407.0,380.0 L 460.0,390.0 L 743.0,343.0 L 789.0,342.0 L 825.0,350.0"/>
    <path d="M 641.0,389.0 L 670.0,408.0 L 677.0,428.0 L 640.0,534.0 L 591.0,606.0 L 535.0,649.0 L 482.0,673.0 L 396.0,695.0 L 363.0,695.0"/>
    <path d="M 455.0,460.0 L 509.0,480.0 L 668.0,609.0 L 757.0,659.0 L 783.0,669.0 L 834.0,674.0 L 960.0,673.0"/>
    <path d="M 470.0,733.0 L 507.0,765.0 L 502.0,827.0 L 485.0,902.0 L 464.0,947.0 L 428.0,990.0 L 372.0,1027.0"/>
    <path d="M 659.0,698.0 L 677.0,713.0 L 691.0,745.0 L 687.0,981.0 L 703.0,1065.0"/>
  </g>
</svg>
