<svg xmlns="http://www.w3.org/2000/svg" viewBox="0 0 1024 1024">
  <g style="fill:none;stroke:#000000;stroke-width:50;stroke-linecap:round;stroke-linejoin:round;" transform="scale(1, 1) translate(0, 0)">
    <path d="M 211.0,265.0 L 297.0,316.0 L 318.0,348.0"/>
    <path d="M 121.0,492.0 L 189.0,535.0 L 224.0,569.0"/>
    <path d="M 176.0,997.0 L 164.0,966.0 L 162.0,914.0 L 296.0,662.0"/>
    <path d="M 386.0,417.0 L 395.0,452.0 L 393.0,469.0 L 352.0,556.0 L 348.0,586.0"/>
    <path d="M 429.0,470.0 L 608.0,424.0 L 714.0,406.0 L 743.0,413.0 L 767.0,439.0 L 705.0,518.0"/>
    <path d="M 548.0,204.0 L 575.0,218.0 L 597.0,242.0 L 563.0,396.0 L 512.0,550.0 L 463.0,659.0 L 412.0,741.0 L 315.0,853.0 L 280.0,883.0"/>
    <path d="M 459.0,720.0 L 465.0,792.0 L 458.0,931.0 L 465.0,971.0 L 507.0,956.0 L 597.0,891.0"/>
    <path d="M 744.0,551.0 L 762.0,587.0 L 647.0,695.0 L 640.0,693.0"/>
    <path d="M 523.0,597.0 L 627.0,726.0 L 765.0,868.0 L 788.0,884.0 L 938.0,908.0"/>
  </g>
</svg>
