<svg xmlns="http://www.w3.org/2000/svg" viewBox="0 0 1024 1024">
  <g style="fill:none;stroke:#000000;stroke-width:50;stroke-linecap:round;stroke-linejoin:round;" transform="scale(1, 1) translate(0, 0)">
    <path d="M 206.0,285.0 L 297.0,342.0 L 324.0,381.0"/>
    <path d="M 136.0,488.0 L 215.0,540.0 L 238.0,568.0"/>
    <path d="M 181.0,1002.0 L 169.0,972.0 L 165.0,917.0 L 297.0,657.0"/>
    <path d="M 405.0,338.0 L 439.0,364.0 L 449.0,388.0 L 491.0,577.0"/>
    <path d="M 471.0,342.0 L 492.0,352.0 L 680.0,308.0 L 699.0,306.0 L 722.0,313.0 L 750.0,342.0 L 711.0,459.0 L 683.0,478.0"/>
    <path d="M 513.0,551.0 L 524.0,537.0 L 670.0,509.0 L 728.0,508.0 L 750.0,516.0"/>
    <path d="M 562.0,560.0 L 595.0,576.0 L 602.0,593.0 L 597.0,822.0 L 601.0,856.0 L 618.0,883.0"/>
    <path d="M 637.0,714.0 L 649.0,703.0 L 750.0,682.0 L 802.0,689.0"/>
    <path d="M 414.0,679.0 L 443.0,715.0 L 413.0,803.0 L 348.0,912.0 L 270.0,988.0"/>
    <path d="M 456.0,784.0 L 463.0,807.0 L 554.0,877.0 L 653.0,941.0 L 725.0,977.0 L 782.0,993.0 L 935.0,983.0"/>
  </g>
</svg>
