<svg xmlns="http://www.w3.org/2000/svg" viewBox="0 0 1024 1024">
  <g style="fill:none;stroke:#000000;stroke-width:50;stroke-linecap:round;stroke-linejoin:round;" transform="scale(1, 1) translate(0, 0)">
    <path d="M 197.0,256.0 L 287.0,309.0 L 316.0,348.0"/>
    <path d="M 125.0,482.0 L 198.0,540.0 L 219.0,571.0"/>
    <path d="M 181.0,1006.0 L 169.0,976.0 L 165.0,921.0 L 301.0,653.0"/>
    <path d="M 522.0,197.0 L 604.0,251.0 L 628.0,291.0"/>
    <path d="M 380.0,381.0 L 393.0,429.0 L 364.0,521.0 L 363.0,553.0"/>
    <path d="M 425.0,437.0 L 437.0,426.0 L 540.0,400.0 L 688.0,371.0 L 749.0,366.0 L 772.0,375.0 L 792.0,400.0 L 722.0,490.0"/>
    <path d="M 458.0,560.0 L 516.0,559.0 L 625.0,525.0 L 661.0,523.0"/>
    <path d="M 365.0,704.0 L 413.0,708.0 L 528.0,678.0 L 694.0,647.0 L 741.0,647.0 L 790.0,657.0"/>
    <path d="M 478.0,751.0 L 498.0,785.0 L 479.0,836.0 L 448.0,890.0 L 383.0,958.0 L 311.0,1003.0"/>
    <path d="M 596.0,695.0 L 621.0,712.0 L 628.0,725.0 L 619.0,834.0 L 625.0,943.0 L 640.0,972.0 L 667.0,989.0 L 715.0,1002.0 L 775.0,1004.0 L 847.0,991.0 L 883.0,971.0 L 898.0,957.0 L 904.0,824.0"/>
  </g>
</svg>
