<svg xmlns="http://www.w3.org/2000/svg" viewBox="0 0 1024 1024">
  <g style="fill:none;stroke:#000000;stroke-width:50;stroke-linecap:round;stroke-linejoin:round;" transform="scale(1, 1) translate(0, 0)">
    <path d="M 212.0,328.0 L 295.0,390.0 L 318.0,435.0"/>
    <path d="M 129.0,538.0 L 194.0,586.0 L 214.0,617.0"/>
    <path d="M 189.0,1024.0 L 174.0,984.0 L 170.0,939.0 L 205.0,873.0 L 298.0,661.0"/>
    <path d="M 428.0,389.0 L 445.0,402.0 L 458.0,423.0 L 450.0,455.0 L 415.0,542.0 L 390.0,581.0 L 358.0,614.0"/>
    <path d="M 465.0,507.0 L 568.0,498.0 L 747.0,451.0 L 797.0,452.0"/>
    <path d="M 576.0,223.0 L 628.0,266.0 L 614.0,618.0 L 596.0,639.0"/>
    <path d="M 322.0,702.0 L 384.0,708.0 L 556.0,671.0 L 842.0,628.0 L 880.0,631.0 L 932.0,645.0"/>
    <path d="M 418.0,802.0 L 460.0,849.0 L 503.0,1025.0"/>
    <path d="M 446.0,796.0 L 448.0,801.0 L 491.0,812.0 L 588.0,796.0 L 703.0,767.0 L 727.0,769.0 L 769.0,807.0 L 736.0,906.0 L 708.0,926.0"/>
    <path d="M 522.0,989.0 L 538.0,975.0 L 695.0,955.0 L 747.0,956.0 L 772.0,965.0"/>
  </g>
</svg>
