<svg xmlns="http://www.w3.org/2000/svg" viewBox="0 0 1024 1024">
  <g style="fill:none;stroke:#000000;stroke-width:50;stroke-linecap:round;stroke-linejoin:round;" transform="scale(1, 1) translate(0, 0)">
    <path d="M 229.0,262.0 L 301.0,324.0 L 321.0,368.0"/>
    <path d="M 147.0,449.0 L 210.0,494.0 L 235.0,531.0"/>
    <path d="M 177.0,946.0 L 165.0,916.0 L 161.0,862.0 L 292.0,606.0"/>
    <path d="M 519.0,188.0 L 542.0,211.0 L 549.0,231.0 L 530.0,272.0 L 463.0,376.0 L 402.0,446.0 L 379.0,463.0"/>
    <path d="M 508.0,363.0 L 530.0,354.0 L 632.0,345.0 L 754.0,317.0 L 820.0,314.0"/>
    <path d="M 480.0,447.0 L 505.0,500.0 L 492.0,562.0 L 449.0,693.0 L 385.0,830.0 L 384.0,853.0 L 416.0,860.0 L 592.0,845.0 L 775.0,852.0 L 824.0,860.0 L 888.0,898.0"/>
    <path d="M 531.0,468.0 L 548.0,480.0 L 559.0,479.0 L 715.0,444.0 L 743.0,449.0 L 772.0,481.0 L 735.0,794.0 L 710.0,917.0 L 683.0,990.0 L 668.0,1010.0 L 642.0,1028.0 L 548.0,963.0"/>
    <path d="M 590.0,529.0 L 620.0,574.0 L 623.0,592.0"/>
    <path d="M 314.0,668.0 L 368.0,678.0 L 631.0,645.0 L 883.0,627.0 L 955.0,648.0"/>
    <path d="M 554.0,707.0 L 589.0,747.0 L 599.0,777.0"/>
  </g>
</svg>
