<svg xmlns="http://www.w3.org/2000/svg" viewBox="0 0 1024 1024">
  <g style="fill:none;stroke:#000000;stroke-width:50;stroke-linecap:round;stroke-linejoin:round;" transform="scale(1, 1) translate(0, 0)">
    <path d="M 221.0,317.0 L 300.0,376.0 L 322.0,419.0"/>
    <path d="M 138.0,522.0 L 205.0,571.0 L 221.0,599.0"/>
    <path d="M 213.0,969.0 L 198.0,926.0 L 196.0,885.0 L 222.0,841.0 L 321.0,629.0"/>
    <path d="M 454.0,441.0 L 476.0,447.0 L 527.0,446.0 L 741.0,402.0 L 784.0,402.0"/>
    <path d="M 555.0,209.0 L 583.0,226.0 L 607.0,255.0 L 593.0,585.0 L 580.0,700.0 L 560.0,787.0 L 519.0,873.0 L 472.0,927.0 L 389.0,985.0 L 299.0,1022.0"/>
    <path d="M 609.0,713.0 L 615.0,743.0 L 660.0,802.0 L 760.0,921.0 L 813.0,971.0 L 980.0,1015.0"/>
    <path d="M 439.0,513.0 L 464.0,545.0 L 445.0,591.0 L 409.0,650.0 L 346.0,711.0"/>
    <path d="M 438.0,651.0 L 495.0,702.0"/>
    <path d="M 751.0,496.0 L 772.0,532.0 L 756.0,560.0 L 711.0,617.0 L 646.0,664.0"/>
    <path d="M 739.0,625.0 L 774.0,637.0 L 823.0,674.0 L 847.0,712.0"/>
  </g>
</svg>
