<svg xmlns="http://www.w3.org/2000/svg" viewBox="0 0 1024 1024">
  <g style="fill:none;stroke:#000000;stroke-width:50;stroke-linecap:round;stroke-linejoin:round;" transform="scale(1, 1) translate(0, 0)">
    <path d="M 208.0,276.0 L 302.0,336.0 L 330.0,380.0"/>
    <path d="M 129.0,496.0 L 197.0,539.0 L 232.0,573.0"/>
    <path d="M 192.0,1011.0 L 181.0,980.0 L 179.0,927.0 L 332.0,638.0"/>
    <path d="M 404.0,325.0 L 426.0,343.0 L 442.0,376.0 L 484.0,608.0"/>
    <path d="M 453.0,327.0 L 475.0,337.0 L 595.0,312.0 L 718.0,295.0 L 760.0,305.0 L 786.0,339.0 L 772.0,376.0 L 740.0,515.0 L 723.0,557.0 L 728.0,584.0"/>
    <path d="M 492.0,465.0 L 499.0,457.0 L 589.0,438.0 L 642.0,431.0 L 663.0,437.0"/>
    <path d="M 507.0,580.0 L 524.0,569.0 L 683.0,541.0"/>
    <path d="M 419.0,777.0 L 457.0,785.0 L 498.0,783.0 L 638.0,762.0 L 736.0,736.0 L 796.0,739.0"/>
    <path d="M 566.0,631.0 L 607.0,666.0 L 599.0,891.0 L 583.0,912.0"/>
    <path d="M 323.0,955.0 L 382.0,965.0 L 497.0,948.0 L 838.0,917.0 L 914.0,939.0"/>
  </g>
</svg>
