<svg xmlns="http://www.w3.org/2000/svg" viewBox="0 0 1024 1024">
  <g style="fill:none;stroke:#000000;stroke-width:50;stroke-linecap:round;stroke-linejoin:round;" transform="scale(1, 1) translate(0, 0)">
    <path d="M 210.0,281.0 L 300.0,327.0 L 329.0,364.0"/>
    <path d="M 129.0,480.0 L 197.0,523.0 L 232.0,557.0"/>
    <path d="M 187.0,959.0 L 176.0,929.0 L 174.0,876.0 L 305.0,635.0"/>
    <path d="M 434.0,385.0 L 507.0,390.0 L 680.0,352.0 L 727.0,344.0 L 760.0,346.0"/>
    <path d="M 371.0,506.0 L 402.0,531.0 L 448.0,705.0"/>
    <path d="M 433.0,512.0 L 443.0,522.0 L 473.0,520.0 L 729.0,471.0 L 750.0,480.0 L 773.0,505.0 L 746.0,583.0 L 721.0,599.0"/>
    <path d="M 463.0,653.0 L 477.0,664.0 L 716.0,628.0 L 759.0,630.0 L 779.0,638.0"/>
    <path d="M 533.0,189.0 L 577.0,229.0 L 588.0,253.0 L 586.0,736.0 L 572.0,968.0 L 576.0,1057.0"/>
    <path d="M 558.0,677.0 L 527.0,745.0 L 472.0,812.0 L 378.0,898.0 L 309.0,937.0"/>
    <path d="M 609.0,671.0 L 623.0,701.0 L 700.0,792.0 L 796.0,886.0 L 945.0,920.0"/>
  </g>
</svg>
