<svg xmlns="http://www.w3.org/2000/svg" viewBox="0 0 1024 1024">
  <g style="fill:none;stroke:#000000;stroke-width:50;stroke-linecap:round;stroke-linejoin:round;" transform="scale(1, 1) translate(0, 0)">
    <path d="M 198.0,269.0 L 279.0,320.0 L 309.0,364.0"/>
    <path d="M 115.0,492.0 L 185.0,525.0 L 215.0,556.0"/>
    <path d="M 181.0,985.0 L 166.0,943.0 L 162.0,900.0 L 198.0,836.0 L 290.0,634.0"/>
    <path d="M 414.0,293.0 L 453.0,307.0 L 503.0,301.0 L 656.0,252.0 L 701.0,250.0 L 731.0,279.0 L 715.0,305.0 L 633.0,396.0 L 622.0,396.0"/>
    <path d="M 534.0,395.0 L 614.0,434.0 L 634.0,459.0"/>
    <path d="M 371.0,525.0 L 396.0,545.0 L 405.0,565.0 L 409.0,627.0 L 399.0,787.0 L 385.0,880.0 L 368.0,938.0 L 366.0,995.0"/>
    <path d="M 434.0,537.0 L 458.0,548.0 L 740.0,488.0 L 769.0,490.0 L 801.0,518.0 L 811.0,898.0 L 804.0,981.0 L 793.0,1004.0 L 778.0,1003.0 L 670.0,969.0"/>
    <path d="M 491.0,678.0 L 539.0,682.0 L 672.0,650.0 L 706.0,650.0"/>
    <path d="M 485.0,791.0 L 553.0,795.0 L 666.0,770.0 L 712.0,770.0"/>
    <path d="M 556.0,546.0 L 593.0,573.0 L 583.0,1015.0"/>
  </g>
</svg>
