<svg xmlns="http://www.w3.org/2000/svg" viewBox="0 0 1024 1024">
  <g style="fill:none;stroke:#000000;stroke-width:50;stroke-linecap:round;stroke-linejoin:round;" transform="scale(1, 1) translate(0, 0)">
    <path d="M 222.0,257.0 L 298.0,305.0 L 311.0,317.0 L 329.0,352.0"/>
    <path d="M 141.0,469.0 L 216.0,516.0 L 238.0,541.0"/>
    <path d="M 189.0,969.0 L 177.0,940.0 L 175.0,885.0 L 317.0,613.0"/>
    <path d="M 565.0,207.0 L 609.0,243.0 L 602.0,468.0 L 597.0,490.0 L 586.0,501.0"/>
    <path d="M 427.0,346.0 L 486.0,403.0 L 498.0,425.0"/>
    <path d="M 777.0,268.0 L 797.0,304.0 L 679.0,413.0"/>
    <path d="M 427.0,505.0 L 460.0,537.0 L 465.0,632.0 L 445.0,841.0 L 423.0,938.0 L 418.0,991.0"/>
    <path d="M 498.0,525.0 L 506.0,532.0 L 559.0,525.0 L 712.0,489.0 L 743.0,504.0 L 758.0,522.0 L 756.0,692.0 L 763.0,920.0 L 756.0,985.0 L 739.0,1010.0 L 707.0,1001.0 L 614.0,952.0"/>
    <path d="M 491.0,663.0 L 615.0,642.0 L 665.0,643.0"/>
    <path d="M 485.0,775.0 L 491.0,783.0 L 525.0,784.0 L 636.0,762.0 L 675.0,762.0"/>
  </g>
</svg>
