<svg xmlns="http://www.w3.org/2000/svg" viewBox="0 0 1024 1024">
  <g style="fill:none;stroke:#000000;stroke-width:50;stroke-linecap:round;stroke-linejoin:round;" transform="scale(1, 1) translate(0, 0)">
    <path d="M 211.0,237.0 L 312.0,291.0 L 345.0,334.0"/>
    <path d="M 132.0,437.0 L 208.0,490.0 L 231.0,521.0"/>
    <path d="M 193.0,993.0 L 182.0,961.0 L 181.0,907.0 L 221.0,845.0 L 348.0,608.0"/>
    <path d="M 454.0,259.0 L 483.0,280.0 L 489.0,294.0 L 527.0,449.0"/>
    <path d="M 514.0,261.0 L 523.0,270.0 L 554.0,269.0 L 722.0,234.0 L 752.0,235.0 L 772.0,247.0 L 788.0,267.0 L 756.0,342.0 L 729.0,360.0"/>
    <path d="M 545.0,428.0 L 560.0,414.0 L 727.0,386.0 L 766.0,385.0 L 791.0,393.0"/>
    <path d="M 471.0,517.0 L 500.0,543.0 L 506.0,631.0 L 486.0,812.0 L 475.0,877.0 L 454.0,947.0 L 450.0,999.0"/>
    <path d="M 534.0,527.0 L 548.0,538.0 L 593.0,532.0 L 747.0,496.0 L 774.0,512.0 L 789.0,531.0 L 788.0,656.0 L 802.0,914.0 L 796.0,974.0 L 784.0,993.0 L 770.0,998.0 L 677.0,945.0"/>
    <path d="M 530.0,666.0 L 542.0,659.0 L 647.0,645.0 L 695.0,646.0"/>
    <path d="M 519.0,796.0 L 529.0,790.0 L 583.0,786.0 L 651.0,771.0 L 704.0,772.0"/>
  </g>
</svg>
