<svg xmlns="http://www.w3.org/2000/svg" viewBox="0 0 1024 1024">
  <g style="fill:none;stroke:#000000;stroke-width:50;stroke-linecap:round;stroke-linejoin:round;" transform="scale(1, 1) translate(0, 0)">
    <path d="M 206.0,262.0 L 281.0,315.0 L 312.0,366.0"/>
    <path d="M 106.0,466.0 L 181.0,516.0 L 206.0,547.0"/>
    <path d="M 170.0,976.0 L 158.0,945.0 L 156.0,890.0 L 302.0,621.0"/>
    <path d="M 484.0,268.0 L 509.0,285.0 L 522.0,304.0 L 509.0,361.0 L 449.0,513.0 L 406.0,598.0 L 365.0,655.0"/>
    <path d="M 445.0,568.0 L 461.0,627.0 L 462.0,663.0 L 458.0,828.0 L 442.0,967.0 L 447.0,1022.0"/>
    <path d="M 633.0,260.0 L 702.0,310.0 L 730.0,356.0"/>
    <path d="M 542.0,512.0 L 615.0,513.0 L 799.0,473.0 L 867.0,468.0"/>
    <path d="M 578.0,630.0 L 616.0,695.0 L 622.0,725.0"/>
    <path d="M 762.0,564.0 L 778.0,573.0 L 797.0,606.0 L 742.0,772.0 L 722.0,817.0 L 703.0,836.0"/>
    <path d="M 517.0,875.0 L 550.0,883.0 L 569.0,881.0 L 876.0,836.0 L 926.0,840.0 L 960.0,851.0"/>
  </g>
</svg>
