<svg xmlns="http://www.w3.org/2000/svg" viewBox="0 0 1024 1024">
  <g style="fill:none;stroke:#000000;stroke-width:50;stroke-linecap:round;stroke-linejoin:round;" transform="scale(1, 1) translate(0, 0)">
    <path d="M 210.0,261.0 L 285.0,311.0 L 306.0,346.0"/>
    <path d="M 125.0,438.0 L 191.0,488.0 L 212.0,519.0"/>
    <path d="M 178.0,898.0 L 166.0,868.0 L 165.0,819.0 L 296.0,576.0"/>
    <path d="M 442.0,246.0 L 495.0,300.0 L 513.0,335.0"/>
    <path d="M 685.0,183.0 L 710.0,215.0 L 603.0,353.0"/>
    <path d="M 426.0,434.0 L 483.0,435.0 L 673.0,389.0 L 699.0,390.0 L 716.0,398.0 L 734.0,420.0 L 705.0,479.0 L 675.0,493.0"/>
    <path d="M 422.0,565.0 L 436.0,571.0 L 671.0,522.0 L 728.0,526.0"/>
    <path d="M 366.0,547.0 L 385.0,567.0 L 395.0,590.0 L 377.0,658.0 L 374.0,700.0 L 409.0,701.0 L 505.0,676.0 L 764.0,629.0 L 819.0,622.0 L 846.0,625.0 L 880.0,664.0 L 833.0,805.0 L 818.0,829.0 L 801.0,844.0 L 717.0,798.0"/>
    <path d="M 543.0,440.0 L 567.0,462.0 L 569.0,510.0 L 558.0,1081.0"/>
    <path d="M 538.0,693.0 L 528.0,701.0 L 516.0,748.0 L 422.0,857.0 L 329.0,934.0 L 246.0,981.0"/>
  </g>
</svg>
