<svg xmlns="http://www.w3.org/2000/svg" viewBox="0 0 1024 1024">
  <g style="fill:none;stroke:#000000;stroke-width:50;stroke-linecap:round;stroke-linejoin:round;" transform="scale(1, 1) translate(0, 0)">
    <path d="M 174.0,282.0 L 246.0,338.0 L 269.0,382.0"/>
    <path d="M 97.0,470.0 L 148.0,509.0 L 172.0,544.0"/>
    <path d="M 150.0,934.0 L 138.0,905.0 L 136.0,855.0 L 280.0,585.0"/>
    <path d="M 510.0,195.0 L 553.0,235.0 L 547.0,363.0 L 528.0,391.0"/>
    <path d="M 367.0,309.0 L 392.0,346.0 L 385.0,445.0 L 418.0,446.0 L 593.0,400.0 L 668.0,390.0 L 686.0,375.0"/>
    <path d="M 699.0,255.0 L 733.0,295.0 L 716.0,406.0 L 714.0,461.0"/>
    <path d="M 496.0,450.0 L 527.0,478.0 L 504.0,530.0 L 453.0,609.0 L 395.0,682.0 L 353.0,724.0 L 281.0,783.0 L 252.0,802.0 L 238.0,804.0 L 235.0,811.0"/>
    <path d="M 559.0,515.0 L 558.0,529.0 L 661.0,625.0 L 729.0,681.0 L 773.0,708.0 L 837.0,726.0 L 963.0,744.0"/>
    <path d="M 481.0,651.0 L 546.0,702.0 L 556.0,726.0"/>
    <path d="M 368.0,831.0 L 409.0,843.0 L 430.0,842.0 L 563.0,799.0 L 624.0,786.0 L 637.0,786.0 L 658.0,801.0 L 663.0,810.0 L 657.0,829.0 L 605.0,925.0 L 558.0,993.0 L 540.0,1046.0"/>
  </g>
</svg>
