<svg xmlns="http://www.w3.org/2000/svg" viewBox="0 0 1024 1024">
  <g style="fill:none;stroke:#000000;stroke-width:50;stroke-linecap:round;stroke-linejoin:round;" transform="scale(1, 1) translate(0, 0)">
    <path d="M 184.0,288.0 L 276.0,342.0 L 304.0,384.0"/>
    <path d="M 113.0,480.0 L 189.0,526.0 L 211.0,554.0"/>
    <path d="M 168.0,959.0 L 157.0,929.0 L 155.0,874.0 L 182.0,833.0 L 297.0,609.0"/>
    <path d="M 449.0,378.0 L 502.0,384.0 L 621.0,362.0 L 692.0,341.0 L 741.0,341.0"/>
    <path d="M 404.0,483.0 L 465.0,528.0 L 490.0,570.0"/>
    <path d="M 734.0,418.0 L 752.0,450.0 L 661.0,538.0"/>
    <path d="M 337.0,659.0 L 378.0,667.0 L 776.0,606.0 L 835.0,611.0 L 869.0,623.0"/>
    <path d="M 536.0,211.0 L 565.0,233.0 L 589.0,264.0 L 587.0,749.0 L 572.0,957.0 L 575.0,1049.0"/>
    <path d="M 557.0,663.0 L 542.0,679.0 L 533.0,708.0 L 510.0,740.0 L 422.0,839.0 L 355.0,896.0 L 281.0,937.0"/>
    <path d="M 614.0,656.0 L 626.0,685.0 L 714.0,790.0 L 812.0,880.0 L 834.0,893.0 L 958.0,910.0"/>
  </g>
</svg>
