<svg xmlns="http://www.w3.org/2000/svg" viewBox="0 0 1024 1024">
  <g style="fill:none;stroke:#000000;stroke-width:50;stroke-linecap:round;stroke-linejoin:round;" transform="scale(1, 1) translate(0, 0)">
    <path d="M 225.0,273.0 L 313.0,336.0 L 338.0,378.0"/>
    <path d="M 136.0,490.0 L 206.0,541.0 L 236.0,576.0"/>
    <path d="M 186.0,980.0 L 174.0,953.0 L 170.0,904.0 L 301.0,633.0"/>
    <path d="M 547.0,216.0 L 571.0,253.0 L 567.0,272.0 L 474.0,390.0 L 404.0,451.0"/>
    <path d="M 534.0,365.0 L 578.0,364.0 L 646.0,350.0 L 674.0,352.0 L 696.0,364.0 L 655.0,429.0 L 577.0,519.0"/>
    <path d="M 375.0,537.0 L 414.0,575.0 L 432.0,699.0 L 438.0,717.0 L 451.0,724.0"/>
    <path d="M 444.0,552.0 L 455.0,561.0 L 574.0,539.0 L 684.0,509.0 L 733.0,508.0 L 764.0,541.0 L 737.0,657.0 L 731.0,671.0 L 704.0,694.0"/>
    <path d="M 306.0,756.0 L 354.0,765.0 L 514.0,742.0 L 818.0,715.0 L 867.0,721.0 L 899.0,732.0"/>
    <path d="M 536.0,565.0 L 563.0,580.0 L 577.0,603.0 L 567.0,706.0 L 551.0,777.0 L 532.0,827.0 L 485.0,901.0 L 449.0,935.0 L 391.0,972.0 L 325.0,997.0"/>
    <path d="M 589.0,761.0 L 653.0,842.0 L 762.0,946.0 L 822.0,968.0 L 945.0,993.0"/>
  </g>
</svg>
