<svg xmlns="http://www.w3.org/2000/svg" viewBox="0 0 1024 1024">
  <g style="fill:none;stroke:#000000;stroke-width:50;stroke-linecap:round;stroke-linejoin:round;" transform="scale(1, 1) translate(0, 0)">
    <path d="M 198.0,297.0 L 288.0,354.0 L 312.0,388.0"/>
    <path d="M 133.0,486.0 L 210.0,548.0 L 224.0,571.0"/>
    <path d="M 188.0,968.0 L 179.0,946.0 L 176.0,889.0 L 316.0,641.0"/>
    <path d="M 528.0,206.0 L 618.0,261.0 L 643.0,299.0"/>
    <path d="M 412.0,361.0 L 422.0,387.0 L 422.0,417.0 L 393.0,495.0 L 391.0,525.0"/>
    <path d="M 451.0,387.0 L 468.0,399.0 L 477.0,398.0 L 632.0,366.0 L 804.0,345.0 L 843.0,356.0 L 862.0,385.0 L 782.0,463.0"/>
    <path d="M 476.0,512.0 L 501.0,542.0 L 510.0,603.0 L 502.0,884.0 L 492.0,987.0 L 497.0,1046.0"/>
    <path d="M 540.0,551.0 L 550.0,542.0 L 702.0,509.0 L 732.0,535.0 L 710.0,607.0 L 685.0,624.0"/>
    <path d="M 535.0,684.0 L 553.0,673.0 L 686.0,650.0 L 723.0,648.0 L 747.0,656.0"/>
    <path d="M 533.0,818.0 L 554.0,805.0 L 731.0,775.0 L 751.0,786.0 L 769.0,807.0 L 739.0,879.0 L 709.0,902.0"/>
    <path d="M 529.0,961.0 L 546.0,948.0 L 698.0,928.0 L 751.0,926.0 L 783.0,936.0"/>
  </g>
</svg>
