<svg xmlns="http://www.w3.org/2000/svg" viewBox="0 0 1024 1024">
  <g style="fill:none;stroke:#000000;stroke-width:50;stroke-linecap:round;stroke-linejoin:round;" transform="scale(1, 1) translate(0, 0)">
    <path d="M 211.0,270.0 L 284.0,314.0 L 313.0,356.0"/>
    <path d="M 128.0,464.0 L 192.0,504.0 L 213.0,521.0 L 223.0,539.0"/>
    <path d="M 168.0,969.0 L 155.0,938.0 L 151.0,888.0 L 281.0,616.0"/>
    <path d="M 434.0,350.0 L 455.0,359.0 L 488.0,361.0 L 640.0,311.0 L 663.0,309.0 L 674.0,314.0 L 697.0,338.0 L 688.0,355.0 L 600.0,453.0 L 586.0,454.0"/>
    <path d="M 549.0,458.0 L 588.0,490.0 L 607.0,634.0 L 607.0,730.0 L 599.0,762.0 L 581.0,791.0 L 493.0,756.0"/>
    <path d="M 419.0,524.0 L 487.0,574.0 L 495.0,592.0"/>
    <path d="M 392.0,746.0 L 433.0,742.0 L 544.0,643.0"/>
    <path d="M 733.0,473.0 L 747.0,502.0 L 652.0,591.0"/>
    <path d="M 662.0,669.0 L 736.0,721.0 L 761.0,767.0"/>
    <path d="M 311.0,662.0 L 338.0,694.0 L 347.0,715.0 L 346.0,793.0 L 332.0,912.0 L 376.0,912.0 L 619.0,864.0 L 783.0,850.0 L 800.0,836.0"/>
    <path d="M 819.0,598.0 L 856.0,645.0 L 844.0,789.0 L 828.0,879.0 L 826.0,940.0"/>
  </g>
</svg>
