<svg xmlns="http://www.w3.org/2000/svg" viewBox="0 0 1024 1024">
  <g style="fill:none;stroke:#000000;stroke-width:50;stroke-linecap:round;stroke-linejoin:round;" transform="scale(1, 1) translate(0, 0)">
    <path d="M 201.0,296.0 L 283.0,351.0 L 306.0,392.0"/>
    <path d="M 132.0,510.0 L 209.0,565.0 L 224.0,589.0"/>
    <path d="M 181.0,973.0 L 172.0,943.0 L 173.0,898.0 L 316.0,668.0"/>
    <path d="M 513.0,208.0 L 587.0,253.0 L 618.0,295.0"/>
    <path d="M 393.0,393.0 L 402.0,418.0 L 399.0,451.0 L 364.0,522.0 L 359.0,555.0"/>
    <path d="M 430.0,419.0 L 446.0,432.0 L 526.0,412.0 L 716.0,380.0 L 767.0,382.0 L 791.0,396.0 L 803.0,416.0 L 730.0,496.0"/>
    <path d="M 453.0,582.0 L 475.0,588.0 L 516.0,587.0 L 644.0,557.0 L 701.0,557.0"/>
    <path d="M 553.0,608.0 L 581.0,631.0 L 574.0,853.0 L 593.0,885.0"/>
    <path d="M 608.0,747.0 L 626.0,737.0 L 720.0,718.0 L 764.0,717.0"/>
    <path d="M 405.0,716.0 L 430.0,751.0 L 389.0,842.0 L 346.0,905.0 L 258.0,983.0"/>
    <path d="M 448.0,802.0 L 449.0,818.0 L 542.0,887.0 L 624.0,938.0 L 730.0,989.0 L 795.0,1002.0 L 936.0,986.0"/>
  </g>
</svg>
