<svg xmlns="http://www.w3.org/2000/svg" viewBox="0 0 1024 1024">
  <g style="fill:none;stroke:#000000;stroke-width:50;stroke-linecap:round;stroke-linejoin:round;" transform="scale(1, 1) translate(0, 0)">
    <path d="M 205.0,252.0 L 281.0,296.0 L 315.0,340.0"/>
    <path d="M 116.0,437.0 L 192.0,488.0 L 208.0,510.0"/>
    <path d="M 168.0,950.0 L 154.0,923.0 L 147.0,870.0 L 261.0,596.0"/>
    <path d="M 410.0,305.0 L 431.0,310.0 L 498.0,309.0 L 700.0,264.0 L 744.0,266.0"/>
    <path d="M 503.0,338.0 L 524.0,360.0 L 493.0,405.0 L 457.0,445.0 L 411.0,481.0 L 355.0,517.0 L 345.0,516.0 L 339.0,525.0"/>
    <path d="M 484.0,451.0 L 511.0,461.0 L 562.0,510.0 L 600.0,567.0 L 630.0,666.0 L 637.0,752.0 L 621.0,884.0 L 608.0,922.0 L 581.0,957.0 L 469.0,892.0"/>
    <path d="M 517.0,497.0 L 522.0,530.0 L 472.0,588.0 L 385.0,666.0 L 325.0,700.0"/>
    <path d="M 586.0,593.0 L 576.0,657.0 L 508.0,743.0 L 382.0,861.0 L 297.0,909.0"/>
    <path d="M 337.0,574.0 L 421.0,657.0 L 440.0,705.0"/>
    <path d="M 721.0,412.0 L 733.0,421.0 L 747.0,450.0 L 691.0,514.0 L 634.0,567.0 L 633.0,577.0"/>
    <path d="M 643.0,601.0 L 675.0,650.0 L 756.0,727.0 L 806.0,764.0 L 882.0,785.0 L 982.0,799.0"/>
  </g>
</svg>
