<svg xmlns="http://www.w3.org/2000/svg" viewBox="0 0 1024 1024">
  <g style="fill:none;stroke:#000000;stroke-width:50;stroke-linecap:round;stroke-linejoin:round;" transform="scale(1, 1) translate(0, 0)">
    <path d="M 183.0,293.0 L 264.0,338.0 L 293.0,375.0"/>
    <path d="M 116.0,497.0 L 192.0,548.0 L 215.0,576.0"/>
    <path d="M 168.0,985.0 L 155.0,955.0 L 151.0,905.0 L 281.0,645.0"/>
    <path d="M 432.0,268.0 L 448.0,277.0 L 465.0,310.0 L 419.0,398.0 L 374.0,465.0 L 368.0,487.0 L 394.0,515.0 L 473.0,568.0 L 482.0,592.0"/>
    <path d="M 598.0,246.0 L 619.0,264.0 L 627.0,291.0 L 592.0,354.0 L 543.0,421.0 L 529.0,455.0 L 544.0,475.0 L 629.0,529.0 L 643.0,544.0 L 648.0,563.0"/>
    <path d="M 764.0,232.0 L 785.0,252.0 L 794.0,279.0 L 746.0,357.0 L 709.0,400.0 L 692.0,436.0 L 719.0,464.0 L 809.0,519.0 L 819.0,528.0 L 827.0,551.0"/>
    <path d="M 347.0,644.0 L 383.0,677.0 L 393.0,704.0 L 417.0,907.0 L 437.0,982.0"/>
    <path d="M 412.0,661.0 L 437.0,675.0 L 578.0,657.0 L 745.0,625.0 L 778.0,629.0 L 801.0,646.0 L 813.0,660.0 L 778.0,897.0 L 772.0,926.0 L 752.0,956.0 L 751.0,1009.0"/>
    <path d="M 481.0,790.0 L 530.0,797.0 L 666.0,768.0 L 703.0,771.0"/>
    <path d="M 554.0,677.0 L 580.0,698.0 L 583.0,730.0 L 581.0,882.0 L 578.0,894.0 L 566.0,904.0"/>
    <path d="M 455.0,934.0 L 465.0,941.0 L 654.0,915.0 L 719.0,917.0"/>
  </g>
</svg>
