<svg xmlns="http://www.w3.org/2000/svg" viewBox="0 0 1024 1024">
  <g style="fill:none;stroke:#000000;stroke-width:50;stroke-linecap:round;stroke-linejoin:round;" transform="scale(1, 1) translate(0, 0)">
    <path d="M 219.0,265.0 L 303.0,312.0 L 333.0,351.0"/>
    <path d="M 121.0,473.0 L 203.0,525.0 L 224.0,551.0"/>
    <path d="M 192.0,985.0 L 178.0,949.0 L 174.0,904.0 L 200.0,860.0 L 301.0,641.0"/>
    <path d="M 676.0,175.0 L 688.0,193.0 L 692.0,214.0 L 647.0,276.0 L 597.0,326.0 L 537.0,373.0 L 466.0,416.0 L 417.0,437.0"/>
    <path d="M 480.0,266.0 L 693.0,346.0 L 739.0,372.0 L 768.0,404.0"/>
    <path d="M 346.0,544.0 L 383.0,551.0 L 411.0,548.0 L 600.0,512.0 L 823.0,484.0 L 904.0,501.0"/>
    <path d="M 542.0,414.0 L 566.0,445.0 L 516.0,565.0 L 464.0,645.0 L 399.0,728.0 L 331.0,794.0 L 290.0,823.0"/>
    <path d="M 511.0,629.0 L 515.0,641.0 L 507.0,672.0 L 499.0,826.0 L 488.0,899.0 L 471.0,961.0 L 467.0,1012.0"/>
    <path d="M 540.0,653.0 L 550.0,642.0 L 663.0,610.0 L 693.0,611.0 L 724.0,634.0 L 721.0,689.0 L 739.0,919.0 L 731.0,982.0 L 711.0,1010.0 L 688.0,1005.0 L 610.0,969.0"/>
    <path d="M 532.0,757.0 L 541.0,745.0 L 584.0,734.0 L 617.0,729.0 L 648.0,734.0"/>
    <path d="M 524.0,854.0 L 533.0,844.0 L 587.0,832.0 L 618.0,828.0 L 648.0,833.0"/>
  </g>
</svg>
