<svg xmlns="http://www.w3.org/2000/svg" viewBox="0 0 1024 1024">
  <g style="fill:none;stroke:#000000;stroke-width:50;stroke-linecap:round;stroke-linejoin:round;" transform="scale(1, 1) translate(0, 0)">
    <path d="M 145.0,271.0 L 214.0,315.0 L 243.0,355.0"/>
    <path d="M 88.0,460.0 L 158.0,497.0 L 177.0,521.0"/>
    <path d="M 130.0,909.0 L 120.0,881.0 L 118.0,840.0 L 241.0,608.0"/>
    <path d="M 296.0,313.0 L 328.0,342.0 L 334.0,399.0 L 328.0,566.0 L 315.0,672.0 L 274.0,812.0 L 216.0,926.0 L 187.0,967.0"/>
    <path d="M 360.0,345.0 L 371.0,334.0 L 451.0,307.0 L 480.0,323.0 L 489.0,340.0 L 486.0,902.0 L 468.0,937.0 L 442.0,928.0 L 373.0,887.0"/>
    <path d="M 360.0,525.0 L 365.0,515.0 L 384.0,506.0 L 417.0,501.0 L 437.0,505.0"/>
    <path d="M 344.0,663.0 L 364.0,643.0 L 412.0,636.0 L 433.0,641.0"/>
    <path d="M 622.0,432.0 L 635.0,442.0 L 797.0,400.0 L 831.0,405.0 L 855.0,429.0 L 826.0,542.0 L 803.0,559.0"/>
    <path d="M 694.0,447.0 L 711.0,470.0 L 707.0,565.0 L 690.0,574.0"/>
    <path d="M 609.0,624.0 L 625.0,615.0 L 793.0,586.0 L 839.0,584.0 L 863.0,592.0"/>
    <path d="M 567.0,420.0 L 585.0,439.0 L 592.0,465.0 L 581.0,618.0 L 583.0,755.0 L 599.0,832.0 L 620.0,866.0 L 687.0,896.0 L 765.0,905.0 L 825.0,901.0 L 893.0,880.0 L 936.0,846.0 L 934.0,709.0"/>
  </g>
</svg>
