<svg xmlns="http://www.w3.org/2000/svg" viewBox="0 0 1024 1024">
  <g style="fill:none;stroke:#000000;stroke-width:50;stroke-linecap:round;stroke-linejoin:round;" transform="scale(1, 1) translate(0, 0)">
    <path d="M 222.0,269.0 L 301.0,318.0 L 329.0,360.0"/>
    <path d="M 137.0,468.0 L 212.0,519.0 L 229.0,535.0 L 232.0,546.0"/>
    <path d="M 183.0,973.0 L 171.0,942.0 L 168.0,891.0 L 305.0,617.0"/>
    <path d="M 505.0,190.0 L 529.0,214.0 L 538.0,236.0 L 535.0,244.0 L 503.0,307.0 L 444.0,398.0 L 391.0,454.0"/>
    <path d="M 473.0,400.0 L 483.0,394.0 L 561.0,389.0 L 785.0,348.0 L 818.0,354.0 L 847.0,385.0 L 841.0,433.0 L 840.0,682.0 L 824.0,819.0 L 803.0,900.0 L 767.0,969.0 L 733.0,996.0 L 708.0,984.0 L 641.0,926.0"/>
    <path d="M 455.0,470.0 L 473.0,497.0 L 438.0,543.0 L 377.0,606.0"/>
    <path d="M 464.0,553.0 L 565.0,539.0 L 641.0,517.0 L 700.0,515.0"/>
    <path d="M 328.0,693.0 L 370.0,697.0 L 464.0,675.0 L 663.0,643.0 L 713.0,642.0 L 760.0,653.0"/>
    <path d="M 520.0,565.0 L 547.0,586.0 L 551.0,605.0 L 546.0,792.0 L 542.0,807.0 L 530.0,816.0"/>
    <path d="M 378.0,746.0 L 400.0,779.0 L 393.0,868.0 L 425.0,868.0 L 492.0,848.0 L 617.0,823.0 L 652.0,820.0 L 663.0,832.0"/>
    <path d="M 659.0,723.0 L 689.0,752.0 L 695.0,873.0"/>
  </g>
</svg>
