<svg xmlns="http://www.w3.org/2000/svg" viewBox="0 0 1024 1024">
  <g style="fill:none;stroke:#000000;stroke-width:50;stroke-linecap:round;stroke-linejoin:round;" transform="scale(1, 1) translate(0, 0)">
    <path d="M 214.0,269.0 L 293.0,321.0 L 309.0,352.0"/>
    <path d="M 120.0,446.0 L 193.0,511.0 L 204.0,534.0"/>
    <path d="M 184.0,952.0 L 169.0,916.0 L 165.0,871.0 L 281.0,621.0"/>
    <path d="M 523.0,193.0 L 594.0,238.0 L 626.0,277.0"/>
    <path d="M 392.0,357.0 L 404.0,391.0 L 363.0,492.0 L 359.0,544.0"/>
    <path d="M 433.0,409.0 L 569.0,375.0 L 693.0,353.0 L 767.0,343.0 L 808.0,355.0 L 826.0,382.0 L 742.0,469.0"/>
    <path d="M 473.0,553.0 L 518.0,559.0 L 630.0,537.0 L 680.0,538.0"/>
    <path d="M 357.0,708.0 L 405.0,716.0 L 617.0,680.0 L 779.0,663.0 L 855.0,680.0"/>
    <path d="M 565.0,713.0 L 591.0,733.0 L 599.0,753.0 L 603.0,903.0 L 598.0,953.0 L 581.0,983.0 L 533.0,968.0 L 480.0,941.0"/>
    <path d="M 415.0,803.0 L 400.0,865.0 L 361.0,953.0"/>
    <path d="M 724.0,792.0 L 830.0,874.0 L 853.0,922.0"/>
  </g>
</svg>
