<svg xmlns="http://www.w3.org/2000/svg" viewBox="0 0 1024 1024">
  <g style="fill:none;stroke:#000000;stroke-width:50;stroke-linecap:round;stroke-linejoin:round;" transform="scale(1, 1) translate(0, 0)">
    <path d="M 166.0,309.0 L 248.0,363.0 L 272.0,403.0"/>
    <path d="M 101.0,514.0 L 164.0,562.0 L 180.0,591.0"/>
    <path d="M 159.0,947.0 L 144.0,911.0 L 140.0,869.0 L 250.0,629.0"/>
    <path d="M 263.0,543.0 L 324.0,544.0 L 462.0,502.0 L 517.0,497.0"/>
    <path d="M 381.0,208.0 L 407.0,229.0 L 429.0,259.0 L 415.0,783.0 L 396.0,954.0 L 397.0,1039.0"/>
    <path d="M 397.0,552.0 L 388.0,560.0 L 368.0,642.0 L 309.0,752.0 L 220.0,866.0"/>
    <path d="M 437.0,676.0 L 500.0,741.0"/>
    <path d="M 589.0,445.0 L 613.0,473.0 L 595.0,522.0 L 552.0,593.0 L 510.0,641.0 L 496.0,645.0 L 494.0,655.0"/>
    <path d="M 640.0,308.0 L 670.0,321.0 L 684.0,338.0 L 761.0,466.0 L 856.0,585.0 L 983.0,623.0"/>
    <path d="M 626.0,617.0 L 655.0,652.0 L 622.0,737.0 L 571.0,822.0 L 564.0,855.0 L 592.0,857.0 L 734.0,818.0 L 773.0,816.0"/>
    <path d="M 751.0,737.0 L 836.0,841.0 L 854.0,901.0"/>
  </g>
</svg>
