<svg xmlns="http://www.w3.org/2000/svg" viewBox="0 0 1024 1024">
  <g style="fill:none;stroke:#000000;stroke-width:50;stroke-linecap:round;stroke-linejoin:round;" transform="scale(1, 1) translate(0, 0)">
    <path d="M 201.0,281.0 L 279.0,333.0 L 306.0,373.0"/>
    <path d="M 149.0,478.0 L 215.0,528.0 L 236.0,559.0"/>
    <path d="M 165.0,952.0 L 157.0,922.0 L 162.0,872.0 L 332.0,640.0"/>
    <path d="M 522.0,230.0 L 550.0,258.0 L 519.0,342.0 L 481.0,405.0 L 470.0,449.0 L 511.0,449.0 L 552.0,436.0 L 631.0,426.0 L 664.0,414.0"/>
    <path d="M 551.0,330.0 L 691.0,306.0 L 709.0,305.0 L 741.0,319.0 L 681.0,431.0 L 634.0,506.0 L 609.0,534.0"/>
    <path d="M 352.0,576.0 L 404.0,584.0 L 554.0,560.0 L 799.0,535.0 L 848.0,539.0 L 881.0,550.0"/>
    <path d="M 562.0,580.0 L 591.0,600.0 L 599.0,614.0 L 597.0,892.0 L 591.0,947.0 L 570.0,984.0 L 526.0,964.0 L 464.0,922.0"/>
    <path d="M 411.0,660.0 L 461.0,695.0 L 485.0,721.0"/>
    <path d="M 318.0,880.0 L 362.0,895.0 L 520.0,779.0"/>
    <path d="M 768.0,636.0 L 784.0,668.0 L 690.0,757.0 L 681.0,755.0"/>
    <path d="M 627.0,720.0 L 636.0,745.0 L 657.0,769.0 L 719.0,833.0 L 802.0,905.0 L 829.0,915.0 L 945.0,932.0"/>
  </g>
</svg>
