<svg xmlns="http://www.w3.org/2000/svg" viewBox="0 0 1024 1024">
  <g style="fill:none;stroke:#000000;stroke-width:50;stroke-linecap:round;stroke-linejoin:round;" transform="scale(1, 1) translate(0, 0)">
    <path d="M 213.0,305.0 L 290.0,351.0 L 303.0,362.0 L 322.0,395.0"/>
    <path d="M 133.0,489.0 L 202.0,538.0 L 223.0,564.0"/>
    <path d="M 165.0,973.0 L 154.0,934.0 L 155.0,888.0 L 312.0,625.0"/>
    <path d="M 465.0,363.0 L 495.0,370.0 L 537.0,369.0 L 647.0,345.0 L 712.0,344.0"/>
    <path d="M 554.0,191.0 L 595.0,227.0 L 587.0,443.0 L 570.0,467.0"/>
    <path d="M 360.0,512.0 L 405.0,519.0 L 530.0,496.0 L 789.0,463.0 L 833.0,467.0 L 865.0,478.0"/>
    <path d="M 463.0,552.0 L 480.0,581.0 L 463.0,610.0 L 404.0,673.0 L 347.0,709.0"/>
    <path d="M 666.0,545.0 L 771.0,600.0 L 800.0,624.0 L 822.0,659.0"/>
    <path d="M 578.0,651.0 L 546.0,660.0 L 491.0,738.0 L 421.0,809.0 L 338.0,874.0 L 301.0,894.0"/>
    <path d="M 530.0,736.0 L 653.0,705.0 L 684.0,711.0 L 702.0,723.0 L 677.0,787.0 L 636.0,864.0 L 603.0,907.0 L 575.0,931.0 L 532.0,961.0 L 451.0,999.0 L 381.0,1018.0 L 343.0,1020.0"/>
    <path d="M 476.0,795.0 L 491.0,792.0 L 533.0,819.0 L 640.0,922.0 L 752.0,1003.0 L 783.0,1017.0 L 813.0,1021.0 L 954.0,1029.0"/>
  </g>
</svg>
