<svg xmlns="http://www.w3.org/2000/svg" viewBox="0 0 1024 1024">
  <g style="fill:none;stroke:#000000;stroke-width:50;stroke-linecap:round;stroke-linejoin:round;" transform="scale(1, 1) translate(0, 0)">
    <path d="M 190.0,273.0 L 267.0,325.0 L 287.0,362.0"/>
    <path d="M 93.0,458.0 L 161.0,515.0 L 172.0,537.0"/>
    <path d="M 144.0,951.0 L 129.0,922.0 L 124.0,873.0 L 249.0,588.0"/>
    <path d="M 501.0,212.0 L 535.0,246.0 L 490.0,367.0 L 451.0,438.0 L 397.0,517.0 L 340.0,580.0 L 294.0,622.0 L 281.0,626.0 L 278.0,634.0"/>
    <path d="M 557.0,303.0 L 561.0,320.0 L 628.0,391.0 L 714.0,470.0 L 791.0,527.0 L 851.0,546.0 L 966.0,564.0"/>
    <path d="M 423.0,587.0 L 474.0,590.0 L 614.0,550.0 L 660.0,550.0"/>
    <path d="M 381.0,735.0 L 410.0,741.0 L 469.0,737.0 L 575.0,716.0 L 654.0,693.0 L 710.0,693.0"/>
    <path d="M 507.0,609.0 L 539.0,631.0 L 537.0,899.0 L 520.0,922.0"/>
    <path d="M 356.0,803.0 L 411.0,848.0 L 429.0,884.0"/>
    <path d="M 693.0,757.0 L 709.0,787.0 L 609.0,879.0"/>
    <path d="M 290.0,964.0 L 344.0,972.0 L 432.0,958.0 L 766.0,925.0 L 835.0,944.0"/>
  </g>
</svg>
