<svg xmlns="http://www.w3.org/2000/svg" viewBox="0 0 1024 1024">
  <g style="fill:none;stroke:#000000;stroke-width:50;stroke-linecap:round;stroke-linejoin:round;" transform="scale(1, 1) translate(0, 0)">
    <path d="M 182.0,291.0 L 266.0,337.0 L 291.0,369.0"/>
    <path d="M 115.0,491.0 L 182.0,519.0 L 203.0,533.0 L 212.0,547.0"/>
    <path d="M 162.0,947.0 L 149.0,919.0 L 144.0,880.0 L 250.0,632.0"/>
    <path d="M 400.0,293.0 L 458.0,336.0 L 479.0,364.0"/>
    <path d="M 292.0,523.0 L 313.0,527.0 L 355.0,522.0 L 528.0,469.0 L 564.0,469.0"/>
    <path d="M 419.0,637.0 L 428.0,630.0 L 477.0,641.0 L 497.0,652.0 L 511.0,671.0 L 480.0,801.0 L 456.0,867.0 L 436.0,901.0 L 409.0,925.0 L 314.0,870.0"/>
    <path d="M 375.0,544.0 L 402.0,565.0 L 374.0,660.0 L 322.0,764.0 L 266.0,836.0 L 229.0,871.0"/>
    <path d="M 672.0,254.0 L 689.0,265.0 L 709.0,295.0 L 687.0,373.0 L 621.0,520.0 L 553.0,622.0"/>
    <path d="M 713.0,397.0 L 714.0,420.0 L 740.0,457.0 L 842.0,580.0 L 887.0,600.0 L 972.0,620.0"/>
    <path d="M 636.0,662.0 L 718.0,714.0 L 739.0,750.0"/>
    <path d="M 620.0,843.0 L 729.0,940.0 L 757.0,992.0"/>
  </g>
</svg>
