<svg xmlns="http://www.w3.org/2000/svg" viewBox="0 0 1024 1024">
  <g style="fill:none;stroke:#000000;stroke-width:50;stroke-linecap:round;stroke-linejoin:round;" transform="scale(1, 1) translate(0, 0)">
    <path d="M 181.0,281.0 L 263.0,340.0 L 285.0,382.0"/>
    <path d="M 92.0,483.0 L 156.0,546.0 L 173.0,579.0"/>
    <path d="M 164.0,956.0 L 149.0,917.0 L 145.0,875.0 L 168.0,835.0 L 261.0,621.0"/>
    <path d="M 514.0,177.0 L 589.0,225.0 L 606.0,255.0"/>
    <path d="M 405.0,370.0 L 428.0,377.0 L 469.0,378.0 L 724.0,326.0 L 779.0,324.0"/>
    <path d="M 432.0,425.0 L 456.0,457.0 L 429.0,523.0 L 394.0,577.0 L 330.0,639.0"/>
    <path d="M 445.0,547.0 L 488.0,570.0 L 511.0,594.0"/>
    <path d="M 679.0,378.0 L 694.0,392.0 L 704.0,413.0 L 690.0,451.0 L 660.0,506.0 L 601.0,565.0"/>
    <path d="M 691.0,508.0 L 769.0,551.0 L 800.0,589.0"/>
    <path d="M 282.0,743.0 L 333.0,752.0 L 513.0,724.0 L 833.0,691.0 L 880.0,698.0 L 915.0,711.0"/>
    <path d="M 537.0,615.0 L 556.0,627.0 L 578.0,653.0 L 575.0,1096.0"/>
  </g>
</svg>
