<svg xmlns="http://www.w3.org/2000/svg" viewBox="0 0 1024 1024">
  <g style="fill:none;stroke:#000000;stroke-width:50;stroke-linecap:round;stroke-linejoin:round;" transform="scale(1, 1) translate(0, 0)">
    <path d="M 185.0,304.0 L 261.0,348.0 L 295.0,392.0"/>
    <path d="M 111.0,512.0 L 192.0,566.0 L 209.0,591.0"/>
    <path d="M 164.0,985.0 L 152.0,952.0 L 150.0,913.0 L 277.0,664.0"/>
    <path d="M 401.0,399.0 L 473.0,405.0 L 597.0,384.0 L 607.0,377.0 L 682.0,360.0 L 738.0,360.0"/>
    <path d="M 401.0,489.0 L 424.0,520.0 L 406.0,564.0 L 375.0,620.0 L 339.0,660.0 L 305.0,687.0"/>
    <path d="M 407.0,625.0 L 414.0,623.0 L 437.0,640.0 L 457.0,662.0"/>
    <path d="M 691.0,436.0 L 719.0,467.0 L 704.0,513.0 L 645.0,613.0 L 613.0,641.0"/>
    <path d="M 703.0,570.0 L 728.0,574.0 L 776.0,598.0 L 798.0,615.0 L 813.0,639.0"/>
    <path d="M 512.0,215.0 L 541.0,237.0 L 566.0,268.0 L 567.0,279.0 L 562.0,800.0 L 550.0,983.0 L 550.0,1077.0"/>
    <path d="M 535.0,621.0 L 515.0,695.0 L 445.0,782.0 L 365.0,859.0 L 322.0,893.0 L 254.0,934.0"/>
    <path d="M 590.0,653.0 L 597.0,680.0 L 656.0,754.0 L 716.0,823.0 L 780.0,882.0 L 933.0,920.0"/>
  </g>
</svg>
