<svg xmlns="http://www.w3.org/2000/svg" viewBox="0 0 1024 1024">
  <g style="fill:none;stroke:#000000;stroke-width:50;stroke-linecap:round;stroke-linejoin:round;" transform="scale(1, 1) translate(0, 0)">
    <path d="M 470.0,199.0 L 487.0,204.0 L 521.0,236.0 L 514.0,535.0 L 500.0,560.0 L 401.0,520.0"/>
    <path d="M 223.0,371.0 L 257.0,381.0 L 296.0,381.0 L 391.0,361.0 L 418.0,376.0 L 408.0,404.0 L 380.0,449.0 L 321.0,520.0 L 263.0,568.0 L 198.0,600.0"/>
    <path d="M 686.0,249.0 L 702.0,286.0 L 622.0,356.0 L 589.0,375.0"/>
    <path d="M 546.0,341.0 L 554.0,366.0 L 577.0,392.0 L 723.0,525.0 L 861.0,548.0"/>
    <path d="M 286.0,599.0 L 309.0,618.0 L 325.0,643.0 L 323.0,857.0 L 316.0,938.0 L 300.0,968.0 L 201.0,922.0"/>
    <path d="M 81.0,758.0 L 146.0,760.0 L 220.0,739.0 L 244.0,752.0 L 223.0,813.0 L 168.0,903.0 L 126.0,943.0 L 89.0,967.0"/>
    <path d="M 428.0,637.0 L 444.0,661.0 L 383.0,744.0"/>
    <path d="M 349.0,748.0 L 363.0,770.0 L 396.0,789.0 L 422.0,816.0 L 434.0,844.0"/>
    <path d="M 615.0,591.0 L 657.0,636.0 L 658.0,888.0 L 652.0,961.0 L 636.0,992.0 L 533.0,946.0"/>
    <path d="M 437.0,751.0 L 484.0,755.0 L 540.0,738.0 L 570.0,746.0 L 576.0,760.0 L 533.0,852.0 L 499.0,904.0 L 455.0,945.0 L 417.0,967.0"/>
    <path d="M 834.0,682.0 L 799.0,675.0 L 713.0,759.0 L 711.0,774.0"/>
    <path d="M 679.0,749.0 L 694.0,780.0 L 762.0,855.0 L 831.0,918.0 L 899.0,938.0 L 960.0,945.0"/>
  </g>
</svg>
