<svg xmlns="http://www.w3.org/2000/svg" viewBox="0 0 1024 1024">
  <g style="fill:none;stroke:#000000;stroke-width:50;stroke-linecap:round;stroke-linejoin:round;" transform="scale(1, 1) translate(0, 0)">
    <path d="M 207.0,269.0 L 288.0,314.0 L 317.0,351.0"/>
    <path d="M 125.0,497.0 L 200.0,544.0 L 222.0,569.0"/>
    <path d="M 191.0,984.0 L 176.0,943.0 L 174.0,905.0 L 296.0,646.0"/>
    <path d="M 437.0,307.0 L 467.0,312.0 L 525.0,308.0 L 717.0,263.0 L 754.0,265.0"/>
    <path d="M 445.0,416.0 L 476.0,415.0 L 663.0,370.0 L 688.0,368.0 L 711.0,374.0"/>
    <path d="M 556.0,179.0 L 596.0,213.0 L 586.0,451.0 L 571.0,473.0"/>
    <path d="M 318.0,528.0 L 373.0,533.0 L 546.0,498.0 L 847.0,456.0 L 917.0,473.0"/>
    <path d="M 429.0,590.0 L 453.0,615.0 L 459.0,642.0 L 456.0,749.0 L 446.0,828.0 L 448.0,877.0"/>
    <path d="M 483.0,621.0 L 491.0,612.0 L 571.0,601.0 L 579.0,594.0 L 670.0,572.0 L 697.0,572.0 L 713.0,581.0 L 732.0,605.0 L 727.0,669.0 L 731.0,804.0 L 722.0,870.0"/>
    <path d="M 540.0,664.0 L 573.0,682.0 L 588.0,700.0 L 589.0,710.0 L 578.0,847.0 L 557.0,918.0 L 524.0,970.0 L 479.0,1006.0 L 416.0,1035.0 L 367.0,1046.0"/>
    <path d="M 662.0,908.0 L 775.0,1000.0 L 796.0,1029.0 L 806.0,1064.0"/>
  </g>
</svg>
