<svg xmlns="http://www.w3.org/2000/svg" viewBox="0 0 1024 1024">
  <g style="fill:none;stroke:#000000;stroke-width:50;stroke-linecap:round;stroke-linejoin:round;" transform="scale(1, 1) translate(0, 0)">
    <path d="M 189.0,264.0 L 263.0,309.0 L 294.0,351.0"/>
    <path d="M 131.0,468.0 L 206.0,520.0 L 228.0,551.0"/>
    <path d="M 184.0,985.0 L 167.0,951.0 L 159.0,905.0 L 184.0,849.0 L 258.0,633.0"/>
    <path d="M 324.0,423.0 L 382.0,427.0 L 505.0,394.0 L 568.0,389.0"/>
    <path d="M 420.0,212.0 L 452.0,262.0 L 399.0,449.0 L 342.0,598.0 L 336.0,630.0 L 361.0,634.0 L 550.0,590.0 L 572.0,596.0"/>
    <path d="M 442.0,516.0 L 470.0,551.0 L 451.0,937.0 L 461.0,1020.0"/>
    <path d="M 256.0,799.0 L 307.0,813.0 L 588.0,696.0"/>
    <path d="M 765.0,281.0 L 777.0,290.0 L 790.0,320.0 L 702.0,418.0 L 680.0,439.0 L 673.0,439.0"/>
    <path d="M 605.0,433.0 L 645.0,467.0 L 648.0,591.0 L 634.0,710.0 L 615.0,771.0 L 586.0,820.0 L 551.0,863.0 L 505.0,897.0"/>
    <path d="M 677.0,558.0 L 697.0,546.0 L 870.0,505.0 L 901.0,504.0 L 929.0,511.0"/>
    <path d="M 759.0,560.0 L 788.0,572.0 L 803.0,588.0 L 795.0,1065.0"/>
  </g>
</svg>
