<svg xmlns="http://www.w3.org/2000/svg" viewBox="0 0 1024 1024">
  <g style="fill:none;stroke:#000000;stroke-width:50;stroke-linecap:round;stroke-linejoin:round;" transform="scale(1, 1) translate(0, 0)">
    <path d="M 193.0,273.0 L 275.0,330.0 L 297.0,370.0"/>
    <path d="M 121.0,464.0 L 197.0,510.0 L 219.0,538.0"/>
    <path d="M 185.0,954.0 L 171.0,922.0 L 168.0,872.0 L 301.0,605.0"/>
    <path d="M 506.0,204.0 L 590.0,243.0 L 618.0,278.0"/>
    <path d="M 376.0,345.0 L 386.0,377.0 L 385.0,399.0 L 344.0,489.0 L 340.0,522.0"/>
    <path d="M 418.0,382.0 L 430.0,391.0 L 452.0,390.0 L 592.0,362.0 L 760.0,341.0 L 795.0,357.0 L 809.0,381.0 L 742.0,457.0 L 731.0,460.0"/>
    <path d="M 364.0,569.0 L 401.0,600.0 L 410.0,621.0 L 433.0,777.0 L 451.0,833.0"/>
    <path d="M 437.0,608.0 L 447.0,593.0 L 460.0,587.0 L 501.0,579.0 L 702.0,546.0 L 752.0,552.0 L 782.0,586.0 L 754.0,671.0 L 722.0,806.0"/>
    <path d="M 485.0,696.0 L 621.0,669.0 L 667.0,674.0"/>
    <path d="M 465.0,818.0 L 489.0,807.0 L 542.0,803.0 L 698.0,772.0"/>
    <path d="M 545.0,440.0 L 564.0,451.0 L 585.0,477.0 L 587.0,503.0 L 579.0,1076.0"/>
  </g>
</svg>
