<svg xmlns="http://www.w3.org/2000/svg" viewBox="0 0 1024 1024">
  <g style="fill:none;stroke:#000000;stroke-width:50;stroke-linecap:round;stroke-linejoin:round;" transform="scale(1, 1) translate(0, 0)">
    <path d="M 247.0,293.0 L 323.0,334.0 L 347.0,365.0"/>
    <path d="M 173.0,510.0 L 235.0,556.0 L 252.0,584.0"/>
    <path d="M 190.0,996.0 L 178.0,969.0 L 174.0,920.0 L 305.0,645.0"/>
    <path d="M 441.0,498.0 L 453.0,506.0 L 495.0,503.0 L 671.0,454.0 L 729.0,432.0 L 766.0,424.0 L 791.0,427.0"/>
    <path d="M 376.0,475.0 L 404.0,503.0 L 408.0,518.0 L 404.0,603.0 L 377.0,753.0 L 340.0,848.0 L 308.0,903.0 L 272.0,947.0"/>
    <path d="M 444.0,632.0 L 489.0,631.0 L 563.0,601.0 L 602.0,596.0"/>
    <path d="M 412.0,733.0 L 434.0,750.0 L 438.0,760.0 L 469.0,914.0"/>
    <path d="M 461.0,735.0 L 471.0,741.0 L 556.0,716.0 L 583.0,727.0 L 593.0,738.0 L 577.0,802.0 L 556.0,825.0"/>
    <path d="M 482.0,877.0 L 491.0,864.0 L 533.0,852.0 L 599.0,855.0"/>
    <path d="M 551.0,209.0 L 586.0,223.0 L 613.0,249.0 L 633.0,437.0 L 662.0,575.0 L 711.0,733.0 L 766.0,845.0 L 805.0,902.0 L 855.0,954.0 L 893.0,977.0 L 920.0,983.0 L 939.0,941.0 L 954.0,829.0"/>
    <path d="M 788.0,543.0 L 815.0,578.0 L 791.0,679.0 L 769.0,733.0 L 742.0,784.0 L 692.0,850.0 L 627.0,912.0 L 597.0,931.0"/>
    <path d="M 760.0,276.0 L 840.0,313.0 L 865.0,337.0"/>
  </g>
</svg>
