<svg xmlns="http://www.w3.org/2000/svg" viewBox="0 0 1024 1024">
  <g style="fill:none;stroke:#000000;stroke-width:50;stroke-linecap:round;stroke-linejoin:round;" transform="scale(1, 1) translate(0, 0)">
    <path d="M 215.0,273.0 L 296.0,320.0 L 326.0,360.0"/>
    <path d="M 132.0,481.0 L 219.0,539.0 L 236.0,562.0"/>
    <path d="M 186.0,973.0 L 174.0,943.0 L 172.0,895.0 L 305.0,635.0"/>
    <path d="M 547.0,211.0 L 570.0,249.0 L 561.0,273.0 L 488.0,368.0 L 434.0,420.0 L 396.0,447.0"/>
    <path d="M 533.0,357.0 L 608.0,348.0 L 644.0,335.0 L 664.0,336.0 L 692.0,348.0 L 647.0,429.0 L 607.0,487.0 L 593.0,497.0"/>
    <path d="M 366.0,533.0 L 392.0,556.0 L 401.0,577.0 L 448.0,810.0"/>
    <path d="M 426.0,563.0 L 437.0,546.0 L 641.0,504.0 L 693.0,495.0 L 734.0,495.0 L 758.0,502.0 L 785.0,532.0 L 753.0,673.0 L 725.0,762.0 L 696.0,769.0"/>
    <path d="M 487.0,657.0 L 531.0,652.0 L 640.0,625.0 L 684.0,629.0"/>
    <path d="M 568.0,539.0 L 590.0,561.0 L 592.0,597.0 L 589.0,717.0 L 575.0,740.0"/>
    <path d="M 470.0,789.0 L 488.0,779.0 L 661.0,752.0 L 693.0,742.0"/>
    <path d="M 285.0,919.0 L 344.0,935.0 L 541.0,907.0 L 818.0,886.0 L 895.0,914.0"/>
  </g>
</svg>
