<svg xmlns="http://www.w3.org/2000/svg" viewBox="0 0 1024 1024">
  <g style="fill:none;stroke:#000000;stroke-width:50;stroke-linecap:round;stroke-linejoin:round;" transform="scale(1, 1) translate(0, 0)">
    <path d="M 181.0,299.0 L 258.0,353.0 L 278.0,388.0"/>
    <path d="M 111.0,505.0 L 162.0,542.0 L 184.0,563.0 L 193.0,581.0"/>
    <path d="M 147.0,1003.0 L 135.0,976.0 L 131.0,936.0 L 245.0,692.0"/>
    <path d="M 356.0,397.0 L 412.0,400.0 L 526.0,368.0 L 568.0,367.0"/>
    <path d="M 452.0,203.0 L 490.0,242.0 L 455.0,469.0 L 437.0,490.0"/>
    <path d="M 299.0,499.0 L 309.0,525.0 L 306.0,544.0 L 277.0,636.0"/>
    <path d="M 332.0,540.0 L 353.0,528.0 L 512.0,486.0 L 582.0,480.0 L 608.0,497.0 L 562.0,571.0"/>
    <path d="M 322.0,640.0 L 351.0,649.0 L 376.0,646.0 L 481.0,603.0 L 500.0,601.0 L 530.0,612.0 L 538.0,630.0 L 525.0,649.0 L 471.0,695.0 L 466.0,706.0 L 457.0,704.0"/>
    <path d="M 407.0,705.0 L 434.0,720.0 L 446.0,736.0 L 466.0,793.0 L 472.0,891.0 L 464.0,954.0 L 451.0,986.0 L 425.0,1010.0 L 348.0,970.0"/>
    <path d="M 252.0,864.0 L 296.0,873.0 L 391.0,831.0 L 496.0,795.0 L 585.0,751.0"/>
    <path d="M 616.0,595.0 L 634.0,600.0 L 695.0,598.0 L 835.0,554.0 L 856.0,559.0 L 883.0,583.0 L 871.0,640.0 L 853.0,803.0 L 836.0,879.0 L 814.0,934.0 L 779.0,971.0 L 699.0,918.0"/>
    <path d="M 745.0,298.0 L 780.0,341.0 L 747.0,557.0 L 721.0,657.0 L 688.0,744.0 L 631.0,854.0 L 572.0,935.0 L 529.0,979.0"/>
  </g>
</svg>
