<svg xmlns="http://www.w3.org/2000/svg" viewBox="0 0 1024 1024">
  <g style="fill:none;stroke:#000000;stroke-width:50;stroke-linecap:round;stroke-linejoin:round;" transform="scale(1, 1) translate(0, 0)">
    <path d="M 194.0,245.0 L 276.0,299.0 L 298.0,336.0"/>
    <path d="M 137.0,493.0 L 215.0,546.0 L 239.0,577.0"/>
    <path d="M 191.0,1016.0 L 177.0,988.0 L 171.0,937.0 L 196.0,892.0 L 289.0,677.0"/>
    <path d="M 417.0,269.0 L 457.0,309.0 L 465.0,333.0 L 487.0,594.0 L 472.0,609.0"/>
    <path d="M 489.0,285.0 L 503.0,293.0 L 518.0,291.0 L 684.0,250.0 L 727.0,264.0 L 749.0,285.0 L 727.0,412.0 L 712.0,547.0 L 685.0,576.0"/>
    <path d="M 559.0,381.0 L 581.0,406.0 L 585.0,421.0 L 591.0,580.0 L 579.0,593.0"/>
    <path d="M 608.0,396.0 L 620.0,400.0 L 689.0,384.0 L 701.0,371.0"/>
    <path d="M 337.0,615.0 L 365.0,648.0 L 373.0,674.0 L 373.0,888.0 L 384.0,948.0"/>
    <path d="M 390.0,635.0 L 415.0,645.0 L 460.0,640.0 L 783.0,579.0 L 803.0,578.0 L 834.0,597.0 L 848.0,613.0 L 828.0,940.0 L 801.0,980.0 L 711.0,942.0"/>
    <path d="M 464.0,720.0 L 495.0,751.0 L 524.0,866.0"/>
    <path d="M 518.0,739.0 L 538.0,725.0 L 625.0,706.0 L 646.0,707.0 L 670.0,731.0 L 654.0,779.0 L 630.0,792.0"/>
    <path d="M 542.0,847.0 L 556.0,836.0 L 628.0,822.0 L 683.0,826.0"/>
  </g>
</svg>
