<svg xmlns="http://www.w3.org/2000/svg" viewBox="0 0 1024 1024">
  <g style="fill:none;stroke:#000000;stroke-width:50;stroke-linecap:round;stroke-linejoin:round;" transform="scale(1, 1) translate(0, 0)">
    <path d="M 205.0,277.0 L 278.0,331.0 L 306.0,376.0"/>
    <path d="M 128.0,462.0 L 200.0,525.0 L 220.0,558.0"/>
    <path d="M 158.0,966.0 L 148.0,935.0 L 150.0,885.0 L 276.0,686.0 L 291.0,672.0 L 304.0,644.0"/>
    <path d="M 565.0,183.0 L 643.0,238.0 L 663.0,271.0"/>
    <path d="M 453.0,361.0 L 461.0,360.0 L 477.0,371.0 L 544.0,368.0 L 774.0,321.0 L 808.0,324.0"/>
    <path d="M 390.0,345.0 L 414.0,363.0 L 428.0,389.0 L 420.0,548.0 L 399.0,681.0 L 375.0,767.0 L 335.0,865.0 L 275.0,964.0 L 244.0,998.0"/>
    <path d="M 456.0,537.0 L 515.0,537.0 L 632.0,510.0 L 789.0,485.0 L 862.0,496.0"/>
    <path d="M 516.0,446.0 L 534.0,452.0 L 553.0,471.0 L 570.0,666.0"/>
    <path d="M 696.0,390.0 L 723.0,425.0 L 697.0,574.0 L 691.0,586.0 L 679.0,592.0"/>
    <path d="M 586.0,642.0 L 598.0,631.0 L 669.0,619.0 L 712.0,618.0 L 731.0,626.0"/>
    <path d="M 517.0,732.0 L 559.0,733.0 L 686.0,705.0 L 707.0,716.0 L 719.0,735.0 L 698.0,806.0 L 671.0,861.0 L 643.0,901.0 L 601.0,941.0 L 553.0,967.0 L 484.0,991.0 L 393.0,1006.0"/>
    <path d="M 487.0,787.0 L 539.0,810.0 L 684.0,946.0 L 766.0,999.0 L 819.0,1012.0 L 953.0,1022.0"/>
  </g>
</svg>
