<svg xmlns="http://www.w3.org/2000/svg" viewBox="0 0 1024 1024">
  <g style="fill:none;stroke:#000000;stroke-width:50;stroke-linecap:round;stroke-linejoin:round;" transform="scale(1, 1) translate(0, 0)">
    <path d="M 217.0,265.0 L 294.0,311.0 L 307.0,322.0 L 326.0,355.0"/>
    <path d="M 140.0,441.0 L 227.0,499.0 L 244.0,522.0"/>
    <path d="M 190.0,937.0 L 177.0,906.0 L 174.0,859.0 L 200.0,816.0 L 301.0,605.0"/>
    <path d="M 418.0,249.0 L 437.0,265.0 L 452.0,292.0 L 491.0,505.0"/>
    <path d="M 469.0,245.0 L 484.0,257.0 L 672.0,220.0 L 701.0,225.0 L 724.0,245.0 L 733.0,259.0 L 713.0,321.0 L 699.0,395.0 L 672.0,471.0 L 673.0,496.0"/>
    <path d="M 497.0,377.0 L 507.0,369.0 L 572.0,352.0 L 602.0,348.0 L 632.0,353.0"/>
    <path d="M 508.0,482.0 L 538.0,467.0 L 597.0,457.0 L 624.0,457.0 L 635.0,470.0"/>
    <path d="M 479.0,513.0 L 500.0,554.0 L 473.0,597.0 L 414.0,660.0 L 343.0,705.0"/>
    <path d="M 483.0,624.0 L 506.0,616.0 L 613.0,607.0 L 773.0,578.0 L 812.0,586.0 L 841.0,616.0 L 812.0,873.0 L 799.0,923.0 L 775.0,975.0 L 753.0,1000.0 L 735.0,1010.0 L 641.0,961.0"/>
    <path d="M 576.0,632.0 L 596.0,651.0 L 598.0,664.0 L 590.0,680.0 L 529.0,762.0 L 484.0,798.0"/>
    <path d="M 600.0,716.0 L 617.0,714.0 L 649.0,726.0 L 678.0,743.0 L 700.0,770.0"/>
    <path d="M 383.0,730.0 L 416.0,767.0 L 402.0,879.0 L 432.0,879.0 L 527.0,856.0 L 620.0,847.0 L 675.0,847.0 L 718.0,862.0"/>
  </g>
</svg>
