<svg xmlns="http://www.w3.org/2000/svg" viewBox="0 0 1024 1024">
  <g style="fill:none;stroke:#000000;stroke-width:50;stroke-linecap:round;stroke-linejoin:round;" transform="scale(1, 1) translate(0, 0)">
    <path d="M 200.0,259.0 L 278.0,314.0 L 294.0,348.0"/>
    <path d="M 115.0,444.0 L 186.0,493.0 L 200.0,516.0"/>
    <path d="M 161.0,910.0 L 147.0,872.0 L 146.0,834.0 L 269.0,592.0"/>
    <path d="M 412.0,238.0 L 466.0,286.0 L 487.0,318.0"/>
    <path d="M 287.0,467.0 L 333.0,469.0 L 395.0,455.0 L 499.0,419.0 L 544.0,418.0"/>
    <path d="M 436.0,557.0 L 448.0,550.0 L 477.0,557.0 L 499.0,568.0 L 516.0,590.0 L 479.0,752.0 L 453.0,828.0 L 430.0,865.0 L 406.0,884.0 L 309.0,826.0"/>
    <path d="M 388.0,483.0 L 414.0,504.0 L 400.0,561.0 L 372.0,630.0 L 324.0,720.0 L 273.0,785.0 L 221.0,835.0"/>
    <path d="M 652.0,204.0 L 682.0,238.0 L 666.0,294.0 L 617.0,393.0 L 565.0,452.0"/>
    <path d="M 645.0,394.0 L 724.0,380.0 L 806.0,351.0 L 864.0,347.0"/>
    <path d="M 572.0,512.0 L 590.0,519.0 L 618.0,518.0 L 712.0,473.0 L 743.0,468.0 L 767.0,476.0 L 780.0,490.0 L 777.0,497.0 L 708.0,597.0"/>
    <path d="M 667.0,590.0 L 681.0,605.0 L 706.0,654.0 L 726.0,766.0 L 728.0,845.0 L 715.0,940.0 L 700.0,974.0 L 686.0,987.0 L 576.0,933.0"/>
    <path d="M 540.0,704.0 L 591.0,710.0 L 777.0,676.0 L 871.0,665.0 L 950.0,678.0"/>
  </g>
</svg>
