<svg xmlns="http://www.w3.org/2000/svg" viewBox="0 0 1024 1024">
  <g style="fill:none;stroke:#000000;stroke-width:50;stroke-linecap:round;stroke-linejoin:round;" transform="scale(1, 1) translate(0, 0)">
    <path d="M 166.0,265.0 L 235.0,310.0 L 254.0,345.0"/>
    <path d="M 104.0,462.0 L 175.0,518.0 L 190.0,543.0"/>
    <path d="M 175.0,931.0 L 161.0,903.0 L 156.0,853.0 L 269.0,605.0"/>
    <path d="M 311.0,296.0 L 330.0,315.0 L 339.0,337.0 L 346.0,413.0 L 344.0,638.0 L 331.0,770.0 L 337.0,827.0"/>
    <path d="M 370.0,326.0 L 382.0,314.0 L 450.0,287.0 L 481.0,294.0 L 497.0,310.0 L 500.0,654.0 L 497.0,744.0 L 489.0,775.0 L 492.0,821.0"/>
    <path d="M 370.0,473.0 L 387.0,457.0 L 429.0,450.0 L 449.0,453.0"/>
    <path d="M 368.0,618.0 L 378.0,605.0 L 391.0,600.0 L 428.0,596.0 L 449.0,601.0"/>
    <path d="M 362.0,783.0 L 378.0,765.0 L 441.0,754.0"/>
    <path d="M 670.0,256.0 L 696.0,274.0 L 715.0,301.0 L 708.0,402.0 L 706.0,617.0 L 713.0,667.0"/>
    <path d="M 594.0,476.0 L 590.0,543.0 L 573.0,607.0"/>
    <path d="M 809.0,397.0 L 907.0,449.0 L 933.0,474.0 L 946.0,500.0"/>
    <path d="M 800.0,548.0 L 821.0,577.0 L 825.0,596.0 L 794.0,695.0 L 750.0,788.0 L 708.0,851.0 L 648.0,920.0 L 573.0,986.0 L 479.0,1047.0"/>
  </g>
</svg>
