<svg xmlns="http://www.w3.org/2000/svg" viewBox="0 0 1024 1024">
  <g style="fill:none;stroke:#000000;stroke-width:50;stroke-linecap:round;stroke-linejoin:round;" transform="scale(1, 1) translate(0, 0)">
    <path d="M 209.0,284.0 L 280.0,332.0 L 306.0,374.0"/>
    <path d="M 116.0,488.0 L 195.0,543.0 L 218.0,572.0"/>
    <path d="M 171.0,997.0 L 159.0,966.0 L 156.0,915.0 L 293.0,641.0"/>
    <path d="M 529.0,207.0 L 612.0,257.0 L 641.0,294.0"/>
    <path d="M 375.0,371.0 L 386.0,398.0 L 388.0,424.0 L 354.0,508.0 L 351.0,540.0"/>
    <path d="M 410.0,397.0 L 443.0,407.0 L 529.0,387.0 L 705.0,360.0 L 748.0,357.0 L 778.0,364.0 L 794.0,375.0 L 806.0,396.0 L 730.0,473.0"/>
    <path d="M 469.0,523.0 L 524.0,528.0 L 623.0,505.0 L 676.0,504.0"/>
    <path d="M 395.0,641.0 L 416.0,658.0 L 428.0,679.0 L 468.0,870.0"/>
    <path d="M 451.0,646.0 L 463.0,650.0 L 675.0,613.0 L 715.0,622.0 L 740.0,651.0 L 707.0,784.0 L 687.0,835.0 L 691.0,856.0"/>
    <path d="M 476.0,754.0 L 480.0,745.0 L 560.0,732.0 L 606.0,726.0 L 632.0,731.0"/>
    <path d="M 487.0,851.0 L 505.0,843.0 L 616.0,825.0 L 635.0,825.0 L 642.0,835.0"/>
    <path d="M 310.0,971.0 L 362.0,983.0 L 516.0,962.0 L 812.0,943.0 L 845.0,948.0 L 893.0,966.0"/>
  </g>
</svg>
