<svg xmlns="http://www.w3.org/2000/svg" viewBox="0 0 1024 1024">
  <g style="fill:none;stroke:#000000;stroke-width:50;stroke-linecap:round;stroke-linejoin:round;" transform="scale(1, 1) translate(0, 0)">
    <path d="M 210.0,253.0 L 296.0,311.0 L 318.0,346.0"/>
    <path d="M 133.0,432.0 L 209.0,481.0 L 230.0,499.0 L 236.0,514.0"/>
    <path d="M 180.0,944.0 L 166.0,914.0 L 161.0,863.0 L 281.0,600.0"/>
    <path d="M 472.0,291.0 L 504.0,304.0 L 727.0,258.0 L 763.0,258.0 L 798.0,291.0 L 770.0,376.0 L 743.0,394.0"/>
    <path d="M 597.0,308.0 L 619.0,327.0 L 610.0,410.0 L 594.0,420.0"/>
    <path d="M 477.0,475.0 L 495.0,466.0 L 718.0,426.0 L 780.0,423.0 L 806.0,430.0"/>
    <path d="M 413.0,284.0 L 440.0,308.0 L 452.0,335.0 L 441.0,471.0 L 416.0,631.0 L 392.0,719.0 L 345.0,832.0 L 290.0,921.0 L 249.0,969.0"/>
    <path d="M 512.0,559.0 L 531.0,578.0 L 543.0,604.0 L 545.0,671.0 L 526.0,902.0 L 528.0,967.0"/>
    <path d="M 560.0,566.0 L 569.0,574.0 L 590.0,576.0 L 732.0,540.0 L 760.0,555.0 L 778.0,575.0 L 780.0,887.0 L 766.0,936.0 L 768.0,995.0"/>
    <path d="M 570.0,702.0 L 579.0,692.0 L 641.0,676.0 L 682.0,672.0 L 704.0,677.0"/>
    <path d="M 563.0,807.0 L 574.0,797.0 L 632.0,785.0 L 678.0,779.0 L 707.0,785.0"/>
    <path d="M 554.0,925.0 L 578.0,908.0 L 652.0,898.0 L 718.0,898.0"/>
  </g>
</svg>
