<svg xmlns="http://www.w3.org/2000/svg" viewBox="0 0 1024 1024">
  <g style="fill:none;stroke:#000000;stroke-width:50;stroke-linecap:round;stroke-linejoin:round;" transform="scale(1, 1) translate(0, 0)">
    <path d="M 185.0,233.0 L 259.0,288.0 L 282.0,328.0"/>
    <path d="M 117.0,473.0 L 172.0,507.0 L 191.0,525.0 L 198.0,541.0"/>
    <path d="M 178.0,911.0 L 168.0,892.0 L 160.0,834.0 L 270.0,597.0"/>
    <path d="M 375.0,242.0 L 384.0,288.0 L 358.0,352.0 L 351.0,394.0"/>
    <path d="M 410.0,272.0 L 425.0,281.0 L 458.0,279.0 L 600.0,248.0 L 774.0,222.0 L 793.0,224.0 L 823.0,244.0 L 832.0,261.0 L 762.0,334.0 L 749.0,337.0"/>
    <path d="M 448.0,399.0 L 520.0,400.0 L 639.0,368.0 L 696.0,365.0"/>
    <path d="M 360.0,515.0 L 389.0,535.0 L 396.0,552.0 L 444.0,729.0"/>
    <path d="M 421.0,520.0 L 434.0,530.0 L 677.0,477.0 L 718.0,475.0 L 748.0,482.0 L 770.0,509.0 L 743.0,601.0 L 715.0,681.0 L 708.0,692.0 L 685.0,693.0"/>
    <path d="M 483.0,605.0 L 608.0,578.0 L 656.0,581.0"/>
    <path d="M 462.0,713.0 L 478.0,702.0 L 530.0,697.0 L 625.0,675.0 L 673.0,675.0"/>
    <path d="M 262.0,835.0 L 320.0,843.0 L 478.0,815.0 L 849.0,772.0 L 934.0,791.0"/>
    <path d="M 527.0,287.0 L 556.0,305.0 L 575.0,328.0 L 577.0,355.0 L 567.0,1091.0"/>
  </g>
</svg>
