<svg xmlns="http://www.w3.org/2000/svg" viewBox="0 0 1024 1024">
  <g style="fill:none;stroke:#000000;stroke-width:50;stroke-linecap:round;stroke-linejoin:round;" transform="scale(1, 1) translate(0, 0)">
    <path d="M 143.0,305.0 L 229.0,352.0 L 261.0,391.0"/>
    <path d="M 108.0,485.0 L 182.0,534.0 L 198.0,550.0 L 202.0,563.0"/>
    <path d="M 149.0,952.0 L 141.0,910.0 L 146.0,872.0 L 295.0,669.0"/>
    <path d="M 314.0,470.0 L 314.0,505.0 L 286.0,609.0"/>
    <path d="M 422.0,470.0 L 434.0,486.0 L 466.0,501.0 L 491.0,525.0"/>
    <path d="M 353.0,241.0 L 380.0,262.0 L 402.0,290.0 L 403.0,301.0 L 394.0,794.0 L 379.0,963.0 L 381.0,1050.0"/>
    <path d="M 830.0,331.0 L 757.0,318.0 L 666.0,370.0 L 521.0,425.0"/>
    <path d="M 484.0,608.0 L 537.0,612.0 L 816.0,557.0 L 872.0,557.0 L 917.0,568.0"/>
    <path d="M 650.0,406.0 L 682.0,421.0 L 696.0,435.0 L 671.0,709.0 L 664.0,727.0 L 652.0,738.0"/>
    <path d="M 520.0,751.0 L 550.0,779.0 L 580.0,980.0"/>
    <path d="M 582.0,761.0 L 594.0,771.0 L 760.0,737.0 L 786.0,739.0 L 818.0,770.0 L 789.0,853.0 L 764.0,868.0"/>
    <path d="M 601.0,922.0 L 614.0,912.0 L 753.0,894.0 L 797.0,896.0 L 817.0,903.0"/>
  </g>
</svg>
