<svg xmlns="http://www.w3.org/2000/svg" viewBox="0 0 1024 1024">
  <g style="fill:none;stroke:#000000;stroke-width:50;stroke-linecap:round;stroke-linejoin:round;" transform="scale(1, 1) translate(0, 0)">
    <path d="M 209.0,295.0 L 291.0,350.0 L 319.0,391.0"/>
    <path d="M 129.0,508.0 L 216.0,561.0 L 240.0,587.0"/>
    <path d="M 186.0,1008.0 L 174.0,981.0 L 170.0,930.0 L 297.0,665.0"/>
    <path d="M 386.0,402.0 L 407.0,408.0 L 473.0,407.0 L 589.0,385.0 L 761.0,342.0 L 815.0,340.0"/>
    <path d="M 445.0,276.0 L 483.0,317.0 L 490.0,367.0 L 497.0,671.0 L 494.0,695.0 L 481.0,703.0"/>
    <path d="M 657.0,192.0 L 695.0,223.0 L 705.0,240.0 L 687.0,649.0 L 669.0,676.0"/>
    <path d="M 518.0,521.0 L 529.0,510.0 L 580.0,497.0 L 616.0,492.0 L 637.0,497.0"/>
    <path d="M 518.0,614.0 L 530.0,605.0 L 588.0,592.0 L 636.0,596.0"/>
    <path d="M 322.0,748.0 L 377.0,753.0 L 570.0,715.0 L 817.0,679.0 L 877.0,680.0 L 921.0,693.0"/>
    <path d="M 548.0,777.0 L 561.0,789.0 L 567.0,806.0 L 562.0,817.0 L 533.0,865.0 L 488.0,908.0"/>
    <path d="M 659.0,766.0 L 742.0,841.0 L 763.0,885.0"/>
    <path d="M 394.0,776.0 L 423.0,788.0 L 432.0,800.0 L 430.0,909.0 L 422.0,963.0 L 426.0,995.0 L 471.0,992.0 L 575.0,970.0 L 678.0,960.0 L 774.0,959.0 L 834.0,979.0"/>
  </g>
</svg>
