<svg xmlns="http://www.w3.org/2000/svg" viewBox="0 0 1024 1024">
  <g style="fill:none;stroke:#000000;stroke-width:50;stroke-linecap:round;stroke-linejoin:round;" transform="scale(1, 1) translate(0, 0)">
    <path d="M 178.0,265.0 L 255.0,314.0 L 277.0,352.0"/>
    <path d="M 111.0,466.0 L 158.0,507.0 L 195.0,557.0"/>
    <path d="M 148.0,1010.0 L 134.0,974.0 L 131.0,937.0 L 254.0,661.0"/>
    <path d="M 554.0,330.0 L 536.0,323.0 L 491.0,322.0 L 416.0,377.0 L 370.0,403.0 L 338.0,411.0 L 332.0,420.0 L 312.0,419.0 L 302.0,430.0"/>
    <path d="M 284.0,569.0 L 350.0,569.0 L 486.0,531.0 L 532.0,527.0"/>
    <path d="M 395.0,412.0 L 430.0,430.0 L 410.0,1008.0"/>
    <path d="M 401.0,583.0 L 384.0,654.0 L 353.0,712.0 L 302.0,788.0 L 232.0,873.0"/>
    <path d="M 445.0,651.0 L 461.0,670.0 L 502.0,699.0 L 514.0,716.0"/>
    <path d="M 543.0,558.0 L 597.0,596.0 L 617.0,636.0"/>
    <path d="M 884.0,486.0 L 851.0,475.0 L 753.0,563.0"/>
    <path d="M 658.0,263.0 L 705.0,307.0 L 693.0,596.0 L 673.0,749.0 L 642.0,840.0 L 615.0,887.0 L 565.0,933.0 L 487.0,973.0"/>
    <path d="M 723.0,693.0 L 721.0,746.0 L 746.0,749.0 L 763.0,799.0 L 773.0,800.0 L 799.0,850.0 L 833.0,878.0 L 836.0,893.0 L 889.0,932.0 L 932.0,931.0 L 940.0,946.0 L 972.0,947.0"/>
  </g>
</svg>
