<svg xmlns="http://www.w3.org/2000/svg" viewBox="0 0 1024 1024">
  <g style="fill:none;stroke:#000000;stroke-width:50;stroke-linecap:round;stroke-linejoin:round;" transform="scale(1, 1) translate(0, 0)">
    <path d="M 230.0,249.0 L 320.0,306.0 L 344.0,340.0"/>
    <path d="M 137.0,470.0 L 228.0,538.0 L 244.0,564.0"/>
    <path d="M 201.0,1006.0 L 189.0,976.0 L 185.0,922.0 L 219.0,864.0 L 329.0,637.0"/>
    <path d="M 450.0,226.0 L 491.0,240.0 L 510.0,238.0 L 684.0,188.0 L 730.0,187.0 L 755.0,216.0 L 747.0,229.0 L 660.0,310.0 L 648.0,308.0"/>
    <path d="M 565.0,298.0 L 622.0,328.0 L 656.0,359.0"/>
    <path d="M 433.0,393.0 L 462.0,424.0 L 467.0,440.0 L 476.0,628.0 L 485.0,657.0"/>
    <path d="M 491.0,414.0 L 506.0,418.0 L 730.0,366.0 L 777.0,363.0 L 797.0,373.0 L 820.0,398.0 L 803.0,486.0 L 801.0,565.0 L 791.0,637.0"/>
    <path d="M 533.0,499.0 L 593.0,487.0 L 687.0,457.0 L 722.0,459.0"/>
    <path d="M 536.0,589.0 L 686.0,551.0 L 725.0,552.0"/>
    <path d="M 595.0,412.0 L 626.0,439.0 L 623.0,647.0"/>
    <path d="M 401.0,767.0 L 430.0,779.0 L 466.0,779.0 L 778.0,718.0 L 799.0,720.0 L 819.0,733.0 L 831.0,747.0 L 804.0,888.0 L 777.0,979.0 L 759.0,1018.0 L 738.0,1043.0 L 716.0,1055.0 L 641.0,1002.0"/>
    <path d="M 577.0,666.0 L 600.0,703.0 L 571.0,802.0 L 527.0,890.0 L 449.0,985.0 L 405.0,1026.0 L 326.0,1080.0"/>
  </g>
</svg>
