<svg xmlns="http://www.w3.org/2000/svg" viewBox="0 0 1024 1024">
  <g style="fill:none;stroke:#000000;stroke-width:50;stroke-linecap:round;stroke-linejoin:round;" transform="scale(1, 1) translate(0, 0)">
    <path d="M 210.0,273.0 L 298.0,327.0 L 325.0,368.0"/>
    <path d="M 141.0,480.0 L 222.0,535.0 L 245.0,565.0"/>
    <path d="M 182.0,973.0 L 169.0,937.0 L 166.0,886.0 L 199.0,831.0 L 294.0,637.0"/>
    <path d="M 445.0,291.0 L 499.0,298.0 L 659.0,268.0 L 734.0,247.0 L 778.0,249.0"/>
    <path d="M 370.0,446.0 L 396.0,467.0 L 409.0,498.0 L 448.0,678.0"/>
    <path d="M 423.0,449.0 L 448.0,459.0 L 668.0,417.0 L 742.0,408.0 L 778.0,414.0 L 807.0,448.0 L 754.0,614.0 L 756.0,637.0"/>
    <path d="M 502.0,327.0 L 526.0,339.0 L 536.0,365.0 L 539.0,589.0 L 538.0,600.0 L 527.0,608.0"/>
    <path d="M 621.0,300.0 L 645.0,314.0 L 652.0,328.0 L 646.0,566.0 L 642.0,582.0 L 631.0,590.0"/>
    <path d="M 468.0,633.0 L 477.0,640.0 L 693.0,608.0 L 722.0,592.0"/>
    <path d="M 431.0,797.0 L 470.0,805.0 L 511.0,803.0 L 703.0,764.0 L 757.0,766.0"/>
    <path d="M 555.0,647.0 L 583.0,665.0 L 594.0,690.0 L 590.0,900.0 L 573.0,921.0"/>
    <path d="M 334.0,959.0 L 386.0,970.0 L 575.0,946.0 L 820.0,928.0 L 867.0,936.0 L 902.0,950.0"/>
  </g>
</svg>
