<svg xmlns="http://www.w3.org/2000/svg" viewBox="0 0 1024 1024">
  <g style="fill:none;stroke:#000000;stroke-width:50;stroke-linecap:round;stroke-linejoin:round;" transform="scale(1, 1) translate(0, 0)">
    <path d="M 223.0,321.0 L 304.0,366.0 L 333.0,403.0"/>
    <path d="M 141.0,506.0 L 216.0,563.0 L 232.0,588.0"/>
    <path d="M 167.0,995.0 L 157.0,955.0 L 160.0,913.0 L 324.0,656.0"/>
    <path d="M 428.0,290.0 L 506.0,353.0 L 519.0,383.0"/>
    <path d="M 709.0,241.0 L 735.0,273.0 L 630.0,417.0"/>
    <path d="M 395.0,519.0 L 417.0,526.0 L 468.0,527.0 L 738.0,475.0 L 780.0,476.0"/>
    <path d="M 486.0,550.0 L 521.0,574.0 L 518.0,941.0 L 501.0,952.0"/>
    <path d="M 622.0,530.0 L 655.0,548.0 L 659.0,566.0 L 643.0,928.0 L 624.0,942.0"/>
    <path d="M 358.0,726.0 L 420.0,797.0 L 430.0,821.0"/>
    <path d="M 790.0,633.0 L 810.0,650.0 L 819.0,669.0 L 720.0,793.0"/>
    <path d="M 310.0,991.0 L 362.0,1002.0 L 548.0,979.0 L 814.0,960.0 L 872.0,969.0 L 907.0,982.0"/>
  </g>
</svg>
