<svg xmlns="http://www.w3.org/2000/svg" viewBox="0 0 1024 1024">
  <g style="fill:none;stroke:#000000;stroke-width:50;stroke-linecap:round;stroke-linejoin:round;" transform="scale(1, 1) translate(0, 0)">
    <path d="M 165.0,299.0 L 234.0,343.0 L 263.0,383.0"/>
    <path d="M 119.0,485.0 L 197.0,543.0 L 213.0,569.0"/>
    <path d="M 182.0,972.0 L 165.0,935.0 L 161.0,898.0 L 258.0,645.0"/>
    <path d="M 309.0,370.0 L 340.0,408.0 L 344.0,485.0 L 343.0,563.0 L 325.0,718.0 L 328.0,757.0"/>
    <path d="M 356.0,378.0 L 379.0,385.0 L 455.0,361.0 L 480.0,359.0 L 513.0,388.0 L 506.0,502.0 L 510.0,681.0 L 503.0,739.0"/>
    <path d="M 392.0,458.0 L 415.0,467.0 L 434.0,487.0 L 430.0,678.0 L 408.0,812.0 L 394.0,850.0 L 360.0,899.0 L 299.0,944.0 L 265.0,957.0"/>
    <path d="M 466.0,773.0 L 525.0,827.0 L 543.0,868.0"/>
    <path d="M 569.0,503.0 L 639.0,496.0 L 754.0,449.0 L 794.0,446.0"/>
    <path d="M 560.0,642.0 L 607.0,643.0 L 801.0,575.0 L 850.0,573.0"/>
    <path d="M 603.0,249.0 L 634.0,264.0 L 658.0,289.0 L 659.0,384.0 L 672.0,518.0 L 705.0,684.0 L 728.0,757.0 L 784.0,870.0 L 834.0,932.0 L 873.0,959.0 L 893.0,964.0 L 909.0,938.0 L 942.0,800.0"/>
    <path d="M 815.0,644.0 L 831.0,680.0 L 787.0,763.0 L 734.0,832.0 L 694.0,870.0 L 646.0,903.0 L 541.0,953.0"/>
    <path d="M 737.0,278.0 L 814.0,325.0 L 839.0,362.0"/>
  </g>
</svg>
