<svg xmlns="http://www.w3.org/2000/svg" viewBox="0 0 1024 1024">
  <g style="fill:none;stroke:#000000;stroke-width:50;stroke-linecap:round;stroke-linejoin:round;" transform="scale(1, 1) translate(0, 0)">
    <path d="M 177.0,256.0 L 251.0,301.0 L 282.0,343.0"/>
    <path d="M 102.0,456.0 L 186.0,506.0 L 212.0,538.0"/>
    <path d="M 176.0,945.0 L 163.0,905.0 L 161.0,861.0 L 184.0,827.0 L 290.0,618.0"/>
    <path d="M 477.0,215.0 L 489.0,224.0 L 502.0,252.0 L 462.0,300.0 L 389.0,363.0 L 389.0,371.0"/>
    <path d="M 325.0,364.0 L 365.0,396.0 L 376.0,456.0 L 381.0,542.0 L 392.0,583.0 L 439.0,559.0 L 502.0,500.0 L 501.0,492.0"/>
    <path d="M 475.0,426.0 L 531.0,476.0 L 550.0,517.0"/>
    <path d="M 546.0,347.0 L 601.0,352.0 L 795.0,305.0 L 822.0,304.0 L 841.0,320.0 L 845.0,326.0 L 826.0,447.0 L 811.0,497.0 L 791.0,534.0 L 764.0,557.0 L 688.0,514.0"/>
    <path d="M 648.0,362.0 L 670.0,379.0 L 675.0,394.0 L 661.0,434.0 L 605.0,532.0 L 581.0,564.0 L 543.0,598.0"/>
    <path d="M 348.0,685.0 L 382.0,713.0 L 395.0,741.0 L 422.0,925.0 L 443.0,993.0"/>
    <path d="M 408.0,695.0 L 421.0,705.0 L 438.0,708.0 L 748.0,647.0 L 791.0,656.0 L 816.0,684.0 L 779.0,918.0 L 771.0,946.0 L 752.0,977.0 L 751.0,1033.0"/>
    <path d="M 477.0,824.0 L 551.0,815.0 L 640.0,793.0 L 672.0,791.0 L 695.0,798.0"/>
    <path d="M 556.0,707.0 L 587.0,734.0 L 589.0,896.0 L 574.0,916.0"/>
    <path d="M 460.0,962.0 L 474.0,952.0 L 625.0,933.0 L 700.0,928.0 L 723.0,935.0"/>
  </g>
</svg>
