<svg xmlns="http://www.w3.org/2000/svg" viewBox="0 0 1024 1024">
  <g style="fill:none;stroke:#000000;stroke-width:50;stroke-linecap:round;stroke-linejoin:round;" transform="scale(1, 1) translate(0, 0)">
    <path d="M 217.0,276.0 L 307.0,333.0 L 334.0,376.0"/>
    <path d="M 136.0,489.0 L 212.0,542.0 L 235.0,573.0"/>
    <path d="M 183.0,971.0 L 172.0,940.0 L 171.0,891.0 L 316.0,624.0"/>
    <path d="M 438.0,370.0 L 481.0,379.0 L 519.0,377.0 L 698.0,343.0 L 743.0,345.0"/>
    <path d="M 548.0,195.0 L 581.0,221.0 L 592.0,242.0 L 585.0,457.0 L 569.0,478.0"/>
    <path d="M 344.0,524.0 L 396.0,531.0 L 616.0,494.0 L 789.0,474.0 L 867.0,490.0"/>
    <path d="M 533.0,532.0 L 558.0,554.0 L 470.0,672.0 L 467.0,684.0 L 496.0,688.0 L 686.0,644.0 L 695.0,653.0"/>
    <path d="M 666.0,575.0 L 744.0,652.0 L 756.0,692.0"/>
    <path d="M 355.0,786.0 L 383.0,807.0 L 390.0,822.0 L 423.0,950.0 L 436.0,966.0"/>
    <path d="M 409.0,789.0 L 425.0,798.0 L 585.0,772.0 L 722.0,755.0 L 756.0,756.0 L 788.0,792.0 L 752.0,911.0 L 723.0,931.0"/>
    <path d="M 492.0,808.0 L 500.0,813.0 L 508.0,837.0 L 518.0,917.0 L 524.0,942.0 L 535.0,958.0"/>
    <path d="M 614.0,786.0 L 639.0,810.0 L 612.0,932.0 L 597.0,954.0"/>
    <path d="M 266.0,996.0 L 314.0,1006.0 L 581.0,972.0 L 851.0,953.0 L 886.0,957.0 L 931.0,972.0"/>
  </g>
</svg>
