<svg xmlns="http://www.w3.org/2000/svg" viewBox="0 0 1024 1024">
  <g style="fill:none;stroke:#000000;stroke-width:50;stroke-linecap:round;stroke-linejoin:round;" transform="scale(1, 1) translate(0, 0)">
    <path d="M 253.0,211.0 L 326.0,251.0 L 348.0,281.0"/>
    <path d="M 175.0,356.0 L 235.0,393.0 L 253.0,419.0"/>
    <path d="M 235.0,694.0 L 229.0,663.0 L 234.0,624.0 L 348.0,467.0"/>
    <path d="M 494.0,172.0 L 516.0,210.0 L 478.0,280.0 L 423.0,346.0 L 383.0,382.0 L 343.0,407.0"/>
    <path d="M 472.0,329.0 L 477.0,390.0 L 463.0,593.0 L 467.0,660.0"/>
    <path d="M 629.0,165.0 L 672.0,199.0 L 686.0,219.0"/>
    <path d="M 537.0,295.0 L 596.0,299.0 L 771.0,265.0 L 804.0,266.0"/>
    <path d="M 551.0,405.0 L 581.0,403.0 L 741.0,363.0 L 774.0,360.0 L 796.0,365.0"/>
    <path d="M 544.0,489.0 L 575.0,489.0 L 740.0,453.0 L 770.0,451.0 L 791.0,457.0"/>
    <path d="M 679.0,309.0 L 663.0,333.0 L 664.0,523.0 L 648.0,546.0"/>
    <path d="M 502.0,595.0 L 781.0,550.0 L 814.0,551.0 L 854.0,562.0"/>
    <path d="M 87.0,780.0 L 114.0,793.0 L 154.0,799.0 L 430.0,758.0 L 859.0,727.0 L 901.0,736.0 L 947.0,757.0"/>
    <path d="M 491.0,656.0 L 525.0,700.0 L 514.0,1089.0"/>
  </g>
</svg>
