<svg xmlns="http://www.w3.org/2000/svg" viewBox="0 0 1024 1024">
  <g style="fill:none;stroke:#000000;stroke-width:50;stroke-linecap:round;stroke-linejoin:round;" transform="scale(1, 1) translate(0, 0)">
    <path d="M 161.0,273.0 L 234.0,327.0 L 262.0,372.0"/>
    <path d="M 85.0,484.0 L 156.0,532.0 L 182.0,574.0"/>
    <path d="M 150.0,990.0 L 139.0,961.0 L 137.0,912.0 L 167.0,866.0 L 284.0,640.0"/>
    <path d="M 386.0,271.0 L 396.0,302.0 L 385.0,337.0 L 348.0,401.0 L 345.0,446.0"/>
    <path d="M 418.0,329.0 L 434.0,319.0 L 618.0,286.0 L 758.0,268.0 L 800.0,275.0 L 821.0,293.0 L 827.0,309.0 L 745.0,386.0"/>
    <path d="M 400.0,451.0 L 421.0,469.0 L 432.0,489.0 L 472.0,678.0"/>
    <path d="M 443.0,452.0 L 467.0,463.0 L 484.0,462.0 L 566.0,440.0 L 645.0,427.0 L 681.0,427.0 L 703.0,434.0 L 725.0,464.0 L 667.0,632.0 L 666.0,659.0"/>
    <path d="M 479.0,566.0 L 501.0,553.0 L 573.0,540.0 L 619.0,545.0"/>
    <path d="M 490.0,657.0 L 508.0,645.0 L 615.0,629.0 L 629.0,620.0"/>
    <path d="M 526.0,688.0 L 606.0,745.0"/>
    <path d="M 302.0,795.0 L 358.0,804.0 L 553.0,774.0 L 839.0,746.0 L 912.0,766.0"/>
    <path d="M 525.0,885.0 L 493.0,890.0 L 460.0,932.0 L 390.0,995.0 L 345.0,1026.0 L 307.0,1043.0"/>
    <path d="M 650.0,864.0 L 783.0,964.0 L 803.0,993.0 L 816.0,1030.0"/>
  </g>
</svg>
