<svg xmlns="http://www.w3.org/2000/svg" viewBox="0 0 1024 1024">
  <g style="fill:none;stroke:#000000;stroke-width:50;stroke-linecap:round;stroke-linejoin:round;" transform="scale(1, 1) translate(0, 0)">
    <path d="M 202.0,237.0 L 277.0,287.0 L 302.0,325.0"/>
    <path d="M 120.0,470.0 L 190.0,521.0 L 220.0,556.0"/>
    <path d="M 185.0,973.0 L 170.0,934.0 L 167.0,890.0 L 289.0,633.0"/>
    <path d="M 428.0,319.0 L 462.0,326.0 L 509.0,323.0 L 785.0,277.0 L 826.0,286.0"/>
    <path d="M 450.0,428.0 L 493.0,429.0 L 748.0,380.0 L 775.0,378.0 L 798.0,385.0"/>
    <path d="M 480.0,207.0 L 511.0,237.0 L 522.0,257.0 L 535.0,475.0 L 522.0,496.0"/>
    <path d="M 660.0,154.0 L 701.0,196.0 L 673.0,455.0 L 656.0,478.0"/>
    <path d="M 340.0,536.0 L 385.0,543.0 L 644.0,501.0 L 831.0,479.0 L 877.0,483.0 L 912.0,494.0"/>
    <path d="M 419.0,613.0 L 445.0,636.0 L 453.0,687.0 L 450.0,801.0 L 439.0,882.0 L 420.0,956.0 L 419.0,1011.0"/>
    <path d="M 474.0,625.0 L 493.0,631.0 L 721.0,589.0 L 749.0,604.0 L 761.0,618.0 L 768.0,890.0 L 763.0,992.0 L 741.0,1028.0 L 732.0,1031.0 L 699.0,1019.0 L 649.0,989.0"/>
    <path d="M 511.0,729.0 L 649.0,700.0 L 680.0,705.0"/>
    <path d="M 561.0,533.0 L 590.0,555.0 L 592.0,563.0 L 589.0,777.0 L 574.0,796.0"/>
    <path d="M 290.0,840.0 L 343.0,849.0 L 576.0,817.0 L 872.0,794.0 L 919.0,798.0 L 966.0,812.0"/>
  </g>
</svg>
