<svg xmlns="http://www.w3.org/2000/svg" viewBox="0 0 1024 1024">
  <g style="fill:none;stroke:#000000;stroke-width:50;stroke-linecap:round;stroke-linejoin:round;" transform="scale(1, 1) translate(0, 0)">
    <path d="M 194.0,279.0 L 287.0,327.0 L 314.0,361.0"/>
    <path d="M 121.0,489.0 L 203.0,536.0 L 222.0,559.0"/>
    <path d="M 168.0,999.0 L 157.0,969.0 L 155.0,914.0 L 182.0,873.0 L 297.0,649.0"/>
    <path d="M 710.0,221.0 L 649.0,208.0 L 581.0,250.0 L 449.0,298.0"/>
    <path d="M 387.0,345.0 L 439.0,381.0 L 468.0,423.0"/>
    <path d="M 543.0,320.0 L 583.0,355.0 L 593.0,373.0"/>
    <path d="M 765.0,284.0 L 778.0,318.0 L 665.0,397.0 L 665.0,402.0"/>
    <path d="M 536.0,412.0 L 545.0,455.0 L 460.0,532.0 L 443.0,563.0 L 474.0,573.0 L 531.0,571.0 L 569.0,562.0"/>
    <path d="M 669.0,448.0 L 680.0,486.0 L 612.0,553.0 L 474.0,666.0 L 460.0,695.0 L 480.0,703.0 L 622.0,668.0 L 678.0,660.0 L 685.0,667.0"/>
    <path d="M 667.0,599.0 L 729.0,670.0 L 736.0,702.0"/>
    <path d="M 290.0,828.0 L 343.0,836.0 L 515.0,809.0 L 824.0,778.0 L 903.0,797.0"/>
    <path d="M 530.0,715.0 L 549.0,723.0 L 570.0,748.0 L 552.0,838.0 L 510.0,913.0 L 463.0,957.0 L 419.0,981.0 L 351.0,1006.0 L 300.0,1016.0"/>
    <path d="M 590.0,827.0 L 594.0,839.0 L 638.0,883.0 L 754.0,983.0 L 833.0,1005.0 L 934.0,1019.0"/>
  </g>
</svg>
