<svg xmlns="http://www.w3.org/2000/svg" viewBox="0 0 1024 1024">
  <g style="fill:none;stroke:#000000;stroke-width:50;stroke-linecap:round;stroke-linejoin:round;" transform="scale(1, 1) translate(0, 0)">
    <path d="M 184.0,263.0 L 262.0,318.0 L 278.0,352.0"/>
    <path d="M 115.0,468.0 L 176.0,511.0 L 192.0,536.0"/>
    <path d="M 153.0,935.0 L 143.0,918.0 L 136.0,860.0 L 250.0,620.0"/>
    <path d="M 358.0,283.0 L 402.0,338.0 L 411.0,365.0"/>
    <path d="M 541.0,217.0 L 567.0,244.0 L 530.0,311.0 L 474.0,390.0"/>
    <path d="M 324.0,475.0 L 381.0,478.0 L 528.0,440.0 L 567.0,441.0"/>
    <path d="M 299.0,573.0 L 320.0,605.0 L 308.0,719.0 L 343.0,721.0 L 439.0,685.0 L 506.0,669.0 L 518.0,656.0"/>
    <path d="M 557.0,520.0 L 576.0,558.0 L 537.0,708.0"/>
    <path d="M 412.0,496.0 L 438.0,513.0 L 446.0,529.0 L 434.0,650.0 L 408.0,765.0 L 355.0,898.0 L 322.0,951.0 L 276.0,1004.0"/>
    <path d="M 626.0,348.0 L 661.0,376.0 L 669.0,447.0 L 658.0,651.0 L 633.0,766.0 L 591.0,861.0 L 547.0,923.0 L 477.0,990.0 L 445.0,1008.0"/>
    <path d="M 693.0,357.0 L 703.0,364.0 L 716.0,363.0 L 806.0,329.0 L 833.0,341.0 L 847.0,362.0 L 846.0,811.0 L 838.0,952.0 L 819.0,979.0 L 779.0,962.0 L 721.0,924.0"/>
    <path d="M 692.0,548.0 L 720.0,529.0 L 752.0,523.0 L 783.0,526.0"/>
    <path d="M 683.0,678.0 L 696.0,662.0 L 733.0,650.0 L 784.0,655.0"/>
  </g>
</svg>
