<svg xmlns="http://www.w3.org/2000/svg" viewBox="0 0 1024 1024">
  <g style="fill:none;stroke:#000000;stroke-width:50;stroke-linecap:round;stroke-linejoin:round;" transform="scale(1, 1) translate(0, 0)">
    <path d="M 186.0,281.0 L 268.0,334.0 L 288.0,365.0"/>
    <path d="M 116.0,500.0 L 195.0,552.0 L 218.0,580.0"/>
    <path d="M 177.0,990.0 L 163.0,950.0 L 161.0,907.0 L 289.0,653.0"/>
    <path d="M 506.0,336.0 L 472.0,332.0 L 426.0,378.0 L 394.0,400.0 L 394.0,410.0"/>
    <path d="M 336.0,404.0 L 367.0,432.0 L 420.0,654.0"/>
    <path d="M 420.0,520.0 L 426.0,509.0 L 456.0,498.0 L 506.0,498.0"/>
    <path d="M 657.0,328.0 L 676.0,332.0 L 786.0,324.0 L 799.0,334.0 L 815.0,362.0 L 752.0,560.0 L 735.0,592.0 L 720.0,590.0"/>
    <path d="M 640.0,465.0 L 733.0,451.0 L 750.0,441.0"/>
    <path d="M 437.0,628.0 L 448.0,619.0 L 484.0,611.0 L 708.0,569.0"/>
    <path d="M 538.0,215.0 L 576.0,245.0 L 586.0,264.0 L 570.0,663.0 L 553.0,690.0"/>
    <path d="M 416.0,723.0 L 460.0,728.0 L 524.0,721.0 L 632.0,694.0 L 662.0,698.0 L 682.0,711.0 L 662.0,765.0 L 619.0,843.0 L 556.0,914.0 L 496.0,953.0 L 411.0,988.0 L 327.0,1009.0 L 283.0,1011.0"/>
    <path d="M 411.0,775.0 L 441.0,784.0 L 477.0,807.0 L 602.0,921.0 L 710.0,994.0 L 772.0,1011.0 L 921.0,1016.0"/>
  </g>
</svg>
