<svg xmlns="http://www.w3.org/2000/svg" viewBox="0 0 1024 1024">
  <g style="fill:none;stroke:#000000;stroke-width:50;stroke-linecap:round;stroke-linejoin:round;" transform="scale(1, 1) translate(0, 0)">
    <path d="M 213.0,293.0 L 291.0,345.0 L 318.0,385.0"/>
    <path d="M 125.0,486.0 L 202.0,548.0 L 216.0,571.0"/>
    <path d="M 179.0,1020.0 L 166.0,985.0 L 164.0,932.0 L 189.0,895.0 L 320.0,642.0"/>
    <path d="M 541.0,186.0 L 554.0,192.0 L 574.0,215.0 L 547.0,273.0 L 507.0,337.0"/>
    <path d="M 416.0,347.0 L 440.0,370.0 L 450.0,395.0 L 454.0,502.0 L 444.0,653.0 L 447.0,688.0"/>
    <path d="M 460.0,355.0 L 491.0,366.0 L 678.0,325.0 L 700.0,329.0 L 722.0,349.0 L 733.0,364.0 L 725.0,484.0 L 728.0,606.0 L 719.0,680.0"/>
    <path d="M 480.0,475.0 L 511.0,461.0 L 603.0,445.0 L 626.0,443.0 L 647.0,449.0"/>
    <path d="M 476.0,570.0 L 490.0,560.0 L 571.0,543.0 L 620.0,536.0 L 655.0,541.0"/>
    <path d="M 472.0,671.0 L 487.0,657.0 L 626.0,638.0 L 672.0,634.0 L 683.0,646.0"/>
    <path d="M 326.0,795.0 L 347.0,802.0 L 384.0,803.0 L 609.0,770.0 L 804.0,751.0 L 846.0,756.0 L 884.0,770.0"/>
    <path d="M 528.0,674.0 L 568.0,704.0 L 566.0,740.0 L 544.0,841.0 L 505.0,916.0 L 473.0,953.0 L 414.0,997.0 L 352.0,1025.0 L 292.0,1042.0"/>
    <path d="M 592.0,802.0 L 596.0,823.0 L 623.0,856.0 L 728.0,964.0 L 789.0,1015.0 L 821.0,1028.0 L 953.0,1048.0"/>
    <path d="M 803.0,601.0 L 863.0,644.0 L 887.0,674.0"/>
  </g>
</svg>
