<svg xmlns="http://www.w3.org/2000/svg" viewBox="0 0 1024 1024">
  <g style="fill:none;stroke:#000000;stroke-width:50;stroke-linecap:round;stroke-linejoin:round;" transform="scale(1, 1) translate(0, 0)">
    <path d="M 174.0,277.0 L 257.0,330.0 L 276.0,360.0"/>
    <path d="M 108.0,486.0 L 185.0,541.0 L 200.0,565.0"/>
    <path d="M 158.0,974.0 L 147.0,944.0 L 145.0,896.0 L 175.0,849.0 L 296.0,613.0"/>
    <path d="M 342.0,301.0 L 369.0,331.0 L 379.0,367.0 L 370.0,738.0 L 348.0,919.0 L 352.0,985.0"/>
    <path d="M 394.0,314.0 L 424.0,328.0 L 503.0,322.0 L 779.0,278.0 L 809.0,292.0 L 835.0,319.0 L 847.0,869.0 L 846.0,917.0 L 832.0,959.0 L 836.0,1027.0"/>
    <path d="M 446.0,444.0 L 484.0,449.0 L 648.0,410.0 L 694.0,405.0 L 720.0,410.0"/>
    <path d="M 552.0,460.0 L 566.0,477.0 L 543.0,504.0 L 482.0,560.0 L 448.0,584.0 L 438.0,585.0"/>
    <path d="M 539.0,537.0 L 556.0,537.0 L 619.0,591.0 L 650.0,656.0 L 653.0,708.0 L 639.0,789.0 L 625.0,823.0 L 605.0,844.0 L 522.0,802.0"/>
    <path d="M 552.0,553.0 L 557.0,581.0 L 544.0,601.0 L 490.0,654.0 L 439.0,684.0"/>
    <path d="M 605.0,614.0 L 603.0,654.0 L 569.0,694.0 L 515.0,744.0 L 433.0,790.0"/>
    <path d="M 742.0,516.0 L 711.0,510.0 L 646.0,580.0 L 648.0,589.0"/>
    <path d="M 670.0,652.0 L 741.0,699.0 L 760.0,716.0 L 775.0,741.0"/>
    <path d="M 385.0,958.0 L 404.0,946.0 L 780.0,919.0"/>
  </g>
</svg>
