<svg xmlns="http://www.w3.org/2000/svg" viewBox="0 0 1024 1024">
  <g style="fill:none;stroke:#000000;stroke-width:50;stroke-linecap:round;stroke-linejoin:round;" transform="scale(1, 1) translate(0, 0)">
    <path d="M 206.0,305.0 L 295.0,365.0 L 318.0,402.0"/>
    <path d="M 120.0,462.0 L 190.0,513.0 L 220.0,548.0"/>
    <path d="M 181.0,976.0 L 170.0,955.0 L 162.0,896.0 L 285.0,621.0"/>
    <path d="M 403.0,351.0 L 434.0,359.0 L 488.0,358.0 L 730.0,310.0 L 787.0,311.0"/>
    <path d="M 554.0,198.0 L 589.0,240.0 L 554.0,431.0 L 537.0,448.0"/>
    <path d="M 442.0,452.0 L 456.0,464.0 L 470.0,496.0 L 474.0,548.0 L 476.0,773.0 L 461.0,787.0"/>
    <path d="M 489.0,461.0 L 509.0,472.0 L 529.0,472.0 L 689.0,437.0 L 716.0,455.0 L 725.0,474.0 L 712.0,724.0 L 707.0,749.0 L 692.0,757.0"/>
    <path d="M 503.0,578.0 L 511.0,569.0 L 612.0,548.0 L 644.0,552.0"/>
    <path d="M 503.0,654.0 L 511.0,644.0 L 570.0,632.0 L 616.0,627.0 L 644.0,632.0"/>
    <path d="M 503.0,735.0 L 511.0,725.0 L 589.0,711.0 L 623.0,706.0 L 656.0,711.0"/>
    <path d="M 291.0,823.0 L 342.0,833.0 L 566.0,802.0 L 819.0,782.0 L 864.0,785.0 L 918.0,802.0"/>
    <path d="M 540.0,892.0 L 504.0,898.0 L 440.0,968.0 L 360.0,1026.0 L 323.0,1043.0"/>
    <path d="M 666.0,869.0 L 771.0,956.0 L 800.0,997.0 L 811.0,1034.0"/>
  </g>
</svg>
