<svg xmlns="http://www.w3.org/2000/svg" viewBox="0 0 1024 1024">
  <g style="fill:none;stroke:#000000;stroke-width:50;stroke-linecap:round;stroke-linejoin:round;" transform="scale(1, 1) translate(0, 0)">
    <path d="M 129.0,291.0 L 193.0,336.0 L 212.0,366.0"/>
    <path d="M 92.0,485.0 L 152.0,526.0 L 173.0,554.0"/>
    <path d="M 142.0,933.0 L 131.0,902.0 L 130.0,860.0 L 241.0,656.0"/>
    <path d="M 328.0,330.0 L 339.0,336.0 L 423.0,304.0 L 433.0,306.0 L 442.0,318.0 L 398.0,408.0 L 392.0,436.0 L 398.0,463.0 L 438.0,528.0 L 438.0,560.0 L 433.0,570.0 L 409.0,570.0 L 359.0,557.0"/>
    <path d="M 261.0,311.0 L 288.0,336.0 L 300.0,358.0 L 306.0,465.0 L 299.0,758.0 L 277.0,892.0 L 279.0,942.0"/>
    <path d="M 616.0,251.0 L 641.0,271.0 L 647.0,284.0 L 634.0,342.0 L 602.0,424.0 L 554.0,517.0 L 497.0,594.0 L 437.0,659.0"/>
    <path d="M 668.0,343.0 L 669.0,366.0 L 725.0,440.0 L 773.0,499.0 L 830.0,553.0 L 960.0,584.0"/>
    <path d="M 531.0,606.0 L 587.0,607.0 L 694.0,571.0 L 750.0,566.0"/>
    <path d="M 455.0,736.0 L 500.0,740.0 L 751.0,690.0 L 831.0,701.0"/>
    <path d="M 618.0,624.0 L 649.0,652.0 L 650.0,899.0 L 644.0,947.0 L 627.0,972.0 L 550.0,926.0"/>
    <path d="M 516.0,805.0 L 486.0,884.0 L 450.0,944.0"/>
    <path d="M 742.0,787.0 L 835.0,872.0 L 857.0,925.0"/>
  </g>
</svg>
