<svg xmlns="http://www.w3.org/2000/svg" viewBox="0 0 1024 1024">
  <g style="fill:none;stroke:#000000;stroke-width:50;stroke-linecap:round;stroke-linejoin:round;" transform="scale(1, 1) translate(0, 0)">
    <path d="M 179.0,257.0 L 266.0,306.0 L 285.0,335.0"/>
    <path d="M 101.0,498.0 L 167.0,547.0 L 183.0,577.0"/>
    <path d="M 166.0,985.0 L 154.0,956.0 L 149.0,907.0 L 257.0,681.0"/>
    <path d="M 401.0,228.0 L 417.0,241.0 L 433.0,269.0 L 421.0,302.0 L 348.0,435.0 L 299.0,505.0 L 246.0,563.0"/>
    <path d="M 346.0,477.0 L 351.0,513.0 L 360.0,527.0 L 362.0,604.0 L 355.0,790.0 L 340.0,919.0 L 346.0,984.0"/>
    <path d="M 443.0,534.0 L 462.0,558.0 L 465.0,571.0 L 457.0,757.0"/>
    <path d="M 629.0,200.0 L 651.0,220.0 L 661.0,241.0 L 648.0,275.0 L 585.0,386.0 L 541.0,448.0 L 510.0,479.0"/>
    <path d="M 606.0,399.0 L 630.0,387.0 L 686.0,378.0 L 802.0,345.0 L 826.0,342.0 L 860.0,348.0"/>
    <path d="M 725.0,396.0 L 746.0,423.0 L 690.0,514.0 L 599.0,607.0 L 544.0,648.0 L 518.0,658.0 L 515.0,665.0"/>
    <path d="M 580.0,464.0 L 702.0,542.0 L 847.0,622.0 L 984.0,620.0"/>
    <path d="M 546.0,734.0 L 576.0,741.0 L 620.0,740.0 L 773.0,707.0 L 825.0,709.0"/>
    <path d="M 651.0,619.0 L 693.0,661.0 L 691.0,950.0 L 675.0,989.0 L 597.0,954.0"/>
    <path d="M 555.0,818.0 L 542.0,861.0 L 498.0,951.0"/>
    <path d="M 778.0,810.0 L 870.0,868.0 L 899.0,919.0"/>
  </g>
</svg>
