<svg xmlns="http://www.w3.org/2000/svg" viewBox="0 0 1024 1024">
  <g style="fill:none;stroke:#000000;stroke-width:50;stroke-linecap:round;stroke-linejoin:round;" transform="scale(1, 1) translate(0, 0)">
    <path d="M 199.0,293.0 L 289.0,348.0 L 314.0,384.0"/>
    <path d="M 117.0,492.0 L 205.0,553.0 L 217.0,573.0"/>
    <path d="M 181.0,983.0 L 171.0,951.0 L 173.0,898.0 L 319.0,676.0"/>
    <path d="M 525.0,281.0 L 485.0,278.0 L 449.0,337.0 L 418.0,369.0 L 374.0,406.0 L 331.0,432.0"/>
    <path d="M 664.0,243.0 L 780.0,312.0 L 813.0,346.0 L 828.0,380.0"/>
    <path d="M 694.0,356.0 L 649.0,355.0 L 585.0,455.0 L 499.0,536.0 L 394.0,596.0 L 310.0,625.0"/>
    <path d="M 458.0,372.0 L 471.0,372.0 L 504.0,389.0 L 649.0,511.0 L 763.0,583.0 L 809.0,600.0 L 978.0,601.0"/>
    <path d="M 442.0,634.0 L 462.0,640.0 L 510.0,640.0 L 637.0,611.0 L 703.0,609.0"/>
    <path d="M 421.0,766.0 L 430.0,771.0 L 496.0,773.0 L 617.0,754.0 L 689.0,735.0 L 737.0,737.0"/>
    <path d="M 550.0,658.0 L 582.0,686.0 L 577.0,914.0 L 561.0,928.0"/>
    <path d="M 387.0,822.0 L 456.0,864.0 L 483.0,904.0"/>
    <path d="M 714.0,787.0 L 730.0,815.0 L 649.0,894.0"/>
    <path d="M 330.0,967.0 L 389.0,978.0 L 516.0,961.0 L 792.0,939.0 L 875.0,962.0"/>
  </g>
</svg>
