<svg xmlns="http://www.w3.org/2000/svg" viewBox="0 0 1024 1024">
  <g style="fill:none;stroke:#000000;stroke-width:50;stroke-linecap:round;stroke-linejoin:round;" transform="scale(1, 1) translate(0, 0)">
    <path d="M 195.0,346.0 L 252.0,391.0 L 271.0,430.0"/>
    <path d="M 445.0,271.0 L 453.0,298.0 L 392.0,346.0 L 380.0,348.0 L 367.0,365.0"/>
    <path d="M 311.0,250.0 L 346.0,282.0 L 335.0,428.0 L 319.0,479.0 L 300.0,515.0 L 260.0,561.0 L 226.0,581.0"/>
    <path d="M 362.0,450.0 L 367.0,463.0 L 407.0,486.0 L 427.0,507.0"/>
    <path d="M 479.0,349.0 L 514.0,376.0 L 534.0,403.0"/>
    <path d="M 729.0,264.0 L 738.0,295.0 L 680.0,338.0 L 644.0,356.0 L 636.0,374.0"/>
    <path d="M 582.0,225.0 L 616.0,258.0 L 597.0,403.0 L 566.0,467.0 L 534.0,502.0 L 495.0,525.0"/>
    <path d="M 626.0,412.0 L 708.0,461.0 L 732.0,496.0"/>
    <path d="M 180.0,580.0 L 189.0,610.0 L 185.0,631.0 L 137.0,709.0 L 129.0,757.0"/>
    <path d="M 216.0,617.0 L 228.0,625.0 L 268.0,626.0 L 417.0,598.0 L 685.0,563.0 L 745.0,558.0 L 800.0,562.0 L 830.0,599.0 L 756.0,679.0"/>
    <path d="M 462.0,626.0 L 486.0,641.0 L 505.0,667.0 L 497.0,781.0 L 500.0,967.0 L 495.0,1000.0 L 479.0,1028.0 L 403.0,996.0 L 367.0,973.0 L 357.0,973.0"/>
    <path d="M 198.0,771.0 L 242.0,779.0 L 273.0,777.0 L 359.0,754.0 L 375.0,754.0 L 400.0,769.0 L 391.0,797.0 L 353.0,857.0 L 293.0,928.0 L 231.0,977.0 L 182.0,1008.0 L 143.0,1024.0"/>
    <path d="M 678.0,668.0 L 687.0,683.0 L 689.0,704.0 L 620.0,761.0 L 589.0,783.0 L 582.0,780.0"/>
    <path d="M 528.0,764.0 L 647.0,890.0 L 765.0,987.0 L 820.0,998.0 L 893.0,1000.0"/>
  </g>
</svg>
