<svg xmlns="http://www.w3.org/2000/svg" viewBox="0 0 1024 1024">
  <g style="fill:none;stroke:#000000;stroke-width:50;stroke-linecap:round;stroke-linejoin:round;" transform="scale(1, 1) translate(0, 0)">
    <path d="M 193.0,285.0 L 272.0,340.0 L 294.0,378.0"/>
    <path d="M 125.0,505.0 L 209.0,560.0 L 230.0,583.0"/>
    <path d="M 161.0,1022.0 L 147.0,980.0 L 145.0,937.0 L 285.0,653.0"/>
    <path d="M 483.0,206.0 L 510.0,238.0 L 487.0,296.0 L 436.0,369.0 L 387.0,419.0 L 369.0,425.0 L 367.0,434.0"/>
    <path d="M 492.0,341.0 L 560.0,331.0 L 706.0,293.0 L 759.0,289.0"/>
    <path d="M 450.0,435.0 L 490.0,440.0 L 670.0,398.0 L 728.0,399.0"/>
    <path d="M 362.0,564.0 L 418.0,561.0 L 654.0,498.0 L 709.0,489.0 L 743.0,493.0 L 759.0,514.0 L 736.0,633.0 L 731.0,743.0 L 747.0,861.0 L 772.0,929.0 L 803.0,977.0 L 823.0,997.0 L 860.0,1023.0 L 892.0,1032.0 L 916.0,987.0 L 937.0,866.0"/>
    <path d="M 388.0,650.0 L 425.0,680.0 L 441.0,706.0"/>
    <path d="M 624.0,596.0 L 635.0,623.0 L 572.0,687.0"/>
    <path d="M 323.0,779.0 L 373.0,784.0 L 588.0,736.0 L 652.0,737.0"/>
    <path d="M 481.0,592.0 L 516.0,631.0 L 507.0,1031.0"/>
    <path d="M 486.0,783.0 L 438.0,854.0 L 391.0,906.0 L 336.0,949.0 L 300.0,968.0"/>
    <path d="M 569.0,830.0 L 640.0,874.0 L 661.0,906.0"/>
  </g>
</svg>
