<svg xmlns="http://www.w3.org/2000/svg" viewBox="0 0 1024 1024">
  <g style="fill:none;stroke:#000000;stroke-width:50;stroke-linecap:round;stroke-linejoin:round;" transform="scale(1, 1) translate(0, 0)">
    <path d="M 143.0,302.0 L 173.0,329.0 L 180.0,348.0 L 183.0,431.0 L 167.0,639.0 L 152.0,709.0 L 127.0,785.0 L 91.0,862.0 L 39.0,942.0"/>
    <path d="M 213.0,333.0 L 222.0,323.0 L 295.0,299.0 L 312.0,305.0 L 333.0,327.0 L 327.0,882.0 L 320.0,910.0 L 307.0,928.0 L 214.0,890.0"/>
    <path d="M 210.0,508.0 L 216.0,496.0 L 230.0,488.0 L 280.0,489.0"/>
    <path d="M 188.0,665.0 L 205.0,650.0 L 220.0,647.0 L 276.0,650.0"/>
    <path d="M 428.0,298.0 L 491.0,343.0 L 503.0,368.0"/>
    <path d="M 724.0,241.0 L 738.0,271.0 L 657.0,343.0"/>
    <path d="M 442.0,446.0 L 474.0,453.0 L 516.0,452.0 L 687.0,415.0 L 731.0,416.0"/>
    <path d="M 388.0,572.0 L 431.0,577.0 L 603.0,546.0 L 741.0,529.0 L 775.0,529.0 L 830.0,542.0"/>
    <path d="M 550.0,222.0 L 566.0,226.0 L 600.0,254.0 L 579.0,370.0 L 551.0,476.0 L 529.0,537.0 L 482.0,631.0 L 438.0,693.0 L 383.0,752.0"/>
    <path d="M 669.0,566.0 L 689.0,574.0 L 764.0,645.0 L 827.0,692.0 L 914.0,712.0 L 982.0,717.0"/>
    <path d="M 563.0,654.0 L 603.0,698.0 L 600.0,944.0 L 581.0,987.0 L 554.0,981.0 L 485.0,946.0"/>
    <path d="M 452.0,733.0 L 506.0,757.0 L 527.0,785.0"/>
    <path d="M 400.0,898.0 L 436.0,909.0 L 548.0,831.0"/>
    <path d="M 710.0,693.0 L 723.0,720.0 L 656.0,783.0"/>
    <path d="M 666.0,835.0 L 755.0,886.0 L 778.0,908.0 L 798.0,948.0"/>
  </g>
</svg>
