<svg xmlns="http://www.w3.org/2000/svg" viewBox="0 0 1024 1024">
  <g style="fill:none;stroke:#000000;stroke-width:50;stroke-linecap:round;stroke-linejoin:round;" transform="scale(1, 1) translate(0, 0)">
    <path d="M 209.0,277.0 L 286.0,329.0 L 317.0,378.0"/>
    <path d="M 121.0,454.0 L 196.0,511.0 L 212.0,536.0"/>
    <path d="M 156.0,973.0 L 142.0,937.0 L 138.0,892.0 L 164.0,848.0 L 265.0,629.0"/>
    <path d="M 517.0,201.0 L 586.0,241.0 L 614.0,269.0"/>
    <path d="M 374.0,374.0 L 424.0,380.0 L 697.0,322.0 L 742.0,319.0 L 771.0,324.0"/>
    <path d="M 654.0,389.0 L 748.0,431.0 L 780.0,468.0"/>
    <path d="M 440.0,405.0 L 459.0,428.0 L 439.0,459.0 L 388.0,518.0 L 338.0,555.0"/>
    <path d="M 526.0,451.0 L 548.0,483.0 L 516.0,538.0 L 476.0,583.0 L 463.0,617.0 L 496.0,618.0 L 648.0,576.0 L 661.0,580.0"/>
    <path d="M 643.0,520.0 L 690.0,569.0 L 705.0,593.0"/>
    <path d="M 495.0,642.0 L 508.0,652.0 L 514.0,686.0 L 444.0,780.0 L 331.0,879.0 L 275.0,915.0 L 244.0,926.0"/>
    <path d="M 471.0,792.0 L 473.0,810.0 L 485.0,832.0 L 479.0,935.0 L 487.0,975.0 L 526.0,962.0 L 630.0,883.0"/>
    <path d="M 783.0,690.0 L 744.0,677.0 L 647.0,756.0 L 639.0,752.0"/>
    <path d="M 538.0,718.0 L 552.0,716.0 L 582.0,736.0 L 672.0,826.0 L 738.0,879.0 L 789.0,909.0 L 821.0,919.0 L 938.0,922.0"/>
  </g>
</svg>
