<svg xmlns="http://www.w3.org/2000/svg" viewBox="0 0 1024 1024">
  <g style="fill:none;stroke:#000000;stroke-width:50;stroke-linecap:round;stroke-linejoin:round;" transform="scale(1, 1) translate(0, 0)">
    <path d="M 183.0,277.0 L 261.0,320.0 L 285.0,355.0"/>
    <path d="M 116.0,466.0 L 193.0,521.0 L 208.0,545.0"/>
    <path d="M 168.0,955.0 L 153.0,917.0 L 149.0,875.0 L 172.0,834.0 L 265.0,616.0"/>
    <path d="M 280.0,450.0 L 349.0,450.0 L 483.0,409.0 L 542.0,406.0"/>
    <path d="M 299.0,585.0 L 343.0,587.0 L 465.0,552.0 L 508.0,552.0"/>
    <path d="M 261.0,738.0 L 319.0,738.0 L 471.0,695.0 L 528.0,697.0"/>
    <path d="M 381.0,243.0 L 401.0,254.0 L 422.0,279.0 L 424.0,301.0 L 415.0,1036.0"/>
    <path d="M 667.0,239.0 L 688.0,259.0 L 698.0,279.0 L 691.0,297.0 L 666.0,350.0 L 608.0,443.0 L 554.0,504.0"/>
    <path d="M 651.0,419.0 L 743.0,391.0 L 780.0,401.0 L 725.0,513.0 L 695.0,549.0"/>
    <path d="M 598.0,578.0 L 621.0,586.0 L 769.0,548.0 L 815.0,546.0 L 845.0,571.0 L 818.0,663.0 L 797.0,674.0"/>
    <path d="M 684.0,589.0 L 703.0,608.0 L 698.0,688.0 L 682.0,699.0"/>
    <path d="M 598.0,750.0 L 613.0,741.0 L 785.0,708.0 L 827.0,705.0 L 854.0,713.0"/>
    <path d="M 545.0,568.0 L 568.0,592.0 L 573.0,610.0 L 566.0,790.0 L 573.0,860.0 L 590.0,911.0 L 630.0,944.0 L 688.0,963.0 L 745.0,968.0 L 831.0,958.0 L 891.0,934.0 L 916.0,906.0 L 920.0,768.0"/>
  </g>
</svg>
