<svg xmlns="http://www.w3.org/2000/svg" viewBox="0 0 1024 1024">
  <g style="fill:none;stroke:#000000;stroke-width:50;stroke-linecap:round;stroke-linejoin:round;" transform="scale(1, 1) translate(0, 0)">
    <path d="M 182.0,293.0 L 270.0,342.0 L 297.0,380.0"/>
    <path d="M 113.0,488.0 L 188.0,539.0 L 205.0,555.0 L 208.0,566.0"/>
    <path d="M 172.0,959.0 L 161.0,928.0 L 159.0,875.0 L 312.0,586.0"/>
    <path d="M 392.0,278.0 L 435.0,287.0 L 691.0,245.0 L 758.0,251.0"/>
    <path d="M 453.0,310.0 L 479.0,333.0 L 477.0,545.0 L 463.0,558.0"/>
    <path d="M 628.0,285.0 L 660.0,303.0 L 654.0,639.0"/>
    <path d="M 508.0,401.0 L 516.0,388.0 L 545.0,379.0 L 589.0,372.0 L 609.0,376.0"/>
    <path d="M 501.0,489.0 L 526.0,475.0 L 565.0,465.0 L 605.0,468.0"/>
    <path d="M 364.0,589.0 L 414.0,594.0 L 585.0,561.0 L 743.0,539.0 L 790.0,543.0 L 823.0,553.0"/>
    <path d="M 316.0,726.0 L 374.0,723.0 L 442.0,699.0 L 474.0,699.0 L 491.0,707.0 L 482.0,756.0 L 461.0,816.0 L 417.0,891.0 L 360.0,939.0 L 323.0,957.0 L 275.0,967.0"/>
    <path d="M 346.0,790.0 L 473.0,897.0 L 506.0,940.0 L 515.0,965.0"/>
    <path d="M 584.0,696.0 L 649.0,697.0 L 723.0,675.0 L 757.0,677.0 L 778.0,687.0 L 746.0,803.0 L 729.0,841.0 L 689.0,898.0 L 631.0,940.0 L 581.0,960.0 L 559.0,962.0"/>
    <path d="M 584.0,753.0 L 628.0,779.0 L 737.0,901.0 L 815.0,961.0 L 968.0,992.0"/>
  </g>
</svg>
