<svg xmlns="http://www.w3.org/2000/svg" viewBox="0 0 1024 1024">
  <g style="fill:none;stroke:#000000;stroke-width:50;stroke-linecap:round;stroke-linejoin:round;" transform="scale(1, 1) translate(0, 0)">
    <path d="M 207.0,285.0 L 293.0,334.0 L 318.0,370.0"/>
    <path d="M 129.0,496.0 L 197.0,539.0 L 232.0,573.0"/>
    <path d="M 176.0,996.0 L 162.0,955.0 L 162.0,913.0 L 277.0,697.0 L 289.0,685.0 L 300.0,656.0"/>
    <path d="M 521.0,203.0 L 599.0,240.0 L 630.0,276.0"/>
    <path d="M 380.0,373.0 L 423.0,383.0 L 757.0,329.0 L 821.0,336.0"/>
    <path d="M 496.0,405.0 L 512.0,414.0 L 519.0,427.0 L 517.0,493.0 L 497.0,586.0 L 497.0,628.0"/>
    <path d="M 632.0,380.0 L 659.0,401.0 L 662.0,503.0 L 654.0,584.0 L 661.0,630.0"/>
    <path d="M 420.0,487.0 L 393.0,548.0 L 363.0,583.0 L 355.0,602.0"/>
    <path d="M 717.0,469.0 L 816.0,524.0 L 837.0,546.0 L 850.0,573.0"/>
    <path d="M 314.0,743.0 L 365.0,752.0 L 612.0,716.0 L 817.0,696.0 L 899.0,715.0"/>
    <path d="M 548.0,609.0 L 577.0,646.0 L 575.0,839.0 L 565.0,972.0 L 578.0,1049.0"/>
    <path d="M 545.0,751.0 L 527.0,770.0 L 501.0,817.0 L 433.0,890.0 L 363.0,942.0 L 281.0,983.0"/>
    <path d="M 608.0,744.0 L 624.0,770.0 L 705.0,862.0 L 789.0,940.0 L 818.0,953.0 L 941.0,975.0"/>
  </g>
</svg>
