<svg xmlns="http://www.w3.org/2000/svg" viewBox="0 0 1024 1024">
  <g style="fill:none;stroke:#000000;stroke-width:50;stroke-linecap:round;stroke-linejoin:round;" transform="scale(1, 1) translate(0, 0)">
    <path d="M 181.0,275.0 L 261.0,325.0 L 278.0,354.0"/>
    <path d="M 112.0,474.0 L 183.0,530.0 L 198.0,555.0"/>
    <path d="M 158.0,965.0 L 145.0,934.0 L 143.0,887.0 L 265.0,641.0"/>
    <path d="M 558.0,189.0 L 591.0,220.0 L 590.0,333.0 L 576.0,347.0"/>
    <path d="M 620.0,283.0 L 631.0,269.0 L 686.0,255.0 L 722.0,249.0 L 745.0,254.0"/>
    <path d="M 433.0,412.0 L 449.0,394.0 L 597.0,372.0 L 732.0,343.0 L 778.0,340.0 L 796.0,350.0 L 810.0,368.0 L 744.0,441.0"/>
    <path d="M 363.0,368.0 L 395.0,397.0 L 400.0,419.0 L 387.0,589.0 L 367.0,700.0 L 329.0,824.0 L 291.0,903.0 L 215.0,1007.0"/>
    <path d="M 454.0,506.0 L 519.0,501.0 L 652.0,463.0 L 698.0,463.0"/>
    <path d="M 543.0,409.0 L 570.0,442.0 L 564.0,518.0 L 571.0,545.0 L 589.0,560.0 L 624.0,568.0 L 660.0,567.0 L 721.0,552.0 L 734.0,545.0 L 737.0,483.0"/>
    <path d="M 700.0,643.0 L 649.0,630.0 L 610.0,654.0 L 542.0,680.0 L 531.0,678.0 L 515.0,687.0 L 505.0,684.0 L 497.0,691.0"/>
    <path d="M 455.0,713.0 L 511.0,750.0 L 525.0,777.0"/>
    <path d="M 768.0,649.0 L 778.0,678.0 L 718.0,729.0 L 706.0,732.0 L 705.0,740.0"/>
    <path d="M 416.0,844.0 L 461.0,851.0 L 558.0,832.0 L 801.0,800.0 L 880.0,814.0"/>
    <path d="M 595.0,683.0 L 609.0,691.0 L 627.0,719.0 L 646.0,790.0 L 650.0,915.0 L 639.0,983.0 L 625.0,1013.0 L 611.0,1027.0 L 500.0,961.0"/>
  </g>
</svg>
