<svg xmlns="http://www.w3.org/2000/svg" viewBox="0 0 1024 1024">
  <g style="fill:none;stroke:#000000;stroke-width:50;stroke-linecap:round;stroke-linejoin:round;" transform="scale(1, 1) translate(0, 0)">
    <path d="M 174.0,269.0 L 262.0,318.0 L 289.0,356.0"/>
    <path d="M 106.0,504.0 L 190.0,554.0 L 216.0,586.0"/>
    <path d="M 152.0,996.0 L 139.0,964.0 L 137.0,914.0 L 273.0,659.0"/>
    <path d="M 533.0,201.0 L 614.0,238.0 L 640.0,268.0"/>
    <path d="M 421.0,351.0 L 454.0,358.0 L 508.0,352.0 L 724.0,303.0 L 776.0,300.0"/>
    <path d="M 645.0,355.0 L 657.0,365.0 L 658.0,384.0 L 624.0,433.0 L 590.0,468.0 L 546.0,499.0 L 467.0,533.0"/>
    <path d="M 483.0,417.0 L 646.0,468.0 L 684.0,486.0 L 712.0,511.0"/>
    <path d="M 425.0,582.0 L 456.0,592.0 L 493.0,590.0 L 635.0,570.0 L 750.0,546.0 L 813.0,543.0"/>
    <path d="M 367.0,561.0 L 395.0,596.0 L 395.0,616.0 L 372.0,748.0 L 351.0,822.0 L 325.0,892.0 L 295.0,948.0 L 224.0,1032.0"/>
    <path d="M 469.0,665.0 L 489.0,690.0 L 479.0,725.0 L 453.0,781.0 L 408.0,831.0"/>
    <path d="M 490.0,757.0 L 595.0,747.0 L 741.0,713.0 L 780.0,715.0"/>
    <path d="M 486.0,880.0 L 518.0,879.0 L 705.0,838.0 L 739.0,836.0 L 762.0,842.0"/>
    <path d="M 597.0,631.0 L 627.0,669.0 L 626.0,924.0 L 624.0,945.0 L 609.0,962.0"/>
    <path d="M 374.0,1004.0 L 428.0,1012.0 L 555.0,993.0 L 806.0,970.0 L 856.0,977.0 L 887.0,988.0"/>
  </g>
</svg>
