<svg xmlns="http://www.w3.org/2000/svg" viewBox="0 0 1024 1024">
  <g style="fill:none;stroke:#000000;stroke-width:50;stroke-linecap:round;stroke-linejoin:round;" transform="scale(1, 1) translate(0, 0)">
    <path d="M 209.0,264.0 L 285.0,308.0 L 319.0,352.0"/>
    <path d="M 142.0,465.0 L 206.0,502.0 L 225.0,518.0 L 234.0,535.0"/>
    <path d="M 180.0,962.0 L 166.0,923.0 L 164.0,882.0 L 305.0,601.0"/>
    <path d="M 437.0,268.0 L 471.0,275.0 L 509.0,274.0 L 607.0,258.0 L 715.0,231.0 L 767.0,232.0"/>
    <path d="M 368.0,400.0 L 389.0,417.0 L 405.0,447.0 L 436.0,574.0"/>
    <path d="M 415.0,402.0 L 434.0,412.0 L 689.0,366.0 L 759.0,361.0 L 779.0,366.0 L 797.0,385.0 L 802.0,407.0 L 762.0,521.0 L 756.0,529.0 L 734.0,530.0"/>
    <path d="M 483.0,300.0 L 511.0,318.0 L 520.0,333.0 L 538.0,505.0 L 530.0,514.0"/>
    <path d="M 630.0,280.0 L 658.0,294.0 L 663.0,310.0 L 638.0,477.0 L 631.0,493.0 L 620.0,501.0"/>
    <path d="M 455.0,554.0 L 461.0,547.0 L 728.0,509.0"/>
    <path d="M 449.0,631.0 L 476.0,637.0 L 516.0,635.0 L 675.0,604.0 L 716.0,604.0"/>
    <path d="M 330.0,752.0 L 378.0,759.0 L 570.0,725.0 L 819.0,696.0 L 854.0,698.0 L 903.0,712.0"/>
    <path d="M 565.0,749.0 L 593.0,771.0 L 596.0,781.0 L 600.0,931.0 L 595.0,981.0 L 577.0,1013.0 L 541.0,1003.0 L 468.0,969.0"/>
    <path d="M 423.0,834.0 L 399.0,903.0 L 361.0,959.0 L 355.0,978.0"/>
    <path d="M 713.0,827.0 L 814.0,893.0 L 838.0,918.0 L 858.0,962.0"/>
  </g>
</svg>
