<svg xmlns="http://www.w3.org/2000/svg" viewBox="0 0 1024 1024">
  <g style="fill:none;stroke:#000000;stroke-width:50;stroke-linecap:round;stroke-linejoin:round;" transform="scale(1, 1) translate(0, 0)">
    <path d="M 181.0,269.0 L 263.0,324.0 L 290.0,365.0"/>
    <path d="M 105.0,466.0 L 183.0,527.0 L 200.0,555.0"/>
    <path d="M 154.0,983.0 L 142.0,956.0 L 137.0,906.0 L 257.0,645.0"/>
    <path d="M 520.0,194.0 L 599.0,222.0 L 635.0,255.0"/>
    <path d="M 426.0,362.0 L 445.0,374.0 L 526.0,368.0 L 754.0,320.0 L 794.0,320.0"/>
    <path d="M 357.0,349.0 L 380.0,366.0 L 397.0,393.0 L 388.0,573.0 L 365.0,712.0 L 340.0,801.0 L 294.0,907.0 L 242.0,990.0 L 212.0,1025.0"/>
    <path d="M 450.0,525.0 L 479.0,527.0 L 594.0,496.0 L 693.0,477.0 L 733.0,471.0 L 761.0,474.0 L 787.0,503.0 L 743.0,625.0 L 743.0,646.0"/>
    <path d="M 494.0,440.0 L 525.0,470.0 L 529.0,484.0 L 537.0,616.0 L 527.0,624.0"/>
    <path d="M 630.0,377.0 L 647.0,386.0 L 667.0,412.0 L 641.0,576.0 L 633.0,597.0 L 622.0,605.0"/>
    <path d="M 459.0,652.0 L 493.0,654.0 L 695.0,619.0 L 711.0,610.0"/>
    <path d="M 490.0,813.0 L 505.0,801.0 L 551.0,789.0 L 575.0,785.0 L 609.0,790.0"/>
    <path d="M 436.0,715.0 L 467.0,750.0 L 470.0,840.0 L 458.0,930.0 L 462.0,962.0 L 500.0,955.0 L 606.0,891.0"/>
    <path d="M 859.0,748.0 L 826.0,735.0 L 700.0,808.0 L 689.0,820.0"/>
    <path d="M 638.0,675.0 L 674.0,721.0 L 665.0,785.0 L 663.0,871.0 L 667.0,930.0 L 685.0,975.0 L 733.0,992.0 L 785.0,995.0 L 858.0,987.0 L 895.0,974.0 L 905.0,956.0 L 908.0,849.0"/>
  </g>
</svg>
