<svg xmlns="http://www.w3.org/2000/svg" viewBox="0 0 1024 1024">
  <g style="fill:none;stroke:#000000;stroke-width:50;stroke-linecap:round;stroke-linejoin:round;" transform="scale(1, 1) translate(0, 0)">
    <path d="M 182.0,293.0 L 268.0,346.0 L 287.0,376.0"/>
    <path d="M 116.0,488.0 L 180.0,528.0 L 201.0,545.0 L 211.0,563.0"/>
    <path d="M 148.0,964.0 L 133.0,920.0 L 133.0,885.0 L 272.0,620.0"/>
    <path d="M 381.0,348.0 L 404.0,354.0 L 459.0,354.0 L 579.0,334.0 L 733.0,299.0 L 774.0,300.0"/>
    <path d="M 538.0,189.0 L 559.0,204.0 L 575.0,228.0 L 565.0,402.0 L 568.0,517.0"/>
    <path d="M 542.0,367.0 L 480.0,445.0 L 438.0,485.0 L 396.0,516.0 L 324.0,553.0"/>
    <path d="M 645.0,416.0 L 760.0,473.0 L 782.0,494.0 L 795.0,517.0"/>
    <path d="M 584.0,563.0 L 551.0,571.0 L 475.0,661.0 L 385.0,737.0 L 298.0,794.0 L 238.0,819.0"/>
    <path d="M 584.0,596.0 L 593.0,594.0 L 686.0,670.0 L 823.0,754.0 L 881.0,764.0 L 992.0,769.0"/>
    <path d="M 534.0,695.0 L 571.0,736.0 L 572.0,933.0 L 565.0,995.0 L 549.0,1024.0 L 524.0,1017.0 L 457.0,982.0"/>
    <path d="M 402.0,775.0 L 460.0,819.0"/>
    <path d="M 317.0,967.0 L 361.0,964.0 L 451.0,894.0 L 484.0,859.0"/>
    <path d="M 683.0,745.0 L 691.0,770.0 L 620.0,828.0"/>
    <path d="M 629.0,881.0 L 748.0,955.0 L 780.0,1003.0"/>
  </g>
</svg>
