<svg xmlns="http://www.w3.org/2000/svg" viewBox="0 0 1024 1024">
  <g style="fill:none;stroke:#000000;stroke-width:50;stroke-linecap:round;stroke-linejoin:round;" transform="scale(1, 1) translate(0, 0)">
    <path d="M 207.0,270.0 L 284.0,318.0 L 304.0,351.0"/>
    <path d="M 133.0,481.0 L 202.0,530.0 L 223.0,556.0"/>
    <path d="M 188.0,977.0 L 174.0,941.0 L 171.0,900.0 L 293.0,645.0"/>
    <path d="M 539.0,181.0 L 625.0,232.0 L 646.0,264.0"/>
    <path d="M 383.0,340.0 L 395.0,372.0 L 384.0,409.0 L 355.0,466.0 L 347.0,521.0"/>
    <path d="M 420.0,397.0 L 436.0,385.0 L 563.0,356.0 L 792.0,320.0 L 828.0,334.0 L 844.0,355.0 L 785.0,438.0"/>
    <path d="M 484.0,477.0 L 507.0,483.0 L 545.0,481.0 L 673.0,450.0 L 712.0,451.0"/>
    <path d="M 386.0,594.0 L 407.0,610.0 L 421.0,633.0 L 464.0,818.0"/>
    <path d="M 434.0,594.0 L 455.0,603.0 L 709.0,556.0 L 744.0,556.0 L 772.0,564.0 L 796.0,594.0 L 758.0,729.0 L 736.0,781.0 L 740.0,805.0"/>
    <path d="M 512.0,689.0 L 645.0,665.0 L 674.0,663.0 L 695.0,669.0"/>
    <path d="M 565.0,505.0 L 587.0,516.0 L 599.0,532.0 L 597.0,739.0 L 581.0,762.0"/>
    <path d="M 482.0,806.0 L 513.0,794.0 L 630.0,777.0 L 683.0,773.0 L 693.0,782.0"/>
    <path d="M 535.0,890.0 L 505.0,894.0 L 472.0,935.0 L 405.0,995.0 L 335.0,1034.0"/>
    <path d="M 674.0,872.0 L 790.0,956.0 L 812.0,987.0 L 825.0,1022.0"/>
  </g>
</svg>
