<svg xmlns="http://www.w3.org/2000/svg" viewBox="0 0 1024 1024">
  <g style="fill:none;stroke:#000000;stroke-width:50;stroke-linecap:round;stroke-linejoin:round;" transform="scale(1, 1) translate(0, 0)">
    <path d="M 182.0,287.0 L 258.0,328.0 L 291.0,368.0"/>
    <path d="M 108.0,481.0 L 184.0,537.0 L 199.0,560.0"/>
    <path d="M 180.0,981.0 L 164.0,935.0 L 163.0,902.0 L 277.0,665.0"/>
    <path d="M 358.0,353.0 L 378.0,358.0 L 419.0,356.0 L 753.0,305.0 L 819.0,307.0 L 842.0,316.0"/>
    <path d="M 444.0,252.0 L 481.0,277.0 L 508.0,418.0"/>
    <path d="M 657.0,174.0 L 671.0,180.0 L 691.0,209.0 L 659.0,321.0 L 627.0,405.0"/>
    <path d="M 387.0,470.0 L 414.0,491.0 L 423.0,508.0 L 468.0,681.0"/>
    <path d="M 441.0,471.0 L 461.0,480.0 L 656.0,438.0 L 719.0,439.0 L 746.0,472.0 L 692.0,645.0 L 695.0,664.0"/>
    <path d="M 470.0,583.0 L 500.0,569.0 L 588.0,552.0 L 626.0,547.0 L 645.0,551.0"/>
    <path d="M 486.0,668.0 L 495.0,657.0 L 646.0,635.0 L 661.0,627.0"/>
    <path d="M 306.0,808.0 L 362.0,815.0 L 622.0,776.0 L 833.0,755.0 L 871.0,760.0 L 908.0,773.0"/>
    <path d="M 522.0,674.0 L 548.0,688.0 L 562.0,708.0 L 544.0,819.0 L 511.0,891.0 L 481.0,931.0 L 445.0,962.0 L 401.0,989.0 L 309.0,1020.0"/>
    <path d="M 579.0,808.0 L 687.0,924.0 L 781.0,1002.0 L 929.0,1024.0"/>
  </g>
</svg>
