<svg xmlns="http://www.w3.org/2000/svg" viewBox="0 0 1024 1024">
  <g style="fill:none;stroke:#000000;stroke-width:50;stroke-linecap:round;stroke-linejoin:round;" transform="scale(1, 1) translate(0, 0)">
    <path d="M 213.0,257.0 L 292.0,316.0 L 314.0,359.0"/>
    <path d="M 124.0,435.0 L 188.0,498.0 L 205.0,531.0"/>
    <path d="M 209.0,976.0 L 194.0,947.0 L 185.0,896.0 L 281.0,637.0"/>
    <path d="M 427.0,242.0 L 452.0,262.0 L 463.0,281.0 L 504.0,437.0"/>
    <path d="M 472.0,242.0 L 495.0,251.0 L 551.0,237.0 L 690.0,217.0 L 725.0,227.0 L 744.0,255.0 L 687.0,408.0"/>
    <path d="M 503.0,342.0 L 515.0,330.0 L 554.0,320.0 L 628.0,307.0 L 648.0,312.0"/>
    <path d="M 520.0,419.0 L 552.0,405.0 L 633.0,394.0 L 654.0,393.0 L 664.0,401.0"/>
    <path d="M 347.0,512.0 L 380.0,537.0 L 423.0,673.0"/>
    <path d="M 405.0,512.0 L 427.0,522.0 L 553.0,493.0 L 689.0,472.0 L 759.0,464.0 L 790.0,468.0 L 804.0,475.0 L 823.0,504.0 L 775.0,613.0 L 777.0,634.0"/>
    <path d="M 501.0,528.0 L 511.0,533.0 L 527.0,600.0 L 536.0,607.0"/>
    <path d="M 677.0,516.0 L 650.0,523.0 L 628.0,588.0 L 617.0,596.0"/>
    <path d="M 440.0,637.0 L 449.0,643.0 L 535.0,632.0 L 718.0,603.0 L 742.0,594.0"/>
    <path d="M 444.0,728.0 L 488.0,727.0 L 650.0,686.0 L 664.0,691.0 L 685.0,714.0 L 667.0,775.0 L 635.0,843.0 L 571.0,915.0 L 530.0,940.0 L 462.0,966.0 L 361.0,992.0 L 322.0,994.0"/>
    <path d="M 453.0,782.0 L 493.0,796.0 L 622.0,910.0 L 711.0,972.0 L 770.0,1004.0 L 788.0,1010.0 L 939.0,1006.0"/>
  </g>
</svg>
