<svg xmlns="http://www.w3.org/2000/svg" viewBox="0 0 1024 1024">
  <g style="fill:none;stroke:#000000;stroke-width:50;stroke-linecap:round;stroke-linejoin:round;" transform="scale(1, 1) translate(0, 0)">
    <path d="M 202.0,253.0 L 284.0,307.0 L 308.0,347.0"/>
    <path d="M 121.0,458.0 L 199.0,512.0 L 215.0,529.0 L 220.0,546.0"/>
    <path d="M 190.0,988.0 L 176.0,958.0 L 169.0,905.0 L 285.0,645.0"/>
    <path d="M 371.0,330.0 L 395.0,337.0 L 427.0,336.0 L 727.0,280.0 L 766.0,276.0 L 807.0,283.0"/>
    <path d="M 453.0,228.0 L 473.0,236.0 L 492.0,253.0 L 517.0,458.0"/>
    <path d="M 637.0,171.0 L 673.0,213.0 L 647.0,368.0 L 630.0,384.0"/>
    <path d="M 533.0,446.0 L 547.0,429.0 L 602.0,415.0 L 667.0,408.0 L 687.0,416.0"/>
    <path d="M 380.0,523.0 L 411.0,547.0 L 448.0,682.0"/>
    <path d="M 444.0,552.0 L 452.0,539.0 L 726.0,484.0 L 748.0,492.0 L 770.0,518.0 L 748.0,565.0 L 720.0,584.0"/>
    <path d="M 464.0,661.0 L 474.0,652.0 L 509.0,644.0 L 709.0,610.0 L 765.0,608.0 L 783.0,616.0"/>
    <path d="M 438.0,748.0 L 518.0,739.0 L 665.0,707.0 L 706.0,704.0 L 730.0,710.0"/>
    <path d="M 310.0,856.0 L 365.0,862.0 L 511.0,835.0 L 811.0,796.0 L 892.0,813.0"/>
    <path d="M 536.0,457.0 L 567.0,464.0 L 587.0,482.0 L 580.0,747.0 L 571.0,807.0 L 556.0,856.0 L 533.0,897.0 L 512.0,920.0 L 460.0,958.0 L 367.0,1000.0 L 308.0,1014.0"/>
    <path d="M 601.0,855.0 L 619.0,855.0 L 689.0,923.0 L 774.0,982.0 L 811.0,992.0 L 947.0,1008.0"/>
  </g>
</svg>
