<svg xmlns="http://www.w3.org/2000/svg" viewBox="0 0 1024 1024">
  <g style="fill:none;stroke:#000000;stroke-width:50;stroke-linecap:round;stroke-linejoin:round;" transform="scale(1, 1) translate(0, 0)">
    <path d="M 197.0,277.0 L 275.0,329.0 L 302.0,369.0"/>
    <path d="M 125.0,473.0 L 194.0,522.0 L 215.0,548.0"/>
    <path d="M 177.0,980.0 L 165.0,947.0 L 163.0,896.0 L 312.0,622.0"/>
    <path d="M 376.0,258.0 L 402.0,279.0 L 411.0,299.0 L 460.0,501.0"/>
    <path d="M 436.0,257.0 L 449.0,270.0 L 515.0,255.0 L 711.0,229.0 L 768.0,236.0 L 797.0,271.0 L 773.0,330.0 L 735.0,464.0"/>
    <path d="M 500.0,370.0 L 637.0,346.0 L 680.0,351.0"/>
    <path d="M 557.0,271.0 L 581.0,285.0 L 586.0,298.0 L 585.0,422.0 L 582.0,435.0 L 571.0,444.0"/>
    <path d="M 476.0,487.0 L 497.0,476.0 L 638.0,457.0 L 700.0,452.0 L 709.0,461.0"/>
    <path d="M 545.0,492.0 L 565.0,518.0 L 526.0,569.0 L 486.0,605.0 L 478.0,628.0 L 501.0,635.0 L 542.0,634.0 L 608.0,622.0"/>
    <path d="M 706.0,518.0 L 714.0,556.0 L 616.0,643.0 L 484.0,737.0 L 468.0,769.0 L 491.0,775.0 L 653.0,737.0 L 729.0,730.0"/>
    <path d="M 715.0,674.0 L 778.0,735.0 L 793.0,770.0"/>
    <path d="M 570.0,777.0 L 594.0,791.0 L 603.0,816.0 L 604.0,944.0 L 597.0,995.0 L 583.0,1020.0 L 538.0,1008.0 L 488.0,985.0"/>
    <path d="M 406.0,853.0 L 384.0,907.0 L 332.0,987.0"/>
    <path d="M 741.0,838.0 L 803.0,897.0 L 841.0,943.0 L 858.0,985.0 L 858.0,1007.0"/>
  </g>
</svg>
