<svg xmlns="http://www.w3.org/2000/svg" viewBox="0 0 1024 1024">
  <g style="fill:none;stroke:#000000;stroke-width:50;stroke-linecap:round;stroke-linejoin:round;" transform="scale(1, 1) translate(0, 0)">
    <path d="M 165.0,283.0 L 245.0,333.0 L 262.0,362.0"/>
    <path d="M 95.0,496.0 L 159.0,539.0 L 186.0,564.0 L 189.0,574.0"/>
    <path d="M 142.0,969.0 L 132.0,938.0 L 131.0,897.0 L 261.0,652.0"/>
    <path d="M 416.0,268.0 L 442.0,300.0 L 426.0,349.0 L 395.0,412.0 L 359.0,471.0 L 322.0,517.0 L 238.0,595.0"/>
    <path d="M 451.0,375.0 L 464.0,373.0 L 515.0,402.0 L 532.0,414.0 L 546.0,436.0"/>
    <path d="M 335.0,567.0 L 383.0,569.0 L 496.0,534.0 L 533.0,535.0"/>
    <path d="M 286.0,711.0 L 329.0,714.0 L 492.0,670.0 L 549.0,671.0"/>
    <path d="M 416.0,589.0 L 440.0,609.0 L 442.0,847.0 L 437.0,909.0 L 420.0,941.0 L 343.0,901.0"/>
    <path d="M 317.0,794.0 L 304.0,846.0 L 261.0,936.0"/>
    <path d="M 505.0,777.0 L 551.0,833.0 L 559.0,855.0"/>
    <path d="M 658.0,259.0 L 682.0,275.0 L 696.0,296.0 L 686.0,342.0 L 665.0,407.0 L 621.0,508.0 L 560.0,607.0"/>
    <path d="M 626.0,540.0 L 705.0,530.0 L 839.0,486.0 L 877.0,488.0"/>
    <path d="M 729.0,557.0 L 756.0,574.0 L 753.0,645.0 L 732.0,753.0 L 702.0,829.0 L 672.0,875.0 L 624.0,918.0 L 565.0,953.0 L 537.0,961.0"/>
    <path d="M 589.0,668.0 L 622.0,682.0 L 738.0,851.0 L 819.0,942.0 L 888.0,967.0 L 961.0,982.0"/>
  </g>
</svg>
