<svg xmlns="http://www.w3.org/2000/svg" viewBox="0 0 1024 1024">
  <g style="fill:none;stroke:#000000;stroke-width:50;stroke-linecap:round;stroke-linejoin:round;" transform="scale(1, 1) translate(0, 0)">
    <path d="M 197.0,276.0 L 268.0,324.0 L 294.0,366.0"/>
    <path d="M 124.0,465.0 L 203.0,521.0 L 219.0,544.0"/>
    <path d="M 166.0,981.0 L 155.0,953.0 L 152.0,903.0 L 285.0,636.0"/>
    <path d="M 382.0,335.0 L 414.0,359.0 L 455.0,501.0"/>
    <path d="M 446.0,359.0 L 457.0,343.0 L 472.0,339.0 L 694.0,304.0 L 718.0,308.0 L 742.0,340.0 L 718.0,386.0 L 690.0,399.0"/>
    <path d="M 470.0,458.0 L 488.0,464.0 L 685.0,427.0 L 739.0,434.0"/>
    <path d="M 372.0,548.0 L 402.0,574.0 L 444.0,730.0"/>
    <path d="M 426.0,552.0 L 448.0,561.0 L 644.0,524.0 L 723.0,517.0 L 746.0,535.0 L 755.0,556.0 L 731.0,600.0 L 700.0,614.0"/>
    <path d="M 456.0,669.0 L 470.0,680.0 L 688.0,645.0 L 761.0,652.0"/>
    <path d="M 536.0,190.0 L 571.0,226.0 L 563.0,750.0"/>
    <path d="M 356.0,796.0 L 345.0,854.0 L 305.0,957.0"/>
    <path d="M 435.0,797.0 L 471.0,882.0 L 504.0,924.0 L 548.0,955.0 L 631.0,983.0 L 760.0,997.0 L 790.0,993.0 L 823.0,975.0 L 810.0,942.0 L 758.0,861.0"/>
    <path d="M 559.0,798.0 L 617.0,833.0 L 637.0,867.0"/>
    <path d="M 754.0,749.0 L 847.0,797.0 L 878.0,843.0"/>
  </g>
</svg>
