<svg xmlns="http://www.w3.org/2000/svg" viewBox="0 0 1024 1024">
  <g style="fill:none;stroke:#000000;stroke-width:50;stroke-linecap:round;stroke-linejoin:round;" transform="scale(1, 1) translate(0, 0)">
    <path d="M 181.0,264.0 L 252.0,312.0 L 278.0,354.0"/>
    <path d="M 105.0,498.0 L 168.0,546.0 L 184.0,575.0"/>
    <path d="M 141.0,997.0 L 133.0,964.0 L 137.0,915.0 L 312.0,664.0"/>
    <path d="M 595.0,190.0 L 630.0,225.0 L 616.0,342.0 L 601.0,358.0"/>
    <path d="M 419.0,260.0 L 443.0,295.0 L 445.0,309.0 L 430.0,416.0 L 475.0,415.0 L 618.0,378.0 L 743.0,361.0 L 761.0,345.0"/>
    <path d="M 784.0,237.0 L 811.0,279.0 L 783.0,380.0 L 776.0,427.0"/>
    <path d="M 540.0,472.0 L 512.0,486.0 L 478.0,562.0 L 408.0,664.0 L 362.0,717.0 L 315.0,756.0"/>
    <path d="M 455.0,643.0 L 469.0,690.0 L 465.0,897.0 L 451.0,1009.0 L 457.0,1070.0"/>
    <path d="M 595.0,469.0 L 655.0,503.0 L 677.0,534.0"/>
    <path d="M 528.0,587.0 L 558.0,592.0 L 615.0,587.0 L 752.0,549.0 L 807.0,549.0"/>
    <path d="M 551.0,709.0 L 623.0,698.0 L 744.0,668.0 L 776.0,673.0"/>
    <path d="M 547.0,809.0 L 577.0,807.0 L 740.0,766.0 L 780.0,769.0"/>
    <path d="M 635.0,606.0 L 661.0,627.0 L 663.0,649.0 L 658.0,861.0 L 642.0,883.0"/>
    <path d="M 496.0,915.0 L 506.0,926.0 L 524.0,927.0 L 818.0,891.0 L 851.0,894.0 L 897.0,909.0"/>
  </g>
</svg>
