<svg xmlns="http://www.w3.org/2000/svg" viewBox="0 0 1024 1024">
  <g style="fill:none;stroke:#000000;stroke-width:50;stroke-linecap:round;stroke-linejoin:round;" transform="scale(1, 1) translate(0, 0)">
    <path d="M 171.0,300.0 L 237.0,353.0 L 259.0,396.0"/>
    <path d="M 98.0,501.0 L 166.0,553.0 L 181.0,581.0"/>
    <path d="M 148.0,995.0 L 134.0,958.0 L 130.0,919.0 L 157.0,870.0 L 254.0,641.0"/>
    <path d="M 379.0,278.0 L 401.0,300.0 L 409.0,320.0 L 351.0,450.0 L 295.0,551.0 L 291.0,572.0 L 371.0,571.0 L 405.0,559.0"/>
    <path d="M 465.0,435.0 L 484.0,465.0 L 422.0,575.0 L 402.0,596.0 L 344.0,685.0 L 339.0,719.0 L 371.0,719.0 L 491.0,671.0"/>
    <path d="M 257.0,889.0 L 304.0,893.0 L 449.0,810.0 L 499.0,775.0"/>
    <path d="M 639.0,246.0 L 662.0,268.0 L 672.0,287.0 L 651.0,344.0 L 569.0,502.0 L 534.0,556.0 L 501.0,591.0"/>
    <path d="M 577.0,531.0 L 579.0,558.0 L 592.0,579.0 L 596.0,638.0 L 593.0,839.0 L 574.0,1014.0 L 582.0,1074.0"/>
    <path d="M 727.0,330.0 L 785.0,365.0 L 805.0,399.0"/>
    <path d="M 664.0,521.0 L 718.0,524.0 L 846.0,488.0 L 884.0,487.0"/>
    <path d="M 666.0,660.0 L 702.0,663.0 L 831.0,627.0 L 868.0,625.0"/>
    <path d="M 658.0,768.0 L 721.0,767.0 L 830.0,734.0 L 867.0,733.0"/>
    <path d="M 734.0,545.0 L 761.0,563.0 L 764.0,583.0 L 765.0,845.0 L 749.0,867.0"/>
    <path d="M 613.0,927.0 L 653.0,910.0 L 847.0,878.0 L 903.0,878.0 L 947.0,889.0"/>
  </g>
</svg>
