<svg xmlns="http://www.w3.org/2000/svg" viewBox="0 0 1024 1024">
  <g style="fill:none;stroke:#000000;stroke-width:50;stroke-linecap:round;stroke-linejoin:round;" transform="scale(1, 1) translate(0, 0)">
    <path d="M 161.0,277.0 L 230.0,327.0 L 254.0,368.0"/>
    <path d="M 105.0,466.0 L 164.0,512.0 L 186.0,535.0 L 192.0,551.0"/>
    <path d="M 166.0,991.0 L 150.0,961.0 L 142.0,911.0 L 249.0,641.0"/>
    <path d="M 371.0,315.0 L 411.0,319.0 L 512.0,293.0 L 549.0,292.0"/>
    <path d="M 308.0,366.0 L 328.0,391.0 L 307.0,473.0 L 310.0,488.0 L 344.0,488.0 L 494.0,447.0 L 546.0,452.0"/>
    <path d="M 412.0,340.0 L 434.0,363.0 L 403.0,499.0 L 353.0,605.0 L 316.0,653.0 L 285.0,682.0"/>
    <path d="M 456.0,505.0 L 479.0,536.0 L 472.0,599.0 L 475.0,631.0 L 514.0,613.0 L 546.0,584.0 L 563.0,577.0 L 565.0,566.0 L 577.0,565.0 L 583.0,557.0"/>
    <path d="M 632.0,294.0 L 703.0,294.0 L 787.0,271.0 L 829.0,269.0"/>
    <path d="M 576.0,331.0 L 603.0,368.0 L 595.0,448.0 L 613.0,456.0 L 812.0,410.0 L 861.0,418.0"/>
    <path d="M 677.0,320.0 L 701.0,338.0 L 709.0,352.0 L 694.0,460.0 L 679.0,513.0 L 631.0,601.0 L 587.0,640.0 L 551.0,658.0"/>
    <path d="M 735.0,494.0 L 753.0,523.0 L 746.0,594.0 L 750.0,625.0 L 779.0,647.0 L 815.0,655.0 L 899.0,648.0 L 936.0,625.0 L 938.0,516.0"/>
    <path d="M 423.0,733.0 L 439.0,751.0 L 449.0,781.0 L 446.0,908.0 L 438.0,965.0 L 441.0,1035.0"/>
    <path d="M 474.0,746.0 L 486.0,757.0 L 674.0,717.0 L 701.0,732.0 L 717.0,753.0 L 717.0,962.0 L 703.0,1005.0 L 705.0,1067.0"/>
    <path d="M 473.0,867.0 L 487.0,856.0 L 562.0,845.0 L 591.0,843.0 L 622.0,850.0"/>
    <path d="M 466.0,1000.0 L 486.0,984.0 L 603.0,969.0 L 653.0,969.0"/>
  </g>
</svg>
