<svg xmlns="http://www.w3.org/2000/svg" viewBox="0 0 1024 1024">
  <g style="fill:none;stroke:#000000;stroke-width:50;stroke-linecap:round;stroke-linejoin:round;" transform="scale(1, 1) translate(0, 0)">
    <path d="M 195.0,273.0 L 281.0,324.0 L 302.0,356.0"/>
    <path d="M 131.0,505.0 L 194.0,547.0 L 219.0,580.0"/>
    <path d="M 188.0,984.0 L 173.0,945.0 L 169.0,903.0 L 192.0,863.0 L 285.0,649.0"/>
    <path d="M 408.0,346.0 L 482.0,346.0 L 589.0,322.0 L 712.0,282.0 L 759.0,282.0"/>
    <path d="M 537.0,189.0 L 557.0,204.0 L 571.0,230.0 L 550.0,359.0 L 513.0,458.0 L 486.0,502.0 L 437.0,560.0 L 376.0,603.0 L 319.0,630.0"/>
    <path d="M 578.0,367.0 L 587.0,388.0 L 643.0,435.0 L 752.0,515.0 L 815.0,552.0 L 869.0,566.0 L 996.0,574.0"/>
    <path d="M 353.0,441.0 L 399.0,477.0 L 414.0,500.0"/>
    <path d="M 815.0,388.0 L 781.0,380.0 L 722.0,444.0 L 713.0,442.0"/>
    <path d="M 418.0,605.0 L 443.0,617.0 L 480.0,794.0"/>
    <path d="M 466.0,591.0 L 487.0,594.0 L 655.0,561.0 L 685.0,565.0 L 708.0,583.0 L 715.0,594.0 L 676.0,749.0 L 667.0,760.0 L 647.0,763.0"/>
    <path d="M 484.0,689.0 L 495.0,679.0 L 547.0,666.0 L 602.0,659.0 L 623.0,665.0"/>
    <path d="M 497.0,769.0 L 526.0,756.0 L 636.0,744.0"/>
    <path d="M 549.0,775.0 L 571.0,795.0 L 582.0,824.0 L 583.0,960.0 L 573.0,1004.0 L 564.0,1017.0 L 543.0,1014.0 L 468.0,985.0"/>
    <path d="M 416.0,848.0 L 388.0,922.0 L 346.0,996.0"/>
    <path d="M 702.0,848.0 L 808.0,926.0 L 833.0,982.0"/>
  </g>
</svg>
