<svg xmlns="http://www.w3.org/2000/svg" viewBox="0 0 1024 1024">
  <g style="fill:none;stroke:#000000;stroke-width:50;stroke-linecap:round;stroke-linejoin:round;" transform="scale(1, 1) translate(0, 0)">
    <path d="M 172.0,293.0 L 239.0,338.0 L 262.0,378.0"/>
    <path d="M 112.0,488.0 L 171.0,542.0 L 190.0,577.0"/>
    <path d="M 188.0,995.0 L 173.0,965.0 L 166.0,914.0 L 277.0,641.0"/>
    <path d="M 321.0,314.0 L 358.0,359.0 L 362.0,417.0 L 356.0,726.0 L 349.0,823.0 L 333.0,904.0 L 331.0,975.0"/>
    <path d="M 380.0,329.0 L 398.0,335.0 L 495.0,311.0 L 524.0,336.0 L 506.0,538.0 L 499.0,552.0 L 480.0,550.0"/>
    <path d="M 389.0,456.0 L 394.0,445.0 L 408.0,437.0 L 457.0,437.0"/>
    <path d="M 381.0,561.0 L 420.0,543.0 L 476.0,530.0"/>
    <path d="M 624.0,252.0 L 648.0,282.0 L 656.0,304.0 L 655.0,433.0 L 663.0,509.0"/>
    <path d="M 670.0,272.0 L 692.0,279.0 L 792.0,251.0 L 812.0,256.0 L 839.0,283.0 L 836.0,360.0 L 846.0,750.0 L 842.0,947.0 L 823.0,980.0 L 794.0,973.0 L 714.0,932.0"/>
    <path d="M 685.0,396.0 L 692.0,384.0 L 725.0,376.0 L 772.0,380.0"/>
    <path d="M 680.0,496.0 L 694.0,484.0 L 779.0,471.0 L 807.0,479.0"/>
    <path d="M 483.0,638.0 L 534.0,642.0 L 644.0,614.0 L 681.0,614.0"/>
    <path d="M 491.0,736.0 L 562.0,736.0 L 637.0,713.0 L 672.0,713.0"/>
    <path d="M 597.0,652.0 L 582.0,671.0 L 580.0,795.0 L 565.0,814.0"/>
    <path d="M 433.0,853.0 L 456.0,856.0 L 685.0,818.0 L 746.0,829.0"/>
  </g>
</svg>
