<svg xmlns="http://www.w3.org/2000/svg" viewBox="0 0 1024 1024">
  <g style="fill:none;stroke:#000000;stroke-width:50;stroke-linecap:round;stroke-linejoin:round;" transform="scale(1, 1) translate(0, 0)">
    <path d="M 176.0,304.0 L 253.0,366.0 L 268.0,397.0"/>
    <path d="M 114.0,488.0 L 184.0,536.0 L 200.0,560.0"/>
    <path d="M 175.0,967.0 L 161.0,939.0 L 154.0,889.0 L 257.0,649.0"/>
    <path d="M 331.0,383.0 L 351.0,387.0 L 404.0,382.0 L 523.0,346.0 L 564.0,345.0"/>
    <path d="M 419.0,235.0 L 453.0,268.0 L 430.0,451.0 L 424.0,470.0 L 413.0,479.0"/>
    <path d="M 293.0,502.0 L 314.0,522.0 L 323.0,543.0 L 353.0,711.0"/>
    <path d="M 348.0,526.0 L 357.0,515.0 L 483.0,480.0 L 504.0,478.0 L 539.0,490.0 L 554.0,513.0 L 523.0,650.0 L 512.0,666.0 L 490.0,657.0"/>
    <path d="M 364.0,610.0 L 369.0,600.0 L 402.0,590.0 L 446.0,584.0 L 465.0,588.0"/>
    <path d="M 370.0,694.0 L 379.0,683.0 L 453.0,668.0 L 468.0,667.0 L 482.0,675.0"/>
    <path d="M 242.0,833.0 L 273.0,839.0 L 302.0,836.0 L 506.0,776.0 L 559.0,775.0"/>
    <path d="M 398.0,697.0 L 419.0,716.0 L 420.0,724.0 L 412.0,940.0 L 421.0,1009.0"/>
    <path d="M 619.0,358.0 L 646.0,375.0 L 661.0,401.0 L 668.0,589.0 L 655.0,728.0 L 622.0,832.0 L 594.0,885.0 L 521.0,977.0 L 473.0,1012.0"/>
    <path d="M 690.0,366.0 L 703.0,376.0 L 811.0,346.0 L 835.0,360.0 L 849.0,378.0 L 852.0,824.0 L 846.0,968.0 L 828.0,1000.0 L 797.0,993.0 L 719.0,959.0"/>
    <path d="M 700.0,562.0 L 711.0,544.0 L 724.0,539.0 L 749.0,534.0 L 785.0,537.0"/>
    <path d="M 686.0,701.0 L 702.0,686.0 L 734.0,677.0 L 792.0,678.0"/>
  </g>
</svg>
