<svg xmlns="http://www.w3.org/2000/svg" viewBox="0 0 1024 1024">
  <g style="fill:none;stroke:#000000;stroke-width:50;stroke-linecap:round;stroke-linejoin:round;" transform="scale(1, 1) translate(0, 0)">
    <path d="M 210.0,242.0 L 289.0,306.0 L 312.0,352.0"/>
    <path d="M 123.0,465.0 L 186.0,510.0 L 211.0,547.0"/>
    <path d="M 199.0,971.0 L 184.0,943.0 L 176.0,885.0 L 289.0,617.0"/>
    <path d="M 485.0,250.0 L 529.0,251.0 L 699.0,205.0 L 727.0,210.0 L 756.0,241.0 L 716.0,376.0 L 689.0,393.0"/>
    <path d="M 483.0,350.0 L 533.0,351.0 L 616.0,324.0 L 665.0,319.0"/>
    <path d="M 443.0,459.0 L 470.0,465.0 L 499.0,463.0 L 677.0,421.0 L 748.0,423.0"/>
    <path d="M 359.0,578.0 L 417.0,578.0 L 507.0,551.0 L 537.0,551.0"/>
    <path d="M 471.0,588.0 L 451.0,611.0 L 451.0,649.0 L 432.0,672.0"/>
    <path d="M 341.0,704.0 L 394.0,713.0 L 564.0,644.0"/>
    <path d="M 585.0,512.0 L 616.0,540.0 L 644.0,652.0"/>
    <path d="M 645.0,533.0 L 650.0,524.0 L 738.0,500.0 L 771.0,503.0 L 789.0,524.0 L 786.0,536.0 L 773.0,566.0 L 747.0,583.0"/>
    <path d="M 659.0,631.0 L 675.0,619.0 L 745.0,606.0 L 799.0,610.0"/>
    <path d="M 301.0,823.0 L 358.0,830.0 L 530.0,797.0 L 825.0,757.0 L 883.0,756.0 L 944.0,770.0"/>
    <path d="M 634.0,681.0 L 681.0,729.0 L 678.0,1018.0 L 663.0,1049.0 L 563.0,1016.0 L 559.0,1008.0 L 543.0,1007.0"/>
    <path d="M 432.0,867.0 L 496.0,920.0 L 507.0,948.0"/>
  </g>
</svg>
