<svg xmlns="http://www.w3.org/2000/svg" viewBox="0 0 1024 1024">
  <g style="fill:none;stroke:#000000;stroke-width:50;stroke-linecap:round;stroke-linejoin:round;" transform="scale(1, 1) translate(0, 0)">
    <path d="M 157.0,277.0 L 236.0,332.0 L 262.0,374.0"/>
    <path d="M 88.0,478.0 L 153.0,523.0 L 173.0,541.0 L 184.0,561.0"/>
    <path d="M 165.0,987.0 L 151.0,959.0 L 144.0,904.0 L 253.0,649.0"/>
    <path d="M 556.0,312.0 L 495.0,309.0 L 431.0,359.0 L 368.0,394.0 L 325.0,410.0 L 317.0,420.0 L 300.0,420.0 L 291.0,430.0"/>
    <path d="M 262.0,553.0 L 286.0,558.0 L 322.0,555.0 L 498.0,510.0 L 552.0,514.0"/>
    <path d="M 400.0,399.0 L 437.0,425.0 L 417.0,1011.0"/>
    <path d="M 407.0,564.0 L 390.0,641.0 L 377.0,667.0 L 316.0,766.0 L 252.0,849.0"/>
    <path d="M 455.0,625.0 L 517.0,675.0 L 534.0,713.0"/>
    <path d="M 684.0,246.0 L 725.0,280.0 L 720.0,493.0 L 718.0,514.0 L 702.0,533.0"/>
    <path d="M 579.0,397.0 L 627.0,446.0 L 642.0,472.0"/>
    <path d="M 836.0,314.0 L 858.0,345.0 L 765.0,458.0"/>
    <path d="M 586.0,556.0 L 614.0,587.0 L 618.0,635.0 L 603.0,838.0 L 586.0,908.0 L 583.0,953.0"/>
    <path d="M 632.0,561.0 L 649.0,568.0 L 673.0,565.0 L 795.0,534.0 L 835.0,562.0 L 831.0,617.0 L 847.0,864.0 L 843.0,941.0 L 817.0,985.0 L 792.0,979.0 L 717.0,937.0"/>
    <path d="M 639.0,685.0 L 652.0,674.0 L 701.0,662.0 L 759.0,666.0"/>
    <path d="M 633.0,790.0 L 646.0,779.0 L 714.0,767.0 L 759.0,774.0"/>
  </g>
</svg>
