<svg xmlns="http://www.w3.org/2000/svg" viewBox="0 0 1024 1024">
  <g style="fill:none;stroke:#000000;stroke-width:50;stroke-linecap:round;stroke-linejoin:round;" transform="scale(1, 1) translate(0, 0)">
    <path d="M 189.0,262.0 L 261.0,324.0 L 281.0,368.0"/>
    <path d="M 121.0,486.0 L 191.0,544.0 L 203.0,571.0"/>
    <path d="M 156.0,969.0 L 142.0,933.0 L 139.0,892.0 L 245.0,669.0"/>
    <path d="M 365.0,283.0 L 402.0,288.0 L 486.0,259.0 L 511.0,262.0 L 526.0,278.0 L 482.0,405.0 L 440.0,482.0 L 361.0,569.0 L 316.0,602.0 L 272.0,621.0"/>
    <path d="M 354.0,389.0 L 409.0,431.0 L 421.0,458.0"/>
    <path d="M 729.0,235.0 L 695.0,235.0 L 665.0,275.0 L 636.0,301.0 L 636.0,312.0"/>
    <path d="M 827.0,324.0 L 796.0,315.0 L 703.0,385.0"/>
    <path d="M 582.0,306.0 L 620.0,330.0 L 741.0,477.0 L 817.0,543.0 L 863.0,563.0 L 974.0,579.0"/>
    <path d="M 483.0,524.0 L 533.0,527.0 L 617.0,507.0 L 666.0,507.0"/>
    <path d="M 398.0,626.0 L 436.0,670.0 L 467.0,793.0"/>
    <path d="M 411.0,617.0 L 466.0,636.0 L 562.0,625.0 L 639.0,607.0 L 665.0,610.0 L 698.0,645.0 L 677.0,693.0 L 644.0,719.0"/>
    <path d="M 488.0,780.0 L 496.0,768.0 L 513.0,763.0 L 641.0,745.0 L 683.0,745.0 L 706.0,753.0"/>
    <path d="M 413.0,825.0 L 457.0,868.0 L 482.0,911.0"/>
    <path d="M 647.0,791.0 L 658.0,799.0 L 671.0,835.0 L 623.0,911.0 L 591.0,942.0"/>
    <path d="M 306.0,979.0 L 365.0,990.0 L 539.0,968.0 L 770.0,952.0 L 855.0,974.0"/>
  </g>
</svg>
