<svg xmlns="http://www.w3.org/2000/svg" viewBox="0 0 1024 1024">
  <g style="fill:none;stroke:#000000;stroke-width:50;stroke-linecap:round;stroke-linejoin:round;" transform="scale(1, 1) translate(0, 0)">
    <path d="M 205.0,277.0 L 274.0,327.0 L 298.0,371.0"/>
    <path d="M 88.0,489.0 L 164.0,540.0 L 180.0,562.0"/>
    <path d="M 174.0,973.0 L 160.0,947.0 L 153.0,897.0 L 258.0,640.0"/>
    <path d="M 463.0,323.0 L 500.0,328.0 L 541.0,322.0 L 652.0,287.0 L 695.0,279.0 L 718.0,281.0"/>
    <path d="M 550.0,180.0 L 572.0,193.0 L 592.0,215.0 L 586.0,374.0 L 570.0,397.0"/>
    <path d="M 429.0,452.0 L 466.0,449.0 L 684.0,393.0 L 740.0,395.0"/>
    <path d="M 318.0,598.0 L 367.0,598.0 L 447.0,571.0 L 490.0,567.0"/>
    <path d="M 382.0,512.0 L 412.0,536.0 L 413.0,643.0 L 400.0,668.0"/>
    <path d="M 293.0,713.0 L 308.0,720.0 L 345.0,723.0 L 508.0,641.0"/>
    <path d="M 591.0,550.0 L 647.0,552.0 L 742.0,524.0 L 785.0,522.0"/>
    <path d="M 648.0,461.0 L 682.0,492.0 L 679.0,601.0 L 664.0,624.0"/>
    <path d="M 539.0,656.0 L 594.0,661.0 L 769.0,627.0 L 839.0,628.0"/>
    <path d="M 387.0,779.0 L 442.0,783.0 L 663.0,732.0 L 724.0,735.0"/>
    <path d="M 448.0,810.0 L 469.0,829.0 L 471.0,839.0 L 449.0,876.0 L 407.0,926.0 L 315.0,1007.0 L 242.0,1050.0 L 228.0,1050.0 L 224.0,1057.0"/>
    <path d="M 578.0,775.0 L 608.0,797.0 L 600.0,947.0 L 608.0,991.0 L 627.0,1024.0 L 676.0,1051.0 L 714.0,1061.0 L 776.0,1063.0 L 850.0,1050.0 L 888.0,1032.0 L 908.0,1010.0 L 912.0,881.0"/>
  </g>
</svg>
