<svg xmlns="http://www.w3.org/2000/svg" viewBox="0 0 1024 1024">
  <g style="fill:none;stroke:#000000;stroke-width:50;stroke-linecap:round;stroke-linejoin:round;" transform="scale(1, 1) translate(0, 0)">
    <path d="M 172.0,291.0 L 241.0,333.0 L 267.0,371.0"/>
    <path d="M 112.0,484.0 L 184.0,532.0 L 205.0,559.0"/>
    <path d="M 171.0,972.0 L 154.0,933.0 L 151.0,894.0 L 261.0,649.0"/>
    <path d="M 325.0,375.0 L 396.0,379.0 L 555.0,343.0 L 612.0,340.0"/>
    <path d="M 429.0,203.0 L 469.0,238.0 L 465.0,433.0 L 450.0,452.0"/>
    <path d="M 347.0,483.0 L 384.0,490.0 L 515.0,462.0 L 572.0,465.0"/>
    <path d="M 312.0,571.0 L 338.0,594.0 L 346.0,614.0 L 372.0,734.0"/>
    <path d="M 365.0,576.0 L 375.0,583.0 L 449.0,570.0 L 483.0,557.0 L 515.0,561.0 L 534.0,583.0 L 532.0,591.0 L 516.0,633.0 L 490.0,649.0"/>
    <path d="M 388.0,703.0 L 404.0,692.0 L 479.0,676.0 L 526.0,673.0 L 543.0,678.0"/>
    <path d="M 328.0,762.0 L 364.0,799.0 L 378.0,824.0"/>
    <path d="M 482.0,696.0 L 512.0,727.0 L 487.0,805.0 L 465.0,845.0"/>
    <path d="M 277.0,906.0 L 329.0,921.0 L 571.0,824.0"/>
    <path d="M 596.0,532.0 L 633.0,537.0 L 853.0,496.0 L 887.0,495.0 L 944.0,506.0"/>
    <path d="M 729.0,220.0 L 758.0,237.0 L 778.0,258.0 L 774.0,429.0 L 787.0,937.0 L 768.0,981.0 L 724.0,966.0 L 654.0,932.0 L 652.0,925.0 L 641.0,925.0"/>
    <path d="M 599.0,642.0 L 662.0,694.0 L 683.0,738.0"/>
  </g>
</svg>
