<svg xmlns="http://www.w3.org/2000/svg" viewBox="0 0 1024 1024">
  <g style="fill:none;stroke:#000000;stroke-width:50;stroke-linecap:round;stroke-linejoin:round;" transform="scale(1, 1) translate(0, 0)">
    <path d="M 161.0,288.0 L 233.0,340.0 L 250.0,373.0"/>
    <path d="M 101.0,482.0 L 163.0,528.0 L 180.0,556.0"/>
    <path d="M 146.0,973.0 L 133.0,942.0 L 130.0,895.0 L 156.0,852.0 L 257.0,641.0"/>
    <path d="M 297.0,427.0 L 357.0,433.0 L 557.0,386.0 L 612.0,384.0"/>
    <path d="M 330.0,293.0 L 370.0,324.0 L 371.0,334.0 L 377.0,691.0 L 363.0,712.0"/>
    <path d="M 489.0,199.0 L 536.0,239.0 L 537.0,269.0 L 519.0,657.0 L 501.0,684.0"/>
    <path d="M 397.0,552.0 L 412.0,536.0 L 455.0,527.0 L 477.0,530.0"/>
    <path d="M 398.0,635.0 L 410.0,624.0 L 433.0,619.0 L 473.0,621.0"/>
    <path d="M 252.0,744.0 L 284.0,753.0 L 315.0,752.0 L 548.0,701.0 L 583.0,698.0 L 606.0,703.0"/>
    <path d="M 393.0,823.0 L 362.0,832.0 L 302.0,907.0 L 233.0,958.0"/>
    <path d="M 462.0,778.0 L 511.0,826.0 L 525.0,863.0"/>
    <path d="M 787.0,299.0 L 798.0,310.0 L 810.0,341.0 L 756.0,396.0 L 708.0,431.0 L 695.0,444.0 L 693.0,456.0"/>
    <path d="M 616.0,433.0 L 654.0,462.0 L 658.0,491.0 L 657.0,635.0 L 643.0,743.0 L 615.0,829.0 L 584.0,885.0 L 529.0,950.0 L 487.0,978.0"/>
    <path d="M 685.0,582.0 L 699.0,572.0 L 748.0,566.0 L 894.0,526.0 L 939.0,523.0 L 966.0,530.0"/>
    <path d="M 770.0,584.0 L 811.0,610.0 L 807.0,1081.0"/>
  </g>
</svg>
