<svg xmlns="http://www.w3.org/2000/svg" viewBox="0 0 1024 1024">
  <g style="fill:none;stroke:#000000;stroke-width:50;stroke-linecap:round;stroke-linejoin:round;" transform="scale(1, 1) translate(0, 0)">
    <path d="M 157.0,297.0 L 226.0,347.0 L 250.0,391.0"/>
    <path d="M 106.0,508.0 L 171.0,549.0 L 198.0,585.0"/>
    <path d="M 175.0,989.0 L 161.0,947.0 L 160.0,908.0 L 285.0,661.0"/>
    <path d="M 305.0,319.0 L 331.0,342.0 L 344.0,365.0 L 349.0,447.0 L 343.0,769.0 L 321.0,904.0 L 323.0,954.0"/>
    <path d="M 369.0,337.0 L 383.0,343.0 L 428.0,325.0 L 481.0,314.0 L 492.0,319.0 L 510.0,342.0 L 498.0,404.0 L 491.0,491.0 L 481.0,525.0 L 469.0,524.0"/>
    <path d="M 375.0,449.0 L 394.0,429.0 L 445.0,429.0"/>
    <path d="M 371.0,531.0 L 383.0,518.0 L 453.0,506.0"/>
    <path d="M 604.0,257.0 L 624.0,278.0 L 637.0,304.0 L 638.0,436.0 L 647.0,493.0"/>
    <path d="M 648.0,267.0 L 670.0,278.0 L 780.0,252.0 L 800.0,259.0 L 828.0,287.0 L 832.0,964.0 L 823.0,995.0 L 811.0,1009.0 L 783.0,1002.0 L 706.0,964.0"/>
    <path d="M 667.0,384.0 L 675.0,372.0 L 696.0,367.0 L 734.0,364.0 L 756.0,369.0"/>
    <path d="M 666.0,478.0 L 676.0,465.0 L 767.0,452.0 L 783.0,457.0 L 787.0,465.0"/>
    <path d="M 456.0,592.0 L 479.0,616.0 L 482.0,627.0 L 484.0,727.0 L 478.0,814.0 L 485.0,864.0"/>
    <path d="M 505.0,608.0 L 516.0,615.0 L 614.0,586.0 L 633.0,587.0 L 655.0,607.0 L 656.0,785.0 L 648.0,835.0 L 656.0,891.0"/>
    <path d="M 506.0,727.0 L 537.0,709.0 L 600.0,709.0"/>
    <path d="M 506.0,836.0 L 518.0,827.0 L 563.0,817.0 L 617.0,814.0"/>
  </g>
</svg>
