<svg xmlns="http://www.w3.org/2000/svg" viewBox="0 0 1024 1024">
  <g style="fill:none;stroke:#000000;stroke-width:50;stroke-linecap:round;stroke-linejoin:round;" transform="scale(1, 1) translate(0, 0)">
    <path d="M 189.0,241.0 L 266.0,287.0 L 279.0,298.0 L 298.0,331.0"/>
    <path d="M 120.0,444.0 L 181.0,488.0 L 204.0,520.0"/>
    <path d="M 161.0,948.0 L 148.0,909.0 L 147.0,870.0 L 269.0,621.0"/>
    <path d="M 412.0,242.0 L 440.0,262.0 L 452.0,284.0 L 488.0,403.0"/>
    <path d="M 468.0,243.0 L 479.0,251.0 L 635.0,217.0 L 656.0,220.0 L 677.0,239.0 L 683.0,254.0 L 658.0,312.0 L 633.0,322.0"/>
    <path d="M 503.0,384.0 L 518.0,373.0 L 622.0,353.0 L 684.0,358.0"/>
    <path d="M 316.0,485.0 L 345.0,515.0 L 376.0,632.0"/>
    <path d="M 360.0,485.0 L 371.0,492.0 L 467.0,466.0 L 490.0,476.0 L 499.0,486.0 L 489.0,535.0 L 485.0,549.0 L 468.0,564.0"/>
    <path d="M 392.0,610.0 L 404.0,600.0 L 458.0,586.0 L 513.0,587.0"/>
    <path d="M 573.0,447.0 L 602.0,476.0 L 628.0,599.0"/>
    <path d="M 626.0,452.0 L 636.0,459.0 L 735.0,431.0 L 767.0,436.0 L 779.0,449.0 L 779.0,466.0 L 759.0,515.0 L 735.0,530.0"/>
    <path d="M 646.0,579.0 L 662.0,567.0 L 735.0,554.0 L 791.0,557.0"/>
    <path d="M 300.0,724.0 L 336.0,733.0 L 501.0,707.0 L 768.0,678.0 L 815.0,682.0 L 849.0,694.0"/>
    <path d="M 534.0,629.0 L 556.0,653.0 L 562.0,673.0 L 551.0,977.0 L 561.0,1060.0"/>
    <path d="M 531.0,728.0 L 521.0,736.0 L 514.0,758.0 L 487.0,796.0 L 437.0,848.0 L 364.0,904.0 L 260.0,956.0"/>
    <path d="M 591.0,740.0 L 601.0,759.0 L 688.0,833.0 L 783.0,897.0 L 945.0,919.0"/>
  </g>
</svg>
