<svg xmlns="http://www.w3.org/2000/svg" viewBox="0 0 1024 1024">
  <g style="fill:none;stroke:#000000;stroke-width:50;stroke-linecap:round;stroke-linejoin:round;" transform="scale(1, 1) translate(0, 0)">
    <path d="M 190.0,249.0 L 265.0,299.0 L 290.0,337.0"/>
    <path d="M 116.0,449.0 L 192.0,502.0 L 215.0,533.0"/>
    <path d="M 168.0,971.0 L 153.0,941.0 L 146.0,890.0 L 253.0,633.0"/>
    <path d="M 372.0,244.0 L 398.0,261.0 L 410.0,280.0 L 451.0,411.0"/>
    <path d="M 422.0,242.0 L 447.0,251.0 L 544.0,232.0 L 707.0,211.0 L 790.0,211.0 L 816.0,250.0 L 749.0,380.0"/>
    <path d="M 521.0,260.0 L 528.0,262.0 L 544.0,345.0 L 554.0,359.0"/>
    <path d="M 682.0,245.0 L 654.0,257.0 L 636.0,332.0 L 623.0,339.0"/>
    <path d="M 468.0,397.0 L 482.0,387.0 L 653.0,362.0 L 727.0,357.0"/>
    <path d="M 453.0,479.0 L 532.0,481.0 L 677.0,449.0 L 721.0,450.0"/>
    <path d="M 555.0,392.0 L 581.0,413.0 L 586.0,435.0 L 585.0,531.0 L 570.0,551.0"/>
    <path d="M 305.0,600.0 L 359.0,607.0 L 573.0,572.0 L 843.0,542.0 L 882.0,547.0 L 917.0,560.0"/>
    <path d="M 464.0,610.0 L 479.0,619.0 L 510.0,671.0"/>
    <path d="M 653.0,585.0 L 668.0,610.0 L 642.0,668.0 L 616.0,688.0"/>
    <path d="M 431.0,728.0 L 488.0,733.0 L 674.0,700.0 L 731.0,704.0"/>
    <path d="M 334.0,860.0 L 387.0,867.0 L 558.0,839.0 L 774.0,816.0 L 811.0,818.0 L 857.0,832.0"/>
    <path d="M 553.0,749.0 L 592.0,773.0 L 587.0,1098.0"/>
  </g>
</svg>
