<svg xmlns="http://www.w3.org/2000/svg" viewBox="0 0 1024 1024">
  <g style="fill:none;stroke:#000000;stroke-width:50;stroke-linecap:round;stroke-linejoin:round;" transform="scale(1, 1) translate(0, 0)">
    <path d="M 214.0,277.0 L 296.0,331.0 L 318.0,368.0"/>
    <path d="M 141.0,484.0 L 217.0,533.0 L 238.0,551.0 L 244.0,566.0"/>
    <path d="M 201.0,1012.0 L 186.0,970.0 L 184.0,928.0 L 218.0,868.0 L 316.0,658.0"/>
    <path d="M 545.0,187.0 L 621.0,221.0 L 654.0,257.0"/>
    <path d="M 392.0,352.0 L 437.0,358.0 L 600.0,326.0 L 784.0,301.0 L 862.0,314.0"/>
    <path d="M 398.0,434.0 L 426.0,456.0 L 434.0,471.0 L 487.0,677.0"/>
    <path d="M 451.0,435.0 L 475.0,443.0 L 717.0,394.0 L 770.0,399.0 L 797.0,434.0 L 747.0,622.0 L 751.0,647.0"/>
    <path d="M 511.0,486.0 L 530.0,499.0 L 554.0,588.0"/>
    <path d="M 553.0,499.0 L 574.0,487.0 L 649.0,471.0 L 672.0,489.0 L 663.0,521.0 L 647.0,532.0"/>
    <path d="M 566.0,576.0 L 575.0,567.0 L 626.0,556.0 L 685.0,561.0"/>
    <path d="M 506.0,658.0 L 517.0,648.0 L 543.0,643.0 L 696.0,623.0 L 711.0,611.0"/>
    <path d="M 443.0,728.0 L 465.0,747.0 L 473.0,765.0 L 497.0,921.0"/>
    <path d="M 493.0,735.0 L 513.0,740.0 L 693.0,705.0 L 726.0,709.0 L 750.0,739.0 L 711.0,883.0 L 715.0,899.0"/>
    <path d="M 509.0,826.0 L 521.0,816.0 L 579.0,805.0 L 629.0,798.0 L 664.0,803.0"/>
    <path d="M 515.0,901.0 L 547.0,891.0 L 669.0,876.0 L 681.0,868.0"/>
    <path d="M 354.0,995.0 L 406.0,1006.0 L 609.0,981.0 L 812.0,968.0 L 867.0,976.0 L 903.0,990.0"/>
  </g>
</svg>
