<svg xmlns="http://www.w3.org/2000/svg" viewBox="0 0 1024 1024">
  <g style="fill:none;stroke:#000000;stroke-width:50;stroke-linecap:round;stroke-linejoin:round;" transform="scale(1, 1) translate(0, 0)">
    <path d="M 187.0,285.0 L 265.0,328.0 L 289.0,363.0"/>
    <path d="M 113.0,497.0 L 195.0,549.0 L 216.0,575.0"/>
    <path d="M 163.0,978.0 L 151.0,948.0 L 148.0,898.0 L 285.0,629.0"/>
    <path d="M 578.0,215.0 L 615.0,248.0 L 610.0,392.0 L 594.0,415.0"/>
    <path d="M 646.0,328.0 L 654.0,318.0 L 752.0,301.0 L 787.0,302.0"/>
    <path d="M 439.0,325.0 L 471.0,357.0 L 482.0,423.0 L 471.0,433.0"/>
    <path d="M 356.0,472.0 L 401.0,477.0 L 640.0,429.0 L 767.0,410.0 L 812.0,411.0 L 854.0,422.0"/>
    <path d="M 432.0,587.0 L 457.0,594.0 L 496.0,592.0 L 742.0,542.0 L 775.0,542.0"/>
    <path d="M 371.0,565.0 L 401.0,604.0 L 387.0,710.0 L 369.0,787.0 L 323.0,908.0 L 279.0,973.0 L 249.0,1004.0"/>
    <path d="M 455.0,678.0 L 491.0,680.0 L 566.0,661.0 L 603.0,659.0"/>
    <path d="M 506.0,699.0 L 525.0,714.0 L 522.0,825.0 L 512.0,853.0"/>
    <path d="M 452.0,737.0 L 446.0,780.0 L 426.0,842.0"/>
    <path d="M 600.0,739.0 L 609.0,767.0 L 556.0,846.0 L 533.0,868.0 L 455.0,924.0 L 377.0,952.0"/>
    <path d="M 595.0,481.0 L 613.0,488.0 L 638.0,512.0 L 681.0,699.0 L 722.0,811.0 L 758.0,884.0 L 812.0,962.0 L 844.0,990.0 L 869.0,1002.0 L 882.0,1005.0 L 896.0,975.0 L 918.0,840.0"/>
    <path d="M 785.0,647.0 L 804.0,679.0 L 782.0,739.0 L 748.0,802.0 L 683.0,881.0 L 603.0,942.0 L 571.0,957.0"/>
    <path d="M 791.0,478.0 L 841.0,515.0 L 856.0,531.0 L 867.0,558.0"/>
  </g>
</svg>
