<svg xmlns="http://www.w3.org/2000/svg" viewBox="0 0 1024 1024">
  <g style="fill:none;stroke:#000000;stroke-width:50;stroke-linecap:round;stroke-linejoin:round;" transform="scale(1, 1) translate(0, 0)">
    <path d="M 197.0,273.0 L 268.0,318.0 L 294.0,357.0"/>
    <path d="M 104.0,481.0 L 180.0,532.0 L 196.0,554.0"/>
    <path d="M 166.0,985.0 L 154.0,956.0 L 150.0,908.0 L 273.0,645.0"/>
    <path d="M 424.0,278.0 L 451.0,299.0 L 457.0,313.0 L 496.0,473.0"/>
    <path d="M 476.0,282.0 L 496.0,288.0 L 589.0,264.0 L 700.0,245.0 L 756.0,249.0 L 782.0,285.0 L 727.0,449.0"/>
    <path d="M 496.0,376.0 L 507.0,365.0 L 586.0,349.0 L 642.0,340.0 L 672.0,344.0"/>
    <path d="M 513.0,464.0 L 522.0,457.0 L 573.0,446.0 L 679.0,430.0 L 693.0,429.0 L 701.0,437.0"/>
    <path d="M 418.0,473.0 L 439.0,509.0 L 370.0,619.0 L 359.0,651.0 L 417.0,656.0 L 446.0,653.0 L 455.0,644.0"/>
    <path d="M 509.0,545.0 L 527.0,576.0 L 467.0,669.0 L 405.0,747.0 L 400.0,779.0 L 430.0,780.0 L 491.0,755.0 L 507.0,756.0"/>
    <path d="M 505.0,702.0 L 545.0,764.0 L 550.0,783.0"/>
    <path d="M 665.0,469.0 L 678.0,490.0 L 679.0,507.0 L 630.0,581.0 L 616.0,615.0 L 666.0,619.0 L 708.0,614.0 L 717.0,606.0"/>
    <path d="M 772.0,509.0 L 789.0,542.0 L 741.0,615.0 L 666.0,709.0 L 658.0,748.0 L 685.0,752.0 L 773.0,725.0 L 779.0,730.0"/>
    <path d="M 766.0,659.0 L 814.0,722.0 L 826.0,772.0"/>
    <path d="M 352.0,871.0 L 336.0,956.0 L 311.0,1023.0"/>
    <path d="M 486.0,869.0 L 521.0,927.0 L 529.0,956.0"/>
    <path d="M 642.0,868.0 L 682.0,916.0 L 694.0,944.0"/>
    <path d="M 789.0,839.0 L 875.0,929.0 L 897.0,1001.0"/>
  </g>
</svg>
