<svg xmlns="http://www.w3.org/2000/svg" viewBox="0 0 1024 1024">
  <g style="fill:none;stroke:#000000;stroke-width:50;stroke-linecap:round;stroke-linejoin:round;" transform="scale(1, 1) translate(0, 0)">
    <path d="M 193.0,240.0 L 268.0,285.0 L 292.0,320.0"/>
    <path d="M 131.0,450.0 L 198.0,500.0 L 214.0,524.0"/>
    <path d="M 182.0,962.0 L 168.0,933.0 L 162.0,885.0 L 257.0,669.0"/>
    <path d="M 452.0,217.0 L 488.0,247.0 L 509.0,382.0"/>
    <path d="M 348.0,335.0 L 398.0,346.0 L 563.0,303.0"/>
    <path d="M 658.0,167.0 L 684.0,200.0 L 664.0,281.0 L 631.0,377.0"/>
    <path d="M 634.0,285.0 L 682.0,290.0 L 789.0,272.0 L 844.0,284.0"/>
    <path d="M 359.0,435.0 L 369.0,458.0 L 370.0,483.0 L 334.0,578.0 L 330.0,614.0"/>
    <path d="M 400.0,486.0 L 411.0,479.0 L 599.0,435.0 L 762.0,409.0 L 788.0,417.0 L 808.0,442.0 L 751.0,523.0"/>
    <path d="M 452.0,533.0 L 532.0,532.0 L 602.0,514.0 L 644.0,512.0"/>
    <path d="M 391.0,620.0 L 437.0,625.0 L 604.0,591.0 L 649.0,588.0 L 677.0,594.0"/>
    <path d="M 520.0,641.0 L 511.0,656.0 L 455.0,706.0 L 369.0,759.0"/>
    <path d="M 486.0,712.0 L 501.0,711.0 L 539.0,732.0 L 605.0,793.0 L 623.0,838.0 L 627.0,876.0 L 609.0,985.0 L 594.0,1021.0 L 574.0,1045.0 L 569.0,1048.0 L 543.0,1038.0 L 476.0,1002.0"/>
    <path d="M 529.0,757.0 L 503.0,755.0 L 480.0,782.0 L 432.0,821.0 L 379.0,856.0 L 339.0,874.0"/>
    <path d="M 558.0,777.0 L 559.0,811.0 L 517.0,864.0 L 420.0,951.0 L 334.0,998.0"/>
    <path d="M 773.0,681.0 L 737.0,668.0 L 645.0,749.0 L 612.0,768.0"/>
    <path d="M 625.0,783.0 L 692.0,847.0 L 798.0,917.0 L 838.0,926.0 L 983.0,930.0"/>
  </g>
</svg>
