<svg xmlns="http://www.w3.org/2000/svg" viewBox="0 0 1024 1024">
  <g style="fill:none;stroke:#000000;stroke-width:50;stroke-linecap:round;stroke-linejoin:round;" transform="scale(1, 1) translate(0, 0)">
    <path d="M 225.0,289.0 L 296.0,334.0 L 322.0,373.0"/>
    <path d="M 139.0,496.0 L 213.0,547.0 L 229.0,571.0"/>
    <path d="M 190.0,981.0 L 178.0,952.0 L 173.0,902.0 L 289.0,660.0"/>
    <path d="M 460.0,287.0 L 528.0,287.0 L 641.0,263.0 L 654.0,254.0 L 723.0,236.0 L 768.0,235.0"/>
    <path d="M 575.0,170.0 L 611.0,202.0 L 605.0,336.0 L 591.0,355.0"/>
    <path d="M 502.0,386.0 L 535.0,390.0 L 666.0,359.0 L 710.0,359.0"/>
    <path d="M 373.0,496.0 L 416.0,497.0 L 755.0,418.0 L 801.0,417.0 L 831.0,439.0 L 775.0,513.0"/>
    <path d="M 488.0,552.0 L 527.0,550.0 L 640.0,519.0 L 689.0,519.0"/>
    <path d="M 611.0,552.0 L 593.0,574.0 L 593.0,589.0 L 575.0,610.0"/>
    <path d="M 435.0,657.0 L 464.0,657.0 L 525.0,639.0 L 683.0,608.0 L 731.0,608.0 L 756.0,615.0"/>
    <path d="M 320.0,744.0 L 348.0,751.0 L 372.0,749.0 L 524.0,715.0 L 866.0,665.0 L 942.0,678.0"/>
    <path d="M 334.0,817.0 L 363.0,839.0 L 396.0,952.0"/>
    <path d="M 394.0,831.0 L 397.0,823.0 L 489.0,802.0 L 514.0,824.0 L 504.0,863.0 L 516.0,878.0"/>
    <path d="M 411.0,927.0 L 419.0,917.0 L 468.0,902.0 L 526.0,901.0"/>
    <path d="M 597.0,832.0 L 619.0,834.0 L 808.0,793.0 L 869.0,801.0"/>
    <path d="M 698.0,712.0 L 724.0,725.0 L 745.0,751.0 L 741.0,1010.0 L 729.0,1038.0 L 630.0,1006.0"/>
    <path d="M 584.0,882.0 L 628.0,915.0 L 645.0,945.0"/>
  </g>
</svg>
