<svg xmlns="http://www.w3.org/2000/svg" viewBox="0 0 1024 1024">
  <g style="fill:none;stroke:#000000;stroke-width:50;stroke-linecap:round;stroke-linejoin:round;" transform="scale(1, 1) translate(0, 0)">
    <path d="M 199.0,281.0 L 285.0,332.0 L 306.0,364.0"/>
    <path d="M 113.0,468.0 L 197.0,517.0 L 220.0,543.0"/>
    <path d="M 168.0,968.0 L 152.0,926.0 L 150.0,887.0 L 265.0,641.0"/>
    <path d="M 493.0,184.0 L 575.0,217.0 L 595.0,241.0"/>
    <path d="M 406.0,308.0 L 428.0,315.0 L 481.0,315.0 L 702.0,276.0 L 749.0,276.0"/>
    <path d="M 429.0,384.0 L 456.0,405.0 L 484.0,516.0"/>
    <path d="M 484.0,406.0 L 508.0,393.0 L 553.0,387.0 L 627.0,366.0 L 645.0,368.0 L 671.0,397.0 L 657.0,423.0 L 633.0,436.0"/>
    <path d="M 500.0,492.0 L 513.0,482.0 L 617.0,464.0 L 680.0,470.0"/>
    <path d="M 349.0,538.0 L 360.0,568.0 L 321.0,666.0 L 321.0,705.0"/>
    <path d="M 383.0,587.0 L 395.0,580.0 L 602.0,542.0 L 745.0,523.0 L 794.0,528.0 L 810.0,539.0 L 821.0,560.0 L 746.0,631.0"/>
    <path d="M 429.0,645.0 L 482.0,650.0 L 528.0,644.0 L 624.0,617.0 L 668.0,620.0"/>
    <path d="M 531.0,678.0 L 493.0,693.0 L 459.0,732.0 L 416.0,768.0 L 349.0,804.0"/>
    <path d="M 501.0,721.0 L 517.0,722.0 L 538.0,736.0 L 585.0,783.0 L 609.0,841.0 L 611.0,898.0 L 592.0,982.0 L 559.0,1022.0 L 479.0,979.0"/>
    <path d="M 522.0,743.0 L 521.0,779.0 L 484.0,818.0 L 426.0,863.0 L 370.0,896.0 L 355.0,895.0 L 351.0,902.0"/>
    <path d="M 565.0,802.0 L 563.0,842.0 L 480.0,929.0 L 398.0,984.0 L 337.0,1011.0"/>
    <path d="M 703.0,677.0 L 714.0,710.0 L 636.0,769.0 L 621.0,779.0 L 614.0,777.0"/>
    <path d="M 618.0,800.0 L 669.0,856.0 L 783.0,933.0 L 859.0,947.0 L 955.0,950.0"/>
  </g>
</svg>
