<svg xmlns="http://www.w3.org/2000/svg" viewBox="0 0 1024 1024">
  <g style="fill:none;stroke:#000000;stroke-width:50;stroke-linecap:round;stroke-linejoin:round;" transform="scale(1, 1) translate(0, 0)">
    <path d="M 169.0,313.0 L 238.0,363.0 L 262.0,404.0"/>
    <path d="M 90.0,509.0 L 158.0,561.0 L 173.0,589.0"/>
    <path d="M 151.0,996.0 L 135.0,960.0 L 132.0,920.0 L 252.0,646.0"/>
    <path d="M 386.0,282.0 L 409.0,306.0 L 416.0,330.0 L 311.0,559.0 L 314.0,566.0 L 349.0,566.0 L 404.0,560.0 L 417.0,552.0"/>
    <path d="M 467.0,442.0 L 487.0,474.0 L 440.0,557.0 L 356.0,678.0 L 349.0,692.0 L 350.0,717.0 L 374.0,717.0 L 459.0,679.0 L 465.0,683.0"/>
    <path d="M 458.0,633.0 L 496.0,673.0 L 514.0,703.0"/>
    <path d="M 266.0,845.0 L 321.0,939.0 L 328.0,987.0"/>
    <path d="M 368.0,821.0 L 405.0,856.0 L 420.0,885.0"/>
    <path d="M 459.0,770.0 L 501.0,805.0 L 520.0,839.0"/>
    <path d="M 655.0,259.0 L 677.0,277.0 L 689.0,297.0 L 679.0,331.0 L 601.0,497.0 L 557.0,566.0 L 520.0,608.0"/>
    <path d="M 610.0,525.0 L 614.0,554.0 L 632.0,581.0 L 637.0,628.0 L 632.0,843.0 L 616.0,1018.0 L 622.0,1078.0"/>
    <path d="M 745.0,342.0 L 808.0,387.0 L 821.0,415.0"/>
    <path d="M 691.0,529.0 L 743.0,531.0 L 855.0,497.0 L 916.0,492.0"/>
    <path d="M 703.0,655.0 L 760.0,655.0 L 858.0,624.0 L 889.0,626.0"/>
    <path d="M 695.0,768.0 L 739.0,771.0 L 856.0,741.0 L 896.0,742.0"/>
    <path d="M 761.0,550.0 L 791.0,573.0 L 793.0,601.0 L 793.0,851.0 L 777.0,875.0"/>
    <path d="M 656.0,908.0 L 699.0,914.0 L 886.0,884.0 L 938.0,887.0 L 969.0,897.0"/>
  </g>
</svg>
