<svg xmlns="http://www.w3.org/2000/svg" viewBox="0 0 1024 1024">
  <g style="fill:none;stroke:#000000;stroke-width:50;stroke-linecap:round;stroke-linejoin:round;" transform="scale(1, 1) translate(0, 0)">
    <path d="M 201.0,269.0 L 270.0,319.0 L 294.0,360.0"/>
    <path d="M 112.0,473.0 L 191.0,529.0 L 207.0,552.0"/>
    <path d="M 180.0,989.0 L 166.0,957.0 L 162.0,908.0 L 278.0,673.0"/>
    <path d="M 398.0,308.0 L 405.0,305.0 L 418.0,312.0 L 467.0,304.0 L 570.0,271.0 L 604.0,271.0"/>
    <path d="M 486.0,321.0 L 502.0,340.0 L 497.0,392.0 L 479.0,407.0"/>
    <path d="M 411.0,452.0 L 418.0,445.0 L 551.0,414.0 L 571.0,436.0 L 555.0,487.0 L 537.0,494.0"/>
    <path d="M 403.0,565.0 L 419.0,552.0 L 463.0,545.0 L 530.0,523.0 L 577.0,525.0"/>
    <path d="M 487.0,560.0 L 499.0,579.0 L 496.0,610.0 L 482.0,621.0"/>
    <path d="M 359.0,295.0 L 379.0,315.0 L 386.0,332.0 L 389.0,383.0 L 378.0,667.0 L 413.0,666.0 L 546.0,634.0 L 591.0,629.0 L 624.0,636.0"/>
    <path d="M 698.0,208.0 L 723.0,224.0 L 737.0,243.0 L 728.0,286.0 L 675.0,435.0 L 616.0,535.0"/>
    <path d="M 704.0,431.0 L 724.0,420.0 L 772.0,412.0 L 857.0,385.0 L 906.0,383.0"/>
    <path d="M 689.0,535.0 L 760.0,567.0 L 792.0,602.0"/>
    <path d="M 363.0,765.0 L 387.0,785.0 L 397.0,804.0 L 425.0,922.0 L 438.0,933.0"/>
    <path d="M 417.0,764.0 L 430.0,776.0 L 531.0,752.0 L 736.0,717.0 L 778.0,720.0 L 808.0,755.0 L 765.0,878.0 L 733.0,903.0"/>
    <path d="M 504.0,781.0 L 517.0,794.0 L 536.0,905.0 L 546.0,925.0"/>
    <path d="M 627.0,758.0 L 652.0,784.0 L 623.0,904.0 L 610.0,912.0"/>
    <path d="M 294.0,961.0 L 348.0,969.0 L 573.0,941.0 L 850.0,920.0 L 903.0,925.0 L 947.0,940.0"/>
  </g>
</svg>
