<svg xmlns="http://www.w3.org/2000/svg" viewBox="0 0 1024 1024">
  <g style="fill:none;stroke:#000000;stroke-width:50;stroke-linecap:round;stroke-linejoin:round;" transform="scale(1, 1) translate(0, 0)">
    <path d="M 189.0,280.0 L 264.0,325.0 L 288.0,360.0"/>
    <path d="M 128.0,458.0 L 191.0,501.0 L 216.0,536.0"/>
    <path d="M 182.0,952.0 L 170.0,925.0 L 166.0,877.0 L 289.0,617.0"/>
    <path d="M 383.0,278.0 L 401.0,282.0 L 426.0,277.0 L 477.0,256.0 L 506.0,251.0 L 521.0,253.0 L 548.0,276.0 L 536.0,344.0 L 525.0,475.0"/>
    <path d="M 376.0,333.0 L 422.0,359.0 L 441.0,386.0"/>
    <path d="M 365.0,497.0 L 395.0,492.0 L 466.0,427.0"/>
    <path d="M 628.0,241.0 L 655.0,245.0 L 768.0,221.0 L 792.0,229.0 L 813.0,256.0 L 792.0,321.0 L 766.0,464.0"/>
    <path d="M 635.0,297.0 L 675.0,317.0 L 695.0,342.0"/>
    <path d="M 607.0,434.0 L 640.0,433.0 L 703.0,389.0 L 714.0,372.0 L 729.0,367.0"/>
    <path d="M 512.0,538.0 L 481.0,548.0 L 445.0,609.0 L 404.0,655.0 L 351.0,709.0 L 301.0,745.0"/>
    <path d="M 453.0,641.0 L 458.0,673.0 L 471.0,695.0 L 469.0,837.0 L 451.0,1007.0 L 457.0,1058.0"/>
    <path d="M 622.0,489.0 L 659.0,515.0 L 676.0,536.0"/>
    <path d="M 537.0,614.0 L 596.0,618.0 L 702.0,600.0 L 787.0,577.0 L 828.0,579.0"/>
    <path d="M 564.0,715.0 L 572.0,720.0 L 610.0,720.0 L 661.0,713.0 L 756.0,688.0 L 806.0,684.0"/>
    <path d="M 561.0,807.0 L 599.0,813.0 L 648.0,811.0 L 779.0,784.0 L 822.0,787.0"/>
    <path d="M 655.0,633.0 L 682.0,652.0 L 683.0,672.0 L 681.0,866.0 L 665.0,887.0"/>
    <path d="M 497.0,923.0 L 505.0,931.0 L 527.0,933.0 L 594.0,921.0 L 830.0,897.0 L 899.0,915.0"/>
  </g>
</svg>
