<svg xmlns="http://www.w3.org/2000/svg" viewBox="0 0 1024 1024">
  <g style="fill:none;stroke:#000000;stroke-width:50;stroke-linecap:round;stroke-linejoin:round;" transform="scale(1, 1) translate(0, 0)">
    <path d="M 199.0,293.0 L 280.0,343.0 L 302.0,377.0"/>
    <path d="M 127.0,509.0 L 198.0,547.0 L 228.0,578.0"/>
    <path d="M 163.0,973.0 L 149.0,931.0 L 148.0,895.0 L 265.0,661.0"/>
    <path d="M 558.0,177.0 L 593.0,210.0 L 589.0,326.0 L 574.0,337.0"/>
    <path d="M 621.0,279.0 L 733.0,250.0 L 772.0,248.0"/>
    <path d="M 427.0,383.0 L 446.0,396.0 L 701.0,336.0 L 762.0,327.0 L 788.0,336.0 L 810.0,362.0 L 761.0,430.0 L 751.0,434.0"/>
    <path d="M 361.0,375.0 L 390.0,401.0 L 399.0,428.0 L 381.0,595.0 L 356.0,733.0 L 326.0,824.0 L 280.0,920.0 L 219.0,1011.0 L 197.0,1034.0"/>
    <path d="M 461.0,498.0 L 510.0,497.0 L 638.0,456.0 L 683.0,456.0"/>
    <path d="M 555.0,407.0 L 576.0,431.0 L 575.0,525.0 L 584.0,548.0 L 601.0,562.0 L 663.0,570.0 L 711.0,554.0 L 726.0,541.0 L 733.0,475.0"/>
    <path d="M 441.0,645.0 L 464.0,665.0 L 473.0,684.0 L 504.0,843.0"/>
    <path d="M 496.0,644.0 L 510.0,655.0 L 684.0,618.0 L 724.0,617.0 L 748.0,624.0 L 769.0,652.0 L 722.0,789.0 L 713.0,805.0 L 691.0,805.0"/>
    <path d="M 536.0,729.0 L 638.0,708.0 L 677.0,711.0"/>
    <path d="M 584.0,656.0 L 606.0,683.0 L 605.0,758.0 L 590.0,781.0"/>
    <path d="M 525.0,819.0 L 529.0,813.0 L 685.0,785.0"/>
    <path d="M 405.0,891.0 L 387.0,957.0 L 360.0,1019.0"/>
    <path d="M 476.0,899.0 L 509.0,964.0 L 547.0,1003.0 L 591.0,1025.0 L 626.0,1034.0 L 711.0,1040.0 L 761.0,1033.0 L 800.0,1011.0 L 793.0,984.0 L 744.0,889.0"/>
    <path d="M 589.0,866.0 L 651.0,908.0 L 669.0,939.0"/>
    <path d="M 801.0,818.0 L 882.0,871.0 L 901.0,889.0 L 917.0,919.0"/>
  </g>
</svg>
