<svg xmlns="http://www.w3.org/2000/svg" viewBox="0 0 1024 1024">
  <g style="fill:none;stroke:#000000;stroke-width:50;stroke-linecap:round;stroke-linejoin:round;" transform="scale(1, 1) translate(0, 0)">
    <path d="M 163.0,285.0 L 232.0,322.0 L 261.0,359.0"/>
    <path d="M 101.0,509.0 L 172.0,551.0 L 192.0,579.0"/>
    <path d="M 138.0,949.0 L 128.0,921.0 L 128.0,880.0 L 249.0,659.0"/>
    <path d="M 433.0,226.0 L 472.0,264.0 L 466.0,450.0 L 461.0,467.0 L 450.0,477.0"/>
    <path d="M 501.0,351.0 L 509.0,337.0 L 533.0,326.0 L 568.0,318.0 L 586.0,320.0"/>
    <path d="M 328.0,374.0 L 359.0,405.0 L 373.0,486.0 L 361.0,498.0"/>
    <path d="M 255.0,542.0 L 300.0,547.0 L 525.0,480.0 L 571.0,478.0"/>
    <path d="M 433.0,529.0 L 447.0,539.0 L 454.0,555.0 L 449.0,695.0 L 436.0,721.0 L 375.0,702.0"/>
    <path d="M 334.0,602.0 L 326.0,667.0 L 306.0,729.0"/>
    <path d="M 545.0,603.0 L 565.0,635.0 L 539.0,715.0 L 486.0,818.0 L 442.0,876.0 L 388.0,931.0 L 332.0,975.0 L 255.0,1021.0"/>
    <path d="M 646.0,337.0 L 690.0,336.0 L 875.0,283.0 L 937.0,287.0"/>
    <path d="M 731.0,350.0 L 750.0,367.0 L 719.0,424.0 L 691.0,451.0"/>
    <path d="M 627.0,449.0 L 646.0,473.0 L 651.0,524.0 L 638.0,730.0 L 641.0,782.0"/>
    <path d="M 669.0,463.0 L 684.0,469.0 L 708.0,466.0 L 827.0,439.0 L 846.0,445.0 L 876.0,476.0 L 871.0,549.0 L 876.0,717.0 L 870.0,787.0"/>
    <path d="M 673.0,577.0 L 682.0,566.0 L 743.0,553.0 L 796.0,551.0"/>
    <path d="M 668.0,666.0 L 680.0,656.0 L 734.0,644.0 L 782.0,638.0 L 801.0,643.0"/>
    <path d="M 662.0,764.0 L 677.0,751.0 L 700.0,746.0 L 833.0,728.0"/>
    <path d="M 705.0,864.0 L 674.0,869.0 L 645.0,908.0 L 574.0,971.0 L 506.0,1011.0"/>
    <path d="M 806.0,838.0 L 895.0,922.0 L 920.0,988.0"/>
  </g>
</svg>
