<svg xmlns="http://www.w3.org/2000/svg" viewBox="0 0 1024 1024">
  <g style="fill:none;stroke:#000000;stroke-width:50;stroke-linecap:round;stroke-linejoin:round;" transform="scale(1, 1) translate(0, 0)">
    <path d="M 197.0,284.0 L 262.0,323.0 L 286.0,359.0"/>
    <path d="M 108.0,510.0 L 171.0,553.0 L 196.0,588.0"/>
    <path d="M 178.0,978.0 L 165.0,951.0 L 159.0,901.0 L 269.0,649.0"/>
    <path d="M 458.0,204.0 L 493.0,223.0 L 531.0,355.0"/>
    <path d="M 372.0,298.0 L 426.0,311.0 L 578.0,276.0"/>
    <path d="M 683.0,157.0 L 700.0,175.0 L 706.0,192.0 L 677.0,282.0 L 651.0,336.0"/>
    <path d="M 658.0,255.0 L 705.0,262.0 L 818.0,250.0 L 843.0,253.0 L 877.0,267.0"/>
    <path d="M 433.0,443.0 L 483.0,444.0 L 624.0,412.0 L 669.0,396.0 L 711.0,393.0 L 742.0,416.0 L 712.0,534.0 L 693.0,552.0"/>
    <path d="M 288.0,560.0 L 339.0,564.0 L 523.0,522.0 L 856.0,465.0 L 891.0,463.0 L 951.0,474.0"/>
    <path d="M 415.0,621.0 L 449.0,623.0 L 668.0,579.0 L 736.0,582.0"/>
    <path d="M 558.0,358.0 L 588.0,382.0 L 594.0,400.0 L 583.0,1075.0"/>
    <path d="M 350.0,678.0 L 380.0,704.0 L 374.0,874.0 L 343.0,960.0 L 304.0,1011.0 L 262.0,1043.0"/>
    <path d="M 786.0,599.0 L 816.0,632.0 L 820.0,677.0 L 821.0,1101.0"/>
    <path d="M 465.0,635.0 L 484.0,660.0 L 482.0,698.0 L 492.0,707.0"/>
    <path d="M 407.0,751.0 L 414.0,741.0 L 455.0,729.0 L 509.0,731.0"/>
    <path d="M 667.0,607.0 L 684.0,618.0 L 689.0,681.0 L 705.0,687.0 L 767.0,669.0 L 786.0,669.0"/>
    <path d="M 435.0,812.0 L 470.0,813.0 L 736.0,759.0 L 772.0,762.0"/>
    <path d="M 385.0,904.0 L 435.0,889.0 L 470.0,902.0 L 462.0,979.0 L 472.0,1041.0"/>
    <path d="M 723.0,852.0 L 748.0,855.0 L 786.0,848.0 L 794.0,857.0"/>
    <path d="M 678.0,834.0 L 703.0,869.0 L 693.0,979.0 L 699.0,1019.0"/>
  </g>
</svg>
