<svg xmlns="http://www.w3.org/2000/svg" viewBox="0 0 1024 1024">
  <g style="fill:none;stroke:#000000;stroke-width:50;stroke-linecap:round;stroke-linejoin:round;" transform="scale(1, 1) translate(0, 0)">
    <path d="M 173.0,287.0 L 251.0,342.0 L 271.0,375.0"/>
    <path d="M 116.0,500.0 L 177.0,544.0 L 200.0,576.0"/>
    <path d="M 169.0,1011.0 L 157.0,979.0 L 155.0,934.0 L 272.0,724.0"/>
    <path d="M 419.0,209.0 L 452.0,238.0 L 453.0,373.0 L 452.0,383.0 L 438.0,393.0"/>
    <path d="M 478.0,305.0 L 492.0,294.0 L 597.0,282.0"/>
    <path d="M 379.0,365.0 L 391.0,397.0 L 375.0,426.0 L 333.0,481.0 L 288.0,522.0 L 262.0,537.0"/>
    <path d="M 400.0,428.0 L 437.0,421.0 L 482.0,403.0 L 508.0,407.0 L 521.0,424.0 L 475.0,514.0 L 397.0,608.0 L 326.0,665.0 L 270.0,693.0"/>
    <path d="M 346.0,497.0 L 393.0,551.0"/>
    <path d="M 581.0,355.0 L 649.0,348.0 L 715.0,324.0 L 746.0,325.0 L 763.0,335.0 L 736.0,416.0 L 687.0,498.0 L 615.0,551.0 L 564.0,570.0 L 526.0,576.0"/>
    <path d="M 588.0,424.0 L 615.0,433.0 L 740.0,548.0 L 822.0,601.0 L 844.0,608.0 L 959.0,609.0"/>
    <path d="M 455.0,648.0 L 485.0,681.0 L 487.0,709.0 L 488.0,953.0 L 472.0,975.0"/>
    <path d="M 348.0,746.0 L 440.0,736.0 L 458.0,723.0"/>
    <path d="M 360.0,826.0 L 448.0,814.0 L 459.0,803.0"/>
    <path d="M 329.0,903.0 L 352.0,909.0 L 385.0,907.0 L 446.0,895.0 L 461.0,884.0"/>
    <path d="M 585.0,615.0 L 614.0,653.0 L 610.0,944.0 L 594.0,958.0"/>
    <path d="M 646.0,713.0 L 751.0,685.0 L 780.0,688.0"/>
    <path d="M 645.0,805.0 L 653.0,795.0 L 667.0,791.0 L 734.0,779.0 L 761.0,781.0"/>
    <path d="M 634.0,893.0 L 646.0,884.0 L 741.0,866.0 L 775.0,864.0 L 804.0,870.0"/>
    <path d="M 290.0,1009.0 L 342.0,1017.0 L 522.0,991.0 L 773.0,969.0 L 820.0,972.0 L 868.0,988.0"/>
  </g>
</svg>
