<svg xmlns="http://www.w3.org/2000/svg" viewBox="0 0 1024 1024">
  <g style="fill:none;stroke:#000000;stroke-width:50;stroke-linecap:round;stroke-linejoin:round;" transform="scale(1, 1) translate(0, 0)">
    <path d="M 171.0,287.0 L 236.0,334.0 L 258.0,372.0"/>
    <path d="M 112.0,470.0 L 176.0,527.0 L 189.0,551.0"/>
    <path d="M 144.0,961.0 L 133.0,933.0 L 130.0,886.0 L 245.0,668.0"/>
    <path d="M 311.0,299.0 L 333.0,320.0 L 338.0,333.0 L 369.0,494.0"/>
    <path d="M 363.0,322.0 L 371.0,311.0 L 491.0,287.0 L 526.0,289.0 L 548.0,305.0 L 553.0,313.0 L 534.0,395.0 L 511.0,462.0 L 515.0,479.0"/>
    <path d="M 374.0,401.0 L 426.0,381.0 L 469.0,381.0"/>
    <path d="M 384.0,473.0 L 394.0,464.0 L 426.0,455.0 L 484.0,447.0"/>
    <path d="M 419.0,489.0 L 458.0,531.0"/>
    <path d="M 252.0,581.0 L 288.0,589.0 L 480.0,546.0 L 551.0,544.0"/>
    <path d="M 303.0,640.0 L 332.0,667.0 L 356.0,764.0"/>
    <path d="M 349.0,640.0 L 358.0,647.0 L 473.0,616.0 L 491.0,617.0 L 514.0,639.0 L 500.0,681.0 L 480.0,696.0"/>
    <path d="M 369.0,743.0 L 386.0,734.0 L 468.0,717.0 L 521.0,719.0"/>
    <path d="M 412.0,749.0 L 434.0,772.0 L 432.0,924.0 L 413.0,950.0 L 347.0,919.0"/>
    <path d="M 309.0,798.0 L 296.0,846.0 L 261.0,918.0"/>
    <path d="M 490.0,798.0 L 542.0,848.0 L 549.0,868.0"/>
    <path d="M 629.0,339.0 L 661.0,345.0 L 723.0,338.0 L 821.0,313.0 L 884.0,308.0"/>
    <path d="M 686.0,368.0 L 705.0,392.0 L 674.0,462.0 L 647.0,498.0"/>
    <path d="M 583.0,498.0 L 606.0,522.0 L 612.0,548.0 L 613.0,678.0 L 601.0,775.0 L 604.0,812.0"/>
    <path d="M 628.0,511.0 L 643.0,517.0 L 658.0,514.0 L 790.0,477.0 L 811.0,482.0 L 838.0,511.0 L 833.0,562.0 L 837.0,764.0 L 831.0,824.0"/>
    <path d="M 671.0,587.0 L 690.0,594.0 L 719.0,619.0 L 715.0,771.0 L 693.0,867.0 L 674.0,907.0 L 631.0,955.0 L 559.0,1001.0 L 525.0,1013.0"/>
    <path d="M 768.0,872.0 L 863.0,955.0 L 880.0,984.0 L 888.0,1014.0"/>
  </g>
</svg>
