<svg xmlns="http://www.w3.org/2000/svg" viewBox="0 0 1024 1024">
  <g style="fill:none;stroke:#000000;stroke-width:50;stroke-linecap:round;stroke-linejoin:round;" transform="scale(1, 1) translate(0, 0)">
    <path d="M 161.0,259.0 L 241.0,302.0 L 264.0,333.0"/>
    <path d="M 104.0,456.0 L 173.0,500.0 L 193.0,527.0"/>
    <path d="M 175.0,972.0 L 158.0,944.0 L 150.0,897.0 L 238.0,652.0"/>
    <path d="M 534.0,172.0 L 568.0,192.0 L 595.0,218.0"/>
    <path d="M 483.0,286.0 L 528.0,290.0 L 621.0,269.0 L 669.0,266.0"/>
    <path d="M 498.0,361.0 L 539.0,360.0 L 633.0,344.0"/>
    <path d="M 495.0,425.0 L 516.0,428.0 L 622.0,410.0 L 635.0,413.0"/>
    <path d="M 476.0,491.0 L 502.0,518.0 L 521.0,604.0"/>
    <path d="M 520.0,493.0 L 533.0,499.0 L 597.0,479.0 L 626.0,482.0 L 638.0,498.0 L 636.0,509.0 L 625.0,535.0 L 606.0,548.0"/>
    <path d="M 535.0,587.0 L 592.0,568.0 L 645.0,571.0"/>
    <path d="M 352.0,219.0 L 371.0,252.0 L 309.0,360.0 L 295.0,397.0 L 364.0,395.0"/>
    <path d="M 423.0,302.0 L 436.0,329.0 L 388.0,403.0 L 344.0,454.0 L 338.0,486.0 L 362.0,488.0 L 422.0,467.0"/>
    <path d="M 427.0,426.0 L 453.0,477.0"/>
    <path d="M 293.0,556.0 L 298.0,586.0 L 295.0,666.0"/>
    <path d="M 358.0,552.0 L 375.0,588.0 L 378.0,612.0"/>
    <path d="M 426.0,523.0 L 443.0,553.0 L 448.0,576.0"/>
    <path d="M 736.0,199.0 L 756.0,232.0 L 699.0,329.0 L 691.0,354.0 L 709.0,358.0 L 764.0,351.0"/>
    <path d="M 820.0,274.0 L 832.0,300.0 L 795.0,352.0 L 744.0,407.0 L 738.0,436.0 L 765.0,439.0 L 826.0,425.0"/>
    <path d="M 824.0,387.0 L 862.0,443.0"/>
    <path d="M 702.0,518.0 L 725.0,572.0"/>
    <path d="M 766.0,503.0 L 795.0,555.0"/>
    <path d="M 831.0,482.0 L 875.0,528.0 L 884.0,563.0"/>
    <path d="M 441.0,657.0 L 478.0,659.0 L 651.0,619.0 L 673.0,622.0 L 695.0,648.0 L 682.0,675.0 L 657.0,692.0"/>
    <path d="M 473.0,756.0 L 489.0,745.0 L 645.0,716.0 L 685.0,715.0 L 707.0,721.0"/>
    <path d="M 428.0,718.0 L 443.0,736.0 L 449.0,758.0 L 422.0,833.0 L 422.0,851.0 L 448.0,855.0 L 551.0,824.0 L 705.0,797.0 L 728.0,805.0 L 751.0,828.0 L 698.0,967.0 L 657.0,1028.0 L 622.0,1044.0 L 558.0,1010.0 L 537.0,1005.0"/>
  </g>
</svg>
