<svg xmlns="http://www.w3.org/2000/svg" viewBox="0 0 1024 1024">
  <g style="fill:none;stroke:#000000;stroke-width:50;stroke-linecap:round;stroke-linejoin:round;" transform="scale(1, 1) translate(0, 0)">
    <path d="M 244.0,359.0 L 286.0,371.0 L 314.0,370.0 L 712.0,317.0 L 788.0,328.0"/>
    <path d="M 207.0,560.0 L 301.0,630.0 L 325.0,678.0"/>
    <path d="M 742.0,459.0 L 757.0,478.0 L 763.0,499.0 L 612.0,639.0"/>
    <path d="M 444.0,380.0 L 486.0,400.0 L 504.0,418.0 L 509.0,435.0 L 488.0,672.0 L 465.0,763.0 L 449.0,802.0 L 394.0,879.0 L 339.0,922.0 L 237.0,977.0 L 169.0,997.0"/>
    <path d="M 518.0,690.0 L 522.0,717.0 L 597.0,814.0 L 691.0,924.0 L 737.0,966.0 L 767.0,978.0 L 916.0,1011.0"/>
  </g>
</svg>
