<svg xmlns="http://www.w3.org/2000/svg" viewBox="0 0 1024 1024">
  <g style="fill:none;stroke:#000000;stroke-width:50;stroke-linecap:round;stroke-linejoin:round;" transform="scale(1, 1) translate(0, 0)">
    <path d="M 235.0,458.0 L 274.0,467.0 L 315.0,465.0 L 471.0,441.0 L 666.0,401.0 L 736.0,392.0 L 796.0,400.0"/>
    <path d="M 430.0,187.0 L 463.0,213.0 L 479.0,233.0 L 478.0,244.0 L 456.0,375.0 L 426.0,464.0 L 395.0,532.0 L 335.0,636.0 L 269.0,723.0 L 187.0,803.0 L 99.0,864.0"/>
    <path d="M 386.0,673.0 L 439.0,720.0 L 449.0,739.0"/>
    <path d="M 730.0,533.0 L 751.0,555.0 L 759.0,576.0 L 729.0,610.0 L 626.0,700.0"/>
    <path d="M 515.0,527.0 L 552.0,564.0 L 551.0,628.0 L 534.0,733.0 L 492.0,841.0 L 460.0,893.0 L 426.0,930.0 L 339.0,986.0 L 271.0,1013.0"/>
    <path d="M 558.0,766.0 L 561.0,789.0 L 641.0,875.0 L 705.0,935.0 L 790.0,998.0 L 926.0,1012.0"/>
  </g>
</svg>
