<svg xmlns="http://www.w3.org/2000/svg" viewBox="0 0 1024 1024">
  <g style="fill:none;stroke:#000000;stroke-width:50;stroke-linecap:round;stroke-linejoin:round;" transform="scale(1, 1) translate(0, 0)">
    <path d="M 127.0,486.0 L 139.0,558.0 L 137.0,668.0"/>
    <path d="M 393.0,380.0 L 409.0,401.0 L 413.0,419.0 L 375.0,458.0 L 320.0,501.0 L 308.0,520.0"/>
    <path d="M 234.0,261.0 L 262.0,279.0 L 287.0,307.0 L 283.0,539.0 L 265.0,743.0 L 242.0,829.0 L 210.0,898.0 L 169.0,950.0 L 128.0,981.0 L 75.0,1009.0"/>
    <path d="M 296.0,725.0 L 307.0,746.0 L 362.0,795.0 L 379.0,836.0"/>
    <path d="M 616.0,291.0 L 669.0,334.0 L 671.0,358.0 L 660.0,765.0 L 657.0,787.0 L 639.0,808.0"/>
    <path d="M 445.0,626.0 L 467.0,649.0 L 483.0,682.0 L 485.0,726.0 L 472.0,870.0 L 520.0,867.0 L 659.0,830.0 L 806.0,807.0 L 822.0,791.0"/>
    <path d="M 841.0,582.0 L 876.0,627.0 L 850.0,876.0"/>
  </g>
</svg>
