<svg xmlns="http://www.w3.org/2000/svg" viewBox="0 0 1024 1024">
  <g style="fill:none;stroke:#000000;stroke-width:50;stroke-linecap:round;stroke-linejoin:round;" transform="scale(1, 1) translate(0, 0)">
    <path d="M 126.0,494.0 L 133.0,574.0 L 121.0,648.0 L 122.0,677.0"/>
    <path d="M 402.0,392.0 L 421.0,432.0 L 316.0,510.0 L 309.0,525.0"/>
    <path d="M 231.0,261.0 L 259.0,279.0 L 283.0,307.0 L 284.0,494.0 L 273.0,680.0 L 261.0,774.0 L 235.0,858.0 L 190.0,934.0 L 136.0,984.0 L 71.0,1021.0"/>
    <path d="M 300.0,729.0 L 309.0,743.0 L 365.0,784.0 L 390.0,826.0"/>
    <path d="M 459.0,614.0 L 528.0,621.0 L 749.0,572.0 L 820.0,568.0"/>
    <path d="M 570.0,269.0 L 629.0,315.0 L 631.0,336.0 L 617.0,847.0 L 596.0,868.0"/>
    <path d="M 370.0,914.0 L 426.0,924.0 L 586.0,899.0 L 810.0,874.0 L 871.0,878.0 L 917.0,893.0"/>
  </g>
</svg>
