<svg xmlns="http://www.w3.org/2000/svg" viewBox="0 0 1024 1024">
  <g style="fill:none;stroke:#000000;stroke-width:50;stroke-linecap:round;stroke-linejoin:round;" transform="scale(1, 1) translate(0, 0)">
    <path d="M 138.0,469.0 L 163.0,549.0 L 175.0,637.0"/>
    <path d="M 409.0,366.0 L 426.0,397.0 L 337.0,486.0 L 335.0,501.0"/>
    <path d="M 254.0,246.0 L 293.0,274.0 L 308.0,297.0 L 304.0,517.0 L 287.0,710.0 L 255.0,820.0 L 221.0,884.0 L 178.0,932.0 L 135.0,965.0 L 95.0,985.0"/>
    <path d="M 317.0,699.0 L 378.0,756.0 L 391.0,786.0"/>
    <path d="M 614.0,245.0 L 697.0,288.0 L 734.0,333.0"/>
    <path d="M 573.0,466.0 L 584.0,474.0 L 603.0,474.0 L 771.0,431.0 L 805.0,437.0 L 829.0,463.0 L 801.0,560.0 L 776.0,572.0"/>
    <path d="M 576.0,650.0 L 587.0,643.0 L 768.0,608.0 L 817.0,607.0 L 839.0,614.0"/>
    <path d="M 503.0,457.0 L 540.0,487.0 L 546.0,507.0 L 542.0,646.0 L 522.0,765.0 L 496.0,838.0 L 472.0,885.0 L 441.0,927.0 L 388.0,975.0 L 354.0,994.0"/>
  </g>
</svg>
