<svg xmlns="http://www.w3.org/2000/svg" viewBox="0 0 1024 1024">
  <g style="fill:none;stroke:#000000;stroke-width:50;stroke-linecap:round;stroke-linejoin:round;" transform="scale(1, 1) translate(0, 0)">
    <path d="M 169.0,477.0 L 171.0,541.0 L 156.0,651.0"/>
    <path d="M 416.0,406.0 L 425.0,443.0 L 347.0,496.0 L 320.0,524.0"/>
    <path d="M 247.0,273.0 L 275.0,290.0 L 299.0,317.0 L 291.0,577.0 L 270.0,749.0 L 245.0,825.0 L 203.0,897.0 L 167.0,934.0 L 95.0,977.0"/>
    <path d="M 304.0,728.0 L 313.0,741.0 L 385.0,792.0 L 408.0,833.0"/>
    <path d="M 576.0,221.0 L 604.0,243.0 L 617.0,264.0 L 603.0,318.0 L 564.0,418.0 L 519.0,507.0 L 449.0,609.0"/>
    <path d="M 551.0,504.0 L 743.0,450.0 L 788.0,447.0 L 815.0,473.0 L 742.0,564.0"/>
    <path d="M 559.0,562.0 L 583.0,580.0 L 598.0,603.0 L 581.0,712.0 L 551.0,807.0 L 516.0,865.0 L 465.0,918.0 L 417.0,953.0 L 373.0,974.0"/>
    <path d="M 616.0,708.0 L 620.0,735.0 L 637.0,759.0 L 720.0,866.0 L 797.0,948.0 L 825.0,962.0 L 956.0,995.0"/>
  </g>
</svg>
