<svg xmlns="http://www.w3.org/2000/svg" viewBox="0 0 1024 1024">
  <g style="fill:none;stroke:#000000;stroke-width:50;stroke-linecap:round;stroke-linejoin:round;" transform="scale(1, 1) translate(0, 0)">
    <path d="M 165.0,447.0 L 170.0,495.0 L 156.0,615.0"/>
    <path d="M 406.0,350.0 L 424.0,382.0 L 331.0,470.0 L 327.0,484.0 L 316.0,491.0"/>
    <path d="M 247.0,233.0 L 275.0,250.0 L 299.0,276.0 L 291.0,543.0 L 270.0,713.0 L 245.0,789.0 L 203.0,861.0 L 167.0,898.0 L 95.0,941.0"/>
    <path d="M 304.0,692.0 L 313.0,705.0 L 385.0,756.0 L 408.0,797.0"/>
    <path d="M 588.0,240.0 L 608.0,251.0 L 636.0,285.0 L 627.0,394.0 L 622.0,637.0 L 629.0,678.0"/>
    <path d="M 491.0,492.0 L 482.0,557.0 L 451.0,652.0"/>
    <path d="M 753.0,415.0 L 866.0,484.0 L 896.0,516.0 L 913.0,550.0"/>
    <path d="M 734.0,557.0 L 755.0,590.0 L 757.0,608.0 L 717.0,714.0 L 639.0,846.0 L 591.0,904.0 L 542.0,951.0 L 437.0,1030.0 L 337.0,1086.0"/>
  </g>
</svg>
