<svg xmlns="http://www.w3.org/2000/svg" viewBox="0 0 1024 1024">
  <g style="fill:none;stroke:#000000;stroke-width:50;stroke-linecap:round;stroke-linejoin:round;" transform="scale(1, 1) translate(0, 0)">
    <path d="M 272.0,314.0 L 328.0,362.0 L 349.0,385.0 L 353.0,399.0"/>
    <path d="M 682.0,228.0 L 701.0,268.0 L 609.0,337.0 L 597.0,338.0 L 595.0,346.0"/>
    <path d="M 463.0,210.0 L 492.0,234.0 L 499.0,245.0 L 498.0,261.0 L 479.0,363.0 L 444.0,457.0 L 415.0,501.0 L 383.0,535.0 L 342.0,567.0 L 285.0,595.0"/>
    <path d="M 545.0,428.0 L 649.0,483.0 L 675.0,521.0"/>
    <path d="M 226.0,687.0 L 298.0,742.0 L 323.0,780.0"/>
    <path d="M 711.0,582.0 L 725.0,607.0 L 728.0,626.0 L 586.0,712.0"/>
    <path d="M 437.0,575.0 L 477.0,613.0 L 474.0,672.0 L 450.0,779.0 L 413.0,859.0 L 365.0,920.0 L 302.0,968.0 L 235.0,1001.0 L 155.0,1025.0"/>
    <path d="M 500.0,720.0 L 503.0,745.0 L 560.0,815.0 L 675.0,937.0 L 748.0,996.0 L 770.0,1009.0 L 938.0,1031.0"/>
  </g>
</svg>
