<svg xmlns="http://www.w3.org/2000/svg" viewBox="0 0 1024 1024">
  <g style="fill:none;stroke:#000000;stroke-width:50;stroke-linecap:round;stroke-linejoin:round;" transform="scale(1, 1) translate(0, 0)">
    <path d="M 134.0,479.0 L 135.0,553.0 L 120.0,651.0"/>
    <path d="M 402.0,452.0 L 369.0,447.0 L 291.0,521.0 L 283.0,539.0"/>
    <path d="M 216.0,267.0 L 241.0,283.0 L 263.0,309.0 L 254.0,610.0 L 232.0,785.0 L 206.0,864.0 L 169.0,925.0 L 132.0,961.0 L 59.0,1007.0"/>
    <path d="M 266.0,764.0 L 346.0,832.0 L 367.0,874.0"/>
    <path d="M 441.0,517.0 L 476.0,520.0 L 542.0,508.0 L 691.0,467.0 L 721.0,472.0 L 753.0,498.0 L 720.0,609.0 L 691.0,637.0"/>
    <path d="M 365.0,700.0 L 411.0,706.0 L 637.0,666.0 L 820.0,645.0 L 901.0,660.0"/>
    <path d="M 537.0,271.0 L 563.0,289.0 L 586.0,318.0 L 564.0,663.0 L 547.0,777.0 L 515.0,865.0 L 475.0,926.0 L 421.0,970.0 L 335.0,1009.0"/>
    <path d="M 587.0,713.0 L 593.0,743.0 L 620.0,778.0 L 708.0,883.0 L 766.0,939.0 L 817.0,959.0 L 925.0,984.0"/>
  </g>
</svg>
