<svg xmlns="http://www.w3.org/2000/svg" viewBox="0 0 1024 1024">
  <g style="fill:none;stroke:#000000;stroke-width:50;stroke-linecap:round;stroke-linejoin:round;" transform="scale(1, 1) translate(0, 0)">
    <path d="M 134.0,475.0 L 136.0,552.0 L 120.0,655.0"/>
    <path d="M 356.0,407.0 L 367.0,438.0 L 298.0,494.0 L 291.0,517.0"/>
    <path d="M 212.0,269.0 L 239.0,287.0 L 263.0,313.0 L 259.0,556.0 L 250.0,684.0 L 234.0,790.0 L 205.0,864.0 L 164.0,919.0 L 107.0,960.0 L 51.0,986.0"/>
    <path d="M 268.0,774.0 L 342.0,826.0 L 366.0,863.0"/>
    <path d="M 456.0,472.0 L 495.0,476.0 L 537.0,471.0 L 691.0,427.0 L 765.0,418.0"/>
    <path d="M 440.0,564.0 L 471.0,612.0 L 459.0,741.0 L 500.0,739.0 L 637.0,690.0 L 699.0,674.0 L 715.0,657.0"/>
    <path d="M 743.0,518.0 L 761.0,538.0 L 771.0,564.0 L 736.0,730.0"/>
    <path d="M 562.0,227.0 L 593.0,249.0 L 619.0,280.0 L 598.0,785.0 L 605.0,869.0 L 628.0,939.0 L 663.0,970.0 L 723.0,986.0 L 818.0,986.0 L 890.0,969.0 L 924.0,948.0 L 930.0,804.0"/>
  </g>
</svg>
