<svg xmlns="http://www.w3.org/2000/svg" viewBox="0 0 1024 1024">
  <g style="fill:none;stroke:#000000;stroke-width:50;stroke-linecap:round;stroke-linejoin:round;" transform="scale(1, 1) translate(0, 0)">
    <path d="M 110.0,473.0 L 129.0,528.0 L 146.0,637.0"/>
    <path d="M 438.0,420.0 L 401.0,415.0 L 334.0,479.0 L 306.0,497.0 L 294.0,517.0"/>
    <path d="M 224.0,253.0 L 251.0,271.0 L 275.0,297.0 L 269.0,552.0 L 251.0,741.0 L 221.0,854.0 L 195.0,905.0 L 153.0,955.0 L 86.0,1002.0"/>
    <path d="M 280.0,747.0 L 289.0,761.0 L 326.0,787.0 L 360.0,821.0 L 377.0,862.0"/>
    <path d="M 561.0,228.0 L 650.0,290.0 L 675.0,333.0"/>
    <path d="M 425.0,467.0 L 473.0,472.0 L 642.0,431.0 L 785.0,406.0 L 842.0,406.0 L 887.0,417.0"/>
    <path d="M 572.0,476.0 L 594.0,495.0 L 599.0,512.0 L 511.0,635.0 L 493.0,673.0 L 515.0,680.0 L 584.0,682.0 L 624.0,681.0 L 639.0,673.0"/>
    <path d="M 713.0,548.0 L 734.0,594.0 L 645.0,716.0 L 528.0,848.0 L 504.0,886.0 L 500.0,909.0 L 542.0,908.0 L 735.0,854.0 L 746.0,861.0"/>
    <path d="M 711.0,766.0 L 820.0,897.0 L 836.0,930.0 L 840.0,975.0"/>
  </g>
</svg>
