<svg xmlns="http://www.w3.org/2000/svg" viewBox="0 0 1024 1024">
  <g style="fill:none;stroke:#000000;stroke-width:50;stroke-linecap:round;stroke-linejoin:round;" transform="scale(1, 1) translate(0, 0)">
    <path d="M 444.0,192.0 L 467.0,215.0 L 478.0,240.0 L 477.0,256.0 L 458.0,279.0 L 325.0,396.0 L 313.0,430.0 L 355.0,435.0 L 522.0,397.0 L 636.0,382.0 L 673.0,380.0 L 694.0,391.0"/>
    <path d="M 643.0,310.0 L 749.0,395.0 L 771.0,439.0"/>
    <path d="M 310.0,511.0 L 343.0,536.0 L 383.0,681.0"/>
    <path d="M 379.0,540.0 L 387.0,528.0 L 620.0,483.0 L 640.0,491.0 L 661.0,517.0 L 641.0,573.0 L 616.0,586.0"/>
    <path d="M 398.0,635.0 L 414.0,644.0 L 608.0,619.0 L 650.0,620.0 L 675.0,628.0"/>
    <path d="M 233.0,753.0 L 312.0,808.0 L 338.0,850.0"/>
    <path d="M 746.0,678.0 L 760.0,717.0 L 623.0,816.0"/>
    <path d="M 465.0,698.0 L 488.0,711.0 L 505.0,731.0 L 483.0,841.0 L 448.0,913.0 L 405.0,962.0 L 338.0,1007.0 L 286.0,1029.0 L 209.0,1045.0"/>
    <path d="M 526.0,823.0 L 528.0,840.0 L 596.0,906.0 L 719.0,1007.0 L 820.0,1031.0 L 902.0,1041.0"/>
  </g>
</svg>
