<svg xmlns="http://www.w3.org/2000/svg" viewBox="0 0 1024 1024">
  <g style="fill:none;stroke:#000000;stroke-width:50;stroke-linecap:round;stroke-linejoin:round;" transform="scale(1, 1) translate(0, 0)">
    <path d="M 154.0,435.0 L 159.0,494.0 L 147.0,602.0"/>
    <path d="M 385.0,358.0 L 402.0,389.0 L 331.0,459.0 L 321.0,480.0"/>
    <path d="M 250.0,212.0 L 299.0,255.0 L 291.0,547.0 L 270.0,734.0 L 243.0,818.0 L 205.0,882.0 L 134.0,945.0 L 79.0,973.0"/>
    <path d="M 303.0,706.0 L 318.0,723.0 L 378.0,764.0 L 402.0,803.0"/>
    <path d="M 562.0,188.0 L 580.0,201.0 L 601.0,234.0 L 570.0,306.0 L 465.0,484.0 L 404.0,562.0 L 378.0,585.0"/>
    <path d="M 525.0,447.0 L 611.0,442.0 L 846.0,386.0 L 900.0,383.0"/>
    <path d="M 602.0,470.0 L 630.0,493.0 L 636.0,505.0 L 629.0,867.0 L 621.0,981.0 L 636.0,1069.0"/>
    <path d="M 666.0,606.0 L 783.0,576.0 L 834.0,580.0"/>
    <path d="M 665.0,766.0 L 699.0,752.0 L 813.0,734.0 L 841.0,734.0 L 861.0,741.0"/>
  </g>
</svg>
