<svg xmlns="http://www.w3.org/2000/svg" viewBox="0 0 1024 1024">
  <g style="fill:none;stroke:#000000;stroke-width:50;stroke-linecap:round;stroke-linejoin:round;" transform="scale(1, 1) translate(0, 0)">
    <path d="M 142.0,442.0 L 151.0,502.0 L 143.0,628.0"/>
    <path d="M 432.0,431.0 L 400.0,422.0 L 325.0,489.0 L 316.0,511.0"/>
    <path d="M 240.0,241.0 L 267.0,259.0 L 291.0,285.0 L 285.0,554.0 L 268.0,738.0 L 241.0,832.0 L 202.0,909.0 L 146.0,961.0 L 83.0,997.0"/>
    <path d="M 300.0,728.0 L 316.0,749.0 L 372.0,797.0 L 391.0,838.0"/>
    <path d="M 494.0,335.0 L 558.0,336.0 L 682.0,299.0 L 706.0,304.0 L 718.0,317.0 L 656.0,447.0 L 591.0,533.0 L 538.0,581.0 L 487.0,617.0 L 426.0,646.0 L 380.0,658.0"/>
    <path d="M 666.0,485.0 L 668.0,492.0 L 722.0,517.0 L 818.0,577.0 L 844.0,602.0 L 866.0,641.0"/>
    <path d="M 493.0,698.0 L 568.0,700.0 L 732.0,663.0 L 789.0,661.0"/>
    <path d="M 608.0,717.0 L 634.0,741.0 L 635.0,749.0 L 628.0,875.0 L 609.0,889.0"/>
    <path d="M 382.0,932.0 L 439.0,941.0 L 613.0,919.0 L 832.0,903.0 L 863.0,907.0 L 915.0,926.0"/>
  </g>
</svg>
