<svg xmlns="http://www.w3.org/2000/svg" viewBox="0 0 1024 1024">
  <g style="fill:none;stroke:#000000;stroke-width:50;stroke-linecap:round;stroke-linejoin:round;" transform="scale(1, 1) translate(0, 0)">
    <path d="M 314.0,461.0 L 331.0,474.0 L 404.0,470.0 L 594.0,435.0 L 724.0,401.0 L 774.0,403.0"/>
    <path d="M 243.0,442.0 L 264.0,458.0 L 281.0,490.0 L 274.0,595.0 L 248.0,744.0 L 213.0,852.0 L 172.0,937.0 L 100.0,1031.0"/>
    <path d="M 339.0,609.0 L 398.0,611.0 L 478.0,588.0 L 550.0,579.0"/>
    <path d="M 293.0,754.0 L 345.0,801.0 L 357.0,826.0"/>
    <path d="M 574.0,699.0 L 541.0,695.0 L 482.0,746.0 L 469.0,749.0 L 453.0,768.0"/>
    <path d="M 401.0,640.0 L 436.0,675.0 L 427.0,776.0 L 406.0,857.0 L 381.0,904.0 L 350.0,942.0 L 273.0,996.0"/>
    <path d="M 439.0,840.0 L 446.0,864.0 L 523.0,930.0 L 544.0,974.0"/>
    <path d="M 480.0,189.0 L 512.0,200.0 L 548.0,229.0 L 572.0,408.0 L 625.0,634.0 L 659.0,734.0 L 692.0,808.0 L 765.0,928.0 L 815.0,983.0 L 850.0,1011.0 L 877.0,1024.0 L 908.0,1029.0 L 928.0,980.0 L 949.0,855.0"/>
    <path d="M 750.0,552.0 L 779.0,597.0 L 738.0,727.0 L 710.0,787.0 L 666.0,855.0 L 615.0,909.0 L 592.0,925.0"/>
    <path d="M 683.0,239.0 L 765.0,279.0 L 797.0,320.0"/>
  </g>
</svg>
