<svg xmlns="http://www.w3.org/2000/svg" viewBox="0 0 1024 1024">
  <g style="fill:none;stroke:#000000;stroke-width:50;stroke-linecap:round;stroke-linejoin:round;" transform="scale(1, 1) translate(0, 0)">
    <path d="M 142.0,431.0 L 145.0,526.0 L 131.0,614.0"/>
    <path d="M 387.0,354.0 L 404.0,385.0 L 303.0,488.0"/>
    <path d="M 223.0,229.0 L 242.0,239.0 L 275.0,274.0 L 275.0,448.0 L 259.0,724.0 L 238.0,797.0 L 195.0,875.0 L 159.0,912.0 L 87.0,955.0"/>
    <path d="M 293.0,695.0 L 309.0,714.0 L 360.0,748.0 L 383.0,783.0"/>
    <path d="M 412.0,483.0 L 441.0,504.0 L 450.0,522.0 L 491.0,689.0"/>
    <path d="M 469.0,484.0 L 488.0,494.0 L 630.0,470.0 L 724.0,445.0 L 747.0,444.0 L 768.0,451.0 L 797.0,478.0 L 765.0,574.0 L 741.0,588.0"/>
    <path d="M 511.0,667.0 L 527.0,654.0 L 720.0,618.0 L 790.0,624.0"/>
    <path d="M 567.0,226.0 L 619.0,267.0 L 622.0,295.0 L 613.0,812.0 L 596.0,832.0"/>
    <path d="M 381.0,890.0 L 429.0,910.0 L 444.0,909.0 L 689.0,833.0 L 754.0,815.0 L 769.0,818.0"/>
    <path d="M 735.0,723.0 L 805.0,810.0 L 845.0,873.0 L 856.0,901.0 L 857.0,944.0"/>
  </g>
</svg>
