<svg xmlns="http://www.w3.org/2000/svg" viewBox="0 0 1024 1024">
  <g style="fill:none;stroke:#000000;stroke-width:50;stroke-linecap:round;stroke-linejoin:round;" transform="scale(1, 1) translate(0, 0)">
    <path d="M 142.0,463.0 L 144.0,540.0 L 128.0,643.0"/>
    <path d="M 376.0,382.0 L 393.0,413.0 L 336.0,475.0 L 304.0,499.0 L 293.0,522.0"/>
    <path d="M 211.0,246.0 L 239.0,263.0 L 265.0,291.0 L 266.0,491.0 L 256.0,693.0 L 248.0,744.0 L 219.0,841.0 L 183.0,904.0 L 112.0,967.0 L 55.0,997.0"/>
    <path d="M 277.0,750.0 L 289.0,765.0 L 354.0,806.0 L 378.0,843.0"/>
    <path d="M 490.0,334.0 L 521.0,339.0 L 577.0,335.0 L 727.0,297.0 L 796.0,292.0"/>
    <path d="M 442.0,505.0 L 468.0,527.0 L 476.0,547.0 L 520.0,793.0"/>
    <path d="M 496.0,510.0 L 515.0,520.0 L 586.0,497.0 L 743.0,464.0 L 781.0,471.0 L 797.0,485.0 L 812.0,504.0 L 792.0,573.0 L 775.0,668.0 L 750.0,743.0 L 756.0,777.0"/>
    <path d="M 527.0,643.0 L 534.0,631.0 L 618.0,610.0 L 655.0,606.0 L 680.0,611.0"/>
    <path d="M 541.0,759.0 L 551.0,748.0 L 572.0,741.0 L 708.0,722.0"/>
    <path d="M 383.0,942.0 L 440.0,952.0 L 626.0,923.0 L 846.0,901.0 L 897.0,908.0 L 939.0,923.0"/>
  </g>
</svg>
