<svg xmlns="http://www.w3.org/2000/svg" viewBox="0 0 1024 1024">
  <g style="fill:none;stroke:#000000;stroke-width:50;stroke-linecap:round;stroke-linejoin:round;" transform="scale(1, 1) translate(0, 0)">
    <path d="M 143.0,443.0 L 156.0,525.0 L 153.0,624.0"/>
    <path d="M 397.0,352.0 L 414.0,385.0 L 318.0,470.0 L 314.0,488.0"/>
    <path d="M 231.0,245.0 L 260.0,263.0 L 283.0,288.0 L 280.0,542.0 L 267.0,676.0 L 255.0,738.0 L 229.0,813.0 L 191.0,873.0 L 132.0,925.0 L 79.0,953.0"/>
    <path d="M 289.0,714.0 L 304.0,732.0 L 369.0,779.0 L 394.0,822.0"/>
    <path d="M 572.0,232.0 L 607.0,267.0 L 584.0,340.0 L 560.0,392.0 L 501.0,490.0 L 462.0,541.0 L 365.0,635.0"/>
    <path d="M 631.0,321.0 L 633.0,343.0 L 667.0,385.0 L 737.0,463.0 L 818.0,539.0 L 850.0,553.0 L 977.0,576.0"/>
    <path d="M 491.0,588.0 L 549.0,591.0 L 653.0,563.0 L 702.0,563.0"/>
    <path d="M 436.0,724.0 L 464.0,730.0 L 494.0,726.0 L 743.0,679.0 L 786.0,680.0 L 833.0,690.0"/>
    <path d="M 613.0,750.0 L 582.0,760.0 L 544.0,834.0 L 503.0,886.0 L 523.0,893.0 L 530.0,926.0 L 691.0,883.0 L 708.0,884.0 L 718.0,875.0 L 731.0,885.0"/>
    <path d="M 703.0,795.0 L 799.0,913.0 L 818.0,965.0 L 817.0,990.0"/>
  </g>
</svg>
