<svg xmlns="http://www.w3.org/2000/svg" viewBox="0 0 1024 1024">
  <g style="fill:none;stroke:#000000;stroke-width:50;stroke-linecap:round;stroke-linejoin:round;" transform="scale(1, 1) translate(0, 0)">
    <path d="M 142.0,430.0 L 148.0,504.0 L 137.0,575.0 L 139.0,598.0"/>
    <path d="M 367.0,344.0 L 381.0,375.0 L 303.0,450.0"/>
    <path d="M 229.0,217.0 L 255.0,234.0 L 276.0,259.0 L 276.0,476.0 L 254.0,708.0 L 235.0,779.0 L 195.0,859.0 L 146.0,915.0 L 110.0,943.0 L 91.0,949.0"/>
    <path d="M 294.0,661.0 L 297.0,674.0 L 335.0,708.0 L 345.0,734.0"/>
    <path d="M 676.0,187.0 L 691.0,227.0 L 630.0,307.0 L 540.0,384.0 L 464.0,420.0"/>
    <path d="M 496.0,263.0 L 581.0,298.0 L 701.0,359.0 L 734.0,397.0"/>
    <path d="M 356.0,540.0 L 407.0,545.0 L 617.0,502.0 L 814.0,472.0 L 888.0,486.0"/>
    <path d="M 545.0,420.0 L 568.0,448.0 L 566.0,458.0 L 542.0,526.0 L 505.0,598.0 L 402.0,749.0 L 351.0,801.0 L 298.0,843.0"/>
    <path d="M 478.0,687.0 L 472.0,848.0 L 479.0,882.0"/>
    <path d="M 488.0,680.0 L 513.0,691.0 L 757.0,650.0 L 784.0,660.0 L 795.0,673.0 L 797.0,789.0 L 784.0,847.0 L 766.0,854.0 L 687.0,832.0"/>
    <path d="M 587.0,563.0 L 602.0,572.0 L 624.0,599.0 L 623.0,1090.0"/>
  </g>
</svg>
