<svg xmlns="http://www.w3.org/2000/svg" viewBox="0 0 1024 1024">
  <g style="fill:none;stroke:#000000;stroke-width:50;stroke-linecap:round;stroke-linejoin:round;" transform="scale(1, 1) translate(0, 0)">
    <path d="M 463.0,181.0 L 550.0,230.0 L 569.0,259.0"/>
    <path d="M 206.0,356.0 L 253.0,364.0 L 429.0,335.0 L 776.0,298.0 L 802.0,300.0 L 853.0,317.0"/>
    <path d="M 346.0,416.0 L 374.0,433.0 L 419.0,562.0"/>
    <path d="M 403.0,433.0 L 421.0,421.0 L 512.0,407.0 L 598.0,385.0 L 616.0,386.0 L 629.0,392.0 L 646.0,420.0 L 629.0,462.0 L 610.0,469.0"/>
    <path d="M 430.0,539.0 L 445.0,524.0 L 594.0,499.0 L 647.0,507.0"/>
    <path d="M 314.0,618.0 L 335.0,628.0 L 374.0,631.0 L 578.0,577.0 L 610.0,579.0 L 636.0,606.0 L 623.0,625.0 L 576.0,666.0 L 569.0,682.0"/>
    <path d="M 487.0,667.0 L 524.0,681.0 L 546.0,707.0 L 561.0,767.0 L 556.0,827.0 L 543.0,856.0 L 527.0,871.0 L 444.0,841.0"/>
    <path d="M 258.0,874.0 L 231.0,948.0 L 177.0,1041.0"/>
    <path d="M 387.0,900.0 L 431.0,961.0 L 443.0,991.0"/>
    <path d="M 584.0,908.0 L 630.0,957.0 L 644.0,984.0"/>
    <path d="M 718.0,849.0 L 839.0,959.0 L 865.0,1000.0 L 873.0,1038.0"/>
  </g>
</svg>
