<svg xmlns="http://www.w3.org/2000/svg" viewBox="0 0 1024 1024">
  <g style="fill:none;stroke:#000000;stroke-width:50;stroke-linecap:round;stroke-linejoin:round;" transform="scale(1, 1) translate(0, 0)">
    <path d="M 146.0,451.0 L 151.0,510.0 L 139.0,618.0"/>
    <path d="M 386.0,380.0 L 398.0,413.0 L 310.0,478.0 L 296.0,499.0"/>
    <path d="M 227.0,240.0 L 253.0,257.0 L 275.0,285.0 L 271.0,538.0 L 254.0,731.0 L 235.0,811.0 L 203.0,874.0 L 170.0,914.0 L 91.0,966.0"/>
    <path d="M 280.0,736.0 L 349.0,793.0 L 368.0,827.0"/>
    <path d="M 458.0,250.0 L 488.0,275.0 L 536.0,498.0"/>
    <path d="M 518.0,258.0 L 533.0,266.0 L 731.0,230.0 L 765.0,234.0 L 779.0,242.0 L 800.0,270.0 L 751.0,444.0 L 751.0,476.0"/>
    <path d="M 541.0,378.0 L 569.0,363.0 L 635.0,348.0 L 674.0,344.0 L 696.0,349.0"/>
    <path d="M 554.0,484.0 L 576.0,472.0 L 698.0,451.0 L 712.0,438.0"/>
    <path d="M 481.0,583.0 L 554.0,587.0 L 652.0,573.0 L 753.0,546.0 L 799.0,549.0"/>
    <path d="M 405.0,743.0 L 443.0,751.0 L 465.0,749.0 L 692.0,709.0 L 841.0,691.0 L 902.0,696.0 L 936.0,707.0"/>
    <path d="M 592.0,606.0 L 633.0,634.0 L 627.0,1078.0"/>
  </g>
</svg>
