<svg xmlns="http://www.w3.org/2000/svg" viewBox="0 0 1024 1024">
  <g style="fill:none;stroke:#000000;stroke-width:50;stroke-linecap:round;stroke-linejoin:round;" transform="scale(1, 1) translate(0, 0)">
    <path d="M 110.0,492.0 L 135.0,560.0 L 150.0,646.0"/>
    <path d="M 350.0,435.0 L 366.0,464.0 L 293.0,539.0"/>
    <path d="M 223.0,276.0 L 271.0,317.0 L 268.0,512.0 L 248.0,739.0 L 227.0,822.0 L 194.0,889.0 L 150.0,939.0 L 83.0,982.0"/>
    <path d="M 273.0,755.0 L 345.0,818.0 L 368.0,859.0"/>
    <path d="M 569.0,235.0 L 597.0,268.0 L 556.0,372.0 L 473.0,500.0 L 399.0,577.0 L 354.0,610.0"/>
    <path d="M 617.0,328.0 L 617.0,341.0 L 703.0,428.0 L 803.0,514.0 L 834.0,525.0 L 957.0,540.0"/>
    <path d="M 565.0,471.0 L 608.0,500.0 L 630.0,525.0"/>
    <path d="M 465.0,647.0 L 485.0,656.0 L 512.0,658.0 L 640.0,609.0 L 671.0,609.0 L 685.0,617.0 L 701.0,634.0 L 686.0,665.0 L 617.0,763.0 L 594.0,778.0"/>
    <path d="M 448.0,801.0 L 476.0,825.0 L 484.0,841.0 L 516.0,1012.0"/>
    <path d="M 505.0,804.0 L 525.0,814.0 L 692.0,775.0 L 725.0,781.0 L 751.0,806.0 L 719.0,901.0 L 693.0,920.0"/>
    <path d="M 536.0,981.0 L 548.0,968.0 L 683.0,948.0 L 738.0,948.0 L 762.0,957.0"/>
  </g>
</svg>
