<svg xmlns="http://www.w3.org/2000/svg" viewBox="0 0 1024 1024">
  <g style="fill:none;stroke:#000000;stroke-width:50;stroke-linecap:round;stroke-linejoin:round;" transform="scale(1, 1) translate(0, 0)">
    <path d="M 165.0,439.0 L 157.0,511.0 L 130.0,600.0"/>
    <path d="M 408.0,423.0 L 377.0,413.0 L 312.0,472.0 L 303.0,493.0"/>
    <path d="M 231.0,252.0 L 279.0,293.0 L 269.0,599.0 L 254.0,725.0 L 228.0,811.0 L 190.0,874.0 L 143.0,920.0 L 85.0,951.0"/>
    <path d="M 291.0,664.0 L 304.0,678.0 L 348.0,703.0 L 368.0,736.0"/>
    <path d="M 531.0,343.0 L 547.0,328.0 L 673.0,304.0 L 733.0,286.0 L 750.0,289.0 L 769.0,298.0 L 788.0,320.0 L 759.0,383.0 L 731.0,400.0"/>
    <path d="M 518.0,475.0 L 539.0,460.0 L 720.0,426.0 L 787.0,431.0"/>
    <path d="M 459.0,304.0 L 490.0,332.0 L 496.0,352.0 L 484.0,528.0 L 468.0,630.0 L 446.0,717.0 L 407.0,819.0 L 369.0,892.0 L 296.0,991.0"/>
    <path d="M 498.0,606.0 L 514.0,596.0 L 775.0,551.0 L 811.0,553.0 L 831.0,565.0 L 848.0,586.0 L 825.0,831.0 L 809.0,900.0 L 782.0,965.0 L 741.0,1000.0 L 633.0,936.0"/>
    <path d="M 490.0,690.0 L 516.0,721.0 L 541.0,871.0"/>
    <path d="M 541.0,711.0 L 562.0,699.0 L 639.0,682.0 L 664.0,682.0 L 687.0,705.0 L 673.0,754.0 L 666.0,767.0 L 648.0,778.0"/>
    <path d="M 558.0,828.0 L 572.0,817.0 L 638.0,805.0 L 694.0,811.0"/>
  </g>
</svg>
