<svg xmlns="http://www.w3.org/2000/svg" viewBox="0 0 1024 1024">
  <g style="fill:none;stroke:#000000;stroke-width:50;stroke-linecap:round;stroke-linejoin:round;" transform="scale(1, 1) translate(0, 0)">
    <path d="M 110.0,516.0 L 132.0,568.0 L 150.0,656.0"/>
    <path d="M 313.0,448.0 L 326.0,476.0 L 264.0,534.0 L 263.0,546.0"/>
    <path d="M 192.0,264.0 L 240.0,304.0 L 238.0,566.0 L 221.0,773.0 L 190.0,879.0 L 167.0,917.0 L 115.0,974.0 L 58.0,1010.0"/>
    <path d="M 251.0,718.0 L 301.0,761.0 L 316.0,787.0"/>
    <path d="M 452.0,297.0 L 511.0,327.0 L 540.0,378.0"/>
    <path d="M 398.0,382.0 L 428.0,420.0 L 430.0,491.0 L 418.0,729.0 L 404.0,846.0 L 389.0,912.0 L 388.0,956.0"/>
    <path d="M 617.0,305.0 L 656.0,313.0 L 742.0,286.0 L 785.0,280.0 L 809.0,290.0 L 834.0,314.0 L 847.0,722.0 L 847.0,929.0 L 829.0,976.0 L 788.0,968.0 L 706.0,937.0"/>
    <path d="M 481.0,634.0 L 479.0,691.0 L 465.0,751.0"/>
    <path d="M 533.0,620.0 L 544.0,639.0 L 569.0,726.0 L 604.0,763.0 L 640.0,780.0 L 712.0,785.0 L 737.0,778.0 L 758.0,764.0 L 746.0,727.0 L 709.0,663.0"/>
    <path d="M 573.0,539.0 L 601.0,570.0 L 636.0,624.0"/>
    <path d="M 684.0,542.0 L 760.0,597.0 L 782.0,641.0"/>
  </g>
</svg>
