<svg xmlns="http://www.w3.org/2000/svg" viewBox="0 0 1024 1024">
  <g style="fill:none;stroke:#000000;stroke-width:50;stroke-linecap:round;stroke-linejoin:round;" transform="scale(1, 1) translate(0, 0)">
    <path d="M 134.0,437.0 L 158.0,509.0 L 170.0,597.0"/>
    <path d="M 443.0,403.0 L 409.0,390.0 L 337.0,446.0 L 326.0,467.0"/>
    <path d="M 253.0,240.0 L 290.0,268.0 L 303.0,293.0 L 291.0,585.0 L 271.0,744.0 L 245.0,818.0 L 209.0,877.0 L 147.0,928.0 L 95.0,953.0"/>
    <path d="M 312.0,662.0 L 321.0,682.0 L 368.0,732.0 L 382.0,769.0"/>
    <path d="M 586.0,201.0 L 626.0,237.0 L 619.0,397.0 L 602.0,421.0"/>
    <path d="M 653.0,330.0 L 666.0,317.0 L 799.0,287.0 L 827.0,290.0"/>
    <path d="M 456.0,445.0 L 481.0,467.0 L 487.0,483.0 L 525.0,693.0"/>
    <path d="M 514.0,474.0 L 528.0,458.0 L 681.0,428.0 L 736.0,421.0 L 774.0,429.0 L 797.0,455.0 L 769.0,589.0 L 751.0,641.0 L 726.0,633.0"/>
    <path d="M 532.0,573.0 L 542.0,563.0 L 598.0,547.0 L 666.0,536.0 L 688.0,541.0"/>
    <path d="M 544.0,668.0 L 562.0,657.0 L 673.0,636.0 L 697.0,636.0 L 708.0,647.0"/>
    <path d="M 390.0,823.0 L 410.0,830.0 L 446.0,831.0 L 571.0,810.0 L 826.0,781.0 L 873.0,782.0 L 928.0,798.0"/>
    <path d="M 595.0,672.0 L 633.0,699.0 L 627.0,1070.0"/>
  </g>
</svg>
