<svg xmlns="http://www.w3.org/2000/svg" viewBox="0 0 1024 1024">
  <g style="fill:none;stroke:#000000;stroke-width:50;stroke-linecap:round;stroke-linejoin:round;" transform="scale(1, 1) translate(0, 0)">
    <path d="M 293.0,330.0 L 372.0,386.0 L 387.0,420.0"/>
    <path d="M 662.0,280.0 L 677.0,315.0 L 574.0,395.0"/>
    <path d="M 468.0,210.0 L 505.0,245.0 L 492.0,335.0 L 472.0,402.0 L 438.0,467.0 L 411.0,499.0 L 375.0,533.0 L 313.0,567.0"/>
    <path d="M 510.0,387.0 L 514.0,404.0 L 550.0,447.0 L 633.0,526.0 L 741.0,545.0"/>
    <path d="M 195.0,686.0 L 198.0,753.0 L 191.0,818.0"/>
    <path d="M 423.0,659.0 L 439.0,687.0 L 368.0,759.0"/>
    <path d="M 288.0,617.0 L 302.0,623.0 L 326.0,649.0 L 320.0,729.0 L 300.0,825.0 L 271.0,886.0 L 237.0,929.0 L 203.0,961.0 L 148.0,995.0"/>
    <path d="M 325.0,836.0 L 334.0,841.0 L 335.0,850.0 L 386.0,886.0 L 410.0,927.0"/>
    <path d="M 507.0,697.0 L 512.0,766.0 L 507.0,824.0"/>
    <path d="M 783.0,652.0 L 799.0,689.0 L 688.0,774.0"/>
    <path d="M 590.0,606.0 L 610.0,618.0 L 631.0,642.0 L 618.0,778.0 L 600.0,843.0 L 580.0,885.0 L 530.0,954.0 L 475.0,1003.0 L 430.0,1030.0"/>
    <path d="M 644.0,803.0 L 648.0,827.0 L 666.0,850.0 L 792.0,988.0 L 849.0,1008.0 L 929.0,1023.0"/>
  </g>
</svg>
