<svg xmlns="http://www.w3.org/2000/svg" viewBox="0 0 1024 1024">
  <g style="fill:none;stroke:#000000;stroke-width:50;stroke-linecap:round;stroke-linejoin:round;" transform="scale(1, 1) translate(0, 0)">
    <path d="M 150.0,487.0 L 152.0,563.0 L 139.0,646.0"/>
    <path d="M 389.0,379.0 L 400.0,393.0 L 404.0,412.0 L 302.0,512.0"/>
    <path d="M 234.0,229.0 L 271.0,256.0 L 284.0,277.0 L 282.0,530.0 L 259.0,766.0 L 230.0,860.0 L 200.0,913.0 L 145.0,971.0 L 83.0,1009.0"/>
    <path d="M 292.0,748.0 L 354.0,815.0 L 367.0,852.0"/>
    <path d="M 608.0,242.0 L 636.0,278.0 L 630.0,303.0 L 545.0,433.0 L 486.0,501.0 L 439.0,539.0"/>
    <path d="M 605.0,397.0 L 744.0,364.0 L 776.0,377.0 L 763.0,407.0 L 716.0,478.0 L 642.0,572.0"/>
    <path d="M 536.0,582.0 L 548.0,613.0 L 466.0,686.0"/>
    <path d="M 392.0,668.0 L 425.0,697.0 L 437.0,718.0 L 465.0,935.0 L 483.0,991.0"/>
    <path d="M 480.0,807.0 L 490.0,797.0 L 511.0,792.0 L 599.0,782.0"/>
    <path d="M 662.0,615.0 L 681.0,622.0 L 717.0,622.0 L 821.0,604.0 L 847.0,614.0 L 876.0,653.0 L 824.0,915.0 L 798.0,960.0 L 793.0,1013.0"/>
    <path d="M 677.0,769.0 L 799.0,761.0 L 818.0,747.0"/>
    <path d="M 500.0,937.0 L 512.0,946.0 L 525.0,945.0 L 751.0,917.0"/>
  </g>
</svg>
