<svg xmlns="http://www.w3.org/2000/svg" viewBox="0 0 1024 1024">
  <g style="fill:none;stroke:#000000;stroke-width:50;stroke-linecap:round;stroke-linejoin:round;" transform="scale(1, 1) translate(0, 0)">
    <path d="M 130.0,462.0 L 136.0,537.0 L 125.0,611.0 L 127.0,634.0"/>
    <path d="M 354.0,373.0 L 374.0,403.0 L 298.0,483.0 L 288.0,508.0"/>
    <path d="M 212.0,214.0 L 251.0,241.0 L 264.0,259.0 L 265.0,478.0 L 247.0,721.0 L 221.0,821.0 L 182.0,903.0 L 142.0,951.0 L 78.0,998.0"/>
    <path d="M 276.0,725.0 L 354.0,784.0 L 378.0,823.0"/>
    <path d="M 614.0,210.0 L 644.0,242.0 L 602.0,314.0 L 558.0,374.0 L 548.0,376.0 L 543.0,391.0"/>
    <path d="M 463.0,396.0 L 489.0,418.0 L 496.0,435.0 L 536.0,634.0"/>
    <path d="M 517.0,400.0 L 530.0,409.0 L 750.0,359.0 L 782.0,362.0 L 798.0,371.0 L 819.0,399.0 L 760.0,584.0 L 764.0,605.0"/>
    <path d="M 541.0,517.0 L 571.0,501.0 L 626.0,487.0 L 668.0,478.0 L 701.0,482.0"/>
    <path d="M 555.0,607.0 L 566.0,596.0 L 702.0,573.0 L 725.0,563.0"/>
    <path d="M 481.0,708.0 L 542.0,714.0 L 670.0,693.0 L 759.0,670.0 L 805.0,673.0"/>
    <path d="M 480.0,847.0 L 536.0,853.0 L 742.0,819.0 L 791.0,826.0"/>
    <path d="M 598.0,728.0 L 628.0,757.0 L 626.0,921.0 L 608.0,944.0"/>
    <path d="M 346.0,988.0 L 403.0,997.0 L 695.0,958.0 L 884.0,944.0 L 911.0,947.0 L 963.0,965.0"/>
  </g>
</svg>
