<svg xmlns="http://www.w3.org/2000/svg" viewBox="0 0 1024 1024">
  <g style="fill:none;stroke:#000000;stroke-width:50;stroke-linecap:round;stroke-linejoin:round;" transform="scale(1, 1) translate(0, 0)">
    <path d="M 134.0,474.0 L 139.0,554.0 L 131.0,637.0"/>
    <path d="M 403.0,410.0 L 372.0,401.0 L 307.0,453.0 L 298.0,473.0"/>
    <path d="M 213.0,230.0 L 242.0,248.0 L 268.0,277.0 L 266.0,534.0 L 242.0,774.0 L 208.0,874.0 L 173.0,935.0 L 134.0,980.0 L 78.0,1020.0"/>
    <path d="M 280.0,740.0 L 288.0,752.0 L 352.0,799.0 L 367.0,828.0"/>
    <path d="M 450.0,330.0 L 484.0,337.0 L 522.0,335.0 L 686.0,304.0 L 766.0,281.0 L 835.0,276.0"/>
    <path d="M 376.0,480.0 L 400.0,499.0 L 411.0,521.0 L 460.0,706.0"/>
    <path d="M 427.0,484.0 L 451.0,494.0 L 757.0,431.0 L 798.0,429.0 L 827.0,436.0 L 855.0,469.0 L 813.0,605.0 L 789.0,657.0 L 792.0,681.0"/>
    <path d="M 526.0,357.0 L 556.0,382.0 L 556.0,453.0 L 540.0,540.0 L 507.0,603.0"/>
    <path d="M 634.0,339.0 L 667.0,358.0 L 664.0,460.0 L 668.0,518.0 L 675.0,531.0 L 691.0,545.0 L 719.0,553.0 L 756.0,550.0"/>
    <path d="M 479.0,690.0 L 486.0,683.0 L 753.0,640.0"/>
    <path d="M 476.0,805.0 L 534.0,809.0 L 642.0,788.0 L 699.0,769.0 L 733.0,764.0 L 756.0,768.0"/>
    <path d="M 573.0,690.0 L 599.0,708.0 L 609.0,741.0 L 605.0,907.0 L 589.0,929.0"/>
    <path d="M 330.0,968.0 L 387.0,978.0 L 639.0,949.0 L 846.0,936.0 L 882.0,939.0 L 934.0,957.0"/>
  </g>
</svg>
