<svg xmlns="http://www.w3.org/2000/svg" viewBox="0 0 1024 1024">
  <g style="fill:none;stroke:#000000;stroke-width:50;stroke-linecap:round;stroke-linejoin:round;" transform="scale(1, 1) translate(0, 0)">
    <path d="M 216.0,342.0 L 276.0,386.0 L 291.0,417.0"/>
    <path d="M 482.0,311.0 L 454.0,303.0 L 394.0,355.0 L 389.0,371.0 L 380.0,375.0"/>
    <path d="M 324.0,248.0 L 341.0,256.0 L 357.0,274.0 L 357.0,353.0 L 348.0,412.0 L 331.0,458.0 L 303.0,501.0 L 279.0,527.0 L 235.0,559.0"/>
    <path d="M 374.0,436.0 L 429.0,467.0 L 444.0,479.0 L 455.0,500.0"/>
    <path d="M 489.0,345.0 L 522.0,372.0 L 536.0,393.0"/>
    <path d="M 731.0,252.0 L 742.0,284.0 L 636.0,361.0"/>
    <path d="M 586.0,225.0 L 620.0,258.0 L 602.0,402.0 L 586.0,442.0 L 563.0,476.0 L 538.0,502.0 L 499.0,525.0"/>
    <path d="M 644.0,409.0 L 712.0,445.0 L 728.0,457.0 L 742.0,480.0"/>
    <path d="M 190.0,588.0 L 200.0,616.0 L 196.0,638.0 L 161.0,707.0 L 160.0,752.0"/>
    <path d="M 226.0,641.0 L 240.0,632.0 L 486.0,584.0 L 724.0,550.0 L 768.0,547.0 L 793.0,552.0 L 805.0,559.0 L 824.0,588.0 L 756.0,677.0 L 746.0,680.0"/>
    <path d="M 301.0,695.0 L 358.0,701.0 L 561.0,646.0 L 619.0,644.0 L 635.0,660.0 L 622.0,714.0 L 618.0,771.0 L 624.0,822.0 L 640.0,881.0 L 686.0,949.0 L 716.0,975.0 L 752.0,995.0 L 788.0,1003.0 L 811.0,998.0 L 834.0,864.0"/>
    <path d="M 227.0,861.0 L 273.0,878.0 L 350.0,848.0 L 477.0,812.0 L 549.0,782.0"/>
    <path d="M 409.0,719.0 L 429.0,736.0 L 432.0,753.0 L 407.0,866.0 L 381.0,947.0 L 361.0,988.0 L 354.0,1032.0"/>
  </g>
</svg>
