<svg xmlns="http://www.w3.org/2000/svg" viewBox="0 0 1024 1024">
  <g style="fill:none;stroke:#000000;stroke-width:50;stroke-linecap:round;stroke-linejoin:round;" transform="scale(1, 1) translate(0, 0)">
    <path d="M 342.0,220.0 L 357.0,240.0 L 364.0,262.0 L 343.0,296.0 L 274.0,383.0 L 169.0,476.0"/>
    <path d="M 308.0,385.0 L 395.0,365.0 L 420.0,366.0 L 440.0,377.0 L 431.0,399.0 L 378.0,475.0 L 346.0,507.0"/>
    <path d="M 223.0,543.0 L 291.0,542.0 L 426.0,513.0 L 448.0,520.0 L 469.0,546.0 L 466.0,562.0 L 429.0,678.0 L 412.0,689.0"/>
    <path d="M 196.0,643.0 L 245.0,646.0 L 331.0,626.0 L 378.0,626.0"/>
    <path d="M 192.0,751.0 L 218.0,755.0 L 397.0,718.0 L 435.0,718.0 L 458.0,725.0"/>
    <path d="M 625.0,229.0 L 637.0,237.0 L 656.0,266.0 L 650.0,285.0 L 626.0,342.0 L 587.0,410.0 L 555.0,459.0 L 521.0,496.0"/>
    <path d="M 593.0,443.0 L 666.0,436.0 L 797.0,406.0 L 841.0,405.0"/>
    <path d="M 686.0,462.0 L 714.0,479.0 L 714.0,486.0 L 700.0,570.0 L 670.0,639.0 L 641.0,676.0 L 604.0,706.0 L 550.0,734.0 L 499.0,747.0"/>
    <path d="M 537.0,553.0 L 580.0,576.0 L 682.0,682.0 L 764.0,744.0 L 790.0,755.0 L 927.0,774.0"/>
    <path d="M 247.0,853.0 L 228.0,917.0 L 175.0,1020.0"/>
    <path d="M 387.0,865.0 L 426.0,927.0 L 436.0,959.0"/>
    <path d="M 538.0,847.0 L 588.0,906.0 L 611.0,950.0"/>
    <path d="M 702.0,841.0 L 804.0,924.0 L 832.0,965.0 L 843.0,1002.0"/>
  </g>
</svg>
