<svg xmlns="http://www.w3.org/2000/svg" viewBox="0 0 1024 1024">
  <g style="fill:none;stroke:#000000;stroke-width:50;stroke-linecap:round;stroke-linejoin:round;" transform="scale(1, 1) translate(0, 0)">
    <path d="M 154.0,438.0 L 160.0,516.0 L 150.0,609.0"/>
    <path d="M 445.0,392.0 L 412.0,383.0 L 335.0,463.0 L 323.0,467.0 L 311.0,488.0"/>
    <path d="M 230.0,219.0 L 259.0,236.0 L 284.0,266.0 L 283.0,575.0 L 262.0,751.0 L 234.0,831.0 L 185.0,902.0 L 120.0,956.0 L 79.0,977.0"/>
    <path d="M 297.0,717.0 L 307.0,723.0 L 311.0,736.0 L 372.0,782.0 L 387.0,812.0"/>
    <path d="M 485.0,296.0 L 522.0,303.0 L 700.0,269.0 L 826.0,254.0 L 874.0,258.0 L 905.0,268.0"/>
    <path d="M 668.0,333.0 L 629.0,337.0 L 589.0,418.0 L 572.0,433.0"/>
    <path d="M 495.0,440.0 L 525.0,481.0 L 525.0,645.0 L 515.0,788.0 L 521.0,827.0"/>
    <path d="M 535.0,446.0 L 567.0,455.0 L 746.0,412.0 L 768.0,419.0 L 803.0,454.0 L 798.0,519.0 L 805.0,757.0 L 798.0,786.0 L 798.0,826.0"/>
    <path d="M 550.0,570.0 L 563.0,558.0 L 635.0,541.0 L 692.0,532.0 L 715.0,538.0"/>
    <path d="M 550.0,674.0 L 561.0,665.0 L 634.0,647.0 L 693.0,639.0 L 715.0,646.0"/>
    <path d="M 542.0,808.0 L 566.0,792.0 L 720.0,769.0 L 745.0,771.0 L 753.0,782.0"/>
    <path d="M 618.0,876.0 L 580.0,881.0 L 543.0,926.0 L 496.0,966.0 L 419.0,1019.0 L 380.0,1035.0"/>
    <path d="M 722.0,862.0 L 834.0,968.0 L 858.0,1008.0 L 865.0,1047.0"/>
  </g>
</svg>
