<svg xmlns="http://www.w3.org/2000/svg" viewBox="0 0 1024 1024">
  <g style="fill:none;stroke:#000000;stroke-width:50;stroke-linecap:round;stroke-linejoin:round;" transform="scale(1, 1) translate(0, 0)">
    <path d="M 196.0,318.0 L 220.0,341.0 L 228.0,374.0 L 226.0,552.0 L 212.0,702.0 L 216.0,751.0"/>
    <path d="M 255.0,340.0 L 266.0,345.0 L 357.0,319.0 L 397.0,344.0 L 392.0,426.0 L 393.0,679.0 L 384.0,712.0 L 388.0,758.0"/>
    <path d="M 253.0,533.0 L 266.0,516.0 L 281.0,511.0 L 315.0,505.0 L 336.0,509.0"/>
    <path d="M 245.0,722.0 L 258.0,706.0 L 350.0,687.0"/>
    <path d="M 575.0,182.0 L 597.0,201.0 L 608.0,221.0 L 590.0,272.0 L 535.0,377.0 L 465.0,471.0"/>
    <path d="M 544.0,413.0 L 558.0,407.0 L 598.0,406.0 L 747.0,366.0 L 783.0,373.0 L 797.0,388.0 L 761.0,641.0 L 739.0,714.0 L 723.0,746.0 L 686.0,781.0 L 594.0,722.0"/>
    <path d="M 451.0,530.0 L 477.0,560.0 L 501.0,703.0"/>
    <path d="M 491.0,536.0 L 510.0,539.0 L 580.0,517.0 L 610.0,519.0 L 620.0,528.0 L 625.0,548.0 L 604.0,605.0 L 586.0,617.0"/>
    <path d="M 517.0,669.0 L 530.0,654.0 L 571.0,645.0 L 614.0,642.0 L 635.0,647.0"/>
    <path d="M 218.0,839.0 L 202.0,901.0 L 154.0,1005.0"/>
    <path d="M 367.0,844.0 L 419.0,922.0 L 426.0,949.0"/>
    <path d="M 543.0,839.0 L 593.0,897.0 L 609.0,932.0"/>
    <path d="M 751.0,837.0 L 823.0,887.0 L 862.0,922.0 L 889.0,972.0 L 892.0,989.0"/>
  </g>
</svg>
