<svg xmlns="http://www.w3.org/2000/svg" viewBox="0 0 1024 1024">
  <g style="fill:none;stroke:#000000;stroke-width:50;stroke-linecap:round;stroke-linejoin:round;" transform="scale(1, 1) translate(0, 0)">
    <path d="M 110.0,488.0 L 135.0,557.0 L 140.0,604.0 L 150.0,633.0"/>
    <path d="M 390.0,436.0 L 356.0,432.0 L 290.0,491.0 L 274.0,515.0"/>
    <path d="M 199.0,273.0 L 215.0,281.0 L 251.0,316.0 L 249.0,531.0 L 233.0,729.0 L 194.0,856.0 L 145.0,920.0 L 103.0,956.0 L 71.0,973.0"/>
    <path d="M 259.0,734.0 L 273.0,755.0 L 319.0,798.0 L 335.0,837.0"/>
    <path d="M 402.0,297.0 L 429.0,319.0 L 437.0,339.0 L 480.0,557.0"/>
    <path d="M 462.0,303.0 L 474.0,312.0 L 546.0,291.0 L 699.0,261.0 L 756.0,269.0 L 781.0,303.0 L 732.0,498.0 L 721.0,520.0 L 697.0,522.0"/>
    <path d="M 520.0,421.0 L 641.0,393.0 L 681.0,397.0"/>
    <path d="M 572.0,306.0 L 593.0,326.0 L 596.0,368.0 L 592.0,480.0 L 578.0,498.0"/>
    <path d="M 497.0,547.0 L 518.0,535.0 L 671.0,504.0 L 695.0,494.0"/>
    <path d="M 348.0,668.0 L 401.0,673.0 L 594.0,633.0 L 811.0,604.0 L 889.0,618.0"/>
    <path d="M 441.0,689.0 L 467.0,703.0 L 480.0,728.0 L 474.0,919.0 L 482.0,959.0 L 525.0,944.0 L 630.0,863.0"/>
    <path d="M 771.0,676.0 L 781.0,708.0 L 709.0,762.0 L 697.0,768.0 L 689.0,765.0"/>
    <path d="M 528.0,669.0 L 566.0,678.0 L 630.0,756.0 L 708.0,837.0 L 810.0,919.0 L 857.0,930.0 L 958.0,940.0"/>
  </g>
</svg>
