<svg xmlns="http://www.w3.org/2000/svg" viewBox="0 0 1024 1024">
  <g style="fill:none;stroke:#000000;stroke-width:50;stroke-linecap:round;stroke-linejoin:round;" transform="scale(1, 1) translate(0, 0)">
    <path d="M 118.0,476.0 L 136.0,531.0 L 151.0,643.0"/>
    <path d="M 323.0,403.0 L 335.0,428.0 L 298.0,464.0 L 286.0,488.0"/>
    <path d="M 216.0,248.0 L 241.0,264.0 L 264.0,289.0 L 261.0,529.0 L 245.0,760.0 L 231.0,820.0 L 191.0,905.0 L 149.0,955.0 L 82.0,998.0"/>
    <path d="M 275.0,706.0 L 331.0,752.0 L 342.0,782.0"/>
    <path d="M 375.0,487.0 L 424.0,490.0 L 541.0,456.0 L 597.0,453.0"/>
    <path d="M 470.0,226.0 L 514.0,267.0 L 491.0,585.0 L 473.0,607.0"/>
    <path d="M 373.0,624.0 L 401.0,657.0 L 424.0,803.0"/>
    <path d="M 418.0,628.0 L 441.0,633.0 L 528.0,613.0 L 560.0,617.0 L 578.0,639.0 L 576.0,647.0 L 548.0,716.0 L 529.0,726.0"/>
    <path d="M 444.0,775.0 L 461.0,764.0 L 521.0,753.0 L 574.0,759.0"/>
    <path d="M 639.0,337.0 L 662.0,352.0 L 673.0,369.0 L 680.0,404.0 L 682.0,547.0 L 668.0,682.0 L 651.0,744.0 L 614.0,828.0 L 554.0,909.0 L 490.0,961.0"/>
    <path d="M 686.0,340.0 L 723.0,346.0 L 760.0,330.0 L 789.0,326.0 L 819.0,340.0 L 833.0,362.0 L 839.0,858.0 L 834.0,915.0 L 815.0,946.0 L 792.0,940.0 L 722.0,900.0"/>
    <path d="M 710.0,533.0 L 716.0,521.0 L 732.0,514.0 L 776.0,517.0"/>
    <path d="M 698.0,672.0 L 705.0,660.0 L 724.0,653.0 L 761.0,651.0 L 783.0,658.0"/>
  </g>
</svg>
