<svg xmlns="http://www.w3.org/2000/svg" viewBox="0 0 1024 1024">
  <g style="fill:none;stroke:#000000;stroke-width:50;stroke-linecap:round;stroke-linejoin:round;" transform="scale(1, 1) translate(0, 0)">
    <path d="M 129.0,418.0 L 146.0,488.0 L 153.0,575.0"/>
    <path d="M 395.0,386.0 L 364.0,383.0 L 318.0,434.0 L 290.0,454.0 L 278.0,476.0"/>
    <path d="M 213.0,212.0 L 260.0,252.0 L 255.0,517.0 L 231.0,705.0 L 209.0,770.0 L 173.0,833.0 L 129.0,879.0 L 59.0,923.0"/>
    <path d="M 269.0,643.0 L 332.0,690.0 L 349.0,725.0"/>
    <path d="M 585.0,183.0 L 658.0,225.0 L 679.0,255.0"/>
    <path d="M 519.0,368.0 L 536.0,356.0 L 652.0,332.0 L 715.0,310.0 L 743.0,317.0 L 764.0,340.0 L 745.0,391.0 L 724.0,402.0"/>
    <path d="M 503.0,486.0 L 512.0,479.0 L 705.0,436.0 L 751.0,434.0 L 770.0,439.0"/>
    <path d="M 452.0,329.0 L 482.0,366.0 L 483.0,383.0 L 456.0,562.0 L 436.0,645.0 L 394.0,761.0 L 351.0,843.0 L 313.0,900.0 L 242.0,982.0"/>
    <path d="M 472.0,614.0 L 558.0,590.0 L 575.0,592.0 L 597.0,612.0 L 592.0,733.0 L 597.0,896.0 L 588.0,971.0 L 573.0,987.0 L 510.0,966.0 L 502.0,958.0 L 491.0,961.0"/>
    <path d="M 459.0,693.0 L 506.0,719.0 L 521.0,743.0"/>
    <path d="M 403.0,888.0 L 440.0,887.0 L 553.0,799.0"/>
    <path d="M 650.0,570.0 L 707.0,570.0 L 787.0,552.0 L 822.0,582.0 L 819.0,662.0 L 827.0,963.0 L 808.0,1005.0 L 702.0,967.0"/>
    <path d="M 662.0,672.0 L 696.0,692.0 L 723.0,718.0"/>
    <path d="M 636.0,858.0 L 673.0,854.0 L 772.0,771.0"/>
  </g>
</svg>
