<svg xmlns="http://www.w3.org/2000/svg" viewBox="0 0 1024 1024">
  <g style="fill:none;stroke:#000000;stroke-width:50;stroke-linecap:round;stroke-linejoin:round;" transform="scale(1, 1) translate(0, 0)">
    <path d="M 640.0,220.0 L 573.0,203.0 L 499.0,241.0 L 394.0,277.0 L 321.0,294.0"/>
    <path d="M 129.0,420.0 L 184.0,427.0 L 367.0,393.0 L 798.0,340.0 L 843.0,343.0 L 891.0,356.0"/>
    <path d="M 258.0,483.0 L 282.0,500.0 L 297.0,526.0 L 347.0,713.0"/>
    <path d="M 307.0,483.0 L 336.0,494.0 L 637.0,444.0 L 702.0,448.0 L 734.0,486.0 L 662.0,675.0"/>
    <path d="M 377.0,555.0 L 402.0,582.0 L 428.0,624.0"/>
    <path d="M 604.0,511.0 L 614.0,538.0 L 541.0,608.0"/>
    <path d="M 366.0,701.0 L 383.0,693.0 L 553.0,662.0 L 624.0,654.0 L 642.0,663.0"/>
    <path d="M 462.0,280.0 L 494.0,296.0 L 501.0,350.0 L 494.0,799.0 L 491.0,818.0 L 478.0,831.0"/>
    <path d="M 369.0,776.0 L 401.0,777.0 L 590.0,743.0 L 634.0,750.0"/>
    <path d="M 250.0,869.0 L 291.0,878.0 L 495.0,851.0 L 665.0,836.0 L 722.0,840.0 L 765.0,855.0"/>
    <path d="M 195.0,935.0 L 182.0,993.0 L 145.0,1066.0 L 137.0,1094.0"/>
    <path d="M 327.0,939.0 L 383.0,1003.0 L 396.0,1040.0"/>
    <path d="M 503.0,919.0 L 559.0,972.0 L 579.0,1016.0"/>
    <path d="M 700.0,916.0 L 796.0,980.0 L 823.0,1005.0 L 846.0,1044.0 L 852.0,1066.0"/>
  </g>
</svg>
