<svg xmlns="http://www.w3.org/2000/svg" viewBox="0 0 1024 1024">
  <g style="fill:none;stroke:#000000;stroke-width:50;stroke-linecap:round;stroke-linejoin:round;" transform="scale(1, 1) translate(0, 0)">
    <path d="M 119.0,478.0 L 121.0,543.0 L 108.0,639.0"/>
    <path d="M 312.0,398.0 L 327.0,426.0 L 275.0,477.0 L 264.0,503.0"/>
    <path d="M 191.0,245.0 L 239.0,286.0 L 237.0,521.0 L 220.0,736.0 L 195.0,824.0 L 155.0,902.0 L 123.0,939.0 L 47.0,990.0"/>
    <path d="M 249.0,707.0 L 309.0,759.0 L 327.0,792.0"/>
    <path d="M 534.0,216.0 L 621.0,261.0 L 655.0,301.0"/>
    <path d="M 407.0,378.0 L 418.0,405.0 L 417.0,424.0 L 389.0,491.0 L 386.0,519.0"/>
    <path d="M 446.0,407.0 L 461.0,415.0 L 491.0,412.0 L 549.0,394.0 L 675.0,369.0 L 735.0,366.0 L 760.0,377.0 L 776.0,397.0 L 731.0,468.0 L 724.0,471.0"/>
    <path d="M 474.0,501.0 L 490.0,529.0 L 472.0,561.0 L 421.0,620.0 L 371.0,660.0 L 359.0,660.0 L 355.0,668.0"/>
    <path d="M 646.0,509.0 L 731.0,552.0 L 758.0,586.0"/>
    <path d="M 598.0,613.0 L 564.0,625.0 L 540.0,670.0 L 489.0,742.0 L 388.0,848.0 L 297.0,914.0"/>
    <path d="M 600.0,652.0 L 598.0,662.0 L 673.0,723.0 L 763.0,788.0 L 805.0,811.0 L 858.0,827.0 L 983.0,835.0"/>
    <path d="M 413.0,852.0 L 444.0,871.0 L 480.0,1050.0"/>
    <path d="M 473.0,849.0 L 485.0,860.0 L 587.0,844.0 L 647.0,828.0 L 669.0,830.0 L 700.0,862.0 L 677.0,935.0 L 654.0,946.0"/>
    <path d="M 497.0,990.0 L 507.0,1000.0 L 649.0,979.0 L 686.0,981.0 L 710.0,989.0"/>
  </g>
</svg>
