<svg xmlns="http://www.w3.org/2000/svg" viewBox="0 0 1024 1024">
  <g style="fill:none;stroke:#000000;stroke-width:50;stroke-linecap:round;stroke-linejoin:round;" transform="scale(1, 1) translate(0, 0)">
    <path d="M 231.0,358.0 L 279.0,412.0 L 284.0,441.0"/>
    <path d="M 498.0,323.0 L 468.0,312.0 L 397.0,370.0"/>
    <path d="M 335.0,240.0 L 371.0,266.0 L 370.0,382.0 L 362.0,425.0 L 348.0,466.0 L 312.0,526.0 L 281.0,562.0 L 239.0,591.0"/>
    <path d="M 382.0,451.0 L 395.0,465.0 L 437.0,489.0 L 449.0,509.0"/>
    <path d="M 487.0,368.0 L 532.0,419.0"/>
    <path d="M 729.0,257.0 L 737.0,294.0 L 657.0,345.0 L 646.0,344.0 L 638.0,355.0"/>
    <path d="M 568.0,199.0 L 589.0,208.0 L 620.0,244.0 L 608.0,364.0 L 583.0,448.0 L 560.0,491.0 L 518.0,540.0 L 485.0,557.0"/>
    <path d="M 646.0,421.0 L 716.0,455.0 L 750.0,494.0"/>
    <path d="M 175.0,595.0 L 183.0,610.0 L 185.0,641.0 L 141.0,727.0 L 138.0,775.0"/>
    <path d="M 213.0,625.0 L 226.0,633.0 L 259.0,634.0 L 419.0,600.0 L 639.0,567.0 L 746.0,555.0 L 790.0,562.0 L 817.0,596.0 L 741.0,674.0"/>
    <path d="M 263.0,720.0 L 324.0,771.0 L 343.0,810.0"/>
    <path d="M 618.0,668.0 L 627.0,684.0 L 629.0,705.0 L 554.0,761.0 L 540.0,765.0 L 539.0,771.0"/>
    <path d="M 420.0,642.0 L 457.0,680.0 L 456.0,717.0 L 439.0,812.0 L 399.0,907.0 L 351.0,966.0 L 301.0,1003.0 L 235.0,1035.0 L 184.0,1050.0"/>
    <path d="M 482.0,785.0 L 488.0,809.0 L 538.0,860.0 L 698.0,994.0 L 769.0,1014.0 L 914.0,1034.0"/>
  </g>
</svg>
