<svg xmlns="http://www.w3.org/2000/svg" viewBox="0 0 1024 1024">
  <g style="fill:none;stroke:#000000;stroke-width:50;stroke-linecap:round;stroke-linejoin:round;" transform="scale(1, 1) translate(0, 0)">
    <path d="M 150.0,492.0 L 151.0,558.0 L 132.0,662.0"/>
    <path d="M 398.0,434.0 L 366.0,427.0 L 291.0,507.0 L 290.0,521.0"/>
    <path d="M 219.0,256.0 L 267.0,297.0 L 257.0,655.0 L 243.0,772.0 L 224.0,847.0 L 188.0,916.0 L 140.0,962.0 L 79.0,999.0"/>
    <path d="M 277.0,686.0 L 346.0,734.0 L 367.0,767.0"/>
    <path d="M 585.0,221.0 L 610.0,248.0 L 573.0,314.0 L 526.0,380.0"/>
    <path d="M 434.0,377.0 L 467.0,410.0 L 473.0,431.0 L 488.0,578.0 L 489.0,670.0 L 504.0,741.0"/>
    <path d="M 498.0,422.0 L 508.0,407.0 L 517.0,404.0 L 732.0,354.0 L 778.0,355.0 L 791.0,360.0 L 814.0,383.0 L 780.0,670.0 L 767.0,695.0 L 747.0,699.0"/>
    <path d="M 596.0,405.0 L 614.0,425.0 L 609.0,437.0 L 576.0,496.0 L 530.0,546.0"/>
    <path d="M 597.0,494.0 L 670.0,475.0 L 702.0,483.0 L 687.0,518.0 L 629.0,597.0 L 555.0,653.0"/>
    <path d="M 578.0,544.0 L 684.0,597.0 L 708.0,618.0 L 714.0,631.0"/>
    <path d="M 522.0,720.0 L 532.0,709.0 L 568.0,700.0 L 677.0,682.0 L 734.0,679.0"/>
    <path d="M 429.0,815.0 L 413.0,886.0 L 380.0,968.0"/>
    <path d="M 499.0,833.0 L 509.0,847.0 L 527.0,902.0 L 575.0,957.0 L 633.0,985.0 L 744.0,1004.0 L 788.0,1002.0 L 828.0,984.0 L 811.0,939.0 L 772.0,876.0 L 765.0,853.0"/>
    <path d="M 584.0,778.0 L 659.0,830.0 L 679.0,864.0"/>
    <path d="M 804.0,774.0 L 882.0,827.0 L 899.0,845.0 L 914.0,875.0"/>
  </g>
</svg>
