<svg xmlns="http://www.w3.org/2000/svg" viewBox="0 0 1024 1024">
  <g style="fill:none;stroke:#000000;stroke-width:50;stroke-linecap:round;stroke-linejoin:round;" transform="scale(1, 1) translate(0, 0)">
    <path d="M 115.0,480.0 L 141.0,541.0 L 152.0,611.0 L 162.0,635.0"/>
    <path d="M 342.0,435.0 L 358.0,459.0 L 314.0,510.0 L 301.0,538.0"/>
    <path d="M 226.0,257.0 L 263.0,285.0 L 276.0,303.0 L 274.0,580.0 L 257.0,764.0 L 233.0,843.0 L 187.0,916.0 L 137.0,961.0 L 72.0,998.0"/>
    <path d="M 291.0,748.0 L 300.0,769.0 L 355.0,817.0 L 368.0,848.0"/>
    <path d="M 524.0,248.0 L 542.0,268.0 L 546.0,284.0 L 474.0,361.0 L 464.0,364.0 L 460.0,374.0 L 449.0,375.0"/>
    <path d="M 393.0,371.0 L 433.0,405.0 L 447.0,513.0 L 445.0,544.0 L 456.0,586.0 L 489.0,571.0 L 542.0,512.0 L 552.0,512.0"/>
    <path d="M 526.0,446.0 L 577.0,495.0 L 590.0,524.0"/>
    <path d="M 583.0,356.0 L 638.0,359.0 L 810.0,316.0 L 838.0,335.0 L 824.0,467.0 L 796.0,537.0 L 775.0,558.0 L 708.0,522.0"/>
    <path d="M 672.0,375.0 L 697.0,391.0 L 702.0,403.0 L 688.0,445.0 L 643.0,536.0 L 611.0,579.0 L 589.0,598.0"/>
    <path d="M 404.0,685.0 L 438.0,713.0 L 451.0,741.0 L 471.0,895.0 L 494.0,982.0"/>
    <path d="M 465.0,697.0 L 490.0,710.0 L 759.0,660.0 L 794.0,665.0 L 811.0,679.0 L 825.0,696.0 L 788.0,923.0 L 767.0,958.0 L 767.0,1018.0"/>
    <path d="M 529.0,832.0 L 667.0,802.0 L 712.0,807.0"/>
    <path d="M 587.0,714.0 L 617.0,742.0 L 614.0,888.0 L 599.0,910.0"/>
    <path d="M 512.0,954.0 L 528.0,943.0 L 684.0,921.0 L 741.0,920.0"/>
  </g>
</svg>
