<svg xmlns="http://www.w3.org/2000/svg" viewBox="0 0 1024 1024">
  <g style="fill:none;stroke:#000000;stroke-width:50;stroke-linecap:round;stroke-linejoin:round;" transform="scale(1, 1) translate(0, 0)">
    <path d="M 320.0,285.0 L 334.0,273.0 L 401.0,261.0 L 453.0,243.0 L 475.0,245.0 L 497.0,263.0 L 502.0,276.0 L 487.0,308.0 L 461.0,326.0"/>
    <path d="M 301.0,387.0 L 313.0,379.0 L 450.0,351.0 L 514.0,355.0"/>
    <path d="M 259.0,246.0 L 282.0,275.0 L 286.0,293.0 L 251.0,456.0 L 219.0,540.0 L 178.0,613.0 L 109.0,688.0"/>
    <path d="M 324.0,449.0 L 348.0,453.0 L 454.0,431.0 L 492.0,431.0"/>
    <path d="M 275.0,530.0 L 323.0,533.0 L 440.0,506.0 L 490.0,499.0 L 525.0,503.0"/>
    <path d="M 397.0,540.0 L 417.0,555.0 L 419.0,571.0 L 416.0,631.0 L 400.0,631.0 L 392.0,646.0 L 407.0,668.0 L 396.0,676.0 L 330.0,651.0"/>
    <path d="M 302.0,581.0 L 289.0,629.0 L 264.0,682.0"/>
    <path d="M 478.0,583.0 L 525.0,620.0"/>
    <path d="M 560.0,417.0 L 602.0,423.0 L 841.0,381.0 L 898.0,384.0 L 927.0,393.0"/>
    <path d="M 708.0,230.0 L 749.0,265.0 L 744.0,413.0 L 751.0,602.0 L 735.0,639.0 L 633.0,601.0"/>
    <path d="M 580.0,482.0 L 638.0,525.0 L 649.0,555.0"/>
    <path d="M 284.0,775.0 L 352.0,828.0 L 365.0,861.0"/>
    <path d="M 667.0,715.0 L 680.0,750.0 L 578.0,823.0"/>
    <path d="M 468.0,701.0 L 502.0,726.0 L 504.0,754.0 L 475.0,857.0 L 439.0,922.0 L 407.0,957.0 L 351.0,997.0 L 283.0,1024.0 L 218.0,1037.0"/>
    <path d="M 513.0,841.0 L 520.0,861.0 L 605.0,940.0 L 673.0,994.0 L 726.0,1027.0 L 775.0,1042.0 L 915.0,1057.0"/>
  </g>
</svg>
