<svg xmlns="http://www.w3.org/2000/svg" viewBox="0 0 1024 1024">
  <g style="fill:none;stroke:#000000;stroke-width:50;stroke-linecap:round;stroke-linejoin:round;" transform="scale(1, 1) translate(0, 0)">
    <path d="M 228.0,335.0 L 299.0,336.0 L 424.0,303.0 L 483.0,301.0"/>
    <path d="M 330.0,175.0 L 351.0,189.0 L 371.0,213.0 L 362.0,391.0 L 346.0,412.0"/>
    <path d="M 92.0,480.0 L 123.0,487.0 L 152.0,485.0 L 416.0,419.0 L 469.0,412.0 L 491.0,415.0"/>
    <path d="M 283.0,535.0 L 256.0,540.0 L 209.0,598.0 L 145.0,643.0"/>
    <path d="M 400.0,497.0 L 457.0,529.0 L 478.0,559.0"/>
    <path d="M 208.0,671.0 L 289.0,668.0 L 395.0,639.0 L 442.0,638.0"/>
    <path d="M 331.0,576.0 L 356.0,612.0 L 354.0,708.0 L 337.0,735.0"/>
    <path d="M 164.0,794.0 L 175.0,801.0 L 220.0,806.0 L 409.0,737.0 L 472.0,708.0"/>
    <path d="M 589.0,213.0 L 609.0,221.0 L 632.0,241.0 L 641.0,260.0 L 625.0,465.0 L 599.0,601.0 L 577.0,670.0 L 540.0,736.0 L 496.0,788.0 L 444.0,827.0"/>
    <path d="M 521.0,442.0 L 564.0,449.0 L 720.0,395.0 L 750.0,392.0 L 766.0,399.0 L 774.0,408.0 L 750.0,475.0 L 734.0,564.0 L 742.0,655.0 L 768.0,717.0 L 795.0,745.0 L 843.0,773.0 L 893.0,782.0 L 928.0,775.0 L 940.0,643.0"/>
    <path d="M 529.0,605.0 L 640.0,669.0 L 666.0,696.0 L 678.0,720.0"/>
    <path d="M 238.0,885.0 L 211.0,956.0 L 160.0,1044.0"/>
    <path d="M 355.0,901.0 L 409.0,969.0 L 418.0,1005.0"/>
    <path d="M 528.0,883.0 L 538.0,898.0 L 596.0,945.0 L 617.0,988.0"/>
    <path d="M 735.0,874.0 L 829.0,942.0 L 849.0,968.0 L 868.0,1021.0"/>
  </g>
</svg>
