<svg xmlns="http://www.w3.org/2000/svg" viewBox="0 0 1024 1024">
  <g style="fill:none;stroke:#000000;stroke-width:50;stroke-linecap:round;stroke-linejoin:round;" transform="scale(1, 1) translate(0, 0)">
    <path d="M 124.0,526.0 L 132.0,596.0 L 126.0,679.0"/>
    <path d="M 343.0,419.0 L 360.0,448.0 L 284.0,529.0 L 279.0,547.0"/>
    <path d="M 205.0,265.0 L 252.0,306.0 L 252.0,569.0 L 231.0,766.0 L 213.0,832.0 L 180.0,899.0 L 156.0,931.0 L 115.0,968.0 L 66.0,998.0"/>
    <path d="M 265.0,737.0 L 337.0,810.0 L 353.0,846.0"/>
    <path d="M 480.0,341.0 L 502.0,350.0 L 554.0,349.0 L 787.0,297.0 L 840.0,296.0"/>
    <path d="M 569.0,431.0 L 597.0,465.0 L 616.0,591.0"/>
    <path d="M 618.0,436.0 L 628.0,443.0 L 730.0,416.0 L 769.0,419.0 L 786.0,439.0 L 783.0,450.0 L 768.0,492.0 L 743.0,504.0"/>
    <path d="M 631.0,566.0 L 653.0,552.0 L 732.0,536.0 L 795.0,538.0"/>
    <path d="M 511.0,690.0 L 536.0,719.0 L 557.0,856.0"/>
    <path d="M 560.0,713.0 L 568.0,704.0 L 621.0,686.0 L 636.0,683.0 L 655.0,693.0 L 664.0,703.0 L 649.0,762.0 L 645.0,775.0 L 631.0,779.0"/>
    <path d="M 571.0,829.0 L 588.0,816.0 L 623.0,806.0 L 666.0,808.0"/>
    <path d="M 710.0,650.0 L 735.0,680.0 L 754.0,834.0"/>
    <path d="M 763.0,675.0 L 777.0,665.0 L 852.0,646.0 L 869.0,650.0 L 888.0,669.0 L 869.0,732.0 L 845.0,757.0"/>
    <path d="M 774.0,804.0 L 789.0,791.0 L 830.0,782.0 L 891.0,786.0"/>
    <path d="M 423.0,326.0 L 447.0,350.0 L 460.0,385.0 L 464.0,587.0 L 458.0,809.0 L 447.0,943.0 L 453.0,967.0 L 491.0,969.0 L 622.0,942.0 L 870.0,923.0 L 891.0,924.0 L 926.0,938.0"/>
  </g>
</svg>
