<svg xmlns="http://www.w3.org/2000/svg" viewBox="0 0 1024 1024">
  <g style="fill:none;stroke:#000000;stroke-width:50;stroke-linecap:round;stroke-linejoin:round;" transform="scale(1, 1) translate(0, 0)">
    <path d="M 142.0,446.0 L 148.0,504.0 L 139.0,598.0"/>
    <path d="M 343.0,373.0 L 354.0,400.0 L 300.0,445.0 L 288.0,470.0"/>
    <path d="M 219.0,220.0 L 254.0,246.0 L 267.0,270.0 L 261.0,506.0 L 241.0,713.0 L 224.0,783.0 L 188.0,865.0 L 142.0,924.0 L 79.0,970.0"/>
    <path d="M 272.0,689.0 L 285.0,706.0 L 331.0,734.0 L 350.0,766.0"/>
    <path d="M 474.0,269.0 L 492.0,285.0 L 500.0,306.0 L 471.0,379.0 L 414.0,481.0 L 368.0,544.0 L 348.0,562.0"/>
    <path d="M 477.0,424.0 L 581.0,417.0 L 598.0,435.0 L 563.0,534.0 L 516.0,611.0 L 439.0,703.0 L 382.0,743.0"/>
    <path d="M 439.0,476.0 L 484.0,510.0 L 499.0,535.0"/>
    <path d="M 400.0,550.0 L 442.0,598.0 L 451.0,626.0"/>
    <path d="M 640.0,515.0 L 676.0,519.0 L 713.0,513.0 L 834.0,474.0 L 879.0,473.0"/>
    <path d="M 690.0,216.0 L 715.0,227.0 L 740.0,254.0 L 729.0,404.0 L 709.0,530.0 L 679.0,622.0 L 654.0,675.0 L 592.0,758.0 L 555.0,786.0"/>
    <path d="M 739.0,542.0 L 737.0,554.0 L 779.0,622.0 L 878.0,743.0 L 972.0,772.0"/>
    <path d="M 823.0,328.0 L 874.0,356.0 L 892.0,376.0"/>
    <path d="M 399.0,861.0 L 370.0,934.0 L 327.0,1006.0"/>
    <path d="M 494.0,856.0 L 530.0,916.0 L 541.0,949.0"/>
    <path d="M 630.0,854.0 L 680.0,907.0 L 703.0,946.0"/>
    <path d="M 790.0,849.0 L 892.0,942.0 L 914.0,1002.0"/>
  </g>
</svg>
