<svg xmlns="http://www.w3.org/2000/svg" viewBox="0 0 1024 1024">
  <g style="fill:none;stroke:#000000;stroke-width:50;stroke-linecap:round;stroke-linejoin:round;" transform="scale(1, 1) translate(0, 0)">
    <path d="M 118.0,505.0 L 117.0,574.0 L 101.0,628.0 L 101.0,653.0"/>
    <path d="M 320.0,387.0 L 335.0,415.0 L 281.0,475.0 L 269.0,479.0 L 258.0,500.0"/>
    <path d="M 191.0,276.0 L 239.0,317.0 L 233.0,568.0 L 211.0,780.0 L 184.0,862.0 L 156.0,912.0 L 114.0,959.0 L 47.0,1002.0"/>
    <path d="M 248.0,723.0 L 313.0,769.0 L 323.0,790.0"/>
    <path d="M 457.0,203.0 L 527.0,245.0 L 555.0,283.0"/>
    <path d="M 403.0,394.0 L 454.0,398.0 L 595.0,362.0 L 641.0,358.0"/>
    <path d="M 385.0,483.0 L 409.0,510.0 L 429.0,611.0"/>
    <path d="M 419.0,481.0 L 433.0,489.0 L 531.0,462.0 L 551.0,469.0 L 563.0,483.0 L 546.0,538.0 L 528.0,546.0"/>
    <path d="M 443.0,599.0 L 452.0,591.0 L 516.0,574.0 L 570.0,576.0"/>
    <path d="M 354.0,674.0 L 395.0,683.0 L 485.0,646.0 L 527.0,640.0 L 552.0,661.0 L 495.0,735.0"/>
    <path d="M 440.0,736.0 L 470.0,751.0 L 493.0,782.0 L 511.0,853.0 L 512.0,938.0 L 499.0,985.0 L 472.0,1014.0 L 396.0,981.0"/>
    <path d="M 297.0,879.0 L 307.0,886.0 L 343.0,889.0 L 528.0,806.0 L 573.0,779.0"/>
    <path d="M 710.0,260.0 L 749.0,296.0 L 730.0,374.0 L 679.0,503.0 L 616.0,611.0"/>
    <path d="M 659.0,584.0 L 765.0,569.0 L 842.0,543.0 L 884.0,544.0"/>
    <path d="M 721.0,598.0 L 752.0,617.0 L 759.0,632.0 L 748.0,725.0 L 717.0,829.0 L 693.0,872.0 L 664.0,905.0 L 622.0,936.0 L 574.0,957.0"/>
    <path d="M 599.0,709.0 L 628.0,723.0 L 743.0,874.0 L 836.0,971.0 L 965.0,998.0"/>
  </g>
</svg>
