<svg xmlns="http://www.w3.org/2000/svg" viewBox="0 0 1024 1024">
  <g style="fill:none;stroke:#000000;stroke-width:50;stroke-linecap:round;stroke-linejoin:round;" transform="scale(1, 1) translate(0, 0)">
    <path d="M 119.0,462.0 L 124.0,534.0 L 111.0,634.0"/>
    <path d="M 400.0,404.0 L 368.0,395.0 L 316.0,446.0 L 286.0,466.0 L 279.0,485.0"/>
    <path d="M 202.0,225.0 L 252.0,267.0 L 252.0,508.0 L 231.0,746.0 L 210.0,827.0 L 164.0,920.0 L 110.0,974.0 L 62.0,1006.0"/>
    <path d="M 259.0,751.0 L 269.0,755.0 L 272.0,769.0 L 286.0,774.0 L 328.0,810.0 L 341.0,840.0"/>
    <path d="M 468.0,240.0 L 496.0,258.0 L 505.0,274.0 L 543.0,395.0"/>
    <path d="M 523.0,240.0 L 537.0,247.0 L 681.0,217.0 L 707.0,220.0 L 737.0,247.0 L 718.0,306.0 L 697.0,317.0"/>
    <path d="M 558.0,358.0 L 568.0,365.0 L 681.0,347.0 L 742.0,354.0"/>
    <path d="M 367.0,488.0 L 396.0,515.0 L 424.0,628.0"/>
    <path d="M 417.0,490.0 L 424.0,496.0 L 507.0,472.0 L 532.0,473.0 L 551.0,491.0 L 535.0,545.0 L 521.0,550.0"/>
    <path d="M 440.0,602.0 L 445.0,595.0 L 508.0,578.0 L 562.0,580.0"/>
    <path d="M 611.0,452.0 L 639.0,483.0 L 664.0,583.0"/>
    <path d="M 652.0,454.0 L 690.0,454.0 L 756.0,432.0 L 790.0,434.0 L 807.0,453.0 L 805.0,464.0 L 792.0,505.0 L 768.0,521.0"/>
    <path d="M 680.0,554.0 L 688.0,561.0 L 768.0,544.0 L 804.0,542.0 L 824.0,548.0"/>
    <path d="M 365.0,728.0 L 418.0,734.0 L 647.0,694.0 L 808.0,673.0 L 863.0,676.0 L 901.0,688.0"/>
    <path d="M 580.0,613.0 L 608.0,647.0 L 610.0,667.0 L 607.0,876.0 L 598.0,997.0 L 610.0,1074.0"/>
    <path d="M 578.0,729.0 L 567.0,742.0 L 559.0,768.0 L 462.0,861.0 L 405.0,903.0 L 317.0,946.0"/>
    <path d="M 640.0,722.0 L 640.0,736.0 L 649.0,752.0 L 737.0,839.0 L 795.0,885.0 L 889.0,912.0 L 974.0,925.0"/>
  </g>
</svg>
