<svg xmlns="http://www.w3.org/2000/svg" viewBox="0 0 1024 1024">
  <g style="fill:none;stroke:#000000;stroke-width:50;stroke-linecap:round;stroke-linejoin:round;" transform="scale(1, 1) translate(0, 0)">
    <path d="M 103.0,484.0 L 110.0,526.0 L 106.0,637.0"/>
    <path d="M 392.0,435.0 L 360.0,426.0 L 291.0,489.0 L 283.0,511.0"/>
    <path d="M 201.0,238.0 L 219.0,247.0 L 252.0,279.0 L 249.0,604.0 L 231.0,791.0 L 211.0,858.0 L 174.0,923.0 L 130.0,972.0 L 59.0,1021.0"/>
    <path d="M 269.0,756.0 L 280.0,781.0 L 319.0,817.0 L 331.0,849.0"/>
    <path d="M 560.0,173.0 L 585.0,196.0 L 596.0,218.0 L 563.0,287.0 L 441.0,473.0 L 367.0,563.0 L 330.0,594.0"/>
    <path d="M 620.0,271.0 L 625.0,287.0 L 703.0,360.0 L 814.0,442.0 L 888.0,460.0 L 991.0,472.0"/>
    <path d="M 508.0,449.0 L 552.0,451.0 L 654.0,427.0 L 684.0,427.0"/>
    <path d="M 391.0,563.0 L 407.0,566.0 L 424.0,589.0 L 460.0,746.0"/>
    <path d="M 447.0,580.0 L 462.0,568.0 L 651.0,533.0 L 740.0,523.0 L 768.0,528.0 L 798.0,559.0 L 767.0,661.0 L 748.0,701.0 L 725.0,689.0"/>
    <path d="M 574.0,563.0 L 594.0,585.0 L 592.0,675.0 L 578.0,684.0"/>
    <path d="M 486.0,616.0 L 512.0,636.0 L 528.0,661.0"/>
    <path d="M 682.0,574.0 L 690.0,594.0 L 655.0,626.0 L 629.0,644.0 L 621.0,643.0 L 613.0,655.0"/>
    <path d="M 478.0,734.0 L 485.0,726.0 L 625.0,701.0 L 700.0,693.0 L 708.0,700.0"/>
    <path d="M 458.0,800.0 L 480.0,819.0 L 487.0,858.0 L 479.0,1072.0"/>
    <path d="M 510.0,808.0 L 519.0,815.0 L 546.0,812.0 L 622.0,792.0 L 693.0,783.0 L 715.0,790.0 L 733.0,811.0 L 734.0,967.0 L 725.0,1028.0 L 736.0,1100.0"/>
    <path d="M 511.0,922.0 L 523.0,911.0 L 583.0,900.0 L 632.0,894.0 L 653.0,900.0"/>
    <path d="M 510.0,1037.0 L 523.0,1024.0 L 684.0,1006.0"/>
  </g>
</svg>
