<svg xmlns="http://www.w3.org/2000/svg" viewBox="0 0 1024 1024">
  <g style="fill:none;stroke:#000000;stroke-width:50;stroke-linecap:round;stroke-linejoin:round;" transform="scale(1, 1) translate(0, 0)">
    <path d="M 126.0,465.0 L 126.0,545.0 L 109.0,613.0 L 108.0,640.0"/>
    <path d="M 345.0,364.0 L 359.0,393.0 L 289.0,454.0 L 287.0,468.0"/>
    <path d="M 207.0,241.0 L 255.0,281.0 L 255.0,509.0 L 243.0,668.0 L 231.0,740.0 L 201.0,831.0 L 166.0,898.0 L 133.0,938.0 L 55.0,994.0"/>
    <path d="M 265.0,708.0 L 275.0,722.0 L 331.0,760.0 L 343.0,794.0"/>
    <path d="M 453.0,229.0 L 473.0,245.0 L 484.0,265.0 L 516.0,427.0"/>
    <path d="M 506.0,252.0 L 516.0,238.0 L 558.0,226.0 L 678.0,211.0 L 694.0,203.0 L 742.0,207.0 L 769.0,240.0 L 719.0,387.0"/>
    <path d="M 526.0,329.0 L 531.0,319.0 L 603.0,304.0 L 646.0,298.0 L 665.0,303.0"/>
    <path d="M 535.0,407.0 L 544.0,397.0 L 644.0,380.0 L 684.0,374.0 L 695.0,382.0"/>
    <path d="M 445.0,538.0 L 514.0,542.0 L 731.0,494.0 L 767.0,494.0"/>
    <path d="M 494.0,457.0 L 521.0,484.0 L 523.0,493.0 L 533.0,605.0 L 523.0,613.0"/>
    <path d="M 662.0,422.0 L 688.0,455.0 L 666.0,575.0 L 649.0,593.0"/>
    <path d="M 405.0,652.0 L 446.0,653.0 L 560.0,628.0 L 757.0,597.0 L 801.0,596.0 L 843.0,606.0"/>
    <path d="M 487.0,667.0 L 503.0,681.0 L 504.0,692.0 L 466.0,760.0 L 395.0,837.0 L 348.0,875.0 L 303.0,905.0 L 291.0,904.0 L 287.0,912.0"/>
    <path d="M 668.0,629.0 L 689.0,643.0 L 760.0,718.0 L 833.0,777.0 L 911.0,798.0 L 979.0,805.0"/>
    <path d="M 578.0,707.0 L 616.0,749.0 L 615.0,926.0 L 609.0,987.0 L 593.0,1017.0 L 497.0,978.0"/>
    <path d="M 466.0,794.0 L 477.0,793.0 L 517.0,811.0 L 537.0,834.0"/>
    <path d="M 394.0,953.0 L 412.0,963.0 L 436.0,963.0 L 540.0,887.0"/>
    <path d="M 713.0,756.0 L 723.0,782.0 L 660.0,832.0"/>
    <path d="M 674.0,881.0 L 780.0,939.0 L 814.0,987.0"/>
  </g>
</svg>
