<svg xmlns="http://www.w3.org/2000/svg" viewBox="0 0 1024 1024">
  <g style="fill:none;stroke:#000000;stroke-width:50;stroke-linecap:round;stroke-linejoin:round;" transform="scale(1, 1) translate(0, 0)">
    <path d="M 146.0,513.0 L 147.0,589.0 L 132.0,672.0"/>
    <path d="M 382.0,470.0 L 354.0,465.0 L 283.0,536.0"/>
    <path d="M 215.0,277.0 L 251.0,303.0 L 263.0,322.0 L 261.0,551.0 L 244.0,730.0 L 219.0,820.0 L 181.0,898.0 L 140.0,943.0 L 75.0,986.0"/>
    <path d="M 278.0,704.0 L 284.0,718.0 L 328.0,756.0 L 341.0,784.0"/>
    <path d="M 569.0,202.0 L 608.0,235.0 L 608.0,365.0 L 594.0,375.0"/>
    <path d="M 637.0,300.0 L 650.0,291.0 L 736.0,272.0 L 777.0,270.0"/>
    <path d="M 480.0,419.0 L 489.0,427.0 L 498.0,426.0 L 638.0,389.0 L 780.0,364.0 L 808.0,380.0 L 818.0,393.0 L 771.0,454.0 L 763.0,457.0"/>
    <path d="M 409.0,406.0 L 442.0,438.0 L 446.0,469.0 L 437.0,646.0 L 413.0,767.0 L 375.0,864.0 L 334.0,928.0 L 272.0,992.0 L 218.0,1029.0"/>
    <path d="M 521.0,510.0 L 545.0,510.0 L 684.0,473.0 L 718.0,474.0"/>
    <path d="M 585.0,425.0 L 603.0,441.0 L 609.0,534.0 L 619.0,551.0 L 637.0,562.0 L 688.0,571.0 L 735.0,562.0 L 763.0,540.0 L 761.0,490.0"/>
    <path d="M 493.0,648.0 L 523.0,676.0 L 556.0,819.0"/>
    <path d="M 548.0,655.0 L 571.0,658.0 L 631.0,641.0 L 667.0,640.0 L 701.0,628.0 L 751.0,624.0 L 777.0,629.0 L 799.0,657.0 L 753.0,793.0"/>
    <path d="M 595.0,725.0 L 682.0,706.0 L 717.0,708.0"/>
    <path d="M 633.0,664.0 L 649.0,677.0 L 652.0,700.0 L 651.0,756.0 L 639.0,769.0"/>
    <path d="M 572.0,808.0 L 588.0,799.0 L 700.0,777.0 L 721.0,777.0 L 727.0,785.0"/>
    <path d="M 452.0,875.0 L 479.0,902.0 L 501.0,997.0 L 515.0,1009.0"/>
    <path d="M 502.0,878.0 L 516.0,888.0 L 734.0,848.0 L 777.0,843.0 L 795.0,847.0 L 822.0,880.0 L 800.0,959.0 L 773.0,978.0"/>
    <path d="M 572.0,900.0 L 580.0,903.0 L 591.0,989.0 L 602.0,1001.0"/>
    <path d="M 672.0,877.0 L 697.0,901.0 L 680.0,985.0 L 667.0,997.0"/>
    <path d="M 375.0,1033.0 L 425.0,1042.0 L 542.0,1027.0 L 865.0,1006.0 L 898.0,1009.0 L 951.0,1027.0"/>
  </g>
</svg>
