<svg xmlns="http://www.w3.org/2000/svg" viewBox="0 0 1024 1024">
  <g style="fill:none;stroke:#000000;stroke-width:50;stroke-linecap:round;stroke-linejoin:round;" transform="scale(1, 1) translate(0, 0)">
    <path d="M 119.0,445.0 L 126.0,515.0 L 115.0,616.0"/>
    <path d="M 351.0,423.0 L 322.0,421.0 L 270.0,475.0 L 260.0,497.0"/>
    <path d="M 191.0,221.0 L 239.0,261.0 L 238.0,450.0 L 218.0,720.0 L 201.0,793.0 L 169.0,865.0 L 125.0,924.0 L 67.0,969.0"/>
    <path d="M 253.0,684.0 L 260.0,696.0 L 304.0,731.0 L 321.0,764.0"/>
    <path d="M 362.0,311.0 L 395.0,351.0 L 403.0,504.0 L 398.0,760.0 L 374.0,912.0 L 376.0,968.0"/>
    <path d="M 417.0,323.0 L 428.0,329.0 L 478.0,310.0 L 521.0,303.0 L 547.0,327.0 L 538.0,366.0 L 526.0,500.0 L 520.0,515.0 L 509.0,515.0"/>
    <path d="M 420.0,439.0 L 448.0,421.0 L 487.0,418.0"/>
    <path d="M 419.0,530.0 L 430.0,517.0 L 486.0,506.0 L 498.0,498.0"/>
    <path d="M 647.0,265.0 L 678.0,310.0 L 684.0,467.0 L 692.0,497.0"/>
    <path d="M 692.0,276.0 L 701.0,283.0 L 719.0,284.0 L 811.0,256.0 L 828.0,260.0 L 854.0,288.0 L 864.0,737.0 L 862.0,965.0 L 843.0,1001.0 L 813.0,995.0 L 735.0,963.0"/>
    <path d="M 706.0,387.0 L 713.0,379.0 L 770.0,365.0 L 805.0,368.0"/>
    <path d="M 707.0,479.0 L 719.0,466.0 L 779.0,455.0 L 809.0,451.0 L 823.0,460.0"/>
    <path d="M 510.0,574.0 L 546.0,575.0 L 679.0,548.0 L 714.0,550.0"/>
    <path d="M 457.0,636.0 L 479.0,657.0 L 488.0,677.0 L 513.0,784.0"/>
    <path d="M 504.0,643.0 L 514.0,648.0 L 691.0,616.0 L 743.0,618.0 L 764.0,646.0 L 714.0,770.0"/>
    <path d="M 535.0,687.0 L 567.0,722.0"/>
    <path d="M 700.0,671.0 L 685.0,670.0 L 646.0,720.0"/>
    <path d="M 528.0,776.0 L 544.0,766.0 L 694.0,742.0"/>
    <path d="M 585.0,511.0 L 608.0,537.0 L 610.0,549.0 L 602.0,940.0 L 613.0,1001.0"/>
    <path d="M 587.0,778.0 L 578.0,784.0 L 561.0,824.0 L 511.0,883.0 L 454.0,927.0"/>
    <path d="M 658.0,812.0 L 731.0,852.0 L 753.0,884.0"/>
  </g>
</svg>
