<svg xmlns="http://www.w3.org/2000/svg" viewBox="0 0 1024 1024">
  <g style="fill:none;stroke:#000000;stroke-width:50;stroke-linecap:round;stroke-linejoin:round;" transform="scale(1, 1) translate(0, 0)">
    <path d="M 638.0,222.0 L 569.0,208.0 L 473.0,264.0 L 354.0,306.0"/>
    <path d="M 269.0,343.0 L 333.0,388.0 L 354.0,425.0"/>
    <path d="M 456.0,323.0 L 508.0,365.0 L 524.0,392.0"/>
    <path d="M 713.0,255.0 L 730.0,275.0 L 736.0,295.0 L 706.0,326.0 L 598.0,411.0"/>
    <path d="M 280.0,520.0 L 335.0,524.0 L 526.0,492.0 L 648.0,464.0 L 671.0,462.0 L 693.0,469.0 L 726.0,499.0 L 673.0,679.0 L 648.0,695.0"/>
    <path d="M 95.0,674.0 L 130.0,683.0 L 170.0,681.0 L 433.0,637.0 L 852.0,590.0 L 907.0,595.0 L 955.0,609.0"/>
    <path d="M 282.0,774.0 L 304.0,780.0 L 639.0,726.0 L 689.0,728.0 L 710.0,736.0"/>
    <path d="M 458.0,522.0 L 500.0,553.0 L 513.0,640.0 L 528.0,836.0 L 527.0,911.0 L 517.0,979.0 L 504.0,1016.0 L 478.0,1045.0 L 369.0,990.0 L 353.0,988.0"/>
  </g>
</svg>
