<svg xmlns="http://www.w3.org/2000/svg" viewBox="0 0 1024 1024">
  <g style="fill:none;stroke:#000000;stroke-width:50;stroke-linecap:round;stroke-linejoin:round;" transform="scale(1, 1) translate(0, 0)">
    <path d="M 374.0,223.0 L 388.0,267.0 L 353.0,309.0 L 304.0,353.0 L 244.0,393.0 L 181.0,417.0"/>
    <path d="M 606.0,213.0 L 753.0,298.0 L 778.0,324.0 L 794.0,353.0"/>
    <path d="M 579.0,319.0 L 589.0,358.0 L 559.0,403.0 L 494.0,484.0 L 419.0,551.0 L 373.0,585.0 L 303.0,624.0 L 193.0,667.0 L 115.0,685.0"/>
    <path d="M 377.0,373.0 L 428.0,381.0 L 468.0,402.0 L 606.0,514.0 L 741.0,596.0 L 812.0,612.0 L 961.0,611.0"/>
    <path d="M 243.0,708.0 L 281.0,719.0 L 314.0,719.0 L 665.0,667.0 L 688.0,665.0 L 705.0,673.0 L 722.0,693.0 L 712.0,763.0 L 696.0,838.0 L 675.0,880.0 L 647.0,906.0 L 560.0,865.0"/>
    <path d="M 466.0,722.0 L 502.0,748.0 L 495.0,1092.0"/>
  </g>
</svg>
