<svg xmlns="http://www.w3.org/2000/svg" viewBox="0 0 1024 1024">
  <g style="fill:none;stroke:#000000;stroke-width:50;stroke-linecap:round;stroke-linejoin:round;" transform="scale(1, 1) translate(0, 0)">
    <path d="M 396.0,285.0 L 418.0,309.0 L 433.0,345.0 L 417.0,516.0 L 460.0,516.0 L 519.0,499.0 L 628.0,480.0 L 648.0,494.0"/>
    <path d="M 622.0,215.0 L 654.0,239.0 L 682.0,273.0 L 676.0,812.0 L 664.0,970.0 L 666.0,1076.0"/>
    <path d="M 217.0,705.0 L 266.0,714.0 L 313.0,709.0 L 510.0,664.0 L 623.0,645.0 L 643.0,629.0"/>
    <path d="M 429.0,713.0 L 464.0,739.0 L 444.0,813.0 L 417.0,871.0 L 396.0,907.0 L 346.0,969.0 L 302.0,1009.0 L 262.0,1034.0"/>
  </g>
</svg>
