<svg xmlns="http://www.w3.org/2000/svg" viewBox="0 0 1024 1024">
  <g style="fill:none;stroke:#000000;stroke-width:50;stroke-linecap:round;stroke-linejoin:round;" transform="scale(1, 1) translate(0, 0)">
    <path d="M 141.0,328.0 L 181.0,361.0 L 191.0,468.0 L 186.0,646.0 L 171.0,741.0 L 154.0,804.0 L 117.0,899.0 L 74.0,970.0"/>
    <path d="M 289.0,273.0 L 326.0,308.0 L 314.0,458.0 L 309.0,478.0 L 296.0,488.0"/>
    <path d="M 220.0,548.0 L 239.0,531.0 L 291.0,518.0 L 329.0,514.0 L 353.0,522.0"/>
    <path d="M 206.0,703.0 L 220.0,692.0 L 264.0,676.0 L 298.0,673.0 L 320.0,688.0 L 299.0,934.0 L 309.0,1004.0"/>
    <path d="M 376.0,413.0 L 425.0,416.0 L 534.0,391.0 L 800.0,347.0 L 834.0,346.0 L 886.0,357.0"/>
    <path d="M 558.0,231.0 L 574.0,239.0 L 591.0,262.0 L 600.0,407.0 L 598.0,516.0"/>
    <path d="M 707.0,189.0 L 741.0,224.0 L 715.0,423.0 L 698.0,442.0"/>
    <path d="M 617.0,495.0 L 635.0,482.0 L 691.0,468.0 L 724.0,464.0 L 753.0,471.0"/>
    <path d="M 445.0,292.0 L 466.0,307.0 L 487.0,337.0 L 486.0,574.0 L 491.0,596.0 L 532.0,596.0 L 650.0,571.0 L 726.0,562.0 L 748.0,561.0 L 794.0,573.0"/>
    <path d="M 389.0,736.0 L 435.0,742.0 L 804.0,682.0 L 846.0,683.0 L 896.0,695.0"/>
    <path d="M 590.0,629.0 L 617.0,665.0 L 609.0,1001.0 L 617.0,1060.0"/>
    <path d="M 587.0,739.0 L 503.0,856.0 L 426.0,928.0 L 360.0,968.0"/>
    <path d="M 643.0,744.0 L 653.0,769.0 L 708.0,823.0 L 814.0,909.0 L 906.0,931.0 L 975.0,937.0"/>
  </g>
</svg>
