<svg xmlns="http://www.w3.org/2000/svg" viewBox="0 0 1024 1024">
  <g style="fill:none;stroke:#000000;stroke-width:50;stroke-linecap:round;stroke-linejoin:round;" transform="scale(1, 1) translate(0, 0)">
    <path d="M 170.0,383.0 L 208.0,418.0 L 210.0,523.0 L 201.0,656.0 L 180.0,756.0 L 155.0,829.0 L 126.0,889.0 L 83.0,954.0"/>
    <path d="M 320.0,276.0 L 347.0,300.0 L 356.0,317.0 L 344.0,452.0 L 339.0,476.0 L 324.0,491.0"/>
    <path d="M 241.0,566.0 L 253.0,548.0 L 304.0,527.0 L 354.0,514.0 L 386.0,519.0"/>
    <path d="M 219.0,693.0 L 304.0,656.0 L 329.0,659.0 L 345.0,670.0 L 329.0,930.0 L 340.0,998.0"/>
    <path d="M 486.0,373.0 L 515.0,379.0 L 570.0,377.0 L 731.0,343.0 L 792.0,342.0"/>
    <path d="M 608.0,223.0 L 628.0,236.0 L 649.0,261.0 L 638.0,457.0 L 622.0,479.0"/>
    <path d="M 432.0,529.0 L 477.0,535.0 L 652.0,493.0 L 793.0,473.0 L 821.0,483.0 L 839.0,505.0 L 785.0,577.0"/>
    <path d="M 490.0,604.0 L 530.0,628.0 L 547.0,647.0"/>
    <path d="M 461.0,695.0 L 506.0,724.0 L 531.0,750.0"/>
    <path d="M 412.0,828.0 L 464.0,837.0 L 809.0,776.0 L 844.0,775.0 L 877.0,782.0"/>
    <path d="M 594.0,585.0 L 615.0,594.0 L 643.0,622.0 L 636.0,775.0 L 616.0,862.0 L 579.0,925.0 L 539.0,964.0 L 478.0,1005.0 L 400.0,1033.0"/>
    <path d="M 697.0,887.0 L 806.0,963.0 L 833.0,997.0 L 846.0,1029.0"/>
  </g>
</svg>
