<svg xmlns="http://www.w3.org/2000/svg" viewBox="0 0 1024 1024">
  <g style="fill:none;stroke:#000000;stroke-width:50;stroke-linecap:round;stroke-linejoin:round;" transform="scale(1, 1) translate(0, 0)">
    <path d="M 193.0,407.0 L 223.0,439.0 L 201.0,515.0 L 150.0,605.0 L 109.0,648.0"/>
    <path d="M 219.0,536.0 L 277.0,531.0 L 416.0,491.0 L 461.0,489.0"/>
    <path d="M 309.0,233.0 L 362.0,286.0 L 354.0,763.0 L 337.0,965.0 L 339.0,1053.0"/>
    <path d="M 81.0,818.0 L 106.0,825.0 L 145.0,825.0 L 400.0,664.0 L 452.0,625.0"/>
    <path d="M 741.0,403.0 L 755.0,414.0 L 771.0,442.0 L 765.0,455.0 L 742.0,486.0 L 614.0,610.0 L 594.0,637.0"/>
    <path d="M 522.0,279.0 L 553.0,302.0 L 578.0,337.0 L 564.0,728.0 L 574.0,824.0 L 594.0,867.0 L 624.0,891.0 L 685.0,909.0 L 782.0,912.0 L 831.0,906.0 L 858.0,896.0 L 893.0,877.0 L 901.0,735.0"/>
  </g>
</svg>
