<svg xmlns="http://www.w3.org/2000/svg" viewBox="0 0 1024 1024">
  <g style="fill:none;stroke:#000000;stroke-width:50;stroke-linecap:round;stroke-linejoin:round;" transform="scale(1, 1) translate(0, 0)">
    <path d="M 176.0,396.0 L 207.0,432.0 L 188.0,493.0 L 138.0,585.0 L 78.0,648.0"/>
    <path d="M 200.0,539.0 L 270.0,528.0 L 381.0,494.0 L 425.0,493.0"/>
    <path d="M 62.0,833.0 L 82.0,837.0 L 109.0,831.0 L 272.0,695.0 L 278.0,684.0 L 288.0,682.0 L 391.0,596.0"/>
    <path d="M 289.0,220.0 L 340.0,275.0 L 331.0,707.0 L 323.0,846.0 L 313.0,914.0 L 315.0,1009.0"/>
    <path d="M 398.0,666.0 L 444.0,665.0 L 470.0,656.0 L 765.0,494.0 L 793.0,489.0 L 817.0,501.0 L 782.0,672.0 L 760.0,719.0 L 743.0,729.0 L 720.0,722.0 L 678.0,696.0"/>
    <path d="M 599.0,232.0 L 619.0,243.0 L 641.0,270.0 L 644.0,311.0 L 637.0,501.0 L 612.0,758.0"/>
    <path d="M 480.0,446.0 L 517.0,495.0 L 497.0,692.0 L 503.0,801.0 L 518.0,861.0 L 552.0,901.0 L 603.0,927.0 L 690.0,943.0 L 825.0,939.0 L 870.0,925.0 L 893.0,909.0 L 899.0,889.0 L 907.0,738.0"/>
  </g>
</svg>
