<svg xmlns="http://www.w3.org/2000/svg" viewBox="0 0 1024 1024">
  <g style="fill:none;stroke:#000000;stroke-width:50;stroke-linecap:round;stroke-linejoin:round;" transform="scale(1, 1) translate(0, 0)">
    <path d="M 189.0,391.0 L 219.0,423.0 L 201.0,485.0 L 166.0,557.0 L 105.0,629.0"/>
    <path d="M 214.0,520.0 L 312.0,506.0 L 406.0,474.0 L 457.0,469.0"/>
    <path d="M 296.0,212.0 L 350.0,266.0 L 344.0,757.0 L 329.0,948.0 L 331.0,1033.0"/>
    <path d="M 72.0,804.0 L 135.0,810.0 L 433.0,630.0"/>
    <path d="M 789.0,309.0 L 715.0,308.0 L 630.0,375.0 L 531.0,432.0 L 511.0,435.0 L 507.0,444.0"/>
    <path d="M 480.0,578.0 L 505.0,583.0 L 560.0,578.0 L 713.0,531.0 L 760.0,523.0 L 784.0,526.0"/>
    <path d="M 416.0,742.0 L 474.0,745.0 L 635.0,703.0 L 806.0,670.0 L 879.0,682.0"/>
    <path d="M 573.0,432.0 L 597.0,444.0 L 609.0,469.0 L 594.0,776.0 L 611.0,903.0 L 632.0,950.0 L 682.0,981.0 L 758.0,994.0 L 824.0,987.0 L 886.0,966.0 L 916.0,940.0 L 924.0,785.0"/>
  </g>
</svg>
