<svg xmlns="http://www.w3.org/2000/svg" viewBox="0 0 1024 1024">
  <g style="fill:none;stroke:#000000;stroke-width:50;stroke-linecap:round;stroke-linejoin:round;" transform="scale(1, 1) translate(0, 0)">
    <path d="M 336.0,220.0 L 345.0,230.0 L 355.0,267.0 L 330.0,303.0 L 212.0,422.0 L 172.0,455.0 L 118.0,488.0"/>
    <path d="M 312.0,374.0 L 308.0,391.0 L 318.0,428.0 L 307.0,528.0 L 312.0,586.0"/>
    <path d="M 381.0,414.0 L 443.0,414.0 L 634.0,357.0 L 708.0,352.0"/>
    <path d="M 468.0,219.0 L 486.0,224.0 L 518.0,247.0 L 560.0,361.0 L 619.0,457.0 L 671.0,514.0 L 729.0,555.0 L 766.0,571.0 L 801.0,568.0 L 814.0,527.0 L 830.0,415.0"/>
    <path d="M 645.0,199.0 L 716.0,236.0 L 749.0,273.0"/>
    <path d="M 348.0,591.0 L 368.0,626.0 L 355.0,652.0 L 288.0,740.0 L 250.0,766.0"/>
    <path d="M 365.0,693.0 L 479.0,684.0 L 554.0,672.0 L 614.0,655.0 L 675.0,657.0"/>
    <path d="M 143.0,855.0 L 195.0,866.0 L 407.0,836.0 L 796.0,803.0 L 863.0,815.0 L 882.0,824.0"/>
    <path d="M 477.0,559.0 L 497.0,570.0 L 518.0,595.0 L 507.0,1066.0"/>
  </g>
</svg>
