<svg xmlns="http://www.w3.org/2000/svg" viewBox="0 0 1024 1024">
  <g style="fill:none;stroke:#000000;stroke-width:50;stroke-linecap:round;stroke-linejoin:round;" transform="scale(1, 1) translate(0, 0)">
    <path d="M 176.0,381.0 L 202.0,406.0 L 205.0,417.0 L 196.0,454.0 L 160.0,537.0 L 121.0,591.0 L 89.0,621.0"/>
    <path d="M 199.0,516.0 L 302.0,494.0 L 371.0,470.0 L 429.0,465.0"/>
    <path d="M 290.0,227.0 L 342.0,280.0 L 330.0,707.0 L 313.0,930.0 L 312.0,1034.0"/>
    <path d="M 73.0,797.0 L 119.0,804.0 L 235.0,723.0 L 402.0,619.0"/>
    <path d="M 509.0,326.0 L 563.0,330.0 L 756.0,284.0 L 796.0,288.0"/>
    <path d="M 578.0,353.0 L 584.0,362.0 L 609.0,374.0 L 618.0,387.0 L 581.0,610.0 L 561.0,637.0"/>
    <path d="M 470.0,502.0 L 515.0,504.0 L 716.0,460.0 L 747.0,466.0 L 772.0,490.0 L 741.0,589.0 L 712.0,615.0"/>
    <path d="M 405.0,672.0 L 441.0,680.0 L 642.0,648.0 L 848.0,624.0 L 896.0,629.0 L 925.0,640.0"/>
    <path d="M 472.0,760.0 L 500.0,784.0 L 507.0,804.0 L 536.0,992.0"/>
    <path d="M 536.0,792.0 L 545.0,778.0 L 739.0,736.0 L 766.0,741.0 L 798.0,770.0 L 768.0,869.0 L 740.0,893.0"/>
    <path d="M 559.0,960.0 L 572.0,945.0 L 713.0,924.0 L 790.0,920.0 L 814.0,929.0"/>
  </g>
</svg>
