<svg xmlns="http://www.w3.org/2000/svg" viewBox="0 0 1024 1024">
  <g style="fill:none;stroke:#000000;stroke-width:50;stroke-linecap:round;stroke-linejoin:round;" transform="scale(1, 1) translate(0, 0)">
    <path d="M 512.75,242.75 L 253.0,301.0"/>
    <path d="M 161.0,413.0 L 190.0,420.0 L 220.0,419.0 L 442.0,367.0 L 480.0,362.0 L 504.0,366.0"/>
    <path d="M 363.0,293.0 L 397.0,315.0 L 391.0,438.0 L 394.0,571.0"/>
    <path d="M 370.0,408.0 L 361.0,416.0 L 352.0,452.0 L 311.0,495.0 L 253.0,544.0 L 189.0,578.0"/>
    <path d="M 436.0,437.0 L 477.0,464.0 L 501.0,488.0"/>
    <path d="M 569.0,294.0 L 591.0,320.0 L 593.0,481.0"/>
    <path d="M 686.0,190.0 L 728.0,233.0 L 730.0,512.0 L 716.0,549.0 L 690.0,544.0 L 621.0,514.0"/>
    <path d="M 354.0,608.0 L 369.0,637.0 L 342.0,685.0 L 291.0,744.0 L 242.0,776.0"/>
    <path d="M 357.0,710.0 L 437.0,710.0 L 641.0,675.0 L 673.0,672.0 L 696.0,677.0"/>
    <path d="M 147.0,858.0 L 171.0,867.0 L 211.0,870.0 L 388.0,847.0 L 804.0,817.0 L 849.0,822.0 L 902.0,841.0"/>
    <path d="M 491.0,567.0 L 509.0,577.0 L 530.0,604.0 L 519.0,1085.0"/>
  </g>
</svg>
