<svg xmlns="http://www.w3.org/2000/svg" viewBox="0 0 1024 1024">
  <g style="fill:none;stroke:#000000;stroke-width:50;stroke-linecap:round;stroke-linejoin:round;" transform="scale(1, 1) translate(0, 0)">
    <path d="M 161.0,378.0 L 191.0,410.0 L 171.0,477.0 L 125.0,561.0 L 81.0,609.0"/>
    <path d="M 176.0,528.0 L 275.0,508.0 L 364.0,479.0 L 409.0,477.0"/>
    <path d="M 262.0,223.0 L 314.0,277.0 L 304.0,727.0 L 294.0,902.0 L 285.0,959.0 L 288.0,1046.0"/>
    <path d="M 65.0,809.0 L 116.0,815.0 L 379.0,635.0"/>
    <path d="M 494.0,377.0 L 522.0,409.0 L 508.0,456.0 L 466.0,541.0 L 417.0,598.0"/>
    <path d="M 516.0,509.0 L 671.0,482.0 L 745.0,459.0 L 801.0,457.0"/>
    <path d="M 598.0,251.0 L 636.0,281.0 L 646.0,302.0 L 635.0,613.0 L 618.0,635.0"/>
    <path d="M 394.0,687.0 L 446.0,693.0 L 816.0,633.0 L 848.0,635.0 L 901.0,650.0"/>
    <path d="M 460.0,789.0 L 481.0,806.0 L 496.0,829.0 L 528.0,992.0"/>
    <path d="M 507.0,790.0 L 532.0,800.0 L 716.0,761.0 L 749.0,768.0 L 778.0,795.0 L 752.0,880.0 L 726.0,894.0"/>
    <path d="M 547.0,965.0 L 559.0,952.0 L 722.0,928.0 L 762.0,929.0 L 790.0,938.0"/>
  </g>
</svg>
