<svg xmlns="http://www.w3.org/2000/svg" viewBox="0 0 1024 1024">
  <g style="fill:none;stroke:#000000;stroke-width:50;stroke-linecap:round;stroke-linejoin:round;" transform="scale(1, 1) translate(0, 0)">
    <path d="M 371.0,273.0 L 384.0,281.0 L 414.0,277.0 L 665.0,229.0 L 686.0,239.0 L 706.0,263.0 L 684.0,308.0 L 655.0,321.0"/>
    <path d="M 356.0,393.0 L 389.0,396.0 L 643.0,353.0 L 710.0,359.0"/>
    <path d="M 301.0,249.0 L 334.0,288.0 L 335.0,309.0 L 299.0,511.0 L 257.0,654.0 L 227.0,723.0 L 176.0,810.0 L 110.0,898.0 L 70.0,939.0"/>
    <path d="M 536.0,407.0 L 557.0,434.0 L 553.0,541.0"/>
    <path d="M 413.0,445.0 L 450.0,462.0 L 467.0,478.0"/>
    <path d="M 377.0,563.0 L 408.0,564.0 L 489.0,515.0"/>
    <path d="M 676.0,400.0 L 685.0,423.0 L 620.0,472.0"/>
    <path d="M 620.0,516.0 L 672.0,540.0 L 703.0,567.0"/>
    <path d="M 385.0,625.0 L 403.0,660.0 L 397.0,672.0 L 363.0,722.0 L 331.0,755.0 L 294.0,779.0"/>
    <path d="M 408.0,714.0 L 525.0,704.0 L 673.0,675.0 L 724.0,676.0"/>
    <path d="M 246.0,848.0 L 301.0,856.0 L 498.0,824.0 L 788.0,795.0 L 827.0,800.0 L 864.0,813.0"/>
    <path d="M 523.0,587.0 L 553.0,610.0 L 563.0,638.0 L 555.0,1097.0"/>
  </g>
</svg>
