<svg xmlns="http://www.w3.org/2000/svg" viewBox="0 0 1024 1024">
  <g style="fill:none;stroke:#000000;stroke-width:50;stroke-linecap:round;stroke-linejoin:round;" transform="scale(1, 1) translate(0, 0)">
    <path d="M 475.0,233.0 L 416.0,216.0 L 331.0,256.0 L 275.0,270.0 L 266.0,279.0 L 251.0,275.0 L 244.0,284.0 L 225.0,281.0 L 215.0,288.0"/>
    <path d="M 146.0,403.0 L 200.0,408.0 L 425.0,356.0 L 491.0,356.0"/>
    <path d="M 335.0,275.0 L 363.0,291.0 L 374.0,307.0 L 364.0,520.0 L 368.0,563.0"/>
    <path d="M 344.0,401.0 L 326.0,441.0 L 285.0,488.0 L 234.0,531.0 L 166.0,568.0"/>
    <path d="M 408.0,425.0 L 474.0,477.0"/>
    <path d="M 624.0,198.0 L 642.0,216.0 L 647.0,241.0 L 596.0,322.0 L 541.0,374.0"/>
    <path d="M 617.0,319.0 L 674.0,315.0 L 831.0,277.0 L 852.0,286.0 L 874.0,313.0 L 835.0,482.0 L 809.0,543.0 L 787.0,577.0 L 764.0,598.0 L 747.0,603.0 L 677.0,557.0"/>
    <path d="M 659.0,339.0 L 677.0,356.0 L 666.0,389.0 L 615.0,454.0 L 570.0,488.0"/>
    <path d="M 744.0,324.0 L 762.0,337.0 L 766.0,348.0 L 748.0,404.0 L 727.0,443.0 L 668.0,511.0 L 611.0,553.0 L 576.0,571.0"/>
    <path d="M 346.0,608.0 L 364.0,639.0 L 348.0,671.0 L 318.0,715.0 L 259.0,766.0"/>
    <path d="M 371.0,689.0 L 473.0,687.0 L 621.0,659.0 L 667.0,663.0"/>
    <path d="M 141.0,850.0 L 189.0,861.0 L 386.0,831.0 L 794.0,794.0 L 845.0,802.0 L 882.0,815.0"/>
    <path d="M 473.0,565.0 L 496.0,579.0 L 516.0,605.0 L 509.0,1090.0"/>
  </g>
</svg>
