<svg xmlns="http://www.w3.org/2000/svg" viewBox="0 0 1024 1024">
  <g style="fill:none;stroke:#000000;stroke-width:50;stroke-linecap:round;stroke-linejoin:round;" transform="scale(1, 1) translate(0, 0)">
    <path d="M 178.0,390.0 L 199.0,407.0 L 208.0,424.0 L 199.0,456.0 L 156.0,545.0 L 117.0,606.0 L 85.0,641.0"/>
    <path d="M 199.0,524.0 L 279.0,506.0 L 356.0,479.0 L 415.0,474.0"/>
    <path d="M 274.0,215.0 L 320.0,261.0 L 326.0,279.0 L 317.0,695.0 L 299.0,939.0 L 300.0,1034.0"/>
    <path d="M 57.0,810.0 L 107.0,818.0 L 390.0,631.0"/>
    <path d="M 466.0,389.0 L 539.0,393.0 L 710.0,353.0 L 772.0,350.0"/>
    <path d="M 578.0,197.0 L 608.0,217.0 L 625.0,246.0 L 615.0,333.0 L 598.0,405.0 L 559.0,479.0 L 527.0,517.0 L 486.0,546.0 L 460.0,556.0"/>
    <path d="M 648.0,429.0 L 710.0,463.0 L 733.0,494.0"/>
    <path d="M 414.0,604.0 L 468.0,608.0 L 655.0,568.0 L 864.0,538.0 L 936.0,553.0"/>
    <path d="M 432.0,687.0 L 456.0,709.0 L 465.0,731.0 L 492.0,871.0"/>
    <path d="M 478.0,692.0 L 499.0,697.0 L 583.0,672.0 L 617.0,675.0 L 636.0,694.0 L 634.0,707.0 L 620.0,761.0 L 597.0,778.0"/>
    <path d="M 510.0,831.0 L 519.0,821.0 L 587.0,805.0 L 634.0,802.0 L 656.0,808.0"/>
    <path d="M 711.0,587.0 L 749.0,610.0 L 754.0,624.0 L 761.0,940.0 L 757.0,984.0 L 735.0,1028.0 L 673.0,1006.0 L 624.0,978.0"/>
  </g>
</svg>
