<svg xmlns="http://www.w3.org/2000/svg" viewBox="0 0 1024 1024">
  <g style="fill:none;stroke:#000000;stroke-width:50;stroke-linecap:round;stroke-linejoin:round;" transform="scale(1, 1) translate(0, 0)">
    <path d="M 249.0,290.0 L 303.0,296.0 L 440.0,266.0 L 487.0,266.0"/>
    <path d="M 344.0,188.0 L 375.0,219.0 L 371.0,330.0 L 356.0,353.0"/>
    <path d="M 183.0,399.0 L 241.0,405.0 L 400.0,367.0 L 452.0,360.0 L 491.0,362.0"/>
    <path d="M 235.0,486.0 L 266.0,490.0 L 349.0,476.0 L 431.0,452.0 L 473.0,450.0"/>
    <path d="M 342.0,404.0 L 357.0,414.0 L 368.0,433.0 L 366.0,517.0 L 361.0,533.0 L 350.0,543.0"/>
    <path d="M 178.0,595.0 L 227.0,612.0 L 430.0,546.0 L 505.0,515.0"/>
    <path d="M 528.0,359.0 L 572.0,366.0 L 782.0,330.0 L 847.0,334.0"/>
    <path d="M 668.0,211.0 L 694.0,231.0 L 710.0,256.0 L 709.0,534.0 L 694.0,570.0 L 616.0,546.0 L 612.0,539.0 L 600.0,541.0"/>
    <path d="M 529.0,422.0 L 585.0,463.0 L 598.0,487.0"/>
    <path d="M 342.0,622.0 L 364.0,652.0 L 356.0,672.0 L 320.0,735.0 L 270.0,787.0"/>
    <path d="M 369.0,706.0 L 462.0,704.0 L 558.0,690.0 L 635.0,670.0 L 688.0,672.0"/>
    <path d="M 155.0,867.0 L 210.0,877.0 L 448.0,843.0 L 790.0,812.0 L 840.0,819.0 L 878.0,833.0"/>
    <path d="M 487.0,595.0 L 523.0,629.0 L 520.0,1085.0"/>
  </g>
</svg>
