<svg xmlns="http://www.w3.org/2000/svg" viewBox="0 0 1024 1024">
  <g style="fill:none;stroke:#000000;stroke-width:50;stroke-linecap:round;stroke-linejoin:round;" transform="scale(1, 1) translate(0, 0)">
    <path d="M 167.0,392.0 L 196.0,423.0 L 185.0,465.0 L 144.0,556.0 L 100.0,608.0"/>
    <path d="M 200.0,503.0 L 278.0,482.0 L 358.0,450.0 L 415.0,442.0"/>
    <path d="M 278.0,203.0 L 320.0,243.0 L 330.0,266.0 L 314.0,774.0 L 299.0,937.0 L 300.0,1026.0"/>
    <path d="M 70.0,804.0 L 92.0,809.0 L 120.0,806.0 L 381.0,620.0"/>
    <path d="M 567.0,221.0 L 645.0,264.0 L 669.0,299.0"/>
    <path d="M 447.0,392.0 L 500.0,400.0 L 774.0,352.0 L 838.0,358.0"/>
    <path d="M 489.0,467.0 L 514.0,488.0 L 544.0,623.0"/>
    <path d="M 546.0,491.0 L 566.0,478.0 L 680.0,452.0 L 702.0,454.0 L 723.0,467.0 L 732.0,481.0 L 715.0,527.0 L 693.0,544.0"/>
    <path d="M 562.0,600.0 L 577.0,589.0 L 682.0,569.0 L 743.0,573.0"/>
    <path d="M 406.0,678.0 L 428.0,705.0 L 438.0,735.0 L 432.0,953.0 L 439.0,981.0"/>
    <path d="M 450.0,691.0 L 475.0,701.0 L 573.0,679.0 L 784.0,650.0 L 814.0,648.0 L 838.0,659.0 L 857.0,683.0 L 847.0,738.0 L 848.0,872.0 L 836.0,968.0 L 828.0,981.0 L 791.0,974.0 L 728.0,943.0"/>
    <path d="M 515.0,766.0 L 533.0,783.0 L 542.0,803.0 L 561.0,924.0"/>
    <path d="M 555.0,768.0 L 567.0,777.0 L 668.0,754.0 L 692.0,754.0 L 714.0,777.0 L 699.0,823.0 L 675.0,837.0"/>
    <path d="M 578.0,891.0 L 592.0,882.0 L 666.0,867.0 L 711.0,864.0 L 731.0,869.0"/>
  </g>
</svg>
