<svg xmlns="http://www.w3.org/2000/svg" viewBox="0 0 1024 1024">
  <g style="fill:none;stroke:#000000;stroke-width:50;stroke-linecap:round;stroke-linejoin:round;" transform="scale(1, 1) translate(0, 0)">
    <path d="M 193.0,387.0 L 221.0,420.0 L 207.0,464.0 L 192.0,499.0 L 146.0,571.0 L 93.0,621.0"/>
    <path d="M 208.0,522.0 L 225.0,514.0 L 287.0,504.0 L 353.0,480.0 L 401.0,475.0"/>
    <path d="M 289.0,231.0 L 329.0,270.0 L 339.0,293.0 L 328.0,781.0 L 311.0,998.0 L 313.0,1070.0"/>
    <path d="M 86.0,837.0 L 132.0,840.0 L 359.0,668.0 L 364.0,659.0 L 424.0,619.0"/>
    <path d="M 504.0,294.0 L 528.0,300.0 L 569.0,297.0 L 742.0,255.0 L 799.0,250.0"/>
    <path d="M 630.0,176.0 L 664.0,211.0 L 658.0,330.0 L 643.0,351.0"/>
    <path d="M 535.0,393.0 L 579.0,389.0 L 712.0,356.0 L 751.0,351.0 L 772.0,356.0"/>
    <path d="M 433.0,464.0 L 457.0,484.0 L 465.0,500.0 L 496.0,616.0"/>
    <path d="M 476.0,465.0 L 495.0,474.0 L 760.0,418.0 L 805.0,412.0 L 848.0,417.0 L 870.0,447.0 L 811.0,565.0"/>
    <path d="M 569.0,477.0 L 577.0,482.0 L 593.0,550.0 L 601.0,554.0"/>
    <path d="M 697.0,449.0 L 718.0,468.0 L 699.0,527.0 L 688.0,539.0"/>
    <path d="M 512.0,586.0 L 520.0,592.0 L 737.0,546.0 L 795.0,540.0"/>
    <path d="M 505.0,652.0 L 523.0,675.0 L 532.0,722.0 L 531.0,810.0 L 522.0,876.0 L 529.0,928.0"/>
    <path d="M 547.0,662.0 L 561.0,670.0 L 573.0,669.0 L 740.0,633.0 L 759.0,639.0 L 780.0,658.0 L 789.0,675.0 L 782.0,756.0 L 784.0,848.0 L 775.0,936.0"/>
    <path d="M 553.0,748.0 L 674.0,724.0 L 697.0,725.0"/>
    <path d="M 553.0,833.0 L 559.0,827.0 L 606.0,823.0 L 685.0,803.0 L 704.0,805.0"/>
    <path d="M 549.0,910.0 L 583.0,897.0 L 741.0,880.0"/>
    <path d="M 602.0,990.0 L 571.0,992.0 L 515.0,1045.0 L 451.0,1085.0 L 419.0,1097.0"/>
    <path d="M 709.0,964.0 L 794.0,1038.0 L 817.0,1094.0"/>
  </g>
</svg>
