<svg xmlns="http://www.w3.org/2000/svg" viewBox="0 0 1024 1024">
  <g style="fill:none;stroke:#000000;stroke-width:50;stroke-linecap:round;stroke-linejoin:round;" transform="scale(1, 1) translate(0, 0)">
    <path d="M 544.0,253.0 L 565.0,289.0 L 566.0,301.0 L 516.0,385.0 L 458.0,456.0 L 414.0,499.0 L 351.0,546.0 L 305.0,571.0"/>
    <path d="M 366.0,322.0 L 383.0,344.0 L 440.0,380.0 L 469.0,407.0 L 522.0,481.0 L 542.0,535.0 L 562.0,622.0 L 573.0,742.0 L 571.0,828.0 L 561.0,900.0 L 547.0,948.0 L 527.0,974.0 L 521.0,977.0 L 474.0,959.0 L 394.0,919.0"/>
    <path d="M 518.0,554.0 L 508.0,621.0 L 455.0,695.0 L 377.0,780.0 L 279.0,861.0"/>
  </g>
</svg>
