<svg xmlns="http://www.w3.org/2000/svg" viewBox="0 0 1024 1024">
  <g style="fill:none;stroke:#000000;stroke-width:50;stroke-linecap:round;stroke-linejoin:round;" transform="scale(1, 1) translate(0, 0)">
    <path d="M 374.0,253.0 L 398.0,299.0 L 322.0,419.0 L 284.0,464.0 L 209.0,531.0 L 125.0,582.0"/>
    <path d="M 186.0,301.0 L 212.0,330.0 L 266.0,364.0 L 320.0,438.0 L 335.0,471.0 L 351.0,533.0 L 364.0,654.0 L 356.0,811.0 L 344.0,872.0 L 327.0,920.0 L 301.0,948.0 L 211.0,896.0"/>
    <path d="M 321.0,555.0 L 324.0,566.0 L 308.0,629.0 L 249.0,706.0 L 169.0,784.0 L 113.0,825.0 L 73.0,844.0"/>
    <path d="M 556.0,424.0 L 577.0,405.0 L 689.0,376.0 L 728.0,373.0 L 751.0,391.0 L 733.0,546.0 L 705.0,607.0 L 682.0,630.0 L 644.0,613.0 L 601.0,583.0"/>
    <path d="M 490.0,383.0 L 512.0,406.0 L 521.0,433.0 L 511.0,582.0 L 517.0,760.0 L 534.0,821.0 L 566.0,860.0 L 625.0,890.0 L 707.0,905.0 L 794.0,901.0 L 865.0,881.0 L 896.0,864.0 L 920.0,836.0 L 928.0,701.0"/>
  </g>
</svg>
