<svg xmlns="http://www.w3.org/2000/svg" viewBox="0 0 1024 1024">
  <g style="fill:none;stroke:#000000;stroke-width:50;stroke-linecap:round;stroke-linejoin:round;" transform="scale(1, 1) translate(0, 0)">
    <path d="M 116.0,417.0 L 143.0,442.0 L 133.0,491.0 L 95.0,581.0 L 55.0,633.0"/>
    <path d="M 148.0,527.0 L 160.0,516.0 L 204.0,508.0 L 271.0,483.0 L 321.0,476.0"/>
    <path d="M 205.0,224.0 L 250.0,269.0 L 255.0,285.0 L 246.0,786.0 L 230.0,958.0 L 233.0,1042.0"/>
    <path d="M 49.0,813.0 L 99.0,812.0 L 274.0,680.0 L 304.0,651.0"/>
    <path d="M 473.0,218.0 L 539.0,257.0 L 552.0,279.0"/>
    <path d="M 696.0,178.0 L 708.0,211.0 L 665.0,276.0 L 636.0,301.0"/>
    <path d="M 455.0,341.0 L 500.0,342.0 L 619.0,319.0 L 762.0,301.0 L 795.0,302.0 L 836.0,313.0"/>
    <path d="M 399.0,417.0 L 428.0,439.0 L 436.0,622.0 L 427.0,632.0"/>
    <path d="M 456.0,519.0 L 462.0,507.0 L 504.0,500.0"/>
    <path d="M 333.0,517.0 L 356.0,538.0 L 373.0,616.0 L 371.0,629.0 L 378.0,641.0 L 368.0,651.0"/>
    <path d="M 324.0,686.0 L 358.0,691.0 L 503.0,615.0"/>
    <path d="M 578.0,348.0 L 590.0,368.0 L 558.0,426.0 L 546.0,436.0"/>
    <path d="M 519.0,440.0 L 537.0,466.0 L 545.0,677.0"/>
    <path d="M 547.0,442.0 L 568.0,448.0 L 601.0,432.0 L 648.0,422.0 L 669.0,429.0 L 678.0,439.0 L 682.0,583.0 L 675.0,660.0 L 680.0,688.0"/>
    <path d="M 565.0,531.0 L 569.0,520.0 L 585.0,515.0 L 632.0,511.0"/>
    <path d="M 559.0,597.0 L 569.0,588.0 L 595.0,581.0 L 636.0,579.0"/>
    <path d="M 566.0,663.0 L 570.0,654.0 L 654.0,639.0"/>
    <path d="M 763.0,421.0 L 776.0,423.0 L 839.0,403.0 L 850.0,405.0 L 865.0,419.0 L 846.0,484.0 L 824.0,501.0"/>
    <path d="M 764.0,539.0 L 826.0,520.0 L 854.0,517.0 L 876.0,522.0"/>
    <path d="M 728.0,414.0 L 742.0,429.0 L 749.0,448.0 L 745.0,580.0 L 753.0,625.0 L 770.0,654.0 L 821.0,669.0 L 863.0,668.0 L 901.0,657.0 L 928.0,634.0 L 940.0,571.0"/>
    <path d="M 479.0,700.0 L 491.0,725.0 L 472.0,761.0 L 440.0,802.0 L 374.0,850.0"/>
    <path d="M 715.0,720.0 L 808.0,771.0 L 831.0,804.0"/>
    <path d="M 553.0,731.0 L 569.0,760.0 L 513.0,843.0 L 427.0,927.0 L 366.0,965.0 L 351.0,966.0 L 348.0,973.0"/>
    <path d="M 576.0,803.0 L 661.0,785.0 L 695.0,791.0 L 706.0,805.0 L 650.0,900.0 L 576.0,984.0 L 497.0,1037.0 L 433.0,1061.0 L 412.0,1062.0"/>
    <path d="M 515.0,872.0 L 563.0,889.0 L 664.0,978.0 L 784.0,1054.0 L 935.0,1061.0"/>
  </g>
</svg>
