<svg xmlns="http://www.w3.org/2000/svg" viewBox="0 0 1024 1024">
  <g style="fill:none;stroke:#000000;stroke-width:50;stroke-linecap:round;stroke-linejoin:round;" transform="scale(1, 1) translate(0, 0)">
    <path d="M 344.0,260.0 L 364.0,292.0 L 362.0,311.0 L 301.0,413.0 L 225.0,502.0 L 158.0,556.0 L 112.0,582.0"/>
    <path d="M 148.0,337.0 L 166.0,356.0 L 202.0,370.0 L 245.0,397.0 L 268.0,420.0 L 298.0,466.0 L 326.0,564.0 L 338.0,675.0 L 337.0,771.0 L 329.0,837.0 L 315.0,893.0 L 292.0,950.0 L 262.0,976.0 L 166.0,924.0"/>
    <path d="M 300.0,565.0 L 287.0,636.0 L 251.0,688.0 L 183.0,768.0 L 71.0,865.0"/>
    <path d="M 411.0,548.0 L 438.0,554.0 L 485.0,551.0 L 740.0,496.0 L 794.0,502.0"/>
    <path d="M 545.0,263.0 L 569.0,282.0 L 583.0,312.0 L 570.0,468.0 L 541.0,635.0 L 514.0,724.0 L 480.0,807.0 L 438.0,888.0 L 381.0,972.0 L 349.0,1006.0"/>
    <path d="M 604.0,627.0 L 632.0,662.0 L 623.0,833.0 L 631.0,924.0 L 647.0,960.0 L 680.0,985.0 L 724.0,1001.0 L 779.0,1008.0 L 845.0,1003.0 L 902.0,983.0 L 931.0,958.0 L 932.0,809.0"/>
    <path d="M 709.0,303.0 L 790.0,352.0 L 819.0,391.0"/>
  </g>
</svg>
