<svg xmlns="http://www.w3.org/2000/svg" viewBox="0 0 1024 1024">
  <g style="fill:none;stroke:#000000;stroke-width:50;stroke-linecap:round;stroke-linejoin:round;" transform="scale(1, 1) translate(0, 0)">
    <path d="M 334.0,229.0 L 358.0,269.0 L 308.0,365.0 L 251.0,440.0 L 207.0,484.0 L 123.0,542.0"/>
    <path d="M 168.0,292.0 L 187.0,313.0 L 225.0,330.0 L 259.0,357.0 L 290.0,419.0 L 318.0,530.0 L 331.0,709.0 L 319.0,843.0 L 306.0,902.0 L 287.0,947.0 L 265.0,969.0 L 178.0,920.0"/>
    <path d="M 287.0,547.0 L 276.0,608.0 L 240.0,659.0 L 140.0,770.0 L 66.0,830.0"/>
    <path d="M 484.0,367.0 L 547.0,370.0 L 630.0,351.0 L 738.0,316.0 L 786.0,317.0"/>
    <path d="M 401.0,615.0 L 454.0,617.0 L 686.0,565.0 L 856.0,535.0 L 901.0,538.0 L 937.0,548.0"/>
    <path d="M 582.0,397.0 L 621.0,414.0 L 628.0,423.0 L 627.0,1060.0"/>
  </g>
</svg>
