<svg xmlns="http://www.w3.org/2000/svg" viewBox="0 0 1024 1024">
  <g style="fill:none;stroke:#000000;stroke-width:50;stroke-linecap:round;stroke-linejoin:round;" transform="scale(1, 1) translate(0, 0)">
    <path d="M 328.0,276.0 L 355.0,324.0 L 303.0,423.0 L 243.0,504.0 L 211.0,536.0 L 112.0,609.0"/>
    <path d="M 150.0,287.0 L 161.0,311.0 L 202.0,347.0 L 239.0,394.0 L 276.0,472.0 L 293.0,522.0 L 306.0,589.0 L 312.0,681.0 L 305.0,825.0 L 286.0,924.0 L 272.0,960.0 L 248.0,987.0 L 175.0,940.0"/>
    <path d="M 278.0,613.0 L 281.0,618.0 L 261.0,680.0 L 210.0,748.0 L 142.0,819.0 L 55.0,889.0"/>
    <path d="M 539.0,251.0 L 572.0,284.0 L 578.0,305.0 L 558.0,500.0 L 531.0,630.0 L 487.0,759.0 L 456.0,823.0 L 409.0,904.0 L 337.0,994.0"/>
    <path d="M 391.0,577.0 L 451.0,579.0 L 683.0,501.0 L 711.0,501.0 L 734.0,523.0 L 706.0,606.0 L 682.0,717.0 L 659.0,880.0 L 666.0,954.0 L 676.0,969.0 L 703.0,989.0 L 745.0,1002.0 L 823.0,1008.0 L 886.0,999.0 L 932.0,978.0 L 937.0,823.0"/>
  </g>
</svg>
