<svg xmlns="http://www.w3.org/2000/svg" viewBox="0 0 1024 1024">
  <g style="fill:none;stroke:#000000;stroke-width:50;stroke-linecap:round;stroke-linejoin:round;" transform="scale(1, 1) translate(0, 0)">
    <path d="M 360.0,214.0 L 373.0,230.0 L 385.0,262.0 L 324.0,366.0 L 266.0,439.0 L 195.0,507.0 L 101.0,566.0"/>
    <path d="M 156.0,276.0 L 177.0,296.0 L 237.0,322.0 L 264.0,346.0 L 291.0,383.0 L 319.0,454.0 L 332.0,508.0 L 348.0,658.0 L 339.0,809.0 L 323.0,883.0 L 303.0,929.0 L 278.0,954.0 L 187.0,892.0"/>
    <path d="M 306.0,519.0 L 291.0,601.0 L 240.0,677.0 L 136.0,787.0 L 58.0,840.0"/>
    <path d="M 474.0,414.0 L 510.0,421.0 L 562.0,419.0 L 660.0,404.0 L 784.0,374.0 L 839.0,376.0"/>
    <path d="M 486.0,645.0 L 563.0,648.0 L 737.0,607.0 L 808.0,602.0"/>
    <path d="M 602.0,446.0 L 637.0,471.0 L 640.0,543.0 L 634.0,817.0 L 613.0,838.0"/>
    <path d="M 399.0,883.0 L 454.0,892.0 L 542.0,877.0 L 854.0,844.0 L 891.0,848.0 L 942.0,865.0"/>
  </g>
</svg>
