<svg xmlns="http://www.w3.org/2000/svg" viewBox="0 0 1024 1024">
  <g style="fill:none;stroke:#000000;stroke-width:50;stroke-linecap:round;stroke-linejoin:round;" transform="scale(1, 1) translate(0, 0)">
    <path d="M 370.0,277.0 L 391.0,321.0 L 350.0,391.0 L 311.0,442.0 L 261.0,495.0 L 201.0,544.0 L 124.0,587.0"/>
    <path d="M 168.0,343.0 L 187.0,366.0 L 245.0,397.0 L 286.0,448.0 L 305.0,492.0 L 323.0,561.0 L 339.0,706.0 L 334.0,859.0 L 316.0,946.0 L 306.0,968.0 L 282.0,993.0 L 191.0,944.0"/>
    <path d="M 296.0,574.0 L 287.0,635.0 L 260.0,675.0 L 183.0,768.0 L 75.0,862.0"/>
    <path d="M 456.0,428.0 L 502.0,433.0 L 597.0,409.0 L 782.0,377.0 L 829.0,377.0 L 877.0,388.0"/>
    <path d="M 665.0,419.0 L 696.0,455.0 L 650.0,554.0 L 596.0,636.0 L 490.0,751.0 L 398.0,819.0"/>
    <path d="M 597.0,521.0 L 633.0,585.0 L 632.0,740.0 L 625.0,812.0 L 630.0,878.0"/>
    <path d="M 722.0,638.0 L 851.0,717.0 L 875.0,741.0 L 897.0,782.0"/>
    <path d="M 418.0,995.0 L 476.0,1003.0 L 580.0,984.0 L 809.0,958.0 L 843.0,959.0 L 899.0,975.0"/>
  </g>
</svg>
