<svg xmlns="http://www.w3.org/2000/svg" viewBox="0 0 1024 1024">
  <g style="fill:none;stroke:#000000;stroke-width:50;stroke-linecap:round;stroke-linejoin:round;" transform="scale(1, 1) translate(0, 0)">
    <path d="M 380.0,232.0 L 393.0,252.0 L 400.0,281.0 L 338.0,378.0 L 241.0,479.0 L 174.0,526.0 L 124.0,551.0"/>
    <path d="M 170.0,296.0 L 182.0,316.0 L 252.0,362.0 L 307.0,431.0 L 339.0,497.0 L 363.0,623.0 L 365.0,765.0 L 359.0,833.0 L 344.0,906.0 L 331.0,938.0 L 307.0,965.0 L 203.0,919.0"/>
    <path d="M 315.0,515.0 L 304.0,599.0 L 259.0,671.0 L 162.0,783.0 L 109.0,827.0 L 67.0,851.0"/>
    <path d="M 482.0,323.0 L 506.0,344.0 L 520.0,372.0 L 524.0,430.0 L 525.0,604.0 L 508.0,745.0 L 511.0,804.0"/>
    <path d="M 532.0,331.0 L 555.0,343.0 L 577.0,342.0 L 757.0,309.0 L 779.0,315.0 L 810.0,350.0 L 803.0,413.0 L 807.0,723.0 L 798.0,799.0"/>
    <path d="M 608.0,442.0 L 629.0,451.0 L 658.0,481.0 L 652.0,671.0 L 635.0,784.0 L 619.0,835.0 L 593.0,888.0 L 550.0,936.0 L 470.0,989.0 L 404.0,1017.0"/>
    <path d="M 689.0,824.0 L 807.0,924.0 L 831.0,955.0 L 846.0,1001.0"/>
  </g>
</svg>
