<svg xmlns="http://www.w3.org/2000/svg" viewBox="0 0 1024 1024">
  <g style="fill:none;stroke:#000000;stroke-width:50;stroke-linecap:round;stroke-linejoin:round;" transform="scale(1, 1) translate(0, 0)">
    <path d="M 352.0,268.0 L 366.0,286.0 L 376.0,315.0 L 309.0,416.0 L 267.0,463.0 L 208.0,513.0 L 172.0,539.0 L 125.0,562.0"/>
    <path d="M 164.0,308.0 L 183.0,328.0 L 223.0,343.0 L 250.0,361.0 L 291.0,412.0 L 312.0,462.0 L 334.0,542.0 L 351.0,707.0 L 343.0,858.0 L 332.0,916.0 L 313.0,960.0 L 292.0,982.0 L 190.0,935.0"/>
    <path d="M 311.0,569.0 L 295.0,645.0 L 254.0,705.0 L 177.0,789.0 L 123.0,835.0 L 62.0,873.0"/>
    <path d="M 436.0,499.0 L 500.0,573.0 L 510.0,598.0"/>
    <path d="M 820.0,404.0 L 841.0,428.0 L 849.0,449.0 L 776.0,522.0 L 706.0,579.0"/>
    <path d="M 581.0,233.0 L 610.0,253.0 L 634.0,280.0 L 624.0,592.0 L 617.0,658.0 L 599.0,739.0 L 569.0,813.0 L 526.0,874.0 L 457.0,926.0 L 379.0,962.0"/>
    <path d="M 645.0,646.0 L 657.0,693.0 L 683.0,740.0 L 755.0,851.0 L 809.0,915.0 L 823.0,927.0 L 947.0,969.0"/>
  </g>
</svg>
