<svg xmlns="http://www.w3.org/2000/svg" viewBox="0 0 1024 1024">
  <g style="fill:none;stroke:#000000;stroke-width:50;stroke-linecap:round;stroke-linejoin:round;" transform="scale(1, 1) translate(0, 0)">
    <path d="M 362.0,257.0 L 382.0,303.0 L 326.0,391.0 L 233.0,488.0 L 131.0,552.0"/>
    <path d="M 183.0,298.0 L 193.0,319.0 L 232.0,347.0 L 263.0,381.0 L 309.0,459.0 L 337.0,551.0 L 348.0,613.0 L 351.0,683.0 L 343.0,835.0 L 328.0,904.0 L 313.0,934.0 L 297.0,948.0 L 202.0,896.0"/>
    <path d="M 309.0,542.0 L 297.0,612.0 L 235.0,697.0 L 159.0,775.0 L 66.0,841.0"/>
    <path d="M 586.0,219.0 L 604.0,233.0 L 624.0,266.0 L 597.0,326.0 L 559.0,395.0 L 492.0,492.0 L 431.0,557.0"/>
    <path d="M 523.0,494.0 L 776.0,433.0 L 809.0,443.0 L 842.0,472.0 L 825.0,766.0 L 804.0,893.0 L 786.0,948.0 L 769.0,978.0 L 740.0,1003.0 L 614.0,939.0"/>
    <path d="M 424.0,619.0 L 446.0,638.0 L 458.0,662.0 L 488.0,810.0"/>
    <path d="M 476.0,623.0 L 487.0,630.0 L 602.0,605.0 L 629.0,624.0 L 635.0,633.0 L 610.0,714.0 L 586.0,729.0"/>
    <path d="M 505.0,782.0 L 521.0,770.0 L 569.0,758.0 L 636.0,760.0"/>
  </g>
</svg>
