<svg xmlns="http://www.w3.org/2000/svg" viewBox="0 0 1024 1024">
  <g style="fill:none;stroke:#000000;stroke-width:50;stroke-linecap:round;stroke-linejoin:round;" transform="scale(1, 1) translate(0, 0)">
    <path d="M 363.0,229.0 L 385.0,277.0 L 303.0,402.0 L 230.0,479.0 L 170.0,525.0 L 97.0,566.0"/>
    <path d="M 150.0,273.0 L 161.0,293.0 L 218.0,335.0 L 245.0,367.0 L 287.0,448.0 L 312.0,548.0 L 321.0,673.0 L 310.0,842.0 L 292.0,918.0 L 277.0,949.0 L 256.0,968.0 L 163.0,920.0"/>
    <path d="M 279.0,563.0 L 282.0,572.0 L 268.0,631.0 L 221.0,700.0 L 128.0,801.0 L 55.0,861.0"/>
    <path d="M 521.0,315.0 L 532.0,318.0 L 696.0,280.0 L 724.0,283.0 L 751.0,304.0 L 760.0,324.0 L 710.0,507.0 L 693.0,545.0 L 696.0,573.0"/>
    <path d="M 521.0,452.0 L 534.0,439.0 L 566.0,428.0 L 614.0,418.0 L 649.0,422.0"/>
    <path d="M 525.0,577.0 L 545.0,560.0 L 653.0,536.0"/>
    <path d="M 453.0,303.0 L 476.0,325.0 L 492.0,352.0 L 498.0,607.0 L 490.0,796.0 L 478.0,908.0 L 480.0,949.0 L 526.0,938.0 L 661.0,855.0"/>
    <path d="M 773.0,560.0 L 792.0,582.0 L 796.0,600.0 L 721.0,685.0 L 690.0,714.0 L 682.0,714.0"/>
    <path d="M 524.0,607.0 L 535.0,625.0 L 693.0,767.0 L 824.0,860.0 L 865.0,868.0 L 988.0,869.0"/>
  </g>
</svg>
