<svg xmlns="http://www.w3.org/2000/svg" viewBox="0 0 1024 1024">
  <g style="fill:none;stroke:#000000;stroke-width:50;stroke-linecap:round;stroke-linejoin:round;" transform="scale(1, 1) translate(0, 0)">
    <path d="M 344.0,225.0 L 360.0,242.0 L 374.0,272.0 L 306.0,409.0 L 214.0,524.0 L 112.0,605.0"/>
    <path d="M 155.0,301.0 L 171.0,328.0 L 216.0,358.0 L 249.0,392.0 L 299.0,469.0 L 327.0,539.0 L 346.0,671.0 L 349.0,730.0 L 339.0,852.0 L 320.0,932.0 L 306.0,964.0 L 284.0,988.0 L 187.0,924.0"/>
    <path d="M 298.0,562.0 L 302.0,570.0 L 292.0,639.0 L 239.0,722.0 L 159.0,815.0 L 99.0,868.0 L 62.0,892.0"/>
    <path d="M 489.0,360.0 L 521.0,392.0 L 531.0,416.0 L 533.0,446.0 L 533.0,857.0 L 513.0,871.0"/>
    <path d="M 550.0,378.0 L 576.0,385.0 L 731.0,344.0 L 758.0,351.0 L 787.0,389.0 L 775.0,478.0 L 767.0,806.0 L 764.0,827.0 L 741.0,853.0"/>
    <path d="M 563.0,555.0 L 577.0,539.0 L 603.0,529.0 L 643.0,520.0 L 681.0,524.0"/>
    <path d="M 560.0,712.0 L 575.0,700.0 L 622.0,688.0 L 663.0,681.0 L 696.0,687.0"/>
    <path d="M 398.0,904.0 L 446.0,914.0 L 613.0,891.0 L 877.0,869.0 L 908.0,871.0 L 963.0,888.0"/>
  </g>
</svg>
