<svg xmlns="http://www.w3.org/2000/svg" viewBox="0 0 1024 1024">
  <g style="fill:none;stroke:#000000;stroke-width:50;stroke-linecap:round;stroke-linejoin:round;" transform="scale(1, 1) translate(0, 0)">
    <path d="M 356.0,293.0 L 370.0,314.0 L 377.0,340.0 L 321.0,431.0 L 249.0,511.0 L 192.0,557.0 L 132.0,591.0"/>
    <path d="M 154.0,308.0 L 172.0,334.0 L 210.0,355.0 L 243.0,383.0 L 268.0,412.0 L 300.0,470.0 L 322.0,537.0 L 336.0,679.0 L 327.0,819.0 L 309.0,898.0 L 291.0,942.0 L 264.0,969.0 L 160.0,919.0"/>
    <path d="M 297.0,572.0 L 283.0,641.0 L 242.0,698.0 L 183.0,765.0 L 83.0,849.0"/>
    <path d="M 407.0,532.0 L 430.0,537.0 L 478.0,533.0 L 680.0,474.0 L 743.0,466.0"/>
    <path d="M 381.0,744.0 L 438.0,743.0 L 561.0,708.0 L 603.0,710.0"/>
    <path d="M 466.0,614.0 L 486.0,627.0 L 501.0,649.0 L 498.0,730.0 L 483.0,820.0 L 466.0,862.0 L 432.0,913.0 L 408.0,937.0 L 374.0,957.0"/>
    <path d="M 524.0,265.0 L 561.0,281.0 L 590.0,307.0 L 616.0,531.0 L 641.0,642.0 L 678.0,754.0 L 706.0,816.0 L 745.0,878.0 L 800.0,942.0 L 824.0,957.0 L 865.0,968.0 L 875.0,950.0 L 890.0,902.0 L 909.0,794.0"/>
    <path d="M 749.0,585.0 L 771.0,619.0 L 721.0,744.0 L 655.0,831.0 L 597.0,880.0 L 540.0,916.0"/>
    <path d="M 701.0,287.0 L 782.0,330.0 L 812.0,365.0"/>
  </g>
</svg>
