<svg xmlns="http://www.w3.org/2000/svg" viewBox="0 0 1024 1024">
  <g style="fill:none;stroke:#000000;stroke-width:50;stroke-linecap:round;stroke-linejoin:round;" transform="scale(1, 1) translate(0, 0)">
    <path d="M 311.0,235.0 L 336.0,281.0 L 291.0,366.0 L 220.0,456.0 L 165.0,505.0 L 108.0,541.0"/>
    <path d="M 164.0,282.0 L 179.0,309.0 L 220.0,342.0 L 249.0,375.0 L 290.0,453.0 L 318.0,578.0 L 322.0,689.0 L 308.0,847.0 L 295.0,900.0 L 280.0,931.0 L 259.0,952.0 L 156.0,900.0"/>
    <path d="M 277.0,531.0 L 267.0,592.0 L 222.0,654.0 L 167.0,718.0 L 67.0,805.0"/>
    <path d="M 558.0,197.0 L 639.0,248.0 L 669.0,292.0"/>
    <path d="M 435.0,354.0 L 446.0,387.0 L 446.0,407.0 L 407.0,501.0 L 403.0,533.0"/>
    <path d="M 476.0,390.0 L 494.0,400.0 L 520.0,398.0 L 750.0,347.0 L 797.0,348.0 L 823.0,363.0 L 829.0,373.0 L 759.0,465.0"/>
    <path d="M 396.0,640.0 L 441.0,645.0 L 614.0,607.0 L 819.0,575.0 L 862.0,576.0 L 906.0,586.0"/>
    <path d="M 653.0,480.0 L 681.0,503.0 L 704.0,533.0 L 698.0,659.0 L 702.0,810.0 L 695.0,921.0 L 675.0,961.0 L 645.0,953.0 L 558.0,907.0"/>
    <path d="M 482.0,698.0 L 532.0,755.0 L 543.0,787.0"/>
  </g>
</svg>
