<svg xmlns="http://www.w3.org/2000/svg" viewBox="0 0 1024 1024">
  <g style="fill:none;stroke:#000000;stroke-width:50;stroke-linecap:round;stroke-linejoin:round;" transform="scale(1, 1) translate(0, 0)">
    <path d="M 351.0,266.0 L 373.0,307.0 L 306.0,416.0 L 224.0,504.0 L 186.0,534.0 L 128.0,567.0"/>
    <path d="M 172.0,332.0 L 186.0,351.0 L 242.0,382.0 L 262.0,400.0 L 317.0,476.0 L 348.0,592.0 L 359.0,714.0 L 348.0,861.0 L 332.0,923.0 L 316.0,953.0 L 298.0,969.0 L 198.0,912.0"/>
    <path d="M 312.0,551.0 L 302.0,621.0 L 260.0,685.0 L 180.0,781.0 L 83.0,869.0"/>
    <path d="M 581.0,201.0 L 599.0,221.0 L 605.0,244.0 L 565.0,305.0 L 514.0,367.0 L 473.0,408.0 L 443.0,428.0"/>
    <path d="M 568.0,342.0 L 683.0,323.0 L 714.0,333.0 L 708.0,355.0 L 681.0,400.0 L 631.0,472.0 L 618.0,480.0"/>
    <path d="M 470.0,521.0 L 516.0,524.0 L 644.0,501.0 L 741.0,474.0 L 776.0,480.0 L 803.0,506.0 L 769.0,676.0 L 750.0,693.0"/>
    <path d="M 401.0,656.0 L 454.0,662.0 L 580.0,636.0 L 846.0,598.0 L 893.0,598.0 L 949.0,611.0"/>
    <path d="M 477.0,758.0 L 497.0,764.0 L 741.0,722.0 L 791.0,721.0 L 816.0,729.0"/>
    <path d="M 606.0,532.0 L 632.0,546.0 L 640.0,564.0 L 641.0,978.0 L 620.0,1016.0 L 585.0,1008.0 L 492.0,961.0"/>
  </g>
</svg>
