<svg xmlns="http://www.w3.org/2000/svg" viewBox="0 0 1024 1024">
  <g style="fill:none;stroke:#000000;stroke-width:50;stroke-linecap:round;stroke-linejoin:round;" transform="scale(1, 1) translate(0, 0)">
    <path d="M 333.0,254.0 L 354.0,289.0 L 353.0,306.0 L 302.0,390.0 L 228.0,480.0 L 173.0,526.0 L 112.0,562.0"/>
    <path d="M 162.0,321.0 L 184.0,351.0 L 217.0,369.0 L 249.0,400.0 L 290.0,460.0 L 305.0,494.0 L 319.0,534.0 L 335.0,623.0 L 337.0,743.0 L 319.0,887.0 L 304.0,938.0 L 285.0,969.0 L 268.0,984.0 L 159.0,928.0"/>
    <path d="M 293.0,551.0 L 283.0,620.0 L 240.0,687.0 L 164.0,778.0 L 70.0,863.0"/>
    <path d="M 477.0,426.0 L 497.0,431.0 L 550.0,428.0 L 637.0,411.0 L 735.0,380.0 L 781.0,381.0"/>
    <path d="M 434.0,526.0 L 484.0,567.0 L 498.0,583.0 L 507.0,608.0"/>
    <path d="M 736.0,459.0 L 754.0,489.0 L 665.0,582.0"/>
    <path d="M 394.0,691.0 L 447.0,696.0 L 819.0,637.0 L 895.0,654.0"/>
    <path d="M 562.0,232.0 L 598.0,259.0 L 611.0,278.0 L 600.0,590.0 L 590.0,721.0 L 579.0,775.0 L 544.0,856.0 L 508.0,900.0 L 474.0,928.0 L 432.0,951.0 L 352.0,982.0"/>
    <path d="M 619.0,695.0 L 632.0,737.0 L 658.0,780.0 L 733.0,887.0 L 792.0,952.0 L 822.0,976.0 L 955.0,1010.0"/>
  </g>
</svg>
