<svg xmlns="http://www.w3.org/2000/svg" viewBox="0 0 1024 1024">
  <g style="fill:none;stroke:#000000;stroke-width:50;stroke-linecap:round;stroke-linejoin:round;" transform="scale(1, 1) translate(0, 0)">
    <path d="M 335.0,250.0 L 352.0,273.0 L 359.0,298.0 L 307.0,392.0 L 215.0,500.0 L 116.0,569.0"/>
    <path d="M 150.0,325.0 L 172.0,356.0 L 200.0,374.0 L 230.0,405.0 L 253.0,438.0 L 278.0,491.0 L 304.0,618.0 L 309.0,761.0 L 293.0,908.0 L 281.0,948.0 L 267.0,967.0 L 256.0,977.0 L 146.0,927.0"/>
    <path d="M 269.0,580.0 L 258.0,642.0 L 231.0,681.0 L 147.0,782.0 L 59.0,861.0"/>
    <path d="M 381.0,411.0 L 412.0,420.0 L 428.0,418.0 L 537.0,370.0 L 567.0,371.0 L 582.0,378.0 L 597.0,394.0 L 594.0,401.0 L 581.0,427.0 L 519.0,508.0 L 511.0,522.0 L 514.0,530.0"/>
    <path d="M 459.0,504.0 L 497.0,562.0 L 520.0,653.0 L 530.0,780.0 L 524.0,882.0 L 509.0,931.0 L 493.0,952.0 L 393.0,908.0"/>
    <path d="M 343.0,715.0 L 389.0,724.0 L 608.0,599.0"/>
    <path d="M 706.0,315.0 L 722.0,323.0 L 753.0,357.0 L 745.0,557.0 L 749.0,919.0 L 729.0,966.0 L 661.0,939.0 L 622.0,920.0 L 620.0,913.0 L 609.0,913.0"/>
    <path d="M 641.0,640.0 L 629.0,710.0 L 599.0,791.0"/>
    <path d="M 831.0,625.0 L 922.0,719.0 L 938.0,747.0 L 945.0,780.0"/>
  </g>
</svg>
