<svg xmlns="http://www.w3.org/2000/svg" viewBox="0 0 1024 1024">
  <g style="fill:none;stroke:#000000;stroke-width:50;stroke-linecap:round;stroke-linejoin:round;" transform="scale(1, 1) translate(0, 0)">
    <path d="M 303.0,278.0 L 323.0,311.0 L 323.0,322.0 L 258.0,425.0 L 180.0,506.0 L 96.0,559.0"/>
    <path d="M 119.0,323.0 L 146.0,349.0 L 186.0,365.0 L 218.0,389.0 L 260.0,452.0 L 289.0,556.0 L 305.0,713.0 L 292.0,859.0 L 276.0,915.0 L 259.0,943.0 L 248.0,953.0 L 228.0,946.0 L 142.0,896.0"/>
    <path d="M 264.0,558.0 L 249.0,626.0 L 225.0,662.0 L 163.0,741.0 L 63.0,834.0"/>
    <path d="M 474.0,468.0 L 482.0,455.0 L 520.0,441.0 L 569.0,438.0"/>
    <path d="M 407.0,347.0 L 430.0,367.0 L 444.0,391.0 L 444.0,481.0 L 435.0,575.0 L 438.0,616.0 L 475.0,608.0 L 563.0,558.0"/>
    <path d="M 812.0,377.0 L 778.0,367.0 L 713.0,410.0 L 681.0,424.0 L 663.0,446.0"/>
    <path d="M 598.0,255.0 L 627.0,281.0 L 645.0,307.0 L 634.0,513.0 L 641.0,569.0 L 656.0,593.0 L 706.0,609.0 L 768.0,612.0 L 827.0,593.0 L 839.0,585.0 L 837.0,475.0"/>
    <path d="M 441.0,798.0 L 499.0,803.0 L 699.0,758.0 L 740.0,763.0"/>
    <path d="M 549.0,635.0 L 592.0,670.0 L 585.0,898.0 L 570.0,921.0"/>
    <path d="M 346.0,963.0 L 398.0,972.0 L 545.0,950.0 L 809.0,923.0 L 842.0,926.0 L 891.0,943.0"/>
  </g>
</svg>
