<svg xmlns="http://www.w3.org/2000/svg" viewBox="0 0 1024 1024">
  <g style="fill:none;stroke:#000000;stroke-width:50;stroke-linecap:round;stroke-linejoin:round;" transform="scale(1, 1) translate(0, 0)">
    <path d="M 340.0,224.0 L 363.0,264.0 L 298.0,379.0 L 206.0,482.0 L 153.0,524.0 L 107.0,550.0"/>
    <path d="M 158.0,305.0 L 168.0,324.0 L 210.0,352.0 L 247.0,390.0 L 286.0,462.0 L 309.0,560.0 L 319.0,685.0 L 313.0,792.0 L 303.0,851.0 L 291.0,900.0 L 276.0,930.0 L 256.0,948.0 L 155.0,888.0"/>
    <path d="M 273.0,536.0 L 265.0,600.0 L 222.0,670.0 L 134.0,781.0 L 61.0,850.0"/>
    <path d="M 379.0,445.0 L 407.0,475.0 L 412.0,550.0 L 399.0,663.0 L 404.0,710.0"/>
    <path d="M 484.0,350.0 L 504.0,366.0 L 519.0,392.0 L 520.0,536.0 L 506.0,674.0 L 489.0,756.0 L 461.0,839.0 L 415.0,929.0 L 378.0,980.0"/>
    <path d="M 607.0,368.0 L 664.0,370.0 L 754.0,350.0 L 852.0,317.0 L 898.0,315.0"/>
    <path d="M 585.0,522.0 L 605.0,540.0 L 612.0,573.0 L 600.0,768.0"/>
    <path d="M 631.0,529.0 L 651.0,535.0 L 824.0,498.0 L 848.0,496.0 L 862.0,506.0 L 873.0,529.0 L 875.0,624.0 L 875.0,675.0 L 865.0,716.0 L 858.0,726.0 L 844.0,723.0 L 767.0,693.0"/>
    <path d="M 696.0,392.0 L 732.0,413.0 L 727.0,1065.0"/>
  </g>
</svg>
