<svg xmlns="http://www.w3.org/2000/svg" viewBox="0 0 1024 1024">
  <g style="fill:none;stroke:#000000;stroke-width:50;stroke-linecap:round;stroke-linejoin:round;" transform="scale(1, 1) translate(0, 0)">
    <path d="M 332.0,244.0 L 358.0,285.0 L 291.0,403.0 L 210.0,494.0 L 124.0,554.0"/>
    <path d="M 131.0,299.0 L 157.0,322.0 L 195.0,334.0 L 242.0,364.0 L 275.0,398.0 L 296.0,433.0 L 324.0,515.0 L 343.0,667.0 L 342.0,755.0 L 334.0,825.0 L 315.0,908.0 L 299.0,941.0 L 276.0,966.0 L 271.0,965.0 L 167.0,900.0"/>
    <path d="M 297.0,552.0 L 300.0,559.0 L 288.0,609.0 L 232.0,687.0 L 165.0,763.0 L 67.0,850.0"/>
    <path d="M 546.0,221.0 L 641.0,270.0 L 671.0,309.0"/>
    <path d="M 402.0,447.0 L 445.0,453.0 L 570.0,425.0 L 804.0,388.0 L 859.0,393.0 L 893.0,403.0"/>
    <path d="M 498.0,568.0 L 691.0,533.0 L 726.0,539.0"/>
    <path d="M 494.0,683.0 L 661.0,651.0 L 683.0,649.0 L 722.0,657.0"/>
    <path d="M 438.0,786.0 L 476.0,837.0 L 512.0,1006.0"/>
    <path d="M 457.0,779.0 L 463.0,786.0 L 517.0,798.0 L 689.0,763.0 L 737.0,763.0 L 774.0,798.0 L 740.0,892.0 L 713.0,908.0"/>
    <path d="M 528.0,948.0 L 542.0,960.0 L 707.0,939.0 L 753.0,943.0 L 774.0,951.0"/>
  </g>
</svg>
