<svg xmlns="http://www.w3.org/2000/svg" viewBox="0 0 1024 1024">
  <g style="fill:none;stroke:#000000;stroke-width:50;stroke-linecap:round;stroke-linejoin:round;" transform="scale(1, 1) translate(0, 0)">
    <path d="M 339.0,227.0 L 355.0,246.0 L 363.0,273.0 L 307.0,370.0 L 228.0,464.0 L 159.0,519.0 L 112.0,546.0"/>
    <path d="M 154.0,292.0 L 172.0,318.0 L 240.0,370.0 L 290.0,445.0 L 317.0,528.0 L 331.0,656.0 L 324.0,821.0 L 311.0,891.0 L 298.0,924.0 L 275.0,949.0 L 171.0,903.0"/>
    <path d="M 292.0,537.0 L 276.0,612.0 L 254.0,642.0 L 179.0,725.0 L 127.0,772.0 L 57.0,812.0"/>
    <path d="M 430.0,366.0 L 449.0,381.0 L 465.0,406.0 L 516.0,646.0"/>
    <path d="M 477.0,366.0 L 500.0,375.0 L 744.0,330.0 L 780.0,331.0 L 803.0,339.0 L 828.0,375.0 L 807.0,438.0 L 783.0,544.0 L 760.0,604.0 L 764.0,625.0"/>
    <path d="M 543.0,497.0 L 594.0,492.0 L 664.0,473.0 L 716.0,476.0"/>
    <path d="M 535.0,629.0 L 555.0,616.0 L 700.0,592.0 L 729.0,581.0"/>
    <path d="M 588.0,379.0 L 616.0,394.0 L 627.0,408.0 L 630.0,450.0 L 629.0,847.0 L 627.0,866.0 L 613.0,879.0"/>
    <path d="M 489.0,759.0 L 519.0,766.0 L 578.0,763.0 L 727.0,731.0 L 771.0,732.0"/>
    <path d="M 386.0,916.0 L 436.0,926.0 L 699.0,896.0 L 855.0,887.0 L 927.0,910.0"/>
  </g>
</svg>
