<svg xmlns="http://www.w3.org/2000/svg" viewBox="0 0 1024 1024">
  <g style="fill:none;stroke:#000000;stroke-width:50;stroke-linecap:round;stroke-linejoin:round;" transform="scale(1, 1) translate(0, 0)">
    <path d="M 339.0,259.0 L 355.0,278.0 L 364.0,302.0 L 301.0,413.0 L 208.0,520.0 L 136.0,575.0 L 99.0,594.0"/>
    <path d="M 154.0,325.0 L 172.0,350.0 L 220.0,379.0 L 256.0,411.0 L 305.0,480.0 L 333.0,556.0 L 352.0,703.0 L 350.0,768.0 L 337.0,861.0 L 322.0,917.0 L 303.0,950.0 L 287.0,964.0 L 179.0,908.0"/>
    <path d="M 300.0,539.0 L 291.0,616.0 L 249.0,684.0 L 209.0,737.0 L 149.0,800.0 L 74.0,856.0"/>
    <path d="M 474.0,338.0 L 509.0,377.0 L 536.0,506.0"/>
    <path d="M 494.0,330.0 L 539.0,343.0 L 687.0,308.0 L 729.0,310.0 L 757.0,340.0 L 735.0,406.0 L 748.0,427.0"/>
    <path d="M 554.0,487.0 L 569.0,473.0 L 688.0,451.0 L 758.0,457.0"/>
    <path d="M 487.0,581.0 L 511.0,602.0 L 520.0,624.0 L 522.0,687.0 L 506.0,867.0 L 489.0,939.0 L 487.0,983.0"/>
    <path d="M 540.0,586.0 L 550.0,594.0 L 572.0,595.0 L 707.0,557.0 L 727.0,564.0 L 753.0,590.0 L 766.0,911.0 L 759.0,972.0 L 742.0,1001.0 L 645.0,960.0"/>
    <path d="M 547.0,718.0 L 559.0,708.0 L 636.0,693.0 L 658.0,691.0 L 679.0,697.0"/>
    <path d="M 541.0,819.0 L 553.0,809.0 L 608.0,797.0 L 668.0,791.0 L 691.0,798.0"/>
  </g>
</svg>
