<svg xmlns="http://www.w3.org/2000/svg" viewBox="0 0 1024 1024">
  <g style="fill:none;stroke:#000000;stroke-width:50;stroke-linecap:round;stroke-linejoin:round;" transform="scale(1, 1) translate(0, 0)">
    <path d="M 308.0,278.0 L 330.0,317.0 L 269.0,413.0 L 197.0,492.0 L 88.0,564.0"/>
    <path d="M 124.0,311.0 L 151.0,340.0 L 206.0,374.0 L 234.0,412.0 L 262.0,491.0 L 276.0,560.0 L 288.0,714.0 L 275.0,868.0 L 264.0,910.0 L 247.0,940.0 L 236.0,949.0 L 220.0,942.0 L 131.0,888.0"/>
    <path d="M 246.0,580.0 L 234.0,634.0 L 190.0,692.0 L 153.0,736.0 L 58.0,819.0"/>
    <path d="M 579.0,210.0 L 617.0,246.0 L 612.0,402.0 L 596.0,414.0"/>
    <path d="M 649.0,322.0 L 767.0,296.0 L 804.0,297.0"/>
    <path d="M 488.0,455.0 L 502.0,465.0 L 664.0,422.0 L 790.0,402.0 L 815.0,409.0 L 836.0,433.0 L 790.0,498.0 L 782.0,501.0"/>
    <path d="M 422.0,440.0 L 453.0,469.0 L 459.0,510.0 L 455.0,617.0 L 431.0,760.0 L 410.0,841.0 L 379.0,917.0 L 338.0,989.0 L 299.0,1039.0"/>
    <path d="M 509.0,578.0 L 544.0,579.0 L 682.0,538.0 L 736.0,535.0"/>
    <path d="M 590.0,464.0 L 601.0,469.0 L 615.0,489.0 L 611.0,612.0 L 624.0,640.0 L 646.0,654.0 L 680.0,662.0 L 724.0,661.0 L 781.0,643.0 L 797.0,629.0 L 802.0,567.0 L 808.0,554.0"/>
    <path d="M 540.0,745.0 L 557.0,756.0 L 572.0,778.0 L 564.0,836.0 L 546.0,899.0 L 492.0,975.0 L 466.0,997.0 L 421.0,1021.0"/>
    <path d="M 677.0,715.0 L 704.0,747.0 L 695.0,877.0 L 702.0,943.0 L 716.0,970.0 L 740.0,988.0 L 786.0,1001.0 L 832.0,1002.0 L 868.0,996.0 L 909.0,972.0 L 920.0,840.0"/>
  </g>
</svg>
