<svg xmlns="http://www.w3.org/2000/svg" viewBox="0 0 1024 1024">
  <g style="fill:none;stroke:#000000;stroke-width:50;stroke-linecap:round;stroke-linejoin:round;" transform="scale(1, 1) translate(0, 0)">
    <path d="M 331.0,243.0 L 347.0,263.0 L 356.0,289.0 L 298.0,395.0 L 258.0,446.0 L 206.0,498.0 L 120.0,561.0"/>
    <path d="M 162.0,321.0 L 181.0,351.0 L 211.0,370.0 L 244.0,403.0 L 285.0,466.0 L 313.0,549.0 L 332.0,717.0 L 331.0,794.0 L 321.0,878.0 L 297.0,958.0 L 276.0,981.0 L 175.0,928.0"/>
    <path d="M 290.0,564.0 L 275.0,635.0 L 250.0,673.0 L 178.0,763.0 L 71.0,861.0"/>
    <path d="M 588.0,255.0 L 605.0,268.0 L 623.0,301.0 L 591.0,376.0 L 556.0,443.0 L 474.0,568.0 L 413.0,643.0 L 383.0,670.0"/>
    <path d="M 635.0,369.0 L 636.0,384.0 L 702.0,463.0 L 823.0,581.0 L 969.0,612.0"/>
    <path d="M 504.0,618.0 L 556.0,622.0 L 667.0,594.0 L 714.0,593.0"/>
    <path d="M 447.0,758.0 L 510.0,810.0 L 531.0,854.0"/>
    <path d="M 556.0,709.0 L 604.0,759.0 L 618.0,790.0"/>
    <path d="M 707.0,673.0 L 722.0,683.0 L 738.0,715.0 L 680.0,866.0 L 661.0,903.0 L 642.0,922.0"/>
    <path d="M 378.0,963.0 L 430.0,973.0 L 630.0,946.0 L 795.0,933.0 L 878.0,954.0"/>
  </g>
</svg>
