<svg xmlns="http://www.w3.org/2000/svg" viewBox="0 0 1024 1024">
  <g style="fill:none;stroke:#000000;stroke-width:50;stroke-linecap:round;stroke-linejoin:round;" transform="scale(1, 1) translate(0, 0)">
    <path d="M 155.0,292.0 L 180.0,315.0 L 186.0,330.0 L 221.0,529.0"/>
    <path d="M 211.0,298.0 L 225.0,307.0 L 400.0,268.0 L 430.0,271.0 L 454.0,289.0 L 463.0,302.0 L 409.0,482.0 L 411.0,505.0"/>
    <path d="M 232.0,414.0 L 238.0,403.0 L 296.0,386.0 L 357.0,386.0"/>
    <path d="M 242.0,503.0 L 257.0,491.0 L 375.0,466.0"/>
    <path d="M 176.0,592.0 L 204.0,619.0 L 207.0,693.0 L 188.0,869.0 L 172.0,927.0 L 167.0,976.0"/>
    <path d="M 236.0,608.0 L 259.0,613.0 L 378.0,588.0 L 416.0,614.0 L 412.0,701.0 L 417.0,883.0 L 407.0,943.0 L 387.0,970.0 L 301.0,928.0"/>
    <path d="M 232.0,728.0 L 243.0,715.0 L 286.0,704.0 L 319.0,701.0 L 340.0,706.0"/>
    <path d="M 223.0,824.0 L 233.0,813.0 L 295.0,801.0 L 326.0,799.0 L 347.0,805.0"/>
    <path d="M 517.0,626.0 L 586.0,630.0 L 772.0,584.0 L 829.0,581.0"/>
    <path d="M 610.0,283.0 L 659.0,326.0 L 646.0,595.0 L 624.0,768.0 L 596.0,853.0 L 559.0,916.0 L 504.0,970.0 L 443.0,1005.0"/>
    <path d="M 662.0,708.0 L 669.0,749.0 L 710.0,815.0 L 759.0,885.0 L 817.0,952.0 L 839.0,970.0 L 959.0,1005.0"/>
    <path d="M 760.0,374.0 L 832.0,430.0 L 855.0,471.0"/>
  </g>
</svg>
