<svg xmlns="http://www.w3.org/2000/svg" viewBox="0 0 1024 1024">
  <g style="fill:none;stroke:#000000;stroke-width:50;stroke-linecap:round;stroke-linejoin:round;" transform="scale(1, 1) translate(0, 0)">
    <path d="M 314.0,248.0 L 329.0,266.0 L 337.0,291.0 L 295.0,371.0 L 217.0,471.0 L 174.0,508.0 L 115.0,546.0"/>
    <path d="M 150.0,301.0 L 160.0,320.0 L 231.0,377.0 L 274.0,447.0 L 300.0,549.0 L 311.0,671.0 L 302.0,842.0 L 289.0,905.0 L 275.0,941.0 L 256.0,961.0 L 155.0,908.0"/>
    <path d="M 275.0,561.0 L 261.0,631.0 L 227.0,680.0 L 154.0,763.0 L 66.0,838.0"/>
    <path d="M 411.0,330.0 L 447.0,370.0 L 500.0,573.0"/>
    <path d="M 433.0,323.0 L 439.0,330.0 L 475.0,334.0 L 695.0,296.0 L 741.0,294.0 L 769.0,302.0 L 796.0,339.0 L 773.0,397.0 L 731.0,544.0"/>
    <path d="M 523.0,445.0 L 655.0,417.0 L 696.0,421.0"/>
    <path d="M 518.0,560.0 L 537.0,549.0 L 659.0,527.0 L 695.0,526.0 L 704.0,534.0"/>
    <path d="M 384.0,692.0 L 429.0,699.0 L 642.0,663.0 L 814.0,643.0 L 891.0,658.0"/>
    <path d="M 582.0,333.0 L 604.0,348.0 L 609.0,366.0 L 606.0,1052.0"/>
    <path d="M 581.0,696.0 L 527.0,781.0 L 476.0,835.0 L 423.0,879.0 L 344.0,924.0"/>
    <path d="M 632.0,689.0 L 637.0,690.0 L 645.0,718.0 L 703.0,784.0 L 824.0,900.0 L 961.0,928.0"/>
  </g>
</svg>
