<svg xmlns="http://www.w3.org/2000/svg" viewBox="0 0 1024 1024">
  <g style="fill:none;stroke:#000000;stroke-width:50;stroke-linecap:round;stroke-linejoin:round;" transform="scale(1, 1) translate(0, 0)">
    <path d="M 302.0,256.0 L 326.0,297.0 L 274.0,391.0 L 199.0,479.0 L 115.0,538.0"/>
    <path d="M 136.0,316.0 L 150.0,335.0 L 205.0,366.0 L 232.0,391.0 L 270.0,445.0 L 297.0,532.0 L 310.0,671.0 L 297.0,825.0 L 278.0,895.0 L 263.0,926.0 L 238.0,949.0 L 147.0,892.0"/>
    <path d="M 266.0,543.0 L 269.0,549.0 L 256.0,599.0 L 211.0,663.0 L 129.0,754.0 L 58.0,814.0"/>
    <path d="M 394.0,381.0 L 446.0,381.0 L 518.0,363.0 L 535.0,368.0 L 550.0,386.0 L 548.0,397.0 L 519.0,474.0 L 498.0,488.0"/>
    <path d="M 432.0,534.0 L 441.0,523.0 L 483.0,512.0 L 544.0,515.0"/>
    <path d="M 382.0,504.0 L 395.0,514.0 L 408.0,542.0 L 388.0,651.0 L 402.0,655.0 L 483.0,642.0 L 502.0,647.0 L 522.0,671.0 L 492.0,868.0 L 471.0,923.0 L 435.0,956.0 L 362.0,914.0"/>
    <path d="M 660.0,294.0 L 681.0,312.0 L 692.0,331.0 L 674.0,382.0 L 613.0,498.0 L 578.0,550.0 L 545.0,584.0"/>
    <path d="M 648.0,484.0 L 713.0,457.0 L 780.0,438.0 L 799.0,435.0 L 828.0,444.0 L 851.0,468.0 L 784.0,563.0"/>
    <path d="M 680.0,558.0 L 707.0,580.0 L 725.0,606.0 L 727.0,851.0 L 721.0,946.0 L 709.0,972.0 L 694.0,975.0 L 590.0,926.0"/>
    <path d="M 609.0,698.0 L 596.0,750.0 L 560.0,829.0"/>
    <path d="M 791.0,665.0 L 847.0,716.0 L 896.0,772.0 L 913.0,804.0 L 919.0,839.0"/>
  </g>
</svg>
