<svg xmlns="http://www.w3.org/2000/svg" viewBox="0 0 1024 1024">
  <g style="fill:none;stroke:#000000;stroke-width:50;stroke-linecap:round;stroke-linejoin:round;" transform="scale(1, 1) translate(0, 0)">
    <path d="M 330.0,291.0 L 354.0,332.0 L 291.0,436.0 L 204.0,531.0 L 112.0,591.0"/>
    <path d="M 156.0,340.0 L 174.0,361.0 L 241.0,398.0 L 300.0,471.0 L 327.0,560.0 L 338.0,682.0 L 331.0,817.0 L 315.0,892.0 L 292.0,947.0 L 266.0,968.0 L 170.0,916.0"/>
    <path d="M 302.0,575.0 L 288.0,642.0 L 269.0,668.0 L 168.0,775.0 L 83.0,839.0"/>
    <path d="M 461.0,375.0 L 484.0,381.0 L 522.0,380.0 L 710.0,338.0 L 761.0,336.0"/>
    <path d="M 572.0,234.0 L 585.0,240.0 L 608.0,269.0 L 583.0,400.0 L 555.0,454.0 L 521.0,494.0 L 485.0,523.0 L 441.0,547.0"/>
    <path d="M 640.0,429.0 L 721.0,478.0 L 745.0,514.0"/>
    <path d="M 396.0,616.0 L 447.0,622.0 L 589.0,593.0 L 834.0,560.0 L 906.0,574.0"/>
    <path d="M 429.0,698.0 L 450.0,717.0 L 459.0,736.0 L 481.0,863.0"/>
    <path d="M 468.0,703.0 L 488.0,707.0 L 583.0,685.0 L 600.0,690.0 L 615.0,708.0 L 612.0,722.0 L 597.0,770.0 L 577.0,785.0"/>
    <path d="M 498.0,832.0 L 507.0,820.0 L 550.0,811.0 L 625.0,811.0"/>
    <path d="M 700.0,601.0 L 738.0,633.0 L 737.0,997.0 L 728.0,1020.0 L 715.0,1033.0 L 665.0,1020.0 L 596.0,989.0"/>
  </g>
</svg>
