<svg xmlns="http://www.w3.org/2000/svg" viewBox="0 0 1024 1024">
  <g style="fill:none;stroke:#000000;stroke-width:50;stroke-linecap:round;stroke-linejoin:round;" transform="scale(1, 1) translate(0, 0)">
    <path d="M 352.0,278.0 L 374.0,317.0 L 313.0,413.0 L 241.0,492.0 L 132.0,564.0"/>
    <path d="M 168.0,311.0 L 195.0,340.0 L 250.0,374.0 L 278.0,412.0 L 306.0,491.0 L 320.0,560.0 L 332.0,714.0 L 321.0,852.0 L 308.0,910.0 L 291.0,940.0 L 280.0,949.0 L 264.0,942.0 L 175.0,888.0"/>
    <path d="M 295.0,570.0 L 278.0,627.0 L 229.0,684.0 L 158.0,752.0 L 71.0,815.0"/>
    <path d="M 589.0,179.0 L 670.0,224.0 L 700.0,261.0"/>
    <path d="M 478.0,366.0 L 501.0,373.0 L 541.0,373.0 L 794.0,323.0 L 827.0,324.0"/>
    <path d="M 494.0,435.0 L 513.0,463.0 L 490.0,515.0 L 473.0,546.0 L 436.0,589.0 L 398.0,619.0"/>
    <path d="M 511.0,540.0 L 511.0,548.0 L 549.0,578.0 L 559.0,596.0"/>
    <path d="M 730.0,408.0 L 748.0,435.0 L 730.0,477.0 L 680.0,548.0 L 642.0,579.0"/>
    <path d="M 746.0,504.0 L 761.0,504.0 L 803.0,535.0 L 830.0,573.0"/>
    <path d="M 393.0,731.0 L 414.0,738.0 L 450.0,739.0 L 582.0,715.0 L 849.0,684.0 L 881.0,685.0 L 942.0,702.0"/>
    <path d="M 609.0,615.0 L 628.0,625.0 L 649.0,651.0 L 639.0,1081.0"/>
  </g>
</svg>
