<svg xmlns="http://www.w3.org/2000/svg" viewBox="0 0 1024 1024">
  <g style="fill:none;stroke:#000000;stroke-width:50;stroke-linecap:round;stroke-linejoin:round;" transform="scale(1, 1) translate(0, 0)">
    <path d="M 334.0,240.0 L 358.0,281.0 L 337.0,327.0 L 289.0,405.0 L 245.0,460.0 L 200.0,504.0 L 115.0,562.0"/>
    <path d="M 168.0,312.0 L 182.0,331.0 L 218.0,350.0 L 246.0,374.0 L 281.0,436.0 L 306.0,534.0 L 319.0,705.0 L 308.0,844.0 L 285.0,925.0 L 264.0,949.0 L 175.0,900.0"/>
    <path d="M 278.0,560.0 L 266.0,621.0 L 218.0,685.0 L 133.0,777.0 L 59.0,838.0"/>
    <path d="M 477.0,315.0 L 506.0,320.0 L 565.0,316.0 L 654.0,299.0 L 735.0,273.0 L 791.0,273.0"/>
    <path d="M 492.0,422.0 L 548.0,426.0 L 648.0,409.0 L 719.0,389.0 L 755.0,391.0"/>
    <path d="M 577.0,171.0 L 610.0,195.0 L 622.0,216.0 L 614.0,489.0 L 599.0,510.0"/>
    <path d="M 390.0,556.0 L 445.0,562.0 L 588.0,535.0 L 846.0,501.0 L 882.0,502.0 L 933.0,517.0"/>
    <path d="M 490.0,640.0 L 516.0,664.0 L 522.0,738.0 L 515.0,836.0 L 483.0,1034.0"/>
    <path d="M 545.0,654.0 L 558.0,659.0 L 647.0,636.0 L 723.0,624.0 L 741.0,633.0 L 761.0,654.0 L 757.0,691.0 L 775.0,942.0 L 771.0,993.0 L 748.0,1031.0 L 716.0,1023.0 L 665.0,997.0"/>
    <path d="M 546.0,770.0 L 554.0,757.0 L 613.0,743.0 L 654.0,740.0 L 676.0,745.0"/>
    <path d="M 539.0,863.0 L 548.0,853.0 L 643.0,836.0 L 687.0,841.0"/>
  </g>
</svg>
