<svg xmlns="http://www.w3.org/2000/svg" viewBox="0 0 1024 1024">
  <g style="fill:none;stroke:#000000;stroke-width:50;stroke-linecap:round;stroke-linejoin:round;" transform="scale(1, 1) translate(0, 0)">
    <path d="M 334.0,256.0 L 349.0,274.0 L 357.0,298.0 L 295.0,409.0 L 203.0,515.0 L 116.0,574.0"/>
    <path d="M 162.0,321.0 L 180.0,347.0 L 245.0,396.0 L 298.0,477.0 L 325.0,558.0 L 340.0,667.0 L 342.0,727.0 L 329.0,862.0 L 317.0,915.0 L 292.0,964.0 L 277.0,977.0 L 158.0,927.0"/>
    <path d="M 299.0,572.0 L 285.0,638.0 L 252.0,687.0 L 184.0,765.0 L 71.0,862.0"/>
    <path d="M 468.0,457.0 L 528.0,457.0 L 665.0,421.0 L 714.0,419.0"/>
    <path d="M 561.0,239.0 L 594.0,262.0 L 605.0,275.0 L 606.0,286.0 L 598.0,547.0 L 582.0,570.0"/>
    <path d="M 388.0,624.0 L 443.0,626.0 L 600.0,589.0 L 821.0,550.0 L 858.0,550.0 L 904.0,560.0"/>
    <path d="M 761.0,292.0 L 777.0,309.0 L 792.0,344.0 L 783.0,377.0 L 717.0,522.0 L 595.0,704.0 L 510.0,805.0 L 430.0,887.0 L 347.0,955.0"/>
    <path d="M 521.0,717.0 L 552.0,754.0 L 547.0,919.0 L 538.0,967.0 L 540.0,1012.0"/>
    <path d="M 600.0,738.0 L 630.0,718.0 L 724.0,695.0 L 739.0,699.0 L 762.0,719.0 L 775.0,945.0 L 765.0,985.0 L 769.0,1036.0"/>
    <path d="M 572.0,857.0 L 586.0,846.0 L 650.0,832.0 L 692.0,837.0"/>
    <path d="M 567.0,979.0 L 580.0,970.0 L 604.0,966.0 L 722.0,959.0"/>
  </g>
</svg>
