<svg xmlns="http://www.w3.org/2000/svg" viewBox="0 0 1024 1024">
  <g style="fill:none;stroke:#000000;stroke-width:50;stroke-linecap:round;stroke-linejoin:round;" transform="scale(1, 1) translate(0, 0)">
    <path d="M 294.0,275.0 L 311.0,305.0 L 311.0,316.0 L 250.0,410.0 L 207.0,457.0 L 141.0,514.0 L 80.0,548.0"/>
    <path d="M 130.0,309.0 L 149.0,337.0 L 181.0,357.0 L 208.0,385.0 L 255.0,465.0 L 283.0,595.0 L 286.0,719.0 L 284.0,773.0 L 267.0,889.0 L 241.0,938.0 L 228.0,948.0 L 127.0,888.0"/>
    <path d="M 252.0,550.0 L 236.0,618.0 L 219.0,643.0 L 116.0,757.0 L 59.0,802.0"/>
    <path d="M 434.0,372.0 L 450.0,359.0 L 523.0,337.0 L 558.0,339.0 L 576.0,357.0 L 574.0,367.0 L 553.0,438.0 L 533.0,454.0"/>
    <path d="M 429.0,508.0 L 446.0,495.0 L 522.0,479.0 L 562.0,476.0 L 583.0,482.0"/>
    <path d="M 371.0,333.0 L 397.0,361.0 L 403.0,382.0 L 398.0,735.0 L 389.0,891.0 L 403.0,974.0"/>
    <path d="M 425.0,618.0 L 437.0,608.0 L 487.0,593.0 L 521.0,588.0 L 552.0,593.0"/>
    <path d="M 428.0,733.0 L 437.0,723.0 L 506.0,707.0 L 552.0,710.0"/>
    <path d="M 633.0,349.0 L 670.0,351.0 L 766.0,326.0 L 780.0,331.0 L 799.0,351.0 L 797.0,362.0 L 776.0,426.0 L 750.0,448.0"/>
    <path d="M 626.0,489.0 L 659.0,490.0 L 789.0,467.0 L 816.0,474.0"/>
    <path d="M 588.0,606.0 L 649.0,603.0 L 721.0,578.0 L 750.0,578.0 L 773.0,587.0 L 743.0,707.0 L 721.0,760.0 L 689.0,811.0 L 613.0,882.0 L 567.0,904.0 L 516.0,914.0"/>
    <path d="M 575.0,684.0 L 619.0,713.0 L 718.0,840.0 L 791.0,908.0 L 828.0,930.0 L 958.0,966.0 L 971.0,965.0"/>
  </g>
</svg>
