<svg xmlns="http://www.w3.org/2000/svg" viewBox="0 0 1024 1024">
  <g style="fill:none;stroke:#000000;stroke-width:50;stroke-linecap:round;stroke-linejoin:round;" transform="scale(1, 1) translate(0, 0)">
    <path d="M 218.0,265.0 L 276.0,315.0 L 290.0,341.0"/>
    <path d="M 458.0,205.0 L 485.0,242.0 L 389.0,346.0"/>
    <path d="M 127.0,449.0 L 176.0,456.0 L 493.0,395.0 L 554.0,400.0"/>
    <path d="M 141.0,561.0 L 167.0,591.0 L 175.0,636.0 L 176.0,749.0 L 158.0,936.0 L 160.0,980.0"/>
    <path d="M 193.0,576.0 L 211.0,585.0 L 266.0,576.0 L 443.0,535.0 L 474.0,550.0 L 490.0,568.0 L 490.0,895.0 L 478.0,929.0 L 446.0,918.0 L 431.0,896.0"/>
    <path d="M 251.0,467.0 L 280.0,486.0 L 282.0,589.0 L 263.0,669.0 L 233.0,727.0"/>
    <path d="M 348.0,451.0 L 379.0,472.0 L 369.0,577.0 L 372.0,655.0 L 395.0,681.0 L 427.0,687.0 L 445.0,681.0"/>
    <path d="M 237.0,808.0 L 360.0,785.0 L 395.0,790.0"/>
    <path d="M 191.0,938.0 L 215.0,923.0 L 384.0,901.0 L 403.0,901.0 L 413.0,916.0"/>
    <path d="M 565.0,578.0 L 636.0,582.0 L 787.0,544.0 L 845.0,541.0"/>
    <path d="M 631.0,233.0 L 659.0,251.0 L 682.0,277.0 L 676.0,532.0 L 662.0,692.0 L 649.0,752.0 L 623.0,818.0 L 585.0,875.0 L 524.0,927.0"/>
    <path d="M 691.0,689.0 L 696.0,719.0 L 748.0,802.0 L 792.0,864.0 L 840.0,918.0 L 856.0,932.0 L 970.0,965.0"/>
    <path d="M 793.0,319.0 L 863.0,361.0 L 891.0,399.0"/>
  </g>
</svg>
