<svg xmlns="http://www.w3.org/2000/svg" viewBox="0 0 1024 1024">
  <g style="fill:none;stroke:#000000;stroke-width:50;stroke-linecap:round;stroke-linejoin:round;" transform="scale(1, 1) translate(0, 0)">
    <path d="M 292.0,262.0 L 319.0,303.0 L 291.0,366.0 L 256.0,425.0 L 215.0,481.0 L 173.0,525.0 L 91.0,586.0"/>
    <path d="M 131.0,329.0 L 149.0,350.0 L 202.0,381.0 L 235.0,425.0 L 255.0,475.0 L 275.0,568.0 L 288.0,715.0 L 288.0,785.0 L 278.0,876.0 L 264.0,936.0 L 250.0,965.0 L 227.0,985.0 L 138.0,939.0"/>
    <path d="M 250.0,597.0 L 238.0,651.0 L 189.0,720.0 L 134.0,784.0 L 54.0,856.0"/>
    <path d="M 337.0,417.0 L 354.0,424.0 L 379.0,423.0 L 497.0,373.0 L 536.0,380.0 L 548.0,394.0 L 538.0,415.0 L 470.0,506.0"/>
    <path d="M 415.0,505.0 L 427.0,507.0 L 458.0,537.0 L 482.0,600.0 L 503.0,735.0 L 500.0,825.0 L 483.0,894.0 L 452.0,922.0 L 379.0,874.0"/>
    <path d="M 327.0,710.0 L 368.0,710.0 L 561.0,583.0"/>
    <path d="M 874.0,287.0 L 815.0,277.0 L 752.0,319.0 L 666.0,357.0 L 660.0,354.0 L 647.0,364.0 L 634.0,361.0 L 624.0,370.0"/>
    <path d="M 689.0,367.0 L 705.0,382.0 L 707.0,400.0 L 647.0,487.0 L 628.0,519.0 L 629.0,529.0 L 709.0,539.0 L 727.0,530.0"/>
    <path d="M 808.0,416.0 L 823.0,452.0 L 739.0,551.0 L 658.0,630.0 L 652.0,661.0 L 685.0,664.0 L 790.0,634.0 L 804.0,632.0 L 812.0,638.0"/>
    <path d="M 802.0,591.0 L 850.0,640.0 L 870.0,681.0"/>
    <path d="M 706.0,679.0 L 724.0,688.0 L 743.0,712.0 L 744.0,946.0 L 725.0,985.0 L 689.0,970.0 L 641.0,939.0"/>
    <path d="M 626.0,765.0 L 615.0,814.0 L 576.0,898.0"/>
    <path d="M 818.0,771.0 L 896.0,839.0 L 915.0,869.0 L 921.0,893.0"/>
  </g>
</svg>
