<svg xmlns="http://www.w3.org/2000/svg" viewBox="0 0 1024 1024">
  <g style="fill:none;stroke:#000000;stroke-width:50;stroke-linecap:round;stroke-linejoin:round;" transform="scale(1, 1) translate(0, 0)">
    <path d="M 328.0,264.0 L 350.0,304.0 L 291.0,405.0 L 216.0,489.0 L 176.0,521.0 L 119.0,554.0"/>
    <path d="M 148.0,320.0 L 162.0,339.0 L 209.0,363.0 L 241.0,389.0 L 287.0,454.0 L 313.0,532.0 L 327.0,622.0 L 330.0,689.0 L 321.0,840.0 L 305.0,908.0 L 291.0,939.0 L 268.0,961.0 L 159.0,896.0"/>
    <path d="M 289.0,550.0 L 276.0,615.0 L 238.0,667.0 L 157.0,753.0 L 71.0,821.0"/>
    <path d="M 538.0,337.0 L 552.0,346.0 L 576.0,343.0 L 751.0,304.0 L 782.0,302.0 L 818.0,333.0 L 789.0,415.0 L 767.0,431.0"/>
    <path d="M 636.0,350.0 L 656.0,368.0 L 657.0,378.0 L 652.0,439.0 L 635.0,453.0"/>
    <path d="M 538.0,509.0 L 549.0,499.0 L 735.0,462.0 L 795.0,458.0 L 819.0,466.0"/>
    <path d="M 473.0,326.0 L 494.0,342.0 L 509.0,367.0 L 507.0,507.0 L 492.0,635.0 L 464.0,751.0 L 426.0,844.0 L 386.0,916.0 L 347.0,965.0"/>
    <path d="M 541.0,602.0 L 557.0,615.0 L 571.0,645.0 L 569.0,753.0 L 555.0,914.0 L 557.0,987.0"/>
    <path d="M 592.0,610.0 L 605.0,621.0 L 747.0,586.0 L 777.0,601.0 L 791.0,619.0 L 789.0,673.0 L 803.0,928.0 L 792.0,962.0 L 733.0,949.0"/>
    <path d="M 593.0,742.0 L 606.0,730.0 L 627.0,725.0 L 700.0,715.0 L 720.0,720.0"/>
    <path d="M 588.0,843.0 L 601.0,831.0 L 698.0,814.0 L 733.0,820.0"/>
    <path d="M 581.0,956.0 L 597.0,942.0 L 645.0,933.0 L 734.0,924.0 L 754.0,930.0"/>
  </g>
</svg>
