<svg xmlns="http://www.w3.org/2000/svg" viewBox="0 0 1024 1024">
  <g style="fill:none;stroke:#000000;stroke-width:50;stroke-linecap:round;stroke-linejoin:round;" transform="scale(1, 1) translate(0, 0)">
    <path d="M 339.0,281.0 L 360.0,323.0 L 276.0,442.0 L 198.0,513.0 L 116.0,559.0"/>
    <path d="M 166.0,290.0 L 181.0,315.0 L 210.0,333.0 L 249.0,370.0 L 299.0,458.0 L 323.0,546.0 L 338.0,707.0 L 326.0,879.0 L 305.0,955.0 L 283.0,976.0 L 179.0,920.0"/>
    <path d="M 300.0,566.0 L 287.0,626.0 L 243.0,685.0 L 151.0,778.0 L 87.0,827.0"/>
    <path d="M 459.0,269.0 L 481.0,287.0 L 491.0,307.0 L 529.0,505.0"/>
    <path d="M 517.0,294.0 L 526.0,280.0 L 542.0,274.0 L 687.0,244.0 L 726.0,246.0 L 754.0,265.0 L 763.0,278.0 L 761.0,289.0 L 715.0,458.0 L 703.0,481.0 L 675.0,477.0"/>
    <path d="M 539.0,393.0 L 543.0,382.0 L 564.0,377.0 L 624.0,365.0 L 656.0,367.0"/>
    <path d="M 550.0,483.0 L 558.0,473.0 L 604.0,462.0 L 645.0,455.0 L 677.0,457.0"/>
    <path d="M 508.0,524.0 L 527.0,554.0 L 523.0,568.0 L 475.0,634.0 L 436.0,673.0 L 402.0,695.0"/>
    <path d="M 504.0,635.0 L 527.0,625.0 L 791.0,587.0 L 822.0,593.0 L 849.0,620.0 L 826.0,879.0 L 811.0,944.0 L 787.0,1003.0 L 751.0,1038.0 L 684.0,995.0 L 681.0,986.0 L 668.0,986.0"/>
    <path d="M 610.0,659.0 L 629.0,683.0 L 608.0,733.0 L 566.0,794.0 L 523.0,835.0 L 512.0,838.0 L 512.0,844.0"/>
    <path d="M 625.0,758.0 L 637.0,754.0 L 704.0,796.0 L 728.0,821.0 L 736.0,839.0"/>
    <path d="M 429.0,735.0 L 456.0,768.0 L 462.0,785.0 L 436.0,924.0 L 474.0,930.0 L 626.0,907.0 L 691.0,903.0 L 734.0,908.0 L 755.0,918.0"/>
  </g>
</svg>
