<svg xmlns="http://www.w3.org/2000/svg" viewBox="0 0 1024 1024">
  <g style="fill:none;stroke:#000000;stroke-width:50;stroke-linecap:round;stroke-linejoin:round;" transform="scale(1, 1) translate(0, 0)">
    <path d="M 324.0,268.0 L 343.0,299.0 L 344.0,312.0 L 283.0,413.0 L 178.0,520.0 L 119.0,554.0"/>
    <path d="M 156.0,295.0 L 176.0,318.0 L 224.0,340.0 L 245.0,357.0 L 294.0,428.0 L 326.0,539.0 L 339.0,645.0 L 337.0,823.0 L 327.0,890.0 L 308.0,946.0 L 283.0,974.0 L 190.0,927.0"/>
    <path d="M 299.0,536.0 L 285.0,605.0 L 240.0,671.0 L 165.0,758.0 L 74.0,838.0"/>
    <path d="M 557.0,199.0 L 628.0,231.0 L 660.0,266.0"/>
    <path d="M 474.0,353.0 L 545.0,357.0 L 711.0,326.0 L 751.0,326.0"/>
    <path d="M 490.0,411.0 L 541.0,449.0 L 553.0,475.0"/>
    <path d="M 666.0,362.0 L 687.0,385.0 L 656.0,458.0 L 631.0,489.0"/>
    <path d="M 396.0,533.0 L 433.0,540.0 L 811.0,486.0 L 882.0,501.0"/>
    <path d="M 440.0,607.0 L 461.0,626.0 L 472.0,646.0 L 507.0,813.0"/>
    <path d="M 483.0,610.0 L 504.0,619.0 L 700.0,585.0 L 737.0,596.0 L 754.0,627.0 L 707.0,750.0 L 702.0,779.0 L 694.0,787.0"/>
    <path d="M 511.0,706.0 L 540.0,693.0 L 618.0,680.0 L 660.0,684.0"/>
    <path d="M 523.0,789.0 L 540.0,778.0 L 645.0,762.0 L 660.0,765.0 L 687.0,789.0"/>
    <path d="M 524.0,821.0 L 538.0,852.0 L 490.0,933.0 L 429.0,987.0 L 368.0,1018.0"/>
    <path d="M 642.0,787.0 L 667.0,814.0 L 659.0,881.0 L 664.0,952.0 L 685.0,985.0 L 729.0,1005.0 L 803.0,1012.0 L 843.0,1007.0 L 892.0,986.0 L 909.0,970.0 L 910.0,841.0"/>
  </g>
</svg>
