<svg xmlns="http://www.w3.org/2000/svg" viewBox="0 0 1024 1024">
  <g style="fill:none;stroke:#000000;stroke-width:50;stroke-linecap:round;stroke-linejoin:round;" transform="scale(1, 1) translate(0, 0)">
    <path d="M 324.0,232.0 L 350.0,273.0 L 292.0,381.0 L 198.0,495.0 L 149.0,535.0 L 103.0,562.0"/>
    <path d="M 160.0,286.0 L 175.0,313.0 L 226.0,353.0 L 248.0,378.0 L 296.0,453.0 L 322.0,537.0 L 337.0,634.0 L 336.0,785.0 L 323.0,884.0 L 308.0,933.0 L 282.0,960.0 L 180.0,911.0"/>
    <path d="M 293.0,539.0 L 282.0,608.0 L 258.0,646.0 L 177.0,743.0 L 99.0,813.0"/>
    <path d="M 545.0,182.0 L 614.0,211.0 L 645.0,243.0"/>
    <path d="M 465.0,331.0 L 488.0,338.0 L 526.0,338.0 L 748.0,294.0 L 776.0,296.0"/>
    <path d="M 505.0,379.0 L 545.0,445.0 L 541.0,457.0"/>
    <path d="M 684.0,335.0 L 703.0,356.0 L 671.0,432.0 L 656.0,447.0"/>
    <path d="M 368.0,496.0 L 421.0,503.0 L 570.0,477.0 L 831.0,446.0 L 905.0,462.0"/>
    <path d="M 447.0,569.0 L 479.0,607.0 L 512.0,762.0"/>
    <path d="M 479.0,568.0 L 514.0,576.0 L 633.0,551.0 L 706.0,543.0 L 746.0,547.0 L 773.0,584.0 L 711.0,747.0"/>
    <path d="M 523.0,665.0 L 529.0,657.0 L 547.0,652.0 L 621.0,638.0 L 664.0,641.0"/>
    <path d="M 529.0,754.0 L 540.0,744.0 L 648.0,726.0 L 675.0,727.0 L 685.0,739.0"/>
    <path d="M 377.0,865.0 L 431.0,872.0 L 555.0,852.0 L 838.0,824.0 L 911.0,843.0"/>
    <path d="M 583.0,759.0 L 618.0,786.0 L 611.0,1085.0"/>
  </g>
</svg>
