<svg xmlns="http://www.w3.org/2000/svg" viewBox="0 0 1024 1024">
  <g style="fill:none;stroke:#000000;stroke-width:50;stroke-linecap:round;stroke-linejoin:round;" transform="scale(1, 1) translate(0, 0)">
    <path d="M 217.0,343.0 L 239.0,349.0 L 278.0,348.0 L 442.0,306.0 L 496.0,304.0"/>
    <path d="M 238.0,439.0 L 283.0,442.0 L 438.0,404.0 L 485.0,407.0"/>
    <path d="M 344.0,197.0 L 381.0,228.0 L 371.0,458.0 L 366.0,475.0 L 356.0,484.0"/>
    <path d="M 170.0,540.0 L 207.0,545.0 L 429.0,492.0 L 482.0,494.0"/>
    <path d="M 371.0,568.0 L 382.0,562.0 L 426.0,575.0 L 446.0,595.0 L 447.0,605.0 L 415.0,680.0 L 381.0,709.0 L 315.0,658.0"/>
    <path d="M 364.0,545.0 L 336.0,559.0 L 286.0,633.0 L 264.0,654.0 L 217.0,688.0 L 139.0,724.0"/>
    <path d="M 586.0,190.0 L 599.0,196.0 L 621.0,222.0 L 614.0,252.0 L 600.0,298.0 L 557.0,395.0 L 516.0,456.0"/>
    <path d="M 583.0,391.0 L 596.0,385.0 L 637.0,385.0 L 778.0,343.0 L 821.0,341.0"/>
    <path d="M 654.0,409.0 L 677.0,426.0 L 661.0,487.0 L 631.0,552.0 L 606.0,586.0 L 572.0,615.0 L 498.0,651.0"/>
    <path d="M 556.0,489.0 L 743.0,609.0 L 775.0,637.0 L 799.0,674.0"/>
    <path d="M 194.0,835.0 L 245.0,845.0 L 408.0,820.0 L 757.0,787.0 L 803.0,794.0 L 839.0,807.0"/>
    <path d="M 471.0,691.0 L 509.0,727.0 L 505.0,771.0 L 484.0,855.0 L 448.0,922.0 L 416.0,958.0 L 369.0,992.0 L 310.0,1020.0 L 203.0,1052.0"/>
    <path d="M 527.0,836.0 L 540.0,841.0 L 655.0,956.0 L 739.0,1022.0 L 889.0,1040.0"/>
    <path d="M 609.0,664.0 L 672.0,692.0 L 694.0,718.0"/>
  </g>
</svg>
