<svg xmlns="http://www.w3.org/2000/svg" viewBox="0 0 1024 1024">
  <g style="fill:none;stroke:#000000;stroke-width:50;stroke-linecap:round;stroke-linejoin:round;" transform="scale(1, 1) translate(0, 0)">
    <path d="M 275.0,267.0 L 296.0,301.0 L 246.0,395.0 L 178.0,477.0 L 98.0,535.0"/>
    <path d="M 120.0,346.0 L 141.0,365.0 L 171.0,379.0 L 200.0,406.0 L 233.0,461.0 L 258.0,557.0 L 271.0,687.0 L 261.0,851.0 L 250.0,903.0 L 236.0,932.0 L 214.0,948.0 L 127.0,899.0"/>
    <path d="M 237.0,568.0 L 224.0,629.0 L 205.0,656.0 L 131.0,744.0 L 62.0,803.0"/>
    <path d="M 340.0,402.0 L 398.0,403.0 L 511.0,368.0 L 549.0,366.0"/>
    <path d="M 307.0,498.0 L 333.0,528.0 L 357.0,654.0"/>
    <path d="M 349.0,503.0 L 361.0,509.0 L 494.0,472.0 L 527.0,469.0 L 553.0,491.0 L 535.0,560.0 L 545.0,570.0"/>
    <path d="M 375.0,627.0 L 380.0,619.0 L 496.0,593.0 L 553.0,597.0"/>
    <path d="M 400.0,236.0 L 435.0,270.0 L 443.0,283.0 L 445.0,306.0 L 443.0,776.0 L 432.0,924.0 L 433.0,1010.0"/>
    <path d="M 421.0,631.0 L 406.0,707.0 L 367.0,787.0 L 304.0,873.0"/>
    <path d="M 480.0,706.0 L 535.0,748.0 L 555.0,785.0"/>
    <path d="M 694.0,256.0 L 714.0,283.0 L 711.0,296.0 L 665.0,374.0 L 608.0,432.0"/>
    <path d="M 705.0,354.0 L 763.0,335.0 L 785.0,334.0 L 808.0,344.0 L 754.0,435.0 L 718.0,478.0"/>
    <path d="M 606.0,516.0 L 626.0,537.0 L 631.0,562.0 L 633.0,687.0 L 624.0,771.0 L 629.0,820.0"/>
    <path d="M 655.0,529.0 L 674.0,535.0 L 779.0,504.0 L 803.0,502.0 L 838.0,534.0 L 832.0,629.0 L 838.0,760.0 L 830.0,826.0"/>
    <path d="M 687.0,617.0 L 702.0,623.0 L 729.0,648.0 L 723.0,774.0 L 704.0,861.0 L 666.0,927.0 L 602.0,973.0 L 556.0,993.0 L 549.0,991.0"/>
    <path d="M 782.0,857.0 L 873.0,951.0 L 887.0,975.0 L 897.0,1016.0"/>
  </g>
</svg>
