<svg xmlns="http://www.w3.org/2000/svg" viewBox="0 0 1024 1024">
  <g style="fill:none;stroke:#000000;stroke-width:50;stroke-linecap:round;stroke-linejoin:round;" transform="scale(1, 1) translate(0, 0)">
    <path d="M 277.0,270.0 L 299.0,308.0 L 249.0,401.0 L 188.0,477.0 L 95.0,547.0"/>
    <path d="M 112.0,324.0 L 129.0,345.0 L 193.0,382.0 L 239.0,443.0 L 264.0,524.0 L 279.0,634.0 L 273.0,793.0 L 259.0,868.0 L 242.0,914.0 L 215.0,941.0 L 118.0,895.0"/>
    <path d="M 240.0,525.0 L 227.0,594.0 L 193.0,647.0 L 128.0,726.0 L 58.0,791.0"/>
    <path d="M 455.0,236.0 L 475.0,266.0 L 472.0,283.0 L 409.0,379.0 L 361.0,434.0 L 329.0,459.0"/>
    <path d="M 435.0,378.0 L 503.0,356.0 L 524.0,355.0 L 548.0,364.0 L 492.0,475.0 L 470.0,500.0"/>
    <path d="M 345.0,516.0 L 370.0,535.0 L 377.0,556.0 L 382.0,606.0 L 375.0,735.0 L 354.0,838.0 L 313.0,923.0 L 297.0,944.0"/>
    <path d="M 402.0,546.0 L 413.0,530.0 L 528.0,501.0 L 560.0,504.0 L 585.0,531.0 L 589.0,891.0 L 575.0,925.0 L 501.0,900.0"/>
    <path d="M 406.0,661.0 L 507.0,640.0 L 545.0,643.0"/>
    <path d="M 391.0,772.0 L 506.0,741.0 L 549.0,745.0"/>
    <path d="M 450.0,540.0 L 470.0,551.0 L 481.0,573.0 L 471.0,919.0"/>
    <path d="M 632.0,354.0 L 671.0,359.0 L 838.0,316.0 L 862.0,322.0 L 873.0,333.0 L 866.0,389.0 L 840.0,468.0 L 815.0,492.0 L 759.0,460.0"/>
    <path d="M 712.0,366.0 L 727.0,379.0 L 732.0,393.0 L 723.0,419.0 L 696.0,467.0 L 649.0,515.0"/>
    <path d="M 658.0,565.0 L 679.0,586.0 L 674.0,611.0 L 655.0,663.0 L 622.0,711.0"/>
    <path d="M 681.0,660.0 L 692.0,653.0 L 737.0,651.0 L 843.0,622.0 L 879.0,623.0"/>
    <path d="M 619.0,784.0 L 654.0,790.0 L 854.0,747.0 L 900.0,746.0 L 939.0,756.0"/>
    <path d="M 736.0,547.0 L 752.0,556.0 L 772.0,580.0 L 771.0,1052.0"/>
  </g>
</svg>
