<svg xmlns="http://www.w3.org/2000/svg" viewBox="0 0 1024 1024">
  <g style="fill:none;stroke:#000000;stroke-width:50;stroke-linecap:round;stroke-linejoin:round;" transform="scale(1, 1) translate(0, 0)">
    <path d="M 123.0,297.0 L 152.0,320.0 L 192.0,447.0"/>
    <path d="M 176.0,314.0 L 184.0,305.0 L 249.0,286.0 L 280.0,286.0 L 292.0,297.0 L 293.0,314.0 L 275.0,378.0 L 261.0,385.0"/>
    <path d="M 208.0,426.0 L 212.0,418.0 L 252.0,407.0 L 294.0,412.0"/>
    <path d="M 348.0,262.0 L 372.0,288.0 L 393.0,399.0"/>
    <path d="M 388.0,264.0 L 398.0,270.0 L 476.0,249.0 L 495.0,254.0 L 507.0,269.0 L 505.0,280.0 L 486.0,342.0 L 473.0,346.0"/>
    <path d="M 408.0,391.0 L 459.0,373.0 L 513.0,375.0"/>
    <path d="M 114.0,523.0 L 153.0,561.0 L 203.0,702.0"/>
    <path d="M 151.0,518.0 L 176.0,527.0 L 251.0,509.0 L 262.0,501.0 L 322.0,493.0 L 329.0,487.0 L 420.0,468.0 L 461.0,470.0 L 487.0,503.0 L 427.0,668.0"/>
    <path d="M 234.0,587.0 L 279.0,587.0 L 354.0,561.0 L 385.0,560.0"/>
    <path d="M 285.0,514.0 L 310.0,538.0 L 308.0,625.0 L 295.0,642.0"/>
    <path d="M 218.0,687.0 L 245.0,673.0 L 405.0,639.0"/>
    <path d="M 56.0,788.0 L 88.0,797.0 L 120.0,796.0 L 430.0,732.0 L 468.0,730.0 L 486.0,735.0"/>
    <path d="M 152.0,861.0 L 187.0,897.0 L 224.0,1019.0"/>
    <path d="M 166.0,856.0 L 210.0,864.0 L 350.0,829.0 L 390.0,827.0 L 414.0,853.0 L 395.0,911.0 L 375.0,920.0"/>
    <path d="M 236.0,971.0 L 247.0,977.0 L 369.0,949.0 L 416.0,954.0"/>
    <path d="M 525.0,627.0 L 548.0,634.0 L 585.0,634.0 L 777.0,591.0 L 840.0,588.0"/>
    <path d="M 610.0,235.0 L 632.0,243.0 L 663.0,275.0 L 651.0,586.0 L 630.0,724.0 L 602.0,804.0 L 569.0,863.0 L 524.0,916.0 L 459.0,963.0"/>
    <path d="M 662.0,690.0 L 668.0,715.0 L 718.0,792.0 L 828.0,929.0 L 893.0,956.0 L 973.0,979.0"/>
    <path d="M 776.0,379.0 L 847.0,429.0 L 861.0,443.0 L 876.0,474.0"/>
  </g>
</svg>
