<svg xmlns="http://www.w3.org/2000/svg" viewBox="0 0 1024 1024">
  <g style="fill:none;stroke:#000000;stroke-width:50;stroke-linecap:round;stroke-linejoin:round;" transform="scale(1, 1) translate(0, 0)">
    <path d="M 136.0,401.0 L 158.0,406.0 L 199.0,403.0 L 350.0,359.0 L 396.0,359.0"/>
    <path d="M 139.0,607.0 L 200.0,607.0 L 331.0,566.0 L 376.0,566.0"/>
    <path d="M 235.0,420.0 L 264.0,441.0 L 268.0,541.0 L 261.0,760.0 L 244.0,784.0"/>
    <path d="M 84.0,858.0 L 142.0,869.0 L 392.0,742.0"/>
    <path d="M 462.0,321.0 L 491.0,344.0 L 502.0,366.0 L 503.0,534.0 L 496.0,611.0 L 479.0,697.0 L 450.0,783.0 L 407.0,862.0 L 344.0,935.0 L 282.0,980.0"/>
    <path d="M 539.0,356.0 L 547.0,342.0 L 652.0,301.0 L 677.0,306.0 L 696.0,323.0 L 679.0,393.0 L 669.0,495.0 L 661.0,704.0 L 669.0,869.0 L 678.0,904.0 L 692.0,926.0 L 729.0,951.0 L 792.0,964.0 L 851.0,963.0 L 899.0,947.0 L 922.0,929.0 L 937.0,791.0"/>
  </g>
</svg>
