<svg xmlns="http://www.w3.org/2000/svg" viewBox="0 0 1024 1024">
  <g style="fill:none;stroke:#000000;stroke-width:50;stroke-linecap:round;stroke-linejoin:round;" transform="scale(1, 1) translate(0, 0)">
    <path d="M 135.0,416.0 L 199.0,418.0 L 341.0,375.0 L 393.0,376.0"/>
    <path d="M 131.0,635.0 L 191.0,635.0 L 332.0,588.0 L 381.0,584.0"/>
    <path d="M 237.0,435.0 L 271.0,463.0 L 270.0,794.0 L 259.0,819.0 L 249.0,827.0"/>
    <path d="M 88.0,900.0 L 122.0,908.0 L 152.0,907.0 L 423.0,780.0"/>
    <path d="M 555.0,229.0 L 652.0,277.0 L 685.0,318.0"/>
    <path d="M 464.0,499.0 L 488.0,504.0 L 538.0,500.0 L 679.0,465.0 L 777.0,432.0 L 816.0,423.0 L 849.0,424.0"/>
    <path d="M 643.0,506.0 L 672.0,521.0 L 687.0,542.0 L 689.0,598.0 L 674.0,711.0 L 662.0,752.0 L 635.0,808.0 L 581.0,874.0 L 525.0,915.0 L 446.0,956.0 L 360.0,985.0"/>
    <path d="M 449.0,629.0 L 485.0,648.0 L 513.0,674.0 L 673.0,869.0 L 772.0,957.0 L 871.0,983.0 L 983.0,1003.0"/>
  </g>
</svg>
