<svg xmlns="http://www.w3.org/2000/svg" viewBox="0 0 1024 1024">
  <g style="fill:none;stroke:#000000;stroke-width:50;stroke-linecap:round;stroke-linejoin:round;" transform="scale(1, 1) translate(0, 0)">
    <path d="M 155.0,363.0 L 226.0,362.0 L 362.0,318.0 L 409.0,316.0"/>
    <path d="M 161.0,585.0 L 221.0,580.0 L 281.0,561.0 L 349.0,530.0 L 405.0,523.0"/>
    <path d="M 259.0,382.0 L 295.0,410.0 L 294.0,717.0 L 290.0,733.0 L 272.0,756.0"/>
    <path d="M 80.0,862.0 L 131.0,874.0 L 335.0,751.0 L 435.0,698.0"/>
    <path d="M 493.0,339.0 L 504.0,344.0 L 555.0,344.0 L 774.0,291.0 L 831.0,288.0"/>
    <path d="M 525.0,599.0 L 582.0,604.0 L 759.0,561.0 L 809.0,560.0"/>
    <path d="M 610.0,362.0 L 649.0,383.0 L 654.0,409.0 L 646.0,828.0 L 625.0,850.0"/>
    <path d="M 371.0,899.0 L 426.0,908.0 L 557.0,888.0 L 866.0,856.0 L 903.0,860.0 L 954.0,877.0"/>
  </g>
</svg>
