<svg xmlns="http://www.w3.org/2000/svg" viewBox="0 0 1024 1024">
  <g style="fill:none;stroke:#000000;stroke-width:50;stroke-linecap:round;stroke-linejoin:round;" transform="scale(1, 1) translate(0, 0)">
    <path d="M 115.0,392.0 L 139.0,397.0 L 195.0,392.0 L 316.0,357.0 L 367.0,357.0"/>
    <path d="M 115.0,591.0 L 170.0,591.0 L 289.0,554.0 L 329.0,552.0"/>
    <path d="M 215.0,414.0 L 246.0,435.0 L 239.0,745.0 L 238.0,756.0 L 218.0,780.0"/>
    <path d="M 68.0,852.0 L 124.0,861.0 L 367.0,739.0"/>
    <path d="M 475.0,285.0 L 507.0,325.0 L 485.0,385.0 L 437.0,478.0 L 380.0,569.0 L 338.0,615.0"/>
    <path d="M 417.0,549.0 L 422.0,573.0 L 443.0,616.0 L 442.0,771.0 L 428.0,918.0 L 434.0,978.0"/>
    <path d="M 515.0,599.0 L 557.0,601.0 L 613.0,590.0 L 780.0,532.0 L 830.0,528.0"/>
    <path d="M 583.0,182.0 L 614.0,206.0 L 628.0,228.0 L 640.0,388.0 L 672.0,580.0 L 698.0,680.0 L 733.0,779.0 L 768.0,850.0 L 815.0,924.0 L 853.0,963.0 L 883.0,977.0 L 899.0,951.0 L 913.0,905.0 L 930.0,815.0"/>
    <path d="M 728.0,303.0 L 824.0,365.0 L 851.0,407.0"/>
  </g>
</svg>
