<svg xmlns="http://www.w3.org/2000/svg" viewBox="0 0 1024 1024">
  <g style="fill:none;stroke:#000000;stroke-width:50;stroke-linecap:round;stroke-linejoin:round;" transform="scale(1, 1) translate(0, 0)">
    <path d="M 137.0,369.0 L 159.0,374.0 L 206.0,372.0 L 347.0,334.0 L 389.0,330.0 L 404.0,335.0"/>
    <path d="M 132.0,591.0 L 155.0,596.0 L 193.0,592.0 L 338.0,547.0 L 381.0,545.0"/>
    <path d="M 238.0,396.0 L 266.0,413.0 L 275.0,429.0 L 274.0,751.0 L 256.0,779.0"/>
    <path d="M 77.0,849.0 L 113.0,861.0 L 142.0,862.0 L 428.0,738.0"/>
    <path d="M 544.0,211.0 L 572.0,231.0 L 586.0,252.0 L 571.0,311.0 L 545.0,384.0 L 502.0,475.0 L 449.0,557.0"/>
    <path d="M 516.0,498.0 L 577.0,493.0 L 666.0,474.0 L 810.0,428.0 L 852.0,430.0"/>
    <path d="M 623.0,516.0 L 664.0,543.0 L 661.0,600.0 L 640.0,694.0 L 595.0,787.0 L 547.0,840.0 L 490.0,880.0 L 423.0,910.0 L 355.0,931.0"/>
    <path d="M 458.0,626.0 L 505.0,653.0 L 664.0,845.0 L 774.0,939.0 L 809.0,954.0 L 963.0,975.0"/>
  </g>
</svg>
