<svg xmlns="http://www.w3.org/2000/svg" viewBox="0 0 1024 1024">
  <g style="fill:none;stroke:#000000;stroke-width:50;stroke-linecap:round;stroke-linejoin:round;" transform="scale(1, 1) translate(0, 0)">
    <path d="M 368.0,217.0 L 388.0,241.0 L 395.0,262.0 L 384.0,282.0 L 315.0,381.0 L 248.0,451.0 L 224.0,467.0"/>
    <path d="M 381.0,352.0 L 668.0,297.0 L 707.0,295.0 L 743.0,309.0 L 759.0,331.0 L 694.0,415.0"/>
    <path d="M 494.0,348.0 L 523.0,368.0 L 535.0,388.0 L 532.0,546.0 L 524.0,580.0 L 512.0,601.0 L 398.0,566.0"/>
    <path d="M 361.0,463.0 L 329.0,515.0 L 262.0,589.0"/>
    <path d="M 640.0,451.0 L 753.0,540.0 L 770.0,566.0 L 779.0,595.0"/>
    <path d="M 289.0,703.0 L 342.0,716.0 L 684.0,676.0 L 717.0,677.0 L 752.0,687.0"/>
    <path d="M 336.0,849.0 L 378.0,859.0 L 489.0,846.0 L 590.0,826.0 L 633.0,824.0 L 673.0,832.0"/>
    <path d="M 476.0,727.0 L 504.0,748.0 L 513.0,764.0 L 510.0,937.0 L 493.0,958.0"/>
    <path d="M 188.0,999.0 L 209.0,1007.0 L 248.0,1010.0 L 451.0,986.0 L 802.0,964.0 L 877.0,987.0"/>
    <path d="M 719.0,838.0 L 765.0,878.0 L 792.0,919.0"/>
  </g>
</svg>
