<svg xmlns="http://www.w3.org/2000/svg" viewBox="0 0 1024 1024">
  <g style="fill:none;stroke:#000000;stroke-width:50;stroke-linecap:round;stroke-linejoin:round;" transform="scale(1, 1) translate(0, 0)">
    <path d="M 145.0,363.0 L 203.0,368.0 L 359.0,329.0 L 418.0,329.0"/>
    <path d="M 152.0,578.0 L 229.0,578.0 L 347.0,544.0 L 402.0,541.0"/>
    <path d="M 253.0,384.0 L 284.0,408.0 L 285.0,738.0 L 275.0,765.0 L 265.0,773.0"/>
    <path d="M 94.0,856.0 L 141.0,866.0 L 156.0,862.0 L 356.0,761.0 L 420.0,722.0"/>
    <path d="M 491.0,331.0 L 514.0,338.0 L 565.0,338.0 L 661.0,325.0 L 775.0,300.0 L 825.0,305.0"/>
    <path d="M 476.0,592.0 L 526.0,600.0 L 736.0,567.0 L 801.0,574.0"/>
    <path d="M 601.0,362.0 L 638.0,392.0 L 640.0,434.0 L 635.0,826.0 L 613.0,850.0"/>
    <path d="M 363.0,899.0 L 418.0,908.0 L 546.0,888.0 L 854.0,856.0 L 891.0,860.0 L 942.0,877.0"/>
    <path d="M 765.0,679.0 L 841.0,734.0 L 860.0,766.0"/>
  </g>
</svg>
