<svg xmlns="http://www.w3.org/2000/svg" viewBox="0 0 1024 1024">
  <g style="fill:none;stroke:#000000;stroke-width:50;stroke-linecap:round;stroke-linejoin:round;" transform="scale(1, 1) translate(0, 0)">
    <path d="M 115.0,388.0 L 180.0,387.0 L 293.0,349.0 L 344.0,348.0"/>
    <path d="M 106.0,591.0 L 174.0,585.0 L 270.0,550.0 L 330.0,541.0"/>
    <path d="M 198.0,409.0 L 229.0,434.0 L 232.0,489.0 L 227.0,715.0 L 226.0,726.0 L 209.0,748.0"/>
    <path d="M 71.0,812.0 L 126.0,823.0 L 298.0,741.0 L 355.0,707.0"/>
    <path d="M 362.0,547.0 L 385.0,553.0 L 412.0,550.0 L 581.0,501.0 L 600.0,501.0 L 621.0,519.0 L 591.0,747.0 L 556.0,856.0 L 546.0,874.0 L 517.0,897.0 L 441.0,846.0"/>
    <path d="M 477.0,251.0 L 514.0,293.0 L 491.0,480.0 L 466.0,600.0 L 403.0,765.0 L 362.0,839.0 L 272.0,951.0"/>
    <path d="M 683.0,536.0 L 705.0,555.0 L 714.0,579.0 L 745.0,801.0"/>
    <path d="M 736.0,542.0 L 748.0,549.0 L 871.0,518.0 L 892.0,523.0 L 913.0,545.0 L 883.0,683.0 L 859.0,701.0"/>
    <path d="M 765.0,756.0 L 775.0,743.0 L 849.0,730.0 L 898.0,728.0 L 922.0,737.0"/>
  </g>
</svg>
