<svg xmlns="http://www.w3.org/2000/svg" viewBox="0 0 1024 1024">
  <g style="fill:none;stroke:#000000;stroke-width:50;stroke-linecap:round;stroke-linejoin:round;" transform="scale(1, 1) translate(0, 0)">
    <path d="M 136.0,344.0 L 199.0,347.0 L 353.0,305.0 L 392.0,309.0"/>
    <path d="M 136.0,547.0 L 159.0,552.0 L 196.0,548.0 L 330.0,507.0 L 373.0,505.0"/>
    <path d="M 235.0,367.0 L 264.0,386.0 L 268.0,420.0 L 266.0,683.0 L 248.0,716.0"/>
    <path d="M 94.0,792.0 L 116.0,800.0 L 153.0,802.0 L 326.0,711.0 L 383.0,674.0"/>
    <path d="M 443.0,302.0 L 478.0,310.0 L 778.0,255.0 L 835.0,260.0"/>
    <path d="M 480.0,335.0 L 515.0,368.0 L 516.0,675.0 L 501.0,688.0"/>
    <path d="M 682.0,301.0 L 726.0,326.0 L 729.0,362.0 L 723.0,1065.0"/>
    <path d="M 546.0,455.0 L 557.0,442.0 L 587.0,433.0 L 634.0,426.0 L 668.0,430.0"/>
    <path d="M 542.0,576.0 L 555.0,562.0 L 594.0,553.0 L 641.0,545.0 L 672.0,551.0"/>
    <path d="M 386.0,723.0 L 408.0,729.0 L 454.0,729.0 L 590.0,703.0 L 841.0,673.0 L 875.0,675.0 L 935.0,691.0"/>
  </g>
</svg>
