<svg xmlns="http://www.w3.org/2000/svg" viewBox="0 0 1024 1024">
  <g style="fill:none;stroke:#000000;stroke-width:50;stroke-linecap:round;stroke-linejoin:round;" transform="scale(1, 1) translate(0, 0)">
    <path d="M 135.0,426.0 L 200.0,425.0 L 324.0,384.0 L 373.0,383.0"/>
    <path d="M 146.0,641.0 L 197.0,640.0 L 323.0,596.0 L 362.0,592.0"/>
    <path d="M 237.0,441.0 L 262.0,458.0 L 266.0,543.0 L 262.0,757.0 L 256.0,777.0 L 245.0,789.0"/>
    <path d="M 97.0,863.0 L 153.0,873.0 L 396.0,739.0"/>
    <path d="M 462.0,346.0 L 483.0,365.0 L 492.0,380.0 L 490.0,387.0 L 449.0,479.0 L 397.0,549.0"/>
    <path d="M 491.0,456.0 L 569.0,444.0 L 716.0,400.0 L 768.0,397.0"/>
    <path d="M 380.0,624.0 L 425.0,629.0 L 567.0,596.0 L 789.0,558.0 L 836.0,557.0 L 879.0,566.0"/>
    <path d="M 573.0,185.0 L 602.0,208.0 L 626.0,238.0 L 618.0,782.0 L 601.0,990.0 L 603.0,1077.0"/>
    <path d="M 632.0,610.0 L 590.0,637.0 L 531.0,735.0 L 444.0,840.0 L 380.0,899.0 L 314.0,945.0"/>
    <path d="M 643.0,612.0 L 650.0,639.0 L 681.0,680.0 L 763.0,777.0 L 822.0,836.0 L 853.0,851.0 L 981.0,880.0"/>
  </g>
</svg>
