<svg xmlns="http://www.w3.org/2000/svg" viewBox="0 0 1024 1024">
  <g style="fill:none;stroke:#000000;stroke-width:50;stroke-linecap:round;stroke-linejoin:round;" transform="scale(1, 1) translate(0, 0)">
    <path d="M 155.0,412.0 L 193.0,416.0 L 236.0,410.0 L 361.0,371.0 L 394.0,365.0 L 418.0,369.0"/>
    <path d="M 155.0,624.0 L 219.0,621.0 L 355.0,578.0 L 397.0,573.0"/>
    <path d="M 257.0,429.0 L 287.0,452.0 L 288.0,471.0 L 287.0,760.0 L 270.0,785.0"/>
    <path d="M 98.0,863.0 L 115.0,873.0 L 162.0,876.0 L 372.0,766.0 L 437.0,725.0"/>
    <path d="M 666.0,236.0 L 683.0,248.0 L 701.0,283.0 L 678.0,341.0 L 611.0,460.0 L 537.0,548.0"/>
    <path d="M 641.0,461.0 L 652.0,455.0 L 720.0,448.0 L 832.0,410.0 L 876.0,407.0"/>
    <path d="M 441.0,658.0 L 473.0,668.0 L 508.0,667.0 L 847.0,591.0 L 880.0,588.0 L 908.0,594.0"/>
    <path d="M 692.0,477.0 L 725.0,504.0 L 728.0,526.0 L 723.0,812.0 L 706.0,846.0"/>
    <path d="M 544.0,749.0 L 574.0,795.0 L 565.0,907.0 L 602.0,908.0 L 666.0,880.0 L 811.0,834.0 L 830.0,845.0"/>
    <path d="M 820.0,720.0 L 851.0,752.0 L 862.0,932.0"/>
  </g>
</svg>
