<svg xmlns="http://www.w3.org/2000/svg" viewBox="0 0 1024 1024">
  <g style="fill:none;stroke:#000000;stroke-width:50;stroke-linecap:round;stroke-linejoin:round;" transform="scale(1, 1) translate(0, 0)">
    <path d="M 118.0,320.0 L 190.0,317.0 L 294.0,279.0 L 341.0,275.0"/>
    <path d="M 120.0,532.0 L 167.0,530.0 L 288.0,484.0 L 325.0,480.0"/>
    <path d="M 210.0,337.0 L 239.0,357.0 L 244.0,427.0 L 238.0,664.0 L 217.0,694.0"/>
    <path d="M 57.0,794.0 L 114.0,798.0 L 359.0,631.0"/>
    <path d="M 427.0,275.0 L 491.0,275.0 L 575.0,249.0 L 605.0,248.0"/>
    <path d="M 384.0,342.0 L 400.0,358.0 L 411.0,383.0 L 394.0,463.0 L 395.0,478.0 L 409.0,485.0 L 585.0,435.0 L 632.0,439.0"/>
    <path d="M 500.0,301.0 L 528.0,313.0 L 537.0,328.0 L 539.0,688.0 L 534.0,819.0 L 519.0,855.0 L 425.0,814.0"/>
    <path d="M 512.0,478.0 L 504.0,485.0 L 493.0,538.0 L 436.0,633.0 L 309.0,785.0"/>
    <path d="M 713.0,322.0 L 726.0,332.0 L 792.0,308.0 L 830.0,304.0 L 844.0,311.0 L 859.0,330.0 L 799.0,455.0 L 787.0,497.0 L 834.0,545.0 L 873.0,601.0 L 892.0,650.0 L 895.0,689.0 L 877.0,731.0 L 859.0,747.0 L 763.0,706.0"/>
    <path d="M 643.0,319.0 L 677.0,347.0 L 684.0,360.0 L 686.0,395.0 L 683.0,1065.0"/>
  </g>
</svg>
