<svg xmlns="http://www.w3.org/2000/svg" viewBox="0 0 1024 1024">
  <g style="fill:none;stroke:#000000;stroke-width:50;stroke-linecap:round;stroke-linejoin:round;" transform="scale(1, 1) translate(0, 0)">
    <path d="M 144.0,372.0 L 206.0,376.0 L 331.0,342.0 L 393.0,338.0"/>
    <path d="M 143.0,599.0 L 200.0,597.0 L 327.0,556.0 L 372.0,554.0"/>
    <path d="M 240.0,394.0 L 266.0,417.0 L 270.0,530.0 L 265.0,735.0 L 249.0,764.0"/>
    <path d="M 94.0,826.0 L 116.0,836.0 L 151.0,841.0 L 396.0,727.0"/>
    <path d="M 595.0,187.0 L 637.0,221.0 L 634.0,452.0 L 633.0,462.0 L 617.0,482.0"/>
    <path d="M 455.0,326.0 L 514.0,377.0 L 527.0,402.0"/>
    <path d="M 790.0,254.0 L 809.0,273.0 L 816.0,292.0 L 715.0,388.0"/>
    <path d="M 476.0,493.0 L 502.0,520.0 L 506.0,533.0 L 503.0,701.0 L 488.0,808.0 L 488.0,853.0"/>
    <path d="M 531.0,525.0 L 545.0,515.0 L 595.0,509.0 L 607.0,502.0 L 620.0,505.0 L 721.0,473.0 L 742.0,476.0 L 774.0,508.0 L 769.0,589.0 L 777.0,784.0 L 770.0,847.0"/>
    <path d="M 587.0,590.0 L 608.0,598.0 L 634.0,630.0 L 627.0,772.0 L 598.0,893.0 L 563.0,947.0 L 526.0,976.0 L 472.0,1006.0 L 387.0,1030.0"/>
    <path d="M 713.0,897.0 L 779.0,946.0 L 831.0,994.0 L 851.0,1024.0 L 861.0,1063.0"/>
  </g>
</svg>
