<svg xmlns="http://www.w3.org/2000/svg" viewBox="0 0 1024 1024">
  <g style="fill:none;stroke:#000000;stroke-width:50;stroke-linecap:round;stroke-linejoin:round;" transform="scale(1, 1) translate(0, 0)">
    <path d="M 131.0,408.0 L 194.0,409.0 L 324.0,371.0 L 363.0,371.0"/>
    <path d="M 146.0,619.0 L 196.0,620.0 L 296.0,586.0 L 346.0,581.0"/>
    <path d="M 211.0,434.0 L 238.0,450.0 L 244.0,460.0 L 248.0,528.0 L 242.0,762.0 L 240.0,774.0 L 222.0,795.0"/>
    <path d="M 67.0,866.0 L 124.0,877.0 L 381.0,751.0"/>
    <path d="M 414.0,301.0 L 441.0,324.0 L 449.0,341.0 L 492.0,561.0"/>
    <path d="M 470.0,304.0 L 488.0,312.0 L 669.0,271.0 L 710.0,271.0 L 737.0,282.0 L 758.0,310.0 L 708.0,497.0 L 695.0,526.0 L 657.0,522.0"/>
    <path d="M 495.0,434.0 L 507.0,423.0 L 596.0,407.0 L 630.0,403.0 L 651.0,409.0"/>
    <path d="M 514.0,536.0 L 522.0,527.0 L 542.0,521.0 L 617.0,507.0 L 657.0,506.0"/>
    <path d="M 456.0,729.0 L 469.0,719.0 L 534.0,704.0 L 577.0,704.0"/>
    <path d="M 387.0,635.0 L 426.0,668.0 L 431.0,799.0 L 425.0,900.0 L 474.0,889.0 L 567.0,830.0"/>
    <path d="M 793.0,598.0 L 802.0,610.0 L 808.0,641.0 L 682.0,718.0 L 672.0,730.0"/>
    <path d="M 625.0,586.0 L 652.0,619.0 L 643.0,754.0 L 646.0,849.0 L 658.0,894.0 L 677.0,917.0 L 729.0,940.0 L 770.0,945.0 L 837.0,940.0 L 881.0,926.0 L 913.0,900.0 L 928.0,777.0"/>
  </g>
</svg>
