<svg xmlns="http://www.w3.org/2000/svg" viewBox="0 0 1024 1024">
  <g style="fill:none;stroke:#000000;stroke-width:50;stroke-linecap:round;stroke-linejoin:round;" transform="scale(1, 1) translate(0, 0)">
    <path d="M 143.0,386.0 L 200.0,387.0 L 332.0,347.0 L 380.0,347.0"/>
    <path d="M 127.0,591.0 L 185.0,592.0 L 307.0,556.0 L 360.0,553.0"/>
    <path d="M 230.0,407.0 L 259.0,428.0 L 261.0,461.0 L 251.0,725.0 L 248.0,738.0 L 230.0,758.0"/>
    <path d="M 88.0,820.0 L 143.0,832.0 L 379.0,719.0"/>
    <path d="M 444.0,331.0 L 492.0,375.0 L 507.0,412.0"/>
    <path d="M 753.0,277.0 L 768.0,308.0 L 681.0,387.0"/>
    <path d="M 574.0,210.0 L 612.0,241.0 L 606.0,346.0 L 593.0,407.0 L 571.0,460.0 L 540.0,507.0 L 484.0,561.0 L 443.0,587.0"/>
    <path d="M 644.0,454.0 L 727.0,499.0 L 758.0,536.0"/>
    <path d="M 415.0,663.0 L 468.0,715.0 L 485.0,758.0"/>
    <path d="M 773.0,613.0 L 787.0,648.0 L 672.0,735.0"/>
    <path d="M 570.0,588.0 L 603.0,622.0 L 602.0,657.0 L 591.0,745.0 L 560.0,840.0 L 531.0,892.0 L 491.0,936.0 L 440.0,972.0 L 370.0,1002.0"/>
    <path d="M 618.0,739.0 L 625.0,769.0 L 682.0,838.0 L 745.0,908.0 L 806.0,960.0 L 825.0,973.0 L 946.0,990.0"/>
  </g>
</svg>
