<svg xmlns="http://www.w3.org/2000/svg" viewBox="0 0 1024 1024">
  <g style="fill:none;stroke:#000000;stroke-width:50;stroke-linecap:round;stroke-linejoin:round;" transform="scale(1, 1) translate(0, 0)">
    <path d="M 221.0,290.0 L 244.0,296.0 L 285.0,294.0 L 423.0,261.0 L 469.0,261.0"/>
    <path d="M 236.0,437.0 L 279.0,441.0 L 406.0,407.0 L 448.0,408.0"/>
    <path d="M 325.0,312.0 L 347.0,331.0 L 348.0,383.0 L 345.0,519.0 L 340.0,535.0 L 329.0,545.0"/>
    <path d="M 166.0,600.0 L 179.0,607.0 L 226.0,613.0 L 462.0,521.0"/>
    <path d="M 537.0,251.0 L 605.0,256.0 L 730.0,227.0 L 772.0,228.0"/>
    <path d="M 540.0,395.0 L 597.0,399.0 L 722.0,368.0 L 760.0,369.0"/>
    <path d="M 622.0,276.0 L 643.0,296.0 L 645.0,347.0 L 641.0,481.0 L 626.0,501.0"/>
    <path d="M 500.0,531.0 L 544.0,539.0 L 747.0,505.0 L 785.0,503.0 L 819.0,510.0"/>
    <path d="M 327.0,768.0 L 335.0,761.0 L 379.0,755.0 L 462.0,731.0 L 486.0,735.0"/>
    <path d="M 258.0,677.0 L 286.0,701.0 L 296.0,726.0 L 296.0,812.0 L 278.0,927.0 L 279.0,952.0 L 302.0,952.0 L 335.0,940.0 L 447.0,874.0"/>
    <path d="M 744.0,651.0 L 754.0,674.0 L 755.0,695.0 L 588.0,777.0"/>
    <path d="M 532.0,611.0 L 553.0,634.0 L 560.0,655.0 L 549.0,822.0 L 554.0,911.0 L 566.0,953.0 L 594.0,981.0 L 637.0,997.0 L 709.0,1004.0 L 800.0,994.0 L 858.0,974.0 L 897.0,943.0 L 908.0,808.0"/>
  </g>
</svg>
