<svg xmlns="http://www.w3.org/2000/svg" viewBox="0 0 1024 1024">
  <g style="fill:none;stroke:#000000;stroke-width:50;stroke-linecap:round;stroke-linejoin:round;" transform="scale(1, 1) translate(0, 0)">
    <path d="M 224.0,283.0 L 268.0,288.0 L 410.0,250.0 L 472.0,245.0"/>
    <path d="M 231.0,425.0 L 300.0,422.0 L 411.0,385.0 L 450.0,383.0"/>
    <path d="M 327.0,300.0 L 354.0,323.0 L 350.0,482.0 L 334.0,509.0"/>
    <path d="M 140.0,567.0 L 191.0,583.0 L 203.0,581.0 L 464.0,488.0"/>
    <path d="M 528.0,247.0 L 552.0,253.0 L 591.0,250.0 L 648.0,239.0 L 730.0,213.0 L 771.0,206.0 L 794.0,209.0"/>
    <path d="M 543.0,371.0 L 591.0,375.0 L 696.0,345.0 L 744.0,345.0"/>
    <path d="M 610.0,269.0 L 634.0,288.0 L 639.0,309.0 L 637.0,448.0 L 633.0,463.0 L 622.0,473.0"/>
    <path d="M 500.0,513.0 L 535.0,518.0 L 751.0,474.0 L 790.0,474.0 L 831.0,484.0"/>
    <path d="M 324.0,643.0 L 334.0,652.0 L 349.0,653.0 L 431.0,640.0 L 592.0,602.0 L 630.0,603.0 L 663.0,635.0 L 634.0,709.0 L 608.0,730.0"/>
    <path d="M 453.0,655.0 L 470.0,675.0 L 461.0,749.0 L 444.0,760.0"/>
    <path d="M 313.0,819.0 L 346.0,807.0 L 608.0,756.0 L 649.0,753.0 L 676.0,761.0"/>
    <path d="M 260.0,627.0 L 290.0,659.0 L 297.0,680.0 L 288.0,742.0 L 286.0,830.0 L 299.0,931.0 L 331.0,978.0 L 389.0,1008.0 L 460.0,1023.0 L 629.0,1027.0 L 757.0,1013.0 L 823.0,994.0 L 868.0,969.0 L 879.0,806.0"/>
  </g>
</svg>
