<svg xmlns="http://www.w3.org/2000/svg" viewBox="0 0 1024 1024">
  <g style="fill:none;stroke:#000000;stroke-width:50;stroke-linecap:round;stroke-linejoin:round;" transform="scale(1, 1) translate(0, 0)">
    <path d="M 236.0,290.0 L 290.0,294.0 L 375.0,276.0 L 432.0,257.0 L 479.0,258.0"/>
    <path d="M 231.0,446.0 L 326.0,437.0 L 428.0,403.0 L 457.0,403.0"/>
    <path d="M 336.0,310.0 L 365.0,335.0 L 366.0,361.0 L 361.0,539.0 L 345.0,559.0"/>
    <path d="M 176.0,625.0 L 229.0,639.0 L 504.0,519.0"/>
    <path d="M 548.0,252.0 L 571.0,258.0 L 613.0,257.0 L 729.0,225.0 L 789.0,222.0"/>
    <path d="M 556.0,413.0 L 621.0,413.0 L 715.0,386.0 L 776.0,379.0"/>
    <path d="M 629.0,280.0 L 657.0,305.0 L 654.0,507.0 L 650.0,520.0 L 638.0,530.0"/>
    <path d="M 500.0,572.0 L 538.0,577.0 L 777.0,533.0 L 844.0,545.0"/>
    <path d="M 228.0,755.0 L 212.0,835.0 L 176.0,927.0"/>
    <path d="M 315.0,753.0 L 354.0,848.0 L 396.0,901.0 L 426.0,923.0 L 486.0,952.0 L 570.0,974.0 L 692.0,981.0 L 725.0,975.0 L 753.0,958.0 L 740.0,913.0 L 693.0,826.0"/>
    <path d="M 428.0,678.0 L 490.0,733.0 L 504.0,756.0"/>
    <path d="M 636.0,632.0 L 651.0,674.0 L 624.0,722.0 L 548.0,829.0 L 469.0,910.0 L 363.0,980.0 L 279.0,1019.0 L 202.0,1045.0"/>
    <path d="M 743.0,702.0 L 851.0,761.0 L 877.0,783.0 L 901.0,824.0"/>
  </g>
</svg>
