<svg xmlns="http://www.w3.org/2000/svg" viewBox="0 0 1024 1024">
  <g style="fill:none;stroke:#000000;stroke-width:50;stroke-linecap:round;stroke-linejoin:round;" transform="scale(1, 1) translate(0, 0)">
    <path d="M 95.0,396.0 L 157.0,397.0 L 290.0,357.0 L 338.0,355.0"/>
    <path d="M 114.0,607.0 L 169.0,604.0 L 282.0,561.0 L 324.0,558.0"/>
    <path d="M 192.0,415.0 L 221.0,440.0 L 223.0,482.0 L 217.0,757.0 L 197.0,783.0"/>
    <path d="M 56.0,862.0 L 91.0,870.0 L 118.0,867.0 L 363.0,723.0"/>
    <path d="M 459.0,179.0 L 484.0,208.0 L 480.0,290.0 L 487.0,341.0 L 508.0,368.0 L 547.0,385.0 L 584.0,392.0 L 644.0,392.0 L 733.0,372.0 L 765.0,354.0 L 779.0,339.0 L 788.0,272.0"/>
    <path d="M 731.0,217.0 L 681.0,212.0 L 615.0,257.0 L 535.0,290.0 L 517.0,290.0 L 509.0,303.0"/>
    <path d="M 479.0,476.0 L 501.0,495.0 L 512.0,567.0 L 503.0,793.0"/>
    <path d="M 533.0,486.0 L 541.0,494.0 L 556.0,494.0 L 707.0,465.0 L 734.0,481.0 L 750.0,500.0 L 743.0,569.0 L 746.0,695.0 L 739.0,778.0"/>
    <path d="M 535.0,595.0 L 546.0,585.0 L 619.0,570.0 L 654.0,567.0 L 675.0,573.0"/>
    <path d="M 537.0,677.0 L 548.0,668.0 L 604.0,659.0 L 657.0,657.0 L 678.0,664.0"/>
    <path d="M 529.0,766.0 L 554.0,750.0 L 676.0,736.0 L 695.0,740.0 L 704.0,752.0"/>
    <path d="M 395.0,667.0 L 414.0,689.0 L 424.0,713.0 L 380.0,868.0 L 422.0,870.0 L 519.0,846.0 L 624.0,831.0 L 815.0,818.0 L 886.0,821.0 L 939.0,843.0"/>
    <path d="M 547.0,926.0 L 515.0,932.0 L 488.0,969.0 L 429.0,1023.0 L 381.0,1057.0 L 343.0,1074.0"/>
    <path d="M 695.0,910.0 L 799.0,998.0 L 822.0,1036.0 L 832.0,1078.0"/>
  </g>
</svg>
