<svg xmlns="http://www.w3.org/2000/svg" viewBox="0 0 1024 1024">
  <g style="fill:none;stroke:#000000;stroke-width:50;stroke-linecap:round;stroke-linejoin:round;" transform="scale(1, 1) translate(0, 0)">
    <path d="M 135.0,380.0 L 207.0,378.0 L 320.0,341.0 L 356.0,337.0 L 369.0,342.0"/>
    <path d="M 130.0,595.0 L 173.0,594.0 L 311.0,550.0 L 343.0,550.0"/>
    <path d="M 225.0,400.0 L 254.0,419.0 L 257.0,474.0 L 253.0,732.0 L 247.0,753.0 L 236.0,765.0"/>
    <path d="M 83.0,836.0 L 142.0,843.0 L 379.0,723.0"/>
    <path d="M 729.0,241.0 L 669.0,226.0 L 559.0,282.0 L 472.0,306.0"/>
    <path d="M 440.0,355.0 L 501.0,406.0 L 515.0,442.0"/>
    <path d="M 573.0,327.0 L 605.0,363.0 L 622.0,396.0"/>
    <path d="M 767.0,286.0 L 780.0,315.0 L 726.0,368.0 L 700.0,383.0 L 697.0,392.0"/>
    <path d="M 408.0,465.0 L 417.0,493.0 L 415.0,508.0 L 381.0,582.0 L 375.0,613.0"/>
    <path d="M 445.0,496.0 L 456.0,504.0 L 476.0,504.0 L 597.0,474.0 L 784.0,449.0 L 817.0,464.0 L 828.0,481.0 L 783.0,552.0 L 776.0,555.0"/>
    <path d="M 403.0,642.0 L 450.0,649.0 L 520.0,641.0 L 733.0,601.0 L 795.0,607.0"/>
    <path d="M 536.0,537.0 L 554.0,562.0 L 555.0,578.0 L 522.0,678.0 L 484.0,752.0 L 401.0,856.0 L 303.0,935.0 L 272.0,952.0"/>
    <path d="M 530.0,728.0 L 595.0,725.0 L 668.0,706.0 L 700.0,711.0 L 719.0,722.0 L 675.0,831.0 L 615.0,913.0 L 566.0,950.0 L 528.0,970.0 L 476.0,990.0 L 399.0,1004.0"/>
    <path d="M 498.0,782.0 L 521.0,785.0 L 543.0,799.0 L 662.0,917.0 L 773.0,994.0 L 819.0,1006.0 L 959.0,1019.0"/>
  </g>
</svg>
