<svg xmlns="http://www.w3.org/2000/svg" viewBox="0 0 1024 1024">
  <g style="fill:none;stroke:#000000;stroke-width:50;stroke-linecap:round;stroke-linejoin:round;" transform="scale(1, 1) translate(0, 0)">
    <path d="M 147.0,378.0 L 212.0,378.0 L 342.0,334.0 L 376.0,328.0 L 401.0,332.0"/>
    <path d="M 161.0,581.0 L 228.0,576.0 L 314.0,541.0 L 367.0,534.0"/>
    <path d="M 231.0,399.0 L 259.0,418.0 L 263.0,427.0 L 262.0,729.0 L 244.0,755.0"/>
    <path d="M 93.0,840.0 L 150.0,845.0 L 378.0,707.0"/>
    <path d="M 592.0,183.0 L 659.0,225.0 L 685.0,264.0"/>
    <path d="M 477.0,367.0 L 550.0,368.0 L 795.0,312.0 L 828.0,312.0"/>
    <path d="M 664.0,375.0 L 685.0,388.0 L 683.0,403.0 L 602.0,514.0 L 549.0,560.0"/>
    <path d="M 549.0,440.0 L 670.0,488.0 L 704.0,513.0 L 716.0,531.0"/>
    <path d="M 446.0,484.0 L 465.0,506.0 L 474.0,528.0 L 467.0,627.0 L 500.0,627.0 L 652.0,590.0 L 752.0,576.0 L 763.0,567.0"/>
    <path d="M 803.0,406.0 L 822.0,432.0 L 829.0,453.0 L 788.0,630.0"/>
    <path d="M 400.0,727.0 L 419.0,748.0 L 431.0,776.0 L 435.0,901.0 L 430.0,961.0 L 439.0,1000.0"/>
    <path d="M 444.0,740.0 L 468.0,750.0 L 586.0,721.0 L 808.0,692.0 L 838.0,690.0 L 862.0,701.0 L 880.0,729.0 L 866.0,803.0 L 855.0,955.0 L 843.0,987.0 L 838.0,995.0 L 823.0,992.0 L 744.0,955.0"/>
    <path d="M 595.0,623.0 L 623.0,638.0 L 635.0,652.0 L 610.0,731.0 L 566.0,822.0 L 560.0,857.0 L 601.0,857.0 L 707.0,826.0 L 718.0,833.0"/>
    <path d="M 710.0,763.0 L 757.0,819.0 L 769.0,864.0"/>
  </g>
</svg>
