<svg xmlns="http://www.w3.org/2000/svg" viewBox="0 0 1024 1024">
  <g style="fill:none;stroke:#000000;stroke-width:50;stroke-linecap:round;stroke-linejoin:round;" transform="scale(1, 1) translate(0, 0)">
    <path d="M 131.0,344.0 L 193.0,345.0 L 319.0,304.0 L 379.0,300.0"/>
    <path d="M 126.0,559.0 L 176.0,559.0 L 319.0,512.0 L 363.0,510.0"/>
    <path d="M 227.0,363.0 L 257.0,385.0 L 259.0,433.0 L 254.0,699.0 L 237.0,724.0"/>
    <path d="M 68.0,809.0 L 104.0,818.0 L 132.0,816.0 L 388.0,671.0"/>
    <path d="M 562.0,178.0 L 577.0,192.0 L 585.0,213.0 L 502.0,331.0 L 474.0,354.0"/>
    <path d="M 418.0,344.0 L 449.0,375.0 L 457.0,401.0 L 471.0,531.0 L 474.0,663.0 L 486.0,725.0"/>
    <path d="M 475.0,362.0 L 491.0,371.0 L 570.0,352.0 L 581.0,343.0 L 740.0,309.0 L 781.0,316.0 L 811.0,341.0 L 777.0,652.0 L 766.0,685.0 L 740.0,689.0"/>
    <path d="M 591.0,364.0 L 611.0,380.0 L 604.0,402.0 L 571.0,465.0 L 528.0,520.0"/>
    <path d="M 599.0,457.0 L 616.0,448.0 L 626.0,452.0 L 633.0,444.0 L 674.0,437.0 L 691.0,439.0 L 702.0,452.0 L 667.0,523.0 L 626.0,575.0 L 557.0,634.0 L 528.0,650.0"/>
    <path d="M 559.0,506.0 L 678.0,576.0 L 699.0,597.0 L 705.0,613.0"/>
    <path d="M 506.0,710.0 L 545.0,695.0 L 729.0,670.0"/>
    <path d="M 404.0,804.0 L 389.0,887.0 L 359.0,968.0"/>
    <path d="M 469.0,804.0 L 490.0,832.0 L 522.0,918.0 L 548.0,954.0 L 591.0,987.0 L 667.0,1011.0 L 716.0,1017.0 L 776.0,1013.0 L 814.0,1001.0 L 841.0,979.0 L 778.0,855.0"/>
    <path d="M 578.0,769.0 L 652.0,807.0 L 670.0,834.0"/>
    <path d="M 788.0,764.0 L 903.0,819.0 L 928.0,841.0 L 946.0,869.0"/>
  </g>
</svg>
