<svg xmlns="http://www.w3.org/2000/svg" viewBox="0 0 1024 1024">
  <g style="fill:none;stroke:#000000;stroke-width:50;stroke-linecap:round;stroke-linejoin:round;" transform="scale(1, 1) translate(0, 0)">
    <path d="M 147.0,376.0 L 212.0,375.0 L 314.0,340.0 L 350.0,333.0 L 377.0,337.0"/>
    <path d="M 150.0,603.0 L 212.0,598.0 L 326.0,555.0 L 362.0,555.0"/>
    <path d="M 230.0,400.0 L 255.0,413.0 L 261.0,423.0 L 265.0,481.0 L 261.0,738.0 L 244.0,762.0"/>
    <path d="M 77.0,856.0 L 135.0,861.0 L 205.0,814.0 L 370.0,719.0"/>
    <path d="M 612.0,176.0 L 645.0,208.0 L 639.0,327.0 L 624.0,338.0"/>
    <path d="M 461.0,262.0 L 486.0,301.0 L 480.0,394.0 L 512.0,394.0 L 641.0,361.0 L 762.0,341.0 L 771.0,329.0"/>
    <path d="M 811.0,203.0 L 836.0,246.0 L 806.0,332.0 L 793.0,391.0"/>
    <path d="M 554.0,477.0 L 525.0,489.0 L 498.0,538.0 L 450.0,600.0 L 424.0,629.0 L 372.0,670.0"/>
    <path d="M 467.0,618.0 L 468.0,640.0 L 488.0,680.0 L 487.0,864.0 L 470.0,1022.0 L 478.0,1082.0"/>
    <path d="M 644.0,425.0 L 698.0,470.0 L 709.0,490.0"/>
    <path d="M 564.0,573.0 L 585.0,577.0 L 636.0,572.0 L 778.0,528.0 L 817.0,527.0"/>
    <path d="M 581.0,692.0 L 607.0,691.0 L 766.0,653.0 L 800.0,659.0"/>
    <path d="M 573.0,796.0 L 600.0,796.0 L 763.0,761.0 L 807.0,766.0"/>
    <path d="M 655.0,591.0 L 682.0,608.0 L 687.0,631.0 L 681.0,856.0 L 667.0,870.0"/>
    <path d="M 517.0,906.0 L 524.0,914.0 L 545.0,916.0 L 848.0,875.0 L 925.0,890.0"/>
  </g>
</svg>
