<svg xmlns="http://www.w3.org/2000/svg" viewBox="0 0 1024 1024">
  <g style="fill:none;stroke:#000000;stroke-width:50;stroke-linecap:round;stroke-linejoin:round;" transform="scale(1, 1) translate(0, 0)">
    <path d="M 131.0,387.0 L 191.0,386.0 L 307.0,352.0 L 349.0,348.0"/>
    <path d="M 130.0,595.0 L 183.0,592.0 L 294.0,553.0 L 347.0,545.0"/>
    <path d="M 227.0,402.0 L 253.0,421.0 L 257.0,453.0 L 256.0,725.0 L 239.0,749.0"/>
    <path d="M 84.0,827.0 L 140.0,834.0 L 310.0,744.0 L 368.0,707.0"/>
    <path d="M 406.0,291.0 L 426.0,314.0 L 432.0,336.0 L 432.0,431.0 L 417.0,516.0 L 421.0,551.0"/>
    <path d="M 450.0,303.0 L 466.0,308.0 L 549.0,281.0 L 576.0,306.0 L 571.0,361.0 L 577.0,471.0 L 571.0,524.0"/>
    <path d="M 477.0,358.0 L 505.0,382.0 L 501.0,482.0 L 490.0,536.0 L 474.0,583.0 L 456.0,607.0 L 419.0,636.0 L 399.0,642.0"/>
    <path d="M 525.0,543.0 L 557.0,568.0 L 572.0,589.0"/>
    <path d="M 635.0,259.0 L 659.0,288.0 L 664.0,345.0 L 656.0,510.0"/>
    <path d="M 675.0,268.0 L 684.0,274.0 L 795.0,244.0 L 824.0,270.0 L 820.0,327.0 L 825.0,439.0 L 818.0,497.0"/>
    <path d="M 712.0,326.0 L 742.0,349.0 L 741.0,429.0 L 732.0,498.0 L 707.0,564.0 L 684.0,589.0 L 649.0,611.0 L 631.0,615.0"/>
    <path d="M 767.0,534.0 L 826.0,574.0 L 847.0,608.0"/>
    <path d="M 542.0,625.0 L 558.0,641.0 L 568.0,667.0 L 487.0,842.0 L 496.0,853.0 L 581.0,886.0 L 716.0,961.0 L 769.0,1001.0 L 803.0,1043.0"/>
    <path d="M 675.0,678.0 L 705.0,707.0 L 695.0,770.0 L 654.0,862.0 L 611.0,919.0 L 580.0,945.0 L 504.0,985.0 L 436.0,1006.0 L 391.0,1011.0"/>
    <path d="M 368.0,752.0 L 421.0,759.0 L 615.0,726.0 L 847.0,699.0 L 881.0,700.0 L 935.0,714.0"/>
  </g>
</svg>
