<svg xmlns="http://www.w3.org/2000/svg" viewBox="0 0 1024 1024">
  <g style="fill:none;stroke:#000000;stroke-width:50;stroke-linecap:round;stroke-linejoin:round;" transform="scale(1, 1) translate(0, 0)">
    <path d="M 135.0,372.0 L 200.0,373.0 L 298.0,343.0 L 336.0,340.0 L 350.0,345.0"/>
    <path d="M 134.0,607.0 L 194.0,604.0 L 268.0,578.0 L 318.0,573.0"/>
    <path d="M 206.0,396.0 L 234.0,421.0 L 226.0,755.0 L 208.0,781.0"/>
    <path d="M 69.0,868.0 L 117.0,869.0 L 315.0,739.0"/>
    <path d="M 417.0,254.0 L 478.0,293.0 L 501.0,331.0"/>
    <path d="M 342.0,487.0 L 363.0,490.0 L 400.0,484.0 L 535.0,434.0 L 572.0,436.0"/>
    <path d="M 452.0,579.0 L 474.0,572.0 L 490.0,576.0 L 523.0,603.0 L 478.0,815.0 L 458.0,857.0 L 431.0,885.0 L 358.0,842.0"/>
    <path d="M 407.0,507.0 L 435.0,526.0 L 422.0,592.0 L 396.0,673.0 L 348.0,785.0 L 311.0,848.0 L 261.0,910.0"/>
    <path d="M 668.0,201.0 L 682.0,208.0 L 703.0,235.0 L 689.0,287.0 L 626.0,422.0 L 576.0,492.0"/>
    <path d="M 653.0,418.0 L 725.0,406.0 L 810.0,378.0 L 865.0,373.0"/>
    <path d="M 579.0,572.0 L 610.0,575.0 L 772.0,513.0 L 806.0,512.0 L 826.0,520.0 L 838.0,534.0 L 791.0,612.0"/>
    <path d="M 677.0,572.0 L 698.0,581.0 L 708.0,595.0 L 703.0,816.0 L 723.0,852.0"/>
    <path d="M 735.0,734.0 L 747.0,720.0 L 784.0,709.0 L 837.0,708.0"/>
    <path d="M 579.0,674.0 L 608.0,703.0 L 585.0,790.0 L 564.0,840.0 L 533.0,892.0 L 465.0,970.0"/>
    <path d="M 614.0,778.0 L 619.0,797.0 L 627.0,798.0 L 674.0,845.0 L 816.0,950.0 L 875.0,967.0 L 973.0,974.0"/>
  </g>
</svg>
