<svg xmlns="http://www.w3.org/2000/svg" viewBox="0 0 1024 1024">
  <g style="fill:none;stroke:#000000;stroke-width:50;stroke-linecap:round;stroke-linejoin:round;" transform="scale(1, 1) translate(0, 0)">
    <path d="M 127.0,419.0 L 185.0,419.0 L 289.0,385.0 L 322.0,379.0 L 344.0,382.0"/>
    <path d="M 134.0,627.0 L 185.0,625.0 L 276.0,591.0 L 323.0,585.0"/>
    <path d="M 220.0,435.0 L 248.0,454.0 L 251.0,486.0 L 249.0,783.0 L 232.0,806.0"/>
    <path d="M 80.0,889.0 L 133.0,896.0 L 358.0,764.0"/>
    <path d="M 426.0,292.0 L 440.0,311.0 L 442.0,329.0 L 386.0,437.0 L 381.0,465.0 L 398.0,468.0 L 450.0,460.0 L 463.0,449.0"/>
    <path d="M 495.0,395.0 L 507.0,424.0 L 466.0,489.0 L 421.0,544.0 L 416.0,573.0 L 443.0,575.0 L 500.0,555.0"/>
    <path d="M 504.0,518.0 L 528.0,549.0 L 543.0,584.0"/>
    <path d="M 704.0,240.0 L 724.0,273.0 L 662.0,388.0 L 656.0,412.0 L 729.0,406.0 L 739.0,397.0"/>
    <path d="M 784.0,323.0 L 794.0,338.0 L 795.0,354.0 L 694.0,495.0 L 692.0,517.0 L 713.0,520.0 L 773.0,498.0"/>
    <path d="M 778.0,463.0 L 817.0,520.0"/>
    <path d="M 375.0,702.0 L 397.0,707.0 L 445.0,702.0 L 570.0,672.0 L 733.0,621.0 L 774.0,618.0"/>
    <path d="M 449.0,626.0 L 476.0,659.0 L 463.0,748.0 L 444.0,814.0 L 397.0,898.0 L 353.0,938.0 L 319.0,954.0"/>
    <path d="M 486.0,764.0 L 541.0,803.0 L 564.0,835.0"/>
    <path d="M 507.0,196.0 L 540.0,210.0 L 564.0,232.0 L 581.0,386.0 L 624.0,592.0 L 672.0,744.0 L 738.0,875.0 L 822.0,980.0 L 859.0,1009.0 L 903.0,1023.0 L 922.0,985.0 L 945.0,874.0"/>
    <path d="M 801.0,679.0 L 811.0,717.0 L 758.0,788.0 L 711.0,834.0 L 657.0,870.0 L 608.0,893.0 L 533.0,914.0"/>
    <path d="M 808.0,569.0 L 870.0,608.0 L 895.0,644.0"/>
  </g>
</svg>
