<svg xmlns="http://www.w3.org/2000/svg" viewBox="0 0 1024 1024">
  <g style="fill:none;stroke:#000000;stroke-width:50;stroke-linecap:round;stroke-linejoin:round;" transform="scale(1, 1) translate(0, 0)">
    <path d="M 139.0,388.0 L 205.0,388.0 L 315.0,348.0 L 351.0,341.0 L 377.0,345.0"/>
    <path d="M 134.0,583.0 L 175.0,584.0 L 243.0,567.0 L 314.0,540.0 L 354.0,537.0"/>
    <path d="M 223.0,415.0 L 247.0,425.0 L 258.0,454.0 L 253.0,739.0 L 236.0,761.0"/>
    <path d="M 90.0,832.0 L 146.0,840.0 L 388.0,714.0"/>
    <path d="M 429.0,357.0 L 489.0,363.0 L 574.0,350.0 L 746.0,309.0 L 799.0,306.0"/>
    <path d="M 490.0,246.0 L 527.0,287.0 L 538.0,458.0 L 527.0,468.0"/>
    <path d="M 662.0,186.0 L 699.0,228.0 L 673.0,429.0 L 655.0,447.0"/>
    <path d="M 384.0,508.0 L 435.0,513.0 L 569.0,484.0 L 831.0,441.0 L 881.0,444.0 L 913.0,454.0"/>
    <path d="M 411.0,593.0 L 433.0,611.0 L 447.0,638.0 L 484.0,806.0"/>
    <path d="M 461.0,594.0 L 486.0,603.0 L 714.0,560.0 L 772.0,571.0 L 791.0,599.0 L 766.0,709.0 L 748.0,764.0 L 723.0,769.0"/>
    <path d="M 519.0,689.0 L 576.0,683.0 L 658.0,664.0 L 680.0,662.0 L 701.0,668.0"/>
    <path d="M 582.0,502.0 L 609.0,521.0 L 613.0,544.0 L 609.0,721.0 L 594.0,743.0"/>
    <path d="M 502.0,789.0 L 520.0,777.0 L 714.0,744.0"/>
    <path d="M 561.0,871.0 L 529.0,876.0 L 492.0,920.0 L 431.0,971.0 L 370.0,1012.0 L 332.0,1027.0"/>
    <path d="M 673.0,844.0 L 783.0,934.0 L 803.0,963.0 L 813.0,999.0"/>
  </g>
</svg>
