<svg xmlns="http://www.w3.org/2000/svg" viewBox="0 0 1024 1024">
  <g style="fill:none;stroke:#000000;stroke-width:50;stroke-linecap:round;stroke-linejoin:round;" transform="scale(1, 1) translate(0, 0)">
    <path d="M 124.0,392.0 L 181.0,397.0 L 333.0,359.0 L 381.0,358.0"/>
    <path d="M 127.0,598.0 L 200.0,595.0 L 317.0,559.0 L 363.0,558.0"/>
    <path d="M 229.0,413.0 L 258.0,439.0 L 250.0,745.0 L 232.0,770.0"/>
    <path d="M 94.0,842.0 L 153.0,850.0 L 336.0,752.0 L 395.0,714.0"/>
    <path d="M 487.0,268.0 L 524.0,280.0 L 567.0,272.0 L 683.0,230.0 L 706.0,228.0 L 727.0,240.0 L 735.0,255.0 L 721.0,276.0 L 671.0,318.0 L 659.0,335.0 L 645.0,334.0"/>
    <path d="M 588.0,329.0 L 660.0,374.0"/>
    <path d="M 435.0,430.0 L 469.0,437.0 L 750.0,375.0 L 789.0,373.0 L 813.0,379.0 L 830.0,396.0 L 833.0,408.0 L 760.0,469.0"/>
    <path d="M 653.0,419.0 L 668.0,465.0 L 671.0,506.0 L 665.0,558.0 L 656.0,579.0 L 646.0,589.0 L 572.0,559.0"/>
    <path d="M 644.0,417.0 L 609.0,445.0 L 580.0,485.0 L 536.0,526.0 L 472.0,569.0 L 433.0,585.0"/>
    <path d="M 426.0,661.0 L 453.0,684.0 L 463.0,773.0 L 456.0,894.0 L 442.0,959.0 L 438.0,1022.0"/>
    <path d="M 484.0,673.0 L 494.0,682.0 L 508.0,683.0 L 788.0,633.0 L 816.0,639.0 L 836.0,657.0 L 841.0,668.0 L 850.0,944.0 L 844.0,998.0 L 834.0,1019.0 L 731.0,990.0"/>
    <path d="M 565.0,694.0 L 580.0,713.0 L 561.0,751.0 L 523.0,797.0 L 507.0,804.0 L 498.0,817.0"/>
    <path d="M 663.0,674.0 L 690.0,695.0 L 686.0,738.0 L 703.0,770.0 L 746.0,780.0 L 788.0,769.0 L 809.0,784.0"/>
    <path d="M 527.0,843.0 L 552.0,869.0 L 577.0,994.0"/>
    <path d="M 579.0,863.0 L 598.0,852.0 L 656.0,836.0 L 681.0,830.0 L 694.0,833.0 L 715.0,852.0 L 702.0,898.0 L 681.0,912.0"/>
    <path d="M 593.0,966.0 L 609.0,956.0 L 671.0,942.0 L 712.0,937.0 L 737.0,943.0"/>
  </g>
</svg>
