<svg xmlns="http://www.w3.org/2000/svg" viewBox="0 0 1024 1024">
  <g style="fill:none;stroke:#000000;stroke-width:50;stroke-linecap:round;stroke-linejoin:round;" transform="scale(1, 1) translate(0, 0)">
    <path d="M 138.0,344.0 L 198.0,343.0 L 307.0,303.0 L 367.0,296.0"/>
    <path d="M 145.0,559.0 L 192.0,556.0 L 291.0,520.0 L 339.0,513.0"/>
    <path d="M 232.0,361.0 L 261.0,383.0 L 265.0,454.0 L 262.0,678.0 L 261.0,690.0 L 244.0,715.0"/>
    <path d="M 76.0,808.0 L 131.0,814.0 L 390.0,659.0"/>
    <path d="M 749.0,225.0 L 689.0,210.0 L 579.0,266.0 L 492.0,290.0"/>
    <path d="M 468.0,330.0 L 521.0,372.0 L 531.0,397.0"/>
    <path d="M 597.0,318.0 L 640.0,370.0"/>
    <path d="M 767.0,270.0 L 779.0,299.0 L 699.0,369.0"/>
    <path d="M 430.0,419.0 L 438.0,438.0 L 434.0,468.0 L 404.0,521.0 L 402.0,558.0"/>
    <path d="M 463.0,443.0 L 473.0,452.0 L 484.0,452.0 L 666.0,414.0 L 829.0,391.0 L 860.0,399.0 L 878.0,424.0 L 827.0,487.0"/>
    <path d="M 494.0,517.0 L 482.0,561.0 L 448.0,627.0"/>
    <path d="M 544.0,549.0 L 563.0,586.0 L 594.0,612.0 L 643.0,625.0 L 683.0,625.0 L 713.0,615.0 L 724.0,605.0 L 687.0,543.0"/>
    <path d="M 575.0,489.0 L 612.0,509.0 L 627.0,529.0"/>
    <path d="M 708.0,480.0 L 760.0,501.0 L 785.0,528.0"/>
    <path d="M 534.0,650.0 L 553.0,686.0 L 512.0,750.0 L 478.0,790.0 L 391.0,872.0 L 299.0,929.0 L 284.0,930.0 L 280.0,937.0"/>
    <path d="M 569.0,726.0 L 589.0,719.0 L 627.0,718.0 L 678.0,703.0 L 706.0,709.0 L 722.0,721.0 L 697.0,783.0 L 656.0,859.0 L 602.0,917.0 L 559.0,948.0 L 506.0,974.0 L 412.0,1001.0 L 375.0,1004.0"/>
    <path d="M 515.0,786.0 L 537.0,787.0 L 557.0,800.0 L 687.0,921.0 L 798.0,998.0 L 985.0,1017.0"/>
  </g>
</svg>
