<svg xmlns="http://www.w3.org/2000/svg" viewBox="0 0 1024 1024">
  <g style="fill:none;stroke:#000000;stroke-width:50;stroke-linecap:round;stroke-linejoin:round;" transform="scale(1, 1) translate(0, 0)">
    <path d="M 127.0,348.0 L 190.0,350.0 L 290.0,322.0 L 350.0,319.0"/>
    <path d="M 135.0,567.0 L 193.0,565.0 L 282.0,537.0 L 330.0,533.0"/>
    <path d="M 211.0,374.0 L 238.0,393.0 L 244.0,427.0 L 242.0,723.0 L 222.0,750.0"/>
    <path d="M 58.0,846.0 L 115.0,851.0 L 360.0,695.0"/>
    <path d="M 496.0,184.0 L 526.0,216.0 L 522.0,332.0 L 506.0,345.0"/>
    <path d="M 554.0,265.0 L 564.0,254.0 L 585.0,247.0 L 642.0,243.0"/>
    <path d="M 477.0,360.0 L 452.0,369.0 L 410.0,427.0 L 350.0,480.0"/>
    <path d="M 482.0,381.0 L 489.0,373.0 L 538.0,360.0 L 561.0,363.0 L 574.0,380.0 L 530.0,465.0 L 477.0,531.0 L 417.0,588.0 L 346.0,629.0"/>
    <path d="M 411.0,458.0 L 426.0,464.0 L 456.0,493.0 L 458.0,515.0"/>
    <path d="M 653.0,327.0 L 705.0,325.0 L 768.0,305.0 L 806.0,317.0 L 783.0,387.0 L 759.0,430.0 L 732.0,461.0 L 670.0,498.0 L 609.0,513.0"/>
    <path d="M 650.0,393.0 L 812.0,483.0 L 848.0,514.0 L 862.0,542.0"/>
    <path d="M 452.0,604.0 L 492.0,638.0 L 509.0,668.0"/>
    <path d="M 734.0,545.0 L 746.0,576.0 L 667.0,644.0"/>
    <path d="M 372.0,748.0 L 417.0,755.0 L 630.0,717.0 L 810.0,695.0 L 881.0,710.0"/>
    <path d="M 570.0,549.0 L 586.0,563.0 L 598.0,586.0 L 586.0,992.0 L 597.0,1080.0"/>
    <path d="M 571.0,752.0 L 561.0,759.0 L 552.0,786.0 L 527.0,821.0 L 438.0,904.0 L 362.0,952.0 L 305.0,976.0"/>
    <path d="M 620.0,745.0 L 630.0,763.0 L 693.0,827.0 L 793.0,913.0 L 842.0,930.0 L 965.0,948.0"/>
  </g>
</svg>
