<svg xmlns="http://www.w3.org/2000/svg" viewBox="0 0 1024 1024">
  <g style="fill:none;stroke:#000000;stroke-width:50;stroke-linecap:round;stroke-linejoin:round;" transform="scale(1, 1) translate(0, 0)">
    <path d="M 356.0,250.0 L 328.0,253.0 L 282.0,315.0 L 284.0,323.0"/>
    <path d="M 223.0,321.0 L 264.0,359.0 L 292.0,572.0 L 297.0,590.0 L 310.0,597.0"/>
    <path d="M 304.0,425.0 L 311.0,412.0 L 325.0,407.0 L 359.0,400.0 L 375.0,403.0"/>
    <path d="M 313.0,506.0 L 319.0,496.0 L 334.0,491.0 L 378.0,491.0"/>
    <path d="M 384.0,246.0 L 406.0,273.0 L 414.0,338.0 L 416.0,568.0 L 414.0,578.0 L 404.0,584.0"/>
    <path d="M 433.0,262.0 L 444.0,271.0 L 587.0,234.0 L 612.0,258.0 L 605.0,553.0 L 590.0,562.0"/>
    <path d="M 452.0,349.0 L 473.0,351.0 L 533.0,334.0 L 558.0,333.0"/>
    <path d="M 437.0,430.0 L 456.0,453.0 L 475.0,551.0"/>
    <path d="M 475.0,433.0 L 479.0,437.0 L 525.0,419.0 L 545.0,423.0 L 553.0,433.0 L 542.0,488.0 L 533.0,493.0"/>
    <path d="M 483.0,533.0 L 516.0,518.0 L 561.0,515.0"/>
    <path d="M 663.0,281.0 L 683.0,285.0 L 753.0,275.0 L 772.0,287.0 L 779.0,301.0 L 740.0,538.0 L 721.0,554.0"/>
    <path d="M 659.0,385.0 L 735.0,370.0"/>
    <path d="M 657.0,469.0 L 727.0,455.0"/>
    <path d="M 189.0,587.0 L 199.0,616.0 L 194.0,639.0 L 154.0,721.0 L 150.0,765.0"/>
    <path d="M 225.0,643.0 L 239.0,632.0 L 372.0,612.0 L 768.0,573.0 L 805.0,585.0 L 826.0,618.0 L 758.0,707.0"/>
    <path d="M 336.0,713.0 L 365.0,721.0 L 420.0,720.0 L 618.0,688.0 L 671.0,690.0"/>
    <path d="M 340.0,858.0 L 388.0,867.0 L 592.0,837.0 L 628.0,835.0 L 666.0,843.0"/>
    <path d="M 480.0,742.0 L 508.0,764.0 L 510.0,792.0 L 509.0,949.0 L 493.0,970.0"/>
    <path d="M 230.0,1011.0 L 289.0,1022.0 L 451.0,1000.0 L 718.0,980.0 L 741.0,980.0 L 810.0,1002.0"/>
    <path d="M 756.0,842.0 L 825.0,883.0 L 855.0,921.0"/>
  </g>
</svg>
