<svg xmlns="http://www.w3.org/2000/svg" viewBox="0 0 1024 1024">
  <g style="fill:none;stroke:#000000;stroke-width:50;stroke-linecap:round;stroke-linejoin:round;" transform="scale(1, 1) translate(0, 0)">
    <path d="M 107.0,367.0 L 131.0,372.0 L 170.0,369.0 L 296.0,331.0 L 351.0,329.0"/>
    <path d="M 126.0,593.0 L 188.0,590.0 L 302.0,551.0 L 341.0,548.0"/>
    <path d="M 204.0,384.0 L 230.0,401.0 L 241.0,417.0 L 245.0,475.0 L 241.0,752.0 L 221.0,778.0"/>
    <path d="M 81.0,852.0 L 136.0,860.0 L 388.0,719.0"/>
    <path d="M 607.0,178.0 L 577.0,187.0 L 533.0,248.0 L 455.0,311.0"/>
    <path d="M 575.0,238.0 L 661.0,223.0 L 693.0,232.0 L 631.0,323.0 L 617.0,331.0"/>
    <path d="M 402.0,367.0 L 421.0,383.0 L 431.0,406.0 L 445.0,486.0 L 456.0,510.0"/>
    <path d="M 439.0,372.0 L 461.0,381.0 L 646.0,342.0 L 725.0,331.0 L 780.0,331.0 L 797.0,340.0 L 812.0,367.0 L 763.0,471.0 L 751.0,483.0"/>
    <path d="M 580.0,371.0 L 592.0,382.0 L 595.0,396.0 L 580.0,425.0 L 531.0,482.0 L 510.0,497.0"/>
    <path d="M 605.0,428.0 L 663.0,447.0 L 691.0,476.0"/>
    <path d="M 481.0,537.0 L 497.0,556.0 L 502.0,573.0 L 500.0,726.0 L 506.0,755.0"/>
    <path d="M 526.0,558.0 L 548.0,546.0 L 678.0,514.0 L 694.0,518.0 L 713.0,537.0 L 717.0,670.0 L 710.0,744.0"/>
    <path d="M 528.0,622.0 L 534.0,613.0 L 610.0,599.0 L 637.0,601.0"/>
    <path d="M 526.0,686.0 L 535.0,676.0 L 574.0,667.0 L 628.0,658.0 L 641.0,661.0"/>
    <path d="M 520.0,748.0 L 533.0,738.0 L 660.0,715.0 L 683.0,723.0"/>
    <path d="M 519.0,764.0 L 533.0,793.0 L 495.0,847.0 L 429.0,909.0 L 363.0,946.0"/>
    <path d="M 549.0,823.0 L 574.0,810.0 L 644.0,804.0 L 727.0,784.0 L 758.0,783.0 L 791.0,792.0"/>
    <path d="M 665.0,823.0 L 690.0,843.0 L 678.0,879.0 L 646.0,942.0 L 604.0,990.0 L 560.0,1021.0 L 521.0,1038.0 L 450.0,1054.0 L 399.0,1054.0"/>
    <path d="M 503.0,870.0 L 514.0,867.0 L 552.0,888.0 L 672.0,998.0 L 758.0,1053.0 L 817.0,1069.0 L 925.0,1078.0 L 939.0,1074.0"/>
  </g>
</svg>
