<svg xmlns="http://www.w3.org/2000/svg" viewBox="0 0 1024 1024">
  <g style="fill:none;stroke:#000000;stroke-width:50;stroke-linecap:round;stroke-linejoin:round;" transform="scale(1, 1) translate(0, 0)">
    <path d="M 115.0,391.0 L 173.0,391.0 L 277.0,357.0 L 310.0,351.0 L 332.0,354.0"/>
    <path d="M 114.0,603.0 L 199.0,591.0 L 299.0,556.0 L 323.0,559.0"/>
    <path d="M 261.0,412.0 L 233.0,426.0 L 238.0,529.0 L 233.0,732.0 L 216.0,755.0"/>
    <path d="M 68.0,831.0 L 124.0,838.0 L 291.0,748.0 L 348.0,711.0"/>
    <path d="M 393.0,272.0 L 410.0,292.0 L 418.0,345.0 L 411.0,475.0 L 415.0,523.0"/>
    <path d="M 436.0,293.0 L 515.0,258.0 L 541.0,260.0 L 562.0,281.0 L 552.0,517.0"/>
    <path d="M 440.0,375.0 L 447.0,364.0 L 466.0,359.0 L 510.0,360.0"/>
    <path d="M 441.0,448.0 L 447.0,436.0 L 460.0,432.0 L 497.0,427.0 L 514.0,432.0"/>
    <path d="M 436.0,516.0 L 444.0,507.0 L 515.0,493.0 L 525.0,503.0"/>
    <path d="M 421.0,535.0 L 437.0,563.0 L 422.0,592.0 L 374.0,650.0 L 348.0,670.0"/>
    <path d="M 505.0,547.0 L 540.0,573.0 L 554.0,594.0"/>
    <path d="M 625.0,236.0 L 642.0,253.0 L 647.0,273.0 L 645.0,483.0 L 650.0,498.0"/>
    <path d="M 668.0,245.0 L 683.0,252.0 L 688.0,246.0 L 772.0,223.0 L 787.0,227.0 L 809.0,252.0 L 803.0,313.0 L 805.0,449.0 L 798.0,500.0"/>
    <path d="M 671.0,332.0 L 675.0,323.0 L 695.0,317.0 L 742.0,320.0"/>
    <path d="M 665.0,401.0 L 675.0,392.0 L 715.0,385.0 L 745.0,391.0"/>
    <path d="M 668.0,489.0 L 679.0,478.0 L 757.0,472.0 L 771.0,484.0"/>
    <path d="M 665.0,529.0 L 678.0,553.0 L 622.0,623.0 L 604.0,635.0"/>
    <path d="M 746.0,522.0 L 817.0,582.0 L 832.0,615.0"/>
    <path d="M 526.0,639.0 L 542.0,654.0 L 553.0,679.0 L 487.0,838.0 L 497.0,849.0 L 568.0,873.0 L 700.0,937.0 L 763.0,976.0 L 817.0,1031.0"/>
    <path d="M 666.0,688.0 L 686.0,704.0 L 695.0,720.0 L 692.0,751.0 L 670.0,819.0 L 643.0,868.0 L 605.0,917.0 L 557.0,954.0 L 518.0,975.0 L 446.0,999.0 L 379.0,1008.0"/>
    <path d="M 356.0,756.0 L 408.0,763.0 L 578.0,732.0 L 845.0,702.0 L 880.0,706.0 L 919.0,722.0"/>
  </g>
</svg>
