<svg xmlns="http://www.w3.org/2000/svg" viewBox="0 0 1024 1024">
  <g style="fill:none;stroke:#000000;stroke-width:50;stroke-linecap:round;stroke-linejoin:round;" transform="scale(1, 1) translate(0, 0)">
    <path d="M 239.0,327.0 L 262.0,334.0 L 329.0,336.0 L 537.0,301.0 L 689.0,268.0 L 753.0,266.0"/>
    <path d="M 333.0,360.0 L 338.0,370.0 L 362.0,384.0 L 372.0,414.0 L 344.0,601.0 L 306.0,769.0 L 283.0,843.0 L 276.0,891.0 L 330.0,889.0 L 501.0,826.0"/>
    <path d="M 379.0,549.0 L 392.0,541.0 L 490.0,520.0 L 559.0,493.0 L 590.0,489.0 L 611.0,499.0 L 614.0,518.0 L 589.0,623.0 L 582.0,695.0 L 585.0,803.0 L 614.0,885.0 L 646.0,926.0 L 687.0,957.0 L 755.0,981.0 L 810.0,987.0 L 862.0,980.0 L 900.0,964.0 L 908.0,951.0 L 929.0,801.0"/>
    <path d="M 380.0,645.0 L 458.0,691.0 L 486.0,727.0"/>
  </g>
</svg>
