<svg xmlns="http://www.w3.org/2000/svg" viewBox="0 0 1024 1024">
  <g style="fill:none;stroke:#000000;stroke-width:50;stroke-linecap:round;stroke-linejoin:round;" transform="scale(1, 1) translate(0, 0)">
    <path d="M 285.0,180.0 L 354.0,204.0 L 378.0,228.0"/>
    <path d="M 143.0,308.0 L 181.0,315.0 L 454.0,269.0 L 515.0,272.0"/>
    <path d="M 136.0,392.0 L 164.0,419.0 L 192.0,512.0"/>
    <path d="M 179.0,391.0 L 187.0,397.0 L 268.0,371.0 L 289.0,389.0 L 279.0,435.0 L 265.0,440.0"/>
    <path d="M 204.0,474.0 L 212.0,480.0 L 251.0,469.0 L 306.0,471.0"/>
    <path d="M 338.0,345.0 L 361.0,367.0 L 382.0,467.0"/>
    <path d="M 381.0,359.0 L 460.0,333.0 L 479.0,338.0 L 488.0,349.0 L 486.0,368.0 L 476.0,400.0 L 458.0,409.0"/>
    <path d="M 394.0,452.0 L 403.0,444.0 L 445.0,435.0 L 500.0,439.0"/>
    <path d="M 172.0,568.0 L 232.0,573.0 L 436.0,527.0 L 482.0,525.0"/>
    <path d="M 172.0,650.0 L 225.0,649.0 L 423.0,610.0 L 474.0,614.0"/>
    <path d="M 226.0,514.0 L 257.0,544.0 L 271.0,684.0 L 265.0,700.0"/>
    <path d="M 355.0,473.0 L 382.0,504.0 L 370.0,664.0 L 358.0,684.0"/>
    <path d="M 106.0,737.0 L 135.0,745.0 L 166.0,745.0 L 450.0,690.0 L 502.0,694.0"/>
    <path d="M 285.0,766.0 L 255.0,777.0 L 209.0,838.0 L 164.0,881.0 L 102.0,928.0 L 64.0,947.0"/>
    <path d="M 256.0,828.0 L 261.0,857.0 L 257.0,953.0 L 264.0,986.0 L 299.0,974.0 L 348.0,937.0 L 363.0,933.0 L 368.0,921.0 L 379.0,922.0 L 387.0,914.0"/>
    <path d="M 426.0,734.0 L 438.0,757.0 L 392.0,808.0"/>
    <path d="M 317.0,795.0 L 410.0,852.0 L 428.0,867.0 L 445.0,896.0"/>
    <path d="M 832.0,320.0 L 760.0,323.0 L 675.0,396.0 L 665.0,398.0 L 630.0,427.0 L 621.0,422.0"/>
    <path d="M 555.0,416.0 L 589.0,449.0 L 587.0,590.0 L 573.0,701.0 L 548.0,804.0 L 521.0,876.0 L 479.0,951.0 L 439.0,1003.0"/>
    <path d="M 621.0,484.0 L 659.0,518.0 L 662.0,540.0 L 663.0,765.0 L 644.0,933.0 L 645.0,967.0 L 686.0,960.0 L 778.0,905.0"/>
    <path d="M 749.0,835.0 L 820.0,916.0 L 840.0,951.0 L 848.0,983.0"/>
    <path d="M 696.0,534.0 L 714.0,545.0 L 726.0,563.0 L 774.0,668.0 L 864.0,807.0 L 972.0,854.0"/>
  </g>
</svg>
