<svg xmlns="http://www.w3.org/2000/svg" viewBox="0 0 1024 1024">
  <g style="fill:none;stroke:#000000;stroke-width:50;stroke-linecap:round;stroke-linejoin:round;" transform="scale(1, 1) translate(0, 0)">
    <path d="M 361.0,245.0 L 379.0,283.0 L 330.0,348.0 L 230.0,436.0 L 152.0,476.0"/>
    <path d="M 501.0,205.0 L 520.0,206.0 L 555.0,224.0 L 652.0,319.0 L 742.0,383.0 L 808.0,396.0 L 907.0,400.0"/>
    <path d="M 443.0,353.0 L 466.0,389.0 L 408.0,472.0 L 368.0,512.0 L 359.0,536.0 L 388.0,541.0 L 588.0,501.0 L 596.0,510.0"/>
    <path d="M 564.0,430.0 L 647.0,502.0 L 667.0,549.0"/>
    <path d="M 216.0,656.0 L 274.0,666.0 L 669.0,609.0 L 727.0,610.0 L 751.0,617.0"/>
    <path d="M 342.0,682.0 L 368.0,702.0 L 374.0,730.0 L 334.0,872.0 L 295.0,982.0 L 347.0,982.0 L 471.0,933.0"/>
    <path d="M 403.0,755.0 L 416.0,745.0 L 444.0,745.0 L 574.0,715.0 L 603.0,731.0 L 606.0,745.0 L 584.0,806.0 L 574.0,868.0 L 583.0,946.0 L 604.0,986.0 L 619.0,999.0 L 686.0,1022.0 L 791.0,1022.0 L 830.0,1012.0 L 862.0,991.0 L 867.0,860.0 L 873.0,840.0"/>
    <path d="M 401.0,803.0 L 441.0,827.0 L 466.0,856.0"/>
  </g>
</svg>
