<svg xmlns="http://www.w3.org/2000/svg" viewBox="0 0 1024 1024">
  <g style="fill:none;stroke:#000000;stroke-width:50;stroke-linecap:round;stroke-linejoin:round;" transform="scale(1, 1) translate(0, 0)">
    <path d="M 172.0,360.0 L 188.0,368.0 L 253.0,361.0 L 448.0,310.0 L 475.0,312.0 L 480.0,320.0"/>
    <path d="M 235.0,466.0 L 255.0,480.0 L 284.0,592.0"/>
    <path d="M 277.0,482.0 L 285.0,473.0 L 332.0,459.0 L 344.0,460.0 L 370.0,449.0 L 400.0,449.0 L 418.0,469.0 L 401.0,514.0 L 384.0,519.0"/>
    <path d="M 301.0,574.0 L 307.0,565.0 L 358.0,552.0 L 421.0,555.0"/>
    <path d="M 192.0,689.0 L 211.0,703.0 L 237.0,811.0"/>
    <path d="M 237.0,703.0 L 240.0,696.0 L 266.0,684.0 L 286.0,684.0 L 302.0,694.0 L 296.0,747.0 L 282.0,758.0"/>
    <path d="M 251.0,790.0 L 283.0,776.0 L 319.0,777.0"/>
    <path d="M 342.0,641.0 L 364.0,663.0 L 385.0,772.0"/>
    <path d="M 387.0,658.0 L 400.0,647.0 L 436.0,635.0 L 466.0,635.0 L 479.0,650.0 L 478.0,662.0 L 465.0,707.0 L 449.0,717.0"/>
    <path d="M 399.0,755.0 L 435.0,740.0 L 489.0,743.0"/>
    <path d="M 113.0,337.0 L 139.0,366.0 L 146.0,386.0 L 148.0,652.0 L 135.0,887.0 L 139.0,926.0 L 181.0,923.0 L 258.0,896.0 L 410.0,865.0 L 436.0,863.0 L 463.0,870.0"/>
    <path d="M 501.0,387.0 L 531.0,392.0 L 600.0,384.0 L 773.0,339.0 L 825.0,336.0"/>
    <path d="M 554.0,414.0 L 585.0,441.0 L 578.0,629.0 L 547.0,861.0 L 549.0,882.0 L 553.0,886.0 L 590.0,877.0 L 699.0,810.0"/>
    <path d="M 605.0,558.0 L 616.0,549.0 L 697.0,524.0 L 738.0,519.0 L 752.0,525.0 L 757.0,540.0 L 752.0,713.0 L 765.0,790.0 L 798.0,862.0 L 845.0,906.0 L 878.0,921.0 L 904.0,925.0 L 945.0,913.0 L 961.0,784.0"/>
    <path d="M 598.0,660.0 L 663.0,698.0 L 677.0,719.0"/>
  </g>
</svg>
