<svg xmlns="http://www.w3.org/2000/svg" viewBox="0 0 1024 1024">
  <g style="fill:none;stroke:#000000;stroke-width:50;stroke-linecap:round;stroke-linejoin:round;" transform="scale(1, 1) translate(0, 0)">
    <path d="M 212.0,300.0 L 300.0,306.0 L 434.0,285.0 L 552.0,279.0 L 693.0,262.0 L 748.0,265.0 L 791.0,280.0"/>
    <path d="M 352.0,213.0 L 391.0,237.0 L 420.0,357.0"/>
    <path d="M 597.0,174.0 L 618.0,209.0 L 561.0,345.0"/>
    <path d="M 280.0,396.0 L 309.0,422.0 L 344.0,558.0"/>
    <path d="M 337.0,425.0 L 352.0,410.0 L 372.0,403.0 L 383.0,406.0 L 398.0,399.0 L 630.0,368.0 L 672.0,372.0 L 698.0,405.0 L 648.0,518.0"/>
    <path d="M 424.0,416.0 L 432.0,425.0 L 443.0,496.0 L 451.0,504.0"/>
    <path d="M 544.0,397.0 L 564.0,416.0 L 551.0,470.0 L 535.0,494.0"/>
    <path d="M 362.0,530.0 L 368.0,536.0 L 426.0,529.0 L 628.0,495.0"/>
    <path d="M 200.0,579.0 L 210.0,607.0 L 206.0,631.0 L 168.0,702.0 L 163.0,753.0"/>
    <path d="M 238.0,607.0 L 248.0,618.0 L 274.0,619.0 L 496.0,582.0 L 717.0,559.0 L 753.0,560.0 L 790.0,579.0 L 802.0,598.0 L 738.0,675.0"/>
    <path d="M 296.0,693.0 L 330.0,703.0 L 609.0,664.0 L 661.0,672.0"/>
    <path d="M 366.0,731.0 L 387.0,750.0 L 386.0,766.0 L 356.0,871.0 L 322.0,951.0 L 319.0,976.0 L 358.0,980.0 L 482.0,945.0"/>
    <path d="M 412.0,791.0 L 427.0,782.0 L 481.0,775.0 L 565.0,752.0 L 577.0,752.0 L 597.0,766.0 L 583.0,873.0 L 589.0,954.0 L 602.0,980.0 L 631.0,1009.0 L 695.0,1033.0 L 774.0,1038.0 L 826.0,1033.0 L 868.0,1021.0 L 907.0,997.0 L 898.0,879.0 L 902.0,859.0"/>
    <path d="M 430.0,840.0 L 464.0,860.0 L 491.0,886.0"/>
  </g>
</svg>
