<svg xmlns="http://www.w3.org/2000/svg" viewBox="0 0 1024 1024">
  <g style="fill:none;stroke:#000000;stroke-width:50;stroke-linecap:round;stroke-linejoin:round;" transform="scale(1, 1) translate(0, 0)">
    <path d="M 82.0,543.0 L 143.0,562.0 L 462.0,511.0 L 837.0,469.0 L 930.0,497.0"/>
    <path d="M 294.0,327.0 L 322.0,348.0 L 345.0,379.0 L 360.0,954.0"/>
    <path d="M 610.0,222.0 L 632.0,235.0 L 665.0,271.0 L 653.0,458.0 L 651.0,862.0 L 642.0,903.0 L 627.0,929.0 L 628.0,966.0 L 617.0,1018.0"/>
    <path d="M 386.0,677.0 L 394.0,687.0 L 416.0,687.0 L 523.0,670.0 L 567.0,672.0"/>
    <path d="M 388.0,913.0 L 406.0,896.0 L 487.0,883.0 L 529.0,878.0 L 576.0,886.0"/>
  </g>
</svg>
