<svg xmlns="http://www.w3.org/2000/svg" viewBox="0 0 1024 1024">
  <g style="fill:none;stroke:#000000;stroke-width:50;stroke-linecap:round;stroke-linejoin:round;" transform="scale(1, 1) translate(0, 0)">
    <path d="M 299.0,380.0 L 334.0,421.0 L 309.0,495.0 L 279.0,557.0 L 247.0,604.0 L 219.0,639.0 L 171.0,683.0"/>
    <path d="M 320.0,550.0 L 402.0,546.0 L 502.0,532.0 L 690.0,488.0 L 750.0,493.0"/>
    <path d="M 338.0,739.0 L 366.0,746.0 L 417.0,745.0 L 558.0,722.0 L 664.0,696.0 L 703.0,699.0"/>
    <path d="M 486.0,204.0 L 518.0,228.0 L 535.0,248.0 L 538.0,265.0 L 518.0,909.0 L 498.0,930.0"/>
    <path d="M 141.0,985.0 L 198.0,997.0 L 411.0,966.0 L 811.0,929.0 L 886.0,939.0 L 923.0,954.0"/>
  </g>
</svg>
