<svg xmlns="http://www.w3.org/2000/svg" viewBox="0 0 1024 1024">
  <g style="fill:none;stroke:#000000;stroke-width:50;stroke-linecap:round;stroke-linejoin:round;" transform="scale(1, 1) translate(0, 0)">
    <path d="M 462.0,175.0 L 544.0,210.0 L 571.0,239.0"/>
    <path d="M 300.0,335.0 L 346.0,342.0 L 662.0,285.0 L 716.0,280.0 L 751.0,286.0"/>
    <path d="M 583.0,326.0 L 600.0,352.0 L 560.0,406.0 L 521.0,445.0 L 431.0,512.0 L 383.0,535.0 L 368.0,535.0 L 364.0,542.0"/>
    <path d="M 428.0,397.0 L 582.0,444.0 L 616.0,461.0 L 639.0,484.0"/>
    <path d="M 327.0,576.0 L 336.0,586.0 L 387.0,585.0 L 557.0,559.0 L 717.0,525.0 L 769.0,523.0"/>
    <path d="M 258.0,546.0 L 287.0,586.0 L 287.0,599.0 L 262.0,718.0 L 230.0,819.0 L 201.0,885.0 L 155.0,961.0 L 121.0,1007.0 L 62.0,1063.0"/>
    <path d="M 395.0,648.0 L 418.0,681.0 L 411.0,700.0 L 364.0,775.0 L 306.0,826.0"/>
    <path d="M 417.0,747.0 L 488.0,746.0 L 601.0,723.0 L 685.0,698.0 L 753.0,693.0"/>
    <path d="M 406.0,879.0 L 443.0,878.0 L 661.0,830.0 L 710.0,837.0"/>
    <path d="M 530.0,587.0 L 561.0,608.0 L 570.0,624.0 L 566.0,950.0 L 546.0,969.0"/>
    <path d="M 266.0,1011.0 L 318.0,1022.0 L 535.0,994.0 L 832.0,972.0 L 914.0,994.0"/>
  </g>
</svg>
