<svg xmlns="http://www.w3.org/2000/svg" viewBox="0 0 1024 1024">
  <g style="fill:none;stroke:#000000;stroke-width:50;stroke-linecap:round;stroke-linejoin:round;" transform="scale(1, 1) translate(0, 0)">
    <path d="M 208.0,283.0 L 250.0,295.0 L 278.0,295.0 L 748.0,236.0 L 788.0,237.0 L 830.0,247.0"/>
    <path d="M 559.0,294.0 L 524.0,313.0 L 505.0,351.0 L 456.0,420.0 L 365.0,513.0 L 263.0,593.0 L 177.0,639.0"/>
    <path d="M 511.0,385.0 L 517.0,391.0 L 502.0,433.0 L 501.0,553.0"/>
    <path d="M 578.0,373.0 L 743.0,460.0 L 785.0,492.0 L 809.0,530.0"/>
    <path d="M 291.0,606.0 L 315.0,619.0 L 328.0,650.0 L 329.0,729.0 L 322.0,806.0 L 304.0,881.0 L 281.0,943.0 L 231.0,1023.0"/>
    <path d="M 347.0,610.0 L 372.0,621.0 L 635.0,581.0 L 677.0,589.0 L 706.0,620.0 L 701.0,724.0 L 706.0,930.0 L 693.0,999.0 L 685.0,1011.0 L 660.0,1007.0 L 578.0,969.0"/>
    <path d="M 388.0,741.0 L 445.0,745.0 L 560.0,716.0 L 612.0,715.0"/>
    <path d="M 381.0,853.0 L 416.0,860.0 L 453.0,858.0 L 579.0,830.0 L 627.0,830.0"/>
    <path d="M 464.0,632.0 L 501.0,659.0 L 491.0,1043.0"/>
  </g>
</svg>
