<svg xmlns="http://www.w3.org/2000/svg" viewBox="0 0 1024 1024">
  <g style="fill:none;stroke:#000000;stroke-width:50;stroke-linecap:round;stroke-linejoin:round;" transform="scale(1, 1) translate(0, 0)">
    <path d="M 445.0,178.0 L 458.0,187.0 L 475.0,215.0 L 402.0,317.0 L 341.0,384.0 L 341.0,393.0"/>
    <path d="M 273.0,390.0 L 314.0,426.0 L 318.0,456.0 L 318.0,640.0 L 301.0,760.0 L 259.0,882.0 L 228.0,934.0 L 164.0,1006.0 L 113.0,1043.0"/>
    <path d="M 353.0,441.0 L 373.0,423.0 L 698.0,356.0 L 742.0,368.0 L 765.0,394.0 L 781.0,869.0 L 782.0,954.0 L 775.0,996.0 L 756.0,1029.0 L 706.0,1014.0 L 635.0,981.0"/>
    <path d="M 400.0,602.0 L 471.0,603.0 L 604.0,564.0 L 654.0,561.0"/>
    <path d="M 389.0,766.0 L 461.0,768.0 L 554.0,749.0 L 620.0,726.0 L 655.0,722.0 L 681.0,728.0"/>
    <path d="M 480.0,423.0 L 522.0,449.0 L 515.0,1036.0"/>
  </g>
</svg>
