<svg xmlns="http://www.w3.org/2000/svg" viewBox="0 0 1024 1024">
  <g style="fill:none;stroke:#000000;stroke-width:50;stroke-linecap:round;stroke-linejoin:round;" transform="scale(1, 1) translate(0, 0)">
    <path d="M 414.0,172.0 L 441.0,198.0 L 451.0,227.0 L 404.0,311.0 L 324.0,426.0 L 270.0,489.0 L 228.0,525.0"/>
    <path d="M 354.0,427.0 L 416.0,430.0 L 676.0,389.0 L 721.0,387.0 L 751.0,401.0 L 782.0,432.0 L 761.0,778.0 L 740.0,902.0 L 723.0,954.0 L 703.0,993.0 L 669.0,1023.0 L 578.0,963.0 L 566.0,962.0 L 561.0,954.0"/>
    <path d="M 153.0,597.0 L 186.0,623.0 L 199.0,647.0 L 228.0,817.0 L 248.0,876.0"/>
    <path d="M 214.0,601.0 L 233.0,616.0 L 293.0,602.0 L 470.0,578.0 L 525.0,587.0 L 550.0,619.0 L 533.0,681.0 L 522.0,757.0 L 498.0,837.0 L 470.0,839.0"/>
    <path d="M 279.0,729.0 L 410.0,704.0 L 452.0,708.0"/>
    <path d="M 337.0,615.0 L 362.0,639.0 L 357.0,791.0 L 342.0,808.0"/>
    <path d="M 265.0,853.0 L 292.0,839.0 L 462.0,815.0"/>
  </g>
</svg>
