<svg xmlns="http://www.w3.org/2000/svg" viewBox="0 0 1024 1024">
  <g style="fill:none;stroke:#000000;stroke-width:50;stroke-linecap:round;stroke-linejoin:round;" transform="scale(1, 1) translate(0, 0)">
    <path d="M 168.0,394.0 L 204.0,424.0 L 225.0,461.0 L 253.0,667.0 L 267.0,841.0 L 285.0,900.0"/>
    <path d="M 234.0,406.0 L 277.0,424.0 L 518.0,392.0 L 739.0,349.0 L 770.0,349.0 L 804.0,369.0 L 823.0,390.0 L 792.0,623.0 L 761.0,788.0 L 746.0,828.0 L 726.0,855.0 L 724.0,916.0"/>
    <path d="M 346.0,632.0 L 383.0,633.0 L 601.0,597.0 L 642.0,594.0 L 665.0,601.0"/>
    <path d="M 468.0,416.0 L 503.0,442.0 L 502.0,773.0 L 484.0,796.0"/>
    <path d="M 305.0,853.0 L 320.0,839.0 L 393.0,830.0 L 604.0,808.0 L 696.0,807.0"/>
  </g>
</svg>
