<svg xmlns="http://www.w3.org/2000/svg" viewBox="0 0 1024 1024">
  <g style="fill:none;stroke:#000000;stroke-width:50;stroke-linecap:round;stroke-linejoin:round;" transform="scale(1, 1) translate(0, 0)">
    <path d="M 94.0,445.0 L 126.0,479.0 L 168.0,705.0"/>
    <path d="M 159.0,471.0 L 184.0,456.0 L 339.0,420.0 L 393.0,420.0 L 420.0,439.0 L 429.0,450.0 L 428.0,461.0 L 400.0,599.0 L 383.0,660.0 L 362.0,668.0"/>
    <path d="M 191.0,565.0 L 312.0,534.0 L 349.0,537.0"/>
    <path d="M 184.0,687.0 L 207.0,676.0 L 335.0,652.0 L 354.0,640.0"/>
    <path d="M 234.0,208.0 L 263.0,231.0 L 286.0,260.0 L 287.0,271.0 L 279.0,771.0 L 265.0,930.0 L 268.0,1013.0"/>
    <path d="M 452.0,310.0 L 484.0,321.0 L 526.0,319.0 L 658.0,285.0 L 678.0,288.0 L 696.0,304.0 L 637.0,396.0 L 562.0,488.0 L 532.0,535.0 L 522.0,562.0 L 563.0,567.0 L 686.0,542.0 L 850.0,522.0 L 870.0,530.0 L 891.0,555.0 L 872.0,693.0 L 852.0,777.0 L 824.0,861.0 L 790.0,926.0 L 764.0,960.0 L 738.0,979.0 L 623.0,920.0"/>
    <path d="M 566.0,586.0 L 581.0,597.0 L 594.0,632.0 L 574.0,674.0 L 510.0,763.0 L 446.0,818.0"/>
    <path d="M 697.0,561.0 L 730.0,594.0 L 715.0,641.0 L 666.0,733.0 L 619.0,805.0 L 580.0,852.0 L 508.0,922.0 L 479.0,944.0 L 465.0,947.0 L 462.0,954.0"/>
  </g>
</svg>
