<svg xmlns="http://www.w3.org/2000/svg" viewBox="0 0 1024 1024">
  <g style="fill:none;stroke:#000000;stroke-width:50;stroke-linecap:round;stroke-linejoin:round;" transform="scale(1, 1) translate(0, 0)">
    <path d="M 242.0,247.0 L 271.0,268.0 L 288.0,306.0 L 343.0,505.0"/>
    <path d="M 301.0,249.0 L 323.0,260.0 L 481.0,233.0 L 641.0,215.0 L 677.0,217.0 L 697.0,225.0 L 723.0,259.0 L 671.0,417.0 L 650.0,464.0 L 653.0,488.0"/>
    <path d="M 372.0,369.0 L 414.0,367.0 L 565.0,336.0 L 607.0,341.0"/>
    <path d="M 466.0,257.0 L 494.0,282.0 L 493.0,417.0 L 477.0,442.0"/>
    <path d="M 361.0,490.0 L 378.0,480.0 L 596.0,449.0 L 612.0,442.0"/>
    <path d="M 384.0,502.0 L 405.0,523.0 L 406.0,532.0 L 356.0,601.0 L 299.0,658.0 L 220.0,724.0 L 117.0,783.0 L 68.0,801.0"/>
    <path d="M 530.0,478.0 L 685.0,622.0 L 787.0,698.0 L 846.0,715.0 L 970.0,733.0"/>
    <path d="M 363.0,684.0 L 399.0,717.0 L 387.0,816.0 L 375.0,856.0 L 343.0,916.0 L 323.0,940.0 L 249.0,991.0"/>
    <path d="M 563.0,638.0 L 574.0,644.0 L 595.0,675.0 L 591.0,989.0 L 607.0,1073.0"/>
  </g>
</svg>
