<svg xmlns="http://www.w3.org/2000/svg" viewBox="0 0 1024 1024">
  <g style="fill:none;stroke:#000000;stroke-width:50;stroke-linecap:round;stroke-linejoin:round;" transform="scale(1, 1) translate(0, 0)">
    <path d="M 245.0,300.0 L 305.0,306.0 L 457.0,271.0 L 505.0,271.0"/>
    <path d="M 196.0,419.0 L 225.0,439.0 L 268.0,593.0"/>
    <path d="M 255.0,439.0 L 266.0,430.0 L 364.0,411.0 L 421.0,393.0 L 445.0,396.0 L 476.0,428.0 L 452.0,489.0 L 425.0,504.0"/>
    <path d="M 284.0,567.0 L 313.0,552.0 L 421.0,531.0 L 475.0,536.0"/>
    <path d="M 127.0,661.0 L 156.0,686.0 L 164.0,703.0 L 212.0,936.0"/>
    <path d="M 186.0,665.0 L 208.0,674.0 L 289.0,653.0 L 450.0,628.0 L 486.0,629.0 L 510.0,637.0 L 533.0,667.0 L 495.0,853.0 L 482.0,887.0 L 448.0,883.0"/>
    <path d="M 243.0,785.0 L 405.0,748.0 L 436.0,753.0"/>
    <path d="M 313.0,672.0 L 342.0,697.0 L 341.0,830.0 L 337.0,843.0 L 324.0,855.0"/>
    <path d="M 231.0,908.0 L 242.0,894.0 L 265.0,889.0 L 394.0,867.0 L 448.0,867.0"/>
  </g>
</svg>
