<svg xmlns="http://www.w3.org/2000/svg" viewBox="0 0 1024 1024">
  <g style="fill:none;stroke:#000000;stroke-width:50;stroke-linecap:round;stroke-linejoin:round;" transform="scale(1, 1) translate(0, 0)">
    <path d="M 290.0,267.0 L 317.0,288.0 L 331.0,322.0 L 387.0,561.0"/>
    <path d="M 346.0,269.0 L 371.0,281.0 L 517.0,250.0 L 668.0,227.0 L 702.0,227.0 L 726.0,234.0 L 743.0,251.0 L 753.0,276.0 L 699.0,425.0 L 667.0,494.0 L 670.0,517.0"/>
    <path d="M 426.0,404.0 L 583.0,373.0 L 627.0,379.0"/>
    <path d="M 490.0,279.0 L 517.0,300.0 L 521.0,320.0 L 517.0,451.0 L 501.0,470.0"/>
    <path d="M 404.0,498.0 L 424.0,507.0 L 613.0,478.0 L 630.0,470.0"/>
    <path d="M 430.0,608.0 L 400.0,614.0 L 330.0,681.0 L 262.0,720.0"/>
    <path d="M 578.0,535.0 L 613.0,570.0 L 607.0,632.0 L 611.0,657.0 L 625.0,674.0 L 648.0,685.0 L 689.0,689.0 L 743.0,682.0 L 780.0,667.0 L 826.0,671.0"/>
    <path d="M 443.0,654.0 L 460.0,689.0 L 404.0,770.0 L 317.0,854.0 L 235.0,905.0 L 220.0,906.0 L 216.0,913.0"/>
    <path d="M 433.0,777.0 L 462.0,766.0 L 513.0,759.0 L 561.0,741.0 L 599.0,745.0 L 620.0,758.0 L 570.0,863.0 L 540.0,907.0 L 488.0,960.0 L 427.0,998.0 L 372.0,1020.0 L 276.0,1046.0 L 266.0,1042.0 L 235.0,1047.0"/>
    <path d="M 360.0,847.0 L 385.0,839.0 L 438.0,858.0 L 613.0,985.0 L 728.0,1047.0 L 793.0,1056.0 L 950.0,1052.0"/>
  </g>
</svg>
