<svg xmlns="http://www.w3.org/2000/svg" viewBox="0 0 1024 1024">
  <g style="fill:none;stroke:#000000;stroke-width:50;stroke-linecap:round;stroke-linejoin:round;" transform="scale(1, 1) translate(0, 0)">
    <path d="M 456.0,179.0 L 478.0,218.0 L 474.0,228.0 L 406.0,320.0 L 349.0,378.0 L 321.0,425.0 L 363.0,432.0 L 559.0,392.0 L 622.0,384.0 L 640.0,388.0"/>
    <path d="M 588.0,307.0 L 678.0,377.0 L 693.0,393.0 L 708.0,425.0"/>
    <path d="M 154.0,583.0 L 174.0,590.0 L 221.0,590.0 L 487.0,549.0 L 743.0,523.0 L 827.0,542.0"/>
    <path d="M 417.0,446.0 L 444.0,472.0 L 396.0,570.0 L 337.0,650.0 L 288.0,700.0 L 224.0,750.0 L 152.0,792.0 L 101.0,813.0"/>
    <path d="M 602.0,565.0 L 626.0,572.0 L 718.0,651.0 L 795.0,706.0 L 871.0,722.0 L 973.0,729.0"/>
    <path d="M 281.0,751.0 L 295.0,753.0 L 307.0,765.0 L 315.0,789.0 L 352.0,1020.0"/>
    <path d="M 342.0,747.0 L 357.0,760.0 L 374.0,759.0 L 628.0,712.0 L 655.0,714.0 L 683.0,735.0 L 693.0,749.0 L 660.0,954.0 L 640.0,990.0 L 639.0,1050.0"/>
    <path d="M 392.0,861.0 L 450.0,857.0 L 538.0,839.0 L 591.0,844.0"/>
    <path d="M 458.0,763.0 L 486.0,791.0 L 485.0,917.0 L 470.0,942.0"/>
    <path d="M 373.0,986.0 L 388.0,976.0 L 607.0,951.0"/>
  </g>
</svg>
