<svg xmlns="http://www.w3.org/2000/svg" viewBox="0 0 1024 1024">
  <g style="fill:none;stroke:#000000;stroke-width:50;stroke-linecap:round;stroke-linejoin:round;" transform="scale(1, 1) translate(0, 0)">
    <path d="M 254.0,264.0 L 348.0,325.0 L 372.0,364.0"/>
    <path d="M 89.0,511.0 L 113.0,517.0 L 165.0,516.0 L 410.0,458.0 L 464.0,455.0"/>
    <path d="M 70.0,649.0 L 96.0,672.0 L 106.0,694.0 L 156.0,945.0"/>
    <path d="M 130.0,650.0 L 147.0,661.0 L 201.0,644.0 L 356.0,613.0 L 402.0,616.0 L 423.0,633.0 L 433.0,647.0 L 395.0,820.0 L 375.0,882.0 L 357.0,888.0"/>
    <path d="M 182.0,775.0 L 226.0,776.0 L 302.0,751.0 L 349.0,745.0"/>
    <path d="M 228.0,660.0 L 256.0,682.0 L 256.0,845.0 L 241.0,865.0"/>
    <path d="M 175.0,916.0 L 186.0,902.0 L 325.0,870.0 L 344.0,860.0"/>
    <path d="M 589.0,229.0 L 608.0,241.0 L 631.0,270.0 L 604.0,349.0 L 562.0,444.0 L 522.0,517.0 L 472.0,582.0"/>
    <path d="M 548.0,516.0 L 665.0,470.0 L 706.0,470.0 L 723.0,487.0 L 656.0,675.0 L 581.0,797.0 L 525.0,859.0 L 469.0,906.0 L 394.0,954.0 L 357.0,969.0"/>
    <path d="M 665.0,725.0 L 664.0,740.0 L 743.0,845.0 L 827.0,937.0 L 855.0,952.0 L 977.0,983.0"/>
  </g>
</svg>
