<svg xmlns="http://www.w3.org/2000/svg" viewBox="0 0 1024 1024">
  <g style="fill:none;stroke:#000000;stroke-width:50;stroke-linecap:round;stroke-linejoin:round;" transform="scale(1, 1) translate(0, 0)">
    <path d="M 280.0,234.0 L 302.0,248.0 L 326.0,276.0 L 354.0,405.0 L 375.0,464.0"/>
    <path d="M 322.0,235.0 L 365.0,241.0 L 634.0,196.0 L 683.0,206.0 L 705.0,236.0 L 634.0,426.0 L 636.0,447.0"/>
    <path d="M 403.0,345.0 L 424.0,345.0 L 543.0,317.0 L 592.0,320.0"/>
    <path d="M 390.0,453.0 L 401.0,444.0 L 577.0,416.0 L 604.0,404.0"/>
    <path d="M 98.0,615.0 L 149.0,624.0 L 441.0,578.0 L 844.0,536.0 L 927.0,555.0"/>
    <path d="M 278.0,518.0 L 318.0,548.0 L 352.0,685.0 L 368.0,697.0"/>
    <path d="M 665.0,448.0 L 694.0,492.0 L 657.0,637.0 L 638.0,654.0"/>
    <path d="M 263.0,721.0 L 313.0,731.0 L 688.0,678.0 L 733.0,688.0"/>
    <path d="M 190.0,859.0 L 241.0,869.0 L 394.0,845.0 L 739.0,812.0 L 782.0,815.0 L 831.0,831.0"/>
    <path d="M 458.0,251.0 L 500.0,271.0 L 503.0,304.0 L 499.0,1094.0"/>
  </g>
</svg>
