<svg xmlns="http://www.w3.org/2000/svg" viewBox="0 0 1024 1024">
  <g style="fill:none;stroke:#000000;stroke-width:50;stroke-linecap:round;stroke-linejoin:round;" transform="scale(1, 1) translate(0, 0)">
    <path d="M 338.0,310.0 L 396.0,312.0 L 549.0,285.0 L 622.0,264.0 L 661.0,263.0 L 685.0,283.0 L 693.0,299.0 L 654.0,417.0 L 628.0,433.0"/>
    <path d="M 130.0,440.0 L 168.0,447.0 L 196.0,445.0 L 391.0,408.0 L 804.0,355.0 L 856.0,355.0 L 916.0,368.0"/>
    <path d="M 335.0,505.0 L 367.0,507.0 L 617.0,458.0 L 665.0,456.0 L 683.0,461.0"/>
    <path d="M 348.0,589.0 L 384.0,589.0 L 605.0,548.0 L 629.0,546.0 L 650.0,552.0"/>
    <path d="M 462.0,157.0 L 514.0,202.0 L 505.0,615.0 L 488.0,638.0"/>
    <path d="M 228.0,688.0 L 273.0,695.0 L 447.0,663.0 L 734.0,627.0 L 805.0,642.0"/>
    <path d="M 286.0,759.0 L 317.0,780.0 L 326.0,796.0 L 375.0,949.0"/>
    <path d="M 343.0,759.0 L 360.0,767.0 L 572.0,729.0 L 630.0,723.0 L 659.0,727.0 L 673.0,736.0 L 691.0,761.0 L 642.0,915.0 L 626.0,917.0 L 614.0,907.0"/>
    <path d="M 416.0,841.0 L 467.0,837.0 L 537.0,820.0 L 592.0,823.0"/>
    <path d="M 481.0,761.0 L 502.0,790.0 L 501.0,873.0 L 487.0,893.0"/>
    <path d="M 393.0,937.0 L 406.0,927.0 L 564.0,904.0 L 584.0,906.0 L 592.0,917.0"/>
    <path d="M 167.0,1034.0 L 191.0,1043.0 L 231.0,1046.0 L 403.0,1024.0 L 771.0,1001.0 L 860.0,1024.0"/>
  </g>
</svg>
