<svg xmlns="http://www.w3.org/2000/svg" viewBox="0 0 1024 1024">
  <g style="fill:none;stroke:#000000;stroke-width:50;stroke-linecap:round;stroke-linejoin:round;" transform="scale(1, 1) translate(0, 0)">
    <path d="M 475.0,177.0 L 500.0,222.0 L 443.0,306.0 L 401.0,354.0 L 318.0,434.0 L 263.0,477.0 L 166.0,535.0 L 116.0,556.0"/>
    <path d="M 525.0,270.0 L 525.0,280.0 L 666.0,388.0 L 782.0,457.0 L 952.0,473.0"/>
    <path d="M 372.0,449.0 L 438.0,451.0 L 569.0,419.0 L 608.0,419.0"/>
    <path d="M 314.0,564.0 L 361.0,564.0 L 452.0,544.0 L 599.0,524.0 L 638.0,524.0 L 678.0,534.0"/>
    <path d="M 479.0,468.0 L 501.0,484.0 L 502.0,491.0 L 504.0,607.0 L 492.0,663.0 L 485.0,674.0 L 479.0,673.0 L 395.0,643.0"/>
    <path d="M 312.0,612.0 L 287.0,661.0 L 243.0,721.0"/>
    <path d="M 613.0,589.0 L 718.0,648.0 L 737.0,669.0 L 750.0,698.0"/>
    <path d="M 272.0,777.0 L 298.0,796.0 L 319.0,831.0 L 341.0,985.0 L 358.0,1042.0"/>
    <path d="M 332.0,790.0 L 355.0,800.0 L 533.0,772.0 L 651.0,761.0 L 677.0,764.0 L 692.0,773.0 L 714.0,800.0 L 656.0,1008.0 L 659.0,1030.0"/>
    <path d="M 385.0,905.0 L 552.0,882.0 L 585.0,881.0 L 607.0,888.0"/>
    <path d="M 472.0,799.0 L 499.0,825.0 L 501.0,958.0 L 486.0,979.0"/>
    <path d="M 377.0,1022.0 L 393.0,1013.0 L 604.0,993.0 L 622.0,984.0"/>
  </g>
</svg>
