<svg xmlns="http://www.w3.org/2000/svg" viewBox="0 0 1024 1024">
  <g style="fill:none;stroke:#000000;stroke-width:50;stroke-linecap:round;stroke-linejoin:round;" transform="scale(1, 1) translate(0, 0)">
    <path d="M 81.0,398.0 L 111.0,426.0 L 121.0,454.0 L 143.0,638.0 L 157.0,696.0"/>
    <path d="M 144.0,434.0 L 151.0,419.0 L 173.0,413.0 L 340.0,381.0 L 377.0,388.0 L 392.0,401.0 L 400.0,422.0 L 374.0,583.0 L 353.0,660.0 L 359.0,678.0"/>
    <path d="M 179.0,553.0 L 290.0,532.0 L 332.0,536.0"/>
    <path d="M 234.0,420.0 L 258.0,438.0 L 260.0,459.0 L 258.0,616.0 L 242.0,640.0"/>
    <path d="M 178.0,679.0 L 184.0,673.0 L 310.0,651.0 L 327.0,643.0"/>
    <path d="M 485.0,374.0 L 559.0,378.0 L 741.0,336.0 L 797.0,333.0"/>
    <path d="M 475.0,496.0 L 528.0,500.0 L 709.0,464.0 L 783.0,464.0"/>
    <path d="M 412.0,612.0 L 457.0,618.0 L 603.0,589.0 L 837.0,556.0 L 910.0,570.0"/>
    <path d="M 602.0,186.0 L 617.0,198.0 L 638.0,233.0 L 622.0,355.0 L 580.0,537.0 L 527.0,671.0 L 480.0,749.0 L 425.0,817.0 L 338.0,888.0 L 254.0,933.0"/>
    <path d="M 540.0,730.0 L 587.0,738.0 L 810.0,701.0 L 878.0,707.0"/>
    <path d="M 704.0,618.0 L 749.0,662.0 L 744.0,753.0 L 749.0,868.0 L 746.0,985.0 L 729.0,1020.0 L 691.0,1006.0 L 626.0,963.0"/>
    <path d="M 552.0,806.0 L 598.0,837.0 L 617.0,870.0"/>
  </g>
</svg>
