<svg xmlns="http://www.w3.org/2000/svg" viewBox="0 0 1024 1024">
  <g style="fill:none;stroke:#000000;stroke-width:50;stroke-linecap:round;stroke-linejoin:round;" transform="scale(1, 1) translate(0, 0)">
    <path d="M 60.0,410.0 L 94.0,441.0 L 101.0,459.0 L 116.0,574.0 L 122.0,684.0 L 139.0,752.0"/>
    <path d="M 129.0,451.0 L 140.0,440.0 L 160.0,434.0 L 303.0,404.0 L 334.0,404.0 L 365.0,425.0 L 370.0,441.0 L 361.0,484.0 L 353.0,605.0 L 342.0,679.0 L 332.0,707.0 L 338.0,726.0"/>
    <path d="M 156.0,581.0 L 267.0,553.0 L 305.0,556.0"/>
    <path d="M 211.0,442.0 L 234.0,462.0 L 238.0,527.0 L 236.0,669.0 L 222.0,683.0"/>
    <path d="M 162.0,718.0 L 167.0,722.0 L 288.0,696.0 L 304.0,687.0"/>
    <path d="M 485.0,351.0 L 554.0,354.0 L 737.0,309.0 L 783.0,309.0"/>
    <path d="M 603.0,192.0 L 631.0,212.0 L 639.0,228.0 L 630.0,328.0 L 616.0,381.0 L 594.0,431.0 L 564.0,471.0 L 523.0,509.0 L 480.0,535.0"/>
    <path d="M 637.0,402.0 L 727.0,452.0 L 756.0,493.0"/>
    <path d="M 397.0,600.0 L 450.0,606.0 L 613.0,573.0 L 858.0,540.0 L 937.0,555.0"/>
    <path d="M 437.0,680.0 L 460.0,702.0 L 467.0,720.0 L 492.0,859.0"/>
    <path d="M 486.0,684.0 L 497.0,690.0 L 585.0,669.0 L 606.0,674.0 L 624.0,693.0 L 606.0,760.0 L 585.0,778.0"/>
    <path d="M 511.0,827.0 L 528.0,816.0 L 585.0,803.0 L 624.0,801.0 L 644.0,808.0"/>
    <path d="M 713.0,586.0 L 750.0,608.0 L 757.0,626.0 L 759.0,942.0 L 754.0,973.0 L 732.0,1017.0 L 686.0,1004.0 L 620.0,970.0"/>
  </g>
</svg>
