<svg xmlns="http://www.w3.org/2000/svg" viewBox="0 0 1024 1024">
  <g style="fill:none;stroke:#000000;stroke-width:50;stroke-linecap:round;stroke-linejoin:round;" transform="scale(1, 1) translate(0, 0)">
    <path d="M 89.0,386.0 L 109.0,405.0 L 120.0,430.0 L 161.0,650.0"/>
    <path d="M 133.0,387.0 L 147.0,397.0 L 324.0,355.0 L 353.0,358.0 L 381.0,380.0 L 384.0,394.0 L 362.0,519.0 L 337.0,606.0 L 343.0,626.0"/>
    <path d="M 185.0,505.0 L 218.0,507.0 L 289.0,485.0 L 313.0,485.0"/>
    <path d="M 219.0,397.0 L 245.0,418.0 L 247.0,435.0 L 244.0,573.0 L 230.0,590.0"/>
    <path d="M 178.0,633.0 L 196.0,621.0 L 284.0,602.0 L 296.0,613.0"/>
    <path d="M 499.0,278.0 L 578.0,276.0 L 713.0,237.0 L 759.0,235.0"/>
    <path d="M 592.0,153.0 L 627.0,185.0 L 625.0,322.0 L 611.0,347.0"/>
    <path d="M 531.0,376.0 L 568.0,377.0 L 692.0,348.0 L 737.0,350.0"/>
    <path d="M 435.0,475.0 L 443.0,480.0 L 476.0,479.0 L 584.0,448.0 L 795.0,404.0 L 836.0,412.0 L 852.0,435.0 L 788.0,499.0"/>
    <path d="M 515.0,537.0 L 558.0,539.0 L 670.0,509.0 L 704.0,508.0"/>
    <path d="M 623.0,546.0 L 592.0,597.0"/>
    <path d="M 479.0,641.0 L 508.0,640.0 L 700.0,593.0 L 726.0,591.0 L 765.0,599.0"/>
    <path d="M 282.0,748.0 L 329.0,754.0 L 525.0,714.0 L 861.0,668.0 L 916.0,668.0 L 965.0,680.0"/>
    <path d="M 369.0,813.0 L 397.0,838.0 L 428.0,940.0"/>
    <path d="M 404.0,808.0 L 416.0,816.0 L 503.0,793.0 L 516.0,797.0 L 535.0,815.0 L 524.0,859.0 L 505.0,873.0"/>
    <path d="M 439.0,902.0 L 446.0,907.0 L 503.0,893.0 L 546.0,896.0"/>
    <path d="M 627.0,821.0 L 840.0,786.0 L 900.0,795.0"/>
    <path d="M 708.0,712.0 L 737.0,728.0 L 752.0,752.0 L 747.0,993.0 L 742.0,1011.0 L 726.0,1039.0 L 720.0,1038.0 L 623.0,990.0"/>
    <path d="M 595.0,881.0 L 651.0,920.0 L 666.0,945.0"/>
  </g>
</svg>
