<svg xmlns="http://www.w3.org/2000/svg" viewBox="0 0 1024 1024">
  <g style="fill:none;stroke:#000000;stroke-width:50;stroke-linecap:round;stroke-linejoin:round;" transform="scale(1, 1) translate(0, 0)">
    <path d="M 56.0,442.0 L 83.0,466.0 L 99.0,494.0 L 122.0,731.0 L 141.0,803.0"/>
    <path d="M 120.0,461.0 L 143.0,468.0 L 270.0,441.0 L 327.0,435.0 L 348.0,439.0 L 374.0,465.0 L 349.0,674.0 L 332.0,742.0 L 338.0,761.0"/>
    <path d="M 152.0,613.0 L 280.0,585.0 L 316.0,587.0"/>
    <path d="M 215.0,474.0 L 235.0,490.0 L 237.0,558.0 L 234.0,692.0 L 229.0,708.0 L 218.0,718.0"/>
    <path d="M 156.0,762.0 L 166.0,752.0 L 299.0,725.0"/>
    <path d="M 578.0,185.0 L 643.0,219.0 L 667.0,250.0"/>
    <path d="M 497.0,327.0 L 548.0,333.0 L 754.0,292.0 L 796.0,292.0"/>
    <path d="M 520.0,387.0 L 567.0,440.0"/>
    <path d="M 695.0,332.0 L 711.0,344.0 L 718.0,369.0 L 678.0,447.0 L 663.0,460.0"/>
    <path d="M 401.0,514.0 L 441.0,519.0 L 637.0,483.0 L 837.0,456.0 L 875.0,457.0 L 922.0,470.0"/>
    <path d="M 444.0,587.0 L 466.0,605.0 L 477.0,625.0 L 516.0,798.0"/>
    <path d="M 486.0,589.0 L 508.0,598.0 L 733.0,552.0 L 769.0,552.0 L 795.0,562.0 L 814.0,587.0 L 757.0,761.0 L 760.0,781.0"/>
    <path d="M 544.0,689.0 L 678.0,658.0 L 717.0,661.0"/>
    <path d="M 532.0,785.0 L 542.0,776.0 L 728.0,742.0"/>
    <path d="M 598.0,596.0 L 628.0,615.0 L 629.0,622.0 L 625.0,942.0 L 610.0,963.0"/>
    <path d="M 501.0,879.0 L 542.0,886.0 L 573.0,884.0 L 705.0,855.0 L 755.0,857.0"/>
    <path d="M 374.0,1004.0 L 424.0,1013.0 L 541.0,996.0 L 822.0,970.0 L 861.0,973.0 L 907.0,989.0"/>
  </g>
</svg>
