<svg xmlns="http://www.w3.org/2000/svg" viewBox="0 0 1024 1024">
  <g style="fill:none;stroke:#000000;stroke-width:50;stroke-linecap:round;stroke-linejoin:round;" transform="scale(1, 1) translate(0, 0)">
    <path d="M 318.0,345.0 L 340.0,351.0 L 392.0,350.0 L 606.0,305.0 L 668.0,302.0"/>
    <path d="M 293.0,471.0 L 361.0,471.0 L 512.0,437.0 L 607.0,408.0 L 648.0,408.0 L 689.0,444.0 L 639.0,593.0 L 612.0,607.0"/>
    <path d="M 157.0,603.0 L 217.0,609.0 L 418.0,567.0 L 788.0,510.0 L 826.0,508.0 L 902.0,523.0"/>
    <path d="M 302.0,686.0 L 333.0,690.0 L 594.0,640.0 L 665.0,647.0"/>
    <path d="M 452.0,200.0 L 478.0,217.0 L 502.0,246.0 L 486.0,873.0 L 489.0,889.0 L 507.0,916.0"/>
    <path d="M 520.0,808.0 L 534.0,792.0 L 611.0,773.0 L 658.0,767.0 L 690.0,774.0"/>
    <path d="M 297.0,747.0 L 324.0,785.0 L 280.0,879.0 L 259.0,913.0 L 207.0,972.0 L 139.0,1026.0"/>
    <path d="M 317.0,869.0 L 342.0,862.0 L 372.0,871.0 L 441.0,906.0 L 561.0,980.0 L 727.0,1053.0 L 820.0,1054.0 L 950.0,1036.0"/>
  </g>
</svg>
