<svg xmlns="http://www.w3.org/2000/svg" viewBox="0 0 1024 1024">
  <g style="fill:none;stroke:#000000;stroke-width:50;stroke-linecap:round;stroke-linejoin:round;" transform="scale(1, 1) translate(0, 0)">
    <path d="M 478.0,185.0 L 573.0,234.0 L 603.0,273.0"/>
    <path d="M 370.0,398.0 L 399.0,407.0 L 461.0,406.0 L 737.0,349.0 L 803.0,347.0"/>
    <path d="M 294.0,370.0 L 329.0,410.0 L 332.0,427.0 L 318.0,543.0 L 286.0,702.0 L 238.0,836.0 L 190.0,929.0 L 131.0,1011.0 L 97.0,1046.0"/>
    <path d="M 147.0,459.0 L 196.0,517.0 L 211.0,555.0"/>
    <path d="M 62.0,770.0 L 114.0,776.0 L 240.0,709.0 L 250.0,698.0"/>
    <path d="M 562.0,479.0 L 609.0,522.0 L 601.0,781.0 L 598.0,802.0 L 581.0,822.0"/>
    <path d="M 378.0,682.0 L 400.0,705.0 L 413.0,738.0 L 401.0,888.0 L 440.0,889.0 L 527.0,862.0 L 718.0,819.0 L 770.0,815.0 L 784.0,829.0"/>
    <path d="M 770.0,631.0 L 812.0,672.0 L 820.0,941.0"/>
  </g>
</svg>
