<svg xmlns="http://www.w3.org/2000/svg" viewBox="0 0 1024 1024">
  <g style="fill:none;stroke:#000000;stroke-width:50;stroke-linecap:round;stroke-linejoin:round;" transform="scale(1, 1) translate(0, 0)">
    <path d="M 485.0,188.0 L 575.0,241.0 L 604.0,280.0"/>
    <path d="M 365.0,377.0 L 401.0,388.0 L 461.0,384.0 L 750.0,326.0 L 807.0,326.0"/>
    <path d="M 295.0,355.0 L 321.0,376.0 L 334.0,402.0 L 319.0,561.0 L 297.0,687.0 L 257.0,809.0 L 212.0,905.0 L 167.0,973.0 L 125.0,1021.0"/>
    <path d="M 159.0,463.0 L 215.0,536.0 L 225.0,567.0"/>
    <path d="M 76.0,745.0 L 129.0,751.0 L 259.0,673.0 L 265.0,663.0"/>
    <path d="M 524.0,446.0 L 549.0,480.0 L 543.0,505.0 L 467.0,622.0 L 403.0,695.0 L 356.0,736.0"/>
    <path d="M 513.0,602.0 L 638.0,568.0 L 684.0,572.0 L 696.0,587.0 L 629.0,728.0 L 578.0,803.0 L 534.0,853.0 L 476.0,904.0 L 411.0,950.0 L 352.0,980.0 L 288.0,997.0"/>
    <path d="M 631.0,781.0 L 631.0,793.0 L 687.0,858.0 L 761.0,936.0 L 810.0,978.0 L 839.0,989.0 L 965.0,1012.0"/>
  </g>
</svg>
