<svg xmlns="http://www.w3.org/2000/svg" viewBox="0 0 1024 1024">
  <g style="fill:none;stroke:#000000;stroke-width:50;stroke-linecap:round;stroke-linejoin:round;" transform="scale(1, 1) translate(0, 0)">
    <path d="M 499.0,186.0 L 589.0,243.0 L 608.0,276.0"/>
    <path d="M 354.0,385.0 L 379.0,398.0 L 470.0,392.0 L 738.0,339.0 L 797.0,339.0"/>
    <path d="M 288.0,369.0 L 322.0,401.0 L 327.0,420.0 L 321.0,549.0 L 298.0,697.0 L 264.0,815.0 L 222.0,910.0 L 178.0,980.0 L 140.0,1025.0"/>
    <path d="M 135.0,443.0 L 196.0,495.0 L 217.0,536.0"/>
    <path d="M 66.0,725.0 L 118.0,733.0 L 231.0,672.0 L 261.0,662.0 L 270.0,649.0"/>
    <path d="M 377.0,575.0 L 437.0,581.0 L 618.0,547.0 L 777.0,527.0 L 826.0,532.0 L 860.0,543.0"/>
    <path d="M 577.0,581.0 L 606.0,600.0 L 616.0,614.0 L 618.0,913.0 L 612.0,961.0 L 589.0,1001.0 L 547.0,986.0 L 484.0,946.0"/>
  </g>
</svg>
