<svg xmlns="http://www.w3.org/2000/svg" viewBox="0 0 1024 1024">
  <g style="fill:none;stroke:#000000;stroke-width:50;stroke-linecap:round;stroke-linejoin:round;" transform="scale(1, 1) translate(0, 0)">
    <path d="M 515.0,181.0 L 599.0,226.0 L 629.0,264.0"/>
    <path d="M 382.0,382.0 L 403.0,396.0 L 492.0,392.0 L 731.0,345.0 L 795.0,346.0"/>
    <path d="M 308.0,359.0 L 334.0,381.0 L 345.0,410.0 L 330.0,558.0 L 294.0,726.0 L 248.0,848.0 L 206.0,926.0 L 161.0,994.0 L 117.0,1042.0"/>
    <path d="M 151.0,425.0 L 216.0,484.0 L 234.0,514.0"/>
    <path d="M 72.0,786.0 L 131.0,786.0 L 258.0,682.0 L 284.0,642.0"/>
    <path d="M 499.0,573.0 L 520.0,582.0 L 545.0,581.0 L 695.0,552.0 L 759.0,549.0"/>
    <path d="M 438.0,554.0 L 466.0,579.0 L 477.0,604.0 L 473.0,749.0 L 457.0,887.0 L 460.0,920.0 L 492.0,920.0 L 652.0,889.0 L 734.0,884.0 L 777.0,888.0 L 816.0,904.0"/>
    <path d="M 369.0,744.0 L 422.0,750.0 L 586.0,720.0 L 803.0,695.0 L 842.0,699.0 L 877.0,712.0"/>
  </g>
</svg>
