<svg xmlns="http://www.w3.org/2000/svg" viewBox="0 0 1024 1024">
  <g style="fill:none;stroke:#000000;stroke-width:50;stroke-linecap:round;stroke-linejoin:round;" transform="scale(1, 1) translate(0, 0)">
    <path d="M 470.0,195.0 L 556.0,237.0 L 590.0,273.0"/>
    <path d="M 354.0,365.0 L 376.0,378.0 L 433.0,376.0 L 741.0,325.0 L 793.0,324.0"/>
    <path d="M 280.0,344.0 L 306.0,366.0 L 318.0,393.0 L 305.0,557.0 L 282.0,682.0 L 258.0,763.0 L 209.0,875.0 L 152.0,963.0 L 121.0,998.0"/>
    <path d="M 150.0,444.0 L 209.0,506.0 L 220.0,528.0"/>
    <path d="M 56.0,739.0 L 106.0,743.0 L 243.0,662.0 L 253.0,648.0"/>
    <path d="M 531.0,387.0 L 560.0,410.0 L 568.0,426.0 L 520.0,514.0 L 476.0,581.0 L 391.0,689.0 L 315.0,759.0"/>
    <path d="M 588.0,472.0 L 595.0,491.0 L 672.0,566.0 L 795.0,664.0 L 949.0,684.0"/>
    <path d="M 474.0,716.0 L 482.0,701.0 L 497.0,695.0 L 605.0,673.0 L 637.0,677.0 L 656.0,695.0 L 638.0,800.0 L 616.0,842.0 L 606.0,850.0 L 525.0,818.0"/>
    <path d="M 417.0,689.0 L 437.0,702.0 L 444.0,730.0 L 431.0,843.0 L 441.0,936.0 L 455.0,963.0 L 499.0,989.0 L 562.0,1004.0 L 626.0,1008.0 L 700.0,999.0 L 755.0,979.0 L 791.0,950.0 L 781.0,828.0"/>
  </g>
</svg>
