<svg xmlns="http://www.w3.org/2000/svg" viewBox="0 0 1024 1024">
  <g style="fill:none;stroke:#000000;stroke-width:50;stroke-linecap:round;stroke-linejoin:round;" transform="scale(1, 1) translate(0, 0)">
    <path d="M 486.0,183.0 L 559.0,221.0 L 591.0,258.0"/>
    <path d="M 332.0,360.0 L 352.0,370.0 L 416.0,367.0 L 681.0,311.0 L 748.0,306.0"/>
    <path d="M 263.0,345.0 L 301.0,380.0 L 306.0,434.0 L 301.0,630.0 L 279.0,752.0 L 265.0,795.0 L 220.0,884.0 L 180.0,937.0 L 132.0,982.0 L 94.0,1008.0"/>
    <path d="M 136.0,506.0 L 197.0,556.0 L 212.0,587.0"/>
    <path d="M 69.0,788.0 L 125.0,783.0 L 254.0,670.0 L 266.0,652.0"/>
    <path d="M 392.0,472.0 L 424.0,505.0 L 421.0,650.0 L 414.0,710.0 L 396.0,797.0 L 360.0,901.0 L 314.0,983.0 L 291.0,1011.0"/>
    <path d="M 454.0,516.0 L 470.0,501.0 L 656.0,459.0 L 719.0,437.0 L 748.0,442.0 L 772.0,467.0 L 754.0,537.0 L 745.0,671.0 L 758.0,818.0 L 788.0,915.0 L 814.0,956.0 L 844.0,986.0 L 886.0,999.0 L 891.0,991.0 L 909.0,942.0 L 929.0,842.0"/>
    <path d="M 610.0,590.0 L 634.0,630.0 L 599.0,742.0 L 572.0,800.0 L 546.0,834.0 L 503.0,873.0 L 462.0,895.0 L 437.0,900.0"/>
    <path d="M 482.0,663.0 L 648.0,823.0 L 675.0,858.0 L 691.0,902.0"/>
  </g>
</svg>
