<svg xmlns="http://www.w3.org/2000/svg" viewBox="0 0 1024 1024">
  <g style="fill:none;stroke:#000000;stroke-width:50;stroke-linecap:round;stroke-linejoin:round;" transform="scale(1, 1) translate(0, 0)">
    <path d="M 482.0,173.0 L 585.0,225.0 L 614.0,263.0"/>
    <path d="M 396.0,401.0 L 419.0,382.0 L 530.0,366.0 L 746.0,311.0 L 801.0,312.0"/>
    <path d="M 319.0,344.0 L 355.0,384.0 L 357.0,403.0 L 342.0,561.0 L 317.0,682.0 L 285.0,780.0 L 252.0,856.0 L 212.0,928.0 L 152.0,1008.0 L 132.0,1026.0"/>
    <path d="M 151.0,424.0 L 223.0,473.0 L 255.0,521.0"/>
    <path d="M 78.0,749.0 L 138.0,748.0 L 278.0,642.0 L 293.0,621.0"/>
    <path d="M 456.0,518.0 L 474.0,534.0 L 487.0,560.0 L 480.0,618.0 L 449.0,754.0 L 413.0,838.0 L 374.0,897.0 L 343.0,930.0"/>
    <path d="M 479.0,748.0 L 488.0,764.0 L 539.0,810.0 L 555.0,849.0"/>
    <path d="M 646.0,459.0 L 671.0,472.0 L 701.0,507.0 L 682.0,669.0 L 656.0,788.0 L 630.0,858.0 L 581.0,940.0 L 512.0,1005.0 L 472.0,1030.0 L 458.0,1032.0"/>
    <path d="M 696.0,732.0 L 703.0,765.0 L 739.0,829.0 L 825.0,952.0 L 858.0,986.0 L 966.0,1019.0"/>
  </g>
</svg>
