<svg xmlns="http://www.w3.org/2000/svg" viewBox="0 0 1024 1024">
  <g style="fill:none;stroke:#000000;stroke-width:50;stroke-linecap:round;stroke-linejoin:round;" transform="scale(1, 1) translate(0, 0)">
    <path d="M 482.0,199.0 L 580.0,244.0 L 609.0,278.0"/>
    <path d="M 367.0,377.0 L 385.0,390.0 L 467.0,388.0 L 738.0,338.0 L 789.0,339.0"/>
    <path d="M 292.0,352.0 L 324.0,381.0 L 331.0,402.0 L 322.0,540.0 L 295.0,698.0 L 268.0,785.0 L 229.0,874.0 L 171.0,968.0 L 141.0,1001.0"/>
    <path d="M 152.0,431.0 L 224.0,488.0 L 238.0,523.0"/>
    <path d="M 72.0,721.0 L 125.0,727.0 L 261.0,650.0 L 271.0,637.0"/>
    <path d="M 485.0,507.0 L 502.0,519.0 L 515.0,520.0 L 713.0,481.0 L 748.0,478.0 L 786.0,484.0"/>
    <path d="M 428.0,490.0 L 450.0,515.0 L 456.0,548.0 L 447.0,641.0 L 429.0,733.0 L 408.0,801.0 L 371.0,881.0 L 340.0,931.0 L 301.0,974.0"/>
    <path d="M 477.0,705.0 L 520.0,714.0 L 744.0,665.0 L 773.0,670.0 L 789.0,687.0 L 763.0,853.0 L 747.0,908.0 L 720.0,959.0 L 691.0,981.0 L 661.0,969.0 L 608.0,934.0"/>
    <path d="M 592.0,586.0 L 612.0,600.0 L 626.0,621.0 L 615.0,710.0 L 591.0,802.0 L 565.0,854.0 L 523.0,908.0 L 471.0,953.0 L 413.0,984.0"/>
  </g>
</svg>
