<svg xmlns="http://www.w3.org/2000/svg" viewBox="0 0 1024 1024">
  <g style="fill:none;stroke:#000000;stroke-width:50;stroke-linecap:round;stroke-linejoin:round;" transform="scale(1, 1) translate(0, 0)">
    <path d="M 486.0,219.0 L 572.0,261.0 L 606.0,297.0"/>
    <path d="M 374.0,391.0 L 397.0,400.0 L 471.0,397.0 L 769.0,341.0 L 815.0,341.0"/>
    <path d="M 294.0,366.0 L 327.0,395.0 L 335.0,412.0 L 327.0,579.0 L 304.0,718.0 L 281.0,803.0 L 246.0,890.0 L 195.0,979.0 L 148.0,1037.0"/>
    <path d="M 143.0,497.0 L 213.0,547.0 L 233.0,576.0"/>
    <path d="M 65.0,810.0 L 124.0,807.0 L 260.0,700.0 L 275.0,680.0"/>
    <path d="M 541.0,451.0 L 614.0,493.0 L 635.0,523.0"/>
    <path d="M 425.0,610.0 L 456.0,617.0 L 518.0,613.0 L 730.0,569.0 L 795.0,564.0"/>
    <path d="M 443.0,781.0 L 485.0,789.0 L 693.0,746.0 L 739.0,742.0 L 770.0,748.0"/>
    <path d="M 569.0,629.0 L 606.0,662.0 L 603.0,909.0 L 585.0,931.0"/>
    <path d="M 350.0,975.0 L 401.0,985.0 L 672.0,949.0 L 799.0,939.0 L 887.0,959.0"/>
  </g>
</svg>
