<svg xmlns="http://www.w3.org/2000/svg" viewBox="0 0 1024 1024">
  <g style="fill:none;stroke:#000000;stroke-width:50;stroke-linecap:round;stroke-linejoin:round;" transform="scale(1, 1) translate(0, 0)">
    <path d="M 487.0,177.0 L 571.0,222.0 L 601.0,260.0"/>
    <path d="M 350.0,387.0 L 367.0,396.0 L 428.0,395.0 L 553.0,375.0 L 750.0,332.0 L 795.0,334.0"/>
    <path d="M 275.0,359.0 L 314.0,400.0 L 302.0,548.0 L 278.0,690.0 L 249.0,785.0 L 204.0,888.0 L 160.0,961.0 L 109.0,1021.0"/>
    <path d="M 132.0,450.0 L 186.0,502.0 L 199.0,530.0"/>
    <path d="M 65.0,764.0 L 116.0,763.0 L 234.0,679.0 L 249.0,662.0"/>
    <path d="M 345.0,644.0 L 379.0,651.0 L 437.0,646.0 L 595.0,618.0 L 833.0,592.0 L 868.0,593.0 L 923.0,608.0"/>
    <path d="M 439.0,508.0 L 478.0,549.0 L 474.0,820.0 L 467.0,908.0 L 470.0,973.0"/>
    <path d="M 664.0,431.0 L 689.0,446.0 L 710.0,473.0 L 705.0,622.0 L 714.0,903.0 L 696.0,955.0 L 693.0,1033.0"/>
    <path d="M 507.0,780.0 L 515.0,768.0 L 643.0,759.0"/>
    <path d="M 497.0,945.0 L 509.0,934.0 L 530.0,928.0 L 591.0,919.0 L 659.0,919.0"/>
  </g>
</svg>
