<svg xmlns="http://www.w3.org/2000/svg" viewBox="0 0 1024 1024">
  <g style="fill:none;stroke:#000000;stroke-width:50;stroke-linecap:round;stroke-linejoin:round;" transform="scale(1, 1) translate(0, 0)">
    <path d="M 482.0,195.0 L 554.0,250.0 L 579.0,288.0"/>
    <path d="M 351.0,388.0 L 370.0,401.0 L 433.0,399.0 L 721.0,349.0 L 775.0,350.0"/>
    <path d="M 280.0,367.0 L 314.0,403.0 L 317.0,430.0 L 301.0,579.0 L 272.0,718.0 L 244.0,802.0 L 194.0,906.0 L 131.0,998.0 L 101.0,1030.0"/>
    <path d="M 126.0,462.0 L 186.0,520.0 L 202.0,551.0"/>
    <path d="M 56.0,749.0 L 81.0,754.0 L 115.0,750.0 L 242.0,672.0 L 250.0,660.0"/>
    <path d="M 327.0,663.0 L 381.0,668.0 L 552.0,629.0 L 569.0,635.0 L 582.0,648.0 L 565.0,803.0 L 552.0,863.0 L 534.0,910.0 L 517.0,932.0 L 498.0,944.0 L 466.0,928.0 L 426.0,897.0"/>
    <path d="M 437.0,479.0 L 466.0,519.0 L 439.0,670.0 L 415.0,750.0 L 345.0,893.0 L 265.0,985.0"/>
    <path d="M 656.0,634.0 L 675.0,653.0 L 687.0,695.0 L 705.0,895.0"/>
    <path d="M 694.0,638.0 L 716.0,645.0 L 830.0,619.0 L 852.0,623.0 L 873.0,645.0 L 844.0,765.0 L 820.0,782.0"/>
    <path d="M 728.0,839.0 L 741.0,824.0 L 810.0,811.0 L 864.0,810.0 L 884.0,817.0"/>
  </g>
</svg>
