<svg xmlns="http://www.w3.org/2000/svg" viewBox="0 0 1024 1024">
  <g style="fill:none;stroke:#000000;stroke-width:50;stroke-linecap:round;stroke-linejoin:round;" transform="scale(1, 1) translate(0, 0)">
    <path d="M 490.0,193.0 L 584.0,247.0 L 612.0,288.0"/>
    <path d="M 372.0,400.0 L 389.0,413.0 L 454.0,408.0 L 728.0,349.0 L 772.0,343.0 L 796.0,346.0"/>
    <path d="M 294.0,376.0 L 326.0,405.0 L 334.0,430.0 L 319.0,582.0 L 296.0,710.0 L 263.0,813.0 L 224.0,897.0 L 179.0,968.0 L 137.0,1017.0"/>
    <path d="M 159.0,458.0 L 212.0,510.0 L 231.0,545.0"/>
    <path d="M 68.0,761.0 L 121.0,767.0 L 260.0,686.0 L 267.0,676.0"/>
    <path d="M 509.0,460.0 L 524.0,476.0 L 533.0,498.0 L 515.0,538.0 L 477.0,595.0 L 444.0,630.0 L 410.0,654.0"/>
    <path d="M 517.0,583.0 L 638.0,563.0 L 729.0,540.0 L 765.0,541.0"/>
    <path d="M 364.0,776.0 L 415.0,781.0 L 646.0,736.0 L 810.0,712.0 L 884.0,726.0"/>
    <path d="M 557.0,597.0 L 597.0,629.0 L 596.0,665.0 L 580.0,764.0 L 540.0,865.0 L 504.0,915.0 L 473.0,946.0 L 418.0,982.0 L 366.0,1004.0 L 339.0,1009.0"/>
    <path d="M 608.0,770.0 L 612.0,785.0 L 652.0,833.0 L 737.0,924.0 L 798.0,979.0 L 848.0,995.0 L 957.0,1012.0"/>
  </g>
</svg>
