<svg xmlns="http://www.w3.org/2000/svg" viewBox="0 0 1024 1024">
  <g style="fill:none;stroke:#000000;stroke-width:50;stroke-linecap:round;stroke-linejoin:round;" transform="scale(1, 1) translate(0, 0)">
    <path d="M 501.0,187.0 L 589.0,230.0 L 618.0,265.0"/>
    <path d="M 374.0,363.0 L 390.0,372.0 L 454.0,373.0 L 721.0,327.0 L 787.0,326.0"/>
    <path d="M 298.0,343.0 L 327.0,366.0 L 339.0,386.0 L 329.0,584.0 L 302.0,722.0 L 257.0,831.0 L 223.0,886.0 L 146.0,970.0 L 82.0,1011.0"/>
    <path d="M 148.0,447.0 L 201.0,495.0 L 227.0,533.0"/>
    <path d="M 64.0,753.0 L 117.0,759.0 L 242.0,683.0 L 254.0,681.0 L 262.0,670.0 L 277.0,664.0 L 280.0,650.0 L 293.0,650.0"/>
    <path d="M 420.0,479.0 L 486.0,480.0 L 633.0,449.0 L 663.0,453.0 L 677.0,463.0 L 658.0,502.0 L 573.0,601.0 L 494.0,665.0 L 394.0,721.0"/>
    <path d="M 612.0,601.0 L 631.0,600.0 L 731.0,645.0 L 772.0,674.0 L 798.0,709.0"/>
    <path d="M 415.0,757.0 L 437.0,764.0 L 487.0,766.0 L 673.0,733.0 L 727.0,733.0"/>
    <path d="M 548.0,780.0 L 573.0,806.0 L 575.0,825.0 L 564.0,926.0 L 546.0,938.0"/>
    <path d="M 294.0,983.0 L 353.0,994.0 L 519.0,972.0 L 791.0,952.0 L 813.0,952.0 L 883.0,974.0"/>
  </g>
</svg>
