<svg xmlns="http://www.w3.org/2000/svg" viewBox="0 0 1024 1024">
  <g style="fill:none;stroke:#000000;stroke-width:50;stroke-linecap:round;stroke-linejoin:round;" transform="scale(1, 1) translate(0, 0)">
    <path d="M 517.0,164.0 L 586.0,209.0 L 606.0,235.0"/>
    <path d="M 372.0,326.0 L 397.0,341.0 L 442.0,338.0 L 719.0,291.0 L 769.0,291.0"/>
    <path d="M 301.0,310.0 L 338.0,349.0 L 338.0,452.0 L 320.0,616.0 L 286.0,745.0 L 256.0,813.0 L 199.0,903.0 L 131.0,970.0 L 65.0,1014.0"/>
    <path d="M 152.0,431.0 L 224.0,493.0 L 238.0,529.0"/>
    <path d="M 71.0,732.0 L 127.0,736.0 L 265.0,651.0 L 283.0,631.0"/>
    <path d="M 415.0,480.0 L 481.0,483.0 L 693.0,442.0 L 751.0,444.0"/>
    <path d="M 419.0,580.0 L 459.0,583.0 L 540.0,571.0 L 695.0,536.0 L 715.0,544.0 L 733.0,568.0 L 715.0,602.0 L 692.0,612.0"/>
    <path d="M 443.0,677.0 L 455.0,684.0 L 683.0,644.0 L 738.0,651.0"/>
    <path d="M 394.0,657.0 L 411.0,675.0 L 418.0,697.0 L 398.0,785.0 L 429.0,788.0 L 614.0,749.0 L 761.0,728.0 L 803.0,734.0 L 823.0,756.0 L 828.0,766.0 L 807.0,817.0 L 791.0,852.0 L 772.0,876.0 L 761.0,883.0 L 684.0,845.0"/>
    <path d="M 523.0,374.0 L 569.0,416.0 L 544.0,749.0 L 524.0,857.0 L 492.0,923.0 L 434.0,980.0 L 377.0,1013.0 L 264.0,1046.0"/>
    <path d="M 559.0,817.0 L 567.0,837.0 L 633.0,905.0 L 703.0,970.0 L 776.0,1026.0 L 826.0,1043.0 L 964.0,1068.0"/>
  </g>
</svg>
