<svg xmlns="http://www.w3.org/2000/svg" viewBox="0 0 1024 1024">
  <g style="fill:none;stroke:#000000;stroke-width:50;stroke-linecap:round;stroke-linejoin:round;" transform="scale(1, 1) translate(0, 0)">
    <path d="M 498.0,207.0 L 584.0,249.0 L 618.0,285.0"/>
    <path d="M 371.0,377.0 L 392.0,388.0 L 449.0,386.0 L 557.0,371.0 L 738.0,333.0 L 795.0,333.0"/>
    <path d="M 299.0,356.0 L 323.0,376.0 L 339.0,404.0 L 332.0,519.0 L 308.0,681.0 L 272.0,804.0 L 232.0,893.0 L 178.0,980.0 L 145.0,1017.0"/>
    <path d="M 143.0,497.0 L 213.0,547.0 L 233.0,576.0"/>
    <path d="M 63.0,779.0 L 119.0,779.0 L 260.0,674.0 L 277.0,653.0"/>
    <path d="M 421.0,522.0 L 452.0,529.0 L 495.0,528.0 L 721.0,485.0 L 787.0,480.0"/>
    <path d="M 482.0,556.0 L 511.0,573.0 L 518.0,593.0 L 518.0,901.0 L 515.0,929.0 L 502.0,936.0"/>
    <path d="M 626.0,536.0 L 655.0,553.0 L 660.0,573.0 L 650.0,905.0 L 633.0,921.0"/>
    <path d="M 375.0,702.0 L 429.0,759.0 L 446.0,802.0"/>
    <path d="M 790.0,617.0 L 803.0,629.0 L 814.0,654.0 L 786.0,687.0 L 691.0,768.0 L 679.0,785.0"/>
    <path d="M 327.0,975.0 L 385.0,985.0 L 574.0,959.0 L 814.0,941.0 L 898.0,962.0"/>
  </g>
</svg>
