<svg xmlns="http://www.w3.org/2000/svg" viewBox="0 0 1024 1024">
  <g style="fill:none;stroke:#000000;stroke-width:50;stroke-linecap:round;stroke-linejoin:round;" transform="scale(1, 1) translate(0, 0)">
    <path d="M 488.0,160.0 L 552.0,207.0 L 568.0,232.0"/>
    <path d="M 364.0,321.0 L 383.0,333.0 L 476.0,325.0 L 702.0,277.0 L 759.0,276.0"/>
    <path d="M 287.0,305.0 L 328.0,342.0 L 331.0,363.0 L 328.0,539.0 L 303.0,714.0 L 277.0,792.0 L 232.0,874.0 L 151.0,968.0 L 85.0,1014.0"/>
    <path d="M 152.0,429.0 L 219.0,495.0 L 228.0,532.0"/>
    <path d="M 68.0,742.0 L 121.0,746.0 L 274.0,654.0 L 281.0,643.0"/>
    <path d="M 478.0,434.0 L 493.0,444.0 L 635.0,410.0 L 668.0,414.0 L 686.0,429.0 L 696.0,441.0 L 651.0,626.0 L 655.0,644.0"/>
    <path d="M 483.0,553.0 L 494.0,543.0 L 546.0,529.0 L 586.0,524.0 L 605.0,528.0"/>
    <path d="M 492.0,631.0 L 501.0,639.0 L 621.0,610.0"/>
    <path d="M 413.0,423.0 L 450.0,468.0 L 456.0,566.0 L 454.0,738.0 L 438.0,954.0 L 493.0,943.0 L 593.0,890.0"/>
    <path d="M 732.0,623.0 L 749.0,658.0 L 655.0,745.0 L 640.0,757.0 L 628.0,756.0"/>
    <path d="M 481.0,639.0 L 498.0,675.0 L 611.0,781.0 L 707.0,857.0 L 772.0,900.0 L 833.0,917.0 L 959.0,931.0"/>
  </g>
</svg>
