<svg xmlns="http://www.w3.org/2000/svg" viewBox="0 0 1024 1024">
  <g style="fill:none;stroke:#000000;stroke-width:50;stroke-linecap:round;stroke-linejoin:round;" transform="scale(1, 1) translate(0, 0)">
    <path d="M 497.0,182.0 L 576.0,219.0 L 612.0,258.0"/>
    <path d="M 375.0,352.0 L 397.0,362.0 L 454.0,358.0 L 730.0,305.0 L 773.0,305.0"/>
    <path d="M 296.0,324.0 L 334.0,362.0 L 335.0,376.0 L 314.0,571.0 L 295.0,668.0 L 261.0,777.0 L 229.0,848.0 L 185.0,926.0 L 121.0,1006.0"/>
    <path d="M 127.0,441.0 L 187.0,484.0 L 211.0,514.0"/>
    <path d="M 56.0,730.0 L 109.0,728.0 L 256.0,619.0 L 274.0,597.0"/>
    <path d="M 472.0,417.0 L 510.0,453.0 L 529.0,483.0"/>
    <path d="M 736.0,402.0 L 704.0,396.0 L 624.0,487.0"/>
    <path d="M 421.0,556.0 L 458.0,563.0 L 498.0,561.0 L 602.0,545.0 L 736.0,514.0 L 776.0,516.0"/>
    <path d="M 430.0,681.0 L 470.0,689.0 L 516.0,687.0 L 629.0,671.0 L 690.0,655.0 L 753.0,655.0"/>
    <path d="M 314.0,823.0 L 370.0,832.0 L 530.0,807.0 L 827.0,778.0 L 870.0,784.0 L 909.0,798.0"/>
    <path d="M 547.0,579.0 L 586.0,602.0 L 592.0,622.0 L 591.0,1093.0"/>
  </g>
</svg>
