<svg xmlns="http://www.w3.org/2000/svg" viewBox="0 0 1024 1024">
  <g style="fill:none;stroke:#000000;stroke-width:50;stroke-linecap:round;stroke-linejoin:round;" transform="scale(1, 1) translate(0, 0)">
    <path d="M 497.0,203.0 L 587.0,244.0 L 617.0,279.0"/>
    <path d="M 385.0,370.0 L 399.0,379.0 L 455.0,378.0 L 710.0,328.0 L 791.0,322.0"/>
    <path d="M 308.0,344.0 L 331.0,362.0 L 346.0,383.0 L 347.0,395.0 L 335.0,553.0 L 308.0,699.0 L 279.0,792.0 L 227.0,906.0 L 185.0,974.0 L 145.0,1021.0"/>
    <path d="M 152.0,472.0 L 223.0,517.0 L 239.0,537.0"/>
    <path d="M 69.0,782.0 L 128.0,779.0 L 274.0,658.0 L 287.0,638.0"/>
    <path d="M 496.0,471.0 L 538.0,506.0 L 548.0,523.0"/>
    <path d="M 402.0,526.0 L 431.0,564.0 L 432.0,642.0 L 424.0,780.0 L 396.0,980.0"/>
    <path d="M 630.0,474.0 L 676.0,472.0 L 768.0,447.0 L 786.0,452.0 L 810.0,475.0 L 820.0,854.0 L 817.0,966.0 L 810.0,986.0 L 798.0,997.0 L 768.0,991.0 L 690.0,959.0"/>
    <path d="M 479.0,673.0 L 514.0,678.0 L 679.0,646.0 L 737.0,648.0"/>
    <path d="M 587.0,563.0 L 603.0,580.0 L 611.0,603.0 L 599.0,891.0 L 609.0,961.0"/>
    <path d="M 586.0,691.0 L 578.0,695.0 L 566.0,756.0 L 546.0,787.0 L 513.0,833.0 L 455.0,885.0"/>
    <path d="M 646.0,741.0 L 729.0,796.0 L 749.0,833.0"/>
  </g>
</svg>
