<svg xmlns="http://www.w3.org/2000/svg" viewBox="0 0 1024 1024">
  <g style="fill:none;stroke:#000000;stroke-width:50;stroke-linecap:round;stroke-linejoin:round;" transform="scale(1, 1) translate(0, 0)">
    <path d="M 481.0,171.0 L 570.0,222.0 L 588.0,249.0"/>
    <path d="M 357.0,350.0 L 388.0,358.0 L 501.0,348.0 L 733.0,298.0 L 775.0,300.0"/>
    <path d="M 286.0,329.0 L 304.0,341.0 L 325.0,372.0 L 315.0,557.0 L 292.0,693.0 L 262.0,791.0 L 211.0,906.0 L 132.0,1017.0"/>
    <path d="M 121.0,458.0 L 204.0,505.0 L 229.0,540.0"/>
    <path d="M 53.0,750.0 L 105.0,752.0 L 244.0,657.0 L 268.0,637.0 L 269.0,624.0"/>
    <path d="M 423.0,506.0 L 448.0,531.0 L 432.0,584.0 L 398.0,654.0 L 334.0,730.0"/>
    <path d="M 440.0,637.0 L 455.0,636.0 L 487.0,658.0 L 516.0,690.0"/>
    <path d="M 711.0,455.0 L 739.0,480.0 L 743.0,491.0 L 730.0,541.0 L 698.0,610.0 L 635.0,689.0"/>
    <path d="M 710.0,635.0 L 737.0,637.0 L 788.0,659.0 L 809.0,674.0 L 826.0,698.0"/>
    <path d="M 426.0,802.0 L 434.0,807.0 L 500.0,809.0 L 702.0,772.0 L 745.0,773.0"/>
    <path d="M 547.0,428.0 L 583.0,457.0 L 594.0,480.0 L 576.0,901.0 L 559.0,923.0"/>
    <path d="M 323.0,963.0 L 375.0,974.0 L 504.0,957.0 L 785.0,933.0 L 824.0,939.0 L 870.0,956.0"/>
  </g>
</svg>
