<svg xmlns="http://www.w3.org/2000/svg" viewBox="0 0 1024 1024">
  <g style="fill:none;stroke:#000000;stroke-width:50;stroke-linecap:round;stroke-linejoin:round;" transform="scale(1, 1) translate(0, 0)">
    <path d="M 469.0,170.0 L 562.0,210.0 L 593.0,243.0"/>
    <path d="M 353.0,355.0 L 385.0,366.0 L 446.0,362.0 L 692.0,313.0 L 763.0,308.0"/>
    <path d="M 276.0,331.0 L 298.0,351.0 L 314.0,378.0 L 304.0,499.0 L 278.0,646.0 L 245.0,752.0 L 220.0,808.0 L 177.0,886.0 L 113.0,966.0"/>
    <path d="M 127.0,409.0 L 182.0,451.0 L 203.0,479.0"/>
    <path d="M 75.0,693.0 L 131.0,690.0 L 238.0,608.0 L 255.0,586.0"/>
    <path d="M 372.0,481.0 L 431.0,513.0 L 456.0,545.0"/>
    <path d="M 342.0,605.0 L 388.0,635.0 L 406.0,660.0"/>
    <path d="M 344.0,963.0 L 333.0,935.0 L 331.0,896.0 L 413.0,735.0"/>
    <path d="M 594.0,442.0 L 608.0,449.0 L 634.0,481.0 L 623.0,716.0 L 628.0,755.0"/>
    <path d="M 517.0,583.0 L 504.0,638.0 L 476.0,708.0"/>
    <path d="M 741.0,539.0 L 842.0,613.0 L 859.0,632.0 L 875.0,672.0"/>
    <path d="M 732.0,653.0 L 752.0,691.0 L 718.0,770.0 L 658.0,865.0 L 620.0,908.0 L 553.0,965.0 L 469.0,1019.0 L 412.0,1044.0"/>
  </g>
</svg>
