<svg xmlns="http://www.w3.org/2000/svg" viewBox="0 0 1024 1024">
  <g style="fill:none;stroke:#000000;stroke-width:50;stroke-linecap:round;stroke-linejoin:round;" transform="scale(1, 1) translate(0, 0)">
    <path d="M 473.0,190.0 L 545.0,221.0 L 577.0,255.0"/>
    <path d="M 366.0,345.0 L 374.0,356.0 L 387.0,359.0 L 463.0,356.0 L 723.0,309.0 L 777.0,312.0"/>
    <path d="M 288.0,328.0 L 327.0,364.0 L 330.0,408.0 L 321.0,587.0 L 293.0,734.0 L 252.0,834.0 L 206.0,906.0 L 142.0,975.0 L 78.0,1019.0"/>
    <path d="M 159.0,443.0 L 207.0,502.0 L 222.0,535.0"/>
    <path d="M 64.0,748.0 L 118.0,753.0 L 264.0,671.0 L 276.0,655.0"/>
    <path d="M 416.0,472.0 L 455.0,499.0 L 471.0,519.0"/>
    <path d="M 718.0,420.0 L 727.0,450.0 L 622.0,516.0"/>
    <path d="M 533.0,404.0 L 562.0,433.0 L 556.0,501.0 L 537.0,565.0 L 499.0,625.0 L 453.0,658.0 L 420.0,670.0"/>
    <path d="M 617.0,566.0 L 677.0,599.0 L 692.0,611.0 L 703.0,632.0"/>
    <path d="M 381.0,749.0 L 427.0,785.0 L 442.0,808.0"/>
    <path d="M 719.0,693.0 L 730.0,724.0 L 638.0,791.0"/>
    <path d="M 516.0,689.0 L 550.0,723.0 L 539.0,804.0 L 521.0,858.0 L 502.0,893.0 L 470.0,933.0 L 409.0,978.0 L 356.0,1003.0 L 303.0,1015.0"/>
    <path d="M 573.0,798.0 L 579.0,813.0 L 673.0,916.0 L 775.0,999.0 L 817.0,1017.0 L 933.0,1026.0"/>
  </g>
</svg>
