<svg xmlns="http://www.w3.org/2000/svg" viewBox="0 0 1024 1024">
  <g style="fill:none;stroke:#000000;stroke-width:50;stroke-linecap:round;stroke-linejoin:round;" transform="scale(1, 1) translate(0, 0)">
    <path d="M 477.0,170.0 L 556.0,207.0 L 592.0,246.0"/>
    <path d="M 357.0,342.0 L 395.0,353.0 L 452.0,349.0 L 714.0,290.0 L 767.0,288.0"/>
    <path d="M 292.0,324.0 L 327.0,358.0 L 331.0,379.0 L 311.0,586.0 L 290.0,692.0 L 257.0,791.0 L 211.0,890.0 L 150.0,985.0 L 120.0,1019.0"/>
    <path d="M 164.0,430.0 L 217.0,481.0 L 235.0,509.0"/>
    <path d="M 70.0,751.0 L 126.0,754.0 L 248.0,675.0 L 262.0,660.0"/>
    <path d="M 481.0,443.0 L 525.0,491.0 L 520.0,820.0 L 507.0,946.0 L 509.0,1023.0"/>
    <path d="M 371.0,566.0 L 391.0,571.0 L 440.0,566.0 L 475.0,557.0 L 490.0,546.0"/>
    <path d="M 355.0,694.0 L 414.0,695.0 L 476.0,681.0 L 491.0,670.0"/>
    <path d="M 311.0,846.0 L 359.0,853.0 L 465.0,800.0 L 479.0,799.0 L 484.0,783.0"/>
    <path d="M 619.0,397.0 L 666.0,445.0 L 665.0,853.0 L 657.0,971.0 L 661.0,1049.0"/>
    <path d="M 693.0,546.0 L 707.0,535.0 L 815.0,513.0 L 849.0,513.0"/>
    <path d="M 694.0,670.0 L 722.0,658.0 L 816.0,641.0 L 863.0,642.0"/>
    <path d="M 696.0,807.0 L 716.0,795.0 L 810.0,772.0 L 852.0,768.0 L 898.0,778.0"/>
  </g>
</svg>
