<svg xmlns="http://www.w3.org/2000/svg" viewBox="0 0 1024 1024">
  <g style="fill:none;stroke:#000000;stroke-width:50;stroke-linecap:round;stroke-linejoin:round;" transform="scale(1, 1) translate(0, 0)">
    <path d="M 482.0,189.0 L 562.0,235.0 L 580.0,259.0"/>
    <path d="M 356.0,367.0 L 382.0,382.0 L 456.0,377.0 L 582.0,359.0 L 753.0,324.0 L 807.0,326.0"/>
    <path d="M 291.0,351.0 L 322.0,382.0 L 328.0,414.0 L 308.0,605.0 L 291.0,698.0 L 259.0,805.0 L 229.0,875.0 L 191.0,947.0 L 124.0,1035.0"/>
    <path d="M 124.0,466.0 L 180.0,514.0 L 201.0,537.0 L 205.0,551.0"/>
    <path d="M 52.0,754.0 L 103.0,760.0 L 254.0,678.0 L 265.0,663.0"/>
    <path d="M 386.0,483.0 L 415.0,522.0 L 420.0,570.0 L 414.0,787.0 L 396.0,940.0 L 401.0,997.0"/>
    <path d="M 443.0,498.0 L 459.0,510.0 L 483.0,509.0 L 583.0,496.0 L 745.0,460.0 L 778.0,476.0 L 798.0,498.0 L 803.0,929.0 L 789.0,967.0 L 735.0,946.0 L 724.0,922.0"/>
    <path d="M 473.0,631.0 L 554.0,633.0 L 670.0,606.0 L 717.0,606.0"/>
    <path d="M 570.0,541.0 L 598.0,571.0 L 582.0,681.0 L 566.0,707.0"/>
    <path d="M 479.0,719.0 L 505.0,747.0 L 529.0,863.0"/>
    <path d="M 526.0,723.0 L 534.0,730.0 L 600.0,721.0 L 636.0,709.0 L 656.0,714.0 L 670.0,732.0 L 650.0,789.0 L 634.0,793.0"/>
    <path d="M 545.0,844.0 L 563.0,833.0 L 609.0,824.0 L 672.0,830.0"/>
    <path d="M 428.0,957.0 L 450.0,941.0 L 665.0,923.0 L 695.0,926.0 L 707.0,943.0"/>
  </g>
</svg>
