<svg xmlns="http://www.w3.org/2000/svg" viewBox="0 0 1024 1024">
  <g style="fill:none;stroke:#000000;stroke-width:50;stroke-linecap:round;stroke-linejoin:round;" transform="scale(1, 1) translate(0, 0)">
    <path d="M 460.0,179.0 L 536.0,221.0 L 567.0,260.0"/>
    <path d="M 336.0,367.0 L 351.0,379.0 L 426.0,377.0 L 683.0,322.0 L 728.0,315.0 L 759.0,318.0"/>
    <path d="M 260.0,343.0 L 289.0,372.0 L 298.0,394.0 L 284.0,543.0 L 261.0,670.0 L 226.0,781.0 L 180.0,881.0 L 121.0,977.0 L 77.0,1026.0"/>
    <path d="M 123.0,446.0 L 182.0,509.0 L 194.0,535.0"/>
    <path d="M 61.0,736.0 L 109.0,738.0 L 221.0,665.0 L 228.0,654.0"/>
    <path d="M 396.0,470.0 L 461.0,516.0 L 475.0,544.0"/>
    <path d="M 311.0,637.0 L 352.0,641.0 L 499.0,605.0 L 546.0,608.0"/>
    <path d="M 446.0,744.0 L 454.0,738.0 L 485.0,753.0 L 495.0,749.0 L 523.0,767.0 L 528.0,795.0 L 513.0,823.0 L 519.0,840.0 L 495.0,876.0 L 508.0,899.0 L 482.0,931.0 L 483.0,955.0 L 464.0,969.0 L 453.0,988.0 L 437.0,995.0 L 411.0,970.0 L 383.0,973.0"/>
    <path d="M 391.0,652.0 L 412.0,668.0 L 420.0,690.0 L 375.0,801.0 L 296.0,926.0 L 248.0,979.0 L 227.0,994.0"/>
    <path d="M 647.0,431.0 L 667.0,447.0 L 678.0,467.0 L 658.0,528.0 L 602.0,639.0 L 549.0,708.0"/>
    <path d="M 697.0,514.0 L 697.0,526.0 L 706.0,537.0 L 842.0,666.0 L 960.0,685.0"/>
    <path d="M 643.0,701.0 L 703.0,742.0 L 728.0,769.0"/>
    <path d="M 639.0,864.0 L 734.0,953.0 L 758.0,1000.0 L 759.0,1020.0"/>
  </g>
</svg>
