<svg xmlns="http://www.w3.org/2000/svg" viewBox="0 0 1024 1024">
  <g style="fill:none;stroke:#000000;stroke-width:50;stroke-linecap:round;stroke-linejoin:round;" transform="scale(1, 1) translate(0, 0)">
    <path d="M 470.0,179.0 L 563.0,227.0 L 590.0,261.0"/>
    <path d="M 350.0,359.0 L 365.0,371.0 L 419.0,371.0 L 717.0,317.0 L 763.0,317.0"/>
    <path d="M 272.0,337.0 L 296.0,355.0 L 312.0,386.0 L 309.0,502.0 L 294.0,632.0 L 264.0,761.0 L 223.0,869.0 L 162.0,970.0 L 132.0,1005.0"/>
    <path d="M 128.0,431.0 L 194.0,482.0 L 220.0,525.0"/>
    <path d="M 51.0,737.0 L 103.0,740.0 L 240.0,653.0 L 258.0,634.0"/>
    <path d="M 397.0,449.0 L 421.0,469.0 L 429.0,491.0 L 468.0,682.0"/>
    <path d="M 448.0,454.0 L 470.0,464.0 L 695.0,422.0 L 730.0,423.0 L 749.0,431.0 L 771.0,462.0 L 750.0,517.0 L 716.0,645.0"/>
    <path d="M 495.0,557.0 L 637.0,531.0 L 681.0,536.0"/>
    <path d="M 564.0,463.0 L 586.0,484.0 L 584.0,603.0 L 571.0,620.0"/>
    <path d="M 485.0,662.0 L 517.0,649.0 L 648.0,629.0 L 669.0,629.0 L 695.0,641.0"/>
    <path d="M 337.0,756.0 L 384.0,764.0 L 572.0,732.0 L 816.0,707.0 L 855.0,712.0 L 892.0,725.0"/>
    <path d="M 464.0,773.0 L 496.0,798.0 L 475.0,902.0 L 455.0,941.0 L 419.0,984.0 L 348.0,1028.0"/>
    <path d="M 666.0,750.0 L 688.0,766.0 L 694.0,780.0 L 692.0,981.0 L 705.0,1059.0"/>
  </g>
</svg>
