<svg xmlns="http://www.w3.org/2000/svg" viewBox="0 0 1024 1024">
  <g style="fill:none;stroke:#000000;stroke-width:50;stroke-linecap:round;stroke-linejoin:round;" transform="scale(1, 1) translate(0, 0)">
    <path d="M 477.0,175.0 L 566.0,226.0 L 584.0,253.0"/>
    <path d="M 358.0,323.0 L 383.0,334.0 L 453.0,334.0 L 705.0,290.0 L 745.0,292.0"/>
    <path d="M 292.0,304.0 L 324.0,334.0 L 331.0,362.0 L 308.0,584.0 L 292.0,660.0 L 265.0,745.0 L 211.0,868.0 L 166.0,940.0 L 117.0,998.0"/>
    <path d="M 147.0,430.0 L 206.0,478.0 L 230.0,510.0"/>
    <path d="M 56.0,729.0 L 115.0,731.0 L 249.0,636.0 L 264.0,619.0"/>
    <path d="M 417.0,429.0 L 473.0,461.0 L 487.0,485.0"/>
    <path d="M 739.0,410.0 L 710.0,399.0 L 632.0,463.0"/>
    <path d="M 368.0,550.0 L 390.0,557.0 L 429.0,557.0 L 712.0,512.0 L 770.0,519.0"/>
    <path d="M 537.0,384.0 L 571.0,418.0 L 565.0,588.0 L 560.0,604.0 L 564.0,699.0"/>
    <path d="M 540.0,567.0 L 443.0,660.0 L 348.0,709.0"/>
    <path d="M 589.0,558.0 L 723.0,659.0 L 807.0,673.0 L 872.0,672.0"/>
    <path d="M 488.0,696.0 L 502.0,711.0 L 511.0,737.0 L 444.0,870.0 L 469.0,888.0 L 539.0,910.0 L 657.0,967.0 L 706.0,997.0 L 756.0,1048.0"/>
    <path d="M 622.0,742.0 L 647.0,771.0 L 639.0,823.0 L 602.0,899.0 L 562.0,947.0 L 520.0,979.0 L 465.0,1003.0 L 408.0,1017.0 L 344.0,1020.0"/>
    <path d="M 302.0,797.0 L 354.0,805.0 L 563.0,779.0 L 784.0,763.0 L 812.0,764.0 L 874.0,783.0"/>
  </g>
</svg>
