<svg xmlns="http://www.w3.org/2000/svg" viewBox="0 0 1024 1024">
  <g style="fill:none;stroke:#000000;stroke-width:50;stroke-linecap:round;stroke-linejoin:round;" transform="scale(1, 1) translate(0, 0)">
    <path d="M 507.0,157.0 L 578.0,194.0 L 609.0,232.0"/>
    <path d="M 353.0,317.0 L 375.0,333.0 L 406.0,332.0 L 587.0,308.0 L 771.0,275.0 L 813.0,276.0"/>
    <path d="M 282.0,304.0 L 309.0,324.0 L 325.0,355.0 L 324.0,459.0 L 313.0,570.0 L 283.0,719.0 L 243.0,817.0 L 183.0,909.0 L 111.0,977.0 L 56.0,1012.0"/>
    <path d="M 152.0,453.0 L 215.0,521.0 L 222.0,554.0"/>
    <path d="M 56.0,750.0 L 72.0,757.0 L 120.0,757.0 L 248.0,689.0 L 258.0,678.0"/>
    <path d="M 563.0,352.0 L 586.0,370.0 L 595.0,388.0 L 593.0,485.0 L 579.0,494.0"/>
    <path d="M 624.0,432.0 L 638.0,420.0 L 725.0,399.0 L 750.0,400.0"/>
    <path d="M 448.0,531.0 L 471.0,539.0 L 508.0,535.0 L 788.0,481.0 L 818.0,506.0 L 764.0,570.0"/>
    <path d="M 391.0,517.0 L 422.0,546.0 L 427.0,578.0 L 417.0,697.0 L 384.0,833.0 L 347.0,910.0 L 319.0,949.0 L 271.0,998.0 L 214.0,1032.0"/>
    <path d="M 484.0,648.0 L 502.0,650.0 L 544.0,640.0 L 665.0,602.0 L 706.0,603.0"/>
    <path d="M 551.0,548.0 L 570.0,560.0 L 575.0,571.0 L 572.0,662.0 L 578.0,692.0 L 587.0,705.0 L 608.0,717.0 L 677.0,720.0 L 737.0,702.0 L 758.0,685.0 L 755.0,621.0"/>
    <path d="M 539.0,792.0 L 549.0,801.0 L 566.0,803.0 L 745.0,772.0 L 799.0,770.0"/>
    <path d="M 408.0,908.0 L 428.0,914.0 L 478.0,913.0 L 611.0,889.0 L 831.0,866.0 L 875.0,870.0 L 909.0,882.0"/>
    <path d="M 482.0,791.0 L 507.0,810.0 L 513.0,831.0 L 506.0,1018.0 L 541.0,1021.0 L 636.0,1000.0 L 736.0,989.0 L 780.0,993.0 L 830.0,1009.0"/>
  </g>
</svg>
