<svg xmlns="http://www.w3.org/2000/svg" viewBox="0 0 1024 1024">
  <g style="fill:none;stroke:#000000;stroke-width:50;stroke-linecap:round;stroke-linejoin:round;" transform="scale(1, 1) translate(0, 0)">
    <path d="M 451.0,177.0 L 538.0,216.0 L 574.0,254.0"/>
    <path d="M 319.0,347.0 L 336.0,356.0 L 368.0,358.0 L 438.0,354.0 L 682.0,309.0 L 736.0,302.0 L 767.0,306.0"/>
    <path d="M 250.0,324.0 L 273.0,343.0 L 287.0,371.0 L 276.0,516.0 L 251.0,670.0 L 220.0,770.0 L 166.0,891.0 L 112.0,976.0 L 81.0,1010.0"/>
    <path d="M 120.0,457.0 L 168.0,500.0 L 184.0,527.0"/>
    <path d="M 44.0,725.0 L 91.0,728.0 L 213.0,652.0 L 224.0,638.0"/>
    <path d="M 443.0,408.0 L 463.0,431.0 L 393.0,544.0"/>
    <path d="M 348.0,548.0 L 367.0,563.0 L 378.0,582.0 L 380.0,639.0 L 371.0,760.0 L 362.0,810.0 L 335.0,897.0 L 300.0,966.0 L 274.0,1000.0"/>
    <path d="M 404.0,557.0 L 415.0,563.0 L 427.0,561.0 L 460.0,547.0 L 493.0,542.0 L 503.0,545.0 L 521.0,565.0 L 515.0,685.0 L 519.0,887.0 L 512.0,951.0 L 496.0,980.0 L 465.0,968.0 L 435.0,947.0 L 417.0,945.0"/>
    <path d="M 423.0,610.0 L 467.0,662.0"/>
    <path d="M 261.0,751.0 L 300.0,764.0 L 487.0,710.0 L 491.0,702.0"/>
    <path d="M 415.0,780.0 L 448.0,819.0 L 459.0,844.0"/>
    <path d="M 607.0,461.0 L 627.0,476.0 L 629.0,486.0 L 627.0,562.0 L 602.0,638.0 L 568.0,687.0"/>
    <path d="M 654.0,486.0 L 669.0,470.0 L 708.0,453.0 L 744.0,452.0 L 757.0,466.0 L 739.0,560.0 L 741.0,610.0 L 748.0,627.0 L 779.0,645.0 L 851.0,636.0 L 888.0,642.0"/>
    <path d="M 593.0,755.0 L 645.0,754.0 L 718.0,730.0 L 749.0,732.0 L 766.0,740.0 L 734.0,847.0 L 718.0,883.0 L 687.0,926.0 L 642.0,962.0 L 592.0,985.0 L 559.0,991.0"/>
    <path d="M 591.0,805.0 L 629.0,822.0 L 718.0,915.0 L 833.0,1001.0 L 892.0,1011.0 L 972.0,1012.0"/>
  </g>
</svg>
