<svg xmlns="http://www.w3.org/2000/svg" viewBox="0 0 1024 1024">
  <g style="fill:none;stroke:#000000;stroke-width:50;stroke-linecap:round;stroke-linejoin:round;" transform="scale(1, 1) translate(0, 0)">
    <path d="M 477.0,174.0 L 565.0,214.0 L 587.0,241.0"/>
    <path d="M 352.0,322.0 L 384.0,331.0 L 460.0,326.0 L 721.0,274.0 L 764.0,276.0"/>
    <path d="M 276.0,296.0 L 316.0,339.0 L 294.0,560.0 L 278.0,637.0 L 251.0,724.0 L 216.0,806.0 L 181.0,873.0 L 103.0,975.0"/>
    <path d="M 140.0,423.0 L 191.0,466.0 L 207.0,494.0"/>
    <path d="M 65.0,706.0 L 117.0,706.0 L 230.0,625.0 L 248.0,602.0"/>
    <path d="M 374.0,408.0 L 421.0,405.0 L 474.0,389.0 L 494.0,391.0 L 515.0,407.0 L 519.0,413.0 L 486.0,574.0"/>
    <path d="M 373.0,458.0 L 411.0,479.0 L 427.0,495.0"/>
    <path d="M 357.0,592.0 L 382.0,594.0 L 453.0,531.0"/>
    <path d="M 572.0,377.0 L 611.0,380.0 L 734.0,351.0 L 748.0,354.0 L 769.0,372.0 L 777.0,388.0 L 755.0,448.0 L 722.0,581.0"/>
    <path d="M 608.0,424.0 L 661.0,454.0"/>
    <path d="M 597.0,544.0 L 627.0,544.0 L 697.0,486.0"/>
    <path d="M 568.0,587.0 L 543.0,592.0 L 459.0,694.0 L 386.0,757.0 L 316.0,804.0 L 281.0,820.0"/>
    <path d="M 582.0,607.0 L 582.0,618.0 L 637.0,663.0 L 784.0,763.0 L 809.0,773.0 L 869.0,781.0 L 964.0,786.0"/>
    <path d="M 547.0,679.0 L 561.0,707.0 L 541.0,736.0 L 487.0,789.0 L 442.0,817.0 L 427.0,819.0 L 424.0,826.0"/>
    <path d="M 592.0,766.0 L 604.0,794.0 L 554.0,854.0 L 501.0,897.0 L 436.0,930.0"/>
    <path d="M 642.0,850.0 L 657.0,887.0 L 599.0,955.0 L 507.0,1026.0 L 464.0,1051.0 L 417.0,1071.0 L 401.0,1071.0 L 397.0,1077.0"/>
  </g>
</svg>
