<svg xmlns="http://www.w3.org/2000/svg" viewBox="0 0 1024 1024">
  <g style="fill:none;stroke:#000000;stroke-width:50;stroke-linecap:round;stroke-linejoin:round;" transform="scale(1, 1) translate(0, 0)">
    <path d="M 495.0,185.0 L 566.0,222.0 L 599.0,261.0"/>
    <path d="M 356.0,348.0 L 370.0,357.0 L 470.0,355.0 L 751.0,306.0 L 791.0,308.0"/>
    <path d="M 281.0,325.0 L 311.0,353.0 L 320.0,375.0 L 309.0,542.0 L 280.0,712.0 L 247.0,812.0 L 205.0,900.0 L 157.0,976.0 L 128.0,1009.0"/>
    <path d="M 149.0,467.0 L 198.0,504.0 L 223.0,533.0"/>
    <path d="M 67.0,742.0 L 125.0,747.0 L 242.0,675.0 L 256.0,660.0"/>
    <path d="M 427.0,440.0 L 471.0,446.0 L 687.0,405.0 L 739.0,408.0"/>
    <path d="M 372.0,536.0 L 401.0,561.0 L 440.0,702.0"/>
    <path d="M 423.0,539.0 L 444.0,548.0 L 691.0,502.0 L 734.0,497.0 L 763.0,501.0 L 792.0,535.0 L 746.0,648.0 L 747.0,665.0"/>
    <path d="M 489.0,466.0 L 513.0,478.0 L 522.0,491.0 L 531.0,625.0 L 522.0,635.0"/>
    <path d="M 612.0,447.0 L 642.0,463.0 L 627.0,598.0 L 611.0,622.0"/>
    <path d="M 455.0,673.0 L 468.0,664.0 L 496.0,659.0 L 716.0,627.0"/>
    <path d="M 457.0,739.0 L 498.0,746.0 L 529.0,744.0 L 653.0,718.0 L 696.0,720.0"/>
    <path d="M 322.0,848.0 L 369.0,856.0 L 540.0,828.0 L 797.0,803.0 L 835.0,808.0 L 872.0,821.0"/>
    <path d="M 566.0,849.0 L 591.0,870.0 L 593.0,882.0 L 593.0,983.0 L 575.0,1033.0 L 571.0,1037.0 L 540.0,1028.0 L 475.0,997.0"/>
    <path d="M 423.0,905.0 L 409.0,944.0 L 356.0,1031.0"/>
    <path d="M 701.0,900.0 L 781.0,961.0 L 802.0,992.0 L 811.0,1022.0"/>
  </g>
</svg>
