<svg xmlns="http://www.w3.org/2000/svg" viewBox="0 0 1024 1024">
  <g style="fill:none;stroke:#000000;stroke-width:50;stroke-linecap:round;stroke-linejoin:round;" transform="scale(1, 1) translate(0, 0)">
    <path d="M 466.0,187.0 L 563.0,228.0 L 587.0,255.0"/>
    <path d="M 335.0,346.0 L 345.0,357.0 L 358.0,360.0 L 413.0,358.0 L 612.0,327.0 L 739.0,300.0 L 797.0,300.0"/>
    <path d="M 256.0,320.0 L 288.0,350.0 L 295.0,371.0 L 278.0,570.0 L 255.0,692.0 L 222.0,800.0 L 174.0,903.0 L 102.0,1009.0 L 85.0,1025.0"/>
    <path d="M 125.0,469.0 L 177.0,511.0 L 194.0,536.0"/>
    <path d="M 50.0,740.0 L 105.0,741.0 L 218.0,655.0 L 233.0,635.0"/>
    <path d="M 524.0,451.0 L 495.0,451.0 L 457.0,525.0 L 453.0,551.0 L 459.0,569.0 L 491.0,621.0 L 493.0,647.0 L 487.0,662.0 L 463.0,662.0 L 400.0,643.0"/>
    <path d="M 344.0,443.0 L 371.0,472.0 L 375.0,487.0 L 378.0,574.0 L 368.0,859.0 L 352.0,976.0 L 356.0,1031.0"/>
    <path d="M 665.0,396.0 L 641.0,405.0 L 587.0,496.0 L 564.0,526.0 L 519.0,565.0"/>
    <path d="M 633.0,471.0 L 657.0,460.0 L 728.0,447.0 L 746.0,450.0 L 759.0,460.0 L 747.0,490.0 L 700.0,559.0 L 641.0,628.0 L 573.0,690.0 L 479.0,753.0"/>
    <path d="M 587.0,528.0 L 619.0,535.0 L 704.0,604.0 L 762.0,642.0 L 826.0,674.0 L 888.0,680.0 L 975.0,677.0"/>
    <path d="M 579.0,724.0 L 637.0,726.0 L 723.0,706.0 L 755.0,705.0"/>
    <path d="M 545.0,769.0 L 563.0,792.0 L 552.0,829.0 L 526.0,874.0 L 492.0,906.0"/>
    <path d="M 573.0,842.0 L 587.0,835.0 L 701.0,820.0 L 736.0,806.0 L 788.0,807.0"/>
    <path d="M 567.0,922.0 L 613.0,927.0 L 742.0,901.0 L 777.0,907.0"/>
    <path d="M 641.0,746.0 L 666.0,762.0 L 671.0,786.0 L 666.0,963.0 L 652.0,983.0"/>
    <path d="M 473.0,1018.0 L 515.0,1025.0 L 813.0,992.0 L 861.0,997.0 L 893.0,1009.0"/>
  </g>
</svg>
