<svg xmlns="http://www.w3.org/2000/svg" viewBox="0 0 1024 1024">
  <g style="fill:none;stroke:#000000;stroke-width:50;stroke-linecap:round;stroke-linejoin:round;" transform="scale(1, 1) translate(0, 0)">
    <path d="M 493.0,183.0 L 575.0,221.0 L 598.0,249.0"/>
    <path d="M 346.0,341.0 L 370.0,352.0 L 429.0,350.0 L 736.0,299.0 L 782.0,299.0"/>
    <path d="M 280.0,325.0 L 316.0,360.0 L 320.0,375.0 L 303.0,574.0 L 279.0,699.0 L 250.0,794.0 L 204.0,896.0 L 117.0,1017.0"/>
    <path d="M 140.0,431.0 L 208.0,490.0 L 222.0,525.0"/>
    <path d="M 56.0,729.0 L 110.0,731.0 L 247.0,633.0 L 269.0,603.0"/>
    <path d="M 399.0,482.0 L 434.0,490.0 L 713.0,445.0 L 767.0,451.0"/>
    <path d="M 458.0,391.0 L 494.0,426.0 L 505.0,547.0 L 505.0,555.0 L 495.0,564.0"/>
    <path d="M 628.0,346.0 L 655.0,363.0 L 667.0,379.0 L 646.0,521.0 L 627.0,546.0"/>
    <path d="M 344.0,600.0 L 396.0,607.0 L 521.0,584.0 L 795.0,550.0 L 867.0,566.0"/>
    <path d="M 389.0,693.0 L 410.0,710.0 L 421.0,732.0 L 452.0,891.0"/>
    <path d="M 437.0,690.0 L 451.0,702.0 L 672.0,663.0 L 719.0,667.0 L 739.0,685.0 L 746.0,700.0 L 697.0,861.0"/>
    <path d="M 494.0,776.0 L 622.0,754.0 L 649.0,759.0"/>
    <path d="M 546.0,601.0 L 571.0,622.0 L 575.0,645.0 L 573.0,809.0 L 558.0,831.0"/>
    <path d="M 471.0,873.0 L 480.0,865.0 L 516.0,858.0 L 644.0,841.0 L 664.0,842.0 L 670.0,852.0"/>
    <path d="M 526.0,947.0 L 496.0,947.0 L 436.0,1002.0 L 384.0,1035.0 L 331.0,1057.0"/>
    <path d="M 649.0,916.0 L 745.0,991.0 L 774.0,1031.0 L 783.0,1060.0"/>
  </g>
</svg>
