<svg xmlns="http://www.w3.org/2000/svg" viewBox="0 0 1024 1024">
  <g style="fill:none;stroke:#000000;stroke-width:50;stroke-linecap:round;stroke-linejoin:round;" transform="scale(1, 1) translate(0, 0)">
    <path d="M 489.0,179.0 L 570.0,223.0 L 588.0,249.0"/>
    <path d="M 352.0,332.0 L 362.0,341.0 L 419.0,340.0 L 574.0,314.0 L 693.0,285.0 L 748.0,285.0"/>
    <path d="M 273.0,304.0 L 296.0,322.0 L 312.0,352.0 L 293.0,564.0 L 269.0,688.0 L 241.0,780.0 L 192.0,887.0 L 150.0,957.0 L 100.0,1019.0"/>
    <path d="M 120.0,450.0 L 176.0,502.0 L 195.0,533.0"/>
    <path d="M 56.0,726.0 L 107.0,727.0 L 247.0,625.0 L 252.0,614.0"/>
    <path d="M 531.0,348.0 L 550.0,372.0 L 522.0,422.0 L 449.0,512.0 L 381.0,580.0 L 350.0,603.0"/>
    <path d="M 576.0,398.0 L 585.0,395.0 L 666.0,453.0 L 794.0,524.0 L 853.0,531.0 L 941.0,525.0"/>
    <path d="M 495.0,523.0 L 536.0,525.0 L 616.0,503.0 L 652.0,501.0"/>
    <path d="M 384.0,603.0 L 397.0,608.0 L 401.0,620.0 L 402.0,667.0 L 388.0,781.0 L 377.0,819.0 L 379.0,843.0"/>
    <path d="M 423.0,609.0 L 498.0,578.0 L 514.0,583.0 L 530.0,600.0 L 526.0,661.0 L 531.0,797.0 L 524.0,843.0 L 512.0,857.0 L 448.0,833.0"/>
    <path d="M 416.0,698.0 L 428.0,687.0 L 460.0,678.0 L 487.0,679.0"/>
    <path d="M 415.0,769.0 L 421.0,759.0 L 440.0,754.0 L 486.0,755.0"/>
    <path d="M 594.0,607.0 L 613.0,632.0 L 610.0,770.0"/>
    <path d="M 687.0,546.0 L 718.0,567.0 L 726.0,584.0 L 726.0,793.0 L 711.0,828.0 L 643.0,795.0"/>
    <path d="M 317.0,896.0 L 311.0,954.0 L 286.0,1038.0"/>
    <path d="M 401.0,904.0 L 471.0,980.0 L 518.0,1012.0 L 558.0,1030.0 L 603.0,1043.0 L 693.0,1052.0 L 747.0,1048.0 L 775.0,1039.0 L 789.0,1029.0 L 782.0,1009.0 L 734.0,941.0 L 725.0,938.0 L 724.0,927.0 L 715.0,922.0"/>
    <path d="M 575.0,885.0 L 635.0,926.0 L 644.0,943.0"/>
    <path d="M 777.0,815.0 L 873.0,874.0 L 907.0,917.0"/>
  </g>
</svg>
