<svg xmlns="http://www.w3.org/2000/svg" viewBox="0 0 1024 1024">
  <g style="fill:none;stroke:#000000;stroke-width:50;stroke-linecap:round;stroke-linejoin:round;" transform="scale(1, 1) translate(0, 0)">
    <path d="M 497.0,159.0 L 578.0,203.0 L 596.0,229.0"/>
    <path d="M 322.0,331.0 L 348.0,344.0 L 392.0,343.0 L 497.0,331.0 L 728.0,284.0 L 775.0,286.0"/>
    <path d="M 263.0,315.0 L 292.0,346.0 L 297.0,374.0 L 281.0,539.0 L 259.0,645.0 L 215.0,773.0 L 176.0,852.0 L 128.0,924.0 L 85.0,974.0"/>
    <path d="M 110.0,430.0 L 161.0,475.0 L 173.0,500.0"/>
    <path d="M 56.0,694.0 L 106.0,701.0 L 191.0,648.0 L 219.0,637.0 L 229.0,617.0"/>
    <path d="M 420.0,473.0 L 441.0,475.0 L 511.0,455.0 L 528.0,459.0 L 542.0,478.0 L 515.0,551.0 L 500.0,555.0"/>
    <path d="M 402.0,610.0 L 478.0,587.0 L 540.0,590.0"/>
    <path d="M 365.0,456.0 L 391.0,482.0 L 394.0,495.0 L 384.0,582.0 L 362.0,685.0 L 339.0,751.0 L 301.0,829.0 L 232.0,917.0"/>
    <path d="M 376.0,724.0 L 382.0,733.0 L 405.0,904.0"/>
    <path d="M 399.0,724.0 L 410.0,729.0 L 492.0,707.0 L 504.0,709.0 L 520.0,723.0 L 521.0,739.0 L 501.0,797.0 L 481.0,811.0"/>
    <path d="M 421.0,858.0 L 437.0,844.0 L 467.0,837.0 L 528.0,838.0"/>
    <path d="M 654.0,353.0 L 705.0,396.0 L 719.0,418.0"/>
    <path d="M 612.0,493.0 L 690.0,489.0 L 799.0,458.0 L 846.0,455.0"/>
    <path d="M 619.0,555.0 L 647.0,582.0 L 660.0,606.0"/>
    <path d="M 756.0,495.0 L 777.0,524.0 L 732.0,625.0 L 720.0,637.0"/>
    <path d="M 560.0,677.0 L 620.0,677.0 L 838.0,634.0 L 881.0,634.0 L 922.0,644.0"/>
    <path d="M 578.0,811.0 L 612.0,811.0 L 801.0,774.0 L 835.0,772.0 L 862.0,780.0"/>
    <path d="M 674.0,688.0 L 708.0,712.0 L 709.0,722.0 L 703.0,1087.0"/>
  </g>
</svg>
