<svg xmlns="http://www.w3.org/2000/svg" viewBox="0 0 1024 1024">
  <g style="fill:none;stroke:#000000;stroke-width:50;stroke-linecap:round;stroke-linejoin:round;" transform="scale(1, 1) translate(0, 0)">
    <path d="M 469.0,183.0 L 538.0,227.0 L 567.0,267.0"/>
    <path d="M 315.0,365.0 L 336.0,375.0 L 425.0,370.0 L 728.0,309.0 L 783.0,308.0"/>
    <path d="M 239.0,340.0 L 275.0,375.0 L 276.0,386.0 L 271.0,484.0 L 243.0,695.0 L 208.0,812.0 L 156.0,926.0 L 75.0,1039.0"/>
    <path d="M 115.0,502.0 L 157.0,536.0 L 176.0,567.0"/>
    <path d="M 53.0,757.0 L 101.0,755.0 L 212.0,671.0 L 217.0,660.0"/>
    <path d="M 360.0,460.0 L 377.0,480.0 L 304.0,597.0"/>
    <path d="M 398.0,610.0 L 378.0,618.0 L 347.0,677.0 L 292.0,751.0 L 240.0,794.0"/>
    <path d="M 326.0,740.0 L 344.0,784.0 L 341.0,885.0 L 325.0,997.0 L 332.0,1051.0"/>
    <path d="M 523.0,425.0 L 546.0,452.0 L 541.0,549.0 L 528.0,558.0"/>
    <path d="M 446.0,507.0 L 464.0,529.0 L 462.0,576.0 L 469.0,602.0 L 486.0,602.0 L 521.0,583.0 L 576.0,567.0 L 599.0,556.0 L 605.0,546.0"/>
    <path d="M 629.0,450.0 L 649.0,480.0 L 623.0,589.0"/>
    <path d="M 458.0,683.0 L 510.0,678.0 L 610.0,651.0"/>
    <path d="M 434.0,765.0 L 480.0,759.0 L 555.0,732.0 L 599.0,730.0"/>
    <path d="M 435.0,847.0 L 547.0,817.0 L 582.0,819.0"/>
    <path d="M 501.0,770.0 L 518.0,791.0 L 513.0,885.0 L 500.0,899.0"/>
    <path d="M 397.0,942.0 L 436.0,953.0 L 617.0,878.0"/>
    <path d="M 721.0,412.0 L 741.0,427.0 L 752.0,445.0 L 740.0,489.0 L 685.0,611.0 L 638.0,678.0"/>
    <path d="M 685.0,642.0 L 744.0,634.0 L 851.0,595.0 L 892.0,592.0"/>
    <path d="M 751.0,656.0 L 776.0,673.0 L 787.0,690.0 L 768.0,786.0 L 743.0,857.0 L 705.0,917.0 L 671.0,951.0 L 628.0,983.0 L 581.0,1004.0"/>
    <path d="M 635.0,745.0 L 659.0,756.0 L 766.0,896.0 L 858.0,992.0 L 981.0,1019.0"/>
  </g>
</svg>
