<svg xmlns="http://www.w3.org/2000/svg" viewBox="0 0 1024 1024">
  <g style="fill:none;stroke:#000000;stroke-width:50;stroke-linecap:round;stroke-linejoin:round;" transform="scale(1, 1) translate(0, 0)">
    <path d="M 493.0,166.0 L 582.0,208.0 L 605.0,235.0"/>
    <path d="M 317.0,334.0 L 344.0,343.0 L 407.0,341.0 L 534.0,319.0 L 699.0,279.0 L 752.0,280.0"/>
    <path d="M 250.0,311.0 L 284.0,353.0 L 277.0,501.0 L 255.0,639.0 L 211.0,780.0 L 176.0,856.0 L 124.0,938.0 L 95.0,971.0"/>
    <path d="M 118.0,440.0 L 175.0,484.0 L 192.0,509.0"/>
    <path d="M 59.0,704.0 L 107.0,701.0 L 226.0,603.0 L 232.0,591.0"/>
    <path d="M 339.0,519.0 L 409.0,517.0 L 499.0,487.0 L 536.0,485.0"/>
    <path d="M 308.0,611.0 L 333.0,637.0 L 357.0,751.0"/>
    <path d="M 353.0,616.0 L 362.0,622.0 L 374.0,620.0 L 523.0,587.0 L 549.0,610.0 L 531.0,666.0 L 515.0,677.0"/>
    <path d="M 372.0,735.0 L 388.0,726.0 L 488.0,703.0 L 535.0,700.0 L 553.0,705.0"/>
    <path d="M 403.0,391.0 L 443.0,432.0 L 438.0,815.0 L 425.0,970.0 L 426.0,1040.0"/>
    <path d="M 420.0,741.0 L 399.0,801.0 L 344.0,870.0 L 314.0,904.0 L 227.0,976.0"/>
    <path d="M 458.0,786.0 L 470.0,798.0 L 518.0,821.0 L 538.0,849.0"/>
    <path d="M 586.0,407.0 L 616.0,411.0 L 749.0,374.0 L 784.0,369.0 L 795.0,374.0 L 804.0,384.0 L 796.0,455.0 L 787.0,488.0 L 772.0,513.0 L 755.0,529.0 L 702.0,502.0"/>
    <path d="M 659.0,418.0 L 672.0,428.0 L 677.0,442.0 L 667.0,469.0 L 639.0,515.0 L 590.0,564.0"/>
    <path d="M 603.0,590.0 L 625.0,615.0 L 630.0,630.0 L 629.0,794.0 L 624.0,817.0 L 629.0,876.0"/>
    <path d="M 649.0,601.0 L 657.0,609.0 L 784.0,577.0 L 802.0,584.0 L 822.0,606.0 L 816.0,674.0 L 821.0,816.0 L 814.0,876.0"/>
    <path d="M 657.0,700.0 L 662.0,689.0 L 704.0,678.0 L 750.0,679.0"/>
    <path d="M 656.0,777.0 L 662.0,766.0 L 694.0,759.0 L 738.0,754.0 L 757.0,759.0"/>
    <path d="M 646.0,864.0 L 659.0,855.0 L 760.0,837.0 L 787.0,823.0"/>
    <path d="M 648.0,914.0 L 663.0,944.0 L 646.0,968.0 L 587.0,1024.0 L 532.0,1053.0"/>
    <path d="M 759.0,898.0 L 847.0,986.0 L 862.0,1009.0 L 870.0,1038.0"/>
  </g>
</svg>
