<svg xmlns="http://www.w3.org/2000/svg" viewBox="0 0 1024 1024">
  <g style="fill:none;stroke:#000000;stroke-width:50;stroke-linecap:round;stroke-linejoin:round;" transform="scale(1, 1) translate(0, 0)">
    <path d="M 461.0,163.0 L 532.0,195.0 L 564.0,230.0"/>
    <path d="M 321.0,325.0 L 332.0,333.0 L 381.0,335.0 L 501.0,316.0 L 712.0,270.0 L 770.0,268.0"/>
    <path d="M 245.0,304.0 L 259.0,312.0 L 285.0,345.0 L 272.0,522.0 L 250.0,664.0 L 223.0,760.0 L 189.0,847.0 L 132.0,952.0 L 72.0,1031.0"/>
    <path d="M 113.0,437.0 L 167.0,485.0 L 180.0,510.0"/>
    <path d="M 46.0,711.0 L 100.0,709.0 L 219.0,626.0 L 225.0,608.0"/>
    <path d="M 384.0,505.0 L 389.0,497.0 L 439.0,476.0 L 459.0,474.0 L 470.0,484.0 L 438.0,546.0 L 430.0,575.0 L 436.0,596.0 L 458.0,623.0 L 478.0,664.0 L 478.0,704.0 L 464.0,710.0 L 408.0,693.0"/>
    <path d="M 327.0,473.0 L 352.0,502.0 L 358.0,565.0 L 353.0,763.0 L 348.0,778.0 L 352.0,787.0 L 345.0,824.0 L 349.0,837.0 L 343.0,848.0 L 347.0,863.0 L 330.0,963.0 L 333.0,1023.0"/>
    <path d="M 739.0,366.0 L 695.0,360.0 L 621.0,399.0 L 575.0,415.0 L 546.0,418.0 L 542.0,424.0"/>
    <path d="M 551.0,461.0 L 583.0,506.0"/>
    <path d="M 640.0,438.0 L 667.0,477.0"/>
    <path d="M 790.0,406.0 L 795.0,432.0 L 744.0,466.0 L 726.0,471.0 L 721.0,479.0"/>
    <path d="M 571.0,545.0 L 592.0,549.0 L 634.0,544.0 L 728.0,516.0 L 774.0,513.0"/>
    <path d="M 683.0,553.0 L 652.0,607.0"/>
    <path d="M 552.0,641.0 L 591.0,641.0 L 748.0,602.0 L 809.0,602.0"/>
    <path d="M 532.0,716.0 L 559.0,719.0 L 595.0,712.0 L 742.0,668.0 L 760.0,669.0 L 789.0,695.0 L 759.0,780.0 L 740.0,786.0"/>
    <path d="M 524.0,778.0 L 587.0,775.0 L 680.0,750.0 L 710.0,749.0"/>
    <path d="M 537.0,845.0 L 559.0,849.0 L 730.0,815.0 L 777.0,821.0"/>
    <path d="M 446.0,918.0 L 438.0,983.0 L 418.0,1045.0"/>
    <path d="M 512.0,934.0 L 546.0,997.0 L 584.0,1033.0 L 631.0,1055.0 L 711.0,1067.0 L 775.0,1063.0 L 813.0,1050.0 L 827.0,1038.0 L 805.0,998.0 L 758.0,937.0"/>
    <path d="M 609.0,890.0 L 660.0,921.0 L 672.0,948.0"/>
    <path d="M 821.0,854.0 L 902.0,901.0 L 925.0,936.0"/>
  </g>
</svg>
