<svg xmlns="http://www.w3.org/2000/svg" viewBox="0 0 1024 1024">
  <g style="fill:none;stroke:#000000;stroke-width:50;stroke-linecap:round;stroke-linejoin:round;" transform="scale(1, 1) translate(0, 0)">
    <path d="M 248.0,300.0 L 305.0,302.0 L 397.0,270.0 L 422.0,276.0 L 433.0,288.0 L 389.0,404.0 L 302.0,559.0 L 247.0,629.0 L 192.0,685.0 L 96.0,758.0"/>
    <path d="M 211.0,419.0 L 283.0,472.0 L 302.0,499.0"/>
    <path d="M 680.0,206.0 L 644.0,207.0 L 571.0,295.0"/>
    <path d="M 759.0,254.0 L 777.0,294.0 L 716.0,346.0 L 653.0,388.0 L 653.0,395.0"/>
    <path d="M 516.0,302.0 L 547.0,312.0 L 559.0,323.0 L 658.0,454.0 L 759.0,570.0 L 816.0,619.0 L 909.0,644.0 L 984.0,652.0"/>
  </g>
</svg>
