<svg xmlns="http://www.w3.org/2000/svg" viewBox="0 0 1024 1024">
  <g style="fill:none;stroke:#000000;stroke-width:50;stroke-linecap:round;stroke-linejoin:round;" transform="scale(1, 1) translate(0, 0)">
    <path d="M 234.0,314.0 L 289.0,322.0 L 386.0,297.0 L 423.0,313.0 L 415.0,346.0 L 381.0,418.0 L 292.0,565.0 L 233.0,632.0 L 166.0,693.0 L 79.0,751.0"/>
    <path d="M 197.0,432.0 L 274.0,476.0 L 284.0,484.0 L 292.0,505.0"/>
    <path d="M 673.0,220.0 L 639.0,220.0 L 582.0,291.0 L 567.0,300.0 L 567.0,312.0"/>
    <path d="M 755.0,256.0 L 776.0,296.0 L 664.0,385.0 L 649.0,395.0 L 641.0,392.0"/>
    <path d="M 510.0,313.0 L 544.0,323.0 L 698.0,504.0 L 812.0,606.0 L 880.0,622.0 L 965.0,632.0"/>
    <path d="M 353.0,586.0 L 409.0,591.0 L 548.0,556.0 L 587.0,550.0 L 611.0,555.0"/>
    <path d="M 249.0,760.0 L 302.0,765.0 L 503.0,724.0 L 657.0,701.0 L 729.0,716.0"/>
    <path d="M 425.0,615.0 L 465.0,645.0 L 453.0,750.0 L 414.0,854.0 L 371.0,909.0 L 345.0,930.0 L 288.0,963.0 L 225.0,986.0"/>
    <path d="M 537.0,821.0 L 632.0,888.0 L 682.0,932.0 L 701.0,958.0 L 716.0,998.0"/>
  </g>
</svg>
