<svg xmlns="http://www.w3.org/2000/svg" viewBox="0 0 1024 1024">
  <g style="fill:none;stroke:#000000;stroke-width:50;stroke-linecap:round;stroke-linejoin:round;" transform="scale(1, 1) translate(0, 0)">
    <path d="M 449.0,215.0 L 469.0,228.0 L 487.0,263.0 L 423.0,359.0 L 330.0,475.0 L 312.0,488.0"/>
    <path d="M 184.0,490.0 L 210.0,511.0 L 236.0,553.0 L 271.0,855.0 L 292.0,936.0"/>
    <path d="M 235.0,496.0 L 277.0,513.0 L 336.0,507.0 L 550.0,477.0 L 719.0,446.0 L 742.0,450.0 L 766.0,467.0 L 784.0,488.0 L 757.0,690.0 L 727.0,864.0 L 697.0,915.0 L 695.0,977.0"/>
    <path d="M 287.0,689.0 L 300.0,697.0 L 315.0,697.0 L 570.0,659.0 L 620.0,669.0"/>
    <path d="M 311.0,874.0 L 324.0,885.0 L 337.0,886.0 L 585.0,864.0 L 655.0,863.0"/>
  </g>
</svg>
