<svg xmlns="http://www.w3.org/2000/svg" viewBox="0 0 1024 1024">
  <g style="fill:none;stroke:#000000;stroke-width:50;stroke-linecap:round;stroke-linejoin:round;" transform="scale(1, 1) translate(0, 0)">
    <path d="M 232.0,263.0 L 248.0,269.0 L 273.0,293.0 L 184.0,491.0 L 166.0,507.0"/>
    <path d="M 83.0,507.0 L 109.0,531.0 L 119.0,596.0 L 119.0,708.0 L 105.0,841.0 L 107.0,884.0"/>
    <path d="M 138.0,522.0 L 165.0,528.0 L 230.0,506.0 L 286.0,496.0 L 307.0,503.0 L 323.0,522.0 L 325.0,764.0 L 314.0,843.0 L 323.0,914.0"/>
    <path d="M 146.0,689.0 L 158.0,673.0 L 185.0,665.0 L 229.0,659.0 L 255.0,663.0"/>
    <path d="M 137.0,854.0 L 150.0,840.0 L 249.0,828.0 L 282.0,814.0"/>
    <path d="M 687.0,272.0 L 697.0,284.0 L 705.0,317.0 L 598.0,394.0 L 532.0,432.0 L 529.0,443.0"/>
    <path d="M 451.0,413.0 L 462.0,418.0 L 489.0,452.0 L 483.0,603.0 L 470.0,703.0 L 446.0,801.0 L 410.0,891.0 L 368.0,962.0 L 336.0,1002.0"/>
    <path d="M 516.0,605.0 L 524.0,598.0 L 592.0,586.0 L 683.0,555.0 L 715.0,555.0 L 737.0,564.0 L 701.0,713.0 L 675.0,778.0 L 640.0,837.0 L 577.0,903.0 L 531.0,934.0 L 472.0,958.0 L 440.0,962.0"/>
    <path d="M 504.0,681.0 L 552.0,711.0 L 693.0,881.0 L 774.0,954.0 L 807.0,972.0 L 978.0,1006.0"/>
  </g>
</svg>
