<svg xmlns="http://www.w3.org/2000/svg" viewBox="0 0 1024 1024">
  <g style="fill:none;stroke:#000000;stroke-width:50;stroke-linecap:round;stroke-linejoin:round;" transform="scale(1, 1) translate(0, 0)">
    <path d="M 265.0,287.0 L 278.0,294.0 L 300.0,323.0 L 250.0,414.0 L 175.0,521.0 L 161.0,527.0"/>
    <path d="M 103.0,523.0 L 130.0,554.0 L 141.0,577.0 L 144.0,825.0 L 158.0,902.0"/>
    <path d="M 160.0,541.0 L 173.0,547.0 L 309.0,512.0 L 325.0,516.0 L 351.0,541.0 L 343.0,796.0 L 327.0,846.0 L 332.0,894.0"/>
    <path d="M 174.0,696.0 L 183.0,683.0 L 231.0,672.0 L 263.0,669.0 L 284.0,674.0"/>
    <path d="M 181.0,844.0 L 189.0,833.0 L 306.0,807.0"/>
    <path d="M 531.0,194.0 L 632.0,257.0 L 652.0,292.0"/>
    <path d="M 460.0,435.0 L 470.0,440.0 L 535.0,436.0 L 760.0,373.0 L 812.0,369.0"/>
    <path d="M 519.0,508.0 L 539.0,538.0 L 445.0,646.0"/>
    <path d="M 689.0,496.0 L 784.0,536.0 L 811.0,560.0 L 826.0,587.0"/>
    <path d="M 658.0,607.0 L 674.0,626.0 L 684.0,654.0 L 630.0,778.0 L 593.0,837.0 L 526.0,904.0 L 485.0,932.0 L 421.0,959.0 L 363.0,972.0"/>
    <path d="M 464.0,682.0 L 522.0,713.0 L 692.0,893.0 L 785.0,963.0 L 908.0,987.0 L 990.0,995.0"/>
  </g>
</svg>
