<svg xmlns="http://www.w3.org/2000/svg" viewBox="0 0 1024 1024">
  <g style="fill:none;stroke:#000000;stroke-width:50;stroke-linecap:round;stroke-linejoin:round;" transform="scale(1, 1) translate(0, 0)">
    <path d="M 241.0,253.0 L 266.0,272.0 L 267.0,289.0 L 176.0,477.0 L 160.0,487.0"/>
    <path d="M 91.0,498.0 L 114.0,522.0 L 123.0,551.0 L 131.0,634.0 L 123.0,788.0 L 127.0,841.0"/>
    <path d="M 136.0,507.0 L 157.0,511.0 L 233.0,485.0 L 266.0,480.0 L 292.0,498.0 L 296.0,508.0 L 295.0,705.0 L 290.0,779.0 L 284.0,806.0 L 272.0,826.0 L 276.0,869.0"/>
    <path d="M 156.0,674.0 L 162.0,661.0 L 179.0,651.0 L 203.0,645.0 L 238.0,647.0"/>
    <path d="M 155.0,813.0 L 168.0,796.0 L 201.0,790.0 L 247.0,795.0"/>
    <path d="M 534.0,205.0 L 623.0,258.0 L 645.0,291.0"/>
    <path d="M 405.0,364.0 L 420.0,407.0 L 396.0,488.0 L 393.0,523.0"/>
    <path d="M 453.0,420.0 L 605.0,382.0 L 757.0,357.0 L 783.0,367.0 L 803.0,391.0 L 742.0,465.0"/>
    <path d="M 479.0,547.0 L 527.0,550.0 L 650.0,517.0 L 693.0,517.0"/>
    <path d="M 395.0,678.0 L 451.0,683.0 L 705.0,630.0 L 744.0,625.0 L 784.0,631.0"/>
    <path d="M 479.0,701.0 L 506.0,735.0 L 473.0,810.0 L 447.0,851.0 L 385.0,920.0 L 313.0,972.0 L 275.0,989.0"/>
    <path d="M 614.0,681.0 L 640.0,697.0 L 629.0,856.0 L 635.0,922.0 L 653.0,965.0 L 673.0,979.0 L 727.0,995.0 L 790.0,998.0 L 845.0,989.0 L 882.0,972.0 L 905.0,952.0 L 916.0,825.0"/>
  </g>
</svg>
