<svg xmlns="http://www.w3.org/2000/svg" viewBox="0 0 1024 1024">
  <g style="fill:none;stroke:#000000;stroke-width:50;stroke-linecap:round;stroke-linejoin:round;" transform="scale(1, 1) translate(0, 0)">
    <path d="M 122.0,378.0 L 153.0,385.0 L 189.0,383.0 L 398.0,339.0 L 432.0,341.0"/>
    <path d="M 236.0,399.0 L 255.0,417.0 L 261.0,433.0 L 219.0,522.0 L 208.0,530.0"/>
    <path d="M 131.0,540.0 L 159.0,580.0 L 162.0,779.0 L 156.0,880.0 L 161.0,927.0"/>
    <path d="M 169.0,542.0 L 204.0,551.0 L 297.0,527.0 L 353.0,520.0 L 373.0,524.0 L 396.0,546.0 L 393.0,806.0 L 383.0,865.0 L 388.0,933.0"/>
    <path d="M 190.0,703.0 L 272.0,685.0 L 321.0,682.0"/>
    <path d="M 186.0,878.0 L 199.0,864.0 L 273.0,849.0 L 315.0,847.0 L 327.0,859.0"/>
    <path d="M 484.0,348.0 L 529.0,355.0 L 678.0,326.0 L 830.0,308.0 L 875.0,310.0 L 919.0,322.0"/>
    <path d="M 608.0,363.0 L 632.0,380.0 L 639.0,398.0 L 601.0,491.0 L 573.0,523.0"/>
    <path d="M 488.0,526.0 L 512.0,551.0 L 525.0,613.0 L 531.0,756.0 L 524.0,910.0 L 532.0,970.0"/>
    <path d="M 537.0,536.0 L 560.0,546.0 L 775.0,500.0 L 803.0,515.0 L 823.0,536.0 L 828.0,889.0 L 814.0,939.0 L 761.0,919.0 L 750.0,895.0"/>
    <path d="M 558.0,736.0 L 568.0,727.0 L 690.0,707.0 L 732.0,708.0"/>
    <path d="M 558.0,933.0 L 572.0,919.0 L 704.0,901.0 L 722.0,901.0 L 732.0,916.0"/>
  </g>
</svg>
