<svg xmlns="http://www.w3.org/2000/svg" viewBox="0 0 1024 1024">
  <g style="fill:none;stroke:#000000;stroke-width:50;stroke-linecap:round;stroke-linejoin:round;" transform="scale(1, 1) translate(0, 0)">
    <path d="M 169.0,379.0 L 187.0,384.0 L 242.0,381.0 L 400.0,345.0 L 452.0,344.0"/>
    <path d="M 320.0,218.0 L 357.0,259.0 L 339.0,664.0"/>
    <path d="M 324.0,394.0 L 315.0,401.0 L 305.0,443.0 L 263.0,505.0 L 200.0,578.0 L 130.0,640.0"/>
    <path d="M 374.0,436.0 L 439.0,475.0 L 456.0,498.0"/>
    <path d="M 771.0,262.0 L 715.0,254.0 L 648.0,301.0 L 594.0,324.0 L 593.0,332.0"/>
    <path d="M 519.0,315.0 L 539.0,328.0 L 555.0,350.0 L 548.0,467.0 L 536.0,507.0 L 518.0,540.0 L 497.0,565.0 L 462.0,589.0"/>
    <path d="M 581.0,422.0 L 594.0,414.0 L 687.0,403.0 L 829.0,372.0 L 885.0,383.0"/>
    <path d="M 693.0,426.0 L 724.0,451.0 L 723.0,668.0"/>
    <path d="M 525.0,639.0 L 492.0,640.0 L 452.0,695.0 L 410.0,739.0"/>
    <path d="M 281.0,735.0 L 306.0,753.0 L 326.0,788.0 L 343.0,959.0 L 360.0,1029.0"/>
    <path d="M 339.0,748.0 L 364.0,759.0 L 432.0,752.0 L 657.0,713.0 L 685.0,724.0 L 706.0,748.0 L 679.0,956.0 L 672.0,984.0 L 657.0,1008.0 L 658.0,1063.0"/>
    <path d="M 369.0,883.0 L 377.0,874.0 L 528.0,850.0 L 562.0,848.0 L 589.0,854.0"/>
    <path d="M 378.0,1009.0 L 396.0,996.0 L 633.0,971.0"/>
  </g>
</svg>
