<svg xmlns="http://www.w3.org/2000/svg" viewBox="0 0 1024 1024">
  <g style="fill:none;stroke:#000000;stroke-width:50;stroke-linecap:round;stroke-linejoin:round;" transform="scale(1, 1) translate(0, 0)">
    <path d="M 209.0,294.0 L 244.0,323.0 L 211.0,392.0 L 150.0,492.0 L 139.0,496.0"/>
    <path d="M 79.0,496.0 L 105.0,522.0 L 110.0,538.0 L 115.0,639.0 L 108.0,844.0 L 113.0,883.0"/>
    <path d="M 130.0,511.0 L 144.0,515.0 L 246.0,484.0 L 262.0,486.0 L 292.0,508.0 L 286.0,797.0 L 276.0,840.0 L 280.0,890.0"/>
    <path d="M 141.0,675.0 L 162.0,660.0 L 204.0,655.0 L 224.0,660.0"/>
    <path d="M 137.0,845.0 L 152.0,827.0 L 238.0,818.0"/>
    <path d="M 719.0,249.0 L 658.0,240.0 L 597.0,281.0 L 513.0,320.0 L 480.0,332.0 L 470.0,329.0 L 460.0,338.0"/>
    <path d="M 416.0,386.0 L 475.0,423.0 L 499.0,460.0"/>
    <path d="M 743.0,309.0 L 757.0,343.0 L 662.0,419.0"/>
    <path d="M 384.0,528.0 L 429.0,533.0 L 522.0,511.0 L 757.0,471.0 L 842.0,482.0"/>
    <path d="M 556.0,324.0 L 580.0,339.0 L 596.0,361.0 L 583.0,640.0 L 588.0,680.0"/>
    <path d="M 564.0,528.0 L 467.0,636.0 L 401.0,689.0 L 338.0,720.0"/>
    <path d="M 615.0,523.0 L 679.0,577.0 L 806.0,656.0 L 887.0,665.0 L 957.0,664.0"/>
    <path d="M 380.0,756.0 L 402.0,775.0 L 415.0,798.0 L 452.0,1017.0"/>
    <path d="M 431.0,758.0 L 455.0,771.0 L 707.0,722.0 L 738.0,726.0 L 760.0,744.0 L 770.0,756.0 L 741.0,958.0 L 718.0,1007.0 L 719.0,1063.0"/>
    <path d="M 493.0,880.0 L 614.0,855.0 L 643.0,853.0 L 667.0,859.0"/>
    <path d="M 556.0,772.0 L 581.0,795.0 L 578.0,928.0 L 562.0,950.0"/>
    <path d="M 474.0,994.0 L 490.0,983.0 L 611.0,967.0 L 683.0,968.0"/>
  </g>
</svg>
