<svg xmlns="http://www.w3.org/2000/svg" viewBox="0 0 1024 1024">
  <g style="fill:none;stroke:#000000;stroke-width:50;stroke-linecap:round;stroke-linejoin:round;" transform="scale(1, 1) translate(0, 0)">
    <path d="M 344.0,487.0 L 359.0,468.0 L 679.0,394.0 L 727.0,391.0 L 750.0,398.0 L 771.0,419.0 L 707.0,527.0"/>
    <path d="M 262.0,441.0 L 292.0,465.0 L 304.0,495.0 L 302.0,619.0 L 279.0,767.0 L 249.0,855.0 L 210.0,924.0 L 157.0,984.0 L 122.0,1013.0 L 90.0,1030.0"/>
    <path d="M 483.0,205.0 L 533.0,246.0 L 522.0,595.0 L 504.0,623.0"/>
    <path d="M 402.0,656.0 L 459.0,654.0 L 614.0,617.0 L 636.0,626.0 L 650.0,647.0 L 630.0,736.0 L 608.0,793.0 L 583.0,840.0 L 545.0,892.0 L 495.0,934.0 L 451.0,957.0 L 343.0,992.0 L 305.0,997.0"/>
    <path d="M 372.0,722.0 L 395.0,723.0 L 440.0,744.0 L 490.0,786.0 L 595.0,892.0 L 661.0,946.0 L 735.0,995.0 L 790.0,1013.0 L 953.0,1030.0"/>
  </g>
</svg>
