<svg xmlns="http://www.w3.org/2000/svg" viewBox="0 0 1024 1024">
  <g style="fill:none;stroke:#000000;stroke-width:50;stroke-linecap:round;stroke-linejoin:round;" transform="scale(1, 1) translate(0, 0)">
    <path d="M 294.0,178.0 L 311.0,201.0 L 315.0,224.0 L 283.0,276.0 L 239.0,331.0 L 191.0,372.0"/>
    <path d="M 265.0,334.0 L 301.0,335.0 L 439.0,300.0 L 471.0,303.0 L 493.0,325.0 L 474.0,463.0 L 450.0,537.0 L 435.0,548.0 L 382.0,523.0"/>
    <path d="M 166.0,408.0 L 182.0,441.0 L 175.0,503.0 L 205.0,505.0 L 279.0,480.0 L 318.0,474.0 L 331.0,463.0"/>
    <path d="M 359.0,396.0 L 368.0,420.0 L 343.0,509.0"/>
    <path d="M 251.0,385.0 L 269.0,410.0 L 264.0,470.0 L 245.0,532.0 L 215.0,577.0"/>
    <path d="M 237.0,623.0 L 218.0,629.0 L 190.0,676.0 L 150.0,715.0"/>
    <path d="M 217.0,677.0 L 422.0,640.0 L 435.0,641.0 L 453.0,657.0 L 431.0,804.0 L 412.0,876.0 L 395.0,912.0 L 363.0,944.0 L 339.0,934.0 L 306.0,907.0"/>
    <path d="M 121.0,751.0 L 137.0,784.0 L 127.0,826.0 L 127.0,850.0 L 133.0,852.0 L 152.0,853.0 L 298.0,815.0 L 308.0,806.0"/>
    <path d="M 339.0,713.0 L 350.0,736.0 L 323.0,847.0"/>
    <path d="M 217.0,714.0 L 245.0,748.0 L 232.0,842.0 L 215.0,894.0 L 190.0,945.0 L 160.0,982.0 L 103.0,1018.0"/>
    <path d="M 586.0,460.0 L 614.0,468.0 L 786.0,419.0 L 818.0,413.0 L 842.0,416.0 L 867.0,437.0 L 843.0,480.0 L 802.0,533.0"/>
    <path d="M 535.0,453.0 L 560.0,473.0 L 571.0,517.0 L 570.0,617.0 L 559.0,709.0 L 526.0,828.0 L 490.0,900.0 L 467.0,931.0"/>
    <path d="M 656.0,203.0 L 701.0,243.0 L 690.0,580.0 L 673.0,608.0"/>
    <path d="M 596.0,642.0 L 603.0,636.0 L 666.0,632.0 L 727.0,612.0 L 765.0,614.0 L 786.0,624.0 L 766.0,710.0 L 740.0,784.0 L 685.0,875.0 L 641.0,917.0 L 607.0,939.0 L 572.0,955.0 L 520.0,966.0"/>
    <path d="M 589.0,695.0 L 623.0,725.0 L 676.0,800.0 L 753.0,891.0 L 815.0,944.0 L 832.0,954.0 L 961.0,980.0"/>
  </g>
</svg>
