<svg xmlns="http://www.w3.org/2000/svg" viewBox="0 0 1024 1024">
  <g style="fill:none;stroke:#000000;stroke-width:50;stroke-linecap:round;stroke-linejoin:round;" transform="scale(1, 1) translate(0, 0)">
    <path d="M 181.0,487.0 L 220.0,515.0 L 236.0,541.0 L 279.0,767.0 L 284.0,783.0 L 299.0,788.0"/>
    <path d="M 250.0,493.0 L 277.0,506.0 L 666.0,443.0 L 711.0,440.0 L 745.0,445.0 L 779.0,481.0 L 713.0,721.0 L 705.0,738.0 L 678.0,758.0"/>
    <path d="M 382.0,513.0 L 393.0,524.0 L 399.0,550.0 L 421.0,761.0 L 432.0,782.0"/>
    <path d="M 557.0,487.0 L 585.0,500.0 L 591.0,514.0 L 554.0,748.0 L 546.0,764.0 L 535.0,771.0"/>
    <path d="M 74.0,825.0 L 110.0,840.0 L 146.0,846.0 L 471.0,805.0 L 863.0,776.0 L 950.0,808.0"/>
  </g>
</svg>
