<svg xmlns="http://www.w3.org/2000/svg" viewBox="0 0 1024 1024">
  <g style="fill:none;stroke:#000000;stroke-width:50;stroke-linecap:round;stroke-linejoin:round;" transform="scale(1, 1) translate(0, 0)">
    <path d="M 274.0,296.0 L 320.0,308.0 L 623.0,251.0 L 658.0,253.0 L 667.0,260.0 L 623.0,388.0 L 666.0,394.0 L 725.0,386.0 L 751.0,391.0 L 778.0,418.0 L 778.0,433.0 L 747.0,564.0 L 714.0,631.0 L 681.0,650.0 L 601.0,598.0"/>
    <path d="M 376.0,327.0 L 403.0,354.0 L 371.0,448.0 L 341.0,509.0 L 310.0,555.0 L 252.0,619.0 L 176.0,678.0 L 128.0,705.0"/>
    <path d="M 382.0,483.0 L 400.0,474.0 L 486.0,458.0 L 514.0,457.0 L 533.0,466.0 L 494.0,540.0 L 439.0,609.0 L 388.0,656.0 L 345.0,685.0"/>
    <path d="M 375.0,541.0 L 500.0,615.0 L 532.0,642.0 L 548.0,668.0"/>
    <path d="M 245.0,764.0 L 275.0,787.0 L 287.0,811.0 L 313.0,945.0 L 326.0,950.0"/>
    <path d="M 302.0,769.0 L 328.0,781.0 L 621.0,735.0 L 695.0,729.0 L 713.0,733.0 L 744.0,769.0 L 706.0,898.0 L 676.0,926.0"/>
    <path d="M 411.0,794.0 L 420.0,798.0 L 432.0,915.0 L 444.0,946.0"/>
    <path d="M 546.0,770.0 L 573.0,790.0 L 559.0,885.0 L 548.0,930.0 L 539.0,938.0"/>
    <path d="M 138.0,982.0 L 195.0,1001.0 L 418.0,973.0 L 808.0,946.0 L 839.0,950.0 L 898.0,975.0"/>
  </g>
</svg>
