<svg xmlns="http://www.w3.org/2000/svg" viewBox="0 0 1024 1024">
  <g style="fill:none;stroke:#000000;stroke-width:50;stroke-linecap:round;stroke-linejoin:round;" transform="scale(1, 1) translate(0, 0)">
    <path d="M 350.0,289.0 L 372.0,295.0 L 423.0,294.0 L 632.0,248.0 L 680.0,250.0"/>
    <path d="M 221.0,483.0 L 249.0,490.0 L 280.0,489.0 L 456.0,454.0 L 729.0,416.0 L 764.0,416.0 L 827.0,431.0"/>
    <path d="M 497.0,306.0 L 528.0,328.0 L 537.0,383.0 L 542.0,522.0 L 540.0,565.0 L 530.0,603.0 L 503.0,638.0 L 392.0,591.0"/>
    <path d="M 233.0,738.0 L 266.0,763.0 L 282.0,809.0 L 310.0,936.0 L 328.0,955.0"/>
    <path d="M 299.0,743.0 L 320.0,755.0 L 663.0,704.0 L 709.0,708.0 L 741.0,742.0 L 694.0,909.0 L 669.0,928.0"/>
    <path d="M 411.0,759.0 L 421.0,770.0 L 427.0,798.0 L 434.0,910.0 L 445.0,949.0"/>
    <path d="M 547.0,744.0 L 579.0,764.0 L 544.0,916.0 L 535.0,934.0 L 523.0,941.0"/>
    <path d="M 92.0,984.0 L 153.0,1005.0 L 419.0,973.0 L 835.0,948.0 L 879.0,951.0 L 937.0,975.0"/>
  </g>
</svg>
