<svg xmlns="http://www.w3.org/2000/svg" viewBox="0 0 1024 1024">
  <g style="fill:none;stroke:#000000;stroke-width:50;stroke-linecap:round;stroke-linejoin:round;" transform="scale(1, 1) translate(0, 0)">
    <path d="M 254.0,280.0 L 304.0,289.0 L 479.0,263.0 L 731.0,242.0 L 803.0,261.0"/>
    <path d="M 519.0,281.0 L 547.0,321.0 L 510.0,382.0 L 453.0,453.0 L 323.0,571.0 L 187.0,648.0"/>
    <path d="M 526.0,418.0 L 519.0,422.0 L 500.0,475.0 L 495.0,608.0 L 503.0,645.0"/>
    <path d="M 632.0,464.0 L 771.0,515.0 L 796.0,531.0 L 831.0,574.0"/>
    <path d="M 253.0,763.0 L 292.0,788.0 L 301.0,800.0 L 338.0,938.0 L 357.0,953.0"/>
    <path d="M 320.0,766.0 L 345.0,778.0 L 626.0,729.0 L 685.0,722.0 L 720.0,726.0 L 752.0,766.0 L 710.0,900.0 L 675.0,927.0"/>
    <path d="M 427.0,784.0 L 439.0,798.0 L 451.0,919.0 L 465.0,945.0"/>
    <path d="M 549.0,764.0 L 573.0,782.0 L 578.0,796.0 L 554.0,923.0 L 537.0,934.0"/>
    <path d="M 106.0,986.0 L 130.0,997.0 L 169.0,1003.0 L 311.0,981.0 L 495.0,964.0 L 853.0,945.0 L 936.0,974.0"/>
  </g>
</svg>
