<svg xmlns="http://www.w3.org/2000/svg" viewBox="0 0 1024 1024">
  <g style="fill:none;stroke:#000000;stroke-width:50;stroke-linecap:round;stroke-linejoin:round;" transform="scale(1, 1) translate(0, 0)">
    <path d="M 329.0,266.0 L 388.0,307.0 L 416.0,343.0"/>
    <path d="M 646.0,178.0 L 666.0,200.0 L 671.0,222.0 L 537.0,349.0 L 538.0,354.0"/>
    <path d="M 276.0,461.0 L 298.0,468.0 L 360.0,469.0 L 676.0,410.0 L 735.0,409.0"/>
    <path d="M 409.0,565.0 L 380.0,567.0 L 317.0,628.0 L 239.0,678.0 L 199.0,693.0"/>
    <path d="M 582.0,516.0 L 712.0,571.0 L 743.0,594.0 L 769.0,632.0"/>
    <path d="M 247.0,725.0 L 273.0,743.0 L 294.0,773.0 L 319.0,909.0 L 324.0,925.0 L 337.0,930.0"/>
    <path d="M 294.0,721.0 L 330.0,736.0 L 641.0,689.0 L 703.0,692.0 L 727.0,716.0 L 734.0,732.0 L 686.0,895.0 L 658.0,915.0"/>
    <path d="M 424.0,750.0 L 441.0,899.0 L 452.0,930.0"/>
    <path d="M 558.0,724.0 L 579.0,740.0 L 583.0,750.0 L 548.0,912.0 L 531.0,919.0"/>
    <path d="M 113.0,961.0 L 172.0,981.0 L 495.0,950.0 L 857.0,933.0 L 899.0,943.0 L 945.0,964.0"/>
  </g>
</svg>
