<svg xmlns="http://www.w3.org/2000/svg" viewBox="0 0 1024 1024">
  <g style="fill:none;stroke:#000000;stroke-width:50;stroke-linecap:round;stroke-linejoin:round;" transform="scale(1, 1) translate(0, 0)">
    <path d="M 249.0,303.0 L 329.0,352.0 L 358.0,390.0"/>
    <path d="M 206.0,651.0 L 256.0,655.0 L 369.0,509.0"/>
    <path d="M 506.0,198.0 L 519.0,206.0 L 539.0,237.0 L 529.0,266.0 L 473.0,378.0 L 409.0,459.0"/>
    <path d="M 504.0,378.0 L 682.0,331.0 L 710.0,327.0 L 733.0,332.0 L 755.0,356.0 L 669.0,449.0"/>
    <path d="M 532.0,428.0 L 544.0,435.0 L 563.0,467.0 L 539.0,544.0 L 501.0,617.0 L 441.0,674.0 L 363.0,709.0"/>
    <path d="M 571.0,541.0 L 577.0,556.0 L 656.0,623.0 L 719.0,664.0 L 781.0,676.0 L 898.0,682.0"/>
    <path d="M 268.0,786.0 L 292.0,804.0 L 310.0,836.0 L 331.0,953.0 L 349.0,974.0"/>
    <path d="M 322.0,787.0 L 343.0,798.0 L 643.0,753.0 L 692.0,757.0 L 723.0,798.0 L 686.0,916.0 L 652.0,943.0"/>
    <path d="M 440.0,805.0 L 438.0,837.0 L 453.0,942.0 L 464.0,964.0"/>
    <path d="M 554.0,788.0 L 583.0,813.0 L 556.0,929.0 L 540.0,958.0"/>
    <path d="M 148.0,999.0 L 200.0,1011.0 L 394.0,990.0 L 789.0,968.0 L 881.0,991.0"/>
  </g>
</svg>
