<svg xmlns="http://www.w3.org/2000/svg" viewBox="0 0 1024 1024">
  <g style="fill:none;stroke:#000000;stroke-width:50;stroke-linecap:round;stroke-linejoin:round;" transform="scale(1, 1) translate(0, 0)">
    <path d="M 472.0,176.0 L 496.0,210.0 L 418.0,307.0 L 406.0,305.0"/>
    <path d="M 355.0,313.0 L 374.0,329.0 L 386.0,353.0 L 380.0,491.0 L 346.0,610.0 L 296.0,690.0"/>
    <path d="M 402.0,320.0 L 432.0,333.0 L 460.0,331.0 L 597.0,300.0 L 625.0,316.0 L 637.0,334.0 L 630.0,425.0 L 635.0,581.0 L 628.0,642.0 L 611.0,666.0 L 581.0,657.0 L 518.0,623.0"/>
    <path d="M 458.0,379.0 L 495.0,397.0 L 523.0,420.0"/>
    <path d="M 154.0,489.0 L 208.0,498.0 L 465.0,466.0 L 773.0,444.0 L 805.0,445.0 L 868.0,465.0"/>
    <path d="M 445.0,513.0 L 507.0,547.0 L 528.0,572.0"/>
    <path d="M 250.0,766.0 L 279.0,787.0 L 315.0,913.0 L 329.0,929.0"/>
    <path d="M 310.0,770.0 L 321.0,780.0 L 332.0,781.0 L 652.0,738.0 L 712.0,740.0 L 737.0,765.0 L 742.0,780.0 L 713.0,870.0 L 680.0,899.0"/>
    <path d="M 419.0,790.0 L 428.0,800.0 L 438.0,891.0 L 451.0,921.0"/>
    <path d="M 557.0,769.0 L 585.0,793.0 L 557.0,896.0 L 543.0,913.0"/>
    <path d="M 170.0,955.0 L 222.0,967.0 L 492.0,940.0 L 777.0,924.0 L 831.0,929.0 L 877.0,946.0"/>
  </g>
</svg>
