<svg xmlns="http://www.w3.org/2000/svg" viewBox="0 0 1024 1024">
  <g style="fill:none;stroke:#000000;stroke-width:50;stroke-linecap:round;stroke-linejoin:round;" transform="scale(1, 1) translate(0, 0)">
    <path d="M 252.0,365.0 L 299.0,375.0 L 626.0,318.0 L 690.0,313.0 L 721.0,320.0"/>
    <path d="M 430.0,195.0 L 455.0,210.0 L 473.0,237.0 L 410.0,386.0 L 349.0,506.0 L 299.0,578.0 L 250.0,632.0 L 179.0,695.0 L 128.0,729.0"/>
    <path d="M 381.0,508.0 L 412.0,526.0 L 435.0,555.0"/>
    <path d="M 730.0,458.0 L 699.0,445.0 L 606.0,515.0"/>
    <path d="M 511.0,409.0 L 530.0,426.0 L 541.0,450.0 L 530.0,533.0 L 507.0,597.0 L 450.0,666.0 L 381.0,705.0 L 334.0,719.0"/>
    <path d="M 560.0,555.0 L 558.0,568.0 L 580.0,590.0 L 697.0,685.0 L 760.0,702.0 L 858.0,712.0"/>
    <path d="M 254.0,799.0 L 284.0,821.0 L 291.0,833.0 L 321.0,968.0 L 333.0,972.0"/>
    <path d="M 311.0,805.0 L 333.0,817.0 L 641.0,766.0 L 684.0,767.0 L 702.0,779.0 L 720.0,803.0 L 689.0,921.0 L 660.0,948.0"/>
    <path d="M 419.0,824.0 L 427.0,833.0 L 439.0,952.0 L 447.0,970.0"/>
    <path d="M 541.0,799.0 L 569.0,821.0 L 551.0,922.0 L 533.0,962.0"/>
    <path d="M 146.0,1007.0 L 198.0,1019.0 L 411.0,993.0 L 777.0,969.0 L 840.0,974.0 L 885.0,990.0"/>
  </g>
</svg>
