<svg xmlns="http://www.w3.org/2000/svg" viewBox="0 0 1024 1024">
  <g style="fill:none;stroke:#000000;stroke-width:50;stroke-linecap:round;stroke-linejoin:round;" transform="scale(1, 1) translate(0, 0)">
    <path d="M 361.0,157.0 L 384.0,180.0 L 349.0,260.0 L 340.0,268.0 L 339.0,283.0 L 327.0,296.0 L 325.0,309.0 L 310.0,318.0"/>
    <path d="M 253.0,320.0 L 284.0,344.0 L 288.0,356.0 L 292.0,471.0 L 285.0,563.0 L 271.0,618.0 L 245.0,671.0 L 204.0,726.0 L 160.0,759.0"/>
    <path d="M 310.0,331.0 L 324.0,336.0 L 420.0,305.0 L 437.0,310.0 L 457.0,332.0 L 455.0,677.0 L 441.0,700.0 L 362.0,667.0"/>
    <path d="M 340.0,383.0 L 369.0,408.0 L 384.0,437.0"/>
    <path d="M 75.0,534.0 L 126.0,556.0 L 511.0,456.0"/>
    <path d="M 340.0,549.0 L 368.0,573.0 L 384.0,602.0"/>
    <path d="M 575.0,254.0 L 601.0,278.0 L 602.0,339.0 L 575.0,433.0 L 540.0,482.0"/>
    <path d="M 628.0,248.0 L 640.0,257.0 L 709.0,233.0 L 729.0,237.0 L 741.0,249.0 L 721.0,343.0 L 725.0,377.0 L 744.0,398.0 L 788.0,409.0 L 864.0,399.0 L 894.0,406.0"/>
    <path d="M 594.0,498.0 L 662.0,498.0 L 720.0,479.0 L 749.0,483.0 L 766.0,493.0 L 739.0,567.0 L 688.0,638.0 L 619.0,679.0 L 546.0,696.0"/>
    <path d="M 565.0,537.0 L 607.0,550.0 L 722.0,639.0 L 824.0,695.0 L 865.0,707.0 L 981.0,695.0"/>
    <path d="M 274.0,786.0 L 295.0,801.0 L 315.0,832.0 L 342.0,957.0 L 360.0,974.0"/>
    <path d="M 315.0,784.0 L 351.0,797.0 L 534.0,772.0 L 686.0,759.0 L 705.0,764.0 L 720.0,778.0 L 735.0,806.0 L 695.0,924.0 L 661.0,946.0"/>
    <path d="M 416.0,808.0 L 431.0,831.0 L 447.0,931.0 L 463.0,968.0"/>
    <path d="M 544.0,791.0 L 575.0,826.0 L 546.0,941.0 L 542.0,951.0 L 529.0,957.0"/>
    <path d="M 124.0,1003.0 L 177.0,1015.0 L 501.0,988.0 L 820.0,972.0 L 874.0,977.0 L 933.0,996.0"/>
  </g>
</svg>
