<svg xmlns="http://www.w3.org/2000/svg" viewBox="0 0 1024 1024">
  <g style="fill:none;stroke:#000000;stroke-width:50;stroke-linecap:round;stroke-linejoin:round;" transform="scale(1, 1) translate(0, 0)">
    <path d="M 110.0,317.0 L 138.0,349.0 L 148.0,421.0 L 148.0,591.0 L 134.0,778.0 L 140.0,849.0"/>
    <path d="M 172.0,337.0 L 187.0,342.0 L 295.0,311.0 L 337.0,337.0 L 336.0,715.0 L 333.0,772.0 L 324.0,801.0 L 328.0,851.0"/>
    <path d="M 175.0,508.0 L 183.0,496.0 L 199.0,488.0 L 257.0,488.0"/>
    <path d="M 174.0,648.0 L 182.0,635.0 L 195.0,629.0 L 236.0,625.0 L 264.0,631.0"/>
    <path d="M 169.0,800.0 L 188.0,785.0 L 277.0,779.0"/>
    <path d="M 490.0,321.0 L 559.0,327.0 L 651.0,312.0 L 728.0,290.0 L 788.0,290.0"/>
    <path d="M 399.0,559.0 L 460.0,565.0 L 587.0,541.0 L 853.0,506.0 L 893.0,509.0 L 946.0,524.0"/>
    <path d="M 607.0,345.0 L 636.0,363.0 L 643.0,375.0 L 658.0,482.0 L 670.0,749.0 L 657.0,880.0 L 639.0,934.0 L 604.0,975.0 L 568.0,956.0 L 492.0,896.0"/>
  </g>
</svg>
