<svg xmlns="http://www.w3.org/2000/svg" viewBox="0 0 1024 1024">
  <g style="fill:none;stroke:#000000;stroke-width:50;stroke-linecap:round;stroke-linejoin:round;" transform="scale(1, 1) translate(0, 0)">
    <path d="M 272.0,375.0 L 328.0,387.0 L 728.0,332.0 L 800.0,343.0"/>
    <path d="M 495.0,199.0 L 524.0,227.0 L 533.0,249.0 L 498.0,477.0 L 479.0,497.0"/>
    <path d="M 339.0,504.0 L 366.0,528.0 L 379.0,555.0 L 383.0,911.0 L 385.0,925.0 L 400.0,939.0"/>
    <path d="M 394.0,515.0 L 424.0,527.0 L 475.0,521.0 L 636.0,484.0 L 656.0,492.0 L 670.0,507.0 L 680.0,527.0 L 666.0,695.0 L 662.0,900.0 L 640.0,915.0"/>
    <path d="M 415.0,647.0 L 424.0,636.0 L 516.0,617.0 L 558.0,611.0 L 579.0,617.0"/>
    <path d="M 415.0,754.0 L 425.0,741.0 L 489.0,728.0 L 549.0,719.0 L 571.0,725.0"/>
    <path d="M 416.0,855.0 L 424.0,842.0 L 487.0,831.0 L 561.0,822.0 L 582.0,828.0"/>
    <path d="M 136.0,972.0 L 197.0,993.0 L 417.0,966.0 L 795.0,940.0 L 843.0,940.0 L 913.0,967.0"/>
  </g>
</svg>
