<svg xmlns="http://www.w3.org/2000/svg" viewBox="0 0 1024 1024">
  <g style="fill:none;stroke:#000000;stroke-width:50;stroke-linecap:round;stroke-linejoin:round;" transform="scale(1, 1) translate(0, 0)">
    <path d="M 109.0,339.0 L 138.0,370.0 L 144.0,387.0 L 143.0,627.0 L 127.0,815.0 L 132.0,884.0"/>
    <path d="M 170.0,359.0 L 188.0,361.0 L 275.0,329.0 L 305.0,337.0 L 325.0,355.0 L 324.0,806.0 L 313.0,851.0 L 316.0,901.0"/>
    <path d="M 168.0,539.0 L 177.0,537.0 L 182.0,527.0 L 222.0,516.0 L 265.0,517.0"/>
    <path d="M 163.0,675.0 L 179.0,661.0 L 211.0,652.0 L 260.0,653.0"/>
    <path d="M 160.0,856.0 L 181.0,840.0 L 268.0,828.0"/>
    <path d="M 475.0,381.0 L 488.0,389.0 L 507.0,419.0 L 488.0,469.0 L 439.0,561.0 L 397.0,621.0 L 373.0,643.0"/>
    <path d="M 538.0,220.0 L 971.0,600.0"/>
    <path d="M 406.0,687.0 L 462.0,690.0 L 688.0,631.0 L 706.0,631.0 L 728.0,648.0 L 727.0,691.0 L 703.0,838.0 L 681.0,910.0 L 663.0,943.0 L 638.0,967.0 L 626.0,968.0 L 593.0,953.0 L 536.0,914.0"/>
    <path d="M 507.0,703.0 L 530.0,719.0 L 536.0,739.0 L 503.0,816.0 L 424.0,935.0 L 379.0,986.0 L 343.0,1014.0"/>
  </g>
</svg>
