<svg xmlns="http://www.w3.org/2000/svg" viewBox="0 0 1024 1024">
  <g style="fill:none;stroke:#000000;stroke-width:50;stroke-linecap:round;stroke-linejoin:round;" transform="scale(1, 1) translate(0, 0)">
    <path d="M 276.0,328.0 L 321.0,338.0 L 386.0,337.0 L 548.0,317.0 L 705.0,284.0 L 770.0,286.0"/>
    <path d="M 490.0,186.0 L 527.0,225.0 L 501.0,418.0 L 484.0,437.0"/>
    <path d="M 344.0,448.0 L 367.0,474.0 L 378.0,519.0 L 381.0,787.0 L 365.0,802.0"/>
    <path d="M 390.0,455.0 L 420.0,466.0 L 438.0,465.0 L 609.0,431.0 L 630.0,433.0 L 649.0,449.0 L 663.0,470.0 L 653.0,566.0 L 646.0,761.0 L 625.0,775.0"/>
    <path d="M 406.0,569.0 L 511.0,546.0 L 559.0,542.0 L 580.0,547.0"/>
    <path d="M 410.0,659.0 L 419.0,651.0 L 514.0,637.0 L 555.0,634.0 L 576.0,639.0"/>
    <path d="M 407.0,745.0 L 440.0,733.0 L 532.0,718.0 L 562.0,717.0 L 584.0,724.0"/>
    <path d="M 111.0,840.0 L 169.0,860.0 L 450.0,824.0 L 831.0,795.0 L 872.0,804.0 L 919.0,825.0"/>
    <path d="M 443.0,927.0 L 406.0,927.0 L 327.0,999.0 L 260.0,1039.0 L 206.0,1059.0"/>
    <path d="M 607.0,889.0 L 722.0,978.0 L 741.0,1001.0 L 760.0,1053.0"/>
  </g>
</svg>
