<svg xmlns="http://www.w3.org/2000/svg" viewBox="0 0 1024 1024">
  <g style="fill:none;stroke:#000000;stroke-width:50;stroke-linecap:round;stroke-linejoin:round;" transform="scale(1, 1) translate(0, 0)">
    <path d="M 97.0,332.0 L 121.0,360.0 L 131.0,421.0 L 123.0,726.0 L 112.0,827.0 L 116.0,887.0"/>
    <path d="M 150.0,346.0 L 166.0,353.0 L 256.0,327.0 L 279.0,334.0 L 301.0,352.0 L 296.0,475.0 L 299.0,757.0 L 296.0,806.0 L 286.0,839.0 L 288.0,884.0"/>
    <path d="M 154.0,535.0 L 177.0,521.0 L 232.0,521.0"/>
    <path d="M 152.0,667.0 L 161.0,655.0 L 191.0,648.0 L 236.0,652.0"/>
    <path d="M 143.0,848.0 L 160.0,831.0 L 231.0,823.0 L 249.0,814.0"/>
    <path d="M 771.0,290.0 L 701.0,280.0 L 600.0,347.0 L 507.0,392.0 L 409.0,429.0"/>
    <path d="M 525.0,419.0 L 599.0,457.0 L 622.0,487.0"/>
    <path d="M 409.0,607.0 L 445.0,615.0 L 479.0,611.0 L 665.0,552.0 L 712.0,551.0 L 733.0,570.0 L 693.0,630.0 L 640.0,684.0 L 557.0,752.0 L 475.0,806.0"/>
    <path d="M 359.0,818.0 L 381.0,829.0 L 455.0,828.0 L 518.0,847.0 L 687.0,928.0 L 785.0,962.0 L 979.0,940.0"/>
  </g>
</svg>
