<svg xmlns="http://www.w3.org/2000/svg" viewBox="0 0 1024 1024">
  <g style="fill:none;stroke:#000000;stroke-width:50;stroke-linecap:round;stroke-linejoin:round;" transform="scale(1, 1) translate(0, 0)">
    <path d="M 127.0,332.0 L 149.0,354.0 L 159.0,377.0 L 163.0,431.0 L 159.0,676.0 L 143.0,836.0 L 149.0,902.0"/>
    <path d="M 184.0,349.0 L 203.0,353.0 L 285.0,328.0 L 309.0,337.0 L 326.0,352.0 L 329.0,813.0 L 327.0,849.0 L 317.0,873.0 L 320.0,922.0"/>
    <path d="M 183.0,534.0 L 204.0,518.0 L 224.0,513.0 L 274.0,514.0"/>
    <path d="M 180.0,676.0 L 212.0,659.0 L 241.0,655.0 L 276.0,661.0"/>
    <path d="M 172.0,871.0 L 181.0,870.0 L 187.0,861.0 L 284.0,847.0"/>
    <path d="M 487.0,325.0 L 519.0,335.0 L 594.0,330.0 L 773.0,289.0 L 822.0,283.0 L 844.0,287.0 L 850.0,296.0"/>
    <path d="M 565.0,475.0 L 621.0,481.0 L 774.0,447.0 L 817.0,448.0"/>
    <path d="M 562.0,636.0 L 590.0,636.0 L 744.0,602.0 L 775.0,600.0 L 798.0,606.0"/>
    <path d="M 651.0,501.0 L 677.0,523.0 L 680.0,574.0 L 677.0,715.0 L 661.0,739.0"/>
    <path d="M 516.0,777.0 L 561.0,782.0 L 814.0,742.0 L 877.0,755.0"/>
    <path d="M 419.0,300.0 L 454.0,340.0 L 459.0,364.0 L 462.0,613.0 L 451.0,954.0 L 487.0,957.0 L 606.0,932.0 L 787.0,913.0 L 875.0,910.0 L 917.0,926.0"/>
  </g>
</svg>
