<svg xmlns="http://www.w3.org/2000/svg" viewBox="0 0 1024 1024">
  <g style="fill:none;stroke:#000000;stroke-width:50;stroke-linecap:round;stroke-linejoin:round;" transform="scale(1, 1) translate(0, 0)">
    <path d="M 136.0,294.0 L 163.0,326.0 L 171.0,387.0 L 164.0,616.0 L 148.0,795.0 L 152.0,851.0"/>
    <path d="M 199.0,334.0 L 205.0,324.0 L 296.0,296.0 L 311.0,298.0 L 341.0,320.0 L 336.0,719.0 L 331.0,780.0 L 323.0,801.0 L 325.0,845.0"/>
    <path d="M 194.0,513.0 L 207.0,495.0 L 255.0,485.0 L 276.0,489.0"/>
    <path d="M 189.0,647.0 L 198.0,634.0 L 211.0,630.0 L 256.0,624.0 L 277.0,629.0"/>
    <path d="M 183.0,805.0 L 194.0,793.0 L 223.0,785.0 L 289.0,778.0"/>
    <path d="M 583.0,217.0 L 613.0,251.0 L 615.0,262.0 L 601.0,295.0 L 516.0,433.0 L 456.0,507.0 L 419.0,539.0"/>
    <path d="M 586.0,382.0 L 656.0,375.0 L 735.0,358.0 L 757.0,358.0 L 784.0,371.0 L 767.0,414.0 L 710.0,508.0 L 628.0,624.0 L 558.0,709.0 L 413.0,853.0 L 277.0,952.0"/>
    <path d="M 534.0,511.0 L 602.0,575.0 L 605.0,599.0"/>
    <path d="M 491.0,724.0 L 505.0,738.0 L 526.0,785.0 L 561.0,1001.0"/>
    <path d="M 549.0,760.0 L 583.0,743.0 L 678.0,728.0 L 746.0,709.0 L 785.0,705.0 L 805.0,712.0 L 831.0,742.0 L 829.0,752.0 L 792.0,860.0 L 764.0,880.0"/>
    <path d="M 577.0,917.0 L 588.0,928.0 L 752.0,908.0 L 804.0,907.0 L 834.0,917.0"/>
  </g>
</svg>
