<svg xmlns="http://www.w3.org/2000/svg" viewBox="0 0 1024 1024">
  <g style="fill:none;stroke:#000000;stroke-width:50;stroke-linecap:round;stroke-linejoin:round;" transform="scale(1, 1) translate(0, 0)">
    <path d="M 222.0,279.0 L 253.0,301.0 L 268.0,334.0 L 307.0,481.0"/>
    <path d="M 289.0,308.0 L 299.0,292.0 L 451.0,267.0 L 652.0,241.0 L 736.0,242.0 L 760.0,265.0 L 767.0,286.0 L 722.0,401.0 L 714.0,411.0 L 694.0,398.0"/>
    <path d="M 418.0,298.0 L 414.0,307.0 L 439.0,405.0 L 436.0,417.0"/>
    <path d="M 554.0,271.0 L 578.0,297.0 L 550.0,386.0 L 537.0,404.0"/>
    <path d="M 324.0,458.0 L 353.0,445.0 L 662.0,406.0 L 677.0,396.0"/>
    <path d="M 626.0,541.0 L 557.0,524.0 L 456.0,576.0 L 409.0,589.0 L 400.0,597.0 L 388.0,596.0 L 378.0,604.0 L 366.0,602.0 L 327.0,617.0 L 316.0,614.0 L 304.0,622.0"/>
    <path d="M 462.0,596.0 L 469.0,605.0 L 487.0,611.0 L 510.0,647.0 L 510.0,809.0 L 501.0,939.0 L 506.0,1016.0"/>
    <path d="M 298.0,678.0 L 313.0,698.0 L 320.0,722.0 L 284.0,784.0 L 223.0,857.0 L 179.0,893.0 L 112.0,935.0"/>
    <path d="M 288.0,823.0 L 307.0,823.0 L 367.0,857.0 L 388.0,874.0 L 406.0,900.0"/>
    <path d="M 702.0,610.0 L 721.0,627.0 L 734.0,651.0 L 714.0,707.0 L 658.0,805.0 L 610.0,860.0 L 566.0,897.0"/>
    <path d="M 690.0,809.0 L 704.0,807.0 L 796.0,867.0 L 830.0,903.0 L 842.0,932.0"/>
  </g>
</svg>
