<svg xmlns="http://www.w3.org/2000/svg" viewBox="0 0 1024 1024">
  <g style="fill:none;stroke:#000000;stroke-width:50;stroke-linecap:round;stroke-linejoin:round;" transform="scale(1, 1) translate(0, 0)">
    <path d="M 125.0,303.0 L 158.0,348.0 L 163.0,411.0 L 156.0,683.0 L 143.0,798.0 L 148.0,868.0"/>
    <path d="M 184.0,320.0 L 196.0,324.0 L 280.0,297.0 L 305.0,306.0 L 322.0,320.0 L 325.0,777.0 L 323.0,814.0 L 313.0,839.0 L 316.0,886.0"/>
    <path d="M 190.0,500.0 L 195.0,488.0 L 209.0,480.0 L 240.0,474.0 L 262.0,478.0"/>
    <path d="M 186.0,643.0 L 191.0,631.0 L 205.0,623.0 L 235.0,618.0 L 258.0,622.0"/>
    <path d="M 176.0,849.0 L 190.0,834.0 L 258.0,820.0 L 284.0,807.0"/>
    <path d="M 566.0,178.0 L 582.0,198.0 L 585.0,226.0 L 504.0,325.0 L 434.0,388.0 L 396.0,413.0"/>
    <path d="M 548.0,312.0 L 671.0,289.0 L 695.0,292.0 L 716.0,305.0 L 698.0,335.0 L 639.0,405.0 L 572.0,469.0"/>
    <path d="M 454.0,501.0 L 487.0,505.0 L 550.0,494.0 L 726.0,450.0 L 760.0,456.0 L 784.0,481.0 L 783.0,489.0 L 742.0,651.0 L 722.0,667.0"/>
    <path d="M 384.0,628.0 L 429.0,635.0 L 843.0,572.0 L 877.0,573.0 L 929.0,586.0"/>
    <path d="M 452.0,738.0 L 468.0,743.0 L 518.0,736.0 L 709.0,697.0 L 759.0,694.0 L 782.0,702.0"/>
    <path d="M 553.0,511.0 L 580.0,526.0 L 595.0,543.0 L 606.0,612.0 L 619.0,789.0 L 619.0,868.0 L 610.0,947.0 L 596.0,990.0 L 568.0,1024.0 L 457.0,968.0"/>
  </g>
</svg>
