<svg xmlns="http://www.w3.org/2000/svg" viewBox="0 0 1024 1024">
  <g style="fill:none;stroke:#000000;stroke-width:50;stroke-linecap:round;stroke-linejoin:round;" transform="scale(1, 1) translate(0, 0)">
    <path d="M 357.0,222.0 L 431.0,270.0 L 443.0,294.0"/>
    <path d="M 618.0,173.0 L 633.0,208.0 L 518.0,302.0"/>
    <path d="M 306.0,376.0 L 378.0,384.0 L 506.0,369.0 L 668.0,336.0 L 709.0,340.0"/>
    <path d="M 325.0,487.0 L 377.0,495.0 L 614.0,461.0 L 663.0,470.0"/>
    <path d="M 154.0,615.0 L 206.0,624.0 L 493.0,582.0 L 783.0,555.0 L 831.0,561.0 L 871.0,575.0"/>
    <path d="M 451.0,402.0 L 480.0,426.0 L 465.0,483.0 L 420.0,607.0 L 357.0,716.0 L 304.0,785.0 L 218.0,870.0 L 101.0,957.0 L 84.0,964.0"/>
    <path d="M 400.0,699.0 L 401.0,843.0 L 386.0,991.0 L 388.0,1029.0"/>
    <path d="M 417.0,699.0 L 432.0,710.0 L 614.0,673.0 L 640.0,687.0 L 655.0,704.0 L 660.0,979.0 L 650.0,1009.0 L 622.0,1003.0 L 602.0,982.0"/>
    <path d="M 424.0,814.0 L 454.0,798.0 L 501.0,788.0 L 560.0,788.0"/>
    <path d="M 425.0,899.0 L 435.0,889.0 L 491.0,877.0 L 538.0,870.0 L 573.0,876.0"/>
    <path d="M 416.0,1003.0 L 429.0,989.0 L 510.0,978.0 L 593.0,976.0"/>
  </g>
</svg>
