<svg xmlns="http://www.w3.org/2000/svg" viewBox="0 0 1024 1024">
  <g style="fill:none;stroke:#000000;stroke-width:50;stroke-linecap:round;stroke-linejoin:round;" transform="scale(1, 1) translate(0, 0)">
    <path d="M 109.0,331.0 L 137.0,366.0 L 143.0,415.0 L 133.0,677.0 L 116.0,817.0 L 121.0,876.0"/>
    <path d="M 173.0,356.0 L 189.0,360.0 L 272.0,329.0 L 302.0,337.0 L 321.0,355.0 L 316.0,416.0 L 314.0,803.0 L 301.0,846.0 L 304.0,895.0"/>
    <path d="M 163.0,530.0 L 204.0,511.0 L 254.0,510.0"/>
    <path d="M 159.0,659.0 L 190.0,641.0 L 252.0,641.0"/>
    <path d="M 152.0,840.0 L 166.0,824.0 L 198.0,817.0 L 225.0,814.0 L 265.0,821.0"/>
    <path d="M 532.0,316.0 L 544.0,326.0 L 607.0,321.0 L 777.0,279.0 L 820.0,280.0"/>
    <path d="M 452.0,293.0 L 475.0,310.0 L 491.0,330.0 L 493.0,342.0 L 484.0,527.0 L 461.0,665.0 L 421.0,795.0 L 391.0,860.0 L 347.0,933.0 L 309.0,980.0"/>
    <path d="M 561.0,503.0 L 621.0,508.0 L 753.0,475.0 L 797.0,476.0"/>
    <path d="M 636.0,361.0 L 677.0,399.0 L 667.0,583.0 L 662.0,599.0 L 651.0,609.0"/>
    <path d="M 512.0,649.0 L 552.0,653.0 L 792.0,610.0 L 830.0,610.0 L 871.0,619.0"/>
    <path d="M 532.0,815.0 L 589.0,819.0 L 698.0,798.0 L 769.0,775.0 L 809.0,776.0"/>
    <path d="M 625.0,663.0 L 653.0,676.0 L 671.0,699.0 L 663.0,903.0 L 659.0,916.0 L 647.0,926.0"/>
    <path d="M 434.0,967.0 L 493.0,976.0 L 637.0,954.0 L 845.0,934.0 L 893.0,939.0 L 939.0,955.0"/>
  </g>
</svg>
