<svg xmlns="http://www.w3.org/2000/svg" viewBox="0 0 1024 1024">
  <g style="fill:none;stroke:#000000;stroke-width:50;stroke-linecap:round;stroke-linejoin:round;" transform="scale(1, 1) translate(0, 0)">
    <path d="M 134.0,363.0 L 163.0,398.0 L 172.0,458.0 L 172.0,664.0 L 158.0,836.0 L 164.0,894.0"/>
    <path d="M 194.0,382.0 L 228.0,382.0 L 299.0,357.0 L 322.0,364.0 L 341.0,382.0 L 343.0,804.0 L 342.0,831.0 L 332.0,859.0 L 336.0,908.0"/>
    <path d="M 199.0,559.0 L 205.0,547.0 L 224.0,536.0 L 256.0,528.0 L 279.0,531.0"/>
    <path d="M 198.0,689.0 L 204.0,677.0 L 220.0,667.0 L 259.0,659.0 L 282.0,662.0"/>
    <path d="M 193.0,864.0 L 206.0,849.0 L 302.0,830.0"/>
    <path d="M 465.0,346.0 L 496.0,351.0 L 538.0,348.0 L 762.0,292.0 L 797.0,293.0"/>
    <path d="M 487.0,450.0 L 546.0,451.0 L 647.0,431.0 L 702.0,412.0 L 748.0,411.0"/>
    <path d="M 580.0,179.0 L 624.0,217.0 L 614.0,486.0 L 598.0,511.0"/>
    <path d="M 382.0,564.0 L 436.0,568.0 L 676.0,518.0 L 876.0,489.0 L 946.0,505.0"/>
    <path d="M 484.0,631.0 L 508.0,653.0 L 515.0,669.0 L 516.0,721.0 L 502.0,872.0 L 475.0,978.0 L 471.0,1032.0"/>
    <path d="M 534.0,640.0 L 550.0,645.0 L 581.0,640.0 L 699.0,610.0 L 739.0,638.0 L 737.0,711.0 L 753.0,927.0 L 749.0,1000.0 L 726.0,1040.0 L 700.0,1034.0 L 633.0,997.0"/>
    <path d="M 536.0,753.0 L 546.0,751.0 L 551.0,741.0 L 583.0,733.0 L 620.0,728.0 L 652.0,733.0"/>
    <path d="M 531.0,854.0 L 541.0,842.0 L 595.0,831.0 L 650.0,827.0 L 671.0,833.0"/>
  </g>
</svg>
