<svg xmlns="http://www.w3.org/2000/svg" viewBox="0 0 1024 1024">
  <g style="fill:none;stroke:#000000;stroke-width:50;stroke-linecap:round;stroke-linejoin:round;" transform="scale(1, 1) translate(0, 0)">
    <path d="M 102.0,351.0 L 127.0,376.0 L 138.0,404.0 L 140.0,693.0 L 127.0,834.0 L 132.0,902.0"/>
    <path d="M 162.0,368.0 L 174.0,373.0 L 253.0,342.0 L 285.0,350.0 L 300.0,363.0 L 304.0,822.0 L 293.0,856.0 L 296.0,901.0"/>
    <path d="M 167.0,548.0 L 180.0,528.0 L 213.0,518.0 L 246.0,518.0"/>
    <path d="M 165.0,675.0 L 173.0,662.0 L 189.0,653.0 L 245.0,650.0"/>
    <path d="M 160.0,865.0 L 173.0,852.0 L 237.0,838.0 L 266.0,825.0"/>
    <path d="M 448.0,363.0 L 470.0,368.0 L 527.0,364.0 L 697.0,319.0 L 754.0,317.0"/>
    <path d="M 450.0,434.0 L 472.0,464.0 L 455.0,508.0 L 412.0,577.0 L 357.0,628.0"/>
    <path d="M 456.0,567.0 L 465.0,563.0 L 491.0,577.0 L 520.0,606.0"/>
    <path d="M 747.0,380.0 L 774.0,413.0 L 760.0,454.0 L 714.0,536.0 L 673.0,577.0"/>
    <path d="M 739.0,536.0 L 755.0,536.0 L 799.0,554.0 L 823.0,571.0 L 841.0,595.0"/>
    <path d="M 556.0,188.0 L 586.0,212.0 L 610.0,242.0 L 607.0,668.0 L 600.0,883.0 L 589.0,992.0 L 591.0,1069.0"/>
    <path d="M 585.0,595.0 L 578.0,600.0 L 563.0,679.0 L 509.0,762.0 L 410.0,875.0 L 345.0,925.0"/>
    <path d="M 632.0,636.0 L 643.0,660.0 L 746.0,776.0 L 834.0,853.0 L 987.0,898.0"/>
  </g>
</svg>
