<svg xmlns="http://www.w3.org/2000/svg" viewBox="0 0 1024 1024">
  <g style="fill:none;stroke:#000000;stroke-width:50;stroke-linecap:round;stroke-linejoin:round;" transform="scale(1, 1) translate(0, 0)">
    <path d="M 105.0,375.0 L 134.0,408.0 L 143.0,473.0 L 139.0,720.0 L 127.0,851.0 L 132.0,921.0"/>
    <path d="M 167.0,396.0 L 182.0,399.0 L 269.0,375.0 L 292.0,384.0 L 309.0,400.0 L 304.0,523.0 L 307.0,802.0 L 302.0,863.0 L 293.0,881.0 L 296.0,928.0"/>
    <path d="M 171.0,573.0 L 176.0,562.0 L 194.0,552.0 L 218.0,547.0 L 250.0,550.0"/>
    <path d="M 168.0,708.0 L 180.0,691.0 L 193.0,687.0 L 249.0,685.0"/>
    <path d="M 159.0,888.0 L 176.0,871.0 L 251.0,861.0"/>
    <path d="M 536.0,427.0 L 596.0,473.0 L 613.0,509.0"/>
    <path d="M 817.0,351.0 L 844.0,389.0 L 751.0,481.0"/>
    <path d="M 555.0,607.0 L 617.0,608.0 L 810.0,552.0 L 853.0,549.0"/>
    <path d="M 653.0,255.0 L 679.0,272.0 L 705.0,303.0 L 683.0,832.0 L 690.0,880.0"/>
    <path d="M 666.0,622.0 L 651.0,662.0 L 594.0,736.0 L 536.0,782.0 L 533.0,790.0 L 508.0,803.0"/>
    <path d="M 712.0,673.0 L 836.0,744.0 L 887.0,792.0"/>
    <path d="M 399.0,447.0 L 450.0,490.0 L 462.0,513.0"/>
    <path d="M 346.0,648.0 L 373.0,647.0 L 449.0,610.0 L 471.0,628.0 L 458.0,666.0 L 420.0,731.0 L 427.0,759.0 L 460.0,816.0 L 466.0,842.0 L 458.0,855.0"/>
    <path d="M 372.0,868.0 L 389.0,877.0 L 446.0,875.0 L 486.0,883.0 L 720.0,972.0 L 779.0,988.0 L 814.0,988.0 L 952.0,962.0"/>
  </g>
</svg>
