<svg xmlns="http://www.w3.org/2000/svg" viewBox="0 0 1024 1024">
  <g style="fill:none;stroke:#000000;stroke-width:50;stroke-linecap:round;stroke-linejoin:round;" transform="scale(1, 1) translate(0, 0)">
    <path d="M 219.0,271.0 L 235.0,280.0 L 273.0,283.0 L 378.0,247.0 L 419.0,240.0 L 437.0,243.0 L 458.0,265.0 L 440.0,292.0 L 404.0,326.0 L 399.0,342.0"/>
    <path d="M 308.0,321.0 L 391.0,375.0"/>
    <path d="M 153.0,439.0 L 183.0,440.0 L 444.0,384.0 L 468.0,392.0 L 480.0,403.0 L 438.0,460.0"/>
    <path d="M 371.0,423.0 L 399.0,484.0 L 400.0,550.0 L 386.0,605.0 L 359.0,634.0 L 299.0,605.0"/>
    <path d="M 361.0,420.0 L 331.0,442.0 L 295.0,491.0 L 249.0,534.0 L 179.0,580.0 L 140.0,597.0"/>
    <path d="M 621.0,194.0 L 648.0,221.0 L 642.0,259.0 L 594.0,360.0 L 551.0,429.0 L 542.0,430.0 L 538.0,445.0 L 529.0,452.0"/>
    <path d="M 621.0,362.0 L 687.0,353.0 L 798.0,324.0 L 840.0,325.0"/>
    <path d="M 714.0,374.0 L 739.0,401.0 L 702.0,485.0 L 670.0,534.0 L 603.0,587.0 L 514.0,618.0"/>
    <path d="M 571.0,425.0 L 583.0,424.0 L 607.0,440.0 L 705.0,549.0 L 785.0,613.0 L 803.0,621.0 L 941.0,644.0"/>
    <path d="M 346.0,695.0 L 371.0,722.0 L 377.0,742.0 L 376.0,845.0 L 355.0,1007.0 L 356.0,1052.0"/>
    <path d="M 402.0,710.0 L 411.0,719.0 L 441.0,717.0 L 615.0,677.0 L 643.0,682.0 L 674.0,709.0 L 681.0,992.0 L 669.0,1025.0 L 639.0,1018.0 L 617.0,994.0"/>
    <path d="M 404.0,831.0 L 415.0,819.0 L 480.0,806.0 L 556.0,795.0 L 579.0,802.0"/>
    <path d="M 398.0,920.0 L 411.0,909.0 L 520.0,890.0 L 560.0,887.0 L 582.0,893.0"/>
    <path d="M 385.0,1023.0 L 410.0,1008.0 L 606.0,991.0"/>
  </g>
</svg>
