<svg xmlns="http://www.w3.org/2000/svg" viewBox="0 0 1024 1024">
  <g style="fill:none;stroke:#000000;stroke-width:50;stroke-linecap:round;stroke-linejoin:round;" transform="scale(1, 1) translate(0, 0)">
    <path d="M 133.0,348.0 L 160.0,378.0 L 163.0,390.0 L 171.0,501.0 L 166.0,744.0 L 151.0,883.0 L 156.0,939.0"/>
    <path d="M 194.0,383.0 L 209.0,371.0 L 283.0,348.0 L 313.0,357.0 L 329.0,372.0 L 333.0,817.0 L 330.0,860.0 L 321.0,882.0 L 324.0,930.0"/>
    <path d="M 194.0,569.0 L 204.0,554.0 L 247.0,548.0 L 268.0,554.0"/>
    <path d="M 190.0,726.0 L 201.0,710.0 L 251.0,704.0 L 272.0,710.0"/>
    <path d="M 183.0,891.0 L 197.0,877.0 L 277.0,862.0"/>
    <path d="M 562.0,348.0 L 529.0,345.0 L 448.0,417.0"/>
    <path d="M 393.0,415.0 L 425.0,438.0 L 491.0,634.0"/>
    <path d="M 476.0,506.0 L 486.0,494.0 L 519.0,482.0 L 570.0,482.0"/>
    <path d="M 692.0,360.0 L 760.0,357.0 L 795.0,346.0 L 819.0,346.0 L 831.0,353.0 L 845.0,377.0 L 788.0,570.0 L 778.0,580.0 L 752.0,568.0"/>
    <path d="M 697.0,465.0 L 766.0,458.0 L 790.0,446.0"/>
    <path d="M 507.0,613.0 L 524.0,604.0 L 694.0,576.0 L 732.0,573.0 L 743.0,583.0"/>
    <path d="M 587.0,209.0 L 631.0,246.0 L 633.0,268.0 L 627.0,635.0 L 625.0,656.0 L 610.0,674.0"/>
    <path d="M 472.0,713.0 L 537.0,714.0 L 659.0,680.0 L 696.0,683.0 L 717.0,694.0 L 708.0,729.0 L 667.0,818.0 L 631.0,875.0 L 600.0,906.0 L 561.0,936.0 L 508.0,964.0 L 423.0,989.0 L 387.0,992.0"/>
    <path d="M 439.0,756.0 L 469.0,763.0 L 490.0,776.0 L 663.0,924.0 L 771.0,985.0 L 823.0,994.0 L 958.0,995.0"/>
  </g>
</svg>
