<svg xmlns="http://www.w3.org/2000/svg" viewBox="0 0 1024 1024">
  <g style="fill:none;stroke:#000000;stroke-width:50;stroke-linecap:round;stroke-linejoin:round;" transform="scale(1, 1) translate(0, 0)">
    <path d="M 96.0,352.0 L 120.0,381.0 L 129.0,462.0 L 127.0,633.0 L 108.0,831.0 L 115.0,891.0"/>
    <path d="M 151.0,372.0 L 160.0,377.0 L 233.0,351.0 L 252.0,356.0 L 275.0,373.0 L 272.0,497.0 L 281.0,808.0 L 269.0,865.0 L 273.0,906.0"/>
    <path d="M 146.0,545.0 L 159.0,533.0 L 224.0,525.0"/>
    <path d="M 145.0,681.0 L 183.0,664.0 L 225.0,663.0"/>
    <path d="M 141.0,855.0 L 147.0,844.0 L 170.0,839.0 L 238.0,837.0"/>
    <path d="M 409.0,206.0 L 482.0,248.0 L 510.0,290.0"/>
    <path d="M 352.0,422.0 L 390.0,429.0 L 417.0,427.0 L 502.0,403.0 L 542.0,406.0"/>
    <path d="M 369.0,540.0 L 418.0,539.0 L 504.0,523.0"/>
    <path d="M 374.0,648.0 L 410.0,648.0 L 451.0,635.0 L 492.0,632.0"/>
    <path d="M 339.0,740.0 L 367.0,757.0 L 379.0,774.0 L 427.0,934.0"/>
    <path d="M 400.0,740.0 L 412.0,746.0 L 430.0,743.0 L 487.0,725.0 L 519.0,752.0 L 498.0,823.0 L 474.0,838.0"/>
    <path d="M 433.0,860.0 L 442.0,868.0 L 471.0,861.0 L 525.0,865.0"/>
    <path d="M 607.0,421.0 L 653.0,459.0 L 659.0,624.0 L 647.0,729.0 L 620.0,814.0 L 596.0,859.0 L 520.0,946.0 L 498.0,957.0"/>
    <path d="M 740.0,374.0 L 765.0,399.0 L 773.0,419.0 L 775.0,572.0 L 767.0,838.0"/>
    <path d="M 835.0,202.0 L 866.0,223.0 L 891.0,252.0 L 895.0,268.0 L 896.0,759.0 L 887.0,960.0 L 891.0,1073.0"/>
  </g>
</svg>
