<svg xmlns="http://www.w3.org/2000/svg" viewBox="0 0 1024 1024">
  <g style="fill:none;stroke:#000000;stroke-width:50;stroke-linecap:round;stroke-linejoin:round;" transform="scale(1, 1) translate(0, 0)">
    <path d="M 191.0,277.0 L 247.0,316.0 L 262.0,341.0"/>
    <path d="M 459.0,219.0 L 472.0,247.0 L 393.0,324.0"/>
    <path d="M 159.0,406.0 L 176.0,421.0 L 184.0,471.0 L 169.0,658.0"/>
    <path d="M 199.0,409.0 L 220.0,417.0 L 286.0,401.0 L 428.0,380.0 L 462.0,395.0 L 467.0,523.0 L 461.0,585.0 L 450.0,603.0 L 393.0,585.0 L 382.0,576.0"/>
    <path d="M 294.0,195.0 L 314.0,204.0 L 332.0,226.0 L 335.0,383.0 L 323.0,629.0"/>
    <path d="M 251.0,476.0 L 264.0,487.0 L 237.0,591.0"/>
    <path d="M 371.0,456.0 L 404.0,513.0"/>
    <path d="M 612.0,173.0 L 631.0,190.0 L 640.0,208.0 L 631.0,235.0 L 576.0,342.0 L 517.0,417.0"/>
    <path d="M 606.0,331.0 L 664.0,328.0 L 802.0,296.0 L 845.0,294.0"/>
    <path d="M 709.0,348.0 L 729.0,369.0 L 678.0,476.0 L 616.0,545.0 L 543.0,596.0 L 534.0,595.0 L 530.0,603.0"/>
    <path d="M 553.0,399.0 L 579.0,410.0 L 703.0,531.0 L 777.0,585.0 L 798.0,596.0 L 834.0,602.0 L 931.0,604.0"/>
    <path d="M 317.0,685.0 L 344.0,712.0 L 354.0,739.0 L 350.0,870.0 L 336.0,964.0 L 335.0,1028.0"/>
    <path d="M 375.0,697.0 L 392.0,708.0 L 623.0,664.0 L 651.0,680.0 L 666.0,698.0 L 663.0,753.0 L 673.0,984.0 L 661.0,1018.0 L 602.0,1004.0"/>
    <path d="M 381.0,805.0 L 391.0,798.0 L 481.0,791.0 L 537.0,778.0 L 571.0,779.0"/>
    <path d="M 377.0,898.0 L 396.0,890.0 L 459.0,885.0 L 525.0,871.0 L 574.0,872.0"/>
    <path d="M 364.0,1012.0 L 377.0,998.0 L 443.0,990.0 L 568.0,978.0 L 618.0,985.0"/>
  </g>
</svg>
