<svg xmlns="http://www.w3.org/2000/svg" viewBox="0 0 1024 1024">
  <g style="fill:none;stroke:#000000;stroke-width:50;stroke-linecap:round;stroke-linejoin:round;" transform="scale(1, 1) translate(0, 0)">
    <path d="M 94.0,323.0 L 117.0,345.0 L 129.0,368.0 L 133.0,427.0 L 131.0,682.0 L 119.0,815.0 L 124.0,886.0"/>
    <path d="M 151.0,340.0 L 167.0,344.0 L 253.0,320.0 L 276.0,328.0 L 293.0,344.0 L 293.0,781.0 L 282.0,845.0 L 284.0,890.0"/>
    <path d="M 160.0,512.0 L 165.0,501.0 L 182.0,492.0 L 233.0,488.0"/>
    <path d="M 157.0,661.0 L 175.0,644.0 L 217.0,637.0 L 237.0,641.0"/>
    <path d="M 151.0,845.0 L 167.0,827.0 L 249.0,817.0"/>
    <path d="M 430.0,327.0 L 515.0,311.0 L 528.0,317.0 L 534.0,328.0 L 512.0,411.0 L 474.0,496.0 L 413.0,589.0 L 368.0,640.0 L 331.0,670.0 L 323.0,685.0"/>
    <path d="M 375.0,412.0 L 433.0,450.0 L 446.0,480.0"/>
    <path d="M 702.0,201.0 L 721.0,230.0 L 660.0,308.0 L 646.0,323.0 L 639.0,322.0"/>
    <path d="M 813.0,296.0 L 824.0,329.0 L 739.0,394.0 L 724.0,402.0 L 718.0,399.0"/>
    <path d="M 598.0,335.0 L 617.0,338.0 L 641.0,356.0 L 749.0,488.0 L 850.0,579.0 L 974.0,600.0"/>
    <path d="M 503.0,538.0 L 554.0,541.0 L 630.0,523.0 L 670.0,522.0"/>
    <path d="M 436.0,644.0 L 458.0,661.0 L 470.0,683.0 L 500.0,810.0"/>
    <path d="M 487.0,645.0 L 502.0,656.0 L 661.0,621.0 L 680.0,623.0 L 712.0,655.0 L 682.0,718.0 L 656.0,734.0"/>
    <path d="M 518.0,788.0 L 534.0,777.0 L 627.0,760.0 L 693.0,756.0 L 711.0,761.0"/>
    <path d="M 454.0,854.0 L 502.0,895.0 L 515.0,931.0"/>
    <path d="M 669.0,805.0 L 688.0,842.0 L 631.0,948.0 L 613.0,962.0"/>
    <path d="M 338.0,997.0 L 376.0,1007.0 L 538.0,988.0 L 817.0,970.0 L 849.0,974.0 L 899.0,992.0"/>
  </g>
</svg>
