<svg xmlns="http://www.w3.org/2000/svg" viewBox="0 0 1024 1024">
  <g style="fill:none;stroke:#000000;stroke-width:50;stroke-linecap:round;stroke-linejoin:round;" transform="scale(1, 1) translate(0, 0)">
    <path d="M 116.0,334.0 L 142.0,365.0 L 150.0,431.0 L 146.0,635.0 L 127.0,806.0 L 132.0,875.0"/>
    <path d="M 172.0,352.0 L 183.0,357.0 L 248.0,334.0 L 267.0,333.0 L 290.0,341.0 L 305.0,354.0 L 312.0,755.0 L 309.0,816.0 L 301.0,839.0 L 304.0,881.0"/>
    <path d="M 174.0,533.0 L 194.0,515.0 L 226.0,507.0 L 257.0,508.0"/>
    <path d="M 169.0,663.0 L 178.0,650.0 L 218.0,639.0 L 261.0,641.0"/>
    <path d="M 155.0,849.0 L 165.0,848.0 L 170.0,838.0 L 216.0,829.0 L 238.0,827.0 L 256.0,837.0"/>
    <path d="M 731.0,233.0 L 669.0,223.0 L 562.0,286.0 L 474.0,318.0"/>
    <path d="M 447.0,370.0 L 501.0,412.0 L 515.0,442.0"/>
    <path d="M 563.0,328.0 L 619.0,396.0"/>
    <path d="M 763.0,287.0 L 778.0,318.0 L 707.0,389.0 L 677.0,409.0 L 675.0,418.0"/>
    <path d="M 398.0,475.0 L 407.0,505.0 L 376.0,589.0 L 374.0,616.0"/>
    <path d="M 435.0,504.0 L 445.0,512.0 L 474.0,510.0 L 670.0,465.0 L 792.0,448.0 L 822.0,457.0 L 844.0,481.0 L 789.0,551.0"/>
    <path d="M 466.0,568.0 L 482.0,593.0 L 474.0,617.0 L 403.0,721.0 L 359.0,764.0"/>
    <path d="M 463.0,674.0 L 526.0,658.0 L 543.0,660.0 L 554.0,672.0 L 517.0,776.0 L 462.0,865.0 L 390.0,950.0 L 317.0,1004.0"/>
    <path d="M 416.0,732.0 L 454.0,783.0"/>
    <path d="M 634.0,676.0 L 694.0,675.0 L 799.0,644.0 L 840.0,641.0"/>
    <path d="M 598.0,716.0 L 621.0,740.0 L 605.0,836.0 L 649.0,837.0 L 824.0,807.0 L 891.0,820.0"/>
    <path d="M 702.0,566.0 L 735.0,596.0 L 731.0,1055.0"/>
  </g>
</svg>
