<svg xmlns="http://www.w3.org/2000/svg" viewBox="0 0 1024 1024">
  <g style="fill:none;stroke:#000000;stroke-width:50;stroke-linecap:round;stroke-linejoin:round;" transform="scale(1, 1) translate(0, 0)">
    <path d="M 117.0,360.0 L 136.0,379.0 L 147.0,404.0 L 152.0,483.0 L 149.0,679.0 L 135.0,855.0 L 140.0,911.0"/>
    <path d="M 170.0,374.0 L 198.0,375.0 L 272.0,353.0 L 294.0,361.0 L 310.0,375.0 L 316.0,806.0 L 314.0,845.0 L 305.0,870.0 L 308.0,913.0"/>
    <path d="M 177.0,543.0 L 185.0,530.0 L 206.0,523.0 L 242.0,516.0 L 262.0,520.0"/>
    <path d="M 175.0,679.0 L 192.0,663.0 L 223.0,657.0 L 254.0,660.0"/>
    <path d="M 167.0,879.0 L 182.0,863.0 L 264.0,849.0"/>
    <path d="M 509.0,233.0 L 528.0,252.0 L 537.0,273.0 L 518.0,316.0 L 428.0,457.0 L 378.0,517.0 L 346.0,544.0"/>
    <path d="M 472.0,436.0 L 473.0,461.0 L 485.0,482.0 L 487.0,525.0 L 487.0,642.0 L 478.0,763.0 L 483.0,815.0"/>
    <path d="M 617.0,214.0 L 698.0,268.0 L 715.0,298.0"/>
    <path d="M 544.0,417.0 L 614.0,417.0 L 757.0,375.0 L 804.0,371.0"/>
    <path d="M 555.0,530.0 L 633.0,529.0 L 727.0,500.0 L 785.0,494.0"/>
    <path d="M 556.0,638.0 L 612.0,641.0 L 763.0,606.0 L 793.0,606.0"/>
    <path d="M 638.0,435.0 L 664.0,451.0 L 669.0,480.0 L 666.0,707.0 L 651.0,729.0"/>
    <path d="M 514.0,780.0 L 611.0,758.0 L 795.0,731.0 L 830.0,732.0 L 873.0,743.0"/>
    <path d="M 440.0,871.0 L 423.0,942.0 L 393.0,1014.0"/>
    <path d="M 545.0,875.0 L 580.0,930.0 L 588.0,959.0"/>
    <path d="M 664.0,858.0 L 712.0,916.0 L 727.0,946.0"/>
    <path d="M 791.0,838.0 L 884.0,933.0 L 901.0,964.0 L 907.0,999.0"/>
  </g>
</svg>
