<svg xmlns="http://www.w3.org/2000/svg" viewBox="0 0 1024 1024">
  <g style="fill:none;stroke:#000000;stroke-width:50;stroke-linecap:round;stroke-linejoin:round;" transform="scale(1, 1) translate(0, 0)">
    <path d="M 110.0,361.0 L 141.0,394.0 L 148.0,450.0 L 148.0,658.0 L 134.0,853.0 L 140.0,913.0"/>
    <path d="M 175.0,384.0 L 186.0,390.0 L 282.0,360.0 L 306.0,369.0 L 325.0,385.0 L 324.0,785.0 L 322.0,830.0 L 312.0,858.0 L 316.0,907.0"/>
    <path d="M 176.0,560.0 L 181.0,549.0 L 201.0,536.0 L 239.0,530.0 L 262.0,534.0"/>
    <path d="M 174.0,693.0 L 186.0,677.0 L 200.0,673.0 L 256.0,673.0"/>
    <path d="M 171.0,872.0 L 185.0,855.0 L 236.0,848.0 L 255.0,851.0 L 263.0,863.0"/>
    <path d="M 477.0,319.0 L 509.0,350.0 L 528.0,381.0"/>
    <path d="M 743.0,250.0 L 761.0,281.0 L 677.0,366.0"/>
    <path d="M 420.0,454.0 L 478.0,462.0 L 744.0,417.0 L 803.0,412.0 L 842.0,419.0"/>
    <path d="M 580.0,222.0 L 604.0,238.0 L 623.0,261.0 L 606.0,574.0 L 613.0,622.0"/>
    <path d="M 586.0,469.0 L 492.0,569.0 L 441.0,600.0"/>
    <path d="M 637.0,461.0 L 651.0,467.0 L 697.0,512.0 L 772.0,570.0 L 841.0,582.0 L 882.0,580.0"/>
    <path d="M 458.0,630.0 L 474.0,653.0 L 458.0,690.0 L 410.0,757.0 L 357.0,804.0"/>
    <path d="M 465.0,721.0 L 549.0,705.0 L 566.0,724.0 L 531.0,814.0 L 484.0,885.0 L 430.0,947.0 L 401.0,973.0 L 357.0,1000.0"/>
    <path d="M 410.0,786.0 L 420.0,787.0 L 434.0,802.0 L 461.0,842.0"/>
    <path d="M 652.0,714.0 L 719.0,717.0 L 817.0,691.0 L 865.0,690.0"/>
    <path d="M 614.0,755.0 L 637.0,780.0 L 618.0,864.0 L 627.0,867.0 L 830.0,839.0 L 867.0,840.0 L 916.0,853.0"/>
    <path d="M 709.0,627.0 L 732.0,643.0 L 743.0,659.0 L 739.0,1063.0"/>
  </g>
</svg>
