<svg xmlns="http://www.w3.org/2000/svg" viewBox="0 0 1024 1024">
  <g style="fill:none;stroke:#000000;stroke-width:50;stroke-linecap:round;stroke-linejoin:round;" transform="scale(1, 1) translate(0, 0)">
    <path d="M 89.0,371.0 L 121.0,410.0 L 128.0,500.0 L 123.0,767.0 L 110.0,896.0 L 116.0,957.0"/>
    <path d="M 146.0,385.0 L 169.0,392.0 L 248.0,370.0 L 270.0,379.0 L 289.0,397.0 L 284.0,817.0 L 278.0,880.0 L 270.0,902.0 L 272.0,948.0"/>
    <path d="M 154.0,585.0 L 161.0,574.0 L 176.0,567.0 L 199.0,564.0 L 232.0,571.0"/>
    <path d="M 152.0,728.0 L 159.0,716.0 L 174.0,709.0 L 231.0,709.0"/>
    <path d="M 146.0,901.0 L 163.0,883.0 L 174.0,880.0 L 208.0,880.0 L 217.0,892.0"/>
    <path d="M 554.0,204.0 L 571.0,218.0 L 589.0,253.0 L 522.0,382.0 L 396.0,549.0 L 331.0,609.0"/>
    <path d="M 613.0,302.0 L 612.0,312.0 L 669.0,376.0 L 755.0,460.0 L 807.0,501.0 L 830.0,515.0 L 973.0,536.0"/>
    <path d="M 484.0,520.0 L 544.0,525.0 L 649.0,501.0 L 689.0,502.0"/>
    <path d="M 363.0,644.0 L 391.0,672.0 L 417.0,783.0"/>
    <path d="M 408.0,647.0 L 418.0,652.0 L 497.0,633.0 L 518.0,638.0 L 531.0,654.0 L 529.0,666.0 L 516.0,710.0 L 502.0,716.0"/>
    <path d="M 434.0,766.0 L 447.0,756.0 L 500.0,745.0 L 548.0,750.0"/>
    <path d="M 590.0,627.0 L 612.0,644.0 L 619.0,657.0 L 645.0,771.0"/>
    <path d="M 630.0,631.0 L 647.0,637.0 L 731.0,615.0 L 768.0,618.0 L 782.0,635.0 L 781.0,645.0 L 769.0,692.0 L 748.0,713.0"/>
    <path d="M 659.0,755.0 L 736.0,735.0 L 789.0,739.0"/>
    <path d="M 448.0,780.0 L 462.0,787.0 L 473.0,819.0 L 438.0,888.0 L 365.0,975.0 L 310.0,1018.0"/>
    <path d="M 472.0,881.0 L 480.0,894.0 L 523.0,925.0 L 533.0,946.0"/>
    <path d="M 684.0,785.0 L 705.0,815.0 L 668.0,888.0 L 602.0,963.0 L 572.0,990.0 L 545.0,1004.0 L 543.0,1012.0"/>
    <path d="M 699.0,893.0 L 713.0,894.0 L 802.0,960.0 L 825.0,985.0 L 843.0,1026.0"/>
  </g>
</svg>
