<svg xmlns="http://www.w3.org/2000/svg" viewBox="0 0 1024 1024">
  <g style="fill:none;stroke:#000000;stroke-width:50;stroke-linecap:round;stroke-linejoin:round;" transform="scale(1, 1) translate(0, 0)">
    <path d="M 126.0,310.0 L 151.0,339.0 L 159.0,438.0 L 154.0,636.0 L 140.0,767.0 L 145.0,827.0"/>
    <path d="M 181.0,327.0 L 194.0,333.0 L 279.0,308.0 L 316.0,329.0 L 316.0,710.0 L 313.0,747.0 L 304.0,772.0 L 308.0,817.0"/>
    <path d="M 181.0,494.0 L 205.0,480.0 L 257.0,476.0"/>
    <path d="M 176.0,619.0 L 189.0,607.0 L 215.0,599.0 L 261.0,601.0"/>
    <path d="M 170.0,785.0 L 183.0,771.0 L 246.0,763.0 L 258.0,773.0"/>
    <path d="M 594.0,162.0 L 611.0,202.0 L 588.0,234.0 L 526.0,302.0 L 455.0,354.0"/>
    <path d="M 588.0,279.0 L 646.0,274.0 L 698.0,261.0 L 728.0,273.0 L 673.0,352.0 L 653.0,374.0 L 633.0,385.0"/>
    <path d="M 475.0,416.0 L 490.0,423.0 L 514.0,423.0 L 604.0,414.0 L 815.0,366.0 L 863.0,366.0"/>
    <path d="M 408.0,396.0 L 441.0,429.0 L 443.0,452.0 L 431.0,584.0 L 403.0,739.0 L 375.0,826.0 L 332.0,919.0 L 276.0,1003.0 L 244.0,1039.0"/>
    <path d="M 575.0,452.0 L 587.0,479.0 L 556.0,517.0 L 506.0,561.0"/>
    <path d="M 716.0,449.0 L 780.0,488.0 L 801.0,518.0"/>
    <path d="M 624.0,518.0 L 667.0,548.0 L 688.0,576.0"/>
    <path d="M 488.0,629.0 L 523.0,635.0 L 807.0,580.0 L 844.0,581.0 L 887.0,591.0"/>
    <path d="M 556.0,709.0 L 735.0,680.0 L 767.0,685.0"/>
    <path d="M 564.0,793.0 L 743.0,764.0 L 775.0,769.0"/>
    <path d="M 503.0,865.0 L 524.0,882.0 L 536.0,902.0 L 564.0,1042.0"/>
    <path d="M 552.0,865.0 L 576.0,875.0 L 739.0,841.0 L 770.0,847.0 L 795.0,873.0 L 776.0,935.0 L 751.0,947.0"/>
    <path d="M 582.0,993.0 L 591.0,1003.0 L 605.0,1003.0 L 748.0,980.0 L 785.0,980.0 L 809.0,989.0"/>
  </g>
</svg>
