<svg xmlns="http://www.w3.org/2000/svg" viewBox="0 0 1024 1024">
  <g style="fill:none;stroke:#000000;stroke-width:50;stroke-linecap:round;stroke-linejoin:round;" transform="scale(1, 1) translate(0, 0)">
    <path d="M 97.0,320.0 L 123.0,350.0 L 131.0,414.0 L 125.0,674.0 L 113.0,813.0 L 116.0,879.0"/>
    <path d="M 159.0,355.0 L 174.0,343.0 L 249.0,320.0 L 278.0,329.0 L 293.0,343.0 L 294.0,776.0 L 291.0,817.0 L 282.0,841.0 L 284.0,886.0"/>
    <path d="M 155.0,513.0 L 163.0,501.0 L 198.0,493.0 L 241.0,496.0"/>
    <path d="M 153.0,660.0 L 161.0,649.0 L 189.0,643.0 L 220.0,640.0 L 241.0,645.0"/>
    <path d="M 142.0,840.0 L 156.0,827.0 L 246.0,818.0"/>
    <path d="M 472.0,204.0 L 509.0,229.0 L 543.0,357.0"/>
    <path d="M 390.0,304.0 L 434.0,316.0 L 583.0,279.0"/>
    <path d="M 687.0,158.0 L 708.0,194.0 L 671.0,294.0 L 640.0,357.0"/>
    <path d="M 636.0,275.0 L 684.0,276.0 L 788.0,261.0 L 829.0,266.0 L 843.0,276.0"/>
    <path d="M 388.0,407.0 L 400.0,434.0 L 400.0,453.0 L 378.0,510.0 L 373.0,549.0"/>
    <path d="M 430.0,437.0 L 440.0,445.0 L 465.0,442.0 L 601.0,408.0 L 766.0,384.0 L 794.0,392.0 L 816.0,418.0 L 760.0,491.0 L 751.0,493.0"/>
    <path d="M 483.0,507.0 L 527.0,510.0 L 636.0,482.0 L 672.0,481.0"/>
    <path d="M 430.0,592.0 L 473.0,596.0 L 655.0,554.0 L 695.0,549.0 L 728.0,554.0"/>
    <path d="M 542.0,623.0 L 516.0,632.0 L 443.0,701.0 L 372.0,745.0"/>
    <path d="M 521.0,666.0 L 536.0,666.0 L 559.0,682.0 L 609.0,737.0 L 633.0,806.0 L 640.0,873.0 L 630.0,959.0 L 606.0,1007.0 L 597.0,1013.0 L 587.0,1010.0 L 503.0,974.0"/>
    <path d="M 545.0,694.0 L 547.0,725.0 L 528.0,746.0 L 452.0,803.0 L 379.0,838.0"/>
    <path d="M 594.0,760.0 L 583.0,806.0 L 530.0,858.0 L 432.0,932.0 L 351.0,971.0"/>
    <path d="M 717.0,609.0 L 731.0,644.0 L 632.0,721.0"/>
    <path d="M 646.0,753.0 L 647.0,762.0 L 670.0,788.0 L 801.0,883.0 L 836.0,890.0 L 980.0,896.0"/>
  </g>
</svg>
