<svg xmlns="http://www.w3.org/2000/svg" viewBox="0 0 1024 1024">
  <g style="fill:none;stroke:#000000;stroke-width:50;stroke-linecap:round;stroke-linejoin:round;" transform="scale(1, 1) translate(0, 0)">
    <path d="M 262.0,224.0 L 286.0,258.0 L 286.0,413.0 L 293.0,451.0"/>
    <path d="M 301.0,233.0 L 315.0,237.0 L 411.0,213.0 L 425.0,216.0 L 445.0,240.0 L 438.0,311.0 L 439.0,384.0 L 430.0,443.0"/>
    <path d="M 314.0,313.0 L 319.0,303.0 L 331.0,300.0 L 389.0,297.0"/>
    <path d="M 315.0,377.0 L 321.0,366.0 L 346.0,360.0 L 392.0,361.0"/>
    <path d="M 306.0,446.0 L 316.0,444.0 L 320.0,435.0 L 368.0,424.0 L 391.0,423.0 L 408.0,432.0"/>
    <path d="M 542.0,209.0 L 565.0,239.0 L 568.0,336.0 L 563.0,396.0 L 569.0,433.0"/>
    <path d="M 575.0,213.0 L 600.0,219.0 L 650.0,201.0 L 690.0,195.0 L 710.0,199.0 L 729.0,223.0 L 724.0,276.0 L 726.0,386.0 L 718.0,444.0"/>
    <path d="M 593.0,292.0 L 599.0,281.0 L 626.0,274.0 L 677.0,273.0"/>
    <path d="M 594.0,361.0 L 599.0,350.0 L 617.0,346.0 L 681.0,344.0"/>
    <path d="M 586.0,432.0 L 606.0,421.0 L 674.0,411.0 L 690.0,402.0"/>
    <path d="M 392.0,508.0 L 374.0,506.0 L 351.0,515.0 L 314.0,566.0 L 245.0,635.0 L 162.0,697.0 L 102.0,728.0"/>
    <path d="M 324.0,597.0 L 324.0,690.0 L 315.0,766.0 L 320.0,803.0"/>
    <path d="M 484.0,445.0 L 524.0,468.0 L 544.0,490.0"/>
    <path d="M 405.0,539.0 L 469.0,542.0 L 640.0,513.0 L 679.0,514.0"/>
    <path d="M 418.0,618.0 L 440.0,620.0 L 617.0,593.0 L 641.0,592.0 L 656.0,598.0"/>
    <path d="M 410.0,686.0 L 447.0,687.0 L 619.0,660.0 L 664.0,666.0"/>
    <path d="M 507.0,559.0 L 533.0,586.0 L 525.0,714.0 L 511.0,728.0"/>
    <path d="M 349.0,779.0 L 357.0,772.0 L 486.0,754.0 L 684.0,734.0 L 730.0,737.0 L 761.0,748.0"/>
    <path d="M 364.0,835.0 L 419.0,839.0 L 568.0,813.0 L 612.0,832.0 L 590.0,879.0 L 556.0,928.0 L 498.0,982.0 L 421.0,1021.0 L 365.0,1040.0 L 232.0,1061.0"/>
    <path d="M 329.0,881.0 L 370.0,883.0 L 419.0,904.0 L 619.0,1023.0 L 695.0,1058.0 L 722.0,1065.0 L 861.0,1053.0"/>
  </g>
</svg>
