<svg xmlns="http://www.w3.org/2000/svg" viewBox="0 0 1024 1024">
  <g style="fill:none;stroke:#000000;stroke-width:50;stroke-linecap:round;stroke-linejoin:round;" transform="scale(1, 1) translate(0, 0)">
    <path d="M 96.0,303.0 L 129.0,345.0 L 135.0,432.0 L 131.0,693.0 L 119.0,797.0 L 124.0,875.0"/>
    <path d="M 150.0,317.0 L 172.0,320.0 L 229.0,301.0 L 258.0,309.0 L 274.0,323.0 L 277.0,778.0 L 265.0,828.0 L 268.0,874.0"/>
    <path d="M 158.0,515.0 L 167.0,503.0 L 178.0,500.0 L 226.0,500.0"/>
    <path d="M 157.0,653.0 L 165.0,641.0 L 179.0,637.0 L 209.0,632.0 L 230.0,636.0"/>
    <path d="M 149.0,847.0 L 162.0,835.0 L 190.0,829.0 L 213.0,830.0 L 222.0,840.0"/>
    <path d="M 432.0,217.0 L 494.0,251.0 L 517.0,282.0"/>
    <path d="M 367.0,364.0 L 413.0,367.0 L 527.0,338.0 L 563.0,337.0"/>
    <path d="M 382.0,429.0 L 420.0,480.0"/>
    <path d="M 522.0,379.0 L 539.0,409.0 L 508.0,481.0 L 486.0,507.0"/>
    <path d="M 319.0,553.0 L 352.0,558.0 L 527.0,515.0 L 586.0,516.0"/>
    <path d="M 365.0,624.0 L 389.0,653.0 L 391.0,721.0 L 378.0,864.0 L 359.0,943.0 L 358.0,983.0"/>
    <path d="M 411.0,633.0 L 419.0,636.0 L 471.0,618.0 L 500.0,615.0 L 525.0,634.0 L 522.0,682.0 L 537.0,905.0 L 531.0,949.0 L 510.0,982.0 L 432.0,952.0"/>
    <path d="M 410.0,751.0 L 417.0,740.0 L 471.0,732.0"/>
    <path d="M 406.0,841.0 L 411.0,831.0 L 431.0,826.0 L 462.0,822.0 L 477.0,827.0"/>
    <path d="M 692.0,343.0 L 704.0,334.0 L 755.0,325.0 L 819.0,303.0 L 849.0,303.0"/>
    <path d="M 640.0,244.0 L 674.0,273.0 L 655.0,455.0 L 684.0,455.0 L 772.0,427.0 L 800.0,429.0 L 808.0,436.0 L 810.0,452.0 L 789.0,510.0 L 763.0,533.0"/>
    <path d="M 673.0,584.0 L 682.0,574.0 L 765.0,554.0 L 801.0,548.0 L 825.0,555.0"/>
    <path d="M 619.0,555.0 L 637.0,573.0 L 645.0,597.0 L 636.0,755.0 L 639.0,865.0 L 652.0,925.0 L 679.0,964.0 L 718.0,983.0 L 787.0,992.0 L 861.0,984.0 L 907.0,966.0 L 934.0,942.0 L 940.0,824.0"/>
    <path d="M 667.0,676.0 L 770.0,666.0 L 817.0,653.0 L 832.0,657.0"/>
    <path d="M 660.0,748.0 L 670.0,753.0 L 706.0,752.0 L 805.0,734.0 L 824.0,736.0"/>
    <path d="M 659.0,832.0 L 670.0,839.0 L 693.0,838.0 L 804.0,821.0 L 841.0,824.0"/>
  </g>
</svg>
