<svg xmlns="http://www.w3.org/2000/svg" viewBox="0 0 1024 1024">
  <g style="fill:none;stroke:#000000;stroke-width:50;stroke-linecap:round;stroke-linejoin:round;" transform="scale(1, 1) translate(0, 0)">
    <path d="M 150.0,314.0 L 191.0,327.0 L 209.0,324.0 L 362.0,271.0 L 393.0,272.0 L 407.0,282.0 L 419.0,302.0 L 402.0,327.0 L 321.0,411.0 L 312.0,410.0"/>
    <path d="M 232.0,405.0 L 295.0,438.0 L 325.0,475.0"/>
    <path d="M 64.0,577.0 L 99.0,583.0 L 184.0,556.0 L 339.0,520.0 L 405.0,517.0 L 421.0,526.0 L 434.0,545.0 L 378.0,604.0"/>
    <path d="M 307.0,583.0 L 331.0,727.0 L 324.0,835.0 L 309.0,901.0 L 284.0,934.0 L 192.0,877.0"/>
    <path d="M 288.0,563.0 L 262.0,623.0 L 207.0,706.0 L 135.0,784.0 L 70.0,833.0"/>
    <path d="M 614.0,220.0 L 653.0,253.0 L 633.0,343.0 L 605.0,415.0 L 528.0,557.0 L 448.0,655.0 L 413.0,689.0"/>
    <path d="M 657.0,371.0 L 660.0,389.0 L 710.0,458.0 L 779.0,539.0 L 830.0,588.0 L 973.0,627.0"/>
    <path d="M 592.0,572.0 L 656.0,611.0 L 677.0,638.0"/>
    <path d="M 483.0,758.0 L 544.0,771.0 L 685.0,727.0 L 725.0,721.0 L 752.0,745.0 L 689.0,894.0 L 649.0,962.0 L 634.0,1015.0"/>
  </g>
</svg>
