<svg xmlns="http://www.w3.org/2000/svg" viewBox="0 0 1024 1024">
  <g style="fill:none;stroke:#000000;stroke-width:50;stroke-linecap:round;stroke-linejoin:round;" transform="scale(1, 1) translate(0, 0)">
    <path d="M 381.0,242.0 L 399.0,258.0 L 412.0,282.0 L 409.0,303.0 L 331.0,443.0 L 243.0,546.0"/>
    <path d="M 365.0,444.0 L 529.0,421.0 L 688.0,383.0 L 720.0,386.0"/>
    <path d="M 167.0,682.0 L 221.0,691.0 L 382.0,663.0 L 765.0,618.0 L 810.0,622.0 L 863.0,637.0"/>
    <path d="M 455.0,462.0 L 500.0,494.0 L 498.0,559.0 L 470.0,709.0 L 426.0,809.0 L 387.0,864.0 L 337.0,910.0 L 267.0,951.0 L 166.0,990.0"/>
    <path d="M 514.0,675.0 L 518.0,689.0 L 628.0,832.0 L 691.0,904.0 L 738.0,947.0 L 907.0,991.0"/>
  </g>
</svg>
