<svg xmlns="http://www.w3.org/2000/svg" viewBox="0 0 1024 1024">
  <g style="fill:none;stroke:#000000;stroke-width:50;stroke-linecap:round;stroke-linejoin:round;" transform="scale(1, 1) translate(0, 0)">
    <path d="M 265.0,359.0 L 304.0,369.0 L 373.0,368.0 L 585.0,339.0 L 740.0,310.0 L 809.0,312.0"/>
    <path d="M 444.0,389.0 L 476.0,420.0 L 474.0,430.0 L 435.0,514.0 L 371.0,616.0 L 257.0,753.0 L 142.0,850.0 L 79.0,890.0"/>
    <path d="M 376.0,667.0 L 377.0,701.0 L 424.0,952.0"/>
    <path d="M 408.0,668.0 L 427.0,680.0 L 668.0,630.0 L 696.0,627.0 L 720.0,636.0 L 754.0,671.0 L 714.0,815.0 L 681.0,843.0"/>
    <path d="M 446.0,918.0 L 459.0,904.0 L 669.0,873.0 L 725.0,874.0 L 754.0,883.0"/>
  </g>
</svg>
