<svg xmlns="http://www.w3.org/2000/svg" viewBox="0 0 1024 1024">
  <g style="fill:none;stroke:#000000;stroke-width:50;stroke-linecap:round;stroke-linejoin:round;" transform="scale(1, 1) translate(0, 0)">
    <path d="M 256.0,219.0 L 280.0,238.0 L 291.0,259.0 L 278.0,300.0 L 203.0,451.0 L 161.0,514.0 L 137.0,538.0"/>
    <path d="M 211.0,481.0 L 279.0,472.0 L 358.0,445.0 L 402.0,441.0"/>
    <path d="M 47.0,652.0 L 77.0,659.0 L 105.0,655.0 L 328.0,584.0 L 397.0,579.0"/>
    <path d="M 254.0,501.0 L 280.0,520.0 L 290.0,535.0 L 277.0,629.0 L 257.0,707.0 L 235.0,764.0 L 208.0,812.0 L 165.0,863.0 L 86.0,910.0"/>
    <path d="M 289.0,716.0 L 344.0,747.0 L 367.0,780.0"/>
    <path d="M 740.0,225.0 L 678.0,217.0 L 601.0,268.0 L 523.0,302.0 L 511.0,300.0 L 506.0,308.0 L 486.0,308.0 L 475.0,318.0"/>
    <path d="M 455.0,407.0 L 488.0,412.0 L 554.0,402.0 L 764.0,349.0 L 795.0,346.0 L 824.0,351.0"/>
    <path d="M 566.0,304.0 L 594.0,317.0 L 599.0,325.0 L 548.0,459.0 L 502.0,540.0 L 434.0,613.0 L 403.0,637.0"/>
    <path d="M 658.0,396.0 L 685.0,412.0 L 774.0,495.0 L 860.0,552.0 L 936.0,566.0 L 1006.0,571.0"/>
    <path d="M 534.0,544.0 L 557.0,658.0"/>
    <path d="M 560.0,556.0 L 573.0,547.0 L 628.0,535.0 L 644.0,526.0 L 680.0,522.0 L 702.0,544.0 L 689.0,581.0 L 669.0,598.0"/>
    <path d="M 574.0,647.0 L 580.0,638.0 L 658.0,620.0 L 717.0,621.0"/>
    <path d="M 420.0,733.0 L 439.0,750.0 L 449.0,798.0 L 450.0,891.0 L 441.0,945.0 L 447.0,989.0"/>
    <path d="M 461.0,740.0 L 479.0,748.0 L 648.0,718.0 L 787.0,705.0 L 817.0,709.0 L 845.0,729.0 L 845.0,934.0 L 835.0,989.0 L 820.0,1013.0 L 724.0,983.0"/>
    <path d="M 525.0,800.0 L 551.0,830.0 L 573.0,920.0"/>
    <path d="M 537.0,796.0 L 575.0,802.0 L 657.0,781.0 L 689.0,780.0 L 706.0,799.0 L 691.0,840.0 L 671.0,855.0"/>
    <path d="M 586.0,902.0 L 603.0,891.0 L 660.0,878.0 L 717.0,879.0"/>
  </g>
</svg>
