<svg xmlns="http://www.w3.org/2000/svg" viewBox="0 0 1024 1024">
  <g style="fill:none;stroke:#000000;stroke-width:50;stroke-linecap:round;stroke-linejoin:round;" transform="scale(1, 1) translate(0, 0)">
    <path d="M 132.0,373.0 L 196.0,376.0 L 370.0,321.0 L 429.0,317.0"/>
    <path d="M 231.0,398.0 L 259.0,417.0 L 266.0,432.0 L 247.0,501.0 L 219.0,569.0 L 154.0,686.0 L 75.0,779.0 L 45.0,806.0"/>
    <path d="M 163.0,604.0 L 195.0,650.0 L 229.0,853.0"/>
    <path d="M 220.0,630.0 L 237.0,617.0 L 338.0,586.0 L 353.0,583.0 L 366.0,588.0 L 389.0,610.0 L 388.0,619.0 L 368.0,706.0 L 344.0,724.0"/>
    <path d="M 247.0,796.0 L 262.0,778.0 L 330.0,757.0 L 405.0,754.0"/>
    <path d="M 582.0,204.0 L 595.0,212.0 L 614.0,239.0 L 617.0,247.0 L 608.0,271.0 L 565.0,357.0 L 518.0,432.0 L 476.0,490.0 L 447.0,518.0"/>
    <path d="M 549.0,432.0 L 626.0,423.0 L 792.0,377.0 L 833.0,376.0"/>
    <path d="M 483.0,611.0 L 541.0,600.0 L 637.0,560.0 L 678.0,563.0 L 689.0,576.0 L 673.0,610.0 L 613.0,684.0 L 563.0,763.0 L 534.0,832.0 L 527.0,873.0 L 533.0,913.0 L 557.0,946.0 L 590.0,963.0 L 666.0,979.0 L 739.0,980.0 L 827.0,968.0 L 885.0,944.0 L 910.0,927.0 L 915.0,770.0"/>
  </g>
</svg>
