<svg xmlns="http://www.w3.org/2000/svg" viewBox="0 0 1024 1024">
  <g style="fill:none;stroke:#000000;stroke-width:50;stroke-linecap:round;stroke-linejoin:round;" transform="scale(1, 1) translate(0, 0)">
    <path d="M 255.0,359.0 L 313.0,370.0 L 698.0,309.0 L 738.0,307.0 L 783.0,316.0"/>
    <path d="M 347.0,471.0 L 376.0,471.0 L 611.0,419.0 L 645.0,418.0 L 674.0,425.0"/>
    <path d="M 266.0,580.0 L 321.0,585.0 L 492.0,552.0 L 688.0,524.0 L 736.0,523.0 L 791.0,537.0"/>
    <path d="M 471.0,214.0 L 500.0,231.0 L 517.0,257.0 L 520.0,404.0 L 513.0,645.0"/>
    <path d="M 204.0,714.0 L 261.0,725.0 L 714.0,656.0 L 787.0,665.0"/>
    <path d="M 459.0,761.0 L 429.0,761.0 L 347.0,856.0 L 245.0,935.0 L 196.0,964.0 L 111.0,997.0"/>
    <path d="M 409.0,838.0 L 400.0,877.0 L 428.0,1044.0"/>
    <path d="M 425.0,835.0 L 435.0,845.0 L 455.0,844.0 L 643.0,801.0 L 667.0,803.0 L 702.0,838.0 L 674.0,919.0 L 647.0,934.0"/>
    <path d="M 447.0,981.0 L 459.0,992.0 L 468.0,992.0 L 644.0,968.0 L 685.0,969.0 L 715.0,977.0"/>
  </g>
</svg>
