<svg xmlns="http://www.w3.org/2000/svg" viewBox="0 0 1024 1024">
  <g style="fill:none;stroke:#000000;stroke-width:50;stroke-linecap:round;stroke-linejoin:round;" transform="scale(1, 1) translate(0, 0)">
    <path d="M 160.0,391.0 L 227.0,392.0 L 402.0,341.0 L 449.0,340.0"/>
    <path d="M 231.0,422.0 L 261.0,445.0 L 267.0,458.0 L 221.0,601.0 L 155.0,721.0 L 56.0,835.0"/>
    <path d="M 184.0,604.0 L 219.0,651.0 L 248.0,836.0"/>
    <path d="M 241.0,622.0 L 356.0,584.0 L 368.0,585.0 L 388.0,599.0 L 397.0,610.0 L 378.0,699.0 L 375.0,709.0 L 350.0,730.0"/>
    <path d="M 267.0,788.0 L 283.0,772.0 L 341.0,757.0 L 397.0,752.0 L 416.0,758.0"/>
    <path d="M 558.0,329.0 L 631.0,334.0 L 790.0,299.0 L 852.0,298.0"/>
    <path d="M 528.0,420.0 L 554.0,448.0 L 526.0,591.0 L 531.0,593.0 L 581.0,590.0 L 658.0,570.0 L 850.0,542.0 L 935.0,557.0"/>
    <path d="M 701.0,349.0 L 732.0,371.0 L 739.0,387.0 L 738.0,953.0 L 730.0,978.0 L 715.0,998.0 L 668.0,984.0 L 588.0,942.0"/>
    <path d="M 706.0,592.0 L 690.0,609.0 L 683.0,638.0 L 647.0,694.0 L 554.0,807.0 L 462.0,891.0 L 388.0,935.0"/>
  </g>
</svg>
