<svg xmlns="http://www.w3.org/2000/svg" viewBox="0 0 1024 1024">
  <g style="fill:none;stroke:#000000;stroke-width:50;stroke-linecap:round;stroke-linejoin:round;" transform="scale(1, 1) translate(0, 0)">
    <path d="M 147.0,404.0 L 208.0,405.0 L 357.0,354.0 L 407.0,352.0"/>
    <path d="M 226.0,428.0 L 255.0,452.0 L 244.0,501.0 L 201.0,618.0 L 141.0,723.0 L 49.0,831.0"/>
    <path d="M 171.0,608.0 L 202.0,649.0 L 237.0,845.0"/>
    <path d="M 227.0,624.0 L 338.0,584.0 L 350.0,584.0 L 368.0,596.0 L 377.0,607.0 L 357.0,713.0 L 337.0,724.0"/>
    <path d="M 261.0,794.0 L 270.0,778.0 L 328.0,759.0 L 380.0,752.0 L 392.0,756.0"/>
    <path d="M 496.0,587.0 L 508.0,576.0 L 555.0,562.0 L 585.0,556.0 L 617.0,558.0"/>
    <path d="M 430.0,407.0 L 468.0,448.0 L 470.0,475.0 L 474.0,628.0 L 457.0,820.0 L 462.0,850.0 L 507.0,838.0 L 617.0,763.0"/>
    <path d="M 846.0,446.0 L 855.0,458.0 L 861.0,493.0 L 727.0,579.0 L 719.0,579.0 L 707.0,588.0 L 707.0,599.0"/>
    <path d="M 634.0,260.0 L 662.0,276.0 L 684.0,309.0 L 671.0,502.0 L 673.0,708.0 L 682.0,828.0 L 697.0,876.0 L 736.0,909.0 L 793.0,923.0 L 870.0,918.0 L 904.0,911.0 L 926.0,899.0 L 941.0,882.0 L 947.0,712.0"/>
  </g>
</svg>
