<svg xmlns="http://www.w3.org/2000/svg" viewBox="0 0 1024 1024">
  <g style="fill:none;stroke:#000000;stroke-width:50;stroke-linecap:round;stroke-linejoin:round;" transform="scale(1, 1) translate(0, 0)">
    <path d="M 147.0,400.0 L 216.0,399.0 L 370.0,345.0 L 408.0,341.0 L 421.0,346.0"/>
    <path d="M 235.0,424.0 L 267.0,444.0 L 267.0,450.0 L 247.0,530.0 L 219.0,607.0 L 156.0,727.0 L 84.0,823.0 L 41.0,866.0"/>
    <path d="M 172.0,619.0 L 205.0,663.0 L 233.0,853.0"/>
    <path d="M 231.0,643.0 L 249.0,627.0 L 260.0,628.0 L 333.0,602.0 L 365.0,603.0 L 385.0,624.0 L 366.0,727.0 L 343.0,739.0"/>
    <path d="M 253.0,812.0 L 271.0,794.0 L 342.0,773.0 L 386.0,769.0 L 404.0,774.0"/>
    <path d="M 478.0,287.0 L 506.0,318.0 L 514.0,367.0 L 513.0,533.0 L 497.0,653.0 L 499.0,700.0"/>
    <path d="M 532.0,302.0 L 555.0,310.0 L 622.0,300.0 L 720.0,275.0 L 741.0,280.0 L 770.0,312.0 L 763.0,381.0 L 766.0,632.0 L 759.0,695.0"/>
    <path d="M 586.0,415.0 L 628.0,444.0 L 635.0,461.0 L 611.0,675.0 L 582.0,787.0 L 533.0,876.0 L 476.0,935.0 L 400.0,982.0 L 340.0,1005.0"/>
    <path d="M 642.0,681.0 L 663.0,717.0 L 657.0,830.0 L 663.0,917.0 L 677.0,955.0 L 707.0,977.0 L 752.0,989.0 L 812.0,992.0 L 878.0,978.0 L 912.0,957.0 L 926.0,933.0 L 932.0,796.0"/>
  </g>
</svg>
