<svg xmlns="http://www.w3.org/2000/svg" viewBox="0 0 1024 1024">
  <g style="fill:none;stroke:#000000;stroke-width:50;stroke-linecap:round;stroke-linejoin:round;" transform="scale(1, 1) translate(0, 0)">
    <path d="M 169.0,393.0 L 194.0,398.0 L 247.0,394.0 L 396.0,353.0 L 436.0,352.0 L 448.0,357.0"/>
    <path d="M 269.0,419.0 L 299.0,444.0 L 271.0,526.0 L 225.0,619.0 L 145.0,731.0 L 96.0,784.0 L 54.0,819.0"/>
    <path d="M 180.0,600.0 L 194.0,611.0 L 213.0,641.0 L 244.0,836.0"/>
    <path d="M 251.0,621.0 L 271.0,606.0 L 361.0,582.0 L 389.0,596.0 L 400.0,609.0 L 376.0,695.0 L 373.0,704.0 L 350.0,719.0"/>
    <path d="M 264.0,779.0 L 279.0,762.0 L 346.0,748.0 L 384.0,747.0 L 409.0,753.0"/>
    <path d="M 494.0,387.0 L 517.0,394.0 L 572.0,395.0 L 642.0,385.0 L 788.0,347.0 L 855.0,348.0"/>
    <path d="M 633.0,194.0 L 654.0,219.0 L 664.0,245.0 L 597.0,443.0 L 519.0,628.0 L 557.0,635.0 L 800.0,594.0 L 847.0,603.0"/>
    <path d="M 443.0,815.0 L 495.0,823.0 L 600.0,803.0 L 849.0,771.0 L 884.0,771.0 L 952.0,788.0"/>
    <path d="M 655.0,490.0 L 665.0,496.0 L 686.0,529.0 L 687.0,820.0 L 680.0,989.0 L 695.0,1070.0"/>
  </g>
</svg>
