<svg xmlns="http://www.w3.org/2000/svg" viewBox="0 0 1024 1024">
  <g style="fill:none;stroke:#000000;stroke-width:50;stroke-linecap:round;stroke-linejoin:round;" transform="scale(1, 1) translate(0, 0)">
    <path d="M 136.0,360.0 L 159.0,365.0 L 212.0,363.0 L 361.0,321.0 L 421.0,318.0"/>
    <path d="M 230.0,388.0 L 257.0,410.0 L 240.0,472.0 L 209.0,547.0 L 152.0,650.0 L 96.0,721.0 L 58.0,761.0 L 34.0,776.0 L 33.0,783.0"/>
    <path d="M 155.0,564.0 L 186.0,605.0 L 217.0,785.0"/>
    <path d="M 213.0,589.0 L 234.0,572.0 L 315.0,545.0 L 329.0,545.0 L 351.0,561.0 L 356.0,577.0 L 338.0,667.0 L 316.0,679.0"/>
    <path d="M 236.0,747.0 L 250.0,730.0 L 313.0,712.0 L 359.0,709.0 L 377.0,714.0"/>
    <path d="M 474.0,363.0 L 512.0,369.0 L 571.0,363.0 L 781.0,317.0 L 836.0,316.0"/>
    <path d="M 406.0,636.0 L 443.0,642.0 L 469.0,639.0 L 620.0,608.0 L 848.0,575.0 L 880.0,575.0 L 940.0,588.0"/>
    <path d="M 507.0,444.0 L 546.0,478.0 L 547.0,587.0 L 532.0,716.0 L 505.0,799.0 L 480.0,844.0 L 434.0,899.0 L 378.0,940.0"/>
    <path d="M 687.0,370.0 L 726.0,389.0 L 737.0,419.0 L 731.0,1085.0"/>
  </g>
</svg>
