<svg xmlns="http://www.w3.org/2000/svg" viewBox="0 0 1024 1024">
  <g style="fill:none;stroke:#000000;stroke-width:50;stroke-linecap:round;stroke-linejoin:round;" transform="scale(1, 1) translate(0, 0)">
    <path d="M 161.0,386.0 L 216.0,392.0 L 392.0,351.0 L 449.0,349.0"/>
    <path d="M 345.0,413.0 L 323.0,420.0 L 308.0,434.0 L 268.0,561.0 L 205.0,684.0 L 139.0,772.0 L 101.0,813.0 L 87.0,819.0 L 86.0,826.0"/>
    <path d="M 199.0,614.0 L 227.0,658.0 L 246.0,869.0"/>
    <path d="M 254.0,642.0 L 284.0,622.0 L 315.0,619.0 L 348.0,607.0 L 378.0,609.0 L 398.0,629.0 L 381.0,717.0 L 360.0,733.0"/>
    <path d="M 268.0,793.0 L 285.0,777.0 L 349.0,761.0 L 415.0,763.0"/>
    <path d="M 605.0,207.0 L 630.0,231.0 L 640.0,252.0 L 613.0,319.0 L 547.0,433.0 L 484.0,519.0 L 439.0,565.0"/>
    <path d="M 539.0,487.0 L 613.0,479.0 L 837.0,429.0 L 868.0,430.0"/>
    <path d="M 631.0,501.0 L 657.0,519.0 L 666.0,535.0 L 650.0,960.0 L 663.0,1066.0"/>
    <path d="M 696.0,646.0 L 703.0,640.0 L 757.0,635.0 L 839.0,615.0 L 872.0,617.0"/>
    <path d="M 690.0,797.0 L 707.0,789.0 L 747.0,787.0 L 833.0,769.0 L 876.0,772.0"/>
  </g>
</svg>
