<svg xmlns="http://www.w3.org/2000/svg" viewBox="0 0 1024 1024">
  <g style="fill:none;stroke:#000000;stroke-width:50;stroke-linecap:round;stroke-linejoin:round;" transform="scale(1, 1) translate(0, 0)">
    <path d="M 145.0,429.0 L 206.0,433.0 L 356.0,396.0 L 417.0,395.0"/>
    <path d="M 255.0,453.0 L 285.0,477.0 L 237.0,607.0 L 171.0,719.0 L 117.0,783.0 L 65.0,830.0"/>
    <path d="M 179.0,621.0 L 212.0,668.0 L 237.0,881.0"/>
    <path d="M 243.0,648.0 L 267.0,632.0 L 350.0,613.0 L 378.0,626.0 L 389.0,639.0 L 368.0,726.0 L 345.0,743.0"/>
    <path d="M 257.0,801.0 L 275.0,785.0 L 336.0,770.0 L 388.0,766.0 L 408.0,772.0"/>
    <path d="M 573.0,229.0 L 659.0,278.0 L 693.0,324.0"/>
    <path d="M 472.0,398.0 L 486.0,432.0 L 453.0,535.0 L 451.0,566.0"/>
    <path d="M 510.0,459.0 L 529.0,444.0 L 625.0,418.0 L 797.0,387.0 L 832.0,390.0 L 850.0,399.0 L 867.0,424.0 L 794.0,505.0"/>
    <path d="M 737.0,588.0 L 746.0,599.0 L 753.0,632.0 L 659.0,699.0 L 579.0,745.0 L 570.0,757.0"/>
    <path d="M 524.0,583.0 L 545.0,606.0 L 552.0,627.0 L 542.0,788.0 L 549.0,882.0 L 561.0,921.0 L 589.0,947.0 L 655.0,970.0 L 713.0,976.0 L 781.0,969.0 L 841.0,950.0 L 877.0,917.0 L 884.0,784.0"/>
  </g>
</svg>
