<svg xmlns="http://www.w3.org/2000/svg" viewBox="0 0 1024 1024">
  <g style="fill:none;stroke:#000000;stroke-width:50;stroke-linecap:round;stroke-linejoin:round;" transform="scale(1, 1) translate(0, 0)">
    <path d="M 156.0,390.0 L 180.0,395.0 L 232.0,391.0 L 399.0,343.0 L 436.0,346.0"/>
    <path d="M 315.0,418.0 L 296.0,423.0 L 281.0,437.0 L 252.0,536.0 L 193.0,664.0 L 111.0,779.0 L 50.0,842.0"/>
    <path d="M 177.0,627.0 L 201.0,661.0 L 210.0,686.0 L 237.0,867.0"/>
    <path d="M 232.0,648.0 L 249.0,638.0 L 342.0,613.0 L 360.0,611.0 L 382.0,624.0 L 392.0,636.0 L 391.0,647.0 L 372.0,732.0 L 348.0,750.0"/>
    <path d="M 254.0,809.0 L 265.0,796.0 L 349.0,777.0 L 386.0,774.0 L 413.0,781.0"/>
    <path d="M 534.0,298.0 L 556.0,313.0 L 576.0,314.0 L 813.0,279.0 L 865.0,279.0"/>
    <path d="M 587.0,502.0 L 602.0,518.0 L 609.0,547.0 L 611.0,612.0 L 597.0,695.0 L 600.0,731.0"/>
    <path d="M 628.0,509.0 L 639.0,516.0 L 691.0,509.0 L 826.0,481.0 L 851.0,479.0 L 864.0,489.0 L 874.0,500.0 L 873.0,600.0 L 868.0,659.0 L 859.0,687.0 L 851.0,698.0 L 786.0,673.0"/>
    <path d="M 693.0,354.0 L 724.0,385.0 L 727.0,879.0"/>
    <path d="M 473.0,280.0 L 504.0,317.0 L 511.0,359.0 L 509.0,612.0 L 494.0,950.0 L 536.0,953.0 L 678.0,929.0 L 854.0,919.0 L 898.0,921.0 L 930.0,934.0"/>
  </g>
</svg>
