<svg xmlns="http://www.w3.org/2000/svg" viewBox="0 0 1024 1024">
  <g style="fill:none;stroke:#000000;stroke-width:50;stroke-linecap:round;stroke-linejoin:round;" transform="scale(1, 1) translate(0, 0)">
    <path d="M 155.0,432.0 L 220.0,435.0 L 292.0,419.0 L 393.0,384.0 L 442.0,383.0"/>
    <path d="M 303.0,464.0 L 282.0,471.0 L 269.0,484.0 L 225.0,622.0 L 171.0,726.0 L 94.0,827.0 L 54.0,866.0"/>
    <path d="M 181.0,644.0 L 211.0,689.0 L 244.0,875.0"/>
    <path d="M 236.0,668.0 L 248.0,659.0 L 341.0,632.0 L 372.0,635.0 L 392.0,656.0 L 390.0,665.0 L 367.0,739.0 L 343.0,755.0"/>
    <path d="M 261.0,816.0 L 270.0,803.0 L 339.0,783.0 L 378.0,780.0 L 401.0,786.0"/>
    <path d="M 588.0,203.0 L 613.0,226.0 L 624.0,249.0 L 605.0,291.0 L 513.0,443.0 L 439.0,525.0"/>
    <path d="M 541.0,445.0 L 602.0,444.0 L 795.0,397.0 L 812.0,398.0 L 835.0,416.0 L 821.0,570.0 L 807.0,623.0 L 789.0,662.0 L 765.0,687.0 L 700.0,658.0"/>
    <path d="M 526.0,579.0 L 549.0,582.0 L 626.0,559.0 L 639.0,559.0 L 656.0,572.0 L 664.0,582.0 L 643.0,653.0 L 618.0,675.0"/>
    <path d="M 523.0,726.0 L 532.0,719.0 L 614.0,702.0 L 666.0,707.0"/>
    <path d="M 479.0,571.0 L 497.0,591.0 L 504.0,611.0 L 490.0,774.0 L 497.0,887.0 L 510.0,928.0 L 544.0,962.0 L 595.0,985.0 L 693.0,1000.0 L 784.0,994.0 L 855.0,976.0 L 888.0,960.0 L 921.0,932.0 L 928.0,817.0"/>
  </g>
</svg>
