<svg xmlns="http://www.w3.org/2000/svg" viewBox="0 0 1024 1024">
  <g style="fill:none;stroke:#000000;stroke-width:50;stroke-linecap:round;stroke-linejoin:round;" transform="scale(1, 1) translate(0, 0)">
    <path d="M 265.0,410.0 L 295.0,415.0 L 350.0,411.0 L 448.0,392.0 L 648.0,337.0 L 705.0,333.0"/>
    <path d="M 458.0,195.0 L 488.0,238.0 L 448.0,406.0 L 389.0,549.0 L 326.0,631.0 L 283.0,670.0 L 225.0,708.0 L 180.0,724.0"/>
    <path d="M 523.0,397.0 L 552.0,422.0 L 543.0,514.0 L 550.0,592.0 L 561.0,612.0 L 598.0,634.0 L 636.0,640.0 L 728.0,640.0 L 789.0,629.0 L 840.0,605.0 L 836.0,481.0"/>
    <path d="M 698.0,404.0 L 704.0,428.0 L 701.0,450.0 L 693.0,456.0 L 574.0,522.0 L 478.0,552.0"/>
    <path d="M 654.0,217.0 L 739.0,260.0 L 766.0,294.0"/>
    <path d="M 296.0,737.0 L 365.0,748.0 L 455.0,740.0 L 643.0,709.0 L 678.0,713.0"/>
    <path d="M 451.0,783.0 L 410.0,799.0 L 356.0,879.0 L 284.0,956.0 L 235.0,994.0 L 167.0,1033.0"/>
    <path d="M 328.0,875.0 L 369.0,931.0 L 400.0,1049.0"/>
    <path d="M 379.0,895.0 L 641.0,851.0 L 663.0,861.0 L 685.0,890.0 L 659.0,951.0 L 631.0,966.0"/>
    <path d="M 414.0,1007.0 L 429.0,1017.0 L 611.0,994.0 L 681.0,1004.0"/>
  </g>
</svg>
