<svg xmlns="http://www.w3.org/2000/svg" viewBox="0 0 1024 1024">
  <g style="fill:none;stroke:#000000;stroke-width:50;stroke-linecap:round;stroke-linejoin:round;" transform="scale(1, 1) translate(0, 0)">
    <path d="M 135.0,407.0 L 195.0,410.0 L 328.0,372.0 L 380.0,369.0"/>
    <path d="M 212.0,432.0 L 243.0,457.0 L 227.0,519.0 L 199.0,589.0 L 139.0,696.0 L 82.0,765.0 L 52.0,791.0"/>
    <path d="M 187.0,666.0 L 191.0,674.0 L 186.0,709.0 L 209.0,875.0"/>
    <path d="M 207.0,667.0 L 227.0,670.0 L 297.0,645.0 L 319.0,647.0 L 330.0,657.0 L 338.0,665.0 L 325.0,738.0 L 304.0,759.0"/>
    <path d="M 225.0,817.0 L 241.0,804.0 L 299.0,787.0 L 353.0,788.0"/>
    <path d="M 406.0,403.0 L 451.0,407.0 L 603.0,370.0 L 665.0,371.0"/>
    <path d="M 359.0,591.0 L 410.0,596.0 L 610.0,552.0 L 652.0,557.0"/>
    <path d="M 432.0,472.0 L 466.0,506.0 L 463.0,646.0 L 447.0,733.0 L 422.0,804.0 L 384.0,861.0 L 346.0,898.0 L 314.0,917.0"/>
    <path d="M 557.0,406.0 L 575.0,417.0 L 591.0,443.0 L 592.0,754.0 L 584.0,883.0 L 598.0,972.0"/>
    <path d="M 686.0,487.0 L 711.0,522.0 L 714.0,635.0 L 708.0,696.0 L 714.0,741.0"/>
    <path d="M 799.0,267.0 L 817.0,275.0 L 850.0,308.0 L 847.0,567.0 L 856.0,917.0 L 837.0,965.0 L 811.0,959.0 L 723.0,921.0 L 721.0,914.0 L 710.0,914.0"/>
  </g>
</svg>
