<svg xmlns="http://www.w3.org/2000/svg" viewBox="0 0 1024 1024">
  <g style="fill:none;stroke:#000000;stroke-width:50;stroke-linecap:round;stroke-linejoin:round;" transform="scale(1, 1) translate(0, 0)">
    <path d="M 167.0,403.0 L 222.0,405.0 L 371.0,362.0 L 416.0,361.0"/>
    <path d="M 237.0,427.0 L 270.0,453.0 L 260.0,493.0 L 224.0,578.0 L 156.0,693.0 L 80.0,779.0 L 64.0,793.0 L 52.0,795.0 L 49.0,804.0"/>
    <path d="M 177.0,604.0 L 205.0,639.0 L 236.0,827.0"/>
    <path d="M 230.0,617.0 L 245.0,606.0 L 305.0,585.0 L 350.0,583.0 L 370.0,602.0 L 356.0,695.0 L 335.0,711.0"/>
    <path d="M 252.0,766.0 L 261.0,757.0 L 327.0,738.0 L 388.0,738.0"/>
    <path d="M 450.0,315.0 L 481.0,347.0 L 491.0,373.0 L 492.0,397.0 L 485.0,699.0 L 475.0,809.0 L 460.0,883.0 L 459.0,946.0"/>
    <path d="M 510.0,333.0 L 545.0,346.0 L 754.0,306.0 L 806.0,303.0 L 834.0,313.0 L 859.0,340.0 L 866.0,775.0 L 861.0,908.0 L 844.0,947.0 L 801.0,938.0 L 714.0,901.0"/>
    <path d="M 571.0,467.0 L 626.0,469.0 L 728.0,444.0 L 760.0,445.0"/>
    <path d="M 545.0,578.0 L 573.0,610.0 L 601.0,763.0"/>
    <path d="M 588.0,581.0 L 601.0,588.0 L 686.0,569.0 L 718.0,572.0 L 736.0,592.0 L 719.0,662.0 L 700.0,678.0"/>
    <path d="M 618.0,726.0 L 631.0,715.0 L 689.0,703.0 L 730.0,700.0 L 751.0,706.0"/>
  </g>
</svg>
