<svg xmlns="http://www.w3.org/2000/svg" viewBox="0 0 1024 1024">
  <g style="fill:none;stroke:#000000;stroke-width:50;stroke-linecap:round;stroke-linejoin:round;" transform="scale(1, 1) translate(0, 0)">
    <path d="M 136.0,394.0 L 157.0,399.0 L 206.0,396.0 L 354.0,358.0 L 398.0,359.0"/>
    <path d="M 222.0,417.0 L 251.0,438.0 L 257.0,453.0 L 221.0,557.0 L 157.0,676.0 L 93.0,754.0 L 42.0,802.0"/>
    <path d="M 171.0,599.0 L 202.0,646.0 L 229.0,845.0"/>
    <path d="M 225.0,615.0 L 235.0,607.0 L 322.0,581.0 L 350.0,581.0 L 374.0,602.0 L 351.0,710.0 L 332.0,728.0"/>
    <path d="M 246.0,788.0 L 260.0,772.0 L 321.0,756.0 L 371.0,751.0 L 392.0,758.0"/>
    <path d="M 430.0,394.0 L 457.0,396.0 L 526.0,382.0 L 623.0,350.0 L 694.0,317.0 L 750.0,310.0"/>
    <path d="M 502.0,201.0 L 528.0,216.0 L 548.0,238.0 L 579.0,347.0 L 632.0,438.0 L 689.0,509.0 L 755.0,567.0 L 793.0,587.0 L 836.0,593.0 L 849.0,559.0 L 862.0,463.0"/>
    <path d="M 750.0,377.0 L 759.0,398.0 L 760.0,420.0 L 741.0,438.0 L 623.0,523.0 L 515.0,580.0 L 465.0,597.0"/>
    <path d="M 427.0,697.0 L 473.0,704.0 L 700.0,660.0 L 766.0,664.0"/>
    <path d="M 499.0,728.0 L 526.0,746.0 L 533.0,758.0 L 507.0,851.0 L 487.0,892.0 L 465.0,925.0 L 432.0,958.0 L 402.0,978.0 L 349.0,1000.0"/>
    <path d="M 613.0,706.0 L 648.0,730.0 L 635.0,863.0 L 640.0,928.0 L 654.0,968.0 L 682.0,989.0 L 715.0,998.0 L 770.0,1002.0 L 858.0,995.0 L 911.0,978.0 L 920.0,972.0 L 921.0,957.0 L 916.0,833.0"/>
  </g>
</svg>
