<svg xmlns="http://www.w3.org/2000/svg" viewBox="0 0 1024 1024">
  <g style="fill:none;stroke:#000000;stroke-width:50;stroke-linecap:round;stroke-linejoin:round;" transform="scale(1, 1) translate(0, 0)">
    <path d="M 168.0,350.0 L 235.0,351.0 L 398.0,305.0 L 434.0,305.0"/>
    <path d="M 253.0,375.0 L 285.0,404.0 L 261.0,485.0 L 230.0,560.0 L 187.0,641.0 L 147.0,700.0 L 91.0,766.0 L 52.0,795.0 L 49.0,803.0"/>
    <path d="M 193.0,576.0 L 222.0,616.0 L 252.0,799.0"/>
    <path d="M 245.0,593.0 L 345.0,551.0 L 378.0,552.0 L 398.0,571.0 L 397.0,581.0 L 381.0,664.0 L 377.0,674.0 L 360.0,686.0"/>
    <path d="M 271.0,751.0 L 284.0,736.0 L 339.0,719.0 L 407.0,717.0"/>
    <path d="M 498.0,281.0 L 533.0,287.0 L 570.0,285.0 L 698.0,263.0 L 817.0,233.0 L 860.0,234.0"/>
    <path d="M 603.0,304.0 L 631.0,329.0 L 628.0,338.0 L 576.0,423.0 L 559.0,433.0"/>
    <path d="M 500.0,426.0 L 526.0,454.0 L 533.0,490.0 L 534.0,615.0 L 517.0,757.0 L 519.0,800.0"/>
    <path d="M 552.0,447.0 L 582.0,453.0 L 737.0,409.0 L 758.0,412.0 L 788.0,442.0 L 784.0,574.0 L 789.0,725.0 L 783.0,787.0"/>
    <path d="M 613.0,529.0 L 650.0,553.0 L 658.0,570.0 L 646.0,756.0 L 622.0,856.0 L 585.0,917.0 L 548.0,948.0 L 473.0,989.0 L 415.0,1009.0 L 410.0,1006.0"/>
    <path d="M 725.0,849.0 L 828.0,941.0 L 855.0,983.0 L 862.0,1018.0"/>
  </g>
</svg>
