<svg xmlns="http://www.w3.org/2000/svg" viewBox="0 0 1024 1024">
  <g style="fill:none;stroke:#000000;stroke-width:50;stroke-linecap:round;stroke-linejoin:round;" transform="scale(1, 1) translate(0, 0)">
    <path d="M 171.0,396.0 L 224.0,399.0 L 409.0,347.0 L 446.0,347.0"/>
    <path d="M 238.0,422.0 L 273.0,452.0 L 232.0,581.0 L 197.0,651.0 L 147.0,729.0 L 84.0,804.0 L 50.0,834.0"/>
    <path d="M 180.0,609.0 L 210.0,648.0 L 245.0,837.0"/>
    <path d="M 239.0,625.0 L 254.0,615.0 L 344.0,589.0 L 365.0,588.0 L 385.0,600.0 L 396.0,613.0 L 370.0,711.0 L 349.0,720.0"/>
    <path d="M 263.0,788.0 L 276.0,773.0 L 341.0,754.0 L 400.0,757.0"/>
    <path d="M 578.0,209.0 L 664.0,267.0 L 686.0,302.0"/>
    <path d="M 470.0,409.0 L 534.0,416.0 L 771.0,366.0 L 840.0,362.0"/>
    <path d="M 566.0,442.0 L 596.0,468.0 L 569.0,527.0 L 529.0,587.0 L 521.0,616.0 L 551.0,618.0 L 711.0,574.0 L 740.0,568.0 L 754.0,572.0"/>
    <path d="M 718.0,494.0 L 783.0,554.0 L 799.0,576.0 L 807.0,606.0"/>
    <path d="M 471.0,716.0 L 491.0,733.0 L 502.0,757.0 L 496.0,817.0 L 477.0,883.0 L 458.0,920.0 L 429.0,954.0 L 390.0,981.0 L 356.0,994.0"/>
    <path d="M 603.0,699.0 L 627.0,733.0 L 625.0,941.0"/>
    <path d="M 731.0,663.0 L 756.0,692.0 L 751.0,815.0 L 759.0,897.0 L 771.0,926.0 L 793.0,947.0 L 837.0,964.0 L 876.0,967.0 L 922.0,958.0 L 944.0,945.0 L 956.0,932.0 L 954.0,830.0"/>
  </g>
</svg>
