<svg xmlns="http://www.w3.org/2000/svg" viewBox="0 0 1024 1024">
  <g style="fill:none;stroke:#000000;stroke-width:50;stroke-linecap:round;stroke-linejoin:round;" transform="scale(1, 1) translate(0, 0)">
    <path d="M 136.0,394.0 L 157.0,399.0 L 206.0,396.0 L 354.0,358.0 L 398.0,359.0"/>
    <path d="M 222.0,417.0 L 251.0,438.0 L 257.0,453.0 L 221.0,557.0 L 157.0,676.0 L 93.0,754.0 L 42.0,802.0"/>
    <path d="M 171.0,599.0 L 202.0,646.0 L 229.0,845.0"/>
    <path d="M 225.0,615.0 L 235.0,607.0 L 322.0,581.0 L 350.0,581.0 L 374.0,602.0 L 351.0,710.0 L 332.0,728.0"/>
    <path d="M 246.0,788.0 L 260.0,772.0 L 321.0,756.0 L 371.0,751.0 L 392.0,758.0"/>
    <path d="M 423.0,427.0 L 480.0,431.0 L 805.0,373.0 L 861.0,373.0 L 897.0,385.0"/>
    <path d="M 492.0,300.0 L 511.0,309.0 L 530.0,329.0 L 560.0,486.0"/>
    <path d="M 720.0,216.0 L 735.0,223.0 L 757.0,251.0 L 736.0,342.0 L 695.0,472.0"/>
    <path d="M 584.0,514.0 L 653.0,555.0 L 683.0,596.0"/>
    <path d="M 425.0,688.0 L 462.0,695.0 L 591.0,668.0 L 802.0,638.0 L 858.0,642.0 L 889.0,652.0"/>
    <path d="M 501.0,717.0 L 530.0,730.0 L 536.0,739.0 L 525.0,923.0 L 567.0,920.0 L 661.0,899.0 L 786.0,888.0 L 837.0,889.0 L 891.0,909.0"/>
  </g>
</svg>
