<svg xmlns="http://www.w3.org/2000/svg" viewBox="0 0 1024 1024">
  <g style="fill:none;stroke:#000000;stroke-width:50;stroke-linecap:round;stroke-linejoin:round;" transform="scale(1, 1) translate(0, 0)">
    <path d="M 139.0,372.0 L 211.0,372.0 L 365.0,320.0 L 417.0,321.0"/>
    <path d="M 231.0,392.0 L 266.0,419.0 L 241.0,513.0 L 208.0,595.0 L 152.0,697.0 L 88.0,779.0 L 37.0,830.0"/>
    <path d="M 159.0,611.0 L 191.0,666.0 L 217.0,865.0"/>
    <path d="M 218.0,640.0 L 234.0,628.0 L 318.0,602.0 L 349.0,603.0 L 370.0,622.0 L 354.0,705.0 L 332.0,731.0"/>
    <path d="M 235.0,794.0 L 244.0,780.0 L 304.0,763.0 L 346.0,757.0 L 384.0,760.0"/>
    <path d="M 549.0,188.0 L 574.0,212.0 L 584.0,232.0 L 559.0,295.0 L 482.0,429.0 L 425.0,508.0 L 391.0,541.0"/>
    <path d="M 496.0,455.0 L 501.0,485.0 L 523.0,524.0 L 523.0,728.0 L 502.0,987.0 L 507.0,1055.0"/>
    <path d="M 669.0,251.0 L 750.0,299.0 L 771.0,331.0"/>
    <path d="M 592.0,457.0 L 650.0,459.0 L 834.0,412.0 L 875.0,412.0"/>
    <path d="M 613.0,600.0 L 641.0,598.0 L 791.0,557.0 L 829.0,553.0 L 852.0,559.0"/>
    <path d="M 610.0,712.0 L 641.0,711.0 L 797.0,676.0 L 839.0,672.0 L 862.0,678.0"/>
    <path d="M 692.0,473.0 L 724.0,494.0 L 722.0,793.0 L 706.0,817.0"/>
    <path d="M 545.0,857.0 L 558.0,865.0 L 581.0,867.0 L 854.0,822.0 L 889.0,822.0 L 946.0,836.0"/>
  </g>
</svg>
