<svg xmlns="http://www.w3.org/2000/svg" viewBox="0 0 1024 1024">
  <g style="fill:none;stroke:#000000;stroke-width:50;stroke-linecap:round;stroke-linejoin:round;" transform="scale(1, 1) translate(0, 0)">
    <path d="M 115.0,436.0 L 138.0,440.0 L 190.0,433.0 L 334.0,382.0 L 381.0,378.0"/>
    <path d="M 211.0,455.0 L 243.0,478.0 L 219.0,561.0 L 187.0,634.0 L 127.0,732.0 L 85.0,785.0 L 33.0,835.0"/>
    <path d="M 145.0,635.0 L 174.0,675.0 L 205.0,871.0"/>
    <path d="M 197.0,662.0 L 212.0,648.0 L 297.0,618.0 L 315.0,616.0 L 335.0,627.0 L 346.0,638.0 L 327.0,732.0 L 307.0,749.0"/>
    <path d="M 224.0,808.0 L 238.0,795.0 L 309.0,775.0 L 347.0,771.0 L 365.0,776.0"/>
    <path d="M 397.0,465.0 L 432.0,495.0 L 440.0,515.0 L 470.0,706.0 L 475.0,724.0 L 488.0,731.0"/>
    <path d="M 469.0,505.0 L 480.0,488.0 L 725.0,435.0 L 737.0,427.0 L 799.0,423.0 L 827.0,433.0 L 846.0,463.0 L 797.0,670.0 L 768.0,696.0"/>
    <path d="M 512.0,613.0 L 553.0,610.0 L 704.0,577.0 L 726.0,575.0 L 747.0,581.0"/>
    <path d="M 512.0,302.0 L 549.0,341.0 L 554.0,362.0 L 562.0,441.0 L 571.0,705.0 L 559.0,722.0"/>
    <path d="M 669.0,205.0 L 715.0,247.0 L 715.0,267.0 L 674.0,690.0 L 655.0,712.0"/>
    <path d="M 397.0,757.0 L 443.0,765.0 L 644.0,735.0 L 890.0,711.0 L 924.0,712.0 L 975.0,727.0"/>
    <path d="M 573.0,842.0 L 535.0,852.0 L 468.0,936.0 L 420.0,979.0 L 351.0,1022.0"/>
    <path d="M 694.0,829.0 L 824.0,948.0 L 849.0,988.0 L 857.0,1026.0"/>
  </g>
</svg>
