<svg xmlns="http://www.w3.org/2000/svg" viewBox="0 0 1024 1024">
  <g style="fill:none;stroke:#000000;stroke-width:50;stroke-linecap:round;stroke-linejoin:round;" transform="scale(1, 1) translate(0, 0)">
    <path d="M 221.0,305.0 L 280.0,311.0 L 432.0,277.0 L 480.0,278.0"/>
    <path d="M 223.0,454.0 L 287.0,454.0 L 414.0,419.0 L 457.0,418.0"/>
    <path d="M 330.0,327.0 L 356.0,350.0 L 358.0,371.0 L 357.0,520.0 L 341.0,546.0"/>
    <path d="M 169.0,596.0 L 228.0,614.0 L 497.0,527.0"/>
    <path d="M 640.0,191.0 L 662.0,209.0 L 669.0,223.0 L 623.0,302.0 L 615.0,312.0 L 601.0,315.0"/>
    <path d="M 528.0,324.0 L 551.0,347.0 L 564.0,371.0 L 574.0,513.0 L 588.0,580.0"/>
    <path d="M 576.0,335.0 L 596.0,343.0 L 754.0,307.0 L 787.0,311.0 L 814.0,338.0 L 780.0,525.0 L 772.0,545.0 L 751.0,548.0"/>
    <path d="M 598.0,450.0 L 608.0,441.0 L 681.0,426.0 L 705.0,424.0 L 727.0,430.0"/>
    <path d="M 603.0,556.0 L 616.0,545.0 L 628.0,548.0 L 743.0,528.0"/>
    <path d="M 271.0,704.0 L 296.0,711.0 L 348.0,711.0 L 753.0,649.0 L 809.0,658.0"/>
    <path d="M 439.0,726.0 L 460.0,754.0 L 413.0,815.0 L 357.0,872.0 L 268.0,947.0 L 215.0,982.0 L 151.0,1016.0 L 88.0,1040.0"/>
    <path d="M 421.0,851.0 L 411.0,896.0 L 444.0,1056.0"/>
    <path d="M 439.0,872.0 L 452.0,858.0 L 477.0,852.0 L 610.0,828.0 L 669.0,810.0 L 704.0,811.0 L 740.0,846.0 L 712.0,927.0 L 684.0,944.0"/>
    <path d="M 459.0,984.0 L 472.0,995.0 L 486.0,996.0 L 665.0,975.0 L 719.0,978.0 L 745.0,987.0"/>
  </g>
</svg>
