<svg xmlns="http://www.w3.org/2000/svg" viewBox="0 0 1024 1024">
  <g style="fill:none;stroke:#000000;stroke-width:50;stroke-linecap:round;stroke-linejoin:round;" transform="scale(1, 1) translate(0, 0)">
    <path d="M 148.0,368.0 L 178.0,373.0 L 219.0,370.0 L 381.0,324.0 L 420.0,329.0"/>
    <path d="M 236.0,394.0 L 270.0,419.0 L 257.0,475.0 L 215.0,585.0 L 152.0,697.0 L 87.0,779.0 L 61.0,805.0 L 47.0,811.0 L 46.0,818.0"/>
    <path d="M 157.0,603.0 L 187.0,642.0 L 213.0,839.0"/>
    <path d="M 219.0,626.0 L 244.0,608.0 L 310.0,592.0 L 336.0,590.0 L 352.0,603.0 L 361.0,613.0 L 340.0,704.0 L 318.0,727.0"/>
    <path d="M 229.0,789.0 L 247.0,771.0 L 313.0,756.0 L 371.0,761.0"/>
    <path d="M 479.0,242.0 L 505.0,265.0 L 519.0,295.0 L 534.0,425.0 L 543.0,459.0 L 551.0,467.0"/>
    <path d="M 530.0,254.0 L 554.0,262.0 L 631.0,239.0 L 749.0,219.0 L 785.0,230.0 L 808.0,261.0 L 783.0,319.0 L 747.0,438.0"/>
    <path d="M 555.0,361.0 L 582.0,347.0 L 645.0,332.0 L 682.0,328.0 L 704.0,333.0"/>
    <path d="M 568.0,456.0 L 573.0,449.0 L 712.0,426.0 L 724.0,415.0"/>
    <path d="M 539.0,483.0 L 558.0,517.0 L 540.0,546.0 L 475.0,616.0 L 421.0,655.0 L 408.0,656.0 L 402.0,665.0"/>
    <path d="M 552.0,577.0 L 803.0,532.0 L 837.0,537.0 L 865.0,567.0 L 857.0,615.0 L 847.0,791.0 L 827.0,895.0 L 806.0,951.0 L 785.0,981.0 L 755.0,1003.0 L 674.0,951.0 L 671.0,942.0 L 656.0,937.0"/>
    <path d="M 629.0,581.0 L 651.0,604.0 L 641.0,643.0 L 584.0,723.0 L 526.0,774.0"/>
    <path d="M 648.0,679.0 L 663.0,679.0 L 716.0,707.0 L 734.0,722.0 L 752.0,752.0"/>
    <path d="M 437.0,667.0 L 451.0,669.0 L 473.0,704.0 L 459.0,870.0 L 502.0,874.0 L 573.0,854.0 L 717.0,834.0 L 762.0,846.0"/>
  </g>
</svg>
