<svg xmlns="http://www.w3.org/2000/svg" viewBox="0 0 1024 1024">
  <g style="fill:none;stroke:#000000;stroke-width:50;stroke-linecap:round;stroke-linejoin:round;" transform="scale(1, 1) translate(0, 0)">
    <path d="M 136.0,408.0 L 158.0,413.0 L 209.0,410.0 L 358.0,366.0 L 417.0,362.0"/>
    <path d="M 227.0,434.0 L 258.0,457.0 L 230.0,559.0 L 194.0,649.0 L 127.0,760.0 L 72.0,829.0 L 47.0,855.0 L 35.0,859.0 L 33.0,867.0"/>
    <path d="M 163.0,636.0 L 194.0,678.0 L 225.0,869.0"/>
    <path d="M 220.0,655.0 L 234.0,645.0 L 319.0,621.0 L 339.0,619.0 L 360.0,631.0 L 369.0,641.0 L 353.0,731.0 L 350.0,744.0 L 331.0,763.0"/>
    <path d="M 246.0,824.0 L 250.0,812.0 L 334.0,787.0 L 372.0,782.0 L 393.0,788.0"/>
    <path d="M 511.0,278.0 L 570.0,329.0 L 583.0,354.0"/>
    <path d="M 740.0,205.0 L 765.0,236.0 L 645.0,406.0"/>
    <path d="M 473.0,470.0 L 534.0,476.0 L 809.0,414.0 L 849.0,413.0"/>
    <path d="M 551.0,503.0 L 582.0,521.0 L 584.0,555.0 L 584.0,851.0 L 582.0,877.0 L 566.0,887.0"/>
    <path d="M 680.0,475.0 L 708.0,491.0 L 712.0,509.0 L 703.0,857.0 L 686.0,872.0"/>
    <path d="M 437.0,624.0 L 484.0,689.0 L 494.0,709.0 L 497.0,737.0"/>
    <path d="M 814.0,557.0 L 825.0,564.0 L 840.0,595.0 L 760.0,698.0 L 746.0,708.0 L 735.0,729.0"/>
    <path d="M 362.0,931.0 L 413.0,941.0 L 636.0,909.0 L 867.0,890.0 L 899.0,892.0 L 958.0,911.0"/>
  </g>
</svg>
