<svg xmlns="http://www.w3.org/2000/svg" viewBox="0 0 1024 1024">
  <g style="fill:none;stroke:#000000;stroke-width:50;stroke-linecap:round;stroke-linejoin:round;" transform="scale(1, 1) translate(0, 0)">
    <path d="M 151.0,380.0 L 196.0,385.0 L 234.0,379.0 L 389.0,332.0 L 440.0,332.0"/>
    <path d="M 241.0,406.0 L 275.0,434.0 L 259.0,500.0 L 224.0,590.0 L 156.0,710.0 L 97.0,785.0 L 65.0,815.0"/>
    <path d="M 187.0,591.0 L 217.0,637.0 L 241.0,809.0"/>
    <path d="M 242.0,616.0 L 256.0,604.0 L 338.0,577.0 L 368.0,579.0 L 388.0,599.0 L 387.0,609.0 L 365.0,688.0 L 342.0,704.0"/>
    <path d="M 259.0,764.0 L 271.0,750.0 L 342.0,730.0 L 378.0,727.0 L 401.0,733.0"/>
    <path d="M 607.0,173.0 L 676.0,210.0 L 705.0,247.0"/>
    <path d="M 509.0,362.0 L 573.0,366.0 L 772.0,318.0 L 817.0,317.0"/>
    <path d="M 540.0,423.0 L 572.0,454.0 L 587.0,482.0"/>
    <path d="M 717.0,360.0 L 734.0,377.0 L 742.0,396.0 L 699.0,483.0 L 682.0,489.0"/>
    <path d="M 472.0,507.0 L 484.0,544.0 L 459.0,626.0 L 457.0,653.0"/>
    <path d="M 513.0,557.0 L 645.0,522.0 L 820.0,489.0 L 853.0,500.0 L 872.0,520.0 L 825.0,593.0"/>
    <path d="M 610.0,588.0 L 666.0,620.0 L 682.0,637.0"/>
    <path d="M 460.0,733.0 L 495.0,739.0 L 670.0,702.0 L 809.0,682.0 L 844.0,682.0 L 886.0,691.0"/>
    <path d="M 664.0,782.0 L 683.0,776.0 L 733.0,788.0 L 765.0,806.0 L 780.0,830.0 L 717.0,989.0 L 692.0,1022.0 L 665.0,1039.0 L 562.0,978.0"/>
    <path d="M 629.0,733.0 L 643.0,756.0 L 638.0,765.0 L 583.0,842.0 L 532.0,900.0 L 440.0,973.0 L 356.0,1010.0"/>
  </g>
</svg>
