<svg xmlns="http://www.w3.org/2000/svg" viewBox="0 0 1024 1024">
  <g style="fill:none;stroke:#000000;stroke-width:50;stroke-linecap:round;stroke-linejoin:round;" transform="scale(1, 1) translate(0, 0)">
    <path d="M 155.0,412.0 L 224.0,411.0 L 380.0,364.0 L 422.0,363.0"/>
    <path d="M 242.0,438.0 L 272.0,463.0 L 231.0,589.0 L 164.0,712.0 L 121.0,769.0 L 70.0,824.0 L 59.0,828.0 L 59.0,835.0 L 43.0,842.0 L 41.0,850.0"/>
    <path d="M 171.0,623.0 L 200.0,669.0 L 225.0,874.0"/>
    <path d="M 227.0,654.0 L 246.0,638.0 L 283.0,631.0 L 309.0,618.0 L 338.0,617.0 L 354.0,630.0 L 361.0,638.0 L 337.0,740.0 L 318.0,750.0"/>
    <path d="M 246.0,812.0 L 262.0,795.0 L 309.0,783.0 L 355.0,779.0 L 372.0,784.0"/>
    <path d="M 494.0,294.0 L 559.0,354.0 L 581.0,400.0"/>
    <path d="M 730.0,225.0 L 755.0,243.0 L 765.0,258.0 L 719.0,348.0 L 661.0,440.0 L 641.0,454.0"/>
    <path d="M 409.0,516.0 L 462.0,519.0 L 560.0,493.0 L 839.0,441.0 L 901.0,445.0 L 919.0,453.0"/>
    <path d="M 481.0,543.0 L 499.0,557.0 L 506.0,573.0 L 439.0,700.0 L 427.0,738.0 L 496.0,739.0 L 524.0,727.0"/>
    <path d="M 568.0,637.0 L 586.0,670.0 L 553.0,733.0 L 442.0,890.0 L 435.0,918.0 L 459.0,919.0 L 553.0,893.0 L 558.0,898.0"/>
    <path d="M 549.0,833.0 L 591.0,891.0 L 600.0,931.0"/>
    <path d="M 727.0,488.0 L 753.0,520.0 L 702.0,635.0 L 664.0,704.0 L 658.0,731.0 L 729.0,734.0 L 766.0,723.0"/>
    <path d="M 822.0,609.0 L 836.0,629.0 L 840.0,648.0 L 783.0,742.0 L 699.0,853.0 L 683.0,880.0 L 681.0,905.0 L 727.0,899.0 L 828.0,867.0 L 835.0,873.0"/>
    <path d="M 820.0,806.0 L 896.0,910.0 L 908.0,939.0 L 909.0,971.0"/>
  </g>
</svg>
