<svg xmlns="http://www.w3.org/2000/svg" viewBox="0 0 1024 1024">
  <g style="fill:none;stroke:#000000;stroke-width:50;stroke-linecap:round;stroke-linejoin:round;" transform="scale(1, 1) translate(0, 0)">
    <path d="M 132.0,414.0 L 192.0,416.0 L 309.0,381.0 L 343.0,375.0 L 369.0,380.0"/>
    <path d="M 210.0,438.0 L 240.0,463.0 L 218.0,547.0 L 193.0,613.0 L 164.0,675.0 L 122.0,741.0 L 44.0,831.0"/>
    <path d="M 157.0,615.0 L 187.0,670.0 L 213.0,859.0"/>
    <path d="M 211.0,643.0 L 305.0,611.0 L 328.0,610.0 L 343.0,621.0 L 353.0,632.0 L 326.0,725.0 L 302.0,740.0"/>
    <path d="M 230.0,796.0 L 245.0,781.0 L 302.0,766.0 L 338.0,763.0 L 360.0,768.0"/>
    <path d="M 541.0,193.0 L 610.0,233.0 L 638.0,261.0"/>
    <path d="M 418.0,354.0 L 483.0,360.0 L 641.0,331.0 L 774.0,299.0 L 819.0,300.0"/>
    <path d="M 688.0,379.0 L 777.0,426.0 L 796.0,442.0 L 817.0,473.0"/>
    <path d="M 473.0,385.0 L 495.0,405.0 L 500.0,420.0 L 494.0,433.0 L 460.0,487.0 L 419.0,536.0 L 389.0,559.0"/>
    <path d="M 575.0,442.0 L 598.0,480.0 L 556.0,548.0 L 508.0,601.0 L 496.0,632.0 L 518.0,635.0 L 653.0,590.0 L 706.0,581.0"/>
    <path d="M 684.0,513.0 L 745.0,585.0"/>
    <path d="M 545.0,657.0 L 544.0,708.0 L 470.0,799.0 L 368.0,884.0 L 277.0,937.0"/>
    <path d="M 521.0,791.0 L 526.0,855.0 L 519.0,927.0 L 527.0,967.0 L 566.0,954.0 L 670.0,875.0"/>
    <path d="M 823.0,682.0 L 784.0,669.0 L 687.0,748.0 L 679.0,744.0"/>
    <path d="M 581.0,697.0 L 635.0,740.0 L 694.0,802.0 L 747.0,847.0 L 829.0,901.0 L 861.0,911.0 L 980.0,914.0"/>
  </g>
</svg>
