<svg xmlns="http://www.w3.org/2000/svg" viewBox="0 0 1024 1024">
  <g style="fill:none;stroke:#000000;stroke-width:50;stroke-linecap:round;stroke-linejoin:round;" transform="scale(1, 1) translate(0, 0)">
    <path d="M 220.0,322.0 L 264.0,327.0 L 354.0,312.0 L 440.0,288.0 L 487.0,286.0"/>
    <path d="M 340.0,205.0 L 374.0,237.0 L 370.0,367.0 L 365.0,384.0 L 355.0,393.0"/>
    <path d="M 260.0,429.0 L 340.0,420.0 L 416.0,400.0 L 465.0,402.0"/>
    <path d="M 252.0,525.0 L 272.0,512.0 L 432.0,479.0 L 454.0,491.0 L 465.0,505.0 L 444.0,565.0 L 429.0,573.0"/>
    <path d="M 326.0,520.0 L 343.0,540.0 L 339.0,580.0 L 323.0,593.0"/>
    <path d="M 240.0,639.0 L 259.0,630.0 L 420.0,599.0 L 468.0,606.0"/>
    <path d="M 182.0,499.0 L 202.0,509.0 L 218.0,529.0 L 212.0,650.0 L 203.0,698.0 L 181.0,753.0 L 148.0,802.0 L 103.0,852.0 L 59.0,884.0"/>
    <path d="M 544.0,250.0 L 560.0,265.0 L 565.0,280.0 L 566.0,359.0 L 552.0,411.0 L 523.0,460.0"/>
    <path d="M 586.0,255.0 L 602.0,263.0 L 667.0,240.0 L 698.0,239.0 L 710.0,252.0 L 699.0,301.0 L 700.0,344.0 L 714.0,366.0 L 749.0,375.0 L 807.0,364.0 L 844.0,370.0"/>
    <path d="M 572.0,461.0 L 638.0,454.0 L 690.0,439.0 L 718.0,459.0 L 691.0,546.0 L 652.0,602.0 L 606.0,635.0 L 542.0,656.0 L 497.0,663.0"/>
    <path d="M 544.0,500.0 L 584.0,517.0 L 691.0,615.0 L 805.0,690.0 L 852.0,696.0 L 948.0,694.0"/>
    <path d="M 317.0,760.0 L 386.0,765.0 L 450.0,757.0 L 591.0,726.0 L 638.0,729.0"/>
    <path d="M 373.0,792.0 L 393.0,816.0 L 324.0,915.0 L 250.0,988.0 L 195.0,1028.0 L 151.0,1053.0 L 136.0,1054.0 L 132.0,1061.0"/>
    <path d="M 390.0,876.0 L 382.0,915.0 L 416.0,1046.0"/>
    <path d="M 404.0,898.0 L 427.0,887.0 L 550.0,870.0 L 657.0,847.0 L 679.0,857.0 L 701.0,886.0 L 675.0,947.0 L 647.0,962.0"/>
    <path d="M 430.0,1003.0 L 445.0,1013.0 L 627.0,990.0 L 697.0,1000.0"/>
  </g>
</svg>
