<svg xmlns="http://www.w3.org/2000/svg" viewBox="0 0 1024 1024">
  <g style="fill:none;stroke:#000000;stroke-width:50;stroke-linecap:round;stroke-linejoin:round;" transform="scale(1, 1) translate(0, 0)">
    <path d="M 113.0,350.0 L 169.0,356.0 L 304.0,323.0 L 361.0,321.0"/>
    <path d="M 187.0,386.0 L 218.0,408.0 L 190.0,516.0 L 159.0,586.0 L 112.0,666.0 L 36.0,755.0"/>
    <path d="M 117.0,584.0 L 146.0,622.0 L 180.0,831.0"/>
    <path d="M 178.0,601.0 L 194.0,587.0 L 278.0,563.0 L 301.0,567.0 L 314.0,579.0 L 321.0,587.0 L 300.0,676.0 L 278.0,694.0"/>
    <path d="M 192.0,749.0 L 203.0,738.0 L 279.0,718.0 L 315.0,714.0 L 337.0,719.0"/>
    <path d="M 450.0,297.0 L 532.0,273.0 L 552.0,287.0 L 535.0,370.0 L 496.0,464.0 L 438.0,554.0 L 385.0,605.0"/>
    <path d="M 404.0,388.0 L 450.0,412.0 L 473.0,443.0"/>
    <path d="M 745.0,227.0 L 711.0,222.0 L 655.0,289.0 L 657.0,297.0"/>
    <path d="M 853.0,325.0 L 823.0,310.0 L 729.0,370.0 L 721.0,366.0"/>
    <path d="M 606.0,303.0 L 625.0,306.0 L 649.0,325.0 L 769.0,468.0 L 852.0,545.0 L 870.0,554.0 L 988.0,571.0"/>
    <path d="M 516.0,521.0 L 556.0,524.0 L 649.0,503.0 L 688.0,503.0"/>
    <path d="M 445.0,628.0 L 472.0,653.0 L 504.0,779.0"/>
    <path d="M 494.0,629.0 L 510.0,640.0 L 665.0,608.0 L 686.0,611.0 L 713.0,641.0 L 690.0,686.0 L 664.0,698.0"/>
    <path d="M 520.0,757.0 L 534.0,746.0 L 637.0,730.0 L 700.0,727.0 L 718.0,733.0"/>
    <path d="M 456.0,826.0 L 516.0,873.0 L 526.0,898.0"/>
    <path d="M 683.0,782.0 L 703.0,801.0 L 702.0,819.0 L 641.0,914.0 L 622.0,923.0"/>
    <path d="M 330.0,968.0 L 387.0,977.0 L 537.0,955.0 L 826.0,932.0 L 861.0,936.0 L 911.0,953.0"/>
  </g>
</svg>
