<svg xmlns="http://www.w3.org/2000/svg" viewBox="0 0 1024 1024">
  <g style="fill:none;stroke:#000000;stroke-width:50;stroke-linecap:round;stroke-linejoin:round;" transform="scale(1, 1) translate(0, 0)">
    <path d="M 144.0,344.0 L 206.0,347.0 L 361.0,304.0 L 400.0,300.0 L 414.0,306.0"/>
    <path d="M 223.0,374.0 L 254.0,396.0 L 246.0,434.0 L 199.0,554.0 L 170.0,608.0 L 123.0,674.0 L 41.0,763.0"/>
    <path d="M 149.0,552.0 L 165.0,566.0 L 179.0,597.0 L 204.0,755.0"/>
    <path d="M 213.0,575.0 L 240.0,555.0 L 312.0,533.0 L 332.0,535.0 L 343.0,544.0 L 353.0,555.0 L 352.0,564.0 L 332.0,640.0 L 309.0,658.0"/>
    <path d="M 225.0,713.0 L 239.0,700.0 L 309.0,682.0 L 364.0,682.0"/>
    <path d="M 475.0,281.0 L 528.0,321.0 L 544.0,351.0"/>
    <path d="M 772.0,230.0 L 785.0,262.0 L 713.0,325.0"/>
    <path d="M 437.0,432.0 L 460.0,435.0 L 735.0,382.0 L 794.0,382.0 L 822.0,390.0"/>
    <path d="M 594.0,186.0 L 619.0,205.0 L 636.0,230.0 L 621.0,494.0 L 624.0,587.0"/>
    <path d="M 600.0,428.0 L 552.0,488.0 L 512.0,526.0 L 438.0,569.0"/>
    <path d="M 651.0,421.0 L 714.0,482.0 L 782.0,526.0 L 869.0,539.0 L 916.0,538.0"/>
    <path d="M 502.0,609.0 L 476.0,618.0 L 417.0,710.0 L 355.0,776.0 L 326.0,791.0 L 324.0,798.0"/>
    <path d="M 454.0,703.0 L 532.0,687.0 L 548.0,690.0 L 561.0,707.0 L 506.0,818.0 L 442.0,899.0 L 352.0,979.0 L 294.0,1009.0"/>
    <path d="M 394.0,770.0 L 405.0,770.0 L 421.0,785.0 L 433.0,800.0 L 440.0,823.0"/>
    <path d="M 660.0,674.0 L 709.0,679.0 L 840.0,649.0 L 874.0,651.0"/>
    <path d="M 628.0,713.0 L 657.0,750.0 L 642.0,844.0 L 669.0,846.0 L 747.0,827.0 L 850.0,814.0 L 891.0,817.0 L 919.0,828.0"/>
    <path d="M 724.0,571.0 L 760.0,602.0 L 759.0,1104.0"/>
  </g>
</svg>
