<svg xmlns="http://www.w3.org/2000/svg" viewBox="0 0 1024 1024">
  <g style="fill:none;stroke:#000000;stroke-width:50;stroke-linecap:round;stroke-linejoin:round;" transform="scale(1, 1) translate(0, 0)">
    <path d="M 135.0,399.0 L 197.0,399.0 L 263.0,386.0 L 345.0,356.0 L 398.0,353.0"/>
    <path d="M 220.0,420.0 L 252.0,443.0 L 252.0,449.0 L 232.0,531.0 L 204.0,609.0 L 144.0,723.0 L 100.0,784.0 L 55.0,834.0 L 42.0,840.0 L 41.0,847.0"/>
    <path d="M 169.0,612.0 L 198.0,653.0 L 228.0,839.0"/>
    <path d="M 223.0,629.0 L 319.0,598.0 L 353.0,598.0 L 372.0,618.0 L 371.0,627.0 L 353.0,716.0 L 332.0,727.0"/>
    <path d="M 245.0,783.0 L 254.0,775.0 L 332.0,758.0 L 368.0,756.0 L 387.0,762.0"/>
    <path d="M 501.0,274.0 L 526.0,282.0 L 565.0,282.0 L 742.0,249.0 L 795.0,248.0"/>
    <path d="M 456.0,375.0 L 478.0,394.0 L 490.0,417.0 L 524.0,582.0"/>
    <path d="M 501.0,383.0 L 519.0,387.0 L 620.0,362.0 L 653.0,361.0 L 664.0,352.0 L 676.0,355.0 L 688.0,347.0 L 696.0,350.0 L 740.0,340.0 L 785.0,348.0 L 805.0,373.0 L 773.0,493.0 L 757.0,529.0 L 733.0,518.0"/>
    <path d="M 568.0,468.0 L 660.0,449.0 L 690.0,446.0 L 709.0,451.0"/>
    <path d="M 617.0,385.0 L 638.0,399.0 L 642.0,416.0 L 641.0,496.0 L 627.0,516.0"/>
    <path d="M 542.0,557.0 L 558.0,548.0 L 691.0,528.0 L 706.0,528.0 L 721.0,544.0"/>
    <path d="M 432.0,644.0 L 477.0,653.0 L 606.0,633.0 L 866.0,609.0 L 918.0,618.0 L 937.0,627.0"/>
    <path d="M 455.0,721.0 L 482.0,743.0 L 487.0,755.0 L 524.0,926.0"/>
    <path d="M 517.0,743.0 L 545.0,727.0 L 663.0,707.0 L 757.0,696.0 L 786.0,702.0 L 811.0,728.0 L 772.0,879.0 L 775.0,903.0"/>
    <path d="M 562.0,808.0 L 600.0,807.0 L 681.0,789.0 L 720.0,794.0"/>
    <path d="M 609.0,734.0 L 634.0,758.0 L 632.0,856.0 L 619.0,869.0"/>
    <path d="M 545.0,910.0 L 560.0,899.0 L 686.0,882.0 L 725.0,881.0 L 737.0,895.0"/>
    <path d="M 378.0,992.0 L 434.0,1003.0 L 591.0,984.0 L 867.0,970.0 L 938.0,993.0"/>
  </g>
</svg>
