<svg xmlns="http://www.w3.org/2000/svg" viewBox="0 0 1024 1024">
  <g style="fill:none;stroke:#000000;stroke-width:50;stroke-linecap:round;stroke-linejoin:round;" transform="scale(1, 1) translate(0, 0)">
    <path d="M 131.0,419.0 L 188.0,420.0 L 237.0,408.0 L 317.0,377.0 L 350.0,371.0 L 373.0,375.0"/>
    <path d="M 203.0,441.0 L 236.0,465.0 L 191.0,606.0 L 166.0,657.0 L 119.0,729.0 L 45.0,811.0"/>
    <path d="M 149.0,624.0 L 178.0,662.0 L 208.0,835.0"/>
    <path d="M 203.0,639.0 L 219.0,627.0 L 297.0,602.0 L 316.0,601.0 L 335.0,611.0 L 346.0,622.0 L 329.0,702.0 L 326.0,715.0 L 308.0,729.0"/>
    <path d="M 225.0,789.0 L 236.0,777.0 L 291.0,759.0 L 356.0,756.0"/>
    <path d="M 422.0,333.0 L 501.0,334.0 L 760.0,286.0 L 798.0,285.0 L 840.0,296.0"/>
    <path d="M 502.0,239.0 L 521.0,247.0 L 539.0,265.0 L 563.0,382.0"/>
    <path d="M 692.0,197.0 L 714.0,229.0 L 686.0,318.0 L 664.0,366.0"/>
    <path d="M 443.0,423.0 L 456.0,455.0 L 424.0,551.0 L 422.0,578.0"/>
    <path d="M 481.0,473.0 L 496.0,462.0 L 509.0,463.0 L 586.0,440.0 L 769.0,411.0 L 806.0,423.0 L 819.0,441.0 L 761.0,508.0"/>
    <path d="M 522.0,531.0 L 661.0,504.0 L 693.0,507.0"/>
    <path d="M 490.0,607.0 L 522.0,613.0 L 650.0,582.0 L 714.0,582.0"/>
    <path d="M 560.0,650.0 L 549.0,648.0 L 535.0,655.0 L 477.0,714.0 L 399.0,763.0"/>
    <path d="M 547.0,682.0 L 573.0,691.0 L 630.0,749.0 L 661.0,835.0 L 660.0,927.0 L 646.0,981.0 L 621.0,1011.0 L 518.0,970.0"/>
    <path d="M 561.0,703.0 L 564.0,733.0 L 547.0,754.0 L 491.0,802.0 L 434.0,835.0 L 419.0,835.0 L 416.0,842.0"/>
    <path d="M 612.0,763.0 L 605.0,808.0 L 545.0,876.0 L 454.0,946.0 L 393.0,974.0"/>
    <path d="M 741.0,608.0 L 756.0,639.0 L 645.0,738.0"/>
    <path d="M 659.0,762.0 L 670.0,767.0 L 685.0,793.0 L 714.0,821.0 L 826.0,901.0 L 887.0,916.0 L 977.0,922.0"/>
  </g>
</svg>
