<svg xmlns="http://www.w3.org/2000/svg" viewBox="0 0 1024 1024">
  <g style="fill:none;stroke:#000000;stroke-width:50;stroke-linecap:round;stroke-linejoin:round;" transform="scale(1, 1) translate(0, 0)">
    <path d="M 282.0,237.0 L 373.0,291.0 L 403.0,332.0"/>
    <path d="M 105.0,520.0 L 158.0,534.0 L 269.0,505.0 L 322.0,484.0 L 379.0,489.0 L 358.0,543.0 L 257.0,688.0 L 176.0,778.0 L 110.0,837.0 L 51.0,877.0"/>
    <path d="M 302.0,674.0 L 306.0,698.0 L 324.0,731.0 L 320.0,866.0 L 308.0,974.0 L 314.0,1042.0"/>
    <path d="M 395.0,646.0 L 436.0,683.0 L 461.0,720.0"/>
    <path d="M 498.0,595.0 L 528.0,602.0 L 601.0,597.0 L 784.0,552.0 L 820.0,548.0 L 850.0,553.0"/>
    <path d="M 620.0,256.0 L 674.0,300.0 L 675.0,322.0 L 662.0,812.0 L 641.0,835.0"/>
    <path d="M 412.0,879.0 L 464.0,888.0 L 601.0,867.0 L 877.0,839.0 L 912.0,843.0 L 963.0,860.0"/>
  </g>
</svg>
