<svg xmlns="http://www.w3.org/2000/svg" viewBox="0 0 1024 1024">
  <g style="fill:none;stroke:#000000;stroke-width:50;stroke-linecap:round;stroke-linejoin:round;" transform="scale(1, 1) translate(0, 0)">
    <path d="M 286.0,205.0 L 380.0,259.0 L 408.0,300.0"/>
    <path d="M 118.0,471.0 L 137.0,481.0 L 175.0,486.0 L 258.0,467.0 L 343.0,438.0 L 388.0,445.0 L 357.0,514.0 L 256.0,659.0 L 156.0,764.0 L 114.0,801.0 L 55.0,840.0"/>
    <path d="M 298.0,648.0 L 303.0,672.0 L 323.0,712.0 L 318.0,864.0 L 308.0,945.0 L 313.0,1006.0"/>
    <path d="M 377.0,620.0 L 426.0,658.0 L 443.0,679.0"/>
    <path d="M 716.0,234.0 L 736.0,262.0 L 739.0,280.0 L 676.0,342.0 L 604.0,399.0 L 596.0,398.0"/>
    <path d="M 523.0,389.0 L 562.0,426.0 L 564.0,445.0 L 562.0,600.0 L 544.0,717.0 L 514.0,796.0 L 483.0,847.0 L 434.0,901.0 L 390.0,932.0"/>
    <path d="M 593.0,566.0 L 616.0,556.0 L 741.0,534.0 L 887.0,499.0 L 924.0,499.0 L 952.0,507.0"/>
    <path d="M 708.0,566.0 L 746.0,587.0 L 755.0,600.0 L 747.0,1084.0"/>
  </g>
</svg>
