<svg xmlns="http://www.w3.org/2000/svg" viewBox="0 0 1024 1024">
  <g style="fill:none;stroke:#000000;stroke-width:50;stroke-linecap:round;stroke-linejoin:round;" transform="scale(1, 1) translate(0, 0)">
    <path d="M 225.0,227.0 L 335.0,279.0 L 363.0,313.0"/>
    <path d="M 94.0,502.0 L 151.0,513.0 L 231.0,487.0 L 310.0,451.0 L 354.0,454.0 L 346.0,489.0 L 330.0,520.0 L 244.0,653.0 L 155.0,758.0 L 56.0,840.0"/>
    <path d="M 264.0,669.0 L 282.0,722.0 L 269.0,958.0 L 275.0,1019.0"/>
    <path d="M 328.0,654.0 L 344.0,672.0 L 357.0,675.0 L 380.0,695.0 L 397.0,720.0"/>
    <path d="M 492.0,387.0 L 575.0,390.0 L 774.0,344.0 L 827.0,344.0"/>
    <path d="M 509.0,519.0 L 571.0,525.0 L 762.0,486.0 L 816.0,490.0"/>
    <path d="M 461.0,661.0 L 474.0,668.0 L 505.0,669.0 L 620.0,640.0 L 831.0,611.0 L 863.0,611.0 L 882.0,625.0 L 900.0,654.0 L 881.0,701.0 L 856.0,794.0 L 832.0,841.0 L 816.0,857.0 L 809.0,855.0 L 717.0,808.0"/>
    <path d="M 595.0,212.0 L 624.0,221.0 L 656.0,252.0 L 646.0,673.0 L 650.0,1072.0"/>
  </g>
</svg>
