<svg xmlns="http://www.w3.org/2000/svg" viewBox="0 0 1024 1024">
  <g style="fill:none;stroke:#000000;stroke-width:50;stroke-linecap:round;stroke-linejoin:round;" transform="scale(1, 1) translate(0, 0)">
    <path d="M 269.0,216.0 L 366.0,260.0 L 398.0,298.0"/>
    <path d="M 91.0,496.0 L 152.0,507.0 L 258.0,476.0 L 318.0,451.0 L 361.0,454.0 L 338.0,517.0 L 229.0,673.0 L 131.0,769.0 L 75.0,809.0"/>
    <path d="M 271.0,653.0 L 276.0,685.0 L 285.0,700.0 L 284.0,816.0 L 273.0,951.0 L 279.0,1007.0"/>
    <path d="M 328.0,621.0 L 364.0,647.0 L 385.0,676.0"/>
    <path d="M 533.0,493.0 L 591.0,498.0 L 691.0,479.0 L 767.0,457.0 L 809.0,459.0"/>
    <path d="M 616.0,223.0 L 665.0,265.0 L 654.0,610.0 L 636.0,633.0"/>
    <path d="M 426.0,684.0 L 481.0,689.0 L 596.0,665.0 L 868.0,625.0 L 947.0,641.0"/>
    <path d="M 675.0,706.0 L 638.0,715.0 L 605.0,774.0 L 533.0,867.0 L 551.0,880.0 L 549.0,914.0 L 708.0,871.0 L 724.0,872.0 L 733.0,864.0 L 779.0,864.0"/>
    <path d="M 743.0,767.0 L 848.0,918.0 L 861.0,966.0 L 856.0,986.0"/>
  </g>
</svg>
