<svg xmlns="http://www.w3.org/2000/svg" viewBox="0 0 1024 1024">
  <g style="fill:none;stroke:#000000;stroke-width:50;stroke-linecap:round;stroke-linejoin:round;" transform="scale(1, 1) translate(0, 0)">
    <path d="M 249.0,216.0 L 339.0,269.0 L 368.0,308.0"/>
    <path d="M 82.0,521.0 L 143.0,532.0 L 238.0,505.0 L 313.0,475.0 L 357.0,480.0 L 349.0,512.0 L 325.0,555.0 L 230.0,694.0 L 160.0,771.0 L 67.0,845.0"/>
    <path d="M 274.0,676.0 L 288.0,724.0 L 286.0,831.0 L 273.0,958.0 L 279.0,1007.0"/>
    <path d="M 373.0,615.0 L 439.0,666.0"/>
    <path d="M 458.0,422.0 L 530.0,429.0 L 799.0,372.0 L 843.0,372.0"/>
    <path d="M 505.0,287.0 L 543.0,331.0 L 548.0,390.0 L 546.0,725.0 L 531.0,737.0"/>
    <path d="M 686.0,184.0 L 737.0,226.0 L 739.0,244.0 L 723.0,695.0 L 705.0,718.0"/>
    <path d="M 573.0,540.0 L 584.0,527.0 L 619.0,517.0 L 672.0,517.0"/>
    <path d="M 569.0,644.0 L 582.0,633.0 L 630.0,622.0 L 672.0,626.0"/>
    <path d="M 390.0,771.0 L 439.0,781.0 L 604.0,756.0 L 859.0,731.0 L 904.0,734.0 L 953.0,750.0"/>
    <path d="M 583.0,860.0 L 550.0,864.0 L 490.0,929.0 L 425.0,977.0 L 387.0,995.0"/>
    <path d="M 698.0,829.0 L 813.0,927.0 L 840.0,965.0 L 851.0,1002.0"/>
  </g>
</svg>
