<svg xmlns="http://www.w3.org/2000/svg" viewBox="0 0 1024 1024">
  <g style="fill:none;stroke:#000000;stroke-width:50;stroke-linecap:round;stroke-linejoin:round;" transform="scale(1, 1) translate(0, 0)">
    <path d="M 266.0,227.0 L 359.0,275.0 L 386.0,309.0"/>
    <path d="M 101.0,489.0 L 144.0,500.0 L 175.0,499.0 L 298.0,460.0 L 339.0,465.0 L 331.0,497.0 L 307.0,542.0 L 213.0,685.0 L 104.0,802.0 L 47.0,845.0"/>
    <path d="M 258.0,669.0 L 263.0,697.0 L 275.0,720.0 L 273.0,848.0 L 261.0,958.0 L 267.0,1007.0"/>
    <path d="M 329.0,638.0 L 385.0,679.0 L 398.0,703.0"/>
    <path d="M 490.0,325.0 L 527.0,328.0 L 589.0,320.0 L 696.0,294.0 L 720.0,298.0 L 739.0,312.0 L 749.0,324.0 L 704.0,473.0 L 676.0,499.0"/>
    <path d="M 467.0,441.0 L 517.0,445.0 L 628.0,423.0 L 665.0,428.0"/>
    <path d="M 409.0,560.0 L 462.0,565.0 L 764.0,509.0 L 826.0,508.0 L 873.0,520.0"/>
    <path d="M 578.0,565.0 L 610.0,582.0 L 629.0,605.0 L 627.0,955.0 L 619.0,978.0 L 605.0,994.0 L 498.0,943.0"/>
    <path d="M 446.0,656.0 L 500.0,695.0 L 514.0,713.0"/>
    <path d="M 357.0,899.0 L 408.0,894.0 L 553.0,763.0"/>
    <path d="M 814.0,640.0 L 778.0,629.0 L 676.0,726.0"/>
    <path d="M 654.0,713.0 L 669.0,743.0 L 709.0,788.0 L 824.0,897.0 L 852.0,908.0 L 969.0,928.0"/>
  </g>
</svg>
