<svg xmlns="http://www.w3.org/2000/svg" viewBox="0 0 1024 1024">
  <g style="fill:none;stroke:#000000;stroke-width:50;stroke-linecap:round;stroke-linejoin:round;" transform="scale(1, 1) translate(0, 0)">
    <path d="M 258.0,217.0 L 353.0,269.0 L 381.0,307.0"/>
    <path d="M 88.0,488.0 L 109.0,496.0 L 148.0,499.0 L 286.0,449.0 L 342.0,447.0 L 334.0,484.0 L 319.0,515.0 L 223.0,670.0 L 139.0,770.0 L 77.0,828.0 L 57.0,839.0"/>
    <path d="M 271.0,647.0 L 278.0,693.0 L 278.0,755.0 L 268.0,932.0 L 270.0,1014.0"/>
    <path d="M 352.0,645.0 L 416.0,684.0 L 437.0,714.0"/>
    <path d="M 590.0,202.0 L 621.0,239.0 L 589.0,415.0 L 581.0,433.0 L 570.0,441.0"/>
    <path d="M 484.0,352.0 L 523.0,355.0 L 633.0,336.0 L 698.0,316.0 L 726.0,317.0 L 757.0,345.0 L 736.0,392.0 L 703.0,421.0"/>
    <path d="M 428.0,477.0 L 469.0,482.0 L 641.0,448.0 L 858.0,418.0 L 923.0,431.0"/>
    <path d="M 470.0,544.0 L 494.0,558.0 L 502.0,570.0 L 535.0,666.0"/>
    <path d="M 521.0,543.0 L 544.0,547.0 L 635.0,529.0 L 679.0,513.0 L 717.0,514.0 L 739.0,543.0 L 721.0,577.0 L 703.0,591.0 L 690.0,592.0"/>
    <path d="M 548.0,652.0 L 564.0,641.0 L 680.0,621.0 L 728.0,618.0 L 751.0,626.0"/>
    <path d="M 505.0,741.0 L 525.0,746.0 L 586.0,743.0 L 752.0,705.0 L 790.0,708.0"/>
    <path d="M 459.0,781.0 L 479.0,807.0 L 454.0,901.0 L 454.0,911.0 L 469.0,915.0 L 593.0,891.0 L 757.0,870.0 L 793.0,869.0 L 854.0,883.0"/>
    <path d="M 599.0,653.0 L 643.0,683.0 L 635.0,1115.0"/>
  </g>
</svg>
