<svg xmlns="http://www.w3.org/2000/svg" viewBox="0 0 1024 1024">
  <g style="fill:none;stroke:#000000;stroke-width:50;stroke-linecap:round;stroke-linejoin:round;" transform="scale(1, 1) translate(0, 0)">
    <path d="M 246.0,213.0 L 341.0,262.0 L 371.0,301.0"/>
    <path d="M 102.0,487.0 L 152.0,496.0 L 253.0,466.0 L 281.0,450.0 L 325.0,452.0 L 305.0,509.0 L 217.0,646.0 L 111.0,762.0 L 61.0,800.0"/>
    <path d="M 262.0,626.0 L 269.0,664.0 L 270.0,767.0 L 257.0,939.0 L 259.0,1009.0"/>
    <path d="M 319.0,605.0 L 381.0,647.0 L 394.0,676.0"/>
    <path d="M 496.0,287.0 L 518.0,292.0 L 558.0,289.0 L 768.0,229.0 L 820.0,225.0"/>
    <path d="M 496.0,366.0 L 511.0,391.0 L 472.0,440.0 L 423.0,490.0 L 411.0,495.0 L 411.0,502.0"/>
    <path d="M 772.0,338.0 L 896.0,377.0 L 934.0,410.0"/>
    <path d="M 609.0,303.0 L 642.0,320.0 L 651.0,331.0 L 648.0,748.0 L 637.0,871.0 L 638.0,960.0"/>
    <path d="M 423.0,542.0 L 441.0,559.0 L 450.0,584.0 L 452.0,685.0 L 443.0,814.0 L 422.0,913.0 L 419.0,958.0"/>
    <path d="M 467.0,546.0 L 491.0,556.0 L 803.0,486.0 L 836.0,498.0 L 854.0,519.0 L 863.0,872.0 L 859.0,977.0 L 846.0,1006.0 L 812.0,1001.0 L 742.0,976.0"/>
    <path d="M 563.0,586.0 L 575.0,601.0 L 563.0,636.0 L 516.0,702.0"/>
    <path d="M 496.0,617.0 L 574.0,675.0 L 590.0,705.0"/>
    <path d="M 564.0,735.0 L 575.0,755.0 L 562.0,785.0 L 535.0,829.0 L 525.0,832.0 L 520.0,844.0 L 494.0,868.0"/>
    <path d="M 500.0,761.0 L 564.0,817.0 L 581.0,849.0"/>
    <path d="M 748.0,549.0 L 759.0,569.0 L 750.0,595.0 L 685.0,685.0"/>
    <path d="M 686.0,602.0 L 761.0,647.0 L 776.0,662.0 L 781.0,677.0"/>
    <path d="M 762.0,703.0 L 774.0,724.0 L 765.0,746.0 L 724.0,808.0 L 691.0,838.0"/>
    <path d="M 686.0,747.0 L 770.0,813.0 L 789.0,837.0 L 793.0,852.0"/>
  </g>
</svg>
