<svg xmlns="http://www.w3.org/2000/svg" viewBox="0 0 1024 1024">
  <g style="fill:none;stroke:#000000;stroke-width:50;stroke-linecap:round;stroke-linejoin:round;" transform="scale(1, 1) translate(0, 0)">
    <path d="M 226.0,229.0 L 316.0,290.0 L 338.0,325.0"/>
    <path d="M 90.0,495.0 L 135.0,505.0 L 204.0,485.0 L 283.0,453.0 L 318.0,452.0 L 327.0,459.0 L 301.0,527.0 L 221.0,653.0 L 136.0,751.0 L 77.0,799.0"/>
    <path d="M 246.0,659.0 L 263.0,709.0 L 261.0,843.0 L 250.0,947.0 L 255.0,993.0"/>
    <path d="M 305.0,618.0 L 371.0,660.0 L 387.0,687.0"/>
    <path d="M 574.0,182.0 L 630.0,219.0 L 649.0,241.0"/>
    <path d="M 443.0,325.0 L 495.0,328.0 L 747.0,271.0 L 809.0,272.0"/>
    <path d="M 420.0,397.0 L 448.0,422.0 L 476.0,524.0"/>
    <path d="M 471.0,409.0 L 484.0,398.0 L 536.0,383.0 L 566.0,382.0 L 580.0,398.0 L 578.0,410.0 L 571.0,440.0 L 554.0,454.0"/>
    <path d="M 492.0,501.0 L 497.0,492.0 L 546.0,477.0 L 597.0,475.0"/>
    <path d="M 633.0,361.0 L 654.0,375.0 L 660.0,387.0 L 679.0,463.0 L 689.0,478.0"/>
    <path d="M 676.0,360.0 L 684.0,366.0 L 768.0,339.0 L 780.0,342.0 L 800.0,359.0 L 788.0,403.0 L 771.0,411.0"/>
    <path d="M 698.0,465.0 L 756.0,441.0 L 814.0,441.0"/>
    <path d="M 460.0,582.0 L 481.0,587.0 L 531.0,585.0 L 739.0,537.0 L 767.0,538.0"/>
    <path d="M 471.0,681.0 L 521.0,677.0 L 725.0,626.0 L 747.0,623.0 L 768.0,628.0"/>
    <path d="M 514.0,519.0 L 546.0,555.0 L 552.0,703.0 L 550.0,716.0 L 540.0,724.0"/>
    <path d="M 661.0,486.0 L 689.0,518.0 L 670.0,683.0 L 665.0,698.0 L 655.0,706.0"/>
    <path d="M 400.0,761.0 L 444.0,766.0 L 637.0,729.0 L 802.0,707.0 L 873.0,719.0"/>
    <path d="M 586.0,773.0 L 553.0,789.0 L 519.0,835.0 L 454.0,900.0 L 397.0,944.0 L 340.0,976.0"/>
    <path d="M 539.0,855.0 L 530.0,985.0 L 535.0,1014.0 L 562.0,1006.0 L 627.0,965.0 L 631.0,953.0 L 643.0,954.0 L 651.0,946.0"/>
    <path d="M 808.0,798.0 L 776.0,791.0 L 714.0,850.0 L 707.0,847.0"/>
    <path d="M 591.0,791.0 L 610.0,794.0 L 726.0,908.0 L 820.0,974.0 L 851.0,986.0 L 966.0,990.0"/>
  </g>
</svg>
