<svg xmlns="http://www.w3.org/2000/svg" viewBox="0 0 1024 1024">
  <g style="fill:none;stroke:#000000;stroke-width:50;stroke-linecap:round;stroke-linejoin:round;" transform="scale(1, 1) translate(0, 0)">
    <path d="M 459.0,279.0 L 393.0,271.0 L 313.0,326.0 L 208.0,376.0 L 170.0,384.0 L 161.0,393.0"/>
    <path d="M 85.0,553.0 L 119.0,560.0 L 158.0,557.0 L 379.0,495.0 L 409.0,490.0 L 449.0,493.0"/>
    <path d="M 291.0,360.0 L 311.0,375.0 L 322.0,394.0 L 322.0,765.0 L 311.0,931.0 L 326.0,1013.0"/>
    <path d="M 297.0,546.0 L 276.0,617.0 L 240.0,670.0 L 134.0,794.0 L 74.0,846.0"/>
    <path d="M 348.0,610.0 L 365.0,634.0 L 418.0,674.0 L 429.0,697.0 L 428.0,710.0"/>
    <path d="M 487.0,526.0 L 523.0,587.0 L 532.0,617.0"/>
    <path d="M 803.0,400.0 L 821.0,421.0 L 828.0,442.0 L 718.0,542.0"/>
    <path d="M 602.0,234.0 L 636.0,252.0 L 657.0,277.0 L 658.0,288.0 L 638.0,589.0 L 615.0,712.0 L 580.0,798.0 L 545.0,848.0 L 518.0,875.0 L 444.0,928.0 L 397.0,947.0"/>
    <path d="M 661.0,638.0 L 667.0,679.0 L 676.0,685.0 L 736.0,783.0 L 804.0,868.0 L 851.0,910.0 L 978.0,944.0"/>
  </g>
</svg>
