<svg xmlns="http://www.w3.org/2000/svg" viewBox="0 0 1024 1024">
  <g style="fill:none;stroke:#000000;stroke-width:50;stroke-linecap:round;stroke-linejoin:round;" transform="scale(1, 1) translate(0, 0)">
    <path d="M 454.0,296.0 L 385.0,290.0 L 322.0,338.0 L 257.0,377.0 L 222.0,388.0 L 213.0,398.0 L 199.0,398.0 L 194.0,406.0 L 175.0,409.0 L 165.0,419.0 L 149.0,418.0 L 137.0,430.0"/>
    <path d="M 101.0,578.0 L 161.0,581.0 L 366.0,522.0 L 420.0,521.0"/>
    <path d="M 281.0,386.0 L 304.0,400.0 L 314.0,417.0 L 306.0,752.0 L 294.0,905.0 L 307.0,997.0"/>
    <path d="M 285.0,574.0 L 275.0,583.0 L 256.0,651.0 L 198.0,745.0 L 81.0,885.0"/>
    <path d="M 333.0,652.0 L 390.0,684.0 L 417.0,715.0"/>
    <path d="M 454.0,502.0 L 481.0,524.0 L 488.0,541.0 L 528.0,730.0"/>
    <path d="M 511.0,506.0 L 529.0,517.0 L 540.0,516.0 L 791.0,466.0 L 835.0,466.0 L 865.0,500.0 L 834.0,608.0 L 810.0,618.0"/>
    <path d="M 547.0,708.0 L 563.0,694.0 L 791.0,654.0 L 843.0,655.0 L 865.0,663.0"/>
    <path d="M 612.0,232.0 L 637.0,238.0 L 673.0,272.0 L 665.0,468.0 L 663.0,1054.0"/>
  </g>
</svg>
