<svg xmlns="http://www.w3.org/2000/svg" viewBox="0 0 1024 1024">
  <g style="fill:none;stroke:#000000;stroke-width:50;stroke-linecap:round;stroke-linejoin:round;" transform="scale(1, 1) translate(0, 0)">
    <path d="M 487.0,285.0 L 417.0,277.0 L 364.0,315.0 L 319.0,338.0 L 238.0,374.0 L 202.0,381.0 L 193.0,390.0"/>
    <path d="M 75.0,542.0 L 93.0,548.0 L 143.0,548.0 L 403.0,479.0 L 466.0,468.0 L 496.0,472.0"/>
    <path d="M 316.0,364.0 L 338.0,379.0 L 341.0,390.0 L 337.0,746.0 L 325.0,892.0 L 338.0,973.0"/>
    <path d="M 315.0,528.0 L 305.0,538.0 L 290.0,596.0 L 245.0,666.0 L 182.0,742.0 L 130.0,791.0 L 66.0,837.0"/>
    <path d="M 364.0,563.0 L 432.0,601.0 L 454.0,632.0"/>
    <path d="M 552.0,340.0 L 622.0,377.0 L 641.0,401.0"/>
    <path d="M 536.0,500.0 L 607.0,537.0 L 625.0,556.0"/>
    <path d="M 469.0,675.0 L 490.0,681.0 L 523.0,680.0 L 620.0,656.0 L 885.0,612.0 L 920.0,613.0 L 968.0,625.0"/>
    <path d="M 684.0,204.0 L 709.0,210.0 L 745.0,244.0 L 737.0,410.0 L 735.0,1058.0"/>
  </g>
</svg>
