<svg xmlns="http://www.w3.org/2000/svg" viewBox="0 0 1024 1024">
  <g style="fill:none;stroke:#000000;stroke-width:50;stroke-linecap:round;stroke-linejoin:round;" transform="scale(1, 1) translate(0, 0)">
    <path d="M 468.0,266.0 L 404.0,260.0 L 334.0,313.0 L 226.0,371.0 L 189.0,380.0 L 181.0,390.0"/>
    <path d="M 96.0,553.0 L 137.0,562.0 L 167.0,559.0 L 401.0,496.0 L 453.0,489.0 L 479.0,493.0"/>
    <path d="M 317.0,349.0 L 333.0,358.0 L 349.0,384.0 L 320.0,935.0 L 331.0,1019.0"/>
    <path d="M 319.0,546.0 L 309.0,555.0 L 289.0,620.0 L 231.0,712.0 L 154.0,809.0 L 86.0,878.0"/>
    <path d="M 365.0,604.0 L 425.0,643.0 L 456.0,681.0"/>
    <path d="M 537.0,353.0 L 562.0,377.0 L 572.0,397.0 L 574.0,422.0 L 577.0,838.0 L 560.0,849.0"/>
    <path d="M 584.0,357.0 L 611.0,366.0 L 748.0,331.0 L 773.0,337.0 L 797.0,371.0 L 787.0,521.0 L 785.0,811.0 L 763.0,825.0"/>
    <path d="M 605.0,553.0 L 615.0,541.0 L 652.0,530.0 L 697.0,525.0 L 720.0,531.0"/>
    <path d="M 602.0,689.0 L 615.0,677.0 L 680.0,662.0 L 724.0,667.0"/>
    <path d="M 414.0,884.0 L 462.0,894.0 L 638.0,870.0 L 863.0,852.0 L 922.0,856.0 L 967.0,872.0"/>
  </g>
</svg>
