<svg xmlns="http://www.w3.org/2000/svg" viewBox="0 0 1024 1024">
  <g style="fill:none;stroke:#000000;stroke-width:50;stroke-linecap:round;stroke-linejoin:round;" transform="scale(1, 1) translate(0, 0)">
    <path d="M 451.0,317.0 L 381.0,307.0 L 290.0,363.0 L 205.0,399.0 L 196.0,397.0 L 190.0,405.0 L 170.0,404.0 L 161.0,414.0"/>
    <path d="M 88.0,568.0 L 146.0,573.0 L 385.0,518.0 L 435.0,519.0"/>
    <path d="M 286.0,390.0 L 312.0,407.0 L 317.0,419.0 L 309.0,716.0 L 295.0,927.0 L 307.0,1026.0"/>
    <path d="M 286.0,566.0 L 276.0,579.0 L 258.0,639.0 L 181.0,763.0 L 80.0,875.0"/>
    <path d="M 342.0,632.0 L 349.0,646.0 L 379.0,662.0 L 415.0,695.0"/>
    <path d="M 783.0,321.0 L 713.0,312.0 L 599.0,383.0 L 512.0,418.0 L 498.0,417.0 L 488.0,426.0"/>
    <path d="M 448.0,576.0 L 486.0,582.0 L 796.0,520.0 L 878.0,532.0"/>
    <path d="M 623.0,395.0 L 654.0,421.0 L 641.0,978.0 L 655.0,1062.0"/>
    <path d="M 625.0,577.0 L 615.0,591.0 L 605.0,632.0 L 521.0,754.0 L 431.0,848.0 L 370.0,893.0"/>
    <path d="M 682.0,606.0 L 686.0,631.0 L 715.0,675.0 L 832.0,816.0 L 959.0,852.0"/>
  </g>
</svg>
