<svg xmlns="http://www.w3.org/2000/svg" viewBox="0 0 1024 1024">
  <g style="fill:none;stroke:#000000;stroke-width:50;stroke-linecap:round;stroke-linejoin:round;" transform="scale(1, 1) translate(0, 0)">
    <path d="M 419.0,283.0 L 350.0,280.0 L 280.0,336.0 L 185.0,390.0 L 178.0,389.0 L 171.0,398.0 L 153.0,399.0 L 144.0,410.0"/>
    <path d="M 57.0,588.0 L 108.0,592.0 L 356.0,520.0 L 405.0,520.0"/>
    <path d="M 270.0,370.0 L 288.0,379.0 L 299.0,393.0 L 287.0,777.0 L 274.0,924.0 L 287.0,1013.0"/>
    <path d="M 270.0,571.0 L 261.0,578.0 L 248.0,635.0 L 184.0,736.0 L 109.0,831.0 L 54.0,887.0"/>
    <path d="M 319.0,608.0 L 331.0,626.0 L 368.0,648.0 L 384.0,673.0"/>
    <path d="M 437.0,509.0 L 469.0,534.0 L 479.0,551.0 L 501.0,673.0 L 515.0,677.0"/>
    <path d="M 494.0,515.0 L 504.0,522.0 L 530.0,522.0 L 660.0,493.0 L 721.0,473.0 L 762.0,472.0 L 796.0,505.0 L 767.0,622.0 L 742.0,647.0"/>
    <path d="M 396.0,716.0 L 432.0,723.0 L 689.0,677.0 L 843.0,657.0 L 888.0,659.0 L 930.0,670.0"/>
    <path d="M 575.0,241.0 L 621.0,276.0 L 625.0,291.0 L 618.0,593.0 L 599.0,756.0 L 572.0,825.0 L 524.0,890.0 L 468.0,931.0 L 376.0,970.0"/>
    <path d="M 633.0,726.0 L 638.0,753.0 L 694.0,824.0 L 820.0,959.0 L 972.0,999.0"/>
  </g>
</svg>
