<svg xmlns="http://www.w3.org/2000/svg" viewBox="0 0 1024 1024">
  <g style="fill:none;stroke:#000000;stroke-width:50;stroke-linecap:round;stroke-linejoin:round;" transform="scale(1, 1) translate(0, 0)">
    <path d="M 468.0,284.0 L 399.0,274.0 L 324.0,321.0 L 228.0,360.0 L 194.0,365.0 L 185.0,374.0"/>
    <path d="M 92.0,548.0 L 117.0,554.0 L 162.0,551.0 L 387.0,496.0 L 455.0,495.0"/>
    <path d="M 290.0,357.0 L 318.0,382.0 L 310.0,771.0 L 301.0,907.0 L 314.0,991.0"/>
    <path d="M 289.0,546.0 L 267.0,633.0 L 202.0,733.0 L 140.0,804.0 L 72.0,856.0"/>
    <path d="M 340.0,605.0 L 399.0,650.0 L 427.0,692.0"/>
    <path d="M 651.0,191.0 L 672.0,224.0 L 674.0,233.0 L 666.0,245.0 L 584.0,345.0 L 507.0,419.0 L 464.0,449.0"/>
    <path d="M 641.0,322.0 L 737.0,308.0 L 758.0,312.0 L 772.0,332.0 L 720.0,423.0 L 641.0,509.0 L 560.0,571.0 L 499.0,598.0"/>
    <path d="M 547.0,410.0 L 564.0,411.0 L 597.0,431.0 L 615.0,457.0"/>
    <path d="M 747.0,553.0 L 718.0,560.0 L 674.0,622.0 L 581.0,713.0 L 529.0,751.0 L 498.0,766.0"/>
    <path d="M 693.0,640.0 L 748.0,634.0 L 796.0,620.0 L 819.0,621.0 L 846.0,629.0 L 858.0,648.0 L 812.0,733.0 L 751.0,827.0 L 706.0,881.0 L 644.0,941.0 L 585.0,985.0 L 516.0,1026.0 L 440.0,1058.0 L 385.0,1070.0"/>
    <path d="M 599.0,737.0 L 611.0,734.0 L 653.0,765.0 L 668.0,785.0 L 675.0,810.0"/>
  </g>
</svg>
