<svg xmlns="http://www.w3.org/2000/svg" viewBox="0 0 1024 1024">
  <g style="fill:none;stroke:#000000;stroke-width:50;stroke-linecap:round;stroke-linejoin:round;" transform="scale(1, 1) translate(0, 0)">
    <path d="M 477.0,291.0 L 408.0,288.0 L 320.0,356.0 L 204.0,420.0 L 189.0,420.0 L 180.0,430.0"/>
    <path d="M 104.0,557.0 L 164.0,560.0 L 362.0,507.0 L 414.0,499.0 L 435.0,503.0"/>
    <path d="M 298.0,391.0 L 320.0,408.0 L 326.0,421.0 L 323.0,754.0 L 313.0,938.0 L 327.0,1017.0"/>
    <path d="M 300.0,550.0 L 280.0,623.0 L 230.0,703.0 L 137.0,820.0 L 70.0,886.0"/>
    <path d="M 350.0,624.0 L 409.0,668.0 L 434.0,705.0"/>
    <path d="M 471.0,518.0 L 496.0,525.0 L 542.0,525.0 L 825.0,471.0 L 868.0,469.0 L 905.0,477.0"/>
    <path d="M 628.0,235.0 L 677.0,277.0 L 666.0,616.0 L 648.0,642.0"/>
    <path d="M 535.0,674.0 L 575.0,682.0 L 754.0,648.0 L 815.0,652.0"/>
    <path d="M 504.0,772.0 L 527.0,791.0 L 538.0,813.0 L 568.0,1008.0"/>
    <path d="M 557.0,775.0 L 577.0,785.0 L 758.0,748.0 L 783.0,751.0 L 819.0,781.0 L 793.0,869.0 L 767.0,889.0"/>
    <path d="M 587.0,952.0 L 602.0,939.0 L 756.0,917.0 L 805.0,915.0 L 833.0,925.0"/>
  </g>
</svg>
