<svg xmlns="http://www.w3.org/2000/svg" viewBox="0 0 1024 1024">
  <g style="fill:none;stroke:#000000;stroke-width:50;stroke-linecap:round;stroke-linejoin:round;" transform="scale(1, 1) translate(0, 0)">
    <path d="M 462.0,304.0 L 402.0,298.0 L 329.0,349.0 L 214.0,403.0 L 203.0,401.0 L 185.0,414.0"/>
    <path d="M 111.0,559.0 L 128.0,565.0 L 164.0,565.0 L 398.0,501.0 L 435.0,504.0"/>
    <path d="M 304.0,384.0 L 328.0,400.0 L 334.0,411.0 L 331.0,767.0 L 321.0,923.0 L 334.0,1002.0"/>
    <path d="M 310.0,551.0 L 301.0,560.0 L 289.0,609.0 L 225.0,710.0 L 148.0,805.0 L 90.0,862.0"/>
    <path d="M 356.0,585.0 L 373.0,604.0 L 419.0,636.0 L 433.0,667.0"/>
    <path d="M 657.0,206.0 L 693.0,242.0 L 678.0,397.0 L 672.0,413.0 L 661.0,422.0"/>
    <path d="M 518.0,319.0 L 545.0,362.0 L 536.0,470.0 L 578.0,469.0 L 677.0,441.0 L 775.0,424.0 L 784.0,424.0 L 796.0,435.0"/>
    <path d="M 828.0,269.0 L 853.0,307.0 L 816.0,467.0"/>
    <path d="M 616.0,478.0 L 636.0,494.0 L 643.0,512.0 L 614.0,568.0 L 539.0,664.0 L 475.0,720.0"/>
    <path d="M 608.0,618.0 L 747.0,575.0 L 787.0,580.0 L 801.0,595.0 L 771.0,673.0 L 726.0,763.0 L 665.0,857.0 L 621.0,909.0 L 543.0,982.0 L 481.0,1026.0 L 411.0,1061.0 L 369.0,1073.0"/>
    <path d="M 559.0,702.0 L 578.0,712.0 L 641.0,769.0 L 658.0,807.0"/>
  </g>
</svg>
