<svg xmlns="http://www.w3.org/2000/svg" viewBox="0 0 1024 1024">
  <g style="fill:none;stroke:#000000;stroke-width:50;stroke-linecap:round;stroke-linejoin:round;" transform="scale(1, 1) translate(0, 0)">
    <path d="M 471.0,277.0 L 400.0,271.0 L 340.0,319.0 L 276.0,358.0 L 223.0,380.0 L 212.0,390.0 L 176.0,401.0 L 168.0,410.0 L 149.0,410.0 L 139.0,422.0"/>
    <path d="M 95.0,574.0 L 125.0,581.0 L 164.0,579.0 L 353.0,527.0 L 412.0,515.0 L 459.0,516.0"/>
    <path d="M 303.0,367.0 L 326.0,385.0 L 335.0,401.0 L 333.0,724.0 L 320.0,945.0 L 334.0,1029.0"/>
    <path d="M 309.0,566.0 L 300.0,579.0 L 289.0,622.0 L 226.0,725.0 L 152.0,820.0 L 86.0,887.0"/>
    <path d="M 356.0,639.0 L 372.0,658.0 L 414.0,686.0 L 432.0,709.0"/>
    <path d="M 510.0,346.0 L 540.0,371.0 L 584.0,574.0"/>
    <path d="M 572.0,372.0 L 585.0,358.0 L 747.0,324.0 L 797.0,327.0 L 828.0,361.0 L 787.0,471.0 L 757.0,491.0"/>
    <path d="M 602.0,552.0 L 619.0,537.0 L 728.0,520.0 L 799.0,517.0 L 822.0,526.0"/>
    <path d="M 496.0,701.0 L 519.0,720.0 L 532.0,743.0 L 576.0,980.0"/>
    <path d="M 550.0,703.0 L 560.0,712.0 L 580.0,714.0 L 787.0,676.0 L 830.0,678.0 L 868.0,718.0 L 830.0,847.0 L 801.0,862.0"/>
    <path d="M 597.0,939.0 L 610.0,924.0 L 785.0,900.0 L 841.0,902.0 L 867.0,912.0"/>
  </g>
</svg>
