<svg xmlns="http://www.w3.org/2000/svg" viewBox="0 0 1024 1024">
  <g style="fill:none;stroke:#000000;stroke-width:50;stroke-linecap:round;stroke-linejoin:round;" transform="scale(1, 1) translate(0, 0)">
    <path d="M 430.0,296.0 L 361.0,291.0 L 286.0,346.0 L 187.0,396.0 L 179.0,394.0 L 172.0,403.0 L 153.0,403.0 L 144.0,413.0"/>
    <path d="M 58.0,571.0 L 117.0,574.0 L 345.0,501.0 L 371.0,495.0 L 412.0,497.0"/>
    <path d="M 274.0,381.0 L 289.0,388.0 L 309.0,421.0 L 295.0,755.0 L 280.0,930.0 L 291.0,1023.0"/>
    <path d="M 279.0,550.0 L 270.0,558.0 L 258.0,611.0 L 198.0,705.0 L 132.0,791.0 L 54.0,871.0"/>
    <path d="M 326.0,642.0 L 374.0,676.0 L 399.0,702.0"/>
    <path d="M 580.0,218.0 L 598.0,232.0 L 617.0,263.0 L 587.0,330.0 L 502.0,477.0 L 424.0,579.0 L 387.0,614.0"/>
    <path d="M 636.0,317.0 L 635.0,331.0 L 681.0,389.0 L 753.0,473.0 L 810.0,526.0 L 949.0,559.0"/>
    <path d="M 560.0,488.0 L 609.0,527.0 L 624.0,550.0"/>
    <path d="M 468.0,654.0 L 509.0,666.0 L 648.0,611.0 L 673.0,609.0 L 694.0,620.0 L 706.0,634.0 L 695.0,657.0 L 612.0,760.0"/>
    <path d="M 417.0,796.0 L 408.0,871.0 L 386.0,950.0"/>
    <path d="M 491.0,834.0 L 527.0,916.0 L 566.0,955.0 L 637.0,987.0 L 721.0,1001.0 L 768.0,999.0 L 811.0,978.0 L 752.0,837.0"/>
    <path d="M 596.0,803.0 L 647.0,834.0 L 660.0,850.0"/>
    <path d="M 766.0,724.0 L 858.0,760.0 L 902.0,809.0"/>
  </g>
</svg>
