<svg xmlns="http://www.w3.org/2000/svg" viewBox="0 0 1024 1024">
  <g style="fill:none;stroke:#000000;stroke-width:50;stroke-linecap:round;stroke-linejoin:round;" transform="scale(1, 1) translate(0, 0)">
    <path d="M 419.0,271.0 L 349.0,268.0 L 286.0,319.0 L 184.0,375.0 L 177.0,374.0 L 170.0,383.0 L 153.0,384.0 L 144.0,394.0"/>
    <path d="M 89.0,537.0 L 132.0,541.0 L 330.0,482.0 L 373.0,475.0 L 409.0,478.0"/>
    <path d="M 270.0,355.0 L 292.0,375.0 L 282.0,1000.0"/>
    <path d="M 265.0,533.0 L 256.0,541.0 L 243.0,597.0 L 195.0,678.0 L 132.0,765.0 L 58.0,846.0"/>
    <path d="M 320.0,577.0 L 332.0,598.0 L 375.0,623.0 L 393.0,657.0"/>
    <path d="M 589.0,181.0 L 619.0,209.0 L 617.0,223.0 L 563.0,306.0 L 514.0,361.0"/>
    <path d="M 438.0,369.0 L 464.0,392.0 L 473.0,412.0 L 512.0,606.0"/>
    <path d="M 499.0,398.0 L 519.0,379.0 L 638.0,347.0 L 761.0,324.0 L 798.0,331.0 L 823.0,360.0 L 781.0,513.0 L 762.0,557.0 L 763.0,585.0"/>
    <path d="M 548.0,477.0 L 697.0,448.0 L 735.0,453.0"/>
    <path d="M 534.0,584.0 L 540.0,575.0 L 723.0,548.0"/>
    <path d="M 613.0,379.0 L 642.0,395.0 L 637.0,479.0 L 625.0,541.0 L 590.0,628.0 L 558.0,678.0 L 510.0,736.0"/>
    <path d="M 390.0,772.0 L 444.0,776.0 L 634.0,737.0 L 841.0,705.0 L 889.0,704.0 L 951.0,716.0"/>
    <path d="M 658.0,615.0 L 682.0,630.0 L 698.0,651.0 L 695.0,1089.0"/>
  </g>
</svg>
