<svg xmlns="http://www.w3.org/2000/svg" viewBox="0 0 1024 1024">
  <g style="fill:none;stroke:#000000;stroke-width:50;stroke-linecap:round;stroke-linejoin:round;" transform="scale(1, 1) translate(0, 0)">
    <path d="M 448.0,274.0 L 384.0,268.0 L 333.0,308.0 L 267.0,348.0 L 207.0,371.0 L 196.0,381.0 L 181.0,380.0 L 172.0,390.0"/>
    <path d="M 84.0,546.0 L 113.0,553.0 L 151.0,550.0 L 367.0,490.0 L 392.0,485.0 L 429.0,488.0"/>
    <path d="M 290.0,356.0 L 316.0,372.0 L 322.0,385.0 L 310.0,777.0 L 299.0,899.0 L 311.0,991.0"/>
    <path d="M 292.0,537.0 L 270.0,594.0 L 219.0,671.0 L 173.0,731.0 L 66.0,835.0"/>
    <path d="M 340.0,603.0 L 422.0,665.0"/>
    <path d="M 603.0,206.0 L 627.0,227.0 L 638.0,249.0 L 615.0,299.0 L 516.0,460.0 L 480.0,508.0 L 434.0,551.0"/>
    <path d="M 523.0,486.0 L 527.0,514.0 L 546.0,547.0 L 549.0,613.0 L 544.0,855.0 L 532.0,975.0 L 538.0,1040.0"/>
    <path d="M 693.0,271.0 L 769.0,326.0 L 788.0,358.0"/>
    <path d="M 593.0,467.0 L 625.0,474.0 L 668.0,472.0 L 819.0,436.0 L 872.0,436.0"/>
    <path d="M 625.0,620.0 L 663.0,617.0 L 800.0,585.0 L 843.0,590.0"/>
    <path d="M 622.0,732.0 L 789.0,705.0 L 824.0,703.0 L 846.0,709.0"/>
    <path d="M 709.0,486.0 L 736.0,508.0 L 737.0,518.0 L 737.0,815.0 L 722.0,837.0"/>
    <path d="M 576.0,874.0 L 586.0,883.0 L 598.0,882.0 L 863.0,847.0 L 912.0,852.0 L 941.0,862.0"/>
  </g>
</svg>
