<svg xmlns="http://www.w3.org/2000/svg" viewBox="0 0 1024 1024">
  <g style="fill:none;stroke:#000000;stroke-width:50;stroke-linecap:round;stroke-linejoin:round;" transform="scale(1, 1) translate(0, 0)">
    <path d="M 296.0,199.0 L 315.0,220.0 L 322.0,241.0 L 299.0,289.0 L 226.0,390.0 L 170.0,452.0 L 139.0,476.0"/>
    <path d="M 284.0,351.0 L 371.0,329.0 L 391.0,330.0 L 413.0,341.0 L 405.0,366.0 L 367.0,433.0 L 339.0,479.0 L 319.0,496.0"/>
    <path d="M 143.0,536.0 L 163.0,554.0 L 174.0,575.0 L 209.0,777.0"/>
    <path d="M 183.0,535.0 L 205.0,543.0 L 387.0,499.0 L 415.0,499.0 L 430.0,509.0 L 447.0,529.0 L 446.0,538.0 L 417.0,677.0 L 399.0,735.0 L 403.0,751.0"/>
    <path d="M 236.0,641.0 L 338.0,617.0 L 377.0,620.0"/>
    <path d="M 280.0,544.0 L 296.0,554.0 L 306.0,570.0 L 305.0,691.0 L 300.0,710.0 L 290.0,720.0"/>
    <path d="M 225.0,764.0 L 245.0,751.0 L 367.0,721.0"/>
    <path d="M 98.0,888.0 L 153.0,904.0 L 432.0,802.0"/>
    <path d="M 792.0,290.0 L 729.0,283.0 L 643.0,344.0 L 566.0,384.0 L 556.0,384.0 L 549.0,393.0 L 532.0,395.0 L 521.0,405.0 L 505.0,404.0 L 496.0,414.0"/>
    <path d="M 500.0,552.0 L 553.0,553.0 L 790.0,504.0 L 875.0,514.0"/>
    <path d="M 632.0,375.0 L 656.0,393.0 L 650.0,1048.0"/>
    <path d="M 629.0,563.0 L 621.0,568.0 L 608.0,638.0 L 563.0,713.0 L 481.0,818.0 L 409.0,881.0"/>
    <path d="M 683.0,569.0 L 695.0,608.0 L 705.0,616.0 L 724.0,653.0 L 776.0,727.0 L 829.0,787.0 L 858.0,811.0 L 979.0,845.0"/>
  </g>
</svg>
