<svg xmlns="http://www.w3.org/2000/svg" viewBox="0 0 1024 1024">
  <g style="fill:none;stroke:#000000;stroke-width:50;stroke-linecap:round;stroke-linejoin:round;" transform="scale(1, 1) translate(0, 0)">
    <path d="M 412.0,293.0 L 377.0,286.0 L 348.0,288.0 L 284.0,335.0 L 187.0,385.0 L 153.0,393.0 L 144.0,402.0"/>
    <path d="M 97.0,552.0 L 167.0,552.0 L 355.0,497.0 L 415.0,499.0"/>
    <path d="M 272.0,366.0 L 296.0,382.0 L 302.0,393.0 L 294.0,717.0 L 277.0,922.0 L 291.0,1008.0"/>
    <path d="M 274.0,553.0 L 266.0,558.0 L 251.0,625.0 L 212.0,691.0 L 149.0,776.0 L 74.0,858.0"/>
    <path d="M 318.0,601.0 L 375.0,646.0 L 389.0,682.0"/>
    <path d="M 585.0,222.0 L 677.0,263.0 L 713.0,299.0"/>
    <path d="M 541.0,407.0 L 551.0,415.0 L 582.0,414.0 L 733.0,372.0 L 768.0,372.0 L 797.0,400.0 L 771.0,468.0 L 744.0,485.0"/>
    <path d="M 527.0,569.0 L 552.0,555.0 L 729.0,514.0 L 800.0,516.0"/>
    <path d="M 483.0,394.0 L 506.0,418.0 L 513.0,436.0 L 500.0,578.0 L 482.0,670.0 L 451.0,768.0 L 410.0,853.0 L 357.0,929.0 L 332.0,955.0"/>
    <path d="M 505.0,692.0 L 502.0,927.0 L 511.0,963.0"/>
    <path d="M 526.0,694.0 L 542.0,704.0 L 656.0,671.0 L 823.0,640.0 L 863.0,650.0 L 880.0,677.0 L 873.0,701.0 L 871.0,872.0 L 863.0,940.0 L 851.0,962.0 L 816.0,955.0 L 767.0,932.0"/>
    <path d="M 544.0,821.0 L 600.0,817.0 L 763.0,784.0 L 807.0,789.0"/>
    <path d="M 588.0,709.0 L 607.0,721.0 L 612.0,736.0 L 615.0,911.0"/>
    <path d="M 691.0,682.0 L 717.0,706.0 L 707.0,959.0"/>
  </g>
</svg>
