<svg xmlns="http://www.w3.org/2000/svg" viewBox="0 0 1024 1024">
  <g style="fill:none;stroke:#000000;stroke-width:50;stroke-linecap:round;stroke-linejoin:round;" transform="scale(1, 1) translate(0, 0)">
    <path d="M 442.0,292.0 L 372.0,286.0 L 315.0,331.0 L 271.0,357.0 L 192.0,391.0 L 185.0,399.0 L 166.0,400.0 L 157.0,409.0"/>
    <path d="M 110.0,549.0 L 155.0,554.0 L 370.0,497.0 L 428.0,498.0"/>
    <path d="M 296.0,369.0 L 317.0,382.0 L 325.0,400.0 L 314.0,753.0 L 299.0,934.0 L 311.0,1019.0"/>
    <path d="M 296.0,546.0 L 274.0,633.0 L 236.0,700.0 L 178.0,784.0 L 85.0,886.0"/>
    <path d="M 344.0,615.0 L 399.0,654.0 L 419.0,686.0"/>
    <path d="M 497.0,351.0 L 525.0,357.0 L 585.0,353.0 L 670.0,338.0 L 682.0,330.0 L 753.0,313.0 L 810.0,313.0"/>
    <path d="M 611.0,209.0 L 629.0,221.0 L 645.0,244.0 L 632.0,423.0 L 626.0,441.0 L 615.0,451.0"/>
    <path d="M 504.0,455.0 L 529.0,483.0 L 536.0,550.0 L 540.0,777.0 L 525.0,793.0"/>
    <path d="M 566.0,491.0 L 571.0,481.0 L 717.0,445.0 L 736.0,452.0 L 748.0,467.0 L 757.0,482.0 L 751.0,575.0 L 752.0,748.0 L 734.0,761.0"/>
    <path d="M 564.0,574.0 L 575.0,564.0 L 631.0,552.0 L 678.0,546.0 L 697.0,551.0"/>
    <path d="M 566.0,658.0 L 575.0,649.0 L 663.0,631.0 L 697.0,635.0"/>
    <path d="M 564.0,739.0 L 598.0,724.0 L 673.0,714.0 L 704.0,718.0"/>
    <path d="M 402.0,824.0 L 450.0,833.0 L 622.0,808.0 L 833.0,790.0 L 884.0,797.0 L 915.0,808.0"/>
    <path d="M 595.0,908.0 L 561.0,909.0 L 500.0,970.0 L 435.0,1013.0 L 399.0,1028.0"/>
    <path d="M 705.0,876.0 L 815.0,975.0 L 834.0,1004.0 L 842.0,1037.0"/>
  </g>
</svg>
