<svg xmlns="http://www.w3.org/2000/svg" viewBox="0 0 1024 1024">
  <g style="fill:none;stroke:#000000;stroke-width:50;stroke-linecap:round;stroke-linejoin:round;" transform="scale(1, 1) translate(0, 0)">
    <path d="M 203.0,342.0 L 274.0,341.0 L 344.0,327.0 L 441.0,297.0 L 489.0,294.0"/>
    <path d="M 337.0,173.0 L 373.0,207.0 L 360.0,370.0 L 343.0,391.0"/>
    <path d="M 244.0,433.0 L 432.0,396.0 L 463.0,401.0"/>
    <path d="M 164.0,487.0 L 174.0,516.0 L 171.0,530.0 L 134.0,600.0 L 131.0,641.0"/>
    <path d="M 198.0,527.0 L 269.0,504.0 L 464.0,469.0 L 494.0,483.0 L 503.0,499.0 L 439.0,565.0"/>
    <path d="M 239.0,586.0 L 279.0,587.0 L 369.0,563.0 L 401.0,563.0"/>
    <path d="M 407.0,660.0 L 353.0,647.0 L 285.0,681.0 L 207.0,703.0 L 194.0,699.0 L 183.0,707.0"/>
    <path d="M 97.0,801.0 L 148.0,808.0 L 422.0,745.0 L 474.0,747.0"/>
    <path d="M 310.0,694.0 L 326.0,707.0 L 331.0,731.0 L 316.0,995.0 L 326.0,1064.0"/>
    <path d="M 303.0,796.0 L 294.0,804.0 L 285.0,840.0 L 220.0,916.0 L 167.0,959.0 L 92.0,1000.0"/>
    <path d="M 380.0,837.0 L 446.0,878.0 L 471.0,915.0"/>
    <path d="M 592.0,300.0 L 611.0,314.0 L 623.0,339.0 L 624.0,404.0 L 605.0,507.0 L 566.0,576.0"/>
    <path d="M 634.0,301.0 L 664.0,310.0 L 741.0,281.0 L 767.0,284.0 L 781.0,300.0 L 758.0,389.0 L 752.0,447.0 L 759.0,489.0 L 775.0,507.0 L 793.0,514.0 L 836.0,513.0 L 886.0,499.0 L 920.0,504.0"/>
    <path d="M 548.0,665.0 L 598.0,663.0 L 713.0,630.0 L 727.0,632.0 L 748.0,656.0 L 719.0,784.0 L 692.0,844.0 L 661.0,892.0 L 615.0,933.0 L 573.0,957.0 L 464.0,989.0"/>
    <path d="M 539.0,729.0 L 582.0,752.0 L 707.0,890.0 L 810.0,971.0 L 858.0,983.0 L 970.0,991.0"/>
  </g>
</svg>
