<svg xmlns="http://www.w3.org/2000/svg" viewBox="0 0 1024 1024">
  <g style="fill:none;stroke:#000000;stroke-width:50;stroke-linecap:round;stroke-linejoin:round;" transform="scale(1, 1) translate(0, 0)">
    <path d="M 439.0,303.0 L 373.0,292.0 L 291.0,341.0 L 149.0,394.0"/>
    <path d="M 55.0,543.0 L 72.0,549.0 L 108.0,549.0 L 350.0,481.0 L 407.0,480.0"/>
    <path d="M 264.0,372.0 L 283.0,383.0 L 298.0,409.0 L 290.0,747.0 L 278.0,944.0 L 291.0,1026.0"/>
    <path d="M 271.0,529.0 L 261.0,538.0 L 249.0,599.0 L 207.0,671.0 L 114.0,789.0 L 57.0,843.0"/>
    <path d="M 317.0,617.0 L 358.0,645.0 L 376.0,670.0"/>
    <path d="M 489.0,425.0 L 504.0,451.0 L 480.0,496.0 L 438.0,544.0 L 404.0,568.0"/>
    <path d="M 503.0,514.0 L 510.0,511.0 L 533.0,524.0 L 559.0,547.0"/>
    <path d="M 768.0,363.0 L 785.0,389.0 L 771.0,425.0 L 728.0,490.0 L 693.0,520.0"/>
    <path d="M 790.0,449.0 L 800.0,446.0 L 837.0,471.0 L 850.0,492.0"/>
    <path d="M 523.0,355.0 L 593.0,356.0 L 732.0,315.0 L 782.0,313.0"/>
    <path d="M 603.0,189.0 L 640.0,217.0 L 650.0,238.0 L 642.0,563.0 L 625.0,587.0"/>
    <path d="M 424.0,633.0 L 474.0,638.0 L 686.0,597.0 L 885.0,571.0 L 955.0,585.0"/>
    <path d="M 418.0,707.0 L 448.0,734.0 L 454.0,753.0 L 489.0,1012.0"/>
    <path d="M 483.0,717.0 L 498.0,730.0 L 818.0,671.0 L 837.0,674.0 L 862.0,690.0 L 874.0,704.0 L 842.0,933.0 L 832.0,970.0 L 818.0,990.0 L 819.0,1047.0"/>
    <path d="M 538.0,775.0 L 561.0,795.0 L 569.0,813.0 L 589.0,907.0"/>
    <path d="M 582.0,776.0 L 592.0,783.0 L 676.0,760.0 L 708.0,763.0 L 722.0,781.0 L 713.0,811.0 L 701.0,832.0 L 685.0,839.0"/>
    <path d="M 604.0,889.0 L 611.0,881.0 L 686.0,865.0 L 717.0,863.0 L 740.0,869.0"/>
    <path d="M 510.0,981.0 L 521.0,970.0 L 542.0,965.0 L 732.0,942.0 L 792.0,950.0"/>
  </g>
</svg>
