<svg xmlns="http://www.w3.org/2000/svg" viewBox="0 0 1024 1024">
  <g style="fill:none;stroke:#000000;stroke-width:50;stroke-linecap:round;stroke-linejoin:round;" transform="scale(1, 1) translate(0, 0)">
    <path d="M 391.0,309.0 L 328.0,300.0 L 269.0,342.0 L 153.0,396.0 L 133.0,396.0 L 124.0,406.0"/>
    <path d="M 64.0,545.0 L 98.0,551.0 L 131.0,547.0 L 339.0,493.0 L 387.0,487.0 L 407.0,491.0"/>
    <path d="M 243.0,380.0 L 270.0,400.0 L 258.0,728.0 L 243.0,943.0 L 255.0,1035.0"/>
    <path d="M 239.0,544.0 L 222.0,615.0 L 188.0,674.0 L 127.0,761.0 L 51.0,848.0 L 41.0,851.0 L 41.0,857.0"/>
    <path d="M 286.0,613.0 L 348.0,658.0 L 369.0,690.0"/>
    <path d="M 752.0,238.0 L 697.0,225.0 L 624.0,268.0 L 485.0,315.0"/>
    <path d="M 455.0,361.0 L 496.0,400.0 L 505.0,418.0"/>
    <path d="M 579.0,329.0 L 613.0,362.0 L 625.0,383.0"/>
    <path d="M 774.0,279.0 L 785.0,308.0 L 700.0,375.0"/>
    <path d="M 494.0,468.0 L 518.0,469.0 L 714.0,420.0 L 749.0,423.0"/>
    <path d="M 638.0,460.0 L 601.0,514.0"/>
    <path d="M 463.0,561.0 L 503.0,559.0 L 720.0,507.0 L 760.0,503.0 L 804.0,511.0"/>
    <path d="M 472.0,632.0 L 511.0,634.0 L 718.0,586.0 L 738.0,588.0 L 769.0,616.0 L 736.0,717.0 L 720.0,725.0"/>
    <path d="M 475.0,708.0 L 527.0,704.0 L 647.0,676.0 L 696.0,678.0"/>
    <path d="M 467.0,785.0 L 501.0,788.0 L 713.0,751.0 L 759.0,759.0"/>
    <path d="M 401.0,844.0 L 394.0,896.0 L 363.0,991.0"/>
    <path d="M 471.0,870.0 L 486.0,888.0 L 512.0,947.0 L 551.0,985.0 L 611.0,1013.0 L 679.0,1026.0 L 788.0,1022.0 L 835.0,998.0 L 783.0,892.0"/>
    <path d="M 580.0,826.0 L 647.0,862.0 L 670.0,892.0"/>
    <path d="M 817.0,791.0 L 906.0,842.0 L 931.0,876.0"/>
  </g>
</svg>
