<svg xmlns="http://www.w3.org/2000/svg" viewBox="0 0 1024 1024">
  <g style="fill:none;stroke:#000000;stroke-width:50;stroke-linecap:round;stroke-linejoin:round;" transform="scale(1, 1) translate(0, 0)">
    <path d="M 438.0,191.0 L 514.0,232.0 L 547.0,272.0"/>
    <path d="M 248.0,333.0 L 257.0,362.0 L 251.0,388.0 L 207.0,463.0 L 199.0,514.0"/>
    <path d="M 283.0,385.0 L 296.0,374.0 L 538.0,331.0 L 720.0,308.0 L 771.0,314.0 L 788.0,326.0 L 803.0,349.0 L 722.0,433.0"/>
    <path d="M 373.0,411.0 L 389.0,442.0 L 383.0,457.0 L 316.0,528.0 L 279.0,552.0"/>
    <path d="M 580.0,398.0 L 655.0,450.0 L 675.0,484.0"/>
    <path d="M 609.0,521.0 L 593.0,514.0 L 548.0,510.0 L 494.0,543.0 L 423.0,575.0 L 371.0,588.0 L 336.0,604.0 L 322.0,601.0 L 311.0,610.0"/>
    <path d="M 445.0,585.0 L 468.0,595.0 L 520.0,639.0"/>
    <path d="M 268.0,729.0 L 296.0,737.0 L 341.0,736.0 L 588.0,668.0 L 627.0,670.0 L 646.0,681.0 L 652.0,691.0 L 632.0,721.0 L 559.0,786.0 L 472.0,845.0 L 404.0,883.0 L 383.0,888.0"/>
    <path d="M 168.0,931.0 L 214.0,943.0 L 298.0,913.0 L 340.0,909.0 L 391.0,916.0 L 619.0,1005.0 L 741.0,1036.0 L 800.0,1037.0 L 924.0,1009.0"/>
  </g>
</svg>
