<svg xmlns="http://www.w3.org/2000/svg" viewBox="0 0 1024 1024">
  <g style="fill:none;stroke:#000000;stroke-width:50;stroke-linecap:round;stroke-linejoin:round;" transform="scale(1, 1) translate(0, 0)">
    <path d="M 456.0,174.0 L 533.0,212.0 L 564.0,249.0"/>
    <path d="M 236.0,309.0 L 245.0,344.0 L 191.0,447.0 L 183.0,498.0"/>
    <path d="M 273.0,365.0 L 509.0,321.0 L 671.0,297.0 L 754.0,291.0 L 792.0,306.0 L 811.0,331.0 L 742.0,419.0"/>
    <path d="M 375.0,395.0 L 386.0,433.0 L 364.0,461.0 L 301.0,511.0 L 252.0,537.0"/>
    <path d="M 577.0,398.0 L 657.0,444.0 L 678.0,462.0 L 694.0,488.0"/>
    <path d="M 363.0,514.0 L 384.0,557.0 L 338.0,635.0 L 282.0,699.0 L 180.0,771.0"/>
    <path d="M 372.0,632.0 L 397.0,622.0 L 569.0,600.0 L 705.0,573.0 L 749.0,573.0 L 776.0,583.0"/>
    <path d="M 473.0,634.0 L 505.0,666.0 L 492.0,992.0 L 502.0,1086.0"/>
    <path d="M 535.0,756.0 L 548.0,744.0 L 628.0,728.0 L 689.0,720.0 L 726.0,728.0"/>
    <path d="M 534.0,872.0 L 566.0,859.0 L 686.0,844.0 L 726.0,844.0 L 744.0,851.0"/>
  </g>
</svg>
