<svg xmlns="http://www.w3.org/2000/svg" viewBox="0 0 1024 1024">
  <g style="fill:none;stroke:#000000;stroke-width:50;stroke-linecap:round;stroke-linejoin:round;" transform="scale(1, 1) translate(0, 0)">
    <path d="M 451.0,185.0 L 529.0,228.0 L 553.0,263.0"/>
    <path d="M 254.0,325.0 L 260.0,367.0 L 254.0,386.0 L 214.0,442.0 L 204.0,495.0"/>
    <path d="M 293.0,356.0 L 304.0,369.0 L 532.0,327.0 L 716.0,305.0 L 753.0,307.0 L 783.0,325.0 L 793.0,344.0 L 730.0,420.0"/>
    <path d="M 383.0,416.0 L 399.0,446.0 L 391.0,462.0 L 358.0,514.0 L 319.0,554.0 L 282.0,580.0"/>
    <path d="M 580.0,406.0 L 646.0,452.0 L 674.0,495.0"/>
    <path d="M 388.0,569.0 L 408.0,586.0 L 421.0,611.0 L 413.0,715.0 L 388.0,824.0 L 353.0,900.0 L 322.0,940.0 L 271.0,982.0 L 218.0,1008.0"/>
    <path d="M 248.0,614.0 L 310.0,654.0 L 334.0,691.0"/>
    <path d="M 151.0,856.0 L 206.0,860.0 L 351.0,771.0 L 367.0,753.0"/>
    <path d="M 526.0,523.0 L 555.0,541.0 L 575.0,567.0 L 568.0,626.0 L 561.0,851.0 L 573.0,925.0 L 600.0,965.0 L 643.0,989.0 L 701.0,1003.0 L 801.0,1005.0 L 886.0,986.0 L 913.0,967.0 L 908.0,846.0 L 913.0,840.0 L 912.0,820.0"/>
    <path d="M 724.0,558.0 L 742.0,594.0 L 623.0,698.0"/>
    <path d="M 641.0,761.0 L 746.0,820.0 L 765.0,841.0 L 778.0,870.0"/>
  </g>
</svg>
