<svg xmlns="http://www.w3.org/2000/svg" viewBox="0 0 1024 1024">
  <g style="fill:none;stroke:#000000;stroke-width:50;stroke-linecap:round;stroke-linejoin:round;" transform="scale(1, 1) translate(0, 0)">
    <path d="M 453.0,195.0 L 539.0,233.0 L 567.0,267.0"/>
    <path d="M 263.0,319.0 L 271.0,349.0 L 267.0,369.0 L 222.0,440.0 L 218.0,486.0"/>
    <path d="M 296.0,349.0 L 316.0,360.0 L 347.0,359.0 L 532.0,321.0 L 747.0,297.0 L 785.0,310.0 L 802.0,335.0 L 742.0,405.0"/>
    <path d="M 387.0,395.0 L 399.0,426.0 L 389.0,444.0 L 316.0,508.0 L 268.0,533.0"/>
    <path d="M 596.0,385.0 L 676.0,433.0 L 710.0,479.0"/>
    <path d="M 369.0,525.0 L 388.0,562.0 L 366.0,600.0 L 322.0,656.0 L 259.0,703.0"/>
    <path d="M 378.0,629.0 L 505.0,618.0 L 644.0,589.0 L 709.0,588.0"/>
    <path d="M 492.0,467.0 L 532.0,503.0 L 523.0,697.0 L 507.0,721.0"/>
    <path d="M 174.0,778.0 L 230.0,788.0 L 468.0,751.0 L 782.0,717.0 L 820.0,721.0 L 869.0,737.0"/>
    <path d="M 325.0,853.0 L 357.0,878.0 L 365.0,895.0 L 396.0,1044.0"/>
    <path d="M 389.0,856.0 L 405.0,868.0 L 611.0,831.0 L 636.0,835.0 L 669.0,867.0 L 641.0,941.0 L 614.0,963.0"/>
    <path d="M 416.0,998.0 L 428.0,1010.0 L 628.0,990.0 L 669.0,991.0 L 692.0,1001.0"/>
  </g>
</svg>
