<svg xmlns="http://www.w3.org/2000/svg" viewBox="0 0 1024 1024">
  <g style="fill:none;stroke:#000000;stroke-width:50;stroke-linecap:round;stroke-linejoin:round;" transform="scale(1, 1) translate(0, 0)">
    <path d="M 445.0,175.0 L 519.0,207.0 L 553.0,243.0"/>
    <path d="M 257.0,309.0 L 265.0,334.0 L 259.0,364.0 L 218.0,426.0 L 210.0,474.0"/>
    <path d="M 289.0,339.0 L 320.0,349.0 L 582.0,306.0 L 746.0,294.0 L 780.0,311.0 L 793.0,330.0 L 736.0,409.0 L 728.0,411.0"/>
    <path d="M 407.0,382.0 L 419.0,399.0 L 421.0,418.0 L 357.0,483.0 L 299.0,521.0"/>
    <path d="M 556.0,369.0 L 624.0,405.0 L 647.0,424.0 L 665.0,451.0"/>
    <path d="M 321.0,557.0 L 368.0,562.0 L 487.0,543.0 L 599.0,517.0 L 639.0,518.0 L 664.0,536.0 L 673.0,555.0 L 639.0,677.0 L 616.0,693.0"/>
    <path d="M 154.0,680.0 L 210.0,687.0 L 519.0,638.0 L 811.0,608.0 L 844.0,609.0 L 900.0,625.0"/>
    <path d="M 297.0,766.0 L 333.0,770.0 L 603.0,723.0 L 657.0,722.0 L 680.0,730.0"/>
    <path d="M 429.0,573.0 L 455.0,600.0 L 444.0,646.0 L 398.0,773.0 L 360.0,841.0 L 308.0,904.0 L 257.0,944.0 L 196.0,978.0 L 131.0,1001.0"/>
    <path d="M 385.0,859.0 L 416.0,1052.0"/>
    <path d="M 413.0,858.0 L 432.0,868.0 L 544.0,852.0 L 611.0,834.0 L 659.0,836.0 L 688.0,868.0 L 662.0,927.0 L 633.0,945.0"/>
    <path d="M 434.0,985.0 L 446.0,996.0 L 630.0,974.0 L 670.0,976.0 L 696.0,985.0"/>
  </g>
</svg>
