<svg xmlns="http://www.w3.org/2000/svg" viewBox="0 0 1024 1024">
  <g style="fill:none;stroke:#000000;stroke-width:50;stroke-linecap:round;stroke-linejoin:round;" transform="scale(1, 1) translate(0, 0)">
    <path d="M 465.0,174.0 L 541.0,211.0 L 576.0,249.0"/>
    <path d="M 262.0,307.0 L 269.0,325.0 L 268.0,352.0 L 225.0,428.0 L 218.0,478.0"/>
    <path d="M 291.0,329.0 L 308.0,339.0 L 339.0,339.0 L 515.0,304.0 L 712.0,280.0 L 753.0,282.0 L 780.0,293.0 L 799.0,318.0 L 734.0,396.0"/>
    <path d="M 375.0,379.0 L 387.0,411.0 L 380.0,425.0 L 333.0,469.0 L 268.0,509.0"/>
    <path d="M 580.0,353.0 L 674.0,398.0 L 703.0,434.0"/>
    <path d="M 384.0,531.0 L 395.0,521.0 L 417.0,515.0 L 617.0,470.0 L 639.0,478.0 L 660.0,499.0 L 644.0,543.0 L 616.0,566.0"/>
    <path d="M 358.0,652.0 L 374.0,638.0 L 606.0,593.0 L 662.0,588.0 L 683.0,596.0"/>
    <path d="M 319.0,504.0 L 336.0,515.0 L 348.0,542.0 L 316.0,697.0 L 275.0,809.0 L 231.0,881.0 L 172.0,943.0 L 126.0,975.0 L 75.0,996.0"/>
    <path d="M 376.0,706.0 L 394.0,728.0 L 401.0,750.0 L 392.0,827.0 L 425.0,827.0 L 606.0,784.0 L 658.0,779.0 L 669.0,786.0"/>
    <path d="M 692.0,642.0 L 719.0,679.0 L 719.0,696.0 L 698.0,769.0 L 692.0,823.0"/>
    <path d="M 508.0,662.0 L 549.0,695.0 L 542.0,953.0 L 538.0,967.0 L 527.0,977.0"/>
    <path d="M 339.0,896.0 L 361.0,937.0 L 343.0,1030.0 L 354.0,1033.0 L 380.0,1034.0 L 484.0,1009.0 L 638.0,984.0 L 718.0,979.0 L 731.0,993.0"/>
    <path d="M 721.0,860.0 L 754.0,893.0 L 759.0,961.0 L 754.0,1030.0 L 761.0,1072.0"/>
  </g>
</svg>
