<svg xmlns="http://www.w3.org/2000/svg" viewBox="0 0 1024 1024">
  <g style="fill:none;stroke:#000000;stroke-width:50;stroke-linecap:round;stroke-linejoin:round;" transform="scale(1, 1) translate(0, 0)">
    <path d="M 449.0,195.0 L 532.0,229.0 L 561.0,260.0"/>
    <path d="M 252.0,322.0 L 262.0,353.0 L 253.0,386.0 L 210.0,455.0 L 207.0,502.0"/>
    <path d="M 287.0,378.0 L 301.0,368.0 L 501.0,332.0 L 716.0,305.0 L 752.0,307.0 L 782.0,324.0 L 793.0,344.0 L 718.0,419.0"/>
    <path d="M 369.0,399.0 L 384.0,430.0 L 377.0,442.0 L 313.0,510.0 L 286.0,525.0"/>
    <path d="M 585.0,385.0 L 653.0,419.0 L 674.0,448.0"/>
    <path d="M 377.0,514.0 L 438.0,518.0 L 545.0,501.0 L 602.0,484.0 L 639.0,487.0"/>
    <path d="M 487.0,415.0 L 517.0,444.0 L 511.0,564.0 L 498.0,582.0"/>
    <path d="M 248.0,632.0 L 297.0,640.0 L 412.0,615.0 L 590.0,588.0 L 669.0,581.0 L 700.0,587.0 L 716.0,598.0 L 726.0,620.0 L 650.0,683.0"/>
    <path d="M 366.0,669.0 L 419.0,693.0 L 433.0,706.0"/>
    <path d="M 320.0,733.0 L 387.0,769.0 L 404.0,796.0"/>
    <path d="M 179.0,867.0 L 231.0,878.0 L 424.0,853.0 L 793.0,825.0 L 883.0,848.0"/>
    <path d="M 477.0,655.0 L 497.0,664.0 L 526.0,697.0 L 516.0,811.0 L 484.0,910.0 L 450.0,957.0 L 398.0,999.0 L 332.0,1031.0 L 241.0,1053.0"/>
    <path d="M 570.0,918.0 L 670.0,976.0 L 723.0,1014.0 L 746.0,1040.0 L 761.0,1069.0"/>
  </g>
</svg>
