<svg xmlns="http://www.w3.org/2000/svg" viewBox="0 0 1024 1024">
  <g style="fill:none;stroke:#000000;stroke-width:50;stroke-linecap:round;stroke-linejoin:round;" transform="scale(1, 1) translate(0, 0)">
    <path d="M 437.0,174.0 L 525.0,214.0 L 547.0,241.0"/>
    <path d="M 250.0,281.0 L 257.0,296.0 L 258.0,326.0 L 240.0,361.0 L 211.0,398.0 L 203.0,450.0"/>
    <path d="M 285.0,311.0 L 299.0,319.0 L 335.0,319.0 L 424.0,300.0 L 708.0,269.0 L 747.0,284.0 L 763.0,306.0 L 698.0,381.0"/>
    <path d="M 352.0,361.0 L 365.0,390.0 L 357.0,407.0 L 313.0,451.0 L 246.0,493.0"/>
    <path d="M 577.0,357.0 L 651.0,397.0 L 672.0,424.0"/>
    <path d="M 345.0,466.0 L 395.0,494.0 L 411.0,520.0"/>
    <path d="M 597.0,432.0 L 608.0,457.0 L 548.0,504.0"/>
    <path d="M 256.0,566.0 L 278.0,574.0 L 315.0,575.0 L 696.0,529.0 L 749.0,539.0"/>
    <path d="M 459.0,384.0 L 480.0,398.0 L 496.0,420.0 L 487.0,650.0 L 493.0,707.0"/>
    <path d="M 465.0,583.0 L 401.0,645.0 L 353.0,682.0 L 305.0,709.0 L 252.0,729.0"/>
    <path d="M 509.0,578.0 L 526.0,583.0 L 582.0,627.0 L 674.0,680.0 L 762.0,689.0 L 831.0,684.0"/>
    <path d="M 425.0,713.0 L 439.0,729.0 L 445.0,755.0 L 379.0,890.0 L 411.0,911.0 L 479.0,936.0 L 593.0,996.0 L 648.0,1032.0 L 692.0,1081.0"/>
    <path d="M 557.0,763.0 L 585.0,792.0 L 581.0,826.0 L 543.0,917.0 L 499.0,976.0 L 447.0,1011.0 L 393.0,1033.0 L 351.0,1044.0 L 288.0,1048.0"/>
    <path d="M 154.0,823.0 L 206.0,835.0 L 499.0,801.0 L 789.0,784.0 L 816.0,786.0 L 877.0,806.0"/>
  </g>
</svg>
