<svg xmlns="http://www.w3.org/2000/svg" viewBox="0 0 1024 1024">
  <g style="fill:none;stroke:#000000;stroke-width:50;stroke-linecap:round;stroke-linejoin:round;" transform="scale(1, 1) translate(0, 0)">
    <path d="M 449.0,163.0 L 529.0,206.0 L 546.0,232.0"/>
    <path d="M 236.0,277.0 L 247.0,307.0 L 245.0,322.0 L 199.0,412.0 L 198.0,459.0"/>
    <path d="M 276.0,306.0 L 287.0,316.0 L 300.0,317.0 L 502.0,280.0 L 751.0,251.0 L 788.0,256.0 L 809.0,270.0 L 820.0,291.0 L 748.0,355.0"/>
    <path d="M 401.0,323.0 L 414.0,335.0 L 417.0,352.0 L 400.0,380.0 L 340.0,449.0 L 283.0,487.0"/>
    <path d="M 549.0,299.0 L 574.0,317.0 L 568.0,378.0 L 573.0,398.0 L 592.0,419.0 L 641.0,426.0 L 693.0,413.0 L 736.0,419.0"/>
    <path d="M 307.0,518.0 L 334.0,542.0 L 346.0,563.0 L 361.0,726.0 L 350.0,733.0"/>
    <path d="M 356.0,521.0 L 366.0,529.0 L 388.0,532.0 L 500.0,514.0 L 590.0,492.0 L 624.0,499.0 L 650.0,525.0 L 617.0,686.0 L 594.0,706.0"/>
    <path d="M 452.0,586.0 L 477.0,614.0 L 481.0,628.0 L 483.0,708.0 L 472.0,714.0"/>
    <path d="M 502.0,603.0 L 531.0,603.0 L 603.0,582.0"/>
    <path d="M 200.0,761.0 L 230.0,782.0 L 238.0,805.0 L 242.0,911.0 L 234.0,975.0 L 240.0,1025.0"/>
    <path d="M 258.0,767.0 L 274.0,776.0 L 416.0,745.0 L 509.0,732.0 L 717.0,710.0 L 766.0,715.0 L 795.0,751.0 L 785.0,778.0 L 755.0,994.0 L 738.0,1026.0 L 645.0,984.0"/>
    <path d="M 352.0,837.0 L 369.0,849.0 L 384.0,877.0 L 412.0,984.0"/>
    <path d="M 388.0,834.0 L 412.0,842.0 L 533.0,812.0 L 564.0,816.0 L 589.0,840.0 L 570.0,891.0 L 545.0,902.0"/>
    <path d="M 426.0,960.0 L 441.0,951.0 L 533.0,933.0 L 599.0,937.0"/>
  </g>
</svg>
