<svg xmlns="http://www.w3.org/2000/svg" viewBox="0 0 1024 1024">
  <g style="fill:none;stroke:#000000;stroke-width:50;stroke-linecap:round;stroke-linejoin:round;" transform="scale(1, 1) translate(0, 0)">
    <path d="M 451.0,185.0 L 529.0,228.0 L 553.0,263.0"/>
    <path d="M 253.0,309.0 L 260.0,328.0 L 255.0,364.0 L 214.0,426.0 L 206.0,474.0"/>
    <path d="M 286.0,334.0 L 303.0,344.0 L 332.0,343.0 L 567.0,305.0 L 670.0,295.0 L 709.0,299.0 L 733.0,311.0 L 749.0,334.0 L 686.0,401.0"/>
    <path d="M 368.0,386.0 L 382.0,416.0 L 373.0,432.0 L 315.0,498.0 L 278.0,521.0"/>
    <path d="M 560.0,377.0 L 638.0,424.0 L 661.0,458.0"/>
    <path d="M 468.0,423.0 L 486.0,464.0 L 424.0,546.0 L 369.0,601.0 L 302.0,658.0 L 235.0,704.0 L 145.0,751.0 L 124.0,760.0 L 113.0,758.0 L 108.0,765.0"/>
    <path d="M 511.0,493.0 L 522.0,494.0 L 693.0,614.0 L 772.0,657.0 L 839.0,668.0 L 951.0,669.0"/>
    <path d="M 403.0,639.0 L 454.0,641.0 L 557.0,615.0 L 592.0,618.0"/>
    <path d="M 281.0,702.0 L 304.0,724.0 L 309.0,754.0 L 293.0,915.0 L 274.0,1011.0"/>
    <path d="M 329.0,710.0 L 342.0,717.0 L 423.0,695.0 L 436.0,700.0 L 454.0,720.0 L 451.0,834.0 L 458.0,929.0 L 450.0,993.0 L 440.0,1006.0 L 409.0,996.0 L 378.0,976.0 L 361.0,976.0"/>
    <path d="M 326.0,811.0 L 338.0,800.0 L 381.0,792.0 L 402.0,796.0"/>
    <path d="M 321.0,893.0 L 330.0,881.0 L 342.0,877.0 L 386.0,871.0 L 405.0,876.0"/>
    <path d="M 535.0,733.0 L 555.0,755.0 L 557.0,769.0 L 553.0,906.0"/>
    <path d="M 636.0,667.0 L 677.0,707.0 L 681.0,937.0 L 675.0,996.0 L 663.0,1019.0 L 635.0,1012.0 L 570.0,978.0"/>
  </g>
</svg>
