<svg xmlns="http://www.w3.org/2000/svg" viewBox="0 0 1024 1024">
  <g style="fill:none;stroke:#000000;stroke-width:50;stroke-linecap:round;stroke-linejoin:round;" transform="scale(1, 1) translate(0, 0)">
    <path d="M 458.0,165.0 L 531.0,206.0 L 549.0,235.0"/>
    <path d="M 260.0,281.0 L 268.0,298.0 L 266.0,329.0 L 218.0,411.0 L 211.0,458.0"/>
    <path d="M 300.0,319.0 L 309.0,328.0 L 320.0,329.0 L 551.0,290.0 L 735.0,274.0 L 767.0,292.0 L 778.0,311.0 L 710.0,393.0"/>
    <path d="M 387.0,355.0 L 400.0,386.0 L 393.0,401.0 L 335.0,454.0 L 288.0,481.0"/>
    <path d="M 568.0,354.0 L 635.0,386.0 L 658.0,405.0 L 671.0,425.0"/>
    <path d="M 242.0,557.0 L 263.0,562.0 L 315.0,542.0 L 333.0,541.0 L 342.0,542.0 L 352.0,555.0 L 347.0,572.0 L 302.0,640.0 L 296.0,660.0 L 351.0,747.0 L 351.0,789.0 L 324.0,788.0 L 277.0,773.0 L 273.0,766.0"/>
    <path d="M 188.0,542.0 L 208.0,562.0 L 219.0,584.0 L 224.0,670.0 L 223.0,817.0 L 201.0,986.0 L 203.0,1032.0"/>
    <path d="M 556.0,454.0 L 527.0,464.0 L 478.0,533.0 L 437.0,575.0 L 408.0,594.0"/>
    <path d="M 540.0,495.0 L 660.0,478.0 L 683.0,487.0 L 686.0,494.0 L 658.0,538.0 L 583.0,615.0 L 481.0,690.0 L 409.0,726.0"/>
    <path d="M 502.0,543.0 L 548.0,557.0 L 690.0,653.0 L 767.0,690.0 L 835.0,699.0 L 931.0,691.0 L 939.0,695.0 L 951.0,690.0"/>
    <path d="M 500.0,715.0 L 541.0,721.0 L 678.0,700.0"/>
    <path d="M 444.0,756.0 L 457.0,787.0 L 444.0,812.0 L 411.0,854.0 L 370.0,887.0"/>
    <path d="M 465.0,829.0 L 547.0,829.0 L 678.0,798.0 L 725.0,798.0"/>
    <path d="M 468.0,916.0 L 491.0,923.0 L 530.0,921.0 L 640.0,899.0 L 698.0,896.0"/>
    <path d="M 554.0,740.0 L 582.0,762.0 L 587.0,783.0 L 585.0,971.0 L 570.0,990.0"/>
    <path d="M 346.0,1025.0 L 398.0,1034.0 L 499.0,1019.0 L 743.0,999.0 L 804.0,1004.0 L 846.0,1019.0"/>
  </g>
</svg>
