<svg xmlns="http://www.w3.org/2000/svg" viewBox="0 0 1024 1024">
  <g style="fill:none;stroke:#000000;stroke-width:50;stroke-linecap:round;stroke-linejoin:round;" transform="scale(1, 1) translate(0, 0)">
    <path d="M 444.0,156.0 L 513.0,180.0 L 549.0,213.0"/>
    <path d="M 251.0,248.0 L 258.0,263.0 L 258.0,290.0 L 219.0,351.0 L 213.0,399.0"/>
    <path d="M 289.0,281.0 L 297.0,290.0 L 313.0,291.0 L 613.0,240.0 L 743.0,229.0 L 771.0,236.0 L 793.0,262.0 L 741.0,329.0"/>
    <path d="M 392.0,298.0 L 403.0,309.0 L 401.0,326.0 L 351.0,380.0 L 306.0,412.0"/>
    <path d="M 571.0,265.0 L 589.0,281.0 L 591.0,327.0 L 604.0,345.0 L 651.0,351.0 L 694.0,338.0 L 716.0,341.0"/>
    <path d="M 364.0,412.0 L 405.0,418.0 L 565.0,388.0 L 624.0,390.0"/>
    <path d="M 480.0,317.0 L 494.0,324.0 L 512.0,348.0 L 507.0,424.0 L 497.0,450.0"/>
    <path d="M 327.0,489.0 L 349.0,493.0 L 391.0,488.0 L 585.0,456.0 L 637.0,453.0 L 672.0,460.0"/>
    <path d="M 249.0,559.0 L 264.0,570.0 L 282.0,605.0 L 312.0,729.0"/>
    <path d="M 277.0,558.0 L 309.0,568.0 L 403.0,546.0 L 645.0,508.0 L 702.0,507.0 L 723.0,522.0 L 732.0,544.0 L 707.0,615.0 L 683.0,632.0"/>
    <path d="M 324.0,699.0 L 334.0,690.0 L 408.0,675.0 L 418.0,668.0"/>
    <path d="M 580.0,681.0 L 592.0,671.0 L 680.0,656.0 L 724.0,660.0"/>
    <path d="M 527.0,549.0 L 555.0,563.0 L 559.0,580.0 L 555.0,989.0"/>
    <path d="M 412.0,564.0 L 446.0,597.0 L 447.0,831.0 L 458.0,954.0 L 484.0,1006.0 L 520.0,1036.0 L 567.0,1053.0 L 638.0,1059.0 L 770.0,1046.0 L 855.0,1022.0 L 872.0,1011.0 L 881.0,867.0"/>
    <path d="M 281.0,795.0 L 298.0,782.0 L 402.0,760.0 L 415.0,771.0"/>
    <path d="M 224.0,764.0 L 250.0,791.0 L 256.0,814.0 L 282.0,995.0"/>
    <path d="M 288.0,881.0 L 299.0,870.0 L 346.0,857.0 L 397.0,853.0"/>
    <path d="M 300.0,962.0 L 331.0,948.0 L 412.0,933.0 L 432.0,945.0"/>
    <path d="M 577.0,765.0 L 587.0,757.0 L 697.0,732.0 L 731.0,738.0 L 746.0,764.0 L 706.0,937.0"/>
    <path d="M 580.0,841.0 L 590.0,829.0 L 625.0,822.0 L 666.0,827.0"/>
    <path d="M 575.0,935.0 L 586.0,926.0 L 671.0,917.0 L 686.0,906.0"/>
  </g>
</svg>
