<svg xmlns="http://www.w3.org/2000/svg" viewBox="0 0 1024 1024">
  <g style="fill:none;stroke:#000000;stroke-width:50;stroke-linecap:round;stroke-linejoin:round;" transform="scale(1, 1) translate(0, 0)">
    <path d="M 460.0,155.0 L 526.0,192.0 L 551.0,227.0"/>
    <path d="M 256.0,283.0 L 265.0,311.0 L 263.0,325.0 L 226.0,396.0 L 223.0,437.0"/>
    <path d="M 290.0,310.0 L 302.0,320.0 L 316.0,321.0 L 473.0,291.0 L 687.0,264.0 L 755.0,258.0 L 791.0,263.0 L 814.0,279.0 L 824.0,298.0 L 766.0,359.0 L 756.0,363.0"/>
    <path d="M 414.0,323.0 L 424.0,335.0 L 427.0,355.0 L 409.0,379.0 L 352.0,422.0 L 308.0,441.0"/>
    <path d="M 548.0,301.0 L 571.0,323.0 L 571.0,377.0 L 591.0,401.0 L 632.0,405.0 L 692.0,389.0 L 730.0,391.0"/>
    <path d="M 446.0,492.0 L 394.0,481.0 L 338.0,516.0 L 228.0,555.0"/>
    <path d="M 189.0,590.0 L 238.0,659.0"/>
    <path d="M 427.0,558.0 L 441.0,579.0 L 387.0,639.0"/>
    <path d="M 96.0,739.0 L 145.0,745.0 L 365.0,693.0 L 426.0,686.0 L 447.0,690.0"/>
    <path d="M 307.0,544.0 L 329.0,559.0 L 335.0,572.0 L 319.0,982.0 L 329.0,1060.0"/>
    <path d="M 307.0,731.0 L 299.0,739.0 L 284.0,787.0 L 231.0,857.0 L 176.0,912.0 L 132.0,945.0 L 99.0,961.0 L 95.0,969.0 L 72.0,979.0"/>
    <path d="M 351.0,773.0 L 407.0,816.0 L 416.0,833.0"/>
    <path d="M 608.0,443.0 L 639.0,471.0 L 638.0,556.0 L 635.0,569.0 L 624.0,574.0"/>
    <path d="M 664.0,514.0 L 678.0,505.0 L 743.0,489.0 L 792.0,485.0"/>
    <path d="M 492.0,598.0 L 510.0,612.0 L 523.0,633.0 L 540.0,749.0 L 533.0,755.0"/>
    <path d="M 530.0,599.0 L 553.0,608.0 L 582.0,606.0 L 733.0,578.0 L 758.0,582.0 L 788.0,611.0 L 765.0,710.0 L 741.0,735.0"/>
    <path d="M 626.0,618.0 L 637.0,625.0 L 640.0,636.0 L 630.0,657.0 L 605.0,694.0 L 573.0,721.0"/>
    <path d="M 640.0,678.0 L 664.0,680.0 L 685.0,692.0 L 704.0,715.0"/>
    <path d="M 459.0,762.0 L 479.0,782.0 L 483.0,829.0 L 465.0,1028.0"/>
    <path d="M 508.0,776.0 L 526.0,783.0 L 815.0,747.0 L 834.0,750.0 L 855.0,764.0 L 867.0,777.0 L 864.0,939.0 L 853.0,1019.0 L 837.0,1039.0 L 824.0,1037.0 L 738.0,997.0"/>
    <path d="M 644.0,794.0 L 622.0,806.0 L 580.0,891.0 L 578.0,907.0 L 601.0,907.0 L 692.0,880.0 L 699.0,887.0"/>
    <path d="M 690.0,834.0 L 739.0,891.0 L 748.0,922.0"/>
  </g>
</svg>
