<svg xmlns="http://www.w3.org/2000/svg" viewBox="0 0 1024 1024">
  <g style="fill:none;stroke:#000000;stroke-width:50;stroke-linecap:round;stroke-linejoin:round;" transform="scale(1, 1) translate(0, 0)">
    <path d="M 441.0,160.0 L 510.0,182.0 L 542.0,212.0"/>
    <path d="M 251.0,251.0 L 260.0,278.0 L 258.0,292.0 L 217.0,357.0 L 212.0,401.0"/>
    <path d="M 284.0,284.0 L 312.0,294.0 L 450.0,264.0 L 741.0,230.0 L 768.0,239.0 L 789.0,263.0 L 739.0,335.0"/>
    <path d="M 391.0,301.0 L 402.0,314.0 L 402.0,324.0 L 387.0,345.0 L 350.0,383.0 L 304.0,413.0"/>
    <path d="M 568.0,266.0 L 585.0,282.0 L 585.0,312.0 L 602.0,348.0 L 633.0,352.0 L 684.0,341.0 L 711.0,343.0"/>
    <path d="M 371.0,417.0 L 414.0,419.0 L 582.0,388.0 L 619.0,394.0"/>
    <path d="M 481.0,319.0 L 510.0,349.0 L 506.0,430.0 L 496.0,451.0"/>
    <path d="M 378.0,486.0 L 416.0,486.0 L 576.0,457.0 L 605.0,456.0 L 621.0,463.0"/>
    <path d="M 224.0,550.0 L 265.0,595.0 L 296.0,694.0"/>
    <path d="M 242.0,546.0 L 293.0,559.0 L 474.0,525.0 L 701.0,498.0 L 735.0,501.0 L 750.0,507.0 L 771.0,533.0 L 727.0,640.0"/>
    <path d="M 406.0,555.0 L 419.0,575.0 L 434.0,629.0 L 446.0,639.0"/>
    <path d="M 574.0,532.0 L 592.0,552.0 L 574.0,610.0 L 557.0,619.0"/>
    <path d="M 312.0,667.0 L 320.0,674.0 L 347.0,673.0 L 643.0,632.0 L 694.0,629.0 L 705.0,636.0"/>
    <path d="M 344.0,713.0 L 368.0,749.0 L 364.0,908.0 L 369.0,944.0"/>
    <path d="M 388.0,722.0 L 400.0,730.0 L 600.0,693.0 L 631.0,699.0 L 657.0,730.0 L 647.0,934.0"/>
    <path d="M 390.0,804.0 L 400.0,795.0 L 498.0,777.0 L 557.0,777.0"/>
    <path d="M 388.0,864.0 L 399.0,855.0 L 464.0,849.0 L 470.0,844.0 L 525.0,838.0 L 556.0,841.0"/>
    <path d="M 388.0,927.0 L 401.0,917.0 L 565.0,899.0 L 604.0,897.0 L 615.0,905.0"/>
    <path d="M 442.0,991.0 L 411.0,991.0 L 354.0,1039.0 L 300.0,1069.0 L 240.0,1090.0"/>
    <path d="M 589.0,959.0 L 696.0,1032.0 L 717.0,1059.0 L 730.0,1090.0"/>
  </g>
</svg>
