<svg xmlns="http://www.w3.org/2000/svg" viewBox="0 0 1024 1024">
  <g style="fill:none;stroke:#000000;stroke-width:50;stroke-linecap:round;stroke-linejoin:round;" transform="scale(1, 1) translate(0, 0)">
    <path d="M 273.0,256.0 L 355.0,311.0 L 378.0,352.0"/>
    <path d="M 144.0,520.0 L 178.0,525.0 L 215.0,521.0 L 397.0,470.0 L 459.0,463.0"/>
    <path d="M 185.0,653.0 L 224.0,720.0 L 234.0,752.0"/>
    <path d="M 371.0,570.0 L 396.0,602.0 L 354.0,745.0 L 338.0,784.0 L 322.0,801.0"/>
    <path d="M 113.0,867.0 L 168.0,884.0 L 380.0,806.0 L 448.0,775.0"/>
    <path d="M 606.0,257.0 L 658.0,299.0 L 659.0,311.0 L 650.0,688.0 L 632.0,714.0"/>
    <path d="M 683.0,508.0 L 707.0,492.0 L 834.0,457.0 L 884.0,457.0"/>
    <path d="M 468.0,737.0 L 492.0,757.0 L 504.0,779.0 L 548.0,1008.0"/>
    <path d="M 522.0,740.0 L 546.0,751.0 L 660.0,733.0 L 760.0,708.0 L 796.0,714.0 L 832.0,749.0 L 793.0,869.0 L 760.0,895.0"/>
    <path d="M 566.0,936.0 L 579.0,947.0 L 591.0,948.0 L 746.0,925.0 L 800.0,927.0 L 826.0,935.0"/>
  </g>
</svg>
