<svg xmlns="http://www.w3.org/2000/svg" viewBox="0 0 1024 1024">
  <g style="fill:none;stroke:#000000;stroke-width:50;stroke-linecap:round;stroke-linejoin:round;" transform="scale(1, 1) translate(0, 0)">
    <path d="M 461.0,176.0 L 541.0,219.0 L 559.0,239.0"/>
    <path d="M 308.0,342.0 L 347.0,351.0 L 660.0,300.0 L 718.0,307.0"/>
    <path d="M 342.0,406.0 L 395.0,449.0 L 411.0,485.0"/>
    <path d="M 598.0,335.0 L 621.0,356.0 L 628.0,380.0 L 589.0,460.0 L 552.0,498.0"/>
    <path d="M 134.0,563.0 L 185.0,572.0 L 426.0,534.0 L 785.0,496.0 L 867.0,515.0"/>
    <path d="M 322.0,605.0 L 352.0,633.0 L 383.0,782.0 L 394.0,800.0"/>
    <path d="M 381.0,609.0 L 394.0,620.0 L 497.0,604.0 L 573.0,584.0 L 621.0,582.0 L 652.0,614.0 L 621.0,704.0 L 596.0,716.0"/>
    <path d="M 408.0,792.0 L 423.0,777.0 L 587.0,750.0 L 640.0,748.0 L 661.0,757.0"/>
    <path d="M 387.0,816.0 L 406.0,853.0 L 344.0,942.0 L 270.0,1001.0 L 219.0,1027.0 L 173.0,1042.0"/>
    <path d="M 537.0,783.0 L 568.0,807.0 L 563.0,919.0 L 571.0,984.0 L 592.0,1016.0 L 657.0,1042.0 L 748.0,1048.0 L 815.0,1036.0 L 853.0,1021.0 L 891.0,991.0 L 907.0,873.0"/>
  </g>
</svg>
