<svg xmlns="http://www.w3.org/2000/svg" viewBox="0 0 1024 1024">
  <g style="fill:none;stroke:#000000;stroke-width:50;stroke-linecap:round;stroke-linejoin:round;" transform="scale(1, 1) translate(0, 0)">
    <path d="M 249.0,243.0 L 327.0,292.0 L 355.0,331.0"/>
    <path d="M 175.0,462.0 L 241.0,462.0 L 364.0,424.0 L 409.0,421.0"/>
    <path d="M 190.0,569.0 L 232.0,640.0 L 237.0,665.0"/>
    <path d="M 335.0,512.0 L 361.0,543.0 L 320.0,698.0 L 299.0,729.0"/>
    <path d="M 111.0,794.0 L 167.0,810.0 L 408.0,703.0"/>
    <path d="M 489.0,379.0 L 512.0,386.0 L 550.0,386.0 L 652.0,369.0 L 727.0,348.0 L 782.0,348.0"/>
    <path d="M 436.0,507.0 L 455.0,523.0 L 469.0,549.0 L 496.0,674.0"/>
    <path d="M 473.0,507.0 L 497.0,517.0 L 651.0,491.0 L 724.0,472.0 L 765.0,471.0 L 796.0,502.0 L 768.0,568.0 L 742.0,586.0"/>
    <path d="M 514.0,653.0 L 530.0,644.0 L 732.0,613.0 L 786.0,611.0 L 806.0,619.0"/>
    <path d="M 568.0,200.0 L 613.0,241.0 L 623.0,264.0 L 616.0,760.0 L 601.0,953.0 L 603.0,1045.0"/>
    <path d="M 588.0,658.0 L 578.0,669.0 L 562.0,717.0 L 489.0,812.0 L 412.0,882.0 L 333.0,931.0"/>
    <path d="M 643.0,663.0 L 651.0,690.0 L 691.0,739.0 L 763.0,816.0 L 827.0,873.0 L 973.0,903.0"/>
  </g>
</svg>
