<svg xmlns="http://www.w3.org/2000/svg" viewBox="0 0 1024 1024">
  <g style="fill:none;stroke:#000000;stroke-width:50;stroke-linecap:round;stroke-linejoin:round;" transform="scale(1, 1) translate(0, 0)">
    <path d="M 233.0,253.0 L 305.0,303.0 L 333.0,348.0"/>
    <path d="M 159.0,488.0 L 231.0,489.0 L 365.0,448.0 L 414.0,447.0"/>
    <path d="M 158.0,592.0 L 209.0,659.0 L 218.0,695.0"/>
    <path d="M 335.0,549.0 L 359.0,585.0 L 313.0,729.0 L 292.0,759.0"/>
    <path d="M 100.0,830.0 L 157.0,844.0 L 398.0,735.0"/>
    <path d="M 471.0,257.0 L 494.0,275.0 L 504.0,294.0 L 534.0,446.0 L 545.0,471.0"/>
    <path d="M 523.0,259.0 L 540.0,268.0 L 716.0,238.0 L 751.0,249.0 L 770.0,277.0 L 717.0,449.0"/>
    <path d="M 549.0,365.0 L 555.0,357.0 L 632.0,341.0 L 676.0,344.0"/>
    <path d="M 558.0,452.0 L 569.0,443.0 L 696.0,422.0"/>
    <path d="M 530.0,480.0 L 550.0,504.0 L 551.0,514.0 L 527.0,556.0 L 479.0,613.0 L 432.0,651.0 L 419.0,652.0 L 415.0,660.0"/>
    <path d="M 539.0,585.0 L 811.0,534.0 L 839.0,543.0 L 866.0,573.0 L 845.0,829.0 L 814.0,948.0 L 787.0,991.0 L 761.0,1010.0 L 664.0,949.0"/>
    <path d="M 605.0,589.0 L 625.0,613.0 L 620.0,646.0 L 576.0,714.0 L 517.0,771.0"/>
    <path d="M 631.0,684.0 L 643.0,680.0 L 690.0,708.0 L 716.0,733.0 L 724.0,752.0"/>
    <path d="M 428.0,697.0 L 462.0,735.0 L 445.0,858.0 L 475.0,859.0 L 572.0,839.0 L 656.0,834.0 L 716.0,836.0 L 761.0,855.0"/>
  </g>
</svg>
