<svg xmlns="http://www.w3.org/2000/svg" viewBox="0 0 1024 1024">
  <g style="fill:none;stroke:#000000;stroke-width:50;stroke-linecap:round;stroke-linejoin:round;" transform="scale(1, 1) translate(0, 0)">
    <path d="M 298.0,225.0 L 325.0,262.0 L 286.0,352.0 L 226.0,429.0 L 171.0,477.0"/>
    <path d="M 323.0,342.0 L 473.0,311.0 L 508.0,313.0"/>
    <path d="M 343.0,409.0 L 392.0,445.0 L 409.0,469.0"/>
    <path d="M 598.0,182.0 L 614.0,198.0 L 625.0,222.0 L 610.0,263.0 L 566.0,340.0 L 518.0,395.0 L 488.0,420.0"/>
    <path d="M 614.0,322.0 L 760.0,294.0 L 820.0,294.0"/>
    <path d="M 612.0,386.0 L 686.0,412.0 L 719.0,443.0"/>
    <path d="M 329.0,550.0 L 361.0,557.0 L 404.0,556.0 L 520.0,537.0 L 603.0,516.0 L 657.0,517.0"/>
    <path d="M 155.0,731.0 L 210.0,741.0 L 411.0,711.0 L 786.0,676.0 L 874.0,697.0"/>
    <path d="M 471.0,569.0 L 509.0,597.0 L 518.0,658.0 L 527.0,768.0 L 528.0,885.0 L 517.0,964.0 L 501.0,1005.0 L 484.0,1025.0 L 373.0,956.0"/>
  </g>
</svg>
