<svg xmlns="http://www.w3.org/2000/svg" viewBox="0 0 1024 1024">
  <g style="fill:none;stroke:#000000;stroke-width:50;stroke-linecap:round;stroke-linejoin:round;" transform="scale(1, 1) translate(0, 0)">
    <path d="M 306.0,241.0 L 325.0,255.0 L 347.0,286.0 L 301.0,399.0 L 196.0,586.0 L 114.0,699.0 L 70.0,745.0"/>
    <path d="M 227.0,582.0 L 350.0,561.0 L 445.0,530.0 L 470.0,527.0 L 497.0,533.0"/>
    <path d="M 315.0,595.0 L 341.0,620.0 L 321.0,876.0 L 330.0,957.0"/>
    <path d="M 641.0,225.0 L 660.0,237.0 L 685.0,271.0 L 675.0,308.0 L 596.0,498.0 L 521.0,631.0 L 469.0,696.0"/>
    <path d="M 595.0,553.0 L 623.0,540.0 L 676.0,533.0 L 859.0,486.0 L 891.0,483.0 L 934.0,493.0"/>
    <path d="M 683.0,563.0 L 714.0,577.0 L 731.0,600.0 L 727.0,935.0 L 706.0,967.0 L 690.0,963.0 L 578.0,892.0"/>
  </g>
</svg>
