<svg xmlns="http://www.w3.org/2000/svg" viewBox="0 0 1024 1024">
  <g style="fill:none;stroke:#000000;stroke-width:50;stroke-linecap:round;stroke-linejoin:round;" transform="scale(1, 1) translate(0, 0)">
    <path d="M 281.0,226.0 L 311.0,263.0 L 298.0,302.0 L 253.0,385.0 L 187.0,453.0"/>
    <path d="M 319.0,330.0 L 342.0,321.0 L 402.0,317.0 L 469.0,302.0 L 494.0,305.0"/>
    <path d="M 332.0,389.0 L 388.0,418.0 L 413.0,451.0"/>
    <path d="M 564.0,194.0 L 589.0,221.0 L 591.0,231.0 L 575.0,284.0 L 526.0,371.0 L 482.0,416.0"/>
    <path d="M 596.0,310.0 L 679.0,300.0 L 770.0,278.0 L 814.0,281.0"/>
    <path d="M 614.0,373.0 L 685.0,401.0 L 719.0,436.0"/>
    <path d="M 334.0,514.0 L 386.0,519.0 L 551.0,483.0 L 585.0,482.0 L 603.0,489.0 L 628.0,521.0 L 607.0,579.0 L 591.0,653.0 L 568.0,692.0"/>
    <path d="M 373.0,583.0 L 392.0,620.0 L 364.0,717.0 L 367.0,740.0 L 392.0,743.0 L 473.0,726.0 L 720.0,698.0 L 750.0,701.0 L 783.0,733.0 L 731.0,948.0 L 710.0,998.0 L 697.0,1014.0 L 675.0,1030.0 L 559.0,977.0"/>
    <path d="M 131.0,875.0 L 190.0,889.0 L 342.0,860.0 L 572.0,832.0 L 646.0,854.0"/>
  </g>
</svg>
