<svg xmlns="http://www.w3.org/2000/svg" viewBox="0 0 1024 1024">
  <g style="fill:none;stroke:#000000;stroke-width:50;stroke-linecap:round;stroke-linejoin:round;" transform="scale(1, 1) translate(0, 0)">
    <path d="M 313.0,238.0 L 338.0,273.0 L 292.0,376.0 L 219.0,467.0 L 172.0,505.0"/>
    <path d="M 329.0,366.0 L 473.0,330.0 L 512.0,329.0"/>
    <path d="M 348.0,424.0 L 396.0,465.0 L 407.0,486.0"/>
    <path d="M 595.0,194.0 L 622.0,225.0 L 600.0,298.0 L 553.0,380.0 L 498.0,441.0"/>
    <path d="M 619.0,324.0 L 694.0,313.0 L 793.0,289.0 L 829.0,290.0"/>
    <path d="M 625.0,399.0 L 704.0,446.0 L 721.0,473.0"/>
    <path d="M 672.0,543.0 L 635.0,538.0 L 413.0,587.0 L 346.0,582.0"/>
    <path d="M 225.0,755.0 L 284.0,761.0 L 532.0,721.0 L 747.0,696.0 L 822.0,715.0"/>
    <path d="M 462.0,604.0 L 492.0,620.0 L 502.0,633.0 L 500.0,669.0 L 479.0,761.0 L 435.0,848.0 L 398.0,893.0 L 344.0,938.0 L 280.0,973.0 L 188.0,1000.0"/>
    <path d="M 518.0,751.0 L 552.0,794.0 L 640.0,882.0 L 750.0,974.0 L 840.0,999.0 L 941.0,1017.0"/>
  </g>
</svg>
