<svg xmlns="http://www.w3.org/2000/svg" viewBox="0 0 1024 1024">
  <g style="fill:none;stroke:#000000;stroke-width:50;stroke-linecap:round;stroke-linejoin:round;" transform="scale(1, 1) translate(0, 0)">
    <path d="M 301.0,218.0 L 328.0,247.0 L 330.0,258.0 L 311.0,311.0 L 264.0,393.0 L 195.0,464.0"/>
    <path d="M 332.0,338.0 L 354.0,329.0 L 396.0,328.0 L 481.0,310.0 L 506.0,313.0"/>
    <path d="M 341.0,406.0 L 403.0,442.0 L 419.0,472.0"/>
    <path d="M 614.0,184.0 L 644.0,220.0 L 625.0,275.0 L 576.0,363.0 L 507.0,436.0"/>
    <path d="M 635.0,320.0 L 656.0,310.0 L 701.0,307.0 L 802.0,285.0 L 844.0,286.0"/>
    <path d="M 641.0,379.0 L 712.0,419.0 L 726.0,444.0"/>
    <path d="M 331.0,499.0 L 358.0,536.0 L 359.0,546.0 L 329.0,599.0 L 213.0,744.0 L 142.0,814.0 L 96.0,847.0"/>
    <path d="M 311.0,674.0 L 315.0,769.0 L 298.0,937.0 L 303.0,1007.0"/>
    <path d="M 390.0,660.0 L 445.0,666.0 L 585.0,639.0 L 819.0,610.0 L 855.0,610.0 L 913.0,625.0"/>
    <path d="M 632.0,492.0 L 670.0,525.0 L 684.0,546.0 L 688.0,885.0 L 683.0,963.0 L 664.0,1006.0 L 630.0,996.0 L 554.0,959.0"/>
    <path d="M 456.0,733.0 L 512.0,783.0 L 531.0,822.0"/>
  </g>
</svg>
