<svg xmlns="http://www.w3.org/2000/svg" viewBox="0 0 1024 1024">
  <g style="fill:none;stroke:#000000;stroke-width:50;stroke-linecap:round;stroke-linejoin:round;" transform="scale(1, 1) translate(0, 0)">
    <path d="M 302.0,238.0 L 334.0,277.0 L 306.0,352.0 L 250.0,442.0 L 176.0,516.0"/>
    <path d="M 327.0,376.0 L 349.0,366.0 L 392.0,365.0 L 462.0,352.0 L 506.0,356.0"/>
    <path d="M 316.0,454.0 L 374.0,495.0 L 398.0,534.0"/>
    <path d="M 620.0,208.0 L 651.0,244.0 L 635.0,298.0 L 588.0,390.0 L 551.0,438.0 L 507.0,479.0"/>
    <path d="M 650.0,345.0 L 660.0,338.0 L 720.0,333.0 L 803.0,315.0 L 852.0,318.0"/>
    <path d="M 637.0,425.0 L 721.0,479.0 L 742.0,517.0"/>
    <path d="M 456.0,532.0 L 515.0,569.0 L 533.0,594.0"/>
    <path d="M 300.0,681.0 L 371.0,691.0 L 476.0,679.0 L 659.0,646.0 L 731.0,646.0"/>
    <path d="M 343.0,772.0 L 406.0,833.0 L 423.0,876.0"/>
    <path d="M 602.0,723.0 L 618.0,735.0 L 632.0,770.0 L 576.0,884.0 L 531.0,947.0"/>
    <path d="M 148.0,988.0 L 209.0,1008.0 L 461.0,976.0 L 839.0,951.0 L 880.0,960.0 L 927.0,981.0"/>
  </g>
</svg>
