<svg xmlns="http://www.w3.org/2000/svg" viewBox="0 0 1024 1024">
  <g style="fill:none;stroke:#000000;stroke-width:50;stroke-linecap:round;stroke-linejoin:round;" transform="scale(1, 1) translate(0, 0)">
    <path d="M 304.0,251.0 L 331.0,285.0 L 304.0,359.0 L 281.0,404.0 L 247.0,451.0 L 182.0,513.0"/>
    <path d="M 324.0,382.0 L 399.0,374.0 L 482.0,353.0 L 525.0,353.0"/>
    <path d="M 356.0,449.0 L 424.0,485.0 L 440.0,497.0 L 454.0,520.0"/>
    <path d="M 632.0,219.0 L 662.0,252.0 L 636.0,336.0 L 602.0,400.0 L 534.0,480.0"/>
    <path d="M 654.0,363.0 L 670.0,356.0 L 738.0,354.0 L 838.0,333.0 L 883.0,336.0"/>
    <path d="M 664.0,442.0 L 744.0,484.0 L 774.0,520.0"/>
    <path d="M 126.0,717.0 L 172.0,727.0 L 446.0,676.0 L 474.0,682.0 L 489.0,698.0 L 458.0,877.0 L 439.0,935.0 L 420.0,966.0 L 393.0,988.0 L 361.0,973.0 L 319.0,940.0"/>
    <path d="M 329.0,541.0 L 357.0,572.0 L 356.0,582.0 L 337.0,688.0 L 293.0,805.0 L 255.0,868.0 L 216.0,918.0 L 166.0,973.0 L 106.0,1024.0"/>
    <path d="M 572.0,676.0 L 599.0,700.0 L 605.0,715.0 L 644.0,960.0"/>
    <path d="M 631.0,679.0 L 645.0,690.0 L 812.0,656.0 L 823.0,656.0 L 846.0,675.0 L 856.0,687.0 L 818.0,825.0 L 790.0,846.0"/>
    <path d="M 664.0,880.0 L 676.0,891.0 L 819.0,872.0 L 842.0,872.0 L 866.0,881.0"/>
  </g>
</svg>
