<svg xmlns="http://www.w3.org/2000/svg" viewBox="0 0 1024 1024">
  <g style="fill:none;stroke:#000000;stroke-width:50;stroke-linecap:round;stroke-linejoin:round;" transform="scale(1, 1) translate(0, 0)">
    <path d="M 294.0,238.0 L 319.0,271.0 L 299.0,324.0 L 247.0,405.0 L 186.0,461.0"/>
    <path d="M 316.0,350.0 L 465.0,319.0 L 500.0,321.0"/>
    <path d="M 352.0,400.0 L 400.0,441.0 L 411.0,462.0"/>
    <path d="M 592.0,196.0 L 621.0,230.0 L 602.0,288.0 L 556.0,370.0 L 486.0,444.0"/>
    <path d="M 617.0,326.0 L 631.0,320.0 L 683.0,317.0 L 794.0,288.0 L 836.0,289.0"/>
    <path d="M 637.0,373.0 L 704.0,411.0 L 730.0,447.0"/>
    <path d="M 334.0,481.0 L 350.0,500.0 L 357.0,523.0 L 332.0,575.0 L 284.0,642.0 L 237.0,688.0 L 191.0,718.0"/>
    <path d="M 356.0,592.0 L 376.0,584.0 L 472.0,574.0 L 689.0,532.0 L 727.0,537.0 L 757.0,566.0 L 729.0,863.0 L 713.0,931.0 L 686.0,993.0 L 665.0,1020.0 L 640.0,1035.0 L 536.0,957.0"/>
    <path d="M 303.0,708.0 L 328.0,730.0 L 335.0,745.0 L 368.0,914.0"/>
    <path d="M 355.0,711.0 L 369.0,720.0 L 477.0,691.0 L 515.0,695.0 L 535.0,718.0 L 512.0,793.0 L 485.0,809.0"/>
    <path d="M 383.0,870.0 L 397.0,856.0 L 458.0,843.0 L 526.0,837.0 L 551.0,844.0"/>
  </g>
</svg>
