<svg xmlns="http://www.w3.org/2000/svg" viewBox="0 0 1024 1024">
  <g style="fill:none;stroke:#000000;stroke-width:50;stroke-linecap:round;stroke-linejoin:round;" transform="scale(1, 1) translate(0, 0)">
    <path d="M 293.0,214.0 L 319.0,250.0 L 290.0,324.0 L 234.0,405.0 L 182.0,453.0"/>
    <path d="M 320.0,327.0 L 463.0,298.0 L 504.0,297.0"/>
    <path d="M 342.0,384.0 L 377.0,404.0 L 395.0,423.0"/>
    <path d="M 579.0,182.0 L 606.0,213.0 L 582.0,288.0 L 531.0,375.0 L 489.0,417.0"/>
    <path d="M 597.0,313.0 L 614.0,306.0 L 688.0,298.0 L 766.0,276.0 L 808.0,277.0"/>
    <path d="M 604.0,372.0 L 676.0,399.0 L 708.0,432.0"/>
    <path d="M 272.0,626.0 L 319.0,629.0 L 362.0,624.0 L 583.0,562.0 L 626.0,563.0"/>
    <path d="M 180.0,791.0 L 223.0,796.0 L 251.0,792.0 L 659.0,656.0 L 705.0,649.0 L 728.0,653.0"/>
    <path d="M 381.0,486.0 L 412.0,501.0 L 433.0,520.0 L 481.0,664.0 L 514.0,732.0 L 570.0,823.0 L 639.0,908.0 L 696.0,959.0 L 781.0,1010.0 L 820.0,1021.0 L 846.0,1019.0 L 861.0,933.0 L 867.0,839.0"/>
    <path d="M 691.0,737.0 L 697.0,780.0 L 631.0,851.0 L 568.0,899.0 L 487.0,943.0 L 427.0,966.0 L 371.0,981.0 L 292.0,991.0"/>
    <path d="M 571.0,451.0 L 622.0,481.0 L 635.0,496.0"/>
  </g>
</svg>
