<svg xmlns="http://www.w3.org/2000/svg" viewBox="0 0 1024 1024">
  <g style="fill:none;stroke:#000000;stroke-width:50;stroke-linecap:round;stroke-linejoin:round;" transform="scale(1, 1) translate(0, 0)">
    <path d="M 327.0,189.0 L 344.0,207.0 L 353.0,228.0 L 321.0,302.0 L 253.0,396.0 L 195.0,445.0"/>
    <path d="M 357.0,299.0 L 401.0,302.0 L 493.0,282.0 L 535.0,283.0"/>
    <path d="M 333.0,380.0 L 378.0,406.0 L 402.0,431.0"/>
    <path d="M 621.0,159.0 L 652.0,195.0 L 638.0,237.0 L 592.0,321.0 L 534.0,380.0"/>
    <path d="M 650.0,274.0 L 690.0,261.0 L 803.0,242.0 L 855.0,244.0"/>
    <path d="M 639.0,356.0 L 705.0,388.0 L 731.0,413.0"/>
    <path d="M 523.0,439.0 L 482.0,445.0 L 443.0,503.0 L 409.0,537.0 L 355.0,584.0 L 305.0,614.0"/>
    <path d="M 442.0,543.0 L 693.0,509.0 L 739.0,518.0 L 766.0,545.0 L 756.0,827.0 L 741.0,927.0 L 715.0,1009.0 L 692.0,1041.0 L 668.0,1061.0 L 565.0,998.0"/>
    <path d="M 255.0,670.0 L 273.0,687.0 L 282.0,707.0 L 279.0,901.0 L 285.0,947.0"/>
    <path d="M 291.0,672.0 L 319.0,682.0 L 452.0,655.0 L 475.0,663.0 L 486.0,675.0 L 491.0,683.0 L 490.0,856.0 L 480.0,912.0 L 489.0,984.0"/>
    <path d="M 311.0,809.0 L 319.0,797.0 L 347.0,790.0 L 384.0,784.0 L 416.0,789.0"/>
    <path d="M 308.0,924.0 L 326.0,909.0 L 396.0,897.0 L 415.0,897.0 L 427.0,909.0"/>
  </g>
</svg>
