<svg xmlns="http://www.w3.org/2000/svg" viewBox="0 0 1024 1024">
  <g style="fill:none;stroke:#000000;stroke-width:50;stroke-linecap:round;stroke-linejoin:round;" transform="scale(1, 1) translate(0, 0)">
    <path d="M 306.0,206.0 L 328.0,242.0 L 300.0,301.0 L 253.0,367.0 L 212.0,407.0 L 152.0,450.0"/>
    <path d="M 316.0,328.0 L 465.0,301.0 L 504.0,303.0"/>
    <path d="M 320.0,385.0 L 391.0,424.0 L 409.0,451.0"/>
    <path d="M 619.0,177.0 L 636.0,195.0 L 644.0,216.0 L 618.0,277.0 L 580.0,336.0 L 539.0,381.0 L 495.0,417.0"/>
    <path d="M 634.0,303.0 L 651.0,297.0 L 721.0,294.0 L 817.0,272.0 L 862.0,277.0"/>
    <path d="M 641.0,360.0 L 712.0,391.0 L 739.0,420.0"/>
    <path d="M 243.0,510.0 L 264.0,526.0 L 277.0,548.0 L 284.0,614.0 L 275.0,813.0 L 263.0,892.0 L 246.0,950.0 L 246.0,1007.0"/>
    <path d="M 303.0,521.0 L 327.0,533.0 L 675.0,477.0 L 709.0,484.0 L 743.0,515.0 L 740.0,573.0 L 752.0,825.0 L 752.0,977.0 L 737.0,1016.0 L 706.0,1013.0 L 614.0,985.0"/>
    <path d="M 393.0,627.0 L 450.0,632.0 L 565.0,607.0 L 608.0,608.0"/>
    <path d="M 368.0,739.0 L 394.0,762.0 L 399.0,775.0 L 428.0,902.0"/>
    <path d="M 422.0,744.0 L 431.0,752.0 L 547.0,729.0 L 576.0,733.0 L 595.0,755.0 L 592.0,767.0 L 573.0,812.0 L 552.0,824.0"/>
    <path d="M 448.0,877.0 L 461.0,866.0 L 547.0,851.0 L 603.0,859.0"/>
  </g>
</svg>
