<svg xmlns="http://www.w3.org/2000/svg" viewBox="0 0 1024 1024">
  <g style="fill:none;stroke:#000000;stroke-width:50;stroke-linecap:round;stroke-linejoin:round;" transform="scale(1, 1) translate(0, 0)">
    <path d="M 309.0,216.0 L 334.0,251.0 L 308.0,312.0 L 260.0,384.0 L 182.0,454.0"/>
    <path d="M 333.0,329.0 L 472.0,302.0 L 511.0,302.0"/>
    <path d="M 338.0,385.0 L 383.0,415.0 L 406.0,444.0"/>
    <path d="M 595.0,187.0 L 621.0,219.0 L 589.0,306.0 L 525.0,402.0 L 482.0,441.0"/>
    <path d="M 618.0,306.0 L 778.0,275.0 L 820.0,276.0"/>
    <path d="M 621.0,369.0 L 690.0,404.0 L 707.0,427.0"/>
    <path d="M 211.0,560.0 L 238.0,591.0 L 239.0,689.0 L 225.0,776.0 L 228.0,810.0"/>
    <path d="M 335.0,508.0 L 371.0,537.0 L 375.0,558.0 L 370.0,739.0 L 352.0,835.0 L 321.0,915.0 L 287.0,967.0 L 244.0,1014.0 L 194.0,1048.0"/>
    <path d="M 509.0,515.0 L 569.0,521.0 L 661.0,505.0 L 773.0,474.0 L 819.0,477.0"/>
    <path d="M 471.0,636.0 L 490.0,652.0 L 496.0,673.0 L 497.0,752.0 L 484.0,832.0 L 486.0,879.0"/>
    <path d="M 521.0,665.0 L 530.0,652.0 L 540.0,649.0 L 672.0,631.0 L 682.0,625.0 L 774.0,614.0 L 789.0,625.0 L 801.0,647.0 L 804.0,750.0 L 803.0,787.0 L 794.0,820.0 L 787.0,831.0 L 772.0,830.0 L 691.0,808.0"/>
    <path d="M 605.0,540.0 L 643.0,562.0 L 635.0,1094.0"/>
  </g>
</svg>
