<svg xmlns="http://www.w3.org/2000/svg" viewBox="0 0 1024 1024">
  <g style="fill:none;stroke:#000000;stroke-width:50;stroke-linecap:round;stroke-linejoin:round;" transform="scale(1, 1) translate(0, 0)">
    <path d="M 279.0,242.0 L 307.0,278.0 L 278.0,353.0 L 216.0,445.0 L 163.0,492.0"/>
    <path d="M 311.0,348.0 L 376.0,346.0 L 446.0,331.0 L 480.0,334.0"/>
    <path d="M 304.0,429.0 L 355.0,458.0 L 373.0,479.0"/>
    <path d="M 575.0,190.0 L 603.0,226.0 L 576.0,296.0 L 523.0,379.0 L 459.0,440.0"/>
    <path d="M 595.0,324.0 L 750.0,295.0 L 792.0,296.0"/>
    <path d="M 609.0,408.0 L 676.0,433.0 L 707.0,465.0"/>
    <path d="M 144.0,682.0 L 217.0,682.0 L 349.0,646.0 L 394.0,645.0"/>
    <path d="M 256.0,526.0 L 297.0,561.0 L 290.0,794.0 L 285.0,814.0 L 274.0,825.0"/>
    <path d="M 112.0,896.0 L 169.0,907.0 L 230.0,874.0 L 423.0,788.0"/>
    <path d="M 533.0,455.0 L 544.0,464.0 L 557.0,491.0 L 551.0,512.0 L 497.0,596.0 L 423.0,672.0"/>
    <path d="M 530.0,597.0 L 727.0,553.0 L 754.0,562.0 L 780.0,589.0 L 758.0,869.0 L 738.0,950.0 L 722.0,986.0 L 682.0,1025.0 L 588.0,965.0"/>
    <path d="M 489.0,696.0 L 564.0,713.0 L 597.0,739.0"/>
    <path d="M 460.0,860.0 L 512.0,869.0 L 635.0,800.0"/>
  </g>
</svg>
