<svg xmlns="http://www.w3.org/2000/svg" viewBox="0 0 1024 1024">
  <g style="fill:none;stroke:#000000;stroke-width:50;stroke-linecap:round;stroke-linejoin:round;" transform="scale(1, 1) translate(0, 0)">
    <path d="M 312.0,241.0 L 335.0,280.0 L 308.0,346.0 L 238.0,444.0 L 179.0,493.0"/>
    <path d="M 334.0,362.0 L 464.0,333.0 L 511.0,334.0"/>
    <path d="M 336.0,429.0 L 388.0,461.0 L 407.0,492.0"/>
    <path d="M 621.0,202.0 L 651.0,240.0 L 630.0,296.0 L 589.0,370.0 L 561.0,406.0 L 507.0,456.0"/>
    <path d="M 644.0,337.0 L 712.0,328.0 L 792.0,306.0 L 847.0,305.0"/>
    <path d="M 652.0,398.0 L 721.0,434.0 L 740.0,461.0"/>
    <path d="M 327.0,579.0 L 363.0,586.0 L 419.0,584.0 L 534.0,569.0 L 633.0,547.0 L 686.0,548.0"/>
    <path d="M 476.0,600.0 L 510.0,628.0 L 510.0,897.0 L 507.0,920.0 L 492.0,933.0"/>
    <path d="M 309.0,661.0 L 334.0,695.0 L 301.0,770.0 L 233.0,856.0 L 190.0,890.0"/>
    <path d="M 325.0,785.0 L 345.0,788.0 L 380.0,811.0 L 406.0,836.0 L 418.0,862.0"/>
    <path d="M 676.0,615.0 L 703.0,651.0 L 681.0,716.0 L 628.0,799.0 L 574.0,848.0"/>
    <path d="M 679.0,773.0 L 704.0,776.0 L 756.0,802.0 L 795.0,846.0"/>
    <path d="M 136.0,991.0 L 208.0,1012.0 L 345.0,981.0 L 438.0,967.0 L 563.0,956.0 L 657.0,955.0 L 810.0,959.0 L 914.0,1001.0"/>
  </g>
</svg>
