<svg xmlns="http://www.w3.org/2000/svg" viewBox="0 0 1024 1024">
  <g style="fill:none;stroke:#000000;stroke-width:50;stroke-linecap:round;stroke-linejoin:round;" transform="scale(1, 1) translate(0, 0)">
    <path d="M 300.0,235.0 L 324.0,267.0 L 306.0,315.0 L 270.0,377.0 L 202.0,446.0"/>
    <path d="M 331.0,331.0 L 394.0,321.0 L 473.0,299.0 L 512.0,299.0"/>
    <path d="M 350.0,388.0 L 400.0,422.0 L 412.0,439.0"/>
    <path d="M 576.0,193.0 L 606.0,225.0 L 595.0,264.0 L 556.0,342.0 L 509.0,397.0"/>
    <path d="M 608.0,307.0 L 774.0,261.0 L 817.0,261.0"/>
    <path d="M 618.0,351.0 L 698.0,390.0 L 718.0,415.0"/>
    <path d="M 474.0,433.0 L 547.0,490.0"/>
    <path d="M 275.0,511.0 L 283.0,543.0 L 269.0,579.0 L 234.0,638.0 L 232.0,677.0"/>
    <path d="M 307.0,562.0 L 469.0,525.0 L 666.0,493.0 L 725.0,489.0 L 760.0,501.0 L 779.0,527.0 L 712.0,607.0"/>
    <path d="M 373.0,643.0 L 396.0,649.0 L 434.0,648.0 L 562.0,618.0 L 616.0,616.0"/>
    <path d="M 260.0,780.0 L 311.0,784.0 L 446.0,753.0 L 640.0,724.0 L 689.0,724.0 L 730.0,734.0"/>
    <path d="M 394.0,791.0 L 409.0,804.0 L 417.0,826.0 L 384.0,894.0 L 355.0,933.0 L 277.0,1003.0 L 196.0,1046.0"/>
    <path d="M 521.0,768.0 L 560.0,795.0 L 552.0,908.0 L 562.0,981.0 L 585.0,1010.0 L 634.0,1029.0 L 699.0,1033.0 L 785.0,1027.0 L 841.0,1014.0 L 875.0,997.0 L 881.0,972.0 L 876.0,849.0"/>
  </g>
</svg>
