<svg xmlns="http://www.w3.org/2000/svg" viewBox="0 0 1024 1024">
  <g style="fill:none;stroke:#000000;stroke-width:50;stroke-linecap:round;stroke-linejoin:round;" transform="scale(1, 1) translate(0, 0)">
    <path d="M 300.0,215.0 L 327.0,251.0 L 300.0,321.0 L 270.0,371.0 L 199.0,445.0"/>
    <path d="M 332.0,326.0 L 385.0,325.0 L 472.0,310.0 L 504.0,312.0"/>
    <path d="M 352.0,376.0 L 400.0,417.0 L 411.0,438.0"/>
    <path d="M 593.0,181.0 L 621.0,214.0 L 596.0,290.0 L 559.0,353.0 L 502.0,417.0"/>
    <path d="M 628.0,292.0 L 700.0,285.0 L 770.0,270.0 L 817.0,273.0"/>
    <path d="M 645.0,349.0 L 716.0,382.0 L 751.0,419.0"/>
    <path d="M 720.0,471.0 L 661.0,465.0 L 593.0,516.0 L 551.0,535.0 L 542.0,545.0 L 530.0,544.0 L 521.0,555.0 L 507.0,554.0 L 503.0,562.0 L 488.0,566.0 L 481.0,563.0 L 471.0,574.0"/>
    <path d="M 591.0,542.0 L 618.0,562.0 L 617.0,757.0 L 614.0,769.0 L 601.0,781.0"/>
    <path d="M 648.0,651.0 L 664.0,637.0 L 683.0,633.0 L 753.0,623.0 L 785.0,626.0"/>
    <path d="M 466.0,638.0 L 501.0,674.0 L 490.0,831.0 L 523.0,830.0 L 620.0,809.0 L 738.0,799.0 L 789.0,809.0 L 816.0,823.0"/>
    <path d="M 164.0,529.0 L 197.0,536.0 L 223.0,533.0 L 300.0,510.0 L 325.0,518.0 L 305.0,568.0 L 260.0,632.0 L 248.0,666.0 L 249.0,682.0 L 286.0,680.0 L 297.0,671.0 L 320.0,672.0 L 337.0,677.0 L 357.0,695.0 L 318.0,815.0 L 272.0,896.0 L 214.0,954.0 L 145.0,1001.0 L 121.0,1011.0"/>
    <path d="M 153.0,786.0 L 197.0,787.0 L 251.0,803.0 L 516.0,949.0 L 685.0,1012.0 L 764.0,1012.0 L 915.0,990.0"/>
  </g>
</svg>
