<svg xmlns="http://www.w3.org/2000/svg" viewBox="0 0 1024 1024">
  <g style="fill:none;stroke:#000000;stroke-width:50;stroke-linecap:round;stroke-linejoin:round;" transform="scale(1, 1) translate(0, 0)">
    <path d="M 301.0,230.0 L 327.0,265.0 L 303.0,327.0 L 241.0,420.0 L 188.0,468.0"/>
    <path d="M 339.0,322.0 L 467.0,298.0 L 501.0,301.0"/>
    <path d="M 344.0,392.0 L 382.0,419.0 L 403.0,445.0"/>
    <path d="M 597.0,201.0 L 626.0,233.0 L 607.0,293.0 L 562.0,370.0 L 517.0,417.0"/>
    <path d="M 626.0,315.0 L 647.0,304.0 L 694.0,300.0 L 778.0,279.0 L 820.0,280.0"/>
    <path d="M 617.0,381.0 L 682.0,414.0 L 711.0,450.0"/>
    <path d="M 461.0,433.0 L 471.0,443.0 L 484.0,477.0 L 446.0,534.0 L 388.0,601.0 L 310.0,675.0 L 233.0,731.0 L 148.0,779.0 L 101.0,794.0 L 97.0,800.0"/>
    <path d="M 528.0,509.0 L 534.0,506.0 L 674.0,618.0 L 790.0,685.0 L 839.0,696.0 L 952.0,703.0"/>
    <path d="M 365.0,686.0 L 429.0,692.0 L 574.0,660.0 L 621.0,661.0"/>
    <path d="M 287.0,814.0 L 352.0,864.0 L 376.0,909.0"/>
    <path d="M 424.0,767.0 L 469.0,819.0 L 483.0,846.0"/>
    <path d="M 619.0,733.0 L 633.0,744.0 L 644.0,778.0 L 567.0,910.0 L 552.0,932.0 L 531.0,946.0"/>
    <path d="M 223.0,991.0 L 281.0,1001.0 L 428.0,980.0 L 703.0,957.0 L 759.0,963.0 L 802.0,978.0"/>
  </g>
</svg>
