<svg xmlns="http://www.w3.org/2000/svg" viewBox="0 0 1024 1024">
  <g style="fill:none;stroke:#000000;stroke-width:50;stroke-linecap:round;stroke-linejoin:round;" transform="scale(1, 1) translate(0, 0)">
    <path d="M 284.0,205.0 L 311.0,239.0 L 284.0,307.0 L 229.0,387.0 L 179.0,433.0"/>
    <path d="M 320.0,305.0 L 447.0,287.0 L 492.0,288.0"/>
    <path d="M 331.0,363.0 L 385.0,396.0 L 399.0,412.0"/>
    <path d="M 569.0,186.0 L 596.0,221.0 L 581.0,261.0 L 547.0,322.0 L 482.0,390.0"/>
    <path d="M 600.0,289.0 L 617.0,282.0 L 683.0,278.0 L 747.0,261.0 L 805.0,261.0"/>
    <path d="M 618.0,345.0 L 691.0,377.0 L 712.0,405.0"/>
    <path d="M 312.0,470.0 L 357.0,478.0 L 600.0,441.0 L 632.0,440.0 L 662.0,447.0"/>
    <path d="M 254.0,574.0 L 282.0,596.0 L 290.0,612.0 L 327.0,773.0"/>
    <path d="M 310.0,577.0 L 330.0,588.0 L 604.0,543.0 L 648.0,540.0 L 679.0,547.0 L 705.0,582.0 L 651.0,741.0"/>
    <path d="M 380.0,665.0 L 546.0,639.0 L 594.0,644.0"/>
    <path d="M 343.0,759.0 L 365.0,750.0 L 451.0,746.0 L 532.0,731.0 L 609.0,725.0 L 633.0,716.0"/>
    <path d="M 444.0,492.0 L 496.0,513.0 L 499.0,527.0 L 490.0,758.0 L 477.0,826.0 L 454.0,880.0 L 412.0,930.0 L 342.0,972.0 L 257.0,1007.0 L 168.0,1027.0"/>
    <path d="M 264.0,810.0 L 302.0,813.0 L 348.0,833.0 L 509.0,952.0 L 579.0,995.0 L 668.0,1038.0 L 699.0,1047.0 L 747.0,1050.0 L 886.0,1044.0"/>
  </g>
</svg>
