<svg xmlns="http://www.w3.org/2000/svg" viewBox="0 0 1024 1024">
  <g style="fill:none;stroke:#000000;stroke-width:50;stroke-linecap:round;stroke-linejoin:round;" transform="scale(1, 1) translate(0, 0)">
    <path d="M 307.0,215.0 L 333.0,248.0 L 310.0,311.0 L 284.0,361.0 L 249.0,408.0 L 198.0,456.0"/>
    <path d="M 326.0,341.0 L 380.0,339.0 L 482.0,316.0 L 512.0,317.0"/>
    <path d="M 375.0,407.0 L 408.0,431.0 L 423.0,453.0"/>
    <path d="M 591.0,187.0 L 620.0,216.0 L 604.0,277.0 L 575.0,342.0 L 545.0,387.0 L 512.0,421.0"/>
    <path d="M 616.0,321.0 L 628.0,315.0 L 684.0,313.0 L 782.0,288.0 L 824.0,288.0"/>
    <path d="M 633.0,377.0 L 701.0,409.0 L 735.0,447.0"/>
    <path d="M 179.0,647.0 L 222.0,650.0 L 306.0,634.0 L 370.0,613.0 L 412.0,613.0"/>
    <path d="M 292.0,469.0 L 314.0,482.0 L 333.0,507.0 L 323.0,722.0 L 323.0,972.0 L 305.0,1008.0 L 205.0,965.0"/>
    <path d="M 112.0,870.0 L 157.0,875.0 L 404.0,719.0"/>
    <path d="M 523.0,545.0 L 539.0,552.0 L 587.0,551.0 L 769.0,511.0 L 812.0,512.0"/>
    <path d="M 565.0,677.0 L 582.0,694.0 L 588.0,710.0 L 591.0,774.0 L 580.0,843.0 L 585.0,876.0"/>
    <path d="M 606.0,681.0 L 617.0,689.0 L 780.0,657.0 L 804.0,661.0 L 818.0,676.0 L 819.0,686.0 L 821.0,775.0 L 815.0,829.0 L 806.0,846.0 L 773.0,834.0 L 747.0,816.0"/>
    <path d="M 663.0,565.0 L 680.0,574.0 L 697.0,602.0 L 691.0,950.0"/>
    <path d="M 461.0,521.0 L 489.0,551.0 L 495.0,577.0 L 497.0,789.0 L 486.0,1003.0 L 527.0,1004.0 L 667.0,975.0 L 836.0,958.0 L 880.0,955.0 L 918.0,968.0"/>
  </g>
</svg>
