<svg xmlns="http://www.w3.org/2000/svg" viewBox="0 0 1024 1024">
  <g style="fill:none;stroke:#000000;stroke-width:50;stroke-linecap:round;stroke-linejoin:round;" transform="scale(1, 1) translate(0, 0)">
    <path d="M 298.0,209.0 L 324.0,242.0 L 302.0,296.0 L 262.0,362.0 L 198.0,422.0"/>
    <path d="M 336.0,300.0 L 348.0,293.0 L 377.0,294.0 L 459.0,275.0 L 493.0,277.0"/>
    <path d="M 362.0,351.0 L 424.0,399.0"/>
    <path d="M 581.0,175.0 L 605.0,208.0 L 596.0,234.0 L 549.0,318.0 L 507.0,360.0"/>
    <path d="M 615.0,261.0 L 696.0,250.0 L 763.0,233.0 L 816.0,232.0"/>
    <path d="M 632.0,317.0 L 699.0,351.0 L 723.0,382.0"/>
    <path d="M 252.0,534.0 L 292.0,542.0 L 357.0,536.0 L 670.0,484.0 L 704.0,483.0 L 738.0,491.0"/>
    <path d="M 346.0,442.0 L 386.0,487.0 L 397.0,786.0 L 383.0,799.0"/>
    <path d="M 583.0,385.0 L 626.0,425.0 L 610.0,739.0 L 604.0,769.0 L 591.0,779.0"/>
    <path d="M 420.0,638.0 L 429.0,628.0 L 493.0,612.0 L 552.0,612.0"/>
    <path d="M 418.0,730.0 L 430.0,719.0 L 498.0,704.0 L 552.0,704.0"/>
    <path d="M 119.0,847.0 L 173.0,857.0 L 342.0,832.0 L 826.0,787.0 L 862.0,791.0 L 913.0,808.0"/>
    <path d="M 423.0,925.0 L 387.0,928.0 L 313.0,999.0 L 249.0,1040.0 L 208.0,1056.0"/>
    <path d="M 594.0,885.0 L 671.0,943.0 L 716.0,986.0 L 730.0,1009.0 L 741.0,1047.0"/>
  </g>
</svg>
