<svg xmlns="http://www.w3.org/2000/svg" viewBox="0 0 1024 1024">
  <g style="fill:none;stroke:#000000;stroke-width:50;stroke-linecap:round;stroke-linejoin:round;" transform="scale(1, 1) translate(0, 0)">
    <path d="M 292.0,239.0 L 316.0,273.0 L 293.0,332.0 L 256.0,390.0 L 198.0,446.0"/>
    <path d="M 331.0,323.0 L 339.0,318.0 L 408.0,314.0 L 458.0,300.0 L 500.0,301.0"/>
    <path d="M 337.0,383.0 L 375.0,410.0 L 395.0,433.0"/>
    <path d="M 581.0,197.0 L 597.0,211.0 L 609.0,233.0 L 596.0,275.0 L 552.0,356.0 L 513.0,397.0"/>
    <path d="M 611.0,311.0 L 691.0,302.0 L 774.0,280.0 L 816.0,281.0"/>
    <path d="M 617.0,373.0 L 683.0,404.0 L 715.0,439.0"/>
    <path d="M 447.0,437.0 L 506.0,469.0 L 532.0,499.0"/>
    <path d="M 251.0,519.0 L 259.0,539.0 L 254.0,571.0 L 209.0,644.0 L 206.0,686.0"/>
    <path d="M 282.0,545.0 L 301.0,555.0 L 339.0,554.0 L 465.0,528.0 L 701.0,499.0 L 743.0,512.0 L 762.0,539.0 L 709.0,609.0 L 699.0,612.0"/>
    <path d="M 381.0,610.0 L 397.0,647.0 L 334.0,715.0 L 287.0,748.0"/>
    <path d="M 557.0,602.0 L 638.0,649.0 L 661.0,684.0"/>
    <path d="M 348.0,781.0 L 406.0,791.0 L 600.0,758.0 L 663.0,757.0"/>
    <path d="M 482.0,809.0 L 508.0,839.0 L 503.0,929.0 L 486.0,941.0"/>
    <path d="M 207.0,986.0 L 262.0,999.0 L 444.0,977.0 L 762.0,956.0 L 848.0,980.0"/>
  </g>
</svg>
