<svg xmlns="http://www.w3.org/2000/svg" viewBox="0 0 1024 1024">
  <g style="fill:none;stroke:#000000;stroke-width:50;stroke-linecap:round;stroke-linejoin:round;" transform="scale(1, 1) translate(0, 0)">
    <path d="M 303.0,220.0 L 329.0,256.0 L 305.0,312.0 L 250.0,391.0 L 186.0,446.0"/>
    <path d="M 332.0,329.0 L 459.0,311.0 L 504.0,312.0"/>
    <path d="M 358.0,388.0 L 409.0,421.0 L 421.0,437.0"/>
    <path d="M 591.0,190.0 L 618.0,221.0 L 599.0,284.0 L 555.0,368.0 L 501.0,425.0"/>
    <path d="M 617.0,317.0 L 630.0,310.0 L 704.0,304.0 L 768.0,286.0 L 823.0,285.0"/>
    <path d="M 640.0,365.0 L 702.0,396.0 L 719.0,422.0"/>
    <path d="M 164.0,614.0 L 212.0,618.0 L 389.0,574.0 L 435.0,574.0"/>
    <path d="M 292.0,446.0 L 332.0,481.0 L 327.0,707.0 L 332.0,918.0 L 315.0,958.0 L 193.0,913.0"/>
    <path d="M 108.0,824.0 L 125.0,831.0 L 153.0,828.0 L 412.0,670.0"/>
    <path d="M 486.0,499.0 L 546.0,502.0 L 661.0,477.0 L 683.0,482.0 L 694.0,495.0 L 645.0,584.0 L 586.0,654.0 L 543.0,688.0 L 487.0,719.0 L 416.0,738.0"/>
    <path d="M 478.0,553.0 L 526.0,566.0 L 659.0,661.0 L 771.0,715.0 L 794.0,722.0 L 826.0,722.0 L 948.0,714.0"/>
    <path d="M 488.0,805.0 L 540.0,809.0 L 673.0,779.0 L 712.0,779.0"/>
    <path d="M 432.0,908.0 L 484.0,915.0 L 744.0,879.0 L 813.0,894.0"/>
    <path d="M 573.0,702.0 L 592.0,712.0 L 611.0,738.0 L 611.0,1079.0"/>
  </g>
</svg>
