<svg xmlns="http://www.w3.org/2000/svg" viewBox="0 0 1024 1024">
  <g style="fill:none;stroke:#000000;stroke-width:50;stroke-linecap:round;stroke-linejoin:round;" transform="scale(1, 1) translate(0, 0)">
    <path d="M 295.0,205.0 L 318.0,239.0 L 286.0,310.0 L 223.0,392.0 L 167.0,438.0"/>
    <path d="M 315.0,309.0 L 413.0,297.0 L 466.0,280.0 L 510.0,281.0"/>
    <path d="M 333.0,371.0 L 386.0,406.0 L 394.0,419.0"/>
    <path d="M 581.0,184.0 L 609.0,216.0 L 588.0,277.0 L 553.0,338.0 L 497.0,397.0"/>
    <path d="M 616.0,292.0 L 629.0,285.0 L 686.0,281.0 L 772.0,256.0 L 830.0,253.0"/>
    <path d="M 633.0,341.0 L 686.0,364.0 L 708.0,392.0"/>
    <path d="M 295.0,497.0 L 323.0,511.0 L 674.0,460.0 L 707.0,459.0 L 738.0,467.0"/>
    <path d="M 385.0,609.0 L 405.0,614.0 L 466.0,612.0 L 618.0,577.0 L 662.0,579.0"/>
    <path d="M 366.0,670.0 L 419.0,699.0 L 435.0,723.0"/>
    <path d="M 647.0,625.0 L 658.0,643.0 L 656.0,653.0 L 588.0,712.0"/>
    <path d="M 291.0,789.0 L 332.0,800.0 L 444.0,779.0 L 716.0,751.0 L 793.0,768.0"/>
    <path d="M 465.0,514.0 L 506.0,531.0 L 517.0,552.0 L 513.0,702.0 L 499.0,798.0 L 480.0,849.0 L 450.0,889.0 L 375.0,945.0 L 334.0,958.0"/>
    <path d="M 529.0,797.0 L 644.0,890.0 L 668.0,920.0 L 677.0,943.0"/>
    <path d="M 227.0,489.0 L 245.0,497.0 L 261.0,515.0 L 267.0,538.0 L 264.0,815.0 L 246.0,1020.0 L 301.0,1028.0 L 429.0,1012.0 L 747.0,1002.0 L 788.0,1006.0 L 843.0,1027.0"/>
  </g>
</svg>
