<svg xmlns="http://www.w3.org/2000/svg" viewBox="0 0 1024 1024">
  <g style="fill:none;stroke:#000000;stroke-width:50;stroke-linecap:round;stroke-linejoin:round;" transform="scale(1, 1) translate(0, 0)">
    <path d="M 315.0,223.0 L 343.0,254.0 L 327.0,295.0 L 277.0,380.0 L 229.0,433.0 L 200.0,451.0 L 199.0,458.0"/>
    <path d="M 351.0,325.0 L 466.0,300.0 L 508.0,301.0"/>
    <path d="M 345.0,386.0 L 400.0,414.0 L 422.0,444.0"/>
    <path d="M 605.0,190.0 L 632.0,224.0 L 614.0,273.0 L 578.0,333.0 L 522.0,390.0"/>
    <path d="M 642.0,289.0 L 655.0,282.0 L 696.0,282.0 L 783.0,264.0 L 829.0,265.0"/>
    <path d="M 621.0,356.0 L 672.0,387.0 L 701.0,420.0"/>
    <path d="M 346.0,571.0 L 357.0,580.0 L 426.0,574.0 L 642.0,525.0 L 703.0,521.0"/>
    <path d="M 266.0,540.0 L 286.0,553.0 L 305.0,588.0 L 294.0,692.0 L 260.0,835.0 L 222.0,914.0 L 180.0,969.0 L 101.0,1031.0 L 79.0,1039.0"/>
    <path d="M 355.0,686.0 L 405.0,688.0 L 475.0,669.0 L 521.0,666.0"/>
    <path d="M 316.0,783.0 L 346.0,815.0 L 376.0,958.0"/>
    <path d="M 371.0,789.0 L 380.0,795.0 L 481.0,767.0 L 496.0,771.0 L 520.0,793.0 L 519.0,800.0 L 504.0,853.0 L 479.0,871.0"/>
    <path d="M 392.0,926.0 L 403.0,915.0 L 475.0,897.0 L 531.0,899.0"/>
    <path d="M 495.0,447.0 L 530.0,456.0 L 559.0,477.0 L 592.0,616.0 L 655.0,783.0 L 709.0,881.0 L 781.0,967.0 L 838.0,1008.0 L 882.0,1017.0 L 903.0,949.0 L 912.0,858.0"/>
    <path d="M 757.0,636.0 L 779.0,671.0 L 757.0,733.0 L 723.0,798.0 L 664.0,873.0 L 600.0,925.0 L 536.0,964.0"/>
    <path d="M 741.0,451.0 L 811.0,492.0 L 841.0,529.0"/>
  </g>
</svg>
