<svg xmlns="http://www.w3.org/2000/svg" viewBox="0 0 1024 1024">
  <g style="fill:none;stroke:#000000;stroke-width:50;stroke-linecap:round;stroke-linejoin:round;" transform="scale(1, 1) translate(0, 0)">
    <path d="M 315.0,205.0 L 338.0,239.0 L 313.0,296.0 L 263.0,366.0 L 198.0,422.0"/>
    <path d="M 336.0,311.0 L 458.0,287.0 L 505.0,286.0"/>
    <path d="M 349.0,373.0 L 413.0,410.0 L 426.0,432.0"/>
    <path d="M 585.0,186.0 L 615.0,219.0 L 608.0,246.0 L 572.0,332.0 L 513.0,405.0"/>
    <path d="M 622.0,297.0 L 688.0,289.0 L 786.0,264.0 L 828.0,264.0"/>
    <path d="M 633.0,356.0 L 703.0,379.0 L 730.0,404.0"/>
    <path d="M 227.0,560.0 L 255.0,566.0 L 309.0,564.0 L 440.0,541.0 L 660.0,514.0 L 735.0,512.0 L 779.0,526.0"/>
    <path d="M 348.0,473.0 L 384.0,499.0 L 405.0,638.0"/>
    <path d="M 593.0,419.0 L 606.0,426.0 L 624.0,456.0 L 597.0,544.0 L 563.0,621.0"/>
    <path d="M 154.0,751.0 L 205.0,761.0 L 527.0,717.0 L 761.0,697.0 L 805.0,698.0 L 867.0,715.0"/>
    <path d="M 450.0,617.0 L 472.0,653.0 L 444.0,708.0 L 407.0,761.0 L 273.0,909.0 L 217.0,951.0 L 159.0,984.0"/>
    <path d="M 387.0,838.0 L 379.0,872.0 L 409.0,1037.0"/>
    <path d="M 403.0,834.0 L 415.0,844.0 L 522.0,828.0 L 605.0,808.0 L 643.0,814.0 L 670.0,841.0 L 640.0,929.0 L 614.0,947.0"/>
    <path d="M 428.0,1009.0 L 443.0,996.0 L 602.0,976.0 L 651.0,974.0 L 679.0,984.0"/>
  </g>
</svg>
