<svg xmlns="http://www.w3.org/2000/svg" viewBox="0 0 1024 1024">
  <g style="fill:none;stroke:#000000;stroke-width:50;stroke-linecap:round;stroke-linejoin:round;" transform="scale(1, 1) translate(0, 0)">
    <path d="M 305.0,186.0 L 330.0,221.0 L 294.0,304.0 L 226.0,394.0 L 183.0,429.0"/>
    <path d="M 338.0,284.0 L 481.0,262.0 L 512.0,264.0"/>
    <path d="M 333.0,341.0 L 389.0,373.0 L 403.0,397.0"/>
    <path d="M 601.0,159.0 L 620.0,176.0 L 631.0,197.0 L 619.0,235.0 L 573.0,323.0 L 544.0,359.0 L 509.0,389.0"/>
    <path d="M 647.0,252.0 L 749.0,240.0 L 808.0,225.0 L 865.0,225.0"/>
    <path d="M 644.0,320.0 L 708.0,359.0 L 729.0,386.0"/>
    <path d="M 220.0,545.0 L 250.0,548.0 L 299.0,542.0 L 416.0,506.0 L 466.0,503.0"/>
    <path d="M 172.0,637.0 L 198.0,657.0 L 207.0,673.0 L 248.0,811.0"/>
    <path d="M 229.0,658.0 L 236.0,644.0 L 247.0,639.0 L 336.0,617.0 L 419.0,598.0 L 470.0,600.0 L 495.0,632.0 L 446.0,773.0"/>
    <path d="M 272.0,709.0 L 376.0,685.0 L 409.0,689.0"/>
    <path d="M 264.0,794.0 L 279.0,782.0 L 425.0,747.0"/>
    <path d="M 80.0,921.0 L 111.0,929.0 L 150.0,926.0 L 437.0,851.0 L 487.0,853.0"/>
    <path d="M 305.0,412.0 L 350.0,459.0 L 346.0,902.0 L 335.0,1010.0 L 337.0,1090.0"/>
    <path d="M 620.0,530.0 L 635.0,542.0 L 761.0,513.0 L 785.0,520.0 L 794.0,533.0 L 777.0,665.0 L 751.0,721.0 L 730.0,741.0 L 664.0,702.0"/>
    <path d="M 568.0,527.0 L 590.0,551.0 L 597.0,572.0 L 586.0,739.0 L 590.0,850.0 L 601.0,898.0 L 635.0,951.0 L 686.0,979.0 L 751.0,994.0 L 798.0,995.0 L 879.0,980.0 L 908.0,964.0 L 931.0,941.0 L 932.0,813.0"/>
  </g>
</svg>
