<svg xmlns="http://www.w3.org/2000/svg" viewBox="0 0 1024 1024">
  <g style="fill:none;stroke:#000000;stroke-width:50;stroke-linecap:round;stroke-linejoin:round;" transform="scale(1, 1) translate(0, 0)">
    <path d="M 301.0,208.0 L 325.0,244.0 L 300.0,302.0 L 253.0,371.0 L 220.0,407.0 L 178.0,438.0"/>
    <path d="M 332.0,307.0 L 343.0,301.0 L 383.0,302.0 L 468.0,284.0 L 499.0,287.0"/>
    <path d="M 350.0,368.0 L 384.0,388.0 L 411.0,414.0"/>
    <path d="M 577.0,178.0 L 600.0,210.0 L 575.0,272.0 L 537.0,330.0 L 478.0,386.0"/>
    <path d="M 614.0,261.0 L 627.0,256.0 L 684.0,256.0 L 776.0,238.0 L 809.0,240.0"/>
    <path d="M 631.0,323.0 L 682.0,353.0 L 695.0,368.0"/>
    <path d="M 243.0,506.0 L 291.0,509.0 L 394.0,483.0 L 430.0,482.0"/>
    <path d="M 324.0,521.0 L 347.0,550.0 L 346.0,600.0 L 329.0,613.0"/>
    <path d="M 184.0,672.0 L 235.0,683.0 L 406.0,619.0 L 461.0,590.0"/>
    <path d="M 515.0,442.0 L 535.0,463.0 L 535.0,515.0 L 516.0,596.0 L 486.0,641.0"/>
    <path d="M 562.0,466.0 L 567.0,457.0 L 640.0,433.0 L 668.0,428.0 L 685.0,441.0 L 687.0,455.0 L 668.0,530.0 L 669.0,588.0 L 686.0,620.0 L 713.0,632.0 L 778.0,636.0 L 823.0,619.0 L 833.0,534.0"/>
    <path d="M 557.0,542.0 L 561.0,551.0 L 588.0,561.0 L 609.0,578.0"/>
    <path d="M 126.0,795.0 L 177.0,805.0 L 387.0,774.0 L 765.0,739.0 L 846.0,758.0"/>
    <path d="M 463.0,669.0 L 493.0,708.0 L 479.0,1013.0 L 491.0,1105.0"/>
    <path d="M 456.0,791.0 L 395.0,867.0 L 339.0,920.0 L 255.0,978.0 L 191.0,1011.0 L 150.0,1024.0"/>
    <path d="M 521.0,785.0 L 532.0,804.0 L 588.0,854.0 L 728.0,962.0 L 797.0,979.0 L 927.0,992.0"/>
  </g>
</svg>
