<svg xmlns="http://www.w3.org/2000/svg" viewBox="0 0 1024 1024">
  <g style="fill:none;stroke:#000000;stroke-width:50;stroke-linecap:round;stroke-linejoin:round;" transform="scale(1, 1) translate(0, 0)">
    <path d="M 302.0,190.0 L 327.0,223.0 L 298.0,297.0 L 238.0,384.0 L 182.0,433.0"/>
    <path d="M 333.0,292.0 L 467.0,270.0 L 501.0,273.0"/>
    <path d="M 323.0,361.0 L 364.0,387.0 L 377.0,406.0"/>
    <path d="M 593.0,163.0 L 610.0,178.0 L 620.0,199.0 L 610.0,230.0 L 566.0,310.0 L 514.0,365.0"/>
    <path d="M 626.0,268.0 L 690.0,260.0 L 763.0,241.0 L 808.0,241.0"/>
    <path d="M 613.0,334.0 L 680.0,378.0 L 695.0,404.0"/>
    <path d="M 439.0,396.0 L 457.0,424.0 L 403.0,495.0 L 389.0,499.0"/>
    <path d="M 262.0,528.0 L 298.0,554.0 L 362.0,718.0"/>
    <path d="M 318.0,527.0 L 342.0,536.0 L 425.0,517.0 L 609.0,489.0 L 651.0,487.0 L 676.0,494.0 L 702.0,534.0 L 627.0,686.0"/>
    <path d="M 351.0,609.0 L 362.0,614.0 L 407.0,609.0 L 528.0,586.0 L 571.0,592.0"/>
    <path d="M 377.0,701.0 L 392.0,692.0 L 592.0,667.0 L 607.0,660.0"/>
    <path d="M 315.0,780.0 L 341.0,788.0 L 394.0,789.0 L 509.0,778.0 L 615.0,757.0 L 655.0,755.0 L 677.0,761.0"/>
    <path d="M 341.0,901.0 L 378.0,903.0 L 593.0,873.0 L 645.0,882.0"/>
    <path d="M 456.0,806.0 L 488.0,832.0 L 491.0,847.0 L 486.0,959.0 L 466.0,979.0"/>
    <path d="M 139.0,1022.0 L 163.0,1031.0 L 212.0,1033.0 L 395.0,1010.0 L 794.0,985.0 L 835.0,991.0 L 885.0,1008.0"/>
  </g>
</svg>
