<svg xmlns="http://www.w3.org/2000/svg" viewBox="0 0 1024 1024">
  <g style="fill:none;stroke:#000000;stroke-width:50;stroke-linecap:round;stroke-linejoin:round;" transform="scale(1, 1) translate(0, 0)">
    <path d="M 309.0,213.0 L 325.0,230.0 L 333.0,250.0 L 303.0,321.0 L 251.0,394.0 L 183.0,454.0"/>
    <path d="M 334.0,317.0 L 465.0,295.0 L 504.0,296.0"/>
    <path d="M 353.0,376.0 L 397.0,410.0 L 408.0,426.0"/>
    <path d="M 583.0,180.0 L 609.0,213.0 L 595.0,256.0 L 577.0,296.0 L 545.0,343.0 L 502.0,385.0"/>
    <path d="M 608.0,295.0 L 623.0,288.0 L 701.0,277.0 L 775.0,255.0 L 828.0,253.0"/>
    <path d="M 625.0,357.0 L 708.0,395.0 L 736.0,428.0"/>
    <path d="M 460.0,413.0 L 519.0,442.0 L 542.0,472.0"/>
    <path d="M 359.0,529.0 L 374.0,541.0 L 607.0,497.0 L 639.0,497.0 L 673.0,529.0 L 647.0,581.0 L 621.0,599.0"/>
    <path d="M 339.0,654.0 L 371.0,657.0 L 619.0,623.0 L 656.0,623.0 L 678.0,632.0"/>
    <path d="M 298.0,508.0 L 323.0,541.0 L 326.0,560.0 L 290.0,701.0 L 263.0,778.0 L 234.0,841.0 L 179.0,927.0 L 126.0,986.0 L 86.0,1020.0"/>
    <path d="M 305.0,753.0 L 322.0,783.0 L 328.0,818.0 L 314.0,1019.0"/>
    <path d="M 343.0,759.0 L 365.0,770.0 L 520.0,735.0 L 713.0,714.0 L 754.0,716.0 L 786.0,749.0 L 775.0,805.0 L 772.0,943.0 L 758.0,1003.0 L 752.0,1012.0 L 738.0,1010.0 L 644.0,971.0"/>
    <path d="M 381.0,885.0 L 417.0,887.0 L 638.0,853.0 L 669.0,853.0 L 690.0,860.0"/>
    <path d="M 433.0,770.0 L 460.0,791.0 L 466.0,982.0"/>
    <path d="M 565.0,749.0 L 592.0,774.0 L 583.0,1005.0"/>
  </g>
</svg>
