<svg xmlns="http://www.w3.org/2000/svg" viewBox="0 0 1024 1024">
  <g style="fill:none;stroke:#000000;stroke-width:50;stroke-linecap:round;stroke-linejoin:round;" transform="scale(1, 1) translate(0, 0)">
    <path d="M 303.0,212.0 L 326.0,247.0 L 299.0,308.0 L 255.0,370.0 L 221.0,406.0 L 186.0,431.0"/>
    <path d="M 328.0,311.0 L 467.0,285.0 L 496.0,287.0"/>
    <path d="M 331.0,361.0 L 361.0,386.0 L 374.0,407.0"/>
    <path d="M 586.0,182.0 L 607.0,208.0 L 590.0,262.0 L 559.0,320.0 L 508.0,374.0"/>
    <path d="M 606.0,285.0 L 621.0,278.0 L 684.0,275.0 L 762.0,255.0 L 804.0,256.0"/>
    <path d="M 619.0,342.0 L 682.0,370.0 L 711.0,403.0"/>
    <path d="M 430.0,362.0 L 445.0,399.0 L 380.0,489.0 L 376.0,511.0 L 414.0,516.0 L 494.0,507.0 L 529.0,509.0 L 541.0,498.0"/>
    <path d="M 460.0,436.0 L 572.0,419.0 L 604.0,432.0 L 556.0,525.0 L 522.0,568.0"/>
    <path d="M 134.0,627.0 L 192.0,636.0 L 368.0,606.0 L 778.0,564.0 L 816.0,566.0 L 871.0,582.0"/>
    <path d="M 426.0,623.0 L 439.0,647.0 L 399.0,679.0 L 329.0,719.0 L 249.0,750.0"/>
    <path d="M 444.0,684.0 L 462.0,687.0 L 484.0,705.0 L 529.0,762.0 L 550.0,812.0 L 556.0,843.0 L 553.0,916.0 L 532.0,993.0 L 505.0,1025.0 L 397.0,975.0"/>
    <path d="M 482.0,734.0 L 452.0,733.0 L 404.0,776.0 L 332.0,824.0 L 272.0,854.0 L 233.0,866.0"/>
    <path d="M 505.0,769.0 L 501.0,804.0 L 490.0,824.0 L 405.0,898.0 L 314.0,955.0 L 225.0,991.0"/>
    <path d="M 721.0,685.0 L 685.0,671.0 L 569.0,757.0 L 560.0,752.0"/>
    <path d="M 560.0,770.0 L 587.0,806.0 L 621.0,835.0 L 753.0,926.0 L 806.0,938.0 L 936.0,945.0"/>
  </g>
</svg>
