<svg xmlns="http://www.w3.org/2000/svg" viewBox="0 0 1024 1024">
  <g style="fill:none;stroke:#000000;stroke-width:50;stroke-linecap:round;stroke-linejoin:round;" transform="scale(1, 1) translate(0, 0)">
    <path d="M 344.0,200.0 L 364.0,242.0 L 333.0,295.0 L 278.0,362.0 L 244.0,392.0 L 196.0,422.0"/>
    <path d="M 345.0,324.0 L 501.0,295.0 L 531.0,299.0"/>
    <path d="M 346.0,368.0 L 395.0,389.0 L 416.0,412.0"/>
    <path d="M 630.0,174.0 L 656.0,204.0 L 649.0,240.0 L 608.0,320.0 L 566.0,372.0 L 535.0,397.0"/>
    <path d="M 649.0,302.0 L 672.0,292.0 L 801.0,272.0 L 845.0,277.0"/>
    <path d="M 681.0,350.0 L 732.0,378.0 L 751.0,410.0"/>
    <path d="M 324.0,463.0 L 355.0,485.0 L 391.0,606.0"/>
    <path d="M 385.0,488.0 L 400.0,475.0 L 642.0,437.0 L 660.0,445.0 L 679.0,473.0 L 654.0,512.0 L 615.0,534.0"/>
    <path d="M 407.0,571.0 L 417.0,581.0 L 429.0,581.0 L 614.0,559.0 L 664.0,559.0 L 684.0,568.0"/>
    <path d="M 325.0,636.0 L 353.0,666.0 L 358.0,686.0 L 365.0,784.0 L 362.0,865.0 L 372.0,931.0"/>
    <path d="M 388.0,654.0 L 401.0,666.0 L 411.0,665.0 L 643.0,623.0 L 656.0,624.0 L 678.0,638.0 L 700.0,667.0 L 690.0,846.0 L 679.0,928.0"/>
    <path d="M 394.0,744.0 L 405.0,734.0 L 449.0,725.0 L 557.0,710.0 L 587.0,716.0"/>
    <path d="M 393.0,829.0 L 406.0,818.0 L 506.0,803.0 L 565.0,797.0 L 587.0,805.0"/>
    <path d="M 396.0,911.0 L 415.0,895.0 L 612.0,873.0 L 626.0,874.0 L 641.0,893.0"/>
    <path d="M 470.0,979.0 L 417.0,979.0 L 346.0,1032.0 L 280.0,1065.0 L 241.0,1077.0"/>
    <path d="M 603.0,958.0 L 730.0,1029.0 L 753.0,1051.0 L 777.0,1092.0"/>
  </g>
</svg>
