<svg xmlns="http://www.w3.org/2000/svg" viewBox="0 0 1024 1024">
  <g style="fill:none;stroke:#000000;stroke-width:50;stroke-linecap:round;stroke-linejoin:round;" transform="scale(1, 1) translate(0, 0)">
    <path d="M 318.0,178.0 L 342.0,214.0 L 317.0,275.0 L 296.0,315.0 L 250.0,377.0 L 194.0,425.0"/>
    <path d="M 353.0,271.0 L 404.0,271.0 L 497.0,253.0 L 535.0,255.0"/>
    <path d="M 349.0,333.0 L 413.0,370.0 L 426.0,392.0"/>
    <path d="M 609.0,155.0 L 633.0,186.0 L 612.0,247.0 L 596.0,282.0 L 552.0,343.0 L 508.0,382.0"/>
    <path d="M 643.0,248.0 L 809.0,222.0 L 850.0,224.0"/>
    <path d="M 660.0,305.0 L 712.0,337.0 L 731.0,368.0"/>
    <path d="M 357.0,462.0 L 367.0,471.0 L 429.0,468.0 L 539.0,450.0 L 641.0,424.0 L 691.0,422.0"/>
    <path d="M 293.0,451.0 L 312.0,464.0 L 326.0,484.0 L 324.0,709.0 L 305.0,759.0 L 319.0,783.0"/>
    <path d="M 415.0,556.0 L 437.0,561.0 L 478.0,557.0 L 562.0,540.0 L 620.0,520.0 L 654.0,521.0"/>
    <path d="M 412.0,643.0 L 439.0,648.0 L 489.0,645.0 L 630.0,612.0 L 663.0,614.0"/>
    <path d="M 495.0,481.0 L 526.0,507.0 L 525.0,687.0 L 509.0,709.0"/>
    <path d="M 335.0,786.0 L 361.0,758.0 L 468.0,737.0 L 750.0,711.0 L 812.0,718.0 L 845.0,748.0 L 815.0,916.0 L 790.0,1000.0 L 772.0,1025.0 L 744.0,1043.0 L 658.0,982.0"/>
    <path d="M 220.0,841.0 L 210.0,922.0 L 187.0,1004.0"/>
    <path d="M 329.0,844.0 L 358.0,906.0 L 359.0,928.0"/>
    <path d="M 450.0,824.0 L 492.0,876.0 L 499.0,898.0"/>
    <path d="M 583.0,806.0 L 647.0,857.0 L 663.0,890.0"/>
  </g>
</svg>
