<svg xmlns="http://www.w3.org/2000/svg" viewBox="0 0 1024 1024">
  <g style="fill:none;stroke:#000000;stroke-width:50;stroke-linecap:round;stroke-linejoin:round;" transform="scale(1, 1) translate(0, 0)">
    <path d="M 309.0,228.0 L 334.0,266.0 L 314.0,312.0 L 261.0,388.0 L 199.0,442.0"/>
    <path d="M 331.0,337.0 L 354.0,326.0 L 458.0,304.0 L 500.0,305.0"/>
    <path d="M 351.0,384.0 L 396.0,423.0"/>
    <path d="M 586.0,180.0 L 615.0,212.0 L 607.0,238.0 L 572.0,309.0 L 545.0,348.0 L 521.0,369.0"/>
    <path d="M 604.0,308.0 L 615.0,302.0 L 698.0,298.0 L 774.0,275.0 L 817.0,276.0"/>
    <path d="M 640.0,361.0 L 707.0,395.0 L 731.0,426.0"/>
    <path d="M 624.0,428.0 L 564.0,413.0 L 478.0,457.0 L 376.0,493.0 L 340.0,498.0 L 337.0,509.0"/>
    <path d="M 258.0,474.0 L 295.0,517.0 L 277.0,657.0 L 244.0,793.0 L 215.0,875.0 L 176.0,950.0 L 130.0,1017.0 L 85.0,1066.0"/>
    <path d="M 499.0,473.0 L 523.0,489.0 L 522.0,575.0 L 512.0,591.0"/>
    <path d="M 548.0,537.0 L 560.0,526.0 L 617.0,511.0 L 644.0,508.0 L 665.0,513.0"/>
    <path d="M 409.0,651.0 L 422.0,634.0 L 673.0,583.0 L 726.0,580.0 L 754.0,590.0 L 764.0,604.0 L 719.0,677.0"/>
    <path d="M 347.0,601.0 L 372.0,632.0 L 374.0,654.0 L 360.0,760.0 L 341.0,838.0 L 313.0,917.0 L 278.0,987.0 L 208.0,1072.0"/>
    <path d="M 415.0,737.0 L 454.0,740.0 L 617.0,698.0 L 666.0,700.0"/>
    <path d="M 511.0,643.0 L 530.0,670.0 L 527.0,763.0 L 541.0,783.0 L 571.0,795.0 L 646.0,796.0 L 691.0,780.0 L 704.0,769.0 L 709.0,707.0"/>
    <path d="M 429.0,868.0 L 448.0,883.0 L 459.0,902.0 L 456.0,936.0 L 439.0,992.0 L 424.0,1021.0 L 401.0,1047.0 L 365.0,1072.0 L 333.0,1084.0"/>
    <path d="M 490.0,893.0 L 498.0,884.0 L 588.0,863.0 L 611.0,861.0 L 631.0,874.0 L 620.0,972.0 L 637.0,1030.0 L 666.0,1057.0 L 687.0,1065.0 L 750.0,1071.0 L 800.0,1066.0 L 852.0,1041.0 L 855.0,900.0"/>
  </g>
</svg>
