<svg xmlns="http://www.w3.org/2000/svg" viewBox="0 0 1024 1024">
  <g style="fill:none;stroke:#000000;stroke-width:50;stroke-linecap:round;stroke-linejoin:round;" transform="scale(1, 1) translate(0, 0)">
    <path d="M 310.0,216.0 L 334.0,249.0 L 303.0,321.0 L 256.0,385.0 L 202.0,430.0"/>
    <path d="M 348.0,299.0 L 473.0,271.0 L 512.0,271.0"/>
    <path d="M 349.0,360.0 L 389.0,388.0 L 404.0,407.0"/>
    <path d="M 583.0,175.0 L 606.0,202.0 L 603.0,223.0 L 570.0,291.0 L 522.0,340.0"/>
    <path d="M 610.0,274.0 L 688.0,266.0 L 776.0,245.0 L 816.0,247.0"/>
    <path d="M 613.0,325.0 L 681.0,361.0 L 707.0,395.0"/>
    <path d="M 461.0,377.0 L 499.0,396.0 L 538.0,428.0"/>
    <path d="M 320.0,475.0 L 358.0,483.0 L 629.0,436.0 L 687.0,442.0"/>
    <path d="M 548.0,480.0 L 563.0,503.0 L 540.0,538.0 L 477.0,599.0 L 400.0,642.0"/>
    <path d="M 405.0,533.0 L 563.0,592.0 L 593.0,623.0"/>
    <path d="M 319.0,556.0 L 340.0,590.0 L 325.0,694.0 L 366.0,695.0 L 453.0,673.0 L 591.0,652.0 L 653.0,649.0 L 666.0,661.0"/>
    <path d="M 685.0,523.0 L 714.0,562.0 L 694.0,632.0 L 688.0,694.0"/>
    <path d="M 206.0,791.0 L 225.0,811.0 L 239.0,844.0 L 237.0,979.0 L 247.0,1026.0"/>
    <path d="M 252.0,803.0 L 284.0,815.0 L 404.0,784.0 L 485.0,770.0 L 697.0,743.0 L 765.0,741.0 L 793.0,764.0 L 801.0,778.0 L 794.0,806.0 L 785.0,959.0 L 774.0,996.0 L 764.0,1012.0 L 750.0,1010.0 L 653.0,971.0"/>
    <path d="M 465.0,691.0 L 493.0,710.0 L 501.0,724.0 L 464.0,806.0 L 420.0,875.0 L 417.0,903.0 L 446.0,906.0 L 567.0,876.0 L 587.0,879.0"/>
    <path d="M 567.0,815.0 L 629.0,884.0 L 639.0,920.0"/>
  </g>
</svg>
