<svg xmlns="http://www.w3.org/2000/svg" viewBox="0 0 1024 1024">
  <g style="fill:none;stroke:#000000;stroke-width:50;stroke-linecap:round;stroke-linejoin:round;" transform="scale(1, 1) translate(0, 0)">
    <path d="M 322.0,203.0 L 344.0,239.0 L 303.0,318.0 L 240.0,393.0 L 183.0,439.0"/>
    <path d="M 332.0,321.0 L 357.0,310.0 L 409.0,304.0 L 476.0,285.0 L 513.0,286.0"/>
    <path d="M 339.0,355.0 L 388.0,375.0 L 412.0,397.0"/>
    <path d="M 609.0,163.0 L 628.0,180.0 L 639.0,201.0 L 619.0,258.0 L 570.0,341.0 L 517.0,393.0"/>
    <path d="M 632.0,294.0 L 655.0,282.0 L 728.0,275.0 L 768.0,263.0 L 800.0,259.0 L 835.0,265.0"/>
    <path d="M 652.0,342.0 L 718.0,376.0 L 750.0,412.0"/>
    <path d="M 340.0,431.0 L 360.0,451.0 L 370.0,484.0 L 375.0,638.0 L 384.0,692.0"/>
    <path d="M 390.0,460.0 L 418.0,444.0 L 545.0,422.0 L 563.0,414.0 L 601.0,414.0 L 626.0,423.0 L 646.0,445.0 L 619.0,648.0 L 626.0,668.0"/>
    <path d="M 398.0,527.0 L 432.0,512.0 L 503.0,498.0 L 534.0,494.0 L 553.0,499.0"/>
    <path d="M 404.0,599.0 L 413.0,589.0 L 492.0,575.0 L 531.0,570.0 L 556.0,574.0"/>
    <path d="M 399.0,673.0 L 414.0,663.0 L 552.0,641.0 L 564.0,641.0 L 576.0,652.0"/>
    <path d="M 170.0,779.0 L 221.0,788.0 L 464.0,751.0 L 771.0,719.0 L 847.0,739.0"/>
    <path d="M 448.0,680.0 L 467.0,715.0 L 420.0,796.0 L 350.0,878.0 L 287.0,930.0 L 231.0,965.0 L 162.0,999.0 L 101.0,1019.0"/>
    <path d="M 577.0,761.0 L 602.0,775.0 L 712.0,878.0 L 798.0,939.0 L 876.0,957.0 L 991.0,969.0"/>
    <path d="M 448.0,877.0 L 455.0,862.0 L 551.0,837.0 L 567.0,837.0 L 587.0,856.0 L 588.0,871.0 L 569.0,940.0 L 543.0,971.0 L 484.0,930.0"/>
    <path d="M 415.0,847.0 L 419.0,863.0 L 404.0,936.0 L 404.0,1018.0 L 419.0,1053.0 L 452.0,1072.0 L 552.0,1084.0 L 631.0,1079.0 L 688.0,1062.0 L 700.0,1054.0 L 700.0,1039.0 L 688.0,949.0"/>
  </g>
</svg>
