<svg xmlns="http://www.w3.org/2000/svg" viewBox="0 0 1024 1024">
  <g style="fill:none;stroke:#000000;stroke-width:50;stroke-linecap:round;stroke-linejoin:round;" transform="scale(1, 1) translate(0, 0)">
    <path d="M 292.0,214.0 L 309.0,230.0 L 319.0,251.0 L 295.0,313.0 L 245.0,390.0 L 182.0,449.0"/>
    <path d="M 322.0,318.0 L 460.0,292.0 L 500.0,292.0"/>
    <path d="M 341.0,381.0 L 389.0,416.0 L 402.0,438.0"/>
    <path d="M 573.0,177.0 L 602.0,209.0 L 587.0,260.0 L 553.0,332.0 L 517.0,381.0 L 478.0,421.0"/>
    <path d="M 604.0,297.0 L 615.0,291.0 L 670.0,290.0 L 751.0,272.0 L 804.0,272.0"/>
    <path d="M 616.0,366.0 L 687.0,403.0 L 718.0,440.0"/>
    <path d="M 208.0,554.0 L 284.0,554.0 L 385.0,526.0 L 429.0,526.0"/>
    <path d="M 156.0,649.0 L 191.0,686.0 L 220.0,790.0"/>
    <path d="M 180.0,643.0 L 213.0,653.0 L 329.0,633.0 L 404.0,613.0 L 425.0,615.0 L 452.0,642.0 L 429.0,695.0 L 409.0,702.0"/>
    <path d="M 236.0,772.0 L 252.0,760.0 L 375.0,735.0 L 432.0,732.0 L 452.0,738.0"/>
    <path d="M 277.0,456.0 L 319.0,499.0 L 321.0,846.0 L 311.0,1006.0 L 314.0,1076.0"/>
    <path d="M 296.0,775.0 L 280.0,823.0 L 222.0,893.0 L 164.0,946.0 L 85.0,995.0"/>
    <path d="M 377.0,802.0 L 439.0,841.0 L 453.0,866.0"/>
    <path d="M 558.0,450.0 L 581.0,466.0 L 592.0,483.0 L 586.0,508.0 L 542.0,623.0 L 501.0,685.0"/>
    <path d="M 571.0,619.0 L 721.0,579.0 L 759.0,578.0 L 787.0,603.0 L 772.0,626.0 L 706.0,693.0"/>
    <path d="M 578.0,701.0 L 611.0,735.0 L 590.0,845.0 L 573.0,888.0 L 543.0,934.0 L 514.0,964.0 L 487.0,986.0 L 432.0,1016.0"/>
    <path d="M 625.0,823.0 L 631.0,844.0 L 660.0,880.0 L 773.0,999.0 L 838.0,1019.0 L 900.0,1028.0"/>
  </g>
</svg>
