<svg xmlns="http://www.w3.org/2000/svg" viewBox="0 0 1024 1024">
  <g style="fill:none;stroke:#000000;stroke-width:50;stroke-linecap:round;stroke-linejoin:round;" transform="scale(1, 1) translate(0, 0)">
    <path d="M 319.0,206.0 L 341.0,242.0 L 323.0,281.0 L 262.0,365.0 L 195.0,419.0"/>
    <path d="M 335.0,309.0 L 454.0,286.0 L 501.0,286.0"/>
    <path d="M 354.0,364.0 L 415.0,391.0 L 431.0,412.0"/>
    <path d="M 614.0,175.0 L 630.0,191.0 L 639.0,211.0 L 625.0,251.0 L 577.0,331.0 L 522.0,386.0"/>
    <path d="M 635.0,290.0 L 785.0,265.0 L 817.0,268.0"/>
    <path d="M 657.0,333.0 L 718.0,367.0 L 745.0,402.0"/>
    <path d="M 372.0,457.0 L 387.0,466.0 L 556.0,427.0 L 610.0,432.0 L 629.0,456.0 L 592.0,585.0 L 594.0,606.0"/>
    <path d="M 374.0,551.0 L 385.0,540.0 L 459.0,523.0 L 514.0,515.0 L 533.0,519.0"/>
    <path d="M 370.0,616.0 L 392.0,606.0 L 423.0,605.0 L 559.0,577.0"/>
    <path d="M 315.0,448.0 L 338.0,469.0 L 349.0,523.0 L 347.0,641.0 L 337.0,749.0 L 386.0,739.0 L 478.0,690.0"/>
    <path d="M 678.0,579.0 L 691.0,609.0 L 643.0,651.0 L 604.0,674.0"/>
    <path d="M 450.0,618.0 L 459.0,616.0 L 483.0,626.0 L 563.0,689.0 L 621.0,726.0 L 700.0,761.0 L 771.0,764.0 L 855.0,757.0"/>
    <path d="M 276.0,857.0 L 306.0,879.0 L 342.0,1000.0 L 357.0,1012.0"/>
    <path d="M 337.0,863.0 L 350.0,875.0 L 361.0,875.0 L 637.0,838.0 L 711.0,839.0 L 724.0,849.0 L 739.0,876.0 L 711.0,961.0 L 681.0,984.0"/>
    <path d="M 431.0,886.0 L 441.0,894.0 L 460.0,986.0 L 471.0,1003.0"/>
    <path d="M 568.0,863.0 L 595.0,890.0 L 564.0,987.0 L 551.0,998.0"/>
    <path d="M 152.0,1039.0 L 204.0,1051.0 L 373.0,1033.0 L 810.0,1008.0 L 865.0,1013.0 L 921.0,1031.0"/>
  </g>
</svg>
