<svg xmlns="http://www.w3.org/2000/svg" viewBox="0 0 1024 1024">
  <g style="fill:none;stroke:#000000;stroke-width:50;stroke-linecap:round;stroke-linejoin:round;" transform="scale(1, 1) translate(0, 0)">
    <path d="M 305.0,208.0 L 329.0,244.0 L 290.0,328.0 L 228.0,408.0 L 182.0,442.0"/>
    <path d="M 333.0,313.0 L 472.0,292.0 L 505.0,297.0"/>
    <path d="M 336.0,365.0 L 400.0,408.0 L 413.0,439.0"/>
    <path d="M 635.0,174.0 L 656.0,212.0 L 623.0,275.0 L 564.0,346.0 L 515.0,383.0"/>
    <path d="M 645.0,291.0 L 776.0,264.0 L 828.0,264.0"/>
    <path d="M 644.0,345.0 L 714.0,378.0 L 734.0,407.0"/>
    <path d="M 433.0,487.0 L 453.0,517.0 L 443.0,542.0 L 408.0,600.0 L 373.0,631.0"/>
    <path d="M 457.0,574.0 L 526.0,572.0 L 694.0,530.0 L 732.0,533.0"/>
    <path d="M 553.0,430.0 L 588.0,462.0 L 583.0,622.0 L 568.0,644.0"/>
    <path d="M 332.0,696.0 L 377.0,702.0 L 745.0,639.0 L 796.0,638.0 L 850.0,650.0"/>
    <path d="M 432.0,755.0 L 462.0,790.0 L 484.0,915.0"/>
    <path d="M 482.0,761.0 L 505.0,766.0 L 639.0,738.0 L 661.0,742.0 L 691.0,767.0 L 673.0,823.0 L 649.0,840.0"/>
    <path d="M 503.0,896.0 L 518.0,884.0 L 641.0,867.0 L 682.0,868.0 L 705.0,877.0"/>
    <path d="M 209.0,483.0 L 263.0,520.0 L 280.0,550.0"/>
    <path d="M 88.0,694.0 L 131.0,688.0 L 201.0,655.0 L 223.0,656.0 L 242.0,667.0 L 244.0,693.0 L 221.0,767.0 L 232.0,801.0 L 258.0,842.0 L 257.0,866.0 L 244.0,880.0"/>
    <path d="M 85.0,912.0 L 130.0,925.0 L 216.0,901.0 L 300.0,906.0 L 590.0,996.0 L 714.0,1021.0 L 821.0,1007.0 L 913.0,983.0"/>
  </g>
</svg>
