<svg xmlns="http://www.w3.org/2000/svg" viewBox="0 0 1024 1024">
  <g style="fill:none;stroke:#000000;stroke-width:50;stroke-linecap:round;stroke-linejoin:round;" transform="scale(1, 1) translate(0, 0)">
    <path d="M 310.0,216.0 L 332.0,247.0 L 308.0,301.0 L 252.0,377.0 L 202.0,419.0"/>
    <path d="M 329.0,314.0 L 463.0,296.0 L 492.0,298.0"/>
    <path d="M 350.0,371.0 L 412.0,419.0"/>
    <path d="M 587.0,184.0 L 614.0,215.0 L 600.0,259.0 L 558.0,337.0 L 505.0,393.0"/>
    <path d="M 615.0,296.0 L 765.0,269.0 L 804.0,271.0"/>
    <path d="M 639.0,345.0 L 701.0,387.0 L 714.0,416.0"/>
    <path d="M 252.0,574.0 L 298.0,605.0 L 317.0,638.0"/>
    <path d="M 481.0,521.0 L 497.0,546.0 L 436.0,615.0"/>
    <path d="M 215.0,699.0 L 252.0,708.0 L 473.0,667.0 L 523.0,672.0"/>
    <path d="M 353.0,488.0 L 388.0,525.0 L 377.0,792.0 L 369.0,839.0 L 371.0,887.0"/>
    <path d="M 357.0,715.0 L 349.0,721.0 L 339.0,761.0 L 316.0,793.0 L 263.0,847.0 L 209.0,881.0"/>
    <path d="M 409.0,741.0 L 411.0,752.0 L 488.0,807.0 L 505.0,841.0"/>
    <path d="M 163.0,478.0 L 194.0,517.0 L 194.0,683.0 L 179.0,940.0 L 182.0,968.0 L 225.0,969.0 L 347.0,944.0 L 429.0,937.0 L 452.0,936.0 L 483.0,945.0"/>
    <path d="M 848.0,463.0 L 833.0,458.0 L 787.0,459.0 L 734.0,499.0 L 681.0,525.0 L 677.0,533.0 L 659.0,537.0 L 659.0,546.0"/>
    <path d="M 581.0,527.0 L 618.0,561.0 L 615.0,715.0 L 605.0,804.0 L 572.0,905.0 L 553.0,940.0 L 495.0,1010.0 L 442.0,1049.0"/>
    <path d="M 648.0,674.0 L 858.0,626.0 L 927.0,633.0"/>
    <path d="M 748.0,676.0 L 778.0,690.0 L 784.0,708.0 L 779.0,1090.0"/>
  </g>
</svg>
