<svg xmlns="http://www.w3.org/2000/svg" viewBox="0 0 1024 1024">
  <g style="fill:none;stroke:#000000;stroke-width:50;stroke-linecap:round;stroke-linejoin:round;" transform="scale(1, 1) translate(0, 0)">
    <path d="M 329.0,208.0 L 343.0,224.0 L 350.0,244.0 L 322.0,303.0 L 266.0,377.0 L 214.0,418.0"/>
    <path d="M 344.0,317.0 L 473.0,289.0 L 524.0,287.0"/>
    <path d="M 377.0,364.0 L 416.0,380.0 L 437.0,396.0"/>
    <path d="M 593.0,182.0 L 617.0,214.0 L 599.0,264.0 L 562.0,326.0 L 542.0,351.0 L 509.0,377.0"/>
    <path d="M 614.0,290.0 L 630.0,282.0 L 699.0,275.0 L 770.0,256.0 L 812.0,257.0"/>
    <path d="M 641.0,345.0 L 688.0,367.0 L 711.0,395.0"/>
    <path d="M 296.0,510.0 L 343.0,519.0 L 413.0,513.0 L 694.0,470.0 L 746.0,479.0"/>
    <path d="M 387.0,437.0 L 421.0,467.0 L 435.0,574.0 L 449.0,589.0"/>
    <path d="M 575.0,404.0 L 604.0,440.0 L 586.0,550.0 L 579.0,567.0 L 567.0,576.0"/>
    <path d="M 139.0,639.0 L 192.0,649.0 L 494.0,608.0 L 825.0,579.0 L 911.0,600.0"/>
    <path d="M 306.0,710.0 L 332.0,732.0 L 343.0,759.0 L 376.0,922.0"/>
    <path d="M 359.0,713.0 L 379.0,722.0 L 598.0,688.0 L 669.0,686.0 L 694.0,708.0 L 702.0,723.0 L 647.0,899.0"/>
    <path d="M 416.0,802.0 L 473.0,798.0 L 545.0,782.0 L 581.0,781.0 L 600.0,787.0"/>
    <path d="M 476.0,633.0 L 502.0,649.0 L 511.0,663.0 L 509.0,840.0 L 493.0,863.0"/>
    <path d="M 396.0,890.0 L 407.0,899.0 L 604.0,876.0 L 618.0,889.0"/>
    <path d="M 453.0,985.0 L 422.0,983.0 L 354.0,1040.0 L 286.0,1077.0 L 248.0,1089.0"/>
    <path d="M 586.0,948.0 L 678.0,1010.0 L 700.0,1035.0 L 718.0,1079.0"/>
  </g>
</svg>
