<svg xmlns="http://www.w3.org/2000/svg" viewBox="0 0 1024 1024">
  <g style="fill:none;stroke:#000000;stroke-width:50;stroke-linecap:round;stroke-linejoin:round;" transform="scale(1, 1) translate(0, 0)">
    <path d="M 326.0,206.0 L 348.0,235.0 L 323.0,298.0 L 294.0,345.0 L 225.0,412.0"/>
    <path d="M 358.0,282.0 L 417.0,280.0 L 479.0,266.0 L 514.0,267.0"/>
    <path d="M 364.0,333.0 L 413.0,355.0 L 436.0,380.0"/>
    <path d="M 593.0,176.0 L 617.0,209.0 L 608.0,235.0 L 575.0,303.0 L 549.0,340.0 L 517.0,369.0"/>
    <path d="M 633.0,260.0 L 643.0,254.0 L 704.0,253.0 L 785.0,235.0 L 816.0,236.0"/>
    <path d="M 656.0,300.0 L 702.0,320.0 L 731.0,347.0"/>
    <path d="M 286.0,434.0 L 308.0,449.0 L 321.0,470.0 L 357.0,581.0"/>
    <path d="M 328.0,432.0 L 348.0,442.0 L 453.0,418.0 L 642.0,390.0 L 702.0,394.0 L 720.0,414.0 L 724.0,429.0 L 676.0,542.0"/>
    <path d="M 444.0,443.0 L 456.0,526.0 L 452.0,533.0"/>
    <path d="M 551.0,422.0 L 575.0,442.0 L 555.0,508.0 L 543.0,512.0"/>
    <path d="M 370.0,573.0 L 414.0,558.0 L 654.0,517.0"/>
    <path d="M 284.0,552.0 L 296.0,573.0 L 298.0,592.0 L 242.0,669.0 L 209.0,730.0 L 276.0,733.0 L 306.0,729.0 L 310.0,723.0"/>
    <path d="M 377.0,634.0 L 389.0,666.0 L 337.0,731.0 L 262.0,807.0 L 249.0,841.0 L 271.0,844.0 L 362.0,814.0 L 374.0,811.0 L 379.0,816.0"/>
    <path d="M 381.0,773.0 L 422.0,832.0"/>
    <path d="M 159.0,929.0 L 212.0,993.0 L 221.0,1009.0 L 227.0,1043.0"/>
    <path d="M 274.0,902.0 L 326.0,952.0 L 333.0,980.0"/>
    <path d="M 354.0,865.0 L 386.0,894.0 L 405.0,923.0 L 408.0,939.0"/>
    <path d="M 526.0,570.0 L 547.0,595.0 L 546.0,609.0 L 505.0,684.0 L 444.0,756.0"/>
    <path d="M 522.0,698.0 L 530.0,725.0 L 529.0,781.0 L 515.0,1005.0 L 525.0,1073.0"/>
    <path d="M 643.0,566.0 L 699.0,606.0 L 712.0,630.0"/>
    <path d="M 587.0,690.0 L 610.0,695.0 L 653.0,691.0 L 792.0,650.0 L 832.0,651.0"/>
    <path d="M 600.0,801.0 L 733.0,770.0 L 780.0,771.0"/>
    <path d="M 595.0,881.0 L 639.0,877.0 L 743.0,853.0 L 792.0,856.0"/>
    <path d="M 679.0,711.0 L 699.0,725.0 L 700.0,740.0 L 697.0,922.0 L 682.0,943.0"/>
    <path d="M 549.0,976.0 L 589.0,983.0 L 825.0,951.0 L 902.0,965.0"/>
  </g>
</svg>
