<svg xmlns="http://www.w3.org/2000/svg" viewBox="0 0 1024 1024">
  <g style="fill:none;stroke:#000000;stroke-width:50;stroke-linecap:round;stroke-linejoin:round;" transform="scale(1, 1) translate(0, 0)">
    <path d="M 316.0,191.0 L 338.0,227.0 L 308.0,291.0 L 275.0,339.0 L 197.0,407.0"/>
    <path d="M 335.0,291.0 L 474.0,259.0 L 509.0,258.0"/>
    <path d="M 365.0,339.0 L 412.0,367.0 L 423.0,381.0"/>
    <path d="M 580.0,175.0 L 603.0,210.0 L 581.0,268.0 L 544.0,326.0 L 486.0,382.0"/>
    <path d="M 613.0,267.0 L 705.0,249.0 L 779.0,227.0 L 832.0,225.0"/>
    <path d="M 626.0,317.0 L 680.0,342.0 L 703.0,368.0"/>
    <path d="M 377.0,402.0 L 345.0,414.0 L 293.0,495.0 L 205.0,592.0 L 146.0,646.0 L 70.0,696.0"/>
    <path d="M 362.0,450.0 L 379.0,448.0 L 440.0,476.0 L 477.0,514.0"/>
    <path d="M 286.0,567.0 L 339.0,565.0 L 429.0,545.0"/>
    <path d="M 141.0,678.0 L 156.0,686.0 L 178.0,776.0"/>
    <path d="M 177.0,681.0 L 213.0,662.0 L 247.0,660.0 L 253.0,671.0 L 250.0,696.0 L 234.0,724.0"/>
    <path d="M 192.0,758.0 L 195.0,751.0 L 222.0,742.0 L 251.0,737.0 L 271.0,741.0"/>
    <path d="M 277.0,632.0 L 295.0,649.0 L 314.0,740.0"/>
    <path d="M 315.0,647.0 L 352.0,627.0 L 385.0,622.0 L 396.0,634.0 L 394.0,648.0 L 385.0,682.0 L 374.0,691.0"/>
    <path d="M 325.0,725.0 L 355.0,711.0 L 400.0,706.0"/>
    <path d="M 421.0,612.0 L 439.0,626.0 L 459.0,713.0"/>
    <path d="M 460.0,618.0 L 513.0,601.0 L 532.0,602.0 L 540.0,613.0 L 538.0,627.0 L 529.0,656.0 L 519.0,667.0"/>
    <path d="M 469.0,701.0 L 499.0,687.0 L 549.0,684.0"/>
    <path d="M 183.0,807.0 L 198.0,822.0 L 204.0,863.0 L 200.0,942.0 L 191.0,986.0 L 193.0,1026.0"/>
    <path d="M 229.0,828.0 L 251.0,814.0 L 366.0,785.0 L 463.0,772.0 L 495.0,780.0 L 506.0,801.0 L 500.0,952.0 L 492.0,988.0 L 484.0,1001.0 L 425.0,980.0"/>
    <path d="M 254.0,900.0 L 292.0,896.0 L 410.0,863.0 L 441.0,867.0"/>
    <path d="M 284.0,826.0 L 299.0,834.0 L 303.0,975.0"/>
    <path d="M 369.0,805.0 L 386.0,817.0 L 373.0,988.0"/>
    <path d="M 561.0,452.0 L 623.0,445.0 L 784.0,408.0 L 822.0,405.0 L 874.0,413.0"/>
    <path d="M 705.0,464.0 L 687.0,468.0 L 656.0,535.0 L 640.0,554.0"/>
    <path d="M 580.0,549.0 L 598.0,566.0 L 607.0,589.0 L 607.0,772.0 L 601.0,817.0 L 605.0,876.0"/>
    <path d="M 626.0,562.0 L 649.0,568.0 L 779.0,532.0 L 800.0,538.0 L 821.0,559.0 L 826.0,570.0 L 818.0,662.0 L 822.0,797.0 L 815.0,862.0"/>
    <path d="M 632.0,670.0 L 638.0,661.0 L 697.0,646.0 L 726.0,643.0 L 745.0,648.0"/>
    <path d="M 629.0,754.0 L 639.0,744.0 L 691.0,731.0 L 734.0,726.0 L 753.0,731.0"/>
    <path d="M 625.0,853.0 L 637.0,842.0 L 683.0,835.0 L 761.0,826.0 L 773.0,826.0 L 783.0,834.0"/>
    <path d="M 684.0,927.0 L 656.0,932.0 L 593.0,1008.0 L 548.0,1045.0 L 509.0,1067.0"/>
    <path d="M 767.0,911.0 L 856.0,986.0 L 872.0,1006.0 L 885.0,1041.0"/>
  </g>
</svg>
