<svg xmlns="http://www.w3.org/2000/svg" viewBox="0 0 1024 1024">
  <g style="fill:none;stroke:#000000;stroke-width:50;stroke-linecap:round;stroke-linejoin:round;" transform="scale(1, 1) translate(0, 0)">
    <path d="M 269.0,361.0 L 356.0,420.0 L 378.0,460.0"/>
    <path d="M 694.0,273.0 L 715.0,295.0 L 723.0,316.0 L 693.0,350.0 L 590.0,440.0"/>
    <path d="M 164.0,589.0 L 224.0,602.0 L 485.0,569.0 L 755.0,526.0 L 823.0,539.0"/>
    <path d="M 453.0,195.0 L 481.0,217.0 L 507.0,254.0 L 498.0,747.0 L 483.0,1069.0"/>
    <path d="M 471.0,599.0 L 363.0,749.0 L 293.0,822.0 L 223.0,882.0 L 122.0,945.0"/>
    <path d="M 524.0,593.0 L 540.0,633.0 L 581.0,685.0 L 693.0,808.0 L 751.0,858.0 L 796.0,886.0 L 954.0,907.0"/>
  </g>
</svg>
