<svg xmlns="http://www.w3.org/2000/svg" viewBox="0 0 1024 1024">
  <g style="fill:none;stroke:#000000;stroke-width:50;stroke-linecap:round;stroke-linejoin:round;" transform="scale(1, 1) translate(0, 0)">
    <path d="M 309.0,287.0 L 380.0,326.0 L 413.0,365.0"/>
    <path d="M 674.0,231.0 L 688.0,267.0 L 586.0,343.0"/>
    <path d="M 232.0,443.0 L 287.0,454.0 L 702.0,388.0 L 751.0,387.0 L 789.0,395.0"/>
    <path d="M 474.0,202.0 L 500.0,220.0 L 518.0,247.0 L 501.0,498.0 L 504.0,603.0"/>
    <path d="M 479.0,452.0 L 428.0,516.0 L 376.0,564.0 L 300.0,615.0 L 229.0,645.0"/>
    <path d="M 586.0,490.0 L 649.0,524.0 L 714.0,569.0 L 747.0,620.0"/>
    <path d="M 140.0,786.0 L 194.0,797.0 L 355.0,774.0 L 798.0,735.0 L 855.0,742.0 L 902.0,759.0"/>
    <path d="M 461.0,643.0 L 500.0,682.0 L 497.0,721.0 L 484.0,791.0 L 437.0,885.0 L 406.0,922.0 L 353.0,963.0 L 302.0,987.0 L 200.0,1019.0"/>
    <path d="M 522.0,787.0 L 534.0,793.0 L 639.0,904.0 L 737.0,986.0 L 799.0,1005.0 L 929.0,1029.0"/>
  </g>
</svg>
