<svg xmlns="http://www.w3.org/2000/svg" viewBox="0 0 1024 1024">
  <g style="fill:none;stroke:#000000;stroke-width:50;stroke-linecap:round;stroke-linejoin:round;" transform="scale(1, 1) translate(0, 0)">
    <path d="M 151.0,400.0 L 209.0,470.0 L 220.0,507.0"/>
    <path d="M 431.0,359.0 L 454.0,387.0 L 380.0,486.0"/>
    <path d="M 52.0,620.0 L 104.0,628.0 L 343.0,570.0 L 401.0,563.0 L 424.0,567.0"/>
    <path d="M 262.0,212.0 L 308.0,256.0 L 315.0,273.0 L 305.0,785.0 L 292.0,945.0 L 292.0,1042.0"/>
    <path d="M 280.0,612.0 L 261.0,680.0 L 229.0,736.0 L 146.0,847.0 L 95.0,904.0 L 85.0,907.0 L 85.0,913.0"/>
    <path d="M 331.0,680.0 L 347.0,699.0 L 400.0,733.0 L 421.0,769.0"/>
    <path d="M 534.0,438.0 L 546.0,447.0 L 561.0,476.0 L 542.0,520.0 L 508.0,578.0 L 460.0,642.0 L 426.0,672.0"/>
    <path d="M 573.0,236.0 L 597.0,245.0 L 622.0,265.0 L 729.0,454.0 L 760.0,497.0 L 804.0,542.0 L 828.0,558.0 L 981.0,593.0"/>
    <path d="M 490.0,679.0 L 544.0,684.0 L 648.0,656.0 L 742.0,640.0 L 756.0,645.0 L 770.0,660.0 L 741.0,865.0 L 726.0,914.0 L 704.0,958.0 L 673.0,985.0 L 600.0,949.0"/>
    <path d="M 560.0,704.0 L 582.0,720.0 L 587.0,740.0 L 558.0,803.0 L 476.0,920.0 L 419.0,980.0 L 383.0,1006.0"/>
  </g>
</svg>
