<svg xmlns="http://www.w3.org/2000/svg" viewBox="0 0 1024 1024">
  <g style="fill:none;stroke:#000000;stroke-width:50;stroke-linecap:round;stroke-linejoin:round;" transform="scale(1, 1) translate(0, 0)">
    <path d="M 156.0,408.0 L 217.0,473.0 L 224.0,500.0"/>
    <path d="M 430.0,351.0 L 452.0,375.0 L 391.0,474.0"/>
    <path d="M 84.0,624.0 L 135.0,630.0 L 380.0,571.0 L 437.0,564.0 L 459.0,567.0"/>
    <path d="M 277.0,204.0 L 328.0,258.0 L 320.0,715.0 L 302.0,955.0 L 303.0,1033.0"/>
    <path d="M 293.0,619.0 L 266.0,681.0 L 207.0,772.0 L 149.0,844.0 L 82.0,911.0"/>
    <path d="M 344.0,682.0 L 360.0,696.0 L 416.0,715.0 L 435.0,739.0 L 435.0,748.0"/>
    <path d="M 593.0,252.0 L 694.0,309.0 L 724.0,352.0"/>
    <path d="M 521.0,521.0 L 581.0,526.0 L 784.0,478.0 L 841.0,475.0"/>
    <path d="M 526.0,661.0 L 563.0,720.0 L 576.0,759.0"/>
    <path d="M 729.0,588.0 L 744.0,597.0 L 762.0,630.0 L 709.0,780.0 L 682.0,839.0 L 669.0,853.0"/>
    <path d="M 398.0,899.0 L 449.0,908.0 L 609.0,883.0 L 849.0,857.0 L 910.0,860.0 L 955.0,875.0"/>
  </g>
</svg>
