<svg xmlns="http://www.w3.org/2000/svg" viewBox="0 0 1024 1024">
  <g style="fill:none;stroke:#000000;stroke-width:50;stroke-linecap:round;stroke-linejoin:round;" transform="scale(1, 1) translate(0, 0)">
    <path d="M 147.0,395.0 L 203.0,448.0 L 223.0,492.0"/>
    <path d="M 442.0,341.0 L 461.0,370.0 L 388.0,459.0"/>
    <path d="M 82.0,615.0 L 118.0,622.0 L 151.0,617.0 L 376.0,556.0 L 424.0,547.0 L 468.0,547.0"/>
    <path d="M 279.0,204.0 L 305.0,226.0 L 328.0,257.0 L 315.0,723.0 L 299.0,911.0 L 296.0,1030.0"/>
    <path d="M 291.0,606.0 L 280.0,621.0 L 262.0,672.0 L 203.0,763.0 L 145.0,835.0 L 66.0,914.0"/>
    <path d="M 367.0,652.0 L 409.0,696.0 L 422.0,720.0"/>
    <path d="M 594.0,253.0 L 646.0,295.0 L 647.0,307.0 L 638.0,672.0 L 620.0,697.0"/>
    <path d="M 674.0,490.0 L 803.0,459.0 L 856.0,457.0"/>
    <path d="M 472.0,716.0 L 494.0,735.0 L 506.0,756.0 L 536.0,952.0"/>
    <path d="M 522.0,718.0 L 542.0,729.0 L 661.0,713.0 L 738.0,695.0 L 761.0,693.0 L 785.0,702.0 L 813.0,732.0 L 776.0,841.0 L 748.0,860.0"/>
    <path d="M 557.0,901.0 L 568.0,912.0 L 580.0,912.0 L 746.0,888.0 L 786.0,889.0 L 815.0,897.0"/>
  </g>
</svg>
