<svg xmlns="http://www.w3.org/2000/svg" viewBox="0 0 1024 1024">
  <g style="fill:none;stroke:#000000;stroke-width:50;stroke-linecap:round;stroke-linejoin:round;" transform="scale(1, 1) translate(0, 0)">
    <path d="M 177.0,358.0 L 219.0,356.0 L 292.0,333.0 L 305.0,336.0 L 325.0,354.0 L 299.0,460.0 L 280.0,473.0"/>
    <path d="M 190.0,511.0 L 213.0,518.0 L 274.0,498.0 L 325.0,498.0"/>
    <path d="M 148.0,505.0 L 170.0,526.0 L 177.0,544.0 L 152.0,677.0 L 167.0,681.0 L 222.0,664.0 L 263.0,662.0 L 291.0,685.0 L 291.0,699.0 L 272.0,861.0 L 247.0,919.0 L 222.0,940.0 L 147.0,902.0"/>
    <path d="M 369.0,462.0 L 414.0,515.0 L 425.0,538.0"/>
    <path d="M 597.0,388.0 L 615.0,413.0 L 547.0,503.0"/>
    <path d="M 338.0,621.0 L 373.0,624.0 L 544.0,573.0 L 570.0,567.0 L 607.0,569.0"/>
    <path d="M 449.0,224.0 L 474.0,244.0 L 496.0,278.0 L 492.0,746.0 L 478.0,912.0 L 481.0,987.0"/>
    <path d="M 471.0,621.0 L 463.0,626.0 L 453.0,682.0 L 423.0,739.0 L 332.0,861.0"/>
    <path d="M 512.0,715.0 L 529.0,732.0 L 579.0,760.0 L 596.0,792.0"/>
    <path d="M 666.0,316.0 L 707.0,314.0 L 785.0,292.0 L 805.0,296.0 L 828.0,322.0 L 788.0,446.0 L 763.0,464.0"/>
    <path d="M 693.0,492.0 L 713.0,500.0 L 754.0,487.0 L 803.0,482.0 L 825.0,487.0"/>
    <path d="M 649.0,483.0 L 669.0,504.0 L 678.0,530.0 L 654.0,642.0 L 697.0,643.0 L 752.0,626.0 L 814.0,619.0 L 835.0,624.0 L 853.0,639.0 L 857.0,650.0 L 833.0,827.0 L 817.0,895.0 L 799.0,937.0 L 753.0,977.0 L 667.0,917.0"/>
  </g>
</svg>
