<svg xmlns="http://www.w3.org/2000/svg" viewBox="0 0 1024 1024">
  <g style="fill:none;stroke:#000000;stroke-width:50;stroke-linecap:round;stroke-linejoin:round;" transform="scale(1, 1) translate(0, 0)">
    <path d="M 139.0,403.0 L 194.0,463.0 L 204.0,494.0"/>
    <path d="M 424.0,398.0 L 393.0,393.0 L 328.0,471.0"/>
    <path d="M 73.0,600.0 L 125.0,606.0 L 326.0,555.0 L 380.0,555.0"/>
    <path d="M 230.0,211.0 L 257.0,234.0 L 280.0,265.0 L 272.0,710.0 L 255.0,947.0 L 256.0,1022.0"/>
    <path d="M 247.0,602.0 L 238.0,609.0 L 227.0,664.0 L 174.0,756.0 L 68.0,889.0"/>
    <path d="M 297.0,683.0 L 343.0,720.0 L 358.0,740.0"/>
    <path d="M 392.0,515.0 L 449.0,519.0 L 620.0,478.0 L 652.0,481.0"/>
    <path d="M 501.0,233.0 L 519.0,246.0 L 544.0,278.0 L 500.0,623.0 L 482.0,645.0"/>
    <path d="M 389.0,660.0 L 409.0,678.0 L 419.0,699.0 L 444.0,839.0"/>
    <path d="M 438.0,664.0 L 448.0,670.0 L 545.0,647.0 L 579.0,650.0 L 597.0,670.0 L 577.0,742.0 L 554.0,762.0"/>
    <path d="M 462.0,812.0 L 478.0,801.0 L 537.0,789.0 L 582.0,789.0 L 603.0,795.0"/>
    <path d="M 671.0,368.0 L 695.0,384.0 L 708.0,409.0 L 713.0,479.0 L 709.0,603.0 L 690.0,733.0 L 658.0,827.0 L 622.0,889.0 L 552.0,968.0 L 510.0,997.0"/>
    <path d="M 723.0,370.0 L 745.0,379.0 L 828.0,356.0 L 859.0,372.0 L 873.0,394.0 L 880.0,894.0 L 875.0,951.0 L 855.0,985.0 L 828.0,978.0 L 753.0,940.0"/>
    <path d="M 738.0,567.0 L 744.0,557.0 L 761.0,550.0 L 785.0,547.0 L 816.0,553.0"/>
    <path d="M 724.0,709.0 L 738.0,694.0 L 761.0,688.0 L 819.0,694.0"/>
  </g>
</svg>
