<svg xmlns="http://www.w3.org/2000/svg" viewBox="0 0 1024 1024">
  <g style="fill:none;stroke:#000000;stroke-width:50;stroke-linecap:round;stroke-linejoin:round;" transform="scale(1, 1) translate(0, 0)">
    <path d="M 127.0,407.0 L 183.0,458.0 L 191.0,488.0"/>
    <path d="M 378.0,355.0 L 398.0,381.0 L 336.0,463.0"/>
    <path d="M 77.0,594.0 L 118.0,599.0 L 319.0,548.0 L 365.0,552.0"/>
    <path d="M 233.0,243.0 L 260.0,266.0 L 283.0,301.0 L 273.0,758.0 L 259.0,950.0 L 260.0,1023.0"/>
    <path d="M 249.0,596.0 L 222.0,659.0 L 187.0,714.0 L 143.0,777.0 L 61.0,869.0"/>
    <path d="M 300.0,633.0 L 313.0,647.0 L 349.0,665.0 L 367.0,684.0"/>
    <path d="M 503.0,299.0 L 515.0,307.0 L 529.0,331.0 L 519.0,367.0 L 466.0,461.0 L 394.0,549.0"/>
    <path d="M 499.0,449.0 L 583.0,418.0 L 599.0,419.0 L 615.0,436.0 L 573.0,536.0 L 518.0,618.0 L 425.0,719.0 L 338.0,776.0"/>
    <path d="M 453.0,512.0 L 472.0,508.0 L 508.0,523.0 L 664.0,633.0 L 780.0,692.0 L 834.0,705.0 L 967.0,687.0"/>
    <path d="M 686.0,263.0 L 704.0,273.0 L 723.0,296.0 L 724.0,488.0 L 719.0,499.0 L 717.0,585.0 L 709.0,607.0"/>
    <path d="M 746.0,458.0 L 756.0,469.0 L 820.0,504.0 L 842.0,536.0"/>
    <path d="M 452.0,755.0 L 470.0,774.0 L 480.0,803.0 L 483.0,898.0 L 478.0,982.0 L 485.0,1029.0"/>
    <path d="M 497.0,757.0 L 514.0,768.0 L 661.0,728.0 L 682.0,730.0 L 705.0,751.0 L 714.0,953.0 L 703.0,993.0 L 704.0,1042.0"/>
    <path d="M 507.0,885.0 L 521.0,874.0 L 586.0,859.0 L 622.0,856.0 L 644.0,861.0"/>
    <path d="M 510.0,993.0 L 527.0,978.0 L 670.0,963.0"/>
  </g>
</svg>
