<svg xmlns="http://www.w3.org/2000/svg" viewBox="0 0 1024 1024">
  <g style="fill:none;stroke:#000000;stroke-width:50;stroke-linecap:round;stroke-linejoin:round;" transform="scale(1, 1) translate(0, 0)">
    <path d="M 119.0,410.0 L 169.0,453.0 L 179.0,468.0 L 184.0,495.0"/>
    <path d="M 351.0,352.0 L 367.0,376.0 L 307.0,451.0"/>
    <path d="M 73.0,594.0 L 132.0,591.0 L 306.0,537.0 L 357.0,538.0"/>
    <path d="M 217.0,247.0 L 266.0,298.0 L 256.0,719.0 L 239.0,937.0 L 241.0,1014.0"/>
    <path d="M 233.0,590.0 L 223.0,600.0 L 205.0,665.0 L 166.0,732.0 L 114.0,807.0 L 56.0,874.0"/>
    <path d="M 281.0,661.0 L 341.0,714.0 L 350.0,740.0"/>
    <path d="M 478.0,263.0 L 501.0,281.0 L 511.0,303.0 L 490.0,367.0 L 435.0,481.0 L 380.0,569.0 L 337.0,619.0"/>
    <path d="M 423.0,542.0 L 438.0,619.0 L 429.0,810.0 L 416.0,921.0 L 421.0,982.0"/>
    <path d="M 567.0,348.0 L 605.0,347.0 L 707.0,316.0 L 747.0,320.0 L 768.0,343.0 L 743.0,415.0 L 710.0,439.0"/>
    <path d="M 509.0,496.0 L 554.0,496.0 L 786.0,455.0 L 859.0,466.0"/>
    <path d="M 570.0,540.0 L 589.0,567.0 L 581.0,591.0 L 557.0,638.0 L 509.0,685.0"/>
    <path d="M 597.0,619.0 L 650.0,620.0 L 768.0,590.0 L 816.0,587.0"/>
    <path d="M 456.0,772.0 L 503.0,779.0 L 599.0,757.0 L 836.0,724.0 L 882.0,727.0 L 915.0,737.0"/>
    <path d="M 638.0,641.0 L 669.0,669.0 L 669.0,686.0 L 652.0,797.0 L 630.0,849.0 L 606.0,886.0 L 572.0,919.0 L 540.0,941.0 L 476.0,968.0"/>
    <path d="M 684.0,773.0 L 690.0,794.0 L 747.0,865.0 L 835.0,953.0 L 956.0,980.0"/>
  </g>
</svg>
