<svg xmlns="http://www.w3.org/2000/svg" viewBox="0 0 1024 1024">
  <g style="fill:none;stroke:#000000;stroke-width:50;stroke-linecap:round;stroke-linejoin:round;" transform="scale(1, 1) translate(0, 0)">
    <path d="M 145.0,413.0 L 180.0,444.0 L 210.0,490.0"/>
    <path d="M 406.0,358.0 L 426.0,385.0 L 364.0,463.0"/>
    <path d="M 74.0,613.0 L 125.0,618.0 L 355.0,550.0 L 396.0,544.0 L 419.0,547.0"/>
    <path d="M 257.0,219.0 L 281.0,238.0 L 307.0,276.0 L 299.0,712.0 L 283.0,951.0 L 284.0,1030.0"/>
    <path d="M 275.0,600.0 L 253.0,682.0 L 209.0,756.0 L 134.0,851.0 L 66.0,922.0"/>
    <path d="M 324.0,652.0 L 338.0,671.0 L 371.0,692.0 L 383.0,710.0"/>
    <path d="M 503.0,272.0 L 567.0,325.0 L 581.0,362.0"/>
    <path d="M 745.0,204.0 L 774.0,239.0 L 751.0,273.0 L 668.0,366.0"/>
    <path d="M 485.0,471.0 L 514.0,476.0 L 555.0,472.0 L 735.0,430.0 L 796.0,424.0"/>
    <path d="M 493.0,599.0 L 547.0,606.0 L 613.0,597.0 L 713.0,572.0 L 784.0,568.0"/>
    <path d="M 609.0,484.0 L 635.0,508.0 L 637.0,530.0 L 634.0,684.0 L 617.0,706.0"/>
    <path d="M 444.0,745.0 L 493.0,751.0 L 782.0,711.0 L 830.0,715.0 L 862.0,725.0"/>
    <path d="M 413.0,845.0 L 410.0,900.0 L 389.0,983.0"/>
    <path d="M 523.0,850.0 L 562.0,896.0 L 574.0,921.0"/>
    <path d="M 664.0,843.0 L 708.0,882.0 L 724.0,907.0"/>
    <path d="M 798.0,812.0 L 897.0,916.0 L 919.0,975.0"/>
  </g>
</svg>
