<svg xmlns="http://www.w3.org/2000/svg" viewBox="0 0 1024 1024">
  <g style="fill:none;stroke:#000000;stroke-width:50;stroke-linecap:round;stroke-linejoin:round;" transform="scale(1, 1) translate(0, 0)">
    <path d="M 330.0,228.0 L 396.0,263.0 L 412.0,281.0"/>
    <path d="M 669.0,173.0 L 680.0,203.0 L 593.0,268.0"/>
    <path d="M 279.0,352.0 L 330.0,359.0 L 518.0,332.0 L 649.0,306.0 L 701.0,302.0 L 735.0,308.0"/>
    <path d="M 479.0,172.0 L 492.0,179.0 L 515.0,210.0 L 503.0,432.0 L 509.0,475.0"/>
    <path d="M 480.0,355.0 L 437.0,385.0 L 393.0,433.0 L 330.0,480.0 L 241.0,527.0 L 216.0,533.0"/>
    <path d="M 574.0,347.0 L 642.0,399.0 L 738.0,458.0 L 804.0,468.0 L 879.0,466.0"/>
    <path d="M 316.0,529.0 L 343.0,549.0 L 351.0,563.0 L 392.0,703.0"/>
    <path d="M 376.0,551.0 L 383.0,538.0 L 429.0,527.0 L 440.0,530.0 L 452.0,523.0 L 461.0,526.0 L 613.0,498.0 L 657.0,502.0 L 677.0,521.0 L 682.0,537.0 L 630.0,681.0"/>
    <path d="M 431.0,610.0 L 469.0,607.0 L 551.0,586.0 L 593.0,588.0"/>
    <path d="M 481.0,538.0 L 502.0,557.0 L 501.0,639.0 L 488.0,657.0"/>
    <path d="M 408.0,694.0 L 424.0,686.0 L 601.0,665.0 L 613.0,658.0"/>
    <path d="M 264.0,799.0 L 315.0,808.0 L 382.0,802.0 L 686.0,760.0 L 739.0,770.0"/>
    <path d="M 367.0,729.0 L 403.0,759.0 L 419.0,864.0 L 424.0,879.0 L 437.0,886.0"/>
    <path d="M 570.0,705.0 L 593.0,733.0 L 598.0,756.0 L 578.0,849.0 L 570.0,866.0 L 558.0,875.0"/>
    <path d="M 123.0,931.0 L 174.0,942.0 L 516.0,899.0 L 818.0,877.0 L 861.0,881.0 L 910.0,898.0"/>
    <path d="M 425.0,978.0 L 395.0,980.0 L 328.0,1042.0 L 246.0,1089.0"/>
    <path d="M 593.0,947.0 L 705.0,1025.0 L 726.0,1054.0 L 738.0,1087.0"/>
  </g>
</svg>
