<svg xmlns="http://www.w3.org/2000/svg" viewBox="0 0 1024 1024">
  <g style="fill:none;stroke:#000000;stroke-width:50;stroke-linecap:round;stroke-linejoin:round;" transform="scale(1, 1) translate(0, 0)">
    <path d="M 121.0,414.0 L 172.0,463.0 L 183.0,493.0"/>
    <path d="M 391.0,404.0 L 369.0,403.0 L 315.0,471.0"/>
    <path d="M 63.0,597.0 L 110.0,602.0 L 317.0,538.0 L 391.0,530.0"/>
    <path d="M 227.0,234.0 L 273.0,285.0 L 262.0,663.0 L 257.0,680.0 L 252.0,857.0 L 241.0,943.0 L 241.0,1027.0"/>
    <path d="M 239.0,586.0 L 221.0,657.0 L 181.0,729.0 L 110.0,827.0 L 60.0,882.0"/>
    <path d="M 284.0,635.0 L 296.0,649.0 L 342.0,675.0 L 360.0,703.0"/>
    <path d="M 410.0,304.0 L 437.0,336.0 L 448.0,408.0 L 444.0,716.0 L 423.0,922.0 L 424.0,1016.0"/>
    <path d="M 474.0,346.0 L 483.0,334.0 L 496.0,331.0 L 586.0,322.0 L 807.0,278.0 L 833.0,284.0 L 868.0,314.0 L 877.0,861.0 L 874.0,946.0 L 861.0,981.0 L 865.0,1041.0"/>
    <path d="M 548.0,395.0 L 599.0,397.0 L 695.0,373.0 L 733.0,370.0"/>
    <path d="M 499.0,470.0 L 517.0,482.0 L 529.0,508.0 L 554.0,616.0"/>
    <path d="M 539.0,471.0 L 550.0,477.0 L 713.0,440.0 L 755.0,444.0 L 777.0,471.0 L 730.0,590.0"/>
    <path d="M 584.0,537.0 L 659.0,522.0 L 688.0,523.0"/>
    <path d="M 570.0,604.0 L 572.0,599.0 L 714.0,572.0"/>
    <path d="M 606.0,335.0 L 629.0,347.0 L 634.0,373.0 L 633.0,631.0 L 619.0,651.0"/>
    <path d="M 503.0,687.0 L 536.0,697.0 L 710.0,646.0 L 719.0,650.0"/>
    <path d="M 712.0,617.0 L 748.0,651.0 L 761.0,680.0"/>
    <path d="M 479.0,773.0 L 520.0,771.0 L 629.0,744.0 L 768.0,720.0 L 829.0,727.0"/>
    <path d="M 682.0,677.0 L 698.0,696.0 L 703.0,714.0 L 706.0,826.0 L 700.0,879.0 L 688.0,904.0 L 626.0,879.0"/>
    <path d="M 537.0,786.0 L 589.0,843.0"/>
    <path d="M 452.0,991.0 L 465.0,977.0 L 501.0,972.0 L 749.0,948.0 L 819.0,948.0"/>
  </g>
</svg>
