<svg xmlns="http://www.w3.org/2000/svg" viewBox="0 0 1024 1024">
  <g style="fill:none;stroke:#000000;stroke-width:50;stroke-linecap:round;stroke-linejoin:round;" transform="scale(1, 1) translate(0, 0)">
    <path d="M 140.0,403.0 L 201.0,454.0 L 215.0,490.0"/>
    <path d="M 383.0,358.0 L 398.0,382.0 L 340.0,451.0"/>
    <path d="M 100.0,579.0 L 129.0,584.0 L 182.0,578.0 L 341.0,537.0 L 404.0,532.0"/>
    <path d="M 255.0,219.0 L 301.0,269.0 L 292.0,664.0 L 272.0,935.0 L 273.0,1019.0"/>
    <path d="M 268.0,588.0 L 257.0,603.0 L 233.0,669.0 L 165.0,783.0 L 111.0,854.0 L 69.0,898.0"/>
    <path d="M 311.0,631.0 L 351.0,663.0 L 372.0,691.0"/>
    <path d="M 517.0,278.0 L 534.0,286.0 L 572.0,285.0 L 660.0,270.0 L 798.0,235.0 L 832.0,235.0 L 843.0,243.0"/>
    <path d="M 456.0,261.0 L 488.0,291.0 L 492.0,318.0 L 486.0,473.0 L 472.0,581.0 L 448.0,681.0 L 407.0,788.0 L 357.0,874.0 L 327.0,911.0"/>
    <path d="M 578.0,353.0 L 610.0,373.0 L 636.0,494.0"/>
    <path d="M 518.0,436.0 L 525.0,443.0 L 553.0,444.0 L 676.0,411.0"/>
    <path d="M 746.0,299.0 L 767.0,329.0 L 715.0,472.0"/>
    <path d="M 764.0,415.0 L 782.0,403.0 L 831.0,395.0 L 886.0,393.0 L 916.0,403.0"/>
    <path d="M 531.0,530.0 L 559.0,569.0 L 581.0,716.0"/>
    <path d="M 571.0,536.0 L 594.0,540.0 L 744.0,504.0 L 784.0,504.0 L 802.0,512.0 L 817.0,533.0 L 775.0,673.0 L 779.0,691.0"/>
    <path d="M 609.0,613.0 L 636.0,612.0 L 703.0,594.0 L 741.0,596.0"/>
    <path d="M 597.0,691.0 L 750.0,655.0"/>
    <path d="M 479.0,769.0 L 503.0,793.0 L 510.0,814.0 L 513.0,966.0 L 523.0,1002.0"/>
    <path d="M 526.0,783.0 L 543.0,792.0 L 643.0,765.0 L 823.0,738.0 L 857.0,738.0 L 870.0,747.0 L 884.0,770.0 L 876.0,841.0 L 878.0,920.0 L 866.0,987.0 L 859.0,996.0 L 846.0,994.0 L 782.0,969.0"/>
    <path d="M 640.0,545.0 L 670.0,567.0 L 669.0,831.0 L 655.0,854.0"/>
    <path d="M 562.0,891.0 L 600.0,900.0 L 721.0,855.0 L 731.0,856.0 L 743.0,847.0 L 751.0,851.0"/>
    <path d="M 745.0,803.0 L 790.0,856.0 L 802.0,892.0"/>
  </g>
</svg>
