<svg xmlns="http://www.w3.org/2000/svg" viewBox="0 0 1024 1024">
  <g style="fill:none;stroke:#000000;stroke-width:50;stroke-linecap:round;stroke-linejoin:round;" transform="scale(1, 1) translate(0, 0)">
    <path d="M 297.0,205.0 L 315.0,222.0 L 329.0,255.0 L 203.0,470.0 L 197.0,492.0 L 220.0,497.0 L 274.0,493.0 L 321.0,487.0 L 340.0,475.0"/>
    <path d="M 411.0,343.0 L 430.0,382.0 L 367.0,483.0 L 254.0,626.0 L 249.0,659.0 L 280.0,660.0 L 354.0,626.0 L 394.0,612.0 L 400.0,616.0"/>
    <path d="M 394.0,555.0 L 431.0,600.0 L 439.0,625.0"/>
    <path d="M 128.0,794.0 L 195.0,869.0 L 209.0,891.0 L 218.0,926.0"/>
    <path d="M 274.0,757.0 L 317.0,793.0 L 336.0,819.0"/>
    <path d="M 395.0,702.0 L 442.0,737.0 L 463.0,767.0"/>
    <path d="M 531.0,369.0 L 569.0,410.0 L 577.0,454.0 L 579.0,531.0 L 571.0,660.0 L 609.0,655.0 L 722.0,608.0 L 742.0,585.0"/>
    <path d="M 725.0,180.0 L 748.0,192.0 L 779.0,228.0 L 780.0,916.0 L 775.0,1087.0"/>
  </g>
</svg>
