<svg xmlns="http://www.w3.org/2000/svg" viewBox="0 0 1024 1024">
  <g style="fill:none;stroke:#000000;stroke-width:50;stroke-linecap:round;stroke-linejoin:round;" transform="scale(1, 1) translate(0, 0)">
    <path d="M 305.0,218.0 L 321.0,230.0 L 337.0,267.0 L 280.0,377.0 L 203.0,503.0 L 196.0,529.0 L 219.0,535.0 L 307.0,535.0 L 320.0,526.0"/>
    <path d="M 405.0,391.0 L 424.0,427.0 L 347.0,540.0 L 258.0,647.0 L 254.0,682.0 L 291.0,680.0 L 379.0,645.0 L 387.0,651.0"/>
    <path d="M 381.0,598.0 L 431.0,662.0"/>
    <path d="M 122.0,817.0 L 183.0,901.0 L 198.0,963.0"/>
    <path d="M 247.0,795.0 L 294.0,836.0 L 303.0,864.0"/>
    <path d="M 344.0,750.0 L 394.0,784.0 L 410.0,815.0"/>
    <path d="M 508.0,493.0 L 531.0,498.0 L 591.0,490.0 L 779.0,448.0 L 797.0,452.0 L 824.0,475.0 L 832.0,490.0 L 828.0,512.0 L 749.0,814.0 L 716.0,848.0"/>
    <path d="M 614.0,503.0 L 630.0,519.0 L 642.0,549.0 L 578.0,842.0 L 563.0,862.0 L 551.0,868.0"/>
    <path d="M 489.0,688.0 L 542.0,694.0 L 883.0,647.0 L 933.0,653.0 L 965.0,664.0"/>
    <path d="M 422.0,900.0 L 475.0,907.0 L 608.0,885.0 L 856.0,859.0 L 902.0,865.0 L 933.0,876.0"/>
  </g>
</svg>
