<svg xmlns="http://www.w3.org/2000/svg" viewBox="0 0 1024 1024">
  <g style="fill:none;stroke:#000000;stroke-width:50;stroke-linecap:round;stroke-linejoin:round;" transform="scale(1, 1) translate(0, 0)">
    <path d="M 297.0,218.0 L 312.0,236.0 L 321.0,273.0 L 206.0,438.0 L 182.0,485.0 L 225.0,492.0 L 304.0,489.0 L 327.0,478.0"/>
    <path d="M 396.0,372.0 L 413.0,412.0 L 327.0,519.0 L 216.0,637.0 L 205.0,674.0 L 236.0,675.0 L 334.0,638.0 L 371.0,628.0 L 375.0,633.0"/>
    <path d="M 377.0,580.0 L 413.0,635.0 L 421.0,663.0"/>
    <path d="M 132.0,784.0 L 182.0,883.0 L 186.0,933.0"/>
    <path d="M 253.0,759.0 L 298.0,825.0 L 302.0,842.0"/>
    <path d="M 347.0,719.0 L 398.0,769.0 L 411.0,805.0"/>
    <path d="M 481.0,309.0 L 503.0,319.0 L 536.0,321.0 L 727.0,259.0 L 763.0,261.0 L 789.0,289.0 L 775.0,313.0 L 679.0,413.0 L 675.0,424.0 L 664.0,423.0"/>
    <path d="M 588.0,410.0 L 654.0,457.0 L 680.0,499.0"/>
    <path d="M 462.0,583.0 L 485.0,590.0 L 513.0,589.0 L 597.0,563.0 L 795.0,520.0 L 845.0,522.0 L 863.0,534.0 L 877.0,557.0 L 810.0,631.0 L 800.0,634.0"/>
    <path d="M 635.0,577.0 L 664.0,594.0 L 677.0,620.0 L 681.0,919.0 L 674.0,966.0 L 653.0,1002.0 L 609.0,988.0 L 544.0,950.0"/>
  </g>
</svg>
