<svg xmlns="http://www.w3.org/2000/svg" viewBox="0 0 1024 1024">
  <g style="fill:none;stroke:#000000;stroke-width:50;stroke-linecap:round;stroke-linejoin:round;" transform="scale(1, 1) translate(0, 0)">
    <path d="M 290.0,214.0 L 306.0,230.0 L 321.0,263.0 L 251.0,401.0 L 183.0,517.0 L 181.0,539.0 L 213.0,541.0 L 293.0,528.0 L 316.0,513.0"/>
    <path d="M 379.0,388.0 L 399.0,426.0 L 338.0,527.0 L 240.0,659.0 L 234.0,698.0 L 266.0,698.0 L 350.0,658.0 L 374.0,650.0 L 379.0,654.0"/>
    <path d="M 382.0,606.0 L 422.0,655.0 L 430.0,676.0"/>
    <path d="M 135.0,835.0 L 190.0,913.0 L 202.0,963.0"/>
    <path d="M 262.0,794.0 L 306.0,845.0 L 313.0,862.0"/>
    <path d="M 354.0,735.0 L 406.0,787.0 L 414.0,814.0"/>
    <path d="M 581.0,235.0 L 589.0,245.0 L 673.0,291.0 L 708.0,340.0"/>
    <path d="M 455.0,516.0 L 506.0,523.0 L 855.0,448.0 L 905.0,444.0 L 938.0,450.0"/>
    <path d="M 659.0,638.0 L 769.0,667.0 L 801.0,698.0 L 752.0,865.0 L 718.0,940.0 L 695.0,970.0 L 664.0,991.0 L 567.0,927.0"/>
    <path d="M 619.0,528.0 L 652.0,558.0 L 627.0,621.0 L 572.0,721.0 L 481.0,841.0 L 416.0,903.0 L 367.0,941.0 L 355.0,943.0 L 351.0,951.0"/>
  </g>
</svg>
