<svg xmlns="http://www.w3.org/2000/svg" viewBox="0 0 1024 1024">
  <g style="fill:none;stroke:#000000;stroke-width:50;stroke-linecap:round;stroke-linejoin:round;" transform="scale(1, 1) translate(0, 0)">
    <path d="M 294.0,236.0 L 317.0,264.0 L 323.0,293.0 L 262.0,401.0 L 197.0,500.0 L 185.0,536.0 L 212.0,539.0 L 302.0,521.0 L 322.0,504.0"/>
    <path d="M 380.0,392.0 L 400.0,428.0 L 330.0,543.0 L 236.0,668.0 L 233.0,699.0 L 258.0,699.0 L 361.0,648.0 L 378.0,648.0"/>
    <path d="M 372.0,593.0 L 421.0,653.0"/>
    <path d="M 126.0,818.0 L 180.0,914.0 L 186.0,964.0"/>
    <path d="M 254.0,778.0 L 302.0,819.0 L 315.0,855.0"/>
    <path d="M 360.0,722.0 L 412.0,763.0 L 423.0,790.0"/>
    <path d="M 576.0,200.0 L 598.0,221.0 L 607.0,240.0 L 592.0,277.0 L 549.0,362.0 L 502.0,436.0 L 442.0,504.0"/>
    <path d="M 578.0,367.0 L 692.0,343.0 L 731.0,346.0 L 741.0,354.0 L 712.0,418.0 L 635.0,533.0 L 562.0,612.0 L 461.0,692.0"/>
    <path d="M 526.0,435.0 L 611.0,505.0 L 744.0,595.0 L 800.0,624.0 L 847.0,640.0 L 988.0,648.0"/>
    <path d="M 577.0,695.0 L 655.0,741.0 L 683.0,779.0"/>
    <path d="M 561.0,869.0 L 675.0,963.0 L 711.0,1024.0"/>
  </g>
</svg>
