<svg xmlns="http://www.w3.org/2000/svg" viewBox="0 0 1024 1024">
  <g style="fill:none;stroke:#000000;stroke-width:50;stroke-linecap:round;stroke-linejoin:round;" transform="scale(1, 1) translate(0, 0)">
    <path d="M 217.0,252.0 L 240.0,278.0 L 245.0,304.0 L 207.0,385.0 L 135.0,513.0 L 122.0,549.0 L 138.0,552.0 L 225.0,536.0 L 243.0,521.0"/>
    <path d="M 298.0,415.0 L 317.0,451.0 L 257.0,548.0 L 166.0,667.0 L 164.0,696.0 L 195.0,696.0 L 296.0,653.0"/>
    <path d="M 290.0,596.0 L 316.0,633.0 L 330.0,666.0"/>
    <path d="M 97.0,824.0 L 134.0,894.0 L 143.0,924.0 L 143.0,953.0"/>
    <path d="M 196.0,786.0 L 241.0,857.0 L 248.0,882.0"/>
    <path d="M 286.0,752.0 L 319.0,800.0 L 325.0,821.0"/>
    <path d="M 503.0,246.0 L 515.0,254.0 L 532.0,287.0 L 510.0,335.0 L 461.0,412.0 L 405.0,482.0 L 379.0,504.0"/>
    <path d="M 566.0,461.0 L 538.0,474.0 L 506.0,537.0 L 439.0,628.0 L 389.0,681.0 L 357.0,699.0 L 356.0,705.0"/>
    <path d="M 446.0,657.0 L 446.0,679.0 L 459.0,706.0 L 455.0,862.0 L 445.0,949.0 L 451.0,995.0"/>
    <path d="M 632.0,404.0 L 655.0,410.0 L 691.0,409.0 L 809.0,377.0 L 869.0,374.0"/>
    <path d="M 552.0,592.0 L 603.0,596.0 L 704.0,571.0 L 872.0,544.0 L 923.0,544.0 L 969.0,554.0"/>
    <path d="M 760.0,593.0 L 796.0,614.0 L 799.0,626.0 L 798.0,899.0 L 791.0,960.0 L 772.0,993.0 L 746.0,988.0 L 664.0,950.0"/>
  </g>
</svg>
