<svg xmlns="http://www.w3.org/2000/svg" viewBox="0 0 1024 1024">
  <g style="fill:none;stroke:#000000;stroke-width:50;stroke-linecap:round;stroke-linejoin:round;" transform="scale(1, 1) translate(0, 0)">
    <path d="M 263.0,250.0 L 287.0,278.0 L 291.0,302.0 L 172.0,502.0 L 157.0,539.0 L 179.0,544.0 L 232.0,542.0 L 276.0,538.0 L 290.0,528.0"/>
    <path d="M 357.0,416.0 L 376.0,451.0 L 325.0,533.0 L 227.0,655.0 L 219.0,688.0 L 225.0,694.0 L 246.0,695.0 L 311.0,669.0 L 354.0,658.0 L 360.0,663.0"/>
    <path d="M 356.0,602.0 L 390.0,657.0 L 397.0,680.0"/>
    <path d="M 124.0,816.0 L 176.0,915.0 L 183.0,941.0 L 182.0,973.0"/>
    <path d="M 238.0,783.0 L 281.0,841.0 L 291.0,860.0 L 294.0,885.0"/>
    <path d="M 342.0,750.0 L 384.0,798.0 L 396.0,824.0"/>
    <path d="M 501.0,455.0 L 510.0,460.0 L 562.0,461.0 L 719.0,427.0 L 780.0,424.0"/>
    <path d="M 598.0,243.0 L 644.0,283.0 L 634.0,547.0 L 617.0,573.0"/>
    <path d="M 444.0,616.0 L 489.0,622.0 L 775.0,575.0 L 816.0,574.0 L 870.0,586.0"/>
    <path d="M 482.0,784.0 L 552.0,790.0 L 759.0,752.0 L 789.0,757.0"/>
    <path d="M 607.0,643.0 L 631.0,672.0 L 638.0,707.0 L 634.0,906.0 L 617.0,929.0"/>
    <path d="M 390.0,971.0 L 441.0,981.0 L 620.0,955.0 L 813.0,938.0 L 865.0,943.0 L 910.0,958.0"/>
  </g>
</svg>
