<svg xmlns="http://www.w3.org/2000/svg" viewBox="0 0 1024 1024">
  <g style="fill:none;stroke:#000000;stroke-width:50;stroke-linecap:round;stroke-linejoin:round;" transform="scale(1, 1) translate(0, 0)">
    <path d="M 293.0,203.0 L 318.0,229.0 L 325.0,251.0 L 262.0,377.0 L 202.0,479.0 L 196.0,505.0 L 223.0,509.0 L 313.0,503.0 L 332.0,492.0"/>
    <path d="M 402.0,353.0 L 421.0,393.0 L 361.0,497.0 L 256.0,641.0 L 248.0,655.0 L 248.0,685.0 L 287.0,681.0 L 379.0,639.0 L 382.0,631.0"/>
    <path d="M 387.0,578.0 L 415.0,623.0 L 426.0,659.0"/>
    <path d="M 115.0,819.0 L 170.0,895.0 L 180.0,944.0"/>
    <path d="M 254.0,784.0 L 290.0,833.0 L 293.0,863.0"/>
    <path d="M 359.0,738.0 L 412.0,781.0 L 423.0,810.0"/>
    <path d="M 466.0,523.0 L 509.0,531.0 L 565.0,525.0 L 706.0,497.0 L 859.0,456.0 L 915.0,456.0"/>
    <path d="M 643.0,202.0 L 692.0,243.0 L 675.0,610.0 L 657.0,634.0"/>
    <path d="M 518.0,680.0 L 592.0,674.0 L 774.0,639.0 L 816.0,636.0 L 841.0,642.0"/>
    <path d="M 500.0,795.0 L 534.0,821.0 L 579.0,1005.0"/>
    <path d="M 567.0,823.0 L 587.0,807.0 L 780.0,771.0 L 803.0,775.0 L 835.0,810.0 L 797.0,896.0 L 768.0,910.0"/>
    <path d="M 598.0,981.0 L 615.0,966.0 L 756.0,946.0 L 808.0,945.0 L 838.0,955.0"/>
  </g>
</svg>
