<svg xmlns="http://www.w3.org/2000/svg" viewBox="0 0 1024 1024">
  <g style="fill:none;stroke:#000000;stroke-width:50;stroke-linecap:round;stroke-linejoin:round;" transform="scale(1, 1) translate(0, 0)">
    <path d="M 282.0,208.0 L 296.0,221.0 L 312.0,258.0 L 241.0,384.0 L 176.0,484.0 L 170.0,508.0 L 213.0,512.0 L 285.0,507.0 L 306.0,495.0"/>
    <path d="M 386.0,348.0 L 406.0,388.0 L 330.0,507.0 L 237.0,625.0 L 229.0,639.0 L 227.0,670.0 L 264.0,668.0 L 349.0,630.0 L 373.0,622.0 L 380.0,626.0"/>
    <path d="M 379.0,569.0 L 405.0,607.0 L 416.0,635.0"/>
    <path d="M 131.0,811.0 L 188.0,898.0 L 194.0,939.0"/>
    <path d="M 258.0,771.0 L 299.0,815.0 L 304.0,846.0"/>
    <path d="M 359.0,711.0 L 397.0,749.0 L 410.0,786.0"/>
    <path d="M 623.0,181.0 L 640.0,193.0 L 661.0,226.0 L 654.0,245.0 L 603.0,348.0 L 557.0,422.0 L 495.0,506.0 L 466.0,533.0"/>
    <path d="M 568.0,447.0 L 593.0,437.0 L 727.0,412.0 L 766.0,398.0 L 818.0,391.0 L 840.0,397.0 L 871.0,425.0 L 866.0,753.0 L 850.0,862.0 L 837.0,910.0 L 816.0,956.0 L 778.0,995.0 L 693.0,949.0"/>
    <path d="M 465.0,584.0 L 486.0,606.0 L 495.0,643.0 L 497.0,739.0 L 488.0,835.0 L 492.0,862.0"/>
    <path d="M 510.0,592.0 L 522.0,599.0 L 636.0,565.0 L 654.0,567.0 L 676.0,587.0 L 676.0,765.0 L 672.0,799.0 L 661.0,824.0 L 661.0,875.0"/>
    <path d="M 521.0,712.0 L 532.0,695.0 L 545.0,691.0 L 601.0,689.0"/>
    <path d="M 520.0,813.0 L 540.0,797.0 L 574.0,791.0 L 622.0,795.0"/>
  </g>
</svg>
