<svg xmlns="http://www.w3.org/2000/svg" viewBox="0 0 1024 1024">
  <g style="fill:none;stroke:#000000;stroke-width:50;stroke-linecap:round;stroke-linejoin:round;" transform="scale(1, 1) translate(0, 0)">
    <path d="M 273.0,233.0 L 296.0,258.0 L 304.0,283.0 L 191.0,480.0 L 179.0,513.0 L 207.0,517.0 L 292.0,505.0 L 311.0,490.0"/>
    <path d="M 377.0,368.0 L 398.0,410.0 L 315.0,532.0 L 216.0,657.0 L 211.0,691.0 L 239.0,693.0 L 310.0,664.0 L 333.0,658.0 L 340.0,663.0"/>
    <path d="M 329.0,592.0 L 383.0,668.0"/>
    <path d="M 95.0,810.0 L 161.0,893.0 L 172.0,939.0"/>
    <path d="M 216.0,778.0 L 271.0,820.0 L 282.0,846.0"/>
    <path d="M 323.0,730.0 L 378.0,781.0 L 385.0,810.0"/>
    <path d="M 570.0,228.0 L 591.0,239.0 L 616.0,270.0 L 607.0,311.0 L 576.0,407.0 L 514.0,551.0 L 453.0,661.0 L 428.0,689.0"/>
    <path d="M 617.0,376.0 L 623.0,393.0 L 690.0,460.0 L 759.0,525.0 L 831.0,581.0 L 881.0,598.0 L 1010.0,620.0"/>
    <path d="M 519.0,635.0 L 578.0,636.0 L 677.0,610.0 L 716.0,609.0"/>
    <path d="M 454.0,766.0 L 483.0,788.0 L 495.0,816.0 L 531.0,969.0"/>
    <path d="M 514.0,768.0 L 528.0,779.0 L 712.0,738.0 L 742.0,746.0 L 768.0,773.0 L 736.0,862.0 L 708.0,876.0"/>
    <path d="M 550.0,948.0 L 561.0,934.0 L 697.0,911.0 L 747.0,909.0 L 773.0,918.0"/>
  </g>
</svg>
