<svg xmlns="http://www.w3.org/2000/svg" viewBox="0 0 1024 1024">
  <g style="fill:none;stroke:#000000;stroke-width:50;stroke-linecap:round;stroke-linejoin:round;" transform="scale(1, 1) translate(0, 0)">
    <path d="M 267.0,244.0 L 282.0,257.0 L 297.0,293.0 L 168.0,506.0 L 162.0,527.0 L 185.0,532.0 L 272.0,527.0 L 292.0,516.0"/>
    <path d="M 353.0,402.0 L 371.0,439.0 L 302.0,544.0 L 202.0,672.0 L 198.0,701.0 L 220.0,707.0 L 299.0,674.0 L 338.0,662.0 L 344.0,667.0"/>
    <path d="M 336.0,607.0 L 375.0,661.0 L 384.0,694.0"/>
    <path d="M 114.0,837.0 L 175.0,928.0 L 184.0,977.0"/>
    <path d="M 239.0,795.0 L 285.0,847.0 L 296.0,885.0"/>
    <path d="M 341.0,755.0 L 372.0,785.0 L 391.0,816.0"/>
    <path d="M 565.0,237.0 L 590.0,269.0 L 575.0,310.0 L 525.0,390.0 L 472.0,452.0 L 450.0,468.0"/>
    <path d="M 567.0,371.0 L 683.0,349.0 L 703.0,352.0 L 727.0,366.0 L 652.0,481.0 L 619.0,512.0"/>
    <path d="M 409.0,545.0 L 433.0,565.0 L 441.0,586.0 L 472.0,743.0"/>
    <path d="M 461.0,549.0 L 482.0,560.0 L 595.0,540.0 L 734.0,506.0 L 772.0,507.0 L 807.0,540.0 L 764.0,634.0 L 737.0,651.0"/>
    <path d="M 490.0,701.0 L 498.0,708.0 L 535.0,705.0 L 727.0,676.0 L 773.0,676.0 L 793.0,682.0"/>
    <path d="M 574.0,560.0 L 598.0,578.0 L 609.0,596.0 L 582.0,724.0 L 537.0,848.0 L 499.0,908.0 L 442.0,970.0 L 385.0,1005.0 L 352.0,1016.0"/>
    <path d="M 634.0,737.0 L 659.0,769.0 L 648.0,890.0 L 652.0,957.0 L 662.0,986.0 L 692.0,1009.0 L 751.0,1023.0 L 815.0,1022.0 L 852.0,1015.0 L 894.0,993.0 L 904.0,981.0 L 904.0,832.0"/>
  </g>
</svg>
