<svg xmlns="http://www.w3.org/2000/svg" viewBox="0 0 1024 1024">
  <g style="fill:none;stroke:#000000;stroke-width:50;stroke-linecap:round;stroke-linejoin:round;" transform="scale(1, 1) translate(0, 0)">
    <path d="M 242.0,227.0 L 258.0,240.0 L 273.0,281.0 L 154.0,500.0 L 149.0,523.0 L 251.0,520.0 L 270.0,509.0"/>
    <path d="M 340.0,361.0 L 355.0,381.0 L 360.0,402.0 L 305.0,499.0 L 207.0,637.0 L 203.0,676.0 L 239.0,675.0 L 303.0,646.0 L 327.0,639.0 L 333.0,643.0"/>
    <path d="M 328.0,585.0 L 370.0,651.0"/>
    <path d="M 98.0,790.0 L 152.0,896.0 L 159.0,920.0 L 158.0,956.0"/>
    <path d="M 203.0,771.0 L 240.0,807.0 L 251.0,823.0 L 256.0,846.0"/>
    <path d="M 305.0,716.0 L 341.0,759.0 L 347.0,785.0"/>
    <path d="M 418.0,432.0 L 472.0,432.0 L 580.0,396.0 L 612.0,396.0"/>
    <path d="M 414.0,558.0 L 469.0,556.0 L 564.0,522.0 L 602.0,519.0"/>
    <path d="M 378.0,699.0 L 406.0,696.0 L 593.0,640.0 L 628.0,643.0"/>
    <path d="M 472.0,233.0 L 497.0,248.0 L 520.0,274.0 L 519.0,530.0 L 501.0,705.0 L 482.0,769.0 L 441.0,843.0 L 384.0,900.0 L 335.0,927.0"/>
    <path d="M 716.0,346.0 L 737.0,353.0 L 804.0,326.0 L 843.0,321.0 L 869.0,346.0 L 804.0,467.0 L 792.0,507.0 L 842.0,552.0 L 897.0,622.0 L 914.0,670.0 L 911.0,713.0 L 901.0,736.0 L 883.0,750.0 L 782.0,705.0"/>
    <path d="M 648.0,341.0 L 686.0,370.0 L 694.0,392.0 L 691.0,1084.0"/>
  </g>
</svg>
