<svg xmlns="http://www.w3.org/2000/svg" viewBox="0 0 1024 1024">
  <g style="fill:none;stroke:#000000;stroke-width:50;stroke-linecap:round;stroke-linejoin:round;" transform="scale(1, 1) translate(0, 0)">
    <path d="M 231.0,251.0 L 255.0,278.0 L 262.0,304.0 L 157.0,496.0 L 149.0,531.0 L 166.0,533.0 L 241.0,519.0 L 260.0,504.0"/>
    <path d="M 327.0,369.0 L 347.0,408.0 L 300.0,493.0 L 196.0,639.0 L 194.0,672.0 L 220.0,671.0 L 287.0,637.0 L 302.0,638.0"/>
    <path d="M 296.0,589.0 L 333.0,624.0 L 348.0,653.0"/>
    <path d="M 60.0,804.0 L 127.0,879.0 L 140.0,920.0"/>
    <path d="M 183.0,770.0 L 229.0,808.0 L 243.0,843.0"/>
    <path d="M 288.0,718.0 L 339.0,756.0 L 350.0,780.0"/>
    <path d="M 522.0,189.0 L 536.0,196.0 L 560.0,226.0 L 531.0,313.0 L 493.0,386.0 L 489.0,422.0 L 525.0,425.0 L 614.0,411.0 L 652.0,397.0"/>
    <path d="M 560.0,308.0 L 676.0,283.0 L 700.0,288.0 L 718.0,313.0 L 643.0,484.0 L 615.0,506.0"/>
    <path d="M 386.0,548.0 L 437.0,556.0 L 604.0,529.0 L 823.0,507.0 L 901.0,524.0"/>
    <path d="M 559.0,558.0 L 586.0,575.0 L 600.0,598.0 L 600.0,951.0 L 593.0,975.0 L 577.0,999.0 L 550.0,994.0 L 484.0,965.0"/>
    <path d="M 425.0,636.0 L 470.0,668.0 L 493.0,698.0"/>
    <path d="M 331.0,881.0 L 387.0,878.0 L 534.0,760.0"/>
    <path d="M 773.0,645.0 L 736.0,633.0 L 636.0,723.0"/>
    <path d="M 629.0,727.0 L 642.0,758.0 L 717.0,818.0 L 798.0,869.0 L 860.0,880.0 L 976.0,884.0"/>
  </g>
</svg>
