<svg xmlns="http://www.w3.org/2000/svg" viewBox="0 0 1024 1024">
  <g style="fill:none;stroke:#000000;stroke-width:50;stroke-linecap:round;stroke-linejoin:round;" transform="scale(1, 1) translate(0, 0)">
    <path d="M 267.0,324.0 L 314.0,334.0 L 368.0,333.0 L 598.0,303.0 L 703.0,282.0 L 758.0,283.0"/>
    <path d="M 355.0,244.0 L 396.0,289.0 L 411.0,524.0 L 397.0,539.0"/>
    <path d="M 577.0,188.0 L 615.0,227.0 L 590.0,495.0 L 572.0,520.0"/>
    <path d="M 434.0,421.0 L 442.0,410.0 L 469.0,403.0 L 503.0,398.0 L 533.0,403.0"/>
    <path d="M 438.0,494.0 L 443.0,484.0 L 477.0,477.0 L 540.0,478.0"/>
    <path d="M 186.0,584.0 L 241.0,591.0 L 427.0,561.0 L 748.0,528.0 L 783.0,529.0 L 840.0,545.0"/>
    <path d="M 392.0,618.0 L 365.0,621.0 L 308.0,692.0 L 239.0,757.0 L 135.0,822.0 L 87.0,841.0"/>
    <path d="M 587.0,563.0 L 611.0,578.0 L 707.0,672.0 L 780.0,726.0 L 867.0,751.0 L 958.0,762.0"/>
    <path d="M 473.0,594.0 L 484.0,613.0 L 486.0,635.0 L 455.0,668.0 L 387.0,712.0 L 383.0,725.0 L 404.0,738.0 L 481.0,748.0"/>
    <path d="M 585.0,653.0 L 591.0,690.0 L 503.0,757.0 L 417.0,807.0 L 423.0,824.0 L 402.0,845.0 L 427.0,845.0 L 565.0,817.0 L 609.0,813.0 L 616.0,820.0"/>
    <path d="M 597.0,759.0 L 642.0,807.0 L 660.0,846.0"/>
    <path d="M 501.0,846.0 L 518.0,859.0 L 530.0,888.0 L 532.0,981.0 L 519.0,1020.0 L 508.0,1032.0 L 477.0,1021.0 L 414.0,985.0"/>
    <path d="M 351.0,904.0 L 330.0,957.0 L 291.0,1020.0"/>
    <path d="M 632.0,892.0 L 705.0,952.0 L 719.0,970.0 L 732.0,1010.0"/>
  </g>
</svg>
