<svg xmlns="http://www.w3.org/2000/svg" viewBox="0 0 1024 1024">
  <g style="fill:none;stroke:#000000;stroke-width:50;stroke-linecap:round;stroke-linejoin:round;" transform="scale(1, 1) translate(0, 0)">
    <path d="M 262.0,211.0 L 287.0,238.0 L 294.0,264.0 L 171.0,488.0 L 166.0,511.0 L 191.0,514.0 L 246.0,505.0 L 292.0,490.0 L 299.0,481.0"/>
    <path d="M 352.0,369.0 L 367.0,389.0 L 370.0,412.0 L 326.0,490.0 L 226.0,632.0 L 220.0,671.0 L 254.0,670.0 L 319.0,638.0 L 343.0,630.0 L 349.0,634.0"/>
    <path d="M 343.0,573.0 L 370.0,605.0 L 393.0,654.0"/>
    <path d="M 131.0,781.0 L 156.0,883.0 L 149.0,931.0"/>
    <path d="M 245.0,752.0 L 274.0,813.0 L 271.0,844.0"/>
    <path d="M 341.0,707.0 L 374.0,762.0 L 375.0,790.0"/>
    <path d="M 447.0,322.0 L 474.0,351.0 L 485.0,377.0 L 487.0,441.0 L 475.0,717.0 L 449.0,878.0 L 447.0,935.0"/>
    <path d="M 501.0,335.0 L 526.0,347.0 L 820.0,288.0 L 852.0,301.0 L 874.0,325.0 L 887.0,788.0 L 885.0,910.0 L 864.0,964.0 L 820.0,952.0 L 763.0,922.0"/>
    <path d="M 562.0,402.0 L 601.0,438.0 L 612.0,472.0"/>
    <path d="M 715.0,357.0 L 738.0,381.0 L 714.0,429.0 L 677.0,483.0"/>
    <path d="M 536.0,549.0 L 584.0,545.0 L 776.0,500.0 L 807.0,505.0"/>
    <path d="M 629.0,567.0 L 660.0,601.0 L 660.0,626.0"/>
    <path d="M 511.0,662.0 L 542.0,669.0 L 726.0,633.0 L 788.0,626.0 L 821.0,630.0"/>
    <path d="M 596.0,686.0 L 576.0,709.0 L 574.0,728.0 L 580.0,780.0 L 604.0,806.0 L 668.0,814.0 L 724.0,803.0 L 754.0,790.0 L 796.0,792.0"/>
  </g>
</svg>
