<svg xmlns="http://www.w3.org/2000/svg" viewBox="0 0 1024 1024">
  <g style="fill:none;stroke:#000000;stroke-width:50;stroke-linecap:round;stroke-linejoin:round;" transform="scale(1, 1) translate(0, 0)">
    <path d="M 259.0,219.0 L 283.0,246.0 L 290.0,272.0 L 192.0,450.0 L 173.0,499.0 L 196.0,503.0 L 269.0,494.0 L 292.0,477.0"/>
    <path d="M 354.0,341.0 L 378.0,378.0 L 320.0,485.0 L 213.0,645.0 L 207.0,680.0 L 226.0,680.0 L 337.0,634.0 L 344.0,639.0"/>
    <path d="M 337.0,577.0 L 378.0,628.0 L 390.0,655.0"/>
    <path d="M 91.0,793.0 L 150.0,874.0 L 158.0,913.0"/>
    <path d="M 215.0,775.0 L 264.0,830.0 L 271.0,860.0"/>
    <path d="M 323.0,718.0 L 365.0,751.0 L 375.0,778.0"/>
    <path d="M 780.0,225.0 L 706.0,227.0 L 625.0,295.0 L 541.0,346.0 L 532.0,346.0 L 526.0,355.0 L 511.0,356.0 L 509.0,364.0"/>
    <path d="M 467.0,413.0 L 514.0,475.0 L 518.0,505.0"/>
    <path d="M 590.0,370.0 L 632.0,423.0 L 636.0,440.0"/>
    <path d="M 778.0,316.0 L 806.0,355.0 L 779.0,390.0 L 681.0,484.0"/>
    <path d="M 460.0,636.0 L 511.0,640.0 L 809.0,583.0 L 893.0,594.0"/>
    <path d="M 605.0,521.0 L 634.0,558.0 L 625.0,990.0 L 638.0,1062.0"/>
    <path d="M 606.0,645.0 L 587.0,666.0 L 571.0,705.0 L 526.0,775.0 L 475.0,835.0 L 406.0,899.0 L 317.0,958.0"/>
    <path d="M 659.0,635.0 L 689.0,684.0 L 761.0,765.0 L 845.0,846.0 L 985.0,875.0"/>
  </g>
</svg>
