<svg xmlns="http://www.w3.org/2000/svg" viewBox="0 0 1024 1024">
  <g style="fill:none;stroke:#000000;stroke-width:50;stroke-linecap:round;stroke-linejoin:round;" transform="scale(1, 1) translate(0, 0)">
    <path d="M 253.0,234.0 L 267.0,249.0 L 281.0,280.0 L 221.0,392.0 L 153.0,499.0 L 138.0,539.0 L 159.0,543.0 L 231.0,536.0 L 263.0,526.0 L 270.0,518.0"/>
    <path d="M 338.0,392.0 L 355.0,431.0 L 296.0,525.0 L 189.0,662.0 L 184.0,697.0 L 213.0,698.0 L 316.0,656.0 L 337.0,655.0"/>
    <path d="M 333.0,600.0 L 373.0,676.0"/>
    <path d="M 107.0,853.0 L 157.0,928.0 L 168.0,977.0"/>
    <path d="M 206.0,811.0 L 258.0,863.0 L 266.0,890.0"/>
    <path d="M 299.0,754.0 L 358.0,803.0 L 367.0,829.0"/>
    <path d="M 505.0,280.0 L 533.0,313.0 L 503.0,399.0 L 484.0,437.0 L 439.0,499.0 L 385.0,549.0"/>
    <path d="M 512.0,434.0 L 530.0,423.0 L 599.0,406.0 L 620.0,407.0 L 635.0,422.0 L 598.0,512.0 L 546.0,591.0 L 464.0,679.0 L 406.0,716.0"/>
    <path d="M 452.0,525.0 L 479.0,527.0 L 521.0,542.0 L 689.0,654.0 L 783.0,699.0 L 849.0,704.0 L 970.0,694.0"/>
    <path d="M 753.0,323.0 L 780.0,350.0 L 761.0,420.0 L 721.0,498.0 L 672.0,553.0"/>
    <path d="M 749.0,497.0 L 763.0,494.0 L 812.0,524.0 L 839.0,546.0 L 852.0,567.0"/>
    <path d="M 456.0,784.0 L 484.0,808.0 L 490.0,824.0 L 520.0,1016.0"/>
    <path d="M 519.0,793.0 L 531.0,804.0 L 710.0,769.0 L 748.0,775.0 L 774.0,803.0 L 738.0,895.0 L 711.0,907.0"/>
    <path d="M 540.0,948.0 L 555.0,961.0 L 723.0,943.0 L 759.0,944.0 L 784.0,955.0"/>
  </g>
</svg>
