<svg xmlns="http://www.w3.org/2000/svg" viewBox="0 0 1024 1024">
  <g style="fill:none;stroke:#000000;stroke-width:50;stroke-linecap:round;stroke-linejoin:round;" transform="scale(1, 1) translate(0, 0)">
    <path d="M 261.0,266.0 L 275.0,279.0 L 289.0,313.0 L 243.0,401.0 L 170.0,519.0 L 165.0,539.0 L 228.0,543.0 L 283.0,536.0 L 291.0,528.0"/>
    <path d="M 357.0,419.0 L 375.0,455.0 L 322.0,535.0 L 211.0,667.0 L 205.0,699.0 L 242.0,703.0 L 306.0,678.0 L 330.0,672.0 L 336.0,677.0"/>
    <path d="M 333.0,615.0 L 362.0,656.0 L 376.0,692.0"/>
    <path d="M 102.0,849.0 L 160.0,940.0 L 169.0,989.0"/>
    <path d="M 210.0,810.0 L 260.0,865.0 L 272.0,905.0"/>
    <path d="M 307.0,766.0 L 350.0,814.0 L 363.0,839.0"/>
    <path d="M 439.0,311.0 L 474.0,342.0 L 482.0,363.0 L 510.0,539.0 L 527.0,593.0"/>
    <path d="M 510.0,350.0 L 516.0,336.0 L 687.0,293.0 L 730.0,291.0 L 756.0,311.0 L 766.0,325.0 L 736.0,465.0 L 710.0,546.0 L 715.0,568.0"/>
    <path d="M 527.0,460.0 L 535.0,451.0 L 622.0,428.0 L 668.0,430.0"/>
    <path d="M 544.0,562.0 L 559.0,552.0 L 674.0,526.0"/>
    <path d="M 497.0,775.0 L 511.0,763.0 L 548.0,750.0 L 591.0,743.0 L 616.0,747.0"/>
    <path d="M 434.0,652.0 L 458.0,674.0 L 468.0,700.0 L 472.0,818.0 L 464.0,897.0 L 467.0,919.0 L 508.0,913.0 L 614.0,847.0"/>
    <path d="M 862.0,675.0 L 824.0,660.0 L 713.0,744.0 L 699.0,746.0 L 686.0,765.0"/>
    <path d="M 637.0,616.0 L 664.0,647.0 L 662.0,863.0 L 674.0,921.0 L 696.0,951.0 L 751.0,973.0 L 793.0,977.0 L 861.0,969.0 L 907.0,950.0 L 929.0,928.0 L 936.0,804.0"/>
  </g>
</svg>
