<svg xmlns="http://www.w3.org/2000/svg" viewBox="0 0 1024 1024">
  <g style="fill:none;stroke:#000000;stroke-width:50;stroke-linecap:round;stroke-linejoin:round;" transform="scale(1, 1) translate(0, 0)">
    <path d="M 284.0,203.0 L 298.0,215.0 L 314.0,250.0 L 198.0,462.0 L 194.0,483.0 L 246.0,484.0 L 303.0,476.0 L 321.0,462.0"/>
    <path d="M 385.0,343.0 L 404.0,380.0 L 342.0,480.0 L 242.0,609.0 L 236.0,644.0 L 260.0,647.0 L 341.0,615.0 L 360.0,616.0"/>
    <path d="M 358.0,556.0 L 392.0,608.0 L 398.0,633.0"/>
    <path d="M 87.0,769.0 L 151.0,849.0 L 162.0,893.0"/>
    <path d="M 219.0,743.0 L 263.0,789.0 L 267.0,809.0"/>
    <path d="M 324.0,703.0 L 368.0,736.0 L 382.0,769.0"/>
    <path d="M 610.0,173.0 L 624.0,179.0 L 648.0,204.0 L 582.0,339.0 L 560.0,359.0"/>
    <path d="M 482.0,378.0 L 518.0,415.0 L 563.0,589.0"/>
    <path d="M 523.0,376.0 L 556.0,382.0 L 610.0,362.0 L 756.0,329.0 L 786.0,330.0 L 802.0,338.0 L 824.0,369.0 L 803.0,422.0 L 766.0,558.0"/>
    <path d="M 567.0,476.0 L 573.0,468.0 L 666.0,446.0 L 708.0,449.0"/>
    <path d="M 580.0,576.0 L 600.0,565.0 L 709.0,542.0 L 731.0,543.0 L 738.0,551.0"/>
    <path d="M 464.0,684.0 L 483.0,701.0 L 491.0,723.0 L 482.0,883.0"/>
    <path d="M 505.0,686.0 L 523.0,693.0 L 752.0,647.0 L 834.0,641.0 L 849.0,648.0 L 864.0,660.0 L 866.0,724.0 L 858.0,841.0 L 842.0,869.0 L 772.0,844.0"/>
    <path d="M 612.0,579.0 L 653.0,605.0 L 660.0,622.0 L 659.0,1092.0"/>
  </g>
</svg>
