<svg xmlns="http://www.w3.org/2000/svg" viewBox="0 0 1024 1024">
  <g style="fill:none;stroke:#000000;stroke-width:50;stroke-linecap:round;stroke-linejoin:round;" transform="scale(1, 1) translate(0, 0)">
    <path d="M 262.0,231.0 L 282.0,256.0 L 287.0,283.0 L 221.0,407.0 L 159.0,507.0 L 153.0,532.0 L 262.0,532.0 L 280.0,522.0"/>
    <path d="M 344.0,396.0 L 365.0,432.0 L 304.0,533.0 L 219.0,646.0 L 204.0,672.0 L 201.0,694.0 L 244.0,689.0 L 326.0,660.0 L 342.0,663.0"/>
    <path d="M 342.0,607.0 L 384.0,676.0"/>
    <path d="M 118.0,837.0 L 179.0,928.0 L 188.0,977.0"/>
    <path d="M 223.0,799.0 L 272.0,854.0 L 279.0,884.0"/>
    <path d="M 307.0,762.0 L 347.0,805.0 L 359.0,829.0"/>
    <path d="M 536.0,339.0 L 577.0,371.0 L 583.0,404.0 L 585.0,631.0 L 573.0,723.0 L 545.0,815.0 L 512.0,877.0 L 448.0,957.0 L 401.0,992.0"/>
    <path d="M 427.0,510.0 L 450.0,515.0 L 508.0,507.0 L 544.0,498.0 L 558.0,483.0"/>
    <path d="M 423.0,638.0 L 481.0,636.0 L 538.0,620.0 L 559.0,604.0"/>
    <path d="M 408.0,787.0 L 419.0,793.0 L 462.0,794.0 L 640.0,699.0"/>
    <path d="M 669.0,229.0 L 698.0,253.0 L 721.0,286.0 L 723.0,783.0 L 712.0,932.0 L 716.0,1028.0"/>
    <path d="M 749.0,451.0 L 764.0,438.0 L 847.0,420.0 L 892.0,419.0"/>
    <path d="M 752.0,584.0 L 772.0,592.0 L 868.0,574.0 L 891.0,577.0"/>
    <path d="M 752.0,764.0 L 770.0,750.0 L 882.0,734.0 L 905.0,734.0 L 939.0,746.0"/>
  </g>
</svg>
