<svg xmlns="http://www.w3.org/2000/svg" viewBox="0 0 1024 1024">
  <g style="fill:none;stroke:#000000;stroke-width:50;stroke-linecap:round;stroke-linejoin:round;" transform="scale(1, 1) translate(0, 0)">
    <path d="M 244.0,235.0 L 267.0,244.0 L 307.0,243.0 L 430.0,217.0 L 458.0,214.0 L 479.0,219.0"/>
    <path d="M 351.0,258.0 L 366.0,273.0 L 364.0,302.0 L 347.0,316.0"/>
    <path d="M 254.0,363.0 L 266.0,354.0 L 438.0,322.0 L 455.0,331.0 L 465.0,350.0 L 449.0,384.0 L 427.0,394.0"/>
    <path d="M 255.0,457.0 L 266.0,449.0 L 413.0,424.0 L 452.0,423.0 L 474.0,429.0"/>
    <path d="M 347.0,451.0 L 364.0,471.0 L 362.0,494.0 L 347.0,505.0"/>
    <path d="M 201.0,223.0 L 231.0,264.0 L 235.0,350.0 L 226.0,556.0 L 264.0,556.0 L 408.0,521.0 L 447.0,527.0"/>
    <path d="M 562.0,258.0 L 630.0,256.0 L 689.0,237.0 L 727.0,239.0 L 747.0,248.0 L 722.0,331.0 L 676.0,405.0 L 630.0,444.0 L 581.0,470.0 L 518.0,484.0"/>
    <path d="M 529.0,313.0 L 562.0,324.0 L 681.0,433.0 L 795.0,508.0 L 818.0,515.0 L 938.0,514.0"/>
    <path d="M 479.0,505.0 L 492.0,532.0 L 491.0,554.0 L 410.0,630.0 L 383.0,666.0 L 402.0,675.0 L 452.0,682.0 L 498.0,678.0"/>
    <path d="M 593.0,577.0 L 602.0,617.0 L 517.0,691.0 L 415.0,765.0 L 396.0,800.0 L 422.0,806.0 L 534.0,778.0 L 626.0,765.0"/>
    <path d="M 611.0,710.0 L 670.0,762.0 L 693.0,806.0"/>
    <path d="M 489.0,809.0 L 507.0,822.0 L 522.0,856.0 L 524.0,957.0 L 517.0,1007.0 L 502.0,1032.0 L 403.0,989.0"/>
    <path d="M 314.0,862.0 L 286.0,933.0 L 252.0,979.0 L 239.0,1008.0"/>
    <path d="M 654.0,860.0 L 760.0,942.0 L 782.0,979.0 L 786.0,999.0"/>
  </g>
</svg>
