<svg xmlns="http://www.w3.org/2000/svg" viewBox="0 0 1024 1024">
  <g style="fill:none;stroke:#000000;stroke-width:50;stroke-linecap:round;stroke-linejoin:round;" transform="scale(1, 1) translate(0, 0)">
    <path d="M 270.0,247.0 L 286.0,260.0 L 301.0,301.0 L 182.0,520.0 L 176.0,544.0 L 283.0,542.0 L 302.0,531.0"/>
    <path d="M 361.0,419.0 L 379.0,458.0 L 319.0,551.0 L 234.0,660.0 L 228.0,696.0 L 256.0,698.0 L 352.0,662.0 L 354.0,656.0"/>
    <path d="M 356.0,613.0 L 387.0,655.0 L 402.0,687.0"/>
    <path d="M 114.0,813.0 L 164.0,900.0 L 169.0,947.0"/>
    <path d="M 227.0,783.0 L 274.0,832.0 L 279.0,853.0"/>
    <path d="M 331.0,723.0 L 369.0,761.0 L 382.0,798.0"/>
    <path d="M 511.0,439.0 L 566.0,442.0 L 676.0,409.0 L 729.0,409.0"/>
    <path d="M 578.0,191.0 L 624.0,231.0 L 610.0,523.0 L 593.0,548.0"/>
    <path d="M 420.0,596.0 L 471.0,600.0 L 641.0,560.0 L 869.0,521.0 L 918.0,522.0 L 951.0,530.0"/>
    <path d="M 783.0,311.0 L 805.0,339.0 L 813.0,369.0 L 809.0,381.0 L 736.0,511.0 L 662.0,617.0 L 507.0,793.0 L 381.0,907.0 L 284.0,972.0"/>
    <path d="M 522.0,702.0 L 540.0,730.0 L 547.0,761.0 L 536.0,948.0 L 541.0,1004.0"/>
    <path d="M 571.0,751.0 L 578.0,720.0 L 729.0,678.0 L 755.0,683.0 L 781.0,710.0 L 784.0,910.0 L 772.0,969.0 L 769.0,973.0 L 733.0,961.0 L 705.0,930.0 L 695.0,928.0"/>
    <path d="M 566.0,832.0 L 578.0,830.0 L 583.0,819.0 L 625.0,809.0 L 661.0,805.0 L 684.0,811.0"/>
    <path d="M 567.0,974.0 L 579.0,959.0 L 677.0,946.0 L 702.0,965.0"/>
  </g>
</svg>
