<svg xmlns="http://www.w3.org/2000/svg" viewBox="0 0 1024 1024">
  <g style="fill:none;stroke:#000000;stroke-width:50;stroke-linecap:round;stroke-linejoin:round;" transform="scale(1, 1) translate(0, 0)">
    <path d="M 274.0,239.0 L 296.0,267.0 L 301.0,289.0 L 195.0,476.0 L 189.0,500.0 L 238.0,504.0 L 319.0,488.0"/>
    <path d="M 379.0,376.0 L 396.0,410.0 L 340.0,495.0 L 233.0,629.0 L 225.0,666.0 L 256.0,666.0 L 340.0,630.0 L 352.0,630.0 L 353.0,623.0"/>
    <path d="M 352.0,572.0 L 401.0,649.0"/>
    <path d="M 106.0,798.0 L 164.0,895.0 L 171.0,946.0"/>
    <path d="M 238.0,764.0 L 272.0,812.0 L 281.0,838.0"/>
    <path d="M 336.0,708.0 L 368.0,744.0 L 380.0,768.0"/>
    <path d="M 500.0,284.0 L 537.0,321.0 L 575.0,443.0"/>
    <path d="M 530.0,277.0 L 562.0,287.0 L 697.0,255.0 L 736.0,255.0 L 762.0,286.0 L 737.0,345.0 L 710.0,357.0"/>
    <path d="M 591.0,419.0 L 605.0,408.0 L 699.0,388.0 L 763.0,390.0"/>
    <path d="M 420.0,515.0 L 446.0,523.0 L 483.0,521.0 L 800.0,470.0 L 855.0,478.0"/>
    <path d="M 488.0,547.0 L 517.0,569.0 L 513.0,789.0 L 498.0,802.0"/>
    <path d="M 676.0,518.0 L 717.0,539.0 L 720.0,559.0 L 711.0,1120.0"/>
    <path d="M 545.0,629.0 L 554.0,617.0 L 582.0,610.0 L 624.0,607.0 L 644.0,612.0"/>
    <path d="M 539.0,722.0 L 565.0,708.0 L 593.0,702.0 L 628.0,699.0 L 648.0,704.0"/>
    <path d="M 382.0,836.0 L 435.0,844.0 L 636.0,815.0 L 844.0,795.0 L 903.0,801.0 L 932.0,808.0 L 943.0,817.0"/>
  </g>
</svg>
