<svg xmlns="http://www.w3.org/2000/svg" viewBox="0 0 1024 1024">
  <g style="fill:none;stroke:#000000;stroke-width:50;stroke-linecap:round;stroke-linejoin:round;" transform="scale(1, 1) translate(0, 0)">
    <path d="M 287.0,215.0 L 303.0,229.0 L 316.0,265.0 L 206.0,440.0 L 191.0,479.0 L 236.0,483.0 L 295.0,476.0 L 306.0,467.0"/>
    <path d="M 377.0,340.0 L 391.0,361.0 L 393.0,382.0 L 334.0,476.0 L 228.0,611.0 L 221.0,648.0 L 242.0,650.0 L 306.0,623.0 L 330.0,616.0 L 336.0,620.0"/>
    <path d="M 336.0,573.0 L 367.0,612.0 L 381.0,641.0"/>
    <path d="M 122.0,785.0 L 167.0,868.0 L 172.0,914.0"/>
    <path d="M 237.0,746.0 L 279.0,791.0 L 288.0,825.0"/>
    <path d="M 331.0,703.0 L 375.0,749.0 L 379.0,769.0"/>
    <path d="M 588.0,176.0 L 656.0,214.0 L 684.0,252.0"/>
    <path d="M 513.0,354.0 L 541.0,359.0 L 599.0,355.0 L 763.0,314.0 L 821.0,313.0"/>
    <path d="M 531.0,416.0 L 566.0,448.0 L 581.0,474.0"/>
    <path d="M 713.0,358.0 L 739.0,386.0 L 693.0,483.0 L 673.0,498.0"/>
    <path d="M 463.0,507.0 L 473.0,538.0 L 444.0,612.0 L 441.0,641.0"/>
    <path d="M 494.0,561.0 L 509.0,552.0 L 590.0,532.0 L 748.0,501.0 L 851.0,488.0 L 876.0,499.0 L 892.0,526.0 L 824.0,599.0"/>
    <path d="M 473.0,686.0 L 489.0,701.0 L 499.0,726.0 L 496.0,791.0 L 486.0,843.0 L 488.0,876.0"/>
    <path d="M 510.0,686.0 L 538.0,697.0 L 735.0,654.0 L 772.0,650.0 L 788.0,656.0 L 809.0,674.0 L 810.0,792.0 L 800.0,836.0 L 793.0,847.0 L 784.0,849.0 L 701.0,814.0"/>
    <path d="M 591.0,556.0 L 634.0,586.0 L 636.0,612.0 L 627.0,1108.0"/>
  </g>
</svg>
