<svg xmlns="http://www.w3.org/2000/svg" viewBox="0 0 1024 1024">
  <g style="fill:none;stroke:#000000;stroke-width:50;stroke-linecap:round;stroke-linejoin:round;" transform="scale(1, 1) translate(0, 0)">
    <path d="M 253.0,231.0 L 267.0,243.0 L 280.0,283.0 L 167.0,482.0 L 153.0,520.0 L 178.0,525.0 L 234.0,521.0 L 261.0,517.0 L 276.0,508.0"/>
    <path d="M 345.0,371.0 L 366.0,413.0 L 316.0,499.0 L 212.0,636.0 L 207.0,673.0 L 242.0,674.0 L 308.0,645.0 L 323.0,647.0"/>
    <path d="M 324.0,597.0 L 354.0,635.0 L 365.0,661.0"/>
    <path d="M 98.0,802.0 L 150.0,905.0 L 157.0,930.0 L 155.0,963.0"/>
    <path d="M 215.0,780.0 L 264.0,845.0 L 267.0,873.0"/>
    <path d="M 313.0,742.0 L 353.0,788.0 L 361.0,828.0"/>
    <path d="M 491.0,357.0 L 534.0,365.0 L 608.0,360.0 L 772.0,323.0 L 815.0,318.0 L 839.0,322.0"/>
    <path d="M 562.0,389.0 L 598.0,425.0 L 566.0,523.0 L 550.0,561.0 L 539.0,572.0"/>
    <path d="M 392.0,572.0 L 420.0,600.0 L 432.0,628.0 L 448.0,892.0 L 460.0,949.0"/>
    <path d="M 443.0,586.0 L 472.0,599.0 L 507.0,597.0 L 820.0,547.0 L 841.0,552.0 L 862.0,567.0 L 877.0,584.0 L 865.0,656.0 L 843.0,895.0 L 821.0,934.0 L 822.0,997.0"/>
    <path d="M 532.0,616.0 L 553.0,634.0 L 557.0,669.0 L 563.0,874.0 L 562.0,882.0 L 550.0,891.0"/>
    <path d="M 674.0,590.0 L 702.0,613.0 L 698.0,857.0 L 682.0,874.0"/>
    <path d="M 586.0,703.0 L 595.0,691.0 L 620.0,687.0 L 649.0,692.0"/>
    <path d="M 588.0,802.0 L 606.0,788.0 L 653.0,788.0"/>
    <path d="M 478.0,934.0 L 490.0,923.0 L 510.0,919.0 L 790.0,895.0"/>
  </g>
</svg>
