<svg xmlns="http://www.w3.org/2000/svg" viewBox="0 0 1024 1024">
  <g style="fill:none;stroke:#000000;stroke-width:50;stroke-linecap:round;stroke-linejoin:round;" transform="scale(1, 1) translate(0, 0)">
    <path d="M 255.0,260.0 L 270.0,276.0 L 281.0,309.0 L 184.0,484.0 L 165.0,531.0 L 187.0,535.0 L 272.0,526.0 L 291.0,513.0"/>
    <path d="M 346.0,408.0 L 365.0,443.0 L 303.0,540.0 L 208.0,665.0 L 201.0,696.0 L 204.0,701.0 L 225.0,701.0 L 300.0,667.0 L 337.0,661.0"/>
    <path d="M 325.0,615.0 L 360.0,655.0 L 371.0,687.0"/>
    <path d="M 98.0,810.0 L 147.0,901.0 L 152.0,950.0"/>
    <path d="M 221.0,774.0 L 254.0,815.0 L 267.0,845.0"/>
    <path d="M 306.0,731.0 L 335.0,761.0 L 346.0,784.0"/>
    <path d="M 602.0,215.0 L 696.0,250.0 L 727.0,282.0"/>
    <path d="M 533.0,419.0 L 545.0,429.0 L 712.0,382.0 L 733.0,383.0 L 765.0,412.0 L 735.0,485.0 L 709.0,505.0"/>
    <path d="M 512.0,571.0 L 699.0,530.0 L 766.0,531.0"/>
    <path d="M 475.0,403.0 L 500.0,433.0 L 503.0,445.0 L 476.0,591.0 L 440.0,714.0 L 407.0,795.0 L 377.0,848.0 L 342.0,901.0 L 268.0,981.0"/>
    <path d="M 467.0,712.0 L 481.0,747.0 L 486.0,810.0 L 485.0,867.0 L 471.0,944.0 L 473.0,990.0"/>
    <path d="M 479.0,711.0 L 509.0,719.0 L 768.0,662.0 L 814.0,657.0 L 857.0,665.0 L 871.0,679.0 L 874.0,731.0 L 868.0,895.0 L 856.0,968.0 L 841.0,992.0 L 759.0,956.0"/>
    <path d="M 524.0,817.0 L 565.0,817.0 L 752.0,782.0 L 795.0,788.0"/>
    <path d="M 567.0,722.0 L 588.0,742.0 L 594.0,908.0"/>
    <path d="M 678.0,706.0 L 701.0,720.0 L 705.0,730.0 L 692.0,973.0"/>
  </g>
</svg>
