<svg xmlns="http://www.w3.org/2000/svg" viewBox="0 0 1024 1024">
  <g style="fill:none;stroke:#000000;stroke-width:50;stroke-linecap:round;stroke-linejoin:round;" transform="scale(1, 1) translate(0, 0)">
    <path d="M 226.0,250.0 L 243.0,266.0 L 258.0,298.0 L 149.0,494.0 L 142.0,527.0 L 215.0,520.0 L 235.0,515.0 L 252.0,501.0"/>
    <path d="M 307.0,389.0 L 328.0,427.0 L 259.0,544.0 L 178.0,653.0 L 173.0,691.0 L 209.0,691.0 L 297.0,655.0 L 306.0,660.0"/>
    <path d="M 291.0,596.0 L 338.0,645.0 L 353.0,671.0"/>
    <path d="M 67.0,833.0 L 117.0,908.0 L 128.0,957.0"/>
    <path d="M 183.0,786.0 L 231.0,836.0 L 239.0,867.0"/>
    <path d="M 292.0,734.0 L 338.0,775.0 L 348.0,805.0"/>
    <path d="M 479.0,363.0 L 503.0,368.0 L 541.0,364.0 L 671.0,324.0 L 723.0,321.0"/>
    <path d="M 392.0,472.0 L 416.0,493.0 L 426.0,511.0 L 468.0,686.0"/>
    <path d="M 436.0,474.0 L 459.0,484.0 L 710.0,429.0 L 748.0,425.0 L 780.0,431.0 L 807.0,471.0 L 729.0,643.0"/>
    <path d="M 496.0,534.0 L 527.0,559.0 L 541.0,581.0"/>
    <path d="M 674.0,488.0 L 694.0,510.0 L 643.0,583.0"/>
    <path d="M 486.0,665.0 L 501.0,654.0 L 636.0,631.0 L 690.0,625.0 L 702.0,635.0"/>
    <path d="M 553.0,171.0 L 581.0,193.0 L 605.0,225.0 L 598.0,775.0 L 581.0,993.0 L 582.0,1085.0"/>
    <path d="M 571.0,666.0 L 553.0,728.0 L 492.0,810.0 L 401.0,901.0 L 306.0,966.0"/>
    <path d="M 626.0,681.0 L 636.0,707.0 L 668.0,741.0 L 803.0,864.0 L 871.0,885.0 L 1000.0,908.0"/>
  </g>
</svg>
