<svg xmlns="http://www.w3.org/2000/svg" viewBox="0 0 1024 1024">
  <g style="fill:none;stroke:#000000;stroke-width:50;stroke-linecap:round;stroke-linejoin:round;" transform="scale(1, 1) translate(0, 0)">
    <path d="M 227.0,274.0 L 240.0,284.0 L 256.0,316.0 L 147.0,544.0 L 148.0,549.0 L 166.0,552.0 L 240.0,547.0 L 258.0,536.0"/>
    <path d="M 312.0,429.0 L 330.0,462.0 L 296.0,524.0 L 198.0,658.0 L 188.0,687.0 L 192.0,698.0 L 211.0,699.0 L 303.0,663.0 L 305.0,657.0"/>
    <path d="M 306.0,608.0 L 349.0,680.0"/>
    <path d="M 117.0,836.0 L 162.0,923.0 L 171.0,951.0 L 171.0,981.0"/>
    <path d="M 218.0,803.0 L 260.0,852.0 L 270.0,889.0"/>
    <path d="M 307.0,758.0 L 350.0,799.0 L 364.0,835.0"/>
    <path d="M 487.0,236.0 L 511.0,263.0 L 504.0,294.0 L 456.0,385.0 L 409.0,450.0 L 391.0,466.0"/>
    <path d="M 500.0,355.0 L 520.0,343.0 L 569.0,333.0 L 590.0,336.0 L 603.0,349.0 L 567.0,451.0 L 522.0,528.0 L 454.0,613.0 L 371.0,681.0"/>
    <path d="M 469.0,421.0 L 511.0,454.0 L 521.0,474.0"/>
    <path d="M 407.0,473.0 L 422.0,477.0 L 448.0,502.0 L 462.0,533.0"/>
    <path d="M 672.0,349.0 L 697.0,351.0 L 784.0,329.0 L 816.0,340.0 L 802.0,368.0 L 732.0,462.0 L 732.0,470.0"/>
    <path d="M 627.0,379.0 L 665.0,432.0 L 746.0,522.0 L 838.0,604.0 L 868.0,618.0 L 978.0,633.0"/>
    <path d="M 520.0,619.0 L 561.0,623.0 L 681.0,599.0 L 716.0,601.0"/>
    <path d="M 416.0,740.0 L 466.0,746.0 L 750.0,700.0 L 830.0,714.0"/>
    <path d="M 612.0,743.0 L 639.0,766.0 L 642.0,780.0 L 644.0,928.0 L 637.0,979.0 L 620.0,1005.0 L 569.0,988.0 L 515.0,961.0"/>
    <path d="M 488.0,816.0 L 467.0,876.0 L 414.0,968.0"/>
    <path d="M 729.0,812.0 L 835.0,902.0 L 851.0,930.0 L 858.0,962.0"/>
  </g>
</svg>
