<svg xmlns="http://www.w3.org/2000/svg" viewBox="0 0 1024 1024">
  <g style="fill:none;stroke:#000000;stroke-width:50;stroke-linecap:round;stroke-linejoin:round;" transform="scale(1, 1) translate(0, 0)">
    <path d="M 262.0,219.0 L 287.0,247.0 L 293.0,270.0 L 175.0,489.0 L 170.0,510.0 L 192.0,513.0 L 247.0,504.0 L 283.0,492.0 L 289.0,483.0"/>
    <path d="M 342.0,381.0 L 361.0,416.0 L 293.0,527.0 L 207.0,642.0 L 200.0,680.0 L 232.0,679.0 L 315.0,640.0 L 344.0,637.0"/>
    <path d="M 337.0,570.0 L 376.0,628.0 L 386.0,656.0"/>
    <path d="M 106.0,810.0 L 151.0,893.0 L 157.0,942.0"/>
    <path d="M 210.0,774.0 L 253.0,827.0 L 260.0,858.0"/>
    <path d="M 295.0,735.0 L 335.0,779.0 L 342.0,806.0"/>
    <path d="M 481.0,328.0 L 511.0,358.0 L 548.0,519.0"/>
    <path d="M 526.0,332.0 L 542.0,337.0 L 737.0,300.0 L 788.0,301.0 L 813.0,330.0 L 766.0,475.0 L 767.0,498.0"/>
    <path d="M 430.0,436.0 L 463.0,439.0 L 701.0,397.0 L 864.0,376.0 L 904.0,374.0 L 960.0,386.0"/>
    <path d="M 564.0,505.0 L 572.0,499.0 L 732.0,466.0"/>
    <path d="M 458.0,594.0 L 493.0,632.0 L 519.0,719.0"/>
    <path d="M 482.0,590.0 L 520.0,600.0 L 616.0,582.0 L 791.0,564.0 L 812.0,578.0 L 821.0,595.0 L 805.0,628.0 L 782.0,642.0"/>
    <path d="M 533.0,688.0 L 542.0,695.0 L 779.0,668.0 L 811.0,668.0 L 831.0,675.0"/>
    <path d="M 609.0,181.0 L 642.0,205.0 L 655.0,223.0 L 644.0,651.0 L 656.0,668.0"/>
    <path d="M 604.0,707.0 L 618.0,721.0 L 620.0,738.0 L 556.0,866.0 L 575.0,880.0 L 650.0,907.0 L 754.0,957.0 L 806.0,990.0 L 846.0,1031.0"/>
    <path d="M 745.0,731.0 L 761.0,755.0 L 758.0,785.0 L 705.0,881.0 L 666.0,925.0 L 631.0,954.0 L 577.0,986.0 L 514.0,1006.0 L 483.0,1006.0 L 476.0,1011.0"/>
    <path d="M 388.0,805.0 L 438.0,812.0 L 690.0,773.0 L 871.0,755.0 L 909.0,754.0 L 967.0,769.0"/>
  </g>
</svg>
