<svg xmlns="http://www.w3.org/2000/svg" viewBox="0 0 1024 1024">
  <g style="fill:none;stroke:#000000;stroke-width:50;stroke-linecap:round;stroke-linejoin:round;" transform="scale(1, 1) translate(0, 0)">
    <path d="M 261.0,224.0 L 275.0,235.0 L 291.0,269.0 L 221.0,411.0 L 178.0,482.0 L 168.0,518.0 L 204.0,518.0 L 240.0,509.0 L 267.0,501.0 L 287.0,485.0"/>
    <path d="M 352.0,357.0 L 371.0,390.0 L 302.0,503.0 L 200.0,636.0 L 194.0,674.0 L 228.0,670.0 L 313.0,632.0 L 320.0,637.0"/>
    <path d="M 316.0,591.0 L 361.0,652.0"/>
    <path d="M 102.0,789.0 L 149.0,874.0 L 155.0,921.0"/>
    <path d="M 220.0,755.0 L 250.0,797.0 L 262.0,833.0"/>
    <path d="M 313.0,707.0 L 350.0,761.0 L 354.0,778.0"/>
    <path d="M 474.0,354.0 L 531.0,355.0 L 741.0,303.0 L 772.0,308.0 L 795.0,335.0 L 758.0,461.0 L 755.0,480.0 L 766.0,495.0"/>
    <path d="M 416.0,469.0 L 471.0,471.0 L 678.0,426.0 L 877.0,395.0 L 909.0,393.0 L 966.0,405.0"/>
    <path d="M 468.0,555.0 L 487.0,560.0 L 724.0,513.0 L 775.0,520.0"/>
    <path d="M 572.0,181.0 L 587.0,183.0 L 607.0,196.0 L 625.0,212.0 L 629.0,227.0 L 620.0,451.0 L 619.0,1035.0"/>
    <path d="M 408.0,616.0 L 427.0,629.0 L 441.0,651.0 L 435.0,762.0 L 420.0,845.0 L 380.0,934.0 L 339.0,981.0 L 286.0,1018.0"/>
    <path d="M 822.0,541.0 L 839.0,554.0 L 852.0,577.0 L 854.0,801.0 L 848.0,983.0 L 862.0,1058.0"/>
    <path d="M 521.0,594.0 L 540.0,617.0 L 534.0,659.0 L 542.0,669.0"/>
    <path d="M 462.0,711.0 L 523.0,691.0 L 561.0,697.0"/>
    <path d="M 697.0,562.0 L 714.0,581.0 L 716.0,642.0 L 726.0,653.0 L 801.0,636.0 L 822.0,622.0"/>
    <path d="M 476.0,773.0 L 514.0,773.0 L 761.0,727.0 L 794.0,732.0"/>
    <path d="M 444.0,851.0 L 505.0,838.0 L 528.0,851.0 L 514.0,965.0 L 520.0,1005.0"/>
    <path d="M 742.0,812.0 L 750.0,819.0 L 814.0,806.0 L 826.0,795.0"/>
    <path d="M 692.0,800.0 L 712.0,821.0 L 718.0,837.0 L 715.0,953.0 L 722.0,991.0"/>
  </g>
</svg>
