<svg xmlns="http://www.w3.org/2000/svg" viewBox="0 0 1024 1024">
  <g style="fill:none;stroke:#000000;stroke-width:50;stroke-linecap:round;stroke-linejoin:round;" transform="scale(1, 1) translate(0, 0)">
    <path d="M 248.0,198.0 L 260.0,210.0 L 274.0,244.0 L 214.0,355.0 L 145.0,460.0 L 131.0,499.0 L 188.0,499.0 L 232.0,491.0 L 256.0,477.0"/>
    <path d="M 322.0,342.0 L 342.0,375.0 L 339.0,382.0 L 264.0,505.0 L 184.0,617.0 L 179.0,651.0 L 205.0,649.0 L 289.0,605.0 L 310.0,602.0"/>
    <path d="M 302.0,555.0 L 342.0,602.0 L 348.0,634.0"/>
    <path d="M 87.0,775.0 L 124.0,868.0 L 124.0,925.0"/>
    <path d="M 197.0,736.0 L 225.0,786.0 L 236.0,822.0"/>
    <path d="M 302.0,691.0 L 337.0,731.0 L 347.0,761.0"/>
    <path d="M 432.0,253.0 L 456.0,272.0 L 462.0,285.0 L 504.0,432.0"/>
    <path d="M 489.0,272.0 L 539.0,251.0 L 716.0,219.0 L 752.0,218.0 L 774.0,224.0 L 791.0,244.0 L 796.0,262.0 L 734.0,396.0"/>
    <path d="M 548.0,275.0 L 558.0,283.0 L 570.0,366.0 L 566.0,375.0"/>
    <path d="M 654.0,252.0 L 676.0,271.0 L 656.0,348.0 L 643.0,355.0"/>
    <path d="M 518.0,412.0 L 531.0,402.0 L 677.0,374.0 L 714.0,380.0"/>
    <path d="M 372.0,505.0 L 426.0,508.0 L 615.0,471.0 L 809.0,446.0 L 873.0,459.0"/>
    <path d="M 448.0,565.0 L 471.0,583.0 L 498.0,670.0 L 506.0,682.0 L 518.0,682.0"/>
    <path d="M 495.0,569.0 L 528.0,573.0 L 645.0,539.0 L 674.0,538.0 L 704.0,562.0 L 690.0,602.0 L 667.0,618.0"/>
    <path d="M 519.0,662.0 L 542.0,667.0 L 679.0,643.0 L 724.0,648.0"/>
    <path d="M 533.0,695.0 L 537.0,724.0 L 530.0,735.0 L 447.0,823.0 L 351.0,892.0 L 256.0,934.0"/>
    <path d="M 524.0,790.0 L 532.0,823.0 L 520.0,963.0 L 527.0,997.0 L 575.0,976.0 L 649.0,922.0"/>
    <path d="M 777.0,717.0 L 743.0,708.0 L 663.0,785.0 L 654.0,783.0"/>
    <path d="M 573.0,746.0 L 573.0,754.0 L 646.0,815.0 L 766.0,897.0 L 807.0,918.0 L 859.0,932.0 L 984.0,938.0"/>
  </g>
</svg>
