<svg xmlns="http://www.w3.org/2000/svg" viewBox="0 0 1024 1024">
  <g style="fill:none;stroke:#000000;stroke-width:50;stroke-linecap:round;stroke-linejoin:round;" transform="scale(1, 1) translate(0, 0)">
    <path d="M 259.0,203.0 L 271.0,215.0 L 286.0,249.0 L 225.0,365.0 L 171.0,451.0 L 158.0,487.0 L 197.0,489.0 L 267.0,479.0 L 286.0,469.0"/>
    <path d="M 344.0,345.0 L 366.0,380.0 L 296.0,499.0 L 202.0,628.0 L 200.0,659.0 L 228.0,660.0 L 327.0,618.0 L 333.0,623.0"/>
    <path d="M 324.0,560.0 L 360.0,611.0 L 370.0,635.0"/>
    <path d="M 95.0,785.0 L 101.0,802.0 L 149.0,870.0 L 156.0,917.0"/>
    <path d="M 207.0,743.0 L 247.0,783.0 L 258.0,813.0"/>
    <path d="M 306.0,703.0 L 346.0,748.0 L 353.0,770.0"/>
    <path d="M 434.0,254.0 L 458.0,270.0 L 469.0,288.0 L 507.0,411.0"/>
    <path d="M 486.0,256.0 L 512.0,262.0 L 744.0,211.0 L 794.0,215.0 L 814.0,235.0 L 815.0,254.0 L 775.0,350.0 L 765.0,356.0 L 751.0,345.0"/>
    <path d="M 564.0,267.0 L 565.0,288.0 L 588.0,345.0 L 598.0,353.0"/>
    <path d="M 675.0,244.0 L 691.0,260.0 L 669.0,328.0 L 659.0,333.0"/>
    <path d="M 523.0,391.0 L 535.0,382.0 L 693.0,348.0 L 724.0,345.0 L 732.0,353.0"/>
    <path d="M 520.0,495.0 L 563.0,498.0 L 610.0,491.0 L 702.0,464.0 L 753.0,462.0"/>
    <path d="M 602.0,384.0 L 632.0,414.0 L 627.0,534.0 L 611.0,558.0"/>
    <path d="M 420.0,600.0 L 471.0,607.0 L 667.0,572.0 L 854.0,551.0 L 927.0,566.0"/>
    <path d="M 529.0,615.0 L 567.0,687.0"/>
    <path d="M 674.0,594.0 L 696.0,619.0 L 668.0,681.0 L 650.0,696.0"/>
    <path d="M 475.0,737.0 L 528.0,740.0 L 730.0,703.0 L 769.0,708.0"/>
    <path d="M 408.0,860.0 L 452.0,867.0 L 578.0,842.0 L 805.0,812.0 L 874.0,826.0"/>
    <path d="M 646.0,743.0 L 625.0,768.0 L 619.0,1086.0"/>
  </g>
</svg>
