<svg xmlns="http://www.w3.org/2000/svg" viewBox="0 0 1024 1024">
  <g style="fill:none;stroke:#000000;stroke-width:50;stroke-linecap:round;stroke-linejoin:round;" transform="scale(1, 1) translate(0, 0)">
    <path d="M 227.0,250.0 L 240.0,260.0 L 256.0,292.0 L 212.0,391.0 L 152.0,501.0 L 140.0,539.0 L 211.0,535.0 L 246.0,522.0"/>
    <path d="M 296.0,422.0 L 312.0,451.0 L 260.0,540.0 L 180.0,648.0 L 175.0,680.0 L 203.0,681.0 L 255.0,656.0 L 309.0,640.0"/>
    <path d="M 308.0,590.0 L 344.0,654.0"/>
    <path d="M 99.0,808.0 L 131.0,899.0 L 129.0,950.0"/>
    <path d="M 191.0,784.0 L 224.0,840.0 L 225.0,863.0"/>
    <path d="M 272.0,746.0 L 300.0,778.0 L 310.0,802.0"/>
    <path d="M 492.0,214.0 L 506.0,225.0 L 515.0,245.0 L 450.0,360.0 L 426.0,391.0 L 425.0,402.0 L 405.0,414.0"/>
    <path d="M 365.0,419.0 L 388.0,447.0 L 421.0,611.0"/>
    <path d="M 407.0,426.0 L 419.0,429.0 L 519.0,403.0 L 527.0,406.0 L 541.0,397.0 L 576.0,399.0 L 588.0,406.0 L 604.0,429.0 L 583.0,483.0 L 553.0,593.0"/>
    <path d="M 431.0,519.0 L 433.0,512.0 L 472.0,502.0 L 517.0,501.0"/>
    <path d="M 437.0,600.0 L 445.0,590.0 L 526.0,578.0 L 538.0,571.0"/>
    <path d="M 448.0,606.0 L 463.0,615.0 L 489.0,657.0"/>
    <path d="M 339.0,710.0 L 394.0,711.0 L 513.0,676.0 L 580.0,671.0"/>
    <path d="M 469.0,772.0 L 506.0,772.0 L 533.0,783.0 L 548.0,802.0 L 513.0,914.0 L 488.0,957.0 L 460.0,980.0 L 401.0,938.0"/>
    <path d="M 434.0,723.0 L 455.0,740.0 L 454.0,745.0 L 399.0,843.0 L 321.0,932.0 L 278.0,967.0 L 253.0,977.0 L 250.0,985.0"/>
    <path d="M 711.0,274.0 L 725.0,281.0 L 748.0,309.0 L 737.0,357.0 L 686.0,487.0 L 649.0,561.0 L 605.0,623.0"/>
    <path d="M 670.0,554.0 L 735.0,549.0 L 854.0,509.0 L 895.0,508.0"/>
    <path d="M 744.0,576.0 L 773.0,597.0 L 771.0,628.0 L 754.0,732.0 L 727.0,806.0 L 696.0,851.0 L 656.0,887.0 L 613.0,913.0 L 566.0,930.0"/>
    <path d="M 619.0,673.0 L 647.0,686.0 L 778.0,855.0 L 852.0,928.0 L 981.0,955.0"/>
  </g>
</svg>
