<svg xmlns="http://www.w3.org/2000/svg" viewBox="0 0 1024 1024">
  <g style="fill:none;stroke:#000000;stroke-width:50;stroke-linecap:round;stroke-linejoin:round;" transform="scale(1, 1) translate(0, 0)">
    <path d="M 208.0,260.0 L 221.0,271.0 L 235.0,303.0 L 207.0,363.0 L 134.0,488.0 L 127.0,514.0 L 219.0,519.0 L 231.0,510.0 L 240.0,512.0"/>
    <path d="M 292.0,397.0 L 304.0,415.0 L 308.0,435.0 L 255.0,526.0 L 168.0,645.0 L 166.0,674.0 L 190.0,677.0 L 273.0,648.0 L 276.0,641.0"/>
    <path d="M 287.0,600.0 L 311.0,658.0 L 313.0,677.0"/>
    <path d="M 80.0,804.0 L 113.0,886.0 L 112.0,934.0"/>
    <path d="M 180.0,775.0 L 209.0,830.0 L 217.0,864.0"/>
    <path d="M 268.0,738.0 L 305.0,800.0 L 308.0,818.0"/>
    <path d="M 512.0,342.0 L 533.0,356.0 L 544.0,373.0 L 576.0,471.0"/>
    <path d="M 554.0,339.0 L 576.0,348.0 L 769.0,302.0 L 789.0,304.0 L 817.0,330.0 L 802.0,368.0 L 778.0,386.0"/>
    <path d="M 588.0,437.0 L 598.0,444.0 L 776.0,409.0 L 827.0,413.0"/>
    <path d="M 640.0,193.0 L 677.0,224.0 L 678.0,231.0 L 670.0,472.0 L 657.0,491.0"/>
    <path d="M 505.0,533.0 L 536.0,535.0 L 647.0,511.0 L 805.0,488.0 L 863.0,489.0 L 890.0,497.0"/>
    <path d="M 568.0,572.0 L 592.0,597.0 L 595.0,609.0 L 597.0,928.0"/>
    <path d="M 617.0,606.0 L 645.0,592.0 L 759.0,566.0 L 778.0,573.0 L 795.0,592.0 L 783.0,627.0 L 762.0,639.0"/>
    <path d="M 621.0,704.0 L 638.0,692.0 L 749.0,670.0 L 811.0,673.0"/>
    <path d="M 614.0,791.0 L 640.0,779.0 L 777.0,755.0 L 808.0,778.0 L 790.0,827.0 L 775.0,832.0"/>
    <path d="M 619.0,893.0 L 637.0,882.0 L 757.0,863.0 L 818.0,869.0"/>
    <path d="M 379.0,407.0 L 416.0,443.0 L 427.0,459.0 L 432.0,482.0"/>
    <path d="M 339.0,618.0 L 355.0,623.0 L 394.0,620.0 L 469.0,598.0 L 490.0,622.0 L 473.0,656.0 L 416.0,728.0 L 422.0,774.0 L 448.0,828.0 L 444.0,865.0 L 436.0,879.0 L 426.0,882.0"/>
    <path d="M 324.0,894.0 L 340.0,903.0 L 412.0,903.0 L 482.0,918.0 L 656.0,977.0 L 790.0,1012.0 L 974.0,974.0"/>
  </g>
</svg>
