<svg xmlns="http://www.w3.org/2000/svg" viewBox="0 0 1024 1024">
  <g style="fill:none;stroke:#000000;stroke-width:50;stroke-linecap:round;stroke-linejoin:round;" transform="scale(1, 1) translate(0, 0)">
    <path d="M 314.0,206.0 L 331.0,236.0 L 312.0,279.0 L 269.0,343.0 L 237.0,377.0 L 201.0,403.0"/>
    <path d="M 338.0,284.0 L 474.0,260.0 L 499.0,261.0"/>
    <path d="M 365.0,326.0 L 403.0,345.0 L 421.0,362.0"/>
    <path d="M 567.0,181.0 L 586.0,207.0 L 575.0,238.0 L 533.0,309.0 L 493.0,349.0"/>
    <path d="M 590.0,270.0 L 599.0,265.0 L 689.0,260.0 L 756.0,241.0 L 793.0,242.0"/>
    <path d="M 619.0,315.0 L 687.0,346.0 L 704.0,365.0"/>
    <path d="M 352.0,389.0 L 369.0,411.0 L 373.0,438.0 L 371.0,592.0 L 366.0,604.0"/>
    <path d="M 394.0,417.0 L 405.0,410.0 L 454.0,404.0 L 569.0,375.0 L 601.0,387.0 L 615.0,406.0 L 614.0,532.0 L 606.0,592.0"/>
    <path d="M 399.0,479.0 L 404.0,470.0 L 449.0,460.0 L 523.0,449.0 L 545.0,452.0"/>
    <path d="M 397.0,536.0 L 405.0,526.0 L 429.0,522.0 L 522.0,509.0 L 552.0,513.0"/>
    <path d="M 393.0,594.0 L 405.0,585.0 L 563.0,565.0 L 581.0,573.0"/>
    <path d="M 168.0,684.0 L 220.0,692.0 L 446.0,657.0 L 764.0,625.0 L 835.0,641.0"/>
    <path d="M 384.0,615.0 L 387.0,645.0 L 354.0,702.0 L 310.0,753.0 L 238.0,810.0 L 174.0,844.0 L 120.0,864.0"/>
    <path d="M 603.0,668.0 L 651.0,714.0 L 769.0,802.0 L 797.0,814.0 L 920.0,829.0"/>
    <path d="M 453.0,676.0 L 464.0,692.0 L 463.0,707.0 L 401.0,769.0 L 389.0,796.0 L 414.0,805.0 L 455.0,804.0 L 482.0,793.0"/>
    <path d="M 556.0,715.0 L 563.0,746.0 L 478.0,822.0 L 415.0,868.0 L 406.0,893.0 L 430.0,895.0 L 488.0,875.0 L 577.0,855.0"/>
    <path d="M 571.0,810.0 L 614.0,851.0 L 628.0,886.0"/>
    <path d="M 489.0,891.0 L 509.0,911.0 L 514.0,929.0 L 514.0,1025.0 L 497.0,1058.0 L 392.0,1026.0"/>
    <path d="M 336.0,945.0 L 317.0,994.0 L 282.0,1053.0"/>
    <path d="M 606.0,926.0 L 682.0,989.0 L 696.0,1006.0 L 710.0,1041.0"/>
  </g>
</svg>
