<svg xmlns="http://www.w3.org/2000/svg" viewBox="0 0 1024 1024">
  <g style="fill:none;stroke:#000000;stroke-width:50;stroke-linecap:round;stroke-linejoin:round;" transform="scale(1, 1) translate(0, 0)">
    <path d="M 328.0,213.0 L 352.0,230.0 L 364.0,254.0 L 404.0,402.0"/>
    <path d="M 379.0,215.0 L 403.0,225.0 L 592.0,193.0 L 657.0,188.0 L 683.0,194.0 L 707.0,224.0 L 678.0,308.0 L 651.0,365.0 L 651.0,385.0"/>
    <path d="M 462.0,296.0 L 558.0,279.0 L 600.0,282.0"/>
    <path d="M 505.0,231.0 L 524.0,251.0 L 522.0,318.0 L 517.0,334.0 L 506.0,343.0"/>
    <path d="M 421.0,388.0 L 428.0,381.0 L 562.0,353.0 L 620.0,347.0"/>
    <path d="M 178.0,473.0 L 209.0,504.0 L 252.0,652.0"/>
    <path d="M 214.0,470.0 L 234.0,477.0 L 379.0,443.0 L 431.0,448.0 L 449.0,467.0 L 426.0,581.0 L 414.0,612.0 L 399.0,614.0"/>
    <path d="M 281.0,549.0 L 352.0,534.0 L 384.0,537.0"/>
    <path d="M 303.0,477.0 L 324.0,505.0 L 323.0,575.0 L 310.0,591.0"/>
    <path d="M 267.0,628.0 L 280.0,618.0 L 351.0,602.0 L 370.0,603.0 L 393.0,594.0"/>
    <path d="M 563.0,420.0 L 588.0,440.0 L 633.0,619.0"/>
    <path d="M 619.0,444.0 L 633.0,432.0 L 764.0,404.0 L 801.0,404.0 L 818.0,412.0 L 834.0,431.0 L 805.0,564.0 L 794.0,587.0 L 766.0,581.0"/>
    <path d="M 664.0,508.0 L 741.0,491.0 L 765.0,493.0"/>
    <path d="M 690.0,438.0 L 707.0,453.0 L 709.0,529.0 L 699.0,550.0"/>
    <path d="M 650.0,590.0 L 654.0,582.0 L 676.0,577.0 L 770.0,564.0"/>
    <path d="M 499.0,556.0 L 508.0,578.0 L 506.0,595.0 L 439.0,664.0 L 424.0,692.0 L 445.0,702.0 L 480.0,704.0 L 511.0,702.0 L 521.0,695.0"/>
    <path d="M 584.0,625.0 L 593.0,659.0 L 526.0,724.0 L 437.0,793.0 L 421.0,824.0 L 444.0,827.0 L 624.0,779.0 L 631.0,785.0"/>
    <path d="M 621.0,730.0 L 674.0,794.0 L 681.0,831.0"/>
    <path d="M 507.0,828.0 L 531.0,845.0 L 534.0,859.0 L 536.0,975.0 L 529.0,1024.0 L 514.0,1049.0 L 419.0,1005.0"/>
    <path d="M 340.0,892.0 L 319.0,951.0 L 274.0,1032.0"/>
    <path d="M 654.0,902.0 L 746.0,955.0 L 775.0,987.0 L 789.0,1018.0"/>
  </g>
</svg>
