<svg xmlns="http://www.w3.org/2000/svg" viewBox="0 0 1024 1024">
  <g style="fill:none;stroke:#000000;stroke-width:50;stroke-linecap:round;stroke-linejoin:round;" transform="scale(1, 1) translate(0, 0)">
    <path d="M 257.0,202.0 L 272.0,218.0 L 285.0,249.0 L 233.0,347.0 L 164.0,457.0 L 149.0,495.0 L 251.0,495.0 L 272.0,483.0"/>
    <path d="M 349.0,339.0 L 363.0,362.0 L 366.0,381.0 L 297.0,490.0 L 193.0,623.0 L 189.0,657.0 L 225.0,656.0 L 318.0,619.0 L 320.0,612.0"/>
    <path d="M 328.0,563.0 L 357.0,616.0 L 362.0,640.0"/>
    <path d="M 90.0,774.0 L 139.0,860.0 L 142.0,904.0"/>
    <path d="M 206.0,743.0 L 248.0,792.0 L 258.0,829.0"/>
    <path d="M 311.0,695.0 L 349.0,733.0 L 362.0,770.0"/>
    <path d="M 457.0,282.0 L 486.0,288.0 L 533.0,285.0 L 735.0,239.0 L 779.0,238.0"/>
    <path d="M 591.0,165.0 L 625.0,198.0 L 618.0,330.0 L 603.0,349.0"/>
    <path d="M 494.0,382.0 L 526.0,387.0 L 672.0,352.0 L 712.0,347.0 L 737.0,351.0"/>
    <path d="M 383.0,471.0 L 419.0,507.0 L 455.0,607.0"/>
    <path d="M 402.0,464.0 L 409.0,470.0 L 452.0,473.0 L 549.0,451.0 L 732.0,427.0 L 740.0,421.0 L 811.0,422.0 L 826.0,430.0 L 843.0,459.0 L 780.0,576.0"/>
    <path d="M 537.0,477.0 L 533.0,485.0 L 552.0,546.0 L 548.0,559.0"/>
    <path d="M 652.0,455.0 L 670.0,474.0 L 648.0,529.0 L 632.0,548.0"/>
    <path d="M 472.0,599.0 L 480.0,591.0 L 511.0,585.0 L 765.0,545.0"/>
    <path d="M 456.0,649.0 L 477.0,673.0 L 482.0,690.0 L 484.0,766.0 L 475.0,882.0 L 481.0,940.0"/>
    <path d="M 485.0,647.0 L 514.0,661.0 L 696.0,630.0 L 708.0,632.0 L 728.0,649.0 L 742.0,669.0 L 731.0,939.0"/>
    <path d="M 509.0,755.0 L 516.0,744.0 L 614.0,724.0 L 657.0,718.0 L 674.0,723.0"/>
    <path d="M 504.0,836.0 L 575.0,815.0 L 649.0,806.0 L 664.0,810.0"/>
    <path d="M 500.0,924.0 L 522.0,910.0 L 641.0,891.0 L 682.0,891.0 L 690.0,902.0"/>
    <path d="M 566.0,979.0 L 534.0,980.0 L 499.0,1017.0 L 450.0,1053.0 L 408.0,1079.0 L 355.0,1101.0"/>
    <path d="M 671.0,956.0 L 762.0,1043.0 L 777.0,1072.0 L 783.0,1107.0"/>
  </g>
</svg>
