<svg xmlns="http://www.w3.org/2000/svg" viewBox="0 0 1024 1024">
  <g style="fill:none;stroke:#000000;stroke-width:50;stroke-linecap:round;stroke-linejoin:round;" transform="scale(1, 1) translate(0, 0)">
    <path d="M 219.0,240.0 L 239.0,264.0 L 245.0,290.0 L 168.0,437.0 L 131.0,493.0 L 126.0,511.0 L 129.0,519.0 L 153.0,527.0 L 212.0,528.0 L 229.0,520.0"/>
    <path d="M 290.0,394.0 L 305.0,413.0 L 309.0,432.0 L 255.0,527.0 L 170.0,647.0 L 163.0,662.0 L 163.0,684.0 L 185.0,688.0 L 274.0,647.0 L 276.0,640.0"/>
    <path d="M 284.0,600.0 L 316.0,668.0"/>
    <path d="M 84.0,796.0 L 122.0,883.0 L 127.0,908.0 L 122.0,941.0"/>
    <path d="M 186.0,767.0 L 227.0,825.0 L 235.0,860.0"/>
    <path d="M 266.0,726.0 L 309.0,769.0 L 323.0,805.0"/>
    <path d="M 363.0,471.0 L 386.0,475.0 L 425.0,470.0 L 533.0,435.0 L 576.0,434.0"/>
    <path d="M 442.0,203.0 L 472.0,226.0 L 485.0,249.0 L 470.0,565.0 L 453.0,586.0"/>
    <path d="M 374.0,623.0 L 409.0,623.0 L 502.0,591.0 L 554.0,587.0"/>
    <path d="M 361.0,702.0 L 389.0,733.0 L 417.0,895.0"/>
    <path d="M 405.0,704.0 L 417.0,712.0 L 504.0,688.0 L 530.0,686.0 L 538.0,691.0 L 553.0,708.0 L 536.0,782.0 L 531.0,795.0 L 516.0,806.0"/>
    <path d="M 433.0,857.0 L 509.0,833.0 L 563.0,835.0"/>
    <path d="M 613.0,371.0 L 635.0,372.0 L 813.0,323.0 L 854.0,318.0 L 904.0,326.0"/>
    <path d="M 705.0,371.0 L 724.0,389.0 L 729.0,404.0 L 697.0,475.0 L 681.0,492.0"/>
    <path d="M 612.0,498.0 L 627.0,513.0 L 639.0,538.0 L 636.0,784.0 L 641.0,827.0"/>
    <path d="M 656.0,508.0 L 680.0,512.0 L 797.0,475.0 L 820.0,477.0 L 852.0,503.0 L 848.0,612.0 L 854.0,765.0 L 847.0,836.0"/>
    <path d="M 664.0,614.0 L 674.0,606.0 L 731.0,592.0 L 777.0,595.0"/>
    <path d="M 660.0,714.0 L 672.0,705.0 L 737.0,696.0 L 792.0,699.0"/>
    <path d="M 660.0,816.0 L 672.0,807.0 L 762.0,792.0 L 801.0,790.0 L 811.0,799.0"/>
    <path d="M 713.0,881.0 L 687.0,886.0 L 656.0,930.0 L 617.0,971.0 L 571.0,1010.0 L 522.0,1038.0"/>
    <path d="M 796.0,898.0 L 882.0,998.0 L 893.0,1023.0 L 896.0,1057.0"/>
  </g>
</svg>
