<svg xmlns="http://www.w3.org/2000/svg" viewBox="0 0 1024 1024">
  <g style="fill:none;stroke:#000000;stroke-width:50;stroke-linecap:round;stroke-linejoin:round;" transform="scale(1, 1) translate(0, 0)">
    <path d="M 253.0,228.0 L 267.0,239.0 L 283.0,273.0 L 230.0,386.0 L 159.0,511.0 L 155.0,534.0 L 201.0,532.0 L 264.0,518.0 L 281.0,505.0"/>
    <path d="M 330.0,399.0 L 351.0,431.0 L 289.0,541.0 L 211.0,655.0 L 206.0,692.0 L 240.0,691.0 L 322.0,658.0 L 324.0,651.0"/>
    <path d="M 325.0,611.0 L 349.0,639.0 L 366.0,673.0"/>
    <path d="M 95.0,817.0 L 159.0,908.0 L 170.0,956.0"/>
    <path d="M 223.0,791.0 L 272.0,846.0 L 279.0,876.0"/>
    <path d="M 311.0,745.0 L 361.0,787.0 L 372.0,813.0"/>
    <path d="M 571.0,163.0 L 583.0,195.0 L 562.0,223.0 L 492.0,290.0 L 439.0,317.0"/>
    <path d="M 605.0,217.0 L 695.0,198.0 L 726.0,206.0 L 711.0,239.0 L 677.0,286.0 L 657.0,302.0"/>
    <path d="M 480.0,334.0 L 510.0,362.0 L 540.0,451.0"/>
    <path d="M 506.0,327.0 L 532.0,337.0 L 740.0,296.0 L 760.0,298.0 L 770.0,304.0 L 783.0,327.0 L 765.0,364.0 L 746.0,369.0"/>
    <path d="M 554.0,423.0 L 562.0,429.0 L 736.0,398.0 L 784.0,405.0"/>
    <path d="M 496.0,522.0 L 500.0,513.0 L 577.0,496.0 L 609.0,499.0"/>
    <path d="M 448.0,445.0 L 471.0,471.0 L 470.0,615.0 L 505.0,612.0 L 553.0,585.0 L 566.0,587.0 L 569.0,580.0 L 592.0,569.0"/>
    <path d="M 829.0,417.0 L 833.0,444.0 L 701.0,521.0"/>
    <path d="M 664.0,456.0 L 681.0,482.0 L 678.0,522.0 L 684.0,568.0 L 695.0,583.0 L 731.0,601.0 L 798.0,604.0 L 858.0,584.0 L 873.0,570.0 L 884.0,498.0"/>
    <path d="M 589.0,597.0 L 601.0,618.0 L 582.0,648.0 L 541.0,688.0 L 508.0,709.0 L 501.0,708.0 L 499.0,714.0"/>
    <path d="M 607.0,648.0 L 646.0,640.0 L 670.0,641.0 L 686.0,650.0 L 637.0,724.0 L 615.0,735.0"/>
    <path d="M 441.0,757.0 L 440.0,762.0 L 474.0,793.0 L 504.0,888.0"/>
    <path d="M 453.0,753.0 L 457.0,760.0 L 487.0,769.0 L 618.0,748.0 L 632.0,751.0 L 667.0,737.0 L 738.0,725.0 L 759.0,730.0 L 777.0,755.0 L 752.0,802.0 L 738.0,806.0"/>
    <path d="M 512.0,860.0 L 523.0,864.0 L 592.0,857.0 L 730.0,833.0 L 772.0,841.0"/>
    <path d="M 594.0,771.0 L 606.0,777.0 L 619.0,796.0 L 591.0,881.0 L 552.0,957.0 L 511.0,1008.0 L 471.0,1040.0 L 432.0,1062.0 L 371.0,1083.0"/>
    <path d="M 658.0,890.0 L 675.0,912.0 L 677.0,929.0 L 667.0,994.0 L 674.0,1038.0 L 681.0,1050.0 L 702.0,1064.0 L 761.0,1078.0 L 861.0,1074.0 L 927.0,1051.0 L 941.0,1038.0 L 942.0,921.0"/>
    <path d="M 755.0,890.0 L 805.0,927.0 L 820.0,943.0 L 831.0,970.0"/>
  </g>
</svg>
