<svg xmlns="http://www.w3.org/2000/svg" viewBox="0 0 1024 1024">
  <g style="fill:none;stroke:#000000;stroke-width:50;stroke-linecap:round;stroke-linejoin:round;" transform="scale(1, 1) translate(0, 0)">
    <path d="M 247.0,240.0 L 267.0,264.0 L 273.0,290.0 L 161.0,495.0 L 157.0,515.0 L 206.0,517.0 L 266.0,509.0 L 274.0,500.0"/>
    <path d="M 336.0,389.0 L 349.0,408.0 L 352.0,426.0 L 284.0,532.0 L 203.0,636.0 L 193.0,664.0 L 197.0,675.0 L 216.0,677.0 L 322.0,635.0"/>
    <path d="M 324.0,589.0 L 348.0,617.0 L 365.0,649.0"/>
    <path d="M 118.0,806.0 L 166.0,896.0 L 168.0,942.0"/>
    <path d="M 218.0,775.0 L 266.0,822.0 L 279.0,857.0"/>
    <path d="M 302.0,730.0 L 354.0,780.0 L 361.0,800.0"/>
    <path d="M 405.0,268.0 L 420.0,284.0 L 428.0,312.0 L 423.0,504.0 L 430.0,542.0"/>
    <path d="M 442.0,274.0 L 456.0,279.0 L 503.0,260.0 L 548.0,251.0 L 570.0,262.0 L 582.0,276.0 L 575.0,365.0 L 578.0,481.0 L 570.0,548.0"/>
    <path d="M 451.0,375.0 L 456.0,364.0 L 471.0,359.0 L 523.0,352.0"/>
    <path d="M 450.0,452.0 L 468.0,437.0 L 525.0,433.0"/>
    <path d="M 445.0,533.0 L 457.0,523.0 L 531.0,508.0 L 544.0,500.0"/>
    <path d="M 456.0,566.0 L 469.0,591.0 L 433.0,645.0 L 392.0,686.0"/>
    <path d="M 530.0,579.0 L 566.0,620.0"/>
    <path d="M 645.0,224.0 L 666.0,257.0 L 665.0,512.0"/>
    <path d="M 684.0,231.0 L 692.0,238.0 L 712.0,238.0 L 719.0,231.0 L 801.0,211.0 L 816.0,215.0 L 839.0,239.0 L 833.0,329.0 L 840.0,464.0 L 834.0,524.0"/>
    <path d="M 686.0,343.0 L 696.0,332.0 L 724.0,322.0 L 771.0,319.0"/>
    <path d="M 691.0,420.0 L 697.0,409.0 L 716.0,403.0 L 766.0,395.0 L 782.0,399.0"/>
    <path d="M 687.0,500.0 L 723.0,484.0 L 787.0,476.0 L 809.0,466.0"/>
    <path d="M 672.0,523.0 L 681.0,526.0 L 690.0,543.0 L 655.0,601.0 L 616.0,638.0"/>
    <path d="M 774.0,554.0 L 841.0,608.0 L 851.0,634.0"/>
    <path d="M 547.0,663.0 L 563.0,678.0 L 571.0,702.0 L 511.0,854.0 L 542.0,873.0 L 684.0,928.0 L 754.0,965.0 L 790.0,988.0 L 837.0,1037.0"/>
    <path d="M 695.0,696.0 L 724.0,728.0 L 713.0,789.0 L 678.0,863.0 L 627.0,927.0 L 584.0,959.0 L 534.0,983.0 L 477.0,1000.0 L 412.0,1008.0"/>
    <path d="M 400.0,769.0 L 449.0,775.0 L 599.0,749.0 L 866.0,719.0 L 900.0,718.0 L 960.0,733.0"/>
  </g>
</svg>
