<svg xmlns="http://www.w3.org/2000/svg" viewBox="0 0 1024 1024">
  <g style="fill:none;stroke:#000000;stroke-width:50;stroke-linecap:round;stroke-linejoin:round;" transform="scale(1, 1) translate(0, 0)">
    <path d="M 369.0,241.0 L 397.0,248.0 L 440.0,248.0 L 545.0,235.0 L 555.0,228.0 L 605.0,219.0 L 652.0,219.0"/>
    <path d="M 376.0,303.0 L 442.0,308.0 L 560.0,286.0 L 623.0,282.0"/>
    <path d="M 481.0,187.0 L 511.0,216.0 L 507.0,314.0 L 503.0,330.0 L 493.0,337.0"/>
    <path d="M 312.0,378.0 L 339.0,381.0 L 394.0,369.0 L 611.0,342.0 L 676.0,342.0 L 703.0,351.0"/>
    <path d="M 363.0,410.0 L 380.0,430.0 L 383.0,472.0 L 352.0,562.0 L 352.0,578.0 L 379.0,581.0 L 463.0,562.0 L 537.0,554.0 L 626.0,553.0 L 653.0,564.0"/>
    <path d="M 405.0,419.0 L 416.0,427.0 L 587.0,399.0 L 620.0,408.0 L 635.0,429.0 L 586.0,594.0"/>
    <path d="M 482.0,436.0 L 499.0,438.0 L 519.0,463.0"/>
    <path d="M 153.0,521.0 L 205.0,528.0 L 465.0,490.0 L 808.0,457.0 L 856.0,463.0 L 889.0,475.0"/>
    <path d="M 461.0,508.0 L 502.0,540.0"/>
    <path d="M 238.0,662.0 L 256.0,697.0 L 260.0,836.0 L 251.0,845.0"/>
    <path d="M 268.0,667.0 L 307.0,673.0 L 390.0,649.0 L 427.0,649.0 L 442.0,675.0 L 434.0,807.0 L 420.0,815.0"/>
    <path d="M 278.0,730.0 L 310.0,716.0 L 375.0,710.0"/>
    <path d="M 283.0,778.0 L 287.0,768.0 L 309.0,762.0 L 380.0,755.0"/>
    <path d="M 282.0,826.0 L 287.0,815.0 L 387.0,802.0"/>
    <path d="M 127.0,874.0 L 151.0,882.0 L 183.0,883.0 L 435.0,845.0 L 463.0,843.0 L 491.0,850.0"/>
    <path d="M 330.0,882.0 L 349.0,905.0 L 348.0,990.0 L 339.0,1017.0 L 330.0,1030.0 L 258.0,999.0"/>
    <path d="M 237.0,927.0 L 226.0,955.0 L 183.0,1014.0"/>
    <path d="M 397.0,934.0 L 446.0,970.0"/>
    <path d="M 753.0,590.0 L 705.0,581.0 L 658.0,611.0 L 539.0,658.0"/>
    <path d="M 615.0,644.0 L 626.0,656.0 L 630.0,680.0 L 570.0,740.0 L 560.0,765.0 L 572.0,773.0 L 610.0,780.0 L 631.0,774.0"/>
    <path d="M 729.0,665.0 L 738.0,702.0 L 662.0,774.0 L 586.0,835.0 L 578.0,854.0 L 580.0,861.0 L 602.0,865.0 L 704.0,842.0 L 743.0,841.0"/>
    <path d="M 729.0,799.0 L 774.0,843.0 L 783.0,870.0"/>
    <path d="M 650.0,871.0 L 667.0,884.0 L 671.0,895.0 L 674.0,999.0 L 666.0,1028.0 L 658.0,1042.0 L 648.0,1041.0 L 582.0,1015.0"/>
    <path d="M 562.0,927.0 L 551.0,957.0 L 513.0,1019.0"/>
    <path d="M 739.0,911.0 L 806.0,960.0 L 829.0,1010.0"/>
  </g>
</svg>
