<svg xmlns="http://www.w3.org/2000/svg" viewBox="0 0 1024 1024">
  <g style="fill:none;stroke:#000000;stroke-width:50;stroke-linecap:round;stroke-linejoin:round;" transform="scale(1, 1) translate(0, 0)">
    <path d="M 306.0,199.0 L 322.0,216.0 L 336.0,251.0 L 273.0,362.0 L 204.0,463.0 L 182.0,513.0 L 222.0,518.0 L 304.0,507.0 L 314.0,511.0 L 336.0,498.0"/>
    <path d="M 419.0,356.0 L 433.0,379.0 L 436.0,400.0 L 354.0,515.0 L 252.0,635.0 L 244.0,649.0 L 242.0,677.0 L 272.0,680.0 L 434.0,627.0"/>
    <path d="M 129.0,859.0 L 192.0,867.0 L 439.0,731.0"/>
    <path d="M 548.0,378.0 L 580.0,416.0 L 588.0,451.0 L 575.0,653.0 L 617.0,651.0 L 735.0,613.0 L 757.0,592.0"/>
    <path d="M 744.0,215.0 L 772.0,231.0 L 794.0,258.0 L 792.0,1026.0"/>
  </g>
</svg>
