<svg xmlns="http://www.w3.org/2000/svg" viewBox="0 0 1024 1024">
  <g style="fill:none;stroke:#000000;stroke-width:50;stroke-linecap:round;stroke-linejoin:round;" transform="scale(1, 1) translate(0, 0)">
    <path d="M 297.0,219.0 L 322.0,246.0 L 328.0,273.0 L 269.0,392.0 L 193.0,521.0 L 188.0,544.0 L 212.0,549.0 L 313.0,543.0 L 333.0,532.0"/>
    <path d="M 411.0,387.0 L 430.0,427.0 L 391.0,494.0 L 263.0,660.0 L 255.0,674.0 L 253.0,704.0 L 287.0,705.0 L 422.0,655.0"/>
    <path d="M 148.0,901.0 L 182.0,908.0 L 212.0,906.0 L 454.0,771.0"/>
    <path d="M 524.0,402.0 L 560.0,402.0 L 714.0,359.0 L 743.0,363.0 L 771.0,393.0 L 732.0,516.0 L 719.0,527.0 L 704.0,530.0"/>
    <path d="M 554.0,613.0 L 565.0,599.0 L 703.0,563.0 L 745.0,560.0 L 767.0,565.0"/>
    <path d="M 498.0,575.0 L 518.0,595.0 L 526.0,627.0 L 517.0,774.0 L 526.0,852.0 L 545.0,893.0 L 590.0,923.0 L 666.0,941.0 L 732.0,942.0 L 788.0,935.0 L 865.0,908.0 L 892.0,890.0 L 904.0,873.0 L 908.0,733.0"/>
  </g>
</svg>
