<svg xmlns="http://www.w3.org/2000/svg" viewBox="0 0 1024 1024">
  <g style="fill:none;stroke:#000000;stroke-width:50;stroke-linecap:round;stroke-linejoin:round;" transform="scale(1, 1) translate(0, 0)">
    <path d="M 274.0,236.0 L 297.0,264.0 L 303.0,293.0 L 168.0,515.0 L 161.0,541.0 L 186.0,546.0 L 241.0,544.0 L 277.0,540.0 L 296.0,528.0"/>
    <path d="M 367.0,401.0 L 387.0,442.0 L 322.0,539.0 L 224.0,659.0 L 217.0,692.0 L 247.0,700.0 L 366.0,663.0"/>
    <path d="M 108.0,897.0 L 130.0,905.0 L 167.0,907.0 L 400.0,775.0"/>
    <path d="M 473.0,412.0 L 495.0,417.0 L 551.0,415.0 L 660.0,392.0 L 757.0,362.0 L 805.0,363.0"/>
    <path d="M 478.0,546.0 L 539.0,548.0 L 718.0,506.0 L 775.0,508.0"/>
    <path d="M 399.0,697.0 L 450.0,703.0 L 591.0,664.0 L 805.0,631.0 L 843.0,631.0 L 858.0,641.0 L 879.0,671.0 L 832.0,850.0 L 812.0,881.0 L 794.0,880.0 L 700.0,828.0"/>
    <path d="M 582.0,217.0 L 601.0,227.0 L 628.0,255.0 L 630.0,279.0 L 619.0,1060.0"/>
  </g>
</svg>
