<svg xmlns="http://www.w3.org/2000/svg" viewBox="0 0 1024 1024">
  <g style="fill:none;stroke:#000000;stroke-width:50;stroke-linecap:round;stroke-linejoin:round;" transform="scale(1, 1) translate(0, 0)">
    <path d="M 283.0,230.0 L 302.0,247.0 L 317.0,281.0 L 262.0,392.0 L 187.0,522.0 L 180.0,548.0 L 208.0,553.0 L 302.0,550.0 L 324.0,535.0"/>
    <path d="M 399.0,389.0 L 420.0,427.0 L 414.0,440.0 L 350.0,546.0 L 247.0,688.0 L 234.0,715.0 L 232.0,735.0 L 264.0,734.0 L 426.0,683.0"/>
    <path d="M 140.0,914.0 L 197.0,927.0 L 444.0,815.0"/>
    <path d="M 592.0,214.0 L 618.0,236.0 L 629.0,259.0 L 616.0,297.0 L 543.0,440.0 L 474.0,529.0"/>
    <path d="M 575.0,443.0 L 586.0,437.0 L 619.0,439.0 L 682.0,430.0 L 831.0,391.0 L 865.0,392.0"/>
    <path d="M 487.0,636.0 L 557.0,624.0 L 625.0,597.0 L 659.0,598.0 L 673.0,607.0 L 654.0,651.0 L 578.0,776.0 L 549.0,869.0 L 551.0,901.0 L 568.0,935.0 L 623.0,966.0 L 665.0,974.0 L 753.0,978.0 L 833.0,966.0 L 887.0,944.0 L 910.0,926.0 L 915.0,770.0"/>
  </g>
</svg>
