<svg xmlns="http://www.w3.org/2000/svg" viewBox="0 0 1024 1024">
  <g style="fill:none;stroke:#000000;stroke-width:50;stroke-linecap:round;stroke-linejoin:round;" transform="scale(1, 1) translate(0, 0)">
    <path d="M 263.0,226.0 L 282.0,243.0 L 297.0,277.0 L 242.0,390.0 L 165.0,526.0 L 161.0,548.0 L 192.0,552.0 L 280.0,546.0 L 300.0,535.0"/>
    <path d="M 367.0,404.0 L 383.0,428.0 L 385.0,448.0 L 325.0,543.0 L 296.0,577.0 L 293.0,589.0 L 232.0,667.0 L 225.0,708.0 L 268.0,707.0 L 398.0,659.0"/>
    <path d="M 105.0,899.0 L 161.0,908.0 L 391.0,787.0"/>
    <path d="M 557.0,212.0 L 574.0,222.0 L 600.0,254.0 L 600.0,328.0 L 584.0,519.0 L 553.0,664.0 L 513.0,763.0 L 462.0,838.0 L 394.0,909.0 L 319.0,961.0"/>
    <path d="M 432.0,485.0 L 452.0,492.0 L 495.0,491.0 L 680.0,438.0 L 736.0,436.0 L 748.0,448.0 L 723.0,591.0 L 719.0,704.0 L 728.0,780.0 L 752.0,848.0 L 786.0,895.0 L 817.0,923.0 L 865.0,948.0 L 903.0,951.0 L 917.0,903.0 L 922.0,774.0"/>
    <path d="M 450.0,625.0 L 591.0,733.0 L 615.0,763.0 L 624.0,788.0"/>
  </g>
</svg>
