<svg xmlns="http://www.w3.org/2000/svg" viewBox="0 0 1024 1024">
  <g style="fill:none;stroke:#000000;stroke-width:50;stroke-linecap:round;stroke-linejoin:round;" transform="scale(1, 1) translate(0, 0)">
    <path d="M 307.0,225.0 L 323.0,239.0 L 337.0,272.0 L 260.0,408.0 L 187.0,518.0 L 181.0,541.0 L 206.0,547.0 L 281.0,546.0 L 314.0,539.0 L 320.0,530.0"/>
    <path d="M 397.0,398.0 L 410.0,419.0 L 414.0,440.0 L 341.0,547.0 L 251.0,660.0 L 238.0,698.0 L 268.0,698.0 L 403.0,658.0"/>
    <path d="M 127.0,882.0 L 185.0,892.0 L 424.0,767.0"/>
    <path d="M 493.0,450.0 L 538.0,462.0 L 815.0,409.0 L 832.0,414.0 L 854.0,434.0 L 827.0,694.0 L 808.0,783.0 L 779.0,868.0 L 758.0,900.0 L 731.0,921.0 L 634.0,858.0"/>
    <path d="M 647.0,466.0 L 677.0,498.0 L 639.0,635.0 L 593.0,745.0 L 556.0,811.0 L 506.0,878.0 L 441.0,947.0 L 402.0,976.0"/>
    <path d="M 525.0,582.0 L 515.0,635.0 L 484.0,712.0"/>
  </g>
</svg>
