<svg xmlns="http://www.w3.org/2000/svg" viewBox="0 0 1024 1024">
  <g style="fill:none;stroke:#000000;stroke-width:50;stroke-linecap:round;stroke-linejoin:round;" transform="scale(1, 1) translate(0, 0)">
    <path d="M 281.0,226.0 L 302.0,252.0 L 307.0,279.0 L 245.0,398.0 L 159.0,536.0 L 153.0,561.0 L 176.0,566.0 L 229.0,564.0 L 280.0,558.0 L 295.0,550.0"/>
    <path d="M 376.0,392.0 L 398.0,429.0 L 349.0,513.0 L 228.0,680.0 L 224.0,715.0 L 253.0,715.0 L 384.0,656.0"/>
    <path d="M 112.0,891.0 L 169.0,900.0 L 404.0,767.0"/>
    <path d="M 452.0,469.0 L 475.0,486.0 L 483.0,502.0 L 492.0,591.0 L 486.0,742.0 L 463.0,920.0"/>
    <path d="M 513.0,507.0 L 526.0,489.0 L 801.0,426.0 L 827.0,434.0 L 850.0,460.0 L 863.0,834.0 L 859.0,926.0 L 844.0,957.0 L 796.0,946.0 L 710.0,909.0"/>
    <path d="M 608.0,234.0 L 650.0,260.0 L 659.0,278.0 L 653.0,431.0 L 641.0,553.0 L 626.0,619.0 L 604.0,670.0 L 563.0,722.0 L 512.0,759.0"/>
    <path d="M 666.0,603.0 L 667.0,613.0 L 745.0,671.0 L 773.0,723.0"/>
  </g>
</svg>
