<svg xmlns="http://www.w3.org/2000/svg" viewBox="0 0 1024 1024">
  <g style="fill:none;stroke:#000000;stroke-width:50;stroke-linecap:round;stroke-linejoin:round;" transform="scale(1, 1) translate(0, 0)">
    <path d="M 265.0,230.0 L 281.0,242.0 L 297.0,279.0 L 238.0,393.0 L 158.0,526.0 L 153.0,549.0 L 197.0,554.0 L 268.0,548.0 L 287.0,535.0"/>
    <path d="M 372.0,380.0 L 391.0,421.0 L 331.0,517.0 L 227.0,653.0 L 220.0,669.0 L 220.0,692.0 L 254.0,692.0 L 383.0,639.0"/>
    <path d="M 116.0,897.0 L 173.0,905.0 L 417.0,771.0"/>
    <path d="M 462.0,351.0 L 493.0,384.0 L 501.0,408.0 L 504.0,523.0 L 494.0,725.0 L 488.0,794.0 L 471.0,875.0 L 471.0,938.0"/>
    <path d="M 523.0,368.0 L 546.0,378.0 L 745.0,318.0 L 785.0,312.0 L 811.0,315.0 L 842.0,346.0 L 857.0,745.0 L 855.0,931.0 L 841.0,966.0 L 790.0,963.0 L 682.0,936.0"/>
    <path d="M 698.0,433.0 L 722.0,461.0 L 709.0,534.0 L 682.0,614.0 L 649.0,670.0 L 600.0,732.0 L 537.0,785.0"/>
    <path d="M 566.0,535.0 L 734.0,714.0 L 753.0,743.0 L 765.0,784.0"/>
  </g>
</svg>
