<svg xmlns="http://www.w3.org/2000/svg" viewBox="0 0 1024 1024">
  <g style="fill:none;stroke:#000000;stroke-width:50;stroke-linecap:round;stroke-linejoin:round;" transform="scale(1, 1) translate(0, 0)">
    <path d="M 274.0,234.0 L 291.0,250.0 L 306.0,282.0 L 240.0,411.0 L 179.0,511.0 L 172.0,537.0 L 196.0,542.0 L 270.0,539.0 L 305.0,523.0"/>
    <path d="M 380.0,384.0 L 395.0,405.0 L 399.0,425.0 L 326.0,538.0 L 255.0,627.0 L 237.0,657.0 L 233.0,682.0 L 282.0,675.0 L 399.0,635.0"/>
    <path d="M 115.0,862.0 L 124.0,868.0 L 176.0,873.0 L 417.0,759.0"/>
    <path d="M 610.0,239.0 L 638.0,260.0 L 654.0,285.0 L 639.0,603.0 L 645.0,651.0"/>
    <path d="M 516.0,479.0 L 506.0,536.0 L 468.0,633.0"/>
    <path d="M 776.0,421.0 L 894.0,481.0 L 919.0,506.0 L 936.0,536.0"/>
    <path d="M 756.0,544.0 L 774.0,575.0 L 775.0,597.0 L 718.0,723.0 L 653.0,818.0 L 598.0,879.0 L 522.0,943.0 L 443.0,993.0 L 349.0,1040.0"/>
  </g>
</svg>
