<svg xmlns="http://www.w3.org/2000/svg" viewBox="0 0 1024 1024">
  <g style="fill:none;stroke:#000000;stroke-width:50;stroke-linecap:round;stroke-linejoin:round;" transform="scale(1, 1) translate(0, 0)">
    <path d="M 262.0,258.0 L 278.0,274.0 L 293.0,307.0 L 223.0,445.0 L 154.0,560.0 L 148.0,585.0 L 200.0,591.0 L 256.0,587.0 L 283.0,572.0"/>
    <path d="M 347.0,448.0 L 368.0,485.0 L 306.0,589.0 L 218.0,705.0 L 204.0,732.0 L 200.0,755.0 L 250.0,749.0 L 370.0,711.0"/>
    <path d="M 93.0,936.0 L 148.0,942.0 L 383.0,815.0"/>
    <path d="M 504.0,616.0 L 531.0,591.0 L 567.0,580.0 L 606.0,578.0"/>
    <path d="M 438.0,427.0 L 453.0,438.0 L 475.0,470.0 L 479.0,628.0 L 463.0,815.0 L 467.0,849.0 L 505.0,843.0 L 601.0,783.0"/>
    <path d="M 822.0,459.0 L 838.0,504.0 L 714.0,582.0 L 706.0,588.0 L 705.0,600.0"/>
    <path d="M 630.0,280.0 L 658.0,298.0 L 680.0,325.0 L 670.0,464.0 L 673.0,719.0 L 686.0,853.0 L 703.0,900.0 L 731.0,928.0 L 778.0,947.0 L 831.0,950.0 L 893.0,937.0 L 907.0,927.0 L 911.0,914.0 L 922.0,785.0"/>
  </g>
</svg>
