<svg xmlns="http://www.w3.org/2000/svg" viewBox="0 0 1024 1024">
  <g style="fill:none;stroke:#000000;stroke-width:50;stroke-linecap:round;stroke-linejoin:round;" transform="scale(1, 1) translate(0, 0)">
    <path d="M 278.0,234.0 L 298.0,261.0 L 304.0,291.0 L 168.0,514.0 L 161.0,539.0 L 238.0,543.0 L 277.0,538.0 L 296.0,524.0"/>
    <path d="M 367.0,398.0 L 383.0,423.0 L 388.0,439.0 L 384.0,448.0 L 325.0,535.0 L 224.0,658.0 L 216.0,672.0 L 215.0,700.0 L 249.0,698.0 L 368.0,662.0"/>
    <path d="M 110.0,899.0 L 167.0,907.0 L 400.0,774.0"/>
    <path d="M 816.0,348.0 L 742.0,342.0 L 634.0,411.0 L 499.0,471.0"/>
    <path d="M 451.0,650.0 L 504.0,655.0 L 835.0,592.0 L 867.0,590.0 L 936.0,603.0"/>
    <path d="M 630.0,440.0 L 660.0,457.0 L 670.0,473.0 L 671.0,831.0 L 650.0,856.0"/>
    <path d="M 490.0,898.0 L 546.0,904.0 L 783.0,863.0 L 824.0,865.0 L 863.0,875.0"/>
  </g>
</svg>
