<svg xmlns="http://www.w3.org/2000/svg" viewBox="0 0 1024 1024">
  <g style="fill:none;stroke:#000000;stroke-width:50;stroke-linecap:round;stroke-linejoin:round;" transform="scale(1, 1) translate(0, 0)">
    <path d="M 291.0,237.0 L 313.0,264.0 L 319.0,292.0 L 250.0,416.0 L 176.0,532.0 L 169.0,557.0 L 239.0,561.0 L 320.0,548.0"/>
    <path d="M 395.0,403.0 L 414.0,444.0 L 367.0,518.0 L 239.0,688.0 L 226.0,714.0 L 224.0,733.0 L 251.0,733.0 L 390.0,687.0"/>
    <path d="M 127.0,906.0 L 183.0,915.0 L 434.0,787.0"/>
    <path d="M 607.0,233.0 L 626.0,246.0 L 646.0,278.0 L 609.0,366.0 L 531.0,508.0 L 473.0,593.0 L 414.0,658.0"/>
    <path d="M 652.0,357.0 L 661.0,384.0 L 735.0,480.0 L 829.0,579.0 L 977.0,619.0"/>
    <path d="M 729.0,624.0 L 742.0,663.0 L 570.0,778.0 L 559.0,780.0 L 555.0,793.0"/>
    <path d="M 503.0,637.0 L 531.0,672.0 L 519.0,850.0 L 527.0,928.0 L 545.0,959.0 L 592.0,986.0 L 642.0,998.0 L 718.0,1000.0 L 783.0,989.0 L 836.0,961.0 L 848.0,948.0 L 852.0,793.0"/>
  </g>
</svg>
