<svg xmlns="http://www.w3.org/2000/svg" viewBox="0 0 1024 1024">
  <g style="fill:none;stroke:#000000;stroke-width:50;stroke-linecap:round;stroke-linejoin:round;" transform="scale(1, 1) translate(0, 0)">
    <path d="M 277.0,241.0 L 300.0,268.0 L 306.0,297.0 L 202.0,486.0 L 163.0,545.0 L 156.0,569.0 L 199.0,574.0 L 283.0,568.0 L 302.0,556.0"/>
    <path d="M 367.0,437.0 L 386.0,479.0 L 322.0,575.0 L 230.0,687.0 L 221.0,701.0 L 218.0,733.0 L 254.0,734.0 L 391.0,687.0"/>
    <path d="M 115.0,906.0 L 173.0,916.0 L 412.0,791.0"/>
    <path d="M 689.0,261.0 L 707.0,286.0 L 712.0,305.0 L 583.0,422.0 L 533.0,461.0 L 523.0,459.0"/>
    <path d="M 459.0,455.0 L 499.0,488.0 L 505.0,535.0 L 502.0,739.0 L 489.0,827.0 L 493.0,863.0 L 538.0,849.0 L 640.0,765.0"/>
    <path d="M 554.0,614.0 L 618.0,610.0 L 709.0,581.0 L 767.0,555.0 L 804.0,545.0 L 829.0,547.0"/>
    <path d="M 616.0,426.0 L 642.0,434.0 L 664.0,459.0 L 667.0,525.0 L 680.0,608.0 L 710.0,713.0 L 750.0,804.0 L 801.0,875.0 L 870.0,930.0 L 906.0,936.0 L 911.0,926.0 L 926.0,882.0 L 950.0,750.0"/>
  </g>
</svg>
