<svg xmlns="http://www.w3.org/2000/svg" viewBox="0 0 1024 1024">
  <g style="fill:none;stroke:#000000;stroke-width:50;stroke-linecap:round;stroke-linejoin:round;" transform="scale(1, 1) translate(0, 0)">
    <path d="M 273.0,254.0 L 294.0,280.0 L 300.0,307.0 L 179.0,515.0 L 174.0,536.0 L 218.0,539.0 L 281.0,531.0 L 304.0,521.0"/>
    <path d="M 375.0,385.0 L 395.0,421.0 L 320.0,538.0 L 237.0,648.0 L 229.0,688.0 L 259.0,691.0 L 394.0,643.0"/>
    <path d="M 126.0,878.0 L 185.0,886.0 L 399.0,766.0"/>
    <path d="M 475.0,378.0 L 535.0,426.0 L 555.0,466.0"/>
    <path d="M 799.0,312.0 L 818.0,346.0 L 753.0,411.0 L 723.0,433.0"/>
    <path d="M 505.0,565.0 L 579.0,569.0 L 759.0,524.0 L 801.0,527.0"/>
    <path d="M 425.0,719.0 L 482.0,726.0 L 561.0,710.0 L 830.0,674.0 L 872.0,676.0 L 922.0,691.0"/>
    <path d="M 596.0,192.0 L 621.0,198.0 L 657.0,232.0 L 648.0,505.0 L 647.0,1058.0"/>
  </g>
</svg>
