<svg xmlns="http://www.w3.org/2000/svg" viewBox="0 0 1024 1024">
  <g style="fill:none;stroke:#000000;stroke-width:50;stroke-linecap:round;stroke-linejoin:round;" transform="scale(1, 1) translate(0, 0)">
    <path d="M 277.0,226.0 L 293.0,238.0 L 309.0,275.0 L 250.0,389.0 L 170.0,522.0 L 165.0,544.0 L 261.0,544.0 L 291.0,539.0 L 297.0,532.0"/>
    <path d="M 385.0,384.0 L 405.0,420.0 L 402.0,426.0 L 342.0,520.0 L 235.0,654.0 L 220.0,681.0 L 217.0,703.0 L 245.0,703.0 L 394.0,659.0"/>
    <path d="M 126.0,890.0 L 183.0,899.0 L 424.0,767.0"/>
    <path d="M 453.0,456.0 L 482.0,479.0 L 496.0,506.0 L 525.0,708.0 L 538.0,750.0"/>
    <path d="M 508.0,466.0 L 532.0,475.0 L 781.0,426.0 L 818.0,427.0 L 842.0,436.0 L 865.0,467.0 L 833.0,623.0 L 810.0,700.0 L 814.0,720.0"/>
    <path d="M 572.0,589.0 L 718.0,560.0 L 759.0,565.0"/>
    <path d="M 555.0,725.0 L 576.0,714.0 L 629.0,709.0 L 775.0,679.0"/>
    <path d="M 617.0,195.0 L 642.0,201.0 L 677.0,233.0 L 669.0,374.0 L 667.0,1091.0"/>
  </g>
</svg>
