<svg xmlns="http://www.w3.org/2000/svg" viewBox="0 0 1024 1024">
  <g style="fill:none;stroke:#000000;stroke-width:50;stroke-linecap:round;stroke-linejoin:round;" transform="scale(1, 1) translate(0, 0)">
    <path d="M 285.0,234.0 L 306.0,260.0 L 311.0,287.0 L 241.0,418.0 L 170.0,530.0 L 164.0,553.0 L 241.0,558.0 L 290.0,554.0 L 298.0,546.0"/>
    <path d="M 377.0,412.0 L 390.0,431.0 L 394.0,452.0 L 322.0,560.0 L 233.0,669.0 L 217.0,714.0 L 247.0,714.0 L 398.0,667.0"/>
    <path d="M 113.0,904.0 L 173.0,912.0 L 423.0,770.0"/>
    <path d="M 583.0,203.0 L 604.0,221.0 L 615.0,243.0 L 603.0,268.0 L 531.0,397.0 L 481.0,465.0 L 435.0,511.0"/>
    <path d="M 580.0,367.0 L 693.0,346.0 L 734.0,350.0 L 743.0,359.0 L 704.0,435.0 L 610.0,558.0 L 502.0,659.0 L 422.0,713.0"/>
    <path d="M 526.0,442.0 L 533.0,456.0 L 654.0,560.0 L 808.0,660.0 L 861.0,675.0 L 984.0,683.0"/>
    <path d="M 581.0,707.0 L 659.0,756.0 L 687.0,795.0"/>
    <path d="M 552.0,869.0 L 671.0,965.0 L 702.0,1020.0"/>
  </g>
</svg>
