<svg xmlns="http://www.w3.org/2000/svg" viewBox="0 0 1024 1024">
  <g style="fill:none;stroke:#000000;stroke-width:50;stroke-linecap:round;stroke-linejoin:round;" transform="scale(1, 1) translate(0, 0)">
    <path d="M 271.0,249.0 L 287.0,262.0 L 303.0,292.0 L 303.0,306.0 L 172.0,535.0 L 166.0,560.0 L 215.0,564.0 L 283.0,555.0 L 307.0,544.0"/>
    <path d="M 375.0,414.0 L 395.0,454.0 L 332.0,553.0 L 226.0,689.0 L 223.0,723.0 L 252.0,726.0 L 386.0,675.0"/>
    <path d="M 109.0,896.0 L 164.0,902.0 L 383.0,783.0"/>
    <path d="M 430.0,520.0 L 481.0,526.0 L 767.0,463.0 L 830.0,467.0"/>
    <path d="M 561.0,228.0 L 597.0,271.0 L 567.0,473.0 L 533.0,612.0 L 483.0,730.0 L 428.0,829.0 L 325.0,951.0"/>
    <path d="M 541.0,656.0 L 689.0,618.0 L 710.0,626.0 L 723.0,644.0 L 708.0,716.0 L 683.0,787.0 L 653.0,843.0 L 613.0,893.0 L 574.0,924.0 L 532.0,945.0 L 409.0,978.0"/>
    <path d="M 520.0,716.0 L 534.0,716.0 L 553.0,731.0 L 699.0,892.0 L 785.0,959.0 L 968.0,995.0"/>
    <path d="M 721.0,257.0 L 805.0,311.0 L 826.0,349.0"/>
  </g>
</svg>
