<svg xmlns="http://www.w3.org/2000/svg" viewBox="0 0 1024 1024">
  <g style="fill:none;stroke:#000000;stroke-width:50;stroke-linecap:round;stroke-linejoin:round;" transform="scale(1, 1) translate(0, 0)">
    <path d="M 272.0,235.0 L 286.0,247.0 L 303.0,282.0 L 246.0,395.0 L 177.0,510.0 L 172.0,534.0 L 270.0,535.0 L 304.0,527.0 L 311.0,519.0"/>
    <path d="M 380.0,384.0 L 401.0,420.0 L 352.0,505.0 L 229.0,672.0 L 224.0,708.0 L 258.0,708.0 L 379.0,659.0"/>
    <path d="M 124.0,891.0 L 181.0,900.0 L 396.0,775.0"/>
    <path d="M 425.0,541.0 L 485.0,541.0 L 734.0,471.0 L 758.0,466.0 L 796.0,469.0"/>
    <path d="M 402.0,733.0 L 460.0,731.0 L 576.0,691.0 L 622.0,687.0"/>
    <path d="M 483.0,614.0 L 516.0,641.0 L 515.0,741.0 L 507.0,786.0 L 489.0,837.0 L 469.0,870.0 L 431.0,917.0 L 379.0,957.0"/>
    <path d="M 574.0,207.0 L 606.0,222.0 L 630.0,245.0 L 644.0,425.0 L 677.0,605.0 L 700.0,693.0 L 732.0,781.0 L 780.0,871.0 L 826.0,930.0 L 857.0,959.0 L 896.0,980.0 L 911.0,979.0 L 930.0,934.0 L 951.0,813.0"/>
    <path d="M 784.0,587.0 L 800.0,607.0 L 808.0,632.0 L 756.0,726.0 L 699.0,800.0 L 668.0,829.0 L 628.0,863.0 L 571.0,898.0"/>
    <path d="M 714.0,287.0 L 801.0,329.0 L 822.0,355.0"/>
  </g>
</svg>
