<svg xmlns="http://www.w3.org/2000/svg" viewBox="0 0 1024 1024">
  <g style="fill:none;stroke:#000000;stroke-width:50;stroke-linecap:round;stroke-linejoin:round;" transform="scale(1, 1) translate(0, 0)">
    <path d="M 257.0,233.0 L 282.0,259.0 L 290.0,285.0 L 242.0,395.0 L 163.0,544.0 L 159.0,569.0 L 273.0,567.0 L 292.0,556.0"/>
    <path d="M 351.0,437.0 L 372.0,474.0 L 334.0,543.0 L 230.0,685.0 L 215.0,732.0 L 240.0,732.0 L 362.0,687.0"/>
    <path d="M 118.0,904.0 L 173.0,913.0 L 404.0,790.0"/>
    <path d="M 419.0,376.0 L 478.0,383.0 L 748.0,333.0 L 813.0,340.0"/>
    <path d="M 565.0,194.0 L 589.0,207.0 L 606.0,228.0 L 589.0,301.0 L 549.0,420.0 L 507.0,503.0 L 471.0,558.0 L 379.0,652.0"/>
    <path d="M 632.0,384.0 L 647.0,391.0 L 735.0,491.0 L 826.0,573.0 L 965.0,600.0"/>
    <path d="M 491.0,574.0 L 561.0,565.0 L 629.0,546.0 L 681.0,548.0"/>
    <path d="M 420.0,692.0 L 448.0,698.0 L 480.0,694.0 L 644.0,660.0 L 739.0,648.0 L 814.0,662.0"/>
    <path d="M 565.0,709.0 L 540.0,729.0 L 519.0,779.0 L 521.0,799.0 L 552.0,805.0 L 645.0,778.0 L 697.0,774.0 L 718.0,781.0 L 737.0,799.0 L 736.0,818.0 L 716.0,931.0 L 691.0,988.0 L 669.0,1020.0 L 642.0,1038.0 L 548.0,977.0"/>
  </g>
</svg>
