<svg xmlns="http://www.w3.org/2000/svg" viewBox="0 0 1024 1024">
  <g style="fill:none;stroke:#000000;stroke-width:50;stroke-linecap:round;stroke-linejoin:round;" transform="scale(1, 1) translate(0, 0)">
    <path d="M 266.0,232.0 L 282.0,249.0 L 296.0,282.0 L 236.0,391.0 L 166.0,499.0 L 150.0,540.0 L 177.0,545.0 L 247.0,542.0 L 271.0,539.0 L 285.0,529.0"/>
    <path d="M 368.0,393.0 L 387.0,431.0 L 299.0,554.0 L 206.0,665.0 L 200.0,698.0 L 235.0,701.0 L 374.0,659.0"/>
    <path d="M 106.0,889.0 L 158.0,897.0 L 402.0,772.0"/>
    <path d="M 565.0,215.0 L 651.0,259.0 L 679.0,294.0"/>
    <path d="M 465.0,419.0 L 475.0,424.0 L 528.0,422.0 L 645.0,398.0 L 748.0,368.0 L 790.0,369.0"/>
    <path d="M 547.0,444.0 L 577.0,468.0 L 551.0,523.0 L 499.0,593.0 L 489.0,622.0 L 521.0,625.0 L 663.0,580.0 L 705.0,570.0 L 717.0,576.0"/>
    <path d="M 700.0,515.0 L 753.0,565.0 L 770.0,608.0"/>
    <path d="M 512.0,691.0 L 531.0,724.0 L 517.0,765.0 L 485.0,826.0 L 450.0,874.0 L 400.0,923.0 L 319.0,973.0"/>
    <path d="M 626.0,615.0 L 645.0,626.0 L 656.0,644.0 L 643.0,853.0 L 653.0,935.0 L 663.0,958.0 L 677.0,972.0 L 713.0,990.0 L 765.0,999.0 L 834.0,995.0 L 891.0,979.0 L 924.0,952.0 L 928.0,813.0"/>
  </g>
</svg>
