<svg xmlns="http://www.w3.org/2000/svg" viewBox="0 0 1024 1024">
  <g style="fill:none;stroke:#000000;stroke-width:50;stroke-linecap:round;stroke-linejoin:round;" transform="scale(1, 1) translate(0, 0)">
    <path d="M 286.0,237.0 L 302.0,253.0 L 317.0,287.0 L 276.0,370.0 L 183.0,521.0 L 169.0,560.0 L 230.0,563.0 L 322.0,548.0"/>
    <path d="M 393.0,414.0 L 406.0,435.0 L 409.0,455.0 L 359.0,535.0 L 233.0,693.0 L 228.0,726.0 L 259.0,729.0 L 395.0,683.0"/>
    <path d="M 133.0,922.0 L 191.0,930.0 L 432.0,791.0"/>
    <path d="M 585.0,227.0 L 665.0,273.0 L 687.0,304.0"/>
    <path d="M 489.0,448.0 L 512.0,454.0 L 574.0,449.0 L 753.0,401.0 L 821.0,394.0"/>
    <path d="M 570.0,556.0 L 540.0,568.0 L 490.0,648.0 L 432.0,702.0"/>
    <path d="M 697.0,511.0 L 785.0,550.0 L 822.0,587.0"/>
    <path d="M 679.0,631.0 L 713.0,660.0 L 691.0,750.0 L 667.0,804.0 L 638.0,847.0 L 587.0,893.0 L 539.0,921.0 L 482.0,942.0 L 414.0,954.0"/>
    <path d="M 514.0,694.0 L 564.0,722.0 L 683.0,859.0 L 774.0,932.0 L 841.0,955.0 L 959.0,975.0"/>
  </g>
</svg>
