<svg xmlns="http://www.w3.org/2000/svg" viewBox="0 0 1024 1024">
  <g style="fill:none;stroke:#000000;stroke-width:50;stroke-linecap:round;stroke-linejoin:round;" transform="scale(1, 1) translate(0, 0)">
    <path d="M 267.0,241.0 L 282.0,256.0 L 297.0,291.0 L 220.0,429.0 L 155.0,530.0 L 150.0,552.0 L 172.0,557.0 L 227.0,553.0 L 290.0,540.0"/>
    <path d="M 367.0,391.0 L 386.0,432.0 L 325.0,531.0 L 220.0,665.0 L 213.0,700.0 L 248.0,706.0 L 371.0,663.0"/>
    <path d="M 109.0,892.0 L 171.0,898.0 L 406.0,763.0"/>
    <path d="M 582.0,234.0 L 602.0,245.0 L 626.0,276.0 L 617.0,310.0 L 566.0,447.0 L 525.0,529.0 L 465.0,631.0 L 425.0,681.0"/>
    <path d="M 640.0,369.0 L 638.0,391.0 L 760.0,531.0 L 833.0,598.0 L 865.0,611.0 L 997.0,636.0"/>
    <path d="M 500.0,642.0 L 564.0,643.0 L 666.0,613.0 L 721.0,609.0"/>
    <path d="M 450.0,753.0 L 476.0,776.0 L 484.0,792.0 L 524.0,1001.0"/>
    <path d="M 505.0,757.0 L 528.0,766.0 L 712.0,722.0 L 741.0,728.0 L 770.0,756.0 L 735.0,859.0 L 707.0,878.0"/>
    <path d="M 540.0,927.0 L 562.0,937.0 L 694.0,910.0 L 752.0,908.0 L 774.0,916.0"/>
  </g>
</svg>
