<svg xmlns="http://www.w3.org/2000/svg" viewBox="0 0 1024 1024">
  <g style="fill:none;stroke:#000000;stroke-width:50;stroke-linecap:round;stroke-linejoin:round;" transform="scale(1, 1) translate(0, 0)">
    <path d="M 258.0,284.0 L 274.0,301.0 L 288.0,335.0 L 167.0,538.0 L 160.0,561.0 L 180.0,567.0 L 236.0,568.0 L 284.0,560.0"/>
    <path d="M 365.0,408.0 L 385.0,444.0 L 324.0,539.0 L 217.0,679.0 L 213.0,712.0 L 249.0,712.0 L 367.0,667.0"/>
    <path d="M 106.0,898.0 L 114.0,903.0 L 169.0,904.0 L 392.0,779.0"/>
    <path d="M 549.0,418.0 L 600.0,467.0 L 611.0,497.0"/>
    <path d="M 818.0,359.0 L 833.0,387.0 L 761.0,470.0"/>
    <path d="M 535.0,583.0 L 592.0,587.0 L 769.0,550.0 L 849.0,550.0"/>
    <path d="M 653.0,238.0 L 671.0,247.0 L 706.0,285.0 L 690.0,810.0 L 697.0,856.0"/>
    <path d="M 675.0,598.0 L 666.0,604.0 L 656.0,647.0 L 622.0,696.0 L 577.0,750.0 L 530.0,792.0"/>
    <path d="M 752.0,655.0 L 818.0,708.0 L 843.0,753.0"/>
    <path d="M 446.0,329.0 L 482.0,369.0 L 484.0,403.0 L 483.0,651.0 L 472.0,959.0 L 514.0,960.0 L 619.0,936.0 L 814.0,913.0 L 887.0,910.0 L 926.0,924.0"/>
  </g>
</svg>
