<svg xmlns="http://www.w3.org/2000/svg" viewBox="0 0 1024 1024">
  <g style="fill:none;stroke:#000000;stroke-width:50;stroke-linecap:round;stroke-linejoin:round;" transform="scale(1, 1) translate(0, 0)">
    <path d="M 278.0,248.0 L 301.0,276.0 L 307.0,305.0 L 246.0,413.0 L 181.0,512.0 L 166.0,551.0 L 209.0,556.0 L 286.0,551.0 L 309.0,536.0"/>
    <path d="M 381.0,417.0 L 399.0,455.0 L 331.0,552.0 L 224.0,676.0 L 217.0,710.0 L 250.0,713.0 L 386.0,671.0"/>
    <path d="M 101.0,903.0 L 159.0,910.0 L 400.0,783.0"/>
    <path d="M 497.0,250.0 L 559.0,287.0 L 583.0,324.0"/>
    <path d="M 713.0,186.0 L 734.0,203.0 L 743.0,219.0 L 682.0,303.0 L 653.0,329.0 L 649.0,341.0"/>
    <path d="M 487.0,415.0 L 540.0,416.0 L 644.0,396.0 L 694.0,379.0 L 757.0,370.0 L 793.0,401.0 L 766.0,472.0 L 743.0,487.0"/>
    <path d="M 518.0,545.0 L 528.0,554.0 L 541.0,553.0 L 737.0,514.0 L 771.0,514.0 L 795.0,522.0"/>
    <path d="M 462.0,523.0 L 481.0,546.0 L 487.0,568.0 L 463.0,648.0 L 460.0,687.0 L 490.0,691.0 L 588.0,666.0 L 810.0,627.0 L 846.0,628.0 L 871.0,644.0 L 885.0,666.0 L 851.0,781.0 L 829.0,819.0 L 819.0,827.0 L 717.0,785.0"/>
    <path d="M 605.0,418.0 L 631.0,441.0 L 630.0,1056.0"/>
    <path d="M 604.0,687.0 L 589.0,704.0 L 582.0,729.0 L 548.0,774.0 L 472.0,857.0 L 394.0,923.0 L 317.0,965.0"/>
  </g>
</svg>
