<svg xmlns="http://www.w3.org/2000/svg" viewBox="0 0 1024 1024">
  <g style="fill:none;stroke:#000000;stroke-width:50;stroke-linecap:round;stroke-linejoin:round;" transform="scale(1, 1) translate(0, 0)">
    <path d="M 275.0,219.0 L 295.0,246.0 L 300.0,270.0 L 228.0,402.0 L 183.0,470.0 L 168.0,509.0 L 264.0,513.0 L 293.0,510.0 L 304.0,501.0"/>
    <path d="M 377.0,367.0 L 394.0,408.0 L 334.0,504.0 L 238.0,627.0 L 222.0,654.0 L 217.0,679.0 L 242.0,679.0 L 390.0,635.0"/>
    <path d="M 118.0,855.0 L 174.0,866.0 L 420.0,738.0"/>
    <path d="M 481.0,329.0 L 525.0,334.0 L 571.0,329.0 L 675.0,308.0 L 751.0,283.0 L 803.0,283.0"/>
    <path d="M 508.0,423.0 L 563.0,427.0 L 667.0,406.0 L 707.0,391.0 L 754.0,389.0"/>
    <path d="M 599.0,170.0 L 644.0,209.0 L 634.0,469.0 L 618.0,490.0"/>
    <path d="M 416.0,536.0 L 467.0,542.0 L 666.0,504.0 L 856.0,479.0 L 922.0,494.0"/>
    <path d="M 497.0,594.0 L 512.0,607.0 L 526.0,633.0 L 527.0,715.0 L 514.0,855.0 L 516.0,889.0"/>
    <path d="M 546.0,607.0 L 559.0,615.0 L 604.0,610.0 L 725.0,580.0 L 745.0,584.0 L 771.0,611.0 L 774.0,816.0 L 767.0,888.0"/>
    <path d="M 596.0,669.0 L 633.0,694.0 L 641.0,710.0 L 633.0,833.0 L 611.0,920.0 L 583.0,968.0 L 538.0,1003.0 L 444.0,1042.0 L 431.0,1038.0"/>
    <path d="M 701.0,924.0 L 793.0,997.0 L 810.0,1024.0 L 819.0,1054.0"/>
  </g>
</svg>
