<svg xmlns="http://www.w3.org/2000/svg" viewBox="0 0 1024 1024">
  <g style="fill:none;stroke:#000000;stroke-width:50;stroke-linecap:round;stroke-linejoin:round;" transform="scale(1, 1) translate(0, 0)">
    <path d="M 279.0,253.0 L 293.0,269.0 L 305.0,299.0 L 236.0,424.0 L 164.0,532.0 L 157.0,557.0 L 252.0,561.0 L 280.0,558.0 L 292.0,549.0"/>
    <path d="M 365.0,416.0 L 379.0,437.0 L 382.0,458.0 L 310.0,567.0 L 214.0,689.0 L 211.0,724.0 L 239.0,726.0 L 359.0,683.0"/>
    <path d="M 114.0,906.0 L 122.0,911.0 L 177.0,912.0 L 400.0,787.0"/>
    <path d="M 755.0,267.0 L 688.0,259.0 L 609.0,313.0 L 477.0,369.0"/>
    <path d="M 456.0,447.0 L 515.0,498.0 L 527.0,530.0"/>
    <path d="M 581.0,411.0 L 612.0,441.0 L 631.0,472.0"/>
    <path d="M 803.0,361.0 L 819.0,382.0 L 824.0,401.0 L 778.0,442.0 L 683.0,511.0"/>
    <path d="M 563.0,566.0 L 587.0,607.0 L 502.0,811.0 L 511.0,821.0 L 579.0,850.0 L 712.0,926.0 L 783.0,977.0 L 826.0,1030.0"/>
    <path d="M 687.0,634.0 L 716.0,659.0 L 713.0,710.0 L 678.0,806.0 L 646.0,861.0 L 616.0,897.0 L 552.0,943.0 L 455.0,983.0 L 394.0,994.0"/>
    <path d="M 386.0,696.0 L 437.0,704.0 L 619.0,675.0 L 854.0,651.0 L 903.0,656.0 L 937.0,668.0"/>
  </g>
</svg>
