<svg xmlns="http://www.w3.org/2000/svg" viewBox="0 0 1024 1024">
  <g style="fill:none;stroke:#000000;stroke-width:50;stroke-linecap:round;stroke-linejoin:round;" transform="scale(1, 1) translate(0, 0)">
    <path d="M 261.0,255.0 L 277.0,267.0 L 294.0,304.0 L 246.0,408.0 L 168.0,547.0 L 163.0,569.0 L 187.0,574.0 L 242.0,571.0 L 281.0,563.0 L 289.0,555.0"/>
    <path d="M 363.0,412.0 L 385.0,449.0 L 313.0,567.0 L 232.0,673.0 L 216.0,701.0 L 212.0,727.0 L 242.0,726.0 L 366.0,687.0"/>
    <path d="M 106.0,900.0 L 161.0,909.0 L 348.0,810.0"/>
    <path d="M 527.0,345.0 L 553.0,365.0 L 574.0,393.0 L 568.0,781.0 L 555.0,936.0 L 557.0,1010.0"/>
    <path d="M 415.0,518.0 L 471.0,521.0 L 523.0,509.0 L 543.0,493.0"/>
    <path d="M 415.0,650.0 L 489.0,644.0 L 527.0,633.0 L 545.0,615.0"/>
    <path d="M 386.0,797.0 L 434.0,805.0 L 513.0,765.0 L 527.0,764.0 L 533.0,747.0"/>
    <path d="M 660.0,233.0 L 705.0,274.0 L 715.0,296.0 L 717.0,743.0 L 706.0,952.0 L 712.0,1033.0"/>
    <path d="M 745.0,487.0 L 756.0,478.0 L 862.0,454.0 L 902.0,458.0"/>
    <path d="M 743.0,624.0 L 754.0,631.0 L 777.0,632.0 L 868.0,614.0 L 888.0,617.0"/>
    <path d="M 743.0,803.0 L 758.0,790.0 L 882.0,771.0 L 914.0,773.0 L 939.0,782.0"/>
  </g>
</svg>
