<svg xmlns="http://www.w3.org/2000/svg" viewBox="0 0 1024 1024">
  <g style="fill:none;stroke:#000000;stroke-width:50;stroke-linecap:round;stroke-linejoin:round;" transform="scale(1, 1) translate(0, 0)">
    <path d="M 269.0,237.0 L 286.0,253.0 L 300.0,287.0 L 223.0,431.0 L 167.0,519.0 L 160.0,545.0 L 213.0,550.0 L 276.0,544.0 L 296.0,531.0"/>
    <path d="M 375.0,394.0 L 396.0,433.0 L 353.0,500.0 L 220.0,663.0 L 205.0,689.0 L 202.0,709.0 L 230.0,710.0 L 366.0,671.0"/>
    <path d="M 107.0,896.0 L 161.0,906.0 L 403.0,787.0"/>
    <path d="M 493.0,351.0 L 553.0,356.0 L 643.0,339.0 L 718.0,317.0 L 784.0,312.0"/>
    <path d="M 592.0,188.0 L 614.0,202.0 L 629.0,225.0 L 616.0,332.0 L 599.0,386.0 L 551.0,460.0 L 510.0,497.0 L 465.0,523.0"/>
    <path d="M 660.0,398.0 L 734.0,446.0 L 759.0,484.0"/>
    <path d="M 410.0,588.0 L 457.0,594.0 L 616.0,563.0 L 856.0,533.0 L 890.0,534.0 L 944.0,549.0"/>
    <path d="M 424.0,675.0 L 454.0,705.0 L 484.0,838.0"/>
    <path d="M 481.0,698.0 L 490.0,688.0 L 555.0,672.0 L 592.0,666.0 L 609.0,670.0 L 627.0,691.0 L 625.0,702.0 L 611.0,744.0 L 588.0,759.0"/>
    <path d="M 504.0,810.0 L 511.0,801.0 L 558.0,790.0 L 596.0,786.0 L 638.0,791.0"/>
    <path d="M 697.0,579.0 L 736.0,603.0 L 741.0,617.0 L 743.0,970.0 L 729.0,1012.0 L 716.0,1028.0 L 680.0,1016.0 L 616.0,978.0"/>
  </g>
</svg>
