<svg xmlns="http://www.w3.org/2000/svg" viewBox="0 0 1024 1024">
  <g style="fill:none;stroke:#000000;stroke-width:50;stroke-linecap:round;stroke-linejoin:round;" transform="scale(1, 1) translate(0, 0)">
    <path d="M 273.0,224.0 L 286.0,236.0 L 303.0,270.0 L 270.0,343.0 L 182.0,499.0 L 175.0,526.0 L 274.0,527.0 L 309.0,514.0"/>
    <path d="M 369.0,399.0 L 388.0,436.0 L 326.0,536.0 L 228.0,663.0 L 221.0,701.0 L 256.0,702.0 L 367.0,663.0"/>
    <path d="M 102.0,881.0 L 155.0,890.0 L 388.0,767.0"/>
    <path d="M 452.0,284.0 L 477.0,305.0 L 485.0,321.0 L 524.0,478.0"/>
    <path d="M 503.0,286.0 L 512.0,294.0 L 526.0,295.0 L 633.0,275.0 L 677.0,260.0 L 723.0,264.0 L 744.0,290.0 L 716.0,371.0 L 692.0,381.0"/>
    <path d="M 539.0,428.0 L 550.0,438.0 L 676.0,414.0 L 725.0,414.0 L 747.0,422.0"/>
    <path d="M 410.0,565.0 L 435.0,588.0 L 448.0,622.0 L 488.0,841.0"/>
    <path d="M 458.0,567.0 L 479.0,576.0 L 702.0,533.0 L 771.0,528.0 L 792.0,533.0 L 822.0,565.0 L 782.0,737.0 L 762.0,795.0 L 767.0,815.0"/>
    <path d="M 524.0,693.0 L 677.0,664.0 L 719.0,669.0"/>
    <path d="M 509.0,822.0 L 516.0,813.0 L 723.0,779.0"/>
    <path d="M 587.0,452.0 L 602.0,466.0 L 614.0,507.0 L 611.0,849.0 L 618.0,910.0 L 638.0,952.0 L 668.0,976.0 L 733.0,992.0 L 815.0,994.0 L 896.0,975.0 L 920.0,960.0 L 920.0,820.0"/>
  </g>
</svg>
