<svg xmlns="http://www.w3.org/2000/svg" viewBox="0 0 1024 1024">
  <g style="fill:none;stroke:#000000;stroke-width:50;stroke-linecap:round;stroke-linejoin:round;" transform="scale(1, 1) translate(0, 0)">
    <path d="M 269.0,265.0 L 286.0,281.0 L 300.0,315.0 L 223.0,459.0 L 167.0,548.0 L 161.0,572.0 L 214.0,577.0 L 279.0,569.0 L 294.0,560.0"/>
    <path d="M 368.0,416.0 L 389.0,452.0 L 318.0,568.0 L 226.0,689.0 L 220.0,728.0 L 251.0,730.0 L 355.0,691.0"/>
    <path d="M 116.0,918.0 L 174.0,926.0 L 396.0,795.0"/>
    <path d="M 723.0,271.0 L 658.0,259.0 L 578.0,308.0 L 479.0,346.0"/>
    <path d="M 447.0,390.0 L 517.0,459.0 L 526.0,490.0"/>
    <path d="M 570.0,362.0 L 617.0,413.0 L 629.0,435.0"/>
    <path d="M 774.0,327.0 L 794.0,362.0 L 752.0,412.0 L 710.0,454.0 L 700.0,457.0 L 699.0,464.0"/>
    <path d="M 429.0,514.0 L 436.0,559.0 L 406.0,628.0 L 402.0,654.0"/>
    <path d="M 467.0,561.0 L 628.0,520.0 L 789.0,494.0 L 818.0,505.0 L 836.0,526.0 L 777.0,612.0"/>
    <path d="M 483.0,688.0 L 516.0,688.0 L 657.0,644.0 L 679.0,653.0 L 694.0,674.0 L 676.0,743.0 L 647.0,807.0 L 608.0,863.0 L 578.0,893.0 L 531.0,923.0 L 484.0,942.0 L 371.0,970.0 L 350.0,970.0"/>
    <path d="M 491.0,746.0 L 531.0,763.0 L 647.0,878.0 L 786.0,979.0 L 817.0,992.0 L 959.0,998.0"/>
  </g>
</svg>
