<svg xmlns="http://www.w3.org/2000/svg" viewBox="0 0 1024 1024">
  <g style="fill:none;stroke:#000000;stroke-width:50;stroke-linecap:round;stroke-linejoin:round;" transform="scale(1, 1) translate(0, 0)">
    <path d="M 266.0,245.0 L 279.0,257.0 L 293.0,292.0 L 249.0,376.0 L 163.0,513.0 L 156.0,538.0 L 182.0,543.0 L 235.0,541.0 L 286.0,527.0"/>
    <path d="M 358.0,385.0 L 378.0,419.0 L 320.0,518.0 L 231.0,639.0 L 223.0,654.0 L 222.0,682.0 L 256.0,683.0 L 383.0,635.0"/>
    <path d="M 109.0,878.0 L 168.0,880.0 L 390.0,731.0"/>
    <path d="M 565.0,223.0 L 646.0,270.0 L 673.0,306.0"/>
    <path d="M 461.0,390.0 L 474.0,426.0 L 441.0,518.0 L 439.0,546.0"/>
    <path d="M 502.0,442.0 L 608.0,410.0 L 742.0,378.0 L 785.0,374.0 L 814.0,385.0 L 833.0,406.0 L 777.0,492.0"/>
    <path d="M 519.0,560.0 L 574.0,562.0 L 675.0,537.0 L 726.0,535.0"/>
    <path d="M 436.0,700.0 L 489.0,704.0 L 553.0,687.0 L 768.0,651.0 L 849.0,664.0"/>
    <path d="M 611.0,701.0 L 639.0,725.0 L 642.0,740.0 L 642.0,899.0 L 629.0,963.0 L 618.0,977.0 L 599.0,974.0 L 512.0,937.0"/>
    <path d="M 483.0,789.0 L 463.0,845.0 L 415.0,926.0"/>
    <path d="M 745.0,776.0 L 843.0,854.0 L 864.0,884.0 L 874.0,918.0"/>
  </g>
</svg>
