<svg xmlns="http://www.w3.org/2000/svg" viewBox="0 0 1024 1024">
  <g style="fill:none;stroke:#000000;stroke-width:50;stroke-linecap:round;stroke-linejoin:round;" transform="scale(1, 1) translate(0, 0)">
    <path d="M 258.0,263.0 L 283.0,290.0 L 290.0,316.0 L 242.0,411.0 L 166.0,540.0 L 161.0,563.0 L 194.0,567.0 L 271.0,557.0 L 281.0,550.0"/>
    <path d="M 346.0,421.0 L 366.0,455.0 L 319.0,537.0 L 214.0,677.0 L 206.0,718.0 L 240.0,719.0 L 367.0,671.0"/>
    <path d="M 115.0,885.0 L 147.0,887.0 L 169.0,881.0 L 278.0,809.0 L 286.0,798.0 L 298.0,796.0 L 305.0,785.0 L 343.0,759.0"/>
    <path d="M 387.0,518.0 L 445.0,520.0 L 572.0,482.0 L 620.0,483.0"/>
    <path d="M 471.0,269.0 L 519.0,316.0 L 512.0,762.0 L 500.0,927.0 L 501.0,1021.0"/>
    <path d="M 490.0,539.0 L 471.0,630.0 L 449.0,679.0 L 379.0,803.0 L 308.0,895.0"/>
    <path d="M 535.0,633.0 L 595.0,679.0 L 611.0,707.0"/>
    <path d="M 647.0,436.0 L 673.0,464.0 L 681.0,531.0 L 682.0,748.0 L 670.0,878.0 L 677.0,939.0"/>
    <path d="M 705.0,472.0 L 715.0,461.0 L 825.0,423.0 L 843.0,426.0 L 873.0,454.0 L 885.0,843.0 L 872.0,896.0 L 877.0,954.0"/>
    <path d="M 702.0,620.0 L 716.0,608.0 L 744.0,600.0 L 779.0,597.0 L 804.0,602.0"/>
    <path d="M 702.0,728.0 L 738.0,710.0 L 775.0,704.0 L 808.0,710.0"/>
    <path d="M 704.0,896.0 L 722.0,880.0 L 789.0,867.0 L 820.0,867.0"/>
  </g>
</svg>
