<svg xmlns="http://www.w3.org/2000/svg" viewBox="0 0 1024 1024">
  <g style="fill:none;stroke:#000000;stroke-width:50;stroke-linecap:round;stroke-linejoin:round;" transform="scale(1, 1) translate(0, 0)">
    <path d="M 254.0,239.0 L 269.0,254.0 L 283.0,284.0 L 223.0,401.0 L 162.0,501.0 L 156.0,525.0 L 200.0,530.0 L 260.0,524.0 L 289.0,512.0"/>
    <path d="M 354.0,385.0 L 374.0,419.0 L 315.0,518.0 L 216.0,651.0 L 209.0,682.0 L 241.0,681.0 L 363.0,650.0"/>
    <path d="M 104.0,855.0 L 161.0,864.0 L 376.0,739.0"/>
    <path d="M 425.0,377.0 L 456.0,374.0 L 515.0,356.0 L 543.0,354.0 L 562.0,361.0 L 554.0,392.0 L 484.0,507.0 L 436.0,561.0 L 396.0,593.0"/>
    <path d="M 424.0,457.0 L 532.0,522.0 L 553.0,541.0 L 573.0,574.0"/>
    <path d="M 644.0,345.0 L 686.0,344.0 L 752.0,328.0 L 781.0,327.0 L 803.0,336.0 L 785.0,383.0 L 748.0,442.0 L 690.0,511.0 L 625.0,564.0"/>
    <path d="M 632.0,424.0 L 785.0,511.0 L 825.0,546.0 L 839.0,574.0"/>
    <path d="M 386.0,683.0 L 438.0,684.0 L 527.0,655.0 L 548.0,658.0 L 560.0,671.0 L 516.0,773.0 L 455.0,855.0 L 394.0,905.0 L 336.0,934.0 L 316.0,937.0"/>
    <path d="M 404.0,769.0 L 524.0,846.0 L 545.0,869.0 L 556.0,893.0"/>
    <path d="M 641.0,657.0 L 714.0,649.0 L 773.0,630.0 L 791.0,637.0 L 804.0,653.0 L 778.0,764.0 L 745.0,830.0 L 719.0,865.0 L 654.0,906.0 L 561.0,935.0"/>
    <path d="M 610.0,725.0 L 647.0,746.0 L 754.0,878.0 L 834.0,946.0 L 859.0,959.0 L 974.0,976.0"/>
  </g>
</svg>
