<svg xmlns="http://www.w3.org/2000/svg" viewBox="0 0 1024 1024">
  <g style="fill:none;stroke:#000000;stroke-width:50;stroke-linecap:round;stroke-linejoin:round;" transform="scale(1, 1) translate(0, 0)">
    <path d="M 251.0,273.0 L 267.0,288.0 L 280.0,321.0 L 217.0,432.0 L 152.0,530.0 L 146.0,551.0 L 172.0,556.0 L 260.0,552.0 L 274.0,543.0"/>
    <path d="M 342.0,417.0 L 362.0,452.0 L 304.0,548.0 L 214.0,666.0 L 207.0,705.0 L 243.0,704.0 L 347.0,663.0"/>
    <path d="M 106.0,886.0 L 153.0,889.0 L 343.0,771.0"/>
    <path d="M 469.0,524.0 L 490.0,532.0 L 519.0,527.0 L 637.0,499.0 L 724.0,468.0 L 769.0,465.0"/>
    <path d="M 407.0,511.0 L 429.0,526.0 L 444.0,554.0 L 440.0,674.0 L 422.0,783.0 L 403.0,839.0 L 369.0,898.0 L 326.0,945.0 L 274.0,980.0"/>
    <path d="M 486.0,642.0 L 512.0,643.0 L 603.0,619.0 L 631.0,619.0"/>
    <path d="M 464.0,733.0 L 488.0,761.0 L 513.0,903.0"/>
    <path d="M 512.0,749.0 L 519.0,741.0 L 591.0,719.0 L 613.0,723.0 L 627.0,740.0 L 624.0,754.0 L 611.0,801.0 L 595.0,807.0"/>
    <path d="M 528.0,860.0 L 545.0,847.0 L 590.0,837.0 L 636.0,842.0"/>
    <path d="M 569.0,199.0 L 605.0,215.0 L 631.0,242.0 L 637.0,376.0 L 668.0,577.0 L 704.0,714.0 L 729.0,781.0 L 763.0,846.0 L 831.0,937.0 L 864.0,962.0 L 902.0,974.0 L 917.0,943.0 L 938.0,833.0"/>
    <path d="M 816.0,576.0 L 840.0,624.0 L 795.0,738.0 L 747.0,823.0 L 713.0,870.0 L 660.0,921.0 L 624.0,945.0"/>
    <path d="M 721.0,287.0 L 801.0,336.0 L 830.0,374.0"/>
  </g>
</svg>
