<svg xmlns="http://www.w3.org/2000/svg" viewBox="0 0 1024 1024">
  <g style="fill:none;stroke:#000000;stroke-width:50;stroke-linecap:round;stroke-linejoin:round;" transform="scale(1, 1) translate(0, 0)">
    <path d="M 261.0,234.0 L 275.0,249.0 L 289.0,280.0 L 229.0,392.0 L 161.0,499.0 L 145.0,539.0 L 172.0,544.0 L 222.0,541.0 L 267.0,536.0 L 278.0,527.0"/>
    <path d="M 346.0,407.0 L 365.0,443.0 L 304.0,537.0 L 207.0,660.0 L 201.0,687.0 L 229.0,687.0 L 375.0,642.0"/>
    <path d="M 123.0,874.0 L 181.0,880.0 L 404.0,743.0"/>
    <path d="M 426.0,295.0 L 450.0,327.0 L 447.0,441.0 L 454.0,477.0"/>
    <path d="M 510.0,230.0 L 527.0,237.0 L 545.0,265.0 L 547.0,364.0 L 538.0,513.0"/>
    <path d="M 667.0,194.0 L 686.0,207.0 L 697.0,224.0 L 690.0,254.0 L 648.0,362.0 L 602.0,434.0"/>
    <path d="M 680.0,346.0 L 750.0,336.0 L 835.0,312.0 L 871.0,315.0"/>
    <path d="M 705.0,405.0 L 772.0,448.0 L 799.0,488.0"/>
    <path d="M 455.0,544.0 L 479.0,569.0 L 483.0,593.0 L 485.0,681.0 L 473.0,762.0 L 476.0,810.0"/>
    <path d="M 506.0,559.0 L 514.0,566.0 L 566.0,559.0 L 678.0,529.0 L 703.0,534.0 L 719.0,551.0 L 725.0,561.0 L 725.0,753.0 L 718.0,806.0"/>
    <path d="M 555.0,620.0 L 580.0,638.0 L 591.0,663.0 L 572.0,783.0 L 538.0,877.0 L 510.0,918.0 L 459.0,960.0 L 405.0,987.0 L 344.0,1003.0 L 337.0,1000.0"/>
    <path d="M 606.0,748.0 L 628.0,789.0 L 621.0,901.0 L 629.0,957.0 L 652.0,986.0 L 697.0,1003.0 L 822.0,1004.0 L 874.0,994.0 L 908.0,977.0 L 904.0,817.0"/>
  </g>
</svg>
