<svg xmlns="http://www.w3.org/2000/svg" viewBox="0 0 1024 1024">
  <g style="fill:none;stroke:#000000;stroke-width:50;stroke-linecap:round;stroke-linejoin:round;" transform="scale(1, 1) translate(0, 0)">
    <path d="M 262.0,261.0 L 276.0,272.0 L 290.0,310.0 L 247.0,403.0 L 177.0,528.0 L 172.0,553.0 L 253.0,553.0 L 278.0,549.0 L 291.0,540.0"/>
    <path d="M 358.0,409.0 L 378.0,443.0 L 319.0,542.0 L 224.0,668.0 L 218.0,706.0 L 249.0,708.0 L 387.0,659.0"/>
    <path d="M 132.0,880.0 L 158.0,887.0 L 192.0,885.0 L 408.0,763.0"/>
    <path d="M 456.0,316.0 L 482.0,336.0 L 489.0,350.0 L 516.0,454.0"/>
    <path d="M 504.0,319.0 L 531.0,325.0 L 648.0,307.0 L 714.0,290.0 L 749.0,289.0 L 774.0,308.0 L 779.0,322.0 L 760.0,363.0 L 736.0,379.0"/>
    <path d="M 529.0,437.0 L 546.0,427.0 L 596.0,425.0 L 736.0,403.0 L 776.0,402.0 L 799.0,410.0"/>
    <path d="M 593.0,203.0 L 632.0,239.0 L 629.0,474.0 L 615.0,490.0"/>
    <path d="M 396.0,532.0 L 447.0,540.0 L 680.0,504.0 L 862.0,485.0 L 933.0,502.0"/>
    <path d="M 481.0,590.0 L 504.0,612.0 L 512.0,630.0 L 514.0,737.0 L 504.0,824.0 L 508.0,878.0"/>
    <path d="M 529.0,602.0 L 547.0,609.0 L 571.0,606.0 L 692.0,576.0 L 714.0,580.0 L 727.0,591.0 L 741.0,614.0 L 741.0,816.0 L 735.0,876.0"/>
    <path d="M 575.0,673.0 L 595.0,681.0 L 621.0,708.0 L 606.0,864.0 L 576.0,948.0 L 544.0,984.0 L 498.0,1011.0 L 430.0,1037.0 L 399.0,1039.0"/>
    <path d="M 678.0,920.0 L 772.0,984.0 L 794.0,1014.0 L 806.0,1047.0"/>
  </g>
</svg>
