<svg xmlns="http://www.w3.org/2000/svg" viewBox="0 0 1024 1024">
  <g style="fill:none;stroke:#000000;stroke-width:50;stroke-linecap:round;stroke-linejoin:round;" transform="scale(1, 1) translate(0, 0)">
    <path d="M 235.0,258.0 L 257.0,280.0 L 263.0,305.0 L 190.0,458.0 L 156.0,514.0 L 151.0,538.0 L 209.0,540.0 L 269.0,526.0"/>
    <path d="M 334.0,393.0 L 348.0,413.0 L 352.0,432.0 L 286.0,542.0 L 206.0,649.0 L 199.0,663.0 L 199.0,689.0 L 234.0,689.0 L 335.0,651.0"/>
    <path d="M 103.0,877.0 L 154.0,883.0 L 296.0,792.0 L 306.0,791.0 L 355.0,755.0"/>
    <path d="M 480.0,275.0 L 502.0,291.0 L 514.0,312.0 L 493.0,374.0 L 411.0,532.0 L 353.0,607.0"/>
    <path d="M 427.0,543.0 L 430.0,569.0 L 446.0,599.0 L 443.0,760.0 L 425.0,929.0 L 431.0,975.0"/>
    <path d="M 591.0,348.0 L 630.0,348.0 L 731.0,320.0 L 762.0,324.0 L 782.0,345.0 L 755.0,426.0 L 729.0,450.0"/>
    <path d="M 540.0,500.0 L 568.0,502.0 L 622.0,488.0 L 819.0,456.0 L 875.0,457.0 L 903.0,465.0"/>
    <path d="M 572.0,525.0 L 588.0,534.0 L 601.0,557.0 L 573.0,619.0 L 519.0,686.0"/>
    <path d="M 601.0,618.0 L 685.0,607.0 L 799.0,578.0 L 828.0,579.0"/>
    <path d="M 503.0,768.0 L 542.0,774.0 L 819.0,720.0 L 866.0,719.0 L 911.0,729.0"/>
    <path d="M 649.0,634.0 L 682.0,660.0 L 670.0,767.0 L 643.0,850.0 L 622.0,887.0 L 578.0,932.0 L 535.0,959.0 L 500.0,970.0"/>
    <path d="M 700.0,767.0 L 771.0,858.0 L 860.0,945.0 L 980.0,972.0"/>
  </g>
</svg>
