<svg xmlns="http://www.w3.org/2000/svg" viewBox="0 0 1024 1024">
  <g style="fill:none;stroke:#000000;stroke-width:50;stroke-linecap:round;stroke-linejoin:round;" transform="scale(1, 1) translate(0, 0)">
    <path d="M 278.0,234.0 L 298.0,261.0 L 304.0,291.0 L 168.0,514.0 L 161.0,539.0 L 238.0,543.0 L 277.0,538.0 L 296.0,524.0"/>
    <path d="M 367.0,398.0 L 383.0,423.0 L 388.0,439.0 L 384.0,448.0 L 325.0,535.0 L 224.0,658.0 L 216.0,672.0 L 215.0,700.0 L 249.0,698.0 L 368.0,662.0"/>
    <path d="M 110.0,899.0 L 167.0,907.0 L 400.0,774.0"/>
    <path d="M 455.0,306.0 L 482.0,330.0 L 487.0,344.0 L 530.0,572.0"/>
    <path d="M 513.0,314.0 L 527.0,322.0 L 581.0,308.0 L 729.0,285.0 L 766.0,294.0 L 788.0,321.0 L 756.0,458.0 L 734.0,525.0 L 735.0,544.0"/>
    <path d="M 537.0,440.0 L 545.0,431.0 L 640.0,411.0 L 686.0,414.0"/>
    <path d="M 554.0,545.0 L 560.0,535.0 L 700.0,511.0"/>
    <path d="M 423.0,676.0 L 446.0,695.0 L 459.0,722.0 L 490.0,883.0 L 506.0,899.0"/>
    <path d="M 472.0,680.0 L 501.0,690.0 L 765.0,641.0 L 802.0,642.0 L 818.0,650.0 L 842.0,677.0 L 807.0,841.0 L 780.0,865.0"/>
    <path d="M 578.0,694.0 L 574.0,705.0 L 585.0,761.0 L 592.0,874.0 L 601.0,888.0"/>
    <path d="M 679.0,677.0 L 696.0,690.0 L 707.0,711.0 L 683.0,867.0 L 667.0,877.0"/>
    <path d="M 360.0,927.0 L 412.0,937.0 L 620.0,908.0 L 851.0,889.0 L 913.0,894.0 L 955.0,909.0"/>
  </g>
</svg>
