<svg xmlns="http://www.w3.org/2000/svg" viewBox="0 0 1024 1024">
  <g style="fill:none;stroke:#000000;stroke-width:50;stroke-linecap:round;stroke-linejoin:round;" transform="scale(1, 1) translate(0, 0)">
    <path d="M 267.0,251.0 L 291.0,278.0 L 298.0,298.0 L 244.0,412.0 L 179.0,522.0 L 164.0,565.0 L 188.0,570.0 L 241.0,567.0 L 281.0,561.0 L 295.0,553.0"/>
    <path d="M 359.0,421.0 L 380.0,460.0 L 332.0,545.0 L 219.0,706.0 L 213.0,737.0 L 245.0,735.0 L 383.0,687.0"/>
    <path d="M 109.0,925.0 L 119.0,930.0 L 169.0,930.0 L 380.0,811.0"/>
    <path d="M 512.0,294.0 L 536.0,300.0 L 697.0,262.0 L 718.0,265.0 L 750.0,292.0 L 731.0,344.0 L 706.0,361.0"/>
    <path d="M 519.0,416.0 L 539.0,422.0 L 706.0,387.0 L 748.0,385.0 L 767.0,392.0"/>
    <path d="M 460.0,280.0 L 487.0,309.0 L 493.0,353.0 L 495.0,453.0 L 481.0,649.0 L 532.0,637.0 L 626.0,586.0"/>
    <path d="M 547.0,522.0 L 583.0,525.0 L 627.0,519.0 L 746.0,483.0 L 813.0,474.0"/>
    <path d="M 617.0,430.0 L 660.0,456.0 L 686.0,528.0 L 722.0,593.0 L 783.0,663.0 L 816.0,686.0 L 848.0,699.0 L 877.0,698.0 L 892.0,635.0 L 892.0,590.0 L 899.0,575.0"/>
    <path d="M 481.0,738.0 L 503.0,760.0 L 510.0,777.0 L 511.0,865.0 L 497.0,976.0 L 500.0,1025.0"/>
    <path d="M 532.0,749.0 L 543.0,757.0 L 708.0,722.0 L 741.0,747.0 L 746.0,961.0 L 735.0,989.0 L 736.0,1038.0"/>
    <path d="M 538.0,878.0 L 547.0,868.0 L 615.0,852.0 L 646.0,848.0 L 676.0,853.0"/>
    <path d="M 528.0,990.0 L 551.0,979.0 L 701.0,961.0"/>
  </g>
</svg>
