<svg xmlns="http://www.w3.org/2000/svg" viewBox="0 0 1024 1024">
  <g style="fill:none;stroke:#000000;stroke-width:50;stroke-linecap:round;stroke-linejoin:round;" transform="scale(1, 1) translate(0, 0)">
    <path d="M 262.0,255.0 L 277.0,270.0 L 291.0,300.0 L 231.0,417.0 L 170.0,517.0 L 164.0,541.0 L 230.0,545.0 L 279.0,536.0 L 286.0,527.0"/>
    <path d="M 354.0,404.0 L 373.0,439.0 L 305.0,542.0 L 225.0,645.0 L 217.0,660.0 L 216.0,685.0 L 250.0,683.0 L 367.0,635.0"/>
    <path d="M 127.0,847.0 L 178.0,851.0 L 304.0,769.0 L 314.0,768.0 L 324.0,755.0 L 363.0,731.0"/>
    <path d="M 549.0,221.0 L 646.0,273.0 L 675.0,309.0"/>
    <path d="M 533.0,419.0 L 545.0,429.0 L 712.0,382.0 L 733.0,383.0 L 765.0,412.0 L 735.0,485.0 L 709.0,505.0"/>
    <path d="M 512.0,571.0 L 699.0,530.0 L 766.0,531.0"/>
    <path d="M 475.0,403.0 L 500.0,433.0 L 503.0,445.0 L 476.0,591.0 L 439.0,717.0 L 400.0,809.0 L 377.0,848.0 L 342.0,901.0 L 268.0,981.0"/>
    <path d="M 474.0,702.0 L 484.0,752.0 L 485.0,830.0 L 470.0,932.0 L 469.0,983.0"/>
    <path d="M 505.0,733.0 L 514.0,715.0 L 611.0,689.0 L 790.0,660.0 L 820.0,660.0 L 839.0,669.0 L 856.0,696.0 L 847.0,747.0 L 848.0,829.0 L 838.0,944.0 L 827.0,967.0 L 753.0,947.0"/>
    <path d="M 527.0,825.0 L 571.0,823.0 L 737.0,787.0 L 777.0,792.0"/>
    <path d="M 580.0,722.0 L 598.0,747.0 L 598.0,904.0"/>
    <path d="M 674.0,697.0 L 699.0,712.0 L 707.0,727.0 L 703.0,970.0"/>
  </g>
</svg>
