<svg xmlns="http://www.w3.org/2000/svg" viewBox="0 0 1024 1024">
  <g style="fill:none;stroke:#000000;stroke-width:50;stroke-linecap:round;stroke-linejoin:round;" transform="scale(1, 1) translate(0, 0)">
    <path d="M 247.0,253.0 L 262.0,264.0 L 278.0,304.0 L 235.0,400.0 L 165.0,532.0 L 160.0,556.0 L 205.0,558.0 L 278.0,541.0"/>
    <path d="M 340.0,409.0 L 362.0,445.0 L 305.0,547.0 L 216.0,671.0 L 202.0,699.0 L 198.0,723.0 L 228.0,722.0 L 350.0,683.0"/>
    <path d="M 84.0,904.0 L 110.0,911.0 L 142.0,909.0 L 348.0,791.0"/>
    <path d="M 669.0,263.0 L 701.0,290.0 L 633.0,428.0 L 621.0,431.0"/>
    <path d="M 576.0,430.0 L 606.0,463.0 L 611.0,512.0 L 613.0,643.0 L 597.0,806.0 L 600.0,842.0"/>
    <path d="M 635.0,463.0 L 646.0,453.0 L 751.0,423.0 L 781.0,425.0 L 803.0,449.0 L 782.0,511.0 L 757.0,523.0"/>
    <path d="M 636.0,583.0 L 653.0,573.0 L 747.0,555.0 L 810.0,559.0"/>
    <path d="M 631.0,684.0 L 643.0,675.0 L 727.0,661.0 L 753.0,650.0 L 792.0,653.0 L 811.0,675.0 L 794.0,736.0 L 770.0,753.0"/>
    <path d="M 627.0,806.0 L 650.0,795.0 L 768.0,779.0 L 805.0,779.0 L 826.0,787.0"/>
    <path d="M 424.0,362.0 L 470.0,408.0 L 484.0,432.0"/>
    <path d="M 342.0,611.0 L 382.0,607.0 L 431.0,584.0 L 460.0,587.0 L 474.0,599.0 L 467.0,646.0 L 441.0,703.0 L 447.0,737.0 L 478.0,799.0 L 479.0,824.0 L 469.0,836.0"/>
    <path d="M 360.0,846.0 L 386.0,856.0 L 453.0,857.0 L 488.0,866.0 L 689.0,961.0 L 766.0,988.0 L 802.0,989.0 L 957.0,969.0"/>
  </g>
</svg>
