<svg xmlns="http://www.w3.org/2000/svg" viewBox="0 0 1024 1024">
  <g style="fill:none;stroke:#000000;stroke-width:50;stroke-linecap:round;stroke-linejoin:round;" transform="scale(1, 1) translate(0, 0)">
    <path d="M 269.0,264.0 L 282.0,276.0 L 299.0,310.0 L 266.0,383.0 L 178.0,539.0 L 172.0,565.0 L 261.0,565.0 L 299.0,550.0"/>
    <path d="M 367.0,416.0 L 388.0,454.0 L 327.0,555.0 L 232.0,680.0 L 219.0,724.0 L 252.0,721.0 L 370.0,679.0"/>
    <path d="M 104.0,902.0 L 161.0,903.0 L 383.0,767.0"/>
    <path d="M 469.0,367.0 L 511.0,374.0 L 558.0,371.0 L 783.0,321.0 L 836.0,320.0"/>
    <path d="M 600.0,198.0 L 636.0,235.0 L 617.0,424.0 L 611.0,441.0 L 599.0,451.0"/>
    <path d="M 493.0,461.0 L 517.0,494.0 L 524.0,556.0 L 525.0,784.0 L 510.0,798.0"/>
    <path d="M 531.0,466.0 L 566.0,477.0 L 728.0,448.0 L 744.0,455.0 L 756.0,470.0 L 764.0,484.0 L 757.0,580.0 L 756.0,753.0 L 736.0,766.0"/>
    <path d="M 549.0,582.0 L 581.0,567.0 L 667.0,549.0 L 697.0,552.0"/>
    <path d="M 551.0,667.0 L 559.0,656.0 L 636.0,640.0 L 682.0,634.0 L 701.0,639.0"/>
    <path d="M 551.0,743.0 L 559.0,734.0 L 635.0,721.0 L 681.0,717.0 L 700.0,722.0"/>
    <path d="M 378.0,832.0 L 426.0,841.0 L 624.0,812.0 L 857.0,790.0 L 899.0,794.0 L 943.0,808.0"/>
    <path d="M 576.0,915.0 L 542.0,918.0 L 460.0,997.0 L 372.0,1044.0"/>
    <path d="M 702.0,873.0 L 785.0,946.0 L 825.0,990.0 L 838.0,1014.0 L 846.0,1049.0"/>
  </g>
</svg>
