<svg xmlns="http://www.w3.org/2000/svg" viewBox="0 0 1024 1024">
  <g style="fill:none;stroke:#000000;stroke-width:50;stroke-linecap:round;stroke-linejoin:round;" transform="scale(1, 1) translate(0, 0)">
    <path d="M 262.0,255.0 L 274.0,262.0 L 294.0,302.0 L 225.0,442.0 L 158.0,558.0 L 152.0,580.0 L 177.0,584.0 L 264.0,579.0 L 283.0,568.0"/>
    <path d="M 340.0,449.0 L 355.0,469.0 L 359.0,490.0 L 294.0,599.0 L 224.0,692.0 L 211.0,717.0 L 208.0,743.0 L 227.0,744.0 L 375.0,695.0"/>
    <path d="M 116.0,937.0 L 176.0,940.0 L 395.0,807.0"/>
    <path d="M 492.0,244.0 L 554.0,294.0 L 575.0,336.0"/>
    <path d="M 752.0,178.0 L 780.0,215.0 L 738.0,267.0 L 664.0,342.0"/>
    <path d="M 418.0,417.0 L 445.0,440.0 L 452.0,458.0 L 496.0,677.0"/>
    <path d="M 473.0,422.0 L 494.0,432.0 L 689.0,396.0 L 792.0,384.0 L 841.0,389.0 L 871.0,427.0 L 844.0,492.0 L 794.0,647.0"/>
    <path d="M 610.0,430.0 L 635.0,450.0 L 637.0,460.0 L 638.0,598.0 L 622.0,616.0"/>
    <path d="M 519.0,496.0 L 560.0,537.0 L 570.0,556.0"/>
    <path d="M 739.0,451.0 L 755.0,476.0 L 687.0,559.0"/>
    <path d="M 515.0,662.0 L 564.0,646.0 L 762.0,618.0 L 779.0,607.0"/>
    <path d="M 489.0,737.0 L 515.0,767.0 L 518.0,781.0 L 520.0,851.0 L 507.0,995.0 L 513.0,1043.0"/>
    <path d="M 550.0,774.0 L 575.0,760.0 L 724.0,727.0 L 747.0,729.0 L 773.0,752.0 L 782.0,979.0 L 769.0,1014.0 L 773.0,1070.0"/>
    <path d="M 544.0,883.0 L 577.0,869.0 L 657.0,854.0 L 685.0,851.0 L 707.0,858.0"/>
    <path d="M 537.0,1013.0 L 553.0,1000.0 L 575.0,995.0 L 672.0,981.0 L 715.0,981.0"/>
  </g>
</svg>
