<svg xmlns="http://www.w3.org/2000/svg" viewBox="0 0 1024 1024">
  <g style="fill:none;stroke:#000000;stroke-width:50;stroke-linecap:round;stroke-linejoin:round;" transform="scale(1, 1) translate(0, 0)">
    <path d="M 273.0,247.0 L 294.0,272.0 L 302.0,294.0 L 223.0,444.0 L 171.0,527.0 L 165.0,552.0 L 191.0,557.0 L 269.0,554.0 L 293.0,543.0"/>
    <path d="M 369.0,399.0 L 383.0,422.0 L 386.0,441.0 L 314.0,553.0 L 221.0,672.0 L 214.0,687.0 L 213.0,714.0 L 245.0,716.0 L 383.0,667.0"/>
    <path d="M 110.0,892.0 L 165.0,901.0 L 396.0,778.0"/>
    <path d="M 436.0,273.0 L 456.0,291.0 L 467.0,311.0 L 501.0,501.0"/>
    <path d="M 496.0,292.0 L 499.0,283.0 L 516.0,276.0 L 749.0,241.0 L 799.0,244.0 L 814.0,253.0 L 833.0,285.0 L 807.0,341.0 L 763.0,467.0"/>
    <path d="M 532.0,377.0 L 594.0,371.0 L 682.0,351.0 L 724.0,355.0"/>
    <path d="M 604.0,282.0 L 630.0,306.0 L 629.0,422.0 L 615.0,444.0"/>
    <path d="M 520.0,487.0 L 537.0,477.0 L 730.0,449.0 L 744.0,442.0"/>
    <path d="M 571.0,494.0 L 586.0,513.0 L 585.0,523.0 L 501.0,612.0 L 489.0,635.0 L 576.0,649.0 L 599.0,641.0"/>
    <path d="M 722.0,514.0 L 732.0,553.0 L 664.0,619.0 L 534.0,718.0 L 522.0,731.0 L 517.0,757.0 L 541.0,762.0 L 736.0,721.0 L 751.0,720.0 L 759.0,727.0"/>
    <path d="M 734.0,654.0 L 804.0,730.0 L 815.0,772.0"/>
    <path d="M 620.0,763.0 L 644.0,781.0 L 649.0,800.0 L 648.0,955.0 L 642.0,986.0 L 626.0,1011.0 L 582.0,998.0 L 531.0,973.0"/>
    <path d="M 479.0,841.0 L 450.0,911.0 L 407.0,978.0"/>
    <path d="M 752.0,821.0 L 860.0,922.0 L 883.0,959.0 L 892.0,993.0"/>
  </g>
</svg>
