<svg xmlns="http://www.w3.org/2000/svg" viewBox="0 0 1024 1024">
  <g style="fill:none;stroke:#000000;stroke-width:50;stroke-linecap:round;stroke-linejoin:round;" transform="scale(1, 1) translate(0, 0)">
    <path d="M 271.0,244.0 L 283.0,255.0 L 299.0,289.0 L 226.0,431.0 L 174.0,516.0 L 167.0,542.0 L 241.0,545.0 L 302.0,536.0"/>
    <path d="M 374.0,391.0 L 387.0,411.0 L 390.0,433.0 L 321.0,540.0 L 227.0,661.0 L 212.0,688.0 L 208.0,711.0 L 254.0,706.0 L 374.0,666.0"/>
    <path d="M 104.0,886.0 L 142.0,895.0 L 161.0,893.0 L 404.0,780.0"/>
    <path d="M 469.0,236.0 L 498.0,262.0 L 540.0,439.0"/>
    <path d="M 524.0,267.0 L 535.0,251.0 L 619.0,230.0 L 693.0,216.0 L 726.0,224.0 L 746.0,249.0 L 700.0,409.0 L 703.0,425.0"/>
    <path d="M 548.0,343.0 L 553.0,333.0 L 571.0,328.0 L 632.0,316.0 L 664.0,319.0"/>
    <path d="M 556.0,425.0 L 574.0,414.0 L 656.0,401.0 L 668.0,394.0"/>
    <path d="M 412.0,512.0 L 434.0,529.0 L 447.0,552.0 L 476.0,678.0"/>
    <path d="M 456.0,512.0 L 475.0,521.0 L 730.0,471.0 L 788.0,474.0 L 799.0,479.0 L 820.0,505.0 L 773.0,634.0 L 775.0,650.0"/>
    <path d="M 552.0,526.0 L 561.0,533.0 L 573.0,606.0 L 582.0,622.0"/>
    <path d="M 649.0,503.0 L 671.0,522.0 L 649.0,602.0 L 639.0,605.0"/>
    <path d="M 494.0,658.0 L 510.0,649.0 L 745.0,613.0"/>
    <path d="M 465.0,721.0 L 514.0,725.0 L 559.0,719.0 L 651.0,695.0 L 683.0,700.0 L 703.0,712.0 L 657.0,821.0 L 627.0,869.0 L 591.0,909.0 L 547.0,941.0 L 494.0,968.0 L 443.0,987.0 L 367.0,999.0"/>
    <path d="M 455.0,771.0 L 507.0,794.0 L 672.0,944.0 L 765.0,1004.0 L 783.0,1012.0 L 844.0,1018.0 L 964.0,1023.0"/>
  </g>
</svg>
