<svg xmlns="http://www.w3.org/2000/svg" viewBox="0 0 1024 1024">
  <g style="fill:none;stroke:#000000;stroke-width:50;stroke-linecap:round;stroke-linejoin:round;" transform="scale(1, 1) translate(0, 0)">
    <path d="M 271.0,224.0 L 285.0,238.0 L 299.0,269.0 L 264.0,343.0 L 174.0,499.0 L 168.0,525.0 L 274.0,525.0 L 294.0,516.0"/>
    <path d="M 354.0,397.0 L 373.0,431.0 L 301.0,544.0 L 219.0,651.0 L 215.0,685.0 L 250.0,683.0 L 285.0,664.0 L 375.0,631.0"/>
    <path d="M 124.0,858.0 L 175.0,865.0 L 292.0,801.0 L 302.0,790.0 L 314.0,789.0 L 322.0,778.0 L 364.0,755.0"/>
    <path d="M 463.0,208.0 L 483.0,222.0 L 492.0,243.0 L 444.0,342.0 L 458.0,360.0 L 508.0,396.0 L 518.0,423.0"/>
    <path d="M 588.0,186.0 L 606.0,200.0 L 614.0,221.0 L 556.0,323.0 L 570.0,340.0 L 627.0,374.0 L 638.0,398.0"/>
    <path d="M 729.0,167.0 L 745.0,190.0 L 748.0,209.0 L 685.0,299.0 L 700.0,320.0 L 785.0,373.0 L 801.0,401.0"/>
    <path d="M 431.0,467.0 L 453.0,486.0 L 465.0,512.0 L 496.0,679.0"/>
    <path d="M 482.0,465.0 L 494.0,478.0 L 707.0,437.0 L 745.0,438.0 L 763.0,446.0 L 781.0,469.0 L 749.0,591.0 L 734.0,628.0 L 710.0,620.0"/>
    <path d="M 540.0,561.0 L 644.0,541.0 L 670.0,538.0 L 689.0,543.0"/>
    <path d="M 513.0,658.0 L 530.0,650.0 L 672.0,628.0 L 686.0,628.0 L 696.0,636.0"/>
    <path d="M 392.0,756.0 L 443.0,763.0 L 644.0,733.0 L 834.0,713.0 L 905.0,730.0"/>
    <path d="M 583.0,478.0 L 608.0,493.0 L 612.0,516.0 L 601.0,988.0 L 614.0,1062.0"/>
    <path d="M 583.0,765.0 L 497.0,865.0 L 427.0,925.0 L 352.0,971.0 L 292.0,996.0"/>
    <path d="M 633.0,762.0 L 644.0,783.0 L 726.0,874.0 L 815.0,954.0 L 965.0,984.0"/>
  </g>
</svg>
