<svg xmlns="http://www.w3.org/2000/svg" viewBox="0 0 1024 1024">
  <g style="fill:none;stroke:#000000;stroke-width:50;stroke-linecap:round;stroke-linejoin:round;" transform="scale(1, 1) translate(0, 0)">
    <path d="M 244.0,264.0 L 265.0,290.0 L 271.0,307.0 L 268.0,316.0 L 173.0,504.0 L 138.0,558.0 L 133.0,580.0 L 234.0,579.0 L 253.0,568.0"/>
    <path d="M 308.0,461.0 L 326.0,493.0 L 291.0,555.0 L 185.0,699.0 L 178.0,726.0 L 199.0,729.0 L 327.0,690.0"/>
    <path d="M 97.0,894.0 L 149.0,900.0 L 344.0,787.0"/>
    <path d="M 392.0,275.0 L 418.0,311.0 L 418.0,428.0 L 405.0,505.0 L 409.0,543.0"/>
    <path d="M 440.0,286.0 L 449.0,293.0 L 459.0,285.0 L 538.0,268.0 L 551.0,272.0 L 569.0,294.0 L 569.0,455.0 L 562.0,513.0"/>
    <path d="M 465.0,366.0 L 493.0,390.0 L 489.0,489.0 L 475.0,555.0 L 465.0,580.0 L 438.0,617.0 L 395.0,644.0 L 372.0,649.0"/>
    <path d="M 534.0,544.0 L 567.0,571.0 L 580.0,593.0"/>
    <path d="M 632.0,252.0 L 655.0,275.0 L 661.0,302.0 L 664.0,389.0 L 653.0,468.0 L 656.0,518.0"/>
    <path d="M 673.0,260.0 L 688.0,264.0 L 723.0,259.0 L 790.0,236.0 L 805.0,240.0 L 825.0,264.0 L 822.0,345.0 L 828.0,436.0 L 822.0,496.0"/>
    <path d="M 706.0,333.0 L 729.0,345.0 L 742.0,361.0 L 739.0,448.0 L 730.0,508.0 L 713.0,553.0 L 691.0,584.0 L 646.0,619.0 L 619.0,627.0"/>
    <path d="M 771.0,537.0 L 823.0,573.0 L 852.0,615.0"/>
    <path d="M 547.0,637.0 L 563.0,651.0 L 575.0,674.0 L 521.0,819.0 L 698.0,923.0 L 758.0,972.0 L 793.0,1020.0"/>
    <path d="M 659.0,689.0 L 678.0,704.0 L 690.0,728.0 L 683.0,765.0 L 659.0,830.0 L 611.0,902.0 L 560.0,944.0 L 498.0,973.0 L 399.0,992.0"/>
    <path d="M 368.0,748.0 L 413.0,755.0 L 572.0,727.0 L 832.0,695.0 L 904.0,710.0"/>
  </g>
</svg>
