<svg xmlns="http://www.w3.org/2000/svg" viewBox="0 0 1024 1024">
  <g style="fill:none;stroke:#000000;stroke-width:50;stroke-linecap:round;stroke-linejoin:round;" transform="scale(1, 1) translate(0, 0)">
    <path d="M 249.0,252.0 L 263.0,263.0 L 279.0,297.0 L 224.0,414.0 L 149.0,546.0 L 144.0,570.0 L 231.0,571.0 L 269.0,559.0"/>
    <path d="M 336.0,413.0 L 358.0,449.0 L 291.0,567.0 L 214.0,673.0 L 199.0,702.0 L 196.0,726.0 L 225.0,724.0 L 359.0,675.0"/>
    <path d="M 100.0,913.0 L 153.0,919.0 L 367.0,791.0"/>
    <path d="M 482.0,278.0 L 545.0,285.0 L 724.0,252.0 L 763.0,252.0"/>
    <path d="M 436.0,394.0 L 471.0,435.0 L 512.0,597.0"/>
    <path d="M 458.0,387.0 L 463.0,393.0 L 495.0,399.0 L 731.0,355.0 L 773.0,364.0 L 794.0,388.0 L 752.0,543.0 L 755.0,567.0"/>
    <path d="M 545.0,476.0 L 589.0,474.0 L 668.0,454.0 L 708.0,458.0"/>
    <path d="M 597.0,399.0 L 617.0,412.0 L 622.0,430.0 L 620.0,520.0 L 607.0,534.0"/>
    <path d="M 531.0,573.0 L 535.0,566.0 L 651.0,545.0 L 708.0,541.0 L 717.0,535.0"/>
    <path d="M 400.0,664.0 L 445.0,673.0 L 593.0,650.0 L 833.0,626.0 L 879.0,630.0 L 911.0,641.0"/>
    <path d="M 423.0,741.0 L 451.0,764.0 L 459.0,782.0 L 496.0,945.0"/>
    <path d="M 487.0,760.0 L 493.0,751.0 L 515.0,745.0 L 687.0,720.0 L 732.0,716.0 L 771.0,725.0 L 791.0,751.0 L 752.0,894.0 L 755.0,916.0"/>
    <path d="M 537.0,828.0 L 579.0,825.0 L 648.0,808.0 L 696.0,810.0"/>
    <path d="M 590.0,750.0 L 614.0,775.0 L 613.0,862.0 L 599.0,883.0"/>
    <path d="M 514.0,922.0 L 530.0,914.0 L 699.0,893.0 L 718.0,886.0"/>
    <path d="M 350.0,1012.0 L 400.0,1022.0 L 603.0,996.0 L 836.0,980.0 L 870.0,983.0 L 923.0,1002.0"/>
  </g>
</svg>
