<svg xmlns="http://www.w3.org/2000/svg" viewBox="0 0 1024 1024">
  <g style="fill:none;stroke:#000000;stroke-width:50;stroke-linecap:round;stroke-linejoin:round;" transform="scale(1, 1) translate(0, 0)">
    <path d="M 226.0,270.0 L 243.0,285.0 L 257.0,312.0 L 206.0,433.0 L 152.0,537.0 L 147.0,561.0 L 239.0,558.0 L 255.0,548.0"/>
    <path d="M 315.0,423.0 L 335.0,455.0 L 281.0,550.0 L 194.0,672.0 L 178.0,719.0 L 209.0,716.0 L 316.0,679.0"/>
    <path d="M 101.0,878.0 L 152.0,887.0 L 328.0,791.0"/>
    <path d="M 495.0,328.0 L 524.0,356.0 L 552.0,471.0"/>
    <path d="M 543.0,332.0 L 564.0,339.0 L 743.0,306.0 L 762.0,307.0 L 790.0,331.0 L 776.0,367.0 L 756.0,377.0"/>
    <path d="M 566.0,430.0 L 575.0,437.0 L 747.0,407.0 L 780.0,407.0 L 799.0,414.0"/>
    <path d="M 621.0,210.0 L 658.0,240.0 L 655.0,457.0 L 653.0,480.0 L 641.0,493.0"/>
    <path d="M 490.0,533.0 L 520.0,536.0 L 616.0,516.0 L 824.0,489.0 L 860.0,491.0 L 891.0,502.0"/>
    <path d="M 542.0,590.0 L 571.0,625.0 L 575.0,777.0 L 565.0,887.0 L 571.0,919.0"/>
    <path d="M 583.0,593.0 L 609.0,604.0 L 725.0,575.0 L 751.0,599.0 L 737.0,638.0 L 719.0,646.0"/>
    <path d="M 601.0,708.0 L 616.0,696.0 L 702.0,678.0 L 742.0,676.0 L 763.0,682.0"/>
    <path d="M 595.0,790.0 L 618.0,778.0 L 682.0,767.0 L 730.0,751.0 L 750.0,752.0 L 777.0,776.0 L 762.0,820.0 L 743.0,831.0"/>
    <path d="M 592.0,890.0 L 606.0,880.0 L 728.0,859.0 L 790.0,865.0"/>
    <path d="M 387.0,411.0 L 436.0,466.0 L 443.0,496.0"/>
    <path d="M 310.0,631.0 L 341.0,631.0 L 404.0,609.0 L 429.0,616.0 L 438.0,626.0 L 429.0,677.0 L 411.0,705.0 L 402.0,738.0 L 411.0,780.0 L 437.0,831.0 L 435.0,859.0 L 423.0,877.0"/>
    <path d="M 304.0,882.0 L 320.0,891.0 L 393.0,890.0 L 461.0,905.0 L 660.0,981.0 L 768.0,1008.0 L 948.0,975.0"/>
  </g>
</svg>
