<svg xmlns="http://www.w3.org/2000/svg" viewBox="0 0 1024 1024">
  <g style="fill:none;stroke:#000000;stroke-width:50;stroke-linecap:round;stroke-linejoin:round;" transform="scale(1, 1) translate(0, 0)">
    <path d="M 247.0,244.0 L 259.0,255.0 L 275.0,289.0 L 202.0,431.0 L 158.0,501.0 L 144.0,541.0 L 169.0,546.0 L 224.0,543.0 L 262.0,531.0"/>
    <path d="M 326.0,398.0 L 347.0,431.0 L 301.0,515.0 L 191.0,675.0 L 187.0,704.0 L 221.0,700.0 L 342.0,659.0"/>
    <path d="M 105.0,883.0 L 161.0,886.0 L 350.0,776.0"/>
    <path d="M 464.0,233.0 L 499.0,268.0 L 536.0,391.0"/>
    <path d="M 511.0,230.0 L 519.0,238.0 L 532.0,239.0 L 678.0,209.0 L 704.0,211.0 L 732.0,238.0 L 709.0,295.0 L 687.0,307.0"/>
    <path d="M 551.0,367.0 L 565.0,358.0 L 672.0,338.0 L 715.0,336.0 L 739.0,344.0"/>
    <path d="M 391.0,459.0 L 417.0,486.0 L 441.0,606.0"/>
    <path d="M 438.0,479.0 L 462.0,465.0 L 532.0,449.0 L 544.0,453.0 L 564.0,471.0 L 552.0,515.0 L 533.0,532.0"/>
    <path d="M 458.0,578.0 L 474.0,566.0 L 534.0,554.0 L 562.0,551.0 L 584.0,556.0"/>
    <path d="M 617.0,419.0 L 647.0,450.0 L 672.0,571.0"/>
    <path d="M 664.0,423.0 L 676.0,430.0 L 765.0,410.0 L 800.0,414.0 L 813.0,436.0 L 799.0,478.0 L 778.0,490.0"/>
    <path d="M 688.0,544.0 L 704.0,533.0 L 765.0,521.0 L 807.0,519.0 L 831.0,528.0"/>
    <path d="M 357.0,716.0 L 410.0,722.0 L 636.0,682.0 L 797.0,661.0 L 858.0,665.0 L 893.0,676.0"/>
    <path d="M 584.0,609.0 L 608.0,635.0 L 614.0,655.0 L 612.0,824.0 L 602.0,989.0 L 614.0,1066.0"/>
    <path d="M 582.0,716.0 L 571.0,726.0 L 534.0,794.0 L 467.0,870.0 L 403.0,923.0 L 341.0,959.0"/>
    <path d="M 642.0,708.0 L 651.0,737.0 L 671.0,758.0 L 757.0,844.0 L 826.0,901.0 L 965.0,924.0"/>
  </g>
</svg>
