<svg xmlns="http://www.w3.org/2000/svg" viewBox="0 0 1024 1024">
  <g style="fill:none;stroke:#000000;stroke-width:50;stroke-linecap:round;stroke-linejoin:round;" transform="scale(1, 1) translate(0, 0)">
    <path d="M 247.0,280.0 L 270.0,296.0 L 283.0,316.0 L 281.0,324.0 L 235.0,441.0 L 186.0,531.0 L 145.0,583.0"/>
    <path d="M 238.0,488.0 L 328.0,474.0 L 400.0,451.0 L 453.0,449.0"/>
    <path d="M 76.0,671.0 L 116.0,679.0 L 143.0,677.0 L 422.0,613.0 L 480.0,616.0"/>
    <path d="M 289.0,505.0 L 317.0,527.0 L 322.0,538.0 L 318.0,807.0 L 313.0,823.0 L 302.0,833.0"/>
    <path d="M 161.0,738.0 L 187.0,776.0 L 180.0,887.0 L 218.0,887.0 L 293.0,859.0 L 387.0,837.0 L 405.0,820.0"/>
    <path d="M 422.0,734.0 L 442.0,764.0 L 426.0,885.0"/>
    <path d="M 511.0,514.0 L 566.0,514.0 L 742.0,471.0 L 763.0,477.0 L 787.0,502.0 L 785.0,515.0 L 751.0,639.0 L 727.0,662.0"/>
    <path d="M 456.0,720.0 L 508.0,725.0 L 670.0,692.0 L 852.0,669.0 L 930.0,682.0"/>
    <path d="M 591.0,239.0 L 616.0,257.0 L 638.0,284.0 L 619.0,640.0 L 599.0,795.0 L 572.0,866.0 L 524.0,930.0 L 470.0,970.0 L 384.0,1006.0"/>
    <path d="M 638.0,741.0 L 709.0,841.0 L 812.0,952.0 L 953.0,991.0"/>
  </g>
</svg>
