<svg xmlns="http://www.w3.org/2000/svg" viewBox="0 0 1024 1024">
  <g style="fill:none;stroke:#000000;stroke-width:50;stroke-linecap:round;stroke-linejoin:round;" transform="scale(1, 1) translate(0, 0)">
    <path d="M 228.0,226.0 L 252.0,244.0 L 265.0,266.0 L 248.0,310.0 L 181.0,443.0 L 120.0,533.0 L 97.0,555.0"/>
    <path d="M 193.0,469.0 L 284.0,449.0 L 350.0,427.0 L 413.0,421.0"/>
    <path d="M 52.0,636.0 L 105.0,643.0 L 359.0,578.0 L 432.0,575.0"/>
    <path d="M 251.0,482.0 L 282.0,509.0 L 278.0,752.0 L 261.0,781.0"/>
    <path d="M 122.0,708.0 L 143.0,743.0 L 141.0,783.0 L 128.0,828.0 L 129.0,846.0 L 135.0,848.0 L 166.0,844.0 L 336.0,780.0 L 351.0,777.0 L 365.0,788.0"/>
    <path d="M 380.0,655.0 L 407.0,690.0 L 387.0,824.0"/>
    <path d="M 451.0,497.0 L 510.0,502.0 L 797.0,443.0 L 850.0,448.0"/>
    <path d="M 589.0,184.0 L 635.0,227.0 L 644.0,263.0 L 638.0,799.0 L 625.0,993.0 L 627.0,1065.0"/>
    <path d="M 615.0,510.0 L 605.0,519.0 L 596.0,574.0 L 580.0,612.0 L 521.0,722.0 L 455.0,815.0 L 399.0,878.0 L 347.0,921.0"/>
    <path d="M 664.0,571.0 L 671.0,594.0 L 718.0,658.0 L 786.0,740.0 L 843.0,797.0 L 871.0,811.0 L 989.0,839.0"/>
    <path d="M 506.0,868.0 L 535.0,868.0 L 699.0,834.0 L 728.0,832.0 L 754.0,839.0"/>
  </g>
</svg>
