<svg xmlns="http://www.w3.org/2000/svg" viewBox="0 0 1024 1024">
  <g style="fill:none;stroke:#000000;stroke-width:50;stroke-linecap:round;stroke-linejoin:round;" transform="scale(1, 1) translate(0, 0)">
    <path d="M 243.0,250.0 L 259.0,266.0 L 272.0,296.0 L 273.0,419.0 L 261.0,489.0 L 264.0,544.0"/>
    <path d="M 281.0,257.0 L 301.0,262.0 L 413.0,235.0 L 429.0,237.0 L 453.0,263.0 L 447.0,333.0 L 453.0,479.0 L 446.0,540.0"/>
    <path d="M 328.0,330.0 L 353.0,342.0 L 366.0,357.0 L 364.0,450.0 L 348.0,534.0 L 325.0,581.0 L 292.0,616.0 L 247.0,641.0 L 211.0,651.0"/>
    <path d="M 392.0,562.0 L 436.0,593.0 L 451.0,621.0"/>
    <path d="M 536.0,230.0 L 559.0,253.0 L 567.0,287.0 L 569.0,399.0 L 560.0,464.0 L 564.0,514.0"/>
    <path d="M 584.0,242.0 L 606.0,248.0 L 717.0,214.0 L 749.0,240.0 L 754.0,448.0 L 746.0,514.0"/>
    <path d="M 614.0,316.0 L 641.0,327.0 L 655.0,341.0 L 658.0,420.0 L 647.0,511.0 L 633.0,549.0 L 598.0,594.0 L 557.0,622.0 L 532.0,630.0"/>
    <path d="M 692.0,562.0 L 769.0,615.0 L 795.0,656.0"/>
    <path d="M 371.0,626.0 L 385.0,659.0 L 355.0,710.0 L 310.0,759.0 L 259.0,793.0"/>
    <path d="M 385.0,713.0 L 527.0,698.0 L 655.0,670.0 L 687.0,672.0"/>
    <path d="M 124.0,855.0 L 176.0,864.0 L 415.0,827.0 L 816.0,787.0 L 899.0,808.0"/>
    <path d="M 486.0,732.0 L 511.0,748.0 L 519.0,776.0 L 516.0,962.0 L 501.0,976.0"/>
    <path d="M 303.0,887.0 L 326.0,927.0 L 310.0,1029.0 L 350.0,1033.0 L 459.0,1009.0 L 647.0,984.0 L 696.0,985.0 L 708.0,999.0"/>
    <path d="M 699.0,861.0 L 734.0,890.0 L 738.0,902.0 L 738.0,1007.0 L 745.0,1060.0"/>
  </g>
</svg>
