<svg xmlns="http://www.w3.org/2000/svg" viewBox="0 0 1024 1024">
  <g style="fill:none;stroke:#000000;stroke-width:50;stroke-linecap:round;stroke-linejoin:round;" transform="scale(1, 1) translate(0, 0)">
    <path d="M 200.0,253.0 L 220.0,271.0 L 230.0,294.0 L 177.0,405.0 L 126.0,482.0 L 93.0,516.0"/>
    <path d="M 178.0,447.0 L 256.0,433.0 L 343.0,408.0 L 380.0,407.0 L 393.0,413.0"/>
    <path d="M 48.0,612.0 L 79.0,619.0 L 112.0,617.0 L 364.0,554.0 L 419.0,555.0"/>
    <path d="M 247.0,458.0 L 274.0,479.0 L 276.0,506.0 L 274.0,735.0 L 269.0,754.0 L 257.0,764.0"/>
    <path d="M 123.0,676.0 L 147.0,711.0 L 149.0,725.0 L 137.0,827.0 L 168.0,827.0 L 326.0,769.0 L 351.0,748.0"/>
    <path d="M 368.0,634.0 L 393.0,670.0 L 368.0,824.0"/>
    <path d="M 483.0,225.0 L 523.0,234.0 L 564.0,232.0 L 785.0,195.0 L 816.0,198.0"/>
    <path d="M 442.0,337.0 L 467.0,357.0 L 476.0,378.0 L 508.0,500.0"/>
    <path d="M 493.0,340.0 L 506.0,349.0 L 753.0,306.0 L 843.0,305.0 L 865.0,325.0 L 871.0,340.0 L 826.0,448.0 L 827.0,464.0"/>
    <path d="M 551.0,253.0 L 583.0,280.0 L 597.0,422.0 L 585.0,441.0"/>
    <path d="M 684.0,243.0 L 716.0,262.0 L 702.0,400.0 L 696.0,417.0 L 685.0,425.0"/>
    <path d="M 524.0,480.0 L 549.0,467.0 L 762.0,437.0 L 796.0,427.0"/>
    <path d="M 501.0,539.0 L 524.0,560.0 L 531.0,575.0 L 560.0,719.0"/>
    <path d="M 550.0,543.0 L 563.0,552.0 L 724.0,518.0 L 769.0,520.0 L 793.0,549.0 L 748.0,688.0 L 751.0,706.0"/>
    <path d="M 571.0,629.0 L 577.0,619.0 L 652.0,606.0 L 695.0,602.0 L 716.0,607.0"/>
    <path d="M 577.0,700.0 L 585.0,692.0 L 722.0,669.0"/>
    <path d="M 425.0,824.0 L 479.0,830.0 L 573.0,811.0 L 857.0,773.0 L 887.0,772.0 L 947.0,787.0"/>
    <path d="M 623.0,705.0 L 652.0,724.0 L 662.0,738.0 L 659.0,1087.0"/>
  </g>
</svg>
