<svg xmlns="http://www.w3.org/2000/svg" viewBox="0 0 1024 1024">
  <g style="fill:none;stroke:#000000;stroke-width:50;stroke-linecap:round;stroke-linejoin:round;" transform="scale(1, 1) translate(0, 0)">
    <path d="M 245.0,246.0 L 271.0,278.0 L 277.0,330.0 L 269.0,511.0 L 277.0,556.0"/>
    <path d="M 284.0,249.0 L 298.0,258.0 L 316.0,257.0 L 408.0,229.0 L 425.0,233.0 L 450.0,258.0 L 442.0,355.0 L 446.0,473.0 L 438.0,552.0"/>
    <path d="M 294.0,360.0 L 326.0,341.0 L 382.0,340.0"/>
    <path d="M 294.0,449.0 L 306.0,440.0 L 335.0,433.0 L 389.0,435.0"/>
    <path d="M 296.0,535.0 L 307.0,524.0 L 400.0,507.0 L 412.0,500.0"/>
    <path d="M 315.0,602.0 L 291.0,608.0 L 238.0,665.0 L 164.0,713.0"/>
    <path d="M 384.0,570.0 L 428.0,601.0 L 443.0,629.0"/>
    <path d="M 544.0,213.0 L 562.0,234.0 L 566.0,249.0 L 569.0,312.0 L 561.0,469.0 L 565.0,520.0"/>
    <path d="M 590.0,242.0 L 604.0,229.0 L 706.0,199.0 L 727.0,206.0 L 751.0,230.0 L 744.0,300.0 L 746.0,432.0 L 739.0,518.0"/>
    <path d="M 584.0,341.0 L 596.0,331.0 L 625.0,323.0 L 678.0,323.0"/>
    <path d="M 589.0,414.0 L 595.0,405.0 L 640.0,393.0 L 678.0,396.0"/>
    <path d="M 584.0,500.0 L 595.0,490.0 L 673.0,474.0 L 690.0,473.0 L 700.0,483.0"/>
    <path d="M 619.0,570.0 L 597.0,573.0 L 549.0,625.0 L 497.0,657.0"/>
    <path d="M 699.0,554.0 L 775.0,614.0 L 795.0,654.0"/>
    <path d="M 359.0,649.0 L 374.0,677.0 L 352.0,719.0 L 320.0,761.0 L 264.0,808.0"/>
    <path d="M 373.0,736.0 L 444.0,733.0 L 575.0,706.0 L 679.0,694.0"/>
    <path d="M 114.0,887.0 L 172.0,895.0 L 289.0,872.0 L 484.0,845.0 L 801.0,810.0 L 861.0,815.0 L 899.0,827.0"/>
    <path d="M 468.0,751.0 L 494.0,771.0 L 501.0,785.0 L 498.0,950.0 L 481.0,975.0"/>
    <path d="M 286.0,909.0 L 310.0,950.0 L 299.0,1039.0 L 348.0,1038.0 L 438.0,1010.0 L 601.0,975.0 L 655.0,970.0 L 674.0,982.0"/>
    <path d="M 656.0,885.0 L 733.0,1024.0 L 739.0,1077.0 L 732.0,1096.0"/>
  </g>
</svg>
