<svg xmlns="http://www.w3.org/2000/svg" viewBox="0 0 1024 1024">
  <g style="fill:none;stroke:#000000;stroke-width:50;stroke-linecap:round;stroke-linejoin:round;" transform="scale(1, 1) translate(0, 0)">
    <path d="M 187.0,321.0 L 220.0,355.0 L 230.0,390.0 L 234.0,450.0 L 232.0,581.0 L 210.0,730.0 L 212.0,792.0"/>
    <path d="M 256.0,343.0 L 270.0,355.0 L 285.0,357.0 L 713.0,281.0 L 740.0,282.0 L 769.0,297.0 L 792.0,322.0 L 787.0,444.0 L 796.0,646.0 L 790.0,678.0 L 768.0,721.0 L 719.0,702.0 L 654.0,664.0"/>
    <path d="M 559.0,361.0 L 579.0,399.0 L 545.0,484.0 L 520.0,529.0 L 481.0,581.0 L 427.0,632.0 L 379.0,668.0 L 331.0,692.0"/>
    <path d="M 366.0,477.0 L 541.0,566.0 L 587.0,598.0 L 612.0,636.0"/>
  </g>
</svg>
