<svg xmlns="http://www.w3.org/2000/svg" viewBox="0 0 1024 1024">
  <g style="fill:none;stroke:#000000;stroke-width:50;stroke-linecap:round;stroke-linejoin:round;" transform="scale(1, 1) translate(0, 0)">
    <path d="M 232.0,295.0 L 267.0,323.0 L 319.0,497.0"/>
    <path d="M 291.0,297.0 L 312.0,308.0 L 573.0,267.0 L 694.0,253.0 L 746.0,256.0 L 764.0,266.0 L 784.0,296.0 L 716.0,455.0"/>
    <path d="M 430.0,311.0 L 426.0,320.0 L 445.0,402.0 L 461.0,436.0"/>
    <path d="M 582.0,285.0 L 598.0,299.0 L 607.0,318.0 L 571.0,415.0 L 563.0,419.0"/>
    <path d="M 337.0,462.0 L 348.0,470.0 L 694.0,424.0"/>
    <path d="M 428.0,485.0 L 449.0,500.0 L 452.0,524.0 L 328.0,665.0 L 263.0,721.0 L 237.0,736.0"/>
    <path d="M 429.0,601.0 L 547.0,582.0 L 624.0,561.0 L 672.0,567.0 L 687.0,585.0 L 603.0,751.0 L 544.0,830.0 L 492.0,886.0 L 440.0,932.0 L 366.0,981.0 L 300.0,1014.0 L 221.0,1037.0"/>
    <path d="M 357.0,673.0 L 380.0,681.0 L 452.0,739.0 L 479.0,790.0"/>
  </g>
</svg>
