<svg xmlns="http://www.w3.org/2000/svg" viewBox="0 0 1024 1024">
  <g style="fill:none;stroke:#000000;stroke-width:50;stroke-linecap:round;stroke-linejoin:round;" transform="scale(1, 1) translate(0, 0)">
    <path d="M 244.0,283.0 L 272.0,303.0 L 284.0,321.0 L 327.0,481.0"/>
    <path d="M 308.0,287.0 L 330.0,297.0 L 499.0,267.0 L 678.0,246.0 L 737.0,255.0 L 761.0,284.0 L 709.0,438.0 L 712.0,453.0"/>
    <path d="M 427.0,303.0 L 437.0,310.0 L 454.0,397.0 L 467.0,424.0"/>
    <path d="M 570.0,275.0 L 597.0,302.0 L 573.0,388.0 L 568.0,399.0 L 556.0,404.0"/>
    <path d="M 346.0,449.0 L 358.0,458.0 L 369.0,457.0 L 647.0,423.0 L 680.0,413.0"/>
    <path d="M 303.0,611.0 L 326.0,618.0 L 382.0,619.0 L 546.0,596.0 L 623.0,577.0 L 689.0,576.0"/>
    <path d="M 476.0,479.0 L 513.0,517.0 L 507.0,704.0 L 491.0,727.0"/>
    <path d="M 128.0,787.0 L 180.0,796.0 L 554.0,742.0 L 807.0,718.0 L 849.0,720.0 L 907.0,736.0"/>
    <path d="M 517.0,793.0 L 495.0,793.0 L 480.0,801.0 L 442.0,863.0 L 374.0,934.0 L 361.0,953.0 L 353.0,984.0 L 407.0,984.0 L 680.0,935.0 L 689.0,945.0"/>
    <path d="M 635.0,825.0 L 753.0,964.0 L 773.0,1010.0 L 772.0,1035.0"/>
  </g>
</svg>
