<svg xmlns="http://www.w3.org/2000/svg" viewBox="0 0 1024 1024">
  <g style="fill:none;stroke:#000000;stroke-width:50;stroke-linecap:round;stroke-linejoin:round;" transform="scale(1, 1) translate(0, 0)">
    <path d="M 243.0,254.0 L 265.0,270.0 L 283.0,304.0 L 320.0,453.0"/>
    <path d="M 288.0,255.0 L 314.0,268.0 L 610.0,235.0 L 680.0,232.0 L 713.0,239.0 L 736.0,259.0 L 743.0,273.0 L 740.0,283.0 L 690.0,397.0 L 686.0,401.0 L 664.0,388.0"/>
    <path d="M 415.0,276.0 L 427.0,290.0 L 437.0,378.0 L 449.0,391.0"/>
    <path d="M 535.0,264.0 L 559.0,287.0 L 547.0,341.0 L 530.0,378.0"/>
    <path d="M 333.0,414.0 L 378.0,421.0 L 601.0,394.0 L 633.0,394.0 L 648.0,407.0"/>
    <path d="M 194.0,553.0 L 246.0,561.0 L 480.0,529.0 L 721.0,512.0 L 803.0,532.0"/>
    <path d="M 407.0,439.0 L 430.0,461.0 L 430.0,475.0 L 385.0,564.0 L 327.0,644.0 L 281.0,691.0 L 235.0,727.0 L 148.0,781.0 L 93.0,805.0"/>
    <path d="M 581.0,550.0 L 605.0,560.0 L 718.0,666.0 L 796.0,723.0 L 945.0,740.0"/>
    <path d="M 335.0,700.0 L 324.0,720.0 L 361.0,913.0"/>
    <path d="M 350.0,696.0 L 367.0,706.0 L 566.0,675.0 L 625.0,679.0 L 650.0,711.0 L 601.0,873.0"/>
    <path d="M 396.0,789.0 L 498.0,770.0 L 538.0,767.0 L 559.0,773.0"/>
    <path d="M 379.0,889.0 L 395.0,880.0 L 543.0,857.0 L 569.0,859.0 L 578.0,869.0"/>
    <path d="M 458.0,591.0 L 493.0,636.0 L 475.0,805.0 L 474.0,898.0 L 486.0,976.0 L 492.0,997.0 L 507.0,1018.0 L 544.0,1037.0 L 615.0,1046.0 L 696.0,1044.0 L 787.0,1027.0 L 797.0,1021.0 L 799.0,1012.0 L 792.0,975.0 L 796.0,866.0"/>
  </g>
</svg>
