<svg xmlns="http://www.w3.org/2000/svg" viewBox="0 0 1024 1024">
  <g style="fill:none;stroke:#000000;stroke-width:50;stroke-linecap:round;stroke-linejoin:round;" transform="scale(1, 1) translate(0, 0)">
    <path d="M 262.0,233.0 L 297.0,254.0 L 355.0,371.0"/>
    <path d="M 315.0,228.0 L 335.0,238.0 L 648.0,190.0 L 696.0,199.0 L 717.0,228.0 L 713.0,238.0 L 668.0,330.0 L 662.0,335.0 L 643.0,322.0"/>
    <path d="M 403.0,244.0 L 419.0,263.0 L 434.0,309.0 L 451.0,320.0"/>
    <path d="M 539.0,222.0 L 561.0,240.0 L 542.0,294.0 L 527.0,301.0"/>
    <path d="M 366.0,346.0 L 390.0,351.0 L 592.0,313.0 L 628.0,315.0"/>
    <path d="M 282.0,383.0 L 301.0,412.0 L 299.0,421.0 L 272.0,466.0 L 241.0,498.0 L 229.0,525.0 L 266.0,527.0 L 366.0,497.0 L 405.0,494.0"/>
    <path d="M 393.0,443.0 L 438.0,500.0 L 443.0,523.0"/>
    <path d="M 234.0,603.0 L 256.0,632.0 L 258.0,667.0 L 234.0,869.0"/>
    <path d="M 269.0,608.0 L 300.0,609.0 L 342.0,594.0 L 355.0,595.0 L 378.0,583.0 L 399.0,586.0 L 418.0,605.0 L 414.0,683.0 L 420.0,811.0 L 415.0,842.0 L 401.0,865.0 L 333.0,835.0"/>
    <path d="M 280.0,697.0 L 288.0,686.0 L 301.0,682.0 L 341.0,678.0 L 357.0,683.0"/>
    <path d="M 274.0,774.0 L 283.0,764.0 L 296.0,761.0 L 352.0,766.0"/>
    <path d="M 741.0,411.0 L 699.0,410.0 L 659.0,440.0 L 607.0,461.0 L 597.0,473.0"/>
    <path d="M 549.0,387.0 L 573.0,416.0 L 571.0,472.0 L 578.0,524.0 L 593.0,549.0 L 624.0,564.0 L 677.0,569.0 L 747.0,553.0 L 772.0,529.0 L 784.0,459.0"/>
    <path d="M 761.0,666.0 L 723.0,660.0 L 680.0,685.0 L 638.0,702.0 L 604.0,708.0 L 597.0,715.0"/>
    <path d="M 550.0,612.0 L 572.0,638.0 L 574.0,773.0 L 585.0,804.0 L 613.0,827.0 L 693.0,841.0 L 752.0,834.0 L 790.0,820.0 L 820.0,796.0 L 830.0,726.0 L 826.0,720.0 L 832.0,707.0"/>
    <path d="M 173.0,907.0 L 164.0,978.0 L 135.0,1063.0"/>
    <path d="M 334.0,938.0 L 384.0,996.0 L 394.0,1021.0"/>
    <path d="M 530.0,922.0 L 580.0,980.0 L 590.0,1005.0"/>
    <path d="M 741.0,924.0 L 841.0,1004.0 L 858.0,1029.0 L 867.0,1057.0"/>
  </g>
</svg>
