<svg xmlns="http://www.w3.org/2000/svg" viewBox="0 0 1024 1024">
  <g style="fill:none;stroke:#000000;stroke-width:50;stroke-linecap:round;stroke-linejoin:round;" transform="scale(1, 1) translate(0, 0)">
    <path d="M 320.0,250.0 L 387.0,301.0 L 409.0,333.0"/>
    <path d="M 620.0,176.0 L 640.0,198.0 L 648.0,219.0 L 589.0,280.0 L 499.0,356.0"/>
    <path d="M 299.0,427.0 L 374.0,434.0 L 498.0,416.0 L 640.0,386.0 L 705.0,384.0"/>
    <path d="M 318.0,561.0 L 357.0,568.0 L 402.0,566.0 L 496.0,553.0 L 607.0,525.0 L 656.0,527.0"/>
    <path d="M 166.0,712.0 L 219.0,720.0 L 496.0,679.0 L 741.0,656.0 L 797.0,662.0 L 828.0,673.0"/>
    <path d="M 444.0,451.0 L 476.0,482.0 L 462.0,559.0 L 412.0,736.0 L 379.0,808.0 L 322.0,890.0 L 262.0,949.0 L 213.0,982.0 L 154.0,1006.0"/>
    <path d="M 516.0,702.0 L 547.0,733.0 L 533.0,859.0 L 534.0,912.0 L 542.0,950.0 L 557.0,977.0 L 612.0,1006.0 L 703.0,1021.0 L 760.0,1019.0 L 815.0,1008.0 L 866.0,983.0 L 886.0,964.0 L 881.0,825.0"/>
  </g>
</svg>
