<svg xmlns="http://www.w3.org/2000/svg" viewBox="0 0 1024 1024">
  <g style="fill:none;stroke:#000000;stroke-width:50;stroke-linecap:round;stroke-linejoin:round;" transform="scale(1, 1) translate(0, 0)">
    <path d="M 345.0,211.0 L 421.0,264.0 L 446.0,301.0"/>
    <path d="M 659.0,161.0 L 685.0,202.0 L 633.0,255.0 L 577.0,304.0 L 564.0,309.0 L 563.0,316.0"/>
    <path d="M 307.0,411.0 L 330.0,419.0 L 383.0,420.0 L 576.0,389.0 L 668.0,366.0 L 730.0,367.0"/>
    <path d="M 331.0,573.0 L 371.0,580.0 L 414.0,577.0 L 482.0,567.0 L 608.0,536.0 L 680.0,534.0"/>
    <path d="M 107.0,739.0 L 171.0,758.0 L 413.0,723.0 L 824.0,685.0 L 885.0,695.0 L 935.0,717.0"/>
    <path d="M 533.0,428.0 L 510.0,453.0 L 507.0,1078.0"/>
  </g>
</svg>
