<svg xmlns="http://www.w3.org/2000/svg" viewBox="0 0 1024 1024">
  <g style="fill:none;stroke:#000000;stroke-width:50;stroke-linecap:round;stroke-linejoin:round;" transform="scale(1, 1) translate(0, 0)">
    <path d="M 348.0,242.0 L 411.0,305.0 L 423.0,331.0"/>
    <path d="M 630.0,181.0 L 653.0,203.0 L 663.0,225.0 L 634.0,263.0 L 542.0,355.0"/>
    <path d="M 311.0,449.0 L 354.0,456.0 L 418.0,451.0 L 644.0,401.0 L 687.0,395.0 L 712.0,398.0"/>
    <path d="M 318.0,596.0 L 379.0,604.0 L 537.0,579.0 L 627.0,554.0 L 681.0,557.0"/>
    <path d="M 467.0,464.0 L 500.0,493.0 L 501.0,504.0 L 498.0,680.0 L 477.0,702.0"/>
    <path d="M 254.0,744.0 L 308.0,752.0 L 408.0,736.0 L 664.0,711.0 L 699.0,712.0 L 755.0,728.0"/>
    <path d="M 177.0,833.0 L 163.0,916.0 L 118.0,1033.0"/>
    <path d="M 343.0,844.0 L 398.0,916.0 L 409.0,951.0"/>
    <path d="M 524.0,831.0 L 535.0,846.0 L 598.0,896.0 L 621.0,940.0"/>
    <path d="M 749.0,838.0 L 849.0,917.0 L 881.0,950.0 L 898.0,977.0 L 911.0,1024.0"/>
  </g>
</svg>
