<svg xmlns="http://www.w3.org/2000/svg" viewBox="0 0 1024 1024">
  <g style="fill:none;stroke:#000000;stroke-width:50;stroke-linecap:round;stroke-linejoin:round;" transform="scale(1, 1) translate(0, 0)">
    <path d="M 195.0,311.0 L 236.0,313.0 L 309.0,300.0 L 414.0,270.0 L 437.0,277.0 L 461.0,301.0 L 421.0,468.0 L 400.0,489.0"/>
    <path d="M 52.0,457.0 L 109.0,464.0 L 477.0,389.0 L 514.0,394.0"/>
    <path d="M 144.0,567.0 L 159.0,570.0 L 225.0,558.0 L 400.0,516.0 L 438.0,514.0 L 459.0,522.0"/>
    <path d="M 268.0,328.0 L 294.0,346.0 L 297.0,361.0 L 265.0,513.0 L 236.0,602.0 L 189.0,702.0 L 149.0,766.0 L 80.0,846.0 L 61.0,860.0"/>
    <path d="M 236.0,673.0 L 269.0,893.0"/>
    <path d="M 262.0,673.0 L 272.0,680.0 L 393.0,648.0 L 425.0,651.0 L 444.0,672.0 L 442.0,682.0 L 422.0,759.0 L 397.0,773.0"/>
    <path d="M 288.0,838.0 L 301.0,827.0 L 400.0,805.0 L 443.0,801.0 L 464.0,808.0"/>
    <path d="M 560.0,230.0 L 615.0,278.0 L 629.0,302.0"/>
    <path d="M 760.0,174.0 L 777.0,189.0 L 785.0,206.0 L 712.0,314.0 L 690.0,335.0 L 689.0,344.0"/>
    <path d="M 544.0,427.0 L 605.0,430.0 L 690.0,411.0 L 785.0,380.0 L 838.0,377.0"/>
    <path d="M 535.0,575.0 L 592.0,578.0 L 777.0,535.0 L 828.0,539.0"/>
    <path d="M 497.0,724.0 L 542.0,730.0 L 865.0,674.0 L 920.0,677.0 L 953.0,688.0"/>
    <path d="M 640.0,451.0 L 678.0,468.0 L 684.0,485.0 L 679.0,1072.0"/>
  </g>
</svg>
