<svg xmlns="http://www.w3.org/2000/svg" viewBox="0 0 1024 1024">
  <g style="fill:none;stroke:#000000;stroke-width:50;stroke-linecap:round;stroke-linejoin:round;" transform="scale(1, 1) translate(0, 0)">
    <path d="M 188.0,271.0 L 241.0,319.0 L 258.0,358.0"/>
    <path d="M 389.0,197.0 L 412.0,214.0 L 421.0,229.0 L 348.0,338.0 L 334.0,348.0 L 331.0,362.0"/>
    <path d="M 164.0,467.0 L 174.0,472.0 L 226.0,471.0 L 380.0,430.0 L 434.0,429.0"/>
    <path d="M 180.0,595.0 L 203.0,601.0 L 241.0,598.0 L 370.0,564.0 L 416.0,565.0"/>
    <path d="M 79.0,743.0 L 132.0,749.0 L 355.0,688.0 L 407.0,687.0"/>
    <path d="M 259.0,491.0 L 286.0,502.0 L 305.0,525.0 L 300.0,651.0 L 281.0,786.0 L 254.0,856.0 L 216.0,919.0 L 155.0,984.0 L 110.0,1012.0"/>
    <path d="M 493.0,280.0 L 513.0,298.0 L 521.0,315.0 L 547.0,477.0 L 558.0,494.0"/>
    <path d="M 536.0,281.0 L 552.0,289.0 L 740.0,253.0 L 774.0,259.0 L 799.0,290.0 L 745.0,465.0 L 747.0,490.0"/>
    <path d="M 564.0,389.0 L 570.0,381.0 L 673.0,360.0 L 707.0,365.0"/>
    <path d="M 571.0,483.0 L 604.0,468.0 L 714.0,449.0"/>
    <path d="M 546.0,506.0 L 565.0,540.0 L 555.0,557.0 L 514.0,608.0 L 450.0,653.0"/>
    <path d="M 539.0,612.0 L 813.0,567.0 L 833.0,573.0 L 861.0,600.0 L 844.0,850.0 L 832.0,912.0 L 805.0,978.0 L 769.0,1011.0 L 691.0,956.0 L 689.0,946.0 L 676.0,942.0"/>
    <path d="M 606.0,629.0 L 626.0,651.0 L 611.0,685.0 L 583.0,730.0 L 530.0,779.0"/>
    <path d="M 633.0,698.0 L 649.0,696.0 L 711.0,724.0 L 737.0,744.0 L 748.0,761.0"/>
    <path d="M 440.0,694.0 L 458.0,712.0 L 472.0,744.0 L 453.0,846.0 L 456.0,872.0 L 492.0,873.0 L 625.0,844.0 L 720.0,833.0 L 774.0,846.0"/>
  </g>
</svg>
