<svg xmlns="http://www.w3.org/2000/svg" viewBox="0 0 1024 1024">
  <g style="fill:none;stroke:#000000;stroke-width:50;stroke-linecap:round;stroke-linejoin:round;" transform="scale(1, 1) translate(0, 0)">
    <path d="M 397.0,217.0 L 445.0,247.0 L 463.0,275.0"/>
    <path d="M 597.0,168.0 L 613.0,195.0 L 549.0,262.0 L 537.0,267.0 L 537.0,273.0"/>
    <path d="M 334.0,327.0 L 374.0,334.0 L 420.0,333.0 L 636.0,300.0 L 672.0,301.0"/>
    <path d="M 360.0,414.0 L 393.0,416.0 L 590.0,388.0 L 639.0,394.0"/>
    <path d="M 481.0,347.0 L 503.0,368.0 L 497.0,445.0 L 483.0,458.0"/>
    <path d="M 268.0,501.0 L 312.0,504.0 L 442.0,483.0 L 677.0,461.0 L 726.0,463.0 L 765.0,474.0"/>
    <path d="M 283.0,549.0 L 274.0,577.0 L 224.0,663.0"/>
    <path d="M 398.0,540.0 L 426.0,563.0 L 439.0,583.0"/>
    <path d="M 495.0,525.0 L 526.0,555.0 L 537.0,575.0"/>
    <path d="M 645.0,521.0 L 754.0,586.0 L 774.0,609.0 L 787.0,638.0"/>
    <path d="M 397.0,624.0 L 439.0,661.0"/>
    <path d="M 585.0,575.0 L 595.0,599.0 L 541.0,649.0"/>
    <path d="M 345.0,704.0 L 374.0,711.0 L 418.0,709.0 L 577.0,686.0 L 637.0,684.0"/>
    <path d="M 356.0,786.0 L 389.0,789.0 L 596.0,763.0 L 631.0,770.0"/>
    <path d="M 474.0,725.0 L 496.0,744.0 L 494.0,809.0 L 480.0,830.0"/>
    <path d="M 233.0,870.0 L 282.0,877.0 L 426.0,856.0 L 713.0,832.0 L 781.0,849.0"/>
    <path d="M 321.0,943.0 L 352.0,946.0 L 638.0,921.0 L 707.0,937.0"/>
    <path d="M 464.0,874.0 L 487.0,898.0 L 485.0,920.0 L 461.0,985.0 L 421.0,1036.0 L 380.0,1064.0 L 334.0,1081.0 L 282.0,1090.0 L 251.0,1087.0"/>
    <path d="M 511.0,950.0 L 535.0,959.0 L 604.0,1016.0 L 676.0,1061.0 L 760.0,1074.0 L 829.0,1074.0"/>
  </g>
</svg>
