<svg xmlns="http://www.w3.org/2000/svg" viewBox="0 0 1024 1024">
  <g style="fill:none;stroke:#000000;stroke-width:50;stroke-linecap:round;stroke-linejoin:round;" transform="scale(1, 1) translate(0, 0)">
    <path d="M 365.0,204.0 L 374.0,216.0 L 429.0,251.0 L 443.0,277.0"/>
    <path d="M 603.0,163.0 L 621.0,195.0 L 560.0,258.0 L 514.0,295.0"/>
    <path d="M 300.0,365.0 L 333.0,370.0 L 397.0,365.0 L 650.0,311.0 L 695.0,309.0"/>
    <path d="M 351.0,470.0 L 388.0,473.0 L 580.0,431.0 L 636.0,431.0"/>
    <path d="M 239.0,571.0 L 292.0,576.0 L 448.0,544.0 L 675.0,513.0 L 729.0,513.0 L 771.0,525.0"/>
    <path d="M 472.0,381.0 L 493.0,397.0 L 494.0,407.0 L 490.0,659.0"/>
    <path d="M 183.0,637.0 L 240.0,674.0 L 260.0,708.0"/>
    <path d="M 439.0,638.0 L 410.0,636.0 L 330.0,721.0"/>
    <path d="M 200.0,775.0 L 228.0,781.0 L 283.0,774.0 L 338.0,763.0 L 438.0,730.0 L 461.0,733.0"/>
    <path d="M 202.0,879.0 L 246.0,883.0 L 411.0,842.0 L 449.0,844.0"/>
    <path d="M 152.0,956.0 L 205.0,960.0 L 298.0,934.0 L 422.0,914.0 L 475.0,926.0"/>
    <path d="M 287.0,794.0 L 326.0,815.0 L 329.0,822.0 L 327.0,1088.0"/>
    <path d="M 542.0,621.0 L 599.0,659.0 L 619.0,693.0"/>
    <path d="M 797.0,608.0 L 767.0,606.0 L 725.0,658.0 L 689.0,691.0"/>
    <path d="M 559.0,760.0 L 586.0,766.0 L 655.0,757.0 L 795.0,716.0 L 820.0,719.0"/>
    <path d="M 561.0,863.0 L 604.0,869.0 L 769.0,828.0 L 807.0,829.0"/>
    <path d="M 521.0,946.0 L 575.0,949.0 L 656.0,925.0 L 800.0,903.0 L 827.0,903.0 L 867.0,916.0"/>
    <path d="M 646.0,779.0 L 684.0,800.0 L 687.0,808.0 L 685.0,1079.0"/>
  </g>
</svg>
