<svg xmlns="http://www.w3.org/2000/svg" viewBox="0 0 1024 1024">
  <g style="fill:none;stroke:#000000;stroke-width:50;stroke-linecap:round;stroke-linejoin:round;" transform="scale(1, 1) translate(0, 0)">
    <path d="M 225.0,283.0 L 260.0,285.0 L 391.0,253.0 L 408.0,257.0 L 427.0,273.0 L 435.0,288.0 L 420.0,329.0 L 387.0,491.0"/>
    <path d="M 236.0,336.0 L 297.0,361.0 L 323.0,388.0"/>
    <path d="M 193.0,505.0 L 233.0,507.0 L 348.0,432.0"/>
    <path d="M 532.0,252.0 L 580.0,256.0 L 697.0,236.0 L 722.0,246.0 L 744.0,273.0 L 723.0,341.0 L 698.0,503.0"/>
    <path d="M 546.0,321.0 L 607.0,354.0 L 623.0,379.0"/>
    <path d="M 523.0,472.0 L 560.0,477.0 L 665.0,420.0"/>
    <path d="M 492.0,525.0 L 463.0,528.0 L 378.0,614.0 L 279.0,684.0 L 176.0,741.0 L 118.0,761.0"/>
    <path d="M 492.0,553.0 L 517.0,565.0 L 624.0,649.0 L 778.0,744.0 L 838.0,755.0 L 963.0,757.0"/>
    <path d="M 473.0,631.0 L 484.0,654.0 L 483.0,675.0 L 399.0,757.0 L 339.0,792.0"/>
    <path d="M 532.0,719.0 L 542.0,741.0 L 542.0,758.0 L 500.0,805.0 L 403.0,881.0 L 340.0,913.0"/>
    <path d="M 605.0,816.0 L 619.0,864.0 L 526.0,946.0 L 408.0,1018.0 L 314.0,1054.0 L 254.0,1071.0 L 239.0,1069.0 L 233.0,1075.0"/>
  </g>
</svg>
