<svg xmlns="http://www.w3.org/2000/svg" viewBox="0 0 1024 1024">
  <g style="fill:none;stroke:#000000;stroke-width:50;stroke-linecap:round;stroke-linejoin:round;" transform="scale(1, 1) translate(0, 0)">
    <path d="M 298.0,234.0 L 331.0,267.0 L 306.0,351.0 L 266.0,436.0 L 211.0,531.0 L 176.0,578.0 L 90.0,669.0 L 58.0,694.0"/>
    <path d="M 341.0,356.0 L 420.0,406.0 L 434.0,428.0"/>
    <path d="M 273.0,526.0 L 331.0,559.0 L 345.0,584.0"/>
    <path d="M 156.0,706.0 L 185.0,715.0 L 224.0,709.0 L 282.0,679.0 L 335.0,661.0 L 358.0,662.0 L 387.0,684.0 L 375.0,718.0 L 311.0,829.0 L 310.0,841.0 L 301.0,842.0"/>
    <path d="M 231.0,828.0 L 316.0,900.0 L 329.0,924.0 L 336.0,955.0"/>
    <path d="M 477.0,370.0 L 545.0,357.0 L 572.0,342.0 L 595.0,346.0 L 616.0,368.0 L 616.0,792.0 L 610.0,902.0 L 591.0,932.0 L 504.0,889.0"/>
    <path d="M 445.0,518.0 L 507.0,554.0 L 523.0,584.0"/>
    <path d="M 400.0,791.0 L 446.0,784.0 L 526.0,705.0 L 555.0,668.0"/>
    <path d="M 675.0,333.0 L 714.0,334.0 L 809.0,309.0 L 834.0,324.0 L 849.0,343.0 L 844.0,933.0 L 823.0,971.0 L 800.0,964.0 L 730.0,924.0"/>
    <path d="M 697.0,490.0 L 759.0,526.0 L 775.0,556.0"/>
    <path d="M 664.0,749.0 L 705.0,737.0 L 809.0,612.0"/>
  </g>
</svg>
