<svg xmlns="http://www.w3.org/2000/svg" viewBox="0 0 1024 1024">
  <g style="fill:none;stroke:#000000;stroke-width:50;stroke-linecap:round;stroke-linejoin:round;" transform="scale(1, 1) translate(0, 0)">
    <path d="M 214.0,258.0 L 246.0,264.0 L 288.0,257.0 L 386.0,223.0 L 402.0,223.0 L 420.0,234.0 L 438.0,255.0 L 430.0,336.0 L 426.0,506.0 L 415.0,576.0"/>
    <path d="M 221.0,343.0 L 287.0,380.0 L 309.0,409.0"/>
    <path d="M 156.0,579.0 L 166.0,583.0 L 216.0,576.0 L 370.0,462.0"/>
    <path d="M 563.0,225.0 L 568.0,230.0 L 620.0,231.0 L 756.0,195.0 L 780.0,202.0 L 812.0,241.0 L 795.0,315.0 L 778.0,489.0 L 759.0,567.0"/>
    <path d="M 573.0,312.0 L 646.0,343.0 L 667.0,369.0"/>
    <path d="M 523.0,509.0 L 573.0,508.0 L 665.0,441.0 L 677.0,439.0 L 683.0,428.0 L 694.0,425.0 L 716.0,403.0"/>
    <path d="M 470.0,571.0 L 493.0,600.0 L 421.0,705.0"/>
    <path d="M 325.0,716.0 L 351.0,741.0 L 360.0,769.0 L 364.0,835.0 L 352.0,983.0 L 355.0,1036.0"/>
    <path d="M 376.0,727.0 L 400.0,737.0 L 627.0,687.0 L 660.0,699.0 L 673.0,713.0 L 680.0,723.0 L 677.0,930.0 L 675.0,967.0 L 661.0,1001.0 L 660.0,1064.0"/>
    <path d="M 393.0,867.0 L 404.0,856.0 L 522.0,836.0 L 566.0,842.0"/>
    <path d="M 383.0,995.0 L 400.0,984.0 L 425.0,980.0 L 614.0,965.0"/>
  </g>
</svg>
