<svg xmlns="http://www.w3.org/2000/svg" viewBox="0 0 1024 1024">
  <g style="fill:none;stroke:#000000;stroke-width:50;stroke-linecap:round;stroke-linejoin:round;" transform="scale(1, 1) translate(0, 0)">
    <path d="M 226.0,283.0 L 282.0,284.0 L 395.0,257.0 L 424.0,260.0 L 445.0,275.0 L 455.0,290.0 L 439.0,363.0 L 421.0,520.0"/>
    <path d="M 269.0,337.0 L 330.0,364.0 L 348.0,388.0"/>
    <path d="M 193.0,518.0 L 234.0,522.0 L 251.0,516.0 L 379.0,423.0"/>
    <path d="M 530.0,246.0 L 581.0,250.0 L 718.0,226.0 L 745.0,235.0 L 767.0,261.0 L 770.0,267.0 L 744.0,339.0 L 730.0,413.0 L 702.0,510.0"/>
    <path d="M 546.0,300.0 L 592.0,328.0 L 611.0,347.0"/>
    <path d="M 536.0,421.0 L 576.0,429.0 L 685.0,384.0 L 696.0,373.0 L 704.0,379.0"/>
    <path d="M 343.0,527.0 L 362.0,554.0 L 363.0,568.0 L 297.0,672.0 L 211.0,763.0 L 144.0,814.0 L 68.0,860.0"/>
    <path d="M 327.0,678.0 L 330.0,709.0 L 340.0,727.0 L 336.0,860.0 L 324.0,978.0 L 328.0,1061.0"/>
    <path d="M 509.0,473.0 L 552.0,504.0 L 574.0,531.0"/>
    <path d="M 437.0,601.0 L 465.0,606.0 L 528.0,602.0 L 611.0,590.0 L 625.0,582.0 L 707.0,565.0 L 749.0,567.0"/>
    <path d="M 457.0,719.0 L 485.0,725.0 L 548.0,722.0 L 669.0,694.0 L 732.0,692.0"/>
    <path d="M 454.0,836.0 L 476.0,843.0 L 530.0,842.0 L 666.0,814.0 L 738.0,812.0"/>
    <path d="M 556.0,621.0 L 589.0,645.0 L 592.0,671.0 L 586.0,904.0 L 569.0,924.0"/>
    <path d="M 370.0,964.0 L 380.0,974.0 L 413.0,975.0 L 748.0,933.0 L 791.0,935.0 L 847.0,951.0"/>
  </g>
</svg>
