<svg xmlns="http://www.w3.org/2000/svg" viewBox="0 0 1024 1024">
  <g style="fill:none;stroke:#000000;stroke-width:50;stroke-linecap:round;stroke-linejoin:round;" transform="scale(1, 1) translate(0, 0)">
    <path d="M 336.0,211.0 L 408.0,251.0 L 435.0,287.0"/>
    <path d="M 273.0,436.0 L 283.0,425.0 L 408.0,386.0 L 436.0,391.0 L 459.0,413.0 L 429.0,490.0 L 405.0,507.0"/>
    <path d="M 248.0,556.0 L 281.0,557.0 L 406.0,531.0 L 443.0,528.0 L 467.0,536.0"/>
    <path d="M 211.0,395.0 L 239.0,428.0 L 240.0,441.0 L 221.0,549.0 L 189.0,658.0 L 143.0,760.0 L 96.0,826.0 L 53.0,868.0"/>
    <path d="M 208.0,682.0 L 215.0,792.0 L 211.0,881.0 L 218.0,917.0"/>
    <path d="M 214.0,676.0 L 237.0,684.0 L 337.0,655.0 L 436.0,637.0 L 478.0,635.0 L 502.0,643.0 L 516.0,661.0 L 509.0,687.0 L 505.0,869.0 L 494.0,894.0 L 433.0,878.0"/>
    <path d="M 261.0,792.0 L 300.0,789.0 L 425.0,759.0 L 453.0,763.0"/>
    <path d="M 287.0,690.0 L 304.0,702.0 L 314.0,872.0"/>
    <path d="M 379.0,666.0 L 402.0,687.0 L 393.0,872.0"/>
    <path d="M 546.0,411.0 L 582.0,410.0 L 651.0,388.0 L 673.0,403.0 L 681.0,417.0 L 684.0,861.0 L 679.0,902.0 L 664.0,931.0 L 574.0,902.0"/>
    <path d="M 552.0,521.0 L 597.0,562.0 L 606.0,578.0"/>
    <path d="M 537.0,750.0 L 545.0,754.0 L 579.0,749.0 L 645.0,687.0 L 651.0,664.0"/>
    <path d="M 746.0,387.0 L 771.0,388.0 L 853.0,370.0 L 886.0,399.0 L 885.0,921.0 L 868.0,952.0 L 766.0,910.0"/>
    <path d="M 744.0,514.0 L 777.0,541.0 L 793.0,566.0"/>
    <path d="M 726.0,731.0 L 772.0,725.0 L 847.0,656.0 L 858.0,630.0"/>
  </g>
</svg>
