<svg xmlns="http://www.w3.org/2000/svg" viewBox="0 0 1024 1024">
  <g style="fill:none;stroke:#000000;stroke-width:50;stroke-linecap:round;stroke-linejoin:round;" transform="scale(1, 1) translate(0, 0)">
    <path d="M 255.0,257.0 L 294.0,260.0 L 408.0,229.0 L 433.0,230.0 L 453.0,245.0 L 462.0,260.0 L 449.0,297.0 L 425.0,429.0"/>
    <path d="M 259.0,307.0 L 319.0,324.0 L 337.0,342.0"/>
    <path d="M 219.0,428.0 L 261.0,432.0 L 383.0,366.0"/>
    <path d="M 552.0,221.0 L 591.0,225.0 L 710.0,199.0 L 728.0,198.0 L 754.0,209.0 L 771.0,240.0 L 707.0,408.0"/>
    <path d="M 538.0,268.0 L 599.0,295.0 L 615.0,316.0"/>
    <path d="M 505.0,384.0 L 547.0,390.0 L 636.0,350.0 L 639.0,342.0 L 659.0,337.0"/>
    <path d="M 300.0,479.0 L 336.0,518.0 L 375.0,654.0"/>
    <path d="M 331.0,473.0 L 363.0,486.0 L 592.0,447.0 L 658.0,452.0 L 678.0,469.0 L 685.0,484.0 L 640.0,621.0 L 643.0,637.0"/>
    <path d="M 415.0,556.0 L 441.0,556.0 L 548.0,534.0 L 588.0,538.0"/>
    <path d="M 483.0,484.0 L 502.0,503.0 L 500.0,588.0 L 487.0,601.0"/>
    <path d="M 393.0,642.0 L 408.0,634.0 L 586.0,611.0 L 612.0,601.0"/>
    <path d="M 271.0,748.0 L 320.0,757.0 L 390.0,755.0 L 624.0,722.0 L 679.0,708.0 L 730.0,711.0"/>
    <path d="M 366.0,683.0 L 399.0,713.0 L 411.0,821.0 L 414.0,833.0 L 426.0,840.0"/>
    <path d="M 568.0,653.0 L 600.0,685.0 L 584.0,806.0 L 567.0,828.0"/>
    <path d="M 131.0,883.0 L 164.0,893.0 L 201.0,893.0 L 480.0,859.0 L 805.0,837.0 L 840.0,842.0 L 890.0,860.0"/>
    <path d="M 409.0,951.0 L 378.0,952.0 L 303.0,1015.0 L 252.0,1045.0 L 211.0,1061.0"/>
    <path d="M 581.0,918.0 L 699.0,994.0 L 732.0,1031.0 L 746.0,1062.0"/>
  </g>
</svg>
