<svg xmlns="http://www.w3.org/2000/svg" viewBox="0 0 1024 1024">
  <g style="fill:none;stroke:#000000;stroke-width:50;stroke-linecap:round;stroke-linejoin:round;" transform="scale(1, 1) translate(0, 0)">
    <path d="M 251.0,363.0 L 319.0,361.0 L 426.0,326.0 L 462.0,319.0 L 484.0,322.0"/>
    <path d="M 342.0,188.0 L 377.0,223.0 L 364.0,414.0 L 348.0,434.0"/>
    <path d="M 237.0,483.0 L 267.0,481.0 L 423.0,436.0 L 465.0,430.0 L 488.0,435.0"/>
    <path d="M 134.0,634.0 L 156.0,637.0 L 197.0,631.0 L 271.0,605.0 L 306.0,603.0"/>
    <path d="M 201.0,528.0 L 230.0,556.0 L 227.0,668.0 L 221.0,688.0 L 212.0,696.0"/>
    <path d="M 108.0,742.0 L 153.0,747.0 L 317.0,675.0"/>
    <path d="M 347.0,582.0 L 404.0,583.0 L 468.0,561.0 L 513.0,559.0"/>
    <path d="M 407.0,483.0 L 436.0,511.0 L 431.0,621.0 L 420.0,647.0"/>
    <path d="M 347.0,685.0 L 468.0,658.0 L 496.0,655.0 L 516.0,660.0"/>
    <path d="M 177.0,812.0 L 214.0,810.0 L 436.0,752.0 L 465.0,749.0 L 488.0,755.0"/>
    <path d="M 266.0,823.0 L 285.0,846.0 L 226.0,934.0 L 167.0,984.0 L 111.0,1017.0 L 69.0,1030.0"/>
    <path d="M 370.0,795.0 L 397.0,813.0 L 405.0,827.0 L 392.0,923.0 L 404.0,978.0 L 453.0,1015.0 L 546.0,1035.0 L 638.0,1039.0 L 756.0,1033.0 L 866.0,1017.0 L 918.0,999.0 L 940.0,984.0 L 928.0,849.0"/>
    <path d="M 553.0,416.0 L 605.0,409.0 L 630.0,397.0 L 651.0,401.0 L 670.0,421.0 L 670.0,775.0 L 660.0,843.0 L 648.0,855.0 L 560.0,828.0 L 560.0,823.0"/>
    <path d="M 544.0,517.0 L 581.0,552.0 L 596.0,581.0"/>
    <path d="M 520.0,729.0 L 556.0,722.0 L 628.0,643.0"/>
    <path d="M 726.0,391.0 L 778.0,387.0 L 832.0,371.0 L 848.0,376.0 L 870.0,398.0 L 864.0,841.0 L 844.0,878.0 L 766.0,842.0"/>
    <path d="M 727.0,493.0 L 764.0,522.0 L 781.0,549.0"/>
    <path d="M 712.0,710.0 L 749.0,699.0 L 815.0,619.0 L 823.0,599.0"/>
  </g>
</svg>
