<svg xmlns="http://www.w3.org/2000/svg" viewBox="0 0 1024 1024">
  <g style="fill:none;stroke:#000000;stroke-width:50;stroke-linecap:round;stroke-linejoin:round;" transform="scale(1, 1) translate(0, 0)">
    <path d="M 458.0,249.0 L 394.0,235.0 L 325.0,275.0 L 251.0,303.0 L 214.0,306.0 L 204.0,314.0"/>
    <path d="M 184.0,374.0 L 247.0,419.0 L 259.0,444.0"/>
    <path d="M 461.0,316.0 L 476.0,342.0 L 404.0,419.0"/>
    <path d="M 97.0,529.0 L 152.0,535.0 L 438.0,472.0 L 490.0,475.0"/>
    <path d="M 307.0,301.0 L 334.0,318.0 L 348.0,337.0 L 339.0,446.0 L 336.0,607.0 L 330.0,639.0 L 337.0,678.0"/>
    <path d="M 316.0,522.0 L 226.0,630.0 L 170.0,674.0 L 80.0,721.0"/>
    <path d="M 358.0,566.0 L 425.0,589.0 L 453.0,608.0 L 465.0,624.0"/>
    <path d="M 159.0,732.0 L 186.0,756.0 L 191.0,774.0 L 229.0,993.0"/>
    <path d="M 221.0,758.0 L 231.0,745.0 L 390.0,712.0 L 433.0,711.0 L 456.0,718.0 L 473.0,736.0 L 446.0,904.0 L 433.0,943.0 L 438.0,962.0"/>
    <path d="M 260.0,845.0 L 362.0,821.0 L 401.0,825.0"/>
    <path d="M 307.0,746.0 L 330.0,768.0 L 329.0,901.0 L 314.0,924.0"/>
    <path d="M 250.0,963.0 L 265.0,954.0 L 403.0,929.0"/>
    <path d="M 525.0,435.0 L 561.0,435.0 L 618.0,416.0 L 641.0,421.0 L 660.0,440.0 L 655.0,881.0 L 650.0,919.0 L 632.0,957.0 L 538.0,915.0"/>
    <path d="M 512.0,541.0 L 577.0,582.0 L 590.0,605.0"/>
    <path d="M 515.0,804.0 L 549.0,795.0 L 626.0,706.0"/>
    <path d="M 730.0,401.0 L 757.0,403.0 L 842.0,378.0 L 867.0,392.0 L 880.0,409.0 L 880.0,901.0 L 874.0,959.0 L 855.0,991.0 L 824.0,982.0 L 746.0,944.0"/>
    <path d="M 723.0,513.0 L 779.0,552.0 L 794.0,577.0"/>
    <path d="M 718.0,776.0 L 760.0,769.0 L 841.0,688.0 L 844.0,677.0"/>
  </g>
</svg>
