<svg xmlns="http://www.w3.org/2000/svg" viewBox="0 0 1024 1024">
  <g style="fill:none;stroke:#000000;stroke-width:50;stroke-linecap:round;stroke-linejoin:round;" transform="scale(1, 1) translate(0, 0)">
    <path d="M 327.0,401.0 L 393.0,406.0 L 477.0,395.0 L 590.0,369.0 L 644.0,370.0"/>
    <path d="M 456.0,185.0 L 505.0,225.0 L 498.0,509.0 L 480.0,532.0"/>
    <path d="M 116.0,591.0 L 168.0,600.0 L 544.0,545.0 L 839.0,517.0 L 884.0,520.0 L 935.0,536.0"/>
    <path d="M 720.0,280.0 L 732.0,300.0 L 742.0,344.0 L 637.0,494.0 L 590.0,549.0 L 492.0,648.0 L 370.0,755.0 L 194.0,880.0 L 84.0,938.0"/>
    <path d="M 384.0,690.0 L 398.0,703.0 L 410.0,731.0 L 415.0,768.0 L 403.0,1028.0"/>
    <path d="M 445.0,724.0 L 506.0,699.0 L 618.0,673.0 L 647.0,688.0 L 661.0,707.0 L 666.0,967.0 L 654.0,1000.0 L 594.0,986.0"/>
    <path d="M 440.0,855.0 L 454.0,844.0 L 522.0,830.0 L 559.0,828.0 L 586.0,834.0"/>
    <path d="M 433.0,990.0 L 448.0,975.0 L 543.0,962.0 L 592.0,961.0 L 615.0,969.0"/>
  </g>
</svg>
