<svg xmlns="http://www.w3.org/2000/svg" viewBox="0 0 1024 1024">
  <g style="fill:none;stroke:#000000;stroke-width:50;stroke-linecap:round;stroke-linejoin:round;" transform="scale(1, 1) translate(0, 0)">
    <path d="M 473.0,213.0 L 496.0,232.0 L 512.0,256.0 L 503.0,410.0 L 485.0,424.0"/>
    <path d="M 300.0,320.0 L 327.0,370.0 L 307.0,490.0 L 347.0,492.0 L 476.0,456.0 L 645.0,427.0 L 663.0,411.0"/>
    <path d="M 716.0,258.0 L 743.0,311.0 L 699.0,421.0 L 678.0,491.0"/>
    <path d="M 315.0,621.0 L 335.0,627.0 L 393.0,626.0 L 493.0,609.0 L 606.0,581.0 L 643.0,575.0 L 676.0,578.0"/>
    <path d="M 471.0,662.0 L 432.0,675.0 L 394.0,747.0 L 384.0,754.0"/>
    <path d="M 152.0,790.0 L 178.0,815.0 L 192.0,850.0 L 201.0,999.0 L 215.0,1051.0"/>
    <path d="M 202.0,802.0 L 236.0,817.0 L 473.0,764.0 L 716.0,735.0 L 787.0,733.0 L 805.0,746.0 L 827.0,777.0 L 817.0,806.0 L 798.0,946.0 L 786.0,985.0 L 768.0,1012.0 L 674.0,965.0"/>
    <path d="M 331.0,818.0 L 362.0,840.0 L 374.0,988.0"/>
    <path d="M 514.0,780.0 L 548.0,807.0 L 543.0,1019.0"/>
  </g>
</svg>
