<svg xmlns="http://www.w3.org/2000/svg" viewBox="0 0 1024 1024">
  <g style="fill:none;stroke:#000000;stroke-width:50;stroke-linecap:round;stroke-linejoin:round;" transform="scale(1, 1) translate(0, 0)">
    <path d="M 319.0,260.0 L 347.0,268.0 L 409.0,268.0 L 627.0,230.0 L 677.0,231.0"/>
    <path d="M 484.0,304.0 L 449.0,312.0 L 411.0,376.0 L 392.0,386.0"/>
    <path d="M 220.0,414.0 L 243.0,434.0 L 258.0,459.0 L 276.0,596.0 L 286.0,625.0"/>
    <path d="M 266.0,421.0 L 297.0,433.0 L 485.0,394.0 L 669.0,375.0 L 725.0,374.0 L 743.0,386.0 L 760.0,413.0 L 728.0,542.0 L 702.0,592.0 L 698.0,596.0 L 682.0,590.0 L 616.0,555.0"/>
    <path d="M 388.0,434.0 L 413.0,456.0 L 422.0,598.0"/>
    <path d="M 525.0,409.0 L 555.0,438.0 L 544.0,613.0"/>
    <path d="M 402.0,628.0 L 418.0,643.0 L 428.0,668.0 L 368.0,826.0 L 368.0,849.0 L 475.0,887.0 L 628.0,960.0 L 689.0,994.0 L 745.0,1050.0"/>
    <path d="M 574.0,701.0 L 603.0,733.0 L 585.0,793.0 L 554.0,854.0 L 486.0,934.0 L 439.0,967.0 L 359.0,998.0 L 297.0,1009.0 L 244.0,1010.0"/>
    <path d="M 80.0,776.0 L 101.0,788.0 L 140.0,796.0 L 424.0,759.0 L 853.0,726.0 L 929.0,754.0"/>
  </g>
</svg>
