<svg xmlns="http://www.w3.org/2000/svg" viewBox="0 0 1024 1024">
  <g style="fill:none;stroke:#000000;stroke-width:50;stroke-linecap:round;stroke-linejoin:round;" transform="scale(1, 1) translate(0, 0)">
    <path d="M 155.0,427.0 L 179.0,432.0 L 216.0,428.0 L 369.0,381.0 L 433.0,373.0"/>
    <path d="M 175.0,542.0 L 234.0,543.0 L 360.0,509.0 L 405.0,506.0"/>
    <path d="M 65.0,692.0 L 116.0,696.0 L 373.0,618.0 L 429.0,616.0"/>
    <path d="M 265.0,207.0 L 317.0,262.0 L 299.0,775.0 L 279.0,981.0 L 279.0,1065.0"/>
    <path d="M 272.0,672.0 L 253.0,738.0 L 233.0,769.0 L 166.0,855.0 L 70.0,943.0"/>
    <path d="M 326.0,719.0 L 392.0,766.0 L 413.0,798.0"/>
    <path d="M 511.0,483.0 L 524.0,491.0 L 635.0,464.0 L 729.0,433.0 L 763.0,438.0 L 791.0,467.0 L 757.0,580.0 L 731.0,597.0"/>
    <path d="M 599.0,489.0 L 622.0,513.0 L 622.0,524.0 L 615.0,609.0 L 598.0,623.0"/>
    <path d="M 502.0,663.0 L 511.0,671.0 L 718.0,625.0 L 787.0,629.0"/>
    <path d="M 453.0,468.0 L 473.0,488.0 L 480.0,508.0 L 471.0,677.0 L 477.0,820.0 L 498.0,891.0 L 535.0,927.0 L 588.0,951.0 L 670.0,965.0 L 755.0,961.0 L 844.0,939.0 L 876.0,922.0 L 907.0,894.0 L 908.0,761.0"/>
  </g>
</svg>
