<svg xmlns="http://www.w3.org/2000/svg" viewBox="0 0 1024 1024">
  <g style="fill:none;stroke:#000000;stroke-width:50;stroke-linecap:round;stroke-linejoin:round;" transform="scale(1, 1) translate(0, 0)">
    <path d="M 159.0,423.0 L 215.0,422.0 L 381.0,366.0 L 434.0,363.0"/>
    <path d="M 187.0,535.0 L 240.0,535.0 L 364.0,496.0 L 406.0,493.0"/>
    <path d="M 76.0,672.0 L 107.0,679.0 L 139.0,677.0 L 373.0,617.0 L 416.0,611.0 L 443.0,615.0"/>
    <path d="M 253.0,220.0 L 297.0,261.0 L 307.0,285.0 L 302.0,808.0 L 289.0,968.0 L 291.0,1061.0"/>
    <path d="M 276.0,669.0 L 257.0,728.0 L 197.0,802.0 L 119.0,872.0 L 38.0,921.0"/>
    <path d="M 328.0,731.0 L 388.0,779.0 L 411.0,816.0"/>
    <path d="M 492.0,488.0 L 515.0,493.0 L 563.0,491.0 L 792.0,426.0 L 849.0,422.0"/>
    <path d="M 525.0,317.0 L 566.0,360.0 L 574.0,399.0 L 590.0,591.0 L 589.0,601.0 L 577.0,613.0"/>
    <path d="M 726.0,215.0 L 758.0,247.0 L 765.0,271.0 L 713.0,568.0 L 691.0,595.0"/>
    <path d="M 438.0,656.0 L 492.0,660.0 L 654.0,624.0 L 851.0,593.0 L 884.0,590.0 L 954.0,605.0"/>
    <path d="M 511.0,739.0 L 539.0,761.0 L 546.0,788.0 L 551.0,872.0 L 547.0,957.0 L 538.0,1003.0 L 542.0,1054.0"/>
    <path d="M 570.0,747.0 L 583.0,757.0 L 751.0,722.0 L 777.0,724.0 L 802.0,743.0 L 808.0,752.0 L 809.0,933.0 L 805.0,986.0 L 798.0,1003.0 L 809.0,1082.0"/>
    <path d="M 572.0,885.0 L 588.0,873.0 L 624.0,864.0 L 673.0,857.0 L 707.0,863.0"/>
    <path d="M 570.0,1018.0 L 594.0,1001.0 L 751.0,983.0"/>
  </g>
</svg>
