<svg xmlns="http://www.w3.org/2000/svg" viewBox="0 0 1024 1024">
  <g style="fill:none;stroke:#000000;stroke-width:50;stroke-linecap:round;stroke-linejoin:round;" transform="scale(1, 1) translate(0, 0)">
    <path d="M 169.0,395.0 L 241.0,399.0 L 390.0,364.0 L 452.0,360.0"/>
    <path d="M 184.0,506.0 L 243.0,509.0 L 364.0,478.0 L 421.0,474.0"/>
    <path d="M 72.0,632.0 L 103.0,639.0 L 135.0,636.0 L 362.0,580.0 L 416.0,572.0 L 439.0,575.0"/>
    <path d="M 273.0,191.0 L 313.0,230.0 L 323.0,252.0 L 312.0,715.0 L 296.0,925.0 L 297.0,1003.0"/>
    <path d="M 290.0,624.0 L 281.0,631.0 L 270.0,671.0 L 224.0,733.0 L 131.0,831.0 L 74.0,878.0"/>
    <path d="M 339.0,659.0 L 390.0,695.0"/>
    <path d="M 563.0,274.0 L 574.0,282.0 L 745.0,249.0 L 800.0,247.0"/>
    <path d="M 500.0,255.0 L 530.0,285.0 L 532.0,306.0 L 518.0,471.0 L 499.0,565.0 L 477.0,636.0 L 438.0,721.0 L 363.0,828.0"/>
    <path d="M 591.0,363.0 L 632.0,366.0 L 711.0,344.0 L 760.0,341.0"/>
    <path d="M 546.0,461.0 L 670.0,445.0 L 802.0,410.0 L 832.0,414.0"/>
    <path d="M 566.0,478.0 L 592.0,497.0 L 586.0,594.0 L 592.0,622.0 L 632.0,605.0 L 679.0,571.0 L 681.0,561.0 L 698.0,553.0"/>
    <path d="M 827.0,461.0 L 833.0,486.0 L 776.0,531.0 L 769.0,527.0"/>
    <path d="M 643.0,469.0 L 655.0,470.0 L 766.0,566.0 L 827.0,606.0 L 856.0,615.0 L 961.0,627.0"/>
    <path d="M 484.0,760.0 L 520.0,768.0 L 549.0,765.0 L 636.0,745.0 L 880.0,712.0 L 958.0,726.0"/>
    <path d="M 682.0,633.0 L 728.0,680.0 L 722.0,993.0 L 703.0,1023.0 L 598.0,979.0"/>
    <path d="M 511.0,829.0 L 569.0,873.0 L 583.0,896.0"/>
  </g>
</svg>
