<svg xmlns="http://www.w3.org/2000/svg" viewBox="0 0 1024 1024">
  <g style="fill:none;stroke:#000000;stroke-width:50;stroke-linecap:round;stroke-linejoin:round;" transform="scale(1, 1) translate(0, 0)">
    <path d="M 191.0,404.0 L 255.0,403.0 L 367.0,372.0 L 396.0,358.0 L 466.0,351.0"/>
    <path d="M 203.0,531.0 L 269.0,527.0 L 399.0,484.0 L 442.0,481.0"/>
    <path d="M 93.0,676.0 L 144.0,681.0 L 373.0,612.0 L 413.0,605.0 L 441.0,608.0"/>
    <path d="M 293.0,188.0 L 336.0,229.0 L 346.0,253.0 L 336.0,758.0 L 318.0,967.0 L 319.0,1053.0"/>
    <path d="M 310.0,657.0 L 281.0,727.0 L 227.0,798.0 L 140.0,883.0 L 70.0,930.0"/>
    <path d="M 359.0,725.0 L 371.0,732.0 L 375.0,743.0 L 419.0,770.0 L 439.0,803.0"/>
    <path d="M 596.0,260.0 L 630.0,297.0 L 606.0,393.0 L 552.0,516.0 L 506.0,582.0 L 449.0,643.0"/>
    <path d="M 655.0,354.0 L 656.0,369.0 L 695.0,416.0 L 758.0,487.0 L 831.0,555.0 L 863.0,569.0 L 982.0,592.0"/>
    <path d="M 496.0,650.0 L 522.0,655.0 L 576.0,649.0 L 713.0,613.0 L 750.0,613.0"/>
    <path d="M 482.0,773.0 L 506.0,795.0 L 519.0,828.0 L 548.0,1001.0"/>
    <path d="M 532.0,773.0 L 552.0,783.0 L 711.0,748.0 L 740.0,747.0 L 756.0,753.0 L 782.0,780.0 L 750.0,889.0 L 725.0,904.0"/>
    <path d="M 568.0,972.0 L 585.0,956.0 L 717.0,934.0 L 759.0,935.0 L 783.0,943.0"/>
  </g>
</svg>
