<svg xmlns="http://www.w3.org/2000/svg" viewBox="0 0 1024 1024">
  <g style="fill:none;stroke:#000000;stroke-width:50;stroke-linecap:round;stroke-linejoin:round;" transform="scale(1, 1) translate(0, 0)">
    <path d="M 173.0,391.0 L 201.0,396.0 L 244.0,393.0 L 283.0,387.0 L 382.0,357.0 L 437.0,356.0"/>
    <path d="M 188.0,493.0 L 225.0,497.0 L 274.0,492.0 L 379.0,463.0 L 420.0,463.0"/>
    <path d="M 79.0,623.0 L 132.0,629.0 L 334.0,573.0 L 401.0,560.0 L 423.0,563.0"/>
    <path d="M 274.0,195.0 L 316.0,235.0 L 326.0,258.0 L 311.0,749.0 L 294.0,918.0 L 296.0,1010.0"/>
    <path d="M 289.0,612.0 L 280.0,620.0 L 270.0,663.0 L 226.0,731.0 L 171.0,801.0 L 108.0,868.0 L 61.0,908.0"/>
    <path d="M 343.0,643.0 L 351.0,656.0 L 394.0,683.0 L 407.0,700.0"/>
    <path d="M 485.0,369.0 L 523.0,376.0 L 576.0,372.0 L 790.0,326.0 L 827.0,326.0"/>
    <path d="M 496.0,473.0 L 553.0,471.0 L 762.0,434.0 L 803.0,440.0"/>
    <path d="M 540.0,266.0 L 566.0,291.0 L 576.0,312.0 L 584.0,523.0 L 572.0,536.0"/>
    <path d="M 693.0,193.0 L 730.0,233.0 L 695.0,495.0 L 688.0,512.0 L 677.0,520.0"/>
    <path d="M 452.0,568.0 L 488.0,576.0 L 808.0,527.0 L 852.0,530.0 L 895.0,542.0"/>
    <path d="M 481.0,648.0 L 497.0,660.0 L 513.0,695.0 L 512.0,812.0 L 499.0,929.0 L 485.0,980.0 L 483.0,1029.0"/>
    <path d="M 518.0,649.0 L 545.0,659.0 L 760.0,617.0 L 788.0,630.0 L 805.0,650.0 L 814.0,965.0 L 806.0,1021.0 L 797.0,1037.0 L 787.0,1036.0 L 694.0,997.0"/>
    <path d="M 571.0,745.0 L 618.0,740.0 L 698.0,720.0 L 740.0,724.0"/>
    <path d="M 630.0,576.0 L 651.0,593.0 L 653.0,605.0 L 649.0,782.0 L 635.0,803.0"/>
    <path d="M 388.0,848.0 L 438.0,855.0 L 625.0,826.0 L 858.0,802.0 L 908.0,807.0 L 946.0,818.0"/>
  </g>
</svg>
