<svg xmlns="http://www.w3.org/2000/svg" viewBox="0 0 1024 1024">
  <g style="fill:none;stroke:#000000;stroke-width:50;stroke-linecap:round;stroke-linejoin:round;" transform="scale(1, 1) translate(0, 0)">
    <path d="M 232.0,357.0 L 278.0,367.0 L 317.0,367.0 L 519.0,339.0 L 687.0,305.0 L 747.0,306.0"/>
    <path d="M 472.0,194.0 L 492.0,232.0 L 423.0,380.0 L 374.0,446.0 L 325.0,500.0 L 238.0,570.0 L 152.0,623.0 L 120.0,636.0"/>
    <path d="M 547.0,367.0 L 560.0,370.0 L 585.0,397.0 L 709.0,497.0 L 774.0,535.0 L 941.0,558.0"/>
    <path d="M 301.0,571.0 L 332.0,578.0 L 371.0,577.0 L 496.0,556.0 L 582.0,534.0 L 654.0,528.0"/>
    <path d="M 344.0,601.0 L 370.0,624.0 L 374.0,645.0 L 369.0,827.0 L 355.0,845.0"/>
    <path d="M 547.0,568.0 L 555.0,578.0 L 580.0,588.0 L 593.0,611.0 L 587.0,1105.0"/>
    <path d="M 401.0,686.0 L 412.0,677.0 L 473.0,664.0 L 524.0,668.0"/>
    <path d="M 393.0,771.0 L 406.0,761.0 L 479.0,752.0 L 532.0,755.0"/>
    <path d="M 167.0,878.0 L 221.0,890.0 L 425.0,864.0 L 741.0,841.0 L 786.0,847.0 L 837.0,864.0"/>
  </g>
</svg>
