<svg xmlns="http://www.w3.org/2000/svg" viewBox="0 0 1024 1024">
  <g style="fill:none;stroke:#000000;stroke-width:50;stroke-linecap:round;stroke-linejoin:round;" transform="scale(1, 1) translate(0, 0)">
    <path d="M 304.0,266.0 L 350.0,275.0 L 618.0,230.0 L 663.0,228.0 L 694.0,235.0"/>
    <path d="M 363.0,298.0 L 388.0,318.0 L 391.0,337.0 L 389.0,511.0 L 374.0,523.0"/>
    <path d="M 564.0,268.0 L 599.0,290.0 L 599.0,615.0"/>
    <path d="M 421.0,378.0 L 429.0,367.0 L 487.0,352.0 L 512.0,348.0 L 533.0,353.0"/>
    <path d="M 414.0,458.0 L 426.0,448.0 L 474.0,438.0 L 516.0,435.0 L 536.0,440.0"/>
    <path d="M 209.0,564.0 L 263.0,570.0 L 448.0,536.0 L 684.0,506.0 L 733.0,505.0 L 792.0,519.0"/>
    <path d="M 192.0,704.0 L 258.0,706.0 L 361.0,679.0 L 391.0,681.0 L 410.0,691.0 L 398.0,743.0 L 361.0,834.0 L 308.0,913.0 L 267.0,948.0 L 202.0,987.0 L 136.0,1008.0 L 103.0,1012.0"/>
    <path d="M 230.0,766.0 L 391.0,900.0 L 410.0,927.0 L 420.0,957.0"/>
    <path d="M 504.0,676.0 L 559.0,679.0 L 680.0,650.0 L 701.0,650.0 L 736.0,663.0 L 699.0,790.0 L 666.0,856.0 L 637.0,896.0 L 591.0,937.0 L 533.0,971.0 L 452.0,991.0"/>
    <path d="M 515.0,729.0 L 552.0,748.0 L 573.0,767.0 L 686.0,900.0 L 780.0,973.0 L 857.0,994.0 L 949.0,1008.0"/>
  </g>
</svg>
