<svg xmlns="http://www.w3.org/2000/svg" viewBox="0 0 1024 1024">
  <g style="fill:none;stroke:#000000;stroke-width:50;stroke-linecap:round;stroke-linejoin:round;" transform="scale(1, 1) translate(0, 0)">
    <path d="M 110.0,314.0 L 160.0,320.0 L 348.0,281.0 L 402.0,274.0 L 439.0,280.0"/>
    <path d="M 166.0,348.0 L 196.0,364.0 L 202.0,399.0 L 198.0,712.0 L 193.0,725.0 L 180.0,732.0"/>
    <path d="M 334.0,308.0 L 364.0,337.0 L 362.0,1020.0"/>
    <path d="M 232.0,480.0 L 244.0,463.0 L 257.0,459.0 L 313.0,457.0"/>
    <path d="M 228.0,609.0 L 234.0,597.0 L 250.0,589.0 L 304.0,589.0"/>
    <path d="M 83.0,772.0 L 137.0,789.0 L 433.0,687.0"/>
    <path d="M 584.0,215.0 L 601.0,227.0 L 621.0,256.0 L 602.0,322.0 L 570.0,397.0 L 516.0,496.0 L 455.0,590.0 L 414.0,637.0"/>
    <path d="M 625.0,349.0 L 629.0,363.0 L 691.0,434.0 L 805.0,537.0 L 855.0,557.0 L 983.0,584.0"/>
    <path d="M 552.0,539.0 L 620.0,581.0 L 650.0,621.0"/>
    <path d="M 465.0,748.0 L 489.0,758.0 L 524.0,760.0 L 661.0,708.0 L 700.0,704.0 L 723.0,716.0 L 741.0,734.0 L 726.0,765.0 L 637.0,893.0 L 627.0,894.0"/>
    <path d="M 539.0,860.0 L 651.0,963.0 L 676.0,1003.0 L 683.0,1035.0"/>
  </g>
</svg>
