<svg xmlns="http://www.w3.org/2000/svg" viewBox="0 0 1024 1024">
  <g style="fill:none;stroke:#000000;stroke-width:50;stroke-linecap:round;stroke-linejoin:round;" transform="scale(1, 1) translate(0, 0)">
    <path d="M 129.0,322.0 L 160.0,329.0 L 207.0,328.0 L 408.0,289.0 L 459.0,288.0"/>
    <path d="M 170.0,355.0 L 202.0,377.0 L 208.0,416.0 L 203.0,719.0 L 201.0,746.0 L 184.0,758.0"/>
    <path d="M 357.0,329.0 L 380.0,353.0 L 382.0,391.0 L 378.0,1032.0"/>
    <path d="M 230.0,499.0 L 243.0,487.0 L 284.0,476.0 L 325.0,477.0"/>
    <path d="M 225.0,628.0 L 275.0,605.0 L 325.0,605.0"/>
    <path d="M 83.0,800.0 L 136.0,817.0 L 448.0,706.0"/>
    <path d="M 478.0,413.0 L 497.0,429.0 L 512.0,455.0 L 548.0,665.0"/>
    <path d="M 525.0,412.0 L 554.0,422.0 L 737.0,381.0 L 777.0,395.0 L 796.0,415.0 L 793.0,429.0 L 759.0,549.0 L 734.0,566.0"/>
    <path d="M 569.0,636.0 L 585.0,621.0 L 725.0,595.0 L 770.0,595.0 L 794.0,602.0"/>
    <path d="M 602.0,760.0 L 572.0,768.0 L 548.0,809.0 L 511.0,854.0 L 468.0,895.0 L 433.0,917.0"/>
    <path d="M 710.0,725.0 L 798.0,804.0 L 858.0,868.0 L 881.0,908.0 L 889.0,946.0"/>
  </g>
</svg>
