<svg xmlns="http://www.w3.org/2000/svg" viewBox="0 0 1024 1024">
  <g style="fill:none;stroke:#000000;stroke-width:50;stroke-linecap:round;stroke-linejoin:round;" transform="scale(1, 1) translate(0, 0)">
    <path d="M 191.0,260.0 L 249.0,266.0 L 500.0,226.0 L 547.0,232.0"/>
    <path d="M 266.0,290.0 L 279.0,293.0 L 296.0,314.0 L 293.0,506.0 L 289.0,516.0 L 278.0,521.0"/>
    <path d="M 435.0,260.0 L 463.0,283.0 L 455.0,601.0"/>
    <path d="M 321.0,368.0 L 354.0,351.0 L 409.0,352.0"/>
    <path d="M 321.0,452.0 L 328.0,440.0 L 371.0,429.0 L 413.0,432.0"/>
    <path d="M 153.0,562.0 L 202.0,582.0 L 484.0,503.0 L 509.0,490.0"/>
    <path d="M 548.0,301.0 L 579.0,309.0 L 604.0,306.0 L 705.0,278.0 L 729.0,281.0 L 749.0,297.0 L 716.0,385.0 L 669.0,446.0 L 618.0,481.0 L 549.0,507.0"/>
    <path d="M 553.0,376.0 L 717.0,456.0 L 798.0,504.0 L 831.0,533.0 L 847.0,559.0"/>
    <path d="M 647.0,613.0 L 587.0,596.0 L 461.0,650.0 L 352.0,678.0 L 337.0,687.0 L 326.0,681.0 L 316.0,691.0 L 305.0,688.0 L 283.0,695.0"/>
    <path d="M 483.0,666.0 L 511.0,690.0 L 510.0,845.0 L 501.0,995.0 L 514.0,1073.0"/>
    <path d="M 398.0,712.0 L 370.0,719.0 L 344.0,752.0 L 297.0,793.0 L 259.0,822.0 L 206.0,848.0"/>
    <path d="M 425.0,839.0 L 394.0,844.0 L 354.0,892.0 L 304.0,934.0 L 235.0,981.0 L 179.0,1007.0"/>
    <path d="M 733.0,625.0 L 750.0,664.0 L 624.0,773.0 L 606.0,778.0"/>
    <path d="M 536.0,730.0 L 549.0,755.0 L 594.0,799.0 L 715.0,899.0 L 764.0,932.0 L 805.0,946.0 L 964.0,965.0"/>
  </g>
</svg>
