<svg xmlns="http://www.w3.org/2000/svg" viewBox="0 0 1024 1024">
  <g style="fill:none;stroke:#000000;stroke-width:50;stroke-linecap:round;stroke-linejoin:round;" transform="scale(1, 1) translate(0, 0)">
    <path d="M 126.0,345.0 L 200.0,350.0 L 403.0,305.0 L 452.0,306.0"/>
    <path d="M 178.0,380.0 L 211.0,404.0 L 215.0,435.0 L 209.0,758.0 L 192.0,772.0"/>
    <path d="M 353.0,344.0 L 379.0,367.0 L 383.0,448.0 L 378.0,1024.0"/>
    <path d="M 244.0,518.0 L 248.0,507.0 L 265.0,497.0 L 307.0,487.0 L 329.0,490.0"/>
    <path d="M 241.0,640.0 L 249.0,628.0 L 272.0,620.0 L 334.0,618.0"/>
    <path d="M 78.0,822.0 L 98.0,832.0 L 134.0,838.0 L 337.0,759.0 L 437.0,713.0"/>
    <path d="M 508.0,323.0 L 517.0,338.0 L 572.0,386.0 L 585.0,420.0"/>
    <path d="M 742.0,254.0 L 766.0,287.0 L 653.0,430.0"/>
    <path d="M 489.0,515.0 L 510.0,520.0 L 563.0,518.0 L 717.0,480.0 L 783.0,476.0"/>
    <path d="M 450.0,692.0 L 504.0,696.0 L 806.0,638.0 L 885.0,653.0"/>
    <path d="M 584.0,542.0 L 624.0,572.0 L 617.0,677.0 L 608.0,732.0 L 592.0,779.0 L 560.0,842.0 L 528.0,883.0 L 476.0,929.0 L 432.0,954.0"/>
    <path d="M 645.0,699.0 L 651.0,730.0 L 675.0,767.0 L 738.0,854.0 L 792.0,914.0 L 804.0,923.0 L 933.0,963.0"/>
  </g>
</svg>
