<svg xmlns="http://www.w3.org/2000/svg" viewBox="0 0 1024 1024">
  <g style="fill:none;stroke:#000000;stroke-width:50;stroke-linecap:round;stroke-linejoin:round;" transform="scale(1, 1) translate(0, 0)">
    <path d="M 128.0,319.0 L 140.0,325.0 L 179.0,326.0 L 393.0,271.0 L 436.0,269.0"/>
    <path d="M 175.0,355.0 L 205.0,374.0 L 208.0,404.0 L 205.0,732.0 L 188.0,747.0"/>
    <path d="M 346.0,308.0 L 365.0,323.0 L 372.0,348.0 L 374.0,976.0"/>
    <path d="M 235.0,481.0 L 254.0,465.0 L 281.0,457.0 L 330.0,458.0"/>
    <path d="M 231.0,601.0 L 242.0,588.0 L 275.0,577.0 L 326.0,578.0"/>
    <path d="M 84.0,795.0 L 138.0,809.0 L 333.0,730.0 L 417.0,689.0"/>
    <path d="M 454.0,324.0 L 480.0,343.0 L 496.0,369.0 L 520.0,502.0 L 541.0,560.0"/>
    <path d="M 504.0,331.0 L 526.0,339.0 L 730.0,295.0 L 772.0,293.0 L 804.0,300.0 L 826.0,331.0 L 793.0,462.0 L 775.0,502.0 L 749.0,489.0"/>
    <path d="M 560.0,428.0 L 678.0,401.0 L 720.0,405.0"/>
    <path d="M 603.0,180.0 L 635.0,202.0 L 647.0,221.0 L 645.0,474.0 L 629.0,498.0"/>
    <path d="M 560.0,540.0 L 565.0,532.0 L 718.0,502.0 L 739.0,514.0"/>
    <path d="M 420.0,644.0 L 465.0,650.0 L 625.0,617.0 L 858.0,584.0 L 932.0,598.0"/>
    <path d="M 575.0,647.0 L 604.0,671.0 L 565.0,767.0 L 610.0,771.0 L 742.0,745.0 L 769.0,755.0 L 789.0,774.0 L 785.0,839.0 L 771.0,907.0 L 749.0,965.0 L 722.0,1009.0 L 689.0,1034.0 L 596.0,976.0"/>
  </g>
</svg>
