<svg xmlns="http://www.w3.org/2000/svg" viewBox="0 0 1024 1024">
  <g style="fill:none;stroke:#000000;stroke-width:50;stroke-linecap:round;stroke-linejoin:round;" transform="scale(1, 1) translate(0, 0)">
    <path d="M 125.0,314.0 L 158.0,322.0 L 202.0,320.0 L 410.0,279.0 L 453.0,281.0"/>
    <path d="M 172.0,343.0 L 202.0,364.0 L 210.0,384.0 L 209.0,735.0 L 190.0,751.0"/>
    <path d="M 334.0,320.0 L 367.0,353.0 L 363.0,675.0 L 349.0,933.0 L 363.0,1022.0"/>
    <path d="M 240.0,498.0 L 246.0,487.0 L 262.0,481.0 L 316.0,481.0"/>
    <path d="M 238.0,614.0 L 244.0,603.0 L 261.0,596.0 L 292.0,593.0 L 317.0,598.0"/>
    <path d="M 59.0,817.0 L 112.0,829.0 L 404.0,687.0"/>
    <path d="M 528.0,198.0 L 550.0,220.0 L 555.0,244.0 L 465.0,421.0 L 460.0,444.0 L 489.0,446.0 L 539.0,438.0 L 558.0,426.0"/>
    <path d="M 607.0,328.0 L 624.0,359.0 L 581.0,433.0 L 487.0,563.0 L 483.0,593.0 L 515.0,595.0 L 552.0,580.0 L 596.0,572.0"/>
    <path d="M 591.0,519.0 L 631.0,582.0"/>
    <path d="M 767.0,178.0 L 789.0,217.0 L 698.0,394.0 L 693.0,417.0 L 761.0,415.0 L 792.0,403.0"/>
    <path d="M 848.0,300.0 L 865.0,333.0 L 817.0,409.0 L 716.0,534.0 L 708.0,562.0 L 733.0,564.0 L 839.0,538.0 L 846.0,545.0"/>
    <path d="M 830.0,482.0 L 879.0,535.0 L 893.0,575.0"/>
    <path d="M 465.0,672.0 L 482.0,711.0 L 471.0,807.0 L 492.0,811.0 L 547.0,793.0 L 569.0,777.0"/>
    <path d="M 573.0,652.0 L 604.0,679.0 L 600.0,749.0 L 574.0,862.0 L 550.0,913.0 L 515.0,956.0 L 437.0,1013.0"/>
    <path d="M 694.0,633.0 L 714.0,651.0 L 724.0,681.0 L 713.0,999.0 L 725.0,1076.0"/>
    <path d="M 851.0,622.0 L 877.0,661.0 L 856.0,735.0 L 841.0,743.0"/>
    <path d="M 746.0,798.0 L 762.0,787.0 L 819.0,774.0 L 857.0,775.0 L 884.0,783.0"/>
  </g>
</svg>
