<svg xmlns="http://www.w3.org/2000/svg" viewBox="0 0 1024 1024">
  <g style="fill:none;stroke:#000000;stroke-width:50;stroke-linecap:round;stroke-linejoin:round;" transform="scale(1, 1) translate(0, 0)">
    <path d="M 130.0,313.0 L 160.0,321.0 L 204.0,317.0 L 399.0,279.0 L 448.0,279.0"/>
    <path d="M 171.0,341.0 L 200.0,365.0 L 209.0,392.0 L 205.0,717.0 L 190.0,741.0"/>
    <path d="M 335.0,316.0 L 359.0,341.0 L 362.0,386.0 L 362.0,996.0"/>
    <path d="M 239.0,484.0 L 244.0,473.0 L 262.0,464.0 L 313.0,460.0"/>
    <path d="M 237.0,593.0 L 244.0,582.0 L 291.0,570.0 L 321.0,573.0"/>
    <path d="M 67.0,786.0 L 78.0,793.0 L 123.0,800.0 L 421.0,669.0"/>
    <path d="M 456.0,316.0 L 484.0,337.0 L 516.0,454.0"/>
    <path d="M 511.0,321.0 L 522.0,328.0 L 596.0,318.0 L 747.0,284.0 L 765.0,291.0 L 782.0,316.0 L 765.0,352.0 L 742.0,368.0"/>
    <path d="M 533.0,422.0 L 542.0,430.0 L 742.0,396.0 L 780.0,394.0 L 799.0,402.0"/>
    <path d="M 596.0,186.0 L 637.0,220.0 L 630.0,458.0 L 615.0,479.0"/>
    <path d="M 391.0,525.0 L 425.0,532.0 L 575.0,505.0 L 853.0,470.0 L 922.0,485.0"/>
    <path d="M 497.0,574.0 L 511.0,586.0 L 526.0,613.0 L 528.0,701.0 L 514.0,823.0 L 516.0,877.0"/>
    <path d="M 545.0,586.0 L 558.0,593.0 L 716.0,559.0 L 736.0,563.0 L 761.0,588.0 L 766.0,804.0 L 758.0,870.0"/>
    <path d="M 588.0,661.0 L 630.0,688.0 L 638.0,703.0 L 632.0,822.0 L 611.0,909.0 L 589.0,950.0 L 558.0,985.0 L 467.0,1034.0 L 423.0,1046.0"/>
    <path d="M 702.0,904.0 L 813.0,992.0 L 834.0,1027.0 L 838.0,1047.0"/>
  </g>
</svg>
