<svg xmlns="http://www.w3.org/2000/svg" viewBox="0 0 1024 1024">
  <g style="fill:none;stroke:#000000;stroke-width:50;stroke-linecap:round;stroke-linejoin:round;" transform="scale(1, 1) translate(0, 0)">
    <path d="M 109.0,362.0 L 150.0,368.0 L 186.0,364.0 L 348.0,323.0 L 405.0,321.0"/>
    <path d="M 150.0,394.0 L 181.0,415.0 L 184.0,451.0 L 181.0,771.0 L 164.0,785.0"/>
    <path d="M 301.0,362.0 L 326.0,381.0 L 331.0,394.0 L 331.0,718.0 L 321.0,962.0 L 334.0,1035.0"/>
    <path d="M 210.0,530.0 L 230.0,516.0 L 260.0,512.0 L 281.0,517.0"/>
    <path d="M 208.0,655.0 L 217.0,643.0 L 229.0,640.0 L 260.0,636.0 L 281.0,641.0"/>
    <path d="M 88.0,830.0 L 127.0,839.0 L 149.0,835.0 L 376.0,728.0"/>
    <path d="M 475.0,234.0 L 522.0,269.0 L 543.0,299.0"/>
    <path d="M 415.0,402.0 L 451.0,403.0 L 585.0,366.0 L 626.0,363.0"/>
    <path d="M 432.0,451.0 L 463.0,511.0"/>
    <path d="M 563.0,398.0 L 578.0,408.0 L 589.0,426.0 L 558.0,515.0 L 543.0,535.0"/>
    <path d="M 392.0,585.0 L 427.0,588.0 L 607.0,540.0 L 763.0,510.0 L 836.0,518.0"/>
    <path d="M 408.0,653.0 L 430.0,684.0 L 432.0,839.0 L 427.0,891.0 L 433.0,917.0"/>
    <path d="M 454.0,677.0 L 467.0,666.0 L 508.0,650.0 L 564.0,639.0 L 581.0,644.0 L 595.0,660.0 L 599.0,848.0 L 591.0,894.0 L 602.0,954.0"/>
    <path d="M 453.0,780.0 L 464.0,770.0 L 500.0,761.0 L 541.0,764.0"/>
    <path d="M 452.0,900.0 L 467.0,888.0 L 486.0,883.0 L 551.0,879.0"/>
    <path d="M 637.0,231.0 L 658.0,240.0 L 691.0,274.0 L 689.0,444.0 L 701.0,584.0 L 725.0,722.0 L 749.0,803.0 L 813.0,930.0 L 851.0,975.0 L 888.0,998.0 L 903.0,997.0 L 912.0,983.0 L 943.0,848.0"/>
    <path d="M 822.0,580.0 L 844.0,619.0 L 820.0,663.0 L 733.0,774.0 L 653.0,832.0"/>
    <path d="M 768.0,254.0 L 850.0,306.0 L 871.0,342.0"/>
  </g>
</svg>
