<svg xmlns="http://www.w3.org/2000/svg" viewBox="0 0 1024 1024">
  <g style="fill:none;stroke:#000000;stroke-width:50;stroke-linecap:round;stroke-linejoin:round;" transform="scale(1, 1) translate(0, 0)">
    <path d="M 224.0,299.0 L 302.0,299.0 L 467.0,257.0 L 503.0,259.0"/>
    <path d="M 335.0,173.0 L 371.0,206.0 L 362.0,341.0 L 346.0,360.0"/>
    <path d="M 255.0,401.0 L 436.0,364.0 L 464.0,368.0"/>
    <path d="M 265.0,460.0 L 275.0,467.0 L 416.0,430.0 L 450.0,428.0 L 477.0,453.0 L 461.0,499.0 L 442.0,509.0"/>
    <path d="M 336.0,467.0 L 354.0,485.0 L 351.0,519.0 L 335.0,534.0"/>
    <path d="M 256.0,584.0 L 280.0,571.0 L 427.0,539.0 L 487.0,542.0"/>
    <path d="M 203.0,453.0 L 224.0,466.0 L 236.0,483.0 L 233.0,566.0 L 212.0,668.0 L 194.0,706.0 L 147.0,767.0 L 79.0,817.0"/>
    <path d="M 569.0,195.0 L 585.0,206.0 L 594.0,226.0 L 590.0,292.0 L 567.0,341.0 L 527.0,378.0"/>
    <path d="M 608.0,192.0 L 627.0,202.0 L 686.0,184.0 L 714.0,187.0 L 724.0,200.0 L 707.0,279.0 L 709.0,301.0 L 718.0,313.0 L 744.0,325.0 L 775.0,327.0 L 823.0,318.0 L 852.0,325.0"/>
    <path d="M 577.0,403.0 L 599.0,406.0 L 638.0,400.0 L 680.0,385.0 L 712.0,389.0 L 726.0,397.0 L 694.0,476.0 L 650.0,526.0 L 599.0,554.0 L 536.0,568.0"/>
    <path d="M 567.0,450.0 L 600.0,464.0 L 720.0,557.0 L 806.0,603.0 L 824.0,607.0 L 932.0,599.0"/>
    <path d="M 308.0,647.0 L 345.0,656.0 L 641.0,610.0 L 695.0,618.0"/>
    <path d="M 371.0,677.0 L 397.0,698.0 L 401.0,708.0 L 401.0,852.0 L 387.0,867.0"/>
    <path d="M 576.0,651.0 L 614.0,675.0 L 611.0,1112.0"/>
    <path d="M 429.0,738.0 L 442.0,727.0 L 483.0,718.0 L 516.0,715.0 L 536.0,720.0"/>
    <path d="M 428.0,814.0 L 485.0,794.0 L 520.0,791.0 L 540.0,796.0"/>
    <path d="M 182.0,903.0 L 234.0,914.0 L 518.0,881.0 L 761.0,865.0 L 802.0,867.0 L 867.0,886.0"/>
  </g>
</svg>
