<svg xmlns="http://www.w3.org/2000/svg" viewBox="0 0 1024 1024">
  <g style="fill:none;stroke:#000000;stroke-width:50;stroke-linecap:round;stroke-linejoin:round;" transform="scale(1, 1) translate(0, 0)">
    <path d="M 131.0,300.0 L 169.0,306.0 L 385.0,266.0 L 451.0,268.0"/>
    <path d="M 178.0,332.0 L 203.0,345.0 L 209.0,368.0 L 205.0,596.0 L 189.0,608.0"/>
    <path d="M 323.0,303.0 L 363.0,326.0 L 363.0,578.0 L 358.0,613.0 L 357.0,824.0 L 347.0,948.0 L 349.0,1018.0"/>
    <path d="M 237.0,437.0 L 243.0,426.0 L 258.0,419.0 L 300.0,420.0"/>
    <path d="M 234.0,529.0 L 252.0,511.0 L 280.0,508.0 L 301.0,513.0"/>
    <path d="M 78.0,653.0 L 128.0,665.0 L 303.0,606.0 L 330.0,595.0 L 336.0,583.0"/>
    <path d="M 133.0,741.0 L 185.0,739.0 L 262.0,711.0 L 292.0,709.0"/>
    <path d="M 95.0,834.0 L 189.0,816.0 L 265.0,792.0 L 310.0,791.0"/>
    <path d="M 205.0,754.0 L 222.0,776.0 L 218.0,861.0 L 213.0,879.0 L 203.0,888.0"/>
    <path d="M 80.0,942.0 L 120.0,948.0 L 293.0,871.0"/>
    <path d="M 485.0,357.0 L 507.0,363.0 L 544.0,362.0 L 742.0,319.0 L 781.0,319.0"/>
    <path d="M 606.0,187.0 L 640.0,228.0 L 599.0,446.0 L 581.0,464.0"/>
    <path d="M 424.0,493.0 L 447.0,509.0 L 458.0,529.0 L 496.0,662.0"/>
    <path d="M 467.0,492.0 L 488.0,501.0 L 754.0,451.0 L 802.0,455.0 L 826.0,473.0 L 831.0,496.0 L 791.0,610.0 L 785.0,613.0 L 757.0,603.0"/>
    <path d="M 573.0,508.0 L 577.0,551.0 L 591.0,603.0 L 598.0,608.0"/>
    <path d="M 668.0,484.0 L 690.0,507.0 L 669.0,584.0 L 656.0,601.0"/>
    <path d="M 512.0,650.0 L 528.0,641.0 L 717.0,610.0 L 736.0,610.0 L 752.0,619.0"/>
    <path d="M 497.0,725.0 L 555.0,731.0 L 723.0,695.0 L 771.0,694.0"/>
    <path d="M 457.0,802.0 L 447.0,855.0 L 415.0,936.0"/>
    <path d="M 515.0,813.0 L 549.0,894.0 L 588.0,937.0 L 634.0,962.0 L 716.0,983.0 L 796.0,986.0 L 837.0,967.0 L 782.0,854.0"/>
    <path d="M 618.0,778.0 L 669.0,823.0 L 681.0,848.0"/>
    <path d="M 801.0,743.0 L 887.0,804.0 L 911.0,855.0"/>
  </g>
</svg>
