<svg xmlns="http://www.w3.org/2000/svg" viewBox="0 0 1024 1024">
  <g style="fill:none;stroke:#000000;stroke-width:50;stroke-linecap:round;stroke-linejoin:round;" transform="scale(1, 1) translate(0, 0)">
    <path d="M 425.0,275.0 L 383.0,273.0 L 342.0,306.0 L 276.0,339.0 L 259.0,341.0 L 250.0,353.0"/>
    <path d="M 203.0,223.0 L 234.0,262.0 L 225.0,355.0 L 229.0,387.0 L 242.0,425.0 L 258.0,435.0 L 333.0,443.0 L 395.0,436.0 L 436.0,419.0 L 443.0,371.0 L 442.0,317.0"/>
    <path d="M 218.0,492.0 L 238.0,519.0 L 224.0,557.0 L 188.0,616.0 L 148.0,650.0"/>
    <path d="M 238.0,583.0 L 371.0,554.0 L 420.0,551.0"/>
    <path d="M 96.0,732.0 L 123.0,739.0 L 153.0,737.0 L 388.0,683.0 L 448.0,683.0"/>
    <path d="M 288.0,597.0 L 319.0,623.0 L 302.0,727.0 L 275.0,800.0 L 252.0,836.0 L 197.0,895.0 L 125.0,937.0"/>
    <path d="M 332.0,783.0 L 391.0,829.0 L 411.0,869.0"/>
    <path d="M 529.0,353.0 L 564.0,357.0 L 629.0,349.0 L 759.0,321.0 L 792.0,328.0 L 817.0,358.0 L 778.0,499.0 L 754.0,516.0"/>
    <path d="M 460.0,473.0 L 510.0,478.0 L 714.0,440.0 L 876.0,420.0 L 909.0,420.0 L 961.0,433.0"/>
    <path d="M 512.0,575.0 L 550.0,578.0 L 754.0,542.0 L 796.0,540.0 L 819.0,549.0"/>
    <path d="M 523.0,676.0 L 569.0,681.0 L 743.0,649.0 L 791.0,652.0"/>
    <path d="M 458.0,804.0 L 495.0,810.0 L 522.0,807.0 L 603.0,789.0 L 810.0,759.0 L 891.0,773.0"/>
    <path d="M 599.0,194.0 L 623.0,200.0 L 656.0,235.0 L 646.0,524.0 L 643.0,1063.0"/>
  </g>
</svg>
