<svg xmlns="http://www.w3.org/2000/svg" viewBox="0 0 1024 1024">
  <g style="fill:none;stroke:#000000;stroke-width:50;stroke-linecap:round;stroke-linejoin:round;" transform="scale(1, 1) translate(0, 0)">
    <path d="M 218.0,379.0 L 243.0,403.0 L 254.0,426.0 L 260.0,499.0 L 253.0,714.0 L 239.0,847.0 L 224.0,917.0 L 223.0,974.0"/>
    <path d="M 283.0,399.0 L 309.0,413.0 L 716.0,349.0 L 737.0,352.0 L 772.0,382.0 L 785.0,835.0 L 781.0,949.0 L 764.0,988.0 L 729.0,982.0 L 642.0,949.0"/>
    <path d="M 469.0,195.0 L 489.0,204.0 L 519.0,236.0 L 509.0,350.0 L 487.0,444.0 L 473.0,479.0 L 434.0,536.0 L 385.0,577.0 L 336.0,601.0"/>
    <path d="M 508.0,479.0 L 516.0,476.0 L 552.0,495.0 L 613.0,535.0 L 634.0,556.0 L 643.0,576.0"/>
    <path d="M 475.0,591.0 L 495.0,628.0 L 458.0,698.0 L 423.0,744.0 L 379.0,786.0 L 331.0,819.0"/>
    <path d="M 488.0,703.0 L 501.0,700.0 L 592.0,758.0 L 620.0,784.0 L 639.0,818.0"/>
  </g>
</svg>
