<svg xmlns="http://www.w3.org/2000/svg" viewBox="0 0 1024 1024">
  <g style="fill:none;stroke:#000000;stroke-width:50;stroke-linecap:round;stroke-linejoin:round;" transform="scale(1, 1) translate(0, 0)">
    <path d="M 140.0,286.0 L 174.0,314.0 L 183.0,341.0 L 185.0,526.0 L 175.0,634.0 L 157.0,727.0 L 121.0,833.0 L 85.0,904.0 L 50.0,954.0"/>
    <path d="M 205.0,293.0 L 216.0,301.0 L 234.0,301.0 L 315.0,275.0 L 343.0,288.0 L 357.0,306.0 L 363.0,795.0 L 358.0,894.0 L 339.0,925.0 L 312.0,918.0 L 241.0,880.0"/>
    <path d="M 217.0,514.0 L 226.0,501.0 L 240.0,495.0 L 265.0,492.0 L 299.0,499.0"/>
    <path d="M 192.0,674.0 L 214.0,659.0 L 237.0,655.0 L 266.0,653.0 L 291.0,659.0"/>
    <path d="M 478.0,449.0 L 488.0,454.0 L 548.0,455.0 L 758.0,408.0 L 803.0,408.0"/>
    <path d="M 583.0,480.0 L 633.0,512.0 L 618.0,694.0 L 609.0,736.0 L 595.0,748.0"/>
    <path d="M 410.0,787.0 L 461.0,796.0 L 628.0,771.0 L 861.0,747.0 L 894.0,750.0 L 943.0,767.0"/>
  </g>
</svg>
