<svg xmlns="http://www.w3.org/2000/svg" viewBox="0 0 1024 1024">
  <g style="fill:none;stroke:#000000;stroke-width:50;stroke-linecap:round;stroke-linejoin:round;" transform="scale(1, 1) translate(0, 0)">
    <path d="M 169.0,311.0 L 201.0,338.0 L 209.0,360.0 L 211.0,487.0 L 195.0,695.0 L 179.0,765.0 L 148.0,856.0 L 106.0,944.0 L 59.0,1017.0"/>
    <path d="M 241.0,324.0 L 252.0,334.0 L 333.0,309.0 L 360.0,323.0 L 373.0,342.0 L 371.0,840.0 L 366.0,911.0 L 347.0,942.0 L 247.0,908.0"/>
    <path d="M 239.0,503.0 L 253.0,491.0 L 316.0,489.0"/>
    <path d="M 229.0,666.0 L 243.0,650.0 L 259.0,646.0 L 285.0,641.0 L 317.0,646.0"/>
    <path d="M 434.0,510.0 L 485.0,519.0 L 801.0,449.0 L 873.0,453.0"/>
    <path d="M 603.0,242.0 L 635.0,265.0 L 652.0,289.0 L 597.0,552.0 L 547.0,683.0 L 515.0,748.0 L 476.0,808.0 L 412.0,876.0 L 407.0,889.0"/>
    <path d="M 650.0,651.0 L 681.0,688.0 L 676.0,705.0 L 639.0,786.0 L 573.0,892.0 L 557.0,940.0 L 583.0,943.0 L 611.0,937.0 L 782.0,889.0 L 792.0,897.0"/>
    <path d="M 759.0,788.0 L 826.0,878.0 L 868.0,947.0 L 881.0,980.0 L 881.0,1021.0"/>
  </g>
</svg>
