<svg xmlns="http://www.w3.org/2000/svg" viewBox="0 0 1024 1024">
  <g style="fill:none;stroke:#000000;stroke-width:50;stroke-linecap:round;stroke-linejoin:round;" transform="scale(1, 1) translate(0, 0)">
    <path d="M 475.0,181.0 L 516.0,213.0 L 524.0,230.0 L 516.0,445.0 L 500.0,464.0"/>
    <path d="M 561.0,331.0 L 568.0,325.0 L 618.0,322.0 L 709.0,301.0 L 749.0,302.0"/>
    <path d="M 297.0,311.0 L 345.0,355.0 L 360.0,468.0 L 376.0,476.0"/>
    <path d="M 90.0,530.0 L 142.0,541.0 L 457.0,494.0 L 816.0,455.0 L 859.0,455.0 L 929.0,473.0"/>
    <path d="M 331.0,589.0 L 364.0,621.0 L 369.0,718.0 L 354.0,878.0 L 328.0,984.0 L 326.0,1039.0"/>
    <path d="M 401.0,608.0 L 410.0,614.0 L 439.0,611.0 L 560.0,583.0 L 610.0,579.0 L 639.0,595.0 L 652.0,610.0 L 648.0,669.0 L 664.0,935.0 L 658.0,996.0 L 634.0,1035.0 L 598.0,1025.0 L 543.0,997.0"/>
    <path d="M 395.0,708.0 L 410.0,715.0 L 452.0,713.0 L 518.0,698.0 L 565.0,698.0"/>
    <path d="M 388.0,838.0 L 399.0,831.0 L 452.0,828.0 L 533.0,812.0 L 572.0,815.0"/>
  </g>
</svg>
