<svg xmlns="http://www.w3.org/2000/svg" viewBox="0 0 1024 1024">
  <g style="fill:none;stroke:#000000;stroke-width:50;stroke-linecap:round;stroke-linejoin:round;" transform="scale(1, 1) translate(0, 0)">
    <path d="M 161.0,311.0 L 195.0,340.0 L 202.0,372.0 L 204.0,524.0 L 189.0,684.0 L 169.0,769.0 L 138.0,855.0 L 63.0,985.0"/>
    <path d="M 227.0,320.0 L 239.0,328.0 L 254.0,326.0 L 299.0,306.0 L 328.0,301.0 L 350.0,312.0 L 364.0,334.0 L 370.0,732.0 L 366.0,918.0 L 348.0,951.0 L 317.0,944.0 L 239.0,907.0"/>
    <path d="M 235.0,524.0 L 256.0,504.0 L 304.0,507.0"/>
    <path d="M 219.0,673.0 L 237.0,655.0 L 259.0,650.0 L 304.0,655.0"/>
    <path d="M 554.0,235.0 L 640.0,277.0 L 674.0,313.0"/>
    <path d="M 442.0,459.0 L 464.0,466.0 L 530.0,462.0 L 809.0,396.0 L 860.0,396.0"/>
    <path d="M 518.0,586.0 L 543.0,604.0 L 553.0,634.0 L 549.0,715.0 L 537.0,782.0 L 514.0,846.0 L 497.0,874.0 L 469.0,906.0 L 423.0,936.0"/>
    <path d="M 571.0,589.0 L 595.0,598.0 L 667.0,576.0 L 691.0,575.0 L 719.0,596.0 L 696.0,708.0 L 699.0,811.0 L 724.0,890.0 L 745.0,918.0 L 776.0,942.0 L 801.0,950.0 L 847.0,953.0 L 885.0,948.0 L 919.0,932.0 L 911.0,800.0 L 915.0,780.0"/>
  </g>
</svg>
