<svg xmlns="http://www.w3.org/2000/svg" viewBox="0 0 1024 1024">
  <g style="fill:none;stroke:#000000;stroke-width:50;stroke-linecap:round;stroke-linejoin:round;" transform="scale(1, 1) translate(0, 0)">
    <path d="M 433.0,182.0 L 512.0,215.0 L 547.0,251.0"/>
    <path d="M 149.0,379.0 L 200.0,388.0 L 486.0,341.0 L 784.0,309.0 L 843.0,314.0 L 880.0,326.0"/>
    <path d="M 489.0,374.0 L 453.0,389.0 L 358.0,500.0 L 350.0,526.0 L 379.0,528.0 L 585.0,477.0 L 630.0,469.0 L 636.0,474.0"/>
    <path d="M 606.0,408.0 L 710.0,486.0 L 731.0,520.0 L 736.0,545.0"/>
    <path d="M 347.0,617.0 L 376.0,644.0 L 382.0,726.0 L 365.0,900.0 L 349.0,968.0 L 343.0,1031.0"/>
    <path d="M 407.0,633.0 L 438.0,638.0 L 604.0,604.0 L 644.0,634.0 L 644.0,724.0 L 663.0,935.0 L 660.0,993.0 L 637.0,1033.0 L 595.0,1022.0 L 542.0,997.0"/>
    <path d="M 405.0,756.0 L 536.0,729.0 L 565.0,730.0"/>
    <path d="M 397.0,875.0 L 411.0,866.0 L 509.0,849.0 L 575.0,846.0"/>
  </g>
</svg>
