<svg xmlns="http://www.w3.org/2000/svg" viewBox="0 0 1024 1024">
  <g style="fill:none;stroke:#000000;stroke-width:50;stroke-linecap:round;stroke-linejoin:round;" transform="scale(1, 1) translate(0, 0)">
    <path d="M 167.0,290.0 L 203.0,327.0 L 207.0,379.0 L 204.0,521.0 L 188.0,668.0 L 147.0,808.0 L 105.0,895.0 L 60.0,965.0"/>
    <path d="M 232.0,299.0 L 247.0,308.0 L 336.0,283.0 L 363.0,299.0 L 373.0,312.0 L 372.0,571.0 L 379.0,795.0 L 373.0,887.0 L 355.0,925.0 L 259.0,891.0"/>
    <path d="M 236.0,504.0 L 246.0,492.0 L 291.0,481.0 L 321.0,485.0"/>
    <path d="M 219.0,657.0 L 223.0,648.0 L 242.0,637.0 L 291.0,629.0 L 312.0,633.0"/>
    <path d="M 447.0,485.0 L 468.0,501.0 L 482.0,528.0 L 524.0,714.0"/>
    <path d="M 493.0,487.0 L 517.0,498.0 L 530.0,497.0 L 628.0,475.0 L 798.0,449.0 L 843.0,450.0 L 873.0,484.0 L 839.0,590.0 L 815.0,599.0"/>
    <path d="M 542.0,681.0 L 557.0,667.0 L 795.0,636.0 L 846.0,638.0 L 871.0,646.0"/>
    <path d="M 619.0,236.0 L 645.0,242.0 L 681.0,277.0 L 672.0,430.0 L 667.0,1046.0"/>
  </g>
</svg>
