<svg xmlns="http://www.w3.org/2000/svg" viewBox="0 0 1024 1024">
  <g style="fill:none;stroke:#000000;stroke-width:50;stroke-linecap:round;stroke-linejoin:round;" transform="scale(1, 1) translate(0, 0)">
    <path d="M 172.0,300.0 L 209.0,330.0 L 214.0,348.0 L 219.0,536.0 L 213.0,614.0 L 195.0,725.0 L 157.0,844.0 L 113.0,929.0 L 86.0,966.0"/>
    <path d="M 243.0,310.0 L 258.0,320.0 L 348.0,290.0 L 374.0,305.0 L 388.0,327.0 L 386.0,789.0 L 379.0,899.0 L 360.0,933.0 L 332.0,926.0 L 257.0,888.0"/>
    <path d="M 251.0,508.0 L 259.0,495.0 L 273.0,488.0 L 320.0,491.0"/>
    <path d="M 237.0,657.0 L 262.0,637.0 L 294.0,634.0 L 319.0,639.0"/>
    <path d="M 548.0,233.0 L 577.0,253.0 L 591.0,274.0 L 578.0,335.0 L 516.0,501.0 L 480.0,568.0 L 459.0,594.0"/>
    <path d="M 548.0,498.0 L 724.0,451.0 L 765.0,443.0 L 785.0,446.0 L 801.0,460.0 L 807.0,475.0 L 784.0,505.0 L 721.0,564.0"/>
    <path d="M 589.0,568.0 L 602.0,574.0 L 629.0,604.0 L 613.0,728.0 L 596.0,788.0 L 570.0,841.0 L 525.0,898.0 L 474.0,942.0 L 429.0,966.0"/>
    <path d="M 649.0,702.0 L 657.0,735.0 L 675.0,762.0 L 741.0,849.0 L 808.0,921.0 L 836.0,936.0 L 965.0,971.0"/>
  </g>
</svg>
