<svg xmlns="http://www.w3.org/2000/svg" viewBox="0 0 1024 1024">
  <g style="fill:none;stroke:#000000;stroke-width:50;stroke-linecap:round;stroke-linejoin:round;" transform="scale(1, 1) translate(0, 0)">
    <path d="M 169.0,314.0 L 203.0,346.0 L 209.0,373.0 L 206.0,552.0 L 191.0,689.0 L 169.0,775.0 L 136.0,860.0 L 112.0,909.0 L 60.0,989.0"/>
    <path d="M 238.0,326.0 L 251.0,335.0 L 338.0,307.0 L 363.0,320.0 L 377.0,337.0 L 376.0,510.0 L 386.0,818.0 L 382.0,930.0 L 366.0,963.0 L 251.0,927.0"/>
    <path d="M 240.0,538.0 L 251.0,522.0 L 265.0,518.0 L 306.0,512.0 L 328.0,518.0"/>
    <path d="M 217.0,678.0 L 227.0,676.0 L 233.0,667.0 L 263.0,661.0 L 296.0,658.0 L 327.0,665.0"/>
    <path d="M 476.0,427.0 L 501.0,451.0 L 510.0,472.0 L 548.0,736.0"/>
    <path d="M 535.0,459.0 L 546.0,442.0 L 742.0,401.0 L 793.0,403.0 L 820.0,422.0 L 831.0,438.0 L 795.0,651.0 L 780.0,693.0 L 755.0,697.0"/>
    <path d="M 560.0,580.0 L 567.0,574.0 L 670.0,555.0 L 699.0,552.0 L 723.0,559.0"/>
    <path d="M 569.0,708.0 L 582.0,697.0 L 742.0,677.0"/>
    <path d="M 455.0,871.0 L 510.0,881.0 L 581.0,869.0 L 841.0,844.0 L 898.0,852.0 L 934.0,865.0"/>
  </g>
</svg>
