<svg xmlns="http://www.w3.org/2000/svg" viewBox="0 0 1024 1024">
  <g style="fill:none;stroke:#000000;stroke-width:50;stroke-linecap:round;stroke-linejoin:round;" transform="scale(1, 1) translate(0, 0)">
    <path d="M 184.0,306.0 L 215.0,334.0 L 221.0,362.0 L 220.0,509.0 L 207.0,648.0 L 192.0,720.0 L 147.0,849.0 L 74.0,968.0"/>
    <path d="M 250.0,341.0 L 260.0,327.0 L 337.0,302.0 L 354.0,309.0 L 377.0,332.0 L 374.0,444.0 L 382.0,866.0 L 377.0,918.0 L 360.0,947.0 L 328.0,939.0 L 250.0,898.0"/>
    <path d="M 250.0,535.0 L 256.0,523.0 L 269.0,516.0 L 320.0,517.0"/>
    <path d="M 227.0,687.0 L 248.0,666.0 L 299.0,660.0 L 320.0,666.0"/>
    <path d="M 747.0,278.0 L 766.0,299.0 L 773.0,320.0 L 745.0,369.0 L 682.0,453.0 L 620.0,508.0"/>
    <path d="M 448.0,628.0 L 471.0,633.0 L 504.0,630.0 L 673.0,594.0 L 819.0,572.0 L 863.0,573.0 L 908.0,584.0"/>
    <path d="M 500.0,257.0 L 516.0,263.0 L 548.0,294.0 L 558.0,553.0 L 553.0,803.0 L 544.0,906.0 L 551.0,954.0 L 575.0,949.0 L 604.0,929.0 L 708.0,838.0"/>
    <path d="M 618.0,629.0 L 655.0,649.0 L 666.0,671.0 L 729.0,750.0 L 835.0,859.0 L 958.0,888.0"/>
  </g>
</svg>
