<svg xmlns="http://www.w3.org/2000/svg" viewBox="0 0 1024 1024">
  <g style="fill:none;stroke:#000000;stroke-width:50;stroke-linecap:round;stroke-linejoin:round;" transform="scale(1, 1) translate(0, 0)">
    <path d="M 375.0,232.0 L 400.0,253.0 L 413.0,273.0 L 420.0,361.0 L 419.0,530.0"/>
    <path d="M 205.0,375.0 L 253.0,382.0 L 372.0,358.0 L 392.0,371.0"/>
    <path d="M 141.0,524.0 L 155.0,534.0 L 203.0,538.0 L 380.0,472.0 L 382.0,461.0"/>
    <path d="M 726.0,252.0 L 734.0,292.0 L 584.0,374.0"/>
    <path d="M 543.0,184.0 L 576.0,232.0 L 565.0,292.0 L 560.0,393.0 L 566.0,450.0 L 588.0,481.0 L 630.0,498.0 L 712.0,505.0 L 755.0,503.0 L 820.0,488.0 L 839.0,475.0 L 840.0,369.0"/>
    <path d="M 338.0,597.0 L 368.0,626.0 L 374.0,683.0 L 366.0,821.0 L 338.0,1018.0"/>
    <path d="M 404.0,611.0 L 417.0,618.0 L 436.0,617.0 L 443.0,611.0 L 591.0,585.0 L 619.0,588.0 L 651.0,616.0 L 647.0,690.0 L 660.0,930.0 L 653.0,989.0 L 629.0,1027.0 L 594.0,1016.0 L 542.0,985.0"/>
    <path d="M 400.0,734.0 L 413.0,723.0 L 497.0,706.0 L 529.0,703.0 L 551.0,710.0"/>
    <path d="M 394.0,837.0 L 428.0,823.0 L 485.0,816.0 L 540.0,813.0 L 562.0,821.0"/>
  </g>
</svg>
