<svg xmlns="http://www.w3.org/2000/svg" viewBox="0 0 1024 1024">
  <g style="fill:none;stroke:#000000;stroke-width:50;stroke-linecap:round;stroke-linejoin:round;" transform="scale(1, 1) translate(0, 0)">
    <path d="M 165.0,307.0 L 187.0,322.0 L 206.0,348.0 L 212.0,466.0 L 203.0,630.0 L 184.0,739.0 L 151.0,840.0 L 118.0,912.0 L 75.0,977.0"/>
    <path d="M 227.0,313.0 L 247.0,322.0 L 330.0,298.0 L 356.0,311.0 L 370.0,328.0 L 371.0,890.0 L 366.0,911.0 L 352.0,931.0 L 322.0,924.0 L 259.0,895.0"/>
    <path d="M 243.0,509.0 L 249.0,497.0 L 263.0,489.0 L 316.0,489.0"/>
    <path d="M 228.0,660.0 L 245.0,641.0 L 277.0,635.0 L 312.0,639.0"/>
    <path d="M 783.0,326.0 L 708.0,322.0 L 652.0,367.0 L 535.0,432.0 L 534.0,439.0"/>
    <path d="M 455.0,424.0 L 496.0,456.0 L 501.0,484.0 L 506.0,647.0 L 494.0,807.0 L 498.0,833.0 L 518.0,832.0 L 552.0,818.0 L 647.0,754.0"/>
    <path d="M 558.0,602.0 L 632.0,598.0 L 778.0,547.0 L 826.0,542.0"/>
    <path d="M 632.0,414.0 L 659.0,425.0 L 671.0,444.0 L 673.0,558.0 L 694.0,646.0 L 722.0,720.0 L 791.0,836.0 L 827.0,876.0 L 869.0,906.0 L 900.0,914.0 L 904.0,909.0 L 923.0,861.0 L 941.0,756.0"/>
    <path d="M 605.0,847.0 L 674.0,891.0 L 703.0,931.0"/>
  </g>
</svg>
