<svg xmlns="http://www.w3.org/2000/svg" viewBox="0 0 1024 1024">
  <g style="fill:none;stroke:#000000;stroke-width:50;stroke-linecap:round;stroke-linejoin:round;" transform="scale(1, 1) translate(0, 0)">
    <path d="M 178.0,296.0 L 213.0,325.0 L 220.0,352.0 L 224.0,535.0 L 212.0,677.0 L 187.0,782.0 L 152.0,879.0 L 83.0,1001.0"/>
    <path d="M 246.0,307.0 L 258.0,313.0 L 347.0,283.0 L 363.0,290.0 L 384.0,313.0 L 386.0,750.0 L 379.0,907.0 L 359.0,948.0 L 263.0,911.0"/>
    <path d="M 255.0,507.0 L 260.0,496.0 L 275.0,489.0 L 328.0,489.0"/>
    <path d="M 241.0,667.0 L 256.0,649.0 L 299.0,641.0 L 320.0,645.0"/>
    <path d="M 471.0,380.0 L 525.0,387.0 L 808.0,330.0 L 874.0,334.0"/>
    <path d="M 669.0,388.0 L 694.0,413.0 L 656.0,497.0 L 602.0,584.0 L 521.0,680.0 L 465.0,731.0 L 428.0,759.0 L 420.0,759.0 L 416.0,770.0"/>
    <path d="M 609.0,494.0 L 633.0,516.0 L 644.0,546.0 L 649.0,647.0 L 646.0,712.0 L 632.0,791.0 L 634.0,834.0"/>
    <path d="M 740.0,617.0 L 870.0,682.0 L 896.0,705.0 L 913.0,733.0"/>
    <path d="M 434.0,903.0 L 493.0,912.0 L 641.0,890.0 L 809.0,875.0 L 869.0,879.0 L 914.0,894.0"/>
  </g>
</svg>
