<svg xmlns="http://www.w3.org/2000/svg" viewBox="0 0 1024 1024">
  <g style="fill:none;stroke:#000000;stroke-width:50;stroke-linecap:round;stroke-linejoin:round;" transform="scale(1, 1) translate(0, 0)">
    <path d="M 140.0,311.0 L 170.0,334.0 L 179.0,363.0 L 182.0,517.0 L 170.0,656.0 L 151.0,749.0 L 115.0,849.0 L 75.0,928.0 L 46.0,970.0"/>
    <path d="M 206.0,324.0 L 236.0,326.0 L 289.0,306.0 L 307.0,313.0 L 330.0,336.0 L 337.0,871.0 L 330.0,932.0 L 314.0,957.0 L 203.0,915.0"/>
    <path d="M 211.0,517.0 L 229.0,502.0 L 277.0,500.0"/>
    <path d="M 187.0,688.0 L 202.0,677.0 L 235.0,669.0 L 281.0,673.0"/>
    <path d="M 523.0,193.0 L 546.0,213.0 L 558.0,235.0 L 535.0,297.0 L 465.0,421.0 L 393.0,510.0"/>
    <path d="M 532.0,365.0 L 650.0,326.0 L 695.0,328.0 L 710.0,343.0 L 650.0,481.0 L 580.0,585.0 L 494.0,669.0 L 446.0,703.0 L 373.0,740.0 L 368.0,751.0"/>
    <path d="M 472.0,446.0 L 494.0,447.0 L 509.0,458.0 L 565.0,512.0 L 710.0,632.0 L 809.0,695.0 L 935.0,700.0 L 978.0,695.0"/>
    <path d="M 430.0,778.0 L 457.0,800.0 L 465.0,818.0 L 504.0,1010.0"/>
    <path d="M 488.0,780.0 L 504.0,791.0 L 669.0,757.0 L 707.0,764.0 L 735.0,791.0 L 707.0,895.0 L 682.0,909.0"/>
    <path d="M 520.0,980.0 L 537.0,964.0 L 672.0,942.0 L 720.0,940.0 L 746.0,949.0"/>
  </g>
</svg>
