<svg xmlns="http://www.w3.org/2000/svg" viewBox="0 0 1024 1024">
  <g style="fill:none;stroke:#000000;stroke-width:50;stroke-linecap:round;stroke-linejoin:round;" transform="scale(1, 1) translate(0, 0)">
    <path d="M 151.0,298.0 L 182.0,325.0 L 189.0,346.0 L 187.0,527.0 L 170.0,677.0 L 154.0,742.0 L 128.0,812.0 L 77.0,912.0 L 47.0,954.0"/>
    <path d="M 209.0,302.0 L 219.0,309.0 L 239.0,310.0 L 309.0,289.0 L 327.0,297.0 L 350.0,321.0 L 346.0,914.0 L 327.0,945.0 L 237.0,903.0"/>
    <path d="M 220.0,499.0 L 238.0,483.0 L 267.0,480.0 L 288.0,486.0"/>
    <path d="M 200.0,668.0 L 207.0,657.0 L 229.0,649.0 L 265.0,647.0 L 287.0,654.0"/>
    <path d="M 438.0,339.0 L 468.0,370.0 L 474.0,384.0 L 480.0,441.0 L 471.0,722.0 L 448.0,875.0 L 447.0,938.0"/>
    <path d="M 493.0,352.0 L 529.0,361.0 L 763.0,309.0 L 804.0,315.0 L 836.0,346.0 L 833.0,394.0 L 852.0,856.0 L 848.0,905.0 L 832.0,944.0 L 774.0,934.0 L 721.0,911.0 L 702.0,909.0"/>
    <path d="M 560.0,489.0 L 617.0,492.0 L 702.0,472.0 L 744.0,471.0"/>
    <path d="M 537.0,606.0 L 565.0,637.0 L 589.0,779.0"/>
    <path d="M 588.0,630.0 L 598.0,619.0 L 615.0,614.0 L 677.0,599.0 L 706.0,601.0 L 725.0,620.0 L 707.0,690.0 L 689.0,703.0"/>
    <path d="M 606.0,751.0 L 616.0,739.0 L 679.0,728.0 L 717.0,728.0 L 739.0,735.0"/>
  </g>
</svg>
