<svg xmlns="http://www.w3.org/2000/svg" viewBox="0 0 1024 1024">
  <g style="fill:none;stroke:#000000;stroke-width:50;stroke-linecap:round;stroke-linejoin:round;" transform="scale(1, 1) translate(0, 0)">
    <path d="M 142.0,303.0 L 177.0,332.0 L 181.0,347.0 L 185.0,452.0 L 177.0,606.0 L 158.0,704.0 L 132.0,785.0 L 80.0,896.0 L 50.0,938.0"/>
    <path d="M 209.0,314.0 L 222.0,319.0 L 297.0,296.0 L 322.0,311.0 L 332.0,328.0 L 324.0,861.0 L 304.0,900.0 L 213.0,853.0"/>
    <path d="M 213.0,525.0 L 220.0,513.0 L 236.0,505.0 L 281.0,505.0"/>
    <path d="M 193.0,677.0 L 210.0,658.0 L 243.0,651.0 L 275.0,654.0"/>
    <path d="M 575.0,194.0 L 594.0,215.0 L 600.0,241.0 L 565.0,299.0 L 516.0,363.0 L 440.0,436.0"/>
    <path d="M 577.0,328.0 L 678.0,305.0 L 706.0,307.0 L 728.0,320.0 L 712.0,352.0 L 640.0,452.0 L 599.0,492.0"/>
    <path d="M 497.0,513.0 L 510.0,522.0 L 573.0,518.0 L 763.0,471.0 L 820.0,467.0"/>
    <path d="M 432.0,496.0 L 451.0,512.0 L 466.0,538.0 L 464.0,646.0 L 442.0,784.0 L 393.0,925.0 L 345.0,1004.0 L 327.0,1023.0"/>
    <path d="M 588.0,621.0 L 604.0,632.0 L 712.0,601.0 L 727.0,601.0 L 746.0,620.0 L 732.0,731.0 L 706.0,780.0 L 690.0,792.0 L 624.0,760.0"/>
    <path d="M 543.0,619.0 L 561.0,638.0 L 569.0,657.0 L 558.0,777.0 L 562.0,901.0 L 578.0,951.0 L 590.0,966.0 L 616.0,982.0 L 648.0,995.0 L 730.0,1005.0 L 818.0,994.0 L 883.0,970.0 L 913.0,942.0 L 924.0,797.0"/>
  </g>
</svg>
