<svg xmlns="http://www.w3.org/2000/svg" viewBox="0 0 1024 1024">
  <g style="fill:none;stroke:#000000;stroke-width:50;stroke-linecap:round;stroke-linejoin:round;" transform="scale(1, 1) translate(0, 0)">
    <path d="M 174.0,303.0 L 207.0,334.0 L 215.0,379.0 L 210.0,537.0 L 193.0,686.0 L 176.0,752.0 L 144.0,838.0 L 98.0,926.0 L 68.0,969.0"/>
    <path d="M 240.0,313.0 L 263.0,319.0 L 330.0,293.0 L 349.0,297.0 L 371.0,320.0 L 373.0,688.0 L 368.0,872.0 L 352.0,918.0 L 331.0,917.0 L 240.0,877.0"/>
    <path d="M 245.0,511.0 L 253.0,498.0 L 270.0,491.0 L 305.0,496.0"/>
    <path d="M 227.0,657.0 L 245.0,639.0 L 304.0,639.0"/>
    <path d="M 711.0,237.0 L 731.0,280.0 L 668.0,375.0 L 579.0,466.0 L 505.0,515.0 L 476.0,527.0"/>
    <path d="M 509.0,332.0 L 727.0,449.0 L 760.0,474.0 L 789.0,516.0"/>
    <path d="M 430.0,656.0 L 483.0,664.0 L 605.0,644.0 L 810.0,622.0 L 844.0,624.0 L 900.0,641.0"/>
    <path d="M 606.0,529.0 L 653.0,577.0 L 648.0,676.0 L 651.0,854.0 L 645.0,922.0 L 629.0,950.0 L 597.0,937.0 L 534.0,892.0"/>
    <path d="M 511.0,745.0 L 492.0,801.0 L 447.0,878.0"/>
    <path d="M 753.0,740.0 L 844.0,814.0 L 862.0,843.0 L 870.0,875.0"/>
  </g>
</svg>
