<svg xmlns="http://www.w3.org/2000/svg" viewBox="0 0 1024 1024">
  <g style="fill:none;stroke:#000000;stroke-width:50;stroke-linecap:round;stroke-linejoin:round;" transform="scale(1, 1) translate(0, 0)">
    <path d="M 240.0,288.0 L 320.0,314.0 L 339.0,325.0 L 358.0,347.0"/>
    <path d="M 204.0,470.0 L 250.0,477.0 L 376.0,406.0"/>
    <path d="M 696.0,228.0 L 704.0,262.0 L 586.0,328.0"/>
    <path d="M 604.0,363.0 L 705.0,407.0 L 727.0,425.0 L 739.0,445.0"/>
    <path d="M 467.0,203.0 L 491.0,226.0 L 503.0,250.0 L 448.0,428.0 L 387.0,545.0 L 337.0,611.0 L 258.0,679.0 L 152.0,736.0 L 97.0,753.0"/>
    <path d="M 501.0,379.0 L 501.0,393.0 L 604.0,500.0 L 717.0,607.0 L 769.0,647.0 L 814.0,663.0 L 971.0,680.0"/>
    <path d="M 356.0,649.0 L 359.0,790.0 L 323.0,1043.0"/>
    <path d="M 380.0,655.0 L 400.0,662.0 L 463.0,644.0 L 574.0,626.0 L 604.0,632.0 L 627.0,654.0 L 624.0,711.0 L 637.0,937.0 L 632.0,1010.0 L 610.0,1048.0 L 526.0,1017.0"/>
    <path d="M 386.0,779.0 L 418.0,764.0 L 467.0,755.0 L 512.0,751.0 L 535.0,758.0"/>
    <path d="M 378.0,884.0 L 411.0,868.0 L 479.0,857.0 L 523.0,854.0 L 546.0,861.0"/>
  </g>
</svg>
