<svg xmlns="http://www.w3.org/2000/svg" viewBox="0 0 1024 1024">
  <g style="fill:none;stroke:#000000;stroke-width:50;stroke-linecap:round;stroke-linejoin:round;" transform="scale(1, 1) translate(0, 0)">
    <path d="M 159.0,330.0 L 182.0,347.0 L 196.0,369.0 L 200.0,512.0 L 188.0,648.0 L 167.0,749.0 L 134.0,840.0 L 91.0,924.0 L 62.0,964.0"/>
    <path d="M 228.0,364.0 L 239.0,354.0 L 311.0,333.0 L 329.0,341.0 L 349.0,361.0 L 347.0,867.0 L 340.0,916.0 L 322.0,947.0 L 230.0,902.0"/>
    <path d="M 228.0,550.0 L 233.0,539.0 L 248.0,532.0 L 300.0,533.0"/>
    <path d="M 202.0,686.0 L 223.0,671.0 L 239.0,668.0 L 296.0,670.0"/>
    <path d="M 564.0,227.0 L 639.0,272.0 L 671.0,315.0"/>
    <path d="M 450.0,378.0 L 462.0,421.0 L 433.0,506.0 L 429.0,540.0"/>
    <path d="M 489.0,435.0 L 504.0,423.0 L 573.0,406.0 L 756.0,375.0 L 796.0,390.0 L 810.0,411.0 L 757.0,481.0 L 747.0,484.0"/>
    <path d="M 508.0,566.0 L 558.0,571.0 L 682.0,544.0 L 715.0,545.0"/>
    <path d="M 436.0,693.0 L 474.0,698.0 L 758.0,645.0 L 830.0,657.0"/>
    <path d="M 522.0,739.0 L 537.0,756.0 L 546.0,780.0 L 515.0,849.0 L 472.0,916.0 L 425.0,971.0 L 387.0,1002.0"/>
    <path d="M 636.0,689.0 L 668.0,715.0 L 658.0,834.0 L 659.0,896.0 L 672.0,953.0 L 697.0,984.0 L 746.0,1000.0 L 805.0,1003.0 L 867.0,984.0 L 889.0,962.0 L 900.0,836.0"/>
  </g>
</svg>
