<svg xmlns="http://www.w3.org/2000/svg" viewBox="0 0 1024 1024">
  <g style="fill:none;stroke:#000000;stroke-width:50;stroke-linecap:round;stroke-linejoin:round;" transform="scale(1, 1) translate(0, 0)">
    <path d="M 154.0,314.0 L 183.0,338.0 L 191.0,356.0 L 188.0,557.0 L 177.0,654.0 L 158.0,742.0 L 126.0,831.0 L 91.0,903.0 L 39.0,981.0"/>
    <path d="M 219.0,324.0 L 233.0,333.0 L 310.0,310.0 L 336.0,323.0 L 349.0,341.0 L 351.0,810.0 L 346.0,925.0 L 327.0,963.0 L 299.0,955.0 L 226.0,918.0"/>
    <path d="M 220.0,539.0 L 240.0,519.0 L 289.0,516.0"/>
    <path d="M 195.0,681.0 L 215.0,665.0 L 259.0,655.0 L 290.0,658.0"/>
    <path d="M 448.0,435.0 L 459.0,469.0 L 425.0,563.0 L 422.0,591.0"/>
    <path d="M 488.0,487.0 L 568.0,460.0 L 734.0,420.0 L 763.0,428.0 L 786.0,452.0 L 725.0,543.0"/>
    <path d="M 590.0,222.0 L 617.0,234.0 L 639.0,256.0 L 625.0,337.0 L 579.0,515.0 L 549.0,595.0 L 508.0,676.0 L 462.0,745.0 L 414.0,804.0 L 391.0,823.0 L 381.0,842.0"/>
    <path d="M 518.0,713.0 L 529.0,755.0 L 519.0,928.0 L 527.0,963.0 L 572.0,944.0 L 661.0,875.0"/>
    <path d="M 821.0,609.0 L 787.0,600.0 L 692.0,690.0 L 693.0,697.0"/>
    <path d="M 572.0,617.0 L 584.0,614.0 L 604.0,632.0 L 630.0,671.0 L 735.0,796.0 L 825.0,879.0 L 901.0,901.0 L 974.0,912.0"/>
  </g>
</svg>
