<svg xmlns="http://www.w3.org/2000/svg" viewBox="0 0 1024 1024">
  <g style="fill:none;stroke:#000000;stroke-width:50;stroke-linecap:round;stroke-linejoin:round;" transform="scale(1, 1) translate(0, 0)">
    <path d="M 430.0,179.0 L 520.0,220.0 L 551.0,255.0"/>
    <path d="M 178.0,352.0 L 228.0,361.0 L 485.0,325.0 L 733.0,303.0 L 775.0,303.0 L 838.0,321.0"/>
    <path d="M 395.0,362.0 L 410.0,371.0 L 415.0,383.0 L 396.0,565.0"/>
    <path d="M 591.0,346.0 L 577.0,360.0 L 576.0,451.0 L 570.0,484.0 L 581.0,555.0"/>
    <path d="M 298.0,439.0 L 270.0,491.0 L 212.0,561.0"/>
    <path d="M 658.0,425.0 L 733.0,456.0 L 779.0,483.0 L 813.0,529.0"/>
    <path d="M 263.0,637.0 L 289.0,669.0 L 297.0,704.0 L 288.0,859.0 L 268.0,1030.0"/>
    <path d="M 318.0,654.0 L 339.0,668.0 L 660.0,617.0 L 686.0,619.0 L 715.0,639.0 L 726.0,653.0 L 722.0,725.0 L 731.0,939.0 L 727.0,987.0 L 713.0,1017.0 L 679.0,1011.0 L 594.0,976.0"/>
    <path d="M 460.0,509.0 L 479.0,521.0 L 500.0,555.0 L 494.0,604.0 L 473.0,678.0 L 454.0,715.0 L 422.0,755.0 L 374.0,789.0 L 348.0,797.0"/>
    <path d="M 494.0,700.0 L 505.0,695.0 L 570.0,725.0 L 598.0,746.0 L 608.0,762.0"/>
    <path d="M 476.0,766.0 L 490.0,794.0 L 463.0,840.0 L 439.0,872.0 L 398.0,910.0 L 346.0,941.0"/>
    <path d="M 488.0,851.0 L 498.0,849.0 L 519.0,859.0 L 584.0,897.0 L 606.0,920.0 L 615.0,940.0"/>
  </g>
</svg>
