<svg xmlns="http://www.w3.org/2000/svg" viewBox="0 0 1024 1024">
  <g style="fill:none;stroke:#000000;stroke-width:50;stroke-linecap:round;stroke-linejoin:round;" transform="scale(1, 1) translate(0, 0)">
    <path d="M 178.0,323.0 L 209.0,347.0 L 218.0,371.0 L 220.0,497.0 L 210.0,640.0 L 192.0,738.0 L 168.0,816.0 L 133.0,896.0 L 75.0,990.0"/>
    <path d="M 250.0,357.0 L 258.0,344.0 L 340.0,320.0 L 367.0,334.0 L 379.0,350.0 L 372.0,938.0 L 367.0,957.0 L 352.0,977.0 L 257.0,931.0"/>
    <path d="M 249.0,538.0 L 255.0,526.0 L 270.0,519.0 L 303.0,516.0 L 324.0,522.0"/>
    <path d="M 232.0,674.0 L 245.0,662.0 L 268.0,657.0 L 302.0,655.0 L 323.0,661.0"/>
    <path d="M 527.0,321.0 L 548.0,328.0 L 597.0,329.0 L 766.0,297.0 L 823.0,298.0"/>
    <path d="M 492.0,420.0 L 516.0,435.0 L 527.0,459.0 L 459.0,607.0 L 463.0,616.0 L 526.0,667.0 L 536.0,699.0"/>
    <path d="M 639.0,403.0 L 660.0,418.0 L 672.0,442.0 L 607.0,576.0 L 681.0,633.0 L 693.0,662.0"/>
    <path d="M 806.0,364.0 L 830.0,380.0 L 843.0,406.0 L 778.0,544.0 L 774.0,568.0 L 790.0,585.0 L 853.0,622.0 L 863.0,646.0"/>
    <path d="M 514.0,771.0 L 547.0,778.0 L 596.0,775.0 L 754.0,747.0 L 795.0,748.0"/>
    <path d="M 624.0,796.0 L 643.0,815.0 L 646.0,829.0 L 643.0,926.0 L 625.0,938.0"/>
    <path d="M 422.0,980.0 L 476.0,989.0 L 834.0,951.0 L 882.0,956.0 L 927.0,972.0"/>
  </g>
</svg>
