<svg xmlns="http://www.w3.org/2000/svg" viewBox="0 0 1024 1024">
  <g style="fill:none;stroke:#000000;stroke-width:50;stroke-linecap:round;stroke-linejoin:round;" transform="scale(1, 1) translate(0, 0)">
    <path d="M 167.0,307.0 L 196.0,331.0 L 205.0,347.0 L 211.0,503.0 L 200.0,648.0 L 186.0,728.0 L 157.0,823.0 L 100.0,942.0 L 71.0,984.0"/>
    <path d="M 238.0,343.0 L 249.0,332.0 L 329.0,306.0 L 346.0,313.0 L 369.0,336.0 L 371.0,926.0 L 352.0,966.0 L 311.0,953.0 L 253.0,923.0"/>
    <path d="M 239.0,542.0 L 251.0,526.0 L 264.0,523.0 L 320.0,525.0"/>
    <path d="M 217.0,680.0 L 227.0,680.0 L 235.0,668.0 L 268.0,661.0 L 316.0,665.0"/>
    <path d="M 767.0,268.0 L 700.0,252.0 L 617.0,300.0 L 482.0,346.0"/>
    <path d="M 451.0,406.0 L 510.0,457.0 L 531.0,498.0"/>
    <path d="M 583.0,366.0 L 634.0,423.0 L 643.0,443.0"/>
    <path d="M 809.0,334.0 L 822.0,367.0 L 715.0,450.0"/>
    <path d="M 497.0,554.0 L 536.0,567.0 L 578.0,557.0 L 672.0,520.0 L 715.0,517.0 L 743.0,542.0 L 673.0,632.0 L 663.0,632.0"/>
    <path d="M 612.0,637.0 L 648.0,655.0 L 677.0,702.0 L 696.0,782.0 L 700.0,826.0 L 696.0,938.0 L 682.0,981.0 L 649.0,1014.0 L 549.0,966.0"/>
    <path d="M 430.0,755.0 L 482.0,761.0 L 824.0,706.0 L 883.0,711.0 L 917.0,722.0"/>
  </g>
</svg>
