<svg xmlns="http://www.w3.org/2000/svg" viewBox="0 0 1024 1024">
  <g style="fill:none;stroke:#000000;stroke-width:50;stroke-linecap:round;stroke-linejoin:round;" transform="scale(1, 1) translate(0, 0)">
    <path d="M 143.0,299.0 L 175.0,325.0 L 186.0,366.0 L 186.0,508.0 L 173.0,645.0 L 156.0,724.0 L 132.0,796.0 L 91.0,881.0 L 54.0,938.0"/>
    <path d="M 200.0,303.0 L 220.0,311.0 L 299.0,287.0 L 328.0,303.0 L 336.0,318.0 L 335.0,877.0 L 329.0,904.0 L 315.0,928.0 L 286.0,920.0 L 226.0,890.0"/>
    <path d="M 216.0,496.0 L 221.0,485.0 L 236.0,478.0 L 265.0,473.0 L 285.0,477.0"/>
    <path d="M 197.0,649.0 L 211.0,637.0 L 244.0,630.0 L 289.0,633.0"/>
    <path d="M 558.0,179.0 L 578.0,195.0 L 588.0,213.0 L 514.0,315.0 L 483.0,339.0"/>
    <path d="M 415.0,349.0 L 435.0,365.0 L 448.0,388.0 L 492.0,618.0"/>
    <path d="M 461.0,351.0 L 482.0,361.0 L 597.0,335.0 L 720.0,318.0 L 775.0,316.0 L 796.0,324.0 L 820.0,354.0 L 775.0,528.0 L 755.0,574.0 L 718.0,567.0"/>
    <path d="M 523.0,469.0 L 580.0,462.0 L 680.0,437.0 L 720.0,440.0"/>
    <path d="M 511.0,588.0 L 528.0,576.0 L 635.0,555.0 L 714.0,553.0"/>
    <path d="M 599.0,362.0 L 618.0,372.0 L 626.0,385.0 L 596.0,556.0 L 550.0,661.0 L 506.0,723.0 L 492.0,726.0"/>
    <path d="M 366.0,756.0 L 386.0,765.0 L 414.0,766.0 L 555.0,739.0 L 846.0,704.0 L 901.0,710.0 L 931.0,720.0"/>
    <path d="M 639.0,623.0 L 656.0,632.0 L 678.0,658.0 L 667.0,1093.0"/>
  </g>
</svg>
