<svg xmlns="http://www.w3.org/2000/svg" viewBox="0 0 1024 1024">
  <g style="fill:none;stroke:#000000;stroke-width:50;stroke-linecap:round;stroke-linejoin:round;" transform="scale(1, 1) translate(0, 0)">
    <path d="M 163.0,306.0 L 198.0,339.0 L 201.0,361.0 L 201.0,515.0 L 185.0,680.0 L 143.0,822.0 L 108.0,899.0 L 56.0,981.0"/>
    <path d="M 234.0,346.0 L 245.0,332.0 L 318.0,310.0 L 344.0,323.0 L 357.0,340.0 L 359.0,844.0 L 355.0,918.0 L 350.0,939.0 L 336.0,960.0 L 234.0,919.0"/>
    <path d="M 233.0,503.0 L 240.0,491.0 L 256.0,483.0 L 300.0,485.0"/>
    <path d="M 215.0,671.0 L 221.0,661.0 L 242.0,652.0 L 275.0,648.0 L 296.0,654.0"/>
    <path d="M 462.0,442.0 L 484.0,448.0 L 534.0,448.0 L 753.0,398.0 L 808.0,396.0"/>
    <path d="M 507.0,292.0 L 546.0,338.0 L 556.0,546.0 L 554.0,558.0 L 542.0,569.0"/>
    <path d="M 691.0,215.0 L 721.0,243.0 L 730.0,262.0 L 690.0,530.0 L 671.0,549.0"/>
    <path d="M 405.0,608.0 L 442.0,615.0 L 614.0,582.0 L 814.0,554.0 L 863.0,557.0 L 897.0,568.0"/>
    <path d="M 487.0,687.0 L 513.0,712.0 L 520.0,740.0 L 523.0,807.0 L 510.0,940.0 L 511.0,1004.0"/>
    <path d="M 543.0,699.0 L 556.0,709.0 L 716.0,673.0 L 754.0,700.0 L 762.0,947.0 L 750.0,982.0 L 694.0,970.0"/>
    <path d="M 550.0,841.0 L 560.0,828.0 L 616.0,817.0 L 662.0,811.0 L 683.0,817.0"/>
    <path d="M 538.0,974.0 L 555.0,959.0 L 664.0,945.0 L 713.0,947.0"/>
  </g>
</svg>
