<svg xmlns="http://www.w3.org/2000/svg" viewBox="0 0 1024 1024">
  <g style="fill:none;stroke:#000000;stroke-width:50;stroke-linecap:round;stroke-linejoin:round;" transform="scale(1, 1) translate(0, 0)">
    <path d="M 156.0,308.0 L 190.0,335.0 L 198.0,357.0 L 203.0,544.0 L 197.0,621.0 L 179.0,733.0 L 141.0,852.0 L 97.0,937.0 L 70.0,974.0"/>
    <path d="M 229.0,320.0 L 238.0,328.0 L 251.0,328.0 L 327.0,306.0 L 352.0,320.0 L 365.0,337.0 L 367.0,782.0 L 364.0,900.0 L 347.0,943.0 L 327.0,941.0 L 223.0,899.0"/>
    <path d="M 235.0,515.0 L 254.0,497.0 L 300.0,499.0"/>
    <path d="M 221.0,665.0 L 244.0,645.0 L 275.0,642.0 L 299.0,647.0"/>
    <path d="M 485.0,340.0 L 508.0,347.0 L 547.0,347.0 L 722.0,313.0 L 778.0,312.0"/>
    <path d="M 507.0,452.0 L 540.0,457.0 L 586.0,453.0 L 702.0,431.0 L 751.0,436.0"/>
    <path d="M 591.0,191.0 L 637.0,229.0 L 629.0,511.0 L 614.0,529.0"/>
    <path d="M 414.0,576.0 L 468.0,581.0 L 696.0,539.0 L 827.0,522.0 L 862.0,523.0 L 917.0,537.0"/>
    <path d="M 514.0,631.0 L 543.0,666.0 L 546.0,724.0 L 529.0,875.0 L 506.0,963.0 L 500.0,1018.0"/>
    <path d="M 568.0,638.0 L 587.0,647.0 L 707.0,618.0 L 732.0,632.0 L 746.0,649.0 L 744.0,755.0 L 755.0,956.0 L 748.0,988.0 L 732.0,1014.0 L 701.0,1007.0 L 625.0,972.0"/>
    <path d="M 571.0,760.0 L 582.0,747.0 L 616.0,739.0 L 650.0,736.0 L 672.0,741.0"/>
    <path d="M 559.0,859.0 L 571.0,848.0 L 642.0,835.0 L 683.0,841.0"/>
  </g>
</svg>
