<svg xmlns="http://www.w3.org/2000/svg" viewBox="0 0 1024 1024">
  <g style="fill:none;stroke:#000000;stroke-width:50;stroke-linecap:round;stroke-linejoin:round;" transform="scale(1, 1) translate(0, 0)">
    <path d="M 168.0,310.0 L 199.0,335.0 L 205.0,360.0 L 202.0,530.0 L 187.0,667.0 L 172.0,735.0 L 146.0,809.0 L 118.0,873.0 L 55.0,975.0"/>
    <path d="M 232.0,321.0 L 246.0,328.0 L 320.0,301.0 L 353.0,327.0 L 357.0,689.0 L 357.0,883.0 L 346.0,938.0 L 334.0,949.0 L 238.0,910.0"/>
    <path d="M 234.0,504.0 L 241.0,493.0 L 256.0,486.0 L 301.0,490.0"/>
    <path d="M 214.0,657.0 L 231.0,641.0 L 245.0,638.0 L 304.0,638.0"/>
    <path d="M 488.0,301.0 L 511.0,322.0 L 520.0,343.0 L 557.0,545.0"/>
    <path d="M 544.0,303.0 L 557.0,314.0 L 741.0,275.0 L 773.0,278.0 L 787.0,286.0 L 807.0,312.0 L 771.0,460.0 L 751.0,507.0 L 732.0,496.0"/>
    <path d="M 565.0,429.0 L 574.0,419.0 L 663.0,396.0 L 686.0,393.0 L 708.0,398.0"/>
    <path d="M 577.0,532.0 L 586.0,521.0 L 623.0,518.0 L 713.0,496.0"/>
    <path d="M 487.0,613.0 L 511.0,643.0 L 503.0,669.0 L 469.0,742.0 L 425.0,790.0"/>
    <path d="M 518.0,707.0 L 687.0,683.0 L 782.0,659.0 L 825.0,661.0"/>
    <path d="M 525.0,827.0 L 534.0,832.0 L 586.0,833.0 L 683.0,816.0 L 739.0,799.0 L 791.0,801.0"/>
    <path d="M 620.0,567.0 L 652.0,605.0 L 653.0,625.0 L 650.0,920.0 L 634.0,941.0"/>
    <path d="M 414.0,980.0 L 470.0,989.0 L 566.0,974.0 L 822.0,949.0 L 867.0,950.0 L 931.0,969.0"/>
  </g>
</svg>
