<svg xmlns="http://www.w3.org/2000/svg" viewBox="0 0 1024 1024">
  <g style="fill:none;stroke:#000000;stroke-width:50;stroke-linecap:round;stroke-linejoin:round;" transform="scale(1, 1) translate(0, 0)">
    <path d="M 132.0,316.0 L 165.0,341.0 L 175.0,390.0 L 177.0,527.0 L 165.0,656.0 L 152.0,724.0 L 122.0,814.0 L 82.0,901.0 L 53.0,942.0"/>
    <path d="M 192.0,325.0 L 209.0,331.0 L 243.0,316.0 L 268.0,313.0 L 280.0,317.0 L 303.0,341.0 L 302.0,835.0 L 299.0,908.0 L 280.0,948.0 L 186.0,910.0"/>
    <path d="M 205.0,510.0 L 221.0,494.0 L 254.0,498.0"/>
    <path d="M 192.0,660.0 L 217.0,639.0 L 260.0,641.0"/>
    <path d="M 450.0,315.0 L 476.0,344.0 L 379.0,510.0"/>
    <path d="M 585.0,283.0 L 655.0,324.0 L 685.0,361.0"/>
    <path d="M 507.0,452.0 L 525.0,470.0 L 531.0,487.0 L 482.0,602.0 L 399.0,717.0 L 337.0,771.0"/>
    <path d="M 549.0,540.0 L 588.0,561.0 L 631.0,597.0 L 651.0,623.0 L 657.0,642.0"/>
    <path d="M 426.0,720.0 L 449.0,732.0 L 477.0,917.0"/>
    <path d="M 480.0,731.0 L 489.0,721.0 L 578.0,699.0 L 598.0,698.0 L 619.0,712.0 L 628.0,725.0 L 602.0,818.0 L 579.0,828.0"/>
    <path d="M 497.0,887.0 L 513.0,871.0 L 576.0,861.0 L 613.0,861.0 L 639.0,869.0"/>
    <path d="M 787.0,445.0 L 793.0,433.0 L 859.0,410.0 L 888.0,407.0 L 908.0,422.0 L 906.0,553.0 L 896.0,622.0 L 883.0,660.0 L 861.0,686.0 L 796.0,657.0"/>
    <path d="M 707.0,415.0 L 745.0,447.0 L 751.0,482.0 L 746.0,586.0 L 747.0,1069.0"/>
  </g>
</svg>
