<svg xmlns="http://www.w3.org/2000/svg" viewBox="0 0 1024 1024">
  <g style="fill:none;stroke:#000000;stroke-width:50;stroke-linecap:round;stroke-linejoin:round;" transform="scale(1, 1) translate(0, 0)">
    <path d="M 143.0,315.0 L 171.0,338.0 L 182.0,359.0 L 184.0,534.0 L 172.0,656.0 L 153.0,752.0 L 132.0,813.0 L 98.0,892.0 L 46.0,974.0"/>
    <path d="M 204.0,323.0 L 222.0,331.0 L 301.0,304.0 L 318.0,309.0 L 341.0,333.0 L 341.0,746.0 L 334.0,931.0 L 316.0,963.0 L 216.0,920.0"/>
    <path d="M 215.0,521.0 L 221.0,509.0 L 235.0,501.0 L 285.0,501.0"/>
    <path d="M 194.0,673.0 L 209.0,661.0 L 234.0,656.0 L 268.0,652.0 L 289.0,657.0"/>
    <path d="M 546.0,368.0 L 514.0,363.0 L 458.0,425.0 L 460.0,434.0"/>
    <path d="M 400.0,427.0 L 429.0,454.0 L 458.0,565.0 L 484.0,702.0"/>
    <path d="M 481.0,542.0 L 486.0,532.0 L 521.0,523.0 L 561.0,525.0"/>
    <path d="M 681.0,368.0 L 702.0,372.0 L 803.0,364.0 L 825.0,386.0 L 831.0,401.0 L 766.0,619.0 L 746.0,659.0 L 730.0,657.0"/>
    <path d="M 668.0,510.0 L 750.0,499.0 L 769.0,485.0"/>
    <path d="M 501.0,680.0 L 512.0,668.0 L 533.0,662.0 L 719.0,635.0"/>
    <path d="M 575.0,217.0 L 623.0,258.0 L 620.0,504.0 L 607.0,660.0 L 594.0,732.0 L 554.0,830.0 L 512.0,890.0 L 463.0,933.0 L 395.0,971.0"/>
    <path d="M 629.0,684.0 L 638.0,726.0 L 652.0,750.0 L 739.0,880.0 L 779.0,926.0 L 811.0,955.0 L 930.0,989.0"/>
  </g>
</svg>
