<svg xmlns="http://www.w3.org/2000/svg" viewBox="0 0 1024 1024">
  <g style="fill:none;stroke:#000000;stroke-width:50;stroke-linecap:round;stroke-linejoin:round;" transform="scale(1, 1) translate(0, 0)">
    <path d="M 150.0,271.0 L 183.0,299.0 L 191.0,329.0 L 190.0,512.0 L 175.0,654.0 L 133.0,796.0 L 89.0,886.0 L 51.0,945.0"/>
    <path d="M 213.0,279.0 L 234.0,288.0 L 313.0,266.0 L 349.0,296.0 L 351.0,754.0 L 346.0,897.0 L 328.0,929.0 L 222.0,887.0"/>
    <path d="M 221.0,496.0 L 236.0,478.0 L 285.0,480.0"/>
    <path d="M 205.0,644.0 L 222.0,625.0 L 277.0,624.0"/>
    <path d="M 453.0,316.0 L 481.0,337.0 L 494.0,357.0 L 525.0,530.0 L 542.0,582.0"/>
    <path d="M 512.0,333.0 L 533.0,339.0 L 724.0,303.0 L 754.0,307.0 L 769.0,316.0 L 788.0,339.0 L 760.0,455.0 L 731.0,540.0 L 709.0,541.0"/>
    <path d="M 544.0,449.0 L 549.0,440.0 L 642.0,422.0 L 665.0,420.0 L 687.0,426.0"/>
    <path d="M 562.0,555.0 L 568.0,544.0 L 684.0,527.0 L 700.0,519.0"/>
    <path d="M 418.0,681.0 L 444.0,703.0 L 451.0,721.0 L 478.0,875.0 L 493.0,889.0"/>
    <path d="M 472.0,685.0 L 489.0,695.0 L 636.0,667.0 L 768.0,648.0 L 801.0,649.0 L 834.0,687.0 L 789.0,834.0 L 772.0,851.0 L 758.0,855.0"/>
    <path d="M 569.0,699.0 L 564.0,716.0 L 580.0,864.0 L 592.0,880.0"/>
    <path d="M 665.0,687.0 L 692.0,712.0 L 666.0,859.0 L 648.0,871.0"/>
    <path d="M 399.0,915.0 L 450.0,925.0 L 623.0,902.0 L 836.0,885.0 L 882.0,890.0 L 930.0,906.0"/>
  </g>
</svg>
