<svg xmlns="http://www.w3.org/2000/svg" viewBox="0 0 1024 1024">
  <g style="fill:none;stroke:#000000;stroke-width:50;stroke-linecap:round;stroke-linejoin:round;" transform="scale(1, 1) translate(0, 0)">
    <path d="M 141.0,286.0 L 163.0,302.0 L 178.0,323.0 L 184.0,395.0 L 182.0,501.0 L 166.0,641.0 L 146.0,724.0 L 117.0,805.0 L 75.0,886.0 L 46.0,928.0"/>
    <path d="M 197.0,289.0 L 205.0,296.0 L 222.0,297.0 L 282.0,281.0 L 309.0,297.0 L 318.0,311.0 L 322.0,742.0 L 320.0,875.0 L 306.0,921.0 L 299.0,926.0 L 271.0,919.0 L 198.0,890.0"/>
    <path d="M 209.0,487.0 L 214.0,476.0 L 229.0,467.0 L 277.0,464.0"/>
    <path d="M 189.0,631.0 L 204.0,620.0 L 226.0,615.0 L 256.0,612.0 L 277.0,617.0"/>
    <path d="M 432.0,278.0 L 478.0,309.0 L 497.0,342.0"/>
    <path d="M 762.0,250.0 L 734.0,245.0 L 644.0,313.0"/>
    <path d="M 441.0,401.0 L 511.0,406.0 L 677.0,368.0 L 719.0,371.0"/>
    <path d="M 364.0,516.0 L 400.0,524.0 L 613.0,486.0 L 755.0,468.0 L 796.0,469.0 L 840.0,482.0"/>
    <path d="M 547.0,196.0 L 571.0,208.0 L 590.0,228.0 L 563.0,359.0 L 529.0,468.0 L 493.0,551.0 L 455.0,614.0 L 415.0,665.0 L 363.0,716.0"/>
    <path d="M 662.0,515.0 L 681.0,517.0 L 685.0,528.0 L 733.0,574.0 L 829.0,647.0 L 910.0,667.0 L 979.0,674.0"/>
    <path d="M 483.0,616.0 L 542.0,611.0 L 553.0,603.0 L 623.0,590.0 L 649.0,594.0 L 663.0,607.0 L 666.0,621.0 L 646.0,715.0 L 628.0,760.0"/>
    <path d="M 487.0,659.0 L 503.0,673.0 L 510.0,689.0 L 492.0,804.0 L 519.0,806.0 L 617.0,786.0 L 725.0,774.0 L 757.0,781.0 L 777.0,803.0 L 744.0,967.0 L 727.0,1002.0 L 698.0,1023.0 L 626.0,981.0"/>
    <path d="M 357.0,913.0 L 392.0,922.0 L 515.0,896.0 L 647.0,880.0 L 707.0,896.0"/>
  </g>
</svg>
