<svg xmlns="http://www.w3.org/2000/svg" viewBox="0 0 1024 1024">
  <g style="fill:none;stroke:#000000;stroke-width:50;stroke-linecap:round;stroke-linejoin:round;" transform="scale(1, 1) translate(0, 0)">
    <path d="M 159.0,303.0 L 192.0,332.0 L 198.0,356.0 L 204.0,480.0 L 190.0,664.0 L 170.0,757.0 L 139.0,844.0 L 96.0,930.0 L 66.0,974.0"/>
    <path d="M 226.0,312.0 L 241.0,319.0 L 310.0,293.0 L 330.0,298.0 L 353.0,321.0 L 353.0,621.0 L 359.0,737.0 L 352.0,929.0 L 334.0,959.0 L 238.0,918.0"/>
    <path d="M 233.0,522.0 L 239.0,510.0 L 251.0,505.0 L 282.0,503.0 L 303.0,509.0"/>
    <path d="M 213.0,679.0 L 230.0,664.0 L 277.0,660.0 L 300.0,667.0"/>
    <path d="M 496.0,315.0 L 558.0,318.0 L 654.0,297.0 L 714.0,277.0 L 764.0,277.0"/>
    <path d="M 422.0,422.0 L 447.0,445.0 L 458.0,466.0 L 476.0,616.0 L 489.0,650.0"/>
    <path d="M 465.0,430.0 L 489.0,437.0 L 751.0,383.0 L 788.0,389.0 L 817.0,424.0 L 762.0,610.0"/>
    <path d="M 535.0,513.0 L 659.0,485.0 L 700.0,489.0"/>
    <path d="M 539.0,593.0 L 582.0,588.0 L 657.0,568.0 L 700.0,573.0"/>
    <path d="M 575.0,187.0 L 599.0,194.0 L 624.0,222.0 L 618.0,281.0 L 611.0,648.0"/>
    <path d="M 795.0,232.0 L 856.0,261.0 L 878.0,284.0"/>
    <path d="M 386.0,755.0 L 437.0,762.0 L 627.0,727.0 L 831.0,705.0 L 888.0,710.0 L 921.0,721.0"/>
    <path d="M 682.0,629.0 L 729.0,676.0 L 725.0,987.0 L 709.0,1017.0 L 659.0,998.0 L 606.0,967.0"/>
    <path d="M 512.0,795.0 L 569.0,842.0 L 589.0,880.0"/>
  </g>
</svg>
