<svg xmlns="http://www.w3.org/2000/svg" viewBox="0 0 1024 1024">
  <g style="fill:none;stroke:#000000;stroke-width:50;stroke-linecap:round;stroke-linejoin:round;" transform="scale(1, 1) translate(0, 0)">
    <path d="M 445.0,184.0 L 512.0,211.0 L 547.0,235.0"/>
    <path d="M 279.0,278.0 L 340.0,287.0 L 657.0,244.0 L 704.0,244.0 L 734.0,251.0"/>
    <path d="M 350.0,353.0 L 374.0,371.0 L 383.0,386.0 L 404.0,464.0"/>
    <path d="M 397.0,354.0 L 410.0,362.0 L 435.0,360.0 L 450.0,352.0 L 462.0,354.0 L 596.0,322.0 L 613.0,328.0 L 631.0,350.0 L 617.0,385.0 L 594.0,401.0"/>
    <path d="M 418.0,453.0 L 451.0,442.0 L 572.0,423.0 L 633.0,427.0"/>
    <path d="M 204.0,500.0 L 215.0,531.0 L 211.0,552.0 L 179.0,618.0 L 171.0,673.0"/>
    <path d="M 246.0,533.0 L 257.0,543.0 L 280.0,542.0 L 483.0,502.0 L 712.0,472.0 L 779.0,469.0 L 805.0,479.0 L 826.0,507.0 L 766.0,584.0"/>
    <path d="M 338.0,578.0 L 366.0,596.0 L 395.0,687.0"/>
    <path d="M 393.0,598.0 L 404.0,589.0 L 502.0,570.0 L 584.0,546.0 L 600.0,547.0 L 613.0,553.0 L 629.0,576.0 L 616.0,603.0 L 586.0,621.0"/>
    <path d="M 411.0,677.0 L 427.0,669.0 L 576.0,644.0 L 628.0,642.0 L 637.0,647.0"/>
    <path d="M 350.0,740.0 L 374.0,763.0 L 380.0,777.0 L 375.0,892.0 L 351.0,1053.0"/>
    <path d="M 394.0,748.0 L 412.0,754.0 L 596.0,717.0 L 638.0,743.0 L 651.0,956.0 L 644.0,1018.0 L 630.0,1038.0 L 618.0,1036.0 L 529.0,985.0"/>
    <path d="M 405.0,840.0 L 416.0,831.0 L 516.0,811.0 L 553.0,810.0"/>
    <path d="M 399.0,921.0 L 422.0,912.0 L 520.0,897.0 L 560.0,899.0"/>
  </g>
</svg>
