<svg xmlns="http://www.w3.org/2000/svg" viewBox="0 0 1024 1024">
  <g style="fill:none;stroke:#000000;stroke-width:50;stroke-linecap:round;stroke-linejoin:round;" transform="scale(1, 1) translate(0, 0)">
    <path d="M 143.0,323.0 L 177.0,352.0 L 185.0,395.0 L 185.0,549.0 L 174.0,673.0 L 163.0,727.0 L 128.0,835.0 L 80.0,935.0 L 50.0,978.0"/>
    <path d="M 209.0,334.0 L 222.0,340.0 L 303.0,312.0 L 331.0,328.0 L 340.0,341.0 L 343.0,748.0 L 338.0,934.0 L 320.0,967.0 L 289.0,958.0 L 226.0,926.0"/>
    <path d="M 216.0,522.0 L 236.0,503.0 L 267.0,498.0 L 290.0,502.0"/>
    <path d="M 203.0,662.0 L 216.0,647.0 L 236.0,640.0 L 271.0,637.0 L 296.0,642.0"/>
    <path d="M 477.0,277.0 L 536.0,283.0 L 648.0,264.0 L 747.0,239.0 L 811.0,234.0"/>
    <path d="M 418.0,402.0 L 446.0,421.0 L 499.0,583.0"/>
    <path d="M 479.0,423.0 L 486.0,413.0 L 653.0,379.0 L 780.0,360.0 L 810.0,365.0 L 831.0,386.0 L 837.0,402.0 L 780.0,533.0 L 781.0,551.0"/>
    <path d="M 538.0,306.0 L 563.0,325.0 L 572.0,346.0 L 591.0,503.0 L 591.0,513.0 L 581.0,523.0"/>
    <path d="M 665.0,281.0 L 703.0,314.0 L 687.0,479.0 L 680.0,498.0 L 669.0,506.0"/>
    <path d="M 514.0,552.0 L 522.0,558.0 L 604.0,544.0 L 735.0,518.0 L 755.0,507.0"/>
    <path d="M 524.0,647.0 L 547.0,653.0 L 586.0,651.0 L 710.0,620.0 L 752.0,621.0"/>
    <path d="M 405.0,760.0 L 451.0,766.0 L 663.0,726.0 L 819.0,706.0 L 852.0,706.0 L 901.0,720.0"/>
    <path d="M 606.0,759.0 L 636.0,789.0 L 640.0,920.0 L 635.0,968.0 L 618.0,998.0 L 528.0,957.0"/>
    <path d="M 488.0,841.0 L 470.0,896.0 L 440.0,944.0 L 434.0,964.0"/>
    <path d="M 748.0,817.0 L 846.0,905.0 L 863.0,935.0 L 872.0,969.0"/>
  </g>
</svg>
