<svg xmlns="http://www.w3.org/2000/svg" viewBox="0 0 1024 1024">
  <g style="fill:none;stroke:#000000;stroke-width:50;stroke-linecap:round;stroke-linejoin:round;" transform="scale(1, 1) translate(0, 0)">
    <path d="M 152.0,314.0 L 186.0,345.0 L 189.0,367.0 L 187.0,547.0 L 174.0,671.0 L 160.0,736.0 L 134.0,812.0 L 91.0,901.0 L 47.0,970.0"/>
    <path d="M 219.0,351.0 L 240.0,337.0 L 304.0,318.0 L 332.0,334.0 L 342.0,348.0 L 345.0,730.0 L 344.0,891.0 L 334.0,930.0 L 324.0,941.0 L 309.0,939.0 L 222.0,902.0"/>
    <path d="M 218.0,536.0 L 224.0,524.0 L 240.0,516.0 L 285.0,517.0"/>
    <path d="M 195.0,690.0 L 210.0,678.0 L 249.0,670.0 L 281.0,673.0"/>
    <path d="M 549.0,219.0 L 622.0,261.0 L 643.0,291.0"/>
    <path d="M 420.0,348.0 L 432.0,372.0 L 432.0,393.0 L 410.0,465.0 L 409.0,493.0"/>
    <path d="M 460.0,375.0 L 482.0,383.0 L 645.0,348.0 L 783.0,332.0 L 808.0,341.0 L 827.0,365.0 L 765.0,438.0"/>
    <path d="M 513.0,432.0 L 524.0,446.0 L 528.0,464.0 L 486.0,515.0 L 438.0,553.0"/>
    <path d="M 652.0,422.0 L 711.0,459.0 L 735.0,496.0"/>
    <path d="M 456.0,591.0 L 502.0,597.0 L 699.0,561.0 L 747.0,566.0"/>
    <path d="M 602.0,614.0 L 570.0,630.0 L 539.0,680.0 L 519.0,699.0 L 503.0,740.0 L 532.0,740.0 L 702.0,702.0 L 710.0,709.0"/>
    <path d="M 678.0,643.0 L 756.0,715.0 L 775.0,763.0"/>
    <path d="M 470.0,852.0 L 510.0,860.0 L 552.0,858.0 L 696.0,830.0 L 742.0,832.0"/>
    <path d="M 582.0,766.0 L 598.0,782.0 L 610.0,811.0 L 608.0,929.0 L 593.0,946.0"/>
    <path d="M 386.0,984.0 L 439.0,993.0 L 538.0,978.0 L 783.0,957.0 L 832.0,964.0 L 863.0,976.0"/>
  </g>
</svg>
