<svg xmlns="http://www.w3.org/2000/svg" viewBox="0 0 1024 1024">
  <g style="fill:none;stroke:#000000;stroke-width:50;stroke-linecap:round;stroke-linejoin:round;" transform="scale(1, 1) translate(0, 0)">
    <path d="M 140.0,332.0 L 175.0,357.0 L 185.0,390.0 L 189.0,511.0 L 175.0,677.0 L 163.0,743.0 L 124.0,857.0 L 88.0,930.0 L 59.0,973.0"/>
    <path d="M 214.0,345.0 L 227.0,355.0 L 310.0,332.0 L 328.0,339.0 L 354.0,364.0 L 342.0,912.0 L 334.0,937.0 L 319.0,957.0 L 294.0,948.0 L 234.0,908.0"/>
    <path d="M 214.0,546.0 L 223.0,544.0 L 228.0,534.0 L 265.0,526.0 L 297.0,529.0"/>
    <path d="M 201.0,695.0 L 220.0,680.0 L 271.0,673.0 L 292.0,677.0"/>
    <path d="M 533.0,283.0 L 543.0,290.0 L 560.0,323.0 L 551.0,346.0 L 485.0,463.0 L 429.0,537.0 L 387.0,579.0"/>
    <path d="M 504.0,479.0 L 509.0,557.0 L 490.0,771.0 L 495.0,831.0"/>
    <path d="M 653.0,267.0 L 723.0,313.0 L 742.0,349.0"/>
    <path d="M 548.0,467.0 L 570.0,472.0 L 609.0,469.0 L 768.0,425.0 L 820.0,421.0"/>
    <path d="M 572.0,576.0 L 639.0,562.0 L 732.0,532.0 L 766.0,526.0 L 788.0,529.0"/>
    <path d="M 572.0,672.0 L 612.0,666.0 L 758.0,624.0 L 801.0,626.0"/>
    <path d="M 647.0,489.0 L 670.0,502.0 L 678.0,521.0 L 670.0,710.0 L 654.0,735.0"/>
    <path d="M 526.0,776.0 L 566.0,780.0 L 781.0,737.0 L 816.0,736.0 L 871.0,746.0"/>
    <path d="M 471.0,890.0 L 451.0,948.0 L 414.0,1019.0"/>
    <path d="M 558.0,896.0 L 600.0,964.0 L 601.0,994.0"/>
    <path d="M 671.0,874.0 L 723.0,926.0 L 734.0,958.0"/>
    <path d="M 804.0,857.0 L 898.0,941.0 L 918.0,987.0"/>
  </g>
</svg>
