<svg xmlns="http://www.w3.org/2000/svg" viewBox="0 0 1024 1024">
  <g style="fill:none;stroke:#000000;stroke-width:50;stroke-linecap:round;stroke-linejoin:round;" transform="scale(1, 1) translate(0, 0)">
    <path d="M 296.0,251.0 L 305.0,242.0 L 336.0,231.0 L 457.0,202.0 L 484.0,225.0 L 469.0,268.0 L 448.0,282.0"/>
    <path d="M 277.0,351.0 L 326.0,334.0 L 448.0,310.0 L 483.0,308.0 L 500.0,315.0"/>
    <path d="M 237.0,219.0 L 255.0,239.0 L 263.0,265.0 L 246.0,360.0 L 211.0,476.0 L 182.0,540.0 L 142.0,606.0 L 77.0,676.0"/>
    <path d="M 279.0,436.0 L 322.0,440.0 L 488.0,402.0 L 499.0,405.0"/>
    <path d="M 316.0,381.0 L 342.0,405.0 L 346.0,419.0 L 351.0,493.0 L 343.0,503.0"/>
    <path d="M 431.0,339.0 L 445.0,347.0 L 458.0,373.0 L 442.0,472.0 L 431.0,485.0"/>
    <path d="M 227.0,534.0 L 274.0,538.0 L 488.0,495.0 L 542.0,499.0"/>
    <path d="M 317.0,554.0 L 329.0,572.0 L 307.0,602.0 L 250.0,657.0 L 206.0,686.0"/>
    <path d="M 416.0,546.0 L 460.0,579.0 L 477.0,609.0"/>
    <path d="M 583.0,202.0 L 601.0,215.0 L 609.0,239.0 L 598.0,314.0 L 578.0,353.0 L 547.0,382.0 L 539.0,381.0 L 536.0,390.0"/>
    <path d="M 626.0,202.0 L 650.0,209.0 L 699.0,192.0 L 733.0,196.0 L 742.0,206.0 L 730.0,258.0 L 730.0,296.0 L 739.0,328.0 L 750.0,338.0 L 803.0,350.0 L 860.0,341.0 L 886.0,348.0"/>
    <path d="M 578.0,406.0 L 644.0,408.0 L 670.0,396.0 L 692.0,394.0 L 730.0,407.0 L 708.0,465.0 L 674.0,522.0 L 610.0,568.0 L 566.0,584.0 L 528.0,590.0"/>
    <path d="M 545.0,447.0 L 571.0,455.0 L 600.0,474.0 L 702.0,568.0 L 780.0,618.0 L 822.0,631.0 L 943.0,639.0"/>
    <path d="M 352.0,658.0 L 378.0,687.0 L 382.0,752.0 L 360.0,907.0 L 336.0,996.0 L 332.0,1043.0"/>
    <path d="M 406.0,674.0 L 420.0,680.0 L 448.0,678.0 L 510.0,663.0 L 615.0,649.0 L 656.0,679.0 L 653.0,719.0 L 670.0,964.0 L 666.0,1012.0 L 645.0,1048.0 L 604.0,1035.0 L 550.0,1005.0"/>
    <path d="M 403.0,786.0 L 510.0,765.0 L 571.0,762.0"/>
    <path d="M 391.0,892.0 L 537.0,871.0 L 577.0,875.0"/>
  </g>
</svg>
