<svg xmlns="http://www.w3.org/2000/svg" viewBox="0 0 1024 1024">
  <g style="fill:none;stroke:#000000;stroke-width:50;stroke-linecap:round;stroke-linejoin:round;" transform="scale(1, 1) translate(0, 0)">
    <path d="M 133.0,338.0 L 163.0,362.0 L 172.0,403.0 L 175.0,508.0 L 158.0,686.0 L 134.0,785.0 L 110.0,851.0 L 73.0,924.0 L 38.0,976.0"/>
    <path d="M 188.0,344.0 L 207.0,351.0 L 240.0,343.0 L 251.0,333.0 L 279.0,329.0 L 292.0,333.0 L 313.0,356.0 L 313.0,682.0 L 309.0,898.0 L 299.0,950.0 L 287.0,962.0 L 272.0,960.0 L 186.0,926.0"/>
    <path d="M 201.0,545.0 L 209.0,534.0 L 237.0,529.0 L 257.0,533.0"/>
    <path d="M 180.0,690.0 L 197.0,676.0 L 225.0,672.0 L 256.0,678.0"/>
    <path d="M 557.0,207.0 L 628.0,246.0 L 661.0,285.0"/>
    <path d="M 427.0,381.0 L 458.0,388.0 L 489.0,386.0 L 765.0,330.0 L 792.0,326.0 L 834.0,333.0"/>
    <path d="M 450.0,450.0 L 466.0,472.0 L 469.0,490.0 L 400.0,608.0 L 384.0,650.0 L 437.0,652.0 L 467.0,647.0 L 475.0,638.0"/>
    <path d="M 533.0,534.0 L 548.0,562.0 L 496.0,647.0 L 412.0,757.0 L 410.0,781.0 L 436.0,784.0 L 511.0,758.0 L 515.0,750.0"/>
    <path d="M 531.0,690.0 L 552.0,717.0 L 542.0,764.0 L 510.0,841.0 L 440.0,945.0 L 362.0,1006.0"/>
    <path d="M 667.0,416.0 L 693.0,449.0 L 678.0,489.0 L 611.0,603.0 L 571.0,646.0"/>
    <path d="M 615.0,627.0 L 616.0,645.0 L 635.0,683.0 L 639.0,744.0 L 634.0,893.0 L 621.0,1003.0 L 627.0,1057.0"/>
    <path d="M 740.0,461.0 L 795.0,498.0 L 807.0,522.0"/>
    <path d="M 686.0,600.0 L 742.0,601.0 L 856.0,567.0 L 893.0,565.0"/>
    <path d="M 707.0,729.0 L 819.0,697.0 L 852.0,692.0 L 873.0,697.0"/>
    <path d="M 699.0,813.0 L 719.0,813.0 L 828.0,786.0 L 856.0,783.0 L 876.0,788.0"/>
    <path d="M 759.0,616.0 L 784.0,638.0 L 786.0,874.0 L 771.0,898.0"/>
    <path d="M 661.0,936.0 L 668.0,942.0 L 687.0,941.0 L 789.0,918.0 L 892.0,904.0 L 942.0,914.0"/>
  </g>
</svg>
