<svg xmlns="http://www.w3.org/2000/svg" viewBox="0 0 1024 1024">
  <g style="fill:none;stroke:#000000;stroke-width:50;stroke-linecap:round;stroke-linejoin:round;" transform="scale(1, 1) translate(0, 0)">
    <path d="M 127.0,350.0 L 154.0,371.0 L 163.0,400.0 L 169.0,517.0 L 156.0,674.0 L 115.0,828.0 L 82.0,899.0 L 46.0,955.0"/>
    <path d="M 183.0,358.0 L 204.0,360.0 L 226.0,347.0 L 252.0,342.0 L 276.0,354.0 L 287.0,368.0 L 292.0,699.0 L 290.0,916.0 L 279.0,954.0 L 268.0,967.0 L 186.0,931.0"/>
    <path d="M 194.0,559.0 L 198.0,548.0 L 212.0,540.0 L 250.0,540.0"/>
    <path d="M 176.0,708.0 L 187.0,695.0 L 198.0,692.0 L 246.0,692.0"/>
    <path d="M 483.0,259.0 L 519.0,285.0 L 544.0,449.0"/>
    <path d="M 362.0,390.0 L 416.0,397.0 L 586.0,348.0"/>
    <path d="M 689.0,193.0 L 702.0,199.0 L 722.0,229.0 L 690.0,336.0 L 659.0,415.0"/>
    <path d="M 666.0,330.0 L 711.0,333.0 L 801.0,317.0 L 840.0,317.0 L 881.0,331.0"/>
    <path d="M 514.0,563.0 L 522.0,570.0 L 580.0,564.0 L 745.0,520.0 L 805.0,514.0"/>
    <path d="M 458.0,547.0 L 481.0,569.0 L 485.0,586.0 L 480.0,690.0 L 465.0,801.0 L 447.0,867.0 L 412.0,954.0 L 374.0,1017.0 L 350.0,1045.0"/>
    <path d="M 354.0,528.0 L 376.0,551.0 L 383.0,576.0 L 377.0,676.0 L 397.0,676.0 L 449.0,660.0 L 451.0,649.0"/>
    <path d="M 336.0,787.0 L 397.0,781.0 L 450.0,762.0"/>
    <path d="M 375.0,806.0 L 388.0,821.0 L 380.0,846.0 L 364.0,879.0 L 320.0,937.0"/>
    <path d="M 559.0,665.0 L 590.0,668.0 L 667.0,649.0 L 679.0,651.0"/>
    <path d="M 620.0,681.0 L 631.0,691.0 L 633.0,722.0 L 615.0,740.0"/>
    <path d="M 558.0,783.0 L 648.0,754.0 L 668.0,756.0 L 678.0,764.0 L 680.0,776.0 L 664.0,809.0 L 652.0,820.0"/>
    <path d="M 561.0,864.0 L 566.0,856.0 L 639.0,840.0 L 675.0,836.0 L 693.0,841.0"/>
    <path d="M 621.0,860.0 L 634.0,875.0 L 635.0,900.0 L 620.0,911.0"/>
    <path d="M 521.0,653.0 L 542.0,682.0 L 546.0,737.0 L 535.0,951.0 L 564.0,951.0 L 663.0,930.0 L 692.0,936.0"/>
    <path d="M 658.0,454.0 L 672.0,459.0 L 694.0,483.0 L 703.0,565.0 L 726.0,678.0 L 770.0,820.0 L 800.0,886.0 L 833.0,939.0 L 882.0,994.0 L 912.0,1005.0 L 917.0,998.0 L 930.0,968.0 L 950.0,875.0"/>
    <path d="M 823.0,646.0 L 847.0,672.0 L 835.0,761.0 L 814.0,830.0 L 792.0,879.0 L 764.0,922.0 L 673.0,1025.0"/>
    <path d="M 776.0,409.0 L 842.0,445.0 L 872.0,481.0"/>
  </g>
</svg>
