<svg xmlns="http://www.w3.org/2000/svg" viewBox="0 0 1024 1024">
  <g style="fill:none;stroke:#000000;stroke-width:50;stroke-linecap:round;stroke-linejoin:round;" transform="scale(1, 1) translate(0, 0)">
    <path d="M 144.0,353.0 L 169.0,371.0 L 181.0,391.0 L 185.0,523.0 L 174.0,687.0 L 153.0,790.0 L 132.0,851.0 L 97.0,929.0 L 46.0,1010.0"/>
    <path d="M 203.0,360.0 L 225.0,366.0 L 264.0,350.0 L 293.0,346.0 L 318.0,361.0 L 329.0,384.0 L 328.0,834.0 L 322.0,972.0 L 306.0,1003.0 L 203.0,965.0"/>
    <path d="M 215.0,565.0 L 230.0,547.0 L 271.0,549.0"/>
    <path d="M 193.0,727.0 L 209.0,709.0 L 252.0,701.0 L 274.0,704.0"/>
    <path d="M 430.0,292.0 L 447.0,314.0 L 444.0,323.0 L 425.0,370.0 L 385.0,427.0"/>
    <path d="M 449.0,368.0 L 558.0,336.0 L 596.0,336.0"/>
    <path d="M 501.0,218.0 L 536.0,248.0 L 529.0,390.0 L 519.0,413.0"/>
    <path d="M 371.0,477.0 L 426.0,470.0 L 560.0,422.0 L 589.0,422.0"/>
    <path d="M 521.0,475.0 L 499.0,485.0 L 482.0,515.0 L 427.0,579.0 L 365.0,624.0"/>
    <path d="M 529.0,489.0 L 535.0,579.0 L 562.0,568.0 L 578.0,556.0 L 581.0,545.0 L 596.0,544.0 L 598.0,534.0 L 610.0,531.0"/>
    <path d="M 648.0,253.0 L 665.0,274.0 L 645.0,331.0 L 619.0,365.0"/>
    <path d="M 665.0,327.0 L 715.0,320.0 L 817.0,285.0 L 843.0,284.0"/>
    <path d="M 720.0,181.0 L 750.0,214.0 L 744.0,364.0 L 731.0,380.0"/>
    <path d="M 626.0,422.0 L 666.0,418.0 L 821.0,375.0 L 858.0,370.0 L 898.0,374.0"/>
    <path d="M 686.0,447.0 L 701.0,468.0 L 684.0,508.0 L 639.0,565.0 L 604.0,591.0"/>
    <path d="M 759.0,410.0 L 779.0,429.0 L 778.0,497.0 L 785.0,534.0 L 796.0,551.0 L 819.0,562.0 L 877.0,565.0 L 922.0,546.0 L 936.0,535.0 L 939.0,479.0 L 945.0,466.0"/>
    <path d="M 517.0,653.0 L 538.0,677.0 L 541.0,690.0 L 547.0,762.0 L 541.0,886.0 L 548.0,931.0"/>
    <path d="M 566.0,665.0 L 577.0,672.0 L 606.0,667.0 L 717.0,636.0 L 729.0,639.0 L 757.0,668.0 L 753.0,765.0 L 760.0,860.0 L 753.0,930.0"/>
    <path d="M 611.0,716.0 L 629.0,722.0 L 655.0,750.0 L 651.0,857.0 L 639.0,941.0 L 614.0,990.0 L 581.0,1022.0 L 527.0,1053.0 L 478.0,1065.0"/>
    <path d="M 663.0,949.0 L 677.0,953.0 L 791.0,1033.0 L 813.0,1055.0 L 820.0,1079.0"/>
  </g>
</svg>
