<svg xmlns="http://www.w3.org/2000/svg" viewBox="0 0 1024 1024">
  <g style="fill:none;stroke:#000000;stroke-width:50;stroke-linecap:round;stroke-linejoin:round;" transform="scale(1, 1) translate(0, 0)">
    <path d="M 197.0,314.0 L 218.0,324.0 L 259.0,322.0 L 442.0,282.0 L 483.0,285.0"/>
    <path d="M 327.0,335.0 L 350.0,358.0 L 351.0,376.0 L 343.0,459.0 L 322.0,477.0"/>
    <path d="M 199.0,521.0 L 206.0,527.0 L 262.0,522.0 L 375.0,495.0 L 422.0,492.0 L 449.0,521.0 L 421.0,578.0 L 395.0,594.0"/>
    <path d="M 192.0,653.0 L 238.0,654.0 L 386.0,623.0 L 437.0,621.0 L 456.0,628.0"/>
    <path d="M 325.0,658.0 L 347.0,680.0 L 349.0,694.0 L 339.0,805.0 L 320.0,826.0"/>
    <path d="M 139.0,293.0 L 169.0,328.0 L 174.0,346.0 L 173.0,502.0 L 150.0,881.0 L 185.0,883.0 L 281.0,858.0 L 392.0,839.0 L 426.0,837.0 L 457.0,846.0"/>
    <path d="M 542.0,491.0 L 580.0,498.0 L 619.0,491.0 L 731.0,450.0 L 760.0,452.0 L 786.0,465.0 L 765.0,564.0 L 732.0,666.0 L 693.0,749.0 L 656.0,805.0 L 603.0,863.0 L 551.0,904.0 L 446.0,967.0 L 429.0,971.0"/>
    <path d="M 503.0,619.0 L 556.0,655.0 L 695.0,830.0 L 765.0,892.0 L 790.0,909.0 L 977.0,955.0"/>
  </g>
</svg>
