<svg xmlns="http://www.w3.org/2000/svg" viewBox="0 0 1024 1024">
  <g style="fill:none;stroke:#000000;stroke-width:50;stroke-linecap:round;stroke-linejoin:round;" transform="scale(1, 1) translate(0, 0)">
    <path d="M 212.0,325.0 L 233.0,331.0 L 274.0,326.0 L 401.0,289.0 L 465.0,281.0"/>
    <path d="M 320.0,344.0 L 334.0,348.0 L 351.0,364.0 L 331.0,483.0 L 314.0,503.0"/>
    <path d="M 216.0,557.0 L 239.0,544.0 L 299.0,532.0 L 360.0,509.0 L 393.0,507.0 L 424.0,534.0 L 401.0,615.0 L 414.0,630.0"/>
    <path d="M 216.0,680.0 L 239.0,686.0 L 377.0,654.0 L 428.0,660.0"/>
    <path d="M 313.0,692.0 L 334.0,703.0 L 342.0,722.0 L 330.0,831.0 L 311.0,847.0"/>
    <path d="M 153.0,305.0 L 185.0,341.0 L 192.0,385.0 L 191.0,667.0 L 180.0,904.0 L 215.0,905.0 L 281.0,885.0 L 380.0,866.0 L 412.0,874.0"/>
    <path d="M 603.0,189.0 L 623.0,207.0 L 634.0,229.0 L 621.0,263.0 L 551.0,386.0 L 514.0,435.0 L 481.0,467.0"/>
    <path d="M 596.0,359.0 L 704.0,351.0 L 815.0,321.0 L 866.0,324.0"/>
    <path d="M 533.0,503.0 L 554.0,521.0 L 563.0,540.0 L 592.0,683.0"/>
    <path d="M 577.0,504.0 L 598.0,515.0 L 741.0,482.0 L 769.0,490.0 L 791.0,514.0 L 760.0,592.0 L 733.0,609.0"/>
    <path d="M 610.0,649.0 L 620.0,656.0 L 731.0,634.0 L 790.0,639.0"/>
    <path d="M 417.0,774.0 L 445.0,807.0 L 473.0,967.0"/>
    <path d="M 463.0,779.0 L 475.0,785.0 L 566.0,762.0 L 596.0,777.0 L 605.0,787.0 L 586.0,862.0 L 582.0,873.0 L 564.0,886.0"/>
    <path d="M 492.0,934.0 L 507.0,924.0 L 559.0,912.0 L 615.0,915.0"/>
    <path d="M 665.0,748.0 L 686.0,768.0 L 694.0,785.0 L 724.0,963.0"/>
    <path d="M 712.0,749.0 L 728.0,759.0 L 853.0,731.0 L 884.0,748.0 L 897.0,763.0 L 870.0,858.0 L 845.0,875.0"/>
    <path d="M 744.0,925.0 L 758.0,915.0 L 837.0,900.0 L 899.0,907.0"/>
  </g>
</svg>
