<svg xmlns="http://www.w3.org/2000/svg" viewBox="0 0 1024 1024">
  <g style="fill:none;stroke:#000000;stroke-width:50;stroke-linecap:round;stroke-linejoin:round;" transform="scale(1, 1) translate(0, 0)">
    <path d="M 464.0,193.0 L 490.0,209.0 L 501.0,224.0 L 452.0,330.0 L 417.0,388.0 L 404.0,398.0"/>
    <path d="M 303.0,391.0 L 333.0,427.0 L 342.0,490.0 L 335.0,752.0 L 324.0,884.0 L 328.0,950.0"/>
    <path d="M 367.0,415.0 L 386.0,425.0 L 429.0,417.0 L 647.0,362.0 L 680.0,377.0 L 704.0,402.0 L 717.0,896.0 L 703.0,938.0 L 627.0,920.0"/>
    <path d="M 365.0,603.0 L 380.0,590.0 L 500.0,566.0 L 550.0,558.0 L 586.0,563.0"/>
    <path d="M 365.0,752.0 L 383.0,741.0 L 544.0,712.0 L 590.0,720.0"/>
    <path d="M 354.0,931.0 L 372.0,916.0 L 502.0,899.0 L 596.0,889.0 L 649.0,899.0"/>
  </g>
</svg>
