<svg xmlns="http://www.w3.org/2000/svg" viewBox="0 0 1024 1024">
  <g style="fill:none;stroke:#000000;stroke-width:50;stroke-linecap:round;stroke-linejoin:round;" transform="scale(1, 1) translate(0, 0)">
    <path d="M 335.0,313.0 L 362.0,330.0 L 686.0,274.0 L 735.0,273.0 L 772.0,280.0"/>
    <path d="M 519.0,331.0 L 545.0,355.0 L 552.0,371.0 L 542.0,470.0 L 529.0,491.0 L 517.0,498.0"/>
    <path d="M 327.0,543.0 L 336.0,552.0 L 370.0,550.0 L 511.0,528.0 L 638.0,499.0 L 675.0,499.0 L 689.0,506.0 L 715.0,536.0 L 683.0,617.0 L 654.0,635.0"/>
    <path d="M 312.0,727.0 L 330.0,715.0 L 638.0,666.0 L 690.0,667.0 L 718.0,675.0"/>
    <path d="M 521.0,712.0 L 548.0,732.0 L 554.0,755.0 L 542.0,878.0 L 520.0,893.0"/>
    <path d="M 253.0,296.0 L 288.0,324.0 L 295.0,347.0 L 288.0,639.0 L 264.0,945.0 L 304.0,951.0 L 479.0,928.0 L 767.0,910.0 L 818.0,911.0 L 883.0,932.0"/>
  </g>
</svg>
