<svg xmlns="http://www.w3.org/2000/svg" viewBox="0 0 1024 1024">
  <g style="fill:none;stroke:#000000;stroke-width:50;stroke-linecap:round;stroke-linejoin:round;" transform="scale(1, 1) translate(0, 0)">
    <path d="M 276.0,295.0 L 324.0,306.0 L 679.0,251.0 L 749.0,259.0"/>
    <path d="M 437.0,319.0 L 476.0,351.0 L 417.0,432.0 L 342.0,509.0 L 328.0,531.0 L 322.0,558.0 L 375.0,558.0 L 467.0,535.0 L 610.0,512.0 L 650.0,509.0 L 669.0,520.0"/>
    <path d="M 601.0,408.0 L 702.0,495.0 L 721.0,527.0 L 731.0,566.0"/>
    <path d="M 304.0,747.0 L 327.0,755.0 L 393.0,756.0 L 640.0,710.0 L 705.0,710.0"/>
    <path d="M 462.0,595.0 L 508.0,636.0 L 498.0,875.0 L 481.0,898.0"/>
    <path d="M 140.0,946.0 L 197.0,958.0 L 425.0,929.0 L 798.0,902.0 L 853.0,909.0 L 905.0,928.0"/>
  </g>
</svg>
