<svg xmlns="http://www.w3.org/2000/svg" viewBox="0 0 1024 1024">
  <g style="fill:none;stroke:#000000;stroke-width:50;stroke-linecap:round;stroke-linejoin:round;" transform="scale(1, 1) translate(0, 0)">
    <path d="M 352.0,311.0 L 363.0,320.0 L 374.0,349.0 L 337.0,390.0 L 281.0,438.0 L 279.0,449.0"/>
    <path d="M 210.0,442.0 L 245.0,469.0 L 251.0,483.0 L 311.0,725.0"/>
    <path d="M 309.0,570.0 L 316.0,558.0 L 364.0,545.0 L 420.0,546.0"/>
    <path d="M 576.0,358.0 L 614.0,364.0 L 719.0,352.0 L 741.0,363.0 L 766.0,395.0 L 735.0,489.0 L 718.0,589.0 L 690.0,691.0"/>
    <path d="M 573.0,517.0 L 684.0,506.0 L 700.0,495.0"/>
    <path d="M 332.0,709.0 L 348.0,696.0 L 363.0,693.0 L 588.0,662.0 L 630.0,660.0 L 649.0,663.0 L 658.0,673.0"/>
    <path d="M 450.0,190.0 L 490.0,218.0 L 503.0,235.0 L 502.0,437.0 L 492.0,622.0 L 482.0,694.0 L 462.0,772.0 L 437.0,828.0 L 406.0,876.0 L 326.0,954.0 L 222.0,1010.0 L 128.0,1042.0"/>
    <path d="M 508.0,728.0 L 512.0,753.0 L 572.0,819.0 L 707.0,954.0 L 759.0,995.0 L 800.0,1011.0 L 959.0,1032.0"/>
  </g>
</svg>
