<svg xmlns="http://www.w3.org/2000/svg" viewBox="0 0 1024 1024">
  <g style="fill:none;stroke:#000000;stroke-width:50;stroke-linecap:round;stroke-linejoin:round;" transform="scale(1, 1) translate(0, 0)">
    <path d="M 669.0,274.0 L 591.0,256.0 L 523.0,294.0 L 433.0,333.0 L 270.0,381.0"/>
    <path d="M 112.0,542.0 L 170.0,551.0 L 403.0,511.0 L 809.0,464.0 L 867.0,469.0 L 915.0,484.0"/>
    <path d="M 459.0,350.0 L 505.0,376.0 L 516.0,393.0 L 508.0,900.0 L 506.0,915.0 L 485.0,937.0"/>
    <path d="M 354.0,589.0 L 368.0,624.0 L 267.0,706.0 L 266.0,714.0"/>
    <path d="M 179.0,687.0 L 216.0,716.0 L 229.0,735.0 L 254.0,879.0 L 263.0,969.0 L 287.0,1048.0"/>
    <path d="M 274.0,842.0 L 291.0,823.0 L 314.0,815.0 L 382.0,805.0 L 414.0,811.0"/>
    <path d="M 582.0,639.0 L 633.0,639.0 L 738.0,602.0 L 768.0,598.0 L 799.0,614.0 L 820.0,645.0 L 762.0,953.0 L 738.0,995.0 L 680.0,975.0"/>
    <path d="M 615.0,796.0 L 739.0,783.0 L 756.0,773.0"/>
    <path d="M 300.0,969.0 L 320.0,985.0 L 629.0,948.0 L 681.0,946.0 L 714.0,952.0"/>
  </g>
</svg>
