<svg xmlns="http://www.w3.org/2000/svg" viewBox="0 0 1024 1024">
  <g style="fill:none;stroke:#000000;stroke-width:50;stroke-linecap:round;stroke-linejoin:round;" transform="scale(1, 1) translate(0, 0)">
    <path d="M 315.0,272.0 L 337.0,280.0 L 389.0,281.0 L 519.0,266.0 L 676.0,237.0 L 717.0,239.0"/>
    <path d="M 482.0,177.0 L 518.0,210.0 L 514.0,314.0 L 499.0,333.0"/>
    <path d="M 381.0,369.0 L 429.0,368.0 L 595.0,339.0 L 633.0,337.0 L 655.0,344.0"/>
    <path d="M 330.0,436.0 L 363.0,460.0 L 395.0,554.0"/>
    <path d="M 390.0,437.0 L 398.0,445.0 L 634.0,407.0 L 654.0,416.0 L 672.0,440.0 L 657.0,465.0 L 626.0,480.0"/>
    <path d="M 407.0,521.0 L 420.0,530.0 L 611.0,505.0 L 677.0,515.0"/>
    <path d="M 195.0,584.0 L 206.0,613.0 L 204.0,635.0 L 163.0,723.0 L 161.0,767.0"/>
    <path d="M 236.0,610.0 L 245.0,621.0 L 262.0,623.0 L 425.0,597.0 L 676.0,568.0 L 802.0,560.0 L 834.0,571.0 L 855.0,605.0 L 784.0,677.0 L 772.0,682.0"/>
    <path d="M 336.0,683.0 L 381.0,690.0 L 603.0,655.0 L 666.0,662.0"/>
    <path d="M 496.0,716.0 L 464.0,725.0 L 418.0,781.0 L 404.0,790.0 L 390.0,823.0 L 427.0,823.0 L 602.0,786.0 L 614.0,794.0"/>
    <path d="M 587.0,734.0 L 659.0,793.0 L 678.0,832.0"/>
    <path d="M 346.0,936.0 L 368.0,943.0 L 423.0,943.0 L 611.0,910.0 L 664.0,912.0"/>
    <path d="M 472.0,834.0 L 502.0,861.0 L 501.0,995.0 L 485.0,1013.0"/>
    <path d="M 188.0,1051.0 L 248.0,1063.0 L 472.0,1039.0 L 767.0,1024.0 L 810.0,1029.0 L 861.0,1047.0"/>
  </g>
</svg>
