<svg xmlns="http://www.w3.org/2000/svg" viewBox="0 0 1024 1024">
  <g style="fill:none;stroke:#000000;stroke-width:50;stroke-linecap:round;stroke-linejoin:round;" transform="scale(1, 1) translate(0, 0)">
    <path d="M 322.0,336.0 L 293.0,334.0 L 234.0,399.0 L 226.0,400.0"/>
    <path d="M 157.0,392.0 L 201.0,427.0 L 215.0,470.0 L 260.0,686.0 L 267.0,707.0 L 281.0,713.0"/>
    <path d="M 248.0,495.0 L 253.0,485.0 L 268.0,480.0 L 313.0,472.0 L 333.0,476.0"/>
    <path d="M 269.0,593.0 L 273.0,584.0 L 292.0,577.0 L 342.0,576.0"/>
    <path d="M 349.0,280.0 L 378.0,314.0 L 387.0,374.0 L 400.0,662.0 L 398.0,689.0 L 385.0,696.0"/>
    <path d="M 397.0,290.0 L 416.0,299.0 L 593.0,258.0 L 612.0,264.0 L 631.0,291.0 L 618.0,417.0 L 610.0,664.0 L 592.0,675.0"/>
    <path d="M 430.0,387.0 L 468.0,387.0 L 561.0,369.0"/>
    <path d="M 425.0,468.0 L 444.0,489.0 L 467.0,603.0"/>
    <path d="M 463.0,481.0 L 468.0,473.0 L 513.0,459.0 L 542.0,460.0 L 554.0,473.0 L 536.0,534.0 L 524.0,538.0"/>
    <path d="M 478.0,582.0 L 509.0,567.0 L 562.0,568.0"/>
    <path d="M 686.0,311.0 L 723.0,317.0 L 790.0,310.0 L 803.0,316.0 L 822.0,340.0 L 756.0,649.0 L 734.0,669.0"/>
    <path d="M 672.0,450.0 L 754.0,441.0 L 767.0,431.0"/>
    <path d="M 670.0,547.0 L 729.0,540.0 L 752.0,530.0"/>
    <path d="M 80.0,746.0 L 103.0,756.0 L 147.0,763.0 L 284.0,739.0 L 486.0,714.0 L 865.0,686.0 L 949.0,714.0"/>
    <path d="M 354.0,793.0 L 370.0,810.0 L 376.0,831.0 L 268.0,943.0 L 214.0,988.0 L 167.0,1016.0"/>
    <path d="M 615.0,802.0 L 736.0,915.0 L 760.0,954.0 L 771.0,993.0"/>
  </g>
</svg>
