<svg xmlns="http://www.w3.org/2000/svg" viewBox="0 0 1024 1024">
  <g style="fill:none;stroke:#000000;stroke-width:50;stroke-linecap:round;stroke-linejoin:round;" transform="scale(1, 1) translate(0, 0)">
    <path d="M 453.0,251.0 L 418.0,243.0 L 338.0,316.0 L 320.0,319.0"/>
    <path d="M 259.0,325.0 L 294.0,355.0 L 340.0,580.0"/>
    <path d="M 342.0,441.0 L 353.0,430.0 L 410.0,416.0 L 441.0,413.0 L 464.0,419.0"/>
    <path d="M 564.0,266.0 L 605.0,274.0 L 700.0,261.0 L 724.0,273.0 L 743.0,299.0 L 670.0,555.0"/>
    <path d="M 557.0,402.0 L 663.0,394.0 L 687.0,379.0"/>
    <path d="M 358.0,569.0 L 377.0,556.0 L 612.0,525.0 L 632.0,525.0 L 641.0,540.0"/>
    <path d="M 386.0,579.0 L 409.0,600.0 L 406.0,614.0 L 345.0,692.0 L 270.0,756.0"/>
    <path d="M 396.0,677.0 L 416.0,670.0 L 496.0,666.0 L 746.0,634.0 L 770.0,636.0 L 799.0,658.0 L 807.0,670.0 L 780.0,860.0 L 768.0,912.0 L 739.0,981.0 L 716.0,1006.0 L 698.0,1016.0 L 615.0,968.0 L 612.0,960.0 L 597.0,956.0"/>
    <path d="M 227.0,772.0 L 214.0,834.0 L 173.0,934.0"/>
    <path d="M 337.0,784.0 L 368.0,848.0 L 373.0,882.0"/>
    <path d="M 471.0,770.0 L 510.0,827.0 L 520.0,858.0"/>
    <path d="M 587.0,739.0 L 661.0,810.0 L 677.0,850.0"/>
  </g>
</svg>
