<svg xmlns="http://www.w3.org/2000/svg" viewBox="0 0 1024 1024">
  <g style="fill:none;stroke:#000000;stroke-width:50;stroke-linecap:round;stroke-linejoin:round;" transform="scale(1, 1) translate(0, 0)">
    <path d="M 288.0,280.0 L 302.0,302.0 L 256.0,359.0 L 257.0,365.0"/>
    <path d="M 194.0,360.0 L 231.0,390.0 L 276.0,593.0 L 291.0,602.0"/>
    <path d="M 274.0,441.0 L 280.0,430.0 L 296.0,425.0 L 346.0,424.0"/>
    <path d="M 281.0,519.0 L 293.0,509.0 L 325.0,504.0 L 353.0,508.0"/>
    <path d="M 362.0,262.0 L 383.0,277.0 L 396.0,306.0 L 413.0,576.0 L 426.0,585.0"/>
    <path d="M 407.0,267.0 L 415.0,275.0 L 438.0,278.0 L 599.0,248.0 L 614.0,255.0 L 625.0,271.0 L 631.0,282.0 L 618.0,353.0 L 607.0,545.0 L 590.0,571.0"/>
    <path d="M 422.0,349.0 L 436.0,356.0 L 467.0,355.0 L 575.0,333.0 L 588.0,340.0"/>
    <path d="M 433.0,433.0 L 437.0,439.0 L 456.0,440.0 L 570.0,420.0 L 585.0,427.0"/>
    <path d="M 483.0,454.0 L 504.0,474.0 L 502.0,571.0 L 494.0,578.0"/>
    <path d="M 691.0,292.0 L 722.0,297.0 L 787.0,287.0 L 797.0,290.0 L 815.0,312.0 L 767.0,529.0 L 745.0,552.0"/>
    <path d="M 686.0,390.0 L 740.0,385.0 L 757.0,387.0 L 762.0,394.0"/>
    <path d="M 671.0,477.0 L 752.0,463.0"/>
    <path d="M 161.0,590.0 L 174.0,618.0 L 173.0,638.0 L 137.0,721.0 L 134.0,776.0"/>
    <path d="M 205.0,626.0 L 227.0,637.0 L 468.0,600.0 L 701.0,576.0 L 814.0,570.0 L 839.0,577.0 L 865.0,612.0 L 790.0,683.0"/>
    <path d="M 361.0,678.0 L 385.0,701.0 L 392.0,725.0 L 399.0,979.0 L 412.0,990.0"/>
    <path d="M 411.0,689.0 L 420.0,698.0 L 437.0,700.0 L 600.0,668.0 L 619.0,676.0 L 639.0,703.0 L 623.0,954.0 L 602.0,975.0"/>
    <path d="M 424.0,813.0 L 431.0,803.0 L 480.0,790.0 L 518.0,784.0 L 548.0,788.0"/>
    <path d="M 423.0,910.0 L 442.0,898.0 L 503.0,885.0 L 556.0,888.0"/>
    <path d="M 206.0,1019.0 L 257.0,1032.0 L 459.0,1010.0 L 789.0,994.0 L 868.0,1018.0"/>
  </g>
</svg>
