<svg xmlns="http://www.w3.org/2000/svg" viewBox="0 0 1024 1024">
  <g style="fill:none;stroke:#000000;stroke-width:50;stroke-linecap:round;stroke-linejoin:round;" transform="scale(1, 1) translate(0, 0)">
    <path d="M 371.0,309.0 L 323.0,312.0 L 300.0,339.0 L 248.0,382.0 L 180.0,425.0 L 127.0,449.0 L 118.0,446.0 L 116.0,452.0"/>
    <path d="M 49.0,582.0 L 111.0,584.0 L 308.0,531.0 L 348.0,524.0 L 389.0,528.0"/>
    <path d="M 218.0,428.0 L 244.0,440.0 L 252.0,458.0 L 233.0,651.0 L 218.0,670.0"/>
    <path d="M 100.0,696.0 L 125.0,719.0 L 133.0,741.0 L 164.0,910.0"/>
    <path d="M 154.0,702.0 L 166.0,708.0 L 280.0,672.0 L 300.0,676.0 L 320.0,697.0 L 318.0,708.0 L 299.0,783.0 L 276.0,794.0"/>
    <path d="M 179.0,864.0 L 191.0,849.0 L 223.0,839.0 L 274.0,827.0 L 332.0,828.0"/>
    <path d="M 477.0,304.0 L 538.0,310.0 L 590.0,302.0 L 699.0,272.0 L 738.0,275.0"/>
    <path d="M 408.0,488.0 L 475.0,489.0 L 603.0,461.0 L 744.0,439.0 L 825.0,452.0"/>
    <path d="M 553.0,336.0 L 575.0,352.0 L 582.0,369.0 L 531.0,528.0 L 493.0,602.0 L 448.0,662.0 L 387.0,717.0"/>
    <path d="M 625.0,481.0 L 642.0,491.0 L 734.0,602.0 L 834.0,695.0 L 899.0,715.0 L 981.0,728.0"/>
    <path d="M 551.0,631.0 L 585.0,661.0 L 593.0,677.0 L 589.0,732.0 L 594.0,895.0 L 588.0,968.0 L 574.0,996.0 L 565.0,995.0 L 465.0,946.0"/>
    <path d="M 459.0,774.0 L 442.0,831.0 L 397.0,921.0"/>
    <path d="M 660.0,797.0 L 699.0,865.0 L 707.0,896.0"/>
    <path d="M 731.0,744.0 L 828.0,846.0 L 845.0,896.0"/>
  </g>
</svg>
