<svg xmlns="http://www.w3.org/2000/svg" viewBox="0 0 1024 1024">
  <g style="fill:none;stroke:#000000;stroke-width:50;stroke-linecap:round;stroke-linejoin:round;" transform="scale(1, 1) translate(0, 0)">
    <path d="M 487.0,185.0 L 519.0,219.0 L 422.0,365.0 L 407.0,370.0"/>
    <path d="M 352.0,373.0 L 370.0,384.0 L 395.0,416.0 L 395.0,594.0 L 387.0,688.0 L 374.0,753.0 L 326.0,878.0 L 289.0,935.0 L 238.0,992.0 L 177.0,1035.0"/>
    <path d="M 428.0,383.0 L 436.0,392.0 L 451.0,393.0 L 608.0,356.0 L 640.0,372.0 L 654.0,389.0 L 652.0,463.0 L 667.0,826.0 L 666.0,976.0 L 646.0,1012.0 L 614.0,1006.0 L 519.0,967.0"/>
    <path d="M 479.0,487.0 L 525.0,523.0 L 548.0,554.0"/>
    <path d="M 111.0,666.0 L 165.0,678.0 L 475.0,640.0 L 826.0,614.0 L 874.0,618.0 L 933.0,636.0"/>
    <path d="M 464.0,715.0 L 527.0,760.0 L 555.0,804.0"/>
  </g>
</svg>
