<svg xmlns="http://www.w3.org/2000/svg" viewBox="0 0 1024 1024">
  <g style="fill:none;stroke:#000000;stroke-width:50;stroke-linecap:round;stroke-linejoin:round;" transform="scale(1, 1) translate(0, 0)">
    <path d="M 337.0,196.0 L 360.0,212.0 L 369.0,228.0 L 291.0,350.0 L 284.0,370.0 L 266.0,387.0"/>
    <path d="M 192.0,379.0 L 214.0,394.0 L 228.0,416.0 L 233.0,566.0 L 223.0,703.0 L 201.0,801.0 L 177.0,871.0 L 135.0,958.0 L 106.0,998.0"/>
    <path d="M 260.0,412.0 L 271.0,401.0 L 368.0,374.0 L 396.0,390.0 L 406.0,404.0 L 403.0,536.0 L 413.0,823.0 L 409.0,933.0 L 394.0,963.0 L 360.0,956.0 L 282.0,926.0"/>
    <path d="M 295.0,481.0 L 329.0,531.0 L 332.0,545.0"/>
    <path d="M 72.0,674.0 L 122.0,693.0 L 178.0,671.0 L 361.0,618.0 L 378.0,604.0"/>
    <path d="M 275.0,711.0 L 321.0,758.0 L 332.0,795.0"/>
    <path d="M 504.0,315.0 L 529.0,342.0 L 535.0,381.0 L 533.0,569.0 L 519.0,658.0 L 519.0,712.0"/>
    <path d="M 551.0,329.0 L 573.0,333.0 L 721.0,287.0 L 738.0,290.0 L 769.0,323.0 L 763.0,389.0 L 766.0,637.0 L 759.0,702.0"/>
    <path d="M 600.0,400.0 L 619.0,409.0 L 644.0,435.0 L 625.0,661.0 L 612.0,717.0 L 570.0,823.0 L 535.0,877.0 L 494.0,918.0 L 459.0,939.0"/>
    <path d="M 648.0,666.0 L 681.0,719.0 L 670.0,809.0 L 675.0,928.0 L 689.0,960.0 L 713.0,976.0 L 799.0,989.0 L 885.0,982.0 L 935.0,967.0 L 944.0,960.0 L 946.0,946.0 L 948.0,813.0"/>
  </g>
</svg>
