<svg xmlns="http://www.w3.org/2000/svg" viewBox="0 0 1024 1024">
  <g style="fill:none;stroke:#000000;stroke-width:50;stroke-linecap:round;stroke-linejoin:round;" transform="scale(1, 1) translate(0, 0)">
    <path d="M 298.0,202.0 L 311.0,209.0 L 329.0,238.0 L 272.0,329.0 L 233.0,376.0 L 235.0,382.0"/>
    <path d="M 179.0,386.0 L 211.0,417.0 L 217.0,456.0 L 214.0,617.0 L 203.0,710.0 L 183.0,795.0 L 162.0,854.0 L 112.0,954.0 L 83.0,994.0"/>
    <path d="M 245.0,399.0 L 264.0,407.0 L 350.0,381.0 L 379.0,396.0 L 393.0,417.0 L 388.0,652.0 L 392.0,876.0 L 385.0,928.0 L 368.0,955.0 L 265.0,908.0"/>
    <path d="M 276.0,502.0 L 314.0,542.0 L 322.0,559.0"/>
    <path d="M 56.0,681.0 L 104.0,699.0 L 353.0,630.0 L 359.0,620.0"/>
    <path d="M 261.0,723.0 L 296.0,757.0 L 316.0,788.0"/>
    <path d="M 812.0,348.0 L 742.0,337.0 L 658.0,387.0 L 601.0,411.0 L 585.0,415.0 L 578.0,410.0"/>
    <path d="M 507.0,402.0 L 541.0,438.0 L 533.0,638.0 L 514.0,727.0 L 491.0,795.0 L 427.0,907.0"/>
    <path d="M 569.0,581.0 L 583.0,588.0 L 609.0,585.0 L 716.0,558.0 L 737.0,558.0 L 773.0,570.0 L 762.0,628.0 L 736.0,710.0 L 703.0,781.0 L 678.0,818.0 L 650.0,849.0 L 602.0,886.0 L 557.0,910.0 L 493.0,927.0"/>
    <path d="M 558.0,656.0 L 710.0,839.0 L 798.0,921.0 L 844.0,937.0 L 949.0,950.0"/>
  </g>
</svg>
