<svg xmlns="http://www.w3.org/2000/svg" viewBox="0 0 1024 1024">
  <g style="fill:none;stroke:#000000;stroke-width:50;stroke-linecap:round;stroke-linejoin:round;" transform="scale(1, 1) translate(0, 0)">
    <path d="M 339.0,227.0 L 352.0,231.0 L 375.0,253.0 L 335.0,351.0 L 304.0,405.0"/>
    <path d="M 204.0,419.0 L 227.0,434.0 L 241.0,460.0 L 246.0,573.0 L 239.0,715.0 L 205.0,857.0 L 153.0,971.0 L 126.0,1010.0"/>
    <path d="M 267.0,427.0 L 283.0,436.0 L 380.0,407.0 L 408.0,420.0 L 421.0,440.0 L 417.0,616.0 L 423.0,863.0 L 418.0,945.0 L 400.0,976.0 L 370.0,969.0 L 286.0,926.0"/>
    <path d="M 305.0,522.0 L 348.0,574.0"/>
    <path d="M 49.0,706.0 L 99.0,726.0 L 190.0,696.0 L 382.0,646.0 L 389.0,636.0"/>
    <path d="M 300.0,738.0 L 336.0,775.0 L 350.0,800.0"/>
    <path d="M 613.0,233.0 L 703.0,295.0 L 729.0,338.0"/>
    <path d="M 524.0,484.0 L 548.0,490.0 L 609.0,484.0 L 801.0,430.0 L 869.0,422.0"/>
    <path d="M 540.0,611.0 L 558.0,623.0 L 574.0,648.0 L 573.0,719.0 L 563.0,790.0 L 531.0,877.0 L 487.0,929.0 L 457.0,948.0"/>
    <path d="M 606.0,624.0 L 615.0,629.0 L 696.0,603.0 L 721.0,607.0 L 731.0,619.0 L 699.0,782.0 L 700.0,844.0 L 707.0,889.0 L 723.0,927.0 L 747.0,954.0 L 775.0,973.0 L 811.0,986.0 L 859.0,990.0 L 896.0,983.0 L 933.0,964.0 L 942.0,947.0 L 947.0,804.0"/>
  </g>
</svg>
