<svg xmlns="http://www.w3.org/2000/svg" viewBox="0 0 1024 1024">
  <g style="fill:none;stroke:#000000;stroke-width:50;stroke-linecap:round;stroke-linejoin:round;" transform="scale(1, 1) translate(0, 0)">
    <path d="M 312.0,199.0 L 327.0,207.0 L 347.0,232.0 L 297.0,318.0 L 246.0,381.0 L 246.0,394.0"/>
    <path d="M 194.0,390.0 L 219.0,410.0 L 231.0,430.0 L 227.0,617.0 L 218.0,697.0 L 197.0,785.0 L 162.0,879.0 L 107.0,976.0 L 91.0,993.0"/>
    <path d="M 264.0,420.0 L 275.0,409.0 L 359.0,381.0 L 380.0,385.0 L 400.0,408.0 L 397.0,560.0 L 403.0,834.0 L 397.0,891.0 L 390.0,911.0 L 379.0,921.0 L 274.0,882.0"/>
    <path d="M 286.0,492.0 L 320.0,534.0 L 327.0,553.0"/>
    <path d="M 56.0,663.0 L 103.0,681.0 L 339.0,623.0 L 364.0,615.0 L 371.0,605.0"/>
    <path d="M 275.0,711.0 L 306.0,748.0 L 322.0,779.0"/>
    <path d="M 649.0,194.0 L 687.0,231.0 L 675.0,436.0 L 670.0,453.0 L 659.0,462.0"/>
    <path d="M 706.0,344.0 L 720.0,331.0 L 756.0,321.0 L 807.0,313.0 L 840.0,319.0"/>
    <path d="M 594.0,508.0 L 608.0,493.0 L 709.0,476.0 L 776.0,457.0 L 803.0,460.0 L 835.0,487.0 L 809.0,560.0 L 786.0,577.0"/>
    <path d="M 578.0,648.0 L 602.0,633.0 L 772.0,605.0 L 816.0,604.0 L 842.0,613.0"/>
    <path d="M 523.0,465.0 L 548.0,486.0 L 558.0,510.0 L 558.0,583.0 L 541.0,724.0 L 526.0,798.0 L 508.0,851.0 L 468.0,936.0 L 415.0,1011.0"/>
  </g>
</svg>
