<svg xmlns="http://www.w3.org/2000/svg" viewBox="0 0 1024 1024">
  <g style="fill:none;stroke:#000000;stroke-width:50;stroke-linecap:round;stroke-linejoin:round;" transform="scale(1, 1) translate(0, 0)">
    <path d="M 338.0,226.0 L 368.0,258.0 L 281.0,395.0 L 273.0,404.0 L 261.0,403.0"/>
    <path d="M 203.0,410.0 L 232.0,433.0 L 241.0,462.0 L 240.0,643.0 L 227.0,746.0 L 184.0,895.0 L 147.0,969.0 L 110.0,1024.0"/>
    <path d="M 259.0,419.0 L 280.0,432.0 L 370.0,401.0 L 391.0,406.0 L 413.0,431.0 L 414.0,886.0 L 407.0,956.0 L 391.0,978.0 L 291.0,944.0"/>
    <path d="M 292.0,522.0 L 329.0,552.0 L 345.0,578.0"/>
    <path d="M 72.0,693.0 L 120.0,711.0 L 375.0,639.0 L 381.0,630.0"/>
    <path d="M 290.0,725.0 L 334.0,772.0 L 347.0,797.0"/>
    <path d="M 642.0,231.0 L 687.0,271.0 L 674.0,533.0 L 656.0,554.0"/>
    <path d="M 511.0,398.0 L 575.0,449.0 L 591.0,482.0"/>
    <path d="M 816.0,315.0 L 835.0,335.0 L 839.0,360.0 L 729.0,464.0"/>
    <path d="M 543.0,561.0 L 571.0,587.0 L 577.0,684.0 L 558.0,879.0 L 535.0,973.0 L 531.0,1019.0"/>
    <path d="M 603.0,576.0 L 619.0,581.0 L 654.0,577.0 L 762.0,545.0 L 792.0,560.0 L 805.0,577.0 L 804.0,690.0 L 817.0,959.0 L 810.0,996.0 L 795.0,1018.0 L 764.0,1010.0 L 686.0,972.0"/>
    <path d="M 596.0,717.0 L 605.0,715.0 L 610.0,705.0 L 664.0,694.0 L 714.0,687.0 L 735.0,693.0"/>
    <path d="M 588.0,826.0 L 602.0,815.0 L 696.0,799.0 L 739.0,805.0"/>
  </g>
</svg>
