<svg xmlns="http://www.w3.org/2000/svg" viewBox="0 0 1024 1024">
  <g style="fill:none;stroke:#000000;stroke-width:50;stroke-linecap:round;stroke-linejoin:round;" transform="scale(1, 1) translate(0, 0)">
    <path d="M 320.0,215.0 L 344.0,242.0 L 301.0,324.0 L 263.0,374.0 L 259.0,390.0"/>
    <path d="M 204.0,386.0 L 231.0,406.0 L 241.0,435.0 L 239.0,575.0 L 224.0,717.0 L 177.0,872.0 L 140.0,946.0 L 103.0,999.0"/>
    <path d="M 271.0,423.0 L 283.0,412.0 L 380.0,383.0 L 399.0,389.0 L 420.0,411.0 L 420.0,858.0 L 414.0,941.0 L 396.0,970.0 L 367.0,961.0 L 293.0,919.0"/>
    <path d="M 291.0,493.0 L 332.0,532.0 L 341.0,550.0"/>
    <path d="M 66.0,667.0 L 115.0,689.0 L 380.0,621.0 L 388.0,611.0"/>
    <path d="M 291.0,705.0 L 336.0,751.0 L 350.0,776.0"/>
    <path d="M 550.0,294.0 L 561.0,310.0 L 608.0,347.0 L 625.0,388.0"/>
    <path d="M 770.0,246.0 L 793.0,274.0 L 737.0,365.0 L 701.0,413.0 L 686.0,421.0"/>
    <path d="M 490.0,460.0 L 513.0,467.0 L 567.0,466.0 L 684.0,450.0 L 859.0,412.0 L 910.0,412.0"/>
    <path d="M 633.0,483.0 L 649.0,501.0 L 610.0,569.0 L 596.0,580.0"/>
    <path d="M 534.0,574.0 L 560.0,602.0 L 564.0,616.0 L 567.0,687.0 L 553.0,918.0 L 557.0,975.0"/>
    <path d="M 586.0,592.0 L 605.0,598.0 L 758.0,562.0 L 782.0,567.0 L 807.0,590.0 L 814.0,915.0 L 802.0,953.0 L 805.0,1006.0"/>
    <path d="M 586.0,713.0 L 669.0,692.0 L 714.0,687.0 L 735.0,693.0"/>
    <path d="M 589.0,817.0 L 598.0,811.0 L 699.0,795.0 L 742.0,800.0"/>
    <path d="M 583.0,945.0 L 602.0,935.0 L 663.0,924.0 L 758.0,917.0"/>
  </g>
</svg>
