<svg xmlns="http://www.w3.org/2000/svg" viewBox="0 0 1024 1024">
  <g style="fill:none;stroke:#000000;stroke-width:50;stroke-linecap:round;stroke-linejoin:round;" transform="scale(1, 1) translate(0, 0)">
    <path d="M 296.0,198.0 L 309.0,204.0 L 326.0,229.0 L 270.0,338.0 L 242.0,381.0 L 231.0,385.0"/>
    <path d="M 184.0,389.0 L 208.0,408.0 L 218.0,427.0 L 217.0,611.0 L 210.0,697.0 L 166.0,856.0 L 132.0,930.0 L 82.0,1008.0"/>
    <path d="M 230.0,395.0 L 258.0,404.0 L 335.0,379.0 L 352.0,385.0 L 374.0,408.0 L 376.0,952.0 L 359.0,984.0 L 266.0,946.0"/>
    <path d="M 272.0,496.0 L 297.0,533.0 L 306.0,558.0"/>
    <path d="M 48.0,693.0 L 96.0,711.0 L 332.0,645.0 L 347.0,632.0"/>
    <path d="M 264.0,730.0 L 300.0,767.0 L 314.0,792.0"/>
    <path d="M 853.0,381.0 L 788.0,374.0 L 695.0,438.0 L 664.0,448.0 L 655.0,457.0 L 617.0,465.0 L 608.0,474.0"/>
    <path d="M 602.0,608.0 L 669.0,608.0 L 840.0,567.0 L 888.0,570.0"/>
    <path d="M 719.0,448.0 L 742.0,464.0 L 747.0,501.0 L 743.0,718.0 L 738.0,733.0 L 727.0,742.0"/>
    <path d="M 623.0,770.0 L 658.0,777.0 L 700.0,775.0 L 842.0,752.0 L 883.0,759.0"/>
    <path d="M 425.0,461.0 L 501.0,436.0 L 516.0,435.0 L 531.0,445.0 L 513.0,515.0 L 475.0,607.0 L 487.0,617.0 L 515.0,615.0 L 541.0,623.0 L 547.0,635.0 L 541.0,686.0 L 502.0,798.0 L 467.0,859.0 L 413.0,926.0"/>
    <path d="M 437.0,769.0 L 477.0,772.0 L 524.0,794.0 L 667.0,889.0 L 780.0,944.0 L 835.0,949.0 L 967.0,937.0"/>
  </g>
</svg>
