<svg xmlns="http://www.w3.org/2000/svg" viewBox="0 0 1024 1024">
  <g style="fill:none;stroke:#000000;stroke-width:50;stroke-linecap:round;stroke-linejoin:round;" transform="scale(1, 1) translate(0, 0)">
    <path d="M 320.0,190.0 L 344.0,218.0 L 301.0,299.0 L 238.0,390.0"/>
    <path d="M 176.0,383.0 L 211.0,412.0 L 214.0,421.0 L 218.0,547.0 L 209.0,689.0 L 193.0,774.0 L 160.0,873.0 L 118.0,958.0 L 90.0,997.0"/>
    <path d="M 239.0,397.0 L 256.0,403.0 L 333.0,377.0 L 356.0,381.0 L 378.0,403.0 L 371.0,940.0 L 362.0,967.0 L 351.0,979.0 L 262.0,938.0"/>
    <path d="M 271.0,492.0 L 301.0,529.0 L 311.0,552.0"/>
    <path d="M 50.0,665.0 L 97.0,686.0 L 148.0,670.0 L 404.0,617.0 L 438.0,600.0"/>
    <path d="M 259.0,718.0 L 299.0,761.0 L 311.0,785.0"/>
    <path d="M 609.0,201.0 L 631.0,220.0 L 642.0,241.0 L 609.0,325.0 L 542.0,442.0 L 487.0,520.0 L 442.0,566.0"/>
    <path d="M 671.0,279.0 L 670.0,290.0 L 771.0,403.0 L 852.0,476.0 L 989.0,504.0"/>
    <path d="M 612.0,417.0 L 675.0,454.0 L 687.0,476.0"/>
    <path d="M 569.0,551.0 L 580.0,557.0 L 724.0,515.0 L 752.0,521.0 L 769.0,538.0 L 772.0,556.0 L 734.0,701.0 L 719.0,735.0 L 698.0,735.0"/>
    <path d="M 564.0,659.0 L 573.0,649.0 L 627.0,635.0 L 670.0,630.0 L 689.0,635.0"/>
    <path d="M 550.0,747.0 L 563.0,736.0 L 616.0,723.0 L 693.0,714.0"/>
    <path d="M 511.0,535.0 L 535.0,558.0 L 542.0,582.0 L 537.0,668.0 L 522.0,766.0 L 479.0,896.0 L 439.0,962.0 L 419.0,983.0"/>
    <path d="M 523.0,853.0 L 552.0,889.0 L 577.0,1045.0"/>
    <path d="M 580.0,881.0 L 603.0,867.0 L 664.0,858.0 L 737.0,838.0 L 764.0,841.0 L 797.0,873.0 L 765.0,943.0 L 738.0,959.0"/>
    <path d="M 592.0,1021.0 L 608.0,1005.0 L 719.0,988.0 L 795.0,998.0"/>
  </g>
</svg>
