<svg xmlns="http://www.w3.org/2000/svg" viewBox="0 0 1024 1024">
  <g style="fill:none;stroke:#000000;stroke-width:50;stroke-linecap:round;stroke-linejoin:round;" transform="scale(1, 1) translate(0, 0)">
    <path d="M 272.0,227.0 L 296.0,254.0 L 266.0,317.0 L 220.0,384.0"/>
    <path d="M 161.0,389.0 L 195.0,421.0 L 197.0,554.0 L 186.0,677.0 L 172.0,747.0 L 136.0,848.0 L 97.0,925.0 L 70.0,960.0"/>
    <path d="M 227.0,420.0 L 244.0,407.0 L 315.0,390.0 L 334.0,397.0 L 354.0,419.0 L 357.0,823.0 L 351.0,924.0 L 335.0,945.0 L 245.0,900.0"/>
    <path d="M 243.0,505.0 L 275.0,533.0 L 289.0,555.0"/>
    <path d="M 56.0,656.0 L 100.0,673.0 L 320.0,616.0 L 325.0,607.0"/>
    <path d="M 239.0,707.0 L 276.0,749.0 L 288.0,772.0"/>
    <path d="M 425.0,338.0 L 478.0,337.0 L 777.0,294.0 L 825.0,296.0 L 853.0,307.0"/>
    <path d="M 502.0,239.0 L 538.0,263.0 L 563.0,382.0"/>
    <path d="M 691.0,197.0 L 715.0,231.0 L 687.0,327.0 L 664.0,381.0"/>
    <path d="M 443.0,423.0 L 454.0,448.0 L 454.0,468.0 L 431.0,526.0 L 425.0,568.0"/>
    <path d="M 491.0,449.0 L 500.0,458.0 L 631.0,430.0 L 767.0,414.0 L 791.0,426.0 L 805.0,446.0 L 742.0,506.0"/>
    <path d="M 519.0,528.0 L 546.0,528.0 L 643.0,507.0 L 692.0,510.0"/>
    <path d="M 491.0,604.0 L 524.0,611.0 L 661.0,588.0 L 711.0,592.0"/>
    <path d="M 560.0,650.0 L 537.0,654.0 L 479.0,716.0 L 420.0,754.0 L 403.0,755.0 L 399.0,763.0"/>
    <path d="M 547.0,682.0 L 562.0,683.0 L 584.0,699.0 L 616.0,730.0 L 636.0,760.0 L 661.0,835.0 L 660.0,927.0 L 646.0,981.0 L 621.0,1011.0 L 518.0,970.0"/>
    <path d="M 561.0,703.0 L 564.0,733.0 L 547.0,754.0 L 491.0,802.0 L 434.0,835.0 L 419.0,835.0 L 416.0,842.0"/>
    <path d="M 612.0,763.0 L 605.0,808.0 L 545.0,876.0 L 454.0,946.0 L 393.0,974.0"/>
    <path d="M 741.0,616.0 L 755.0,647.0 L 658.0,733.0 L 660.0,741.0"/>
    <path d="M 665.0,770.0 L 674.0,773.0 L 714.0,821.0 L 826.0,901.0 L 887.0,916.0 L 977.0,922.0"/>
  </g>
</svg>
