<svg xmlns="http://www.w3.org/2000/svg" viewBox="0 0 1024 1024">
  <g style="fill:none;stroke:#000000;stroke-width:50;stroke-linecap:round;stroke-linejoin:round;" transform="scale(1, 1) translate(0, 0)">
    <path d="M 301.0,197.0 L 324.0,224.0 L 253.0,343.0 L 245.0,347.0 L 239.0,363.0 L 228.0,368.0 L 225.0,383.0"/>
    <path d="M 175.0,381.0 L 200.0,401.0 L 212.0,425.0 L 213.0,583.0 L 203.0,693.0 L 169.0,831.0 L 129.0,922.0 L 78.0,1003.0"/>
    <path d="M 240.0,390.0 L 251.0,396.0 L 330.0,372.0 L 357.0,386.0 L 367.0,400.0 L 366.0,937.0 L 349.0,973.0 L 262.0,939.0"/>
    <path d="M 269.0,490.0 L 299.0,526.0 L 310.0,549.0"/>
    <path d="M 57.0,651.0 L 103.0,669.0 L 169.0,648.0 L 391.0,596.0 L 434.0,578.0"/>
    <path d="M 255.0,711.0 L 290.0,746.0 L 304.0,770.0"/>
    <path d="M 507.0,322.0 L 515.0,329.0 L 545.0,328.0 L 642.0,304.0 L 676.0,304.0"/>
    <path d="M 578.0,341.0 L 591.0,358.0 L 588.0,404.0 L 571.0,417.0"/>
    <path d="M 500.0,467.0 L 511.0,459.0 L 576.0,445.0 L 617.0,427.0 L 636.0,426.0 L 658.0,446.0 L 636.0,494.0 L 619.0,503.0"/>
    <path d="M 502.0,546.0 L 523.0,547.0 L 609.0,525.0 L 653.0,529.0"/>
    <path d="M 577.0,557.0 L 592.0,575.0 L 587.0,634.0 L 573.0,643.0"/>
    <path d="M 456.0,302.0 L 480.0,329.0 L 487.0,417.0 L 474.0,686.0 L 512.0,685.0 L 640.0,657.0 L 681.0,656.0 L 693.0,661.0"/>
    <path d="M 758.0,228.0 L 798.0,258.0 L 790.0,318.0 L 767.0,407.0 L 738.0,487.0 L 703.0,555.0"/>
    <path d="M 766.0,479.0 L 777.0,472.0 L 817.0,471.0 L 905.0,447.0 L 944.0,447.0"/>
    <path d="M 772.0,566.0 L 846.0,614.0 L 871.0,652.0"/>
    <path d="M 474.0,801.0 L 501.0,826.0 L 529.0,925.0 L 540.0,937.0"/>
    <path d="M 523.0,802.0 L 538.0,813.0 L 764.0,771.0 L 826.0,771.0 L 850.0,802.0 L 824.0,880.0 L 808.0,897.0 L 795.0,900.0"/>
    <path d="M 610.0,825.0 L 605.0,831.0 L 610.0,862.0 L 622.0,918.0 L 630.0,926.0"/>
    <path d="M 692.0,801.0 L 717.0,821.0 L 702.0,899.0 L 688.0,921.0"/>
    <path d="M 441.0,958.0 L 488.0,966.0 L 661.0,943.0 L 871.0,927.0 L 908.0,930.0 L 951.0,944.0"/>
  </g>
</svg>
