<svg xmlns="http://www.w3.org/2000/svg" viewBox="0 0 1024 1024">
  <g style="fill:none;stroke:#000000;stroke-width:50;stroke-linecap:round;stroke-linejoin:round;" transform="scale(1, 1) translate(0, 0)">
    <path d="M 431.0,177.0 L 521.0,220.0 L 546.0,252.0"/>
    <path d="M 370.0,409.0 L 380.0,392.0 L 582.0,336.0 L 618.0,332.0 L 645.0,342.0 L 669.0,369.0 L 669.0,376.0 L 628.0,552.0 L 611.0,596.0 L 614.0,626.0"/>
    <path d="M 366.0,515.0 L 505.0,475.0 L 555.0,472.0"/>
    <path d="M 367.0,642.0 L 387.0,627.0 L 558.0,593.0 L 575.0,585.0"/>
    <path d="M 291.0,362.0 L 321.0,392.0 L 329.0,409.0 L 339.0,529.0 L 339.0,699.0 L 321.0,924.0 L 325.0,962.0 L 380.0,949.0 L 517.0,871.0"/>
    <path d="M 698.0,585.0 L 711.0,596.0 L 727.0,628.0 L 659.0,702.0 L 577.0,775.0 L 566.0,775.0"/>
    <path d="M 385.0,656.0 L 594.0,840.0 L 659.0,892.0 L 740.0,943.0 L 791.0,953.0 L 969.0,959.0"/>
  </g>
</svg>
