<svg xmlns="http://www.w3.org/2000/svg" viewBox="0 0 1024 1024">
  <g style="fill:none;stroke:#000000;stroke-width:50;stroke-linecap:round;stroke-linejoin:round;" transform="scale(1, 1) translate(0, 0)">
    <path d="M 304.0,197.0 L 341.0,227.0 L 343.0,236.0 L 334.0,542.0 L 320.0,556.0"/>
    <path d="M 160.0,377.0 L 193.0,376.0 L 267.0,351.0 L 290.0,349.0"/>
    <path d="M 184.0,444.0 L 213.0,442.0 L 259.0,425.0 L 278.0,424.0"/>
    <path d="M 189.0,508.0 L 231.0,503.0 L 269.0,488.0 L 290.0,488.0"/>
    <path d="M 194.0,286.0 L 222.0,312.0 L 227.0,330.0 L 246.0,556.0 L 239.0,575.0"/>
    <path d="M 382.0,325.0 L 425.0,326.0 L 470.0,311.0 L 509.0,309.0"/>
    <path d="M 379.0,404.0 L 474.0,382.0 L 490.0,387.0"/>
    <path d="M 375.0,477.0 L 449.0,460.0 L 481.0,461.0"/>
    <path d="M 421.0,247.0 L 448.0,279.0 L 414.0,522.0 L 402.0,543.0"/>
    <path d="M 81.0,455.0 L 119.0,489.0 L 141.0,624.0 L 375.0,565.0 L 468.0,552.0 L 478.0,540.0"/>
    <path d="M 534.0,375.0 L 554.0,417.0 L 494.0,592.0"/>
    <path d="M 231.0,681.0 L 285.0,675.0 L 404.0,642.0 L 449.0,643.0"/>
    <path d="M 188.0,747.0 L 218.0,772.0 L 248.0,856.0"/>
    <path d="M 234.0,746.0 L 246.0,752.0 L 378.0,719.0 L 398.0,720.0 L 408.0,725.0 L 423.0,749.0 L 412.0,775.0 L 388.0,791.0"/>
    <path d="M 261.0,830.0 L 269.0,836.0 L 375.0,813.0 L 433.0,817.0"/>
    <path d="M 215.0,889.0 L 252.0,924.0 L 257.0,938.0"/>
    <path d="M 371.0,834.0 L 386.0,848.0 L 391.0,867.0 L 360.0,935.0 L 340.0,952.0"/>
    <path d="M 120.0,999.0 L 168.0,1020.0 L 501.0,928.0"/>
    <path d="M 679.0,197.0 L 701.0,214.0 L 714.0,234.0 L 704.0,274.0 L 635.0,430.0 L 581.0,506.0"/>
    <path d="M 675.0,402.0 L 767.0,387.0 L 797.0,402.0 L 733.0,515.0 L 677.0,589.0"/>
    <path d="M 575.0,616.0 L 596.0,625.0 L 782.0,575.0 L 811.0,581.0 L 839.0,608.0 L 802.0,705.0 L 777.0,721.0"/>
    <path d="M 669.0,627.0 L 688.0,645.0 L 677.0,725.0 L 658.0,740.0"/>
    <path d="M 571.0,773.0 L 581.0,779.0 L 601.0,778.0 L 766.0,746.0 L 831.0,751.0"/>
    <path d="M 531.0,611.0 L 550.0,630.0 L 557.0,650.0 L 545.0,789.0 L 553.0,920.0 L 575.0,973.0 L 610.0,1001.0 L 680.0,1025.0 L 742.0,1031.0 L 832.0,1025.0 L 897.0,1005.0 L 945.0,969.0 L 952.0,845.0"/>
  </g>
</svg>
