<svg xmlns="http://www.w3.org/2000/svg" viewBox="0 0 1024 1024">
  <g style="fill:none;stroke:#000000;stroke-width:50;stroke-linecap:round;stroke-linejoin:round;" transform="scale(1, 1) translate(0, 0)">
    <path d="M 343.0,322.0 L 365.0,331.0 L 569.0,280.0 L 586.0,279.0 L 618.0,289.0 L 640.0,322.0 L 600.0,492.0 L 584.0,531.0 L 554.0,514.0"/>
    <path d="M 357.0,454.0 L 487.0,423.0 L 540.0,421.0"/>
    <path d="M 358.0,589.0 L 372.0,568.0 L 480.0,541.0 L 525.0,534.0 L 545.0,549.0"/>
    <path d="M 278.0,308.0 L 304.0,329.0 L 318.0,353.0 L 325.0,424.0 L 331.0,603.0 L 317.0,876.0 L 321.0,908.0 L 370.0,895.0 L 501.0,811.0"/>
    <path d="M 668.0,576.0 L 684.0,613.0 L 563.0,710.0 L 550.0,708.0"/>
    <path d="M 361.0,597.0 L 389.0,600.0 L 402.0,610.0 L 579.0,775.0 L 671.0,848.0 L 727.0,884.0 L 807.0,892.0 L 923.0,893.0"/>
  </g>
</svg>
