<svg xmlns="http://www.w3.org/2000/svg" viewBox="0 0 1024 1024">
  <g style="fill:none;stroke:#000000;stroke-width:50;stroke-linecap:round;stroke-linejoin:round;" transform="scale(1, 1) translate(0, 0)">
    <path d="M 167.0,486.0 L 188.0,511.0 L 198.0,535.0 L 189.0,694.0 L 222.0,694.0 L 284.0,666.0 L 400.0,628.0 L 415.0,609.0"/>
    <path d="M 438.0,446.0 L 461.0,481.0 L 440.0,650.0 L 441.0,689.0"/>
    <path d="M 283.0,273.0 L 331.0,313.0 L 326.0,611.0 L 308.0,779.0 L 285.0,855.0 L 240.0,929.0 L 191.0,974.0 L 127.0,1011.0"/>
    <path d="M 539.0,444.0 L 566.0,476.0 L 572.0,504.0 L 561.0,673.0 L 594.0,672.0 L 688.0,641.0 L 814.0,611.0 L 832.0,623.0"/>
    <path d="M 858.0,372.0 L 891.0,416.0 L 858.0,661.0"/>
    <path d="M 667.0,215.0 L 685.0,218.0 L 706.0,231.0 L 729.0,262.0 L 719.0,427.0 L 711.0,1074.0"/>
  </g>
</svg>
