<svg xmlns="http://www.w3.org/2000/svg" viewBox="0 0 1024 1024">
  <g style="fill:none;stroke:#000000;stroke-width:50;stroke-linecap:round;stroke-linejoin:round;" transform="scale(1, 1) translate(0, 0)">
    <path d="M 157.0,418.0 L 202.0,426.0 L 239.0,424.0 L 442.0,394.0 L 540.0,388.0 L 730.0,363.0 L 783.0,366.0 L 832.0,383.0"/>
    <path d="M 314.0,280.0 L 353.0,302.0 L 360.0,312.0 L 400.0,510.0"/>
    <path d="M 588.0,191.0 L 606.0,201.0 L 626.0,226.0 L 627.0,242.0 L 601.0,335.0 L 547.0,488.0"/>
    <path d="M 543.0,534.0 L 576.0,583.0 L 566.0,664.0 L 527.0,778.0 L 480.0,856.0 L 412.0,915.0 L 339.0,953.0 L 240.0,985.0 L 146.0,999.0"/>
    <path d="M 282.0,618.0 L 337.0,645.0 L 551.0,876.0 L 619.0,936.0 L 697.0,992.0 L 786.0,1014.0 L 948.0,1032.0"/>
  </g>
</svg>
