<svg xmlns="http://www.w3.org/2000/svg" viewBox="0 0 1024 1024">
  <g style="fill:none;stroke:#000000;stroke-width:50;stroke-linecap:round;stroke-linejoin:round;" transform="scale(1, 1) translate(0, 0)">
    <path d="M 184.0,437.0 L 235.0,453.0 L 335.0,432.0 L 346.0,438.0"/>
    <path d="M 312.0,324.0 L 349.0,345.0 L 361.0,366.0 L 388.0,481.0 L 392.0,534.0 L 411.0,573.0"/>
    <path d="M 642.0,270.0 L 657.0,278.0 L 678.0,309.0 L 630.0,479.0 L 614.0,523.0 L 597.0,539.0"/>
    <path d="M 678.0,413.0 L 700.0,400.0 L 757.0,392.0 L 795.0,392.0 L 838.0,406.0"/>
    <path d="M 284.0,595.0 L 340.0,606.0 L 655.0,559.0 L 699.0,558.0 L 736.0,567.0"/>
    <path d="M 164.0,750.0 L 219.0,762.0 L 434.0,732.0 L 786.0,706.0 L 870.0,731.0"/>
    <path d="M 470.0,209.0 L 496.0,225.0 L 515.0,248.0 L 519.0,291.0 L 507.0,1064.0"/>
  </g>
</svg>
