<svg xmlns="http://www.w3.org/2000/svg" viewBox="0 0 1024 1024">
  <g style="fill:none;stroke:#000000;stroke-width:50;stroke-linecap:round;stroke-linejoin:round;" transform="scale(1, 1) translate(0, 0)">
    <path d="M 217.0,355.0 L 257.0,362.0 L 315.0,358.0 L 477.0,333.0 L 751.0,304.0 L 809.0,311.0 L 832.0,321.0"/>
    <path d="M 359.0,232.0 L 397.0,259.0 L 433.0,441.0"/>
    <path d="M 614.0,182.0 L 638.0,201.0 L 650.0,222.0 L 619.0,341.0 L 587.0,428.0"/>
    <path d="M 318.0,518.0 L 341.0,526.0 L 397.0,526.0 L 618.0,486.0 L 701.0,480.0"/>
    <path d="M 123.0,707.0 L 185.0,717.0 L 439.0,680.0 L 820.0,648.0 L 909.0,668.0"/>
    <path d="M 484.0,537.0 L 516.0,561.0 L 533.0,685.0 L 537.0,848.0 L 533.0,921.0 L 522.0,978.0 L 507.0,1006.0 L 488.0,1024.0 L 368.0,952.0"/>
  </g>
</svg>
