<svg xmlns="http://www.w3.org/2000/svg" viewBox="0 0 1024 1024">
  <g style="fill:none;stroke:#000000;stroke-width:50;stroke-linecap:round;stroke-linejoin:round;" transform="scale(1, 1) translate(0, 0)">
    <path d="M 181.0,385.0 L 219.0,394.0 L 272.0,393.0 L 421.0,367.0 L 716.0,334.0 L 771.0,336.0 L 818.0,352.0"/>
    <path d="M 324.0,264.0 L 343.0,271.0 L 369.0,293.0 L 407.0,442.0"/>
    <path d="M 605.0,180.0 L 620.0,190.0 L 639.0,222.0 L 591.0,371.0 L 555.0,452.0"/>
    <path d="M 397.0,506.0 L 419.0,522.0 L 434.0,543.0 L 435.0,557.0 L 413.0,680.0 L 386.0,772.0 L 369.0,809.0 L 319.0,886.0 L 266.0,937.0 L 197.0,986.0 L 147.0,1010.0"/>
    <path d="M 211.0,668.0 L 277.0,668.0 L 534.0,588.0 L 574.0,582.0 L 610.0,587.0 L 629.0,607.0 L 581.0,749.0 L 569.0,817.0 L 569.0,863.0 L 579.0,909.0 L 604.0,955.0 L 625.0,975.0 L 679.0,997.0 L 759.0,1004.0 L 834.0,997.0 L 865.0,989.0 L 902.0,970.0 L 907.0,966.0 L 910.0,926.0 L 908.0,818.0"/>
    <path d="M 302.0,754.0 L 446.0,838.0 L 474.0,863.0 L 487.0,890.0"/>
  </g>
</svg>
