<svg xmlns="http://www.w3.org/2000/svg" viewBox="0 0 1024 1024">
  <g style="fill:none;stroke:#000000;stroke-width:50;stroke-linecap:round;stroke-linejoin:round;" transform="scale(1, 1) translate(0, 0)">
    <path d="M 182.0,350.0 L 240.0,359.0 L 287.0,356.0 L 509.0,325.0 L 734.0,304.0 L 799.0,308.0 L 844.0,323.0"/>
    <path d="M 361.0,230.0 L 383.0,240.0 L 402.0,258.0 L 432.0,403.0"/>
    <path d="M 616.0,184.0 L 630.0,192.0 L 648.0,222.0 L 587.0,385.0"/>
    <path d="M 327.0,473.0 L 386.0,476.0 L 584.0,436.0 L 636.0,434.0 L 669.0,468.0 L 641.0,528.0 L 609.0,550.0"/>
    <path d="M 395.0,596.0 L 422.0,606.0 L 598.0,577.0 L 650.0,575.0 L 677.0,585.0"/>
    <path d="M 327.0,590.0 L 350.0,606.0 L 365.0,626.0 L 339.0,697.0 L 329.0,748.0 L 392.0,748.0 L 478.0,728.0 L 646.0,702.0 L 670.0,709.0 L 702.0,739.0 L 696.0,793.0 L 663.0,886.0 L 619.0,963.0 L 583.0,1002.0 L 546.0,1022.0 L 425.0,968.0"/>
  </g>
</svg>
