<svg xmlns="http://www.w3.org/2000/svg" viewBox="0 0 1024 1024">
  <g style="fill:none;stroke:#000000;stroke-width:50;stroke-linecap:round;stroke-linejoin:round;" transform="scale(1, 1) translate(0, 0)">
    <path d="M 174.0,381.0 L 212.0,390.0 L 268.0,389.0 L 485.0,355.0 L 744.0,329.0 L 806.0,334.0 L 842.0,349.0"/>
    <path d="M 331.0,250.0 L 373.0,279.0 L 408.0,447.0"/>
    <path d="M 600.0,203.0 L 625.0,221.0 L 638.0,242.0 L 575.0,440.0"/>
    <path d="M 329.0,528.0 L 372.0,532.0 L 598.0,488.0 L 621.0,490.0 L 657.0,525.0 L 625.0,604.0 L 595.0,624.0"/>
    <path d="M 358.0,705.0 L 373.0,687.0 L 585.0,655.0 L 642.0,654.0 L 665.0,663.0"/>
    <path d="M 283.0,646.0 L 316.0,686.0 L 319.0,707.0 L 308.0,765.0 L 304.0,846.0 L 313.0,927.0 L 324.0,946.0 L 357.0,973.0 L 412.0,994.0 L 515.0,1005.0 L 641.0,1002.0 L 717.0,991.0 L 786.0,967.0 L 809.0,950.0 L 811.0,762.0"/>
  </g>
</svg>
