<svg xmlns="http://www.w3.org/2000/svg" viewBox="0 0 1024 1024">
  <g style="fill:none;stroke:#000000;stroke-width:50;stroke-linecap:round;stroke-linejoin:round;" transform="scale(1, 1) translate(0, 0)">
    <path d="M 177.0,389.0 L 215.0,398.0 L 268.0,397.0 L 415.0,371.0 L 706.0,337.0 L 771.0,341.0 L 810.0,356.0"/>
    <path d="M 321.0,263.0 L 339.0,270.0 L 365.0,294.0 L 396.0,458.0"/>
    <path d="M 593.0,202.0 L 611.0,211.0 L 632.0,243.0 L 598.0,358.0 L 563.0,449.0"/>
    <path d="M 321.0,713.0 L 432.0,685.0 L 469.0,684.0"/>
    <path d="M 243.0,550.0 L 276.0,584.0 L 285.0,612.0 L 289.0,755.0 L 277.0,884.0 L 279.0,922.0 L 304.0,920.0 L 341.0,906.0 L 461.0,839.0"/>
    <path d="M 746.0,566.0 L 755.0,578.0 L 762.0,611.0 L 662.0,679.0 L 589.0,717.0 L 579.0,731.0"/>
    <path d="M 506.0,494.0 L 528.0,509.0 L 562.0,548.0 L 549.0,868.0 L 557.0,924.0 L 584.0,956.0 L 624.0,974.0 L 712.0,982.0 L 809.0,972.0 L 859.0,950.0 L 874.0,940.0 L 876.0,927.0 L 882.0,780.0"/>
  </g>
</svg>
