<svg xmlns="http://www.w3.org/2000/svg" viewBox="0 0 1024 1024">
  <g style="fill:none;stroke:#000000;stroke-width:50;stroke-linecap:round;stroke-linejoin:round;" transform="scale(1, 1) translate(0, 0)">
    <path d="M 185.0,374.0 L 223.0,382.0 L 284.0,380.0 L 459.0,352.0 L 741.0,324.0 L 783.0,326.0 L 832.0,343.0"/>
    <path d="M 343.0,252.0 L 365.0,263.0 L 384.0,283.0 L 409.0,449.0"/>
    <path d="M 612.0,190.0 L 629.0,199.0 L 648.0,230.0 L 612.0,361.0 L 575.0,456.0"/>
    <path d="M 436.0,472.0 L 513.0,520.0 L 531.0,535.0 L 535.0,547.0"/>
    <path d="M 236.0,657.0 L 284.0,672.0 L 574.0,603.0 L 613.0,600.0 L 645.0,610.0 L 611.0,658.0 L 453.0,770.0 L 339.0,840.0 L 291.0,853.0"/>
    <path d="M 101.0,888.0 L 149.0,906.0 L 264.0,877.0 L 380.0,885.0 L 731.0,1005.0 L 788.0,1000.0 L 939.0,958.0"/>
  </g>
</svg>
