<svg xmlns="http://www.w3.org/2000/svg" viewBox="0 0 1024 1024">
  <g style="fill:none;stroke:#000000;stroke-width:50;stroke-linecap:round;stroke-linejoin:round;" transform="scale(1, 1) translate(0, 0)">
    <path d="M 194.0,370.0 L 218.0,377.0 L 284.0,378.0 L 450.0,353.0 L 707.0,327.0 L 771.0,332.0 L 808.0,347.0"/>
    <path d="M 329.0,275.0 L 352.0,285.0 L 373.0,304.0 L 411.0,469.0"/>
    <path d="M 608.0,215.0 L 623.0,223.0 L 646.0,254.0 L 618.0,364.0 L 587.0,448.0"/>
    <path d="M 318.0,574.0 L 327.0,579.0 L 394.0,581.0 L 596.0,542.0 L 661.0,541.0"/>
    <path d="M 182.0,735.0 L 234.0,744.0 L 512.0,705.0 L 741.0,683.0 L 788.0,690.0 L 823.0,703.0"/>
    <path d="M 460.0,442.0 L 496.0,482.0 L 495.0,537.0 L 479.0,664.0 L 441.0,794.0 L 402.0,866.0 L 363.0,916.0 L 289.0,971.0 L 233.0,1001.0 L 209.0,1007.0"/>
    <path d="M 497.0,734.0 L 508.0,740.0 L 635.0,899.0 L 706.0,969.0 L 868.0,1011.0"/>
  </g>
</svg>
