<svg xmlns="http://www.w3.org/2000/svg" viewBox="0 0 1024 1024">
  <g style="fill:none;stroke:#000000;stroke-width:50;stroke-linecap:round;stroke-linejoin:round;" transform="scale(1, 1) translate(0, 0)">
    <path d="M 206.0,354.0 L 251.0,362.0 L 309.0,360.0 L 489.0,333.0 L 717.0,311.0 L 755.0,312.0 L 812.0,331.0"/>
    <path d="M 323.0,245.0 L 367.0,279.0 L 396.0,443.0"/>
    <path d="M 610.0,189.0 L 625.0,197.0 L 644.0,229.0 L 622.0,303.0 L 576.0,420.0"/>
    <path d="M 464.0,417.0 L 490.0,461.0 L 445.0,531.0 L 385.0,602.0 L 309.0,677.0 L 251.0,723.0 L 152.0,783.0 L 104.0,804.0"/>
    <path d="M 518.0,497.0 L 528.0,515.0 L 600.0,576.0 L 780.0,706.0 L 843.0,719.0 L 975.0,729.0"/>
    <path d="M 437.0,619.0 L 518.0,663.0 L 536.0,689.0"/>
    <path d="M 317.0,794.0 L 358.0,808.0 L 382.0,807.0 L 590.0,753.0 L 618.0,753.0 L 638.0,768.0 L 644.0,777.0 L 632.0,809.0 L 568.0,939.0 L 533.0,991.0 L 518.0,1040.0"/>
  </g>
</svg>
