<svg xmlns="http://www.w3.org/2000/svg" viewBox="0 0 1024 1024">
  <g style="fill:none;stroke:#000000;stroke-width:50;stroke-linecap:round;stroke-linejoin:round;" transform="scale(1, 1) translate(0, 0)">
    <path d="M 186.0,360.0 L 236.0,369.0 L 460.0,337.0 L 731.0,314.0 L 786.0,319.0 L 834.0,333.0"/>
    <path d="M 328.0,232.0 L 367.0,261.0 L 397.0,445.0"/>
    <path d="M 610.0,171.0 L 625.0,181.0 L 644.0,212.0 L 596.0,349.0 L 564.0,421.0"/>
    <path d="M 460.0,402.0 L 486.0,445.0 L 437.0,521.0 L 373.0,596.0 L 306.0,662.0 L 242.0,713.0 L 180.0,753.0 L 92.0,796.0"/>
    <path d="M 516.0,480.0 L 520.0,493.0 L 614.0,573.0 L 773.0,685.0 L 797.0,697.0 L 851.0,708.0 L 983.0,717.0"/>
    <path d="M 360.0,689.0 L 395.0,726.0 L 372.0,840.0 L 355.0,884.0 L 333.0,920.0 L 286.0,969.0 L 207.0,1015.0"/>
    <path d="M 565.0,654.0 L 601.0,695.0 L 605.0,881.0 L 598.0,1010.0 L 604.0,1068.0"/>
  </g>
</svg>
