<svg xmlns="http://www.w3.org/2000/svg" viewBox="0 0 1024 1024">
  <g style="fill:none;stroke:#000000;stroke-width:50;stroke-linecap:round;stroke-linejoin:round;" transform="scale(1, 1) translate(0, 0)">
    <path d="M 161.0,438.0 L 197.0,445.0 L 248.0,444.0 L 432.0,411.0 L 718.0,376.0 L 792.0,375.0 L 839.0,391.0"/>
    <path d="M 299.0,288.0 L 329.0,303.0 L 348.0,323.0 L 388.0,530.0"/>
    <path d="M 610.0,213.0 L 629.0,222.0 L 653.0,255.0 L 614.0,414.0 L 579.0,515.0"/>
    <path d="M 218.0,684.0 L 207.0,755.0 L 154.0,889.0"/>
    <path d="M 310.0,649.0 L 328.0,677.0 L 349.0,785.0 L 373.0,855.0 L 403.0,897.0 L 428.0,920.0 L 495.0,955.0 L 578.0,974.0 L 661.0,977.0 L 728.0,967.0 L 775.0,941.0 L 770.0,905.0 L 714.0,780.0"/>
    <path d="M 443.0,604.0 L 537.0,674.0 L 561.0,722.0"/>
    <path d="M 689.0,603.0 L 828.0,681.0 L 851.0,703.0 L 879.0,751.0"/>
  </g>
</svg>
