<svg xmlns="http://www.w3.org/2000/svg" viewBox="0 0 1024 1024">
  <g style="fill:none;stroke:#000000;stroke-width:50;stroke-linecap:round;stroke-linejoin:round;" transform="scale(1, 1) translate(0, 0)">
    <path d="M 202.0,358.0 L 246.0,366.0 L 290.0,365.0 L 453.0,341.0 L 737.0,312.0 L 803.0,316.0 L 840.0,331.0"/>
    <path d="M 343.0,252.0 L 387.0,282.0 L 423.0,442.0"/>
    <path d="M 609.0,182.0 L 627.0,191.0 L 648.0,223.0 L 611.0,349.0 L 575.0,441.0"/>
    <path d="M 342.0,462.0 L 367.0,498.0 L 369.0,506.0 L 360.0,523.0 L 297.0,617.0 L 229.0,690.0 L 200.0,711.0"/>
    <path d="M 359.0,583.0 L 698.0,526.0 L 726.0,525.0 L 747.0,532.0 L 779.0,566.0 L 733.0,827.0 L 703.0,927.0 L 684.0,967.0 L 662.0,998.0 L 622.0,1025.0 L 529.0,942.0"/>
    <path d="M 411.0,593.0 L 440.0,628.0 L 424.0,665.0 L 345.0,771.0 L 292.0,821.0 L 238.0,853.0 L 235.0,860.0"/>
    <path d="M 561.0,572.0 L 564.0,582.0 L 594.0,612.0 L 564.0,705.0 L 522.0,788.0 L 474.0,855.0 L 423.0,909.0 L 336.0,976.0 L 288.0,1003.0"/>
  </g>
</svg>
