<svg xmlns="http://www.w3.org/2000/svg" viewBox="0 0 1024 1024">
  <g style="fill:none;stroke:#000000;stroke-width:50;stroke-linecap:round;stroke-linejoin:round;" transform="scale(1, 1) translate(0, 0)">
    <path d="M 206.0,378.0 L 250.0,386.0 L 294.0,385.0 L 464.0,360.0 L 733.0,335.0 L 783.0,340.0 L 820.0,355.0"/>
    <path d="M 338.0,248.0 L 356.0,255.0 L 382.0,277.0 L 420.0,454.0"/>
    <path d="M 606.0,180.0 L 623.0,191.0 L 643.0,223.0 L 601.0,356.0 L 555.0,468.0"/>
    <path d="M 339.0,559.0 L 361.0,566.0 L 413.0,567.0 L 613.0,529.0 L 659.0,531.0"/>
    <path d="M 143.0,723.0 L 206.0,732.0 L 388.0,702.0 L 769.0,662.0 L 812.0,662.0 L 882.0,681.0"/>
    <path d="M 510.0,735.0 L 493.0,736.0 L 468.0,749.0 L 428.0,819.0 L 350.0,921.0 L 343.0,945.0 L 379.0,949.0 L 560.0,911.0 L 637.0,899.0 L 667.0,900.0"/>
    <path d="M 610.0,794.0 L 676.0,859.0 L 731.0,924.0 L 752.0,963.0 L 760.0,999.0"/>
  </g>
</svg>
