<svg xmlns="http://www.w3.org/2000/svg" viewBox="0 0 1024 1024">
  <g style="fill:none;stroke:#000000;stroke-width:50;stroke-linecap:round;stroke-linejoin:round;" transform="scale(1, 1) translate(0, 0)">
    <path d="M 201.0,342.0 L 224.0,349.0 L 286.0,350.0 L 447.0,325.0 L 755.0,295.0 L 801.0,299.0 L 837.0,314.0"/>
    <path d="M 344.0,234.0 L 367.0,244.0 L 387.0,263.0 L 416.0,411.0"/>
    <path d="M 618.0,175.0 L 633.0,184.0 L 651.0,216.0 L 576.0,409.0"/>
    <path d="M 375.0,491.0 L 400.0,497.0 L 488.0,494.0 L 670.0,457.0 L 714.0,460.0"/>
    <path d="M 291.0,512.0 L 312.0,534.0 L 325.0,560.0 L 298.0,687.0 L 331.0,689.0 L 464.0,654.0 L 635.0,629.0 L 762.0,622.0 L 826.0,644.0"/>
    <path d="M 521.0,474.0 L 556.0,527.0 L 555.0,1000.0 L 543.0,1036.0 L 531.0,1049.0 L 497.0,1041.0 L 412.0,1005.0"/>
    <path d="M 521.0,674.0 L 464.0,758.0 L 374.0,854.0 L 256.0,940.0 L 165.0,984.0"/>
  </g>
</svg>
