<svg xmlns="http://www.w3.org/2000/svg" viewBox="0 0 1024 1024">
  <g style="fill:none;stroke:#000000;stroke-width:50;stroke-linecap:round;stroke-linejoin:round;" transform="scale(1, 1) translate(0, 0)">
    <path d="M 192.0,394.0 L 236.0,401.0 L 293.0,398.0 L 438.0,373.0 L 752.0,337.0 L 800.0,341.0 L 835.0,355.0"/>
    <path d="M 352.0,264.0 L 392.0,293.0 L 421.0,469.0"/>
    <path d="M 614.0,209.0 L 631.0,219.0 L 651.0,253.0 L 614.0,376.0 L 579.0,464.0"/>
    <path d="M 370.0,504.0 L 338.0,519.0 L 305.0,584.0 L 262.0,645.0 L 186.0,727.0 L 152.0,753.0"/>
    <path d="M 302.0,636.0 L 401.0,624.0 L 422.0,627.0 L 433.0,644.0 L 374.0,779.0 L 295.0,887.0 L 216.0,965.0 L 142.0,1012.0"/>
    <path d="M 241.0,744.0 L 296.0,797.0 L 307.0,823.0"/>
    <path d="M 590.0,583.0 L 599.0,566.0 L 613.0,561.0 L 720.0,539.0 L 751.0,544.0 L 773.0,565.0 L 744.0,713.0 L 733.0,743.0 L 717.0,762.0 L 691.0,757.0 L 623.0,724.0"/>
    <path d="M 533.0,546.0 L 553.0,568.0 L 561.0,599.0 L 547.0,772.0 L 551.0,876.0 L 571.0,948.0 L 603.0,980.0 L 660.0,1004.0 L 733.0,1015.0 L 822.0,1009.0 L 869.0,996.0 L 901.0,980.0 L 927.0,956.0 L 944.0,844.0"/>
  </g>
</svg>
