<svg xmlns="http://www.w3.org/2000/svg" viewBox="0 0 1024 1024">
  <g style="fill:none;stroke:#000000;stroke-width:50;stroke-linecap:round;stroke-linejoin:round;" transform="scale(1, 1) translate(0, 0)">
    <path d="M 201.0,369.0 L 223.0,375.0 L 287.0,376.0 L 479.0,343.0 L 746.0,313.0 L 794.0,318.0 L 830.0,331.0"/>
    <path d="M 337.0,251.0 L 357.0,259.0 L 384.0,283.0 L 416.0,442.0"/>
    <path d="M 602.0,186.0 L 619.0,195.0 L 640.0,228.0 L 571.0,441.0"/>
    <path d="M 374.0,526.0 L 397.0,538.0 L 452.0,534.0 L 684.0,487.0 L 727.0,489.0"/>
    <path d="M 315.0,504.0 L 339.0,533.0 L 345.0,555.0 L 322.0,679.0 L 286.0,805.0 L 233.0,924.0 L 188.0,993.0 L 118.0,1068.0"/>
    <path d="M 461.0,643.0 L 471.0,652.0 L 495.0,652.0 L 631.0,617.0 L 647.0,625.0 L 657.0,641.0 L 637.0,754.0 L 624.0,781.0 L 599.0,809.0 L 594.0,812.0 L 564.0,801.0 L 507.0,769.0"/>
    <path d="M 404.0,633.0 L 439.0,682.0 L 425.0,833.0 L 436.0,945.0 L 456.0,979.0 L 485.0,1000.0 L 550.0,1017.0 L 648.0,1023.0 L 770.0,1012.0 L 840.0,990.0 L 860.0,977.0 L 860.0,826.0"/>
  </g>
</svg>
