<svg xmlns="http://www.w3.org/2000/svg" viewBox="0 0 1024 1024">
  <g style="fill:none;stroke:#000000;stroke-width:50;stroke-linecap:round;stroke-linejoin:round;" transform="scale(1, 1) translate(0, 0)">
    <path d="M 185.0,394.0 L 208.0,401.0 L 272.0,401.0 L 480.0,369.0 L 757.0,340.0 L 811.0,343.0 L 856.0,359.0"/>
    <path d="M 333.0,251.0 L 372.0,279.0 L 400.0,449.0"/>
    <path d="M 605.0,201.0 L 621.0,210.0 L 640.0,240.0 L 608.0,352.0 L 571.0,448.0"/>
    <path d="M 289.0,631.0 L 319.0,643.0 L 343.0,645.0 L 631.0,591.0 L 661.0,604.0 L 672.0,619.0 L 635.0,837.0 L 611.0,918.0 L 583.0,978.0 L 561.0,1000.0 L 544.0,1006.0 L 457.0,935.0"/>
    <path d="M 456.0,468.0 L 491.0,516.0 L 460.0,658.0 L 423.0,766.0 L 395.0,827.0 L 355.0,893.0 L 306.0,950.0 L 248.0,995.0 L 194.0,1025.0 L 164.0,1034.0"/>
    <path d="M 266.0,721.0 L 228.0,802.0 L 187.0,860.0"/>
    <path d="M 752.0,711.0 L 854.0,794.0 L 874.0,823.0 L 883.0,852.0"/>
  </g>
</svg>
