<svg xmlns="http://www.w3.org/2000/svg" viewBox="0 0 1024 1024">
  <g style="fill:none;stroke:#000000;stroke-width:50;stroke-linecap:round;stroke-linejoin:round;" transform="scale(1, 1) translate(0, 0)">
    <path d="M 201.0,362.0 L 258.0,370.0 L 303.0,367.0 L 448.0,343.0 L 730.0,312.0 L 796.0,317.0 L 832.0,331.0"/>
    <path d="M 343.0,246.0 L 386.0,278.0 L 412.0,430.0"/>
    <path d="M 622.0,193.0 L 639.0,203.0 L 659.0,234.0 L 626.0,347.0 L 591.0,432.0"/>
    <path d="M 528.0,440.0 L 491.0,448.0 L 451.0,509.0 L 388.0,587.0 L 299.0,673.0 L 188.0,760.0 L 111.0,801.0"/>
    <path d="M 527.0,479.0 L 545.0,486.0 L 640.0,577.0 L 737.0,658.0 L 801.0,700.0 L 833.0,708.0 L 984.0,716.0"/>
    <path d="M 449.0,595.0 L 522.0,637.0 L 543.0,667.0"/>
    <path d="M 305.0,767.0 L 329.0,779.0 L 363.0,783.0 L 573.0,726.0 L 613.0,731.0 L 638.0,755.0 L 639.0,763.0 L 625.0,788.0 L 524.0,914.0 L 513.0,914.0"/>
    <path d="M 414.0,885.0 L 543.0,990.0 L 562.0,1021.0 L 573.0,1059.0"/>
  </g>
</svg>
