<svg xmlns="http://www.w3.org/2000/svg" viewBox="0 0 1024 1024">
  <g style="fill:none;stroke:#000000;stroke-width:50;stroke-linecap:round;stroke-linejoin:round;" transform="scale(1, 1) translate(0, 0)">
    <path d="M 221.0,362.0 L 270.0,370.0 L 310.0,367.0 L 434.0,345.0 L 691.0,314.0 L 755.0,317.0 L 791.0,331.0"/>
    <path d="M 329.0,236.0 L 372.0,269.0 L 397.0,452.0"/>
    <path d="M 592.0,177.0 L 610.0,188.0 L 632.0,221.0 L 591.0,351.0 L 556.0,439.0"/>
    <path d="M 99.0,563.0 L 162.0,572.0 L 487.0,523.0 L 836.0,492.0 L 918.0,513.0"/>
    <path d="M 246.0,653.0 L 273.0,676.0 L 281.0,697.0 L 308.0,849.0"/>
    <path d="M 305.0,657.0 L 315.0,665.0 L 421.0,638.0 L 451.0,654.0 L 460.0,665.0 L 444.0,727.0 L 440.0,738.0 L 415.0,758.0"/>
    <path d="M 328.0,814.0 L 338.0,801.0 L 406.0,785.0 L 454.0,782.0 L 481.0,789.0"/>
    <path d="M 596.0,536.0 L 638.0,575.0 L 642.0,962.0 L 636.0,1006.0 L 616.0,1041.0 L 570.0,1030.0 L 489.0,994.0"/>
  </g>
</svg>
