<svg xmlns="http://www.w3.org/2000/svg" viewBox="0 0 1024 1024">
  <g style="fill:none;stroke:#000000;stroke-width:50;stroke-linecap:round;stroke-linejoin:round;" transform="scale(1, 1) translate(0, 0)">
    <path d="M 196.0,367.0 L 274.0,371.0 L 453.0,340.0 L 721.0,305.0 L 771.0,308.0 L 808.0,322.0"/>
    <path d="M 354.0,248.0 L 393.0,278.0 L 420.0,417.0"/>
    <path d="M 589.0,192.0 L 605.0,201.0 L 625.0,232.0 L 590.0,344.0 L 559.0,420.0"/>
    <path d="M 437.0,450.0 L 396.0,460.0 L 368.0,503.0 L 318.0,552.0 L 250.0,598.0"/>
    <path d="M 364.0,549.0 L 418.0,545.0 L 604.0,501.0 L 631.0,501.0 L 653.0,521.0 L 626.0,678.0 L 594.0,750.0 L 568.0,771.0 L 500.0,734.0"/>
    <path d="M 323.0,656.0 L 341.0,659.0 L 415.0,636.0 L 448.0,639.0 L 466.0,659.0 L 464.0,670.0 L 441.0,727.0 L 421.0,738.0"/>
    <path d="M 310.0,794.0 L 333.0,782.0 L 406.0,764.0 L 460.0,768.0"/>
    <path d="M 268.0,637.0 L 289.0,660.0 L 295.0,677.0 L 281.0,855.0 L 287.0,915.0 L 299.0,950.0 L 324.0,979.0 L 350.0,997.0 L 428.0,1026.0 L 534.0,1039.0 L 627.0,1037.0 L 741.0,1018.0 L 819.0,988.0 L 869.0,948.0 L 884.0,769.0"/>
  </g>
</svg>
