<svg xmlns="http://www.w3.org/2000/svg" viewBox="0 0 1024 1024">
  <g style="fill:none;stroke:#000000;stroke-width:50;stroke-linecap:round;stroke-linejoin:round;" transform="scale(1, 1) translate(0, 0)">
    <path d="M 169.0,365.0 L 193.0,373.0 L 259.0,373.0 L 505.0,336.0 L 763.0,308.0 L 827.0,313.0 L 866.0,328.0"/>
    <path d="M 357.0,233.0 L 383.0,248.0 L 400.0,267.0 L 425.0,448.0"/>
    <path d="M 619.0,168.0 L 637.0,179.0 L 656.0,213.0 L 610.0,349.0 L 572.0,435.0"/>
    <path d="M 343.0,520.0 L 358.0,529.0 L 393.0,532.0 L 665.0,491.0 L 705.0,492.0"/>
    <path d="M 338.0,705.0 L 358.0,691.0 L 642.0,640.0 L 670.0,653.0 L 689.0,675.0 L 654.0,751.0 L 626.0,768.0"/>
    <path d="M 342.0,821.0 L 351.0,832.0 L 363.0,832.0 L 617.0,796.0 L 661.0,798.0 L 687.0,806.0"/>
    <path d="M 270.0,505.0 L 289.0,515.0 L 309.0,539.0 L 313.0,755.0 L 301.0,985.0 L 338.0,990.0 L 494.0,967.0 L 761.0,949.0 L 834.0,969.0"/>
  </g>
</svg>
