<svg xmlns="http://www.w3.org/2000/svg" viewBox="0 0 1024 1024">
  <g style="fill:none;stroke:#000000;stroke-width:50;stroke-linecap:round;stroke-linejoin:round;" transform="scale(1, 1) translate(0, 0)">
    <path d="M 324.0,219.0 L 347.0,228.0 L 366.0,246.0 L 403.0,389.0"/>
    <path d="M 168.0,320.0 L 206.0,335.0 L 239.0,338.0 L 463.0,292.0"/>
    <path d="M 596.0,164.0 L 610.0,172.0 L 627.0,203.0 L 600.0,293.0 L 562.0,383.0"/>
    <path d="M 627.0,286.0 L 654.0,274.0 L 743.0,264.0 L 787.0,267.0 L 832.0,285.0"/>
    <path d="M 449.0,393.0 L 517.0,425.0 L 551.0,463.0"/>
    <path d="M 180.0,516.0 L 188.0,532.0 L 189.0,562.0 L 150.0,639.0 L 149.0,686.0"/>
    <path d="M 224.0,547.0 L 232.0,558.0 L 260.0,558.0 L 518.0,512.0 L 709.0,489.0 L 768.0,486.0 L 791.0,491.0 L 807.0,503.0 L 820.0,531.0 L 741.0,614.0"/>
    <path d="M 228.0,732.0 L 280.0,741.0 L 639.0,677.0 L 685.0,675.0 L 717.0,682.0"/>
    <path d="M 475.0,731.0 L 513.0,763.0 L 516.0,980.0 L 505.0,1024.0 L 488.0,1050.0 L 443.0,1039.0 L 376.0,1006.0"/>
  </g>
</svg>
