<svg xmlns="http://www.w3.org/2000/svg" viewBox="0 0 1024 1024">
  <g style="fill:none;stroke:#000000;stroke-width:50;stroke-linecap:round;stroke-linejoin:round;" transform="scale(1, 1) translate(0, 0)">
    <path d="M 162.0,369.0 L 201.0,379.0 L 256.0,378.0 L 493.0,346.0 L 733.0,323.0 L 797.0,328.0 L 839.0,344.0"/>
    <path d="M 331.0,249.0 L 349.0,256.0 L 376.0,280.0 L 415.0,458.0"/>
    <path d="M 618.0,183.0 L 635.0,192.0 L 656.0,223.0 L 620.0,361.0 L 587.0,449.0"/>
    <path d="M 327.0,516.0 L 359.0,550.0 L 366.0,585.0 L 365.0,910.0 L 348.0,924.0"/>
    <path d="M 392.0,538.0 L 412.0,550.0 L 565.0,511.0 L 602.0,507.0 L 621.0,514.0 L 636.0,532.0 L 646.0,551.0 L 635.0,645.0 L 626.0,881.0 L 602.0,899.0"/>
    <path d="M 397.0,700.0 L 409.0,690.0 L 461.0,672.0 L 507.0,664.0 L 543.0,667.0"/>
    <path d="M 396.0,823.0 L 407.0,810.0 L 497.0,793.0 L 524.0,792.0 L 550.0,799.0"/>
    <path d="M 141.0,962.0 L 177.0,973.0 L 209.0,974.0 L 398.0,953.0 L 775.0,930.0 L 834.0,938.0 L 884.0,957.0"/>
  </g>
</svg>
