<svg xmlns="http://www.w3.org/2000/svg" viewBox="0 0 1024 1024">
  <g style="fill:none;stroke:#000000;stroke-width:50;stroke-linecap:round;stroke-linejoin:round;" transform="scale(1, 1) translate(0, 0)">
    <path d="M 353.0,238.0 L 375.0,248.0 L 395.0,268.0 L 428.0,435.0"/>
    <path d="M 172.0,351.0 L 232.0,370.0 L 458.0,324.0"/>
    <path d="M 594.0,189.0 L 611.0,199.0 L 631.0,231.0 L 602.0,332.0 L 563.0,429.0"/>
    <path d="M 560.0,305.0 L 624.0,311.0 L 757.0,293.0 L 808.0,300.0 L 832.0,310.0"/>
    <path d="M 325.0,449.0 L 353.0,493.0 L 330.0,543.0 L 271.0,627.0 L 235.0,665.0 L 180.0,705.0"/>
    <path d="M 370.0,552.0 L 380.0,546.0 L 471.0,548.0 L 687.0,502.0 L 734.0,496.0 L 759.0,499.0"/>
    <path d="M 476.0,574.0 L 502.0,593.0 L 510.0,607.0 L 500.0,966.0 L 516.0,1056.0"/>
    <path d="M 541.0,712.0 L 561.0,700.0 L 603.0,696.0 L 692.0,673.0 L 744.0,676.0"/>
    <path d="M 542.0,851.0 L 554.0,840.0 L 633.0,833.0 L 711.0,817.0 L 748.0,814.0 L 772.0,819.0"/>
  </g>
</svg>
