<svg xmlns="http://www.w3.org/2000/svg" viewBox="0 0 1024 1024">
  <g style="fill:none;stroke:#000000;stroke-width:50;stroke-linecap:round;stroke-linejoin:round;" transform="scale(1, 1) translate(0, 0)">
    <path d="M 216.0,359.0 L 236.0,364.0 L 324.0,360.0 L 439.0,339.0 L 727.0,302.0 L 770.0,301.0 L 826.0,317.0"/>
    <path d="M 352.0,241.0 L 393.0,269.0 L 424.0,439.0"/>
    <path d="M 614.0,182.0 L 631.0,191.0 L 652.0,223.0 L 620.0,338.0 L 583.0,437.0"/>
    <path d="M 275.0,549.0 L 317.0,585.0 L 344.0,715.0 L 358.0,721.0"/>
    <path d="M 346.0,561.0 L 370.0,573.0 L 526.0,552.0 L 651.0,525.0 L 693.0,529.0 L 726.0,564.0 L 689.0,664.0 L 671.0,682.0 L 657.0,685.0"/>
    <path d="M 107.0,767.0 L 160.0,777.0 L 432.0,739.0 L 819.0,705.0 L 871.0,706.0 L 930.0,724.0"/>
    <path d="M 465.0,445.0 L 512.0,490.0 L 485.0,760.0 L 455.0,852.0 L 405.0,920.0 L 349.0,960.0 L 265.0,995.0 L 169.0,1015.0"/>
    <path d="M 517.0,755.0 L 522.0,767.0 L 638.0,889.0 L 697.0,945.0 L 759.0,993.0 L 942.0,1023.0"/>
  </g>
</svg>
