<svg xmlns="http://www.w3.org/2000/svg" viewBox="0 0 1024 1024">
  <g style="fill:none;stroke:#000000;stroke-width:50;stroke-linecap:round;stroke-linejoin:round;" transform="scale(1, 1) translate(0, 0)">
    <path d="M 204.0,331.0 L 274.0,338.0 L 709.0,280.0 L 776.0,281.0 L 823.0,296.0"/>
    <path d="M 353.0,226.0 L 394.0,252.0 L 428.0,404.0"/>
    <path d="M 632.0,166.0 L 642.0,171.0 L 664.0,205.0 L 624.0,314.0 L 584.0,401.0"/>
    <path d="M 347.0,473.0 L 369.0,480.0 L 431.0,480.0 L 635.0,444.0 L 679.0,445.0"/>
    <path d="M 284.0,575.0 L 357.0,628.0 L 382.0,670.0"/>
    <path d="M 713.0,501.0 L 727.0,536.0 L 596.0,635.0"/>
    <path d="M 127.0,774.0 L 182.0,784.0 L 445.0,745.0 L 801.0,710.0 L 844.0,712.0 L 907.0,731.0"/>
    <path d="M 460.0,502.0 L 500.0,527.0 L 508.0,548.0 L 503.0,1088.0"/>
  </g>
</svg>
