<svg xmlns="http://www.w3.org/2000/svg" viewBox="0 0 1024 1024">
  <g style="fill:none;stroke:#000000;stroke-width:50;stroke-linecap:round;stroke-linejoin:round;" transform="scale(1, 1) translate(0, 0)">
    <path d="M 170.0,342.0 L 201.0,349.0 L 254.0,350.0 L 423.0,326.0 L 749.0,295.0 L 810.0,301.0 L 848.0,315.0"/>
    <path d="M 349.0,237.0 L 392.0,268.0 L 417.0,420.0"/>
    <path d="M 592.0,183.0 L 607.0,191.0 L 628.0,222.0 L 600.0,333.0 L 571.0,412.0"/>
    <path d="M 235.0,537.0 L 275.0,548.0 L 467.0,524.0 L 642.0,494.0 L 699.0,493.0 L 729.0,500.0"/>
    <path d="M 288.0,689.0 L 332.0,694.0 L 621.0,647.0 L 656.0,648.0 L 697.0,659.0"/>
    <path d="M 478.0,423.0 L 503.0,457.0 L 504.0,485.0 L 494.0,1077.0"/>
    <path d="M 472.0,692.0 L 421.0,777.0 L 350.0,850.0 L 256.0,919.0 L 173.0,959.0"/>
    <path d="M 532.0,686.0 L 544.0,712.0 L 651.0,823.0 L 758.0,915.0 L 924.0,940.0"/>
  </g>
</svg>
