<svg xmlns="http://www.w3.org/2000/svg" viewBox="0 0 1024 1024">
  <g style="fill:none;stroke:#000000;stroke-width:50;stroke-linecap:round;stroke-linejoin:round;" transform="scale(1, 1) translate(0, 0)">
    <path d="M 201.0,369.0 L 271.0,379.0 L 457.0,350.0 L 725.0,321.0 L 793.0,326.0 L 830.0,340.0"/>
    <path d="M 349.0,259.0 L 393.0,288.0 L 424.0,454.0"/>
    <path d="M 610.0,197.0 L 627.0,207.0 L 647.0,240.0 L 612.0,359.0 L 575.0,452.0"/>
    <path d="M 351.0,480.0 L 371.0,502.0 L 379.0,529.0 L 348.0,581.0 L 250.0,708.0 L 176.0,784.0 L 108.0,839.0"/>
    <path d="M 301.0,693.0 L 302.0,720.0 L 312.0,739.0 L 312.0,825.0 L 300.0,982.0 L 306.0,1038.0"/>
    <path d="M 394.0,727.0 L 446.0,733.0 L 550.0,711.0 L 799.0,675.0 L 883.0,689.0"/>
    <path d="M 580.0,505.0 L 620.0,535.0 L 629.0,549.0 L 622.0,865.0 L 604.0,891.0"/>
    <path d="M 441.0,931.0 L 488.0,939.0 L 733.0,905.0 L 782.0,911.0 L 818.0,923.0"/>
  </g>
</svg>
