<svg xmlns="http://www.w3.org/2000/svg" viewBox="0 0 1024 1024">
  <g style="fill:none;stroke:#000000;stroke-width:50;stroke-linecap:round;stroke-linejoin:round;" transform="scale(1, 1) translate(0, 0)">
    <path d="M 209.0,385.0 L 233.0,393.0 L 299.0,393.0 L 496.0,361.0 L 748.0,337.0 L 798.0,342.0 L 834.0,356.0"/>
    <path d="M 354.0,267.0 L 383.0,283.0 L 399.0,300.0 L 432.0,462.0"/>
    <path d="M 622.0,205.0 L 648.0,226.0 L 658.0,250.0 L 621.0,375.0 L 587.0,460.0"/>
    <path d="M 235.0,516.0 L 246.0,547.0 L 238.0,579.0 L 195.0,655.0 L 192.0,709.0"/>
    <path d="M 278.0,550.0 L 290.0,563.0 L 315.0,562.0 L 463.0,535.0 L 751.0,505.0 L 787.0,521.0 L 805.0,548.0 L 730.0,629.0"/>
    <path d="M 336.0,761.0 L 358.0,768.0 L 420.0,769.0 L 626.0,730.0 L 711.0,725.0"/>
    <path d="M 476.0,623.0 L 509.0,651.0 L 518.0,666.0 L 514.0,887.0 L 498.0,909.0"/>
    <path d="M 219.0,950.0 L 274.0,962.0 L 472.0,939.0 L 750.0,920.0 L 838.0,945.0"/>
  </g>
</svg>
