<svg xmlns="http://www.w3.org/2000/svg" viewBox="0 0 1024 1024">
  <g style="fill:none;stroke:#000000;stroke-width:50;stroke-linecap:round;stroke-linejoin:round;" transform="scale(1, 1) translate(0, 0)">
    <path d="M 214.0,346.0 L 258.0,356.0 L 295.0,355.0 L 486.0,332.0 L 738.0,312.0 L 802.0,318.0 L 843.0,334.0"/>
    <path d="M 335.0,242.0 L 379.0,273.0 L 408.0,423.0"/>
    <path d="M 622.0,200.0 L 634.0,205.0 L 655.0,239.0 L 620.0,347.0 L 580.0,441.0"/>
    <path d="M 504.0,441.0 L 470.0,449.0 L 415.0,528.0 L 375.0,571.0 L 299.0,641.0 L 223.0,690.0"/>
    <path d="M 436.0,546.0 L 516.0,537.0 L 586.0,521.0 L 611.0,520.0 L 644.0,535.0 L 620.0,581.0 L 566.0,642.0 L 405.0,792.0 L 265.0,892.0 L 151.0,956.0 L 98.0,978.0"/>
    <path d="M 356.0,630.0 L 365.0,629.0 L 409.0,671.0 L 423.0,705.0"/>
    <path d="M 346.0,805.0 L 385.0,862.0 L 416.0,1048.0"/>
    <path d="M 403.0,831.0 L 507.0,816.0 L 669.0,779.0 L 696.0,787.0 L 728.0,818.0 L 694.0,916.0 L 664.0,939.0"/>
    <path d="M 437.0,1005.0 L 451.0,991.0 L 652.0,968.0 L 713.0,967.0 L 736.0,977.0"/>
  </g>
</svg>
