<svg xmlns="http://www.w3.org/2000/svg" viewBox="0 0 1024 1024">
  <g style="fill:none;stroke:#000000;stroke-width:50;stroke-linecap:round;stroke-linejoin:round;" transform="scale(1, 1) translate(0, 0)">
    <path d="M 201.0,365.0 L 223.0,371.0 L 287.0,372.0 L 462.0,344.0 L 731.0,313.0 L 780.0,317.0 L 818.0,332.0"/>
    <path d="M 337.0,251.0 L 357.0,259.0 L 384.0,283.0 L 416.0,442.0"/>
    <path d="M 602.0,186.0 L 619.0,195.0 L 639.0,228.0 L 605.0,353.0 L 571.0,441.0"/>
    <path d="M 224.0,619.0 L 268.0,629.0 L 312.0,628.0 L 448.0,610.0 L 646.0,569.0 L 701.0,570.0"/>
    <path d="M 435.0,484.0 L 457.0,510.0 L 466.0,539.0 L 433.0,675.0 L 383.0,812.0 L 336.0,885.0 L 268.0,955.0 L 208.0,991.0 L 164.0,1007.0"/>
    <path d="M 512.0,670.0 L 549.0,719.0 L 533.0,852.0 L 538.0,951.0 L 557.0,992.0 L 589.0,1013.0 L 649.0,1024.0 L 758.0,1025.0 L 836.0,1012.0 L 873.0,996.0 L 884.0,988.0 L 885.0,968.0 L 876.0,810.0"/>
    <path d="M 703.0,662.0 L 713.0,683.0 L 715.0,711.0 L 676.0,752.0 L 571.0,838.0 L 458.0,902.0"/>
    <path d="M 660.0,441.0 L 750.0,492.0 L 781.0,531.0"/>
  </g>
</svg>
