<svg xmlns="http://www.w3.org/2000/svg" viewBox="0 0 1024 1024">
  <g style="fill:none;stroke:#000000;stroke-width:50;stroke-linecap:round;stroke-linejoin:round;" transform="scale(1, 1) translate(0, 0)">
    <path d="M 186.0,350.0 L 223.0,359.0 L 276.0,358.0 L 508.0,325.0 L 746.0,303.0 L 795.0,308.0 L 832.0,323.0"/>
    <path d="M 359.0,245.0 L 382.0,256.0 L 402.0,276.0 L 428.0,432.0"/>
    <path d="M 611.0,200.0 L 626.0,208.0 L 644.0,238.0 L 613.0,339.0 L 583.0,409.0"/>
    <path d="M 380.0,501.0 L 407.0,509.0 L 592.0,468.0 L 635.0,478.0 L 655.0,503.0 L 609.0,667.0 L 611.0,688.0"/>
    <path d="M 398.0,613.0 L 410.0,601.0 L 448.0,591.0 L 510.0,580.0 L 540.0,585.0"/>
    <path d="M 400.0,704.0 L 419.0,692.0 L 560.0,664.0 L 575.0,651.0"/>
    <path d="M 329.0,495.0 L 365.0,536.0 L 369.0,571.0 L 373.0,732.0 L 358.0,962.0 L 406.0,954.0 L 545.0,878.0"/>
    <path d="M 784.0,723.0 L 742.0,706.0 L 649.0,778.0 L 598.0,806.0"/>
    <path d="M 449.0,710.0 L 475.0,715.0 L 635.0,875.0 L 766.0,968.0 L 941.0,981.0"/>
  </g>
</svg>
