<svg xmlns="http://www.w3.org/2000/svg" viewBox="0 0 1024 1024">
  <g style="fill:none;stroke:#000000;stroke-width:50;stroke-linecap:round;stroke-linejoin:round;" transform="scale(1, 1) translate(0, 0)">
    <path d="M 185.0,378.0 L 225.0,387.0 L 281.0,385.0 L 490.0,354.0 L 722.0,331.0 L 791.0,336.0 L 825.0,350.0"/>
    <path d="M 317.0,271.0 L 341.0,281.0 L 361.0,299.0 L 399.0,457.0"/>
    <path d="M 604.0,186.0 L 622.0,196.0 L 643.0,232.0 L 603.0,367.0 L 568.0,460.0"/>
    <path d="M 216.0,554.0 L 279.0,597.0 L 304.0,632.0"/>
    <path d="M 193.0,1033.0 L 184.0,990.0 L 188.0,952.0 L 339.0,737.0"/>
    <path d="M 473.0,465.0 L 501.0,498.0 L 479.0,563.0 L 443.0,628.0 L 389.0,685.0"/>
    <path d="M 500.0,595.0 L 669.0,558.0 L 695.0,555.0 L 716.0,560.0 L 737.0,588.0 L 646.0,675.0"/>
    <path d="M 504.0,682.0 L 541.0,721.0 L 540.0,733.0 L 525.0,818.0 L 486.0,896.0 L 438.0,945.0 L 394.0,973.0 L 338.0,998.0 L 284.0,1011.0"/>
    <path d="M 562.0,798.0 L 567.0,815.0 L 611.0,864.0 L 720.0,968.0 L 747.0,981.0 L 908.0,1016.0"/>
  </g>
</svg>
