<svg xmlns="http://www.w3.org/2000/svg" viewBox="0 0 1024 1024">
  <g style="fill:none;stroke:#000000;stroke-width:50;stroke-linecap:round;stroke-linejoin:round;" transform="scale(1, 1) translate(0, 0)">
    <path d="M 206.0,354.0 L 250.0,362.0 L 295.0,361.0 L 505.0,332.0 L 714.0,312.0 L 779.0,315.0 L 824.0,331.0"/>
    <path d="M 344.0,249.0 L 389.0,274.0 L 430.0,428.0"/>
    <path d="M 606.0,172.0 L 624.0,181.0 L 643.0,215.0 L 597.0,350.0 L 563.0,428.0"/>
    <path d="M 319.0,449.0 L 344.0,489.0 L 346.0,499.0 L 337.0,513.0 L 228.0,650.0 L 137.0,733.0 L 97.0,759.0"/>
    <path d="M 278.0,635.0 L 281.0,659.0 L 293.0,682.0 L 290.0,824.0 L 276.0,965.0 L 281.0,1026.0"/>
    <path d="M 395.0,665.0 L 456.0,671.0 L 729.0,618.0 L 786.0,624.0"/>
    <path d="M 535.0,482.0 L 556.0,491.0 L 586.0,525.0 L 568.0,695.0 L 540.0,820.0 L 502.0,903.0 L 470.0,943.0 L 418.0,983.0 L 353.0,1012.0"/>
    <path d="M 599.0,687.0 L 606.0,723.0 L 658.0,808.0 L 722.0,896.0 L 762.0,940.0 L 793.0,966.0 L 922.0,1000.0"/>
    <path d="M 701.0,467.0 L 788.0,515.0 L 820.0,553.0"/>
  </g>
</svg>
