<svg xmlns="http://www.w3.org/2000/svg" viewBox="0 0 1024 1024">
  <g style="fill:none;stroke:#000000;stroke-width:50;stroke-linecap:round;stroke-linejoin:round;" transform="scale(1, 1) translate(0, 0)">
    <path d="M 150.0,358.0 L 187.0,367.0 L 226.0,368.0 L 452.0,338.0 L 771.0,314.0 L 820.0,318.0 L 864.0,335.0"/>
    <path d="M 332.0,245.0 L 354.0,255.0 L 374.0,276.0 L 404.0,435.0"/>
    <path d="M 602.0,183.0 L 617.0,192.0 L 634.0,223.0 L 590.0,351.0 L 556.0,425.0"/>
    <path d="M 231.0,497.0 L 263.0,531.0 L 270.0,559.0 L 267.0,786.0 L 239.0,980.0 L 240.0,1032.0"/>
    <path d="M 291.0,519.0 L 315.0,531.0 L 365.0,527.0 L 513.0,506.0 L 650.0,476.0 L 682.0,483.0 L 719.0,515.0 L 732.0,983.0 L 719.0,1022.0 L 646.0,1004.0"/>
    <path d="M 323.0,700.0 L 378.0,704.0 L 560.0,668.0 L 635.0,668.0"/>
    <path d="M 457.0,561.0 L 474.0,577.0 L 486.0,603.0 L 468.0,702.0 L 444.0,778.0 L 407.0,837.0 L 378.0,867.0 L 350.0,888.0 L 312.0,905.0"/>
    <path d="M 490.0,752.0 L 492.0,766.0 L 508.0,770.0 L 571.0,814.0 L 612.0,851.0 L 628.0,879.0 L 630.0,897.0"/>
    <path d="M 267.0,1013.0 L 285.0,998.0 L 412.0,987.0 L 609.0,974.0 L 644.0,976.0 L 668.0,985.0"/>
  </g>
</svg>
