<svg xmlns="http://www.w3.org/2000/svg" viewBox="0 0 1024 1024">
  <g style="fill:none;stroke:#000000;stroke-width:50;stroke-linecap:round;stroke-linejoin:round;" transform="scale(1, 1) translate(0, 0)">
    <path d="M 190.0,386.0 L 232.0,394.0 L 286.0,391.0 L 519.0,360.0 L 742.0,339.0 L 792.0,343.0 L 836.0,359.0"/>
    <path d="M 350.0,263.0 L 395.0,296.0 L 428.0,466.0"/>
    <path d="M 624.0,199.0 L 649.0,217.0 L 663.0,239.0 L 625.0,377.0 L 587.0,480.0"/>
    <path d="M 251.0,485.0 L 341.0,534.0 L 365.0,567.0"/>
    <path d="M 172.0,625.0 L 235.0,661.0 L 269.0,694.0"/>
    <path d="M 214.0,1027.0 L 204.0,997.0 L 207.0,947.0 L 344.0,743.0"/>
    <path d="M 439.0,608.0 L 478.0,616.0 L 527.0,614.0 L 697.0,577.0 L 780.0,572.0"/>
    <path d="M 577.0,637.0 L 605.0,660.0 L 607.0,674.0 L 593.0,862.0 L 570.0,887.0"/>
    <path d="M 355.0,926.0 L 409.0,938.0 L 544.0,919.0 L 808.0,897.0 L 842.0,899.0 L 905.0,921.0"/>
  </g>
</svg>
