<svg xmlns="http://www.w3.org/2000/svg" viewBox="0 0 1024 1024">
  <g style="fill:none;stroke:#000000;stroke-width:50;stroke-linecap:round;stroke-linejoin:round;" transform="scale(1, 1) translate(0, 0)">
    <path d="M 194.0,345.0 L 241.0,354.0 L 286.0,354.0 L 466.0,329.0 L 729.0,306.0 L 779.0,311.0 L 824.0,328.0"/>
    <path d="M 339.0,233.0 L 383.0,263.0 L 419.0,410.0"/>
    <path d="M 620.0,187.0 L 634.0,194.0 L 652.0,225.0 L 612.0,344.0 L 584.0,405.0"/>
    <path d="M 467.0,402.0 L 524.0,447.0 L 538.0,472.0"/>
    <path d="M 247.0,555.0 L 306.0,566.0 L 714.0,509.0 L 776.0,520.0"/>
    <path d="M 402.0,646.0 L 372.0,649.0 L 310.0,716.0 L 259.0,755.0 L 210.0,779.0"/>
    <path d="M 614.0,593.0 L 726.0,653.0 L 751.0,679.0 L 765.0,709.0"/>
    <path d="M 568.0,679.0 L 597.0,717.0 L 589.0,742.0 L 536.0,844.0 L 475.0,913.0 L 407.0,958.0 L 352.0,979.0 L 280.0,993.0 L 199.0,993.0"/>
    <path d="M 364.0,747.0 L 416.0,771.0 L 590.0,935.0 L 674.0,991.0 L 719.0,1006.0 L 891.0,1025.0"/>
  </g>
</svg>
