<svg xmlns="http://www.w3.org/2000/svg" viewBox="0 0 1024 1024">
  <g style="fill:none;stroke:#000000;stroke-width:50;stroke-linecap:round;stroke-linejoin:round;" transform="scale(1, 1) translate(0, 0)">
    <path d="M 197.0,349.0 L 238.0,358.0 L 278.0,357.0 L 469.0,328.0 L 717.0,302.0 L 770.0,302.0 L 826.0,320.0"/>
    <path d="M 335.0,224.0 L 357.0,235.0 L 377.0,256.0 L 401.0,409.0"/>
    <path d="M 620.0,170.0 L 637.0,181.0 L 654.0,217.0 L 601.0,336.0 L 561.0,408.0"/>
    <path d="M 450.0,404.0 L 468.0,443.0 L 459.0,462.0 L 369.0,559.0 L 289.0,617.0"/>
    <path d="M 433.0,535.0 L 529.0,523.0 L 693.0,491.0 L 721.0,496.0 L 762.0,533.0 L 750.0,806.0 L 734.0,918.0 L 714.0,985.0 L 674.0,1031.0 L 566.0,975.0"/>
    <path d="M 239.0,664.0 L 267.0,705.0 L 271.0,788.0 L 265.0,879.0 L 273.0,939.0"/>
    <path d="M 280.0,670.0 L 313.0,675.0 L 392.0,655.0 L 449.0,648.0 L 468.0,652.0 L 486.0,667.0 L 491.0,675.0 L 490.0,844.0 L 480.0,899.0 L 491.0,976.0"/>
    <path d="M 302.0,801.0 L 310.0,790.0 L 376.0,779.0 L 407.0,785.0"/>
    <path d="M 291.0,925.0 L 319.0,909.0 L 416.0,898.0 L 432.0,914.0"/>
  </g>
</svg>
