<svg xmlns="http://www.w3.org/2000/svg" viewBox="0 0 1024 1024">
  <g style="fill:none;stroke:#000000;stroke-width:50;stroke-linecap:round;stroke-linejoin:round;" transform="scale(1, 1) translate(0, 0)">
    <path d="M 173.0,319.0 L 219.0,328.0 L 276.0,326.0 L 423.0,306.0 L 688.0,284.0 L 755.0,288.0 L 798.0,305.0"/>
    <path d="M 290.0,242.0 L 312.0,251.0 L 332.0,269.0 L 363.0,405.0"/>
    <path d="M 592.0,182.0 L 606.0,192.0 L 622.0,220.0 L 564.0,369.0"/>
    <path d="M 309.0,471.0 L 337.0,477.0 L 399.0,473.0 L 590.0,431.0 L 644.0,428.0"/>
    <path d="M 284.0,582.0 L 342.0,584.0 L 623.0,535.0 L 642.0,543.0 L 661.0,565.0 L 646.0,603.0 L 622.0,622.0"/>
    <path d="M 301.0,687.0 L 333.0,695.0 L 620.0,648.0 L 659.0,649.0 L 678.0,657.0"/>
    <path d="M 259.0,669.0 L 273.0,687.0 L 279.0,709.0 L 243.0,797.0 L 242.0,811.0 L 257.0,814.0 L 288.0,811.0 L 419.0,776.0 L 652.0,734.0 L 745.0,731.0 L 766.0,739.0 L 786.0,759.0 L 767.0,849.0 L 740.0,888.0 L 721.0,894.0 L 660.0,858.0 L 655.0,849.0 L 633.0,842.0"/>
    <path d="M 429.0,360.0 L 479.0,402.0 L 464.0,738.0 L 457.0,810.0 L 445.0,861.0 L 413.0,924.0 L 365.0,972.0 L 315.0,1003.0 L 261.0,1026.0 L 165.0,1051.0"/>
    <path d="M 483.0,803.0 L 495.0,832.0 L 561.0,901.0 L 643.0,975.0 L 707.0,1022.0 L 880.0,1057.0"/>
  </g>
</svg>
