<svg xmlns="http://www.w3.org/2000/svg" viewBox="0 0 1024 1024">
  <g style="fill:none;stroke:#000000;stroke-width:50;stroke-linecap:round;stroke-linejoin:round;" transform="scale(1, 1) translate(0, 0)">
    <path d="M 185.0,354.0 L 209.0,361.0 L 272.0,361.0 L 460.0,333.0 L 750.0,304.0 L 791.0,306.0 L 840.0,323.0"/>
    <path d="M 339.0,242.0 L 383.0,273.0 L 416.0,435.0"/>
    <path d="M 610.0,186.0 L 627.0,195.0 L 648.0,227.0 L 583.0,425.0"/>
    <path d="M 227.0,483.0 L 237.0,513.0 L 233.0,536.0 L 194.0,616.0 L 188.0,665.0"/>
    <path d="M 268.0,514.0 L 280.0,527.0 L 308.0,526.0 L 521.0,487.0 L 729.0,465.0 L 766.0,469.0 L 786.0,483.0 L 799.0,509.0 L 718.0,578.0"/>
    <path d="M 257.0,699.0 L 335.0,754.0 L 355.0,787.0"/>
    <path d="M 739.0,690.0 L 706.0,673.0 L 591.0,747.0"/>
    <path d="M 457.0,575.0 L 496.0,613.0 L 495.0,654.0 L 472.0,779.0 L 438.0,853.0 L 393.0,915.0 L 348.0,952.0 L 273.0,992.0 L 200.0,1017.0"/>
    <path d="M 512.0,752.0 L 516.0,777.0 L 587.0,861.0 L 673.0,946.0 L 725.0,986.0 L 748.0,999.0 L 882.0,1015.0"/>
  </g>
</svg>
