<svg xmlns="http://www.w3.org/2000/svg" viewBox="0 0 1024 1024">
  <g style="fill:none;stroke:#000000;stroke-width:50;stroke-linecap:round;stroke-linejoin:round;" transform="scale(1, 1) translate(0, 0)">
    <path d="M 209.0,370.0 L 231.0,377.0 L 298.0,377.0 L 462.0,354.0 L 692.0,332.0 L 760.0,333.0 L 813.0,350.0"/>
    <path d="M 329.0,248.0 L 368.0,275.0 L 396.0,429.0"/>
    <path d="M 614.0,205.0 L 630.0,213.0 L 649.0,243.0 L 626.0,323.0 L 591.0,413.0"/>
    <path d="M 473.0,427.0 L 493.0,467.0 L 459.0,518.0 L 362.0,621.0 L 276.0,692.0 L 224.0,725.0 L 142.0,767.0 L 104.0,780.0"/>
    <path d="M 533.0,487.0 L 542.0,505.0 L 612.0,567.0 L 782.0,689.0 L 869.0,703.0 L 971.0,710.0"/>
    <path d="M 388.0,668.0 L 448.0,673.0 L 553.0,649.0 L 593.0,650.0"/>
    <path d="M 282.0,800.0 L 319.0,806.0 L 347.0,803.0 L 476.0,776.0 L 621.0,757.0 L 703.0,773.0"/>
    <path d="M 504.0,812.0 L 464.0,831.0 L 425.0,889.0 L 379.0,940.0 L 366.0,974.0 L 394.0,980.0 L 583.0,945.0 L 627.0,946.0"/>
    <path d="M 579.0,853.0 L 688.0,967.0 L 705.0,1011.0 L 704.0,1028.0"/>
  </g>
</svg>
