<svg xmlns="http://www.w3.org/2000/svg" viewBox="0 0 1024 1024">
  <g style="fill:none;stroke:#000000;stroke-width:50;stroke-linecap:round;stroke-linejoin:round;" transform="scale(1, 1) translate(0, 0)">
    <path d="M 206.0,378.0 L 226.0,384.0 L 294.0,386.0 L 469.0,361.0 L 711.0,339.0 L 786.0,345.0 L 820.0,359.0"/>
    <path d="M 348.0,262.0 L 371.0,272.0 L 390.0,291.0 L 424.0,471.0"/>
    <path d="M 601.0,216.0 L 618.0,224.0 L 639.0,254.0 L 611.0,376.0 L 579.0,472.0"/>
    <path d="M 297.0,455.0 L 311.0,468.0 L 324.0,503.0 L 221.0,657.0 L 206.0,691.0 L 238.0,697.0 L 315.0,693.0 L 334.0,682.0"/>
    <path d="M 413.0,561.0 L 431.0,599.0 L 379.0,670.0 L 275.0,788.0 L 265.0,802.0 L 261.0,831.0 L 290.0,836.0 L 431.0,798.0"/>
    <path d="M 172.0,987.0 L 229.0,996.0 L 444.0,871.0"/>
    <path d="M 534.0,597.0 L 565.0,604.0 L 613.0,602.0 L 747.0,570.0 L 812.0,568.0"/>
    <path d="M 619.0,632.0 L 658.0,654.0 L 647.0,849.0 L 644.0,871.0 L 629.0,887.0"/>
    <path d="M 454.0,923.0 L 505.0,933.0 L 811.0,897.0 L 856.0,902.0 L 902.0,918.0"/>
  </g>
</svg>
