<svg xmlns="http://www.w3.org/2000/svg" viewBox="0 0 1024 1024">
  <g style="fill:none;stroke:#000000;stroke-width:50;stroke-linecap:round;stroke-linejoin:round;" transform="scale(1, 1) translate(0, 0)">
    <path d="M 201.0,386.0 L 239.0,394.0 L 301.0,392.0 L 498.0,362.0 L 743.0,339.0 L 789.0,343.0 L 828.0,359.0"/>
    <path d="M 343.0,269.0 L 360.0,275.0 L 388.0,298.0 L 423.0,450.0"/>
    <path d="M 606.0,209.0 L 621.0,217.0 L 640.0,250.0 L 601.0,376.0 L 571.0,448.0"/>
    <path d="M 193.0,559.0 L 240.0,570.0 L 364.0,522.0 L 400.0,523.0 L 425.0,545.0 L 357.0,652.0 L 348.0,652.0"/>
    <path d="M 299.0,657.0 L 342.0,686.0 L 363.0,735.0 L 377.0,831.0 L 373.0,914.0 L 353.0,972.0 L 322.0,997.0 L 247.0,947.0"/>
    <path d="M 99.0,868.0 L 154.0,876.0 L 459.0,691.0"/>
    <path d="M 621.0,495.0 L 647.0,516.0 L 666.0,544.0 L 667.0,944.0 L 649.0,986.0 L 628.0,981.0 L 546.0,935.0"/>
    <path d="M 529.0,711.0 L 519.0,766.0 L 480.0,868.0"/>
    <path d="M 765.0,704.0 L 855.0,784.0 L 872.0,813.0 L 881.0,846.0"/>
  </g>
</svg>
