<svg xmlns="http://www.w3.org/2000/svg" viewBox="0 0 1024 1024">
  <g style="fill:none;stroke:#000000;stroke-width:50;stroke-linecap:round;stroke-linejoin:round;" transform="scale(1, 1) translate(0, 0)">
    <path d="M 169.0,362.0 L 227.0,371.0 L 270.0,368.0 L 494.0,336.0 L 759.0,311.0 L 818.0,317.0 L 849.0,330.0"/>
    <path d="M 346.0,248.0 L 389.0,281.0 L 413.0,444.0"/>
    <path d="M 613.0,189.0 L 629.0,198.0 L 649.0,229.0 L 614.0,349.0 L 575.0,448.0"/>
    <path d="M 262.0,520.0 L 280.0,525.0 L 351.0,500.0 L 379.0,499.0 L 392.0,512.0 L 385.0,540.0 L 357.0,592.0 L 342.0,635.0 L 350.0,666.0 L 384.0,707.0 L 398.0,736.0 L 401.0,779.0 L 397.0,787.0 L 355.0,787.0 L 287.0,769.0"/>
    <path d="M 196.0,498.0 L 230.0,533.0 L 238.0,604.0 L 233.0,860.0 L 211.0,1008.0 L 211.0,1059.0"/>
    <path d="M 523.0,498.0 L 544.0,513.0 L 559.0,538.0 L 558.0,667.0 L 548.0,754.0 L 528.0,844.0 L 495.0,933.0 L 435.0,1026.0"/>
    <path d="M 580.0,503.0 L 602.0,513.0 L 719.0,479.0 L 736.0,484.0 L 762.0,509.0 L 776.0,883.0 L 771.0,977.0 L 755.0,1002.0 L 644.0,968.0"/>
    <path d="M 586.0,692.0 L 592.0,681.0 L 614.0,671.0 L 666.0,663.0 L 699.0,670.0"/>
    <path d="M 560.0,819.0 L 575.0,809.0 L 652.0,797.0 L 710.0,801.0"/>
  </g>
</svg>
