<svg xmlns="http://www.w3.org/2000/svg" viewBox="0 0 1024 1024">
  <g style="fill:none;stroke:#000000;stroke-width:50;stroke-linecap:round;stroke-linejoin:round;" transform="scale(1, 1) translate(0, 0)">
    <path d="M 196.0,355.0 L 220.0,363.0 L 272.0,362.0 L 439.0,336.0 L 728.0,306.0 L 780.0,310.0 L 817.0,324.0"/>
    <path d="M 336.0,245.0 L 358.0,255.0 L 377.0,273.0 L 408.0,439.0"/>
    <path d="M 622.0,179.0 L 637.0,188.0 L 655.0,220.0 L 615.0,340.0 L 576.0,429.0"/>
    <path d="M 145.0,551.0 L 198.0,568.0 L 544.0,518.0 L 799.0,495.0 L 873.0,520.0"/>
    <path d="M 276.0,622.0 L 306.0,650.0 L 313.0,710.0 L 311.0,809.0 L 301.0,911.0 L 285.0,970.0 L 286.0,1020.0"/>
    <path d="M 335.0,632.0 L 356.0,644.0 L 666.0,595.0 L 692.0,596.0 L 720.0,617.0 L 730.0,631.0 L 726.0,703.0 L 734.0,940.0 L 726.0,985.0 L 717.0,1002.0 L 703.0,1001.0 L 657.0,992.0 L 590.0,968.0"/>
    <path d="M 398.0,748.0 L 435.0,747.0 L 567.0,723.0 L 595.0,722.0 L 618.0,729.0"/>
    <path d="M 386.0,860.0 L 414.0,862.0 L 568.0,835.0 L 604.0,834.0 L 626.0,841.0"/>
    <path d="M 462.0,419.0 L 486.0,434.0 L 503.0,454.0 L 495.0,1034.0"/>
    <path d="M 665.0,381.0 L 719.0,410.0 L 738.0,428.0"/>
  </g>
</svg>
