<svg xmlns="http://www.w3.org/2000/svg" viewBox="0 0 1024 1024">
  <g style="fill:none;stroke:#000000;stroke-width:50;stroke-linecap:round;stroke-linejoin:round;" transform="scale(1, 1) translate(0, 0)">
    <path d="M 197.0,351.0 L 218.0,357.0 L 275.0,358.0 L 429.0,335.0 L 764.0,299.0 L 816.0,303.0 L 852.0,317.0"/>
    <path d="M 359.0,229.0 L 397.0,255.0 L 433.0,429.0"/>
    <path d="M 619.0,173.0 L 634.0,181.0 L 654.0,211.0 L 618.0,336.0 L 587.0,412.0"/>
    <path d="M 237.0,447.0 L 304.0,485.0 L 333.0,522.0"/>
    <path d="M 168.0,600.0 L 255.0,652.0 L 264.0,667.0"/>
    <path d="M 216.0,1013.0 L 207.0,985.0 L 207.0,938.0 L 332.0,728.0"/>
    <path d="M 568.0,454.0 L 586.0,465.0 L 608.0,496.0 L 599.0,730.0 L 605.0,771.0"/>
    <path d="M 460.0,595.0 L 443.0,668.0 L 405.0,758.0"/>
    <path d="M 739.0,545.0 L 859.0,608.0 L 893.0,655.0"/>
    <path d="M 712.0,662.0 L 727.0,694.0 L 726.0,709.0 L 680.0,793.0 L 606.0,882.0 L 548.0,932.0 L 486.0,973.0 L 358.0,1029.0"/>
  </g>
</svg>
