<svg xmlns="http://www.w3.org/2000/svg" viewBox="0 0 1024 1024">
  <g style="fill:none;stroke:#000000;stroke-width:50;stroke-linecap:round;stroke-linejoin:round;" transform="scale(1, 1) translate(0, 0)">
    <path d="M 185.0,343.0 L 207.0,350.0 L 267.0,350.0 L 471.0,317.0 L 739.0,291.0 L 775.0,294.0 L 820.0,309.0"/>
    <path d="M 333.0,231.0 L 357.0,241.0 L 378.0,261.0 L 415.0,405.0"/>
    <path d="M 606.0,177.0 L 619.0,183.0 L 638.0,213.0 L 603.0,329.0 L 571.0,405.0"/>
    <path d="M 771.0,459.0 L 705.0,446.0 L 649.0,480.0 L 581.0,506.0 L 574.0,514.0 L 559.0,513.0 L 551.0,521.0 L 536.0,520.0 L 516.0,529.0 L 510.0,526.0 L 500.0,534.0"/>
    <path d="M 444.0,665.0 L 468.0,673.0 L 505.0,673.0 L 771.0,630.0 L 806.0,628.0 L 845.0,636.0"/>
    <path d="M 616.0,520.0 L 645.0,545.0 L 643.0,779.0 L 625.0,802.0"/>
    <path d="M 500.0,836.0 L 536.0,844.0 L 732.0,819.0 L 781.0,823.0 L 813.0,834.0"/>
    <path d="M 142.0,524.0 L 189.0,532.0 L 234.0,521.0 L 290.0,497.0 L 333.0,494.0 L 340.0,499.0 L 330.0,530.0 L 289.0,597.0 L 280.0,603.0 L 267.0,650.0 L 300.0,653.0 L 318.0,646.0 L 340.0,647.0 L 372.0,660.0 L 379.0,673.0 L 332.0,796.0 L 286.0,868.0 L 221.0,926.0 L 142.0,975.0 L 101.0,992.0"/>
    <path d="M 173.0,786.0 L 258.0,799.0 L 498.0,935.0 L 668.0,1006.0 L 705.0,1012.0 L 760.0,1010.0 L 910.0,990.0"/>
  </g>
</svg>
