<svg xmlns="http://www.w3.org/2000/svg" viewBox="0 0 1024 1024">
  <g style="fill:none;stroke:#000000;stroke-width:50;stroke-linecap:round;stroke-linejoin:round;" transform="scale(1, 1) translate(0, 0)">
    <path d="M 207.0,351.0 L 231.0,358.0 L 287.0,357.0 L 449.0,328.0 L 696.0,298.0 L 766.0,298.0 L 807.0,312.0"/>
    <path d="M 348.0,253.0 L 370.0,264.0 L 389.0,283.0 L 416.0,432.0"/>
    <path d="M 594.0,191.0 L 609.0,199.0 L 631.0,229.0 L 606.0,333.0 L 575.0,424.0"/>
    <path d="M 277.0,489.0 L 296.0,501.0 L 319.0,533.0 L 348.0,673.0 L 367.0,725.0"/>
    <path d="M 317.0,492.0 L 348.0,500.0 L 592.0,459.0 L 631.0,458.0 L 665.0,468.0 L 688.0,498.0 L 650.0,633.0 L 628.0,687.0 L 632.0,709.0"/>
    <path d="M 359.0,608.0 L 374.0,599.0 L 479.0,578.0 L 535.0,571.0 L 567.0,577.0"/>
    <path d="M 382.0,702.0 L 399.0,692.0 L 593.0,667.0"/>
    <path d="M 111.0,835.0 L 170.0,845.0 L 395.0,811.0 L 790.0,774.0 L 833.0,774.0 L 903.0,792.0"/>
    <path d="M 425.0,707.0 L 466.0,737.0 L 452.0,829.0 L 425.0,899.0 L 403.0,933.0 L 369.0,971.0 L 319.0,1004.0 L 235.0,1040.0 L 184.0,1052.0"/>
    <path d="M 488.0,825.0 L 502.0,832.0 L 626.0,956.0 L 706.0,1020.0 L 789.0,1044.0 L 904.0,1062.0"/>
  </g>
</svg>
