<svg xmlns="http://www.w3.org/2000/svg" viewBox="0 0 1024 1024">
  <g style="fill:none;stroke:#000000;stroke-width:50;stroke-linecap:round;stroke-linejoin:round;" transform="scale(1, 1) translate(0, 0)">
    <path d="M 186.0,352.0 L 234.0,361.0 L 476.0,326.0 L 728.0,303.0 L 803.0,312.0 L 826.0,325.0"/>
    <path d="M 343.0,245.0 L 382.0,271.0 L 412.0,417.0"/>
    <path d="M 605.0,179.0 L 618.0,185.0 L 639.0,219.0 L 600.0,336.0 L 568.0,409.0"/>
    <path d="M 326.0,492.0 L 367.0,499.0 L 419.0,497.0 L 607.0,458.0 L 660.0,460.0"/>
    <path d="M 316.0,570.0 L 385.0,620.0 L 398.0,647.0"/>
    <path d="M 651.0,511.0 L 667.0,543.0 L 573.0,623.0"/>
    <path d="M 143.0,735.0 L 196.0,745.0 L 532.0,696.0 L 782.0,673.0 L 833.0,680.0 L 870.0,693.0"/>
    <path d="M 469.0,387.0 L 496.0,421.0 L 497.0,447.0 L 490.0,1076.0"/>
    <path d="M 463.0,730.0 L 423.0,801.0 L 365.0,864.0 L 245.0,953.0 L 161.0,992.0"/>
    <path d="M 526.0,725.0 L 545.0,756.0 L 633.0,857.0 L 731.0,950.0 L 888.0,983.0"/>
  </g>
</svg>
