<svg xmlns="http://www.w3.org/2000/svg" viewBox="0 0 1024 1024">
  <g style="fill:none;stroke:#000000;stroke-width:50;stroke-linecap:round;stroke-linejoin:round;" transform="scale(1, 1) translate(0, 0)">
    <path d="M 194.0,336.0 L 242.0,345.0 L 499.0,307.0 L 741.0,286.0 L 809.0,296.0 L 835.0,310.0"/>
    <path d="M 342.0,236.0 L 383.0,267.0 L 408.0,409.0"/>
    <path d="M 596.0,188.0 L 610.0,196.0 L 628.0,226.0 L 598.0,320.0 L 565.0,393.0"/>
    <path d="M 413.0,505.0 L 435.0,511.0 L 483.0,510.0 L 584.0,492.0 L 675.0,466.0 L 725.0,467.0"/>
    <path d="M 537.0,396.0 L 557.0,432.0 L 511.0,550.0 L 459.0,646.0 L 453.0,662.0 L 459.0,669.0 L 491.0,672.0 L 690.0,641.0 L 728.0,640.0 L 758.0,648.0"/>
    <path d="M 369.0,784.0 L 423.0,792.0 L 753.0,752.0 L 785.0,754.0 L 839.0,771.0"/>
    <path d="M 574.0,561.0 L 606.0,593.0 L 599.0,931.0"/>
    <path d="M 234.0,416.0 L 288.0,459.0 L 306.0,486.0"/>
    <path d="M 106.0,613.0 L 144.0,615.0 L 257.0,580.0 L 272.0,580.0 L 295.0,596.0 L 290.0,641.0 L 262.0,691.0 L 258.0,709.0 L 264.0,745.0 L 301.0,820.0 L 304.0,842.0 L 294.0,859.0"/>
    <path d="M 104.0,908.0 L 145.0,920.0 L 239.0,888.0 L 320.0,888.0 L 407.0,916.0 L 589.0,990.0 L 716.0,1017.0 L 790.0,1012.0 L 874.0,988.0"/>
  </g>
</svg>
