<svg xmlns="http://www.w3.org/2000/svg" viewBox="0 0 1024 1024">
  <g style="fill:none;stroke:#000000;stroke-width:50;stroke-linecap:round;stroke-linejoin:round;" transform="scale(1, 1) translate(0, 0)">
    <path d="M 237.0,323.0 L 296.0,331.0 L 343.0,328.0 L 458.0,311.0 L 685.0,290.0 L 752.0,295.0 L 786.0,309.0"/>
    <path d="M 358.0,228.0 L 391.0,248.0 L 399.0,260.0 L 424.0,401.0"/>
    <path d="M 585.0,183.0 L 598.0,190.0 L 617.0,220.0 L 584.0,322.0 L 555.0,389.0"/>
    <path d="M 224.0,436.0 L 233.0,463.0 L 229.0,496.0 L 180.0,593.0 L 179.0,637.0"/>
    <path d="M 263.0,462.0 L 274.0,473.0 L 295.0,474.0 L 534.0,431.0 L 738.0,410.0 L 775.0,424.0 L 793.0,454.0 L 726.0,536.0"/>
    <path d="M 466.0,488.0 L 436.0,491.0 L 399.0,544.0 L 383.0,545.0"/>
    <path d="M 382.0,562.0 L 406.0,575.0 L 461.0,555.0 L 562.0,531.0 L 590.0,536.0 L 609.0,553.0 L 589.0,682.0 L 580.0,711.0 L 565.0,731.0 L 557.0,735.0 L 475.0,699.0"/>
    <path d="M 437.0,622.0 L 472.0,641.0 L 489.0,658.0"/>
    <path d="M 333.0,551.0 L 357.0,574.0 L 364.0,599.0 L 359.0,793.0 L 364.0,816.0 L 411.0,815.0 L 500.0,795.0 L 713.0,764.0 L 738.0,772.0 L 761.0,799.0 L 727.0,958.0 L 697.0,1026.0 L 675.0,1042.0 L 580.0,1001.0"/>
    <path d="M 186.0,939.0 L 238.0,951.0 L 375.0,926.0 L 569.0,907.0 L 637.0,928.0"/>
  </g>
</svg>
