<svg xmlns="http://www.w3.org/2000/svg" viewBox="0 0 1024 1024">
  <g style="fill:none;stroke:#000000;stroke-width:50;stroke-linecap:round;stroke-linejoin:round;" transform="scale(1, 1) translate(0, 0)">
    <path d="M 349.0,206.0 L 385.0,226.0 L 391.0,236.0 L 429.0,398.0"/>
    <path d="M 172.0,315.0 L 210.0,331.0 L 244.0,332.0 L 487.0,280.0"/>
    <path d="M 625.0,165.0 L 642.0,172.0 L 663.0,201.0 L 637.0,320.0 L 606.0,418.0"/>
    <path d="M 599.0,289.0 L 664.0,297.0 L 795.0,283.0 L 845.0,290.0 L 869.0,301.0"/>
    <path d="M 209.0,537.0 L 231.0,543.0 L 268.0,542.0 L 361.0,524.0 L 398.0,511.0 L 450.0,511.0"/>
    <path d="M 145.0,627.0 L 170.0,651.0 L 193.0,811.0"/>
    <path d="M 205.0,660.0 L 220.0,649.0 L 385.0,622.0 L 440.0,607.0 L 475.0,610.0 L 487.0,620.0 L 493.0,641.0 L 485.0,731.0 L 472.0,771.0 L 460.0,785.0 L 389.0,756.0"/>
    <path d="M 289.0,403.0 L 325.0,439.0 L 333.0,459.0 L 325.0,840.0 L 312.0,979.0 L 313.0,1062.0"/>
    <path d="M 298.0,735.0 L 280.0,794.0 L 238.0,843.0 L 158.0,921.0 L 71.0,983.0"/>
    <path d="M 400.0,847.0 L 462.0,905.0 L 481.0,947.0"/>
    <path d="M 593.0,557.0 L 623.0,597.0 L 624.0,743.0 L 617.0,807.0 L 621.0,856.0"/>
    <path d="M 732.0,411.0 L 749.0,420.0 L 782.0,455.0 L 777.0,761.0 L 784.0,977.0 L 765.0,1024.0 L 655.0,978.0 L 653.0,970.0 L 642.0,970.0"/>
  </g>
</svg>
