<svg xmlns="http://www.w3.org/2000/svg" viewBox="0 0 1024 1024">
  <g style="fill:none;stroke:#000000;stroke-width:50;stroke-linecap:round;stroke-linejoin:round;" transform="scale(1, 1) translate(0, 0)">
    <path d="M 194.0,362.0 L 229.0,371.0 L 294.0,370.0 L 441.0,348.0 L 687.0,326.0 L 753.0,330.0 L 800.0,346.0"/>
    <path d="M 334.0,255.0 L 379.0,286.0 L 408.0,426.0"/>
    <path d="M 598.0,199.0 L 613.0,208.0 L 631.0,239.0 L 560.0,421.0"/>
    <path d="M 293.0,446.0 L 305.0,459.0 L 315.0,492.0 L 279.0,548.0 L 200.0,649.0 L 183.0,684.0 L 241.0,690.0 L 297.0,683.0 L 312.0,675.0"/>
    <path d="M 393.0,541.0 L 412.0,579.0 L 369.0,643.0 L 249.0,784.0 L 237.0,816.0 L 240.0,825.0 L 267.0,826.0 L 387.0,783.0"/>
    <path d="M 127.0,980.0 L 182.0,990.0 L 407.0,879.0"/>
    <path d="M 495.0,590.0 L 559.0,590.0 L 694.0,548.0 L 732.0,540.0 L 755.0,543.0"/>
    <path d="M 452.0,669.0 L 472.0,694.0 L 478.0,713.0 L 470.0,808.0 L 506.0,807.0 L 655.0,760.0 L 706.0,752.0 L 724.0,737.0"/>
    <path d="M 751.0,606.0 L 777.0,644.0 L 744.0,803.0"/>
    <path d="M 588.0,450.0 L 625.0,499.0 L 608.0,616.0 L 600.0,812.0 L 610.0,913.0 L 631.0,981.0 L 664.0,1005.0 L 729.0,1018.0 L 846.0,1017.0 L 906.0,999.0 L 916.0,993.0 L 918.0,963.0 L 916.0,842.0"/>
  </g>
</svg>
