<svg xmlns="http://www.w3.org/2000/svg" viewBox="0 0 1024 1024">
  <g style="fill:none;stroke:#000000;stroke-width:50;stroke-linecap:round;stroke-linejoin:round;" transform="scale(1, 1) translate(0, 0)">
    <path d="M 197.0,362.0 L 284.0,368.0 L 476.0,339.0 L 726.0,313.0 L 783.0,315.0 L 828.0,331.0"/>
    <path d="M 347.0,252.0 L 387.0,283.0 L 416.0,445.0"/>
    <path d="M 609.0,186.0 L 625.0,194.0 L 645.0,224.0 L 611.0,349.0 L 575.0,444.0"/>
    <path d="M 216.0,463.0 L 283.0,507.0 L 308.0,546.0"/>
    <path d="M 155.0,620.0 L 225.0,666.0 L 236.0,688.0"/>
    <path d="M 190.0,1026.0 L 179.0,984.0 L 182.0,946.0 L 316.0,736.0"/>
    <path d="M 366.0,548.0 L 413.0,554.0 L 594.0,519.0 L 796.0,493.0 L 876.0,509.0"/>
    <path d="M 402.0,658.0 L 423.0,681.0 L 431.0,700.0 L 453.0,839.0"/>
    <path d="M 448.0,662.0 L 462.0,670.0 L 554.0,646.0 L 583.0,660.0 L 592.0,671.0 L 577.0,732.0 L 555.0,755.0"/>
    <path d="M 470.0,804.0 L 485.0,794.0 L 542.0,781.0 L 583.0,780.0 L 604.0,786.0"/>
    <path d="M 677.0,534.0 L 710.0,561.0 L 718.0,576.0 L 718.0,985.0 L 696.0,1029.0 L 652.0,1017.0 L 572.0,978.0"/>
  </g>
</svg>
