<svg xmlns="http://www.w3.org/2000/svg" viewBox="0 0 1024 1024">
  <g style="fill:none;stroke:#000000;stroke-width:50;stroke-linecap:round;stroke-linejoin:round;" transform="scale(1, 1) translate(0, 0)">
    <path d="M 202.0,350.0 L 246.0,358.0 L 290.0,357.0 L 479.0,330.0 L 737.0,307.0 L 782.0,313.0 L 816.0,327.0"/>
    <path d="M 339.0,243.0 L 384.0,273.0 L 416.0,419.0"/>
    <path d="M 606.0,192.0 L 617.0,197.0 L 639.0,232.0 L 576.0,408.0"/>
    <path d="M 164.0,623.0 L 174.0,628.0 L 227.0,625.0 L 356.0,589.0 L 416.0,585.0"/>
    <path d="M 284.0,430.0 L 306.0,443.0 L 325.0,469.0 L 316.0,662.0 L 317.0,958.0 L 301.0,997.0 L 197.0,965.0"/>
    <path d="M 108.0,830.0 L 155.0,836.0 L 240.0,787.0 L 425.0,697.0"/>
    <path d="M 451.0,619.0 L 493.0,623.0 L 697.0,577.0 L 771.0,575.0"/>
    <path d="M 555.0,452.0 L 586.0,493.0 L 566.0,610.0 L 536.0,721.0 L 475.0,851.0 L 439.0,903.0 L 382.0,963.0"/>
    <path d="M 559.0,729.0 L 576.0,720.0 L 694.0,693.0 L 716.0,702.0 L 730.0,723.0 L 697.0,839.0 L 672.0,886.0 L 625.0,944.0 L 553.0,987.0 L 489.0,1008.0 L 433.0,1017.0"/>
    <path d="M 533.0,794.0 L 548.0,793.0 L 569.0,806.0 L 680.0,917.0 L 791.0,997.0 L 821.0,1005.0 L 937.0,1010.0"/>
    <path d="M 700.0,438.0 L 780.0,480.0 L 810.0,516.0"/>
  </g>
</svg>
