<svg xmlns="http://www.w3.org/2000/svg" viewBox="0 0 1024 1024">
  <g style="fill:none;stroke:#000000;stroke-width:50;stroke-linecap:round;stroke-linejoin:round;" transform="scale(1, 1) translate(0, 0)">
    <path d="M 176.0,390.0 L 197.0,396.0 L 260.0,396.0 L 434.0,367.0 L 715.0,333.0 L 780.0,337.0 L 815.0,351.0"/>
    <path d="M 325.0,254.0 L 347.0,264.0 L 367.0,283.0 L 404.0,448.0"/>
    <path d="M 601.0,191.0 L 626.0,208.0 L 637.0,232.0 L 602.0,371.0 L 579.0,432.0"/>
    <path d="M 327.0,528.0 L 364.0,540.0 L 381.0,538.0 L 549.0,485.0 L 584.0,488.0 L 603.0,510.0 L 598.0,519.0 L 522.0,594.0 L 508.0,595.0"/>
    <path d="M 467.0,598.0 L 505.0,628.0 L 512.0,651.0 L 523.0,744.0 L 519.0,835.0 L 496.0,876.0 L 412.0,843.0"/>
    <path d="M 320.0,649.0 L 385.0,683.0 L 402.0,708.0"/>
    <path d="M 288.0,831.0 L 326.0,839.0 L 449.0,727.0"/>
    <path d="M 684.0,600.0 L 695.0,630.0 L 607.0,704.0 L 598.0,701.0"/>
    <path d="M 542.0,688.0 L 555.0,705.0 L 636.0,765.0 L 686.0,812.0 L 705.0,839.0 L 713.0,864.0"/>
    <path d="M 189.0,715.0 L 211.0,737.0 L 228.0,769.0 L 230.0,847.0 L 217.0,947.0 L 219.0,965.0 L 232.0,971.0 L 474.0,934.0 L 664.0,918.0 L 731.0,920.0 L 746.0,937.0"/>
    <path d="M 765.0,686.0 L 799.0,731.0 L 774.0,980.0"/>
  </g>
</svg>
