<svg xmlns="http://www.w3.org/2000/svg" viewBox="0 0 1024 1024">
  <g style="fill:none;stroke:#000000;stroke-width:50;stroke-linecap:round;stroke-linejoin:round;" transform="scale(1, 1) translate(0, 0)">
    <path d="M 197.0,351.0 L 220.0,358.0 L 273.0,359.0 L 435.0,332.0 L 751.0,300.0 L 811.0,306.0 L 836.0,317.0"/>
    <path d="M 335.0,249.0 L 375.0,278.0 L 407.0,433.0"/>
    <path d="M 616.0,188.0 L 630.0,196.0 L 648.0,226.0 L 613.0,336.0 L 579.0,413.0"/>
    <path d="M 456.0,409.0 L 539.0,469.0"/>
    <path d="M 317.0,518.0 L 350.0,526.0 L 385.0,526.0 L 474.0,513.0 L 634.0,478.0 L 691.0,476.0"/>
    <path d="M 361.0,585.0 L 398.0,629.0 L 410.0,656.0"/>
    <path d="M 600.0,537.0 L 611.0,546.0 L 622.0,578.0 L 570.0,665.0 L 550.0,677.0"/>
    <path d="M 112.0,737.0 L 174.0,755.0 L 462.0,710.0 L 855.0,672.0 L 944.0,700.0"/>
    <path d="M 318.0,821.0 L 348.0,846.0 L 356.0,863.0 L 392.0,1044.0"/>
    <path d="M 379.0,824.0 L 388.0,832.0 L 408.0,834.0 L 607.0,800.0 L 639.0,803.0 L 677.0,834.0 L 647.0,921.0 L 620.0,943.0"/>
    <path d="M 410.0,984.0 L 433.0,995.0 L 665.0,970.0 L 704.0,983.0"/>
  </g>
</svg>
