<svg xmlns="http://www.w3.org/2000/svg" viewBox="0 0 1024 1024">
  <g style="fill:none;stroke:#000000;stroke-width:50;stroke-linecap:round;stroke-linejoin:round;" transform="scale(1, 1) translate(0, 0)">
    <path d="M 193.0,362.0 L 236.0,369.0 L 280.0,368.0 L 503.0,335.0 L 715.0,312.0 L 767.0,315.0 L 811.0,331.0"/>
    <path d="M 337.0,230.0 L 359.0,240.0 L 379.0,260.0 L 412.0,420.0"/>
    <path d="M 600.0,177.0 L 614.0,184.0 L 632.0,214.0 L 589.0,350.0 L 559.0,421.0"/>
    <path d="M 145.0,557.0 L 162.0,564.0 L 188.0,563.0 L 309.0,514.0 L 343.0,518.0 L 360.0,534.0 L 355.0,546.0 L 303.0,615.0 L 300.0,627.0 L 294.0,628.0"/>
    <path d="M 251.0,633.0 L 263.0,636.0 L 292.0,666.0 L 316.0,744.0 L 321.0,842.0 L 312.0,916.0 L 295.0,956.0 L 270.0,980.0 L 196.0,949.0"/>
    <path d="M 81.0,836.0 L 131.0,840.0 L 375.0,687.0"/>
    <path d="M 728.0,471.0 L 668.0,466.0 L 598.0,516.0 L 527.0,551.0 L 521.0,561.0"/>
    <path d="M 457.0,535.0 L 488.0,568.0 L 486.0,663.0 L 462.0,801.0 L 421.0,915.0 L 380.0,984.0 L 351.0,1015.0"/>
    <path d="M 541.0,561.0 L 580.0,582.0 L 584.0,615.0 L 586.0,794.0 L 572.0,924.0 L 574.0,967.0 L 610.0,959.0 L 674.0,919.0 L 678.0,910.0"/>
    <path d="M 660.0,847.0 L 721.0,919.0 L 732.0,954.0"/>
    <path d="M 619.0,606.0 L 649.0,629.0 L 671.0,667.0 L 683.0,675.0 L 704.0,709.0 L 775.0,793.0 L 845.0,861.0 L 862.0,872.0 L 904.0,883.0 L 986.0,896.0"/>
  </g>
</svg>
