<svg xmlns="http://www.w3.org/2000/svg" viewBox="0 0 1024 1024">
  <g style="fill:none;stroke:#000000;stroke-width:50;stroke-linecap:round;stroke-linejoin:round;" transform="scale(1, 1) translate(0, 0)">
    <path d="M 201.0,319.0 L 244.0,327.0 L 301.0,325.0 L 477.0,300.0 L 745.0,278.0 L 806.0,285.0 L 830.0,297.0"/>
    <path d="M 352.0,231.0 L 388.0,257.0 L 412.0,385.0"/>
    <path d="M 613.0,178.0 L 627.0,186.0 L 644.0,216.0 L 612.0,312.0 L 584.0,373.0"/>
    <path d="M 314.0,476.0 L 336.0,483.0 L 389.0,484.0 L 632.0,442.0 L 671.0,444.0"/>
    <path d="M 466.0,385.0 L 494.0,408.0 L 502.0,425.0 L 498.0,543.0 L 483.0,565.0"/>
    <path d="M 170.0,615.0 L 226.0,624.0 L 430.0,592.0 L 764.0,559.0 L 806.0,564.0 L 844.0,578.0"/>
    <path d="M 329.0,631.0 L 347.0,654.0 L 320.0,686.0 L 230.0,757.0 L 197.0,772.0"/>
    <path d="M 616.0,628.0 L 724.0,676.0 L 743.0,689.0 L 764.0,716.0"/>
    <path d="M 409.0,681.0 L 427.0,718.0 L 366.0,801.0 L 302.0,863.0 L 242.0,907.0 L 153.0,952.0"/>
    <path d="M 461.0,741.0 L 587.0,715.0 L 615.0,738.0 L 618.0,747.0 L 590.0,829.0 L 552.0,895.0 L 488.0,959.0 L 442.0,984.0 L 356.0,1011.0 L 254.0,1026.0"/>
    <path d="M 407.0,796.0 L 431.0,810.0 L 509.0,888.0 L 585.0,950.0 L 675.0,1012.0 L 714.0,1030.0 L 884.0,1053.0"/>
  </g>
</svg>
