<svg xmlns="http://www.w3.org/2000/svg" viewBox="0 0 1024 1024">
  <g style="fill:none;stroke:#000000;stroke-width:50;stroke-linecap:round;stroke-linejoin:round;" transform="scale(1, 1) translate(0, 0)">
    <path d="M 210.0,354.0 L 264.0,363.0 L 306.0,360.0 L 479.0,336.0 L 691.0,316.0 L 750.0,317.0 L 808.0,335.0"/>
    <path d="M 341.0,246.0 L 385.0,276.0 L 420.0,428.0"/>
    <path d="M 618.0,189.0 L 634.0,200.0 L 651.0,229.0 L 612.0,333.0 L 576.0,408.0"/>
    <path d="M 296.0,456.0 L 357.0,493.0 L 379.0,516.0"/>
    <path d="M 112.0,639.0 L 161.0,648.0 L 396.0,594.0 L 440.0,587.0 L 480.0,592.0"/>
    <path d="M 332.0,719.0 L 350.0,719.0 L 397.0,735.0 L 414.0,747.0 L 428.0,772.0 L 375.0,929.0 L 345.0,976.0 L 323.0,993.0 L 234.0,938.0"/>
    <path d="M 297.0,646.0 L 319.0,670.0 L 266.0,770.0 L 163.0,894.0 L 91.0,950.0"/>
    <path d="M 603.0,437.0 L 623.0,457.0 L 631.0,477.0 L 603.0,538.0 L 530.0,645.0 L 467.0,708.0"/>
    <path d="M 654.0,520.0 L 654.0,532.0 L 716.0,594.0 L 825.0,686.0 L 884.0,697.0 L 955.0,701.0"/>
    <path d="M 581.0,702.0 L 663.0,749.0 L 694.0,788.0"/>
    <path d="M 570.0,876.0 L 668.0,943.0 L 695.0,973.0 L 713.0,1017.0"/>
  </g>
</svg>
