<svg xmlns="http://www.w3.org/2000/svg" viewBox="0 0 1024 1024">
  <g style="fill:none;stroke:#000000;stroke-width:50;stroke-linecap:round;stroke-linejoin:round;" transform="scale(1, 1) translate(0, 0)">
    <path d="M 201.0,374.0 L 246.0,383.0 L 304.0,382.0 L 451.0,361.0 L 737.0,338.0 L 791.0,342.0 L 834.0,359.0"/>
    <path d="M 343.0,259.0 L 382.0,281.0 L 388.0,290.0 L 424.0,459.0"/>
    <path d="M 614.0,210.0 L 629.0,218.0 L 649.0,249.0 L 614.0,374.0 L 583.0,452.0"/>
    <path d="M 249.0,499.0 L 338.0,550.0 L 356.0,577.0"/>
    <path d="M 159.0,632.0 L 238.0,676.0 L 260.0,700.0"/>
    <path d="M 216.0,1024.0 L 207.0,996.0 L 208.0,948.0 L 340.0,732.0"/>
    <path d="M 456.0,528.0 L 478.0,550.0 L 489.0,576.0 L 486.0,925.0 L 469.0,939.0"/>
    <path d="M 508.0,540.0 L 526.0,547.0 L 616.0,528.0 L 627.0,521.0 L 678.0,515.0 L 694.0,521.0 L 716.0,551.0 L 703.0,878.0 L 701.0,897.0 L 678.0,915.0"/>
    <path d="M 518.0,694.0 L 529.0,681.0 L 563.0,672.0 L 598.0,666.0 L 631.0,669.0"/>
    <path d="M 516.0,825.0 L 526.0,813.0 L 554.0,806.0 L 599.0,800.0 L 631.0,806.0"/>
    <path d="M 331.0,975.0 L 383.0,986.0 L 577.0,959.0 L 818.0,940.0 L 869.0,949.0 L 906.0,964.0"/>
  </g>
</svg>
