<svg xmlns="http://www.w3.org/2000/svg" viewBox="0 0 1024 1024">
  <g style="fill:none;stroke:#000000;stroke-width:50;stroke-linecap:round;stroke-linejoin:round;" transform="scale(1, 1) translate(0, 0)">
    <path d="M 217.0,318.0 L 226.0,323.0 L 302.0,326.0 L 469.0,302.0 L 719.0,278.0 L 771.0,282.0 L 813.0,298.0"/>
    <path d="M 355.0,220.0 L 374.0,229.0 L 394.0,249.0 L 420.0,381.0"/>
    <path d="M 624.0,171.0 L 638.0,178.0 L 656.0,209.0 L 592.0,377.0"/>
    <path d="M 476.0,370.0 L 558.0,430.0"/>
    <path d="M 318.0,482.0 L 342.0,490.0 L 397.0,490.0 L 667.0,440.0 L 709.0,441.0"/>
    <path d="M 349.0,538.0 L 365.0,569.0 L 327.0,636.0 L 278.0,686.0 L 223.0,720.0"/>
    <path d="M 356.0,640.0 L 365.0,639.0 L 390.0,658.0 L 417.0,690.0"/>
    <path d="M 617.0,504.0 L 640.0,535.0 L 635.0,548.0 L 591.0,622.0 L 542.0,666.0"/>
    <path d="M 627.0,610.0 L 646.0,610.0 L 697.0,640.0 L 716.0,654.0 L 738.0,684.0"/>
    <path d="M 124.0,801.0 L 185.0,819.0 L 438.0,787.0 L 803.0,763.0 L 831.0,768.0 L 891.0,793.0"/>
    <path d="M 470.0,659.0 L 495.0,679.0 L 509.0,705.0 L 503.0,1077.0"/>
  </g>
</svg>
