<svg xmlns="http://www.w3.org/2000/svg" viewBox="0 0 1024 1024">
  <g style="fill:none;stroke:#000000;stroke-width:50;stroke-linecap:round;stroke-linejoin:round;" transform="scale(1, 1) translate(0, 0)">
    <path d="M 181.0,334.0 L 217.0,341.0 L 276.0,340.0 L 459.0,312.0 L 749.0,283.0 L 814.0,288.0 L 849.0,302.0"/>
    <path d="M 337.0,210.0 L 378.0,236.0 L 416.0,412.0"/>
    <path d="M 625.0,165.0 L 641.0,174.0 L 661.0,205.0 L 627.0,319.0 L 595.0,400.0"/>
    <path d="M 161.0,503.0 L 183.0,525.0 L 199.0,553.0 L 205.0,756.0 L 217.0,812.0"/>
    <path d="M 206.0,516.0 L 236.0,523.0 L 349.0,490.0 L 373.0,492.0 L 399.0,515.0 L 389.0,712.0 L 384.0,754.0 L 369.0,783.0 L 372.0,830.0"/>
    <path d="M 231.0,660.0 L 240.0,648.0 L 284.0,637.0 L 318.0,633.0 L 341.0,638.0"/>
    <path d="M 235.0,779.0 L 246.0,769.0 L 345.0,752.0"/>
    <path d="M 514.0,451.0 L 547.0,478.0 L 553.0,493.0 L 548.0,659.0 L 527.0,794.0 L 494.0,882.0 L 462.0,934.0 L 395.0,1009.0 L 342.0,1044.0"/>
    <path d="M 579.0,459.0 L 587.0,467.0 L 602.0,468.0 L 732.0,435.0 L 751.0,440.0 L 777.0,466.0 L 783.0,985.0 L 763.0,1022.0 L 658.0,980.0"/>
    <path d="M 582.0,631.0 L 593.0,620.0 L 691.0,604.0 L 716.0,608.0"/>
    <path d="M 560.0,768.0 L 575.0,760.0 L 658.0,746.0 L 716.0,744.0"/>
  </g>
</svg>
