<svg xmlns="http://www.w3.org/2000/svg" viewBox="0 0 1024 1024">
  <g style="fill:none;stroke:#000000;stroke-width:50;stroke-linecap:round;stroke-linejoin:round;" transform="scale(1, 1) translate(0, 0)">
    <path d="M 202.0,346.0 L 274.0,356.0 L 447.0,332.0 L 705.0,310.0 L 752.0,313.0 L 800.0,330.0"/>
    <path d="M 339.0,251.0 L 383.0,278.0 L 416.0,419.0"/>
    <path d="M 606.0,199.0 L 621.0,208.0 L 639.0,239.0 L 572.0,413.0"/>
    <path d="M 236.0,520.0 L 288.0,532.0 L 663.0,482.0 L 717.0,480.0 L 752.0,488.0"/>
    <path d="M 465.0,395.0 L 483.0,433.0 L 430.0,536.0 L 373.0,616.0 L 341.0,650.0 L 270.0,708.0 L 192.0,756.0 L 117.0,789.0"/>
    <path d="M 568.0,522.0 L 592.0,533.0 L 685.0,616.0 L 780.0,683.0 L 837.0,696.0 L 963.0,710.0"/>
    <path d="M 378.0,682.0 L 440.0,688.0 L 579.0,659.0 L 623.0,661.0"/>
    <path d="M 266.0,804.0 L 314.0,811.0 L 443.0,788.0 L 657.0,764.0 L 739.0,780.0"/>
    <path d="M 489.0,805.0 L 513.0,824.0 L 522.0,850.0 L 520.0,979.0 L 514.0,1009.0 L 500.0,1032.0 L 411.0,997.0"/>
    <path d="M 350.0,879.0 L 315.0,944.0 L 272.0,1001.0"/>
    <path d="M 630.0,879.0 L 736.0,952.0 L 760.0,988.0 L 766.0,1008.0"/>
  </g>
</svg>
