<svg xmlns="http://www.w3.org/2000/svg" viewBox="0 0 1024 1024">
  <g style="fill:none;stroke:#000000;stroke-width:50;stroke-linecap:round;stroke-linejoin:round;" transform="scale(1, 1) translate(0, 0)">
    <path d="M 334.0,210.0 L 375.0,240.0 L 405.0,404.0"/>
    <path d="M 194.0,326.0 L 216.0,337.0 L 263.0,343.0 L 490.0,297.0"/>
    <path d="M 615.0,162.0 L 638.0,181.0 L 649.0,205.0 L 615.0,320.0 L 584.0,399.0"/>
    <path d="M 577.0,292.0 L 644.0,298.0 L 793.0,283.0 L 836.0,291.0 L 846.0,298.0"/>
    <path d="M 220.0,514.0 L 240.0,525.0 L 257.0,544.0 L 261.0,572.0 L 253.0,733.0 L 239.0,809.0 L 219.0,865.0 L 190.0,916.0 L 140.0,973.0 L 88.0,1010.0"/>
    <path d="M 295.0,544.0 L 301.0,536.0 L 401.0,507.0 L 421.0,511.0 L 443.0,534.0 L 436.0,650.0 L 436.0,873.0 L 429.0,955.0 L 409.0,986.0 L 332.0,952.0 L 317.0,953.0"/>
    <path d="M 287.0,680.0 L 295.0,669.0 L 314.0,661.0 L 366.0,660.0"/>
    <path d="M 267.0,802.0 L 287.0,785.0 L 307.0,779.0 L 340.0,775.0 L 373.0,782.0"/>
    <path d="M 560.0,485.0 L 593.0,507.0 L 604.0,534.0 L 608.0,675.0 L 597.0,807.0 L 577.0,879.0 L 546.0,944.0 L 474.0,1032.0 L 434.0,1059.0"/>
    <path d="M 630.0,498.0 L 661.0,502.0 L 744.0,474.0 L 770.0,471.0 L 786.0,475.0 L 813.0,501.0 L 808.0,688.0 L 816.0,948.0 L 811.0,989.0 L 789.0,1026.0 L 743.0,1006.0 L 691.0,971.0"/>
    <path d="M 636.0,652.0 L 660.0,634.0 L 708.0,628.0 L 738.0,633.0"/>
    <path d="M 632.0,781.0 L 645.0,770.0 L 667.0,764.0 L 708.0,763.0 L 738.0,770.0"/>
  </g>
</svg>
