<svg xmlns="http://www.w3.org/2000/svg" viewBox="0 0 1024 1024">
  <g style="fill:none;stroke:#000000;stroke-width:50;stroke-linecap:round;stroke-linejoin:round;" transform="scale(1, 1) translate(0, 0)">
    <path d="M 217.0,343.0 L 260.0,350.0 L 304.0,348.0 L 449.0,323.0 L 727.0,292.0 L 768.0,293.0 L 816.0,309.0"/>
    <path d="M 362.0,237.0 L 402.0,262.0 L 435.0,413.0"/>
    <path d="M 604.0,184.0 L 618.0,191.0 L 637.0,220.0 L 602.0,329.0 L 571.0,401.0"/>
    <path d="M 240.0,492.0 L 265.0,497.0 L 346.0,470.0 L 372.0,471.0 L 384.0,483.0 L 369.0,520.0 L 340.0,563.0 L 330.0,595.0 L 338.0,618.0 L 388.0,686.0 L 395.0,732.0 L 386.0,742.0 L 353.0,740.0 L 290.0,718.0"/>
    <path d="M 175.0,474.0 L 210.0,511.0 L 217.0,568.0 L 219.0,789.0 L 194.0,980.0 L 195.0,1034.0"/>
    <path d="M 617.0,402.0 L 698.0,453.0"/>
    <path d="M 525.0,497.0 L 595.0,501.0 L 741.0,472.0 L 815.0,466.0"/>
    <path d="M 550.0,563.0 L 596.0,613.0 L 604.0,640.0"/>
    <path d="M 739.0,501.0 L 762.0,527.0 L 716.0,620.0 L 687.0,658.0"/>
    <path d="M 529.0,719.0 L 547.0,701.0 L 794.0,661.0 L 850.0,655.0 L 890.0,663.0"/>
    <path d="M 464.0,664.0 L 484.0,680.0 L 496.0,704.0 L 484.0,813.0 L 466.0,889.0 L 418.0,983.0 L 351.0,1045.0 L 319.0,1060.0"/>
  </g>
</svg>
