<svg xmlns="http://www.w3.org/2000/svg" viewBox="0 0 1024 1024">
  <g style="fill:none;stroke:#000000;stroke-width:50;stroke-linecap:round;stroke-linejoin:round;" transform="scale(1, 1) translate(0, 0)">
    <path d="M 229.0,318.0 L 252.0,325.0 L 305.0,326.0 L 470.0,301.0 L 721.0,276.0 L 787.0,280.0 L 824.0,295.0"/>
    <path d="M 351.0,217.0 L 393.0,249.0 L 416.0,396.0"/>
    <path d="M 609.0,176.0 L 621.0,181.0 L 644.0,216.0 L 616.0,310.0 L 583.0,392.0"/>
    <path d="M 457.0,387.0 L 525.0,428.0 L 541.0,453.0"/>
    <path d="M 226.0,506.0 L 233.0,520.0 L 234.0,552.0 L 192.0,625.0 L 179.0,687.0"/>
    <path d="M 261.0,536.0 L 278.0,546.0 L 313.0,545.0 L 534.0,505.0 L 730.0,482.0 L 768.0,485.0 L 793.0,496.0 L 813.0,524.0 L 738.0,605.0"/>
    <path d="M 369.0,615.0 L 430.0,623.0 L 583.0,591.0 L 634.0,592.0"/>
    <path d="M 306.0,711.0 L 335.0,732.0 L 347.0,762.0 L 383.0,917.0"/>
    <path d="M 370.0,711.0 L 383.0,721.0 L 460.0,703.0 L 592.0,684.0 L 612.0,682.0 L 651.0,690.0 L 674.0,719.0 L 647.0,812.0 L 624.0,871.0 L 618.0,876.0 L 597.0,863.0"/>
    <path d="M 392.0,814.0 L 397.0,804.0 L 543.0,780.0 L 579.0,785.0"/>
    <path d="M 404.0,901.0 L 412.0,891.0 L 503.0,877.0 L 571.0,870.0 L 581.0,878.0"/>
    <path d="M 172.0,1004.0 L 192.0,1015.0 L 232.0,1024.0 L 500.0,995.0 L 767.0,976.0 L 824.0,985.0 L 866.0,1003.0"/>
  </g>
</svg>
