<svg xmlns="http://www.w3.org/2000/svg" viewBox="0 0 1024 1024">
  <g style="fill:none;stroke:#000000;stroke-width:50;stroke-linecap:round;stroke-linejoin:round;" transform="scale(1, 1) translate(0, 0)">
    <path d="M 209.0,315.0 L 266.0,325.0 L 522.0,294.0 L 735.0,278.0 L 788.0,283.0 L 822.0,297.0"/>
    <path d="M 364.0,224.0 L 384.0,233.0 L 403.0,252.0 L 428.0,370.0"/>
    <path d="M 600.0,181.0 L 614.0,189.0 L 632.0,220.0 L 572.0,365.0"/>
    <path d="M 248.0,428.0 L 280.0,458.0 L 312.0,578.0"/>
    <path d="M 298.0,428.0 L 310.0,436.0 L 382.0,415.0 L 422.0,410.0 L 443.0,431.0 L 428.0,487.0 L 409.0,497.0"/>
    <path d="M 327.0,554.0 L 337.0,545.0 L 399.0,528.0 L 437.0,525.0 L 460.0,530.0"/>
    <path d="M 521.0,391.0 L 551.0,420.0 L 576.0,535.0"/>
    <path d="M 577.0,414.0 L 585.0,405.0 L 679.0,379.0 L 705.0,380.0 L 726.0,402.0 L 723.0,416.0 L 710.0,448.0 L 685.0,463.0"/>
    <path d="M 592.0,512.0 L 605.0,502.0 L 684.0,489.0 L 725.0,488.0 L 743.0,496.0"/>
    <path d="M 358.0,610.0 L 408.0,619.0 L 602.0,587.0 L 641.0,589.0"/>
    <path d="M 135.0,735.0 L 198.0,744.0 L 496.0,699.0 L 799.0,673.0 L 843.0,678.0 L 890.0,693.0"/>
    <path d="M 391.0,738.0 L 414.0,761.0 L 389.0,813.0 L 386.0,839.0 L 420.0,842.0 L 601.0,807.0 L 619.0,811.0 L 649.0,839.0 L 642.0,900.0 L 625.0,949.0 L 589.0,1011.0 L 564.0,1035.0 L 543.0,1046.0 L 438.0,993.0"/>
  </g>
</svg>
