<svg xmlns="http://www.w3.org/2000/svg" viewBox="0 0 1024 1024">
  <g style="fill:none;stroke:#000000;stroke-width:50;stroke-linecap:round;stroke-linejoin:round;" transform="scale(1, 1) translate(0, 0)">
    <path d="M 201.0,306.0 L 223.0,314.0 L 271.0,317.0 L 479.0,289.0 L 740.0,266.0 L 807.0,270.0 L 849.0,286.0"/>
    <path d="M 344.0,209.0 L 366.0,219.0 L 386.0,239.0 L 412.0,384.0"/>
    <path d="M 637.0,158.0 L 650.0,166.0 L 667.0,196.0 L 632.0,301.0 L 592.0,389.0"/>
    <path d="M 236.0,545.0 L 297.0,546.0 L 430.0,512.0 L 472.0,511.0"/>
    <path d="M 333.0,418.0 L 367.0,450.0 L 363.0,600.0 L 348.0,625.0"/>
    <path d="M 124.0,676.0 L 156.0,685.0 L 188.0,685.0 L 428.0,635.0 L 468.0,629.0 L 510.0,635.0"/>
    <path d="M 233.0,795.0 L 295.0,799.0 L 423.0,767.0 L 472.0,768.0"/>
    <path d="M 338.0,675.0 L 364.0,698.0 L 366.0,719.0 L 362.0,863.0 L 345.0,889.0"/>
    <path d="M 140.0,952.0 L 195.0,970.0 L 517.0,859.0"/>
    <path d="M 544.0,620.0 L 580.0,627.0 L 847.0,584.0 L 918.0,598.0"/>
    <path d="M 674.0,410.0 L 693.0,424.0 L 721.0,459.0 L 726.0,862.0 L 720.0,965.0 L 701.0,996.0 L 582.0,947.0"/>
    <path d="M 528.0,743.0 L 591.0,792.0 L 602.0,818.0"/>
  </g>
</svg>
