<svg xmlns="http://www.w3.org/2000/svg" viewBox="0 0 1024 1024">
  <g style="fill:none;stroke:#000000;stroke-width:50;stroke-linecap:round;stroke-linejoin:round;" transform="scale(1, 1) translate(0, 0)">
    <path d="M 201.0,354.0 L 223.0,361.0 L 293.0,361.0 L 715.0,314.0 L 770.0,317.0 L 817.0,334.0"/>
    <path d="M 355.0,245.0 L 379.0,256.0 L 399.0,276.0 L 428.0,431.0"/>
    <path d="M 613.0,194.0 L 629.0,202.0 L 650.0,233.0 L 617.0,350.0 L 587.0,428.0"/>
    <path d="M 138.0,637.0 L 190.0,643.0 L 428.0,594.0 L 472.0,601.0"/>
    <path d="M 309.0,431.0 L 353.0,479.0 L 333.0,1030.0"/>
    <path d="M 318.0,646.0 L 298.0,719.0 L 248.0,798.0 L 160.0,906.0 L 102.0,962.0"/>
    <path d="M 375.0,704.0 L 433.0,748.0 L 458.0,785.0"/>
    <path d="M 518.0,511.0 L 545.0,540.0 L 552.0,562.0 L 552.0,764.0 L 539.0,925.0 L 545.0,994.0"/>
    <path d="M 577.0,525.0 L 591.0,536.0 L 736.0,497.0 L 765.0,512.0 L 783.0,531.0 L 793.0,871.0 L 793.0,906.0 L 780.0,941.0 L 784.0,1002.0"/>
    <path d="M 580.0,685.0 L 636.0,663.0 L 689.0,656.0 L 712.0,663.0"/>
    <path d="M 579.0,791.0 L 588.0,780.0 L 640.0,770.0 L 687.0,766.0 L 722.0,774.0"/>
    <path d="M 575.0,940.0 L 610.0,926.0 L 738.0,909.0"/>
  </g>
</svg>
