<svg xmlns="http://www.w3.org/2000/svg" viewBox="0 0 1024 1024">
  <g style="fill:none;stroke:#000000;stroke-width:50;stroke-linecap:round;stroke-linejoin:round;" transform="scale(1, 1) translate(0, 0)">
    <path d="M 197.0,330.0 L 220.0,337.0 L 285.0,339.0 L 494.0,310.0 L 716.0,290.0 L 771.0,293.0 L 817.0,310.0"/>
    <path d="M 364.0,220.0 L 405.0,251.0 L 428.0,393.0"/>
    <path d="M 616.0,179.0 L 630.0,187.0 L 647.0,217.0 L 613.0,319.0 L 593.0,362.0 L 582.0,372.0"/>
    <path d="M 240.0,510.0 L 301.0,519.0 L 413.0,508.0 L 686.0,467.0 L 733.0,468.0 L 757.0,475.0"/>
    <path d="M 360.0,417.0 L 396.0,464.0 L 402.0,738.0 L 387.0,753.0"/>
    <path d="M 578.0,388.0 L 622.0,427.0 L 607.0,694.0 L 602.0,718.0 L 587.0,733.0"/>
    <path d="M 429.0,606.0 L 437.0,594.0 L 484.0,585.0 L 526.0,583.0 L 547.0,589.0"/>
    <path d="M 423.0,695.0 L 436.0,685.0 L 483.0,676.0 L 525.0,674.0 L 546.0,680.0"/>
    <path d="M 142.0,799.0 L 183.0,808.0 L 506.0,764.0 L 770.0,742.0 L 829.0,750.0 L 862.0,762.0"/>
    <path d="M 438.0,830.0 L 448.0,844.0 L 450.0,863.0 L 398.0,914.0 L 347.0,946.0"/>
    <path d="M 555.0,825.0 L 637.0,879.0 L 671.0,928.0"/>
    <path d="M 275.0,822.0 L 304.0,839.0 L 305.0,849.0 L 289.0,1018.0 L 316.0,1020.0 L 438.0,998.0 L 559.0,990.0 L 724.0,990.0 L 756.0,998.0 L 791.0,1017.0"/>
  </g>
</svg>
