<svg xmlns="http://www.w3.org/2000/svg" viewBox="0 0 1024 1024">
  <g style="fill:none;stroke:#000000;stroke-width:50;stroke-linecap:round;stroke-linejoin:round;" transform="scale(1, 1) translate(0, 0)">
    <path d="M 185.0,311.0 L 253.0,319.0 L 493.0,289.0 L 759.0,265.0 L 806.0,270.0 L 842.0,285.0"/>
    <path d="M 365.0,203.0 L 404.0,230.0 L 428.0,377.0"/>
    <path d="M 608.0,179.0 L 622.0,186.0 L 639.0,216.0 L 613.0,298.0 L 584.0,365.0"/>
    <path d="M 318.0,423.0 L 351.0,448.0 L 403.0,621.0"/>
    <path d="M 379.0,425.0 L 389.0,434.0 L 400.0,434.0 L 498.0,415.0 L 626.0,400.0 L 668.0,410.0 L 690.0,439.0 L 659.0,544.0 L 637.0,597.0 L 640.0,617.0"/>
    <path d="M 404.0,529.0 L 434.0,514.0 L 474.0,506.0 L 554.0,495.0 L 575.0,501.0"/>
    <path d="M 415.0,613.0 L 428.0,602.0 L 607.0,577.0"/>
    <path d="M 370.0,608.0 L 384.0,649.0 L 336.0,709.0 L 259.0,771.0 L 196.0,801.0"/>
    <path d="M 363.0,718.0 L 429.0,716.0 L 713.0,677.0 L 745.0,684.0 L 764.0,700.0 L 772.0,711.0 L 755.0,896.0 L 735.0,978.0 L 717.0,1017.0 L 688.0,1043.0 L 613.0,1005.0 L 609.0,996.0 L 597.0,997.0"/>
    <path d="M 488.0,731.0 L 506.0,752.0 L 488.0,782.0 L 443.0,833.0 L 383.0,872.0"/>
    <path d="M 507.0,801.0 L 526.0,799.0 L 623.0,834.0 L 662.0,870.0"/>
    <path d="M 295.0,802.0 L 328.0,839.0 L 314.0,952.0 L 334.0,954.0 L 396.0,938.0 L 533.0,922.0 L 589.0,923.0 L 636.0,940.0"/>
  </g>
</svg>
