<svg xmlns="http://www.w3.org/2000/svg" viewBox="0 0 1024 1024">
  <g style="fill:none;stroke:#000000;stroke-width:50;stroke-linecap:round;stroke-linejoin:round;" transform="scale(1, 1) translate(0, 0)">
    <path d="M 361.0,208.0 L 399.0,231.0 L 428.0,362.0"/>
    <path d="M 217.0,302.0 L 263.0,315.0 L 281.0,314.0 L 474.0,271.0"/>
    <path d="M 617.0,159.0 L 630.0,166.0 L 648.0,196.0 L 617.0,292.0 L 592.0,347.0"/>
    <path d="M 574.0,246.0 L 610.0,255.0 L 761.0,242.0 L 807.0,249.0 L 829.0,260.0"/>
    <path d="M 474.0,340.0 L 502.0,377.0 L 484.0,480.0 L 464.0,504.0"/>
    <path d="M 332.0,430.0 L 362.0,435.0 L 429.0,429.0 L 645.0,392.0 L 664.0,399.0 L 682.0,418.0 L 665.0,459.0 L 634.0,479.0"/>
    <path d="M 119.0,555.0 L 179.0,565.0 L 423.0,528.0 L 796.0,493.0 L 859.0,492.0 L 933.0,512.0"/>
    <path d="M 336.0,598.0 L 373.0,636.0 L 400.0,723.0"/>
    <path d="M 349.0,593.0 L 396.0,606.0 L 434.0,605.0 L 628.0,571.0 L 650.0,581.0 L 665.0,603.0 L 646.0,636.0 L 620.0,647.0"/>
    <path d="M 415.0,714.0 L 431.0,704.0 L 608.0,679.0 L 654.0,679.0 L 678.0,688.0"/>
    <path d="M 386.0,796.0 L 409.0,804.0 L 447.0,806.0 L 571.0,790.0 L 645.0,772.0 L 694.0,777.0"/>
    <path d="M 300.0,800.0 L 322.0,831.0 L 293.0,921.0 L 305.0,927.0 L 483.0,905.0 L 735.0,889.0 L 824.0,911.0"/>
    <path d="M 494.0,716.0 L 534.0,742.0 L 527.0,1098.0"/>
  </g>
</svg>
