<svg xmlns="http://www.w3.org/2000/svg" viewBox="0 0 1024 1024">
  <g style="fill:none;stroke:#000000;stroke-width:50;stroke-linecap:round;stroke-linejoin:round;" transform="scale(1, 1) translate(0, 0)">
    <path d="M 189.0,356.0 L 243.0,363.0 L 496.0,321.0 L 743.0,295.0 L 785.0,298.0 L 829.0,312.0"/>
    <path d="M 339.0,237.0 L 380.0,266.0 L 407.0,401.0"/>
    <path d="M 596.0,183.0 L 604.0,184.0 L 628.0,220.0 L 603.0,299.0 L 560.0,401.0"/>
    <path d="M 357.0,412.0 L 371.0,432.0 L 373.0,450.0 L 314.0,525.0 L 281.0,557.0 L 250.0,575.0"/>
    <path d="M 388.0,484.0 L 653.0,447.0 L 670.0,448.0 L 692.0,467.0 L 691.0,495.0 L 660.0,638.0 L 639.0,688.0 L 616.0,723.0 L 595.0,738.0 L 523.0,694.0"/>
    <path d="M 435.0,505.0 L 445.0,531.0 L 416.0,578.0 L 358.0,640.0 L 315.0,667.0"/>
    <path d="M 533.0,485.0 L 558.0,510.0 L 512.0,604.0 L 467.0,665.0 L 379.0,743.0"/>
    <path d="M 352.0,561.0 L 469.0,609.0 L 514.0,638.0 L 523.0,653.0"/>
    <path d="M 243.0,803.0 L 219.0,896.0 L 188.0,965.0"/>
    <path d="M 346.0,810.0 L 361.0,833.0 L 375.0,881.0 L 398.0,917.0 L 427.0,947.0 L 477.0,976.0 L 512.0,988.0 L 600.0,1004.0 L 691.0,1006.0 L 724.0,997.0 L 742.0,979.0 L 722.0,921.0 L 680.0,833.0"/>
    <path d="M 477.0,775.0 L 545.0,828.0 L 564.0,855.0"/>
    <path d="M 737.0,753.0 L 860.0,826.0 L 895.0,880.0"/>
  </g>
</svg>
