<svg xmlns="http://www.w3.org/2000/svg" viewBox="0 0 1024 1024">
  <g style="fill:none;stroke:#000000;stroke-width:50;stroke-linecap:round;stroke-linejoin:round;" transform="scale(1, 1) translate(0, 0)">
    <path d="M 224.0,297.0 L 278.0,305.0 L 322.0,302.0 L 450.0,284.0 L 696.0,263.0 L 735.0,266.0 L 780.0,282.0"/>
    <path d="M 356.0,220.0 L 394.0,246.0 L 416.0,361.0"/>
    <path d="M 598.0,175.0 L 619.0,212.0 L 565.0,345.0"/>
    <path d="M 301.0,402.0 L 329.0,422.0 L 368.0,543.0"/>
    <path d="M 356.0,406.0 L 371.0,413.0 L 538.0,390.0 L 613.0,372.0 L 633.0,373.0 L 652.0,382.0 L 668.0,403.0 L 653.0,435.0 L 630.0,448.0"/>
    <path d="M 383.0,521.0 L 398.0,510.0 L 625.0,478.0 L 678.0,485.0"/>
    <path d="M 468.0,336.0 L 504.0,366.0 L 499.0,529.0 L 495.0,542.0 L 485.0,549.0"/>
    <path d="M 130.0,603.0 L 181.0,613.0 L 475.0,572.0 L 795.0,543.0 L 841.0,548.0 L 889.0,562.0"/>
    <path d="M 336.0,638.0 L 360.0,662.0 L 367.0,685.0 L 368.0,771.0 L 356.0,851.0 L 360.0,898.0"/>
    <path d="M 385.0,648.0 L 406.0,660.0 L 586.0,626.0 L 602.0,630.0 L 625.0,650.0 L 633.0,662.0 L 628.0,718.0 L 631.0,832.0 L 623.0,904.0"/>
    <path d="M 447.0,693.0 L 467.0,701.0 L 486.0,718.0 L 493.0,736.0 L 481.0,876.0 L 458.0,943.0 L 425.0,979.0 L 377.0,1004.0 L 308.0,1025.0 L 274.0,1026.0 L 262.0,1033.0 L 255.0,1029.0"/>
    <path d="M 561.0,919.0 L 676.0,999.0 L 690.0,1014.0 L 710.0,1058.0"/>
  </g>
</svg>
