<svg xmlns="http://www.w3.org/2000/svg" viewBox="0 0 1024 1024">
  <g style="fill:none;stroke:#000000;stroke-width:50;stroke-linecap:round;stroke-linejoin:round;" transform="scale(1, 1) translate(0, 0)">
    <path d="M 220.0,339.0 L 263.0,345.0 L 327.0,340.0 L 462.0,315.0 L 715.0,282.0 L 783.0,284.0 L 818.0,297.0"/>
    <path d="M 355.0,226.0 L 399.0,256.0 L 428.0,403.0"/>
    <path d="M 615.0,181.0 L 630.0,189.0 L 649.0,219.0 L 595.0,384.0"/>
    <path d="M 292.0,505.0 L 315.0,514.0 L 388.0,508.0 L 637.0,455.0 L 678.0,456.0"/>
    <path d="M 229.0,491.0 L 254.0,510.0 L 269.0,535.0 L 265.0,639.0 L 240.0,776.0 L 215.0,842.0 L 183.0,894.0 L 141.0,940.0 L 86.0,976.0"/>
    <path d="M 328.0,588.0 L 342.0,606.0 L 348.0,626.0 L 349.0,726.0 L 339.0,804.0 L 345.0,848.0"/>
    <path d="M 360.0,599.0 L 390.0,601.0 L 437.0,583.0 L 476.0,576.0 L 499.0,579.0 L 513.0,597.0 L 517.0,787.0 L 510.0,848.0"/>
    <path d="M 401.0,649.0 L 427.0,663.0 L 441.0,679.0 L 435.0,777.0 L 418.0,865.0 L 399.0,904.0 L 358.0,944.0 L 301.0,972.0 L 277.0,975.0"/>
    <path d="M 475.0,890.0 L 540.0,944.0 L 563.0,990.0"/>
    <path d="M 507.0,382.0 L 526.0,388.0 L 551.0,411.0 L 589.0,563.0 L 619.0,651.0 L 666.0,763.0 L 703.0,834.0 L 767.0,926.0 L 809.0,969.0 L 845.0,994.0 L 874.0,1001.0 L 884.0,982.0 L 910.0,836.0"/>
    <path d="M 718.0,557.0 L 732.0,565.0 L 752.0,590.0 L 722.0,673.0 L 673.0,761.0 L 629.0,816.0 L 573.0,871.0"/>
    <path d="M 688.0,379.0 L 754.0,416.0 L 779.0,451.0"/>
  </g>
</svg>
