<svg xmlns="http://www.w3.org/2000/svg" viewBox="0 0 1024 1024">
  <g style="fill:none;stroke:#000000;stroke-width:50;stroke-linecap:round;stroke-linejoin:round;" transform="scale(1, 1) translate(0, 0)">
    <path d="M 177.0,338.0 L 201.0,345.0 L 265.0,346.0 L 371.0,328.0 L 714.0,291.0 L 766.0,295.0 L 809.0,310.0"/>
    <path d="M 335.0,230.0 L 377.0,258.0 L 408.0,411.0"/>
    <path d="M 598.0,181.0 L 613.0,189.0 L 632.0,220.0 L 572.0,392.0"/>
    <path d="M 308.0,535.0 L 321.0,523.0 L 415.0,503.0 L 460.0,496.0 L 483.0,502.0"/>
    <path d="M 244.0,426.0 L 280.0,458.0 L 284.0,521.0 L 275.0,655.0 L 318.0,651.0 L 385.0,617.0 L 442.0,597.0 L 468.0,580.0"/>
    <path d="M 724.0,392.0 L 733.0,405.0 L 735.0,438.0 L 678.0,476.0 L 574.0,526.0 L 565.0,536.0"/>
    <path d="M 515.0,409.0 L 549.0,455.0 L 538.0,536.0 L 545.0,610.0 L 563.0,634.0 L 595.0,650.0 L 623.0,657.0 L 705.0,660.0 L 794.0,651.0 L 836.0,637.0 L 848.0,625.0 L 852.0,517.0"/>
    <path d="M 499.0,682.0 L 466.0,683.0 L 420.0,751.0 L 410.0,757.0"/>
    <path d="M 327.0,759.0 L 348.0,779.0 L 358.0,813.0 L 360.0,910.0 L 349.0,993.0 L 351.0,1040.0"/>
    <path d="M 379.0,774.0 L 396.0,784.0 L 408.0,783.0 L 618.0,743.0 L 658.0,771.0 L 658.0,970.0 L 644.0,1013.0 L 645.0,1068.0"/>
    <path d="M 387.0,892.0 L 399.0,882.0 L 507.0,868.0 L 540.0,866.0 L 562.0,873.0"/>
    <path d="M 382.0,1002.0 L 419.0,987.0 L 550.0,975.0 L 606.0,980.0"/>
  </g>
</svg>
