<svg xmlns="http://www.w3.org/2000/svg" viewBox="0 0 1024 1024">
  <g style="fill:none;stroke:#000000;stroke-width:50;stroke-linecap:round;stroke-linejoin:round;" transform="scale(1, 1) translate(0, 0)">
    <path d="M 232.0,307.0 L 251.0,313.0 L 307.0,314.0 L 447.0,292.0 L 703.0,266.0 L 740.0,269.0 L 785.0,284.0"/>
    <path d="M 368.0,216.0 L 400.0,234.0 L 407.0,245.0 L 432.0,381.0"/>
    <path d="M 585.0,167.0 L 600.0,173.0 L 620.0,202.0 L 570.0,370.0"/>
    <path d="M 224.0,411.0 L 234.0,436.0 L 232.0,457.0 L 188.0,534.0 L 183.0,585.0"/>
    <path d="M 261.0,461.0 L 274.0,454.0 L 550.0,409.0 L 729.0,387.0 L 768.0,389.0 L 799.0,407.0 L 812.0,429.0 L 747.0,501.0 L 736.0,503.0"/>
    <path d="M 366.0,509.0 L 436.0,514.0 L 563.0,489.0 L 611.0,490.0"/>
    <path d="M 320.0,603.0 L 359.0,610.0 L 578.0,572.0 L 623.0,578.0"/>
    <path d="M 414.0,649.0 L 376.0,658.0 L 344.0,685.0 L 277.0,725.0 L 197.0,755.0"/>
    <path d="M 383.0,689.0 L 404.0,689.0 L 443.0,707.0 L 493.0,740.0 L 531.0,796.0 L 547.0,864.0 L 536.0,984.0 L 522.0,1018.0 L 502.0,1041.0 L 386.0,999.0"/>
    <path d="M 443.0,729.0 L 408.0,735.0 L 327.0,806.0 L 259.0,849.0 L 200.0,874.0"/>
    <path d="M 478.0,760.0 L 476.0,801.0 L 396.0,880.0 L 294.0,955.0 L 224.0,992.0 L 184.0,1006.0"/>
    <path d="M 673.0,601.0 L 687.0,627.0 L 687.0,645.0 L 620.0,696.0 L 541.0,745.0 L 531.0,742.0"/>
    <path d="M 547.0,774.0 L 556.0,777.0 L 583.0,814.0 L 659.0,869.0 L 778.0,940.0 L 831.0,949.0 L 961.0,954.0"/>
  </g>
</svg>
