<svg xmlns="http://www.w3.org/2000/svg" viewBox="0 0 1024 1024">
  <g style="fill:none;stroke:#000000;stroke-width:50;stroke-linecap:round;stroke-linejoin:round;" transform="scale(1, 1) translate(0, 0)">
    <path d="M 177.0,330.0 L 224.0,340.0 L 265.0,340.0 L 420.0,317.0 L 741.0,290.0 L 787.0,291.0 L 821.0,298.0 L 846.0,311.0"/>
    <path d="M 335.0,232.0 L 376.0,261.0 L 401.0,413.0"/>
    <path d="M 614.0,172.0 L 625.0,177.0 L 647.0,212.0 L 584.0,388.0"/>
    <path d="M 228.0,459.0 L 309.0,504.0 L 328.0,533.0"/>
    <path d="M 159.0,616.0 L 224.0,654.0 L 250.0,684.0"/>
    <path d="M 213.0,1025.0 L 203.0,984.0 L 205.0,948.0 L 344.0,720.0"/>
    <path d="M 500.0,393.0 L 559.0,425.0 L 584.0,457.0"/>
    <path d="M 468.0,528.0 L 488.0,536.0 L 572.0,509.0 L 665.0,489.0 L 698.0,497.0 L 718.0,523.0 L 685.0,648.0 L 672.0,675.0 L 647.0,663.0"/>
    <path d="M 480.0,634.0 L 488.0,623.0 L 549.0,607.0 L 608.0,596.0 L 629.0,601.0"/>
    <path d="M 480.0,718.0 L 489.0,705.0 L 622.0,678.0 L 636.0,665.0"/>
    <path d="M 407.0,512.0 L 438.0,546.0 L 446.0,574.0 L 452.0,773.0 L 441.0,923.0 L 444.0,961.0 L 494.0,947.0 L 502.0,937.0 L 586.0,887.0"/>
    <path d="M 741.0,696.0 L 756.0,728.0 L 655.0,821.0 L 641.0,819.0"/>
    <path d="M 484.0,725.0 L 512.0,731.0 L 634.0,851.0 L 705.0,908.0 L 767.0,946.0 L 799.0,956.0 L 938.0,961.0"/>
  </g>
</svg>
