<svg xmlns="http://www.w3.org/2000/svg" viewBox="0 0 1024 1024">
  <g style="fill:none;stroke:#000000;stroke-width:50;stroke-linecap:round;stroke-linejoin:round;" transform="scale(1, 1) translate(0, 0)">
    <path d="M 446.0,314.0 L 511.0,318.0 L 628.0,299.0 L 794.0,282.0 L 831.0,284.0 L 864.0,296.0"/>
    <path d="M 524.0,225.0 L 543.0,234.0 L 559.0,252.0 L 580.0,359.0"/>
    <path d="M 714.0,176.0 L 734.0,208.0 L 702.0,313.0 L 688.0,338.0"/>
    <path d="M 532.0,390.0 L 551.0,422.0 L 537.0,448.0 L 473.0,530.0 L 401.0,592.0"/>
    <path d="M 507.0,522.0 L 521.0,568.0 L 508.0,699.0 L 512.0,748.0"/>
    <path d="M 624.0,357.0 L 662.0,377.0 L 698.0,416.0"/>
    <path d="M 579.0,454.0 L 625.0,458.0 L 739.0,430.0 L 781.0,430.0"/>
    <path d="M 598.0,544.0 L 728.0,520.0 L 776.0,522.0"/>
    <path d="M 590.0,620.0 L 642.0,616.0 L 727.0,596.0 L 776.0,598.0"/>
    <path d="M 655.0,474.0 L 678.0,494.0 L 674.0,652.0 L 660.0,673.0"/>
    <path d="M 542.0,702.0 L 549.0,710.0 L 567.0,712.0 L 743.0,681.0 L 819.0,684.0"/>
    <path d="M 541.0,785.0 L 567.0,789.0 L 616.0,784.0 L 703.0,760.0 L 732.0,764.0 L 748.0,774.0 L 732.0,821.0 L 705.0,873.0 L 677.0,913.0 L 642.0,947.0 L 592.0,978.0 L 539.0,1000.0 L 451.0,1016.0"/>
    <path d="M 531.0,840.0 L 571.0,853.0 L 686.0,950.0 L 777.0,1005.0 L 933.0,1025.0 L 942.0,1018.0"/>
  </g>
</svg>
