<svg xmlns="http://www.w3.org/2000/svg" viewBox="0 0 1024 1024">
  <g style="fill:none;stroke:#000000;stroke-width:50;stroke-linecap:round;stroke-linejoin:round;" transform="scale(1, 1) translate(0, 0)">
    <path d="M 366.0,215.0 L 383.0,222.0 L 410.0,246.0 L 440.0,390.0"/>
    <path d="M 200.0,320.0 L 238.0,335.0 L 272.0,338.0 L 499.0,292.0"/>
    <path d="M 637.0,162.0 L 653.0,172.0 L 670.0,203.0 L 626.0,330.0 L 586.0,415.0"/>
    <path d="M 600.0,281.0 L 655.0,288.0 L 820.0,270.0 L 881.0,287.0"/>
    <path d="M 209.0,450.0 L 273.0,489.0 L 286.0,500.0 L 299.0,526.0"/>
    <path d="M 135.0,601.0 L 184.0,634.0 L 215.0,669.0"/>
    <path d="M 177.0,1021.0 L 165.0,993.0 L 161.0,945.0 L 242.0,774.0 L 264.0,741.0 L 273.0,711.0"/>
    <path d="M 431.0,441.0 L 451.0,459.0 L 461.0,481.0 L 441.0,531.0 L 412.0,587.0 L 355.0,673.0 L 305.0,727.0"/>
    <path d="M 401.0,647.0 L 405.0,680.0 L 413.0,693.0 L 412.0,819.0 L 396.0,1002.0 L 402.0,1062.0"/>
    <path d="M 601.0,451.0 L 679.0,495.0 L 707.0,531.0"/>
    <path d="M 517.0,641.0 L 577.0,646.0 L 791.0,599.0 L 832.0,598.0"/>
    <path d="M 535.0,732.0 L 574.0,786.0 L 583.0,812.0"/>
    <path d="M 724.0,669.0 L 746.0,688.0 L 754.0,711.0 L 694.0,860.0 L 675.0,875.0"/>
    <path d="M 462.0,916.0 L 515.0,924.0 L 651.0,903.0 L 850.0,883.0 L 884.0,886.0 L 928.0,901.0"/>
  </g>
</svg>
