<svg xmlns="http://www.w3.org/2000/svg" viewBox="0 0 1024 1024">
  <g style="fill:none;stroke:#000000;stroke-width:50;stroke-linecap:round;stroke-linejoin:round;" transform="scale(1, 1) translate(0, 0)">
    <path d="M 213.0,327.0 L 271.0,335.0 L 303.0,333.0 L 467.0,308.0 L 686.0,287.0 L 752.0,290.0 L 793.0,304.0"/>
    <path d="M 337.0,246.0 L 358.0,254.0 L 377.0,271.0 L 411.0,397.0"/>
    <path d="M 602.0,198.0 L 627.0,232.0 L 604.0,322.0 L 579.0,381.0"/>
    <path d="M 452.0,357.0 L 506.0,381.0 L 532.0,409.0"/>
    <path d="M 324.0,451.0 L 369.0,459.0 L 635.0,416.0 L 666.0,415.0 L 694.0,422.0"/>
    <path d="M 383.0,504.0 L 417.0,537.0 L 438.0,568.0"/>
    <path d="M 580.0,450.0 L 602.0,476.0 L 558.0,562.0 L 540.0,577.0"/>
    <path d="M 230.0,587.0 L 240.0,618.0 L 199.0,704.0 L 193.0,754.0"/>
    <path d="M 269.0,623.0 L 279.0,632.0 L 304.0,631.0 L 527.0,593.0 L 684.0,575.0 L 762.0,573.0 L 785.0,582.0 L 804.0,611.0 L 738.0,684.0"/>
    <path d="M 443.0,637.0 L 503.0,671.0 L 525.0,702.0"/>
    <path d="M 264.0,776.0 L 315.0,782.0 L 442.0,756.0 L 654.0,727.0 L 722.0,742.0"/>
    <path d="M 520.0,787.0 L 526.0,801.0 L 607.0,819.0 L 641.0,848.0 L 612.0,957.0 L 584.0,1014.0 L 549.0,1044.0 L 451.0,994.0"/>
    <path d="M 502.0,783.0 L 467.0,806.0 L 444.0,847.0 L 404.0,898.0 L 343.0,953.0 L 259.0,1002.0 L 202.0,1021.0"/>
  </g>
</svg>
