<svg xmlns="http://www.w3.org/2000/svg" viewBox="0 0 1024 1024">
  <g style="fill:none;stroke:#000000;stroke-width:50;stroke-linecap:round;stroke-linejoin:round;" transform="scale(1, 1) translate(0, 0)">
    <path d="M 220.0,319.0 L 257.0,328.0 L 297.0,326.0 L 445.0,301.0 L 709.0,272.0 L 765.0,274.0 L 809.0,288.0"/>
    <path d="M 363.0,216.0 L 402.0,245.0 L 428.0,381.0"/>
    <path d="M 597.0,161.0 L 611.0,168.0 L 630.0,197.0 L 575.0,361.0"/>
    <path d="M 227.0,409.0 L 287.0,450.0 L 312.0,477.0"/>
    <path d="M 153.0,566.0 L 216.0,603.0 L 243.0,640.0"/>
    <path d="M 188.0,976.0 L 178.0,939.0 L 179.0,900.0 L 320.0,672.0"/>
    <path d="M 368.0,528.0 L 412.0,534.0 L 537.0,508.0 L 761.0,474.0 L 796.0,475.0 L 844.0,486.0"/>
    <path d="M 363.0,612.0 L 394.0,646.0 L 399.0,693.0 L 393.0,833.0 L 370.0,988.0"/>
    <path d="M 418.0,622.0 L 441.0,633.0 L 456.0,631.0 L 711.0,580.0 L 742.0,584.0 L 773.0,616.0 L 779.0,924.0 L 770.0,989.0 L 762.0,1006.0 L 746.0,1005.0 L 642.0,972.0"/>
    <path d="M 467.0,745.0 L 527.0,738.0 L 646.0,711.0 L 676.0,716.0"/>
    <path d="M 464.0,845.0 L 525.0,839.0 L 652.0,811.0 L 683.0,817.0"/>
    <path d="M 527.0,395.0 L 545.0,405.0 L 567.0,431.0 L 569.0,460.0 L 563.0,1033.0"/>
    <path d="M 704.0,348.0 L 776.0,375.0 L 805.0,405.0"/>
  </g>
</svg>
