<svg xmlns="http://www.w3.org/2000/svg" viewBox="0 0 1024 1024">
  <g style="fill:none;stroke:#000000;stroke-width:50;stroke-linecap:round;stroke-linejoin:round;" transform="scale(1, 1) translate(0, 0)">
    <path d="M 328.0,237.0 L 350.0,248.0 L 370.0,268.0 L 396.0,407.0"/>
    <path d="M 174.0,329.0 L 201.0,341.0 L 244.0,347.0 L 487.0,304.0"/>
    <path d="M 646.0,166.0 L 659.0,178.0 L 672.0,211.0 L 625.0,306.0 L 572.0,386.0"/>
    <path d="M 554.0,285.0 L 600.0,293.0 L 732.0,274.0 L 782.0,273.0 L 841.0,289.0"/>
    <path d="M 247.0,442.0 L 254.0,473.0 L 250.0,487.0 L 204.0,563.0 L 200.0,605.0"/>
    <path d="M 279.0,492.0 L 442.0,458.0 L 640.0,429.0 L 741.0,418.0 L 787.0,425.0 L 814.0,460.0 L 746.0,535.0 L 736.0,538.0"/>
    <path d="M 324.0,552.0 L 351.0,574.0 L 356.0,585.0 L 396.0,746.0"/>
    <path d="M 384.0,574.0 L 401.0,561.0 L 527.0,538.0 L 616.0,526.0 L 642.0,534.0 L 664.0,562.0 L 602.0,718.0 L 603.0,735.0"/>
    <path d="M 404.0,650.0 L 409.0,642.0 L 520.0,626.0 L 555.0,632.0"/>
    <path d="M 416.0,722.0 L 422.0,713.0 L 460.0,714.0 L 576.0,696.0"/>
    <path d="M 462.0,733.0 L 533.0,797.0"/>
    <path d="M 167.0,851.0 L 219.0,861.0 L 414.0,834.0 L 798.0,799.0 L 858.0,807.0 L 894.0,820.0"/>
    <path d="M 442.0,921.0 L 407.0,925.0 L 374.0,967.0 L 327.0,1011.0 L 263.0,1057.0 L 228.0,1074.0"/>
    <path d="M 586.0,904.0 L 711.0,995.0 L 732.0,1023.0 L 745.0,1058.0"/>
  </g>
</svg>
