<svg xmlns="http://www.w3.org/2000/svg" viewBox="0 0 1024 1024">
  <g style="fill:none;stroke:#000000;stroke-width:50;stroke-linecap:round;stroke-linejoin:round;" transform="scale(1, 1) translate(0, 0)">
    <path d="M 181.0,315.0 L 251.0,325.0 L 390.0,306.0 L 710.0,276.0 L 779.0,280.0 L 822.0,297.0"/>
    <path d="M 341.0,227.0 L 365.0,236.0 L 385.0,255.0 L 419.0,385.0"/>
    <path d="M 610.0,171.0 L 626.0,179.0 L 644.0,209.0 L 583.0,369.0"/>
    <path d="M 458.0,353.0 L 512.0,378.0 L 535.0,408.0"/>
    <path d="M 268.0,484.0 L 313.0,490.0 L 439.0,464.0 L 663.0,433.0 L 712.0,437.0 L 742.0,446.0"/>
    <path d="M 351.0,538.0 L 385.0,573.0 L 412.0,678.0"/>
    <path d="M 388.0,534.0 L 418.0,544.0 L 537.0,523.0 L 569.0,512.0 L 589.0,515.0 L 616.0,544.0 L 600.0,579.0 L 575.0,593.0"/>
    <path d="M 428.0,660.0 L 444.0,646.0 L 568.0,625.0 L 609.0,624.0 L 634.0,633.0"/>
    <path d="M 186.0,722.0 L 210.0,747.0 L 225.0,782.0 L 231.0,959.0 L 244.0,1015.0"/>
    <path d="M 238.0,734.0 L 271.0,748.0 L 495.0,707.0 L 776.0,686.0 L 814.0,725.0 L 805.0,759.0 L 800.0,889.0 L 788.0,972.0 L 776.0,995.0 L 769.0,994.0 L 673.0,955.0"/>
    <path d="M 348.0,802.0 L 368.0,817.0 L 380.0,836.0 L 408.0,953.0"/>
    <path d="M 390.0,797.0 L 417.0,810.0 L 577.0,777.0 L 596.0,778.0 L 625.0,807.0 L 610.0,847.0 L 586.0,862.0"/>
    <path d="M 424.0,925.0 L 435.0,913.0 L 581.0,894.0 L 643.0,904.0"/>
  </g>
</svg>
