<svg xmlns="http://www.w3.org/2000/svg" viewBox="0 0 1024 1024">
  <g style="fill:none;stroke:#000000;stroke-width:50;stroke-linecap:round;stroke-linejoin:round;" transform="scale(1, 1) translate(0, 0)">
    <path d="M 178.0,344.0 L 226.0,353.0 L 470.0,317.0 L 722.0,294.0 L 775.0,298.0 L 819.0,312.0"/>
    <path d="M 331.0,245.0 L 370.0,271.0 L 399.0,409.0"/>
    <path d="M 612.0,190.0 L 626.0,197.0 L 644.0,228.0 L 609.0,327.0 L 572.0,409.0"/>
    <path d="M 500.0,403.0 L 468.0,401.0 L 413.0,465.0 L 393.0,471.0"/>
    <path d="M 267.0,492.0 L 295.0,513.0 L 313.0,546.0 L 341.0,706.0 L 360.0,760.0"/>
    <path d="M 318.0,500.0 L 351.0,507.0 L 611.0,459.0 L 646.0,459.0 L 677.0,469.0 L 700.0,503.0 L 654.0,671.0 L 635.0,717.0 L 598.0,711.0"/>
    <path d="M 538.0,506.0 L 551.0,534.0 L 512.0,585.0 L 451.0,640.0 L 380.0,678.0"/>
    <path d="M 395.0,565.0 L 554.0,618.0 L 597.0,656.0"/>
    <path d="M 377.0,737.0 L 386.0,727.0 L 411.0,722.0 L 584.0,699.0 L 609.0,691.0"/>
    <path d="M 312.0,864.0 L 323.0,853.0 L 395.0,835.0 L 423.0,830.0 L 453.0,834.0"/>
    <path d="M 250.0,756.0 L 283.0,793.0 L 286.0,904.0 L 277.0,998.0 L 298.0,998.0 L 332.0,987.0 L 465.0,922.0"/>
    <path d="M 750.0,746.0 L 755.0,768.0 L 747.0,784.0 L 586.0,861.0 L 583.0,870.0"/>
    <path d="M 523.0,748.0 L 559.0,792.0 L 551.0,897.0 L 563.0,974.0 L 578.0,996.0 L 606.0,1012.0 L 651.0,1022.0 L 733.0,1025.0 L 803.0,1018.0 L 852.0,999.0 L 861.0,968.0 L 871.0,865.0"/>
  </g>
</svg>
