<svg xmlns="http://www.w3.org/2000/svg" viewBox="0 0 1024 1024">
  <g style="fill:none;stroke:#000000;stroke-width:50;stroke-linecap:round;stroke-linejoin:round;" transform="scale(1, 1) translate(0, 0)">
    <path d="M 208.0,315.0 L 230.0,322.0 L 282.0,323.0 L 452.0,296.0 L 708.0,271.0 L 769.0,277.0 L 793.0,288.0"/>
    <path d="M 333.0,218.0 L 354.0,226.0 L 375.0,245.0 L 411.0,374.0"/>
    <path d="M 592.0,166.0 L 606.0,173.0 L 623.0,204.0 L 564.0,353.0"/>
    <path d="M 449.0,353.0 L 534.0,403.0"/>
    <path d="M 287.0,458.0 L 317.0,465.0 L 347.0,463.0 L 658.0,403.0 L 719.0,408.0"/>
    <path d="M 315.0,533.0 L 338.0,551.0 L 347.0,568.0 L 384.0,734.0"/>
    <path d="M 367.0,536.0 L 386.0,544.0 L 562.0,506.0 L 612.0,508.0 L 625.0,515.0 L 643.0,539.0 L 597.0,692.0 L 599.0,717.0"/>
    <path d="M 139.0,659.0 L 189.0,672.0 L 422.0,633.0 L 777.0,591.0 L 813.0,593.0 L 867.0,611.0"/>
    <path d="M 403.0,725.0 L 412.0,714.0 L 550.0,695.0 L 563.0,685.0"/>
    <path d="M 416.0,736.0 L 437.0,762.0 L 378.0,832.0 L 323.0,880.0 L 211.0,953.0 L 136.0,984.0 L 121.0,983.0 L 117.0,989.0"/>
    <path d="M 409.0,846.0 L 399.0,971.0 L 405.0,1010.0 L 455.0,991.0 L 533.0,938.0"/>
    <path d="M 687.0,718.0 L 702.0,752.0 L 608.0,833.0 L 599.0,830.0"/>
    <path d="M 479.0,758.0 L 634.0,900.0 L 730.0,963.0 L 792.0,985.0 L 915.0,986.0"/>
  </g>
</svg>
