<svg xmlns="http://www.w3.org/2000/svg" viewBox="0 0 1024 1024">
  <g style="fill:none;stroke:#000000;stroke-width:50;stroke-linecap:round;stroke-linejoin:round;" transform="scale(1, 1) translate(0, 0)">
    <path d="M 177.0,347.0 L 198.0,353.0 L 255.0,354.0 L 510.0,318.0 L 733.0,296.0 L 791.0,298.0 L 836.0,313.0"/>
    <path d="M 347.0,236.0 L 386.0,265.0 L 412.0,401.0"/>
    <path d="M 590.0,177.0 L 607.0,185.0 L 625.0,215.0 L 567.0,389.0"/>
    <path d="M 259.0,498.0 L 283.0,526.0 L 285.0,732.0"/>
    <path d="M 360.0,433.0 L 389.0,451.0 L 401.0,472.0 L 407.0,681.0 L 402.0,695.0 L 402.0,773.0"/>
    <path d="M 587.0,410.0 L 600.0,418.0 L 620.0,448.0 L 603.0,497.0 L 542.0,617.0 L 499.0,678.0 L 477.0,699.0"/>
    <path d="M 608.0,560.0 L 620.0,553.0 L 696.0,546.0 L 792.0,518.0 L 838.0,517.0"/>
    <path d="M 605.0,635.0 L 676.0,671.0 L 698.0,687.0 L 718.0,714.0"/>
    <path d="M 254.0,810.0 L 283.0,832.0 L 315.0,967.0 L 332.0,982.0"/>
    <path d="M 315.0,815.0 L 326.0,825.0 L 343.0,826.0 L 646.0,784.0 L 693.0,788.0 L 717.0,812.0 L 723.0,828.0 L 695.0,922.0 L 664.0,950.0"/>
    <path d="M 415.0,839.0 L 424.0,851.0 L 433.0,940.0 L 444.0,974.0"/>
    <path d="M 554.0,815.0 L 579.0,837.0 L 554.0,947.0 L 551.0,956.0 L 540.0,960.0"/>
    <path d="M 140.0,1011.0 L 191.0,1023.0 L 446.0,995.0 L 790.0,973.0 L 848.0,980.0 L 893.0,995.0"/>
  </g>
</svg>
