<svg xmlns="http://www.w3.org/2000/svg" viewBox="0 0 1024 1024">
  <g style="fill:none;stroke:#000000;stroke-width:50;stroke-linecap:round;stroke-linejoin:round;" transform="scale(1, 1) translate(0, 0)">
    <path d="M 197.0,347.0 L 237.0,354.0 L 295.0,351.0 L 437.0,327.0 L 711.0,296.0 L 761.0,299.0 L 804.0,313.0"/>
    <path d="M 338.0,244.0 L 378.0,274.0 L 404.0,421.0"/>
    <path d="M 605.0,187.0 L 618.0,195.0 L 636.0,226.0 L 603.0,331.0 L 567.0,413.0"/>
    <path d="M 200.0,493.0 L 241.0,504.0 L 348.0,471.0 L 382.0,469.0 L 405.0,478.0 L 416.0,493.0 L 408.0,507.0 L 353.0,577.0 L 343.0,576.0"/>
    <path d="M 259.0,573.0 L 324.0,603.0 L 352.0,636.0"/>
    <path d="M 105.0,717.0 L 145.0,717.0 L 391.0,663.0 L 436.0,662.0 L 464.0,682.0 L 410.0,766.0"/>
    <path d="M 301.0,701.0 L 331.0,730.0 L 333.0,933.0 L 325.0,979.0 L 306.0,1003.0 L 203.0,954.0"/>
    <path d="M 535.0,451.0 L 590.0,455.0 L 750.0,422.0 L 803.0,417.0 L 833.0,422.0"/>
    <path d="M 632.0,473.0 L 651.0,496.0 L 622.0,551.0 L 601.0,567.0"/>
    <path d="M 533.0,569.0 L 554.0,591.0 L 563.0,611.0 L 565.0,725.0 L 548.0,831.0 L 552.0,880.0"/>
    <path d="M 575.0,576.0 L 605.0,586.0 L 736.0,555.0 L 757.0,559.0 L 780.0,580.0 L 785.0,588.0 L 781.0,658.0 L 789.0,804.0 L 782.0,871.0"/>
    <path d="M 628.0,645.0 L 666.0,669.0 L 674.0,685.0 L 670.0,786.0 L 659.0,861.0 L 646.0,905.0 L 618.0,953.0 L 576.0,989.0 L 518.0,1020.0 L 470.0,1031.0"/>
    <path d="M 717.0,919.0 L 816.0,986.0 L 835.0,1010.0 L 847.0,1039.0"/>
  </g>
</svg>
