<svg xmlns="http://www.w3.org/2000/svg" viewBox="0 0 1024 1024">
  <g style="fill:none;stroke:#000000;stroke-width:50;stroke-linecap:round;stroke-linejoin:round;" transform="scale(1, 1) translate(0, 0)">
    <path d="M 228.0,325.0 L 299.0,331.0 L 452.0,308.0 L 587.0,298.0 L 708.0,281.0 L 773.0,285.0 L 808.0,298.0"/>
    <path d="M 352.0,228.0 L 372.0,237.0 L 391.0,256.0 L 424.0,394.0"/>
    <path d="M 622.0,179.0 L 638.0,187.0 L 656.0,217.0 L 595.0,377.0"/>
    <path d="M 540.0,382.0 L 514.0,388.0 L 474.0,441.0 L 437.0,478.0 L 373.0,523.0"/>
    <path d="M 505.0,441.0 L 610.0,420.0 L 631.0,420.0 L 657.0,431.0 L 644.0,457.0 L 608.0,499.0 L 501.0,594.0 L 373.0,673.0 L 320.0,695.0"/>
    <path d="M 467.0,479.0 L 477.0,480.0 L 591.0,555.0 L 654.0,588.0 L 786.0,642.0 L 845.0,643.0 L 932.0,634.0"/>
    <path d="M 441.0,699.0 L 495.0,704.0 L 637.0,674.0 L 684.0,674.0"/>
    <path d="M 444.0,781.0 L 474.0,782.0 L 645.0,751.0 L 699.0,756.0"/>
    <path d="M 376.0,858.0 L 410.0,866.0 L 597.0,842.0 L 738.0,832.0 L 806.0,848.0"/>
    <path d="M 526.0,598.0 L 547.0,606.0 L 563.0,630.0 L 562.0,958.0 L 567.0,973.0"/>
    <path d="M 193.0,415.0 L 273.0,461.0 L 295.0,492.0"/>
    <path d="M 90.0,633.0 L 144.0,633.0 L 229.0,607.0 L 243.0,607.0 L 263.0,621.0 L 267.0,635.0 L 257.0,679.0 L 237.0,721.0 L 243.0,766.0 L 267.0,807.0 L 279.0,852.0 L 272.0,873.0 L 261.0,883.0"/>
    <path d="M 87.0,927.0 L 133.0,938.0 L 211.0,905.0 L 280.0,904.0 L 363.0,929.0 L 551.0,1002.0 L 667.0,1031.0 L 752.0,1039.0 L 828.0,1026.0 L 873.0,1011.0"/>
  </g>
</svg>
