<svg xmlns="http://www.w3.org/2000/svg" viewBox="0 0 1024 1024">
  <g style="fill:none;stroke:#000000;stroke-width:50;stroke-linecap:round;stroke-linejoin:round;" transform="scale(1, 1) translate(0, 0)">
    <path d="M 197.0,338.0 L 254.0,347.0 L 305.0,345.0 L 441.0,325.0 L 741.0,301.0 L 789.0,306.0 L 826.0,323.0"/>
    <path d="M 343.0,232.0 L 381.0,261.0 L 409.0,398.0"/>
    <path d="M 593.0,192.0 L 607.0,199.0 L 625.0,230.0 L 593.0,338.0 L 571.0,385.0"/>
    <path d="M 457.0,373.0 L 517.0,400.0 L 542.0,429.0"/>
    <path d="M 249.0,461.0 L 257.0,496.0 L 206.0,587.0 L 195.0,638.0"/>
    <path d="M 288.0,503.0 L 296.0,512.0 L 308.0,513.0 L 557.0,469.0 L 692.0,453.0 L 748.0,458.0 L 773.0,481.0 L 775.0,493.0 L 714.0,556.0"/>
    <path d="M 324.0,560.0 L 342.0,581.0 L 350.0,604.0 L 331.0,635.0 L 244.0,750.0 L 156.0,836.0 L 115.0,864.0"/>
    <path d="M 291.0,736.0 L 291.0,758.0 L 304.0,782.0 L 290.0,969.0 L 295.0,1031.0"/>
    <path d="M 412.0,621.0 L 447.0,627.0 L 659.0,592.0 L 717.0,594.0 L 745.0,603.0"/>
    <path d="M 535.0,636.0 L 552.0,656.0 L 517.0,708.0 L 494.0,724.0"/>
    <path d="M 428.0,734.0 L 444.0,749.0 L 459.0,780.0 L 459.0,900.0 L 449.0,972.0 L 452.0,1022.0"/>
    <path d="M 458.0,735.0 L 488.0,744.0 L 515.0,741.0 L 677.0,708.0 L 714.0,736.0 L 719.0,979.0 L 707.0,1001.0 L 647.0,984.0"/>
    <path d="M 486.0,849.0 L 496.0,855.0 L 522.0,855.0 L 623.0,842.0 L 650.0,847.0"/>
    <path d="M 479.0,986.0 L 493.0,973.0 L 620.0,958.0 L 671.0,968.0"/>
  </g>
</svg>
