<svg xmlns="http://www.w3.org/2000/svg" viewBox="0 0 1024 1024">
  <g style="fill:none;stroke:#000000;stroke-width:50;stroke-linecap:round;stroke-linejoin:round;" transform="scale(1, 1) translate(0, 0)">
    <path d="M 193.0,303.0 L 212.0,309.0 L 266.0,310.0 L 706.0,259.0 L 771.0,264.0 L 801.0,276.0"/>
    <path d="M 348.0,200.0 L 389.0,229.0 L 412.0,353.0"/>
    <path d="M 586.0,172.0 L 608.0,207.0 L 556.0,342.0"/>
    <path d="M 215.0,425.0 L 249.0,428.0 L 316.0,405.0 L 381.0,393.0 L 409.0,412.0 L 418.0,427.0 L 405.0,461.0 L 375.0,599.0"/>
    <path d="M 227.0,476.0 L 281.0,495.0 L 297.0,508.0"/>
    <path d="M 201.0,604.0 L 234.0,613.0 L 337.0,535.0"/>
    <path d="M 519.0,375.0 L 550.0,380.0 L 621.0,364.0 L 676.0,359.0 L 695.0,363.0 L 714.0,381.0 L 722.0,397.0 L 699.0,457.0 L 663.0,591.0"/>
    <path d="M 524.0,429.0 L 564.0,447.0 L 582.0,463.0"/>
    <path d="M 523.0,538.0 L 548.0,544.0 L 557.0,540.0 L 641.0,483.0"/>
    <path d="M 501.0,574.0 L 471.0,578.0 L 383.0,674.0 L 274.0,759.0 L 173.0,820.0 L 130.0,839.0 L 115.0,839.0 L 111.0,845.0"/>
    <path d="M 513.0,593.0 L 516.0,604.0 L 534.0,619.0 L 548.0,624.0 L 648.0,700.0 L 728.0,751.0 L 778.0,774.0 L 845.0,784.0 L 970.0,787.0"/>
    <path d="M 474.0,658.0 L 491.0,690.0 L 453.0,742.0 L 378.0,810.0 L 311.0,845.0"/>
    <path d="M 519.0,745.0 L 534.0,777.0 L 495.0,830.0 L 420.0,898.0 L 332.0,945.0"/>
    <path d="M 592.0,827.0 L 609.0,865.0 L 578.0,909.0 L 527.0,963.0 L 482.0,1005.0 L 432.0,1040.0 L 363.0,1078.0 L 325.0,1092.0"/>
  </g>
</svg>
