<svg xmlns="http://www.w3.org/2000/svg" viewBox="0 0 1024 1024">
  <g style="fill:none;stroke:#000000;stroke-width:50;stroke-linecap:round;stroke-linejoin:round;" transform="scale(1, 1) translate(0, 0)">
    <path d="M 180.0,327.0 L 204.0,335.0 L 258.0,334.0 L 507.0,299.0 L 749.0,274.0 L 800.0,278.0 L 837.0,292.0"/>
    <path d="M 354.0,230.0 L 396.0,254.0 L 427.0,381.0"/>
    <path d="M 604.0,171.0 L 618.0,179.0 L 635.0,209.0 L 614.0,276.0 L 571.0,377.0"/>
    <path d="M 254.0,447.0 L 280.0,466.0 L 292.0,485.0 L 323.0,598.0"/>
    <path d="M 300.0,445.0 L 323.0,454.0 L 555.0,409.0 L 634.0,398.0 L 691.0,400.0 L 718.0,432.0 L 662.0,566.0"/>
    <path d="M 407.0,460.0 L 416.0,470.0 L 430.0,534.0 L 441.0,549.0"/>
    <path d="M 546.0,432.0 L 569.0,455.0 L 546.0,513.0 L 529.0,534.0"/>
    <path d="M 339.0,590.0 L 359.0,578.0 L 644.0,532.0"/>
    <path d="M 333.0,714.0 L 348.0,704.0 L 502.0,684.0 L 647.0,652.0 L 697.0,652.0"/>
    <path d="M 267.0,677.0 L 286.0,694.0 L 296.0,718.0 L 288.0,805.0 L 264.0,886.0 L 232.0,942.0 L 208.0,968.0 L 148.0,1007.0 L 109.0,1022.0"/>
    <path d="M 360.0,798.0 L 429.0,839.0 L 459.0,877.0"/>
    <path d="M 475.0,590.0 L 523.0,630.0 L 546.0,732.0 L 600.0,837.0 L 679.0,940.0 L 756.0,1004.0 L 794.0,1024.0 L 830.0,1030.0 L 836.0,1026.0 L 851.0,978.0 L 861.0,875.0"/>
    <path d="M 732.0,711.0 L 742.0,742.0 L 739.0,756.0 L 693.0,821.0 L 609.0,904.0 L 494.0,968.0 L 403.0,994.0"/>
    <path d="M 745.0,587.0 L 820.0,636.0 L 839.0,667.0"/>
  </g>
</svg>
