<svg xmlns="http://www.w3.org/2000/svg" viewBox="0 0 1024 1024">
  <g style="fill:none;stroke:#000000;stroke-width:50;stroke-linecap:round;stroke-linejoin:round;" transform="scale(1, 1) translate(0, 0)">
    <path d="M 228.0,333.0 L 268.0,339.0 L 311.0,337.0 L 505.0,307.0 L 712.0,287.0 L 764.0,288.0 L 809.0,303.0"/>
    <path d="M 361.0,227.0 L 397.0,250.0 L 424.0,390.0"/>
    <path d="M 615.0,180.0 L 628.0,187.0 L 645.0,217.0 L 592.0,364.0"/>
    <path d="M 363.0,425.0 L 432.0,433.0 L 649.0,402.0 L 695.0,402.0"/>
    <path d="M 488.0,449.0 L 516.0,478.0 L 513.0,587.0 L 498.0,601.0"/>
    <path d="M 546.0,536.0 L 556.0,524.0 L 616.0,515.0 L 676.0,510.0 L 698.0,517.0"/>
    <path d="M 326.0,500.0 L 357.0,530.0 L 366.0,607.0 L 355.0,615.0"/>
    <path d="M 162.0,653.0 L 211.0,661.0 L 456.0,626.0 L 774.0,600.0 L 819.0,602.0 L 869.0,619.0"/>
    <path d="M 397.0,735.0 L 404.0,730.0 L 439.0,731.0 L 602.0,707.0 L 644.0,704.0 L 674.0,712.0"/>
    <path d="M 344.0,658.0 L 371.0,678.0 L 375.0,689.0 L 342.0,834.0 L 369.0,838.0 L 561.0,806.0 L 728.0,791.0 L 768.0,798.0 L 787.0,811.0 L 799.0,826.0 L 798.0,847.0 L 765.0,978.0 L 739.0,1029.0 L 705.0,1048.0 L 621.0,994.0"/>
    <path d="M 267.0,898.0 L 261.0,929.0 L 217.0,1035.0"/>
    <path d="M 361.0,909.0 L 387.0,948.0 L 399.0,982.0"/>
    <path d="M 469.0,887.0 L 509.0,936.0 L 516.0,955.0"/>
    <path d="M 590.0,863.0 L 642.0,915.0 L 650.0,942.0"/>
  </g>
</svg>
