<svg xmlns="http://www.w3.org/2000/svg" viewBox="0 0 1024 1024">
  <g style="fill:none;stroke:#000000;stroke-width:50;stroke-linecap:round;stroke-linejoin:round;" transform="scale(1, 1) translate(0, 0)">
    <path d="M 192.0,327.0 L 216.0,335.0 L 268.0,335.0 L 437.0,310.0 L 723.0,282.0 L 776.0,287.0 L 811.0,300.0"/>
    <path d="M 340.0,245.0 L 372.0,262.0 L 379.0,272.0 L 408.0,402.0"/>
    <path d="M 610.0,189.0 L 623.0,196.0 L 640.0,226.0 L 576.0,380.0"/>
    <path d="M 306.0,472.0 L 379.0,479.0 L 537.0,457.0 L 632.0,435.0 L 682.0,435.0"/>
    <path d="M 464.0,370.0 L 494.0,394.0 L 503.0,410.0 L 498.0,618.0 L 484.0,638.0"/>
    <path d="M 296.0,538.0 L 369.0,584.0 L 388.0,619.0"/>
    <path d="M 663.0,480.0 L 677.0,511.0 L 577.0,599.0"/>
    <path d="M 131.0,691.0 L 154.0,699.0 L 191.0,701.0 L 413.0,670.0 L 819.0,634.0 L 865.0,642.0 L 902.0,656.0"/>
    <path d="M 236.0,745.0 L 266.0,770.0 L 283.0,801.0 L 311.0,975.0 L 330.0,1037.0"/>
    <path d="M 290.0,750.0 L 318.0,767.0 L 526.0,743.0 L 660.0,717.0 L 697.0,717.0 L 717.0,726.0 L 740.0,753.0 L 703.0,974.0 L 695.0,1000.0 L 677.0,1025.0 L 675.0,1077.0"/>
    <path d="M 377.0,816.0 L 402.0,840.0 L 429.0,948.0"/>
    <path d="M 423.0,836.0 L 436.0,828.0 L 570.0,805.0 L 591.0,827.0 L 574.0,875.0 L 555.0,884.0"/>
    <path d="M 446.0,932.0 L 449.0,926.0 L 535.0,911.0 L 580.0,909.0 L 597.0,915.0"/>
    <path d="M 348.0,1029.0 L 358.0,1018.0 L 381.0,1013.0 L 653.0,987.0"/>
  </g>
</svg>
