<svg xmlns="http://www.w3.org/2000/svg" viewBox="0 0 1024 1024">
  <g style="fill:none;stroke:#000000;stroke-width:50;stroke-linecap:round;stroke-linejoin:round;" transform="scale(1, 1) translate(0, 0)">
    <path d="M 217.0,346.0 L 275.0,351.0 L 493.0,318.0 L 716.0,297.0 L 755.0,297.0 L 815.0,313.0"/>
    <path d="M 344.0,240.0 L 383.0,265.0 L 416.0,406.0"/>
    <path d="M 608.0,190.0 L 622.0,197.0 L 640.0,229.0 L 572.0,401.0"/>
    <path d="M 256.0,458.0 L 320.0,504.0 L 334.0,531.0"/>
    <path d="M 92.0,664.0 L 142.0,672.0 L 250.0,633.0 L 269.0,632.0 L 293.0,644.0 L 261.0,888.0 L 268.0,927.0 L 310.0,916.0 L 396.0,845.0"/>
    <path d="M 457.0,434.0 L 485.0,466.0 L 512.0,616.0 L 521.0,627.0"/>
    <path d="M 501.0,443.0 L 533.0,447.0 L 568.0,432.0 L 664.0,415.0 L 710.0,423.0 L 726.0,444.0 L 683.0,607.0 L 686.0,622.0"/>
    <path d="M 519.0,538.0 L 532.0,527.0 L 585.0,515.0 L 645.0,515.0"/>
    <path d="M 536.0,620.0 L 542.0,611.0 L 644.0,598.0 L 657.0,590.0"/>
    <path d="M 510.0,640.0 L 527.0,666.0 L 512.0,691.0 L 455.0,751.0 L 422.0,773.0"/>
    <path d="M 520.0,715.0 L 547.0,706.0 L 752.0,675.0 L 793.0,683.0 L 817.0,708.0 L 800.0,890.0 L 780.0,971.0 L 761.0,1009.0 L 736.0,1033.0 L 676.0,992.0 L 674.0,983.0 L 660.0,978.0"/>
    <path d="M 600.0,720.0 L 615.0,739.0 L 602.0,766.0 L 555.0,831.0 L 514.0,868.0"/>
    <path d="M 607.0,797.0 L 630.0,799.0 L 675.0,820.0 L 710.0,857.0"/>
    <path d="M 438.0,810.0 L 463.0,839.0 L 454.0,946.0 L 642.0,920.0 L 666.0,921.0 L 705.0,935.0"/>
  </g>
</svg>
