<svg xmlns="http://www.w3.org/2000/svg" viewBox="0 0 1024 1024">
  <g style="fill:none;stroke:#000000;stroke-width:50;stroke-linecap:round;stroke-linejoin:round;" transform="scale(1, 1) translate(0, 0)">
    <path d="M 356.0,219.0 L 393.0,243.0 L 416.0,358.0"/>
    <path d="M 196.0,305.0 L 232.0,319.0 L 263.0,321.0 L 475.0,272.0"/>
    <path d="M 602.0,165.0 L 615.0,172.0 L 632.0,205.0 L 575.0,336.0"/>
    <path d="M 570.0,270.0 L 616.0,276.0 L 757.0,258.0 L 812.0,272.0"/>
    <path d="M 591.0,375.75 L 291.0,430.0"/>
    <path d="M 197.0,528.0 L 250.0,534.0 L 485.0,491.0 L 707.0,464.0 L 747.0,468.0 L 785.0,480.0"/>
    <path d="M 419.0,429.0 L 439.0,449.0 L 436.0,458.0 L 382.0,553.0 L 326.0,620.0 L 271.0,666.0 L 194.0,715.0 L 117.0,746.0"/>
    <path d="M 590.0,514.0 L 603.0,514.0 L 709.0,614.0 L 791.0,669.0 L 948.0,693.0"/>
    <path d="M 392.0,595.0 L 421.0,730.0"/>
    <path d="M 419.0,594.0 L 429.0,599.0 L 495.0,586.0 L 521.0,575.0 L 556.0,578.0 L 570.0,597.0 L 554.0,646.0 L 534.0,656.0"/>
    <path d="M 437.0,708.0 L 454.0,698.0 L 517.0,685.0 L 560.0,684.0 L 580.0,690.0"/>
    <path d="M 230.0,773.0 L 257.0,802.0 L 266.0,829.0 L 271.0,996.0 L 284.0,1047.0"/>
    <path d="M 287.0,790.0 L 308.0,800.0 L 496.0,762.0 L 712.0,741.0 L 730.0,752.0 L 750.0,780.0 L 742.0,809.0 L 732.0,987.0 L 717.0,1015.0 L 613.0,975.0"/>
    <path d="M 373.0,842.0 L 401.0,874.0 L 425.0,994.0"/>
    <path d="M 414.0,844.0 L 428.0,851.0 L 523.0,830.0 L 558.0,833.0 L 574.0,853.0 L 558.0,903.0 L 538.0,913.0"/>
    <path d="M 442.0,965.0 L 451.0,956.0 L 526.0,943.0 L 586.0,949.0"/>
  </g>
</svg>
