<svg xmlns="http://www.w3.org/2000/svg" viewBox="0 0 1024 1024">
  <g style="fill:none;stroke:#000000;stroke-width:50;stroke-linecap:round;stroke-linejoin:round;" transform="scale(1, 1) translate(0, 0)">
    <path d="M 205.0,295.0 L 245.0,304.0 L 305.0,302.0 L 719.0,261.0 L 772.0,266.0 L 806.0,281.0"/>
    <path d="M 360.0,217.0 L 399.0,241.0 L 424.0,353.0"/>
    <path d="M 591.0,171.0 L 604.0,178.0 L 621.0,206.0 L 593.0,294.0 L 567.0,339.0"/>
    <path d="M 356.0,382.0 L 414.0,386.0 L 602.0,355.0 L 645.0,362.0"/>
    <path d="M 265.0,470.0 L 286.0,484.0 L 302.0,509.0 L 332.0,611.0"/>
    <path d="M 311.0,471.0 L 334.0,481.0 L 628.0,434.0 L 683.0,430.0 L 710.0,435.0 L 736.0,468.0 L 683.0,577.0"/>
    <path d="M 405.0,406.0 L 436.0,427.0 L 452.0,528.0 L 453.0,546.0 L 446.0,554.0"/>
    <path d="M 544.0,384.0 L 573.0,412.0 L 551.0,531.0 L 536.0,544.0"/>
    <path d="M 348.0,583.0 L 356.0,590.0 L 371.0,589.0 L 667.0,548.0"/>
    <path d="M 316.0,652.0 L 338.0,669.0 L 350.0,690.0 L 380.0,810.0"/>
    <path d="M 362.0,654.0 L 379.0,662.0 L 547.0,635.0 L 629.0,627.0 L 655.0,630.0 L 683.0,662.0 L 642.0,766.0 L 635.0,770.0 L 619.0,759.0"/>
    <path d="M 389.0,729.0 L 394.0,723.0 L 432.0,722.0 L 527.0,704.0 L 555.0,701.0 L 573.0,706.0"/>
    <path d="M 393.0,795.0 L 405.0,783.0 L 425.0,787.0 L 433.0,780.0 L 446.0,786.0 L 458.0,778.0 L 569.0,768.0 L 605.0,758.0"/>
    <path d="M 138.0,886.0 L 198.0,905.0 L 427.0,877.0 L 829.0,850.0 L 920.0,880.0"/>
    <path d="M 465.0,795.0 L 501.0,823.0 L 499.0,1090.0"/>
  </g>
</svg>
