<svg xmlns="http://www.w3.org/2000/svg" viewBox="0 0 1024 1024">
  <g style="fill:none;stroke:#000000;stroke-width:50;stroke-linecap:round;stroke-linejoin:round;" transform="scale(1, 1) translate(0, 0)">
    <path d="M 353.0,205.0 L 371.0,213.0 L 397.0,237.0 L 417.0,356.0"/>
    <path d="M 193.0,306.0 L 245.0,320.0 L 506.0,271.0"/>
    <path d="M 622.0,156.0 L 637.0,165.0 L 656.0,196.0 L 620.0,303.0 L 598.0,349.0"/>
    <path d="M 610.0,265.0 L 657.0,270.0 L 812.0,251.0 L 847.0,256.0 L 870.0,267.0"/>
    <path d="M 405.0,422.0 L 428.0,429.0 L 469.0,427.0 L 568.0,404.0 L 624.0,402.0"/>
    <path d="M 476.0,333.0 L 510.0,365.0 L 507.0,453.0 L 491.0,477.0"/>
    <path d="M 349.0,517.0 L 388.0,518.0 L 606.0,482.0 L 658.0,483.0 L 687.0,492.0"/>
    <path d="M 238.0,641.0 L 287.0,640.0 L 393.0,604.0 L 429.0,601.0"/>
    <path d="M 299.0,553.0 L 332.0,580.0 L 332.0,671.0 L 319.0,699.0"/>
    <path d="M 177.0,761.0 L 218.0,768.0 L 395.0,694.0 L 449.0,662.0"/>
    <path d="M 545.0,597.0 L 600.0,602.0 L 699.0,578.0 L 736.0,580.0"/>
    <path d="M 608.0,528.0 L 640.0,560.0 L 635.0,638.0 L 620.0,656.0"/>
    <path d="M 509.0,693.0 L 540.0,694.0 L 743.0,658.0 L 810.0,669.0"/>
    <path d="M 276.0,825.0 L 329.0,826.0 L 477.0,790.0 L 642.0,763.0 L 727.0,771.0"/>
    <path d="M 387.0,841.0 L 405.0,862.0 L 400.0,871.0 L 358.0,926.0 L 312.0,971.0 L 267.0,1004.0 L 218.0,1030.0 L 123.0,1058.0"/>
    <path d="M 512.0,808.0 L 538.0,826.0 L 544.0,837.0 L 538.0,957.0 L 551.0,1004.0 L 592.0,1037.0 L 680.0,1060.0 L 744.0,1060.0 L 818.0,1048.0 L 851.0,1038.0 L 893.0,1013.0 L 905.0,998.0 L 912.0,865.0"/>
  </g>
</svg>
