<svg xmlns="http://www.w3.org/2000/svg" viewBox="0 0 1024 1024">
  <g style="fill:none;stroke:#000000;stroke-width:50;stroke-linecap:round;stroke-linejoin:round;" transform="scale(1, 1) translate(0, 0)">
    <path d="M 201.0,304.0 L 256.0,312.0 L 288.0,310.0 L 477.0,286.0 L 721.0,265.0 L 785.0,270.0 L 820.0,284.0"/>
    <path d="M 367.0,219.0 L 405.0,244.0 L 428.0,366.0"/>
    <path d="M 587.0,184.0 L 609.0,217.0 L 583.0,296.0 L 560.0,344.0"/>
    <path d="M 319.0,406.0 L 343.0,423.0 L 353.0,441.0 L 388.0,573.0"/>
    <path d="M 363.0,404.0 L 384.0,413.0 L 578.0,377.0 L 619.0,375.0 L 637.0,380.0 L 659.0,411.0 L 626.0,507.0 L 611.0,532.0 L 611.0,554.0"/>
    <path d="M 397.0,489.0 L 402.0,481.0 L 493.0,463.0 L 533.0,458.0 L 553.0,463.0"/>
    <path d="M 406.0,561.0 L 420.0,551.0 L 576.0,523.0"/>
    <path d="M 181.0,641.0 L 210.0,649.0 L 235.0,648.0 L 505.0,607.0 L 757.0,587.0 L 807.0,592.0 L 839.0,603.0"/>
    <path d="M 260.0,672.0 L 288.0,691.0 L 288.0,879.0 L 274.0,889.0"/>
    <path d="M 422.0,637.0 L 445.0,652.0 L 452.0,665.0 L 447.0,980.0 L 457.0,1068.0"/>
    <path d="M 318.0,740.0 L 327.0,728.0 L 338.0,725.0 L 382.0,719.0 L 401.0,724.0"/>
    <path d="M 312.0,825.0 L 323.0,815.0 L 362.0,805.0 L 405.0,808.0"/>
    <path d="M 152.0,929.0 L 197.0,947.0 L 475.0,866.0 L 494.0,853.0"/>
    <path d="M 528.0,713.0 L 598.0,704.0 L 666.0,685.0 L 684.0,691.0 L 699.0,709.0 L 674.0,805.0 L 620.0,890.0 L 567.0,925.0 L 525.0,943.0 L 486.0,951.0 L 478.0,960.0"/>
    <path d="M 499.0,766.0 L 548.0,791.0 L 658.0,901.0 L 740.0,961.0 L 790.0,976.0 L 916.0,992.0"/>
  </g>
</svg>
