<svg xmlns="http://www.w3.org/2000/svg" viewBox="0 0 1024 1024">
  <g style="fill:none;stroke:#000000;stroke-width:50;stroke-linecap:round;stroke-linejoin:round;" transform="scale(1, 1) translate(0, 0)">
    <path d="M 357.0,226.0 L 395.0,255.0 L 417.0,401.0"/>
    <path d="M 172.0,339.0 L 210.0,355.0 L 244.0,356.0 L 487.0,304.0"/>
    <path d="M 627.0,165.0 L 642.0,173.0 L 661.0,205.0 L 629.0,322.0 L 594.0,410.0"/>
    <path d="M 583.0,289.0 L 617.0,299.0 L 647.0,299.0 L 708.0,290.0 L 812.0,286.0 L 867.0,296.0 L 885.0,310.0"/>
    <path d="M 520.0,412.0 L 483.0,415.0 L 460.0,446.0 L 410.0,494.0 L 321.0,552.0"/>
    <path d="M 456.0,490.0 L 549.0,480.0 L 674.0,454.0 L 711.0,454.0"/>
    <path d="M 208.0,681.0 L 261.0,692.0 L 556.0,657.0 L 772.0,624.0 L 814.0,622.0 L 856.0,632.0"/>
    <path d="M 296.0,606.0 L 329.0,634.0 L 358.0,796.0 L 363.0,809.0 L 377.0,816.0"/>
    <path d="M 405.0,575.0 L 439.0,599.0 L 443.0,614.0 L 457.0,794.0 L 450.0,810.0"/>
    <path d="M 547.0,546.0 L 577.0,576.0 L 577.0,602.0 L 562.0,778.0 L 557.0,793.0 L 547.0,799.0"/>
    <path d="M 688.0,526.0 L 717.0,566.0 L 673.0,762.0 L 664.0,779.0 L 651.0,788.0"/>
    <path d="M 111.0,859.0 L 162.0,869.0 L 436.0,831.0 L 825.0,798.0 L 884.0,803.0 L 930.0,818.0"/>
    <path d="M 266.0,918.0 L 241.0,980.0 L 191.0,1060.0"/>
    <path d="M 379.0,913.0 L 419.0,975.0 L 430.0,1009.0"/>
    <path d="M 535.0,901.0 L 591.0,955.0 L 610.0,990.0"/>
    <path d="M 717.0,911.0 L 831.0,992.0 L 862.0,1049.0"/>
  </g>
</svg>
