<svg xmlns="http://www.w3.org/2000/svg" viewBox="0 0 1024 1024">
  <g style="fill:none;stroke:#000000;stroke-width:50;stroke-linecap:round;stroke-linejoin:round;" transform="scale(1, 1) translate(0, 0)">
    <path d="M 366.0,203.0 L 402.0,226.0 L 423.0,327.0"/>
    <path d="M 215.0,277.0 L 272.0,293.0 L 491.0,240.0"/>
    <path d="M 625.0,162.0 L 648.0,192.0 L 629.0,267.0 L 619.0,280.0 L 606.0,323.0"/>
    <path d="M 558.0,242.0 L 613.0,249.0 L 697.0,234.0 L 751.0,231.0 L 819.0,248.0"/>
    <path d="M 343.0,404.0 L 395.0,406.0 L 552.0,381.0 L 620.0,360.0 L 664.0,360.0 L 694.0,387.0 L 658.0,500.0 L 635.0,520.0"/>
    <path d="M 154.0,511.0 L 174.0,518.0 L 222.0,518.0 L 416.0,484.0 L 800.0,441.0 L 837.0,440.0 L 911.0,458.0"/>
    <path d="M 331.0,581.0 L 369.0,582.0 L 481.0,568.0 L 606.0,546.0 L 674.0,544.0 L 686.0,549.0"/>
    <path d="M 476.0,314.0 L 506.0,337.0 L 518.0,369.0 L 504.0,1081.0"/>
    <path d="M 235.0,650.0 L 270.0,682.0 L 269.0,765.0 L 253.0,872.0 L 232.0,927.0 L 210.0,960.0 L 173.0,999.0 L 138.0,1021.0"/>
    <path d="M 741.0,560.0 L 782.0,603.0 L 783.0,849.0 L 774.0,992.0 L 778.0,1064.0"/>
    <path d="M 386.0,607.0 L 407.0,639.0 L 403.0,678.0 L 415.0,690.0"/>
    <path d="M 297.0,743.0 L 308.0,733.0 L 376.0,716.0 L 433.0,717.0"/>
    <path d="M 602.0,573.0 L 614.0,578.0 L 623.0,594.0 L 619.0,670.0 L 658.0,668.0 L 740.0,651.0 L 750.0,657.0"/>
    <path d="M 344.0,805.0 L 388.0,805.0 L 637.0,757.0 L 690.0,760.0"/>
    <path d="M 270.0,903.0 L 281.0,893.0 L 330.0,885.0 L 352.0,875.0 L 372.0,877.0 L 389.0,889.0 L 375.0,980.0 L 380.0,1043.0"/>
    <path d="M 637.0,843.0 L 655.0,848.0 L 740.0,832.0 L 748.0,842.0"/>
    <path d="M 595.0,837.0 L 614.0,854.0 L 619.0,875.0 L 618.0,957.0 L 610.0,1000.0 L 613.0,1034.0"/>
  </g>
</svg>
