<svg xmlns="http://www.w3.org/2000/svg" viewBox="0 0 1024 1024">
  <g style="fill:none;stroke:#000000;stroke-width:50;stroke-linecap:round;stroke-linejoin:round;" transform="scale(1, 1) translate(0, 0)">
    <path d="M 209.0,347.0 L 279.0,355.0 L 443.0,331.0 L 724.0,303.0 L 778.0,305.0 L 821.0,320.0"/>
    <path d="M 356.0,251.0 L 397.0,276.0 L 431.0,405.0"/>
    <path d="M 603.0,215.0 L 627.0,252.0 L 564.0,409.0"/>
    <path d="M 220.0,446.0 L 278.0,489.0 L 289.0,519.0"/>
    <path d="M 385.0,419.0 L 403.0,447.0 L 347.0,516.0 L 336.0,521.0 L 336.0,528.0"/>
    <path d="M 160.0,588.0 L 183.0,606.0 L 195.0,630.0 L 232.0,786.0"/>
    <path d="M 202.0,590.0 L 229.0,595.0 L 389.0,559.0 L 428.0,558.0 L 453.0,566.0 L 470.0,588.0 L 431.0,739.0 L 434.0,754.0"/>
    <path d="M 260.0,681.0 L 351.0,661.0 L 374.0,658.0 L 392.0,663.0"/>
    <path d="M 251.0,763.0 L 256.0,757.0 L 403.0,723.0"/>
    <path d="M 92.0,872.0 L 144.0,880.0 L 412.0,817.0 L 468.0,819.0"/>
    <path d="M 301.0,593.0 L 318.0,605.0 L 330.0,634.0 L 315.0,967.0 L 325.0,1040.0"/>
    <path d="M 797.0,468.0 L 727.0,461.0 L 701.0,482.0 L 609.0,529.0 L 598.0,540.0 L 582.0,533.0"/>
    <path d="M 524.0,532.0 L 557.0,568.0 L 556.0,637.0 L 542.0,764.0 L 500.0,905.0 L 456.0,986.0 L 432.0,1014.0"/>
    <path d="M 585.0,674.0 L 597.0,665.0 L 612.0,668.0 L 807.0,630.0 L 875.0,640.0"/>
    <path d="M 683.0,675.0 L 722.0,702.0 L 719.0,1073.0"/>
  </g>
</svg>
