<svg xmlns="http://www.w3.org/2000/svg" viewBox="0 0 1024 1024">
  <g style="fill:none;stroke:#000000;stroke-width:50;stroke-linecap:round;stroke-linejoin:round;" transform="scale(1, 1) translate(0, 0)">
    <path d="M 353.0,198.0 L 395.0,225.0 L 432.0,388.0"/>
    <path d="M 182.0,323.0 L 232.0,341.0 L 249.0,341.0 L 501.0,299.0"/>
    <path d="M 653.0,158.0 L 669.0,168.0 L 687.0,199.0 L 650.0,306.0 L 598.0,419.0"/>
    <path d="M 599.0,277.0 L 633.0,286.0 L 820.0,268.0 L 881.0,277.0 L 899.0,291.0"/>
    <path d="M 315.0,373.0 L 329.0,392.0 L 334.0,411.0 L 322.0,431.0 L 260.0,508.0 L 192.0,565.0"/>
    <path d="M 314.0,481.0 L 382.0,463.0 L 413.0,465.0 L 432.0,476.0 L 374.0,557.0 L 346.0,578.0"/>
    <path d="M 160.0,606.0 L 188.0,628.0 L 192.0,639.0 L 240.0,829.0"/>
    <path d="M 217.0,628.0 L 234.0,615.0 L 422.0,576.0 L 458.0,574.0 L 483.0,582.0 L 503.0,606.0 L 467.0,748.0 L 451.0,786.0 L 455.0,805.0"/>
    <path d="M 272.0,705.0 L 390.0,683.0 L 429.0,687.0"/>
    <path d="M 318.0,612.0 L 343.0,637.0 L 344.0,734.0 L 329.0,757.0"/>
    <path d="M 258.0,803.0 L 273.0,792.0 L 377.0,771.0 L 417.0,770.0"/>
    <path d="M 176.0,883.0 L 165.0,947.0 L 136.0,1027.0"/>
    <path d="M 262.0,887.0 L 305.0,942.0 L 307.0,969.0"/>
    <path d="M 359.0,859.0 L 406.0,910.0 L 412.0,936.0"/>
    <path d="M 470.0,846.0 L 482.0,863.0 L 531.0,904.0 L 548.0,945.0"/>
    <path d="M 605.0,536.0 L 631.0,572.0 L 633.0,800.0"/>
    <path d="M 737.0,392.0 L 786.0,432.0 L 783.0,665.0 L 794.0,973.0 L 776.0,1018.0 L 731.0,1001.0 L 674.0,970.0 L 672.0,963.0 L 662.0,962.0"/>
  </g>
</svg>
