<svg xmlns="http://www.w3.org/2000/svg" viewBox="0 0 1024 1024">
  <g style="fill:none;stroke:#000000;stroke-width:50;stroke-linecap:round;stroke-linejoin:round;" transform="scale(1, 1) translate(0, 0)">
    <path d="M 371.0,188.0 L 409.0,213.0 L 440.0,358.0"/>
    <path d="M 188.0,288.0 L 226.0,303.0 L 260.0,305.0 L 511.0,256.0"/>
    <path d="M 626.0,163.0 L 651.0,195.0 L 627.0,293.0 L 606.0,349.0"/>
    <path d="M 595.0,241.0 L 662.0,249.0 L 811.0,232.0 L 850.0,235.0 L 885.0,249.0"/>
    <path d="M 492.0,322.0 L 535.0,354.0 L 545.0,379.0"/>
    <path d="M 347.0,422.0 L 370.0,436.0 L 404.0,435.0 L 603.0,408.0 L 698.0,385.0 L 751.0,388.0"/>
    <path d="M 291.0,407.0 L 314.0,433.0 L 322.0,456.0 L 287.0,624.0 L 260.0,715.0 L 230.0,792.0 L 181.0,881.0 L 144.0,933.0 L 70.0,1011.0"/>
    <path d="M 360.0,554.0 L 393.0,559.0 L 635.0,512.0 L 715.0,508.0 L 729.0,515.0 L 746.0,543.0 L 699.0,640.0 L 675.0,640.0"/>
    <path d="M 424.0,471.0 L 453.0,504.0 L 460.0,621.0 L 451.0,630.0"/>
    <path d="M 562.0,438.0 L 589.0,461.0 L 570.0,589.0 L 556.0,614.0"/>
    <path d="M 338.0,662.0 L 370.0,665.0 L 595.0,626.0 L 665.0,621.0"/>
    <path d="M 435.0,747.0 L 448.0,740.0 L 525.0,735.0 L 606.0,716.0 L 654.0,719.0"/>
    <path d="M 387.0,678.0 L 414.0,706.0 L 380.0,834.0 L 379.0,842.0 L 392.0,846.0 L 564.0,812.0 L 756.0,788.0 L 796.0,786.0 L 843.0,804.0 L 856.0,820.0 L 845.0,879.0 L 824.0,968.0 L 799.0,1031.0 L 783.0,1047.0 L 765.0,1054.0 L 682.0,998.0"/>
    <path d="M 272.0,888.0 L 265.0,949.0 L 243.0,1025.0"/>
    <path d="M 357.0,910.0 L 399.0,962.0 L 407.0,985.0"/>
    <path d="M 466.0,898.0 L 505.0,932.0 L 523.0,960.0"/>
    <path d="M 600.0,870.0 L 666.0,916.0 L 694.0,959.0"/>
  </g>
</svg>
