<svg xmlns="http://www.w3.org/2000/svg" viewBox="0 0 1024 1024">
  <g style="fill:none;stroke:#000000;stroke-width:50;stroke-linecap:round;stroke-linejoin:round;" transform="scale(1, 1) translate(0, 0)">
    <path d="M 225.0,354.0 L 265.0,363.0 L 321.0,361.0 L 498.0,334.0 L 740.0,311.0 L 798.0,317.0 L 829.0,330.0"/>
    <path d="M 363.0,242.0 L 406.0,273.0 L 436.0,427.0"/>
    <path d="M 612.0,195.0 L 628.0,203.0 L 647.0,232.0 L 618.0,349.0 L 591.0,424.0"/>
    <path d="M 196.0,522.0 L 254.0,526.0 L 376.0,495.0 L 434.0,495.0"/>
    <path d="M 258.0,549.0 L 282.0,573.0 L 253.0,635.0 L 188.0,727.0 L 120.0,796.0"/>
    <path d="M 253.0,672.0 L 340.0,650.0 L 368.0,656.0 L 375.0,670.0 L 348.0,762.0 L 320.0,823.0 L 270.0,905.0 L 213.0,975.0 L 141.0,1031.0"/>
    <path d="M 204.0,769.0 L 255.0,804.0 L 272.0,842.0"/>
    <path d="M 530.0,507.0 L 559.0,540.0 L 564.0,598.0 L 562.0,913.0 L 546.0,937.0"/>
    <path d="M 428.0,621.0 L 463.0,625.0 L 523.0,618.0 L 527.0,624.0 L 540.0,625.0"/>
    <path d="M 419.0,734.0 L 463.0,738.0 L 533.0,718.0"/>
    <path d="M 404.0,833.0 L 425.0,839.0 L 477.0,835.0 L 521.0,826.0 L 535.0,814.0"/>
    <path d="M 642.0,447.0 L 674.0,487.0 L 677.0,579.0 L 666.0,906.0 L 649.0,921.0"/>
    <path d="M 705.0,595.0 L 718.0,584.0 L 816.0,570.0 L 837.0,573.0"/>
    <path d="M 702.0,712.0 L 711.0,705.0 L 780.0,692.0 L 836.0,693.0"/>
    <path d="M 698.0,822.0 L 706.0,812.0 L 787.0,800.0 L 831.0,800.0 L 851.0,807.0"/>
    <path d="M 386.0,972.0 L 435.0,981.0 L 757.0,943.0 L 815.0,947.0 L 859.0,961.0"/>
  </g>
</svg>
