<svg xmlns="http://www.w3.org/2000/svg" viewBox="0 0 1024 1024">
  <g style="fill:none;stroke:#000000;stroke-width:50;stroke-linecap:round;stroke-linejoin:round;" transform="scale(1, 1) translate(0, 0)">
    <path d="M 378.0,213.0 L 419.0,239.0 L 447.0,369.0"/>
    <path d="M 184.0,312.0 L 222.0,327.0 L 256.0,329.0 L 503.0,280.0"/>
    <path d="M 632.0,163.0 L 646.0,170.0 L 664.0,200.0 L 631.0,299.0 L 602.0,362.0"/>
    <path d="M 579.0,273.0 L 617.0,281.0 L 788.0,261.0 L 838.0,267.0 L 865.0,278.0"/>
    <path d="M 226.0,471.0 L 250.0,477.0 L 314.0,448.0 L 348.0,440.0 L 359.0,443.0 L 368.0,455.0 L 354.0,494.0 L 330.0,530.0 L 318.0,567.0 L 325.0,590.0 L 365.0,647.0 L 369.0,686.0 L 365.0,697.0 L 351.0,697.0 L 287.0,679.0"/>
    <path d="M 164.0,454.0 L 182.0,468.0 L 201.0,498.0 L 207.0,583.0 L 204.0,801.0 L 197.0,896.0 L 179.0,993.0 L 179.0,1055.0"/>
    <path d="M 573.0,369.0 L 647.0,413.0"/>
    <path d="M 488.0,454.0 L 548.0,457.0 L 658.0,436.0 L 743.0,411.0 L 790.0,411.0"/>
    <path d="M 715.0,468.0 L 690.0,473.0 L 669.0,509.0 L 611.0,572.0 L 534.0,613.0"/>
    <path d="M 531.0,510.0 L 683.0,550.0 L 726.0,571.0 L 741.0,587.0"/>
    <path d="M 492.0,663.0 L 505.0,670.0 L 555.0,670.0 L 760.0,627.0 L 807.0,626.0"/>
    <path d="M 433.0,641.0 L 462.0,676.0 L 452.0,764.0 L 434.0,842.0 L 396.0,942.0 L 355.0,1003.0 L 328.0,1032.0"/>
    <path d="M 534.0,733.0 L 552.0,757.0 L 546.0,779.0 L 523.0,827.0 L 480.0,874.0"/>
    <path d="M 562.0,806.0 L 644.0,802.0 L 749.0,774.0 L 796.0,775.0"/>
    <path d="M 548.0,900.0 L 583.0,907.0 L 609.0,905.0 L 749.0,878.0 L 782.0,881.0"/>
    <path d="M 639.0,697.0 L 665.0,730.0 L 667.0,760.0 L 662.0,957.0 L 647.0,977.0"/>
    <path d="M 438.0,1013.0 L 479.0,1022.0 L 591.0,1005.0 L 818.0,984.0 L 862.0,988.0 L 905.0,1003.0"/>
  </g>
</svg>
