<svg xmlns="http://www.w3.org/2000/svg" viewBox="0 0 1024 1024">
  <g style="fill:none;stroke:#000000;stroke-width:50;stroke-linecap:round;stroke-linejoin:round;" transform="scale(1, 1) translate(0, 0)">
    <path d="M 194.0,330.0 L 229.0,339.0 L 294.0,338.0 L 447.0,316.0 L 720.0,290.0 L 776.0,292.0 L 832.0,310.0"/>
    <path d="M 338.0,240.0 L 383.0,268.0 L 415.0,410.0"/>
    <path d="M 609.0,183.0 L 624.0,193.0 L 641.0,224.0 L 613.0,307.0 L 568.0,409.0"/>
    <path d="M 221.0,482.0 L 269.0,510.0 L 291.0,542.0"/>
    <path d="M 480.0,435.0 L 491.0,456.0 L 489.0,463.0 L 425.0,516.0"/>
    <path d="M 188.0,597.0 L 240.0,602.0 L 407.0,575.0 L 470.0,569.0 L 504.0,575.0"/>
    <path d="M 331.0,424.0 L 351.0,437.0 L 368.0,460.0 L 359.0,686.0 L 365.0,734.0"/>
    <path d="M 335.0,612.0 L 263.0,690.0 L 225.0,718.0 L 176.0,741.0"/>
    <path d="M 391.0,617.0 L 394.0,627.0 L 462.0,662.0 L 481.0,690.0"/>
    <path d="M 300.0,720.0 L 316.0,735.0 L 323.0,755.0 L 258.0,911.0 L 282.0,927.0 L 411.0,984.0 L 433.0,998.0 L 478.0,1046.0"/>
    <path d="M 401.0,773.0 L 428.0,801.0 L 421.0,840.0 L 384.0,926.0 L 358.0,958.0 L 330.0,984.0 L 277.0,1012.0 L 222.0,1031.0 L 174.0,1036.0"/>
    <path d="M 129.0,831.0 L 169.0,848.0 L 378.0,806.0 L 393.0,810.0"/>
    <path d="M 627.0,428.0 L 640.0,435.0 L 664.0,468.0 L 650.0,511.0 L 584.0,650.0 L 513.0,746.0"/>
    <path d="M 613.0,649.0 L 637.0,639.0 L 708.0,629.0 L 796.0,607.0 L 856.0,606.0"/>
    <path d="M 687.0,684.0 L 707.0,701.0 L 718.0,722.0 L 705.0,805.0 L 676.0,872.0 L 644.0,914.0 L 606.0,944.0 L 540.0,974.0 L 512.0,979.0"/>
    <path d="M 552.0,767.0 L 584.0,783.0 L 711.0,925.0 L 800.0,996.0 L 817.0,1005.0 L 946.0,1020.0"/>
  </g>
</svg>
