<svg xmlns="http://www.w3.org/2000/svg" viewBox="0 0 1024 1024">
  <g style="fill:none;stroke:#000000;stroke-width:50;stroke-linecap:round;stroke-linejoin:round;" transform="scale(1, 1) translate(0, 0)">
    <path d="M 356.0,237.0 L 378.0,248.0 L 398.0,268.0 L 424.0,416.0"/>
    <path d="M 196.0,351.0 L 234.0,367.0 L 268.0,369.0 L 503.0,320.0"/>
    <path d="M 662.0,188.0 L 677.0,197.0 L 695.0,228.0 L 657.0,350.0 L 618.0,438.0"/>
    <path d="M 606.0,321.0 L 642.0,329.0 L 819.0,309.0 L 881.0,318.0 L 897.0,326.0"/>
    <path d="M 401.0,473.0 L 345.0,467.0 L 245.0,538.0 L 140.0,587.0"/>
    <path d="M 189.0,599.0 L 220.0,632.0 L 232.0,662.0"/>
    <path d="M 278.0,563.0 L 302.0,587.0 L 314.0,612.0"/>
    <path d="M 394.0,550.0 L 405.0,573.0 L 405.0,594.0 L 294.0,684.0 L 234.0,718.0 L 168.0,746.0"/>
    <path d="M 319.0,689.0 L 334.0,691.0 L 350.0,706.0 L 388.0,764.0 L 402.0,838.0 L 399.0,905.0 L 380.0,985.0 L 368.0,1010.0 L 345.0,1035.0 L 267.0,998.0"/>
    <path d="M 332.0,710.0 L 330.0,743.0 L 292.0,778.0 L 219.0,825.0 L 182.0,841.0 L 165.0,841.0 L 161.0,847.0"/>
    <path d="M 368.0,790.0 L 355.0,839.0 L 303.0,888.0 L 228.0,942.0 L 135.0,983.0"/>
    <path d="M 457.0,513.0 L 481.0,530.0 L 503.0,565.0 L 535.0,727.0 L 554.0,778.0"/>
    <path d="M 503.0,517.0 L 541.0,525.0 L 661.0,502.0 L 796.0,487.0 L 823.0,490.0 L 836.0,499.0 L 856.0,525.0 L 803.0,696.0 L 781.0,743.0 L 759.0,730.0"/>
    <path d="M 579.0,636.0 L 711.0,615.0 L 760.0,618.0"/>
    <path d="M 571.0,757.0 L 584.0,747.0 L 706.0,729.0 L 732.0,730.0 L 737.0,738.0"/>
    <path d="M 618.0,532.0 L 652.0,550.0 L 658.0,596.0 L 649.0,967.0 L 633.0,984.0"/>
    <path d="M 522.0,879.0 L 595.0,885.0 L 761.0,856.0 L 799.0,858.0"/>
    <path d="M 430.0,1021.0 L 482.0,1029.0 L 606.0,1011.0 L 873.0,988.0 L 921.0,994.0 L 956.0,1008.0"/>
  </g>
</svg>
