<svg xmlns="http://www.w3.org/2000/svg" viewBox="0 0 1024 1024">
  <g style="fill:none;stroke:#000000;stroke-width:50;stroke-linecap:round;stroke-linejoin:round;" transform="scale(1, 1) translate(0, 0)">
    <path d="M 211.0,289.0 L 271.0,298.0 L 447.0,278.0 L 723.0,259.0 L 777.0,264.0 L 814.0,278.0"/>
    <path d="M 353.0,207.0 L 373.0,216.0 L 391.0,234.0 L 416.0,350.0"/>
    <path d="M 622.0,172.0 L 644.0,206.0 L 616.0,292.0 L 601.0,317.0"/>
    <path d="M 304.0,381.0 L 345.0,390.0 L 621.0,356.0 L 662.0,355.0 L 695.0,363.0"/>
    <path d="M 475.0,327.0 L 506.0,359.0 L 502.0,415.0 L 489.0,436.0"/>
    <path d="M 380.0,462.0 L 401.0,468.0 L 442.0,466.0 L 587.0,444.0 L 629.0,450.0"/>
    <path d="M 330.0,527.0 L 366.0,562.0 L 387.0,626.0"/>
    <path d="M 357.0,526.0 L 364.0,523.0 L 389.0,532.0 L 425.0,530.0 L 616.0,507.0 L 631.0,514.0 L 644.0,539.0 L 635.0,553.0 L 611.0,570.0"/>
    <path d="M 403.0,619.0 L 421.0,611.0 L 579.0,591.0 L 649.0,593.0"/>
    <path d="M 232.0,657.0 L 241.0,682.0 L 238.0,708.0 L 194.0,775.0 L 187.0,826.0"/>
    <path d="M 263.0,686.0 L 281.0,696.0 L 308.0,695.0 L 572.0,658.0 L 645.0,655.0 L 651.0,650.0 L 667.0,654.0 L 679.0,646.0 L 692.0,652.0 L 708.0,644.0 L 717.0,648.0 L 787.0,643.0 L 814.0,652.0 L 825.0,662.0 L 834.0,685.0 L 746.0,751.0"/>
    <path d="M 332.0,752.0 L 375.0,759.0 L 431.0,755.0 L 610.0,729.0 L 659.0,736.0"/>
    <path d="M 492.0,772.0 L 453.0,790.0 L 417.0,824.0 L 403.0,853.0 L 433.0,855.0 L 522.0,842.0 L 557.0,831.0 L 579.0,832.0 L 585.0,825.0 L 606.0,836.0"/>
    <path d="M 579.0,786.0 L 633.0,823.0 L 654.0,856.0"/>
    <path d="M 328.0,940.0 L 374.0,949.0 L 610.0,919.0 L 663.0,917.0 L 695.0,924.0"/>
    <path d="M 476.0,868.0 L 498.0,881.0 L 509.0,900.0 L 508.0,978.0 L 494.0,996.0"/>
    <path d="M 238.0,1033.0 L 292.0,1042.0 L 453.0,1023.0 L 713.0,1006.0 L 745.0,1010.0 L 794.0,1028.0"/>
  </g>
</svg>
