<svg xmlns="http://www.w3.org/2000/svg" viewBox="0 0 1024 1024">
  <g style="fill:none;stroke:#000000;stroke-width:50;stroke-linecap:round;stroke-linejoin:round;" transform="scale(1, 1) translate(0, 0)">
    <path d="M 201.0,292.0 L 243.0,300.0 L 287.0,299.0 L 441.0,277.0 L 575.0,270.0 L 740.0,252.0 L 805.0,258.0 L 840.0,272.0"/>
    <path d="M 363.0,203.0 L 401.0,228.0 L 424.0,350.0"/>
    <path d="M 617.0,174.0 L 639.0,209.0 L 612.0,284.0 L 586.0,335.0"/>
    <path d="M 457.0,320.0 L 543.0,360.0"/>
    <path d="M 296.0,400.0 L 350.0,408.0 L 667.0,365.0 L 723.0,372.0"/>
    <path d="M 352.0,453.0 L 386.0,485.0 L 408.0,562.0"/>
    <path d="M 401.0,455.0 L 421.0,465.0 L 434.0,458.0 L 473.0,455.0 L 567.0,433.0 L 602.0,431.0 L 621.0,441.0 L 632.0,456.0 L 613.0,486.0 L 597.0,494.0"/>
    <path d="M 423.0,550.0 L 454.0,539.0 L 574.0,521.0 L 628.0,516.0 L 648.0,522.0"/>
    <path d="M 227.0,582.0 L 234.0,600.0 L 232.0,625.0 L 195.0,688.0 L 190.0,734.0"/>
    <path d="M 260.0,606.0 L 272.0,616.0 L 299.0,616.0 L 445.0,589.0 L 730.0,559.0 L 768.0,562.0 L 792.0,573.0 L 808.0,598.0 L 742.0,662.0"/>
    <path d="M 360.0,657.0 L 395.0,693.0 L 420.0,778.0"/>
    <path d="M 388.0,652.0 L 423.0,667.0 L 583.0,640.0 L 603.0,642.0 L 633.0,666.0 L 625.0,689.0 L 602.0,708.0"/>
    <path d="M 436.0,745.0 L 443.0,751.0 L 600.0,729.0 L 630.0,728.0 L 648.0,734.0"/>
    <path d="M 228.0,841.0 L 281.0,853.0 L 689.0,807.0 L 735.0,808.0 L 768.0,816.0"/>
    <path d="M 485.0,764.0 L 508.0,789.0 L 507.0,962.0 L 502.0,992.0 L 513.0,1069.0"/>
    <path d="M 478.0,858.0 L 412.0,924.0 L 327.0,986.0 L 272.0,1014.0 L 210.0,1033.0"/>
    <path d="M 538.0,854.0 L 634.0,938.0 L 699.0,985.0 L 783.0,1004.0 L 870.0,1013.0"/>
  </g>
</svg>
