<svg xmlns="http://www.w3.org/2000/svg" viewBox="0 0 1024 1024">
  <g style="fill:none;stroke:#000000;stroke-width:50;stroke-linecap:round;stroke-linejoin:round;" transform="scale(1, 1) translate(0, 0)">
    <path d="M 348.0,237.0 L 386.0,261.0 L 416.0,402.0"/>
    <path d="M 188.0,346.0 L 244.0,359.0 L 447.0,312.0"/>
    <path d="M 618.0,190.0 L 643.0,224.0 L 615.0,328.0 L 587.0,395.0"/>
    <path d="M 573.0,306.0 L 615.0,309.0 L 739.0,289.0 L 788.0,292.0 L 817.0,303.0"/>
    <path d="M 436.0,482.0 L 378.0,473.0 L 286.0,531.0 L 226.0,550.0 L 217.0,559.0 L 200.0,557.0 L 191.0,567.0"/>
    <path d="M 96.0,697.0 L 157.0,703.0 L 382.0,651.0 L 442.0,651.0"/>
    <path d="M 310.0,541.0 L 327.0,552.0 L 334.0,567.0 L 329.0,839.0 L 319.0,980.0 L 329.0,1056.0"/>
    <path d="M 308.0,692.0 L 299.0,700.0 L 293.0,735.0 L 275.0,771.0 L 237.0,833.0 L 159.0,929.0 L 113.0,973.0"/>
    <path d="M 356.0,753.0 L 364.0,767.0 L 409.0,795.0 L 424.0,818.0"/>
    <path d="M 514.0,438.0 L 538.0,458.0 L 549.0,479.0 L 568.0,587.0 L 580.0,622.0"/>
    <path d="M 567.0,442.0 L 576.0,452.0 L 586.0,451.0 L 620.0,440.0 L 751.0,419.0 L 783.0,430.0 L 798.0,452.0 L 757.0,591.0 L 759.0,614.0"/>
    <path d="M 588.0,540.0 L 593.0,530.0 L 645.0,517.0 L 698.0,510.0 L 714.0,515.0"/>
    <path d="M 600.0,612.0 L 605.0,602.0 L 713.0,589.0 L 727.0,582.0"/>
    <path d="M 545.0,653.0 L 556.0,669.0 L 557.0,686.0 L 509.0,757.0 L 470.0,787.0"/>
    <path d="M 566.0,721.0 L 583.0,714.0 L 618.0,714.0 L 821.0,677.0 L 850.0,684.0 L 871.0,707.0 L 846.0,905.0 L 813.0,1006.0 L 791.0,1035.0 L 774.0,1047.0 L 717.0,1013.0 L 715.0,1005.0 L 701.0,1005.0"/>
    <path d="M 646.0,730.0 L 662.0,754.0 L 646.0,791.0 L 616.0,837.0 L 577.0,872.0"/>
    <path d="M 665.0,803.0 L 728.0,836.0 L 746.0,865.0"/>
    <path d="M 483.0,814.0 L 500.0,828.0 L 515.0,856.0 L 507.0,955.0 L 530.0,960.0 L 713.0,931.0 L 777.0,944.0"/>
  </g>
</svg>
