<svg xmlns="http://www.w3.org/2000/svg" viewBox="0 0 1024 1024">
  <g style="fill:none;stroke:#000000;stroke-width:50;stroke-linecap:round;stroke-linejoin:round;" transform="scale(1, 1) translate(0, 0)">
    <path d="M 208.0,321.0 L 229.0,327.0 L 283.0,328.0 L 424.0,307.0 L 724.0,277.0 L 761.0,281.0 L 796.0,294.0"/>
    <path d="M 361.0,219.0 L 397.0,243.0 L 429.0,403.0"/>
    <path d="M 607.0,169.0 L 621.0,176.0 L 638.0,205.0 L 609.0,310.0 L 575.0,391.0"/>
    <path d="M 184.0,521.0 L 233.0,524.0 L 308.0,512.0 L 382.0,491.0 L 428.0,491.0"/>
    <path d="M 203.0,614.0 L 261.0,613.0 L 380.0,583.0 L 417.0,582.0"/>
    <path d="M 91.0,727.0 L 114.0,736.0 L 148.0,737.0 L 371.0,678.0 L 424.0,671.0 L 444.0,674.0"/>
    <path d="M 288.0,386.0 L 313.0,407.0 L 330.0,439.0 L 318.0,793.0 L 301.0,994.0 L 302.0,1056.0"/>
    <path d="M 298.0,721.0 L 290.0,727.0 L 275.0,781.0 L 241.0,829.0 L 177.0,902.0 L 106.0,963.0"/>
    <path d="M 355.0,769.0 L 413.0,812.0 L 424.0,835.0"/>
    <path d="M 477.0,444.0 L 496.0,461.0 L 507.0,485.0 L 536.0,671.0"/>
    <path d="M 517.0,445.0 L 537.0,454.0 L 734.0,416.0 L 764.0,419.0 L 777.0,427.0 L 794.0,448.0 L 762.0,574.0 L 739.0,638.0 L 743.0,657.0"/>
    <path d="M 564.0,557.0 L 668.0,533.0 L 694.0,530.0 L 712.0,535.0"/>
    <path d="M 557.0,653.0 L 564.0,645.0 L 585.0,640.0 L 705.0,621.0"/>
    <path d="M 446.0,742.0 L 466.0,767.0 L 475.0,791.0 L 468.0,974.0 L 475.0,1002.0"/>
    <path d="M 484.0,755.0 L 510.0,764.0 L 663.0,727.0 L 790.0,707.0 L 820.0,707.0 L 838.0,716.0 L 858.0,738.0 L 851.0,795.0 L 852.0,939.0 L 843.0,986.0 L 835.0,998.0 L 817.0,995.0 L 746.0,967.0"/>
    <path d="M 610.0,457.0 L 637.0,475.0 L 640.0,506.0 L 634.0,822.0 L 619.0,847.0"/>
    <path d="M 532.0,883.0 L 573.0,890.0 L 713.0,839.0 L 715.0,831.0"/>
    <path d="M 712.0,786.0 L 766.0,858.0 L 773.0,887.0"/>
  </g>
</svg>
