<svg xmlns="http://www.w3.org/2000/svg" viewBox="0 0 1024 1024">
  <g style="fill:none;stroke:#000000;stroke-width:50;stroke-linecap:round;stroke-linejoin:round;" transform="scale(1, 1) translate(0, 0)">
    <path d="M 348.0,200.0 L 368.0,209.0 L 388.0,228.0 L 420.0,366.0"/>
    <path d="M 192.0,302.0 L 246.0,318.0 L 463.0,268.0"/>
    <path d="M 607.0,161.0 L 620.0,167.0 L 639.0,195.0 L 615.0,283.0 L 583.0,364.0"/>
    <path d="M 585.0,262.0 L 641.0,263.0 L 774.0,242.0 L 821.0,246.0 L 841.0,255.0"/>
    <path d="M 493.0,335.0 L 510.0,358.0 L 464.0,432.0"/>
    <path d="M 425.0,440.0 L 440.0,459.0 L 446.0,486.0 L 440.0,632.0 L 446.0,668.0"/>
    <path d="M 457.0,449.0 L 470.0,454.0 L 547.0,431.0 L 577.0,448.0 L 572.0,614.0 L 565.0,642.0 L 571.0,677.0"/>
    <path d="M 469.0,558.0 L 488.0,545.0 L 534.0,543.0"/>
    <path d="M 464.0,651.0 L 477.0,639.0 L 526.0,634.0 L 536.0,628.0"/>
    <path d="M 276.0,379.0 L 295.0,412.0 L 233.0,520.0 L 225.0,553.0 L 250.0,558.0 L 306.0,546.0 L 315.0,538.0"/>
    <path d="M 357.0,460.0 L 372.0,489.0 L 331.0,554.0 L 256.0,651.0 L 247.0,685.0 L 276.0,685.0 L 349.0,656.0"/>
    <path d="M 354.0,612.0 L 384.0,675.0"/>
    <path d="M 700.0,324.0 L 715.0,343.0 L 717.0,361.0 L 651.0,490.0 L 730.0,488.0 L 740.0,479.0"/>
    <path d="M 777.0,418.0 L 790.0,449.0 L 758.0,500.0 L 681.0,592.0 L 673.0,605.0 L 671.0,628.0 L 702.0,632.0 L 764.0,616.0 L 773.0,622.0"/>
    <path d="M 761.0,573.0 L 808.0,628.0 L 816.0,656.0"/>
    <path d="M 150.0,804.0 L 204.0,813.0 L 402.0,783.0 L 780.0,748.0 L 824.0,749.0 L 879.0,764.0"/>
    <path d="M 481.0,701.0 L 510.0,738.0 L 508.0,927.0 L 501.0,1015.0 L 514.0,1093.0"/>
    <path d="M 475.0,797.0 L 416.0,861.0 L 335.0,926.0 L 221.0,990.0 L 117.0,1022.0"/>
    <path d="M 542.0,798.0 L 551.0,803.0 L 556.0,826.0 L 573.0,826.0 L 637.0,885.0 L 638.0,892.0 L 673.0,912.0 L 679.0,925.0 L 711.0,938.0 L 722.0,954.0 L 769.0,976.0 L 805.0,985.0 L 824.0,979.0 L 853.0,997.0 L 901.0,986.0 L 941.0,1002.0"/>
  </g>
</svg>
