<svg xmlns="http://www.w3.org/2000/svg" viewBox="0 0 1024 1024">
  <g style="fill:none;stroke:#000000;stroke-width:50;stroke-linecap:round;stroke-linejoin:round;" transform="scale(1, 1) translate(0, 0)">
    <path d="M 359.0,224.0 L 379.0,232.0 L 397.0,249.0 L 431.0,380.0"/>
    <path d="M 184.0,318.0 L 242.0,336.0 L 463.0,292.0"/>
    <path d="M 606.0,174.0 L 631.0,209.0 L 599.0,322.0 L 574.0,386.0"/>
    <path d="M 589.0,275.0 L 647.0,278.0 L 779.0,265.0 L 814.0,271.0 L 838.0,283.0"/>
    <path d="M 196.0,469.0 L 224.0,495.0 L 264.0,644.0"/>
    <path d="M 251.0,489.0 L 273.0,474.0 L 377.0,453.0 L 393.0,444.0 L 433.0,438.0 L 464.0,445.0 L 480.0,464.0 L 455.0,563.0 L 436.0,613.0 L 421.0,613.0"/>
    <path d="M 69.0,580.0 L 104.0,588.0 L 135.0,586.0 L 502.0,517.0 L 550.0,521.0"/>
    <path d="M 279.0,635.0 L 297.0,623.0 L 416.0,593.0"/>
    <path d="M 182.0,711.0 L 210.0,732.0 L 240.0,821.0"/>
    <path d="M 230.0,712.0 L 237.0,718.0 L 288.0,710.0 L 443.0,677.0 L 458.0,683.0 L 473.0,701.0 L 462.0,732.0 L 442.0,747.0"/>
    <path d="M 250.0,791.0 L 259.0,798.0 L 431.0,770.0 L 487.0,776.0"/>
    <path d="M 312.0,393.0 L 333.0,407.0 L 347.0,427.0 L 343.0,730.0 L 341.0,756.0 L 332.0,767.0"/>
    <path d="M 309.0,811.0 L 322.0,820.0 L 327.0,832.0 L 278.0,959.0 L 299.0,974.0 L 342.0,988.0 L 428.0,1030.0 L 457.0,1050.0 L 491.0,1086.0"/>
    <path d="M 420.0,818.0 L 442.0,854.0 L 411.0,923.0 L 374.0,983.0 L 339.0,1021.0 L 292.0,1050.0 L 208.0,1079.0"/>
    <path d="M 97.0,900.0 L 139.0,917.0 L 260.0,887.0 L 387.0,864.0 L 406.0,850.0"/>
    <path d="M 627.0,407.0 L 650.0,421.0 L 665.0,443.0 L 654.0,486.0 L 608.0,607.0 L 533.0,735.0"/>
    <path d="M 649.0,585.0 L 662.0,579.0 L 707.0,577.0 L 840.0,540.0 L 872.0,541.0"/>
    <path d="M 712.0,602.0 L 738.0,621.0 L 750.0,640.0 L 735.0,755.0 L 698.0,852.0 L 659.0,905.0 L 632.0,928.0 L 569.0,966.0 L 520.0,981.0"/>
    <path d="M 553.0,735.0 L 571.0,736.0 L 601.0,758.0 L 715.0,902.0 L 813.0,991.0 L 862.0,1016.0 L 993.0,1035.0"/>
  </g>
</svg>
