<svg xmlns="http://www.w3.org/2000/svg" viewBox="0 0 1024 1024">
  <g style="fill:none;stroke:#000000;stroke-width:50;stroke-linecap:round;stroke-linejoin:round;" transform="scale(1, 1) translate(0, 0)">
    <path d="M 349.0,219.0 L 384.0,242.0 L 412.0,382.0"/>
    <path d="M 188.0,302.0 L 211.0,312.0 L 256.0,318.0 L 463.0,276.0"/>
    <path d="M 601.0,169.0 L 625.0,203.0 L 599.0,288.0 L 567.0,359.0"/>
    <path d="M 625.0,282.0 L 675.0,268.0 L 754.0,260.0 L 780.0,261.0 L 822.0,275.0"/>
    <path d="M 189.0,425.0 L 207.0,439.0 L 226.0,470.0 L 229.0,519.0 L 220.0,836.0 L 196.0,999.0 L 195.0,1052.0"/>
    <path d="M 251.0,444.0 L 262.0,450.0 L 359.0,427.0 L 388.0,453.0 L 364.0,637.0"/>
    <path d="M 254.0,552.0 L 277.0,536.0 L 318.0,536.0"/>
    <path d="M 251.0,647.0 L 265.0,636.0 L 338.0,620.0"/>
    <path d="M 579.0,393.0 L 598.0,413.0 L 610.0,437.0 L 613.0,564.0 L 622.0,613.0"/>
    <path d="M 615.0,396.0 L 625.0,404.0 L 647.0,405.0 L 758.0,374.0 L 775.0,381.0 L 800.0,405.0 L 800.0,603.0 L 811.0,869.0 L 809.0,1010.0 L 793.0,1041.0 L 695.0,1007.0"/>
    <path d="M 634.0,508.0 L 645.0,499.0 L 693.0,488.0 L 721.0,492.0"/>
    <path d="M 642.0,596.0 L 652.0,586.0 L 740.0,573.0 L 759.0,574.0 L 772.0,583.0"/>
    <path d="M 428.0,617.0 L 443.0,644.0 L 425.0,677.0 L 346.0,764.0 L 292.0,798.0"/>
    <path d="M 383.0,760.0 L 396.0,802.0 L 398.0,840.0 L 387.0,998.0 L 392.0,1043.0"/>
    <path d="M 509.0,602.0 L 565.0,644.0"/>
    <path d="M 455.0,719.0 L 492.0,722.0 L 561.0,710.0 L 617.0,691.0 L 651.0,691.0"/>
    <path d="M 463.0,803.0 L 514.0,805.0 L 604.0,780.0 L 636.0,779.0"/>
    <path d="M 460.0,875.0 L 509.0,878.0 L 619.0,853.0 L 641.0,854.0"/>
    <path d="M 521.0,735.0 L 544.0,752.0 L 547.0,767.0 L 545.0,917.0 L 531.0,939.0"/>
    <path d="M 424.0,964.0 L 431.0,973.0 L 485.0,972.0 L 657.0,945.0 L 707.0,954.0"/>
  </g>
</svg>
