<svg xmlns="http://www.w3.org/2000/svg" viewBox="0 0 1024 1024">
  <g style="fill:none;stroke:#000000;stroke-width:50;stroke-linecap:round;stroke-linejoin:round;" transform="scale(1, 1) translate(0, 0)">
    <path d="M 188.0,335.0 L 207.0,341.0 L 263.0,342.0 L 508.0,306.0 L 717.0,283.0 L 770.0,285.0 L 817.0,300.0"/>
    <path d="M 348.0,225.0 L 368.0,233.0 L 388.0,252.0 L 416.0,382.0"/>
    <path d="M 601.0,174.0 L 615.0,182.0 L 632.0,212.0 L 572.0,369.0"/>
    <path d="M 205.0,415.0 L 276.0,452.0 L 309.0,489.0"/>
    <path d="M 140.0,548.0 L 204.0,587.0 L 225.0,614.0"/>
    <path d="M 179.0,987.0 L 167.0,960.0 L 164.0,920.0 L 273.0,691.0"/>
    <path d="M 456.0,405.0 L 484.0,431.0 L 512.0,532.0"/>
    <path d="M 506.0,421.0 L 525.0,410.0 L 627.0,383.0 L 644.0,384.0 L 669.0,406.0 L 655.0,449.0 L 665.0,462.0"/>
    <path d="M 527.0,515.0 L 542.0,503.0 L 618.0,486.0 L 676.0,489.0"/>
    <path d="M 331.0,585.0 L 359.0,609.0 L 392.0,719.0"/>
    <path d="M 380.0,598.0 L 403.0,586.0 L 465.0,571.0 L 495.0,574.0 L 507.0,589.0 L 490.0,641.0 L 474.0,654.0"/>
    <path d="M 402.0,699.0 L 412.0,689.0 L 464.0,677.0 L 517.0,679.0"/>
    <path d="M 579.0,556.0 L 607.0,584.0 L 633.0,695.0"/>
    <path d="M 626.0,558.0 L 635.0,565.0 L 709.0,543.0 L 750.0,538.0 L 772.0,559.0 L 758.0,616.0 L 742.0,622.0"/>
    <path d="M 647.0,659.0 L 654.0,665.0 L 738.0,650.0 L 784.0,657.0"/>
    <path d="M 312.0,804.0 L 363.0,811.0 L 620.0,769.0 L 786.0,750.0 L 860.0,766.0"/>
    <path d="M 540.0,696.0 L 565.0,728.0 L 558.0,979.0 L 569.0,1052.0"/>
    <path d="M 535.0,805.0 L 468.0,882.0 L 415.0,930.0 L 371.0,961.0 L 277.0,1005.0"/>
    <path d="M 592.0,800.0 L 602.0,818.0 L 667.0,881.0 L 765.0,956.0 L 861.0,979.0 L 930.0,987.0"/>
  </g>
</svg>
