<svg xmlns="http://www.w3.org/2000/svg" viewBox="0 0 1024 1024">
  <g style="fill:none;stroke:#000000;stroke-width:50;stroke-linecap:round;stroke-linejoin:round;" transform="scale(1, 1) translate(0, 0)">
    <path d="M 368.0,220.0 L 387.0,229.0 L 406.0,248.0 L 436.0,401.0"/>
    <path d="M 186.0,312.0 L 215.0,326.0 L 256.0,333.0 L 503.0,292.0"/>
    <path d="M 618.0,161.0 L 632.0,169.0 L 652.0,201.0 L 618.0,312.0 L 578.0,405.0"/>
    <path d="M 567.0,285.0 L 601.0,293.0 L 780.0,274.0 L 825.0,282.0 L 842.0,294.0"/>
    <path d="M 298.0,382.0 L 313.0,413.0 L 298.0,440.0 L 242.0,500.0 L 174.0,549.0"/>
    <path d="M 298.0,476.0 L 366.0,464.0 L 411.0,473.0 L 404.0,491.0 L 362.0,541.0 L 333.0,568.0 L 326.0,568.0"/>
    <path d="M 148.0,600.0 L 174.0,621.0 L 182.0,640.0 L 224.0,818.0"/>
    <path d="M 204.0,623.0 L 226.0,608.0 L 328.0,590.0 L 375.0,575.0 L 411.0,574.0 L 438.0,585.0 L 454.0,606.0 L 404.0,778.0 L 407.0,793.0"/>
    <path d="M 250.0,696.0 L 338.0,676.0 L 369.0,679.0"/>
    <path d="M 292.0,612.0 L 311.0,628.0 L 309.0,737.0 L 296.0,758.0"/>
    <path d="M 244.0,795.0 L 258.0,785.0 L 379.0,759.0"/>
    <path d="M 156.0,857.0 L 149.0,917.0 L 119.0,1013.0"/>
    <path d="M 235.0,870.0 L 255.0,914.0 L 262.0,950.0"/>
    <path d="M 310.0,856.0 L 339.0,900.0 L 347.0,923.0"/>
    <path d="M 399.0,850.0 L 430.0,880.0 L 448.0,912.0"/>
    <path d="M 534.0,446.0 L 589.0,507.0 L 595.0,522.0"/>
    <path d="M 739.0,393.0 L 753.0,406.0 L 761.0,425.0 L 679.0,534.0"/>
    <path d="M 532.0,602.0 L 587.0,607.0 L 759.0,569.0 L 798.0,571.0"/>
    <path d="M 533.0,713.0 L 592.0,717.0 L 711.0,690.0 L 772.0,687.0"/>
    <path d="M 460.0,832.0 L 511.0,840.0 L 832.0,797.0 L 867.0,801.0 L 905.0,814.0"/>
    <path d="M 617.0,625.0 L 655.0,648.0 L 647.0,1103.0"/>
  </g>
</svg>
