<svg xmlns="http://www.w3.org/2000/svg" viewBox="0 0 1024 1024">
  <g style="fill:none;stroke:#000000;stroke-width:50;stroke-linecap:round;stroke-linejoin:round;" transform="scale(1, 1) translate(0, 0)">
    <path d="M 348.0,212.0 L 387.0,235.0 L 419.0,363.0"/>
    <path d="M 184.0,302.0 L 242.0,318.0 L 459.0,268.0"/>
    <path d="M 585.0,180.0 L 599.0,187.0 L 617.0,217.0 L 590.0,311.0 L 555.0,396.0"/>
    <path d="M 546.0,282.0 L 608.0,289.0 L 732.0,271.0 L 769.0,273.0 L 816.0,288.0"/>
    <path d="M 308.0,397.0 L 326.0,417.0 L 334.0,442.0 L 285.0,522.0 L 179.0,654.0 L 111.0,720.0 L 76.0,743.0"/>
    <path d="M 350.0,480.0 L 367.0,479.0 L 436.0,515.0 L 478.0,545.0 L 499.0,575.0"/>
    <path d="M 267.0,623.0 L 308.0,626.0 L 387.0,604.0 L 436.0,601.0"/>
    <path d="M 166.0,712.0 L 184.0,726.0 L 189.0,739.0 L 209.0,860.0"/>
    <path d="M 206.0,727.0 L 258.0,707.0 L 289.0,711.0 L 300.0,722.0 L 298.0,733.0 L 286.0,777.0 L 271.0,785.0"/>
    <path d="M 223.0,822.0 L 269.0,807.0 L 309.0,811.0"/>
    <path d="M 342.0,684.0 L 363.0,709.0 L 382.0,832.0"/>
    <path d="M 386.0,703.0 L 397.0,694.0 L 439.0,684.0 L 457.0,682.0 L 470.0,688.0 L 480.0,699.0 L 479.0,711.0 L 468.0,756.0 L 452.0,768.0"/>
    <path d="M 396.0,807.0 L 445.0,789.0 L 493.0,791.0"/>
    <path d="M 232.0,862.0 L 247.0,887.0 L 220.0,934.0 L 155.0,1001.0 L 135.0,1016.0 L 122.0,1016.0 L 118.0,1026.0"/>
    <path d="M 249.0,938.0 L 261.0,940.0 L 285.0,962.0 L 301.0,994.0"/>
    <path d="M 400.0,848.0 L 419.0,869.0 L 397.0,925.0 L 368.0,969.0 L 330.0,1011.0 L 311.0,1022.0 L 311.0,1028.0"/>
    <path d="M 428.0,917.0 L 465.0,946.0 L 485.0,979.0"/>
    <path d="M 628.0,391.0 L 659.0,419.0 L 662.0,428.0 L 652.0,461.0 L 575.0,615.0 L 533.0,667.0"/>
    <path d="M 601.0,614.0 L 654.0,609.0 L 794.0,575.0 L 837.0,576.0"/>
    <path d="M 691.0,629.0 L 713.0,645.0 L 726.0,671.0 L 725.0,681.0 L 715.0,730.0 L 666.0,859.0 L 630.0,911.0 L 583.0,956.0 L 526.0,992.0 L 478.0,1011.0"/>
    <path d="M 563.0,737.0 L 593.0,750.0 L 707.0,896.0 L 789.0,977.0 L 853.0,997.0 L 921.0,1007.0"/>
  </g>
</svg>
