<svg xmlns="http://www.w3.org/2000/svg" viewBox="0 0 1024 1024">
  <g style="fill:none;stroke:#000000;stroke-width:50;stroke-linecap:round;stroke-linejoin:round;" transform="scale(1, 1) translate(0, 0)">
    <path d="M 333.0,211.0 L 357.0,221.0 L 378.0,240.0 L 415.0,389.0"/>
    <path d="M 177.0,314.0 L 241.0,327.0 L 466.0,279.0"/>
    <path d="M 583.0,163.0 L 607.0,200.0 L 576.0,289.0 L 531.0,385.0"/>
    <path d="M 554.0,266.0 L 603.0,274.0 L 740.0,259.0 L 780.0,264.0 L 809.0,276.0"/>
    <path d="M 291.0,366.0 L 337.0,397.0 L 348.0,416.0"/>
    <path d="M 204.0,479.0 L 260.0,483.0 L 419.0,442.0 L 455.0,441.0"/>
    <path d="M 250.0,512.0 L 261.0,515.0 L 276.0,557.0 L 274.0,584.0"/>
    <path d="M 378.0,481.0 L 394.0,499.0 L 376.0,538.0 L 349.0,572.0"/>
    <path d="M 81.0,628.0 L 125.0,636.0 L 380.0,585.0 L 441.0,577.0 L 471.0,582.0"/>
    <path d="M 215.0,674.0 L 230.0,689.0 L 236.0,705.0 L 237.0,792.0 L 221.0,947.0 L 200.0,1058.0"/>
    <path d="M 262.0,686.0 L 279.0,690.0 L 359.0,673.0 L 376.0,675.0 L 403.0,695.0 L 412.0,950.0 L 409.0,1017.0 L 400.0,1041.0 L 383.0,1061.0 L 304.0,1021.0"/>
    <path d="M 253.0,804.0 L 283.0,784.0 L 338.0,782.0"/>
    <path d="M 248.0,891.0 L 262.0,879.0 L 284.0,873.0 L 340.0,873.0"/>
    <path d="M 626.0,434.0 L 640.0,424.0 L 698.0,412.0 L 769.0,406.0"/>
    <path d="M 575.0,351.0 L 609.0,384.0 L 587.0,515.0 L 615.0,516.0 L 702.0,493.0 L 731.0,496.0 L 743.0,507.0 L 737.0,533.0 L 725.0,560.0 L 710.0,567.0"/>
    <path d="M 582.0,635.0 L 602.0,619.0 L 711.0,598.0 L 759.0,608.0"/>
    <path d="M 531.0,596.0 L 550.0,615.0 L 556.0,644.0 L 547.0,783.0 L 553.0,902.0 L 574.0,959.0 L 619.0,998.0 L 691.0,1022.0 L 765.0,1028.0 L 822.0,1021.0 L 889.0,993.0 L 913.0,971.0 L 924.0,832.0"/>
    <path d="M 577.0,720.0 L 595.0,712.0 L 709.0,693.0 L 733.0,694.0"/>
    <path d="M 573.0,793.0 L 619.0,799.0 L 682.0,784.0 L 733.0,782.0"/>
    <path d="M 574.0,881.0 L 589.0,887.0 L 624.0,885.0 L 714.0,866.0 L 759.0,866.0"/>
  </g>
</svg>
