<svg xmlns="http://www.w3.org/2000/svg" viewBox="0 0 1024 1024">
  <g style="fill:none;stroke:#000000;stroke-width:50;stroke-linecap:round;stroke-linejoin:round;" transform="scale(1, 1) translate(0, 0)">
    <path d="M 324.0,227.0 L 363.0,247.0 L 409.0,384.0"/>
    <path d="M 188.0,334.0 L 241.0,346.0 L 426.0,300.0"/>
    <path d="M 578.0,176.0 L 600.0,212.0 L 565.0,317.0 L 536.0,378.0"/>
    <path d="M 522.0,291.0 L 580.0,298.0 L 723.0,282.0 L 759.0,286.0 L 790.0,299.0"/>
    <path d="M 135.0,517.0 L 164.0,522.0 L 340.0,485.0 L 389.0,488.0"/>
    <path d="M 171.0,542.0 L 197.0,563.0 L 200.0,638.0 L 196.0,855.0 L 182.0,868.0"/>
    <path d="M 307.0,512.0 L 336.0,539.0 L 338.0,808.0 L 333.0,821.0 L 329.0,1008.0 L 341.0,1080.0"/>
    <path d="M 224.0,667.0 L 232.0,655.0 L 250.0,651.0 L 294.0,652.0"/>
    <path d="M 216.0,774.0 L 227.0,762.0 L 245.0,756.0 L 291.0,751.0"/>
    <path d="M 65.0,919.0 L 110.0,929.0 L 276.0,865.0 L 365.0,822.0"/>
    <path d="M 472.0,427.0 L 520.0,464.0 L 526.0,476.0"/>
    <path d="M 403.0,551.0 L 473.0,547.0 L 564.0,516.0 L 601.0,513.0"/>
    <path d="M 418.0,605.0 L 441.0,628.0 L 452.0,653.0"/>
    <path d="M 540.0,551.0 L 560.0,569.0 L 534.0,662.0 L 524.0,673.0"/>
    <path d="M 379.0,713.0 L 436.0,713.0 L 636.0,664.0 L 779.0,640.0 L 851.0,648.0"/>
    <path d="M 410.0,795.0 L 426.0,814.0 L 430.0,829.0 L 433.0,974.0"/>
    <path d="M 444.0,802.0 L 456.0,808.0 L 546.0,779.0 L 572.0,783.0 L 581.0,793.0 L 586.0,916.0 L 579.0,954.0 L 590.0,1008.0"/>
    <path d="M 455.0,887.0 L 472.0,874.0 L 502.0,870.0 L 518.0,875.0"/>
    <path d="M 448.0,966.0 L 461.0,956.0 L 483.0,951.0 L 536.0,946.0 L 544.0,954.0"/>
    <path d="M 609.0,386.0 L 624.0,391.0 L 659.0,419.0 L 670.0,561.0 L 705.0,735.0 L 743.0,848.0 L 789.0,937.0 L 854.0,1013.0 L 904.0,1037.0 L 919.0,1013.0 L 942.0,912.0"/>
    <path d="M 801.0,734.0 L 819.0,770.0 L 785.0,825.0 L 708.0,906.0 L 638.0,948.0"/>
    <path d="M 736.0,446.0 L 798.0,486.0 L 822.0,523.0"/>
  </g>
</svg>
