<svg xmlns="http://www.w3.org/2000/svg" viewBox="0 0 1024 1024">
  <g style="fill:none;stroke:#000000;stroke-width:50;stroke-linecap:round;stroke-linejoin:round;" transform="scale(1, 1) translate(0, 0)">
    <path d="M 208.0,336.0 L 282.0,343.0 L 445.0,320.0 L 740.0,293.0 L 783.0,300.0 L 807.0,312.0"/>
    <path d="M 352.0,243.0 L 370.0,252.0 L 389.0,272.0 L 413.0,410.0"/>
    <path d="M 599.0,184.0 L 612.0,191.0 L 630.0,220.0 L 596.0,328.0 L 567.0,397.0"/>
    <path d="M 169.0,499.0 L 227.0,506.0 L 415.0,467.0 L 454.0,471.0"/>
    <path d="M 141.0,621.0 L 163.0,647.0 L 170.0,689.0 L 158.0,923.0 L 161.0,980.0"/>
    <path d="M 183.0,630.0 L 196.0,637.0 L 236.0,634.0 L 389.0,602.0 L 414.0,606.0 L 434.0,623.0 L 442.0,880.0 L 433.0,931.0 L 442.0,990.0"/>
    <path d="M 239.0,525.0 L 264.0,544.0 L 266.0,639.0 L 249.0,732.0 L 213.0,798.0"/>
    <path d="M 318.0,509.0 L 345.0,529.0 L 339.0,678.0 L 346.0,725.0 L 363.0,755.0 L 405.0,751.0"/>
    <path d="M 223.0,849.0 L 325.0,829.0 L 360.0,833.0"/>
    <path d="M 183.0,953.0 L 250.0,936.0 L 376.0,920.0 L 392.0,936.0"/>
    <path d="M 589.0,420.0 L 614.0,448.0 L 613.0,464.0 L 566.0,557.0 L 527.0,617.0 L 495.0,647.0"/>
    <path d="M 560.0,600.0 L 573.0,642.0 L 571.0,772.0 L 563.0,834.0 L 568.0,871.0"/>
    <path d="M 668.0,401.0 L 743.0,438.0 L 761.0,466.0"/>
    <path d="M 620.0,546.0 L 675.0,551.0 L 779.0,529.0 L 836.0,526.0"/>
    <path d="M 628.0,650.0 L 679.0,648.0 L 775.0,629.0 L 812.0,635.0"/>
    <path d="M 628.0,738.0 L 679.0,735.0 L 760.0,718.0 L 812.0,723.0"/>
    <path d="M 690.0,576.0 L 715.0,592.0 L 716.0,605.0 L 713.0,786.0 L 699.0,806.0"/>
    <path d="M 589.0,848.0 L 631.0,835.0 L 800.0,816.0 L 870.0,828.0"/>
    <path d="M 533.0,918.0 L 517.0,981.0 L 488.0,1040.0"/>
    <path d="M 608.0,915.0 L 636.0,958.0 L 646.0,991.0"/>
    <path d="M 704.0,908.0 L 744.0,953.0 L 760.0,984.0"/>
    <path d="M 814.0,899.0 L 889.0,968.0 L 907.0,997.0 L 913.0,1024.0"/>
  </g>
</svg>
