<svg xmlns="http://www.w3.org/2000/svg" viewBox="0 0 1024 1024">
  <g style="fill:none;stroke:#000000;stroke-width:50;stroke-linecap:round;stroke-linejoin:round;" transform="scale(1, 1) translate(0, 0)">
    <path d="M 351.0,204.0 L 390.0,234.0 L 420.0,389.0"/>
    <path d="M 172.0,318.0 L 209.0,332.0 L 241.0,334.0 L 475.0,288.0"/>
    <path d="M 616.0,164.0 L 631.0,172.0 L 649.0,201.0 L 620.0,298.0 L 574.0,407.0"/>
    <path d="M 589.0,274.0 L 647.0,277.0 L 782.0,259.0 L 810.0,261.0 L 850.0,275.0"/>
    <path d="M 317.0,393.0 L 358.0,425.0 L 372.0,446.0"/>
    <path d="M 121.0,528.0 L 173.0,535.0 L 414.0,484.0 L 447.0,480.0 L 483.0,486.0"/>
    <path d="M 350.0,519.0 L 366.0,537.0 L 354.0,560.0 L 300.0,636.0 L 259.0,671.0"/>
    <path d="M 253.0,567.0 L 262.0,565.0 L 276.0,576.0 L 357.0,609.0 L 393.0,641.0"/>
    <path d="M 174.0,608.0 L 195.0,640.0 L 192.0,715.0 L 227.0,716.0 L 323.0,687.0 L 408.0,674.0 L 416.0,665.0"/>
    <path d="M 444.0,560.0 L 460.0,591.0 L 435.0,709.0"/>
    <path d="M 121.0,821.0 L 137.0,834.0 L 147.0,870.0 L 153.0,924.0 L 148.0,989.0 L 155.0,1028.0"/>
    <path d="M 162.0,824.0 L 177.0,831.0 L 388.0,789.0 L 450.0,785.0 L 475.0,791.0 L 489.0,802.0 L 492.0,830.0 L 490.0,961.0 L 481.0,1016.0 L 470.0,1031.0 L 464.0,1030.0 L 397.0,998.0"/>
    <path d="M 289.0,717.0 L 308.0,729.0 L 314.0,742.0 L 251.0,892.0 L 249.0,921.0 L 277.0,924.0 L 336.0,902.0 L 353.0,906.0"/>
    <path d="M 342.0,849.0 L 394.0,904.0 L 404.0,934.0"/>
    <path d="M 606.0,434.0 L 624.0,449.0 L 634.0,467.0 L 622.0,502.0 L 581.0,591.0 L 535.0,665.0 L 502.0,702.0"/>
    <path d="M 572.0,642.0 L 587.0,691.0 L 590.0,903.0 L 580.0,1025.0 L 587.0,1071.0"/>
    <path d="M 727.0,403.0 L 774.0,447.0 L 786.0,470.0"/>
    <path d="M 643.0,594.0 L 685.0,598.0 L 840.0,555.0 L 879.0,555.0"/>
    <path d="M 660.0,725.0 L 807.0,694.0 L 859.0,697.0"/>
    <path d="M 656.0,829.0 L 840.0,795.0 L 871.0,801.0"/>
    <path d="M 730.0,612.0 L 755.0,628.0 L 759.0,674.0 L 761.0,907.0 L 758.0,919.0 L 746.0,929.0"/>
    <path d="M 617.0,964.0 L 626.0,970.0 L 663.0,969.0 L 871.0,934.0 L 938.0,945.0"/>
  </g>
</svg>
