<svg xmlns="http://www.w3.org/2000/svg" viewBox="0 0 1024 1024">
  <g style="fill:none;stroke:#000000;stroke-width:50;stroke-linecap:round;stroke-linejoin:round;" transform="scale(1, 1) translate(0, 0)">
    <path d="M 480.0,183.0 L 519.0,217.0 L 514.0,353.0 L 498.0,376.0"/>
    <path d="M 548.0,283.0 L 561.0,275.0 L 604.0,271.0 L 675.0,253.0 L 720.0,253.0"/>
    <path d="M 325.0,437.0 L 343.0,419.0 L 364.0,415.0 L 710.0,366.0 L 750.0,369.0 L 778.0,397.0 L 751.0,432.0 L 701.0,480.0"/>
    <path d="M 251.0,383.0 L 286.0,421.0 L 289.0,446.0 L 277.0,580.0 L 245.0,733.0 L 216.0,817.0 L 169.0,916.0 L 113.0,1000.0 L 77.0,1038.0"/>
    <path d="M 351.0,569.0 L 387.0,573.0 L 426.0,567.0 L 608.0,528.0 L 645.0,532.0"/>
    <path d="M 462.0,440.0 L 492.0,479.0 L 484.0,586.0 L 488.0,618.0 L 503.0,644.0 L 523.0,656.0 L 579.0,663.0 L 618.0,661.0 L 665.0,652.0 L 704.0,636.0 L 709.0,619.0 L 706.0,538.0"/>
    <path d="M 446.0,787.0 L 463.0,774.0 L 653.0,743.0 L 705.0,746.0"/>
    <path d="M 270.0,892.0 L 323.0,900.0 L 569.0,861.0 L 797.0,842.0 L 818.0,842.0 L 883.0,861.0"/>
    <path d="M 380.0,735.0 L 403.0,753.0 L 416.0,775.0 L 413.0,869.0 L 399.0,969.0 L 401.0,1005.0 L 428.0,1006.0 L 561.0,981.0 L 701.0,973.0 L 744.0,978.0 L 781.0,997.0"/>
  </g>
</svg>
