<svg xmlns="http://www.w3.org/2000/svg" viewBox="0 0 1024 1024">
  <g style="fill:none;stroke:#000000;stroke-width:50;stroke-linecap:round;stroke-linejoin:round;" transform="scale(1, 1) translate(0, 0)">
    <path d="M 477.0,186.0 L 513.0,220.0 L 509.0,344.0 L 493.0,355.0"/>
    <path d="M 544.0,279.0 L 562.0,271.0 L 672.0,254.0 L 704.0,256.0"/>
    <path d="M 306.0,429.0 L 316.0,414.0 L 335.0,408.0 L 584.0,366.0 L 715.0,350.0 L 751.0,351.0 L 774.0,361.0 L 790.0,390.0 L 706.0,455.0"/>
    <path d="M 229.0,381.0 L 258.0,405.0 L 268.0,434.0 L 266.0,535.0 L 240.0,706.0 L 208.0,815.0 L 170.0,899.0 L 136.0,955.0 L 92.0,1009.0"/>
    <path d="M 351.0,527.0 L 390.0,533.0 L 580.0,490.0 L 619.0,485.0 L 656.0,489.0"/>
    <path d="M 476.0,413.0 L 505.0,449.0 L 499.0,527.0 L 505.0,561.0 L 515.0,576.0 L 534.0,588.0 L 616.0,600.0 L 676.0,596.0 L 718.0,583.0 L 727.0,577.0 L 733.0,505.0"/>
    <path d="M 464.0,633.0 L 526.0,663.0 L 547.0,690.0"/>
    <path d="M 336.0,773.0 L 381.0,777.0 L 492.0,750.0 L 694.0,715.0 L 733.0,714.0 L 777.0,724.0"/>
    <path d="M 572.0,758.0 L 604.0,786.0 L 603.0,792.0 L 569.0,869.0 L 513.0,941.0 L 460.0,977.0 L 402.0,999.0 L 328.0,1008.0 L 280.0,1005.0"/>
    <path d="M 400.0,824.0 L 465.0,850.0 L 568.0,937.0 L 646.0,987.0 L 721.0,1025.0 L 795.0,1033.0 L 904.0,1028.0"/>
  </g>
</svg>
