<svg xmlns="http://www.w3.org/2000/svg" viewBox="0 0 1024 1024">
  <g style="fill:none;stroke:#000000;stroke-width:50;stroke-linecap:round;stroke-linejoin:round;" transform="scale(1, 1) translate(0, 0)">
    <path d="M 481.0,206.0 L 517.0,240.0 L 513.0,365.0 L 497.0,376.0"/>
    <path d="M 548.0,303.0 L 699.0,271.0 L 732.0,273.0"/>
    <path d="M 330.0,451.0 L 343.0,432.0 L 363.0,426.0 L 643.0,380.0 L 715.0,374.0 L 746.0,383.0 L 762.0,400.0 L 765.0,412.0 L 702.0,486.0"/>
    <path d="M 257.0,399.0 L 289.0,434.0 L 291.0,455.0 L 278.0,585.0 L 248.0,723.0 L 218.0,806.0 L 168.0,904.0 L 134.0,953.0 L 89.0,1002.0"/>
    <path d="M 342.0,575.0 L 388.0,578.0 L 613.0,526.0 L 672.0,527.0"/>
    <path d="M 471.0,455.0 L 496.0,484.0 L 494.0,624.0 L 512.0,661.0 L 537.0,676.0 L 572.0,686.0 L 613.0,688.0 L 676.0,678.0 L 702.0,666.0 L 723.0,648.0 L 726.0,558.0"/>
    <path d="M 328.0,816.0 L 316.0,875.0 L 269.0,985.0"/>
    <path d="M 410.0,817.0 L 452.0,910.0 L 491.0,948.0 L 559.0,980.0 L 661.0,997.0 L 712.0,994.0 L 752.0,972.0 L 735.0,919.0 L 696.0,842.0"/>
    <path d="M 509.0,759.0 L 581.0,816.0 L 600.0,844.0"/>
    <path d="M 734.0,750.0 L 821.0,799.0 L 850.0,822.0 L 881.0,874.0"/>
  </g>
</svg>
