<svg xmlns="http://www.w3.org/2000/svg" viewBox="0 0 1024 1024">
  <g style="fill:none;stroke:#000000;stroke-width:50;stroke-linecap:round;stroke-linejoin:round;" transform="scale(1, 1) translate(0, 0)">
    <path d="M 477.0,170.0 L 513.0,204.0 L 509.0,321.0 L 494.0,332.0"/>
    <path d="M 543.0,269.0 L 557.0,260.0 L 669.0,243.0 L 712.0,244.0"/>
    <path d="M 315.0,381.0 L 338.0,393.0 L 456.0,365.0 L 508.0,360.0 L 646.0,331.0 L 710.0,326.0 L 739.0,331.0 L 762.0,351.0 L 765.0,365.0 L 703.0,435.0"/>
    <path d="M 244.0,363.0 L 278.0,396.0 L 283.0,416.0 L 270.0,576.0 L 250.0,688.0 L 218.0,797.0 L 184.0,876.0 L 132.0,961.0 L 93.0,1006.0"/>
    <path d="M 366.0,494.0 L 408.0,495.0 L 589.0,447.0 L 630.0,447.0"/>
    <path d="M 459.0,389.0 L 485.0,413.0 L 484.0,492.0 L 491.0,527.0 L 504.0,543.0 L 535.0,555.0 L 605.0,555.0 L 635.0,548.0 L 671.0,530.0 L 682.0,517.0 L 674.0,453.0 L 678.0,438.0"/>
    <path d="M 651.0,625.0 L 397.0,670.0"/>
    <path d="M 367.0,709.0 L 423.0,748.0 L 444.0,783.0"/>
    <path d="M 728.0,638.0 L 741.0,674.0 L 647.0,752.0"/>
    <path d="M 277.0,860.0 L 332.0,867.0 L 467.0,842.0 L 791.0,803.0 L 867.0,820.0"/>
    <path d="M 510.0,662.0 L 538.0,676.0 L 552.0,692.0 L 563.0,739.0 L 578.0,889.0 L 578.0,943.0 L 568.0,996.0 L 543.0,1033.0 L 421.0,983.0"/>
  </g>
</svg>
