<svg xmlns="http://www.w3.org/2000/svg" viewBox="0 0 1024 1024">
  <g style="fill:none;stroke:#000000;stroke-width:50;stroke-linecap:round;stroke-linejoin:round;" transform="scale(1, 1) translate(0, 0)">
    <path d="M 167.0,274.0 L 192.0,292.0 L 201.0,307.0 L 236.0,437.0"/>
    <path d="M 224.0,274.0 L 234.0,281.0 L 326.0,254.0 L 343.0,252.0 L 357.0,258.0 L 377.0,279.0 L 375.0,287.0 L 356.0,343.0 L 330.0,360.0"/>
    <path d="M 253.0,414.0 L 263.0,403.0 L 325.0,385.0 L 381.0,388.0"/>
    <path d="M 70.0,571.0 L 87.0,576.0 L 131.0,573.0 L 317.0,512.0 L 344.0,506.0 L 376.0,508.0"/>
    <path d="M 186.0,587.0 L 200.0,594.0 L 207.0,610.0 L 185.0,687.0 L 221.0,689.0 L 276.0,675.0 L 306.0,682.0 L 324.0,702.0 L 294.0,847.0 L 261.0,918.0 L 227.0,943.0 L 155.0,896.0"/>
    <path d="M 601.0,178.0 L 641.0,215.0 L 637.0,355.0 L 620.0,370.0"/>
    <path d="M 677.0,262.0 L 749.0,240.0 L 801.0,236.0"/>
    <path d="M 476.0,417.0 L 498.0,427.0 L 750.0,361.0 L 810.0,351.0 L 827.0,359.0 L 842.0,377.0 L 787.0,445.0"/>
    <path d="M 414.0,404.0 L 443.0,433.0 L 449.0,463.0 L 441.0,615.0 L 424.0,724.0 L 407.0,796.0 L 382.0,866.0 L 343.0,944.0 L 287.0,1023.0"/>
    <path d="M 511.0,550.0 L 573.0,549.0 L 702.0,508.0 L 733.0,507.0"/>
    <path d="M 582.0,440.0 L 604.0,466.0 L 605.0,587.0 L 613.0,610.0 L 636.0,632.0 L 694.0,645.0 L 739.0,639.0 L 767.0,627.0 L 785.0,610.0 L 779.0,533.0"/>
    <path d="M 532.0,732.0 L 550.0,745.0 L 563.0,765.0 L 554.0,825.0 L 537.0,884.0 L 517.0,919.0 L 481.0,960.0 L 409.0,1005.0"/>
    <path d="M 660.0,711.0 L 688.0,747.0 L 679.0,873.0 L 686.0,948.0 L 694.0,968.0 L 723.0,991.0 L 767.0,1004.0 L 826.0,1007.0 L 881.0,999.0 L 921.0,978.0 L 933.0,962.0 L 944.0,836.0"/>
  </g>
</svg>
