<svg xmlns="http://www.w3.org/2000/svg" viewBox="0 0 1024 1024">
  <g style="fill:none;stroke:#000000;stroke-width:50;stroke-linecap:round;stroke-linejoin:round;" transform="scale(1, 1) translate(0, 0)">
    <path d="M 309.0,239.0 L 350.0,272.0 L 348.0,400.0 L 334.0,422.0"/>
    <path d="M 380.0,349.0 L 391.0,336.0 L 433.0,324.0 L 479.0,318.0 L 503.0,323.0"/>
    <path d="M 210.0,459.0 L 230.0,469.0 L 439.0,417.0 L 487.0,412.0 L 519.0,435.0 L 462.0,517.0"/>
    <path d="M 152.0,449.0 L 179.0,474.0 L 186.0,494.0 L 182.0,642.0 L 170.0,739.0 L 141.0,851.0 L 106.0,933.0 L 39.0,1035.0"/>
    <path d="M 249.0,585.0 L 315.0,570.0 L 381.0,543.0 L 428.0,539.0"/>
    <path d="M 318.0,477.0 L 334.0,495.0 L 339.0,511.0 L 333.0,563.0 L 337.0,619.0 L 346.0,630.0 L 378.0,643.0 L 437.0,642.0 L 482.0,622.0 L 487.0,617.0 L 493.0,539.0"/>
    <path d="M 245.0,725.0 L 262.0,742.0 L 272.0,769.0 L 274.0,959.0 L 286.0,968.0"/>
    <path d="M 279.0,726.0 L 298.0,734.0 L 422.0,703.0 L 446.0,724.0 L 451.0,736.0 L 438.0,922.0 L 421.0,933.0"/>
    <path d="M 300.0,827.0 L 309.0,815.0 L 357.0,808.0 L 377.0,812.0"/>
    <path d="M 300.0,904.0 L 308.0,893.0 L 328.0,887.0 L 362.0,883.0 L 381.0,888.0"/>
    <path d="M 168.0,999.0 L 214.0,1006.0 L 454.0,964.0 L 495.0,970.0"/>
  </g>
</svg>
