<svg xmlns="http://www.w3.org/2000/svg" viewBox="0 0 1024 1024">
  <g style="fill:none;stroke:#000000;stroke-width:50;stroke-linecap:round;stroke-linejoin:round;" transform="scale(1, 1) translate(0, 0)">
    <path d="M 94.0,518.0 L 118.0,536.0 L 130.0,555.0 L 171.0,721.0"/>
    <path d="M 147.0,518.0 L 175.0,526.0 L 368.0,478.0 L 393.0,481.0 L 426.0,511.0 L 397.0,601.0 L 372.0,616.0"/>
    <path d="M 190.0,694.0 L 204.0,680.0 L 353.0,646.0 L 424.0,648.0"/>
    <path d="M 221.0,278.0 L 274.0,321.0 L 276.0,348.0 L 270.0,786.0 L 269.0,805.0 L 251.0,828.0"/>
    <path d="M 79.0,884.0 L 135.0,901.0 L 375.0,813.0 L 399.0,813.0"/>
    <path d="M 379.0,733.0 L 449.0,824.0 L 463.0,876.0"/>
    <path d="M 474.0,431.0 L 528.0,436.0 L 739.0,392.0 L 867.0,373.0 L 959.0,386.0"/>
    <path d="M 678.0,432.0 L 704.0,449.0 L 719.0,473.0 L 724.0,908.0 L 720.0,936.0 L 712.0,960.0 L 697.0,979.0 L 652.0,964.0 L 572.0,918.0"/>
  </g>
</svg>
