<svg xmlns="http://www.w3.org/2000/svg" viewBox="0 0 1024 1024">
  <g style="fill:none;stroke:#000000;stroke-width:50;stroke-linecap:round;stroke-linejoin:round;" transform="scale(1, 1) translate(0, 0)">
    <path d="M 271.0,343.0 L 316.0,346.0 L 574.0,293.0 L 637.0,283.0 L 687.0,284.0 L 705.0,307.0 L 682.0,422.0 L 676.0,503.0 L 679.0,629.0 L 694.0,723.0 L 728.0,825.0 L 764.0,886.0 L 809.0,935.0 L 856.0,966.0 L 899.0,977.0 L 920.0,929.0 L 941.0,806.0"/>
    <path d="M 541.0,433.0 L 524.0,425.0 L 480.0,420.0 L 381.0,472.0 L 322.0,495.0 L 308.0,494.0 L 299.0,503.0 L 285.0,501.0 L 280.0,508.0 L 261.0,509.0 L 248.0,517.0 L 234.0,514.0 L 224.0,522.0"/>
    <path d="M 196.0,635.0 L 219.0,651.0 L 231.0,670.0 L 267.0,798.0"/>
    <path d="M 245.0,633.0 L 266.0,642.0 L 349.0,627.0 L 487.0,590.0 L 509.0,591.0 L 541.0,623.0 L 520.0,690.0 L 502.0,697.0"/>
    <path d="M 283.0,761.0 L 292.0,767.0 L 322.0,764.0 L 489.0,730.0 L 546.0,735.0"/>
    <path d="M 349.0,505.0 L 372.0,518.0 L 384.0,549.0 L 382.0,845.0 L 365.0,870.0"/>
    <path d="M 153.0,924.0 L 205.0,946.0 L 506.0,857.0 L 518.0,861.0"/>
    <path d="M 493.0,794.0 L 587.0,894.0 L 605.0,922.0 L 617.0,968.0"/>
  </g>
</svg>
