<svg xmlns="http://www.w3.org/2000/svg" viewBox="0 0 1024 1024">
  <g style="fill:none;stroke:#000000;stroke-width:50;stroke-linecap:round;stroke-linejoin:round;" transform="scale(1, 1) translate(0, 0)">
    <path d="M 118.0,521.0 L 151.0,560.0 L 184.0,721.0"/>
    <path d="M 163.0,521.0 L 185.0,530.0 L 207.0,527.0 L 390.0,483.0 L 420.0,484.0 L 439.0,494.0 L 458.0,515.0 L 424.0,610.0 L 403.0,623.0"/>
    <path d="M 204.0,696.0 L 218.0,685.0 L 393.0,650.0 L 446.0,656.0"/>
    <path d="M 254.0,267.0 L 305.0,308.0 L 307.0,334.0 L 294.0,790.0 L 273.0,819.0"/>
    <path d="M 99.0,879.0 L 152.0,895.0 L 403.0,799.0 L 411.0,802.0"/>
    <path d="M 398.0,732.0 L 468.0,831.0 L 473.0,868.0"/>
    <path d="M 540.0,231.0 L 568.0,247.0 L 594.0,283.0 L 579.0,488.0 L 576.0,709.0 L 585.0,816.0 L 595.0,854.0 L 610.0,879.0 L 660.0,918.0 L 720.0,933.0 L 819.0,935.0 L 894.0,916.0 L 918.0,894.0 L 920.0,713.0"/>
  </g>
</svg>
