<svg xmlns="http://www.w3.org/2000/svg" viewBox="0 0 1024 1024">
  <g style="fill:none;stroke:#000000;stroke-width:50;stroke-linecap:round;stroke-linejoin:round;" transform="scale(1, 1) translate(0, 0)">
    <path d="M 130.0,385.0 L 153.0,391.0 L 206.0,389.0 L 433.0,337.0 L 479.0,340.0"/>
    <path d="M 211.0,415.0 L 241.0,437.0 L 246.0,451.0 L 228.0,562.0 L 207.0,640.0 L 173.0,732.0 L 135.0,801.0 L 87.0,867.0 L 50.0,902.0"/>
    <path d="M 333.0,394.0 L 360.0,409.0 L 369.0,423.0 L 356.0,668.0 L 365.0,830.0 L 378.0,880.0 L 393.0,908.0 L 410.0,926.0 L 443.0,946.0 L 527.0,971.0 L 643.0,979.0 L 738.0,971.0 L 789.0,960.0 L 863.0,933.0 L 921.0,888.0 L 928.0,704.0"/>
    <path d="M 463.0,473.0 L 497.0,509.0 L 528.0,650.0"/>
    <path d="M 509.0,472.0 L 529.0,481.0 L 666.0,455.0 L 735.0,435.0 L 754.0,433.0 L 773.0,440.0 L 801.0,466.0 L 772.0,542.0 L 742.0,566.0"/>
    <path d="M 546.0,635.0 L 564.0,620.0 L 716.0,594.0 L 791.0,587.0 L 811.0,596.0"/>
    <path d="M 592.0,233.0 L 632.0,262.0 L 643.0,279.0 L 634.0,719.0 L 616.0,741.0"/>
    <path d="M 459.0,771.0 L 507.0,794.0 L 735.0,744.0 L 772.0,743.0"/>
    <path d="M 750.0,671.0 L 811.0,739.0 L 822.0,783.0"/>
  </g>
</svg>
