<svg xmlns="http://www.w3.org/2000/svg" viewBox="0 0 1024 1024">
  <g style="fill:none;stroke:#000000;stroke-width:50;stroke-linecap:round;stroke-linejoin:round;" transform="scale(1, 1) translate(0, 0)">
    <path d="M 203.0,315.0 L 258.0,325.0 L 451.0,297.0 L 775.0,268.0 L 862.0,289.0"/>
    <path d="M 483.0,427.0 L 518.0,405.0 L 619.0,392.0 L 652.0,396.0 L 675.0,420.0 L 650.0,498.0 L 637.0,526.0 L 616.0,549.0 L 606.0,550.0 L 527.0,504.0"/>
    <path d="M 461.0,327.0 L 487.0,353.0 L 444.0,441.0 L 390.0,514.0 L 335.0,566.0 L 275.0,609.0 L 161.0,665.0"/>
    <path d="M 267.0,689.0 L 297.0,714.0 L 305.0,731.0 L 336.0,880.0"/>
    <path d="M 328.0,694.0 L 338.0,703.0 L 362.0,705.0 L 682.0,660.0 L 702.0,670.0 L 724.0,698.0 L 692.0,764.0 L 663.0,780.0"/>
    <path d="M 356.0,835.0 L 365.0,845.0 L 379.0,844.0 L 647.0,807.0 L 718.0,815.0"/>
    <path d="M 462.0,581.0 L 501.0,609.0 L 511.0,626.0 L 508.0,921.0 L 492.0,938.0"/>
    <path d="M 227.0,980.0 L 284.0,1006.0 L 658.0,933.0 L 687.0,935.0"/>
    <path d="M 666.0,874.0 L 765.0,983.0 L 786.0,1038.0"/>
  </g>
</svg>
