<svg xmlns="http://www.w3.org/2000/svg" viewBox="0 0 1024 1024">
  <g style="fill:none;stroke:#000000;stroke-width:50;stroke-linecap:round;stroke-linejoin:round;" transform="scale(1, 1) translate(0, 0)">
    <path d="M 295.0,224.0 L 322.0,248.0 L 334.0,269.0 L 305.0,341.0 L 195.0,536.0 L 133.0,623.0 L 74.0,686.0"/>
    <path d="M 276.0,455.0 L 396.0,426.0 L 432.0,436.0 L 388.0,528.0 L 357.0,573.0"/>
    <path d="M 252.0,575.0 L 280.0,604.0 L 287.0,621.0 L 290.0,715.0 L 275.0,865.0 L 279.0,899.0 L 316.0,891.0 L 426.0,815.0"/>
    <path d="M 474.0,534.0 L 499.0,555.0 L 509.0,573.0 L 548.0,754.0"/>
    <path d="M 525.0,535.0 L 549.0,545.0 L 783.0,491.0 L 803.0,490.0 L 818.0,497.0 L 844.0,525.0 L 841.0,536.0 L 803.0,636.0 L 775.0,652.0"/>
    <path d="M 563.0,728.0 L 584.0,716.0 L 761.0,680.0 L 811.0,679.0 L 830.0,685.0"/>
    <path d="M 622.0,236.0 L 674.0,276.0 L 677.0,318.0 L 666.0,847.0 L 648.0,875.0"/>
    <path d="M 455.0,928.0 L 510.0,948.0 L 823.0,854.0 L 836.0,859.0"/>
    <path d="M 811.0,775.0 L 898.0,886.0 L 910.0,923.0 L 909.0,949.0"/>
  </g>
</svg>
