<svg xmlns="http://www.w3.org/2000/svg" viewBox="0 0 1024 1024">
  <g style="fill:none;stroke:#000000;stroke-width:50;stroke-linecap:round;stroke-linejoin:round;" transform="scale(1, 1) translate(0, 0)">
    <path d="M 87.0,541.0 L 114.0,563.0 L 120.0,576.0 L 156.0,729.0"/>
    <path d="M 141.0,545.0 L 160.0,551.0 L 329.0,504.0 L 351.0,505.0 L 383.0,533.0 L 360.0,611.0 L 340.0,621.0"/>
    <path d="M 172.0,694.0 L 182.0,687.0 L 337.0,651.0 L 388.0,654.0"/>
    <path d="M 202.0,292.0 L 250.0,331.0 L 253.0,363.0 L 245.0,788.0 L 228.0,809.0"/>
    <path d="M 67.0,870.0 L 120.0,885.0 L 331.0,794.0 L 349.0,794.0"/>
    <path d="M 340.0,731.0 L 379.0,788.0 L 388.0,822.0"/>
    <path d="M 503.0,643.0 L 514.0,634.0 L 569.0,619.0 L 622.0,617.0"/>
    <path d="M 427.0,428.0 L 468.0,460.0 L 476.0,521.0 L 480.0,609.0 L 467.0,838.0 L 472.0,865.0 L 512.0,859.0 L 611.0,801.0"/>
    <path d="M 822.0,473.0 L 832.0,485.0 L 840.0,517.0 L 727.0,599.0 L 708.0,616.0 L 706.0,626.0"/>
    <path d="M 637.0,287.0 L 658.0,296.0 L 690.0,338.0 L 676.0,486.0 L 673.0,721.0 L 683.0,844.0 L 701.0,896.0 L 730.0,919.0 L 809.0,934.0 L 865.0,927.0 L 909.0,907.0 L 915.0,902.0 L 930.0,758.0"/>
  </g>
</svg>
