<svg xmlns="http://www.w3.org/2000/svg" viewBox="0 0 1024 1024">
  <g style="fill:none;stroke:#000000;stroke-width:50;stroke-linecap:round;stroke-linejoin:round;" transform="scale(1, 1) translate(0, 0)">
    <path d="M 104.0,503.0 L 130.0,522.0 L 139.0,538.0 L 179.0,686.0"/>
    <path d="M 156.0,501.0 L 174.0,509.0 L 241.0,499.0 L 354.0,468.0 L 392.0,472.0 L 414.0,495.0 L 386.0,578.0 L 366.0,592.0"/>
    <path d="M 196.0,663.0 L 206.0,654.0 L 343.0,621.0 L 392.0,618.0 L 414.0,623.0"/>
    <path d="M 231.0,273.0 L 278.0,311.0 L 280.0,322.0 L 272.0,731.0 L 269.0,769.0 L 253.0,788.0"/>
    <path d="M 83.0,847.0 L 139.0,863.0 L 328.0,789.0 L 363.0,777.0 L 373.0,781.0"/>
    <path d="M 358.0,715.0 L 415.0,786.0 L 429.0,821.0 L 429.0,836.0"/>
    <path d="M 532.0,415.0 L 598.0,416.0 L 732.0,382.0 L 770.0,385.0"/>
    <path d="M 457.0,608.0 L 517.0,608.0 L 612.0,581.0 L 803.0,545.0 L 846.0,544.0 L 890.0,553.0"/>
    <path d="M 536.0,668.0 L 568.0,706.0 L 546.0,805.0 L 524.0,858.0 L 494.0,901.0 L 463.0,930.0 L 412.0,965.0 L 377.0,979.0"/>
    <path d="M 670.0,600.0 L 695.0,614.0 L 704.0,630.0 L 694.0,746.0 L 692.0,869.0 L 703.0,929.0 L 720.0,954.0 L 769.0,975.0 L 813.0,979.0 L 875.0,971.0 L 904.0,957.0 L 920.0,944.0 L 924.0,931.0 L 936.0,816.0"/>
  </g>
</svg>
