<svg xmlns="http://www.w3.org/2000/svg" viewBox="0 0 1024 1024">
  <g style="fill:none;stroke:#000000;stroke-width:50;stroke-linecap:round;stroke-linejoin:round;" transform="scale(1, 1) translate(0, 0)">
    <path d="M 327.0,281.0 L 367.0,289.0 L 407.0,287.0 L 621.0,246.0 L 675.0,246.0"/>
    <path d="M 181.0,475.0 L 228.0,484.0 L 479.0,444.0 L 733.0,416.0 L 774.0,421.0 L 812.0,434.0"/>
    <path d="M 444.0,314.0 L 472.0,338.0 L 419.0,464.0 L 364.0,549.0 L 286.0,636.0 L 235.0,680.0 L 160.0,731.0 L 88.0,768.0"/>
    <path d="M 559.0,456.0 L 587.0,471.0 L 713.0,586.0 L 789.0,641.0 L 850.0,656.0 L 975.0,671.0"/>
    <path d="M 296.0,687.0 L 322.0,705.0 L 333.0,725.0 L 371.0,858.0"/>
    <path d="M 346.0,685.0 L 365.0,696.0 L 384.0,695.0 L 624.0,651.0 L 654.0,665.0 L 672.0,685.0 L 647.0,748.0 L 621.0,765.0"/>
    <path d="M 388.0,840.0 L 404.0,826.0 L 608.0,793.0 L 655.0,793.0 L 678.0,801.0"/>
    <path d="M 451.0,551.0 L 497.0,589.0 L 490.0,906.0 L 474.0,928.0"/>
    <path d="M 256.0,967.0 L 312.0,993.0 L 406.0,968.0 L 609.0,928.0 L 650.0,928.0"/>
    <path d="M 621.0,850.0 L 715.0,963.0 L 730.0,1022.0"/>
  </g>
</svg>
