<svg xmlns="http://www.w3.org/2000/svg" viewBox="0 0 1024 1024">
  <g style="fill:none;stroke:#000000;stroke-width:50;stroke-linecap:round;stroke-linejoin:round;" transform="scale(1, 1) translate(0, 0)">
    <path d="M 100.0,499.0 L 122.0,517.0 L 131.0,535.0 L 164.0,686.0"/>
    <path d="M 149.0,505.0 L 165.0,509.0 L 227.0,496.0 L 344.0,459.0 L 372.0,465.0 L 392.0,486.0 L 374.0,563.0 L 356.0,572.0"/>
    <path d="M 182.0,655.0 L 189.0,647.0 L 353.0,603.0 L 405.0,607.0"/>
    <path d="M 217.0,253.0 L 262.0,290.0 L 264.0,310.0 L 254.0,738.0 L 237.0,765.0"/>
    <path d="M 85.0,817.0 L 96.0,824.0 L 142.0,830.0 L 342.0,753.0 L 364.0,753.0"/>
    <path d="M 346.0,679.0 L 397.0,747.0 L 410.0,792.0"/>
    <path d="M 565.0,301.0 L 635.0,303.0 L 826.0,257.0 L 868.0,261.0"/>
    <path d="M 513.0,378.0 L 540.0,405.0 L 521.0,553.0 L 570.0,551.0 L 667.0,528.0 L 843.0,502.0 L 871.0,502.0 L 935.0,517.0"/>
    <path d="M 707.0,317.0 L 742.0,346.0 L 745.0,941.0 L 740.0,970.0 L 718.0,1008.0 L 662.0,983.0 L 600.0,942.0"/>
    <path d="M 708.0,549.0 L 697.0,562.0 L 686.0,604.0 L 665.0,639.0 L 608.0,718.0 L 556.0,775.0 L 459.0,861.0 L 384.0,909.0 L 344.0,926.0"/>
  </g>
</svg>
