<svg xmlns="http://www.w3.org/2000/svg" viewBox="0 0 1024 1024">
  <g style="fill:none;stroke:#000000;stroke-width:50;stroke-linecap:round;stroke-linejoin:round;" transform="scale(1, 1) translate(0, 0)">
    <path d="M 100.0,496.0 L 122.0,513.0 L 136.0,538.0 L 172.0,678.0"/>
    <path d="M 143.0,495.0 L 164.0,505.0 L 261.0,486.0 L 352.0,460.0 L 383.0,461.0 L 416.0,489.0 L 393.0,558.0 L 369.0,578.0"/>
    <path d="M 186.0,631.0 L 204.0,640.0 L 357.0,606.0 L 411.0,613.0"/>
    <path d="M 225.0,249.0 L 264.0,279.0 L 274.0,295.0 L 264.0,707.0 L 261.0,746.0 L 244.0,767.0"/>
    <path d="M 83.0,823.0 L 136.0,839.0 L 334.0,763.0 L 381.0,754.0"/>
    <path d="M 363.0,681.0 L 440.0,777.0 L 455.0,830.0"/>
    <path d="M 600.0,201.0 L 627.0,222.0 L 640.0,243.0 L 612.0,333.0 L 532.0,498.0 L 489.0,566.0 L 453.0,609.0"/>
    <path d="M 563.0,497.0 L 584.0,487.0 L 686.0,475.0 L 831.0,438.0 L 896.0,434.0"/>
    <path d="M 622.0,512.0 L 645.0,528.0 L 654.0,543.0 L 650.0,766.0 L 638.0,984.0 L 651.0,1074.0"/>
    <path d="M 683.0,652.0 L 693.0,645.0 L 737.0,642.0 L 798.0,625.0 L 861.0,622.0"/>
    <path d="M 677.0,794.0 L 689.0,802.0 L 722.0,803.0 L 839.0,783.0 L 888.0,786.0"/>
  </g>
</svg>
