<svg xmlns="http://www.w3.org/2000/svg" viewBox="0 0 1024 1024">
  <g style="fill:none;stroke:#000000;stroke-width:50;stroke-linecap:round;stroke-linejoin:round;" transform="scale(1, 1) translate(0, 0)">
    <path d="M 96.0,550.0 L 124.0,574.0 L 129.0,587.0 L 168.0,749.0"/>
    <path d="M 156.0,573.0 L 168.0,558.0 L 236.0,545.0 L 360.0,507.0 L 382.0,510.0 L 414.0,536.0 L 383.0,632.0 L 362.0,646.0"/>
    <path d="M 185.0,722.0 L 200.0,710.0 L 337.0,675.0 L 407.0,675.0"/>
    <path d="M 221.0,270.0 L 270.0,308.0 L 273.0,346.0 L 265.0,816.0 L 248.0,845.0"/>
    <path d="M 77.0,904.0 L 132.0,920.0 L 338.0,838.0 L 373.0,826.0 L 383.0,829.0"/>
    <path d="M 362.0,750.0 L 418.0,819.0 L 433.0,863.0"/>
    <path d="M 565.0,244.0 L 656.0,305.0 L 681.0,348.0"/>
    <path d="M 496.0,532.0 L 519.0,538.0 L 582.0,533.0 L 755.0,485.0 L 802.0,476.0 L 825.0,478.0"/>
    <path d="M 501.0,738.0 L 542.0,744.0 L 582.0,740.0 L 722.0,707.0 L 774.0,698.0 L 797.0,701.0"/>
    <path d="M 610.0,551.0 L 638.0,574.0 L 640.0,610.0 L 634.0,896.0 L 631.0,908.0 L 618.0,919.0"/>
    <path d="M 388.0,964.0 L 411.0,974.0 L 453.0,977.0 L 569.0,955.0 L 845.0,921.0 L 900.0,927.0 L 944.0,943.0"/>
  </g>
</svg>
