<svg xmlns="http://www.w3.org/2000/svg" viewBox="0 0 1024 1024">
  <g style="fill:none;stroke:#000000;stroke-width:50;stroke-linecap:round;stroke-linejoin:round;" transform="scale(1, 1) translate(0, 0)">
    <path d="M 250.0,315.0 L 285.0,320.0 L 634.0,264.0 L 685.0,265.0 L 713.0,292.0 L 648.0,372.0"/>
    <path d="M 469.0,315.0 L 494.0,331.0 L 502.0,348.0 L 498.0,491.0 L 513.0,516.0"/>
    <path d="M 530.0,442.0 L 544.0,430.0 L 605.0,418.0 L 641.0,416.0 L 666.0,422.0"/>
    <path d="M 304.0,385.0 L 330.0,425.0 L 287.0,513.0 L 227.0,591.0 L 183.0,632.0 L 128.0,670.0"/>
    <path d="M 362.0,462.0 L 364.0,471.0 L 496.0,535.0 L 623.0,584.0 L 741.0,620.0 L 791.0,622.0 L 920.0,600.0"/>
    <path d="M 279.0,700.0 L 305.0,717.0 L 317.0,736.0 L 359.0,873.0"/>
    <path d="M 334.0,699.0 L 353.0,710.0 L 523.0,688.0 L 595.0,672.0 L 620.0,670.0 L 642.0,676.0 L 668.0,704.0 L 638.0,769.0 L 613.0,779.0"/>
    <path d="M 376.0,852.0 L 385.0,840.0 L 610.0,810.0 L 652.0,811.0 L 670.0,820.0"/>
    <path d="M 447.0,599.0 L 493.0,637.0 L 486.0,918.0 L 470.0,940.0"/>
    <path d="M 217.0,987.0 L 274.0,1011.0 L 651.0,931.0 L 670.0,934.0"/>
    <path d="M 634.0,861.0 L 743.0,979.0 L 766.0,1013.0 L 777.0,1056.0"/>
  </g>
</svg>
