<svg xmlns="http://www.w3.org/2000/svg" viewBox="0 0 1024 1024">
  <g style="fill:none;stroke:#000000;stroke-width:50;stroke-linecap:round;stroke-linejoin:round;" transform="scale(1, 1) translate(0, 0)">
    <path d="M 104.0,514.0 L 129.0,534.0 L 137.0,549.0 L 172.0,697.0"/>
    <path d="M 154.0,514.0 L 163.0,521.0 L 181.0,520.0 L 336.0,477.0 L 363.0,471.0 L 384.0,474.0 L 414.0,498.0 L 389.0,591.0 L 370.0,599.0"/>
    <path d="M 192.0,675.0 L 205.0,663.0 L 362.0,630.0 L 418.0,635.0"/>
    <path d="M 225.0,262.0 L 274.0,300.0 L 276.0,329.0 L 269.0,780.0 L 252.0,809.0"/>
    <path d="M 85.0,867.0 L 139.0,883.0 L 367.0,791.0 L 389.0,791.0"/>
    <path d="M 367.0,723.0 L 423.0,787.0 L 437.0,826.0"/>
    <path d="M 512.0,359.0 L 532.0,375.0 L 550.0,405.0 L 553.0,447.0 L 550.0,855.0 L 549.0,874.0 L 534.0,897.0"/>
    <path d="M 563.0,372.0 L 593.0,376.0 L 731.0,340.0 L 759.0,346.0 L 784.0,379.0 L 771.0,524.0 L 766.0,845.0 L 743.0,873.0"/>
    <path d="M 579.0,562.0 L 592.0,552.0 L 659.0,539.0 L 703.0,546.0"/>
    <path d="M 578.0,719.0 L 603.0,705.0 L 631.0,700.0 L 663.0,698.0 L 698.0,706.0"/>
    <path d="M 358.0,920.0 L 380.0,931.0 L 413.0,936.0 L 595.0,913.0 L 871.0,890.0 L 904.0,890.0 L 968.0,915.0"/>
  </g>
</svg>
