<svg xmlns="http://www.w3.org/2000/svg" viewBox="0 0 1024 1024">
  <g style="fill:none;stroke:#000000;stroke-width:50;stroke-linecap:round;stroke-linejoin:round;" transform="scale(1, 1) translate(0, 0)">
    <path d="M 91.0,517.0 L 119.0,540.0 L 126.0,556.0 L 160.0,705.0"/>
    <path d="M 150.0,540.0 L 168.0,527.0 L 222.0,520.0 L 320.0,492.0 L 371.0,490.0 L 398.0,515.0 L 372.0,592.0 L 351.0,611.0"/>
    <path d="M 178.0,679.0 L 192.0,667.0 L 351.0,634.0 L 388.0,633.0 L 407.0,640.0"/>
    <path d="M 212.0,281.0 L 234.0,294.0 L 262.0,320.0 L 263.0,328.0 L 253.0,781.0 L 236.0,802.0"/>
    <path d="M 70.0,856.0 L 128.0,872.0 L 358.0,788.0 L 362.0,778.0"/>
    <path d="M 357.0,723.0 L 399.0,777.0 L 416.0,813.0 L 420.0,844.0"/>
    <path d="M 476.0,323.0 L 514.0,329.0 L 555.0,326.0 L 687.0,294.0 L 712.0,299.0 L 726.0,315.0 L 668.0,446.0 L 606.0,531.0 L 533.0,592.0 L 467.0,625.0 L 444.0,629.0"/>
    <path d="M 463.0,387.0 L 514.0,408.0 L 671.0,547.0 L 770.0,609.0 L 846.0,623.0 L 963.0,626.0"/>
    <path d="M 459.0,755.0 L 482.0,763.0 L 537.0,764.0 L 725.0,731.0 L 766.0,735.0"/>
    <path d="M 575.0,642.0 L 614.0,678.0 L 603.0,894.0 L 588.0,914.0"/>
    <path d="M 379.0,951.0 L 431.0,962.0 L 532.0,947.0 L 792.0,925.0 L 848.0,932.0 L 894.0,948.0"/>
  </g>
</svg>
