<svg xmlns="http://www.w3.org/2000/svg" viewBox="0 0 1024 1024">
  <g style="fill:none;stroke:#000000;stroke-width:50;stroke-linecap:round;stroke-linejoin:round;" transform="scale(1, 1) translate(0, 0)">
    <path d="M 111.0,513.0 L 133.0,530.0 L 144.0,549.0 L 176.0,698.0"/>
    <path d="M 160.0,514.0 L 178.0,523.0 L 337.0,482.0 L 379.0,482.0 L 407.0,508.0 L 379.0,599.0 L 360.0,607.0"/>
    <path d="M 190.0,684.0 L 203.0,674.0 L 331.0,643.0 L 386.0,638.0 L 407.0,643.0"/>
    <path d="M 228.0,273.0 L 250.0,286.0 L 278.0,312.0 L 279.0,320.0 L 270.0,767.0 L 252.0,795.0"/>
    <path d="M 101.0,848.0 L 155.0,864.0 L 363.0,780.0 L 372.0,783.0"/>
    <path d="M 357.0,714.0 L 411.0,790.0 L 424.0,835.0"/>
    <path d="M 617.0,204.0 L 644.0,240.0 L 613.0,302.0 L 545.0,391.0 L 534.0,424.0 L 563.0,427.0 L 752.0,384.0 L 783.0,387.0"/>
    <path d="M 751.0,315.0 L 828.0,395.0 L 844.0,441.0"/>
    <path d="M 514.0,520.0 L 530.0,534.0 L 538.0,552.0 L 500.0,625.0 L 443.0,696.0"/>
    <path d="M 542.0,607.0 L 634.0,600.0 L 796.0,561.0 L 826.0,565.0"/>
    <path d="M 458.0,764.0 L 495.0,770.0 L 523.0,767.0 L 640.0,743.0 L 848.0,713.0 L 927.0,729.0"/>
    <path d="M 629.0,472.0 L 661.0,495.0 L 671.0,514.0 L 671.0,1068.0"/>
  </g>
</svg>
