<svg xmlns="http://www.w3.org/2000/svg" viewBox="0 0 1024 1024">
  <g style="fill:none;stroke:#000000;stroke-width:50;stroke-linecap:round;stroke-linejoin:round;" transform="scale(1, 1) translate(0, 0)">
    <path d="M 209.0,306.0 L 233.0,312.0 L 273.0,311.0 L 384.0,282.0 L 441.0,281.0"/>
    <path d="M 312.0,326.0 L 337.0,349.0 L 335.0,452.0 L 315.0,470.0"/>
    <path d="M 159.0,538.0 L 215.0,553.0 L 456.0,443.0"/>
    <path d="M 501.0,259.0 L 527.0,274.0 L 536.0,290.0 L 538.0,340.0 L 528.0,415.0 L 499.0,477.0 L 459.0,523.0 L 431.0,545.0"/>
    <path d="M 569.0,285.0 L 576.0,273.0 L 677.0,239.0 L 693.0,236.0 L 717.0,254.0 L 693.0,359.0 L 695.0,458.0 L 706.0,499.0 L 729.0,517.0 L 760.0,527.0 L 813.0,530.0 L 858.0,522.0 L 901.0,496.0 L 901.0,379.0"/>
    <path d="M 558.0,377.0 L 567.0,380.0 L 571.0,391.0 L 615.0,414.0 L 636.0,437.0"/>
    <path d="M 286.0,691.0 L 306.0,705.0 L 322.0,729.0 L 355.0,869.0"/>
    <path d="M 332.0,688.0 L 356.0,700.0 L 454.0,687.0 L 609.0,652.0 L 646.0,652.0 L 660.0,659.0 L 685.0,688.0 L 662.0,745.0 L 633.0,764.0"/>
    <path d="M 373.0,818.0 L 383.0,828.0 L 393.0,828.0 L 621.0,792.0 L 689.0,800.0"/>
    <path d="M 453.0,571.0 L 496.0,607.0 L 490.0,910.0 L 486.0,923.0 L 474.0,933.0"/>
    <path d="M 228.0,974.0 L 283.0,1001.0 L 632.0,928.0 L 662.0,929.0"/>
    <path d="M 638.0,867.0 L 731.0,979.0 L 746.0,1038.0"/>
  </g>
</svg>
