<svg xmlns="http://www.w3.org/2000/svg" viewBox="0 0 1024 1024">
  <g style="fill:none;stroke:#000000;stroke-width:50;stroke-linecap:round;stroke-linejoin:round;" transform="scale(1, 1) translate(0, 0)">
    <path d="M 91.0,509.0 L 114.0,527.0 L 127.0,550.0 L 160.0,702.0"/>
    <path d="M 141.0,510.0 L 159.0,519.0 L 180.0,517.0 L 351.0,474.0 L 373.0,475.0 L 407.0,505.0 L 382.0,591.0 L 360.0,611.0"/>
    <path d="M 174.0,680.0 L 193.0,668.0 L 318.0,642.0 L 352.0,637.0 L 403.0,644.0"/>
    <path d="M 208.0,269.0 L 249.0,299.0 L 260.0,319.0 L 257.0,782.0 L 239.0,812.0"/>
    <path d="M 67.0,875.0 L 120.0,891.0 L 319.0,806.0 L 358.0,791.0 L 367.0,794.0"/>
    <path d="M 358.0,728.0 L 410.0,800.0 L 421.0,845.0"/>
    <path d="M 491.0,353.0 L 531.0,361.0 L 573.0,359.0 L 748.0,326.0 L 807.0,319.0 L 831.0,322.0"/>
    <path d="M 609.0,384.0 L 638.0,406.0 L 643.0,417.0 L 600.0,495.0 L 549.0,559.0 L 535.0,583.0 L 533.0,603.0 L 585.0,599.0 L 756.0,550.0 L 774.0,553.0"/>
    <path d="M 732.0,479.0 L 818.0,550.0 L 839.0,591.0"/>
    <path d="M 495.0,757.0 L 505.0,762.0 L 571.0,764.0 L 746.0,729.0 L 807.0,730.0"/>
    <path d="M 619.0,610.0 L 648.0,630.0 L 655.0,663.0 L 653.0,877.0 L 633.0,898.0"/>
    <path d="M 406.0,939.0 L 458.0,949.0 L 563.0,933.0 L 854.0,907.0 L 899.0,911.0 L 942.0,926.0"/>
  </g>
</svg>
