<svg xmlns="http://www.w3.org/2000/svg" viewBox="0 0 1024 1024">
  <g style="fill:none;stroke:#000000;stroke-width:50;stroke-linecap:round;stroke-linejoin:round;" transform="scale(1, 1) translate(0, 0)">
    <path d="M 195.0,393.0 L 256.0,391.0 L 409.0,345.0 L 451.0,344.0"/>
    <path d="M 333.0,205.0 L 352.0,217.0 L 370.0,240.0 L 365.0,587.0 L 347.0,628.0 L 260.0,586.0"/>
    <path d="M 119.0,535.0 L 172.0,551.0 L 432.0,439.0"/>
    <path d="M 568.0,183.0 L 600.0,217.0 L 593.0,322.0 L 580.0,404.0 L 536.0,524.0 L 478.0,608.0"/>
    <path d="M 468.0,410.0 L 541.0,401.0 L 661.0,354.0 L 689.0,349.0 L 708.0,353.0 L 721.0,365.0 L 699.0,455.0 L 698.0,489.0 L 706.0,530.0 L 722.0,559.0 L 750.0,584.0 L 785.0,602.0 L 822.0,612.0 L 855.0,613.0 L 869.0,609.0 L 873.0,599.0 L 878.0,466.0 L 873.0,442.0"/>
    <path d="M 480.0,483.0 L 585.0,528.0 L 615.0,566.0"/>
    <path d="M 267.0,720.0 L 305.0,745.0 L 355.0,893.0"/>
    <path d="M 338.0,724.0 L 355.0,735.0 L 667.0,682.0 L 687.0,690.0 L 711.0,720.0 L 684.0,772.0 L 651.0,793.0"/>
    <path d="M 370.0,849.0 L 381.0,859.0 L 397.0,858.0 L 641.0,821.0 L 690.0,821.0 L 719.0,829.0"/>
    <path d="M 467.0,635.0 L 509.0,669.0 L 506.0,925.0 L 490.0,947.0"/>
    <path d="M 247.0,992.0 L 304.0,1016.0 L 628.0,945.0 L 687.0,939.0"/>
    <path d="M 666.0,879.0 L 765.0,993.0 L 787.0,1050.0 L 784.0,1069.0"/>
  </g>
</svg>
