<svg xmlns="http://www.w3.org/2000/svg" viewBox="0 0 1024 1024">
  <g style="fill:none;stroke:#000000;stroke-width:50;stroke-linecap:round;stroke-linejoin:round;" transform="scale(1, 1) translate(0, 0)">
    <path d="M 84.0,527.0 L 112.0,547.0 L 117.0,557.0 L 159.0,710.0"/>
    <path d="M 138.0,529.0 L 154.0,534.0 L 334.0,484.0 L 356.0,487.0 L 388.0,514.0 L 358.0,596.0 L 333.0,612.0"/>
    <path d="M 176.0,678.0 L 191.0,666.0 L 332.0,635.0 L 388.0,638.0"/>
    <path d="M 196.0,265.0 L 247.0,304.0 L 249.0,323.0 L 244.0,770.0 L 227.0,793.0"/>
    <path d="M 60.0,864.0 L 92.0,874.0 L 120.0,873.0 L 313.0,785.0 L 336.0,772.0 L 340.0,762.0"/>
    <path d="M 342.0,712.0 L 384.0,780.0 L 385.0,811.0"/>
    <path d="M 464.0,289.0 L 530.0,357.0 L 539.0,388.0"/>
    <path d="M 737.0,225.0 L 758.0,244.0 L 768.0,263.0 L 726.0,319.0 L 642.0,411.0"/>
    <path d="M 464.0,511.0 L 492.0,538.0 L 524.0,682.0"/>
    <path d="M 519.0,515.0 L 535.0,525.0 L 684.0,487.0 L 717.0,489.0 L 745.0,516.0 L 715.0,586.0 L 685.0,607.0"/>
    <path d="M 544.0,664.0 L 557.0,653.0 L 674.0,631.0 L 724.0,628.0 L 747.0,636.0"/>
    <path d="M 520.0,712.0 L 540.0,749.0 L 498.0,821.0 L 450.0,879.0 L 392.0,935.0 L 317.0,988.0 L 291.0,997.0 L 288.0,1004.0"/>
    <path d="M 637.0,665.0 L 668.0,701.0 L 658.0,848.0 L 667.0,929.0 L 685.0,957.0 L 721.0,978.0 L 770.0,989.0 L 815.0,991.0 L 884.0,979.0 L 924.0,959.0 L 940.0,943.0 L 948.0,805.0"/>
  </g>
</svg>
