<svg xmlns="http://www.w3.org/2000/svg" viewBox="0 0 1024 1024">
  <g style="fill:none;stroke:#000000;stroke-width:50;stroke-linecap:round;stroke-linejoin:round;" transform="scale(1, 1) translate(0, 0)">
    <path d="M 96.0,496.0 L 117.0,513.0 L 130.0,536.0 L 164.0,682.0"/>
    <path d="M 137.0,495.0 L 161.0,503.0 L 317.0,460.0 L 341.0,455.0 L 361.0,459.0 L 380.0,471.0 L 388.0,484.0 L 365.0,574.0 L 376.0,587.0"/>
    <path d="M 180.0,654.0 L 199.0,642.0 L 325.0,612.0 L 388.0,614.0"/>
    <path d="M 210.0,256.0 L 259.0,298.0 L 253.0,750.0 L 236.0,770.0"/>
    <path d="M 60.0,834.0 L 113.0,848.0 L 333.0,758.0 L 350.0,758.0"/>
    <path d="M 337.0,686.0 L 380.0,748.0 L 392.0,795.0"/>
    <path d="M 490.0,310.0 L 511.0,319.0 L 550.0,320.0 L 698.0,267.0 L 723.0,267.0 L 744.0,277.0 L 758.0,294.0 L 747.0,314.0 L 676.0,394.0 L 674.0,403.0 L 662.0,403.0"/>
    <path d="M 589.0,397.0 L 646.0,431.0 L 674.0,467.0"/>
    <path d="M 459.0,532.0 L 483.0,552.0 L 493.0,576.0 L 498.0,670.0 L 481.0,842.0 L 466.0,906.0 L 463.0,956.0"/>
    <path d="M 506.0,537.0 L 531.0,549.0 L 784.0,492.0 L 810.0,503.0 L 830.0,526.0 L 838.0,843.0 L 834.0,945.0 L 822.0,975.0 L 776.0,968.0 L 710.0,947.0"/>
    <path d="M 551.0,675.0 L 610.0,674.0 L 711.0,639.0 L 752.0,638.0"/>
    <path d="M 542.0,780.0 L 602.0,779.0 L 719.0,745.0 L 760.0,741.0"/>
    <path d="M 613.0,551.0 L 647.0,574.0 L 639.0,995.0"/>
  </g>
</svg>
