<svg xmlns="http://www.w3.org/2000/svg" viewBox="0 0 1024 1024">
  <g style="fill:none;stroke:#000000;stroke-width:50;stroke-linecap:round;stroke-linejoin:round;" transform="scale(1, 1) translate(0, 0)">
    <path d="M 76.0,465.0 L 107.0,501.0 L 133.0,641.0"/>
    <path d="M 122.0,466.0 L 146.0,474.0 L 300.0,434.0 L 341.0,435.0 L 369.0,462.0 L 345.0,531.0 L 322.0,548.0"/>
    <path d="M 146.0,623.0 L 168.0,609.0 L 321.0,571.0 L 372.0,574.0"/>
    <path d="M 193.0,245.0 L 242.0,286.0 L 244.0,305.0 L 230.0,711.0 L 212.0,741.0"/>
    <path d="M 56.0,799.0 L 111.0,814.0 L 305.0,730.0 L 326.0,729.0"/>
    <path d="M 318.0,672.0 L 366.0,738.0 L 369.0,767.0"/>
    <path d="M 548.0,175.0 L 572.0,207.0 L 550.0,266.0 L 508.0,339.0 L 472.0,381.0 L 425.0,422.0"/>
    <path d="M 569.0,289.0 L 673.0,272.0 L 703.0,278.0 L 712.0,287.0 L 702.0,311.0 L 659.0,372.0 L 579.0,466.0 L 458.0,571.0 L 369.0,625.0"/>
    <path d="M 508.0,368.0 L 518.0,369.0 L 635.0,452.0 L 765.0,524.0 L 803.0,539.0 L 850.0,552.0 L 992.0,549.0"/>
    <path d="M 457.0,634.0 L 475.0,639.0 L 533.0,637.0 L 687.0,601.0 L 743.0,598.0"/>
    <path d="M 457.0,729.0 L 478.0,734.0 L 537.0,731.0 L 678.0,698.0 L 736.0,695.0"/>
    <path d="M 346.0,848.0 L 402.0,855.0 L 554.0,830.0 L 799.0,803.0 L 876.0,821.0"/>
    <path d="M 562.0,539.0 L 593.0,562.0 L 602.0,573.0 L 603.0,587.0 L 595.0,1101.0"/>
  </g>
</svg>
