<svg xmlns="http://www.w3.org/2000/svg" viewBox="0 0 1024 1024">
  <g style="fill:none;stroke:#000000;stroke-width:50;stroke-linecap:round;stroke-linejoin:round;" transform="scale(1, 1) translate(0, 0)">
    <path d="M 92.0,502.0 L 112.0,517.0 L 125.0,537.0 L 160.0,681.0"/>
    <path d="M 140.0,500.0 L 160.0,510.0 L 227.0,499.0 L 343.0,467.0 L 373.0,468.0 L 393.0,481.0 L 403.0,496.0 L 379.0,573.0 L 359.0,583.0"/>
    <path d="M 174.0,655.0 L 186.0,646.0 L 350.0,615.0 L 387.0,613.0 L 411.0,620.0"/>
    <path d="M 216.0,261.0 L 266.0,300.0 L 268.0,327.0 L 259.0,742.0 L 257.0,765.0 L 240.0,786.0"/>
    <path d="M 69.0,844.0 L 127.0,859.0 L 345.0,774.0 L 364.0,775.0"/>
    <path d="M 352.0,707.0 L 396.0,771.0 L 408.0,803.0 L 408.0,820.0"/>
    <path d="M 496.0,293.0 L 521.0,315.0 L 531.0,341.0 L 557.0,489.0"/>
    <path d="M 555.0,316.0 L 573.0,303.0 L 712.0,273.0 L 744.0,280.0 L 767.0,307.0 L 743.0,387.0 L 718.0,406.0"/>
    <path d="M 577.0,471.0 L 592.0,460.0 L 719.0,433.0 L 762.0,430.0 L 785.0,437.0"/>
    <path d="M 497.0,574.0 L 556.0,580.0 L 728.0,541.0 L 786.0,542.0"/>
    <path d="M 442.0,740.0 L 489.0,746.0 L 668.0,712.0 L 839.0,690.0 L 919.0,705.0"/>
    <path d="M 586.0,600.0 L 625.0,633.0 L 611.0,753.0 L 577.0,842.0 L 539.0,898.0 L 489.0,943.0 L 419.0,981.0 L 374.0,994.0"/>
    <path d="M 646.0,746.0 L 665.0,763.0 L 757.0,883.0 L 823.0,949.0 L 965.0,987.0"/>
  </g>
</svg>
