<svg xmlns="http://www.w3.org/2000/svg" viewBox="0 0 1024 1024">
  <g style="fill:none;stroke:#000000;stroke-width:50;stroke-linecap:round;stroke-linejoin:round;" transform="scale(1, 1) translate(0, 0)">
    <path d="M 92.0,485.0 L 125.0,524.0 L 156.0,674.0"/>
    <path d="M 118.0,480.0 L 150.0,491.0 L 329.0,450.0 L 350.0,454.0 L 370.0,467.0 L 379.0,482.0 L 352.0,569.0 L 337.0,580.0"/>
    <path d="M 174.0,647.0 L 201.0,634.0 L 327.0,606.0 L 382.0,611.0"/>
    <path d="M 205.0,258.0 L 255.0,298.0 L 257.0,318.0 L 248.0,736.0 L 231.0,759.0"/>
    <path d="M 68.0,828.0 L 122.0,838.0 L 296.0,760.0 L 320.0,745.0 L 323.0,737.0"/>
    <path d="M 326.0,688.0 L 368.0,760.0 L 373.0,800.0"/>
    <path d="M 669.0,326.0 L 653.0,320.0 L 604.0,319.0 L 536.0,368.0 L 473.0,400.0 L 437.0,408.0 L 429.0,418.0"/>
    <path d="M 418.0,543.0 L 456.0,548.0 L 606.0,512.0 L 661.0,515.0"/>
    <path d="M 530.0,395.0 L 552.0,413.0 L 558.0,438.0 L 542.0,904.0 L 553.0,980.0"/>
    <path d="M 534.0,559.0 L 525.0,566.0 L 517.0,603.0 L 491.0,648.0 L 426.0,731.0 L 397.0,755.0"/>
    <path d="M 578.0,647.0 L 634.0,683.0 L 661.0,718.0"/>
    <path d="M 712.0,467.0 L 738.0,499.0 L 733.0,776.0"/>
    <path d="M 813.0,231.0 L 830.0,239.0 L 862.0,270.0 L 857.0,556.0 L 865.0,898.0 L 859.0,929.0 L 844.0,959.0 L 801.0,943.0 L 745.0,913.0 L 744.0,906.0 L 733.0,906.0"/>
  </g>
</svg>
