<svg xmlns="http://www.w3.org/2000/svg" viewBox="0 0 1024 1024">
  <g style="fill:none;stroke:#000000;stroke-width:50;stroke-linecap:round;stroke-linejoin:round;" transform="scale(1, 1) translate(0, 0)">
    <path d="M 102.0,510.0 L 129.0,532.0 L 135.0,544.0 L 168.0,698.0"/>
    <path d="M 157.0,513.0 L 192.0,514.0 L 350.0,466.0 L 371.0,466.0 L 404.0,493.0 L 379.0,575.0 L 358.0,592.0"/>
    <path d="M 183.0,666.0 L 202.0,654.0 L 332.0,622.0 L 388.0,615.0 L 412.0,620.0"/>
    <path d="M 227.0,265.0 L 274.0,303.0 L 276.0,332.0 L 268.0,734.0 L 265.0,775.0 L 248.0,797.0"/>
    <path d="M 84.0,854.0 L 105.0,865.0 L 139.0,871.0 L 352.0,782.0 L 371.0,782.0"/>
    <path d="M 350.0,707.0 L 399.0,767.0 L 408.0,784.0 L 412.0,813.0"/>
    <path d="M 490.0,314.0 L 517.0,334.0 L 527.0,352.0 L 563.0,493.0"/>
    <path d="M 550.0,315.0 L 564.0,326.0 L 741.0,282.0 L 763.0,286.0 L 794.0,315.0 L 766.0,383.0 L 741.0,396.0"/>
    <path d="M 582.0,469.0 L 596.0,454.0 L 731.0,423.0 L 785.0,429.0"/>
    <path d="M 453.0,557.0 L 478.0,583.0 L 489.0,640.0 L 485.0,821.0 L 470.0,909.0 L 472.0,968.0"/>
    <path d="M 504.0,571.0 L 525.0,583.0 L 804.0,531.0 L 835.0,540.0 L 858.0,565.0 L 856.0,639.0 L 869.0,866.0 L 866.0,915.0 L 853.0,946.0 L 793.0,936.0 L 726.0,912.0"/>
    <path d="M 627.0,473.0 L 642.0,479.0 L 662.0,504.0 L 658.0,577.0 L 642.0,662.0 L 624.0,710.0 L 603.0,745.0 L 571.0,781.0 L 527.0,809.0"/>
    <path d="M 670.0,658.0 L 679.0,663.0 L 682.0,677.0 L 741.0,720.0 L 766.0,762.0"/>
  </g>
</svg>
