<svg xmlns="http://www.w3.org/2000/svg" viewBox="0 0 1024 1024">
  <g style="fill:none;stroke:#000000;stroke-width:50;stroke-linecap:round;stroke-linejoin:round;" transform="scale(1, 1) translate(0, 0)">
    <path d="M 87.0,517.0 L 116.0,539.0 L 156.0,705.0"/>
    <path d="M 149.0,540.0 L 164.0,527.0 L 325.0,484.0 L 347.0,487.0 L 368.0,500.0 L 375.0,513.0 L 352.0,589.0 L 332.0,600.0"/>
    <path d="M 174.0,671.0 L 186.0,660.0 L 332.0,629.0 L 366.0,628.0 L 384.0,635.0"/>
    <path d="M 207.0,269.0 L 254.0,307.0 L 256.0,334.0 L 245.0,771.0 L 228.0,793.0"/>
    <path d="M 60.0,864.0 L 92.0,874.0 L 120.0,873.0 L 344.0,767.0 L 352.0,770.0"/>
    <path d="M 350.0,715.0 L 390.0,774.0 L 400.0,799.0"/>
    <path d="M 463.0,288.0 L 530.0,356.0 L 539.0,390.0"/>
    <path d="M 725.0,221.0 L 746.0,240.0 L 756.0,259.0 L 706.0,325.0 L 634.0,403.0"/>
    <path d="M 451.0,485.0 L 484.0,524.0 L 516.0,682.0"/>
    <path d="M 485.0,481.0 L 513.0,492.0 L 695.0,450.0 L 724.0,457.0 L 751.0,483.0 L 715.0,588.0 L 689.0,605.0"/>
    <path d="M 534.0,664.0 L 552.0,654.0 L 678.0,630.0 L 731.0,629.0 L 747.0,636.0"/>
    <path d="M 512.0,725.0 L 531.0,765.0 L 499.0,837.0 L 472.0,879.0 L 426.0,931.0 L 384.0,967.0 L 296.0,1017.0"/>
    <path d="M 619.0,668.0 L 643.0,682.0 L 652.0,697.0 L 644.0,829.0 L 651.0,924.0 L 666.0,957.0 L 697.0,980.0 L 746.0,994.0 L 794.0,998.0 L 864.0,990.0 L 911.0,968.0 L 932.0,946.0 L 936.0,813.0"/>
  </g>
</svg>
