<svg xmlns="http://www.w3.org/2000/svg" viewBox="0 0 1024 1024">
  <g style="fill:none;stroke:#000000;stroke-width:50;stroke-linecap:round;stroke-linejoin:round;" transform="scale(1, 1) translate(0, 0)">
    <path d="M 91.0,510.0 L 119.0,531.0 L 127.0,550.0 L 164.0,693.0"/>
    <path d="M 149.0,515.0 L 171.0,519.0 L 337.0,475.0 L 365.0,482.0 L 388.0,503.0 L 361.0,587.0 L 340.0,601.0"/>
    <path d="M 177.0,671.0 L 190.0,661.0 L 326.0,629.0 L 367.0,626.0 L 387.0,631.0"/>
    <path d="M 209.0,285.0 L 254.0,321.0 L 256.0,343.0 L 250.0,758.0 L 233.0,785.0"/>
    <path d="M 77.0,840.0 L 131.0,856.0 L 331.0,775.0 L 341.0,778.0"/>
    <path d="M 332.0,715.0 L 381.0,788.0 L 389.0,829.0"/>
    <path d="M 485.0,321.0 L 507.0,331.0 L 540.0,333.0 L 692.0,281.0 L 724.0,283.0 L 753.0,312.0 L 736.0,338.0 L 671.0,400.0 L 666.0,411.0 L 656.0,409.0"/>
    <path d="M 599.0,409.0 L 631.0,424.0 L 646.0,441.0 L 658.0,470.0 L 671.0,573.0 L 665.0,636.0 L 651.0,669.0 L 628.0,690.0 L 545.0,649.0"/>
    <path d="M 448.0,533.0 L 497.0,538.0 L 607.0,515.0 L 807.0,486.0 L 856.0,485.0 L 903.0,497.0"/>
    <path d="M 436.0,773.0 L 467.0,813.0 L 489.0,941.0 L 504.0,954.0"/>
    <path d="M 480.0,773.0 L 508.0,784.0 L 751.0,740.0 L 798.0,742.0 L 824.0,766.0 L 827.0,779.0 L 795.0,899.0 L 768.0,922.0"/>
    <path d="M 568.0,790.0 L 579.0,805.0 L 590.0,930.0 L 600.0,946.0"/>
    <path d="M 660.0,775.0 L 688.0,791.0 L 694.0,803.0 L 677.0,919.0 L 666.0,939.0"/>
    <path d="M 362.0,984.0 L 412.0,993.0 L 590.0,970.0 L 863.0,946.0 L 896.0,948.0 L 951.0,965.0"/>
  </g>
</svg>
