<svg xmlns="http://www.w3.org/2000/svg" viewBox="0 0 1024 1024">
  <g style="fill:none;stroke:#000000;stroke-width:50;stroke-linecap:round;stroke-linejoin:round;" transform="scale(1, 1) translate(0, 0)">
    <path d="M 68.0,499.0 L 90.0,518.0 L 100.0,540.0 L 132.0,694.0"/>
    <path d="M 112.0,500.0 L 131.0,510.0 L 312.0,469.0 L 330.0,472.0 L 352.0,487.0 L 362.0,503.0 L 337.0,586.0 L 320.0,592.0"/>
    <path d="M 146.0,664.0 L 163.0,653.0 L 309.0,625.0 L 362.0,631.0"/>
    <path d="M 185.0,274.0 L 235.0,313.0 L 237.0,350.0 L 228.0,766.0 L 211.0,788.0"/>
    <path d="M 51.0,848.0 L 62.0,855.0 L 104.0,860.0 L 303.0,775.0 L 325.0,774.0"/>
    <path d="M 313.0,710.0 L 367.0,791.0 L 374.0,837.0"/>
    <path d="M 582.0,189.0 L 612.0,221.0 L 543.0,321.0 L 514.0,342.0"/>
    <path d="M 427.0,353.0 L 452.0,375.0 L 461.0,397.0 L 501.0,609.0"/>
    <path d="M 485.0,383.0 L 504.0,364.0 L 664.0,329.0 L 755.0,316.0 L 795.0,324.0 L 819.0,355.0 L 774.0,507.0 L 748.0,565.0 L 722.0,566.0"/>
    <path d="M 523.0,477.0 L 680.0,445.0 L 720.0,449.0"/>
    <path d="M 521.0,583.0 L 539.0,572.0 L 655.0,550.0 L 714.0,545.0"/>
    <path d="M 596.0,361.0 L 625.0,391.0 L 604.0,530.0 L 583.0,598.0 L 560.0,645.0 L 499.0,726.0"/>
    <path d="M 405.0,755.0 L 446.0,763.0 L 842.0,702.0 L 884.0,704.0 L 933.0,719.0"/>
    <path d="M 637.0,615.0 L 669.0,643.0 L 671.0,662.0 L 667.0,1078.0"/>
  </g>
</svg>
