<svg xmlns="http://www.w3.org/2000/svg" viewBox="0 0 1024 1024">
  <g style="fill:none;stroke:#000000;stroke-width:50;stroke-linecap:round;stroke-linejoin:round;" transform="scale(1, 1) translate(0, 0)">
    <path d="M 92.0,507.0 L 117.0,525.0 L 127.0,542.0 L 164.0,681.0"/>
    <path d="M 141.0,505.0 L 161.0,514.0 L 323.0,472.0 L 358.0,471.0 L 390.0,498.0 L 365.0,576.0 L 343.0,592.0"/>
    <path d="M 181.0,666.0 L 191.0,656.0 L 326.0,619.0 L 391.0,619.0"/>
    <path d="M 210.0,264.0 L 252.0,296.0 L 260.0,313.0 L 254.0,736.0 L 237.0,765.0"/>
    <path d="M 84.0,826.0 L 142.0,840.0 L 202.0,809.0 L 332.0,756.0 L 377.0,730.0"/>
    <path d="M 335.0,715.0 L 384.0,767.0 L 400.0,810.0"/>
    <path d="M 499.0,263.0 L 523.0,287.0 L 528.0,302.0 L 557.0,529.0"/>
    <path d="M 554.0,273.0 L 565.0,280.0 L 581.0,280.0 L 630.0,266.0 L 707.0,256.0 L 727.0,262.0 L 747.0,288.0 L 731.0,355.0 L 716.0,472.0 L 706.0,493.0 L 690.0,493.0"/>
    <path d="M 572.0,402.0 L 581.0,389.0 L 617.0,379.0 L 664.0,381.0"/>
    <path d="M 580.0,499.0 L 588.0,488.0 L 682.0,473.0"/>
    <path d="M 553.0,568.0 L 529.0,577.0 L 486.0,647.0 L 421.0,715.0"/>
    <path d="M 521.0,651.0 L 537.0,644.0 L 563.0,647.0 L 630.0,638.0 L 812.0,607.0 L 836.0,612.0 L 856.0,633.0 L 821.0,843.0 L 792.0,936.0 L 769.0,977.0 L 736.0,999.0 L 649.0,939.0"/>
    <path d="M 556.0,676.0 L 571.0,693.0 L 526.0,764.0 L 468.0,825.0 L 415.0,859.0"/>
    <path d="M 663.0,653.0 L 691.0,685.0 L 661.0,753.0 L 622.0,816.0 L 556.0,904.0 L 483.0,972.0 L 439.0,1003.0"/>
  </g>
</svg>
