<svg xmlns="http://www.w3.org/2000/svg" viewBox="0 0 1024 1024">
  <g style="fill:none;stroke:#000000;stroke-width:50;stroke-linecap:round;stroke-linejoin:round;" transform="scale(1, 1) translate(0, 0)">
    <path d="M 93.0,492.0 L 121.0,522.0 L 148.0,687.0"/>
    <path d="M 146.0,498.0 L 157.0,505.0 L 172.0,503.0 L 333.0,460.0 L 363.0,467.0 L 382.0,484.0 L 357.0,575.0 L 338.0,589.0"/>
    <path d="M 166.0,659.0 L 183.0,649.0 L 333.0,615.0 L 388.0,620.0"/>
    <path d="M 206.0,255.0 L 253.0,295.0 L 255.0,323.0 L 241.0,738.0 L 224.0,760.0"/>
    <path d="M 74.0,819.0 L 99.0,829.0 L 132.0,832.0 L 332.0,742.0 L 336.0,730.0"/>
    <path d="M 336.0,683.0 L 385.0,756.0 L 393.0,798.0"/>
    <path d="M 456.0,294.0 L 485.0,319.0 L 528.0,485.0"/>
    <path d="M 511.0,294.0 L 525.0,305.0 L 696.0,268.0 L 727.0,276.0 L 750.0,302.0 L 721.0,378.0 L 695.0,396.0"/>
    <path d="M 544.0,437.0 L 555.0,445.0 L 707.0,420.0 L 737.0,420.0 L 755.0,428.0"/>
    <path d="M 422.0,569.0 L 443.0,587.0 L 455.0,608.0 L 496.0,833.0"/>
    <path d="M 463.0,569.0 L 501.0,575.0 L 741.0,535.0 L 791.0,543.0 L 818.0,573.0 L 781.0,730.0 L 763.0,782.0 L 767.0,803.0"/>
    <path d="M 532.0,681.0 L 654.0,660.0 L 679.0,658.0 L 711.0,665.0"/>
    <path d="M 517.0,806.0 L 533.0,797.0 L 726.0,767.0"/>
    <path d="M 601.0,463.0 L 619.0,478.0 L 626.0,520.0 L 615.0,763.0 L 618.0,874.0 L 629.0,922.0 L 655.0,957.0 L 723.0,980.0 L 804.0,984.0 L 859.0,977.0 L 900.0,962.0 L 924.0,948.0 L 935.0,796.0"/>
  </g>
</svg>
