<svg xmlns="http://www.w3.org/2000/svg" viewBox="0 0 1024 1024">
  <g style="fill:none;stroke:#000000;stroke-width:50;stroke-linecap:round;stroke-linejoin:round;" transform="scale(1, 1) translate(0, 0)">
    <path d="M 87.0,489.0 L 115.0,511.0 L 121.0,528.0 L 156.0,690.0"/>
    <path d="M 144.0,496.0 L 160.0,501.0 L 184.0,497.0 L 351.0,456.0 L 383.0,462.0 L 405.0,481.0 L 381.0,574.0 L 362.0,589.0"/>
    <path d="M 176.0,660.0 L 184.0,650.0 L 350.0,615.0 L 396.0,613.0 L 415.0,620.0"/>
    <path d="M 223.0,233.0 L 270.0,271.0 L 272.0,300.0 L 262.0,760.0 L 261.0,769.0 L 244.0,788.0"/>
    <path d="M 66.0,848.0 L 120.0,865.0 L 360.0,776.0 L 363.0,767.0"/>
    <path d="M 352.0,699.0 L 403.0,772.0 L 416.0,815.0"/>
    <path d="M 464.0,331.0 L 491.0,362.0 L 500.0,384.0 L 496.0,747.0 L 479.0,891.0 L 484.0,954.0"/>
    <path d="M 522.0,346.0 L 531.0,356.0 L 546.0,359.0 L 679.0,341.0 L 820.0,313.0 L 848.0,329.0 L 867.0,351.0 L 881.0,888.0 L 868.0,926.0 L 800.0,910.0"/>
    <path d="M 565.0,467.0 L 588.0,473.0 L 630.0,471.0 L 742.0,443.0 L 786.0,445.0"/>
    <path d="M 563.0,620.0 L 618.0,624.0 L 730.0,603.0 L 780.0,609.0"/>
    <path d="M 647.0,493.0 L 670.0,507.0 L 676.0,576.0 L 670.0,726.0 L 667.0,739.0 L 656.0,748.0"/>
    <path d="M 540.0,785.0 L 594.0,788.0 L 745.0,763.0 L 814.0,775.0"/>
    <path d="M 763.0,663.0 L 798.0,687.0 L 815.0,709.0"/>
    <path d="M 511.0,923.0 L 527.0,910.0 L 548.0,906.0 L 800.0,882.0 L 829.0,886.0"/>
  </g>
</svg>
