<svg xmlns="http://www.w3.org/2000/svg" viewBox="0 0 1024 1024">
  <g style="fill:none;stroke:#000000;stroke-width:50;stroke-linecap:round;stroke-linejoin:round;" transform="scale(1, 1) translate(0, 0)">
    <path d="M 300.0,233.0 L 327.0,264.0 L 306.0,331.0 L 263.0,421.0 L 203.0,519.0 L 148.0,587.0 L 51.0,674.0"/>
    <path d="M 359.0,301.0 L 372.0,299.0 L 432.0,332.0 L 462.0,368.0"/>
    <path d="M 320.0,409.0 L 374.0,442.0 L 397.0,467.0"/>
    <path d="M 248.0,562.0 L 277.0,567.0 L 387.0,532.0 L 404.0,535.0 L 418.0,551.0 L 427.0,568.0 L 396.0,699.0 L 376.0,742.0"/>
    <path d="M 258.0,673.0 L 262.0,662.0 L 278.0,652.0 L 323.0,645.0 L 344.0,649.0"/>
    <path d="M 253.0,764.0 L 273.0,750.0 L 338.0,731.0 L 352.0,719.0"/>
    <path d="M 192.0,577.0 L 217.0,581.0 L 228.0,635.0 L 224.0,920.0 L 242.0,919.0 L 276.0,905.0 L 341.0,860.0 L 343.0,850.0"/>
    <path d="M 329.0,790.0 L 384.0,850.0 L 401.0,897.0"/>
    <path d="M 494.0,550.0 L 523.0,572.0 L 531.0,589.0 L 575.0,757.0"/>
    <path d="M 553.0,553.0 L 571.0,562.0 L 705.0,534.0 L 784.0,510.0 L 823.0,514.0 L 853.0,542.0 L 814.0,645.0 L 787.0,659.0"/>
    <path d="M 596.0,741.0 L 612.0,724.0 L 759.0,691.0 L 792.0,688.0 L 836.0,694.0"/>
    <path d="M 616.0,264.0 L 671.0,306.0 L 673.0,327.0 L 670.0,813.0 L 668.0,834.0 L 651.0,854.0"/>
    <path d="M 466.0,900.0 L 525.0,924.0 L 805.0,844.0 L 829.0,846.0"/>
    <path d="M 810.0,772.0 L 893.0,877.0 L 907.0,909.0 L 909.0,950.0"/>
  </g>
</svg>
