<svg xmlns="http://www.w3.org/2000/svg" viewBox="0 0 1024 1024">
  <g style="fill:none;stroke:#000000;stroke-width:50;stroke-linecap:round;stroke-linejoin:round;" transform="scale(1, 1) translate(0, 0)">
    <path d="M 108.0,486.0 L 138.0,507.0 L 188.0,654.0"/>
    <path d="M 170.0,506.0 L 177.0,497.0 L 301.0,463.0 L 327.0,450.0 L 373.0,444.0 L 406.0,470.0 L 380.0,536.0 L 352.0,557.0"/>
    <path d="M 199.0,627.0 L 209.0,618.0 L 345.0,584.0 L 390.0,578.0 L 416.0,583.0"/>
    <path d="M 222.0,253.0 L 271.0,291.0 L 273.0,311.0 L 269.0,724.0 L 252.0,748.0"/>
    <path d="M 99.0,818.0 L 156.0,828.0 L 350.0,727.0 L 369.0,725.0"/>
    <path d="M 350.0,659.0 L 413.0,730.0 L 425.0,769.0"/>
    <path d="M 455.0,303.0 L 489.0,326.0 L 497.0,339.0 L 559.0,533.0"/>
    <path d="M 513.0,302.0 L 532.0,310.0 L 617.0,287.0 L 795.0,253.0 L 828.0,254.0 L 847.0,261.0 L 874.0,293.0 L 859.0,331.0 L 818.0,498.0"/>
    <path d="M 591.0,398.0 L 639.0,401.0 L 718.0,379.0 L 757.0,378.0"/>
    <path d="M 642.0,302.0 L 670.0,329.0 L 669.0,443.0 L 654.0,468.0"/>
    <path d="M 577.0,512.0 L 591.0,502.0 L 705.0,480.0 L 790.0,472.0"/>
    <path d="M 539.0,597.0 L 569.0,625.0 L 574.0,696.0 L 566.0,824.0 L 556.0,902.0 L 543.0,945.0 L 539.0,1007.0"/>
    <path d="M 601.0,627.0 L 620.0,616.0 L 680.0,606.0 L 758.0,582.0 L 781.0,588.0 L 807.0,611.0 L 803.0,705.0 L 814.0,946.0 L 806.0,984.0 L 792.0,1003.0 L 778.0,1000.0 L 690.0,958.0"/>
    <path d="M 601.0,729.0 L 611.0,716.0 L 649.0,707.0 L 697.0,700.0 L 728.0,705.0"/>
    <path d="M 596.0,825.0 L 605.0,814.0 L 672.0,805.0 L 713.0,805.0 L 734.0,812.0"/>
  </g>
</svg>
