<svg xmlns="http://www.w3.org/2000/svg" viewBox="0 0 1024 1024">
  <g style="fill:none;stroke:#000000;stroke-width:50;stroke-linecap:round;stroke-linejoin:round;" transform="scale(1, 1) translate(0, 0)">
    <path d="M 72.0,535.0 L 95.0,551.0 L 105.0,566.0 L 144.0,705.0"/>
    <path d="M 125.0,535.0 L 138.0,541.0 L 289.0,499.0 L 330.0,498.0 L 357.0,524.0 L 335.0,589.0 L 312.0,609.0"/>
    <path d="M 159.0,658.0 L 169.0,665.0 L 301.0,634.0 L 352.0,640.0"/>
    <path d="M 184.0,281.0 L 224.0,310.0 L 233.0,321.0 L 235.0,341.0 L 225.0,776.0 L 208.0,799.0"/>
    <path d="M 63.0,854.0 L 118.0,869.0 L 307.0,784.0 L 324.0,783.0"/>
    <path d="M 311.0,723.0 L 357.0,776.0 L 370.0,816.0"/>
    <path d="M 456.0,349.0 L 470.0,352.0 L 531.0,335.0 L 551.0,335.0 L 561.0,338.0 L 580.0,360.0 L 550.0,452.0 L 529.0,466.0"/>
    <path d="M 463.0,514.0 L 481.0,502.0 L 525.0,491.0 L 575.0,495.0"/>
    <path d="M 398.0,333.0 L 430.0,376.0 L 439.0,479.0 L 435.0,793.0 L 418.0,936.0 L 424.0,1009.0"/>
    <path d="M 462.0,654.0 L 474.0,637.0 L 495.0,631.0 L 560.0,630.0"/>
    <path d="M 457.0,773.0 L 470.0,762.0 L 496.0,754.0 L 545.0,748.0 L 568.0,755.0"/>
    <path d="M 636.0,325.0 L 700.0,318.0 L 776.0,291.0 L 804.0,294.0 L 827.0,318.0 L 797.0,401.0 L 767.0,421.0"/>
    <path d="M 638.0,467.0 L 663.0,470.0 L 766.0,445.0 L 827.0,447.0"/>
    <path d="M 588.0,593.0 L 616.0,595.0 L 666.0,586.0 L 730.0,560.0 L 762.0,559.0 L 785.0,568.0 L 780.0,604.0 L 751.0,700.0 L 731.0,750.0 L 699.0,804.0 L 645.0,859.0 L 611.0,882.0 L 576.0,898.0 L 524.0,910.0"/>
    <path d="M 602.0,661.0 L 641.0,685.0 L 749.0,821.0 L 838.0,900.0 L 850.0,907.0 L 979.0,928.0"/>
  </g>
</svg>
