<svg xmlns="http://www.w3.org/2000/svg" viewBox="0 0 1024 1024">
  <g style="fill:none;stroke:#000000;stroke-width:50;stroke-linecap:round;stroke-linejoin:round;" transform="scale(1, 1) translate(0, 0)">
    <path d="M 64.0,515.0 L 87.0,531.0 L 99.0,549.0 L 131.0,670.0"/>
    <path d="M 116.0,514.0 L 134.0,521.0 L 306.0,476.0 L 326.0,478.0 L 358.0,503.0 L 333.0,575.0 L 312.0,590.0"/>
    <path d="M 150.0,655.0 L 166.0,643.0 L 298.0,615.0 L 339.0,613.0 L 359.0,618.0"/>
    <path d="M 181.0,265.0 L 230.0,305.0 L 231.0,332.0 L 217.0,758.0 L 200.0,781.0"/>
    <path d="M 54.0,840.0 L 108.0,853.0 L 293.0,766.0 L 312.0,764.0"/>
    <path d="M 302.0,707.0 L 352.0,771.0 L 358.0,803.0"/>
    <path d="M 368.0,417.0 L 417.0,420.0 L 547.0,391.0 L 783.0,350.0 L 838.0,346.0 L 892.0,357.0"/>
    <path d="M 544.0,250.0 L 563.0,257.0 L 583.0,283.0 L 593.0,407.0 L 593.0,519.0"/>
    <path d="M 694.0,194.0 L 719.0,218.0 L 727.0,244.0 L 697.0,442.0 L 682.0,456.0"/>
    <path d="M 609.0,501.0 L 630.0,489.0 L 669.0,483.0 L 706.0,481.0 L 731.0,490.0"/>
    <path d="M 432.0,298.0 L 468.0,325.0 L 481.0,355.0 L 489.0,591.0 L 541.0,594.0 L 753.0,566.0 L 810.0,582.0"/>
    <path d="M 396.0,740.0 L 440.0,747.0 L 657.0,708.0 L 809.0,688.0 L 886.0,702.0"/>
    <path d="M 572.0,613.0 L 587.0,621.0 L 605.0,649.0 L 590.0,991.0 L 602.0,1070.0"/>
    <path d="M 571.0,746.0 L 491.0,843.0 L 432.0,897.0 L 346.0,954.0 L 288.0,980.0"/>
    <path d="M 632.0,739.0 L 639.0,754.0 L 686.0,802.0 L 813.0,902.0 L 900.0,923.0 L 986.0,934.0"/>
  </g>
</svg>
