<svg xmlns="http://www.w3.org/2000/svg" viewBox="0 0 1024 1024">
  <g style="fill:none;stroke:#000000;stroke-width:50;stroke-linecap:round;stroke-linejoin:round;" transform="scale(1, 1) translate(0, 0)">
    <path d="M 69.0,508.0 L 99.0,536.0 L 136.0,684.0"/>
    <path d="M 124.0,516.0 L 133.0,522.0 L 185.0,515.0 L 309.0,490.0 L 336.0,515.0 L 313.0,583.0 L 294.0,596.0"/>
    <path d="M 153.0,659.0 L 167.0,647.0 L 286.0,622.0 L 324.0,621.0 L 343.0,628.0"/>
    <path d="M 171.0,288.0 L 215.0,324.0 L 217.0,338.0 L 214.0,750.0 L 209.0,766.0 L 198.0,776.0"/>
    <path d="M 53.0,830.0 L 100.0,841.0 L 290.0,767.0 L 298.0,770.0"/>
    <path d="M 288.0,707.0 L 328.0,764.0 L 341.0,808.0"/>
    <path d="M 399.0,519.0 L 460.0,519.0 L 563.0,488.0 L 615.0,486.0"/>
    <path d="M 476.0,227.0 L 518.0,267.0 L 518.0,285.0 L 484.0,629.0 L 466.0,649.0"/>
    <path d="M 365.0,660.0 L 393.0,689.0 L 420.0,851.0"/>
    <path d="M 420.0,669.0 L 429.0,675.0 L 450.0,672.0 L 533.0,652.0 L 555.0,658.0 L 573.0,679.0 L 549.0,755.0 L 526.0,770.0"/>
    <path d="M 438.0,819.0 L 454.0,809.0 L 514.0,795.0 L 575.0,798.0"/>
    <path d="M 643.0,388.0 L 675.0,415.0 L 680.0,426.0 L 684.0,479.0 L 678.0,638.0 L 664.0,735.0 L 647.0,802.0 L 614.0,881.0 L 580.0,934.0 L 507.0,1013.0 L 457.0,1044.0"/>
    <path d="M 703.0,394.0 L 723.0,403.0 L 803.0,382.0 L 831.0,395.0 L 846.0,413.0 L 847.0,856.0 L 842.0,969.0 L 822.0,999.0 L 729.0,948.0"/>
    <path d="M 711.0,602.0 L 717.0,591.0 L 732.0,584.0 L 762.0,580.0 L 785.0,586.0"/>
    <path d="M 693.0,739.0 L 708.0,723.0 L 749.0,716.0 L 780.0,721.0"/>
  </g>
</svg>
