<svg xmlns="http://www.w3.org/2000/svg" viewBox="0 0 1024 1024">
  <g style="fill:none;stroke:#000000;stroke-width:50;stroke-linecap:round;stroke-linejoin:round;" transform="scale(1, 1) translate(0, 0)">
    <path d="M 91.0,501.0 L 123.0,533.0 L 160.0,694.0"/>
    <path d="M 150.0,524.0 L 160.0,513.0 L 227.0,503.0 L 302.0,479.0 L 342.0,470.0 L 366.0,474.0 L 393.0,500.0 L 367.0,585.0 L 352.0,590.0"/>
    <path d="M 178.0,664.0 L 187.0,654.0 L 322.0,625.0 L 362.0,621.0 L 398.0,627.0"/>
    <path d="M 219.0,261.0 L 266.0,299.0 L 268.0,325.0 L 257.0,761.0 L 241.0,781.0"/>
    <path d="M 78.0,832.0 L 136.0,846.0 L 334.0,775.0 L 360.0,773.0"/>
    <path d="M 340.0,711.0 L 398.0,777.0 L 411.0,813.0"/>
    <path d="M 452.0,384.0 L 507.0,393.0 L 746.0,350.0 L 789.0,346.0 L 841.0,354.0"/>
    <path d="M 592.0,210.0 L 605.0,217.0 L 627.0,246.0 L 607.0,368.0 L 589.0,425.0 L 553.0,488.0 L 513.0,534.0 L 462.0,573.0 L 417.0,596.0"/>
    <path d="M 664.0,401.0 L 681.0,401.0 L 749.0,482.0 L 845.0,567.0 L 873.0,578.0 L 976.0,593.0"/>
    <path d="M 505.0,617.0 L 578.0,620.0 L 661.0,604.0 L 697.0,591.0 L 751.0,591.0"/>
    <path d="M 600.0,513.0 L 631.0,542.0 L 630.0,673.0 L 616.0,695.0"/>
    <path d="M 460.0,733.0 L 495.0,740.0 L 747.0,700.0 L 804.0,702.0 L 833.0,712.0"/>
    <path d="M 486.0,854.0 L 541.0,864.0 L 669.0,846.0 L 724.0,831.0 L 784.0,833.0"/>
    <path d="M 600.0,761.0 L 635.0,793.0 L 634.0,934.0 L 620.0,955.0"/>
    <path d="M 406.0,992.0 L 460.0,1001.0 L 796.0,964.0 L 852.0,969.0 L 895.0,984.0"/>
  </g>
</svg>
