<svg xmlns="http://www.w3.org/2000/svg" viewBox="0 0 1024 1024">
  <g style="fill:none;stroke:#000000;stroke-width:50;stroke-linecap:round;stroke-linejoin:round;" transform="scale(1, 1) translate(0, 0)">
    <path d="M 91.0,501.0 L 119.0,524.0 L 126.0,541.0 L 160.0,694.0"/>
    <path d="M 150.0,509.0 L 165.0,513.0 L 336.0,473.0 L 366.0,474.0 L 397.0,499.0 L 373.0,579.0 L 351.0,599.0"/>
    <path d="M 178.0,670.0 L 192.0,655.0 L 334.0,626.0 L 394.0,631.0"/>
    <path d="M 213.0,266.0 L 263.0,305.0 L 265.0,320.0 L 257.0,751.0 L 239.0,781.0"/>
    <path d="M 68.0,843.0 L 114.0,858.0 L 130.0,855.0 L 320.0,778.0 L 348.0,764.0 L 351.0,755.0"/>
    <path d="M 347.0,696.0 L 395.0,779.0 L 401.0,814.0"/>
    <path d="M 502.0,446.0 L 544.0,454.0 L 593.0,450.0 L 694.0,432.0 L 792.0,405.0 L 847.0,404.0"/>
    <path d="M 639.0,220.0 L 682.0,265.0 L 646.0,540.0 L 626.0,565.0"/>
    <path d="M 433.0,583.0 L 454.0,604.0 L 470.0,634.0 L 470.0,917.0 L 480.0,960.0"/>
    <path d="M 488.0,600.0 L 510.0,608.0 L 718.0,573.0 L 820.0,565.0 L 855.0,566.0 L 878.0,579.0 L 888.0,591.0 L 885.0,786.0 L 880.0,845.0 L 867.0,903.0 L 846.0,936.0 L 804.0,921.0 L 750.0,890.0"/>
    <path d="M 578.0,635.0 L 604.0,667.0 L 614.0,693.0"/>
    <path d="M 714.0,595.0 L 731.0,620.0 L 707.0,677.0 L 688.0,697.0"/>
    <path d="M 551.0,734.0 L 598.0,737.0 L 751.0,706.0 L 792.0,709.0"/>
    <path d="M 552.0,825.0 L 580.0,825.0 L 733.0,798.0 L 775.0,804.0"/>
    <path d="M 642.0,749.0 L 665.0,769.0 L 663.0,970.0"/>
  </g>
</svg>
