<svg xmlns="http://www.w3.org/2000/svg" viewBox="0 0 1024 1024">
  <g style="fill:none;stroke:#000000;stroke-width:50;stroke-linecap:round;stroke-linejoin:round;" transform="scale(1, 1) translate(0, 0)">
    <path d="M 99.0,464.0 L 125.0,486.0 L 131.0,500.0 L 160.0,646.0"/>
    <path d="M 152.0,469.0 L 179.0,474.0 L 330.0,437.0 L 350.0,439.0 L 380.0,467.0 L 356.0,542.0 L 337.0,551.0"/>
    <path d="M 174.0,623.0 L 188.0,613.0 L 327.0,582.0 L 382.0,587.0"/>
    <path d="M 214.0,259.0 L 262.0,303.0 L 250.0,711.0 L 232.0,739.0"/>
    <path d="M 65.0,796.0 L 123.0,811.0 L 345.0,728.0 L 348.0,719.0"/>
    <path d="M 336.0,647.0 L 387.0,724.0 L 392.0,752.0"/>
    <path d="M 462.0,362.0 L 517.0,369.0 L 633.0,349.0 L 750.0,318.0 L 788.0,323.0"/>
    <path d="M 473.0,471.0 L 493.0,476.0 L 548.0,474.0 L 688.0,436.0 L 721.0,430.0 L 754.0,433.0"/>
    <path d="M 413.0,588.0 L 450.0,593.0 L 624.0,557.0 L 799.0,531.0 L 843.0,533.0 L 889.0,544.0"/>
    <path d="M 568.0,208.0 L 587.0,218.0 L 609.0,241.0 L 616.0,266.0 L 576.0,482.0 L 532.0,619.0 L 493.0,695.0 L 437.0,768.0 L 348.0,843.0 L 272.0,880.0"/>
    <path d="M 652.0,580.0 L 670.0,587.0 L 767.0,685.0 L 836.0,738.0 L 993.0,770.0"/>
    <path d="M 500.0,738.0 L 504.0,843.0 L 498.0,928.0 L 490.0,961.0 L 492.0,1021.0"/>
    <path d="M 528.0,745.0 L 538.0,753.0 L 577.0,747.0 L 674.0,722.0 L 709.0,747.0 L 715.0,971.0 L 703.0,1002.0 L 675.0,994.0 L 657.0,973.0"/>
    <path d="M 526.0,873.0 L 540.0,862.0 L 594.0,849.0 L 640.0,853.0"/>
    <path d="M 518.0,990.0 L 533.0,977.0 L 650.0,968.0"/>
  </g>
</svg>
