<svg xmlns="http://www.w3.org/2000/svg" viewBox="0 0 1024 1024">
  <g style="fill:none;stroke:#000000;stroke-width:50;stroke-linecap:round;stroke-linejoin:round;" transform="scale(1, 1) translate(0, 0)">
    <path d="M 95.0,505.0 L 121.0,526.0 L 128.0,540.0 L 160.0,686.0"/>
    <path d="M 149.0,507.0 L 159.0,515.0 L 173.0,515.0 L 323.0,475.0 L 356.0,482.0 L 376.0,503.0 L 350.0,582.0 L 328.0,598.0"/>
    <path d="M 180.0,663.0 L 195.0,650.0 L 313.0,624.0 L 378.0,627.0"/>
    <path d="M 207.0,261.0 L 254.0,299.0 L 256.0,325.0 L 246.0,762.0 L 228.0,789.0"/>
    <path d="M 69.0,844.0 L 124.0,860.0 L 327.0,784.0 L 331.0,772.0"/>
    <path d="M 328.0,719.0 L 368.0,778.0 L 380.0,823.0"/>
    <path d="M 459.0,321.0 L 507.0,354.0 L 530.0,391.0"/>
    <path d="M 756.0,268.0 L 769.0,297.0 L 689.0,367.0"/>
    <path d="M 451.0,458.0 L 507.0,463.0 L 749.0,416.0 L 786.0,413.0 L 823.0,420.0"/>
    <path d="M 588.0,215.0 L 615.0,234.0 L 631.0,258.0 L 615.0,596.0 L 621.0,645.0"/>
    <path d="M 596.0,474.0 L 556.0,537.0 L 514.0,583.0 L 472.0,617.0 L 412.0,652.0"/>
    <path d="M 643.0,467.0 L 653.0,485.0 L 708.0,540.0 L 783.0,599.0 L 871.0,620.0 L 939.0,626.0"/>
    <path d="M 542.0,651.0 L 558.0,666.0 L 567.0,692.0 L 502.0,850.0 L 535.0,871.0 L 583.0,888.0 L 713.0,955.0 L 747.0,980.0 L 792.0,1031.0"/>
    <path d="M 650.0,707.0 L 677.0,731.0 L 682.0,749.0 L 676.0,787.0 L 649.0,864.0 L 605.0,929.0 L 539.0,977.0 L 484.0,998.0 L 415.0,1009.0"/>
    <path d="M 406.0,756.0 L 460.0,763.0 L 627.0,738.0 L 809.0,720.0 L 868.0,725.0 L 906.0,741.0"/>
  </g>
</svg>
