<svg xmlns="http://www.w3.org/2000/svg" viewBox="0 0 1024 1024">
  <g style="fill:none;stroke:#000000;stroke-width:50;stroke-linecap:round;stroke-linejoin:round;" transform="scale(1, 1) translate(0, 0)">
    <path d="M 115.0,505.0 L 138.0,523.0 L 148.0,540.0 L 184.0,693.0"/>
    <path d="M 168.0,508.0 L 185.0,513.0 L 213.0,509.0 L 349.0,471.0 L 373.0,473.0 L 392.0,486.0 L 401.0,501.0 L 378.0,586.0 L 389.0,599.0"/>
    <path d="M 202.0,663.0 L 219.0,649.0 L 343.0,622.0 L 399.0,628.0"/>
    <path d="M 226.0,257.0 L 266.0,285.0 L 275.0,295.0 L 277.0,310.0 L 274.0,733.0 L 272.0,756.0 L 256.0,777.0"/>
    <path d="M 103.0,836.0 L 114.0,843.0 L 156.0,849.0 L 349.0,765.0 L 367.0,764.0"/>
    <path d="M 357.0,694.0 L 400.0,758.0 L 409.0,778.0 L 410.0,808.0"/>
    <path d="M 601.0,221.0 L 626.0,252.0 L 555.0,368.0 L 541.0,372.0"/>
    <path d="M 497.0,370.0 L 528.0,407.0 L 531.0,535.0 L 521.0,663.0 L 524.0,706.0"/>
    <path d="M 555.0,405.0 L 570.0,395.0 L 710.0,356.0 L 732.0,359.0 L 763.0,390.0 L 762.0,642.0 L 755.0,711.0"/>
    <path d="M 554.0,505.0 L 567.0,493.0 L 614.0,481.0 L 649.0,476.0 L 680.0,481.0"/>
    <path d="M 554.0,589.0 L 563.0,587.0 L 567.0,578.0 L 635.0,564.0 L 688.0,564.0"/>
    <path d="M 545.0,693.0 L 572.0,675.0 L 668.0,660.0 L 703.0,658.0 L 713.0,669.0"/>
    <path d="M 448.0,820.0 L 433.0,896.0 L 411.0,943.0 L 404.0,974.0"/>
    <path d="M 504.0,778.0 L 524.0,810.0 L 547.0,894.0 L 578.0,941.0 L 622.0,973.0 L 707.0,998.0 L 793.0,1000.0 L 822.0,992.0 L 856.0,969.0 L 843.0,922.0 L 802.0,828.0"/>
    <path d="M 609.0,759.0 L 685.0,814.0 L 704.0,846.0"/>
    <path d="M 822.0,731.0 L 921.0,795.0 L 950.0,846.0"/>
  </g>
</svg>
