<svg xmlns="http://www.w3.org/2000/svg" viewBox="0 0 1024 1024">
  <g style="fill:none;stroke:#000000;stroke-width:50;stroke-linecap:round;stroke-linejoin:round;" transform="scale(1, 1) translate(0, 0)">
    <path d="M 84.0,513.0 L 114.0,535.0 L 160.0,690.0"/>
    <path d="M 146.0,536.0 L 154.0,527.0 L 280.0,501.0 L 334.0,483.0 L 355.0,484.0 L 383.0,513.0 L 358.0,593.0 L 369.0,606.0"/>
    <path d="M 172.0,671.0 L 191.0,658.0 L 329.0,628.0 L 379.0,634.0"/>
    <path d="M 202.0,284.0 L 250.0,322.0 L 252.0,334.0 L 246.0,770.0 L 228.0,797.0"/>
    <path d="M 66.0,849.0 L 117.0,866.0 L 344.0,783.0 L 354.0,787.0"/>
    <path d="M 339.0,720.0 L 388.0,778.0 L 401.0,824.0"/>
    <path d="M 586.0,209.0 L 654.0,245.0 L 687.0,282.0"/>
    <path d="M 508.0,371.0 L 544.0,375.0 L 585.0,370.0 L 780.0,321.0 L 812.0,321.0"/>
    <path d="M 547.0,439.0 L 584.0,484.0 L 592.0,504.0"/>
    <path d="M 719.0,364.0 L 736.0,378.0 L 745.0,404.0 L 700.0,493.0 L 675.0,516.0"/>
    <path d="M 454.0,538.0 L 462.0,579.0 L 437.0,637.0 L 430.0,675.0"/>
    <path d="M 486.0,554.0 L 488.0,560.0 L 510.0,568.0 L 745.0,517.0 L 844.0,506.0 L 869.0,515.0 L 887.0,537.0 L 833.0,603.0"/>
    <path d="M 604.0,585.0 L 649.0,612.0 L 670.0,642.0"/>
    <path d="M 483.0,717.0 L 539.0,717.0 L 782.0,664.0 L 858.0,671.0"/>
    <path d="M 661.0,756.0 L 678.0,753.0 L 742.0,770.0 L 763.0,783.0 L 776.0,801.0 L 778.0,808.0 L 739.0,918.0 L 701.0,987.0 L 666.0,1013.0 L 579.0,959.0"/>
    <path d="M 654.0,734.0 L 644.0,732.0 L 627.0,744.0 L 573.0,827.0 L 483.0,919.0 L 443.0,952.0 L 389.0,986.0 L 376.0,985.0 L 371.0,993.0"/>
  </g>
</svg>
