<svg xmlns="http://www.w3.org/2000/svg" viewBox="0 0 1024 1024">
  <g style="fill:none;stroke:#000000;stroke-width:50;stroke-linecap:round;stroke-linejoin:round;" transform="scale(1, 1) translate(0, 0)">
    <path d="M 71.0,521.0 L 95.0,539.0 L 104.0,556.0 L 140.0,709.0"/>
    <path d="M 125.0,524.0 L 149.0,529.0 L 293.0,489.0 L 324.0,492.0 L 351.0,516.0 L 327.0,595.0 L 307.0,604.0"/>
    <path d="M 155.0,678.0 L 166.0,668.0 L 290.0,638.0 L 335.0,634.0 L 355.0,639.0"/>
    <path d="M 182.0,300.0 L 230.0,339.0 L 232.0,365.0 L 225.0,771.0 L 208.0,791.0"/>
    <path d="M 72.0,842.0 L 125.0,856.0 L 298.0,784.0 L 317.0,784.0"/>
    <path d="M 306.0,719.0 L 360.0,792.0 L 366.0,821.0"/>
    <path d="M 508.0,267.0 L 528.0,298.0 L 511.0,330.0 L 465.0,390.0 L 395.0,448.0"/>
    <path d="M 626.0,214.0 L 652.0,228.0 L 761.0,358.0 L 819.0,406.0 L 855.0,419.0 L 939.0,432.0"/>
    <path d="M 632.0,396.0 L 604.0,400.0 L 576.0,453.0 L 539.0,500.0 L 554.0,506.0 L 558.0,532.0 L 673.0,504.0 L 679.0,496.0 L 695.0,506.0"/>
    <path d="M 674.0,442.0 L 742.0,508.0 L 759.0,552.0"/>
    <path d="M 418.0,667.0 L 438.0,667.0 L 509.0,648.0 L 533.0,635.0 L 556.0,638.0 L 577.0,659.0 L 573.0,709.0 L 578.0,948.0 L 569.0,985.0 L 556.0,1001.0 L 474.0,967.0"/>
    <path d="M 418.0,725.0 L 461.0,754.0 L 482.0,782.0"/>
    <path d="M 361.0,923.0 L 396.0,929.0 L 516.0,823.0"/>
    <path d="M 646.0,630.0 L 706.0,625.0 L 774.0,603.0 L 799.0,609.0 L 821.0,632.0 L 817.0,809.0 L 822.0,962.0 L 815.0,1001.0 L 801.0,1020.0 L 771.0,1013.0 L 699.0,979.0"/>
    <path d="M 651.0,697.0 L 698.0,727.0 L 717.0,750.0"/>
    <path d="M 620.0,874.0 L 663.0,887.0 L 782.0,791.0"/>
  </g>
</svg>
