<svg xmlns="http://www.w3.org/2000/svg" viewBox="0 0 1024 1024">
  <g style="fill:none;stroke:#000000;stroke-width:50;stroke-linecap:round;stroke-linejoin:round;" transform="scale(1, 1) translate(0, 0)">
    <path d="M 87.0,472.0 L 114.0,495.0 L 120.0,512.0 L 148.0,658.0"/>
    <path d="M 144.0,480.0 L 155.0,487.0 L 319.0,446.0 L 340.0,448.0 L 371.0,477.0 L 348.0,552.0 L 327.0,569.0"/>
    <path d="M 166.0,635.0 L 177.0,627.0 L 318.0,595.0 L 378.0,599.0"/>
    <path d="M 203.0,249.0 L 240.0,277.0 L 251.0,295.0 L 241.0,735.0 L 225.0,755.0"/>
    <path d="M 61.0,810.0 L 113.0,826.0 L 314.0,748.0 L 329.0,752.0"/>
    <path d="M 324.0,689.0 L 358.0,731.0 L 377.0,769.0"/>
    <path d="M 461.0,339.0 L 492.0,346.0 L 530.0,345.0 L 640.0,326.0 L 718.0,305.0 L 773.0,304.0"/>
    <path d="M 471.0,439.0 L 515.0,445.0 L 696.0,413.0 L 755.0,416.0"/>
    <path d="M 412.0,548.0 L 448.0,556.0 L 594.0,530.0 L 810.0,504.0 L 877.0,518.0"/>
    <path d="M 579.0,193.0 L 615.0,231.0 L 606.0,353.0 L 580.0,498.0 L 549.0,576.0 L 512.0,636.0 L 455.0,696.0 L 393.0,735.0"/>
    <path d="M 676.0,546.0 L 688.0,549.0 L 783.0,650.0 L 850.0,706.0 L 976.0,725.0"/>
    <path d="M 698.0,652.0 L 645.0,643.0 L 577.0,683.0 L 511.0,709.0 L 501.0,706.0 L 492.0,715.0"/>
    <path d="M 428.0,801.0 L 473.0,805.0 L 712.0,761.0 L 737.0,760.0 L 791.0,771.0"/>
    <path d="M 583.0,701.0 L 604.0,715.0 L 606.0,726.0 L 598.0,1013.0 L 609.0,1081.0"/>
    <path d="M 577.0,807.0 L 555.0,851.0 L 506.0,905.0 L 423.0,972.0 L 374.0,998.0"/>
    <path d="M 670.0,850.0 L 782.0,925.0 L 809.0,951.0 L 827.0,987.0"/>
  </g>
</svg>
