<svg xmlns="http://www.w3.org/2000/svg" viewBox="0 0 1024 1024">
  <g style="fill:none;stroke:#000000;stroke-width:50;stroke-linecap:round;stroke-linejoin:round;" transform="scale(1, 1) translate(0, 0)">
    <path d="M 87.0,521.0 L 113.0,542.0 L 119.0,556.0 L 152.0,710.0"/>
    <path d="M 140.0,525.0 L 156.0,530.0 L 325.0,487.0 L 349.0,488.0 L 371.0,505.0 L 378.0,519.0 L 351.0,604.0 L 335.0,609.0"/>
    <path d="M 169.0,683.0 L 180.0,674.0 L 318.0,644.0 L 361.0,642.0 L 382.0,647.0"/>
    <path d="M 197.0,286.0 L 247.0,326.0 L 249.0,345.0 L 243.0,743.0 L 240.0,784.0 L 224.0,807.0"/>
    <path d="M 78.0,863.0 L 132.0,876.0 L 328.0,789.0 L 336.0,792.0"/>
    <path d="M 325.0,718.0 L 368.0,782.0 L 377.0,802.0 L 379.0,832.0"/>
    <path d="M 611.0,233.0 L 689.0,276.0 L 713.0,311.0"/>
    <path d="M 530.0,393.0 L 545.0,405.0 L 610.0,402.0 L 793.0,360.0 L 860.0,356.0"/>
    <path d="M 461.0,377.0 L 494.0,408.0 L 497.0,422.0 L 492.0,574.0 L 472.0,714.0 L 443.0,818.0 L 416.0,884.0 L 367.0,970.0 L 332.0,1014.0"/>
    <path d="M 557.0,543.0 L 607.0,544.0 L 767.0,504.0 L 800.0,514.0 L 817.0,532.0 L 787.0,662.0 L 767.0,679.0"/>
    <path d="M 533.0,649.0 L 564.0,650.0 L 751.0,613.0 L 877.0,595.0 L 912.0,595.0 L 958.0,605.0"/>
    <path d="M 548.0,739.0 L 600.0,739.0 L 798.0,704.0 L 830.0,713.0"/>
    <path d="M 649.0,439.0 L 668.0,449.0 L 687.0,471.0 L 685.0,614.0 L 671.0,809.0"/>
    <path d="M 534.0,845.0 L 567.0,883.0 L 600.0,1049.0"/>
    <path d="M 585.0,845.0 L 603.0,856.0 L 778.0,820.0 L 801.0,823.0 L 831.0,853.0 L 808.0,926.0 L 784.0,939.0"/>
    <path d="M 617.0,984.0 L 630.0,996.0 L 773.0,976.0 L 828.0,976.0 L 853.0,987.0"/>
  </g>
</svg>
