<svg xmlns="http://www.w3.org/2000/svg" viewBox="0 0 1024 1024">
  <g style="fill:none;stroke:#000000;stroke-width:50;stroke-linecap:round;stroke-linejoin:round;" transform="scale(1, 1) translate(0, 0)">
    <path d="M 76.0,481.0 L 103.0,501.0 L 111.0,517.0 L 144.0,638.0"/>
    <path d="M 128.0,484.0 L 151.0,488.0 L 325.0,438.0 L 355.0,441.0 L 380.0,462.0 L 357.0,527.0 L 335.0,545.0"/>
    <path d="M 159.0,601.0 L 168.0,607.0 L 180.0,605.0 L 335.0,567.0 L 372.0,565.0 L 389.0,571.0"/>
    <path d="M 201.0,251.0 L 245.0,287.0 L 247.0,306.0 L 238.0,696.0 L 222.0,717.0"/>
    <path d="M 63.0,785.0 L 115.0,796.0 L 336.0,690.0 L 344.0,693.0"/>
    <path d="M 327.0,627.0 L 374.0,680.0 L 389.0,723.0"/>
    <path d="M 461.0,286.0 L 471.0,310.0 L 470.0,323.0 L 442.0,389.0 L 441.0,433.0"/>
    <path d="M 495.0,323.0 L 506.0,316.0 L 615.0,294.0 L 749.0,274.0 L 782.0,264.0 L 818.0,263.0 L 842.0,278.0 L 855.0,296.0 L 797.0,373.0 L 788.0,375.0"/>
    <path d="M 489.0,456.0 L 507.0,472.0 L 520.0,500.0 L 548.0,667.0"/>
    <path d="M 546.0,472.0 L 548.0,464.0 L 563.0,457.0 L 708.0,426.0 L 746.0,427.0 L 776.0,447.0 L 783.0,458.0 L 742.0,616.0 L 731.0,636.0 L 709.0,626.0"/>
    <path d="M 557.0,558.0 L 565.0,551.0 L 628.0,539.0 L 693.0,534.0"/>
    <path d="M 565.0,652.0 L 585.0,640.0 L 661.0,625.0 L 682.0,626.0 L 687.0,634.0"/>
    <path d="M 588.0,659.0 L 608.0,671.0 L 642.0,708.0 L 642.0,736.0"/>
    <path d="M 362.0,784.0 L 417.0,791.0 L 574.0,766.0 L 879.0,734.0 L 948.0,753.0"/>
    <path d="M 591.0,849.0 L 558.0,855.0 L 518.0,907.0 L 461.0,964.0 L 411.0,1003.0 L 355.0,1035.0"/>
    <path d="M 720.0,842.0 L 815.0,942.0 L 838.0,984.0 L 845.0,1021.0"/>
  </g>
</svg>
