<svg xmlns="http://www.w3.org/2000/svg" viewBox="0 0 1024 1024">
  <g style="fill:none;stroke:#000000;stroke-width:50;stroke-linecap:round;stroke-linejoin:round;" transform="scale(1, 1) translate(0, 0)">
    <path d="M 228.0,354.0 L 268.0,388.0 L 281.0,412.0"/>
    <path d="M 500.0,289.0 L 472.0,284.0 L 399.0,350.0"/>
    <path d="M 322.0,210.0 L 342.0,218.0 L 368.0,246.0 L 369.0,333.0 L 360.0,407.0 L 341.0,468.0 L 316.0,513.0 L 281.0,552.0 L 256.0,563.0"/>
    <path d="M 380.0,440.0 L 442.0,478.0 L 456.0,507.0"/>
    <path d="M 490.0,350.0 L 518.0,383.0 L 530.0,408.0"/>
    <path d="M 773.0,291.0 L 739.0,279.0 L 645.0,343.0 L 642.0,353.0"/>
    <path d="M 574.0,182.0 L 594.0,190.0 L 620.0,217.0 L 622.0,276.0 L 613.0,363.0 L 598.0,418.0 L 572.0,471.0 L 544.0,509.0 L 508.0,531.0"/>
    <path d="M 622.0,426.0 L 652.0,430.0 L 696.0,451.0 L 724.0,470.0 L 743.0,498.0"/>
    <path d="M 181.0,586.0 L 193.0,615.0 L 191.0,639.0 L 158.0,714.0 L 160.0,755.0"/>
    <path d="M 219.0,613.0 L 233.0,622.0 L 253.0,624.0 L 562.0,568.0 L 770.0,543.0 L 815.0,547.0 L 827.0,554.0 L 846.0,583.0 L 773.0,662.0"/>
    <path d="M 303.0,734.0 L 337.0,767.0 L 372.0,897.0"/>
    <path d="M 353.0,732.0 L 372.0,743.0 L 390.0,741.0 L 537.0,715.0 L 605.0,697.0 L 641.0,698.0 L 654.0,705.0 L 674.0,733.0 L 651.0,783.0 L 619.0,805.0"/>
    <path d="M 388.0,873.0 L 405.0,862.0 L 608.0,829.0 L 660.0,827.0 L 682.0,836.0"/>
    <path d="M 453.0,623.0 L 493.0,656.0 L 494.0,944.0 L 479.0,967.0"/>
    <path d="M 226.0,1017.0 L 283.0,1043.0 L 628.0,959.0 L 655.0,961.0"/>
    <path d="M 626.0,882.0 L 733.0,1003.0 L 753.0,1042.0 L 761.0,1081.0"/>
  </g>
</svg>
