<svg xmlns="http://www.w3.org/2000/svg" viewBox="0 0 1024 1024">
  <g style="fill:none;stroke:#000000;stroke-width:50;stroke-linecap:round;stroke-linejoin:round;" transform="scale(1, 1) translate(0, 0)">
    <path d="M 245.0,307.0 L 301.0,312.0 L 463.0,276.0 L 508.0,276.0"/>
    <path d="M 250.0,407.0 L 286.0,412.0 L 449.0,371.0 L 493.0,374.0"/>
    <path d="M 364.0,193.0 L 400.0,224.0 L 387.0,433.0 L 373.0,457.0"/>
    <path d="M 165.0,514.0 L 214.0,519.0 L 417.0,468.0 L 482.0,458.0 L 505.0,462.0"/>
    <path d="M 386.0,529.0 L 438.0,551.0 L 452.0,572.0 L 429.0,637.0 L 398.0,674.0 L 331.0,637.0"/>
    <path d="M 338.0,517.0 L 354.0,532.0 L 349.0,543.0 L 313.0,595.0 L 279.0,630.0 L 207.0,680.0 L 116.0,716.0"/>
    <path d="M 611.0,194.0 L 642.0,224.0 L 635.0,254.0 L 588.0,377.0 L 545.0,446.0"/>
    <path d="M 599.0,399.0 L 696.0,377.0 L 769.0,351.0 L 817.0,348.0"/>
    <path d="M 665.0,410.0 L 698.0,431.0 L 682.0,508.0 L 652.0,558.0 L 586.0,596.0 L 524.0,606.0"/>
    <path d="M 545.0,471.0 L 591.0,488.0 L 713.0,593.0 L 798.0,642.0 L 860.0,651.0 L 956.0,651.0"/>
    <path d="M 328.0,743.0 L 356.0,762.0 L 363.0,777.0 L 395.0,898.0"/>
    <path d="M 384.0,746.0 L 401.0,753.0 L 664.0,711.0 L 685.0,719.0 L 706.0,744.0 L 686.0,788.0 L 663.0,804.0"/>
    <path d="M 410.0,856.0 L 422.0,863.0 L 446.0,862.0 L 654.0,831.0 L 697.0,834.0 L 714.0,842.0"/>
    <path d="M 490.0,655.0 L 528.0,689.0 L 519.0,918.0 L 515.0,931.0 L 503.0,941.0"/>
    <path d="M 284.0,978.0 L 337.0,1005.0 L 670.0,937.0 L 689.0,940.0"/>
    <path d="M 670.0,891.0 L 764.0,985.0 L 778.0,1020.0 L 779.0,1039.0"/>
  </g>
</svg>
