<svg xmlns="http://www.w3.org/2000/svg" viewBox="0 0 1024 1024">
  <g style="fill:none;stroke:#000000;stroke-width:50;stroke-linecap:round;stroke-linejoin:round;" transform="scale(1, 1) translate(0, 0)">
    <path d="M 237.0,318.0 L 316.0,322.0 L 439.0,294.0 L 487.0,294.0"/>
    <path d="M 338.0,197.0 L 375.0,229.0 L 366.0,378.0 L 351.0,395.0"/>
    <path d="M 124.0,445.0 L 176.0,454.0 L 419.0,405.0 L 490.0,398.0 L 510.0,402.0"/>
    <path d="M 268.0,459.0 L 295.0,481.0 L 284.0,543.0 L 268.0,584.0 L 239.0,630.0 L 193.0,675.0"/>
    <path d="M 386.0,434.0 L 400.0,444.0 L 410.0,467.0 L 410.0,574.0 L 401.0,614.0 L 395.0,625.0 L 381.0,624.0 L 311.0,605.0"/>
    <path d="M 204.0,517.0 L 184.0,567.0 L 150.0,621.0"/>
    <path d="M 433.0,502.0 L 485.0,537.0 L 499.0,561.0"/>
    <path d="M 595.0,201.0 L 627.0,230.0 L 625.0,257.0 L 580.0,369.0 L 521.0,459.0"/>
    <path d="M 610.0,366.0 L 714.0,349.0 L 805.0,325.0 L 840.0,329.0"/>
    <path d="M 695.0,379.0 L 720.0,405.0 L 693.0,474.0 L 666.0,523.0 L 635.0,559.0 L 600.0,584.0 L 519.0,614.0"/>
    <path d="M 568.0,451.0 L 586.0,455.0 L 627.0,482.0 L 694.0,548.0 L 787.0,613.0 L 825.0,623.0 L 945.0,635.0"/>
    <path d="M 290.0,734.0 L 322.0,759.0 L 363.0,909.0"/>
    <path d="M 352.0,738.0 L 361.0,747.0 L 376.0,748.0 L 656.0,698.0 L 676.0,707.0 L 697.0,735.0 L 670.0,794.0 L 646.0,810.0"/>
    <path d="M 380.0,865.0 L 391.0,873.0 L 635.0,835.0 L 674.0,836.0 L 693.0,843.0"/>
    <path d="M 463.0,643.0 L 485.0,657.0 L 505.0,680.0 L 499.0,936.0 L 483.0,957.0"/>
    <path d="M 249.0,995.0 L 309.0,1022.0 L 617.0,961.0 L 643.0,957.0 L 659.0,962.0"/>
    <path d="M 638.0,891.0 L 727.0,996.0 L 740.0,1030.0 L 744.0,1064.0"/>
  </g>
</svg>
