<svg xmlns="http://www.w3.org/2000/svg" viewBox="0 0 1024 1024">
  <g style="fill:none;stroke:#000000;stroke-width:50;stroke-linecap:round;stroke-linejoin:round;" transform="scale(1, 1) translate(0, 0)">
    <path d="M 108.0,472.0 L 134.0,494.0 L 141.0,508.0 L 176.0,654.0"/>
    <path d="M 159.0,477.0 L 180.0,483.0 L 348.0,439.0 L 373.0,440.0 L 403.0,468.0 L 380.0,541.0 L 358.0,554.0"/>
    <path d="M 192.0,626.0 L 202.0,618.0 L 357.0,583.0 L 412.0,586.0"/>
    <path d="M 227.0,253.0 L 273.0,291.0 L 275.0,310.0 L 265.0,723.0 L 248.0,745.0"/>
    <path d="M 92.0,803.0 L 146.0,818.0 L 372.0,722.0 L 380.0,725.0"/>
    <path d="M 366.0,655.0 L 412.0,713.0 L 422.0,731.0 L 426.0,760.0"/>
    <path d="M 444.0,270.0 L 463.0,284.0 L 479.0,311.0 L 520.0,489.0"/>
    <path d="M 490.0,270.0 L 516.0,279.0 L 733.0,239.0 L 780.0,237.0 L 807.0,243.0 L 832.0,282.0 L 807.0,334.0 L 770.0,441.0 L 766.0,449.0 L 759.0,449.0"/>
    <path d="M 560.0,373.0 L 602.0,369.0 L 685.0,347.0 L 725.0,351.0"/>
    <path d="M 606.0,279.0 L 630.0,295.0 L 635.0,307.0 L 636.0,416.0 L 623.0,430.0"/>
    <path d="M 540.0,455.0 L 547.0,462.0 L 560.0,461.0 L 740.0,432.0"/>
    <path d="M 569.0,479.0 L 586.0,496.0 L 587.0,511.0 L 515.0,604.0 L 506.0,625.0 L 548.0,632.0 L 626.0,623.0"/>
    <path d="M 723.0,509.0 L 735.0,548.0 L 670.0,618.0 L 556.0,716.0 L 546.0,729.0 L 541.0,755.0 L 575.0,760.0 L 742.0,724.0 L 758.0,723.0 L 767.0,730.0"/>
    <path d="M 739.0,651.0 L 801.0,720.0 L 812.0,756.0"/>
    <path d="M 622.0,769.0 L 648.0,788.0 L 654.0,808.0 L 655.0,952.0 L 645.0,996.0 L 636.0,1009.0 L 615.0,1006.0 L 540.0,977.0"/>
    <path d="M 482.0,845.0 L 452.0,912.0 L 412.0,971.0"/>
    <path d="M 765.0,836.0 L 864.0,917.0 L 886.0,974.0"/>
  </g>
</svg>
