<svg xmlns="http://www.w3.org/2000/svg" viewBox="0 0 1024 1024">
  <g style="fill:none;stroke:#000000;stroke-width:50;stroke-linecap:round;stroke-linejoin:round;" transform="scale(1, 1) translate(0, 0)">
    <path d="M 103.0,512.0 L 129.0,535.0 L 135.0,548.0 L 164.0,698.0"/>
    <path d="M 157.0,518.0 L 176.0,524.0 L 329.0,489.0 L 362.0,487.0 L 392.0,516.0 L 369.0,593.0 L 348.0,603.0"/>
    <path d="M 182.0,671.0 L 194.0,664.0 L 334.0,635.0 L 376.0,633.0 L 398.0,639.0"/>
    <path d="M 219.0,297.0 L 265.0,335.0 L 267.0,355.0 L 259.0,761.0 L 257.0,784.0 L 240.0,804.0"/>
    <path d="M 85.0,857.0 L 135.0,871.0 L 332.0,797.0 L 348.0,801.0"/>
    <path d="M 342.0,735.0 L 394.0,808.0 L 402.0,849.0"/>
    <path d="M 502.0,290.0 L 545.0,296.0 L 595.0,292.0 L 740.0,260.0 L 807.0,256.0"/>
    <path d="M 443.0,413.0 L 468.0,434.0 L 478.0,452.0 L 508.0,594.0"/>
    <path d="M 495.0,415.0 L 518.0,423.0 L 756.0,378.0 L 816.0,378.0 L 845.0,413.0 L 798.0,540.0 L 799.0,564.0"/>
    <path d="M 561.0,345.0 L 576.0,360.0 L 586.0,383.0 L 596.0,512.0 L 595.0,523.0 L 586.0,531.0"/>
    <path d="M 676.0,304.0 L 710.0,332.0 L 688.0,490.0 L 680.0,509.0 L 670.0,516.0"/>
    <path d="M 528.0,572.0 L 544.0,562.0 L 756.0,526.0"/>
    <path d="M 533.0,647.0 L 580.0,655.0 L 703.0,631.0 L 756.0,632.0"/>
    <path d="M 441.0,760.0 L 479.0,768.0 L 631.0,743.0 L 818.0,724.0 L 895.0,740.0"/>
    <path d="M 617.0,770.0 L 639.0,786.0 L 650.0,815.0 L 651.0,946.0 L 640.0,988.0 L 629.0,1002.0 L 613.0,998.0 L 531.0,960.0"/>
    <path d="M 502.0,842.0 L 473.0,913.0 L 434.0,976.0"/>
    <path d="M 749.0,836.0 L 836.0,903.0 L 857.0,931.0 L 867.0,961.0"/>
  </g>
</svg>
