<svg xmlns="http://www.w3.org/2000/svg" viewBox="0 0 1024 1024">
  <g style="fill:none;stroke:#000000;stroke-width:50;stroke-linecap:round;stroke-linejoin:round;" transform="scale(1, 1) translate(0, 0)">
    <path d="M 84.0,484.0 L 118.0,525.0 L 152.0,670.0"/>
    <path d="M 110.0,480.0 L 142.0,491.0 L 227.0,475.0 L 324.0,447.0 L 348.0,449.0 L 376.0,476.0 L 351.0,556.0 L 329.0,575.0"/>
    <path d="M 170.0,639.0 L 178.0,630.0 L 319.0,599.0 L 367.0,596.0 L 384.0,603.0"/>
    <path d="M 201.0,285.0 L 246.0,321.0 L 248.0,347.0 L 242.0,708.0 L 240.0,732.0 L 225.0,752.0"/>
    <path d="M 84.0,814.0 L 135.0,825.0 L 331.0,735.0 L 335.0,723.0"/>
    <path d="M 329.0,666.0 L 379.0,741.0 L 384.0,771.0"/>
    <path d="M 773.0,261.0 L 709.0,247.0 L 629.0,289.0 L 506.0,330.0 L 492.0,326.0 L 480.0,335.0"/>
    <path d="M 477.0,381.0 L 521.0,421.0 L 533.0,440.0"/>
    <path d="M 761.0,313.0 L 777.0,343.0 L 701.0,414.0"/>
    <path d="M 436.0,521.0 L 471.0,528.0 L 781.0,475.0 L 857.0,487.0"/>
    <path d="M 581.0,326.0 L 610.0,343.0 L 626.0,362.0 L 618.0,583.0 L 618.0,675.0 L 625.0,716.0"/>
    <path d="M 594.0,528.0 L 584.0,541.0 L 579.0,565.0 L 527.0,627.0 L 452.0,683.0 L 425.0,695.0"/>
    <path d="M 645.0,521.0 L 721.0,596.0 L 796.0,651.0 L 855.0,664.0 L 954.0,670.0"/>
    <path d="M 432.0,795.0 L 416.0,868.0 L 387.0,923.0 L 380.0,949.0"/>
    <path d="M 491.0,821.0 L 502.0,836.0 L 521.0,889.0 L 558.0,932.0 L 623.0,964.0 L 723.0,978.0 L 775.0,973.0 L 813.0,955.0 L 760.0,833.0"/>
    <path d="M 580.0,766.0 L 636.0,811.0 L 657.0,853.0"/>
    <path d="M 773.0,739.0 L 858.0,792.0 L 875.0,806.0 L 895.0,839.0"/>
  </g>
</svg>
