<svg xmlns="http://www.w3.org/2000/svg" viewBox="0 0 1024 1024">
  <g style="fill:none;stroke:#000000;stroke-width:50;stroke-linecap:round;stroke-linejoin:round;" transform="scale(1, 1) translate(0, 0)">
    <path d="M 71.0,520.0 L 103.0,550.0 L 143.0,712.0"/>
    <path d="M 124.0,523.0 L 146.0,527.0 L 288.0,489.0 L 328.0,491.0 L 352.0,514.0 L 328.0,592.0 L 308.0,603.0"/>
    <path d="M 155.0,677.0 L 166.0,667.0 L 303.0,635.0 L 357.0,638.0"/>
    <path d="M 182.0,297.0 L 231.0,336.0 L 233.0,350.0 L 226.0,771.0 L 210.0,792.0"/>
    <path d="M 73.0,843.0 L 124.0,856.0 L 300.0,783.0 L 318.0,783.0"/>
    <path d="M 307.0,717.0 L 358.0,786.0 L 366.0,821.0"/>
    <path d="M 417.0,401.0 L 435.0,407.0 L 465.0,406.0 L 642.0,366.0 L 820.0,338.0 L 881.0,340.0 L 913.0,348.0"/>
    <path d="M 496.0,278.0 L 516.0,285.0 L 538.0,305.0 L 562.0,564.0"/>
    <path d="M 715.0,200.0 L 749.0,241.0 L 703.0,459.0 L 684.0,475.0"/>
    <path d="M 577.0,526.0 L 591.0,515.0 L 674.0,499.0 L 725.0,498.0 L 743.0,506.0"/>
    <path d="M 397.0,629.0 L 425.0,652.0 L 434.0,717.0 L 434.0,806.0 L 419.0,930.0 L 421.0,969.0"/>
    <path d="M 460.0,670.0 L 471.0,655.0 L 492.0,647.0 L 755.0,596.0 L 852.0,584.0 L 884.0,605.0 L 892.0,624.0 L 888.0,835.0 L 877.0,926.0 L 867.0,954.0 L 848.0,982.0 L 819.0,973.0 L 746.0,930.0"/>
    <path d="M 618.0,530.0 L 642.0,553.0 L 641.0,765.0 L 632.0,918.0 L 644.0,979.0"/>
    <path d="M 507.0,767.0 L 515.0,802.0 L 461.0,861.0 L 459.0,870.0"/>
    <path d="M 487.0,723.0 L 557.0,783.0 L 582.0,826.0"/>
    <path d="M 727.0,725.0 L 732.0,747.0 L 665.0,807.0"/>
    <path d="M 701.0,673.0 L 791.0,752.0 L 803.0,766.0 L 815.0,800.0"/>
  </g>
</svg>
