<svg xmlns="http://www.w3.org/2000/svg" viewBox="0 0 1024 1024">
  <g style="fill:none;stroke:#000000;stroke-width:50;stroke-linecap:round;stroke-linejoin:round;" transform="scale(1, 1) translate(0, 0)">
    <path d="M 331.0,253.0 L 352.0,264.0 L 380.0,268.0 L 563.0,219.0 L 594.0,223.0 L 618.0,250.0 L 606.0,267.0 L 535.0,329.0 L 527.0,327.0"/>
    <path d="M 448.0,321.0 L 504.0,349.0 L 526.0,374.0"/>
    <path d="M 202.0,439.0 L 247.0,445.0 L 690.0,382.0 L 730.0,389.0 L 751.0,413.0 L 708.0,464.0 L 672.0,496.0"/>
    <path d="M 531.0,429.0 L 528.0,446.0 L 538.0,478.0 L 540.0,524.0 L 534.0,584.0 L 520.0,617.0 L 510.0,629.0 L 420.0,591.0"/>
    <path d="M 517.0,428.0 L 511.0,425.0 L 461.0,454.0 L 416.0,507.0 L 322.0,582.0 L 209.0,633.0"/>
    <path d="M 170.0,742.0 L 192.0,756.0 L 202.0,771.0 L 236.0,883.0"/>
    <path d="M 217.0,744.0 L 238.0,750.0 L 359.0,729.0 L 411.0,714.0 L 433.0,715.0 L 460.0,742.0 L 444.0,790.0 L 425.0,804.0"/>
    <path d="M 249.0,850.0 L 269.0,855.0 L 415.0,828.0 L 471.0,834.0"/>
    <path d="M 294.0,649.0 L 330.0,678.0 L 326.0,925.0 L 325.0,935.0 L 313.0,947.0"/>
    <path d="M 156.0,993.0 L 209.0,1006.0 L 421.0,941.0 L 430.0,945.0"/>
    <path d="M 424.0,891.0 L 471.0,960.0 L 480.0,996.0"/>
    <path d="M 529.0,716.0 L 559.0,745.0 L 592.0,876.0"/>
    <path d="M 584.0,737.0 L 602.0,726.0 L 792.0,686.0 L 809.0,693.0 L 828.0,716.0 L 808.0,769.0 L 788.0,782.0"/>
    <path d="M 606.0,829.0 L 617.0,837.0 L 628.0,836.0 L 780.0,808.0 L 812.0,808.0 L 835.0,815.0"/>
    <path d="M 651.0,610.0 L 688.0,643.0 L 687.0,903.0 L 682.0,933.0 L 672.0,941.0"/>
    <path d="M 537.0,975.0 L 580.0,992.0 L 780.0,940.0 L 791.0,939.0 L 798.0,946.0"/>
    <path d="M 785.0,878.0 L 854.0,958.0 L 865.0,987.0 L 868.0,1018.0"/>
  </g>
</svg>
