<svg xmlns="http://www.w3.org/2000/svg" viewBox="0 0 1024 1024">
  <g style="fill:none;stroke:#000000;stroke-width:50;stroke-linecap:round;stroke-linejoin:round;" transform="scale(1, 1) translate(0, 0)">
    <path d="M 76.0,439.0 L 100.0,461.0 L 109.0,484.0 L 136.0,623.0"/>
    <path d="M 125.0,445.0 L 139.0,451.0 L 196.0,440.0 L 293.0,412.0 L 327.0,418.0 L 349.0,437.0 L 323.0,512.0 L 304.0,525.0"/>
    <path d="M 152.0,591.0 L 163.0,582.0 L 296.0,551.0 L 351.0,555.0"/>
    <path d="M 181.0,260.0 L 228.0,296.0 L 226.0,666.0 L 225.0,678.0 L 210.0,700.0"/>
    <path d="M 70.0,762.0 L 120.0,773.0 L 300.0,681.0 L 318.0,679.0"/>
    <path d="M 308.0,618.0 L 337.0,657.0 L 351.0,690.0"/>
    <path d="M 386.0,330.0 L 407.0,335.0 L 456.0,333.0 L 559.0,313.0 L 741.0,290.0 L 802.0,304.0"/>
    <path d="M 453.0,239.0 L 483.0,257.0 L 489.0,267.0 L 512.0,401.0"/>
    <path d="M 665.0,186.0 L 689.0,219.0 L 659.0,321.0 L 631.0,388.0"/>
    <path d="M 408.0,511.0 L 447.0,518.0 L 529.0,507.0 L 674.0,476.0 L 712.0,472.0 L 747.0,478.0"/>
    <path d="M 540.0,423.0 L 560.0,455.0 L 535.0,533.0 L 489.0,618.0 L 404.0,712.0 L 344.0,758.0 L 307.0,777.0"/>
    <path d="M 639.0,517.0 L 654.0,516.0 L 752.0,630.0 L 826.0,692.0 L 958.0,720.0"/>
    <path d="M 748.0,378.0 L 810.0,421.0 L 823.0,448.0"/>
    <path d="M 340.0,814.0 L 374.0,821.0 L 588.0,789.0 L 753.0,773.0 L 791.0,775.0 L 835.0,788.0"/>
    <path d="M 475.0,696.0 L 511.0,728.0 L 505.0,801.0 L 491.0,864.0 L 468.0,913.0 L 440.0,949.0 L 403.0,983.0 L 368.0,1003.0"/>
    <path d="M 646.0,661.0 L 662.0,675.0 L 674.0,700.0 L 672.0,981.0 L 685.0,1059.0"/>
  </g>
</svg>
