<svg xmlns="http://www.w3.org/2000/svg" viewBox="0 0 1024 1024">
  <g style="fill:none;stroke:#000000;stroke-width:50;stroke-linecap:round;stroke-linejoin:round;" transform="scale(1, 1) translate(0, 0)">
    <path d="M 61.0,534.0 L 77.0,545.0 L 100.0,575.0 L 135.0,713.0"/>
    <path d="M 97.0,529.0 L 101.0,535.0 L 140.0,541.0 L 304.0,504.0 L 341.0,502.0 L 354.0,509.0 L 375.0,538.0 L 348.0,606.0 L 319.0,628.0"/>
    <path d="M 153.0,692.0 L 181.0,678.0 L 309.0,652.0 L 359.0,647.0 L 379.0,653.0"/>
    <path d="M 191.0,281.0 L 242.0,322.0 L 243.0,334.0 L 231.0,775.0 L 229.0,797.0 L 212.0,819.0"/>
    <path d="M 48.0,878.0 L 101.0,892.0 L 273.0,821.0 L 304.0,810.0 L 314.0,812.0"/>
    <path d="M 302.0,748.0 L 355.0,819.0 L 364.0,859.0"/>
    <path d="M 465.0,383.0 L 495.0,388.0 L 555.0,384.0 L 655.0,362.0 L 737.0,335.0 L 768.0,329.0 L 804.0,333.0"/>
    <path d="M 589.0,198.0 L 630.0,235.0 L 619.0,436.0 L 602.0,457.0"/>
    <path d="M 497.0,487.0 L 520.0,493.0 L 558.0,492.0 L 692.0,460.0 L 752.0,456.0"/>
    <path d="M 450.0,567.0 L 479.0,586.0 L 511.0,680.0 L 524.0,701.0"/>
    <path d="M 509.0,586.0 L 528.0,575.0 L 613.0,563.0 L 707.0,540.0 L 728.0,548.0 L 747.0,573.0 L 726.0,615.0 L 703.0,626.0"/>
    <path d="M 534.0,670.0 L 543.0,677.0 L 697.0,654.0 L 747.0,662.0"/>
    <path d="M 514.0,706.0 L 541.0,748.0 L 548.0,767.0 L 544.0,785.0"/>
    <path d="M 671.0,681.0 L 695.0,705.0 L 668.0,759.0 L 648.0,769.0"/>
    <path d="M 405.0,820.0 L 452.0,828.0 L 578.0,806.0 L 877.0,771.0 L 947.0,788.0"/>
    <path d="M 435.0,889.0 L 468.0,918.0 L 504.0,1080.0"/>
    <path d="M 497.0,893.0 L 512.0,905.0 L 713.0,870.0 L 734.0,873.0 L 766.0,906.0 L 731.0,979.0 L 702.0,999.0"/>
    <path d="M 522.0,1027.0 L 533.0,1037.0 L 544.0,1037.0 L 739.0,1024.0 L 768.0,1036.0"/>
  </g>
</svg>
