<svg xmlns="http://www.w3.org/2000/svg" viewBox="0 0 1024 1024">
  <g style="fill:none;stroke:#000000;stroke-width:50;stroke-linecap:round;stroke-linejoin:round;" transform="scale(1, 1) translate(0, 0)">
    <path d="M 432.0,162.0 L 509.0,200.0 L 540.0,237.0"/>
    <path d="M 223.0,326.0 L 281.0,335.0 L 691.0,279.0 L 758.0,287.0"/>
    <path d="M 391.0,346.0 L 369.0,366.0 L 361.0,419.0 L 366.0,431.0 L 407.0,428.0 L 502.0,407.0 L 607.0,396.0 L 657.0,398.0 L 696.0,409.0"/>
    <path d="M 313.0,492.0 L 339.0,512.0 L 368.0,624.0"/>
    <path d="M 368.0,498.0 L 378.0,506.0 L 616.0,463.0 L 634.0,471.0 L 652.0,496.0 L 638.0,523.0 L 612.0,542.0"/>
    <path d="M 384.0,590.0 L 393.0,598.0 L 599.0,567.0 L 642.0,566.0 L 667.0,574.0"/>
    <path d="M 163.0,636.0 L 189.0,660.0 L 193.0,687.0 L 192.0,769.0 L 179.0,873.0 L 149.0,970.0 L 98.0,1053.0"/>
    <path d="M 218.0,663.0 L 282.0,639.0 L 296.0,644.0 L 314.0,663.0 L 316.0,965.0 L 308.0,1004.0 L 296.0,1015.0 L 235.0,990.0 L 218.0,991.0"/>
    <path d="M 218.0,769.0 L 224.0,758.0 L 255.0,752.0 L 271.0,755.0"/>
    <path d="M 198.0,864.0 L 228.0,850.0 L 274.0,851.0"/>
    <path d="M 345.0,748.0 L 370.0,774.0 L 397.0,884.0"/>
    <path d="M 382.0,748.0 L 395.0,755.0 L 523.0,724.0 L 551.0,725.0 L 572.0,749.0 L 555.0,796.0 L 537.0,809.0"/>
    <path d="M 410.0,850.0 L 420.0,856.0 L 532.0,832.0 L 580.0,836.0"/>
    <path d="M 437.0,632.0 L 470.0,658.0 L 471.0,666.0 L 467.0,904.0 L 456.0,925.0"/>
    <path d="M 362.0,959.0 L 401.0,970.0 L 503.0,932.0 L 522.0,931.0 L 526.0,920.0"/>
    <path d="M 532.0,890.0 L 566.0,936.0 L 571.0,954.0"/>
    <path d="M 624.0,624.0 L 653.0,650.0 L 656.0,664.0 L 657.0,754.0 L 649.0,834.0 L 614.0,964.0 L 587.0,1016.0 L 562.0,1048.0"/>
    <path d="M 683.0,654.0 L 692.0,644.0 L 763.0,618.0 L 783.0,617.0 L 803.0,632.0 L 781.0,754.0 L 780.0,867.0 L 802.0,946.0 L 832.0,988.0 L 862.0,1012.0 L 892.0,1024.0 L 931.0,1019.0 L 947.0,899.0"/>
    <path d="M 676.0,795.0 L 720.0,836.0 L 734.0,862.0"/>
  </g>
</svg>
