<svg xmlns="http://www.w3.org/2000/svg" viewBox="0 0 1024 1024">
  <g style="fill:none;stroke:#000000;stroke-width:50;stroke-linecap:round;stroke-linejoin:round;" transform="scale(1, 1) translate(0, 0)">
    <path d="M 53.0,500.0 L 88.0,539.0 L 116.0,660.0"/>
    <path d="M 98.0,502.0 L 132.0,499.0 L 260.0,448.0 L 297.0,448.0 L 317.0,467.0 L 286.0,556.0 L 268.0,567.0"/>
    <path d="M 130.0,641.0 L 162.0,623.0 L 259.0,590.0 L 306.0,589.0"/>
    <path d="M 164.0,294.0 L 207.0,330.0 L 208.0,354.0 L 194.0,713.0 L 178.0,732.0"/>
    <path d="M 48.0,794.0 L 94.0,800.0 L 254.0,723.0 L 268.0,708.0"/>
    <path d="M 271.0,671.0 L 302.0,720.0 L 307.0,739.0"/>
    <path d="M 365.0,290.0 L 385.0,308.0 L 394.0,328.0 L 417.0,458.0 L 417.0,496.0"/>
    <path d="M 410.0,289.0 L 423.0,300.0 L 531.0,272.0 L 560.0,271.0 L 592.0,293.0 L 597.0,301.0 L 574.0,430.0 L 557.0,487.0 L 563.0,506.0"/>
    <path d="M 436.0,404.0 L 441.0,396.0 L 469.0,389.0 L 501.0,386.0 L 517.0,391.0"/>
    <path d="M 432.0,502.0 L 451.0,491.0 L 526.0,472.0"/>
    <path d="M 422.0,513.0 L 442.0,535.0 L 438.0,556.0 L 410.0,608.0 L 340.0,684.0"/>
    <path d="M 411.0,641.0 L 421.0,636.0 L 442.0,639.0 L 547.0,611.0 L 564.0,611.0 L 583.0,626.0 L 572.0,811.0 L 546.0,933.0 L 532.0,960.0 L 513.0,977.0 L 458.0,938.0"/>
    <path d="M 433.0,658.0 L 449.0,672.0 L 454.0,688.0 L 450.0,699.0 L 402.0,780.0 L 370.0,812.0"/>
    <path d="M 458.0,735.0 L 502.0,775.0 L 512.0,804.0"/>
    <path d="M 282.0,784.0 L 311.0,815.0 L 306.0,913.0 L 328.0,911.0 L 372.0,888.0 L 440.0,867.0 L 466.0,862.0 L 505.0,868.0"/>
    <path d="M 730.0,250.0 L 755.0,264.0 L 772.0,285.0 L 763.0,328.0 L 738.0,414.0 L 703.0,502.0 L 656.0,586.0"/>
    <path d="M 707.0,537.0 L 802.0,505.0 L 842.0,497.0 L 865.0,501.0 L 882.0,518.0 L 822.0,600.0"/>
    <path d="M 716.0,634.0 L 750.0,665.0 L 740.0,742.0 L 723.0,807.0 L 687.0,875.0 L 655.0,913.0 L 616.0,945.0 L 572.0,968.0"/>
    <path d="M 756.0,788.0 L 761.0,808.0 L 778.0,833.0 L 872.0,945.0 L 940.0,970.0 L 977.0,976.0"/>
  </g>
</svg>
