<svg xmlns="http://www.w3.org/2000/svg" viewBox="0 0 1024 1024">
  <g style="fill:none;stroke:#000000;stroke-width:50;stroke-linecap:round;stroke-linejoin:round;" transform="scale(1, 1) translate(0, 0)">
    <path d="M 428.0,184.0 L 447.0,211.0 L 411.0,270.0 L 382.0,301.0 L 374.0,322.0 L 391.0,327.0 L 510.0,321.0 L 521.0,325.0 L 539.0,315.0"/>
    <path d="M 461.0,244.0 L 548.0,238.0 L 559.0,232.0 L 580.0,233.0 L 609.0,248.0 L 555.0,331.0 L 520.0,367.0"/>
    <path d="M 197.0,414.0 L 238.0,421.0 L 460.0,388.0 L 750.0,360.0 L 817.0,377.0"/>
    <path d="M 460.0,418.0 L 419.0,432.0 L 392.0,452.0 L 306.0,494.0 L 236.0,513.0"/>
    <path d="M 461.0,433.0 L 484.0,438.0 L 535.0,486.0 L 558.0,546.0 L 559.0,602.0 L 553.0,630.0 L 530.0,660.0 L 437.0,630.0"/>
    <path d="M 498.0,475.0 L 473.0,474.0 L 438.0,506.0 L 359.0,555.0 L 284.0,587.0 L 267.0,585.0 L 263.0,591.0"/>
    <path d="M 516.0,499.0 L 510.0,534.0 L 460.0,577.0 L 375.0,629.0 L 325.0,643.0"/>
    <path d="M 649.0,390.0 L 668.0,423.0 L 582.0,485.0 L 567.0,486.0"/>
    <path d="M 563.0,492.0 L 590.0,526.0 L 739.0,613.0 L 789.0,621.0 L 913.0,619.0"/>
    <path d="M 161.0,763.0 L 191.0,793.0 L 220.0,923.0"/>
    <path d="M 210.0,767.0 L 223.0,776.0 L 402.0,737.0 L 421.0,739.0 L 448.0,765.0 L 425.0,822.0 L 404.0,836.0"/>
    <path d="M 236.0,881.0 L 245.0,889.0 L 390.0,861.0 L 429.0,859.0 L 451.0,865.0"/>
    <path d="M 285.0,670.0 L 312.0,690.0 L 321.0,709.0 L 319.0,935.0 L 314.0,962.0 L 304.0,971.0"/>
    <path d="M 156.0,1009.0 L 204.0,1027.0 L 411.0,966.0 L 419.0,971.0"/>
    <path d="M 409.0,913.0 L 456.0,973.0 L 469.0,1019.0"/>
    <path d="M 505.0,735.0 L 526.0,753.0 L 535.0,770.0 L 560.0,895.0"/>
    <path d="M 547.0,737.0 L 565.0,746.0 L 751.0,708.0 L 773.0,711.0 L 799.0,741.0 L 777.0,792.0 L 755.0,806.0"/>
    <path d="M 579.0,869.0 L 586.0,859.0 L 716.0,836.0 L 781.0,832.0 L 802.0,839.0"/>
    <path d="M 623.0,634.0 L 651.0,656.0 L 660.0,673.0 L 659.0,913.0 L 657.0,937.0 L 643.0,951.0"/>
    <path d="M 508.0,985.0 L 543.0,1001.0 L 560.0,1002.0 L 755.0,948.0 L 767.0,946.0 L 774.0,953.0"/>
    <path d="M 769.0,902.0 L 837.0,975.0 L 851.0,1004.0 L 856.0,1037.0"/>
  </g>
</svg>
