<svg xmlns="http://www.w3.org/2000/svg" viewBox="0 0 1024 1024">
  <g style="fill:none;stroke:#000000;stroke-width:50;stroke-linecap:round;stroke-linejoin:round;" transform="scale(1, 1) translate(0, 0)">
    <path d="M 92.0,500.0 L 123.0,529.0 L 164.0,686.0"/>
    <path d="M 147.0,504.0 L 157.0,510.0 L 173.0,506.0 L 335.0,451.0 L 356.0,450.0 L 387.0,477.0 L 364.0,559.0 L 343.0,577.0"/>
    <path d="M 182.0,648.0 L 185.0,641.0 L 332.0,600.0 L 393.0,597.0"/>
    <path d="M 217.0,263.0 L 250.0,288.0 L 264.0,311.0 L 255.0,728.0 L 253.0,752.0 L 238.0,771.0"/>
    <path d="M 67.0,836.0 L 115.0,849.0 L 307.0,771.0 L 341.0,753.0 L 343.0,746.0"/>
    <path d="M 343.0,694.0 L 379.0,764.0 L 383.0,795.0"/>
    <path d="M 509.0,233.0 L 533.0,271.0 L 480.0,375.0 L 477.0,392.0 L 493.0,408.0 L 534.0,429.0 L 546.0,452.0"/>
    <path d="M 636.0,199.0 L 654.0,219.0 L 659.0,238.0 L 599.0,336.0 L 596.0,353.0 L 610.0,370.0 L 654.0,401.0 L 664.0,425.0"/>
    <path d="M 770.0,175.0 L 783.0,188.0 L 794.0,218.0 L 748.0,295.0 L 739.0,322.0 L 744.0,334.0 L 757.0,343.0 L 814.0,367.0 L 832.0,390.0"/>
    <path d="M 449.0,504.0 L 480.0,537.0 L 516.0,684.0"/>
    <path d="M 493.0,507.0 L 511.0,509.0 L 746.0,447.0 L 783.0,445.0 L 796.0,451.0 L 818.0,486.0 L 752.0,644.0"/>
    <path d="M 687.0,496.0 L 667.0,503.0 L 624.0,574.0 L 598.0,602.0 L 558.0,628.0"/>
    <path d="M 561.0,549.0 L 670.0,564.0 L 711.0,586.0"/>
    <path d="M 529.0,676.0 L 549.0,664.0 L 684.0,635.0 L 718.0,633.0 L 727.0,642.0"/>
    <path d="M 440.0,699.0 L 461.0,723.0 L 467.0,743.0 L 456.0,820.0 L 419.0,965.0 L 421.0,989.0 L 463.0,983.0 L 532.0,948.0"/>
    <path d="M 507.0,767.0 L 543.0,800.0"/>
    <path d="M 504.0,847.0 L 551.0,885.0"/>
    <path d="M 574.0,676.0 L 598.0,688.0 L 608.0,707.0 L 590.0,947.0 L 596.0,986.0 L 653.0,964.0 L 676.0,945.0 L 690.0,942.0 L 695.0,930.0 L 714.0,922.0"/>
    <path d="M 661.0,730.0 L 703.0,759.0"/>
    <path d="M 658.0,815.0 L 696.0,856.0"/>
    <path d="M 719.0,672.0 L 755.0,713.0 L 761.0,805.0 L 777.0,878.0 L 796.0,923.0 L 837.0,984.0 L 892.0,1020.0 L 939.0,1023.0 L 951.0,916.0"/>
  </g>
</svg>
