<svg xmlns="http://www.w3.org/2000/svg" viewBox="0 0 1024 1024">
  <g style="fill:none;stroke:#000000;stroke-width:50;stroke-linecap:round;stroke-linejoin:round;" transform="scale(1, 1) translate(0, 0)">
    <path d="M 93.0,512.0 L 117.0,533.0 L 126.0,552.0 L 160.0,692.0"/>
    <path d="M 138.0,514.0 L 164.0,517.0 L 291.0,479.0 L 329.0,481.0 L 346.0,502.0 L 325.0,582.0 L 308.0,590.0"/>
    <path d="M 175.0,662.0 L 188.0,651.0 L 284.0,625.0 L 333.0,618.0 L 357.0,623.0"/>
    <path d="M 193.0,287.0 L 234.0,322.0 L 236.0,341.0 L 231.0,719.0 L 225.0,750.0 L 214.0,760.0"/>
    <path d="M 80.0,811.0 L 130.0,823.0 L 304.0,754.0 L 308.0,743.0"/>
    <path d="M 311.0,691.0 L 342.0,752.0 L 350.0,798.0"/>
    <path d="M 509.0,237.0 L 534.0,250.0 L 543.0,262.0 L 563.0,371.0"/>
    <path d="M 384.0,327.0 L 435.0,339.0 L 611.0,299.0"/>
    <path d="M 713.0,188.0 L 737.0,218.0 L 723.0,285.0 L 698.0,360.0"/>
    <path d="M 672.0,298.0 L 818.0,277.0 L 843.0,277.0 L 871.0,286.0"/>
    <path d="M 489.0,441.0 L 537.0,442.0 L 714.0,400.0 L 754.0,404.0 L 772.0,424.0 L 770.0,433.0 L 739.0,521.0 L 720.0,535.0"/>
    <path d="M 395.0,526.0 L 438.0,531.0 L 676.0,490.0 L 835.0,471.0 L 885.0,473.0 L 916.0,482.0"/>
    <path d="M 495.0,589.0 L 518.0,593.0 L 719.0,559.0 L 752.0,558.0 L 771.0,566.0"/>
    <path d="M 598.0,358.0 L 631.0,384.0 L 635.0,404.0 L 627.0,1063.0"/>
    <path d="M 408.0,644.0 L 435.0,671.0 L 427.0,830.0 L 416.0,884.0 L 395.0,944.0 L 370.0,994.0 L 346.0,1025.0"/>
    <path d="M 816.0,577.0 L 843.0,611.0 L 836.0,985.0 L 849.0,1056.0"/>
    <path d="M 525.0,630.0 L 539.0,659.0 L 534.0,704.0 L 542.0,710.0"/>
    <path d="M 457.0,755.0 L 518.0,735.0 L 558.0,738.0"/>
    <path d="M 706.0,604.0 L 725.0,625.0 L 730.0,685.0 L 753.0,689.0 L 810.0,672.0 L 819.0,677.0"/>
    <path d="M 490.0,800.0 L 568.0,793.0 L 752.0,755.0 L 784.0,758.0"/>
    <path d="M 440.0,879.0 L 497.0,859.0 L 516.0,861.0 L 532.0,871.0 L 521.0,963.0 L 528.0,1012.0"/>
    <path d="M 753.0,852.0 L 756.0,843.0 L 805.0,835.0 L 815.0,828.0"/>
    <path d="M 703.0,822.0 L 715.0,833.0 L 726.0,862.0 L 720.0,956.0 L 727.0,983.0"/>
  </g>
</svg>
