<svg xmlns="http://www.w3.org/2000/svg" viewBox="0 0 1024 1024">
  <g style="fill:none;stroke:#000000;stroke-width:50;stroke-linecap:round;stroke-linejoin:round;" transform="scale(1, 1) translate(0, 0)">
    <path d="M 267.0,254.0 L 309.0,258.0 L 355.0,251.0 L 361.0,245.0 L 442.0,225.0 L 472.0,227.0"/>
    <path d="M 203.0,301.0 L 223.0,321.0 L 210.0,388.0 L 246.0,387.0 L 422.0,348.0 L 487.0,356.0"/>
    <path d="M 323.0,273.0 L 337.0,291.0 L 342.0,312.0 L 301.0,405.0 L 259.0,467.0 L 204.0,532.0 L 139.0,575.0"/>
    <path d="M 371.0,382.0 L 382.0,384.0 L 392.0,395.0 L 392.0,474.0 L 429.0,463.0 L 499.0,420.0"/>
    <path d="M 583.0,230.0 L 640.0,232.0 L 753.0,201.0 L 781.0,202.0"/>
    <path d="M 542.0,280.0 L 562.0,300.0 L 551.0,360.0 L 557.0,362.0 L 787.0,320.0 L 821.0,320.0 L 858.0,329.0"/>
    <path d="M 645.0,256.0 L 665.0,278.0 L 644.0,344.0 L 618.0,395.0 L 559.0,457.0 L 491.0,488.0"/>
    <path d="M 690.0,353.0 L 710.0,374.0 L 710.0,447.0 L 734.0,469.0 L 769.0,477.0 L 828.0,475.0 L 885.0,456.0 L 901.0,435.0 L 906.0,373.0"/>
    <path d="M 329.0,544.0 L 361.0,575.0 L 396.0,712.0"/>
    <path d="M 389.0,548.0 L 396.0,556.0 L 465.0,539.0 L 613.0,516.0 L 659.0,519.0 L 683.0,550.0 L 629.0,688.0"/>
    <path d="M 404.0,626.0 L 409.0,618.0 L 494.0,604.0 L 545.0,598.0 L 564.0,602.0"/>
    <path d="M 412.0,698.0 L 421.0,689.0 L 435.0,692.0 L 447.0,685.0 L 493.0,679.0 L 600.0,668.0 L 607.0,675.0"/>
    <path d="M 175.0,801.0 L 204.0,827.0 L 236.0,931.0"/>
    <path d="M 221.0,803.0 L 235.0,808.0 L 283.0,805.0 L 413.0,776.0 L 429.0,783.0 L 443.0,800.0 L 425.0,842.0 L 406.0,849.0"/>
    <path d="M 251.0,911.0 L 257.0,904.0 L 392.0,875.0 L 445.0,879.0"/>
    <path d="M 286.0,711.0 L 318.0,739.0 L 320.0,751.0 L 315.0,937.0 L 310.0,954.0 L 301.0,961.0"/>
    <path d="M 119.0,1013.0 L 164.0,1028.0 L 397.0,955.0 L 406.0,958.0"/>
    <path d="M 404.0,918.0 L 445.0,981.0"/>
    <path d="M 497.0,780.0 L 522.0,806.0 L 549.0,912.0"/>
    <path d="M 541.0,784.0 L 552.0,790.0 L 676.0,768.0 L 732.0,751.0 L 748.0,752.0 L 768.0,763.0 L 779.0,779.0 L 756.0,827.0 L 736.0,834.0"/>
    <path d="M 563.0,897.0 L 576.0,886.0 L 725.0,862.0 L 776.0,869.0"/>
    <path d="M 610.0,707.0 L 644.0,739.0 L 639.0,954.0 L 635.0,969.0 L 625.0,976.0"/>
    <path d="M 476.0,1013.0 L 521.0,1031.0 L 731.0,975.0 L 758.0,975.0"/>
    <path d="M 738.0,923.0 L 829.0,1014.0 L 844.0,1040.0 L 851.0,1073.0"/>
  </g>
</svg>
