<svg xmlns="http://www.w3.org/2000/svg" viewBox="0 0 1024 1024">
  <g style="fill:none;stroke:#000000;stroke-width:50;stroke-linecap:round;stroke-linejoin:round;" transform="scale(1, 1) translate(0, 0)">
    <path d="M 242.0,252.0 L 266.0,266.0 L 277.0,282.0 L 245.0,369.0 L 201.0,463.0 L 184.0,477.0"/>
    <path d="M 85.0,485.0 L 109.0,504.0 L 126.0,532.0 L 152.0,689.0 L 152.0,713.0 L 141.0,721.0"/>
    <path d="M 154.0,518.0 L 161.0,502.0 L 317.0,457.0 L 372.0,448.0 L 390.0,458.0 L 407.0,476.0 L 384.0,633.0 L 381.0,650.0 L 357.0,672.0"/>
    <path d="M 215.0,513.0 L 222.0,539.0 L 231.0,704.0"/>
    <path d="M 279.0,490.0 L 303.0,500.0 L 308.0,514.0 L 293.0,682.0 L 282.0,692.0"/>
    <path d="M 60.0,754.0 L 115.0,770.0 L 361.0,697.0 L 436.0,667.0"/>
    <path d="M 476.0,391.0 L 546.0,446.0 L 558.0,474.0"/>
    <path d="M 798.0,303.0 L 820.0,336.0 L 751.0,417.0 L 722.0,442.0"/>
    <path d="M 489.0,569.0 L 531.0,573.0 L 587.0,567.0 L 768.0,519.0 L 817.0,518.0"/>
    <path d="M 429.0,735.0 L 489.0,741.0 L 688.0,704.0 L 847.0,683.0 L 902.0,688.0 L 936.0,699.0"/>
    <path d="M 599.0,219.0 L 613.0,220.0 L 635.0,233.0 L 652.0,249.0 L 657.0,263.0 L 650.0,487.0 L 651.0,1070.0"/>
  </g>
</svg>
