<svg xmlns="http://www.w3.org/2000/svg" viewBox="0 0 1024 1024">
  <g style="fill:none;stroke:#000000;stroke-width:50;stroke-linecap:round;stroke-linejoin:round;" transform="scale(1, 1) translate(0, 0)">
    <path d="M 291.0,244.0 L 306.0,251.0 L 327.0,279.0 L 254.0,408.0 L 165.0,533.0"/>
    <path d="M 83.0,545.0 L 106.0,562.0 L 127.0,601.0 L 156.0,766.0 L 156.0,786.0 L 147.0,794.0"/>
    <path d="M 129.0,548.0 L 157.0,554.0 L 180.0,550.0 L 388.0,492.0 L 414.0,492.0 L 432.0,501.0 L 450.0,522.0 L 448.0,539.0 L 415.0,710.0 L 389.0,734.0"/>
    <path d="M 230.0,555.0 L 226.0,564.0 L 237.0,633.0 L 244.0,756.0 L 239.0,777.0"/>
    <path d="M 302.0,538.0 L 332.0,553.0 L 321.0,744.0 L 310.0,756.0"/>
    <path d="M 52.0,832.0 L 107.0,851.0 L 501.0,719.0"/>
    <path d="M 524.0,426.0 L 565.0,436.0 L 792.0,394.0 L 814.0,402.0 L 835.0,432.0 L 796.0,642.0 L 772.0,814.0 L 767.0,833.0 L 743.0,857.0"/>
    <path d="M 601.0,454.0 L 625.0,472.0 L 633.0,486.0 L 591.0,846.0 L 571.0,870.0"/>
    <path d="M 488.0,659.0 L 532.0,666.0 L 689.0,641.0 L 739.0,646.0"/>
    <path d="M 378.0,900.0 L 400.0,911.0 L 433.0,916.0 L 646.0,890.0 L 870.0,874.0 L 900.0,874.0 L 964.0,899.0"/>
  </g>
</svg>
