<svg xmlns="http://www.w3.org/2000/svg" viewBox="0 0 1024 1024">
  <g style="fill:none;stroke:#000000;stroke-width:50;stroke-linecap:round;stroke-linejoin:round;" transform="scale(1, 1) translate(0, 0)">
    <path d="M 449.0,268.0 L 466.0,275.0 L 492.0,303.0 L 419.0,449.0 L 349.0,564.0 L 332.0,577.0"/>
    <path d="M 213.0,585.0 L 245.0,610.0 L 265.0,645.0 L 306.0,890.0 L 321.0,897.0"/>
    <path d="M 281.0,595.0 L 309.0,609.0 L 688.0,542.0 L 733.0,543.0 L 752.0,554.0 L 775.0,586.0 L 773.0,599.0 L 722.0,826.0 L 717.0,840.0 L 688.0,864.0"/>
    <path d="M 397.0,617.0 L 408.0,627.0 L 417.0,663.0 L 436.0,890.0"/>
    <path d="M 545.0,591.0 L 583.0,619.0 L 564.0,764.0 L 544.0,863.0 L 532.0,884.0"/>
    <path d="M 113.0,937.0 L 139.0,946.0 L 184.0,949.0 L 396.0,922.0 L 800.0,892.0 L 863.0,897.0 L 929.0,919.0"/>
  </g>
</svg>
