<svg xmlns="http://www.w3.org/2000/svg" viewBox="0 0 1024 1024">
  <g style="fill:none;stroke:#000000;stroke-width:50;stroke-linecap:round;stroke-linejoin:round;" transform="scale(1, 1) translate(0, 0)">
    <path d="M 254.0,326.0 L 278.0,341.0 L 290.0,358.0 L 287.0,368.0 L 215.0,497.0 L 184.0,544.0 L 172.0,552.0"/>
    <path d="M 78.0,569.0 L 99.0,580.0 L 122.0,606.0 L 155.0,730.0 L 163.0,749.0 L 175.0,752.0"/>
    <path d="M 128.0,567.0 L 151.0,576.0 L 338.0,527.0 L 383.0,524.0 L 412.0,552.0 L 389.0,685.0 L 364.0,709.0"/>
    <path d="M 217.0,580.0 L 213.0,590.0 L 237.0,735.0 L 233.0,745.0"/>
    <path d="M 274.0,558.0 L 306.0,584.0 L 297.0,707.0 L 295.0,719.0 L 284.0,725.0"/>
    <path d="M 76.0,788.0 L 112.0,802.0 L 131.0,803.0 L 445.0,703.0"/>
    <path d="M 526.0,263.0 L 562.0,285.0 L 591.0,413.0"/>
    <path d="M 414.0,367.0 L 474.0,372.0 L 623.0,327.0"/>
    <path d="M 717.0,194.0 L 733.0,203.0 L 752.0,229.0 L 720.0,359.0 L 699.0,409.0"/>
    <path d="M 754.0,330.0 L 774.0,314.0 L 846.0,301.0 L 871.0,301.0 L 907.0,312.0"/>
    <path d="M 467.0,476.0 L 493.0,499.0 L 532.0,644.0"/>
    <path d="M 523.0,501.0 L 528.0,488.0 L 628.0,462.0 L 746.0,438.0 L 799.0,442.0 L 821.0,463.0 L 791.0,587.0 L 795.0,603.0"/>
    <path d="M 589.0,492.0 L 598.0,502.0 L 618.0,582.0"/>
    <path d="M 680.0,474.0 L 700.0,492.0 L 681.0,562.0 L 671.0,570.0"/>
    <path d="M 548.0,610.0 L 555.0,616.0 L 706.0,581.0 L 758.0,577.0"/>
    <path d="M 537.0,727.0 L 557.0,734.0 L 619.0,725.0 L 757.0,688.0 L 802.0,686.0"/>
    <path d="M 472.0,711.0 L 487.0,721.0 L 501.0,742.0 L 491.0,824.0 L 472.0,884.0 L 452.0,922.0 L 415.0,967.0 L 374.0,1000.0 L 341.0,1016.0"/>
    <path d="M 535.0,829.0 L 588.0,860.0 L 606.0,885.0"/>
    <path d="M 622.0,630.0 L 661.0,658.0 L 698.0,785.0 L 730.0,854.0 L 760.0,901.0 L 813.0,958.0 L 861.0,991.0 L 889.0,1000.0 L 908.0,996.0 L 919.0,954.0 L 931.0,850.0"/>
    <path d="M 807.0,737.0 L 827.0,770.0 L 772.0,860.0 L 700.0,936.0 L 616.0,996.0"/>
    <path d="M 817.0,629.0 L 888.0,665.0 L 910.0,696.0"/>
  </g>
</svg>
