<svg xmlns="http://www.w3.org/2000/svg" viewBox="0 0 1024 1024">
  <g style="fill:none;stroke:#000000;stroke-width:50;stroke-linecap:round;stroke-linejoin:round;" transform="scale(1, 1) translate(0, 0)">
    <path d="M 282.0,245.0 L 307.0,284.0 L 272.0,351.0 L 225.0,412.0 L 140.0,478.0"/>
    <path d="M 264.0,461.0 L 284.0,484.0 L 291.0,509.0 L 265.0,557.0 L 183.0,672.0 L 109.0,752.0 L 48.0,803.0"/>
    <path d="M 231.0,656.0 L 231.0,679.0 L 244.0,702.0 L 241.0,843.0 L 229.0,953.0 L 235.0,999.0"/>
    <path d="M 378.0,515.0 L 435.0,513.0 L 570.0,468.0 L 593.0,470.0"/>
    <path d="M 439.0,223.0 L 485.0,273.0 L 480.0,606.0 L 474.0,767.0 L 464.0,855.0 L 465.0,941.0"/>
    <path d="M 357.0,615.0 L 384.0,644.0 L 375.0,739.0 L 350.0,827.0 L 307.0,889.0"/>
    <path d="M 556.0,604.0 L 587.0,626.0 L 584.0,714.0 L 579.0,726.0 L 585.0,787.0 L 595.0,805.0 L 619.0,817.0 L 683.0,811.0"/>
    <path d="M 560.0,355.0 L 609.0,382.0 L 624.0,398.0"/>
    <path d="M 687.0,357.0 L 725.0,360.0 L 845.0,327.0 L 887.0,326.0"/>
    <path d="M 596.0,544.0 L 638.0,548.0 L 877.0,496.0 L 911.0,495.0 L 959.0,507.0"/>
    <path d="M 736.0,550.0 L 768.0,568.0 L 778.0,588.0 L 783.0,938.0 L 771.0,980.0 L 756.0,1000.0 L 723.0,988.0 L 664.0,947.0"/>
  </g>
</svg>
