<svg xmlns="http://www.w3.org/2000/svg" viewBox="0 0 1024 1024">
  <g style="fill:none;stroke:#000000;stroke-width:50;stroke-linecap:round;stroke-linejoin:round;" transform="scale(1, 1) translate(0, 0)">
    <path d="M 258.0,206.0 L 281.0,240.0 L 276.0,259.0 L 203.0,364.0 L 163.0,409.0 L 123.0,440.0"/>
    <path d="M 245.0,407.0 L 256.0,416.0 L 272.0,447.0 L 237.0,519.0 L 139.0,653.0 L 80.0,717.0 L 51.0,740.0"/>
    <path d="M 216.0,592.0 L 221.0,623.0 L 232.0,643.0 L 227.0,805.0 L 213.0,926.0 L 218.0,986.0"/>
    <path d="M 440.0,199.0 L 463.0,232.0 L 444.0,276.0 L 400.0,348.0 L 348.0,402.0"/>
    <path d="M 450.0,311.0 L 528.0,290.0 L 564.0,300.0 L 518.0,388.0 L 479.0,441.0"/>
    <path d="M 331.0,467.0 L 351.0,484.0 L 360.0,506.0 L 393.0,662.0"/>
    <path d="M 384.0,487.0 L 405.0,472.0 L 539.0,441.0 L 560.0,438.0 L 597.0,447.0 L 614.0,468.0 L 595.0,551.0 L 571.0,629.0 L 553.0,632.0"/>
    <path d="M 419.0,557.0 L 508.0,536.0 L 545.0,539.0"/>
    <path d="M 464.0,484.0 L 478.0,496.0 L 479.0,508.0 L 476.0,594.0 L 464.0,608.0"/>
    <path d="M 412.0,643.0 L 415.0,638.0 L 546.0,611.0"/>
    <path d="M 305.0,764.0 L 337.0,766.0 L 582.0,719.0 L 651.0,729.0"/>
    <path d="M 440.0,650.0 L 456.0,662.0 L 468.0,683.0 L 449.0,771.0 L 429.0,817.0 L 405.0,852.0 L 367.0,891.0 L 289.0,934.0"/>
    <path d="M 516.0,798.0 L 590.0,853.0 L 614.0,894.0"/>
    <path d="M 671.0,344.0 L 730.0,347.0 L 841.0,316.0 L 890.0,315.0"/>
    <path d="M 652.0,529.0 L 675.0,534.0 L 732.0,526.0 L 869.0,495.0 L 926.0,494.0 L 967.0,504.0"/>
    <path d="M 754.0,543.0 L 790.0,573.0 L 792.0,911.0 L 787.0,964.0 L 767.0,1002.0 L 725.0,989.0 L 676.0,962.0"/>
  </g>
</svg>
