<svg xmlns="http://www.w3.org/2000/svg" viewBox="0 0 1024 1024">
  <g style="fill:none;stroke:#000000;stroke-width:50;stroke-linecap:round;stroke-linejoin:round;" transform="scale(1, 1) translate(0, 0)">
    <path d="M 333.0,342.0 L 398.0,347.0 L 533.0,322.0 L 545.0,314.0 L 609.0,298.0 L 642.0,293.0 L 667.0,299.0"/>
    <path d="M 463.0,186.0 L 505.0,223.0 L 498.0,408.0 L 482.0,433.0"/>
    <path d="M 157.0,503.0 L 214.0,509.0 L 485.0,454.0 L 780.0,410.0 L 854.0,426.0"/>
    <path d="M 339.0,558.0 L 365.0,577.0 L 374.0,593.0 L 400.0,713.0"/>
    <path d="M 388.0,558.0 L 407.0,567.0 L 575.0,526.0 L 593.0,529.0 L 623.0,557.0 L 606.0,606.0 L 580.0,620.0"/>
    <path d="M 408.0,715.0 L 422.0,692.0 L 436.0,682.0 L 580.0,652.0 L 622.0,650.0 L 639.0,656.0"/>
    <path d="M 439.0,708.0 L 426.0,741.0 L 392.0,776.0 L 287.0,862.0 L 174.0,927.0 L 110.0,948.0"/>
    <path d="M 412.0,800.0 L 408.0,960.0 L 418.0,996.0 L 462.0,976.0 L 562.0,891.0"/>
    <path d="M 711.0,656.0 L 732.0,693.0 L 645.0,773.0 L 599.0,804.0 L 598.0,812.0"/>
    <path d="M 458.0,727.0 L 629.0,871.0 L 765.0,952.0 L 784.0,959.0 L 836.0,963.0 L 958.0,961.0"/>
  </g>
</svg>
