<svg xmlns="http://www.w3.org/2000/svg" viewBox="0 0 1024 1024">
  <g style="fill:none;stroke:#000000;stroke-width:50;stroke-linecap:round;stroke-linejoin:round;" transform="scale(1, 1) translate(0, 0)">
    <path d="M 506.0,202.0 L 473.0,204.0 L 416.0,281.0 L 398.0,285.0"/>
    <path d="M 398.0,301.0 L 420.0,314.0 L 576.0,279.0 L 618.0,288.0 L 631.0,303.0 L 630.0,316.0 L 611.0,412.0 L 596.0,441.0 L 584.0,452.0 L 525.0,419.0"/>
    <path d="M 438.0,371.0 L 483.0,404.0"/>
    <path d="M 353.0,293.0 L 361.0,295.0 L 374.0,313.0 L 381.0,341.0 L 361.0,539.0 L 365.0,568.0 L 390.0,570.0 L 528.0,541.0 L 591.0,536.0 L 737.0,511.0 L 758.0,518.0 L 777.0,538.0 L 762.0,627.0 L 742.0,677.0 L 727.0,697.0 L 712.0,706.0 L 641.0,668.0"/>
    <path d="M 417.0,612.0 L 467.0,631.0 L 495.0,654.0"/>
    <path d="M 233.0,726.0 L 278.0,732.0 L 324.0,727.0 L 472.0,695.0 L 546.0,672.0 L 609.0,669.0"/>
    <path d="M 473.0,754.0 L 454.0,750.0 L 443.0,756.0 L 367.0,842.0 L 291.0,902.0 L 164.0,961.0"/>
    <path d="M 405.0,847.0 L 410.0,884.0 L 406.0,966.0 L 414.0,1000.0 L 446.0,988.0 L 550.0,907.0"/>
    <path d="M 670.0,779.0 L 640.0,770.0 L 580.0,817.0 L 569.0,814.0"/>
    <path d="M 467.0,783.0 L 488.0,780.0 L 625.0,904.0 L 747.0,991.0 L 761.0,998.0 L 799.0,1001.0 L 893.0,1001.0"/>
  </g>
</svg>
