<svg xmlns="http://www.w3.org/2000/svg" viewBox="0 0 1024 1024">
  <g style="fill:none;stroke:#000000;stroke-width:50;stroke-linecap:round;stroke-linejoin:round;" transform="scale(1, 1) translate(0, 0)">
    <path d="M 318.0,223.0 L 338.0,244.0 L 346.0,265.0 L 318.0,321.0 L 269.0,395.0 L 199.0,481.0 L 123.0,551.0"/>
    <path d="M 316.0,378.0 L 319.0,457.0 L 307.0,577.0 L 312.0,631.0"/>
    <path d="M 398.0,415.0 L 466.0,409.0 L 646.0,346.0 L 702.0,337.0"/>
    <path d="M 451.0,187.0 L 504.0,223.0 L 541.0,325.0 L 612.0,427.0 L 673.0,489.0 L 743.0,540.0 L 796.0,563.0 L 839.0,566.0 L 849.0,530.0 L 854.0,441.0"/>
    <path d="M 661.0,207.0 L 735.0,239.0 L 769.0,275.0"/>
    <path d="M 434.0,525.0 L 489.0,549.0 L 515.0,580.0"/>
    <path d="M 268.0,685.0 L 339.0,685.0 L 497.0,649.0 L 612.0,615.0 L 656.0,611.0"/>
    <path d="M 457.0,704.0 L 445.0,704.0 L 423.0,717.0 L 376.0,789.0 L 283.0,888.0 L 181.0,961.0 L 149.0,978.0 L 136.0,978.0 L 131.0,985.0"/>
    <path d="M 420.0,788.0 L 407.0,980.0 L 413.0,1023.0 L 444.0,1016.0 L 475.0,1000.0 L 572.0,938.0"/>
    <path d="M 770.0,702.0 L 733.0,690.0 L 620.0,796.0 L 610.0,794.0"/>
    <path d="M 471.0,711.0 L 489.0,735.0 L 613.0,834.0 L 718.0,905.0 L 786.0,942.0 L 870.0,957.0 L 986.0,961.0"/>
  </g>
</svg>
