<svg xmlns="http://www.w3.org/2000/svg" viewBox="0 0 1024 1024">
  <g style="fill:none;stroke:#000000;stroke-width:50;stroke-linecap:round;stroke-linejoin:round;" transform="scale(1, 1) translate(0, 0)">
    <path d="M 306.0,205.0 L 385.0,254.0 L 412.0,293.0"/>
    <path d="M 85.0,463.0 L 145.0,478.0 L 316.0,432.0 L 359.0,439.0 L 340.0,489.0 L 233.0,638.0 L 139.0,736.0 L 35.0,813.0"/>
    <path d="M 271.0,635.0 L 274.0,661.0 L 288.0,687.0 L 290.0,742.0 L 287.0,854.0 L 276.0,957.0 L 281.0,1018.0"/>
    <path d="M 434.0,568.0 L 412.0,570.0 L 368.0,623.0"/>
    <path d="M 331.0,630.0 L 397.0,676.0 L 416.0,709.0"/>
    <path d="M 621.0,205.0 L 645.0,230.0 L 654.0,251.0 L 638.0,287.0 L 584.0,379.0 L 538.0,443.0 L 479.0,502.0"/>
    <path d="M 568.0,445.0 L 642.0,431.0 L 792.0,388.0 L 820.0,387.0 L 839.0,402.0 L 827.0,554.0 L 807.0,638.0 L 792.0,669.0 L 761.0,699.0 L 688.0,661.0"/>
    <path d="M 534.0,580.0 L 552.0,583.0 L 627.0,563.0 L 654.0,579.0 L 657.0,596.0 L 635.0,667.0 L 613.0,684.0"/>
    <path d="M 528.0,729.0 L 613.0,706.0 L 644.0,704.0 L 669.0,711.0"/>
    <path d="M 486.0,565.0 L 504.0,585.0 L 512.0,606.0 L 498.0,727.0 L 496.0,831.0 L 503.0,889.0 L 522.0,932.0 L 567.0,966.0 L 627.0,986.0 L 705.0,994.0 L 781.0,991.0 L 859.0,969.0 L 882.0,956.0 L 908.0,929.0 L 916.0,785.0"/>
  </g>
</svg>
