<svg xmlns="http://www.w3.org/2000/svg" viewBox="0 0 1024 1024">
  <g style="fill:none;stroke:#000000;stroke-width:50;stroke-linecap:round;stroke-linejoin:round;" transform="scale(1, 1) translate(0, 0)">
    <path d="M 266.0,213.0 L 361.0,265.0 L 389.0,303.0"/>
    <path d="M 78.0,493.0 L 120.0,504.0 L 140.0,503.0 L 292.0,452.0 L 335.0,455.0 L 326.0,490.0 L 302.0,534.0 L 214.0,665.0 L 134.0,755.0 L 39.0,833.0"/>
    <path d="M 258.0,649.0 L 262.0,675.0 L 275.0,701.0 L 271.0,865.0 L 261.0,954.0 L 267.0,1003.0"/>
    <path d="M 407.0,547.0 L 422.0,572.0 L 382.0,626.0 L 372.0,625.0"/>
    <path d="M 332.0,630.0 L 400.0,682.0 L 416.0,711.0"/>
    <path d="M 454.0,453.0 L 476.0,459.0 L 526.0,458.0 L 664.0,434.0 L 788.0,399.0 L 848.0,398.0"/>
    <path d="M 468.0,620.0 L 520.0,622.0 L 733.0,577.0 L 765.0,576.0 L 821.0,586.0"/>
    <path d="M 586.0,212.0 L 629.0,252.0 L 639.0,275.0 L 631.0,710.0 L 616.0,949.0 L 616.0,1046.0"/>
    <path d="M 646.0,621.0 L 598.0,656.0 L 541.0,747.0 L 477.0,823.0 L 425.0,873.0 L 358.0,921.0"/>
    <path d="M 655.0,635.0 L 663.0,665.0 L 710.0,731.0 L 822.0,865.0 L 873.0,888.0 L 977.0,915.0"/>
  </g>
</svg>
