<svg xmlns="http://www.w3.org/2000/svg" viewBox="0 0 1024 1024">
  <g style="fill:none;stroke:#000000;stroke-width:50;stroke-linecap:round;stroke-linejoin:round;" transform="scale(1, 1) translate(0, 0)">
    <path d="M 262.0,348.0 L 285.0,355.0 L 337.0,355.0 L 507.0,328.0 L 637.0,297.0 L 682.0,301.0"/>
    <path d="M 473.0,183.0 L 498.0,222.0 L 498.0,238.0 L 461.0,350.0 L 397.0,482.0 L 361.0,530.0 L 311.0,577.0 L 252.0,615.0 L 189.0,636.0"/>
    <path d="M 525.0,348.0 L 552.0,363.0 L 567.0,388.0 L 558.0,476.0 L 565.0,544.0 L 581.0,568.0 L 618.0,586.0 L 692.0,592.0 L 753.0,589.0 L 826.0,567.0 L 835.0,561.0 L 837.0,547.0 L 836.0,445.0"/>
    <path d="M 718.0,366.0 L 726.0,407.0 L 703.0,429.0 L 612.0,492.0 L 544.0,528.0 L 512.0,538.0"/>
    <path d="M 678.0,213.0 L 751.0,245.0 L 766.0,255.0 L 787.0,283.0"/>
    <path d="M 445.0,598.0 L 509.0,637.0 L 537.0,662.0"/>
    <path d="M 244.0,725.0 L 291.0,733.0 L 579.0,683.0 L 631.0,678.0 L 670.0,684.0"/>
    <path d="M 462.0,740.0 L 457.0,751.0 L 430.0,766.0 L 368.0,834.0 L 290.0,902.0 L 206.0,953.0 L 117.0,989.0"/>
    <path d="M 399.0,848.0 L 390.0,969.0 L 396.0,1007.0 L 432.0,997.0 L 549.0,922.0"/>
    <path d="M 728.0,707.0 L 737.0,726.0 L 737.0,745.0 L 628.0,825.0 L 614.0,830.0 L 608.0,826.0"/>
    <path d="M 479.0,769.0 L 497.0,769.0 L 519.0,783.0 L 672.0,930.0 L 758.0,987.0 L 804.0,998.0 L 946.0,1011.0"/>
  </g>
</svg>
