<svg xmlns="http://www.w3.org/2000/svg" viewBox="0 0 1024 1024">
  <g style="fill:none;stroke:#000000;stroke-width:50;stroke-linecap:round;stroke-linejoin:round;" transform="scale(1, 1) translate(0, 0)">
    <path d="M 445.0,181.0 L 523.0,219.0 L 555.0,255.0"/>
    <path d="M 243.0,330.0 L 290.0,340.0 L 688.0,281.0 L 728.0,278.0 L 770.0,287.0"/>
    <path d="M 359.0,393.0 L 401.0,404.0 L 432.0,398.0 L 519.0,365.0 L 573.0,358.0 L 596.0,382.0 L 537.0,444.0 L 530.0,443.0"/>
    <path d="M 458.0,443.0 L 534.0,476.0"/>
    <path d="M 248.0,533.0 L 268.0,540.0 L 300.0,539.0 L 416.0,512.0 L 671.0,473.0 L 732.0,481.0 L 750.0,506.0 L 690.0,568.0"/>
    <path d="M 519.0,541.0 L 540.0,547.0 L 555.0,580.0 L 556.0,626.0 L 539.0,674.0 L 523.0,689.0 L 451.0,664.0"/>
    <path d="M 523.0,520.0 L 485.0,538.0 L 420.0,600.0 L 371.0,633.0 L 290.0,673.0 L 229.0,690.0"/>
    <path d="M 403.0,691.0 L 420.0,732.0 L 364.0,798.0 L 247.0,888.0 L 162.0,931.0 L 109.0,949.0"/>
    <path d="M 369.0,835.0 L 363.0,952.0 L 370.0,992.0 L 412.0,980.0 L 505.0,922.0"/>
    <path d="M 723.0,735.0 L 683.0,722.0 L 575.0,810.0"/>
    <path d="M 464.0,740.0 L 615.0,875.0 L 726.0,948.0 L 759.0,961.0 L 798.0,966.0 L 930.0,968.0"/>
  </g>
</svg>
