<svg xmlns="http://www.w3.org/2000/svg" viewBox="0 0 1024 1024">
  <g style="fill:none;stroke:#000000;stroke-width:50;stroke-linecap:round;stroke-linejoin:round;" transform="scale(1, 1) translate(0, 0)">
    <path d="M 276.0,216.0 L 356.0,268.0 L 383.0,308.0"/>
    <path d="M 81.0,485.0 L 89.0,493.0 L 140.0,503.0 L 213.0,484.0 L 291.0,453.0 L 336.0,458.0 L 321.0,504.0 L 208.0,675.0 L 142.0,748.0 L 44.0,828.0"/>
    <path d="M 265.0,644.0 L 269.0,673.0 L 282.0,704.0 L 278.0,832.0 L 266.0,934.0 L 270.0,1003.0"/>
    <path d="M 444.0,571.0 L 417.0,572.0 L 379.0,628.0 L 369.0,630.0"/>
    <path d="M 339.0,636.0 L 392.0,672.0 L 418.0,708.0"/>
    <path d="M 488.0,392.0 L 537.0,397.0 L 757.0,345.0 L 821.0,345.0"/>
    <path d="M 588.0,224.0 L 614.0,237.0 L 633.0,258.0 L 589.0,415.0 L 556.0,498.0 L 514.0,571.0 L 432.0,659.0"/>
    <path d="M 671.0,389.0 L 683.0,397.0 L 767.0,504.0 L 843.0,580.0 L 971.0,611.0"/>
    <path d="M 532.0,585.0 L 605.0,574.0 L 674.0,555.0 L 706.0,554.0"/>
    <path d="M 474.0,692.0 L 527.0,690.0 L 635.0,661.0 L 735.0,644.0 L 769.0,642.0 L 814.0,651.0"/>
    <path d="M 576.0,706.0 L 604.0,724.0 L 584.0,781.0 L 583.0,802.0 L 632.0,802.0 L 670.0,787.0 L 724.0,778.0 L 750.0,789.0 L 770.0,810.0 L 745.0,923.0 L 726.0,965.0 L 690.0,1011.0 L 666.0,1022.0 L 582.0,966.0"/>
  </g>
</svg>
