<svg xmlns="http://www.w3.org/2000/svg" viewBox="0 0 1024 1024">
  <g style="fill:none;stroke:#000000;stroke-width:50;stroke-linecap:round;stroke-linejoin:round;" transform="scale(1, 1) translate(0, 0)">
    <path d="M 252.0,282.0 L 282.0,287.0 L 321.0,284.0 L 498.0,238.0 L 541.0,238.0"/>
    <path d="M 338.0,309.0 L 361.0,331.0 L 344.0,364.0 L 307.0,414.0 L 256.0,467.0 L 213.0,496.0 L 202.0,497.0 L 198.0,505.0"/>
    <path d="M 360.0,390.0 L 447.0,378.0 L 464.0,400.0 L 412.0,494.0 L 338.0,583.0 L 285.0,632.0 L 231.0,671.0 L 166.0,702.0"/>
    <path d="M 278.0,473.0 L 290.0,477.0 L 317.0,506.0 L 335.0,543.0"/>
    <path d="M 579.0,299.0 L 602.0,326.0 L 601.0,505.0"/>
    <path d="M 716.0,190.0 L 757.0,224.0 L 759.0,550.0 L 745.0,582.0 L 645.0,541.0"/>
    <path d="M 449.0,549.0 L 521.0,583.0 L 542.0,609.0"/>
    <path d="M 259.0,700.0 L 303.0,705.0 L 624.0,644.0 L 671.0,648.0"/>
    <path d="M 422.0,710.0 L 440.0,735.0 L 400.0,795.0 L 363.0,837.0 L 252.0,932.0 L 199.0,965.0 L 165.0,981.0 L 149.0,982.0 L 144.0,989.0"/>
    <path d="M 421.0,815.0 L 429.0,848.0 L 425.0,983.0 L 434.0,1027.0 L 482.0,1008.0 L 573.0,943.0"/>
    <path d="M 725.0,703.0 L 733.0,740.0 L 654.0,793.0 L 624.0,809.0 L 614.0,804.0"/>
    <path d="M 478.0,750.0 L 500.0,750.0 L 673.0,891.0 L 792.0,968.0 L 815.0,974.0 L 956.0,970.0"/>
  </g>
</svg>
