<svg xmlns="http://www.w3.org/2000/svg" viewBox="0 0 1024 1024">
  <g style="fill:none;stroke:#000000;stroke-width:50;stroke-linecap:round;stroke-linejoin:round;" transform="scale(1, 1) translate(0, 0)">
    <path d="M 305.0,225.0 L 374.0,272.0 L 400.0,302.0"/>
    <path d="M 101.0,485.0 L 165.0,496.0 L 313.0,449.0 L 365.0,452.0 L 348.0,502.0 L 240.0,665.0 L 118.0,795.0 L 59.0,837.0"/>
    <path d="M 283.0,650.0 L 287.0,674.0 L 305.0,709.0 L 289.0,947.0 L 295.0,1003.0"/>
    <path d="M 417.0,580.0 L 431.0,604.0 L 393.0,655.0 L 387.0,654.0"/>
    <path d="M 355.0,661.0 L 402.0,699.0 L 418.0,728.0"/>
    <path d="M 621.0,270.0 L 665.0,309.0 L 657.0,553.0 L 650.0,583.0 L 638.0,594.0"/>
    <path d="M 480.0,439.0 L 541.0,484.0 L 566.0,526.0"/>
    <path d="M 797.0,363.0 L 817.0,395.0 L 721.0,498.0"/>
    <path d="M 501.0,629.0 L 565.0,630.0 L 791.0,587.0 L 829.0,608.0 L 845.0,626.0 L 798.0,837.0 L 795.0,847.0 L 768.0,868.0"/>
    <path d="M 490.0,766.0 L 531.0,773.0 L 672.0,746.0 L 718.0,743.0 L 747.0,748.0"/>
    <path d="M 473.0,928.0 L 511.0,935.0 L 783.0,902.0 L 816.0,903.0 L 852.0,916.0"/>
  </g>
</svg>
