<svg xmlns="http://www.w3.org/2000/svg" viewBox="0 0 1024 1024">
  <g style="fill:none;stroke:#000000;stroke-width:50;stroke-linecap:round;stroke-linejoin:round;" transform="scale(1, 1) translate(0, 0)">
    <path d="M 229.0,307.0 L 292.0,345.0 L 319.0,381.0"/>
    <path d="M 157.0,532.0 L 206.0,538.0 L 369.0,451.0 L 371.0,437.0"/>
    <path d="M 370.0,214.0 L 393.0,231.0 L 409.0,253.0 L 400.0,420.0 L 404.0,568.0"/>
    <path d="M 467.0,374.0 L 506.0,383.0 L 759.0,338.0 L 823.0,343.0"/>
    <path d="M 609.0,214.0 L 647.0,250.0 L 639.0,445.0 L 623.0,470.0"/>
    <path d="M 528.0,505.0 L 558.0,506.0 L 728.0,478.0 L 787.0,487.0"/>
    <path d="M 451.0,533.0 L 500.0,564.0 L 510.0,576.0 L 511.0,597.0"/>
    <path d="M 241.0,660.0 L 284.0,666.0 L 333.0,663.0 L 593.0,608.0 L 638.0,608.0"/>
    <path d="M 433.0,679.0 L 357.0,763.0 L 271.0,842.0 L 189.0,897.0 L 100.0,937.0"/>
    <path d="M 393.0,778.0 L 387.0,806.0 L 390.0,870.0 L 383.0,934.0 L 390.0,979.0 L 427.0,966.0 L 496.0,919.0 L 510.0,916.0 L 517.0,903.0 L 528.0,904.0 L 537.0,895.0"/>
    <path d="M 682.0,645.0 L 698.0,680.0 L 589.0,766.0 L 583.0,777.0 L 577.0,776.0"/>
    <path d="M 457.0,695.0 L 612.0,849.0 L 665.0,892.0 L 748.0,945.0 L 820.0,957.0 L 945.0,965.0"/>
  </g>
</svg>
