<svg xmlns="http://www.w3.org/2000/svg" viewBox="0 0 1024 1024">
  <g style="fill:none;stroke:#000000;stroke-width:50;stroke-linecap:round;stroke-linejoin:round;" transform="scale(1, 1) translate(0, 0)">
    <path d="M 258.0,217.0 L 347.0,270.0 L 369.0,303.0"/>
    <path d="M 69.0,513.0 L 132.0,521.0 L 279.0,465.0 L 323.0,468.0 L 302.0,528.0 L 225.0,649.0 L 137.0,753.0 L 51.0,825.0"/>
    <path d="M 245.0,665.0 L 248.0,690.0 L 262.0,721.0 L 264.0,818.0 L 253.0,962.0 L 259.0,1011.0"/>
    <path d="M 393.0,546.0 L 406.0,570.0 L 368.0,618.0 L 358.0,618.0"/>
    <path d="M 317.0,625.0 L 378.0,663.0 L 392.0,687.0"/>
    <path d="M 529.0,307.0 L 553.0,342.0 L 548.0,355.0 L 490.0,445.0 L 435.0,490.0"/>
    <path d="M 693.0,311.0 L 790.0,374.0 L 819.0,415.0"/>
    <path d="M 593.0,451.0 L 615.0,484.0 L 592.0,536.0 L 541.0,615.0 L 443.0,727.0 L 384.0,776.0 L 315.0,819.0"/>
    <path d="M 632.0,533.0 L 636.0,546.0 L 697.0,607.0 L 821.0,701.0 L 902.0,720.0 L 986.0,730.0"/>
    <path d="M 456.0,797.0 L 480.0,817.0 L 492.0,836.0 L 524.0,1012.0"/>
    <path d="M 501.0,794.0 L 533.0,806.0 L 682.0,769.0 L 725.0,770.0 L 753.0,800.0 L 726.0,890.0 L 699.0,905.0"/>
    <path d="M 545.0,976.0 L 557.0,961.0 L 689.0,939.0 L 740.0,935.0 L 765.0,945.0"/>
  </g>
</svg>
