<svg xmlns="http://www.w3.org/2000/svg" viewBox="0 0 1024 1024">
  <g style="fill:none;stroke:#000000;stroke-width:50;stroke-linecap:round;stroke-linejoin:round;" transform="scale(1, 1) translate(0, 0)">
    <path d="M 341.0,339.0 L 387.0,346.0 L 418.0,343.0 L 532.0,321.0 L 615.0,297.0 L 670.0,297.0"/>
    <path d="M 458.0,184.0 L 475.0,193.0 L 504.0,226.0 L 494.0,499.0 L 501.0,550.0"/>
    <path d="M 272.0,393.0 L 326.0,427.0 L 344.0,447.0"/>
    <path d="M 184.0,577.0 L 194.0,583.0 L 243.0,586.0 L 444.0,471.0"/>
    <path d="M 670.0,349.0 L 682.0,378.0 L 611.0,431.0 L 600.0,433.0 L 598.0,440.0"/>
    <path d="M 580.0,484.0 L 710.0,539.0 L 777.0,592.0"/>
    <path d="M 668.0,198.0 L 745.0,235.0 L 782.0,275.0"/>
    <path d="M 409.0,586.0 L 462.0,615.0 L 486.0,644.0"/>
    <path d="M 246.0,710.0 L 285.0,715.0 L 331.0,711.0 L 543.0,663.0 L 617.0,657.0"/>
    <path d="M 452.0,721.0 L 448.0,731.0 L 417.0,750.0 L 380.0,797.0 L 279.0,885.0 L 170.0,949.0 L 104.0,973.0"/>
    <path d="M 385.0,831.0 L 388.0,879.0 L 380.0,958.0 L 390.0,1015.0 L 422.0,1003.0 L 495.0,945.0 L 498.0,937.0 L 512.0,932.0 L 516.0,919.0 L 526.0,918.0 L 534.0,908.0"/>
    <path d="M 683.0,665.0 L 693.0,676.0 L 703.0,706.0 L 598.0,794.0 L 584.0,802.0 L 576.0,798.0"/>
    <path d="M 468.0,738.0 L 482.0,759.0 L 609.0,868.0 L 766.0,979.0 L 807.0,989.0 L 964.0,993.0"/>
  </g>
</svg>
