<svg xmlns="http://www.w3.org/2000/svg" viewBox="0 0 1024 1024">
  <g style="fill:none;stroke:#000000;stroke-width:50;stroke-linecap:round;stroke-linejoin:round;" transform="scale(1, 1) translate(0, 0)">
    <path d="M 246.0,221.0 L 336.0,278.0 L 360.0,312.0"/>
    <path d="M 77.0,493.0 L 141.0,504.0 L 277.0,460.0 L 320.0,463.0 L 312.0,497.0 L 282.0,554.0 L 210.0,663.0 L 136.0,750.0 L 84.0,800.0 L 39.0,833.0"/>
    <path d="M 237.0,668.0 L 252.0,716.0 L 250.0,817.0 L 237.0,955.0 L 243.0,1011.0"/>
    <path d="M 361.0,555.0 L 374.0,579.0 L 333.0,633.0 L 325.0,632.0"/>
    <path d="M 289.0,641.0 L 352.0,680.0 L 376.0,715.0"/>
    <path d="M 601.0,204.0 L 664.0,239.0 L 686.0,261.0"/>
    <path d="M 513.0,365.0 L 538.0,373.0 L 570.0,372.0 L 768.0,329.0 L 836.0,324.0"/>
    <path d="M 443.0,348.0 L 468.0,369.0 L 479.0,392.0 L 470.0,551.0 L 455.0,648.0 L 429.0,748.0 L 389.0,842.0 L 345.0,915.0 L 304.0,966.0"/>
    <path d="M 533.0,531.0 L 596.0,538.0 L 659.0,529.0 L 755.0,503.0 L 810.0,504.0"/>
    <path d="M 631.0,414.0 L 654.0,443.0 L 653.0,466.0 L 610.0,609.0 L 566.0,712.0 L 598.0,718.0 L 790.0,687.0 L 842.0,696.0"/>
    <path d="M 449.0,839.0 L 502.0,846.0 L 680.0,816.0 L 859.0,794.0 L 916.0,799.0 L 950.0,811.0"/>
    <path d="M 670.0,608.0 L 697.0,643.0 L 679.0,989.0 L 690.0,1065.0"/>
  </g>
</svg>
