<svg xmlns="http://www.w3.org/2000/svg" viewBox="0 0 1024 1024">
  <g style="fill:none;stroke:#000000;stroke-width:50;stroke-linecap:round;stroke-linejoin:round;" transform="scale(1, 1) translate(0, 0)">
    <path d="M 267.0,217.0 L 353.0,264.0 L 385.0,303.0"/>
    <path d="M 80.0,466.0 L 132.0,479.0 L 290.0,436.0 L 331.0,441.0 L 324.0,472.0 L 295.0,530.0 L 213.0,658.0 L 148.0,736.0 L 98.0,785.0 L 55.0,817.0"/>
    <path d="M 258.0,641.0 L 276.0,697.0 L 274.0,792.0 L 261.0,927.0 L 267.0,983.0"/>
    <path d="M 391.0,530.0 L 404.0,555.0 L 359.0,610.0 L 350.0,608.0"/>
    <path d="M 318.0,614.0 L 369.0,657.0 L 393.0,696.0"/>
    <path d="M 448.0,331.0 L 481.0,375.0 L 524.0,582.0"/>
    <path d="M 479.0,331.0 L 511.0,339.0 L 608.0,315.0 L 746.0,295.0 L 775.0,297.0 L 791.0,306.0 L 814.0,336.0 L 791.0,399.0 L 754.0,546.0"/>
    <path d="M 552.0,452.0 L 664.0,424.0 L 692.0,420.0 L 713.0,425.0"/>
    <path d="M 541.0,568.0 L 561.0,555.0 L 669.0,533.0 L 715.0,528.0 L 727.0,538.0"/>
    <path d="M 436.0,685.0 L 478.0,691.0 L 620.0,662.0 L 829.0,631.0 L 897.0,645.0"/>
    <path d="M 606.0,338.0 L 631.0,357.0 L 634.0,394.0 L 630.0,1052.0"/>
    <path d="M 604.0,689.0 L 582.0,710.0 L 538.0,778.0 L 487.0,832.0 L 435.0,878.0 L 348.0,928.0"/>
    <path d="M 657.0,680.0 L 668.0,705.0 L 721.0,764.0 L 837.0,873.0 L 977.0,900.0"/>
  </g>
</svg>
