<svg xmlns="http://www.w3.org/2000/svg" viewBox="0 0 1024 1024">
  <g style="fill:none;stroke:#000000;stroke-width:50;stroke-linecap:round;stroke-linejoin:round;" transform="scale(1, 1) translate(0, 0)">
    <path d="M 452.0,175.0 L 511.0,204.0 L 562.0,246.0"/>
    <path d="M 210.0,308.0 L 266.0,315.0 L 446.0,286.0 L 765.0,251.0 L 803.0,256.0 L 840.0,269.0"/>
    <path d="M 296.0,376.0 L 317.0,389.0 L 333.0,412.0 L 379.0,551.0"/>
    <path d="M 342.0,373.0 L 366.0,383.0 L 613.0,339.0 L 677.0,342.0 L 705.0,376.0 L 654.0,509.0"/>
    <path d="M 416.0,449.0 L 473.0,446.0 L 548.0,427.0 L 598.0,427.0"/>
    <path d="M 395.0,530.0 L 423.0,519.0 L 534.0,506.0 L 632.0,486.0"/>
    <path d="M 228.0,605.0 L 262.0,613.0 L 288.0,611.0 L 434.0,587.0 L 715.0,557.0 L 739.0,557.0 L 793.0,573.0"/>
    <path d="M 488.0,385.0 L 511.0,405.0 L 503.0,689.0"/>
    <path d="M 480.0,603.0 L 447.0,620.0 L 399.0,664.0 L 344.0,702.0 L 262.0,739.0 L 220.0,750.0"/>
    <path d="M 588.0,621.0 L 708.0,654.0 L 750.0,687.0"/>
    <path d="M 485.0,723.0 L 456.0,725.0 L 350.0,820.0 L 281.0,863.0 L 184.0,914.0 L 122.0,934.0"/>
    <path d="M 406.0,815.0 L 399.0,840.0 L 400.0,907.0 L 394.0,939.0 L 399.0,983.0 L 447.0,967.0 L 537.0,906.0"/>
    <path d="M 636.0,694.0 L 646.0,726.0 L 594.0,767.0 L 576.0,770.0"/>
    <path d="M 486.0,744.0 L 511.0,750.0 L 629.0,866.0 L 736.0,943.0 L 787.0,958.0 L 927.0,972.0"/>
  </g>
</svg>
