<svg xmlns="http://www.w3.org/2000/svg" viewBox="0 0 1024 1024">
  <g style="fill:none;stroke:#000000;stroke-width:50;stroke-linecap:round;stroke-linejoin:round;" transform="scale(1, 1) translate(0, 0)">
    <path d="M 263.0,197.0 L 344.0,242.0 L 373.0,279.0"/>
    <path d="M 98.0,463.0 L 161.0,470.0 L 288.0,423.0 L 330.0,424.0 L 322.0,456.0 L 294.0,513.0 L 210.0,645.0 L 134.0,732.0 L 69.0,787.0"/>
    <path d="M 253.0,623.0 L 265.0,666.0 L 267.0,734.0 L 253.0,928.0 L 259.0,987.0"/>
    <path d="M 440.0,531.0 L 412.0,525.0 L 356.0,582.0 L 348.0,580.0"/>
    <path d="M 312.0,586.0 L 369.0,627.0 L 396.0,667.0"/>
    <path d="M 538.0,302.0 L 563.0,313.0 L 740.0,270.0 L 765.0,274.0 L 794.0,299.0 L 766.0,382.0 L 743.0,395.0"/>
    <path d="M 544.0,462.0 L 556.0,455.0 L 732.0,425.0 L 795.0,433.0"/>
    <path d="M 483.0,295.0 L 509.0,317.0 L 519.0,336.0 L 520.0,356.0 L 504.0,520.0 L 481.0,657.0 L 453.0,746.0 L 416.0,831.0 L 383.0,891.0 L 316.0,979.0"/>
    <path d="M 517.0,634.0 L 563.0,639.0 L 743.0,608.0 L 859.0,595.0 L 894.0,597.0 L 939.0,610.0"/>
    <path d="M 659.0,489.0 L 693.0,527.0 L 669.0,745.0 L 652.0,762.0"/>
    <path d="M 527.0,776.0 L 553.0,799.0 L 589.0,997.0"/>
    <path d="M 584.0,786.0 L 599.0,792.0 L 637.0,788.0 L 780.0,759.0 L 801.0,767.0 L 824.0,792.0 L 792.0,887.0 L 771.0,901.0"/>
    <path d="M 607.0,965.0 L 621.0,951.0 L 767.0,931.0 L 806.0,934.0 L 830.0,943.0"/>
  </g>
</svg>
