<svg xmlns="http://www.w3.org/2000/svg" viewBox="0 0 1024 1024">
  <g style="fill:none;stroke:#000000;stroke-width:50;stroke-linecap:round;stroke-linejoin:round;" transform="scale(1, 1) translate(0, 0)">
    <path d="M 299.0,233.0 L 380.0,278.0 L 409.0,315.0"/>
    <path d="M 109.0,538.0 L 165.0,546.0 L 316.0,489.0 L 356.0,493.0 L 342.0,542.0 L 255.0,690.0 L 154.0,814.0 L 75.0,881.0"/>
    <path d="M 274.0,704.0 L 289.0,757.0 L 273.0,987.0 L 279.0,1043.0"/>
    <path d="M 410.0,591.0 L 424.0,613.0 L 386.0,664.0 L 377.0,663.0"/>
    <path d="M 346.0,674.0 L 409.0,714.0 L 428.0,743.0"/>
    <path d="M 576.0,190.0 L 604.0,223.0 L 587.0,271.0 L 543.0,344.0 L 497.0,385.0"/>
    <path d="M 608.0,297.0 L 621.0,291.0 L 676.0,290.0 L 789.0,263.0 L 832.0,264.0"/>
    <path d="M 513.0,421.0 L 539.0,455.0 L 566.0,658.0"/>
    <path d="M 559.0,423.0 L 572.0,432.0 L 602.0,417.0 L 713.0,392.0 L 746.0,400.0 L 767.0,423.0 L 756.0,459.0 L 734.0,603.0 L 725.0,624.0 L 704.0,616.0"/>
    <path d="M 580.0,543.0 L 585.0,532.0 L 615.0,524.0 L 669.0,524.0"/>
    <path d="M 586.0,639.0 L 594.0,628.0 L 640.0,620.0 L 676.0,618.0 L 685.0,626.0"/>
    <path d="M 558.0,693.0 L 575.0,721.0 L 572.0,733.0 L 529.0,797.0 L 440.0,888.0 L 375.0,928.0"/>
    <path d="M 606.0,742.0 L 622.0,728.0 L 687.0,713.0 L 720.0,719.0 L 737.0,729.0 L 697.0,834.0 L 666.0,888.0 L 631.0,929.0 L 547.0,983.0 L 447.0,1008.0"/>
    <path d="M 547.0,812.0 L 563.0,811.0 L 584.0,824.0 L 735.0,964.0 L 834.0,1028.0 L 983.0,1034.0"/>
  </g>
</svg>
