<svg xmlns="http://www.w3.org/2000/svg" viewBox="0 0 1024 1024">
  <g style="fill:none;stroke:#000000;stroke-width:50;stroke-linecap:round;stroke-linejoin:round;" transform="scale(1, 1) translate(0, 0)">
    <path d="M 290.0,217.0 L 367.0,266.0 L 389.0,304.0"/>
    <path d="M 96.0,465.0 L 150.0,475.0 L 237.0,448.0 L 286.0,426.0 L 319.0,422.0 L 332.0,430.0 L 322.0,468.0 L 299.0,513.0 L 231.0,620.0 L 169.0,695.0 L 75.0,777.0"/>
    <path d="M 257.0,622.0 L 269.0,671.0 L 266.0,807.0 L 257.0,890.0 L 263.0,947.0"/>
    <path d="M 424.0,549.0 L 395.0,547.0 L 359.0,599.0 L 351.0,599.0"/>
    <path d="M 312.0,605.0 L 371.0,644.0 L 393.0,678.0"/>
    <path d="M 572.0,219.0 L 647.0,259.0 L 670.0,281.0"/>
    <path d="M 542.0,393.0 L 563.0,399.0 L 709.0,362.0 L 750.0,363.0 L 780.0,395.0 L 755.0,460.0 L 728.0,478.0"/>
    <path d="M 531.0,546.0 L 724.0,506.0 L 786.0,512.0"/>
    <path d="M 486.0,379.0 L 502.0,392.0 L 518.0,420.0 L 498.0,567.0 L 462.0,691.0 L 444.0,729.0 L 399.0,789.0 L 351.0,833.0 L 293.0,866.0"/>
    <path d="M 496.0,671.0 L 505.0,699.0 L 500.0,720.0 L 502.0,824.0 L 489.0,892.0 L 490.0,947.0"/>
    <path d="M 503.0,662.0 L 536.0,672.0 L 632.0,647.0 L 821.0,618.0 L 857.0,628.0 L 878.0,651.0 L 868.0,708.0 L 870.0,882.0 L 861.0,943.0 L 853.0,956.0 L 821.0,950.0 L 771.0,925.0"/>
    <path d="M 549.0,800.0 L 585.0,800.0 L 748.0,768.0 L 775.0,767.0 L 798.0,774.0"/>
    <path d="M 588.0,677.0 L 612.0,700.0 L 615.0,895.0"/>
    <path d="M 689.0,658.0 L 715.0,675.0 L 718.0,683.0 L 711.0,949.0"/>
  </g>
</svg>
