<svg xmlns="http://www.w3.org/2000/svg" viewBox="0 0 1024 1024">
  <g style="fill:none;stroke:#000000;stroke-width:50;stroke-linecap:round;stroke-linejoin:round;" transform="scale(1, 1) translate(0, 0)">
    <path d="M 297.0,201.0 L 376.0,256.0 L 398.0,294.0"/>
    <path d="M 102.0,480.0 L 154.0,491.0 L 238.0,465.0 L 317.0,430.0 L 362.0,432.0 L 356.0,465.0 L 328.0,523.0 L 251.0,645.0 L 177.0,733.0 L 95.0,805.0"/>
    <path d="M 286.0,638.0 L 290.0,665.0 L 304.0,691.0 L 305.0,735.0 L 288.0,953.0 L 294.0,1022.0"/>
    <path d="M 457.0,561.0 L 427.0,561.0 L 388.0,619.0 L 379.0,618.0"/>
    <path d="M 338.0,630.0 L 399.0,666.0 L 411.0,688.0"/>
    <path d="M 500.0,284.0 L 522.0,303.0 L 534.0,324.0 L 562.0,493.0 L 576.0,527.0"/>
    <path d="M 544.0,284.0 L 567.0,293.0 L 751.0,259.0 L 788.0,267.0 L 804.0,283.0 L 812.0,295.0 L 778.0,448.0 L 763.0,488.0 L 767.0,508.0"/>
    <path d="M 580.0,405.0 L 585.0,395.0 L 662.0,381.0 L 706.0,375.0 L 728.0,381.0"/>
    <path d="M 589.0,504.0 L 599.0,495.0 L 715.0,481.0 L 725.0,475.0"/>
    <path d="M 548.0,528.0 L 566.0,559.0 L 564.0,566.0 L 521.0,624.0 L 481.0,662.0 L 458.0,675.0"/>
    <path d="M 549.0,627.0 L 578.0,617.0 L 705.0,604.0 L 825.0,583.0 L 859.0,589.0 L 885.0,615.0 L 868.0,888.0 L 857.0,936.0 L 836.0,986.0 L 800.0,1020.0 L 721.0,978.0 L 718.0,968.0 L 705.0,969.0"/>
    <path d="M 637.0,651.0 L 658.0,675.0 L 643.0,715.0 L 595.0,790.0 L 547.0,836.0 L 539.0,837.0 L 538.0,844.0"/>
    <path d="M 651.0,752.0 L 664.0,751.0 L 709.0,773.0 L 735.0,791.0 L 752.0,816.0"/>
    <path d="M 458.0,707.0 L 491.0,739.0 L 481.0,901.0 L 674.0,877.0 L 722.0,878.0 L 766.0,894.0"/>
  </g>
</svg>
