<svg xmlns="http://www.w3.org/2000/svg" viewBox="0 0 1024 1024">
  <g style="fill:none;stroke:#000000;stroke-width:50;stroke-linecap:round;stroke-linejoin:round;" transform="scale(1, 1) translate(0, 0)">
    <path d="M 277.0,225.0 L 356.0,280.0 L 382.0,322.0"/>
    <path d="M 114.0,494.0 L 160.0,506.0 L 254.0,482.0 L 304.0,459.0 L 358.0,461.0 L 343.0,509.0 L 233.0,681.0 L 138.0,785.0 L 71.0,837.0"/>
    <path d="M 289.0,645.0 L 301.0,690.0 L 298.0,805.0 L 285.0,931.0 L 291.0,975.0"/>
    <path d="M 431.0,620.0 L 409.0,621.0 L 384.0,657.0 L 376.0,657.0"/>
    <path d="M 346.0,667.0 L 397.0,706.0 L 417.0,740.0"/>
    <path d="M 497.0,403.0 L 558.0,409.0 L 689.0,379.0 L 740.0,380.0"/>
    <path d="M 594.0,207.0 L 636.0,244.0 L 626.0,490.0 L 610.0,514.0"/>
    <path d="M 414.0,560.0 L 451.0,567.0 L 478.0,564.0 L 679.0,527.0 L 843.0,506.0 L 928.0,521.0"/>
    <path d="M 786.0,280.0 L 801.0,297.0 L 815.0,337.0 L 740.0,474.0 L 705.0,525.0 L 602.0,652.0 L 526.0,733.0 L 454.0,799.0 L 356.0,868.0"/>
    <path d="M 516.0,670.0 L 537.0,689.0 L 547.0,719.0 L 548.0,836.0 L 537.0,942.0 L 540.0,990.0"/>
    <path d="M 592.0,699.0 L 630.0,676.0 L 730.0,650.0 L 766.0,675.0 L 780.0,911.0 L 780.0,930.0 L 769.0,961.0 L 773.0,1014.0"/>
    <path d="M 572.0,818.0 L 586.0,807.0 L 636.0,797.0 L 678.0,795.0 L 699.0,801.0"/>
    <path d="M 568.0,957.0 L 583.0,942.0 L 676.0,929.0 L 726.0,930.0"/>
  </g>
</svg>
