<svg xmlns="http://www.w3.org/2000/svg" viewBox="0 0 1024 1024">
  <g style="fill:none;stroke:#000000;stroke-width:50;stroke-linecap:round;stroke-linejoin:round;" transform="scale(1, 1) translate(0, 0)">
    <path d="M 214.0,217.0 L 289.0,267.0 L 314.0,305.0"/>
    <path d="M 70.0,507.0 L 127.0,514.0 L 214.0,486.0 L 264.0,461.0 L 310.0,463.0 L 291.0,519.0 L 192.0,670.0 L 100.0,768.0 L 53.0,804.0"/>
    <path d="M 236.0,651.0 L 241.0,680.0 L 253.0,703.0 L 250.0,837.0 L 240.0,934.0 L 246.0,994.0"/>
    <path d="M 399.0,567.0 L 370.0,570.0 L 340.0,626.0 L 334.0,626.0"/>
    <path d="M 302.0,633.0 L 358.0,677.0 L 369.0,701.0"/>
    <path d="M 383.0,383.0 L 457.0,387.0 L 569.0,366.0 L 777.0,339.0 L 811.0,344.0 L 841.0,357.0"/>
    <path d="M 455.0,276.0 L 494.0,306.0 L 524.0,465.0"/>
    <path d="M 673.0,214.0 L 691.0,222.0 L 713.0,249.0 L 686.0,378.0 L 663.0,452.0"/>
    <path d="M 619.0,487.0 L 581.0,503.0 L 538.0,585.0 L 501.0,637.0 L 401.0,748.0 L 333.0,800.0"/>
    <path d="M 608.0,532.0 L 749.0,665.0 L 837.0,728.0 L 977.0,744.0"/>
    <path d="M 489.0,719.0 L 541.0,724.0 L 658.0,699.0 L 700.0,700.0"/>
    <path d="M 438.0,834.0 L 459.0,850.0 L 474.0,874.0 L 508.0,1022.0"/>
    <path d="M 478.0,830.0 L 506.0,841.0 L 683.0,805.0 L 711.0,811.0 L 739.0,839.0 L 709.0,915.0 L 682.0,937.0"/>
    <path d="M 525.0,970.0 L 535.0,980.0 L 670.0,963.0 L 723.0,962.0 L 755.0,972.0"/>
  </g>
</svg>
