<svg xmlns="http://www.w3.org/2000/svg" viewBox="0 0 1024 1024">
  <g style="fill:none;stroke:#000000;stroke-width:50;stroke-linecap:round;stroke-linejoin:round;" transform="scale(1, 1) translate(0, 0)">
    <path d="M 250.0,217.0 L 340.0,274.0 L 364.0,308.0"/>
    <path d="M 86.0,506.0 L 105.0,514.0 L 143.0,517.0 L 212.0,498.0 L 291.0,467.0 L 331.0,472.0 L 306.0,534.0 L 203.0,685.0 L 105.0,789.0 L 35.0,841.0"/>
    <path d="M 244.0,672.0 L 248.0,695.0 L 267.0,733.0 L 263.0,887.0 L 253.0,974.0 L 259.0,1023.0"/>
    <path d="M 379.0,563.0 L 394.0,587.0 L 348.0,641.0"/>
    <path d="M 303.0,641.0 L 366.0,698.0 L 381.0,731.0"/>
    <path d="M 478.0,313.0 L 503.0,335.0 L 512.0,353.0 L 548.0,541.0"/>
    <path d="M 538.0,340.0 L 547.0,324.0 L 563.0,318.0 L 664.0,296.0 L 705.0,293.0 L 722.0,285.0 L 758.0,284.0 L 779.0,295.0 L 798.0,326.0 L 739.0,509.0"/>
    <path d="M 556.0,429.0 L 586.0,415.0 L 672.0,397.0 L 704.0,401.0"/>
    <path d="M 567.0,516.0 L 578.0,507.0 L 702.0,483.0 L 720.0,474.0"/>
    <path d="M 446.0,626.0 L 472.0,627.0 L 549.0,604.0 L 571.0,608.0 L 593.0,631.0 L 586.0,757.0 L 588.0,942.0 L 580.0,979.0 L 563.0,999.0 L 532.0,992.0 L 482.0,968.0 L 467.0,968.0"/>
    <path d="M 426.0,692.0 L 477.0,720.0 L 504.0,747.0"/>
    <path d="M 366.0,886.0 L 400.0,896.0 L 409.0,891.0 L 536.0,791.0"/>
    <path d="M 654.0,597.0 L 701.0,594.0 L 791.0,564.0 L 807.0,568.0 L 833.0,594.0 L 828.0,685.0 L 836.0,934.0 L 824.0,991.0 L 811.0,1008.0 L 707.0,967.0"/>
    <path d="M 660.0,677.0 L 713.0,705.0 L 745.0,743.0"/>
    <path d="M 637.0,862.0 L 675.0,871.0 L 780.0,779.0"/>
  </g>
</svg>
