<svg xmlns="http://www.w3.org/2000/svg" viewBox="0 0 1024 1024">
  <g style="fill:none;stroke:#000000;stroke-width:50;stroke-linecap:round;stroke-linejoin:round;" transform="scale(1, 1) translate(0, 0)">
    <path d="M 445.0,175.0 L 513.0,210.0 L 546.0,246.0"/>
    <path d="M 198.0,348.0 L 253.0,354.0 L 405.0,323.0 L 743.0,280.0 L 785.0,285.0 L 821.0,297.0"/>
    <path d="M 281.0,407.0 L 322.0,452.0 L 363.0,578.0"/>
    <path d="M 307.0,403.0 L 345.0,414.0 L 569.0,377.0 L 646.0,368.0 L 689.0,370.0 L 703.0,377.0 L 722.0,407.0 L 670.0,523.0 L 665.0,531.0 L 654.0,530.0"/>
    <path d="M 435.0,422.0 L 444.0,427.0 L 458.0,508.0 L 470.0,517.0"/>
    <path d="M 553.0,398.0 L 578.0,427.0 L 557.0,494.0 L 544.0,503.0"/>
    <path d="M 378.0,561.0 L 395.0,550.0 L 426.0,544.0 L 630.0,518.0 L 642.0,512.0"/>
    <path d="M 495.0,567.0 L 518.0,594.0 L 517.0,725.0"/>
    <path d="M 299.0,611.0 L 351.0,640.0 L 366.0,656.0"/>
    <path d="M 245.0,757.0 L 283.0,771.0 L 428.0,679.0"/>
    <path d="M 734.0,600.0 L 706.0,586.0 L 614.0,644.0"/>
    <path d="M 604.0,685.0 L 699.0,709.0 L 727.0,725.0 L 741.0,742.0"/>
    <path d="M 439.0,710.0 L 451.0,749.0 L 363.0,833.0 L 257.0,902.0 L 186.0,932.0 L 153.0,942.0 L 139.0,940.0 L 133.0,946.0"/>
    <path d="M 404.0,840.0 L 396.0,962.0 L 402.0,1001.0 L 441.0,992.0 L 510.0,955.0 L 517.0,946.0 L 531.0,945.0 L 538.0,932.0 L 548.0,934.0 L 557.0,925.0"/>
    <path d="M 694.0,788.0 L 665.0,773.0 L 596.0,818.0 L 587.0,814.0"/>
    <path d="M 482.0,776.0 L 495.0,773.0 L 510.0,783.0 L 629.0,889.0 L 759.0,981.0 L 897.0,985.0"/>
  </g>
</svg>
