<svg xmlns="http://www.w3.org/2000/svg" viewBox="0 0 1024 1024">
  <g style="fill:none;stroke:#000000;stroke-width:50;stroke-linecap:round;stroke-linejoin:round;" transform="scale(1, 1) translate(0, 0)">
    <path d="M 229.0,235.0 L 310.0,282.0 L 339.0,319.0"/>
    <path d="M 90.0,495.0 L 148.0,502.0 L 270.0,455.0 L 314.0,456.0 L 306.0,488.0 L 285.0,531.0 L 201.0,665.0 L 135.0,744.0 L 72.0,804.0 L 53.0,815.0"/>
    <path d="M 235.0,660.0 L 238.0,683.0 L 253.0,710.0 L 240.0,909.0 L 243.0,979.0"/>
    <path d="M 378.0,592.0 L 357.0,592.0 L 319.0,639.0"/>
    <path d="M 288.0,645.0 L 337.0,685.0 L 354.0,716.0"/>
    <path d="M 417.0,375.0 L 433.0,377.0 L 479.0,367.0 L 533.0,346.0 L 558.0,358.0 L 568.0,369.0 L 540.0,468.0 L 517.0,482.0"/>
    <path d="M 456.0,514.0 L 471.0,519.0 L 513.0,508.0 L 567.0,511.0"/>
    <path d="M 412.0,503.0 L 434.0,524.0 L 439.0,540.0 L 427.0,648.0 L 445.0,651.0 L 488.0,638.0 L 525.0,638.0 L 542.0,651.0 L 550.0,666.0 L 527.0,843.0 L 516.0,879.0 L 498.0,909.0 L 470.0,931.0 L 393.0,881.0"/>
    <path d="M 641.0,360.0 L 670.0,396.0 L 692.0,531.0"/>
    <path d="M 665.0,354.0 L 697.0,363.0 L 816.0,335.0 L 834.0,341.0 L 855.0,363.0 L 836.0,429.0 L 830.0,440.0 L 814.0,445.0"/>
    <path d="M 709.0,509.0 L 719.0,498.0 L 793.0,480.0 L 839.0,478.0 L 858.0,483.0"/>
    <path d="M 601.0,604.0 L 626.0,625.0 L 636.0,647.0 L 664.0,768.0"/>
    <path d="M 648.0,608.0 L 661.0,614.0 L 785.0,591.0 L 840.0,574.0 L 861.0,575.0 L 890.0,604.0 L 868.0,664.0 L 847.0,680.0"/>
    <path d="M 680.0,741.0 L 694.0,730.0 L 838.0,705.0 L 875.0,704.0 L 899.0,712.0"/>
    <path d="M 720.0,521.0 L 745.0,534.0 L 753.0,563.0 L 750.0,825.0 L 734.0,847.0"/>
    <path d="M 596.0,881.0 L 639.0,899.0 L 852.0,843.0 L 861.0,848.0"/>
    <path d="M 840.0,774.0 L 919.0,879.0 L 931.0,908.0 L 933.0,940.0"/>
  </g>
</svg>
