<svg xmlns="http://www.w3.org/2000/svg" viewBox="0 0 1024 1024">
  <g style="fill:none;stroke:#000000;stroke-width:50;stroke-linecap:round;stroke-linejoin:round;" transform="scale(1, 1) translate(0, 0)">
    <path d="M 274.0,216.0 L 361.0,261.0 L 395.0,301.0"/>
    <path d="M 106.0,478.0 L 155.0,489.0 L 226.0,470.0 L 302.0,440.0 L 344.0,444.0 L 330.0,490.0 L 256.0,615.0 L 141.0,752.0 L 81.0,800.0"/>
    <path d="M 268.0,639.0 L 285.0,688.0 L 270.0,979.0 L 275.0,1011.0"/>
    <path d="M 424.0,566.0 L 401.0,568.0 L 366.0,616.0"/>
    <path d="M 317.0,621.0 L 372.0,656.0 L 392.0,685.0"/>
    <path d="M 604.0,190.0 L 633.0,220.0 L 561.0,336.0 L 546.0,339.0"/>
    <path d="M 459.0,345.0 L 484.0,372.0 L 490.0,398.0 L 491.0,511.0 L 481.0,642.0 L 485.0,706.0"/>
    <path d="M 508.0,362.0 L 533.0,369.0 L 767.0,319.0 L 783.0,321.0 L 811.0,343.0 L 822.0,358.0 L 815.0,447.0 L 818.0,652.0 L 811.0,712.0"/>
    <path d="M 705.0,412.0 L 669.0,403.0 L 645.0,418.0 L 579.0,439.0"/>
    <path d="M 549.0,471.0 L 581.0,496.0 L 588.0,509.0"/>
    <path d="M 755.0,451.0 L 738.0,449.0 L 708.0,481.0 L 697.0,485.0"/>
    <path d="M 548.0,560.0 L 604.0,556.0 L 707.0,532.0 L 750.0,533.0"/>
    <path d="M 621.0,442.0 L 647.0,465.0 L 638.0,600.0 L 642.0,670.0"/>
    <path d="M 622.0,568.0 L 581.0,622.0 L 560.0,643.0 L 531.0,660.0"/>
    <path d="M 683.0,583.0 L 715.0,605.0 L 731.0,625.0"/>
    <path d="M 386.0,808.0 L 439.0,815.0 L 569.0,793.0 L 851.0,762.0 L 890.0,767.0 L 925.0,780.0"/>
    <path d="M 588.0,713.0 L 621.0,749.0 L 613.0,817.0 L 583.0,899.0 L 555.0,940.0 L 520.0,974.0 L 448.0,1014.0 L 387.0,1031.0"/>
    <path d="M 644.0,812.0 L 658.0,840.0 L 733.0,921.0 L 794.0,972.0 L 838.0,989.0 L 976.0,1015.0"/>
  </g>
</svg>
