<svg xmlns="http://www.w3.org/2000/svg" viewBox="0 0 1024 1024">
  <g style="fill:none;stroke:#000000;stroke-width:50;stroke-linecap:round;stroke-linejoin:round;" transform="scale(1, 1) translate(0, 0)">
    <path d="M 245.0,227.0 L 333.0,281.0 L 358.0,319.0"/>
    <path d="M 86.0,491.0 L 126.0,499.0 L 153.0,497.0 L 284.0,446.0 L 316.0,443.0 L 327.0,451.0 L 316.0,488.0 L 291.0,533.0 L 203.0,661.0 L 129.0,741.0 L 69.0,787.0"/>
    <path d="M 259.0,631.0 L 259.0,653.0 L 273.0,678.0 L 258.0,950.0 L 263.0,983.0"/>
    <path d="M 408.0,598.0 L 385.0,602.0 L 355.0,643.0"/>
    <path d="M 322.0,649.0 L 377.0,691.0 L 394.0,722.0"/>
    <path d="M 513.0,295.0 L 549.0,302.0 L 590.0,299.0 L 731.0,265.0 L 784.0,264.0"/>
    <path d="M 439.0,387.0 L 450.0,411.0 L 450.0,433.0 L 420.0,517.0 L 418.0,546.0"/>
    <path d="M 481.0,413.0 L 492.0,421.0 L 512.0,418.0 L 704.0,376.0 L 820.0,362.0 L 846.0,373.0 L 862.0,394.0 L 801.0,462.0"/>
    <path d="M 611.0,321.0 L 638.0,346.0 L 629.0,613.0"/>
    <path d="M 504.0,480.0 L 543.0,497.0 L 561.0,512.0"/>
    <path d="M 497.0,554.0 L 535.0,575.0 L 551.0,591.0"/>
    <path d="M 701.0,449.0 L 736.0,463.0 L 769.0,488.0"/>
    <path d="M 697.0,529.0 L 739.0,549.0 L 765.0,570.0"/>
    <path d="M 485.0,663.0 L 508.0,670.0 L 546.0,670.0 L 724.0,635.0 L 784.0,632.0"/>
    <path d="M 614.0,709.0 L 591.0,709.0 L 567.0,749.0 L 544.0,765.0"/>
    <path d="M 406.0,784.0 L 428.0,807.0 L 439.0,833.0 L 447.0,967.0 L 457.0,1002.0"/>
    <path d="M 445.0,795.0 L 474.0,804.0 L 648.0,765.0 L 830.0,747.0 L 845.0,756.0 L 864.0,782.0 L 853.0,834.0 L 845.0,942.0 L 834.0,977.0 L 824.0,992.0 L 732.0,958.0"/>
    <path d="M 532.0,811.0 L 556.0,833.0 L 562.0,978.0"/>
    <path d="M 655.0,782.0 L 684.0,808.0 L 677.0,990.0"/>
  </g>
</svg>
