<svg xmlns="http://www.w3.org/2000/svg" viewBox="0 0 1024 1024">
  <g style="fill:none;stroke:#000000;stroke-width:50;stroke-linecap:round;stroke-linejoin:round;" transform="scale(1, 1) translate(0, 0)">
    <path d="M 221.0,229.0 L 292.0,274.0 L 318.0,313.0"/>
    <path d="M 54.0,503.0 L 101.0,513.0 L 232.0,467.0 L 274.0,468.0 L 267.0,505.0 L 200.0,630.0 L 125.0,731.0 L 35.0,822.0"/>
    <path d="M 210.0,659.0 L 211.0,682.0 L 225.0,706.0 L 211.0,968.0 L 215.0,1015.0"/>
    <path d="M 338.0,568.0 L 319.0,572.0 L 285.0,624.0"/>
    <path d="M 261.0,625.0 L 299.0,655.0 L 314.0,681.0"/>
    <path d="M 464.0,223.0 L 516.0,265.0 L 532.0,292.0"/>
    <path d="M 359.0,406.0 L 383.0,409.0 L 440.0,402.0 L 528.0,375.0 L 565.0,374.0"/>
    <path d="M 398.0,469.0 L 422.0,503.0 L 430.0,526.0"/>
    <path d="M 522.0,424.0 L 540.0,452.0 L 510.0,529.0 L 500.0,538.0"/>
    <path d="M 365.0,593.0 L 417.0,587.0 L 519.0,557.0 L 562.0,558.0"/>
    <path d="M 366.0,697.0 L 422.0,694.0 L 520.0,661.0 L 561.0,657.0"/>
    <path d="M 434.0,602.0 L 449.0,610.0 L 465.0,637.0 L 462.0,904.0 L 444.0,943.0 L 376.0,917.0"/>
    <path d="M 357.0,766.0 L 344.0,814.0 L 309.0,886.0"/>
    <path d="M 493.0,753.0 L 499.0,766.0 L 538.0,786.0 L 550.0,800.0"/>
    <path d="M 600.0,360.0 L 622.0,384.0 L 629.0,425.0 L 625.0,685.0 L 633.0,704.0"/>
    <path d="M 647.0,374.0 L 656.0,379.0 L 756.0,345.0 L 786.0,354.0 L 801.0,367.0 L 803.0,639.0 L 794.0,680.0 L 800.0,725.0"/>
    <path d="M 651.0,495.0 L 700.0,472.0 L 738.0,472.0"/>
    <path d="M 653.0,593.0 L 660.0,581.0 L 726.0,571.0 L 744.0,575.0"/>
    <path d="M 647.0,696.0 L 658.0,685.0 L 716.0,674.0 L 738.0,672.0 L 749.0,682.0"/>
    <path d="M 624.0,718.0 L 638.0,728.0 L 649.0,752.0 L 630.0,806.0 L 573.0,907.0 L 548.0,940.0 L 509.0,975.0"/>
    <path d="M 710.0,725.0 L 724.0,739.0 L 735.0,771.0 L 722.0,882.0 L 726.0,948.0 L 738.0,975.0 L 762.0,991.0 L 834.0,1005.0 L 883.0,1000.0 L 924.0,985.0 L 942.0,967.0 L 948.0,852.0"/>
  </g>
</svg>
