<svg xmlns="http://www.w3.org/2000/svg" viewBox="0 0 1024 1024">
  <g style="fill:none;stroke:#000000;stroke-width:50;stroke-linecap:round;stroke-linejoin:round;" transform="scale(1, 1) translate(0, 0)">
    <path d="M 337.0,178.0 L 388.0,209.0 L 400.0,236.0"/>
    <path d="M 243.0,287.0 L 285.0,286.0 L 452.0,254.0 L 494.0,258.0"/>
    <path d="M 279.0,306.0 L 293.0,316.0 L 315.0,362.0"/>
    <path d="M 424.0,276.0 L 440.0,300.0 L 415.0,352.0 L 402.0,364.0"/>
    <path d="M 124.0,420.0 L 156.0,427.0 L 198.0,423.0 L 432.0,374.0 L 488.0,368.0 L 507.0,373.0"/>
    <path d="M 254.0,456.0 L 273.0,481.0 L 275.0,515.0 L 258.0,675.0"/>
    <path d="M 293.0,463.0 L 309.0,466.0 L 419.0,437.0 L 446.0,454.0 L 450.0,605.0 L 442.0,646.0 L 433.0,658.0 L 380.0,637.0 L 376.0,629.0 L 363.0,628.0"/>
    <path d="M 290.0,541.0 L 302.0,531.0 L 333.0,522.0 L 385.0,523.0"/>
    <path d="M 287.0,601.0 L 298.0,593.0 L 351.0,580.0 L 389.0,583.0"/>
    <path d="M 609.0,243.0 L 619.0,237.0 L 700.0,230.0 L 730.0,221.0 L 759.0,223.0"/>
    <path d="M 561.0,174.0 L 589.0,202.0 L 570.0,314.0 L 600.0,315.0 L 696.0,295.0 L 727.0,298.0 L 739.0,312.0 L 737.0,322.0 L 720.0,349.0 L 706.0,358.0"/>
    <path d="M 573.0,394.0 L 599.0,398.0 L 694.0,377.0 L 752.0,378.0"/>
    <path d="M 540.0,390.0 L 561.0,420.0 L 557.0,525.0 L 570.0,592.0 L 591.0,612.0 L 630.0,628.0 L 668.0,633.0 L 732.0,630.0 L 787.0,620.0 L 843.0,598.0 L 878.0,571.0 L 878.0,485.0"/>
    <path d="M 580.0,464.0 L 592.0,455.0 L 665.0,443.0 L 705.0,440.0 L 721.0,447.0"/>
    <path d="M 582.0,516.0 L 586.0,507.0 L 683.0,493.0 L 720.0,497.0"/>
    <path d="M 586.0,561.0 L 592.0,556.0 L 606.0,559.0 L 673.0,549.0 L 718.0,548.0 L 735.0,554.0"/>
    <path d="M 491.0,646.0 L 568.0,706.0"/>
    <path d="M 153.0,780.0 L 206.0,787.0 L 404.0,751.0 L 744.0,708.0 L 800.0,712.0 L 833.0,724.0"/>
    <path d="M 456.0,775.0 L 420.0,789.0 L 342.0,865.0 L 257.0,926.0 L 202.0,960.0 L 141.0,984.0"/>
    <path d="M 393.0,857.0 L 388.0,988.0 L 393.0,1025.0 L 431.0,1015.0 L 524.0,961.0"/>
    <path d="M 703.0,763.0 L 716.0,798.0 L 624.0,865.0 L 609.0,863.0"/>
    <path d="M 458.0,793.0 L 474.0,791.0 L 493.0,801.0 L 649.0,935.0 L 725.0,981.0 L 796.0,1004.0 L 918.0,1001.0"/>
  </g>
</svg>
