<svg xmlns="http://www.w3.org/2000/svg" viewBox="0 0 1024 1024">
  <g style="fill:none;stroke:#000000;stroke-width:50;stroke-linecap:round;stroke-linejoin:round;" transform="scale(1, 1) translate(0, 0)">
    <path d="M 252.0,330.0 L 276.0,338.0 L 346.0,340.0 L 682.0,283.0 L 741.0,283.0"/>
    <path d="M 149.0,536.0 L 185.0,563.0 L 206.0,601.0 L 238.0,855.0 L 260.0,931.0"/>
    <path d="M 223.0,551.0 L 250.0,565.0 L 481.0,524.0 L 777.0,494.0 L 799.0,495.0 L 820.0,509.0 L 836.0,532.0 L 835.0,541.0 L 797.0,780.0 L 769.0,884.0 L 739.0,919.0 L 692.0,889.0 L 677.0,889.0"/>
    <path d="M 370.0,364.0 L 405.0,393.0 L 402.0,544.0 L 375.0,661.0 L 335.0,740.0 L 319.0,759.0"/>
    <path d="M 522.0,339.0 L 562.0,368.0 L 549.0,575.0 L 558.0,647.0 L 572.0,677.0 L 587.0,691.0 L 630.0,699.0 L 687.0,696.0 L 723.0,686.0"/>
    <path d="M 284.0,904.0 L 297.0,888.0 L 371.0,878.0 L 620.0,854.0 L 692.0,863.0"/>
  </g>
</svg>
