<svg xmlns="http://www.w3.org/2000/svg" viewBox="0 0 1024 1024">
  <g style="fill:none;stroke:#000000;stroke-width:50;stroke-linecap:round;stroke-linejoin:round;" transform="scale(1, 1) translate(0, 0)">
    <path d="M 244.0,326.0 L 291.0,337.0 L 333.0,336.0 L 544.0,305.0 L 698.0,272.0 L 757.0,276.0"/>
    <path d="M 144.0,534.0 L 174.0,563.0 L 192.0,605.0 L 206.0,779.0 L 208.0,921.0 L 225.0,984.0"/>
    <path d="M 216.0,561.0 L 242.0,574.0 L 312.0,557.0 L 519.0,525.0 L 820.0,496.0 L 855.0,513.0 L 874.0,534.0 L 850.0,777.0 L 837.0,853.0 L 819.0,912.0 L 787.0,951.0 L 751.0,936.0 L 676.0,886.0"/>
    <path d="M 350.0,361.0 L 376.0,375.0 L 395.0,400.0 L 404.0,480.0 L 414.0,711.0 L 427.0,785.0"/>
    <path d="M 562.0,329.0 L 570.0,339.0 L 606.0,356.0 L 612.0,376.0 L 576.0,679.0 L 558.0,699.0"/>
    <path d="M 448.0,756.0 L 465.0,743.0 L 558.0,727.0 L 596.0,728.0 L 617.0,737.0"/>
  </g>
</svg>
