<svg xmlns="http://www.w3.org/2000/svg" viewBox="0 0 1024 1024">
  <g style="fill:none;stroke:#000000;stroke-width:50;stroke-linecap:round;stroke-linejoin:round;" transform="scale(1, 1) translate(0, 0)">
    <path d="M 304.0,221.0 L 350.0,231.0 L 414.0,226.0 L 645.0,188.0 L 692.0,188.0"/>
    <path d="M 201.0,345.0 L 233.0,365.0 L 247.0,391.0 L 284.0,507.0"/>
    <path d="M 256.0,345.0 L 288.0,356.0 L 471.0,322.0 L 613.0,307.0 L 677.0,294.0 L 748.0,300.0 L 772.0,322.0 L 780.0,342.0 L 723.0,449.0 L 721.0,478.0"/>
    <path d="M 363.0,253.0 L 400.0,278.0 L 425.0,436.0 L 414.0,447.0"/>
    <path d="M 562.0,232.0 L 593.0,253.0 L 554.0,413.0 L 536.0,429.0"/>
    <path d="M 301.0,495.0 L 337.0,481.0 L 671.0,433.0 L 688.0,424.0"/>
  </g>
</svg>
