<svg xmlns="http://www.w3.org/2000/svg" viewBox="0 0 1024 1024">
  <g style="fill:none;stroke:#000000;stroke-width:50;stroke-linecap:round;stroke-linejoin:round;" transform="scale(1, 1) translate(0, 0)">
    <path d="M 607.0,220.0 L 590.0,212.0 L 540.0,205.0 L 451.0,255.0 L 314.0,302.0"/>
    <path d="M 248.0,346.0 L 310.0,386.0 L 334.0,423.0"/>
    <path d="M 435.0,322.0 L 476.0,359.0 L 501.0,396.0"/>
    <path d="M 715.0,246.0 L 725.0,264.0 L 726.0,284.0 L 614.0,359.0 L 598.0,363.0 L 592.0,373.0"/>
    <path d="M 307.0,468.0 L 330.0,491.0 L 337.0,513.0 L 340.0,620.0 L 334.0,746.0 L 341.0,799.0"/>
    <path d="M 357.0,474.0 L 372.0,486.0 L 590.0,444.0 L 612.0,452.0 L 633.0,472.0 L 643.0,489.0 L 637.0,561.0 L 642.0,739.0 L 635.0,811.0"/>
    <path d="M 362.0,596.0 L 376.0,586.0 L 481.0,567.0 L 527.0,560.0 L 563.0,565.0"/>
    <path d="M 369.0,692.0 L 379.0,682.0 L 426.0,673.0 L 537.0,658.0 L 567.0,664.0"/>
    <path d="M 361.0,791.0 L 383.0,776.0 L 548.0,757.0 L 582.0,756.0 L 594.0,771.0"/>
    <path d="M 388.0,800.0 L 400.0,813.0 L 409.0,841.0 L 379.0,896.0 L 339.0,948.0 L 267.0,1009.0 L 189.0,1052.0 L 149.0,1065.0"/>
    <path d="M 506.0,784.0 L 535.0,811.0 L 526.0,950.0 L 535.0,1000.0 L 553.0,1026.0 L 570.0,1037.0 L 635.0,1061.0 L 706.0,1069.0 L 773.0,1065.0 L 847.0,1049.0 L 893.0,1027.0 L 916.0,1007.0 L 928.0,873.0"/>
  </g>
</svg>
