<svg xmlns="http://www.w3.org/2000/svg" viewBox="0 0 1024 1024">
  <g style="fill:none;stroke:#000000;stroke-width:50;stroke-linecap:round;stroke-linejoin:round;" transform="scale(1, 1) translate(0, 0)">
    <path d="M 159.0,454.0 L 212.0,456.0 L 364.0,410.0 L 399.0,404.0 L 424.0,407.0"/>
    <path d="M 72.0,630.0 L 102.0,636.0 L 134.0,634.0 L 385.0,563.0 L 433.0,564.0"/>
    <path d="M 251.0,233.0 L 304.0,276.0 L 292.0,624.0 L 277.0,728.0 L 248.0,810.0 L 200.0,886.0 L 141.0,937.0 L 71.0,974.0"/>
    <path d="M 309.0,698.0 L 319.0,701.0 L 325.0,721.0 L 386.0,767.0 L 399.0,792.0 L 398.0,802.0"/>
    <path d="M 468.0,276.0 L 489.0,296.0 L 497.0,314.0 L 503.0,375.0 L 503.0,678.0"/>
    <path d="M 515.0,286.0 L 531.0,293.0 L 567.0,288.0 L 703.0,253.0 L 734.0,265.0 L 752.0,281.0 L 752.0,571.0 L 750.0,619.0 L 742.0,642.0 L 748.0,698.0"/>
    <path d="M 528.0,430.0 L 539.0,419.0 L 609.0,402.0 L 649.0,397.0 L 672.0,403.0"/>
    <path d="M 533.0,537.0 L 540.0,526.0 L 607.0,512.0 L 649.0,508.0 L 671.0,514.0"/>
    <path d="M 531.0,649.0 L 544.0,638.0 L 710.0,612.0"/>
    <path d="M 527.0,685.0 L 541.0,717.0 L 528.0,761.0 L 484.0,849.0 L 445.0,900.0 L 413.0,930.0 L 359.0,973.0 L 335.0,984.0"/>
    <path d="M 625.0,648.0 L 657.0,673.0 L 649.0,850.0 L 657.0,928.0 L 674.0,971.0 L 700.0,992.0 L 757.0,1012.0 L 819.0,1018.0 L 875.0,1010.0 L 911.0,993.0 L 937.0,970.0 L 948.0,820.0"/>
  </g>
</svg>
