<svg xmlns="http://www.w3.org/2000/svg" viewBox="0 0 1024 1024">
  <g style="fill:none;stroke:#000000;stroke-width:50;stroke-linecap:round;stroke-linejoin:round;" transform="scale(1, 1) translate(0, 0)">
    <path d="M 302.0,225.0 L 387.0,274.0 L 408.0,308.0"/>
    <path d="M 96.0,516.0 L 156.0,529.0 L 237.0,507.0 L 321.0,475.0 L 375.0,476.0 L 358.0,529.0 L 300.0,629.0 L 247.0,705.0 L 162.0,802.0 L 73.0,876.0"/>
    <path d="M 306.0,669.0 L 313.0,713.0 L 298.0,982.0 L 303.0,1015.0"/>
    <path d="M 359.0,642.0 L 413.0,684.0 L 427.0,714.0"/>
    <path d="M 495.0,292.0 L 517.0,316.0 L 524.0,339.0 L 527.0,450.0 L 520.0,641.0 L 525.0,679.0"/>
    <path d="M 546.0,299.0 L 560.0,310.0 L 713.0,264.0 L 735.0,270.0 L 767.0,303.0 L 759.0,392.0 L 763.0,596.0 L 755.0,674.0"/>
    <path d="M 552.0,437.0 L 564.0,427.0 L 622.0,411.0 L 651.0,406.0 L 684.0,410.0"/>
    <path d="M 554.0,542.0 L 563.0,530.0 L 612.0,519.0 L 657.0,513.0 L 691.0,519.0"/>
    <path d="M 547.0,660.0 L 560.0,644.0 L 671.0,618.0 L 691.0,616.0 L 712.0,626.0"/>
    <path d="M 556.0,708.0 L 574.0,741.0 L 523.0,830.0 L 446.0,901.0 L 372.0,939.0"/>
    <path d="M 633.0,647.0 L 664.0,665.0 L 677.0,686.0 L 667.0,801.0 L 671.0,886.0 L 686.0,932.0 L 719.0,955.0 L 755.0,965.0 L 836.0,969.0 L 911.0,960.0 L 946.0,945.0 L 956.0,937.0 L 956.0,794.0"/>
  </g>
</svg>
