<svg xmlns="http://www.w3.org/2000/svg" viewBox="0 0 1024 1024">
  <g style="fill:none;stroke:#000000;stroke-width:50;stroke-linecap:round;stroke-linejoin:round;" transform="scale(1, 1) translate(0, 0)">
    <path d="M 312.0,186.0 L 334.0,208.0 L 344.0,231.0 L 305.0,303.0 L 214.0,435.0 L 129.0,536.0 L 67.0,591.0"/>
    <path d="M 342.0,296.0 L 357.0,296.0 L 411.0,319.0 L 448.0,348.0 L 459.0,369.0"/>
    <path d="M 254.0,469.0 L 303.0,470.0 L 363.0,450.0 L 422.0,443.0"/>
    <path d="M 126.0,570.0 L 147.0,582.0 L 153.0,688.0 L 125.0,921.0"/>
    <path d="M 178.0,590.0 L 182.0,581.0 L 244.0,561.0 L 259.0,566.0 L 275.0,583.0 L 270.0,655.0 L 273.0,889.0 L 257.0,917.0 L 210.0,899.0 L 205.0,892.0 L 192.0,892.0"/>
    <path d="M 171.0,689.0 L 189.0,675.0 L 218.0,676.0"/>
    <path d="M 168.0,791.0 L 173.0,780.0 L 190.0,772.0 L 230.0,772.0"/>
    <path d="M 348.0,583.0 L 363.0,609.0 L 362.0,759.0"/>
    <path d="M 432.0,517.0 L 457.0,547.0 L 455.0,828.0 L 438.0,860.0 L 384.0,830.0 L 372.0,829.0"/>
    <path d="M 530.0,287.0 L 553.0,312.0 L 563.0,384.0 L 558.0,677.0"/>
    <path d="M 581.0,302.0 L 591.0,307.0 L 620.0,301.0 L 736.0,267.0 L 766.0,276.0 L 784.0,295.0 L 782.0,574.0 L 771.0,647.0 L 776.0,697.0"/>
    <path d="M 581.0,440.0 L 592.0,437.0 L 596.0,427.0 L 626.0,417.0 L 673.0,409.0 L 692.0,412.0"/>
    <path d="M 587.0,537.0 L 598.0,526.0 L 651.0,509.0 L 700.0,509.0"/>
    <path d="M 589.0,653.0 L 598.0,642.0 L 717.0,629.0 L 741.0,621.0"/>
    <path d="M 567.0,686.0 L 585.0,694.0 L 595.0,717.0 L 564.0,804.0 L 482.0,934.0 L 430.0,986.0"/>
    <path d="M 664.0,657.0 L 691.0,689.0 L 681.0,822.0 L 682.0,897.0 L 692.0,949.0 L 712.0,981.0 L 751.0,1000.0 L 817.0,1010.0 L 867.0,1005.0 L 912.0,992.0 L 946.0,966.0 L 952.0,848.0"/>
  </g>
</svg>
