<svg xmlns="http://www.w3.org/2000/svg" viewBox="0 0 1024 1024">
  <g style="fill:none;stroke:#000000;stroke-width:50;stroke-linecap:round;stroke-linejoin:round;" transform="scale(1, 1) translate(0, 0)">
    <path d="M 131.0,372.0 L 153.0,375.0 L 207.0,368.0 L 384.0,311.0 L 424.0,307.0"/>
    <path d="M 256.0,383.0 L 285.0,402.0 L 290.0,422.0 L 282.0,680.0 L 277.0,727.0 L 260.0,748.0"/>
    <path d="M 157.0,464.0 L 178.0,490.0 L 152.0,582.0 L 107.0,653.0 L 53.0,698.0"/>
    <path d="M 179.0,595.0 L 183.0,610.0 L 199.0,624.0 L 211.0,646.0"/>
    <path d="M 402.0,414.0 L 424.0,440.0 L 411.0,488.0 L 374.0,560.0 L 324.0,615.0"/>
    <path d="M 402.0,562.0 L 413.0,562.0 L 439.0,579.0 L 462.0,602.0"/>
    <path d="M 86.0,815.0 L 142.0,831.0 L 464.0,699.0"/>
    <path d="M 500.0,263.0 L 526.0,289.0 L 532.0,306.0 L 534.0,539.0 L 526.0,651.0 L 532.0,695.0"/>
    <path d="M 559.0,279.0 L 583.0,285.0 L 670.0,256.0 L 727.0,245.0 L 752.0,260.0 L 771.0,284.0 L 761.0,381.0 L 761.0,609.0 L 750.0,690.0"/>
    <path d="M 564.0,423.0 L 573.0,410.0 L 613.0,396.0 L 659.0,387.0 L 685.0,392.0"/>
    <path d="M 560.0,538.0 L 574.0,522.0 L 631.0,506.0 L 688.0,507.0"/>
    <path d="M 554.0,670.0 L 581.0,649.0 L 712.0,626.0"/>
    <path d="M 560.0,709.0 L 578.0,742.0 L 544.0,816.0 L 517.0,856.0 L 451.0,925.0 L 378.0,974.0 L 340.0,990.0"/>
    <path d="M 649.0,664.0 L 679.0,701.0 L 667.0,847.0 L 670.0,931.0 L 683.0,970.0 L 715.0,997.0 L 774.0,1013.0 L 840.0,1013.0 L 880.0,1003.0 L 914.0,983.0 L 923.0,973.0 L 924.0,809.0"/>
  </g>
</svg>
