<svg xmlns="http://www.w3.org/2000/svg" viewBox="0 0 1024 1024">
  <g style="fill:none;stroke:#000000;stroke-width:50;stroke-linecap:round;stroke-linejoin:round;" transform="scale(1, 1) translate(0, 0)">
    <path d="M 159.0,454.0 L 222.0,453.0 L 354.0,413.0 L 421.0,405.0"/>
    <path d="M 80.0,638.0 L 99.0,643.0 L 141.0,641.0 L 363.0,567.0 L 403.0,559.0 L 429.0,561.0"/>
    <path d="M 267.0,237.0 L 292.0,253.0 L 315.0,278.0 L 304.0,639.0 L 284.0,748.0 L 261.0,812.0 L 215.0,885.0 L 153.0,938.0 L 83.0,973.0"/>
    <path d="M 329.0,700.0 L 342.0,724.0 L 398.0,771.0 L 412.0,799.0 L 410.0,806.0"/>
    <path d="M 469.0,282.0 L 500.0,314.0 L 508.0,344.0 L 511.0,493.0 L 493.0,638.0 L 495.0,696.0"/>
    <path d="M 529.0,294.0 L 536.0,303.0 L 562.0,303.0 L 714.0,271.0 L 735.0,276.0 L 765.0,309.0 L 759.0,378.0 L 762.0,631.0 L 755.0,698.0"/>
    <path d="M 575.0,373.0 L 595.0,381.0 L 621.0,408.0 L 601.0,655.0 L 568.0,776.0 L 538.0,842.0 L 490.0,905.0 L 443.0,947.0 L 381.0,988.0 L 351.0,1000.0"/>
    <path d="M 626.0,660.0 L 658.0,714.0 L 646.0,802.0 L 645.0,866.0 L 652.0,926.0 L 664.0,954.0 L 695.0,974.0 L 726.0,982.0 L 805.0,985.0 L 890.0,973.0 L 936.0,952.0 L 936.0,797.0"/>
  </g>
</svg>
