<svg xmlns="http://www.w3.org/2000/svg" viewBox="0 0 1024 1024">
  <g style="fill:none;stroke:#000000;stroke-width:50;stroke-linecap:round;stroke-linejoin:round;" transform="scale(1, 1) translate(0, 0)">
    <path d="M 626.0,221.0 L 558.0,203.0 L 458.0,254.0 L 333.0,290.0"/>
    <path d="M 272.0,330.0 L 338.0,376.0 L 366.0,419.0"/>
    <path d="M 443.0,312.0 L 480.0,347.0 L 502.0,380.0"/>
    <path d="M 710.0,248.0 L 724.0,269.0 L 727.0,290.0 L 643.0,352.0 L 612.0,366.0 L 604.0,377.0"/>
    <path d="M 294.0,471.0 L 313.0,485.0 L 331.0,518.0 L 331.0,659.0 L 320.0,726.0 L 323.0,792.0"/>
    <path d="M 349.0,482.0 L 369.0,493.0 L 405.0,490.0 L 590.0,446.0 L 625.0,459.0 L 645.0,488.0 L 639.0,582.0 L 643.0,717.0 L 635.0,794.0"/>
    <path d="M 427.0,542.0 L 446.0,551.0 L 466.0,572.0 L 474.0,582.0 L 473.0,595.0 L 449.0,742.0 L 426.0,819.0 L 399.0,877.0 L 350.0,937.0 L 308.0,968.0 L 251.0,998.0 L 168.0,1022.0"/>
    <path d="M 504.0,725.0 L 541.0,776.0 L 527.0,902.0 L 535.0,969.0 L 557.0,1001.0 L 594.0,1020.0 L 668.0,1032.0 L 787.0,1030.0 L 844.0,1021.0 L 892.0,1000.0 L 899.0,963.0 L 896.0,818.0"/>
  </g>
</svg>
