<svg xmlns="http://www.w3.org/2000/svg" viewBox="0 0 1024 1024">
  <g style="fill:none;stroke:#000000;stroke-width:50;stroke-linecap:round;stroke-linejoin:round;" transform="scale(1, 1) translate(0, 0)">
    <path d="M 242.0,246.0 L 256.0,252.0 L 322.0,249.0 L 393.0,232.0 L 467.0,224.0"/>
    <path d="M 363.0,266.0 L 354.0,286.0 L 353.0,314.0 L 338.0,331.0"/>
    <path d="M 239.0,375.0 L 265.0,363.0 L 337.0,354.0 L 395.0,334.0 L 418.0,341.0 L 430.0,360.0 L 415.0,392.0 L 396.0,402.0"/>
    <path d="M 238.0,461.0 L 247.0,454.0 L 385.0,425.0 L 429.0,429.0"/>
    <path d="M 340.0,457.0 L 350.0,467.0 L 350.0,507.0 L 333.0,518.0"/>
    <path d="M 193.0,225.0 L 220.0,265.0 L 220.0,374.0 L 206.0,570.0 L 228.0,572.0 L 322.0,547.0 L 424.0,529.0 L 459.0,536.0"/>
    <path d="M 567.0,174.0 L 587.0,200.0 L 567.0,256.0 L 541.0,301.0 L 500.0,342.0"/>
    <path d="M 588.0,267.0 L 677.0,255.0 L 767.0,231.0 L 811.0,230.0"/>
    <path d="M 602.0,307.0 L 636.0,329.0 L 653.0,348.0"/>
    <path d="M 484.0,399.0 L 510.0,428.0 L 537.0,548.0"/>
    <path d="M 536.0,422.0 L 542.0,412.0 L 563.0,407.0 L 738.0,375.0 L 789.0,380.0 L 810.0,406.0 L 775.0,505.0 L 775.0,528.0"/>
    <path d="M 597.0,420.0 L 605.0,429.0 L 618.0,502.0"/>
    <path d="M 677.0,403.0 L 693.0,424.0 L 681.0,480.0 L 665.0,490.0"/>
    <path d="M 553.0,537.0 L 566.0,527.0 L 743.0,499.0"/>
    <path d="M 315.0,600.0 L 337.0,624.0 L 343.0,646.0 L 342.0,761.0 L 333.0,818.0 L 336.0,862.0"/>
    <path d="M 362.0,609.0 L 374.0,618.0 L 572.0,582.0 L 592.0,583.0 L 615.0,599.0 L 630.0,618.0 L 624.0,675.0 L 627.0,782.0 L 619.0,868.0"/>
    <path d="M 367.0,704.0 L 377.0,693.0 L 420.0,689.0 L 428.0,683.0 L 504.0,671.0 L 536.0,674.0"/>
    <path d="M 370.0,772.0 L 378.0,762.0 L 504.0,746.0 L 529.0,744.0 L 545.0,751.0"/>
    <path d="M 358.0,847.0 L 381.0,835.0 L 557.0,811.0 L 574.0,812.0 L 580.0,821.0"/>
    <path d="M 388.0,857.0 L 406.0,886.0 L 375.0,937.0 L 342.0,974.0 L 296.0,1013.0 L 248.0,1042.0 L 165.0,1071.0"/>
    <path d="M 495.0,839.0 L 522.0,863.0 L 515.0,966.0 L 526.0,1027.0 L 540.0,1043.0 L 575.0,1064.0 L 634.0,1079.0 L 692.0,1083.0 L 782.0,1075.0 L 831.0,1063.0 L 877.0,1041.0 L 898.0,1022.0 L 901.0,1011.0 L 904.0,877.0"/>
  </g>
</svg>
