<svg xmlns="http://www.w3.org/2000/svg" viewBox="0 0 1024 1024">
  <g style="fill:none;stroke:#000000;stroke-width:50;stroke-linecap:round;stroke-linejoin:round;" transform="scale(1, 1) translate(0, 0)">
    <path d="M 284.0,287.0 L 352.0,329.0 L 382.0,369.0"/>
    <path d="M 419.0,222.0 L 481.0,278.0 L 493.0,304.0"/>
    <path d="M 643.0,207.0 L 667.0,239.0 L 662.0,248.0 L 563.0,378.0 L 541.0,390.0"/>
    <path d="M 216.0,411.0 L 226.0,440.0 L 223.0,459.0 L 178.0,542.0 L 175.0,593.0"/>
    <path d="M 253.0,445.0 L 272.0,455.0 L 306.0,454.0 L 408.0,430.0 L 618.0,397.0 L 711.0,385.0 L 761.0,393.0 L 778.0,405.0 L 789.0,426.0 L 706.0,509.0"/>
    <path d="M 336.0,522.0 L 361.0,551.0 L 365.0,568.0 L 367.0,638.0 L 354.0,767.0 L 355.0,812.0"/>
    <path d="M 389.0,537.0 L 402.0,545.0 L 417.0,545.0 L 568.0,504.0 L 599.0,526.0 L 608.0,545.0 L 607.0,728.0 L 599.0,800.0"/>
    <path d="M 444.0,601.0 L 463.0,611.0 L 490.0,641.0 L 465.0,805.0 L 430.0,893.0 L 402.0,936.0 L 343.0,983.0 L 263.0,1016.0 L 211.0,1026.0"/>
    <path d="M 519.0,807.0 L 555.0,852.0 L 545.0,931.0 L 556.0,985.0 L 571.0,1004.0 L 587.0,1013.0 L 633.0,1025.0 L 772.0,1025.0 L 811.0,1018.0 L 863.0,996.0 L 872.0,947.0 L 872.0,841.0"/>
  </g>
</svg>
