<svg xmlns="http://www.w3.org/2000/svg" viewBox="0 0 1024 1024">
  <g style="fill:none;stroke:#000000;stroke-width:50;stroke-linecap:round;stroke-linejoin:round;" transform="scale(1, 1) translate(0, 0)">
    <path d="M 281.0,237.0 L 365.0,291.0 L 386.0,329.0"/>
    <path d="M 103.0,497.0 L 154.0,509.0 L 200.0,502.0 L 307.0,466.0 L 357.0,470.0 L 332.0,532.0 L 237.0,677.0 L 164.0,762.0 L 81.0,837.0 L 55.0,853.0"/>
    <path d="M 273.0,671.0 L 277.0,699.0 L 288.0,720.0 L 289.0,747.0 L 286.0,879.0 L 277.0,966.0 L 283.0,1015.0"/>
    <path d="M 352.0,645.0 L 401.0,689.0 L 416.0,717.0"/>
    <path d="M 467.0,320.0 L 487.0,341.0 L 496.0,371.0 L 498.0,577.0 L 492.0,660.0 L 497.0,707.0"/>
    <path d="M 514.0,331.0 L 531.0,337.0 L 705.0,302.0 L 728.0,314.0 L 746.0,337.0 L 741.0,400.0 L 749.0,637.0 L 743.0,703.0"/>
    <path d="M 572.0,424.0 L 591.0,433.0 L 616.0,459.0 L 601.0,645.0 L 571.0,771.0 L 536.0,843.0 L 495.0,896.0 L 440.0,943.0 L 395.0,970.0 L 369.0,977.0"/>
    <path d="M 619.0,681.0 L 650.0,734.0 L 638.0,841.0 L 642.0,930.0 L 655.0,958.0 L 682.0,978.0 L 740.0,991.0 L 850.0,989.0 L 888.0,983.0 L 937.0,963.0 L 943.0,931.0 L 944.0,809.0"/>
  </g>
</svg>
