<svg xmlns="http://www.w3.org/2000/svg" viewBox="0 0 1024 1024">
  <g style="fill:none;stroke:#000000;stroke-width:50;stroke-linecap:round;stroke-linejoin:round;" transform="scale(1, 1) translate(0, 0)">
    <path d="M 318.0,197.0 L 351.0,228.0 L 349.0,351.0 L 335.0,361.0"/>
    <path d="M 377.0,283.0 L 390.0,270.0 L 437.0,256.0 L 496.0,253.0"/>
    <path d="M 204.0,403.0 L 214.0,411.0 L 233.0,412.0 L 418.0,365.0 L 463.0,361.0 L 477.0,366.0 L 492.0,382.0 L 446.0,451.0"/>
    <path d="M 148.0,397.0 L 174.0,418.0 L 182.0,438.0 L 183.0,552.0 L 170.0,693.0 L 135.0,823.0 L 81.0,933.0 L 56.0,966.0"/>
    <path d="M 233.0,529.0 L 285.0,526.0 L 393.0,487.0 L 424.0,484.0"/>
    <path d="M 294.0,417.0 L 311.0,427.0 L 319.0,441.0 L 318.0,564.0 L 327.0,580.0 L 344.0,589.0 L 412.0,589.0 L 455.0,569.0 L 469.0,491.0"/>
    <path d="M 270.0,663.0 L 300.0,694.0 L 303.0,705.0 L 310.0,903.0 L 296.0,914.0"/>
    <path d="M 371.0,647.0 L 404.0,676.0 L 392.0,871.0 L 387.0,890.0 L 377.0,897.0"/>
    <path d="M 200.0,782.0 L 240.0,809.0 L 254.0,837.0"/>
    <path d="M 520.0,723.0 L 493.0,720.0 L 427.0,787.0"/>
    <path d="M 143.0,965.0 L 189.0,982.0 L 410.0,913.0 L 505.0,874.0"/>
    <path d="M 559.0,319.0 L 588.0,348.0 L 592.0,377.0 L 596.0,552.0 L 581.0,674.0 L 583.0,728.0"/>
    <path d="M 619.0,352.0 L 641.0,335.0 L 758.0,303.0 L 778.0,307.0 L 806.0,337.0 L 800.0,407.0 L 805.0,665.0 L 799.0,727.0"/>
    <path d="M 651.0,419.0 L 674.0,427.0 L 698.0,452.0 L 694.0,626.0 L 670.0,761.0 L 637.0,839.0 L 580.0,911.0 L 520.0,958.0 L 455.0,992.0"/>
    <path d="M 716.0,738.0 L 739.0,767.0 L 730.0,851.0 L 733.0,941.0 L 748.0,977.0 L 768.0,990.0 L 814.0,1001.0 L 862.0,1001.0 L 910.0,990.0 L 937.0,971.0 L 942.0,833.0"/>
  </g>
</svg>
