<svg xmlns="http://www.w3.org/2000/svg" viewBox="0 0 1024 1024">
  <g style="fill:none;stroke:#000000;stroke-width:50;stroke-linecap:round;stroke-linejoin:round;" transform="scale(1, 1) translate(0, 0)">
    <path d="M 328.0,209.0 L 350.0,248.0 L 321.0,301.0 L 244.0,393.0 L 169.0,460.0"/>
    <path d="M 301.0,359.0 L 393.0,341.0 L 428.0,352.0 L 377.0,441.0 L 335.0,493.0"/>
    <path d="M 165.0,513.0 L 183.0,526.0 L 199.0,555.0 L 203.0,611.0 L 192.0,741.0 L 158.0,875.0 L 107.0,972.0 L 91.0,991.0"/>
    <path d="M 218.0,520.0 L 239.0,531.0 L 411.0,493.0 L 441.0,505.0 L 458.0,526.0 L 464.0,903.0 L 458.0,955.0 L 447.0,976.0 L 351.0,951.0"/>
    <path d="M 248.0,669.0 L 368.0,641.0 L 405.0,644.0"/>
    <path d="M 227.0,785.0 L 381.0,755.0 L 412.0,760.0"/>
    <path d="M 298.0,542.0 L 325.0,559.0 L 315.0,921.0"/>
    <path d="M 572.0,218.0 L 598.0,248.0 L 586.0,283.0 L 537.0,379.0 L 487.0,442.0"/>
    <path d="M 570.0,365.0 L 656.0,353.0 L 793.0,320.0 L 824.0,320.0"/>
    <path d="M 511.0,485.0 L 552.0,489.0 L 664.0,451.0 L 685.0,453.0 L 698.0,463.0 L 694.0,478.0 L 626.0,595.0 L 614.0,633.0 L 646.0,638.0 L 764.0,613.0 L 827.0,608.0 L 847.0,618.0 L 863.0,640.0 L 849.0,734.0 L 825.0,820.0 L 803.0,880.0 L 759.0,953.0 L 716.0,991.0 L 615.0,936.0"/>
    <path d="M 616.0,663.0 L 630.0,678.0 L 633.0,692.0 L 618.0,723.0 L 553.0,805.0 L 511.0,836.0"/>
    <path d="M 720.0,643.0 L 747.0,666.0 L 746.0,671.0 L 725.0,722.0 L 687.0,789.0 L 613.0,882.0 L 546.0,943.0 L 514.0,960.0 L 511.0,968.0"/>
  </g>
</svg>
