<svg xmlns="http://www.w3.org/2000/svg" viewBox="0 0 1024 1024">
  <g style="fill:none;stroke:#000000;stroke-width:50;stroke-linecap:round;stroke-linejoin:round;" transform="scale(1, 1) translate(0, 0)">
    <path d="M 311.0,178.0 L 329.0,199.0 L 336.0,222.0 L 300.0,284.0 L 231.0,372.0 L 176.0,428.0 L 144.0,451.0"/>
    <path d="M 303.0,323.0 L 416.0,304.0 L 449.0,318.0 L 363.0,445.0 L 343.0,457.0 L 339.0,466.0"/>
    <path d="M 172.0,481.0 L 188.0,493.0 L 206.0,524.0 L 197.0,718.0 L 178.0,808.0 L 151.0,884.0 L 112.0,956.0 L 87.0,987.0"/>
    <path d="M 227.0,488.0 L 251.0,498.0 L 436.0,459.0 L 455.0,463.0 L 482.0,494.0 L 483.0,837.0 L 476.0,910.0 L 462.0,937.0 L 370.0,901.0"/>
    <path d="M 250.0,621.0 L 307.0,619.0 L 382.0,594.0 L 418.0,593.0"/>
    <path d="M 243.0,727.0 L 303.0,726.0 L 384.0,699.0 L 420.0,697.0"/>
    <path d="M 309.0,501.0 L 337.0,522.0 L 340.0,533.0 L 331.0,898.0"/>
    <path d="M 543.0,307.0 L 597.0,313.0 L 807.0,267.0 L 834.0,273.0 L 846.0,285.0 L 838.0,373.0 L 826.0,429.0 L 812.0,456.0 L 786.0,480.0 L 708.0,437.0"/>
    <path d="M 668.0,322.0 L 683.0,337.0 L 684.0,349.0 L 670.0,383.0 L 616.0,461.0 L 550.0,519.0"/>
    <path d="M 595.0,556.0 L 614.0,579.0 L 540.0,708.0"/>
    <path d="M 603.0,649.0 L 687.0,641.0 L 797.0,612.0 L 850.0,611.0"/>
    <path d="M 528.0,788.0 L 573.0,794.0 L 694.0,770.0 L 878.0,744.0 L 946.0,758.0"/>
    <path d="M 686.0,523.0 L 705.0,533.0 L 727.0,558.0 L 723.0,1057.0"/>
  </g>
</svg>
