<svg xmlns="http://www.w3.org/2000/svg" viewBox="0 0 1024 1024">
  <g style="fill:none;stroke:#000000;stroke-width:50;stroke-linecap:round;stroke-linejoin:round;" transform="scale(1, 1) translate(0, 0)">
    <path d="M 270.0,206.0 L 283.0,222.0 L 291.0,246.0 L 242.0,338.0 L 197.0,390.0 L 116.0,454.0"/>
    <path d="M 267.0,342.0 L 290.0,329.0 L 345.0,316.0 L 366.0,315.0 L 397.0,330.0 L 316.0,458.0 L 286.0,476.0"/>
    <path d="M 144.0,494.0 L 161.0,504.0 L 180.0,538.0 L 182.0,617.0 L 170.0,744.0 L 136.0,868.0 L 101.0,939.0 L 71.0,983.0"/>
    <path d="M 200.0,502.0 L 219.0,511.0 L 384.0,474.0 L 408.0,485.0 L 426.0,508.0 L 429.0,848.0 L 422.0,924.0 L 410.0,950.0 L 381.0,945.0 L 318.0,920.0"/>
    <path d="M 224.0,649.0 L 328.0,626.0 L 358.0,622.0 L 377.0,627.0"/>
    <path d="M 211.0,753.0 L 279.0,743.0 L 326.0,729.0 L 380.0,732.0"/>
    <path d="M 269.0,521.0 L 294.0,535.0 L 300.0,550.0 L 291.0,935.0"/>
    <path d="M 630.0,223.0 L 676.0,265.0 L 665.0,532.0 L 662.0,554.0 L 644.0,575.0"/>
    <path d="M 504.0,428.0 L 565.0,490.0 L 576.0,521.0"/>
    <path d="M 813.0,350.0 L 833.0,369.0 L 841.0,386.0 L 801.0,436.0 L 731.0,506.0"/>
    <path d="M 472.0,624.0 L 539.0,624.0 L 635.0,600.0 L 807.0,569.0 L 855.0,568.0 L 902.0,578.0"/>
    <path d="M 569.0,638.0 L 594.0,657.0 L 603.0,677.0 L 587.0,733.0 L 544.0,822.0 L 510.0,875.0 L 456.0,941.0"/>
    <path d="M 676.0,617.0 L 707.0,644.0 L 693.0,775.0 L 690.0,873.0 L 698.0,923.0 L 716.0,954.0 L 766.0,976.0 L 836.0,980.0 L 888.0,970.0 L 923.0,951.0 L 933.0,937.0 L 936.0,800.0"/>
  </g>
</svg>
