<svg xmlns="http://www.w3.org/2000/svg" viewBox="0 0 1024 1024">
  <g style="fill:none;stroke:#000000;stroke-width:50;stroke-linecap:round;stroke-linejoin:round;" transform="scale(1, 1) translate(0, 0)">
    <path d="M 302.0,208.0 L 320.0,230.0 L 325.0,250.0 L 319.0,260.0 L 253.0,353.0 L 180.0,425.0 L 155.0,441.0"/>
    <path d="M 279.0,354.0 L 376.0,330.0 L 408.0,340.0 L 397.0,371.0 L 336.0,466.0 L 316.0,484.0"/>
    <path d="M 145.0,505.0 L 171.0,526.0 L 179.0,548.0 L 180.0,621.0 L 172.0,716.0 L 139.0,857.0 L 112.0,915.0 L 79.0,963.0"/>
    <path d="M 199.0,512.0 L 224.0,520.0 L 395.0,479.0 L 425.0,489.0 L 442.0,511.0 L 450.0,853.0 L 446.0,914.0 L 430.0,949.0 L 396.0,938.0 L 363.0,915.0 L 349.0,912.0"/>
    <path d="M 230.0,649.0 L 347.0,624.0 L 385.0,627.0"/>
    <path d="M 216.0,772.0 L 331.0,745.0 L 367.0,740.0 L 388.0,745.0"/>
    <path d="M 277.0,524.0 L 305.0,548.0 L 295.0,942.0"/>
    <path d="M 552.0,290.0 L 606.0,333.0 L 623.0,370.0"/>
    <path d="M 770.0,230.0 L 795.0,259.0 L 710.0,383.0"/>
    <path d="M 501.0,460.0 L 520.0,477.0 L 531.0,497.0 L 568.0,703.0"/>
    <path d="M 546.0,461.0 L 555.0,469.0 L 574.0,469.0 L 763.0,433.0 L 813.0,440.0 L 836.0,466.0 L 806.0,597.0 L 788.0,650.0 L 791.0,673.0"/>
    <path d="M 595.0,564.0 L 620.0,564.0 L 727.0,542.0 L 764.0,546.0"/>
    <path d="M 587.0,672.0 L 602.0,663.0 L 756.0,636.0"/>
    <path d="M 498.0,776.0 L 535.0,784.0 L 561.0,782.0 L 640.0,768.0 L 843.0,747.0 L 921.0,764.0"/>
    <path d="M 639.0,476.0 L 649.0,476.0 L 682.0,498.0 L 679.0,1051.0"/>
  </g>
</svg>
