<svg xmlns="http://www.w3.org/2000/svg" viewBox="0 0 1024 1024">
  <g style="fill:none;stroke:#000000;stroke-width:50;stroke-linecap:round;stroke-linejoin:round;" transform="scale(1, 1) translate(0, 0)">
    <path d="M 278.0,186.0 L 302.0,228.0 L 272.0,279.0 L 182.0,387.0 L 131.0,428.0"/>
    <path d="M 275.0,316.0 L 366.0,295.0 L 385.0,297.0 L 404.0,311.0 L 391.0,337.0 L 327.0,423.0 L 286.0,464.0"/>
    <path d="M 141.0,477.0 L 170.0,504.0 L 175.0,522.0 L 177.0,625.0 L 171.0,723.0 L 154.0,813.0 L 133.0,873.0 L 87.0,971.0 L 63.0,1003.0"/>
    <path d="M 204.0,490.0 L 221.0,498.0 L 350.0,460.0 L 366.0,460.0 L 390.0,467.0 L 409.0,490.0 L 407.0,870.0 L 400.0,914.0 L 386.0,942.0 L 294.0,902.0"/>
    <path d="M 222.0,627.0 L 265.0,628.0 L 332.0,606.0 L 359.0,606.0"/>
    <path d="M 194.0,752.0 L 212.0,744.0 L 339.0,725.0 L 361.0,724.0 L 372.0,735.0"/>
    <path d="M 271.0,506.0 L 287.0,515.0 L 293.0,526.0 L 295.0,578.0 L 289.0,699.0 L 275.0,712.0"/>
    <path d="M 606.0,157.0 L 616.0,166.0 L 628.0,197.0 L 615.0,228.0 L 560.0,306.0 L 498.0,362.0"/>
    <path d="M 613.0,284.0 L 706.0,276.0 L 807.0,249.0 L 860.0,248.0"/>
    <path d="M 525.0,390.0 L 552.0,423.0 L 577.0,595.0"/>
    <path d="M 574.0,400.0 L 587.0,404.0 L 663.0,379.0 L 730.0,368.0 L 758.0,377.0 L 771.0,390.0 L 775.0,398.0 L 751.0,503.0 L 732.0,559.0 L 735.0,583.0"/>
    <path d="M 589.0,498.0 L 596.0,490.0 L 639.0,476.0 L 693.0,477.0"/>
    <path d="M 595.0,579.0 L 605.0,569.0 L 698.0,548.0"/>
    <path d="M 460.0,681.0 L 515.0,684.0 L 641.0,656.0 L 889.0,622.0 L 954.0,635.0"/>
    <path d="M 562.0,705.0 L 561.0,714.0 L 548.0,723.0 L 511.0,781.0 L 462.0,823.0"/>
    <path d="M 557.0,766.0 L 564.0,760.0 L 806.0,722.0 L 849.0,733.0 L 870.0,761.0 L 821.0,932.0 L 792.0,1001.0 L 772.0,1033.0 L 734.0,1061.0 L 656.0,1009.0"/>
    <path d="M 584.0,773.0 L 602.0,800.0 L 585.0,832.0 L 540.0,887.0 L 471.0,940.0"/>
    <path d="M 695.0,765.0 L 717.0,787.0 L 694.0,842.0 L 662.0,893.0 L 600.0,973.0 L 553.0,1017.0 L 527.0,1037.0 L 514.0,1040.0 L 511.0,1048.0"/>
  </g>
</svg>
