<svg xmlns="http://www.w3.org/2000/svg" viewBox="0 0 1024 1024">
  <g style="fill:none;stroke:#000000;stroke-width:50;stroke-linecap:round;stroke-linejoin:round;" transform="scale(1, 1) translate(0, 0)">
    <path d="M 276.0,211.0 L 293.0,230.0 L 296.0,256.0 L 248.0,335.0 L 193.0,397.0 L 169.0,414.0"/>
    <path d="M 289.0,319.0 L 365.0,303.0 L 385.0,306.0 L 405.0,318.0 L 391.0,347.0 L 316.0,449.0 L 296.0,461.0"/>
    <path d="M 134.0,482.0 L 152.0,494.0 L 167.0,523.0 L 170.0,646.0 L 163.0,740.0 L 147.0,816.0 L 117.0,904.0 L 63.0,995.0"/>
    <path d="M 190.0,489.0 L 206.0,497.0 L 244.0,493.0 L 323.0,472.0 L 380.0,464.0 L 407.0,476.0 L 423.0,496.0 L 425.0,883.0 L 418.0,936.0 L 406.0,958.0 L 318.0,928.0"/>
    <path d="M 222.0,609.0 L 264.0,610.0 L 318.0,595.0 L 357.0,592.0"/>
    <path d="M 191.0,730.0 L 223.0,731.0 L 349.0,705.0 L 389.0,713.0"/>
    <path d="M 265.0,504.0 L 281.0,515.0 L 288.0,537.0 L 288.0,676.0 L 285.0,690.0 L 276.0,698.0"/>
    <path d="M 500.0,297.0 L 530.0,331.0 L 556.0,433.0 L 564.0,448.0 L 574.0,451.0"/>
    <path d="M 527.0,294.0 L 564.0,301.0 L 674.0,277.0 L 818.0,259.0 L 856.0,267.0 L 875.0,294.0 L 822.0,421.0 L 823.0,442.0"/>
    <path d="M 629.0,309.0 L 630.0,334.0 L 650.0,411.0"/>
    <path d="M 714.0,287.0 L 736.0,309.0 L 724.0,386.0 L 711.0,393.0"/>
    <path d="M 580.0,435.0 L 591.0,440.0 L 747.0,408.0 L 794.0,404.0"/>
    <path d="M 569.0,468.0 L 587.0,485.0 L 572.0,519.0 L 535.0,570.0 L 472.0,629.0"/>
    <path d="M 558.0,571.0 L 578.0,564.0 L 583.0,568.0 L 640.0,563.0 L 831.0,529.0 L 862.0,536.0 L 886.0,563.0 L 873.0,821.0 L 860.0,910.0 L 842.0,970.0 L 818.0,1015.0 L 785.0,1043.0 L 718.0,1008.0 L 714.0,1000.0 L 701.0,1001.0"/>
    <path d="M 480.0,690.0 L 510.0,716.0 L 544.0,816.0"/>
    <path d="M 526.0,691.0 L 538.0,696.0 L 594.0,688.0 L 681.0,662.0 L 728.0,656.0 L 739.0,659.0 L 760.0,681.0 L 741.0,728.0 L 720.0,737.0"/>
    <path d="M 559.0,799.0 L 574.0,789.0 L 708.0,763.0 L 761.0,767.0"/>
    <path d="M 596.0,582.0 L 621.0,602.0 L 627.0,652.0 L 628.0,853.0 L 625.0,866.0 L 614.0,876.0"/>
    <path d="M 486.0,917.0 L 528.0,930.0 L 716.0,866.0 L 723.0,870.0"/>
    <path d="M 718.0,825.0 L 763.0,878.0 L 777.0,918.0"/>
  </g>
</svg>
