<svg xmlns="http://www.w3.org/2000/svg" viewBox="0 0 1024 1024">
  <g style="fill:none;stroke:#000000;stroke-width:50;stroke-linecap:round;stroke-linejoin:round;" transform="scale(1, 1) translate(0, 0)">
    <path d="M 439.0,208.0 L 533.0,265.0 L 562.0,300.0"/>
    <path d="M 128.0,438.0 L 195.0,447.0 L 370.0,417.0 L 790.0,371.0 L 860.0,375.0 L 910.0,392.0"/>
    <path d="M 363.0,545.0 L 396.0,553.0 L 447.0,550.0 L 612.0,520.0 L 655.0,522.0"/>
    <path d="M 371.0,673.0 L 427.0,682.0 L 599.0,651.0 L 647.0,654.0"/>
    <path d="M 318.0,804.0 L 347.0,829.0 L 359.0,850.0 L 388.0,1038.0"/>
    <path d="M 380.0,808.0 L 404.0,820.0 L 622.0,777.0 L 658.0,780.0 L 694.0,812.0 L 660.0,918.0 L 633.0,937.0"/>
    <path d="M 411.0,1006.0 L 424.0,993.0 L 442.0,989.0 L 629.0,967.0 L 677.0,969.0 L 700.0,979.0"/>
  </g>
</svg>
