<svg xmlns="http://www.w3.org/2000/svg" viewBox="0 0 1024 1024">
  <g style="fill:none;stroke:#000000;stroke-width:50;stroke-linecap:round;stroke-linejoin:round;" transform="scale(1, 1) translate(0, 0)">
    <path d="M 345.0,200.0 L 440.0,249.0 L 469.0,290.0"/>
    <path d="M 97.0,441.0 L 161.0,450.0 L 400.0,395.0 L 444.0,388.0 L 486.0,394.0"/>
    <path d="M 271.0,531.0 L 332.0,532.0 L 401.0,511.0 L 457.0,504.0"/>
    <path d="M 287.0,627.0 L 323.0,631.0 L 407.0,610.0 L 449.0,609.0"/>
    <path d="M 198.0,734.0 L 230.0,760.0 L 275.0,929.0"/>
    <path d="M 258.0,736.0 L 270.0,745.0 L 383.0,710.0 L 422.0,712.0 L 443.0,735.0 L 441.0,744.0 L 420.0,798.0 L 393.0,814.0"/>
    <path d="M 290.0,877.0 L 302.0,862.0 L 385.0,841.0 L 443.0,845.0"/>
    <path d="M 521.0,563.0 L 579.0,567.0 L 686.0,543.0 L 881.0,511.0 L 964.0,526.0"/>
    <path d="M 666.0,196.0 L 692.0,203.0 L 729.0,238.0 L 718.0,455.0 L 711.0,1054.0"/>
  </g>
</svg>
