<svg xmlns="http://www.w3.org/2000/svg" viewBox="0 0 1024 1024">
  <g style="fill:none;stroke:#000000;stroke-width:50;stroke-linecap:round;stroke-linejoin:round;" transform="scale(1, 1) translate(0, 0)">
    <path d="M 319.0,209.0 L 395.0,254.0 L 414.0,288.0"/>
    <path d="M 80.0,464.0 L 123.0,471.0 L 389.0,407.0 L 447.0,407.0"/>
    <path d="M 242.0,551.0 L 286.0,551.0 L 384.0,525.0 L 414.0,525.0"/>
    <path d="M 246.0,659.0 L 275.0,661.0 L 360.0,636.0 L 403.0,633.0"/>
    <path d="M 162.0,763.0 L 193.0,785.0 L 198.0,796.0 L 243.0,954.0"/>
    <path d="M 224.0,779.0 L 243.0,764.0 L 367.0,731.0 L 400.0,757.0 L 379.0,828.0 L 355.0,843.0"/>
    <path d="M 256.0,900.0 L 268.0,888.0 L 352.0,868.0 L 405.0,871.0"/>
    <path d="M 518.0,427.0 L 546.0,444.0 L 562.0,468.0 L 567.0,625.0 L 558.0,714.0 L 538.0,789.0 L 517.0,839.0 L 475.0,899.0 L 431.0,943.0 L 409.0,956.0"/>
    <path d="M 672.0,378.0 L 698.0,408.0 L 703.0,423.0 L 697.0,844.0"/>
    <path d="M 807.0,204.0 L 863.0,259.0 L 865.0,760.0 L 856.0,960.0 L 858.0,1065.0"/>
  </g>
</svg>
