<svg xmlns="http://www.w3.org/2000/svg" viewBox="0 0 1024 1024">
  <g style="fill:none;stroke:#000000;stroke-width:50;stroke-linecap:round;stroke-linejoin:round;" transform="scale(1, 1) translate(0, 0)">
    <path d="M 295.0,197.0 L 376.0,244.0 L 406.0,284.0"/>
    <path d="M 75.0,444.0 L 107.0,452.0 L 139.0,451.0 L 355.0,392.0 L 421.0,378.0 L 463.0,382.0"/>
    <path d="M 228.0,547.0 L 360.0,512.0 L 392.0,515.0"/>
    <path d="M 230.0,655.0 L 361.0,620.0 L 396.0,623.0"/>
    <path d="M 158.0,765.0 L 185.0,789.0 L 192.0,805.0 L 224.0,965.0"/>
    <path d="M 212.0,767.0 L 228.0,775.0 L 338.0,744.0 L 368.0,747.0 L 387.0,768.0 L 384.0,780.0 L 367.0,837.0 L 342.0,849.0"/>
    <path d="M 240.0,915.0 L 249.0,902.0 L 340.0,881.0 L 399.0,884.0"/>
    <path d="M 568.0,348.0 L 591.0,353.0 L 641.0,349.0 L 807.0,302.0 L 873.0,294.0"/>
    <path d="M 515.0,438.0 L 545.0,477.0 L 522.0,588.0 L 561.0,588.0 L 652.0,558.0 L 843.0,523.0 L 902.0,519.0 L 958.0,536.0"/>
    <path d="M 705.0,368.0 L 735.0,383.0 L 744.0,401.0 L 744.0,944.0 L 737.0,972.0 L 719.0,1001.0 L 677.0,988.0 L 612.0,950.0"/>
    <path d="M 709.0,576.0 L 700.0,583.0 L 688.0,638.0 L 679.0,654.0 L 609.0,753.0 L 523.0,841.0 L 442.0,900.0"/>
  </g>
</svg>
