<svg xmlns="http://www.w3.org/2000/svg" viewBox="0 0 1024 1024">
  <g style="fill:none;stroke:#000000;stroke-width:50;stroke-linecap:round;stroke-linejoin:round;" transform="scale(1, 1) translate(0, 0)">
    <path d="M 302.0,233.0 L 391.0,293.0 L 415.0,334.0"/>
    <path d="M 64.0,484.0 L 108.0,494.0 L 138.0,492.0 L 368.0,436.0 L 434.0,438.0"/>
    <path d="M 227.0,582.0 L 265.0,586.0 L 356.0,562.0 L 401.0,561.0"/>
    <path d="M 219.0,703.0 L 256.0,708.0 L 342.0,688.0 L 384.0,689.0"/>
    <path d="M 150.0,822.0 L 179.0,845.0 L 185.0,857.0 L 227.0,1013.0"/>
    <path d="M 206.0,822.0 L 218.0,829.0 L 335.0,795.0 L 357.0,799.0 L 378.0,819.0 L 363.0,889.0 L 340.0,906.0"/>
    <path d="M 244.0,969.0 L 255.0,954.0 L 327.0,935.0 L 392.0,936.0"/>
    <path d="M 541.0,416.0 L 563.0,436.0 L 573.0,457.0 L 548.0,518.0 L 471.0,642.0 L 422.0,695.0"/>
    <path d="M 609.0,269.0 L 641.0,283.0 L 765.0,474.0 L 848.0,572.0 L 903.0,596.0 L 999.0,623.0"/>
    <path d="M 604.0,620.0 L 633.0,654.0 L 628.0,672.0 L 571.0,787.0 L 524.0,858.0 L 509.0,906.0 L 536.0,908.0 L 563.0,901.0 L 732.0,847.0 L 742.0,845.0 L 751.0,852.0"/>
    <path d="M 727.0,745.0 L 819.0,879.0 L 838.0,931.0 L 839.0,963.0"/>
  </g>
</svg>
