<svg xmlns="http://www.w3.org/2000/svg" viewBox="0 0 1024 1024">
  <g style="fill:none;stroke:#000000;stroke-width:50;stroke-linecap:round;stroke-linejoin:round;" transform="scale(1, 1) translate(0, 0)">
    <path d="M 311.0,210.0 L 394.0,259.0 L 416.0,296.0"/>
    <path d="M 76.0,470.0 L 136.0,474.0 L 379.0,400.0 L 445.0,397.0"/>
    <path d="M 229.0,564.0 L 288.0,560.0 L 363.0,533.0 L 394.0,532.0"/>
    <path d="M 234.0,675.0 L 282.0,675.0 L 353.0,650.0 L 399.0,645.0"/>
    <path d="M 166.0,790.0 L 193.0,811.0 L 201.0,825.0 L 243.0,989.0"/>
    <path d="M 219.0,788.0 L 234.0,796.0 L 345.0,759.0 L 374.0,760.0 L 397.0,783.0 L 396.0,790.0 L 377.0,862.0 L 351.0,882.0"/>
    <path d="M 259.0,940.0 L 273.0,929.0 L 350.0,908.0 L 409.0,908.0"/>
    <path d="M 617.0,187.0 L 641.0,210.0 L 650.0,235.0 L 626.0,292.0 L 531.0,446.0 L 459.0,525.0"/>
    <path d="M 561.0,446.0 L 663.0,430.0 L 793.0,388.0 L 842.0,387.0"/>
    <path d="M 487.0,633.0 L 539.0,625.0 L 626.0,593.0 L 665.0,595.0 L 673.0,603.0 L 664.0,630.0 L 578.0,769.0 L 550.0,850.0 L 551.0,892.0 L 563.0,919.0 L 582.0,937.0 L 614.0,952.0 L 671.0,964.0 L 773.0,964.0 L 824.0,956.0 L 891.0,931.0 L 919.0,910.0 L 935.0,781.0"/>
  </g>
</svg>
