<svg xmlns="http://www.w3.org/2000/svg" viewBox="0 0 1024 1024">
  <g style="fill:none;stroke:#000000;stroke-width:50;stroke-linecap:round;stroke-linejoin:round;" transform="scale(1, 1) translate(0, 0)">
    <path d="M 302.0,217.0 L 379.0,271.0 L 401.0,310.0"/>
    <path d="M 59.0,478.0 L 121.0,485.0 L 388.0,420.0 L 420.0,416.0 L 452.0,421.0"/>
    <path d="M 215.0,568.0 L 271.0,570.0 L 336.0,555.0 L 386.0,555.0"/>
    <path d="M 203.0,677.0 L 245.0,679.0 L 349.0,653.0 L 384.0,652.0"/>
    <path d="M 138.0,773.0 L 164.0,796.0 L 171.0,810.0 L 208.0,993.0"/>
    <path d="M 192.0,773.0 L 206.0,783.0 L 306.0,756.0 L 335.0,755.0 L 343.0,760.0 L 364.0,781.0 L 343.0,859.0 L 317.0,878.0"/>
    <path d="M 224.0,931.0 L 234.0,921.0 L 315.0,904.0 L 374.0,907.0"/>
    <path d="M 446.0,495.0 L 474.0,518.0 L 482.0,545.0 L 487.0,614.0 L 483.0,768.0 L 461.0,903.0 L 461.0,955.0"/>
    <path d="M 507.0,506.0 L 527.0,518.0 L 540.0,516.0 L 809.0,455.0 L 841.0,465.0 L 863.0,489.0 L 867.0,875.0 L 862.0,945.0 L 845.0,982.0 L 799.0,971.0 L 742.0,945.0"/>
    <path d="M 620.0,235.0 L 645.0,253.0 L 668.0,284.0 L 655.0,453.0 L 640.0,558.0 L 617.0,637.0 L 595.0,682.0 L 563.0,725.0 L 522.0,754.0"/>
    <path d="M 652.0,630.0 L 660.0,627.0 L 748.0,683.0 L 769.0,705.0 L 779.0,726.0"/>
  </g>
</svg>
