<svg xmlns="http://www.w3.org/2000/svg" viewBox="0 0 1024 1024">
  <g style="fill:none;stroke:#000000;stroke-width:50;stroke-linecap:round;stroke-linejoin:round;" transform="scale(1, 1) translate(0, 0)">
    <path d="M 306.0,217.0 L 388.0,271.0 L 412.0,311.0"/>
    <path d="M 56.0,481.0 L 117.0,489.0 L 388.0,420.0 L 452.0,421.0"/>
    <path d="M 210.0,587.0 L 234.0,590.0 L 273.0,584.0 L 363.0,555.0 L 398.0,553.0"/>
    <path d="M 211.0,691.0 L 279.0,689.0 L 359.0,665.0 L 393.0,664.0"/>
    <path d="M 150.0,793.0 L 177.0,816.0 L 183.0,830.0 L 220.0,1017.0"/>
    <path d="M 207.0,798.0 L 222.0,805.0 L 323.0,780.0 L 359.0,783.0 L 379.0,805.0 L 377.0,817.0 L 357.0,880.0 L 330.0,899.0"/>
    <path d="M 237.0,957.0 L 249.0,942.0 L 320.0,926.0 L 371.0,922.0 L 391.0,927.0"/>
    <path d="M 481.0,500.0 L 505.0,505.0 L 544.0,501.0 L 735.0,461.0 L 758.0,468.0 L 786.0,498.0 L 750.0,609.0 L 719.0,639.0"/>
    <path d="M 420.0,696.0 L 465.0,703.0 L 658.0,667.0 L 868.0,641.0 L 901.0,641.0 L 953.0,654.0"/>
    <path d="M 579.0,204.0 L 626.0,243.0 L 630.0,267.0 L 606.0,649.0 L 576.0,796.0 L 544.0,869.0 L 491.0,933.0 L 424.0,981.0 L 344.0,1016.0"/>
    <path d="M 624.0,723.0 L 630.0,745.0 L 704.0,841.0 L 818.0,964.0 L 976.0,1007.0"/>
  </g>
</svg>
