<svg xmlns="http://www.w3.org/2000/svg" viewBox="0 0 1024 1024">
  <g style="fill:none;stroke:#000000;stroke-width:50;stroke-linecap:round;stroke-linejoin:round;" transform="scale(1, 1) translate(0, 0)">
    <path d="M 274.0,181.0 L 360.0,234.0 L 379.0,264.0"/>
    <path d="M 68.0,425.0 L 131.0,430.0 L 364.0,364.0 L 388.0,359.0 L 431.0,362.0"/>
    <path d="M 200.0,519.0 L 330.0,481.0 L 365.0,484.0"/>
    <path d="M 196.0,627.0 L 305.0,595.0 L 353.0,596.0"/>
    <path d="M 150.0,730.0 L 178.0,752.0 L 184.0,764.0 L 220.0,930.0"/>
    <path d="M 210.0,749.0 L 225.0,735.0 L 303.0,708.0 L 338.0,709.0 L 361.0,730.0 L 360.0,739.0 L 346.0,797.0 L 320.0,817.0"/>
    <path d="M 236.0,880.0 L 250.0,864.0 L 318.0,844.0 L 381.0,844.0"/>
    <path d="M 580.0,169.0 L 615.0,203.0 L 603.0,248.0 L 570.0,326.0 L 503.0,442.0 L 449.0,504.0 L 389.0,558.0"/>
    <path d="M 636.0,264.0 L 648.0,288.0 L 681.0,321.0 L 798.0,423.0 L 833.0,446.0 L 884.0,462.0 L 1014.0,481.0"/>
    <path d="M 610.0,433.0 L 635.0,472.0 L 578.0,575.0 L 503.0,650.0 L 459.0,678.0"/>
    <path d="M 668.0,590.0 L 685.0,628.0 L 639.0,696.0 L 578.0,758.0 L 538.0,788.0 L 488.0,812.0"/>
    <path d="M 709.0,737.0 L 733.0,786.0 L 657.0,906.0 L 555.0,1009.0 L 519.0,1037.0 L 434.0,1086.0"/>
  </g>
</svg>
