<svg xmlns="http://www.w3.org/2000/svg" viewBox="0 0 1024 1024">
  <g style="fill:none;stroke:#000000;stroke-width:50;stroke-linecap:round;stroke-linejoin:round;" transform="scale(1, 1) translate(0, 0)">
    <path d="M 285.0,175.0 L 376.0,223.0 L 403.0,258.0"/>
    <path d="M 68.0,435.0 L 125.0,444.0 L 375.0,382.0 L 444.0,382.0"/>
    <path d="M 220.0,543.0 L 360.0,502.0 L 397.0,504.0"/>
    <path d="M 225.0,662.0 L 365.0,619.0 L 409.0,620.0"/>
    <path d="M 170.0,766.0 L 204.0,799.0 L 240.0,954.0"/>
    <path d="M 231.0,784.0 L 238.0,774.0 L 336.0,743.0 L 367.0,743.0 L 388.0,765.0 L 367.0,841.0 L 344.0,850.0"/>
    <path d="M 257.0,917.0 L 271.0,902.0 L 337.0,885.0 L 395.0,889.0"/>
    <path d="M 828.0,249.0 L 757.0,247.0 L 677.0,309.0 L 597.0,351.0 L 596.0,360.0"/>
    <path d="M 507.0,344.0 L 540.0,365.0 L 553.0,384.0 L 558.0,561.0 L 552.0,656.0 L 542.0,706.0 L 516.0,792.0 L 486.0,851.0 L 435.0,918.0 L 401.0,951.0 L 369.0,971.0"/>
    <path d="M 595.0,500.0 L 604.0,509.0 L 668.0,508.0 L 890.0,459.0 L 947.0,459.0"/>
    <path d="M 702.0,531.0 L 746.0,560.0 L 743.0,1093.0"/>
    <path d="M 785.0,670.0 L 790.0,682.0 L 895.0,734.0 L 925.0,758.0 L 947.0,790.0"/>
  </g>
</svg>
