<svg xmlns="http://www.w3.org/2000/svg" viewBox="0 0 1024 1024">
  <g style="fill:none;stroke:#000000;stroke-width:50;stroke-linecap:round;stroke-linejoin:round;" transform="scale(1, 1) translate(0, 0)">
    <path d="M 326.0,221.0 L 367.0,253.0 L 371.0,430.0 L 357.0,455.0"/>
    <path d="M 401.0,346.0 L 415.0,334.0 L 449.0,328.0 L 510.0,327.0"/>
    <path d="M 202.0,350.0 L 241.0,379.0 L 262.0,462.0 L 278.0,467.0"/>
    <path d="M 151.0,513.0 L 174.0,524.0 L 210.0,529.0 L 504.0,431.0"/>
    <path d="M 775.0,281.0 L 726.0,271.0 L 670.0,299.0 L 611.0,313.0 L 603.0,323.0"/>
    <path d="M 545.0,183.0 L 582.0,229.0 L 571.0,341.0 L 575.0,398.0 L 583.0,436.0 L 610.0,466.0 L 662.0,482.0 L 732.0,486.0 L 785.0,482.0 L 829.0,471.0 L 847.0,462.0 L 856.0,353.0"/>
    <path d="M 438.0,505.0 L 503.0,539.0 L 527.0,570.0"/>
    <path d="M 160.0,647.0 L 185.0,655.0 L 230.0,654.0 L 439.0,622.0 L 760.0,591.0 L 812.0,598.0 L 851.0,612.0"/>
    <path d="M 362.0,724.0 L 409.0,723.0 L 568.0,696.0 L 596.0,695.0 L 625.0,703.0"/>
    <path d="M 366.0,812.0 L 412.0,812.0 L 566.0,784.0 L 608.0,782.0 L 630.0,789.0"/>
    <path d="M 318.0,894.0 L 349.0,917.0 L 358.0,932.0 L 391.0,1065.0"/>
    <path d="M 373.0,895.0 L 400.0,906.0 L 578.0,871.0 L 623.0,874.0 L 650.0,904.0 L 649.0,916.0 L 628.0,960.0 L 593.0,983.0"/>
    <path d="M 409.0,1017.0 L 422.0,1029.0 L 580.0,1011.0 L 636.0,1012.0 L 661.0,1021.0"/>
  </g>
</svg>
