<svg xmlns="http://www.w3.org/2000/svg" viewBox="0 0 1024 1024">
  <g style="fill:none;stroke:#000000;stroke-width:50;stroke-linecap:round;stroke-linejoin:round;" transform="scale(1, 1) translate(0, 0)">
    <path d="M 294.0,213.0 L 388.0,262.0 L 418.0,302.0"/>
    <path d="M 62.0,477.0 L 125.0,482.0 L 387.0,407.0 L 453.0,405.0"/>
    <path d="M 218.0,557.0 L 276.0,555.0 L 348.0,529.0 L 397.0,524.0"/>
    <path d="M 218.0,665.0 L 265.0,665.0 L 367.0,635.0 L 406.0,631.0"/>
    <path d="M 158.0,781.0 L 190.0,814.0 L 228.0,998.0"/>
    <path d="M 218.0,785.0 L 233.0,791.0 L 338.0,751.0 L 368.0,753.0 L 389.0,772.0 L 388.0,783.0 L 372.0,846.0 L 349.0,863.0"/>
    <path d="M 242.0,932.0 L 253.0,918.0 L 345.0,892.0 L 385.0,889.0 L 409.0,894.0"/>
    <path d="M 535.0,376.0 L 564.0,400.0 L 577.0,433.0 L 581.0,846.0 L 563.0,859.0"/>
    <path d="M 590.0,388.0 L 630.0,393.0 L 716.0,362.0 L 761.0,354.0 L 777.0,359.0 L 803.0,394.0 L 794.0,493.0 L 789.0,811.0 L 765.0,829.0"/>
    <path d="M 611.0,563.0 L 631.0,543.0 L 676.0,536.0 L 712.0,543.0"/>
    <path d="M 612.0,711.0 L 623.0,695.0 L 654.0,687.0 L 688.0,685.0 L 716.0,691.0"/>
    <path d="M 449.0,895.0 L 499.0,904.0 L 675.0,877.0 L 900.0,852.0 L 946.0,858.0 L 980.0,870.0"/>
  </g>
</svg>
