<svg xmlns="http://www.w3.org/2000/svg" viewBox="0 0 1024 1024">
  <g style="fill:none;stroke:#000000;stroke-width:50;stroke-linecap:round;stroke-linejoin:round;" transform="scale(1, 1) translate(0, 0)">
    <path d="M 294.0,243.0 L 381.0,279.0 L 419.0,315.0"/>
    <path d="M 89.0,493.0 L 153.0,499.0 L 395.0,431.0 L 419.0,426.0 L 461.0,429.0"/>
    <path d="M 218.0,591.0 L 263.0,590.0 L 371.0,562.0 L 398.0,561.0"/>
    <path d="M 234.0,699.0 L 277.0,699.0 L 382.0,668.0 L 402.0,669.0"/>
    <path d="M 171.0,809.0 L 201.0,833.0 L 244.0,1013.0"/>
    <path d="M 231.0,833.0 L 252.0,817.0 L 340.0,786.0 L 373.0,788.0 L 393.0,807.0 L 391.0,818.0 L 376.0,881.0 L 353.0,897.0"/>
    <path d="M 260.0,966.0 L 270.0,951.0 L 340.0,927.0 L 404.0,924.0"/>
    <path d="M 681.0,249.0 L 698.0,267.0 L 707.0,294.0 L 627.0,438.0 L 539.0,561.0 L 527.0,601.0 L 572.0,603.0 L 772.0,546.0 L 799.0,541.0 L 809.0,548.0 L 823.0,545.0"/>
    <path d="M 759.0,443.0 L 865.0,538.0 L 897.0,599.0"/>
    <path d="M 494.0,743.0 L 523.0,769.0 L 531.0,788.0 L 568.0,1004.0"/>
    <path d="M 553.0,749.0 L 578.0,759.0 L 766.0,711.0 L 795.0,716.0 L 830.0,747.0 L 799.0,861.0 L 772.0,874.0"/>
    <path d="M 590.0,956.0 L 601.0,942.0 L 758.0,913.0 L 817.0,912.0 L 838.0,919.0"/>
  </g>
</svg>
