<svg xmlns="http://www.w3.org/2000/svg" viewBox="0 0 1024 1024">
  <g style="fill:none;stroke:#000000;stroke-width:50;stroke-linecap:round;stroke-linejoin:round;" transform="scale(1, 1) translate(0, 0)">
    <path d="M 294.0,225.0 L 385.0,281.0 L 414.0,323.0"/>
    <path d="M 72.0,476.0 L 100.0,484.0 L 135.0,484.0 L 359.0,432.0 L 404.0,425.0 L 446.0,430.0"/>
    <path d="M 246.0,581.0 L 300.0,578.0 L 371.0,556.0 L 413.0,552.0"/>
    <path d="M 242.0,675.0 L 288.0,675.0 L 379.0,650.0 L 410.0,649.0"/>
    <path d="M 170.0,798.0 L 197.0,819.0 L 204.0,833.0 L 244.0,1014.0"/>
    <path d="M 224.0,798.0 L 234.0,805.0 L 249.0,805.0 L 341.0,774.0 L 378.0,776.0 L 400.0,798.0 L 376.0,872.0 L 350.0,888.0"/>
    <path d="M 257.0,949.0 L 267.0,936.0 L 343.0,917.0 L 403.0,921.0"/>
    <path d="M 774.0,244.0 L 782.0,259.0 L 785.0,294.0 L 697.0,338.0 L 588.0,379.0 L 580.0,389.0"/>
    <path d="M 520.0,223.0 L 560.0,271.0 L 551.0,383.0 L 564.0,496.0 L 579.0,521.0 L 608.0,539.0 L 653.0,550.0 L 724.0,550.0 L 788.0,543.0 L 853.0,524.0 L 875.0,509.0 L 887.0,397.0"/>
    <path d="M 512.0,671.0 L 541.0,693.0 L 552.0,766.0 L 550.0,857.0 L 536.0,957.0 L 538.0,1005.0"/>
    <path d="M 574.0,677.0 L 586.0,688.0 L 603.0,686.0 L 777.0,645.0 L 803.0,659.0 L 822.0,682.0 L 821.0,948.0 L 806.0,986.0 L 743.0,971.0"/>
    <path d="M 579.0,817.0 L 595.0,810.0 L 707.0,796.0 L 736.0,798.0"/>
    <path d="M 568.0,971.0 L 594.0,955.0 L 691.0,945.0 L 760.0,949.0"/>
  </g>
</svg>
