<svg xmlns="http://www.w3.org/2000/svg" viewBox="0 0 1024 1024">
  <g style="fill:none;stroke:#000000;stroke-width:50;stroke-linecap:round;stroke-linejoin:round;" transform="scale(1, 1) translate(0, 0)">
    <path d="M 311.0,225.0 L 395.0,272.0 L 425.0,311.0"/>
    <path d="M 84.0,480.0 L 116.0,489.0 L 147.0,488.0 L 390.0,429.0 L 413.0,425.0 L 454.0,430.0"/>
    <path d="M 249.0,575.0 L 290.0,574.0 L 374.0,547.0 L 407.0,545.0"/>
    <path d="M 234.0,683.0 L 272.0,685.0 L 374.0,655.0 L 410.0,653.0"/>
    <path d="M 166.0,783.0 L 196.0,804.0 L 204.0,820.0 L 247.0,974.0"/>
    <path d="M 221.0,781.0 L 233.0,787.0 L 306.0,769.0 L 335.0,756.0 L 369.0,759.0 L 388.0,779.0 L 386.0,792.0 L 368.0,855.0 L 343.0,871.0"/>
    <path d="M 260.0,925.0 L 270.0,915.0 L 343.0,897.0 L 399.0,899.0"/>
    <path d="M 523.0,549.0 L 577.0,549.0 L 619.0,540.0 L 745.0,494.0 L 815.0,486.0"/>
    <path d="M 467.0,689.0 L 522.0,690.0 L 626.0,657.0 L 669.0,656.0"/>
    <path d="M 536.0,708.0 L 561.0,730.0 L 558.0,812.0 L 540.0,828.0"/>
    <path d="M 434.0,878.0 L 479.0,887.0 L 654.0,820.0 L 709.0,790.0"/>
    <path d="M 608.0,219.0 L 631.0,227.0 L 667.0,259.0 L 681.0,446.0 L 710.0,610.0 L 750.0,742.0 L 810.0,863.0 L 877.0,945.0 L 909.0,966.0 L 935.0,971.0 L 958.0,903.0 L 967.0,832.0"/>
    <path d="M 766.0,280.0 L 855.0,328.0 L 874.0,352.0"/>
  </g>
</svg>
