<svg xmlns="http://www.w3.org/2000/svg" viewBox="0 0 1024 1024">
  <g style="fill:none;stroke:#000000;stroke-width:50;stroke-linecap:round;stroke-linejoin:round;" transform="scale(1, 1) translate(0, 0)">
    <path d="M 274.0,216.0 L 352.0,261.0 L 378.0,297.0"/>
    <path d="M 72.0,453.0 L 136.0,458.0 L 320.0,409.0 L 385.0,409.0"/>
    <path d="M 198.0,571.0 L 249.0,568.0 L 328.0,542.0 L 375.0,537.0"/>
    <path d="M 187.0,679.0 L 243.0,678.0 L 333.0,652.0 L 363.0,653.0"/>
    <path d="M 126.0,790.0 L 160.0,822.0 L 199.0,989.0"/>
    <path d="M 181.0,790.0 L 198.0,799.0 L 292.0,769.0 L 322.0,770.0 L 345.0,793.0 L 343.0,804.0 L 328.0,854.0 L 302.0,874.0"/>
    <path d="M 216.0,929.0 L 229.0,917.0 L 303.0,898.0 L 347.0,895.0 L 364.0,900.0"/>
    <path d="M 589.0,201.0 L 660.0,246.0 L 686.0,285.0"/>
    <path d="M 473.0,360.0 L 463.0,429.0 L 431.0,531.0"/>
    <path d="M 495.0,413.0 L 806.0,345.0 L 842.0,349.0 L 861.0,361.0 L 872.0,380.0 L 800.0,447.0"/>
    <path d="M 740.0,506.0 L 683.0,505.0 L 644.0,540.0 L 567.0,586.0 L 470.0,622.0"/>
    <path d="M 451.0,747.0 L 504.0,746.0 L 649.0,698.0 L 780.0,665.0 L 814.0,661.0 L 869.0,666.0"/>
    <path d="M 565.0,611.0 L 595.0,635.0 L 588.0,816.0 L 595.0,865.0 L 614.0,909.0 L 648.0,938.0 L 692.0,956.0 L 748.0,966.0 L 818.0,964.0 L 871.0,952.0 L 901.0,935.0 L 923.0,912.0 L 924.0,801.0"/>
  </g>
</svg>
