<svg xmlns="http://www.w3.org/2000/svg" viewBox="0 0 1024 1024">
  <g style="fill:none;stroke:#000000;stroke-width:50;stroke-linecap:round;stroke-linejoin:round;" transform="scale(1, 1) translate(0, 0)">
    <path d="M 298.0,209.0 L 376.0,260.0 L 398.0,296.0"/>
    <path d="M 46.0,477.0 L 109.0,482.0 L 383.0,403.0 L 449.0,401.0"/>
    <path d="M 206.0,559.0 L 242.0,561.0 L 340.0,533.0 L 366.0,533.0"/>
    <path d="M 190.0,665.0 L 239.0,665.0 L 307.0,643.0 L 353.0,640.0"/>
    <path d="M 147.0,780.0 L 172.0,803.0 L 177.0,816.0 L 205.0,1005.0"/>
    <path d="M 202.0,803.0 L 223.0,787.0 L 311.0,762.0 L 334.0,763.0 L 359.0,786.0 L 358.0,793.0 L 335.0,863.0 L 310.0,877.0"/>
    <path d="M 221.0,943.0 L 238.0,926.0 L 294.0,910.0 L 345.0,906.0 L 369.0,911.0"/>
    <path d="M 577.0,217.0 L 594.0,225.0 L 618.0,250.0 L 585.0,368.0 L 513.0,517.0 L 449.0,603.0 L 393.0,661.0"/>
    <path d="M 631.0,332.0 L 637.0,354.0 L 708.0,441.0 L 845.0,572.0 L 969.0,592.0"/>
    <path d="M 476.0,667.0 L 534.0,671.0 L 697.0,632.0 L 738.0,633.0"/>
    <path d="M 500.0,823.0 L 559.0,826.0 L 646.0,808.0 L 702.0,789.0 L 751.0,789.0"/>
    <path d="M 582.0,687.0 L 615.0,713.0 L 610.0,921.0 L 593.0,942.0"/>
    <path d="M 366.0,983.0 L 418.0,993.0 L 537.0,976.0 L 824.0,950.0 L 871.0,957.0 L 906.0,971.0"/>
  </g>
</svg>
