<svg xmlns="http://www.w3.org/2000/svg" viewBox="0 0 1024 1024">
  <g style="fill:none;stroke:#000000;stroke-width:50;stroke-linecap:round;stroke-linejoin:round;" transform="scale(1, 1) translate(0, 0)">
    <path d="M 474.0,160.0 L 487.0,182.0 L 486.0,208.0 L 419.0,281.0 L 365.0,326.0 L 324.0,349.0"/>
    <path d="M 481.0,256.0 L 543.0,249.0 L 590.0,233.0 L 637.0,240.0 L 640.0,245.0 L 627.0,274.0 L 580.0,344.0 L 551.0,367.0"/>
    <path d="M 315.0,410.0 L 332.0,418.0 L 369.0,418.0 L 454.0,408.0 L 731.0,344.0 L 782.0,344.0"/>
    <path d="M 244.0,388.0 L 276.0,420.0 L 283.0,436.0 L 264.0,628.0 L 245.0,720.0 L 213.0,821.0 L 170.0,913.0 L 124.0,984.0 L 81.0,1034.0"/>
    <path d="M 444.0,446.0 L 458.0,480.0 L 398.0,541.0 L 358.0,565.0"/>
    <path d="M 640.0,422.0 L 706.0,468.0 L 734.0,511.0"/>
    <path d="M 533.0,499.0 L 571.0,523.0 L 594.0,549.0"/>
    <path d="M 317.0,640.0 L 364.0,647.0 L 537.0,614.0 L 811.0,579.0 L 886.0,596.0"/>
    <path d="M 442.0,712.0 L 486.0,712.0 L 622.0,688.0 L 666.0,686.0 L 689.0,693.0"/>
    <path d="M 442.0,804.0 L 471.0,805.0 L 653.0,778.0 L 685.0,785.0"/>
    <path d="M 384.0,877.0 L 415.0,904.0 L 452.0,1080.0"/>
    <path d="M 450.0,886.0 L 460.0,894.0 L 652.0,853.0 L 684.0,853.0 L 697.0,860.0 L 720.0,888.0 L 692.0,953.0 L 666.0,970.0"/>
    <path d="M 471.0,1037.0 L 482.0,1024.0 L 655.0,1000.0 L 707.0,1000.0 L 731.0,1009.0"/>
  </g>
</svg>
