<svg xmlns="http://www.w3.org/2000/svg" viewBox="0 0 1024 1024">
  <g style="fill:none;stroke:#000000;stroke-width:50;stroke-linecap:round;stroke-linejoin:round;" transform="scale(1, 1) translate(0, 0)">
    <path d="M 289.0,212.0 L 365.0,256.0 L 399.0,300.0"/>
    <path d="M 68.0,464.0 L 88.0,471.0 L 142.0,471.0 L 400.0,409.0 L 442.0,414.0"/>
    <path d="M 218.0,552.0 L 263.0,553.0 L 349.0,529.0 L 378.0,528.0"/>
    <path d="M 203.0,653.0 L 244.0,656.0 L 333.0,633.0 L 377.0,631.0"/>
    <path d="M 143.0,769.0 L 176.0,804.0 L 212.0,974.0"/>
    <path d="M 188.0,770.0 L 206.0,775.0 L 301.0,745.0 L 333.0,747.0 L 352.0,767.0 L 350.0,780.0 L 331.0,844.0 L 307.0,860.0"/>
    <path d="M 226.0,920.0 L 241.0,903.0 L 298.0,887.0 L 363.0,887.0"/>
    <path d="M 452.0,488.0 L 475.0,493.0 L 539.0,488.0 L 763.0,426.0 L 833.0,418.0"/>
    <path d="M 553.0,237.0 L 572.0,247.0 L 601.0,279.0 L 575.0,454.0 L 553.0,554.0 L 488.0,728.0 L 447.0,795.0 L 388.0,855.0"/>
    <path d="M 526.0,703.0 L 563.0,747.0 L 572.0,775.0"/>
    <path d="M 818.0,575.0 L 833.0,595.0 L 836.0,615.0 L 732.0,699.0"/>
    <path d="M 626.0,580.0 L 656.0,615.0 L 656.0,636.0 L 641.0,756.0 L 617.0,831.0 L 587.0,885.0 L 557.0,918.0 L 513.0,949.0 L 461.0,973.0"/>
    <path d="M 668.0,776.0 L 670.0,791.0 L 737.0,872.0 L 827.0,959.0 L 920.0,986.0 L 960.0,988.0"/>
  </g>
</svg>
