<svg xmlns="http://www.w3.org/2000/svg" viewBox="0 0 1024 1024">
  <g style="fill:none;stroke:#000000;stroke-width:50;stroke-linecap:round;stroke-linejoin:round;" transform="scale(1, 1) translate(0, 0)">
    <path d="M 301.0,267.0 L 369.0,308.0 L 385.0,333.0"/>
    <path d="M 658.0,204.0 L 667.0,220.0 L 669.0,241.0 L 594.0,297.0 L 580.0,301.0 L 579.0,307.0"/>
    <path d="M 290.0,400.0 L 312.0,407.0 L 353.0,408.0 L 450.0,395.0 L 649.0,354.0 L 690.0,356.0"/>
    <path d="M 166.0,520.0 L 222.0,527.0 L 512.0,482.0 L 737.0,460.0 L 793.0,466.0 L 824.0,477.0"/>
    <path d="M 458.0,185.0 L 476.0,199.0 L 494.0,232.0 L 444.0,424.0 L 392.0,545.0 L 326.0,642.0 L 256.0,708.0 L 175.0,763.0 L 81.0,802.0"/>
    <path d="M 578.0,506.0 L 593.0,509.0 L 597.0,520.0 L 606.0,522.0 L 674.0,583.0 L 814.0,681.0 L 868.0,694.0 L 989.0,705.0"/>
    <path d="M 453.0,551.0 L 519.0,602.0"/>
    <path d="M 330.0,683.0 L 596.0,641.0 L 663.0,646.0"/>
    <path d="M 384.0,753.0 L 543.0,725.0 L 578.0,723.0 L 599.0,729.0"/>
    <path d="M 376.0,830.0 L 418.0,828.0 L 574.0,798.0 L 604.0,803.0"/>
    <path d="M 326.0,898.0 L 348.0,914.0 L 361.0,935.0 L 388.0,1062.0"/>
    <path d="M 377.0,897.0 L 400.0,911.0 L 604.0,880.0 L 624.0,890.0 L 641.0,913.0 L 621.0,963.0 L 595.0,977.0"/>
    <path d="M 405.0,1015.0 L 416.0,1025.0 L 428.0,1025.0 L 603.0,1009.0 L 634.0,1012.0 L 653.0,1021.0"/>
  </g>
</svg>
