<svg xmlns="http://www.w3.org/2000/svg" viewBox="0 0 1024 1024">
  <g style="fill:none;stroke:#000000;stroke-width:50;stroke-linecap:round;stroke-linejoin:round;" transform="scale(1, 1) translate(0, 0)">
    <path d="M 290.0,205.0 L 376.0,263.0 L 398.0,298.0"/>
    <path d="M 60.0,456.0 L 92.0,465.0 L 123.0,464.0 L 366.0,405.0 L 389.0,401.0 L 430.0,406.0"/>
    <path d="M 199.0,543.0 L 247.0,546.0 L 339.0,521.0 L 373.0,520.0"/>
    <path d="M 198.0,647.0 L 242.0,647.0 L 340.0,621.0 L 370.0,621.0"/>
    <path d="M 146.0,758.0 L 182.0,795.0 L 219.0,953.0"/>
    <path d="M 196.0,754.0 L 213.0,763.0 L 281.0,749.0 L 310.0,737.0 L 339.0,733.0 L 348.0,738.0 L 370.0,761.0 L 347.0,833.0 L 325.0,842.0"/>
    <path d="M 235.0,902.0 L 249.0,891.0 L 317.0,875.0 L 372.0,880.0"/>
    <path d="M 509.0,362.0 L 550.0,368.0 L 767.0,312.0 L 799.0,332.0 L 784.0,518.0 L 759.0,600.0 L 728.0,631.0 L 649.0,594.0"/>
    <path d="M 592.0,386.0 L 616.0,400.0 L 623.0,418.0 L 606.0,476.0 L 538.0,602.0 L 504.0,649.0 L 462.0,689.0"/>
    <path d="M 469.0,470.0 L 539.0,502.0 L 554.0,527.0"/>
    <path d="M 476.0,768.0 L 464.0,848.0 L 436.0,914.0 L 431.0,943.0"/>
    <path d="M 537.0,780.0 L 554.0,799.0 L 596.0,891.0 L 634.0,928.0 L 688.0,952.0 L 794.0,962.0 L 847.0,950.0 L 885.0,924.0 L 878.0,895.0 L 822.0,776.0"/>
    <path d="M 639.0,728.0 L 692.0,761.0 L 717.0,795.0"/>
    <path d="M 842.0,638.0 L 930.0,685.0 L 954.0,712.0 L 969.0,741.0"/>
  </g>
</svg>
