<svg xmlns="http://www.w3.org/2000/svg" viewBox="0 0 1024 1024">
  <g style="fill:none;stroke:#000000;stroke-width:50;stroke-linecap:round;stroke-linejoin:round;" transform="scale(1, 1) translate(0, 0)">
    <path d="M 257.0,189.0 L 343.0,238.0 L 377.0,284.0"/>
    <path d="M 59.0,442.0 L 121.0,449.0 L 356.0,392.0 L 388.0,388.0 L 420.0,393.0"/>
    <path d="M 195.0,541.0 L 252.0,540.0 L 337.0,516.0 L 368.0,516.0"/>
    <path d="M 187.0,649.0 L 244.0,648.0 L 329.0,624.0 L 360.0,624.0"/>
    <path d="M 138.0,761.0 L 171.0,795.0 L 208.0,981.0"/>
    <path d="M 197.0,779.0 L 214.0,766.0 L 277.0,748.0 L 316.0,739.0 L 334.0,742.0 L 354.0,763.0 L 352.0,774.0 L 333.0,847.0 L 313.0,857.0"/>
    <path d="M 223.0,920.0 L 239.0,904.0 L 307.0,888.0 L 363.0,891.0"/>
    <path d="M 527.0,404.0 L 562.0,416.0 L 621.0,411.0 L 830.0,367.0 L 868.0,370.0"/>
    <path d="M 585.0,559.0 L 595.0,564.0 L 647.0,565.0 L 803.0,529.0 L 856.0,528.0"/>
    <path d="M 602.0,704.0 L 677.0,695.0 L 782.0,670.0 L 811.0,668.0 L 835.0,675.0"/>
    <path d="M 686.0,581.0 L 712.0,601.0 L 718.0,622.0 L 714.0,778.0 L 697.0,801.0"/>
    <path d="M 564.0,841.0 L 586.0,845.0 L 826.0,808.0 L 888.0,810.0 L 918.0,820.0"/>
    <path d="M 465.0,379.0 L 493.0,411.0 L 501.0,433.0 L 496.0,672.0 L 474.0,985.0 L 519.0,987.0 L 621.0,962.0 L 826.0,939.0 L 883.0,937.0 L 918.0,949.0"/>
  </g>
</svg>
