<svg xmlns="http://www.w3.org/2000/svg" viewBox="0 0 1024 1024">
  <g style="fill:none;stroke:#000000;stroke-width:50;stroke-linecap:round;stroke-linejoin:round;" transform="scale(1, 1) translate(0, 0)">
    <path d="M 296.0,274.0 L 364.0,316.0 L 389.0,355.0"/>
    <path d="M 444.0,222.0 L 497.0,281.0 L 506.0,302.0"/>
    <path d="M 669.0,196.0 L 683.0,237.0 L 605.0,348.0 L 563.0,389.0"/>
    <path d="M 158.0,452.0 L 214.0,459.0 L 468.0,417.0 L 793.0,383.0 L 831.0,388.0 L 868.0,401.0"/>
    <path d="M 416.0,474.0 L 391.0,474.0 L 384.0,480.0 L 324.0,565.0 L 238.0,650.0 L 150.0,712.0 L 75.0,749.0"/>
    <path d="M 586.0,424.0 L 607.0,435.0 L 754.0,584.0 L 822.0,637.0 L 855.0,647.0 L 988.0,664.0"/>
    <path d="M 456.0,481.0 L 522.0,526.0 L 537.0,555.0"/>
    <path d="M 294.0,631.0 L 330.0,640.0 L 618.0,597.0 L 643.0,595.0 L 682.0,603.0"/>
    <path d="M 385.0,706.0 L 465.0,709.0 L 562.0,686.0 L 608.0,686.0"/>
    <path d="M 381.0,787.0 L 414.0,794.0 L 472.0,789.0 L 586.0,764.0 L 623.0,764.0"/>
    <path d="M 334.0,874.0 L 370.0,916.0 L 400.0,1050.0"/>
    <path d="M 369.0,871.0 L 399.0,884.0 L 502.0,868.0 L 592.0,846.0 L 634.0,847.0 L 667.0,878.0 L 639.0,942.0 L 612.0,957.0"/>
    <path d="M 417.0,993.0 L 436.0,1005.0 L 602.0,986.0 L 650.0,990.0 L 669.0,998.0"/>
  </g>
</svg>
