<svg xmlns="http://www.w3.org/2000/svg" viewBox="0 0 1024 1024">
  <g style="fill:none;stroke:#000000;stroke-width:50;stroke-linecap:round;stroke-linejoin:round;" transform="scale(1, 1) translate(0, 0)">
    <path d="M 255.0,217.0 L 326.0,254.0 L 357.0,292.0"/>
    <path d="M 39.0,474.0 L 101.0,481.0 L 319.0,428.0 L 352.0,424.0 L 384.0,429.0"/>
    <path d="M 182.0,571.0 L 226.0,571.0 L 324.0,545.0 L 354.0,545.0"/>
    <path d="M 179.0,675.0 L 226.0,677.0 L 298.0,656.0 L 342.0,653.0"/>
    <path d="M 114.0,777.0 L 147.0,812.0 L 180.0,981.0"/>
    <path d="M 169.0,783.0 L 184.0,787.0 L 262.0,765.0 L 295.0,767.0 L 315.0,787.0 L 299.0,850.0 L 276.0,867.0"/>
    <path d="M 197.0,927.0 L 207.0,912.0 L 269.0,894.0 L 328.0,897.0"/>
    <path d="M 568.0,254.0 L 585.0,273.0 L 593.0,297.0 L 551.0,378.0 L 479.0,470.0 L 395.0,534.0"/>
    <path d="M 412.0,346.0 L 432.0,370.0 L 465.0,389.0 L 485.0,409.0 L 520.0,471.0 L 540.0,557.0 L 548.0,684.0 L 539.0,826.0 L 524.0,893.0 L 508.0,934.0 L 486.0,957.0 L 413.0,923.0"/>
    <path d="M 516.0,556.0 L 503.0,648.0 L 495.0,667.0 L 449.0,748.0 L 377.0,838.0"/>
    <path d="M 648.0,452.0 L 709.0,456.0 L 772.0,443.0 L 869.0,410.0 L 894.0,407.0 L 921.0,413.0"/>
    <path d="M 655.0,655.0 L 694.0,652.0 L 828.0,623.0 L 858.0,622.0 L 886.0,629.0"/>
    <path d="M 723.0,479.0 L 759.0,507.0 L 757.0,782.0 L 740.0,805.0"/>
    <path d="M 581.0,844.0 L 637.0,851.0 L 889.0,816.0 L 924.0,817.0 L 979.0,832.0"/>
  </g>
</svg>
