<svg xmlns="http://www.w3.org/2000/svg" viewBox="0 0 1024 1024">
  <g style="fill:none;stroke:#000000;stroke-width:50;stroke-linecap:round;stroke-linejoin:round;" transform="scale(1, 1) translate(0, 0)">
    <path d="M 258.0,237.0 L 347.0,290.0 L 369.0,323.0"/>
    <path d="M 60.0,497.0 L 123.0,502.0 L 339.0,437.0 L 384.0,427.0 L 427.0,430.0"/>
    <path d="M 199.0,589.0 L 244.0,589.0 L 348.0,564.0 L 376.0,564.0"/>
    <path d="M 191.0,697.0 L 248.0,696.0 L 333.0,672.0 L 364.0,672.0"/>
    <path d="M 143.0,821.0 L 174.0,851.0 L 208.0,1018.0"/>
    <path d="M 200.0,842.0 L 218.0,828.0 L 296.0,805.0 L 314.0,800.0 L 337.0,803.0 L 356.0,823.0 L 334.0,899.0 L 314.0,914.0"/>
    <path d="M 225.0,972.0 L 239.0,956.0 L 311.0,940.0 L 364.0,944.0"/>
    <path d="M 617.0,212.0 L 643.0,245.0 L 636.0,271.0 L 597.0,343.0 L 521.0,451.0 L 514.0,475.0 L 555.0,475.0 L 675.0,437.0 L 745.0,419.0 L 761.0,422.0"/>
    <path d="M 720.0,340.0 L 804.0,418.0 L 823.0,443.0 L 836.0,481.0"/>
    <path d="M 526.0,547.0 L 545.0,577.0 L 527.0,619.0 L 499.0,666.0 L 446.0,719.0"/>
    <path d="M 551.0,635.0 L 558.0,629.0 L 608.0,630.0 L 656.0,621.0 L 757.0,591.0 L 792.0,593.0"/>
    <path d="M 442.0,784.0 L 495.0,788.0 L 791.0,730.0 L 848.0,729.0 L 896.0,741.0"/>
    <path d="M 612.0,650.0 L 646.0,675.0 L 644.0,719.0 L 629.0,802.0 L 592.0,888.0 L 570.0,920.0 L 531.0,957.0 L 475.0,990.0 L 416.0,1011.0"/>
    <path d="M 660.0,795.0 L 664.0,814.0 L 721.0,884.0 L 816.0,983.0 L 874.0,1004.0 L 952.0,1016.0"/>
  </g>
</svg>
