<svg xmlns="http://www.w3.org/2000/svg" viewBox="0 0 1024 1024">
  <g style="fill:none;stroke:#000000;stroke-width:50;stroke-linecap:round;stroke-linejoin:round;" transform="scale(1, 1) translate(0, 0)">
    <path d="M 293.0,257.0 L 377.0,311.0 L 398.0,349.0"/>
    <path d="M 68.0,491.0 L 95.0,498.0 L 135.0,497.0 L 344.0,447.0 L 385.0,440.0 L 424.0,444.0"/>
    <path d="M 213.0,584.0 L 258.0,583.0 L 326.0,561.0 L 370.0,556.0"/>
    <path d="M 210.0,686.0 L 261.0,685.0 L 357.0,654.0 L 374.0,655.0"/>
    <path d="M 144.0,783.0 L 171.0,803.0 L 180.0,822.0 L 220.0,969.0"/>
    <path d="M 199.0,781.0 L 209.0,788.0 L 298.0,758.0 L 328.0,760.0 L 349.0,779.0 L 347.0,789.0 L 331.0,848.0 L 307.0,864.0"/>
    <path d="M 230.0,923.0 L 248.0,905.0 L 295.0,892.0 L 361.0,892.0"/>
    <path d="M 505.0,542.0 L 518.0,548.0 L 585.0,536.0 L 700.0,497.0 L 757.0,471.0 L 804.0,457.0 L 828.0,459.0"/>
    <path d="M 440.0,529.0 L 474.0,555.0 L 476.0,564.0 L 479.0,668.0 L 467.0,795.0 L 454.0,844.0 L 426.0,901.0 L 384.0,955.0 L 333.0,993.0"/>
    <path d="M 503.0,705.0 L 519.0,687.0 L 568.0,670.0 L 591.0,672.0 L 602.0,683.0 L 601.0,774.0 L 582.0,875.0 L 556.0,911.0 L 510.0,888.0"/>
    <path d="M 582.0,195.0 L 617.0,212.0 L 643.0,238.0 L 655.0,413.0 L 688.0,604.0 L 723.0,723.0 L 778.0,842.0 L 816.0,897.0 L 857.0,939.0 L 884.0,955.0 L 914.0,963.0 L 934.0,923.0 L 958.0,820.0"/>
    <path d="M 822.0,578.0 L 847.0,611.0 L 832.0,674.0 L 802.0,746.0 L 729.0,845.0 L 646.0,908.0"/>
    <path d="M 764.0,268.0 L 833.0,312.0 L 853.0,339.0"/>
  </g>
</svg>
