<svg xmlns="http://www.w3.org/2000/svg" viewBox="0 0 1024 1024">
  <g style="fill:none;stroke:#000000;stroke-width:50;stroke-linecap:round;stroke-linejoin:round;" transform="scale(1, 1) translate(0, 0)">
    <path d="M 262.0,225.0 L 348.0,278.0 L 367.0,308.0"/>
    <path d="M 47.0,460.0 L 79.0,468.0 L 111.0,467.0 L 380.0,394.0 L 447.0,394.0"/>
    <path d="M 207.0,561.0 L 252.0,561.0 L 356.0,536.0 L 384.0,536.0"/>
    <path d="M 199.0,669.0 L 256.0,668.0 L 341.0,644.0 L 372.0,644.0"/>
    <path d="M 162.0,786.0 L 192.0,809.0 L 235.0,985.0"/>
    <path d="M 222.0,805.0 L 231.0,795.0 L 342.0,763.0 L 369.0,767.0 L 388.0,787.0 L 386.0,797.0 L 365.0,870.0 L 341.0,887.0"/>
    <path d="M 254.0,945.0 L 261.0,932.0 L 315.0,917.0 L 377.0,910.0 L 400.0,916.0"/>
    <path d="M 533.0,321.0 L 593.0,326.0 L 778.0,284.0 L 832.0,282.0"/>
    <path d="M 512.0,422.0 L 529.0,429.0 L 549.0,461.0 L 480.0,627.0 L 498.0,646.0 L 547.0,675.0 L 560.0,703.0"/>
    <path d="M 661.0,408.0 L 676.0,416.0 L 692.0,445.0 L 625.0,587.0 L 639.0,605.0 L 695.0,643.0 L 705.0,669.0"/>
    <path d="M 812.0,375.0 L 832.0,398.0 L 838.0,419.0 L 771.0,546.0 L 767.0,567.0 L 781.0,586.0 L 856.0,641.0 L 869.0,675.0"/>
    <path d="M 526.0,785.0 L 548.0,791.0 L 598.0,790.0 L 767.0,751.0 L 820.0,750.0"/>
    <path d="M 650.0,804.0 L 672.0,829.0 L 672.0,850.0 L 669.0,917.0 L 650.0,932.0"/>
    <path d="M 421.0,987.0 L 475.0,994.0 L 625.0,968.0 L 845.0,942.0 L 889.0,944.0 L 938.0,959.0"/>
  </g>
</svg>
