<svg xmlns="http://www.w3.org/2000/svg" viewBox="0 0 1024 1024">
  <g style="fill:none;stroke:#000000;stroke-width:50;stroke-linecap:round;stroke-linejoin:round;" transform="scale(1, 1) translate(0, 0)">
    <path d="M 265.0,177.0 L 343.0,229.0 L 370.0,269.0"/>
    <path d="M 42.0,429.0 L 72.0,435.0 L 109.0,432.0 L 327.0,371.0 L 393.0,369.0"/>
    <path d="M 193.0,515.0 L 234.0,513.0 L 312.0,488.0 L 347.0,485.0"/>
    <path d="M 181.0,620.0 L 242.0,617.0 L 319.0,592.0 L 345.0,592.0"/>
    <path d="M 115.0,737.0 L 141.0,759.0 L 147.0,772.0 L 188.0,946.0"/>
    <path d="M 163.0,736.0 L 178.0,743.0 L 273.0,711.0 L 306.0,712.0 L 326.0,732.0 L 309.0,799.0 L 286.0,816.0"/>
    <path d="M 204.0,882.0 L 211.0,866.0 L 282.0,845.0 L 340.0,846.0"/>
    <path d="M 436.0,305.0 L 455.0,321.0 L 466.0,343.0 L 505.0,557.0"/>
    <path d="M 481.0,307.0 L 501.0,316.0 L 586.0,293.0 L 633.0,290.0 L 736.0,269.0 L 769.0,268.0 L 789.0,274.0 L 816.0,307.0 L 773.0,460.0 L 752.0,512.0 L 756.0,533.0"/>
    <path d="M 540.0,424.0 L 677.0,389.0 L 709.0,394.0"/>
    <path d="M 523.0,540.0 L 534.0,526.0 L 702.0,499.0 L 720.0,490.0"/>
    <path d="M 389.0,672.0 L 442.0,678.0 L 643.0,641.0 L 831.0,616.0 L 908.0,631.0"/>
    <path d="M 586.0,317.0 L 614.0,337.0 L 617.0,365.0 L 610.0,721.0 L 597.0,983.0 L 611.0,1082.0"/>
    <path d="M 586.0,675.0 L 571.0,690.0 L 566.0,713.0 L 546.0,747.0 L 481.0,823.0 L 407.0,889.0 L 329.0,935.0"/>
    <path d="M 632.0,669.0 L 646.0,696.0 L 689.0,739.0 L 807.0,834.0 L 884.0,854.0 L 999.0,867.0"/>
  </g>
</svg>
