<svg xmlns="http://www.w3.org/2000/svg" viewBox="0 0 1024 1024">
  <g style="fill:none;stroke:#000000;stroke-width:50;stroke-linecap:round;stroke-linejoin:round;" transform="scale(1, 1) translate(0, 0)">
    <path d="M 279.0,209.0 L 359.0,254.0 L 390.0,293.0"/>
    <path d="M 55.0,494.0 L 116.0,498.0 L 340.0,429.0 L 387.0,419.0 L 429.0,421.0"/>
    <path d="M 209.0,595.0 L 257.0,594.0 L 343.0,564.0 L 375.0,561.0"/>
    <path d="M 210.0,695.0 L 239.0,697.0 L 324.0,672.0 L 367.0,669.0"/>
    <path d="M 152.0,811.0 L 175.0,827.0 L 187.0,845.0 L 231.0,1006.0"/>
    <path d="M 203.0,810.0 L 220.0,817.0 L 313.0,787.0 L 347.0,789.0 L 369.0,810.0 L 354.0,872.0 L 329.0,890.0"/>
    <path d="M 245.0,951.0 L 253.0,938.0 L 321.0,919.0 L 380.0,921.0"/>
    <path d="M 578.0,191.0 L 597.0,203.0 L 620.0,235.0 L 592.0,309.0 L 510.0,467.0 L 467.0,534.0 L 414.0,597.0"/>
    <path d="M 531.0,481.0 L 537.0,520.0 L 551.0,547.0 L 556.0,595.0 L 550.0,841.0 L 532.0,1005.0 L 539.0,1086.0"/>
    <path d="M 688.0,264.0 L 758.0,310.0 L 782.0,350.0"/>
    <path d="M 623.0,487.0 L 646.0,491.0 L 702.0,482.0 L 845.0,435.0 L 898.0,429.0"/>
    <path d="M 638.0,638.0 L 819.0,590.0 L 867.0,593.0"/>
    <path d="M 630.0,763.0 L 660.0,761.0 L 819.0,718.0 L 849.0,715.0 L 878.0,720.0"/>
    <path d="M 710.0,507.0 L 742.0,528.0 L 748.0,551.0 L 749.0,839.0 L 728.0,866.0"/>
    <path d="M 585.0,910.0 L 594.0,917.0 L 614.0,916.0 L 879.0,866.0 L 936.0,869.0 L 966.0,878.0"/>
  </g>
</svg>
