<svg xmlns="http://www.w3.org/2000/svg" viewBox="0 0 1024 1024">
  <g style="fill:none;stroke:#000000;stroke-width:50;stroke-linecap:round;stroke-linejoin:round;" transform="scale(1, 1) translate(0, 0)">
    <path d="M 289.0,176.0 L 360.0,224.0 L 386.0,266.0"/>
    <path d="M 93.0,418.0 L 119.0,425.0 L 165.0,423.0 L 364.0,379.0 L 407.0,376.0 L 427.0,381.0"/>
    <path d="M 223.0,515.0 L 259.0,519.0 L 343.0,498.0 L 385.0,497.0"/>
    <path d="M 215.0,611.0 L 254.0,613.0 L 347.0,592.0 L 374.0,593.0"/>
    <path d="M 144.0,721.0 L 174.0,755.0 L 205.0,925.0"/>
    <path d="M 200.0,741.0 L 208.0,731.0 L 305.0,704.0 L 331.0,706.0 L 356.0,729.0 L 336.0,800.0 L 312.0,815.0"/>
    <path d="M 221.0,870.0 L 236.0,856.0 L 297.0,843.0 L 347.0,843.0 L 366.0,849.0"/>
    <path d="M 460.0,307.0 L 496.0,346.0 L 503.0,395.0 L 497.0,571.0 L 483.0,690.0 L 462.0,781.0 L 438.0,848.0 L 377.0,972.0 L 343.0,1018.0"/>
    <path d="M 519.0,313.0 L 543.0,325.0 L 806.0,274.0 L 846.0,282.0 L 874.0,311.0 L 874.0,931.0 L 866.0,959.0 L 850.0,984.0 L 755.0,946.0"/>
    <path d="M 567.0,467.0 L 636.0,468.0 L 734.0,436.0 L 791.0,434.0"/>
    <path d="M 630.0,331.0 L 655.0,343.0 L 672.0,362.0 L 667.0,521.0 L 652.0,547.0"/>
    <path d="M 546.0,591.0 L 591.0,588.0 L 741.0,551.0 L 771.0,549.0 L 799.0,555.0"/>
    <path d="M 541.0,683.0 L 571.0,714.0 L 596.0,831.0"/>
    <path d="M 595.0,689.0 L 604.0,696.0 L 713.0,667.0 L 741.0,674.0 L 760.0,697.0 L 738.0,750.0 L 716.0,762.0"/>
    <path d="M 614.0,815.0 L 629.0,800.0 L 703.0,788.0 L 759.0,795.0"/>
  </g>
</svg>
