<svg xmlns="http://www.w3.org/2000/svg" viewBox="0 0 1024 1024">
  <g style="fill:none;stroke:#000000;stroke-width:50;stroke-linecap:round;stroke-linejoin:round;" transform="scale(1, 1) translate(0, 0)">
    <path d="M 302.0,211.0 L 398.0,260.0 L 430.0,297.0"/>
    <path d="M 92.0,458.0 L 123.0,466.0 L 164.0,465.0 L 396.0,414.0 L 460.0,416.0"/>
    <path d="M 243.0,555.0 L 299.0,554.0 L 389.0,528.0 L 419.0,529.0"/>
    <path d="M 247.0,657.0 L 293.0,659.0 L 377.0,637.0 L 416.0,636.0"/>
    <path d="M 170.0,766.0 L 200.0,789.0 L 204.0,800.0 L 248.0,990.0"/>
    <path d="M 230.0,771.0 L 241.0,777.0 L 341.0,745.0 L 373.0,747.0 L 392.0,767.0 L 390.0,776.0 L 369.0,846.0 L 347.0,861.0"/>
    <path d="M 261.0,920.0 L 274.0,905.0 L 343.0,889.0 L 399.0,891.0"/>
    <path d="M 637.0,194.0 L 718.0,257.0 L 732.0,280.0"/>
    <path d="M 517.0,399.0 L 552.0,405.0 L 577.0,402.0 L 688.0,374.0 L 869.0,344.0 L 949.0,357.0"/>
    <path d="M 528.0,536.0 L 555.0,554.0 L 565.0,570.0 L 607.0,699.0"/>
    <path d="M 581.0,532.0 L 597.0,542.0 L 774.0,498.0 L 793.0,501.0 L 814.0,515.0 L 826.0,532.0 L 798.0,596.0 L 771.0,610.0"/>
    <path d="M 620.0,651.0 L 632.0,661.0 L 762.0,637.0 L 822.0,645.0"/>
    <path d="M 667.0,680.0 L 694.0,699.0 L 705.0,726.0 L 708.0,904.0 L 702.0,954.0 L 684.0,984.0 L 639.0,966.0 L 588.0,934.0"/>
    <path d="M 535.0,774.0 L 521.0,832.0 L 489.0,894.0 L 477.0,931.0"/>
    <path d="M 794.0,760.0 L 902.0,842.0 L 922.0,872.0 L 933.0,907.0"/>
  </g>
</svg>
