<svg xmlns="http://www.w3.org/2000/svg" viewBox="0 0 1024 1024">
  <g style="fill:none;stroke:#000000;stroke-width:50;stroke-linecap:round;stroke-linejoin:round;" transform="scale(1, 1) translate(0, 0)">
    <path d="M 245.0,236.0 L 320.0,281.0 L 344.0,316.0"/>
    <path d="M 51.0,470.0 L 109.0,478.0 L 306.0,428.0 L 368.0,428.0"/>
    <path d="M 194.0,552.0 L 239.0,553.0 L 325.0,529.0 L 354.0,528.0"/>
    <path d="M 198.0,653.0 L 247.0,653.0 L 315.0,631.0 L 361.0,628.0"/>
    <path d="M 132.0,756.0 L 163.0,786.0 L 208.0,966.0"/>
    <path d="M 186.0,758.0 L 202.0,764.0 L 299.0,735.0 L 317.0,739.0 L 337.0,758.0 L 332.0,786.0 L 320.0,835.0 L 296.0,854.0"/>
    <path d="M 216.0,909.0 L 232.0,895.0 L 289.0,880.0 L 337.0,873.0 L 361.0,879.0"/>
    <path d="M 403.0,415.0 L 438.0,421.0 L 483.0,417.0 L 801.0,351.0 L 867.0,354.0"/>
    <path d="M 581.0,241.0 L 599.0,249.0 L 619.0,273.0 L 627.0,356.0 L 629.0,515.0"/>
    <path d="M 730.0,178.0 L 765.0,214.0 L 735.0,431.0 L 730.0,444.0 L 718.0,452.0"/>
    <path d="M 646.0,500.0 L 658.0,489.0 L 704.0,479.0 L 749.0,475.0 L 767.0,482.0"/>
    <path d="M 462.0,302.0 L 497.0,327.0 L 509.0,357.0 L 517.0,596.0 L 561.0,600.0 L 610.0,587.0 L 773.0,568.0 L 830.0,583.0"/>
    <path d="M 408.0,732.0 L 444.0,740.0 L 702.0,696.0 L 846.0,679.0 L 917.0,694.0"/>
    <path d="M 602.0,633.0 L 630.0,668.0 L 627.0,891.0 L 619.0,997.0 L 629.0,1080.0"/>
    <path d="M 600.0,736.0 L 563.0,802.0 L 479.0,897.0 L 408.0,952.0 L 354.0,982.0"/>
    <path d="M 657.0,730.0 L 663.0,743.0 L 742.0,822.0 L 842.0,906.0 L 924.0,923.0 L 989.0,928.0"/>
  </g>
</svg>
