<svg xmlns="http://www.w3.org/2000/svg" viewBox="0 0 1024 1024">
  <g style="fill:none;stroke:#000000;stroke-width:50;stroke-linecap:round;stroke-linejoin:round;" transform="scale(1, 1) translate(0, 0)">
    <path d="M 266.0,193.0 L 349.0,246.0 L 368.0,276.0"/>
    <path d="M 52.0,431.0 L 101.0,440.0 L 308.0,391.0 L 353.0,384.0 L 392.0,388.0"/>
    <path d="M 170.0,539.0 L 216.0,539.0 L 307.0,514.0 L 338.0,513.0"/>
    <path d="M 174.0,638.0 L 211.0,638.0 L 306.0,611.0 L 330.0,611.0"/>
    <path d="M 112.0,747.0 L 142.0,778.0 L 176.0,930.0"/>
    <path d="M 170.0,752.0 L 177.0,758.0 L 267.0,728.0 L 295.0,739.0 L 304.0,750.0 L 290.0,810.0 L 267.0,834.0"/>
    <path d="M 191.0,886.0 L 201.0,876.0 L 250.0,862.0 L 295.0,859.0 L 316.0,864.0"/>
    <path d="M 558.0,183.0 L 594.0,226.0 L 557.0,316.0 L 478.0,450.0 L 424.0,525.0 L 379.0,570.0"/>
    <path d="M 612.0,280.0 L 613.0,292.0 L 665.0,346.0 L 797.0,461.0 L 863.0,483.0 L 978.0,499.0"/>
    <path d="M 503.0,483.0 L 543.0,486.0 L 633.0,463.0 L 681.0,460.0"/>
    <path d="M 395.0,608.0 L 416.0,639.0 L 417.0,726.0 L 405.0,846.0 L 382.0,969.0"/>
    <path d="M 437.0,615.0 L 446.0,620.0 L 514.0,597.0 L 528.0,602.0 L 546.0,620.0 L 541.0,693.0 L 545.0,899.0 L 539.0,952.0 L 526.0,971.0 L 456.0,939.0"/>
    <path d="M 436.0,728.0 L 445.0,716.0 L 481.0,711.0 L 498.0,716.0"/>
    <path d="M 429.0,820.0 L 449.0,806.0 L 478.0,803.0 L 497.0,808.0"/>
    <path d="M 622.0,634.0 L 639.0,652.0 L 643.0,666.0 L 641.0,841.0"/>
    <path d="M 721.0,547.0 L 746.0,562.0 L 765.0,587.0 L 763.0,794.0 L 771.0,975.0 L 755.0,1015.0 L 645.0,973.0"/>
  </g>
</svg>
