<svg xmlns="http://www.w3.org/2000/svg" viewBox="0 0 1024 1024">
  <g style="fill:none;stroke:#000000;stroke-width:50;stroke-linecap:round;stroke-linejoin:round;" transform="scale(1, 1) translate(0, 0)">
    <path d="M 270.0,201.0 L 355.0,245.0 L 383.0,281.0"/>
    <path d="M 55.0,434.0 L 115.0,441.0 L 326.0,385.0 L 372.0,377.0 L 412.0,380.0"/>
    <path d="M 190.0,522.0 L 228.0,522.0 L 312.0,496.0 L 358.0,491.0"/>
    <path d="M 194.0,626.0 L 230.0,627.0 L 324.0,596.0 L 366.0,591.0"/>
    <path d="M 139.0,734.0 L 173.0,766.0 L 216.0,929.0"/>
    <path d="M 197.0,751.0 L 217.0,735.0 L 307.0,708.0 L 337.0,723.0 L 346.0,731.0 L 327.0,818.0 L 304.0,834.0"/>
    <path d="M 232.0,895.0 L 248.0,876.0 L 278.0,867.0 L 340.0,856.0 L 361.0,860.0"/>
    <path d="M 493.0,347.0 L 520.0,352.0 L 583.0,347.0 L 720.0,310.0 L 772.0,308.0"/>
    <path d="M 400.0,464.0 L 426.0,485.0 L 441.0,517.0 L 480.0,678.0"/>
    <path d="M 453.0,469.0 L 473.0,478.0 L 738.0,427.0 L 801.0,430.0 L 829.0,465.0 L 763.0,643.0"/>
    <path d="M 508.0,528.0 L 540.0,560.0 L 549.0,581.0"/>
    <path d="M 729.0,513.0 L 710.0,512.0 L 659.0,572.0"/>
    <path d="M 498.0,666.0 L 515.0,656.0 L 742.0,617.0"/>
    <path d="M 563.0,169.0 L 615.0,220.0 L 617.0,245.0 L 618.0,758.0 L 605.0,988.0 L 608.0,1078.0"/>
    <path d="M 593.0,666.0 L 579.0,681.0 L 573.0,702.0 L 534.0,762.0 L 477.0,834.0 L 416.0,896.0 L 348.0,941.0"/>
    <path d="M 641.0,665.0 L 652.0,697.0 L 784.0,824.0 L 822.0,850.0 L 873.0,869.0 L 989.0,890.0"/>
  </g>
</svg>
