<svg xmlns="http://www.w3.org/2000/svg" viewBox="0 0 1024 1024">
  <g style="fill:none;stroke:#000000;stroke-width:50;stroke-linecap:round;stroke-linejoin:round;" transform="scale(1, 1) translate(0, 0)">
    <path d="M 319.0,190.0 L 396.0,238.0 L 416.0,271.0"/>
    <path d="M 76.0,438.0 L 116.0,446.0 L 142.0,443.0 L 364.0,382.0 L 408.0,373.0 L 447.0,376.0"/>
    <path d="M 242.0,529.0 L 283.0,529.0 L 381.0,502.0 L 413.0,500.0"/>
    <path d="M 242.0,641.0 L 296.0,638.0 L 367.0,616.0 L 409.0,612.0"/>
    <path d="M 179.0,744.0 L 206.0,768.0 L 210.0,779.0 L 244.0,950.0"/>
    <path d="M 236.0,748.0 L 245.0,755.0 L 347.0,723.0 L 376.0,737.0 L 386.0,748.0 L 368.0,820.0 L 343.0,839.0"/>
    <path d="M 256.0,897.0 L 275.0,882.0 L 334.0,865.0 L 401.0,862.0"/>
    <path d="M 629.0,160.0 L 665.0,200.0 L 632.0,386.0 L 613.0,411.0"/>
    <path d="M 524.0,320.0 L 563.0,323.0 L 679.0,302.0 L 750.0,282.0 L 771.0,284.0 L 799.0,313.0 L 779.0,362.0 L 760.0,380.0 L 747.0,384.0"/>
    <path d="M 448.0,449.0 L 493.0,454.0 L 657.0,423.0 L 876.0,392.0 L 912.0,391.0 L 965.0,403.0"/>
    <path d="M 508.0,518.0 L 533.0,534.0 L 543.0,549.0 L 576.0,650.0"/>
    <path d="M 561.0,518.0 L 574.0,525.0 L 705.0,498.0 L 718.0,490.0 L 751.0,488.0 L 773.0,500.0 L 783.0,518.0 L 765.0,554.0 L 738.0,568.0"/>
    <path d="M 589.0,628.0 L 604.0,617.0 L 727.0,597.0 L 774.0,595.0 L 795.0,602.0"/>
    <path d="M 560.0,729.0 L 639.0,729.0 L 726.0,704.0 L 832.0,687.0"/>
    <path d="M 511.0,759.0 L 530.0,790.0 L 497.0,877.0 L 497.0,885.0 L 508.0,889.0 L 813.0,835.0 L 859.0,835.0 L 908.0,847.0"/>
    <path d="M 636.0,630.0 L 680.0,660.0 L 679.0,1109.0"/>
  </g>
</svg>
