<svg xmlns="http://www.w3.org/2000/svg" viewBox="0 0 1024 1024">
  <g style="fill:none;stroke:#000000;stroke-width:50;stroke-linecap:round;stroke-linejoin:round;" transform="scale(1, 1) translate(0, 0)">
    <path d="M 303.0,230.0 L 393.0,284.0 L 416.0,320.0"/>
    <path d="M 87.0,474.0 L 149.0,482.0 L 371.0,428.0 L 404.0,424.0 L 436.0,429.0"/>
    <path d="M 219.0,567.0 L 258.0,569.0 L 367.0,541.0 L 397.0,540.0"/>
    <path d="M 214.0,671.0 L 258.0,671.0 L 356.0,645.0 L 386.0,645.0"/>
    <path d="M 166.0,762.0 L 196.0,786.0 L 235.0,945.0"/>
    <path d="M 229.0,784.0 L 238.0,773.0 L 285.0,757.0 L 340.0,743.0 L 355.0,747.0 L 379.0,770.0 L 359.0,835.0 L 336.0,844.0"/>
    <path d="M 250.0,908.0 L 268.0,890.0 L 314.0,878.0 L 380.0,880.0"/>
    <path d="M 491.0,451.0 L 546.0,454.0 L 678.0,417.0 L 722.0,417.0"/>
    <path d="M 574.0,191.0 L 612.0,221.0 L 621.0,235.0 L 610.0,529.0 L 593.0,552.0"/>
    <path d="M 414.0,600.0 L 468.0,604.0 L 644.0,565.0 L 893.0,526.0 L 940.0,526.0 L 986.0,537.0"/>
    <path d="M 779.0,294.0 L 798.0,319.0 L 811.0,352.0 L 767.0,449.0 L 709.0,555.0 L 617.0,685.0 L 515.0,807.0 L 434.0,886.0 L 322.0,977.0"/>
    <path d="M 528.0,711.0 L 544.0,727.0 L 557.0,768.0 L 554.0,942.0 L 561.0,997.0"/>
    <path d="M 563.0,717.0 L 587.0,730.0 L 608.0,721.0 L 740.0,697.0 L 765.0,703.0 L 787.0,727.0 L 789.0,919.0 L 774.0,973.0 L 777.0,1028.0"/>
    <path d="M 588.0,842.0 L 597.0,830.0 L 634.0,824.0 L 685.0,818.0 L 714.0,824.0"/>
    <path d="M 584.0,965.0 L 602.0,951.0 L 673.0,941.0 L 733.0,940.0"/>
  </g>
</svg>
