<svg xmlns="http://www.w3.org/2000/svg" viewBox="0 0 1024 1024">
  <g style="fill:none;stroke:#000000;stroke-width:50;stroke-linecap:round;stroke-linejoin:round;" transform="scale(1, 1) translate(0, 0)">
    <path d="M 291.0,246.0 L 369.0,292.0 L 397.0,332.0"/>
    <path d="M 70.0,505.0 L 100.0,511.0 L 137.0,508.0 L 355.0,447.0 L 421.0,445.0"/>
    <path d="M 202.0,601.0 L 260.0,599.0 L 332.0,573.0 L 381.0,568.0"/>
    <path d="M 205.0,702.0 L 250.0,698.0 L 340.0,666.0 L 370.0,663.0"/>
    <path d="M 140.0,807.0 L 168.0,827.0 L 173.0,837.0 L 219.0,998.0"/>
    <path d="M 193.0,806.0 L 207.0,811.0 L 299.0,780.0 L 330.0,783.0 L 349.0,801.0 L 335.0,864.0 L 314.0,886.0"/>
    <path d="M 230.0,939.0 L 242.0,928.0 L 306.0,912.0 L 357.0,915.0"/>
    <path d="M 447.0,405.0 L 516.0,407.0 L 790.0,351.0 L 840.0,356.0"/>
    <path d="M 508.0,286.0 L 542.0,325.0 L 546.0,351.0 L 547.0,645.0 L 544.0,668.0 L 532.0,675.0"/>
    <path d="M 678.0,183.0 L 725.0,223.0 L 726.0,238.0 L 711.0,629.0 L 694.0,653.0"/>
    <path d="M 573.0,505.0 L 580.0,494.0 L 601.0,489.0 L 638.0,486.0 L 657.0,491.0"/>
    <path d="M 572.0,591.0 L 580.0,580.0 L 614.0,572.0 L 656.0,575.0"/>
    <path d="M 372.0,716.0 L 417.0,723.0 L 646.0,682.0 L 881.0,652.0 L 914.0,654.0 L 956.0,666.0"/>
    <path d="M 570.0,737.0 L 585.0,768.0 L 571.0,799.0 L 520.0,866.0 L 494.0,884.0"/>
    <path d="M 670.0,700.0 L 693.0,716.0 L 702.0,734.0 L 695.0,765.0 L 695.0,808.0 L 699.0,826.0 L 710.0,839.0 L 742.0,852.0 L 777.0,849.0 L 805.0,838.0 L 848.0,843.0"/>
    <path d="M 429.0,747.0 L 453.0,757.0 L 467.0,774.0 L 465.0,857.0 L 451.0,946.0 L 454.0,985.0 L 689.0,947.0 L 808.0,945.0 L 863.0,965.0"/>
  </g>
</svg>
