<svg xmlns="http://www.w3.org/2000/svg" viewBox="0 0 1024 1024">
  <g style="fill:none;stroke:#000000;stroke-width:50;stroke-linecap:round;stroke-linejoin:round;" transform="scale(1, 1) translate(0, 0)">
    <path d="M 140.0,267.0 L 174.0,296.0 L 179.0,330.0 L 178.0,513.0 L 164.0,657.0 L 138.0,753.0 L 107.0,833.0 L 38.0,950.0"/>
    <path d="M 212.0,296.0 L 231.0,282.0 L 285.0,270.0 L 301.0,276.0 L 323.0,300.0 L 320.0,733.0 L 316.0,857.0 L 311.0,880.0 L 299.0,898.0 L 295.0,902.0 L 270.0,894.0 L 201.0,855.0"/>
    <path d="M 210.0,471.0 L 217.0,459.0 L 230.0,455.0 L 272.0,460.0"/>
    <path d="M 196.0,631.0 L 202.0,620.0 L 217.0,614.0 L 246.0,611.0 L 268.0,617.0"/>
    <path d="M 416.0,274.0 L 470.0,307.0 L 491.0,340.0"/>
    <path d="M 787.0,240.0 L 752.0,230.0 L 669.0,314.0"/>
    <path d="M 436.0,410.0 L 501.0,413.0 L 583.0,396.0 L 696.0,361.0 L 736.0,362.0"/>
    <path d="M 384.0,517.0 L 402.0,521.0 L 449.0,516.0 L 595.0,482.0 L 774.0,451.0 L 854.0,459.0"/>
    <path d="M 555.0,165.0 L 588.0,205.0 L 559.0,375.0 L 533.0,467.0 L 507.0,536.0 L 465.0,613.0 L 407.0,694.0 L 369.0,732.0"/>
    <path d="M 654.0,493.0 L 668.0,499.0 L 751.0,582.0 L 828.0,641.0 L 918.0,663.0 L 987.0,669.0"/>
    <path d="M 565.0,564.0 L 607.0,593.0 L 622.0,613.0"/>
    <path d="M 469.0,667.0 L 542.0,669.0 L 694.0,638.0 L 732.0,638.0"/>
    <path d="M 500.0,749.0 L 679.0,720.0 L 711.0,725.0"/>
    <path d="M 488.0,829.0 L 531.0,827.0 L 685.0,796.0 L 727.0,801.0"/>
    <path d="M 448.0,899.0 L 475.0,918.0 L 484.0,935.0 L 519.0,1058.0"/>
    <path d="M 500.0,899.0 L 517.0,908.0 L 544.0,907.0 L 673.0,878.0 L 723.0,878.0 L 749.0,908.0 L 723.0,964.0 L 695.0,982.0"/>
    <path d="M 535.0,1037.0 L 550.0,1028.0 L 684.0,1007.0 L 750.0,1015.0"/>
  </g>
</svg>
