<svg xmlns="http://www.w3.org/2000/svg" viewBox="0 0 1024 1024">
  <g style="fill:none;stroke:#000000;stroke-width:50;stroke-linecap:round;stroke-linejoin:round;" transform="scale(1, 1) translate(0, 0)">
    <path d="M 313.0,205.0 L 390.0,251.0 L 403.0,262.0 L 422.0,295.0"/>
    <path d="M 52.0,455.0 L 110.0,463.0 L 348.0,406.0 L 389.0,400.0 L 428.0,404.0"/>
    <path d="M 210.0,555.0 L 256.0,555.0 L 347.0,530.0 L 378.0,529.0"/>
    <path d="M 214.0,657.0 L 263.0,657.0 L 331.0,635.0 L 377.0,632.0"/>
    <path d="M 155.0,789.0 L 178.0,807.0 L 189.0,828.0 L 228.0,998.0"/>
    <path d="M 209.0,789.0 L 220.0,796.0 L 303.0,767.0 L 335.0,768.0 L 355.0,788.0 L 354.0,798.0 L 338.0,868.0 L 316.0,886.0"/>
    <path d="M 238.0,941.0 L 249.0,929.0 L 308.0,912.0 L 369.0,910.0"/>
    <path d="M 493.0,244.0 L 511.0,260.0 L 522.0,281.0 L 556.0,476.0"/>
    <path d="M 544.0,242.0 L 560.0,253.0 L 618.0,236.0 L 733.0,215.0 L 761.0,218.0 L 784.0,236.0 L 793.0,250.0 L 761.0,379.0 L 738.0,444.0 L 743.0,464.0"/>
    <path d="M 564.0,367.0 L 573.0,355.0 L 642.0,338.0 L 686.0,333.0 L 697.0,337.0"/>
    <path d="M 575.0,458.0 L 585.0,448.0 L 665.0,429.0 L 703.0,426.0"/>
    <path d="M 563.0,487.0 L 576.0,507.0 L 578.0,523.0 L 566.0,542.0 L 516.0,603.0 L 459.0,644.0"/>
    <path d="M 551.0,597.0 L 561.0,591.0 L 644.0,584.0 L 810.0,549.0 L 844.0,555.0 L 870.0,584.0 L 862.0,820.0 L 846.0,921.0 L 824.0,985.0 L 785.0,1027.0 L 688.0,969.0"/>
    <path d="M 619.0,607.0 L 636.0,623.0 L 640.0,639.0 L 632.0,657.0 L 599.0,705.0 L 542.0,756.0"/>
    <path d="M 640.0,692.0 L 648.0,689.0 L 700.0,712.0 L 728.0,734.0 L 737.0,749.0"/>
    <path d="M 441.0,677.0 L 463.0,693.0 L 480.0,723.0 L 470.0,862.0 L 511.0,866.0 L 555.0,854.0 L 733.0,832.0 L 792.0,845.0"/>
  </g>
</svg>
