<svg xmlns="http://www.w3.org/2000/svg" viewBox="0 0 1024 1024">
  <g style="fill:none;stroke:#000000;stroke-width:50;stroke-linecap:round;stroke-linejoin:round;" transform="scale(1, 1) translate(0, 0)">
    <path d="M 458.0,173.0 L 521.0,205.0 L 542.0,234.0"/>
    <path d="M 239.0,279.0 L 245.0,322.0 L 206.0,396.0 L 198.0,442.0"/>
    <path d="M 270.0,306.0 L 286.0,316.0 L 323.0,314.0 L 588.0,275.0 L 736.0,265.0 L 762.0,276.0 L 781.0,301.0 L 718.0,367.0"/>
    <path d="M 325.0,411.0 L 359.0,417.0 L 400.0,415.0 L 613.0,371.0 L 669.0,370.0"/>
    <path d="M 321.0,497.0 L 378.0,496.0 L 606.0,456.0 L 642.0,454.0 L 663.0,460.0"/>
    <path d="M 381.0,342.0 L 415.0,377.0 L 423.0,510.0 L 422.0,534.0 L 412.0,543.0"/>
    <path d="M 540.0,309.0 L 560.0,327.0 L 570.0,350.0 L 552.0,502.0 L 546.0,519.0 L 535.0,526.0"/>
    <path d="M 236.0,580.0 L 289.0,587.0 L 493.0,554.0 L 711.0,531.0 L 789.0,546.0"/>
    <path d="M 418.0,604.0 L 380.0,619.0 L 325.0,685.0 L 222.0,772.0 L 138.0,823.0 L 98.0,839.0"/>
    <path d="M 575.0,573.0 L 591.0,578.0 L 650.0,631.0 L 763.0,714.0 L 804.0,736.0 L 849.0,746.0 L 976.0,754.0"/>
    <path d="M 458.0,614.0 L 504.0,636.0 L 518.0,649.0"/>
    <path d="M 333.0,725.0 L 391.0,731.0 L 604.0,690.0 L 635.0,690.0"/>
    <path d="M 396.0,787.0 L 454.0,791.0 L 574.0,772.0"/>
    <path d="M 385.0,855.0 L 410.0,861.0 L 458.0,859.0 L 550.0,839.0 L 587.0,840.0"/>
    <path d="M 339.0,925.0 L 369.0,950.0 L 400.0,1082.0"/>
    <path d="M 400.0,930.0 L 410.0,940.0 L 432.0,939.0 L 556.0,912.0 L 591.0,911.0 L 619.0,942.0 L 607.0,969.0 L 579.0,989.0"/>
    <path d="M 415.0,1022.0 L 416.0,1030.0 L 428.0,1038.0 L 567.0,1020.0 L 621.0,1018.0 L 651.0,1028.0"/>
  </g>
</svg>
