<svg xmlns="http://www.w3.org/2000/svg" viewBox="0 0 1024 1024">
  <g style="fill:none;stroke:#000000;stroke-width:50;stroke-linecap:round;stroke-linejoin:round;" transform="scale(1, 1) translate(0, 0)">
    <path d="M 326.0,221.0 L 399.0,262.0 L 417.0,291.0"/>
    <path d="M 55.0,474.0 L 117.0,482.0 L 339.0,428.0 L 372.0,424.0 L 404.0,429.0"/>
    <path d="M 199.0,571.0 L 247.0,574.0 L 339.0,549.0 L 373.0,548.0"/>
    <path d="M 199.0,683.0 L 221.0,687.0 L 259.0,682.0 L 355.0,653.0 L 386.0,653.0"/>
    <path d="M 132.0,796.0 L 163.0,823.0 L 194.0,1010.0"/>
    <path d="M 192.0,819.0 L 209.0,805.0 L 294.0,774.0 L 318.0,777.0 L 337.0,799.0 L 333.0,813.0 L 313.0,869.0 L 286.0,886.0"/>
    <path d="M 206.0,941.0 L 224.0,926.0 L 277.0,912.0 L 344.0,910.0"/>
    <path d="M 613.0,180.0 L 656.0,216.0 L 657.0,365.0 L 641.0,390.0"/>
    <path d="M 691.0,276.0 L 700.0,270.0 L 782.0,257.0 L 817.0,258.0"/>
    <path d="M 503.0,425.0 L 528.0,436.0 L 542.0,434.0 L 810.0,371.0 L 841.0,369.0 L 860.0,379.0 L 873.0,395.0 L 816.0,456.0"/>
    <path d="M 445.0,417.0 L 473.0,443.0 L 481.0,462.0 L 474.0,638.0 L 456.0,760.0 L 434.0,848.0 L 383.0,972.0 L 333.0,1055.0 L 303.0,1091.0"/>
    <path d="M 539.0,552.0 L 566.0,548.0 L 707.0,500.0 L 739.0,494.0 L 761.0,497.0"/>
    <path d="M 607.0,439.0 L 633.0,455.0 L 636.0,573.0 L 649.0,605.0 L 668.0,620.0 L 715.0,630.0 L 759.0,626.0 L 788.0,612.0 L 806.0,597.0 L 810.0,525.0"/>
    <path d="M 603.0,755.0 L 617.0,743.0 L 636.0,738.0 L 807.0,712.0 L 848.0,713.0"/>
    <path d="M 456.0,868.0 L 506.0,875.0 L 667.0,850.0 L 910.0,825.0 L 981.0,842.0"/>
    <path d="M 541.0,724.0 L 571.0,745.0 L 574.0,762.0 L 573.0,990.0 L 604.0,993.0 L 723.0,966.0 L 823.0,955.0 L 907.0,969.0"/>
  </g>
</svg>
