<svg xmlns="http://www.w3.org/2000/svg" viewBox="0 0 1024 1024">
  <g style="fill:none;stroke:#000000;stroke-width:50;stroke-linecap:round;stroke-linejoin:round;" transform="scale(1, 1) translate(0, 0)">
    <path d="M 265.0,219.0 L 349.0,274.0 L 379.0,315.0"/>
    <path d="M 64.0,455.0 L 122.0,462.0 L 348.0,407.0 L 408.0,408.0"/>
    <path d="M 190.0,547.0 L 232.0,548.0 L 312.0,523.0 L 354.0,521.0"/>
    <path d="M 194.0,647.0 L 236.0,648.0 L 321.0,625.0 L 354.0,625.0"/>
    <path d="M 141.0,768.0 L 153.0,765.0 L 174.0,789.0 L 208.0,950.0"/>
    <path d="M 193.0,759.0 L 221.0,761.0 L 293.0,737.0 L 325.0,739.0 L 344.0,759.0 L 342.0,770.0 L 325.0,836.0 L 301.0,853.0"/>
    <path d="M 225.0,906.0 L 239.0,894.0 L 301.0,878.0 L 337.0,875.0 L 360.0,880.0"/>
    <path d="M 446.0,446.0 L 444.0,481.0 L 418.0,569.0"/>
    <path d="M 497.0,395.0 L 516.0,422.0 L 537.0,499.0 L 564.0,553.0 L 588.0,578.0 L 639.0,605.0 L 726.0,620.0 L 764.0,614.0 L 787.0,598.0 L 783.0,569.0 L 758.0,499.0 L 761.0,493.0 L 751.0,487.0 L 752.0,479.0"/>
    <path d="M 544.0,322.0 L 610.0,369.0 L 623.0,396.0"/>
    <path d="M 701.0,248.0 L 719.0,265.0 L 732.0,292.0 L 690.0,439.0 L 627.0,558.0 L 585.0,608.0 L 539.0,643.0 L 460.0,687.0 L 414.0,703.0"/>
    <path d="M 773.0,382.0 L 854.0,429.0 L 877.0,464.0"/>
    <path d="M 412.0,762.0 L 440.0,788.0 L 474.0,916.0 L 490.0,931.0"/>
    <path d="M 458.0,761.0 L 483.0,772.0 L 731.0,726.0 L 795.0,727.0 L 819.0,752.0 L 822.0,765.0 L 787.0,868.0 L 755.0,895.0"/>
    <path d="M 545.0,779.0 L 560.0,801.0 L 576.0,899.0 L 590.0,918.0"/>
    <path d="M 668.0,754.0 L 693.0,773.0 L 698.0,786.0 L 664.0,902.0 L 652.0,914.0"/>
    <path d="M 369.0,957.0 L 422.0,964.0 L 593.0,939.0 L 835.0,916.0 L 865.0,917.0 L 923.0,935.0"/>
  </g>
</svg>
