<svg xmlns="http://www.w3.org/2000/svg" viewBox="0 0 1024 1024">
  <g style="fill:none;stroke:#000000;stroke-width:50;stroke-linecap:round;stroke-linejoin:round;" transform="scale(1, 1) translate(0, 0)">
    <path d="M 229.0,235.0 L 304.0,277.0 L 327.0,308.0"/>
    <path d="M 55.0,446.0 L 112.0,452.0 L 302.0,404.0 L 363.0,404.0"/>
    <path d="M 161.0,543.0 L 209.0,541.0 L 268.0,521.0 L 311.0,517.0"/>
    <path d="M 161.0,647.0 L 209.0,645.0 L 268.0,625.0 L 311.0,621.0"/>
    <path d="M 107.0,741.0 L 134.0,763.0 L 141.0,783.0 L 172.0,938.0"/>
    <path d="M 163.0,745.0 L 185.0,748.0 L 251.0,725.0 L 286.0,726.0 L 304.0,745.0 L 287.0,813.0 L 268.0,822.0"/>
    <path d="M 186.0,882.0 L 202.0,869.0 L 261.0,853.0 L 316.0,856.0"/>
    <path d="M 483.0,189.0 L 498.0,197.0 L 512.0,215.0 L 444.0,336.0 L 432.0,342.0"/>
    <path d="M 395.0,345.0 L 414.0,367.0 L 424.0,399.0 L 428.0,653.0 L 413.0,664.0"/>
    <path d="M 433.0,351.0 L 456.0,360.0 L 547.0,337.0 L 587.0,366.0 L 578.0,953.0 L 559.0,985.0 L 452.0,942.0"/>
    <path d="M 454.0,481.0 L 459.0,470.0 L 474.0,464.0 L 506.0,460.0 L 529.0,466.0"/>
    <path d="M 453.0,578.0 L 464.0,563.0 L 476.0,560.0 L 508.0,557.0 L 533.0,562.0"/>
    <path d="M 353.0,696.0 L 395.0,707.0 L 532.0,659.0 L 552.0,642.0"/>
    <path d="M 619.0,645.0 L 584.0,658.0 L 506.0,767.0 L 434.0,840.0 L 336.0,920.0 L 269.0,958.0"/>
    <path d="M 628.0,513.0 L 683.0,512.0 L 865.0,471.0 L 937.0,482.0"/>
    <path d="M 773.0,235.0 L 802.0,253.0 L 822.0,278.0 L 815.0,451.0 L 822.0,903.0 L 817.0,935.0 L 801.0,965.0 L 717.0,933.0 L 698.0,924.0 L 696.0,917.0 L 685.0,917.0"/>
    <path d="M 659.0,631.0 L 711.0,680.0 L 726.0,718.0"/>
  </g>
</svg>
