<svg xmlns="http://www.w3.org/2000/svg" viewBox="0 0 1024 1024">
  <g style="fill:none;stroke:#000000;stroke-width:50;stroke-linecap:round;stroke-linejoin:round;" transform="scale(1, 1) translate(0, 0)">
    <path d="M 278.0,241.0 L 360.0,294.0 L 380.0,325.0"/>
    <path d="M 47.0,486.0 L 107.0,493.0 L 346.0,431.0 L 408.0,432.0"/>
    <path d="M 187.0,591.0 L 209.0,595.0 L 247.0,590.0 L 340.0,562.0 L 370.0,561.0"/>
    <path d="M 199.0,691.0 L 255.0,690.0 L 345.0,664.0 L 375.0,665.0"/>
    <path d="M 136.0,802.0 L 155.0,816.0 L 170.0,840.0 L 212.0,1005.0"/>
    <path d="M 182.0,803.0 L 198.0,806.0 L 291.0,774.0 L 323.0,777.0 L 343.0,797.0 L 323.0,873.0 L 298.0,890.0"/>
    <path d="M 223.0,948.0 L 234.0,937.0 L 298.0,917.0 L 356.0,916.0"/>
    <path d="M 521.0,270.0 L 558.0,299.0 L 584.0,446.0"/>
    <path d="M 428.0,382.0 L 481.0,392.0 L 630.0,356.0"/>
    <path d="M 727.0,197.0 L 742.0,205.0 L 763.0,239.0 L 694.0,438.0"/>
    <path d="M 702.0,339.0 L 752.0,346.0 L 869.0,334.0 L 895.0,337.0 L 929.0,351.0"/>
    <path d="M 459.0,494.0 L 487.0,515.0 L 495.0,532.0 L 536.0,693.0"/>
    <path d="M 515.0,497.0 L 528.0,505.0 L 603.0,487.0 L 658.0,483.0 L 726.0,469.0 L 761.0,470.0 L 781.0,477.0 L 802.0,508.0 L 765.0,627.0 L 748.0,660.0 L 725.0,647.0"/>
    <path d="M 540.0,591.0 L 547.0,582.0 L 633.0,568.0 L 687.0,562.0 L 708.0,567.0"/>
    <path d="M 553.0,673.0 L 569.0,662.0 L 661.0,649.0 L 695.0,648.0 L 706.0,660.0"/>
    <path d="M 422.0,800.0 L 473.0,808.0 L 674.0,777.0 L 866.0,758.0 L 905.0,763.0 L 941.0,776.0"/>
    <path d="M 589.0,683.0 L 625.0,717.0 L 624.0,749.0 L 612.0,808.0 L 577.0,887.0 L 540.0,932.0 L 487.0,970.0 L 421.0,999.0 L 380.0,1007.0"/>
    <path d="M 644.0,808.0 L 657.0,831.0 L 738.0,918.0 L 828.0,998.0 L 973.0,1023.0"/>
  </g>
</svg>
