<svg xmlns="http://www.w3.org/2000/svg" viewBox="0 0 1024 1024">
  <g style="fill:none;stroke:#000000;stroke-width:50;stroke-linecap:round;stroke-linejoin:round;" transform="scale(1, 1) translate(0, 0)">
    <path d="M 282.0,221.0 L 371.0,274.0 L 393.0,307.0"/>
    <path d="M 44.0,469.0 L 99.0,476.0 L 358.0,413.0 L 406.0,417.0"/>
    <path d="M 195.0,555.0 L 234.0,557.0 L 343.0,529.0 L 373.0,528.0"/>
    <path d="M 206.0,667.0 L 235.0,669.0 L 320.0,644.0 L 363.0,641.0"/>
    <path d="M 118.0,771.0 L 151.0,799.0 L 191.0,961.0"/>
    <path d="M 180.0,772.0 L 189.0,780.0 L 295.0,751.0 L 313.0,749.0 L 321.0,754.0 L 343.0,775.0 L 324.0,846.0 L 303.0,859.0"/>
    <path d="M 208.0,921.0 L 218.0,911.0 L 295.0,892.0 L 348.0,896.0"/>
    <path d="M 605.0,184.0 L 670.0,223.0 L 694.0,259.0"/>
    <path d="M 464.0,376.0 L 515.0,380.0 L 620.0,356.0 L 844.0,320.0 L 893.0,320.0 L 934.0,330.0"/>
    <path d="M 558.0,423.0 L 589.0,456.0 L 604.0,485.0"/>
    <path d="M 731.0,364.0 L 751.0,382.0 L 753.0,395.0 L 709.0,479.0 L 689.0,502.0"/>
    <path d="M 442.0,533.0 L 473.0,568.0 L 478.0,653.0 L 463.0,814.0 L 442.0,906.0 L 438.0,963.0"/>
    <path d="M 498.0,542.0 L 520.0,554.0 L 825.0,494.0 L 852.0,504.0 L 874.0,530.0 L 870.0,625.0 L 875.0,891.0 L 870.0,958.0 L 853.0,995.0 L 812.0,984.0 L 745.0,950.0"/>
    <path d="M 551.0,654.0 L 612.0,656.0 L 708.0,628.0 L 759.0,627.0"/>
    <path d="M 619.0,552.0 L 646.0,571.0 L 651.0,582.0 L 639.0,696.0 L 632.0,715.0 L 622.0,723.0"/>
    <path d="M 533.0,734.0 L 561.0,765.0 L 585.0,886.0"/>
    <path d="M 580.0,738.0 L 591.0,746.0 L 724.0,721.0 L 743.0,740.0 L 743.0,754.0 L 725.0,794.0 L 703.0,807.0"/>
    <path d="M 601.0,858.0 L 617.0,847.0 L 694.0,832.0 L 751.0,837.0"/>
  </g>
</svg>
