<svg xmlns="http://www.w3.org/2000/svg" viewBox="0 0 1024 1024">
  <g style="fill:none;stroke:#000000;stroke-width:50;stroke-linecap:round;stroke-linejoin:round;" transform="scale(1, 1) translate(0, 0)">
    <path d="M 290.0,203.0 L 362.0,240.0 L 386.0,269.0"/>
    <path d="M 45.0,456.0 L 59.0,461.0 L 106.0,459.0 L 338.0,391.0 L 377.0,382.0 L 421.0,383.0"/>
    <path d="M 183.0,543.0 L 205.0,547.0 L 243.0,542.0 L 336.0,514.0 L 366.0,513.0"/>
    <path d="M 194.0,641.0 L 232.0,642.0 L 338.0,613.0 L 373.0,611.0"/>
    <path d="M 138.0,771.0 L 173.0,806.0 L 207.0,949.0"/>
    <path d="M 182.0,766.0 L 207.0,775.0 L 315.0,743.0 L 348.0,747.0 L 367.0,767.0 L 347.0,830.0 L 326.0,844.0"/>
    <path d="M 224.0,905.0 L 240.0,889.0 L 317.0,872.0 L 375.0,877.0"/>
    <path d="M 493.0,331.0 L 522.0,341.0 L 588.0,333.0 L 701.0,311.0 L 849.0,271.0 L 884.0,270.0 L 896.0,280.0"/>
    <path d="M 576.0,433.0 L 609.0,461.0 L 644.0,579.0"/>
    <path d="M 630.0,434.0 L 639.0,440.0 L 752.0,405.0 L 780.0,405.0 L 804.0,431.0 L 782.0,493.0 L 754.0,510.0"/>
    <path d="M 655.0,563.0 L 674.0,550.0 L 752.0,534.0 L 807.0,538.0"/>
    <path d="M 534.0,676.0 L 555.0,697.0 L 577.0,836.0"/>
    <path d="M 576.0,695.0 L 584.0,687.0 L 642.0,667.0 L 671.0,672.0 L 685.0,691.0 L 671.0,746.0 L 651.0,763.0"/>
    <path d="M 591.0,805.0 L 600.0,796.0 L 639.0,784.0 L 698.0,784.0"/>
    <path d="M 727.0,636.0 L 755.0,664.0 L 784.0,783.0"/>
    <path d="M 767.0,638.0 L 784.0,642.0 L 866.0,619.0 L 887.0,622.0 L 906.0,644.0 L 888.0,697.0 L 863.0,714.0"/>
    <path d="M 799.0,742.0 L 808.0,748.0 L 862.0,737.0 L 915.0,742.0"/>
    <path d="M 445.0,317.0 L 471.0,345.0 L 479.0,365.0 L 483.0,695.0 L 476.0,924.0 L 516.0,927.0 L 637.0,903.0 L 910.0,887.0 L 931.0,889.0 L 971.0,905.0"/>
  </g>
</svg>
