<svg xmlns="http://www.w3.org/2000/svg" viewBox="0 0 1024 1024">
  <g style="fill:none;stroke:#000000;stroke-width:50;stroke-linecap:round;stroke-linejoin:round;" transform="scale(1, 1) translate(0, 0)">
    <path d="M 263.0,249.0 L 336.0,288.0 L 370.0,329.0"/>
    <path d="M 46.0,517.0 L 108.0,524.0 L 338.0,460.0 L 383.0,450.0 L 425.0,453.0"/>
    <path d="M 173.0,623.0 L 209.0,624.0 L 309.0,590.0 L 351.0,585.0"/>
    <path d="M 176.0,728.0 L 233.0,723.0 L 307.0,696.0 L 342.0,692.0"/>
    <path d="M 127.0,833.0 L 150.0,851.0 L 160.0,869.0 L 196.0,1026.0"/>
    <path d="M 170.0,832.0 L 191.0,837.0 L 278.0,807.0 L 308.0,809.0 L 329.0,829.0 L 310.0,897.0 L 286.0,915.0"/>
    <path d="M 213.0,978.0 L 224.0,962.0 L 277.0,943.0 L 340.0,940.0"/>
    <path d="M 435.0,384.0 L 490.0,387.0 L 630.0,354.0 L 840.0,319.0 L 878.0,319.0 L 925.0,329.0"/>
    <path d="M 516.0,245.0 L 536.0,252.0 L 558.0,272.0 L 585.0,490.0"/>
    <path d="M 716.0,174.0 L 750.0,216.0 L 706.0,412.0 L 689.0,425.0"/>
    <path d="M 596.0,479.0 L 622.0,463.0 L 679.0,452.0 L 730.0,459.0"/>
    <path d="M 452.0,568.0 L 484.0,589.0 L 527.0,723.0"/>
    <path d="M 516.0,592.0 L 528.0,577.0 L 607.0,567.0 L 756.0,530.0 L 790.0,529.0 L 803.0,536.0 L 823.0,563.0 L 797.0,614.0 L 770.0,623.0"/>
    <path d="M 541.0,681.0 L 552.0,689.0 L 765.0,655.0 L 803.0,656.0 L 821.0,663.0"/>
    <path d="M 506.0,804.0 L 607.0,792.0 L 745.0,762.0 L 774.0,760.0 L 798.0,766.0"/>
    <path d="M 497.0,904.0 L 532.0,904.0 L 724.0,866.0 L 767.0,863.0 L 790.0,870.0"/>
    <path d="M 604.0,487.0 L 640.0,506.0 L 647.0,543.0 L 646.0,951.0 L 629.0,972.0"/>
    <path d="M 362.0,1016.0 L 382.0,1023.0 L 417.0,1024.0 L 574.0,1002.0 L 883.0,973.0 L 908.0,975.0 L 959.0,992.0"/>
  </g>
</svg>
