<svg xmlns="http://www.w3.org/2000/svg" viewBox="0 0 1024 1024">
  <g style="fill:none;stroke:#000000;stroke-width:50;stroke-linecap:round;stroke-linejoin:round;" transform="scale(1, 1) translate(0, 0)">
    <path d="M 252.0,242.0 L 329.0,280.0 L 360.0,317.0"/>
    <path d="M 49.0,501.0 L 80.0,507.0 L 109.0,504.0 L 320.0,444.0 L 375.0,443.0"/>
    <path d="M 159.0,590.0 L 200.0,590.0 L 291.0,564.0 L 321.0,563.0"/>
    <path d="M 166.0,690.0 L 204.0,692.0 L 281.0,669.0 L 317.0,667.0"/>
    <path d="M 116.0,798.0 L 150.0,826.0 L 192.0,963.0"/>
    <path d="M 175.0,815.0 L 185.0,803.0 L 279.0,770.0 L 300.0,772.0 L 321.0,791.0 L 320.0,801.0 L 305.0,862.0 L 281.0,880.0"/>
    <path d="M 207.0,935.0 L 220.0,922.0 L 274.0,905.0 L 337.0,902.0"/>
    <path d="M 467.0,245.0 L 524.0,286.0 L 542.0,312.0"/>
    <path d="M 419.0,419.0 L 479.0,419.0 L 556.0,394.0 L 605.0,389.0"/>
    <path d="M 415.0,485.0 L 449.0,518.0 L 461.0,539.0"/>
    <path d="M 543.0,420.0 L 567.0,448.0 L 539.0,539.0 L 531.0,543.0 L 525.0,559.0"/>
    <path d="M 363.0,601.0 L 420.0,601.0 L 583.0,560.0 L 807.0,518.0 L 857.0,521.0 L 879.0,532.0"/>
    <path d="M 406.0,684.0 L 429.0,717.0 L 435.0,781.0 L 431.0,901.0 L 437.0,937.0"/>
    <path d="M 452.0,695.0 L 460.0,701.0 L 564.0,675.0 L 578.0,680.0 L 591.0,696.0 L 592.0,881.0 L 584.0,913.0 L 592.0,971.0"/>
    <path d="M 455.0,809.0 L 491.0,791.0 L 521.0,787.0 L 538.0,792.0"/>
    <path d="M 455.0,915.0 L 467.0,904.0 L 520.0,893.0 L 549.0,895.0"/>
    <path d="M 609.0,205.0 L 642.0,221.0 L 666.0,246.0 L 674.0,421.0 L 701.0,598.0 L 738.0,750.0 L 789.0,870.0 L 845.0,960.0 L 873.0,992.0 L 918.0,1025.0 L 944.0,1031.0 L 970.0,967.0 L 985.0,878.0"/>
    <path d="M 843.0,606.0 L 864.0,638.0 L 831.0,698.0 L 772.0,775.0 L 727.0,819.0 L 653.0,869.0"/>
    <path d="M 753.0,291.0 L 847.0,354.0 L 867.0,387.0"/>
  </g>
</svg>
