<svg xmlns="http://www.w3.org/2000/svg" viewBox="0 0 1024 1024">
  <g style="fill:none;stroke:#000000;stroke-width:50;stroke-linecap:round;stroke-linejoin:round;" transform="scale(1, 1) translate(0, 0)">
    <path d="M 248.0,203.0 L 326.0,258.0 L 342.0,292.0"/>
    <path d="M 46.0,451.0 L 72.0,458.0 L 103.0,456.0 L 304.0,404.0 L 363.0,403.0"/>
    <path d="M 182.0,533.0 L 227.0,533.0 L 300.0,515.0 L 326.0,515.0"/>
    <path d="M 178.0,653.0 L 223.0,652.0 L 290.0,630.0 L 329.0,628.0"/>
    <path d="M 111.0,753.0 L 142.0,786.0 L 176.0,950.0"/>
    <path d="M 163.0,754.0 L 174.0,760.0 L 259.0,734.0 L 293.0,735.0 L 312.0,755.0 L 310.0,767.0 L 296.0,813.0 L 271.0,832.0"/>
    <path d="M 190.0,889.0 L 205.0,874.0 L 264.0,856.0 L 325.0,854.0"/>
    <path d="M 439.0,322.0 L 491.0,322.0 L 555.0,302.0 L 610.0,295.0"/>
    <path d="M 394.0,349.0 L 413.0,384.0 L 400.0,455.0 L 432.0,457.0 L 572.0,411.0 L 616.0,415.0"/>
    <path d="M 494.0,341.0 L 510.0,357.0 L 516.0,373.0 L 481.0,498.0 L 437.0,586.0 L 410.0,625.0 L 356.0,674.0"/>
    <path d="M 510.0,484.0 L 527.0,516.0 L 520.0,577.0 L 526.0,615.0 L 552.0,604.0 L 597.0,568.0 L 598.0,558.0 L 615.0,549.0"/>
    <path d="M 675.0,283.0 L 738.0,285.0 L 842.0,256.0 L 876.0,258.0"/>
    <path d="M 662.0,324.0 L 682.0,346.0 L 668.0,428.0 L 682.0,430.0 L 842.0,390.0 L 908.0,396.0"/>
    <path d="M 757.0,307.0 L 773.0,319.0 L 777.0,338.0 L 729.0,496.0 L 678.0,591.0 L 608.0,662.0"/>
    <path d="M 771.0,459.0 L 777.0,464.0 L 784.0,497.0 L 777.0,565.0 L 781.0,617.0 L 793.0,645.0 L 811.0,656.0 L 874.0,664.0 L 929.0,646.0 L 939.0,636.0 L 946.0,537.0"/>
    <path d="M 471.0,722.0 L 490.0,741.0 L 500.0,764.0 L 502.0,829.0 L 492.0,972.0 L 497.0,1022.0"/>
    <path d="M 524.0,734.0 L 534.0,743.0 L 730.0,708.0 L 767.0,737.0 L 772.0,942.0 L 768.0,977.0 L 759.0,997.0 L 704.0,986.0"/>
    <path d="M 528.0,862.0 L 538.0,850.0 L 593.0,839.0 L 649.0,832.0 L 682.0,838.0"/>
    <path d="M 520.0,993.0 L 541.0,978.0 L 664.0,962.0 L 714.0,963.0"/>
  </g>
</svg>
