<svg xmlns="http://www.w3.org/2000/svg" viewBox="0 0 1024 1024">
  <g style="fill:none;stroke:#000000;stroke-width:50;stroke-linecap:round;stroke-linejoin:round;" transform="scale(1, 1) translate(0, 0)">
    <path d="M 249.0,243.0 L 338.0,294.0 L 356.0,321.0"/>
    <path d="M 60.0,470.0 L 117.0,476.0 L 313.0,421.0 L 375.0,420.0"/>
    <path d="M 173.0,570.0 L 210.0,569.0 L 288.0,544.0 L 326.0,539.0"/>
    <path d="M 177.0,670.0 L 207.0,669.0 L 306.0,639.0 L 322.0,639.0"/>
    <path d="M 112.0,782.0 L 139.0,803.0 L 146.0,819.0 L 180.0,961.0"/>
    <path d="M 164.0,784.0 L 188.0,786.0 L 264.0,759.0 L 298.0,759.0 L 317.0,778.0 L 297.0,853.0 L 276.0,868.0"/>
    <path d="M 196.0,924.0 L 206.0,914.0 L 271.0,895.0 L 306.0,891.0 L 329.0,896.0"/>
    <path d="M 483.0,222.0 L 540.0,273.0 L 553.0,296.0"/>
    <path d="M 731.0,172.0 L 751.0,205.0 L 669.0,294.0"/>
    <path d="M 487.0,384.0 L 541.0,385.0 L 630.0,367.0 L 720.0,337.0 L 771.0,334.0"/>
    <path d="M 519.0,469.0 L 577.0,469.0 L 685.0,438.0 L 732.0,432.0"/>
    <path d="M 589.0,396.0 L 612.0,417.0 L 609.0,509.0 L 594.0,527.0"/>
    <path d="M 415.0,570.0 L 463.0,573.0 L 775.0,507.0 L 817.0,511.0"/>
    <path d="M 590.0,629.0 L 546.0,621.0 L 485.0,657.0 L 437.0,671.0 L 428.0,679.0 L 416.0,677.0 L 409.0,684.0"/>
    <path d="M 398.0,748.0 L 450.0,750.0 L 614.0,711.0 L 746.0,671.0 L 810.0,659.0 L 850.0,662.0"/>
    <path d="M 503.0,672.0 L 529.0,689.0 L 528.0,984.0 L 512.0,1013.0 L 431.0,981.0"/>
    <path d="M 375.0,890.0 L 417.0,894.0 L 476.0,853.0 L 613.0,778.0"/>
    <path d="M 626.0,560.0 L 645.0,569.0 L 669.0,602.0 L 671.0,674.0 L 679.0,717.0 L 697.0,783.0 L 726.0,851.0 L 781.0,946.0 L 858.0,1028.0 L 893.0,1046.0 L 913.0,1049.0 L 919.0,1041.0 L 936.0,995.0 L 953.0,892.0"/>
    <path d="M 810.0,730.0 L 825.0,768.0 L 772.0,834.0 L 707.0,890.0 L 646.0,926.0 L 607.0,941.0"/>
    <path d="M 837.0,553.0 L 899.0,590.0 L 925.0,626.0"/>
  </g>
</svg>
