<svg xmlns="http://www.w3.org/2000/svg" viewBox="0 0 1024 1024">
  <g style="fill:none;stroke:#000000;stroke-width:50;stroke-linecap:round;stroke-linejoin:round;" transform="scale(1, 1) translate(0, 0)">
    <path d="M 262.0,221.0 L 348.0,274.0 L 367.0,304.0"/>
    <path d="M 59.0,475.0 L 112.0,481.0 L 313.0,425.0 L 371.0,423.0"/>
    <path d="M 185.0,574.0 L 222.0,575.0 L 315.0,545.0 L 342.0,543.0"/>
    <path d="M 185.0,670.0 L 217.0,669.0 L 307.0,640.0 L 335.0,639.0"/>
    <path d="M 141.0,777.0 L 164.0,797.0 L 173.0,817.0 L 200.0,954.0"/>
    <path d="M 189.0,779.0 L 201.0,784.0 L 279.0,756.0 L 313.0,756.0 L 333.0,775.0 L 331.0,788.0 L 319.0,836.0 L 296.0,854.0"/>
    <path d="M 217.0,909.0 L 224.0,898.0 L 287.0,879.0 L 349.0,878.0"/>
    <path d="M 524.0,355.0 L 553.0,387.0 L 577.0,480.0"/>
    <path d="M 543.0,351.0 L 574.0,362.0 L 788.0,311.0 L 802.0,317.0 L 818.0,339.0 L 806.0,368.0 L 784.0,383.0"/>
    <path d="M 589.0,463.0 L 607.0,451.0 L 758.0,416.0 L 815.0,408.0 L 835.0,412.0"/>
    <path d="M 641.0,231.0 L 680.0,265.0 L 678.0,479.0 L 663.0,503.0"/>
    <path d="M 505.0,552.0 L 536.0,553.0 L 707.0,511.0 L 824.0,490.0 L 862.0,488.0 L 903.0,497.0"/>
    <path d="M 572.0,593.0 L 596.0,618.0 L 601.0,640.0 L 606.0,724.0 L 597.0,875.0 L 600.0,914.0"/>
    <path d="M 621.0,621.0 L 641.0,607.0 L 690.0,598.0 L 716.0,585.0 L 748.0,585.0 L 764.0,599.0 L 765.0,613.0 L 755.0,638.0 L 733.0,652.0"/>
    <path d="M 626.0,711.0 L 636.0,702.0 L 706.0,684.0 L 764.0,676.0 L 784.0,680.0"/>
    <path d="M 625.0,786.0 L 638.0,775.0 L 758.0,749.0 L 788.0,774.0 L 772.0,819.0 L 750.0,838.0"/>
    <path d="M 622.0,893.0 L 646.0,879.0 L 751.0,861.0 L 789.0,859.0 L 808.0,866.0"/>
    <path d="M 413.0,381.0 L 456.0,412.0 L 478.0,439.0"/>
    <path d="M 358.0,667.0 L 389.0,668.0 L 444.0,650.0 L 460.0,654.0 L 472.0,666.0 L 467.0,702.0 L 431.0,775.0 L 433.0,792.0 L 460.0,839.0 L 472.0,876.0 L 468.0,906.0 L 460.0,911.0"/>
    <path d="M 356.0,923.0 L 375.0,933.0 L 446.0,931.0 L 487.0,939.0 L 682.0,1001.0 L 801.0,1027.0 L 976.0,991.0"/>
  </g>
</svg>
