<svg xmlns="http://www.w3.org/2000/svg" viewBox="0 0 1024 1024">
  <g style="fill:none;stroke:#000000;stroke-width:50;stroke-linecap:round;stroke-linejoin:round;" transform="scale(1, 1) translate(0, 0)">
    <path d="M 273.0,209.0 L 359.0,258.0 L 393.0,304.0"/>
    <path d="M 67.0,544.0 L 100.0,549.0 L 135.0,543.0 L 255.0,493.0 L 290.0,493.0 L 299.0,502.0 L 272.0,765.0 L 270.0,798.0 L 278.0,830.0 L 319.0,815.0 L 416.0,714.0"/>
    <path d="M 478.0,409.0 L 510.0,435.0 L 518.0,464.0 L 513.0,620.0 L 493.0,734.0 L 464.0,813.0 L 433.0,862.0 L 373.0,926.0 L 330.0,952.0"/>
    <path d="M 542.0,417.0 L 564.0,427.0 L 635.0,404.0 L 678.0,400.0 L 707.0,421.0 L 690.0,562.0 L 684.0,743.0 L 690.0,844.0 L 704.0,897.0 L 718.0,919.0 L 757.0,943.0 L 805.0,953.0 L 854.0,949.0 L 890.0,935.0 L 914.0,917.0 L 929.0,779.0"/>
  </g>
</svg>
