<svg xmlns="http://www.w3.org/2000/svg" viewBox="0 0 1024 1024">
  <g style="fill:none;stroke:#000000;stroke-width:50;stroke-linecap:round;stroke-linejoin:round;" transform="scale(1, 1) translate(0, 0)">
    <path d="M 261.0,244.0 L 352.0,305.0 L 378.0,345.0"/>
    <path d="M 67.0,552.0 L 121.0,553.0 L 258.0,497.0 L 293.0,499.0 L 301.0,514.0 L 260.0,832.0 L 267.0,874.0 L 309.0,860.0 L 388.0,786.0"/>
    <path d="M 617.0,261.0 L 668.0,304.0 L 669.0,313.0 L 651.0,767.0 L 632.0,793.0"/>
    <path d="M 435.0,615.0 L 462.0,645.0 L 472.0,667.0 L 474.0,725.0 L 464.0,852.0 L 514.0,849.0 L 620.0,821.0 L 812.0,793.0 L 829.0,778.0"/>
    <path d="M 845.0,546.0 L 880.0,591.0 L 850.0,900.0"/>
  </g>
</svg>
