<svg xmlns="http://www.w3.org/2000/svg" viewBox="0 0 1024 1024">
  <g style="fill:none;stroke:#000000;stroke-width:50;stroke-linecap:round;stroke-linejoin:round;" transform="scale(1, 1) translate(0, 0)">
    <path d="M 255.0,245.0 L 356.0,299.0 L 389.0,342.0"/>
    <path d="M 53.0,590.0 L 102.0,596.0 L 249.0,540.0 L 285.0,542.0 L 294.0,551.0 L 256.0,860.0 L 262.0,908.0 L 307.0,893.0 L 412.0,797.0"/>
    <path d="M 576.0,320.0 L 630.0,362.0 L 622.0,810.0 L 620.0,829.0 L 603.0,848.0"/>
    <path d="M 658.0,603.0 L 668.0,592.0 L 722.0,583.0 L 790.0,562.0 L 827.0,556.0 L 851.0,560.0"/>
    <path d="M 410.0,891.0 L 432.0,897.0 L 477.0,897.0 L 591.0,877.0 L 843.0,848.0 L 919.0,867.0"/>
  </g>
</svg>
