<svg xmlns="http://www.w3.org/2000/svg" viewBox="0 0 1024 1024">
  <g style="fill:none;stroke:#000000;stroke-width:50;stroke-linecap:round;stroke-linejoin:round;" transform="scale(1, 1) translate(0, 0)">
    <path d="M 263.0,222.0 L 361.0,283.0 L 393.0,328.0"/>
    <path d="M 48.0,560.0 L 77.0,564.0 L 114.0,557.0 L 253.0,488.0 L 288.0,488.0 L 297.0,497.0 L 272.0,830.0 L 282.0,876.0 L 327.0,858.0 L 432.0,754.0"/>
    <path d="M 491.0,387.0 L 534.0,420.0 L 536.0,432.0 L 541.0,545.0 L 535.0,661.0 L 508.0,762.0 L 476.0,822.0 L 424.0,882.0 L 389.0,908.0"/>
    <path d="M 656.0,389.0 L 683.0,420.0 L 688.0,447.0 L 685.0,844.0"/>
    <path d="M 805.0,222.0 L 859.0,274.0 L 861.0,300.0 L 859.0,437.0 L 867.0,648.0 L 858.0,961.0 L 863.0,1049.0"/>
  </g>
</svg>
