<svg xmlns="http://www.w3.org/2000/svg" viewBox="0 0 1024 1024">
  <g style="fill:none;stroke:#000000;stroke-width:50;stroke-linecap:round;stroke-linejoin:round;" transform="scale(1, 1) translate(0, 0)">
    <path d="M 287.0,214.0 L 379.0,269.0 L 409.0,312.0"/>
    <path d="M 49.0,543.0 L 77.0,548.0 L 106.0,545.0 L 245.0,482.0 L 281.0,482.0 L 291.0,491.0 L 263.0,859.0 L 274.0,896.0 L 320.0,878.0 L 427.0,774.0"/>
    <path d="M 456.0,413.0 L 518.0,407.0 L 719.0,347.0 L 729.0,346.0 L 754.0,362.0 L 768.0,378.0 L 751.0,449.0 L 744.0,544.0 L 745.0,650.0 L 757.0,761.0 L 772.0,823.0 L 798.0,888.0 L 831.0,938.0 L 863.0,966.0 L 905.0,977.0 L 916.0,956.0 L 945.0,799.0"/>
    <path d="M 458.0,651.0 L 510.0,651.0 L 618.0,615.0 L 671.0,609.0"/>
    <path d="M 537.0,421.0 L 561.0,436.0 L 571.0,450.0 L 571.0,520.0 L 539.0,783.0 L 501.0,938.0 L 496.0,995.0"/>
  </g>
</svg>
