<svg xmlns="http://www.w3.org/2000/svg" viewBox="0 0 1024 1024">
  <g style="fill:none;stroke:#000000;stroke-width:50;stroke-linecap:round;stroke-linejoin:round;" transform="scale(1, 1) translate(0, 0)">
    <path d="M 237.0,257.0 L 325.0,320.0 L 350.0,362.0"/>
    <path d="M 75.0,576.0 L 127.0,581.0 L 224.0,538.0 L 263.0,531.0 L 277.0,534.0 L 285.0,544.0 L 283.0,568.0 L 240.0,855.0 L 250.0,886.0 L 285.0,876.0 L 372.0,802.0"/>
    <path d="M 493.0,251.0 L 511.0,263.0 L 531.0,293.0 L 520.0,329.0 L 490.0,405.0 L 426.0,529.0 L 385.0,593.0 L 350.0,633.0"/>
    <path d="M 436.0,555.0 L 441.0,580.0 L 464.0,617.0 L 458.0,763.0 L 444.0,881.0 L 450.0,946.0"/>
    <path d="M 781.0,396.0 L 797.0,414.0 L 811.0,445.0 L 765.0,524.0 L 648.0,671.0 L 543.0,767.0"/>
    <path d="M 615.0,306.0 L 637.0,329.0 L 652.0,358.0 L 631.0,509.0 L 623.0,657.0 L 632.0,829.0 L 656.0,904.0 L 694.0,925.0 L 768.0,932.0 L 849.0,927.0 L 902.0,908.0 L 908.0,904.0 L 911.0,845.0 L 908.0,738.0"/>
  </g>
</svg>
