<svg xmlns="http://www.w3.org/2000/svg" viewBox="0 0 1024 1024">
  <g style="fill:none;stroke:#000000;stroke-width:50;stroke-linecap:round;stroke-linejoin:round;" transform="scale(1, 1) translate(0, 0)">
    <path d="M 259.0,213.0 L 353.0,264.0 L 385.0,304.0"/>
    <path d="M 56.0,540.0 L 95.0,545.0 L 125.0,538.0 L 257.0,477.0 L 293.0,478.0 L 303.0,487.0 L 272.0,817.0 L 280.0,854.0 L 329.0,836.0 L 436.0,737.0"/>
    <path d="M 552.0,356.0 L 574.0,361.0 L 629.0,357.0 L 801.0,314.0 L 853.0,310.0"/>
    <path d="M 494.0,435.0 L 515.0,455.0 L 528.0,479.0 L 506.0,613.0 L 536.0,614.0 L 681.0,572.0 L 822.0,548.0 L 861.0,545.0 L 911.0,561.0"/>
    <path d="M 706.0,365.0 L 744.0,393.0 L 742.0,960.0 L 718.0,1003.0 L 662.0,981.0 L 600.0,946.0"/>
    <path d="M 708.0,595.0 L 696.0,609.0 L 686.0,646.0 L 644.0,714.0 L 589.0,781.0 L 492.0,876.0 L 410.0,932.0"/>
  </g>
</svg>
