<svg xmlns="http://www.w3.org/2000/svg" viewBox="0 0 1024 1024">
  <g style="fill:none;stroke:#000000;stroke-width:50;stroke-linecap:round;stroke-linejoin:round;" transform="scale(1, 1) translate(0, 0)">
    <path d="M 251.0,253.0 L 355.0,309.0 L 381.0,346.0"/>
    <path d="M 49.0,604.0 L 100.0,608.0 L 233.0,548.0 L 250.0,542.0 L 286.0,542.0 L 295.0,556.0 L 268.0,866.0 L 279.0,899.0 L 324.0,877.0 L 404.0,794.0"/>
    <path d="M 446.0,509.0 L 508.0,509.0 L 632.0,486.0 L 723.0,462.0 L 754.0,468.0 L 783.0,497.0 L 781.0,507.0 L 746.0,620.0 L 716.0,649.0"/>
    <path d="M 369.0,712.0 L 422.0,718.0 L 683.0,675.0 L 844.0,656.0 L 906.0,661.0 L 939.0,672.0"/>
    <path d="M 555.0,261.0 L 603.0,298.0 L 607.0,313.0 L 593.0,613.0 L 580.0,724.0 L 567.0,782.0 L 536.0,857.0 L 481.0,926.0 L 410.0,976.0 L 327.0,1010.0"/>
    <path d="M 616.0,714.0 L 716.0,855.0 L 808.0,956.0 L 968.0,1006.0"/>
  </g>
</svg>
