<svg xmlns="http://www.w3.org/2000/svg" viewBox="0 0 1024 1024">
  <g style="fill:none;stroke:#000000;stroke-width:50;stroke-linecap:round;stroke-linejoin:round;" transform="scale(1, 1) translate(0, 0)">
    <path d="M 256.0,236.0 L 346.0,299.0 L 374.0,346.0"/>
    <path d="M 73.0,554.0 L 114.0,562.0 L 138.0,558.0 L 257.0,508.0 L 293.0,509.0 L 303.0,518.0 L 265.0,847.0 L 272.0,884.0 L 324.0,867.0 L 424.0,785.0"/>
    <path d="M 421.0,419.0 L 471.0,427.0 L 594.0,402.0 L 868.0,365.0 L 911.0,370.0 L 949.0,383.0"/>
    <path d="M 439.0,557.0 L 470.0,587.0 L 500.0,746.0"/>
    <path d="M 498.0,582.0 L 508.0,572.0 L 595.0,546.0 L 629.0,547.0 L 648.0,567.0 L 626.0,644.0 L 602.0,663.0"/>
    <path d="M 521.0,717.0 L 534.0,702.0 L 603.0,688.0 L 640.0,685.0 L 664.0,692.0"/>
    <path d="M 736.0,414.0 L 772.0,435.0 L 776.0,447.0 L 776.0,922.0 L 764.0,960.0 L 750.0,978.0 L 692.0,956.0 L 644.0,926.0"/>
  </g>
</svg>
