<svg xmlns="http://www.w3.org/2000/svg" viewBox="0 0 1024 1024">
  <g style="fill:none;stroke:#000000;stroke-width:50;stroke-linecap:round;stroke-linejoin:round;" transform="scale(1, 1) translate(0, 0)">
    <path d="M 279.0,246.0 L 371.0,301.0 L 401.0,344.0"/>
    <path d="M 60.0,579.0 L 98.0,585.0 L 137.0,580.0 L 259.0,531.0 L 299.0,532.0 L 309.0,542.0 L 279.0,840.0 L 288.0,880.0 L 336.0,863.0 L 432.0,781.0"/>
    <path d="M 507.0,445.0 L 519.0,454.0 L 535.0,486.0 L 512.0,534.0 L 465.0,606.0 L 399.0,676.0"/>
    <path d="M 613.0,305.0 L 647.0,319.0 L 748.0,467.0 L 841.0,572.0 L 892.0,591.0 L 971.0,607.0"/>
    <path d="M 583.0,636.0 L 614.0,671.0 L 612.0,680.0 L 571.0,774.0 L 515.0,862.0 L 501.0,910.0 L 527.0,913.0 L 745.0,852.0 L 755.0,856.0"/>
    <path d="M 716.0,759.0 L 782.0,830.0 L 829.0,894.0 L 844.0,956.0"/>
  </g>
</svg>
