<svg xmlns="http://www.w3.org/2000/svg" viewBox="0 0 1024 1024">
  <g style="fill:none;stroke:#000000;stroke-width:50;stroke-linecap:round;stroke-linejoin:round;" transform="scale(1, 1) translate(0, 0)">
    <path d="M 264.0,248.0 L 358.0,300.0 L 385.0,339.0"/>
    <path d="M 65.0,570.0 L 113.0,576.0 L 161.0,562.0 L 267.0,516.0 L 306.0,517.0 L 316.0,533.0 L 288.0,808.0 L 285.0,855.0 L 293.0,886.0 L 339.0,867.0 L 420.0,786.0"/>
    <path d="M 414.0,535.0 L 470.0,541.0 L 578.0,519.0 L 832.0,482.0 L 919.0,497.0"/>
    <path d="M 608.0,243.0 L 645.0,274.0 L 654.0,285.0 L 654.0,298.0 L 617.0,687.0 L 597.0,713.0"/>
    <path d="M 466.0,729.0 L 492.0,752.0 L 498.0,766.0 L 536.0,981.0"/>
    <path d="M 522.0,733.0 L 541.0,743.0 L 642.0,730.0 L 732.0,707.0 L 767.0,715.0 L 792.0,743.0 L 762.0,848.0 L 736.0,867.0"/>
    <path d="M 554.0,905.0 L 565.0,916.0 L 725.0,896.0 L 775.0,895.0 L 806.0,905.0"/>
  </g>
</svg>
