<svg xmlns="http://www.w3.org/2000/svg" viewBox="0 0 1024 1024">
  <g style="fill:none;stroke:#000000;stroke-width:50;stroke-linecap:round;stroke-linejoin:round;" transform="scale(1, 1) translate(0, 0)">
    <path d="M 278.0,213.0 L 373.0,262.0 L 403.0,301.0"/>
    <path d="M 82.0,532.0 L 120.0,534.0 L 158.0,526.0 L 285.0,464.0 L 321.0,464.0 L 329.0,472.0 L 328.0,498.0 L 296.0,815.0 L 307.0,847.0 L 352.0,831.0 L 448.0,749.0"/>
    <path d="M 502.0,323.0 L 550.0,333.0 L 572.0,330.0 L 815.0,265.0 L 845.0,275.0 L 869.0,303.0 L 853.0,411.0 L 847.0,535.0 L 848.0,933.0 L 838.0,958.0 L 826.0,969.0 L 793.0,960.0 L 717.0,916.0"/>
    <path d="M 500.0,464.0 L 560.0,469.0 L 640.0,448.0 L 701.0,446.0"/>
    <path d="M 456.0,587.0 L 480.0,609.0 L 488.0,628.0 L 516.0,771.0"/>
    <path d="M 506.0,590.0 L 516.0,597.0 L 638.0,566.0 L 666.0,579.0 L 676.0,591.0 L 654.0,664.0 L 631.0,680.0"/>
    <path d="M 534.0,735.0 L 548.0,723.0 L 628.0,707.0 L 686.0,711.0"/>
  </g>
</svg>
