<svg xmlns="http://www.w3.org/2000/svg" viewBox="0 0 1024 1024">
  <g style="fill:none;stroke:#000000;stroke-width:50;stroke-linecap:round;stroke-linejoin:round;" transform="scale(1, 1) translate(0, 0)">
    <path d="M 270.0,213.0 L 359.0,273.0 L 386.0,314.0"/>
    <path d="M 54.0,543.0 L 80.0,549.0 L 112.0,546.0 L 246.0,492.0 L 282.0,493.0 L 292.0,502.0 L 262.0,802.0 L 260.0,833.0 L 268.0,870.0 L 317.0,852.0 L 412.0,765.0"/>
    <path d="M 624.0,217.0 L 644.0,240.0 L 652.0,263.0 L 631.0,301.0 L 538.0,426.0 L 448.0,511.0"/>
    <path d="M 583.0,410.0 L 711.0,390.0 L 744.0,406.0 L 678.0,526.0 L 635.0,581.0"/>
    <path d="M 465.0,620.0 L 489.0,625.0 L 529.0,621.0 L 739.0,577.0 L 765.0,578.0 L 791.0,596.0 L 808.0,614.0 L 803.0,641.0 L 759.0,831.0 L 755.0,843.0 L 729.0,864.0"/>
    <path d="M 447.0,771.0 L 483.0,777.0 L 658.0,741.0 L 700.0,745.0"/>
    <path d="M 463.0,918.0 L 492.0,925.0 L 757.0,892.0 L 780.0,893.0 L 805.0,903.0"/>
  </g>
</svg>
