<svg xmlns="http://www.w3.org/2000/svg" viewBox="0 0 1024 1024">
  <g style="fill:none;stroke:#000000;stroke-width:50;stroke-linecap:round;stroke-linejoin:round;" transform="scale(1, 1) translate(0, 0)">
    <path d="M 258.0,231.0 L 348.0,278.0 L 383.0,318.0"/>
    <path d="M 63.0,576.0 L 111.0,580.0 L 134.0,575.0 L 259.0,517.0 L 297.0,518.0 L 306.0,527.0 L 272.0,821.0 L 271.0,852.0 L 278.0,881.0 L 324.0,863.0 L 416.0,770.0"/>
    <path d="M 781.0,311.0 L 711.0,307.0 L 646.0,360.0 L 537.0,418.0 L 535.0,428.0"/>
    <path d="M 455.0,404.0 L 496.0,436.0 L 502.0,474.0 L 506.0,608.0 L 501.0,748.0 L 492.0,808.0 L 496.0,844.0 L 545.0,827.0 L 648.0,741.0"/>
    <path d="M 559.0,595.0 L 583.0,600.0 L 619.0,596.0 L 717.0,570.0 L 794.0,542.0 L 839.0,541.0"/>
    <path d="M 625.0,401.0 L 651.0,410.0 L 672.0,438.0 L 679.0,540.0 L 700.0,646.0 L 749.0,774.0 L 814.0,873.0 L 886.0,934.0 L 922.0,940.0 L 927.0,932.0 L 942.0,798.0"/>
    <path d="M 601.0,838.0 L 675.0,886.0 L 687.0,910.0"/>
  </g>
</svg>
