<svg xmlns="http://www.w3.org/2000/svg" viewBox="0 0 1024 1024">
  <g style="fill:none;stroke:#000000;stroke-width:50;stroke-linecap:round;stroke-linejoin:round;" transform="scale(1, 1) translate(0, 0)">
    <path d="M 234.0,233.0 L 328.0,291.0 L 360.0,332.0"/>
    <path d="M 62.0,584.0 L 110.0,587.0 L 176.0,562.0 L 237.0,529.0 L 288.0,523.0 L 297.0,537.0 L 265.0,849.0 L 276.0,885.0 L 323.0,866.0 L 408.0,789.0"/>
    <path d="M 519.0,347.0 L 539.0,359.0 L 583.0,357.0 L 664.0,344.0 L 791.0,313.0 L 831.0,311.0 L 843.0,320.0"/>
    <path d="M 569.0,497.0 L 627.0,502.0 L 707.0,488.0 L 769.0,469.0 L 829.0,467.0"/>
    <path d="M 580.0,641.0 L 654.0,633.0 L 753.0,609.0 L 786.0,607.0 L 807.0,613.0"/>
    <path d="M 665.0,518.0 L 690.0,538.0 L 692.0,562.0 L 689.0,716.0 L 674.0,739.0"/>
    <path d="M 546.0,780.0 L 568.0,784.0 L 804.0,744.0 L 827.0,743.0 L 878.0,754.0"/>
    <path d="M 457.0,323.0 L 486.0,356.0 L 493.0,376.0 L 486.0,722.0 L 469.0,934.0 L 498.0,937.0 L 640.0,909.0 L 821.0,893.0 L 882.0,893.0 L 915.0,906.0"/>
  </g>
</svg>
