<svg xmlns="http://www.w3.org/2000/svg" viewBox="0 0 1024 1024">
  <g style="fill:none;stroke:#000000;stroke-width:50;stroke-linecap:round;stroke-linejoin:round;" transform="scale(1, 1) translate(0, 0)">
    <path d="M 274.0,249.0 L 378.0,314.0 L 404.0,352.0"/>
    <path d="M 66.0,591.0 L 121.0,594.0 L 263.0,530.0 L 301.0,531.0 L 310.0,546.0 L 277.0,862.0 L 280.0,889.0 L 288.0,901.0 L 334.0,883.0 L 432.0,793.0"/>
    <path d="M 622.0,247.0 L 653.0,283.0 L 648.0,300.0 L 590.0,420.0 L 512.0,540.0 L 488.0,602.0 L 537.0,603.0 L 660.0,571.0 L 791.0,546.0 L 803.0,557.0"/>
    <path d="M 739.0,446.0 L 845.0,536.0 L 864.0,562.0 L 879.0,600.0"/>
    <path d="M 468.0,741.0 L 497.0,766.0 L 504.0,784.0 L 544.0,992.0"/>
    <path d="M 533.0,771.0 L 550.0,754.0 L 644.0,738.0 L 733.0,714.0 L 758.0,716.0 L 793.0,748.0 L 765.0,857.0 L 741.0,871.0"/>
    <path d="M 562.0,924.0 L 574.0,934.0 L 740.0,906.0 L 786.0,905.0 L 809.0,914.0"/>
  </g>
</svg>
