<svg xmlns="http://www.w3.org/2000/svg" viewBox="0 0 1024 1024">
  <g style="fill:none;stroke:#000000;stroke-width:50;stroke-linecap:round;stroke-linejoin:round;" transform="scale(1, 1) translate(0, 0)">
    <path d="M 250.0,261.0 L 344.0,319.0 L 376.0,360.0"/>
    <path d="M 63.0,584.0 L 118.0,585.0 L 250.0,530.0 L 285.0,530.0 L 295.0,539.0 L 267.0,812.0 L 265.0,843.0 L 273.0,876.0 L 318.0,860.0 L 420.0,762.0"/>
    <path d="M 430.0,500.0 L 505.0,507.0 L 676.0,477.0 L 819.0,438.0 L 875.0,440.0"/>
    <path d="M 600.0,211.0 L 649.0,253.0 L 638.0,612.0 L 620.0,637.0"/>
    <path d="M 483.0,670.0 L 522.0,679.0 L 736.0,642.0 L 799.0,647.0"/>
    <path d="M 468.0,781.0 L 492.0,801.0 L 504.0,823.0 L 544.0,1020.0"/>
    <path d="M 523.0,783.0 L 546.0,794.0 L 732.0,756.0 L 762.0,763.0 L 792.0,792.0 L 763.0,887.0 L 735.0,909.0"/>
    <path d="M 560.0,948.0 L 573.0,959.0 L 724.0,937.0 L 782.0,936.0 L 806.0,945.0"/>
  </g>
</svg>
