<svg xmlns="http://www.w3.org/2000/svg" viewBox="0 0 1024 1024">
  <g style="fill:none;stroke:#000000;stroke-width:50;stroke-linecap:round;stroke-linejoin:round;" transform="scale(1, 1) translate(0, 0)">
    <path d="M 230.0,249.0 L 319.0,309.0 L 342.0,346.0"/>
    <path d="M 87.0,566.0 L 135.0,567.0 L 211.0,526.0 L 259.0,519.0 L 266.0,526.0 L 266.0,551.0 L 242.0,842.0 L 251.0,878.0 L 290.0,866.0 L 372.0,793.0"/>
    <path d="M 829.0,354.0 L 812.0,350.0 L 761.0,355.0 L 697.0,410.0 L 604.0,467.0 L 583.0,470.0 L 578.0,481.0"/>
    <path d="M 696.0,441.0 L 715.0,453.0 L 726.0,475.0 L 724.0,728.0 L 708.0,742.0"/>
    <path d="M 753.0,612.0 L 764.0,601.0 L 793.0,592.0 L 868.0,576.0 L 890.0,578.0"/>
    <path d="M 578.0,601.0 L 599.0,617.0 L 615.0,644.0 L 605.0,754.0 L 610.0,781.0 L 649.0,783.0 L 858.0,749.0 L 913.0,762.0"/>
    <path d="M 381.0,469.0 L 462.0,442.0 L 480.0,442.0 L 496.0,453.0 L 470.0,539.0 L 436.0,618.0 L 444.0,627.0 L 479.0,632.0 L 512.0,648.0 L 485.0,753.0 L 456.0,819.0 L 421.0,882.0 L 368.0,946.0 L 332.0,977.0"/>
    <path d="M 357.0,733.0 L 424.0,745.0 L 496.0,791.0 L 502.0,801.0 L 598.0,869.0 L 751.0,957.0 L 809.0,973.0 L 976.0,970.0"/>
  </g>
</svg>
