<svg xmlns="http://www.w3.org/2000/svg" viewBox="0 0 1024 1024">
  <g style="fill:none;stroke:#000000;stroke-width:50;stroke-linecap:round;stroke-linejoin:round;" transform="scale(1, 1) translate(0, 0)">
    <path d="M 263.0,246.0 L 355.0,301.0 L 385.0,344.0"/>
    <path d="M 76.0,531.0 L 123.0,537.0 L 263.0,483.0 L 299.0,483.0 L 309.0,500.0 L 286.0,843.0 L 297.0,877.0 L 342.0,859.0 L 432.0,770.0"/>
    <path d="M 594.0,189.0 L 610.0,201.0 L 629.0,232.0 L 611.0,281.0 L 523.0,437.0 L 482.0,495.0 L 443.0,537.0"/>
    <path d="M 536.0,460.0 L 795.0,420.0 L 829.0,428.0 L 856.0,456.0 L 843.0,775.0 L 828.0,865.0 L 804.0,940.0 L 775.0,991.0 L 747.0,1013.0 L 707.0,989.0 L 649.0,937.0"/>
    <path d="M 467.0,576.0 L 483.0,590.0 L 495.0,616.0 L 497.0,680.0 L 486.0,785.0 L 488.0,838.0"/>
    <path d="M 507.0,580.0 L 515.0,588.0 L 537.0,589.0 L 652.0,561.0 L 667.0,566.0 L 690.0,586.0 L 691.0,797.0 L 680.0,824.0 L 639.0,809.0 L 635.0,796.0"/>
    <path d="M 523.0,709.0 L 530.0,698.0 L 569.0,690.0 L 604.0,687.0 L 624.0,692.0"/>
    <path d="M 514.0,812.0 L 524.0,801.0 L 612.0,794.0 L 621.0,781.0"/>
  </g>
</svg>
