<svg xmlns="http://www.w3.org/2000/svg" viewBox="0 0 1024 1024">
  <g style="fill:none;stroke:#000000;stroke-width:50;stroke-linecap:round;stroke-linejoin:round;" transform="scale(1, 1) translate(0, 0)">
    <path d="M 272.0,232.0 L 351.0,284.0 L 374.0,312.0"/>
    <path d="M 67.0,544.0 L 89.0,549.0 L 123.0,546.0 L 254.0,493.0 L 290.0,495.0 L 299.0,509.0 L 262.0,781.0 L 259.0,822.0 L 266.0,847.0 L 301.0,838.0 L 384.0,762.0"/>
    <path d="M 443.0,512.0 L 466.0,517.0 L 515.0,513.0 L 710.0,455.0 L 766.0,451.0"/>
    <path d="M 384.0,721.0 L 432.0,720.0 L 600.0,677.0 L 633.0,681.0"/>
    <path d="M 424.0,615.0 L 443.0,630.0 L 453.0,647.0 L 446.0,774.0 L 413.0,878.0 L 378.0,932.0"/>
    <path d="M 536.0,582.0 L 556.0,607.0 L 562.0,649.0 L 553.0,872.0 L 557.0,903.0"/>
    <path d="M 566.0,208.0 L 604.0,226.0 L 632.0,253.0 L 641.0,403.0 L 677.0,612.0 L 721.0,764.0 L 769.0,861.0 L 813.0,923.0 L 843.0,953.0 L 866.0,970.0 L 905.0,979.0 L 928.0,920.0 L 947.0,832.0"/>
    <path d="M 776.0,563.0 L 795.0,581.0 L 806.0,603.0 L 771.0,702.0 L 701.0,818.0 L 617.0,901.0"/>
    <path d="M 745.0,259.0 L 823.0,308.0 L 845.0,342.0"/>
  </g>
</svg>
