<svg xmlns="http://www.w3.org/2000/svg" viewBox="0 0 1024 1024">
  <g style="fill:none;stroke:#000000;stroke-width:50;stroke-linecap:round;stroke-linejoin:round;" transform="scale(1, 1) translate(0, 0)">
    <path d="M 245.0,233.0 L 335.0,291.0 L 354.0,310.0 L 374.0,348.0"/>
    <path d="M 67.0,563.0 L 109.0,569.0 L 172.0,551.0 L 265.0,509.0 L 285.0,506.0 L 302.0,510.0 L 311.0,519.0 L 280.0,801.0 L 278.0,833.0 L 287.0,867.0 L 333.0,849.0 L 440.0,746.0"/>
    <path d="M 630.0,211.0 L 672.0,248.0 L 665.0,452.0 L 660.0,476.0 L 646.0,493.0"/>
    <path d="M 491.0,338.0 L 550.0,394.0 L 560.0,415.0"/>
    <path d="M 812.0,254.0 L 830.0,273.0 L 836.0,292.0 L 735.0,403.0"/>
    <path d="M 527.0,505.0 L 552.0,530.0 L 560.0,547.0 L 560.0,634.0 L 547.0,793.0 L 517.0,914.0 L 515.0,971.0"/>
    <path d="M 579.0,511.0 L 606.0,522.0 L 766.0,485.0 L 791.0,499.0 L 807.0,518.0 L 807.0,621.0 L 823.0,896.0 L 820.0,955.0 L 803.0,986.0 L 773.0,979.0 L 694.0,944.0"/>
    <path d="M 582.0,649.0 L 596.0,638.0 L 645.0,626.0 L 687.0,620.0 L 719.0,626.0"/>
    <path d="M 577.0,776.0 L 589.0,760.0 L 646.0,746.0 L 703.0,738.0 L 735.0,743.0"/>
  </g>
</svg>
