<svg xmlns="http://www.w3.org/2000/svg" viewBox="0 0 1024 1024">
  <g style="fill:none;stroke:#000000;stroke-width:50;stroke-linecap:round;stroke-linejoin:round;" transform="scale(1, 1) translate(0, 0)">
    <path d="M 235.0,249.0 L 329.0,302.0 L 353.0,336.0"/>
    <path d="M 46.0,580.0 L 87.0,586.0 L 149.0,568.0 L 241.0,528.0 L 279.0,529.0 L 288.0,544.0 L 256.0,843.0 L 264.0,881.0 L 304.0,870.0 L 404.0,786.0"/>
    <path d="M 491.0,313.0 L 536.0,321.0 L 575.0,319.0 L 763.0,280.0 L 808.0,282.0"/>
    <path d="M 581.0,346.0 L 615.0,373.0 L 571.0,608.0 L 552.0,632.0"/>
    <path d="M 474.0,486.0 L 518.0,489.0 L 708.0,450.0 L 735.0,455.0 L 762.0,481.0 L 731.0,586.0 L 703.0,612.0"/>
    <path d="M 361.0,672.0 L 417.0,679.0 L 511.0,661.0 L 844.0,621.0 L 878.0,622.0 L 931.0,636.0"/>
    <path d="M 463.0,760.0 L 495.0,790.0 L 532.0,1012.0"/>
    <path d="M 527.0,767.0 L 542.0,778.0 L 728.0,737.0 L 758.0,743.0 L 786.0,771.0 L 756.0,876.0 L 730.0,889.0"/>
    <path d="M 553.0,965.0 L 566.0,950.0 L 720.0,926.0 L 776.0,925.0 L 801.0,935.0"/>
  </g>
</svg>
