<svg xmlns="http://www.w3.org/2000/svg" viewBox="0 0 1024 1024">
  <g style="fill:none;stroke:#000000;stroke-width:50;stroke-linecap:round;stroke-linejoin:round;" transform="scale(1, 1) translate(0, 0)">
    <path d="M 257.0,241.0 L 350.0,300.0 L 376.0,343.0"/>
    <path d="M 71.0,560.0 L 108.0,566.0 L 142.0,559.0 L 234.0,517.0 L 270.0,517.0 L 278.0,527.0 L 245.0,839.0 L 255.0,872.0 L 289.0,861.0 L 384.0,770.0"/>
    <path d="M 490.0,358.0 L 546.0,364.0 L 629.0,351.0 L 723.0,327.0 L 783.0,325.0"/>
    <path d="M 597.0,222.0 L 634.0,257.0 L 630.0,441.0 L 615.0,462.0"/>
    <path d="M 419.0,512.0 L 467.0,519.0 L 666.0,472.0 L 753.0,457.0 L 791.0,457.0 L 821.0,470.0 L 836.0,490.0 L 773.0,570.0"/>
    <path d="M 485.0,599.0 L 522.0,623.0 L 539.0,642.0"/>
    <path d="M 461.0,683.0 L 499.0,710.0 L 519.0,733.0"/>
    <path d="M 407.0,817.0 L 454.0,825.0 L 616.0,798.0 L 785.0,761.0 L 823.0,758.0 L 862.0,764.0"/>
    <path d="M 590.0,560.0 L 633.0,589.0 L 639.0,613.0 L 629.0,750.0 L 604.0,847.0 L 579.0,890.0 L 521.0,946.0 L 460.0,982.0 L 380.0,1010.0"/>
    <path d="M 693.0,863.0 L 802.0,939.0 L 829.0,973.0 L 842.0,1005.0"/>
  </g>
</svg>
