<svg xmlns="http://www.w3.org/2000/svg" viewBox="0 0 1024 1024">
  <g style="fill:none;stroke:#000000;stroke-width:50;stroke-linecap:round;stroke-linejoin:round;" transform="scale(1, 1) translate(0, 0)">
    <path d="M 237.0,261.0 L 319.0,316.0 L 346.0,357.0"/>
    <path d="M 67.0,581.0 L 107.0,585.0 L 176.0,562.0 L 245.0,529.0 L 282.0,531.0 L 290.0,544.0 L 257.0,835.0 L 265.0,864.0 L 303.0,853.0 L 400.0,770.0"/>
    <path d="M 420.0,305.0 L 439.0,321.0 L 451.0,344.0 L 489.0,557.0"/>
    <path d="M 467.0,306.0 L 478.0,314.0 L 492.0,314.0 L 723.0,267.0 L 774.0,275.0 L 800.0,307.0 L 757.0,460.0 L 736.0,512.0 L 740.0,533.0"/>
    <path d="M 532.0,424.0 L 659.0,391.0 L 701.0,394.0"/>
    <path d="M 507.0,540.0 L 525.0,524.0 L 684.0,498.0 L 702.0,489.0"/>
    <path d="M 389.0,672.0 L 442.0,677.0 L 648.0,640.0 L 831.0,616.0 L 908.0,631.0"/>
    <path d="M 584.0,314.0 L 609.0,330.0 L 613.0,350.0 L 610.0,828.0 L 602.0,1014.0 L 606.0,1052.0"/>
    <path d="M 579.0,675.0 L 542.0,748.0 L 481.0,821.0 L 404.0,887.0 L 321.0,935.0"/>
    <path d="M 638.0,670.0 L 648.0,699.0 L 699.0,761.0 L 817.0,878.0 L 965.0,912.0"/>
  </g>
</svg>
