<svg xmlns="http://www.w3.org/2000/svg" viewBox="0 0 1024 1024">
  <g style="fill:none;stroke:#000000;stroke-width:50;stroke-linecap:round;stroke-linejoin:round;" transform="scale(1, 1) translate(0, 0)">
    <path d="M 193.0,263.0 L 274.0,315.0 L 303.0,355.0"/>
    <path d="M 50.0,553.0 L 100.0,556.0 L 205.0,506.0 L 238.0,506.0 L 246.0,514.0 L 225.0,766.0 L 225.0,795.0 L 234.0,821.0 L 264.0,809.0 L 289.0,788.0 L 352.0,718.0"/>
    <path d="M 368.0,347.0 L 425.0,349.0 L 598.0,302.0 L 656.0,297.0"/>
    <path d="M 384.0,371.0 L 416.0,394.0 L 421.0,435.0 L 417.0,777.0 L 400.0,790.0"/>
    <path d="M 555.0,341.0 L 575.0,360.0 L 578.0,404.0 L 578.0,1034.0"/>
    <path d="M 447.0,521.0 L 456.0,508.0 L 481.0,500.0 L 512.0,494.0 L 534.0,498.0"/>
    <path d="M 443.0,659.0 L 462.0,637.0 L 508.0,628.0 L 534.0,630.0"/>
    <path d="M 343.0,832.0 L 388.0,837.0 L 587.0,744.0 L 641.0,711.0"/>
    <path d="M 629.0,493.0 L 676.0,490.0 L 792.0,455.0 L 812.0,460.0 L 827.0,477.0 L 803.0,607.0 L 776.0,674.0 L 749.0,720.0 L 707.0,760.0 L 657.0,787.0 L 606.0,804.0"/>
    <path d="M 635.0,561.0 L 658.0,571.0 L 754.0,701.0 L 857.0,812.0 L 978.0,839.0"/>
  </g>
</svg>
