<svg xmlns="http://www.w3.org/2000/svg" viewBox="0 0 1024 1024">
  <g style="fill:none;stroke:#000000;stroke-width:50;stroke-linecap:round;stroke-linejoin:round;" transform="scale(1, 1) translate(0, 0)">
    <path d="M 261.0,243.0 L 351.0,300.0 L 379.0,339.0"/>
    <path d="M 63.0,561.0 L 97.0,566.0 L 135.0,556.0 L 241.0,509.0 L 279.0,509.0 L 288.0,517.0 L 264.0,811.0 L 272.0,844.0 L 316.0,825.0 L 404.0,734.0"/>
    <path d="M 452.0,451.0 L 508.0,455.0 L 651.0,420.0 L 699.0,421.0"/>
    <path d="M 549.0,214.0 L 593.0,250.0 L 583.0,537.0 L 578.0,551.0 L 566.0,561.0"/>
    <path d="M 348.0,616.0 L 399.0,620.0 L 556.0,584.0 L 827.0,539.0 L 878.0,541.0 L 915.0,550.0"/>
    <path d="M 757.0,295.0 L 782.0,328.0 L 789.0,350.0 L 714.0,508.0 L 660.0,597.0 L 575.0,711.0 L 468.0,834.0 L 395.0,905.0 L 319.0,970.0 L 299.0,980.0"/>
    <path d="M 501.0,720.0 L 520.0,740.0 L 529.0,774.0 L 527.0,874.0 L 514.0,956.0 L 516.0,1000.0"/>
    <path d="M 581.0,745.0 L 606.0,728.0 L 711.0,703.0 L 737.0,718.0 L 750.0,735.0 L 749.0,838.0 L 757.0,932.0 L 745.0,972.0 L 749.0,1027.0"/>
    <path d="M 554.0,858.0 L 565.0,848.0 L 617.0,836.0 L 658.0,832.0 L 679.0,837.0"/>
    <path d="M 541.0,970.0 L 555.0,959.0 L 597.0,952.0 L 699.0,945.0"/>
  </g>
</svg>
