<svg xmlns="http://www.w3.org/2000/svg" viewBox="0 0 1024 1024">
  <g style="fill:none;stroke:#000000;stroke-width:50;stroke-linecap:round;stroke-linejoin:round;" transform="scale(1, 1) translate(0, 0)">
    <path d="M 253.0,252.0 L 343.0,309.0 L 370.0,352.0"/>
    <path d="M 63.0,580.0 L 103.0,586.0 L 179.0,560.0 L 244.0,529.0 L 281.0,531.0 L 289.0,544.0 L 247.0,852.0 L 253.0,886.0 L 293.0,876.0 L 380.0,810.0"/>
    <path d="M 565.0,211.0 L 652.0,265.0 L 670.0,294.0"/>
    <path d="M 481.0,405.0 L 504.0,410.0 L 567.0,405.0 L 762.0,356.0 L 809.0,354.0"/>
    <path d="M 500.0,470.0 L 519.0,499.0 L 499.0,545.0 L 469.0,592.0 L 401.0,651.0"/>
    <path d="M 501.0,597.0 L 509.0,596.0 L 529.0,611.0 L 549.0,639.0"/>
    <path d="M 729.0,427.0 L 754.0,459.0 L 744.0,490.0 L 706.0,564.0 L 676.0,603.0 L 647.0,627.0"/>
    <path d="M 740.0,569.0 L 748.0,564.0 L 797.0,585.0 L 835.0,624.0"/>
    <path d="M 390.0,772.0 L 445.0,778.0 L 584.0,752.0 L 826.0,721.0 L 876.0,726.0 L 909.0,737.0"/>
    <path d="M 595.0,635.0 L 612.0,646.0 L 631.0,675.0 L 631.0,1086.0"/>
  </g>
</svg>
