<svg xmlns="http://www.w3.org/2000/svg" viewBox="0 0 1024 1024">
  <g style="fill:none;stroke:#000000;stroke-width:50;stroke-linecap:round;stroke-linejoin:round;" transform="scale(1, 1) translate(0, 0)">
    <path d="M 233.0,240.0 L 324.0,301.0 L 350.0,341.0"/>
    <path d="M 67.0,564.0 L 102.0,570.0 L 142.0,563.0 L 258.0,513.0 L 294.0,514.0 L 303.0,528.0 L 266.0,825.0 L 268.0,852.0 L 276.0,867.0 L 309.0,859.0 L 404.0,778.0"/>
    <path d="M 459.0,370.0 L 518.0,421.0 L 531.0,446.0"/>
    <path d="M 820.0,283.0 L 835.0,305.0 L 838.0,326.0 L 718.0,412.0"/>
    <path d="M 605.0,211.0 L 653.0,253.0 L 647.0,363.0 L 626.0,478.0 L 602.0,524.0 L 563.0,568.0 L 529.0,590.0 L 453.0,615.0"/>
    <path d="M 657.0,472.0 L 682.0,475.0 L 747.0,511.0 L 783.0,557.0"/>
    <path d="M 440.0,703.0 L 491.0,746.0 L 507.0,774.0"/>
    <path d="M 804.0,615.0 L 819.0,637.0 L 822.0,658.0 L 702.0,744.0"/>
    <path d="M 596.0,617.0 L 630.0,654.0 L 627.0,700.0 L 612.0,780.0 L 580.0,854.0 L 527.0,919.0 L 485.0,949.0 L 433.0,976.0 L 380.0,990.0"/>
    <path d="M 644.0,774.0 L 649.0,792.0 L 675.0,825.0 L 815.0,966.0 L 843.0,978.0 L 965.0,999.0"/>
  </g>
</svg>
