<svg xmlns="http://www.w3.org/2000/svg" viewBox="0 0 1024 1024">
  <g style="fill:none;stroke:#000000;stroke-width:50;stroke-linecap:round;stroke-linejoin:round;" transform="scale(1, 1) translate(0, 0)">
    <path d="M 277.0,255.0 L 374.0,312.0 L 401.0,350.0"/>
    <path d="M 81.0,592.0 L 130.0,594.0 L 196.0,570.0 L 225.0,551.0 L 258.0,539.0 L 278.0,536.0 L 294.0,539.0 L 301.0,547.0 L 272.0,857.0 L 280.0,889.0 L 317.0,880.0 L 424.0,790.0"/>
    <path d="M 603.0,228.0 L 617.0,238.0 L 634.0,272.0 L 618.0,309.0 L 551.0,414.0 L 484.0,494.0 L 459.0,515.0"/>
    <path d="M 595.0,395.0 L 726.0,367.0 L 764.0,380.0 L 717.0,470.0 L 658.0,556.0"/>
    <path d="M 546.0,560.0 L 563.0,589.0 L 482.0,673.0"/>
    <path d="M 416.0,664.0 L 447.0,692.0 L 451.0,705.0 L 496.0,973.0"/>
    <path d="M 497.0,792.0 L 507.0,782.0 L 581.0,763.0 L 621.0,766.0"/>
    <path d="M 678.0,615.0 L 718.0,618.0 L 826.0,596.0 L 855.0,609.0 L 875.0,636.0 L 836.0,884.0 L 832.0,904.0 L 812.0,937.0 L 809.0,983.0"/>
    <path d="M 690.0,760.0 L 790.0,746.0 L 815.0,750.0 L 822.0,757.0"/>
    <path d="M 518.0,945.0 L 534.0,933.0 L 782.0,904.0"/>
  </g>
</svg>
