<svg xmlns="http://www.w3.org/2000/svg" viewBox="0 0 1024 1024">
  <g style="fill:none;stroke:#000000;stroke-width:50;stroke-linecap:round;stroke-linejoin:round;" transform="scale(1, 1) translate(0, 0)">
    <path d="M 242.0,243.0 L 332.0,290.0 L 367.0,330.0"/>
    <path d="M 50.0,552.0 L 76.0,556.0 L 113.0,550.0 L 244.0,487.0 L 280.0,486.0 L 290.0,495.0 L 264.0,830.0 L 273.0,874.0 L 315.0,857.0 L 424.0,742.0"/>
    <path d="M 577.0,213.0 L 650.0,265.0 L 670.0,290.0"/>
    <path d="M 455.0,379.0 L 466.0,423.0 L 437.0,501.0 L 435.0,530.0"/>
    <path d="M 492.0,407.0 L 506.0,414.0 L 527.0,414.0 L 650.0,381.0 L 786.0,357.0 L 828.0,372.0 L 840.0,390.0 L 788.0,468.0 L 779.0,472.0"/>
    <path d="M 508.0,559.0 L 525.0,575.0 L 537.0,600.0 L 540.0,658.0 L 541.0,911.0 L 526.0,927.0"/>
    <path d="M 551.0,565.0 L 573.0,574.0 L 673.0,547.0 L 709.0,543.0 L 725.0,548.0 L 748.0,577.0 L 741.0,667.0 L 741.0,882.0 L 720.0,896.0"/>
    <path d="M 566.0,711.0 L 591.0,695.0 L 627.0,684.0 L 673.0,685.0"/>
    <path d="M 563.0,824.0 L 572.0,822.0 L 578.0,812.0 L 627.0,802.0 L 649.0,800.0 L 672.0,807.0"/>
    <path d="M 390.0,963.0 L 441.0,972.0 L 818.0,925.0 L 864.0,927.0 L 919.0,943.0"/>
  </g>
</svg>
