<svg xmlns="http://www.w3.org/2000/svg" viewBox="0 0 1024 1024">
  <g style="fill:none;stroke:#000000;stroke-width:50;stroke-linecap:round;stroke-linejoin:round;" transform="scale(1, 1) translate(0, 0)">
    <path d="M 240.0,249.0 L 315.0,306.0 L 338.0,348.0"/>
    <path d="M 51.0,548.0 L 90.0,554.0 L 224.0,501.0 L 257.0,503.0 L 265.0,517.0 L 227.0,810.0 L 234.0,839.0 L 273.0,828.0 L 360.0,754.0"/>
    <path d="M 596.0,205.0 L 632.0,238.0 L 625.0,385.0 L 611.0,394.0"/>
    <path d="M 656.0,317.0 L 670.0,307.0 L 778.0,288.0 L 801.0,290.0"/>
    <path d="M 479.0,456.0 L 498.0,441.0 L 760.0,390.0 L 791.0,389.0 L 809.0,398.0 L 822.0,415.0 L 760.0,481.0"/>
    <path d="M 410.0,412.0 L 441.0,443.0 L 444.0,460.0 L 437.0,613.0 L 413.0,749.0 L 364.0,897.0 L 312.0,985.0 L 275.0,1031.0"/>
    <path d="M 512.0,560.0 L 553.0,558.0 L 685.0,520.0 L 727.0,522.0"/>
    <path d="M 587.0,455.0 L 608.0,480.0 L 606.0,591.0 L 616.0,615.0 L 633.0,628.0 L 667.0,637.0 L 710.0,636.0 L 744.0,628.0 L 764.0,616.0 L 774.0,601.0 L 777.0,535.0"/>
    <path d="M 561.0,726.0 L 569.0,734.0 L 585.0,736.0 L 724.0,713.0 L 779.0,714.0"/>
    <path d="M 411.0,853.0 L 437.0,860.0 L 461.0,858.0 L 586.0,837.0 L 835.0,813.0 L 897.0,829.0"/>
    <path d="M 503.0,711.0 L 525.0,729.0 L 537.0,753.0 L 525.0,961.0 L 547.0,962.0 L 659.0,940.0 L 739.0,934.0 L 786.0,938.0 L 825.0,955.0"/>
  </g>
</svg>
