<svg xmlns="http://www.w3.org/2000/svg" viewBox="0 0 1024 1024">
  <g style="fill:none;stroke:#000000;stroke-width:50;stroke-linecap:round;stroke-linejoin:round;" transform="scale(1, 1) translate(0, 0)">
    <path d="M 234.0,221.0 L 331.0,283.0 L 361.0,328.0"/>
    <path d="M 63.0,528.0 L 118.0,529.0 L 249.0,474.0 L 286.0,473.0 L 296.0,482.0 L 272.0,790.0 L 271.0,821.0 L 283.0,851.0 L 328.0,832.0 L 444.0,714.0"/>
    <path d="M 439.0,274.0 L 470.0,299.0 L 474.0,310.0 L 528.0,521.0"/>
    <path d="M 500.0,280.0 L 515.0,290.0 L 609.0,267.0 L 767.0,242.0 L 805.0,245.0 L 828.0,255.0 L 848.0,282.0 L 817.0,397.0 L 788.0,478.0 L 792.0,501.0"/>
    <path d="M 556.0,389.0 L 691.0,357.0 L 729.0,360.0"/>
    <path d="M 622.0,292.0 L 642.0,310.0 L 643.0,337.0 L 640.0,440.0 L 627.0,455.0"/>
    <path d="M 546.0,500.0 L 574.0,486.0 L 750.0,460.0"/>
    <path d="M 499.0,585.0 L 520.0,602.0 L 532.0,627.0 L 533.0,687.0 L 525.0,797.0 L 508.0,906.0 L 495.0,944.0 L 491.0,1007.0"/>
    <path d="M 554.0,597.0 L 569.0,603.0 L 594.0,601.0 L 650.0,585.0 L 747.0,569.0 L 786.0,596.0 L 782.0,667.0 L 796.0,895.0 L 791.0,972.0 L 782.0,995.0 L 763.0,1019.0 L 665.0,977.0"/>
    <path d="M 558.0,716.0 L 630.0,697.0 L 697.0,690.0"/>
    <path d="M 551.0,825.0 L 558.0,819.0 L 708.0,806.0"/>
  </g>
</svg>
