<svg xmlns="http://www.w3.org/2000/svg" viewBox="0 0 1024 1024">
  <g style="fill:none;stroke:#000000;stroke-width:50;stroke-linecap:round;stroke-linejoin:round;" transform="scale(1, 1) translate(0, 0)">
    <path d="M 246.0,249.0 L 336.0,310.0 L 358.0,345.0"/>
    <path d="M 71.0,561.0 L 121.0,563.0 L 234.0,513.0 L 270.0,515.0 L 278.0,523.0 L 245.0,794.0 L 243.0,835.0 L 251.0,860.0 L 285.0,849.0 L 380.0,758.0"/>
    <path d="M 570.0,213.0 L 593.0,235.0 L 604.0,257.0 L 568.0,334.0 L 522.0,413.0 L 456.0,506.0 L 386.0,589.0 L 347.0,622.0"/>
    <path d="M 622.0,307.0 L 627.0,323.0 L 642.0,340.0 L 693.0,386.0 L 808.0,470.0 L 894.0,491.0 L 961.0,497.0"/>
    <path d="M 511.0,507.0 L 551.0,510.0 L 641.0,487.0 L 689.0,484.0"/>
    <path d="M 413.0,622.0 L 429.0,638.0 L 434.0,704.0 L 420.0,857.0 L 401.0,935.0 L 398.0,972.0"/>
    <path d="M 456.0,641.0 L 463.0,632.0 L 508.0,620.0 L 528.0,608.0 L 551.0,611.0 L 569.0,629.0 L 576.0,929.0 L 570.0,959.0 L 556.0,979.0 L 510.0,963.0 L 495.0,951.0 L 477.0,951.0"/>
    <path d="M 452.0,735.0 L 472.0,721.0 L 518.0,719.0"/>
    <path d="M 445.0,832.0 L 453.0,820.0 L 480.0,813.0 L 522.0,815.0"/>
    <path d="M 647.0,637.0 L 667.0,666.0 L 665.0,834.0"/>
    <path d="M 742.0,535.0 L 767.0,550.0 L 787.0,575.0 L 785.0,794.0 L 795.0,975.0 L 779.0,1015.0 L 665.0,973.0"/>
  </g>
</svg>
