<svg xmlns="http://www.w3.org/2000/svg" viewBox="0 0 1024 1024">
  <g style="fill:none;stroke:#000000;stroke-width:50;stroke-linecap:round;stroke-linejoin:round;" transform="scale(1, 1) translate(0, 0)">
    <path d="M 238.0,253.0 L 327.0,313.0 L 350.0,350.0"/>
    <path d="M 55.0,552.0 L 77.0,557.0 L 111.0,554.0 L 243.0,501.0 L 278.0,502.0 L 287.0,516.0 L 254.0,783.0 L 252.0,830.0 L 258.0,857.0 L 286.0,848.0 L 311.0,828.0 L 376.0,758.0"/>
    <path d="M 581.0,204.0 L 596.0,225.0 L 598.0,249.0 L 543.0,322.0 L 499.0,366.0 L 454.0,400.0"/>
    <path d="M 576.0,325.0 L 594.0,315.0 L 667.0,301.0 L 699.0,314.0 L 685.0,345.0 L 624.0,422.0 L 606.0,433.0"/>
    <path d="M 424.0,462.0 L 444.0,477.0 L 459.0,503.0 L 488.0,622.0"/>
    <path d="M 470.0,460.0 L 488.0,470.0 L 508.0,469.0 L 754.0,424.0 L 772.0,432.0 L 793.0,459.0 L 764.0,525.0 L 745.0,536.0"/>
    <path d="M 504.0,602.0 L 530.0,590.0 L 724.0,562.0 L 770.0,564.0 L 789.0,571.0"/>
    <path d="M 572.0,474.0 L 601.0,499.0 L 575.0,605.0 L 544.0,676.0 L 504.0,734.0 L 461.0,773.0 L 397.0,814.0 L 365.0,826.0"/>
    <path d="M 638.0,597.0 L 671.0,626.0 L 662.0,687.0 L 664.0,725.0 L 672.0,753.0 L 696.0,777.0 L 790.0,788.0 L 853.0,783.0 L 907.0,770.0 L 918.0,755.0 L 910.0,724.0 L 891.0,732.0 L 884.0,768.0 L 881.0,738.0 L 890.0,732.0"/>
    <path d="M 560.0,791.0 L 624.0,830.0 L 647.0,853.0"/>
    <path d="M 534.0,915.0 L 655.0,1000.0 L 677.0,1027.0 L 690.0,1060.0"/>
  </g>
</svg>
