<svg xmlns="http://www.w3.org/2000/svg" viewBox="0 0 1024 1024">
  <g style="fill:none;stroke:#000000;stroke-width:50;stroke-linecap:round;stroke-linejoin:round;" transform="scale(1, 1) translate(0, 0)">
    <path d="M 229.0,235.0 L 319.0,294.0 L 347.0,335.0"/>
    <path d="M 63.0,556.0 L 102.0,562.0 L 236.0,509.0 L 269.0,511.0 L 277.0,520.0 L 236.0,832.0 L 242.0,875.0 L 264.0,871.0 L 292.0,856.0 L 392.0,770.0"/>
    <path d="M 743.0,245.0 L 682.0,234.0 L 615.0,279.0 L 524.0,322.0 L 485.0,334.0"/>
    <path d="M 435.0,373.0 L 496.0,421.0 L 508.0,448.0"/>
    <path d="M 556.0,345.0 L 593.0,380.0 L 608.0,409.0"/>
    <path d="M 760.0,307.0 L 777.0,339.0 L 715.0,395.0 L 683.0,413.0 L 676.0,425.0"/>
    <path d="M 457.0,521.0 L 508.0,526.0 L 578.0,515.0 L 693.0,485.0 L 746.0,483.0"/>
    <path d="M 384.0,665.0 L 418.0,670.0 L 748.0,607.0 L 789.0,606.0 L 829.0,616.0"/>
    <path d="M 540.0,542.0 L 562.0,562.0 L 569.0,580.0 L 527.0,710.0 L 486.0,801.0 L 441.0,873.0 L 404.0,918.0 L 342.0,978.0 L 324.0,988.0"/>
    <path d="M 549.0,733.0 L 693.0,697.0 L 713.0,706.0 L 725.0,725.0 L 697.0,823.0 L 670.0,873.0 L 630.0,922.0 L 557.0,966.0 L 429.0,999.0"/>
    <path d="M 517.0,800.0 L 533.0,800.0 L 552.0,814.0 L 655.0,919.0 L 762.0,999.0 L 832.0,1014.0 L 939.0,1026.0"/>
  </g>
</svg>
