<svg xmlns="http://www.w3.org/2000/svg" viewBox="0 0 1024 1024">
  <g style="fill:none;stroke:#000000;stroke-width:50;stroke-linecap:round;stroke-linejoin:round;" transform="scale(1, 1) translate(0, 0)">
    <path d="M 228.0,228.0 L 320.0,291.0 L 346.0,334.0"/>
    <path d="M 35.0,549.0 L 83.0,553.0 L 210.0,501.0 L 247.0,502.0 L 255.0,516.0 L 226.0,796.0 L 225.0,825.0 L 233.0,854.0 L 266.0,844.0 L 344.0,770.0"/>
    <path d="M 512.0,395.0 L 573.0,446.0 L 587.0,482.0"/>
    <path d="M 794.0,323.0 L 816.0,356.0 L 747.0,437.0 L 718.0,462.0"/>
    <path d="M 512.0,577.0 L 585.0,577.0 L 682.0,555.0 L 786.0,520.0 L 825.0,519.0"/>
    <path d="M 618.0,222.0 L 637.0,232.0 L 669.0,268.0 L 654.0,640.0 L 656.0,756.0 L 651.0,809.0 L 657.0,855.0"/>
    <path d="M 637.0,590.0 L 565.0,698.0 L 513.0,750.0 L 477.0,774.0"/>
    <path d="M 677.0,635.0 L 808.0,706.0 L 827.0,721.0 L 850.0,758.0"/>
    <path d="M 378.0,406.0 L 429.0,451.0 L 441.0,476.0"/>
    <path d="M 310.0,599.0 L 351.0,599.0 L 401.0,581.0 L 427.0,583.0 L 441.0,594.0 L 440.0,625.0 L 414.0,669.0 L 403.0,702.0 L 407.0,730.0 L 443.0,824.0 L 435.0,840.0"/>
    <path d="M 340.0,851.0 L 359.0,861.0 L 432.0,860.0 L 467.0,868.0 L 651.0,934.0 L 745.0,961.0 L 782.0,959.0 L 930.0,927.0"/>
  </g>
</svg>
