<svg xmlns="http://www.w3.org/2000/svg" viewBox="0 0 1024 1024">
  <g style="fill:none;stroke:#000000;stroke-width:50;stroke-linecap:round;stroke-linejoin:round;" transform="scale(1, 1) translate(0, 0)">
    <path d="M 249.0,239.0 L 342.0,297.0 L 370.0,334.0"/>
    <path d="M 80.0,589.0 L 127.0,590.0 L 189.0,568.0 L 257.0,534.0 L 278.0,531.0 L 301.0,542.0 L 272.0,820.0 L 270.0,852.0 L 278.0,883.0 L 324.0,863.0 L 416.0,770.0"/>
    <path d="M 559.0,212.0 L 633.0,258.0 L 651.0,282.0"/>
    <path d="M 484.0,394.0 L 510.0,399.0 L 551.0,396.0 L 776.0,336.0 L 807.0,338.0"/>
    <path d="M 505.0,469.0 L 546.0,514.0 L 559.0,544.0"/>
    <path d="M 690.0,390.0 L 716.0,406.0 L 721.0,420.0 L 681.0,530.0 L 656.0,564.0"/>
    <path d="M 389.0,624.0 L 441.0,629.0 L 598.0,597.0 L 834.0,561.0 L 879.0,565.0 L 913.0,576.0"/>
    <path d="M 481.0,700.0 L 505.0,718.0 L 515.0,749.0 L 515.0,814.0 L 497.0,942.0 L 495.0,1005.0"/>
    <path d="M 538.0,714.0 L 559.0,718.0 L 717.0,675.0 L 729.0,678.0 L 753.0,699.0 L 758.0,708.0 L 765.0,931.0 L 753.0,980.0 L 757.0,1035.0"/>
    <path d="M 537.0,845.0 L 550.0,833.0 L 619.0,816.0 L 658.0,812.0 L 680.0,817.0"/>
    <path d="M 522.0,981.0 L 537.0,971.0 L 649.0,951.0 L 706.0,952.0"/>
  </g>
</svg>
