<svg xmlns="http://www.w3.org/2000/svg" viewBox="0 0 1024 1024">
  <g style="fill:none;stroke:#000000;stroke-width:50;stroke-linecap:round;stroke-linejoin:round;" transform="scale(1, 1) translate(0, 0)">
    <path d="M 212.0,288.0 L 297.0,347.0 L 318.0,384.0"/>
    <path d="M 57.0,588.0 L 97.0,593.0 L 216.0,542.0 L 236.0,540.0 L 259.0,550.0 L 232.0,839.0 L 243.0,873.0 L 288.0,853.0 L 380.0,762.0"/>
    <path d="M 387.0,372.0 L 444.0,376.0 L 769.0,322.0 L 822.0,322.0 L 857.0,334.0"/>
    <path d="M 481.0,262.0 L 517.0,287.0 L 544.0,442.0"/>
    <path d="M 672.0,196.0 L 687.0,203.0 L 708.0,234.0 L 678.0,357.0 L 655.0,424.0"/>
    <path d="M 435.0,497.0 L 463.0,519.0 L 470.0,536.0 L 508.0,701.0"/>
    <path d="M 494.0,520.0 L 511.0,506.0 L 675.0,471.0 L 710.0,469.0 L 734.0,476.0 L 754.0,501.0 L 719.0,641.0 L 707.0,667.0 L 711.0,686.0"/>
    <path d="M 514.0,597.0 L 521.0,589.0 L 598.0,573.0 L 643.0,567.0 L 664.0,572.0"/>
    <path d="M 526.0,683.0 L 535.0,673.0 L 548.0,675.0 L 680.0,649.0"/>
    <path d="M 384.0,804.0 L 436.0,811.0 L 652.0,776.0 L 814.0,758.0 L 887.0,774.0"/>
    <path d="M 561.0,691.0 L 598.0,717.0 L 584.0,815.0 L 551.0,885.0 L 514.0,932.0 L 480.0,958.0 L 422.0,987.0 L 362.0,1004.0"/>
    <path d="M 618.0,809.0 L 737.0,929.0 L 804.0,984.0 L 945.0,1008.0"/>
  </g>
</svg>
