<svg xmlns="http://www.w3.org/2000/svg" viewBox="0 0 1024 1024">
  <g style="fill:none;stroke:#000000;stroke-width:50;stroke-linecap:round;stroke-linejoin:round;" transform="scale(1, 1) translate(0, 0)">
    <path d="M 250.0,249.0 L 338.0,298.0 L 365.0,336.0"/>
    <path d="M 59.0,564.0 L 121.0,564.0 L 234.0,513.0 L 269.0,514.0 L 278.0,523.0 L 240.0,847.0 L 246.0,891.0 L 293.0,878.0 L 400.0,801.0"/>
    <path d="M 751.0,265.0 L 688.0,255.0 L 598.0,310.0 L 481.0,354.0"/>
    <path d="M 460.0,410.0 L 526.0,457.0 L 543.0,488.0"/>
    <path d="M 591.0,376.0 L 628.0,411.0 L 650.0,444.0"/>
    <path d="M 821.0,328.0 L 839.0,362.0 L 697.0,498.0"/>
    <path d="M 496.0,539.0 L 517.0,568.0 L 501.0,608.0 L 457.0,677.0 L 421.0,709.0"/>
    <path d="M 527.0,612.0 L 598.0,611.0 L 774.0,575.0 L 816.0,577.0"/>
    <path d="M 410.0,768.0 L 447.0,774.0 L 474.0,771.0 L 587.0,746.0 L 831.0,708.0 L 879.0,709.0 L 930.0,721.0"/>
    <path d="M 629.0,630.0 L 658.0,656.0 L 660.0,673.0 L 657.0,891.0 L 641.0,915.0"/>
    <path d="M 467.0,822.0 L 493.0,856.0 L 496.0,872.0 L 485.0,973.0 L 531.0,971.0 L 602.0,948.0 L 778.0,913.0 L 800.0,913.0 L 811.0,925.0"/>
    <path d="M 806.0,788.0 L 839.0,820.0 L 841.0,996.0"/>
  </g>
</svg>
