<svg xmlns="http://www.w3.org/2000/svg" viewBox="0 0 1024 1024">
  <g style="fill:none;stroke:#000000;stroke-width:50;stroke-linecap:round;stroke-linejoin:round;" transform="scale(1, 1) translate(0, 0)">
    <path d="M 230.0,261.0 L 324.0,319.0 L 356.0,360.0"/>
    <path d="M 63.0,576.0 L 98.0,582.0 L 136.0,575.0 L 238.0,529.0 L 275.0,529.0 L 284.0,538.0 L 256.0,843.0 L 264.0,878.0 L 301.0,867.0 L 396.0,778.0"/>
    <path d="M 448.0,303.0 L 470.0,322.0 L 481.0,343.0 L 524.0,546.0"/>
    <path d="M 504.0,303.0 L 510.0,313.0 L 519.0,315.0 L 533.0,308.0 L 745.0,272.0 L 792.0,282.0 L 812.0,305.0 L 777.0,455.0 L 759.0,503.0 L 735.0,506.0"/>
    <path d="M 555.0,425.0 L 667.0,395.0 L 709.0,397.0"/>
    <path d="M 608.0,316.0 L 630.0,330.0 L 634.0,351.0 L 633.0,462.0 L 618.0,485.0"/>
    <path d="M 541.0,528.0 L 561.0,516.0 L 727.0,488.0"/>
    <path d="M 494.0,580.0 L 508.0,608.0 L 479.0,648.0 L 418.0,702.0 L 386.0,717.0"/>
    <path d="M 712.0,573.0 L 808.0,629.0 L 840.0,669.0"/>
    <path d="M 560.0,640.0 L 579.0,668.0 L 557.0,714.0 L 514.0,779.0 L 432.0,866.0 L 390.0,898.0 L 361.0,909.0 L 360.0,916.0"/>
    <path d="M 576.0,727.0 L 682.0,695.0 L 700.0,695.0 L 721.0,713.0 L 724.0,721.0 L 711.0,772.0 L 678.0,850.0 L 630.0,911.0 L 578.0,948.0 L 517.0,971.0 L 417.0,991.0"/>
    <path d="M 547.0,774.0 L 557.0,791.0 L 683.0,904.0 L 784.0,973.0 L 828.0,989.0 L 950.0,1002.0"/>
  </g>
</svg>
