<svg xmlns="http://www.w3.org/2000/svg" viewBox="0 0 1024 1024">
  <g style="fill:none;stroke:#000000;stroke-width:50;stroke-linecap:round;stroke-linejoin:round;" transform="scale(1, 1) translate(0, 0)">
    <path d="M 233.0,264.0 L 312.0,312.0 L 332.0,334.0 L 345.0,360.0"/>
    <path d="M 67.0,577.0 L 117.0,579.0 L 230.0,529.0 L 266.0,530.0 L 275.0,538.0 L 245.0,844.0 L 253.0,873.0 L 298.0,855.0 L 388.0,766.0"/>
    <path d="M 517.0,220.0 L 539.0,239.0 L 551.0,261.0 L 530.0,311.0 L 479.0,408.0 L 428.0,487.0 L 354.0,571.0"/>
    <path d="M 493.0,433.0 L 505.0,506.0 L 484.0,757.0 L 487.0,805.0"/>
    <path d="M 648.0,223.0 L 718.0,280.0 L 739.0,320.0"/>
    <path d="M 564.0,437.0 L 621.0,442.0 L 699.0,427.0 L 779.0,403.0 L 831.0,403.0"/>
    <path d="M 587.0,569.0 L 647.0,560.0 L 755.0,530.0 L 796.0,533.0"/>
    <path d="M 579.0,657.0 L 649.0,649.0 L 768.0,623.0 L 805.0,628.0"/>
    <path d="M 657.0,458.0 L 686.0,481.0 L 688.0,506.0 L 685.0,703.0 L 669.0,727.0"/>
    <path d="M 515.0,766.0 L 556.0,771.0 L 807.0,732.0 L 864.0,734.0 L 893.0,744.0"/>
    <path d="M 427.0,858.0 L 410.0,915.0 L 365.0,1005.0"/>
    <path d="M 537.0,874.0 L 568.0,928.0 L 578.0,965.0"/>
    <path d="M 658.0,859.0 L 704.0,922.0 L 715.0,954.0"/>
    <path d="M 783.0,828.0 L 887.0,927.0 L 904.0,957.0 L 911.0,990.0"/>
  </g>
</svg>
