<svg xmlns="http://www.w3.org/2000/svg" viewBox="0 0 1024 1024">
  <g style="fill:none;stroke:#000000;stroke-width:50;stroke-linecap:round;stroke-linejoin:round;" transform="scale(1, 1) translate(0, 0)">
    <path d="M 229.0,227.0 L 309.0,276.0 L 338.0,314.0"/>
    <path d="M 68.0,537.0 L 115.0,540.0 L 227.0,490.0 L 262.0,490.0 L 270.0,504.0 L 238.0,796.0 L 247.0,826.0 L 280.0,816.0 L 360.0,742.0"/>
    <path d="M 473.0,299.0 L 525.0,338.0 L 543.0,364.0"/>
    <path d="M 383.0,394.0 L 417.0,435.0 L 419.0,492.0 L 412.0,722.0 L 384.0,955.0"/>
    <path d="M 646.0,337.0 L 663.0,341.0 L 715.0,336.0 L 820.0,312.0 L 844.0,327.0 L 858.0,345.0 L 854.0,399.0 L 863.0,822.0 L 860.0,940.0 L 851.0,970.0 L 839.0,984.0 L 809.0,977.0 L 731.0,943.0"/>
    <path d="M 517.0,481.0 L 545.0,486.0 L 593.0,483.0 L 695.0,460.0 L 736.0,459.0"/>
    <path d="M 475.0,570.0 L 500.0,597.0 L 529.0,716.0"/>
    <path d="M 504.0,566.0 L 527.0,575.0 L 692.0,548.0 L 737.0,552.0 L 758.0,578.0 L 718.0,693.0"/>
    <path d="M 555.0,618.0 L 579.0,645.0"/>
    <path d="M 698.0,606.0 L 684.0,604.0 L 645.0,645.0"/>
    <path d="M 539.0,709.0 L 657.0,685.0 L 690.0,684.0 L 698.0,692.0"/>
    <path d="M 597.0,417.0 L 612.0,429.0 L 624.0,450.0 L 628.0,505.0 L 624.0,767.0 L 611.0,864.0 L 617.0,920.0"/>
    <path d="M 602.0,715.0 L 591.0,743.0 L 568.0,770.0 L 526.0,811.0 L 467.0,850.0"/>
    <path d="M 674.0,752.0 L 739.0,791.0 L 757.0,825.0"/>
  </g>
</svg>
