<svg xmlns="http://www.w3.org/2000/svg" viewBox="0 0 1024 1024">
  <g style="fill:none;stroke:#000000;stroke-width:50;stroke-linecap:round;stroke-linejoin:round;" transform="scale(1, 1) translate(0, 0)">
    <path d="M 221.0,263.0 L 298.0,317.0 L 318.0,352.0"/>
    <path d="M 47.0,549.0 L 82.0,553.0 L 118.0,547.0 L 216.0,500.0 L 251.0,502.0 L 259.0,516.0 L 228.0,835.0 L 235.0,866.0 L 277.0,854.0 L 360.0,781.0"/>
    <path d="M 521.0,335.0 L 545.0,363.0 L 565.0,463.0"/>
    <path d="M 556.0,337.0 L 583.0,343.0 L 765.0,301.0 L 780.0,302.0 L 796.0,309.0 L 811.0,331.0 L 799.0,359.0 L 778.0,370.0"/>
    <path d="M 580.0,440.0 L 597.0,431.0 L 767.0,399.0 L 824.0,404.0"/>
    <path d="M 636.0,213.0 L 672.0,247.0 L 670.0,465.0 L 667.0,478.0 L 656.0,486.0"/>
    <path d="M 489.0,529.0 L 520.0,531.0 L 697.0,499.0 L 831.0,482.0 L 880.0,483.0 L 911.0,493.0"/>
    <path d="M 559.0,576.0 L 587.0,611.0 L 591.0,658.0 L 580.0,910.0"/>
    <path d="M 600.0,588.0 L 616.0,591.0 L 725.0,566.0 L 748.0,570.0 L 763.0,588.0 L 747.0,629.0 L 730.0,641.0"/>
    <path d="M 611.0,688.0 L 628.0,679.0 L 715.0,663.0 L 772.0,669.0"/>
    <path d="M 608.0,774.0 L 628.0,763.0 L 727.0,740.0 L 754.0,741.0 L 779.0,765.0 L 765.0,806.0 L 745.0,822.0"/>
    <path d="M 604.0,874.0 L 627.0,862.0 L 733.0,847.0 L 771.0,846.0 L 794.0,853.0"/>
    <path d="M 373.0,393.0 L 416.0,424.0 L 438.0,451.0"/>
    <path d="M 322.0,660.0 L 367.0,651.0 L 397.0,632.0 L 426.0,629.0 L 444.0,641.0 L 438.0,692.0 L 424.0,715.0 L 417.0,748.0 L 422.0,775.0 L 446.0,814.0 L 459.0,850.0 L 456.0,881.0 L 443.0,892.0"/>
    <path d="M 332.0,903.0 L 351.0,913.0 L 404.0,910.0 L 463.0,919.0 L 658.0,981.0 L 777.0,1007.0 L 952.0,971.0"/>
  </g>
</svg>
