<svg xmlns="http://www.w3.org/2000/svg" viewBox="0 0 1024 1024">
  <g style="fill:none;stroke:#000000;stroke-width:50;stroke-linecap:round;stroke-linejoin:round;" transform="scale(1, 1) translate(0, 0)">
    <path d="M 237.0,243.0 L 319.0,298.0 L 347.0,339.0"/>
    <path d="M 56.0,577.0 L 102.0,580.0 L 227.0,526.0 L 262.0,526.0 L 270.0,534.0 L 237.0,832.0 L 244.0,864.0 L 284.0,852.0 L 380.0,766.0"/>
    <path d="M 470.0,253.0 L 505.0,264.0 L 542.0,257.0 L 633.0,222.0 L 672.0,217.0 L 692.0,228.0 L 700.0,242.0 L 685.0,265.0 L 631.0,311.0 L 628.0,320.0 L 615.0,319.0"/>
    <path d="M 542.0,319.0 L 592.0,337.0 L 630.0,365.0"/>
    <path d="M 417.0,421.0 L 457.0,423.0 L 751.0,358.0 L 776.0,362.0 L 797.0,383.0 L 739.0,458.0"/>
    <path d="M 626.0,410.0 L 648.0,457.0 L 650.0,500.0 L 640.0,536.0 L 619.0,558.0 L 562.0,528.0"/>
    <path d="M 616.0,406.0 L 582.0,431.0 L 559.0,461.0 L 508.0,503.0 L 450.0,537.0 L 384.0,561.0"/>
    <path d="M 389.0,612.0 L 415.0,633.0 L 425.0,699.0 L 417.0,872.0 L 399.0,973.0 L 399.0,1009.0"/>
    <path d="M 449.0,626.0 L 463.0,638.0 L 477.0,638.0 L 517.0,626.0 L 753.0,584.0 L 785.0,593.0 L 798.0,607.0 L 805.0,618.0 L 810.0,916.0 L 806.0,967.0 L 795.0,995.0 L 762.0,993.0 L 690.0,975.0"/>
    <path d="M 534.0,671.0 L 544.0,696.0 L 488.0,752.0 L 462.0,769.0"/>
    <path d="M 644.0,660.0 L 711.0,693.0 L 732.0,720.0"/>
    <path d="M 499.0,787.0 L 523.0,807.0 L 549.0,923.0"/>
    <path d="M 552.0,807.0 L 570.0,796.0 L 653.0,774.0 L 671.0,779.0 L 683.0,791.0 L 683.0,809.0 L 670.0,840.0 L 647.0,857.0"/>
    <path d="M 564.0,903.0 L 579.0,893.0 L 636.0,879.0 L 696.0,880.0"/>
  </g>
</svg>
