<svg xmlns="http://www.w3.org/2000/svg" viewBox="0 0 1024 1024">
  <g style="fill:none;stroke:#000000;stroke-width:50;stroke-linecap:round;stroke-linejoin:round;" transform="scale(1, 1) translate(0, 0)">
    <path d="M 202.0,273.0 L 291.0,331.0 L 317.0,372.0"/>
    <path d="M 55.0,573.0 L 103.0,576.0 L 232.0,523.0 L 252.0,520.0 L 272.0,532.0 L 235.0,786.0 L 233.0,816.0 L 240.0,842.0 L 285.0,825.0 L 380.0,734.0"/>
    <path d="M 574.0,183.0 L 595.0,215.0 L 581.0,247.0 L 527.0,318.0 L 476.0,363.0"/>
    <path d="M 586.0,288.0 L 603.0,279.0 L 627.0,278.0 L 638.0,270.0 L 682.0,262.0 L 717.0,274.0 L 651.0,380.0 L 632.0,393.0"/>
    <path d="M 478.0,428.0 L 498.0,439.0 L 534.0,434.0 L 667.0,409.0 L 781.0,378.0 L 835.0,374.0"/>
    <path d="M 422.0,420.0 L 447.0,442.0 L 455.0,473.0 L 440.0,651.0 L 418.0,758.0 L 384.0,858.0 L 354.0,920.0 L 322.0,973.0 L 272.0,1035.0"/>
    <path d="M 568.0,471.0 L 582.0,495.0 L 570.0,521.0 L 539.0,567.0 L 512.0,590.0"/>
    <path d="M 713.0,458.0 L 784.0,502.0 L 805.0,534.0"/>
    <path d="M 633.0,536.0 L 677.0,567.0 L 693.0,588.0"/>
    <path d="M 480.0,661.0 L 525.0,666.0 L 631.0,645.0 L 831.0,619.0 L 898.0,631.0"/>
    <path d="M 548.0,731.0 L 589.0,736.0 L 698.0,711.0 L 747.0,709.0"/>
    <path d="M 544.0,815.0 L 587.0,818.0 L 712.0,790.0 L 749.0,790.0"/>
    <path d="M 504.0,892.0 L 532.0,913.0 L 539.0,930.0 L 572.0,1058.0"/>
    <path d="M 562.0,898.0 L 576.0,905.0 L 731.0,872.0 L 753.0,875.0 L 781.0,907.0 L 758.0,961.0 L 733.0,972.0"/>
    <path d="M 586.0,1012.0 L 597.0,1022.0 L 722.0,1004.0 L 785.0,1012.0"/>
  </g>
</svg>
