<svg xmlns="http://www.w3.org/2000/svg" viewBox="0 0 1024 1024">
  <g style="fill:none;stroke:#000000;stroke-width:50;stroke-linecap:round;stroke-linejoin:round;" transform="scale(1, 1) translate(0, 0)">
    <path d="M 232.0,347.0 L 263.0,370.0 L 272.0,392.0 L 323.0,605.0"/>
    <path d="M 292.0,350.0 L 313.0,361.0 L 611.0,307.0 L 698.0,301.0 L 718.0,307.0 L 749.0,341.0 L 717.0,464.0 L 691.0,537.0 L 696.0,560.0"/>
    <path d="M 362.0,456.0 L 414.0,452.0 L 608.0,412.0 L 642.0,418.0"/>
    <path d="M 376.0,239.0 L 416.0,280.0 L 418.0,290.0 L 433.0,498.0 L 433.0,522.0 L 422.0,533.0"/>
    <path d="M 547.0,185.0 L 575.0,211.0 L 584.0,229.0 L 551.0,496.0 L 534.0,513.0"/>
    <path d="M 343.0,558.0 L 353.0,567.0 L 364.0,567.0 L 636.0,524.0 L 652.0,516.0"/>
    <path d="M 299.0,658.0 L 340.0,666.0 L 593.0,619.0 L 639.0,613.0 L 687.0,619.0"/>
    <path d="M 316.0,727.0 L 341.0,746.0 L 351.0,762.0 L 380.0,869.0"/>
    <path d="M 366.0,724.0 L 388.0,737.0 L 622.0,693.0 L 636.0,700.0 L 656.0,725.0 L 638.0,764.0 L 611.0,777.0"/>
    <path d="M 395.0,846.0 L 410.0,836.0 L 596.0,808.0 L 662.0,815.0"/>
    <path d="M 308.0,882.0 L 370.0,922.0 L 394.0,959.0"/>
    <path d="M 599.0,832.0 L 619.0,851.0 L 625.0,874.0 L 578.0,952.0 L 555.0,966.0"/>
    <path d="M 179.0,1014.0 L 233.0,1026.0 L 448.0,999.0 L 752.0,978.0 L 808.0,985.0 L 853.0,1000.0"/>
  </g>
</svg>
