<svg xmlns="http://www.w3.org/2000/svg" viewBox="0 0 1024 1024">
  <g style="fill:none;stroke:#000000;stroke-width:50;stroke-linecap:round;stroke-linejoin:round;" transform="scale(1, 1) translate(0, 0)">
    <path d="M 167.0,360.0 L 213.0,365.0 L 338.0,331.0 L 398.0,327.0"/>
    <path d="M 120.0,513.0 L 154.0,548.0 L 188.0,662.0"/>
    <path d="M 145.0,509.0 L 179.0,518.0 L 324.0,481.0 L 352.0,507.0 L 331.0,568.0 L 312.0,577.0"/>
    <path d="M 203.0,638.0 L 218.0,628.0 L 294.0,608.0 L 356.0,610.0"/>
    <path d="M 145.0,714.0 L 187.0,759.0 L 196.0,793.0"/>
    <path d="M 307.0,663.0 L 327.0,695.0 L 294.0,791.0 L 273.0,827.0"/>
    <path d="M 88.0,890.0 L 141.0,904.0 L 387.0,804.0"/>
    <path d="M 562.0,213.0 L 647.0,257.0 L 675.0,293.0"/>
    <path d="M 464.0,395.0 L 476.0,427.0 L 448.0,507.0 L 442.0,547.0"/>
    <path d="M 503.0,446.0 L 736.0,385.0 L 778.0,379.0 L 807.0,385.0 L 831.0,405.0 L 763.0,501.0"/>
    <path d="M 522.0,577.0 L 499.0,588.0 L 462.0,668.0 L 410.0,736.0 L 398.0,744.0"/>
    <path d="M 485.0,672.0 L 568.0,650.0 L 586.0,665.0 L 550.0,767.0 L 484.0,873.0 L 421.0,946.0 L 337.0,1008.0"/>
    <path d="M 427.0,737.0 L 451.0,750.0 L 478.0,787.0"/>
    <path d="M 700.0,621.0 L 717.0,599.0 L 789.0,575.0 L 815.0,580.0 L 829.0,596.0 L 817.0,699.0 L 801.0,748.0 L 787.0,759.0 L 725.0,727.0"/>
    <path d="M 646.0,581.0 L 666.0,604.0 L 672.0,637.0 L 657.0,782.0 L 658.0,874.0 L 671.0,929.0 L 690.0,951.0 L 741.0,975.0 L 795.0,982.0 L 860.0,978.0 L 916.0,956.0 L 937.0,937.0 L 944.0,788.0"/>
  </g>
</svg>
