<svg xmlns="http://www.w3.org/2000/svg" viewBox="0 0 1024 1024">
  <g style="fill:none;stroke:#000000;stroke-width:50;stroke-linecap:round;stroke-linejoin:round;" transform="scale(1, 1) translate(0, 0)">
    <path d="M 247.0,262.0 L 269.0,269.0 L 425.0,235.0 L 464.0,235.0"/>
    <path d="M 341.0,287.0 L 357.0,298.0 L 352.0,346.0 L 336.0,365.0"/>
    <path d="M 239.0,409.0 L 413.0,365.0 L 433.0,368.0 L 454.0,392.0 L 431.0,434.0 L 407.0,445.0"/>
    <path d="M 238.0,511.0 L 255.0,502.0 L 405.0,472.0 L 455.0,477.0"/>
    <path d="M 336.0,506.0 L 353.0,523.0 L 350.0,555.0 L 333.0,569.0"/>
    <path d="M 187.0,238.0 L 212.0,266.0 L 217.0,283.0 L 216.0,408.0 L 201.0,621.0 L 235.0,622.0 L 298.0,603.0 L 420.0,580.0 L 452.0,578.0 L 479.0,585.0"/>
    <path d="M 548.0,286.0 L 597.0,285.0 L 700.0,252.0 L 729.0,252.0 L 747.0,261.0 L 714.0,371.0 L 669.0,446.0 L 638.0,477.0 L 598.0,503.0 L 558.0,520.0 L 507.0,531.0"/>
    <path d="M 527.0,345.0 L 568.0,364.0 L 678.0,477.0 L 788.0,556.0 L 844.0,566.0 L 938.0,569.0"/>
    <path d="M 366.0,652.0 L 401.0,660.0 L 440.0,658.0 L 626.0,622.0 L 686.0,620.0"/>
    <path d="M 348.0,736.0 L 374.0,753.0 L 385.0,769.0 L 415.0,867.0"/>
    <path d="M 400.0,731.0 L 407.0,740.0 L 426.0,742.0 L 562.0,725.0 L 626.0,710.0 L 646.0,713.0 L 673.0,745.0 L 655.0,778.0 L 624.0,793.0"/>
    <path d="M 430.0,835.0 L 440.0,843.0 L 622.0,822.0 L 661.0,822.0 L 681.0,829.0"/>
    <path d="M 340.0,899.0 L 403.0,948.0 L 414.0,974.0"/>
    <path d="M 637.0,865.0 L 648.0,902.0 L 603.0,970.0 L 589.0,981.0"/>
    <path d="M 166.0,1031.0 L 218.0,1043.0 L 425.0,1020.0 L 835.0,996.0 L 890.0,1004.0 L 925.0,1018.0"/>
  </g>
</svg>
