<svg xmlns="http://www.w3.org/2000/svg" viewBox="0 0 1024 1024">
  <g style="fill:none;stroke:#000000;stroke-width:50;stroke-linecap:round;stroke-linejoin:round;" transform="scale(1, 1) translate(0, 0)">
    <path d="M 186.0,329.0 L 208.0,335.0 L 258.0,335.0 L 424.0,298.0 L 484.0,298.0"/>
    <path d="M 174.0,458.0 L 193.0,473.0 L 207.0,495.0 L 240.0,646.0"/>
    <path d="M 221.0,457.0 L 242.0,467.0 L 399.0,430.0 L 431.0,437.0 L 456.0,460.0 L 430.0,539.0 L 405.0,556.0"/>
    <path d="M 258.0,616.0 L 269.0,607.0 L 393.0,582.0 L 439.0,581.0 L 459.0,587.0"/>
    <path d="M 179.0,691.0 L 235.0,748.0 L 254.0,793.0"/>
    <path d="M 392.0,636.0 L 408.0,645.0 L 423.0,675.0 L 372.0,799.0 L 349.0,822.0"/>
    <path d="M 99.0,886.0 L 160.0,893.0 L 409.0,834.0 L 457.0,829.0 L 484.0,833.0"/>
    <path d="M 542.0,463.0 L 563.0,469.0 L 612.0,468.0 L 703.0,453.0 L 809.0,425.0 L 845.0,424.0 L 860.0,430.0"/>
    <path d="M 648.0,496.0 L 689.0,516.0 L 700.0,538.0 L 674.0,817.0 L 670.0,841.0 L 650.0,860.0"/>
    <path d="M 455.0,899.0 L 494.0,909.0 L 514.0,908.0 L 700.0,881.0 L 881.0,866.0 L 917.0,871.0 L 967.0,888.0"/>
  </g>
</svg>
