<svg xmlns="http://www.w3.org/2000/svg" viewBox="0 0 1024 1024">
  <g style="fill:none;stroke:#000000;stroke-width:50;stroke-linecap:round;stroke-linejoin:round;" transform="scale(1, 1) translate(0, 0)">
    <path d="M 321.0,199.0 L 381.0,228.0 L 398.0,240.0 L 416.0,265.0"/>
    <path d="M 200.0,369.0 L 221.0,374.0 L 270.0,370.0 L 416.0,331.0 L 476.0,323.0"/>
    <path d="M 250.0,429.0 L 274.0,463.0 L 282.0,486.0"/>
    <path d="M 399.0,363.0 L 422.0,382.0 L 421.0,387.0 L 392.0,466.0 L 370.0,493.0"/>
    <path d="M 130.0,556.0 L 174.0,560.0 L 423.0,502.0 L 472.0,506.0"/>
    <path d="M 294.0,580.0 L 271.0,584.0 L 216.0,649.0 L 143.0,702.0 L 110.0,719.0 L 95.0,719.0 L 91.0,726.0"/>
    <path d="M 243.0,656.0 L 255.0,653.0 L 274.0,665.0 L 310.0,693.0 L 337.0,726.0 L 361.0,774.0 L 369.0,848.0 L 355.0,937.0 L 341.0,971.0 L 323.0,992.0 L 301.0,988.0 L 231.0,954.0"/>
    <path d="M 261.0,682.0 L 266.0,708.0 L 225.0,751.0 L 144.0,808.0 L 122.0,819.0 L 107.0,819.0 L 104.0,826.0"/>
    <path d="M 316.0,734.0 L 313.0,774.0 L 243.0,851.0 L 169.0,908.0 L 113.0,934.0"/>
    <path d="M 422.0,574.0 L 435.0,602.0 L 338.0,687.0"/>
    <path d="M 404.0,718.0 L 459.0,760.0 L 479.0,797.0"/>
  </g>
</svg>
