<svg xmlns="http://www.w3.org/2000/svg" viewBox="0 0 1024 1024">
  <g style="fill:none;stroke:#000000;stroke-width:50;stroke-linecap:round;stroke-linejoin:round;" transform="scale(1, 1) translate(0, 0)">
    <path d="M 459.0,159.0 L 491.0,182.0 L 503.0,201.0 L 499.0,485.0 L 497.0,511.0 L 483.0,524.0"/>
    <path d="M 259.0,318.0 L 278.0,322.0 L 320.0,317.0 L 409.0,288.0 L 449.0,287.0"/>
    <path d="M 271.0,399.0 L 330.0,399.0 L 405.0,375.0 L 446.0,373.0"/>
    <path d="M 275.0,479.0 L 309.0,482.0 L 419.0,454.0 L 445.0,453.0"/>
    <path d="M 309.0,217.0 L 348.0,245.0 L 367.0,522.0 L 364.0,535.0 L 354.0,544.0"/>
    <path d="M 571.0,278.0 L 628.0,280.0 L 724.0,252.0 L 765.0,250.0"/>
    <path d="M 567.0,363.0 L 622.0,364.0 L 693.0,341.0 L 737.0,337.0"/>
    <path d="M 556.0,443.0 L 611.0,447.0 L 688.0,426.0 L 739.0,426.0"/>
    <path d="M 635.0,169.0 L 672.0,207.0 L 672.0,215.0 L 638.0,487.0 L 621.0,509.0"/>
    <path d="M 153.0,410.0 L 187.0,436.0 L 199.0,454.0 L 213.0,583.0 L 221.0,597.0 L 247.0,597.0 L 425.0,557.0 L 566.0,535.0 L 703.0,521.0 L 750.0,521.0 L 762.0,534.0"/>
    <path d="M 810.0,340.0 L 838.0,389.0 L 785.0,577.0"/>
    <path d="M 353.0,655.0 L 386.0,662.0 L 428.0,660.0 L 589.0,623.0 L 632.0,624.0"/>
    <path d="M 316.0,744.0 L 344.0,762.0 L 353.0,779.0 L 391.0,899.0"/>
    <path d="M 372.0,741.0 L 387.0,752.0 L 585.0,709.0 L 606.0,712.0 L 634.0,743.0 L 611.0,796.0 L 586.0,804.0"/>
    <path d="M 407.0,879.0 L 417.0,866.0 L 560.0,839.0 L 630.0,845.0"/>
    <path d="M 343.0,918.0 L 396.0,961.0 L 407.0,990.0"/>
    <path d="M 565.0,862.0 L 589.0,887.0 L 594.0,903.0 L 545.0,991.0 L 522.0,1005.0"/>
    <path d="M 155.0,1055.0 L 207.0,1066.0 L 485.0,1030.0 L 773.0,1009.0 L 808.0,1014.0 L 858.0,1032.0"/>
  </g>
</svg>
