<svg xmlns="http://www.w3.org/2000/svg" viewBox="0 0 1024 1024">
  <g style="fill:none;stroke:#000000;stroke-width:50;stroke-linecap:round;stroke-linejoin:round;" transform="scale(1, 1) translate(0, 0)">
    <path d="M 478.0,192.0 L 512.0,226.0 L 506.0,331.0 L 490.0,342.0"/>
    <path d="M 541.0,281.0 L 554.0,269.0 L 625.0,252.0 L 645.0,249.0 L 680.0,255.0"/>
    <path d="M 328.0,420.0 L 340.0,402.0 L 537.0,359.0 L 681.0,336.0 L 721.0,333.0 L 750.0,339.0 L 765.0,349.0 L 779.0,371.0 L 708.0,458.0"/>
    <path d="M 249.0,372.0 L 274.0,392.0 L 287.0,426.0 L 281.0,531.0 L 260.0,679.0 L 237.0,764.0 L 194.0,873.0 L 151.0,948.0 L 101.0,1009.0"/>
    <path d="M 379.0,485.0 L 421.0,488.0 L 595.0,443.0 L 642.0,444.0"/>
    <path d="M 481.0,400.0 L 501.0,426.0 L 501.0,526.0 L 510.0,541.0 L 530.0,551.0 L 596.0,558.0 L 647.0,549.0 L 670.0,537.0 L 682.0,521.0 L 681.0,455.0"/>
    <path d="M 353.0,652.0 L 383.0,658.0 L 422.0,655.0 L 516.0,641.0 L 648.0,611.0 L 692.0,612.0"/>
    <path d="M 501.0,674.0 L 496.0,689.0 L 410.0,751.0 L 361.0,776.0 L 336.0,784.0 L 328.0,781.0 L 325.0,787.0"/>
    <path d="M 497.0,716.0 L 518.0,717.0 L 541.0,732.0 L 574.0,756.0 L 598.0,785.0 L 623.0,844.0 L 624.0,898.0 L 610.0,973.0 L 594.0,1009.0 L 571.0,1033.0 L 463.0,990.0"/>
    <path d="M 549.0,763.0 L 517.0,766.0 L 474.0,805.0 L 413.0,846.0 L 362.0,873.0 L 321.0,886.0"/>
    <path d="M 572.0,789.0 L 569.0,827.0 L 491.0,904.0 L 400.0,968.0 L 311.0,1007.0"/>
    <path d="M 763.0,694.0 L 726.0,685.0 L 627.0,766.0 L 628.0,773.0"/>
    <path d="M 628.0,789.0 L 661.0,835.0 L 798.0,951.0 L 844.0,961.0 L 931.0,965.0"/>
  </g>
</svg>
