<svg xmlns="http://www.w3.org/2000/svg" viewBox="0 0 1024 1024">
  <g style="fill:none;stroke:#000000;stroke-width:50;stroke-linecap:round;stroke-linejoin:round;" transform="scale(1, 1) translate(0, 0)">
    <path d="M 468.0,265.0 L 519.0,304.0 L 521.0,322.0 L 519.0,800.0 L 514.0,830.0 L 500.0,842.0"/>
    <path d="M 255.0,427.0 L 314.0,427.0 L 411.0,397.0 L 445.0,399.0"/>
    <path d="M 321.0,452.0 L 334.0,466.0 L 306.0,509.0 L 266.0,555.0 L 255.0,559.0 L 252.0,569.0 L 220.0,588.0 L 208.0,603.0"/>
    <path d="M 305.0,540.0 L 326.0,542.0 L 345.0,557.0 L 376.0,597.0 L 396.0,662.0 L 397.0,697.0 L 392.0,757.0 L 368.0,799.0 L 304.0,770.0"/>
    <path d="M 318.0,560.0 L 322.0,583.0 L 308.0,602.0 L 262.0,651.0 L 240.0,663.0"/>
    <path d="M 359.0,608.0 L 352.0,654.0 L 333.0,681.0 L 278.0,734.0 L 245.0,754.0"/>
    <path d="M 422.0,491.0 L 439.0,515.0 L 394.0,574.0 L 397.0,582.0"/>
    <path d="M 405.0,620.0 L 457.0,648.0 L 472.0,675.0"/>
    <path d="M 591.0,395.0 L 646.0,398.0 L 748.0,372.0 L 783.0,373.0"/>
    <path d="M 689.0,438.0 L 665.0,441.0 L 621.0,498.0 L 565.0,538.0"/>
    <path d="M 633.0,512.0 L 654.0,521.0 L 695.0,578.0 L 708.0,618.0 L 715.0,688.0 L 709.0,743.0 L 687.0,775.0 L 622.0,742.0"/>
    <path d="M 640.0,532.0 L 641.0,559.0 L 632.0,572.0 L 603.0,603.0 L 560.0,631.0"/>
    <path d="M 676.0,584.0 L 672.0,622.0 L 654.0,648.0 L 611.0,699.0 L 558.0,741.0"/>
    <path d="M 759.0,491.0 L 775.0,514.0 L 717.0,585.0"/>
    <path d="M 729.0,614.0 L 792.0,658.0 L 810.0,688.0"/>
    <path d="M 149.0,639.0 L 184.0,680.0 L 190.0,708.0 L 192.0,773.0 L 178.0,887.0 L 180.0,913.0 L 206.0,916.0 L 391.0,881.0 L 575.0,858.0 L 783.0,848.0 L 797.0,845.0 L 807.0,835.0"/>
    <path d="M 836.0,554.0 L 875.0,603.0 L 834.0,932.0"/>
  </g>
</svg>
