<svg xmlns="http://www.w3.org/2000/svg" viewBox="0 0 1024 1024">
  <g style="fill:none;stroke:#000000;stroke-width:50;stroke-linecap:round;stroke-linejoin:round;" transform="scale(1, 1) translate(0, 0)">
    <path d="M 421.0,274.0 L 350.0,265.0 L 231.0,338.0 L 105.0,390.0"/>
    <path d="M 136.0,430.0 L 197.0,481.0 L 209.0,513.0"/>
    <path d="M 259.0,374.0 L 298.0,419.0 L 307.0,439.0"/>
    <path d="M 404.0,362.0 L 417.0,386.0 L 419.0,409.0 L 363.0,464.0 L 242.0,558.0 L 145.0,617.0 L 86.0,642.0"/>
    <path d="M 268.0,562.0 L 288.0,564.0 L 324.0,590.0 L 355.0,620.0 L 379.0,656.0 L 406.0,746.0 L 408.0,824.0 L 396.0,905.0 L 382.0,945.0 L 363.0,972.0 L 328.0,965.0 L 242.0,927.0"/>
    <path d="M 304.0,602.0 L 308.0,635.0 L 286.0,662.0 L 211.0,725.0 L 162.0,756.0 L 122.0,773.0"/>
    <path d="M 366.0,691.0 L 355.0,737.0 L 311.0,783.0 L 197.0,871.0 L 102.0,923.0"/>
    <path d="M 509.0,341.0 L 569.0,346.0 L 757.0,302.0 L 817.0,299.0"/>
    <path d="M 429.0,575.0 L 486.0,579.0 L 593.0,553.0 L 842.0,509.0 L 929.0,522.0"/>
    <path d="M 623.0,373.0 L 658.0,388.0 L 666.0,424.0 L 663.0,1060.0"/>
  </g>
</svg>
