<svg xmlns="http://www.w3.org/2000/svg" viewBox="0 0 1024 1024">
  <g style="fill:none;stroke:#000000;stroke-width:50;stroke-linecap:round;stroke-linejoin:round;" transform="scale(1, 1) translate(0, 0)">
    <path d="M 384.0,279.0 L 322.0,277.0 L 247.0,337.0 L 156.0,386.0 L 153.0,393.0 L 138.0,395.0 L 136.0,401.0"/>
    <path d="M 111.0,449.0 L 167.0,488.0 L 182.0,513.0"/>
    <path d="M 228.0,393.0 L 258.0,420.0 L 278.0,451.0"/>
    <path d="M 422.0,441.0 L 376.0,439.0 L 331.0,486.0 L 226.0,569.0 L 166.0,608.0 L 102.0,637.0"/>
    <path d="M 250.0,576.0 L 266.0,577.0 L 289.0,595.0 L 318.0,625.0 L 339.0,658.0 L 361.0,758.0 L 357.0,843.0 L 340.0,917.0 L 324.0,954.0 L 307.0,974.0 L 294.0,977.0 L 198.0,935.0"/>
    <path d="M 273.0,611.0 L 277.0,639.0 L 259.0,662.0 L 167.0,739.0 L 135.0,758.0 L 119.0,759.0 L 115.0,766.0"/>
    <path d="M 323.0,686.0 L 312.0,745.0 L 254.0,813.0 L 162.0,891.0 L 94.0,930.0"/>
    <path d="M 503.0,317.0 L 525.0,335.0 L 537.0,355.0 L 521.0,398.0 L 449.0,533.0 L 413.0,588.0 L 373.0,631.0"/>
    <path d="M 449.0,574.0 L 452.0,591.0 L 474.0,631.0 L 469.0,811.0 L 458.0,918.0 L 463.0,967.0"/>
    <path d="M 546.0,541.0 L 619.0,546.0 L 800.0,506.0 L 832.0,502.0 L 860.0,509.0"/>
    <path d="M 646.0,240.0 L 697.0,292.0 L 696.0,674.0 L 690.0,858.0 L 681.0,938.0 L 684.0,1025.0"/>
    <path d="M 670.0,566.0 L 641.0,664.0 L 594.0,737.0 L 517.0,822.0"/>
    <path d="M 721.0,603.0 L 734.0,635.0 L 761.0,675.0 L 821.0,748.0 L 872.0,797.0 L 975.0,822.0"/>
  </g>
</svg>
