<svg xmlns="http://www.w3.org/2000/svg" viewBox="0 0 1024 1024">
  <g style="fill:none;stroke:#000000;stroke-width:50;stroke-linecap:round;stroke-linejoin:round;" transform="scale(1, 1) translate(0, 0)">
    <path d="M 438.0,227.0 L 371.0,226.0 L 308.0,284.0 L 233.0,334.0 L 193.0,357.0 L 182.0,357.0 L 180.0,364.0"/>
    <path d="M 124.0,415.0 L 172.0,461.0 L 186.0,501.0"/>
    <path d="M 255.0,370.0 L 303.0,430.0"/>
    <path d="M 485.0,396.0 L 437.0,389.0 L 358.0,457.0 L 260.0,523.0 L 156.0,579.0 L 102.0,599.0"/>
    <path d="M 269.0,539.0 L 288.0,546.0 L 318.0,578.0 L 348.0,626.0 L 375.0,686.0 L 385.0,738.0 L 386.0,815.0 L 364.0,920.0 L 345.0,956.0 L 326.0,975.0 L 227.0,927.0"/>
    <path d="M 273.0,561.0 L 276.0,596.0 L 237.0,642.0 L 185.0,687.0 L 114.0,726.0"/>
    <path d="M 329.0,634.0 L 322.0,689.0 L 271.0,756.0 L 229.0,801.0 L 157.0,861.0 L 89.0,897.0"/>
    <path d="M 513.0,360.0 L 559.0,366.0 L 713.0,337.0 L 844.0,321.0 L 890.0,323.0 L 936.0,336.0"/>
    <path d="M 633.0,380.0 L 656.0,403.0 L 659.0,418.0 L 590.0,546.0 L 569.0,560.0"/>
    <path d="M 517.0,557.0 L 544.0,582.0 L 555.0,625.0 L 559.0,757.0 L 548.0,905.0 L 551.0,947.0"/>
    <path d="M 569.0,569.0 L 594.0,582.0 L 785.0,546.0 L 811.0,561.0 L 829.0,583.0 L 824.0,621.0 L 823.0,873.0 L 808.0,920.0 L 808.0,978.0"/>
    <path d="M 586.0,742.0 L 618.0,726.0 L 694.0,713.0 L 742.0,719.0"/>
    <path d="M 582.0,908.0 L 597.0,895.0 L 663.0,882.0 L 755.0,881.0"/>
  </g>
</svg>
