<svg xmlns="http://www.w3.org/2000/svg" viewBox="0 0 1024 1024">
  <g style="fill:none;stroke:#000000;stroke-width:50;stroke-linecap:round;stroke-linejoin:round;" transform="scale(1, 1) translate(0, 0)">
    <path d="M 391.0,259.0 L 323.0,259.0 L 267.0,304.0 L 166.0,364.0"/>
    <path d="M 95.0,419.0 L 143.0,466.0 L 154.0,502.0"/>
    <path d="M 223.0,374.0 L 262.0,416.0 L 274.0,440.0"/>
    <path d="M 437.0,410.0 L 391.0,405.0 L 300.0,485.0 L 199.0,555.0 L 70.0,620.0"/>
    <path d="M 223.0,566.0 L 235.0,564.0 L 253.0,573.0 L 296.0,617.0 L 338.0,690.0 L 354.0,769.0 L 349.0,848.0 L 326.0,933.0 L 289.0,981.0 L 175.0,931.0"/>
    <path d="M 242.0,594.0 L 245.0,624.0 L 221.0,650.0 L 165.0,696.0 L 88.0,737.0"/>
    <path d="M 298.0,664.0 L 294.0,712.0 L 227.0,789.0 L 143.0,858.0 L 81.0,890.0"/>
    <path d="M 574.0,222.0 L 606.0,258.0 L 605.0,277.0 L 566.0,356.0 L 523.0,425.0 L 457.0,514.0 L 422.0,546.0"/>
    <path d="M 567.0,405.0 L 595.0,392.0 L 694.0,374.0 L 735.0,378.0 L 745.0,386.0 L 729.0,426.0 L 675.0,514.0 L 604.0,610.0 L 471.0,741.0 L 384.0,802.0"/>
    <path d="M 511.0,482.0 L 529.0,478.0 L 549.0,491.0 L 686.0,615.0 L 817.0,706.0 L 886.0,712.0 L 972.0,708.0"/>
    <path d="M 442.0,793.0 L 459.0,797.0 L 473.0,813.0 L 505.0,1007.0"/>
    <path d="M 500.0,783.0 L 509.0,791.0 L 526.0,792.0 L 699.0,757.0 L 731.0,764.0 L 757.0,794.0 L 727.0,886.0 L 699.0,907.0"/>
    <path d="M 529.0,973.0 L 543.0,957.0 L 688.0,937.0 L 744.0,937.0 L 770.0,947.0"/>
  </g>
</svg>
