<svg xmlns="http://www.w3.org/2000/svg" viewBox="0 0 1024 1024">
  <g style="fill:none;stroke:#000000;stroke-width:50;stroke-linecap:round;stroke-linejoin:round;" transform="scale(1, 1) translate(0, 0)">
    <path d="M 417.0,256.0 L 353.0,259.0 L 283.0,321.0 L 211.0,368.0 L 187.0,381.0 L 177.0,380.0 L 175.0,389.0"/>
    <path d="M 135.0,439.0 L 179.0,489.0 L 186.0,516.0"/>
    <path d="M 247.0,387.0 L 284.0,440.0"/>
    <path d="M 435.0,419.0 L 387.0,416.0 L 308.0,489.0 L 217.0,557.0 L 143.0,602.0 L 70.0,635.0"/>
    <path d="M 243.0,567.0 L 264.0,572.0 L 285.0,591.0 L 336.0,655.0 L 365.0,727.0 L 372.0,830.0 L 354.0,926.0 L 343.0,956.0 L 318.0,986.0 L 208.0,935.0"/>
    <path d="M 254.0,596.0 L 259.0,624.0 L 236.0,652.0 L 174.0,703.0 L 96.0,745.0"/>
    <path d="M 311.0,669.0 L 310.0,723.0 L 277.0,770.0 L 204.0,848.0 L 155.0,886.0 L 114.0,908.0"/>
    <path d="M 462.0,385.0 L 489.0,409.0 L 496.0,425.0 L 544.0,662.0"/>
    <path d="M 522.0,415.0 L 534.0,400.0 L 644.0,375.0 L 776.0,356.0 L 808.0,358.0 L 833.0,368.0 L 855.0,396.0 L 835.0,460.0 L 821.0,537.0 L 795.0,613.0 L 800.0,640.0"/>
    <path d="M 573.0,520.0 L 709.0,490.0 L 729.0,488.0 L 752.0,495.0"/>
    <path d="M 559.0,645.0 L 584.0,632.0 L 619.0,630.0 L 757.0,600.0"/>
    <path d="M 618.0,404.0 L 645.0,415.0 L 659.0,429.0 L 658.0,862.0 L 641.0,884.0"/>
    <path d="M 518.0,766.0 L 572.0,774.0 L 749.0,739.0 L 796.0,741.0"/>
    <path d="M 430.0,927.0 L 450.0,934.0 L 486.0,935.0 L 629.0,912.0 L 849.0,888.0 L 892.0,891.0 L 940.0,906.0"/>
  </g>
</svg>
