<svg xmlns="http://www.w3.org/2000/svg" viewBox="0 0 1024 1024">
  <g style="fill:none;stroke:#000000;stroke-width:50;stroke-linecap:round;stroke-linejoin:round;" transform="scale(1, 1) translate(0, 0)">
    <path d="M 311.0,261.0 L 338.0,292.0 L 350.0,356.0 L 350.0,562.0 L 337.0,721.0 L 344.0,793.0"/>
    <path d="M 373.0,276.0 L 385.0,287.0 L 405.0,289.0 L 672.0,239.0 L 703.0,253.0 L 730.0,281.0 L 731.0,685.0 L 726.0,723.0 L 715.0,751.0 L 716.0,819.0"/>
    <path d="M 383.0,455.0 L 401.0,444.0 L 538.0,414.0 L 585.0,410.0 L 614.0,417.0"/>
    <path d="M 380.0,599.0 L 393.0,584.0 L 514.0,561.0 L 573.0,553.0 L 617.0,560.0"/>
    <path d="M 374.0,759.0 L 396.0,740.0 L 605.0,712.0 L 666.0,713.0"/>
    <path d="M 471.0,844.0 L 432.0,849.0 L 387.0,899.0 L 308.0,962.0 L 244.0,1002.0 L 186.0,1027.0"/>
    <path d="M 594.0,822.0 L 676.0,890.0 L 760.0,971.0 L 778.0,997.0 L 797.0,1051.0"/>
  </g>
</svg>
