<svg xmlns="http://www.w3.org/2000/svg" viewBox="0 0 1024 1024">
  <g style="fill:none;stroke:#000000;stroke-width:50;stroke-linecap:round;stroke-linejoin:round;" transform="scale(1, 1) translate(0, 0)">
    <path d="M 478.0,171.0 L 521.0,212.0 L 517.0,382.0 L 499.0,398.0"/>
    <path d="M 556.0,291.0 L 569.0,281.0 L 699.0,256.0 L 730.0,257.0"/>
    <path d="M 322.0,421.0 L 342.0,441.0 L 355.0,470.0 L 359.0,570.0 L 349.0,795.0 L 356.0,845.0"/>
    <path d="M 374.0,432.0 L 396.0,444.0 L 413.0,443.0 L 667.0,386.0 L 692.0,393.0 L 724.0,421.0 L 731.0,432.0 L 724.0,531.0 L 730.0,776.0 L 722.0,850.0"/>
    <path d="M 389.0,570.0 L 401.0,560.0 L 560.0,527.0 L 607.0,531.0"/>
    <path d="M 386.0,684.0 L 398.0,675.0 L 534.0,649.0 L 595.0,643.0 L 618.0,650.0"/>
    <path d="M 386.0,816.0 L 403.0,800.0 L 604.0,779.0 L 662.0,777.0 L 675.0,795.0"/>
    <path d="M 487.0,902.0 L 452.0,904.0 L 387.0,971.0 L 314.0,1026.0 L 243.0,1066.0 L 205.0,1080.0"/>
    <path d="M 610.0,869.0 L 694.0,944.0 L 747.0,1001.0 L 765.0,1032.0 L 773.0,1070.0"/>
  </g>
</svg>
