<svg xmlns="http://www.w3.org/2000/svg" viewBox="0 0 1024 1024">
  <g style="fill:none;stroke:#000000;stroke-width:50;stroke-linecap:round;stroke-linejoin:round;" transform="scale(1, 1) translate(0, 0)">
    <path d="M 349.0,207.0 L 362.0,230.0 L 365.0,249.0 L 357.0,256.0 L 291.0,301.0 L 149.0,381.0"/>
    <path d="M 143.0,410.0 L 191.0,464.0 L 196.0,493.0"/>
    <path d="M 256.0,371.0 L 288.0,408.0 L 303.0,438.0"/>
    <path d="M 441.0,430.0 L 396.0,426.0 L 283.0,522.0 L 158.0,599.0 L 98.0,622.0"/>
    <path d="M 256.0,560.0 L 276.0,563.0 L 299.0,582.0 L 344.0,634.0 L 373.0,721.0 L 373.0,801.0 L 349.0,908.0 L 332.0,945.0 L 310.0,970.0 L 291.0,967.0 L 212.0,923.0"/>
    <path d="M 270.0,586.0 L 275.0,616.0 L 245.0,649.0 L 174.0,704.0 L 100.0,741.0"/>
    <path d="M 325.0,662.0 L 320.0,714.0 L 263.0,782.0 L 145.0,882.0 L 73.0,917.0"/>
    <path d="M 446.0,361.0 L 526.0,362.0 L 790.0,316.0 L 839.0,320.0 L 860.0,328.0"/>
    <path d="M 517.0,267.0 L 552.0,291.0 L 580.0,430.0"/>
    <path d="M 701.0,197.0 L 716.0,205.0 L 734.0,233.0 L 708.0,332.0 L 676.0,417.0"/>
    <path d="M 461.0,488.0 L 484.0,509.0 L 492.0,526.0 L 524.0,695.0"/>
    <path d="M 511.0,491.0 L 530.0,500.0 L 711.0,464.0 L 731.0,463.0 L 761.0,472.0 L 782.0,502.0 L 736.0,653.0 L 739.0,673.0"/>
    <path d="M 532.0,590.0 L 541.0,582.0 L 641.0,561.0 L 689.0,564.0"/>
    <path d="M 546.0,668.0 L 552.0,659.0 L 705.0,636.0"/>
    <path d="M 426.0,800.0 L 479.0,807.0 L 643.0,782.0 L 833.0,763.0 L 909.0,780.0"/>
    <path d="M 590.0,692.0 L 621.0,725.0 L 621.0,735.0 L 603.0,839.0 L 580.0,892.0 L 545.0,937.0 L 510.0,965.0 L 457.0,993.0 L 407.0,1007.0"/>
    <path d="M 643.0,809.0 L 689.0,868.0 L 788.0,963.0 L 863.0,986.0 L 963.0,1004.0"/>
  </g>
</svg>
