<svg xmlns="http://www.w3.org/2000/svg" viewBox="0 0 1024 1024">
  <g style="fill:none;stroke:#000000;stroke-width:50;stroke-linecap:round;stroke-linejoin:round;" transform="scale(1, 1) translate(0, 0)">
    <path d="M 374.0,245.0 L 409.0,252.0 L 447.0,250.0 L 681.0,204.0 L 716.0,206.0"/>
    <path d="M 498.0,267.0 L 523.0,293.0 L 521.0,342.0 L 504.0,357.0"/>
    <path d="M 131.0,426.0 L 166.0,435.0 L 204.0,433.0 L 340.0,408.0 L 838.0,350.0 L 883.0,355.0 L 931.0,369.0"/>
    <path d="M 366.0,479.0 L 394.0,507.0 L 399.0,540.0 L 398.0,679.0 L 385.0,790.0 L 387.0,828.0"/>
    <path d="M 432.0,516.0 L 452.0,504.0 L 652.0,461.0 L 675.0,469.0 L 706.0,500.0 L 701.0,639.0 L 707.0,756.0 L 698.0,839.0"/>
    <path d="M 426.0,617.0 L 438.0,606.0 L 511.0,587.0 L 569.0,577.0 L 592.0,583.0"/>
    <path d="M 426.0,714.0 L 438.0,702.0 L 552.0,680.0 L 587.0,686.0"/>
    <path d="M 415.0,803.0 L 438.0,792.0 L 624.0,768.0 L 642.0,768.0 L 652.0,780.0"/>
    <path d="M 493.0,898.0 L 460.0,900.0 L 417.0,947.0 L 342.0,1005.0 L 257.0,1048.0"/>
    <path d="M 610.0,871.0 L 716.0,976.0 L 734.0,1005.0 L 747.0,1053.0"/>
  </g>
</svg>
