<svg xmlns="http://www.w3.org/2000/svg" viewBox="0 0 1024 1024">
  <g style="fill:none;stroke:#000000;stroke-width:50;stroke-linecap:round;stroke-linejoin:round;" transform="scale(1, 1) translate(0, 0)">
    <path d="M 444.0,161.0 L 455.0,172.0 L 468.0,210.0 L 440.0,253.0 L 333.0,370.0 L 261.0,423.0"/>
    <path d="M 455.0,290.0 L 518.0,287.0 L 587.0,273.0 L 611.0,276.0 L 632.0,288.0 L 616.0,317.0 L 549.0,397.0 L 522.0,427.0 L 498.0,440.0"/>
    <path d="M 322.0,451.0 L 344.0,472.0 L 354.0,501.0 L 351.0,631.0 L 337.0,779.0 L 341.0,845.0"/>
    <path d="M 377.0,466.0 L 403.0,477.0 L 646.0,428.0 L 669.0,437.0 L 692.0,458.0 L 704.0,474.0 L 698.0,536.0 L 703.0,763.0 L 694.0,845.0"/>
    <path d="M 381.0,592.0 L 395.0,581.0 L 535.0,557.0 L 562.0,555.0 L 586.0,562.0"/>
    <path d="M 377.0,708.0 L 396.0,698.0 L 519.0,677.0 L 553.0,674.0 L 586.0,682.0"/>
    <path d="M 367.0,822.0 L 379.0,812.0 L 401.0,807.0 L 603.0,788.0 L 632.0,787.0 L 648.0,804.0"/>
    <path d="M 449.0,910.0 L 415.0,913.0 L 377.0,957.0 L 325.0,1001.0 L 268.0,1040.0 L 193.0,1076.0"/>
    <path d="M 586.0,898.0 L 711.0,1002.0 L 738.0,1044.0 L 749.0,1082.0"/>
  </g>
</svg>
