<svg xmlns="http://www.w3.org/2000/svg" viewBox="0 0 1024 1024">
  <g style="fill:none;stroke:#000000;stroke-width:50;stroke-linecap:round;stroke-linejoin:round;" transform="scale(1, 1) translate(0, 0)">
    <path d="M 321.0,181.0 L 337.0,203.0 L 343.0,225.0 L 323.0,256.0 L 233.0,358.0 L 160.0,423.0 L 96.0,465.0"/>
    <path d="M 303.0,331.0 L 291.0,484.0 L 296.0,542.0"/>
    <path d="M 698.0,185.0 L 714.0,222.0 L 571.0,342.0"/>
    <path d="M 511.0,168.0 L 547.0,212.0 L 539.0,294.0 L 549.0,365.0 L 573.0,392.0 L 620.0,412.0 L 688.0,420.0 L 757.0,419.0 L 824.0,412.0 L 887.0,393.0 L 912.0,374.0 L 916.0,277.0"/>
    <path d="M 341.0,525.0 L 365.0,552.0 L 371.0,570.0 L 362.0,819.0 L 365.0,879.0"/>
    <path d="M 395.0,537.0 L 413.0,549.0 L 616.0,504.0 L 637.0,504.0 L 681.0,542.0 L 675.0,624.0 L 679.0,799.0 L 671.0,878.0"/>
    <path d="M 398.0,655.0 L 409.0,645.0 L 529.0,625.0 L 554.0,623.0 L 575.0,629.0"/>
    <path d="M 394.0,756.0 L 407.0,745.0 L 509.0,727.0 L 561.0,722.0 L 582.0,728.0"/>
    <path d="M 389.0,858.0 L 410.0,842.0 L 574.0,823.0 L 614.0,822.0 L 628.0,839.0"/>
    <path d="M 481.0,927.0 L 428.0,933.0 L 347.0,1012.0 L 286.0,1053.0 L 229.0,1079.0"/>
    <path d="M 593.0,897.0 L 707.0,1012.0 L 724.0,1042.0 L 732.0,1077.0"/>
  </g>
</svg>
