<svg xmlns="http://www.w3.org/2000/svg" viewBox="0 0 1024 1024">
  <g style="fill:none;stroke:#000000;stroke-width:50;stroke-linecap:round;stroke-linejoin:round;" transform="scale(1, 1) translate(0, 0)">
    <path d="M 310.0,279.0 L 334.0,294.0 L 349.0,314.0 L 383.0,417.0"/>
    <path d="M 359.0,277.0 L 382.0,286.0 L 559.0,247.0 L 669.0,233.0 L 691.0,241.0 L 708.0,266.0 L 708.0,276.0 L 687.0,309.0 L 656.0,322.0"/>
    <path d="M 399.0,385.0 L 409.0,392.0 L 648.0,352.0 L 706.0,359.0"/>
    <path d="M 469.0,168.0 L 512.0,204.0 L 513.0,441.0 L 510.0,453.0 L 498.0,464.0"/>
    <path d="M 95.0,539.0 L 120.0,546.0 L 154.0,546.0 L 442.0,492.0 L 870.0,438.0 L 956.0,456.0"/>
    <path d="M 336.0,575.0 L 352.0,588.0 L 368.0,618.0 L 371.0,744.0 L 363.0,916.0"/>
    <path d="M 389.0,585.0 L 404.0,597.0 L 634.0,549.0 L 656.0,557.0 L 680.0,581.0 L 688.0,594.0 L 683.0,690.0 L 689.0,849.0 L 682.0,878.0 L 682.0,918.0"/>
    <path d="M 397.0,688.0 L 409.0,676.0 L 419.0,678.0 L 480.0,661.0 L 566.0,647.0 L 587.0,653.0"/>
    <path d="M 397.0,783.0 L 407.0,775.0 L 523.0,748.0 L 574.0,743.0 L 595.0,749.0"/>
    <path d="M 385.0,901.0 L 403.0,887.0 L 604.0,857.0 L 645.0,873.0"/>
    <path d="M 470.0,962.0 L 434.0,965.0 L 397.0,1004.0 L 338.0,1050.0 L 287.0,1080.0 L 237.0,1100.0"/>
    <path d="M 591.0,930.0 L 692.0,1018.0 L 715.0,1055.0 L 726.0,1096.0"/>
  </g>
</svg>
