<svg xmlns="http://www.w3.org/2000/svg" viewBox="0 0 1024 1024">
  <g style="fill:none;stroke:#000000;stroke-width:50;stroke-linecap:round;stroke-linejoin:round;" transform="scale(1, 1) translate(0, 0)">
    <path d="M 349.0,151.0 L 364.0,177.0 L 368.0,203.0 L 342.0,236.0 L 236.0,340.0 L 144.0,408.0 L 90.0,436.0"/>
    <path d="M 309.0,318.0 L 302.0,507.0 L 307.0,553.0"/>
    <path d="M 770.0,207.0 L 703.0,192.0 L 627.0,234.0 L 516.0,270.0"/>
    <path d="M 408.0,384.0 L 461.0,388.0 L 571.0,362.0 L 830.0,318.0 L 878.0,318.0 L 923.0,328.0"/>
    <path d="M 619.0,262.0 L 649.0,287.0 L 645.0,427.0 L 625.0,449.0"/>
    <path d="M 472.0,489.0 L 507.0,496.0 L 746.0,456.0 L 803.0,459.0 L 829.0,467.0"/>
    <path d="M 351.0,572.0 L 368.0,588.0 L 380.0,613.0 L 373.0,835.0 L 377.0,907.0"/>
    <path d="M 393.0,574.0 L 413.0,585.0 L 456.0,582.0 L 466.0,575.0 L 631.0,543.0 L 652.0,549.0 L 683.0,581.0 L 679.0,682.0 L 685.0,841.0 L 678.0,910.0"/>
    <path d="M 409.0,688.0 L 418.0,675.0 L 464.0,667.0 L 574.0,651.0 L 595.0,657.0"/>
    <path d="M 407.0,778.0 L 415.0,770.0 L 541.0,747.0 L 578.0,743.0 L 599.0,749.0"/>
    <path d="M 401.0,887.0 L 413.0,877.0 L 436.0,873.0 L 576.0,857.0 L 611.0,856.0 L 640.0,870.0"/>
    <path d="M 467.0,967.0 L 429.0,968.0 L 382.0,1013.0 L 324.0,1052.0 L 233.0,1091.0"/>
    <path d="M 605.0,947.0 L 719.0,1027.0 L 737.0,1047.0 L 758.0,1093.0"/>
  </g>
</svg>
