<svg xmlns="http://www.w3.org/2000/svg" viewBox="0 0 1024 1024">
  <g style="fill:none;stroke:#000000;stroke-width:50;stroke-linecap:round;stroke-linejoin:round;" transform="scale(1, 1) translate(0, 0)">
    <path d="M 485.0,154.0 L 504.0,168.0 L 521.0,192.0 L 517.0,309.0 L 502.0,320.0"/>
    <path d="M 325.0,229.0 L 390.0,262.0 L 419.0,298.0"/>
    <path d="M 686.0,172.0 L 698.0,208.0 L 597.0,281.0"/>
    <path d="M 211.0,340.0 L 222.0,370.0 L 219.0,392.0 L 175.0,487.0 L 173.0,531.0"/>
    <path d="M 250.0,393.0 L 263.0,382.0 L 663.0,325.0 L 790.0,313.0 L 827.0,319.0 L 843.0,330.0 L 857.0,357.0 L 781.0,438.0"/>
    <path d="M 356.0,429.0 L 386.0,453.0 L 416.0,558.0"/>
    <path d="M 408.0,430.0 L 423.0,438.0 L 574.0,404.0 L 603.0,403.0 L 620.0,409.0 L 638.0,434.0 L 619.0,466.0 L 592.0,476.0"/>
    <path d="M 432.0,541.0 L 448.0,531.0 L 582.0,508.0 L 642.0,515.0"/>
    <path d="M 341.0,614.0 L 364.0,639.0 L 372.0,663.0 L 374.0,776.0 L 364.0,857.0 L 368.0,906.0"/>
    <path d="M 391.0,622.0 L 398.0,631.0 L 420.0,634.0 L 615.0,596.0 L 636.0,597.0 L 659.0,613.0 L 677.0,642.0 L 672.0,825.0 L 663.0,902.0"/>
    <path d="M 400.0,724.0 L 434.0,711.0 L 511.0,697.0 L 561.0,694.0 L 583.0,700.0"/>
    <path d="M 403.0,800.0 L 411.0,789.0 L 523.0,776.0 L 561.0,773.0 L 583.0,780.0"/>
    <path d="M 392.0,883.0 L 408.0,870.0 L 580.0,851.0 L 615.0,856.0 L 623.0,868.0"/>
    <path d="M 447.0,960.0 L 414.0,962.0 L 340.0,1033.0 L 289.0,1067.0 L 240.0,1088.0"/>
    <path d="M 589.0,924.0 L 697.0,1017.0 L 713.0,1045.0 L 722.0,1078.0"/>
  </g>
</svg>
