<svg xmlns="http://www.w3.org/2000/svg" viewBox="0 0 1024 1024">
  <g style="fill:none;stroke:#000000;stroke-width:50;stroke-linecap:round;stroke-linejoin:round;" transform="scale(1, 1) translate(0, 0)">
    <path d="M 297.0,255.0 L 320.0,262.0 L 372.0,261.0 L 538.0,229.0 L 647.0,201.0 L 682.0,204.0"/>
    <path d="M 469.0,157.0 L 504.0,194.0 L 499.0,293.0 L 483.0,313.0"/>
    <path d="M 339.0,348.0 L 383.0,354.0 L 596.0,313.0 L 659.0,316.0"/>
    <path d="M 176.0,437.0 L 210.0,461.0 L 259.0,606.0"/>
    <path d="M 237.0,440.0 L 255.0,452.0 L 560.0,396.0 L 749.0,373.0 L 792.0,376.0 L 808.0,385.0 L 828.0,421.0 L 757.0,554.0"/>
    <path d="M 380.0,453.0 L 390.0,458.0 L 414.0,520.0 L 432.0,533.0"/>
    <path d="M 567.0,415.0 L 588.0,440.0 L 563.0,493.0 L 547.0,511.0 L 535.0,514.0"/>
    <path d="M 273.0,564.0 L 285.0,575.0 L 298.0,574.0 L 671.0,521.0 L 735.0,520.0"/>
    <path d="M 337.0,634.0 L 360.0,660.0 L 368.0,684.0 L 364.0,918.0"/>
    <path d="M 388.0,642.0 L 404.0,654.0 L 604.0,612.0 L 645.0,626.0 L 665.0,650.0 L 655.0,908.0"/>
    <path d="M 395.0,743.0 L 407.0,733.0 L 491.0,717.0 L 547.0,710.0 L 569.0,716.0"/>
    <path d="M 396.0,813.0 L 408.0,803.0 L 530.0,786.0 L 556.0,785.0 L 576.0,792.0"/>
    <path d="M 387.0,896.0 L 401.0,885.0 L 602.0,862.0 L 621.0,854.0"/>
    <path d="M 467.0,964.0 L 433.0,965.0 L 395.0,1004.0 L 333.0,1049.0 L 240.0,1093.0"/>
    <path d="M 590.0,944.0 L 697.0,1027.0 L 727.0,1084.0"/>
  </g>
</svg>
