<svg xmlns="http://www.w3.org/2000/svg" viewBox="0 0 1024 1024">
  <g style="fill:none;stroke:#000000;stroke-width:50;stroke-linecap:round;stroke-linejoin:round;" transform="scale(1, 1) translate(0, 0)">
    <path d="M 148.0,323.0 L 177.0,352.0 L 183.0,393.0 L 186.0,458.0 L 176.0,676.0 L 180.0,751.0"/>
    <path d="M 206.0,341.0 L 221.0,345.0 L 328.0,318.0 L 352.0,328.0 L 369.0,344.0 L 369.0,661.0 L 366.0,694.0 L 358.0,709.0 L 364.0,761.0"/>
    <path d="M 212.0,495.0 L 222.0,483.0 L 252.0,475.0 L 286.0,472.0 L 308.0,477.0"/>
    <path d="M 211.0,599.0 L 221.0,587.0 L 251.0,579.0 L 286.0,576.0 L 308.0,581.0"/>
    <path d="M 205.0,720.0 L 220.0,702.0 L 322.0,687.0"/>
    <path d="M 253.0,800.0 L 223.0,809.0 L 196.0,855.0 L 149.0,910.0 L 107.0,949.0 L 69.0,974.0"/>
    <path d="M 319.0,795.0 L 366.0,844.0 L 371.0,865.0"/>
    <path d="M 492.0,450.0 L 551.0,453.0 L 677.0,418.0 L 722.0,417.0"/>
    <path d="M 572.0,191.0 L 612.0,223.0 L 621.0,237.0 L 610.0,529.0 L 592.0,552.0"/>
    <path d="M 414.0,600.0 L 468.0,604.0 L 645.0,565.0 L 893.0,526.0 L 940.0,526.0 L 986.0,537.0"/>
    <path d="M 779.0,294.0 L 798.0,319.0 L 811.0,352.0 L 767.0,449.0 L 709.0,555.0 L 617.0,685.0 L 521.0,799.0 L 434.0,886.0 L 322.0,977.0"/>
    <path d="M 528.0,711.0 L 543.0,726.0 L 556.0,767.0 L 551.0,954.0 L 557.0,990.0"/>
    <path d="M 563.0,717.0 L 587.0,730.0 L 608.0,721.0 L 740.0,697.0 L 765.0,703.0 L 787.0,727.0 L 789.0,919.0 L 774.0,973.0 L 777.0,1028.0"/>
    <path d="M 586.0,843.0 L 594.0,831.0 L 643.0,822.0 L 685.0,818.0 L 714.0,824.0"/>
    <path d="M 581.0,965.0 L 600.0,951.0 L 733.0,940.0"/>
  </g>
</svg>
