<svg xmlns="http://www.w3.org/2000/svg" viewBox="0 0 1024 1024">
  <g style="fill:none;stroke:#000000;stroke-width:50;stroke-linecap:round;stroke-linejoin:round;" transform="scale(1, 1) translate(0, 0)">
    <path d="M 461.0,151.0 L 521.0,180.0 L 538.0,192.0 L 556.0,217.0"/>
    <path d="M 252.0,253.0 L 261.0,277.0 L 257.0,304.0 L 206.0,390.0 L 202.0,437.0"/>
    <path d="M 289.0,309.0 L 561.0,258.0 L 739.0,235.0 L 791.0,241.0 L 806.0,251.0 L 822.0,276.0 L 754.0,351.0 L 744.0,354.0"/>
    <path d="M 314.0,405.0 L 342.0,411.0 L 402.0,408.0 L 659.0,356.0 L 694.0,359.0"/>
    <path d="M 316.0,505.0 L 362.0,504.0 L 626.0,449.0 L 662.0,447.0 L 683.0,453.0"/>
    <path d="M 395.0,333.0 L 427.0,364.0 L 431.0,387.0 L 438.0,537.0 L 428.0,545.0"/>
    <path d="M 544.0,300.0 L 576.0,332.0 L 562.0,508.0 L 546.0,529.0"/>
    <path d="M 193.0,592.0 L 238.0,599.0 L 478.0,558.0 L 732.0,528.0 L 781.0,531.0 L 827.0,544.0"/>
    <path d="M 405.0,610.0 L 376.0,620.0 L 308.0,704.0 L 225.0,778.0 L 158.0,823.0 L 124.0,834.0 L 121.0,840.0"/>
    <path d="M 610.0,565.0 L 797.0,719.0 L 893.0,743.0 L 958.0,748.0 L 962.0,744.0 L 985.0,750.0"/>
    <path d="M 381.0,668.0 L 389.0,703.0 L 392.0,778.0 L 381.0,903.0 L 384.0,938.0"/>
    <path d="M 419.0,678.0 L 433.0,686.0 L 592.0,652.0 L 613.0,659.0 L 638.0,685.0 L 639.0,852.0 L 631.0,936.0"/>
    <path d="M 418.0,767.0 L 425.0,757.0 L 519.0,737.0 L 542.0,734.0 L 561.0,739.0"/>
    <path d="M 415.0,839.0 L 425.0,829.0 L 519.0,812.0 L 560.0,816.0"/>
    <path d="M 405.0,918.0 L 419.0,908.0 L 544.0,894.0 L 586.0,892.0 L 596.0,901.0"/>
    <path d="M 469.0,987.0 L 438.0,987.0 L 404.0,1020.0 L 355.0,1054.0 L 263.0,1097.0"/>
    <path d="M 577.0,964.0 L 669.0,1035.0 L 689.0,1063.0 L 699.0,1093.0"/>
  </g>
</svg>
