<svg xmlns="http://www.w3.org/2000/svg" viewBox="0 0 1024 1024">
  <g style="fill:none;stroke:#000000;stroke-width:50;stroke-linecap:round;stroke-linejoin:round;" transform="scale(1, 1) translate(0, 0)">
    <path d="M 139.0,311.0 L 169.0,341.0 L 177.0,423.0 L 176.0,534.0 L 161.0,683.0 L 163.0,724.0"/>
    <path d="M 203.0,347.0 L 209.0,338.0 L 300.0,309.0 L 330.0,317.0 L 345.0,332.0 L 343.0,618.0 L 340.0,678.0 L 333.0,700.0 L 336.0,746.0"/>
    <path d="M 196.0,473.0 L 236.0,455.0 L 286.0,454.0"/>
    <path d="M 202.0,584.0 L 207.0,573.0 L 223.0,564.0 L 263.0,557.0 L 284.0,561.0"/>
    <path d="M 190.0,700.0 L 204.0,687.0 L 297.0,678.0"/>
    <path d="M 237.0,761.0 L 211.0,770.0 L 142.0,868.0 L 103.0,908.0 L 67.0,934.0"/>
    <path d="M 284.0,783.0 L 335.0,824.0 L 346.0,853.0"/>
    <path d="M 492.0,223.0 L 552.0,269.0 L 569.0,305.0"/>
    <path d="M 735.0,161.0 L 758.0,194.0 L 653.0,322.0"/>
    <path d="M 453.0,391.0 L 485.0,397.0 L 543.0,392.0 L 788.0,337.0 L 828.0,336.0"/>
    <path d="M 446.0,506.0 L 492.0,510.0 L 651.0,479.0 L 712.0,461.0 L 764.0,461.0 L 783.0,477.0 L 791.0,493.0 L 749.0,624.0 L 728.0,638.0"/>
    <path d="M 396.0,621.0 L 446.0,625.0 L 589.0,592.0 L 862.0,550.0 L 942.0,561.0"/>
    <path d="M 444.0,703.0 L 480.0,707.0 L 712.0,666.0 L 763.0,665.0 L 782.0,673.0"/>
    <path d="M 502.0,424.0 L 531.0,441.0 L 536.0,491.0 L 531.0,773.0 L 512.0,991.0 L 517.0,1039.0"/>
    <path d="M 622.0,400.0 L 646.0,415.0 L 654.0,444.0 L 655.0,810.0 L 647.0,991.0 L 662.0,1071.0"/>
    <path d="M 511.0,724.0 L 493.0,790.0 L 455.0,844.0 L 401.0,903.0 L 321.0,962.0"/>
    <path d="M 675.0,727.0 L 689.0,755.0 L 719.0,788.0 L 836.0,900.0 L 923.0,919.0 L 963.0,921.0"/>
  </g>
</svg>
