<svg xmlns="http://www.w3.org/2000/svg" viewBox="0 0 1024 1024">
  <g style="fill:none;stroke:#000000;stroke-width:50;stroke-linecap:round;stroke-linejoin:round;" transform="scale(1, 1) translate(0, 0)">
    <path d="M 138.0,282.0 L 163.0,308.0 L 169.0,327.0 L 173.0,437.0 L 158.0,661.0 L 161.0,738.0"/>
    <path d="M 189.0,296.0 L 216.0,302.0 L 306.0,285.0 L 329.0,295.0 L 346.0,312.0 L 341.0,360.0 L 342.0,671.0 L 332.0,711.0 L 336.0,757.0"/>
    <path d="M 195.0,469.0 L 202.0,458.0 L 238.0,451.0 L 281.0,455.0"/>
    <path d="M 193.0,585.0 L 200.0,574.0 L 215.0,571.0 L 262.0,566.0 L 281.0,571.0"/>
    <path d="M 187.0,708.0 L 196.0,696.0 L 303.0,680.0"/>
    <path d="M 221.0,786.0 L 195.0,795.0 L 172.0,839.0 L 117.0,911.0 L 60.0,961.0"/>
    <path d="M 286.0,794.0 L 321.0,837.0 L 329.0,871.0"/>
    <path d="M 585.0,169.0 L 607.0,198.0 L 603.0,218.0 L 568.0,275.0 L 509.0,339.0"/>
    <path d="M 609.0,259.0 L 721.0,243.0 L 750.0,253.0 L 734.0,287.0 L 650.0,377.0 L 643.0,378.0"/>
    <path d="M 514.0,428.0 L 522.0,420.0 L 615.0,407.0 L 839.0,351.0 L 868.0,354.0"/>
    <path d="M 442.0,387.0 L 475.0,422.0 L 475.0,472.0 L 460.0,628.0 L 442.0,722.0 L 414.0,816.0 L 371.0,913.0 L 317.0,995.0 L 292.0,1022.0"/>
    <path d="M 580.0,433.0 L 600.0,448.0 L 602.0,461.0 L 568.0,533.0 L 543.0,560.0"/>
    <path d="M 719.0,406.0 L 748.0,427.0 L 751.0,479.0 L 767.0,500.0 L 808.0,506.0 L 860.0,492.0 L 898.0,495.0"/>
    <path d="M 649.0,516.0 L 693.0,547.0 L 709.0,568.0"/>
    <path d="M 492.0,649.0 L 544.0,652.0 L 701.0,618.0 L 844.0,597.0 L 887.0,597.0 L 930.0,607.0"/>
    <path d="M 575.0,720.0 L 626.0,722.0 L 727.0,697.0 L 763.0,697.0"/>
    <path d="M 575.0,808.0 L 615.0,812.0 L 731.0,785.0 L 767.0,785.0"/>
    <path d="M 529.0,888.0 L 559.0,924.0 L 584.0,1055.0"/>
    <path d="M 575.0,889.0 L 583.0,897.0 L 600.0,897.0 L 747.0,860.0 L 779.0,863.0 L 808.0,891.0 L 784.0,954.0 L 757.0,972.0"/>
    <path d="M 603.0,1028.0 L 618.0,1019.0 L 746.0,997.0 L 793.0,996.0 L 811.0,1002.0"/>
  </g>
</svg>
