<svg xmlns="http://www.w3.org/2000/svg" viewBox="0 0 1024 1024">
  <g style="fill:none;stroke:#000000;stroke-width:50;stroke-linecap:round;stroke-linejoin:round;" transform="scale(1, 1) translate(0, 0)">
    <path d="M 254.0,298.0 L 304.0,296.0 L 403.0,259.0 L 445.0,255.0"/>
    <path d="M 326.0,163.0 L 359.0,194.0 L 350.0,319.0 L 336.0,337.0"/>
    <path d="M 103.0,411.0 L 125.0,416.0 L 160.0,412.0 L 422.0,331.0 L 459.0,323.0 L 484.0,326.0"/>
    <path d="M 256.0,401.0 L 272.0,408.0 L 288.0,425.0 L 296.0,454.0"/>
    <path d="M 418.0,369.0 L 395.0,379.0 L 372.0,429.0"/>
    <path d="M 233.0,493.0 L 289.0,488.0 L 404.0,444.0 L 445.0,437.0"/>
    <path d="M 142.0,581.0 L 187.0,594.0 L 289.0,555.0 L 377.0,532.0 L 477.0,491.0"/>
    <path d="M 365.0,484.0 L 345.0,514.0 L 339.0,645.0 L 343.0,653.0"/>
    <path d="M 579.0,184.0 L 600.0,193.0 L 623.0,219.0 L 615.0,333.0 L 598.0,413.0 L 570.0,483.0 L 543.0,525.0 L 488.0,580.0 L 461.0,592.0"/>
    <path d="M 516.0,337.0 L 576.0,334.0 L 712.0,286.0 L 748.0,289.0 L 760.0,302.0 L 733.0,409.0 L 741.0,486.0 L 768.0,531.0 L 800.0,555.0 L 843.0,576.0 L 882.0,585.0 L 913.0,584.0 L 922.0,533.0 L 923.0,482.0 L 916.0,471.0 L 917.0,457.0"/>
    <path d="M 523.0,420.0 L 607.0,465.0 L 625.0,479.0 L 647.0,510.0"/>
    <path d="M 359.0,646.0 L 374.0,682.0 L 376.0,807.0 L 368.0,886.0 L 377.0,945.0"/>
    <path d="M 380.0,641.0 L 389.0,649.0 L 415.0,652.0 L 613.0,606.0 L 635.0,612.0 L 659.0,636.0 L 667.0,646.0 L 661.0,714.0 L 666.0,873.0 L 659.0,947.0"/>
    <path d="M 400.0,751.0 L 412.0,740.0 L 507.0,722.0 L 557.0,714.0 L 577.0,719.0"/>
    <path d="M 401.0,831.0 L 412.0,821.0 L 540.0,797.0 L 565.0,794.0 L 585.0,799.0"/>
    <path d="M 398.0,930.0 L 420.0,914.0 L 572.0,894.0 L 600.0,895.0 L 625.0,908.0"/>
    <path d="M 468.0,984.0 L 437.0,986.0 L 379.0,1042.0 L 324.0,1078.0 L 272.0,1100.0"/>
    <path d="M 590.0,964.0 L 671.0,1020.0 L 697.0,1045.0 L 721.0,1103.0"/>
  </g>
</svg>
