<svg xmlns="http://www.w3.org/2000/svg" viewBox="0 0 1024 1024">
  <g style="fill:none;stroke:#000000;stroke-width:50;stroke-linecap:round;stroke-linejoin:round;" transform="scale(1, 1) translate(0, 0)">
    <path d="M 127.0,342.0 L 151.0,377.0 L 156.0,461.0 L 147.0,674.0 L 140.0,718.0 L 145.0,775.0"/>
    <path d="M 173.0,353.0 L 182.0,357.0 L 255.0,331.0 L 279.0,337.0 L 294.0,350.0 L 291.0,437.0 L 298.0,668.0 L 295.0,714.0 L 288.0,731.0 L 292.0,770.0"/>
    <path d="M 178.0,494.0 L 185.0,483.0 L 200.0,479.0 L 229.0,475.0 L 246.0,480.0"/>
    <path d="M 175.0,621.0 L 182.0,609.0 L 195.0,605.0 L 242.0,603.0"/>
    <path d="M 171.0,742.0 L 178.0,730.0 L 256.0,714.0"/>
    <path d="M 213.0,815.0 L 188.0,822.0 L 151.0,886.0 L 92.0,951.0 L 59.0,974.0"/>
    <path d="M 247.0,845.0 L 283.0,886.0"/>
    <path d="M 509.0,449.0 L 517.0,443.0 L 559.0,440.0 L 706.0,407.0 L 739.0,395.0 L 795.0,390.0"/>
    <path d="M 443.0,412.0 L 474.0,440.0 L 476.0,458.0 L 478.0,558.0 L 466.0,701.0 L 445.0,795.0 L 419.0,871.0 L 372.0,959.0 L 350.0,987.0"/>
    <path d="M 362.0,447.0 L 379.0,465.0 L 382.0,480.0 L 381.0,565.0 L 396.0,568.0 L 435.0,556.0 L 450.0,541.0"/>
    <path d="M 354.0,695.0 L 389.0,690.0 L 438.0,667.0 L 445.0,657.0"/>
    <path d="M 361.0,709.0 L 375.0,727.0 L 347.0,851.0"/>
    <path d="M 557.0,568.0 L 582.0,570.0 L 674.0,547.0"/>
    <path d="M 616.0,580.0 L 626.0,590.0 L 628.0,603.0 L 627.0,624.0 L 614.0,635.0"/>
    <path d="M 561.0,679.0 L 567.0,670.0 L 649.0,649.0 L 663.0,652.0 L 677.0,666.0 L 659.0,703.0 L 648.0,712.0"/>
    <path d="M 557.0,754.0 L 645.0,730.0 L 681.0,735.0"/>
    <path d="M 608.0,754.0 L 620.0,770.0 L 620.0,804.0 L 607.0,813.0"/>
    <path d="M 521.0,557.0 L 539.0,577.0 L 543.0,598.0 L 531.0,855.0 L 557.0,855.0 L 663.0,824.0 L 693.0,828.0"/>
    <path d="M 648.0,213.0 L 671.0,229.0 L 683.0,254.0 L 686.0,354.0 L 712.0,534.0 L 763.0,737.0 L 786.0,797.0 L 824.0,867.0 L 859.0,921.0 L 900.0,959.0 L 916.0,963.0 L 932.0,934.0 L 954.0,815.0"/>
    <path d="M 817.0,534.0 L 843.0,562.0 L 830.0,654.0 L 800.0,750.0 L 758.0,831.0 L 731.0,869.0 L 692.0,915.0 L 625.0,977.0"/>
    <path d="M 772.0,253.0 L 838.0,294.0 L 863.0,332.0"/>
  </g>
</svg>
