<svg xmlns="http://www.w3.org/2000/svg" viewBox="0 0 1024 1024">
  <g style="fill:none;stroke:#000000;stroke-width:50;stroke-linecap:round;stroke-linejoin:round;" transform="scale(1, 1) translate(0, 0)">
    <path d="M 429.0,176.0 L 502.0,203.0 L 539.0,237.0"/>
    <path d="M 239.0,321.0 L 258.0,328.0 L 313.0,329.0 L 690.0,265.0 L 719.0,266.0"/>
    <path d="M 358.0,346.0 L 335.0,373.0 L 332.0,422.0 L 351.0,424.0 L 466.0,394.0 L 595.0,374.0 L 645.0,376.0 L 677.0,384.0"/>
    <path d="M 331.0,493.0 L 354.0,508.0 L 362.0,521.0 L 388.0,607.0"/>
    <path d="M 372.0,495.0 L 389.0,500.0 L 580.0,460.0 L 615.0,461.0 L 636.0,490.0 L 622.0,520.0 L 599.0,531.0"/>
    <path d="M 402.0,596.0 L 418.0,588.0 L 585.0,560.0 L 647.0,564.0"/>
    <path d="M 159.0,666.0 L 186.0,687.0 L 192.0,705.0 L 189.0,810.0 L 176.0,893.0 L 164.0,931.0 L 137.0,983.0 L 103.0,1023.0 L 58.0,1055.0"/>
    <path d="M 212.0,674.0 L 227.0,677.0 L 293.0,659.0 L 318.0,680.0 L 317.0,972.0 L 311.0,1002.0 L 296.0,1023.0 L 238.0,996.0 L 221.0,995.0"/>
    <path d="M 214.0,798.0 L 225.0,786.0 L 237.0,783.0 L 275.0,783.0"/>
    <path d="M 204.0,884.0 L 213.0,873.0 L 226.0,870.0 L 258.0,866.0 L 273.0,871.0"/>
    <path d="M 385.0,658.0 L 405.0,688.0 L 409.0,878.0"/>
    <path d="M 421.0,663.0 L 429.0,671.0 L 446.0,670.0 L 535.0,646.0 L 550.0,651.0 L 561.0,663.0 L 569.0,682.0 L 559.0,871.0"/>
    <path d="M 427.0,748.0 L 462.0,731.0 L 493.0,727.0 L 510.0,732.0"/>
    <path d="M 431.0,813.0 L 436.0,802.0 L 465.0,795.0 L 518.0,795.0"/>
    <path d="M 426.0,870.0 L 444.0,860.0 L 521.0,845.0 L 533.0,835.0"/>
    <path d="M 457.0,928.0 L 437.0,933.0 L 402.0,986.0 L 354.0,1026.0"/>
    <path d="M 513.0,905.0 L 554.0,959.0"/>
    <path d="M 629.0,625.0 L 645.0,635.0 L 661.0,665.0 L 659.0,782.0 L 648.0,865.0 L 624.0,940.0 L 604.0,978.0 L 553.0,1040.0 L 510.0,1071.0"/>
    <path d="M 686.0,652.0 L 747.0,626.0 L 777.0,622.0 L 801.0,637.0 L 775.0,764.0 L 774.0,867.0 L 792.0,946.0 L 827.0,1002.0 L 854.0,1026.0 L 880.0,1038.0 L 926.0,1036.0 L 936.0,923.0"/>
    <path d="M 678.0,783.0 L 721.0,834.0 L 733.0,866.0"/>
  </g>
</svg>
