<svg xmlns="http://www.w3.org/2000/svg" viewBox="0 0 1024 1024">
  <g style="fill:none;stroke:#000000;stroke-width:50;stroke-linecap:round;stroke-linejoin:round;" transform="scale(1, 1) translate(0, 0)">
    <path d="M 171.0,336.0 L 197.0,366.0 L 202.0,387.0 L 199.0,606.0 L 187.0,716.0 L 193.0,774.0"/>
    <path d="M 226.0,350.0 L 239.0,357.0 L 315.0,342.0 L 331.0,333.0 L 388.0,326.0 L 401.0,328.0 L 429.0,360.0 L 423.0,432.0 L 426.0,689.0 L 419.0,751.0"/>
    <path d="M 270.0,435.0 L 310.0,459.0 L 319.0,479.0 L 315.0,658.0 L 292.0,795.0 L 268.0,857.0 L 237.0,902.0 L 189.0,945.0 L 141.0,974.0 L 117.0,981.0"/>
    <path d="M 347.0,794.0 L 410.0,844.0 L 431.0,886.0"/>
    <path d="M 510.0,512.0 L 565.0,518.0 L 843.0,451.0 L 906.0,455.0"/>
    <path d="M 684.0,223.0 L 734.0,264.0 L 727.0,452.0 L 735.0,912.0 L 729.0,945.0 L 713.0,976.0 L 647.0,952.0 L 607.0,933.0 L 605.0,926.0 L 594.0,926.0"/>
    <path d="M 699.0,516.0 L 684.0,534.0 L 679.0,576.0 L 668.0,607.0 L 622.0,678.0 L 558.0,755.0 L 497.0,807.0"/>
  </g>
</svg>
