<svg xmlns="http://www.w3.org/2000/svg" viewBox="0 0 1024 1024">
  <g style="fill:none;stroke:#000000;stroke-width:50;stroke-linecap:round;stroke-linejoin:round;" transform="scale(1, 1) translate(0, 0)">
    <path d="M 481.0,168.0 L 504.0,212.0 L 461.0,275.0 L 379.0,364.0 L 307.0,426.0 L 227.0,479.0 L 109.0,536.0"/>
    <path d="M 529.0,249.0 L 534.0,262.0 L 660.0,360.0 L 774.0,429.0 L 798.0,439.0 L 845.0,446.0 L 964.0,452.0"/>
    <path d="M 474.0,359.0 L 522.0,386.0 L 535.0,400.0"/>
    <path d="M 348.0,506.0 L 381.0,517.0 L 406.0,515.0 L 536.0,462.0 L 572.0,464.0 L 596.0,486.0 L 512.0,602.0"/>
    <path d="M 343.0,619.0 L 370.0,646.0 L 375.0,671.0 L 367.0,896.0"/>
    <path d="M 396.0,635.0 L 426.0,642.0 L 603.0,601.0 L 628.0,612.0 L 647.0,637.0 L 640.0,718.0 L 641.0,817.0 L 631.0,881.0"/>
    <path d="M 462.0,678.0 L 502.0,707.0 L 510.0,731.0 L 494.0,856.0 L 460.0,949.0 L 426.0,984.0 L 373.0,1014.0 L 310.0,1036.0 L 236.0,1047.0"/>
    <path d="M 563.0,926.0 L 679.0,993.0 L 710.0,1024.0 L 726.0,1057.0"/>
  </g>
</svg>
