<svg xmlns="http://www.w3.org/2000/svg" viewBox="0 0 1024 1024">
  <g style="fill:none;stroke:#000000;stroke-width:50;stroke-linecap:round;stroke-linejoin:round;" transform="scale(1, 1) translate(0, 0)">
    <path d="M 689.0,258.0 L 621.0,239.0 L 543.0,283.0 L 436.0,325.0 L 374.0,340.0 L 364.0,348.0 L 348.0,347.0 L 340.0,360.0"/>
    <path d="M 256.0,321.0 L 289.0,352.0 L 295.0,373.0 L 284.0,528.0 L 262.0,656.0 L 240.0,736.0 L 194.0,844.0 L 140.0,928.0 L 109.0,965.0"/>
    <path d="M 377.0,462.0 L 401.0,468.0 L 456.0,466.0 L 571.0,443.0 L 709.0,406.0 L 777.0,401.0"/>
    <path d="M 524.0,322.0 L 556.0,337.0 L 558.0,349.0 L 541.0,530.0 L 534.0,549.0 L 524.0,557.0"/>
    <path d="M 404.0,566.0 L 425.0,589.0 L 433.0,611.0 L 433.0,725.0 L 422.0,800.0 L 423.0,860.0"/>
    <path d="M 451.0,576.0 L 470.0,586.0 L 485.0,586.0 L 645.0,547.0 L 676.0,556.0 L 691.0,574.0 L 697.0,586.0 L 691.0,651.0 L 695.0,796.0 L 687.0,868.0"/>
    <path d="M 507.0,652.0 L 527.0,660.0 L 556.0,689.0 L 544.0,842.0 L 534.0,888.0 L 514.0,935.0 L 475.0,979.0 L 429.0,1004.0 L 369.0,1028.0 L 296.0,1039.0"/>
    <path d="M 617.0,907.0 L 732.0,989.0 L 755.0,1014.0 L 774.0,1059.0"/>
  </g>
</svg>
