<svg xmlns="http://www.w3.org/2000/svg" viewBox="0 0 1024 1024">
  <g style="fill:none;stroke:#000000;stroke-width:50;stroke-linecap:round;stroke-linejoin:round;" transform="scale(1, 1) translate(0, 0)">
    <path d="M 326.0,312.0 L 349.0,320.0 L 400.0,321.0 L 518.0,305.0 L 656.0,276.0 L 717.0,275.0"/>
    <path d="M 353.0,417.0 L 388.0,424.0 L 423.0,422.0 L 624.0,380.0 L 671.0,378.0"/>
    <path d="M 475.0,195.0 L 517.0,229.0 L 508.0,468.0 L 495.0,483.0"/>
    <path d="M 128.0,543.0 L 180.0,552.0 L 349.0,524.0 L 811.0,474.0 L 853.0,475.0 L 911.0,492.0"/>
    <path d="M 335.0,595.0 L 354.0,613.0 L 368.0,647.0 L 368.0,758.0 L 357.0,826.0 L 359.0,880.0"/>
    <path d="M 378.0,599.0 L 413.0,613.0 L 595.0,576.0 L 615.0,575.0 L 638.0,585.0 L 658.0,611.0 L 654.0,698.0 L 661.0,823.0 L 654.0,887.0"/>
    <path d="M 460.0,671.0 L 479.0,680.0 L 508.0,709.0 L 499.0,831.0 L 483.0,899.0 L 462.0,946.0 L 429.0,983.0 L 374.0,1016.0 L 289.0,1046.0 L 236.0,1051.0"/>
    <path d="M 573.0,916.0 L 685.0,1015.0 L 706.0,1046.0 L 714.0,1079.0"/>
  </g>
</svg>
