<svg xmlns="http://www.w3.org/2000/svg" viewBox="0 0 1024 1024">
  <g style="fill:none;stroke:#000000;stroke-width:50;stroke-linecap:round;stroke-linejoin:round;" transform="scale(1, 1) translate(0, 0)">
    <path d="M 306.0,309.0 L 336.0,336.0 L 368.0,493.0"/>
    <path d="M 363.0,314.0 L 385.0,325.0 L 657.0,278.0 L 680.0,288.0 L 699.0,313.0 L 677.0,374.0 L 651.0,388.0"/>
    <path d="M 387.0,466.0 L 398.0,457.0 L 430.0,451.0 L 651.0,420.0 L 690.0,418.0 L 714.0,427.0"/>
    <path d="M 477.0,183.0 L 510.0,207.0 L 521.0,223.0 L 514.0,487.0 L 499.0,508.0"/>
    <path d="M 107.0,575.0 L 150.0,583.0 L 178.0,581.0 L 295.0,558.0 L 544.0,523.0 L 832.0,491.0 L 877.0,492.0 L 936.0,508.0"/>
    <path d="M 354.0,627.0 L 374.0,649.0 L 387.0,678.0 L 375.0,920.0"/>
    <path d="M 398.0,632.0 L 432.0,641.0 L 585.0,606.0 L 599.0,609.0 L 622.0,629.0 L 632.0,650.0 L 626.0,703.0 L 628.0,829.0 L 619.0,904.0"/>
    <path d="M 454.0,692.0 L 479.0,703.0 L 504.0,730.0 L 493.0,862.0 L 473.0,929.0 L 449.0,970.0 L 400.0,1016.0 L 318.0,1055.0 L 268.0,1066.0"/>
    <path d="M 562.0,947.0 L 628.0,985.0 L 682.0,1025.0 L 713.0,1078.0"/>
  </g>
</svg>
