<svg xmlns="http://www.w3.org/2000/svg" viewBox="0 0 1024 1024">
  <g style="fill:none;stroke:#000000;stroke-width:50;stroke-linecap:round;stroke-linejoin:round;" transform="scale(1, 1) translate(0, 0)">
    <path d="M 149.0,387.0 L 200.0,396.0 L 431.0,356.0 L 783.0,317.0 L 841.0,323.0 L 876.0,334.0"/>
    <path d="M 441.0,230.0 L 459.0,237.0 L 479.0,258.0 L 490.0,466.0"/>
    <path d="M 610.0,189.0 L 643.0,230.0 L 611.0,381.0 L 595.0,395.0"/>
    <path d="M 508.0,442.0 L 527.0,431.0 L 589.0,422.0 L 630.0,422.0 L 650.0,431.0"/>
    <path d="M 311.0,264.0 L 353.0,296.0 L 365.0,401.0 L 366.0,512.0 L 373.0,543.0 L 510.0,520.0 L 636.0,512.0 L 697.0,515.0 L 739.0,532.0"/>
    <path d="M 346.0,635.0 L 364.0,654.0 L 375.0,681.0 L 378.0,765.0 L 370.0,870.0 L 377.0,919.0"/>
    <path d="M 383.0,638.0 L 410.0,651.0 L 596.0,615.0 L 629.0,625.0 L 652.0,655.0 L 646.0,737.0 L 648.0,837.0 L 639.0,912.0"/>
    <path d="M 456.0,701.0 L 475.0,709.0 L 505.0,737.0 L 500.0,857.0 L 475.0,944.0 L 435.0,994.0 L 390.0,1023.0 L 321.0,1052.0 L 271.0,1063.0"/>
    <path d="M 558.0,947.0 L 667.0,1015.0 L 685.0,1032.0 L 707.0,1072.0"/>
  </g>
</svg>
