<svg xmlns="http://www.w3.org/2000/svg" viewBox="0 0 1024 1024">
  <g style="fill:none;stroke:#000000;stroke-width:50;stroke-linecap:round;stroke-linejoin:round;" transform="scale(1, 1) translate(0, 0)">
    <path d="M 404.0,338.0 L 439.0,344.0 L 482.0,340.0 L 597.0,308.0 L 636.0,307.0 L 649.0,313.0"/>
    <path d="M 481.0,186.0 L 502.0,194.0 L 523.0,224.0 L 511.0,433.0"/>
    <path d="M 147.0,534.0 L 173.0,541.0 L 217.0,541.0 L 536.0,488.0 L 791.0,461.0 L 839.0,459.0 L 915.0,477.0"/>
    <path d="M 318.0,417.0 L 342.0,425.0 L 363.0,442.0 L 402.0,572.0"/>
    <path d="M 644.0,363.0 L 667.0,376.0 L 679.0,389.0 L 677.0,397.0 L 627.0,516.0 L 597.0,575.0 L 586.0,579.0"/>
    <path d="M 343.0,635.0 L 355.0,644.0 L 375.0,684.0 L 367.0,916.0"/>
    <path d="M 375.0,635.0 L 421.0,644.0 L 595.0,609.0 L 627.0,620.0 L 649.0,648.0 L 643.0,706.0 L 647.0,834.0 L 639.0,907.0"/>
    <path d="M 453.0,690.0 L 474.0,698.0 L 496.0,717.0 L 506.0,738.0 L 498.0,869.0 L 473.0,949.0 L 441.0,991.0 L 389.0,1027.0 L 323.0,1056.0 L 277.0,1066.0"/>
    <path d="M 558.0,946.0 L 668.0,1014.0 L 687.0,1032.0 L 709.0,1074.0"/>
  </g>
</svg>
