<svg xmlns="http://www.w3.org/2000/svg" viewBox="0 0 1024 1024">
  <g style="fill:none;stroke:#000000;stroke-width:50;stroke-linecap:round;stroke-linejoin:round;" transform="scale(1, 1) translate(0, 0)">
    <path d="M 134.0,327.0 L 159.0,351.0 L 169.0,372.0 L 171.0,479.0 L 160.0,726.0 L 165.0,770.0"/>
    <path d="M 196.0,361.0 L 215.0,348.0 L 250.0,344.0 L 330.0,321.0 L 351.0,326.0 L 378.0,355.0 L 371.0,453.0 L 374.0,678.0 L 367.0,744.0"/>
    <path d="M 229.0,442.0 L 246.0,448.0 L 274.0,474.0 L 271.0,638.0 L 251.0,777.0 L 228.0,841.0 L 194.0,894.0 L 145.0,937.0 L 107.0,962.0 L 81.0,969.0"/>
    <path d="M 308.0,823.0 L 373.0,881.0 L 384.0,918.0"/>
    <path d="M 772.0,297.0 L 756.0,291.0 L 705.0,289.0 L 614.0,353.0 L 477.0,417.0"/>
    <path d="M 553.0,441.0 L 618.0,474.0 L 647.0,510.0"/>
    <path d="M 459.0,605.0 L 484.0,613.0 L 522.0,611.0 L 716.0,546.0 L 750.0,549.0 L 774.0,568.0 L 738.0,620.0 L 700.0,657.0 L 603.0,731.0 L 505.0,790.0"/>
    <path d="M 395.0,801.0 L 423.0,814.0 L 473.0,811.0 L 522.0,820.0 L 759.0,937.0 L 800.0,939.0 L 965.0,916.0"/>
  </g>
</svg>
