<svg xmlns="http://www.w3.org/2000/svg" viewBox="0 0 1024 1024">
  <g style="fill:none;stroke:#000000;stroke-width:50;stroke-linecap:round;stroke-linejoin:round;" transform="scale(1, 1) translate(0, 0)">
    <path d="M 146.0,327.0 L 174.0,358.0 L 182.0,422.0 L 182.0,553.0 L 161.0,730.0 L 164.0,768.0"/>
    <path d="M 198.0,343.0 L 215.0,349.0 L 354.0,317.0 L 374.0,322.0 L 397.0,351.0 L 391.0,406.0 L 394.0,678.0 L 387.0,744.0"/>
    <path d="M 245.0,430.0 L 270.0,441.0 L 290.0,461.0 L 285.0,681.0 L 264.0,799.0 L 231.0,881.0 L 197.0,924.0 L 128.0,973.0 L 104.0,980.0"/>
    <path d="M 331.0,818.0 L 411.0,887.0 L 430.0,929.0"/>
    <path d="M 602.0,261.0 L 678.0,309.0 L 691.0,321.0 L 709.0,356.0"/>
    <path d="M 487.0,444.0 L 500.0,473.0 L 500.0,489.0 L 477.0,563.0 L 473.0,604.0"/>
    <path d="M 530.0,468.0 L 531.0,475.0 L 545.0,482.0 L 564.0,482.0 L 777.0,434.0 L 816.0,433.0 L 831.0,439.0 L 847.0,451.0 L 858.0,472.0 L 770.0,565.0"/>
    <path d="M 483.0,815.0 L 538.0,826.0 L 807.0,790.0 L 880.0,800.0"/>
  </g>
</svg>
