<svg xmlns="http://www.w3.org/2000/svg" viewBox="0 0 1024 1024">
  <g style="fill:none;stroke:#000000;stroke-width:50;stroke-linecap:round;stroke-linejoin:round;" transform="scale(1, 1) translate(0, 0)">
    <path d="M 150.0,339.0 L 206.0,344.0 L 412.0,294.0 L 448.0,290.0 L 463.0,298.0 L 476.0,312.0 L 459.0,394.0 L 448.0,432.0 L 420.0,489.0 L 388.0,517.0 L 316.0,474.0"/>
    <path d="M 332.0,187.0 L 352.0,211.0 L 353.0,230.0 L 331.0,324.0 L 304.0,385.0 L 274.0,435.0 L 231.0,488.0 L 138.0,569.0"/>
    <path d="M 548.0,284.0 L 570.0,302.0 L 582.0,322.0 L 608.0,480.0"/>
    <path d="M 598.0,286.0 L 618.0,295.0 L 751.0,263.0 L 786.0,270.0 L 808.0,296.0 L 782.0,375.0 L 755.0,391.0"/>
    <path d="M 628.0,455.0 L 644.0,441.0 L 745.0,423.0 L 801.0,421.0 L 823.0,429.0"/>
    <path d="M 325.0,574.0 L 335.0,578.0 L 363.0,619.0 L 362.0,750.0 L 349.0,833.0 L 351.0,888.0"/>
    <path d="M 377.0,585.0 L 409.0,595.0 L 604.0,552.0 L 626.0,556.0 L 650.0,576.0 L 661.0,591.0 L 657.0,704.0 L 662.0,800.0 L 655.0,875.0"/>
    <path d="M 449.0,636.0 L 469.0,645.0 L 500.0,676.0 L 493.0,784.0 L 481.0,855.0 L 451.0,944.0 L 423.0,986.0 L 372.0,1026.0 L 306.0,1058.0 L 260.0,1070.0"/>
    <path d="M 561.0,888.0 L 665.0,975.0 L 687.0,1003.0 L 702.0,1049.0"/>
  </g>
</svg>
