<svg xmlns="http://www.w3.org/2000/svg" viewBox="0 0 1024 1024">
  <g style="fill:none;stroke:#000000;stroke-width:50;stroke-linecap:round;stroke-linejoin:round;" transform="scale(1, 1) translate(0, 0)">
    <path d="M 318.0,250.0 L 373.0,258.0 L 532.0,234.0 L 644.0,210.0 L 679.0,213.0"/>
    <path d="M 198.0,375.0 L 232.0,401.0 L 275.0,554.0"/>
    <path d="M 261.0,380.0 L 282.0,391.0 L 489.0,350.0 L 693.0,322.0 L 744.0,324.0 L 772.0,349.0 L 780.0,374.0 L 708.0,514.0"/>
    <path d="M 374.0,281.0 L 402.0,299.0 L 410.0,311.0 L 422.0,467.0 L 409.0,484.0"/>
    <path d="M 537.0,260.0 L 574.0,285.0 L 546.0,450.0 L 529.0,468.0"/>
    <path d="M 293.0,537.0 L 308.0,522.0 L 351.0,515.0 L 690.0,473.0"/>
    <path d="M 335.0,583.0 L 351.0,595.0 L 367.0,624.0 L 369.0,711.0 L 357.0,831.0 L 359.0,884.0"/>
    <path d="M 385.0,591.0 L 408.0,602.0 L 437.0,599.0 L 578.0,568.0 L 599.0,572.0 L 617.0,588.0 L 630.0,610.0 L 627.0,689.0 L 633.0,813.0 L 627.0,879.0"/>
    <path d="M 446.0,657.0 L 478.0,675.0 L 497.0,701.0 L 486.0,844.0 L 465.0,918.0 L 435.0,963.0 L 389.0,997.0 L 316.0,1030.0 L 244.0,1046.0"/>
    <path d="M 552.0,916.0 L 673.0,995.0 L 703.0,1028.0 L 717.0,1061.0"/>
  </g>
</svg>
