<svg xmlns="http://www.w3.org/2000/svg" viewBox="0 0 1024 1024">
  <g style="fill:none;stroke:#000000;stroke-width:50;stroke-linecap:round;stroke-linejoin:round;" transform="scale(1, 1) translate(0, 0)">
    <path d="M 338.0,212.0 L 355.0,236.0 L 361.0,260.0 L 332.0,304.0 L 269.0,378.0 L 221.0,424.0 L 168.0,470.0 L 105.0,512.0"/>
    <path d="M 319.0,366.0 L 311.0,499.0 L 316.0,555.0"/>
    <path d="M 413.0,388.0 L 439.0,389.0 L 491.0,378.0 L 664.0,305.0 L 699.0,295.0 L 727.0,297.0"/>
    <path d="M 463.0,179.0 L 493.0,194.0 L 516.0,215.0 L 548.0,307.0 L 585.0,371.0 L 616.0,411.0 L 679.0,478.0 L 747.0,527.0 L 794.0,549.0 L 840.0,553.0 L 853.0,498.0 L 859.0,416.0"/>
    <path d="M 697.0,175.0 L 780.0,229.0 L 798.0,257.0"/>
    <path d="M 338.0,583.0 L 372.0,625.0 L 372.0,746.0 L 357.0,878.0 L 360.0,916.0"/>
    <path d="M 397.0,600.0 L 415.0,606.0 L 605.0,564.0 L 627.0,568.0 L 648.0,588.0 L 658.0,603.0 L 656.0,696.0 L 664.0,840.0 L 658.0,906.0"/>
    <path d="M 462.0,647.0 L 482.0,656.0 L 512.0,687.0 L 498.0,825.0 L 479.0,901.0 L 459.0,945.0 L 423.0,991.0 L 372.0,1026.0 L 307.0,1054.0 L 240.0,1071.0"/>
    <path d="M 570.0,921.0 L 660.0,986.0 L 697.0,1020.0 L 717.0,1050.0 L 729.0,1085.0"/>
  </g>
</svg>
