<svg xmlns="http://www.w3.org/2000/svg" viewBox="0 0 1024 1024">
  <g style="fill:none;stroke:#000000;stroke-width:50;stroke-linecap:round;stroke-linejoin:round;" transform="scale(1, 1) translate(0, 0)">
    <path d="M 385.0,182.0 L 401.0,220.0 L 303.0,288.0 L 275.0,304.0 L 266.0,301.0"/>
    <path d="M 207.0,293.0 L 227.0,305.0 L 245.0,334.0 L 247.0,440.0 L 260.0,486.0 L 303.0,471.0 L 402.0,405.0 L 429.0,394.0"/>
    <path d="M 395.0,314.0 L 452.0,367.0 L 467.0,404.0"/>
    <path d="M 502.0,268.0 L 552.0,278.0 L 773.0,240.0 L 802.0,247.0 L 817.0,264.0 L 800.0,357.0 L 781.0,408.0 L 756.0,441.0 L 734.0,453.0 L 644.0,405.0"/>
    <path d="M 594.0,298.0 L 613.0,321.0 L 591.0,363.0 L 530.0,441.0 L 475.0,483.0"/>
    <path d="M 329.0,526.0 L 349.0,542.0 L 367.0,575.0 L 368.0,656.0 L 355.0,797.0 L 355.0,860.0"/>
    <path d="M 386.0,539.0 L 395.0,547.0 L 419.0,551.0 L 621.0,507.0 L 642.0,512.0 L 664.0,533.0 L 674.0,549.0 L 669.0,665.0 L 674.0,789.0 L 666.0,859.0"/>
    <path d="M 462.0,625.0 L 494.0,643.0 L 513.0,669.0 L 504.0,814.0 L 481.0,899.0 L 443.0,953.0 L 407.0,979.0 L 321.0,1018.0 L 264.0,1030.0"/>
    <path d="M 578.0,892.0 L 696.0,979.0 L 721.0,1011.0 L 733.0,1047.0"/>
  </g>
</svg>
