<svg xmlns="http://www.w3.org/2000/svg" viewBox="0 0 1024 1024">
  <g style="fill:none;stroke:#000000;stroke-width:50;stroke-linecap:round;stroke-linejoin:round;" transform="scale(1, 1) translate(0, 0)">
    <path d="M 355.0,205.0 L 372.0,229.0 L 377.0,254.0 L 365.0,268.0 L 269.0,371.0 L 184.0,439.0 L 110.0,484.0"/>
    <path d="M 321.0,366.0 L 318.0,386.0 L 327.0,405.0 L 314.0,539.0 L 319.0,585.0"/>
    <path d="M 752.0,245.0 L 691.0,228.0 L 624.0,263.0 L 497.0,302.0 L 484.0,298.0 L 472.0,307.0"/>
    <path d="M 409.0,412.0 L 461.0,416.0 L 793.0,355.0 L 837.0,356.0 L 885.0,368.0"/>
    <path d="M 604.0,292.0 L 632.0,321.0 L 627.0,456.0 L 610.0,480.0"/>
    <path d="M 476.0,517.0 L 520.0,522.0 L 731.0,487.0 L 775.0,490.0 L 805.0,499.0"/>
    <path d="M 362.0,590.0 L 390.0,623.0 L 393.0,645.0 L 380.0,892.0"/>
    <path d="M 423.0,610.0 L 432.0,618.0 L 460.0,611.0 L 470.0,614.0 L 477.0,608.0 L 626.0,576.0 L 642.0,578.0 L 659.0,589.0 L 678.0,617.0 L 678.0,824.0 L 671.0,891.0"/>
    <path d="M 482.0,666.0 L 500.0,675.0 L 526.0,704.0 L 505.0,852.0 L 488.0,906.0 L 466.0,948.0 L 423.0,992.0 L 391.0,1010.0 L 319.0,1038.0 L 252.0,1048.0"/>
    <path d="M 586.0,904.0 L 702.0,996.0 L 730.0,1039.0 L 734.0,1061.0"/>
  </g>
</svg>
