<svg xmlns="http://www.w3.org/2000/svg" viewBox="0 0 1024 1024">
  <g style="fill:none;stroke:#000000;stroke-width:50;stroke-linecap:round;stroke-linejoin:round;" transform="scale(1, 1) translate(0, 0)">
    <path d="M 148.0,326.0 L 175.0,357.0 L 180.0,400.0 L 179.0,568.0 L 163.0,689.0 L 163.0,740.0"/>
    <path d="M 205.0,342.0 L 218.0,349.0 L 336.0,317.0 L 355.0,321.0 L 382.0,350.0 L 376.0,399.0 L 381.0,669.0 L 374.0,723.0"/>
    <path d="M 245.0,434.0 L 267.0,443.0 L 286.0,461.0 L 280.0,639.0 L 260.0,772.0 L 237.0,833.0 L 206.0,879.0 L 143.0,936.0 L 94.0,961.0"/>
    <path d="M 287.0,751.0 L 343.0,794.0 L 362.0,828.0"/>
    <path d="M 594.0,219.0 L 678.0,260.0 L 710.0,296.0"/>
    <path d="M 526.0,419.0 L 547.0,432.0 L 791.0,376.0 L 862.0,377.0"/>
    <path d="M 462.0,404.0 L 488.0,429.0 L 496.0,453.0 L 487.0,616.0 L 465.0,739.0 L 434.0,837.0 L 407.0,899.0 L 375.0,954.0 L 327.0,1015.0"/>
    <path d="M 556.0,711.0 L 627.0,712.0 L 808.0,666.0 L 848.0,665.0"/>
    <path d="M 649.0,503.0 L 693.0,538.0 L 695.0,554.0 L 687.0,867.0 L 671.0,889.0"/>
    <path d="M 481.0,936.0 L 534.0,941.0 L 647.0,918.0 L 832.0,892.0 L 899.0,894.0 L 929.0,904.0"/>
  </g>
</svg>
