<svg xmlns="http://www.w3.org/2000/svg" viewBox="0 0 1024 1024">
  <g style="fill:none;stroke:#000000;stroke-width:50;stroke-linecap:round;stroke-linejoin:round;" transform="scale(1, 1) translate(0, 0)">
    <path d="M 450.0,171.0 L 519.0,202.0 L 549.0,235.0"/>
    <path d="M 316.0,306.0 L 334.0,315.0 L 375.0,314.0 L 510.0,297.0 L 677.0,262.0 L 714.0,263.0"/>
    <path d="M 240.0,279.0 L 262.0,298.0 L 277.0,323.0 L 260.0,498.0 L 233.0,634.0 L 196.0,745.0 L 156.0,831.0 L 91.0,931.0 L 45.0,982.0"/>
    <path d="M 370.0,399.0 L 408.0,404.0 L 621.0,363.0 L 643.0,366.0 L 673.0,393.0 L 641.0,501.0 L 622.0,517.0"/>
    <path d="M 308.0,494.0 L 350.0,500.0 L 553.0,464.0 L 760.0,442.0 L 805.0,445.0 L 834.0,454.0"/>
    <path d="M 349.0,576.0 L 390.0,579.0 L 651.0,542.0 L 685.0,553.0"/>
    <path d="M 480.0,324.0 L 502.0,346.0 L 508.0,360.0 L 505.0,382.0 L 458.0,547.0 L 422.0,625.0 L 396.0,668.0 L 329.0,740.0 L 286.0,772.0 L 241.0,795.0 L 218.0,800.0"/>
    <path d="M 596.0,573.0 L 621.0,584.0 L 698.0,649.0 L 800.0,716.0 L 877.0,732.0 L 961.0,734.0"/>
    <path d="M 418.0,686.0 L 401.0,880.0 L 404.0,914.0"/>
    <path d="M 437.0,686.0 L 445.0,694.0 L 486.0,688.0 L 586.0,661.0 L 606.0,664.0 L 628.0,684.0 L 633.0,692.0 L 629.0,768.0 L 634.0,842.0 L 626.0,906.0"/>
    <path d="M 471.0,736.0 L 487.0,742.0 L 515.0,770.0 L 506.0,878.0 L 477.0,959.0 L 451.0,992.0 L 399.0,1029.0 L 335.0,1053.0 L 302.0,1055.0"/>
    <path d="M 574.0,947.0 L 620.0,971.0 L 686.0,1018.0 L 714.0,1068.0"/>
  </g>
</svg>
