<svg xmlns="http://www.w3.org/2000/svg" viewBox="0 0 1024 1024">
  <g style="fill:none;stroke:#000000;stroke-width:50;stroke-linecap:round;stroke-linejoin:round;" transform="scale(1, 1) translate(0, 0)">
    <path d="M 479.0,169.0 L 513.0,203.0 L 507.0,325.0 L 492.0,338.0"/>
    <path d="M 328.0,246.0 L 387.0,279.0 L 411.0,312.0"/>
    <path d="M 674.0,186.0 L 688.0,218.0 L 585.0,299.0"/>
    <path d="M 233.0,350.0 L 243.0,382.0 L 240.0,396.0 L 190.0,496.0 L 182.0,542.0"/>
    <path d="M 274.0,386.0 L 281.0,395.0 L 312.0,395.0 L 598.0,349.0 L 757.0,336.0 L 793.0,354.0 L 806.0,374.0 L 742.0,451.0"/>
    <path d="M 346.0,445.0 L 376.0,475.0 L 408.0,592.0"/>
    <path d="M 399.0,450.0 L 410.0,458.0 L 524.0,438.0 L 582.0,421.0 L 601.0,423.0 L 628.0,450.0 L 608.0,493.0 L 587.0,503.0"/>
    <path d="M 421.0,549.0 L 431.0,556.0 L 581.0,531.0 L 627.0,538.0"/>
    <path d="M 325.0,618.0 L 350.0,644.0 L 355.0,668.0 L 344.0,917.0"/>
    <path d="M 379.0,635.0 L 389.0,643.0 L 406.0,645.0 L 606.0,602.0 L 627.0,606.0 L 639.0,616.0 L 656.0,638.0 L 651.0,724.0 L 655.0,836.0 L 647.0,908.0"/>
    <path d="M 450.0,700.0 L 492.0,728.0 L 500.0,745.0 L 488.0,880.0 L 466.0,948.0 L 448.0,977.0 L 411.0,1010.0 L 324.0,1048.0 L 249.0,1063.0"/>
    <path d="M 565.0,920.0 L 679.0,1011.0 L 701.0,1043.0 L 711.0,1073.0"/>
  </g>
</svg>
