<svg xmlns="http://www.w3.org/2000/svg" viewBox="0 0 1024 1024">
  <g style="fill:none;stroke:#000000;stroke-width:50;stroke-linecap:round;stroke-linejoin:round;" transform="scale(1, 1) translate(0, 0)">
    <path d="M 372.0,225.0 L 394.0,269.0 L 393.0,349.0 L 379.0,431.0 L 382.0,467.0"/>
    <path d="M 411.0,233.0 L 431.0,245.0 L 510.0,235.0 L 609.0,208.0 L 632.0,208.0 L 650.0,218.0 L 671.0,243.0 L 668.0,395.0 L 661.0,459.0"/>
    <path d="M 473.0,287.0 L 493.0,296.0 L 522.0,324.0 L 504.0,469.0 L 471.0,538.0 L 437.0,562.0 L 380.0,584.0 L 309.0,601.0 L 267.0,606.0 L 260.0,602.0"/>
    <path d="M 578.0,475.0 L 706.0,560.0 L 728.0,584.0 L 740.0,608.0"/>
    <path d="M 187.0,676.0 L 210.0,704.0 L 215.0,726.0 L 218.0,791.0 L 212.0,882.0 L 219.0,925.0"/>
    <path d="M 237.0,690.0 L 249.0,697.0 L 279.0,692.0 L 389.0,663.0 L 402.0,666.0 L 428.0,694.0 L 425.0,765.0 L 431.0,871.0 L 425.0,923.0"/>
    <path d="M 283.0,739.0 L 301.0,745.0 L 326.0,774.0 L 321.0,878.0 L 305.0,950.0 L 282.0,988.0 L 226.0,1030.0 L 149.0,1054.0"/>
    <path d="M 332.0,938.0 L 430.0,998.0 L 460.0,1041.0"/>
    <path d="M 550.0,676.0 L 573.0,704.0 L 578.0,726.0 L 581.0,791.0 L 575.0,882.0 L 581.0,924.0"/>
    <path d="M 600.0,690.0 L 612.0,697.0 L 641.0,693.0 L 752.0,663.0 L 764.0,666.0 L 786.0,688.0 L 793.0,834.0 L 788.0,923.0"/>
    <path d="M 645.0,739.0 L 663.0,745.0 L 686.0,765.0 L 689.0,780.0 L 684.0,878.0 L 668.0,949.0 L 638.0,995.0 L 607.0,1019.0 L 557.0,1044.0 L 512.0,1054.0"/>
    <path d="M 695.0,938.0 L 710.0,951.0 L 793.0,989.0 L 840.0,1028.0 L 852.0,1050.0"/>
  </g>
</svg>
