<svg xmlns="http://www.w3.org/2000/svg" viewBox="0 0 1024 1024">
  <g style="fill:none;stroke:#000000;stroke-width:50;stroke-linecap:round;stroke-linejoin:round;" transform="scale(1, 1) translate(0, 0)">
    <path d="M 139.0,298.0 L 164.0,325.0 L 171.0,364.0 L 170.0,558.0 L 161.0,669.0 L 165.0,722.0"/>
    <path d="M 191.0,312.0 L 229.0,315.0 L 306.0,291.0 L 335.0,288.0 L 347.0,291.0 L 374.0,321.0 L 366.0,450.0 L 368.0,669.0 L 360.0,737.0"/>
    <path d="M 234.0,375.0 L 253.0,383.0 L 279.0,407.0 L 273.0,572.0 L 251.0,707.0 L 217.0,793.0 L 192.0,830.0 L 134.0,885.0 L 82.0,912.0"/>
    <path d="M 298.0,763.0 L 330.0,790.0 L 348.0,817.0"/>
    <path d="M 446.0,293.0 L 482.0,324.0 L 487.0,343.0 L 490.0,449.0 L 479.0,611.0 L 459.0,707.0 L 430.0,799.0 L 390.0,880.0 L 351.0,939.0"/>
    <path d="M 515.0,303.0 L 538.0,311.0 L 757.0,261.0 L 793.0,269.0 L 821.0,299.0 L 819.0,367.0 L 839.0,703.0 L 843.0,905.0 L 831.0,946.0 L 818.0,960.0 L 782.0,947.0 L 713.0,906.0"/>
    <path d="M 538.0,463.0 L 682.0,432.0 L 711.0,430.0 L 734.0,436.0"/>
    <path d="M 603.0,320.0 L 638.0,340.0 L 633.0,507.0 L 617.0,534.0"/>
    <path d="M 531.0,571.0 L 698.0,543.0 L 721.0,541.0 L 742.0,547.0"/>
    <path d="M 520.0,654.0 L 544.0,674.0 L 578.0,817.0"/>
    <path d="M 571.0,673.0 L 584.0,663.0 L 643.0,645.0 L 679.0,637.0 L 697.0,642.0 L 714.0,665.0 L 695.0,718.0 L 669.0,733.0"/>
    <path d="M 593.0,783.0 L 611.0,770.0 L 658.0,762.0 L 726.0,764.0"/>
  </g>
</svg>
