<svg xmlns="http://www.w3.org/2000/svg" viewBox="0 0 1024 1024">
  <g style="fill:none;stroke:#000000;stroke-width:50;stroke-linecap:round;stroke-linejoin:round;" transform="scale(1, 1) translate(0, 0)">
    <path d="M 140.0,354.0 L 167.0,384.0 L 175.0,449.0 L 175.0,575.0 L 157.0,713.0 L 159.0,756.0"/>
    <path d="M 192.0,370.0 L 210.0,378.0 L 338.0,338.0 L 350.0,342.0 L 378.0,372.0 L 371.0,466.0 L 374.0,692.0 L 367.0,752.0"/>
    <path d="M 231.0,451.0 L 247.0,456.0 L 275.0,480.0 L 269.0,690.0 L 245.0,821.0 L 223.0,874.0 L 193.0,910.0 L 140.0,952.0 L 106.0,971.0 L 76.0,978.0"/>
    <path d="M 318.0,815.0 L 376.0,873.0 L 396.0,918.0"/>
    <path d="M 574.0,217.0 L 669.0,266.0 L 699.0,305.0"/>
    <path d="M 482.0,414.0 L 505.0,421.0 L 560.0,420.0 L 749.0,379.0 L 815.0,376.0"/>
    <path d="M 514.0,492.0 L 557.0,551.0 L 568.0,580.0"/>
    <path d="M 711.0,420.0 L 739.0,450.0 L 676.0,595.0 L 663.0,607.0"/>
    <path d="M 403.0,656.0 L 435.0,667.0 L 461.0,666.0 L 615.0,633.0 L 866.0,601.0 L 900.0,603.0 L 949.0,617.0"/>
    <path d="M 472.0,778.0 L 499.0,800.0 L 509.0,818.0 L 548.0,996.0"/>
    <path d="M 526.0,778.0 L 538.0,786.0 L 558.0,786.0 L 724.0,746.0 L 748.0,748.0 L 783.0,781.0 L 752.0,879.0 L 726.0,901.0"/>
    <path d="M 567.0,971.0 L 582.0,956.0 L 716.0,930.0 L 775.0,926.0 L 798.0,934.0"/>
  </g>
</svg>
