<svg xmlns="http://www.w3.org/2000/svg" viewBox="0 0 1024 1024">
  <g style="fill:none;stroke:#000000;stroke-width:50;stroke-linecap:round;stroke-linejoin:round;" transform="scale(1, 1) translate(0, 0)">
    <path d="M 140.0,302.0 L 168.0,333.0 L 174.0,377.0 L 175.0,541.0 L 157.0,689.0 L 159.0,724.0"/>
    <path d="M 199.0,337.0 L 220.0,323.0 L 324.0,299.0 L 349.0,304.0 L 373.0,332.0 L 366.0,405.0 L 370.0,650.0 L 363.0,712.0"/>
    <path d="M 228.0,418.0 L 251.0,427.0 L 270.0,446.0 L 265.0,655.0 L 249.0,746.0 L 224.0,823.0 L 201.0,862.0 L 148.0,913.0 L 112.0,937.0 L 88.0,945.0"/>
    <path d="M 297.0,755.0 L 357.0,817.0 L 366.0,844.0"/>
    <path d="M 480.0,226.0 L 530.0,260.0 L 546.0,276.0 L 558.0,302.0"/>
    <path d="M 700.0,166.0 L 722.0,197.0 L 621.0,322.0"/>
    <path d="M 453.0,391.0 L 483.0,397.0 L 526.0,395.0 L 651.0,369.0 L 745.0,339.0 L 788.0,333.0 L 811.0,337.0"/>
    <path d="M 446.0,510.0 L 503.0,511.0 L 705.0,462.0 L 744.0,459.0 L 777.0,487.0 L 748.0,615.0 L 727.0,637.0"/>
    <path d="M 416.0,609.0 L 465.0,614.0 L 574.0,591.0 L 839.0,554.0 L 889.0,554.0 L 933.0,565.0"/>
    <path d="M 436.0,707.0 L 456.0,712.0 L 488.0,708.0 L 717.0,665.0 L 762.0,665.0 L 783.0,673.0"/>
    <path d="M 497.0,418.0 L 531.0,454.0 L 534.0,492.0 L 526.0,830.0 L 507.0,958.0 L 513.0,1019.0"/>
    <path d="M 619.0,398.0 L 639.0,414.0 L 640.0,426.0 L 638.0,1042.0"/>
    <path d="M 506.0,727.0 L 489.0,788.0 L 471.0,815.0 L 392.0,902.0 L 313.0,958.0"/>
    <path d="M 667.0,715.0 L 742.0,817.0 L 826.0,905.0 L 952.0,936.0"/>
  </g>
</svg>
