<svg xmlns="http://www.w3.org/2000/svg" viewBox="0 0 1024 1024">
  <g style="fill:none;stroke:#000000;stroke-width:50;stroke-linecap:round;stroke-linejoin:round;" transform="scale(1, 1) translate(0, 0)">
    <path d="M 213.0,303.0 L 285.0,306.0 L 396.0,287.0 L 462.0,268.0 L 497.0,270.0"/>
    <path d="M 247.0,385.0 L 281.0,389.0 L 427.0,361.0 L 469.0,364.0"/>
    <path d="M 334.0,183.0 L 367.0,217.0 L 362.0,418.0 L 349.0,439.0"/>
    <path d="M 175.0,485.0 L 230.0,487.0 L 426.0,444.0 L 473.0,448.0"/>
    <path d="M 351.0,493.0 L 388.0,506.0 L 413.0,531.0 L 381.0,605.0 L 359.0,636.0 L 338.0,648.0 L 279.0,613.0"/>
    <path d="M 340.0,488.0 L 314.0,510.0 L 265.0,579.0 L 231.0,608.0 L 158.0,654.0 L 125.0,661.0 L 118.0,669.0"/>
    <path d="M 612.0,192.0 L 640.0,227.0 L 630.0,254.0 L 572.0,364.0 L 514.0,432.0"/>
    <path d="M 603.0,349.0 L 678.0,344.0 L 823.0,310.0 L 847.0,313.0"/>
    <path d="M 698.0,369.0 L 718.0,391.0 L 692.0,449.0 L 651.0,511.0 L 586.0,564.0 L 542.0,584.0 L 488.0,595.0"/>
    <path d="M 557.0,427.0 L 608.0,452.0 L 702.0,541.0 L 803.0,606.0 L 953.0,621.0"/>
    <path d="M 383.0,660.0 L 392.0,695.0 L 393.0,765.0 L 377.0,874.0 L 380.0,909.0"/>
    <path d="M 410.0,662.0 L 430.0,673.0 L 507.0,663.0 L 614.0,636.0 L 647.0,646.0 L 668.0,672.0 L 667.0,832.0 L 659.0,899.0"/>
    <path d="M 472.0,719.0 L 512.0,747.0 L 519.0,768.0 L 505.0,892.0 L 492.0,938.0 L 471.0,978.0 L 446.0,1001.0 L 408.0,1020.0 L 336.0,1042.0 L 256.0,1051.0"/>
    <path d="M 578.0,931.0 L 702.0,1017.0 L 719.0,1034.0 L 738.0,1074.0"/>
  </g>
</svg>
