<svg xmlns="http://www.w3.org/2000/svg" viewBox="0 0 1024 1024">
  <g style="fill:none;stroke:#000000;stroke-width:50;stroke-linecap:round;stroke-linejoin:round;" transform="scale(1, 1) translate(0, 0)">
    <path d="M 160.0,366.0 L 188.0,396.0 L 195.0,465.0 L 193.0,632.0 L 177.0,747.0 L 179.0,792.0"/>
    <path d="M 219.0,385.0 L 228.0,391.0 L 348.0,350.0 L 364.0,350.0 L 401.0,385.0 L 395.0,443.0 L 398.0,726.0 L 391.0,795.0"/>
    <path d="M 256.0,458.0 L 273.0,464.0 L 302.0,491.0 L 294.0,680.0 L 275.0,799.0 L 253.0,864.0 L 226.0,915.0 L 191.0,957.0 L 145.0,993.0 L 125.0,1000.0"/>
    <path d="M 323.0,843.0 L 384.0,907.0 L 391.0,933.0"/>
    <path d="M 486.0,413.0 L 529.0,449.0 L 548.0,475.0"/>
    <path d="M 783.0,317.0 L 797.0,353.0 L 688.0,437.0"/>
    <path d="M 608.0,239.0 L 643.0,268.0 L 647.0,282.0 L 644.0,366.0 L 628.0,471.0 L 614.0,513.0 L 584.0,568.0 L 533.0,622.0 L 502.0,640.0"/>
    <path d="M 669.0,501.0 L 769.0,554.0 L 804.0,600.0"/>
    <path d="M 467.0,726.0 L 523.0,765.0 L 539.0,792.0"/>
    <path d="M 791.0,652.0 L 804.0,674.0 L 805.0,695.0 L 688.0,765.0"/>
    <path d="M 600.0,641.0 L 634.0,675.0 L 632.0,712.0 L 621.0,789.0 L 584.0,891.0 L 558.0,928.0 L 525.0,959.0 L 446.0,1006.0 L 418.0,1013.0"/>
    <path d="M 649.0,809.0 L 651.0,825.0 L 711.0,892.0 L 833.0,1006.0 L 977.0,1031.0"/>
  </g>
</svg>
