<svg xmlns="http://www.w3.org/2000/svg" viewBox="0 0 1024 1024">
  <g style="fill:none;stroke:#000000;stroke-width:50;stroke-linecap:round;stroke-linejoin:round;" transform="scale(1, 1) translate(0, 0)">
    <path d="M 345.0,257.0 L 381.0,268.0 L 459.0,264.0 L 719.0,217.0 L 773.0,220.0"/>
    <path d="M 271.0,230.0 L 306.0,268.0 L 309.0,291.0 L 291.0,442.0 L 252.0,616.0 L 219.0,716.0 L 157.0,836.0 L 109.0,903.0 L 65.0,950.0"/>
    <path d="M 427.0,315.0 L 446.0,348.0 L 435.0,370.0 L 368.0,458.0 L 321.0,500.0"/>
    <path d="M 391.0,463.0 L 403.0,501.0 L 397.0,605.0 L 401.0,637.0"/>
    <path d="M 532.0,297.0 L 552.0,327.0 L 545.0,343.0 L 490.0,423.0 L 448.0,464.0"/>
    <path d="M 495.0,447.0 L 508.0,489.0 L 509.0,645.0"/>
    <path d="M 617.0,289.0 L 666.0,313.0 L 680.0,327.0"/>
    <path d="M 571.0,380.0 L 612.0,384.0 L 735.0,354.0 L 771.0,353.0"/>
    <path d="M 594.0,465.0 L 635.0,461.0 L 716.0,439.0 L 754.0,443.0"/>
    <path d="M 588.0,545.0 L 637.0,539.0 L 712.0,518.0 L 749.0,514.0 L 765.0,519.0"/>
    <path d="M 643.0,400.0 L 660.0,410.0 L 668.0,423.0 L 668.0,562.0 L 666.0,573.0 L 655.0,582.0"/>
    <path d="M 536.0,627.0 L 739.0,592.0 L 775.0,590.0 L 823.0,599.0"/>
    <path d="M 413.0,697.0 L 436.0,722.0 L 440.0,736.0 L 438.0,817.0 L 426.0,885.0 L 428.0,925.0"/>
    <path d="M 461.0,709.0 L 475.0,717.0 L 500.0,714.0 L 638.0,682.0 L 664.0,694.0 L 680.0,714.0 L 677.0,792.0 L 682.0,866.0 L 674.0,930.0"/>
    <path d="M 513.0,760.0 L 531.0,770.0 L 557.0,800.0 L 542.0,902.0 L 514.0,969.0 L 487.0,1000.0 L 454.0,1020.0 L 396.0,1042.0 L 330.0,1053.0 L 323.0,1049.0"/>
    <path d="M 598.0,958.0 L 705.0,1021.0 L 743.0,1076.0"/>
  </g>
</svg>
