<svg xmlns="http://www.w3.org/2000/svg" viewBox="0 0 1024 1024">
  <g style="fill:none;stroke:#000000;stroke-width:50;stroke-linecap:round;stroke-linejoin:round;" transform="scale(1, 1) translate(0, 0)">
    <path d="M 314.0,417.0 L 343.0,423.0 L 415.0,419.0 L 636.0,372.0 L 692.0,370.0"/>
    <path d="M 475.0,203.0 L 521.0,241.0 L 514.0,515.0 L 498.0,539.0"/>
    <path d="M 165.0,611.0 L 225.0,617.0 L 368.0,584.0 L 752.0,525.0 L 785.0,525.0 L 846.0,540.0"/>
    <path d="M 487.0,590.0 L 519.0,615.0 L 513.0,828.0 L 531.0,861.0"/>
    <path d="M 547.0,737.0 L 580.0,721.0 L 686.0,697.0 L 733.0,701.0"/>
    <path d="M 323.0,679.0 L 350.0,721.0 L 307.0,821.0 L 226.0,939.0 L 147.0,1012.0 L 114.0,1034.0"/>
    <path d="M 378.0,763.0 L 398.0,794.0 L 516.0,888.0 L 684.0,992.0 L 762.0,1021.0 L 920.0,1020.0 L 947.0,1014.0"/>
  </g>
</svg>
