<svg xmlns="http://www.w3.org/2000/svg" viewBox="0 0 1024 1024">
  <g style="fill:none;stroke:#000000;stroke-width:50;stroke-linecap:round;stroke-linejoin:round;" transform="scale(1, 1) translate(0, 0)">
    <path d="M 212.0,407.0 L 267.0,409.0 L 399.0,377.0 L 440.0,377.0"/>
    <path d="M 302.0,239.0 L 343.0,276.0 L 335.0,484.0 L 318.0,509.0"/>
    <path d="M 100.0,568.0 L 136.0,575.0 L 161.0,573.0 L 387.0,519.0 L 441.0,512.0 L 463.0,515.0"/>
    <path d="M 228.0,582.0 L 253.0,596.0 L 265.0,612.0 L 259.0,724.0 L 244.0,804.0 L 200.0,893.0 L 158.0,939.0 L 123.0,960.0"/>
    <path d="M 351.0,553.0 L 383.0,579.0 L 379.0,919.0 L 360.0,956.0 L 279.0,918.0"/>
    <path d="M 161.0,691.0 L 150.0,747.0 L 124.0,820.0"/>
    <path d="M 409.0,669.0 L 463.0,706.0 L 475.0,728.0"/>
    <path d="M 544.0,411.0 L 602.0,415.0 L 711.0,388.0 L 755.0,389.0"/>
    <path d="M 616.0,207.0 L 659.0,245.0 L 647.0,506.0 L 630.0,532.0"/>
    <path d="M 468.0,576.0 L 519.0,581.0 L 605.0,560.0 L 853.0,518.0 L 933.0,530.0"/>
    <path d="M 874.0,341.0 L 821.0,355.0 L 752.0,488.0 L 594.0,717.0 L 488.0,841.0 L 421.0,896.0"/>
    <path d="M 561.0,694.0 L 573.0,703.0 L 588.0,737.0 L 583.0,920.0 L 589.0,975.0"/>
    <path d="M 630.0,709.0 L 654.0,693.0 L 754.0,662.0 L 770.0,667.0 L 796.0,695.0 L 798.0,927.0 L 785.0,961.0 L 727.0,948.0"/>
    <path d="M 617.0,820.0 L 626.0,808.0 L 655.0,800.0 L 698.0,795.0 L 720.0,801.0"/>
    <path d="M 610.0,948.0 L 631.0,936.0 L 700.0,925.0 L 746.0,928.0"/>
  </g>
</svg>
