<svg xmlns="http://www.w3.org/2000/svg" viewBox="0 0 1024 1024">
  <g style="fill:none;stroke:#000000;stroke-width:50;stroke-linecap:round;stroke-linejoin:round;" transform="scale(1, 1) translate(0, 0)">
    <path d="M 216.0,422.0 L 288.0,421.0 L 394.0,389.0 L 449.0,385.0"/>
    <path d="M 303.0,223.0 L 325.0,237.0 L 347.0,262.0 L 338.0,492.0 L 333.0,510.0 L 322.0,521.0"/>
    <path d="M 96.0,592.0 L 112.0,597.0 L 159.0,595.0 L 387.0,529.0 L 437.0,520.0 L 461.0,523.0"/>
    <path d="M 243.0,601.0 L 269.0,618.0 L 263.0,692.0 L 249.0,761.0 L 206.0,869.0 L 144.0,952.0"/>
    <path d="M 348.0,569.0 L 376.0,588.0 L 376.0,812.0 L 370.0,876.0 L 355.0,905.0 L 275.0,873.0"/>
    <path d="M 165.0,683.0 L 155.0,739.0 L 124.0,824.0"/>
    <path d="M 409.0,637.0 L 415.0,649.0 L 438.0,656.0 L 471.0,679.0"/>
    <path d="M 555.0,388.0 L 615.0,391.0 L 771.0,349.0 L 810.0,354.0"/>
    <path d="M 632.0,187.0 L 675.0,225.0 L 663.0,475.0 L 646.0,502.0"/>
    <path d="M 480.0,548.0 L 503.0,553.0 L 538.0,550.0 L 833.0,493.0 L 882.0,493.0 L 929.0,504.0"/>
    <path d="M 567.0,572.0 L 599.0,585.0 L 605.0,594.0 L 600.0,710.0 L 584.0,809.0 L 560.0,873.0 L 536.0,913.0 L 488.0,968.0 L 442.0,997.0"/>
    <path d="M 697.0,550.0 L 712.0,554.0 L 734.0,577.0 L 737.0,915.0 L 730.0,967.0 L 709.0,1001.0 L 668.0,984.0 L 620.0,951.0"/>
    <path d="M 522.0,695.0 L 517.0,728.0 L 487.0,809.0"/>
    <path d="M 798.0,687.0 L 904.0,760.0 L 928.0,796.0 L 934.0,816.0"/>
  </g>
</svg>
