<svg xmlns="http://www.w3.org/2000/svg" viewBox="0 0 1024 1024">
  <g style="fill:none;stroke:#000000;stroke-width:50;stroke-linecap:round;stroke-linejoin:round;" transform="scale(1, 1) translate(0, 0)">
    <path d="M 220.0,467.0 L 276.0,471.0 L 426.0,434.0 L 476.0,433.0"/>
    <path d="M 313.0,235.0 L 361.0,275.0 L 354.0,544.0 L 337.0,571.0"/>
    <path d="M 60.0,640.0 L 77.0,646.0 L 122.0,646.0 L 460.0,565.0 L 516.0,567.0"/>
    <path d="M 331.0,616.0 L 358.0,637.0 L 360.0,645.0 L 357.0,816.0 L 372.0,844.0"/>
    <path d="M 392.0,734.0 L 404.0,717.0 L 422.0,712.0 L 461.0,705.0 L 496.0,711.0"/>
    <path d="M 189.0,694.0 L 219.0,731.0 L 179.0,839.0 L 151.0,888.0 L 114.0,936.0 L 41.0,1005.0"/>
    <path d="M 241.0,785.0 L 244.0,796.0 L 289.0,824.0 L 436.0,905.0 L 547.0,955.0 L 690.0,1003.0 L 769.0,1012.0 L 961.0,972.0"/>
    <path d="M 564.0,399.0 L 586.0,421.0 L 599.0,449.0 L 601.0,538.0 L 586.0,676.0 L 629.0,673.0 L 724.0,645.0 L 736.0,629.0"/>
    <path d="M 721.0,241.0 L 748.0,262.0 L 770.0,291.0 L 769.0,680.0 L 758.0,833.0 L 761.0,922.0"/>
  </g>
</svg>
