<svg xmlns="http://www.w3.org/2000/svg" viewBox="0 0 1024 1024">
  <g style="fill:none;stroke:#000000;stroke-width:50;stroke-linecap:round;stroke-linejoin:round;" transform="scale(1, 1) translate(0, 0)">
    <path d="M 224.0,434.0 L 280.0,437.0 L 350.0,424.0 L 459.0,393.0 L 501.0,394.0"/>
    <path d="M 334.0,203.0 L 380.0,243.0 L 370.0,520.0 L 353.0,547.0"/>
    <path d="M 84.0,608.0 L 116.0,617.0 L 148.0,616.0 L 288.0,582.0 L 457.0,550.0 L 509.0,546.0 L 526.0,551.0"/>
    <path d="M 342.0,593.0 L 372.0,622.0 L 369.0,803.0 L 387.0,833.0"/>
    <path d="M 400.0,713.0 L 414.0,700.0 L 468.0,689.0 L 515.0,695.0"/>
    <path d="M 229.0,663.0 L 256.0,701.0 L 200.0,818.0 L 161.0,869.0 L 113.0,918.0 L 59.0,958.0"/>
    <path d="M 263.0,772.0 L 266.0,784.0 L 312.0,816.0 L 463.0,906.0 L 583.0,963.0 L 686.0,1002.0 L 756.0,1007.0 L 936.0,978.0"/>
    <path d="M 602.0,425.0 L 623.0,428.0 L 672.0,420.0 L 745.0,399.0 L 773.0,413.0 L 783.0,425.0 L 763.0,497.0 L 758.0,508.0 L 733.0,527.0"/>
    <path d="M 638.0,585.0 L 648.0,570.0 L 734.0,552.0 L 772.0,550.0 L 796.0,556.0"/>
    <path d="M 576.0,548.0 L 603.0,574.0 L 608.0,588.0 L 601.0,668.0 L 606.0,733.0 L 622.0,764.0 L 650.0,779.0 L 693.0,789.0 L 766.0,792.0 L 837.0,786.0 L 884.0,768.0 L 889.0,744.0 L 888.0,653.0"/>
  </g>
</svg>
