<svg xmlns="http://www.w3.org/2000/svg" viewBox="0 0 1024 1024">
  <g style="fill:none;stroke:#000000;stroke-width:50;stroke-linecap:round;stroke-linejoin:round;" transform="scale(1, 1) translate(0, 0)">
    <path d="M 217.0,449.0 L 280.0,452.0 L 448.0,410.0 L 497.0,410.0"/>
    <path d="M 336.0,225.0 L 385.0,265.0 L 378.0,530.0 L 360.0,558.0"/>
    <path d="M 65.0,640.0 L 107.0,647.0 L 144.0,641.0 L 469.0,554.0 L 511.0,547.0 L 539.0,551.0"/>
    <path d="M 347.0,605.0 L 375.0,630.0 L 372.0,800.0 L 392.0,830.0"/>
    <path d="M 405.0,722.0 L 423.0,707.0 L 462.0,696.0 L 519.0,696.0"/>
    <path d="M 212.0,697.0 L 236.0,735.0 L 202.0,814.0 L 172.0,863.0 L 132.0,910.0 L 72.0,961.0"/>
    <path d="M 257.0,788.0 L 267.0,785.0 L 373.0,850.0 L 495.0,911.0 L 598.0,954.0 L 708.0,989.0 L 730.0,994.0 L 791.0,990.0 L 936.0,965.0 L 960.0,956.0"/>
    <path d="M 617.0,256.0 L 642.0,270.0 L 662.0,297.0 L 663.0,900.0"/>
    <path d="M 694.0,514.0 L 702.0,523.0 L 792.0,542.0 L 830.0,556.0 L 853.0,568.0 L 884.0,599.0"/>
  </g>
</svg>
