<svg xmlns="http://www.w3.org/2000/svg" viewBox="0 0 1024 1024">
  <g style="fill:none;stroke:#000000;stroke-width:50;stroke-linecap:round;stroke-linejoin:round;" transform="scale(1, 1) translate(0, 0)">
    <path d="M 213.0,418.0 L 271.0,423.0 L 438.0,385.0 L 489.0,385.0"/>
    <path d="M 326.0,211.0 L 372.0,251.0 L 362.0,495.0 L 345.0,521.0"/>
    <path d="M 87.0,590.0 L 148.0,597.0 L 418.0,530.0 L 465.0,522.0 L 512.0,525.0"/>
    <path d="M 339.0,575.0 L 369.0,602.0 L 368.0,790.0 L 387.0,819.0"/>
    <path d="M 401.0,694.0 L 424.0,672.0 L 456.0,668.0 L 483.0,673.0"/>
    <path d="M 220.0,649.0 L 245.0,686.0 L 195.0,798.0 L 167.0,841.0 L 109.0,908.0 L 55.0,949.0"/>
    <path d="M 257.0,753.0 L 260.0,765.0 L 295.0,792.0 L 467.0,900.0 L 561.0,949.0 L 664.0,992.0 L 725.0,1009.0 L 750.0,1009.0 L 947.0,983.0"/>
    <path d="M 547.0,355.0 L 599.0,360.0 L 777.0,319.0 L 793.0,319.0 L 815.0,337.0 L 797.0,470.0 L 770.0,530.0 L 745.0,554.0 L 668.0,516.0"/>
    <path d="M 627.0,373.0 L 651.0,393.0 L 655.0,406.0 L 639.0,448.0 L 582.0,545.0 L 526.0,602.0"/>
    <path d="M 536.0,665.0 L 566.0,700.0 L 597.0,865.0"/>
    <path d="M 586.0,666.0 L 594.0,674.0 L 614.0,674.0 L 729.0,650.0 L 760.0,638.0 L 791.0,646.0 L 812.0,668.0 L 780.0,761.0 L 763.0,767.0"/>
    <path d="M 615.0,835.0 L 626.0,822.0 L 750.0,800.0 L 812.0,810.0"/>
  </g>
</svg>
