<svg xmlns="http://www.w3.org/2000/svg" viewBox="0 0 1024 1024">
  <g style="fill:none;stroke:#000000;stroke-width:50;stroke-linecap:round;stroke-linejoin:round;" transform="scale(1, 1) translate(0, 0)">
    <path d="M 199.0,431.0 L 226.0,434.0 L 266.0,428.0 L 418.0,379.0 L 473.0,372.0"/>
    <path d="M 321.0,211.0 L 365.0,247.0 L 358.0,490.0 L 342.0,516.0"/>
    <path d="M 61.0,608.0 L 112.0,612.0 L 425.0,517.0 L 481.0,516.0"/>
    <path d="M 329.0,568.0 L 353.0,584.0 L 360.0,598.0 L 357.0,779.0 L 375.0,808.0"/>
    <path d="M 392.0,680.0 L 398.0,669.0 L 418.0,658.0 L 452.0,651.0 L 474.0,654.0"/>
    <path d="M 209.0,669.0 L 232.0,701.0 L 191.0,780.0 L 126.0,864.0 L 63.0,919.0 L 30.0,939.0"/>
    <path d="M 240.0,763.0 L 261.0,764.0 L 366.0,836.0 L 502.0,912.0 L 598.0,955.0 L 708.0,992.0 L 771.0,992.0 L 948.0,963.0"/>
    <path d="M 602.0,203.0 L 620.0,219.0 L 628.0,238.0 L 583.0,323.0 L 524.0,393.0"/>
    <path d="M 606.0,324.0 L 826.0,276.0 L 849.0,282.0 L 866.0,299.0 L 852.0,421.0 L 826.0,493.0 L 802.0,515.0 L 763.0,495.0 L 749.0,496.0"/>
    <path d="M 551.0,393.0 L 558.0,414.0 L 557.0,473.0 L 563.0,480.0 L 581.0,482.0 L 701.0,449.0 L 706.0,441.0"/>
    <path d="M 733.0,343.0 L 748.0,375.0 L 726.0,475.0"/>
    <path d="M 631.0,358.0 L 652.0,385.0 L 646.0,471.0 L 628.0,522.0 L 602.0,565.0"/>
    <path d="M 607.0,583.0 L 585.0,591.0 L 541.0,660.0 L 503.0,698.0"/>
    <path d="M 598.0,620.0 L 695.0,605.0 L 810.0,578.0 L 843.0,584.0 L 862.0,604.0 L 842.0,774.0 L 814.0,852.0 L 791.0,874.0 L 733.0,838.0 L 730.0,829.0 L 717.0,829.0"/>
    <path d="M 544.0,683.0 L 551.0,708.0 L 540.0,780.0 L 558.0,787.0 L 701.0,754.0 L 717.0,761.0"/>
    <path d="M 744.0,650.0 L 762.0,684.0 L 735.0,780.0"/>
    <path d="M 635.0,650.0 L 659.0,681.0 L 643.0,791.0 L 629.0,824.0 L 601.0,862.0 L 559.0,887.0"/>
  </g>
</svg>
