<svg xmlns="http://www.w3.org/2000/svg" viewBox="0 0 1024 1024">
  <g style="fill:none;stroke:#000000;stroke-width:50;stroke-linecap:round;stroke-linejoin:round;" transform="scale(1, 1) translate(0, 0)">
    <path d="M 176.0,445.0 L 197.0,450.0 L 233.0,447.0 L 365.0,412.0 L 404.0,411.0"/>
    <path d="M 281.0,230.0 L 324.0,266.0 L 315.0,525.0 L 314.0,535.0 L 298.0,553.0"/>
    <path d="M 64.0,616.0 L 81.0,622.0 L 127.0,622.0 L 347.0,567.0 L 390.0,560.0 L 427.0,563.0"/>
    <path d="M 294.0,610.0 L 316.0,619.0 L 322.0,632.0 L 316.0,824.0 L 333.0,851.0"/>
    <path d="M 346.0,727.0 L 360.0,715.0 L 384.0,709.0 L 436.0,709.0"/>
    <path d="M 173.0,677.0 L 203.0,708.0 L 168.0,816.0 L 125.0,889.0 L 53.0,969.0"/>
    <path d="M 209.0,789.0 L 211.0,800.0 L 289.0,853.0 L 433.0,933.0 L 539.0,985.0 L 686.0,1041.0 L 761.0,1040.0 L 935.0,1012.0"/>
    <path d="M 472.0,319.0 L 486.0,339.0 L 478.0,377.0 L 460.0,409.0 L 435.0,435.0"/>
    <path d="M 502.0,369.0 L 618.0,347.0"/>
    <path d="M 548.0,247.0 L 567.0,261.0 L 576.0,282.0 L 574.0,397.0 L 565.0,411.0"/>
    <path d="M 442.0,462.0 L 594.0,423.0 L 624.0,424.0"/>
    <path d="M 530.0,489.0 L 512.0,495.0 L 481.0,552.0 L 440.0,599.0"/>
    <path d="M 566.0,454.0 L 580.0,463.0 L 578.0,500.0 L 584.0,528.0 L 610.0,513.0 L 629.0,486.0 L 637.0,485.0"/>
    <path d="M 665.0,290.0 L 680.0,307.0 L 673.0,337.0 L 661.0,365.0 L 637.0,392.0"/>
    <path d="M 691.0,346.0 L 700.0,339.0 L 732.0,337.0 L 802.0,316.0 L 825.0,316.0"/>
    <path d="M 718.0,210.0 L 748.0,238.0 L 745.0,379.0 L 736.0,391.0"/>
    <path d="M 661.0,425.0 L 678.0,426.0 L 795.0,397.0 L 854.0,400.0"/>
    <path d="M 689.0,454.0 L 701.0,474.0 L 693.0,498.0 L 665.0,544.0 L 643.0,567.0"/>
    <path d="M 753.0,436.0 L 767.0,455.0 L 764.0,501.0 L 769.0,531.0 L 784.0,547.0 L 803.0,554.0 L 847.0,555.0 L 882.0,534.0 L 881.0,463.0"/>
    <path d="M 537.0,595.0 L 560.0,630.0 L 549.0,805.0"/>
    <path d="M 581.0,606.0 L 590.0,614.0 L 723.0,581.0 L 752.0,594.0 L 764.0,614.0 L 765.0,743.0 L 758.0,804.0"/>
    <path d="M 617.0,663.0 L 631.0,669.0 L 655.0,695.0 L 648.0,778.0 L 627.0,848.0 L 610.0,873.0 L 577.0,899.0 L 538.0,916.0 L 505.0,920.0"/>
    <path d="M 711.0,839.0 L 779.0,889.0 L 803.0,917.0 L 817.0,954.0"/>
  </g>
</svg>
