<svg xmlns="http://www.w3.org/2000/svg" viewBox="0 0 1024 1024">
  <g style="fill:none;stroke:#000000;stroke-width:50;stroke-linecap:round;stroke-linejoin:round;" transform="scale(1, 1) translate(0, 0)">
    <path d="M 144.0,322.0 L 166.0,339.0 L 179.0,362.0 L 216.0,521.0"/>
    <path d="M 196.0,323.0 L 209.0,331.0 L 240.0,328.0 L 334.0,301.0 L 371.0,303.0 L 392.0,325.0 L 390.0,336.0 L 362.0,429.0 L 336.0,449.0"/>
    <path d="M 231.0,510.0 L 251.0,493.0 L 326.0,475.0 L 377.0,470.0 L 400.0,476.0"/>
    <path d="M 261.0,511.0 L 288.0,531.0 L 292.0,567.0 L 293.0,776.0 L 288.0,794.0 L 276.0,806.0"/>
    <path d="M 323.0,653.0 L 329.0,642.0 L 346.0,632.0 L 394.0,626.0 L 420.0,630.0"/>
    <path d="M 127.0,633.0 L 168.0,672.0 L 188.0,821.0 L 175.0,836.0"/>
    <path d="M 76.0,886.0 L 133.0,898.0 L 403.0,779.0"/>
    <path d="M 497.0,612.0 L 519.0,627.0 L 532.0,648.0 L 480.0,770.0 L 457.0,810.0 L 414.0,862.0 L 380.0,896.0 L 344.0,921.0"/>
    <path d="M 571.0,458.0 L 593.0,466.0 L 611.0,481.0 L 726.0,689.0 L 775.0,763.0 L 824.0,821.0 L 875.0,846.0 L 986.0,882.0"/>
  </g>
</svg>
