<svg xmlns="http://www.w3.org/2000/svg" viewBox="0 0 1024 1024">
  <g style="fill:none;stroke:#000000;stroke-width:50;stroke-linecap:round;stroke-linejoin:round;" transform="scale(1, 1) translate(0, 0)">
    <path d="M 132.0,374.0 L 164.0,404.0 L 204.0,565.0"/>
    <path d="M 191.0,377.0 L 208.0,382.0 L 331.0,346.0 L 353.0,361.0 L 363.0,374.0 L 342.0,452.0 L 338.0,463.0 L 314.0,476.0"/>
    <path d="M 218.0,538.0 L 236.0,524.0 L 313.0,505.0 L 368.0,506.0"/>
    <path d="M 250.0,540.0 L 277.0,562.0 L 283.0,594.0 L 281.0,790.0 L 275.0,809.0 L 263.0,820.0"/>
    <path d="M 314.0,664.0 L 320.0,652.0 L 335.0,644.0 L 364.0,640.0 L 385.0,645.0"/>
    <path d="M 113.0,641.0 L 152.0,677.0 L 176.0,838.0 L 162.0,852.0"/>
    <path d="M 58.0,902.0 L 114.0,914.0 L 306.0,833.0 L 396.0,787.0"/>
    <path d="M 477.0,468.0 L 500.0,474.0 L 549.0,472.0 L 705.0,432.0 L 765.0,431.0"/>
    <path d="M 433.0,648.0 L 470.0,655.0 L 496.0,652.0 L 631.0,626.0 L 764.0,609.0 L 810.0,611.0 L 856.0,624.0"/>
    <path d="M 559.0,221.0 L 587.0,238.0 L 611.0,268.0 L 597.0,573.0 L 586.0,661.0 L 566.0,749.0 L 533.0,830.0 L 482.0,904.0 L 430.0,950.0 L 327.0,1006.0"/>
    <path d="M 615.0,659.0 L 617.0,683.0 L 675.0,780.0 L 762.0,894.0 L 809.0,941.0 L 833.0,958.0 L 970.0,994.0"/>
  </g>
</svg>
