<svg xmlns="http://www.w3.org/2000/svg" viewBox="0 0 1024 1024">
  <g style="fill:none;stroke:#000000;stroke-width:50;stroke-linecap:round;stroke-linejoin:round;" transform="scale(1, 1) translate(0, 0)">
    <path d="M 171.0,309.0 L 190.0,324.0 L 204.0,349.0 L 236.0,518.0"/>
    <path d="M 218.0,306.0 L 234.0,317.0 L 360.0,288.0 L 391.0,306.0 L 400.0,316.0 L 375.0,422.0 L 353.0,431.0"/>
    <path d="M 254.0,491.0 L 264.0,482.0 L 343.0,464.0 L 404.0,466.0"/>
    <path d="M 277.0,497.0 L 307.0,525.0 L 309.0,771.0 L 292.0,799.0"/>
    <path d="M 340.0,628.0 L 360.0,611.0 L 408.0,604.0 L 429.0,609.0"/>
    <path d="M 142.0,624.0 L 183.0,664.0 L 201.0,814.0 L 187.0,828.0"/>
    <path d="M 105.0,870.0 L 162.0,884.0 L 440.0,767.0"/>
    <path d="M 501.0,406.0 L 566.0,413.0 L 784.0,373.0 L 835.0,372.0"/>
    <path d="M 440.0,648.0 L 490.0,654.0 L 641.0,628.0 L 855.0,603.0 L 904.0,608.0 L 935.0,618.0"/>
    <path d="M 531.0,483.0 L 542.0,487.0 L 569.0,518.0 L 564.0,661.0 L 545.0,766.0 L 513.0,842.0 L 494.0,871.0 L 453.0,917.0 L 402.0,952.0"/>
    <path d="M 693.0,419.0 L 733.0,440.0 L 743.0,457.0 L 735.0,1057.0"/>
  </g>
</svg>
