<svg xmlns="http://www.w3.org/2000/svg" viewBox="0 0 1024 1024">
  <g style="fill:none;stroke:#000000;stroke-width:50;stroke-linecap:round;stroke-linejoin:round;" transform="scale(1, 1) translate(0, 0)">
    <path d="M 164.0,355.0 L 190.0,378.0 L 201.0,402.0 L 232.0,546.0"/>
    <path d="M 221.0,362.0 L 230.0,369.0 L 357.0,334.0 L 385.0,349.0 L 395.0,362.0 L 375.0,436.0 L 368.0,451.0 L 344.0,470.0"/>
    <path d="M 250.0,526.0 L 265.0,514.0 L 335.0,496.0 L 385.0,489.0 L 409.0,495.0"/>
    <path d="M 282.0,533.0 L 307.0,546.0 L 316.0,559.0 L 317.0,575.0 L 316.0,804.0 L 298.0,822.0"/>
    <path d="M 349.0,666.0 L 354.0,655.0 L 372.0,644.0 L 433.0,646.0"/>
    <path d="M 143.0,667.0 L 183.0,706.0 L 207.0,849.0 L 193.0,867.0"/>
    <path d="M 94.0,922.0 L 153.0,933.0 L 468.0,771.0"/>
    <path d="M 503.0,495.0 L 571.0,494.0 L 666.0,470.0 L 752.0,439.0 L 795.0,437.0"/>
    <path d="M 592.0,215.0 L 641.0,257.0 L 630.0,594.0 L 612.0,622.0"/>
    <path d="M 500.0,652.0 L 583.0,652.0 L 700.0,623.0 L 729.0,626.0 L 750.0,638.0 L 696.0,778.0 L 661.0,836.0 L 624.0,881.0 L 562.0,929.0 L 500.0,962.0 L 402.0,992.0 L 360.0,995.0"/>
    <path d="M 499.0,726.0 L 549.0,752.0 L 689.0,902.0 L 789.0,976.0 L 896.0,999.0 L 979.0,1008.0"/>
  </g>
</svg>
