<svg xmlns="http://www.w3.org/2000/svg" viewBox="0 0 1024 1024">
  <g style="fill:none;stroke:#000000;stroke-width:50;stroke-linecap:round;stroke-linejoin:round;" transform="scale(1, 1) translate(0, 0)">
    <path d="M 178.0,334.0 L 200.0,350.0 L 212.0,369.0 L 247.0,517.0"/>
    <path d="M 229.0,332.0 L 250.0,341.0 L 361.0,315.0 L 398.0,318.0 L 419.0,341.0 L 417.0,351.0 L 393.0,428.0 L 366.0,447.0"/>
    <path d="M 265.0,502.0 L 284.0,492.0 L 357.0,474.0 L 407.0,470.0 L 427.0,475.0"/>
    <path d="M 301.0,510.0 L 330.0,538.0 L 330.0,789.0 L 324.0,808.0 L 312.0,818.0"/>
    <path d="M 361.0,656.0 L 384.0,633.0 L 431.0,624.0 L 457.0,626.0"/>
    <path d="M 152.0,632.0 L 195.0,674.0 L 213.0,834.0 L 198.0,850.0"/>
    <path d="M 102.0,894.0 L 158.0,911.0 L 398.0,818.0 L 472.0,783.0"/>
    <path d="M 571.0,332.0 L 619.0,341.0 L 683.0,331.0 L 817.0,294.0 L 867.0,296.0"/>
    <path d="M 588.0,545.0 L 598.0,537.0 L 750.0,501.0 L 786.0,505.0 L 813.0,535.0 L 780.0,631.0 L 752.0,649.0"/>
    <path d="M 584.0,694.0 L 610.0,703.0 L 749.0,679.0 L 790.0,679.0 L 818.0,687.0"/>
    <path d="M 517.0,317.0 L 552.0,360.0 L 558.0,411.0 L 555.0,723.0 L 544.0,889.0 L 548.0,915.0 L 584.0,918.0 L 710.0,898.0 L 863.0,887.0 L 909.0,889.0 L 942.0,902.0"/>
  </g>
</svg>
