<svg xmlns="http://www.w3.org/2000/svg" viewBox="0 0 1024 1024">
  <g style="fill:none;stroke:#000000;stroke-width:50;stroke-linecap:round;stroke-linejoin:round;" transform="scale(1, 1) translate(0, 0)">
    <path d="M 135.0,333.0 L 157.0,351.0 L 169.0,376.0 L 196.0,522.0"/>
    <path d="M 186.0,338.0 L 214.0,341.0 L 297.0,314.0 L 331.0,315.0 L 353.0,338.0 L 352.0,347.0 L 334.0,432.0 L 309.0,450.0"/>
    <path d="M 214.0,506.0 L 233.0,494.0 L 291.0,477.0 L 351.0,477.0"/>
    <path d="M 238.0,511.0 L 267.0,538.0 L 269.0,758.0 L 263.0,777.0 L 251.0,789.0"/>
    <path d="M 300.0,614.0 L 306.0,602.0 L 319.0,595.0 L 347.0,590.0 L 370.0,594.0"/>
    <path d="M 105.0,617.0 L 137.0,646.0 L 147.0,665.0 L 161.0,806.0 L 147.0,823.0"/>
    <path d="M 64.0,868.0 L 119.0,878.0 L 375.0,759.0"/>
    <path d="M 422.0,362.0 L 449.0,383.0 L 458.0,400.0 L 464.0,486.0 L 460.0,632.0 L 446.0,722.0 L 426.0,795.0 L 407.0,847.0 L 354.0,939.0"/>
    <path d="M 465.0,358.0 L 487.0,364.0 L 509.0,351.0 L 538.0,344.0 L 557.0,354.0 L 565.0,366.0 L 572.0,581.0 L 570.0,883.0 L 557.0,905.0 L 494.0,880.0 L 489.0,872.0 L 477.0,872.0"/>
    <path d="M 634.0,320.0 L 665.0,334.0 L 680.0,358.0 L 680.0,656.0 L 668.0,761.0 L 648.0,853.0 L 626.0,914.0 L 598.0,965.0 L 582.0,978.0"/>
    <path d="M 710.0,350.0 L 720.0,334.0 L 752.0,321.0 L 777.0,325.0 L 798.0,347.0 L 811.0,914.0 L 806.0,946.0 L 793.0,966.0 L 698.0,934.0"/>
    <path d="M 382.0,636.0 L 428.0,643.0 L 616.0,607.0 L 859.0,576.0 L 932.0,593.0"/>
  </g>
</svg>
