<svg xmlns="http://www.w3.org/2000/svg" viewBox="0 0 1024 1024">
  <g style="fill:none;stroke:#000000;stroke-width:50;stroke-linecap:round;stroke-linejoin:round;" transform="scale(1, 1) translate(0, 0)">
    <path d="M 175.0,330.0 L 205.0,352.0 L 213.0,372.0 L 256.0,537.0"/>
    <path d="M 239.0,337.0 L 249.0,344.0 L 355.0,312.0 L 390.0,313.0 L 407.0,326.0 L 416.0,337.0 L 388.0,433.0 L 361.0,454.0"/>
    <path d="M 271.0,509.0 L 288.0,493.0 L 350.0,479.0 L 410.0,474.0 L 428.0,480.0"/>
    <path d="M 297.0,516.0 L 327.0,536.0 L 331.0,572.0 L 325.0,771.0 L 308.0,785.0"/>
    <path d="M 359.0,656.0 L 370.0,642.0 L 400.0,634.0 L 433.0,629.0 L 464.0,634.0"/>
    <path d="M 143.0,623.0 L 184.0,662.0 L 203.0,804.0 L 192.0,814.0"/>
    <path d="M 95.0,854.0 L 151.0,872.0 L 429.0,775.0"/>
    <path d="M 506.0,421.0 L 527.0,427.0 L 592.0,424.0 L 857.0,365.0 L 896.0,366.0"/>
    <path d="M 612.0,448.0 L 648.0,478.0 L 647.0,489.0 L 611.0,585.0 L 556.0,695.0 L 503.0,779.0 L 456.0,839.0 L 376.0,923.0 L 301.0,986.0"/>
    <path d="M 520.0,693.0 L 553.0,734.0 L 559.0,750.0 L 596.0,948.0"/>
    <path d="M 579.0,711.0 L 785.0,661.0 L 804.0,658.0 L 825.0,666.0 L 855.0,693.0 L 812.0,813.0 L 785.0,834.0"/>
    <path d="M 616.0,901.0 L 628.0,887.0 L 786.0,863.0 L 836.0,861.0 L 861.0,871.0"/>
  </g>
</svg>
