<svg xmlns="http://www.w3.org/2000/svg" viewBox="0 0 1024 1024">
  <g style="fill:none;stroke:#000000;stroke-width:50;stroke-linecap:round;stroke-linejoin:round;" transform="scale(1, 1) translate(0, 0)">
    <path d="M 163.0,349.0 L 183.0,364.0 L 199.0,391.0 L 232.0,537.0"/>
    <path d="M 210.0,348.0 L 231.0,358.0 L 337.0,332.0 L 371.0,335.0 L 391.0,358.0 L 389.0,367.0 L 364.0,447.0 L 337.0,466.0"/>
    <path d="M 253.0,518.0 L 267.0,507.0 L 327.0,490.0 L 392.0,490.0"/>
    <path d="M 267.0,529.0 L 292.0,541.0 L 297.0,550.0 L 293.0,774.0 L 276.0,788.0"/>
    <path d="M 318.0,638.0 L 334.0,625.0 L 366.0,617.0 L 410.0,618.0"/>
    <path d="M 129.0,650.0 L 171.0,685.0 L 193.0,796.0 L 182.0,814.0"/>
    <path d="M 74.0,860.0 L 128.0,876.0 L 376.0,779.0"/>
    <path d="M 598.0,225.0 L 673.0,268.0 L 707.0,312.0"/>
    <path d="M 452.0,504.0 L 505.0,508.0 L 634.0,477.0 L 883.0,434.0 L 950.0,448.0"/>
    <path d="M 544.0,526.0 L 591.0,545.0 L 589.0,709.0 L 572.0,794.0 L 541.0,864.0 L 525.0,886.0 L 481.0,931.0 L 412.0,976.0"/>
    <path d="M 694.0,490.0 L 721.0,506.0 L 737.0,536.0 L 737.0,916.0 L 724.0,946.0 L 711.0,957.0 L 679.0,945.0 L 620.0,906.0"/>
    <path d="M 477.0,658.0 L 463.0,720.0 L 424.0,809.0"/>
    <path d="M 809.0,656.0 L 912.0,739.0 L 935.0,794.0"/>
  </g>
</svg>
