<svg xmlns="http://www.w3.org/2000/svg" viewBox="0 0 1024 1024">
  <g style="fill:none;stroke:#000000;stroke-width:50;stroke-linecap:round;stroke-linejoin:round;" transform="scale(1, 1) translate(0, 0)">
    <path d="M 162.0,346.0 L 189.0,368.0 L 196.0,382.0 L 228.0,530.0"/>
    <path d="M 219.0,348.0 L 230.0,356.0 L 345.0,324.0 L 363.0,322.0 L 375.0,328.0 L 396.0,349.0 L 394.0,359.0 L 371.0,435.0 L 345.0,453.0"/>
    <path d="M 249.0,506.0 L 257.0,497.0 L 335.0,477.0 L 400.0,479.0"/>
    <path d="M 270.0,513.0 L 295.0,531.0 L 302.0,546.0 L 301.0,761.0 L 296.0,778.0 L 284.0,791.0"/>
    <path d="M 334.0,645.0 L 340.0,633.0 L 358.0,621.0 L 415.0,615.0"/>
    <path d="M 133.0,634.0 L 176.0,675.0 L 192.0,808.0 L 178.0,824.0"/>
    <path d="M 84.0,872.0 L 122.0,883.0 L 146.0,882.0 L 404.0,763.0"/>
    <path d="M 606.0,196.0 L 625.0,215.0 L 632.0,236.0 L 561.0,343.0 L 491.0,412.0"/>
    <path d="M 605.0,324.0 L 703.0,303.0 L 740.0,315.0 L 684.0,414.0 L 658.0,452.0 L 642.0,461.0"/>
    <path d="M 509.0,494.0 L 531.0,505.0 L 552.0,504.0 L 667.0,485.0 L 784.0,453.0 L 836.0,452.0"/>
    <path d="M 451.0,486.0 L 480.0,512.0 L 489.0,539.0 L 481.0,661.0 L 453.0,791.0 L 428.0,855.0 L 397.0,905.0 L 323.0,979.0 L 290.0,996.0"/>
    <path d="M 602.0,622.0 L 622.0,630.0 L 747.0,603.0 L 769.0,620.0 L 758.0,717.0 L 740.0,762.0 L 725.0,782.0 L 709.0,790.0 L 654.0,766.0"/>
    <path d="M 562.0,617.0 L 579.0,638.0 L 587.0,664.0 L 573.0,781.0 L 574.0,889.0 L 585.0,928.0 L 610.0,952.0 L 675.0,973.0 L 738.0,977.0 L 814.0,968.0 L 867.0,951.0 L 900.0,924.0 L 904.0,800.0"/>
  </g>
</svg>
