<svg xmlns="http://www.w3.org/2000/svg" viewBox="0 0 1024 1024">
  <g style="fill:none;stroke:#000000;stroke-width:50;stroke-linecap:round;stroke-linejoin:round;" transform="scale(1, 1) translate(0, 0)">
    <path d="M 189.0,302.0 L 213.0,308.0 L 252.0,306.0 L 371.0,277.0 L 415.0,277.0"/>
    <path d="M 291.0,321.0 L 315.0,348.0 L 312.0,433.0 L 293.0,448.0"/>
    <path d="M 142.0,506.0 L 193.0,521.0 L 378.0,456.0 L 441.0,427.0"/>
    <path d="M 491.0,241.0 L 507.0,252.0 L 521.0,275.0 L 516.0,361.0 L 505.0,419.0 L 473.0,484.0 L 432.0,528.0 L 406.0,542.0"/>
    <path d="M 543.0,253.0 L 559.0,257.0 L 629.0,232.0 L 672.0,224.0 L 693.0,239.0 L 697.0,247.0 L 670.0,344.0 L 670.0,451.0 L 685.0,486.0 L 716.0,504.0 L 777.0,514.0 L 817.0,510.0 L 852.0,501.0 L 874.0,486.0 L 881.0,480.0 L 878.0,375.0"/>
    <path d="M 538.0,364.0 L 586.0,395.0 L 608.0,423.0"/>
    <path d="M 320.0,589.0 L 346.0,609.0 L 354.0,623.0 L 388.0,746.0"/>
    <path d="M 368.0,588.0 L 390.0,600.0 L 546.0,562.0 L 588.0,559.0 L 612.0,578.0 L 618.0,592.0 L 594.0,647.0 L 572.0,657.0"/>
    <path d="M 402.0,705.0 L 413.0,713.0 L 423.0,712.0 L 562.0,687.0 L 618.0,695.0"/>
    <path d="M 468.0,722.0 L 497.0,753.0 L 493.0,877.0 L 508.0,917.0"/>
    <path d="M 524.0,837.0 L 539.0,822.0 L 593.0,810.0 L 636.0,805.0 L 674.0,813.0"/>
    <path d="M 288.0,754.0 L 305.0,789.0 L 273.0,859.0 L 237.0,911.0 L 153.0,988.0 L 87.0,1021.0"/>
    <path d="M 336.0,820.0 L 344.0,837.0 L 508.0,947.0 L 588.0,993.0 L 692.0,1038.0 L 767.0,1044.0 L 907.0,1027.0"/>
  </g>
</svg>
