<svg xmlns="http://www.w3.org/2000/svg" viewBox="0 0 1024 1024">
  <g style="fill:none;stroke:#000000;stroke-width:50;stroke-linecap:round;stroke-linejoin:round;" transform="scale(1, 1) translate(0, 0)">
    <path d="M 176.0,337.0 L 206.0,371.0 L 237.0,537.0"/>
    <path d="M 226.0,343.0 L 261.0,342.0 L 335.0,320.0 L 362.0,320.0 L 381.0,335.0 L 389.0,344.0 L 366.0,437.0 L 343.0,454.0"/>
    <path d="M 254.0,510.0 L 273.0,497.0 L 334.0,482.0 L 379.0,478.0 L 399.0,483.0"/>
    <path d="M 282.0,520.0 L 311.0,538.0 L 316.0,575.0 L 312.0,779.0 L 294.0,796.0"/>
    <path d="M 346.0,656.0 L 354.0,643.0 L 387.0,634.0 L 420.0,629.0 L 452.0,634.0"/>
    <path d="M 143.0,623.0 L 182.0,661.0 L 206.0,813.0 L 193.0,828.0"/>
    <path d="M 109.0,870.0 L 165.0,884.0 L 420.0,775.0"/>
    <path d="M 532.0,410.0 L 538.0,399.0 L 565.0,386.0 L 600.0,377.0 L 635.0,379.0"/>
    <path d="M 472.0,279.0 L 492.0,293.0 L 507.0,315.0 L 504.0,513.0 L 509.0,549.0 L 546.0,538.0 L 638.0,482.0"/>
    <path d="M 806.0,278.0 L 817.0,311.0 L 723.0,372.0 L 714.0,392.0"/>
    <path d="M 659.0,227.0 L 695.0,272.0 L 684.0,405.0 L 690.0,478.0 L 710.0,539.0 L 737.0,553.0 L 773.0,559.0 L 864.0,554.0 L 897.0,543.0 L 907.0,537.0 L 908.0,429.0"/>
    <path d="M 443.0,751.0 L 496.0,759.0 L 691.0,727.0 L 838.0,711.0 L 872.0,712.0 L 932.0,728.0"/>
    <path d="M 627.0,603.0 L 650.0,619.0 L 667.0,646.0 L 667.0,1073.0"/>
  </g>
</svg>
