<svg xmlns="http://www.w3.org/2000/svg" viewBox="0 0 1024 1024">
  <g style="fill:none;stroke:#000000;stroke-width:50;stroke-linecap:round;stroke-linejoin:round;" transform="scale(1, 1) translate(0, 0)">
    <path d="M 152.0,335.0 L 173.0,354.0 L 182.0,372.0 L 212.0,531.0"/>
    <path d="M 196.0,337.0 L 211.0,344.0 L 313.0,314.0 L 348.0,314.0 L 368.0,335.0 L 343.0,432.0 L 320.0,444.0"/>
    <path d="M 229.0,506.0 L 245.0,495.0 L 313.0,475.0 L 358.0,469.0 L 381.0,475.0"/>
    <path d="M 261.0,509.0 L 286.0,528.0 L 289.0,575.0 L 289.0,785.0 L 284.0,803.0 L 273.0,814.0"/>
    <path d="M 317.0,633.0 L 335.0,616.0 L 377.0,609.0 L 397.0,613.0"/>
    <path d="M 130.0,638.0 L 167.0,673.0 L 189.0,827.0 L 175.0,842.0"/>
    <path d="M 95.0,882.0 L 151.0,897.0 L 400.0,787.0"/>
    <path d="M 594.0,227.0 L 636.0,260.0 L 641.0,536.0 L 636.0,614.0 L 624.0,638.0 L 528.0,599.0"/>
    <path d="M 409.0,435.0 L 472.0,437.0 L 531.0,419.0 L 546.0,422.0 L 556.0,431.0 L 556.0,440.0 L 515.0,530.0 L 489.0,567.0 L 443.0,615.0 L 401.0,643.0"/>
    <path d="M 779.0,298.0 L 797.0,332.0 L 758.0,377.0 L 705.0,424.0 L 699.0,423.0"/>
    <path d="M 660.0,405.0 L 675.0,432.0 L 725.0,483.0 L 824.0,563.0 L 899.0,585.0 L 967.0,594.0"/>
    <path d="M 447.0,713.0 L 477.0,745.0 L 505.0,1005.0"/>
    <path d="M 514.0,751.0 L 531.0,735.0 L 743.0,694.0 L 768.0,702.0 L 787.0,721.0 L 769.0,932.0 L 762.0,960.0 L 748.0,982.0 L 750.0,1035.0"/>
    <path d="M 519.0,852.0 L 531.0,842.0 L 626.0,828.0 L 665.0,825.0 L 687.0,832.0"/>
    <path d="M 527.0,965.0 L 540.0,958.0 L 656.0,942.0 L 702.0,941.0 L 723.0,947.0"/>
  </g>
</svg>
