<svg xmlns="http://www.w3.org/2000/svg" viewBox="0 0 1024 1024">
  <g style="fill:none;stroke:#000000;stroke-width:50;stroke-linecap:round;stroke-linejoin:round;" transform="scale(1, 1) translate(0, 0)">
    <path d="M 138.0,338.0 L 171.0,370.0 L 208.0,542.0"/>
    <path d="M 199.0,360.0 L 209.0,348.0 L 301.0,320.0 L 325.0,315.0 L 343.0,319.0 L 364.0,341.0 L 337.0,439.0 L 312.0,451.0"/>
    <path d="M 226.0,520.0 L 244.0,502.0 L 313.0,483.0 L 357.0,479.0 L 373.0,484.0"/>
    <path d="M 243.0,524.0 L 271.0,544.0 L 276.0,567.0 L 276.0,794.0 L 271.0,813.0 L 259.0,823.0"/>
    <path d="M 309.0,658.0 L 315.0,647.0 L 330.0,640.0 L 373.0,636.0 L 396.0,643.0"/>
    <path d="M 109.0,654.0 L 152.0,695.0 L 170.0,843.0 L 156.0,859.0"/>
    <path d="M 66.0,904.0 L 83.0,912.0 L 125.0,917.0 L 425.0,779.0"/>
    <path d="M 537.0,179.0 L 615.0,216.0 L 646.0,252.0"/>
    <path d="M 515.0,350.0 L 533.0,360.0 L 688.0,327.0 L 716.0,337.0 L 734.0,362.0 L 714.0,452.0 L 698.0,566.0 L 683.0,604.0 L 665.0,605.0"/>
    <path d="M 523.0,497.0 L 533.0,486.0 L 589.0,469.0 L 636.0,469.0"/>
    <path d="M 529.0,601.0 L 547.0,606.0 L 613.0,591.0 L 650.0,589.0"/>
    <path d="M 449.0,336.0 L 487.0,380.0 L 495.0,466.0 L 501.0,675.0 L 489.0,920.0 L 495.0,956.0 L 544.0,940.0 L 637.0,871.0"/>
    <path d="M 779.0,599.0 L 801.0,637.0 L 723.0,709.0 L 680.0,740.0 L 672.0,738.0"/>
    <path d="M 523.0,603.0 L 534.0,645.0 L 560.0,674.0 L 702.0,811.0 L 791.0,880.0 L 829.0,893.0 L 979.0,908.0"/>
  </g>
</svg>
