<svg xmlns="http://www.w3.org/2000/svg" viewBox="0 0 1024 1024">
  <g style="fill:none;stroke:#000000;stroke-width:50;stroke-linecap:round;stroke-linejoin:round;" transform="scale(1, 1) translate(0, 0)">
    <path d="M 150.0,366.0 L 179.0,389.0 L 187.0,409.0 L 224.0,578.0"/>
    <path d="M 210.0,386.0 L 228.0,373.0 L 323.0,348.0 L 360.0,350.0 L 380.0,372.0 L 354.0,478.0 L 332.0,493.0"/>
    <path d="M 245.0,546.0 L 252.0,537.0 L 323.0,520.0 L 384.0,522.0"/>
    <path d="M 265.0,555.0 L 290.0,574.0 L 296.0,595.0 L 297.0,798.0 L 281.0,827.0"/>
    <path d="M 329.0,677.0 L 336.0,666.0 L 383.0,654.0 L 413.0,657.0"/>
    <path d="M 135.0,677.0 L 177.0,718.0 L 195.0,839.0 L 182.0,853.0"/>
    <path d="M 93.0,898.0 L 147.0,913.0 L 416.0,799.0"/>
    <path d="M 561.0,214.0 L 579.0,226.0 L 599.0,257.0 L 583.0,300.0 L 496.0,463.0 L 430.0,545.0"/>
    <path d="M 527.0,463.0 L 584.0,462.0 L 784.0,411.0 L 804.0,411.0 L 828.0,422.0 L 854.0,450.0 L 853.0,652.0 L 846.0,765.0 L 817.0,932.0 L 799.0,971.0 L 767.0,1003.0 L 662.0,939.0"/>
    <path d="M 473.0,594.0 L 510.0,628.0 L 518.0,648.0"/>
    <path d="M 753.0,563.0 L 722.0,554.0 L 652.0,623.0"/>
    <path d="M 423.0,719.0 L 467.0,725.0 L 701.0,684.0 L 747.0,688.0"/>
    <path d="M 561.0,515.0 L 580.0,532.0 L 597.0,562.0 L 587.0,999.0"/>
    <path d="M 568.0,733.0 L 551.0,775.0 L 517.0,819.0 L 465.0,871.0 L 413.0,906.0"/>
    <path d="M 640.0,770.0 L 721.0,830.0 L 742.0,870.0"/>
  </g>
</svg>
