<svg xmlns="http://www.w3.org/2000/svg" viewBox="0 0 1024 1024">
  <g style="fill:none;stroke:#000000;stroke-width:50;stroke-linecap:round;stroke-linejoin:round;" transform="scale(1, 1) translate(0, 0)">
    <path d="M 139.0,329.0 L 170.0,360.0 L 204.0,522.0"/>
    <path d="M 203.0,352.0 L 209.0,342.0 L 315.0,311.0 L 345.0,325.0 L 355.0,338.0 L 329.0,431.0 L 304.0,444.0"/>
    <path d="M 221.0,502.0 L 232.0,492.0 L 295.0,474.0 L 343.0,469.0 L 364.0,474.0"/>
    <path d="M 244.0,512.0 L 268.0,524.0 L 277.0,550.0 L 273.0,780.0 L 256.0,796.0"/>
    <path d="M 306.0,635.0 L 317.0,618.0 L 340.0,610.0 L 393.0,609.0"/>
    <path d="M 113.0,627.0 L 152.0,667.0 L 175.0,813.0 L 163.0,827.0"/>
    <path d="M 80.0,870.0 L 138.0,883.0 L 388.0,771.0"/>
    <path d="M 488.0,238.0 L 514.0,264.0 L 529.0,349.0 L 540.0,469.0 L 549.0,500.0"/>
    <path d="M 548.0,269.0 L 562.0,256.0 L 696.0,227.0 L 723.0,233.0 L 750.0,259.0 L 714.0,452.0 L 703.0,473.0 L 681.0,474.0"/>
    <path d="M 556.0,373.0 L 580.0,359.0 L 621.0,349.0 L 665.0,353.0"/>
    <path d="M 564.0,480.0 L 597.0,465.0 L 678.0,453.0"/>
    <path d="M 527.0,507.0 L 544.0,535.0 L 510.0,605.0 L 449.0,682.0 L 413.0,707.0"/>
    <path d="M 526.0,631.0 L 624.0,624.0 L 810.0,589.0 L 834.0,594.0 L 854.0,616.0 L 808.0,833.0 L 780.0,915.0 L 751.0,972.0 L 710.0,1005.0 L 621.0,942.0"/>
    <path d="M 547.0,655.0 L 566.0,676.0 L 567.0,686.0 L 543.0,733.0 L 481.0,810.0 L 443.0,846.0 L 419.0,859.0"/>
    <path d="M 671.0,635.0 L 697.0,662.0 L 675.0,719.0 L 638.0,787.0 L 594.0,852.0 L 554.0,898.0 L 507.0,943.0 L 459.0,978.0"/>
  </g>
</svg>
