<svg xmlns="http://www.w3.org/2000/svg" viewBox="0 0 1024 1024">
  <g style="fill:none;stroke:#000000;stroke-width:50;stroke-linecap:round;stroke-linejoin:round;" transform="scale(1, 1) translate(0, 0)">
    <path d="M 124.0,362.0 L 153.0,384.0 L 192.0,537.0"/>
    <path d="M 183.0,384.0 L 206.0,368.0 L 234.0,365.0 L 269.0,351.0 L 309.0,342.0 L 326.0,346.0 L 347.0,367.0 L 345.0,377.0 L 324.0,453.0 L 301.0,468.0"/>
    <path d="M 208.0,526.0 L 219.0,516.0 L 295.0,493.0 L 349.0,495.0"/>
    <path d="M 229.0,536.0 L 254.0,549.0 L 260.0,561.0 L 256.0,804.0 L 238.0,821.0"/>
    <path d="M 284.0,646.0 L 302.0,630.0 L 354.0,626.0"/>
    <path d="M 99.0,647.0 L 141.0,686.0 L 164.0,839.0 L 151.0,854.0"/>
    <path d="M 48.0,908.0 L 102.0,919.0 L 371.0,791.0"/>
    <path d="M 453.0,267.0 L 488.0,300.0 L 476.0,373.0 L 441.0,467.0 L 416.0,511.0 L 372.0,568.0"/>
    <path d="M 443.0,510.0 L 600.0,462.0 L 646.0,458.0"/>
    <path d="M 342.0,714.0 L 399.0,716.0 L 584.0,668.0 L 645.0,668.0"/>
    <path d="M 490.0,529.0 L 517.0,551.0 L 516.0,595.0 L 503.0,711.0 L 480.0,801.0 L 450.0,868.0 L 412.0,920.0 L 357.0,965.0 L 316.0,984.0"/>
    <path d="M 547.0,808.0 L 629.0,879.0 L 648.0,911.0 L 655.0,943.0"/>
    <path d="M 651.0,557.0 L 680.0,585.0 L 709.0,833.0"/>
    <path d="M 713.0,570.0 L 723.0,576.0 L 855.0,545.0 L 892.0,573.0 L 866.0,729.0 L 843.0,746.0"/>
    <path d="M 730.0,807.0 L 752.0,790.0 L 835.0,775.0 L 881.0,775.0 L 903.0,782.0"/>
  </g>
</svg>
