<svg xmlns="http://www.w3.org/2000/svg" viewBox="0 0 1024 1024">
  <g style="fill:none;stroke:#000000;stroke-width:50;stroke-linecap:round;stroke-linejoin:round;" transform="scale(1, 1) translate(0, 0)">
    <path d="M 128.0,330.0 L 155.0,352.0 L 159.0,362.0 L 200.0,529.0"/>
    <path d="M 184.0,349.0 L 208.0,335.0 L 316.0,309.0 L 345.0,324.0 L 356.0,337.0 L 327.0,426.0 L 300.0,447.0"/>
    <path d="M 218.0,502.0 L 231.0,491.0 L 302.0,472.0 L 341.0,466.0 L 365.0,470.0"/>
    <path d="M 233.0,516.0 L 257.0,527.0 L 268.0,542.0 L 268.0,773.0 L 250.0,790.0"/>
    <path d="M 299.0,633.0 L 321.0,615.0 L 361.0,607.0 L 393.0,609.0"/>
    <path d="M 110.0,628.0 L 151.0,668.0 L 169.0,809.0 L 155.0,824.0"/>
    <path d="M 74.0,866.0 L 130.0,880.0 L 400.0,755.0"/>
    <path d="M 573.0,212.0 L 647.0,257.0 L 678.0,299.0"/>
    <path d="M 477.0,419.0 L 533.0,425.0 L 660.0,406.0 L 768.0,382.0 L 794.0,384.0"/>
    <path d="M 494.0,507.0 L 542.0,566.0 L 547.0,598.0"/>
    <path d="M 678.0,428.0 L 710.0,457.0 L 669.0,575.0 L 646.0,627.0 L 634.0,640.0"/>
    <path d="M 390.0,680.0 L 446.0,688.0 L 547.0,672.0 L 847.0,642.0 L 890.0,648.0 L 927.0,661.0"/>
    <path d="M 440.0,788.0 L 474.0,828.0 L 508.0,1028.0"/>
    <path d="M 474.0,789.0 L 478.0,785.0 L 507.0,797.0 L 707.0,763.0 L 732.0,765.0 L 767.0,801.0 L 733.0,896.0 L 705.0,918.0"/>
    <path d="M 525.0,956.0 L 538.0,967.0 L 694.0,946.0 L 754.0,944.0 L 778.0,953.0"/>
  </g>
</svg>
