<svg xmlns="http://www.w3.org/2000/svg" viewBox="0 0 1024 1024">
  <g style="fill:none;stroke:#000000;stroke-width:50;stroke-linecap:round;stroke-linejoin:round;" transform="scale(1, 1) translate(0, 0)">
    <path d="M 132.0,353.0 L 156.0,375.0 L 164.0,394.0 L 193.0,553.0"/>
    <path d="M 187.0,373.0 L 195.0,363.0 L 297.0,335.0 L 328.0,339.0 L 348.0,360.0 L 346.0,371.0 L 325.0,450.0 L 302.0,467.0"/>
    <path d="M 213.0,522.0 L 220.0,512.0 L 275.0,497.0 L 338.0,490.0 L 356.0,494.0"/>
    <path d="M 234.0,532.0 L 259.0,545.0 L 267.0,560.0 L 264.0,789.0 L 246.0,807.0"/>
    <path d="M 296.0,684.0 L 309.0,668.0 L 336.0,659.0 L 381.0,658.0"/>
    <path d="M 103.0,658.0 L 142.0,697.0 L 156.0,829.0 L 143.0,844.0"/>
    <path d="M 58.0,886.0 L 68.0,892.0 L 118.0,897.0 L 356.0,787.0"/>
    <path d="M 589.0,172.0 L 658.0,216.0 L 681.0,256.0"/>
    <path d="M 496.0,364.0 L 519.0,373.0 L 551.0,369.0 L 659.0,351.0 L 782.0,320.0 L 820.0,320.0"/>
    <path d="M 435.0,348.0 L 459.0,366.0 L 472.0,393.0 L 463.0,555.0 L 440.0,694.0 L 401.0,819.0 L 365.0,898.0 L 305.0,993.0 L 275.0,1027.0"/>
    <path d="M 491.0,548.0 L 537.0,553.0 L 567.0,542.0 L 800.0,501.0 L 836.0,500.0 L 876.0,509.0"/>
    <path d="M 561.0,449.0 L 577.0,454.0 L 595.0,473.0 L 606.0,667.0"/>
    <path d="M 710.0,391.0 L 742.0,429.0 L 712.0,577.0 L 694.0,596.0"/>
    <path d="M 621.0,641.0 L 634.0,632.0 L 692.0,622.0 L 744.0,630.0"/>
    <path d="M 528.0,745.0 L 593.0,743.0 L 682.0,714.0 L 708.0,716.0 L 729.0,727.0 L 715.0,778.0 L 681.0,850.0 L 620.0,926.0 L 531.0,977.0 L 444.0,995.0"/>
    <path d="M 527.0,790.0 L 565.0,807.0 L 680.0,925.0 L 779.0,1000.0 L 804.0,1010.0 L 956.0,1033.0"/>
  </g>
</svg>
