<svg xmlns="http://www.w3.org/2000/svg" viewBox="0 0 1024 1024">
  <g style="fill:none;stroke:#000000;stroke-width:50;stroke-linecap:round;stroke-linejoin:round;" transform="scale(1, 1) translate(0, 0)">
    <path d="M 139.0,333.0 L 168.0,357.0 L 212.0,537.0"/>
    <path d="M 204.0,357.0 L 210.0,346.0 L 283.0,324.0 L 337.0,311.0 L 353.0,315.0 L 375.0,337.0 L 346.0,433.0 L 321.0,444.0"/>
    <path d="M 229.0,507.0 L 243.0,497.0 L 319.0,476.0 L 358.0,474.0 L 377.0,479.0"/>
    <path d="M 248.0,514.0 L 274.0,533.0 L 279.0,555.0 L 277.0,763.0 L 272.0,781.0 L 260.0,791.0"/>
    <path d="M 310.0,636.0 L 314.0,625.0 L 339.0,615.0 L 375.0,609.0 L 396.0,613.0"/>
    <path d="M 117.0,628.0 L 158.0,662.0 L 183.0,802.0 L 170.0,815.0"/>
    <path d="M 64.0,862.0 L 118.0,879.0 L 396.0,763.0"/>
    <path d="M 774.0,273.0 L 737.0,263.0 L 710.0,263.0 L 637.0,306.0 L 562.0,338.0 L 521.0,347.0 L 512.0,355.0 L 494.0,353.0 L 484.0,362.0"/>
    <path d="M 453.0,447.0 L 474.0,465.0 L 484.0,486.0 L 512.0,627.0"/>
    <path d="M 501.0,450.0 L 510.0,458.0 L 527.0,458.0 L 585.0,449.0 L 711.0,415.0 L 745.0,414.0 L 758.0,421.0 L 780.0,448.0 L 757.0,506.0 L 730.0,522.0"/>
    <path d="M 527.0,573.0 L 546.0,580.0 L 717.0,548.0 L 765.0,549.0 L 782.0,555.0"/>
    <path d="M 412.0,695.0 L 432.0,712.0 L 443.0,756.0 L 446.0,833.0 L 438.0,982.0"/>
    <path d="M 456.0,699.0 L 477.0,710.0 L 609.0,679.0 L 788.0,655.0 L 825.0,654.0 L 842.0,663.0 L 861.0,687.0 L 854.0,717.0 L 849.0,888.0 L 840.0,943.0 L 829.0,961.0 L 793.0,953.0 L 738.0,928.0"/>
    <path d="M 582.0,346.0 L 614.0,367.0 L 621.0,378.0 L 624.0,407.0 L 622.0,770.0 L 606.0,795.0"/>
    <path d="M 493.0,830.0 L 534.0,842.0 L 716.0,786.0 L 723.0,790.0"/>
    <path d="M 706.0,730.0 L 756.0,783.0 L 770.0,823.0"/>
  </g>
</svg>
