<svg xmlns="http://www.w3.org/2000/svg" viewBox="0 0 1024 1024">
  <g style="fill:none;stroke:#000000;stroke-width:50;stroke-linecap:round;stroke-linejoin:round;" transform="scale(1, 1) translate(0, 0)">
    <path d="M 160.0,340.0 L 190.0,373.0 L 220.0,534.0"/>
    <path d="M 212.0,342.0 L 223.0,350.0 L 342.0,321.0 L 370.0,336.0 L 380.0,347.0 L 363.0,408.0 L 351.0,440.0 L 334.0,451.0"/>
    <path d="M 239.0,510.0 L 251.0,497.0 L 329.0,478.0 L 381.0,483.0"/>
    <path d="M 261.0,520.0 L 287.0,535.0 L 292.0,545.0 L 288.0,770.0 L 270.0,786.0"/>
    <path d="M 320.0,649.0 L 334.0,631.0 L 344.0,628.0 L 366.0,623.0 L 398.0,626.0"/>
    <path d="M 127.0,618.0 L 168.0,658.0 L 195.0,801.0 L 182.0,814.0"/>
    <path d="M 88.0,859.0 L 109.0,869.0 L 143.0,874.0 L 330.0,798.0 L 392.0,767.0"/>
    <path d="M 574.0,207.0 L 669.0,252.0 L 702.0,289.0"/>
    <path d="M 539.0,413.0 L 555.0,421.0 L 581.0,417.0 L 705.0,380.0 L 761.0,376.0 L 790.0,404.0 L 765.0,470.0 L 738.0,489.0"/>
    <path d="M 537.0,561.0 L 728.0,517.0 L 775.0,515.0 L 799.0,522.0"/>
    <path d="M 475.0,398.0 L 508.0,427.0 L 512.0,442.0 L 506.0,572.0 L 484.0,692.0 L 462.0,753.0 L 425.0,815.0 L 384.0,863.0 L 337.0,901.0 L 314.0,912.0"/>
    <path d="M 509.0,685.0 L 515.0,692.0 L 518.0,723.0 L 513.0,918.0 L 523.0,964.0"/>
    <path d="M 522.0,687.0 L 555.0,696.0 L 671.0,665.0 L 848.0,640.0 L 873.0,651.0 L 892.0,674.0 L 885.0,704.0 L 883.0,859.0 L 875.0,934.0 L 865.0,955.0 L 832.0,946.0 L 799.0,928.0"/>
    <path d="M 568.0,813.0 L 598.0,813.0 L 766.0,779.0 L 811.0,785.0"/>
    <path d="M 605.0,701.0 L 626.0,719.0 L 631.0,907.0"/>
    <path d="M 713.0,681.0 L 735.0,700.0 L 735.0,951.0"/>
  </g>
</svg>
