<svg xmlns="http://www.w3.org/2000/svg" viewBox="0 0 1024 1024">
  <g style="fill:none;stroke:#000000;stroke-width:50;stroke-linecap:round;stroke-linejoin:round;" transform="scale(1, 1) translate(0, 0)">
    <path d="M 165.0,328.0 L 194.0,359.0 L 228.0,535.0"/>
    <path d="M 219.0,350.0 L 228.0,340.0 L 293.0,327.0 L 326.0,314.0 L 361.0,318.0 L 380.0,338.0 L 356.0,434.0 L 333.0,451.0"/>
    <path d="M 246.0,506.0 L 258.0,496.0 L 333.0,477.0 L 369.0,474.0 L 392.0,480.0"/>
    <path d="M 267.0,515.0 L 293.0,536.0 L 296.0,578.0 L 297.0,755.0 L 281.0,780.0"/>
    <path d="M 326.0,657.0 L 337.0,641.0 L 373.0,634.0 L 404.0,637.0"/>
    <path d="M 131.0,605.0 L 170.0,643.0 L 194.0,795.0 L 181.0,808.0"/>
    <path d="M 88.0,850.0 L 143.0,864.0 L 336.0,791.0 L 400.0,759.0"/>
    <path d="M 746.0,237.0 L 684.0,222.0 L 622.0,259.0 L 500.0,298.0"/>
    <path d="M 450.0,334.0 L 501.0,375.0 L 518.0,414.0"/>
    <path d="M 586.0,319.0 L 623.0,355.0 L 638.0,382.0"/>
    <path d="M 794.0,281.0 L 809.0,316.0 L 694.0,410.0"/>
    <path d="M 572.0,400.0 L 585.0,425.0 L 585.0,446.0 L 510.0,523.0 L 499.0,537.0 L 495.0,555.0 L 528.0,565.0 L 619.0,554.0"/>
    <path d="M 709.0,452.0 L 720.0,490.0 L 668.0,543.0 L 533.0,650.0 L 525.0,680.0 L 550.0,685.0 L 732.0,647.0 L 746.0,646.0 L 753.0,653.0"/>
    <path d="M 738.0,591.0 L 797.0,658.0 L 805.0,689.0"/>
    <path d="M 396.0,820.0 L 441.0,827.0 L 550.0,807.0 L 838.0,770.0 L 911.0,786.0"/>
    <path d="M 588.0,698.0 L 621.0,722.0 L 618.0,760.0 L 607.0,823.0 L 589.0,870.0 L 562.0,917.0 L 531.0,955.0 L 493.0,984.0 L 442.0,1009.0 L 392.0,1022.0"/>
    <path d="M 642.0,820.0 L 655.0,826.0 L 801.0,987.0 L 864.0,1006.0 L 936.0,1016.0"/>
  </g>
</svg>
