<svg xmlns="http://www.w3.org/2000/svg" viewBox="0 0 1024 1024">
  <g style="fill:none;stroke:#000000;stroke-width:50;stroke-linecap:round;stroke-linejoin:round;" transform="scale(1, 1) translate(0, 0)">
    <path d="M 171.0,345.0 L 197.0,366.0 L 206.0,387.0 L 236.0,542.0"/>
    <path d="M 228.0,365.0 L 245.0,352.0 L 335.0,328.0 L 361.0,322.0 L 380.0,327.0 L 400.0,348.0 L 398.0,357.0 L 374.0,445.0 L 349.0,462.0"/>
    <path d="M 252.0,522.0 L 264.0,511.0 L 341.0,488.0 L 405.0,486.0"/>
    <path d="M 278.0,532.0 L 304.0,547.0 L 311.0,558.0 L 313.0,583.0 L 308.0,801.0 L 290.0,818.0"/>
    <path d="M 342.0,654.0 L 348.0,642.0 L 366.0,633.0 L 404.0,626.0 L 440.0,630.0"/>
    <path d="M 139.0,651.0 L 180.0,688.0 L 202.0,837.0 L 188.0,852.0"/>
    <path d="M 103.0,894.0 L 159.0,910.0 L 436.0,787.0"/>
    <path d="M 771.0,283.0 L 706.0,274.0 L 634.0,324.0 L 522.0,373.0"/>
    <path d="M 479.0,443.0 L 538.0,499.0 L 551.0,532.0"/>
    <path d="M 598.0,406.0 L 643.0,447.0 L 670.0,486.0"/>
    <path d="M 812.0,367.0 L 831.0,387.0 L 838.0,407.0 L 789.0,461.0 L 709.0,532.0"/>
    <path d="M 617.0,616.0 L 585.0,610.0 L 541.0,655.0 L 497.0,684.0"/>
    <path d="M 443.0,680.0 L 477.0,710.0 L 520.0,976.0"/>
    <path d="M 526.0,801.0 L 533.0,789.0 L 577.0,775.0 L 633.0,773.0"/>
    <path d="M 692.0,620.0 L 746.0,623.0 L 844.0,601.0 L 869.0,613.0 L 885.0,637.0 L 848.0,875.0 L 837.0,918.0 L 816.0,947.0 L 815.0,1001.0"/>
    <path d="M 712.0,762.0 L 818.0,753.0 L 836.0,740.0"/>
    <path d="M 542.0,949.0 L 559.0,934.0 L 588.0,929.0 L 745.0,907.0 L 792.0,911.0"/>
  </g>
</svg>
