<svg xmlns="http://www.w3.org/2000/svg" viewBox="0 0 1024 1024">
  <g style="fill:none;stroke:#000000;stroke-width:50;stroke-linecap:round;stroke-linejoin:round;" transform="scale(1, 1) translate(0, 0)">
    <path d="M 179.0,329.0 L 209.0,359.0 L 244.0,538.0"/>
    <path d="M 239.0,352.0 L 248.0,342.0 L 345.0,313.0 L 368.0,310.0 L 390.0,324.0 L 400.0,337.0 L 381.0,413.0 L 375.0,429.0 L 352.0,449.0"/>
    <path d="M 265.0,511.0 L 274.0,497.0 L 343.0,476.0 L 399.0,466.0 L 421.0,472.0"/>
    <path d="M 283.0,516.0 L 307.0,532.0 L 315.0,545.0 L 317.0,762.0 L 312.0,780.0 L 301.0,792.0"/>
    <path d="M 347.0,641.0 L 359.0,625.0 L 372.0,621.0 L 428.0,621.0"/>
    <path d="M 143.0,623.0 L 184.0,662.0 L 203.0,790.0 L 203.0,810.0 L 193.0,820.0"/>
    <path d="M 97.0,864.0 L 152.0,880.0 L 432.0,767.0"/>
    <path d="M 531.0,258.0 L 582.0,299.0 L 599.0,334.0"/>
    <path d="M 744.0,199.0 L 768.0,234.0 L 685.0,331.0 L 670.0,341.0"/>
    <path d="M 501.0,420.0 L 522.0,426.0 L 572.0,426.0 L 762.0,388.0 L 811.0,388.0"/>
    <path d="M 492.0,547.0 L 551.0,552.0 L 732.0,521.0 L 795.0,526.0"/>
    <path d="M 436.0,677.0 L 471.0,684.0 L 691.0,645.0 L 817.0,631.0 L 889.0,645.0"/>
    <path d="M 607.0,445.0 L 632.0,468.0 L 631.0,473.0 L 587.0,630.0 L 538.0,752.0 L 478.0,853.0 L 440.0,904.0 L 345.0,994.0"/>
    <path d="M 551.0,787.0 L 566.0,781.0 L 605.0,782.0 L 669.0,772.0 L 751.0,751.0 L 804.0,752.0"/>
    <path d="M 644.0,798.0 L 668.0,826.0 L 663.0,918.0 L 646.0,931.0"/>
    <path d="M 434.0,972.0 L 491.0,981.0 L 605.0,965.0 L 836.0,948.0 L 885.0,953.0 L 931.0,970.0"/>
  </g>
</svg>
