<svg xmlns="http://www.w3.org/2000/svg" viewBox="0 0 1024 1024">
  <g style="fill:none;stroke:#000000;stroke-width:50;stroke-linecap:round;stroke-linejoin:round;" transform="scale(1, 1) translate(0, 0)">
    <path d="M 173.0,328.0 L 197.0,350.0 L 203.0,365.0 L 232.0,535.0"/>
    <path d="M 226.0,350.0 L 235.0,340.0 L 334.0,314.0 L 369.0,318.0 L 388.0,338.0 L 364.0,434.0 L 342.0,449.0"/>
    <path d="M 250.0,506.0 L 262.0,496.0 L 340.0,476.0 L 395.0,479.0"/>
    <path d="M 271.0,514.0 L 297.0,536.0 L 301.0,595.0 L 301.0,768.0 L 297.0,783.0 L 285.0,792.0"/>
    <path d="M 330.0,657.0 L 341.0,641.0 L 377.0,634.0 L 408.0,637.0"/>
    <path d="M 139.0,621.0 L 179.0,659.0 L 201.0,803.0 L 188.0,816.0"/>
    <path d="M 94.0,856.0 L 152.0,870.0 L 421.0,771.0"/>
    <path d="M 447.0,391.0 L 469.0,396.0 L 522.0,394.0 L 797.0,348.0 L 851.0,347.0 L 896.0,360.0"/>
    <path d="M 536.0,277.0 L 570.0,303.0 L 589.0,465.0"/>
    <path d="M 725.0,210.0 L 741.0,219.0 L 759.0,246.0 L 735.0,342.0 L 698.0,450.0"/>
    <path d="M 495.0,514.0 L 541.0,523.0 L 754.0,487.0 L 793.0,485.0 L 830.0,491.0"/>
    <path d="M 438.0,618.0 L 464.0,650.0 L 471.0,670.0 L 463.0,904.0 L 471.0,949.0"/>
    <path d="M 492.0,638.0 L 510.0,646.0 L 676.0,614.0 L 825.0,599.0 L 850.0,602.0 L 873.0,622.0 L 876.0,783.0 L 870.0,879.0 L 856.0,947.0 L 837.0,973.0 L 754.0,939.0 L 737.0,925.0"/>
    <path d="M 566.0,548.0 L 581.0,556.0 L 592.0,575.0 L 584.0,671.0 L 556.0,765.0 L 530.0,813.0 L 503.0,845.0"/>
    <path d="M 589.0,744.0 L 592.0,755.0 L 630.0,783.0 L 643.0,804.0"/>
    <path d="M 707.0,519.0 L 731.0,534.0 L 739.0,547.0 L 733.0,632.0 L 716.0,723.0 L 677.0,829.0 L 628.0,896.0"/>
    <path d="M 736.0,761.0 L 738.0,771.0 L 789.0,811.0 L 805.0,843.0"/>
  </g>
</svg>
