<svg xmlns="http://www.w3.org/2000/svg" viewBox="0 0 1024 1024">
  <g style="fill:none;stroke:#000000;stroke-width:50;stroke-linecap:round;stroke-linejoin:round;" transform="scale(1, 1) translate(0, 0)">
    <path d="M 152.0,330.0 L 177.0,350.0 L 187.0,371.0 L 220.0,513.0"/>
    <path d="M 202.0,332.0 L 230.0,335.0 L 338.0,306.0 L 365.0,310.0 L 384.0,331.0 L 355.0,420.0 L 331.0,437.0"/>
    <path d="M 237.0,490.0 L 252.0,478.0 L 322.0,462.0 L 368.0,457.0 L 388.0,462.0"/>
    <path d="M 262.0,500.0 L 287.0,512.0 L 297.0,527.0 L 300.0,770.0 L 282.0,787.0"/>
    <path d="M 330.0,644.0 L 351.0,622.0 L 398.0,615.0 L 424.0,618.0"/>
    <path d="M 136.0,634.0 L 165.0,658.0 L 176.0,683.0 L 194.0,805.0 L 180.0,821.0"/>
    <path d="M 80.0,870.0 L 138.0,885.0 L 440.0,751.0"/>
    <path d="M 508.0,311.0 L 550.0,315.0 L 597.0,310.0 L 774.0,263.0 L 811.0,265.0"/>
    <path d="M 529.0,416.0 L 560.0,414.0 L 737.0,368.0 L 766.0,365.0 L 792.0,371.0"/>
    <path d="M 614.0,175.0 L 652.0,207.0 L 643.0,446.0 L 627.0,469.0"/>
    <path d="M 408.0,524.0 L 459.0,529.0 L 675.0,483.0 L 877.0,450.0 L 951.0,462.0"/>
    <path d="M 500.0,571.0 L 513.0,581.0 L 529.0,612.0 L 524.0,840.0 L 529.0,882.0"/>
    <path d="M 546.0,578.0 L 554.0,586.0 L 582.0,589.0 L 749.0,553.0 L 761.0,557.0 L 791.0,587.0 L 788.0,792.0 L 779.0,876.0"/>
    <path d="M 555.0,676.0 L 568.0,665.0 L 645.0,653.0 L 689.0,650.0 L 711.0,656.0"/>
    <path d="M 557.0,768.0 L 566.0,758.0 L 644.0,745.0 L 689.0,742.0 L 711.0,748.0"/>
    <path d="M 553.0,861.0 L 572.0,846.0 L 688.0,830.0 L 731.0,830.0 L 740.0,843.0"/>
    <path d="M 609.0,933.0 L 577.0,936.0 L 528.0,988.0 L 486.0,1022.0 L 435.0,1055.0 L 380.0,1080.0"/>
    <path d="M 714.0,922.0 L 813.0,1014.0 L 831.0,1046.0 L 840.0,1081.0"/>
  </g>
</svg>
