<svg xmlns="http://www.w3.org/2000/svg" viewBox="0 0 1024 1024">
  <g style="fill:none;stroke:#000000;stroke-width:50;stroke-linecap:round;stroke-linejoin:round;" transform="scale(1, 1) translate(0, 0)">
    <path d="M 139.0,365.0 L 170.0,397.0 L 204.0,574.0"/>
    <path d="M 196.0,370.0 L 209.0,377.0 L 327.0,346.0 L 348.0,353.0 L 367.0,374.0 L 341.0,462.0 L 340.0,474.0 L 356.0,493.0"/>
    <path d="M 221.0,548.0 L 234.0,535.0 L 299.0,518.0 L 364.0,520.0"/>
    <path d="M 250.0,557.0 L 279.0,574.0 L 285.0,606.0 L 284.0,825.0 L 266.0,842.0"/>
    <path d="M 316.0,700.0 L 332.0,679.0 L 367.0,668.0 L 401.0,670.0"/>
    <path d="M 117.0,698.0 L 159.0,737.0 L 180.0,863.0 L 167.0,879.0"/>
    <path d="M 96.0,924.0 L 151.0,934.0 L 427.0,804.0"/>
    <path d="M 614.0,235.0 L 655.0,272.0 L 649.0,434.0 L 642.0,463.0 L 630.0,474.0"/>
    <path d="M 488.0,362.0 L 557.0,412.0 L 570.0,439.0"/>
    <path d="M 795.0,292.0 L 814.0,326.0 L 731.0,408.0 L 715.0,417.0"/>
    <path d="M 434.0,480.0 L 448.0,515.0 L 426.0,600.0 L 425.0,628.0"/>
    <path d="M 480.0,515.0 L 490.0,524.0 L 502.0,525.0 L 718.0,477.0 L 843.0,463.0 L 868.0,473.0 L 886.0,499.0 L 832.0,569.0 L 821.0,573.0"/>
    <path d="M 509.0,609.0 L 528.0,624.0 L 539.0,643.0 L 564.0,766.0"/>
    <path d="M 550.0,606.0 L 572.0,615.0 L 711.0,585.0 L 731.0,587.0 L 762.0,617.0 L 739.0,675.0 L 713.0,692.0"/>
    <path d="M 581.0,744.0 L 595.0,735.0 L 685.0,719.0 L 748.0,715.0 L 766.0,721.0"/>
    <path d="M 497.0,851.0 L 551.0,858.0 L 616.0,849.0 L 717.0,824.0 L 788.0,820.0"/>
    <path d="M 609.0,752.0 L 641.0,782.0 L 638.0,939.0 L 621.0,962.0"/>
    <path d="M 406.0,1004.0 L 459.0,1012.0 L 563.0,995.0 L 828.0,967.0 L 883.0,973.0 L 917.0,985.0"/>
  </g>
</svg>
