<svg xmlns="http://www.w3.org/2000/svg" viewBox="0 0 1024 1024">
  <g style="fill:none;stroke:#000000;stroke-width:50;stroke-linecap:round;stroke-linejoin:round;" transform="scale(1, 1) translate(0, 0)">
    <path d="M 129.0,363.0 L 154.0,385.0 L 162.0,402.0 L 192.0,547.0"/>
    <path d="M 184.0,381.0 L 207.0,367.0 L 283.0,344.0 L 311.0,355.0 L 321.0,366.0 L 300.0,458.0 L 279.0,475.0"/>
    <path d="M 208.0,525.0 L 269.0,501.0 L 311.0,495.0 L 333.0,498.0"/>
    <path d="M 232.0,539.0 L 254.0,550.0 L 257.0,577.0 L 253.0,776.0 L 236.0,791.0"/>
    <path d="M 279.0,650.0 L 292.0,639.0 L 327.0,630.0 L 354.0,632.0"/>
    <path d="M 95.0,640.0 L 134.0,678.0 L 156.0,812.0 L 144.0,826.0"/>
    <path d="M 72.0,872.0 L 126.0,876.0 L 281.0,804.0 L 336.0,771.0"/>
    <path d="M 382.0,371.0 L 399.0,385.0 L 411.0,413.0 L 401.0,557.0 L 443.0,553.0 L 492.0,539.0 L 495.0,529.0"/>
    <path d="M 481.0,268.0 L 506.0,288.0 L 526.0,314.0 L 527.0,325.0 L 525.0,690.0 L 510.0,952.0 L 513.0,1026.0"/>
    <path d="M 338.0,715.0 L 364.0,721.0 L 402.0,715.0 L 487.0,688.0 L 496.0,679.0"/>
    <path d="M 385.0,749.0 L 399.0,758.0 L 405.0,771.0 L 382.0,862.0 L 345.0,929.0 L 301.0,974.0"/>
    <path d="M 698.0,251.0 L 714.0,281.0 L 683.0,336.0 L 616.0,411.0 L 561.0,448.0"/>
    <path d="M 694.0,359.0 L 713.0,350.0 L 727.0,354.0 L 731.0,349.0 L 789.0,342.0 L 809.0,346.0 L 822.0,362.0 L 777.0,449.0 L 703.0,539.0 L 646.0,586.0 L 582.0,621.0"/>
    <path d="M 648.0,406.0 L 700.0,451.0"/>
    <path d="M 582.0,453.0 L 616.0,475.0 L 631.0,493.0 L 638.0,517.0"/>
    <path d="M 573.0,688.0 L 619.0,687.0 L 846.0,641.0 L 891.0,642.0 L 918.0,650.0"/>
    <path d="M 751.0,551.0 L 793.0,596.0 L 792.0,927.0 L 772.0,975.0 L 673.0,930.0"/>
    <path d="M 596.0,746.0 L 655.0,787.0 L 674.0,818.0"/>
  </g>
</svg>
