<svg xmlns="http://www.w3.org/2000/svg" viewBox="0 0 1024 1024">
  <g style="fill:none;stroke:#000000;stroke-width:50;stroke-linecap:round;stroke-linejoin:round;" transform="scale(1, 1) translate(0, 0)">
    <path d="M 112.0,367.0 L 142.0,397.0 L 176.0,546.0"/>
    <path d="M 173.0,389.0 L 186.0,378.0 L 281.0,349.0 L 313.0,351.0 L 333.0,371.0 L 311.0,453.0 L 288.0,472.0"/>
    <path d="M 194.0,526.0 L 209.0,514.0 L 279.0,495.0 L 327.0,488.0 L 348.0,492.0"/>
    <path d="M 217.0,502.0 L 247.0,540.0 L 248.0,549.0 L 249.0,792.0 L 233.0,819.0"/>
    <path d="M 277.0,678.0 L 296.0,660.0 L 341.0,652.0 L 362.0,656.0"/>
    <path d="M 105.0,660.0 L 144.0,697.0 L 161.0,828.0 L 148.0,842.0"/>
    <path d="M 72.0,880.0 L 130.0,892.0 L 377.0,787.0"/>
    <path d="M 437.0,311.0 L 539.0,286.0 L 558.0,304.0 L 528.0,389.0 L 463.0,496.0 L 402.0,561.0 L 353.0,595.0"/>
    <path d="M 412.0,391.0 L 449.0,414.0 L 467.0,434.0"/>
    <path d="M 696.0,230.0 L 714.0,256.0 L 648.0,339.0 L 651.0,348.0"/>
    <path d="M 828.0,343.0 L 797.0,334.0 L 716.0,407.0 L 717.0,413.0"/>
    <path d="M 584.0,331.0 L 599.0,331.0 L 620.0,348.0 L 722.0,465.0 L 802.0,534.0 L 842.0,555.0 L 967.0,568.0"/>
    <path d="M 484.0,541.0 L 540.0,543.0 L 632.0,518.0 L 680.0,515.0"/>
    <path d="M 436.0,637.0 L 457.0,652.0 L 470.0,672.0 L 504.0,786.0"/>
    <path d="M 476.0,633.0 L 497.0,643.0 L 642.0,610.0 L 668.0,612.0 L 688.0,625.0 L 698.0,641.0 L 676.0,698.0 L 652.0,717.0"/>
    <path d="M 520.0,767.0 L 534.0,759.0 L 635.0,739.0 L 689.0,733.0 L 709.0,739.0"/>
    <path d="M 450.0,822.0 L 505.0,883.0 L 514.0,918.0"/>
    <path d="M 670.0,773.0 L 689.0,809.0 L 663.0,868.0 L 622.0,938.0"/>
    <path d="M 350.0,973.0 L 404.0,982.0 L 550.0,962.0 L 795.0,943.0 L 832.0,946.0 L 884.0,965.0"/>
  </g>
</svg>
