<svg xmlns="http://www.w3.org/2000/svg" viewBox="0 0 1024 1024">
  <g style="fill:none;stroke:#000000;stroke-width:50;stroke-linecap:round;stroke-linejoin:round;" transform="scale(1, 1) translate(0, 0)">
    <path d="M 116.0,335.0 L 142.0,358.0 L 150.0,377.0 L 180.0,510.0"/>
    <path d="M 167.0,341.0 L 191.0,344.0 L 266.0,320.0 L 298.0,323.0 L 316.0,341.0 L 294.0,420.0 L 273.0,438.0"/>
    <path d="M 198.0,482.0 L 205.0,474.0 L 244.0,464.0 L 304.0,456.0 L 324.0,460.0"/>
    <path d="M 216.0,494.0 L 239.0,505.0 L 248.0,519.0 L 245.0,740.0 L 227.0,756.0"/>
    <path d="M 275.0,623.0 L 285.0,610.0 L 299.0,605.0 L 333.0,600.0 L 353.0,604.0"/>
    <path d="M 99.0,602.0 L 135.0,641.0 L 154.0,771.0 L 139.0,786.0"/>
    <path d="M 56.0,834.0 L 107.0,844.0 L 348.0,732.0"/>
    <path d="M 457.0,311.0 L 498.0,323.0 L 552.0,321.0 L 768.0,282.0 L 833.0,280.0"/>
    <path d="M 403.0,299.0 L 431.0,327.0 L 436.0,340.0 L 436.0,395.0 L 420.0,559.0 L 398.0,681.0 L 367.0,779.0 L 324.0,871.0 L 270.0,955.0 L 239.0,991.0"/>
    <path d="M 500.0,445.0 L 535.0,504.0"/>
    <path d="M 616.0,388.0 L 634.0,421.0 L 598.0,511.0 L 575.0,547.0"/>
    <path d="M 475.0,582.0 L 512.0,581.0 L 614.0,554.0 L 650.0,558.0"/>
    <path d="M 454.0,661.0 L 471.0,691.0 L 467.0,770.0 L 495.0,770.0 L 610.0,729.0 L 622.0,719.0"/>
    <path d="M 633.0,632.0 L 656.0,660.0 L 641.0,770.0"/>
    <path d="M 537.0,593.0 L 564.0,614.0 L 552.0,761.0 L 534.0,828.0 L 503.0,893.0 L 471.0,935.0 L 407.0,983.0"/>
    <path d="M 737.0,360.0 L 764.0,380.0 L 764.0,414.0 L 729.0,525.0 L 688.0,599.0"/>
    <path d="M 736.0,545.0 L 829.0,511.0 L 865.0,512.0 L 881.0,530.0 L 821.0,602.0"/>
    <path d="M 721.0,640.0 L 745.0,662.0 L 752.0,678.0 L 739.0,759.0 L 712.0,840.0 L 684.0,892.0 L 639.0,943.0 L 606.0,968.0 L 544.0,1000.0"/>
    <path d="M 759.0,786.0 L 762.0,811.0 L 820.0,894.0 L 874.0,956.0 L 946.0,984.0 L 984.0,992.0"/>
  </g>
</svg>
