<svg xmlns="http://www.w3.org/2000/svg" viewBox="0 0 1024 1024">
  <g style="fill:none;stroke:#000000;stroke-width:50;stroke-linecap:round;stroke-linejoin:round;" transform="scale(1, 1) translate(0, 0)">
    <path d="M 152.0,324.0 L 183.0,355.0 L 216.0,494.0"/>
    <path d="M 203.0,328.0 L 223.0,331.0 L 318.0,300.0 L 350.0,303.0 L 369.0,323.0 L 342.0,409.0 L 321.0,424.0"/>
    <path d="M 231.0,478.0 L 250.0,465.0 L 316.0,448.0 L 368.0,450.0"/>
    <path d="M 262.0,484.0 L 288.0,499.0 L 296.0,511.0 L 292.0,756.0 L 274.0,771.0"/>
    <path d="M 326.0,599.0 L 337.0,586.0 L 361.0,578.0 L 409.0,581.0"/>
    <path d="M 136.0,613.0 L 173.0,650.0 L 192.0,786.0 L 179.0,800.0"/>
    <path d="M 94.0,843.0 L 150.0,857.0 L 420.0,747.0"/>
    <path d="M 414.0,353.0 L 471.0,356.0 L 756.0,308.0 L 816.0,305.0 L 860.0,316.0"/>
    <path d="M 510.0,259.0 L 529.0,267.0 L 547.0,285.0 L 571.0,398.0"/>
    <path d="M 706.0,202.0 L 731.0,236.0 L 683.0,388.0"/>
    <path d="M 484.0,531.0 L 541.0,535.0 L 670.0,507.0 L 695.0,509.0"/>
    <path d="M 572.0,433.0 L 606.0,464.0 L 603.0,588.0 L 599.0,602.0 L 588.0,612.0"/>
    <path d="M 368.0,660.0 L 412.0,667.0 L 578.0,635.0 L 818.0,602.0 L 867.0,603.0 L 910.0,614.0"/>
    <path d="M 759.0,407.0 L 774.0,431.0 L 780.0,461.0 L 714.0,573.0 L 660.0,641.0 L 562.0,748.0 L 470.0,833.0 L 361.0,916.0 L 298.0,953.0"/>
    <path d="M 513.0,730.0 L 531.0,748.0 L 541.0,776.0 L 541.0,889.0 L 529.0,989.0 L 532.0,1025.0"/>
    <path d="M 572.0,768.0 L 616.0,745.0 L 722.0,720.0 L 740.0,723.0 L 763.0,744.0 L 770.0,959.0 L 758.0,1000.0 L 761.0,1053.0"/>
    <path d="M 571.0,877.0 L 579.0,864.0 L 595.0,860.0 L 656.0,851.0 L 676.0,856.0"/>
    <path d="M 559.0,990.0 L 572.0,980.0 L 595.0,976.0 L 709.0,970.0"/>
  </g>
</svg>
