<svg xmlns="http://www.w3.org/2000/svg" viewBox="0 0 1024 1024">
  <g style="fill:none;stroke:#000000;stroke-width:50;stroke-linecap:round;stroke-linejoin:round;" transform="scale(1, 1) translate(0, 0)">
    <path d="M 132.0,336.0 L 163.0,365.0 L 200.0,518.0"/>
    <path d="M 191.0,358.0 L 199.0,348.0 L 281.0,322.0 L 308.0,315.0 L 326.0,319.0 L 345.0,338.0 L 324.0,428.0 L 304.0,445.0"/>
    <path d="M 215.0,498.0 L 227.0,489.0 L 293.0,470.0 L 356.0,470.0"/>
    <path d="M 238.0,506.0 L 262.0,524.0 L 267.0,590.0 L 265.0,784.0 L 260.0,802.0 L 250.0,810.0"/>
    <path d="M 293.0,651.0 L 301.0,639.0 L 332.0,630.0 L 373.0,632.0"/>
    <path d="M 113.0,624.0 L 150.0,661.0 L 172.0,824.0 L 159.0,837.0"/>
    <path d="M 63.0,882.0 L 74.0,889.0 L 119.0,896.0 L 388.0,779.0"/>
    <path d="M 473.0,264.0 L 504.0,297.0 L 532.0,415.0"/>
    <path d="M 501.0,261.0 L 529.0,270.0 L 659.0,242.0 L 689.0,245.0 L 713.0,272.0 L 690.0,325.0 L 664.0,345.0"/>
    <path d="M 548.0,378.0 L 557.0,385.0 L 701.0,366.0 L 727.0,374.0"/>
    <path d="M 385.0,484.0 L 407.0,501.0 L 441.0,632.0"/>
    <path d="M 431.0,500.0 L 439.0,491.0 L 515.0,474.0 L 544.0,478.0 L 555.0,492.0 L 549.0,520.0 L 540.0,550.0 L 527.0,555.0"/>
    <path d="M 454.0,590.0 L 462.0,596.0 L 520.0,584.0 L 568.0,588.0"/>
    <path d="M 615.0,447.0 L 642.0,476.0 L 665.0,591.0"/>
    <path d="M 658.0,452.0 L 679.0,457.0 L 747.0,442.0 L 781.0,445.0 L 794.0,463.0 L 779.0,516.0 L 760.0,525.0"/>
    <path d="M 682.0,573.0 L 697.0,562.0 L 758.0,554.0 L 787.0,553.0 L 807.0,560.0"/>
    <path d="M 369.0,717.0 L 421.0,724.0 L 634.0,694.0 L 836.0,677.0 L 900.0,694.0"/>
    <path d="M 570.0,621.0 L 597.0,658.0 L 596.0,839.0 L 586.0,988.0 L 597.0,1064.0"/>
    <path d="M 612.0,719.0 L 564.0,744.0 L 508.0,814.0 L 431.0,888.0 L 358.0,941.0 L 286.0,978.0"/>
    <path d="M 624.0,722.0 L 632.0,749.0 L 673.0,798.0 L 758.0,889.0 L 814.0,936.0 L 965.0,968.0"/>
  </g>
</svg>
