<svg xmlns="http://www.w3.org/2000/svg" viewBox="0 0 1024 1024">
  <g style="fill:none;stroke:#000000;stroke-width:50;stroke-linecap:round;stroke-linejoin:round;" transform="scale(1, 1) translate(0, 0)">
    <path d="M 164.0,351.0 L 186.0,370.0 L 197.0,393.0 L 224.0,522.0"/>
    <path d="M 213.0,356.0 L 230.0,363.0 L 325.0,332.0 L 357.0,335.0 L 376.0,355.0 L 374.0,364.0 L 353.0,437.0 L 329.0,454.0"/>
    <path d="M 243.0,502.0 L 258.0,492.0 L 319.0,477.0 L 381.0,477.0"/>
    <path d="M 257.0,516.0 L 281.0,527.0 L 292.0,542.0 L 292.0,760.0 L 274.0,777.0"/>
    <path d="M 324.0,627.0 L 334.0,614.0 L 364.0,606.0 L 409.0,609.0"/>
    <path d="M 135.0,637.0 L 173.0,676.0 L 188.0,795.0 L 174.0,811.0"/>
    <path d="M 79.0,856.0 L 132.0,870.0 L 392.0,756.0"/>
    <path d="M 496.0,309.0 L 565.0,310.0 L 719.0,271.0 L 776.0,267.0"/>
    <path d="M 611.0,185.0 L 645.0,218.0 L 639.0,342.0 L 623.0,371.0"/>
    <path d="M 541.0,405.0 L 584.0,402.0 L 717.0,372.0 L 751.0,374.0"/>
    <path d="M 427.0,503.0 L 435.0,508.0 L 469.0,507.0 L 590.0,472.0 L 781.0,432.0 L 819.0,433.0 L 843.0,446.0 L 853.0,463.0 L 791.0,531.0"/>
    <path d="M 544.0,552.0 L 576.0,552.0 L 686.0,525.0 L 725.0,525.0"/>
    <path d="M 652.0,556.0 L 611.0,610.0"/>
    <path d="M 503.0,646.0 L 526.0,647.0 L 708.0,611.0 L 746.0,613.0"/>
    <path d="M 424.0,732.0 L 474.0,735.0 L 597.0,704.0 L 843.0,660.0 L 923.0,670.0"/>
    <path d="M 387.0,823.0 L 414.0,851.0 L 437.0,959.0"/>
    <path d="M 431.0,824.0 L 444.0,830.0 L 521.0,810.0 L 539.0,816.0 L 552.0,830.0 L 551.0,841.0 L 539.0,883.0 L 524.0,894.0"/>
    <path d="M 450.0,938.0 L 470.0,926.0 L 512.0,917.0 L 565.0,919.0"/>
    <path d="M 611.0,809.0 L 664.0,813.0 L 822.0,781.0 L 885.0,784.0"/>
    <path d="M 729.0,706.0 L 747.0,719.0 L 765.0,744.0 L 765.0,997.0 L 743.0,1037.0 L 655.0,990.0"/>
    <path d="M 598.0,878.0 L 651.0,907.0 L 667.0,931.0"/>
  </g>
</svg>
