<svg xmlns="http://www.w3.org/2000/svg" viewBox="0 0 1024 1024">
  <g style="fill:none;stroke:#000000;stroke-width:50;stroke-linecap:round;stroke-linejoin:round;" transform="scale(1, 1) translate(0, 0)">
    <path d="M 132.0,323.0 L 159.0,346.0 L 165.0,360.0 L 200.0,522.0"/>
    <path d="M 194.0,342.0 L 197.0,334.0 L 213.0,327.0 L 291.0,302.0 L 314.0,300.0 L 334.0,315.0 L 341.0,323.0 L 340.0,334.0 L 319.0,427.0 L 299.0,442.0"/>
    <path d="M 215.0,500.0 L 231.0,484.0 L 272.0,473.0 L 329.0,466.0 L 351.0,471.0"/>
    <path d="M 232.0,504.0 L 263.0,533.0 L 265.0,751.0 L 260.0,768.0 L 248.0,779.0"/>
    <path d="M 296.0,638.0 L 300.0,627.0 L 317.0,618.0 L 349.0,613.0 L 369.0,617.0"/>
    <path d="M 109.0,621.0 L 148.0,656.0 L 170.0,793.0 L 157.0,806.0"/>
    <path d="M 72.0,849.0 L 124.0,861.0 L 388.0,748.0"/>
    <path d="M 429.0,323.0 L 447.0,343.0 L 444.0,361.0 L 431.0,400.0 L 403.0,444.0 L 387.0,458.0"/>
    <path d="M 457.0,395.0 L 472.0,384.0 L 557.0,365.0 L 582.0,365.0"/>
    <path d="M 507.0,223.0 L 538.0,250.0 L 528.0,430.0 L 517.0,453.0"/>
    <path d="M 391.0,498.0 L 428.0,497.0 L 562.0,462.0 L 602.0,463.0"/>
    <path d="M 470.0,537.0 L 452.0,545.0 L 418.0,606.0 L 390.0,639.0 L 373.0,650.0"/>
    <path d="M 516.0,497.0 L 528.0,504.0 L 526.0,579.0 L 552.0,571.0 L 586.0,548.0 L 587.0,537.0 L 603.0,532.0"/>
    <path d="M 645.0,298.0 L 658.0,319.0 L 653.0,337.0 L 633.0,379.0 L 603.0,416.0"/>
    <path d="M 667.0,360.0 L 707.0,361.0 L 807.0,335.0 L 828.0,337.0"/>
    <path d="M 710.0,200.0 L 743.0,231.0 L 736.0,400.0 L 731.0,416.0 L 721.0,424.0"/>
    <path d="M 633.0,457.0 L 658.0,458.0 L 814.0,426.0 L 848.0,426.0 L 869.0,433.0"/>
    <path d="M 661.0,475.0 L 679.0,495.0 L 647.0,554.0 L 611.0,591.0"/>
    <path d="M 739.0,462.0 L 754.0,471.0 L 751.0,541.0 L 769.0,565.0 L 793.0,574.0 L 856.0,575.0 L 883.0,569.0 L 906.0,555.0 L 911.0,550.0 L 913.0,486.0"/>
    <path d="M 485.0,640.0 L 514.0,676.0 L 513.0,770.0 L 502.0,838.0 L 504.0,888.0"/>
    <path d="M 528.0,648.0 L 591.0,645.0 L 597.0,639.0 L 615.0,640.0 L 627.0,632.0 L 710.0,611.0 L 723.0,612.0 L 747.0,632.0 L 754.0,647.0 L 751.0,745.0 L 756.0,838.0 L 750.0,891.0"/>
    <path d="M 580.0,707.0 L 603.0,718.0 L 628.0,745.0 L 614.0,877.0 L 592.0,943.0 L 566.0,979.0 L 518.0,1008.0 L 438.0,1035.0 L 400.0,1039.0"/>
    <path d="M 687.0,928.0 L 765.0,996.0 L 784.0,1027.0 L 791.0,1059.0"/>
  </g>
</svg>
