<svg xmlns="http://www.w3.org/2000/svg" viewBox="0 0 1024 1024">
  <g style="fill:none;stroke:#000000;stroke-width:50;stroke-linecap:round;stroke-linejoin:round;" transform="scale(1, 1) translate(0, 0)">
    <path d="M 129.0,323.0 L 156.0,346.0 L 192.0,507.0"/>
    <path d="M 184.0,346.0 L 192.0,336.0 L 284.0,313.0 L 309.0,309.0 L 326.0,314.0 L 344.0,333.0 L 322.0,404.0 L 301.0,421.0"/>
    <path d="M 208.0,461.0 L 222.0,465.0 L 301.0,443.0 L 332.0,440.0 L 353.0,445.0"/>
    <path d="M 226.0,483.0 L 252.0,499.0 L 256.0,514.0 L 253.0,746.0 L 237.0,760.0"/>
    <path d="M 285.0,629.0 L 292.0,618.0 L 339.0,606.0 L 369.0,609.0"/>
    <path d="M 108.0,633.0 L 143.0,669.0 L 160.0,776.0 L 146.0,791.0"/>
    <path d="M 59.0,834.0 L 110.0,845.0 L 302.0,767.0 L 364.0,735.0"/>
    <path d="M 585.0,193.0 L 657.0,227.0 L 690.0,261.0"/>
    <path d="M 469.0,337.0 L 504.0,349.0 L 558.0,346.0 L 792.0,305.0 L 830.0,307.0"/>
    <path d="M 416.0,324.0 L 448.0,361.0 L 449.0,440.0 L 442.0,550.0 L 415.0,717.0 L 399.0,774.0 L 349.0,894.0 L 306.0,965.0 L 267.0,1015.0"/>
    <path d="M 503.0,481.0 L 534.0,485.0 L 657.0,453.0 L 692.0,452.0"/>
    <path d="M 566.0,382.0 L 595.0,411.0 L 594.0,519.0 L 584.0,544.0"/>
    <path d="M 515.0,574.0 L 552.0,573.0 L 636.0,551.0 L 682.0,554.0"/>
    <path d="M 472.0,648.0 L 501.0,676.0 L 528.0,776.0"/>
    <path d="M 514.0,650.0 L 548.0,649.0 L 615.0,628.0 L 649.0,631.0 L 662.0,647.0 L 659.0,661.0 L 648.0,693.0 L 627.0,707.0"/>
    <path d="M 542.0,740.0 L 549.0,745.0 L 626.0,728.0 L 669.0,731.0"/>
    <path d="M 480.0,828.0 L 512.0,864.0 L 524.0,888.0"/>
    <path d="M 632.0,776.0 L 644.0,793.0 L 648.0,813.0 L 609.0,894.0 L 592.0,908.0"/>
    <path d="M 422.0,961.0 L 457.0,974.0 L 474.0,974.0 L 656.0,910.0 L 713.0,882.0"/>
    <path d="M 717.0,600.0 L 741.0,601.0 L 922.0,559.0 L 983.0,567.0"/>
    <path d="M 820.0,390.0 L 843.0,405.0 L 861.0,428.0 L 856.0,546.0 L 864.0,961.0 L 846.0,1001.0 L 733.0,965.0"/>
    <path d="M 718.0,694.0 L 765.0,738.0 L 777.0,767.0"/>
  </g>
</svg>
