<svg xmlns="http://www.w3.org/2000/svg" viewBox="0 0 1024 1024">
  <g style="fill:none;stroke:#000000;stroke-width:50;stroke-linecap:round;stroke-linejoin:round;" transform="scale(1, 1) translate(0, 0)">
    <path d="M 112.0,327.0 L 142.0,360.0 L 176.0,522.0"/>
    <path d="M 161.0,332.0 L 185.0,336.0 L 276.0,307.0 L 309.0,311.0 L 329.0,331.0 L 308.0,417.0 L 288.0,432.0"/>
    <path d="M 193.0,489.0 L 207.0,478.0 L 285.0,457.0 L 336.0,458.0"/>
    <path d="M 218.0,496.0 L 242.0,516.0 L 241.0,735.0 L 236.0,754.0 L 225.0,765.0"/>
    <path d="M 271.0,601.0 L 281.0,587.0 L 309.0,579.0 L 350.0,580.0"/>
    <path d="M 88.0,616.0 L 127.0,653.0 L 141.0,780.0 L 128.0,794.0"/>
    <path d="M 43.0,836.0 L 92.0,846.0 L 348.0,736.0"/>
    <path d="M 503.0,290.0 L 524.0,295.0 L 587.0,288.0 L 746.0,245.0 L 785.0,242.0"/>
    <path d="M 476.0,410.0 L 502.0,430.0 L 536.0,527.0"/>
    <path d="M 520.0,409.0 L 536.0,416.0 L 663.0,375.0 L 797.0,347.0 L 809.0,352.0 L 827.0,374.0 L 786.0,476.0"/>
    <path d="M 557.0,313.0 L 586.0,334.0 L 605.0,459.0 L 605.0,468.0 L 596.0,477.0"/>
    <path d="M 675.0,291.0 L 700.0,305.0 L 703.0,318.0 L 698.0,440.0 L 689.0,452.0"/>
    <path d="M 548.0,515.0 L 564.0,505.0 L 771.0,455.0"/>
    <path d="M 500.0,613.0 L 556.0,607.0 L 801.0,542.0 L 837.0,545.0"/>
    <path d="M 605.0,517.0 L 625.0,534.0 L 585.0,625.0 L 523.0,709.0 L 487.0,745.0 L 463.0,757.0 L 462.0,764.0"/>
    <path d="M 712.0,618.0 L 832.0,657.0 L 857.0,673.0 L 871.0,692.0"/>
    <path d="M 613.0,727.0 L 633.0,707.0 L 645.0,708.0 L 655.0,700.0 L 692.0,691.0 L 718.0,691.0 L 735.0,705.0 L 726.0,779.0 L 709.0,806.0 L 650.0,784.0"/>
    <path d="M 575.0,705.0 L 590.0,720.0 L 596.0,744.0 L 594.0,801.0 L 602.0,852.0 L 617.0,881.0 L 638.0,895.0 L 702.0,906.0 L 748.0,900.0 L 776.0,889.0 L 802.0,866.0 L 802.0,787.0"/>
    <path d="M 371.0,410.0 L 424.0,456.0 L 435.0,485.0"/>
    <path d="M 310.0,651.0 L 343.0,650.0 L 408.0,627.0 L 431.0,643.0 L 395.0,727.0 L 403.0,759.0 L 428.0,803.0 L 423.0,843.0 L 414.0,857.0 L 406.0,859.0"/>
    <path d="M 260.0,884.0 L 306.0,896.0 L 362.0,880.0 L 421.0,882.0 L 688.0,986.0 L 797.0,1016.0 L 898.0,1010.0 L 987.0,991.0"/>
  </g>
</svg>
