<svg xmlns="http://www.w3.org/2000/svg" viewBox="0 0 1024 1024">
  <g style="fill:none;stroke:#000000;stroke-width:50;stroke-linecap:round;stroke-linejoin:round;" transform="scale(1, 1) translate(0, 0)">
    <path d="M 116.0,332.0 L 138.0,349.0 L 151.0,372.0 L 188.0,534.0"/>
    <path d="M 165.0,335.0 L 177.0,340.0 L 219.0,332.0 L 275.0,311.0 L 302.0,312.0 L 326.0,335.0 L 299.0,441.0 L 276.0,456.0"/>
    <path d="M 203.0,509.0 L 222.0,495.0 L 267.0,482.0 L 328.0,482.0"/>
    <path d="M 229.0,515.0 L 255.0,531.0 L 257.0,550.0 L 256.0,768.0 L 239.0,783.0"/>
    <path d="M 285.0,647.0 L 292.0,635.0 L 309.0,627.0 L 341.0,621.0 L 361.0,625.0"/>
    <path d="M 102.0,630.0 L 130.0,652.0 L 142.0,676.0 L 158.0,803.0 L 144.0,819.0"/>
    <path d="M 63.0,865.0 L 115.0,876.0 L 372.0,751.0"/>
    <path d="M 560.0,174.0 L 625.0,208.0 L 646.0,236.0"/>
    <path d="M 418.0,289.0 L 424.0,332.0 L 397.0,387.0 L 390.0,424.0"/>
    <path d="M 453.0,317.0 L 464.0,325.0 L 474.0,324.0 L 560.0,302.0 L 772.0,263.0 L 823.0,265.0 L 839.0,275.0 L 851.0,293.0 L 795.0,353.0"/>
    <path d="M 520.0,332.0 L 531.0,345.0 L 533.0,359.0 L 520.0,384.0 L 472.0,437.0 L 447.0,453.0"/>
    <path d="M 646.0,315.0 L 659.0,324.0 L 658.0,368.0 L 671.0,391.0 L 698.0,401.0 L 748.0,391.0 L 775.0,395.0"/>
    <path d="M 539.0,433.0 L 547.0,455.0 L 466.0,516.0"/>
    <path d="M 419.0,511.0 L 445.0,536.0 L 477.0,686.0"/>
    <path d="M 484.0,589.0 L 490.0,578.0 L 509.0,572.0 L 558.0,572.0"/>
    <path d="M 618.0,467.0 L 651.0,471.0 L 735.0,455.0 L 747.0,459.0 L 767.0,480.0 L 773.0,492.0 L 722.0,653.0"/>
    <path d="M 630.0,551.0 L 705.0,545.0 L 724.0,538.0"/>
    <path d="M 494.0,672.0 L 512.0,659.0 L 526.0,661.0 L 583.0,647.0 L 702.0,631.0"/>
    <path d="M 414.0,739.0 L 442.0,777.0 L 432.0,867.0 L 409.0,964.0 L 411.0,1007.0 L 452.0,997.0 L 517.0,949.0"/>
    <path d="M 475.0,770.0 L 513.0,785.0 L 535.0,801.0"/>
    <path d="M 472.0,860.0 L 521.0,888.0"/>
    <path d="M 563.0,710.0 L 591.0,744.0 L 592.0,817.0 L 577.0,947.0 L 586.0,994.0 L 624.0,976.0 L 674.0,936.0 L 677.0,924.0 L 688.0,923.0 L 695.0,914.0"/>
    <path d="M 620.0,742.0 L 681.0,765.0"/>
    <path d="M 609.0,832.0 L 659.0,847.0 L 681.0,862.0"/>
    <path d="M 706.0,697.0 L 735.0,732.0 L 737.0,818.0 L 759.0,923.0 L 777.0,962.0 L 818.0,1011.0 L 875.0,1044.0 L 925.0,1048.0 L 935.0,1004.0 L 933.0,915.0"/>
  </g>
</svg>
