<svg xmlns="http://www.w3.org/2000/svg" viewBox="0 0 1024 1024">
  <g style="fill:none;stroke:#000000;stroke-width:50;stroke-linecap:round;stroke-linejoin:round;" transform="scale(1, 1) translate(0, 0)">
    <path d="M 117.0,328.0 L 145.0,359.0 L 176.0,527.0"/>
    <path d="M 172.0,333.0 L 189.0,339.0 L 283.0,314.0 L 312.0,330.0 L 320.0,339.0 L 297.0,420.0 L 272.0,437.0"/>
    <path d="M 193.0,486.0 L 208.0,474.0 L 263.0,461.0 L 325.0,461.0"/>
    <path d="M 217.0,490.0 L 243.0,509.0 L 248.0,531.0 L 249.0,747.0 L 243.0,766.0 L 232.0,777.0"/>
    <path d="M 280.0,620.0 L 289.0,603.0 L 330.0,593.0 L 350.0,596.0"/>
    <path d="M 107.0,638.0 L 142.0,672.0 L 160.0,790.0 L 147.0,805.0"/>
    <path d="M 79.0,845.0 L 132.0,857.0 L 372.0,739.0"/>
    <path d="M 349.0,430.0 L 379.0,466.0 L 390.0,489.0"/>
    <path d="M 539.0,399.0 L 519.0,396.0 L 483.0,434.0 L 474.0,436.0 L 472.0,451.0 L 462.0,456.0"/>
    <path d="M 415.0,338.0 L 439.0,356.0 L 444.0,370.0 L 446.0,432.0 L 435.0,530.0 L 404.0,609.0 L 364.0,657.0 L 334.0,675.0"/>
    <path d="M 442.0,586.0 L 491.0,625.0 L 499.0,643.0"/>
    <path d="M 562.0,186.0 L 633.0,226.0 L 653.0,255.0"/>
    <path d="M 519.0,332.0 L 559.0,336.0 L 675.0,309.0 L 711.0,309.0"/>
    <path d="M 563.0,418.0 L 636.0,398.0 L 670.0,400.0"/>
    <path d="M 552.0,485.0 L 637.0,468.0 L 677.0,471.0"/>
    <path d="M 516.0,550.0 L 540.0,578.0 L 557.0,683.0"/>
    <path d="M 554.0,554.0 L 577.0,557.0 L 638.0,538.0 L 658.0,543.0 L 671.0,558.0 L 670.0,568.0 L 658.0,604.0 L 642.0,614.0"/>
    <path d="M 572.0,658.0 L 590.0,647.0 L 636.0,636.0 L 677.0,641.0"/>
    <path d="M 709.0,404.0 L 738.0,449.0 L 743.0,467.0"/>
    <path d="M 875.0,353.0 L 881.0,378.0 L 836.0,414.0 L 827.0,433.0"/>
    <path d="M 764.0,270.0 L 786.0,284.0 L 804.0,306.0 L 802.0,448.0 L 786.0,553.0 L 781.0,572.0 L 757.0,611.0 L 731.0,636.0 L 691.0,655.0"/>
    <path d="M 806.0,559.0 L 866.0,604.0 L 889.0,642.0"/>
    <path d="M 480.0,753.0 L 545.0,753.0 L 659.0,721.0 L 690.0,723.0 L 707.0,734.0 L 678.0,813.0 L 640.0,878.0 L 622.0,896.0 L 503.0,979.0 L 414.0,1005.0 L 379.0,1008.0"/>
    <path d="M 479.0,807.0 L 530.0,830.0 L 657.0,948.0 L 757.0,1017.0 L 803.0,1029.0 L 942.0,1038.0"/>
  </g>
</svg>
