<svg xmlns="http://www.w3.org/2000/svg" viewBox="0 0 1024 1024">
  <g style="fill:none;stroke:#000000;stroke-width:50;stroke-linecap:round;stroke-linejoin:round;" transform="scale(1, 1) translate(0, 0)">
    <path d="M 136.0,321.0 L 168.0,350.0 L 212.0,498.0"/>
    <path d="M 193.0,341.0 L 216.0,324.0 L 242.0,320.0 L 294.0,299.0 L 324.0,299.0 L 345.0,319.0 L 322.0,407.0 L 302.0,422.0"/>
    <path d="M 227.0,476.0 L 272.0,452.0 L 300.0,445.0 L 346.0,445.0"/>
    <path d="M 248.0,480.0 L 272.0,497.0 L 275.0,506.0 L 278.0,753.0 L 272.0,774.0 L 262.0,784.0"/>
    <path d="M 306.0,603.0 L 311.0,591.0 L 327.0,581.0 L 366.0,577.0"/>
    <path d="M 123.0,601.0 L 164.0,640.0 L 185.0,797.0 L 172.0,810.0"/>
    <path d="M 78.0,857.0 L 89.0,864.0 L 137.0,866.0 L 380.0,755.0"/>
    <path d="M 513.0,223.0 L 550.0,247.0 L 580.0,390.0"/>
    <path d="M 404.0,322.0 L 438.0,331.0 L 466.0,330.0 L 611.0,294.0"/>
    <path d="M 739.0,167.0 L 761.0,201.0 L 725.0,306.0 L 691.0,372.0"/>
    <path d="M 750.0,299.0 L 773.0,287.0 L 832.0,277.0 L 873.0,277.0 L 913.0,291.0"/>
    <path d="M 399.0,450.0 L 415.0,464.0 L 430.0,490.0 L 436.0,629.0 L 427.0,855.0 L 408.0,958.0 L 408.0,1012.0"/>
    <path d="M 452.0,464.0 L 463.0,471.0 L 558.0,450.0 L 578.0,459.0 L 590.0,475.0 L 576.0,531.0 L 568.0,602.0 L 561.0,618.0 L 550.0,618.0"/>
    <path d="M 460.0,557.0 L 465.0,546.0 L 479.0,542.0 L 527.0,539.0"/>
    <path d="M 456.0,629.0 L 463.0,618.0 L 540.0,602.0"/>
    <path d="M 667.0,413.0 L 690.0,445.0 L 706.0,611.0"/>
    <path d="M 710.0,421.0 L 720.0,428.0 L 825.0,402.0 L 841.0,408.0 L 864.0,433.0 L 861.0,515.0 L 872.0,951.0 L 868.0,1024.0 L 852.0,1053.0 L 750.0,1014.0"/>
    <path d="M 724.0,519.0 L 729.0,509.0 L 765.0,500.0 L 805.0,503.0"/>
    <path d="M 726.0,600.0 L 732.0,589.0 L 826.0,577.0 L 837.0,570.0"/>
    <path d="M 579.0,687.0 L 558.0,695.0 L 522.0,764.0 L 486.0,810.0 L 450.0,840.0"/>
    <path d="M 532.0,789.0 L 544.0,832.0 L 540.0,1032.0"/>
    <path d="M 623.0,621.0 L 670.0,647.0 L 685.0,671.0"/>
    <path d="M 599.0,737.0 L 642.0,739.0 L 738.0,713.0 L 765.0,713.0"/>
    <path d="M 608.0,828.0 L 723.0,804.0 L 761.0,807.0"/>
    <path d="M 606.0,897.0 L 722.0,872.0 L 761.0,875.0"/>
    <path d="M 657.0,753.0 L 672.0,764.0 L 680.0,781.0 L 677.0,929.0 L 673.0,944.0 L 663.0,952.0"/>
    <path d="M 567.0,999.0 L 576.0,991.0 L 618.0,980.0 L 699.0,967.0 L 754.0,961.0 L 800.0,970.0"/>
  </g>
</svg>
