<svg xmlns="http://www.w3.org/2000/svg" viewBox="0 0 1024 1024">
  <g style="fill:none;stroke:#000000;stroke-width:50;stroke-linecap:round;stroke-linejoin:round;" transform="scale(1, 1) translate(0, 0)">
    <path d="M 355.0,321.0 L 421.0,328.0 L 509.0,315.0 L 664.0,279.0 L 724.0,278.0"/>
    <path d="M 266.0,440.0 L 301.0,465.0 L 320.0,499.0 L 354.0,653.0 L 374.0,700.0"/>
    <path d="M 324.0,447.0 L 360.0,459.0 L 630.0,412.0 L 701.0,407.0 L 720.0,412.0 L 743.0,433.0 L 756.0,455.0 L 675.0,669.0"/>
    <path d="M 414.0,556.0 L 593.0,530.0 L 626.0,537.0"/>
    <path d="M 395.0,688.0 L 409.0,673.0 L 564.0,649.0 L 638.0,644.0 L 646.0,654.0"/>
    <path d="M 120.0,813.0 L 181.0,825.0 L 386.0,791.0 L 813.0,750.0 L 860.0,755.0 L 918.0,775.0"/>
    <path d="M 461.0,166.0 L 488.0,173.0 L 526.0,209.0 L 519.0,391.0 L 523.0,1085.0"/>
  </g>
</svg>
