<svg xmlns="http://www.w3.org/2000/svg" viewBox="0 0 1024 1024">
  <g style="fill:none;stroke:#000000;stroke-width:50;stroke-linecap:round;stroke-linejoin:round;" transform="scale(1, 1) translate(0, 0)">
    <path d="M 179.0,371.0 L 229.0,375.0 L 403.0,327.0 L 436.0,329.0"/>
    <path d="M 123.0,493.0 L 146.0,512.0 L 157.0,533.0 L 192.0,706.0"/>
    <path d="M 167.0,493.0 L 186.0,500.0 L 394.0,440.0 L 439.0,444.0 L 462.0,469.0 L 432.0,600.0 L 411.0,659.0 L 415.0,678.0"/>
    <path d="M 223.0,584.0 L 336.0,552.0 L 377.0,553.0"/>
    <path d="M 206.0,694.0 L 218.0,683.0 L 382.0,642.0"/>
    <path d="M 56.0,827.0 L 93.0,834.0 L 134.0,830.0 L 389.0,765.0 L 441.0,756.0 L 480.0,760.0"/>
    <path d="M 257.0,185.0 L 286.0,208.0 L 309.0,242.0 L 301.0,814.0 L 285.0,975.0 L 287.0,1053.0"/>
    <path d="M 549.0,479.0 L 584.0,488.0 L 611.0,485.0 L 828.0,431.0 L 853.0,432.0 L 878.0,453.0 L 844.0,725.0 L 824.0,806.0 L 802.0,865.0 L 782.0,897.0 L 753.0,918.0 L 668.0,865.0"/>
    <path d="M 659.0,497.0 L 682.0,513.0 L 690.0,531.0 L 630.0,724.0 L 560.0,847.0 L 496.0,924.0 L 446.0,965.0"/>
    <path d="M 525.0,607.0 L 598.0,645.0 L 616.0,681.0"/>
  </g>
</svg>
