<svg xmlns="http://www.w3.org/2000/svg" viewBox="0 0 1024 1024">
  <g style="fill:none;stroke:#000000;stroke-width:50;stroke-linecap:round;stroke-linejoin:round;" transform="scale(1, 1) translate(0, 0)">
    <path d="M 204.0,379.0 L 282.0,379.0 L 427.0,336.0 L 469.0,338.0"/>
    <path d="M 151.0,510.0 L 178.0,531.0 L 188.0,551.0 L 232.0,721.0"/>
    <path d="M 205.0,511.0 L 222.0,519.0 L 422.0,461.0 L 465.0,465.0 L 487.0,489.0 L 447.0,671.0 L 451.0,686.0"/>
    <path d="M 275.0,594.0 L 366.0,568.0 L 413.0,568.0"/>
    <path d="M 244.0,706.0 L 268.0,691.0 L 402.0,661.0 L 419.0,650.0"/>
    <path d="M 67.0,846.0 L 118.0,854.0 L 433.0,775.0 L 492.0,776.0"/>
    <path d="M 290.0,188.0 L 319.0,211.0 L 341.0,241.0 L 333.0,827.0 L 318.0,977.0 L 320.0,1062.0"/>
    <path d="M 635.0,201.0 L 671.0,229.0 L 676.0,247.0 L 627.0,401.0 L 573.0,513.0 L 544.0,554.0"/>
    <path d="M 623.0,474.0 L 681.0,462.0 L 794.0,426.0 L 843.0,426.0 L 868.0,452.0 L 853.0,478.0 L 777.0,564.0"/>
    <path d="M 620.0,584.0 L 638.0,597.0 L 653.0,625.0 L 629.0,740.0 L 597.0,817.0 L 539.0,887.0 L 440.0,944.0"/>
    <path d="M 663.0,731.0 L 664.0,744.0 L 736.0,828.0 L 839.0,929.0 L 897.0,946.0 L 981.0,959.0"/>
  </g>
</svg>
