<svg xmlns="http://www.w3.org/2000/svg" viewBox="0 0 1024 1024">
  <g style="fill:none;stroke:#000000;stroke-width:50;stroke-linecap:round;stroke-linejoin:round;" transform="scale(1, 1) translate(0, 0)">
    <path d="M 203.0,407.0 L 271.0,405.0 L 357.0,374.0 L 410.0,369.0"/>
    <path d="M 130.0,522.0 L 157.0,544.0 L 165.0,558.0 L 204.0,726.0"/>
    <path d="M 183.0,522.0 L 204.0,529.0 L 390.0,483.0 L 421.0,484.0 L 436.0,492.0 L 454.0,515.0 L 431.0,603.0 L 403.0,676.0 L 380.0,678.0"/>
    <path d="M 232.0,612.0 L 337.0,586.0 L 368.0,589.0"/>
    <path d="M 219.0,701.0 L 237.0,687.0 L 334.0,661.0 L 367.0,658.0"/>
    <path d="M 63.0,838.0 L 123.0,845.0 L 360.0,783.0 L 432.0,773.0 L 456.0,776.0"/>
    <path d="M 254.0,220.0 L 297.0,260.0 L 306.0,274.0 L 308.0,300.0 L 303.0,415.0 L 304.0,828.0 L 289.0,998.0 L 292.0,1081.0"/>
    <path d="M 517.0,471.0 L 565.0,476.0 L 655.0,452.0 L 873.0,412.0 L 930.0,411.0 L 978.0,421.0"/>
    <path d="M 504.0,599.0 L 524.0,617.0 L 536.0,640.0 L 564.0,795.0"/>
    <path d="M 553.0,602.0 L 568.0,609.0 L 582.0,607.0 L 663.0,585.0 L 690.0,599.0 L 700.0,612.0 L 675.0,696.0 L 653.0,712.0"/>
    <path d="M 585.0,764.0 L 597.0,749.0 L 639.0,738.0 L 683.0,735.0 L 704.0,740.0"/>
    <path d="M 769.0,456.0 L 810.0,484.0 L 813.0,497.0 L 815.0,938.0 L 810.0,982.0 L 783.0,1026.0 L 750.0,1011.0 L 684.0,967.0"/>
  </g>
</svg>
