<svg xmlns="http://www.w3.org/2000/svg" viewBox="0 0 1024 1024">
  <g style="fill:none;stroke:#000000;stroke-width:50;stroke-linecap:round;stroke-linejoin:round;" transform="scale(1, 1) translate(0, 0)">
    <path d="M 201.0,387.0 L 223.0,393.0 L 261.0,391.0 L 372.0,364.0 L 436.0,360.0"/>
    <path d="M 122.0,506.0 L 150.0,528.0 L 159.0,545.0 L 203.0,717.0"/>
    <path d="M 176.0,507.0 L 200.0,514.0 L 388.0,470.0 L 442.0,475.0 L 466.0,503.0 L 418.0,659.0 L 419.0,684.0"/>
    <path d="M 243.0,590.0 L 346.0,564.0 L 373.0,568.0"/>
    <path d="M 221.0,695.0 L 240.0,682.0 L 382.0,648.0"/>
    <path d="M 48.0,825.0 L 99.0,833.0 L 415.0,757.0 L 456.0,761.0"/>
    <path d="M 269.0,192.0 L 312.0,233.0 L 322.0,257.0 L 309.0,811.0 L 294.0,945.0 L 295.0,1041.0"/>
    <path d="M 538.0,370.0 L 559.0,376.0 L 612.0,375.0 L 783.0,336.0 L 829.0,337.0"/>
    <path d="M 630.0,400.0 L 659.0,421.0 L 656.0,430.0 L 617.0,501.0 L 580.0,549.0 L 565.0,588.0 L 605.0,588.0 L 768.0,545.0 L 782.0,549.0"/>
    <path d="M 751.0,475.0 L 822.0,543.0 L 837.0,588.0"/>
    <path d="M 549.0,746.0 L 604.0,751.0 L 767.0,712.0 L 809.0,713.0"/>
    <path d="M 643.0,601.0 L 674.0,627.0 L 678.0,690.0 L 673.0,833.0 L 654.0,853.0"/>
    <path d="M 422.0,896.0 L 476.0,904.0 L 616.0,884.0 L 855.0,862.0 L 931.0,880.0"/>
  </g>
</svg>
