<svg xmlns="http://www.w3.org/2000/svg" viewBox="0 0 1024 1024">
  <g style="fill:none;stroke:#000000;stroke-width:50;stroke-linecap:round;stroke-linejoin:round;" transform="scale(1, 1) translate(0, 0)">
    <path d="M 306.0,339.0 L 329.0,347.0 L 380.0,348.0 L 615.0,312.0 L 651.0,301.0 L 703.0,304.0"/>
    <path d="M 370.0,238.0 L 408.0,279.0 L 418.0,425.0 L 406.0,443.0"/>
    <path d="M 566.0,190.0 L 601.0,231.0 L 568.0,406.0 L 551.0,423.0"/>
    <path d="M 174.0,492.0 L 222.0,499.0 L 496.0,453.0 L 742.0,424.0 L 826.0,440.0"/>
    <path d="M 332.0,508.0 L 349.0,529.0 L 293.0,617.0 L 252.0,657.0 L 196.0,696.0 L 113.0,731.0"/>
    <path d="M 599.0,462.0 L 624.0,476.0 L 760.0,605.0 L 827.0,652.0 L 970.0,668.0"/>
    <path d="M 369.0,589.0 L 391.0,595.0 L 441.0,593.0 L 602.0,557.0 L 638.0,560.0"/>
    <path d="M 311.0,673.0 L 340.0,697.0 L 376.0,870.0"/>
    <path d="M 371.0,683.0 L 381.0,689.0 L 610.0,648.0 L 661.0,656.0 L 681.0,680.0 L 638.0,820.0 L 639.0,842.0"/>
    <path d="M 420.0,757.0 L 545.0,734.0 L 580.0,738.0"/>
    <path d="M 396.0,846.0 L 403.0,838.0 L 608.0,806.0"/>
    <path d="M 166.0,947.0 L 225.0,958.0 L 421.0,930.0 L 770.0,906.0 L 846.0,926.0"/>
    <path d="M 464.0,510.0 L 494.0,532.0 L 504.0,554.0 L 495.0,1078.0"/>
  </g>
</svg>
