<svg xmlns="http://www.w3.org/2000/svg" viewBox="0 0 1024 1024">
  <g style="fill:none;stroke:#000000;stroke-width:50;stroke-linecap:round;stroke-linejoin:round;" transform="scale(1, 1) translate(0, 0)">
    <path d="M 199.0,383.0 L 259.0,383.0 L 389.0,341.0 L 426.0,343.0"/>
    <path d="M 127.0,506.0 L 151.0,523.0 L 164.0,547.0 L 208.0,714.0"/>
    <path d="M 176.0,505.0 L 201.0,510.0 L 361.0,466.0 L 401.0,463.0 L 425.0,468.0 L 448.0,492.0 L 413.0,651.0 L 403.0,666.0 L 385.0,670.0"/>
    <path d="M 227.0,592.0 L 338.0,562.0 L 368.0,564.0"/>
    <path d="M 224.0,693.0 L 234.0,682.0 L 374.0,649.0"/>
    <path d="M 50.0,823.0 L 104.0,829.0 L 364.0,757.0 L 439.0,751.0"/>
    <path d="M 262.0,180.0 L 305.0,220.0 L 315.0,244.0 L 308.0,801.0 L 293.0,962.0 L 296.0,1046.0"/>
    <path d="M 559.0,408.0 L 618.0,410.0 L 689.0,394.0 L 804.0,357.0 L 850.0,355.0"/>
    <path d="M 469.0,594.0 L 485.0,609.0 L 495.0,632.0 L 500.0,703.0 L 494.0,795.0 L 483.0,850.0 L 483.0,906.0"/>
    <path d="M 508.0,596.0 L 527.0,605.0 L 659.0,573.0 L 864.0,540.0 L 888.0,542.0 L 913.0,561.0 L 917.0,790.0 L 906.0,899.0 L 898.0,926.0 L 880.0,954.0 L 872.0,953.0 L 801.0,920.0 L 785.0,906.0"/>
    <path d="M 652.0,434.0 L 680.0,446.0 L 687.0,456.0 L 675.0,885.0"/>
    <path d="M 576.0,733.0 L 582.0,754.0 L 553.0,795.0 L 531.0,815.0"/>
    <path d="M 543.0,690.0 L 554.0,691.0 L 558.0,701.0 L 610.0,732.0 L 632.0,763.0"/>
    <path d="M 764.0,693.0 L 770.0,714.0 L 719.0,771.0"/>
    <path d="M 740.0,646.0 L 826.0,712.0 L 848.0,753.0"/>
  </g>
</svg>
