<svg xmlns="http://www.w3.org/2000/svg" viewBox="0 0 1024 1024">
  <g style="fill:none;stroke:#000000;stroke-width:50;stroke-linecap:round;stroke-linejoin:round;" transform="scale(1, 1) translate(0, 0)">
    <path d="M 175.0,415.0 L 245.0,415.0 L 377.0,377.0 L 418.0,377.0"/>
    <path d="M 116.0,539.0 L 139.0,555.0 L 152.0,578.0 L 196.0,741.0"/>
    <path d="M 165.0,531.0 L 180.0,543.0 L 374.0,492.0 L 421.0,498.0 L 443.0,523.0 L 411.0,652.0 L 391.0,705.0 L 395.0,725.0"/>
    <path d="M 220.0,625.0 L 320.0,601.0 L 361.0,605.0"/>
    <path d="M 212.0,731.0 L 240.0,715.0 L 356.0,690.0"/>
    <path d="M 53.0,857.0 L 80.0,863.0 L 110.0,860.0 L 391.0,783.0 L 443.0,783.0"/>
    <path d="M 249.0,221.0 L 289.0,258.0 L 299.0,280.0 L 289.0,837.0 L 275.0,971.0 L 277.0,1062.0"/>
    <path d="M 474.0,411.0 L 511.0,410.0 L 588.0,374.0 L 606.0,373.0 L 621.0,384.0 L 596.0,486.0 L 567.0,547.0 L 529.0,593.0 L 499.0,619.0 L 471.0,633.0"/>
    <path d="M 509.0,496.0 L 588.0,541.0 L 627.0,580.0"/>
    <path d="M 693.0,360.0 L 725.0,362.0 L 804.0,327.0 L 821.0,328.0 L 837.0,342.0 L 805.0,453.0 L 773.0,517.0 L 721.0,574.0 L 660.0,613.0"/>
    <path d="M 696.0,456.0 L 836.0,539.0 L 868.0,571.0 L 880.0,594.0"/>
    <path d="M 458.0,723.0 L 505.0,721.0 L 537.0,704.0 L 576.0,693.0 L 590.0,694.0 L 603.0,705.0 L 577.0,791.0 L 538.0,862.0 L 487.0,911.0 L 435.0,937.0"/>
    <path d="M 483.0,783.0 L 575.0,850.0 L 618.0,897.0"/>
    <path d="M 692.0,689.0 L 723.0,688.0 L 783.0,664.0 L 796.0,666.0 L 813.0,681.0 L 811.0,723.0 L 791.0,799.0 L 770.0,846.0 L 735.0,893.0 L 700.0,919.0 L 601.0,955.0"/>
    <path d="M 655.0,741.0 L 688.0,761.0 L 778.0,875.0 L 866.0,955.0 L 993.0,980.0"/>
  </g>
</svg>
