<svg xmlns="http://www.w3.org/2000/svg" viewBox="0 0 1024 1024">
  <g style="fill:none;stroke:#000000;stroke-width:50;stroke-linecap:round;stroke-linejoin:round;" transform="scale(1, 1) translate(0, 0)">
    <path d="M 243.0,346.0 L 278.0,349.0 L 403.0,313.0 L 441.0,311.0"/>
    <path d="M 111.0,478.0 L 156.0,483.0 L 403.0,408.0 L 444.0,400.0 L 471.0,402.0"/>
    <path d="M 324.0,230.0 L 357.0,256.0 L 354.0,354.0 L 339.0,440.0 L 319.0,489.0 L 292.0,533.0 L 234.0,595.0 L 195.0,621.0"/>
    <path d="M 359.0,497.0 L 413.0,531.0 L 421.0,548.0"/>
    <path d="M 539.0,298.0 L 592.0,298.0 L 684.0,274.0 L 740.0,252.0 L 776.0,251.0"/>
    <path d="M 507.0,394.0 L 536.0,398.0 L 607.0,387.0 L 753.0,350.0 L 813.0,351.0"/>
    <path d="M 615.0,171.0 L 637.0,185.0 L 653.0,212.0 L 649.0,299.0 L 634.0,389.0 L 613.0,439.0 L 581.0,482.0 L 537.0,522.0 L 522.0,528.0"/>
    <path d="M 652.0,420.0 L 661.0,440.0 L 699.0,472.0 L 805.0,544.0 L 944.0,552.0"/>
    <path d="M 344.0,615.0 L 414.0,615.0 L 605.0,565.0 L 649.0,562.0"/>
    <path d="M 288.0,700.0 L 310.0,714.0 L 324.0,732.0 L 367.0,875.0"/>
    <path d="M 337.0,697.0 L 362.0,703.0 L 595.0,652.0 L 642.0,644.0 L 690.0,645.0 L 706.0,657.0 L 722.0,690.0 L 666.0,809.0 L 662.0,815.0 L 649.0,816.0"/>
    <path d="M 403.0,765.0 L 444.0,761.0 L 560.0,730.0 L 590.0,726.0 L 609.0,731.0"/>
    <path d="M 383.0,859.0 L 399.0,847.0 L 561.0,814.0 L 621.0,806.0 L 633.0,815.0"/>
    <path d="M 120.0,955.0 L 172.0,964.0 L 367.0,931.0 L 825.0,881.0 L 869.0,886.0 L 915.0,900.0"/>
    <path d="M 472.0,530.0 L 504.0,558.0 L 509.0,579.0 L 495.0,1095.0"/>
  </g>
</svg>
