<svg xmlns="http://www.w3.org/2000/svg" viewBox="0 0 1024 1024">
  <g style="fill:none;stroke:#000000;stroke-width:50;stroke-linecap:round;stroke-linejoin:round;" transform="scale(1, 1) translate(0, 0)">
    <path d="M 199.0,387.0 L 221.0,391.0 L 259.0,386.0 L 395.0,338.0 L 449.0,335.0"/>
    <path d="M 140.0,487.0 L 165.0,505.0 L 175.0,522.0 L 224.0,701.0"/>
    <path d="M 197.0,484.0 L 208.0,494.0 L 405.0,450.0 L 434.0,452.0 L 449.0,460.0 L 468.0,483.0 L 440.0,609.0 L 422.0,662.0 L 426.0,676.0"/>
    <path d="M 244.0,584.0 L 356.0,557.0 L 389.0,562.0"/>
    <path d="M 242.0,678.0 L 258.0,665.0 L 357.0,643.0 L 380.0,649.0 L 391.0,662.0"/>
    <path d="M 50.0,814.0 L 77.0,822.0 L 105.0,822.0 L 378.0,754.0 L 413.0,748.0 L 452.0,752.0"/>
    <path d="M 265.0,180.0 L 308.0,221.0 L 319.0,245.0 L 315.0,798.0 L 301.0,954.0 L 303.0,1049.0"/>
    <path d="M 643.0,202.0 L 718.0,247.0 L 738.0,285.0"/>
    <path d="M 566.0,350.0 L 561.0,407.0 L 538.0,485.0"/>
    <path d="M 587.0,382.0 L 597.0,389.0 L 627.0,386.0 L 689.0,366.0 L 849.0,333.0 L 898.0,337.0 L 921.0,364.0 L 859.0,440.0 L 851.0,441.0"/>
    <path d="M 587.0,530.0 L 618.0,534.0 L 663.0,529.0 L 788.0,493.0 L 833.0,490.0"/>
    <path d="M 599.0,626.0 L 676.0,626.0 L 785.0,596.0 L 829.0,594.0"/>
    <path d="M 488.0,740.0 L 533.0,746.0 L 669.0,718.0 L 889.0,685.0 L 927.0,686.0 L 974.0,698.0"/>
    <path d="M 678.0,392.0 L 702.0,407.0 L 713.0,425.0 L 710.0,668.0 L 694.0,692.0"/>
    <path d="M 534.0,827.0 L 572.0,870.0 L 611.0,1013.0"/>
    <path d="M 551.0,820.0 L 609.0,835.0 L 783.0,799.0 L 810.0,802.0 L 844.0,837.0 L 813.0,911.0 L 784.0,929.0"/>
    <path d="M 627.0,965.0 L 637.0,975.0 L 648.0,976.0 L 771.0,956.0 L 820.0,957.0 L 841.0,964.0"/>
  </g>
</svg>
