<svg xmlns="http://www.w3.org/2000/svg" viewBox="0 0 1024 1024">
  <g style="fill:none;stroke:#000000;stroke-width:50;stroke-linecap:round;stroke-linejoin:round;" transform="scale(1, 1) translate(0, 0)">
    <path d="M 207.0,373.0 L 279.0,370.0 L 362.0,341.0 L 416.0,336.0"/>
    <path d="M 140.0,468.0 L 168.0,490.0 L 175.0,508.0 L 216.0,666.0"/>
    <path d="M 204.0,488.0 L 208.0,479.0 L 224.0,474.0 L 340.0,451.0 L 408.0,442.0 L 430.0,448.0 L 450.0,471.0 L 425.0,589.0 L 410.0,627.0 L 414.0,646.0"/>
    <path d="M 247.0,559.0 L 336.0,537.0 L 369.0,540.0"/>
    <path d="M 234.0,649.0 L 251.0,637.0 L 379.0,616.0"/>
    <path d="M 76.0,760.0 L 136.0,768.0 L 376.0,720.0 L 434.0,723.0"/>
    <path d="M 265.0,185.0 L 305.0,222.0 L 315.0,244.0 L 307.0,788.0 L 291.0,944.0 L 293.0,1034.0"/>
    <path d="M 528.0,306.0 L 572.0,310.0 L 610.0,305.0 L 764.0,264.0 L 809.0,262.0"/>
    <path d="M 514.0,399.0 L 535.0,418.0 L 546.0,443.0 L 573.0,587.0"/>
    <path d="M 558.0,403.0 L 574.0,411.0 L 759.0,372.0 L 803.0,375.0 L 827.0,407.0 L 778.0,553.0"/>
    <path d="M 604.0,481.0 L 710.0,456.0 L 737.0,460.0"/>
    <path d="M 591.0,568.0 L 606.0,556.0 L 721.0,535.0 L 748.0,536.0 L 754.0,544.0"/>
    <path d="M 635.0,173.0 L 683.0,216.0 L 674.0,593.0 L 672.0,615.0 L 657.0,633.0"/>
    <path d="M 516.0,670.0 L 556.0,684.0 L 730.0,636.0 L 779.0,629.0"/>
    <path d="M 773.0,594.0 L 815.0,636.0 L 827.0,665.0"/>
    <path d="M 410.0,796.0 L 463.0,803.0 L 659.0,771.0 L 883.0,748.0 L 925.0,748.0 L 981.0,764.0"/>
    <path d="M 713.0,696.0 L 744.0,733.0 L 745.0,743.0 L 745.0,970.0 L 736.0,1031.0 L 719.0,1055.0 L 685.0,1046.0 L 616.0,1014.0"/>
    <path d="M 556.0,854.0 L 612.0,887.0 L 633.0,922.0"/>
  </g>
</svg>
