<svg xmlns="http://www.w3.org/2000/svg" viewBox="0 0 1024 1024">
  <g style="fill:none;stroke:#000000;stroke-width:50;stroke-linecap:round;stroke-linejoin:round;" transform="scale(1, 1) translate(0, 0)">
    <path d="M 149.0,401.0 L 170.0,406.0 L 243.0,401.0 L 434.0,353.0 L 488.0,350.0"/>
    <path d="M 310.0,201.0 L 324.0,218.0 L 340.0,256.0 L 278.0,426.0 L 200.0,602.0 L 189.0,643.0 L 237.0,644.0 L 434.0,595.0 L 463.0,601.0"/>
    <path d="M 335.0,489.0 L 365.0,526.0 L 354.0,815.0 L 343.0,946.0 L 356.0,1029.0"/>
    <path d="M 93.0,825.0 L 153.0,840.0 L 228.0,804.0 L 403.0,735.0 L 468.0,702.0"/>
    <path d="M 550.0,271.0 L 577.0,285.0 L 602.0,319.0 L 587.0,506.0 L 582.0,769.0 L 590.0,861.0 L 600.0,898.0 L 612.0,917.0 L 647.0,943.0 L 711.0,959.0 L 792.0,958.0 L 872.0,942.0 L 912.0,913.0 L 930.0,733.0"/>
  </g>
</svg>
