<svg xmlns="http://www.w3.org/2000/svg" viewBox="0 0 1024 1024">
  <g style="fill:none;stroke:#000000;stroke-width:50;stroke-linecap:round;stroke-linejoin:round;" transform="scale(1, 1) translate(0, 0)">
    <path d="M 166.0,393.0 L 188.0,399.0 L 237.0,398.0 L 322.0,382.0 L 436.0,350.0 L 473.0,347.0 L 499.0,352.0"/>
    <path d="M 314.0,201.0 L 328.0,219.0 L 344.0,258.0 L 292.0,412.0 L 210.0,596.0 L 199.0,636.0 L 238.0,641.0 L 426.0,599.0 L 446.0,598.0 L 467.0,606.0"/>
    <path d="M 343.0,492.0 L 372.0,531.0 L 362.0,784.0 L 348.0,950.0 L 359.0,1039.0"/>
    <path d="M 95.0,808.0 L 149.0,827.0 L 449.0,722.0"/>
    <path d="M 522.0,478.0 L 573.0,488.0 L 823.0,432.0 L 851.0,445.0 L 861.0,458.0 L 823.0,751.0 L 802.0,828.0 L 773.0,894.0 L 752.0,918.0 L 729.0,931.0 L 635.0,877.0"/>
    <path d="M 633.0,498.0 L 665.0,522.0 L 668.0,540.0 L 651.0,629.0 L 611.0,736.0 L 569.0,807.0 L 528.0,858.0 L 481.0,908.0 L 422.0,956.0"/>
    <path d="M 546.0,587.0 L 538.0,636.0 L 503.0,725.0"/>
  </g>
</svg>
