<svg xmlns="http://www.w3.org/2000/svg" viewBox="0 0 1024 1024">
  <g style="fill:none;stroke:#000000;stroke-width:50;stroke-linecap:round;stroke-linejoin:round;" transform="scale(1, 1) translate(0, 0)">
    <path d="M 138.0,373.0 L 209.0,378.0 L 292.0,364.0 L 407.0,332.0 L 446.0,331.0 L 460.0,337.0"/>
    <path d="M 283.0,185.0 L 303.0,213.0 L 313.0,242.0 L 251.0,421.0 L 180.0,585.0 L 175.0,612.0 L 221.0,613.0 L 397.0,571.0 L 435.0,577.0"/>
    <path d="M 311.0,465.0 L 341.0,502.0 L 322.0,928.0 L 332.0,1001.0"/>
    <path d="M 85.0,796.0 L 140.0,812.0 L 432.0,695.0"/>
    <path d="M 470.0,416.0 L 525.0,420.0 L 680.0,387.0 L 863.0,362.0 L 944.0,377.0"/>
    <path d="M 480.0,551.0 L 500.0,569.0 L 512.0,592.0 L 540.0,747.0"/>
    <path d="M 529.0,554.0 L 544.0,561.0 L 558.0,559.0 L 639.0,537.0 L 666.0,551.0 L 676.0,564.0 L 651.0,648.0 L 629.0,664.0"/>
    <path d="M 561.0,716.0 L 573.0,701.0 L 615.0,690.0 L 659.0,687.0 L 680.0,692.0"/>
    <path d="M 749.0,410.0 L 778.0,426.0 L 792.0,445.0 L 793.0,874.0 L 788.0,945.0 L 780.0,969.0 L 766.0,986.0 L 726.0,974.0 L 648.0,930.0"/>
  </g>
</svg>
