<svg xmlns="http://www.w3.org/2000/svg" viewBox="0 0 1024 1024">
  <g style="fill:none;stroke:#000000;stroke-width:50;stroke-linecap:round;stroke-linejoin:round;" transform="scale(1, 1) translate(0, 0)">
    <path d="M 161.0,406.0 L 184.0,412.0 L 225.0,410.0 L 391.0,370.0 L 441.0,369.0"/>
    <path d="M 311.0,208.0 L 340.0,265.0 L 278.0,430.0 L 192.0,624.0 L 189.0,644.0 L 220.0,649.0 L 407.0,606.0 L 431.0,613.0"/>
    <path d="M 319.0,509.0 L 349.0,548.0 L 331.0,939.0 L 343.0,1031.0"/>
    <path d="M 98.0,816.0 L 153.0,833.0 L 461.0,719.0"/>
    <path d="M 514.0,422.0 L 542.0,443.0 L 544.0,465.0 L 521.0,541.0 L 498.0,585.0 L 476.0,612.0"/>
    <path d="M 555.0,536.0 L 565.0,528.0 L 615.0,528.0 L 652.0,520.0 L 777.0,485.0 L 814.0,485.0"/>
    <path d="M 464.0,684.0 L 509.0,690.0 L 809.0,639.0 L 849.0,638.0 L 902.0,650.0"/>
    <path d="M 627.0,244.0 L 654.0,262.0 L 677.0,288.0 L 657.0,625.0 L 634.0,767.0 L 606.0,834.0 L 553.0,903.0 L 493.0,944.0 L 396.0,982.0"/>
    <path d="M 678.0,690.0 L 686.0,729.0 L 732.0,806.0 L 776.0,871.0 L 838.0,942.0 L 958.0,980.0"/>
  </g>
</svg>
