<svg xmlns="http://www.w3.org/2000/svg" viewBox="0 0 1024 1024">
  <g style="fill:none;stroke:#000000;stroke-width:50;stroke-linecap:round;stroke-linejoin:round;" transform="scale(1, 1) translate(0, 0)">
    <path d="M 142.0,433.0 L 164.0,439.0 L 215.0,438.0 L 301.0,422.0 L 423.0,388.0 L 449.0,386.0 L 476.0,393.0"/>
    <path d="M 302.0,209.0 L 333.0,264.0 L 266.0,461.0 L 199.0,618.0 L 193.0,651.0 L 233.0,654.0 L 416.0,610.0 L 443.0,617.0"/>
    <path d="M 323.0,501.0 L 333.0,507.0 L 352.0,540.0 L 332.0,922.0 L 343.0,1007.0"/>
    <path d="M 94.0,816.0 L 149.0,833.0 L 241.0,793.0 L 342.0,761.0 L 456.0,715.0"/>
    <path d="M 631.0,215.0 L 673.0,249.0 L 670.0,464.0 L 654.0,489.0"/>
    <path d="M 698.0,383.0 L 715.0,368.0 L 818.0,343.0 L 837.0,344.0"/>
    <path d="M 569.0,514.0 L 593.0,523.0 L 688.0,505.0 L 769.0,482.0 L 792.0,484.0 L 825.0,514.0 L 802.0,584.0 L 773.0,608.0"/>
    <path d="M 569.0,675.0 L 587.0,667.0 L 763.0,636.0 L 826.0,633.0 L 849.0,642.0"/>
    <path d="M 507.0,504.0 L 525.0,517.0 L 543.0,547.0 L 534.0,690.0 L 519.0,784.0 L 500.0,856.0 L 460.0,952.0 L 419.0,1018.0 L 388.0,1054.0"/>
  </g>
</svg>
