<svg xmlns="http://www.w3.org/2000/svg" viewBox="0 0 1024 1024">
  <g style="fill:none;stroke:#000000;stroke-width:50;stroke-linecap:round;stroke-linejoin:round;" transform="scale(1, 1) translate(0, 0)">
    <path d="M 156.0,414.0 L 215.0,417.0 L 409.0,366.0 L 450.0,365.0"/>
    <path d="M 303.0,220.0 L 320.0,244.0 L 332.0,276.0 L 275.0,434.0 L 200.0,601.0 L 188.0,645.0 L 231.0,647.0 L 390.0,611.0 L 426.0,616.0"/>
    <path d="M 311.0,497.0 L 322.0,505.0 L 340.0,538.0 L 333.0,807.0 L 323.0,943.0 L 335.0,1035.0"/>
    <path d="M 92.0,810.0 L 145.0,822.0 L 280.0,767.0 L 364.0,740.0 L 374.0,730.0 L 427.0,709.0"/>
    <path d="M 791.0,292.0 L 725.0,283.0 L 645.0,335.0 L 598.0,352.0 L 588.0,361.0 L 576.0,360.0 L 566.0,369.0 L 552.0,368.0 L 548.0,375.0 L 533.0,379.0 L 526.0,376.0 L 516.0,386.0"/>
    <path d="M 476.0,475.0 L 537.0,520.0 L 562.0,562.0"/>
    <path d="M 804.0,394.0 L 815.0,409.0 L 819.0,428.0 L 728.0,513.0"/>
    <path d="M 433.0,655.0 L 486.0,662.0 L 635.0,637.0 L 847.0,613.0 L 880.0,614.0 L 936.0,630.0"/>
    <path d="M 610.0,369.0 L 649.0,395.0 L 668.0,501.0 L 689.0,742.0 L 689.0,842.0 L 682.0,909.0 L 665.0,961.0 L 634.0,996.0 L 596.0,980.0 L 525.0,936.0"/>
  </g>
</svg>
