<svg xmlns="http://www.w3.org/2000/svg" viewBox="0 0 1024 1024">
  <g style="fill:none;stroke:#000000;stroke-width:50;stroke-linecap:round;stroke-linejoin:round;" transform="scale(1, 1) translate(0, 0)">
    <path d="M 157.0,406.0 L 225.0,410.0 L 420.0,360.0 L 460.0,364.0"/>
    <path d="M 300.0,203.0 L 325.0,242.0 L 327.0,267.0 L 254.0,477.0 L 187.0,638.0 L 190.0,646.0 L 223.0,648.0 L 392.0,606.0 L 416.0,602.0 L 439.0,608.0"/>
    <path d="M 310.0,504.0 L 337.0,541.0 L 333.0,778.0 L 323.0,946.0 L 333.0,1036.0"/>
    <path d="M 81.0,825.0 L 133.0,841.0 L 431.0,723.0"/>
    <path d="M 594.0,225.0 L 681.0,271.0 L 709.0,310.0"/>
    <path d="M 504.0,471.0 L 543.0,474.0 L 670.0,437.0 L 801.0,408.0 L 877.0,417.0"/>
    <path d="M 581.0,545.0 L 557.0,554.0 L 507.0,636.0 L 463.0,681.0"/>
    <path d="M 714.0,528.0 L 825.0,578.0 L 862.0,621.0"/>
    <path d="M 686.0,623.0 L 713.0,665.0 L 705.0,719.0 L 673.0,815.0 L 635.0,876.0 L 598.0,911.0 L 552.0,940.0 L 470.0,971.0 L 380.0,987.0"/>
    <path d="M 528.0,703.0 L 564.0,722.0 L 696.0,872.0 L 805.0,961.0 L 824.0,971.0 L 965.0,988.0"/>
  </g>
</svg>
