<svg xmlns="http://www.w3.org/2000/svg" viewBox="0 0 1024 1024">
  <g style="fill:none;stroke:#000000;stroke-width:50;stroke-linecap:round;stroke-linejoin:round;" transform="scale(1, 1) translate(0, 0)">
    <path d="M 157.0,414.0 L 195.0,421.0 L 220.0,418.0 L 302.0,403.0 L 389.0,377.0 L 434.0,370.0 L 457.0,373.0"/>
    <path d="M 295.0,221.0 L 312.0,241.0 L 326.0,275.0 L 262.0,458.0 L 197.0,603.0 L 187.0,645.0 L 231.0,647.0 L 405.0,609.0 L 426.0,616.0"/>
    <path d="M 319.0,508.0 L 348.0,549.0 L 324.0,946.0 L 335.0,1035.0"/>
    <path d="M 85.0,817.0 L 137.0,833.0 L 429.0,719.0"/>
    <path d="M 476.0,522.0 L 534.0,524.0 L 646.0,499.0 L 749.0,465.0 L 806.0,461.0"/>
    <path d="M 447.0,679.0 L 494.0,682.0 L 594.0,653.0 L 641.0,655.0"/>
    <path d="M 508.0,700.0 L 533.0,725.0 L 530.0,803.0 L 513.0,817.0"/>
    <path d="M 393.0,865.0 L 452.0,877.0 L 659.0,793.0"/>
    <path d="M 582.0,252.0 L 605.0,260.0 L 644.0,293.0 L 659.0,467.0 L 685.0,606.0 L 727.0,743.0 L 780.0,853.0 L 820.0,910.0 L 854.0,944.0 L 883.0,963.0 L 914.0,968.0 L 948.0,861.0 L 950.0,833.0"/>
    <path d="M 768.0,276.0 L 837.0,324.0 L 862.0,366.0"/>
  </g>
</svg>
