<svg xmlns="http://www.w3.org/2000/svg" viewBox="0 0 1024 1024">
  <g style="fill:none;stroke:#000000;stroke-width:50;stroke-linecap:round;stroke-linejoin:round;" transform="scale(1, 1) translate(0, 0)">
    <path d="M 156.0,414.0 L 181.0,420.0 L 220.0,418.0 L 401.0,369.0 L 455.0,365.0"/>
    <path d="M 308.0,206.0 L 337.0,260.0 L 268.0,454.0 L 195.0,612.0 L 187.0,645.0 L 226.0,649.0 L 414.0,606.0 L 436.0,605.0 L 455.0,612.0"/>
    <path d="M 327.0,504.0 L 337.0,511.0 L 356.0,545.0 L 332.0,951.0 L 343.0,1035.0"/>
    <path d="M 101.0,819.0 L 156.0,836.0 L 233.0,801.0 L 404.0,739.0 L 452.0,714.0"/>
    <path d="M 506.0,383.0 L 546.0,390.0 L 563.0,387.0 L 792.0,332.0 L 808.0,332.0 L 835.0,353.0 L 811.0,510.0 L 781.0,587.0 L 749.0,616.0 L 668.0,574.0"/>
    <path d="M 602.0,399.0 L 628.0,419.0 L 631.0,431.0 L 613.0,484.0 L 544.0,606.0 L 509.0,648.0 L 478.0,673.0"/>
    <path d="M 496.0,739.0 L 523.0,764.0 L 530.0,784.0 L 561.0,1001.0"/>
    <path d="M 558.0,749.0 L 570.0,759.0 L 771.0,720.0 L 804.0,728.0 L 830.0,756.0 L 794.0,868.0 L 768.0,887.0"/>
    <path d="M 581.0,957.0 L 598.0,941.0 L 757.0,918.0 L 812.0,917.0 L 837.0,927.0"/>
  </g>
</svg>
