<svg xmlns="http://www.w3.org/2000/svg" viewBox="0 0 1024 1024">
  <g style="fill:none;stroke:#000000;stroke-width:50;stroke-linecap:round;stroke-linejoin:round;" transform="scale(1, 1) translate(0, 0)">
    <path d="M 148.0,406.0 L 203.0,411.0 L 357.0,371.0 L 423.0,365.0"/>
    <path d="M 300.0,195.0 L 329.0,247.0 L 273.0,421.0 L 195.0,603.0 L 182.0,649.0 L 222.0,653.0 L 408.0,612.0 L 435.0,610.0 L 451.0,616.0"/>
    <path d="M 310.0,500.0 L 338.0,536.0 L 323.0,953.0 L 333.0,1036.0"/>
    <path d="M 92.0,826.0 L 145.0,838.0 L 445.0,719.0"/>
    <path d="M 771.0,279.0 L 705.0,269.0 L 621.0,318.0 L 561.0,343.0 L 548.0,343.0 L 540.0,351.0 L 524.0,351.0 L 507.0,360.0 L 498.0,357.0 L 488.0,366.0"/>
    <path d="M 450.0,489.0 L 477.0,495.0 L 514.0,493.0 L 769.0,435.0 L 808.0,431.0 L 847.0,436.0"/>
    <path d="M 584.0,354.0 L 620.0,379.0 L 583.0,493.0 L 552.0,554.0 L 518.0,604.0 L 483.0,645.0 L 439.0,680.0"/>
    <path d="M 668.0,492.0 L 682.0,492.0 L 780.0,602.0 L 844.0,654.0 L 944.0,676.0 L 968.0,676.0"/>
    <path d="M 506.0,694.0 L 520.0,699.0 L 545.0,723.0 L 532.0,850.0 L 510.0,901.0 L 485.0,936.0 L 460.0,961.0 L 415.0,991.0"/>
    <path d="M 692.0,661.0 L 703.0,667.0 L 723.0,697.0 L 720.0,958.0 L 733.0,1038.0"/>
  </g>
</svg>
