<svg xmlns="http://www.w3.org/2000/svg" viewBox="0 0 1024 1024">
  <g style="fill:none;stroke:#000000;stroke-width:50;stroke-linecap:round;stroke-linejoin:round;" transform="scale(1, 1) translate(0, 0)">
    <path d="M 294.0,223.0 L 336.0,260.0 L 327.0,503.0 L 310.0,524.0"/>
    <path d="M 175.0,383.0 L 234.0,439.0 L 247.0,472.0"/>
    <path d="M 427.0,339.0 L 443.0,362.0 L 379.0,439.0"/>
    <path d="M 121.0,582.0 L 162.0,587.0 L 413.0,524.0 L 473.0,524.0"/>
    <path d="M 307.0,584.0 L 268.0,668.0 L 222.0,745.0 L 138.0,850.0 L 75.0,902.0"/>
    <path d="M 330.0,612.0 L 352.0,651.0 L 341.0,782.0 L 349.0,833.0 L 387.0,813.0 L 451.0,751.0"/>
    <path d="M 522.0,286.0 L 532.0,304.0 L 534.0,333.0 L 505.0,414.0 L 501.0,448.0"/>
    <path d="M 564.0,335.0 L 577.0,326.0 L 663.0,305.0 L 788.0,280.0 L 826.0,279.0 L 857.0,295.0 L 868.0,311.0 L 805.0,396.0"/>
    <path d="M 536.0,499.0 L 559.0,504.0 L 609.0,500.0 L 758.0,457.0 L 802.0,457.0"/>
    <path d="M 636.0,361.0 L 659.0,404.0 L 599.0,548.0 L 552.0,636.0 L 570.0,642.0 L 574.0,668.0 L 782.0,627.0 L 837.0,622.0 L 863.0,627.0"/>
    <path d="M 454.0,816.0 L 491.0,823.0 L 525.0,820.0 L 632.0,796.0 L 843.0,769.0 L 923.0,785.0"/>
    <path d="M 668.0,549.0 L 696.0,583.0 L 698.0,610.0 L 686.0,979.0 L 698.0,1050.0"/>
  </g>
</svg>
