<svg xmlns="http://www.w3.org/2000/svg" viewBox="0 0 1024 1024">
  <g style="fill:none;stroke:#000000;stroke-width:50;stroke-linecap:round;stroke-linejoin:round;" transform="scale(1, 1) translate(0, 0)">
    <path d="M 164.0,414.0 L 196.0,419.0 L 237.0,416.0 L 395.0,374.0 L 441.0,374.0"/>
    <path d="M 295.0,217.0 L 326.0,271.0 L 187.0,641.0 L 231.0,643.0 L 400.0,605.0 L 426.0,612.0"/>
    <path d="M 308.0,493.0 L 337.0,529.0 L 329.0,821.0 L 319.0,951.0 L 330.0,1030.0"/>
    <path d="M 92.0,806.0 L 146.0,821.0 L 426.0,707.0"/>
    <path d="M 501.0,379.0 L 524.0,385.0 L 564.0,383.0 L 659.0,367.0 L 743.0,341.0 L 797.0,340.0"/>
    <path d="M 508.0,490.0 L 568.0,494.0 L 720.0,457.0 L 758.0,459.0"/>
    <path d="M 464.0,601.0 L 516.0,605.0 L 805.0,555.0 L 834.0,555.0 L 885.0,567.0"/>
    <path d="M 581.0,205.0 L 601.0,213.0 L 633.0,244.0 L 622.0,406.0 L 591.0,553.0 L 553.0,648.0 L 499.0,730.0 L 429.0,801.0 L 388.0,827.0"/>
    <path d="M 678.0,595.0 L 694.0,605.0 L 777.0,704.0 L 840.0,765.0 L 896.0,784.0 L 961.0,798.0 L 976.0,796.0"/>
    <path d="M 542.0,726.0 L 576.0,728.0 L 668.0,703.0 L 692.0,703.0"/>
    <path d="M 473.0,853.0 L 504.0,854.0 L 693.0,819.0 L 731.0,819.0 L 774.0,829.0"/>
    <path d="M 578.0,749.0 L 604.0,765.0 L 610.0,779.0 L 600.0,854.0 L 576.0,922.0 L 548.0,962.0 L 517.0,991.0 L 478.0,1016.0 L 418.0,1036.0"/>
    <path d="M 668.0,919.0 L 770.0,996.0 L 802.0,1046.0"/>
  </g>
</svg>
