<svg xmlns="http://www.w3.org/2000/svg" viewBox="0 0 1024 1024">
  <g style="fill:none;stroke:#000000;stroke-width:50;stroke-linecap:round;stroke-linejoin:round;" transform="scale(1, 1) translate(0, 0)">
    <path d="M 144.0,414.0 L 169.0,420.0 L 208.0,418.0 L 373.0,376.0 L 419.0,373.0"/>
    <path d="M 300.0,202.0 L 328.0,257.0 L 262.0,438.0 L 192.0,594.0 L 182.0,637.0 L 232.0,636.0 L 410.0,590.0 L 435.0,595.0"/>
    <path d="M 300.0,501.0 L 330.0,537.0 L 314.0,967.0 L 326.0,1046.0"/>
    <path d="M 83.0,819.0 L 137.0,835.0 L 198.0,805.0 L 352.0,747.0 L 424.0,711.0"/>
    <path d="M 595.0,217.0 L 670.0,259.0 L 694.0,294.0"/>
    <path d="M 488.0,359.0 L 498.0,383.0 L 498.0,402.0 L 465.0,487.0 L 462.0,515.0"/>
    <path d="M 529.0,398.0 L 647.0,366.0 L 790.0,343.0 L 819.0,353.0 L 835.0,373.0 L 781.0,439.0"/>
    <path d="M 531.0,538.0 L 610.0,537.0 L 757.0,497.0 L 786.0,498.0"/>
    <path d="M 536.0,635.0 L 579.0,638.0 L 625.0,631.0 L 711.0,606.0 L 769.0,602.0"/>
    <path d="M 460.0,741.0 L 508.0,745.0 L 792.0,691.0 L 841.0,691.0 L 884.0,701.0"/>
    <path d="M 606.0,435.0 L 624.0,445.0 L 643.0,468.0 L 645.0,568.0 L 634.0,782.0"/>
    <path d="M 494.0,837.0 L 528.0,876.0 L 560.0,1034.0"/>
    <path d="M 542.0,836.0 L 566.0,849.0 L 738.0,811.0 L 776.0,816.0 L 803.0,842.0 L 775.0,929.0 L 751.0,943.0"/>
    <path d="M 578.0,1005.0 L 593.0,992.0 L 731.0,972.0 L 801.0,980.0"/>
  </g>
</svg>
