<svg xmlns="http://www.w3.org/2000/svg" viewBox="0 0 1024 1024">
  <g style="fill:none;stroke:#000000;stroke-width:50;stroke-linecap:round;stroke-linejoin:round;" transform="scale(1, 1) translate(0, 0)">
    <path d="M 139.0,394.0 L 212.0,394.0 L 347.0,352.0 L 395.0,351.0"/>
    <path d="M 259.0,220.0 L 286.0,268.0 L 244.0,404.0 L 161.0,619.0 L 156.0,648.0 L 197.0,646.0 L 319.0,602.0 L 356.0,603.0"/>
    <path d="M 260.0,511.0 L 286.0,547.0 L 267.0,934.0 L 277.0,1008.0"/>
    <path d="M 72.0,811.0 L 82.0,819.0 L 124.0,823.0 L 210.0,776.0 L 305.0,735.0 L 357.0,702.0"/>
    <path d="M 468.0,230.0 L 529.0,263.0 L 554.0,296.0"/>
    <path d="M 379.0,414.0 L 421.0,418.0 L 508.0,399.0 L 567.0,377.0 L 615.0,375.0"/>
    <path d="M 514.0,441.0 L 497.0,442.0 L 487.0,452.0 L 469.0,492.0 L 438.0,538.0 L 427.0,570.0 L 462.0,570.0 L 543.0,547.0 L 569.0,548.0"/>
    <path d="M 553.0,493.0 L 592.0,543.0 L 596.0,567.0"/>
    <path d="M 395.0,661.0 L 414.0,682.0 L 417.0,747.0 L 411.0,834.0 L 386.0,992.0"/>
    <path d="M 439.0,690.0 L 464.0,674.0 L 491.0,669.0 L 513.0,656.0 L 535.0,658.0 L 553.0,676.0 L 556.0,940.0 L 549.0,977.0 L 536.0,991.0 L 478.0,967.0 L 462.0,967.0"/>
    <path d="M 438.0,779.0 L 446.0,768.0 L 459.0,765.0 L 490.0,760.0 L 506.0,764.0"/>
    <path d="M 428.0,860.0 L 460.0,843.0 L 493.0,839.0 L 510.0,844.0"/>
    <path d="M 704.0,252.0 L 718.0,258.0 L 742.0,285.0 L 733.0,336.0 L 679.0,491.0 L 642.0,567.0 L 617.0,604.0"/>
    <path d="M 675.0,545.0 L 768.0,524.0 L 849.0,493.0 L 890.0,491.0"/>
    <path d="M 728.0,556.0 L 763.0,579.0 L 759.0,683.0 L 737.0,774.0 L 708.0,829.0 L 687.0,855.0 L 651.0,891.0 L 599.0,928.0"/>
    <path d="M 622.0,678.0 L 656.0,702.0 L 747.0,841.0 L 813.0,910.0 L 852.0,934.0 L 951.0,958.0"/>
  </g>
</svg>
