<svg xmlns="http://www.w3.org/2000/svg" viewBox="0 0 1024 1024">
  <g style="fill:none;stroke:#000000;stroke-width:50;stroke-linecap:round;stroke-linejoin:round;" transform="scale(1, 1) translate(0, 0)">
    <path d="M 283.0,280.0 L 328.0,290.0 L 356.0,289.0 L 516.0,266.0 L 651.0,239.0 L 701.0,239.0"/>
    <path d="M 460.0,167.0 L 493.0,203.0 L 483.0,321.0 L 464.0,349.0"/>
    <path d="M 316.0,371.0 L 344.0,390.0 L 383.0,518.0"/>
    <path d="M 373.0,374.0 L 385.0,382.0 L 396.0,381.0 L 496.0,367.0 L 563.0,349.0 L 597.0,349.0 L 617.0,357.0 L 634.0,379.0 L 617.0,417.0 L 590.0,433.0"/>
    <path d="M 398.0,474.0 L 407.0,483.0 L 435.0,481.0 L 582.0,458.0 L 637.0,467.0"/>
    <path d="M 451.0,499.0 L 503.0,538.0"/>
    <path d="M 297.0,579.0 L 322.0,587.0 L 351.0,586.0 L 626.0,544.0 L 661.0,542.0 L 695.0,550.0"/>
    <path d="M 368.0,631.0 L 398.0,661.0 L 411.0,684.0"/>
    <path d="M 579.0,575.0 L 595.0,590.0 L 601.0,612.0 L 561.0,684.0 L 545.0,697.0"/>
    <path d="M 111.0,759.0 L 166.0,769.0 L 441.0,730.0 L 806.0,696.0 L 856.0,703.0 L 894.0,717.0"/>
    <path d="M 238.0,867.0 L 287.0,877.0 L 538.0,841.0 L 704.0,828.0 L 784.0,846.0"/>
    <path d="M 456.0,750.0 L 497.0,780.0 L 490.0,1099.0"/>
  </g>
</svg>
