<svg xmlns="http://www.w3.org/2000/svg" viewBox="0 0 1024 1024">
  <g style="fill:none;stroke:#000000;stroke-width:50;stroke-linecap:round;stroke-linejoin:round;" transform="scale(1, 1) translate(0, 0)">
    <path d="M 265.0,219.0 L 336.0,264.0 L 357.0,300.0"/>
    <path d="M 184.0,403.0 L 209.0,408.0 L 279.0,400.0 L 378.0,372.0 L 420.0,373.0"/>
    <path d="M 198.0,466.0 L 240.0,519.0 L 244.0,536.0"/>
    <path d="M 353.0,433.0 L 370.0,464.0 L 340.0,540.0 L 315.0,577.0"/>
    <path d="M 73.0,634.0 L 120.0,642.0 L 350.0,587.0 L 395.0,582.0 L 419.0,586.0"/>
    <path d="M 149.0,748.0 L 195.0,751.0 L 331.0,711.0 L 394.0,710.0"/>
    <path d="M 264.0,628.0 L 295.0,651.0 L 285.0,749.0 L 261.0,850.0 L 236.0,904.0 L 197.0,957.0 L 156.0,989.0 L 131.0,1000.0"/>
    <path d="M 440.0,489.0 L 462.0,525.0 L 466.0,551.0"/>
    <path d="M 500.0,328.0 L 536.0,356.0 L 541.0,378.0 L 540.0,532.0 L 520.0,663.0 L 499.0,727.0 L 464.0,788.0 L 411.0,850.0 L 361.0,884.0"/>
    <path d="M 652.0,179.0 L 719.0,223.0 L 742.0,262.0"/>
    <path d="M 624.0,363.0 L 652.0,368.0 L 695.0,364.0 L 818.0,332.0 L 860.0,333.0"/>
    <path d="M 624.0,433.0 L 661.0,468.0 L 676.0,497.0"/>
    <path d="M 789.0,371.0 L 808.0,385.0 L 813.0,398.0 L 762.0,514.0 L 739.0,539.0"/>
    <path d="M 588.0,577.0 L 639.0,580.0 L 862.0,537.0 L 943.0,547.0"/>
    <path d="M 584.0,721.0 L 619.0,727.0 L 846.0,688.0 L 916.0,699.0"/>
    <path d="M 690.0,591.0 L 728.0,613.0 L 730.0,633.0 L 723.0,1077.0"/>
  </g>
</svg>
