<svg xmlns="http://www.w3.org/2000/svg" viewBox="0 0 1024 1024">
  <g style="fill:none;stroke:#000000;stroke-width:50;stroke-linecap:round;stroke-linejoin:round;" transform="scale(1, 1) translate(0, 0)">
    <path d="M 249.0,182.0 L 310.0,221.0 L 333.0,259.0"/>
    <path d="M 151.0,375.0 L 174.0,379.0 L 227.0,374.0 L 320.0,344.0 L 371.0,341.0"/>
    <path d="M 162.0,452.0 L 198.0,514.0"/>
    <path d="M 307.0,397.0 L 320.0,413.0 L 323.0,435.0 L 283.0,528.0 L 266.0,548.0"/>
    <path d="M 63.0,605.0 L 78.0,611.0 L 111.0,611.0 L 303.0,557.0 L 361.0,547.0 L 385.0,550.0"/>
    <path d="M 115.0,725.0 L 174.0,725.0 L 313.0,681.0 L 364.0,676.0"/>
    <path d="M 217.0,605.0 L 246.0,626.0 L 237.0,726.0 L 201.0,859.0 L 163.0,927.0 L 140.0,955.0 L 89.0,995.0 L 68.0,1002.0"/>
    <path d="M 377.0,473.0 L 404.0,479.0 L 545.0,445.0 L 570.0,462.0 L 547.0,683.0 L 524.0,769.0 L 508.0,801.0 L 485.0,822.0 L 430.0,782.0"/>
    <path d="M 456.0,266.0 L 482.0,293.0 L 486.0,310.0 L 472.0,454.0 L 442.0,589.0 L 419.0,659.0 L 377.0,748.0 L 342.0,803.0 L 296.0,856.0"/>
    <path d="M 684.0,163.0 L 747.0,212.0 L 758.0,238.0"/>
    <path d="M 636.0,323.0 L 659.0,329.0 L 697.0,326.0 L 839.0,287.0 L 892.0,285.0"/>
    <path d="M 647.0,399.0 L 684.0,444.0 L 692.0,464.0"/>
    <path d="M 804.0,346.0 L 826.0,380.0 L 792.0,470.0 L 775.0,498.0"/>
    <path d="M 596.0,545.0 L 655.0,545.0 L 866.0,500.0 L 908.0,497.0 L 963.0,508.0"/>
    <path d="M 615.0,662.0 L 651.0,669.0 L 835.0,637.0 L 881.0,634.0 L 911.0,640.0"/>
    <path d="M 703.0,554.0 L 747.0,584.0 L 744.0,1069.0"/>
  </g>
</svg>
