<svg xmlns="http://www.w3.org/2000/svg" viewBox="0 0 1024 1024">
  <g style="fill:none;stroke:#000000;stroke-width:50;stroke-linecap:round;stroke-linejoin:round;" transform="scale(1, 1) translate(0, 0)">
    <path d="M 354.0,250.0 L 363.0,259.0 L 380.0,263.0 L 435.0,258.0 L 665.0,207.0 L 703.0,207.0 L 714.0,215.0"/>
    <path d="M 291.0,236.0 L 318.0,261.0 L 325.0,281.0 L 323.0,344.0 L 304.0,479.0 L 281.0,562.0 L 242.0,648.0 L 192.0,714.0"/>
    <path d="M 392.0,371.0 L 441.0,376.0 L 612.0,336.0 L 664.0,333.0"/>
    <path d="M 332.0,485.0 L 375.0,489.0 L 569.0,444.0 L 689.0,426.0 L 741.0,428.0 L 770.0,436.0"/>
    <path d="M 380.0,512.0 L 406.0,527.0 L 409.0,539.0 L 405.0,616.0 L 414.0,662.0 L 444.0,649.0 L 523.0,578.0"/>
    <path d="M 744.0,524.0 L 718.0,516.0 L 652.0,563.0 L 638.0,563.0"/>
    <path d="M 476.0,488.0 L 504.0,492.0 L 622.0,583.0 L 677.0,618.0 L 720.0,637.0 L 751.0,647.0 L 898.0,642.0"/>
    <path d="M 147.0,799.0 L 200.0,809.0 L 411.0,777.0 L 796.0,744.0 L 839.0,749.0 L 886.0,764.0"/>
    <path d="M 548.0,638.0 L 584.0,671.0 L 593.0,687.0 L 589.0,994.0 L 573.0,1024.0 L 532.0,1011.0 L 462.0,974.0"/>
    <path d="M 366.0,841.0 L 440.0,879.0 L 458.0,906.0"/>
  </g>
</svg>
