<svg xmlns="http://www.w3.org/2000/svg" viewBox="0 0 1024 1024">
  <g style="fill:none;stroke:#000000;stroke-width:50;stroke-linecap:round;stroke-linejoin:round;" transform="scale(1, 1) translate(0, 0)">
    <path d="M 415.0,528.0 L 483.0,532.0 L 748.0,474.0 L 803.0,480.0"/>
    <path d="M 535.0,238.0 L 568.0,255.0 L 590.0,283.0 L 581.0,471.0 L 556.0,629.0 L 532.0,696.0 L 507.0,737.0 L 444.0,794.0 L 384.0,824.0"/>
    <path d="M 597.0,563.0 L 606.0,587.0 L 672.0,660.0 L 740.0,751.0 L 769.0,807.0 L 772.0,841.0"/>
    <path d="M 210.0,269.0 L 299.0,329.0 L 323.0,370.0"/>
    <path d="M 109.0,582.0 L 160.0,576.0 L 231.0,544.0 L 259.0,543.0 L 283.0,560.0 L 273.0,612.0 L 250.0,655.0 L 245.0,686.0 L 251.0,713.0 L 292.0,799.0 L 292.0,831.0 L 283.0,840.0"/>
    <path d="M 102.0,898.0 L 148.0,910.0 L 240.0,872.0 L 288.0,869.0 L 378.0,891.0 L 609.0,972.0 L 709.0,994.0 L 816.0,1002.0 L 934.0,971.0"/>
  </g>
</svg>
