<svg xmlns="http://www.w3.org/2000/svg" viewBox="0 0 1024 1024">
  <g style="fill:none;stroke:#000000;stroke-width:50;stroke-linecap:round;stroke-linejoin:round;" transform="scale(1, 1) translate(0, 0)">
    <path d="M 407.0,484.0 L 463.0,492.0 L 808.0,428.0 L 874.0,435.0"/>
    <path d="M 648.0,238.0 L 689.0,269.0 L 694.0,283.0 L 686.0,421.0 L 696.0,767.0 L 692.0,798.0 L 676.0,831.0 L 551.0,793.0 L 548.0,787.0 L 537.0,788.0"/>
    <path d="M 449.0,590.0 L 511.0,632.0 L 537.0,671.0"/>
    <path d="M 215.0,261.0 L 301.0,309.0 L 330.0,349.0"/>
    <path d="M 129.0,565.0 L 159.0,568.0 L 185.0,562.0 L 261.0,532.0 L 277.0,532.0 L 302.0,548.0 L 306.0,560.0 L 299.0,589.0 L 266.0,666.0 L 275.0,707.0 L 308.0,770.0 L 316.0,804.0 L 316.0,820.0 L 301.0,838.0"/>
    <path d="M 121.0,888.0 L 164.0,899.0 L 245.0,867.0 L 299.0,863.0 L 352.0,870.0 L 577.0,952.0 L 670.0,977.0 L 753.0,991.0 L 837.0,985.0 L 922.0,958.0"/>
  </g>
</svg>
