<svg xmlns="http://www.w3.org/2000/svg" viewBox="0 0 1024 1024">
  <g style="fill:none;stroke:#000000;stroke-width:50;stroke-linecap:round;stroke-linejoin:round;" transform="scale(1, 1) translate(0, 0)">
    <path d="M 535.0,316.0 L 572.0,320.0 L 609.0,315.0 L 714.0,282.0 L 774.0,279.0"/>
    <path d="M 459.0,366.0 L 489.0,403.0 L 474.0,531.0 L 494.0,532.0 L 634.0,497.0 L 775.0,478.0 L 822.0,477.0 L 870.0,493.0"/>
    <path d="M 645.0,339.0 L 669.0,351.0 L 680.0,375.0 L 686.0,790.0 L 679.0,822.0 L 662.0,848.0 L 566.0,795.0"/>
    <path d="M 649.0,524.0 L 621.0,599.0 L 544.0,686.0 L 465.0,755.0 L 389.0,797.0"/>
    <path d="M 233.0,221.0 L 315.0,278.0 L 337.0,318.0"/>
    <path d="M 93.0,529.0 L 149.0,527.0 L 236.0,496.0 L 249.0,496.0 L 274.0,515.0 L 265.0,568.0 L 236.0,635.0 L 241.0,664.0 L 269.0,714.0 L 289.0,768.0 L 291.0,795.0 L 273.0,822.0"/>
    <path d="M 84.0,867.0 L 128.0,880.0 L 220.0,845.0 L 282.0,842.0 L 330.0,852.0 L 555.0,946.0 L 691.0,988.0 L 767.0,1000.0 L 799.0,999.0 L 925.0,974.0"/>
  </g>
</svg>
