<svg xmlns="http://www.w3.org/2000/svg" viewBox="0 0 1024 1024">
  <g style="fill:none;stroke:#000000;stroke-width:50;stroke-linecap:round;stroke-linejoin:round;" transform="scale(1, 1) translate(0, 0)">
    <path d="M 786.0,279.0 L 720.0,268.0 L 614.0,326.0 L 531.0,356.0 L 529.0,366.0"/>
    <path d="M 446.0,340.0 L 469.0,355.0 L 485.0,375.0 L 483.0,512.0 L 466.0,622.0 L 437.0,694.0 L 413.0,727.0 L 361.0,781.0 L 329.0,800.0"/>
    <path d="M 517.0,502.0 L 589.0,491.0 L 681.0,460.0 L 717.0,459.0 L 744.0,469.0 L 730.0,539.0 L 694.0,638.0 L 642.0,720.0 L 595.0,762.0 L 549.0,789.0 L 499.0,808.0 L 472.0,811.0"/>
    <path d="M 553.0,615.0 L 696.0,719.0 L 780.0,791.0 L 812.0,827.0 L 831.0,867.0"/>
    <path d="M 209.0,260.0 L 304.0,312.0 L 334.0,353.0"/>
    <path d="M 89.0,554.0 L 137.0,553.0 L 248.0,509.0 L 264.0,510.0 L 289.0,530.0 L 275.0,584.0 L 247.0,625.0 L 239.0,654.0 L 247.0,695.0 L 281.0,780.0 L 283.0,805.0 L 269.0,823.0"/>
    <path d="M 87.0,877.0 L 128.0,888.0 L 202.0,857.0 L 290.0,850.0 L 383.0,878.0 L 561.0,947.0 L 699.0,984.0 L 805.0,994.0 L 901.0,975.0 L 929.0,964.0"/>
  </g>
</svg>
