<svg xmlns="http://www.w3.org/2000/svg" viewBox="0 0 1024 1024">
  <g style="fill:none;stroke:#000000;stroke-width:50;stroke-linecap:round;stroke-linejoin:round;" transform="scale(1, 1) translate(0, 0)">
    <path d="M 423.0,469.0 L 501.0,475.0 L 727.0,426.0 L 784.0,426.0"/>
    <path d="M 385.0,640.0 L 435.0,645.0 L 601.0,615.0 L 785.0,593.0 L 845.0,600.0 L 869.0,613.0"/>
    <path d="M 492.0,337.0 L 512.0,348.0 L 530.0,372.0 L 534.0,497.0 L 521.0,623.0 L 502.0,678.0 L 466.0,739.0 L 431.0,778.0 L 398.0,801.0"/>
    <path d="M 637.0,233.0 L 683.0,279.0 L 684.0,663.0 L 674.0,799.0 L 677.0,882.0"/>
    <path d="M 237.0,257.0 L 319.0,314.0 L 341.0,353.0"/>
    <path d="M 85.0,578.0 L 151.0,573.0 L 258.0,533.0 L 272.0,532.0 L 296.0,549.0 L 294.0,586.0 L 259.0,658.0 L 257.0,675.0 L 265.0,710.0 L 304.0,794.0 L 304.0,831.0 L 292.0,842.0"/>
    <path d="M 92.0,895.0 L 136.0,908.0 L 226.0,872.0 L 305.0,869.0 L 379.0,889.0 L 587.0,963.0 L 676.0,985.0 L 765.0,996.0 L 824.0,991.0 L 934.0,962.0"/>
  </g>
</svg>
