<svg xmlns="http://www.w3.org/2000/svg" viewBox="0 0 1024 1024">
  <g style="fill:none;stroke:#000000;stroke-width:50;stroke-linecap:round;stroke-linejoin:round;" transform="scale(1, 1) translate(0, 0)">
    <path d="M 499.0,361.0 L 554.0,364.0 L 698.0,321.0 L 757.0,317.0"/>
    <path d="M 414.0,544.0 L 464.0,551.0 L 606.0,523.0 L 773.0,481.0 L 818.0,477.0 L 851.0,483.0"/>
    <path d="M 519.0,601.0 L 538.0,630.0 L 505.0,708.0 L 483.0,743.0 L 448.0,781.0 L 391.0,821.0"/>
    <path d="M 630.0,541.0 L 659.0,565.0 L 650.0,695.0 L 653.0,756.0 L 667.0,797.0 L 697.0,821.0 L 745.0,835.0 L 788.0,836.0 L 841.0,826.0 L 871.0,809.0 L 882.0,798.0 L 888.0,664.0"/>
    <path d="M 267.0,242.0 L 357.0,296.0 L 380.0,332.0"/>
    <path d="M 113.0,541.0 L 139.0,544.0 L 176.0,538.0 L 278.0,504.0 L 293.0,504.0 L 318.0,523.0 L 314.0,562.0 L 283.0,625.0 L 277.0,656.0 L 285.0,690.0 L 321.0,761.0 L 323.0,806.0 L 308.0,818.0"/>
    <path d="M 114.0,862.0 L 157.0,877.0 L 252.0,846.0 L 316.0,845.0 L 374.0,860.0 L 625.0,959.0 L 762.0,991.0 L 820.0,991.0 L 944.0,965.0"/>
  </g>
</svg>
