<svg xmlns="http://www.w3.org/2000/svg" viewBox="0 0 1024 1024">
  <g style="fill:none;stroke:#000000;stroke-width:50;stroke-linecap:round;stroke-linejoin:round;" transform="scale(1, 1) translate(0, 0)">
    <path d="M 415.0,386.0 L 472.0,396.0 L 772.0,341.0 L 840.0,348.0"/>
    <path d="M 599.0,404.0 L 628.0,431.0 L 608.0,480.0 L 556.0,569.0 L 471.0,675.0 L 410.0,731.0 L 363.0,763.0"/>
    <path d="M 559.0,494.0 L 596.0,560.0 L 597.0,703.0 L 588.0,826.0 L 594.0,886.0"/>
    <path d="M 690.0,591.0 L 752.0,627.0 L 814.0,673.0 L 845.0,726.0"/>
    <path d="M 229.0,248.0 L 305.0,292.0 L 339.0,336.0"/>
    <path d="M 109.0,574.0 L 147.0,575.0 L 251.0,533.0 L 267.0,533.0 L 291.0,548.0 L 294.0,571.0 L 288.0,595.0 L 260.0,656.0 L 265.0,691.0 L 295.0,744.0 L 306.0,784.0 L 295.0,831.0 L 279.0,842.0"/>
    <path d="M 101.0,892.0 L 145.0,902.0 L 240.0,867.0 L 321.0,869.0 L 587.0,964.0 L 677.0,987.0 L 757.0,999.0 L 810.0,998.0 L 892.0,979.0 L 922.0,966.0"/>
  </g>
</svg>
