<svg xmlns="http://www.w3.org/2000/svg" viewBox="0 0 1024 1024">
  <g style="fill:none;stroke:#000000;stroke-width:50;stroke-linecap:round;stroke-linejoin:round;" transform="scale(1, 1) translate(0, 0)">
    <path d="M 515.0,197.0 L 546.0,236.0 L 528.0,284.0 L 503.0,337.0 L 473.0,381.0 L 439.0,424.0 L 394.0,461.0"/>
    <path d="M 520.0,366.0 L 621.0,348.0 L 714.0,317.0 L 762.0,315.0"/>
    <path d="M 322.0,666.0 L 381.0,666.0 L 567.0,592.0 L 730.0,519.0 L 751.0,518.0 L 772.0,531.0 L 733.0,666.0 L 714.0,700.0 L 698.0,704.0 L 633.0,675.0"/>
    <path d="M 557.0,429.0 L 575.0,439.0 L 593.0,463.0 L 582.0,666.0 L 570.0,755.0"/>
    <path d="M 435.0,539.0 L 470.0,583.0 L 459.0,674.0 L 459.0,733.0 L 469.0,796.0 L 487.0,826.0 L 525.0,848.0 L 600.0,861.0 L 692.0,860.0 L 774.0,849.0 L 830.0,831.0 L 852.0,817.0 L 856.0,673.0"/>
    <path d="M 204.0,247.0 L 292.0,306.0 L 312.0,343.0"/>
    <path d="M 96.0,570.0 L 138.0,566.0 L 236.0,523.0 L 258.0,527.0 L 274.0,540.0 L 269.0,583.0 L 233.0,663.0 L 237.0,696.0 L 280.0,789.0 L 284.0,829.0 L 273.0,841.0"/>
    <path d="M 96.0,888.0 L 137.0,901.0 L 216.0,871.0 L 294.0,870.0 L 577.0,969.0 L 736.0,1004.0 L 802.0,1005.0 L 927.0,975.0"/>
  </g>
</svg>
