<svg xmlns="http://www.w3.org/2000/svg" viewBox="0 0 1024 1024">
  <g style="fill:none;stroke:#000000;stroke-width:50;stroke-linecap:round;stroke-linejoin:round;" transform="scale(1, 1) translate(0, 0)">
    <path d="M 361.0,474.0 L 399.0,507.0 L 411.0,531.0 L 443.0,751.0 L 464.0,819.0"/>
    <path d="M 429.0,489.0 L 441.0,498.0 L 459.0,500.0 L 769.0,442.0 L 790.0,447.0 L 809.0,464.0 L 820.0,491.0 L 779.0,748.0 L 757.0,784.0 L 755.0,845.0"/>
    <path d="M 498.0,624.0 L 661.0,593.0 L 707.0,599.0"/>
    <path d="M 545.0,222.0 L 578.0,245.0 L 598.0,268.0 L 600.0,294.0 L 593.0,719.0 L 575.0,740.0"/>
    <path d="M 482.0,788.0 L 499.0,773.0 L 724.0,743.0"/>
    <path d="M 200.0,263.0 L 288.0,322.0 L 308.0,359.0"/>
    <path d="M 68.0,569.0 L 132.0,564.0 L 237.0,525.0 L 259.0,529.0 L 279.0,545.0 L 267.0,594.0 L 236.0,653.0 L 234.0,670.0 L 238.0,693.0 L 270.0,758.0 L 280.0,795.0 L 280.0,820.0 L 262.0,840.0"/>
    <path d="M 81.0,892.0 L 123.0,903.0 L 203.0,870.0 L 246.0,864.0 L 288.0,867.0 L 555.0,954.0 L 633.0,974.0 L 740.0,991.0 L 804.0,992.0 L 941.0,957.0"/>
  </g>
</svg>
