<svg xmlns="http://www.w3.org/2000/svg" viewBox="0 0 1024 1024">
  <g style="fill:none;stroke:#000000;stroke-width:50;stroke-linecap:round;stroke-linejoin:round;" transform="scale(1, 1) translate(0, 0)">
    <path d="M 449.0,379.0 L 479.0,411.0 L 469.0,454.0 L 430.0,535.0 L 389.0,583.0"/>
    <path d="M 487.0,486.0 L 563.0,478.0 L 724.0,431.0 L 764.0,429.0"/>
    <path d="M 393.0,656.0 L 450.0,657.0 L 512.0,639.0 L 777.0,586.0 L 855.0,596.0"/>
    <path d="M 584.0,228.0 L 608.0,243.0 L 631.0,270.0 L 619.0,513.0 L 598.0,661.0 L 574.0,728.0 L 535.0,790.0 L 487.0,836.0 L 427.0,870.0"/>
    <path d="M 645.0,707.0 L 767.0,793.0 L 789.0,817.0 L 810.0,862.0"/>
    <path d="M 185.0,272.0 L 271.0,326.0 L 294.0,366.0"/>
    <path d="M 93.0,566.0 L 119.0,567.0 L 144.0,560.0 L 247.0,518.0 L 260.0,518.0 L 287.0,537.0 L 281.0,581.0 L 241.0,668.0 L 244.0,702.0 L 292.0,805.0 L 294.0,833.0 L 284.0,845.0"/>
    <path d="M 93.0,896.0 L 137.0,906.0 L 231.0,871.0 L 295.0,870.0 L 356.0,885.0 L 599.0,972.0 L 725.0,999.0 L 806.0,1002.0 L 878.0,987.0 L 922.0,971.0"/>
  </g>
</svg>
