<svg xmlns="http://www.w3.org/2000/svg" viewBox="0 0 1024 1024">
  <g style="fill:none;stroke:#000000;stroke-width:50;stroke-linecap:round;stroke-linejoin:round;" transform="scale(1, 1) translate(0, 0)">
    <path d="M 424.0,382.0 L 482.0,423.0 L 506.0,462.0"/>
    <path d="M 755.0,301.0 L 782.0,336.0 L 746.0,380.0 L 705.0,421.0 L 695.0,424.0 L 693.0,433.0"/>
    <path d="M 392.0,576.0 L 442.0,580.0 L 729.0,521.0 L 776.0,521.0 L 822.0,530.0"/>
    <path d="M 562.0,246.0 L 587.0,262.0 L 613.0,294.0 L 602.0,461.0 L 591.0,821.0 L 597.0,872.0"/>
    <path d="M 579.0,574.0 L 570.0,582.0 L 559.0,628.0 L 511.0,697.0 L 425.0,782.0 L 378.0,813.0"/>
    <path d="M 677.0,651.0 L 785.0,723.0 L 812.0,751.0 L 830.0,790.0"/>
    <path d="M 226.0,245.0 L 315.0,305.0 L 342.0,346.0"/>
    <path d="M 101.0,558.0 L 153.0,555.0 L 250.0,521.0 L 264.0,520.0 L 290.0,539.0 L 285.0,583.0 L 249.0,662.0 L 252.0,693.0 L 281.0,747.0 L 299.0,800.0 L 296.0,830.0 L 283.0,842.0"/>
    <path d="M 93.0,896.0 L 138.0,905.0 L 231.0,869.0 L 281.0,865.0 L 371.0,887.0 L 577.0,966.0 L 696.0,995.0 L 780.0,1002.0 L 839.0,993.0 L 909.0,972.0"/>
  </g>
</svg>
