<svg xmlns="http://www.w3.org/2000/svg" viewBox="0 0 1024 1024">
  <g style="fill:none;stroke:#000000;stroke-width:50;stroke-linecap:round;stroke-linejoin:round;" transform="scale(1, 1) translate(0, 0)">
    <path d="M 345.0,376.0 L 364.0,384.0 L 390.0,383.0 L 497.0,336.0 L 527.0,332.0 L 551.0,340.0 L 564.0,354.0 L 556.0,373.0 L 493.0,456.0 L 491.0,466.0 L 481.0,466.0"/>
    <path d="M 434.0,473.0 L 449.0,476.0 L 477.0,500.0 L 506.0,565.0 L 523.0,655.0 L 525.0,745.0 L 511.0,808.0 L 480.0,843.0 L 393.0,805.0"/>
    <path d="M 316.0,673.0 L 367.0,681.0 L 541.0,581.0 L 584.0,549.0"/>
    <path d="M 704.0,314.0 L 749.0,359.0 L 751.0,702.0 L 744.0,808.0 L 733.0,832.0 L 721.0,835.0 L 606.0,782.0"/>
    <path d="M 648.0,574.0 L 635.0,625.0 L 593.0,708.0"/>
    <path d="M 823.0,564.0 L 905.0,645.0 L 925.0,700.0"/>
    <path d="M 189.0,256.0 L 265.0,300.0 L 299.0,344.0"/>
    <path d="M 77.0,586.0 L 101.0,587.0 L 137.0,578.0 L 237.0,535.0 L 250.0,533.0 L 278.0,553.0 L 270.0,596.0 L 239.0,648.0 L 232.0,676.0 L 237.0,713.0 L 275.0,795.0 L 279.0,832.0 L 265.0,850.0"/>
    <path d="M 86.0,890.0 L 128.0,905.0 L 223.0,875.0 L 300.0,879.0 L 550.0,964.0 L 725.0,1001.0 L 801.0,1004.0 L 871.0,989.0 L 917.0,972.0"/>
  </g>
</svg>
