<svg xmlns="http://www.w3.org/2000/svg" viewBox="0 0 1024 1024">
  <g style="fill:none;stroke:#000000;stroke-width:50;stroke-linecap:round;stroke-linejoin:round;" transform="scale(1, 1) translate(0, 0)">
    <path d="M 455.0,356.0 L 482.0,386.0 L 472.0,419.0 L 426.0,498.0 L 392.0,530.0"/>
    <path d="M 487.0,453.0 L 496.0,447.0 L 531.0,449.0 L 577.0,442.0 L 702.0,405.0 L 754.0,401.0"/>
    <path d="M 576.0,227.0 L 620.0,265.0 L 610.0,530.0 L 594.0,557.0"/>
    <path d="M 384.0,608.0 L 435.0,613.0 L 569.0,583.0 L 755.0,552.0 L 812.0,552.0 L 856.0,562.0"/>
    <path d="M 511.0,620.0 L 538.0,650.0 L 508.0,729.0 L 463.0,793.0 L 383.0,857.0"/>
    <path d="M 618.0,600.0 L 641.0,615.0 L 647.0,627.0 L 637.0,760.0 L 644.0,823.0 L 661.0,852.0 L 688.0,866.0 L 738.0,876.0 L 802.0,872.0 L 834.0,863.0 L 859.0,847.0 L 868.0,838.0 L 868.0,696.0"/>
    <path d="M 218.0,269.0 L 300.0,323.0 L 327.0,366.0"/>
    <path d="M 104.0,586.0 L 161.0,578.0 L 246.0,539.0 L 261.0,539.0 L 287.0,556.0 L 284.0,597.0 L 254.0,664.0 L 248.0,697.0 L 294.0,804.0 L 294.0,835.0 L 279.0,849.0"/>
    <path d="M 108.0,896.0 L 149.0,909.0 L 240.0,877.0 L 314.0,880.0 L 610.0,979.0 L 749.0,1006.0 L 828.0,1003.0 L 939.0,974.0"/>
  </g>
</svg>
