<svg xmlns="http://www.w3.org/2000/svg" viewBox="0 0 1024 1024">
  <g style="fill:none;stroke:#000000;stroke-width:50;stroke-linecap:round;stroke-linejoin:round;" transform="scale(1, 1) translate(0, 0)">
    <path d="M 491.0,283.0 L 512.0,317.0 L 475.0,387.0 L 413.0,461.0 L 342.0,515.0"/>
    <path d="M 350.0,354.0 L 368.0,372.0 L 419.0,396.0 L 463.0,439.0 L 485.0,483.0 L 502.0,581.0 L 496.0,695.0 L 482.0,752.0 L 465.0,783.0 L 448.0,796.0 L 363.0,747.0"/>
    <path d="M 462.0,501.0 L 455.0,558.0 L 426.0,602.0 L 352.0,678.0 L 305.0,710.0"/>
    <path d="M 558.0,440.0 L 591.0,490.0 L 600.0,516.0"/>
    <path d="M 809.0,358.0 L 831.0,393.0 L 754.0,475.0 L 738.0,485.0"/>
    <path d="M 650.0,268.0 L 675.0,283.0 L 694.0,307.0 L 692.0,472.0 L 678.0,620.0 L 656.0,683.0 L 626.0,731.0 L 595.0,758.0 L 542.0,786.0"/>
    <path d="M 708.0,627.0 L 708.0,640.0 L 770.0,692.0 L 818.0,743.0 L 836.0,771.0 L 843.0,803.0"/>
    <path d="M 170.0,285.0 L 245.0,335.0 L 270.0,373.0"/>
    <path d="M 65.0,562.0 L 91.0,565.0 L 115.0,560.0 L 213.0,525.0 L 227.0,525.0 L 250.0,541.0 L 250.0,571.0 L 220.0,647.0 L 220.0,668.0 L 267.0,767.0 L 268.0,801.0 L 251.0,822.0"/>
    <path d="M 91.0,876.0 L 137.0,884.0 L 202.0,854.0 L 266.0,846.0 L 374.0,873.0 L 585.0,948.0 L 685.0,970.0 L 792.0,978.0 L 910.0,947.0"/>
  </g>
</svg>
