<svg xmlns="http://www.w3.org/2000/svg" viewBox="0 0 1024 1024">
  <g style="fill:none;stroke:#000000;stroke-width:50;stroke-linecap:round;stroke-linejoin:round;" transform="scale(1, 1) translate(0, 0)">
    <path d="M 502.0,265.0 L 539.0,271.0 L 596.0,266.0 L 723.0,237.0 L 772.0,238.0"/>
    <path d="M 464.0,331.0 L 484.0,348.0 L 493.0,373.0 L 419.0,485.0 L 412.0,508.0 L 438.0,531.0 L 497.0,560.0 L 513.0,587.0"/>
    <path d="M 604.0,320.0 L 624.0,336.0 L 633.0,361.0 L 569.0,471.0 L 573.0,481.0 L 641.0,530.0 L 653.0,558.0"/>
    <path d="M 766.0,284.0 L 779.0,298.0 L 787.0,330.0 L 709.0,451.0 L 724.0,474.0 L 799.0,521.0 L 816.0,551.0"/>
    <path d="M 489.0,651.0 L 561.0,653.0 L 711.0,618.0 L 764.0,616.0"/>
    <path d="M 602.0,670.0 L 621.0,689.0 L 624.0,705.0 L 619.0,766.0 L 601.0,779.0"/>
    <path d="M 420.0,828.0 L 465.0,835.0 L 768.0,788.0 L 816.0,792.0 L 849.0,802.0"/>
    <path d="M 211.0,245.0 L 292.0,292.0 L 322.0,332.0"/>
    <path d="M 96.0,550.0 L 148.0,544.0 L 235.0,506.0 L 254.0,511.0 L 270.0,524.0 L 260.0,574.0 L 234.0,641.0 L 241.0,675.0 L 269.0,715.0 L 286.0,762.0 L 273.0,809.0 L 259.0,820.0"/>
    <path d="M 93.0,862.0 L 142.0,872.0 L 217.0,842.0 L 298.0,843.0 L 615.0,961.0 L 741.0,991.0 L 948.0,959.0"/>
  </g>
</svg>
