<svg xmlns="http://www.w3.org/2000/svg" viewBox="0 0 1024 1024">
  <g style="fill:none;stroke:#000000;stroke-width:50;stroke-linecap:round;stroke-linejoin:round;" transform="scale(1, 1) translate(0, 0)">
    <path d="M 518.0,204.0 L 605.0,249.0 L 639.0,289.0"/>
    <path d="M 403.0,355.0 L 412.0,378.0 L 412.0,403.0 L 385.0,477.0 L 383.0,506.0"/>
    <path d="M 445.0,407.0 L 602.0,364.0 L 764.0,338.0 L 792.0,348.0 L 809.0,373.0 L 750.0,441.0"/>
    <path d="M 456.0,495.0 L 484.0,526.0 L 494.0,605.0 L 483.0,904.0"/>
    <path d="M 515.0,526.0 L 538.0,514.0 L 671.0,485.0 L 702.0,513.0 L 686.0,556.0 L 659.0,576.0"/>
    <path d="M 520.0,621.0 L 529.0,628.0 L 648.0,603.0 L 714.0,607.0"/>
    <path d="M 515.0,739.0 L 542.0,726.0 L 602.0,718.0 L 682.0,697.0 L 703.0,699.0 L 733.0,728.0 L 712.0,779.0 L 684.0,800.0"/>
    <path d="M 512.0,858.0 L 535.0,846.0 L 684.0,824.0 L 721.0,822.0 L 746.0,831.0"/>
    <path d="M 197.0,293.0 L 283.0,352.0 L 305.0,390.0"/>
    <path d="M 93.0,594.0 L 131.0,594.0 L 248.0,553.0 L 260.0,553.0 L 285.0,571.0 L 274.0,629.0 L 259.0,654.0 L 250.0,686.0 L 254.0,718.0 L 294.0,806.0 L 295.0,840.0 L 279.0,859.0"/>
    <path d="M 104.0,903.0 L 150.0,915.0 L 236.0,885.0 L 307.0,887.0 L 597.0,981.0 L 736.0,1004.0 L 793.0,1002.0 L 918.0,969.0"/>
  </g>
</svg>
