<svg xmlns="http://www.w3.org/2000/svg" viewBox="0 0 1024 1024">
  <g style="fill:none;stroke:#000000;stroke-width:50;stroke-linecap:round;stroke-linejoin:round;" transform="scale(1, 1) translate(0, 0)">
    <path d="M 404.0,288.0 L 432.0,311.0 L 442.0,341.0 L 447.0,437.0 L 441.0,558.0 L 431.0,620.0 L 407.0,703.0 L 367.0,792.0 L 342.0,826.0"/>
    <path d="M 459.0,293.0 L 481.0,304.0 L 741.0,256.0 L 781.0,269.0 L 803.0,295.0 L 799.0,371.0 L 807.0,760.0 L 802.0,808.0 L 785.0,845.0 L 739.0,835.0 L 682.0,809.0"/>
    <path d="M 499.0,439.0 L 545.0,442.0 L 662.0,410.0 L 700.0,409.0"/>
    <path d="M 568.0,325.0 L 589.0,339.0 L 600.0,361.0 L 597.0,488.0 L 585.0,503.0"/>
    <path d="M 502.0,530.0 L 550.0,533.0 L 672.0,507.0 L 705.0,511.0"/>
    <path d="M 499.0,615.0 L 526.0,648.0 L 553.0,770.0"/>
    <path d="M 542.0,617.0 L 553.0,624.0 L 611.0,615.0 L 637.0,605.0 L 670.0,609.0 L 686.0,629.0 L 671.0,671.0 L 648.0,692.0"/>
    <path d="M 567.0,722.0 L 576.0,728.0 L 639.0,716.0 L 692.0,722.0"/>
    <path d="M 205.0,269.0 L 277.0,319.0 L 305.0,364.0"/>
    <path d="M 77.0,562.0 L 132.0,557.0 L 212.0,522.0 L 232.0,522.0 L 257.0,542.0 L 248.0,583.0 L 221.0,629.0 L 209.0,665.0 L 210.0,679.0 L 242.0,733.0 L 258.0,776.0 L 254.0,804.0 L 239.0,829.0"/>
    <path d="M 69.0,874.0 L 118.0,884.0 L 180.0,857.0 L 263.0,852.0 L 336.0,872.0 L 435.0,913.0 L 627.0,976.0 L 757.0,1005.0 L 829.0,998.0 L 970.0,968.0"/>
  </g>
</svg>
