<svg xmlns="http://www.w3.org/2000/svg" viewBox="0 0 1024 1024">
  <g style="fill:none;stroke:#000000;stroke-width:50;stroke-linecap:round;stroke-linejoin:round;" transform="scale(1, 1) translate(0, 0)">
    <path d="M 542.0,184.0 L 561.0,205.0 L 566.0,224.0 L 548.0,255.0 L 477.0,342.0 L 408.0,401.0"/>
    <path d="M 535.0,314.0 L 638.0,293.0 L 664.0,297.0 L 676.0,305.0 L 620.0,393.0 L 572.0,446.0"/>
    <path d="M 375.0,469.0 L 407.0,500.0 L 444.0,657.0"/>
    <path d="M 436.0,493.0 L 453.0,481.0 L 580.0,461.0 L 692.0,430.0 L 717.0,432.0 L 746.0,465.0 L 709.0,552.0 L 683.0,561.0"/>
    <path d="M 458.0,640.0 L 479.0,628.0 L 674.0,593.0 L 717.0,593.0 L 735.0,599.0"/>
    <path d="M 537.0,479.0 L 540.0,487.0 L 567.0,504.0 L 554.0,596.0 L 537.0,656.0 L 479.0,765.0 L 385.0,869.0"/>
    <path d="M 593.0,655.0 L 615.0,683.0 L 609.0,782.0 L 614.0,835.0 L 630.0,863.0 L 665.0,882.0 L 702.0,890.0 L 763.0,891.0 L 818.0,880.0 L 847.0,866.0 L 868.0,846.0 L 866.0,730.0"/>
    <path d="M 704.0,657.0 L 740.0,683.0 L 761.0,712.0"/>
    <path d="M 202.0,269.0 L 288.0,327.0 L 310.0,362.0"/>
    <path d="M 97.0,598.0 L 137.0,596.0 L 238.0,557.0 L 258.0,563.0 L 274.0,576.0 L 272.0,604.0 L 239.0,673.0 L 234.0,704.0 L 239.0,730.0 L 278.0,821.0 L 281.0,846.0 L 269.0,861.0"/>
    <path d="M 86.0,914.0 L 132.0,926.0 L 214.0,891.0 L 292.0,886.0 L 374.0,909.0 L 560.0,977.0 L 705.0,1011.0 L 786.0,1021.0 L 818.0,1019.0 L 921.0,995.0 L 925.0,989.0"/>
  </g>
</svg>
