<svg xmlns="http://www.w3.org/2000/svg" viewBox="0 0 1024 1024">
  <g style="fill:none;stroke:#000000;stroke-width:50;stroke-linecap:round;stroke-linejoin:round;" transform="scale(1, 1) translate(0, 0)">
    <path d="M 455.0,250.0 L 509.0,302.0 L 524.0,329.0"/>
    <path d="M 690.0,168.0 L 718.0,202.0 L 641.0,299.0 L 604.0,332.0 L 602.0,341.0"/>
    <path d="M 428.0,430.0 L 488.0,433.0 L 707.0,377.0 L 755.0,373.0"/>
    <path d="M 584.0,471.0 L 560.0,467.0 L 542.0,496.0 L 490.0,547.0 L 421.0,597.0 L 381.0,616.0"/>
    <path d="M 536.0,538.0 L 562.0,541.0 L 585.0,555.0 L 645.0,609.0 L 676.0,659.0 L 683.0,725.0 L 670.0,798.0 L 657.0,833.0 L 627.0,869.0 L 519.0,830.0"/>
    <path d="M 557.0,558.0 L 561.0,590.0 L 536.0,620.0 L 454.0,688.0 L 422.0,709.0 L 407.0,710.0 L 403.0,718.0"/>
    <path d="M 623.0,618.0 L 623.0,656.0 L 560.0,731.0 L 480.0,799.0 L 410.0,838.0"/>
    <path d="M 767.0,459.0 L 783.0,492.0 L 732.0,545.0 L 672.0,594.0 L 665.0,592.0"/>
    <path d="M 713.0,688.0 L 719.0,698.0 L 827.0,766.0 L 864.0,815.0"/>
    <path d="M 209.0,276.0 L 299.0,333.0 L 326.0,376.0"/>
    <path d="M 101.0,585.0 L 157.0,583.0 L 247.0,552.0 L 261.0,552.0 L 286.0,571.0 L 275.0,625.0 L 250.0,668.0 L 244.0,695.0 L 292.0,822.0 L 291.0,849.0 L 279.0,860.0"/>
    <path d="M 103.0,903.0 L 145.0,917.0 L 235.0,887.0 L 307.0,892.0 L 595.0,989.0 L 733.0,1015.0 L 808.0,1011.0 L 918.0,982.0"/>
  </g>
</svg>
