<svg xmlns="http://www.w3.org/2000/svg" viewBox="0 0 1024 1024">
  <g style="fill:none;stroke:#000000;stroke-width:50;stroke-linecap:round;stroke-linejoin:round;" transform="scale(1, 1) translate(0, 0)">
    <path d="M 404.0,261.0 L 417.0,300.0 L 385.0,395.0 L 383.0,425.0"/>
    <path d="M 449.0,295.0 L 460.0,303.0 L 484.0,301.0 L 598.0,273.0 L 772.0,248.0 L 804.0,265.0 L 813.0,285.0 L 752.0,359.0"/>
    <path d="M 496.0,421.0 L 558.0,424.0 L 677.0,391.0 L 720.0,392.0"/>
    <path d="M 416.0,523.0 L 443.0,543.0 L 451.0,557.0 L 495.0,714.0"/>
    <path d="M 470.0,523.0 L 492.0,531.0 L 710.0,481.0 L 767.0,488.0 L 789.0,517.0 L 760.0,607.0 L 733.0,667.0 L 735.0,689.0"/>
    <path d="M 525.0,604.0 L 572.0,598.0 L 644.0,577.0 L 670.0,574.0 L 688.0,579.0"/>
    <path d="M 514.0,695.0 L 530.0,683.0 L 696.0,651.0"/>
    <path d="M 363.0,816.0 L 409.0,822.0 L 563.0,791.0 L 790.0,758.0 L 839.0,761.0 L 872.0,770.0"/>
    <path d="M 571.0,319.0 L 601.0,342.0 L 612.0,366.0 L 607.0,946.0"/>
    <path d="M 176.0,304.0 L 257.0,365.0 L 277.0,406.0"/>
    <path d="M 85.0,597.0 L 141.0,596.0 L 225.0,564.0 L 240.0,565.0 L 261.0,581.0 L 260.0,603.0 L 216.0,689.0 L 221.0,719.0 L 253.0,775.0 L 262.0,809.0 L 255.0,845.0 L 236.0,868.0"/>
    <path d="M 66.0,896.0 L 116.0,910.0 L 184.0,888.0 L 272.0,890.0 L 609.0,1012.0 L 740.0,1041.0 L 844.0,1028.0 L 947.0,1005.0"/>
  </g>
</svg>
