<svg xmlns="http://www.w3.org/2000/svg" viewBox="0 0 1024 1024">
  <g style="fill:none;stroke:#000000;stroke-width:50;stroke-linecap:round;stroke-linejoin:round;" transform="scale(1, 1) translate(0, 0)">
    <path d="M 457.0,259.0 L 528.0,291.0 L 560.0,326.0"/>
    <path d="M 339.0,478.0 L 417.0,474.0 L 544.0,438.0 L 580.0,439.0"/>
    <path d="M 504.0,546.0 L 518.0,544.0 L 552.0,557.0 L 568.0,571.0 L 576.0,591.0 L 517.0,745.0 L 503.0,769.0 L 473.0,792.0 L 405.0,750.0"/>
    <path d="M 456.0,491.0 L 482.0,516.0 L 452.0,581.0 L 392.0,671.0 L 344.0,728.0 L 313.0,754.0"/>
    <path d="M 673.0,206.0 L 702.0,232.0 L 698.0,261.0 L 656.0,369.0 L 617.0,425.0"/>
    <path d="M 678.0,364.0 L 746.0,360.0 L 831.0,339.0 L 866.0,341.0"/>
    <path d="M 614.0,502.0 L 631.0,508.0 L 662.0,507.0 L 761.0,469.0 L 790.0,469.0 L 805.0,477.0 L 814.0,492.0 L 806.0,506.0 L 747.0,571.0 L 746.0,581.0 L 737.0,583.0"/>
    <path d="M 695.0,589.0 L 726.0,605.0 L 746.0,631.0 L 760.0,733.0 L 751.0,802.0 L 736.0,831.0 L 713.0,852.0 L 632.0,817.0"/>
    <path d="M 601.0,676.0 L 644.0,675.0 L 859.0,630.0 L 896.0,629.0 L 936.0,637.0"/>
    <path d="M 188.0,264.0 L 280.0,327.0 L 306.0,370.0"/>
    <path d="M 77.0,562.0 L 107.0,562.0 L 208.0,525.0 L 241.0,543.0 L 236.0,577.0 L 210.0,641.0 L 216.0,678.0 L 245.0,719.0 L 262.0,764.0 L 260.0,790.0 L 252.0,808.0 L 239.0,819.0"/>
    <path d="M 77.0,857.0 L 128.0,869.0 L 187.0,845.0 L 228.0,838.0 L 278.0,840.0 L 355.0,861.0 L 615.0,953.0 L 757.0,985.0 L 830.0,979.0 L 987.0,944.0"/>
  </g>
</svg>
