<svg xmlns="http://www.w3.org/2000/svg" viewBox="0 0 1024 1024">
  <g style="fill:none;stroke:#000000;stroke-width:50;stroke-linecap:round;stroke-linejoin:round;" transform="scale(1, 1) translate(0, 0)">
    <path d="M 489.0,245.0 L 541.0,287.0 L 558.0,312.0"/>
    <path d="M 718.0,185.0 L 732.0,200.0 L 738.0,219.0 L 643.0,324.0"/>
    <path d="M 396.0,416.0 L 440.0,422.0 L 618.0,386.0 L 776.0,363.0 L 812.0,362.0 L 868.0,374.0"/>
    <path d="M 572.0,418.0 L 592.0,445.0 L 566.0,490.0 L 554.0,502.0 L 541.0,505.0"/>
    <path d="M 467.0,513.0 L 489.0,541.0 L 495.0,570.0 L 495.0,710.0 L 488.0,785.0 L 493.0,854.0"/>
    <path d="M 514.0,526.0 L 540.0,531.0 L 713.0,490.0 L 740.0,506.0 L 755.0,523.0 L 761.0,800.0 L 749.0,833.0 L 717.0,825.0 L 700.0,805.0"/>
    <path d="M 524.0,634.0 L 530.0,624.0 L 602.0,609.0 L 646.0,603.0 L 668.0,609.0"/>
    <path d="M 520.0,723.0 L 552.0,708.0 L 630.0,695.0 L 653.0,694.0 L 675.0,701.0"/>
    <path d="M 517.0,833.0 L 530.0,819.0 L 692.0,800.0"/>
    <path d="M 217.0,273.0 L 290.0,327.0 L 318.0,372.0"/>
    <path d="M 117.0,561.0 L 173.0,559.0 L 263.0,528.0 L 277.0,528.0 L 302.0,547.0 L 297.0,591.0 L 266.0,665.0 L 270.0,701.0 L 302.0,764.0 L 308.0,788.0 L 308.0,812.0 L 287.0,837.0"/>
    <path d="M 102.0,882.0 L 145.0,897.0 L 249.0,864.0 L 332.0,868.0 L 594.0,961.0 L 752.0,995.0 L 824.0,991.0 L 914.0,966.0"/>
  </g>
</svg>
