<svg xmlns="http://www.w3.org/2000/svg" viewBox="0 0 1024 1024">
  <g style="fill:none;stroke:#000000;stroke-width:50;stroke-linecap:round;stroke-linejoin:round;" transform="scale(1, 1) translate(0, 0)">
    <path d="M 500.0,331.0 L 522.0,336.0 L 574.0,330.0 L 713.0,291.0 L 760.0,289.0"/>
    <path d="M 597.0,173.0 L 634.0,208.0 L 622.0,389.0 L 607.0,406.0"/>
    <path d="M 376.0,461.0 L 413.0,466.0 L 611.0,425.0 L 807.0,394.0 L 886.0,405.0"/>
    <path d="M 521.0,484.0 L 547.0,526.0 L 550.0,544.0"/>
    <path d="M 680.0,438.0 L 701.0,462.0 L 664.0,539.0 L 644.0,557.0"/>
    <path d="M 447.0,603.0 L 501.0,607.0 L 714.0,560.0 L 753.0,556.0 L 784.0,561.0"/>
    <path d="M 492.0,697.0 L 523.0,696.0 L 693.0,655.0 L 730.0,651.0 L 751.0,657.0"/>
    <path d="M 429.0,796.0 L 473.0,796.0 L 550.0,778.0 L 761.0,744.0 L 807.0,746.0 L 835.0,754.0"/>
    <path d="M 592.0,609.0 L 622.0,635.0 L 619.0,928.0"/>
    <path d="M 224.0,277.0 L 301.0,337.0 L 318.0,372.0"/>
    <path d="M 109.0,558.0 L 161.0,553.0 L 246.0,521.0 L 265.0,526.0 L 280.0,541.0 L 265.0,594.0 L 242.0,632.0 L 238.0,650.0 L 241.0,669.0 L 276.0,728.0 L 288.0,760.0 L 281.0,807.0 L 262.0,826.0"/>
    <path d="M 91.0,852.0 L 142.0,867.0 L 215.0,846.0 L 260.0,846.0 L 311.0,857.0 L 600.0,973.0 L 737.0,1013.0 L 809.0,1008.0 L 962.0,983.0"/>
  </g>
</svg>
