<svg xmlns="http://www.w3.org/2000/svg" viewBox="0 0 1024 1024">
  <g style="fill:none;stroke:#000000;stroke-width:50;stroke-linecap:round;stroke-linejoin:round;" transform="scale(1, 1) translate(0, 0)">
    <path d="M 318.0,345.0 L 345.0,355.0 L 360.0,354.0 L 462.0,321.0 L 469.0,314.0 L 502.0,310.0 L 524.0,317.0 L 540.0,334.0 L 538.0,340.0 L 461.0,442.0"/>
    <path d="M 423.0,440.0 L 452.0,478.0 L 477.0,582.0 L 479.0,692.0 L 471.0,774.0 L 461.0,804.0 L 446.0,824.0 L 364.0,787.0"/>
    <path d="M 302.0,671.0 L 345.0,667.0 L 430.0,598.0 L 527.0,530.0 L 556.0,499.0"/>
    <path d="M 869.0,235.0 L 812.0,220.0 L 732.0,261.0 L 670.0,283.0 L 652.0,282.0 L 633.0,290.0 L 626.0,286.0 L 615.0,295.0"/>
    <path d="M 691.0,293.0 L 706.0,308.0 L 710.0,325.0 L 627.0,436.0 L 617.0,466.0 L 637.0,473.0 L 674.0,472.0 L 725.0,460.0"/>
    <path d="M 801.0,359.0 L 811.0,379.0 L 812.0,398.0 L 730.0,488.0 L 649.0,560.0 L 639.0,572.0 L 632.0,598.0 L 670.0,599.0 L 794.0,564.0 L 807.0,565.0 L 811.0,571.0"/>
    <path d="M 806.0,512.0 L 852.0,568.0 L 864.0,592.0"/>
    <path d="M 704.0,609.0 L 722.0,623.0 L 735.0,652.0 L 739.0,789.0 L 731.0,837.0 L 718.0,858.0 L 686.0,845.0 L 638.0,813.0"/>
    <path d="M 610.0,693.0 L 600.0,742.0 L 563.0,825.0"/>
    <path d="M 806.0,688.0 L 881.0,763.0 L 898.0,817.0"/>
    <path d="M 146.0,321.0 L 222.0,369.0 L 235.0,381.0 L 253.0,416.0"/>
    <path d="M 74.0,593.0 L 102.0,597.0 L 211.0,567.0 L 221.0,567.0 L 245.0,587.0 L 241.0,623.0 L 205.0,710.0 L 210.0,731.0 L 253.0,813.0 L 252.0,846.0 L 237.0,865.0"/>
    <path d="M 61.0,900.0 L 113.0,914.0 L 162.0,894.0 L 206.0,886.0 L 287.0,892.0 L 599.0,991.0 L 742.0,1020.0 L 810.0,1011.0 L 970.0,973.0"/>
  </g>
</svg>
