<svg xmlns="http://www.w3.org/2000/svg" viewBox="0 0 1024 1024">
  <g style="fill:none;stroke:#000000;stroke-width:50;stroke-linecap:round;stroke-linejoin:round;" transform="scale(1, 1) translate(0, 0)">
    <path d="M 610.0,204.0 L 581.0,208.0 L 533.0,262.0 L 490.0,298.0 L 452.0,324.0 L 402.0,347.0"/>
    <path d="M 562.0,270.0 L 654.0,263.0 L 693.0,254.0 L 713.0,254.0 L 744.0,268.0 L 720.0,306.0 L 693.0,332.0 L 589.0,412.0 L 461.0,488.0 L 352.0,531.0"/>
    <path d="M 551.0,321.0 L 580.0,349.0 L 589.0,367.0"/>
    <path d="M 450.0,363.0 L 478.0,395.0 L 488.0,416.0"/>
    <path d="M 511.0,493.0 L 510.0,512.0 L 466.0,583.0 L 417.0,631.0 L 390.0,648.0"/>
    <path d="M 511.0,565.0 L 589.0,558.0 L 729.0,520.0 L 766.0,521.0"/>
    <path d="M 356.0,716.0 L 408.0,721.0 L 535.0,692.0 L 811.0,650.0 L 848.0,650.0 L 905.0,662.0"/>
    <path d="M 594.0,580.0 L 621.0,606.0 L 624.0,644.0 L 621.0,806.0 L 617.0,820.0 L 604.0,830.0"/>
    <path d="M 446.0,772.0 L 466.0,808.0 L 457.0,854.0 L 457.0,881.0 L 466.0,884.0 L 484.0,887.0 L 707.0,833.0 L 763.0,827.0 L 783.0,840.0"/>
    <path d="M 760.0,744.0 L 819.0,852.0 L 826.0,886.0 L 823.0,918.0"/>
    <path d="M 181.0,280.0 L 268.0,335.0 L 293.0,376.0"/>
    <path d="M 89.0,602.0 L 139.0,597.0 L 227.0,565.0 L 241.0,570.0 L 256.0,586.0 L 247.0,622.0 L 215.0,680.0 L 203.0,718.0 L 213.0,752.0 L 234.0,782.0 L 254.0,838.0 L 245.0,880.0 L 232.0,892.0"/>
    <path d="M 67.0,922.0 L 115.0,934.0 L 189.0,911.0 L 268.0,913.0 L 624.0,1019.0 L 752.0,1042.0 L 837.0,1031.0 L 958.0,998.0"/>
  </g>
</svg>
