<svg xmlns="http://www.w3.org/2000/svg" viewBox="0 0 1024 1024">
  <g style="fill:none;stroke:#000000;stroke-width:50;stroke-linecap:round;stroke-linejoin:round;" transform="scale(1, 1) translate(0, 0)">
    <path d="M 517.0,190.0 L 537.0,226.0 L 441.0,314.0 L 441.0,322.0"/>
    <path d="M 373.0,308.0 L 412.0,340.0 L 421.0,412.0 L 421.0,512.0 L 453.0,504.0 L 536.0,441.0"/>
    <path d="M 517.0,383.0 L 564.0,433.0 L 583.0,472.0"/>
    <path d="M 595.0,307.0 L 652.0,311.0 L 817.0,274.0 L 835.0,280.0 L 849.0,295.0 L 826.0,427.0 L 792.0,494.0 L 773.0,509.0 L 704.0,469.0"/>
    <path d="M 670.0,332.0 L 691.0,354.0 L 679.0,389.0 L 627.0,487.0 L 569.0,551.0"/>
    <path d="M 407.0,628.0 L 429.0,646.0 L 440.0,668.0 L 480.0,870.0"/>
    <path d="M 455.0,631.0 L 474.0,640.0 L 655.0,607.0 L 724.0,599.0 L 774.0,605.0 L 800.0,635.0 L 762.0,787.0 L 745.0,830.0 L 747.0,856.0"/>
    <path d="M 517.0,740.0 L 649.0,713.0 L 691.0,718.0"/>
    <path d="M 578.0,640.0 L 602.0,662.0 L 601.0,798.0 L 587.0,812.0"/>
    <path d="M 494.0,855.0 L 518.0,844.0 L 592.0,838.0 L 709.0,818.0"/>
    <path d="M 175.0,277.0 L 268.0,332.0 L 292.0,368.0"/>
    <path d="M 86.0,565.0 L 126.0,565.0 L 222.0,535.0 L 239.0,537.0 L 263.0,554.0 L 253.0,612.0 L 228.0,670.0 L 234.0,701.0 L 268.0,766.0 L 277.0,803.0 L 273.0,827.0 L 256.0,844.0"/>
    <path d="M 84.0,891.0 L 128.0,904.0 L 218.0,870.0 L 294.0,871.0 L 579.0,964.0 L 718.0,993.0 L 800.0,995.0 L 891.0,975.0 L 920.0,963.0"/>
  </g>
</svg>
