<svg xmlns="http://www.w3.org/2000/svg" viewBox="0 0 1024 1024">
  <g style="fill:none;stroke:#000000;stroke-width:50;stroke-linecap:round;stroke-linejoin:round;" transform="scale(1, 1) translate(0, 0)">
    <path d="M 573.0,201.0 L 648.0,255.0 L 669.0,282.0"/>
    <path d="M 493.0,415.0 L 505.0,400.0 L 568.0,383.0 L 736.0,347.0 L 781.0,342.0 L 808.0,347.0"/>
    <path d="M 427.0,372.0 L 456.0,400.0 L 460.0,422.0 L 460.0,480.0 L 447.0,574.0 L 428.0,657.0 L 406.0,717.0 L 360.0,799.0 L 336.0,826.0"/>
    <path d="M 491.0,563.0 L 542.0,568.0 L 788.0,514.0 L 840.0,517.0"/>
    <path d="M 535.0,467.0 L 554.0,473.0 L 573.0,490.0 L 594.0,702.0"/>
    <path d="M 700.0,412.0 L 731.0,447.0 L 703.0,606.0 L 687.0,624.0"/>
    <path d="M 609.0,681.0 L 622.0,667.0 L 671.0,654.0 L 715.0,649.0 L 736.0,656.0"/>
    <path d="M 490.0,742.0 L 478.0,794.0 L 444.0,872.0"/>
    <path d="M 571.0,754.0 L 595.0,794.0 L 608.0,841.0"/>
    <path d="M 669.0,742.0 L 704.0,796.0 L 713.0,822.0"/>
    <path d="M 763.0,716.0 L 854.0,801.0 L 870.0,828.0 L 876.0,859.0"/>
    <path d="M 217.0,257.0 L 305.0,320.0 L 326.0,358.0"/>
    <path d="M 81.0,582.0 L 129.0,579.0 L 246.0,530.0 L 260.0,530.0 L 286.0,548.0 L 275.0,601.0 L 250.0,646.0 L 244.0,674.0 L 289.0,788.0 L 285.0,834.0 L 266.0,852.0"/>
    <path d="M 87.0,890.0 L 131.0,906.0 L 227.0,878.0 L 302.0,881.0 L 587.0,972.0 L 724.0,998.0 L 804.0,1001.0 L 862.0,989.0 L 931.0,965.0"/>
  </g>
</svg>
