<svg xmlns="http://www.w3.org/2000/svg" viewBox="0 0 1024 1024">
  <g style="fill:none;stroke:#000000;stroke-width:50;stroke-linecap:round;stroke-linejoin:round;" transform="scale(1, 1) translate(0, 0)">
    <path d="M 437.0,319.0 L 472.0,325.0 L 520.0,321.0 L 715.0,277.0 L 772.0,274.0"/>
    <path d="M 375.0,421.0 L 409.0,459.0 L 444.0,622.0"/>
    <path d="M 411.0,419.0 L 450.0,426.0 L 712.0,376.0 L 755.0,374.0 L 794.0,384.0 L 814.0,408.0 L 812.0,419.0 L 770.0,570.0 L 763.0,584.0 L 746.0,589.0"/>
    <path d="M 476.0,510.0 L 517.0,508.0 L 671.0,479.0 L 716.0,482.0"/>
    <path d="M 494.0,233.0 L 530.0,274.0 L 544.0,550.0 L 532.0,570.0"/>
    <path d="M 630.0,180.0 L 667.0,214.0 L 640.0,517.0 L 633.0,544.0 L 622.0,553.0"/>
    <path d="M 460.0,610.0 L 479.0,598.0 L 680.0,566.0 L 728.0,567.0"/>
    <path d="M 472.0,669.0 L 485.0,681.0 L 496.0,705.0 L 498.0,808.0 L 492.0,865.0 L 497.0,908.0"/>
    <path d="M 517.0,678.0 L 527.0,686.0 L 679.0,650.0 L 714.0,674.0 L 722.0,841.0 L 709.0,892.0 L 713.0,939.0"/>
    <path d="M 521.0,790.0 L 532.0,782.0 L 592.0,768.0 L 640.0,772.0"/>
    <path d="M 518.0,890.0 L 538.0,878.0 L 628.0,865.0 L 669.0,866.0"/>
    <path d="M 198.0,265.0 L 277.0,314.0 L 304.0,353.0"/>
    <path d="M 90.0,574.0 L 118.0,576.0 L 145.0,570.0 L 237.0,534.0 L 264.0,535.0 L 286.0,552.0 L 283.0,586.0 L 243.0,666.0 L 239.0,700.0 L 244.0,728.0 L 284.0,814.0 L 289.0,850.0 L 276.0,866.0"/>
    <path d="M 96.0,912.0 L 137.0,925.0 L 232.0,892.0 L 296.0,893.0 L 600.0,995.0 L 740.0,1022.0 L 802.0,1024.0 L 871.0,1010.0 L 917.0,993.0"/>
  </g>
</svg>
