<svg xmlns="http://www.w3.org/2000/svg" viewBox="0 0 1024 1024">
  <g style="fill:none;stroke:#000000;stroke-width:50;stroke-linecap:round;stroke-linejoin:round;" transform="scale(1, 1) translate(0, 0)">
    <path d="M 446.0,186.0 L 468.0,215.0 L 463.0,236.0 L 411.0,327.0 L 341.0,402.0"/>
    <path d="M 436.0,327.0 L 510.0,310.0 L 549.0,320.0 L 498.0,419.0 L 478.0,438.0"/>
    <path d="M 340.0,461.0 L 361.0,479.0 L 368.0,494.0 L 368.0,613.0 L 362.0,662.0 L 343.0,729.0 L 318.0,787.0 L 301.0,807.0"/>
    <path d="M 381.0,462.0 L 404.0,471.0 L 528.0,440.0 L 554.0,443.0 L 572.0,457.0 L 577.0,469.0 L 581.0,788.0 L 566.0,815.0 L 500.0,784.0"/>
    <path d="M 410.0,581.0 L 494.0,560.0 L 529.0,563.0"/>
    <path d="M 397.0,673.0 L 492.0,653.0 L 522.0,650.0 L 537.0,655.0"/>
    <path d="M 441.0,479.0 L 464.0,493.0 L 468.0,502.0 L 463.0,787.0"/>
    <path d="M 620.0,314.0 L 658.0,318.0 L 794.0,282.0 L 832.0,276.0 L 847.0,282.0 L 856.0,293.0 L 849.0,363.0 L 835.0,420.0 L 820.0,446.0 L 797.0,463.0 L 747.0,436.0"/>
    <path d="M 697.0,327.0 L 711.0,338.0 L 717.0,353.0 L 708.0,382.0 L 662.0,459.0 L 629.0,492.0"/>
    <path d="M 650.0,525.0 L 664.0,539.0 L 666.0,556.0 L 644.0,604.0 L 604.0,648.0"/>
    <path d="M 671.0,604.0 L 792.0,587.0 L 838.0,572.0 L 875.0,574.0"/>
    <path d="M 628.0,713.0 L 661.0,714.0 L 846.0,686.0 L 903.0,688.0 L 931.0,698.0"/>
    <path d="M 730.0,505.0 L 758.0,532.0 L 760.0,549.0 L 759.0,908.0"/>
    <path d="M 170.0,289.0 L 245.0,339.0 L 270.0,377.0"/>
    <path d="M 82.0,570.0 L 120.0,569.0 L 202.0,535.0 L 229.0,536.0 L 249.0,551.0 L 240.0,600.0 L 219.0,650.0 L 224.0,688.0 L 253.0,743.0 L 261.0,777.0 L 254.0,806.0 L 242.0,813.0"/>
    <path d="M 84.0,856.0 L 125.0,869.0 L 203.0,841.0 L 280.0,843.0 L 562.0,942.0 L 719.0,978.0 L 805.0,983.0 L 875.0,969.0 L 920.0,953.0"/>
  </g>
</svg>
