<svg xmlns="http://www.w3.org/2000/svg" viewBox="0 0 1024 1024">
  <g style="fill:none;stroke:#000000;stroke-width:50;stroke-linecap:round;stroke-linejoin:round;" transform="scale(1, 1) translate(0, 0)">
    <path d="M 201.0,333.0 L 262.0,337.0 L 447.0,294.0 L 485.0,294.0"/>
    <path d="M 92.0,580.0 L 124.0,589.0 L 153.0,588.0 L 430.0,518.0 L 490.0,510.0 L 514.0,514.0"/>
    <path d="M 325.0,353.0 L 348.0,367.0 L 357.0,386.0 L 335.0,839.0 L 347.0,931.0"/>
    <path d="M 633.0,317.0 L 645.0,313.0 L 654.0,320.0 L 749.0,286.0 L 785.0,281.0 L 814.0,306.0 L 768.0,395.0 L 746.0,458.0 L 813.0,518.0 L 844.0,558.0 L 862.0,595.0 L 867.0,648.0 L 854.0,680.0 L 839.0,696.0 L 697.0,661.0"/>
    <path d="M 569.0,308.0 L 607.0,334.0 L 616.0,370.0 L 615.0,1069.0"/>
  </g>
</svg>
