<svg xmlns="http://www.w3.org/2000/svg" viewBox="0 0 1024 1024">
  <g style="fill:none;stroke:#000000;stroke-width:50;stroke-linecap:round;stroke-linejoin:round;" transform="scale(1, 1) translate(0, 0)">
    <path d="M 177.0,317.0 L 237.0,322.0 L 354.0,300.0 L 451.0,273.0 L 495.0,276.0"/>
    <path d="M 68.0,568.0 L 123.0,578.0 L 444.0,499.0 L 496.0,489.0 L 538.0,494.0"/>
    <path d="M 313.0,337.0 L 342.0,357.0 L 351.0,375.0 L 351.0,867.0 L 344.0,891.0 L 328.0,915.0 L 282.0,902.0 L 216.0,870.0"/>
    <path d="M 644.0,365.0 L 663.0,371.0 L 741.0,338.0 L 783.0,327.0 L 799.0,327.0 L 821.0,351.0 L 768.0,452.0 L 747.0,511.0 L 759.0,529.0 L 830.0,587.0 L 868.0,639.0 L 883.0,683.0 L 881.0,725.0 L 872.0,747.0 L 856.0,764.0 L 722.0,735.0"/>
    <path d="M 572.0,352.0 L 603.0,375.0 L 614.0,395.0 L 617.0,421.0 L 607.0,1100.0"/>
  </g>
</svg>
