<svg xmlns="http://www.w3.org/2000/svg" viewBox="0 0 1024 1024">
  <g style="fill:none;stroke:#000000;stroke-width:50;stroke-linecap:round;stroke-linejoin:round;" transform="scale(1, 1) translate(0, 0)">
    <path d="M 183.0,307.0 L 238.0,313.0 L 415.0,269.0 L 444.0,273.0 L 473.0,300.0 L 452.0,620.0 L 442.0,696.0 L 422.0,761.0 L 401.0,793.0 L 385.0,805.0 L 286.0,757.0"/>
    <path d="M 148.0,458.0 L 217.0,460.0 L 348.0,432.0 L 379.0,435.0"/>
    <path d="M 93.0,602.0 L 149.0,608.0 L 302.0,570.0 L 362.0,562.0 L 383.0,566.0"/>
    <path d="M 254.0,335.0 L 281.0,350.0 L 290.0,363.0 L 275.0,492.0 L 254.0,598.0 L 217.0,704.0 L 180.0,779.0 L 116.0,869.0 L 96.0,887.0"/>
    <path d="M 647.0,316.0 L 657.0,300.0 L 762.0,263.0 L 793.0,261.0 L 816.0,282.0 L 819.0,287.0 L 806.0,318.0 L 757.0,414.0 L 744.0,467.0 L 830.0,560.0 L 871.0,650.0 L 872.0,702.0 L 858.0,737.0 L 835.0,764.0 L 703.0,720.0"/>
    <path d="M 566.0,276.0 L 585.0,286.0 L 604.0,307.0 L 610.0,357.0 L 603.0,1068.0"/>
  </g>
</svg>
