<svg xmlns="http://www.w3.org/2000/svg" viewBox="0 0 1024 1024">
  <g style="fill:none;stroke:#000000;stroke-width:50;stroke-linecap:round;stroke-linejoin:round;" transform="scale(1, 1) translate(0, 0)">
    <path d="M 256.0,317.0 L 273.0,341.0 L 278.0,362.0 L 245.0,410.0 L 152.0,512.0 L 77.0,568.0"/>
    <path d="M 351.0,254.0 L 519.0,394.0 L 545.0,425.0 L 559.0,463.0"/>
    <path d="M 193.0,591.0 L 250.0,593.0 L 444.0,536.0 L 470.0,540.0 L 485.0,556.0 L 465.0,712.0 L 445.0,789.0 L 425.0,833.0 L 402.0,861.0 L 388.0,869.0 L 312.0,829.0"/>
    <path d="M 283.0,611.0 L 309.0,629.0 L 288.0,700.0 L 254.0,768.0 L 209.0,831.0 L 178.0,863.0 L 121.0,911.0 L 79.0,936.0"/>
    <path d="M 684.0,391.0 L 703.0,396.0 L 763.0,368.0 L 825.0,351.0 L 852.0,375.0 L 784.0,498.0 L 775.0,531.0 L 849.0,598.0 L 889.0,651.0 L 908.0,696.0 L 906.0,747.0 L 882.0,784.0 L 786.0,750.0 L 762.0,736.0"/>
    <path d="M 618.0,380.0 L 654.0,409.0 L 661.0,436.0 L 655.0,1088.0"/>
  </g>
</svg>
