<svg xmlns="http://www.w3.org/2000/svg" viewBox="0 0 1024 1024">
  <g style="fill:none;stroke:#000000;stroke-width:50;stroke-linecap:round;stroke-linejoin:round;" transform="scale(1, 1) translate(0, 0)">
    <path d="M 325.0,207.0 L 424.0,258.0 L 455.0,298.0"/>
    <path d="M 112.0,481.0 L 140.0,488.0 L 191.0,484.0 L 477.0,409.0 L 539.0,409.0"/>
    <path d="M 381.0,569.0 L 397.0,555.0 L 448.0,563.0 L 470.0,573.0 L 487.0,597.0 L 442.0,761.0 L 419.0,813.0 L 401.0,838.0 L 368.0,859.0 L 282.0,776.0"/>
    <path d="M 333.0,476.0 L 359.0,493.0 L 363.0,503.0 L 312.0,628.0 L 235.0,746.0 L 180.0,805.0 L 138.0,838.0"/>
    <path d="M 655.0,358.0 L 669.0,367.0 L 748.0,338.0 L 801.0,328.0 L 827.0,354.0 L 769.0,471.0 L 758.0,510.0 L 811.0,556.0 L 864.0,623.0 L 885.0,680.0 L 882.0,724.0 L 857.0,764.0 L 730.0,724.0"/>
    <path d="M 581.0,348.0 L 605.0,361.0 L 625.0,391.0 L 623.0,1048.0"/>
  </g>
</svg>
