<svg xmlns="http://www.w3.org/2000/svg" viewBox="0 0 1024 1024">
  <g style="fill:none;stroke:#000000;stroke-width:50;stroke-linecap:round;stroke-linejoin:round;" transform="scale(1, 1) translate(0, 0)">
    <path d="M 98.0,501.0 L 122.0,519.0 L 145.0,553.0 L 178.0,798.0 L 194.0,858.0"/>
    <path d="M 155.0,512.0 L 181.0,521.0 L 435.0,468.0 L 478.0,474.0 L 503.0,494.0 L 512.0,509.0 L 473.0,756.0 L 457.0,809.0 L 437.0,815.0"/>
    <path d="M 225.0,668.0 L 372.0,638.0 L 415.0,642.0"/>
    <path d="M 276.0,229.0 L 327.0,268.0 L 330.0,307.0 L 326.0,748.0 L 324.0,771.0 L 308.0,789.0"/>
    <path d="M 213.0,840.0 L 225.0,827.0 L 390.0,799.0 L 428.0,782.0"/>
    <path d="M 649.0,364.0 L 667.0,374.0 L 760.0,342.0 L 792.0,340.0 L 801.0,341.0 L 824.0,365.0 L 772.0,474.0 L 752.0,535.0 L 767.0,552.0 L 823.0,591.0 L 873.0,653.0 L 889.0,698.0 L 889.0,742.0 L 864.0,784.0 L 825.0,777.0 L 726.0,743.0"/>
    <path d="M 580.0,364.0 L 614.0,388.0 L 625.0,417.0 L 615.0,1065.0"/>
  </g>
</svg>
