<svg xmlns="http://www.w3.org/2000/svg" viewBox="0 0 1024 1024">
  <g style="fill:none;stroke:#000000;stroke-width:50;stroke-linecap:round;stroke-linejoin:round;" transform="scale(1, 1) translate(0, 0)">
    <path d="M 235.0,289.0 L 255.0,299.0 L 277.0,323.0 L 280.0,351.0 L 285.0,586.0 L 277.0,764.0"/>
    <path d="M 106.0,507.0 L 136.0,509.0 L 175.0,502.0 L 243.0,481.0 L 255.0,471.0"/>
    <path d="M 73.0,740.0 L 122.0,742.0 L 234.0,672.0 L 242.0,672.0 L 251.0,650.0"/>
    <path d="M 548.0,426.0 L 501.0,423.0 L 455.0,434.0 L 445.0,447.0"/>
    <path d="M 381.0,232.0 L 398.0,243.0 L 419.0,273.0 L 414.0,662.0 L 425.0,705.0 L 471.0,679.0 L 555.0,600.0"/>
    <path d="M 662.0,308.0 L 670.0,304.0 L 684.0,311.0 L 757.0,283.0 L 797.0,277.0 L 826.0,302.0 L 764.0,427.0 L 756.0,466.0 L 769.0,485.0 L 819.0,527.0 L 859.0,579.0 L 878.0,628.0 L 876.0,684.0 L 865.0,706.0 L 846.0,724.0 L 730.0,680.0"/>
    <path d="M 591.0,296.0 L 632.0,327.0 L 638.0,356.0 L 631.0,1045.0"/>
  </g>
</svg>
