<svg xmlns="http://www.w3.org/2000/svg" viewBox="0 0 1024 1024">
  <g style="fill:none;stroke:#000000;stroke-width:50;stroke-linecap:round;stroke-linejoin:round;" transform="scale(1, 1) translate(0, 0)">
    <path d="M 192.0,336.0 L 263.0,338.0 L 425.0,290.0 L 472.0,284.0 L 485.0,290.0"/>
    <path d="M 96.0,502.0 L 124.0,525.0 L 132.0,563.0 L 132.0,669.0 L 120.0,755.0 L 118.0,821.0"/>
    <path d="M 156.0,508.0 L 175.0,517.0 L 268.0,486.0 L 448.0,449.0 L 478.0,457.0 L 493.0,472.0 L 495.0,702.0 L 490.0,751.0 L 479.0,773.0 L 391.0,753.0"/>
    <path d="M 283.0,362.0 L 307.0,379.0 L 316.0,398.0 L 304.0,516.0 L 289.0,579.0 L 247.0,650.0 L 208.0,686.0 L 175.0,705.0"/>
    <path d="M 318.0,575.0 L 334.0,595.0 L 389.0,628.0 L 409.0,660.0"/>
    <path d="M 669.0,375.0 L 677.0,357.0 L 788.0,316.0 L 807.0,317.0 L 830.0,339.0 L 773.0,455.0 L 762.0,494.0 L 813.0,540.0 L 855.0,594.0 L 873.0,631.0 L 882.0,693.0 L 868.0,727.0 L 852.0,744.0 L 734.0,704.0"/>
    <path d="M 589.0,343.0 L 628.0,373.0 L 633.0,396.0 L 623.0,1064.0"/>
  </g>
</svg>
