<svg xmlns="http://www.w3.org/2000/svg" viewBox="0 0 1024 1024">
  <g style="fill:none;stroke:#000000;stroke-width:50;stroke-linecap:round;stroke-linejoin:round;" transform="scale(1, 1) translate(0, 0)">
    <path d="M 185.0,313.0 L 244.0,319.0 L 461.0,271.0 L 490.0,289.0 L 479.0,388.0 L 464.0,445.0 L 443.0,488.0 L 412.0,518.0 L 336.0,480.0"/>
    <path d="M 288.0,331.0 L 312.0,356.0 L 254.0,488.0 L 187.0,583.0 L 126.0,637.0 L 102.0,651.0"/>
    <path d="M 186.0,654.0 L 213.0,676.0 L 220.0,692.0 L 264.0,902.0"/>
    <path d="M 243.0,657.0 L 261.0,664.0 L 414.0,626.0 L 443.0,635.0 L 467.0,657.0 L 438.0,758.0 L 413.0,777.0"/>
    <path d="M 279.0,846.0 L 294.0,829.0 L 403.0,806.0 L 455.0,803.0 L 478.0,811.0"/>
    <path d="M 648.0,349.0 L 663.0,346.0 L 676.0,351.0 L 756.0,323.0 L 796.0,316.0 L 826.0,342.0 L 765.0,455.0 L 751.0,503.0 L 816.0,563.0 L 856.0,617.0 L 876.0,665.0 L 876.0,719.0 L 868.0,740.0 L 847.0,764.0 L 726.0,724.0"/>
    <path d="M 584.0,340.0 L 610.0,355.0 L 628.0,382.0 L 619.0,1077.0"/>
  </g>
</svg>
