<svg xmlns="http://www.w3.org/2000/svg" viewBox="0 0 1024 1024">
  <g style="fill:none;stroke:#000000;stroke-width:50;stroke-linecap:round;stroke-linejoin:round;" transform="scale(1, 1) translate(0, 0)">
    <path d="M 325.0,201.0 L 354.0,240.0 L 343.0,265.0 L 291.0,356.0 L 188.0,498.0 L 167.0,550.0 L 204.0,553.0 L 399.0,496.0 L 443.0,486.0 L 475.0,487.0"/>
    <path d="M 435.0,402.0 L 507.0,480.0 L 523.0,526.0"/>
    <path d="M 174.0,671.0 L 195.0,686.0 L 209.0,708.0 L 260.0,922.0"/>
    <path d="M 224.0,667.0 L 234.0,676.0 L 251.0,677.0 L 410.0,636.0 L 442.0,642.0 L 467.0,665.0 L 440.0,762.0 L 420.0,776.0"/>
    <path d="M 272.0,849.0 L 283.0,835.0 L 409.0,805.0 L 472.0,810.0"/>
    <path d="M 624.0,351.0 L 642.0,360.0 L 738.0,321.0 L 771.0,317.0 L 804.0,343.0 L 752.0,453.0 L 734.0,514.0 L 786.0,561.0 L 846.0,640.0 L 863.0,690.0 L 864.0,727.0 L 852.0,760.0 L 831.0,784.0 L 711.0,740.0"/>
    <path d="M 556.0,353.0 L 589.0,378.0 L 602.0,418.0 L 599.0,1061.0"/>
  </g>
</svg>
