<svg xmlns="http://www.w3.org/2000/svg" viewBox="0 0 1024 1024">
  <g style="fill:none;stroke:#000000;stroke-width:50;stroke-linecap:round;stroke-linejoin:round;" transform="scale(1, 1) translate(0, 0)">
    <path d="M 166.0,378.0 L 239.0,384.0 L 311.0,373.0 L 438.0,342.0 L 531.0,332.0"/>
    <path d="M 335.0,179.0 L 358.0,191.0 L 377.0,216.0 L 312.0,403.0 L 272.0,492.0 L 221.0,580.0 L 162.0,655.0 L 98.0,719.0 L 48.0,756.0"/>
    <path d="M 294.0,503.0 L 288.0,700.0 L 260.0,877.0"/>
    <path d="M 311.0,502.0 L 324.0,510.0 L 337.0,508.0 L 439.0,475.0 L 456.0,481.0 L 477.0,504.0 L 481.0,828.0 L 474.0,865.0 L 460.0,885.0 L 445.0,883.0 L 358.0,846.0"/>
    <path d="M 314.0,622.0 L 328.0,610.0 L 358.0,603.0 L 400.0,605.0"/>
    <path d="M 308.0,729.0 L 320.0,719.0 L 371.0,709.0 L 412.0,713.0"/>
    <path d="M 658.0,326.0 L 673.0,335.0 L 763.0,304.0 L 804.0,300.0 L 819.0,307.0 L 835.0,326.0 L 776.0,441.0 L 757.0,494.0 L 811.0,541.0 L 856.0,595.0 L 882.0,643.0 L 889.0,704.0 L 879.0,736.0 L 860.0,759.0 L 730.0,723.0"/>
    <path d="M 581.0,316.0 L 606.0,330.0 L 627.0,360.0 L 627.0,1081.0"/>
  </g>
</svg>
