<svg xmlns="http://www.w3.org/2000/svg" viewBox="0 0 1024 1024">
  <g style="fill:none;stroke:#000000;stroke-width:50;stroke-linecap:round;stroke-linejoin:round;" transform="scale(1, 1) translate(0, 0)">
    <path d="M 485.0,231.0 L 446.0,232.0 L 410.0,303.0 L 352.0,380.0 L 276.0,453.0 L 231.0,485.0 L 203.0,496.0 L 200.0,504.0"/>
    <path d="M 249.0,275.0 L 436.0,365.0 L 473.0,392.0 L 493.0,419.0"/>
    <path d="M 130.0,609.0 L 180.0,615.0 L 460.0,554.0 L 504.0,551.0 L 535.0,556.0"/>
    <path d="M 330.0,455.0 L 340.0,463.0 L 356.0,499.0 L 332.0,563.0 L 288.0,648.0 L 199.0,777.0 L 132.0,850.0 L 87.0,886.0"/>
    <path d="M 369.0,655.0 L 394.0,689.0 L 355.0,770.0 L 319.0,827.0 L 307.0,836.0 L 293.0,880.0 L 336.0,879.0 L 451.0,844.0 L 469.0,848.0"/>
    <path d="M 440.0,756.0 L 510.0,839.0 L 526.0,874.0 L 528.0,901.0"/>
    <path d="M 658.0,387.0 L 665.0,369.0 L 776.0,328.0 L 795.0,328.0 L 818.0,350.0 L 753.0,485.0 L 749.0,511.0 L 799.0,557.0 L 847.0,626.0 L 865.0,684.0 L 860.0,725.0 L 831.0,763.0 L 710.0,724.0"/>
    <path d="M 576.0,357.0 L 600.0,370.0 L 616.0,387.0 L 622.0,410.0 L 619.0,1061.0"/>
  </g>
</svg>
