<svg xmlns="http://www.w3.org/2000/svg" viewBox="0 0 1024 1024">
  <g style="fill:none;stroke:#000000;stroke-width:50;stroke-linecap:round;stroke-linejoin:round;" transform="scale(1, 1) translate(0, 0)">
    <path d="M 333.0,176.0 L 428.0,228.0 L 458.0,269.0"/>
    <path d="M 129.0,404.0 L 181.0,413.0 L 468.0,348.0 L 526.0,351.0"/>
    <path d="M 308.0,478.0 L 276.0,489.0 L 212.0,582.0 L 157.0,633.0 L 125.0,652.0"/>
    <path d="M 421.0,451.0 L 491.0,492.0 L 521.0,529.0"/>
    <path d="M 405.0,572.0 L 422.0,602.0 L 420.0,619.0 L 381.0,697.0 L 341.0,752.0 L 312.0,786.0 L 245.0,843.0 L 183.0,883.0 L 124.0,909.0"/>
    <path d="M 254.0,643.0 L 303.0,669.0 L 448.0,767.0 L 481.0,801.0 L 498.0,840.0"/>
    <path d="M 654.0,347.0 L 662.0,355.0 L 683.0,354.0 L 769.0,323.0 L 811.0,317.0 L 840.0,344.0 L 763.0,476.0 L 749.0,522.0 L 822.0,598.0 L 856.0,651.0 L 873.0,709.0 L 868.0,751.0 L 852.0,782.0 L 834.0,793.0 L 733.0,739.0 L 710.0,721.0"/>
    <path d="M 581.0,340.0 L 601.0,350.0 L 626.0,384.0 L 623.0,1080.0"/>
  </g>
</svg>
