<svg xmlns="http://www.w3.org/2000/svg" viewBox="0 0 1024 1024">
  <g style="fill:none;stroke:#000000;stroke-width:50;stroke-linecap:round;stroke-linejoin:round;" transform="scale(1, 1) translate(0, 0)">
    <path d="M 349.0,190.0 L 365.0,205.0 L 382.0,237.0 L 334.0,324.0 L 288.0,396.0 L 202.0,507.0 L 125.0,591.0 L 71.0,635.0"/>
    <path d="M 387.0,302.0 L 401.0,299.0 L 480.0,341.0 L 520.0,375.0 L 532.0,399.0"/>
    <path d="M 263.0,518.0 L 328.0,517.0 L 414.0,487.0 L 470.0,482.0"/>
    <path d="M 177.0,666.0 L 227.0,670.0 L 444.0,612.0 L 513.0,612.0"/>
    <path d="M 307.0,677.0 L 335.0,698.0 L 291.0,780.0 L 249.0,838.0 L 238.0,868.0 L 268.0,870.0 L 413.0,823.0 L 456.0,812.0 L 467.0,817.0"/>
    <path d="M 425.0,717.0 L 509.0,822.0 L 520.0,873.0"/>
    <path d="M 645.0,358.0 L 666.0,364.0 L 731.0,339.0 L 780.0,328.0 L 797.0,335.0 L 812.0,352.0 L 751.0,498.0 L 816.0,565.0 L 852.0,619.0 L 868.0,667.0 L 864.0,720.0 L 836.0,760.0 L 710.0,723.0"/>
    <path d="M 577.0,348.0 L 613.0,378.0 L 622.0,421.0 L 619.0,1060.0"/>
  </g>
</svg>
