<svg xmlns="http://www.w3.org/2000/svg" viewBox="0 0 1024 1024">
  <g style="fill:none;stroke:#000000;stroke-width:50;stroke-linecap:round;stroke-linejoin:round;" transform="scale(1, 1) translate(0, 0)">
    <path d="M 202.0,256.0 L 211.0,283.0 L 210.0,302.0 L 171.0,387.0 L 163.0,421.0"/>
    <path d="M 241.0,299.0 L 251.0,291.0 L 354.0,265.0 L 480.0,242.0 L 517.0,257.0 L 529.0,273.0 L 477.0,350.0"/>
    <path d="M 212.0,449.0 L 277.0,452.0 L 423.0,414.0 L 473.0,411.0"/>
    <path d="M 310.0,314.0 L 335.0,357.0 L 286.0,496.0 L 230.0,621.0 L 269.0,625.0 L 438.0,578.0 L 496.0,579.0"/>
    <path d="M 124.0,773.0 L 177.0,779.0 L 431.0,703.0 L 476.0,693.0 L 523.0,694.0"/>
    <path d="M 352.0,504.0 L 376.0,536.0 L 378.0,554.0 L 363.0,887.0 L 373.0,960.0"/>
    <path d="M 647.0,359.0 L 663.0,368.0 L 761.0,327.0 L 789.0,323.0 L 818.0,347.0 L 759.0,471.0 L 747.0,513.0 L 760.0,532.0 L 814.0,575.0 L 846.0,616.0 L 866.0,665.0 L 864.0,719.0 L 855.0,740.0 L 839.0,756.0 L 710.0,715.0"/>
    <path d="M 586.0,360.0 L 618.0,385.0 L 626.0,406.0 L 623.0,1049.0"/>
  </g>
</svg>
