<svg xmlns="http://www.w3.org/2000/svg" viewBox="0 0 1024 1024">
  <g style="fill:none;stroke:#000000;stroke-width:50;stroke-linecap:round;stroke-linejoin:round;" transform="scale(1, 1) translate(0, 0)">
    <path d="M 490.0,243.0 L 425.0,229.0 L 335.0,282.0 L 199.0,330.0"/>
    <path d="M 179.0,386.0 L 238.0,435.0 L 247.0,461.0"/>
    <path d="M 311.0,350.0 L 359.0,410.0"/>
    <path d="M 493.0,296.0 L 507.0,326.0 L 463.0,374.0 L 425.0,402.0 L 422.0,411.0"/>
    <path d="M 197.0,543.0 L 237.0,554.0 L 258.0,551.0 L 392.0,500.0 L 425.0,496.0 L 444.0,506.0 L 457.0,522.0 L 446.0,543.0 L 383.0,615.0 L 371.0,616.0"/>
    <path d="M 327.0,621.0 L 365.0,644.0 L 388.0,687.0 L 405.0,804.0 L 403.0,874.0 L 393.0,927.0 L 373.0,964.0 L 350.0,981.0 L 253.0,931.0"/>
    <path d="M 126.0,794.0 L 183.0,809.0 L 500.0,663.0"/>
    <path d="M 639.0,400.0 L 649.0,398.0 L 658.0,404.0 L 748.0,369.0 L 782.0,362.0 L 792.0,363.0 L 815.0,386.0 L 764.0,494.0 L 744.0,555.0 L 810.0,615.0 L 847.0,668.0 L 867.0,726.0 L 866.0,756.0 L 852.0,791.0 L 836.0,808.0 L 722.0,771.0"/>
    <path d="M 571.0,388.0 L 609.0,419.0 L 616.0,447.0 L 611.0,1073.0"/>
  </g>
</svg>
