<svg xmlns="http://www.w3.org/2000/svg" viewBox="0 0 1024 1024">
  <g style="fill:none;stroke:#000000;stroke-width:50;stroke-linecap:round;stroke-linejoin:round;" transform="scale(1, 1) translate(0, 0)">
    <path d="M 200.0,266.0 L 220.0,281.0 L 233.0,301.0 L 272.0,453.0"/>
    <path d="M 249.0,264.0 L 258.0,272.0 L 273.0,273.0 L 404.0,236.0 L 442.0,233.0 L 465.0,251.0 L 472.0,265.0 L 446.0,346.0 L 422.0,356.0"/>
    <path d="M 291.0,429.0 L 305.0,417.0 L 420.0,389.0 L 475.0,391.0"/>
    <path d="M 208.0,537.0 L 230.0,542.0 L 277.0,538.0 L 422.0,493.0 L 480.0,491.0"/>
    <path d="M 187.0,674.0 L 258.0,674.0 L 377.0,647.0 L 445.0,623.0 L 489.0,623.0"/>
    <path d="M 320.0,550.0 L 347.0,577.0 L 345.0,749.0 L 341.0,765.0 L 329.0,776.0"/>
    <path d="M 139.0,840.0 L 195.0,857.0 L 516.0,739.0"/>
    <path d="M 647.0,340.0 L 661.0,347.0 L 751.0,309.0 L 784.0,303.0 L 813.0,327.0 L 799.0,366.0 L 762.0,433.0 L 747.0,485.0 L 810.0,548.0 L 840.0,588.0 L 866.0,658.0 L 862.0,699.0 L 836.0,736.0 L 703.0,696.0"/>
    <path d="M 571.0,328.0 L 592.0,339.0 L 611.0,359.0 L 618.0,392.0 L 611.0,1045.0"/>
  </g>
</svg>
