<svg xmlns="http://www.w3.org/2000/svg" viewBox="0 0 1024 1024">
  <g style="fill:none;stroke:#000000;stroke-width:50;stroke-linecap:round;stroke-linejoin:round;" transform="scale(1, 1) translate(0, 0)">
    <path d="M 405.0,219.0 L 371.0,223.0 L 303.0,340.0 L 284.0,346.0"/>
    <path d="M 183.0,368.0 L 210.0,391.0 L 214.0,402.0 L 256.0,610.0"/>
    <path d="M 245.0,392.0 L 257.0,380.0 L 435.0,338.0 L 473.0,334.0 L 494.0,339.0 L 520.0,367.0 L 491.0,512.0 L 474.0,562.0 L 479.0,580.0"/>
    <path d="M 284.0,485.0 L 401.0,457.0 L 441.0,461.0"/>
    <path d="M 274.0,587.0 L 378.0,558.0 L 429.0,551.0 L 443.0,543.0"/>
    <path d="M 331.0,382.0 L 354.0,393.0 L 361.0,403.0 L 342.0,559.0 L 311.0,648.0 L 276.0,707.0 L 258.0,726.0"/>
    <path d="M 106.0,779.0 L 163.0,788.0 L 497.0,716.0 L 554.0,720.0"/>
    <path d="M 358.0,641.0 L 389.0,675.0 L 383.0,1023.0"/>
    <path d="M 657.0,382.0 L 672.0,388.0 L 786.0,349.0 L 803.0,356.0 L 818.0,373.0 L 763.0,484.0 L 753.0,523.0 L 838.0,609.0 L 865.0,658.0 L 873.0,690.0 L 870.0,730.0 L 844.0,768.0 L 714.0,731.0"/>
    <path d="M 590.0,372.0 L 614.0,388.0 L 630.0,415.0 L 627.0,1061.0"/>
  </g>
</svg>
