<svg xmlns="http://www.w3.org/2000/svg" viewBox="0 0 1024 1024">
  <g style="fill:none;stroke:#000000;stroke-width:50;stroke-linecap:round;stroke-linejoin:round;" transform="scale(1, 1) translate(0, 0)">
    <path d="M 241.0,267.0 L 255.0,275.0 L 294.0,276.0 L 505.0,236.0 L 551.0,234.0"/>
    <path d="M 276.0,349.0 L 299.0,380.0 L 322.0,536.0"/>
    <path d="M 320.0,374.0 L 339.0,358.0 L 450.0,326.0 L 484.0,324.0 L 503.0,334.0 L 518.0,352.0 L 500.0,435.0 L 479.0,502.0 L 462.0,506.0"/>
    <path d="M 332.0,450.0 L 339.0,441.0 L 372.0,431.0 L 404.0,425.0 L 430.0,428.0"/>
    <path d="M 337.0,519.0 L 356.0,508.0 L 438.0,492.0 L 457.0,478.0"/>
    <path d="M 364.0,524.0 L 379.0,538.0 L 381.0,550.0 L 327.0,684.0 L 481.0,751.0 L 528.0,795.0"/>
    <path d="M 463.0,567.0 L 474.0,585.0 L 469.0,621.0 L 441.0,683.0 L 411.0,728.0 L 375.0,762.0 L 327.0,792.0 L 262.0,812.0"/>
    <path d="M 239.0,621.0 L 290.0,627.0 L 522.0,587.0 L 580.0,591.0"/>
    <path d="M 178.0,244.0 L 212.0,286.0 L 213.0,341.0 L 208.0,521.0 L 183.0,886.0 L 213.0,893.0 L 303.0,874.0 L 458.0,855.0 L 518.0,853.0 L 554.0,864.0"/>
    <path d="M 679.0,381.0 L 683.0,367.0 L 777.0,327.0 L 812.0,325.0 L 834.0,347.0 L 770.0,475.0 L 763.0,507.0 L 850.0,590.0 L 878.0,640.0 L 887.0,671.0 L 884.0,714.0 L 859.0,753.0 L 821.0,748.0 L 731.0,720.0"/>
    <path d="M 597.0,352.0 L 633.0,381.0 L 642.0,415.0 L 639.0,1060.0"/>
  </g>
</svg>
