<svg xmlns="http://www.w3.org/2000/svg" viewBox="0 0 1024 1024">
  <g style="fill:none;stroke:#000000;stroke-width:50;stroke-linecap:round;stroke-linejoin:round;" transform="scale(1, 1) translate(0, 0)">
    <path d="M 205.0,284.0 L 265.0,290.0 L 456.0,253.0 L 512.0,252.0"/>
    <path d="M 148.0,419.0 L 175.0,439.0 L 184.0,456.0 L 227.0,614.0"/>
    <path d="M 200.0,419.0 L 224.0,427.0 L 468.0,378.0 L 509.0,386.0 L 533.0,412.0 L 487.0,555.0 L 487.0,578.0"/>
    <path d="M 259.0,333.0 L 292.0,366.0 L 307.0,545.0 L 298.0,554.0"/>
    <path d="M 376.0,294.0 L 407.0,316.0 L 412.0,327.0 L 395.0,514.0 L 388.0,533.0 L 378.0,540.0"/>
    <path d="M 245.0,593.0 L 261.0,583.0 L 441.0,554.0 L 454.0,547.0"/>
    <path d="M 201.0,731.0 L 272.0,737.0 L 382.0,718.0 L 450.0,699.0 L 496.0,700.0"/>
    <path d="M 316.0,613.0 L 352.0,645.0 L 350.0,816.0 L 346.0,830.0 L 335.0,840.0"/>
    <path d="M 149.0,892.0 L 203.0,912.0 L 459.0,836.0 L 537.0,807.0"/>
    <path d="M 671.0,381.0 L 675.0,367.0 L 767.0,327.0 L 801.0,325.0 L 824.0,348.0 L 773.0,445.0 L 756.0,503.0 L 820.0,563.0 L 852.0,604.0 L 876.0,655.0 L 880.0,698.0 L 870.0,733.0 L 845.0,759.0 L 694.0,693.0"/>
    <path d="M 589.0,352.0 L 626.0,378.0 L 633.0,398.0 L 631.0,1040.0"/>
  </g>
</svg>
