<svg xmlns="http://www.w3.org/2000/svg" viewBox="0 0 1024 1024">
  <g style="fill:none;stroke:#000000;stroke-width:50;stroke-linecap:round;stroke-linejoin:round;" transform="scale(1, 1) translate(0, 0)">
    <path d="M 196.0,259.0 L 224.0,283.0 L 256.0,418.0"/>
    <path d="M 255.0,283.0 L 269.0,273.0 L 356.0,256.0 L 363.0,250.0 L 417.0,239.0 L 437.0,242.0 L 459.0,271.0 L 437.0,324.0 L 413.0,338.0"/>
    <path d="M 272.0,400.0 L 282.0,391.0 L 401.0,367.0 L 443.0,363.0 L 468.0,370.0"/>
    <path d="M 192.0,467.0 L 214.0,489.0 L 221.0,507.0 L 221.0,814.0"/>
    <path d="M 250.0,500.0 L 271.0,488.0 L 410.0,457.0 L 430.0,462.0 L 462.0,494.0 L 456.0,571.0 L 461.0,746.0 L 455.0,812.0"/>
    <path d="M 246.0,609.0 L 259.0,597.0 L 309.0,585.0 L 345.0,580.0 L 376.0,585.0"/>
    <path d="M 248.0,691.0 L 260.0,683.0 L 337.0,670.0 L 383.0,676.0"/>
    <path d="M 244.0,785.0 L 266.0,771.0 L 380.0,756.0 L 405.0,758.0 L 414.0,770.0"/>
    <path d="M 297.0,869.0 L 267.0,873.0 L 198.0,948.0 L 163.0,975.0 L 123.0,995.0"/>
    <path d="M 383.0,838.0 L 470.0,913.0 L 491.0,958.0"/>
    <path d="M 637.0,386.0 L 650.0,395.0 L 742.0,357.0 L 772.0,354.0 L 798.0,378.0 L 749.0,479.0 L 735.0,527.0 L 835.0,621.0 L 853.0,648.0 L 874.0,705.0 L 872.0,746.0 L 864.0,768.0 L 845.0,792.0 L 718.0,748.0"/>
    <path d="M 561.0,380.0 L 599.0,409.0 L 607.0,442.0 L 611.0,1061.0"/>
  </g>
</svg>
