<svg xmlns="http://www.w3.org/2000/svg" viewBox="0 0 1024 1024">
  <g style="fill:none;stroke:#000000;stroke-width:50;stroke-linecap:round;stroke-linejoin:round;" transform="scale(1, 1) translate(0, 0)">
    <path d="M 225.0,259.0 L 257.0,265.0 L 318.0,259.0 L 450.0,226.0 L 504.0,224.0"/>
    <path d="M 338.0,278.0 L 360.0,295.0 L 364.0,305.0 L 361.0,426.0 L 346.0,438.0"/>
    <path d="M 388.0,360.0 L 397.0,358.0 L 404.0,347.0 L 438.0,338.0 L 485.0,342.0"/>
    <path d="M 214.0,353.0 L 244.0,378.0 L 259.0,450.0 L 249.0,459.0"/>
    <path d="M 156.0,497.0 L 212.0,496.0 L 474.0,442.0 L 519.0,444.0 L 546.0,452.0"/>
    <path d="M 288.0,577.0 L 323.0,562.0 L 445.0,535.0 L 488.0,539.0"/>
    <path d="M 239.0,513.0 L 262.0,528.0 L 264.0,544.0 L 242.0,671.0 L 268.0,674.0 L 342.0,654.0 L 462.0,633.0 L 503.0,636.0 L 533.0,661.0 L 507.0,841.0 L 487.0,881.0 L 462.0,897.0 L 380.0,838.0"/>
    <path d="M 129.0,751.0 L 123.0,821.0 L 106.0,888.0"/>
    <path d="M 210.0,763.0 L 226.0,804.0 L 231.0,839.0"/>
    <path d="M 293.0,743.0 L 330.0,800.0"/>
    <path d="M 370.0,714.0 L 422.0,764.0 L 429.0,784.0"/>
    <path d="M 692.0,396.0 L 699.0,377.0 L 780.0,342.0 L 817.0,335.0 L 844.0,359.0 L 816.0,422.0 L 786.0,469.0 L 770.0,522.0 L 854.0,609.0 L 877.0,647.0 L 891.0,691.0 L 887.0,733.0 L 860.0,771.0 L 734.0,716.0"/>
    <path d="M 614.0,364.0 L 637.0,377.0 L 657.0,407.0 L 651.0,1060.0"/>
  </g>
</svg>
