<svg xmlns="http://www.w3.org/2000/svg" viewBox="0 0 1024 1024">
  <g style="fill:none;stroke:#000000;stroke-width:50;stroke-linecap:round;stroke-linejoin:round;" transform="scale(1, 1) translate(0, 0)">
    <path d="M 115.0,346.0 L 150.0,353.0 L 174.0,351.0 L 510.0,285.0 L 563.0,292.0"/>
    <path d="M 233.0,237.0 L 253.0,243.0 L 275.0,263.0 L 300.0,463.0"/>
    <path d="M 422.0,169.0 L 454.0,210.0 L 420.0,364.0 L 401.0,381.0"/>
    <path d="M 317.0,444.0 L 330.0,427.0 L 398.0,408.0 L 445.0,412.0"/>
    <path d="M 168.0,529.0 L 189.0,544.0 L 202.0,563.0 L 232.0,666.0"/>
    <path d="M 206.0,526.0 L 230.0,535.0 L 465.0,479.0 L 486.0,487.0 L 508.0,509.0 L 488.0,556.0 L 463.0,574.0"/>
    <path d="M 247.0,647.0 L 257.0,639.0 L 435.0,601.0 L 491.0,597.0 L 512.0,602.0"/>
    <path d="M 224.0,718.0 L 283.0,721.0 L 445.0,682.0 L 479.0,682.0"/>
    <path d="M 216.0,806.0 L 280.0,807.0 L 426.0,770.0 L 489.0,762.0"/>
    <path d="M 321.0,458.0 L 347.0,471.0 L 355.0,489.0 L 353.0,839.0 L 338.0,862.0"/>
    <path d="M 139.0,916.0 L 194.0,936.0 L 537.0,831.0"/>
    <path d="M 658.0,410.0 L 675.0,416.0 L 758.0,377.0 L 796.0,367.0 L 826.0,391.0 L 771.0,519.0 L 760.0,563.0 L 831.0,621.0 L 862.0,659.0 L 884.0,707.0 L 886.0,747.0 L 878.0,769.0 L 860.0,792.0 L 731.0,744.0"/>
    <path d="M 583.0,401.0 L 607.0,416.0 L 629.0,445.0 L 627.0,1096.0"/>
  </g>
</svg>
