<svg xmlns="http://www.w3.org/2000/svg" viewBox="0 0 1024 1024">
  <g style="fill:none;stroke:#000000;stroke-width:50;stroke-linecap:round;stroke-linejoin:round;" transform="scale(1, 1) translate(0, 0)">
    <path d="M 323.0,206.0 L 386.0,234.0 L 415.0,267.0"/>
    <path d="M 209.0,339.0 L 232.0,346.0 L 269.0,346.0 L 485.0,299.0 L 531.0,301.0"/>
    <path d="M 262.0,396.0 L 297.0,440.0 L 304.0,459.0"/>
    <path d="M 430.0,341.0 L 451.0,365.0 L 419.0,441.0 L 394.0,473.0"/>
    <path d="M 123.0,530.0 L 171.0,537.0 L 490.0,474.0 L 551.0,480.0"/>
    <path d="M 204.0,595.0 L 236.0,632.0 L 268.0,778.0"/>
    <path d="M 250.0,596.0 L 262.0,599.0 L 420.0,562.0 L 460.0,563.0 L 477.0,570.0 L 493.0,592.0 L 448.0,739.0 L 450.0,755.0"/>
    <path d="M 274.0,685.0 L 302.0,670.0 L 351.0,660.0 L 408.0,660.0"/>
    <path d="M 286.0,763.0 L 318.0,748.0 L 406.0,734.0 L 417.0,727.0"/>
    <path d="M 89.0,883.0 L 147.0,894.0 L 476.0,831.0 L 534.0,836.0"/>
    <path d="M 335.0,765.0 L 361.0,792.0 L 354.0,976.0 L 365.0,1048.0"/>
    <path d="M 673.0,423.0 L 680.0,406.0 L 776.0,367.0 L 807.0,365.0 L 830.0,388.0 L 771.0,511.0 L 759.0,553.0 L 773.0,572.0 L 823.0,614.0 L 863.0,666.0 L 882.0,723.0 L 879.0,764.0 L 868.0,787.0 L 850.0,804.0 L 730.0,760.0"/>
    <path d="M 593.0,392.0 L 623.0,414.0 L 635.0,439.0 L 635.0,1060.0"/>
  </g>
</svg>
