<svg xmlns="http://www.w3.org/2000/svg" viewBox="0 0 1024 1024">
  <g style="fill:none;stroke:#000000;stroke-width:50;stroke-linecap:round;stroke-linejoin:round;" transform="scale(1, 1) translate(0, 0)">
    <path d="M 466.0,228.0 L 406.0,221.0 L 330.0,272.0 L 259.0,307.0 L 226.0,319.0 L 217.0,316.0 L 208.0,326.0"/>
    <path d="M 164.0,370.0 L 226.0,407.0 L 250.0,441.0"/>
    <path d="M 477.0,297.0 L 493.0,327.0 L 413.0,402.0"/>
    <path d="M 115.0,517.0 L 169.0,525.0 L 474.0,460.0 L 526.0,463.0"/>
    <path d="M 317.0,302.0 L 342.0,316.0 L 355.0,332.0 L 345.0,538.0 L 349.0,639.0"/>
    <path d="M 324.0,514.0 L 260.0,601.0 L 211.0,648.0 L 143.0,700.0 L 52.0,745.0"/>
    <path d="M 408.0,543.0 L 512.0,589.0 L 540.0,622.0"/>
    <path d="M 167.0,707.0 L 188.0,717.0 L 199.0,736.0 L 232.0,935.0"/>
    <path d="M 207.0,700.0 L 229.0,709.0 L 302.0,691.0 L 450.0,668.0 L 485.0,680.0 L 504.0,702.0 L 476.0,832.0 L 460.0,887.0 L 453.0,897.0 L 431.0,898.0"/>
    <path d="M 260.0,801.0 L 387.0,772.0 L 417.0,777.0"/>
    <path d="M 315.0,708.0 L 341.0,731.0 L 341.0,846.0 L 337.0,860.0 L 326.0,870.0"/>
    <path d="M 253.0,912.0 L 271.0,902.0 L 426.0,877.0"/>
    <path d="M 667.0,396.0 L 673.0,382.0 L 765.0,345.0 L 800.0,342.0 L 826.0,366.0 L 763.0,494.0 L 757.0,522.0 L 811.0,570.0 L 864.0,642.0 L 881.0,689.0 L 879.0,742.0 L 865.0,771.0 L 852.0,783.0 L 727.0,744.0"/>
    <path d="M 583.0,364.0 L 621.0,397.0 L 629.0,440.0 L 623.0,1097.0"/>
  </g>
</svg>
