<svg xmlns="http://www.w3.org/2000/svg" viewBox="0 0 1024 1024">
  <g style="fill:none;stroke:#000000;stroke-width:50;stroke-linecap:round;stroke-linejoin:round;" transform="scale(1, 1) translate(0, 0)">
    <path d="M 264.0,203.0 L 334.0,258.0 L 346.0,286.0"/>
    <path d="M 486.0,165.0 L 508.0,195.0 L 419.0,287.0 L 417.0,297.0"/>
    <path d="M 152.0,371.0 L 173.0,377.0 L 212.0,376.0 L 521.0,324.0 L 575.0,330.0"/>
    <path d="M 189.0,470.0 L 215.0,489.0 L 222.0,512.0 L 237.0,668.0 L 252.0,732.0"/>
    <path d="M 239.0,479.0 L 259.0,484.0 L 461.0,441.0 L 505.0,438.0 L 539.0,448.0 L 559.0,471.0 L 530.0,634.0 L 516.0,680.0 L 522.0,701.0"/>
    <path d="M 294.0,385.0 L 325.0,403.0 L 325.0,425.0 L 318.0,487.0 L 305.0,536.0 L 282.0,584.0"/>
    <path d="M 385.0,368.0 L 413.0,386.0 L 406.0,507.0 L 414.0,532.0 L 447.0,543.0 L 477.0,539.0"/>
    <path d="M 303.0,613.0 L 341.0,616.0 L 420.0,600.0 L 446.0,601.0"/>
    <path d="M 271.0,705.0 L 286.0,695.0 L 449.0,672.0 L 466.0,672.0 L 476.0,684.0"/>
    <path d="M 51.0,813.0 L 81.0,823.0 L 112.0,824.0 L 527.0,764.0 L 582.0,771.0"/>
    <path d="M 338.0,713.0 L 351.0,722.0 L 367.0,754.0 L 344.0,825.0 L 310.0,893.0 L 282.0,930.0 L 246.0,962.0 L 197.0,991.0 L 144.0,1009.0"/>
    <path d="M 424.0,862.0 L 515.0,928.0 L 534.0,952.0 L 544.0,978.0"/>
    <path d="M 719.0,423.0 L 730.0,404.0 L 814.0,374.0 L 846.0,372.0 L 871.0,398.0 L 815.0,510.0 L 805.0,548.0 L 853.0,588.0 L 892.0,633.0 L 916.0,673.0 L 928.0,709.0 L 925.0,762.0 L 910.0,795.0 L 896.0,808.0 L 779.0,764.0"/>
    <path d="M 635.0,380.0 L 676.0,413.0 L 681.0,444.0 L 675.0,1092.0"/>
  </g>
</svg>
