<svg xmlns="http://www.w3.org/2000/svg" viewBox="0 0 1024 1024">
  <g style="fill:none;stroke:#000000;stroke-width:50;stroke-linecap:round;stroke-linejoin:round;" transform="scale(1, 1) translate(0, 0)">
    <path d="M 249.0,230.0 L 312.0,267.0 L 339.0,304.0"/>
    <path d="M 475.0,178.0 L 495.0,207.0 L 401.0,322.0"/>
    <path d="M 221.0,381.0 L 268.0,387.0 L 396.0,368.0 L 475.0,347.0 L 509.0,343.0 L 531.0,348.0"/>
    <path d="M 239.0,481.0 L 289.0,484.0 L 462.0,449.0 L 505.0,452.0"/>
    <path d="M 179.0,581.0 L 220.0,590.0 L 369.0,566.0 L 468.0,543.0 L 531.0,538.0 L 562.0,544.0"/>
    <path d="M 351.0,402.0 L 375.0,418.0 L 376.0,431.0 L 370.0,686.0 L 355.0,707.0"/>
    <path d="M 212.0,650.0 L 258.0,685.0 L 285.0,718.0"/>
    <path d="M 489.0,592.0 L 501.0,624.0 L 468.0,678.0 L 457.0,686.0"/>
    <path d="M 89.0,763.0 L 147.0,773.0 L 509.0,706.0 L 558.0,702.0 L 583.0,707.0"/>
    <path d="M 206.0,826.0 L 241.0,858.0 L 283.0,1025.0"/>
    <path d="M 271.0,850.0 L 280.0,839.0 L 439.0,805.0 L 457.0,806.0 L 471.0,813.0 L 493.0,840.0 L 466.0,911.0 L 440.0,930.0"/>
    <path d="M 297.0,965.0 L 312.0,976.0 L 438.0,957.0 L 477.0,956.0 L 502.0,965.0"/>
    <path d="M 684.0,408.0 L 695.0,388.0 L 793.0,353.0 L 818.0,352.0 L 839.0,376.0 L 771.0,492.0 L 762.0,522.0 L 830.0,584.0 L 877.0,648.0 L 894.0,702.0 L 886.0,747.0 L 862.0,776.0 L 746.0,732.0"/>
    <path d="M 600.0,365.0 L 638.0,394.0 L 645.0,417.0 L 643.0,1093.0"/>
  </g>
</svg>
