<svg xmlns="http://www.w3.org/2000/svg" viewBox="0 0 1024 1024">
  <g style="fill:none;stroke:#000000;stroke-width:50;stroke-linecap:round;stroke-linejoin:round;" transform="scale(1, 1) translate(0, 0)">
    <path d="M 322.0,190.0 L 351.0,211.0 L 362.0,227.0 L 356.0,475.0 L 354.0,498.0 L 340.0,513.0"/>
    <path d="M 178.0,338.0 L 216.0,335.0 L 287.0,312.0 L 314.0,310.0"/>
    <path d="M 182.0,410.0 L 221.0,407.0 L 275.0,388.0 L 306.0,386.0"/>
    <path d="M 189.0,482.0 L 311.0,459.0"/>
    <path d="M 210.0,254.0 L 243.0,279.0 L 251.0,522.0 L 243.0,534.0"/>
    <path d="M 399.0,293.0 L 443.0,296.0 L 511.0,277.0 L 545.0,277.0"/>
    <path d="M 395.0,367.0 L 451.0,366.0 L 486.0,356.0 L 522.0,355.0"/>
    <path d="M 391.0,439.0 L 444.0,438.0 L 490.0,424.0 L 523.0,423.0"/>
    <path d="M 447.0,203.0 L 478.0,237.0 L 456.0,478.0 L 442.0,499.0"/>
    <path d="M 114.0,430.0 L 134.0,450.0 L 143.0,469.0 L 139.0,576.0 L 181.0,573.0 L 302.0,540.0 L 431.0,517.0 L 509.0,509.0 L 527.0,521.0"/>
    <path d="M 557.0,360.0 L 579.0,396.0 L 546.0,547.0"/>
    <path d="M 220.0,616.0 L 241.0,622.0 L 281.0,621.0 L 446.0,588.0 L 483.0,588.0"/>
    <path d="M 218.0,687.0 L 246.0,714.0 L 269.0,819.0"/>
    <path d="M 270.0,710.0 L 279.0,702.0 L 425.0,670.0 L 441.0,677.0 L 455.0,695.0 L 442.0,728.0 L 423.0,740.0"/>
    <path d="M 283.0,795.0 L 293.0,787.0 L 402.0,765.0 L 464.0,770.0"/>
    <path d="M 225.0,835.0 L 260.0,875.0 L 276.0,910.0"/>
    <path d="M 411.0,790.0 L 434.0,815.0 L 403.0,878.0 L 383.0,898.0"/>
    <path d="M 129.0,941.0 L 156.0,949.0 L 203.0,949.0 L 441.0,909.0 L 497.0,905.0 L 526.0,911.0"/>
    <path d="M 710.0,443.0 L 715.0,428.0 L 799.0,390.0 L 822.0,389.0 L 846.0,411.0 L 790.0,526.0 L 782.0,567.0 L 860.0,639.0 L 885.0,678.0 L 897.0,712.0 L 889.0,762.0 L 870.0,784.0 L 754.0,747.0"/>
    <path d="M 630.0,415.0 L 665.0,443.0 L 674.0,485.0 L 663.0,1077.0"/>
  </g>
</svg>
