<svg xmlns="http://www.w3.org/2000/svg" viewBox="0 0 1024 1024">
  <g style="fill:none;stroke:#000000;stroke-width:50;stroke-linecap:round;stroke-linejoin:round;" transform="scale(1, 1) translate(0, 0)">
    <path d="M 141.0,323.0 L 172.0,329.0 L 224.0,326.0 L 414.0,281.0 L 471.0,281.0"/>
    <path d="M 99.0,492.0 L 123.0,523.0 L 129.0,560.0 L 129.0,769.0 L 118.0,870.0 L 125.0,927.0"/>
    <path d="M 153.0,508.0 L 163.0,514.0 L 188.0,510.0 L 367.0,471.0 L 395.0,472.0 L 425.0,494.0 L 434.0,812.0 L 423.0,880.0 L 432.0,949.0"/>
    <path d="M 200.0,351.0 L 228.0,371.0 L 234.0,474.0 L 231.0,528.0 L 208.0,613.0 L 188.0,649.0 L 188.0,661.0 L 173.0,681.0"/>
    <path d="M 299.0,332.0 L 329.0,353.0 L 316.0,520.0 L 321.0,605.0 L 344.0,644.0 L 388.0,647.0 L 396.0,639.0"/>
    <path d="M 184.0,769.0 L 305.0,745.0 L 347.0,749.0"/>
    <path d="M 148.0,897.0 L 164.0,882.0 L 340.0,860.0 L 380.0,876.0"/>
    <path d="M 752.0,348.0 L 780.0,374.0 L 757.0,466.0 L 733.0,524.0 L 673.0,634.0 L 601.0,721.0 L 587.0,726.0 L 585.0,735.0"/>
    <path d="M 573.0,420.0 L 745.0,625.0 L 785.0,691.0 L 789.0,719.0"/>
    <path d="M 496.0,595.0 L 518.0,613.0 L 535.0,642.0 L 543.0,730.0 L 538.0,845.0 L 586.0,842.0 L 677.0,818.0 L 835.0,796.0 L 851.0,782.0"/>
    <path d="M 869.0,534.0 L 904.0,578.0 L 871.0,908.0"/>
  </g>
</svg>
