<svg xmlns="http://www.w3.org/2000/svg" viewBox="0 0 1024 1024">
  <g style="fill:none;stroke:#000000;stroke-width:50;stroke-linecap:round;stroke-linejoin:round;" transform="scale(1, 1) translate(0, 0)">
    <path d="M 141.0,315.0 L 162.0,321.0 L 207.0,320.0 L 397.0,277.0 L 427.0,281.0"/>
    <path d="M 104.0,474.0 L 132.0,505.0 L 137.0,534.0 L 131.0,758.0 L 119.0,863.0 L 124.0,907.0"/>
    <path d="M 161.0,493.0 L 171.0,499.0 L 196.0,496.0 L 369.0,459.0 L 396.0,463.0 L 420.0,485.0 L 423.0,729.0 L 420.0,816.0 L 411.0,867.0 L 420.0,937.0"/>
    <path d="M 211.0,341.0 L 241.0,365.0 L 243.0,459.0 L 226.0,554.0 L 178.0,653.0"/>
    <path d="M 300.0,327.0 L 318.0,335.0 L 330.0,349.0 L 317.0,497.0 L 325.0,587.0 L 333.0,607.0 L 348.0,621.0 L 376.0,622.0 L 389.0,608.0"/>
    <path d="M 196.0,749.0 L 294.0,732.0 L 339.0,737.0"/>
    <path d="M 150.0,873.0 L 172.0,858.0 L 308.0,839.0 L 336.0,836.0 L 375.0,844.0"/>
    <path d="M 788.0,317.0 L 724.0,300.0 L 607.0,357.0 L 522.0,387.0 L 484.0,390.0 L 473.0,398.0"/>
    <path d="M 501.0,515.0 L 534.0,521.0 L 573.0,519.0 L 630.0,508.0 L 727.0,478.0 L 781.0,476.0"/>
    <path d="M 464.0,644.0 L 515.0,648.0 L 802.0,591.0 L 840.0,591.0 L 889.0,602.0"/>
    <path d="M 567.0,388.0 L 599.0,413.0 L 601.0,423.0 L 588.0,735.0 L 601.0,843.0 L 622.0,900.0 L 638.0,923.0 L 688.0,951.0 L 751.0,963.0 L 808.0,961.0 L 857.0,945.0 L 889.0,918.0 L 896.0,772.0"/>
  </g>
</svg>
