<svg xmlns="http://www.w3.org/2000/svg" viewBox="0 0 1024 1024">
  <g style="fill:none;stroke:#000000;stroke-width:50;stroke-linecap:round;stroke-linejoin:round;" transform="scale(1, 1) translate(0, 0)">
    <path d="M 132.0,339.0 L 205.0,340.0 L 404.0,289.0 L 436.0,289.0"/>
    <path d="M 83.0,480.0 L 108.0,507.0 L 114.0,550.0 L 116.0,699.0 L 104.0,845.0 L 109.0,907.0"/>
    <path d="M 139.0,496.0 L 148.0,503.0 L 195.0,496.0 L 349.0,462.0 L 388.0,471.0 L 405.0,490.0 L 406.0,768.0 L 396.0,862.0 L 404.0,925.0"/>
    <path d="M 193.0,364.0 L 221.0,390.0 L 223.0,503.0 L 198.0,612.0 L 179.0,659.0 L 170.0,664.0 L 165.0,678.0"/>
    <path d="M 277.0,345.0 L 305.0,365.0 L 292.0,553.0 L 302.0,612.0 L 326.0,640.0 L 350.0,643.0 L 372.0,634.0"/>
    <path d="M 181.0,755.0 L 293.0,730.0 L 324.0,734.0"/>
    <path d="M 133.0,877.0 L 154.0,862.0 L 360.0,833.0"/>
    <path d="M 478.0,532.0 L 533.0,538.0 L 807.0,478.0 L 871.0,483.0"/>
    <path d="M 606.0,249.0 L 627.0,258.0 L 657.0,290.0 L 637.0,569.0 L 609.0,710.0 L 587.0,779.0 L 546.0,853.0 L 480.0,919.0 L 446.0,943.0 L 399.0,965.0"/>
    <path d="M 657.0,618.0 L 665.0,662.0 L 741.0,785.0 L 799.0,863.0 L 845.0,903.0 L 979.0,945.0"/>
    <path d="M 598.0,825.0 L 606.0,839.0 L 669.0,894.0 L 683.0,926.0"/>
  </g>
</svg>
