<svg xmlns="http://www.w3.org/2000/svg" viewBox="0 0 1024 1024">
  <g style="fill:none;stroke:#000000;stroke-width:50;stroke-linecap:round;stroke-linejoin:round;" transform="scale(1, 1) translate(0, 0)">
    <path d="M 125.0,323.0 L 176.0,329.0 L 383.0,285.0 L 424.0,284.0"/>
    <path d="M 100.0,483.0 L 127.0,512.0 L 133.0,558.0 L 113.0,870.0 L 116.0,911.0"/>
    <path d="M 157.0,500.0 L 166.0,506.0 L 196.0,501.0 L 359.0,460.0 L 389.0,463.0 L 409.0,480.0 L 416.0,774.0 L 411.0,836.0 L 403.0,858.0 L 415.0,926.0"/>
    <path d="M 192.0,350.0 L 220.0,368.0 L 226.0,482.0 L 210.0,577.0 L 182.0,649.0 L 169.0,661.0 L 168.0,670.0"/>
    <path d="M 289.0,330.0 L 318.0,351.0 L 308.0,500.0 L 317.0,592.0 L 324.0,611.0 L 338.0,624.0 L 371.0,626.0 L 377.0,617.0 L 387.0,616.0"/>
    <path d="M 192.0,757.0 L 291.0,738.0 L 322.0,735.0 L 343.0,741.0"/>
    <path d="M 145.0,881.0 L 164.0,867.0 L 328.0,845.0 L 347.0,845.0 L 357.0,857.0"/>
    <path d="M 544.0,361.0 L 570.0,389.0 L 564.0,421.0 L 496.0,546.0 L 454.0,592.0"/>
    <path d="M 609.0,253.0 L 635.0,262.0 L 659.0,280.0 L 757.0,436.0 L 802.0,491.0 L 838.0,524.0 L 888.0,545.0 L 987.0,563.0"/>
    <path d="M 500.0,633.0 L 552.0,638.0 L 738.0,601.0 L 755.0,602.0 L 774.0,619.0 L 748.0,817.0 L 715.0,918.0 L 678.0,959.0 L 650.0,945.0 L 602.0,894.0"/>
    <path d="M 567.0,653.0 L 591.0,671.0 L 600.0,691.0 L 574.0,763.0 L 515.0,870.0 L 461.0,939.0 L 430.0,965.0"/>
  </g>
</svg>
