<svg xmlns="http://www.w3.org/2000/svg" viewBox="0 0 1024 1024">
  <g style="fill:none;stroke:#000000;stroke-width:50;stroke-linecap:round;stroke-linejoin:round;" transform="scale(1, 1) translate(0, 0)">
    <path d="M 129.0,331.0 L 150.0,337.0 L 192.0,336.0 L 420.0,286.0 L 473.0,284.0"/>
    <path d="M 108.0,478.0 L 132.0,502.0 L 140.0,527.0 L 139.0,700.0 L 126.0,863.0 L 128.0,923.0"/>
    <path d="M 168.0,501.0 L 176.0,507.0 L 202.0,503.0 L 375.0,465.0 L 406.0,464.0 L 426.0,472.0 L 437.0,485.0 L 437.0,753.0 L 428.0,873.0 L 433.0,937.0"/>
    <path d="M 210.0,355.0 L 237.0,373.0 L 245.0,506.0 L 226.0,605.0 L 192.0,680.0"/>
    <path d="M 304.0,337.0 L 333.0,358.0 L 322.0,541.0 L 334.0,598.0 L 353.0,618.0 L 396.0,622.0 L 411.0,614.0"/>
    <path d="M 199.0,757.0 L 311.0,736.0 L 340.0,741.0"/>
    <path d="M 157.0,884.0 L 170.0,872.0 L 208.0,865.0 L 340.0,846.0 L 389.0,849.0"/>
    <path d="M 627.0,192.0 L 641.0,199.0 L 664.0,232.0 L 648.0,288.0 L 595.0,406.0 L 549.0,485.0 L 481.0,574.0"/>
    <path d="M 575.0,484.0 L 679.0,476.0 L 859.0,425.0 L 907.0,427.0"/>
    <path d="M 635.0,508.0 L 663.0,532.0 L 652.0,973.0 L 666.0,1049.0"/>
    <path d="M 690.0,632.0 L 702.0,624.0 L 807.0,606.0 L 840.0,609.0"/>
    <path d="M 691.0,749.0 L 701.0,757.0 L 714.0,757.0 L 832.0,740.0 L 859.0,746.0"/>
  </g>
</svg>
