<svg xmlns="http://www.w3.org/2000/svg" viewBox="0 0 1024 1024">
  <g style="fill:none;stroke:#000000;stroke-width:50;stroke-linecap:round;stroke-linejoin:round;" transform="scale(1, 1) translate(0, 0)">
    <path d="M 114.0,342.0 L 175.0,348.0 L 369.0,306.0 L 425.0,296.0 L 455.0,297.0"/>
    <path d="M 89.0,482.0 L 111.0,504.0 L 120.0,555.0 L 112.0,761.0 L 101.0,845.0 L 105.0,907.0"/>
    <path d="M 135.0,493.0 L 154.0,503.0 L 187.0,499.0 L 371.0,457.0 L 398.0,470.0 L 411.0,485.0 L 411.0,846.0 L 399.0,877.0 L 358.0,862.0 L 351.0,847.0"/>
    <path d="M 196.0,376.0 L 221.0,391.0 L 226.0,529.0 L 211.0,598.0 L 176.0,672.0"/>
    <path d="M 286.0,351.0 L 312.0,370.0 L 295.0,557.0 L 302.0,607.0 L 322.0,636.0 L 333.0,640.0 L 370.0,635.0"/>
    <path d="M 177.0,760.0 L 296.0,737.0 L 331.0,742.0"/>
    <path d="M 131.0,875.0 L 153.0,860.0 L 279.0,843.0 L 339.0,841.0"/>
    <path d="M 612.0,201.0 L 633.0,220.0 L 642.0,238.0 L 616.0,309.0 L 540.0,445.0 L 470.0,531.0"/>
    <path d="M 598.0,396.0 L 701.0,377.0 L 740.0,378.0 L 762.0,389.0 L 754.0,415.0 L 712.0,487.0 L 632.0,598.0 L 533.0,698.0 L 485.0,738.0 L 444.0,762.0"/>
    <path d="M 543.0,469.0 L 560.0,494.0 L 640.0,566.0 L 726.0,635.0 L 801.0,685.0 L 838.0,695.0 L 976.0,700.0"/>
    <path d="M 495.0,796.0 L 520.0,818.0 L 526.0,836.0 L 557.0,1021.0"/>
    <path d="M 551.0,802.0 L 564.0,812.0 L 737.0,779.0 L 765.0,788.0 L 792.0,815.0 L 762.0,905.0 L 736.0,920.0"/>
    <path d="M 575.0,982.0 L 588.0,968.0 L 713.0,951.0 L 768.0,954.0 L 795.0,963.0"/>
  </g>
</svg>
