<svg xmlns="http://www.w3.org/2000/svg" viewBox="0 0 1024 1024">
  <g style="fill:none;stroke:#000000;stroke-width:50;stroke-linecap:round;stroke-linejoin:round;" transform="scale(1, 1) translate(0, 0)">
    <path d="M 141.0,335.0 L 174.0,341.0 L 223.0,337.0 L 383.0,297.0 L 444.0,292.0"/>
    <path d="M 122.0,474.0 L 145.0,500.0 L 151.0,531.0 L 153.0,681.0 L 140.0,858.0 L 145.0,919.0"/>
    <path d="M 184.0,515.0 L 193.0,505.0 L 398.0,462.0 L 424.0,465.0 L 450.0,487.0 L 455.0,497.0 L 461.0,811.0 L 461.0,860.0 L 449.0,893.0 L 453.0,950.0"/>
    <path d="M 228.0,358.0 L 255.0,380.0 L 254.0,524.0 L 237.0,598.0 L 216.0,647.0 L 193.0,682.0"/>
    <path d="M 314.0,346.0 L 345.0,363.0 L 331.0,548.0 L 342.0,608.0 L 369.0,630.0 L 398.0,634.0 L 427.0,625.0"/>
    <path d="M 207.0,765.0 L 336.0,740.0 L 368.0,745.0"/>
    <path d="M 171.0,894.0 L 184.0,882.0 L 218.0,876.0 L 343.0,862.0 L 408.0,861.0"/>
    <path d="M 755.0,273.0 L 766.0,297.0 L 767.0,316.0 L 605.0,404.0"/>
    <path d="M 530.0,230.0 L 575.0,276.0 L 573.0,484.0 L 584.0,516.0 L 606.0,535.0 L 640.0,548.0 L 716.0,553.0 L 776.0,545.0 L 817.0,529.0 L 833.0,517.0 L 841.0,403.0"/>
    <path d="M 549.0,646.0 L 568.0,667.0 L 576.0,696.0 L 578.0,833.0 L 571.0,930.0 L 577.0,975.0"/>
    <path d="M 601.0,677.0 L 612.0,667.0 L 770.0,626.0 L 785.0,630.0 L 815.0,658.0 L 819.0,895.0 L 806.0,945.0 L 809.0,997.0"/>
    <path d="M 599.0,813.0 L 613.0,802.0 L 664.0,790.0 L 716.0,786.0 L 728.0,791.0"/>
    <path d="M 600.0,945.0 L 612.0,935.0 L 637.0,929.0 L 729.0,914.0 L 761.0,915.0"/>
  </g>
</svg>
