<svg xmlns="http://www.w3.org/2000/svg" viewBox="0 0 1024 1024">
  <g style="fill:none;stroke:#000000;stroke-width:50;stroke-linecap:round;stroke-linejoin:round;" transform="scale(1, 1) translate(0, 0)">
    <path d="M 144.0,359.0 L 207.0,363.0 L 368.0,322.0 L 420.0,320.0"/>
    <path d="M 107.0,498.0 L 128.0,519.0 L 137.0,548.0 L 137.0,707.0 L 125.0,864.0 L 129.0,914.0"/>
    <path d="M 152.0,512.0 L 169.0,518.0 L 189.0,516.0 L 366.0,478.0 L 389.0,481.0 L 413.0,502.0 L 419.0,829.0 L 407.0,869.0 L 408.0,918.0"/>
    <path d="M 211.0,384.0 L 235.0,400.0 L 233.0,527.0 L 211.0,617.0 L 169.0,690.0"/>
    <path d="M 306.0,364.0 L 328.0,382.0 L 310.0,559.0 L 318.0,618.0 L 329.0,633.0 L 347.0,641.0 L 380.0,641.0 L 390.0,635.0"/>
    <path d="M 196.0,760.0 L 298.0,738.0 L 332.0,742.0"/>
    <path d="M 153.0,877.0 L 176.0,862.0 L 332.0,840.0 L 363.0,842.0"/>
    <path d="M 496.0,331.0 L 521.0,356.0 L 533.0,378.0 L 538.0,424.0 L 531.0,732.0 L 523.0,820.0 L 507.0,904.0 L 507.0,959.0"/>
    <path d="M 543.0,338.0 L 574.0,349.0 L 793.0,300.0 L 828.0,311.0 L 851.0,337.0 L 864.0,788.0 L 865.0,870.0 L 859.0,921.0 L 845.0,956.0 L 818.0,955.0 L 718.0,925.0"/>
    <path d="M 595.0,485.0 L 637.0,486.0 L 728.0,463.0 L 756.0,464.0"/>
    <path d="M 583.0,591.0 L 609.0,620.0 L 637.0,758.0"/>
    <path d="M 626.0,591.0 L 636.0,598.0 L 723.0,577.0 L 742.0,582.0 L 757.0,599.0 L 755.0,610.0 L 741.0,671.0 L 723.0,686.0"/>
    <path d="M 655.0,731.0 L 668.0,720.0 L 712.0,710.0 L 771.0,712.0"/>
  </g>
</svg>
