<svg xmlns="http://www.w3.org/2000/svg" viewBox="0 0 1024 1024">
  <g style="fill:none;stroke:#000000;stroke-width:50;stroke-linecap:round;stroke-linejoin:round;" transform="scale(1, 1) translate(0, 0)">
    <path d="M 141.0,331.0 L 151.0,336.0 L 193.0,336.0 L 382.0,292.0 L 432.0,288.0"/>
    <path d="M 109.0,466.0 L 137.0,495.0 L 140.0,513.0 L 137.0,729.0 L 123.0,852.0 L 129.0,895.0"/>
    <path d="M 166.0,488.0 L 195.0,491.0 L 370.0,447.0 L 395.0,451.0 L 418.0,471.0 L 425.0,595.0 L 426.0,823.0 L 414.0,864.0 L 416.0,914.0"/>
    <path d="M 209.0,359.0 L 231.0,373.0 L 235.0,383.0 L 242.0,454.0 L 240.0,518.0 L 220.0,604.0 L 201.0,639.0 L 202.0,648.0 L 188.0,666.0"/>
    <path d="M 294.0,342.0 L 321.0,356.0 L 324.0,375.0 L 310.0,534.0 L 314.0,582.0 L 322.0,605.0 L 337.0,623.0 L 374.0,630.0 L 382.0,625.0"/>
    <path d="M 193.0,732.0 L 308.0,709.0 L 344.0,715.0"/>
    <path d="M 156.0,868.0 L 176.0,855.0 L 221.0,847.0 L 320.0,833.0 L 369.0,836.0"/>
    <path d="M 757.0,247.0 L 743.0,242.0 L 699.0,243.0 L 633.0,298.0 L 495.0,370.0"/>
    <path d="M 511.0,414.0 L 574.0,476.0 L 582.0,507.0"/>
    <path d="M 619.0,374.0 L 662.0,419.0 L 674.0,444.0"/>
    <path d="M 821.0,331.0 L 836.0,351.0 L 841.0,371.0 L 777.0,428.0 L 728.0,461.0 L 723.0,471.0"/>
    <path d="M 473.0,644.0 L 526.0,650.0 L 604.0,633.0 L 842.0,601.0 L 877.0,603.0 L 924.0,616.0"/>
    <path d="M 681.0,507.0 L 725.0,551.0 L 729.0,880.0 L 723.0,932.0 L 707.0,959.0 L 699.0,958.0 L 594.0,907.0"/>
    <path d="M 535.0,702.0 L 595.0,750.0 L 615.0,790.0"/>
  </g>
</svg>
