<svg xmlns="http://www.w3.org/2000/svg" viewBox="0 0 1024 1024">
  <g style="fill:none;stroke:#000000;stroke-width:50;stroke-linecap:round;stroke-linejoin:round;" transform="scale(1, 1) translate(0, 0)">
    <path d="M 152.0,339.0 L 210.0,344.0 L 384.0,300.0 L 436.0,297.0"/>
    <path d="M 111.0,498.0 L 127.0,512.0 L 142.0,540.0 L 145.0,593.0 L 144.0,708.0 L 122.0,885.0 L 124.0,920.0"/>
    <path d="M 164.0,514.0 L 176.0,520.0 L 223.0,511.0 L 373.0,472.0 L 411.0,479.0 L 429.0,499.0 L 430.0,817.0 L 421.0,876.0 L 428.0,945.0"/>
    <path d="M 225.0,363.0 L 252.0,387.0 L 255.0,514.0 L 237.0,601.0 L 208.0,673.0 L 194.0,693.0"/>
    <path d="M 305.0,346.0 L 333.0,365.0 L 318.0,563.0 L 324.0,614.0 L 345.0,650.0 L 368.0,659.0 L 385.0,658.0 L 396.0,666.0"/>
    <path d="M 207.0,769.0 L 319.0,748.0 L 348.0,753.0"/>
    <path d="M 148.0,889.0 L 177.0,872.0 L 332.0,853.0 L 380.0,855.0"/>
    <path d="M 627.0,185.0 L 644.0,203.0 L 652.0,220.0 L 649.0,230.0 L 593.0,331.0 L 554.0,380.0 L 538.0,424.0 L 579.0,425.0 L 756.0,387.0 L 784.0,391.0"/>
    <path d="M 730.0,295.0 L 819.0,380.0 L 835.0,406.0 L 843.0,438.0"/>
    <path d="M 590.0,511.0 L 568.0,519.0 L 522.0,582.0 L 459.0,634.0"/>
    <path d="M 728.0,485.0 L 808.0,521.0 L 839.0,542.0 L 867.0,578.0"/>
    <path d="M 638.0,588.0 L 612.0,599.0 L 552.0,701.0 L 462.0,801.0"/>
    <path d="M 603.0,676.0 L 625.0,663.0 L 700.0,643.0 L 732.0,647.0 L 749.0,657.0 L 709.0,782.0 L 685.0,831.0 L 650.0,880.0 L 564.0,944.0 L 468.0,971.0"/>
    <path d="M 564.0,724.0 L 568.0,738.0 L 648.0,831.0 L 788.0,955.0 L 843.0,974.0 L 959.0,996.0"/>
  </g>
</svg>
