<svg xmlns="http://www.w3.org/2000/svg" viewBox="0 0 1024 1024">
  <g style="fill:none;stroke:#000000;stroke-width:50;stroke-linecap:round;stroke-linejoin:round;" transform="scale(1, 1) translate(0, 0)">
    <path d="M 94.0,360.0 L 155.0,369.0 L 375.0,332.0 L 421.0,331.0"/>
    <path d="M 67.0,505.0 L 93.0,533.0 L 99.0,561.0 L 101.0,670.0 L 89.0,860.0 L 93.0,914.0"/>
    <path d="M 120.0,524.0 L 133.0,528.0 L 222.0,512.0 L 332.0,483.0 L 355.0,486.0 L 382.0,513.0 L 385.0,798.0 L 381.0,860.0 L 371.0,896.0 L 372.0,942.0"/>
    <path d="M 168.0,391.0 L 194.0,408.0 L 202.0,531.0 L 196.0,588.0 L 181.0,642.0 L 152.0,705.0"/>
    <path d="M 265.0,380.0 L 290.0,394.0 L 275.0,521.0 L 275.0,613.0 L 282.0,639.0 L 293.0,653.0 L 303.0,660.0 L 339.0,661.0"/>
    <path d="M 159.0,781.0 L 274.0,760.0 L 312.0,764.0"/>
    <path d="M 116.0,886.0 L 137.0,877.0 L 224.0,866.0 L 338.0,862.0"/>
    <path d="M 477.0,403.0 L 500.0,409.0 L 571.0,404.0 L 729.0,364.0 L 792.0,360.0"/>
    <path d="M 668.0,222.0 L 630.0,239.0 L 613.0,368.0 L 567.0,487.0 L 519.0,561.0 L 425.0,660.0"/>
    <path d="M 660.0,406.0 L 678.0,416.0 L 775.0,514.0 L 833.0,559.0 L 885.0,575.0 L 963.0,589.0 L 987.0,587.0"/>
    <path d="M 458.0,655.0 L 476.0,663.0 L 485.0,677.0 L 513.0,859.0"/>
    <path d="M 514.0,656.0 L 524.0,663.0 L 732.0,623.0 L 760.0,626.0 L 772.0,634.0 L 789.0,660.0 L 786.0,670.0 L 737.0,812.0 L 729.0,826.0 L 710.0,828.0"/>
    <path d="M 548.0,745.0 L 661.0,717.0 L 697.0,720.0"/>
    <path d="M 527.0,840.0 L 548.0,830.0 L 700.0,806.0"/>
    <path d="M 603.0,563.0 L 627.0,594.0 L 610.0,851.0 L 622.0,930.0 L 638.0,970.0 L 663.0,988.0 L 735.0,1004.0 L 799.0,1000.0 L 854.0,985.0 L 889.0,957.0 L 890.0,853.0"/>
  </g>
</svg>
