<svg xmlns="http://www.w3.org/2000/svg" viewBox="0 0 1024 1024">
  <g style="fill:none;stroke:#000000;stroke-width:50;stroke-linecap:round;stroke-linejoin:round;" transform="scale(1, 1) translate(0, 0)">
    <path d="M 113.0,359.0 L 135.0,365.0 L 185.0,363.0 L 358.0,322.0 L 386.0,317.0 L 415.0,321.0"/>
    <path d="M 85.0,522.0 L 111.0,550.0 L 116.0,574.0 L 115.0,711.0 L 101.0,866.0 L 105.0,923.0"/>
    <path d="M 140.0,539.0 L 151.0,545.0 L 344.0,499.0 L 379.0,507.0 L 395.0,526.0 L 397.0,796.0 L 386.0,874.0 L 392.0,941.0"/>
    <path d="M 190.0,385.0 L 221.0,409.0 L 224.0,516.0 L 203.0,630.0 L 165.0,707.0"/>
    <path d="M 274.0,371.0 L 292.0,379.0 L 306.0,394.0 L 292.0,592.0 L 298.0,640.0 L 307.0,661.0 L 324.0,677.0 L 348.0,678.0 L 364.0,670.0"/>
    <path d="M 164.0,792.0 L 264.0,768.0 L 299.0,764.0 L 320.0,769.0"/>
    <path d="M 131.0,897.0 L 143.0,888.0 L 308.0,862.0 L 326.0,862.0 L 335.0,873.0"/>
    <path d="M 501.0,291.0 L 519.0,296.0 L 546.0,293.0 L 744.0,246.0 L 796.0,244.0 L 828.0,266.0 L 775.0,341.0"/>
    <path d="M 641.0,292.0 L 665.0,310.0 L 670.0,322.0 L 669.0,469.0 L 684.0,495.0"/>
    <path d="M 699.0,414.0 L 713.0,403.0 L 767.0,393.0 L 797.0,391.0 L 819.0,398.0"/>
    <path d="M 531.0,384.0 L 554.0,413.0 L 544.0,448.0 L 502.0,533.0 L 449.0,590.0"/>
    <path d="M 581.0,455.0 L 581.0,464.0 L 682.0,522.0 L 817.0,579.0 L 877.0,580.0 L 975.0,567.0"/>
    <path d="M 522.0,636.0 L 548.0,662.0 L 553.0,750.0 L 537.0,913.0 L 519.0,991.0 L 515.0,1038.0"/>
    <path d="M 584.0,667.0 L 590.0,658.0 L 723.0,625.0 L 741.0,631.0 L 766.0,656.0 L 766.0,787.0 L 777.0,933.0 L 770.0,997.0 L 755.0,1018.0 L 741.0,1016.0 L 649.0,976.0"/>
    <path d="M 573.0,765.0 L 587.0,754.0 L 643.0,743.0 L 682.0,739.0 L 703.0,745.0"/>
    <path d="M 566.0,862.0 L 580.0,852.0 L 658.0,839.0 L 702.0,844.0"/>
  </g>
</svg>
