<svg xmlns="http://www.w3.org/2000/svg" viewBox="0 0 1024 1024">
  <g style="fill:none;stroke:#000000;stroke-width:50;stroke-linecap:round;stroke-linejoin:round;" transform="scale(1, 1) translate(0, 0)">
    <path d="M 113.0,355.0 L 169.0,362.0 L 390.0,319.0 L 432.0,320.0"/>
    <path d="M 87.0,498.0 L 112.0,526.0 L 118.0,553.0 L 118.0,699.0 L 105.0,870.0 L 109.0,930.0"/>
    <path d="M 139.0,516.0 L 154.0,522.0 L 195.0,517.0 L 363.0,479.0 L 391.0,494.0 L 406.0,510.0 L 403.0,633.0 L 409.0,847.0 L 394.0,897.0 L 396.0,946.0"/>
    <path d="M 199.0,384.0 L 223.0,403.0 L 224.0,533.0 L 195.0,645.0 L 162.0,701.0"/>
    <path d="M 284.0,368.0 L 314.0,387.0 L 300.0,574.0 L 308.0,626.0 L 324.0,653.0 L 333.0,658.0 L 359.0,663.0 L 378.0,654.0"/>
    <path d="M 188.0,776.0 L 285.0,754.0 L 320.0,758.0"/>
    <path d="M 134.0,894.0 L 154.0,884.0 L 304.0,865.0 L 355.0,870.0"/>
    <path d="M 618.0,209.0 L 647.0,237.0 L 644.0,251.0 L 569.0,363.0 L 540.0,402.0 L 530.0,405.0"/>
    <path d="M 457.0,415.0 L 488.0,452.0 L 528.0,638.0"/>
    <path d="M 505.0,422.0 L 522.0,429.0 L 735.0,383.0 L 768.0,383.0 L 786.0,393.0 L 804.0,424.0 L 780.0,480.0 L 739.0,611.0"/>
    <path d="M 555.0,521.0 L 601.0,516.0 L 678.0,496.0 L 716.0,500.0"/>
    <path d="M 608.0,426.0 L 630.0,443.0 L 634.0,453.0 L 633.0,563.0 L 619.0,585.0"/>
    <path d="M 545.0,625.0 L 552.0,618.0 L 718.0,589.0"/>
    <path d="M 541.0,650.0 L 557.0,664.0 L 565.0,683.0 L 547.0,737.0 L 511.0,811.0 L 433.0,913.0"/>
    <path d="M 628.0,638.0 L 649.0,662.0 L 652.0,681.0 L 638.0,829.0 L 642.0,901.0 L 655.0,941.0 L 687.0,967.0 L 745.0,984.0 L 806.0,986.0 L 861.0,979.0 L 895.0,965.0 L 917.0,948.0 L 921.0,938.0 L 922.0,821.0"/>
    <path d="M 760.0,668.0 L 779.0,701.0 L 719.0,810.0 L 714.0,837.0 L 745.0,839.0 L 821.0,819.0 L 826.0,825.0"/>
    <path d="M 818.0,766.0 L 854.0,820.0 L 861.0,850.0"/>
  </g>
</svg>
