<svg xmlns="http://www.w3.org/2000/svg" viewBox="0 0 1024 1024">
  <g style="fill:none;stroke:#000000;stroke-width:50;stroke-linecap:round;stroke-linejoin:round;" transform="scale(1, 1) translate(0, 0)">
    <path d="M 129.0,351.0 L 173.0,359.0 L 250.0,348.0 L 347.0,324.0 L 400.0,324.0"/>
    <path d="M 87.0,470.0 L 111.0,496.0 L 117.0,521.0 L 118.0,607.0 L 105.0,812.0 L 109.0,866.0"/>
    <path d="M 132.0,484.0 L 148.0,491.0 L 186.0,487.0 L 341.0,453.0 L 360.0,455.0 L 389.0,482.0 L 384.0,727.0 L 380.0,792.0 L 366.0,826.0 L 369.0,875.0"/>
    <path d="M 188.0,384.0 L 211.0,397.0 L 217.0,500.0 L 199.0,597.0 L 175.0,659.0 L 160.0,678.0"/>
    <path d="M 268.0,370.0 L 297.0,391.0 L 280.0,539.0 L 283.0,591.0 L 302.0,619.0 L 324.0,626.0 L 340.0,624.0"/>
    <path d="M 179.0,721.0 L 279.0,703.0 L 312.0,708.0"/>
    <path d="M 135.0,825.0 L 148.0,813.0 L 169.0,808.0 L 280.0,793.0 L 333.0,801.0"/>
    <path d="M 597.0,211.0 L 683.0,255.0 L 711.0,290.0"/>
    <path d="M 541.0,392.0 L 560.0,404.0 L 599.0,401.0 L 668.0,389.0 L 798.0,354.0 L 831.0,357.0"/>
    <path d="M 478.0,381.0 L 509.0,408.0 L 515.0,425.0 L 508.0,569.0 L 492.0,694.0 L 455.0,823.0 L 420.0,898.0 L 356.0,994.0"/>
    <path d="M 544.0,530.0 L 596.0,532.0 L 707.0,511.0 L 759.0,495.0 L 778.0,494.0 L 794.0,501.0 L 817.0,526.0 L 816.0,534.0 L 782.0,659.0 L 759.0,675.0"/>
    <path d="M 534.0,646.0 L 541.0,639.0 L 608.0,629.0 L 870.0,597.0 L 919.0,603.0 L 940.0,615.0"/>
    <path d="M 547.0,729.0 L 586.0,730.0 L 756.0,700.0 L 793.0,700.0 L 814.0,707.0"/>
    <path d="M 633.0,432.0 L 661.0,447.0 L 674.0,469.0 L 676.0,640.0 L 669.0,778.0"/>
    <path d="M 522.0,813.0 L 550.0,837.0 L 555.0,852.0 L 584.0,1017.0"/>
    <path d="M 584.0,838.0 L 600.0,827.0 L 670.0,820.0 L 773.0,798.0 L 801.0,806.0 L 827.0,833.0 L 800.0,910.0 L 774.0,927.0"/>
    <path d="M 603.0,989.0 L 619.0,975.0 L 771.0,954.0 L 815.0,957.0 L 833.0,965.0"/>
  </g>
</svg>
