<svg xmlns="http://www.w3.org/2000/svg" viewBox="0 0 1024 1024">
  <g style="fill:none;stroke:#000000;stroke-width:50;stroke-linecap:round;stroke-linejoin:round;" transform="scale(1, 1) translate(0, 0)">
    <path d="M 273.0,240.0 L 286.0,259.0 L 291.0,281.0 L 283.0,351.0 L 306.0,356.0 L 388.0,336.0 L 394.0,327.0"/>
    <path d="M 394.0,179.0 L 427.0,214.0 L 415.0,585.0"/>
    <path d="M 160.0,474.0 L 180.0,479.0 L 217.0,476.0 L 324.0,447.0 L 384.0,438.0 L 394.0,430.0"/>
    <path d="M 278.0,482.0 L 291.0,498.0 L 278.0,528.0 L 239.0,589.0 L 190.0,633.0"/>
    <path d="M 639.0,161.0 L 647.0,191.0 L 616.0,227.0 L 549.0,278.0 L 490.0,303.0"/>
    <path d="M 644.0,230.0 L 744.0,223.0 L 762.0,224.0 L 787.0,237.0 L 739.0,290.0 L 667.0,338.0 L 566.0,387.0 L 508.0,404.0"/>
    <path d="M 598.0,277.0 L 607.0,275.0 L 626.0,290.0 L 639.0,311.0"/>
    <path d="M 538.0,303.0 L 550.0,305.0 L 575.0,343.0"/>
    <path d="M 475.0,458.0 L 504.0,460.0 L 620.0,435.0 L 791.0,410.0 L 830.0,410.0 L 869.0,419.0"/>
    <path d="M 710.0,351.0 L 724.0,370.0 L 730.0,393.0 L 728.0,523.0 L 714.0,549.0 L 642.0,523.0"/>
    <path d="M 546.0,488.0 L 569.0,504.0 L 591.0,531.0"/>
    <path d="M 122.0,684.0 L 176.0,694.0 L 408.0,661.0 L 851.0,629.0 L 927.0,648.0"/>
    <path d="M 296.0,755.0 L 319.0,779.0 L 325.0,804.0 L 320.0,1023.0 L 325.0,1074.0"/>
    <path d="M 345.0,769.0 L 364.0,781.0 L 376.0,780.0 L 659.0,737.0 L 674.0,738.0 L 700.0,753.0 L 717.0,775.0 L 716.0,1011.0 L 703.0,1045.0 L 646.0,1031.0"/>
    <path d="M 432.0,679.0 L 455.0,701.0 L 451.0,772.0 L 432.0,845.0 L 398.0,893.0"/>
    <path d="M 528.0,669.0 L 561.0,690.0 L 553.0,789.0 L 554.0,816.0 L 563.0,841.0 L 574.0,852.0 L 598.0,858.0 L 659.0,855.0"/>
    <path d="M 412.0,942.0 L 539.0,926.0 L 564.0,925.0 L 584.0,932.0"/>
    <path d="M 349.0,1036.0 L 361.0,1028.0 L 395.0,1023.0 L 596.0,1006.0 L 659.0,1010.0"/>
  </g>
</svg>
