<svg xmlns="http://www.w3.org/2000/svg" viewBox="0 0 1024 1024">
  <g style="fill:none;stroke:#000000;stroke-width:50;stroke-linecap:round;stroke-linejoin:round;" transform="scale(1, 1) translate(0, 0)">
    <path d="M 287.0,230.0 L 303.0,235.0 L 335.0,232.0 L 395.0,220.0 L 472.0,194.0 L 511.0,193.0"/>
    <path d="M 359.0,269.0 L 372.0,296.0 L 357.0,330.0 L 318.0,378.0"/>
    <path d="M 380.0,323.0 L 425.0,321.0 L 481.0,301.0 L 506.0,299.0"/>
    <path d="M 323.0,422.0 L 347.0,422.0 L 485.0,390.0 L 522.0,391.0"/>
    <path d="M 413.0,340.0 L 431.0,357.0 L 416.0,432.0 L 387.0,477.0 L 332.0,517.0"/>
    <path d="M 465.0,447.0 L 512.0,466.0 L 530.0,485.0"/>
    <path d="M 242.0,215.0 L 266.0,241.0 L 271.0,263.0 L 271.0,420.0 L 261.0,573.0 L 285.0,576.0 L 400.0,552.0 L 475.0,546.0 L 505.0,553.0"/>
    <path d="M 583.0,198.0 L 601.0,219.0 L 604.0,257.0 L 587.0,331.0 L 562.0,373.0"/>
    <path d="M 626.0,224.0 L 637.0,210.0 L 656.0,202.0 L 690.0,192.0 L 717.0,196.0 L 728.0,208.0 L 716.0,236.0 L 705.0,292.0 L 706.0,309.0 L 715.0,322.0 L 753.0,333.0 L 813.0,317.0 L 841.0,320.0"/>
    <path d="M 574.0,407.0 L 645.0,404.0 L 693.0,386.0 L 721.0,389.0 L 734.0,398.0 L 707.0,461.0 L 667.0,509.0 L 620.0,535.0 L 556.0,550.0"/>
    <path d="M 582.0,463.0 L 664.0,482.0 L 738.0,509.0 L 759.0,521.0 L 780.0,545.0"/>
    <path d="M 110.0,676.0 L 157.0,685.0 L 443.0,641.0 L 829.0,603.0 L 873.0,605.0 L 928.0,621.0"/>
    <path d="M 292.0,734.0 L 316.0,759.0 L 322.0,784.0 L 319.0,1000.0 L 325.0,1053.0"/>
    <path d="M 342.0,749.0 L 357.0,759.0 L 423.0,751.0 L 661.0,704.0 L 676.0,703.0 L 705.0,718.0 L 720.0,738.0 L 719.0,965.0 L 704.0,1024.0 L 705.0,1078.0"/>
    <path d="M 417.0,663.0 L 444.0,681.0 L 440.0,748.0 L 419.0,821.0 L 390.0,865.0"/>
    <path d="M 523.0,654.0 L 540.0,662.0 L 554.0,678.0 L 544.0,765.0 L 552.0,818.0 L 567.0,829.0 L 594.0,834.0 L 655.0,831.0"/>
    <path d="M 412.0,921.0 L 544.0,909.0 L 579.0,916.0"/>
    <path d="M 352.0,1015.0 L 367.0,1005.0 L 441.0,997.0 L 616.0,982.0 L 651.0,985.0"/>
  </g>
</svg>
