<svg xmlns="http://www.w3.org/2000/svg" viewBox="0 0 1024 1024">
  <g style="fill:none;stroke:#000000;stroke-width:50;stroke-linecap:round;stroke-linejoin:round;" transform="scale(1, 1) translate(0, 0)">
    <path d="M 132.0,362.0 L 177.0,368.0 L 210.0,364.0 L 395.0,321.0 L 433.0,322.0"/>
    <path d="M 91.0,510.0 L 114.0,533.0 L 122.0,561.0 L 123.0,702.0 L 109.0,881.0 L 113.0,934.0"/>
    <path d="M 136.0,520.0 L 154.0,529.0 L 209.0,521.0 L 354.0,486.0 L 385.0,489.0 L 413.0,517.0 L 408.0,854.0 L 395.0,885.0 L 366.0,876.0 L 323.0,842.0"/>
    <path d="M 189.0,386.0 L 219.0,409.0 L 224.0,534.0 L 194.0,657.0 L 164.0,714.0"/>
    <path d="M 284.0,369.0 L 313.0,389.0 L 304.0,522.0 L 299.0,529.0 L 302.0,617.0 L 310.0,641.0 L 325.0,660.0 L 347.0,666.0 L 372.0,665.0 L 380.0,658.0"/>
    <path d="M 176.0,781.0 L 303.0,755.0 L 324.0,759.0"/>
    <path d="M 139.0,894.0 L 157.0,881.0 L 305.0,861.0 L 334.0,882.0"/>
    <path d="M 592.0,198.0 L 665.0,244.0 L 684.0,279.0"/>
    <path d="M 497.0,363.0 L 520.0,369.0 L 574.0,366.0 L 780.0,314.0 L 832.0,312.0"/>
    <path d="M 644.0,401.0 L 612.0,407.0 L 578.0,461.0 L 559.0,480.0 L 553.0,505.0 L 580.0,506.0 L 743.0,465.0 L 758.0,469.0"/>
    <path d="M 728.0,414.0 L 783.0,456.0 L 805.0,496.0"/>
    <path d="M 516.0,578.0 L 539.0,602.0 L 536.0,643.0 L 520.0,700.0 L 499.0,734.0 L 444.0,773.0"/>
    <path d="M 624.0,552.0 L 639.0,571.0 L 642.0,585.0 L 637.0,726.0"/>
    <path d="M 719.0,520.0 L 733.0,534.0 L 741.0,560.0 L 736.0,599.0 L 739.0,665.0 L 749.0,683.0 L 763.0,691.0 L 798.0,700.0 L 860.0,696.0 L 900.0,678.0 L 911.0,664.0 L 914.0,581.0"/>
    <path d="M 481.0,799.0 L 501.0,816.0 L 512.0,836.0 L 533.0,939.0 L 545.0,960.0"/>
    <path d="M 525.0,803.0 L 544.0,811.0 L 624.0,791.0 L 651.0,791.0 L 770.0,769.0 L 804.0,773.0 L 826.0,798.0 L 827.0,813.0 L 797.0,908.0 L 778.0,929.0 L 764.0,933.0"/>
    <path d="M 596.0,818.0 L 595.0,851.0 L 611.0,942.0 L 619.0,955.0"/>
    <path d="M 671.0,802.0 L 695.0,823.0 L 680.0,929.0 L 668.0,953.0"/>
    <path d="M 432.0,982.0 L 466.0,990.0 L 657.0,968.0 L 865.0,953.0 L 903.0,957.0 L 945.0,972.0"/>
  </g>
</svg>
