<svg xmlns="http://www.w3.org/2000/svg" viewBox="0 0 1024 1024">
  <g style="fill:none;stroke:#000000;stroke-width:50;stroke-linecap:round;stroke-linejoin:round;" transform="scale(1, 1) translate(0, 0)">
    <path d="M 144.0,329.0 L 174.0,334.0 L 217.0,331.0 L 320.0,309.0 L 373.0,290.0 L 435.0,287.0"/>
    <path d="M 105.0,473.0 L 127.0,499.0 L 132.0,533.0 L 132.0,666.0 L 117.0,831.0 L 121.0,887.0"/>
    <path d="M 155.0,488.0 L 171.0,494.0 L 355.0,458.0 L 385.0,463.0 L 406.0,480.0 L 409.0,764.0 L 399.0,839.0 L 405.0,901.0"/>
    <path d="M 197.0,352.0 L 224.0,372.0 L 222.0,495.0 L 198.0,597.0 L 165.0,654.0"/>
    <path d="M 290.0,338.0 L 318.0,359.0 L 302.0,517.0 L 311.0,583.0 L 328.0,605.0 L 368.0,603.0 L 374.0,596.0"/>
    <path d="M 171.0,733.0 L 296.0,711.0 L 337.0,716.0"/>
    <path d="M 143.0,863.0 L 158.0,849.0 L 180.0,843.0 L 301.0,821.0 L 358.0,817.0"/>
    <path d="M 572.0,224.0 L 594.0,239.0 L 607.0,260.0 L 591.0,307.0 L 554.0,393.0 L 508.0,477.0 L 481.0,521.0 L 445.0,563.0"/>
    <path d="M 536.0,480.0 L 543.0,596.0 L 530.0,757.0 L 536.0,810.0"/>
    <path d="M 673.0,269.0 L 740.0,310.0 L 754.0,335.0"/>
    <path d="M 592.0,442.0 L 648.0,445.0 L 805.0,409.0 L 833.0,410.0"/>
    <path d="M 615.0,552.0 L 659.0,555.0 L 778.0,525.0 L 816.0,526.0"/>
    <path d="M 611.0,644.0 L 658.0,646.0 L 740.0,631.0 L 777.0,616.0 L 817.0,618.0"/>
    <path d="M 684.0,462.0 L 707.0,476.0 L 713.0,507.0 L 710.0,699.0 L 696.0,722.0"/>
    <path d="M 568.0,758.0 L 574.0,765.0 L 593.0,767.0 L 798.0,732.0 L 875.0,743.0"/>
    <path d="M 504.0,873.0 L 481.0,941.0 L 455.0,981.0 L 446.0,1008.0"/>
    <path d="M 593.0,881.0 L 617.0,942.0 L 618.0,961.0"/>
    <path d="M 690.0,871.0 L 723.0,918.0 L 732.0,941.0"/>
    <path d="M 803.0,840.0 L 889.0,926.0 L 910.0,958.0 L 921.0,1000.0"/>
  </g>
</svg>
