<svg xmlns="http://www.w3.org/2000/svg" viewBox="0 0 1024 1024">
  <g style="fill:none;stroke:#000000;stroke-width:50;stroke-linecap:round;stroke-linejoin:round;" transform="scale(1, 1) translate(0, 0)">
    <path d="M 121.0,361.0 L 189.0,365.0 L 369.0,325.0 L 401.0,327.0"/>
    <path d="M 80.0,511.0 L 99.0,530.0 L 108.0,550.0 L 112.0,703.0 L 103.0,865.0 L 109.0,902.0"/>
    <path d="M 131.0,525.0 L 152.0,530.0 L 363.0,487.0 L 385.0,491.0 L 405.0,509.0 L 410.0,791.0 L 397.0,871.0 L 405.0,937.0"/>
    <path d="M 179.0,389.0 L 205.0,408.0 L 212.0,527.0 L 196.0,618.0 L 165.0,685.0"/>
    <path d="M 279.0,368.0 L 307.0,388.0 L 294.0,524.0 L 301.0,615.0 L 318.0,646.0 L 328.0,651.0 L 365.0,650.0"/>
    <path d="M 172.0,761.0 L 293.0,742.0 L 324.0,747.0"/>
    <path d="M 133.0,873.0 L 211.0,856.0 L 308.0,845.0 L 365.0,845.0"/>
    <path d="M 449.0,347.0 L 466.0,362.0 L 481.0,390.0 L 520.0,587.0"/>
    <path d="M 481.0,349.0 L 508.0,358.0 L 742.0,325.0 L 806.0,322.0 L 824.0,327.0 L 850.0,358.0 L 799.0,530.0 L 790.0,541.0 L 769.0,529.0"/>
    <path d="M 555.0,445.0 L 582.0,447.0 L 726.0,427.0 L 752.0,434.0"/>
    <path d="M 547.0,265.0 L 578.0,294.0 L 582.0,305.0 L 598.0,518.0 L 598.0,526.0 L 588.0,535.0"/>
    <path d="M 679.0,187.0 L 706.0,209.0 L 715.0,223.0 L 715.0,240.0 L 693.0,497.0 L 678.0,522.0"/>
    <path d="M 539.0,567.0 L 546.0,560.0 L 718.0,537.0 L 745.0,536.0 L 754.0,544.0"/>
    <path d="M 549.0,627.0 L 583.0,634.0 L 710.0,612.0 L 747.0,612.0"/>
    <path d="M 510.0,703.0 L 539.0,732.0 L 565.0,847.0"/>
    <path d="M 559.0,709.0 L 569.0,716.0 L 696.0,690.0 L 739.0,693.0 L 759.0,718.0 L 742.0,757.0 L 722.0,764.0"/>
    <path d="M 580.0,825.0 L 594.0,815.0 L 697.0,797.0 L 743.0,797.0 L 762.0,803.0"/>
    <path d="M 533.0,878.0 L 576.0,922.0 L 584.0,947.0"/>
    <path d="M 722.0,834.0 L 734.0,851.0 L 738.0,871.0 L 711.0,925.0 L 687.0,953.0"/>
    <path d="M 417.0,990.0 L 467.0,998.0 L 654.0,973.0 L 836.0,959.0 L 879.0,962.0 L 925.0,979.0"/>
  </g>
</svg>
