<svg xmlns="http://www.w3.org/2000/svg" viewBox="0 0 1024 1024">
  <g style="fill:none;stroke:#000000;stroke-width:50;stroke-linecap:round;stroke-linejoin:round;" transform="scale(1, 1) translate(0, 0)">
    <path d="M 220.0,323.0 L 255.0,330.0 L 373.0,308.0 L 407.0,296.0 L 447.0,298.0"/>
    <path d="M 129.0,425.0 L 183.0,429.0 L 406.0,376.0 L 459.0,377.0"/>
    <path d="M 329.0,192.0 L 357.0,222.0 L 341.0,443.0 L 343.0,536.0"/>
    <path d="M 322.0,414.0 L 247.0,502.0 L 207.0,539.0 L 127.0,585.0"/>
    <path d="M 361.0,442.0 L 427.0,478.0 L 447.0,501.0"/>
    <path d="M 568.0,181.0 L 587.0,198.0 L 596.0,216.0 L 579.0,263.0 L 540.0,337.0 L 473.0,425.0"/>
    <path d="M 593.0,301.0 L 606.0,294.0 L 647.0,292.0 L 738.0,269.0 L 791.0,266.0"/>
    <path d="M 672.0,309.0 L 692.0,336.0 L 644.0,427.0 L 568.0,500.0 L 500.0,536.0"/>
    <path d="M 546.0,367.0 L 607.0,422.0 L 658.0,458.0 L 746.0,504.0 L 840.0,514.0 L 891.0,511.0"/>
    <path d="M 376.0,613.0 L 385.0,621.0 L 446.0,616.0 L 512.0,606.0 L 617.0,579.0 L 673.0,578.0"/>
    <path d="M 319.0,581.0 L 338.0,613.0 L 340.0,628.0 L 293.0,769.0 L 248.0,862.0 L 188.0,948.0 L 108.0,1027.0 L 74.0,1049.0"/>
    <path d="M 367.0,700.0 L 387.0,715.0 L 400.0,739.0 L 436.0,880.0"/>
    <path d="M 406.0,701.0 L 428.0,710.0 L 496.0,695.0 L 633.0,678.0 L 684.0,683.0 L 707.0,716.0 L 657.0,851.0 L 645.0,852.0"/>
    <path d="M 470.0,784.0 L 571.0,764.0 L 621.0,767.0"/>
    <path d="M 450.0,869.0 L 459.0,860.0 L 478.0,856.0 L 586.0,842.0 L 624.0,842.0 L 631.0,851.0"/>
    <path d="M 507.0,716.0 L 534.0,732.0 L 536.0,739.0 L 529.0,988.0 L 515.0,1006.0"/>
    <path d="M 416.0,944.0 L 497.0,947.0 L 599.0,924.0 L 646.0,925.0"/>
    <path d="M 251.0,1040.0 L 271.0,1048.0 L 309.0,1051.0 L 458.0,1035.0 L 772.0,1019.0 L 849.0,1042.0"/>
  </g>
</svg>
