<svg xmlns="http://www.w3.org/2000/svg" viewBox="0 0 1024 1024">
  <g style="fill:none;stroke:#000000;stroke-width:50;stroke-linecap:round;stroke-linejoin:round;" transform="scale(1, 1) translate(0, 0)">
    <path d="M 463.0,209.0 L 488.0,238.0 L 495.0,260.0 L 446.0,351.0 L 357.0,471.0 L 292.0,542.0 L 237.0,591.0 L 135.0,667.0 L 60.0,710.0"/>
    <path d="M 529.0,303.0 L 529.0,316.0 L 608.0,403.0 L 722.0,515.0 L 774.0,557.0 L 790.0,566.0 L 836.0,575.0 L 967.0,592.0"/>
    <path d="M 326.0,586.0 L 346.0,592.0 L 393.0,592.0 L 596.0,548.0 L 649.0,549.0"/>
    <path d="M 295.0,749.0 L 317.0,756.0 L 365.0,757.0 L 535.0,729.0 L 630.0,706.0 L 669.0,712.0"/>
    <path d="M 462.0,604.0 L 497.0,630.0 L 500.0,689.0 L 494.0,940.0 L 474.0,963.0"/>
    <path d="M 264.0,821.0 L 341.0,881.0 L 358.0,916.0"/>
    <path d="M 667.0,760.0 L 688.0,800.0 L 562.0,896.0"/>
    <path d="M 175.0,1010.0 L 230.0,1022.0 L 435.0,994.0 L 734.0,970.0 L 770.0,975.0 L 821.0,993.0"/>
  </g>
</svg>
