<svg xmlns="http://www.w3.org/2000/svg" viewBox="0 0 1024 1024">
  <g style="fill:none;stroke:#000000;stroke-width:50;stroke-linecap:round;stroke-linejoin:round;" transform="scale(1, 1) translate(0, 0)">
    <path d="M 331.0,214.0 L 349.0,228.0 L 369.0,263.0 L 322.0,356.0 L 258.0,463.0 L 188.0,560.0 L 121.0,640.0 L 64.0,692.0"/>
    <path d="M 366.0,347.0 L 381.0,346.0 L 432.0,372.0 L 461.0,391.0 L 485.0,424.0"/>
    <path d="M 223.0,570.0 L 299.0,566.0 L 417.0,528.0 L 453.0,533.0"/>
    <path d="M 188.0,725.0 L 232.0,720.0 L 399.0,673.0 L 435.0,670.0 L 460.0,675.0"/>
    <path d="M 306.0,590.0 L 335.0,613.0 L 337.0,634.0 L 334.0,885.0 L 318.0,907.0"/>
    <path d="M 170.0,794.0 L 238.0,839.0 L 254.0,870.0"/>
    <path d="M 437.0,738.0 L 456.0,763.0 L 392.0,842.0"/>
    <path d="M 116.0,972.0 L 172.0,988.0 L 361.0,923.0 L 502.0,866.0"/>
  </g>
</svg>
