<svg xmlns="http://www.w3.org/2000/svg" viewBox="0 0 1024 1024">
  <g style="fill:none;stroke:#000000;stroke-width:50;stroke-linecap:round;stroke-linejoin:round;" transform="scale(1, 1) translate(0, 0)">
    <path d="M 331.0,253.0 L 349.0,277.0 L 354.0,296.0 L 323.0,327.0 L 220.0,407.0 L 205.0,412.0 L 195.0,425.0"/>
    <path d="M 584.0,233.0 L 703.0,287.0 L 731.0,308.0 L 756.0,346.0"/>
    <path d="M 538.0,328.0 L 555.0,376.0 L 488.0,456.0 L 396.0,536.0 L 305.0,603.0 L 237.0,641.0 L 154.0,678.0 L 93.0,697.0"/>
    <path d="M 349.0,393.0 L 390.0,398.0 L 447.0,421.0 L 612.0,536.0 L 763.0,612.0 L 846.0,617.0 L 973.0,608.0"/>
    <path d="M 345.0,628.0 L 406.0,634.0 L 549.0,606.0 L 614.0,604.0"/>
    <path d="M 280.0,774.0 L 316.0,782.0 L 354.0,780.0 L 625.0,739.0 L 678.0,747.0"/>
    <path d="M 447.0,652.0 L 477.0,674.0 L 482.0,685.0 L 481.0,928.0 L 465.0,947.0"/>
    <path d="M 296.0,839.0 L 347.0,882.0 L 363.0,910.0"/>
    <path d="M 612.0,801.0 L 630.0,827.0 L 580.0,893.0 L 571.0,896.0 L 571.0,904.0"/>
    <path d="M 174.0,987.0 L 233.0,999.0 L 423.0,977.0 L 719.0,959.0 L 761.0,964.0 L 809.0,982.0"/>
  </g>
</svg>
