<svg xmlns="http://www.w3.org/2000/svg" viewBox="0 0 1024 1024">
  <g style="fill:none;stroke:#000000;stroke-width:50;stroke-linecap:round;stroke-linejoin:round;" transform="scale(1, 1) translate(0, 0)">
    <path d="M 316.0,239.0 L 333.0,252.0 L 354.0,285.0 L 323.0,357.0 L 269.0,457.0 L 192.0,580.0 L 127.0,664.0 L 71.0,721.0"/>
    <path d="M 359.0,357.0 L 376.0,355.0 L 434.0,383.0 L 466.0,407.0 L 491.0,442.0"/>
    <path d="M 234.0,591.0 L 277.0,590.0 L 400.0,548.0 L 437.0,546.0"/>
    <path d="M 214.0,723.0 L 262.0,722.0 L 409.0,665.0 L 431.0,660.0 L 455.0,663.0"/>
    <path d="M 324.0,603.0 L 347.0,623.0 L 348.0,641.0 L 346.0,867.0 L 340.0,886.0 L 328.0,896.0"/>
    <path d="M 185.0,795.0 L 236.0,831.0 L 254.0,868.0"/>
    <path d="M 439.0,725.0 L 457.0,749.0 L 395.0,839.0"/>
    <path d="M 105.0,973.0 L 126.0,984.0 L 162.0,991.0 L 388.0,906.0 L 496.0,859.0"/>
    <path d="M 511.0,596.0 L 539.0,618.0 L 559.0,649.0 L 578.0,823.0 L 596.0,889.0"/>
    <path d="M 566.0,603.0 L 596.0,616.0 L 792.0,573.0 L 830.0,582.0 L 859.0,616.0 L 812.0,758.0 L 776.0,790.0"/>
    <path d="M 615.0,857.0 L 627.0,842.0 L 765.0,819.0 L 821.0,818.0 L 849.0,827.0"/>
  </g>
</svg>
