<svg xmlns="http://www.w3.org/2000/svg" viewBox="0 0 1024 1024">
  <g style="fill:none;stroke:#000000;stroke-width:50;stroke-linecap:round;stroke-linejoin:round;" transform="scale(1, 1) translate(0, 0)">
    <path d="M 295.0,242.0 L 313.0,256.0 L 333.0,288.0 L 285.0,393.0 L 247.0,461.0 L 169.0,575.0 L 117.0,640.0 L 67.0,689.0"/>
    <path d="M 340.0,357.0 L 349.0,368.0 L 418.0,410.0 L 439.0,439.0"/>
    <path d="M 199.0,576.0 L 206.0,571.0 L 265.0,569.0 L 352.0,541.0 L 398.0,538.0"/>
    <path d="M 180.0,710.0 L 228.0,710.0 L 363.0,672.0 L 401.0,670.0"/>
    <path d="M 282.0,588.0 L 310.0,606.0 L 316.0,639.0 L 313.0,856.0 L 308.0,873.0 L 296.0,885.0"/>
    <path d="M 162.0,782.0 L 222.0,835.0 L 230.0,853.0"/>
    <path d="M 405.0,735.0 L 422.0,756.0 L 371.0,824.0"/>
    <path d="M 133.0,943.0 L 187.0,960.0 L 444.0,855.0"/>
    <path d="M 527.0,412.0 L 547.0,430.0 L 556.0,451.0 L 549.0,477.0 L 505.0,573.0 L 465.0,632.0 L 438.0,657.0"/>
    <path d="M 572.0,236.0 L 591.0,241.0 L 610.0,257.0 L 733.0,458.0 L 824.0,570.0 L 850.0,586.0 L 986.0,626.0"/>
    <path d="M 591.0,655.0 L 622.0,691.0 L 617.0,710.0 L 572.0,810.0 L 518.0,896.0 L 500.0,950.0 L 538.0,950.0 L 737.0,884.0 L 746.0,892.0"/>
    <path d="M 723.0,804.0 L 820.0,917.0 L 837.0,949.0 L 845.0,983.0"/>
  </g>
</svg>
