<svg xmlns="http://www.w3.org/2000/svg" viewBox="0 0 1024 1024">
  <g style="fill:none;stroke:#000000;stroke-width:50;stroke-linecap:round;stroke-linejoin:round;" transform="scale(1, 1) translate(0, 0)">
    <path d="M 308.0,192.0 L 334.0,218.0 L 346.0,242.0 L 312.0,312.0 L 226.0,455.0 L 135.0,570.0 L 56.0,649.0"/>
    <path d="M 353.0,317.0 L 370.0,317.0 L 430.0,345.0 L 451.0,360.0 L 471.0,387.0"/>
    <path d="M 227.0,523.0 L 295.0,523.0 L 376.0,496.0 L 432.0,494.0"/>
    <path d="M 200.0,661.0 L 260.0,661.0 L 396.0,622.0 L 440.0,619.0"/>
    <path d="M 302.0,548.0 L 330.0,571.0 L 326.0,797.0 L 308.0,826.0"/>
    <path d="M 152.0,727.0 L 219.0,780.0 L 230.0,806.0"/>
    <path d="M 427.0,671.0 L 443.0,695.0 L 383.0,767.0"/>
    <path d="M 122.0,893.0 L 181.0,909.0 L 452.0,798.0"/>
    <path d="M 610.0,243.0 L 638.0,266.0 L 649.0,290.0 L 636.0,331.0 L 599.0,413.0 L 555.0,491.0 L 482.0,585.0"/>
    <path d="M 587.0,489.0 L 797.0,439.0 L 828.0,448.0 L 860.0,483.0 L 834.0,798.0 L 813.0,902.0 L 793.0,955.0 L 769.0,985.0 L 749.0,998.0 L 623.0,934.0"/>
    <path d="M 552.0,623.0 L 580.0,627.0 L 692.0,610.0 L 721.0,613.0"/>
    <path d="M 516.0,771.0 L 578.0,774.0 L 690.0,748.0 L 732.0,748.0"/>
  </g>
</svg>
