<svg xmlns="http://www.w3.org/2000/svg" viewBox="0 0 1024 1024">
  <g style="fill:none;stroke:#000000;stroke-width:50;stroke-linecap:round;stroke-linejoin:round;" transform="scale(1, 1) translate(0, 0)">
    <path d="M 302.0,232.0 L 324.0,253.0 L 336.0,277.0 L 284.0,379.0 L 158.0,556.0 L 97.0,623.0 L 67.0,646.0"/>
    <path d="M 346.0,339.0 L 358.0,337.0 L 428.0,371.0 L 453.0,389.0 L 471.0,414.0"/>
    <path d="M 211.0,543.0 L 274.0,544.0 L 372.0,515.0 L 428.0,513.0"/>
    <path d="M 192.0,673.0 L 257.0,673.0 L 400.0,636.0 L 436.0,635.0"/>
    <path d="M 294.0,564.0 L 322.0,584.0 L 327.0,617.0 L 322.0,814.0 L 317.0,831.0 L 305.0,842.0"/>
    <path d="M 171.0,734.0 L 230.0,783.0 L 239.0,809.0"/>
    <path d="M 459.0,708.0 L 437.0,707.0 L 391.0,767.0"/>
    <path d="M 146.0,903.0 L 202.0,918.0 L 448.0,815.0"/>
    <path d="M 493.0,566.0 L 562.0,570.0 L 649.0,554.0 L 780.0,514.0 L 839.0,514.0"/>
    <path d="M 575.0,262.0 L 608.0,279.0 L 630.0,309.0 L 612.0,594.0 L 581.0,746.0 L 546.0,831.0 L 505.0,888.0 L 436.0,949.0 L 372.0,984.0"/>
    <path d="M 636.0,627.0 L 642.0,665.0 L 694.0,762.0 L 753.0,853.0 L 794.0,901.0 L 818.0,920.0 L 943.0,960.0"/>
    <path d="M 573.0,847.0 L 579.0,861.0 L 634.0,911.0 L 651.0,952.0"/>
  </g>
</svg>
