<svg xmlns="http://www.w3.org/2000/svg" viewBox="0 0 1024 1024">
  <g style="fill:none;stroke:#000000;stroke-width:50;stroke-linecap:round;stroke-linejoin:round;" transform="scale(1, 1) translate(0, 0)">
    <path d="M 295.0,221.0 L 320.0,245.0 L 332.0,268.0 L 309.0,318.0 L 250.0,424.0 L 169.0,539.0 L 106.0,616.0 L 55.0,662.0"/>
    <path d="M 340.0,337.0 L 364.0,340.0 L 411.0,363.0 L 446.0,402.0"/>
    <path d="M 202.0,558.0 L 261.0,557.0 L 364.0,521.0 L 413.0,519.0"/>
    <path d="M 183.0,685.0 L 213.0,687.0 L 267.0,677.0 L 359.0,645.0 L 413.0,639.0"/>
    <path d="M 279.0,581.0 L 306.0,597.0 L 309.0,655.0 L 306.0,840.0 L 300.0,860.0 L 287.0,871.0"/>
    <path d="M 156.0,761.0 L 208.0,809.0 L 224.0,835.0"/>
    <path d="M 396.0,712.0 L 411.0,727.0 L 412.0,736.0 L 367.0,800.0"/>
    <path d="M 132.0,934.0 L 190.0,949.0 L 452.0,831.0"/>
    <path d="M 519.0,350.0 L 578.0,354.0 L 780.0,312.0 L 823.0,307.0 L 871.0,312.0"/>
    <path d="M 647.0,372.0 L 676.0,389.0 L 683.0,416.0 L 678.0,639.0 L 660.0,654.0"/>
    <path d="M 713.0,495.0 L 726.0,486.0 L 798.0,470.0 L 857.0,465.0"/>
    <path d="M 512.0,495.0 L 543.0,529.0 L 521.0,710.0 L 575.0,707.0 L 731.0,667.0 L 806.0,656.0 L 844.0,660.0 L 872.0,688.0 L 840.0,836.0 L 811.0,936.0 L 779.0,1001.0 L 760.0,1016.0 L 737.0,1022.0 L 647.0,962.0"/>
  </g>
</svg>
