<svg xmlns="http://www.w3.org/2000/svg" viewBox="0 0 1024 1024">
  <g style="fill:none;stroke:#000000;stroke-width:50;stroke-linecap:round;stroke-linejoin:round;" transform="scale(1, 1) translate(0, 0)">
    <path d="M 311.0,240.0 L 331.0,257.0 L 348.0,286.0 L 306.0,376.0 L 241.0,489.0 L 176.0,586.0 L 125.0,651.0 L 71.0,705.0"/>
    <path d="M 357.0,367.0 L 365.0,362.0 L 422.0,393.0 L 445.0,414.0 L 455.0,438.0"/>
    <path d="M 207.0,585.0 L 262.0,579.0 L 361.0,546.0 L 410.0,542.0"/>
    <path d="M 180.0,712.0 L 206.0,715.0 L 257.0,708.0 L 373.0,669.0 L 426.0,667.0"/>
    <path d="M 283.0,598.0 L 310.0,616.0 L 315.0,649.0 L 307.0,858.0 L 302.0,884.0 L 290.0,895.0"/>
    <path d="M 163.0,786.0 L 208.0,831.0 L 223.0,860.0"/>
    <path d="M 407.0,737.0 L 422.0,758.0 L 364.0,827.0"/>
    <path d="M 129.0,960.0 L 183.0,972.0 L 450.0,858.0"/>
    <path d="M 613.0,417.0 L 629.0,402.0 L 831.0,350.0 L 861.0,364.0 L 878.0,383.0 L 852.0,457.0 L 823.0,474.0"/>
    <path d="M 606.0,538.0 L 628.0,544.0 L 817.0,503.0 L 879.0,507.0"/>
    <path d="M 540.0,369.0 L 566.0,388.0 L 579.0,417.0 L 570.0,598.0 L 543.0,746.0 L 516.0,821.0 L 472.0,892.0 L 402.0,964.0 L 339.0,1009.0"/>
    <path d="M 598.0,629.0 L 627.0,660.0 L 740.0,822.0 L 841.0,933.0 L 897.0,954.0 L 995.0,975.0"/>
  </g>
</svg>
