<svg xmlns="http://www.w3.org/2000/svg" viewBox="0 0 1024 1024">
  <g style="fill:none;stroke:#000000;stroke-width:50;stroke-linecap:round;stroke-linejoin:round;" transform="scale(1, 1) translate(0, 0)">
    <path d="M 315.0,237.0 L 353.0,270.0 L 327.0,361.0 L 298.0,424.0 L 213.0,568.0 L 151.0,642.0 L 81.0,705.0"/>
    <path d="M 378.0,347.0 L 385.0,342.0 L 444.0,366.0 L 458.0,377.0 L 471.0,400.0"/>
    <path d="M 232.0,584.0 L 296.0,575.0 L 393.0,540.0 L 433.0,539.0"/>
    <path d="M 199.0,705.0 L 257.0,706.0 L 390.0,664.0 L 440.0,660.0"/>
    <path d="M 304.0,600.0 L 331.0,617.0 L 335.0,639.0 L 330.0,853.0 L 325.0,871.0 L 313.0,881.0"/>
    <path d="M 195.0,785.0 L 243.0,828.0 L 253.0,845.0"/>
    <path d="M 455.0,736.0 L 431.0,738.0 L 383.0,799.0"/>
    <path d="M 133.0,945.0 L 189.0,960.0 L 465.0,851.0"/>
    <path d="M 501.0,468.0 L 556.0,470.0 L 703.0,431.0 L 837.0,406.0 L 886.0,404.0 L 931.0,413.0"/>
    <path d="M 644.0,216.0 L 663.0,228.0 L 689.0,264.0 L 634.0,490.0 L 604.0,572.0 L 539.0,707.0 L 479.0,788.0 L 452.0,811.0"/>
    <path d="M 549.0,614.0 L 575.0,641.0 L 576.0,649.0 L 580.0,764.0 L 570.0,835.0 L 572.0,880.0"/>
    <path d="M 601.0,653.0 L 619.0,639.0 L 675.0,631.0 L 822.0,590.0 L 848.0,586.0 L 876.0,601.0 L 887.0,623.0 L 891.0,759.0 L 888.0,801.0 L 877.0,833.0 L 866.0,842.0 L 838.0,837.0 L 772.0,805.0"/>
    <path d="M 678.0,527.0 L 702.0,542.0 L 719.0,572.0 L 711.0,1092.0"/>
  </g>
</svg>
