<svg xmlns="http://www.w3.org/2000/svg" viewBox="0 0 1024 1024">
  <g style="fill:none;stroke:#000000;stroke-width:50;stroke-linecap:round;stroke-linejoin:round;" transform="scale(1, 1) translate(0, 0)">
    <path d="M 322.0,227.0 L 339.0,242.0 L 358.0,277.0 L 321.0,348.0 L 272.0,431.0 L 201.0,528.0 L 106.0,636.0 L 68.0,665.0"/>
    <path d="M 374.0,336.0 L 449.0,375.0 L 479.0,411.0"/>
    <path d="M 227.0,571.0 L 272.0,573.0 L 397.0,540.0 L 430.0,543.0"/>
    <path d="M 188.0,726.0 L 257.0,723.0 L 391.0,683.0 L 437.0,678.0"/>
    <path d="M 289.0,594.0 L 315.0,612.0 L 323.0,637.0 L 321.0,876.0 L 316.0,892.0 L 304.0,903.0"/>
    <path d="M 169.0,800.0 L 219.0,846.0 L 236.0,871.0"/>
    <path d="M 433.0,738.0 L 448.0,761.0 L 387.0,836.0"/>
    <path d="M 122.0,964.0 L 177.0,980.0 L 461.0,875.0"/>
    <path d="M 548.0,456.0 L 570.0,461.0 L 626.0,457.0 L 762.0,417.0 L 822.0,415.0"/>
    <path d="M 544.0,682.0 L 616.0,682.0 L 738.0,650.0 L 803.0,645.0"/>
    <path d="M 647.0,479.0 L 679.0,502.0 L 681.0,529.0 L 681.0,857.0 L 664.0,880.0"/>
    <path d="M 477.0,927.0 L 514.0,935.0 L 536.0,933.0 L 836.0,890.0 L 908.0,907.0"/>
    <path d="M 812.0,717.0 L 878.0,753.0 L 909.0,791.0"/>
  </g>
</svg>
