<svg xmlns="http://www.w3.org/2000/svg" viewBox="0 0 1024 1024">
  <g style="fill:none;stroke:#000000;stroke-width:50;stroke-linecap:round;stroke-linejoin:round;" transform="scale(1, 1) translate(0, 0)">
    <path d="M 314.0,213.0 L 340.0,238.0 L 351.0,261.0 L 295.0,375.0 L 233.0,478.0 L 181.0,549.0 L 109.0,636.0 L 63.0,677.0"/>
    <path d="M 357.0,336.0 L 370.0,334.0 L 434.0,361.0 L 454.0,375.0 L 476.0,404.0"/>
    <path d="M 210.0,579.0 L 267.0,578.0 L 373.0,539.0 L 426.0,533.0"/>
    <path d="M 183.0,715.0 L 248.0,710.0 L 370.0,672.0 L 410.0,669.0"/>
    <path d="M 298.0,594.0 L 326.0,614.0 L 327.0,641.0 L 325.0,840.0 L 320.0,856.0 L 308.0,867.0"/>
    <path d="M 162.0,774.0 L 215.0,817.0 L 231.0,853.0"/>
    <path d="M 410.0,719.0 L 428.0,743.0 L 375.0,815.0"/>
    <path d="M 130.0,928.0 L 184.0,945.0 L 444.0,843.0"/>
    <path d="M 453.0,560.0 L 485.0,588.0 L 501.0,626.0 L 521.0,831.0 L 540.0,911.0"/>
    <path d="M 508.0,568.0 L 542.0,580.0 L 837.0,520.0 L 860.0,525.0 L 890.0,551.0 L 895.0,558.0 L 870.0,763.0 L 856.0,841.0 L 834.0,884.0 L 834.0,946.0"/>
    <path d="M 579.0,723.0 L 621.0,726.0 L 741.0,692.0 L 777.0,695.0"/>
    <path d="M 643.0,585.0 L 670.0,606.0 L 669.0,805.0 L 652.0,828.0"/>
    <path d="M 559.0,880.0 L 577.0,865.0 L 623.0,857.0 L 759.0,839.0 L 801.0,842.0"/>
  </g>
</svg>
