<svg xmlns="http://www.w3.org/2000/svg" viewBox="0 0 1024 1024">
  <g style="fill:none;stroke:#000000;stroke-width:50;stroke-linecap:round;stroke-linejoin:round;" transform="scale(1, 1) translate(0, 0)">
    <path d="M 306.0,257.0 L 332.0,282.0 L 343.0,305.0 L 285.0,422.0 L 165.0,602.0 L 91.0,688.0 L 55.0,717.0"/>
    <path d="M 365.0,355.0 L 374.0,368.0 L 420.0,393.0 L 446.0,431.0"/>
    <path d="M 217.0,573.0 L 285.0,566.0 L 399.0,532.0 L 437.0,536.0"/>
    <path d="M 200.0,707.0 L 248.0,710.0 L 395.0,666.0 L 438.0,665.0"/>
    <path d="M 307.0,588.0 L 335.0,610.0 L 333.0,842.0 L 328.0,859.0 L 316.0,871.0"/>
    <path d="M 187.0,786.0 L 236.0,820.0 L 251.0,854.0"/>
    <path d="M 411.0,727.0 L 428.0,750.0 L 383.0,811.0"/>
    <path d="M 117.0,940.0 L 172.0,957.0 L 492.0,831.0"/>
    <path d="M 496.0,432.0 L 523.0,457.0 L 530.0,474.0 L 572.0,749.0"/>
    <path d="M 557.0,434.0 L 565.0,444.0 L 576.0,446.0 L 632.0,432.0 L 831.0,403.0 L 881.0,407.0 L 896.0,416.0 L 919.0,444.0 L 872.0,624.0 L 844.0,700.0 L 848.0,728.0"/>
    <path d="M 610.0,584.0 L 757.0,557.0 L 803.0,563.0"/>
    <path d="M 595.0,720.0 L 612.0,707.0 L 639.0,702.0 L 756.0,686.0 L 801.0,686.0"/>
    <path d="M 654.0,447.0 L 661.0,457.0 L 695.0,475.0 L 702.0,486.0 L 695.0,1072.0"/>
  </g>
</svg>
