<svg xmlns="http://www.w3.org/2000/svg" viewBox="0 0 1024 1024">
  <g style="fill:none;stroke:#000000;stroke-width:50;stroke-linecap:round;stroke-linejoin:round;" transform="scale(1, 1) translate(0, 0)">
    <path d="M 320.0,241.0 L 334.0,250.0 L 353.0,277.0 L 335.0,334.0 L 280.0,442.0 L 192.0,570.0 L 97.0,663.0 L 49.0,699.0"/>
    <path d="M 374.0,338.0 L 385.0,336.0 L 427.0,355.0 L 466.0,382.0 L 481.0,403.0"/>
    <path d="M 230.0,577.0 L 279.0,577.0 L 374.0,542.0 L 431.0,534.0"/>
    <path d="M 177.0,724.0 L 229.0,720.0 L 299.0,699.0 L 380.0,664.0 L 412.0,655.0 L 433.0,656.0"/>
    <path d="M 295.0,600.0 L 323.0,618.0 L 324.0,643.0 L 322.0,860.0 L 316.0,879.0 L 304.0,889.0"/>
    <path d="M 176.0,786.0 L 229.0,828.0 L 239.0,853.0"/>
    <path d="M 419.0,730.0 L 430.0,748.0 L 379.0,815.0"/>
    <path d="M 128.0,954.0 L 183.0,971.0 L 472.0,851.0"/>
    <path d="M 564.0,367.0 L 589.0,386.0 L 598.0,410.0 L 590.0,543.0 L 574.0,597.0 L 557.0,627.0 L 521.0,669.0 L 489.0,689.0"/>
    <path d="M 615.0,372.0 L 634.0,381.0 L 735.0,346.0 L 766.0,348.0 L 782.0,365.0 L 760.0,455.0 L 753.0,532.0 L 758.0,570.0 L 771.0,594.0 L 812.0,613.0 L 855.0,615.0 L 918.0,602.0 L 956.0,609.0"/>
    <path d="M 520.0,756.0 L 548.0,780.0 L 554.0,797.0 L 588.0,1016.0"/>
    <path d="M 581.0,763.0 L 593.0,774.0 L 783.0,733.0 L 819.0,741.0 L 845.0,773.0 L 806.0,889.0 L 776.0,906.0"/>
    <path d="M 611.0,977.0 L 623.0,963.0 L 765.0,943.0 L 832.0,940.0 L 857.0,951.0"/>
  </g>
</svg>
