<svg xmlns="http://www.w3.org/2000/svg" viewBox="0 0 1024 1024">
  <g style="fill:none;stroke:#000000;stroke-width:50;stroke-linecap:round;stroke-linejoin:round;" transform="scale(1, 1) translate(0, 0)">
    <path d="M 322.0,221.0 L 352.0,253.0 L 331.0,323.0 L 287.0,417.0 L 197.0,555.0 L 114.0,643.0 L 70.0,678.0"/>
    <path d="M 371.0,313.0 L 453.0,367.0 L 484.0,405.0"/>
    <path d="M 226.0,560.0 L 282.0,557.0 L 385.0,521.0 L 433.0,516.0"/>
    <path d="M 184.0,671.0 L 207.0,676.0 L 244.0,672.0 L 383.0,627.0 L 433.0,625.0"/>
    <path d="M 303.0,579.0 L 324.0,592.0 L 322.0,823.0 L 316.0,842.0 L 304.0,853.0"/>
    <path d="M 168.0,745.0 L 230.0,787.0 L 243.0,812.0"/>
    <path d="M 411.0,688.0 L 428.0,710.0 L 371.0,783.0"/>
    <path d="M 116.0,923.0 L 171.0,939.0 L 395.0,849.0 L 464.0,815.0"/>
    <path d="M 632.0,210.0 L 658.0,231.0 L 671.0,253.0 L 661.0,281.0 L 619.0,374.0 L 553.0,488.0 L 498.0,553.0"/>
    <path d="M 578.0,487.0 L 681.0,471.0 L 818.0,437.0 L 847.0,444.0 L 875.0,472.0 L 856.0,764.0 L 837.0,874.0 L 812.0,953.0 L 788.0,993.0 L 756.0,1021.0 L 720.0,999.0 L 681.0,966.0 L 679.0,957.0 L 665.0,950.0"/>
    <path d="M 493.0,628.0 L 512.0,644.0 L 524.0,670.0 L 548.0,823.0"/>
    <path d="M 542.0,631.0 L 553.0,638.0 L 656.0,616.0 L 677.0,621.0 L 696.0,643.0 L 671.0,720.0 L 648.0,739.0"/>
    <path d="M 569.0,790.0 L 581.0,776.0 L 650.0,763.0 L 695.0,760.0 L 715.0,768.0"/>
  </g>
</svg>
