<svg xmlns="http://www.w3.org/2000/svg" viewBox="0 0 1024 1024">
  <g style="fill:none;stroke:#000000;stroke-width:50;stroke-linecap:round;stroke-linejoin:round;" transform="scale(1, 1) translate(0, 0)">
    <path d="M 301.0,222.0 L 317.0,235.0 L 338.0,267.0 L 299.0,354.0 L 243.0,452.0 L 159.0,577.0 L 71.0,674.0"/>
    <path d="M 335.0,355.0 L 351.0,355.0 L 386.0,371.0 L 415.0,391.0 L 429.0,411.0"/>
    <path d="M 204.0,556.0 L 215.0,550.0 L 259.0,550.0 L 366.0,517.0 L 406.0,516.0"/>
    <path d="M 175.0,698.0 L 201.0,701.0 L 248.0,694.0 L 362.0,656.0 L 409.0,651.0"/>
    <path d="M 275.0,568.0 L 302.0,586.0 L 307.0,597.0 L 305.0,847.0 L 300.0,864.0 L 288.0,875.0"/>
    <path d="M 152.0,770.0 L 203.0,803.0 L 223.0,836.0"/>
    <path d="M 418.0,713.0 L 429.0,739.0 L 376.0,800.0"/>
    <path d="M 105.0,940.0 L 160.0,956.0 L 444.0,843.0"/>
    <path d="M 543.0,522.0 L 557.0,529.0 L 622.0,517.0 L 761.0,467.0 L 793.0,460.0 L 815.0,462.0"/>
    <path d="M 472.0,508.0 L 509.0,538.0 L 515.0,558.0 L 520.0,687.0 L 516.0,798.0 L 508.0,852.0 L 512.0,886.0 L 561.0,867.0 L 644.0,789.0"/>
    <path d="M 573.0,215.0 L 591.0,223.0 L 613.0,251.0 L 623.0,353.0 L 660.0,537.0 L 685.0,629.0 L 729.0,753.0 L 759.0,817.0 L 810.0,902.0 L 839.0,937.0 L 884.0,968.0 L 899.0,972.0 L 912.0,950.0 L 946.0,816.0"/>
    <path d="M 813.0,577.0 L 837.0,604.0 L 819.0,661.0 L 771.0,758.0 L 708.0,846.0 L 662.0,893.0 L 632.0,911.0 L 630.0,919.0"/>
    <path d="M 744.0,282.0 L 812.0,325.0 L 841.0,367.0"/>
  </g>
</svg>
