<svg xmlns="http://www.w3.org/2000/svg" viewBox="0 0 1024 1024">
  <g style="fill:none;stroke:#000000;stroke-width:50;stroke-linecap:round;stroke-linejoin:round;" transform="scale(1, 1) translate(0, 0)">
    <path d="M 270.0,242.0 L 293.0,263.0 L 306.0,286.0 L 270.0,367.0 L 164.0,542.0 L 92.0,631.0 L 58.0,662.0"/>
    <path d="M 310.0,359.0 L 326.0,359.0 L 386.0,390.0 L 409.0,407.0 L 424.0,428.0"/>
    <path d="M 193.0,543.0 L 200.0,538.0 L 249.0,539.0 L 341.0,513.0 L 376.0,512.0"/>
    <path d="M 159.0,670.0 L 217.0,671.0 L 339.0,637.0 L 385.0,634.0"/>
    <path d="M 263.0,558.0 L 290.0,579.0 L 291.0,608.0 L 286.0,824.0 L 281.0,841.0 L 270.0,850.0"/>
    <path d="M 131.0,749.0 L 183.0,785.0 L 212.0,827.0"/>
    <path d="M 379.0,702.0 L 393.0,724.0 L 331.0,799.0"/>
    <path d="M 90.0,912.0 L 144.0,929.0 L 420.0,823.0"/>
    <path d="M 532.0,333.0 L 566.0,365.0 L 570.0,406.0 L 538.0,625.0 L 496.0,762.0 L 490.0,802.0 L 540.0,805.0 L 632.0,790.0 L 786.0,784.0 L 907.0,790.0 L 962.0,815.0"/>
    <path d="M 599.0,356.0 L 611.0,366.0 L 746.0,328.0 L 780.0,324.0 L 805.0,333.0 L 832.0,366.0 L 800.0,723.0 L 784.0,814.0 L 757.0,906.0 L 738.0,950.0 L 711.0,989.0 L 688.0,978.0 L 624.0,921.0"/>
    <path d="M 632.0,438.0 L 695.0,484.0 L 707.0,514.0"/>
    <path d="M 418.0,616.0 L 451.0,622.0 L 501.0,616.0 L 704.0,577.0 L 869.0,553.0 L 919.0,551.0 L 980.0,564.0"/>
    <path d="M 612.0,646.0 L 677.0,692.0 L 691.0,720.0"/>
  </g>
</svg>
