<svg xmlns="http://www.w3.org/2000/svg" viewBox="0 0 1024 1024">
  <g style="fill:none;stroke:#000000;stroke-width:50;stroke-linecap:round;stroke-linejoin:round;" transform="scale(1, 1) translate(0, 0)">
    <path d="M 299.0,215.0 L 322.0,232.0 L 334.0,250.0 L 310.0,327.0 L 279.0,390.0 L 199.0,515.0 L 159.0,563.0 L 66.0,646.0"/>
    <path d="M 346.0,328.0 L 379.0,332.0 L 420.0,353.0 L 448.0,388.0"/>
    <path d="M 198.0,548.0 L 206.0,552.0 L 215.0,546.0 L 270.0,539.0 L 367.0,503.0 L 414.0,503.0"/>
    <path d="M 175.0,681.0 L 247.0,675.0 L 363.0,637.0 L 403.0,635.0"/>
    <path d="M 279.0,564.0 L 304.0,581.0 L 306.0,608.0 L 299.0,820.0 L 293.0,837.0 L 281.0,847.0"/>
    <path d="M 163.0,761.0 L 199.0,795.0 L 219.0,824.0"/>
    <path d="M 410.0,697.0 L 423.0,720.0 L 360.0,792.0"/>
    <path d="M 107.0,904.0 L 160.0,922.0 L 390.0,844.0 L 460.0,814.0"/>
    <path d="M 617.0,230.0 L 642.0,249.0 L 655.0,272.0 L 622.0,359.0 L 575.0,454.0 L 523.0,539.0 L 482.0,597.0 L 446.0,634.0"/>
    <path d="M 660.0,352.0 L 664.0,366.0 L 717.0,424.0 L 824.0,521.0 L 896.0,542.0 L 979.0,553.0"/>
    <path d="M 512.0,631.0 L 574.0,634.0 L 733.0,597.0 L 773.0,596.0"/>
    <path d="M 528.0,775.0 L 577.0,780.0 L 731.0,741.0 L 772.0,741.0"/>
    <path d="M 615.0,653.0 L 645.0,678.0 L 638.0,879.0 L 635.0,890.0 L 621.0,902.0"/>
    <path d="M 402.0,947.0 L 451.0,956.0 L 672.0,923.0 L 864.0,903.0 L 936.0,922.0"/>
  </g>
</svg>
