<svg xmlns="http://www.w3.org/2000/svg" viewBox="0 0 1024 1024">
  <g style="fill:none;stroke:#000000;stroke-width:50;stroke-linecap:round;stroke-linejoin:round;" transform="scale(1, 1) translate(0, 0)">
    <path d="M 284.0,223.0 L 311.0,247.0 L 318.0,261.0 L 297.0,329.0 L 268.0,393.0 L 215.0,484.0 L 159.0,559.0 L 45.0,667.0"/>
    <path d="M 333.0,332.0 L 348.0,330.0 L 401.0,357.0 L 429.0,391.0"/>
    <path d="M 203.0,546.0 L 258.0,538.0 L 370.0,500.0 L 390.0,501.0"/>
    <path d="M 163.0,673.0 L 204.0,674.0 L 353.0,630.0 L 393.0,627.0"/>
    <path d="M 281.0,561.0 L 303.0,574.0 L 307.0,602.0 L 299.0,820.0 L 293.0,841.0 L 281.0,850.0"/>
    <path d="M 159.0,752.0 L 204.0,794.0 L 218.0,820.0"/>
    <path d="M 405.0,690.0 L 420.0,713.0 L 359.0,788.0"/>
    <path d="M 93.0,922.0 L 150.0,937.0 L 436.0,815.0"/>
    <path d="M 503.0,381.0 L 531.0,410.0 L 521.0,447.0 L 487.0,516.0 L 438.0,572.0"/>
    <path d="M 536.0,481.0 L 624.0,470.0 L 736.0,436.0 L 787.0,435.0"/>
    <path d="M 603.0,225.0 L 641.0,254.0 L 650.0,271.0 L 645.0,569.0 L 629.0,593.0"/>
    <path d="M 452.0,644.0 L 497.0,646.0 L 824.0,584.0 L 891.0,594.0"/>
    <path d="M 536.0,665.0 L 555.0,679.0 L 561.0,695.0 L 533.0,776.0 L 506.0,831.0 L 451.0,917.0 L 390.0,976.0 L 367.0,990.0"/>
    <path d="M 636.0,642.0 L 658.0,656.0 L 667.0,672.0 L 655.0,810.0 L 658.0,917.0 L 670.0,957.0 L 701.0,981.0 L 758.0,996.0 L 819.0,998.0 L 872.0,990.0 L 919.0,968.0 L 936.0,948.0 L 940.0,805.0"/>
  </g>
</svg>
