<svg xmlns="http://www.w3.org/2000/svg" viewBox="0 0 1024 1024">
  <g style="fill:none;stroke:#000000;stroke-width:50;stroke-linecap:round;stroke-linejoin:round;" transform="scale(1, 1) translate(0, 0)">
    <path d="M 276.0,199.0 L 303.0,235.0 L 291.0,272.0 L 221.0,381.0 L 155.0,458.0 L 119.0,487.0"/>
    <path d="M 256.0,431.0 L 275.0,452.0 L 283.0,475.0 L 247.0,546.0 L 180.0,646.0 L 95.0,745.0 L 43.0,792.0"/>
    <path d="M 226.0,622.0 L 231.0,654.0 L 241.0,671.0 L 237.0,816.0 L 224.0,925.0 L 230.0,994.0"/>
    <path d="M 515.0,321.0 L 585.0,363.0 L 615.0,399.0"/>
    <path d="M 628.0,572.0 L 673.0,577.0 L 889.0,535.0 L 960.0,546.0"/>
    <path d="M 748.0,582.0 L 783.0,613.0 L 790.0,900.0 L 785.0,947.0 L 763.0,989.0 L 721.0,976.0 L 656.0,938.0"/>
    <path d="M 481.0,200.0 L 503.0,219.0 L 515.0,243.0 L 488.0,307.0 L 432.0,412.0 L 387.0,481.0 L 351.0,534.0 L 298.0,590.0"/>
    <path d="M 675.0,408.0 L 714.0,411.0 L 826.0,382.0 L 886.0,379.0"/>
    <path d="M 379.0,536.0 L 436.0,531.0 L 535.0,495.0 L 573.0,492.0"/>
    <path d="M 351.0,654.0 L 373.0,657.0 L 416.0,651.0 L 547.0,609.0 L 592.0,607.0"/>
    <path d="M 471.0,547.0 L 490.0,559.0 L 493.0,581.0 L 490.0,795.0 L 485.0,811.0 L 474.0,820.0"/>
    <path d="M 334.0,723.0 L 386.0,762.0 L 401.0,786.0"/>
    <path d="M 585.0,664.0 L 601.0,691.0 L 532.0,767.0"/>
    <path d="M 304.0,874.0 L 358.0,890.0 L 656.0,791.0"/>
  </g>
</svg>
