<svg xmlns="http://www.w3.org/2000/svg" viewBox="0 0 1024 1024">
  <g style="fill:none;stroke:#000000;stroke-width:50;stroke-linecap:round;stroke-linejoin:round;" transform="scale(1, 1) translate(0, 0)">
    <path d="M 278.0,216.0 L 305.0,243.0 L 316.0,267.0 L 280.0,345.0 L 192.0,491.0 L 75.0,638.0 L 49.0,658.0"/>
    <path d="M 324.0,340.0 L 338.0,338.0 L 391.0,368.0 L 414.0,385.0 L 435.0,417.0"/>
    <path d="M 193.0,552.0 L 227.0,556.0 L 259.0,550.0 L 356.0,515.0 L 396.0,511.0"/>
    <path d="M 157.0,694.0 L 202.0,695.0 L 347.0,645.0 L 398.0,638.0"/>
    <path d="M 265.0,572.0 L 292.0,588.0 L 298.0,598.0 L 294.0,842.0 L 278.0,866.0"/>
    <path d="M 143.0,767.0 L 204.0,814.0 L 219.0,844.0"/>
    <path d="M 393.0,710.0 L 403.0,733.0 L 353.0,796.0"/>
    <path d="M 118.0,927.0 L 174.0,940.0 L 413.0,835.0"/>
    <path d="M 517.0,282.0 L 549.0,288.0 L 589.0,285.0 L 694.0,258.0 L 749.0,258.0"/>
    <path d="M 607.0,306.0 L 648.0,333.0 L 648.0,423.0 L 626.0,445.0"/>
    <path d="M 466.0,493.0 L 494.0,499.0 L 520.0,496.0 L 816.0,438.0 L 888.0,450.0"/>
    <path d="M 622.0,495.0 L 664.0,523.0 L 663.0,907.0 L 645.0,953.0 L 621.0,947.0 L 543.0,906.0"/>
    <path d="M 441.0,628.0 L 486.0,633.0 L 554.0,618.0 L 569.0,621.0 L 580.0,631.0 L 552.0,710.0 L 502.0,797.0 L 462.0,843.0 L 391.0,898.0"/>
    <path d="M 824.0,544.0 L 842.0,582.0 L 703.0,687.0"/>
    <path d="M 694.0,692.0 L 704.0,723.0 L 716.0,738.0 L 849.0,876.0 L 918.0,896.0 L 989.0,903.0"/>
  </g>
</svg>
