<svg xmlns="http://www.w3.org/2000/svg" viewBox="0 0 1024 1024">
  <g style="fill:none;stroke:#000000;stroke-width:50;stroke-linecap:round;stroke-linejoin:round;" transform="scale(1, 1) translate(0, 0)">
    <path d="M 253.0,241.0 L 318.0,274.0 L 347.0,310.0"/>
    <path d="M 171.0,352.0 L 233.0,389.0 L 255.0,411.0"/>
    <path d="M 214.0,676.0 L 207.0,637.0 L 211.0,610.0 L 320.0,459.0"/>
    <path d="M 676.0,252.0 L 616.0,238.0 L 556.0,271.0 L 504.0,286.0 L 494.0,294.0 L 460.0,298.0 L 454.0,305.0 L 435.0,303.0 L 424.0,311.0"/>
    <path d="M 364.0,413.0 L 406.0,418.0 L 585.0,384.0 L 732.0,365.0 L 808.0,377.0"/>
    <path d="M 516.0,303.0 L 549.0,327.0 L 549.0,337.0 L 540.0,395.0 L 508.0,466.0 L 477.0,503.0 L 443.0,529.0 L 357.0,560.0"/>
    <path d="M 597.0,449.0 L 706.0,514.0 L 726.0,537.0 L 739.0,566.0"/>
    <path d="M 496.0,532.0 L 496.0,565.0 L 484.0,583.0 L 438.0,638.0 L 346.0,722.0 L 241.0,793.0 L 117.0,845.0"/>
    <path d="M 525.0,604.0 L 535.0,601.0 L 672.0,702.0 L 776.0,757.0 L 869.0,769.0 L 955.0,768.0"/>
    <path d="M 362.0,743.0 L 425.0,748.0 L 563.0,721.0 L 611.0,722.0"/>
    <path d="M 351.0,848.0 L 408.0,853.0 L 586.0,821.0 L 647.0,824.0"/>
    <path d="M 480.0,763.0 L 506.0,781.0 L 510.0,803.0 L 505.0,958.0 L 490.0,972.0"/>
    <path d="M 329.0,895.0 L 381.0,934.0 L 399.0,960.0"/>
    <path d="M 638.0,862.0 L 649.0,891.0 L 581.0,943.0"/>
    <path d="M 230.0,1016.0 L 286.0,1025.0 L 537.0,993.0 L 720.0,980.0 L 799.0,1001.0"/>
  </g>
</svg>
