<svg xmlns="http://www.w3.org/2000/svg" viewBox="0 0 1024 1024">
  <g style="fill:none;stroke:#000000;stroke-width:50;stroke-linecap:round;stroke-linejoin:round;" transform="scale(1, 1) translate(0, 0)">
    <path d="M 302.0,208.0 L 331.0,239.0 L 310.0,306.0 L 268.0,393.0 L 180.0,520.0 L 117.0,585.0 L 65.0,623.0 L 62.0,631.0"/>
    <path d="M 354.0,292.0 L 374.0,295.0 L 418.0,320.0 L 450.0,356.0"/>
    <path d="M 206.0,526.0 L 258.0,524.0 L 315.0,508.0 L 383.0,479.0 L 427.0,476.0"/>
    <path d="M 166.0,658.0 L 228.0,652.0 L 373.0,602.0 L 413.0,600.0"/>
    <path d="M 277.0,542.0 L 306.0,563.0 L 311.0,582.0 L 310.0,801.0 L 289.0,833.0"/>
    <path d="M 156.0,734.0 L 206.0,768.0 L 222.0,784.0 L 234.0,810.0"/>
    <path d="M 407.0,686.0 L 422.0,709.0 L 372.0,767.0"/>
    <path d="M 109.0,902.0 L 167.0,918.0 L 436.0,803.0"/>
    <path d="M 609.0,172.0 L 627.0,191.0 L 636.0,213.0 L 611.0,261.0 L 541.0,365.0 L 491.0,421.0 L 466.0,440.0"/>
    <path d="M 629.0,290.0 L 711.0,271.0 L 748.0,278.0 L 758.0,286.0 L 739.0,330.0 L 717.0,362.0 L 620.0,481.0 L 528.0,565.0 L 456.0,613.0"/>
    <path d="M 572.0,358.0 L 589.0,364.0 L 717.0,462.0 L 825.0,523.0 L 877.0,537.0 L 1011.0,542.0"/>
    <path d="M 535.0,650.0 L 610.0,649.0 L 718.0,616.0 L 777.0,610.0"/>
    <path d="M 545.0,756.0 L 738.0,713.0 L 772.0,719.0"/>
    <path d="M 472.0,853.0 L 520.0,857.0 L 630.0,832.0 L 813.0,802.0 L 848.0,803.0 L 888.0,813.0"/>
    <path d="M 615.0,518.0 L 637.0,525.0 L 659.0,552.0 L 659.0,1097.0"/>
  </g>
</svg>
