<svg xmlns="http://www.w3.org/2000/svg" viewBox="0 0 1024 1024">
  <g style="fill:none;stroke:#000000;stroke-width:50;stroke-linecap:round;stroke-linejoin:round;" transform="scale(1, 1) translate(0, 0)">
    <path d="M 305.0,253.0 L 326.0,272.0 L 342.0,301.0 L 327.0,334.0 L 258.0,456.0 L 213.0,522.0 L 127.0,632.0 L 61.0,696.0"/>
    <path d="M 349.0,366.0 L 365.0,366.0 L 420.0,393.0 L 459.0,433.0"/>
    <path d="M 220.0,581.0 L 278.0,586.0 L 369.0,561.0 L 421.0,559.0"/>
    <path d="M 190.0,725.0 L 255.0,723.0 L 365.0,694.0 L 421.0,690.0"/>
    <path d="M 293.0,608.0 L 321.0,629.0 L 322.0,861.0 L 317.0,883.0 L 305.0,894.0"/>
    <path d="M 164.0,797.0 L 218.0,840.0 L 239.0,878.0"/>
    <path d="M 421.0,745.0 L 436.0,767.0 L 383.0,838.0"/>
    <path d="M 117.0,963.0 L 173.0,976.0 L 466.0,862.0"/>
    <path d="M 519.0,301.0 L 554.0,328.0 L 598.0,513.0"/>
    <path d="M 588.0,311.0 L 596.0,319.0 L 638.0,314.0 L 767.0,288.0 L 800.0,294.0 L 818.0,315.0 L 813.0,345.0 L 788.0,414.0 L 760.0,428.0"/>
    <path d="M 613.0,489.0 L 625.0,477.0 L 757.0,458.0 L 816.0,465.0"/>
    <path d="M 501.0,625.0 L 514.0,618.0 L 530.0,623.0 L 541.0,614.0 L 549.0,618.0 L 682.0,583.0 L 764.0,546.0 L 824.0,564.0"/>
    <path d="M 504.0,748.0 L 562.0,755.0 L 793.0,717.0 L 846.0,723.0"/>
    <path d="M 638.0,613.0 L 671.0,644.0 L 668.0,852.0 L 652.0,870.0"/>
    <path d="M 440.0,912.0 L 493.0,924.0 L 654.0,898.0 L 884.0,874.0 L 933.0,881.0 L 966.0,895.0"/>
  </g>
</svg>
