<svg xmlns="http://www.w3.org/2000/svg" viewBox="0 0 1024 1024">
  <g style="fill:none;stroke:#000000;stroke-width:50;stroke-linecap:round;stroke-linejoin:round;" transform="scale(1, 1) translate(0, 0)">
    <path d="M 313.0,219.0 L 346.0,255.0 L 325.0,321.0 L 276.0,420.0 L 195.0,541.0 L 115.0,624.0 L 58.0,670.0"/>
    <path d="M 374.0,300.0 L 434.0,332.0 L 461.0,363.0"/>
    <path d="M 224.0,546.0 L 292.0,539.0 L 385.0,508.0 L 420.0,508.0"/>
    <path d="M 199.0,685.0 L 258.0,684.0 L 394.0,638.0 L 439.0,635.0"/>
    <path d="M 298.0,561.0 L 327.0,583.0 L 329.0,837.0 L 324.0,853.0 L 312.0,864.0"/>
    <path d="M 180.0,766.0 L 243.0,811.0 L 255.0,836.0"/>
    <path d="M 436.0,712.0 L 447.0,739.0 L 388.0,799.0"/>
    <path d="M 126.0,928.0 L 181.0,945.0 L 468.0,835.0"/>
    <path d="M 592.0,205.0 L 615.0,225.0 L 626.0,247.0 L 609.0,296.0 L 521.0,459.0 L 467.0,534.0 L 442.0,558.0"/>
    <path d="M 541.0,473.0 L 544.0,505.0 L 556.0,527.0 L 560.0,602.0 L 555.0,802.0 L 537.0,969.0 L 544.0,1039.0"/>
    <path d="M 707.0,311.0 L 772.0,343.0 L 796.0,365.0"/>
    <path d="M 624.0,487.0 L 647.0,492.0 L 688.0,489.0 L 840.0,447.0 L 892.0,445.0"/>
    <path d="M 648.0,640.0 L 705.0,631.0 L 817.0,600.0 L 839.0,597.0 L 860.0,602.0"/>
    <path d="M 640.0,752.0 L 704.0,741.0 L 793.0,715.0 L 833.0,709.0 L 856.0,715.0"/>
    <path d="M 708.0,511.0 L 737.0,532.0 L 744.0,572.0 L 741.0,826.0 L 725.0,850.0"/>
    <path d="M 583.0,889.0 L 622.0,894.0 L 883.0,851.0 L 951.0,865.0"/>
  </g>
</svg>
