<svg xmlns="http://www.w3.org/2000/svg" viewBox="0 0 1024 1024">
  <g style="fill:none;stroke:#000000;stroke-width:50;stroke-linecap:round;stroke-linejoin:round;" transform="scale(1, 1) translate(0, 0)">
    <path d="M 291.0,228.0 L 308.0,241.0 L 330.0,274.0 L 289.0,369.0 L 237.0,467.0 L 163.0,583.0 L 91.0,680.0 L 38.0,733.0"/>
    <path d="M 336.0,341.0 L 404.0,373.0 L 431.0,409.0"/>
    <path d="M 196.0,580.0 L 252.0,570.0 L 352.0,538.0 L 388.0,538.0"/>
    <path d="M 174.0,697.0 L 253.0,690.0 L 360.0,654.0 L 397.0,651.0"/>
    <path d="M 271.0,592.0 L 299.0,610.0 L 300.0,633.0 L 298.0,847.0 L 293.0,865.0 L 281.0,875.0"/>
    <path d="M 155.0,770.0 L 209.0,812.0 L 223.0,842.0"/>
    <path d="M 387.0,730.0 L 398.0,748.0 L 347.0,815.0"/>
    <path d="M 77.0,948.0 L 132.0,964.0 L 437.0,843.0"/>
    <path d="M 503.0,344.0 L 543.0,373.0 L 573.0,565.0"/>
    <path d="M 406.0,485.0 L 460.0,500.0 L 626.0,456.0"/>
    <path d="M 720.0,229.0 L 734.0,234.0 L 763.0,269.0 L 716.0,458.0 L 678.0,568.0"/>
    <path d="M 682.0,430.0 L 744.0,436.0 L 875.0,421.0 L 908.0,426.0 L 928.0,436.0"/>
    <path d="M 436.0,662.0 L 468.0,691.0 L 480.0,720.0 L 501.0,928.0 L 517.0,983.0"/>
    <path d="M 495.0,676.0 L 521.0,690.0 L 799.0,639.0 L 819.0,643.0 L 849.0,666.0 L 855.0,675.0 L 828.0,884.0 L 817.0,931.0 L 801.0,954.0 L 803.0,1014.0"/>
    <path d="M 550.0,812.0 L 690.0,785.0 L 719.0,784.0 L 743.0,791.0"/>
    <path d="M 614.0,693.0 L 640.0,714.0 L 643.0,733.0 L 642.0,880.0 L 638.0,893.0 L 626.0,903.0"/>
    <path d="M 536.0,949.0 L 544.0,941.0 L 598.0,931.0 L 703.0,915.0 L 761.0,914.0"/>
  </g>
</svg>
