<svg xmlns="http://www.w3.org/2000/svg" viewBox="0 0 1024 1024">
  <g style="fill:none;stroke:#000000;stroke-width:50;stroke-linecap:round;stroke-linejoin:round;" transform="scale(1, 1) translate(0, 0)">
    <path d="M 289.0,244.0 L 319.0,278.0 L 323.0,293.0 L 286.0,368.0 L 240.0,448.0 L 185.0,526.0 L 101.0,626.0 L 62.0,658.0"/>
    <path d="M 328.0,363.0 L 362.0,370.0 L 405.0,392.0 L 436.0,428.0"/>
    <path d="M 202.0,561.0 L 247.0,561.0 L 352.0,525.0 L 405.0,520.0"/>
    <path d="M 175.0,689.0 L 231.0,690.0 L 350.0,653.0 L 411.0,648.0"/>
    <path d="M 281.0,580.0 L 306.0,595.0 L 308.0,621.0 L 306.0,826.0 L 300.0,847.0 L 288.0,858.0"/>
    <path d="M 147.0,758.0 L 197.0,801.0 L 207.0,816.0 L 212.0,843.0"/>
    <path d="M 390.0,713.0 L 407.0,732.0 L 367.0,791.0"/>
    <path d="M 131.0,932.0 L 186.0,943.0 L 427.0,819.0"/>
    <path d="M 503.0,258.0 L 527.0,284.0 L 532.0,305.0 L 553.0,538.0"/>
    <path d="M 557.0,269.0 L 592.0,270.0 L 605.0,261.0 L 614.0,264.0 L 687.0,245.0 L 709.0,245.0 L 741.0,255.0 L 760.0,277.0 L 726.0,479.0 L 716.0,503.0 L 691.0,494.0"/>
    <path d="M 571.0,394.0 L 580.0,381.0 L 604.0,373.0 L 664.0,373.0"/>
    <path d="M 573.0,516.0 L 584.0,506.0 L 626.0,496.0 L 658.0,493.0 L 670.0,503.0"/>
    <path d="M 520.0,550.0 L 536.0,569.0 L 540.0,588.0 L 489.0,669.0 L 448.0,705.0"/>
    <path d="M 529.0,653.0 L 547.0,646.0 L 658.0,634.0 L 760.0,608.0 L 830.0,599.0 L 854.0,607.0 L 879.0,637.0 L 829.0,888.0 L 811.0,938.0 L 783.0,989.0 L 744.0,1018.0 L 656.0,965.0"/>
    <path d="M 553.0,660.0 L 577.0,688.0 L 556.0,736.0 L 509.0,804.0 L 471.0,843.0 L 443.0,865.0 L 435.0,865.0 L 434.0,872.0"/>
    <path d="M 677.0,645.0 L 705.0,675.0 L 685.0,744.0 L 656.0,807.0 L 615.0,868.0 L 561.0,928.0 L 502.0,974.0 L 467.0,993.0"/>
  </g>
</svg>
