<svg xmlns="http://www.w3.org/2000/svg" viewBox="0 0 1024 1024">
  <g style="fill:none;stroke:#000000;stroke-width:50;stroke-linecap:round;stroke-linejoin:round;" transform="scale(1, 1) translate(0, 0)">
    <path d="M 291.0,416.0 L 308.0,437.0 L 311.0,454.0 L 279.0,520.0 L 234.0,588.0 L 159.0,678.0 L 83.0,740.0 L 54.0,752.0 L 52.0,759.0"/>
    <path d="M 330.0,495.0 L 395.0,522.0 L 425.0,555.0"/>
    <path d="M 201.0,669.0 L 263.0,667.0 L 358.0,641.0 L 384.0,643.0"/>
    <path d="M 179.0,767.0 L 234.0,768.0 L 354.0,735.0 L 388.0,733.0"/>
    <path d="M 270.0,692.0 L 295.0,708.0 L 293.0,890.0 L 289.0,906.0 L 278.0,914.0"/>
    <path d="M 166.0,821.0 L 207.0,854.0 L 227.0,881.0"/>
    <path d="M 397.0,779.0 L 405.0,798.0 L 359.0,859.0"/>
    <path d="M 116.0,962.0 L 166.0,981.0 L 428.0,895.0"/>
    <path d="M 580.0,383.0 L 596.0,404.0 L 601.0,423.0 L 542.0,535.0 L 532.0,569.0 L 572.0,571.0 L 664.0,556.0 L 683.0,551.0 L 690.0,542.0"/>
    <path d="M 604.0,474.0 L 717.0,451.0 L 736.0,453.0 L 756.0,467.0 L 702.0,576.0 L 673.0,615.0"/>
    <path d="M 448.0,661.0 L 493.0,662.0 L 635.0,635.0 L 814.0,612.0 L 864.0,612.0 L 905.0,624.0"/>
    <path d="M 601.0,668.0 L 614.0,672.0 L 632.0,690.0 L 635.0,717.0 L 633.0,1001.0 L 623.0,1030.0 L 613.0,1041.0 L 582.0,1032.0 L 519.0,998.0"/>
    <path d="M 470.0,721.0 L 525.0,763.0 L 538.0,782.0"/>
    <path d="M 438.0,937.0 L 480.0,933.0 L 568.0,862.0 L 600.0,827.0"/>
    <path d="M 767.0,709.0 L 781.0,738.0 L 709.0,807.0 L 701.0,805.0"/>
    <path d="M 661.0,798.0 L 673.0,817.0 L 696.0,836.0 L 826.0,921.0 L 915.0,930.0 L 984.0,926.0"/>
  </g>
</svg>
