<svg xmlns="http://www.w3.org/2000/svg" viewBox="0 0 1024 1024">
  <g style="fill:none;stroke:#000000;stroke-width:50;stroke-linecap:round;stroke-linejoin:round;" transform="scale(1, 1) translate(0, 0)">
    <path d="M 274.0,233.0 L 297.0,254.0 L 309.0,277.0 L 254.0,389.0 L 178.0,507.0 L 124.0,578.0 L 47.0,654.0"/>
    <path d="M 327.0,327.0 L 409.0,367.0 L 427.0,388.0 L 432.0,404.0"/>
    <path d="M 190.0,553.0 L 248.0,551.0 L 345.0,517.0 L 393.0,512.0"/>
    <path d="M 167.0,678.0 L 233.0,673.0 L 334.0,637.0 L 397.0,627.0"/>
    <path d="M 266.0,571.0 L 291.0,591.0 L 293.0,612.0 L 293.0,814.0 L 288.0,833.0 L 276.0,844.0"/>
    <path d="M 146.0,754.0 L 195.0,802.0 L 207.0,824.0"/>
    <path d="M 411.0,712.0 L 389.0,711.0 L 335.0,779.0"/>
    <path d="M 92.0,917.0 L 144.0,931.0 L 416.0,812.0"/>
    <path d="M 494.0,323.0 L 515.0,332.0 L 552.0,333.0 L 695.0,283.0 L 720.0,283.0 L 742.0,295.0 L 752.0,311.0 L 741.0,330.0 L 662.0,411.0 L 651.0,410.0"/>
    <path d="M 611.0,416.0 L 639.0,431.0 L 663.0,467.0 L 677.0,533.0 L 677.0,600.0 L 667.0,636.0 L 641.0,665.0 L 572.0,633.0"/>
    <path d="M 464.0,509.0 L 499.0,516.0 L 825.0,463.0 L 897.0,475.0"/>
    <path d="M 441.0,739.0 L 470.0,770.0 L 499.0,906.0 L 515.0,928.0"/>
    <path d="M 496.0,748.0 L 504.0,755.0 L 576.0,747.0 L 750.0,718.0 L 789.0,729.0 L 813.0,757.0 L 775.0,878.0 L 746.0,904.0"/>
    <path d="M 564.0,764.0 L 578.0,805.0 L 585.0,875.0 L 598.0,920.0"/>
    <path d="M 651.0,749.0 L 682.0,774.0 L 661.0,888.0 L 645.0,918.0"/>
    <path d="M 342.0,957.0 L 387.0,966.0 L 627.0,936.0 L 863.0,919.0 L 908.0,924.0 L 950.0,939.0"/>
  </g>
</svg>
