<svg xmlns="http://www.w3.org/2000/svg" viewBox="0 0 1024 1024">
  <g style="fill:none;stroke:#000000;stroke-width:50;stroke-linecap:round;stroke-linejoin:round;" transform="scale(1, 1) translate(0, 0)">
    <path d="M 285.0,235.0 L 302.0,248.0 L 320.0,279.0 L 287.0,361.0 L 172.0,550.0 L 109.0,628.0 L 71.0,665.0"/>
    <path d="M 328.0,355.0 L 339.0,353.0 L 391.0,374.0 L 417.0,390.0 L 440.0,420.0"/>
    <path d="M 202.0,548.0 L 282.0,533.0 L 353.0,509.0 L 406.0,505.0"/>
    <path d="M 186.0,677.0 L 270.0,669.0 L 350.0,642.0 L 389.0,639.0"/>
    <path d="M 275.0,559.0 L 304.0,583.0 L 305.0,820.0 L 300.0,840.0 L 288.0,851.0"/>
    <path d="M 143.0,749.0 L 199.0,788.0 L 220.0,823.0"/>
    <path d="M 386.0,704.0 L 402.0,724.0 L 359.0,783.0"/>
    <path d="M 88.0,930.0 L 145.0,945.0 L 428.0,819.0"/>
    <path d="M 493.0,313.0 L 523.0,340.0 L 536.0,366.0 L 558.0,586.0 L 557.0,608.0 L 545.0,616.0"/>
    <path d="M 548.0,318.0 L 570.0,327.0 L 717.0,288.0 L 758.0,283.0 L 778.0,293.0 L 798.0,315.0 L 764.0,567.0 L 740.0,588.0"/>
    <path d="M 620.0,438.0 L 646.0,458.0 L 648.0,466.0 L 657.0,590.0 L 648.0,601.0"/>
    <path d="M 677.0,466.0 L 687.0,454.0 L 735.0,443.0 L 749.0,429.0"/>
    <path d="M 445.0,639.0 L 465.0,655.0 L 477.0,708.0 L 481.0,767.0 L 471.0,964.0"/>
    <path d="M 489.0,641.0 L 499.0,648.0 L 515.0,648.0 L 636.0,624.0 L 832.0,602.0 L 866.0,604.0 L 884.0,617.0 L 894.0,632.0 L 893.0,780.0 L 883.0,903.0 L 873.0,950.0 L 848.0,989.0 L 772.0,957.0 L 754.0,941.0"/>
    <path d="M 543.0,722.0 L 569.0,755.0 L 589.0,875.0"/>
    <path d="M 591.0,728.0 L 599.0,734.0 L 691.0,711.0 L 722.0,714.0 L 734.0,726.0 L 734.0,741.0 L 721.0,784.0 L 702.0,795.0"/>
    <path d="M 605.0,852.0 L 615.0,843.0 L 692.0,826.0 L 737.0,823.0 L 756.0,830.0"/>
  </g>
</svg>
