<svg xmlns="http://www.w3.org/2000/svg" viewBox="0 0 1024 1024">
  <g style="fill:none;stroke:#000000;stroke-width:50;stroke-linecap:round;stroke-linejoin:round;" transform="scale(1, 1) translate(0, 0)">
    <path d="M 291.0,224.0 L 320.0,255.0 L 304.0,308.0 L 268.0,388.0 L 215.0,477.0 L 162.0,547.0 L 98.0,613.0 L 54.0,647.0"/>
    <path d="M 335.0,323.0 L 407.0,358.0 L 430.0,383.0"/>
    <path d="M 206.0,530.0 L 276.0,520.0 L 364.0,493.0 L 392.0,494.0"/>
    <path d="M 178.0,657.0 L 237.0,655.0 L 351.0,618.0 L 390.0,615.0"/>
    <path d="M 283.0,544.0 L 308.0,561.0 L 306.0,791.0 L 301.0,811.0 L 290.0,820.0"/>
    <path d="M 160.0,730.0 L 218.0,773.0 L 229.0,803.0"/>
    <path d="M 402.0,670.0 L 417.0,691.0 L 363.0,755.0"/>
    <path d="M 96.0,893.0 L 149.0,908.0 L 210.0,878.0 L 437.0,787.0"/>
    <path d="M 512.0,355.0 L 553.0,359.0 L 602.0,354.0 L 754.0,311.0 L 792.0,313.0"/>
    <path d="M 432.0,464.0 L 454.0,481.0 L 466.0,504.0 L 508.0,678.0"/>
    <path d="M 480.0,467.0 L 503.0,475.0 L 752.0,425.0 L 792.0,425.0 L 817.0,432.0 L 838.0,459.0 L 802.0,584.0 L 780.0,633.0 L 758.0,621.0"/>
    <path d="M 534.0,532.0 L 565.0,556.0 L 579.0,575.0"/>
    <path d="M 724.0,491.0 L 731.0,514.0 L 679.0,572.0"/>
    <path d="M 525.0,665.0 L 556.0,653.0 L 742.0,620.0"/>
    <path d="M 586.0,180.0 L 615.0,203.0 L 638.0,232.0 L 636.0,750.0 L 620.0,975.0 L 625.0,1050.0"/>
    <path d="M 611.0,665.0 L 603.0,671.0 L 584.0,723.0 L 513.0,819.0 L 440.0,899.0 L 354.0,972.0"/>
    <path d="M 660.0,685.0 L 667.0,711.0 L 708.0,758.0 L 771.0,822.0 L 839.0,879.0 L 977.0,904.0"/>
  </g>
</svg>
