<svg xmlns="http://www.w3.org/2000/svg" viewBox="0 0 1024 1024">
  <g style="fill:none;stroke:#000000;stroke-width:50;stroke-linecap:round;stroke-linejoin:round;" transform="scale(1, 1) translate(0, 0)">
    <path d="M 277.0,194.0 L 314.0,239.0 L 274.0,328.0 L 154.0,525.0 L 65.0,636.0 L 39.0,658.0"/>
    <path d="M 325.0,295.0 L 347.0,297.0 L 390.0,320.0 L 415.0,350.0"/>
    <path d="M 183.0,526.0 L 265.0,511.0 L 358.0,480.0 L 378.0,481.0"/>
    <path d="M 149.0,648.0 L 206.0,647.0 L 329.0,601.0 L 373.0,596.0"/>
    <path d="M 261.0,541.0 L 286.0,555.0 L 292.0,574.0 L 290.0,777.0 L 284.0,798.0 L 272.0,808.0"/>
    <path d="M 144.0,727.0 L 188.0,760.0 L 202.0,793.0"/>
    <path d="M 373.0,661.0 L 388.0,684.0 L 331.0,752.0"/>
    <path d="M 88.0,881.0 L 140.0,895.0 L 412.0,776.0"/>
    <path d="M 566.0,255.0 L 585.0,288.0 L 515.0,370.0 L 488.0,394.0 L 482.0,392.0"/>
    <path d="M 426.0,392.0 L 464.0,433.0 L 469.0,505.0 L 476.0,794.0 L 472.0,876.0 L 456.0,990.0 L 458.0,1035.0"/>
    <path d="M 492.0,554.0 L 544.0,529.0 L 598.0,526.0"/>
    <path d="M 502.0,684.0 L 510.0,671.0 L 533.0,662.0 L 559.0,656.0 L 594.0,658.0"/>
    <path d="M 351.0,871.0 L 394.0,875.0 L 522.0,808.0 L 600.0,759.0"/>
    <path d="M 643.0,324.0 L 668.0,352.0 L 669.0,436.0 L 650.0,524.0 L 614.0,585.0"/>
    <path d="M 698.0,354.0 L 706.0,342.0 L 749.0,327.0 L 776.0,320.0 L 801.0,323.0 L 815.0,337.0 L 799.0,393.0 L 794.0,451.0 L 800.0,496.0 L 810.0,509.0 L 847.0,521.0 L 926.0,505.0 L 957.0,510.0"/>
    <path d="M 644.0,637.0 L 694.0,631.0 L 771.0,601.0 L 792.0,608.0 L 807.0,626.0 L 789.0,710.0 L 764.0,775.0 L 711.0,851.0 L 680.0,876.0 L 627.0,901.0 L 532.0,925.0"/>
    <path d="M 626.0,701.0 L 658.0,717.0 L 781.0,859.0 L 860.0,924.0 L 880.0,933.0 L 998.0,948.0"/>
  </g>
</svg>
