<svg xmlns="http://www.w3.org/2000/svg" viewBox="0 0 1024 1024">
  <g style="fill:none;stroke:#000000;stroke-width:50;stroke-linecap:round;stroke-linejoin:round;" transform="scale(1, 1) translate(0, 0)">
    <path d="M 293.0,224.0 L 331.0,267.0 L 294.0,358.0 L 181.0,557.0 L 121.0,640.0 L 67.0,697.0"/>
    <path d="M 341.0,332.0 L 408.0,373.0 L 429.0,399.0"/>
    <path d="M 209.0,553.0 L 284.0,542.0 L 363.0,515.0 L 398.0,513.0"/>
    <path d="M 183.0,674.0 L 231.0,675.0 L 364.0,633.0 L 405.0,631.0"/>
    <path d="M 278.0,569.0 L 303.0,585.0 L 299.0,810.0 L 293.0,830.0 L 282.0,839.0"/>
    <path d="M 172.0,751.0 L 219.0,804.0"/>
    <path d="M 404.0,688.0 L 419.0,712.0 L 356.0,780.0"/>
    <path d="M 119.0,902.0 L 173.0,918.0 L 382.0,832.0 L 448.0,799.0"/>
    <path d="M 799.0,264.0 L 730.0,254.0 L 663.0,297.0 L 542.0,349.0 L 523.0,349.0 L 513.0,358.0"/>
    <path d="M 444.0,453.0 L 499.0,455.0 L 596.0,432.0 L 837.0,391.0 L 872.0,390.0 L 926.0,401.0"/>
    <path d="M 460.0,536.0 L 485.0,557.0 L 494.0,576.0 L 536.0,754.0"/>
    <path d="M 510.0,540.0 L 533.0,547.0 L 781.0,500.0 L 818.0,506.0 L 843.0,533.0 L 809.0,665.0 L 791.0,708.0 L 795.0,729.0"/>
    <path d="M 582.0,632.0 L 705.0,604.0 L 744.0,607.0"/>
    <path d="M 550.0,736.0 L 570.0,726.0 L 617.0,722.0 L 758.0,693.0"/>
    <path d="M 533.0,827.0 L 556.0,834.0 L 595.0,834.0 L 724.0,806.0 L 784.0,804.0"/>
    <path d="M 616.0,348.0 L 648.0,362.0 L 657.0,406.0 L 653.0,900.0 L 634.0,920.0"/>
    <path d="M 402.0,963.0 L 441.0,973.0 L 851.0,924.0 L 885.0,925.0 L 944.0,942.0"/>
  </g>
</svg>
