<svg xmlns="http://www.w3.org/2000/svg" viewBox="0 0 1024 1024">
  <g style="fill:none;stroke:#000000;stroke-width:50;stroke-linecap:round;stroke-linejoin:round;" transform="scale(1, 1) translate(0, 0)">
    <path d="M 294.0,248.0 L 328.0,281.0 L 302.0,366.0 L 267.0,438.0 L 223.0,514.0 L 174.0,580.0 L 106.0,653.0 L 62.0,690.0"/>
    <path d="M 351.0,340.0 L 356.0,352.0 L 396.0,369.0 L 422.0,388.0 L 438.0,420.0"/>
    <path d="M 217.0,568.0 L 323.0,534.0 L 355.0,518.0 L 385.0,509.0 L 416.0,508.0"/>
    <path d="M 194.0,682.0 L 245.0,681.0 L 371.0,635.0 L 411.0,631.0"/>
    <path d="M 291.0,571.0 L 315.0,585.0 L 321.0,609.0 L 318.0,832.0 L 313.0,851.0 L 301.0,861.0"/>
    <path d="M 156.0,758.0 L 221.0,804.0 L 235.0,832.0"/>
    <path d="M 412.0,689.0 L 426.0,713.0 L 364.0,779.0"/>
    <path d="M 109.0,929.0 L 161.0,945.0 L 439.0,836.0"/>
    <path d="M 519.0,275.0 L 574.0,327.0 L 586.0,350.0"/>
    <path d="M 738.0,205.0 L 765.0,237.0 L 705.0,316.0 L 676.0,350.0 L 664.0,356.0 L 664.0,363.0"/>
    <path d="M 505.0,437.0 L 526.0,442.0 L 584.0,438.0 L 741.0,399.0 L 800.0,395.0"/>
    <path d="M 523.0,557.0 L 581.0,549.0 L 723.0,513.0 L 764.0,516.0"/>
    <path d="M 617.0,453.0 L 642.0,476.0 L 641.0,593.0 L 626.0,615.0"/>
    <path d="M 481.0,660.0 L 523.0,660.0 L 616.0,637.0 L 772.0,612.0 L 807.0,612.0 L 847.0,621.0"/>
    <path d="M 432.0,793.0 L 467.0,799.0 L 806.0,742.0 L 852.0,741.0 L 897.0,751.0"/>
    <path d="M 592.0,689.0 L 625.0,723.0 L 622.0,760.0 L 605.0,833.0 L 571.0,900.0 L 538.0,938.0 L 502.0,965.0 L 447.0,993.0 L 380.0,1011.0"/>
    <path d="M 648.0,795.0 L 653.0,814.0 L 725.0,891.0 L 821.0,977.0 L 848.0,987.0 L 965.0,1004.0"/>
  </g>
</svg>
