<svg xmlns="http://www.w3.org/2000/svg" viewBox="0 0 1024 1024">
  <g style="fill:none;stroke:#000000;stroke-width:50;stroke-linecap:round;stroke-linejoin:round;" transform="scale(1, 1) translate(0, 0)">
    <path d="M 261.0,235.0 L 273.0,244.0 L 293.0,277.0 L 260.0,353.0 L 212.0,442.0 L 151.0,534.0 L 95.0,605.0 L 58.0,639.0"/>
    <path d="M 306.0,337.0 L 319.0,336.0 L 355.0,351.0 L 391.0,374.0 L 408.0,396.0"/>
    <path d="M 198.0,537.0 L 239.0,538.0 L 326.0,512.0 L 372.0,508.0"/>
    <path d="M 163.0,653.0 L 184.0,658.0 L 239.0,650.0 L 318.0,624.0 L 382.0,615.0"/>
    <path d="M 253.0,561.0 L 276.0,576.0 L 279.0,598.0 L 275.0,791.0 L 269.0,810.0 L 258.0,819.0"/>
    <path d="M 132.0,722.0 L 178.0,757.0 L 192.0,772.0 L 200.0,794.0"/>
    <path d="M 399.0,700.0 L 377.0,699.0 L 331.0,759.0"/>
    <path d="M 111.0,875.0 L 136.0,887.0 L 165.0,891.0 L 404.0,787.0"/>
    <path d="M 592.0,203.0 L 664.0,243.0 L 691.0,279.0"/>
    <path d="M 473.0,357.0 L 484.0,389.0 L 449.0,476.0 L 446.0,504.0"/>
    <path d="M 513.0,406.0 L 643.0,369.0 L 790.0,345.0 L 822.0,360.0 L 833.0,379.0 L 768.0,447.0"/>
    <path d="M 547.0,486.0 L 564.0,511.0 L 549.0,542.0 L 504.0,596.0 L 476.0,620.0 L 462.0,621.0 L 458.0,630.0"/>
    <path d="M 671.0,488.0 L 778.0,554.0 L 794.0,570.0 L 803.0,592.0"/>
    <path d="M 645.0,614.0 L 617.0,621.0 L 570.0,700.0 L 458.0,824.0 L 405.0,869.0 L 352.0,902.0"/>
    <path d="M 663.0,635.0 L 661.0,643.0 L 728.0,707.0 L 824.0,781.0 L 914.0,803.0 L 977.0,810.0"/>
    <path d="M 483.0,827.0 L 509.0,840.0 L 516.0,858.0 L 544.0,999.0"/>
    <path d="M 536.0,825.0 L 548.0,832.0 L 563.0,830.0 L 695.0,800.0 L 718.0,808.0 L 737.0,833.0 L 716.0,895.0 L 692.0,907.0"/>
    <path d="M 559.0,949.0 L 570.0,959.0 L 704.0,940.0 L 728.0,939.0 L 753.0,949.0"/>
  </g>
</svg>
