<svg xmlns="http://www.w3.org/2000/svg" viewBox="0 0 1024 1024">
  <g style="fill:none;stroke:#000000;stroke-width:50;stroke-linecap:round;stroke-linejoin:round;" transform="scale(1, 1) translate(0, 0)">
    <path d="M 295.0,230.0 L 317.0,250.0 L 328.0,277.0 L 277.0,384.0 L 192.0,518.0 L 115.0,615.0 L 78.0,646.0"/>
    <path d="M 343.0,328.0 L 355.0,327.0 L 402.0,351.0 L 432.0,374.0 L 449.0,400.0"/>
    <path d="M 218.0,537.0 L 269.0,538.0 L 356.0,510.0 L 411.0,503.0"/>
    <path d="M 196.0,666.0 L 238.0,668.0 L 379.0,629.0 L 417.0,626.0"/>
    <path d="M 285.0,559.0 L 302.0,567.0 L 312.0,581.0 L 313.0,807.0 L 308.0,825.0 L 297.0,835.0"/>
    <path d="M 164.0,742.0 L 208.0,775.0 L 225.0,805.0"/>
    <path d="M 453.0,717.0 L 429.0,716.0 L 379.0,767.0"/>
    <path d="M 116.0,902.0 L 169.0,916.0 L 447.0,804.0"/>
    <path d="M 624.0,207.0 L 654.0,230.0 L 664.0,247.0 L 655.0,424.0 L 650.0,445.0 L 638.0,456.0"/>
    <path d="M 502.0,325.0 L 545.0,361.0 L 564.0,387.0"/>
    <path d="M 809.0,245.0 L 827.0,276.0 L 733.0,378.0"/>
    <path d="M 509.0,466.0 L 534.0,491.0 L 539.0,512.0 L 542.0,644.0 L 536.0,792.0 L 541.0,831.0"/>
    <path d="M 560.0,482.0 L 581.0,489.0 L 749.0,450.0 L 768.0,457.0 L 798.0,486.0 L 792.0,617.0 L 798.0,757.0 L 791.0,831.0"/>
    <path d="M 567.0,607.0 L 572.0,597.0 L 649.0,583.0 L 688.0,578.0 L 713.0,583.0"/>
    <path d="M 564.0,696.0 L 575.0,686.0 L 585.0,689.0 L 641.0,676.0 L 692.0,670.0 L 724.0,675.0"/>
    <path d="M 565.0,811.0 L 576.0,801.0 L 622.0,795.0 L 744.0,784.0 L 753.0,792.0"/>
    <path d="M 621.0,889.0 L 590.0,894.0 L 503.0,987.0 L 456.0,1023.0 L 390.0,1060.0"/>
    <path d="M 728.0,873.0 L 826.0,961.0 L 843.0,991.0 L 852.0,1025.0"/>
  </g>
</svg>
