<svg xmlns="http://www.w3.org/2000/svg" viewBox="0 0 1024 1024">
  <g style="fill:none;stroke:#000000;stroke-width:50;stroke-linecap:round;stroke-linejoin:round;" transform="scale(1, 1) translate(0, 0)">
    <path d="M 283.0,226.0 L 305.0,246.0 L 316.0,272.0 L 283.0,345.0 L 212.0,467.0 L 162.0,537.0 L 113.0,596.0 L 74.0,630.0"/>
    <path d="M 328.0,334.0 L 338.0,332.0 L 402.0,369.0 L 423.0,400.0"/>
    <path d="M 211.0,534.0 L 254.0,536.0 L 359.0,507.0 L 392.0,507.0"/>
    <path d="M 183.0,658.0 L 204.0,662.0 L 262.0,655.0 L 363.0,624.0 L 405.0,622.0"/>
    <path d="M 269.0,556.0 L 299.0,579.0 L 301.0,804.0 L 296.0,822.0 L 284.0,833.0"/>
    <path d="M 147.0,722.0 L 203.0,772.0 L 216.0,799.0"/>
    <path d="M 390.0,680.0 L 406.0,700.0 L 355.0,772.0"/>
    <path d="M 124.0,897.0 L 176.0,911.0 L 412.0,807.0"/>
    <path d="M 621.0,180.0 L 639.0,210.0 L 577.0,292.0 L 551.0,314.0 L 545.0,329.0"/>
    <path d="M 499.0,321.0 L 519.0,344.0 L 526.0,397.0 L 525.0,541.0 L 519.0,582.0 L 525.0,635.0"/>
    <path d="M 545.0,334.0 L 557.0,344.0 L 735.0,308.0 L 757.0,315.0 L 786.0,344.0 L 779.0,413.0 L 782.0,542.0 L 775.0,626.0"/>
    <path d="M 547.0,445.0 L 571.0,434.0 L 692.0,416.0"/>
    <path d="M 549.0,525.0 L 610.0,509.0 L 677.0,498.0 L 700.0,500.0"/>
    <path d="M 547.0,614.0 L 559.0,603.0 L 570.0,606.0 L 742.0,575.0"/>
    <path d="M 440.0,761.0 L 485.0,766.0 L 548.0,752.0 L 821.0,714.0 L 885.0,727.0"/>
    <path d="M 608.0,649.0 L 632.0,678.0 L 635.0,708.0 L 629.0,980.0 L 641.0,1052.0"/>
    <path d="M 606.0,767.0 L 574.0,821.0 L 507.0,892.0 L 455.0,932.0 L 376.0,972.0"/>
    <path d="M 662.0,760.0 L 669.0,783.0 L 712.0,834.0 L 821.0,939.0 L 944.0,961.0"/>
  </g>
</svg>
