<svg xmlns="http://www.w3.org/2000/svg" viewBox="0 0 1024 1024">
  <g style="fill:none;stroke:#000000;stroke-width:50;stroke-linecap:round;stroke-linejoin:round;" transform="scale(1, 1) translate(0, 0)">
    <path d="M 225.0,294.0 L 285.0,299.0 L 434.0,269.0 L 495.0,266.0"/>
    <path d="M 243.0,377.0 L 302.0,378.0 L 418.0,352.0 L 469.0,356.0"/>
    <path d="M 342.0,196.0 L 375.0,227.0 L 367.0,399.0 L 363.0,415.0 L 353.0,423.0"/>
    <path d="M 145.0,476.0 L 170.0,483.0 L 197.0,482.0 L 448.0,427.0 L 469.0,424.0 L 495.0,430.0"/>
    <path d="M 380.0,496.0 L 387.0,489.0 L 424.0,503.0 L 438.0,527.0 L 396.0,605.0 L 378.0,622.0 L 364.0,625.0 L 307.0,582.0"/>
    <path d="M 365.0,471.0 L 238.0,603.0 L 173.0,648.0 L 132.0,666.0"/>
    <path d="M 587.0,193.0 L 599.0,199.0 L 619.0,226.0 L 608.0,267.0 L 561.0,373.0 L 516.0,436.0"/>
    <path d="M 588.0,372.0 L 644.0,366.0 L 787.0,323.0 L 816.0,324.0"/>
    <path d="M 666.0,390.0 L 685.0,406.0 L 669.0,459.0 L 648.0,499.0 L 603.0,547.0 L 528.0,583.0"/>
    <path d="M 553.0,456.0 L 718.0,539.0 L 767.0,570.0 L 791.0,593.0 L 802.0,613.0"/>
    <path d="M 514.0,620.0 L 485.0,623.0 L 392.0,723.0 L 272.0,813.0 L 180.0,864.0 L 142.0,876.0"/>
    <path d="M 518.0,646.0 L 527.0,643.0 L 639.0,711.0 L 791.0,781.0 L 852.0,784.0 L 964.0,772.0"/>
    <path d="M 380.0,770.0 L 458.0,772.0 L 558.0,746.0 L 608.0,747.0"/>
    <path d="M 361.0,870.0 L 420.0,875.0 L 576.0,844.0 L 631.0,842.0"/>
    <path d="M 478.0,790.0 L 506.0,811.0 L 502.0,958.0 L 499.0,970.0 L 486.0,980.0"/>
    <path d="M 309.0,909.0 L 371.0,943.0 L 392.0,968.0"/>
    <path d="M 648.0,865.0 L 658.0,882.0 L 656.0,893.0 L 580.0,956.0"/>
    <path d="M 242.0,1020.0 L 296.0,1029.0 L 460.0,1007.0 L 723.0,987.0 L 749.0,990.0 L 799.0,1008.0"/>
  </g>
</svg>
