<svg xmlns="http://www.w3.org/2000/svg" viewBox="0 0 1024 1024">
  <g style="fill:none;stroke:#000000;stroke-width:50;stroke-linecap:round;stroke-linejoin:round;" transform="scale(1, 1) translate(0, 0)">
    <path d="M 310.0,233.0 L 345.0,279.0 L 299.0,377.0 L 190.0,547.0 L 106.0,647.0 L 79.0,670.0"/>
    <path d="M 354.0,346.0 L 376.0,348.0 L 411.0,366.0 L 438.0,400.0"/>
    <path d="M 218.0,545.0 L 280.0,536.0 L 375.0,507.0 L 410.0,507.0"/>
    <path d="M 179.0,666.0 L 238.0,668.0 L 376.0,631.0 L 413.0,630.0"/>
    <path d="M 285.0,558.0 L 311.0,573.0 L 315.0,605.0 L 307.0,818.0 L 301.0,838.0 L 289.0,847.0"/>
    <path d="M 171.0,746.0 L 211.0,789.0 L 223.0,813.0"/>
    <path d="M 414.0,696.0 L 426.0,719.0 L 356.0,787.0"/>
    <path d="M 120.0,910.0 L 173.0,926.0 L 440.0,815.0"/>
    <path d="M 523.0,282.0 L 574.0,286.0 L 712.0,253.0 L 759.0,236.0 L 799.0,228.0 L 820.0,231.0"/>
    <path d="M 482.0,425.0 L 506.0,444.0 L 515.0,460.0 L 548.0,580.0"/>
    <path d="M 525.0,424.0 L 550.0,431.0 L 762.0,378.0 L 835.0,372.0 L 852.0,384.0 L 865.0,408.0 L 816.0,520.0 L 815.0,542.0"/>
    <path d="M 572.0,335.0 L 608.0,367.0 L 629.0,507.0 L 622.0,517.0"/>
    <path d="M 702.0,277.0 L 733.0,299.0 L 718.0,472.0 L 712.0,490.0 L 702.0,498.0"/>
    <path d="M 564.0,545.0 L 571.0,551.0 L 788.0,505.0"/>
    <path d="M 576.0,637.0 L 627.0,640.0 L 744.0,615.0 L 780.0,615.0"/>
    <path d="M 472.0,768.0 L 517.0,773.0 L 687.0,735.0 L 868.0,708.0 L 939.0,718.0"/>
    <path d="M 653.0,765.0 L 679.0,785.0 L 682.0,799.0 L 684.0,930.0 L 677.0,981.0 L 661.0,1004.0 L 587.0,979.0 L 571.0,968.0"/>
    <path d="M 530.0,853.0 L 505.0,907.0 L 448.0,988.0"/>
    <path d="M 789.0,831.0 L 886.0,902.0 L 915.0,956.0"/>
  </g>
</svg>
