<svg xmlns="http://www.w3.org/2000/svg" viewBox="0 0 1024 1024">
  <g style="fill:none;stroke:#000000;stroke-width:50;stroke-linecap:round;stroke-linejoin:round;" transform="scale(1, 1) translate(0, 0)">
    <path d="M 269.0,220.0 L 302.0,261.0 L 268.0,344.0 L 217.0,439.0 L 145.0,549.0 L 91.0,618.0 L 54.0,651.0"/>
    <path d="M 311.0,326.0 L 321.0,338.0 L 378.0,372.0 L 401.0,406.0"/>
    <path d="M 190.0,538.0 L 232.0,539.0 L 322.0,509.0 L 361.0,507.0"/>
    <path d="M 154.0,668.0 L 222.0,665.0 L 343.0,630.0 L 372.0,629.0"/>
    <path d="M 246.0,558.0 L 271.0,573.0 L 276.0,583.0 L 274.0,808.0 L 268.0,828.0 L 256.0,839.0"/>
    <path d="M 145.0,735.0 L 177.0,766.0 L 197.0,798.0"/>
    <path d="M 390.0,717.0 L 369.0,720.0 L 327.0,775.0"/>
    <path d="M 106.0,899.0 L 159.0,911.0 L 372.0,816.0"/>
    <path d="M 503.0,371.0 L 544.0,374.0 L 734.0,327.0 L 764.0,332.0 L 789.0,355.0 L 762.0,484.0 L 742.0,505.0"/>
    <path d="M 437.0,488.0 L 470.0,490.0 L 578.0,467.0 L 851.0,424.0 L 899.0,426.0 L 930.0,434.0"/>
    <path d="M 490.0,573.0 L 524.0,574.0 L 740.0,529.0 L 791.0,533.0"/>
    <path d="M 572.0,193.0 L 587.0,195.0 L 607.0,208.0 L 624.0,224.0 L 628.0,238.0 L 620.0,398.0 L 615.0,1031.0"/>
    <path d="M 409.0,637.0 L 438.0,664.0 L 436.0,768.0 L 416.0,880.0 L 401.0,921.0 L 378.0,958.0 L 345.0,997.0 L 298.0,1031.0"/>
    <path d="M 818.0,563.0 L 847.0,599.0 L 853.0,656.0 L 853.0,1073.0"/>
    <path d="M 523.0,606.0 L 536.0,629.0 L 532.0,675.0 L 540.0,686.0"/>
    <path d="M 461.0,728.0 L 499.0,710.0 L 558.0,710.0"/>
    <path d="M 707.0,587.0 L 724.0,612.0 L 725.0,657.0 L 752.0,661.0 L 816.0,642.0 L 828.0,648.0"/>
    <path d="M 511.0,776.0 L 536.0,777.0 L 712.0,736.0 L 757.0,730.0 L 777.0,735.0"/>
    <path d="M 443.0,856.0 L 508.0,843.0 L 529.0,858.0 L 518.0,965.0 L 524.0,997.0"/>
    <path d="M 743.0,826.0 L 750.0,817.0 L 820.0,805.0 L 835.0,791.0"/>
    <path d="M 690.0,796.0 L 712.0,819.0 L 716.0,834.0 L 717.0,930.0 L 726.0,966.0"/>
  </g>
</svg>
