<svg xmlns="http://www.w3.org/2000/svg" viewBox="0 0 1024 1024">
  <g style="fill:none;stroke:#000000;stroke-width:50;stroke-linecap:round;stroke-linejoin:round;" transform="scale(1, 1) translate(0, 0)">
    <path d="M 292.0,225.0 L 317.0,248.0 L 328.0,270.0 L 289.0,351.0 L 212.0,474.0 L 125.0,585.0 L 75.0,639.0 L 62.0,646.0"/>
    <path d="M 332.0,343.0 L 354.0,345.0 L 400.0,366.0 L 435.0,400.0"/>
    <path d="M 215.0,529.0 L 257.0,531.0 L 355.0,503.0 L 397.0,499.0"/>
    <path d="M 160.0,670.0 L 214.0,671.0 L 357.0,628.0 L 409.0,622.0"/>
    <path d="M 270.0,550.0 L 303.0,577.0 L 301.0,814.0 L 296.0,830.0 L 284.0,841.0"/>
    <path d="M 177.0,743.0 L 209.0,774.0 L 229.0,806.0"/>
    <path d="M 378.0,697.0 L 395.0,716.0 L 351.0,779.0"/>
    <path d="M 101.0,905.0 L 153.0,921.0 L 423.0,816.0"/>
    <path d="M 478.0,293.0 L 507.0,316.0 L 544.0,449.0 L 557.0,459.0"/>
    <path d="M 534.0,321.0 L 545.0,305.0 L 563.0,300.0 L 793.0,265.0 L 832.0,268.0 L 858.0,300.0 L 802.0,442.0"/>
    <path d="M 601.0,316.0 L 616.0,345.0 L 625.0,400.0 L 632.0,416.0 L 640.0,419.0"/>
    <path d="M 707.0,297.0 L 730.0,319.0 L 710.0,401.0 L 699.0,405.0"/>
    <path d="M 568.0,457.0 L 573.0,451.0 L 783.0,417.0"/>
    <path d="M 548.0,471.0 L 564.0,486.0 L 564.0,512.0 L 548.0,541.0 L 508.0,587.0 L 470.0,616.0"/>
    <path d="M 574.0,543.0 L 591.0,536.0 L 648.0,535.0 L 830.0,502.0 L 861.0,508.0 L 887.0,534.0 L 869.0,814.0 L 853.0,899.0 L 835.0,956.0 L 808.0,1001.0 L 783.0,1022.0 L 696.0,973.0"/>
    <path d="M 456.0,675.0 L 484.0,704.0 L 513.0,816.0"/>
    <path d="M 498.0,679.0 L 515.0,685.0 L 632.0,664.0 L 692.0,646.0 L 710.0,647.0 L 738.0,673.0 L 716.0,725.0 L 696.0,736.0"/>
    <path d="M 527.0,781.0 L 535.0,788.0 L 687.0,759.0 L 736.0,766.0"/>
    <path d="M 566.0,589.0 L 592.0,609.0 L 601.0,627.0 L 598.0,843.0 L 595.0,858.0 L 585.0,865.0"/>
    <path d="M 444.0,904.0 L 487.0,919.0 L 682.0,863.0 L 700.0,867.0"/>
    <path d="M 697.0,821.0 L 745.0,873.0 L 758.0,911.0"/>
  </g>
</svg>
