<svg xmlns="http://www.w3.org/2000/svg" viewBox="0 0 1024 1024">
  <g style="fill:none;stroke:#000000;stroke-width:50;stroke-linecap:round;stroke-linejoin:round;" transform="scale(1, 1) translate(0, 0)">
    <path d="M 270.0,244.0 L 299.0,276.0 L 258.0,385.0 L 174.0,518.0 L 109.0,589.0 L 61.0,633.0 L 49.0,635.0 L 46.0,643.0"/>
    <path d="M 319.0,333.0 L 387.0,377.0 L 403.0,402.0"/>
    <path d="M 178.0,573.0 L 235.0,572.0 L 337.0,541.0 L 370.0,539.0"/>
    <path d="M 166.0,705.0 L 226.0,700.0 L 327.0,667.0 L 365.0,664.0"/>
    <path d="M 252.0,593.0 L 279.0,611.0 L 281.0,635.0 L 281.0,851.0 L 264.0,880.0"/>
    <path d="M 132.0,778.0 L 191.0,826.0 L 202.0,852.0"/>
    <path d="M 365.0,723.0 L 381.0,745.0 L 327.0,816.0"/>
    <path d="M 96.0,943.0 L 151.0,958.0 L 380.0,859.0"/>
    <path d="M 447.0,394.0 L 490.0,395.0 L 589.0,367.0 L 617.0,367.0"/>
    <path d="M 495.0,211.0 L 537.0,245.0 L 533.0,461.0 L 517.0,487.0"/>
    <path d="M 403.0,525.0 L 438.0,529.0 L 607.0,485.0 L 773.0,453.0 L 821.0,453.0 L 851.0,460.0"/>
    <path d="M 413.0,601.0 L 439.0,625.0 L 464.0,716.0"/>
    <path d="M 451.0,597.0 L 463.0,605.0 L 536.0,583.0 L 571.0,579.0 L 594.0,599.0 L 582.0,637.0 L 564.0,646.0"/>
    <path d="M 478.0,698.0 L 506.0,684.0 L 548.0,675.0 L 605.0,677.0"/>
    <path d="M 431.0,769.0 L 487.0,770.0 L 578.0,745.0 L 612.0,744.0"/>
    <path d="M 429.0,853.0 L 488.0,849.0 L 568.0,830.0 L 609.0,834.0"/>
    <path d="M 535.0,781.0 L 519.0,801.0 L 520.0,887.0 L 504.0,908.0"/>
    <path d="M 339.0,953.0 L 374.0,968.0 L 393.0,967.0 L 627.0,892.0"/>
    <path d="M 622.0,171.0 L 656.0,189.0 L 679.0,216.0 L 677.0,377.0 L 696.0,584.0 L 727.0,739.0 L 773.0,864.0 L 844.0,979.0 L 873.0,1008.0 L 908.0,1026.0 L 917.0,1027.0 L 932.0,999.0 L 948.0,890.0"/>
    <path d="M 816.0,563.0 L 838.0,591.0 L 841.0,604.0 L 818.0,693.0 L 791.0,763.0 L 759.0,824.0 L 722.0,878.0 L 656.0,948.0 L 558.0,1024.0"/>
    <path d="M 760.0,268.0 L 830.0,314.0 L 854.0,354.0"/>
  </g>
</svg>
