<svg xmlns="http://www.w3.org/2000/svg" viewBox="0 0 1024 1024">
  <g style="fill:none;stroke:#000000;stroke-width:50;stroke-linecap:round;stroke-linejoin:round;" transform="scale(1, 1) translate(0, 0)">
    <path d="M 280.0,264.0 L 307.0,296.0 L 283.0,368.0 L 240.0,455.0 L 165.0,566.0 L 98.0,636.0 L 69.0,661.0 L 57.0,663.0 L 54.0,671.0"/>
    <path d="M 318.0,370.0 L 333.0,370.0 L 383.0,394.0 L 407.0,424.0"/>
    <path d="M 195.0,564.0 L 255.0,558.0 L 328.0,532.0 L 372.0,527.0"/>
    <path d="M 147.0,694.0 L 197.0,694.0 L 334.0,647.0 L 373.0,643.0"/>
    <path d="M 260.0,579.0 L 284.0,596.0 L 285.0,618.0 L 285.0,835.0 L 281.0,852.0 L 269.0,861.0"/>
    <path d="M 139.0,761.0 L 198.0,809.0 L 211.0,840.0"/>
    <path d="M 361.0,709.0 L 374.0,724.0 L 338.0,791.0"/>
    <path d="M 89.0,923.0 L 138.0,938.0 L 384.0,844.0"/>
    <path d="M 587.0,186.0 L 623.0,217.0 L 624.0,348.0 L 610.0,358.0"/>
    <path d="M 653.0,285.0 L 667.0,273.0 L 741.0,255.0 L 780.0,255.0"/>
    <path d="M 505.0,400.0 L 524.0,407.0 L 653.0,369.0 L 805.0,342.0 L 827.0,349.0 L 844.0,371.0 L 786.0,445.0"/>
    <path d="M 452.0,392.0 L 479.0,416.0 L 487.0,455.0 L 482.0,604.0 L 466.0,714.0 L 443.0,803.0 L 404.0,898.0 L 367.0,964.0 L 331.0,1011.0"/>
    <path d="M 546.0,501.0 L 583.0,496.0 L 684.0,457.0 L 729.0,453.0"/>
    <path d="M 600.0,416.0 L 617.0,442.0 L 617.0,530.0 L 625.0,546.0 L 639.0,555.0 L 691.0,559.0 L 743.0,543.0 L 759.0,530.0 L 765.0,478.0"/>
    <path d="M 527.0,628.0 L 548.0,644.0 L 555.0,658.0 L 589.0,795.0"/>
    <path d="M 570.0,629.0 L 582.0,636.0 L 746.0,601.0 L 798.0,605.0 L 818.0,630.0 L 774.0,770.0"/>
    <path d="M 622.0,709.0 L 646.0,707.0 L 702.0,688.0 L 736.0,687.0"/>
    <path d="M 654.0,635.0 L 673.0,651.0 L 675.0,736.0 L 663.0,748.0"/>
    <path d="M 604.0,788.0 L 610.0,780.0 L 755.0,748.0"/>
    <path d="M 506.0,862.0 L 506.0,897.0 L 478.0,1001.0"/>
    <path d="M 558.0,859.0 L 577.0,884.0 L 601.0,951.0 L 626.0,982.0 L 648.0,998.0 L 690.0,1015.0 L 756.0,1028.0 L 830.0,1025.0 L 874.0,1001.0 L 862.0,964.0 L 835.0,908.0 L 826.0,903.0 L 826.0,894.0"/>
    <path d="M 652.0,832.0 L 700.0,860.0 L 725.0,886.0"/>
    <path d="M 836.0,788.0 L 926.0,833.0 L 940.0,843.0 L 959.0,872.0"/>
  </g>
</svg>
