<svg xmlns="http://www.w3.org/2000/svg" viewBox="0 0 1024 1024">
  <g style="fill:none;stroke:#000000;stroke-width:50;stroke-linecap:round;stroke-linejoin:round;" transform="scale(1, 1) translate(0, 0)">
    <path d="M 263.0,245.0 L 286.0,266.0 L 296.0,291.0 L 241.0,404.0 L 139.0,554.0 L 88.0,615.0 L 51.0,647.0"/>
    <path d="M 309.0,344.0 L 378.0,385.0 L 391.0,404.0"/>
    <path d="M 198.0,535.0 L 242.0,535.0 L 345.0,503.0 L 380.0,502.0"/>
    <path d="M 171.0,657.0 L 213.0,661.0 L 344.0,624.0 L 380.0,623.0"/>
    <path d="M 246.0,561.0 L 272.0,577.0 L 276.0,605.0 L 274.0,800.0 L 269.0,820.0 L 258.0,828.0"/>
    <path d="M 138.0,722.0 L 181.0,760.0 L 201.0,802.0"/>
    <path d="M 361.0,686.0 L 371.0,703.0 L 327.0,763.0"/>
    <path d="M 110.0,889.0 L 161.0,902.0 L 364.0,807.0"/>
    <path d="M 614.0,193.0 L 688.0,231.0 L 706.0,258.0"/>
    <path d="M 519.0,339.0 L 538.0,346.0 L 595.0,341.0 L 769.0,302.0 L 820.0,299.0"/>
    <path d="M 456.0,320.0 L 488.0,352.0 L 491.0,406.0 L 482.0,534.0 L 461.0,658.0 L 426.0,769.0 L 399.0,827.0 L 358.0,896.0 L 327.0,935.0"/>
    <path d="M 528.0,461.0 L 571.0,464.0 L 718.0,427.0 L 822.0,411.0 L 836.0,418.0 L 852.0,440.0 L 806.0,556.0"/>
    <path d="M 587.0,385.0 L 616.0,415.0 L 627.0,531.0 L 619.0,539.0"/>
    <path d="M 708.0,340.0 L 728.0,356.0 L 734.0,375.0 L 717.0,499.0 L 703.0,525.0"/>
    <path d="M 545.0,569.0 L 567.0,573.0 L 755.0,534.0 L 789.0,532.0"/>
    <path d="M 567.0,697.0 L 577.0,688.0 L 618.0,675.0 L 658.0,676.0"/>
    <path d="M 520.0,631.0 L 545.0,660.0 L 546.0,732.0 L 540.0,773.0 L 541.0,793.0 L 549.0,805.0 L 581.0,794.0 L 619.0,769.0 L 636.0,765.0 L 640.0,754.0 L 658.0,749.0"/>
    <path d="M 861.0,648.0 L 832.0,632.0 L 744.0,680.0 L 737.0,697.0"/>
    <path d="M 695.0,599.0 L 716.0,632.0 L 709.0,702.0 L 711.0,757.0 L 718.0,783.0 L 739.0,807.0 L 765.0,815.0 L 825.0,816.0 L 864.0,806.0 L 886.0,793.0 L 897.0,783.0 L 894.0,681.0"/>
    <path d="M 499.0,890.0 L 480.0,945.0 L 446.0,1007.0"/>
    <path d="M 597.0,907.0 L 624.0,956.0 L 627.0,976.0"/>
    <path d="M 711.0,897.0 L 737.0,935.0 L 748.0,964.0"/>
    <path d="M 815.0,888.0 L 891.0,958.0 L 908.0,1011.0"/>
  </g>
</svg>
