<svg xmlns="http://www.w3.org/2000/svg" viewBox="0 0 1024 1024">
  <g style="fill:none;stroke:#000000;stroke-width:50;stroke-linecap:round;stroke-linejoin:round;" transform="scale(1, 1) translate(0, 0)">
    <path d="M 266.0,241.0 L 290.0,260.0 L 304.0,283.0 L 267.0,379.0 L 171.0,555.0 L 109.0,642.0 L 73.0,678.0"/>
    <path d="M 311.0,357.0 L 326.0,355.0 L 370.0,376.0 L 399.0,408.0"/>
    <path d="M 181.0,598.0 L 231.0,596.0 L 325.0,558.0 L 378.0,547.0"/>
    <path d="M 151.0,730.0 L 191.0,730.0 L 241.0,720.0 L 334.0,684.0 L 393.0,675.0"/>
    <path d="M 250.0,612.0 L 275.0,630.0 L 278.0,698.0 L 277.0,877.0 L 272.0,896.0 L 260.0,907.0"/>
    <path d="M 123.0,802.0 L 177.0,840.0 L 197.0,880.0"/>
    <path d="M 373.0,755.0 L 389.0,777.0 L 335.0,848.0"/>
    <path d="M 102.0,974.0 L 159.0,988.0 L 411.0,867.0"/>
    <path d="M 515.0,221.0 L 527.0,234.0 L 534.0,260.0 L 488.0,337.0 L 470.0,356.0 L 466.0,371.0 L 479.0,387.0 L 530.0,416.0 L 542.0,437.0"/>
    <path d="M 642.0,200.0 L 654.0,213.0 L 661.0,240.0 L 594.0,345.0 L 608.0,362.0 L 658.0,389.0 L 671.0,411.0"/>
    <path d="M 779.0,180.0 L 792.0,194.0 L 801.0,223.0 L 745.0,307.0 L 742.0,324.0 L 756.0,342.0 L 801.0,368.0 L 817.0,394.0"/>
    <path d="M 434.0,481.0 L 461.0,501.0 L 508.0,664.0"/>
    <path d="M 490.0,489.0 L 501.0,495.0 L 585.0,471.0 L 759.0,437.0 L 805.0,439.0 L 831.0,470.0 L 779.0,611.0"/>
    <path d="M 646.0,481.0 L 657.0,491.0 L 655.0,497.0 L 615.0,551.0 L 547.0,599.0"/>
    <path d="M 550.0,523.0 L 659.0,545.0 L 686.0,555.0 L 707.0,571.0"/>
    <path d="M 525.0,649.0 L 534.0,639.0 L 551.0,640.0 L 560.0,633.0 L 568.0,636.0 L 722.0,605.0 L 744.0,603.0 L 756.0,610.0"/>
    <path d="M 444.0,706.0 L 474.0,739.0 L 471.0,826.0 L 447.0,971.0 L 451.0,997.0 L 493.0,985.0 L 502.0,971.0 L 549.0,933.0"/>
    <path d="M 524.0,721.0 L 563.0,747.0"/>
    <path d="M 518.0,818.0 L 555.0,845.0 L 564.0,859.0"/>
    <path d="M 587.0,667.0 L 617.0,700.0 L 610.0,955.0 L 621.0,991.0 L 648.0,975.0 L 670.0,952.0 L 697.0,921.0 L 699.0,911.0 L 712.0,904.0 L 713.0,891.0 L 723.0,889.0 L 728.0,879.0"/>
    <path d="M 671.0,687.0 L 702.0,708.0 L 711.0,721.0"/>
    <path d="M 666.0,786.0 L 707.0,824.0"/>
    <path d="M 746.0,661.0 L 777.0,710.0 L 772.0,811.0 L 788.0,932.0 L 810.0,983.0 L 848.0,1028.0 L 899.0,1051.0 L 936.0,1046.0 L 959.0,890.0"/>
  </g>
</svg>
