<svg xmlns="http://www.w3.org/2000/svg" viewBox="0 0 1024 1024">
  <g style="fill:none;stroke:#000000;stroke-width:50;stroke-linecap:round;stroke-linejoin:round;" transform="scale(1, 1) translate(0, 0)">
    <path d="M 243.0,242.0 L 266.0,260.0 L 281.0,283.0 L 243.0,382.0 L 150.0,554.0 L 91.0,638.0 L 53.0,678.0"/>
    <path d="M 286.0,362.0 L 299.0,360.0 L 344.0,379.0 L 369.0,397.0 L 380.0,413.0"/>
    <path d="M 179.0,551.0 L 201.0,541.0 L 220.0,542.0 L 273.0,529.0 L 330.0,508.0 L 365.0,507.0"/>
    <path d="M 155.0,674.0 L 205.0,675.0 L 332.0,633.0 L 371.0,631.0"/>
    <path d="M 235.0,560.0 L 265.0,582.0 L 269.0,825.0 L 264.0,845.0 L 253.0,855.0"/>
    <path d="M 123.0,757.0 L 170.0,789.0 L 196.0,827.0"/>
    <path d="M 352.0,701.0 L 367.0,720.0 L 323.0,788.0"/>
    <path d="M 95.0,925.0 L 148.0,937.0 L 388.0,819.0"/>
    <path d="M 415.0,320.0 L 439.0,348.0 L 450.0,422.0 L 445.0,801.0 L 431.0,926.0 L 437.0,979.0"/>
    <path d="M 466.0,331.0 L 477.0,337.0 L 509.0,323.0 L 576.0,307.0 L 599.0,324.0 L 603.0,331.0 L 577.0,512.0"/>
    <path d="M 475.0,435.0 L 481.0,423.0 L 502.0,416.0 L 547.0,416.0"/>
    <path d="M 470.0,522.0 L 479.0,514.0 L 556.0,493.0"/>
    <path d="M 711.0,260.0 L 735.0,286.0 L 742.0,309.0 L 742.0,411.0 L 750.0,481.0"/>
    <path d="M 763.0,280.0 L 776.0,287.0 L 787.0,285.0 L 883.0,258.0 L 924.0,287.0 L 921.0,511.0 L 927.0,858.0 L 922.0,980.0 L 904.0,1016.0 L 807.0,979.0"/>
    <path d="M 764.0,390.0 L 777.0,381.0 L 832.0,371.0 L 865.0,375.0"/>
    <path d="M 770.0,473.0 L 779.0,463.0 L 853.0,454.0 L 883.0,452.0 L 893.0,461.0"/>
    <path d="M 591.0,573.0 L 701.0,552.0 L 757.0,545.0 L 772.0,550.0"/>
    <path d="M 509.0,640.0 L 529.0,656.0 L 539.0,675.0 L 569.0,792.0"/>
    <path d="M 549.0,643.0 L 570.0,647.0 L 750.0,610.0 L 803.0,614.0 L 821.0,639.0 L 779.0,756.0 L 776.0,762.0 L 767.0,762.0"/>
    <path d="M 584.0,679.0 L 623.0,722.0"/>
    <path d="M 730.0,656.0 L 736.0,669.0 L 730.0,679.0 L 710.0,701.0 L 701.0,702.0"/>
    <path d="M 582.0,781.0 L 614.0,769.0 L 726.0,752.0 L 747.0,752.0 L 753.0,760.0"/>
    <path d="M 645.0,503.0 L 669.0,531.0 L 659.0,949.0 L 669.0,1009.0"/>
    <path d="M 644.0,786.0 L 635.0,793.0 L 628.0,818.0 L 602.0,855.0 L 554.0,911.0 L 522.0,941.0 L 514.0,942.0 L 513.0,949.0"/>
    <path d="M 728.0,825.0 L 788.0,864.0 L 801.0,876.0 L 811.0,899.0"/>
  </g>
</svg>
