<svg xmlns="http://www.w3.org/2000/svg" viewBox="0 0 1024 1024">
  <g style="fill:none;stroke:#000000;stroke-width:50;stroke-linecap:round;stroke-linejoin:round;" transform="scale(1, 1) translate(0, 0)">
    <path d="M 259.0,240.0 L 282.0,259.0 L 296.0,283.0 L 268.0,352.0 L 156.0,553.0 L 99.0,634.0 L 47.0,690.0"/>
    <path d="M 317.0,327.0 L 392.0,373.0 L 415.0,402.0"/>
    <path d="M 182.0,549.0 L 241.0,541.0 L 329.0,510.0 L 367.0,511.0"/>
    <path d="M 153.0,678.0 L 198.0,675.0 L 312.0,634.0 L 359.0,627.0"/>
    <path d="M 249.0,565.0 L 272.0,577.0 L 277.0,604.0 L 274.0,817.0 L 269.0,836.0 L 259.0,845.0"/>
    <path d="M 132.0,754.0 L 190.0,797.0 L 201.0,827.0"/>
    <path d="M 377.0,724.0 L 358.0,726.0 L 322.0,791.0"/>
    <path d="M 79.0,914.0 L 131.0,928.0 L 368.0,824.0"/>
    <path d="M 581.0,203.0 L 609.0,232.0 L 592.0,288.0 L 551.0,376.0 L 529.0,418.0 L 476.0,490.0 L 422.0,549.0 L 393.0,567.0 L 390.0,575.0"/>
    <path d="M 629.0,283.0 L 632.0,294.0 L 691.0,359.0 L 822.0,468.0 L 860.0,484.0 L 997.0,508.0"/>
    <path d="M 525.0,500.0 L 586.0,497.0 L 663.0,472.0 L 689.0,472.0"/>
    <path d="M 397.0,625.0 L 417.0,644.0 L 442.0,736.0"/>
    <path d="M 419.0,620.0 L 445.0,620.0 L 484.0,609.0 L 501.0,613.0 L 510.0,622.0 L 501.0,672.0 L 491.0,677.0"/>
    <path d="M 451.0,717.0 L 479.0,701.0 L 523.0,701.0"/>
    <path d="M 541.0,593.0 L 562.0,614.0 L 582.0,691.0"/>
    <path d="M 572.0,592.0 L 581.0,596.0 L 633.0,580.0 L 645.0,582.0 L 657.0,593.0 L 647.0,636.0 L 637.0,641.0"/>
    <path d="M 594.0,681.0 L 619.0,666.0 L 661.0,663.0"/>
    <path d="M 685.0,564.0 L 704.0,587.0 L 723.0,669.0"/>
    <path d="M 719.0,564.0 L 725.0,569.0 L 788.0,552.0 L 802.0,554.0 L 812.0,563.0 L 812.0,581.0 L 802.0,612.0 L 787.0,623.0"/>
    <path d="M 736.0,656.0 L 741.0,649.0 L 773.0,641.0 L 821.0,645.0"/>
    <path d="M 412.0,781.0 L 436.0,815.0 L 439.0,900.0 L 425.0,971.0 L 428.0,1015.0"/>
    <path d="M 438.0,782.0 L 464.0,789.0 L 708.0,741.0 L 762.0,737.0 L 802.0,743.0 L 816.0,755.0 L 818.0,774.0 L 821.0,906.0 L 812.0,990.0 L 797.0,1017.0 L 714.0,991.0"/>
    <path d="M 479.0,889.0 L 537.0,882.0 L 660.0,851.0 L 712.0,852.0"/>
    <path d="M 525.0,796.0 L 548.0,818.0 L 554.0,984.0"/>
    <path d="M 632.0,777.0 L 659.0,805.0 L 651.0,1028.0"/>
  </g>
</svg>
