<svg xmlns="http://www.w3.org/2000/svg" viewBox="0 0 1024 1024">
  <g style="fill:none;stroke:#000000;stroke-width:50;stroke-linecap:round;stroke-linejoin:round;" transform="scale(1, 1) translate(0, 0)">
    <path d="M 256.0,197.0 L 280.0,216.0 L 293.0,237.0 L 261.0,321.0 L 216.0,410.0 L 145.0,529.0 L 100.0,591.0 L 62.0,630.0"/>
    <path d="M 314.0,285.0 L 346.0,292.0 L 378.0,311.0 L 391.0,328.0"/>
    <path d="M 188.0,507.0 L 244.0,503.0 L 317.0,477.0 L 368.0,472.0"/>
    <path d="M 151.0,638.0 L 173.0,642.0 L 214.0,636.0 L 319.0,600.0 L 381.0,591.0"/>
    <path d="M 251.0,523.0 L 277.0,543.0 L 280.0,571.0 L 278.0,792.0 L 273.0,812.0 L 262.0,821.0"/>
    <path d="M 131.0,714.0 L 185.0,756.0 L 199.0,786.0"/>
    <path d="M 377.0,662.0 L 392.0,684.0 L 335.0,756.0"/>
    <path d="M 88.0,886.0 L 141.0,901.0 L 423.0,788.0"/>
    <path d="M 478.0,324.0 L 462.0,331.0 L 443.0,375.0 L 402.0,428.0"/>
    <path d="M 467.0,375.0 L 567.0,348.0 L 598.0,346.0"/>
    <path d="M 510.0,202.0 L 542.0,229.0 L 540.0,374.0 L 529.0,418.0"/>
    <path d="M 398.0,471.0 L 448.0,467.0 L 565.0,429.0 L 594.0,431.0"/>
    <path d="M 517.0,476.0 L 496.0,490.0 L 452.0,564.0 L 409.0,602.0"/>
    <path d="M 530.0,488.0 L 546.0,564.0 L 566.0,553.0 L 605.0,508.0"/>
    <path d="M 653.0,267.0 L 668.0,291.0 L 664.0,307.0 L 643.0,357.0 L 617.0,389.0"/>
    <path d="M 673.0,333.0 L 717.0,329.0 L 806.0,299.0 L 837.0,297.0"/>
    <path d="M 645.0,424.0 L 669.0,424.0 L 814.0,382.0 L 865.0,381.0 L 880.0,386.0"/>
    <path d="M 673.0,442.0 L 691.0,462.0 L 645.0,529.0 L 611.0,558.0"/>
    <path d="M 714.0,164.0 L 748.0,194.0 L 741.0,385.0 L 750.0,416.0 L 765.0,439.0 L 761.0,507.0 L 774.0,541.0 L 796.0,554.0 L 837.0,560.0 L 892.0,547.0 L 907.0,533.0 L 913.0,455.0"/>
    <path d="M 500.0,637.0 L 522.0,670.0 L 525.0,774.0 L 520.0,851.0 L 525.0,884.0"/>
    <path d="M 536.0,641.0 L 548.0,649.0 L 562.0,649.0 L 573.0,641.0 L 587.0,642.0 L 710.0,610.0 L 728.0,614.0 L 739.0,624.0 L 754.0,642.0 L 747.0,698.0 L 750.0,817.0 L 743.0,883.0"/>
    <path d="M 547.0,725.0 L 557.0,715.0 L 616.0,696.0 L 665.0,696.0"/>
    <path d="M 542.0,798.0 L 575.0,782.0 L 608.0,775.0 L 669.0,775.0"/>
    <path d="M 544.0,869.0 L 556.0,859.0 L 672.0,838.0 L 696.0,839.0 L 706.0,849.0"/>
    <path d="M 612.0,929.0 L 582.0,932.0 L 544.0,972.0 L 497.0,1008.0 L 431.0,1046.0 L 391.0,1061.0"/>
    <path d="M 699.0,916.0 L 790.0,1002.0 L 810.0,1044.0 L 811.0,1064.0"/>
  </g>
</svg>
