<svg xmlns="http://www.w3.org/2000/svg" viewBox="0 0 1024 1024">
  <g style="fill:none;stroke:#000000;stroke-width:50;stroke-linecap:round;stroke-linejoin:round;" transform="scale(1, 1) translate(0, 0)">
    <path d="M 329.0,223.0 L 352.0,247.0 L 363.0,270.0 L 317.0,359.0 L 267.0,439.0 L 177.0,558.0 L 113.0,627.0 L 83.0,650.0"/>
    <path d="M 320.0,408.0 L 432.0,374.0 L 489.0,369.0"/>
    <path d="M 242.0,555.0 L 286.0,556.0 L 341.0,543.0 L 416.0,512.0 L 460.0,510.0"/>
    <path d="M 171.0,707.0 L 194.0,711.0 L 250.0,704.0 L 431.0,648.0 L 480.0,645.0"/>
    <path d="M 291.0,580.0 L 326.0,599.0 L 328.0,607.0 L 332.0,747.0 L 321.0,860.0 L 326.0,890.0 L 372.0,879.0 L 481.0,807.0"/>
    <path d="M 600.0,213.0 L 626.0,233.0 L 654.0,267.0 L 650.0,777.0 L 636.0,957.0 L 638.0,1052.0"/>
    <path d="M 710.0,540.0 L 851.0,617.0 L 885.0,651.0 L 901.0,680.0"/>
  </g>
</svg>
