<svg xmlns="http://www.w3.org/2000/svg" viewBox="0 0 1024 1024">
  <g style="fill:none;stroke:#000000;stroke-width:50;stroke-linecap:round;stroke-linejoin:round;" transform="scale(1, 1) translate(0, 0)">
    <path d="M 316.0,212.0 L 341.0,236.0 L 352.0,258.0 L 306.0,348.0 L 203.0,505.0 L 126.0,598.0 L 71.0,646.0"/>
    <path d="M 311.0,395.0 L 336.0,384.0 L 452.0,358.0 L 489.0,357.0"/>
    <path d="M 235.0,535.0 L 269.0,538.0 L 331.0,526.0 L 385.0,505.0 L 418.0,499.0 L 439.0,502.0"/>
    <path d="M 179.0,698.0 L 251.0,695.0 L 411.0,644.0 L 453.0,641.0"/>
    <path d="M 285.0,560.0 L 323.0,588.0 L 327.0,725.0 L 313.0,851.0 L 317.0,884.0 L 360.0,879.0 L 490.0,799.0"/>
    <path d="M 583.0,416.0 L 611.0,448.0 L 609.0,712.0"/>
    <path d="M 746.0,196.0 L 768.0,208.0 L 802.0,241.0 L 799.0,554.0 L 809.0,939.0 L 788.0,991.0 L 737.0,973.0 L 669.0,936.0"/>
  </g>
</svg>
