<svg xmlns="http://www.w3.org/2000/svg" viewBox="0 0 1024 1024">
  <g style="fill:none;stroke:#000000;stroke-width:50;stroke-linecap:round;stroke-linejoin:round;" transform="scale(1, 1) translate(0, 0)">
    <path d="M 310.0,204.0 L 335.0,229.0 L 347.0,253.0 L 290.0,363.0 L 244.0,438.0 L 165.0,544.0 L 82.0,637.0 L 55.0,657.0"/>
    <path d="M 299.0,406.0 L 448.0,368.0 L 485.0,366.0"/>
    <path d="M 218.0,546.0 L 259.0,548.0 L 393.0,507.0 L 442.0,502.0"/>
    <path d="M 159.0,732.0 L 230.0,730.0 L 417.0,665.0 L 448.0,661.0 L 462.0,666.0"/>
    <path d="M 272.0,570.0 L 299.0,587.0 L 316.0,614.0 L 317.0,752.0 L 302.0,891.0 L 309.0,918.0 L 347.0,907.0 L 469.0,815.0"/>
    <path d="M 638.0,178.0 L 658.0,189.0 L 681.0,220.0 L 659.0,292.0 L 582.0,458.0 L 549.0,517.0 L 497.0,585.0"/>
    <path d="M 586.0,491.0 L 798.0,445.0 L 826.0,452.0 L 856.0,480.0 L 840.0,785.0 L 824.0,875.0 L 799.0,947.0 L 781.0,979.0 L 746.0,1009.0 L 671.0,967.0 L 667.0,957.0 L 652.0,953.0"/>
    <path d="M 545.0,642.0 L 614.0,694.0 L 634.0,725.0"/>
  </g>
</svg>
