<svg xmlns="http://www.w3.org/2000/svg" viewBox="0 0 1024 1024">
  <g style="fill:none;stroke:#000000;stroke-width:50;stroke-linecap:round;stroke-linejoin:round;" transform="scale(1, 1) translate(0, 0)">
    <path d="M 303.0,221.0 L 320.0,234.0 L 342.0,267.0 L 292.0,382.0 L 172.0,580.0 L 114.0,654.0 L 78.0,689.0"/>
    <path d="M 313.0,410.0 L 446.0,376.0 L 486.0,376.0"/>
    <path d="M 217.0,558.0 L 293.0,550.0 L 398.0,514.0 L 438.0,515.0"/>
    <path d="M 143.0,726.0 L 172.0,729.0 L 215.0,722.0 L 391.0,664.0 L 436.0,663.0"/>
    <path d="M 267.0,581.0 L 300.0,602.0 L 304.0,613.0 L 308.0,744.0 L 296.0,879.0 L 304.0,907.0 L 348.0,895.0 L 356.0,885.0 L 389.0,871.0 L 422.0,847.0"/>
    <path d="M 511.0,512.0 L 534.0,516.0 L 588.0,510.0 L 723.0,466.0 L 786.0,459.0"/>
    <path d="M 471.0,613.0 L 502.0,653.0 L 500.0,782.0 L 545.0,777.0 L 676.0,734.0 L 748.0,719.0 L 763.0,703.0"/>
    <path d="M 793.0,549.0 L 821.0,591.0 L 822.0,602.0 L 784.0,780.0"/>
    <path d="M 606.0,240.0 L 637.0,256.0 L 661.0,286.0 L 645.0,465.0 L 640.0,693.0 L 648.0,866.0 L 667.0,947.0 L 684.0,969.0 L 707.0,984.0 L 764.0,998.0 L 852.0,996.0 L 900.0,981.0 L 927.0,961.0 L 939.0,805.0"/>
  </g>
</svg>
