<svg xmlns="http://www.w3.org/2000/svg" viewBox="0 0 1024 1024">
  <g style="fill:none;stroke:#000000;stroke-width:50;stroke-linecap:round;stroke-linejoin:round;" transform="scale(1, 1) translate(0, 0)">
    <path d="M 293.0,210.0 L 310.0,223.0 L 329.0,255.0 L 280.0,365.0 L 168.0,536.0 L 96.0,624.0 L 71.0,646.0"/>
    <path d="M 286.0,413.0 L 419.0,374.0 L 462.0,370.0"/>
    <path d="M 219.0,543.0 L 253.0,546.0 L 316.0,533.0 L 375.0,511.0 L 422.0,511.0"/>
    <path d="M 159.0,699.0 L 180.0,703.0 L 234.0,698.0 L 407.0,646.0 L 453.0,646.0"/>
    <path d="M 267.0,569.0 L 294.0,582.0 L 305.0,598.0 L 309.0,726.0 L 296.0,862.0 L 302.0,891.0 L 348.0,878.0 L 453.0,803.0"/>
    <path d="M 566.0,401.0 L 592.0,413.0 L 643.0,407.0 L 804.0,366.0 L 857.0,364.0"/>
    <path d="M 583.0,595.0 L 767.0,545.0 L 793.0,549.0 L 824.0,578.0 L 799.0,646.0 L 764.0,677.0"/>
    <path d="M 582.0,749.0 L 755.0,707.0 L 812.0,704.0 L 832.0,710.0"/>
    <path d="M 514.0,389.0 L 540.0,416.0 L 551.0,450.0 L 554.0,642.0 L 543.0,928.0 L 583.0,929.0 L 680.0,907.0 L 809.0,890.0 L 897.0,886.0 L 934.0,900.0"/>
  </g>
</svg>
