<svg xmlns="http://www.w3.org/2000/svg" viewBox="0 0 1024 1024">
  <g style="fill:none;stroke:#000000;stroke-width:50;stroke-linecap:round;stroke-linejoin:round;" transform="scale(1, 1) translate(0, 0)">
    <path d="M 321.0,201.0 L 356.0,245.0 L 346.0,276.0 L 296.0,373.0 L 246.0,453.0 L 156.0,574.0 L 100.0,639.0 L 62.0,670.0"/>
    <path d="M 298.0,417.0 L 442.0,385.0 L 484.0,385.0"/>
    <path d="M 214.0,559.0 L 256.0,561.0 L 383.0,520.0 L 426.0,517.0"/>
    <path d="M 163.0,711.0 L 193.0,714.0 L 235.0,708.0 L 388.0,657.0 L 439.0,654.0"/>
    <path d="M 271.0,584.0 L 303.0,602.0 L 307.0,614.0 L 310.0,733.0 L 301.0,838.0 L 326.0,840.0 L 334.0,872.0 L 447.0,776.0"/>
    <path d="M 498.0,490.0 L 526.0,518.0 L 535.0,558.0 L 531.0,744.0 L 508.0,920.0 L 508.0,967.0"/>
    <path d="M 553.0,505.0 L 573.0,515.0 L 825.0,457.0 L 847.0,466.0 L 868.0,488.0 L 879.0,836.0 L 874.0,943.0 L 861.0,973.0 L 827.0,969.0 L 738.0,936.0"/>
    <path d="M 664.0,234.0 L 697.0,265.0 L 700.0,294.0 L 701.0,394.0 L 692.0,511.0 L 650.0,662.0 L 606.0,749.0 L 583.0,779.0"/>
    <path d="M 683.0,637.0 L 777.0,727.0 L 795.0,754.0 L 800.0,776.0"/>
  </g>
</svg>
