<svg xmlns="http://www.w3.org/2000/svg" viewBox="0 0 1024 1024">
  <g style="fill:none;stroke:#000000;stroke-width:50;stroke-linecap:round;stroke-linejoin:round;" transform="scale(1, 1) translate(0, 0)">
    <path d="M 295.0,221.0 L 320.0,245.0 L 332.0,268.0 L 309.0,318.0 L 249.0,426.0 L 194.0,507.0 L 125.0,595.0 L 55.0,662.0"/>
    <path d="M 287.0,416.0 L 422.0,377.0 L 459.0,376.0"/>
    <path d="M 202.0,558.0 L 253.0,559.0 L 364.0,521.0 L 413.0,520.0"/>
    <path d="M 158.0,750.0 L 195.0,752.0 L 237.0,742.0 L 370.0,690.0 L 417.0,687.0"/>
    <path d="M 271.0,584.0 L 303.0,598.0 L 308.0,611.0 L 308.0,766.0 L 294.0,896.0 L 299.0,922.0 L 346.0,908.0 L 458.0,831.0"/>
    <path d="M 519.0,349.0 L 579.0,354.0 L 818.0,307.0 L 870.0,313.0"/>
    <path d="M 647.0,372.0 L 672.0,384.0 L 683.0,401.0 L 677.0,646.0 L 659.0,660.0"/>
    <path d="M 711.0,510.0 L 724.0,500.0 L 801.0,485.0 L 861.0,481.0"/>
    <path d="M 510.0,495.0 L 525.0,505.0 L 542.0,530.0 L 516.0,720.0 L 568.0,718.0 L 681.0,684.0 L 819.0,656.0 L 856.0,664.0 L 879.0,688.0 L 845.0,836.0 L 807.0,951.0 L 782.0,999.0 L 760.0,1017.0 L 740.0,1024.0 L 647.0,962.0"/>
  </g>
</svg>
