<svg xmlns="http://www.w3.org/2000/svg" viewBox="0 0 1024 1024">
  <g style="fill:none;stroke:#000000;stroke-width:50;stroke-linecap:round;stroke-linejoin:round;" transform="scale(1, 1) translate(0, 0)">
    <path d="M 308.0,212.0 L 334.0,238.0 L 346.0,262.0 L 300.0,353.0 L 192.0,519.0 L 113.0,613.0 L 60.0,661.0"/>
    <path d="M 302.0,414.0 L 438.0,380.0 L 475.0,379.0"/>
    <path d="M 218.0,558.0 L 263.0,560.0 L 327.0,544.0 L 384.0,521.0 L 430.0,518.0"/>
    <path d="M 147.0,720.0 L 202.0,722.0 L 292.0,701.0 L 381.0,670.0 L 438.0,667.0"/>
    <path d="M 279.0,584.0 L 312.0,601.0 L 315.0,611.0 L 315.0,787.0 L 302.0,880.0 L 307.0,908.0 L 343.0,897.0 L 432.0,829.0"/>
    <path d="M 602.0,205.0 L 630.0,227.0 L 643.0,252.0 L 623.0,314.0 L 598.0,376.0 L 534.0,499.0 L 473.0,581.0"/>
    <path d="M 578.0,478.0 L 788.0,431.0 L 819.0,437.0 L 854.0,468.0 L 838.0,742.0 L 820.0,868.0 L 799.0,943.0 L 783.0,973.0 L 750.0,999.0 L 622.0,935.0"/>
    <path d="M 544.0,592.0 L 619.0,612.0 L 653.0,638.0"/>
    <path d="M 508.0,801.0 L 561.0,801.0 L 715.0,699.0"/>
  </g>
</svg>
