<svg xmlns="http://www.w3.org/2000/svg" viewBox="0 0 1024 1024">
  <g style="fill:none;stroke:#000000;stroke-width:50;stroke-linecap:round;stroke-linejoin:round;" transform="scale(1, 1) translate(0, 0)">
    <path d="M 285.0,228.0 L 315.0,262.0 L 318.0,276.0 L 292.0,334.0 L 237.0,427.0 L 166.0,525.0 L 91.0,612.0 L 66.0,630.0"/>
    <path d="M 268.0,433.0 L 298.0,418.0 L 414.0,388.0 L 434.0,389.0"/>
    <path d="M 195.0,561.0 L 248.0,560.0 L 366.0,523.0 L 411.0,519.0"/>
    <path d="M 155.0,703.0 L 216.0,704.0 L 370.0,653.0 L 402.0,647.0 L 423.0,650.0"/>
    <path d="M 253.0,584.0 L 283.0,601.0 L 287.0,612.0 L 289.0,716.0 L 274.0,848.0 L 278.0,879.0 L 319.0,870.0 L 413.0,811.0"/>
    <path d="M 720.0,265.0 L 729.0,278.0 L 735.0,309.0 L 583.0,399.0 L 575.0,413.0"/>
    <path d="M 490.0,381.0 L 512.0,399.0 L 528.0,424.0 L 517.0,596.0 L 498.0,709.0 L 471.0,797.0 L 444.0,858.0 L 377.0,967.0 L 356.0,990.0"/>
    <path d="M 551.0,590.0 L 558.0,584.0 L 614.0,578.0 L 724.0,546.0 L 746.0,554.0 L 760.0,573.0 L 744.0,665.0 L 714.0,752.0 L 651.0,852.0 L 623.0,878.0 L 584.0,902.0 L 502.0,933.0 L 448.0,945.0"/>
    <path d="M 540.0,657.0 L 580.0,687.0 L 701.0,832.0 L 794.0,913.0 L 883.0,938.0 L 974.0,955.0"/>
  </g>
</svg>
