<svg xmlns="http://www.w3.org/2000/svg" viewBox="0 0 1024 1024">
  <g style="fill:none;stroke:#000000;stroke-width:50;stroke-linecap:round;stroke-linejoin:round;" transform="scale(1, 1) translate(0, 0)">
    <path d="M 315.0,225.0 L 335.0,245.0 L 345.0,266.0 L 292.0,372.0 L 190.0,519.0 L 112.0,612.0 L 59.0,659.0"/>
    <path d="M 276.0,442.0 L 297.0,431.0 L 344.0,424.0 L 421.0,401.0 L 466.0,398.0"/>
    <path d="M 207.0,575.0 L 256.0,576.0 L 373.0,539.0 L 422.0,533.0"/>
    <path d="M 151.0,739.0 L 208.0,739.0 L 405.0,675.0 L 441.0,673.0"/>
    <path d="M 273.0,599.0 L 298.0,612.0 L 304.0,622.0 L 308.0,666.0 L 305.0,759.0 L 290.0,878.0 L 294.0,896.0 L 333.0,885.0 L 438.0,807.0"/>
    <path d="M 587.0,223.0 L 624.0,252.0 L 629.0,261.0 L 624.0,284.0 L 565.0,451.0 L 512.0,556.0 L 468.0,618.0"/>
    <path d="M 564.0,515.0 L 727.0,461.0 L 768.0,453.0 L 796.0,459.0 L 816.0,479.0 L 806.0,501.0 L 733.0,588.0"/>
    <path d="M 582.0,596.0 L 614.0,630.0 L 614.0,643.0 L 602.0,738.0 L 572.0,823.0 L 548.0,864.0 L 505.0,908.0 L 450.0,944.0 L 387.0,966.0"/>
    <path d="M 636.0,721.0 L 640.0,748.0 L 657.0,771.0 L 739.0,876.0 L 804.0,944.0 L 873.0,970.0 L 961.0,991.0"/>
  </g>
</svg>
