<svg xmlns="http://www.w3.org/2000/svg" viewBox="0 0 1024 1024">
  <g style="fill:none;stroke:#000000;stroke-width:50;stroke-linecap:round;stroke-linejoin:round;" transform="scale(1, 1) translate(0, 0)">
    <path d="M 281.0,226.0 L 298.0,239.0 L 317.0,274.0 L 293.0,329.0 L 241.0,424.0 L 155.0,554.0 L 71.0,646.0"/>
    <path d="M 283.0,414.0 L 382.0,393.0 L 424.0,393.0"/>
    <path d="M 184.0,555.0 L 287.0,538.0 L 361.0,511.0 L 391.0,511.0"/>
    <path d="M 127.0,701.0 L 215.0,693.0 L 335.0,653.0 L 384.0,648.0"/>
    <path d="M 241.0,573.0 L 271.0,594.0 L 272.0,724.0 L 258.0,840.0 L 263.0,875.0 L 301.0,862.0 L 386.0,796.0"/>
    <path d="M 447.0,468.0 L 500.0,476.0 L 763.0,423.0 L 813.0,420.0 L 846.0,426.0"/>
    <path d="M 586.0,212.0 L 625.0,247.0 L 636.0,271.0 L 636.0,761.0 L 624.0,944.0 L 628.0,1029.0"/>
    <path d="M 609.0,485.0 L 600.0,493.0 L 591.0,554.0 L 539.0,660.0 L 470.0,764.0 L 390.0,860.0"/>
    <path d="M 663.0,510.0 L 659.0,516.0 L 685.0,581.0 L 801.0,750.0 L 851.0,794.0 L 974.0,832.0"/>
    <path d="M 501.0,817.0 L 560.0,821.0 L 692.0,791.0 L 744.0,791.0"/>
  </g>
</svg>
