<svg xmlns="http://www.w3.org/2000/svg" viewBox="0 0 1024 1024">
  <g style="fill:none;stroke:#000000;stroke-width:50;stroke-linecap:round;stroke-linejoin:round;" transform="scale(1, 1) translate(0, 0)">
    <path d="M 308.0,224.0 L 325.0,238.0 L 344.0,271.0 L 306.0,346.0 L 240.0,454.0 L 197.0,512.0 L 118.0,605.0 L 71.0,646.0"/>
    <path d="M 295.0,425.0 L 433.0,393.0 L 471.0,393.0"/>
    <path d="M 218.0,565.0 L 263.0,566.0 L 321.0,553.0 L 393.0,527.0 L 424.0,528.0"/>
    <path d="M 168.0,699.0 L 239.0,700.0 L 389.0,660.0 L 423.0,654.0 L 446.0,657.0"/>
    <path d="M 268.0,589.0 L 299.0,607.0 L 301.0,622.0 L 304.0,752.0 L 292.0,866.0 L 298.0,895.0 L 336.0,887.0 L 446.0,811.0"/>
    <path d="M 483.0,526.0 L 537.0,583.0 L 554.0,626.0"/>
    <path d="M 821.0,434.0 L 841.0,453.0 L 849.0,470.0 L 824.0,504.0 L 727.0,603.0"/>
    <path d="M 615.0,277.0 L 654.0,305.0 L 666.0,324.0 L 654.0,582.0 L 643.0,702.0 L 631.0,759.0 L 599.0,837.0 L 565.0,886.0 L 498.0,942.0 L 411.0,982.0"/>
    <path d="M 670.0,692.0 L 678.0,728.0 L 711.0,785.0 L 772.0,875.0 L 819.0,930.0 L 844.0,954.0 L 954.0,985.0"/>
  </g>
</svg>
