<svg xmlns="http://www.w3.org/2000/svg" viewBox="0 0 1024 1024">
  <g style="fill:none;stroke:#000000;stroke-width:50;stroke-linecap:round;stroke-linejoin:round;" transform="scale(1, 1) translate(0, 0)">
    <path d="M 314.0,208.0 L 331.0,222.0 L 351.0,257.0 L 288.0,381.0 L 252.0,442.0 L 171.0,554.0 L 98.0,641.0 L 47.0,685.0"/>
    <path d="M 306.0,407.0 L 435.0,371.0 L 481.0,369.0"/>
    <path d="M 227.0,551.0 L 269.0,553.0 L 381.0,518.0 L 434.0,513.0"/>
    <path d="M 160.0,717.0 L 226.0,717.0 L 389.0,670.0 L 441.0,665.0"/>
    <path d="M 272.0,572.0 L 303.0,592.0 L 312.0,612.0 L 314.0,746.0 L 302.0,864.0 L 307.0,899.0 L 344.0,891.0 L 454.0,815.0"/>
    <path d="M 448.0,596.0 L 481.0,600.0 L 522.0,595.0 L 634.0,568.0 L 877.0,528.0 L 962.0,540.0"/>
    <path d="M 527.0,424.0 L 567.0,465.0 L 563.0,936.0"/>
    <path d="M 748.0,275.0 L 774.0,291.0 L 795.0,317.0 L 790.0,512.0 L 802.0,859.0 L 799.0,887.0 L 784.0,921.0 L 780.0,999.0"/>
    <path d="M 595.0,753.0 L 615.0,732.0 L 663.0,723.0 L 700.0,727.0"/>
    <path d="M 586.0,918.0 L 611.0,901.0 L 696.0,886.0 L 744.0,886.0"/>
  </g>
</svg>
