<svg xmlns="http://www.w3.org/2000/svg" viewBox="0 0 1024 1024">
  <g style="fill:none;stroke:#000000;stroke-width:50;stroke-linecap:round;stroke-linejoin:round;" transform="scale(1, 1) translate(0, 0)">
    <path d="M 292.0,221.0 L 317.0,245.0 L 328.0,270.0 L 290.0,350.0 L 233.0,449.0 L 169.0,540.0 L 110.0,611.0 L 71.0,646.0"/>
    <path d="M 287.0,419.0 L 308.0,406.0 L 343.0,402.0 L 416.0,379.0 L 468.0,377.0"/>
    <path d="M 214.0,547.0 L 258.0,549.0 L 375.0,511.0 L 418.0,509.0"/>
    <path d="M 159.0,707.0 L 186.0,710.0 L 225.0,704.0 L 376.0,656.0 L 433.0,648.0"/>
    <path d="M 263.0,573.0 L 293.0,590.0 L 300.0,606.0 L 302.0,731.0 L 290.0,848.0 L 296.0,882.0 L 337.0,867.0 L 438.0,788.0"/>
    <path d="M 527.0,524.0 L 549.0,529.0 L 623.0,517.0 L 761.0,467.0 L 793.0,460.0 L 815.0,462.0"/>
    <path d="M 459.0,511.0 L 498.0,542.0 L 504.0,577.0 L 506.0,706.0 L 492.0,842.0 L 495.0,867.0 L 543.0,855.0 L 631.0,790.0"/>
    <path d="M 573.0,215.0 L 591.0,223.0 L 613.0,251.0 L 623.0,353.0 L 660.0,537.0 L 685.0,629.0 L 729.0,753.0 L 759.0,817.0 L 810.0,902.0 L 839.0,937.0 L 884.0,968.0 L 899.0,972.0 L 912.0,950.0 L 946.0,816.0"/>
    <path d="M 813.0,577.0 L 837.0,604.0 L 819.0,661.0 L 771.0,758.0 L 708.0,846.0 L 662.0,893.0 L 632.0,911.0 L 630.0,919.0"/>
    <path d="M 744.0,282.0 L 812.0,325.0 L 841.0,367.0"/>
  </g>
</svg>
