<svg xmlns="http://www.w3.org/2000/svg" viewBox="0 0 1024 1024">
  <g style="fill:none;stroke:#000000;stroke-width:50;stroke-linecap:round;stroke-linejoin:round;" transform="scale(1, 1) translate(0, 0)">
    <path d="M 281.0,222.0 L 305.0,245.0 L 317.0,267.0 L 283.0,342.0 L 242.0,419.0 L 188.0,499.0 L 113.0,597.0 L 63.0,646.0"/>
    <path d="M 279.0,409.0 L 339.0,387.0 L 403.0,373.0 L 437.0,372.0"/>
    <path d="M 210.0,545.0 L 254.0,545.0 L 302.0,535.0 L 378.0,506.0 L 422.0,504.0"/>
    <path d="M 151.0,711.0 L 180.0,714.0 L 224.0,708.0 L 329.0,679.0 L 387.0,656.0 L 435.0,654.0"/>
    <path d="M 259.0,569.0 L 291.0,588.0 L 296.0,601.0 L 298.0,737.0 L 285.0,854.0 L 290.0,891.0 L 335.0,880.0 L 442.0,811.0"/>
    <path d="M 541.0,394.0 L 549.0,393.0 L 560.0,402.0 L 630.0,398.0 L 795.0,356.0 L 849.0,356.0"/>
    <path d="M 593.0,559.0 L 613.0,579.0 L 623.0,602.0 L 649.0,771.0"/>
    <path d="M 639.0,560.0 L 655.0,569.0 L 753.0,545.0 L 785.0,559.0 L 796.0,571.0 L 776.0,654.0 L 755.0,677.0"/>
    <path d="M 669.0,733.0 L 682.0,718.0 L 738.0,705.0 L 780.0,702.0 L 803.0,707.0"/>
    <path d="M 483.0,374.0 L 514.0,408.0 L 520.0,449.0 L 524.0,668.0 L 512.0,908.0 L 516.0,932.0 L 551.0,934.0 L 676.0,907.0 L 863.0,886.0 L 884.0,886.0 L 922.0,900.0"/>
  </g>
</svg>
