<svg xmlns="http://www.w3.org/2000/svg" viewBox="0 0 1024 1024">
  <g style="fill:none;stroke:#000000;stroke-width:50;stroke-linecap:round;stroke-linejoin:round;" transform="scale(1, 1) translate(0, 0)">
    <path d="M 316.0,220.0 L 340.0,243.0 L 351.0,267.0 L 289.0,383.0 L 250.0,445.0 L 171.0,549.0 L 120.0,608.0 L 67.0,654.0"/>
    <path d="M 303.0,412.0 L 441.0,376.0 L 471.0,377.0"/>
    <path d="M 218.0,555.0 L 259.0,557.0 L 384.0,516.0 L 426.0,513.0"/>
    <path d="M 160.0,719.0 L 232.0,717.0 L 390.0,667.0 L 445.0,661.0"/>
    <path d="M 261.0,575.0 L 289.0,595.0 L 300.0,614.0 L 303.0,760.0 L 292.0,857.0 L 297.0,880.0 L 334.0,872.0 L 438.0,799.0"/>
    <path d="M 610.0,228.0 L 649.0,258.0 L 660.0,277.0 L 654.0,678.0 L 637.0,703.0"/>
    <path d="M 684.0,493.0 L 698.0,480.0 L 830.0,446.0 L 865.0,445.0"/>
    <path d="M 484.0,720.0 L 512.0,744.0 L 522.0,774.0 L 556.0,984.0"/>
    <path d="M 549.0,752.0 L 564.0,737.0 L 651.0,725.0 L 774.0,696.0 L 800.0,699.0 L 835.0,730.0 L 804.0,851.0 L 781.0,866.0"/>
    <path d="M 576.0,933.0 L 587.0,920.0 L 762.0,896.0 L 813.0,897.0 L 839.0,906.0"/>
  </g>
</svg>
