<svg xmlns="http://www.w3.org/2000/svg" viewBox="0 0 1024 1024">
  <g style="fill:none;stroke:#000000;stroke-width:50;stroke-linecap:round;stroke-linejoin:round;" transform="scale(1, 1) translate(0, 0)">
    <path d="M 292.0,221.0 L 309.0,235.0 L 329.0,267.0 L 283.0,364.0 L 238.0,441.0 L 173.0,532.0 L 106.0,615.0 L 71.0,646.0"/>
    <path d="M 290.0,407.0 L 430.0,373.0 L 461.0,373.0"/>
    <path d="M 219.0,547.0 L 254.0,551.0 L 375.0,515.0 L 419.0,514.0"/>
    <path d="M 159.0,695.0 L 222.0,696.0 L 383.0,649.0 L 433.0,645.0"/>
    <path d="M 271.0,572.0 L 301.0,590.0 L 308.0,604.0 L 311.0,764.0 L 300.0,855.0 L 306.0,886.0 L 350.0,870.0 L 450.0,788.0"/>
    <path d="M 598.0,227.0 L 688.0,274.0 L 723.0,314.0"/>
    <path d="M 483.0,472.0 L 533.0,479.0 L 812.0,420.0 L 877.0,424.0"/>
    <path d="M 609.0,492.0 L 634.0,518.0 L 639.0,545.0 L 556.0,669.0 L 533.0,720.0 L 587.0,727.0 L 663.0,723.0 L 678.0,715.0"/>
    <path d="M 765.0,585.0 L 783.0,627.0 L 710.0,727.0 L 579.0,873.0 L 566.0,918.0 L 600.0,922.0 L 785.0,867.0 L 798.0,864.0 L 808.0,871.0"/>
    <path d="M 786.0,788.0 L 871.0,906.0 L 887.0,954.0 L 884.0,979.0"/>
  </g>
</svg>
