<svg xmlns="http://www.w3.org/2000/svg" viewBox="0 0 1024 1024">
  <g style="fill:none;stroke:#000000;stroke-width:50;stroke-linecap:round;stroke-linejoin:round;" transform="scale(1, 1) translate(0, 0)">
    <path d="M 291.0,221.0 L 328.0,256.0 L 312.0,316.0 L 280.0,396.0 L 216.0,510.0 L 175.0,567.0 L 57.0,686.0"/>
    <path d="M 306.0,409.0 L 327.0,397.0 L 416.0,374.0 L 461.0,373.0"/>
    <path d="M 205.0,567.0 L 283.0,553.0 L 361.0,525.0 L 413.0,520.0"/>
    <path d="M 147.0,726.0 L 200.0,725.0 L 279.0,704.0 L 365.0,672.0 L 413.0,671.0"/>
    <path d="M 261.0,580.0 L 290.0,596.0 L 304.0,620.0 L 302.0,792.0 L 287.0,904.0 L 294.0,937.0 L 331.0,924.0 L 454.0,827.0"/>
    <path d="M 604.0,225.0 L 632.0,247.0 L 645.0,267.0 L 623.0,344.0 L 593.0,424.0 L 543.0,528.0 L 480.0,636.0 L 449.0,673.0"/>
    <path d="M 654.0,357.0 L 658.0,375.0 L 718.0,455.0 L 829.0,573.0 L 973.0,611.0"/>
    <path d="M 591.0,567.0 L 647.0,605.0 L 668.0,628.0"/>
    <path d="M 492.0,761.0 L 515.0,771.0 L 548.0,772.0 L 700.0,715.0 L 739.0,717.0 L 763.0,738.0 L 753.0,770.0 L 664.0,901.0 L 661.0,914.0 L 652.0,914.0"/>
    <path d="M 560.0,881.0 L 668.0,981.0 L 691.0,1019.0 L 700.0,1053.0"/>
  </g>
</svg>
