<svg xmlns="http://www.w3.org/2000/svg" viewBox="0 0 1024 1024">
  <g style="fill:none;stroke:#000000;stroke-width:50;stroke-linecap:round;stroke-linejoin:round;" transform="scale(1, 1) translate(0, 0)">
    <path d="M 292.0,221.0 L 317.0,245.0 L 328.0,270.0 L 287.0,357.0 L 250.0,423.0 L 173.0,534.0 L 99.0,622.0 L 71.0,646.0"/>
    <path d="M 282.0,420.0 L 404.0,391.0 L 449.0,388.0"/>
    <path d="M 218.0,553.0 L 259.0,554.0 L 378.0,518.0 L 418.0,515.0"/>
    <path d="M 160.0,691.0 L 229.0,691.0 L 334.0,667.0 L 371.0,651.0 L 427.0,649.0"/>
    <path d="M 262.0,576.0 L 293.0,594.0 L 300.0,608.0 L 303.0,696.0 L 289.0,855.0 L 293.0,887.0 L 333.0,880.0 L 426.0,823.0"/>
    <path d="M 493.0,631.0 L 482.0,687.0 L 448.0,776.0"/>
    <path d="M 545.0,606.0 L 560.0,626.0 L 577.0,722.0 L 610.0,799.0 L 623.0,815.0 L 667.0,846.0 L 711.0,862.0 L 754.0,872.0 L 810.0,874.0 L 838.0,868.0 L 873.0,846.0 L 869.0,817.0 L 825.0,694.0"/>
    <path d="M 563.0,419.0 L 623.0,479.0 L 640.0,520.0"/>
    <path d="M 731.0,314.0 L 753.0,326.0 L 780.0,358.0 L 782.0,380.0 L 745.0,584.0 L 699.0,731.0 L 662.0,803.0 L 599.0,881.0 L 504.0,953.0 L 445.0,977.0"/>
    <path d="M 826.0,544.0 L 918.0,606.0 L 940.0,631.0 L 958.0,675.0"/>
  </g>
</svg>
