<svg xmlns="http://www.w3.org/2000/svg" viewBox="0 0 1024 1024">
  <g style="fill:none;stroke:#000000;stroke-width:50;stroke-linecap:round;stroke-linejoin:round;" transform="scale(1, 1) translate(0, 0)">
    <path d="M 280.0,207.0 L 293.0,216.0 L 312.0,249.0 L 285.0,317.0 L 167.0,508.0 L 119.0,568.0 L 74.0,611.0"/>
    <path d="M 273.0,392.0 L 306.0,376.0 L 388.0,367.0"/>
    <path d="M 173.0,535.0 L 234.0,529.0 L 319.0,496.0 L 357.0,492.0"/>
    <path d="M 139.0,667.0 L 200.0,667.0 L 309.0,633.0 L 361.0,628.0"/>
    <path d="M 241.0,553.0 L 271.0,571.0 L 274.0,669.0 L 261.0,805.0 L 265.0,832.0 L 293.0,825.0 L 378.0,763.0"/>
    <path d="M 431.0,363.0 L 482.0,366.0 L 590.0,337.0 L 632.0,337.0"/>
    <path d="M 410.0,425.0 L 436.0,458.0 L 414.0,584.0 L 438.0,585.0 L 587.0,548.0 L 642.0,557.0"/>
    <path d="M 514.0,387.0 L 538.0,398.0 L 554.0,421.0 L 555.0,659.0 L 544.0,912.0 L 531.0,938.0 L 488.0,925.0 L 436.0,897.0 L 422.0,897.0"/>
    <path d="M 529.0,586.0 L 522.0,591.0 L 508.0,664.0 L 451.0,767.0 L 381.0,858.0 L 315.0,917.0"/>
    <path d="M 720.0,372.0 L 738.0,375.0 L 807.0,352.0 L 842.0,349.0 L 869.0,372.0 L 822.0,454.0 L 803.0,510.0 L 851.0,555.0 L 883.0,597.0 L 906.0,657.0 L 904.0,687.0 L 894.0,710.0 L 876.0,726.0 L 761.0,677.0"/>
    <path d="M 655.0,363.0 L 689.0,391.0 L 699.0,431.0 L 694.0,559.0 L 695.0,1025.0"/>
  </g>
</svg>
