<svg xmlns="http://www.w3.org/2000/svg" viewBox="0 0 1024 1024">
  <g style="fill:none;stroke:#000000;stroke-width:50;stroke-linecap:round;stroke-linejoin:round;" transform="scale(1, 1) translate(0, 0)">
    <path d="M 292.0,221.0 L 317.0,244.0 L 328.0,268.0 L 293.0,339.0 L 241.0,430.0 L 197.0,492.0 L 96.0,617.0 L 54.0,654.0"/>
    <path d="M 279.0,420.0 L 393.0,389.0 L 442.0,385.0"/>
    <path d="M 207.0,555.0 L 264.0,555.0 L 354.0,528.0 L 399.0,525.0"/>
    <path d="M 151.0,711.0 L 175.0,716.0 L 211.0,712.0 L 361.0,667.0 L 409.0,665.0"/>
    <path d="M 251.0,576.0 L 281.0,595.0 L 292.0,611.0 L 294.0,740.0 L 281.0,873.0 L 286.0,894.0 L 330.0,880.0 L 434.0,804.0"/>
    <path d="M 601.0,212.0 L 623.0,234.0 L 631.0,255.0 L 608.0,305.0 L 523.0,431.0 L 459.0,495.0"/>
    <path d="M 578.0,396.0 L 654.0,380.0 L 683.0,368.0 L 712.0,369.0 L 736.0,380.0 L 681.0,484.0 L 632.0,549.0"/>
    <path d="M 528.0,602.0 L 544.0,585.0 L 775.0,527.0 L 794.0,532.0 L 822.0,559.0 L 792.0,637.0 L 766.0,652.0"/>
    <path d="M 622.0,585.0 L 643.0,609.0 L 641.0,670.0 L 623.0,685.0"/>
    <path d="M 508.0,749.0 L 531.0,735.0 L 750.0,683.0 L 820.0,684.0"/>
    <path d="M 469.0,563.0 L 489.0,584.0 L 495.0,610.0 L 482.0,769.0 L 482.0,850.0 L 489.0,907.0 L 503.0,947.0 L 516.0,963.0 L 550.0,984.0 L 636.0,1005.0 L 718.0,1006.0 L 806.0,994.0 L 872.0,968.0 L 910.0,934.0 L 901.0,793.0"/>
  </g>
</svg>
