<svg xmlns="http://www.w3.org/2000/svg" viewBox="0 0 1024 1024">
  <g style="fill:none;stroke:#000000;stroke-width:50;stroke-linecap:round;stroke-linejoin:round;" transform="scale(1, 1) translate(0, 0)">
    <path d="M 311.0,216.0 L 336.0,241.0 L 348.0,264.0 L 295.0,367.0 L 254.0,436.0 L 184.0,533.0 L 117.0,614.0 L 55.0,670.0"/>
    <path d="M 290.0,426.0 L 355.0,417.0 L 435.0,393.0 L 469.0,392.0"/>
    <path d="M 203.0,567.0 L 260.0,567.0 L 383.0,527.0 L 425.0,524.0"/>
    <path d="M 143.0,718.0 L 168.0,722.0 L 223.0,715.0 L 372.0,666.0 L 425.0,661.0"/>
    <path d="M 266.0,592.0 L 294.0,608.0 L 303.0,620.0 L 304.0,742.0 L 290.0,856.0 L 295.0,885.0 L 327.0,879.0 L 437.0,803.0"/>
    <path d="M 594.0,225.0 L 681.0,271.0 L 709.0,310.0"/>
    <path d="M 504.0,471.0 L 557.0,471.0 L 796.0,409.0 L 842.0,409.0 L 874.0,416.0"/>
    <path d="M 581.0,545.0 L 557.0,554.0 L 507.0,636.0 L 463.0,681.0"/>
    <path d="M 714.0,528.0 L 825.0,578.0 L 862.0,621.0"/>
    <path d="M 682.0,623.0 L 712.0,669.0 L 708.0,699.0 L 683.0,790.0 L 659.0,842.0 L 629.0,884.0 L 587.0,920.0 L 526.0,952.0 L 448.0,977.0 L 379.0,987.0"/>
    <path d="M 519.0,715.0 L 557.0,732.0 L 714.0,898.0 L 814.0,971.0 L 973.0,989.0"/>
  </g>
</svg>
