<svg xmlns="http://www.w3.org/2000/svg" viewBox="0 0 1024 1024">
  <g style="fill:none;stroke:#000000;stroke-width:50;stroke-linecap:round;stroke-linejoin:round;" transform="scale(1, 1) translate(0, 0)">
    <path d="M 289.0,213.0 L 313.0,237.0 L 324.0,258.0 L 297.0,322.0 L 238.0,426.0 L 171.0,522.0 L 91.0,618.0 L 55.0,650.0"/>
    <path d="M 269.0,426.0 L 318.0,419.0 L 422.0,387.0 L 442.0,389.0"/>
    <path d="M 203.0,551.0 L 249.0,554.0 L 374.0,518.0 L 420.0,518.0"/>
    <path d="M 151.0,699.0 L 213.0,700.0 L 358.0,656.0 L 412.0,653.0"/>
    <path d="M 252.0,573.0 L 283.0,594.0 L 292.0,611.0 L 294.0,744.0 L 281.0,856.0 L 286.0,887.0 L 330.0,874.0 L 433.0,799.0"/>
    <path d="M 595.0,233.0 L 673.0,276.0 L 697.0,311.0"/>
    <path d="M 495.0,399.0 L 507.0,441.0 L 476.0,527.0 L 474.0,554.0"/>
    <path d="M 529.0,424.0 L 545.0,431.0 L 565.0,430.0 L 693.0,396.0 L 772.0,380.0 L 808.0,380.0 L 835.0,392.0 L 848.0,411.0 L 785.0,490.0"/>
    <path d="M 590.0,509.0 L 606.0,523.0 L 619.0,547.0 L 541.0,767.0 L 680.0,843.0 L 769.0,901.0 L 826.0,971.0"/>
    <path d="M 696.0,606.0 L 712.0,623.0 L 723.0,652.0 L 693.0,745.0 L 663.0,809.0 L 626.0,861.0 L 573.0,910.0 L 534.0,935.0 L 455.0,965.0"/>
    <path d="M 440.0,672.0 L 491.0,678.0 L 627.0,651.0 L 856.0,620.0 L 890.0,621.0 L 944.0,634.0"/>
  </g>
</svg>
