<svg xmlns="http://www.w3.org/2000/svg" viewBox="0 0 1024 1024">
  <g style="fill:none;stroke:#000000;stroke-width:50;stroke-linecap:round;stroke-linejoin:round;" transform="scale(1, 1) translate(0, 0)">
    <path d="M 267.0,240.0 L 280.0,249.0 L 301.0,283.0 L 260.0,382.0 L 220.0,457.0 L 145.0,568.0 L 54.0,674.0"/>
    <path d="M 256.0,446.0 L 380.0,412.0 L 433.0,408.0"/>
    <path d="M 190.0,581.0 L 232.0,582.0 L 362.0,540.0 L 389.0,540.0"/>
    <path d="M 143.0,731.0 L 165.0,735.0 L 203.0,729.0 L 332.0,685.0 L 382.0,681.0"/>
    <path d="M 237.0,606.0 L 265.0,620.0 L 272.0,636.0 L 276.0,758.0 L 264.0,874.0 L 272.0,908.0 L 311.0,893.0 L 398.0,827.0"/>
    <path d="M 502.0,321.0 L 525.0,339.0 L 544.0,372.0 L 508.0,566.0 L 460.0,737.0 L 470.0,754.0 L 622.0,877.0 L 645.0,907.0 L 652.0,935.0"/>
    <path d="M 596.0,538.0 L 624.0,561.0 L 631.0,572.0 L 630.0,586.0 L 609.0,704.0 L 574.0,802.0 L 539.0,856.0 L 511.0,885.0 L 460.0,926.0 L 405.0,955.0"/>
    <path d="M 388.0,610.0 L 433.0,621.0 L 572.0,585.0 L 589.0,573.0"/>
    <path d="M 685.0,583.0 L 705.0,602.0 L 713.0,620.0 L 749.0,851.0"/>
    <path d="M 736.0,590.0 L 750.0,597.0 L 762.0,595.0 L 878.0,566.0 L 894.0,568.0 L 920.0,591.0 L 890.0,716.0 L 866.0,733.0"/>
    <path d="M 767.0,793.0 L 782.0,779.0 L 860.0,762.0 L 903.0,759.0 L 929.0,765.0"/>
  </g>
</svg>
