<svg xmlns="http://www.w3.org/2000/svg" viewBox="0 0 1024 1024">
  <g style="fill:none;stroke:#000000;stroke-width:50;stroke-linecap:round;stroke-linejoin:round;" transform="scale(1, 1) translate(0, 0)">
    <path d="M 314.0,213.0 L 337.0,234.0 L 349.0,258.0 L 297.0,363.0 L 203.0,506.0 L 148.0,576.0 L 83.0,638.0"/>
    <path d="M 303.0,409.0 L 323.0,398.0 L 405.0,380.0 L 453.0,377.0"/>
    <path d="M 222.0,543.0 L 253.0,545.0 L 293.0,538.0 L 374.0,507.0 L 426.0,501.0"/>
    <path d="M 171.0,703.0 L 180.0,707.0 L 232.0,702.0 L 375.0,654.0 L 426.0,649.0"/>
    <path d="M 266.0,567.0 L 302.0,596.0 L 304.0,715.0 L 290.0,822.0 L 295.0,850.0 L 329.0,841.0 L 434.0,764.0"/>
    <path d="M 501.0,395.0 L 556.0,402.0 L 683.0,382.0 L 794.0,355.0 L 832.0,356.0"/>
    <path d="M 503.0,507.0 L 546.0,513.0 L 732.0,481.0 L 791.0,484.0"/>
    <path d="M 452.0,620.0 L 503.0,626.0 L 686.0,593.0 L 857.0,572.0 L 933.0,586.0"/>
    <path d="M 633.0,198.0 L 668.0,241.0 L 646.0,405.0 L 623.0,520.0 L 603.0,585.0 L 563.0,690.0 L 514.0,784.0 L 434.0,891.0 L 401.0,923.0"/>
    <path d="M 573.0,741.0 L 628.0,745.0 L 847.0,709.0 L 898.0,718.0"/>
    <path d="M 727.0,638.0 L 768.0,681.0 L 761.0,988.0 L 747.0,1016.0 L 716.0,1008.0 L 645.0,970.0"/>
    <path d="M 536.0,809.0 L 599.0,845.0 L 629.0,882.0"/>
  </g>
</svg>
