<svg xmlns="http://www.w3.org/2000/svg" viewBox="0 0 1024 1024">
  <g style="fill:none;stroke:#000000;stroke-width:50;stroke-linecap:round;stroke-linejoin:round;" transform="scale(1, 1) translate(0, 0)">
    <path d="M 290.0,214.0 L 313.0,234.0 L 325.0,258.0 L 289.0,336.0 L 235.0,433.0 L 182.0,510.0 L 109.0,603.0 L 58.0,650.0"/>
    <path d="M 286.0,397.0 L 423.0,361.0 L 453.0,360.0"/>
    <path d="M 194.0,551.0 L 237.0,552.0 L 341.0,519.0 L 376.0,518.0"/>
    <path d="M 147.0,687.0 L 213.0,683.0 L 355.0,637.0 L 394.0,639.0"/>
    <path d="M 252.0,576.0 L 279.0,589.0 L 285.0,618.0 L 288.0,712.0 L 276.0,830.0 L 280.0,864.0 L 309.0,857.0 L 394.0,795.0"/>
    <path d="M 423.0,445.0 L 452.0,481.0 L 454.0,509.0 L 456.0,825.0 L 441.0,835.0"/>
    <path d="M 466.0,453.0 L 482.0,457.0 L 556.0,435.0 L 572.0,441.0 L 590.0,467.0 L 582.0,644.0 L 585.0,783.0 L 566.0,798.0"/>
    <path d="M 481.0,599.0 L 490.0,584.0 L 538.0,584.0"/>
    <path d="M 480.0,709.0 L 486.0,698.0 L 501.0,690.0 L 542.0,692.0"/>
    <path d="M 385.0,868.0 L 427.0,879.0 L 553.0,833.0 L 626.0,799.0"/>
    <path d="M 622.0,591.0 L 645.0,597.0 L 673.0,594.0 L 837.0,544.0 L 868.0,543.0 L 890.0,561.0 L 864.0,792.0 L 832.0,904.0 L 807.0,941.0 L 786.0,954.0 L 703.0,908.0"/>
    <path d="M 719.0,271.0 L 741.0,281.0 L 771.0,316.0 L 741.0,588.0 L 704.0,750.0 L 664.0,847.0 L 623.0,910.0 L 586.0,950.0 L 525.0,1001.0 L 480.0,1024.0"/>
  </g>
</svg>
