<svg xmlns="http://www.w3.org/2000/svg" viewBox="0 0 1024 1024">
  <g style="fill:none;stroke:#000000;stroke-width:50;stroke-linecap:round;stroke-linejoin:round;" transform="scale(1, 1) translate(0, 0)">
    <path d="M 249.0,236.0 L 270.0,255.0 L 280.0,280.0 L 235.0,384.0 L 190.0,465.0 L 128.0,557.0 L 82.0,617.0 L 46.0,651.0"/>
    <path d="M 237.0,432.0 L 262.0,418.0 L 317.0,402.0 L 370.0,397.0"/>
    <path d="M 165.0,556.0 L 219.0,555.0 L 296.0,527.0 L 348.0,520.0"/>
    <path d="M 106.0,713.0 L 164.0,711.0 L 293.0,666.0 L 341.0,660.0"/>
    <path d="M 192.0,577.0 L 225.0,603.0 L 232.0,619.0 L 236.0,736.0 L 224.0,876.0 L 229.0,898.0 L 272.0,879.0 L 339.0,824.0"/>
    <path d="M 545.0,418.0 L 580.0,424.0 L 622.0,422.0 L 779.0,382.0 L 837.0,381.0"/>
    <path d="M 661.0,229.0 L 680.0,254.0 L 690.0,281.0 L 641.0,444.0 L 574.0,620.0 L 621.0,624.0 L 756.0,599.0 L 827.0,593.0 L 854.0,600.0"/>
    <path d="M 509.0,744.0 L 562.0,751.0 L 734.0,723.0 L 849.0,712.0 L 894.0,717.0 L 925.0,728.0"/>
    <path d="M 689.0,490.0 L 718.0,520.0 L 711.0,900.0"/>
    <path d="M 408.0,342.0 L 460.0,391.0 L 475.0,419.0"/>
    <path d="M 334.0,591.0 L 366.0,588.0 L 415.0,567.0 L 438.0,567.0 L 458.0,582.0 L 453.0,626.0 L 425.0,692.0 L 427.0,715.0 L 463.0,790.0 L 462.0,826.0 L 452.0,832.0"/>
    <path d="M 356.0,843.0 L 375.0,853.0 L 446.0,852.0 L 488.0,866.0 L 695.0,964.0 L 756.0,984.0 L 789.0,985.0 L 940.0,966.0"/>
  </g>
</svg>
