<svg xmlns="http://www.w3.org/2000/svg" viewBox="0 0 1024 1024">
  <g style="fill:none;stroke:#000000;stroke-width:50;stroke-linecap:round;stroke-linejoin:round;" transform="scale(1, 1) translate(0, 0)">
    <path d="M 294.0,221.0 L 316.0,241.0 L 329.0,266.0 L 285.0,354.0 L 242.0,428.0 L 172.0,526.0 L 96.0,618.0 L 43.0,666.0"/>
    <path d="M 272.0,425.0 L 301.0,409.0 L 391.0,384.0 L 433.0,380.0"/>
    <path d="M 206.0,559.0 L 250.0,560.0 L 367.0,524.0 L 411.0,522.0"/>
    <path d="M 155.0,719.0 L 215.0,719.0 L 349.0,674.0 L 402.0,669.0"/>
    <path d="M 254.0,583.0 L 282.0,597.0 L 287.0,607.0 L 289.0,748.0 L 277.0,861.0 L 282.0,884.0 L 316.0,876.0 L 418.0,803.0"/>
    <path d="M 612.0,207.0 L 642.0,229.0 L 652.0,247.0 L 644.0,418.0 L 642.0,433.0 L 626.0,453.0"/>
    <path d="M 493.0,327.0 L 528.0,361.0 L 548.0,392.0"/>
    <path d="M 797.0,245.0 L 815.0,276.0 L 721.0,378.0"/>
    <path d="M 487.0,467.0 L 512.0,490.0 L 521.0,533.0 L 524.0,623.0 L 508.0,782.0 L 511.0,824.0"/>
    <path d="M 537.0,479.0 L 559.0,485.0 L 608.0,478.0 L 732.0,445.0 L 752.0,449.0 L 781.0,479.0 L 776.0,608.0 L 782.0,738.0 L 775.0,811.0"/>
    <path d="M 600.0,581.0 L 617.0,588.0 L 645.0,620.0 L 638.0,761.0 L 611.0,876.0 L 586.0,924.0 L 530.0,977.0 L 457.0,1015.0 L 410.0,1026.0"/>
    <path d="M 696.0,873.0 L 788.0,953.0 L 810.0,984.0 L 824.0,1029.0"/>
  </g>
</svg>
