<svg xmlns="http://www.w3.org/2000/svg" viewBox="0 0 1024 1024">
  <g style="fill:none;stroke:#000000;stroke-width:50;stroke-linecap:round;stroke-linejoin:round;" transform="scale(1, 1) translate(0, 0)">
    <path d="M 303.0,223.0 L 330.0,255.0 L 302.0,335.0 L 267.0,401.0 L 195.0,505.0 L 138.0,566.0 L 62.0,631.0"/>
    <path d="M 302.0,387.0 L 334.0,369.0 L 434.0,343.0 L 454.0,345.0"/>
    <path d="M 203.0,533.0 L 288.0,513.0 L 371.0,479.0 L 411.0,476.0"/>
    <path d="M 130.0,703.0 L 185.0,700.0 L 340.0,648.0 L 390.0,641.0"/>
    <path d="M 245.0,543.0 L 274.0,563.0 L 288.0,587.0 L 291.0,716.0 L 281.0,834.0 L 300.0,836.0 L 323.0,859.0 L 283.0,880.0 L 254.0,927.0 L 255.0,963.0"/>
    <path d="M 580.0,182.0 L 592.0,190.0 L 608.0,219.0 L 590.0,264.0 L 511.0,388.0 L 454.0,448.0"/>
    <path d="M 580.0,330.0 L 688.0,303.0 L 718.0,306.0 L 726.0,314.0 L 706.0,358.0 L 654.0,434.0 L 576.0,520.0 L 518.0,573.0 L 428.0,632.0"/>
    <path d="M 542.0,382.0 L 543.0,390.0 L 658.0,479.0 L 751.0,537.0 L 810.0,566.0 L 897.0,576.0 L 968.0,573.0"/>
    <path d="M 492.0,658.0 L 575.0,658.0 L 695.0,627.0 L 755.0,622.0"/>
    <path d="M 493.0,764.0 L 524.0,764.0 L 710.0,724.0 L 755.0,730.0"/>
    <path d="M 409.0,860.0 L 428.0,866.0 L 472.0,865.0 L 570.0,845.0 L 823.0,812.0 L 865.0,814.0 L 910.0,827.0"/>
    <path d="M 586.0,544.0 L 609.0,553.0 L 632.0,578.0 L 627.0,1081.0"/>
  </g>
</svg>
