<svg xmlns="http://www.w3.org/2000/svg" viewBox="0 0 1024 1024">
  <g style="fill:none;stroke:#000000;stroke-width:50;stroke-linecap:round;stroke-linejoin:round;" transform="scale(1, 1) translate(0, 0)">
    <path d="M 284.0,217.0 L 309.0,240.0 L 321.0,263.0 L 272.0,361.0 L 171.0,515.0 L 90.0,612.0 L 54.0,642.0"/>
    <path d="M 275.0,408.0 L 335.0,387.0 L 399.0,373.0 L 433.0,372.0"/>
    <path d="M 198.0,538.0 L 241.0,540.0 L 364.0,501.0 L 410.0,498.0"/>
    <path d="M 143.0,695.0 L 167.0,700.0 L 203.0,696.0 L 353.0,651.0 L 401.0,649.0"/>
    <path d="M 243.0,559.0 L 274.0,581.0 L 283.0,597.0 L 286.0,723.0 L 273.0,854.0 L 278.0,887.0 L 321.0,877.0 L 414.0,815.0"/>
    <path d="M 532.0,348.0 L 584.0,382.0 L 604.0,404.0"/>
    <path d="M 447.0,441.0 L 480.0,486.0 L 470.0,778.0 L 450.0,879.0 L 448.0,934.0"/>
    <path d="M 662.0,369.0 L 707.0,375.0 L 803.0,353.0 L 833.0,352.0 L 854.0,363.0 L 876.0,387.0 L 873.0,437.0 L 887.0,882.0 L 882.0,956.0 L 870.0,987.0 L 853.0,988.0 L 730.0,963.0"/>
    <path d="M 540.0,561.0 L 564.0,566.0 L 605.0,562.0 L 740.0,529.0 L 780.0,527.0"/>
    <path d="M 511.0,707.0 L 545.0,713.0 L 585.0,709.0 L 766.0,670.0 L 820.0,673.0"/>
    <path d="M 576.0,584.0 L 605.0,608.0 L 602.0,723.0 L 582.0,809.0 L 559.0,858.0 L 538.0,883.0"/>
    <path d="M 696.0,566.0 L 717.0,585.0 L 720.0,615.0 L 717.0,848.0 L 729.0,913.0"/>
  </g>
</svg>
