<svg xmlns="http://www.w3.org/2000/svg" viewBox="0 0 1024 1024">
  <g style="fill:none;stroke:#000000;stroke-width:50;stroke-linecap:round;stroke-linejoin:round;" transform="scale(1, 1) translate(0, 0)">
    <path d="M 292.0,221.0 L 317.0,244.0 L 328.0,270.0 L 285.0,356.0 L 245.0,426.0 L 166.0,537.0 L 98.0,618.0 L 58.0,650.0"/>
    <path d="M 288.0,406.0 L 313.0,393.0 L 379.0,380.0 L 440.0,377.0"/>
    <path d="M 207.0,542.0 L 265.0,542.0 L 362.0,511.0 L 418.0,506.0"/>
    <path d="M 151.0,703.0 L 211.0,703.0 L 362.0,657.0 L 405.0,652.0"/>
    <path d="M 252.0,564.0 L 283.0,584.0 L 293.0,604.0 L 293.0,757.0 L 281.0,865.0 L 286.0,895.0 L 331.0,883.0 L 437.0,811.0"/>
    <path d="M 570.0,215.0 L 655.0,255.0 L 687.0,291.0"/>
    <path d="M 490.0,394.0 L 568.0,398.0 L 772.0,352.0 L 829.0,349.0"/>
    <path d="M 587.0,422.0 L 614.0,445.0 L 584.0,497.0 L 525.0,573.0 L 515.0,600.0 L 542.0,603.0 L 730.0,557.0 L 759.0,558.0"/>
    <path d="M 727.0,487.0 L 799.0,563.0 L 812.0,586.0 L 817.0,611.0"/>
    <path d="M 468.0,699.0 L 502.0,730.0 L 493.0,816.0 L 476.0,875.0 L 431.0,942.0 L 406.0,965.0 L 361.0,992.0"/>
    <path d="M 586.0,687.0 L 610.0,716.0 L 612.0,821.0 L 605.0,914.0 L 610.0,949.0"/>
    <path d="M 702.0,663.0 L 729.0,694.0 L 723.0,823.0 L 728.0,884.0 L 742.0,925.0 L 765.0,946.0 L 809.0,962.0 L 852.0,966.0 L 905.0,958.0 L 931.0,945.0 L 948.0,928.0 L 946.0,806.0"/>
  </g>
</svg>
