<svg xmlns="http://www.w3.org/2000/svg" viewBox="0 0 1024 1024">
  <g style="fill:none;stroke:#000000;stroke-width:50;stroke-linecap:round;stroke-linejoin:round;" transform="scale(1, 1) translate(0, 0)">
    <path d="M 292.0,221.0 L 317.0,244.0 L 328.0,266.0 L 276.0,372.0 L 238.0,437.0 L 158.0,547.0 L 99.0,617.0 L 58.0,650.0"/>
    <path d="M 271.0,434.0 L 417.0,398.0 L 456.0,397.0"/>
    <path d="M 202.0,570.0 L 232.0,573.0 L 272.0,567.0 L 368.0,533.0 L 414.0,530.0"/>
    <path d="M 148.0,723.0 L 171.0,728.0 L 208.0,724.0 L 354.0,680.0 L 397.0,677.0"/>
    <path d="M 249.0,599.0 L 274.0,612.0 L 284.0,626.0 L 288.0,766.0 L 276.0,883.0 L 281.0,907.0 L 317.0,899.0 L 426.0,823.0"/>
    <path d="M 505.0,457.0 L 529.0,482.0 L 514.0,545.0 L 474.0,624.0 L 435.0,670.0"/>
    <path d="M 513.0,609.0 L 523.0,607.0 L 550.0,625.0 L 576.0,657.0"/>
    <path d="M 780.0,401.0 L 811.0,434.0 L 800.0,474.0 L 751.0,574.0 L 700.0,630.0"/>
    <path d="M 778.0,574.0 L 800.0,578.0 L 844.0,604.0 L 874.0,643.0"/>
    <path d="M 517.0,766.0 L 574.0,772.0 L 682.0,751.0 L 739.0,732.0 L 801.0,729.0"/>
    <path d="M 615.0,284.0 L 638.0,298.0 L 661.0,326.0 L 647.0,859.0 L 630.0,883.0"/>
    <path d="M 441.0,924.0 L 496.0,931.0 L 576.0,916.0 L 842.0,884.0 L 919.0,900.0"/>
  </g>
</svg>
