<svg xmlns="http://www.w3.org/2000/svg" viewBox="0 0 1024 1024">
  <g style="fill:none;stroke:#000000;stroke-width:50;stroke-linecap:round;stroke-linejoin:round;" transform="scale(1, 1) translate(0, 0)">
    <path d="M 291.0,222.0 L 324.0,257.0 L 327.0,270.0 L 275.0,377.0 L 251.0,422.0 L 160.0,550.0 L 71.0,646.0"/>
    <path d="M 288.0,413.0 L 404.0,379.0 L 436.0,374.0 L 460.0,378.0"/>
    <path d="M 211.0,549.0 L 246.0,552.0 L 305.0,541.0 L 361.0,519.0 L 411.0,516.0"/>
    <path d="M 155.0,710.0 L 227.0,706.0 L 358.0,667.0 L 404.0,667.0"/>
    <path d="M 260.0,569.0 L 290.0,587.0 L 301.0,603.0 L 305.0,736.0 L 293.0,878.0 L 297.0,914.0 L 328.0,905.0 L 446.0,808.0"/>
    <path d="M 489.0,479.0 L 562.0,484.0 L 776.0,433.0 L 824.0,432.0"/>
    <path d="M 531.0,324.0 L 554.0,345.0 L 572.0,375.0 L 586.0,587.0 L 573.0,606.0"/>
    <path d="M 713.0,225.0 L 748.0,257.0 L 755.0,275.0 L 719.0,568.0 L 699.0,588.0"/>
    <path d="M 440.0,644.0 L 492.0,649.0 L 633.0,620.0 L 846.0,589.0 L 878.0,589.0 L 934.0,602.0"/>
    <path d="M 517.0,736.0 L 537.0,752.0 L 546.0,790.0 L 548.0,884.0 L 537.0,970.0 L 539.0,1001.0"/>
    <path d="M 563.0,739.0 L 576.0,747.0 L 746.0,708.0 L 770.0,716.0 L 788.0,737.0 L 788.0,920.0 L 779.0,961.0 L 789.0,1038.0"/>
    <path d="M 572.0,866.0 L 599.0,852.0 L 645.0,840.0 L 682.0,836.0 L 704.0,841.0"/>
    <path d="M 564.0,976.0 L 589.0,962.0 L 696.0,945.0 L 714.0,945.0 L 722.0,956.0"/>
  </g>
</svg>
