<svg xmlns="http://www.w3.org/2000/svg" viewBox="0 0 1024 1024">
  <g style="fill:none;stroke:#000000;stroke-width:50;stroke-linecap:round;stroke-linejoin:round;" transform="scale(1, 1) translate(0, 0)">
    <path d="M 292.0,221.0 L 317.0,244.0 L 328.0,267.0 L 291.0,345.0 L 236.0,439.0 L 161.0,543.0 L 96.0,620.0 L 58.0,650.0"/>
    <path d="M 288.0,408.0 L 403.0,375.0 L 445.0,372.0"/>
    <path d="M 206.0,546.0 L 251.0,548.0 L 372.0,509.0 L 418.0,506.0"/>
    <path d="M 151.0,703.0 L 211.0,703.0 L 362.0,657.0 L 405.0,652.0"/>
    <path d="M 255.0,573.0 L 287.0,593.0 L 292.0,604.0 L 293.0,757.0 L 281.0,865.0 L 286.0,895.0 L 331.0,883.0 L 437.0,811.0"/>
    <path d="M 575.0,217.0 L 656.0,262.0 L 685.0,299.0"/>
    <path d="M 557.0,402.0 L 571.0,413.0 L 712.0,374.0 L 742.0,382.0 L 765.0,405.0 L 729.0,605.0 L 721.0,627.0 L 703.0,632.0"/>
    <path d="M 563.0,539.0 L 571.0,526.0 L 605.0,516.0 L 654.0,506.0 L 676.0,509.0"/>
    <path d="M 558.0,658.0 L 573.0,637.0 L 676.0,617.0 L 693.0,605.0"/>
    <path d="M 487.0,390.0 L 519.0,423.0 L 528.0,446.0 L 534.0,645.0 L 527.0,809.0 L 514.0,927.0 L 520.0,963.0 L 561.0,953.0 L 677.0,880.0"/>
    <path d="M 814.0,629.0 L 831.0,666.0 L 734.0,752.0 L 718.0,764.0 L 707.0,762.0"/>
    <path d="M 562.0,666.0 L 589.0,672.0 L 635.0,730.0 L 719.0,817.0 L 828.0,908.0 L 878.0,920.0 L 974.0,928.0"/>
  </g>
</svg>
