<svg xmlns="http://www.w3.org/2000/svg" viewBox="0 0 1024 1024">
  <g style="fill:none;stroke:#000000;stroke-width:50;stroke-linecap:round;stroke-linejoin:round;" transform="scale(1, 1) translate(0, 0)">
    <path d="M 292.0,221.0 L 317.0,244.0 L 328.0,266.0 L 287.0,353.0 L 244.0,427.0 L 176.0,523.0 L 95.0,619.0 L 58.0,650.0"/>
    <path d="M 281.0,416.0 L 419.0,381.0 L 453.0,380.0"/>
    <path d="M 206.0,550.0 L 262.0,549.0 L 362.0,516.0 L 418.0,510.0"/>
    <path d="M 151.0,703.0 L 211.0,703.0 L 362.0,657.0 L 405.0,652.0"/>
    <path d="M 254.0,575.0 L 291.0,599.0 L 294.0,745.0 L 281.0,858.0 L 286.0,886.0 L 332.0,870.0 L 438.0,791.0"/>
    <path d="M 488.0,259.0 L 510.0,278.0 L 519.0,296.0 L 560.0,486.0"/>
    <path d="M 532.0,261.0 L 552.0,270.0 L 649.0,244.0 L 747.0,229.0 L 783.0,239.0 L 802.0,265.0 L 748.0,437.0 L 751.0,456.0"/>
    <path d="M 563.0,375.0 L 572.0,364.0 L 642.0,346.0 L 690.0,341.0 L 701.0,345.0"/>
    <path d="M 578.0,458.0 L 587.0,449.0 L 714.0,420.0"/>
    <path d="M 505.0,569.0 L 565.0,575.0 L 748.0,532.0 L 808.0,530.0"/>
    <path d="M 426.0,704.0 L 481.0,710.0 L 694.0,672.0 L 883.0,649.0 L 956.0,660.0 L 967.0,669.0"/>
    <path d="M 701.0,573.0 L 738.0,596.0 L 741.0,608.0 L 746.0,919.0 L 741.0,964.0 L 733.0,988.0 L 718.0,1007.0 L 673.0,992.0 L 608.0,954.0"/>
    <path d="M 496.0,771.0 L 566.0,824.0 L 585.0,859.0"/>
  </g>
</svg>
