<svg xmlns="http://www.w3.org/2000/svg" viewBox="0 0 1024 1024">
  <g style="fill:none;stroke:#000000;stroke-width:50;stroke-linecap:round;stroke-linejoin:round;" transform="scale(1, 1) translate(0, 0)">
    <path d="M 292.0,221.0 L 317.0,244.0 L 328.0,266.0 L 278.0,368.0 L 176.0,524.0 L 96.0,619.0 L 58.0,650.0"/>
    <path d="M 274.0,429.0 L 392.0,405.0 L 441.0,405.0"/>
    <path d="M 206.0,562.0 L 242.0,565.0 L 307.0,550.0 L 361.0,528.0 L 419.0,523.0"/>
    <path d="M 151.0,711.0 L 209.0,711.0 L 362.0,664.0 L 386.0,659.0 L 409.0,663.0"/>
    <path d="M 256.0,588.0 L 291.0,607.0 L 296.0,752.0 L 284.0,864.0 L 289.0,895.0 L 334.0,880.0 L 438.0,804.0"/>
    <path d="M 468.0,345.0 L 487.0,361.0 L 498.0,383.0 L 537.0,601.0"/>
    <path d="M 513.0,347.0 L 537.0,355.0 L 604.0,337.0 L 740.0,313.0 L 793.0,323.0 L 813.0,347.0 L 812.0,356.0 L 778.0,526.0 L 770.0,549.0 L 752.0,555.0"/>
    <path d="M 567.0,464.0 L 578.0,466.0 L 685.0,441.0 L 714.0,438.0 L 733.0,443.0"/>
    <path d="M 557.0,583.0 L 573.0,571.0 L 694.0,546.0 L 740.0,528.0"/>
    <path d="M 425.0,712.0 L 478.0,718.0 L 685.0,679.0 L 845.0,657.0 L 891.0,661.0 L 925.0,672.0"/>
    <path d="M 627.0,355.0 L 653.0,375.0 L 646.0,1060.0"/>
    <path d="M 622.0,714.0 L 563.0,812.0 L 506.0,875.0 L 456.0,918.0 L 380.0,963.0"/>
    <path d="M 677.0,711.0 L 686.0,739.0 L 720.0,780.0 L 837.0,901.0 L 884.0,917.0 L 976.0,932.0"/>
  </g>
</svg>
