<svg xmlns="http://www.w3.org/2000/svg" viewBox="0 0 1024 1024">
  <g style="fill:none;stroke:#000000;stroke-width:50;stroke-linecap:round;stroke-linejoin:round;" transform="scale(1, 1) translate(0, 0)">
    <path d="M 292.0,221.0 L 317.0,244.0 L 328.0,267.0 L 284.0,357.0 L 248.0,422.0 L 167.0,535.0 L 97.0,618.0 L 58.0,650.0"/>
    <path d="M 280.0,420.0 L 303.0,409.0 L 393.0,387.0 L 441.0,384.0"/>
    <path d="M 203.0,550.0 L 240.0,553.0 L 304.0,539.0 L 373.0,513.0 L 418.0,510.0"/>
    <path d="M 151.0,703.0 L 211.0,703.0 L 362.0,657.0 L 405.0,652.0"/>
    <path d="M 254.0,575.0 L 281.0,589.0 L 291.0,604.0 L 293.0,757.0 L 281.0,865.0 L 286.0,895.0 L 331.0,883.0 L 437.0,811.0"/>
    <path d="M 464.0,323.0 L 493.0,351.0 L 548.0,590.0"/>
    <path d="M 526.0,354.0 L 535.0,338.0 L 554.0,332.0 L 709.0,299.0 L 754.0,300.0 L 780.0,320.0 L 790.0,333.0 L 751.0,502.0 L 735.0,546.0 L 739.0,567.0"/>
    <path d="M 546.0,456.0 L 572.0,441.0 L 622.0,430.0 L 653.0,425.0 L 685.0,429.0"/>
    <path d="M 566.0,567.0 L 596.0,552.0 L 684.0,539.0 L 694.0,532.0"/>
    <path d="M 517.0,740.0 L 536.0,729.0 L 602.0,713.0 L 645.0,712.0"/>
    <path d="M 465.0,634.0 L 483.0,648.0 L 496.0,671.0 L 483.0,878.0 L 491.0,911.0 L 532.0,895.0 L 608.0,839.0 L 611.0,827.0 L 623.0,827.0 L 629.0,818.0"/>
    <path d="M 836.0,588.0 L 850.0,623.0 L 790.0,674.0 L 724.0,717.0 L 717.0,733.0"/>
    <path d="M 666.0,599.0 L 686.0,619.0 L 694.0,639.0 L 687.0,817.0 L 695.0,883.0 L 711.0,922.0 L 740.0,947.0 L 788.0,960.0 L 844.0,961.0 L 880.0,955.0 L 914.0,935.0 L 926.0,922.0 L 932.0,764.0"/>
  </g>
</svg>
