<svg xmlns="http://www.w3.org/2000/svg" viewBox="0 0 1024 1024">
  <g style="fill:none;stroke:#000000;stroke-width:50;stroke-linecap:round;stroke-linejoin:round;" transform="scale(1, 1) translate(0, 0)">
    <path d="M 311.0,184.0 L 328.0,198.0 L 346.0,235.0 L 294.0,336.0 L 197.0,480.0 L 122.0,570.0 L 67.0,618.0"/>
    <path d="M 295.0,384.0 L 321.0,372.0 L 420.0,349.0 L 457.0,348.0"/>
    <path d="M 227.0,515.0 L 273.0,516.0 L 323.0,505.0 L 361.0,489.0 L 394.0,483.0 L 417.0,486.0"/>
    <path d="M 151.0,674.0 L 224.0,669.0 L 374.0,623.0 L 429.0,617.0"/>
    <path d="M 277.0,541.0 L 308.0,558.0 L 315.0,572.0 L 319.0,710.0 L 306.0,840.0 L 311.0,864.0 L 358.0,846.0 L 382.0,822.0 L 447.0,776.0"/>
    <path d="M 645.0,172.0 L 668.0,189.0 L 677.0,202.0 L 674.0,211.0 L 610.0,325.0 L 595.0,347.0 L 580.0,357.0"/>
    <path d="M 516.0,358.0 L 539.0,382.0 L 544.0,402.0 L 561.0,591.0"/>
    <path d="M 570.0,386.0 L 579.0,376.0 L 741.0,342.0 L 776.0,342.0 L 800.0,351.0 L 819.0,374.0 L 783.0,517.0 L 771.0,541.0 L 739.0,531.0"/>
    <path d="M 577.0,473.0 L 688.0,448.0 L 713.0,449.0"/>
    <path d="M 584.0,568.0 L 591.0,559.0 L 700.0,539.0 L 722.0,537.0 L 733.0,545.0"/>
    <path d="M 491.0,668.0 L 511.0,687.0 L 515.0,705.0 L 517.0,753.0 L 504.0,860.0 L 506.0,903.0"/>
    <path d="M 546.0,700.0 L 552.0,688.0 L 564.0,685.0 L 789.0,650.0 L 835.0,651.0 L 855.0,672.0 L 855.0,816.0 L 845.0,855.0 L 837.0,866.0 L 823.0,865.0 L 742.0,834.0"/>
    <path d="M 630.0,573.0 L 666.0,594.0 L 674.0,603.0 L 675.0,617.0 L 663.0,1081.0"/>
  </g>
</svg>
