<svg xmlns="http://www.w3.org/2000/svg" viewBox="0 0 1024 1024">
  <g style="fill:none;stroke:#000000;stroke-width:50;stroke-linecap:round;stroke-linejoin:round;" transform="scale(1, 1) translate(0, 0)">
    <path d="M 273.0,215.0 L 298.0,238.0 L 311.0,261.0 L 275.0,346.0 L 216.0,454.0 L 150.0,555.0 L 74.0,653.0 L 47.0,677.0"/>
    <path d="M 268.0,415.0 L 293.0,401.0 L 380.0,379.0 L 418.0,378.0"/>
    <path d="M 179.0,553.0 L 210.0,554.0 L 329.0,519.0 L 364.0,518.0"/>
    <path d="M 138.0,709.0 L 172.0,710.0 L 209.0,702.0 L 320.0,663.0 L 357.0,660.0"/>
    <path d="M 227.0,572.0 L 253.0,587.0 L 265.0,610.0 L 265.0,732.0 L 253.0,843.0 L 257.0,864.0 L 288.0,855.0 L 370.0,787.0"/>
    <path d="M 566.0,396.0 L 597.0,397.0 L 659.0,384.0 L 775.0,349.0 L 807.0,354.0 L 821.0,366.0 L 829.0,385.0 L 793.0,517.0 L 773.0,531.0"/>
    <path d="M 553.0,508.0 L 595.0,506.0 L 766.0,463.0 L 901.0,438.0 L 963.0,446.0"/>
    <path d="M 578.0,595.0 L 628.0,593.0 L 771.0,556.0 L 823.0,559.0"/>
    <path d="M 579.0,689.0 L 609.0,687.0 L 756.0,648.0 L 794.0,644.0 L 816.0,649.0"/>
    <path d="M 553.0,788.0 L 575.0,790.0 L 791.0,741.0 L 829.0,737.0 L 882.0,745.0"/>
    <path d="M 646.0,213.0 L 670.0,219.0 L 699.0,247.0 L 692.0,417.0 L 690.0,908.0"/>
    <path d="M 384.0,497.0 L 418.0,487.0 L 459.0,464.0 L 476.0,463.0 L 492.0,473.0 L 473.0,557.0 L 445.0,633.0 L 455.0,644.0 L 495.0,654.0 L 507.0,669.0 L 497.0,724.0 L 446.0,851.0 L 397.0,923.0 L 356.0,966.0"/>
    <path d="M 398.0,806.0 L 430.0,806.0 L 484.0,825.0 L 669.0,937.0 L 776.0,980.0 L 848.0,983.0 L 976.0,966.0"/>
  </g>
</svg>
