<svg xmlns="http://www.w3.org/2000/svg" viewBox="0 0 1024 1024">
  <g style="fill:none;stroke:#000000;stroke-width:50;stroke-linecap:round;stroke-linejoin:round;" transform="scale(1, 1) translate(0, 0)">
    <path d="M 292.0,221.0 L 317.0,244.0 L 328.0,266.0 L 292.0,344.0 L 240.0,434.0 L 185.0,513.0 L 118.0,597.0 L 58.0,650.0"/>
    <path d="M 291.0,405.0 L 394.0,379.0 L 439.0,377.0"/>
    <path d="M 203.0,546.0 L 240.0,550.0 L 301.0,539.0 L 357.0,517.0 L 416.0,515.0"/>
    <path d="M 152.0,699.0 L 207.0,702.0 L 369.0,661.0 L 404.0,661.0"/>
    <path d="M 253.0,573.0 L 279.0,587.0 L 291.0,602.0 L 295.0,704.0 L 281.0,862.0 L 285.0,895.0 L 331.0,883.0 L 437.0,811.0"/>
    <path d="M 519.0,408.0 L 528.0,397.0 L 570.0,386.0 L 613.0,389.0"/>
    <path d="M 460.0,287.0 L 480.0,298.0 L 495.0,316.0 L 494.0,419.0 L 482.0,528.0 L 489.0,559.0 L 515.0,556.0 L 621.0,481.0"/>
    <path d="M 827.0,310.0 L 832.0,343.0 L 712.0,409.0 L 700.0,423.0"/>
    <path d="M 653.0,227.0 L 689.0,261.0 L 680.0,370.0 L 681.0,482.0 L 691.0,520.0 L 708.0,546.0 L 754.0,563.0 L 811.0,564.0 L 853.0,556.0 L 883.0,541.0 L 888.0,537.0 L 891.0,437.0"/>
    <path d="M 597.0,583.0 L 614.0,606.0 L 555.0,697.0"/>
    <path d="M 499.0,701.0 L 518.0,724.0 L 522.0,744.0 L 524.0,808.0 L 512.0,951.0 L 517.0,994.0"/>
    <path d="M 540.0,717.0 L 566.0,720.0 L 733.0,681.0 L 769.0,708.0 L 776.0,907.0 L 772.0,947.0 L 761.0,973.0 L 765.0,1024.0"/>
    <path d="M 547.0,842.0 L 559.0,832.0 L 632.0,817.0 L 659.0,816.0 L 683.0,823.0"/>
    <path d="M 539.0,964.0 L 559.0,953.0 L 717.0,944.0"/>
  </g>
</svg>
