<svg xmlns="http://www.w3.org/2000/svg" viewBox="0 0 1024 1024">
  <g style="fill:none;stroke:#000000;stroke-width:50;stroke-linecap:round;stroke-linejoin:round;" transform="scale(1, 1) translate(0, 0)">
    <path d="M 292.0,221.0 L 317.0,244.0 L 328.0,267.0 L 268.0,386.0 L 212.0,475.0 L 136.0,574.0 L 83.0,632.0 L 58.0,650.0"/>
    <path d="M 284.0,413.0 L 421.0,380.0 L 460.0,381.0"/>
    <path d="M 206.0,554.0 L 243.0,557.0 L 362.0,520.0 L 418.0,514.0"/>
    <path d="M 151.0,711.0 L 175.0,716.0 L 212.0,712.0 L 362.0,667.0 L 405.0,665.0"/>
    <path d="M 258.0,575.0 L 288.0,593.0 L 300.0,609.0 L 304.0,751.0 L 292.0,861.0 L 297.0,891.0 L 334.0,881.0 L 442.0,803.0"/>
    <path d="M 515.0,292.0 L 537.0,307.0 L 549.0,330.0 L 468.0,509.0 L 482.0,530.0 L 538.0,572.0 L 549.0,601.0"/>
    <path d="M 655.0,267.0 L 670.0,275.0 L 688.0,306.0 L 658.0,374.0 L 612.0,453.0 L 608.0,471.0 L 619.0,495.0 L 635.0,504.0 L 678.0,549.0 L 681.0,574.0"/>
    <path d="M 814.0,248.0 L 832.0,270.0 L 839.0,296.0 L 790.0,384.0 L 752.0,438.0 L 747.0,459.0 L 761.0,478.0 L 838.0,537.0 L 853.0,573.0"/>
    <path d="M 448.0,670.0 L 473.0,691.0 L 491.0,722.0 L 512.0,915.0 L 527.0,969.0"/>
    <path d="M 501.0,680.0 L 526.0,687.0 L 613.0,676.0 L 810.0,640.0 L 830.0,645.0 L 849.0,660.0 L 862.0,682.0 L 831.0,910.0 L 813.0,944.0 L 814.0,1002.0"/>
    <path d="M 564.0,809.0 L 622.0,803.0 L 705.0,784.0 L 755.0,789.0"/>
    <path d="M 631.0,692.0 L 656.0,712.0 L 659.0,734.0 L 657.0,870.0 L 642.0,893.0"/>
    <path d="M 548.0,940.0 L 560.0,927.0 L 713.0,904.0 L 784.0,903.0"/>
  </g>
</svg>
