<svg xmlns="http://www.w3.org/2000/svg" viewBox="0 0 1024 1024">
  <g style="fill:none;stroke:#000000;stroke-width:50;stroke-linecap:round;stroke-linejoin:round;" transform="scale(1, 1) translate(0, 0)">
    <path d="M 272.0,223.0 L 297.0,248.0 L 306.0,271.0 L 272.0,351.0 L 221.0,442.0 L 160.0,534.0 L 103.0,607.0 L 67.0,641.0"/>
    <path d="M 276.0,403.0 L 353.0,374.0 L 410.0,370.0"/>
    <path d="M 190.0,533.0 L 235.0,532.0 L 366.0,492.0 L 386.0,493.0"/>
    <path d="M 143.0,675.0 L 167.0,680.0 L 204.0,677.0 L 342.0,635.0 L 385.0,633.0"/>
    <path d="M 237.0,552.0 L 265.0,570.0 L 275.0,585.0 L 276.0,705.0 L 262.0,832.0 L 267.0,851.0 L 306.0,835.0 L 390.0,764.0"/>
    <path d="M 581.0,187.0 L 671.0,237.0 L 694.0,268.0"/>
    <path d="M 521.0,357.0 L 546.0,365.0 L 614.0,360.0 L 793.0,312.0 L 856.0,308.0"/>
    <path d="M 449.0,338.0 L 486.0,376.0 L 483.0,531.0 L 465.0,685.0 L 440.0,785.0 L 397.0,895.0 L 347.0,981.0 L 311.0,1025.0"/>
    <path d="M 541.0,539.0 L 582.0,537.0 L 646.0,516.0 L 810.0,479.0 L 876.0,486.0"/>
    <path d="M 568.0,434.0 L 586.0,440.0 L 604.0,459.0 L 622.0,667.0"/>
    <path d="M 736.0,382.0 L 758.0,407.0 L 764.0,424.0 L 738.0,563.0 L 720.0,583.0"/>
    <path d="M 641.0,633.0 L 714.0,609.0 L 754.0,605.0 L 773.0,611.0"/>
    <path d="M 548.0,733.0 L 610.0,733.0 L 718.0,702.0 L 747.0,704.0 L 765.0,714.0 L 723.0,824.0 L 693.0,872.0 L 666.0,902.0 L 631.0,930.0 L 566.0,964.0 L 493.0,987.0 L 464.0,988.0"/>
    <path d="M 547.0,781.0 L 589.0,802.0 L 735.0,946.0 L 821.0,1003.0 L 961.0,1013.0"/>
  </g>
</svg>
