<svg xmlns="http://www.w3.org/2000/svg" viewBox="0 0 1024 1024">
  <g style="fill:none;stroke:#000000;stroke-width:50;stroke-linecap:round;stroke-linejoin:round;" transform="scale(1, 1) translate(0, 0)">
    <path d="M 272.0,207.0 L 290.0,220.0 L 310.0,252.0 L 283.0,315.0 L 225.0,424.0 L 150.0,535.0 L 101.0,597.0 L 55.0,642.0"/>
    <path d="M 257.0,420.0 L 394.0,380.0 L 414.0,381.0"/>
    <path d="M 194.0,546.0 L 251.0,545.0 L 356.0,509.0 L 402.0,506.0"/>
    <path d="M 143.0,703.0 L 162.0,706.0 L 216.0,698.0 L 343.0,654.0 L 398.0,649.0"/>
    <path d="M 241.0,570.0 L 270.0,589.0 L 284.0,610.0 L 288.0,739.0 L 277.0,838.0 L 282.0,874.0 L 318.0,863.0 L 421.0,780.0"/>
    <path d="M 750.0,239.0 L 692.0,229.0 L 611.0,279.0 L 501.0,322.0"/>
    <path d="M 455.0,382.0 L 512.0,429.0 L 524.0,459.0"/>
    <path d="M 583.0,354.0 L 631.0,414.0"/>
    <path d="M 773.0,295.0 L 790.0,328.0 L 712.0,406.0 L 698.0,412.0 L 694.0,423.0"/>
    <path d="M 492.0,523.0 L 554.0,526.0 L 722.0,481.0 L 766.0,481.0"/>
    <path d="M 444.0,653.0 L 471.0,656.0 L 529.0,646.0 L 628.0,618.0 L 766.0,592.0 L 840.0,601.0"/>
    <path d="M 560.0,554.0 L 588.0,574.0 L 583.0,604.0 L 553.0,709.0 L 512.0,795.0 L 470.0,856.0 L 417.0,914.0 L 330.0,984.0"/>
    <path d="M 569.0,738.0 L 627.0,729.0 L 710.0,705.0 L 731.0,715.0 L 744.0,735.0 L 726.0,802.0 L 697.0,864.0 L 638.0,934.0 L 593.0,960.0 L 534.0,982.0 L 445.0,998.0"/>
    <path d="M 543.0,796.0 L 557.0,796.0 L 576.0,808.0 L 701.0,921.0 L 776.0,969.0 L 848.0,986.0 L 949.0,991.0"/>
  </g>
</svg>
