<svg xmlns="http://www.w3.org/2000/svg" viewBox="0 0 1024 1024">
  <g style="fill:none;stroke:#000000;stroke-width:50;stroke-linecap:round;stroke-linejoin:round;" transform="scale(1, 1) translate(0, 0)">
    <path d="M 291.0,221.0 L 308.0,235.0 L 329.0,268.0 L 273.0,383.0 L 165.0,549.0 L 82.0,648.0 L 55.0,669.0"/>
    <path d="M 282.0,426.0 L 403.0,400.0 L 440.0,401.0"/>
    <path d="M 190.0,575.0 L 235.0,576.0 L 345.0,539.0 L 398.0,533.0"/>
    <path d="M 147.0,727.0 L 215.0,724.0 L 347.0,678.0 L 410.0,669.0"/>
    <path d="M 239.0,600.0 L 269.0,616.0 L 275.0,627.0 L 277.0,739.0 L 263.0,870.0 L 269.0,897.0 L 304.0,886.0 L 421.0,793.0"/>
    <path d="M 511.0,267.0 L 566.0,319.0 L 578.0,342.0"/>
    <path d="M 730.0,197.0 L 757.0,229.0 L 697.0,308.0 L 668.0,342.0 L 656.0,348.0 L 656.0,355.0"/>
    <path d="M 497.0,429.0 L 537.0,434.0 L 583.0,429.0 L 733.0,391.0 L 792.0,387.0"/>
    <path d="M 495.0,541.0 L 545.0,545.0 L 707.0,510.0 L 769.0,512.0"/>
    <path d="M 602.0,448.0 L 625.0,468.0 L 626.0,480.0 L 625.0,592.0 L 622.0,604.0 L 610.0,614.0"/>
    <path d="M 448.0,657.0 L 483.0,663.0 L 795.0,611.0 L 863.0,625.0"/>
    <path d="M 484.0,781.0 L 538.0,782.0 L 724.0,746.0 L 773.0,747.0 L 802.0,756.0"/>
    <path d="M 588.0,677.0 L 608.0,694.0 L 621.0,721.0 L 604.0,816.0 L 572.0,883.0 L 536.0,927.0 L 490.0,961.0 L 438.0,986.0 L 372.0,1003.0"/>
    <path d="M 647.0,788.0 L 719.0,878.0 L 819.0,972.0 L 951.0,997.0"/>
  </g>
</svg>
