<svg xmlns="http://www.w3.org/2000/svg" viewBox="0 0 1024 1024">
  <g style="fill:none;stroke:#000000;stroke-width:50;stroke-linecap:round;stroke-linejoin:round;" transform="scale(1, 1) translate(0, 0)">
    <path d="M 292.0,233.0 L 317.0,256.0 L 328.0,278.0 L 278.0,382.0 L 167.0,548.0 L 98.0,630.0 L 58.0,662.0"/>
    <path d="M 283.0,428.0 L 305.0,417.0 L 347.0,411.0 L 411.0,390.0 L 465.0,384.0"/>
    <path d="M 207.0,558.0 L 243.0,562.0 L 300.0,550.0 L 379.0,522.0 L 417.0,523.0"/>
    <path d="M 151.0,707.0 L 175.0,712.0 L 214.0,709.0 L 347.0,671.0 L 404.0,665.0"/>
    <path d="M 256.0,586.0 L 291.0,611.0 L 295.0,710.0 L 290.0,813.0 L 280.0,879.0 L 285.0,907.0 L 331.0,895.0 L 437.0,823.0"/>
    <path d="M 817.0,300.0 L 799.0,294.0 L 750.0,293.0 L 671.0,347.0 L 522.0,414.0"/>
    <path d="M 454.0,536.0 L 508.0,540.0 L 820.0,481.0 L 877.0,481.0 L 922.0,493.0"/>
    <path d="M 641.0,387.0 L 665.0,396.0 L 677.0,409.0 L 684.0,450.0 L 677.0,873.0 L 661.0,888.0"/>
    <path d="M 607.0,624.0 L 579.0,619.0 L 519.0,674.0 L 511.0,671.0"/>
    <path d="M 446.0,662.0 L 487.0,704.0 L 507.0,878.0 L 525.0,960.0"/>
    <path d="M 524.0,803.0 L 553.0,785.0 L 616.0,785.0"/>
    <path d="M 738.0,629.0 L 770.0,634.0 L 865.0,625.0 L 885.0,637.0 L 902.0,662.0 L 856.0,910.0 L 841.0,934.0 L 798.0,918.0"/>
    <path d="M 736.0,767.0 L 836.0,763.0 L 856.0,750.0"/>
    <path d="M 545.0,938.0 L 561.0,928.0 L 715.0,904.0 L 794.0,896.0 L 820.0,900.0"/>
  </g>
</svg>
