<svg xmlns="http://www.w3.org/2000/svg" viewBox="0 0 1024 1024">
  <g style="fill:none;stroke:#000000;stroke-width:50;stroke-linecap:round;stroke-linejoin:round;" transform="scale(1, 1) translate(0, 0)">
    <path d="M 316.0,248.0 L 341.0,272.0 L 352.0,296.0 L 284.0,425.0 L 162.0,594.0 L 120.0,643.0 L 59.0,698.0"/>
    <path d="M 288.0,466.0 L 427.0,430.0 L 458.0,430.0"/>
    <path d="M 206.0,611.0 L 262.0,610.0 L 373.0,571.0 L 426.0,565.0"/>
    <path d="M 151.0,759.0 L 193.0,762.0 L 238.0,755.0 L 368.0,714.0 L 437.0,705.0"/>
    <path d="M 252.0,635.0 L 278.0,650.0 L 291.0,673.0 L 292.0,789.0 L 278.0,904.0 L 279.0,944.0 L 324.0,935.0 L 417.0,882.0"/>
    <path d="M 493.0,362.0 L 502.0,367.0 L 568.0,369.0 L 678.0,351.0 L 804.0,321.0 L 859.0,320.0"/>
    <path d="M 632.0,210.0 L 667.0,248.0 L 640.0,450.0 L 623.0,468.0"/>
    <path d="M 520.0,483.0 L 545.0,515.0 L 550.0,544.0 L 553.0,787.0 L 538.0,801.0"/>
    <path d="M 558.0,485.0 L 583.0,496.0 L 751.0,460.0 L 767.0,467.0 L 781.0,484.0 L 788.0,501.0 L 778.0,601.0 L 774.0,756.0 L 755.0,769.0"/>
    <path d="M 580.0,594.0 L 589.0,584.0 L 681.0,564.0 L 712.0,567.0"/>
    <path d="M 578.0,674.0 L 588.0,665.0 L 665.0,648.0 L 709.0,651.0"/>
    <path d="M 577.0,750.0 L 588.0,740.0 L 645.0,728.0 L 697.0,722.0 L 717.0,727.0"/>
    <path d="M 421.0,833.0 L 475.0,840.0 L 637.0,816.0 L 866.0,795.0 L 911.0,798.0 L 951.0,811.0"/>
    <path d="M 615.0,906.0 L 585.0,911.0 L 546.0,961.0 L 507.0,997.0 L 427.0,1047.0"/>
    <path d="M 725.0,872.0 L 828.0,958.0 L 852.0,990.0 L 866.0,1034.0"/>
  </g>
</svg>
