<svg xmlns="http://www.w3.org/2000/svg" viewBox="0 0 1024 1024">
  <g style="fill:none;stroke:#000000;stroke-width:50;stroke-linecap:round;stroke-linejoin:round;" transform="scale(1, 1) translate(0, 0)">
    <path d="M 281.0,247.0 L 303.0,267.0 L 315.0,290.0 L 264.0,400.0 L 172.0,546.0 L 109.0,629.0 L 58.0,679.0"/>
    <path d="M 264.0,449.0 L 321.0,428.0 L 385.0,413.0 L 417.0,412.0"/>
    <path d="M 206.0,579.0 L 251.0,578.0 L 336.0,551.0 L 383.0,545.0"/>
    <path d="M 151.0,723.0 L 175.0,728.0 L 214.0,725.0 L 355.0,684.0 L 404.0,681.0"/>
    <path d="M 256.0,602.0 L 288.0,627.0 L 291.0,771.0 L 280.0,871.0 L 286.0,896.0 L 325.0,883.0 L 410.0,819.0"/>
    <path d="M 463.0,336.0 L 503.0,339.0 L 580.0,327.0 L 755.0,289.0 L 775.0,295.0 L 794.0,312.0 L 778.0,359.0 L 761.0,365.0"/>
    <path d="M 502.0,433.0 L 511.0,440.0 L 751.0,396.0 L 803.0,402.0"/>
    <path d="M 456.0,410.0 L 470.0,429.0 L 474.0,450.0 L 447.0,520.0 L 445.0,545.0 L 453.0,547.0 L 471.0,549.0 L 602.0,516.0 L 832.0,481.0 L 867.0,485.0 L 892.0,512.0 L 889.0,536.0 L 866.0,591.0 L 851.0,617.0 L 837.0,628.0 L 768.0,586.0"/>
    <path d="M 551.0,228.0 L 569.0,242.0 L 581.0,262.0 L 579.0,429.0 L 550.0,547.0 L 506.0,624.0"/>
    <path d="M 657.0,192.0 L 682.0,223.0 L 671.0,621.0"/>
    <path d="M 487.0,657.0 L 507.0,681.0 L 511.0,699.0 L 514.0,788.0 L 508.0,878.0 L 513.0,911.0"/>
    <path d="M 534.0,671.0 L 545.0,679.0 L 567.0,678.0 L 702.0,651.0 L 718.0,653.0 L 737.0,669.0 L 749.0,685.0 L 744.0,737.0 L 747.0,844.0 L 739.0,911.0"/>
    <path d="M 580.0,729.0 L 597.0,736.0 L 625.0,766.0 L 622.0,854.0 L 607.0,927.0 L 580.0,970.0 L 532.0,1003.0 L 467.0,1028.0 L 434.0,1031.0"/>
    <path d="M 661.0,939.0 L 754.0,1002.0 L 776.0,1027.0 L 787.0,1054.0"/>
  </g>
</svg>
