<svg xmlns="http://www.w3.org/2000/svg" viewBox="0 0 1024 1024">
  <g style="fill:none;stroke:#000000;stroke-width:50;stroke-linecap:round;stroke-linejoin:round;" transform="scale(1, 1) translate(0, 0)">
    <path d="M 292.0,221.0 L 317.0,244.0 L 328.0,266.0 L 271.0,381.0 L 226.0,454.0 L 132.0,580.0 L 83.0,632.0 L 58.0,650.0"/>
    <path d="M 286.0,409.0 L 428.0,373.0 L 461.0,372.0"/>
    <path d="M 207.0,550.0 L 275.0,547.0 L 377.0,513.0 L 422.0,510.0"/>
    <path d="M 151.0,703.0 L 211.0,703.0 L 362.0,657.0 L 405.0,652.0"/>
    <path d="M 254.0,575.0 L 282.0,590.0 L 292.0,605.0 L 294.0,728.0 L 282.0,846.0 L 287.0,878.0 L 332.0,862.0 L 438.0,783.0"/>
    <path d="M 529.0,312.0 L 590.0,319.0 L 777.0,283.0 L 814.0,284.0"/>
    <path d="M 517.0,420.0 L 550.0,458.0 L 580.0,572.0"/>
    <path d="M 538.0,416.0 L 543.0,422.0 L 573.0,428.0 L 717.0,398.0 L 748.0,402.0 L 773.0,427.0 L 756.0,480.0 L 734.0,501.0"/>
    <path d="M 595.0,553.0 L 611.0,544.0 L 721.0,525.0 L 772.0,522.0 L 791.0,530.0"/>
    <path d="M 472.0,639.0 L 491.0,656.0 L 499.0,687.0 L 500.0,759.0 L 483.0,867.0 L 483.0,922.0"/>
    <path d="M 518.0,645.0 L 535.0,654.0 L 643.0,627.0 L 815.0,604.0 L 836.0,607.0 L 862.0,629.0 L 869.0,889.0 L 862.0,929.0 L 857.0,936.0 L 822.0,929.0 L 774.0,905.0"/>
    <path d="M 580.0,693.0 L 624.0,739.0 L 630.0,761.0"/>
    <path d="M 718.0,663.0 L 733.0,682.0 L 731.0,688.0 L 686.0,757.0"/>
    <path d="M 568.0,798.0 L 664.0,790.0 L 740.0,774.0 L 790.0,778.0"/>
    <path d="M 683.0,811.0 L 667.0,831.0 L 665.0,954.0"/>
  </g>
</svg>
