<svg xmlns="http://www.w3.org/2000/svg" viewBox="0 0 1024 1024">
  <g style="fill:none;stroke:#000000;stroke-width:50;stroke-linecap:round;stroke-linejoin:round;" transform="scale(1, 1) translate(0, 0)">
    <path d="M 316.0,210.0 L 338.0,231.0 L 349.0,259.0 L 298.0,360.0 L 203.0,505.0 L 138.0,586.0 L 84.0,636.0"/>
    <path d="M 304.0,408.0 L 325.0,396.0 L 396.0,379.0 L 456.0,373.0"/>
    <path d="M 223.0,541.0 L 264.0,542.0 L 343.0,521.0 L 389.0,502.0 L 429.0,500.0"/>
    <path d="M 171.0,702.0 L 235.0,700.0 L 388.0,650.0 L 427.0,648.0"/>
    <path d="M 267.0,565.0 L 297.0,584.0 L 303.0,594.0 L 305.0,714.0 L 291.0,821.0 L 300.0,849.0 L 341.0,833.0 L 435.0,762.0"/>
    <path d="M 538.0,323.0 L 564.0,327.0 L 621.0,321.0 L 753.0,285.0 L 792.0,284.0"/>
    <path d="M 473.0,420.0 L 497.0,440.0 L 505.0,462.0 L 520.0,605.0 L 530.0,632.0"/>
    <path d="M 519.0,426.0 L 538.0,436.0 L 684.0,398.0 L 777.0,381.0 L 808.0,390.0 L 829.0,415.0 L 775.0,602.0"/>
    <path d="M 581.0,500.0 L 692.0,476.0 L 738.0,479.0"/>
    <path d="M 578.0,578.0 L 612.0,575.0 L 695.0,551.0 L 732.0,556.0"/>
    <path d="M 610.0,181.0 L 632.0,192.0 L 648.0,210.0 L 652.0,237.0 L 652.0,409.0 L 640.0,656.0"/>
    <path d="M 782.0,199.0 L 839.0,239.0 L 857.0,262.0"/>
    <path d="M 476.0,754.0 L 519.0,756.0 L 678.0,720.0 L 891.0,686.0 L 934.0,688.0 L 969.0,698.0"/>
    <path d="M 717.0,615.0 L 762.0,661.0 L 755.0,979.0 L 741.0,1007.0 L 715.0,1000.0 L 627.0,954.0"/>
    <path d="M 545.0,806.0 L 604.0,850.0 L 624.0,885.0"/>
  </g>
</svg>
