<svg xmlns="http://www.w3.org/2000/svg" viewBox="0 0 1024 1024">
  <g style="fill:none;stroke:#000000;stroke-width:50;stroke-linecap:round;stroke-linejoin:round;" transform="scale(1, 1) translate(0, 0)">
    <path d="M 308.0,225.0 L 333.0,248.0 L 344.0,270.0 L 303.0,357.0 L 192.0,528.0 L 112.0,623.0 L 74.0,654.0"/>
    <path d="M 293.0,424.0 L 317.0,412.0 L 422.0,385.0 L 457.0,383.0"/>
    <path d="M 223.0,559.0 L 260.0,563.0 L 381.0,532.0 L 417.0,535.0"/>
    <path d="M 155.0,711.0 L 215.0,711.0 L 371.0,667.0 L 413.0,665.0"/>
    <path d="M 276.0,585.0 L 306.0,604.0 L 311.0,614.0 L 315.0,708.0 L 301.0,864.0 L 306.0,895.0 L 352.0,882.0 L 457.0,807.0"/>
    <path d="M 543.0,267.0 L 565.0,294.0 L 549.0,341.0 L 502.0,416.0 L 436.0,492.0"/>
    <path d="M 519.0,430.0 L 533.0,474.0 L 525.0,626.0 L 528.0,691.0"/>
    <path d="M 641.0,198.0 L 720.0,254.0 L 735.0,288.0"/>
    <path d="M 592.0,374.0 L 653.0,378.0 L 779.0,347.0 L 823.0,346.0"/>
    <path d="M 607.0,480.0 L 662.0,474.0 L 760.0,448.0 L 797.0,451.0"/>
    <path d="M 607.0,564.0 L 641.0,561.0 L 756.0,531.0 L 801.0,535.0"/>
    <path d="M 669.0,398.0 L 690.0,410.0 L 699.0,424.0 L 697.0,593.0 L 683.0,616.0"/>
    <path d="M 557.0,660.0 L 793.0,620.0 L 831.0,619.0 L 875.0,629.0"/>
    <path d="M 505.0,747.0 L 555.0,753.0 L 729.0,706.0 L 755.0,709.0 L 763.0,718.0 L 720.0,795.0 L 709.0,831.0 L 744.0,836.0 L 793.0,825.0 L 826.0,833.0 L 845.0,858.0 L 816.0,947.0 L 782.0,1010.0 L 743.0,1033.0 L 666.0,974.0"/>
    <path d="M 590.0,769.0 L 612.0,787.0 L 568.0,884.0 L 513.0,962.0 L 431.0,1042.0"/>
  </g>
</svg>
