<svg xmlns="http://www.w3.org/2000/svg" viewBox="0 0 1024 1024">
  <g style="fill:none;stroke:#000000;stroke-width:50;stroke-linecap:round;stroke-linejoin:round;" transform="scale(1, 1) translate(0, 0)">
    <path d="M 294.0,221.0 L 317.0,242.0 L 329.0,266.0 L 275.0,372.0 L 176.0,522.0 L 111.0,601.0 L 59.0,650.0"/>
    <path d="M 281.0,414.0 L 406.0,380.0 L 434.0,379.0"/>
    <path d="M 214.0,545.0 L 250.0,547.0 L 291.0,539.0 L 370.0,510.0 L 409.0,508.0"/>
    <path d="M 151.0,703.0 L 211.0,703.0 L 362.0,657.0 L 405.0,652.0"/>
    <path d="M 252.0,564.0 L 283.0,584.0 L 293.0,604.0 L 292.0,773.0 L 281.0,859.0 L 286.0,883.0 L 324.0,875.0 L 434.0,799.0"/>
    <path d="M 582.0,291.0 L 598.0,321.0 L 534.0,390.0 L 518.0,400.0 L 517.0,407.0 L 505.0,409.0"/>
    <path d="M 460.0,399.0 L 488.0,436.0 L 488.0,580.0 L 514.0,575.0 L 582.0,527.0"/>
    <path d="M 572.0,478.0 L 605.0,517.0 L 615.0,546.0"/>
    <path d="M 635.0,389.0 L 675.0,393.0 L 833.0,347.0 L 849.0,352.0 L 861.0,366.0 L 851.0,460.0 L 838.0,517.0 L 809.0,580.0 L 788.0,596.0 L 728.0,561.0"/>
    <path d="M 690.0,415.0 L 706.0,424.0 L 714.0,439.0 L 702.0,484.0 L 644.0,603.0 L 606.0,647.0"/>
    <path d="M 436.0,710.0 L 463.0,732.0 L 479.0,763.0 L 495.0,923.0 L 513.0,995.0"/>
    <path d="M 490.0,720.0 L 514.0,732.0 L 539.0,729.0 L 783.0,681.0 L 799.0,684.0 L 822.0,701.0 L 833.0,715.0 L 805.0,922.0 L 797.0,949.0 L 782.0,971.0 L 783.0,1027.0"/>
    <path d="M 557.0,844.0 L 695.0,815.0 L 725.0,812.0 L 747.0,818.0"/>
    <path d="M 621.0,735.0 L 646.0,758.0 L 644.0,906.0 L 631.0,920.0"/>
    <path d="M 531.0,950.0 L 543.0,958.0 L 677.0,937.0 L 761.0,934.0"/>
  </g>
</svg>
