<svg xmlns="http://www.w3.org/2000/svg" viewBox="0 0 1024 1024">
  <g style="fill:none;stroke:#000000;stroke-width:50;stroke-linecap:round;stroke-linejoin:round;" transform="scale(1, 1) translate(0, 0)">
    <path d="M 290.0,245.0 L 313.0,269.0 L 325.0,292.0 L 280.0,387.0 L 169.0,559.0 L 100.0,644.0 L 59.0,682.0"/>
    <path d="M 285.0,437.0 L 306.0,424.0 L 400.0,403.0 L 445.0,400.0"/>
    <path d="M 202.0,575.0 L 238.0,577.0 L 358.0,541.0 L 402.0,537.0"/>
    <path d="M 151.0,735.0 L 211.0,735.0 L 362.0,689.0 L 405.0,684.0"/>
    <path d="M 251.0,595.0 L 280.0,614.0 L 291.0,630.0 L 294.0,760.0 L 281.0,890.0 L 285.0,923.0 L 331.0,911.0 L 437.0,839.0"/>
    <path d="M 622.0,219.0 L 643.0,233.0 L 663.0,259.0 L 656.0,441.0 L 653.0,462.0 L 638.0,479.0"/>
    <path d="M 499.0,362.0 L 561.0,413.0 L 571.0,438.0"/>
    <path d="M 806.0,307.0 L 822.0,335.0 L 737.0,418.0"/>
    <path d="M 463.0,486.0 L 474.0,519.0 L 472.0,532.0 L 441.0,607.0 L 438.0,636.0"/>
    <path d="M 504.0,517.0 L 512.0,524.0 L 551.0,519.0 L 708.0,484.0 L 833.0,471.0 L 855.0,481.0 L 869.0,503.0 L 817.0,561.0"/>
    <path d="M 521.0,599.0 L 543.0,617.0 L 554.0,642.0 L 576.0,747.0"/>
    <path d="M 567.0,601.0 L 581.0,609.0 L 706.0,578.0 L 724.0,579.0 L 751.0,607.0 L 732.0,660.0 L 711.0,673.0"/>
    <path d="M 592.0,732.0 L 602.0,723.0 L 699.0,702.0 L 739.0,699.0 L 764.0,706.0"/>
    <path d="M 505.0,846.0 L 535.0,853.0 L 580.0,852.0 L 689.0,835.0 L 698.0,828.0 L 765.0,815.0 L 813.0,817.0"/>
    <path d="M 620.0,740.0 L 649.0,762.0 L 654.0,784.0 L 653.0,923.0 L 637.0,945.0"/>
    <path d="M 433.0,984.0 L 487.0,992.0 L 830.0,954.0 L 865.0,957.0 L 907.0,971.0"/>
  </g>
</svg>
