<svg xmlns="http://www.w3.org/2000/svg" viewBox="0 0 1024 1024">
  <g style="fill:none;stroke:#000000;stroke-width:50;stroke-linecap:round;stroke-linejoin:round;" transform="scale(1, 1) translate(0, 0)">
    <path d="M 302.0,216.0 L 324.0,237.0 L 336.0,262.0 L 300.0,334.0 L 253.0,412.0 L 183.0,509.0 L 107.0,601.0 L 56.0,647.0"/>
    <path d="M 290.0,401.0 L 315.0,390.0 L 371.0,379.0 L 420.0,371.0 L 448.0,373.0"/>
    <path d="M 202.0,551.0 L 251.0,551.0 L 353.0,518.0 L 399.0,513.0"/>
    <path d="M 151.0,703.0 L 211.0,703.0 L 362.0,657.0 L 405.0,652.0"/>
    <path d="M 256.0,575.0 L 291.0,599.0 L 294.0,728.0 L 281.0,864.0 L 286.0,893.0 L 323.0,883.0 L 409.0,816.0"/>
    <path d="M 501.0,287.0 L 535.0,295.0 L 584.0,290.0 L 747.0,255.0 L 808.0,252.0"/>
    <path d="M 453.0,424.0 L 483.0,455.0 L 516.0,595.0"/>
    <path d="M 508.0,446.0 L 517.0,436.0 L 535.0,430.0 L 730.0,387.0 L 788.0,380.0 L 808.0,384.0 L 831.0,416.0 L 790.0,537.0 L 791.0,558.0"/>
    <path d="M 548.0,317.0 L 584.0,348.0 L 599.0,522.0 L 591.0,531.0"/>
    <path d="M 675.0,300.0 L 702.0,318.0 L 689.0,489.0 L 683.0,508.0 L 673.0,515.0"/>
    <path d="M 528.0,572.0 L 564.0,556.0 L 756.0,521.0"/>
    <path d="M 525.0,651.0 L 580.0,657.0 L 713.0,630.0 L 756.0,632.0"/>
    <path d="M 431.0,768.0 L 477.0,774.0 L 566.0,754.0 L 809.0,717.0 L 845.0,718.0 L 890.0,730.0"/>
    <path d="M 633.0,767.0 L 658.0,788.0 L 661.0,802.0 L 661.0,935.0 L 653.0,985.0 L 640.0,1008.0 L 551.0,973.0"/>
    <path d="M 507.0,857.0 L 477.0,919.0 L 436.0,977.0"/>
    <path d="M 761.0,847.0 L 852.0,915.0 L 879.0,964.0"/>
  </g>
</svg>
