<svg xmlns="http://www.w3.org/2000/svg" viewBox="0 0 1024 1024">
  <g style="fill:none;stroke:#000000;stroke-width:50;stroke-linecap:round;stroke-linejoin:round;" transform="scale(1, 1) translate(0, 0)">
    <path d="M 242.0,229.0 L 264.0,246.0 L 278.0,268.0 L 256.0,325.0 L 176.0,482.0 L 111.0,582.0 L 54.0,647.0"/>
    <path d="M 235.0,427.0 L 264.0,409.0 L 345.0,392.0 L 377.0,392.0"/>
    <path d="M 163.0,546.0 L 286.0,512.0 L 329.0,508.0"/>
    <path d="M 107.0,685.0 L 178.0,683.0 L 289.0,648.0 L 337.0,644.0"/>
    <path d="M 204.0,560.0 L 234.0,581.0 L 230.0,730.0 L 218.0,810.0 L 222.0,829.0 L 253.0,820.0 L 334.0,755.0"/>
    <path d="M 412.0,326.0 L 478.0,372.0 L 506.0,415.0"/>
    <path d="M 346.0,545.0 L 395.0,546.0 L 481.0,517.0 L 541.0,507.0 L 567.0,509.0"/>
    <path d="M 452.0,663.0 L 461.0,655.0 L 497.0,661.0 L 515.0,671.0 L 525.0,688.0 L 497.0,814.0 L 472.0,884.0 L 451.0,917.0 L 431.0,933.0 L 350.0,886.0"/>
    <path d="M 410.0,561.0 L 435.0,582.0 L 439.0,594.0 L 402.0,716.0 L 364.0,797.0 L 319.0,871.0 L 282.0,920.0 L 253.0,946.0"/>
    <path d="M 668.0,263.0 L 701.0,289.0 L 704.0,304.0 L 655.0,441.0 L 603.0,539.0 L 585.0,562.0"/>
    <path d="M 663.0,476.0 L 748.0,459.0 L 809.0,437.0 L 861.0,432.0"/>
    <path d="M 581.0,604.0 L 601.0,609.0 L 628.0,606.0 L 654.0,593.0 L 798.0,560.0 L 835.0,565.0 L 854.0,578.0 L 856.0,589.0 L 800.0,663.0"/>
    <path d="M 682.0,608.0 L 710.0,629.0 L 707.0,868.0 L 724.0,894.0"/>
    <path d="M 740.0,750.0 L 752.0,733.0 L 778.0,724.0 L 825.0,718.0 L 851.0,723.0"/>
    <path d="M 599.0,753.0 L 619.0,779.0 L 591.0,856.0 L 547.0,924.0 L 500.0,970.0"/>
    <path d="M 623.0,845.0 L 628.0,857.0 L 674.0,894.0 L 800.0,973.0 L 863.0,982.0 L 974.0,982.0"/>
  </g>
</svg>
