<svg xmlns="http://www.w3.org/2000/svg" viewBox="0 0 1024 1024">
  <g style="fill:none;stroke:#000000;stroke-width:50;stroke-linecap:round;stroke-linejoin:round;" transform="scale(1, 1) translate(0, 0)">
    <path d="M 254.0,251.0 L 278.0,273.0 L 289.0,297.0 L 245.0,400.0 L 140.0,570.0 L 74.0,654.0 L 50.0,674.0"/>
    <path d="M 254.0,440.0 L 345.0,414.0 L 398.0,409.0"/>
    <path d="M 182.0,573.0 L 217.0,575.0 L 328.0,540.0 L 371.0,536.0"/>
    <path d="M 134.0,735.0 L 187.0,732.0 L 325.0,685.0 L 366.0,681.0"/>
    <path d="M 231.0,592.0 L 262.0,612.0 L 269.0,631.0 L 269.0,743.0 L 257.0,857.0 L 262.0,880.0 L 294.0,873.0 L 384.0,810.0"/>
    <path d="M 511.0,311.0 L 562.0,339.0 L 580.0,358.0"/>
    <path d="M 436.0,390.0 L 454.0,404.0 L 474.0,433.0 L 478.0,526.0 L 469.0,785.0 L 447.0,929.0 L 447.0,975.0"/>
    <path d="M 674.0,334.0 L 717.0,332.0 L 830.0,301.0 L 849.0,305.0 L 873.0,328.0 L 887.0,832.0 L 884.0,960.0 L 867.0,991.0 L 837.0,983.0 L 762.0,946.0"/>
    <path d="M 564.0,491.0 L 587.0,498.0 L 612.0,497.0 L 717.0,472.0 L 770.0,468.0"/>
    <path d="M 516.0,583.0 L 536.0,599.0 L 542.0,612.0 L 569.0,740.0"/>
    <path d="M 555.0,588.0 L 568.0,591.0 L 641.0,580.0 L 739.0,557.0 L 792.0,559.0 L 813.0,583.0 L 771.0,711.0"/>
    <path d="M 591.0,631.0 L 623.0,666.0"/>
    <path d="M 755.0,613.0 L 741.0,612.0 L 702.0,657.0"/>
    <path d="M 586.0,724.0 L 590.0,718.0 L 724.0,696.0 L 744.0,696.0 L 750.0,703.0"/>
    <path d="M 645.0,411.0 L 669.0,439.0 L 670.0,452.0 L 662.0,892.0 L 673.0,953.0"/>
    <path d="M 647.0,730.0 L 630.0,773.0 L 610.0,799.0 L 513.0,893.0"/>
    <path d="M 720.0,773.0 L 780.0,812.0 L 793.0,824.0 L 803.0,847.0"/>
  </g>
</svg>
