<svg xmlns="http://www.w3.org/2000/svg" viewBox="0 0 1024 1024">
  <g style="fill:none;stroke:#000000;stroke-width:50;stroke-linecap:round;stroke-linejoin:round;" transform="scale(1, 1) translate(0, 0)">
    <path d="M 275.0,215.0 L 297.0,235.0 L 310.0,259.0 L 289.0,309.0 L 243.0,398.0 L 190.0,480.0 L 127.0,566.0 L 74.0,618.0"/>
    <path d="M 277.0,397.0 L 303.0,382.0 L 395.0,361.0 L 422.0,361.0"/>
    <path d="M 194.0,541.0 L 248.0,539.0 L 350.0,505.0 L 384.0,504.0"/>
    <path d="M 135.0,695.0 L 182.0,696.0 L 344.0,647.0 L 387.0,646.0"/>
    <path d="M 255.0,564.0 L 286.0,584.0 L 287.0,717.0 L 274.0,841.0 L 286.0,842.0 L 316.0,864.0 L 301.0,877.0 L 276.0,884.0 L 249.0,927.0 L 248.0,964.0"/>
    <path d="M 469.0,383.0 L 492.0,389.0 L 562.0,384.0 L 759.0,333.0 L 813.0,332.0"/>
    <path d="M 592.0,206.0 L 616.0,217.0 L 634.0,237.0 L 576.0,427.0 L 509.0,545.0 L 467.0,600.0 L 423.0,636.0"/>
    <path d="M 659.0,391.0 L 672.0,393.0 L 790.0,515.0 L 852.0,562.0 L 980.0,577.0"/>
    <path d="M 432.0,459.0 L 479.0,490.0 L 490.0,506.0"/>
    <path d="M 881.0,432.0 L 851.0,419.0 L 790.0,464.0 L 781.0,460.0"/>
    <path d="M 512.0,582.0 L 511.0,607.0 L 537.0,763.0"/>
    <path d="M 526.0,577.0 L 544.0,584.0 L 681.0,553.0 L 722.0,554.0 L 736.0,561.0 L 751.0,579.0 L 716.0,719.0 L 718.0,743.0"/>
    <path d="M 548.0,671.0 L 555.0,663.0 L 608.0,649.0 L 665.0,648.0"/>
    <path d="M 554.0,747.0 L 565.0,736.0 L 683.0,712.0"/>
    <path d="M 613.0,746.0 L 635.0,763.0 L 646.0,791.0 L 647.0,939.0 L 641.0,969.0 L 626.0,994.0 L 527.0,956.0"/>
    <path d="M 479.0,814.0 L 463.0,873.0 L 421.0,963.0"/>
    <path d="M 757.0,812.0 L 852.0,889.0 L 870.0,916.0 L 879.0,946.0"/>
  </g>
</svg>
