<svg xmlns="http://www.w3.org/2000/svg" viewBox="0 0 1024 1024">
  <g style="fill:none;stroke:#000000;stroke-width:50;stroke-linecap:round;stroke-linejoin:round;" transform="scale(1, 1) translate(0, 0)">
    <path d="M 274.0,222.0 L 298.0,243.0 L 310.0,267.0 L 269.0,359.0 L 162.0,533.0 L 95.0,617.0 L 58.0,650.0"/>
    <path d="M 273.0,404.0 L 295.0,392.0 L 369.0,373.0 L 414.0,371.0"/>
    <path d="M 194.0,549.0 L 232.0,552.0 L 354.0,511.0 L 393.0,508.0"/>
    <path d="M 135.0,703.0 L 197.0,704.0 L 339.0,661.0 L 405.0,653.0"/>
    <path d="M 247.0,573.0 L 277.0,588.0 L 283.0,598.0 L 288.0,746.0 L 276.0,857.0 L 281.0,887.0 L 313.0,880.0 L 418.0,807.0"/>
    <path d="M 577.0,180.0 L 598.0,220.0 L 537.0,305.0 L 468.0,365.0"/>
    <path d="M 577.0,293.0 L 679.0,273.0 L 713.0,281.0 L 716.0,288.0 L 661.0,368.0 L 621.0,406.0"/>
    <path d="M 440.0,435.0 L 462.0,453.0 L 473.0,475.0 L 508.0,630.0"/>
    <path d="M 495.0,464.0 L 515.0,444.0 L 551.0,436.0 L 724.0,403.0 L 785.0,406.0 L 806.0,427.0 L 812.0,444.0 L 755.0,603.0"/>
    <path d="M 548.0,524.0 L 591.0,519.0 L 660.0,498.0 L 709.0,499.0"/>
    <path d="M 601.0,446.0 L 626.0,470.0 L 623.0,560.0 L 611.0,575.0"/>
    <path d="M 523.0,617.0 L 543.0,608.0 L 724.0,578.0 L 735.0,571.0"/>
    <path d="M 405.0,703.0 L 453.0,714.0 L 567.0,690.0 L 834.0,653.0 L 878.0,656.0 L 921.0,671.0"/>
    <path d="M 493.0,766.0 L 508.0,779.0 L 522.0,811.0 L 522.0,904.0 L 510.0,993.0 L 512.0,1037.0"/>
    <path d="M 547.0,777.0 L 561.0,789.0 L 572.0,782.0 L 584.0,784.0 L 716.0,750.0 L 731.0,753.0 L 757.0,776.0 L 768.0,971.0 L 757.0,1017.0 L 761.0,1070.0"/>
    <path d="M 550.0,905.0 L 560.0,892.0 L 616.0,880.0 L 654.0,876.0 L 676.0,881.0"/>
    <path d="M 538.0,1016.0 L 552.0,1002.0 L 575.0,997.0 L 668.0,982.0 L 714.0,981.0"/>
  </g>
</svg>
