<svg xmlns="http://www.w3.org/2000/svg" viewBox="0 0 1024 1024">
  <g style="fill:none;stroke:#000000;stroke-width:50;stroke-linecap:round;stroke-linejoin:round;" transform="scale(1, 1) translate(0, 0)">
    <path d="M 282.0,226.0 L 305.0,246.0 L 316.0,274.0 L 263.0,383.0 L 156.0,546.0 L 84.0,631.0 L 58.0,650.0"/>
    <path d="M 263.0,431.0 L 311.0,412.0 L 380.0,397.0 L 400.0,399.0"/>
    <path d="M 198.0,553.0 L 259.0,550.0 L 344.0,520.0 L 387.0,516.0"/>
    <path d="M 139.0,715.0 L 195.0,713.0 L 337.0,666.0 L 370.0,659.0 L 394.0,663.0"/>
    <path d="M 236.0,574.0 L 274.0,608.0 L 278.0,738.0 L 265.0,855.0 L 272.0,883.0 L 311.0,869.0 L 398.0,803.0"/>
    <path d="M 560.0,182.0 L 630.0,226.0 L 647.0,255.0"/>
    <path d="M 459.0,311.0 L 468.0,339.0 L 440.0,416.0 L 437.0,445.0"/>
    <path d="M 491.0,356.0 L 503.0,348.0 L 622.0,319.0 L 746.0,296.0 L 785.0,297.0 L 808.0,309.0 L 819.0,326.0 L 757.0,392.0"/>
    <path d="M 525.0,427.0 L 506.0,433.0 L 457.0,511.0 L 408.0,556.0"/>
    <path d="M 499.0,491.0 L 561.0,471.0 L 578.0,472.0 L 589.0,486.0 L 568.0,549.0 L 512.0,641.0 L 447.0,712.0 L 381.0,757.0"/>
    <path d="M 462.0,542.0 L 469.0,539.0 L 495.0,564.0"/>
    <path d="M 402.0,588.0 L 428.0,608.0 L 444.0,633.0"/>
    <path d="M 646.0,448.0 L 671.0,452.0 L 748.0,427.0 L 779.0,440.0 L 787.0,451.0 L 781.0,463.0 L 720.0,529.0"/>
    <path d="M 633.0,502.0 L 676.0,523.0 L 776.0,624.0 L 844.0,669.0 L 911.0,685.0 L 983.0,692.0"/>
    <path d="M 527.0,679.0 L 576.0,682.0 L 677.0,659.0 L 708.0,661.0"/>
    <path d="M 448.0,793.0 L 492.0,798.0 L 746.0,755.0 L 820.0,767.0"/>
    <path d="M 603.0,799.0 L 628.0,822.0 L 629.0,830.0 L 630.0,924.0 L 622.0,993.0 L 605.0,1017.0 L 522.0,987.0 L 507.0,976.0"/>
    <path d="M 476.0,857.0 L 458.0,910.0 L 418.0,984.0"/>
    <path d="M 726.0,860.0 L 820.0,924.0 L 842.0,954.0 L 854.0,987.0"/>
  </g>
</svg>
