<svg xmlns="http://www.w3.org/2000/svg" viewBox="0 0 1024 1024">
  <g style="fill:none;stroke:#000000;stroke-width:50;stroke-linecap:round;stroke-linejoin:round;" transform="scale(1, 1) translate(0, 0)">
    <path d="M 285.0,223.0 L 310.0,246.0 L 323.0,268.0 L 269.0,387.0 L 179.0,537.0 L 118.0,621.0 L 55.0,685.0"/>
    <path d="M 274.0,437.0 L 296.0,423.0 L 373.0,397.0 L 417.0,392.0"/>
    <path d="M 206.0,561.0 L 242.0,563.0 L 332.0,536.0 L 382.0,531.0"/>
    <path d="M 146.0,723.0 L 206.0,720.0 L 288.0,696.0 L 339.0,674.0 L 402.0,665.0"/>
    <path d="M 255.0,580.0 L 285.0,597.0 L 297.0,620.0 L 300.0,756.0 L 289.0,858.0 L 293.0,894.0 L 325.0,884.0 L 426.0,804.0"/>
    <path d="M 536.0,295.0 L 597.0,298.0 L 675.0,282.0 L 754.0,256.0 L 798.0,257.0"/>
    <path d="M 459.0,391.0 L 471.0,437.0 L 443.0,516.0 L 442.0,546.0"/>
    <path d="M 501.0,439.0 L 513.0,430.0 L 623.0,404.0 L 788.0,369.0 L 828.0,367.0 L 854.0,376.0 L 872.0,396.0 L 820.0,467.0"/>
    <path d="M 630.0,316.0 L 657.0,336.0 L 659.0,439.0 L 650.0,645.0"/>
    <path d="M 525.0,496.0 L 562.0,513.0 L 583.0,530.0"/>
    <path d="M 517.0,583.0 L 556.0,601.0 L 576.0,623.0"/>
    <path d="M 718.0,472.0 L 760.0,487.0 L 782.0,503.0"/>
    <path d="M 710.0,565.0 L 761.0,589.0 L 776.0,603.0"/>
    <path d="M 451.0,690.0 L 483.0,720.0 L 493.0,747.0 L 513.0,938.0 L 527.0,986.0"/>
    <path d="M 512.0,707.0 L 521.0,716.0 L 539.0,719.0 L 805.0,671.0 L 824.0,675.0 L 846.0,692.0 L 857.0,707.0 L 856.0,715.0 L 824.0,931.0 L 803.0,972.0 L 803.0,1027.0"/>
    <path d="M 564.0,833.0 L 600.0,831.0 L 712.0,808.0 L 741.0,806.0 L 763.0,813.0"/>
    <path d="M 631.0,727.0 L 653.0,737.0 L 662.0,754.0 L 658.0,895.0 L 642.0,917.0"/>
    <path d="M 546.0,946.0 L 556.0,953.0 L 710.0,931.0 L 757.0,929.0 L 778.0,934.0"/>
  </g>
</svg>
