<svg xmlns="http://www.w3.org/2000/svg" viewBox="0 0 1024 1024">
  <g style="fill:none;stroke:#000000;stroke-width:50;stroke-linecap:round;stroke-linejoin:round;" transform="scale(1, 1) translate(0, 0)">
    <path d="M 250.0,212.0 L 263.0,220.0 L 287.0,255.0 L 252.0,344.0 L 215.0,418.0 L 144.0,529.0 L 82.0,609.0 L 50.0,638.0"/>
    <path d="M 243.0,413.0 L 267.0,400.0 L 343.0,381.0 L 385.0,380.0"/>
    <path d="M 170.0,559.0 L 215.0,560.0 L 314.0,529.0 L 358.0,525.0"/>
    <path d="M 122.0,727.0 L 173.0,724.0 L 295.0,682.0 L 339.0,677.0"/>
    <path d="M 230.0,583.0 L 258.0,599.0 L 263.0,631.0 L 259.0,747.0 L 242.0,859.0 L 246.0,888.0 L 281.0,882.0 L 387.0,814.0"/>
    <path d="M 417.0,371.0 L 483.0,361.0 L 517.0,345.0 L 530.0,348.0 L 553.0,367.0 L 527.0,464.0 L 508.0,478.0"/>
    <path d="M 452.0,510.0 L 466.0,514.0 L 498.0,503.0 L 557.0,502.0"/>
    <path d="M 405.0,496.0 L 419.0,508.0 L 433.0,535.0 L 416.0,646.0 L 446.0,649.0 L 474.0,640.0 L 509.0,641.0 L 534.0,667.0 L 516.0,827.0 L 496.0,898.0 L 478.0,930.0 L 452.0,948.0 L 380.0,894.0"/>
    <path d="M 621.0,356.0 L 642.0,374.0 L 650.0,391.0 L 672.0,523.0"/>
    <path d="M 666.0,356.0 L 684.0,365.0 L 797.0,335.0 L 825.0,348.0 L 837.0,359.0 L 833.0,377.0 L 811.0,446.0 L 793.0,458.0"/>
    <path d="M 687.0,511.0 L 708.0,497.0 L 783.0,483.0 L 839.0,491.0"/>
    <path d="M 585.0,619.0 L 616.0,656.0 L 644.0,791.0"/>
    <path d="M 616.0,617.0 L 641.0,627.0 L 768.0,606.0 L 796.0,595.0 L 841.0,591.0 L 862.0,602.0 L 874.0,617.0 L 855.0,680.0 L 835.0,696.0"/>
    <path d="M 662.0,760.0 L 670.0,751.0 L 821.0,722.0 L 869.0,720.0 L 887.0,728.0"/>
    <path d="M 696.0,519.0 L 737.0,543.0 L 738.0,832.0 L 734.0,847.0 L 724.0,855.0"/>
    <path d="M 574.0,903.0 L 624.0,919.0 L 833.0,848.0 L 836.0,840.0"/>
    <path d="M 828.0,782.0 L 903.0,881.0 L 915.0,910.0 L 916.0,943.0"/>
  </g>
</svg>
