<svg xmlns="http://www.w3.org/2000/svg" viewBox="0 0 1024 1024">
  <g style="fill:none;stroke:#000000;stroke-width:50;stroke-linecap:round;stroke-linejoin:round;" transform="scale(1, 1) translate(0, 0)">
    <path d="M 421.0,227.0 L 451.0,239.0 L 527.0,228.0 L 624.0,198.0 L 681.0,197.0"/>
    <path d="M 345.0,205.0 L 384.0,247.0 L 396.0,322.0 L 401.0,594.0 L 384.0,609.0"/>
    <path d="M 425.0,361.0 L 445.0,369.0 L 481.0,366.0 L 594.0,340.0 L 636.0,340.0"/>
    <path d="M 429.0,476.0 L 438.0,485.0 L 463.0,485.0 L 601.0,455.0 L 644.0,456.0"/>
    <path d="M 135.0,671.0 L 184.0,678.0 L 437.0,627.0 L 731.0,584.0 L 778.0,582.0 L 841.0,597.0"/>
    <path d="M 295.0,678.0 L 333.0,700.0 L 338.0,848.0 L 328.0,938.0 L 330.0,988.0 L 385.0,971.0 L 523.0,870.0"/>
    <path d="M 664.0,647.0 L 690.0,681.0 L 623.0,762.0 L 613.0,761.0"/>
    <path d="M 406.0,655.0 L 451.0,662.0 L 653.0,844.0 L 783.0,932.0 L 967.0,937.0"/>
  </g>
</svg>
