<svg xmlns="http://www.w3.org/2000/svg" viewBox="0 0 1024 1024">
  <g style="fill:none;stroke:#000000;stroke-width:50;stroke-linecap:round;stroke-linejoin:round;" transform="scale(1, 1) translate(0, 0)">
    <path d="M 160.0,253.0 L 170.0,257.0 L 200.0,295.0 L 208.0,395.0 L 204.0,717.0 L 177.0,900.0 L 178.0,966.0"/>
    <path d="M 234.0,275.0 L 248.0,282.0 L 252.0,276.0 L 343.0,247.0 L 363.0,249.0 L 387.0,274.0 L 366.0,472.0 L 356.0,500.0 L 342.0,503.0"/>
    <path d="M 237.0,408.0 L 243.0,397.0 L 260.0,389.0 L 313.0,389.0"/>
    <path d="M 230.0,524.0 L 246.0,506.0 L 324.0,492.0"/>
    <path d="M 564.0,194.0 L 594.0,230.0 L 600.0,252.0 L 598.0,398.0 L 610.0,470.0"/>
    <path d="M 629.0,243.0 L 646.0,227.0 L 685.0,222.0 L 768.0,198.0 L 794.0,203.0 L 824.0,232.0 L 822.0,966.0 L 813.0,996.0 L 799.0,1014.0 L 769.0,1007.0 L 678.0,963.0"/>
    <path d="M 624.0,349.0 L 637.0,337.0 L 681.0,326.0 L 712.0,321.0 L 744.0,326.0"/>
    <path d="M 630.0,448.0 L 648.0,433.0 L 748.0,418.0 L 773.0,419.0 L 784.0,431.0"/>
    <path d="M 346.0,620.0 L 381.0,618.0 L 603.0,566.0 L 643.0,572.0"/>
    <path d="M 472.0,461.0 L 500.0,492.0 L 470.0,585.0 L 433.0,666.0 L 379.0,754.0 L 304.0,843.0 L 250.0,890.0"/>
    <path d="M 523.0,662.0 L 540.0,679.0 L 548.0,698.0 L 513.0,767.0 L 462.0,833.0 L 447.0,877.0 L 492.0,875.0 L 596.0,841.0 L 625.0,841.0"/>
    <path d="M 598.0,774.0 L 655.0,837.0 L 670.0,866.0 L 674.0,890.0"/>
  </g>
</svg>
