<svg xmlns="http://www.w3.org/2000/svg" viewBox="0 0 1024 1024">
  <g style="fill:none;stroke:#000000;stroke-width:50;stroke-linecap:round;stroke-linejoin:round;" transform="scale(1, 1) translate(0, 0)">
    <path d="M 148.0,235.0 L 176.0,263.0 L 190.0,289.0 L 192.0,470.0 L 181.0,728.0 L 171.0,831.0 L 149.0,936.0 L 147.0,1001.0"/>
    <path d="M 219.0,259.0 L 233.0,265.0 L 283.0,245.0 L 342.0,235.0 L 367.0,251.0 L 376.0,264.0 L 353.0,468.0 L 348.0,479.0 L 328.0,471.0"/>
    <path d="M 221.0,399.0 L 228.0,387.0 L 247.0,378.0 L 270.0,373.0 L 305.0,376.0"/>
    <path d="M 209.0,508.0 L 227.0,492.0 L 274.0,479.0 L 298.0,477.0 L 310.0,489.0"/>
    <path d="M 547.0,191.0 L 582.0,226.0 L 589.0,250.0 L 590.0,398.0 L 601.0,470.0"/>
    <path d="M 613.0,213.0 L 629.0,224.0 L 760.0,192.0 L 781.0,199.0 L 812.0,227.0 L 808.0,314.0 L 817.0,775.0 L 814.0,974.0 L 804.0,1004.0 L 790.0,1022.0 L 765.0,1015.0 L 686.0,972.0"/>
    <path d="M 625.0,339.0 L 632.0,327.0 L 697.0,312.0 L 725.0,309.0 L 748.0,315.0"/>
    <path d="M 619.0,460.0 L 633.0,446.0 L 748.0,426.0 L 760.0,425.0 L 771.0,439.0"/>
    <path d="M 360.0,550.0 L 383.0,567.0 L 394.0,591.0 L 390.0,697.0 L 376.0,780.0 L 352.0,839.0 L 319.0,886.0 L 273.0,927.0 L 258.0,933.0"/>
    <path d="M 407.0,556.0 L 434.0,561.0 L 531.0,529.0 L 549.0,533.0 L 573.0,558.0 L 568.0,630.0 L 572.0,886.0 L 566.0,913.0 L 548.0,938.0 L 508.0,920.0 L 465.0,888.0"/>
    <path d="M 420.0,674.0 L 427.0,662.0 L 446.0,653.0 L 503.0,653.0"/>
    <path d="M 399.0,772.0 L 428.0,755.0 L 475.0,750.0 L 507.0,758.0"/>
  </g>
</svg>
