<svg xmlns="http://www.w3.org/2000/svg" viewBox="0 0 1024 1024">
  <g style="fill:none;stroke:#000000;stroke-width:50;stroke-linecap:round;stroke-linejoin:round;" transform="scale(1, 1) translate(0, 0)">
    <path d="M 170.0,284.0 L 208.0,323.0 L 216.0,429.0 L 213.0,743.0 L 204.0,829.0 L 185.0,927.0 L 187.0,990.0"/>
    <path d="M 243.0,308.0 L 255.0,315.0 L 344.0,289.0 L 362.0,291.0 L 388.0,319.0 L 371.0,464.0 L 355.0,532.0"/>
    <path d="M 243.0,445.0 L 263.0,429.0 L 315.0,427.0"/>
    <path d="M 241.0,546.0 L 273.0,531.0 L 315.0,525.0 L 324.0,534.0"/>
    <path d="M 558.0,227.0 L 586.0,258.0 L 594.0,282.0 L 601.0,436.0 L 613.0,488.0"/>
    <path d="M 612.0,245.0 L 631.0,255.0 L 751.0,225.0 L 770.0,231.0 L 800.0,260.0 L 796.0,342.0 L 804.0,768.0 L 801.0,972.0 L 793.0,1002.0 L 780.0,1020.0 L 750.0,1014.0 L 657.0,976.0"/>
    <path d="M 626.0,361.0 L 662.0,342.0 L 695.0,337.0 L 729.0,342.0"/>
    <path d="M 633.0,458.0 L 648.0,448.0 L 751.0,438.0 L 762.0,454.0"/>
    <path d="M 440.0,449.0 L 501.0,482.0 L 517.0,507.0"/>
    <path d="M 400.0,584.0 L 420.0,590.0 L 540.0,550.0 L 563.0,567.0 L 571.0,584.0 L 545.0,706.0 L 537.0,719.0 L 516.0,710.0"/>
    <path d="M 422.0,667.0 L 428.0,656.0 L 455.0,649.0 L 501.0,649.0"/>
    <path d="M 415.0,759.0 L 431.0,740.0 L 451.0,732.0 L 491.0,723.0 L 502.0,735.0"/>
    <path d="M 351.0,584.0 L 389.0,619.0 L 393.0,654.0 L 396.0,783.0 L 388.0,919.0 L 433.0,910.0 L 507.0,862.0"/>
    <path d="M 662.0,756.0 L 633.0,741.0 L 547.0,796.0"/>
    <path d="M 466.0,797.0 L 589.0,842.0 L 664.0,886.0"/>
  </g>
</svg>
