<svg xmlns="http://www.w3.org/2000/svg" viewBox="0 0 1024 1024">
  <g style="fill:none;stroke:#000000;stroke-width:50;stroke-linecap:round;stroke-linejoin:round;" transform="scale(1, 1) translate(0, 0)">
    <path d="M 200.0,304.0 L 229.0,332.0 L 239.0,351.0 L 245.0,448.0 L 245.0,692.0 L 237.0,821.0 L 218.0,942.0 L 219.0,995.0"/>
    <path d="M 268.0,324.0 L 280.0,330.0 L 345.0,313.0 L 390.0,310.0 L 420.0,339.0 L 397.0,514.0 L 389.0,541.0 L 374.0,541.0"/>
    <path d="M 269.0,449.0 L 280.0,440.0 L 304.0,436.0 L 340.0,439.0"/>
    <path d="M 268.0,552.0 L 278.0,540.0 L 349.0,532.0 L 368.0,515.0"/>
    <path d="M 585.0,263.0 L 611.0,290.0 L 620.0,315.0 L 627.0,456.0 L 640.0,520.0"/>
    <path d="M 635.0,276.0 L 661.0,286.0 L 776.0,256.0 L 795.0,263.0 L 823.0,292.0 L 828.0,865.0 L 824.0,980.0 L 815.0,1011.0 L 803.0,1025.0 L 775.0,1018.0 L 698.0,980.0"/>
    <path d="M 653.0,390.0 L 659.0,381.0 L 692.0,375.0 L 733.0,373.0 L 752.0,378.0"/>
    <path d="M 657.0,497.0 L 675.0,487.0 L 779.0,473.0 L 790.0,461.0"/>
    <path d="M 394.0,606.0 L 416.0,620.0 L 448.0,728.0"/>
    <path d="M 438.0,624.0 L 448.0,613.0 L 568.0,589.0 L 593.0,613.0 L 576.0,655.0 L 553.0,670.0"/>
    <path d="M 461.0,712.0 L 473.0,704.0 L 540.0,691.0 L 597.0,695.0"/>
    <path d="M 367.0,800.0 L 387.0,815.0 L 398.0,836.0 L 424.0,940.0"/>
    <path d="M 406.0,800.0 L 426.0,811.0 L 579.0,779.0 L 600.0,782.0 L 621.0,800.0 L 626.0,812.0 L 607.0,860.0 L 587.0,868.0"/>
    <path d="M 439.0,925.0 L 456.0,914.0 L 568.0,898.0 L 611.0,899.0 L 630.0,906.0"/>
  </g>
</svg>
