<svg xmlns="http://www.w3.org/2000/svg" viewBox="0 0 1024 1024">
  <g style="fill:none;stroke:#000000;stroke-width:50;stroke-linecap:round;stroke-linejoin:round;" transform="scale(1, 1) translate(0, 0)">
    <path d="M 198.0,276.0 L 225.0,300.0 L 239.0,324.0 L 245.0,418.0 L 243.0,663.0 L 237.0,758.0 L 217.0,876.0 L 219.0,938.0"/>
    <path d="M 275.0,303.0 L 285.0,310.0 L 350.0,288.0 L 390.0,283.0 L 402.0,288.0 L 420.0,309.0 L 411.0,358.0 L 406.0,460.0 L 396.0,495.0 L 383.0,498.0"/>
    <path d="M 273.0,419.0 L 282.0,407.0 L 293.0,404.0 L 338.0,398.0 L 356.0,403.0"/>
    <path d="M 269.0,512.0 L 280.0,502.0 L 337.0,490.0 L 354.0,489.0 L 365.0,500.0"/>
    <path d="M 580.0,229.0 L 604.0,255.0 L 613.0,278.0 L 614.0,400.0 L 623.0,457.0"/>
    <path d="M 631.0,244.0 L 648.0,254.0 L 771.0,222.0 L 791.0,228.0 L 819.0,256.0 L 827.0,842.0 L 823.0,966.0 L 803.0,1004.0 L 691.0,963.0"/>
    <path d="M 640.0,354.0 L 688.0,335.0 L 734.0,330.0 L 749.0,335.0"/>
    <path d="M 642.0,440.0 L 676.0,426.0 L 764.0,416.0 L 793.0,425.0"/>
    <path d="M 379.0,558.0 L 418.0,585.0 L 436.0,614.0"/>
    <path d="M 559.0,488.0 L 576.0,511.0 L 503.0,603.0"/>
    <path d="M 361.0,649.0 L 388.0,675.0 L 414.0,764.0 L 425.0,767.0"/>
    <path d="M 399.0,648.0 L 411.0,655.0 L 438.0,652.0 L 530.0,627.0 L 559.0,627.0 L 580.0,647.0 L 560.0,704.0 L 543.0,710.0"/>
    <path d="M 434.0,764.0 L 443.0,754.0 L 531.0,737.0 L 585.0,739.0"/>
    <path d="M 431.0,781.0 L 427.0,808.0 L 382.0,862.0 L 335.0,901.0 L 296.0,921.0"/>
    <path d="M 505.0,767.0 L 517.0,771.0 L 526.0,790.0 L 522.0,845.0 L 533.0,887.0 L 552.0,907.0 L 581.0,917.0 L 639.0,919.0 L 663.0,913.0 L 692.0,895.0 L 699.0,874.0 L 698.0,792.0"/>
  </g>
</svg>
