<svg xmlns="http://www.w3.org/2000/svg" viewBox="0 0 1024 1024">
  <g style="fill:none;stroke:#000000;stroke-width:50;stroke-linecap:round;stroke-linejoin:round;" transform="scale(1, 1) translate(0, 0)">
    <path d="M 181.0,283.0 L 219.0,331.0 L 223.0,431.0 L 219.0,712.0 L 213.0,807.0 L 192.0,918.0 L 191.0,983.0"/>
    <path d="M 249.0,306.0 L 261.0,313.0 L 351.0,286.0 L 369.0,289.0 L 391.0,313.0 L 370.0,496.0 L 364.0,513.0 L 351.0,514.0"/>
    <path d="M 250.0,433.0 L 258.0,421.0 L 270.0,417.0 L 314.0,411.0 L 333.0,416.0"/>
    <path d="M 245.0,530.0 L 257.0,518.0 L 277.0,512.0 L 325.0,505.0 L 333.0,515.0"/>
    <path d="M 577.0,226.0 L 598.0,247.0 L 610.0,280.0 L 614.0,418.0 L 625.0,468.0"/>
    <path d="M 633.0,244.0 L 647.0,255.0 L 770.0,228.0 L 787.0,234.0 L 817.0,262.0 L 823.0,988.0 L 803.0,1026.0 L 777.0,1020.0 L 689.0,979.0"/>
    <path d="M 641.0,354.0 L 647.0,344.0 L 682.0,337.0 L 744.0,338.0"/>
    <path d="M 644.0,444.0 L 652.0,433.0 L 710.0,424.0 L 761.0,421.0 L 782.0,428.0"/>
    <path d="M 323.0,582.0 L 363.0,586.0 L 569.0,538.0 L 612.0,531.0 L 645.0,535.0"/>
    <path d="M 463.0,462.0 L 481.0,486.0 L 479.0,494.0 L 448.0,565.0 L 415.0,619.0 L 361.0,689.0 L 268.0,769.0"/>
    <path d="M 546.0,574.0 L 594.0,618.0 L 679.0,677.0 L 784.0,695.0"/>
    <path d="M 389.0,710.0 L 379.0,721.0 L 405.0,851.0"/>
    <path d="M 401.0,720.0 L 418.0,707.0 L 523.0,686.0 L 565.0,680.0 L 594.0,687.0 L 608.0,704.0 L 575.0,818.0 L 579.0,833.0"/>
    <path d="M 429.0,765.0 L 450.0,764.0 L 513.0,743.0 L 541.0,742.0"/>
    <path d="M 419.0,835.0 L 556.0,800.0"/>
    <path d="M 460.0,630.0 L 481.0,660.0 L 474.0,845.0 L 480.0,880.0 L 498.0,917.0 L 536.0,934.0 L 576.0,939.0 L 645.0,928.0 L 683.0,902.0 L 689.0,827.0"/>
  </g>
</svg>
