<svg xmlns="http://www.w3.org/2000/svg" viewBox="0 0 1024 1024">
  <g style="fill:none;stroke:#000000;stroke-width:50;stroke-linecap:round;stroke-linejoin:round;" transform="scale(1, 1) translate(0, 0)">
    <path d="M 175.0,297.0 L 210.0,338.0 L 216.0,397.0 L 216.0,553.0 L 205.0,782.0 L 181.0,914.0 L 180.0,976.0"/>
    <path d="M 239.0,317.0 L 250.0,321.0 L 315.0,293.0 L 341.0,288.0 L 369.0,311.0 L 350.0,491.0 L 344.0,507.0 L 330.0,508.0"/>
    <path d="M 244.0,427.0 L 251.0,415.0 L 264.0,411.0 L 307.0,408.0"/>
    <path d="M 233.0,524.0 L 246.0,513.0 L 289.0,499.0 L 305.0,500.0 L 320.0,491.0"/>
    <path d="M 562.0,247.0 L 583.0,268.0 L 595.0,293.0 L 606.0,445.0 L 614.0,473.0"/>
    <path d="M 608.0,256.0 L 617.0,264.0 L 638.0,267.0 L 763.0,237.0 L 790.0,253.0 L 804.0,270.0 L 812.0,991.0 L 805.0,1013.0 L 789.0,1030.0 L 752.0,1016.0 L 693.0,980.0"/>
    <path d="M 629.0,368.0 L 635.0,357.0 L 652.0,352.0 L 710.0,343.0 L 728.0,347.0"/>
    <path d="M 634.0,457.0 L 652.0,446.0 L 732.0,433.0 L 758.0,434.0 L 778.0,445.0"/>
    <path d="M 372.0,516.0 L 390.0,533.0 L 396.0,550.0 L 396.0,733.0 L 401.0,760.0"/>
    <path d="M 415.0,524.0 L 434.0,531.0 L 530.0,504.0 L 550.0,514.0 L 565.0,532.0 L 560.0,628.0 L 565.0,700.0 L 558.0,757.0"/>
    <path d="M 420.0,608.0 L 425.0,599.0 L 453.0,593.0 L 505.0,596.0"/>
    <path d="M 422.0,680.0 L 428.0,669.0 L 457.0,662.0 L 505.0,663.0"/>
    <path d="M 421.0,744.0 L 430.0,734.0 L 517.0,723.0 L 532.0,715.0"/>
    <path d="M 279.0,842.0 L 313.0,848.0 L 602.0,803.0 L 639.0,803.0 L 683.0,814.0"/>
    <path d="M 434.0,750.0 L 456.0,780.0 L 417.0,884.0 L 362.0,938.0 L 298.0,967.0"/>
    <path d="M 515.0,869.0 L 591.0,923.0 L 611.0,944.0 L 624.0,971.0"/>
    <path d="M 641.0,665.0 L 680.0,684.0 L 712.0,718.0"/>
  </g>
</svg>
