<svg xmlns="http://www.w3.org/2000/svg" viewBox="0 0 1024 1024">
  <g style="fill:none;stroke:#000000;stroke-width:50;stroke-linecap:round;stroke-linejoin:round;" transform="scale(1, 1) translate(0, 0)">
    <path d="M 164.0,296.0 L 181.0,310.0 L 203.0,344.0 L 210.0,497.0 L 205.0,766.0 L 201.0,831.0 L 179.0,947.0 L 179.0,1011.0"/>
    <path d="M 228.0,315.0 L 247.0,321.0 L 314.0,297.0 L 354.0,291.0 L 384.0,316.0 L 373.0,385.0 L 367.0,500.0 L 360.0,528.0 L 346.0,529.0"/>
    <path d="M 229.0,439.0 L 267.0,422.0 L 314.0,424.0"/>
    <path d="M 232.0,539.0 L 298.0,518.0 L 333.0,514.0"/>
    <path d="M 568.0,229.0 L 589.0,251.0 L 601.0,276.0 L 603.0,405.0 L 611.0,461.0"/>
    <path d="M 614.0,240.0 L 640.0,250.0 L 759.0,218.0 L 779.0,223.0 L 808.0,252.0 L 818.0,843.0 L 815.0,983.0 L 796.0,1022.0 L 683.0,983.0"/>
    <path d="M 632.0,360.0 L 638.0,349.0 L 656.0,344.0 L 714.0,335.0 L 732.0,339.0"/>
    <path d="M 631.0,449.0 L 648.0,439.0 L 748.0,422.0 L 760.0,421.0 L 774.0,436.0"/>
    <path d="M 351.0,590.0 L 401.0,589.0 L 542.0,548.0 L 569.0,547.0"/>
    <path d="M 291.0,674.0 L 313.0,694.0 L 336.0,784.0"/>
    <path d="M 336.0,686.0 L 354.0,674.0 L 411.0,660.0 L 438.0,663.0 L 450.0,675.0 L 448.0,687.0 L 439.0,712.0 L 422.0,725.0"/>
    <path d="M 349.0,770.0 L 408.0,747.0 L 462.0,748.0"/>
    <path d="M 280.0,860.0 L 317.0,867.0 L 430.0,811.0 L 464.0,800.0 L 472.0,789.0 L 489.0,786.0"/>
    <path d="M 453.0,448.0 L 473.0,458.0 L 489.0,476.0 L 497.0,524.0 L 545.0,672.0 L 585.0,759.0 L 635.0,834.0 L 678.0,874.0 L 707.0,883.0 L 722.0,846.0 L 734.0,779.0"/>
    <path d="M 644.0,641.0 L 659.0,671.0 L 629.0,731.0 L 592.0,783.0 L 524.0,844.0 L 448.0,883.0"/>
    <path d="M 597.0,507.0 L 646.0,541.0 L 652.0,552.0"/>
  </g>
</svg>
