<svg xmlns="http://www.w3.org/2000/svg" viewBox="0 0 1024 1024">
  <g style="fill:none;stroke:#000000;stroke-width:50;stroke-linecap:round;stroke-linejoin:round;" transform="scale(1, 1) translate(0, 0)">
    <path d="M 176.0,283.0 L 193.0,297.0 L 214.0,332.0 L 218.0,417.0 L 210.0,743.0 L 200.0,849.0 L 180.0,946.0 L 179.0,1007.0"/>
    <path d="M 245.0,305.0 L 257.0,313.0 L 293.0,298.0 L 366.0,283.0 L 376.0,287.0 L 394.0,310.0 L 364.0,494.0 L 358.0,509.0 L 342.0,511.0"/>
    <path d="M 244.0,419.0 L 255.0,406.0 L 271.0,402.0 L 293.0,397.0 L 322.0,400.0"/>
    <path d="M 238.0,518.0 L 250.0,505.0 L 330.0,495.0"/>
    <path d="M 578.0,234.0 L 603.0,261.0 L 612.0,281.0 L 618.0,409.0 L 630.0,482.0"/>
    <path d="M 628.0,247.0 L 644.0,258.0 L 766.0,227.0 L 781.0,232.0 L 807.0,257.0 L 818.0,865.0 L 813.0,1008.0 L 796.0,1039.0 L 767.0,1032.0 L 681.0,991.0"/>
    <path d="M 643.0,357.0 L 649.0,346.0 L 685.0,340.0 L 727.0,337.0 L 745.0,342.0"/>
    <path d="M 650.0,456.0 L 659.0,447.0 L 744.0,437.0 L 766.0,438.0 L 779.0,447.0"/>
    <path d="M 376.0,574.0 L 447.0,567.0 L 578.0,538.0 L 617.0,541.0"/>
    <path d="M 333.0,652.0 L 349.0,665.0 L 360.0,685.0 L 389.0,804.0"/>
    <path d="M 366.0,652.0 L 385.0,661.0 L 580.0,624.0 L 636.0,627.0 L 656.0,650.0 L 614.0,770.0"/>
    <path d="M 438.0,585.0 L 458.0,602.0 L 453.0,671.0 L 435.0,717.0 L 421.0,735.0"/>
    <path d="M 506.0,572.0 L 524.0,584.0 L 516.0,661.0 L 528.0,702.0 L 546.0,708.0 L 598.0,699.0"/>
    <path d="M 404.0,789.0 L 419.0,780.0 L 555.0,760.0 L 584.0,759.0 L 593.0,769.0"/>
    <path d="M 397.0,865.0 L 451.0,869.0 L 582.0,843.0 L 608.0,844.0"/>
    <path d="M 467.0,790.0 L 490.0,815.0 L 489.0,904.0 L 476.0,924.0"/>
    <path d="M 315.0,961.0 L 361.0,962.0 L 619.0,929.0 L 694.0,941.0"/>
  </g>
</svg>
