<svg xmlns="http://www.w3.org/2000/svg" viewBox="0 0 1024 1024">
  <g style="fill:none;stroke:#000000;stroke-width:50;stroke-linecap:round;stroke-linejoin:round;" transform="scale(1, 1) translate(0, 0)">
    <path d="M 169.0,268.0 L 188.0,284.0 L 210.0,322.0 L 214.0,413.0 L 206.0,727.0 L 199.0,811.0 L 176.0,929.0 L 175.0,994.0"/>
    <path d="M 239.0,289.0 L 254.0,296.0 L 319.0,273.0 L 361.0,266.0 L 389.0,295.0 L 374.0,370.0 L 366.0,460.0 L 354.0,492.0 L 339.0,494.0"/>
    <path d="M 245.0,404.0 L 255.0,388.0 L 266.0,385.0 L 317.0,385.0"/>
    <path d="M 237.0,505.0 L 251.0,488.0 L 323.0,479.0"/>
    <path d="M 575.0,209.0 L 598.0,235.0 L 602.0,250.0 L 618.0,452.0"/>
    <path d="M 631.0,244.0 L 643.0,231.0 L 760.0,203.0 L 787.0,211.0 L 816.0,238.0 L 821.0,953.0 L 811.0,985.0 L 799.0,1001.0 L 773.0,996.0 L 686.0,955.0"/>
    <path d="M 640.0,338.0 L 647.0,327.0 L 676.0,321.0 L 723.0,318.0 L 744.0,323.0"/>
    <path d="M 638.0,430.0 L 655.0,420.0 L 744.0,405.0 L 763.0,405.0 L 778.0,417.0"/>
    <path d="M 452.0,396.0 L 480.0,427.0 L 467.0,539.0 L 460.0,557.0 L 450.0,564.0"/>
    <path d="M 395.0,497.0 L 436.0,502.0 L 557.0,478.0 L 577.0,497.0 L 569.0,527.0 L 547.0,551.0"/>
    <path d="M 314.0,601.0 L 344.0,604.0 L 487.0,577.0 L 642.0,557.0 L 679.0,559.0 L 711.0,569.0"/>
    <path d="M 352.0,640.0 L 380.0,665.0 L 404.0,752.0"/>
    <path d="M 398.0,645.0 L 409.0,651.0 L 435.0,650.0 L 517.0,629.0 L 547.0,628.0 L 566.0,641.0 L 574.0,655.0 L 568.0,668.0 L 544.0,684.0"/>
    <path d="M 418.0,736.0 L 449.0,722.0 L 535.0,707.0 L 589.0,713.0"/>
    <path d="M 384.0,796.0 L 407.0,802.0 L 446.0,801.0 L 555.0,780.0 L 618.0,776.0"/>
    <path d="M 331.0,816.0 L 353.0,839.0 L 342.0,904.0 L 347.0,906.0 L 615.0,862.0 L 666.0,864.0 L 697.0,872.0"/>
    <path d="M 464.0,740.0 L 495.0,760.0 L 487.0,1056.0"/>
  </g>
</svg>
