<svg xmlns="http://www.w3.org/2000/svg" viewBox="0 0 1024 1024">
  <g style="fill:none;stroke:#000000;stroke-width:50;stroke-linecap:round;stroke-linejoin:round;" transform="scale(1, 1) translate(0, 0)">
    <path d="M 171.0,272.0 L 199.0,301.0 L 210.0,322.0 L 214.0,416.0 L 211.0,682.0 L 202.0,813.0 L 179.0,931.0 L 179.0,994.0"/>
    <path d="M 239.0,292.0 L 252.0,300.0 L 358.0,274.0 L 382.0,279.0 L 400.0,300.0 L 380.0,475.0 L 372.0,497.0 L 359.0,498.0"/>
    <path d="M 244.0,417.0 L 251.0,405.0 L 264.0,401.0 L 314.0,394.0 L 332.0,399.0"/>
    <path d="M 238.0,515.0 L 247.0,505.0 L 325.0,491.0 L 344.0,499.0"/>
    <path d="M 584.0,234.0 L 606.0,259.0 L 617.0,284.0 L 622.0,432.0 L 631.0,477.0"/>
    <path d="M 634.0,247.0 L 643.0,256.0 L 663.0,257.0 L 789.0,226.0 L 807.0,232.0 L 836.0,260.0 L 834.0,471.0 L 843.0,805.0 L 838.0,1000.0 L 819.0,1034.0 L 789.0,1026.0 L 710.0,988.0"/>
    <path d="M 648.0,371.0 L 658.0,362.0 L 700.0,352.0 L 731.0,350.0 L 763.0,357.0"/>
    <path d="M 654.0,462.0 L 669.0,452.0 L 776.0,439.0 L 792.0,440.0 L 800.0,450.0"/>
    <path d="M 404.0,554.0 L 455.0,560.0 L 554.0,536.0 L 607.0,534.0"/>
    <path d="M 316.0,633.0 L 344.0,661.0 L 380.0,792.0"/>
    <path d="M 358.0,636.0 L 373.0,643.0 L 469.0,623.0 L 629.0,602.0 L 668.0,608.0 L 689.0,637.0 L 630.0,774.0"/>
    <path d="M 412.0,680.0 L 440.0,707.0 L 446.0,722.0"/>
    <path d="M 584.0,652.0 L 591.0,666.0 L 588.0,672.0 L 546.0,716.0"/>
    <path d="M 393.0,784.0 L 615.0,745.0"/>
    <path d="M 469.0,444.0 L 504.0,477.0 L 508.0,502.0 L 507.0,838.0 L 496.0,974.0 L 499.0,1044.0"/>
    <path d="M 483.0,788.0 L 386.0,904.0 L 324.0,950.0 L 264.0,981.0"/>
    <path d="M 566.0,825.0 L 647.0,883.0 L 673.0,913.0 L 681.0,934.0"/>
  </g>
</svg>
