<svg xmlns="http://www.w3.org/2000/svg" viewBox="0 0 1024 1024">
  <g style="fill:none;stroke:#000000;stroke-width:50;stroke-linecap:round;stroke-linejoin:round;" transform="scale(1, 1) translate(0, 0)">
    <path d="M 160.0,271.0 L 190.0,300.0 L 198.0,318.0 L 203.0,475.0 L 188.0,820.0 L 164.0,942.0 L 163.0,1003.0"/>
    <path d="M 233.0,298.0 L 240.0,303.0 L 308.0,281.0 L 335.0,279.0 L 363.0,305.0 L 350.0,367.0 L 339.0,480.0 L 333.0,493.0 L 316.0,495.0"/>
    <path d="M 223.0,410.0 L 236.0,399.0 L 265.0,393.0 L 294.0,396.0"/>
    <path d="M 222.0,502.0 L 234.0,491.0 L 309.0,478.0"/>
    <path d="M 562.0,216.0 L 585.0,244.0 L 592.0,266.0 L 591.0,359.0 L 599.0,433.0"/>
    <path d="M 611.0,232.0 L 626.0,243.0 L 752.0,212.0 L 771.0,219.0 L 800.0,247.0 L 800.0,913.0 L 795.0,1012.0 L 776.0,1047.0 L 747.0,1041.0 L 658.0,999.0"/>
    <path d="M 620.0,341.0 L 627.0,329.0 L 657.0,322.0 L 708.0,323.0"/>
    <path d="M 618.0,421.0 L 636.0,411.0 L 733.0,393.0 L 756.0,394.0 L 761.0,403.0"/>
    <path d="M 395.0,521.0 L 446.0,523.0 L 536.0,497.0 L 569.0,497.0"/>
    <path d="M 446.0,406.0 L 476.0,434.0 L 474.0,557.0 L 464.0,578.0"/>
    <path d="M 311.0,622.0 L 339.0,623.0 L 499.0,588.0 L 605.0,573.0 L 668.0,583.0"/>
    <path d="M 462.0,631.0 L 440.0,637.0 L 405.0,691.0 L 401.0,712.0 L 523.0,691.0 L 528.0,685.0 L 543.0,689.0 L 553.0,678.0 L 563.0,685.0"/>
    <path d="M 556.0,638.0 L 589.0,675.0 L 601.0,705.0"/>
    <path d="M 307.0,795.0 L 327.0,812.0 L 334.0,828.0 L 348.0,904.0 L 357.0,912.0"/>
    <path d="M 349.0,798.0 L 361.0,807.0 L 555.0,768.0 L 580.0,773.0 L 602.0,792.0 L 580.0,867.0 L 560.0,885.0"/>
    <path d="M 404.0,814.0 L 413.0,823.0 L 418.0,867.0 L 431.0,905.0"/>
    <path d="M 485.0,800.0 L 504.0,816.0 L 485.0,897.0"/>
    <path d="M 232.0,942.0 L 266.0,949.0 L 419.0,925.0 L 627.0,902.0 L 663.0,903.0 L 713.0,916.0"/>
  </g>
</svg>
