<svg xmlns="http://www.w3.org/2000/svg" viewBox="0 0 1024 1024">
  <g style="fill:none;stroke:#000000;stroke-width:50;stroke-linecap:round;stroke-linejoin:round;" transform="scale(1, 1) translate(0, 0)">
    <path d="M 176.0,262.0 L 211.0,300.0 L 218.0,370.0 L 209.0,755.0 L 201.0,830.0 L 181.0,925.0 L 180.0,988.0"/>
    <path d="M 239.0,280.0 L 252.0,285.0 L 345.0,264.0 L 372.0,287.0 L 359.0,377.0 L 354.0,468.0 L 348.0,486.0 L 333.0,489.0"/>
    <path d="M 242.0,408.0 L 266.0,388.0 L 306.0,388.0"/>
    <path d="M 239.0,496.0 L 258.0,483.0 L 321.0,477.0"/>
    <path d="M 577.0,214.0 L 603.0,242.0 L 610.0,262.0 L 612.0,364.0 L 625.0,448.0"/>
    <path d="M 629.0,228.0 L 644.0,238.0 L 759.0,209.0 L 790.0,225.0 L 804.0,242.0 L 812.0,967.0 L 791.0,1008.0 L 765.0,1001.0 L 690.0,960.0"/>
    <path d="M 640.0,343.0 L 648.0,331.0 L 677.0,323.0 L 710.0,319.0 L 729.0,324.0"/>
    <path d="M 641.0,423.0 L 662.0,412.0 L 742.0,395.0 L 764.0,395.0 L 771.0,404.0"/>
    <path d="M 374.0,510.0 L 386.0,539.0 L 324.0,627.0 L 321.0,644.0 L 346.0,650.0 L 390.0,643.0 L 397.0,635.0"/>
    <path d="M 444.0,572.0 L 452.0,597.0 L 400.0,661.0 L 363.0,695.0 L 360.0,705.0 L 352.0,707.0 L 343.0,734.0 L 362.0,736.0 L 399.0,720.0 L 440.0,712.0"/>
    <path d="M 445.0,676.0 L 473.0,737.0"/>
    <path d="M 566.0,484.0 L 580.0,512.0 L 535.0,582.0 L 529.0,608.0 L 557.0,615.0 L 593.0,610.0 L 600.0,603.0"/>
    <path d="M 645.0,536.0 L 654.0,566.0 L 566.0,665.0 L 557.0,680.0 L 556.0,697.0 L 574.0,702.0 L 666.0,683.0"/>
    <path d="M 663.0,639.0 L 703.0,706.0"/>
    <path d="M 325.0,796.0 L 342.0,828.0 L 331.0,888.0 L 373.0,883.0 L 421.0,862.0"/>
    <path d="M 428.0,778.0 L 451.0,802.0 L 451.0,811.0 L 444.0,868.0 L 427.0,915.0 L 399.0,959.0 L 363.0,991.0 L 334.0,1008.0 L 299.0,1018.0"/>
    <path d="M 548.0,767.0 L 561.0,781.0 L 567.0,804.0 L 560.0,969.0 L 568.0,1048.0"/>
    <path d="M 661.0,736.0 L 678.0,761.0 L 671.0,796.0 L 658.0,807.0"/>
    <path d="M 586.0,859.0 L 599.0,845.0 L 637.0,838.0 L 671.0,835.0 L 695.0,840.0"/>
  </g>
</svg>
