<svg xmlns="http://www.w3.org/2000/svg" viewBox="0 0 1024 1024">
  <g style="fill:none;stroke:#000000;stroke-width:50;stroke-linecap:round;stroke-linejoin:round;" transform="scale(1, 1) translate(0, 0)">
    <path d="M 308.0,247.0 L 379.0,314.0 L 398.0,343.0"/>
    <path d="M 182.0,331.0 L 222.0,377.0 L 225.0,446.0 L 221.0,706.0 L 209.0,844.0 L 190.0,952.0 L 191.0,990.0"/>
    <path d="M 501.0,279.0 L 539.0,288.0 L 577.0,285.0 L 664.0,265.0 L 754.0,254.0 L 784.0,265.0 L 807.0,290.0 L 816.0,782.0 L 812.0,948.0 L 792.0,996.0 L 745.0,983.0 L 650.0,937.0"/>
    <path d="M 382.0,526.0 L 425.0,533.0 L 458.0,531.0 L 583.0,506.0 L 627.0,508.0"/>
    <path d="M 370.0,644.0 L 428.0,652.0 L 592.0,629.0 L 625.0,631.0"/>
    <path d="M 297.0,781.0 L 343.0,789.0 L 471.0,770.0 L 650.0,754.0 L 719.0,771.0"/>
  </g>
</svg>
