<svg xmlns="http://www.w3.org/2000/svg" viewBox="0 0 1024 1024">
  <g style="fill:none;stroke:#000000;stroke-width:50;stroke-linecap:round;stroke-linejoin:round;" transform="scale(1, 1) translate(0, 0)">
    <path d="M 308.0,239.0 L 379.0,306.0 L 398.0,335.0"/>
    <path d="M 182.0,323.0 L 222.0,369.0 L 225.0,438.0 L 221.0,698.0 L 209.0,836.0 L 190.0,944.0 L 191.0,982.0"/>
    <path d="M 509.0,279.0 L 542.0,286.0 L 589.0,283.0 L 744.0,255.0 L 776.0,261.0 L 808.0,293.0 L 804.0,354.0 L 812.0,672.0 L 809.0,930.0 L 788.0,983.0 L 740.0,973.0 L 654.0,937.0"/>
    <path d="M 441.0,394.0 L 520.0,450.0 L 535.0,484.0"/>
    <path d="M 331.0,574.0 L 372.0,581.0 L 615.0,536.0 L 655.0,534.0 L 679.0,540.0"/>
    <path d="M 543.0,578.0 L 565.0,600.0 L 566.0,610.0 L 523.0,696.0 L 491.0,742.0 L 449.0,779.0 L 402.0,809.0 L 357.0,827.0 L 304.0,838.0"/>
    <path d="M 396.0,660.0 L 576.0,768.0 L 637.0,816.0 L 658.0,850.0"/>
  </g>
</svg>
