<svg xmlns="http://www.w3.org/2000/svg" viewBox="0 0 1024 1024">
  <g style="fill:none;stroke:#000000;stroke-width:50;stroke-linecap:round;stroke-linejoin:round;" transform="scale(1, 1) translate(0, 0)">
    <path d="M 289.0,251.0 L 354.0,304.0 L 376.0,336.0"/>
    <path d="M 189.0,328.0 L 231.0,376.0 L 233.0,441.0 L 224.0,741.0 L 218.0,811.0 L 200.0,905.0 L 199.0,974.0"/>
    <path d="M 480.0,286.0 L 512.0,293.0 L 546.0,290.0 L 654.0,265.0 L 742.0,256.0 L 771.0,266.0 L 795.0,292.0 L 801.0,930.0 L 779.0,983.0 L 721.0,967.0 L 638.0,925.0"/>
    <path d="M 371.0,491.0 L 392.0,511.0 L 399.0,587.0 L 384.0,793.0"/>
    <path d="M 423.0,517.0 L 432.0,507.0 L 452.0,501.0 L 464.0,503.0 L 474.0,496.0 L 582.0,472.0 L 599.0,476.0 L 622.0,497.0 L 628.0,699.0 L 624.0,739.0 L 613.0,764.0 L 617.0,816.0"/>
    <path d="M 423.0,638.0 L 432.0,628.0 L 495.0,614.0 L 544.0,617.0"/>
    <path d="M 415.0,757.0 L 427.0,747.0 L 450.0,742.0 L 562.0,727.0 L 583.0,730.0"/>
  </g>
</svg>
