<svg xmlns="http://www.w3.org/2000/svg" viewBox="0 0 1024 1024">
  <g style="fill:none;stroke:#000000;stroke-width:50;stroke-linecap:round;stroke-linejoin:round;" transform="scale(1, 1) translate(0, 0)">
    <path d="M 308.0,239.0 L 379.0,306.0 L 398.0,335.0"/>
    <path d="M 182.0,323.0 L 222.0,369.0 L 225.0,438.0 L 221.0,698.0 L 209.0,836.0 L 190.0,944.0 L 191.0,982.0"/>
    <path d="M 513.0,279.0 L 544.0,286.0 L 585.0,283.0 L 664.0,265.0 L 742.0,256.0 L 776.0,262.0 L 808.0,293.0 L 815.0,744.0 L 812.0,946.0 L 792.0,999.0 L 738.0,986.0 L 670.0,957.0"/>
    <path d="M 365.0,507.0 L 386.0,513.0 L 426.0,512.0 L 578.0,480.0 L 624.0,480.0"/>
    <path d="M 365.0,609.0 L 424.0,613.0 L 567.0,580.0 L 616.0,579.0"/>
    <path d="M 312.0,731.0 L 356.0,735.0 L 443.0,708.0 L 611.0,675.0 L 651.0,674.0 L 667.0,683.0 L 687.0,711.0 L 658.0,817.0 L 641.0,837.0 L 577.0,799.0"/>
    <path d="M 459.0,383.0 L 487.0,405.0 L 497.0,421.0 L 491.0,954.0"/>
  </g>
</svg>
