<svg xmlns="http://www.w3.org/2000/svg" viewBox="0 0 1024 1024">
  <g style="fill:none;stroke:#000000;stroke-width:50;stroke-linecap:round;stroke-linejoin:round;" transform="scale(1, 1) translate(0, 0)">
    <path d="M 329.0,265.0 L 400.0,314.0 L 420.0,344.0"/>
    <path d="M 191.0,336.0 L 230.0,381.0 L 234.0,452.0 L 231.0,696.0 L 222.0,814.0 L 205.0,896.0 L 203.0,974.0"/>
    <path d="M 529.0,295.0 L 571.0,302.0 L 733.0,267.0 L 767.0,265.0 L 799.0,273.0 L 824.0,299.0 L 835.0,901.0 L 825.0,964.0 L 813.0,989.0 L 797.0,988.0 L 658.0,945.0"/>
    <path d="M 336.0,487.0 L 361.0,510.0 L 367.0,527.0 L 404.0,723.0"/>
    <path d="M 391.0,515.0 L 401.0,500.0 L 420.0,494.0 L 533.0,472.0 L 601.0,461.0 L 653.0,468.0 L 675.0,495.0 L 636.0,638.0 L 618.0,683.0 L 619.0,704.0"/>
    <path d="M 436.0,604.0 L 544.0,580.0 L 585.0,583.0"/>
    <path d="M 421.0,704.0 L 438.0,696.0 L 588.0,668.0"/>
    <path d="M 476.0,502.0 L 507.0,519.0 L 512.0,528.0 L 503.0,968.0"/>
  </g>
</svg>
