<svg xmlns="http://www.w3.org/2000/svg" viewBox="0 0 1024 1024">
  <g style="fill:none;stroke:#000000;stroke-width:50;stroke-linecap:round;stroke-linejoin:round;" transform="scale(1, 1) translate(0, 0)">
    <path d="M 310.0,252.0 L 377.0,307.0 L 396.0,335.0"/>
    <path d="M 182.0,323.0 L 222.0,369.0 L 225.0,438.0 L 221.0,698.0 L 209.0,836.0 L 190.0,944.0 L 191.0,982.0"/>
    <path d="M 517.0,287.0 L 537.0,294.0 L 575.0,293.0 L 699.0,268.0 L 741.0,265.0 L 784.0,273.0 L 808.0,298.0 L 817.0,857.0 L 812.0,960.0 L 791.0,1007.0 L 752.0,996.0 L 674.0,954.0"/>
    <path d="M 377.0,503.0 L 448.0,506.0 L 562.0,479.0 L 604.0,480.0"/>
    <path d="M 464.0,376.0 L 500.0,406.0 L 495.0,559.0 L 480.0,582.0"/>
    <path d="M 333.0,625.0 L 364.0,626.0 L 586.0,587.0 L 635.0,589.0 L 662.0,597.0"/>
    <path d="M 365.0,731.0 L 400.0,739.0 L 427.0,738.0 L 552.0,710.0 L 616.0,708.0"/>
    <path d="M 466.0,626.0 L 489.0,644.0 L 498.0,661.0 L 498.0,792.0 L 482.0,815.0"/>
    <path d="M 296.0,857.0 L 333.0,864.0 L 631.0,820.0 L 664.0,820.0 L 718.0,833.0"/>
  </g>
</svg>
