<svg xmlns="http://www.w3.org/2000/svg" viewBox="0 0 1024 1024">
  <g style="fill:none;stroke:#000000;stroke-width:50;stroke-linecap:round;stroke-linejoin:round;" transform="scale(1, 1) translate(0, 0)">
    <path d="M 301.0,253.0 L 374.0,307.0 L 393.0,334.0"/>
    <path d="M 182.0,323.0 L 222.0,369.0 L 225.0,438.0 L 221.0,698.0 L 209.0,836.0 L 190.0,944.0 L 191.0,982.0"/>
    <path d="M 493.0,287.0 L 536.0,295.0 L 690.0,266.0 L 749.0,261.0 L 782.0,273.0 L 804.0,297.0 L 814.0,769.0 L 815.0,905.0 L 809.0,957.0 L 792.0,996.0 L 751.0,989.0 L 666.0,957.0"/>
    <path d="M 360.0,459.0 L 391.0,491.0 L 416.0,610.0"/>
    <path d="M 414.0,463.0 L 423.0,471.0 L 433.0,470.0 L 536.0,444.0 L 575.0,443.0 L 597.0,467.0 L 595.0,478.0 L 578.0,521.0 L 552.0,538.0"/>
    <path d="M 433.0,591.0 L 449.0,582.0 L 542.0,562.0 L 603.0,566.0"/>
    <path d="M 338.0,693.0 L 366.0,717.0 L 372.0,733.0 L 404.0,893.0"/>
    <path d="M 399.0,718.0 L 423.0,705.0 L 590.0,675.0 L 611.0,678.0 L 642.0,709.0 L 621.0,776.0 L 598.0,785.0"/>
    <path d="M 421.0,833.0 L 431.0,843.0 L 444.0,842.0 L 588.0,819.0 L 645.0,828.0"/>
  </g>
</svg>
