<svg xmlns="http://www.w3.org/2000/svg" viewBox="0 0 1024 1024">
  <g style="fill:none;stroke:#000000;stroke-width:50;stroke-linecap:round;stroke-linejoin:round;" transform="scale(1, 1) translate(0, 0)">
    <path d="M 308.0,239.0 L 379.0,306.0 L 398.0,335.0"/>
    <path d="M 182.0,323.0 L 222.0,369.0 L 225.0,438.0 L 221.0,698.0 L 209.0,836.0 L 190.0,944.0 L 191.0,982.0"/>
    <path d="M 513.0,295.0 L 533.0,302.0 L 565.0,302.0 L 665.0,279.0 L 750.0,267.0 L 780.0,279.0 L 804.0,308.0 L 817.0,822.0 L 815.0,943.0 L 796.0,995.0 L 767.0,992.0 L 674.0,961.0"/>
    <path d="M 444.0,397.0 L 510.0,442.0 L 525.0,471.0"/>
    <path d="M 299.0,553.0 L 350.0,560.0 L 626.0,507.0 L 678.0,512.0"/>
    <path d="M 371.0,624.0 L 390.0,639.0 L 402.0,662.0 L 388.0,765.0 L 374.0,808.0 L 350.0,850.0 L 320.0,880.0 L 282.0,901.0"/>
    <path d="M 434.0,654.0 L 441.0,644.0 L 515.0,618.0 L 538.0,616.0 L 559.0,631.0 L 540.0,699.0 L 538.0,802.0 L 558.0,848.0 L 574.0,862.0 L 595.0,869.0 L 659.0,872.0 L 685.0,867.0 L 717.0,850.0 L 719.0,732.0"/>
  </g>
</svg>
