<svg xmlns="http://www.w3.org/2000/svg" viewBox="0 0 1024 1024">
  <g style="fill:none;stroke:#000000;stroke-width:50;stroke-linecap:round;stroke-linejoin:round;" transform="scale(1, 1) translate(0, 0)">
    <path d="M 310.0,260.0 L 372.0,309.0 L 391.0,339.0"/>
    <path d="M 182.0,323.0 L 222.0,369.0 L 225.0,438.0 L 221.0,698.0 L 209.0,836.0 L 190.0,944.0 L 191.0,982.0"/>
    <path d="M 517.0,287.0 L 537.0,294.0 L 575.0,293.0 L 699.0,268.0 L 741.0,265.0 L 784.0,273.0 L 808.0,298.0 L 817.0,857.0 L 812.0,960.0 L 791.0,1007.0 L 752.0,996.0 L 674.0,954.0"/>
    <path d="M 324.0,546.0 L 345.0,563.0 L 354.0,581.0 L 377.0,705.0"/>
    <path d="M 367.0,545.0 L 387.0,554.0 L 467.0,542.0 L 597.0,509.0 L 622.0,511.0 L 644.0,529.0 L 650.0,542.0 L 630.0,600.0 L 605.0,613.0"/>
    <path d="M 395.0,692.0 L 413.0,676.0 L 563.0,651.0 L 630.0,643.0 L 666.0,651.0"/>
    <path d="M 465.0,403.0 L 485.0,416.0 L 506.0,443.0 L 500.0,725.0 L 496.0,762.0 L 483.0,777.0"/>
    <path d="M 312.0,821.0 L 360.0,839.0 L 595.0,772.0 L 612.0,778.0"/>
    <path d="M 602.0,711.0 L 659.0,782.0 L 672.0,827.0"/>
  </g>
</svg>
