<svg xmlns="http://www.w3.org/2000/svg" viewBox="0 0 1024 1024">
  <g style="fill:none;stroke:#000000;stroke-width:50;stroke-linecap:round;stroke-linejoin:round;" transform="scale(1, 1) translate(0, 0)">
    <path d="M 287.0,235.0 L 362.0,286.0 L 384.0,312.0"/>
    <path d="M 176.0,335.0 L 195.0,351.0 L 218.0,384.0 L 219.0,416.0 L 209.0,728.0 L 198.0,842.0 L 179.0,939.0 L 179.0,989.0"/>
    <path d="M 498.0,282.0 L 532.0,289.0 L 582.0,282.0 L 660.0,259.0 L 749.0,243.0 L 779.0,252.0 L 803.0,277.0 L 816.0,779.0 L 812.0,943.0 L 797.0,982.0 L 735.0,976.0 L 630.0,947.0"/>
    <path d="M 418.0,374.0 L 442.0,415.0 L 418.0,459.0 L 352.0,546.0 L 267.0,624.0"/>
    <path d="M 431.0,487.0 L 535.0,462.0 L 579.0,472.0 L 546.0,532.0 L 462.0,626.0 L 351.0,717.0 L 271.0,762.0"/>
    <path d="M 399.0,529.0 L 440.0,562.0 L 453.0,565.0 L 459.0,577.0 L 638.0,675.0 L 700.0,682.0 L 772.0,679.0 L 777.0,673.0"/>
    <path d="M 336.0,749.0 L 359.0,759.0 L 366.0,775.0 L 396.0,935.0"/>
    <path d="M 383.0,742.0 L 402.0,750.0 L 547.0,720.0 L 570.0,728.0 L 589.0,754.0 L 568.0,817.0 L 546.0,828.0"/>
    <path d="M 413.0,892.0 L 424.0,879.0 L 534.0,861.0 L 574.0,861.0 L 598.0,869.0"/>
  </g>
</svg>
