<svg xmlns="http://www.w3.org/2000/svg" viewBox="0 0 1024 1024">
  <g style="fill:none;stroke:#000000;stroke-width:50;stroke-linecap:round;stroke-linejoin:round;" transform="scale(1, 1) translate(0, 0)">
    <path d="M 301.0,233.0 L 371.0,283.0 L 399.0,314.0"/>
    <path d="M 178.0,299.0 L 218.0,344.0 L 220.0,385.0 L 212.0,718.0 L 199.0,847.0 L 182.0,930.0 L 183.0,978.0"/>
    <path d="M 497.0,263.0 L 517.0,270.0 L 554.0,269.0 L 755.0,236.0 L 788.0,242.0 L 819.0,272.0 L 830.0,770.0 L 828.0,943.0 L 809.0,996.0 L 759.0,988.0 L 686.0,965.0"/>
    <path d="M 337.0,446.0 L 365.0,485.0 L 368.0,720.0 L 359.0,806.0 L 365.0,851.0"/>
    <path d="M 368.0,451.0 L 397.0,460.0 L 435.0,457.0 L 643.0,422.0 L 671.0,437.0 L 686.0,455.0 L 689.0,818.0 L 676.0,849.0 L 640.0,836.0 L 629.0,828.0 L 627.0,818.0"/>
    <path d="M 423.0,581.0 L 465.0,584.0 L 581.0,567.0 L 629.0,573.0"/>
    <path d="M 497.0,491.0 L 524.0,521.0 L 521.0,662.0 L 512.0,733.0 L 516.0,767.0"/>
    <path d="M 504.0,602.0 L 485.0,657.0 L 411.0,734.0"/>
    <path d="M 537.0,645.0 L 566.0,652.0 L 596.0,670.0 L 622.0,694.0 L 626.0,706.0"/>
    <path d="M 385.0,833.0 L 398.0,824.0 L 460.0,817.0 L 616.0,812.0"/>
  </g>
</svg>
