<svg xmlns="http://www.w3.org/2000/svg" viewBox="0 0 1024 1024">
  <g style="fill:none;stroke:#000000;stroke-width:50;stroke-linecap:round;stroke-linejoin:round;" transform="scale(1, 1) translate(0, 0)">
    <path d="M 304.0,244.0 L 376.0,299.0 L 395.0,326.0"/>
    <path d="M 182.0,331.0 L 223.0,379.0 L 225.0,448.0 L 219.0,703.0 L 210.0,819.0 L 191.0,925.0 L 191.0,982.0"/>
    <path d="M 517.0,283.0 L 560.0,290.0 L 745.0,259.0 L 776.0,265.0 L 808.0,297.0 L 804.0,359.0 L 814.0,808.0 L 810.0,949.0 L 787.0,1002.0 L 744.0,989.0 L 674.0,950.0"/>
    <path d="M 446.0,389.0 L 515.0,417.0 L 548.0,452.0"/>
    <path d="M 335.0,535.0 L 382.0,541.0 L 590.0,499.0 L 646.0,493.0 L 679.0,498.0"/>
    <path d="M 483.0,575.0 L 459.0,576.0 L 395.0,657.0 L 383.0,685.0 L 448.0,692.0 L 471.0,681.0"/>
    <path d="M 586.0,597.0 L 556.0,609.0 L 500.0,687.0 L 431.0,755.0 L 354.0,812.0 L 320.0,827.0"/>
    <path d="M 633.0,686.0 L 609.0,691.0 L 562.0,751.0 L 503.0,806.0 L 408.0,868.0"/>
    <path d="M 562.0,786.0 L 579.0,787.0 L 617.0,807.0 L 640.0,826.0 L 657.0,854.0"/>
  </g>
</svg>
