<svg xmlns="http://www.w3.org/2000/svg" viewBox="0 0 1024 1024">
  <g style="fill:none;stroke:#000000;stroke-width:50;stroke-linecap:round;stroke-linejoin:round;" transform="scale(1, 1) translate(0, 0)">
    <path d="M 327.0,245.0 L 406.0,302.0 L 421.0,325.0"/>
    <path d="M 208.0,323.0 L 243.0,361.0 L 248.0,386.0 L 241.0,705.0 L 234.0,797.0 L 216.0,890.0 L 215.0,955.0"/>
    <path d="M 528.0,296.0 L 558.0,302.0 L 600.0,298.0 L 734.0,269.0 L 771.0,267.0 L 801.0,276.0 L 824.0,301.0 L 835.0,901.0 L 825.0,964.0 L 813.0,989.0 L 797.0,988.0 L 658.0,945.0"/>
    <path d="M 380.0,430.0 L 439.0,478.0 L 450.0,504.0"/>
    <path d="M 592.0,364.0 L 610.0,391.0 L 520.0,495.0"/>
    <path d="M 363.0,568.0 L 390.0,596.0 L 412.0,695.0 L 424.0,720.0"/>
    <path d="M 409.0,570.0 L 420.0,577.0 L 439.0,576.0 L 544.0,546.0 L 571.0,543.0 L 585.0,549.0 L 603.0,570.0 L 581.0,632.0 L 560.0,647.0"/>
    <path d="M 434.0,686.0 L 443.0,692.0 L 549.0,669.0 L 608.0,672.0"/>
    <path d="M 416.0,730.0 L 427.0,741.0 L 433.0,764.0 L 415.0,798.0 L 354.0,867.0 L 295.0,904.0"/>
    <path d="M 519.0,722.0 L 537.0,743.0 L 540.0,761.0 L 532.0,822.0 L 536.0,851.0 L 544.0,864.0 L 576.0,878.0 L 660.0,874.0 L 690.0,864.0 L 711.0,847.0 L 714.0,749.0"/>
  </g>
</svg>
