<svg xmlns="http://www.w3.org/2000/svg" viewBox="0 0 1024 1024">
  <g style="fill:none;stroke:#000000;stroke-width:50;stroke-linecap:round;stroke-linejoin:round;" transform="scale(1, 1) translate(0, 0)">
    <path d="M 320.0,257.0 L 378.0,300.0 L 399.0,328.0"/>
    <path d="M 182.0,331.0 L 222.0,376.0 L 224.0,418.0 L 214.0,757.0 L 189.0,923.0 L 187.0,990.0"/>
    <path d="M 524.0,294.0 L 563.0,305.0 L 590.0,303.0 L 711.0,278.0 L 762.0,274.0 L 782.0,278.0 L 816.0,310.0 L 832.0,828.0 L 827.0,968.0 L 812.0,1001.0 L 765.0,994.0 L 678.0,965.0"/>
    <path d="M 479.0,384.0 L 492.0,401.0 L 496.0,418.0 L 488.0,430.0 L 403.0,529.0 L 334.0,581.0"/>
    <path d="M 470.0,486.0 L 566.0,462.0 L 585.0,464.0 L 604.0,476.0 L 540.0,561.0 L 494.0,607.0"/>
    <path d="M 408.0,623.0 L 419.0,647.0 L 415.0,653.0 L 368.0,700.0 L 351.0,705.0"/>
    <path d="M 305.0,711.0 L 332.0,739.0 L 361.0,935.0"/>
    <path d="M 368.0,802.0 L 413.0,781.0 L 462.0,780.0"/>
    <path d="M 516.0,653.0 L 538.0,657.0 L 643.0,642.0 L 662.0,653.0 L 678.0,675.0 L 654.0,840.0 L 645.0,881.0 L 629.0,905.0 L 629.0,946.0"/>
    <path d="M 532.0,766.0 L 545.0,760.0 L 556.0,765.0 L 616.0,761.0 L 635.0,753.0"/>
    <path d="M 380.0,888.0 L 390.0,895.0 L 529.0,878.0 L 600.0,878.0"/>
  </g>
</svg>
