<svg xmlns="http://www.w3.org/2000/svg" viewBox="0 0 1024 1024">
  <g style="fill:none;stroke:#000000;stroke-width:50;stroke-linecap:round;stroke-linejoin:round;" transform="scale(1, 1) translate(0, 0)">
    <path d="M 308.0,239.0 L 379.0,306.0 L 398.0,335.0"/>
    <path d="M 182.0,323.0 L 222.0,369.0 L 225.0,438.0 L 221.0,698.0 L 209.0,836.0 L 190.0,944.0 L 191.0,982.0"/>
    <path d="M 505.0,283.0 L 538.0,290.0 L 585.0,287.0 L 643.0,273.0 L 752.0,260.0 L 782.0,273.0 L 804.0,297.0 L 812.0,942.0 L 793.0,995.0 L 750.0,988.0 L 678.0,961.0"/>
    <path d="M 352.0,424.0 L 374.0,447.0 L 382.0,489.0 L 376.0,682.0"/>
    <path d="M 395.0,439.0 L 420.0,442.0 L 548.0,412.0 L 577.0,423.0 L 592.0,444.0 L 587.0,526.0 L 590.0,624.0 L 583.0,687.0"/>
    <path d="M 406.0,531.0 L 413.0,521.0 L 478.0,508.0 L 525.0,511.0"/>
    <path d="M 403.0,598.0 L 415.0,589.0 L 467.0,579.0 L 501.0,574.0 L 532.0,578.0"/>
    <path d="M 394.0,668.0 L 410.0,658.0 L 419.0,662.0 L 553.0,638.0"/>
    <path d="M 276.0,782.0 L 311.0,789.0 L 624.0,746.0 L 698.0,760.0"/>
    <path d="M 434.0,676.0 L 456.0,696.0 L 462.0,710.0 L 440.0,791.0 L 413.0,846.0 L 360.0,902.0 L 282.0,938.0"/>
    <path d="M 491.0,813.0 L 596.0,891.0 L 620.0,920.0 L 629.0,943.0"/>
    <path d="M 641.0,593.0 L 680.0,612.0 L 712.0,646.0"/>
  </g>
</svg>
