<svg xmlns="http://www.w3.org/2000/svg" viewBox="0 0 1024 1024">
  <g style="fill:none;stroke:#000000;stroke-width:50;stroke-linecap:round;stroke-linejoin:round;" transform="scale(1, 1) translate(0, 0)">
    <path d="M 310.0,270.0 L 364.0,313.0 L 381.0,340.0"/>
    <path d="M 186.0,331.0 L 226.0,377.0 L 229.0,446.0 L 225.0,706.0 L 213.0,844.0 L 194.0,952.0 L 195.0,990.0"/>
    <path d="M 517.0,287.0 L 537.0,294.0 L 575.0,293.0 L 699.0,268.0 L 741.0,265.0 L 784.0,273.0 L 808.0,298.0 L 817.0,857.0 L 812.0,960.0 L 791.0,1007.0 L 752.0,996.0 L 674.0,954.0"/>
    <path d="M 367.0,429.0 L 414.0,461.0 L 440.0,499.0"/>
    <path d="M 595.0,376.0 L 612.0,405.0 L 524.0,503.0"/>
    <path d="M 321.0,564.0 L 353.0,599.0 L 388.0,732.0"/>
    <path d="M 353.0,562.0 L 379.0,570.0 L 591.0,528.0 L 639.0,532.0 L 662.0,560.0 L 615.0,697.0"/>
    <path d="M 423.0,637.0 L 464.0,634.0 L 546.0,614.0 L 581.0,619.0"/>
    <path d="M 401.0,717.0 L 560.0,688.0 L 585.0,687.0 L 595.0,696.0"/>
    <path d="M 307.0,805.0 L 357.0,807.0 L 440.0,791.0 L 654.0,769.0 L 701.0,773.0 L 729.0,782.0"/>
    <path d="M 468.0,570.0 L 500.0,589.0 L 495.0,973.0"/>
  </g>
</svg>
