<svg xmlns="http://www.w3.org/2000/svg" viewBox="0 0 1024 1024">
  <g style="fill:none;stroke:#000000;stroke-width:50;stroke-linecap:round;stroke-linejoin:round;" transform="scale(1, 1) translate(0, 0)">
    <path d="M 308.0,239.0 L 379.0,306.0 L 398.0,335.0"/>
    <path d="M 182.0,323.0 L 222.0,369.0 L 225.0,438.0 L 221.0,698.0 L 209.0,836.0 L 190.0,944.0 L 191.0,982.0"/>
    <path d="M 493.0,287.0 L 536.0,295.0 L 690.0,266.0 L 749.0,261.0 L 782.0,273.0 L 804.0,297.0 L 814.0,769.0 L 815.0,905.0 L 809.0,957.0 L 792.0,996.0 L 751.0,989.0 L 666.0,957.0"/>
    <path d="M 325.0,446.0 L 390.0,436.0 L 419.0,421.0 L 453.0,424.0 L 468.0,440.0 L 462.0,466.0 L 454.0,494.0 L 429.0,518.0"/>
    <path d="M 267.0,562.0 L 301.0,567.0 L 479.0,530.0 L 513.0,535.0"/>
    <path d="M 305.0,586.0 L 326.0,609.0 L 325.0,755.0 L 324.0,767.0 L 312.0,780.0"/>
    <path d="M 448.0,555.0 L 467.0,579.0 L 463.0,856.0 L 473.0,941.0"/>
    <path d="M 353.0,650.0 L 361.0,637.0 L 375.0,633.0 L 422.0,631.0"/>
    <path d="M 345.0,727.0 L 364.0,712.0 L 398.0,702.0 L 427.0,703.0"/>
    <path d="M 266.0,802.0 L 304.0,815.0 L 490.0,755.0 L 522.0,738.0"/>
    <path d="M 569.0,402.0 L 598.0,429.0 L 592.0,460.0 L 546.0,585.0 L 501.0,655.0"/>
    <path d="M 570.0,579.0 L 634.0,567.0 L 700.0,546.0 L 741.0,543.0"/>
    <path d="M 625.0,589.0 L 650.0,619.0 L 618.0,721.0 L 567.0,786.0 L 533.0,811.0 L 493.0,828.0"/>
    <path d="M 538.0,673.0 L 675.0,785.0 L 706.0,824.0 L 716.0,851.0"/>
  </g>
</svg>
