<svg xmlns="http://www.w3.org/2000/svg" viewBox="0 0 1024 1024">
  <g style="fill:none;stroke:#000000;stroke-width:50;stroke-linecap:round;stroke-linejoin:round;" transform="scale(1, 1) translate(0, 0)">
    <path d="M 311.0,267.0 L 382.0,310.0 L 403.0,332.0"/>
    <path d="M 194.0,335.0 L 229.0,372.0 L 236.0,402.0 L 228.0,712.0 L 217.0,844.0 L 200.0,927.0 L 199.0,986.0"/>
    <path d="M 517.0,287.0 L 560.0,294.0 L 745.0,263.0 L 776.0,269.0 L 808.0,301.0 L 805.0,363.0 L 817.0,788.0 L 814.0,949.0 L 791.0,1002.0 L 755.0,989.0 L 678.0,943.0"/>
    <path d="M 332.0,473.0 L 394.0,504.0 L 409.0,527.0"/>
    <path d="M 310.0,588.0 L 350.0,612.0 L 367.0,631.0"/>
    <path d="M 333.0,858.0 L 326.0,829.0 L 328.0,801.0 L 409.0,682.0"/>
    <path d="M 663.0,448.0 L 609.0,440.0 L 569.0,468.0 L 489.0,500.0 L 479.0,509.0 L 464.0,506.0 L 457.0,515.0"/>
    <path d="M 425.0,601.0 L 456.0,602.0 L 679.0,562.0 L 746.0,573.0"/>
    <path d="M 540.0,501.0 L 569.0,522.0 L 561.0,653.0 L 550.0,675.0"/>
    <path d="M 445.0,695.0 L 475.0,728.0 L 500.0,843.0"/>
    <path d="M 480.0,693.0 L 502.0,702.0 L 611.0,680.0 L 650.0,681.0 L 673.0,704.0 L 657.0,752.0 L 637.0,766.0"/>
    <path d="M 514.0,798.0 L 525.0,805.0 L 621.0,790.0 L 661.0,790.0 L 682.0,797.0"/>
  </g>
</svg>
