<svg xmlns="http://www.w3.org/2000/svg" viewBox="0 0 1024 1024">
  <g style="fill:none;stroke:#000000;stroke-width:50;stroke-linecap:round;stroke-linejoin:round;" transform="scale(1, 1) translate(0, 0)">
    <path d="M 301.0,257.0 L 368.0,307.0 L 394.0,338.0"/>
    <path d="M 182.0,323.0 L 222.0,369.0 L 225.0,438.0 L 221.0,698.0 L 209.0,836.0 L 190.0,944.0 L 191.0,982.0"/>
    <path d="M 504.0,286.0 L 552.0,296.0 L 679.0,271.0 L 743.0,266.0 L 776.0,278.0 L 800.0,305.0 L 796.0,366.0 L 807.0,740.0 L 805.0,942.0 L 784.0,995.0 L 729.0,981.0 L 662.0,949.0"/>
    <path d="M 305.0,439.0 L 338.0,475.0 L 352.0,500.0"/>
    <path d="M 493.0,416.0 L 466.0,421.0 L 424.0,508.0"/>
    <path d="M 283.0,558.0 L 342.0,559.0 L 460.0,527.0 L 501.0,526.0"/>
    <path d="M 290.0,619.0 L 307.0,643.0 L 304.0,717.0 L 311.0,728.0 L 329.0,728.0 L 461.0,688.0 L 469.0,679.0"/>
    <path d="M 481.0,592.0 L 502.0,620.0 L 489.0,722.0"/>
    <path d="M 379.0,579.0 L 403.0,597.0 L 404.0,619.0 L 404.0,673.0 L 387.0,765.0 L 370.0,806.0 L 338.0,854.0 L 312.0,878.0 L 286.0,892.0"/>
    <path d="M 567.0,396.0 L 590.0,417.0 L 588.0,437.0 L 551.0,527.0 L 518.0,576.0"/>
    <path d="M 564.0,535.0 L 670.0,497.0 L 684.0,496.0 L 704.0,506.0 L 710.0,514.0 L 701.0,537.0 L 660.0,594.0"/>
    <path d="M 565.0,593.0 L 585.0,609.0 L 593.0,625.0 L 574.0,721.0 L 554.0,764.0 L 529.0,795.0 L 484.0,833.0 L 453.0,850.0"/>
    <path d="M 593.0,741.0 L 623.0,748.0 L 688.0,791.0 L 710.0,814.0 L 719.0,836.0"/>
  </g>
</svg>
