<svg xmlns="http://www.w3.org/2000/svg" viewBox="0 0 1024 1024">
  <g style="fill:none;stroke:#000000;stroke-width:50;stroke-linecap:round;stroke-linejoin:round;" transform="scale(1, 1) translate(0, 0)">
    <path d="M 227.0,332.0 L 238.0,339.0 L 254.0,339.0 L 357.0,299.0 L 382.0,298.0 L 399.0,312.0 L 390.0,342.0 L 328.0,435.0 L 317.0,468.0 L 327.0,497.0 L 365.0,550.0 L 388.0,598.0 L 393.0,636.0 L 387.0,658.0 L 341.0,649.0 L 295.0,618.0"/>
    <path d="M 165.0,317.0 L 195.0,351.0 L 209.0,446.0 L 211.0,616.0 L 204.0,830.0 L 186.0,992.0 L 192.0,1059.0"/>
    <path d="M 455.0,568.0 L 513.0,578.0 L 802.0,507.0 L 829.0,510.0 L 858.0,534.0 L 824.0,804.0 L 802.0,892.0 L 780.0,946.0 L 759.0,976.0 L 734.0,995.0 L 623.0,937.0"/>
    <path d="M 636.0,286.0 L 668.0,309.0 L 687.0,343.0 L 646.0,563.0 L 605.0,705.0 L 561.0,809.0 L 498.0,911.0 L 408.0,1000.0 L 376.0,1016.0"/>
  </g>
</svg>
