<svg xmlns="http://www.w3.org/2000/svg" viewBox="0 0 1024 1024">
  <g style="fill:none;stroke:#000000;stroke-width:50;stroke-linecap:round;stroke-linejoin:round;" transform="scale(1, 1) translate(0, 0)">
    <path d="M 250.0,346.0 L 261.0,355.0 L 344.0,322.0 L 379.0,316.0 L 389.0,316.0 L 404.0,330.0 L 397.0,359.0 L 354.0,442.0 L 351.0,467.0 L 412.0,575.0 L 418.0,598.0 L 415.0,626.0 L 410.0,635.0 L 388.0,637.0 L 291.0,614.0"/>
    <path d="M 173.0,321.0 L 184.0,326.0 L 211.0,358.0 L 222.0,484.0 L 219.0,724.0 L 214.0,794.0 L 193.0,920.0 L 194.0,985.0"/>
    <path d="M 560.0,278.0 L 598.0,301.0 L 618.0,323.0 L 623.0,344.0 L 596.0,570.0 L 577.0,660.0 L 554.0,731.0 L 507.0,823.0 L 437.0,900.0 L 346.0,957.0 L 286.0,980.0"/>
    <path d="M 612.0,654.0 L 618.0,695.0 L 700.0,818.0 L 776.0,913.0 L 825.0,952.0 L 966.0,990.0"/>
  </g>
</svg>
