<svg xmlns="http://www.w3.org/2000/svg" viewBox="0 0 1024 1024">
  <g style="fill:none;stroke:#000000;stroke-width:50;stroke-linecap:round;stroke-linejoin:round;" transform="scale(1, 1) translate(0, 0)">
    <path d="M 227.0,330.0 L 238.0,339.0 L 340.0,299.0 L 367.0,297.0 L 384.0,311.0 L 370.0,349.0 L 309.0,449.0 L 319.0,484.0 L 372.0,560.0 L 379.0,586.0 L 377.0,617.0 L 370.0,625.0 L 336.0,625.0 L 255.0,609.0"/>
    <path d="M 154.0,308.0 L 190.0,345.0 L 199.0,408.0 L 194.0,750.0 L 170.0,915.0 L 171.0,978.0"/>
    <path d="M 588.0,224.0 L 674.0,286.0 L 706.0,340.0"/>
    <path d="M 398.0,511.0 L 446.0,518.0 L 646.0,475.0 L 867.0,443.0 L 948.0,459.0"/>
    <path d="M 629.0,607.0 L 649.0,599.0 L 766.0,622.0 L 795.0,656.0 L 789.0,681.0 L 733.0,857.0 L 701.0,921.0 L 668.0,961.0 L 644.0,975.0 L 550.0,900.0"/>
    <path d="M 581.0,519.0 L 611.0,545.0 L 609.0,555.0 L 571.0,658.0 L 530.0,731.0 L 494.0,780.0 L 438.0,839.0 L 358.0,902.0 L 288.0,942.0"/>
  </g>
</svg>
