<svg xmlns="http://www.w3.org/2000/svg" viewBox="0 0 1024 1024">
  <g style="fill:none;stroke:#000000;stroke-width:50;stroke-linecap:round;stroke-linejoin:round;" transform="scale(1, 1) translate(0, 0)">
    <path d="M 238.0,327.0 L 260.0,335.0 L 342.0,301.0 L 376.0,296.0 L 385.0,296.0 L 400.0,309.0 L 393.0,337.0 L 360.0,394.0 L 343.0,446.0 L 349.0,484.0 L 378.0,530.0 L 398.0,577.0 L 398.0,633.0 L 392.0,644.0 L 362.0,643.0 L 275.0,618.0"/>
    <path d="M 164.0,305.0 L 184.0,320.0 L 205.0,351.0 L 212.0,456.0 L 209.0,742.0 L 201.0,833.0 L 181.0,948.0 L 182.0,1014.0"/>
    <path d="M 490.0,396.0 L 522.0,428.0 L 531.0,488.0 L 531.0,666.0 L 514.0,804.0 L 514.0,863.0"/>
    <path d="M 557.0,413.0 L 569.0,424.0 L 588.0,421.0 L 777.0,372.0 L 806.0,387.0 L 826.0,409.0 L 831.0,793.0 L 817.0,830.0 L 781.0,820.0 L 761.0,796.0"/>
    <path d="M 557.0,624.0 L 570.0,613.0 L 666.0,598.0 L 711.0,595.0 L 734.0,602.0"/>
    <path d="M 546.0,829.0 L 570.0,814.0 L 751.0,791.0"/>
  </g>
</svg>
