<svg xmlns="http://www.w3.org/2000/svg" viewBox="0 0 1024 1024">
  <g style="fill:none;stroke:#000000;stroke-width:50;stroke-linecap:round;stroke-linejoin:round;" transform="scale(1, 1) translate(0, 0)">
    <path d="M 238.0,356.0 L 245.0,344.0 L 335.0,307.0 L 364.0,305.0 L 379.0,317.0 L 375.0,342.0 L 347.0,386.0 L 320.0,449.0 L 331.0,482.0 L 376.0,549.0 L 383.0,574.0 L 380.0,601.0 L 377.0,607.0 L 354.0,609.0 L 268.0,589.0"/>
    <path d="M 161.0,308.0 L 194.0,345.0 L 204.0,422.0 L 201.0,776.0 L 185.0,916.0 L 192.0,1000.0"/>
    <path d="M 588.0,246.0 L 606.0,259.0 L 628.0,289.0 L 590.0,387.0 L 500.0,559.0 L 450.0,633.0 L 394.0,697.0"/>
    <path d="M 640.0,359.0 L 643.0,378.0 L 686.0,436.0 L 756.0,519.0 L 832.0,593.0 L 985.0,632.0"/>
    <path d="M 504.0,650.0 L 540.0,680.0 L 537.0,756.0 L 523.0,835.0 L 493.0,897.0 L 466.0,933.0 L 432.0,967.0 L 388.0,995.0"/>
    <path d="M 671.0,627.0 L 703.0,664.0 L 705.0,962.0 L 718.0,1041.0"/>
  </g>
</svg>
