<svg xmlns="http://www.w3.org/2000/svg" viewBox="0 0 1024 1024">
  <g style="fill:none;stroke:#000000;stroke-width:50;stroke-linecap:round;stroke-linejoin:round;" transform="scale(1, 1) translate(0, 0)">
    <path d="M 222.0,316.0 L 250.0,324.0 L 326.0,296.0 L 354.0,296.0 L 368.0,308.0 L 314.0,432.0 L 320.0,463.0 L 365.0,551.0 L 372.0,580.0 L 367.0,610.0 L 360.0,623.0 L 331.0,622.0 L 259.0,598.0"/>
    <path d="M 158.0,300.0 L 184.0,323.0 L 197.0,346.0 L 203.0,423.0 L 200.0,754.0 L 173.0,939.0 L 175.0,994.0"/>
    <path d="M 586.0,229.0 L 675.0,282.0 L 697.0,315.0"/>
    <path d="M 471.0,400.0 L 482.0,445.0 L 448.0,545.0 L 446.0,574.0"/>
    <path d="M 511.0,460.0 L 524.0,450.0 L 573.0,436.0 L 757.0,392.0 L 813.0,387.0 L 851.0,415.0 L 835.0,444.0 L 774.0,516.0"/>
    <path d="M 737.0,581.0 L 747.0,592.0 L 756.0,625.0 L 676.0,687.0 L 572.0,749.0 L 565.0,763.0"/>
    <path d="M 517.0,582.0 L 552.0,628.0 L 533.0,787.0 L 539.0,892.0 L 553.0,929.0 L 587.0,954.0 L 634.0,967.0 L 734.0,974.0 L 824.0,967.0 L 869.0,954.0 L 892.0,940.0 L 896.0,790.0"/>
  </g>
</svg>
