<svg xmlns="http://www.w3.org/2000/svg" viewBox="0 0 1024 1024">
  <g style="fill:none;stroke:#000000;stroke-width:50;stroke-linecap:round;stroke-linejoin:round;" transform="scale(1, 1) translate(0, 0)">
    <path d="M 210.0,275.0 L 228.0,283.0 L 316.0,252.0 L 345.0,252.0 L 360.0,266.0 L 354.0,290.0 L 321.0,345.0 L 300.0,397.0 L 311.0,432.0 L 363.0,511.0 L 370.0,539.0 L 368.0,569.0 L 359.0,579.0 L 324.0,578.0 L 243.0,554.0"/>
    <path d="M 141.0,256.0 L 173.0,292.0 L 184.0,370.0 L 184.0,645.0 L 179.0,753.0 L 165.0,864.0 L 172.0,948.0"/>
    <path d="M 490.0,365.0 L 501.0,371.0 L 555.0,373.0 L 718.0,336.0 L 779.0,336.0"/>
    <path d="M 425.0,543.0 L 482.0,550.0 L 603.0,527.0 L 820.0,501.0 L 853.0,503.0 L 906.0,519.0"/>
    <path d="M 599.0,553.0 L 639.0,576.0 L 649.0,591.0 L 644.0,651.0 L 645.0,843.0 L 639.0,887.0 L 622.0,921.0 L 581.0,911.0 L 491.0,870.0"/>
    <path d="M 455.0,681.0 L 427.0,754.0 L 379.0,834.0"/>
    <path d="M 765.0,661.0 L 820.0,706.0 L 884.0,772.0 L 898.0,799.0 L 906.0,833.0"/>
  </g>
</svg>
