<svg xmlns="http://www.w3.org/2000/svg" viewBox="0 0 1024 1024">
  <g style="fill:none;stroke:#000000;stroke-width:50;stroke-linecap:round;stroke-linejoin:round;" transform="scale(1, 1) translate(0, 0)">
    <path d="M 227.0,323.0 L 239.0,332.0 L 323.0,301.0 L 343.0,299.0 L 355.0,300.0 L 369.0,313.0 L 322.0,420.0 L 314.0,453.0 L 316.0,466.0 L 373.0,563.0 L 379.0,589.0 L 376.0,618.0 L 371.0,626.0 L 333.0,624.0 L 254.0,595.0"/>
    <path d="M 150.0,298.0 L 191.0,345.0 L 198.0,439.0 L 197.0,758.0 L 190.0,851.0 L 174.0,942.0 L 174.0,1010.0"/>
    <path d="M 426.0,396.0 L 455.0,403.0 L 492.0,400.0 L 639.0,371.0 L 859.0,344.0 L 939.0,361.0"/>
    <path d="M 432.0,525.0 L 457.0,547.0 L 462.0,559.0 L 493.0,725.0"/>
    <path d="M 486.0,530.0 L 498.0,537.0 L 600.0,511.0 L 620.0,515.0 L 631.0,525.0 L 640.0,536.0 L 617.0,623.0 L 592.0,641.0"/>
    <path d="M 512.0,692.0 L 522.0,682.0 L 584.0,669.0 L 642.0,677.0"/>
    <path d="M 724.0,391.0 L 765.0,417.0 L 768.0,428.0 L 771.0,936.0 L 763.0,961.0 L 745.0,986.0 L 693.0,969.0 L 629.0,935.0"/>
  </g>
</svg>
