<svg xmlns="http://www.w3.org/2000/svg" viewBox="0 0 1024 1024">
  <g style="fill:none;stroke:#000000;stroke-width:50;stroke-linecap:round;stroke-linejoin:round;" transform="scale(1, 1) translate(0, 0)">
    <path d="M 236.0,363.0 L 241.0,350.0 L 323.0,315.0 L 361.0,309.0 L 377.0,321.0 L 368.0,356.0 L 334.0,424.0 L 326.0,459.0 L 333.0,483.0 L 353.0,506.0 L 384.0,566.0 L 383.0,606.0 L 378.0,615.0 L 354.0,616.0 L 272.0,594.0"/>
    <path d="M 160.0,320.0 L 195.0,355.0 L 204.0,437.0 L 201.0,713.0 L 192.0,831.0 L 174.0,930.0 L 175.0,991.0"/>
    <path d="M 501.0,339.0 L 565.0,337.0 L 679.0,307.0 L 708.0,307.0 L 729.0,316.0 L 723.0,339.0 L 692.0,396.0 L 618.0,497.0 L 518.0,598.0 L 436.0,656.0"/>
    <path d="M 649.0,506.0 L 679.0,511.0 L 816.0,586.0 L 850.0,618.0 L 865.0,646.0"/>
    <path d="M 473.0,714.0 L 529.0,723.0 L 710.0,688.0 L 764.0,689.0"/>
    <path d="M 587.0,740.0 L 611.0,762.0 L 613.0,782.0 L 605.0,904.0 L 587.0,929.0"/>
    <path d="M 358.0,965.0 L 412.0,974.0 L 560.0,954.0 L 817.0,935.0 L 853.0,938.0 L 902.0,956.0"/>
  </g>
</svg>
