<svg xmlns="http://www.w3.org/2000/svg" viewBox="0 0 1024 1024">
  <g style="fill:none;stroke:#000000;stroke-width:50;stroke-linecap:round;stroke-linejoin:round;" transform="scale(1, 1) translate(0, 0)">
    <path d="M 224.0,306.0 L 239.0,317.0 L 354.0,286.0 L 377.0,300.0 L 327.0,400.0 L 320.0,427.0 L 328.0,448.0 L 377.0,519.0 L 384.0,549.0 L 382.0,574.0 L 379.0,581.0 L 342.0,577.0 L 291.0,555.0"/>
    <path d="M 155.0,289.0 L 173.0,303.0 L 197.0,340.0 L 202.0,414.0 L 203.0,694.0 L 197.0,816.0 L 178.0,932.0 L 179.0,994.0"/>
    <path d="M 482.0,361.0 L 554.0,367.0 L 832.0,310.0 L 876.0,310.0"/>
    <path d="M 478.0,508.0 L 502.0,532.0 L 515.0,557.0 L 522.0,677.0 L 520.0,782.0 L 530.0,812.0"/>
    <path d="M 530.0,522.0 L 553.0,532.0 L 798.0,485.0 L 838.0,486.0 L 865.0,505.0 L 863.0,653.0 L 855.0,724.0 L 844.0,762.0 L 833.0,777.0 L 806.0,771.0 L 735.0,736.0"/>
    <path d="M 645.0,382.0 L 663.0,392.0 L 677.0,412.0 L 665.0,522.0 L 633.0,624.0 L 580.0,696.0"/>
    <path d="M 677.0,577.0 L 680.0,585.0 L 756.0,636.0 L 773.0,668.0"/>
    <path d="M 375.0,688.0 L 399.0,705.0 L 416.0,728.0 L 414.0,838.0 L 406.0,895.0 L 409.0,927.0 L 437.0,928.0 L 583.0,904.0 L 719.0,895.0 L 870.0,896.0 L 907.0,903.0 L 947.0,924.0"/>
  </g>
</svg>
