<svg xmlns="http://www.w3.org/2000/svg" viewBox="0 0 1024 1024">
  <g style="fill:none;stroke:#000000;stroke-width:50;stroke-linecap:round;stroke-linejoin:round;" transform="scale(1, 1) translate(0, 0)">
    <path d="M 227.0,315.0 L 238.0,323.0 L 254.0,323.0 L 344.0,292.0 L 369.0,304.0 L 363.0,333.0 L 322.0,428.0 L 325.0,449.0 L 379.0,527.0 L 388.0,553.0 L 385.0,582.0 L 382.0,590.0 L 358.0,591.0 L 277.0,572.0 L 272.0,566.0"/>
    <path d="M 162.0,300.0 L 188.0,323.0 L 204.0,352.0 L 211.0,463.0 L 210.0,687.0 L 201.0,806.0 L 181.0,926.0 L 183.0,982.0"/>
    <path d="M 481.0,398.0 L 550.0,402.0 L 647.0,384.0 L 727.0,359.0 L 785.0,357.0"/>
    <path d="M 450.0,502.0 L 503.0,545.0 L 519.0,580.0"/>
    <path d="M 758.0,444.0 L 773.0,474.0 L 681.0,555.0"/>
    <path d="M 333.0,687.0 L 383.0,696.0 L 657.0,655.0 L 849.0,635.0 L 931.0,654.0"/>
    <path d="M 574.0,203.0 L 623.0,246.0 L 602.0,661.0 L 582.0,771.0 L 545.0,853.0 L 492.0,913.0 L 404.0,967.0 L 312.0,999.0"/>
    <path d="M 629.0,686.0 L 641.0,722.0 L 682.0,787.0 L 788.0,921.0 L 829.0,955.0 L 963.0,990.0"/>
  </g>
</svg>
