<svg xmlns="http://www.w3.org/2000/svg" viewBox="0 0 1024 1024">
  <g style="fill:none;stroke:#000000;stroke-width:50;stroke-linecap:round;stroke-linejoin:round;" transform="scale(1, 1) translate(0, 0)">
    <path d="M 205.0,380.0 L 209.0,371.0 L 280.0,338.0 L 319.0,332.0 L 334.0,344.0 L 327.0,375.0 L 289.0,458.0 L 287.0,491.0 L 338.0,582.0 L 340.0,628.0 L 331.0,638.0 L 313.0,638.0 L 235.0,611.0"/>
    <path d="M 128.0,344.0 L 164.0,380.0 L 175.0,460.0 L 177.0,719.0 L 172.0,828.0 L 153.0,955.0 L 155.0,1014.0"/>
    <path d="M 485.0,456.0 L 500.0,443.0 L 548.0,428.0 L 570.0,423.0 L 602.0,426.0"/>
    <path d="M 422.0,328.0 L 446.0,348.0 L 461.0,374.0 L 463.0,466.0 L 454.0,562.0 L 458.0,623.0 L 491.0,616.0 L 595.0,558.0"/>
    <path d="M 804.0,308.0 L 818.0,330.0 L 819.0,352.0 L 773.0,387.0 L 685.0,437.0 L 675.0,450.0"/>
    <path d="M 631.0,251.0 L 666.0,297.0 L 656.0,358.0 L 652.0,452.0 L 661.0,553.0 L 667.0,582.0 L 679.0,601.0 L 705.0,615.0 L 773.0,625.0 L 823.0,623.0 L 870.0,610.0 L 880.0,601.0 L 887.0,501.0"/>
    <path d="M 426.0,802.0 L 450.0,810.0 L 489.0,812.0 L 644.0,787.0 L 719.0,767.0 L 775.0,769.0"/>
    <path d="M 565.0,675.0 L 607.0,712.0 L 605.0,916.0 L 590.0,936.0"/>
    <path d="M 346.0,980.0 L 403.0,989.0 L 534.0,969.0 L 820.0,942.0 L 848.0,944.0 L 899.0,961.0"/>
  </g>
</svg>
