<svg xmlns="http://www.w3.org/2000/svg" viewBox="0 0 1024 1024">
  <g style="fill:none;stroke:#000000;stroke-width:50;stroke-linecap:round;stroke-linejoin:round;" transform="scale(1, 1) translate(0, 0)">
    <path d="M 218.0,330.0 L 240.0,333.0 L 310.0,302.0 L 331.0,300.0 L 345.0,312.0 L 336.0,346.0 L 294.0,419.0 L 286.0,455.0 L 293.0,477.0 L 340.0,540.0 L 348.0,566.0 L 346.0,585.0 L 342.0,593.0 L 318.0,596.0 L 250.0,580.0"/>
    <path d="M 151.0,313.0 L 177.0,336.0 L 193.0,366.0 L 202.0,469.0 L 198.0,703.0 L 185.0,856.0 L 172.0,933.0 L 175.0,986.0"/>
    <path d="M 546.0,209.0 L 629.0,262.0 L 648.0,292.0"/>
    <path d="M 423.0,366.0 L 433.0,400.0 L 431.0,415.0 L 406.0,476.0 L 399.0,518.0"/>
    <path d="M 462.0,417.0 L 474.0,409.0 L 650.0,366.0 L 734.0,348.0 L 773.0,348.0 L 805.0,362.0 L 817.0,378.0 L 761.0,464.0"/>
    <path d="M 480.0,542.0 L 532.0,546.0 L 643.0,518.0 L 690.0,517.0"/>
    <path d="M 387.0,674.0 L 428.0,682.0 L 713.0,629.0 L 748.0,625.0 L 783.0,632.0"/>
    <path d="M 494.0,725.0 L 514.0,759.0 L 497.0,801.0 L 456.0,871.0 L 417.0,912.0 L 367.0,951.0 L 308.0,981.0"/>
    <path d="M 616.0,670.0 L 648.0,697.0 L 635.0,830.0 L 640.0,912.0 L 656.0,947.0 L 699.0,974.0 L 752.0,986.0 L 826.0,986.0 L 874.0,975.0 L 915.0,952.0 L 925.0,941.0 L 928.0,788.0"/>
  </g>
</svg>
