<svg xmlns="http://www.w3.org/2000/svg" viewBox="0 0 1024 1024">
  <g style="fill:none;stroke:#000000;stroke-width:50;stroke-linecap:round;stroke-linejoin:round;" transform="scale(1, 1) translate(0, 0)">
    <path d="M 198.0,331.0 L 209.0,339.0 L 274.0,310.0 L 306.0,304.0 L 326.0,316.0 L 293.0,394.0 L 282.0,437.0 L 288.0,462.0 L 324.0,521.0 L 331.0,549.0 L 326.0,579.0 L 323.0,585.0 L 302.0,585.0 L 239.0,563.0"/>
    <path d="M 131.0,313.0 L 161.0,347.0 L 173.0,436.0 L 170.0,777.0 L 154.0,920.0 L 160.0,997.0"/>
    <path d="M 472.0,432.0 L 528.0,436.0 L 708.0,388.0 L 760.0,388.0"/>
    <path d="M 572.0,203.0 L 620.0,245.0 L 610.0,525.0 L 592.0,550.0"/>
    <path d="M 388.0,608.0 L 445.0,609.0 L 510.0,591.0 L 775.0,539.0 L 809.0,537.0 L 863.0,547.0"/>
    <path d="M 585.0,595.0 L 617.0,626.0 L 610.0,808.0 L 613.0,830.0 L 628.0,855.0"/>
    <path d="M 645.0,723.0 L 662.0,715.0 L 755.0,699.0 L 789.0,701.0"/>
    <path d="M 425.0,678.0 L 444.0,696.0 L 454.0,718.0 L 420.0,810.0 L 357.0,908.0 L 275.0,989.0"/>
    <path d="M 478.0,765.0 L 488.0,791.0 L 583.0,863.0 L 678.0,924.0 L 761.0,965.0 L 801.0,979.0 L 936.0,973.0 L 971.0,966.0"/>
  </g>
</svg>
