<svg xmlns="http://www.w3.org/2000/svg" viewBox="0 0 1024 1024">
  <g style="fill:none;stroke:#000000;stroke-width:50;stroke-linecap:round;stroke-linejoin:round;" transform="scale(1, 1) translate(0, 0)">
    <path d="M 205.0,323.0 L 215.0,330.0 L 230.0,330.0 L 305.0,301.0 L 334.0,300.0 L 349.0,312.0 L 343.0,338.0 L 301.0,425.0 L 298.0,449.0 L 305.0,475.0 L 347.0,544.0 L 353.0,573.0 L 348.0,597.0 L 345.0,603.0 L 321.0,604.0 L 240.0,582.0"/>
    <path d="M 139.0,309.0 L 165.0,331.0 L 180.0,359.0 L 189.0,476.0 L 188.0,694.0 L 182.0,795.0 L 160.0,928.0 L 163.0,990.0"/>
    <path d="M 570.0,246.0 L 589.0,259.0 L 611.0,290.0 L 573.0,387.0 L 510.0,510.0 L 466.0,580.0 L 414.0,652.0 L 378.0,689.0"/>
    <path d="M 626.0,355.0 L 636.0,384.0 L 703.0,467.0 L 755.0,527.0 L 823.0,591.0 L 977.0,628.0"/>
    <path d="M 492.0,626.0 L 512.0,630.0 L 567.0,625.0 L 652.0,602.0 L 698.0,601.0"/>
    <path d="M 415.0,755.0 L 473.0,807.0 L 491.0,848.0"/>
    <path d="M 535.0,707.0 L 568.0,745.0 L 587.0,780.0"/>
    <path d="M 700.0,676.0 L 717.0,694.0 L 726.0,722.0 L 635.0,898.0 L 607.0,923.0"/>
    <path d="M 358.0,963.0 L 414.0,972.0 L 760.0,931.0 L 845.0,950.0"/>
  </g>
</svg>
