<svg xmlns="http://www.w3.org/2000/svg" viewBox="0 0 1024 1024">
  <g style="fill:none;stroke:#000000;stroke-width:50;stroke-linecap:round;stroke-linejoin:round;" transform="scale(1, 1) translate(0, 0)">
    <path d="M 197.0,344.0 L 215.0,352.0 L 308.0,319.0 L 323.0,322.0 L 333.0,332.0 L 324.0,360.0 L 289.0,420.0 L 279.0,463.0 L 288.0,496.0 L 318.0,550.0 L 324.0,578.0 L 319.0,606.0 L 314.0,615.0 L 286.0,614.0 L 219.0,591.0"/>
    <path d="M 123.0,321.0 L 141.0,334.0 L 162.0,364.0 L 173.0,497.0 L 169.0,752.0 L 144.0,941.0 L 147.0,994.0"/>
    <path d="M 734.0,290.0 L 670.0,281.0 L 616.0,318.0 L 566.0,342.0 L 514.0,365.0 L 476.0,374.0 L 468.0,382.0 L 450.0,381.0 L 441.0,390.0"/>
    <path d="M 461.0,479.0 L 482.0,485.0 L 522.0,484.0 L 626.0,467.0 L 719.0,440.0 L 774.0,441.0"/>
    <path d="M 559.0,370.0 L 589.0,385.0 L 595.0,432.0 L 590.0,909.0 L 573.0,933.0"/>
    <path d="M 352.0,673.0 L 399.0,678.0 L 519.0,655.0 L 841.0,614.0 L 910.0,629.0"/>
    <path d="M 405.0,568.0 L 425.0,576.0 L 444.0,596.0 L 484.0,770.0"/>
    <path d="M 722.0,508.0 L 750.0,541.0 L 726.0,652.0 L 698.0,738.0"/>
    <path d="M 380.0,821.0 L 420.0,832.0 L 728.0,781.0 L 793.0,788.0"/>
    <path d="M 398.0,972.0 L 451.0,979.0 L 727.0,943.0 L 774.0,949.0 L 805.0,960.0"/>
  </g>
</svg>
