<svg xmlns="http://www.w3.org/2000/svg" viewBox="0 0 1024 1024">
  <g style="fill:none;stroke:#000000;stroke-width:50;stroke-linecap:round;stroke-linejoin:round;" transform="scale(1, 1) translate(0, 0)">
    <path d="M 212.0,351.0 L 225.0,357.0 L 317.0,322.0 L 342.0,320.0 L 356.0,332.0 L 302.0,428.0 L 291.0,460.0 L 295.0,483.0 L 343.0,557.0 L 353.0,583.0 L 352.0,616.0 L 348.0,626.0 L 321.0,626.0 L 250.0,603.0"/>
    <path d="M 145.0,329.0 L 177.0,367.0 L 187.0,441.0 L 179.0,791.0 L 164.0,937.0 L 168.0,1007.0"/>
    <path d="M 469.0,374.0 L 526.0,380.0 L 645.0,356.0 L 705.0,337.0 L 754.0,338.0"/>
    <path d="M 576.0,191.0 L 619.0,229.0 L 607.0,446.0 L 590.0,473.0"/>
    <path d="M 384.0,528.0 L 406.0,533.0 L 444.0,530.0 L 580.0,498.0 L 776.0,466.0 L 855.0,480.0"/>
    <path d="M 472.0,581.0 L 486.0,608.0 L 390.0,711.0 L 359.0,733.0 L 356.0,744.0"/>
    <path d="M 682.0,561.0 L 732.0,582.0 L 797.0,620.0 L 818.0,641.0 L 834.0,671.0"/>
    <path d="M 584.0,666.0 L 551.0,678.0 L 492.0,773.0 L 425.0,850.0 L 365.0,906.0 L 312.0,941.0"/>
    <path d="M 552.0,736.0 L 642.0,710.0 L 670.0,709.0 L 705.0,724.0 L 665.0,835.0 L 639.0,884.0 L 605.0,929.0 L 557.0,970.0 L 519.0,992.0 L 450.0,1017.0 L 403.0,1024.0"/>
    <path d="M 499.0,805.0 L 514.0,804.0 L 545.0,824.0 L 652.0,932.0 L 754.0,1006.0 L 830.0,1024.0 L 934.0,1034.0"/>
  </g>
</svg>
