<svg xmlns="http://www.w3.org/2000/svg" viewBox="0 0 1024 1024">
  <g style="fill:none;stroke:#000000;stroke-width:50;stroke-linecap:round;stroke-linejoin:round;" transform="scale(1, 1) translate(0, 0)">
    <path d="M 214.0,357.0 L 228.0,367.0 L 321.0,336.0 L 353.0,338.0 L 364.0,349.0 L 357.0,374.0 L 309.0,459.0 L 304.0,483.0 L 312.0,508.0 L 338.0,541.0 L 356.0,580.0 L 362.0,608.0 L 357.0,634.0 L 333.0,639.0 L 255.0,614.0"/>
    <path d="M 143.0,337.0 L 179.0,373.0 L 189.0,454.0 L 190.0,713.0 L 184.0,814.0 L 165.0,935.0 L 167.0,1006.0"/>
    <path d="M 596.0,217.0 L 621.0,240.0 L 632.0,263.0 L 548.0,410.0 L 461.0,518.0 L 434.0,538.0"/>
    <path d="M 594.0,393.0 L 662.0,387.0 L 731.0,370.0 L 765.0,380.0 L 768.0,386.0 L 706.0,488.0 L 631.0,584.0"/>
    <path d="M 577.0,616.0 L 544.0,613.0 L 472.0,680.0 L 458.0,690.0 L 451.0,688.0"/>
    <path d="M 396.0,687.0 L 428.0,723.0 L 465.0,997.0"/>
    <path d="M 476.0,827.0 L 483.0,816.0 L 541.0,800.0 L 570.0,796.0 L 600.0,801.0"/>
    <path d="M 655.0,627.0 L 707.0,637.0 L 820.0,618.0 L 844.0,628.0 L 862.0,651.0 L 831.0,895.0 L 818.0,951.0 L 799.0,978.0 L 798.0,1032.0"/>
    <path d="M 665.0,789.0 L 800.0,777.0 L 815.0,766.0"/>
    <path d="M 487.0,978.0 L 505.0,964.0 L 694.0,942.0 L 759.0,941.0"/>
  </g>
</svg>
