<svg xmlns="http://www.w3.org/2000/svg" viewBox="0 0 1024 1024">
  <g style="fill:none;stroke:#000000;stroke-width:50;stroke-linecap:round;stroke-linejoin:round;" transform="scale(1, 1) translate(0, 0)">
    <path d="M 193.0,332.0 L 207.0,337.0 L 281.0,303.0 L 317.0,296.0 L 333.0,309.0 L 328.0,335.0 L 284.0,419.0 L 280.0,443.0 L 288.0,467.0 L 335.0,541.0 L 344.0,583.0 L 340.0,602.0 L 336.0,611.0 L 310.0,611.0 L 231.0,587.0"/>
    <path d="M 119.0,309.0 L 157.0,350.0 L 164.0,409.0 L 164.0,711.0 L 159.0,805.0 L 141.0,919.0 L 143.0,974.0"/>
    <path d="M 546.0,185.0 L 568.0,205.0 L 574.0,220.0 L 511.0,321.0 L 485.0,345.0"/>
    <path d="M 400.0,357.0 L 419.0,373.0 L 431.0,396.0 L 469.0,601.0"/>
    <path d="M 445.0,359.0 L 467.0,368.0 L 646.0,328.0 L 716.0,319.0 L 754.0,329.0 L 776.0,355.0 L 775.0,365.0 L 746.0,494.0 L 724.0,561.0 L 727.0,584.0"/>
    <path d="M 519.0,476.0 L 638.0,455.0 L 676.0,458.0"/>
    <path d="M 483.0,595.0 L 494.0,587.0 L 677.0,557.0 L 691.0,548.0"/>
    <path d="M 577.0,363.0 L 598.0,388.0 L 581.0,493.0 L 559.0,575.0 L 533.0,634.0 L 502.0,684.0 L 469.0,725.0 L 454.0,730.0"/>
    <path d="M 290.0,764.0 L 343.0,772.0 L 514.0,743.0 L 808.0,715.0 L 843.0,716.0 L 903.0,733.0"/>
    <path d="M 611.0,615.0 L 629.0,625.0 L 650.0,651.0 L 643.0,1074.0"/>
  </g>
</svg>
