<svg xmlns="http://www.w3.org/2000/svg" viewBox="0 0 1024 1024">
  <g style="fill:none;stroke:#000000;stroke-width:50;stroke-linecap:round;stroke-linejoin:round;" transform="scale(1, 1) translate(0, 0)">
    <path d="M 184.0,341.0 L 195.0,348.0 L 294.0,318.0 L 318.0,318.0 L 332.0,332.0 L 314.0,372.0 L 276.0,429.0 L 265.0,463.0 L 271.0,488.0 L 280.0,494.0 L 317.0,563.0 L 324.0,605.0 L 319.0,623.0 L 316.0,629.0 L 280.0,623.0 L 221.0,589.0"/>
    <path d="M 115.0,317.0 L 147.0,354.0 L 157.0,426.0 L 160.0,702.0 L 141.0,932.0 L 148.0,997.0"/>
    <path d="M 452.0,334.0 L 526.0,334.0 L 624.0,311.0 L 704.0,284.0 L 763.0,282.0"/>
    <path d="M 376.0,458.0 L 400.0,478.0 L 410.0,499.0 L 452.0,673.0"/>
    <path d="M 425.0,460.0 L 444.0,468.0 L 702.0,413.0 L 742.0,410.0 L 766.0,417.0 L 794.0,457.0 L 760.0,531.0 L 721.0,641.0"/>
    <path d="M 501.0,560.0 L 642.0,529.0 L 676.0,535.0"/>
    <path d="M 468.0,661.0 L 504.0,648.0 L 685.0,618.0 L 699.0,610.0"/>
    <path d="M 540.0,180.0 L 570.0,201.0 L 595.0,232.0 L 594.0,754.0 L 580.0,972.0 L 582.0,1073.0"/>
    <path d="M 564.0,660.0 L 491.0,766.0 L 413.0,842.0 L 304.0,919.0 L 240.0,948.0"/>
    <path d="M 620.0,655.0 L 628.0,683.0 L 678.0,742.0 L 750.0,819.0 L 822.0,883.0 L 854.0,896.0 L 988.0,919.0"/>
  </g>
</svg>
