<svg xmlns="http://www.w3.org/2000/svg" viewBox="0 0 1024 1024">
  <g style="fill:none;stroke:#000000;stroke-width:50;stroke-linecap:round;stroke-linejoin:round;" transform="scale(1, 1) translate(0, 0)">
    <path d="M 202.0,346.0 L 226.0,350.0 L 300.0,318.0 L 321.0,315.0 L 330.0,315.0 L 345.0,328.0 L 330.0,368.0 L 289.0,436.0 L 284.0,459.0 L 320.0,536.0 L 325.0,560.0 L 322.0,587.0 L 317.0,598.0 L 293.0,595.0 L 239.0,572.0"/>
    <path d="M 134.0,324.0 L 171.0,362.0 L 179.0,422.0 L 178.0,708.0 L 172.0,812.0 L 150.0,939.0 L 151.0,1002.0"/>
    <path d="M 529.0,238.0 L 549.0,257.0 L 557.0,274.0 L 507.0,336.0 L 449.0,393.0 L 443.0,392.0"/>
    <path d="M 391.0,397.0 L 422.0,425.0 L 472.0,666.0"/>
    <path d="M 470.0,527.0 L 483.0,514.0 L 505.0,508.0 L 539.0,502.0 L 561.0,505.0"/>
    <path d="M 591.0,383.0 L 633.0,388.0 L 771.0,358.0 L 792.0,368.0 L 812.0,394.0 L 815.0,401.0 L 789.0,467.0 L 754.0,596.0 L 734.0,647.0"/>
    <path d="M 644.0,499.0 L 729.0,494.0 L 751.0,482.0"/>
    <path d="M 493.0,641.0 L 522.0,629.0 L 715.0,605.0"/>
    <path d="M 449.0,798.0 L 506.0,807.0 L 684.0,772.0 L 739.0,772.0"/>
    <path d="M 555.0,646.0 L 589.0,676.0 L 579.0,897.0 L 561.0,920.0"/>
    <path d="M 286.0,959.0 L 345.0,970.0 L 610.0,941.0 L 818.0,928.0 L 851.0,933.0 L 897.0,950.0"/>
  </g>
</svg>
