<svg xmlns="http://www.w3.org/2000/svg" viewBox="0 0 1024 1024">
  <g style="fill:none;stroke:#000000;stroke-width:50;stroke-linecap:round;stroke-linejoin:round;" transform="scale(1, 1) translate(0, 0)">
    <path d="M 200.0,332.0 L 209.0,339.0 L 226.0,340.0 L 297.0,312.0 L 328.0,311.0 L 341.0,323.0 L 332.0,354.0 L 307.0,398.0 L 296.0,445.0 L 299.0,467.0 L 348.0,543.0 L 355.0,580.0 L 351.0,597.0 L 347.0,606.0 L 320.0,607.0 L 250.0,585.0"/>
    <path d="M 134.0,316.0 L 152.0,330.0 L 176.0,367.0 L 183.0,494.0 L 180.0,726.0 L 170.0,840.0 L 153.0,931.0 L 155.0,994.0"/>
    <path d="M 412.0,341.0 L 444.0,381.0 L 481.0,585.0"/>
    <path d="M 445.0,339.0 L 478.0,348.0 L 693.0,306.0 L 730.0,307.0 L 751.0,317.0 L 772.0,346.0 L 749.0,411.0 L 714.0,555.0"/>
    <path d="M 517.0,452.0 L 555.0,449.0 L 637.0,428.0 L 677.0,431.0"/>
    <path d="M 569.0,349.0 L 590.0,368.0 L 585.0,508.0 L 572.0,522.0"/>
    <path d="M 499.0,560.0 L 532.0,549.0 L 645.0,530.0 L 676.0,528.0 L 693.0,534.0"/>
    <path d="M 332.0,692.0 L 360.0,699.0 L 403.0,694.0 L 564.0,659.0 L 798.0,624.0 L 872.0,638.0"/>
    <path d="M 424.0,709.0 L 451.0,724.0 L 461.0,744.0 L 450.0,924.0 L 456.0,966.0 L 504.0,949.0 L 600.0,887.0"/>
    <path d="M 778.0,720.0 L 743.0,713.0 L 676.0,782.0 L 677.0,790.0"/>
    <path d="M 525.0,689.0 L 552.0,693.0 L 675.0,841.0 L 781.0,935.0 L 914.0,956.0"/>
  </g>
</svg>
