<svg xmlns="http://www.w3.org/2000/svg" viewBox="0 0 1024 1024">
  <g style="fill:none;stroke:#000000;stroke-width:50;stroke-linecap:round;stroke-linejoin:round;" transform="scale(1, 1) translate(0, 0)">
    <path d="M 205.0,329.0 L 216.0,337.0 L 235.0,334.0 L 304.0,310.0 L 324.0,309.0 L 335.0,310.0 L 348.0,323.0 L 339.0,351.0 L 290.0,443.0 L 297.0,473.0 L 341.0,546.0 L 341.0,588.0 L 337.0,595.0 L 313.0,597.0 L 235.0,580.0"/>
    <path d="M 131.0,305.0 L 168.0,340.0 L 181.0,474.0 L 180.0,690.0 L 174.0,791.0 L 152.0,924.0 L 155.0,986.0"/>
    <path d="M 574.0,234.0 L 592.0,245.0 L 614.0,272.0 L 607.0,449.0 L 611.0,508.0 L 619.0,520.0"/>
    <path d="M 484.0,361.0 L 458.0,426.0 L 418.0,493.0"/>
    <path d="M 717.0,343.0 L 805.0,397.0 L 830.0,435.0"/>
    <path d="M 432.0,551.0 L 465.0,589.0 L 500.0,750.0"/>
    <path d="M 476.0,553.0 L 497.0,561.0 L 593.0,542.0 L 632.0,541.0 L 676.0,529.0 L 712.0,529.0 L 735.0,537.0 L 756.0,563.0 L 733.0,669.0 L 716.0,713.0 L 694.0,703.0"/>
    <path d="M 508.0,659.0 L 516.0,651.0 L 619.0,632.0 L 668.0,635.0"/>
    <path d="M 518.0,741.0 L 528.0,731.0 L 648.0,714.0 L 668.0,714.0 L 682.0,721.0"/>
    <path d="M 575.0,742.0 L 599.0,761.0 L 610.0,788.0 L 611.0,916.0 L 601.0,960.0 L 590.0,974.0 L 573.0,971.0 L 488.0,937.0"/>
    <path d="M 442.0,822.0 L 420.0,877.0 L 371.0,955.0"/>
    <path d="M 725.0,808.0 L 836.0,902.0 L 857.0,932.0 L 866.0,967.0"/>
  </g>
</svg>
