<svg xmlns="http://www.w3.org/2000/svg" viewBox="0 0 1024 1024">
  <g style="fill:none;stroke:#000000;stroke-width:50;stroke-linecap:round;stroke-linejoin:round;" transform="scale(1, 1) translate(0, 0)">
    <path d="M 218.0,327.0 L 238.0,331.0 L 326.0,300.0 L 355.0,299.0 L 368.0,312.0 L 361.0,339.0 L 320.0,409.0 L 311.0,456.0 L 369.0,546.0 L 378.0,582.0 L 373.0,606.0 L 344.0,613.0 L 263.0,593.0"/>
    <path d="M 150.0,308.0 L 173.0,329.0 L 188.0,355.0 L 193.0,415.0 L 193.0,799.0 L 177.0,943.0 L 184.0,1024.0"/>
    <path d="M 487.0,278.0 L 547.0,326.0 L 567.0,366.0"/>
    <path d="M 733.0,209.0 L 761.0,246.0 L 661.0,354.0"/>
    <path d="M 478.0,461.0 L 537.0,466.0 L 749.0,422.0 L 792.0,422.0"/>
    <path d="M 581.0,546.0 L 557.0,550.0 L 532.0,585.0 L 490.0,627.0 L 417.0,675.0"/>
    <path d="M 673.0,524.0 L 795.0,582.0 L 834.0,615.0 L 847.0,637.0"/>
    <path d="M 398.0,734.0 L 425.0,752.0 L 441.0,780.0 L 467.0,900.0 L 482.0,906.0"/>
    <path d="M 447.0,735.0 L 469.0,746.0 L 754.0,696.0 L 800.0,698.0 L 824.0,723.0 L 827.0,736.0 L 789.0,859.0 L 760.0,882.0"/>
    <path d="M 558.0,752.0 L 551.0,763.0 L 557.0,770.0 L 574.0,893.0 L 584.0,904.0"/>
    <path d="M 656.0,727.0 L 688.0,755.0 L 667.0,863.0 L 651.0,899.0"/>
    <path d="M 338.0,937.0 L 385.0,947.0 L 609.0,922.0 L 850.0,907.0 L 883.0,910.0 L 938.0,928.0"/>
  </g>
</svg>
