<svg xmlns="http://www.w3.org/2000/svg" viewBox="0 0 1024 1024">
  <g style="fill:none;stroke:#000000;stroke-width:50;stroke-linecap:round;stroke-linejoin:round;" transform="scale(1, 1) translate(0, 0)">
    <path d="M 191.0,333.0 L 205.0,342.0 L 270.0,319.0 L 304.0,315.0 L 324.0,328.0 L 310.0,369.0 L 279.0,424.0 L 269.0,463.0 L 318.0,546.0 L 331.0,599.0 L 322.0,628.0 L 309.0,630.0 L 197.0,615.0"/>
    <path d="M 118.0,313.0 L 148.0,340.0 L 161.0,366.0 L 171.0,531.0 L 170.0,766.0 L 167.0,830.0 L 149.0,950.0 L 151.0,1006.0"/>
    <path d="M 533.0,203.0 L 623.0,244.0 L 653.0,279.0"/>
    <path d="M 453.0,362.0 L 482.0,367.0 L 538.0,362.0 L 713.0,322.0 L 777.0,317.0"/>
    <path d="M 630.0,376.0 L 649.0,395.0 L 630.0,434.0 L 593.0,483.0 L 540.0,524.0 L 487.0,552.0"/>
    <path d="M 504.0,426.0 L 645.0,479.0 L 674.0,497.0 L 701.0,528.0"/>
    <path d="M 461.0,598.0 L 476.0,606.0 L 515.0,607.0 L 772.0,559.0 L 810.0,560.0"/>
    <path d="M 399.0,574.0 L 429.0,611.0 L 416.0,720.0 L 397.0,802.0 L 368.0,888.0 L 341.0,940.0 L 299.0,1004.0 L 269.0,1036.0"/>
    <path d="M 495.0,681.0 L 516.0,707.0 L 512.0,719.0 L 482.0,788.0 L 441.0,838.0"/>
    <path d="M 522.0,769.0 L 533.0,762.0 L 567.0,765.0 L 610.0,759.0 L 740.0,729.0 L 771.0,733.0"/>
    <path d="M 497.0,880.0 L 529.0,880.0 L 715.0,844.0 L 758.0,850.0"/>
    <path d="M 605.0,639.0 L 634.0,677.0 L 631.0,930.0 L 614.0,953.0"/>
    <path d="M 398.0,995.0 L 450.0,1004.0 L 791.0,964.0 L 827.0,965.0 L 887.0,983.0"/>
  </g>
</svg>
