<svg xmlns="http://www.w3.org/2000/svg" viewBox="0 0 1024 1024">
  <g style="fill:none;stroke:#000000;stroke-width:50;stroke-linecap:round;stroke-linejoin:round;" transform="scale(1, 1) translate(0, 0)">
    <path d="M 184.0,335.0 L 194.0,341.0 L 280.0,303.0 L 305.0,301.0 L 321.0,313.0 L 309.0,347.0 L 269.0,406.0 L 258.0,434.0 L 264.0,463.0 L 297.0,516.0 L 300.0,541.0 L 294.0,561.0 L 216.0,554.0"/>
    <path d="M 119.0,316.0 L 150.0,350.0 L 160.0,435.0 L 153.0,805.0 L 140.0,945.0 L 144.0,994.0"/>
    <path d="M 544.0,179.0 L 561.0,192.0 L 582.0,225.0 L 525.0,350.0 L 407.0,538.0 L 339.0,622.0 L 299.0,661.0"/>
    <path d="M 588.0,294.0 L 602.0,296.0 L 731.0,442.0 L 821.0,512.0 L 841.0,522.0 L 976.0,537.0"/>
    <path d="M 465.0,511.0 L 487.0,517.0 L 525.0,516.0 L 642.0,488.0 L 684.0,488.0"/>
    <path d="M 339.0,649.0 L 352.0,653.0 L 365.0,668.0 L 389.0,783.0"/>
    <path d="M 386.0,663.0 L 394.0,653.0 L 470.0,630.0 L 489.0,635.0 L 503.0,651.0 L 487.0,707.0 L 468.0,716.0"/>
    <path d="M 403.0,768.0 L 420.0,755.0 L 468.0,743.0 L 517.0,745.0"/>
    <path d="M 575.0,608.0 L 603.0,637.0 L 629.0,747.0"/>
    <path d="M 613.0,609.0 L 628.0,614.0 L 717.0,591.0 L 751.0,596.0 L 763.0,609.0 L 762.0,627.0 L 743.0,674.0 L 719.0,690.0"/>
    <path d="M 646.0,732.0 L 661.0,721.0 L 717.0,712.0 L 768.0,716.0"/>
    <path d="M 429.0,790.0 L 447.0,826.0 L 407.0,892.0 L 345.0,954.0 L 271.0,1000.0"/>
    <path d="M 448.0,881.0 L 509.0,911.0 L 524.0,923.0 L 535.0,944.0"/>
    <path d="M 667.0,765.0 L 687.0,791.0 L 672.0,828.0 L 619.0,893.0 L 581.0,926.0"/>
    <path d="M 678.0,867.0 L 711.0,879.0 L 798.0,943.0 L 824.0,971.0 L 843.0,1011.0"/>
  </g>
</svg>
