<svg xmlns="http://www.w3.org/2000/svg" viewBox="0 0 1024 1024">
  <g style="fill:none;stroke:#000000;stroke-width:50;stroke-linecap:round;stroke-linejoin:round;" transform="scale(1, 1) translate(0, 0)">
    <path d="M 210.0,313.0 L 219.0,321.0 L 238.0,321.0 L 310.0,293.0 L 329.0,291.0 L 344.0,294.0 L 353.0,304.0 L 303.0,425.0 L 308.0,445.0 L 354.0,517.0 L 358.0,541.0 L 353.0,563.0 L 297.0,559.0 L 247.0,545.0"/>
    <path d="M 148.0,300.0 L 186.0,344.0 L 198.0,518.0 L 194.0,723.0 L 186.0,818.0 L 169.0,919.0 L 171.0,979.0"/>
    <path d="M 432.0,275.0 L 464.0,313.0 L 503.0,481.0"/>
    <path d="M 462.0,275.0 L 501.0,281.0 L 663.0,248.0 L 700.0,248.0 L 718.0,255.0 L 738.0,282.0 L 718.0,338.0 L 690.0,455.0"/>
    <path d="M 509.0,377.0 L 513.0,370.0 L 609.0,352.0 L 649.0,355.0"/>
    <path d="M 517.0,473.0 L 534.0,461.0 L 625.0,445.0 L 656.0,442.0 L 664.0,452.0"/>
    <path d="M 441.0,509.0 L 456.0,544.0 L 382.0,646.0 L 374.0,671.0 L 447.0,674.0 L 472.0,662.0"/>
    <path d="M 533.0,564.0 L 547.0,593.0 L 488.0,676.0 L 429.0,744.0 L 418.0,775.0 L 433.0,783.0 L 450.0,782.0 L 526.0,760.0 L 531.0,766.0"/>
    <path d="M 528.0,714.0 L 559.0,760.0 L 567.0,782.0"/>
    <path d="M 665.0,493.0 L 681.0,528.0 L 613.0,630.0 L 605.0,655.0 L 652.0,659.0 L 689.0,654.0 L 701.0,646.0"/>
    <path d="M 764.0,542.0 L 780.0,575.0 L 725.0,651.0 L 658.0,728.0 L 655.0,754.0 L 687.0,759.0 L 776.0,735.0 L 782.0,742.0"/>
    <path d="M 769.0,686.0 L 822.0,748.0 L 831.0,780.0"/>
    <path d="M 372.0,864.0 L 363.0,925.0 L 335.0,1004.0"/>
    <path d="M 482.0,867.0 L 538.0,943.0 L 542.0,975.0"/>
    <path d="M 619.0,855.0 L 670.0,908.0 L 688.0,950.0"/>
    <path d="M 752.0,833.0 L 852.0,936.0 L 872.0,986.0 L 870.0,999.0"/>
  </g>
</svg>
