<svg xmlns="http://www.w3.org/2000/svg" viewBox="0 0 1024 1024">
  <g style="fill:none;stroke:#000000;stroke-width:50;stroke-linecap:round;stroke-linejoin:round;" transform="scale(1, 1) translate(0, 0)">
    <path d="M 182.0,342.0 L 192.0,348.0 L 292.0,318.0 L 313.0,331.0 L 305.0,356.0 L 257.0,436.0 L 252.0,459.0 L 298.0,550.0 L 303.0,578.0 L 299.0,603.0 L 295.0,610.0 L 269.0,608.0 L 218.0,587.0"/>
    <path d="M 114.0,320.0 L 148.0,355.0 L 162.0,483.0 L 161.0,794.0 L 139.0,943.0 L 138.0,1015.0"/>
    <path d="M 433.0,233.0 L 506.0,270.0 L 524.0,298.0"/>
    <path d="M 387.0,385.0 L 456.0,382.0 L 560.0,349.0 L 604.0,344.0"/>
    <path d="M 386.0,429.0 L 413.0,457.0 L 424.0,480.0"/>
    <path d="M 518.0,386.0 L 537.0,406.0 L 511.0,473.0 L 498.0,484.0"/>
    <path d="M 334.0,530.0 L 372.0,534.0 L 551.0,492.0 L 601.0,495.0"/>
    <path d="M 359.0,591.0 L 381.0,623.0 L 382.0,710.0 L 372.0,825.0 L 345.0,970.0"/>
    <path d="M 399.0,596.0 L 409.0,603.0 L 426.0,600.0 L 488.0,580.0 L 503.0,585.0 L 523.0,605.0 L 518.0,697.0 L 525.0,912.0 L 519.0,948.0 L 504.0,975.0 L 443.0,943.0 L 425.0,941.0"/>
    <path d="M 401.0,712.0 L 409.0,701.0 L 420.0,698.0 L 466.0,699.0"/>
    <path d="M 395.0,809.0 L 401.0,799.0 L 420.0,794.0 L 466.0,795.0"/>
    <path d="M 720.0,345.0 L 813.0,324.0 L 865.0,322.0"/>
    <path d="M 665.0,244.0 L 699.0,275.0 L 684.0,457.0 L 728.0,457.0 L 782.0,442.0 L 811.0,447.0 L 822.0,461.0 L 795.0,533.0 L 769.0,556.0"/>
    <path d="M 654.0,588.0 L 671.0,593.0 L 784.0,572.0 L 820.0,576.0"/>
    <path d="M 607.0,579.0 L 628.0,601.0 L 633.0,617.0 L 624.0,758.0 L 629.0,886.0 L 643.0,939.0 L 670.0,976.0 L 724.0,1002.0 L 765.0,1009.0 L 830.0,1010.0 L 901.0,994.0 L 945.0,959.0 L 938.0,833.0"/>
    <path d="M 653.0,690.0 L 666.0,682.0 L 802.0,668.0"/>
    <path d="M 651.0,762.0 L 662.0,770.0 L 791.0,757.0 L 810.0,762.0"/>
    <path d="M 649.0,851.0 L 657.0,858.0 L 701.0,858.0 L 763.0,848.0 L 814.0,848.0"/>
  </g>
</svg>
