<svg xmlns="http://www.w3.org/2000/svg" viewBox="0 0 1024 1024">
  <g style="fill:none;stroke:#000000;stroke-width:50;stroke-linecap:round;stroke-linejoin:round;" transform="scale(1, 1) translate(0, 0)">
    <path d="M 173.0,391.0 L 184.0,433.0 L 166.0,478.0 L 161.0,513.0"/>
    <path d="M 213.0,414.0 L 229.0,420.0 L 422.0,365.0 L 465.0,369.0 L 479.0,389.0 L 429.0,441.0"/>
    <path d="M 315.0,233.0 L 340.0,248.0 L 357.0,268.0 L 288.0,483.0 L 255.0,557.0 L 203.0,643.0 L 133.0,723.0 L 84.0,764.0"/>
    <path d="M 211.0,562.0 L 243.0,616.0 L 246.0,644.0 L 240.0,825.0 L 228.0,935.0 L 235.0,983.0"/>
    <path d="M 352.0,461.0 L 406.0,492.0 L 420.0,512.0"/>
    <path d="M 295.0,571.0 L 349.0,572.0 L 444.0,543.0 L 480.0,541.0"/>
    <path d="M 308.0,677.0 L 426.0,649.0 L 465.0,652.0"/>
    <path d="M 300.0,761.0 L 432.0,729.0 L 469.0,732.0"/>
    <path d="M 368.0,590.0 L 389.0,606.0 L 393.0,627.0 L 387.0,785.0 L 372.0,809.0"/>
    <path d="M 272.0,844.0 L 281.0,852.0 L 417.0,822.0 L 450.0,818.0 L 477.0,823.0"/>
  </g>
</svg>
