<svg xmlns="http://www.w3.org/2000/svg" viewBox="0 0 1024 1024">
  <g style="fill:none;stroke:#000000;stroke-width:50;stroke-linecap:round;stroke-linejoin:round;" transform="scale(1, 1) translate(0, 0)">
    <path d="M 164.0,477.0 L 229.0,474.0 L 325.0,443.0 L 356.0,443.0 L 377.0,451.0 L 341.0,599.0 L 310.0,674.0 L 282.0,722.0 L 235.0,774.0 L 177.0,817.0 L 113.0,844.0 L 85.0,847.0"/>
    <path d="M 166.0,578.0 L 328.0,708.0 L 390.0,774.0 L 410.0,818.0"/>
    <path d="M 563.0,199.0 L 599.0,240.0 L 581.0,294.0 L 519.0,424.0 L 458.0,520.0 L 421.0,562.0"/>
    <path d="M 515.0,474.0 L 533.0,531.0 L 538.0,629.0 L 530.0,875.0 L 519.0,969.0 L 526.0,1036.0"/>
    <path d="M 677.0,283.0 L 746.0,327.0 L 775.0,367.0"/>
    <path d="M 592.0,475.0 L 621.0,480.0 L 665.0,476.0 L 747.0,458.0 L 826.0,432.0 L 870.0,433.0"/>
    <path d="M 620.0,613.0 L 681.0,614.0 L 797.0,582.0 L 848.0,579.0"/>
    <path d="M 620.0,731.0 L 682.0,735.0 L 800.0,704.0 L 846.0,705.0"/>
    <path d="M 704.0,491.0 L 735.0,516.0 L 734.0,833.0 L 718.0,855.0"/>
    <path d="M 566.0,893.0 L 574.0,903.0 L 591.0,904.0 L 870.0,860.0 L 894.0,860.0 L 954.0,876.0"/>
  </g>
</svg>
