<svg xmlns="http://www.w3.org/2000/svg" viewBox="0 0 1024 1024">
  <g style="fill:none;stroke:#000000;stroke-width:50;stroke-linecap:round;stroke-linejoin:round;" transform="scale(1, 1) translate(0, 0)">
    <path d="M 362.0,189.0 L 376.0,199.0 L 394.0,230.0 L 333.0,342.0 L 283.0,409.0 L 230.0,465.0 L 170.0,515.0 L 123.0,539.0 L 120.0,546.0"/>
    <path d="M 349.0,369.0 L 361.0,419.0 L 356.0,518.0 L 341.0,634.0 L 347.0,691.0"/>
    <path d="M 511.0,173.0 L 580.0,210.0 L 609.0,247.0"/>
    <path d="M 429.0,337.0 L 462.0,342.0 L 509.0,338.0 L 723.0,294.0 L 771.0,290.0"/>
    <path d="M 444.0,446.0 L 503.0,449.0 L 619.0,426.0 L 708.0,397.0 L 747.0,399.0"/>
    <path d="M 448.0,538.0 L 476.0,543.0 L 543.0,538.0 L 711.0,497.0 L 750.0,499.0"/>
    <path d="M 555.0,355.0 L 582.0,379.0 L 583.0,395.0 L 581.0,580.0 L 564.0,604.0"/>
    <path d="M 378.0,661.0 L 508.0,634.0 L 738.0,604.0 L 780.0,605.0 L 826.0,617.0"/>
    <path d="M 196.0,779.0 L 227.0,809.0 L 237.0,833.0 L 253.0,1008.0 L 267.0,1051.0"/>
    <path d="M 259.0,791.0 L 274.0,801.0 L 373.0,760.0 L 414.0,758.0 L 428.0,779.0 L 421.0,860.0 L 428.0,890.0 L 455.0,889.0 L 571.0,858.0 L 610.0,857.0 L 629.0,863.0"/>
    <path d="M 577.0,699.0 L 606.0,747.0 L 599.0,820.0 L 611.0,841.0"/>
    <path d="M 638.0,721.0 L 652.0,732.0 L 766.0,708.0 L 802.0,715.0 L 817.0,729.0 L 802.0,943.0 L 778.0,1023.0 L 761.0,1044.0 L 744.0,1052.0 L 633.0,997.0"/>
  </g>
</svg>
