<svg xmlns="http://www.w3.org/2000/svg" viewBox="0 0 1024 1024">
  <g style="fill:none;stroke:#000000;stroke-width:50;stroke-linecap:round;stroke-linejoin:round;" transform="scale(1, 1) translate(0, 0)">
    <path d="M 262.0,246.0 L 275.0,255.0 L 297.0,290.0 L 266.0,358.0 L 216.0,443.0 L 148.0,538.0 L 78.0,610.0"/>
    <path d="M 192.0,519.0 L 196.0,547.0 L 215.0,579.0 L 220.0,616.0 L 213.0,845.0 L 204.0,943.0 L 210.0,1008.0"/>
    <path d="M 344.0,334.0 L 406.0,374.0 L 430.0,411.0"/>
    <path d="M 264.0,517.0 L 319.0,519.0 L 446.0,483.0 L 488.0,484.0"/>
    <path d="M 283.0,661.0 L 436.0,628.0 L 468.0,633.0"/>
    <path d="M 279.0,769.0 L 350.0,758.0 L 434.0,735.0 L 462.0,732.0 L 484.0,737.0"/>
    <path d="M 353.0,537.0 L 379.0,552.0 L 387.0,568.0 L 385.0,831.0 L 368.0,852.0"/>
    <path d="M 245.0,914.0 L 266.0,898.0 L 436.0,864.0 L 476.0,859.0 L 515.0,864.0"/>
    <path d="M 617.0,229.0 L 642.0,251.0 L 652.0,275.0 L 638.0,313.0 L 557.0,460.0 L 510.0,528.0 L 486.0,550.0"/>
    <path d="M 549.0,517.0 L 552.0,536.0 L 578.0,583.0 L 579.0,787.0 L 567.0,949.0 L 574.0,1016.0"/>
    <path d="M 705.0,322.0 L 765.0,364.0 L 789.0,403.0"/>
    <path d="M 636.0,503.0 L 659.0,508.0 L 702.0,505.0 L 831.0,470.0 L 876.0,469.0"/>
    <path d="M 653.0,644.0 L 811.0,614.0 L 845.0,612.0 L 867.0,618.0"/>
    <path d="M 650.0,752.0 L 690.0,750.0 L 823.0,724.0 L 874.0,729.0"/>
    <path d="M 721.0,529.0 L 746.0,543.0 L 755.0,557.0 L 756.0,573.0 L 753.0,833.0 L 737.0,857.0"/>
    <path d="M 612.0,894.0 L 621.0,902.0 L 640.0,902.0 L 846.0,866.0 L 907.0,869.0 L 938.0,878.0"/>
  </g>
</svg>
