<svg xmlns="http://www.w3.org/2000/svg" viewBox="0 0 1024 1024">
  <g style="fill:none;stroke:#000000;stroke-width:50;stroke-linecap:round;stroke-linejoin:round;" transform="scale(1, 1) translate(0, 0)">
    <path d="M 309.0,208.0 L 333.0,240.0 L 320.0,271.0 L 272.0,349.0 L 232.0,390.0"/>
    <path d="M 294.0,346.0 L 457.0,321.0 L 482.0,327.0 L 498.0,344.0 L 486.0,463.0 L 461.0,539.0 L 444.0,556.0 L 404.0,535.0 L 392.0,536.0"/>
    <path d="M 188.0,429.0 L 201.0,450.0 L 194.0,507.0 L 204.0,512.0 L 359.0,467.0 L 367.0,457.0"/>
    <path d="M 385.0,394.0 L 399.0,419.0 L 383.0,493.0"/>
    <path d="M 276.0,384.0 L 298.0,410.0 L 277.0,512.0 L 239.0,583.0 L 189.0,624.0 L 179.0,624.0"/>
    <path d="M 256.0,601.0 L 258.0,620.0 L 252.0,634.0 L 199.0,707.0"/>
    <path d="M 273.0,646.0 L 426.0,633.0 L 450.0,643.0 L 464.0,660.0 L 444.0,840.0 L 418.0,912.0 L 390.0,943.0 L 336.0,912.0 L 333.0,904.0 L 320.0,905.0"/>
    <path d="M 155.0,743.0 L 167.0,769.0 L 156.0,839.0 L 174.0,841.0 L 315.0,793.0 L 334.0,780.0"/>
    <path d="M 353.0,717.0 L 364.0,745.0 L 349.0,799.0 L 347.0,830.0"/>
    <path d="M 235.0,697.0 L 258.0,730.0 L 248.0,825.0 L 223.0,907.0 L 177.0,976.0 L 138.0,1006.0 L 123.0,1010.0"/>
    <path d="M 641.0,193.0 L 665.0,211.0 L 677.0,231.0 L 664.0,277.0 L 580.0,457.0 L 546.0,511.0 L 521.0,538.0"/>
    <path d="M 591.0,485.0 L 593.0,517.0 L 605.0,539.0 L 606.0,626.0 L 594.0,851.0 L 579.0,978.0 L 586.0,1028.0"/>
    <path d="M 730.0,321.0 L 795.0,355.0 L 819.0,386.0"/>
    <path d="M 653.0,501.0 L 676.0,507.0 L 719.0,505.0 L 784.0,495.0 L 877.0,468.0 L 931.0,467.0"/>
    <path d="M 672.0,626.0 L 681.0,631.0 L 733.0,631.0 L 857.0,602.0 L 898.0,603.0"/>
    <path d="M 669.0,750.0 L 678.0,755.0 L 732.0,756.0 L 858.0,729.0 L 904.0,730.0"/>
    <path d="M 738.0,526.0 L 771.0,552.0 L 766.0,834.0 L 749.0,858.0"/>
    <path d="M 626.0,908.0 L 633.0,902.0 L 895.0,860.0 L 918.0,859.0 L 974.0,871.0"/>
  </g>
</svg>
