<svg xmlns="http://www.w3.org/2000/svg" viewBox="0 0 1024 1024">
  <g style="fill:none;stroke:#000000;stroke-width:50;stroke-linecap:round;stroke-linejoin:round;" transform="scale(1, 1) translate(0, 0)">
    <path d="M 228.0,254.0 L 248.0,272.0 L 258.0,294.0 L 223.0,372.0 L 124.0,524.0 L 58.0,592.0"/>
    <path d="M 165.0,504.0 L 184.0,565.0 L 188.0,641.0 L 185.0,774.0 L 172.0,907.0 L 179.0,955.0"/>
    <path d="M 319.0,317.0 L 355.0,341.0 L 371.0,362.0"/>
    <path d="M 231.0,463.0 L 283.0,463.0 L 356.0,440.0 L 411.0,434.0"/>
    <path d="M 240.0,604.0 L 358.0,575.0 L 397.0,578.0"/>
    <path d="M 231.0,709.0 L 359.0,675.0 L 401.0,677.0"/>
    <path d="M 288.0,485.0 L 310.0,496.0 L 317.0,520.0 L 313.0,755.0 L 309.0,774.0 L 299.0,783.0"/>
    <path d="M 209.0,837.0 L 223.0,823.0 L 286.0,813.0 L 361.0,791.0 L 414.0,792.0"/>
    <path d="M 449.0,251.0 L 525.0,306.0 L 550.0,344.0"/>
    <path d="M 375.0,494.0 L 418.0,500.0 L 485.0,472.0 L 520.0,471.0 L 528.0,480.0 L 497.0,725.0 L 501.0,788.0 L 531.0,776.0 L 594.0,714.0"/>
    <path d="M 652.0,224.0 L 672.0,236.0 L 689.0,257.0 L 680.0,302.0 L 616.0,470.0 L 584.0,531.0 L 560.0,563.0"/>
    <path d="M 617.0,513.0 L 634.0,548.0 L 638.0,621.0 L 636.0,834.0 L 623.0,952.0 L 628.0,1019.0"/>
    <path d="M 753.0,300.0 L 803.0,339.0 L 816.0,357.0"/>
    <path d="M 679.0,459.0 L 734.0,461.0 L 821.0,435.0 L 877.0,428.0"/>
    <path d="M 699.0,608.0 L 814.0,576.0 L 850.0,570.0 L 872.0,573.0"/>
    <path d="M 692.0,712.0 L 838.0,675.0 L 881.0,678.0"/>
    <path d="M 750.0,480.0 L 776.0,500.0 L 777.0,513.0 L 777.0,796.0 L 762.0,820.0"/>
    <path d="M 662.0,866.0 L 852.0,829.0 L 901.0,831.0 L 930.0,840.0"/>
  </g>
</svg>
