<svg xmlns="http://www.w3.org/2000/svg" viewBox="0 0 1024 1024">
  <g style="fill:none;stroke:#000000;stroke-width:50;stroke-linecap:round;stroke-linejoin:round;" transform="scale(1, 1) translate(0, 0)">
    <path d="M 288.0,206.0 L 364.0,237.0 L 397.0,271.0"/>
    <path d="M 204.0,387.0 L 280.0,386.0 L 443.0,344.0 L 489.0,342.0"/>
    <path d="M 245.0,441.0 L 260.0,468.0 L 230.0,532.0 L 184.0,588.0 L 133.0,627.0"/>
    <path d="M 264.0,530.0 L 265.0,537.0 L 303.0,569.0"/>
    <path d="M 410.0,409.0 L 429.0,433.0 L 410.0,486.0 L 387.0,527.0 L 351.0,563.0"/>
    <path d="M 429.0,503.0 L 431.0,511.0 L 458.0,522.0 L 475.0,541.0"/>
    <path d="M 76.0,716.0 L 108.0,725.0 L 140.0,725.0 L 427.0,665.0 L 473.0,662.0 L 494.0,667.0"/>
    <path d="M 318.0,614.0 L 348.0,652.0 L 346.0,916.0 L 324.0,957.0 L 244.0,914.0"/>
    <path d="M 196.0,785.0 L 181.0,837.0 L 141.0,916.0"/>
    <path d="M 408.0,770.0 L 467.0,815.0 L 485.0,851.0"/>
    <path d="M 605.0,227.0 L 618.0,234.0 L 642.0,265.0 L 627.0,328.0 L 552.0,506.0 L 492.0,598.0"/>
    <path d="M 561.0,529.0 L 579.0,593.0 L 581.0,701.0 L 579.0,820.0 L 564.0,995.0 L 570.0,1060.0"/>
    <path d="M 718.0,313.0 L 792.0,351.0 L 810.0,378.0"/>
    <path d="M 628.0,489.0 L 684.0,491.0 L 763.0,473.0 L 775.0,464.0 L 859.0,441.0 L 899.0,440.0"/>
    <path d="M 643.0,610.0 L 680.0,615.0 L 840.0,577.0 L 881.0,574.0"/>
    <path d="M 648.0,730.0 L 712.0,733.0 L 851.0,696.0 L 897.0,694.0"/>
    <path d="M 718.0,505.0 L 748.0,526.0 L 751.0,548.0 L 746.0,807.0 L 729.0,830.0"/>
    <path d="M 608.0,863.0 L 618.0,872.0 L 630.0,873.0 L 903.0,835.0 L 953.0,839.0 L 985.0,850.0"/>
  </g>
</svg>
