<svg xmlns="http://www.w3.org/2000/svg" viewBox="0 0 1024 1024">
  <g style="fill:none;stroke:#000000;stroke-width:50;stroke-linecap:round;stroke-linejoin:round;" transform="scale(1, 1) translate(0, 0)">
    <path d="M 219.0,253.0 L 237.0,270.0 L 243.0,294.0 L 216.0,337.0 L 170.0,392.0 L 164.0,409.0 L 179.0,425.0 L 227.0,453.0 L 238.0,466.0 L 243.0,485.0"/>
    <path d="M 329.0,238.0 L 342.0,248.0 L 352.0,276.0 L 280.0,382.0 L 295.0,401.0 L 348.0,438.0 L 355.0,458.0"/>
    <path d="M 449.0,228.0 L 466.0,245.0 L 471.0,268.0 L 396.0,367.0 L 409.0,385.0 L 461.0,423.0 L 471.0,452.0"/>
    <path d="M 168.0,527.0 L 199.0,560.0 L 224.0,678.0"/>
    <path d="M 222.0,532.0 L 231.0,539.0 L 374.0,506.0 L 392.0,507.0 L 420.0,533.0 L 402.0,577.0 L 380.0,593.0"/>
    <path d="M 240.0,648.0 L 250.0,640.0 L 365.0,617.0 L 427.0,621.0"/>
    <path d="M 198.0,729.0 L 220.0,715.0 L 412.0,675.0 L 426.0,680.0 L 447.0,703.0 L 425.0,757.0 L 404.0,769.0"/>
    <path d="M 286.0,720.0 L 303.0,737.0 L 300.0,779.0 L 284.0,790.0"/>
    <path d="M 188.0,843.0 L 207.0,834.0 L 382.0,800.0 L 450.0,804.0"/>
    <path d="M 149.0,697.0 L 167.0,717.0 L 172.0,740.0 L 165.0,847.0 L 170.0,905.0 L 183.0,939.0 L 217.0,964.0 L 249.0,976.0 L 318.0,983.0 L 387.0,975.0 L 433.0,959.0 L 465.0,928.0 L 462.0,841.0"/>
    <path d="M 591.0,289.0 L 603.0,297.0 L 622.0,329.0 L 608.0,368.0 L 539.0,494.0 L 496.0,557.0 L 462.0,591.0"/>
    <path d="M 559.0,509.0 L 572.0,538.0 L 574.0,761.0 L 568.0,959.0 L 581.0,1034.0"/>
    <path d="M 697.0,323.0 L 775.0,367.0 L 797.0,397.0"/>
    <path d="M 636.0,509.0 L 695.0,510.0 L 828.0,473.0 L 875.0,472.0"/>
    <path d="M 639.0,661.0 L 825.0,620.0 L 856.0,625.0"/>
    <path d="M 636.0,765.0 L 680.0,760.0 L 817.0,727.0 L 850.0,724.0 L 871.0,729.0"/>
    <path d="M 713.0,532.0 L 743.0,556.0 L 738.0,843.0 L 722.0,866.0"/>
    <path d="M 607.0,902.0 L 617.0,911.0 L 633.0,910.0 L 874.0,871.0 L 943.0,885.0"/>
  </g>
</svg>
