<svg xmlns="http://www.w3.org/2000/svg" viewBox="0 0 1024 1024">
  <g style="fill:none;stroke:#000000;stroke-width:50;stroke-linecap:round;stroke-linejoin:round;" transform="scale(1, 1) translate(0, 0)">
    <path d="M 339.0,257.0 L 378.0,264.0 L 443.0,259.0 L 607.0,225.0 L 664.0,226.0"/>
    <path d="M 208.0,358.0 L 217.0,390.0 L 212.0,415.0 L 164.0,498.0 L 159.0,546.0"/>
    <path d="M 246.0,389.0 L 261.0,399.0 L 285.0,398.0 L 436.0,367.0 L 741.0,328.0 L 784.0,351.0 L 792.0,369.0 L 739.0,446.0 L 728.0,451.0"/>
    <path d="M 463.0,281.0 L 494.0,304.0 L 497.0,315.0 L 482.0,546.0 L 485.0,580.0"/>
    <path d="M 306.0,444.0 L 369.0,456.0 L 388.0,466.0"/>
    <path d="M 297.0,526.0 L 340.0,534.0 L 372.0,551.0"/>
    <path d="M 573.0,401.0 L 634.0,410.0 L 663.0,422.0"/>
    <path d="M 566.0,489.0 L 630.0,506.0 L 656.0,523.0"/>
    <path d="M 402.0,616.0 L 375.0,623.0 L 333.0,671.0 L 256.0,733.0 L 183.0,771.0"/>
    <path d="M 415.0,637.0 L 624.0,603.0 L 639.0,604.0 L 662.0,624.0 L 642.0,757.0 L 627.0,805.0 L 612.0,831.0 L 585.0,857.0 L 508.0,818.0"/>
    <path d="M 325.0,744.0 L 342.0,750.0 L 424.0,725.0 L 455.0,727.0 L 473.0,749.0 L 472.0,757.0 L 455.0,797.0 L 429.0,813.0"/>
    <path d="M 324.0,864.0 L 346.0,851.0 L 404.0,840.0 L 466.0,836.0 L 487.0,841.0"/>
    <path d="M 281.0,744.0 L 300.0,757.0 L 308.0,777.0 L 299.0,924.0 L 314.0,980.0 L 326.0,996.0 L 359.0,1018.0 L 399.0,1033.0 L 451.0,1042.0 L 556.0,1047.0 L 639.0,1039.0 L 730.0,1018.0 L 782.0,997.0 L 834.0,959.0 L 848.0,821.0"/>
  </g>
</svg>
