<svg xmlns="http://www.w3.org/2000/svg" viewBox="0 0 1024 1024">
  <g style="fill:none;stroke:#000000;stroke-width:50;stroke-linecap:round;stroke-linejoin:round;" transform="scale(1, 1) translate(0, 0)">
    <path d="M 378.0,224.0 L 439.0,232.0 L 629.0,199.0 L 680.0,200.0"/>
    <path d="M 228.0,331.0 L 238.0,358.0 L 235.0,386.0 L 196.0,446.0 L 191.0,497.0"/>
    <path d="M 266.0,356.0 L 275.0,366.0 L 287.0,368.0 L 638.0,313.0 L 753.0,305.0 L 782.0,316.0 L 802.0,343.0 L 734.0,421.0"/>
    <path d="M 475.0,251.0 L 506.0,277.0 L 506.0,398.0 L 497.0,500.0 L 502.0,533.0"/>
    <path d="M 333.0,417.0 L 396.0,434.0 L 414.0,448.0"/>
    <path d="M 328.0,500.0 L 373.0,513.0 L 406.0,532.0"/>
    <path d="M 587.0,379.0 L 633.0,391.0 L 666.0,409.0"/>
    <path d="M 582.0,467.0 L 643.0,491.0 L 667.0,508.0"/>
    <path d="M 364.0,617.0 L 381.0,629.0 L 409.0,630.0 L 671.0,579.0 L 711.0,580.0"/>
    <path d="M 302.0,596.0 L 328.0,629.0 L 330.0,649.0 L 312.0,736.0 L 280.0,832.0 L 261.0,871.0 L 218.0,930.0 L 161.0,975.0 L 112.0,996.0"/>
    <path d="M 358.0,772.0 L 404.0,782.0 L 684.0,727.0 L 702.0,728.0 L 726.0,748.0 L 725.0,775.0 L 698.0,885.0 L 671.0,951.0 L 637.0,992.0 L 615.0,1001.0 L 527.0,946.0"/>
    <path d="M 506.0,667.0 L 531.0,699.0 L 507.0,791.0 L 486.0,838.0 L 455.0,891.0 L 403.0,956.0 L 359.0,997.0 L 314.0,1028.0"/>
  </g>
</svg>
