<svg xmlns="http://www.w3.org/2000/svg" viewBox="0 0 1024 1024">
  <g style="fill:none;stroke:#000000;stroke-width:50;stroke-linecap:round;stroke-linejoin:round;" transform="scale(1, 1) translate(0, 0)">
    <path d="M 387.0,257.0 L 409.0,263.0 L 475.0,262.0 L 623.0,229.0 L 684.0,230.0"/>
    <path d="M 224.0,375.0 L 233.0,393.0 L 235.0,423.0 L 188.0,521.0 L 183.0,574.0"/>
    <path d="M 266.0,410.0 L 286.0,419.0 L 312.0,418.0 L 442.0,392.0 L 747.0,349.0 L 806.0,347.0 L 821.0,352.0 L 845.0,367.0 L 857.0,391.0 L 769.0,482.0"/>
    <path d="M 480.0,286.0 L 512.0,308.0 L 518.0,326.0 L 509.0,621.0"/>
    <path d="M 343.0,469.0 L 385.0,485.0 L 417.0,509.0"/>
    <path d="M 328.0,576.0 L 385.0,596.0 L 410.0,614.0"/>
    <path d="M 618.0,443.0 L 679.0,461.0 L 702.0,477.0"/>
    <path d="M 613.0,548.0 L 676.0,570.0 L 702.0,588.0"/>
    <path d="M 358.0,700.0 L 394.0,700.0 L 612.0,660.0 L 657.0,666.0"/>
    <path d="M 213.0,807.0 L 263.0,816.0 L 498.0,779.0 L 725.0,755.0 L 807.0,774.0"/>
    <path d="M 485.0,819.0 L 439.0,837.0 L 407.0,884.0 L 356.0,936.0 L 351.0,944.0 L 367.0,954.0 L 363.0,991.0 L 580.0,940.0 L 597.0,941.0 L 607.0,933.0 L 619.0,937.0 L 636.0,927.0 L 657.0,932.0"/>
    <path d="M 623.0,847.0 L 726.0,968.0 L 747.0,1010.0 L 753.0,1049.0"/>
  </g>
</svg>
