<svg xmlns="http://www.w3.org/2000/svg" viewBox="0 0 1024 1024">
  <g style="fill:none;stroke:#000000;stroke-width:50;stroke-linecap:round;stroke-linejoin:round;" transform="scale(1, 1) translate(0, 0)">
    <path d="M 379.0,247.0 L 402.0,254.0 L 443.0,255.0 L 551.0,239.0 L 624.0,221.0 L 691.0,221.0"/>
    <path d="M 232.0,358.0 L 242.0,390.0 L 240.0,402.0 L 195.0,484.0 L 187.0,541.0"/>
    <path d="M 272.0,389.0 L 281.0,398.0 L 319.0,397.0 L 535.0,359.0 L 759.0,332.0 L 800.0,346.0 L 815.0,363.0 L 817.0,375.0 L 746.0,456.0"/>
    <path d="M 485.0,276.0 L 510.0,292.0 L 517.0,309.0 L 509.0,584.0"/>
    <path d="M 331.0,457.0 L 382.0,475.0 L 406.0,492.0"/>
    <path d="M 318.0,551.0 L 374.0,571.0 L 398.0,588.0"/>
    <path d="M 601.0,422.0 L 648.0,430.0 L 680.0,447.0"/>
    <path d="M 602.0,514.0 L 671.0,538.0 L 690.0,552.0"/>
    <path d="M 345.0,658.0 L 383.0,667.0 L 409.0,666.0 L 607.0,627.0 L 671.0,624.0"/>
    <path d="M 484.0,708.0 L 461.0,706.0 L 424.0,759.0 L 404.0,772.0"/>
    <path d="M 228.0,790.0 L 253.0,815.0 L 266.0,855.0 L 272.0,960.0 L 285.0,1008.0"/>
    <path d="M 276.0,803.0 L 307.0,814.0 L 488.0,777.0 L 701.0,757.0 L 753.0,759.0 L 786.0,798.0 L 752.0,965.0 L 737.0,1002.0 L 721.0,1015.0 L 641.0,969.0"/>
    <path d="M 380.0,816.0 L 408.0,833.0 L 414.0,982.0"/>
    <path d="M 528.0,792.0 L 560.0,820.0 L 551.0,1035.0"/>
  </g>
</svg>
