<svg xmlns="http://www.w3.org/2000/svg" viewBox="0 0 1024 1024">
  <g style="fill:none;stroke:#000000;stroke-width:50;stroke-linecap:round;stroke-linejoin:round;" transform="scale(1, 1) translate(0, 0)">
    <path d="M 382.0,228.0 L 430.0,236.0 L 523.0,224.0 L 623.0,201.0 L 671.0,205.0"/>
    <path d="M 228.0,332.0 L 236.0,349.0 L 236.0,375.0 L 187.0,476.0 L 179.0,525.0"/>
    <path d="M 259.0,354.0 L 277.0,363.0 L 309.0,362.0 L 435.0,337.0 L 693.0,301.0 L 782.0,296.0 L 821.0,311.0 L 837.0,336.0 L 774.0,412.0"/>
    <path d="M 480.0,252.0 L 510.0,277.0 L 511.0,357.0 L 502.0,486.0 L 506.0,513.0"/>
    <path d="M 341.0,413.0 L 394.0,421.0 L 415.0,432.0"/>
    <path d="M 337.0,484.0 L 386.0,505.0 L 405.0,520.0"/>
    <path d="M 597.0,370.0 L 666.0,388.0 L 683.0,398.0"/>
    <path d="M 595.0,443.0 L 641.0,455.0 L 674.0,473.0"/>
    <path d="M 474.0,540.0 L 506.0,575.0 L 503.0,665.0 L 488.0,676.0"/>
    <path d="M 329.0,582.0 L 395.0,621.0 L 408.0,643.0"/>
    <path d="M 682.0,520.0 L 691.0,550.0 L 574.0,624.0"/>
    <path d="M 343.0,691.0 L 368.0,712.0 L 375.0,759.0 L 361.0,894.0 L 331.0,1048.0"/>
    <path d="M 401.0,708.0 L 421.0,713.0 L 466.0,707.0 L 600.0,680.0 L 629.0,682.0 L 659.0,706.0 L 657.0,762.0 L 674.0,958.0 L 670.0,1002.0 L 651.0,1034.0 L 557.0,1000.0"/>
    <path d="M 397.0,815.0 L 540.0,792.0 L 571.0,797.0"/>
    <path d="M 382.0,917.0 L 557.0,890.0 L 587.0,896.0"/>
  </g>
</svg>
