<svg xmlns="http://www.w3.org/2000/svg" viewBox="0 0 1024 1024">
  <g style="fill:none;stroke:#000000;stroke-width:50;stroke-linecap:round;stroke-linejoin:round;" transform="scale(1, 1) translate(0, 0)">
    <path d="M 382.0,216.0 L 404.0,223.0 L 457.0,223.0 L 628.0,190.0 L 682.0,193.0"/>
    <path d="M 240.0,315.0 L 250.0,346.0 L 248.0,362.0 L 208.0,438.0 L 203.0,489.0"/>
    <path d="M 279.0,343.0 L 290.0,352.0 L 299.0,351.0 L 618.0,298.0 L 723.0,286.0 L 761.0,288.0 L 785.0,300.0 L 803.0,322.0 L 753.0,393.0 L 743.0,396.0"/>
    <path d="M 480.0,244.0 L 508.0,265.0 L 509.0,273.0 L 502.0,533.0"/>
    <path d="M 345.0,399.0 L 414.0,431.0"/>
    <path d="M 339.0,485.0 L 380.0,498.0 L 411.0,519.0"/>
    <path d="M 583.0,368.0 L 629.0,381.0 L 663.0,403.0"/>
    <path d="M 577.0,447.0 L 636.0,470.0 L 659.0,487.0"/>
    <path d="M 404.0,593.0 L 409.0,587.0 L 500.0,579.0 L 650.0,542.0 L 690.0,543.0"/>
    <path d="M 334.0,558.0 L 359.0,591.0 L 329.0,709.0 L 300.0,777.0 L 248.0,860.0 L 196.0,922.0 L 136.0,976.0 L 82.0,1012.0"/>
    <path d="M 420.0,662.0 L 444.0,668.0 L 485.0,666.0 L 599.0,639.0 L 644.0,638.0"/>
    <path d="M 333.0,777.0 L 553.0,732.0 L 682.0,713.0 L 733.0,715.0 L 762.0,723.0"/>
    <path d="M 370.0,797.0 L 399.0,813.0 L 402.0,828.0 L 396.0,935.0 L 405.0,995.0 L 456.0,975.0 L 537.0,923.0"/>
    <path d="M 733.0,816.0 L 703.0,803.0 L 627.0,861.0 L 619.0,857.0"/>
    <path d="M 455.0,773.0 L 496.0,783.0 L 611.0,894.0 L 694.0,960.0 L 758.0,1002.0 L 910.0,1009.0"/>
  </g>
</svg>
