<svg xmlns="http://www.w3.org/2000/svg" viewBox="0 0 1024 1024">
  <g style="fill:none;stroke:#000000;stroke-width:50;stroke-linecap:round;stroke-linejoin:round;" transform="scale(1, 1) translate(0, 0)">
    <path d="M 369.0,232.0 L 406.0,239.0 L 446.0,237.0 L 628.0,203.0 L 666.0,204.0"/>
    <path d="M 250.0,315.0 L 258.0,339.0 L 256.0,362.0 L 208.0,444.0 L 202.0,490.0"/>
    <path d="M 286.0,341.0 L 297.0,351.0 L 327.0,351.0 L 424.0,330.0 L 540.0,318.0 L 649.0,298.0 L 739.0,291.0 L 779.0,304.0 L 800.0,332.0 L 726.0,413.0"/>
    <path d="M 479.0,255.0 L 507.0,276.0 L 510.0,289.0 L 502.0,513.0"/>
    <path d="M 350.0,399.0 L 404.0,419.0 L 420.0,432.0"/>
    <path d="M 353.0,472.0 L 393.0,487.0 L 417.0,504.0"/>
    <path d="M 586.0,375.0 L 629.0,389.0 L 652.0,405.0"/>
    <path d="M 585.0,448.0 L 634.0,469.0 L 653.0,484.0"/>
    <path d="M 428.0,566.0 L 400.0,570.0 L 366.0,610.0 L 327.0,642.0 L 269.0,677.0"/>
    <path d="M 431.0,585.0 L 520.0,574.0 L 611.0,554.0 L 659.0,554.0"/>
    <path d="M 358.0,646.0 L 381.0,665.0 L 387.0,691.0 L 357.0,801.0 L 311.0,900.0 L 351.0,907.0 L 436.0,899.0 L 590.0,904.0 L 689.0,916.0 L 740.0,941.0"/>
    <path d="M 407.0,654.0 L 430.0,666.0 L 591.0,643.0 L 627.0,655.0 L 645.0,678.0 L 611.0,886.0 L 577.0,1003.0 L 559.0,1025.0 L 538.0,1038.0 L 452.0,993.0"/>
    <path d="M 460.0,684.0 L 483.0,703.0 L 506.0,745.0"/>
    <path d="M 114.0,811.0 L 173.0,822.0 L 427.0,790.0 L 809.0,765.0 L 903.0,786.0"/>
    <path d="M 460.0,809.0 L 484.0,832.0 L 498.0,861.0"/>
  </g>
</svg>
