<svg xmlns="http://www.w3.org/2000/svg" viewBox="0 0 1024 1024">
  <g style="fill:none;stroke:#000000;stroke-width:50;stroke-linecap:round;stroke-linejoin:round;" transform="scale(1, 1) translate(0, 0)">
    <path d="M 362.0,252.0 L 384.0,259.0 L 439.0,259.0 L 621.0,230.0 L 657.0,231.0"/>
    <path d="M 239.0,351.0 L 246.0,374.0 L 242.0,403.0 L 199.0,473.0 L 196.0,517.0"/>
    <path d="M 272.0,371.0 L 281.0,381.0 L 309.0,382.0 L 413.0,361.0 L 699.0,323.0 L 773.0,329.0 L 790.0,340.0 L 804.0,362.0 L 735.0,439.0"/>
    <path d="M 475.0,279.0 L 505.0,305.0 L 502.0,525.0"/>
    <path d="M 331.0,436.0 L 375.0,449.0 L 406.0,470.0"/>
    <path d="M 314.0,520.0 L 366.0,540.0 L 387.0,555.0"/>
    <path d="M 590.0,402.0 L 642.0,416.0 L 663.0,430.0"/>
    <path d="M 583.0,488.0 L 627.0,501.0 L 658.0,522.0"/>
    <path d="M 432.0,542.0 L 499.0,578.0 L 522.0,608.0"/>
    <path d="M 198.0,683.0 L 249.0,692.0 L 463.0,658.0 L 759.0,628.0 L 835.0,647.0"/>
    <path d="M 370.0,752.0 L 415.0,752.0 L 575.0,723.0 L 604.0,722.0 L 626.0,729.0"/>
    <path d="M 362.0,832.0 L 393.0,834.0 L 599.0,802.0 L 630.0,809.0"/>
    <path d="M 326.0,903.0 L 352.0,922.0 L 363.0,939.0 L 399.0,1073.0"/>
    <path d="M 376.0,901.0 L 397.0,911.0 L 590.0,875.0 L 620.0,881.0 L 640.0,897.0 L 648.0,912.0 L 630.0,960.0 L 600.0,981.0"/>
    <path d="M 414.0,1021.0 L 429.0,1032.0 L 599.0,1008.0 L 641.0,1008.0 L 666.0,1017.0"/>
  </g>
</svg>
