<svg xmlns="http://www.w3.org/2000/svg" viewBox="0 0 1024 1024">
  <g style="fill:none;stroke:#000000;stroke-width:50;stroke-linecap:round;stroke-linejoin:round;" transform="scale(1, 1) translate(0, 0)">
    <path d="M 361.0,239.0 L 384.0,246.0 L 422.0,245.0 L 648.0,202.0 L 676.0,204.0"/>
    <path d="M 232.0,348.0 L 240.0,363.0 L 240.0,394.0 L 202.0,468.0 L 198.0,515.0"/>
    <path d="M 269.0,381.0 L 284.0,388.0 L 311.0,386.0 L 455.0,355.0 L 561.0,343.0 L 574.0,336.0 L 585.0,339.0 L 643.0,326.0 L 783.0,311.0 L 814.0,331.0 L 823.0,352.0 L 753.0,430.0"/>
    <path d="M 463.0,265.0 L 498.0,293.0 L 499.0,481.0 L 492.0,538.0 L 497.0,580.0"/>
    <path d="M 334.0,456.0 L 373.0,473.0 L 393.0,490.0"/>
    <path d="M 324.0,558.0 L 360.0,575.0 L 383.0,594.0"/>
    <path d="M 597.0,427.0 L 645.0,441.0 L 677.0,461.0"/>
    <path d="M 587.0,519.0 L 645.0,541.0 L 668.0,558.0"/>
    <path d="M 236.0,637.0 L 303.0,671.0 L 327.0,702.0"/>
    <path d="M 182.0,767.0 L 246.0,798.0 L 260.0,814.0"/>
    <path d="M 225.0,1053.0 L 219.0,1021.0 L 226.0,979.0 L 352.0,825.0"/>
    <path d="M 539.0,615.0 L 577.0,646.0 L 574.0,804.0 L 559.0,826.0"/>
    <path d="M 605.0,723.0 L 621.0,715.0 L 712.0,699.0 L 745.0,701.0"/>
    <path d="M 407.0,845.0 L 436.0,869.0 L 480.0,1049.0"/>
    <path d="M 469.0,868.0 L 486.0,857.0 L 557.0,848.0 L 670.0,821.0 L 703.0,823.0 L 740.0,856.0 L 713.0,934.0 L 686.0,950.0"/>
    <path d="M 495.0,993.0 L 506.0,1003.0 L 516.0,1003.0 L 677.0,979.0 L 741.0,989.0"/>
  </g>
</svg>
