<svg xmlns="http://www.w3.org/2000/svg" viewBox="0 0 1024 1024">
  <g style="fill:none;stroke:#000000;stroke-width:50;stroke-linecap:round;stroke-linejoin:round;" transform="scale(1, 1) translate(0, 0)">
    <path d="M 362.0,246.0 L 420.0,251.0 L 537.0,231.0 L 623.0,208.0 L 669.0,209.0"/>
    <path d="M 220.0,347.0 L 230.0,375.0 L 228.0,394.0 L 188.0,470.0 L 183.0,521.0"/>
    <path d="M 260.0,378.0 L 271.0,387.0 L 314.0,384.0 L 405.0,362.0 L 559.0,341.0 L 634.0,324.0 L 771.0,312.0 L 796.0,325.0 L 811.0,351.0 L 734.0,429.0"/>
    <path d="M 471.0,267.0 L 501.0,299.0 L 494.0,545.0"/>
    <path d="M 334.0,423.0 L 369.0,433.0 L 404.0,453.0"/>
    <path d="M 317.0,500.0 L 366.0,521.0 L 385.0,536.0"/>
    <path d="M 572.0,399.0 L 618.0,402.0 L 655.0,413.0"/>
    <path d="M 562.0,475.0 L 614.0,490.0 L 648.0,509.0"/>
    <path d="M 451.0,612.0 L 409.0,606.0 L 337.0,648.0 L 332.0,657.0"/>
    <path d="M 272.0,647.0 L 304.0,672.0 L 344.0,822.0"/>
    <path d="M 352.0,735.0 L 357.0,725.0 L 390.0,715.0 L 433.0,708.0 L 453.0,712.0"/>
    <path d="M 538.0,587.0 L 578.0,594.0 L 668.0,584.0 L 691.0,597.0 L 703.0,616.0 L 707.0,628.0 L 680.0,682.0 L 636.0,800.0"/>
    <path d="M 516.0,694.0 L 630.0,684.0 L 646.0,694.0"/>
    <path d="M 357.0,814.0 L 370.0,805.0 L 552.0,774.0 L 597.0,774.0 L 614.0,782.0"/>
    <path d="M 398.0,826.0 L 411.0,840.0 L 415.0,857.0 L 380.0,907.0 L 335.0,954.0 L 302.0,981.0 L 232.0,1021.0 L 179.0,1042.0 L 139.0,1050.0"/>
    <path d="M 501.0,807.0 L 532.0,834.0 L 528.0,953.0 L 533.0,989.0 L 543.0,1012.0 L 566.0,1036.0 L 585.0,1046.0 L 645.0,1064.0 L 702.0,1070.0 L 772.0,1065.0 L 819.0,1056.0 L 875.0,1034.0 L 909.0,1005.0 L 916.0,881.0"/>
  </g>
</svg>
