<svg xmlns="http://www.w3.org/2000/svg" viewBox="0 0 1024 1024">
  <g style="fill:none;stroke:#000000;stroke-width:50;stroke-linecap:round;stroke-linejoin:round;" transform="scale(1, 1) translate(0, 0)">
    <path d="M 365.0,235.0 L 420.0,241.0 L 519.0,225.0 L 529.0,218.0 L 614.0,199.0 L 659.0,201.0"/>
    <path d="M 236.0,338.0 L 245.0,365.0 L 238.0,398.0 L 197.0,468.0 L 191.0,521.0"/>
    <path d="M 272.0,389.0 L 285.0,376.0 L 417.0,350.0 L 672.0,314.0 L 756.0,311.0 L 781.0,322.0 L 798.0,347.0 L 730.0,425.0"/>
    <path d="M 474.0,260.0 L 506.0,281.0 L 501.0,560.0"/>
    <path d="M 338.0,427.0 L 401.0,452.0"/>
    <path d="M 321.0,501.0 L 360.0,520.0 L 380.0,539.0"/>
    <path d="M 603.0,396.0 L 661.0,415.0 L 677.0,428.0"/>
    <path d="M 606.0,484.0 L 658.0,504.0 L 679.0,519.0"/>
    <path d="M 391.0,604.0 L 424.0,646.0 L 420.0,880.0 L 407.0,999.0 L 413.0,1045.0"/>
    <path d="M 233.0,683.0 L 284.0,690.0 L 379.0,676.0 L 392.0,663.0"/>
    <path d="M 240.0,794.0 L 320.0,794.0 L 380.0,781.0 L 393.0,769.0"/>
    <path d="M 179.0,913.0 L 225.0,928.0 L 338.0,891.0 L 349.0,892.0 L 360.0,883.0 L 374.0,885.0 L 384.0,868.0"/>
    <path d="M 543.0,560.0 L 587.0,606.0 L 581.0,1070.0"/>
    <path d="M 618.0,641.0 L 748.0,611.0 L 779.0,614.0"/>
    <path d="M 614.0,745.0 L 645.0,752.0 L 734.0,732.0 L 776.0,733.0"/>
    <path d="M 616.0,876.0 L 624.0,871.0 L 766.0,858.0 L 819.0,861.0 L 853.0,873.0"/>
  </g>
</svg>
