<svg xmlns="http://www.w3.org/2000/svg" viewBox="0 0 1024 1024">
  <g style="fill:none;stroke:#000000;stroke-width:50;stroke-linecap:round;stroke-linejoin:round;" transform="scale(1, 1) translate(0, 0)">
    <path d="M 365.0,236.0 L 402.0,243.0 L 442.0,241.0 L 624.0,207.0 L 662.0,208.0"/>
    <path d="M 233.0,325.0 L 241.0,347.0 L 235.0,380.0 L 196.0,437.0 L 186.0,490.0"/>
    <path d="M 269.0,354.0 L 281.0,364.0 L 304.0,362.0 L 638.0,309.0 L 742.0,301.0 L 781.0,314.0 L 799.0,337.0 L 749.0,409.0 L 739.0,412.0"/>
    <path d="M 475.0,259.0 L 505.0,284.0 L 502.0,477.0"/>
    <path d="M 342.0,411.0 L 384.0,425.0 L 406.0,440.0"/>
    <path d="M 330.0,490.0 L 372.0,510.0 L 386.0,524.0"/>
    <path d="M 599.0,379.0 L 653.0,393.0 L 669.0,406.0"/>
    <path d="M 586.0,456.0 L 646.0,480.0 L 661.0,494.0"/>
    <path d="M 449.0,505.0 L 526.0,551.0"/>
    <path d="M 330.0,593.0 L 361.0,600.0 L 400.0,599.0 L 633.0,559.0 L 662.0,563.0"/>
    <path d="M 387.0,641.0 L 418.0,671.0 L 429.0,691.0"/>
    <path d="M 570.0,599.0 L 589.0,620.0 L 562.0,675.0 L 541.0,702.0"/>
    <path d="M 276.0,739.0 L 310.0,747.0 L 351.0,745.0 L 651.0,705.0 L 707.0,714.0"/>
    <path d="M 431.0,760.0 L 448.0,780.0 L 383.0,896.0 L 378.0,916.0 L 407.0,932.0 L 557.0,984.0 L 632.0,1020.0 L 677.0,1047.0 L 720.0,1088.0"/>
    <path d="M 583.0,792.0 L 596.0,805.0 L 604.0,831.0 L 581.0,881.0 L 540.0,938.0 L 485.0,988.0 L 449.0,1008.0 L 382.0,1028.0 L 321.0,1033.0 L 267.0,1028.0"/>
    <path d="M 115.0,863.0 L 174.0,873.0 L 482.0,831.0 L 855.0,801.0 L 930.0,822.0"/>
  </g>
</svg>
