<svg xmlns="http://www.w3.org/2000/svg" viewBox="0 0 1024 1024">
  <g style="fill:none;stroke:#000000;stroke-width:50;stroke-linecap:round;stroke-linejoin:round;" transform="scale(1, 1) translate(0, 0)">
    <path d="M 355.0,309.0 L 387.0,316.0 L 426.0,315.0 L 638.0,275.0 L 676.0,278.0"/>
    <path d="M 221.0,439.0 L 232.0,471.0 L 229.0,486.0 L 189.0,568.0 L 184.0,616.0"/>
    <path d="M 261.0,473.0 L 271.0,482.0 L 304.0,480.0 L 418.0,453.0 L 634.0,415.0 L 750.0,403.0 L 791.0,417.0 L 806.0,445.0 L 744.0,526.0"/>
    <path d="M 481.0,332.0 L 513.0,358.0 L 514.0,458.0 L 499.0,646.0 L 501.0,692.0"/>
    <path d="M 334.0,545.0 L 376.0,560.0 L 405.0,582.0"/>
    <path d="M 318.0,644.0 L 379.0,674.0 L 402.0,694.0"/>
    <path d="M 599.0,517.0 L 661.0,546.0 L 685.0,565.0"/>
    <path d="M 603.0,630.0 L 657.0,658.0 L 690.0,684.0"/>
    <path d="M 153.0,820.0 L 183.0,850.0 L 224.0,1027.0"/>
    <path d="M 203.0,822.0 L 213.0,829.0 L 303.0,806.0 L 316.0,806.0 L 333.0,819.0 L 341.0,828.0 L 326.0,908.0 L 322.0,921.0 L 306.0,934.0"/>
    <path d="M 241.0,982.0 L 247.0,973.0 L 295.0,960.0 L 336.0,957.0 L 356.0,962.0"/>
    <path d="M 395.0,795.0 L 415.0,812.0 L 424.0,832.0 L 453.0,978.0"/>
    <path d="M 437.0,796.0 L 447.0,803.0 L 542.0,778.0 L 552.0,778.0 L 574.0,795.0 L 558.0,884.0 L 539.0,900.0"/>
    <path d="M 468.0,946.0 L 478.0,938.0 L 529.0,924.0 L 569.0,920.0 L 593.0,927.0"/>
    <path d="M 629.0,770.0 L 648.0,787.0 L 658.0,808.0 L 689.0,962.0"/>
    <path d="M 669.0,768.0 L 687.0,778.0 L 782.0,754.0 L 795.0,755.0 L 813.0,768.0 L 822.0,778.0 L 805.0,865.0 L 784.0,882.0"/>
    <path d="M 706.0,935.0 L 716.0,924.0 L 784.0,908.0 L 820.0,906.0 L 844.0,912.0"/>
  </g>
</svg>
