<svg xmlns="http://www.w3.org/2000/svg" viewBox="0 0 1024 1024">
  <g style="fill:none;stroke:#000000;stroke-width:50;stroke-linecap:round;stroke-linejoin:round;" transform="scale(1, 1) translate(0, 0)">
    <path d="M 373.0,234.0 L 395.0,241.0 L 440.0,241.0 L 635.0,203.0 L 699.0,200.0"/>
    <path d="M 248.0,341.0 L 255.0,368.0 L 251.0,391.0 L 200.0,476.0 L 191.0,523.0"/>
    <path d="M 283.0,389.0 L 440.0,358.0 L 549.0,347.0 L 663.0,327.0 L 761.0,321.0 L 790.0,333.0 L 811.0,357.0 L 761.0,428.0 L 751.0,432.0"/>
    <path d="M 483.0,261.0 L 513.0,283.0 L 516.0,367.0 L 505.0,537.0 L 509.0,580.0"/>
    <path d="M 354.0,437.0 L 401.0,456.0 L 419.0,472.0"/>
    <path d="M 334.0,525.0 L 384.0,547.0 L 403.0,562.0"/>
    <path d="M 597.0,419.0 L 656.0,442.0 L 679.0,459.0"/>
    <path d="M 597.0,512.0 L 650.0,537.0 L 669.0,553.0"/>
    <path d="M 163.0,735.0 L 208.0,742.0 L 428.0,698.0 L 483.0,702.0"/>
    <path d="M 327.0,599.0 L 352.0,623.0 L 364.0,644.0 L 354.0,937.0 L 344.0,1001.0 L 346.0,1058.0"/>
    <path d="M 337.0,743.0 L 328.0,750.0 L 310.0,801.0 L 253.0,869.0 L 197.0,922.0 L 117.0,974.0"/>
    <path d="M 381.0,789.0 L 448.0,831.0 L 468.0,859.0"/>
    <path d="M 535.0,637.0 L 556.0,658.0 L 565.0,684.0 L 566.0,843.0 L 555.0,984.0 L 561.0,1030.0"/>
    <path d="M 584.0,645.0 L 603.0,658.0 L 747.0,625.0 L 772.0,639.0 L 787.0,656.0 L 792.0,967.0 L 780.0,997.0 L 722.0,983.0"/>
    <path d="M 589.0,777.0 L 600.0,765.0 L 666.0,751.0 L 720.0,752.0"/>
    <path d="M 588.0,868.0 L 600.0,858.0 L 682.0,846.0 L 727.0,852.0"/>
    <path d="M 588.0,991.0 L 598.0,979.0 L 654.0,968.0 L 702.0,962.0 L 740.0,966.0"/>
  </g>
</svg>
