<svg xmlns="http://www.w3.org/2000/svg" viewBox="0 0 1024 1024">
  <g style="fill:none;stroke:#000000;stroke-width:50;stroke-linecap:round;stroke-linejoin:round;" transform="scale(1, 1) translate(0, 0)">
    <path d="M 364.0,241.0 L 401.0,247.0 L 443.0,245.0 L 638.0,207.0 L 672.0,208.0"/>
    <path d="M 249.0,330.0 L 257.0,352.0 L 256.0,370.0 L 217.0,449.0 L 216.0,490.0"/>
    <path d="M 280.0,356.0 L 304.0,366.0 L 323.0,364.0 L 618.0,310.0 L 714.0,298.0 L 749.0,300.0 L 770.0,310.0 L 789.0,337.0 L 714.0,414.0"/>
    <path d="M 481.0,265.0 L 511.0,293.0 L 504.0,519.0"/>
    <path d="M 354.0,405.0 L 398.0,418.0 L 416.0,431.0"/>
    <path d="M 343.0,470.0 L 382.0,484.0 L 406.0,501.0"/>
    <path d="M 595.0,372.0 L 635.0,386.0 L 657.0,402.0"/>
    <path d="M 589.0,447.0 L 639.0,469.0 L 654.0,486.0"/>
    <path d="M 207.0,562.0 L 226.0,576.0 L 240.0,599.0 L 227.0,778.0 L 212.0,845.0 L 184.0,918.0 L 149.0,978.0 L 128.0,1002.0"/>
    <path d="M 259.0,571.0 L 278.0,575.0 L 342.0,555.0 L 359.0,557.0 L 384.0,579.0 L 379.0,672.0 L 386.0,871.0 L 378.0,944.0 L 365.0,965.0 L 276.0,926.0"/>
    <path d="M 264.0,705.0 L 273.0,694.0 L 292.0,689.0 L 335.0,691.0"/>
    <path d="M 249.0,797.0 L 260.0,786.0 L 294.0,779.0 L 337.0,781.0"/>
    <path d="M 653.0,524.0 L 695.0,551.0 L 723.0,585.0"/>
    <path d="M 526.0,659.0 L 596.0,645.0 L 651.0,626.0 L 672.0,630.0 L 694.0,655.0 L 690.0,695.0 L 697.0,924.0 L 692.0,946.0 L 674.0,966.0 L 562.0,927.0"/>
    <path d="M 456.0,761.0 L 516.0,769.0 L 557.0,758.0 L 582.0,767.0 L 588.0,776.0 L 581.0,799.0 L 550.0,834.0 L 494.0,866.0 L 435.0,887.0"/>
    <path d="M 848.0,636.0 L 865.0,656.0 L 871.0,675.0 L 827.0,724.0 L 764.0,778.0 L 764.0,789.0"/>
    <path d="M 717.0,731.0 L 748.0,806.0 L 794.0,884.0 L 844.0,936.0 L 990.0,957.0"/>
  </g>
</svg>
