<svg xmlns="http://www.w3.org/2000/svg" viewBox="0 0 1024 1024">
  <g style="fill:none;stroke:#000000;stroke-width:50;stroke-linecap:round;stroke-linejoin:round;" transform="scale(1, 1) translate(0, 0)">
    <path d="M 357.0,244.0 L 397.0,251.0 L 438.0,248.0 L 607.0,215.0 L 658.0,216.0"/>
    <path d="M 231.0,347.0 L 238.0,386.0 L 202.0,449.0 L 194.0,502.0"/>
    <path d="M 260.0,363.0 L 278.0,372.0 L 308.0,371.0 L 436.0,345.0 L 738.0,310.0 L 767.0,322.0 L 786.0,346.0 L 722.0,417.0"/>
    <path d="M 479.0,266.0 L 501.0,284.0 L 506.0,302.0 L 501.0,537.0"/>
    <path d="M 330.0,423.0 L 374.0,435.0 L 396.0,449.0"/>
    <path d="M 314.0,497.0 L 364.0,519.0 L 383.0,534.0"/>
    <path d="M 586.0,386.0 L 638.0,400.0 L 659.0,414.0"/>
    <path d="M 573.0,459.0 L 642.0,491.0"/>
    <path d="M 255.0,594.0 L 318.0,622.0 L 347.0,655.0"/>
    <path d="M 178.0,696.0 L 232.0,741.0 L 253.0,770.0"/>
    <path d="M 233.0,1063.0 L 225.0,1031.0 L 227.0,991.0 L 364.0,772.0"/>
    <path d="M 691.0,568.0 L 642.0,554.0 L 575.0,589.0 L 448.0,623.0"/>
    <path d="M 422.0,675.0 L 465.0,716.0 L 477.0,743.0"/>
    <path d="M 538.0,647.0 L 564.0,679.0 L 574.0,705.0"/>
    <path d="M 751.0,603.0 L 756.0,632.0 L 650.0,690.0"/>
    <path d="M 700.0,752.0 L 442.0,812.0"/>
    <path d="M 364.0,894.0 L 411.0,904.0 L 551.0,888.0 L 744.0,856.0 L 789.0,855.0 L 822.0,863.0"/>
    <path d="M 556.0,802.0 L 579.0,822.0 L 587.0,849.0 L 584.0,969.0 L 570.0,983.0"/>
    <path d="M 409.0,1018.0 L 451.0,1025.0 L 707.0,997.0 L 741.0,1000.0 L 781.0,1013.0"/>
  </g>
</svg>
