<svg xmlns="http://www.w3.org/2000/svg" viewBox="0 0 1024 1024">
  <g style="fill:none;stroke:#000000;stroke-width:50;stroke-linecap:round;stroke-linejoin:round;" transform="scale(1, 1) translate(0, 0)">
    <path d="M 326.0,224.0 L 345.0,230.0 L 397.0,230.0 L 505.0,217.0 L 521.0,209.0 L 611.0,193.0 L 655.0,197.0"/>
    <path d="M 221.0,312.0 L 229.0,327.0 L 230.0,353.0 L 188.0,454.0 L 182.0,501.0"/>
    <path d="M 257.0,341.0 L 277.0,351.0 L 309.0,350.0 L 421.0,326.0 L 667.0,292.0 L 735.0,289.0 L 763.0,298.0 L 780.0,316.0 L 783.0,328.0 L 706.0,391.0"/>
    <path d="M 461.0,248.0 L 490.0,275.0 L 481.0,525.0"/>
    <path d="M 334.0,398.0 L 381.0,410.0 L 403.0,422.0"/>
    <path d="M 318.0,478.0 L 370.0,492.0 L 391.0,506.0"/>
    <path d="M 574.0,370.0 L 626.0,384.0 L 647.0,398.0"/>
    <path d="M 568.0,451.0 L 623.0,473.0 L 644.0,489.0"/>
    <path d="M 199.0,576.0 L 222.0,594.0 L 228.0,606.0 L 256.0,723.0"/>
    <path d="M 246.0,577.0 L 254.0,585.0 L 361.0,558.0 L 380.0,563.0 L 394.0,582.0 L 391.0,594.0 L 374.0,645.0 L 352.0,662.0"/>
    <path d="M 270.0,710.0 L 287.0,700.0 L 353.0,684.0 L 382.0,680.0 L 405.0,685.0"/>
    <path d="M 292.0,718.0 L 308.0,729.0 L 318.0,746.0 L 317.0,895.0 L 316.0,905.0 L 302.0,919.0"/>
    <path d="M 346.0,811.0 L 362.0,796.0 L 397.0,789.0 L 426.0,792.0"/>
    <path d="M 164.0,783.0 L 200.0,815.0 L 221.0,907.0 L 223.0,930.0 L 214.0,937.0"/>
    <path d="M 130.0,975.0 L 153.0,985.0 L 184.0,988.0 L 360.0,926.0 L 370.0,927.0 L 433.0,899.0"/>
    <path d="M 589.0,545.0 L 565.0,555.0 L 542.0,603.0 L 505.0,657.0 L 447.0,713.0"/>
    <path d="M 586.0,585.0 L 611.0,570.0 L 668.0,555.0 L 709.0,562.0 L 716.0,574.0 L 655.0,683.0 L 619.0,728.0 L 570.0,775.0 L 494.0,825.0 L 412.0,850.0"/>
    <path d="M 529.0,658.0 L 543.0,659.0 L 671.0,755.0 L 817.0,827.0 L 892.0,835.0 L 974.0,830.0"/>
    <path d="M 477.0,880.0 L 497.0,898.0 L 506.0,916.0 L 532.0,1063.0"/>
    <path d="M 527.0,882.0 L 540.0,892.0 L 687.0,860.0 L 710.0,868.0 L 731.0,894.0 L 708.0,960.0 L 685.0,979.0"/>
    <path d="M 552.0,1033.0 L 566.0,1022.0 L 684.0,1003.0 L 716.0,1002.0 L 742.0,1011.0"/>
  </g>
</svg>
