<svg xmlns="http://www.w3.org/2000/svg" viewBox="0 0 1024 1024">
  <g style="fill:none;stroke:#000000;stroke-width:50;stroke-linecap:round;stroke-linejoin:round;" transform="scale(1, 1) translate(0, 0)">
    <path d="M 361.0,223.0 L 416.0,230.0 L 595.0,192.0 L 648.0,192.0"/>
    <path d="M 224.0,313.0 L 233.0,345.0 L 229.0,369.0 L 186.0,436.0 L 182.0,485.0"/>
    <path d="M 261.0,343.0 L 272.0,352.0 L 296.0,350.0 L 583.0,291.0 L 771.0,266.0 L 808.0,283.0 L 820.0,303.0 L 762.0,367.0 L 752.0,370.0"/>
    <path d="M 469.0,246.0 L 496.0,269.0 L 490.0,497.0"/>
    <path d="M 338.0,401.0 L 407.0,419.0"/>
    <path d="M 319.0,480.0 L 360.0,485.0 L 386.0,496.0"/>
    <path d="M 596.0,360.0 L 654.0,367.0 L 673.0,377.0"/>
    <path d="M 588.0,452.0 L 642.0,459.0 L 660.0,468.0"/>
    <path d="M 322.0,562.0 L 354.0,571.0 L 400.0,568.0 L 564.0,530.0 L 624.0,526.0"/>
    <path d="M 265.0,537.0 L 283.0,557.0 L 294.0,586.0 L 261.0,717.0 L 230.0,804.0 L 162.0,932.0 L 98.0,1005.0 L 69.0,1028.0"/>
    <path d="M 479.0,624.0 L 442.0,617.0 L 375.0,658.0 L 343.0,665.0"/>
    <path d="M 312.0,730.0 L 365.0,727.0 L 438.0,705.0 L 473.0,702.0"/>
    <path d="M 395.0,664.0 L 410.0,677.0 L 412.0,698.0 L 410.0,851.0"/>
    <path d="M 393.0,738.0 L 386.0,744.0 L 379.0,770.0 L 363.0,785.0 L 320.0,820.0 L 279.0,841.0"/>
    <path d="M 434.0,748.0 L 439.0,757.0 L 463.0,770.0"/>
    <path d="M 691.0,585.0 L 662.0,578.0 L 651.0,581.0 L 616.0,605.0 L 566.0,623.0 L 556.0,633.0 L 542.0,631.0"/>
    <path d="M 516.0,697.0 L 610.0,684.0 L 704.0,662.0 L 751.0,661.0 L 773.0,669.0"/>
    <path d="M 610.0,631.0 L 625.0,638.0 L 630.0,652.0 L 626.0,839.0"/>
    <path d="M 608.0,703.0 L 549.0,763.0 L 487.0,801.0"/>
    <path d="M 651.0,699.0 L 661.0,721.0 L 680.0,735.0 L 791.0,801.0 L 891.0,811.0"/>
    <path d="M 486.0,841.0 L 519.0,872.0 L 516.0,1001.0 L 528.0,1009.0"/>
    <path d="M 548.0,919.0 L 613.0,899.0 L 678.0,891.0"/>
    <path d="M 337.0,901.0 L 375.0,937.0 L 388.0,1014.0 L 402.0,1020.0"/>
    <path d="M 234.0,1056.0 L 282.0,1066.0 L 565.0,1031.0 L 764.0,1016.0 L 803.0,1022.0 L 839.0,1036.0"/>
  </g>
</svg>
