<svg xmlns="http://www.w3.org/2000/svg" viewBox="0 0 1024 1024">
  <g style="fill:none;stroke:#000000;stroke-width:50;stroke-linecap:round;stroke-linejoin:round;" transform="scale(1, 1) translate(0, 0)">
    <path d="M 196.0,358.0 L 236.0,360.0 L 290.0,351.0 L 404.0,313.0 L 445.0,310.0"/>
    <path d="M 219.0,454.0 L 275.0,451.0 L 380.0,417.0 L 417.0,415.0"/>
    <path d="M 297.0,191.0 L 341.0,227.0 L 333.0,493.0 L 318.0,515.0"/>
    <path d="M 59.0,579.0 L 108.0,586.0 L 366.0,527.0 L 435.0,518.0 L 455.0,522.0"/>
    <path d="M 212.0,636.0 L 234.0,664.0 L 237.0,713.0 L 225.0,854.0 L 206.0,933.0 L 204.0,970.0"/>
    <path d="M 254.0,643.0 L 276.0,644.0 L 369.0,615.0 L 388.0,616.0 L 412.0,638.0 L 406.0,683.0 L 408.0,880.0 L 401.0,914.0 L 384.0,935.0 L 328.0,916.0"/>
    <path d="M 257.0,741.0 L 269.0,730.0 L 297.0,721.0 L 333.0,716.0 L 353.0,720.0"/>
    <path d="M 251.0,828.0 L 260.0,817.0 L 293.0,809.0 L 325.0,804.0 L 353.0,808.0"/>
    <path d="M 800.0,224.0 L 743.0,206.0 L 684.0,238.0 L 587.0,271.0 L 513.0,287.0"/>
    <path d="M 506.0,354.0 L 554.0,401.0 L 561.0,429.0"/>
    <path d="M 609.0,318.0 L 661.0,387.0"/>
    <path d="M 782.0,281.0 L 809.0,313.0 L 749.0,392.0 L 720.0,426.0 L 708.0,432.0 L 708.0,439.0"/>
    <path d="M 510.0,522.0 L 567.0,523.0 L 767.0,475.0 L 795.0,481.0 L 821.0,506.0 L 787.0,670.0 L 765.0,685.0"/>
    <path d="M 468.0,645.0 L 512.0,650.0 L 743.0,605.0 L 757.0,608.0 L 767.0,601.0 L 897.0,585.0 L 977.0,595.0"/>
    <path d="M 500.0,747.0 L 537.0,751.0 L 757.0,713.0 L 803.0,713.0 L 822.0,721.0"/>
    <path d="M 608.0,532.0 L 643.0,557.0 L 658.0,666.0 L 666.0,836.0 L 657.0,949.0 L 639.0,1001.0 L 618.0,1024.0 L 520.0,975.0"/>
  </g>
</svg>
