<svg xmlns="http://www.w3.org/2000/svg" viewBox="0 0 1024 1024">
  <g style="fill:none;stroke:#000000;stroke-width:50;stroke-linecap:round;stroke-linejoin:round;" transform="scale(1, 1) translate(0, 0)">
    <path d="M 481.0,156.0 L 562.0,188.0 L 587.0,217.0"/>
    <path d="M 329.0,284.0 L 347.0,296.0 L 402.0,298.0 L 580.0,272.0 L 738.0,240.0 L 787.0,242.0"/>
    <path d="M 262.0,267.0 L 285.0,286.0 L 298.0,311.0 L 277.0,505.0 L 242.0,660.0 L 212.0,744.0 L 161.0,847.0 L 96.0,943.0 L 57.0,986.0"/>
    <path d="M 339.0,449.0 L 386.0,451.0 L 496.0,421.0 L 536.0,420.0"/>
    <path d="M 425.0,343.0 L 455.0,374.0 L 446.0,578.0 L 451.0,619.0"/>
    <path d="M 429.0,464.0 L 421.0,470.0 L 415.0,502.0 L 405.0,519.0 L 360.0,579.0 L 330.0,611.0 L 321.0,613.0 L 320.0,620.0"/>
    <path d="M 476.0,477.0 L 478.0,487.0 L 518.0,533.0"/>
    <path d="M 579.0,408.0 L 629.0,411.0 L 763.0,377.0 L 796.0,378.0"/>
    <path d="M 647.0,308.0 L 680.0,341.0 L 671.0,504.0 L 675.0,586.0"/>
    <path d="M 652.0,429.0 L 644.0,435.0 L 628.0,479.0 L 583.0,538.0 L 540.0,580.0"/>
    <path d="M 697.0,433.0 L 706.0,461.0 L 798.0,563.0 L 855.0,582.0 L 890.0,585.0"/>
    <path d="M 455.0,666.0 L 482.0,695.0 L 484.0,717.0 L 484.0,912.0 L 472.0,1014.0 L 477.0,1070.0"/>
    <path d="M 298.0,739.0 L 351.0,746.0 L 435.0,735.0 L 461.0,746.0"/>
    <path d="M 305.0,836.0 L 350.0,844.0 L 446.0,831.0 L 461.0,842.0"/>
    <path d="M 258.0,943.0 L 302.0,956.0 L 412.0,922.0 L 427.0,912.0 L 438.0,915.0 L 448.0,905.0 L 456.0,909.0"/>
    <path d="M 583.0,612.0 L 623.0,653.0 L 622.0,891.0 L 615.0,1025.0 L 619.0,1100.0"/>
    <path d="M 649.0,705.0 L 766.0,679.0 L 813.0,678.0"/>
    <path d="M 649.0,801.0 L 658.0,794.0 L 762.0,775.0 L 809.0,774.0"/>
    <path d="M 650.0,914.0 L 796.0,894.0 L 848.0,896.0 L 869.0,904.0"/>
  </g>
</svg>
