<svg xmlns="http://www.w3.org/2000/svg" viewBox="0 0 1024 1024">
  <g style="fill:none;stroke:#000000;stroke-width:50;stroke-linecap:round;stroke-linejoin:round;" transform="scale(1, 1) translate(0, 0)">
    <path d="M 300.0,311.0 L 331.0,319.0 L 386.0,320.0 L 696.0,269.0 L 747.0,270.0"/>
    <path d="M 452.0,341.0 L 473.0,363.0 L 475.0,375.0 L 407.0,483.0 L 382.0,499.0"/>
    <path d="M 154.0,534.0 L 186.0,561.0 L 207.0,595.0 L 224.0,716.0 L 237.0,876.0 L 256.0,961.0"/>
    <path d="M 205.0,541.0 L 257.0,550.0 L 413.0,516.0 L 674.0,479.0 L 773.0,472.0 L 807.0,487.0 L 842.0,532.0 L 810.0,812.0 L 796.0,887.0 L 777.0,925.0 L 778.0,972.0"/>
    <path d="M 369.0,548.0 L 392.0,560.0 L 405.0,578.0 L 411.0,879.0 L 425.0,890.0"/>
    <path d="M 565.0,516.0 L 592.0,536.0 L 599.0,570.0 L 593.0,858.0 L 577.0,871.0"/>
    <path d="M 439.0,662.0 L 449.0,649.0 L 471.0,642.0 L 511.0,637.0 L 532.0,641.0"/>
    <path d="M 439.0,787.0 L 449.0,774.0 L 472.0,766.0 L 532.0,765.0"/>
    <path d="M 279.0,939.0 L 295.0,925.0 L 324.0,922.0 L 651.0,894.0 L 731.0,894.0"/>
  </g>
</svg>
