<svg xmlns="http://www.w3.org/2000/svg" viewBox="0 0 1024 1024">
  <g style="fill:none;stroke:#000000;stroke-width:50;stroke-linecap:round;stroke-linejoin:round;" transform="scale(1, 1) translate(0, 0)">
    <path d="M 119.0,389.0 L 149.0,393.0 L 210.0,384.0 L 410.0,334.0 L 465.0,336.0"/>
    <path d="M 176.0,275.0 L 214.0,301.0 L 241.0,518.0"/>
    <path d="M 358.0,199.0 L 389.0,237.0 L 353.0,417.0 L 336.0,434.0"/>
    <path d="M 257.0,488.0 L 275.0,475.0 L 319.0,462.0 L 359.0,457.0 L 380.0,462.0"/>
    <path d="M 122.0,593.0 L 156.0,630.0 L 188.0,748.0"/>
    <path d="M 152.0,590.0 L 179.0,600.0 L 311.0,572.0 L 347.0,558.0 L 393.0,558.0 L 418.0,582.0 L 398.0,648.0 L 380.0,661.0"/>
    <path d="M 203.0,731.0 L 218.0,721.0 L 376.0,685.0 L 424.0,690.0"/>
    <path d="M 64.0,851.0 L 87.0,860.0 L 133.0,859.0 L 400.0,788.0 L 459.0,788.0"/>
    <path d="M 258.0,496.0 L 285.0,519.0 L 288.0,545.0 L 283.0,954.0 L 293.0,1036.0"/>
    <path d="M 551.0,338.0 L 584.0,364.0 L 587.0,382.0 L 525.0,548.0 L 457.0,659.0"/>
    <path d="M 518.0,604.0 L 523.0,630.0 L 538.0,659.0 L 538.0,766.0 L 526.0,912.0 L 531.0,975.0"/>
    <path d="M 817.0,461.0 L 836.0,483.0 L 843.0,503.0 L 827.0,523.0 L 723.0,626.0 L 587.0,740.0"/>
    <path d="M 652.0,322.0 L 689.0,371.0 L 669.0,519.0 L 662.0,721.0 L 674.0,843.0 L 696.0,913.0 L 738.0,935.0 L 795.0,943.0 L 856.0,942.0 L 922.0,926.0 L 933.0,914.0 L 940.0,774.0"/>
  </g>
</svg>
