<svg xmlns="http://www.w3.org/2000/svg" viewBox="0 0 1024 1024">
  <g style="fill:none;stroke:#000000;stroke-width:50;stroke-linecap:round;stroke-linejoin:round;" transform="scale(1, 1) translate(0, 0)">
    <path d="M 231.0,258.0 L 295.0,259.0 L 428.0,226.0 L 457.0,226.0"/>
    <path d="M 334.0,271.0 L 359.0,295.0 L 354.0,375.0 L 336.0,391.0"/>
    <path d="M 174.0,449.0 L 209.0,462.0 L 226.0,462.0 L 413.0,399.0 L 473.0,370.0"/>
    <path d="M 537.0,198.0 L 567.0,221.0 L 566.0,314.0 L 543.0,381.0 L 517.0,412.0 L 494.0,427.0"/>
    <path d="M 599.0,222.0 L 603.0,213.0 L 679.0,189.0 L 708.0,184.0 L 725.0,197.0 L 728.0,207.0 L 705.0,291.0 L 706.0,354.0 L 717.0,382.0 L 764.0,410.0 L 823.0,416.0 L 858.0,401.0 L 853.0,302.0"/>
    <path d="M 591.0,292.0 L 639.0,325.0 L 652.0,346.0"/>
    <path d="M 285.0,545.0 L 316.0,547.0 L 491.0,513.0 L 695.0,487.0 L 739.0,489.0 L 766.0,497.0"/>
    <path d="M 383.0,470.0 L 401.0,474.0 L 422.0,491.0 L 449.0,623.0"/>
    <path d="M 586.0,423.0 L 607.0,458.0 L 580.0,549.0 L 562.0,563.0"/>
    <path d="M 462.0,609.0 L 481.0,598.0 L 543.0,586.0 L 600.0,592.0"/>
    <path d="M 314.0,683.0 L 344.0,705.0 L 383.0,810.0"/>
    <path d="M 365.0,681.0 L 383.0,691.0 L 656.0,654.0 L 677.0,664.0 L 693.0,691.0 L 677.0,716.0 L 638.0,742.0"/>
    <path d="M 397.0,783.0 L 407.0,790.0 L 420.0,789.0 L 653.0,762.0 L 682.0,762.0 L 702.0,769.0"/>
    <path d="M 119.0,894.0 L 174.0,906.0 L 468.0,868.0 L 841.0,838.0 L 885.0,842.0 L 937.0,861.0"/>
    <path d="M 480.0,619.0 L 515.0,639.0 L 516.0,649.0 L 511.0,1101.0"/>
  </g>
</svg>
