<svg xmlns="http://www.w3.org/2000/svg" viewBox="0 0 1024 1024">
  <g style="fill:none;stroke:#000000;stroke-width:50;stroke-linecap:round;stroke-linejoin:round;" transform="scale(1, 1) translate(0, 0)">
    <path d="M 103.0,395.0 L 148.0,401.0 L 439.0,345.0 L 491.0,350.0"/>
    <path d="M 190.0,273.0 L 220.0,296.0 L 229.0,317.0 L 249.0,517.0"/>
    <path d="M 358.0,214.0 L 389.0,251.0 L 357.0,424.0 L 339.0,448.0"/>
    <path d="M 266.0,498.0 L 285.0,486.0 L 341.0,472.0 L 375.0,469.0 L 396.0,476.0"/>
    <path d="M 128.0,587.0 L 159.0,622.0 L 188.0,746.0"/>
    <path d="M 174.0,590.0 L 196.0,595.0 L 264.0,583.0 L 358.0,555.0 L 409.0,553.0 L 433.0,578.0 L 412.0,643.0 L 394.0,651.0"/>
    <path d="M 205.0,724.0 L 219.0,714.0 L 354.0,685.0 L 417.0,680.0 L 436.0,686.0"/>
    <path d="M 84.0,835.0 L 112.0,842.0 L 146.0,841.0 L 404.0,782.0 L 464.0,784.0"/>
    <path d="M 270.0,511.0 L 292.0,525.0 L 299.0,545.0 L 286.0,950.0 L 297.0,1032.0"/>
    <path d="M 790.0,281.0 L 728.0,272.0 L 642.0,324.0 L 588.0,342.0 L 578.0,351.0 L 566.0,350.0 L 557.0,359.0 L 541.0,358.0 L 523.0,368.0 L 514.0,364.0 L 504.0,374.0"/>
    <path d="M 478.0,501.0 L 540.0,505.0 L 790.0,451.0 L 828.0,447.0 L 867.0,452.0"/>
    <path d="M 601.0,360.0 L 638.0,380.0 L 595.0,526.0 L 570.0,582.0 L 528.0,652.0 L 455.0,729.0"/>
    <path d="M 696.0,500.0 L 710.0,504.0 L 780.0,592.0 L 857.0,667.0 L 976.0,693.0"/>
    <path d="M 529.0,684.0 L 548.0,690.0 L 564.0,712.0 L 556.0,807.0 L 526.0,925.0 L 476.0,998.0"/>
    <path d="M 703.0,659.0 L 740.0,692.0 L 739.0,1070.0"/>
  </g>
</svg>
