<svg xmlns="http://www.w3.org/2000/svg" viewBox="0 0 1024 1024">
  <g style="fill:none;stroke:#000000;stroke-width:50;stroke-linecap:round;stroke-linejoin:round;" transform="scale(1, 1) translate(0, 0)">
    <path d="M 107.0,395.0 L 163.0,399.0 L 411.0,345.0 L 460.0,349.0"/>
    <path d="M 199.0,290.0 L 218.0,296.0 L 234.0,315.0 L 250.0,507.0"/>
    <path d="M 351.0,217.0 L 382.0,252.0 L 363.0,414.0 L 347.0,433.0"/>
    <path d="M 268.0,481.0 L 361.0,457.0 L 401.0,463.0"/>
    <path d="M 149.0,581.0 L 174.0,601.0 L 180.0,615.0 L 204.0,726.0"/>
    <path d="M 199.0,585.0 L 211.0,591.0 L 280.0,578.0 L 373.0,547.0 L 416.0,546.0 L 439.0,571.0 L 423.0,620.0 L 405.0,627.0"/>
    <path d="M 222.0,707.0 L 231.0,697.0 L 396.0,658.0 L 447.0,663.0"/>
    <path d="M 73.0,816.0 L 125.0,822.0 L 378.0,756.0 L 435.0,755.0"/>
    <path d="M 285.0,489.0 L 309.0,511.0 L 314.0,534.0 L 299.0,937.0 L 309.0,1016.0"/>
    <path d="M 499.0,344.0 L 521.0,350.0 L 588.0,348.0 L 646.0,335.0 L 832.0,311.0 L 881.0,317.0 L 903.0,326.0"/>
    <path d="M 557.0,237.0 L 591.0,262.0 L 612.0,400.0"/>
    <path d="M 750.0,192.0 L 777.0,226.0 L 726.0,406.0"/>
    <path d="M 501.0,508.0 L 564.0,515.0 L 799.0,468.0 L 850.0,468.0"/>
    <path d="M 618.0,433.0 L 631.0,443.0 L 647.0,472.0 L 601.0,596.0 L 506.0,752.0 L 437.0,835.0 L 387.0,882.0"/>
    <path d="M 512.0,656.0 L 545.0,710.0 L 545.0,843.0 L 534.0,971.0 L 539.0,1017.0"/>
    <path d="M 645.0,609.0 L 681.0,617.0 L 713.0,605.0 L 758.0,577.0 L 789.0,573.0 L 812.0,580.0 L 825.0,593.0 L 821.0,605.0 L 767.0,689.0"/>
    <path d="M 727.0,697.0 L 764.0,721.0 L 779.0,752.0 L 796.0,841.0 L 798.0,898.0 L 790.0,958.0 L 774.0,999.0 L 743.0,1024.0 L 659.0,974.0"/>
    <path d="M 604.0,780.0 L 640.0,787.0 L 871.0,752.0 L 942.0,766.0"/>
  </g>
</svg>
