<svg xmlns="http://www.w3.org/2000/svg" viewBox="0 0 1024 1024">
  <g style="fill:none;stroke:#000000;stroke-width:50;stroke-linecap:round;stroke-linejoin:round;" transform="scale(1, 1) translate(0, 0)">
    <path d="M 473.0,171.0 L 509.0,212.0 L 481.0,385.0 L 462.0,408.0"/>
    <path d="M 356.0,297.0 L 387.0,302.0 L 458.0,296.0 L 653.0,264.0 L 667.0,271.0 L 688.0,297.0 L 653.0,364.0 L 618.0,391.0"/>
    <path d="M 114.0,460.0 L 171.0,469.0 L 363.0,439.0 L 823.0,394.0 L 858.0,397.0 L 907.0,413.0"/>
    <path d="M 338.0,511.0 L 378.0,551.0 L 412.0,648.0"/>
    <path d="M 366.0,503.0 L 407.0,517.0 L 618.0,486.0 L 637.0,495.0 L 655.0,520.0 L 631.0,566.0 L 604.0,575.0"/>
    <path d="M 426.0,640.0 L 440.0,626.0 L 594.0,606.0 L 635.0,608.0 L 653.0,615.0"/>
    <path d="M 383.0,721.0 L 441.0,725.0 L 611.0,696.0 L 672.0,699.0"/>
    <path d="M 285.0,729.0 L 305.0,750.0 L 318.0,775.0 L 294.0,887.0 L 329.0,890.0 L 449.0,863.0 L 658.0,843.0 L 754.0,845.0 L 807.0,867.0"/>
    <path d="M 471.0,644.0 L 507.0,665.0 L 518.0,679.0 L 507.0,1102.0"/>
  </g>
</svg>
