<svg xmlns="http://www.w3.org/2000/svg" viewBox="0 0 1024 1024">
  <g style="fill:none;stroke:#000000;stroke-width:50;stroke-linecap:round;stroke-linejoin:round;" transform="scale(1, 1) translate(0, 0)">
    <path d="M 217.0,276.0 L 241.0,298.0 L 247.0,315.0 L 288.0,539.0"/>
    <path d="M 269.0,283.0 L 290.0,288.0 L 328.0,273.0 L 413.0,255.0 L 446.0,263.0 L 461.0,279.0 L 463.0,294.0 L 431.0,450.0 L 414.0,497.0 L 419.0,519.0"/>
    <path d="M 295.0,406.0 L 301.0,395.0 L 334.0,386.0 L 381.0,389.0"/>
    <path d="M 308.0,510.0 L 335.0,493.0 L 381.0,486.0"/>
    <path d="M 83.0,651.0 L 101.0,657.0 L 147.0,656.0 L 449.0,572.0 L 507.0,571.0"/>
    <path d="M 338.0,622.0 L 362.0,644.0 L 356.0,790.0 L 373.0,820.0"/>
    <path d="M 393.0,708.0 L 405.0,692.0 L 426.0,685.0 L 460.0,680.0 L 492.0,685.0"/>
    <path d="M 207.0,684.0 L 228.0,720.0 L 193.0,785.0 L 141.0,850.0 L 94.0,891.0 L 44.0,922.0"/>
    <path d="M 238.0,774.0 L 250.0,772.0 L 366.0,847.0 L 476.0,907.0 L 601.0,962.0 L 703.0,994.0 L 766.0,993.0 L 914.0,972.0 L 939.0,963.0"/>
    <path d="M 651.0,170.0 L 684.0,203.0 L 659.0,384.0 L 643.0,400.0"/>
    <path d="M 580.0,296.0 L 599.0,299.0 L 653.0,292.0 L 750.0,267.0 L 771.0,267.0 L 800.0,298.0 L 781.0,351.0 L 752.0,379.0"/>
    <path d="M 497.0,444.0 L 519.0,447.0 L 849.0,383.0 L 897.0,381.0 L 935.0,389.0"/>
    <path d="M 555.0,505.0 L 588.0,540.0 L 612.0,619.0"/>
    <path d="M 575.0,499.0 L 607.0,507.0 L 705.0,485.0 L 715.0,478.0 L 753.0,478.0 L 774.0,502.0 L 763.0,528.0 L 739.0,548.0"/>
    <path d="M 625.0,586.0 L 633.0,591.0 L 770.0,566.0 L 792.0,572.0"/>
    <path d="M 604.0,669.0 L 624.0,674.0 L 668.0,671.0 L 748.0,649.0 L 804.0,644.0"/>
    <path d="M 550.0,681.0 L 575.0,715.0 L 553.0,788.0 L 561.0,790.0 L 675.0,763.0 L 804.0,744.0 L 854.0,746.0 L 883.0,758.0"/>
    <path d="M 675.0,604.0 L 707.0,631.0 L 699.0,924.0"/>
  </g>
</svg>
