<svg xmlns="http://www.w3.org/2000/svg" viewBox="0 0 1024 1024">
  <g style="fill:none;stroke:#000000;stroke-width:50;stroke-linecap:round;stroke-linejoin:round;" transform="scale(1, 1) translate(0, 0)">
    <path d="M 161.0,386.0 L 192.0,391.0 L 233.0,388.0 L 373.0,353.0 L 447.0,345.0"/>
    <path d="M 168.0,501.0 L 189.0,506.0 L 224.0,503.0 L 399.0,456.0 L 436.0,455.0"/>
    <path d="M 81.0,630.0 L 130.0,637.0 L 422.0,574.0 L 452.0,578.0 L 466.0,591.0 L 466.0,612.0 L 457.0,701.0 L 437.0,760.0 L 413.0,788.0 L 353.0,757.0"/>
    <path d="M 267.0,212.0 L 294.0,235.0 L 316.0,265.0 L 303.0,744.0 L 283.0,953.0 L 284.0,1034.0"/>
    <path d="M 525.0,494.0 L 562.0,505.0 L 589.0,503.0 L 839.0,453.0 L 868.0,466.0 L 878.0,479.0 L 846.0,737.0 L 818.0,851.0 L 794.0,907.0 L 778.0,929.0 L 746.0,949.0 L 641.0,885.0"/>
    <path d="M 650.0,515.0 L 679.0,542.0 L 650.0,654.0 L 612.0,754.0 L 576.0,825.0 L 535.0,885.0 L 469.0,958.0 L 435.0,984.0"/>
    <path d="M 555.0,591.0 L 553.0,640.0 L 537.0,709.0"/>
  </g>
</svg>
