<svg xmlns="http://www.w3.org/2000/svg" viewBox="0 0 1024 1024">
  <g style="fill:none;stroke:#000000;stroke-width:50;stroke-linecap:round;stroke-linejoin:round;" transform="scale(1, 1) translate(0, 0)">
    <path d="M 271.0,306.0 L 297.0,339.0 L 272.0,402.0 L 227.0,473.0 L 173.0,525.0"/>
    <path d="M 279.0,450.0 L 309.0,478.0 L 323.0,502.0"/>
    <path d="M 466.0,277.0 L 488.0,304.0 L 459.0,387.0 L 406.0,468.0 L 372.0,502.0"/>
    <path d="M 463.0,421.0 L 487.0,425.0 L 518.0,443.0 L 538.0,473.0"/>
    <path d="M 134.0,599.0 L 191.0,604.0 L 434.0,552.0 L 716.0,510.0 L 759.0,510.0 L 820.0,523.0"/>
    <path d="M 267.0,633.0 L 295.0,665.0 L 298.0,701.0 L 299.0,908.0 L 295.0,937.0 L 281.0,954.0"/>
    <path d="M 205.0,728.0 L 260.0,719.0 L 270.0,708.0"/>
    <path d="M 200.0,812.0 L 256.0,801.0 L 270.0,789.0"/>
    <path d="M 168.0,904.0 L 258.0,884.0 L 273.0,869.0"/>
    <path d="M 384.0,583.0 L 404.0,600.0 L 415.0,633.0 L 409.0,915.0 L 394.0,929.0"/>
    <path d="M 444.0,685.0 L 452.0,673.0 L 482.0,667.0 L 522.0,662.0 L 541.0,667.0"/>
    <path d="M 441.0,774.0 L 448.0,763.0 L 478.0,757.0 L 540.0,758.0"/>
    <path d="M 437.0,863.0 L 445.0,853.0 L 499.0,841.0 L 548.0,844.0"/>
    <path d="M 126.0,993.0 L 180.0,1014.0 L 449.0,946.0 L 561.0,911.0"/>
    <path d="M 561.0,221.0 L 593.0,237.0 L 616.0,262.0 L 618.0,406.0 L 640.0,590.0 L 687.0,789.0 L 725.0,876.0 L 797.0,980.0 L 835.0,1007.0 L 862.0,1016.0 L 891.0,955.0 L 912.0,866.0"/>
    <path d="M 796.0,616.0 L 816.0,650.0 L 784.0,742.0 L 723.0,850.0 L 641.0,940.0 L 543.0,1013.0 L 512.0,1028.0"/>
    <path d="M 713.0,311.0 L 808.0,370.0 L 830.0,402.0"/>
  </g>
</svg>
