<svg xmlns="http://www.w3.org/2000/svg" viewBox="0 0 1024 1024">
  <g style="fill:none;stroke:#000000;stroke-width:50;stroke-linecap:round;stroke-linejoin:round;" transform="scale(1, 1) translate(0, 0)">
    <path d="M 144.0,390.0 L 176.0,395.0 L 217.0,392.0 L 375.0,351.0 L 423.0,349.0"/>
    <path d="M 148.0,511.0 L 209.0,514.0 L 310.0,494.0 L 367.0,474.0 L 418.0,473.0"/>
    <path d="M 84.0,668.0 L 126.0,670.0 L 228.0,634.0 L 369.0,602.0 L 396.0,602.0 L 413.0,612.0 L 431.0,635.0 L 403.0,752.0 L 387.0,789.0 L 375.0,804.0 L 303.0,772.0"/>
    <path d="M 241.0,228.0 L 261.0,239.0 L 283.0,267.0 L 267.0,1012.0"/>
    <path d="M 786.0,292.0 L 718.0,285.0 L 629.0,352.0 L 497.0,417.0"/>
    <path d="M 476.0,470.0 L 537.0,514.0 L 562.0,554.0"/>
    <path d="M 609.0,443.0 L 641.0,474.0 L 661.0,506.0"/>
    <path d="M 828.0,385.0 L 846.0,419.0 L 745.0,522.0 L 715.0,545.0"/>
    <path d="M 565.0,598.0 L 580.0,624.0 L 550.0,664.0 L 521.0,690.0 L 522.0,700.0"/>
    <path d="M 462.0,696.0 L 492.0,726.0 L 512.0,831.0 L 528.0,968.0"/>
    <path d="M 538.0,808.0 L 544.0,797.0 L 591.0,785.0 L 633.0,789.0"/>
    <path d="M 689.0,640.0 L 732.0,644.0 L 827.0,633.0 L 848.0,643.0 L 865.0,665.0 L 849.0,739.0 L 844.0,817.0 L 828.0,911.0 L 809.0,946.0 L 810.0,999.0"/>
    <path d="M 697.0,773.0 L 801.0,765.0 L 814.0,754.0"/>
    <path d="M 548.0,952.0 L 559.0,941.0 L 580.0,936.0 L 787.0,909.0"/>
  </g>
</svg>
