<svg xmlns="http://www.w3.org/2000/svg" viewBox="0 0 1024 1024">
  <g style="fill:none;stroke:#000000;stroke-width:50;stroke-linecap:round;stroke-linejoin:round;" transform="scale(1, 1) translate(0, 0)">
    <path d="M 453.0,187.0 L 531.0,231.0 L 555.0,264.0"/>
    <path d="M 312.0,373.0 L 347.0,382.0 L 396.0,380.0 L 643.0,335.0 L 695.0,327.0 L 727.0,329.0"/>
    <path d="M 358.0,454.0 L 404.0,509.0 L 414.0,534.0"/>
    <path d="M 597.0,375.0 L 622.0,400.0 L 562.0,537.0 L 542.0,554.0"/>
    <path d="M 118.0,618.0 L 180.0,628.0 L 448.0,586.0 L 816.0,547.0 L 892.0,553.0 L 925.0,565.0"/>
    <path d="M 336.0,690.0 L 364.0,711.0 L 374.0,766.0 L 375.0,843.0 L 356.0,1002.0 L 358.0,1037.0"/>
    <path d="M 395.0,697.0 L 412.0,709.0 L 597.0,668.0 L 624.0,683.0 L 643.0,703.0 L 644.0,976.0 L 631.0,1025.0 L 632.0,1083.0"/>
    <path d="M 401.0,858.0 L 413.0,847.0 L 508.0,829.0 L 554.0,834.0"/>
    <path d="M 386.0,1017.0 L 412.0,1002.0 L 549.0,985.0 L 586.0,986.0"/>
  </g>
</svg>
