<svg xmlns="http://www.w3.org/2000/svg" viewBox="0 0 1024 1024">
  <g style="fill:none;stroke:#000000;stroke-width:50;stroke-linecap:round;stroke-linejoin:round;" transform="scale(1, 1) translate(0, 0)">
    <path d="M 152.0,390.0 L 223.0,391.0 L 384.0,345.0 L 422.0,345.0"/>
    <path d="M 156.0,511.0 L 224.0,511.0 L 341.0,479.0 L 392.0,477.0"/>
    <path d="M 84.0,668.0 L 126.0,670.0 L 228.0,634.0 L 369.0,602.0 L 396.0,602.0 L 413.0,612.0 L 431.0,635.0 L 403.0,752.0 L 387.0,789.0 L 375.0,804.0 L 303.0,772.0"/>
    <path d="M 241.0,228.0 L 261.0,239.0 L 283.0,266.0 L 267.0,1012.0"/>
    <path d="M 491.0,320.0 L 524.0,348.0 L 534.0,369.0 L 563.0,538.0 L 578.0,579.0"/>
    <path d="M 554.0,327.0 L 573.0,339.0 L 742.0,304.0 L 772.0,309.0 L 795.0,327.0 L 804.0,340.0 L 773.0,471.0 L 752.0,530.0 L 755.0,556.0"/>
    <path d="M 577.0,453.0 L 586.0,444.0 L 643.0,428.0 L 682.0,424.0 L 704.0,429.0"/>
    <path d="M 594.0,555.0 L 626.0,540.0 L 704.0,531.0 L 717.0,523.0"/>
    <path d="M 465.0,691.0 L 483.0,709.0 L 493.0,732.0 L 513.0,879.0 L 522.0,887.0"/>
    <path d="M 507.0,694.0 L 537.0,704.0 L 772.0,660.0 L 819.0,662.0 L 850.0,696.0 L 815.0,837.0 L 789.0,858.0"/>
    <path d="M 599.0,713.0 L 594.0,724.0 L 606.0,847.0 L 615.0,881.0"/>
    <path d="M 688.0,694.0 L 713.0,718.0 L 692.0,859.0 L 675.0,868.0"/>
    <path d="M 398.0,916.0 L 446.0,926.0 L 646.0,899.0 L 889.0,880.0 L 967.0,900.0"/>
  </g>
</svg>
