<svg xmlns="http://www.w3.org/2000/svg" viewBox="0 0 1024 1024">
  <g style="fill:none;stroke:#000000;stroke-width:50;stroke-linecap:round;stroke-linejoin:round;" transform="scale(1, 1) translate(0, 0)">
    <path d="M 305.0,215.0 L 385.0,258.0 L 408.0,289.0"/>
    <path d="M 188.0,402.0 L 248.0,404.0 L 441.0,355.0 L 482.0,353.0"/>
    <path d="M 216.0,488.0 L 260.0,543.0 L 267.0,564.0"/>
    <path d="M 399.0,423.0 L 419.0,455.0 L 382.0,561.0 L 372.0,569.0"/>
    <path d="M 114.0,645.0 L 166.0,650.0 L 433.0,591.0 L 478.0,597.0"/>
    <path d="M 189.0,720.0 L 217.0,759.0 L 219.0,835.0 L 206.0,971.0 L 208.0,1004.0"/>
    <path d="M 234.0,726.0 L 255.0,735.0 L 279.0,731.0 L 385.0,699.0 L 412.0,712.0 L 426.0,731.0 L 429.0,948.0 L 418.0,976.0 L 365.0,963.0"/>
    <path d="M 248.0,849.0 L 255.0,837.0 L 289.0,827.0 L 335.0,818.0 L 368.0,822.0"/>
    <path d="M 239.0,968.0 L 250.0,954.0 L 292.0,948.0 L 345.0,942.0 L 385.0,948.0"/>
    <path d="M 608.0,233.0 L 625.0,245.0 L 644.0,273.0 L 633.0,314.0 L 591.0,417.0 L 564.0,467.0 L 501.0,558.0"/>
    <path d="M 565.0,499.0 L 772.0,458.0 L 804.0,463.0 L 831.0,491.0 L 814.0,816.0 L 797.0,899.0 L 771.0,964.0 L 742.0,1000.0 L 722.0,1012.0 L 613.0,956.0"/>
    <path d="M 537.0,609.0 L 619.0,648.0 L 634.0,670.0"/>
    <path d="M 483.0,841.0 L 535.0,839.0 L 644.0,763.0 L 658.0,759.0 L 664.0,749.0 L 703.0,723.0"/>
  </g>
</svg>
