<svg xmlns="http://www.w3.org/2000/svg" viewBox="0 0 1024 1024">
  <g style="fill:none;stroke:#000000;stroke-width:50;stroke-linecap:round;stroke-linejoin:round;" transform="scale(1, 1) translate(0, 0)">
    <path d="M 309.0,215.0 L 392.0,261.0 L 414.0,292.0"/>
    <path d="M 213.0,398.0 L 237.0,404.0 L 277.0,403.0 L 445.0,364.0 L 481.0,365.0"/>
    <path d="M 219.0,491.0 L 252.0,529.0 L 271.0,564.0"/>
    <path d="M 395.0,406.0 L 422.0,433.0 L 372.0,566.0 L 349.0,588.0"/>
    <path d="M 84.0,655.0 L 142.0,663.0 L 428.0,596.0 L 460.0,591.0 L 500.0,596.0"/>
    <path d="M 212.0,734.0 L 227.0,745.0 L 240.0,770.0 L 240.0,998.0"/>
    <path d="M 261.0,744.0 L 271.0,751.0 L 379.0,720.0 L 396.0,723.0 L 419.0,742.0 L 425.0,756.0 L 422.0,829.0 L 428.0,924.0 L 422.0,984.0"/>
    <path d="M 270.0,863.0 L 278.0,851.0 L 293.0,846.0 L 344.0,836.0 L 365.0,841.0"/>
    <path d="M 264.0,973.0 L 277.0,959.0 L 360.0,943.0 L 379.0,943.0 L 388.0,954.0"/>
    <path d="M 537.0,365.0 L 597.0,371.0 L 821.0,324.0 L 847.0,343.0 L 848.0,376.0 L 833.0,473.0 L 819.0,531.0 L 793.0,588.0 L 764.0,616.0 L 732.0,600.0 L 691.0,566.0"/>
    <path d="M 651.0,382.0 L 677.0,402.0 L 680.0,414.0 L 649.0,499.0 L 589.0,604.0 L 540.0,665.0 L 518.0,681.0"/>
    <path d="M 522.0,745.0 L 552.0,771.0 L 588.0,973.0"/>
    <path d="M 584.0,776.0 L 596.0,763.0 L 762.0,728.0 L 796.0,736.0 L 820.0,761.0 L 792.0,869.0 L 769.0,884.0"/>
    <path d="M 608.0,942.0 L 624.0,928.0 L 753.0,914.0 L 802.0,916.0 L 829.0,925.0"/>
  </g>
</svg>
