<svg xmlns="http://www.w3.org/2000/svg" viewBox="0 0 1024 1024">
  <g style="fill:none;stroke:#000000;stroke-width:50;stroke-linecap:round;stroke-linejoin:round;" transform="scale(1, 1) translate(0, 0)">
    <path d="M 132.0,324.0 L 180.0,329.0 L 298.0,303.0 L 416.0,267.0 L 462.0,267.0"/>
    <path d="M 261.0,342.0 L 289.0,354.0 L 313.0,386.0 L 316.0,667.0 L 310.0,836.0 L 291.0,870.0 L 256.0,861.0 L 166.0,815.0"/>
    <path d="M 504.0,284.0 L 557.0,288.0 L 688.0,258.0 L 848.0,234.0 L 921.0,248.0"/>
    <path d="M 652.0,292.0 L 668.0,307.0 L 674.0,322.0 L 634.0,388.0 L 600.0,422.0"/>
    <path d="M 521.0,420.0 L 544.0,443.0 L 552.0,462.0 L 556.0,658.0 L 550.0,765.0 L 556.0,807.0"/>
    <path d="M 579.0,453.0 L 590.0,442.0 L 777.0,398.0 L 799.0,404.0 L 830.0,435.0 L 823.0,528.0 L 827.0,736.0 L 819.0,814.0"/>
    <path d="M 585.0,552.0 L 708.0,522.0 L 745.0,522.0"/>
    <path d="M 585.0,658.0 L 604.0,650.0 L 716.0,633.0 L 753.0,634.0"/>
    <path d="M 580.0,791.0 L 593.0,781.0 L 619.0,775.0 L 718.0,764.0 L 769.0,761.0 L 780.0,773.0"/>
    <path d="M 634.0,864.0 L 601.0,870.0 L 557.0,922.0 L 515.0,960.0 L 466.0,995.0 L 416.0,1019.0"/>
    <path d="M 749.0,848.0 L 871.0,961.0 L 889.0,989.0 L 898.0,1026.0"/>
  </g>
</svg>
