<svg xmlns="http://www.w3.org/2000/svg" viewBox="0 0 1024 1024">
  <g style="fill:none;stroke:#000000;stroke-width:50;stroke-linecap:round;stroke-linejoin:round;" transform="scale(1, 1) translate(0, 0)">
    <path d="M 219.0,325.0 L 244.0,329.0 L 285.0,324.0 L 374.0,296.0 L 427.0,294.0"/>
    <path d="M 77.0,520.0 L 124.0,524.0 L 397.0,445.0 L 457.0,444.0"/>
    <path d="M 217.0,530.0 L 232.0,542.0 L 239.0,566.0 L 194.0,681.0 L 138.0,767.0 L 67.0,829.0"/>
    <path d="M 302.0,497.0 L 328.0,508.0 L 342.0,532.0 L 327.0,753.0 L 336.0,813.0 L 377.0,796.0 L 466.0,723.0"/>
    <path d="M 508.0,288.0 L 552.0,291.0 L 827.0,238.0 L 860.0,235.0 L 930.0,246.0"/>
    <path d="M 625.0,298.0 L 653.0,324.0 L 628.0,393.0 L 611.0,411.0"/>
    <path d="M 511.0,420.0 L 534.0,443.0 L 542.0,463.0 L 547.0,599.0 L 542.0,718.0 L 549.0,787.0"/>
    <path d="M 556.0,427.0 L 587.0,435.0 L 765.0,390.0 L 787.0,397.0 L 820.0,430.0 L 812.0,539.0 L 818.0,715.0 L 811.0,791.0"/>
    <path d="M 572.0,558.0 L 583.0,551.0 L 677.0,532.0 L 715.0,527.0 L 735.0,531.0"/>
    <path d="M 572.0,659.0 L 584.0,652.0 L 652.0,640.0 L 731.0,634.0"/>
    <path d="M 572.0,773.0 L 592.0,758.0 L 736.0,737.0 L 759.0,738.0 L 767.0,750.0"/>
    <path d="M 635.0,858.0 L 601.0,861.0 L 563.0,904.0 L 517.0,943.0 L 464.0,981.0 L 401.0,1011.0"/>
    <path d="M 746.0,838.0 L 851.0,944.0 L 875.0,982.0 L 888.0,1031.0"/>
  </g>
</svg>
