<svg xmlns="http://www.w3.org/2000/svg" viewBox="0 0 1024 1024">
  <g style="fill:none;stroke:#000000;stroke-width:50;stroke-linecap:round;stroke-linejoin:round;" transform="scale(1, 1) translate(0, 0)">
    <path d="M 179.0,444.0 L 201.0,448.0 L 251.0,443.0 L 407.0,392.0 L 453.0,393.0"/>
    <path d="M 149.0,544.0 L 177.0,581.0 L 172.0,669.0 L 176.0,690.0 L 205.0,689.0 L 321.0,630.0 L 381.0,609.0 L 398.0,589.0"/>
    <path d="M 413.0,475.0 L 442.0,514.0 L 420.0,666.0"/>
    <path d="M 261.0,204.0 L 294.0,226.0 L 307.0,254.0 L 309.0,436.0 L 299.0,672.0 L 286.0,798.0 L 290.0,841.0 L 336.0,826.0 L 450.0,745.0"/>
    <path d="M 484.0,300.0 L 526.0,304.0 L 662.0,270.0 L 854.0,235.0 L 906.0,235.0 L 939.0,243.0"/>
    <path d="M 617.0,304.0 L 647.0,330.0 L 619.0,412.0 L 603.0,430.0"/>
    <path d="M 515.0,436.0 L 539.0,460.0 L 546.0,480.0 L 549.0,644.0 L 543.0,775.0 L 549.0,811.0"/>
    <path d="M 563.0,445.0 L 580.0,454.0 L 774.0,407.0 L 796.0,414.0 L 819.0,435.0 L 828.0,450.0 L 824.0,510.0 L 832.0,750.0 L 826.0,814.0"/>
    <path d="M 576.0,560.0 L 584.0,553.0 L 628.0,550.0 L 721.0,529.0 L 745.0,530.0"/>
    <path d="M 576.0,671.0 L 695.0,647.0 L 744.0,647.0"/>
    <path d="M 570.0,797.0 L 592.0,779.0 L 728.0,757.0 L 765.0,755.0 L 780.0,767.0"/>
    <path d="M 586.0,842.0 L 602.0,869.0 L 564.0,917.0 L 489.0,981.0 L 440.0,1013.0 L 401.0,1030.0"/>
    <path d="M 749.0,847.0 L 864.0,975.0 L 885.0,1045.0"/>
  </g>
</svg>
