<svg xmlns="http://www.w3.org/2000/svg" viewBox="0 0 1024 1024">
  <g style="fill:none;stroke:#000000;stroke-width:50;stroke-linecap:round;stroke-linejoin:round;" transform="scale(1, 1) translate(0, 0)">
    <path d="M 284.0,265.0 L 306.0,286.0 L 318.0,308.0 L 268.0,408.0 L 157.0,576.0 L 78.0,669.0 L 39.0,703.0"/>
    <path d="M 316.0,386.0 L 348.0,392.0 L 410.0,426.0 L 441.0,448.0 L 463.0,479.0"/>
    <path d="M 223.0,582.0 L 276.0,584.0 L 376.0,558.0 L 413.0,557.0"/>
    <path d="M 172.0,698.0 L 201.0,722.0 L 205.0,733.0 L 248.0,917.0"/>
    <path d="M 234.0,702.0 L 244.0,712.0 L 371.0,682.0 L 401.0,689.0 L 426.0,714.0 L 400.0,790.0 L 376.0,807.0"/>
    <path d="M 266.0,869.0 L 276.0,854.0 L 364.0,834.0 L 417.0,835.0 L 434.0,841.0"/>
    <path d="M 512.0,328.0 L 557.0,333.0 L 700.0,301.0 L 841.0,280.0 L 892.0,280.0 L 936.0,290.0"/>
    <path d="M 646.0,338.0 L 671.0,363.0 L 639.0,439.0 L 617.0,456.0"/>
    <path d="M 537.0,454.0 L 557.0,474.0 L 565.0,494.0 L 566.0,681.0 L 560.0,729.0 L 565.0,787.0"/>
    <path d="M 587.0,471.0 L 600.0,477.0 L 624.0,474.0 L 776.0,441.0 L 805.0,454.0 L 827.0,479.0 L 821.0,532.0 L 825.0,737.0 L 819.0,799.0"/>
    <path d="M 590.0,575.0 L 601.0,565.0 L 695.0,548.0 L 736.0,552.0"/>
    <path d="M 593.0,664.0 L 599.0,653.0 L 662.0,643.0 L 711.0,638.0 L 744.0,643.0"/>
    <path d="M 588.0,769.0 L 600.0,761.0 L 662.0,749.0 L 780.0,738.0"/>
    <path d="M 664.0,855.0 L 630.0,861.0 L 594.0,905.0 L 547.0,948.0 L 471.0,1002.0 L 435.0,1019.0"/>
    <path d="M 757.0,840.0 L 859.0,940.0 L 878.0,969.0 L 892.0,1016.0"/>
  </g>
</svg>
