<svg xmlns="http://www.w3.org/2000/svg" viewBox="0 0 1024 1024">
  <g style="fill:none;stroke:#000000;stroke-width:50;stroke-linecap:round;stroke-linejoin:round;" transform="scale(1, 1) translate(0, 0)">
    <path d="M 220.0,308.0 L 279.0,312.0 L 394.0,281.0 L 453.0,278.0"/>
    <path d="M 176.0,468.0 L 212.0,500.0 L 255.0,639.0"/>
    <path d="M 221.0,462.0 L 246.0,470.0 L 383.0,432.0 L 413.0,439.0 L 436.0,462.0 L 408.0,535.0 L 386.0,549.0"/>
    <path d="M 271.0,611.0 L 282.0,596.0 L 351.0,580.0 L 377.0,575.0 L 432.0,580.0"/>
    <path d="M 198.0,678.0 L 242.0,729.0 L 258.0,761.0"/>
    <path d="M 380.0,641.0 L 401.0,676.0 L 354.0,787.0 L 335.0,804.0"/>
    <path d="M 107.0,872.0 L 163.0,889.0 L 468.0,779.0"/>
    <path d="M 557.0,283.0 L 580.0,290.0 L 618.0,290.0 L 855.0,242.0 L 908.0,240.0"/>
    <path d="M 651.0,310.0 L 676.0,342.0 L 634.0,415.0 L 612.0,433.0"/>
    <path d="M 540.0,435.0 L 560.0,457.0 L 570.0,488.0 L 574.0,615.0 L 567.0,732.0 L 573.0,797.0"/>
    <path d="M 580.0,441.0 L 602.0,451.0 L 615.0,450.0 L 783.0,416.0 L 803.0,423.0 L 823.0,443.0 L 831.0,468.0 L 825.0,538.0 L 830.0,732.0 L 823.0,811.0"/>
    <path d="M 598.0,560.0 L 687.0,537.0 L 736.0,533.0"/>
    <path d="M 596.0,645.0 L 609.0,651.0 L 630.0,649.0 L 708.0,630.0 L 744.0,629.0"/>
    <path d="M 594.0,778.0 L 606.0,767.0 L 749.0,748.0 L 772.0,750.0 L 778.0,760.0"/>
    <path d="M 662.0,847.0 L 631.0,851.0 L 593.0,897.0 L 527.0,956.0 L 463.0,1000.0 L 403.0,1027.0"/>
    <path d="M 757.0,846.0 L 860.0,954.0 L 881.0,992.0 L 888.0,1028.0"/>
  </g>
</svg>
