<svg xmlns="http://www.w3.org/2000/svg" viewBox="0 0 1024 1024">
  <g style="fill:none;stroke:#000000;stroke-width:50;stroke-linecap:round;stroke-linejoin:round;" transform="scale(1, 1) translate(0, 0)">
    <path d="M 313.0,203.0 L 379.0,240.0 L 401.0,269.0"/>
    <path d="M 182.0,341.0 L 191.0,379.0 L 161.0,460.0 L 162.0,496.0"/>
    <path d="M 216.0,379.0 L 314.0,350.0 L 434.0,325.0 L 481.0,330.0 L 500.0,352.0 L 446.0,413.0"/>
    <path d="M 329.0,445.0 L 293.0,458.0 L 241.0,557.0 L 208.0,599.0 L 163.0,640.0"/>
    <path d="M 280.0,536.0 L 381.0,509.0 L 418.0,519.0 L 412.0,539.0 L 373.0,602.0 L 294.0,697.0 L 194.0,792.0 L 97.0,857.0"/>
    <path d="M 249.0,605.0 L 434.0,663.0 L 482.0,700.0"/>
    <path d="M 223.0,799.0 L 241.0,807.0 L 246.0,816.0 L 273.0,958.0"/>
    <path d="M 264.0,788.0 L 275.0,794.0 L 386.0,763.0 L 416.0,764.0 L 437.0,791.0 L 416.0,847.0 L 391.0,862.0"/>
    <path d="M 287.0,919.0 L 303.0,907.0 L 387.0,888.0 L 443.0,892.0"/>
    <path d="M 589.0,290.0 L 658.0,294.0 L 827.0,250.0 L 885.0,249.0"/>
    <path d="M 674.0,318.0 L 694.0,339.0 L 653.0,415.0 L 633.0,430.0"/>
    <path d="M 541.0,434.0 L 563.0,455.0 L 570.0,476.0 L 572.0,601.0 L 564.0,730.0 L 569.0,787.0"/>
    <path d="M 589.0,445.0 L 599.0,453.0 L 619.0,455.0 L 677.0,436.0 L 777.0,415.0 L 789.0,419.0 L 821.0,450.0 L 815.0,532.0 L 819.0,711.0 L 811.0,786.0"/>
    <path d="M 593.0,563.0 L 603.0,556.0 L 687.0,541.0 L 732.0,540.0"/>
    <path d="M 594.0,657.0 L 605.0,650.0 L 702.0,635.0 L 742.0,637.0"/>
    <path d="M 593.0,769.0 L 612.0,755.0 L 760.0,737.0 L 774.0,725.0"/>
    <path d="M 665.0,842.0 L 633.0,848.0 L 585.0,910.0 L 546.0,949.0 L 479.0,1000.0 L 451.0,1014.0"/>
    <path d="M 749.0,864.0 L 855.0,962.0 L 870.0,988.0 L 878.0,1022.0"/>
  </g>
</svg>
