<svg xmlns="http://www.w3.org/2000/svg" viewBox="0 0 1024 1024">
  <g style="fill:none;stroke:#000000;stroke-width:50;stroke-linecap:round;stroke-linejoin:round;" transform="scale(1, 1) translate(0, 0)">
    <path d="M 321.0,175.0 L 399.0,219.0 L 421.0,249.0"/>
    <path d="M 178.0,372.0 L 204.0,376.0 L 241.0,371.0 L 469.0,318.0 L 508.0,322.0"/>
    <path d="M 387.0,361.0 L 403.0,378.0 L 379.0,424.0 L 330.0,489.0 L 292.0,523.0 L 265.0,534.0 L 263.0,541.0"/>
    <path d="M 262.0,427.0 L 273.0,425.0 L 287.0,434.0 L 392.0,461.0 L 427.0,479.0 L 441.0,495.0"/>
    <path d="M 246.0,610.0 L 262.0,598.0 L 371.0,571.0 L 444.0,545.0 L 477.0,541.0"/>
    <path d="M 189.0,571.0 L 211.0,597.0 L 214.0,616.0 L 199.0,701.0 L 175.0,781.0 L 144.0,860.0 L 115.0,913.0 L 41.0,996.0"/>
    <path d="M 398.0,632.0 L 375.0,638.0 L 317.0,717.0 L 248.0,771.0"/>
    <path d="M 411.0,753.0 L 389.0,757.0 L 365.0,788.0 L 317.0,832.0 L 253.0,873.0"/>
    <path d="M 425.0,881.0 L 393.0,889.0 L 359.0,941.0 L 316.0,987.0 L 253.0,1041.0 L 197.0,1074.0"/>
    <path d="M 535.0,353.0 L 583.0,355.0 L 807.0,301.0 L 872.0,302.0 L 892.0,308.0"/>
    <path d="M 652.0,359.0 L 670.0,377.0 L 669.0,389.0 L 638.0,438.0 L 606.0,464.0"/>
    <path d="M 525.0,466.0 L 550.0,497.0 L 556.0,543.0 L 544.0,807.0 L 549.0,844.0"/>
    <path d="M 566.0,474.0 L 598.0,484.0 L 759.0,446.0 L 781.0,450.0 L 815.0,485.0 L 807.0,593.0 L 811.0,764.0 L 803.0,838.0"/>
    <path d="M 577.0,599.0 L 587.0,592.0 L 658.0,579.0 L 727.0,573.0"/>
    <path d="M 579.0,689.0 L 584.0,696.0 L 610.0,695.0 L 663.0,690.0 L 702.0,679.0 L 739.0,681.0"/>
    <path d="M 570.0,825.0 L 591.0,810.0 L 752.0,789.0 L 766.0,777.0"/>
    <path d="M 626.0,907.0 L 594.0,911.0 L 567.0,945.0 L 520.0,986.0 L 468.0,1022.0 L 428.0,1039.0"/>
    <path d="M 729.0,877.0 L 830.0,972.0 L 856.0,1015.0 L 864.0,1049.0"/>
  </g>
</svg>
