<svg xmlns="http://www.w3.org/2000/svg" viewBox="0 0 1024 1024">
  <g style="fill:none;stroke:#000000;stroke-width:50;stroke-linecap:round;stroke-linejoin:round;" transform="scale(1, 1) translate(0, 0)">
    <path d="M 142.0,299.0 L 170.0,327.0 L 201.0,463.0"/>
    <path d="M 182.0,302.0 L 196.0,305.0 L 258.0,283.0 L 288.0,282.0 L 303.0,298.0 L 303.0,309.0 L 287.0,377.0 L 273.0,385.0"/>
    <path d="M 216.0,432.0 L 223.0,423.0 L 257.0,410.0 L 311.0,408.0"/>
    <path d="M 349.0,247.0 L 373.0,276.0 L 397.0,403.0"/>
    <path d="M 391.0,251.0 L 399.0,256.0 L 477.0,237.0 L 497.0,242.0 L 511.0,259.0 L 491.0,322.0 L 471.0,336.0"/>
    <path d="M 409.0,378.0 L 419.0,368.0 L 460.0,358.0 L 518.0,359.0"/>
    <path d="M 223.0,505.0 L 281.0,505.0 L 394.0,470.0 L 432.0,468.0"/>
    <path d="M 60.0,644.0 L 114.0,651.0 L 429.0,574.0 L 487.0,575.0"/>
    <path d="M 273.0,636.0 L 293.0,655.0 L 261.0,717.0 L 256.0,746.0 L 289.0,752.0 L 350.0,730.0 L 381.0,729.0 L 416.0,759.0 L 410.0,806.0 L 392.0,875.0 L 372.0,922.0 L 343.0,971.0 L 316.0,996.0 L 297.0,1003.0 L 216.0,937.0"/>
    <path d="M 572.0,301.0 L 612.0,305.0 L 743.0,278.0 L 873.0,260.0 L 948.0,271.0"/>
    <path d="M 679.0,315.0 L 695.0,332.0 L 698.0,344.0 L 666.0,404.0 L 638.0,431.0"/>
    <path d="M 549.0,434.0 L 570.0,455.0 L 578.0,479.0 L 582.0,533.0 L 573.0,725.0 L 577.0,791.0"/>
    <path d="M 592.0,443.0 L 612.0,453.0 L 781.0,417.0 L 803.0,423.0 L 833.0,451.0 L 830.0,562.0 L 837.0,730.0 L 830.0,754.0 L 830.0,791.0"/>
    <path d="M 602.0,566.0 L 614.0,559.0 L 728.0,541.0 L 758.0,545.0"/>
    <path d="M 605.0,648.0 L 612.0,655.0 L 721.0,638.0 L 762.0,641.0"/>
    <path d="M 601.0,772.0 L 612.0,759.0 L 737.0,740.0 L 773.0,738.0 L 789.0,751.0"/>
    <path d="M 642.0,865.0 L 613.0,870.0 L 535.0,949.0 L 485.0,985.0 L 446.0,1003.0"/>
    <path d="M 746.0,857.0 L 853.0,958.0 L 870.0,986.0 L 878.0,1022.0"/>
  </g>
</svg>
