<svg xmlns="http://www.w3.org/2000/svg" viewBox="0 0 1024 1024">
  <g style="fill:none;stroke:#000000;stroke-width:50;stroke-linecap:round;stroke-linejoin:round;" transform="scale(1, 1) translate(0, 0)">
    <path d="M 307.0,225.0 L 344.0,262.0 L 336.0,390.0 L 318.0,405.0"/>
    <path d="M 177.0,338.0 L 202.0,377.0 L 197.0,463.0 L 236.0,461.0 L 310.0,435.0 L 427.0,409.0 L 444.0,393.0"/>
    <path d="M 473.0,264.0 L 498.0,304.0 L 464.0,426.0 L 457.0,472.0"/>
    <path d="M 207.0,567.0 L 255.0,569.0 L 400.0,529.0 L 429.0,528.0"/>
    <path d="M 180.0,643.0 L 206.0,662.0 L 215.0,679.0 L 248.0,801.0"/>
    <path d="M 233.0,642.0 L 242.0,650.0 L 260.0,650.0 L 391.0,620.0 L 411.0,623.0 L 441.0,649.0 L 425.0,701.0 L 405.0,713.0"/>
    <path d="M 263.0,768.0 L 273.0,759.0 L 396.0,739.0 L 443.0,747.0"/>
    <path d="M 185.0,834.0 L 241.0,875.0 L 254.0,899.0"/>
    <path d="M 364.0,768.0 L 385.0,787.0 L 390.0,801.0 L 353.0,897.0 L 337.0,915.0"/>
    <path d="M 104.0,970.0 L 171.0,977.0 L 445.0,918.0 L 508.0,920.0"/>
    <path d="M 556.0,324.0 L 576.0,330.0 L 643.0,325.0 L 741.0,306.0 L 853.0,295.0 L 918.0,310.0"/>
    <path d="M 711.0,365.0 L 696.0,361.0 L 681.0,370.0 L 642.0,435.0 L 620.0,450.0"/>
    <path d="M 559.0,448.0 L 578.0,467.0 L 588.0,495.0 L 591.0,625.0 L 583.0,764.0 L 589.0,819.0"/>
    <path d="M 609.0,459.0 L 622.0,467.0 L 638.0,467.0 L 798.0,437.0 L 820.0,444.0 L 851.0,474.0 L 846.0,587.0 L 851.0,752.0 L 843.0,827.0"/>
    <path d="M 618.0,585.0 L 628.0,578.0 L 714.0,558.0 L 756.0,552.0 L 779.0,558.0"/>
    <path d="M 618.0,684.0 L 627.0,673.0 L 690.0,662.0 L 761.0,654.0 L 782.0,660.0"/>
    <path d="M 613.0,795.0 L 625.0,786.0 L 647.0,782.0 L 788.0,767.0 L 802.0,782.0"/>
    <path d="M 662.0,882.0 L 625.0,892.0 L 596.0,936.0 L 560.0,975.0 L 503.0,1017.0"/>
    <path d="M 757.0,859.0 L 822.0,922.0 L 856.0,964.0 L 873.0,999.0 L 880.0,1036.0"/>
  </g>
</svg>
