<svg xmlns="http://www.w3.org/2000/svg" viewBox="0 0 1024 1024">
  <g style="fill:none;stroke:#000000;stroke-width:50;stroke-linecap:round;stroke-linejoin:round;" transform="scale(1, 1) translate(0, 0)">
    <path d="M 183.0,333.0 L 244.0,375.0 L 256.0,393.0"/>
    <path d="M 478.0,255.0 L 494.0,280.0 L 435.0,349.0 L 425.0,353.0 L 424.0,361.0"/>
    <path d="M 128.0,490.0 L 173.0,494.0 L 379.0,453.0 L 436.0,433.0 L 489.0,430.0"/>
    <path d="M 323.0,191.0 L 348.0,208.0 L 366.0,235.0 L 347.0,588.0 L 353.0,631.0"/>
    <path d="M 326.0,486.0 L 303.0,508.0 L 265.0,565.0 L 220.0,612.0 L 166.0,656.0 L 92.0,696.0"/>
    <path d="M 375.0,509.0 L 389.0,519.0 L 457.0,541.0 L 472.0,556.0 L 474.0,569.0"/>
    <path d="M 64.0,781.0 L 121.0,785.0 L 351.0,725.0 L 417.0,715.0 L 439.0,719.0"/>
    <path d="M 275.0,668.0 L 308.0,693.0 L 309.0,727.0 L 295.0,805.0 L 274.0,858.0 L 246.0,898.0 L 202.0,936.0 L 164.0,959.0 L 88.0,985.0"/>
    <path d="M 360.0,815.0 L 423.0,864.0 L 434.0,890.0"/>
    <path d="M 430.0,628.0 L 470.0,650.0 L 491.0,674.0"/>
    <path d="M 539.0,360.0 L 588.0,360.0 L 691.0,327.0 L 820.0,297.0 L 869.0,295.0 L 900.0,301.0"/>
    <path d="M 654.0,364.0 L 672.0,381.0 L 672.0,389.0 L 629.0,465.0 L 615.0,476.0"/>
    <path d="M 533.0,491.0 L 561.0,524.0 L 565.0,554.0 L 567.0,673.0 L 553.0,800.0 L 555.0,833.0"/>
    <path d="M 570.0,490.0 L 605.0,500.0 L 618.0,492.0 L 773.0,456.0 L 789.0,457.0 L 822.0,485.0 L 827.0,495.0 L 823.0,597.0 L 832.0,749.0 L 826.0,823.0"/>
    <path d="M 590.0,602.0 L 598.0,590.0 L 697.0,569.0 L 732.0,571.0"/>
    <path d="M 590.0,698.0 L 623.0,682.0 L 711.0,667.0 L 741.0,671.0"/>
    <path d="M 580.0,802.0 L 595.0,791.0 L 749.0,769.0 L 773.0,770.0 L 784.0,781.0"/>
    <path d="M 652.0,883.0 L 617.0,887.0 L 586.0,923.0 L 528.0,972.0 L 478.0,1006.0 L 419.0,1032.0"/>
    <path d="M 756.0,859.0 L 847.0,971.0 L 862.0,1032.0"/>
  </g>
</svg>
