<svg xmlns="http://www.w3.org/2000/svg" viewBox="0 0 1024 1024">
  <g style="fill:none;stroke:#000000;stroke-width:50;stroke-linecap:round;stroke-linejoin:round;" transform="scale(1, 1) translate(0, 0)">
    <path d="M 302.0,183.0 L 377.0,218.0 L 412.0,254.0"/>
    <path d="M 107.0,362.0 L 155.0,369.0 L 449.0,311.0 L 483.0,309.0 L 515.0,316.0"/>
    <path d="M 141.0,444.0 L 171.0,473.0 L 220.0,675.0"/>
    <path d="M 193.0,450.0 L 205.0,455.0 L 282.0,433.0 L 417.0,408.0 L 466.0,410.0 L 491.0,435.0 L 463.0,562.0 L 443.0,624.0 L 446.0,638.0"/>
    <path d="M 239.0,497.0 L 262.0,517.0 L 281.0,591.0"/>
    <path d="M 276.0,493.0 L 283.0,499.0 L 351.0,476.0 L 374.0,482.0 L 384.0,492.0 L 371.0,530.0 L 354.0,538.0"/>
    <path d="M 290.0,583.0 L 298.0,573.0 L 343.0,560.0 L 391.0,560.0"/>
    <path d="M 237.0,655.0 L 273.0,640.0 L 403.0,616.0 L 417.0,607.0"/>
    <path d="M 203.0,717.0 L 227.0,748.0 L 249.0,904.0"/>
    <path d="M 242.0,721.0 L 253.0,728.0 L 296.0,721.0 L 305.0,714.0 L 380.0,698.0 L 408.0,698.0 L 420.0,706.0 L 435.0,724.0 L 421.0,827.0 L 412.0,857.0 L 398.0,858.0"/>
    <path d="M 255.0,805.0 L 305.0,785.0 L 331.0,780.0 L 365.0,783.0"/>
    <path d="M 264.0,878.0 L 274.0,866.0 L 387.0,843.0"/>
    <path d="M 132.0,983.0 L 180.0,1002.0 L 481.0,907.0"/>
    <path d="M 559.0,344.0 L 611.0,347.0 L 817.0,307.0 L 868.0,308.0 L 900.0,317.0"/>
    <path d="M 637.0,366.0 L 657.0,382.0 L 656.0,396.0 L 631.0,462.0 L 614.0,478.0"/>
    <path d="M 571.0,477.0 L 593.0,503.0 L 598.0,527.0 L 599.0,712.0 L 593.0,757.0 L 597.0,819.0"/>
    <path d="M 615.0,486.0 L 635.0,492.0 L 786.0,453.0 L 807.0,459.0 L 836.0,488.0 L 831.0,615.0 L 837.0,766.0 L 830.0,827.0"/>
    <path d="M 623.0,606.0 L 633.0,597.0 L 722.0,579.0 L 756.0,584.0"/>
    <path d="M 623.0,694.0 L 632.0,684.0 L 689.0,672.0 L 736.0,667.0 L 764.0,672.0"/>
    <path d="M 618.0,798.0 L 639.0,788.0 L 765.0,772.0 L 781.0,772.0 L 788.0,783.0"/>
    <path d="M 668.0,890.0 L 635.0,896.0 L 591.0,954.0 L 550.0,993.0 L 466.0,1048.0"/>
    <path d="M 755.0,868.0 L 813.0,918.0 L 860.0,969.0 L 878.0,1008.0 L 879.0,1028.0"/>
  </g>
</svg>
