<svg xmlns="http://www.w3.org/2000/svg" viewBox="0 0 1024 1024">
  <g style="fill:none;stroke:#000000;stroke-width:50;stroke-linecap:round;stroke-linejoin:round;" transform="scale(1, 1) translate(0, 0)">
    <path d="M 180.0,264.0 L 207.0,286.0 L 212.0,298.0 L 248.0,446.0"/>
    <path d="M 239.0,285.0 L 266.0,269.0 L 373.0,251.0 L 382.0,245.0 L 427.0,248.0 L 445.0,267.0 L 450.0,282.0 L 402.0,425.0"/>
    <path d="M 249.0,361.0 L 261.0,351.0 L 320.0,335.0 L 362.0,335.0"/>
    <path d="M 264.0,427.0 L 281.0,416.0 L 381.0,397.0"/>
    <path d="M 291.0,450.0 L 332.0,474.0 L 352.0,499.0"/>
    <path d="M 79.0,567.0 L 137.0,573.0 L 374.0,520.0 L 451.0,510.0 L 471.0,514.0"/>
    <path d="M 189.0,624.0 L 220.0,654.0 L 248.0,768.0"/>
    <path d="M 241.0,629.0 L 260.0,633.0 L 374.0,602.0 L 412.0,602.0 L 437.0,626.0 L 421.0,667.0 L 400.0,680.0"/>
    <path d="M 264.0,742.0 L 271.0,733.0 L 382.0,708.0 L 444.0,710.0"/>
    <path d="M 315.0,745.0 L 339.0,763.0 L 342.0,776.0 L 342.0,912.0 L 332.0,953.0 L 323.0,966.0 L 230.0,929.0"/>
    <path d="M 191.0,822.0 L 175.0,881.0 L 133.0,971.0"/>
    <path d="M 396.0,814.0 L 455.0,851.0 L 479.0,888.0"/>
    <path d="M 553.0,276.0 L 614.0,282.0 L 823.0,240.0 L 890.0,236.0"/>
    <path d="M 656.0,300.0 L 684.0,325.0 L 631.0,434.0"/>
    <path d="M 552.0,443.0 L 567.0,455.0 L 581.0,482.0 L 585.0,635.0 L 579.0,748.0 L 585.0,801.0"/>
    <path d="M 598.0,454.0 L 624.0,460.0 L 790.0,420.0 L 810.0,426.0 L 840.0,455.0 L 836.0,564.0 L 848.0,732.0 L 842.0,807.0"/>
    <path d="M 610.0,570.0 L 641.0,555.0 L 707.0,541.0 L 740.0,536.0 L 761.0,541.0"/>
    <path d="M 609.0,674.0 L 700.0,648.0 L 747.0,643.0 L 768.0,648.0"/>
    <path d="M 606.0,785.0 L 627.0,772.0 L 745.0,750.0 L 802.0,748.0"/>
    <path d="M 668.0,869.0 L 632.0,879.0 L 565.0,964.0 L 508.0,1012.0 L 471.0,1034.0"/>
    <path d="M 758.0,861.0 L 856.0,950.0 L 875.0,983.0 L 882.0,1018.0"/>
  </g>
</svg>
