<svg xmlns="http://www.w3.org/2000/svg" viewBox="0 0 1024 1024">
  <g style="fill:none;stroke:#000000;stroke-width:50;stroke-linecap:round;stroke-linejoin:round;" transform="scale(1, 1) translate(0, 0)">
    <path d="M 260.0,519.0 L 268.0,510.0 L 319.0,496.0 L 394.0,462.0 L 423.0,457.0"/>
    <path d="M 180.0,343.0 L 223.0,376.0 L 227.0,389.0 L 233.0,464.0 L 231.0,558.0 L 217.0,711.0 L 224.0,749.0 L 275.0,737.0 L 415.0,645.0"/>
    <path d="M 442.0,316.0 L 489.0,321.0 L 640.0,288.0 L 800.0,264.0 L 837.0,263.0 L 894.0,277.0"/>
    <path d="M 582.0,327.0 L 604.0,349.0 L 572.0,421.0 L 547.0,447.0"/>
    <path d="M 469.0,441.0 L 494.0,467.0 L 503.0,490.0 L 504.0,605.0 L 486.0,769.0 L 488.0,816.0"/>
    <path d="M 521.0,457.0 L 538.0,464.0 L 576.0,459.0 L 726.0,417.0 L 746.0,420.0 L 768.0,439.0 L 778.0,453.0 L 773.0,515.0 L 781.0,748.0 L 774.0,811.0"/>
    <path d="M 582.0,529.0 L 614.0,547.0 L 633.0,574.0 L 618.0,771.0 L 593.0,874.0 L 564.0,925.0 L 519.0,967.0 L 446.0,1007.0 L 364.0,1030.0"/>
    <path d="M 701.0,852.0 L 826.0,962.0 L 852.0,1002.0 L 862.0,1037.0"/>
  </g>
</svg>
