<svg xmlns="http://www.w3.org/2000/svg" viewBox="0 0 1024 1024">
  <g style="fill:none;stroke:#000000;stroke-width:50;stroke-linecap:round;stroke-linejoin:round;" transform="scale(1, 1) translate(0, 0)">
    <path d="M 144.0,370.0 L 172.0,394.0 L 181.0,416.0 L 182.0,506.0 L 173.0,612.0 L 158.0,689.0 L 130.0,768.0 L 92.0,842.0 L 67.0,875.0"/>
    <path d="M 279.0,382.0 L 301.0,410.0 L 303.0,437.0 L 303.0,539.0 L 289.0,709.0 L 293.0,749.0"/>
    <path d="M 381.0,252.0 L 406.0,272.0 L 427.0,309.0 L 423.0,705.0 L 411.0,843.0 L 413.0,927.0"/>
    <path d="M 515.0,297.0 L 559.0,306.0 L 826.0,259.0 L 886.0,264.0"/>
    <path d="M 698.0,332.0 L 663.0,341.0 L 635.0,400.0 L 626.0,407.0 L 624.0,421.0 L 617.0,425.0"/>
    <path d="M 531.0,433.0 L 548.0,450.0 L 559.0,474.0 L 561.0,657.0 L 551.0,759.0 L 557.0,806.0"/>
    <path d="M 578.0,446.0 L 594.0,453.0 L 621.0,451.0 L 766.0,418.0 L 784.0,424.0 L 809.0,456.0 L 803.0,543.0 L 806.0,752.0 L 799.0,812.0"/>
    <path d="M 636.0,518.0 L 669.0,535.0 L 686.0,559.0 L 679.0,729.0 L 655.0,846.0 L 637.0,888.0 L 606.0,932.0 L 540.0,984.0 L 464.0,1017.0"/>
    <path d="M 718.0,867.0 L 831.0,949.0 L 854.0,973.0 L 874.0,1019.0"/>
  </g>
</svg>
