<svg xmlns="http://www.w3.org/2000/svg" viewBox="0 0 1024 1024">
  <g style="fill:none;stroke:#000000;stroke-width:50;stroke-linecap:round;stroke-linejoin:round;" transform="scale(1, 1) translate(0, 0)">
    <path d="M 323.0,228.0 L 344.0,261.0 L 321.0,310.0 L 287.0,362.0 L 222.0,438.0 L 182.0,473.0 L 135.0,503.0"/>
    <path d="M 344.0,408.0 L 363.0,436.0 L 335.0,494.0 L 301.0,542.0 L 206.0,640.0 L 169.0,666.0 L 153.0,669.0 L 151.0,676.0"/>
    <path d="M 355.0,604.0 L 380.0,638.0 L 339.0,723.0 L 305.0,775.0 L 239.0,860.0 L 210.0,888.0 L 137.0,950.0 L 108.0,970.0 L 94.0,972.0 L 91.0,979.0"/>
    <path d="M 465.0,292.0 L 534.0,293.0 L 673.0,261.0 L 778.0,247.0 L 824.0,248.0 L 866.0,260.0"/>
    <path d="M 650.0,312.0 L 614.0,325.0 L 566.0,413.0 L 549.0,424.0"/>
    <path d="M 473.0,433.0 L 499.0,461.0 L 510.0,504.0 L 508.0,642.0 L 490.0,769.0 L 492.0,824.0"/>
    <path d="M 520.0,443.0 L 543.0,454.0 L 563.0,454.0 L 574.0,447.0 L 737.0,411.0 L 762.0,425.0 L 780.0,447.0 L 775.0,536.0 L 779.0,732.0 L 771.0,810.0"/>
    <path d="M 583.0,527.0 L 606.0,535.0 L 630.0,559.0 L 623.0,739.0 L 608.0,811.0 L 589.0,865.0 L 554.0,921.0 L 510.0,958.0 L 419.0,1004.0 L 374.0,1014.0"/>
    <path d="M 688.0,865.0 L 786.0,953.0 L 803.0,983.0 L 812.0,1017.0"/>
  </g>
</svg>
