<svg xmlns="http://www.w3.org/2000/svg" viewBox="0 0 1024 1024">
  <g style="fill:none;stroke:#000000;stroke-width:50;stroke-linecap:round;stroke-linejoin:round;" transform="scale(1, 1) translate(0, 0)">
    <path d="M 141.0,379.0 L 202.0,383.0 L 341.0,347.0 L 389.0,348.0"/>
    <path d="M 143.0,598.0 L 205.0,596.0 L 323.0,558.0 L 378.0,554.0"/>
    <path d="M 254.0,400.0 L 282.0,425.0 L 284.0,452.0 L 281.0,746.0 L 264.0,770.0"/>
    <path d="M 103.0,844.0 L 163.0,854.0 L 412.0,726.0"/>
    <path d="M 441.0,292.0 L 486.0,298.0 L 635.0,268.0 L 803.0,245.0 L 847.0,249.0 L 881.0,260.0"/>
    <path d="M 592.0,301.0 L 617.0,331.0 L 583.0,403.0 L 549.0,456.0"/>
    <path d="M 478.0,455.0 L 495.0,467.0 L 516.0,499.0 L 519.0,607.0 L 505.0,762.0 L 507.0,816.0"/>
    <path d="M 527.0,464.0 L 556.0,474.0 L 742.0,428.0 L 762.0,431.0 L 784.0,452.0 L 793.0,465.0 L 788.0,525.0 L 791.0,742.0 L 783.0,814.0"/>
    <path d="M 590.0,534.0 L 633.0,560.0 L 642.0,575.0 L 634.0,747.0 L 609.0,863.0 L 585.0,911.0 L 537.0,959.0 L 454.0,1006.0 L 388.0,1026.0"/>
    <path d="M 706.0,868.0 L 798.0,936.0 L 831.0,968.0 L 846.0,992.0 L 857.0,1027.0"/>
  </g>
</svg>
