<svg xmlns="http://www.w3.org/2000/svg" viewBox="0 0 1024 1024">
  <g style="fill:none;stroke:#000000;stroke-width:50;stroke-linecap:round;stroke-linejoin:round;" transform="scale(1, 1) translate(0, 0)">
    <path d="M 246.0,384.0 L 267.0,374.0 L 334.0,363.0 L 434.0,333.0 L 478.0,333.0"/>
    <path d="M 171.0,340.0 L 193.0,358.0 L 208.0,385.0 L 196.0,565.0 L 183.0,639.0 L 164.0,712.0 L 119.0,821.0 L 76.0,893.0 L 36.0,942.0"/>
    <path d="M 291.0,540.0 L 303.0,535.0 L 316.0,545.0 L 418.0,518.0 L 443.0,524.0 L 453.0,536.0 L 447.0,651.0 L 434.0,697.0 L 425.0,707.0 L 345.0,678.0"/>
    <path d="M 246.0,528.0 L 270.0,554.0 L 280.0,585.0 L 283.0,714.0 L 271.0,881.0 L 276.0,886.0 L 316.0,878.0 L 430.0,811.0"/>
    <path d="M 528.0,308.0 L 551.0,313.0 L 583.0,310.0 L 797.0,268.0 L 876.0,278.0"/>
    <path d="M 620.0,325.0 L 646.0,348.0 L 619.0,423.0 L 601.0,447.0"/>
    <path d="M 526.0,443.0 L 547.0,464.0 L 559.0,492.0 L 562.0,604.0 L 545.0,766.0 L 547.0,812.0"/>
    <path d="M 580.0,461.0 L 601.0,467.0 L 743.0,429.0 L 767.0,441.0 L 784.0,463.0 L 780.0,592.0 L 786.0,722.0 L 779.0,795.0"/>
    <path d="M 622.0,541.0 L 644.0,550.0 L 669.0,576.0 L 658.0,766.0 L 635.0,859.0 L 598.0,928.0 L 552.0,974.0 L 487.0,1011.0 L 438.0,1026.0"/>
    <path d="M 714.0,858.0 L 820.0,957.0 L 835.0,988.0 L 841.0,1026.0"/>
  </g>
</svg>
