<svg xmlns="http://www.w3.org/2000/svg" viewBox="0 0 1024 1024">
  <g style="fill:none;stroke:#000000;stroke-width:50;stroke-linecap:round;stroke-linejoin:round;" transform="scale(1, 1) translate(0, 0)">
    <path d="M 170.0,308.0 L 188.0,316.0 L 225.0,317.0 L 343.0,274.0 L 389.0,272.0 L 412.0,294.0 L 397.0,320.0 L 329.0,399.0"/>
    <path d="M 244.0,389.0 L 311.0,428.0 L 337.0,462.0"/>
    <path d="M 73.0,553.0 L 111.0,555.0 L 370.0,497.0 L 428.0,495.0 L 449.0,513.0 L 402.0,601.0"/>
    <path d="M 270.0,547.0 L 294.0,556.0 L 302.0,574.0 L 304.0,837.0 L 299.0,908.0 L 279.0,947.0 L 246.0,938.0 L 168.0,897.0"/>
    <path d="M 503.0,284.0 L 556.0,289.0 L 701.0,259.0 L 813.0,245.0 L 890.0,258.0"/>
    <path d="M 636.0,298.0 L 655.0,318.0 L 615.0,405.0 L 598.0,424.0"/>
    <path d="M 519.0,427.0 L 543.0,449.0 L 552.0,482.0 L 555.0,590.0 L 540.0,757.0 L 543.0,800.0"/>
    <path d="M 567.0,440.0 L 615.0,441.0 L 752.0,405.0 L 786.0,417.0 L 806.0,440.0 L 801.0,505.0 L 809.0,745.0 L 802.0,807.0"/>
    <path d="M 622.0,503.0 L 644.0,511.0 L 675.0,539.0 L 669.0,717.0 L 647.0,832.0 L 617.0,892.0 L 587.0,926.0 L 550.0,954.0 L 493.0,985.0 L 444.0,1001.0"/>
    <path d="M 717.0,852.0 L 825.0,945.0 L 841.0,973.0 L 850.0,1006.0"/>
  </g>
</svg>
