<svg xmlns="http://www.w3.org/2000/svg" viewBox="0 0 1024 1024">
  <g style="fill:none;stroke:#000000;stroke-width:50;stroke-linecap:round;stroke-linejoin:round;" transform="scale(1, 1) translate(0, 0)">
    <path d="M 227.0,364.0 L 252.0,403.0 L 223.0,468.0 L 169.0,549.0 L 128.0,592.0 L 80.0,629.0"/>
    <path d="M 328.0,284.0 L 438.0,385.0 L 452.0,408.0 L 460.0,438.0"/>
    <path d="M 190.0,607.0 L 213.0,613.0 L 244.0,609.0 L 380.0,566.0 L 404.0,568.0 L 426.0,585.0 L 406.0,764.0 L 391.0,830.0 L 371.0,877.0 L 341.0,904.0 L 262.0,854.0"/>
    <path d="M 250.0,627.0 L 270.0,642.0 L 279.0,666.0 L 249.0,738.0 L 189.0,830.0 L 103.0,918.0"/>
    <path d="M 511.0,309.0 L 560.0,318.0 L 791.0,272.0 L 858.0,276.0"/>
    <path d="M 610.0,335.0 L 632.0,358.0 L 607.0,417.0 L 582.0,452.0"/>
    <path d="M 510.0,455.0 L 536.0,482.0 L 545.0,511.0 L 548.0,623.0 L 532.0,795.0 L 535.0,840.0"/>
    <path d="M 558.0,464.0 L 595.0,473.0 L 754.0,432.0 L 778.0,445.0 L 798.0,468.0 L 793.0,532.0 L 801.0,768.0 L 794.0,831.0"/>
    <path d="M 616.0,529.0 L 632.0,536.0 L 661.0,563.0 L 650.0,753.0 L 629.0,848.0 L 603.0,910.0 L 567.0,957.0 L 483.0,1015.0 L 438.0,1029.0"/>
    <path d="M 709.0,856.0 L 823.0,960.0 L 842.0,992.0 L 850.0,1026.0"/>
  </g>
</svg>
