<svg xmlns="http://www.w3.org/2000/svg" viewBox="0 0 1024 1024">
  <g style="fill:none;stroke:#000000;stroke-width:50;stroke-linecap:round;stroke-linejoin:round;" transform="scale(1, 1) translate(0, 0)">
    <path d="M 291.0,246.0 L 329.0,283.0 L 322.0,437.0 L 304.0,454.0"/>
    <path d="M 360.0,353.0 L 372.0,343.0 L 459.0,319.0 L 499.0,321.0"/>
    <path d="M 230.0,513.0 L 240.0,499.0 L 258.0,493.0 L 380.0,457.0 L 422.0,455.0 L 449.0,481.0 L 424.0,563.0 L 407.0,570.0"/>
    <path d="M 221.0,650.0 L 256.0,636.0 L 383.0,607.0 L 433.0,604.0 L 461.0,611.0"/>
    <path d="M 159.0,472.0 L 190.0,502.0 L 196.0,519.0 L 191.0,632.0 L 177.0,727.0 L 149.0,829.0 L 119.0,897.0 L 70.0,975.0 L 52.0,994.0"/>
    <path d="M 539.0,308.0 L 585.0,317.0 L 809.0,274.0 L 854.0,272.0 L 886.0,278.0"/>
    <path d="M 612.0,342.0 L 632.0,365.0 L 590.0,453.0 L 575.0,468.0"/>
    <path d="M 525.0,461.0 L 551.0,489.0 L 559.0,510.0 L 557.0,631.0 L 542.0,775.0 L 544.0,812.0"/>
    <path d="M 574.0,476.0 L 596.0,489.0 L 760.0,451.0 L 785.0,463.0 L 803.0,485.0 L 803.0,737.0 L 795.0,811.0"/>
    <path d="M 626.0,560.0 L 651.0,571.0 L 676.0,598.0 L 666.0,749.0 L 638.0,867.0 L 599.0,938.0 L 553.0,982.0 L 489.0,1019.0 L 436.0,1037.0"/>
    <path d="M 714.0,869.0 L 817.0,957.0 L 840.0,993.0 L 849.0,1029.0"/>
  </g>
</svg>
