<svg xmlns="http://www.w3.org/2000/svg" viewBox="0 0 1024 1024">
  <g style="fill:none;stroke:#000000;stroke-width:50;stroke-linecap:round;stroke-linejoin:round;" transform="scale(1, 1) translate(0, 0)">
    <path d="M 176.0,414.0 L 235.0,416.0 L 299.0,404.0 L 404.0,373.0 L 451.0,375.0"/>
    <path d="M 163.0,495.0 L 223.0,549.0 L 232.0,582.0"/>
    <path d="M 432.0,445.0 L 450.0,471.0 L 376.0,559.0"/>
    <path d="M 68.0,675.0 L 105.0,688.0 L 135.0,688.0 L 429.0,621.0 L 488.0,624.0"/>
    <path d="M 282.0,255.0 L 329.0,298.0 L 313.0,611.0 L 307.0,680.0 L 289.0,770.0 L 260.0,836.0 L 219.0,889.0 L 156.0,936.0 L 84.0,965.0"/>
    <path d="M 334.0,739.0 L 334.0,747.0 L 383.0,783.0 L 433.0,831.0 L 450.0,856.0 L 459.0,886.0"/>
    <path d="M 532.0,324.0 L 553.0,329.0 L 596.0,325.0 L 792.0,287.0 L 844.0,289.0 L 877.0,297.0"/>
    <path d="M 626.0,343.0 L 648.0,365.0 L 608.0,448.0 L 594.0,460.0"/>
    <path d="M 531.0,459.0 L 558.0,486.0 L 566.0,543.0 L 568.0,640.0 L 552.0,780.0 L 555.0,820.0"/>
    <path d="M 583.0,473.0 L 614.0,477.0 L 745.0,440.0 L 766.0,444.0 L 797.0,476.0 L 797.0,749.0 L 791.0,811.0"/>
    <path d="M 629.0,541.0 L 666.0,565.0 L 674.0,581.0 L 666.0,749.0 L 645.0,854.0 L 617.0,914.0 L 580.0,955.0 L 514.0,998.0 L 470.0,1010.0"/>
    <path d="M 721.0,861.0 L 812.0,948.0 L 828.0,978.0 L 836.0,1013.0"/>
  </g>
</svg>
