<svg xmlns="http://www.w3.org/2000/svg" viewBox="0 0 1024 1024">
  <g style="fill:none;stroke:#000000;stroke-width:50;stroke-linecap:round;stroke-linejoin:round;" transform="scale(1, 1) translate(0, 0)">
    <path d="M 183.0,296.0 L 192.0,293.0 L 209.0,303.0 L 230.0,302.0 L 346.0,278.0 L 400.0,258.0 L 455.0,257.0"/>
    <path d="M 314.0,307.0 L 335.0,333.0 L 331.0,417.0 L 313.0,430.0"/>
    <path d="M 215.0,454.0 L 241.0,485.0 L 265.0,610.0"/>
    <path d="M 259.0,458.0 L 269.0,465.0 L 283.0,463.0 L 385.0,437.0 L 405.0,444.0 L 420.0,462.0 L 417.0,475.0 L 398.0,525.0 L 375.0,541.0"/>
    <path d="M 280.0,594.0 L 294.0,584.0 L 366.0,565.0 L 412.0,560.0 L 432.0,564.0"/>
    <path d="M 310.0,598.0 L 327.0,610.0 L 336.0,628.0 L 331.0,727.0 L 313.0,740.0"/>
    <path d="M 136.0,280.0 L 168.0,321.0 L 173.0,371.0 L 172.0,504.0 L 155.0,811.0 L 198.0,808.0 L 262.0,786.0 L 401.0,754.0 L 423.0,752.0 L 456.0,760.0"/>
    <path d="M 488.0,281.0 L 532.0,290.0 L 802.0,243.0 L 873.0,248.0"/>
    <path d="M 611.0,304.0 L 634.0,329.0 L 608.0,387.0 L 580.0,424.0"/>
    <path d="M 501.0,424.0 L 518.0,436.0 L 536.0,471.0 L 539.0,667.0 L 528.0,767.0 L 531.0,812.0"/>
    <path d="M 551.0,432.0 L 571.0,442.0 L 606.0,438.0 L 700.0,412.0 L 755.0,404.0 L 780.0,418.0 L 798.0,441.0 L 794.0,505.0 L 801.0,745.0 L 795.0,811.0"/>
    <path d="M 612.0,517.0 L 631.0,525.0 L 662.0,553.0 L 648.0,748.0 L 634.0,830.0 L 621.0,869.0 L 586.0,927.0 L 529.0,973.0 L 453.0,1011.0 L 387.0,1030.0"/>
    <path d="M 701.0,849.0 L 756.0,894.0 L 820.0,960.0 L 834.0,987.0 L 842.0,1021.0"/>
  </g>
</svg>
