<svg xmlns="http://www.w3.org/2000/svg" viewBox="0 0 1024 1024">
  <g style="fill:none;stroke:#000000;stroke-width:50;stroke-linecap:round;stroke-linejoin:round;" transform="scale(1, 1) translate(0, 0)">
    <path d="M 454.0,257.0 L 392.0,245.0 L 328.0,285.0 L 228.0,325.0 L 220.0,323.0 L 203.0,332.0 L 194.0,329.0 L 185.0,338.0"/>
    <path d="M 109.0,465.0 L 132.0,470.0 L 174.0,466.0 L 395.0,404.0 L 451.0,403.0"/>
    <path d="M 298.0,320.0 L 332.0,345.0 L 319.0,573.0 L 324.0,609.0"/>
    <path d="M 300.0,456.0 L 263.0,520.0 L 209.0,577.0 L 156.0,619.0 L 80.0,660.0"/>
    <path d="M 380.0,505.0 L 447.0,551.0 L 458.0,576.0"/>
    <path d="M 192.0,669.0 L 221.0,697.0 L 225.0,719.0 L 209.0,849.0 L 190.0,904.0 L 162.0,953.0 L 128.0,987.0 L 94.0,1005.0"/>
    <path d="M 252.0,710.0 L 265.0,692.0 L 333.0,666.0 L 365.0,668.0 L 371.0,677.0 L 348.0,847.0 L 349.0,890.0 L 356.0,900.0 L 395.0,877.0 L 478.0,785.0"/>
    <path d="M 513.0,315.0 L 542.0,321.0 L 603.0,318.0 L 696.0,302.0 L 816.0,271.0 L 880.0,268.0"/>
    <path d="M 626.0,339.0 L 651.0,364.0 L 617.0,442.0 L 594.0,468.0"/>
    <path d="M 517.0,466.0 L 542.0,493.0 L 550.0,564.0 L 548.0,665.0 L 534.0,766.0 L 536.0,817.0"/>
    <path d="M 568.0,481.0 L 583.0,486.0 L 652.0,474.0 L 748.0,441.0 L 770.0,444.0 L 802.0,477.0 L 798.0,585.0 L 805.0,760.0 L 798.0,823.0"/>
    <path d="M 615.0,564.0 L 635.0,572.0 L 665.0,601.0 L 647.0,793.0 L 620.0,887.0 L 580.0,950.0 L 542.0,982.0 L 454.0,1026.0 L 424.0,1033.0"/>
    <path d="M 716.0,868.0 L 816.0,965.0 L 834.0,991.0 L 848.0,1041.0"/>
  </g>
</svg>
