<svg xmlns="http://www.w3.org/2000/svg" viewBox="0 0 1024 1024">
  <g style="fill:none;stroke:#000000;stroke-width:50;stroke-linecap:round;stroke-linejoin:round;" transform="scale(1, 1) translate(0, 0)">
    <path d="M 219.0,276.0 L 239.0,293.0 L 251.0,320.0 L 277.0,493.0"/>
    <path d="M 271.0,275.0 L 288.0,285.0 L 424.0,250.0 L 453.0,257.0 L 470.0,272.0 L 476.0,281.0 L 448.0,426.0 L 433.0,466.0 L 439.0,486.0"/>
    <path d="M 287.0,389.0 L 311.0,377.0 L 352.0,368.0 L 388.0,371.0"/>
    <path d="M 296.0,483.0 L 314.0,471.0 L 370.0,459.0 L 384.0,458.0 L 391.0,465.0"/>
    <path d="M 118.0,585.0 L 151.0,593.0 L 194.0,591.0 L 455.0,541.0 L 512.0,546.0"/>
    <path d="M 323.0,585.0 L 348.0,607.0 L 347.0,790.0 L 364.0,820.0"/>
    <path d="M 374.0,709.0 L 388.0,699.0 L 432.0,689.0 L 491.0,694.0"/>
    <path d="M 208.0,655.0 L 232.0,686.0 L 197.0,770.0 L 135.0,860.0 L 86.0,909.0 L 60.0,923.0 L 59.0,930.0"/>
    <path d="M 239.0,757.0 L 241.0,769.0 L 249.0,775.0 L 395.0,868.0 L 491.0,918.0 L 634.0,976.0 L 711.0,987.0 L 868.0,967.0 L 892.0,959.0"/>
    <path d="M 573.0,287.0 L 611.0,294.0 L 670.0,288.0 L 818.0,251.0 L 862.0,253.0"/>
    <path d="M 637.0,313.0 L 660.0,346.0 L 627.0,412.0 L 615.0,422.0"/>
    <path d="M 559.0,413.0 L 584.0,437.0 L 590.0,473.0 L 592.0,573.0 L 581.0,646.0 L 584.0,698.0"/>
    <path d="M 607.0,432.0 L 641.0,435.0 L 770.0,401.0 L 790.0,404.0 L 814.0,430.0 L 814.0,644.0 L 807.0,710.0"/>
    <path d="M 655.0,485.0 L 682.0,500.0 L 697.0,524.0 L 690.0,626.0 L 674.0,710.0 L 645.0,772.0 L 615.0,803.0 L 567.0,832.0 L 526.0,846.0"/>
    <path d="M 734.0,745.0 L 833.0,831.0 L 851.0,858.0 L 857.0,881.0"/>
  </g>
</svg>
