<svg xmlns="http://www.w3.org/2000/svg" viewBox="0 0 1024 1024">
  <g style="fill:none;stroke:#000000;stroke-width:50;stroke-linecap:round;stroke-linejoin:round;" transform="scale(1, 1) translate(0, 0)">
    <path d="M 333.0,195.0 L 413.0,236.0 L 438.0,267.0"/>
    <path d="M 195.0,383.0 L 240.0,390.0 L 435.0,353.0 L 483.0,358.0"/>
    <path d="M 254.0,450.0 L 288.0,485.0 L 295.0,514.0"/>
    <path d="M 397.0,417.0 L 415.0,441.0 L 410.0,457.0 L 387.0,503.0 L 356.0,538.0"/>
    <path d="M 242.0,573.0 L 251.0,580.0 L 282.0,577.0 L 463.0,536.0 L 487.0,537.0"/>
    <path d="M 181.0,553.0 L 198.0,569.0 L 209.0,595.0 L 199.0,680.0 L 178.0,775.0 L 141.0,872.0 L 68.0,969.0"/>
    <path d="M 402.0,619.0 L 380.0,626.0 L 321.0,707.0 L 260.0,755.0"/>
    <path d="M 436.0,719.0 L 415.0,725.0 L 382.0,770.0 L 303.0,842.0 L 251.0,872.0"/>
    <path d="M 460.0,830.0 L 430.0,840.0 L 374.0,917.0 L 293.0,995.0 L 208.0,1051.0"/>
    <path d="M 532.0,337.0 L 580.0,342.0 L 802.0,304.0 L 883.0,317.0"/>
    <path d="M 676.0,353.0 L 673.0,363.0 L 656.0,373.0 L 613.0,457.0 L 600.0,468.0"/>
    <path d="M 533.0,465.0 L 553.0,486.0 L 560.0,504.0 L 561.0,632.0 L 550.0,772.0 L 553.0,828.0"/>
    <path d="M 578.0,479.0 L 592.0,486.0 L 624.0,483.0 L 711.0,459.0 L 764.0,453.0 L 787.0,464.0 L 805.0,488.0 L 799.0,595.0 L 802.0,770.0 L 795.0,831.0"/>
    <path d="M 628.0,566.0 L 645.0,572.0 L 674.0,599.0 L 665.0,775.0 L 641.0,871.0 L 619.0,918.0 L 589.0,957.0 L 523.0,1005.0 L 461.0,1033.0"/>
    <path d="M 717.0,884.0 L 804.0,955.0 L 832.0,985.0 L 853.0,1017.0 L 862.0,1050.0"/>
  </g>
</svg>
