<svg xmlns="http://www.w3.org/2000/svg" viewBox="0 0 1024 1024">
  <g style="fill:none;stroke:#000000;stroke-width:50;stroke-linecap:round;stroke-linejoin:round;" transform="scale(1, 1) translate(0, 0)">
    <path d="M 136.0,345.0 L 190.0,350.0 L 485.0,300.0 L 513.0,297.0 L 552.0,303.0"/>
    <path d="M 227.0,252.0 L 263.0,273.0 L 299.0,415.0"/>
    <path d="M 418.0,176.0 L 445.0,210.0 L 390.0,398.0"/>
    <path d="M 159.0,472.0 L 187.0,500.0 L 209.0,591.0"/>
    <path d="M 207.0,475.0 L 214.0,480.0 L 266.0,464.0 L 297.0,466.0 L 309.0,479.0 L 299.0,521.0 L 286.0,530.0"/>
    <path d="M 223.0,570.0 L 279.0,551.0 L 322.0,556.0"/>
    <path d="M 358.0,433.0 L 381.0,456.0 L 402.0,554.0"/>
    <path d="M 396.0,435.0 L 406.0,440.0 L 469.0,422.0 L 494.0,425.0 L 507.0,441.0 L 497.0,485.0 L 507.0,497.0"/>
    <path d="M 418.0,531.0 L 423.0,524.0 L 459.0,515.0 L 511.0,517.0"/>
    <path d="M 268.0,632.0 L 244.0,641.0 L 208.0,711.0 L 152.0,784.0 L 117.0,823.0 L 86.0,850.0 L 69.0,855.0 L 67.0,862.0"/>
    <path d="M 232.0,729.0 L 228.0,743.0 L 233.0,863.0 L 221.0,993.0 L 228.0,1034.0"/>
    <path d="M 352.0,575.0 L 389.0,604.0"/>
    <path d="M 292.0,655.0 L 342.0,659.0 L 459.0,632.0 L 501.0,630.0"/>
    <path d="M 316.0,744.0 L 445.0,716.0 L 481.0,719.0"/>
    <path d="M 311.0,812.0 L 435.0,791.0 L 484.0,794.0"/>
    <path d="M 366.0,671.0 L 389.0,696.0 L 388.0,849.0 L 375.0,870.0"/>
    <path d="M 259.0,900.0 L 281.0,906.0 L 475.0,878.0 L 504.0,878.0 L 523.0,886.0"/>
    <path d="M 578.0,350.0 L 608.0,356.0 L 656.0,354.0 L 824.0,316.0 L 859.0,310.0 L 889.0,313.0"/>
    <path d="M 662.0,381.0 L 681.0,399.0 L 681.0,407.0 L 651.0,473.0 L 634.0,492.0"/>
    <path d="M 562.0,490.0 L 581.0,510.0 L 588.0,527.0 L 588.0,672.0 L 578.0,785.0 L 581.0,840.0"/>
    <path d="M 608.0,502.0 L 638.0,508.0 L 770.0,467.0 L 791.0,471.0 L 815.0,496.0 L 813.0,605.0 L 821.0,767.0 L 814.0,831.0"/>
    <path d="M 659.0,597.0 L 693.0,619.0 L 701.0,638.0 L 691.0,782.0 L 669.0,885.0 L 638.0,946.0 L 594.0,988.0 L 519.0,1027.0 L 493.0,1031.0"/>
    <path d="M 737.0,884.0 L 841.0,966.0 L 867.0,998.0 L 882.0,1041.0"/>
  </g>
</svg>
