<svg xmlns="http://www.w3.org/2000/svg" viewBox="0 0 1024 1024">
  <g style="fill:none;stroke:#000000;stroke-width:50;stroke-linecap:round;stroke-linejoin:round;" transform="scale(1, 1) translate(0, 0)">
    <path d="M 302.0,183.0 L 377.0,218.0 L 412.0,254.0"/>
    <path d="M 107.0,362.0 L 155.0,369.0 L 449.0,311.0 L 483.0,309.0 L 515.0,316.0"/>
    <path d="M 133.0,448.0 L 155.0,465.0 L 168.0,493.0 L 212.0,679.0"/>
    <path d="M 182.0,452.0 L 195.0,458.0 L 402.0,409.0 L 443.0,405.0 L 468.0,411.0 L 490.0,435.0 L 463.0,562.0 L 443.0,624.0 L 446.0,638.0"/>
    <path d="M 240.0,497.0 L 261.0,517.0 L 281.0,595.0"/>
    <path d="M 266.0,492.0 L 279.0,497.0 L 346.0,475.0 L 364.0,478.0 L 376.0,491.0 L 374.0,504.0 L 367.0,533.0 L 354.0,543.0"/>
    <path d="M 291.0,586.0 L 348.0,562.0 L 385.0,560.0"/>
    <path d="M 231.0,654.0 L 238.0,646.0 L 244.0,649.0 L 403.0,616.0 L 417.0,607.0"/>
    <path d="M 211.0,717.0 L 235.0,748.0 L 257.0,908.0"/>
    <path d="M 250.0,721.0 L 271.0,727.0 L 376.0,703.0 L 408.0,701.0 L 430.0,707.0 L 445.0,729.0 L 433.0,788.0 L 432.0,830.0 L 421.0,859.0 L 407.0,860.0"/>
    <path d="M 264.0,809.0 L 276.0,798.0 L 313.0,788.0 L 355.0,783.0 L 373.0,787.0"/>
    <path d="M 276.0,878.0 L 283.0,868.0 L 399.0,843.0"/>
    <path d="M 144.0,983.0 L 190.0,1001.0 L 200.0,999.0 L 493.0,911.0"/>
    <path d="M 543.0,352.0 L 585.0,355.0 L 798.0,311.0 L 848.0,312.0 L 879.0,321.0"/>
    <path d="M 631.0,370.0 L 649.0,396.0 L 614.0,476.0 L 601.0,482.0"/>
    <path d="M 556.0,482.0 L 580.0,505.0 L 588.0,522.0 L 591.0,562.0 L 591.0,683.0 L 576.0,794.0 L 580.0,838.0"/>
    <path d="M 601.0,490.0 L 620.0,502.0 L 774.0,462.0 L 795.0,466.0 L 822.0,496.0 L 817.0,601.0 L 825.0,763.0 L 818.0,827.0"/>
    <path d="M 655.0,543.0 L 674.0,550.0 L 702.0,575.0 L 697.0,752.0 L 688.0,825.0 L 674.0,879.0 L 648.0,932.0 L 609.0,972.0 L 534.0,1017.0 L 474.0,1034.0"/>
    <path d="M 745.0,880.0 L 836.0,955.0 L 863.0,994.0 L 870.0,1026.0"/>
  </g>
</svg>
