<svg xmlns="http://www.w3.org/2000/svg" viewBox="0 0 1024 1024">
  <g style="fill:none;stroke:#000000;stroke-width:50;stroke-linecap:round;stroke-linejoin:round;" transform="scale(1, 1) translate(0, 0)">
    <path d="M 185.0,276.0 L 208.0,298.0 L 215.0,317.0 L 244.0,487.0"/>
    <path d="M 233.0,280.0 L 245.0,286.0 L 406.0,256.0 L 438.0,264.0 L 453.0,282.0 L 409.0,447.0 L 411.0,467.0"/>
    <path d="M 254.0,381.0 L 261.0,373.0 L 326.0,358.0 L 353.0,354.0 L 369.0,359.0"/>
    <path d="M 262.0,465.0 L 277.0,456.0 L 384.0,435.0"/>
    <path d="M 309.0,471.0 L 346.0,498.0 L 362.0,519.0"/>
    <path d="M 94.0,583.0 L 149.0,590.0 L 394.0,538.0 L 459.0,528.0 L 489.0,533.0"/>
    <path d="M 189.0,644.0 L 211.0,661.0 L 224.0,686.0 L 248.0,788.0"/>
    <path d="M 234.0,642.0 L 249.0,652.0 L 390.0,618.0 L 408.0,619.0 L 436.0,647.0 L 418.0,692.0 L 398.0,701.0"/>
    <path d="M 263.0,762.0 L 277.0,753.0 L 390.0,729.0 L 439.0,734.0"/>
    <path d="M 314.0,765.0 L 336.0,783.0 L 341.0,800.0 L 340.0,913.0 L 329.0,953.0 L 316.0,965.0 L 232.0,931.0"/>
    <path d="M 204.0,821.0 L 187.0,874.0 L 154.0,928.0 L 146.0,952.0"/>
    <path d="M 408.0,818.0 L 471.0,863.0 L 483.0,888.0"/>
    <path d="M 527.0,313.0 L 548.0,320.0 L 597.0,321.0 L 686.0,309.0 L 837.0,275.0 L 879.0,278.0"/>
    <path d="M 639.0,344.0 L 659.0,365.0 L 625.0,428.0 L 597.0,456.0"/>
    <path d="M 525.0,454.0 L 554.0,495.0 L 559.0,625.0 L 544.0,749.0 L 548.0,794.0"/>
    <path d="M 572.0,464.0 L 595.0,474.0 L 671.0,460.0 L 685.0,451.0 L 754.0,442.0 L 771.0,447.0 L 794.0,475.0 L 791.0,557.0 L 800.0,748.0 L 794.0,811.0"/>
    <path d="M 623.0,555.0 L 665.0,580.0 L 675.0,596.0 L 668.0,758.0 L 645.0,858.0 L 626.0,895.0 L 575.0,942.0 L 520.0,972.0 L 448.0,994.0"/>
    <path d="M 741.0,840.0 L 843.0,940.0 L 862.0,969.0 L 876.0,1016.0"/>
  </g>
</svg>
