<svg xmlns="http://www.w3.org/2000/svg" viewBox="0 0 1024 1024">
  <g style="fill:none;stroke:#000000;stroke-width:50;stroke-linecap:round;stroke-linejoin:round;" transform="scale(1, 1) translate(0, 0)">
    <path d="M 106.0,388.0 L 125.0,392.0 L 196.0,384.0 L 423.0,335.0 L 468.0,337.0 L 493.0,346.0"/>
    <path d="M 187.0,301.0 L 206.0,309.0 L 221.0,325.0 L 244.0,457.0"/>
    <path d="M 367.0,218.0 L 391.0,250.0 L 357.0,372.0 L 327.0,443.0"/>
    <path d="M 147.0,507.0 L 197.0,512.0 L 371.0,473.0 L 444.0,473.0"/>
    <path d="M 90.0,602.0 L 108.0,622.0 L 121.0,655.0 L 115.0,878.0 L 123.0,907.0"/>
    <path d="M 133.0,613.0 L 154.0,620.0 L 261.0,593.0 L 417.0,569.0 L 428.0,570.0 L 450.0,586.0 L 458.0,767.0 L 455.0,836.0 L 445.0,888.0 L 428.0,913.0 L 359.0,888.0 L 344.0,876.0"/>
    <path d="M 215.0,534.0 L 233.0,550.0 L 216.0,674.0 L 180.0,760.0 L 147.0,806.0"/>
    <path d="M 223.0,724.0 L 224.0,736.0 L 250.0,755.0 L 260.0,774.0"/>
    <path d="M 320.0,510.0 L 343.0,522.0 L 348.0,531.0 L 341.0,618.0 L 324.0,711.0 L 293.0,791.0 L 269.0,832.0 L 243.0,861.0"/>
    <path d="M 343.0,732.0 L 347.0,743.0 L 395.0,783.0 L 406.0,813.0"/>
    <path d="M 527.0,313.0 L 549.0,320.0 L 604.0,320.0 L 837.0,275.0 L 879.0,278.0"/>
    <path d="M 623.0,344.0 L 647.0,369.0 L 614.0,442.0 L 600.0,454.0"/>
    <path d="M 536.0,453.0 L 564.0,487.0 L 569.0,530.0 L 565.0,656.0 L 549.0,755.0 L 552.0,797.0"/>
    <path d="M 576.0,461.0 L 602.0,469.0 L 627.0,467.0 L 756.0,436.0 L 776.0,440.0 L 806.0,470.0 L 802.0,548.0 L 809.0,731.0 L 802.0,795.0"/>
    <path d="M 630.0,550.0 L 650.0,558.0 L 681.0,587.0 L 672.0,767.0 L 648.0,858.0 L 618.0,911.0 L 573.0,951.0 L 525.0,978.0 L 456.0,1002.0"/>
    <path d="M 741.0,840.0 L 843.0,940.0 L 862.0,969.0 L 876.0,1016.0"/>
  </g>
</svg>
