<svg xmlns="http://www.w3.org/2000/svg" viewBox="0 0 1024 1024">
  <g style="fill:none;stroke:#000000;stroke-width:50;stroke-linecap:round;stroke-linejoin:round;" transform="scale(1, 1) translate(0, 0)">
    <path d="M 239.0,296.0 L 257.0,304.0 L 280.0,328.0 L 291.0,393.0 L 292.0,582.0 L 277.0,691.0 L 245.0,793.0 L 210.0,856.0 L 154.0,926.0 L 93.0,974.0"/>
    <path d="M 324.0,332.0 L 335.0,316.0 L 399.0,300.0 L 708.0,248.0 L 747.0,255.0 L 764.0,278.0 L 744.0,351.0 L 735.0,414.0 L 725.0,583.0 L 741.0,709.0 L 764.0,787.0 L 797.0,852.0 L 837.0,901.0 L 885.0,937.0 L 929.0,950.0 L 948.0,910.0 L 962.0,787.0"/>
    <path d="M 545.0,380.0 L 554.0,391.0 L 558.0,425.0 L 495.0,470.0 L 386.0,532.0"/>
    <path d="M 333.0,624.0 L 358.0,644.0 L 366.0,661.0 L 396.0,784.0"/>
    <path d="M 385.0,629.0 L 402.0,634.0 L 582.0,584.0 L 603.0,587.0 L 634.0,613.0 L 602.0,687.0 L 580.0,700.0"/>
    <path d="M 412.0,764.0 L 427.0,754.0 L 568.0,725.0 L 622.0,731.0"/>
    <path d="M 464.0,511.0 L 489.0,528.0 L 490.0,539.0 L 490.0,840.0 L 474.0,867.0"/>
    <path d="M 300.0,916.0 L 347.0,933.0 L 550.0,869.0 L 603.0,859.0"/>
    <path d="M 594.0,800.0 L 659.0,881.0 L 671.0,931.0"/>
  </g>
</svg>
