<svg xmlns="http://www.w3.org/2000/svg" viewBox="0 0 1024 1024">
  <g style="fill:none;stroke:#000000;stroke-width:50;stroke-linecap:round;stroke-linejoin:round;" transform="scale(1, 1) translate(0, 0)">
    <path d="M 149.0,303.0 L 188.0,341.0 L 191.0,528.0 L 178.0,660.0 L 140.0,800.0 L 106.0,876.0 L 55.0,957.0"/>
    <path d="M 224.0,326.0 L 242.0,331.0 L 300.0,324.0 L 507.0,273.0 L 530.0,276.0 L 548.0,290.0 L 520.0,463.0 L 514.0,562.0 L 517.0,691.0 L 531.0,762.0 L 554.0,825.0 L 593.0,885.0 L 645.0,932.0 L 696.0,960.0 L 774.0,981.0 L 831.0,986.0 L 896.0,973.0 L 927.0,950.0 L 941.0,789.0"/>
    <path d="M 451.0,420.0 L 393.0,420.0 L 327.0,472.0 L 259.0,509.0 L 250.0,507.0 L 247.0,518.0"/>
    <path d="M 210.0,619.0 L 235.0,646.0 L 268.0,764.0"/>
    <path d="M 257.0,623.0 L 267.0,630.0 L 401.0,591.0 L 428.0,591.0 L 448.0,606.0 L 451.0,615.0 L 433.0,665.0 L 414.0,680.0"/>
    <path d="M 280.0,726.0 L 289.0,731.0 L 404.0,703.0 L 460.0,704.0"/>
    <path d="M 315.0,500.0 L 336.0,510.0 L 345.0,522.0 L 342.0,799.0 L 327.0,827.0"/>
    <path d="M 185.0,875.0 L 235.0,890.0 L 414.0,821.0 L 434.0,821.0"/>
    <path d="M 430.0,767.0 L 483.0,842.0 L 491.0,883.0"/>
    <path d="M 719.0,240.0 L 745.0,274.0 L 743.0,282.0 L 698.0,374.0 L 631.0,483.0 L 625.0,507.0 L 660.0,508.0 L 831.0,453.0 L 844.0,458.0"/>
    <path d="M 802.0,375.0 L 890.0,460.0 L 906.0,507.0"/>
    <path d="M 611.0,625.0 L 633.0,642.0 L 644.0,661.0 L 676.0,810.0"/>
    <path d="M 660.0,626.0 L 678.0,634.0 L 804.0,598.0 L 839.0,602.0 L 862.0,627.0 L 839.0,701.0 L 815.0,713.0"/>
    <path d="M 694.0,779.0 L 710.0,768.0 L 813.0,744.0 L 871.0,747.0"/>
  </g>
</svg>
