<svg xmlns="http://www.w3.org/2000/svg" viewBox="0 0 1024 1024">
  <g style="fill:none;stroke:#000000;stroke-width:50;stroke-linecap:round;stroke-linejoin:round;" transform="scale(1, 1) translate(0, 0)">
    <path d="M 233.0,230.0 L 248.0,265.0 L 216.0,317.0 L 151.0,387.0 L 94.0,425.0"/>
    <path d="M 249.0,315.0 L 331.0,299.0 L 366.0,300.0 L 382.0,310.0 L 368.0,340.0 L 328.0,396.0 L 255.0,479.0 L 154.0,565.0 L 61.0,621.0"/>
    <path d="M 216.0,354.0 L 263.0,396.0"/>
    <path d="M 155.0,409.0 L 199.0,458.0"/>
    <path d="M 208.0,555.0 L 211.0,567.0 L 196.0,600.0 L 154.0,657.0 L 128.0,677.0"/>
    <path d="M 229.0,593.0 L 315.0,576.0 L 372.0,556.0 L 407.0,555.0"/>
    <path d="M 53.0,745.0 L 105.0,750.0 L 373.0,675.0 L 399.0,669.0 L 439.0,671.0"/>
    <path d="M 253.0,606.0 L 281.0,628.0 L 286.0,651.0 L 282.0,816.0 L 277.0,833.0 L 266.0,844.0"/>
    <path d="M 127.0,794.0 L 149.0,830.0 L 144.0,906.0 L 166.0,908.0 L 231.0,878.0 L 340.0,841.0 L 365.0,848.0"/>
    <path d="M 364.0,764.0 L 385.0,827.0 L 388.0,855.0"/>
    <path d="M 472.0,374.0 L 501.0,397.0 L 509.0,421.0 L 506.0,558.0 L 495.0,689.0 L 482.0,751.0 L 453.0,835.0 L 400.0,940.0 L 371.0,979.0"/>
    <path d="M 539.0,386.0 L 547.0,393.0 L 640.0,374.0 L 768.0,335.0 L 791.0,336.0 L 810.0,351.0 L 820.0,361.0 L 801.0,449.0 L 795.0,556.0 L 796.0,658.0 L 807.0,740.0 L 832.0,827.0 L 864.0,893.0 L 889.0,923.0 L 930.0,948.0 L 947.0,950.0 L 962.0,912.0 L 974.0,801.0"/>
    <path d="M 741.0,467.0 L 689.0,456.0 L 628.0,492.0 L 569.0,514.0 L 557.0,512.0 L 549.0,519.0"/>
    <path d="M 530.0,618.0 L 554.0,646.0 L 581.0,756.0"/>
    <path d="M 578.0,627.0 L 585.0,633.0 L 706.0,603.0 L 728.0,606.0 L 746.0,622.0 L 746.0,636.0 L 728.0,680.0 L 714.0,683.0"/>
    <path d="M 593.0,735.0 L 609.0,726.0 L 702.0,710.0 L 749.0,717.0"/>
    <path d="M 621.0,513.0 L 647.0,532.0 L 649.0,560.0 L 646.0,799.0 L 642.0,814.0 L 631.0,823.0"/>
    <path d="M 512.0,862.0 L 552.0,873.0 L 714.0,823.0 L 716.0,817.0"/>
    <path d="M 713.0,769.0 L 754.0,824.0 L 765.0,864.0"/>
  </g>
</svg>
