<svg xmlns="http://www.w3.org/2000/svg" viewBox="0 0 1024 1024">
  <g style="fill:none;stroke:#000000;stroke-width:50;stroke-linecap:round;stroke-linejoin:round;" transform="scale(1, 1) translate(0, 0)">
    <path d="M 162.0,323.0 L 198.0,357.0 L 200.0,375.0 L 201.0,528.0 L 184.0,700.0 L 174.0,746.0 L 140.0,841.0 L 89.0,939.0 L 59.0,982.0"/>
    <path d="M 238.0,358.0 L 257.0,346.0 L 402.0,314.0 L 461.0,294.0 L 493.0,294.0 L 523.0,312.0 L 533.0,327.0 L 520.0,397.0 L 510.0,579.0 L 524.0,725.0 L 538.0,778.0 L 570.0,851.0 L 600.0,895.0 L 657.0,947.0 L 707.0,975.0 L 786.0,998.0 L 865.0,1003.0 L 919.0,995.0 L 945.0,981.0 L 946.0,853.0 L 939.0,842.0 L 943.0,829.0"/>
    <path d="M 447.0,472.0 L 393.0,464.0 L 299.0,519.0 L 288.0,516.0 L 279.0,525.0 L 263.0,524.0 L 256.0,531.0"/>
    <path d="M 232.0,634.0 L 255.0,661.0 L 273.0,783.0"/>
    <path d="M 259.0,633.0 L 282.0,637.0 L 414.0,594.0 L 435.0,599.0 L 449.0,615.0 L 428.0,692.0 L 418.0,695.0"/>
    <path d="M 290.0,762.0 L 296.0,753.0 L 397.0,727.0 L 430.0,724.0 L 453.0,729.0"/>
    <path d="M 319.0,526.0 L 342.0,540.0 L 344.0,590.0 L 345.0,818.0 L 331.0,843.0"/>
    <path d="M 202.0,891.0 L 246.0,903.0 L 409.0,836.0 L 432.0,835.0"/>
    <path d="M 424.0,795.0 L 479.0,867.0 L 486.0,902.0"/>
    <path d="M 629.0,293.0 L 655.0,328.0 L 661.0,391.0 L 661.0,622.0 L 658.0,646.0 L 646.0,654.0"/>
    <path d="M 674.0,302.0 L 697.0,308.0 L 803.0,283.0 L 835.0,317.0 L 827.0,410.0 L 825.0,611.0 L 808.0,632.0"/>
    <path d="M 687.0,426.0 L 697.0,413.0 L 710.0,409.0 L 745.0,404.0 L 765.0,408.0"/>
    <path d="M 687.0,509.0 L 706.0,492.0 L 749.0,484.0 L 770.0,488.0"/>
    <path d="M 683.0,593.0 L 695.0,582.0 L 736.0,573.0 L 777.0,576.0"/>
    <path d="M 575.0,685.0 L 621.0,685.0 L 882.0,645.0 L 919.0,646.0 L 959.0,658.0"/>
    <path d="M 720.0,734.0 L 696.0,742.0 L 664.0,794.0 L 619.0,833.0"/>
    <path d="M 790.0,717.0 L 858.0,794.0 L 871.0,849.0"/>
  </g>
</svg>
