<svg xmlns="http://www.w3.org/2000/svg" viewBox="0 0 1024 1024">
  <g style="fill:none;stroke:#000000;stroke-width:50;stroke-linecap:round;stroke-linejoin:round;" transform="scale(1, 1) translate(0, 0)">
    <path d="M 127.0,310.0 L 187.0,308.0 L 342.0,258.0 L 389.0,251.0"/>
    <path d="M 82.0,423.0 L 111.0,453.0 L 141.0,587.0"/>
    <path d="M 138.0,446.0 L 144.0,435.0 L 256.0,398.0 L 350.0,371.0 L 388.0,371.0 L 415.0,397.0 L 386.0,498.0 L 369.0,536.0 L 371.0,552.0"/>
    <path d="M 174.0,331.0 L 194.0,346.0 L 199.0,365.0 L 217.0,526.0 L 209.0,534.0"/>
    <path d="M 281.0,306.0 L 304.0,318.0 L 309.0,327.0 L 297.0,488.0 L 285.0,514.0"/>
    <path d="M 157.0,575.0 L 163.0,568.0 L 330.0,525.0 L 345.0,516.0"/>
    <path d="M 163.0,642.0 L 213.0,643.0 L 296.0,616.0 L 345.0,611.0"/>
    <path d="M 51.0,753.0 L 75.0,759.0 L 111.0,756.0 L 357.0,686.0 L 413.0,686.0"/>
    <path d="M 230.0,745.0 L 253.0,759.0 L 257.0,769.0 L 260.0,925.0 L 253.0,973.0 L 238.0,996.0 L 154.0,961.0"/>
    <path d="M 132.0,825.0 L 118.0,874.0 L 77.0,952.0"/>
    <path d="M 288.0,797.0 L 348.0,824.0 L 373.0,852.0"/>
    <path d="M 459.0,358.0 L 483.0,376.0 L 495.0,398.0 L 498.0,564.0 L 490.0,661.0 L 450.0,827.0 L 414.0,912.0 L 354.0,1008.0"/>
    <path d="M 531.0,388.0 L 550.0,376.0 L 716.0,341.0 L 774.0,323.0 L 800.0,324.0 L 818.0,338.0 L 827.0,354.0 L 809.0,415.0 L 798.0,549.0 L 800.0,667.0 L 809.0,751.0 L 826.0,824.0 L 849.0,883.0 L 878.0,929.0 L 912.0,962.0 L 948.0,972.0 L 954.0,962.0 L 966.0,929.0 L 981.0,829.0"/>
    <path d="M 722.0,482.0 L 710.0,476.0 L 677.0,476.0 L 639.0,506.0 L 574.0,540.0 L 563.0,537.0 L 555.0,547.0"/>
    <path d="M 519.0,635.0 L 546.0,661.0 L 570.0,774.0"/>
    <path d="M 549.0,634.0 L 605.0,632.0 L 699.0,607.0 L 718.0,612.0 L 733.0,632.0 L 713.0,702.0 L 698.0,712.0"/>
    <path d="M 582.0,764.0 L 597.0,755.0 L 683.0,735.0 L 737.0,739.0"/>
    <path d="M 609.0,537.0 L 629.0,552.0 L 633.0,613.0 L 633.0,839.0 L 630.0,855.0 L 620.0,862.0"/>
    <path d="M 489.0,908.0 L 532.0,921.0 L 711.0,851.0"/>
    <path d="M 718.0,819.0 L 750.0,895.0 L 751.0,933.0"/>
  </g>
</svg>
