<svg xmlns="http://www.w3.org/2000/svg" viewBox="0 0 1024 1024">
  <g style="fill:none;stroke:#000000;stroke-width:50;stroke-linecap:round;stroke-linejoin:round;" transform="scale(1, 1) translate(0, 0)">
    <path d="M 183.0,433.0 L 205.0,438.0 L 243.0,433.0 L 398.0,388.0 L 429.0,387.0"/>
    <path d="M 281.0,265.0 L 314.0,290.0 L 312.0,362.0 L 296.0,449.0 L 284.0,476.0 L 245.0,531.0 L 216.0,560.0 L 184.0,581.0"/>
    <path d="M 335.0,466.0 L 379.0,494.0 L 404.0,525.0"/>
    <path d="M 395.0,257.0 L 445.0,291.0 L 453.0,307.0"/>
    <path d="M 55.0,754.0 L 108.0,755.0 L 211.0,721.0 L 253.0,719.0"/>
    <path d="M 149.0,624.0 L 172.0,656.0 L 161.0,741.0 L 143.0,814.0 L 92.0,912.0 L 56.0,952.0"/>
    <path d="M 171.0,797.0 L 180.0,812.0 L 224.0,840.0 L 238.0,875.0"/>
    <path d="M 238.0,616.0 L 269.0,640.0 L 283.0,659.0"/>
    <path d="M 278.0,708.0 L 317.0,711.0 L 438.0,681.0 L 460.0,681.0"/>
    <path d="M 339.0,593.0 L 356.0,605.0 L 369.0,627.0 L 352.0,781.0 L 339.0,820.0 L 311.0,863.0 L 290.0,887.0 L 246.0,914.0"/>
    <path d="M 380.0,763.0 L 388.0,777.0 L 414.0,791.0 L 431.0,813.0"/>
    <path d="M 423.0,570.0 L 447.0,589.0 L 462.0,611.0"/>
    <path d="M 477.0,370.0 L 507.0,395.0 L 516.0,440.0 L 518.0,567.0 L 502.0,720.0 L 459.0,868.0 L 422.0,942.0 L 390.0,987.0"/>
    <path d="M 541.0,376.0 L 550.0,387.0 L 578.0,383.0 L 808.0,329.0 L 827.0,334.0 L 850.0,359.0 L 830.0,426.0 L 819.0,520.0 L 815.0,645.0 L 824.0,752.0 L 837.0,813.0 L 860.0,876.0 L 885.0,915.0 L 922.0,949.0 L 952.0,957.0 L 957.0,950.0 L 970.0,916.0 L 986.0,814.0"/>
    <path d="M 763.0,484.0 L 711.0,474.0 L 655.0,511.0 L 584.0,541.0 L 572.0,537.0 L 563.0,547.0"/>
    <path d="M 539.0,641.0 L 562.0,664.0 L 586.0,768.0"/>
    <path d="M 587.0,658.0 L 601.0,647.0 L 721.0,614.0 L 733.0,616.0 L 751.0,632.0 L 736.0,683.0 L 720.0,689.0"/>
    <path d="M 595.0,754.0 L 615.0,742.0 L 712.0,719.0 L 744.0,716.0 L 765.0,721.0"/>
    <path d="M 622.0,542.0 L 649.0,568.0 L 653.0,822.0 L 639.0,845.0"/>
    <path d="M 517.0,887.0 L 562.0,900.0 L 710.0,845.0 L 732.0,844.0"/>
    <path d="M 728.0,792.0 L 778.0,875.0 L 781.0,901.0"/>
  </g>
</svg>
