<svg xmlns="http://www.w3.org/2000/svg" viewBox="0 0 1024 1024">
  <g style="fill:none;stroke:#000000;stroke-width:50;stroke-linecap:round;stroke-linejoin:round;" transform="scale(1, 1) translate(0, 0)">
    <path d="M 244.0,351.0 L 274.0,375.0 L 286.0,402.0 L 283.0,568.0 L 270.0,682.0 L 248.0,770.0 L 222.0,837.0 L 168.0,939.0 L 137.0,980.0"/>
    <path d="M 327.0,391.0 L 335.0,376.0 L 449.0,347.0 L 672.0,306.0 L 704.0,312.0 L 720.0,334.0 L 703.0,407.0 L 692.0,509.0 L 692.0,637.0 L 706.0,732.0 L 746.0,847.0 L 785.0,906.0 L 821.0,942.0 L 867.0,969.0 L 899.0,974.0 L 922.0,915.0 L 938.0,791.0"/>
    <path d="M 537.0,437.0 L 555.0,464.0 L 562.0,487.0 L 532.0,585.0 L 492.0,684.0 L 466.0,733.0 L 411.0,810.0 L 356.0,866.0 L 316.0,896.0"/>
    <path d="M 367.0,548.0 L 566.0,765.0 L 604.0,820.0 L 617.0,864.0"/>
  </g>
</svg>
