<svg xmlns="http://www.w3.org/2000/svg" viewBox="0 0 1024 1024">
  <g style="fill:none;stroke:#000000;stroke-width:50;stroke-linecap:round;stroke-linejoin:round;" transform="scale(1, 1) translate(0, 0)">
    <path d="M 157.0,334.0 L 188.0,361.0 L 196.0,380.0 L 195.0,533.0 L 180.0,689.0 L 162.0,765.0 L 127.0,857.0 L 82.0,943.0 L 51.0,985.0"/>
    <path d="M 231.0,373.0 L 242.0,364.0 L 431.0,308.0 L 454.0,314.0 L 485.0,344.0 L 465.0,437.0 L 452.0,560.0 L 457.0,745.0 L 475.0,822.0 L 500.0,882.0 L 538.0,935.0 L 575.0,967.0 L 638.0,1001.0 L 702.0,1021.0 L 764.0,1029.0 L 848.0,1022.0 L 894.0,1001.0 L 901.0,865.0"/>
    <path d="M 347.0,445.0 L 370.0,479.0 L 329.0,635.0 L 294.0,709.0 L 261.0,761.0 L 197.0,826.0"/>
    <path d="M 244.0,524.0 L 350.0,676.0 L 387.0,746.0 L 393.0,785.0"/>
    <path d="M 618.0,270.0 L 630.0,277.0 L 650.0,305.0 L 637.0,345.0 L 573.0,476.0 L 505.0,569.0"/>
    <path d="M 603.0,473.0 L 812.0,418.0 L 837.0,437.0 L 830.0,534.0 L 804.0,635.0 L 791.0,657.0 L 769.0,675.0 L 721.0,646.0"/>
    <path d="M 605.0,556.0 L 614.0,562.0 L 656.0,547.0 L 687.0,548.0 L 699.0,565.0 L 697.0,577.0 L 680.0,625.0 L 664.0,636.0"/>
    <path d="M 601.0,682.0 L 611.0,671.0 L 649.0,659.0 L 702.0,660.0"/>
    <path d="M 565.0,552.0 L 583.0,574.0 L 588.0,591.0 L 579.0,660.0 L 579.0,753.0 L 591.0,786.0 L 623.0,811.0 L 671.0,826.0 L 718.0,830.0 L 773.0,826.0 L 827.0,809.0 L 854.0,784.0 L 858.0,681.0"/>
  </g>
</svg>
