<svg xmlns="http://www.w3.org/2000/svg" viewBox="0 0 1024 1024">
  <g style="fill:none;stroke:#000000;stroke-width:50;stroke-linecap:round;stroke-linejoin:round;" transform="scale(1, 1) translate(0, 0)">
    <path d="M 217.0,269.0 L 299.0,324.0 L 326.0,365.0"/>
    <path d="M 127.0,515.0 L 189.0,515.0 L 334.0,474.0 L 385.0,469.0"/>
    <path d="M 149.0,639.0 L 198.0,714.0 L 201.0,731.0"/>
    <path d="M 311.0,566.0 L 327.0,581.0 L 335.0,601.0 L 293.0,747.0 L 272.0,777.0"/>
    <path d="M 57.0,847.0 L 77.0,857.0 L 116.0,861.0 L 376.0,755.0"/>
    <path d="M 427.0,338.0 L 460.0,368.0 L 464.0,387.0 L 464.0,530.0 L 453.0,652.0 L 436.0,730.0 L 404.0,826.0 L 353.0,925.0 L 323.0,966.0"/>
    <path d="M 501.0,375.0 L 507.0,362.0 L 724.0,312.0 L 746.0,310.0 L 770.0,326.0 L 782.0,341.0 L 763.0,414.0 L 759.0,462.0 L 760.0,656.0 L 779.0,780.0 L 797.0,837.0 L 819.0,886.0 L 852.0,932.0 L 882.0,959.0 L 920.0,970.0 L 935.0,951.0 L 944.0,920.0 L 961.0,826.0"/>
    <path d="M 637.0,441.0 L 657.0,459.0 L 667.0,480.0 L 638.0,576.0 L 557.0,724.0 L 493.0,802.0"/>
    <path d="M 521.0,554.0 L 626.0,659.0 L 674.0,716.0 L 699.0,757.0 L 705.0,783.0"/>
  </g>
</svg>
