<svg xmlns="http://www.w3.org/2000/svg" viewBox="0 0 1024 1024">
  <g style="fill:none;stroke:#000000;stroke-width:50;stroke-linecap:round;stroke-linejoin:round;" transform="scale(1, 1) translate(0, 0)">
    <path d="M 163.0,302.0 L 191.0,306.0 L 233.0,301.0 L 394.0,260.0 L 429.0,258.0"/>
    <path d="M 115.0,416.0 L 135.0,432.0 L 144.0,450.0 L 177.0,591.0"/>
    <path d="M 155.0,417.0 L 172.0,424.0 L 374.0,376.0 L 421.0,377.0 L 444.0,401.0 L 404.0,540.0 L 407.0,555.0"/>
    <path d="M 207.0,348.0 L 237.0,379.0 L 251.0,525.0 L 243.0,533.0"/>
    <path d="M 311.0,311.0 L 327.0,318.0 L 340.0,334.0 L 325.0,505.0 L 314.0,517.0"/>
    <path d="M 190.0,575.0 L 221.0,561.0 L 381.0,520.0"/>
    <path d="M 195.0,642.0 L 236.0,643.0 L 347.0,613.0 L 385.0,611.0"/>
    <path d="M 93.0,750.0 L 152.0,754.0 L 382.0,694.0 L 436.0,694.0"/>
    <path d="M 285.0,742.0 L 302.0,754.0 L 310.0,771.0 L 309.0,914.0 L 302.0,962.0 L 283.0,986.0 L 195.0,952.0"/>
    <path d="M 168.0,821.0 L 151.0,872.0 L 109.0,949.0"/>
    <path d="M 341.0,788.0 L 347.0,797.0 L 396.0,822.0 L 413.0,844.0"/>
    <path d="M 496.0,381.0 L 517.0,396.0 L 531.0,421.0 L 531.0,547.0 L 521.0,658.0 L 486.0,806.0 L 465.0,860.0 L 427.0,934.0 L 391.0,983.0"/>
    <path d="M 563.0,409.0 L 572.0,401.0 L 761.0,349.0 L 794.0,351.0 L 815.0,372.0 L 798.0,437.0 L 791.0,531.0 L 791.0,657.0 L 802.0,747.0 L 815.0,809.0 L 850.0,896.0 L 890.0,947.0 L 924.0,966.0 L 939.0,968.0 L 951.0,939.0 L 966.0,821.0"/>
    <path d="M 686.0,536.0 L 706.0,560.0 L 705.0,569.0 L 679.0,672.0 L 657.0,723.0 L 608.0,796.0 L 532.0,870.0 L 523.0,870.0 L 520.0,879.0"/>
    <path d="M 575.0,614.0 L 711.0,780.0 L 735.0,818.0 L 745.0,859.0"/>
  </g>
</svg>
