<svg xmlns="http://www.w3.org/2000/svg" viewBox="0 0 1024 1024">
  <g style="fill:none;stroke:#000000;stroke-width:50;stroke-linecap:round;stroke-linejoin:round;" transform="scale(1, 1) translate(0, 0)">
    <path d="M 330.0,193.0 L 354.0,216.0 L 365.0,237.0 L 322.0,329.0 L 272.0,414.0 L 175.0,550.0 L 109.0,625.0 L 71.0,658.0"/>
    <path d="M 378.0,292.0 L 399.0,295.0 L 446.0,319.0 L 472.0,340.0 L 487.0,362.0"/>
    <path d="M 336.0,392.0 L 384.0,420.0 L 409.0,446.0"/>
    <path d="M 262.0,554.0 L 278.0,556.0 L 364.0,525.0 L 407.0,517.0 L 434.0,524.0 L 452.0,539.0 L 456.0,547.0 L 438.0,655.0 L 417.0,730.0 L 423.0,750.0"/>
    <path d="M 272.0,659.0 L 281.0,647.0 L 315.0,636.0 L 380.0,632.0"/>
    <path d="M 274.0,752.0 L 281.0,738.0 L 360.0,722.0 L 395.0,707.0"/>
    <path d="M 203.0,549.0 L 220.0,551.0 L 241.0,578.0 L 249.0,724.0 L 238.0,900.0 L 244.0,926.0 L 295.0,908.0 L 374.0,850.0 L 375.0,842.0"/>
    <path d="M 367.0,802.0 L 428.0,860.0 L 437.0,886.0"/>
    <path d="M 543.0,421.0 L 574.0,446.0 L 581.0,471.0 L 580.0,668.0 L 566.0,760.0 L 544.0,823.0 L 493.0,907.0 L 443.0,959.0 L 410.0,981.0"/>
    <path d="M 604.0,428.0 L 614.0,435.0 L 633.0,435.0 L 728.0,401.0 L 744.0,403.0 L 765.0,423.0 L 745.0,522.0 L 727.0,735.0 L 733.0,852.0 L 742.0,881.0 L 755.0,897.0 L 781.0,913.0 L 829.0,923.0 L 894.0,918.0 L 932.0,902.0 L 950.0,884.0 L 953.0,759.0"/>
  </g>
</svg>
