<svg xmlns="http://www.w3.org/2000/svg" viewBox="0 0 1024 1024">
  <g style="fill:none;stroke:#000000;stroke-width:50;stroke-linecap:round;stroke-linejoin:round;" transform="scale(1, 1) translate(0, 0)">
    <path d="M 201.0,335.0 L 213.0,343.0 L 231.0,376.0 L 204.0,455.0 L 141.0,572.0 L 105.0,619.0 L 66.0,657.0"/>
    <path d="M 221.0,488.0 L 309.0,466.0 L 331.0,468.0 L 346.0,483.0 L 310.0,604.0 L 229.0,750.0 L 160.0,838.0 L 118.0,879.0 L 62.0,918.0"/>
    <path d="M 173.0,563.0 L 220.0,622.0 L 225.0,645.0"/>
    <path d="M 570.0,197.0 L 599.0,229.0 L 577.0,302.0 L 540.0,379.0 L 508.0,435.0 L 462.0,497.0 L 410.0,555.0 L 372.0,588.0 L 357.0,594.0 L 355.0,602.0"/>
    <path d="M 615.0,287.0 L 623.0,304.0 L 676.0,360.0 L 757.0,437.0 L 804.0,473.0 L 854.0,491.0 L 992.0,517.0"/>
    <path d="M 573.0,424.0 L 624.0,457.0 L 641.0,480.0"/>
    <path d="M 526.0,557.0 L 553.0,565.0 L 612.0,552.0 L 645.0,538.0 L 690.0,532.0 L 708.0,535.0 L 724.0,551.0 L 732.0,566.0 L 699.0,711.0 L 684.0,740.0 L 668.0,741.0"/>
    <path d="M 542.0,662.0 L 548.0,651.0 L 591.0,639.0 L 621.0,634.0 L 653.0,638.0"/>
    <path d="M 537.0,757.0 L 549.0,742.0 L 590.0,730.0 L 651.0,725.0"/>
    <path d="M 471.0,547.0 L 500.0,578.0 L 508.0,607.0 L 510.0,756.0 L 491.0,967.0 L 496.0,1001.0 L 526.0,996.0 L 638.0,923.0"/>
    <path d="M 819.0,763.0 L 780.0,756.0 L 694.0,842.0 L 683.0,840.0"/>
    <path d="M 584.0,826.0 L 623.0,843.0 L 775.0,932.0 L 851.0,996.0"/>
  </g>
</svg>
