<svg xmlns="http://www.w3.org/2000/svg" viewBox="0 0 1024 1024">
  <g style="fill:none;stroke:#000000;stroke-width:50;stroke-linecap:round;stroke-linejoin:round;" transform="scale(1, 1) translate(0, 0)">
    <path d="M 312.0,214.0 L 346.0,250.0 L 295.0,377.0 L 240.0,469.0 L 185.0,539.0 L 109.0,617.0 L 67.0,650.0"/>
    <path d="M 363.0,319.0 L 398.0,326.0 L 441.0,348.0 L 472.0,384.0"/>
    <path d="M 353.0,423.0 L 397.0,452.0 L 413.0,472.0"/>
    <path d="M 256.0,590.0 L 265.0,578.0 L 287.0,570.0 L 380.0,548.0 L 414.0,552.0 L 435.0,575.0 L 397.0,745.0 L 386.0,769.0 L 390.0,786.0"/>
    <path d="M 246.0,688.0 L 297.0,665.0 L 349.0,665.0"/>
    <path d="M 246.0,778.0 L 286.0,762.0 L 360.0,752.0"/>
    <path d="M 188.0,574.0 L 211.0,578.0 L 218.0,585.0 L 226.0,641.0 L 225.0,791.0 L 212.0,925.0 L 215.0,958.0 L 266.0,944.0 L 345.0,890.0"/>
    <path d="M 333.0,823.0 L 373.0,880.0 L 386.0,913.0"/>
    <path d="M 826.0,361.0 L 757.0,345.0 L 666.0,393.0 L 575.0,421.0 L 567.0,430.0 L 523.0,432.0 L 511.0,442.0"/>
    <path d="M 502.0,598.0 L 566.0,604.0 L 765.0,560.0 L 832.0,556.0"/>
    <path d="M 588.0,440.0 L 617.0,455.0 L 630.0,473.0 L 620.0,643.0 L 591.0,750.0 L 556.0,822.0 L 511.0,881.0 L 476.0,917.0 L 399.0,971.0"/>
    <path d="M 647.0,675.0 L 650.0,697.0 L 691.0,757.0 L 815.0,903.0 L 961.0,947.0"/>
  </g>
</svg>
