<svg xmlns="http://www.w3.org/2000/svg" viewBox="0 0 1024 1024">
  <g style="fill:none;stroke:#000000;stroke-width:50;stroke-linecap:round;stroke-linejoin:round;" transform="scale(1, 1) translate(0, 0)">
    <path d="M 299.0,211.0 L 331.0,245.0 L 317.0,293.0 L 277.0,380.0 L 185.0,521.0 L 123.0,588.0 L 50.0,650.0"/>
    <path d="M 359.0,283.0 L 435.0,321.0 L 457.0,345.0"/>
    <path d="M 330.0,387.0 L 372.0,411.0 L 399.0,436.0"/>
    <path d="M 268.0,554.0 L 277.0,541.0 L 294.0,534.0 L 390.0,508.0 L 415.0,512.0 L 434.0,528.0 L 440.0,537.0 L 428.0,575.0 L 413.0,668.0 L 394.0,726.0 L 399.0,746.0"/>
    <path d="M 269.0,655.0 L 276.0,642.0 L 304.0,633.0 L 337.0,628.0 L 357.0,632.0"/>
    <path d="M 267.0,745.0 L 271.0,735.0 L 362.0,712.0"/>
    <path d="M 205.0,538.0 L 223.0,542.0 L 233.0,552.0 L 243.0,623.0 L 238.0,803.0 L 228.0,890.0 L 231.0,926.0 L 250.0,924.0 L 281.0,909.0 L 358.0,850.0 L 360.0,840.0"/>
    <path d="M 350.0,791.0 L 389.0,831.0 L 411.0,864.0"/>
    <path d="M 603.0,192.0 L 626.0,208.0 L 639.0,228.0 L 637.0,236.0 L 604.0,323.0 L 563.0,407.0 L 501.0,495.0"/>
    <path d="M 591.0,403.0 L 699.0,387.0 L 834.0,350.0 L 867.0,353.0"/>
    <path d="M 497.0,639.0 L 522.0,647.0 L 548.0,647.0 L 783.0,586.0 L 808.0,588.0 L 832.0,610.0 L 785.0,857.0 L 763.0,921.0 L 739.0,967.0 L 706.0,991.0 L 625.0,938.0"/>
    <path d="M 642.0,482.0 L 666.0,506.0 L 668.0,524.0 L 643.0,663.0 L 615.0,737.0 L 588.0,792.0 L 520.0,892.0 L 459.0,959.0 L 398.0,1012.0"/>
  </g>
</svg>
