<svg xmlns="http://www.w3.org/2000/svg" viewBox="0 0 1024 1024">
  <g style="fill:none;stroke:#000000;stroke-width:50;stroke-linecap:round;stroke-linejoin:round;" transform="scale(1, 1) translate(0, 0)">
    <path d="M 314.0,225.0 L 337.0,246.0 L 341.0,268.0 L 307.0,364.0 L 273.0,430.0 L 173.0,574.0 L 57.0,683.0"/>
    <path d="M 367.0,310.0 L 381.0,308.0 L 443.0,331.0 L 483.0,369.0"/>
    <path d="M 307.0,420.0 L 345.0,427.0 L 394.0,452.0"/>
    <path d="M 259.0,560.0 L 269.0,566.0 L 316.0,547.0 L 378.0,532.0 L 403.0,536.0 L 428.0,561.0 L 398.0,720.0 L 387.0,752.0 L 391.0,774.0"/>
    <path d="M 259.0,682.0 L 291.0,661.0 L 332.0,654.0 L 354.0,658.0"/>
    <path d="M 260.0,781.0 L 268.0,770.0 L 358.0,740.0"/>
    <path d="M 223.0,560.0 L 237.0,650.0 L 238.0,756.0 L 227.0,909.0 L 231.0,943.0 L 282.0,927.0 L 360.0,870.0 L 362.0,860.0"/>
    <path d="M 356.0,819.0 L 423.0,889.0 L 433.0,925.0"/>
    <path d="M 525.0,501.0 L 594.0,495.0 L 713.0,446.0 L 766.0,439.0"/>
    <path d="M 489.0,610.0 L 513.0,644.0 L 514.0,683.0 L 506.0,728.0 L 508.0,747.0 L 514.0,749.0 L 549.0,745.0 L 663.0,700.0 L 734.0,680.0 L 742.0,678.0 L 756.0,688.0"/>
    <path d="M 794.0,498.0 L 821.0,544.0 L 786.0,663.0 L 777.0,720.0"/>
    <path d="M 593.0,211.0 L 614.0,220.0 L 648.0,259.0 L 630.0,507.0 L 628.0,721.0 L 638.0,850.0 L 657.0,906.0 L 694.0,936.0 L 751.0,950.0 L 814.0,952.0 L 895.0,935.0 L 921.0,916.0 L 927.0,773.0"/>
  </g>
</svg>
