<svg xmlns="http://www.w3.org/2000/svg" viewBox="0 0 1024 1024">
  <g style="fill:none;stroke:#000000;stroke-width:50;stroke-linecap:round;stroke-linejoin:round;" transform="scale(1, 1) translate(0, 0)">
    <path d="M 321.0,214.0 L 354.0,250.0 L 336.0,305.0 L 288.0,401.0 L 189.0,544.0 L 114.0,618.0 L 58.0,662.0"/>
    <path d="M 373.0,310.0 L 389.0,308.0 L 439.0,323.0 L 467.0,338.0 L 485.0,359.0"/>
    <path d="M 318.0,405.0 L 369.0,423.0 L 397.0,446.0"/>
    <path d="M 255.0,555.0 L 283.0,558.0 L 400.0,523.0 L 428.0,528.0 L 446.0,544.0 L 451.0,553.0 L 407.0,736.0 L 411.0,751.0"/>
    <path d="M 274.0,664.0 L 285.0,651.0 L 311.0,642.0 L 345.0,637.0 L 365.0,641.0"/>
    <path d="M 274.0,752.0 L 283.0,738.0 L 363.0,722.0 L 384.0,710.0"/>
    <path d="M 208.0,562.0 L 234.0,573.0 L 244.0,600.0 L 249.0,766.0 L 238.0,908.0 L 242.0,927.0 L 294.0,913.0 L 372.0,861.0 L 374.0,853.0"/>
    <path d="M 359.0,797.0 L 410.0,846.0 L 425.0,871.0"/>
    <path d="M 623.0,221.0 L 650.0,240.0 L 663.0,259.0 L 652.0,307.0 L 591.0,468.0 L 524.0,582.0"/>
    <path d="M 591.0,524.0 L 770.0,475.0 L 809.0,482.0 L 826.0,504.0 L 817.0,519.0 L 732.0,604.0"/>
    <path d="M 582.0,608.0 L 617.0,644.0 L 618.0,665.0 L 603.0,770.0 L 573.0,853.0 L 544.0,898.0 L 510.0,934.0 L 449.0,975.0 L 388.0,997.0"/>
    <path d="M 641.0,765.0 L 642.0,789.0 L 721.0,880.0 L 799.0,955.0 L 815.0,967.0 L 945.0,995.0"/>
  </g>
</svg>
