<svg xmlns="http://www.w3.org/2000/svg" viewBox="0 0 1024 1024">
  <g style="fill:none;stroke:#000000;stroke-width:50;stroke-linecap:round;stroke-linejoin:round;" transform="scale(1, 1) translate(0, 0)">
    <path d="M 314.0,200.0 L 348.0,233.0 L 317.0,328.0 L 293.0,381.0 L 242.0,469.0 L 186.0,544.0 L 136.0,600.0 L 78.0,650.0"/>
    <path d="M 377.0,274.0 L 389.0,271.0 L 444.0,288.0 L 478.0,319.0"/>
    <path d="M 323.0,384.0 L 375.0,401.0 L 405.0,422.0"/>
    <path d="M 271.0,525.0 L 283.0,529.0 L 371.0,493.0 L 391.0,491.0 L 413.0,495.0 L 431.0,512.0 L 435.0,530.0 L 397.0,699.0 L 403.0,717.0"/>
    <path d="M 273.0,634.0 L 285.0,622.0 L 316.0,611.0 L 365.0,610.0"/>
    <path d="M 277.0,727.0 L 289.0,707.0 L 365.0,685.0"/>
    <path d="M 243.0,521.0 L 249.0,660.0 L 240.0,901.0 L 287.0,888.0 L 380.0,821.0 L 383.0,810.0"/>
    <path d="M 374.0,758.0 L 433.0,819.0 L 445.0,847.0"/>
    <path d="M 631.0,187.0 L 644.0,195.0 L 667.0,228.0 L 648.0,286.0 L 589.0,403.0 L 548.0,467.0 L 505.0,518.0"/>
    <path d="M 602.0,430.0 L 708.0,413.0 L 809.0,380.0 L 858.0,380.0"/>
    <path d="M 512.0,596.0 L 536.0,616.0 L 542.0,637.0 L 542.0,817.0"/>
    <path d="M 562.0,603.0 L 581.0,609.0 L 790.0,553.0 L 833.0,551.0 L 854.0,563.0 L 867.0,576.0 L 865.0,730.0 L 857.0,783.0 L 842.0,806.0 L 757.0,776.0"/>
    <path d="M 639.0,448.0 L 683.0,479.0 L 685.0,956.0 L 679.0,1104.0"/>
  </g>
</svg>
