<svg xmlns="http://www.w3.org/2000/svg" viewBox="0 0 1024 1024">
  <g style="fill:none;stroke:#000000;stroke-width:50;stroke-linecap:round;stroke-linejoin:round;" transform="scale(1, 1) translate(0, 0)">
    <path d="M 297.0,219.0 L 330.0,254.0 L 302.0,335.0 L 256.0,425.0 L 167.0,551.0 L 54.0,654.0"/>
    <path d="M 357.0,304.0 L 369.0,301.0 L 422.0,321.0 L 456.0,356.0"/>
    <path d="M 314.0,408.0 L 363.0,429.0 L 390.0,453.0"/>
    <path d="M 258.0,540.0 L 271.0,550.0 L 392.0,515.0 L 414.0,517.0 L 436.0,532.0 L 443.0,544.0 L 410.0,685.0 L 399.0,709.0 L 374.0,698.0"/>
    <path d="M 267.0,646.0 L 281.0,633.0 L 304.0,625.0 L 340.0,618.0 L 362.0,622.0"/>
    <path d="M 266.0,742.0 L 293.0,720.0 L 348.0,708.0 L 357.0,701.0"/>
    <path d="M 198.0,554.0 L 222.0,561.0 L 236.0,591.0 L 245.0,706.0 L 239.0,884.0 L 243.0,919.0 L 289.0,905.0 L 367.0,845.0 L 368.0,835.0"/>
    <path d="M 338.0,774.0 L 399.0,822.0 L 415.0,854.0"/>
    <path d="M 617.0,207.0 L 705.0,250.0 L 734.0,285.0"/>
    <path d="M 513.0,413.0 L 574.0,417.0 L 715.0,386.0 L 825.0,354.0 L 885.0,351.0"/>
    <path d="M 570.0,496.0 L 587.0,527.0 L 488.0,628.0"/>
    <path d="M 726.0,475.0 L 823.0,513.0 L 846.0,540.0"/>
    <path d="M 672.0,600.0 L 703.0,626.0 L 697.0,667.0 L 668.0,761.0 L 620.0,840.0 L 577.0,881.0 L 528.0,913.0 L 444.0,948.0 L 393.0,958.0"/>
    <path d="M 507.0,680.0 L 553.0,705.0 L 689.0,858.0 L 775.0,926.0 L 813.0,945.0 L 954.0,960.0"/>
  </g>
</svg>
