<svg xmlns="http://www.w3.org/2000/svg" viewBox="0 0 1024 1024">
  <g style="fill:none;stroke:#000000;stroke-width:50;stroke-linecap:round;stroke-linejoin:round;" transform="scale(1, 1) translate(0, 0)">
    <path d="M 306.0,222.0 L 333.0,249.0 L 336.0,263.0 L 304.0,348.0 L 267.0,416.0 L 211.0,501.0 L 170.0,550.0 L 60.0,647.0"/>
    <path d="M 355.0,323.0 L 367.0,321.0 L 426.0,351.0 L 453.0,383.0"/>
    <path d="M 322.0,424.0 L 366.0,450.0 L 383.0,467.0"/>
    <path d="M 263.0,551.0 L 274.0,558.0 L 368.0,528.0 L 394.0,525.0 L 407.0,532.0 L 424.0,557.0 L 389.0,714.0 L 379.0,734.0 L 363.0,733.0"/>
    <path d="M 265.0,654.0 L 279.0,639.0 L 322.0,629.0 L 342.0,632.0"/>
    <path d="M 261.0,753.0 L 277.0,739.0 L 353.0,716.0"/>
    <path d="M 200.0,554.0 L 229.0,564.0 L 238.0,622.0 L 239.0,798.0 L 231.0,935.0 L 279.0,924.0 L 382.0,857.0"/>
    <path d="M 367.0,797.0 L 427.0,868.0 L 444.0,915.0"/>
    <path d="M 559.0,375.0 L 614.0,377.0 L 780.0,332.0 L 828.0,329.0"/>
    <path d="M 653.0,201.0 L 693.0,240.0 L 675.0,451.0 L 659.0,470.0"/>
    <path d="M 510.0,470.0 L 522.0,502.0 L 521.0,520.0 L 493.0,593.0 L 491.0,622.0"/>
    <path d="M 552.0,505.0 L 562.0,512.0 L 585.0,509.0 L 846.0,453.0 L 878.0,468.0 L 889.0,487.0 L 824.0,551.0"/>
    <path d="M 554.0,616.0 L 591.0,626.0 L 609.0,623.0 L 694.0,585.0 L 721.0,578.0 L 740.0,580.0 L 763.0,601.0 L 759.0,611.0 L 705.0,686.0 L 695.0,687.0"/>
    <path d="M 651.0,693.0 L 688.0,715.0 L 707.0,748.0 L 723.0,828.0 L 721.0,932.0 L 705.0,983.0 L 672.0,1017.0 L 651.0,1012.0 L 595.0,980.0"/>
    <path d="M 478.0,788.0 L 533.0,792.0 L 870.0,735.0 L 952.0,749.0"/>
  </g>
</svg>
