<svg xmlns="http://www.w3.org/2000/svg" viewBox="0 0 1024 1024">
  <g style="fill:none;stroke:#000000;stroke-width:50;stroke-linecap:round;stroke-linejoin:round;" transform="scale(1, 1) translate(0, 0)">
    <path d="M 313.0,215.0 L 339.0,246.0 L 310.0,323.0 L 255.0,425.0 L 175.0,532.0 L 118.0,589.0 L 63.0,636.0 L 45.0,643.0 L 42.0,651.0"/>
    <path d="M 358.0,300.0 L 372.0,312.0 L 432.0,339.0 L 460.0,372.0"/>
    <path d="M 297.0,399.0 L 359.0,426.0 L 384.0,452.0"/>
    <path d="M 248.0,550.0 L 273.0,551.0 L 286.0,541.0 L 359.0,522.0 L 388.0,528.0 L 405.0,543.0 L 408.0,558.0 L 378.0,711.0 L 382.0,734.0"/>
    <path d="M 253.0,648.0 L 265.0,637.0 L 285.0,632.0 L 337.0,632.0"/>
    <path d="M 254.0,742.0 L 265.0,731.0 L 333.0,717.0 L 345.0,709.0"/>
    <path d="M 194.0,549.0 L 222.0,564.0 L 231.0,617.0 L 235.0,763.0 L 224.0,928.0 L 267.0,919.0 L 347.0,868.0 L 349.0,859.0"/>
    <path d="M 330.0,794.0 L 380.0,849.0 L 393.0,885.0"/>
    <path d="M 791.0,327.0 L 726.0,315.0 L 677.0,349.0 L 529.0,410.0"/>
    <path d="M 479.0,474.0 L 527.0,509.0 L 542.0,541.0"/>
    <path d="M 593.0,438.0 L 628.0,468.0 L 644.0,497.0"/>
    <path d="M 784.0,398.0 L 801.0,418.0 L 806.0,438.0 L 701.0,537.0"/>
    <path d="M 602.0,578.0 L 618.0,594.0 L 628.0,618.0 L 547.0,806.0 L 570.0,821.0 L 684.0,868.0 L 798.0,928.0 L 862.0,992.0"/>
    <path d="M 727.0,634.0 L 755.0,659.0 L 758.0,679.0 L 752.0,711.0 L 723.0,788.0 L 680.0,851.0 L 648.0,881.0 L 598.0,909.0 L 516.0,937.0 L 467.0,943.0"/>
    <path d="M 448.0,698.0 L 501.0,701.0 L 649.0,674.0 L 880.0,646.0 L 927.0,650.0 L 958.0,660.0"/>
  </g>
</svg>
