<svg xmlns="http://www.w3.org/2000/svg" viewBox="0 0 1024 1024">
  <g style="fill:none;stroke:#000000;stroke-width:50;stroke-linecap:round;stroke-linejoin:round;" transform="scale(1, 1) translate(0, 0)">
    <path d="M 287.0,231.0 L 316.0,261.0 L 315.0,269.0 L 293.0,337.0 L 242.0,449.0 L 203.0,515.0 L 152.0,583.0 L 92.0,648.0 L 63.0,674.0 L 49.0,678.0 L 46.0,686.0"/>
    <path d="M 345.0,310.0 L 364.0,308.0 L 432.0,331.0 L 465.0,358.0"/>
    <path d="M 287.0,423.0 L 324.0,430.0 L 370.0,453.0"/>
    <path d="M 256.0,567.0 L 264.0,554.0 L 279.0,547.0 L 356.0,521.0 L 386.0,523.0 L 411.0,547.0 L 419.0,560.0 L 397.0,629.0 L 374.0,745.0"/>
    <path d="M 261.0,664.0 L 271.0,649.0 L 307.0,642.0 L 330.0,646.0"/>
    <path d="M 255.0,764.0 L 271.0,746.0 L 291.0,740.0 L 332.0,733.0 L 343.0,743.0"/>
    <path d="M 241.0,547.0 L 224.0,563.0 L 222.0,574.0 L 233.0,675.0 L 227.0,872.0 L 231.0,907.0 L 279.0,893.0 L 341.0,847.0 L 343.0,837.0"/>
    <path d="M 332.0,794.0 L 391.0,843.0 L 403.0,876.0"/>
    <path d="M 650.0,199.0 L 678.0,238.0 L 636.0,316.0 L 580.0,383.0 L 564.0,426.0 L 600.0,429.0 L 761.0,377.0 L 773.0,386.0"/>
    <path d="M 748.0,319.0 L 824.0,380.0 L 849.0,425.0"/>
    <path d="M 621.0,521.0 L 576.0,531.0 L 526.0,587.0 L 479.0,618.0"/>
    <path d="M 710.0,483.0 L 784.0,517.0 L 816.0,554.0"/>
    <path d="M 586.0,600.0 L 608.0,634.0 L 575.0,729.0 L 555.0,768.0 L 501.0,843.0 L 470.0,875.0 L 368.0,948.0"/>
    <path d="M 622.0,695.0 L 642.0,680.0 L 711.0,660.0 L 742.0,664.0 L 762.0,674.0 L 736.0,756.0 L 706.0,824.0 L 680.0,870.0 L 640.0,917.0 L 593.0,953.0 L 544.0,979.0 L 455.0,999.0"/>
    <path d="M 602.0,742.0 L 613.0,766.0 L 723.0,875.0 L 821.0,954.0 L 980.0,976.0"/>
  </g>
</svg>
