<svg xmlns="http://www.w3.org/2000/svg" viewBox="0 0 1024 1024">
  <g style="fill:none;stroke:#000000;stroke-width:50;stroke-linecap:round;stroke-linejoin:round;" transform="scale(1, 1) translate(0, 0)">
    <path d="M 282.0,202.0 L 301.0,215.0 L 324.0,247.0 L 280.0,361.0 L 168.0,568.0 L 81.0,691.0 L 54.0,717.0"/>
    <path d="M 351.0,289.0 L 378.0,288.0 L 436.0,305.0 L 465.0,330.0"/>
    <path d="M 310.0,418.0 L 382.0,444.0 L 395.0,456.0"/>
    <path d="M 266.0,569.0 L 279.0,574.0 L 385.0,540.0 L 412.0,537.0 L 433.0,554.0 L 441.0,568.0 L 415.0,708.0 L 403.0,736.0 L 388.0,738.0"/>
    <path d="M 273.0,673.0 L 279.0,661.0 L 308.0,651.0 L 361.0,649.0"/>
    <path d="M 266.0,761.0 L 342.0,731.0 L 360.0,729.0 L 368.0,737.0"/>
    <path d="M 199.0,565.0 L 215.0,567.0 L 233.0,583.0 L 243.0,641.0 L 245.0,787.0 L 234.0,920.0 L 238.0,950.0 L 285.0,937.0 L 376.0,871.0 L 377.0,862.0"/>
    <path d="M 358.0,806.0 L 425.0,874.0 L 433.0,907.0"/>
    <path d="M 636.0,215.0 L 701.0,254.0 L 730.0,293.0"/>
    <path d="M 519.0,374.0 L 529.0,419.0 L 503.0,479.0 L 499.0,514.0"/>
    <path d="M 556.0,394.0 L 574.0,406.0 L 758.0,349.0 L 826.0,333.0 L 859.0,336.0 L 877.0,347.0 L 891.0,368.0 L 808.0,466.0"/>
    <path d="M 548.0,551.0 L 572.0,575.0 L 584.0,634.0 L 587.0,824.0 L 574.0,1014.0 L 580.0,1071.0"/>
    <path d="M 611.0,587.0 L 626.0,574.0 L 716.0,546.0 L 750.0,546.0 L 774.0,575.0 L 752.0,624.0 L 716.0,644.0"/>
    <path d="M 608.0,706.0 L 629.0,693.0 L 706.0,673.0 L 780.0,670.0"/>
    <path d="M 607.0,824.0 L 621.0,813.0 L 758.0,774.0 L 786.0,778.0 L 815.0,804.0 L 791.0,873.0 L 761.0,898.0"/>
    <path d="M 612.0,967.0 L 628.0,950.0 L 751.0,926.0 L 811.0,922.0 L 834.0,930.0"/>
  </g>
</svg>
