<svg xmlns="http://www.w3.org/2000/svg" viewBox="0 0 1024 1024">
  <g style="fill:none;stroke:#000000;stroke-width:50;stroke-linecap:round;stroke-linejoin:round;" transform="scale(1, 1) translate(0, 0)">
    <path d="M 282.0,167.0 L 303.0,186.0 L 316.0,208.0 L 269.0,313.0 L 214.0,409.0 L 136.0,524.0 L 65.0,608.0 L 42.0,627.0"/>
    <path d="M 327.0,263.0 L 349.0,265.0 L 381.0,279.0 L 407.0,308.0"/>
    <path d="M 285.0,360.0 L 330.0,386.0 L 354.0,411.0"/>
    <path d="M 231.0,530.0 L 232.0,520.0 L 342.0,489.0 L 363.0,491.0 L 387.0,508.0 L 392.0,516.0 L 369.0,642.0 L 354.0,690.0 L 358.0,707.0"/>
    <path d="M 221.0,623.0 L 259.0,603.0 L 298.0,596.0 L 314.0,599.0"/>
    <path d="M 222.0,706.0 L 228.0,697.0 L 272.0,682.0 L 326.0,672.0"/>
    <path d="M 165.0,523.0 L 190.0,530.0 L 199.0,597.0 L 194.0,879.0 L 236.0,869.0 L 315.0,816.0 L 316.0,807.0"/>
    <path d="M 295.0,754.0 L 359.0,813.0 L 373.0,847.0"/>
    <path d="M 461.0,280.0 L 489.0,301.0 L 505.0,325.0 L 532.0,458.0 L 552.0,517.0"/>
    <path d="M 512.0,287.0 L 535.0,296.0 L 764.0,249.0 L 807.0,258.0 L 828.0,282.0 L 800.0,395.0 L 771.0,483.0 L 751.0,483.0"/>
    <path d="M 582.0,392.0 L 707.0,364.0 L 741.0,367.0"/>
    <path d="M 633.0,295.0 L 652.0,310.0 L 653.0,437.0 L 649.0,453.0 L 639.0,461.0"/>
    <path d="M 570.0,505.0 L 586.0,495.0 L 745.0,461.0"/>
    <path d="M 424.0,621.0 L 471.0,626.0 L 559.0,605.0 L 797.0,569.0 L 833.0,567.0 L 886.0,579.0"/>
    <path d="M 477.0,648.0 L 504.0,661.0 L 514.0,683.0 L 503.0,897.0 L 511.0,959.0 L 561.0,936.0 L 662.0,855.0"/>
    <path d="M 793.0,648.0 L 808.0,679.0 L 740.0,744.0 L 694.0,775.0"/>
    <path d="M 546.0,674.0 L 742.0,844.0 L 833.0,905.0 L 977.0,909.0"/>
  </g>
</svg>
