<svg xmlns="http://www.w3.org/2000/svg" viewBox="0 0 1024 1024">
  <g style="fill:none;stroke:#000000;stroke-width:50;stroke-linecap:round;stroke-linejoin:round;" transform="scale(1, 1) translate(0, 0)">
    <path d="M 296.0,197.0 L 323.0,230.0 L 298.0,309.0 L 257.0,395.0 L 215.0,462.0 L 159.0,535.0 L 107.0,592.0 L 63.0,631.0 L 49.0,634.0 L 46.0,643.0"/>
    <path d="M 344.0,277.0 L 371.0,274.0 L 409.0,285.0 L 429.0,295.0 L 450.0,317.0"/>
    <path d="M 293.0,388.0 L 301.0,398.0 L 349.0,421.0 L 373.0,445.0"/>
    <path d="M 232.0,560.0 L 248.0,543.0 L 345.0,506.0 L 372.0,503.0 L 403.0,526.0 L 408.0,535.0 L 368.0,704.0 L 358.0,725.0 L 334.0,714.0"/>
    <path d="M 237.0,652.0 L 246.0,643.0 L 280.0,631.0 L 315.0,620.0 L 335.0,621.0"/>
    <path d="M 235.0,747.0 L 246.0,736.0 L 286.0,721.0 L 309.0,718.0 L 317.0,726.0"/>
    <path d="M 178.0,552.0 L 203.0,559.0 L 212.0,605.0 L 216.0,769.0 L 210.0,904.0 L 252.0,892.0 L 331.0,837.0 L 333.0,827.0"/>
    <path d="M 322.0,774.0 L 364.0,819.0 L 383.0,850.0"/>
    <path d="M 587.0,176.0 L 615.0,207.0 L 589.0,272.0 L 532.0,367.0 L 451.0,446.0"/>
    <path d="M 585.0,339.0 L 758.0,287.0 L 813.0,281.0"/>
    <path d="M 549.0,450.0 L 621.0,440.0 L 713.0,401.0 L 750.0,395.0"/>
    <path d="M 490.0,573.0 L 538.0,567.0 L 719.0,504.0 L 747.0,500.0 L 768.0,507.0 L 779.0,521.0 L 757.0,620.0 L 754.0,733.0 L 762.0,812.0 L 787.0,898.0 L 815.0,942.0 L 840.0,967.0 L 864.0,984.0 L 897.0,994.0 L 914.0,956.0 L 926.0,866.0"/>
    <path d="M 458.0,665.0 L 493.0,698.0"/>
    <path d="M 636.0,597.0 L 650.0,621.0 L 588.0,687.0"/>
    <path d="M 419.0,785.0 L 474.0,785.0 L 578.0,759.0 L 586.0,751.0 L 649.0,733.0 L 680.0,733.0"/>
    <path d="M 518.0,612.0 L 534.0,625.0 L 551.0,655.0 L 547.0,1016.0"/>
    <path d="M 524.0,794.0 L 492.0,825.0 L 460.0,875.0 L 421.0,921.0 L 367.0,964.0 L 344.0,975.0"/>
    <path d="M 593.0,825.0 L 677.0,872.0 L 699.0,908.0"/>
  </g>
</svg>
