<svg xmlns="http://www.w3.org/2000/svg" viewBox="0 0 1024 1024">
  <g style="fill:none;stroke:#000000;stroke-width:50;stroke-linecap:round;stroke-linejoin:round;" transform="scale(1, 1) translate(0, 0)">
    <path d="M 267.0,240.0 L 287.0,259.0 L 296.0,283.0 L 259.0,370.0 L 180.0,505.0 L 101.0,611.0 L 62.0,647.0"/>
    <path d="M 306.0,347.0 L 378.0,381.0 L 391.0,392.0 L 402.0,417.0"/>
    <path d="M 281.0,447.0 L 322.0,469.0 L 348.0,494.0"/>
    <path d="M 232.0,598.0 L 244.0,583.0 L 357.0,553.0 L 387.0,556.0 L 406.0,572.0 L 412.0,580.0 L 387.0,702.0 L 370.0,755.0 L 374.0,775.0"/>
    <path d="M 236.0,692.0 L 244.0,679.0 L 255.0,676.0 L 287.0,669.0 L 318.0,672.0"/>
    <path d="M 229.0,773.0 L 244.0,761.0 L 339.0,743.0"/>
    <path d="M 167.0,572.0 L 202.0,599.0 L 210.0,642.0 L 212.0,793.0 L 207.0,805.0 L 202.0,948.0 L 246.0,937.0 L 328.0,884.0 L 329.0,875.0"/>
    <path d="M 318.0,824.0 L 372.0,881.0 L 386.0,907.0"/>
    <path d="M 539.0,288.0 L 575.0,309.0 L 611.0,450.0"/>
    <path d="M 440.0,387.0 L 490.0,397.0 L 639.0,359.0"/>
    <path d="M 739.0,236.0 L 765.0,268.0 L 738.0,378.0 L 714.0,446.0"/>
    <path d="M 706.0,350.0 L 763.0,355.0 L 878.0,339.0 L 934.0,352.0"/>
    <path d="M 494.0,507.0 L 522.0,539.0 L 557.0,714.0"/>
    <path d="M 541.0,514.0 L 565.0,518.0 L 637.0,501.0 L 763.0,483.0 L 778.0,484.0 L 796.0,495.0 L 814.0,524.0 L 792.0,575.0 L 755.0,699.0"/>
    <path d="M 567.0,614.0 L 572.0,606.0 L 684.0,586.0 L 717.0,592.0"/>
    <path d="M 571.0,701.0 L 584.0,690.0 L 734.0,670.0"/>
    <path d="M 436.0,836.0 L 487.0,842.0 L 672.0,809.0 L 852.0,787.0 L 924.0,802.0"/>
    <path d="M 603.0,733.0 L 634.0,763.0 L 633.0,784.0 L 616.0,859.0 L 584.0,916.0 L 569.0,934.0 L 499.0,985.0 L 397.0,1017.0"/>
    <path d="M 654.0,841.0 L 743.0,930.0 L 836.0,1008.0 L 967.0,1025.0"/>
  </g>
</svg>
