<svg xmlns="http://www.w3.org/2000/svg" viewBox="0 0 1024 1024">
  <g style="fill:none;stroke:#000000;stroke-width:50;stroke-linecap:round;stroke-linejoin:round;" transform="scale(1, 1) translate(0, 0)">
    <path d="M 297.0,212.0 L 317.0,228.0 L 333.0,255.0 L 285.0,365.0 L 227.0,469.0 L 142.0,597.0 L 78.0,676.0 L 40.0,712.0"/>
    <path d="M 345.0,313.0 L 358.0,311.0 L 409.0,340.0 L 433.0,369.0"/>
    <path d="M 282.0,430.0 L 292.0,428.0 L 324.0,450.0 L 346.0,477.0"/>
    <path d="M 241.0,584.0 L 260.0,568.0 L 346.0,538.0 L 371.0,540.0 L 389.0,555.0 L 395.0,564.0 L 386.0,595.0 L 377.0,680.0 L 362.0,732.0 L 367.0,754.0"/>
    <path d="M 242.0,675.0 L 253.0,664.0 L 281.0,653.0 L 312.0,647.0 L 332.0,650.0"/>
    <path d="M 241.0,764.0 L 260.0,750.0 L 331.0,726.0"/>
    <path d="M 190.0,572.0 L 212.0,580.0 L 218.0,610.0 L 223.0,794.0 L 215.0,871.0 L 218.0,901.0 L 256.0,892.0 L 325.0,846.0"/>
    <path d="M 317.0,798.0 L 367.0,847.0 L 383.0,869.0 L 391.0,894.0"/>
    <path d="M 457.0,397.0 L 519.0,397.0 L 640.0,360.0 L 676.0,360.0"/>
    <path d="M 465.0,278.0 L 496.0,308.0 L 502.0,325.0 L 513.0,485.0 L 501.0,509.0"/>
    <path d="M 600.0,207.0 L 619.0,221.0 L 634.0,243.0 L 604.0,459.0 L 587.0,480.0"/>
    <path d="M 462.0,543.0 L 484.0,542.0 L 625.0,495.0 L 653.0,497.0"/>
    <path d="M 455.0,606.0 L 477.0,625.0 L 482.0,641.0 L 483.0,703.0 L 470.0,814.0 L 442.0,963.0"/>
    <path d="M 503.0,614.0 L 515.0,618.0 L 577.0,595.0 L 598.0,600.0 L 614.0,620.0 L 622.0,925.0 L 604.0,957.0 L 531.0,920.0"/>
    <path d="M 504.0,733.0 L 510.0,722.0 L 545.0,714.0 L 572.0,716.0"/>
    <path d="M 496.0,817.0 L 502.0,804.0 L 519.0,800.0 L 555.0,797.0 L 570.0,802.0"/>
    <path d="M 753.0,228.0 L 775.0,243.0 L 787.0,262.0 L 780.0,309.0 L 723.0,478.0 L 697.0,534.0 L 671.0,572.0"/>
    <path d="M 730.0,509.0 L 796.0,496.0 L 886.0,459.0 L 920.0,456.0"/>
    <path d="M 787.0,526.0 L 818.0,550.0 L 813.0,624.0 L 790.0,723.0 L 771.0,767.0 L 742.0,808.0 L 697.0,849.0 L 653.0,874.0"/>
    <path d="M 679.0,637.0 L 703.0,646.0 L 715.0,659.0 L 784.0,771.0 L 871.0,868.0 L 905.0,885.0 L 963.0,899.0"/>
  </g>
</svg>
