<svg xmlns="http://www.w3.org/2000/svg" viewBox="0 0 1024 1024">
  <g style="fill:none;stroke:#000000;stroke-width:50;stroke-linecap:round;stroke-linejoin:round;" transform="scale(1, 1) translate(0, 0)">
    <path d="M 278.0,185.0 L 297.0,221.0 L 267.0,279.0 L 224.0,343.0 L 212.0,385.0 L 237.0,391.0 L 277.0,384.0 L 301.0,371.0"/>
    <path d="M 339.0,300.0 L 354.0,331.0 L 319.0,387.0 L 242.0,485.0 L 240.0,502.0 L 244.0,509.0 L 262.0,510.0 L 340.0,483.0 L 345.0,474.0"/>
    <path d="M 361.0,421.0 L 373.0,436.0 L 377.0,456.0 L 350.0,542.0 L 325.0,591.0 L 264.0,654.0 L 224.0,677.0 L 190.0,688.0"/>
    <path d="M 480.0,168.0 L 525.0,191.0 L 540.0,212.0"/>
    <path d="M 471.0,263.0 L 480.0,270.0 L 504.0,267.0 L 579.0,249.0 L 600.0,256.0 L 611.0,278.0 L 594.0,355.0 L 579.0,398.0 L 568.0,397.0"/>
    <path d="M 478.0,343.0 L 484.0,331.0 L 498.0,326.0 L 547.0,320.0"/>
    <path d="M 475.0,410.0 L 480.0,399.0 L 560.0,381.0"/>
    <path d="M 422.0,252.0 L 446.0,273.0 L 452.0,287.0 L 455.0,384.0 L 447.0,461.0 L 453.0,510.0 L 495.0,500.0 L 544.0,471.0 L 554.0,472.0"/>
    <path d="M 543.0,440.0 L 577.0,463.0 L 596.0,484.0 L 605.0,505.0"/>
    <path d="M 719.0,256.0 L 724.0,249.0 L 787.0,227.0 L 817.0,225.0 L 831.0,238.0 L 783.0,316.0 L 774.0,341.0 L 781.0,359.0 L 807.0,378.0 L 833.0,411.0 L 849.0,438.0 L 856.0,473.0 L 841.0,492.0 L 752.0,469.0"/>
    <path d="M 661.0,232.0 L 678.0,245.0 L 688.0,266.0 L 687.0,609.0"/>
    <path d="M 529.0,575.0 L 503.0,578.0 L 412.0,682.0 L 270.0,797.0 L 168.0,860.0 L 98.0,888.0"/>
    <path d="M 540.0,593.0 L 541.0,604.0 L 657.0,689.0 L 805.0,774.0 L 836.0,786.0 L 987.0,790.0"/>
    <path d="M 496.0,649.0 L 545.0,678.0"/>
    <path d="M 406.0,749.0 L 432.0,753.0 L 555.0,722.0 L 582.0,722.0 L 595.0,730.0 L 609.0,750.0 L 590.0,854.0 L 582.0,875.0 L 575.0,879.0 L 559.0,872.0"/>
    <path d="M 418.0,830.0 L 428.0,820.0 L 469.0,810.0 L 517.0,802.0 L 533.0,807.0"/>
    <path d="M 415.0,905.0 L 431.0,894.0 L 518.0,878.0 L 538.0,879.0 L 547.0,889.0"/>
    <path d="M 358.0,761.0 L 384.0,770.0 L 388.0,778.0 L 390.0,892.0 L 379.0,1040.0 L 430.0,1030.0 L 512.0,985.0"/>
    <path d="M 708.0,897.0 L 678.0,889.0 L 626.0,944.0 L 611.0,943.0"/>
    <path d="M 488.0,934.0 L 702.0,1012.0 L 760.0,1043.0 L 791.0,1076.0"/>
  </g>
</svg>
