<svg xmlns="http://www.w3.org/2000/svg" viewBox="0 0 1024 1024">
  <g style="fill:none;stroke:#000000;stroke-width:50;stroke-linecap:round;stroke-linejoin:round;" transform="scale(1, 1) translate(0, 0)">
    <path d="M 219.0,253.0 L 248.0,277.0 L 280.0,383.0"/>
    <path d="M 270.0,271.0 L 278.0,262.0 L 374.0,242.0 L 395.0,263.0 L 385.0,294.0 L 364.0,313.0"/>
    <path d="M 293.0,354.0 L 307.0,344.0 L 365.0,333.0 L 393.0,330.0 L 413.0,335.0"/>
    <path d="M 125.0,441.0 L 168.0,447.0 L 355.0,402.0 L 402.0,396.0 L 427.0,401.0"/>
    <path d="M 266.0,452.0 L 250.0,499.0 L 275.0,502.0 L 292.0,498.0 L 302.0,488.0 L 341.0,484.0 L 367.0,491.0 L 378.0,508.0 L 362.0,567.0 L 322.0,626.0 L 303.0,633.0 L 260.0,604.0 L 246.0,601.0"/>
    <path d="M 591.0,177.0 L 618.0,202.0 L 614.0,279.0 L 604.0,286.0"/>
    <path d="M 643.0,242.0 L 651.0,231.0 L 677.0,224.0 L 724.0,225.0"/>
    <path d="M 521.0,316.0 L 530.0,323.0 L 698.0,288.0 L 729.0,288.0 L 753.0,302.0 L 755.0,309.0 L 720.0,360.0"/>
    <path d="M 471.0,301.0 L 487.0,315.0 L 495.0,336.0 L 490.0,409.0 L 461.0,517.0 L 415.0,586.0"/>
    <path d="M 537.0,401.0 L 589.0,395.0 L 656.0,373.0 L 691.0,373.0"/>
    <path d="M 590.0,330.0 L 601.0,341.0 L 604.0,358.0 L 599.0,402.0 L 604.0,421.0 L 628.0,437.0 L 654.0,441.0 L 705.0,433.0 L 730.0,416.0 L 733.0,373.0"/>
    <path d="M 566.0,487.0 L 581.0,505.0 L 581.0,527.0 L 554.0,597.0"/>
    <path d="M 607.0,513.0 L 626.0,498.0 L 666.0,493.0 L 681.0,507.0 L 673.0,554.0 L 684.0,591.0 L 711.0,610.0 L 743.0,614.0 L 779.0,609.0 L 813.0,592.0 L 812.0,517.0"/>
    <path d="M 511.0,581.0 L 480.0,584.0 L 426.0,646.0 L 314.0,740.0 L 190.0,816.0 L 131.0,843.0 L 114.0,843.0 L 110.0,849.0"/>
    <path d="M 517.0,601.0 L 524.0,599.0 L 647.0,686.0 L 770.0,755.0 L 844.0,763.0 L 935.0,759.0"/>
    <path d="M 473.0,666.0 L 507.0,681.0 L 525.0,699.0"/>
    <path d="M 394.0,754.0 L 413.0,763.0 L 532.0,735.0 L 578.0,734.0 L 598.0,763.0 L 567.0,870.0 L 563.0,875.0 L 547.0,869.0"/>
    <path d="M 401.0,838.0 L 410.0,828.0 L 483.0,812.0 L 513.0,815.0"/>
    <path d="M 399.0,908.0 L 406.0,899.0 L 520.0,880.0 L 533.0,871.0"/>
    <path d="M 341.0,752.0 L 352.0,753.0 L 371.0,770.0 L 380.0,809.0 L 363.0,1022.0 L 396.0,1020.0 L 492.0,973.0"/>
    <path d="M 665.0,856.0 L 677.0,885.0 L 627.0,934.0 L 609.0,935.0"/>
    <path d="M 500.0,930.0 L 713.0,1006.0 L 763.0,1034.0 L 790.0,1064.0"/>
  </g>
</svg>
