<svg xmlns="http://www.w3.org/2000/svg" viewBox="0 0 1024 1024">
  <g style="fill:none;stroke:#000000;stroke-width:50;stroke-linecap:round;stroke-linejoin:round;" transform="scale(1, 1) translate(0, 0)">
    <path d="M 281.0,228.0 L 319.0,264.0 L 298.0,338.0 L 258.0,427.0 L 177.0,556.0 L 99.0,644.0 L 54.0,681.0"/>
    <path d="M 276.0,450.0 L 402.0,415.0 L 425.0,414.0 L 451.0,425.0 L 417.0,493.0 L 369.0,561.0"/>
    <path d="M 270.0,568.0 L 292.0,591.0 L 306.0,619.0 L 306.0,730.0 L 289.0,871.0 L 292.0,906.0 L 329.0,899.0 L 453.0,815.0"/>
    <path d="M 830.0,367.0 L 794.0,362.0 L 752.0,365.0 L 670.0,427.0 L 583.0,476.0 L 543.0,490.0 L 534.0,499.0 L 518.0,500.0 L 508.0,509.0"/>
    <path d="M 454.0,672.0 L 509.0,678.0 L 650.0,651.0 L 839.0,625.0 L 881.0,628.0 L 927.0,641.0"/>
    <path d="M 630.0,475.0 L 661.0,493.0 L 667.0,539.0 L 666.0,836.0 L 646.0,860.0"/>
    <path d="M 489.0,900.0 L 544.0,907.0 L 794.0,872.0 L 871.0,888.0"/>
  </g>
</svg>
