<svg xmlns="http://www.w3.org/2000/svg" viewBox="0 0 1024 1024">
  <g style="fill:none;stroke:#000000;stroke-width:50;stroke-linecap:round;stroke-linejoin:round;" transform="scale(1, 1) translate(0, 0)">
    <path d="M 280.0,241.0 L 316.0,275.0 L 295.0,349.0 L 265.0,417.0 L 209.0,516.0 L 171.0,567.0 L 93.0,654.0 L 65.0,670.0 L 62.0,678.0"/>
    <path d="M 269.0,464.0 L 360.0,436.0 L 401.0,441.0 L 397.0,463.0 L 381.0,493.0 L 329.0,574.0"/>
    <path d="M 250.0,590.0 L 265.0,602.0 L 287.0,638.0 L 289.0,765.0 L 276.0,895.0 L 281.0,926.0 L 319.0,915.0 L 441.0,823.0"/>
    <path d="M 551.0,220.0 L 574.0,237.0 L 586.0,256.0 L 574.0,302.0 L 507.0,453.0 L 449.0,535.0"/>
    <path d="M 569.0,389.0 L 683.0,371.0 L 762.0,345.0 L 821.0,343.0"/>
    <path d="M 539.0,507.0 L 576.0,512.0 L 692.0,480.0 L 745.0,477.0"/>
    <path d="M 447.0,633.0 L 475.0,641.0 L 532.0,636.0 L 715.0,580.0 L 740.0,579.0 L 755.0,586.0 L 764.0,596.0 L 739.0,664.0 L 725.0,729.0 L 721.0,787.0 L 726.0,838.0 L 742.0,894.0 L 762.0,928.0 L 788.0,956.0 L 834.0,984.0 L 881.0,998.0 L 915.0,996.0 L 933.0,988.0 L 940.0,839.0"/>
  </g>
</svg>
