<svg xmlns="http://www.w3.org/2000/svg" viewBox="0 0 1024 1024">
  <g style="fill:none;stroke:#000000;stroke-width:50;stroke-linecap:round;stroke-linejoin:round;" transform="scale(1, 1) translate(0, 0)">
    <path d="M 271.0,230.0 L 309.0,262.0 L 289.0,336.0 L 251.0,425.0 L 204.0,507.0 L 155.0,575.0 L 87.0,650.0 L 57.0,673.0"/>
    <path d="M 265.0,454.0 L 324.0,445.0 L 336.0,437.0 L 394.0,425.0 L 432.0,435.0 L 386.0,528.0 L 353.0,574.0"/>
    <path d="M 243.0,562.0 L 265.0,583.0 L 279.0,613.0 L 280.0,719.0 L 269.0,842.0 L 304.0,844.0 L 314.0,859.0 L 268.0,844.0 L 270.0,887.0 L 239.0,935.0 L 240.0,970.0"/>
    <path d="M 477.0,322.0 L 511.0,334.0 L 533.0,332.0 L 663.0,302.0 L 682.0,304.0 L 700.0,319.0 L 656.0,406.0 L 572.0,537.0 L 564.0,566.0 L 606.0,572.0 L 824.0,531.0 L 862.0,535.0 L 892.0,562.0 L 878.0,682.0 L 848.0,800.0 L 811.0,897.0 L 779.0,947.0 L 735.0,988.0 L 627.0,936.0"/>
    <path d="M 553.0,608.0 L 574.0,623.0 L 580.0,638.0 L 563.0,683.0 L 490.0,789.0 L 439.0,834.0"/>
    <path d="M 690.0,577.0 L 724.0,601.0 L 700.0,674.0 L 672.0,735.0 L 635.0,800.0 L 575.0,885.0 L 477.0,979.0"/>
  </g>
</svg>
