<svg xmlns="http://www.w3.org/2000/svg" viewBox="0 0 1024 1024">
  <g style="fill:none;stroke:#000000;stroke-width:50;stroke-linecap:round;stroke-linejoin:round;" transform="scale(1, 1) translate(0, 0)">
    <path d="M 293.0,226.0 L 332.0,259.0 L 312.0,334.0 L 284.0,402.0 L 244.0,479.0 L 190.0,560.0 L 135.0,626.0 L 74.0,681.0"/>
    <path d="M 283.0,460.0 L 366.0,439.0 L 390.0,427.0 L 420.0,427.0 L 443.0,436.0 L 406.0,507.0 L 357.0,573.0"/>
    <path d="M 251.0,594.0 L 280.0,626.0 L 287.0,644.0 L 289.0,764.0 L 275.0,887.0 L 280.0,922.0 L 325.0,909.0 L 434.0,831.0"/>
    <path d="M 799.0,360.0 L 730.0,358.0 L 654.0,418.0 L 576.0,460.0 L 571.0,469.0 L 555.0,471.0 L 549.0,480.0 L 533.0,482.0 L 517.0,493.0 L 509.0,491.0 L 500.0,502.0"/>
    <path d="M 446.0,656.0 L 493.0,662.0 L 813.0,609.0 L 895.0,625.0"/>
    <path d="M 595.0,474.0 L 629.0,491.0 L 637.0,501.0 L 626.0,659.0 L 604.0,748.0 L 570.0,826.0 L 514.0,898.0 L 450.0,951.0 L 405.0,978.0"/>
    <path d="M 654.0,662.0 L 660.0,694.0 L 706.0,775.0 L 778.0,877.0 L 826.0,929.0 L 846.0,945.0 L 974.0,980.0"/>
  </g>
</svg>
