<svg xmlns="http://www.w3.org/2000/svg" viewBox="0 0 1024 1024">
  <g style="fill:none;stroke:#000000;stroke-width:50;stroke-linecap:round;stroke-linejoin:round;" transform="scale(1, 1) translate(0, 0)">
    <path d="M 289.0,231.0 L 312.0,245.0 L 326.0,262.0 L 325.0,271.0 L 308.0,337.0 L 266.0,438.0 L 222.0,522.0 L 184.0,576.0 L 108.0,663.0 L 77.0,689.0"/>
    <path d="M 282.0,459.0 L 391.0,429.0 L 419.0,427.0 L 444.0,437.0 L 394.0,525.0 L 357.0,574.0"/>
    <path d="M 255.0,570.0 L 291.0,617.0 L 291.0,773.0 L 279.0,867.0 L 286.0,902.0 L 324.0,891.0 L 430.0,815.0"/>
    <path d="M 610.0,191.0 L 638.0,214.0 L 649.0,238.0 L 636.0,279.0 L 609.0,342.0 L 556.0,435.0 L 512.0,501.0 L 482.0,533.0"/>
    <path d="M 563.0,472.0 L 588.0,460.0 L 810.0,410.0 L 826.0,415.0 L 842.0,431.0 L 819.0,624.0 L 794.0,702.0 L 766.0,740.0 L 753.0,748.0 L 720.0,736.0 L 676.0,709.0"/>
    <path d="M 527.0,607.0 L 538.0,612.0 L 617.0,583.0 L 635.0,585.0 L 649.0,598.0 L 651.0,614.0 L 634.0,676.0 L 613.0,693.0"/>
    <path d="M 521.0,749.0 L 605.0,720.0 L 653.0,724.0"/>
    <path d="M 479.0,599.0 L 499.0,619.0 L 505.0,638.0 L 497.0,810.0 L 506.0,898.0 L 523.0,936.0 L 574.0,974.0 L 632.0,992.0 L 723.0,998.0 L 812.0,986.0 L 867.0,967.0 L 917.0,926.0 L 924.0,793.0"/>
  </g>
</svg>
