<svg xmlns="http://www.w3.org/2000/svg" viewBox="0 0 1024 1024">
  <g style="fill:none;stroke:#000000;stroke-width:50;stroke-linecap:round;stroke-linejoin:round;" transform="scale(1, 1) translate(0, 0)">
    <path d="M 277.0,226.0 L 317.0,260.0 L 274.0,391.0 L 236.0,466.0 L 166.0,571.0 L 98.0,646.0 L 69.0,669.0"/>
    <path d="M 278.0,453.0 L 293.0,442.0 L 373.0,419.0 L 413.0,420.0 L 428.0,428.0 L 394.0,502.0 L 349.0,573.0"/>
    <path d="M 239.0,575.0 L 268.0,606.0 L 275.0,625.0 L 279.0,703.0 L 268.0,858.0 L 272.0,893.0 L 316.0,879.0 L 405.0,816.0"/>
    <path d="M 614.0,244.0 L 628.0,250.0 L 654.0,277.0 L 600.0,389.0 L 535.0,497.0 L 516.0,514.0"/>
    <path d="M 456.0,519.0 L 493.0,558.0 L 497.0,613.0 L 495.0,747.0 L 480.0,858.0 L 478.0,920.0"/>
    <path d="M 517.0,526.0 L 536.0,533.0 L 651.0,504.0 L 824.0,476.0 L 851.0,480.0 L 877.0,502.0 L 879.0,737.0 L 871.0,844.0 L 857.0,908.0 L 840.0,934.0 L 738.0,894.0 L 721.0,881.0"/>
    <path d="M 561.0,610.0 L 584.0,632.0 L 589.0,645.0 L 613.0,787.0"/>
    <path d="M 609.0,616.0 L 620.0,623.0 L 712.0,604.0 L 729.0,608.0 L 747.0,629.0 L 730.0,690.0 L 709.0,706.0"/>
    <path d="M 630.0,755.0 L 648.0,743.0 L 694.0,733.0 L 738.0,730.0 L 759.0,735.0"/>
  </g>
</svg>
