<svg xmlns="http://www.w3.org/2000/svg" viewBox="0 0 1024 1024">
  <g style="fill:none;stroke:#000000;stroke-width:50;stroke-linecap:round;stroke-linejoin:round;" transform="scale(1, 1) translate(0, 0)">
    <path d="M 286.0,226.0 L 325.0,259.0 L 312.0,316.0 L 270.0,419.0 L 215.0,514.0 L 169.0,577.0 L 100.0,652.0 L 70.0,675.0"/>
    <path d="M 280.0,454.0 L 401.0,419.0 L 439.0,429.0 L 428.0,463.0 L 362.0,575.0"/>
    <path d="M 255.0,569.0 L 280.0,593.0 L 292.0,617.0 L 293.0,727.0 L 278.0,870.0 L 281.0,905.0 L 313.0,898.0 L 423.0,818.0"/>
    <path d="M 615.0,253.0 L 642.0,271.0 L 652.0,286.0 L 621.0,394.0 L 553.0,531.0 L 482.0,623.0 L 439.0,663.0"/>
    <path d="M 668.0,368.0 L 667.0,383.0 L 735.0,466.0 L 836.0,569.0 L 883.0,587.0 L 983.0,603.0"/>
    <path d="M 537.0,646.0 L 596.0,651.0 L 710.0,621.0 L 752.0,624.0"/>
    <path d="M 476.0,771.0 L 503.0,793.0 L 513.0,812.0 L 553.0,1025.0"/>
    <path d="M 530.0,772.0 L 540.0,780.0 L 562.0,781.0 L 728.0,741.0 L 759.0,749.0 L 788.0,778.0 L 755.0,887.0 L 727.0,909.0"/>
    <path d="M 573.0,976.0 L 585.0,962.0 L 715.0,939.0 L 775.0,939.0 L 799.0,947.0"/>
  </g>
</svg>
