<svg xmlns="http://www.w3.org/2000/svg" viewBox="0 0 1024 1024">
  <g style="fill:none;stroke:#000000;stroke-width:50;stroke-linecap:round;stroke-linejoin:round;" transform="scale(1, 1) translate(0, 0)">
    <path d="M 246.0,266.0 L 271.0,284.0 L 284.0,306.0 L 265.0,359.0 L 234.0,427.0 L 172.0,535.0 L 116.0,613.0 L 89.0,638.0"/>
    <path d="M 241.0,471.0 L 344.0,433.0 L 368.0,431.0 L 395.0,441.0 L 360.0,517.0 L 313.0,589.0"/>
    <path d="M 224.0,589.0 L 257.0,630.0 L 258.0,711.0 L 250.0,798.0 L 237.0,862.0 L 240.0,891.0 L 275.0,885.0 L 384.0,816.0"/>
    <path d="M 495.0,439.0 L 569.0,424.0 L 717.0,350.0 L 758.0,341.0"/>
    <path d="M 519.0,217.0 L 540.0,229.0 L 560.0,251.0 L 586.0,355.0 L 623.0,426.0 L 663.0,482.0 L 724.0,546.0 L 796.0,592.0 L 829.0,597.0 L 852.0,534.0 L 856.0,500.0 L 863.0,490.0 L 861.0,474.0"/>
    <path d="M 773.0,396.0 L 782.0,418.0 L 783.0,441.0 L 721.0,493.0 L 608.0,565.0 L 510.0,607.0"/>
    <path d="M 446.0,713.0 L 499.0,717.0 L 671.0,668.0 L 723.0,659.0 L 764.0,662.0"/>
    <path d="M 519.0,743.0 L 542.0,760.0 L 521.0,830.0 L 499.0,874.0 L 436.0,954.0 L 367.0,1005.0"/>
    <path d="M 620.0,707.0 L 652.0,731.0 L 662.0,750.0 L 651.0,836.0 L 653.0,924.0 L 670.0,962.0 L 696.0,977.0 L 779.0,988.0 L 818.0,987.0 L 879.0,979.0 L 916.0,963.0 L 922.0,930.0 L 920.0,809.0"/>
  </g>
</svg>
