<svg xmlns="http://www.w3.org/2000/svg" viewBox="0 0 1024 1024">
  <g style="fill:none;stroke:#000000;stroke-width:50;stroke-linecap:round;stroke-linejoin:round;" transform="scale(1, 1) translate(0, 0)">
    <path d="M 273.0,231.0 L 290.0,239.0 L 313.0,264.0 L 271.0,400.0 L 193.0,547.0 L 123.0,635.0 L 65.0,689.0"/>
    <path d="M 271.0,460.0 L 375.0,428.0 L 425.0,433.0 L 427.0,440.0 L 411.0,473.0 L 345.0,573.0"/>
    <path d="M 243.0,570.0 L 279.0,617.0 L 281.0,728.0 L 268.0,866.0 L 272.0,901.0 L 303.0,894.0 L 414.0,815.0"/>
    <path d="M 545.0,371.0 L 573.0,376.0 L 617.0,373.0 L 762.0,337.0 L 812.0,336.0"/>
    <path d="M 645.0,201.0 L 685.0,240.0 L 668.0,451.0 L 651.0,474.0"/>
    <path d="M 491.0,475.0 L 500.0,497.0 L 501.0,520.0 L 473.0,597.0 L 471.0,626.0"/>
    <path d="M 536.0,522.0 L 680.0,487.0 L 789.0,467.0 L 827.0,466.0 L 860.0,482.0 L 869.0,499.0 L 805.0,562.0"/>
    <path d="M 543.0,616.0 L 580.0,626.0 L 670.0,596.0 L 679.0,588.0 L 714.0,585.0 L 732.0,590.0 L 751.0,609.0 L 746.0,620.0 L 687.0,696.0 L 677.0,696.0"/>
    <path d="M 639.0,706.0 L 653.0,709.0 L 679.0,730.0 L 702.0,784.0 L 710.0,871.0 L 703.0,941.0 L 684.0,989.0 L 654.0,1013.0 L 572.0,959.0"/>
    <path d="M 462.0,788.0 L 516.0,795.0 L 840.0,749.0 L 903.0,754.0 L 935.0,764.0"/>
  </g>
</svg>
