<svg xmlns="http://www.w3.org/2000/svg" viewBox="0 0 1024 1024">
  <g style="fill:none;stroke:#000000;stroke-width:50;stroke-linecap:round;stroke-linejoin:round;" transform="scale(1, 1) translate(0, 0)">
    <path d="M 286.0,226.0 L 325.0,259.0 L 312.0,316.0 L 270.0,419.0 L 215.0,514.0 L 169.0,577.0 L 100.0,652.0 L 70.0,675.0"/>
    <path d="M 280.0,454.0 L 401.0,419.0 L 439.0,429.0 L 428.0,463.0 L 362.0,575.0"/>
    <path d="M 255.0,569.0 L 280.0,593.0 L 292.0,617.0 L 293.0,727.0 L 278.0,870.0 L 281.0,905.0 L 313.0,898.0 L 423.0,818.0"/>
    <path d="M 670.0,193.0 L 700.0,235.0 L 665.0,301.0 L 602.0,381.0 L 586.0,424.0 L 608.0,428.0 L 637.0,423.0 L 784.0,374.0 L 795.0,383.0"/>
    <path d="M 767.0,315.0 L 857.0,388.0 L 871.0,421.0"/>
    <path d="M 643.0,518.0 L 597.0,529.0 L 536.0,595.0 L 499.0,616.0"/>
    <path d="M 732.0,482.0 L 810.0,518.0 L 838.0,553.0"/>
    <path d="M 609.0,600.0 L 628.0,634.0 L 600.0,716.0 L 568.0,780.0 L 502.0,864.0 L 457.0,903.0 L 388.0,948.0"/>
    <path d="M 644.0,694.0 L 666.0,679.0 L 729.0,659.0 L 760.0,662.0 L 784.0,672.0 L 733.0,814.0 L 710.0,858.0 L 672.0,906.0 L 626.0,945.0 L 590.0,966.0 L 539.0,986.0 L 477.0,999.0"/>
    <path d="M 623.0,740.0 L 628.0,756.0 L 658.0,788.0 L 837.0,955.0 L 889.0,969.0 L 986.0,979.0"/>
  </g>
</svg>
