<svg xmlns="http://www.w3.org/2000/svg" viewBox="0 0 1024 1024">
  <g style="fill:none;stroke:#000000;stroke-width:50;stroke-linecap:round;stroke-linejoin:round;" transform="scale(1, 1) translate(0, 0)">
    <path d="M 280.0,241.0 L 314.0,271.0 L 315.0,282.0 L 281.0,383.0 L 250.0,446.0 L 158.0,584.0 L 99.0,648.0 L 73.0,672.0 L 61.0,674.0 L 58.0,682.0"/>
    <path d="M 257.0,487.0 L 356.0,458.0 L 391.0,465.0 L 395.0,470.0 L 371.0,522.0 L 338.0,571.0"/>
    <path d="M 255.0,586.0 L 276.0,607.0 L 290.0,636.0 L 290.0,755.0 L 277.0,874.0 L 277.0,893.0 L 285.0,908.0 L 323.0,892.0 L 409.0,824.0"/>
    <path d="M 497.0,315.0 L 506.0,319.0 L 568.0,299.0 L 598.0,299.0 L 611.0,314.0 L 610.0,324.0 L 597.0,366.0 L 581.0,378.0"/>
    <path d="M 496.0,427.0 L 526.0,412.0 L 572.0,402.0 L 624.0,404.0"/>
    <path d="M 455.0,307.0 L 477.0,340.0 L 473.0,436.0 L 477.0,473.0 L 493.0,512.0 L 536.0,524.0 L 603.0,514.0 L 631.0,493.0 L 637.0,430.0"/>
    <path d="M 714.0,299.0 L 723.0,289.0 L 793.0,267.0 L 815.0,272.0 L 828.0,288.0 L 825.0,300.0 L 812.0,341.0 L 796.0,347.0"/>
    <path d="M 712.0,396.0 L 722.0,388.0 L 785.0,375.0 L 840.0,380.0"/>
    <path d="M 675.0,272.0 L 693.0,301.0 L 690.0,373.0 L 697.0,449.0 L 704.0,472.0 L 718.0,491.0 L 748.0,502.0 L 787.0,505.0 L 863.0,483.0 L 876.0,470.0 L 876.0,415.0 L 881.0,402.0"/>
    <path d="M 473.0,661.0 L 549.0,666.0 L 781.0,617.0 L 819.0,619.0"/>
    <path d="M 528.0,576.0 L 551.0,598.0 L 562.0,619.0 L 567.0,743.0 L 556.0,760.0"/>
    <path d="M 695.0,541.0 L 725.0,575.0 L 705.0,720.0 L 687.0,744.0"/>
    <path d="M 424.0,792.0 L 477.0,799.0 L 624.0,775.0 L 855.0,750.0 L 925.0,766.0"/>
    <path d="M 589.0,874.0 L 555.0,882.0 L 532.0,917.0 L 482.0,969.0 L 399.0,1026.0"/>
    <path d="M 710.0,841.0 L 816.0,939.0 L 840.0,1001.0"/>
  </g>
</svg>
