<svg xmlns="http://www.w3.org/2000/svg" viewBox="0 0 1024 1024">
  <g style="fill:none;stroke:#000000;stroke-width:50;stroke-linecap:round;stroke-linejoin:round;" transform="scale(1, 1) translate(0, 0)">
    <path d="M 231.0,251.0 L 270.0,291.0 L 241.0,372.0 L 184.0,495.0 L 142.0,568.0 L 91.0,644.0 L 53.0,686.0"/>
    <path d="M 223.0,470.0 L 315.0,441.0 L 340.0,442.0 L 352.0,449.0 L 307.0,539.0 L 277.0,582.0"/>
    <path d="M 193.0,586.0 L 226.0,625.0 L 227.0,720.0 L 212.0,843.0 L 216.0,875.0 L 255.0,861.0 L 342.0,795.0"/>
    <path d="M 497.0,247.0 L 566.0,251.0 L 687.0,224.0 L 745.0,222.0"/>
    <path d="M 460.0,308.0 L 488.0,334.0 L 508.0,400.0"/>
    <path d="M 501.0,309.0 L 513.0,316.0 L 728.0,276.0 L 742.0,283.0 L 754.0,300.0 L 738.0,321.0 L 724.0,327.0"/>
    <path d="M 522.0,392.0 L 537.0,384.0 L 699.0,353.0 L 749.0,350.0 L 769.0,355.0"/>
    <path d="M 583.0,163.0 L 606.0,179.0 L 617.0,203.0 L 618.0,385.0 L 608.0,406.0"/>
    <path d="M 426.0,417.0 L 433.0,456.0 L 402.0,525.0 L 397.0,552.0"/>
    <path d="M 459.0,442.0 L 470.0,450.0 L 495.0,448.0 L 644.0,416.0 L 719.0,408.0 L 726.0,402.0 L 741.0,405.0 L 751.0,398.0 L 763.0,402.0 L 773.0,396.0 L 810.0,396.0 L 834.0,406.0 L 849.0,424.0 L 800.0,492.0"/>
    <path d="M 448.0,509.0 L 468.0,529.0 L 486.0,604.0"/>
    <path d="M 484.0,508.0 L 492.0,514.0 L 552.0,491.0 L 567.0,493.0 L 579.0,505.0 L 569.0,544.0 L 558.0,550.0"/>
    <path d="M 497.0,593.0 L 546.0,574.0 L 584.0,571.0"/>
    <path d="M 616.0,477.0 L 637.0,498.0 L 649.0,560.0 L 655.0,566.0"/>
    <path d="M 651.0,476.0 L 661.0,480.0 L 719.0,462.0 L 736.0,466.0 L 747.0,479.0 L 735.0,517.0 L 719.0,525.0"/>
    <path d="M 666.0,566.0 L 671.0,559.0 L 719.0,548.0 L 757.0,548.0"/>
    <path d="M 453.0,649.0 L 520.0,651.0 L 714.0,608.0 L 744.0,608.0"/>
    <path d="M 471.0,714.0 L 543.0,710.0 L 710.0,676.0 L 745.0,681.0"/>
    <path d="M 517.0,601.0 L 531.0,606.0 L 547.0,624.0 L 555.0,736.0 L 547.0,753.0"/>
    <path d="M 646.0,577.0 L 671.0,602.0 L 662.0,714.0 L 650.0,736.0"/>
    <path d="M 413.0,793.0 L 444.0,794.0 L 608.0,760.0 L 775.0,736.0 L 810.0,736.0 L 851.0,745.0"/>
    <path d="M 565.0,811.0 L 551.0,807.0 L 533.0,817.0 L 479.0,876.0 L 431.0,915.0 L 363.0,959.0 L 312.0,981.0"/>
    <path d="M 525.0,870.0 L 525.0,981.0 L 532.0,1013.0 L 555.0,1007.0 L 620.0,965.0 L 624.0,954.0 L 635.0,954.0 L 643.0,946.0"/>
    <path d="M 746.0,766.0 L 760.0,796.0 L 689.0,859.0"/>
    <path d="M 576.0,802.0 L 621.0,830.0 L 746.0,944.0 L 809.0,979.0 L 860.0,989.0 L 963.0,995.0"/>
  </g>
</svg>
