<svg xmlns="http://www.w3.org/2000/svg" viewBox="0 0 1024 1024">
  <g style="fill:none;stroke:#000000;stroke-width:50;stroke-linecap:round;stroke-linejoin:round;" transform="scale(1, 1) translate(0, 0)">
    <path d="M 364.0,234.0 L 437.0,299.0 L 448.0,322.0"/>
    <path d="M 633.0,182.0 L 656.0,204.0 L 662.0,222.0 L 590.0,322.0 L 517.0,402.0"/>
    <path d="M 136.0,459.0 L 188.0,468.0 L 431.0,432.0 L 822.0,393.0 L 863.0,395.0 L 923.0,412.0"/>
    <path d="M 457.0,452.0 L 479.0,480.0 L 426.0,571.0 L 404.0,588.0"/>
    <path d="M 333.0,586.0 L 358.0,608.0 L 369.0,628.0 L 373.0,663.0 L 371.0,813.0 L 354.0,948.0 L 355.0,1004.0"/>
    <path d="M 382.0,597.0 L 408.0,607.0 L 424.0,605.0 L 638.0,564.0 L 664.0,579.0 L 683.0,601.0 L 683.0,933.0 L 670.0,970.0 L 607.0,956.0"/>
    <path d="M 400.0,727.0 L 435.0,714.0 L 510.0,702.0 L 548.0,699.0 L 574.0,705.0"/>
    <path d="M 397.0,841.0 L 409.0,831.0 L 505.0,817.0 L 560.0,814.0 L 582.0,821.0"/>
    <path d="M 386.0,963.0 L 401.0,954.0 L 471.0,943.0 L 619.0,932.0"/>
  </g>
</svg>
