<svg xmlns="http://www.w3.org/2000/svg" viewBox="0 0 1024 1024">
  <g style="fill:none;stroke:#000000;stroke-width:50;stroke-linecap:round;stroke-linejoin:round;" transform="scale(1, 1) translate(0, 0)">
    <path d="M 283.0,208.0 L 302.0,223.0 L 321.0,259.0 L 281.0,386.0 L 236.0,478.0 L 176.0,579.0 L 113.0,666.0 L 70.0,707.0"/>
    <path d="M 282.0,448.0 L 392.0,421.0 L 424.0,432.0 L 379.0,527.0 L 349.0,573.0"/>
    <path d="M 255.0,570.0 L 291.0,617.0 L 291.0,773.0 L 279.0,867.0 L 286.0,902.0 L 324.0,891.0 L 430.0,815.0"/>
    <path d="M 505.0,271.0 L 534.0,302.0 L 572.0,487.0"/>
    <path d="M 569.0,292.0 L 571.0,283.0 L 714.0,244.0 L 753.0,244.0 L 769.0,251.0 L 785.0,272.0 L 761.0,376.0 L 739.0,441.0 L 742.0,455.0"/>
    <path d="M 574.0,385.0 L 584.0,374.0 L 621.0,365.0 L 667.0,356.0 L 693.0,360.0"/>
    <path d="M 589.0,463.0 L 634.0,446.0 L 699.0,434.0 L 710.0,426.0"/>
    <path d="M 455.0,564.0 L 475.0,579.0 L 488.0,608.0 L 512.0,711.0"/>
    <path d="M 495.0,565.0 L 520.0,573.0 L 642.0,540.0 L 732.0,523.0 L 792.0,513.0 L 822.0,516.0 L 836.0,522.0 L 851.0,544.0 L 816.0,649.0 L 819.0,667.0"/>
    <path d="M 579.0,580.0 L 591.0,589.0 L 603.0,632.0 L 614.0,645.0"/>
    <path d="M 727.0,553.0 L 706.0,563.0 L 695.0,617.0 L 684.0,623.0"/>
    <path d="M 528.0,677.0 L 535.0,682.0 L 575.0,676.0 L 785.0,634.0"/>
    <path d="M 532.0,762.0 L 607.0,758.0 L 694.0,730.0 L 722.0,733.0 L 740.0,744.0 L 718.0,807.0 L 686.0,870.0 L 625.0,940.0 L 546.0,987.0 L 474.0,1010.0 L 423.0,1016.0"/>
    <path d="M 515.0,812.0 L 545.0,819.0 L 566.0,832.0 L 702.0,951.0 L 814.0,1021.0 L 861.0,1030.0 L 994.0,1034.0"/>
  </g>
</svg>
