<svg xmlns="http://www.w3.org/2000/svg" viewBox="0 0 1024 1024">
  <g style="fill:none;stroke:#000000;stroke-width:50;stroke-linecap:round;stroke-linejoin:round;" transform="scale(1, 1) translate(0, 0)">
    <path d="M 234.0,316.0 L 287.0,320.0 L 423.0,279.0 L 469.0,279.0"/>
    <path d="M 173.0,299.0 L 189.0,310.0 L 205.0,338.0 L 200.0,612.0 L 190.0,687.0 L 202.0,707.0"/>
    <path d="M 275.0,452.0 L 410.0,411.0 L 442.0,414.0"/>
    <path d="M 267.0,560.0 L 402.0,519.0 L 434.0,522.0"/>
    <path d="M 322.0,338.0 L 351.0,361.0 L 345.0,612.0 L 330.0,635.0"/>
    <path d="M 223.0,655.0 L 222.0,669.0 L 236.0,682.0 L 334.0,655.0 L 438.0,636.0 L 472.0,664.0 L 440.0,860.0 L 411.0,954.0 L 379.0,982.0 L 295.0,933.0"/>
    <path d="M 95.0,773.0 L 98.0,827.0 L 87.0,916.0"/>
    <path d="M 180.0,777.0 L 196.0,822.0 L 199.0,859.0"/>
    <path d="M 245.0,759.0 L 279.0,802.0 L 286.0,820.0"/>
    <path d="M 318.0,730.0 L 360.0,785.0 L 363.0,807.0"/>
    <path d="M 535.0,476.0 L 565.0,483.0 L 599.0,479.0 L 729.0,442.0 L 756.0,446.0 L 773.0,457.0 L 736.0,598.0 L 677.0,718.0 L 640.0,764.0 L 592.0,804.0 L 496.0,859.0"/>
    <path d="M 518.0,548.0 L 544.0,561.0 L 567.0,583.0 L 693.0,761.0 L 787.0,852.0 L 825.0,875.0 L 970.0,906.0"/>
  </g>
</svg>
