<svg xmlns="http://www.w3.org/2000/svg" viewBox="0 0 1024 1024">
  <g style="fill:none;stroke:#000000;stroke-width:50;stroke-linecap:round;stroke-linejoin:round;" transform="scale(1, 1) translate(0, 0)">
    <path d="M 238.0,285.0 L 257.0,292.0 L 301.0,288.0 L 445.0,254.0 L 475.0,257.0"/>
    <path d="M 181.0,267.0 L 205.0,288.0 L 213.0,307.0 L 207.0,596.0 L 198.0,647.0 L 211.0,668.0"/>
    <path d="M 279.0,410.0 L 320.0,412.0 L 413.0,384.0 L 449.0,383.0"/>
    <path d="M 274.0,512.0 L 329.0,513.0 L 389.0,493.0 L 452.0,485.0"/>
    <path d="M 326.0,311.0 L 354.0,332.0 L 346.0,579.0 L 330.0,599.0"/>
    <path d="M 230.0,664.0 L 245.0,642.0 L 419.0,608.0 L 441.0,616.0 L 464.0,641.0 L 446.0,718.0 L 430.0,830.0 L 401.0,921.0 L 376.0,942.0 L 306.0,905.0"/>
    <path d="M 91.0,750.0 L 95.0,819.0 L 87.0,890.0"/>
    <path d="M 168.0,733.0 L 195.0,802.0 L 195.0,844.0"/>
    <path d="M 245.0,721.0 L 277.0,780.0 L 278.0,806.0"/>
    <path d="M 315.0,694.0 L 356.0,751.0 L 361.0,779.0"/>
    <path d="M 738.0,231.0 L 768.0,268.0 L 735.0,337.0 L 651.0,456.0 L 582.0,520.0 L 546.0,540.0 L 543.0,547.0"/>
    <path d="M 568.0,335.0 L 673.0,377.0 L 768.0,424.0 L 801.0,449.0 L 819.0,475.0"/>
    <path d="M 706.0,536.0 L 741.0,572.0 L 741.0,582.0 L 729.0,656.0 L 695.0,735.0 L 663.0,776.0 L 606.0,817.0 L 552.0,842.0 L 500.0,855.0"/>
    <path d="M 539.0,607.0 L 567.0,621.0 L 593.0,644.0 L 698.0,771.0 L 814.0,871.0 L 833.0,881.0 L 978.0,899.0"/>
  </g>
</svg>
