<svg xmlns="http://www.w3.org/2000/svg" viewBox="0 0 1024 1024">
  <g style="fill:none;stroke:#000000;stroke-width:50;stroke-linecap:round;stroke-linejoin:round;" transform="scale(1, 1) translate(0, 0)">
    <path d="M 223.0,296.0 L 238.0,304.0 L 287.0,300.0 L 414.0,270.0 L 464.0,268.0"/>
    <path d="M 161.0,275.0 L 183.0,294.0 L 194.0,317.0 L 191.0,590.0 L 182.0,671.0 L 195.0,688.0"/>
    <path d="M 258.0,433.0 L 305.0,434.0 L 400.0,401.0 L 429.0,400.0"/>
    <path d="M 262.0,534.0 L 306.0,535.0 L 394.0,504.0 L 440.0,499.0"/>
    <path d="M 308.0,322.0 L 338.0,345.0 L 340.0,371.0 L 337.0,601.0 L 321.0,624.0"/>
    <path d="M 213.0,685.0 L 227.0,664.0 L 418.0,630.0 L 444.0,638.0 L 464.0,659.0 L 435.0,875.0 L 414.0,938.0 L 387.0,961.0 L 299.0,907.0"/>
    <path d="M 87.0,753.0 L 89.0,805.0 L 76.0,883.0"/>
    <path d="M 165.0,749.0 L 182.0,791.0 L 187.0,827.0"/>
    <path d="M 243.0,745.0 L 261.0,803.0"/>
    <path d="M 318.0,719.0 L 353.0,777.0"/>
    <path d="M 637.0,210.0 L 669.0,241.0 L 675.0,253.0 L 669.0,272.0 L 637.0,346.0 L 581.0,448.0 L 555.0,491.0 L 494.0,562.0"/>
    <path d="M 585.0,486.0 L 596.0,479.0 L 807.0,444.0 L 845.0,453.0 L 872.0,481.0 L 848.0,771.0 L 832.0,857.0 L 808.0,922.0 L 781.0,964.0 L 755.0,985.0 L 668.0,937.0"/>
    <path d="M 513.0,606.0 L 541.0,638.0 L 569.0,791.0"/>
    <path d="M 568.0,630.0 L 583.0,618.0 L 653.0,602.0 L 684.0,605.0 L 703.0,627.0 L 702.0,637.0 L 685.0,697.0 L 662.0,712.0"/>
    <path d="M 585.0,759.0 L 603.0,748.0 L 659.0,737.0 L 711.0,742.0"/>
  </g>
</svg>
