<svg xmlns="http://www.w3.org/2000/svg" viewBox="0 0 1024 1024">
  <g style="fill:none;stroke:#000000;stroke-width:50;stroke-linecap:round;stroke-linejoin:round;" transform="scale(1, 1) translate(0, 0)">
    <path d="M 247.0,302.0 L 260.0,309.0 L 288.0,308.0 L 364.0,293.0 L 420.0,273.0 L 472.0,272.0"/>
    <path d="M 186.0,283.0 L 202.0,296.0 L 216.0,320.0 L 212.0,571.0 L 203.0,671.0 L 216.0,687.0"/>
    <path d="M 275.0,448.0 L 386.0,417.0 L 437.0,417.0"/>
    <path d="M 271.0,549.0 L 398.0,515.0 L 420.0,512.0 L 441.0,517.0"/>
    <path d="M 325.0,322.0 L 352.0,344.0 L 350.0,602.0 L 336.0,625.0"/>
    <path d="M 228.0,687.0 L 246.0,665.0 L 409.0,629.0 L 445.0,635.0 L 465.0,659.0 L 431.0,821.0 L 393.0,943.0 L 361.0,967.0 L 286.0,921.0"/>
    <path d="M 83.0,746.0 L 85.0,816.0 L 72.0,898.0"/>
    <path d="M 162.0,758.0 L 184.0,815.0 L 187.0,843.0"/>
    <path d="M 238.0,746.0 L 262.0,784.0 L 273.0,817.0"/>
    <path d="M 306.0,717.0 L 343.0,756.0 L 353.0,786.0"/>
    <path d="M 496.0,367.0 L 516.0,384.0 L 532.0,422.0 L 568.0,606.0"/>
    <path d="M 534.0,369.0 L 557.0,377.0 L 772.0,334.0 L 807.0,336.0 L 826.0,345.0 L 846.0,377.0 L 784.0,569.0"/>
    <path d="M 604.0,477.0 L 711.0,453.0 L 748.0,455.0"/>
    <path d="M 631.0,175.0 L 663.0,198.0 L 674.0,219.0 L 666.0,527.0 L 650.0,553.0"/>
    <path d="M 586.0,596.0 L 595.0,587.0 L 703.0,562.0 L 747.0,558.0 L 757.0,566.0"/>
    <path d="M 525.0,680.0 L 583.0,678.0 L 700.0,652.0 L 874.0,627.0 L 947.0,638.0"/>
    <path d="M 608.0,698.0 L 629.0,714.0 L 601.0,770.0 L 603.0,791.0 L 641.0,795.0 L 702.0,774.0 L 741.0,768.0 L 774.0,774.0 L 803.0,798.0 L 784.0,906.0 L 752.0,985.0 L 721.0,1031.0 L 689.0,1053.0 L 595.0,1000.0"/>
  </g>
</svg>
