<svg xmlns="http://www.w3.org/2000/svg" viewBox="0 0 1024 1024">
  <g style="fill:none;stroke:#000000;stroke-width:50;stroke-linecap:round;stroke-linejoin:round;" transform="scale(1, 1) translate(0, 0)">
    <path d="M 220.0,316.0 L 236.0,322.0 L 276.0,320.0 L 379.0,292.0 L 427.0,291.0"/>
    <path d="M 166.0,303.0 L 183.0,316.0 L 196.0,338.0 L 187.0,521.0 L 189.0,600.0 L 179.0,676.0 L 192.0,687.0"/>
    <path d="M 249.0,449.0 L 284.0,450.0 L 373.0,416.0 L 408.0,413.0"/>
    <path d="M 250.0,549.0 L 295.0,550.0 L 338.0,541.0 L 370.0,527.0 L 412.0,525.0"/>
    <path d="M 289.0,341.0 L 310.0,354.0 L 316.0,391.0 L 310.0,609.0 L 306.0,623.0 L 295.0,632.0"/>
    <path d="M 204.0,688.0 L 220.0,671.0 L 235.0,665.0 L 360.0,639.0 L 382.0,638.0 L 394.0,644.0 L 414.0,666.0 L 404.0,704.0 L 380.0,889.0 L 363.0,936.0 L 336.0,960.0 L 262.0,921.0"/>
    <path d="M 106.0,750.0 L 99.0,821.0 L 74.0,905.0"/>
    <path d="M 162.0,766.0 L 189.0,828.0 L 188.0,853.0"/>
    <path d="M 231.0,746.0 L 261.0,794.0 L 264.0,809.0"/>
    <path d="M 291.0,730.0 L 330.0,778.0 L 333.0,795.0"/>
    <path d="M 633.0,183.0 L 714.0,226.0 L 744.0,261.0"/>
    <path d="M 582.0,408.0 L 593.0,398.0 L 635.0,385.0 L 748.0,353.0 L 767.0,354.0 L 799.0,381.0 L 776.0,447.0 L 755.0,461.0"/>
    <path d="M 567.0,542.0 L 582.0,528.0 L 738.0,489.0 L 782.0,487.0 L 803.0,492.0"/>
    <path d="M 521.0,378.0 L 541.0,396.0 L 552.0,417.0 L 551.0,485.0 L 527.0,636.0 L 504.0,713.0 L 478.0,772.0 L 433.0,846.0 L 407.0,877.0"/>
    <path d="M 533.0,692.0 L 538.0,718.0 L 532.0,743.0 L 524.0,907.0 L 530.0,942.0"/>
    <path d="M 541.0,687.0 L 561.0,697.0 L 807.0,647.0 L 847.0,644.0 L 877.0,651.0 L 891.0,665.0 L 893.0,711.0 L 888.0,835.0 L 874.0,908.0 L 860.0,924.0 L 787.0,895.0"/>
    <path d="M 586.0,800.0 L 620.0,798.0 L 783.0,756.0 L 821.0,759.0"/>
    <path d="M 612.0,707.0 L 631.0,719.0 L 634.0,888.0"/>
    <path d="M 712.0,681.0 L 738.0,704.0 L 727.0,940.0"/>
  </g>
</svg>
