<svg xmlns="http://www.w3.org/2000/svg" viewBox="0 0 1024 1024">
  <g style="fill:none;stroke:#000000;stroke-width:50;stroke-linecap:round;stroke-linejoin:round;" transform="scale(1, 1) translate(0, 0)">
    <path d="M 271.0,288.0 L 340.0,256.0 L 372.0,252.0 L 386.0,261.0 L 354.0,327.0 L 348.0,357.0 L 388.0,417.0 L 388.0,457.0 L 367.0,459.0 L 306.0,441.0"/>
    <path d="M 209.0,254.0 L 235.0,280.0 L 242.0,323.0 L 245.0,437.0 L 232.0,551.0 L 236.0,602.0"/>
    <path d="M 597.0,179.0 L 627.0,211.0 L 626.0,307.0 L 622.0,318.0 L 612.0,323.0"/>
    <path d="M 654.0,259.0 L 739.0,237.0 L 781.0,235.0"/>
    <path d="M 480.0,254.0 L 508.0,278.0 L 519.0,328.0 L 529.0,334.0"/>
    <path d="M 445.0,369.0 L 467.0,373.0 L 759.0,329.0 L 832.0,341.0"/>
    <path d="M 612.0,369.0 L 630.0,384.0 L 627.0,448.0 L 602.0,451.0 L 591.0,462.0 L 609.0,481.0 L 615.0,479.0 L 626.0,463.0 L 627.0,450.0"/>
    <path d="M 499.0,416.0 L 485.0,458.0 L 452.0,519.0"/>
    <path d="M 772.0,415.0 L 748.0,416.0 L 672.0,490.0 L 612.0,530.0 L 528.0,570.0"/>
    <path d="M 389.0,613.0 L 406.0,620.0 L 457.0,619.0 L 667.0,585.0 L 703.0,586.0"/>
    <path d="M 330.0,598.0 L 360.0,629.0 L 353.0,815.0 L 335.0,863.0 L 347.0,885.0"/>
    <path d="M 417.0,698.0 L 496.0,701.0 L 610.0,677.0 L 664.0,674.0"/>
    <path d="M 421.0,765.0 L 500.0,771.0 L 640.0,746.0 L 674.0,747.0"/>
    <path d="M 508.0,632.0 L 532.0,654.0 L 535.0,677.0 L 533.0,796.0 L 518.0,815.0"/>
    <path d="M 364.0,888.0 L 391.0,860.0 L 479.0,842.0 L 711.0,817.0 L 752.0,817.0 L 777.0,826.0 L 800.0,851.0 L 769.0,990.0 L 762.0,1014.0 L 746.0,1037.0 L 726.0,1051.0 L 716.0,1051.0 L 638.0,1002.0"/>
    <path d="M 229.0,904.0 L 222.0,964.0 L 194.0,1058.0"/>
    <path d="M 338.0,938.0 L 372.0,992.0 L 376.0,1015.0"/>
    <path d="M 458.0,919.0 L 494.0,966.0 L 503.0,990.0"/>
    <path d="M 568.0,887.0 L 627.0,938.0 L 639.0,970.0"/>
  </g>
</svg>
