<svg xmlns="http://www.w3.org/2000/svg" viewBox="0 0 1024 1024">
  <g style="fill:none;stroke:#000000;stroke-width:50;stroke-linecap:round;stroke-linejoin:round;" transform="scale(1, 1) translate(0, 0)">
    <path d="M 216.0,283.0 L 227.0,291.0 L 260.0,289.0 L 387.0,256.0 L 433.0,254.0"/>
    <path d="M 151.0,258.0 L 174.0,278.0 L 185.0,301.0 L 163.0,654.0 L 165.0,677.0 L 177.0,685.0"/>
    <path d="M 239.0,416.0 L 289.0,419.0 L 366.0,399.0 L 395.0,402.0"/>
    <path d="M 227.0,524.0 L 274.0,528.0 L 351.0,509.0 L 387.0,509.0"/>
    <path d="M 277.0,308.0 L 300.0,322.0 L 308.0,349.0 L 302.0,601.0 L 298.0,615.0 L 287.0,625.0"/>
    <path d="M 192.0,642.0 L 195.0,657.0 L 211.0,665.0 L 353.0,635.0 L 385.0,638.0 L 415.0,660.0 L 387.0,851.0 L 363.0,930.0 L 335.0,955.0 L 248.0,901.0"/>
    <path d="M 84.0,731.0 L 84.0,774.0 L 61.0,882.0"/>
    <path d="M 147.0,753.0 L 160.0,825.0 L 156.0,845.0"/>
    <path d="M 218.0,737.0 L 234.0,778.0 L 239.0,815.0"/>
    <path d="M 287.0,707.0 L 306.0,739.0 L 318.0,783.0"/>
    <path d="M 540.0,274.0 L 560.0,281.0 L 592.0,280.0 L 718.0,247.0 L 746.0,254.0 L 759.0,269.0 L 707.0,390.0 L 643.0,472.0 L 557.0,530.0 L 512.0,552.0 L 429.0,580.0"/>
    <path d="M 512.0,353.0 L 552.0,365.0 L 710.0,498.0 L 833.0,568.0 L 983.0,566.0"/>
    <path d="M 609.0,325.0 L 639.0,343.0 L 657.0,363.0"/>
    <path d="M 483.0,684.0 L 508.0,704.0 L 544.0,836.0"/>
    <path d="M 536.0,691.0 L 546.0,697.0 L 559.0,695.0 L 674.0,672.0 L 716.0,657.0 L 766.0,652.0 L 786.0,671.0 L 791.0,685.0 L 767.0,738.0 L 745.0,747.0"/>
    <path d="M 560.0,811.0 L 566.0,803.0 L 735.0,776.0 L 788.0,782.0"/>
    <path d="M 601.0,571.0 L 632.0,592.0 L 642.0,612.0 L 638.0,884.0 L 623.0,907.0"/>
    <path d="M 461.0,950.0 L 510.0,969.0 L 739.0,901.0 L 763.0,901.0"/>
    <path d="M 748.0,839.0 L 827.0,950.0 L 843.0,986.0 L 847.0,1024.0"/>
  </g>
</svg>
