<svg xmlns="http://www.w3.org/2000/svg" viewBox="0 0 1024 1024">
  <g style="fill:none;stroke:#000000;stroke-width:50;stroke-linecap:round;stroke-linejoin:round;" transform="scale(1, 1) translate(0, 0)">
    <path d="M 221.0,302.0 L 233.0,310.0 L 249.0,309.0 L 373.0,279.0 L 432.0,275.0"/>
    <path d="M 157.0,282.0 L 173.0,294.0 L 189.0,324.0 L 180.0,596.0 L 169.0,674.0 L 180.0,691.0"/>
    <path d="M 231.0,434.0 L 286.0,436.0 L 353.0,416.0 L 397.0,414.0"/>
    <path d="M 227.0,530.0 L 295.0,532.0 L 361.0,514.0 L 401.0,514.0"/>
    <path d="M 293.0,326.0 L 319.0,346.0 L 314.0,606.0 L 298.0,629.0"/>
    <path d="M 194.0,694.0 L 214.0,668.0 L 388.0,635.0 L 410.0,641.0 L 430.0,662.0 L 406.0,833.0 L 393.0,893.0 L 377.0,931.0 L 353.0,950.0 L 266.0,900.0"/>
    <path d="M 99.0,768.0 L 99.0,819.0 L 80.0,912.0"/>
    <path d="M 156.0,779.0 L 186.0,862.0"/>
    <path d="M 224.0,758.0 L 257.0,808.0 L 259.0,823.0"/>
    <path d="M 295.0,719.0 L 324.0,753.0 L 340.0,785.0"/>
    <path d="M 541.0,259.0 L 576.0,282.0 L 604.0,422.0"/>
    <path d="M 436.0,363.0 L 486.0,372.0 L 651.0,331.0"/>
    <path d="M 734.0,187.0 L 760.0,220.0 L 707.0,396.0"/>
    <path d="M 753.0,327.0 L 775.0,314.0 L 836.0,305.0 L 875.0,305.0 L 907.0,316.0"/>
    <path d="M 552.0,475.0 L 610.0,477.0 L 710.0,451.0 L 758.0,450.0"/>
    <path d="M 456.0,609.0 L 508.0,613.0 L 705.0,576.0 L 885.0,552.0 L 908.0,551.0 L 961.0,563.0"/>
    <path d="M 498.0,526.0 L 517.0,535.0 L 534.0,553.0 L 560.0,693.0"/>
    <path d="M 783.0,474.0 L 807.0,506.0 L 787.0,584.0 L 758.0,662.0"/>
    <path d="M 507.0,732.0 L 540.0,738.0 L 576.0,736.0 L 772.0,700.0 L 831.0,704.0"/>
    <path d="M 476.0,852.0 L 527.0,858.0 L 820.0,812.0 L 866.0,816.0 L 898.0,826.0"/>
    <path d="M 628.0,499.0 L 667.0,521.0 L 655.0,1098.0"/>
  </g>
</svg>
