<svg xmlns="http://www.w3.org/2000/svg" viewBox="0 0 1024 1024">
  <g style="fill:none;stroke:#000000;stroke-width:50;stroke-linecap:round;stroke-linejoin:round;" transform="scale(1, 1) translate(0, 0)">
    <path d="M 233.0,315.0 L 243.0,323.0 L 271.0,321.0 L 394.0,285.0 L 438.0,285.0"/>
    <path d="M 161.0,288.0 L 187.0,311.0 L 198.0,332.0 L 194.0,499.0 L 180.0,661.0 L 197.0,682.0"/>
    <path d="M 250.0,431.0 L 296.0,432.0 L 360.0,412.0 L 397.0,409.0"/>
    <path d="M 247.0,527.0 L 294.0,531.0 L 378.0,508.0 L 408.0,510.0"/>
    <path d="M 302.0,342.0 L 324.0,356.0 L 328.0,382.0 L 322.0,595.0 L 307.0,615.0"/>
    <path d="M 213.0,678.0 L 226.0,659.0 L 337.0,632.0 L 379.0,631.0 L 406.0,651.0 L 386.0,838.0 L 369.0,908.0 L 340.0,937.0 L 264.0,885.0"/>
    <path d="M 88.0,776.0 L 95.0,846.0 L 87.0,933.0"/>
    <path d="M 166.0,772.0 L 187.0,826.0 L 190.0,852.0"/>
    <path d="M 235.0,747.0 L 257.0,784.0 L 264.0,809.0"/>
    <path d="M 300.0,714.0 L 325.0,746.0 L 335.0,770.0"/>
    <path d="M 512.0,340.0 L 563.0,340.0 L 745.0,291.0 L 768.0,293.0 L 790.0,308.0 L 798.0,321.0 L 770.0,430.0 L 752.0,444.0"/>
    <path d="M 457.0,432.0 L 481.0,435.0 L 751.0,380.0 L 887.0,361.0 L 938.0,362.0 L 969.0,370.0"/>
    <path d="M 511.0,508.0 L 561.0,507.0 L 738.0,470.0 L 785.0,469.0 L 803.0,476.0"/>
    <path d="M 611.0,168.0 L 634.0,175.0 L 663.0,202.0 L 655.0,369.0 L 647.0,1016.0"/>
    <path d="M 460.0,579.0 L 487.0,605.0 L 488.0,690.0 L 480.0,784.0 L 468.0,840.0 L 443.0,911.0 L 394.0,993.0"/>
    <path d="M 823.0,508.0 L 851.0,540.0 L 855.0,576.0 L 853.0,1033.0"/>
    <path d="M 568.0,551.0 L 581.0,578.0 L 578.0,626.0 L 570.0,631.0"/>
    <path d="M 514.0,677.0 L 519.0,666.0 L 534.0,662.0 L 570.0,655.0 L 601.0,657.0"/>
    <path d="M 722.0,535.0 L 739.0,553.0 L 741.0,611.0 L 760.0,616.0 L 821.0,596.0 L 830.0,602.0"/>
    <path d="M 535.0,736.0 L 559.0,738.0 L 766.0,695.0 L 800.0,698.0"/>
    <path d="M 490.0,834.0 L 500.0,826.0 L 528.0,820.0 L 540.0,820.0 L 561.0,832.0 L 552.0,945.0 L 562.0,975.0"/>
    <path d="M 774.0,793.0 L 780.0,782.0 L 836.0,765.0"/>
    <path d="M 730.0,770.0 L 745.0,785.0 L 750.0,805.0 L 750.0,950.0"/>
  </g>
</svg>
