<svg xmlns="http://www.w3.org/2000/svg" viewBox="0 0 1024 1024">
  <g style="fill:none;stroke:#000000;stroke-width:50;stroke-linecap:round;stroke-linejoin:round;" transform="scale(1, 1) translate(0, 0)">
    <path d="M 233.0,315.0 L 243.0,323.0 L 276.0,320.0 L 394.0,285.0 L 438.0,285.0"/>
    <path d="M 161.0,288.0 L 187.0,311.0 L 198.0,332.0 L 194.0,499.0 L 180.0,661.0 L 197.0,682.0"/>
    <path d="M 250.0,431.0 L 287.0,434.0 L 363.0,411.0 L 397.0,409.0"/>
    <path d="M 247.0,527.0 L 285.0,532.0 L 357.0,511.0 L 404.0,509.0"/>
    <path d="M 299.0,345.0 L 319.0,358.0 L 319.0,390.0 L 313.0,602.0 L 298.0,619.0"/>
    <path d="M 213.0,678.0 L 226.0,659.0 L 342.0,632.0 L 382.0,631.0 L 406.0,651.0 L 386.0,838.0 L 369.0,908.0 L 340.0,937.0 L 264.0,885.0"/>
    <path d="M 88.0,776.0 L 95.0,846.0 L 87.0,933.0"/>
    <path d="M 166.0,772.0 L 187.0,826.0 L 190.0,852.0"/>
    <path d="M 235.0,747.0 L 257.0,784.0 L 264.0,809.0"/>
    <path d="M 300.0,714.0 L 325.0,746.0 L 335.0,770.0"/>
    <path d="M 503.0,274.0 L 559.0,322.0 L 570.0,353.0"/>
    <path d="M 801.0,220.0 L 818.0,249.0 L 737.0,334.0"/>
    <path d="M 509.0,407.0 L 564.0,414.0 L 629.0,406.0 L 762.0,377.0 L 807.0,378.0"/>
    <path d="M 624.0,170.0 L 649.0,187.0 L 667.0,213.0 L 653.0,474.0 L 651.0,573.0 L 657.0,604.0"/>
    <path d="M 632.0,428.0 L 611.0,463.0 L 539.0,529.0 L 453.0,573.0"/>
    <path d="M 680.0,418.0 L 824.0,507.0 L 877.0,513.0 L 965.0,507.0"/>
    <path d="M 525.0,586.0 L 546.0,615.0 L 536.0,638.0 L 469.0,740.0 L 443.0,760.0"/>
    <path d="M 527.0,693.0 L 585.0,674.0 L 608.0,679.0 L 615.0,689.0 L 592.0,756.0 L 513.0,880.0 L 462.0,934.0 L 401.0,976.0"/>
    <path d="M 488.0,755.0 L 521.0,796.0 L 526.0,817.0"/>
    <path d="M 683.0,678.0 L 706.0,683.0 L 748.0,679.0 L 851.0,648.0 L 893.0,646.0"/>
    <path d="M 667.0,728.0 L 684.0,758.0 L 659.0,811.0 L 660.0,820.0 L 671.0,823.0 L 866.0,784.0 L 902.0,782.0 L 958.0,791.0"/>
    <path d="M 754.0,573.0 L 787.0,603.0 L 788.0,624.0 L 771.0,1084.0"/>
  </g>
</svg>
