<svg xmlns="http://www.w3.org/2000/svg" viewBox="0 0 1024 1024">
  <g style="fill:none;stroke:#000000;stroke-width:50;stroke-linecap:round;stroke-linejoin:round;" transform="scale(1, 1) translate(0, 0)">
    <path d="M 210.0,303.0 L 219.0,311.0 L 265.0,308.0 L 366.0,282.0 L 415.0,283.0"/>
    <path d="M 146.0,283.0 L 162.0,294.0 L 177.0,320.0 L 171.0,609.0 L 163.0,660.0 L 176.0,675.0"/>
    <path d="M 226.0,433.0 L 276.0,433.0 L 362.0,403.0 L 397.0,401.0"/>
    <path d="M 222.0,533.0 L 272.0,534.0 L 362.0,506.0 L 397.0,504.0"/>
    <path d="M 279.0,328.0 L 301.0,342.0 L 307.0,354.0 L 302.0,597.0 L 299.0,608.0 L 288.0,616.0"/>
    <path d="M 192.0,630.0 L 195.0,645.0 L 215.0,654.0 L 385.0,622.0 L 407.0,630.0 L 426.0,654.0 L 393.0,849.0 L 369.0,915.0 L 344.0,933.0 L 262.0,888.0"/>
    <path d="M 110.0,746.0 L 106.0,798.0 L 82.0,877.0"/>
    <path d="M 166.0,751.0 L 189.0,808.0 L 187.0,829.0"/>
    <path d="M 234.0,734.0 L 256.0,774.0 L 261.0,797.0"/>
    <path d="M 302.0,715.0 L 328.0,747.0 L 338.0,773.0"/>
    <path d="M 452.0,262.0 L 490.0,301.0 L 527.0,415.0"/>
    <path d="M 465.0,257.0 L 512.0,268.0 L 768.0,229.0 L 826.0,234.0 L 849.0,263.0 L 798.0,385.0"/>
    <path d="M 585.0,275.0 L 596.0,286.0 L 609.0,352.0 L 616.0,357.0"/>
    <path d="M 689.0,260.0 L 710.0,281.0 L 693.0,342.0 L 681.0,349.0"/>
    <path d="M 542.0,383.0 L 567.0,387.0 L 780.0,357.0"/>
    <path d="M 525.0,474.0 L 561.0,480.0 L 610.0,477.0 L 738.0,449.0 L 781.0,450.0"/>
    <path d="M 621.0,396.0 L 644.0,412.0 L 649.0,434.0 L 645.0,531.0 L 631.0,545.0"/>
    <path d="M 456.0,586.0 L 491.0,593.0 L 621.0,569.0 L 842.0,542.0 L 910.0,556.0"/>
    <path d="M 552.0,617.0 L 587.0,676.0"/>
    <path d="M 711.0,576.0 L 725.0,590.0 L 730.0,609.0 L 702.0,665.0 L 684.0,672.0"/>
    <path d="M 503.0,721.0 L 545.0,726.0 L 740.0,689.0 L 777.0,686.0 L 804.0,691.0"/>
    <path d="M 464.0,837.0 L 509.0,842.0 L 683.0,811.0 L 819.0,795.0 L 885.0,807.0"/>
    <path d="M 666.0,729.0 L 646.0,753.0 L 645.0,768.0 L 644.0,1087.0"/>
  </g>
</svg>
