<svg xmlns="http://www.w3.org/2000/svg" viewBox="0 0 1024 1024">
  <g style="fill:none;stroke:#000000;stroke-width:50;stroke-linecap:round;stroke-linejoin:round;" transform="scale(1, 1) translate(0, 0)">
    <path d="M 208.0,336.0 L 231.0,328.0 L 267.0,329.0 L 355.0,304.0 L 405.0,301.0"/>
    <path d="M 147.0,303.0 L 163.0,314.0 L 177.0,338.0 L 179.0,585.0 L 172.0,664.0 L 185.0,674.0"/>
    <path d="M 231.0,444.0 L 354.0,410.0 L 393.0,413.0"/>
    <path d="M 231.0,533.0 L 337.0,510.0 L 366.0,507.0 L 388.0,513.0"/>
    <path d="M 287.0,348.0 L 309.0,362.0 L 311.0,389.0 L 306.0,585.0 L 291.0,612.0"/>
    <path d="M 199.0,630.0 L 202.0,645.0 L 223.0,653.0 L 357.0,619.0 L 378.0,624.0 L 399.0,647.0 L 375.0,856.0 L 355.0,921.0 L 329.0,944.0 L 260.0,900.0"/>
    <path d="M 83.0,741.0 L 87.0,775.0 L 72.0,883.0"/>
    <path d="M 149.0,743.0 L 175.0,811.0 L 173.0,839.0"/>
    <path d="M 215.0,731.0 L 244.0,782.0 L 248.0,801.0"/>
    <path d="M 284.0,710.0 L 306.0,742.0 L 319.0,775.0"/>
    <path d="M 445.0,281.0 L 471.0,283.0 L 651.0,242.0 L 685.0,246.0"/>
    <path d="M 474.0,301.0 L 495.0,323.0 L 494.0,498.0 L 493.0,511.0 L 480.0,523.0"/>
    <path d="M 597.0,272.0 L 625.0,295.0 L 626.0,501.0 L 620.0,531.0 L 624.0,585.0"/>
    <path d="M 515.0,386.0 L 539.0,370.0 L 583.0,363.0"/>
    <path d="M 515.0,455.0 L 547.0,434.0 L 588.0,431.0"/>
    <path d="M 424.0,554.0 L 456.0,561.0 L 589.0,509.0 L 600.0,496.0"/>
    <path d="M 671.0,374.0 L 721.0,366.0 L 801.0,340.0 L 830.0,346.0 L 814.0,389.0 L 781.0,438.0 L 726.0,499.0 L 673.0,537.0"/>
    <path d="M 682.0,431.0 L 795.0,477.0 L 845.0,507.0 L 868.0,533.0"/>
    <path d="M 713.0,599.0 L 688.0,596.0 L 625.0,637.0 L 549.0,660.0"/>
    <path d="M 606.0,662.0 L 622.0,671.0 L 635.0,698.0 L 629.0,1008.0 L 641.0,1076.0"/>
    <path d="M 539.0,706.0 L 521.0,710.0 L 484.0,754.0 L 449.0,781.0"/>
    <path d="M 540.0,772.0 L 559.0,808.0 L 547.0,827.0 L 485.0,905.0 L 446.0,941.0 L 426.0,951.0"/>
    <path d="M 778.0,639.0 L 794.0,668.0 L 707.0,753.0 L 700.0,752.0"/>
    <path d="M 657.0,733.0 L 670.0,757.0 L 705.0,792.0 L 820.0,886.0 L 862.0,901.0 L 979.0,918.0"/>
  </g>
</svg>
