<svg xmlns="http://www.w3.org/2000/svg" viewBox="0 0 1024 1024">
  <g style="fill:none;stroke:#000000;stroke-width:50;stroke-linecap:round;stroke-linejoin:round;" transform="scale(1, 1) translate(0, 0)">
    <path d="M 193.0,324.0 L 222.0,333.0 L 358.0,295.0 L 413.0,290.0"/>
    <path d="M 136.0,316.0 L 154.0,328.0 L 169.0,351.0 L 170.0,636.0 L 162.0,718.0 L 176.0,735.0"/>
    <path d="M 231.0,472.0 L 342.0,440.0 L 381.0,441.0"/>
    <path d="M 235.0,576.0 L 342.0,545.0 L 385.0,545.0"/>
    <path d="M 278.0,342.0 L 306.0,364.0 L 309.0,393.0 L 309.0,634.0 L 304.0,652.0 L 293.0,663.0"/>
    <path d="M 195.0,731.0 L 207.0,710.0 L 328.0,678.0 L 361.0,677.0 L 391.0,702.0 L 374.0,854.0 L 354.0,955.0 L 341.0,992.0 L 325.0,1010.0 L 309.0,1016.0 L 239.0,985.0"/>
    <path d="M 72.0,800.0 L 78.0,834.0 L 71.0,941.0"/>
    <path d="M 148.0,817.0 L 164.0,891.0"/>
    <path d="M 217.0,803.0 L 237.0,843.0 L 242.0,868.0"/>
    <path d="M 273.0,775.0 L 304.0,808.0 L 316.0,838.0"/>
    <path d="M 571.0,295.0 L 629.0,295.0 L 761.0,254.0 L 799.0,254.0"/>
    <path d="M 457.0,390.0 L 468.0,421.0 L 466.0,435.0 L 443.0,489.0 L 437.0,528.0"/>
    <path d="M 494.0,434.0 L 606.0,403.0 L 847.0,357.0 L 882.0,370.0 L 895.0,389.0 L 839.0,458.0"/>
    <path d="M 646.0,319.0 L 671.0,332.0 L 669.0,604.0"/>
    <path d="M 534.0,491.0 L 576.0,504.0 L 589.0,514.0"/>
    <path d="M 528.0,568.0 L 581.0,598.0"/>
    <path d="M 729.0,457.0 L 768.0,474.0 L 789.0,492.0"/>
    <path d="M 737.0,549.0 L 789.0,579.0"/>
    <path d="M 440.0,737.0 L 484.0,741.0 L 591.0,714.0 L 637.0,712.0"/>
    <path d="M 530.0,643.0 L 558.0,674.0 L 548.0,1036.0"/>
    <path d="M 536.0,753.0 L 512.0,828.0 L 461.0,903.0 L 412.0,956.0"/>
    <path d="M 575.0,796.0 L 622.0,829.0 L 635.0,849.0"/>
    <path d="M 680.0,665.0 L 702.0,696.0 L 701.0,1004.0"/>
    <path d="M 712.0,671.0 L 735.0,674.0 L 823.0,645.0 L 851.0,653.0 L 866.0,668.0 L 867.0,939.0 L 859.0,984.0 L 864.0,1027.0"/>
    <path d="M 720.0,785.0 L 732.0,775.0 L 761.0,767.0 L 814.0,767.0"/>
    <path d="M 722.0,874.0 L 760.0,858.0 L 804.0,853.0 L 816.0,857.0"/>
    <path d="M 724.0,988.0 L 730.0,978.0 L 812.0,968.0 L 836.0,957.0"/>
  </g>
</svg>
