<svg xmlns="http://www.w3.org/2000/svg" viewBox="0 0 1024 1024">
  <g style="fill:none;stroke:#000000;stroke-width:50;stroke-linecap:round;stroke-linejoin:round;" transform="scale(1, 1) translate(0, 0)">
    <path d="M 211.0,321.0 L 226.0,327.0 L 272.0,322.0 L 375.0,293.0 L 421.0,290.0"/>
    <path d="M 152.0,300.0 L 173.0,318.0 L 185.0,342.0 L 169.0,659.0 L 186.0,678.0"/>
    <path d="M 251.0,448.0 L 350.0,420.0 L 392.0,420.0"/>
    <path d="M 247.0,545.0 L 344.0,519.0 L 368.0,516.0 L 389.0,521.0"/>
    <path d="M 291.0,339.0 L 316.0,362.0 L 314.0,592.0 L 310.0,606.0 L 299.0,615.0"/>
    <path d="M 204.0,645.0 L 214.0,659.0 L 223.0,659.0 L 291.0,638.0 L 365.0,628.0 L 383.0,634.0 L 400.0,652.0 L 367.0,855.0 L 350.0,900.0 L 321.0,928.0 L 248.0,881.0"/>
    <path d="M 61.0,768.0 L 71.0,814.0 L 70.0,902.0"/>
    <path d="M 135.0,766.0 L 159.0,820.0 L 159.0,840.0"/>
    <path d="M 213.0,751.0 L 233.0,791.0 L 238.0,816.0"/>
    <path d="M 286.0,720.0 L 322.0,782.0"/>
    <path d="M 648.0,184.0 L 678.0,213.0 L 674.0,335.0 L 659.0,345.0"/>
    <path d="M 704.0,265.0 L 715.0,257.0 L 776.0,243.0 L 814.0,241.0"/>
    <path d="M 543.0,388.0 L 562.0,396.0 L 799.0,335.0 L 833.0,334.0 L 855.0,341.0 L 872.0,360.0 L 822.0,425.0"/>
    <path d="M 493.0,384.0 L 518.0,402.0 L 528.0,427.0 L 526.0,521.0 L 506.0,685.0 L 474.0,801.0 L 444.0,874.0 L 412.0,931.0 L 371.0,987.0"/>
    <path d="M 577.0,475.0 L 630.0,470.0 L 731.0,431.0 L 762.0,428.0"/>
    <path d="M 636.0,397.0 L 654.0,412.0 L 660.0,501.0 L 683.0,525.0 L 730.0,533.0 L 756.0,529.0 L 777.0,518.0 L 792.0,507.0 L 800.0,454.0"/>
    <path d="M 561.0,610.0 L 580.0,623.0 L 588.0,639.0 L 621.0,776.0"/>
    <path d="M 598.0,609.0 L 620.0,612.0 L 759.0,578.0 L 808.0,583.0 L 827.0,607.0 L 786.0,750.0"/>
    <path d="M 638.0,680.0 L 723.0,660.0 L 757.0,661.0"/>
    <path d="M 680.0,611.0 L 694.0,623.0 L 697.0,655.0 L 696.0,718.0 L 687.0,729.0"/>
    <path d="M 636.0,765.0 L 651.0,754.0 L 743.0,740.0 L 766.0,730.0"/>
    <path d="M 533.0,839.0 L 556.0,867.0 L 575.0,965.0 L 584.0,975.0"/>
    <path d="M 568.0,841.0 L 595.0,845.0 L 658.0,828.0 L 778.0,808.0 L 823.0,810.0 L 844.0,839.0 L 813.0,930.0 L 798.0,944.0 L 786.0,946.0"/>
    <path d="M 625.0,858.0 L 632.0,862.0 L 646.0,960.0 L 655.0,969.0"/>
    <path d="M 712.0,838.0 L 735.0,863.0 L 716.0,955.0 L 707.0,964.0"/>
    <path d="M 444.0,1002.0 L 497.0,1008.0 L 670.0,984.0 L 873.0,968.0 L 931.0,973.0 L 962.0,984.0"/>
  </g>
</svg>
