<svg xmlns="http://www.w3.org/2000/svg" viewBox="0 0 1024 1024">
  <g style="fill:none;stroke:#000000;stroke-width:50;stroke-linecap:round;stroke-linejoin:round;" transform="scale(1, 1) translate(0, 0)">
    <path d="M 289.0,308.0 L 339.0,315.0 L 439.0,291.0 L 570.0,269.0 L 609.0,273.0 L 630.0,289.0 L 645.0,307.0 L 623.0,389.0 L 605.0,517.0 L 589.0,581.0"/>
    <path d="M 331.0,381.0 L 351.0,398.0 L 372.0,429.0 L 354.0,612.0 L 360.0,664.0 L 403.0,668.0 L 560.0,636.0 L 719.0,618.0 L 782.0,624.0 L 812.0,654.0 L 762.0,890.0 L 746.0,943.0 L 723.0,986.0 L 698.0,1006.0 L 669.0,996.0 L 569.0,938.0"/>
    <path d="M 127.0,839.0 L 188.0,853.0 L 385.0,817.0 L 613.0,790.0 L 688.0,812.0"/>
  </g>
</svg>
