<svg xmlns="http://www.w3.org/2000/svg" viewBox="0 0 1024 1024">
  <g style="fill:none;stroke:#000000;stroke-width:50;stroke-linecap:round;stroke-linejoin:round;" transform="scale(1, 1) translate(0, 0)">
    <path d="M 162.0,318.0 L 215.0,320.0 L 356.0,283.0 L 388.0,290.0 L 417.0,319.0 L 399.0,382.0 L 376.0,558.0 L 368.0,591.0 L 352.0,621.0"/>
    <path d="M 203.0,405.0 L 221.0,419.0 L 234.0,445.0 L 213.0,642.0 L 215.0,673.0 L 257.0,673.0 L 335.0,650.0 L 398.0,639.0 L 419.0,647.0 L 439.0,672.0 L 399.0,900.0 L 379.0,950.0 L 353.0,972.0 L 267.0,921.0"/>
    <path d="M 65.0,836.0 L 119.0,851.0 L 348.0,759.0"/>
    <path d="M 529.0,352.0 L 560.0,382.0 L 567.0,397.0 L 572.0,448.0 L 569.0,873.0 L 549.0,886.0"/>
    <path d="M 590.0,367.0 L 612.0,376.0 L 749.0,333.0 L 774.0,339.0 L 799.0,370.0 L 789.0,515.0 L 785.0,839.0 L 761.0,858.0"/>
    <path d="M 604.0,564.0 L 616.0,548.0 L 630.0,543.0 L 682.0,533.0 L 716.0,539.0"/>
    <path d="M 603.0,722.0 L 613.0,706.0 L 641.0,697.0 L 701.0,688.0 L 724.0,695.0"/>
    <path d="M 446.0,920.0 L 493.0,929.0 L 603.0,911.0 L 869.0,883.0 L 902.0,884.0 L 961.0,901.0"/>
  </g>
</svg>
