<svg xmlns="http://www.w3.org/2000/svg" viewBox="0 0 1024 1024">
  <g style="fill:none;stroke:#000000;stroke-width:50;stroke-linecap:round;stroke-linejoin:round;" transform="scale(1, 1) translate(0, 0)">
    <path d="M 146.0,318.0 L 190.0,320.0 L 344.0,283.0 L 376.0,290.0 L 403.0,316.0 L 382.0,404.0 L 361.0,569.0 L 340.0,620.0"/>
    <path d="M 191.0,405.0 L 209.0,419.0 L 222.0,445.0 L 201.0,642.0 L 203.0,673.0 L 241.0,673.0 L 320.0,650.0 L 384.0,639.0 L 403.0,647.0 L 424.0,671.0 L 389.0,886.0 L 367.0,949.0 L 340.0,972.0 L 251.0,921.0"/>
    <path d="M 48.0,843.0 L 81.0,854.0 L 109.0,854.0 L 328.0,759.0"/>
    <path d="M 451.0,506.0 L 479.0,531.0 L 496.0,572.0 L 515.0,819.0 L 529.0,867.0"/>
    <path d="M 507.0,518.0 L 539.0,531.0 L 831.0,485.0 L 860.0,493.0 L 872.0,505.0 L 882.0,517.0 L 865.0,720.0 L 853.0,808.0 L 832.0,846.0 L 834.0,902.0"/>
    <path d="M 602.0,541.0 L 629.0,565.0 L 623.0,603.0 L 594.0,682.0 L 556.0,739.0"/>
    <path d="M 690.0,532.0 L 715.0,547.0 L 710.0,621.0 L 714.0,663.0 L 723.0,684.0 L 748.0,697.0 L 808.0,691.0"/>
    <path d="M 548.0,814.0 L 565.0,824.0 L 756.0,797.0 L 803.0,806.0"/>
  </g>
</svg>
