<svg xmlns="http://www.w3.org/2000/svg" viewBox="0 0 1024 1024">
  <g style="fill:none;stroke:#000000;stroke-width:50;stroke-linecap:round;stroke-linejoin:round;" transform="scale(1, 1) translate(0, 0)">
    <path d="M 174.0,322.0 L 217.0,328.0 L 357.0,295.0 L 382.0,297.0 L 406.0,319.0 L 413.0,330.0 L 392.0,409.0 L 378.0,523.0 L 356.0,597.0"/>
    <path d="M 192.0,402.0 L 199.0,404.0 L 219.0,434.0 L 205.0,626.0 L 209.0,649.0 L 253.0,649.0 L 317.0,632.0 L 391.0,622.0 L 406.0,629.0 L 428.0,655.0 L 396.0,840.0 L 366.0,947.0 L 336.0,973.0 L 246.0,917.0"/>
    <path d="M 72.0,834.0 L 124.0,844.0 L 356.0,736.0"/>
    <path d="M 479.0,489.0 L 502.0,508.0 L 512.0,527.0 L 544.0,682.0"/>
    <path d="M 526.0,489.0 L 549.0,500.0 L 688.0,475.0 L 767.0,454.0 L 798.0,457.0 L 828.0,484.0 L 798.0,571.0 L 774.0,587.0"/>
    <path d="M 562.0,657.0 L 589.0,644.0 L 746.0,616.0 L 807.0,613.0 L 827.0,619.0"/>
    <path d="M 616.0,260.0 L 659.0,296.0 L 664.0,314.0 L 654.0,671.0 L 640.0,796.0 L 615.0,860.0 L 577.0,902.0 L 522.0,937.0 L 451.0,963.0"/>
    <path d="M 495.0,721.0 L 541.0,747.0 L 666.0,885.0 L 775.0,972.0 L 804.0,984.0 L 934.0,996.0"/>
  </g>
</svg>
