<svg xmlns="http://www.w3.org/2000/svg" viewBox="0 0 1024 1024">
  <g style="fill:none;stroke:#000000;stroke-width:50;stroke-linecap:round;stroke-linejoin:round;" transform="scale(1, 1) translate(0, 0)">
    <path d="M 150.0,330.0 L 201.0,332.0 L 242.0,317.0 L 361.0,291.0 L 381.0,299.0 L 402.0,319.0 L 406.0,325.0 L 391.0,382.0 L 369.0,539.0 L 362.0,568.0 L 348.0,592.0"/>
    <path d="M 189.0,398.0 L 211.0,421.0 L 215.0,434.0 L 202.0,594.0 L 201.0,626.0 L 208.0,649.0 L 249.0,646.0 L 284.0,633.0 L 384.0,613.0 L 409.0,620.0 L 432.0,645.0 L 393.0,868.0 L 369.0,947.0 L 341.0,971.0 L 250.0,913.0"/>
    <path d="M 62.0,822.0 L 72.0,829.0 L 118.0,835.0 L 352.0,727.0"/>
    <path d="M 613.0,229.0 L 684.0,274.0 L 710.0,313.0"/>
    <path d="M 499.0,412.0 L 512.0,441.0 L 512.0,458.0 L 489.0,531.0 L 485.0,572.0"/>
    <path d="M 543.0,444.0 L 553.0,451.0 L 579.0,448.0 L 727.0,404.0 L 824.0,389.0 L 848.0,400.0 L 866.0,421.0 L 808.0,516.0 L 800.0,519.0"/>
    <path d="M 749.0,583.0 L 758.0,593.0 L 767.0,625.0 L 683.0,694.0 L 610.0,739.0 L 589.0,762.0"/>
    <path d="M 552.0,581.0 L 579.0,615.0 L 564.0,805.0 L 569.0,898.0 L 583.0,938.0 L 605.0,958.0 L 655.0,977.0 L 697.0,982.0 L 786.0,978.0 L 845.0,960.0 L 886.0,929.0 L 877.0,805.0"/>
  </g>
</svg>
