<svg xmlns="http://www.w3.org/2000/svg" viewBox="0 0 1024 1024">
  <g style="fill:none;stroke:#000000;stroke-width:50;stroke-linecap:round;stroke-linejoin:round;" transform="scale(1, 1) translate(0, 0)">
    <path d="M 186.0,322.0 L 231.0,326.0 L 328.0,298.0 L 377.0,291.0 L 396.0,299.0 L 423.0,328.0 L 400.0,406.0 L 375.0,551.0 L 356.0,587.0"/>
    <path d="M 229.0,390.0 L 250.0,414.0 L 256.0,434.0 L 228.0,602.0 L 229.0,633.0 L 267.0,635.0 L 415.0,604.0 L 434.0,611.0 L 454.0,636.0 L 417.0,855.0 L 393.0,919.0 L 362.0,943.0 L 271.0,887.0"/>
    <path d="M 72.0,807.0 L 119.0,821.0 L 133.0,819.0 L 364.0,719.0"/>
    <path d="M 625.0,200.0 L 651.0,221.0 L 663.0,245.0 L 645.0,304.0 L 582.0,437.0 L 539.0,510.0 L 505.0,550.0"/>
    <path d="M 585.0,472.0 L 608.0,462.0 L 815.0,419.0 L 844.0,425.0 L 872.0,453.0 L 855.0,766.0 L 838.0,861.0 L 814.0,930.0 L 789.0,970.0 L 757.0,994.0 L 671.0,943.0 L 667.0,933.0 L 652.0,929.0"/>
    <path d="M 533.0,612.0 L 556.0,634.0 L 563.0,651.0 L 588.0,795.0"/>
    <path d="M 580.0,615.0 L 592.0,621.0 L 683.0,598.0 L 696.0,599.0 L 711.0,611.0 L 719.0,621.0 L 702.0,686.0 L 691.0,707.0 L 675.0,713.0"/>
    <path d="M 607.0,749.0 L 616.0,755.0 L 708.0,739.0 L 732.0,747.0"/>
  </g>
</svg>
