<svg xmlns="http://www.w3.org/2000/svg" viewBox="0 0 1024 1024">
  <g style="fill:none;stroke:#000000;stroke-width:50;stroke-linecap:round;stroke-linejoin:round;" transform="scale(1, 1) translate(0, 0)">
    <path d="M 134.0,334.0 L 186.0,337.0 L 227.0,322.0 L 332.0,299.0 L 364.0,306.0 L 386.0,327.0 L 390.0,333.0 L 369.0,414.0 L 353.0,524.0 L 332.0,593.0"/>
    <path d="M 169.0,398.0 L 191.0,421.0 L 195.0,434.0 L 184.0,591.0 L 189.0,645.0 L 233.0,645.0 L 368.0,618.0 L 386.0,626.0 L 409.0,652.0 L 368.0,875.0 L 345.0,939.0 L 316.0,964.0 L 285.0,953.0 L 210.0,909.0"/>
    <path d="M 54.0,810.0 L 89.0,821.0 L 115.0,821.0 L 327.0,719.0"/>
    <path d="M 771.0,279.0 L 705.0,268.0 L 630.0,313.0 L 532.0,352.0 L 524.0,350.0 L 517.0,358.0 L 498.0,357.0 L 488.0,366.0"/>
    <path d="M 450.0,490.0 L 509.0,494.0 L 773.0,433.0 L 831.0,436.0"/>
    <path d="M 593.0,352.0 L 624.0,364.0 L 632.0,375.0 L 583.0,523.0 L 529.0,618.0 L 447.0,705.0"/>
    <path d="M 676.0,492.0 L 692.0,501.0 L 695.0,511.0 L 781.0,608.0 L 848.0,667.0 L 972.0,692.0"/>
    <path d="M 522.0,685.0 L 556.0,714.0 L 547.0,811.0 L 530.0,869.0 L 490.0,934.0 L 465.0,959.0 L 420.0,988.0"/>
    <path d="M 691.0,650.0 L 720.0,684.0 L 719.0,986.0 L 733.0,1062.0"/>
  </g>
</svg>
