<svg xmlns="http://www.w3.org/2000/svg" viewBox="0 0 1024 1024">
  <g style="fill:none;stroke:#000000;stroke-width:50;stroke-linecap:round;stroke-linejoin:round;" transform="scale(1, 1) translate(0, 0)">
    <path d="M 162.0,318.0 L 215.0,320.0 L 356.0,283.0 L 388.0,290.0 L 417.0,319.0 L 399.0,382.0 L 376.0,558.0 L 368.0,591.0 L 352.0,621.0"/>
    <path d="M 203.0,405.0 L 221.0,419.0 L 234.0,445.0 L 213.0,642.0 L 215.0,673.0 L 257.0,673.0 L 335.0,650.0 L 398.0,639.0 L 418.0,646.0 L 439.0,671.0 L 407.0,868.0 L 382.0,943.0 L 356.0,964.0 L 263.0,905.0"/>
    <path d="M 46.0,842.0 L 101.0,855.0 L 263.0,781.0 L 271.0,782.0 L 328.0,751.0"/>
    <path d="M 504.0,295.0 L 579.0,298.0 L 651.0,282.0 L 707.0,262.0 L 750.0,266.0 L 763.0,280.0 L 703.0,404.0 L 633.0,495.0 L 574.0,542.0 L 510.0,581.0 L 444.0,601.0"/>
    <path d="M 519.0,375.0 L 571.0,396.0 L 711.0,516.0 L 808.0,574.0 L 875.0,585.0 L 986.0,586.0"/>
    <path d="M 514.0,689.0 L 536.0,695.0 L 587.0,695.0 L 726.0,664.0 L 757.0,662.0 L 783.0,668.0"/>
    <path d="M 470.0,820.0 L 525.0,825.0 L 795.0,782.0 L 857.0,786.0 L 889.0,797.0"/>
    <path d="M 619.0,579.0 L 633.0,587.0 L 655.0,615.0 L 647.0,1063.0"/>
  </g>
</svg>
