<svg xmlns="http://www.w3.org/2000/svg" viewBox="0 0 1024 1024">
  <g style="fill:none;stroke:#000000;stroke-width:50;stroke-linecap:round;stroke-linejoin:round;" transform="scale(1, 1) translate(0, 0)">
    <path d="M 140.0,330.0 L 186.0,333.0 L 335.0,291.0 L 356.0,298.0 L 384.0,323.0 L 364.0,410.0 L 347.0,568.0 L 328.0,617.0"/>
    <path d="M 172.0,412.0 L 188.0,426.0 L 201.0,454.0 L 180.0,633.0 L 184.0,665.0 L 225.0,665.0 L 282.0,646.0 L 363.0,631.0 L 385.0,638.0 L 406.0,661.0 L 366.0,879.0 L 340.0,946.0 L 312.0,967.0 L 225.0,918.0"/>
    <path d="M 51.0,836.0 L 110.0,844.0 L 311.0,743.0"/>
    <path d="M 470.0,436.0 L 522.0,444.0 L 566.0,440.0 L 814.0,391.0 L 858.0,392.0"/>
    <path d="M 510.0,313.0 L 549.0,359.0 L 554.0,736.0 L 538.0,753.0"/>
    <path d="M 703.0,201.0 L 752.0,242.0 L 753.0,255.0 L 729.0,694.0 L 726.0,716.0 L 709.0,734.0"/>
    <path d="M 576.0,564.0 L 590.0,552.0 L 649.0,538.0 L 680.0,541.0"/>
    <path d="M 576.0,665.0 L 589.0,655.0 L 639.0,645.0 L 680.0,649.0"/>
    <path d="M 422.0,784.0 L 470.0,793.0 L 629.0,770.0 L 866.0,746.0 L 899.0,749.0 L 947.0,764.0"/>
    <path d="M 605.0,862.0 L 573.0,868.0 L 505.0,949.0 L 460.0,986.0 L 423.0,1006.0"/>
    <path d="M 698.0,830.0 L 815.0,944.0 L 839.0,986.0 L 848.0,1020.0"/>
  </g>
</svg>
