<svg xmlns="http://www.w3.org/2000/svg" viewBox="0 0 1024 1024">
  <g style="fill:none;stroke:#000000;stroke-width:50;stroke-linecap:round;stroke-linejoin:round;" transform="scale(1, 1) translate(0, 0)">
    <path d="M 140.0,330.0 L 186.0,333.0 L 335.0,291.0 L 356.0,298.0 L 384.0,323.0 L 364.0,410.0 L 347.0,568.0 L 328.0,617.0"/>
    <path d="M 172.0,412.0 L 188.0,426.0 L 201.0,454.0 L 180.0,633.0 L 184.0,665.0 L 225.0,665.0 L 282.0,646.0 L 363.0,631.0 L 385.0,638.0 L 406.0,661.0 L 366.0,879.0 L 340.0,946.0 L 312.0,967.0 L 225.0,918.0"/>
    <path d="M 51.0,836.0 L 110.0,844.0 L 311.0,743.0"/>
    <path d="M 581.0,181.0 L 639.0,210.0 L 663.0,242.0"/>
    <path d="M 479.0,309.0 L 533.0,314.0 L 707.0,280.0 L 785.0,271.0 L 824.0,275.0"/>
    <path d="M 443.0,388.0 L 471.0,413.0 L 496.0,512.0"/>
    <path d="M 489.0,387.0 L 498.0,394.0 L 569.0,374.0 L 588.0,381.0 L 600.0,393.0 L 598.0,403.0 L 591.0,429.0 L 574.0,444.0"/>
    <path d="M 509.0,483.0 L 522.0,473.0 L 563.0,465.0 L 599.0,462.0 L 617.0,467.0"/>
    <path d="M 653.0,352.0 L 678.0,377.0 L 690.0,431.0 L 705.0,459.0"/>
    <path d="M 689.0,348.0 L 700.0,356.0 L 785.0,334.0 L 803.0,341.0 L 814.0,356.0 L 811.0,366.0 L 802.0,392.0 L 783.0,402.0"/>
    <path d="M 713.0,432.0 L 722.0,437.0 L 808.0,429.0 L 827.0,436.0"/>
    <path d="M 484.0,564.0 L 540.0,571.0 L 767.0,528.0 L 798.0,528.0"/>
    <path d="M 488.0,658.0 L 545.0,656.0 L 753.0,617.0 L 792.0,624.0"/>
    <path d="M 535.0,517.0 L 567.0,553.0 L 574.0,702.0 L 564.0,712.0"/>
    <path d="M 681.0,470.0 L 710.0,500.0 L 691.0,673.0 L 675.0,695.0"/>
    <path d="M 436.0,745.0 L 480.0,750.0 L 637.0,722.0 L 815.0,699.0 L 882.0,711.0"/>
    <path d="M 592.0,772.0 L 561.0,782.0 L 489.0,874.0 L 435.0,922.0 L 400.0,943.0"/>
    <path d="M 553.0,842.0 L 554.0,907.0 L 547.0,970.0 L 553.0,1008.0 L 588.0,994.0 L 635.0,960.0 L 638.0,952.0 L 653.0,947.0 L 657.0,935.0 L 668.0,934.0 L 674.0,925.0"/>
    <path d="M 780.0,759.0 L 793.0,789.0 L 717.0,853.0 L 708.0,850.0"/>
    <path d="M 594.0,790.0 L 605.0,789.0 L 624.0,801.0 L 714.0,895.0 L 816.0,972.0 L 858.0,986.0 L 962.0,989.0"/>
  </g>
</svg>
