<svg xmlns="http://www.w3.org/2000/svg" viewBox="0 0 1024 1024">
  <g style="fill:none;stroke:#000000;stroke-width:50;stroke-linecap:round;stroke-linejoin:round;" transform="scale(1, 1) translate(0, 0)">
    <path d="M 325.0,253.0 L 361.0,288.0 L 366.0,304.0 L 383.0,474.0 L 386.0,489.0 L 399.0,497.0"/>
    <path d="M 398.0,271.0 L 412.0,282.0 L 625.0,229.0 L 646.0,236.0 L 672.0,257.0 L 676.0,263.0 L 650.0,431.0 L 646.0,447.0 L 624.0,468.0"/>
    <path d="M 404.0,398.0 L 414.0,386.0 L 427.0,388.0 L 437.0,379.0 L 449.0,381.0 L 476.0,370.0 L 502.0,369.0 L 515.0,376.0 L 526.0,390.0 L 517.0,467.0 L 500.0,477.0"/>
    <path d="M 187.0,508.0 L 198.0,538.0 L 194.0,562.0 L 151.0,654.0 L 147.0,705.0"/>
    <path d="M 228.0,538.0 L 240.0,550.0 L 252.0,551.0 L 462.0,510.0 L 739.0,471.0 L 796.0,468.0 L 822.0,475.0 L 844.0,496.0 L 849.0,511.0 L 774.0,596.0"/>
    <path d="M 358.0,613.0 L 388.0,642.0 L 392.0,736.0 L 382.0,840.0 L 370.0,921.0 L 350.0,995.0 L 346.0,1047.0"/>
    <path d="M 422.0,651.0 L 434.0,641.0 L 531.0,620.0 L 595.0,598.0 L 626.0,612.0 L 641.0,630.0 L 654.0,935.0 L 645.0,1006.0 L 631.0,1026.0 L 515.0,987.0"/>
    <path d="M 417.0,767.0 L 426.0,756.0 L 491.0,740.0 L 530.0,736.0 L 552.0,741.0"/>
    <path d="M 405.0,867.0 L 417.0,857.0 L 509.0,840.0 L 555.0,845.0"/>
  </g>
</svg>
