<svg xmlns="http://www.w3.org/2000/svg" viewBox="0 0 1024 1024">
  <g style="fill:none;stroke:#000000;stroke-width:50;stroke-linecap:round;stroke-linejoin:round;" transform="scale(1, 1) translate(0, 0)">
    <path d="M 195.0,266.0 L 225.0,293.0 L 234.0,309.0 L 250.0,481.0 L 249.0,495.0 L 238.0,502.0"/>
    <path d="M 254.0,277.0 L 279.0,281.0 L 408.0,244.0 L 421.0,246.0 L 451.0,270.0 L 428.0,452.0 L 406.0,473.0"/>
    <path d="M 263.0,376.0 L 274.0,364.0 L 312.0,348.0 L 324.0,347.0 L 347.0,365.0 L 340.0,473.0 L 325.0,482.0"/>
    <path d="M 137.0,514.0 L 148.0,532.0 L 149.0,557.0 L 122.0,633.0 L 125.0,671.0"/>
    <path d="M 177.0,548.0 L 201.0,535.0 L 363.0,496.0 L 464.0,477.0 L 490.0,484.0 L 507.0,506.0 L 453.0,561.0"/>
    <path d="M 232.0,605.0 L 251.0,625.0 L 255.0,638.0 L 256.0,693.0 L 242.0,837.0 L 216.0,939.0 L 212.0,986.0"/>
    <path d="M 280.0,629.0 L 299.0,614.0 L 381.0,588.0 L 397.0,593.0 L 417.0,615.0 L 414.0,707.0 L 421.0,927.0 L 416.0,956.0 L 400.0,982.0 L 324.0,946.0 L 306.0,943.0"/>
    <path d="M 277.0,726.0 L 287.0,714.0 L 304.0,710.0 L 334.0,704.0 L 354.0,708.0"/>
    <path d="M 267.0,820.0 L 297.0,804.0 L 336.0,800.0 L 357.0,805.0"/>
    <path d="M 630.0,236.0 L 717.0,281.0 L 751.0,321.0"/>
    <path d="M 536.0,457.0 L 592.0,456.0 L 813.0,407.0 L 846.0,406.0 L 890.0,418.0"/>
    <path d="M 623.0,473.0 L 638.0,485.0 L 649.0,517.0 L 577.0,640.0 L 572.0,662.0 L 661.0,663.0 L 685.0,660.0 L 697.0,651.0"/>
    <path d="M 812.0,557.0 L 781.0,567.0 L 715.0,681.0 L 611.0,803.0 L 546.0,863.0 L 485.0,905.0"/>
    <path d="M 816.0,676.0 L 838.0,711.0 L 780.0,808.0 L 673.0,918.0 L 567.0,988.0"/>
    <path d="M 785.0,848.0 L 815.0,862.0 L 897.0,935.0 L 916.0,970.0 L 919.0,988.0"/>
  </g>
</svg>
