<svg xmlns="http://www.w3.org/2000/svg" viewBox="0 0 1024 1024">
  <g style="fill:none;stroke:#000000;stroke-width:50;stroke-linecap:round;stroke-linejoin:round;" transform="scale(1, 1) translate(0, 0)">
    <path d="M 168.0,279.0 L 194.0,304.0 L 204.0,326.0 L 214.0,495.0 L 212.0,507.0 L 201.0,514.0"/>
    <path d="M 237.0,298.0 L 245.0,306.0 L 259.0,298.0 L 372.0,272.0 L 391.0,277.0 L 413.0,297.0 L 389.0,462.0 L 370.0,485.0"/>
    <path d="M 236.0,412.0 L 242.0,401.0 L 284.0,383.0 L 298.0,384.0 L 313.0,396.0 L 300.0,486.0 L 287.0,500.0"/>
    <path d="M 102.0,518.0 L 114.0,545.0 L 84.0,634.0 L 84.0,672.0"/>
    <path d="M 136.0,544.0 L 166.0,549.0 L 388.0,495.0 L 435.0,491.0 L 454.0,499.0 L 468.0,517.0 L 416.0,580.0"/>
    <path d="M 191.0,605.0 L 216.0,641.0 L 218.0,702.0 L 207.0,820.0 L 178.0,958.0 L 176.0,994.0"/>
    <path d="M 234.0,608.0 L 247.0,615.0 L 261.0,613.0 L 327.0,592.0 L 346.0,597.0 L 366.0,618.0 L 364.0,693.0 L 376.0,917.0 L 371.0,972.0 L 356.0,997.0 L 270.0,963.0"/>
    <path d="M 240.0,735.0 L 248.0,723.0 L 293.0,716.0 L 313.0,720.0"/>
    <path d="M 231.0,833.0 L 238.0,823.0 L 274.0,816.0 L 317.0,819.0"/>
    <path d="M 516.0,324.0 L 564.0,365.0 L 575.0,386.0"/>
    <path d="M 785.0,254.0 L 802.0,283.0 L 717.0,362.0"/>
    <path d="M 500.0,447.0 L 543.0,454.0 L 802.0,412.0 L 851.0,418.0"/>
    <path d="M 624.0,218.0 L 648.0,234.0 L 667.0,257.0 L 651.0,546.0 L 657.0,623.0"/>
    <path d="M 633.0,468.0 L 625.0,473.0 L 615.0,515.0 L 571.0,568.0 L 522.0,610.0 L 448.0,652.0"/>
    <path d="M 680.0,474.0 L 719.0,524.0 L 782.0,580.0 L 841.0,600.0 L 935.0,614.0"/>
    <path d="M 604.0,639.0 L 619.0,654.0 L 628.0,678.0 L 555.0,846.0 L 577.0,862.0 L 632.0,881.0 L 757.0,944.0 L 789.0,965.0 L 836.0,1016.0"/>
    <path d="M 714.0,707.0 L 741.0,730.0 L 747.0,746.0 L 744.0,765.0 L 723.0,839.0 L 682.0,908.0 L 655.0,935.0 L 599.0,969.0 L 543.0,987.0 L 491.0,994.0"/>
    <path d="M 424.0,760.0 L 460.0,769.0 L 659.0,737.0 L 883.0,714.0 L 932.0,719.0 L 965.0,730.0"/>
  </g>
</svg>
