<svg xmlns="http://www.w3.org/2000/svg" viewBox="0 0 1024 1024">
  <g style="fill:none;stroke:#000000;stroke-width:50;stroke-linecap:round;stroke-linejoin:round;" transform="scale(1, 1) translate(0, 0)">
    <path d="M 141.0,258.0 L 172.0,287.0 L 178.0,301.0 L 191.0,499.0 L 203.0,509.0"/>
    <path d="M 201.0,274.0 L 217.0,280.0 L 292.0,259.0 L 331.0,255.0 L 355.0,264.0 L 376.0,283.0 L 345.0,465.0 L 323.0,489.0"/>
    <path d="M 239.0,353.0 L 255.0,377.0 L 258.0,490.0 L 266.0,496.0"/>
    <path d="M 334.0,361.0 L 322.0,370.0 L 289.0,377.0 L 283.0,387.0"/>
    <path d="M 97.0,494.0 L 110.0,527.0 L 80.0,617.0 L 82.0,654.0"/>
    <path d="M 133.0,545.0 L 145.0,537.0 L 378.0,495.0 L 412.0,498.0 L 432.0,509.0 L 435.0,519.0 L 386.0,583.0"/>
    <path d="M 164.0,617.0 L 186.0,643.0 L 191.0,721.0 L 177.0,862.0 L 149.0,976.0 L 148.0,1006.0"/>
    <path d="M 215.0,647.0 L 234.0,634.0 L 303.0,612.0 L 325.0,617.0 L 345.0,638.0 L 336.0,968.0 L 317.0,1002.0 L 245.0,967.0"/>
    <path d="M 209.0,754.0 L 226.0,739.0 L 266.0,732.0 L 286.0,736.0"/>
    <path d="M 202.0,845.0 L 211.0,834.0 L 242.0,827.0 L 285.0,831.0"/>
    <path d="M 617.0,183.0 L 697.0,229.0 L 719.0,260.0"/>
    <path d="M 502.0,318.0 L 490.0,382.0 L 463.0,454.0"/>
    <path d="M 517.0,371.0 L 533.0,357.0 L 719.0,320.0 L 828.0,303.0 L 876.0,309.0 L 899.0,338.0 L 844.0,407.0 L 835.0,410.0"/>
    <path d="M 579.0,422.0 L 640.0,423.0 L 721.0,402.0 L 756.0,403.0"/>
    <path d="M 645.0,445.0 L 665.0,463.0 L 663.0,521.0 L 651.0,565.0"/>
    <path d="M 558.0,487.0 L 536.0,542.0 L 513.0,579.0"/>
    <path d="M 813.0,490.0 L 772.0,489.0 L 665.0,585.0 L 597.0,631.0 L 565.0,642.0 L 556.0,830.0 L 561.0,883.0"/>
    <path d="M 538.0,660.0 L 528.0,677.0 L 512.0,686.0 L 434.0,718.0"/>
    <path d="M 618.0,635.0 L 677.0,612.0 L 765.0,593.0 L 786.0,600.0 L 809.0,621.0 L 814.0,629.0 L 808.0,689.0 L 811.0,805.0 L 802.0,886.0"/>
    <path d="M 589.0,710.0 L 599.0,702.0 L 653.0,689.0 L 700.0,682.0 L 732.0,686.0"/>
    <path d="M 588.0,787.0 L 597.0,777.0 L 662.0,765.0 L 716.0,758.0 L 740.0,762.0"/>
    <path d="M 586.0,859.0 L 596.0,847.0 L 772.0,828.0"/>
    <path d="M 634.0,932.0 L 604.0,936.0 L 531.0,1009.0 L 481.0,1043.0 L 443.0,1059.0"/>
    <path d="M 731.0,916.0 L 821.0,999.0 L 837.0,1027.0 L 843.0,1059.0"/>
  </g>
</svg>
