<svg xmlns="http://www.w3.org/2000/svg" viewBox="0 0 1024 1024">
  <g style="fill:none;stroke:#000000;stroke-width:50;stroke-linecap:round;stroke-linejoin:round;" transform="scale(1, 1) translate(0, 0)">
    <path d="M 166.0,287.0 L 196.0,314.0 L 206.0,348.0 L 219.0,502.0 L 207.0,518.0"/>
    <path d="M 229.0,316.0 L 247.0,302.0 L 356.0,275.0 L 380.0,279.0 L 401.0,291.0 L 410.0,303.0 L 383.0,469.0 L 363.0,491.0"/>
    <path d="M 266.0,377.0 L 289.0,402.0 L 290.0,486.0 L 281.0,502.0"/>
    <path d="M 370.0,371.0 L 323.0,388.0 L 315.0,400.0"/>
    <path d="M 118.0,521.0 L 127.0,560.0 L 98.0,632.0 L 98.0,672.0"/>
    <path d="M 154.0,547.0 L 161.0,554.0 L 178.0,553.0 L 312.0,517.0 L 397.0,501.0 L 425.0,505.0 L 445.0,529.0 L 390.0,590.0"/>
    <path d="M 194.0,620.0 L 218.0,652.0 L 219.0,704.0 L 203.0,848.0 L 190.0,912.0 L 174.0,954.0 L 168.0,1010.0"/>
    <path d="M 243.0,645.0 L 253.0,635.0 L 323.0,613.0 L 347.0,617.0 L 367.0,636.0 L 363.0,729.0 L 373.0,945.0 L 369.0,978.0 L 352.0,1010.0 L 266.0,979.0"/>
    <path d="M 235.0,738.0 L 265.0,722.0 L 314.0,720.0"/>
    <path d="M 226.0,831.0 L 254.0,813.0 L 298.0,805.0 L 318.0,808.0"/>
    <path d="M 471.0,364.0 L 498.0,389.0 L 545.0,587.0"/>
    <path d="M 529.0,392.0 L 537.0,378.0 L 645.0,355.0 L 768.0,335.0 L 812.0,340.0 L 838.0,371.0 L 805.0,478.0 L 778.0,542.0 L 780.0,565.0"/>
    <path d="M 566.0,468.0 L 607.0,464.0 L 691.0,443.0 L 730.0,438.0 L 749.0,443.0"/>
    <path d="M 562.0,260.0 L 596.0,296.0 L 611.0,525.0 L 601.0,541.0"/>
    <path d="M 685.0,210.0 L 719.0,243.0 L 693.0,503.0 L 677.0,526.0"/>
    <path d="M 560.0,573.0 L 567.0,566.0 L 745.0,531.0"/>
    <path d="M 534.0,641.0 L 589.0,648.0 L 719.0,625.0 L 767.0,626.0"/>
    <path d="M 505.0,716.0 L 536.0,746.0 L 564.0,860.0"/>
    <path d="M 559.0,723.0 L 576.0,730.0 L 601.0,729.0 L 738.0,699.0 L 752.0,706.0 L 770.0,729.0 L 753.0,775.0 L 734.0,784.0"/>
    <path d="M 580.0,827.0 L 602.0,832.0 L 717.0,814.0 L 767.0,815.0 L 778.0,821.0"/>
    <path d="M 531.0,882.0 L 576.0,921.0 L 590.0,958.0"/>
    <path d="M 724.0,839.0 L 737.0,850.0 L 746.0,875.0 L 707.0,948.0 L 697.0,955.0"/>
    <path d="M 450.0,1001.0 L 499.0,1009.0 L 643.0,988.0 L 811.0,975.0 L 843.0,978.0 L 889.0,995.0"/>
  </g>
</svg>
