<svg xmlns="http://www.w3.org/2000/svg" viewBox="0 0 1024 1024">
  <g style="fill:none;stroke:#000000;stroke-width:50;stroke-linecap:round;stroke-linejoin:round;" transform="scale(1, 1) translate(0, 0)">
    <path d="M 295.0,318.0 L 319.0,327.0 L 348.0,326.0 L 510.0,292.0 L 557.0,293.0"/>
    <path d="M 229.0,300.0 L 259.0,328.0 L 273.0,353.0 L 291.0,637.0 L 289.0,648.0 L 276.0,657.0"/>
    <path d="M 309.0,437.0 L 324.0,444.0 L 346.0,444.0 L 447.0,421.0 L 492.0,421.0"/>
    <path d="M 311.0,549.0 L 335.0,555.0 L 468.0,533.0 L 499.0,537.0"/>
    <path d="M 94.0,707.0 L 151.0,716.0 L 466.0,648.0 L 504.0,643.0 L 542.0,648.0"/>
    <path d="M 339.0,725.0 L 316.0,730.0 L 297.0,743.0 L 285.0,778.0 L 223.0,876.0 L 217.0,907.0 L 244.0,908.0 L 419.0,851.0 L 477.0,841.0"/>
    <path d="M 447.0,768.0 L 517.0,852.0 L 534.0,900.0"/>
    <path d="M 792.0,266.0 L 817.0,309.0 L 781.0,359.0 L 726.0,415.0 L 675.0,455.0 L 593.0,500.0"/>
    <path d="M 784.0,491.0 L 803.0,529.0 L 761.0,583.0 L 689.0,647.0 L 589.0,700.0"/>
    <path d="M 814.0,666.0 L 827.0,678.0 L 841.0,710.0 L 806.0,767.0 L 743.0,844.0 L 621.0,956.0 L 544.0,1005.0 L 472.0,1040.0"/>
  </g>
</svg>
