<svg xmlns="http://www.w3.org/2000/svg" viewBox="0 0 1024 1024">
  <g style="fill:none;stroke:#000000;stroke-width:50;stroke-linecap:round;stroke-linejoin:round;" transform="scale(1, 1) translate(0, 0)">
    <path d="M 317.0,247.0 L 337.0,251.0 L 373.0,246.0 L 464.0,221.0 L 512.0,217.0"/>
    <path d="M 259.0,230.0 L 292.0,263.0 L 299.0,290.0 L 310.0,442.0 L 297.0,457.0"/>
    <path d="M 331.0,337.0 L 339.0,329.0 L 435.0,306.0 L 477.0,308.0"/>
    <path d="M 330.0,404.0 L 456.0,373.0 L 485.0,376.0"/>
    <path d="M 124.0,507.0 L 147.0,513.0 L 184.0,512.0 L 456.0,447.0 L 497.0,440.0 L 523.0,446.0"/>
    <path d="M 349.0,501.0 L 317.0,523.0 L 296.0,561.0 L 274.0,584.0 L 262.0,621.0 L 287.0,618.0 L 432.0,562.0 L 457.0,560.0"/>
    <path d="M 430.0,495.0 L 488.0,557.0 L 499.0,586.0"/>
    <path d="M 758.0,211.0 L 732.0,215.0 L 654.0,295.0 L 604.0,330.0 L 565.0,348.0"/>
    <path d="M 800.0,307.0 L 775.0,309.0 L 735.0,354.0 L 685.0,395.0 L 618.0,438.0 L 581.0,453.0"/>
    <path d="M 849.0,417.0 L 817.0,420.0 L 754.0,478.0 L 675.0,528.0 L 582.0,566.0"/>
    <path d="M 330.0,673.0 L 372.0,682.0 L 404.0,678.0 L 653.0,626.0 L 681.0,634.0 L 695.0,652.0 L 669.0,745.0 L 628.0,790.0 L 614.0,792.0 L 540.0,749.0"/>
    <path d="M 510.0,712.0 L 485.0,711.0 L 414.0,811.0 L 345.0,874.0 L 259.0,922.0 L 177.0,950.0"/>
    <path d="M 351.0,905.0 L 377.0,913.0 L 408.0,1069.0"/>
    <path d="M 408.0,917.0 L 430.0,902.0 L 659.0,863.0 L 689.0,876.0 L 706.0,899.0 L 684.0,964.0 L 660.0,975.0"/>
    <path d="M 427.0,1050.0 L 439.0,1037.0 L 649.0,1011.0 L 692.0,1013.0 L 717.0,1022.0"/>
  </g>
</svg>
