<svg xmlns="http://www.w3.org/2000/svg" viewBox="0 0 1024 1024">
  <g style="fill:none;stroke:#000000;stroke-width:50;stroke-linecap:round;stroke-linejoin:round;" transform="scale(1, 1) translate(0, 0)">
    <path d="M 325.0,241.0 L 374.0,243.0 L 494.0,214.0 L 521.0,214.0"/>
    <path d="M 264.0,224.0 L 292.0,248.0 L 303.0,267.0 L 320.0,436.0 L 323.0,451.0 L 336.0,458.0"/>
    <path d="M 338.0,334.0 L 345.0,328.0 L 392.0,324.0 L 462.0,306.0 L 497.0,305.0"/>
    <path d="M 342.0,402.0 L 350.0,396.0 L 448.0,379.0 L 500.0,376.0"/>
    <path d="M 114.0,511.0 L 161.0,518.0 L 460.0,458.0 L 513.0,462.0"/>
    <path d="M 339.0,501.0 L 338.0,516.0 L 313.0,529.0 L 271.0,591.0 L 285.0,596.0 L 291.0,622.0 L 426.0,572.0 L 442.0,580.0"/>
    <path d="M 426.0,526.0 L 472.0,569.0 L 487.0,599.0"/>
    <path d="M 795.0,223.0 L 748.0,227.0 L 718.0,261.0 L 656.0,307.0 L 594.0,342.0 L 556.0,355.0"/>
    <path d="M 787.0,362.0 L 744.0,365.0 L 672.0,425.0 L 606.0,461.0 L 580.0,468.0"/>
    <path d="M 829.0,474.0 L 779.0,475.0 L 732.0,517.0 L 692.0,543.0 L 602.0,587.0 L 576.0,593.0"/>
    <path d="M 349.0,662.0 L 380.0,683.0 L 390.0,697.0 L 390.0,889.0 L 375.0,914.0"/>
    <path d="M 420.0,787.0 L 430.0,774.0 L 469.0,763.0 L 516.0,765.0"/>
    <path d="M 222.0,766.0 L 260.0,801.0 L 279.0,906.0 L 280.0,926.0 L 269.0,935.0"/>
    <path d="M 163.0,976.0 L 217.0,995.0 L 517.0,891.0"/>
    <path d="M 788.0,658.0 L 799.0,681.0 L 799.0,701.0 L 694.0,765.0 L 611.0,805.0 L 602.0,817.0"/>
    <path d="M 548.0,630.0 L 587.0,680.0 L 578.0,745.0 L 580.0,885.0 L 594.0,949.0 L 623.0,978.0 L 667.0,993.0 L 745.0,1001.0 L 825.0,1000.0 L 884.0,987.0 L 904.0,976.0 L 912.0,838.0"/>
  </g>
</svg>
