<svg xmlns="http://www.w3.org/2000/svg" viewBox="0 0 1024 1024">
  <g style="fill:none;stroke:#000000;stroke-width:50;stroke-linecap:round;stroke-linejoin:round;" transform="scale(1, 1) translate(0, 0)">
    <path d="M 338.0,231.0 L 373.0,235.0 L 423.0,229.0 L 482.0,212.0 L 519.0,213.0"/>
    <path d="M 280.0,217.0 L 312.0,244.0 L 317.0,258.0 L 339.0,415.0 L 351.0,422.0"/>
    <path d="M 353.0,300.0 L 364.0,307.0 L 469.0,290.0 L 501.0,291.0"/>
    <path d="M 354.0,361.0 L 381.0,368.0 L 474.0,354.0 L 504.0,355.0"/>
    <path d="M 142.0,471.0 L 174.0,477.0 L 218.0,474.0 L 491.0,418.0 L 545.0,421.0"/>
    <path d="M 366.0,478.0 L 337.0,489.0 L 295.0,552.0 L 291.0,578.0 L 317.0,576.0 L 422.0,536.0 L 437.0,537.0 L 445.0,527.0 L 455.0,530.0 L 470.0,518.0 L 488.0,519.0"/>
    <path d="M 465.0,466.0 L 503.0,499.0 L 519.0,523.0"/>
    <path d="M 769.0,199.0 L 725.0,210.0 L 666.0,279.0 L 600.0,332.0 L 578.0,343.0"/>
    <path d="M 793.0,311.0 L 768.0,314.0 L 722.0,361.0 L 677.0,395.0 L 610.0,428.0"/>
    <path d="M 836.0,439.0 L 787.0,437.0 L 753.0,468.0 L 698.0,501.0 L 619.0,536.0 L 582.0,545.0"/>
    <path d="M 319.0,642.0 L 349.0,674.0 L 354.0,742.0 L 346.0,890.0 L 324.0,993.0 L 323.0,1047.0"/>
    <path d="M 381.0,655.0 L 392.0,665.0 L 400.0,664.0 L 659.0,617.0 L 677.0,622.0 L 701.0,643.0 L 706.0,655.0 L 710.0,930.0 L 706.0,1005.0 L 694.0,1034.0 L 594.0,1004.0"/>
    <path d="M 428.0,757.0 L 575.0,728.0 L 615.0,733.0"/>
    <path d="M 478.0,574.0 L 515.0,607.0 L 510.0,806.0 L 495.0,827.0"/>
    <path d="M 87.0,883.0 L 139.0,894.0 L 410.0,855.0 L 851.0,819.0 L 919.0,827.0 L 954.0,840.0"/>
  </g>
</svg>
