<svg xmlns="http://www.w3.org/2000/svg" viewBox="0 0 1024 1024">
  <g style="fill:none;stroke:#000000;stroke-width:50;stroke-linecap:round;stroke-linejoin:round;" transform="scale(1, 1) translate(0, 0)">
    <path d="M 332.0,229.0 L 366.0,233.0 L 467.0,212.0 L 517.0,210.0"/>
    <path d="M 270.0,212.0 L 298.0,236.0 L 309.0,257.0 L 323.0,437.0 L 336.0,445.0"/>
    <path d="M 345.0,311.0 L 382.0,311.0 L 466.0,292.0 L 500.0,292.0"/>
    <path d="M 346.0,378.0 L 379.0,380.0 L 473.0,366.0 L 494.0,368.0"/>
    <path d="M 132.0,491.0 L 160.0,499.0 L 190.0,499.0 L 464.0,444.0 L 503.0,440.0 L 533.0,445.0"/>
    <path d="M 353.0,507.0 L 325.0,514.0 L 275.0,586.0 L 270.0,614.0 L 286.0,614.0 L 405.0,573.0 L 411.0,566.0 L 424.0,567.0 L 436.0,557.0 L 458.0,554.0"/>
    <path d="M 436.0,490.0 L 483.0,547.0 L 487.0,566.0"/>
    <path d="M 826.0,207.0 L 778.0,210.0 L 745.0,245.0 L 678.0,291.0 L 568.0,341.0"/>
    <path d="M 830.0,347.0 L 786.0,349.0 L 722.0,404.0 L 682.0,429.0 L 584.0,474.0"/>
    <path d="M 849.0,486.0 L 800.0,482.0 L 704.0,542.0 L 593.0,575.0"/>
    <path d="M 244.0,729.0 L 283.0,740.0 L 485.0,718.0 L 707.0,681.0 L 765.0,680.0 L 796.0,687.0"/>
    <path d="M 486.0,611.0 L 504.0,624.0 L 522.0,653.0 L 518.0,775.0 L 502.0,799.0"/>
    <path d="M 356.0,831.0 L 392.0,839.0 L 502.0,826.0 L 602.0,805.0 L 675.0,810.0"/>
    <path d="M 331.0,913.0 L 360.0,935.0 L 371.0,954.0 L 400.0,1080.0"/>
    <path d="M 396.0,918.0 L 404.0,927.0 L 439.0,928.0 L 616.0,896.0 L 648.0,895.0 L 662.0,903.0 L 686.0,934.0 L 662.0,989.0 L 631.0,1006.0"/>
    <path d="M 417.0,1066.0 L 433.0,1053.0 L 616.0,1033.0 L 684.0,1044.0"/>
  </g>
</svg>
