<svg xmlns="http://www.w3.org/2000/svg" viewBox="0 0 1024 1024">
  <g style="fill:none;stroke:#000000;stroke-width:50;stroke-linecap:round;stroke-linejoin:round;" transform="scale(1, 1) translate(0, 0)">
    <path d="M 334.0,248.0 L 345.0,256.0 L 369.0,254.0 L 471.0,225.0 L 512.0,226.0"/>
    <path d="M 270.0,231.0 L 302.0,261.0 L 321.0,414.0 L 333.0,423.0"/>
    <path d="M 334.0,330.0 L 422.0,306.0 L 476.0,299.0"/>
    <path d="M 343.0,383.0 L 434.0,363.0 L 487.0,358.0"/>
    <path d="M 139.0,464.0 L 182.0,473.0 L 482.0,420.0 L 530.0,425.0"/>
    <path d="M 356.0,468.0 L 330.0,480.0 L 294.0,527.0 L 288.0,551.0 L 313.0,549.0 L 423.0,506.0 L 453.0,501.0"/>
    <path d="M 444.0,448.0 L 475.0,478.0 L 490.0,509.0"/>
    <path d="M 758.0,213.0 L 713.0,222.0 L 688.0,254.0 L 638.0,297.0 L 580.0,336.0 L 567.0,339.0"/>
    <path d="M 780.0,327.0 L 739.0,334.0 L 713.0,366.0 L 666.0,406.0 L 579.0,455.0"/>
    <path d="M 815.0,447.0 L 771.0,448.0 L 694.0,510.0 L 614.0,551.0 L 588.0,557.0"/>
    <path d="M 452.0,535.0 L 505.0,574.0 L 516.0,593.0"/>
    <path d="M 224.0,624.0 L 230.0,643.0 L 227.0,666.0 L 184.0,730.0 L 179.0,770.0"/>
    <path d="M 256.0,651.0 L 266.0,661.0 L 293.0,661.0 L 453.0,632.0 L 743.0,605.0 L 781.0,618.0 L 798.0,641.0 L 738.0,709.0"/>
    <path d="M 374.0,713.0 L 415.0,720.0 L 557.0,696.0 L 595.0,698.0"/>
    <path d="M 232.0,820.0 L 277.0,828.0 L 421.0,803.0 L 666.0,778.0 L 711.0,782.0 L 745.0,794.0"/>
    <path d="M 478.0,819.0 L 505.0,848.0 L 507.0,970.0 L 501.0,998.0 L 488.0,1020.0 L 408.0,987.0"/>
    <path d="M 329.0,884.0 L 300.0,938.0 L 249.0,1005.0"/>
    <path d="M 629.0,867.0 L 726.0,936.0 L 750.0,963.0 L 767.0,1004.0"/>
  </g>
</svg>
