<svg xmlns="http://www.w3.org/2000/svg" viewBox="0 0 1024 1024">
  <g style="fill:none;stroke:#000000;stroke-width:50;stroke-linecap:round;stroke-linejoin:round;" transform="scale(1, 1) translate(0, 0)">
    <path d="M 308.0,221.0 L 324.0,226.0 L 459.0,194.0 L 484.0,195.0"/>
    <path d="M 262.0,210.0 L 294.0,246.0 L 305.0,356.0 L 305.0,365.0 L 297.0,372.0"/>
    <path d="M 318.0,290.0 L 330.0,278.0 L 365.0,276.0 L 415.0,261.0 L 449.0,261.0"/>
    <path d="M 326.0,342.0 L 332.0,332.0 L 392.0,318.0 L 440.0,310.0 L 453.0,313.0"/>
    <path d="M 117.0,420.0 L 162.0,427.0 L 417.0,372.0 L 473.0,364.0 L 499.0,370.0"/>
    <path d="M 349.0,416.0 L 323.0,428.0 L 312.0,446.0 L 280.0,475.0 L 275.0,500.0 L 297.0,500.0 L 421.0,459.0 L 427.0,465.0"/>
    <path d="M 419.0,414.0 L 462.0,471.0"/>
    <path d="M 728.0,204.0 L 691.0,204.0 L 619.0,259.0 L 543.0,289.0"/>
    <path d="M 764.0,277.0 L 726.0,275.0 L 651.0,332.0 L 584.0,363.0 L 544.0,374.0"/>
    <path d="M 787.0,358.0 L 755.0,354.0 L 727.0,376.0 L 655.0,411.0 L 632.0,420.0 L 622.0,418.0 L 616.0,425.0 L 598.0,425.0 L 586.0,434.0 L 572.0,432.0 L 545.0,440.0"/>
    <path d="M 357.0,505.0 L 371.0,514.0 L 329.0,568.0 L 327.0,588.0 L 382.0,633.0 L 391.0,650.0"/>
    <path d="M 503.0,462.0 L 515.0,494.0 L 478.0,538.0 L 472.0,554.0 L 488.0,577.0 L 517.0,597.0 L 539.0,624.0"/>
    <path d="M 650.0,431.0 L 660.0,439.0 L 663.0,459.0 L 599.0,523.0 L 595.0,543.0 L 658.0,581.0 L 682.0,603.0 L 685.0,613.0"/>
    <path d="M 277.0,663.0 L 304.0,689.0 L 332.0,823.0"/>
    <path d="M 330.0,671.0 L 344.0,681.0 L 512.0,647.0 L 658.0,633.0 L 688.0,666.0 L 659.0,740.0 L 638.0,772.0"/>
    <path d="M 554.0,677.0 L 529.0,683.0 L 497.0,715.0 L 449.0,749.0 L 408.0,767.0 L 394.0,766.0 L 390.0,772.0"/>
    <path d="M 400.0,709.0 L 427.0,707.0 L 538.0,721.0 L 584.0,738.0"/>
    <path d="M 345.0,811.0 L 367.0,801.0 L 607.0,762.0 L 623.0,754.0"/>
    <path d="M 260.0,838.0 L 284.0,869.0 L 281.0,947.0 L 270.0,994.0 L 275.0,1029.0 L 310.0,1021.0 L 370.0,988.0"/>
    <path d="M 343.0,856.0 L 390.0,883.0"/>
    <path d="M 344.0,920.0 L 376.0,935.0 L 394.0,951.0"/>
    <path d="M 448.0,811.0 L 473.0,841.0 L 465.0,982.0 L 471.0,1009.0 L 500.0,999.0 L 533.0,978.0 L 536.0,968.0 L 548.0,968.0 L 554.0,961.0"/>
    <path d="M 547.0,831.0 L 585.0,843.0 L 598.0,854.0"/>
    <path d="M 544.0,892.0 L 581.0,910.0 L 599.0,929.0"/>
    <path d="M 634.0,788.0 L 665.0,833.0 L 660.0,897.0 L 664.0,930.0 L 681.0,973.0 L 719.0,1015.0 L 755.0,1037.0 L 817.0,1055.0 L 855.0,1049.0 L 864.0,1042.0 L 871.0,911.0"/>
  </g>
</svg>
