<svg xmlns="http://www.w3.org/2000/svg" viewBox="0 0 1024 1024">
  <g style="fill:none;stroke:#000000;stroke-width:50;stroke-linecap:round;stroke-linejoin:round;" transform="scale(1, 1) translate(0, 0)">
    <path d="M 302.0,200.0 L 316.0,206.0 L 338.0,230.0 L 258.0,387.0 L 240.0,401.0"/>
    <path d="M 151.0,417.0 L 173.0,435.0 L 184.0,457.0 L 228.0,662.0"/>
    <path d="M 209.0,443.0 L 217.0,427.0 L 229.0,423.0 L 387.0,386.0 L 460.0,376.0 L 490.0,385.0 L 511.0,416.0 L 454.0,619.0"/>
    <path d="M 255.0,533.0 L 384.0,499.0 L 425.0,501.0"/>
    <path d="M 247.0,643.0 L 264.0,632.0 L 378.0,607.0 L 419.0,602.0 L 428.0,610.0"/>
    <path d="M 303.0,425.0 L 338.0,457.0 L 335.0,503.0 L 302.0,695.0 L 274.0,776.0 L 247.0,830.0 L 191.0,902.0 L 125.0,957.0 L 82.0,977.0"/>
    <path d="M 349.0,635.0 L 377.0,652.0 L 393.0,680.0 L 379.0,809.0 L 380.0,871.0 L 388.0,912.0 L 421.0,961.0 L 480.0,991.0 L 557.0,1003.0 L 681.0,1004.0 L 769.0,996.0 L 888.0,966.0 L 931.0,941.0 L 947.0,782.0"/>
    <path d="M 506.0,641.0 L 531.0,666.0 L 503.0,738.0 L 472.0,787.0 L 471.0,804.0 L 501.0,802.0 L 584.0,770.0 L 591.0,776.0"/>
    <path d="M 581.0,721.0 L 629.0,773.0 L 642.0,811.0"/>
    <path d="M 594.0,341.0 L 651.0,366.0 L 668.0,382.0"/>
    <path d="M 587.0,465.0 L 643.0,491.0 L 655.0,503.0"/>
    <path d="M 584.0,617.0 L 620.0,620.0 L 857.0,567.0 L 925.0,578.0"/>
    <path d="M 695.0,223.0 L 709.0,224.0 L 730.0,237.0 L 750.0,263.0 L 747.0,926.0"/>
  </g>
</svg>
