<svg xmlns="http://www.w3.org/2000/svg" viewBox="0 0 1024 1024">
  <g style="fill:none;stroke:#000000;stroke-width:50;stroke-linecap:round;stroke-linejoin:round;" transform="scale(1, 1) translate(0, 0)">
    <path d="M 220.0,264.0 L 243.0,277.0 L 255.0,294.0 L 199.0,438.0 L 187.0,455.0 L 178.0,489.0 L 158.0,508.0"/>
    <path d="M 106.0,510.0 L 130.0,534.0 L 138.0,576.0 L 141.0,706.0 L 129.0,828.0 L 131.0,865.0"/>
    <path d="M 148.0,520.0 L 185.0,521.0 L 213.0,506.0 L 266.0,495.0 L 293.0,500.0 L 308.0,519.0 L 309.0,751.0 L 299.0,830.0 L 305.0,889.0"/>
    <path d="M 165.0,686.0 L 175.0,674.0 L 188.0,670.0 L 221.0,665.0 L 241.0,669.0"/>
    <path d="M 158.0,833.0 L 173.0,817.0 L 243.0,813.0 L 266.0,801.0"/>
    <path d="M 539.0,186.0 L 576.0,217.0 L 492.0,370.0 L 470.0,388.0"/>
    <path d="M 373.0,400.0 L 396.0,422.0 L 404.0,441.0 L 444.0,667.0"/>
    <path d="M 422.0,406.0 L 439.0,415.0 L 672.0,368.0 L 708.0,368.0 L 726.0,377.0 L 748.0,407.0 L 726.0,471.0 L 690.0,631.0"/>
    <path d="M 475.0,533.0 L 614.0,502.0 L 656.0,504.0"/>
    <path d="M 465.0,645.0 L 482.0,634.0 L 669.0,604.0"/>
    <path d="M 533.0,411.0 L 567.0,441.0 L 562.0,505.0 L 525.0,696.0 L 498.0,774.0 L 455.0,850.0 L 414.0,902.0 L 337.0,967.0 L 279.0,996.0"/>
    <path d="M 575.0,690.0 L 609.0,735.0 L 597.0,819.0 L 600.0,935.0 L 614.0,969.0 L 641.0,988.0 L 690.0,1002.0 L 770.0,1004.0 L 869.0,993.0 L 911.0,978.0 L 928.0,968.0 L 934.0,949.0 L 936.0,829.0"/>
    <path d="M 737.0,694.0 L 760.0,721.0 L 731.0,781.0 L 695.0,828.0 L 684.0,861.0 L 710.0,864.0 L 802.0,838.0 L 813.0,837.0 L 819.0,843.0"/>
    <path d="M 809.0,777.0 L 851.0,832.0 L 860.0,870.0"/>
  </g>
</svg>
