<svg xmlns="http://www.w3.org/2000/svg" viewBox="0 0 1024 1024">
  <g style="fill:none;stroke:#000000;stroke-width:50;stroke-linecap:round;stroke-linejoin:round;" transform="scale(1, 1) translate(0, 0)">
    <path d="M 167.0,375.0 L 218.0,377.0 L 341.0,341.0 L 378.0,339.0"/>
    <path d="M 66.0,555.0 L 91.0,561.0 L 125.0,557.0 L 340.0,490.0 L 368.0,485.0 L 401.0,488.0"/>
    <path d="M 218.0,556.0 L 254.0,583.0 L 227.0,651.0 L 162.0,763.0 L 158.0,787.0 L 190.0,786.0 L 300.0,739.0 L 351.0,728.0"/>
    <path d="M 330.0,648.0 L 394.0,738.0 L 405.0,786.0"/>
    <path d="M 583.0,207.0 L 608.0,224.0 L 620.0,241.0 L 551.0,355.0 L 513.0,390.0"/>
    <path d="M 415.0,404.0 L 439.0,426.0 L 447.0,445.0 L 485.0,665.0"/>
    <path d="M 464.0,408.0 L 485.0,417.0 L 583.0,391.0 L 727.0,363.0 L 770.0,367.0 L 801.0,403.0 L 779.0,467.0 L 742.0,618.0"/>
    <path d="M 516.0,532.0 L 660.0,496.0 L 705.0,498.0"/>
    <path d="M 502.0,640.0 L 521.0,629.0 L 696.0,597.0 L 719.0,586.0"/>
    <path d="M 567.0,417.0 L 597.0,436.0 L 608.0,451.0 L 583.0,641.0 L 543.0,759.0 L 504.0,830.0 L 437.0,906.0 L 367.0,960.0 L 312.0,990.0"/>
    <path d="M 608.0,659.0 L 630.0,696.0 L 615.0,828.0 L 618.0,911.0 L 630.0,944.0 L 671.0,975.0 L 719.0,990.0 L 798.0,999.0 L 884.0,988.0 L 935.0,963.0 L 949.0,945.0 L 960.0,808.0"/>
    <path d="M 748.0,682.0 L 770.0,705.0 L 769.0,713.0 L 743.0,774.0 L 712.0,821.0 L 711.0,839.0 L 739.0,839.0 L 823.0,815.0 L 839.0,820.0"/>
    <path d="M 825.0,745.0 L 872.0,805.0 L 884.0,849.0"/>
  </g>
</svg>
