<svg xmlns="http://www.w3.org/2000/svg" viewBox="0 0 1024 1024">
  <g style="fill:none;stroke:#000000;stroke-width:50;stroke-linecap:round;stroke-linejoin:round;" transform="scale(1, 1) translate(0, 0)">
    <path d="M 434.0,175.0 L 447.0,183.0 L 467.0,214.0 L 373.0,343.0 L 350.0,352.0"/>
    <path d="M 242.0,378.0 L 271.0,400.0 L 286.0,429.0 L 343.0,661.0"/>
    <path d="M 296.0,379.0 L 329.0,387.0 L 617.0,329.0 L 680.0,326.0 L 702.0,332.0 L 735.0,372.0 L 699.0,464.0 L 658.0,605.0"/>
    <path d="M 387.0,505.0 L 534.0,470.0 L 578.0,464.0 L 600.0,469.0"/>
    <path d="M 364.0,638.0 L 380.0,627.0 L 613.0,589.0 L 635.0,579.0"/>
    <path d="M 456.0,382.0 L 494.0,406.0 L 497.0,420.0 L 472.0,569.0 L 453.0,644.0 L 407.0,753.0 L 348.0,843.0 L 274.0,915.0 L 214.0,956.0 L 139.0,994.0"/>
    <path d="M 506.0,663.0 L 529.0,685.0 L 546.0,715.0 L 536.0,782.0 L 533.0,864.0 L 541.0,933.0 L 559.0,964.0 L 598.0,987.0 L 674.0,1000.0 L 762.0,1000.0 L 835.0,993.0 L 912.0,970.0 L 932.0,956.0 L 924.0,798.0"/>
    <path d="M 696.0,645.0 L 721.0,675.0 L 695.0,741.0 L 652.0,810.0 L 643.0,844.0 L 676.0,844.0 L 794.0,810.0 L 807.0,814.0"/>
    <path d="M 774.0,727.0 L 832.0,799.0 L 844.0,844.0"/>
  </g>
</svg>
