<svg xmlns="http://www.w3.org/2000/svg" viewBox="0 0 1024 1024">
  <g style="fill:none;stroke:#000000;stroke-width:50;stroke-linecap:round;stroke-linejoin:round;" transform="scale(1, 1) translate(0, 0)">
    <path d="M 285.0,172.0 L 308.0,187.0 L 319.0,203.0 L 236.0,347.0 L 207.0,377.0"/>
    <path d="M 116.0,393.0 L 139.0,410.0 L 152.0,431.0 L 203.0,613.0"/>
    <path d="M 165.0,393.0 L 187.0,400.0 L 391.0,353.0 L 427.0,352.0 L 446.0,361.0 L 464.0,388.0 L 442.0,447.0 L 424.0,532.0 L 406.0,585.0"/>
    <path d="M 235.0,493.0 L 344.0,470.0 L 373.0,475.0"/>
    <path d="M 279.0,396.0 L 300.0,412.0 L 303.0,430.0 L 301.0,539.0 L 287.0,561.0"/>
    <path d="M 221.0,600.0 L 226.0,593.0 L 389.0,559.0"/>
    <path d="M 213.0,626.0 L 224.0,635.0 L 238.0,665.0 L 204.0,755.0 L 132.0,875.0 L 98.0,918.0 L 58.0,954.0"/>
    <path d="M 306.0,609.0 L 330.0,642.0 L 317.0,787.0 L 319.0,847.0 L 327.0,881.0 L 360.0,930.0 L 405.0,960.0 L 450.0,979.0 L 539.0,999.0 L 660.0,1007.0 L 753.0,999.0 L 850.0,975.0 L 910.0,945.0 L 937.0,919.0 L 948.0,796.0"/>
    <path d="M 426.0,651.0 L 442.0,665.0 L 445.0,684.0 L 418.0,746.0 L 396.0,772.0 L 388.0,807.0 L 419.0,805.0 L 467.0,790.0 L 492.0,791.0"/>
    <path d="M 477.0,740.0 L 513.0,784.0 L 521.0,817.0"/>
    <path d="M 592.0,335.0 L 639.0,340.0 L 711.0,327.0 L 814.0,296.0 L 861.0,298.0"/>
    <path d="M 536.0,475.0 L 552.0,489.0 L 564.0,543.0 L 564.0,623.0 L 552.0,715.0 L 553.0,759.0"/>
    <path d="M 575.0,483.0 L 587.0,491.0 L 602.0,491.0 L 838.0,439.0 L 866.0,446.0 L 879.0,458.0 L 885.0,470.0 L 889.0,752.0 L 875.0,787.0 L 791.0,759.0"/>
    <path d="M 685.0,356.0 L 701.0,367.0 L 714.0,389.0 L 705.0,749.0 L 717.0,816.0"/>
    <path d="M 629.0,631.0 L 630.0,643.0 L 582.0,682.0"/>
    <path d="M 599.0,571.0 L 639.0,608.0 L 660.0,635.0 L 666.0,653.0"/>
    <path d="M 781.0,624.0 L 781.0,639.0 L 741.0,676.0"/>
    <path d="M 750.0,560.0 L 764.0,567.0 L 766.0,578.0 L 779.0,585.0 L 781.0,596.0 L 793.0,600.0 L 828.0,644.0 L 841.0,678.0"/>
  </g>
</svg>
