<svg xmlns="http://www.w3.org/2000/svg" viewBox="0 0 1024 1024">
  <g style="fill:none;stroke:#000000;stroke-width:50;stroke-linecap:round;stroke-linejoin:round;" transform="scale(1, 1) translate(0, 0)">
    <path d="M 241.0,203.0 L 253.0,207.0 L 275.0,229.0 L 239.0,318.0 L 197.0,396.0"/>
    <path d="M 89.0,424.0 L 109.0,442.0 L 120.0,466.0 L 152.0,651.0"/>
    <path d="M 130.0,424.0 L 150.0,433.0 L 334.0,394.0 L 364.0,396.0 L 390.0,415.0 L 395.0,423.0 L 368.0,551.0 L 346.0,620.0 L 350.0,638.0"/>
    <path d="M 186.0,537.0 L 275.0,516.0 L 313.0,519.0"/>
    <path d="M 227.0,434.0 L 243.0,447.0 L 248.0,467.0 L 244.0,590.0 L 232.0,602.0"/>
    <path d="M 171.0,640.0 L 190.0,629.0 L 315.0,609.0"/>
    <path d="M 181.0,697.0 L 193.0,706.0 L 206.0,734.0 L 176.0,807.0 L 136.0,878.0 L 90.0,937.0 L 50.0,970.0"/>
    <path d="M 267.0,661.0 L 287.0,682.0 L 299.0,708.0 L 279.0,833.0 L 283.0,938.0 L 308.0,983.0 L 341.0,1011.0 L 379.0,1031.0 L 482.0,1057.0 L 566.0,1065.0 L 729.0,1066.0 L 823.0,1054.0 L 892.0,1032.0 L 924.0,1010.0 L 916.0,905.0"/>
    <path d="M 385.0,672.0 L 404.0,697.0 L 365.0,794.0 L 367.0,810.0 L 382.0,812.0 L 435.0,799.0"/>
    <path d="M 437.0,753.0 L 463.0,811.0"/>
    <path d="M 639.0,237.0 L 673.0,263.0 L 673.0,371.0 L 660.0,392.0"/>
    <path d="M 702.0,317.0 L 710.0,308.0 L 740.0,300.0 L 801.0,285.0 L 822.0,286.0"/>
    <path d="M 561.0,420.0 L 578.0,428.0 L 773.0,385.0 L 821.0,381.0 L 849.0,400.0 L 802.0,472.0"/>
    <path d="M 506.0,412.0 L 533.0,433.0 L 541.0,456.0 L 540.0,570.0 L 527.0,678.0 L 490.0,811.0 L 447.0,894.0 L 418.0,931.0"/>
    <path d="M 594.0,527.0 L 633.0,523.0 L 730.0,490.0 L 773.0,487.0"/>
    <path d="M 649.0,452.0 L 663.0,471.0 L 663.0,565.0 L 672.0,580.0 L 697.0,595.0 L 749.0,602.0 L 782.0,596.0 L 804.0,583.0 L 812.0,572.0 L 813.0,501.0"/>
    <path d="M 646.0,650.0 L 664.0,677.0 L 665.0,691.0 L 669.0,842.0 L 668.0,854.0 L 659.0,864.0"/>
    <path d="M 733.0,642.0 L 761.0,673.0 L 745.0,841.0 L 735.0,850.0"/>
    <path d="M 569.0,692.0 L 590.0,717.0 L 585.0,808.0 L 621.0,804.0 L 638.0,797.0 L 646.0,786.0"/>
    <path d="M 849.0,637.0 L 867.0,671.0 L 843.0,739.0 L 832.0,743.0"/>
    <path d="M 768.0,787.0 L 794.0,775.0 L 830.0,770.0 L 868.0,776.0"/>
    <path d="M 525.0,905.0 L 556.0,906.0 L 815.0,860.0 L 871.0,861.0 L 898.0,869.0"/>
  </g>
</svg>
