<svg xmlns="http://www.w3.org/2000/svg" viewBox="0 0 1024 1024">
  <g style="fill:none;stroke:#000000;stroke-width:50;stroke-linecap:round;stroke-linejoin:round;" transform="scale(1, 1) translate(0, 0)">
    <path d="M 282.0,216.0 L 304.0,250.0 L 287.0,287.0 L 219.0,376.0 L 124.0,461.0"/>
    <path d="M 262.0,362.0 L 367.0,346.0 L 401.0,357.0 L 352.0,434.0 L 291.0,505.0"/>
    <path d="M 144.0,523.0 L 175.0,555.0 L 220.0,754.0"/>
    <path d="M 204.0,549.0 L 229.0,533.0 L 380.0,506.0 L 421.0,510.0 L 441.0,527.0 L 446.0,536.0 L 416.0,661.0 L 397.0,713.0 L 398.0,735.0"/>
    <path d="M 247.0,629.0 L 335.0,608.0 L 369.0,611.0"/>
    <path d="M 291.0,545.0 L 307.0,559.0 L 305.0,674.0 L 292.0,697.0"/>
    <path d="M 240.0,738.0 L 245.0,729.0 L 370.0,701.0"/>
    <path d="M 125.0,807.0 L 120.0,880.0 L 98.0,964.0"/>
    <path d="M 201.0,813.0 L 231.0,869.0 L 233.0,889.0"/>
    <path d="M 280.0,798.0 L 314.0,849.0 L 319.0,870.0"/>
    <path d="M 367.0,788.0 L 403.0,840.0"/>
    <path d="M 496.0,569.0 L 521.0,574.0 L 559.0,571.0 L 644.0,550.0 L 744.0,515.0 L 790.0,514.0"/>
    <path d="M 563.0,228.0 L 596.0,246.0 L 616.0,276.0 L 597.0,509.0 L 582.0,603.0 L 561.0,686.0 L 516.0,797.0 L 457.0,889.0 L 403.0,946.0 L 343.0,988.0"/>
    <path d="M 664.0,605.0 L 691.0,640.0 L 677.0,773.0 L 678.0,881.0 L 691.0,922.0 L 713.0,942.0 L 768.0,962.0 L 829.0,965.0 L 865.0,961.0 L 912.0,942.0 L 932.0,921.0 L 936.0,781.0"/>
    <path d="M 733.0,335.0 L 811.0,372.0 L 842.0,408.0"/>
  </g>
</svg>
