<svg xmlns="http://www.w3.org/2000/svg" viewBox="0 0 1024 1024">
  <g style="fill:none;stroke:#000000;stroke-width:50;stroke-linecap:round;stroke-linejoin:round;" transform="scale(1, 1) translate(0, 0)">
    <path d="M 313.0,228.0 L 326.0,240.0 L 337.0,264.0 L 331.0,287.0 L 293.0,352.0 L 238.0,428.0 L 168.0,495.0"/>
    <path d="M 304.0,379.0 L 397.0,362.0 L 434.0,378.0 L 356.0,489.0 L 330.0,519.0 L 311.0,530.0"/>
    <path d="M 131.0,568.0 L 163.0,591.0 L 172.0,606.0 L 228.0,794.0"/>
    <path d="M 196.0,564.0 L 211.0,575.0 L 398.0,533.0 L 428.0,535.0 L 443.0,543.0 L 461.0,568.0 L 434.0,678.0 L 408.0,751.0 L 390.0,755.0"/>
    <path d="M 239.0,669.0 L 359.0,640.0 L 389.0,643.0"/>
    <path d="M 286.0,573.0 L 308.0,592.0 L 309.0,601.0 L 309.0,699.0 L 296.0,725.0"/>
    <path d="M 244.0,766.0 L 251.0,758.0 L 272.0,752.0 L 371.0,735.0"/>
    <path d="M 175.0,833.0 L 131.0,965.0 L 130.0,1005.0"/>
    <path d="M 237.0,855.0 L 273.0,917.0 L 281.0,946.0"/>
    <path d="M 322.0,836.0 L 376.0,894.0 L 381.0,912.0"/>
    <path d="M 428.0,824.0 L 489.0,883.0 L 505.0,919.0"/>
    <path d="M 544.0,367.0 L 568.0,374.0 L 622.0,370.0 L 759.0,333.0 L 821.0,330.0"/>
    <path d="M 531.0,502.0 L 578.0,556.0 L 589.0,594.0"/>
    <path d="M 831.0,430.0 L 853.0,465.0 L 761.0,560.0"/>
    <path d="M 479.0,703.0 L 526.0,708.0 L 658.0,679.0 L 854.0,650.0 L 893.0,650.0 L 947.0,663.0"/>
    <path d="M 645.0,393.0 L 687.0,414.0 L 689.0,432.0 L 687.0,1082.0"/>
  </g>
</svg>
