<svg xmlns="http://www.w3.org/2000/svg" viewBox="0 0 1024 1024">
  <g style="fill:none;stroke:#000000;stroke-width:50;stroke-linecap:round;stroke-linejoin:round;" transform="scale(1, 1) translate(0, 0)">
    <path d="M 257.0,241.0 L 329.0,271.0 L 367.0,310.0"/>
    <path d="M 214.0,347.0 L 278.0,379.0 L 296.0,398.0"/>
    <path d="M 234.0,649.0 L 234.0,588.0 L 303.0,493.0 L 323.0,468.0 L 332.0,465.0 L 344.0,442.0"/>
    <path d="M 552.0,186.0 L 575.0,199.0 L 592.0,220.0 L 591.0,388.0 L 576.0,425.0 L 499.0,392.0"/>
    <path d="M 449.0,320.0 L 440.0,353.0 L 397.0,434.0"/>
    <path d="M 710.0,269.0 L 797.0,312.0 L 818.0,329.0 L 839.0,358.0"/>
    <path d="M 709.0,353.0 L 722.0,388.0 L 675.0,452.0 L 598.0,508.0 L 533.0,531.0"/>
    <path d="M 455.0,494.0 L 470.0,524.0 L 466.0,536.0 L 391.0,618.0 L 334.0,657.0"/>
    <path d="M 468.0,579.0 L 535.0,573.0 L 550.0,565.0 L 571.0,566.0 L 593.0,579.0 L 530.0,665.0 L 501.0,684.0"/>
    <path d="M 312.0,708.0 L 341.0,733.0 L 388.0,914.0"/>
    <path d="M 370.0,715.0 L 381.0,724.0 L 620.0,680.0 L 658.0,681.0 L 676.0,688.0 L 697.0,716.0 L 671.0,807.0 L 642.0,881.0 L 643.0,905.0"/>
    <path d="M 430.0,800.0 L 454.0,800.0 L 555.0,778.0 L 592.0,782.0"/>
    <path d="M 484.0,723.0 L 504.0,736.0 L 510.0,758.0 L 509.0,845.0 L 495.0,866.0"/>
    <path d="M 404.0,906.0 L 424.0,897.0 L 586.0,877.0 L 608.0,869.0"/>
    <path d="M 255.0,942.0 L 238.0,998.0 L 203.0,1057.0 L 194.0,1085.0"/>
    <path d="M 391.0,965.0 L 419.0,1003.0 L 432.0,1035.0"/>
    <path d="M 553.0,953.0 L 593.0,997.0 L 606.0,1026.0"/>
    <path d="M 729.0,932.0 L 828.0,1017.0 L 843.0,1040.0 L 851.0,1071.0"/>
  </g>
</svg>
