<svg xmlns="http://www.w3.org/2000/svg" viewBox="0 0 1024 1024">
  <g style="fill:none;stroke:#000000;stroke-width:50;stroke-linecap:round;stroke-linejoin:round;" transform="scale(1, 1) translate(0, 0)">
    <path d="M 311.0,202.0 L 328.0,223.0 L 333.0,245.0 L 308.0,292.0 L 209.0,415.0 L 159.0,456.0"/>
    <path d="M 292.0,359.0 L 321.0,359.0 L 377.0,345.0 L 408.0,357.0 L 340.0,448.0 L 279.0,506.0"/>
    <path d="M 141.0,528.0 L 170.0,563.0 L 208.0,767.0"/>
    <path d="M 188.0,533.0 L 208.0,538.0 L 381.0,502.0 L 412.0,503.0 L 430.0,511.0 L 447.0,531.0 L 407.0,691.0 L 392.0,727.0 L 394.0,747.0"/>
    <path d="M 247.0,637.0 L 333.0,616.0 L 369.0,619.0"/>
    <path d="M 282.0,540.0 L 303.0,555.0 L 305.0,570.0 L 299.0,680.0 L 284.0,705.0"/>
    <path d="M 225.0,747.0 L 235.0,738.0 L 260.0,731.0 L 364.0,713.0"/>
    <path d="M 136.0,821.0 L 100.0,930.0 L 97.0,972.0"/>
    <path d="M 200.0,837.0 L 223.0,876.0 L 226.0,905.0"/>
    <path d="M 285.0,820.0 L 311.0,862.0 L 314.0,880.0"/>
    <path d="M 358.0,799.0 L 398.0,837.0 L 408.0,864.0"/>
    <path d="M 504.0,325.0 L 533.0,350.0 L 541.0,393.0 L 539.0,537.0 L 524.0,674.0 L 508.0,750.0 L 480.0,831.0 L 421.0,950.0 L 391.0,991.0"/>
    <path d="M 561.0,336.0 L 578.0,346.0 L 787.0,305.0 L 825.0,303.0 L 856.0,315.0 L 876.0,340.0 L 884.0,936.0 L 865.0,983.0 L 836.0,979.0 L 762.0,949.0"/>
    <path d="M 598.0,501.0 L 656.0,499.0 L 766.0,465.0 L 795.0,464.0"/>
    <path d="M 649.0,356.0 L 688.0,390.0 L 686.0,566.0 L 671.0,591.0"/>
    <path d="M 606.0,620.0 L 621.0,622.0 L 745.0,599.0 L 792.0,602.0"/>
    <path d="M 579.0,704.0 L 607.0,733.0 L 633.0,843.0"/>
    <path d="M 622.0,704.0 L 632.0,712.0 L 730.0,689.0 L 754.0,692.0 L 773.0,712.0 L 771.0,722.0 L 754.0,763.0 L 732.0,779.0"/>
    <path d="M 650.0,823.0 L 655.0,815.0 L 720.0,801.0 L 780.0,804.0"/>
  </g>
</svg>
