<svg xmlns="http://www.w3.org/2000/svg" viewBox="0 0 1024 1024">
  <g style="fill:none;stroke:#000000;stroke-width:50;stroke-linecap:round;stroke-linejoin:round;" transform="scale(1, 1) translate(0, 0)">
    <path d="M 238.0,240.0 L 257.0,260.0 L 264.0,279.0 L 261.0,286.0 L 197.0,390.0 L 158.0,435.0 L 135.0,452.0"/>
    <path d="M 266.0,340.0 L 353.0,329.0 L 377.0,337.0 L 385.0,346.0 L 288.0,466.0 L 256.0,487.0"/>
    <path d="M 111.0,512.0 L 141.0,548.0 L 169.0,741.0"/>
    <path d="M 152.0,512.0 L 174.0,520.0 L 362.0,485.0 L 390.0,493.0 L 404.0,506.0 L 413.0,518.0 L 376.0,686.0 L 366.0,709.0 L 345.0,700.0"/>
    <path d="M 192.0,620.0 L 298.0,595.0 L 327.0,592.0 L 348.0,597.0"/>
    <path d="M 239.0,525.0 L 261.0,541.0 L 266.0,565.0 L 265.0,661.0 L 251.0,684.0"/>
    <path d="M 188.0,724.0 L 224.0,710.0 L 294.0,697.0 L 327.0,697.0"/>
    <path d="M 94.0,794.0 L 90.0,918.0 L 101.0,955.0"/>
    <path d="M 169.0,809.0 L 195.0,874.0 L 199.0,900.0"/>
    <path d="M 237.0,787.0 L 274.0,841.0 L 278.0,858.0"/>
    <path d="M 322.0,767.0 L 357.0,808.0 L 366.0,830.0"/>
    <path d="M 492.0,279.0 L 516.0,300.0 L 524.0,319.0 L 553.0,549.0"/>
    <path d="M 553.0,283.0 L 568.0,295.0 L 723.0,275.0 L 763.0,287.0 L 782.0,313.0 L 732.0,504.0 L 726.0,515.0 L 693.0,512.0"/>
    <path d="M 570.0,417.0 L 576.0,407.0 L 624.0,397.0 L 666.0,395.0 L 687.0,401.0"/>
    <path d="M 575.0,509.0 L 591.0,498.0 L 648.0,489.0 L 693.0,493.0"/>
    <path d="M 516.0,751.0 L 529.0,739.0 L 565.0,727.0 L 619.0,726.0"/>
    <path d="M 458.0,623.0 L 481.0,642.0 L 494.0,670.0 L 483.0,872.0 L 490.0,912.0 L 534.0,896.0 L 625.0,827.0"/>
    <path d="M 818.0,626.0 L 832.0,663.0 L 727.0,749.0 L 717.0,764.0"/>
    <path d="M 669.0,587.0 L 696.0,619.0 L 691.0,772.0 L 700.0,858.0 L 715.0,896.0 L 737.0,917.0 L 777.0,932.0 L 817.0,936.0 L 865.0,932.0 L 914.0,911.0 L 932.0,891.0 L 932.0,769.0"/>
  </g>
</svg>
