<svg xmlns="http://www.w3.org/2000/svg" viewBox="0 0 1024 1024">
  <g style="fill:none;stroke:#000000;stroke-width:50;stroke-linecap:round;stroke-linejoin:round;" transform="scale(1, 1) translate(0, 0)">
    <path d="M 230.0,288.0 L 249.0,308.0 L 256.0,327.0 L 185.0,442.0 L 155.0,478.0 L 123.0,504.0"/>
    <path d="M 254.0,392.0 L 341.0,377.0 L 373.0,393.0 L 353.0,426.0 L 273.0,520.0 L 252.0,530.0"/>
    <path d="M 99.0,560.0 L 124.0,583.0 L 131.0,602.0 L 161.0,793.0"/>
    <path d="M 154.0,565.0 L 165.0,572.0 L 297.0,543.0 L 354.0,537.0 L 382.0,545.0 L 396.0,558.0 L 404.0,570.0 L 373.0,701.0 L 354.0,755.0 L 359.0,777.0"/>
    <path d="M 184.0,672.0 L 306.0,645.0 L 336.0,650.0"/>
    <path d="M 228.0,579.0 L 249.0,595.0 L 254.0,618.0 L 252.0,718.0 L 239.0,735.0"/>
    <path d="M 182.0,775.0 L 189.0,766.0 L 313.0,743.0"/>
    <path d="M 86.0,843.0 L 80.0,970.0 L 89.0,1006.0"/>
    <path d="M 161.0,861.0 L 187.0,947.0"/>
    <path d="M 229.0,839.0 L 266.0,889.0 L 268.0,905.0"/>
    <path d="M 314.0,815.0 L 349.0,856.0 L 358.0,878.0"/>
    <path d="M 533.0,410.0 L 582.0,416.0 L 633.0,408.0 L 731.0,380.0 L 793.0,377.0"/>
    <path d="M 619.0,204.0 L 663.0,243.0 L 655.0,469.0 L 637.0,495.0"/>
    <path d="M 468.0,532.0 L 520.0,539.0 L 686.0,511.0 L 827.0,495.0 L 876.0,500.0 L 905.0,510.0"/>
    <path d="M 528.0,582.0 L 546.0,610.0 L 530.0,638.0 L 484.0,692.0 L 431.0,732.0"/>
    <path d="M 746.0,579.0 L 849.0,649.0 L 865.0,668.0 L 878.0,698.0"/>
    <path d="M 587.0,653.0 L 609.0,683.0 L 576.0,752.0 L 519.0,830.0 L 440.0,906.0 L 421.0,920.0 L 406.0,922.0 L 403.0,932.0"/>
    <path d="M 622.0,734.0 L 644.0,721.0 L 707.0,713.0 L 737.0,721.0 L 754.0,734.0 L 722.0,814.0 L 685.0,884.0 L 647.0,932.0 L 578.0,981.0 L 510.0,1010.0 L 435.0,1024.0"/>
    <path d="M 573.0,800.0 L 589.0,801.0 L 599.0,809.0 L 710.0,931.0 L 812.0,1012.0 L 949.0,1029.0"/>
  </g>
</svg>
