<svg xmlns="http://www.w3.org/2000/svg" viewBox="0 0 1024 1024">
  <g style="fill:none;stroke:#000000;stroke-width:50;stroke-linecap:round;stroke-linejoin:round;" transform="scale(1, 1) translate(0, 0)">
    <path d="M 222.0,273.0 L 241.0,292.0 L 248.0,311.0 L 183.0,421.0 L 141.0,471.0 L 118.0,488.0"/>
    <path d="M 241.0,383.0 L 305.0,368.0 L 334.0,372.0 L 350.0,380.0 L 351.0,387.0 L 271.0,487.0 L 226.0,525.0"/>
    <path d="M 95.0,544.0 L 116.0,562.0 L 127.0,589.0 L 153.0,777.0"/>
    <path d="M 144.0,548.0 L 165.0,555.0 L 289.0,527.0 L 346.0,521.0 L 374.0,529.0 L 388.0,542.0 L 397.0,554.0 L 365.0,703.0 L 350.0,741.0 L 329.0,732.0"/>
    <path d="M 176.0,656.0 L 282.0,631.0 L 311.0,628.0 L 332.0,633.0"/>
    <path d="M 223.0,561.0 L 244.0,576.0 L 250.0,602.0 L 248.0,700.0 L 234.0,718.0"/>
    <path d="M 172.0,760.0 L 193.0,748.0 L 278.0,730.0 L 311.0,729.0"/>
    <path d="M 78.0,826.0 L 75.0,962.0 L 85.0,991.0"/>
    <path d="M 153.0,844.0 L 182.0,931.0"/>
    <path d="M 221.0,823.0 L 258.0,873.0 L 260.0,889.0"/>
    <path d="M 306.0,799.0 L 341.0,840.0 L 350.0,862.0"/>
    <path d="M 441.0,363.0 L 493.0,370.0 L 598.0,355.0 L 712.0,329.0 L 747.0,333.0"/>
    <path d="M 480.0,392.0 L 509.0,414.0 L 511.0,435.0 L 505.0,766.0 L 488.0,780.0"/>
    <path d="M 615.0,374.0 L 647.0,403.0 L 646.0,699.0 L 633.0,994.0 L 647.0,1078.0"/>
    <path d="M 537.0,554.0 L 544.0,543.0 L 559.0,538.0 L 604.0,542.0"/>
    <path d="M 529.0,674.0 L 544.0,660.0 L 573.0,656.0 L 604.0,662.0"/>
    <path d="M 403.0,824.0 L 445.0,837.0 L 723.0,725.0"/>
    <path d="M 712.0,562.0 L 761.0,562.0 L 845.0,536.0 L 883.0,543.0 L 878.0,597.0 L 851.0,709.0 L 812.0,804.0 L 748.0,879.0 L 707.0,903.0 L 669.0,911.0"/>
    <path d="M 719.0,639.0 L 802.0,725.0 L 892.0,836.0 L 926.0,891.0 L 933.0,933.0"/>
  </g>
</svg>
