<svg xmlns="http://www.w3.org/2000/svg" viewBox="0 0 1024 1024">
  <g style="fill:none;stroke:#000000;stroke-width:50;stroke-linecap:round;stroke-linejoin:round;" transform="scale(1, 1) translate(0, 0)">
    <path d="M 239.0,227.0 L 257.0,246.0 L 266.0,271.0 L 194.0,385.0 L 141.0,448.0 L 98.0,487.0"/>
    <path d="M 239.0,363.0 L 262.0,353.0 L 304.0,347.0 L 332.0,350.0 L 351.0,361.0 L 259.0,509.0 L 239.0,523.0"/>
    <path d="M 93.0,559.0 L 123.0,587.0 L 149.0,684.0 L 157.0,742.0 L 169.0,766.0"/>
    <path d="M 151.0,575.0 L 156.0,565.0 L 190.0,553.0 L 329.0,513.0 L 354.0,511.0 L 376.0,519.0 L 392.0,539.0 L 364.0,671.0 L 347.0,722.0 L 350.0,738.0"/>
    <path d="M 193.0,651.0 L 283.0,621.0 L 314.0,623.0"/>
    <path d="M 233.0,557.0 L 251.0,570.0 L 254.0,586.0 L 256.0,694.0 L 249.0,709.0"/>
    <path d="M 183.0,751.0 L 188.0,742.0 L 318.0,708.0"/>
    <path d="M 105.0,808.0 L 89.0,930.0 L 95.0,963.0"/>
    <path d="M 177.0,823.0 L 196.0,870.0 L 197.0,897.0"/>
    <path d="M 253.0,813.0 L 273.0,846.0 L 285.0,881.0"/>
    <path d="M 328.0,793.0 L 365.0,835.0 L 369.0,849.0"/>
    <path d="M 431.0,383.0 L 454.0,406.0 L 458.0,422.0 L 463.0,485.0 L 456.0,707.0 L 461.0,724.0"/>
    <path d="M 480.0,398.0 L 489.0,403.0 L 502.0,400.0 L 594.0,371.0 L 616.0,375.0 L 637.0,396.0 L 636.0,657.0 L 628.0,697.0 L 632.0,743.0"/>
    <path d="M 481.0,514.0 L 492.0,503.0 L 524.0,494.0 L 580.0,493.0"/>
    <path d="M 480.0,603.0 L 530.0,585.0 L 579.0,584.0"/>
    <path d="M 480.0,700.0 L 493.0,690.0 L 597.0,678.0"/>
    <path d="M 464.0,773.0 L 477.0,811.0 L 453.0,844.0 L 374.0,921.0 L 340.0,944.0 L 331.0,944.0"/>
    <path d="M 570.0,788.0 L 639.0,845.0 L 667.0,894.0"/>
    <path d="M 716.0,446.0 L 739.0,472.0 L 742.0,623.0 L 737.0,671.0 L 742.0,708.0"/>
    <path d="M 818.0,269.0 L 860.0,302.0 L 865.0,319.0 L 860.0,537.0 L 871.0,904.0 L 852.0,954.0 L 744.0,903.0"/>
  </g>
</svg>
