<svg xmlns="http://www.w3.org/2000/svg" viewBox="0 0 1024 1024">
  <g style="fill:none;stroke:#000000;stroke-width:50;stroke-linecap:round;stroke-linejoin:round;" transform="scale(1, 1) translate(0, 0)">
    <path d="M 242.0,207.0 L 266.0,239.0 L 267.0,249.0 L 254.0,275.0 L 182.0,382.0 L 115.0,448.0"/>
    <path d="M 225.0,362.0 L 310.0,344.0 L 345.0,356.0 L 336.0,379.0 L 272.0,478.0 L 252.0,490.0"/>
    <path d="M 101.0,516.0 L 127.0,539.0 L 168.0,759.0"/>
    <path d="M 157.0,543.0 L 180.0,527.0 L 320.0,495.0 L 369.0,498.0 L 390.0,515.0 L 395.0,523.0 L 351.0,721.0 L 354.0,735.0"/>
    <path d="M 204.0,631.0 L 301.0,605.0 L 329.0,608.0"/>
    <path d="M 233.0,537.0 L 254.0,551.0 L 258.0,569.0 L 256.0,691.0 L 242.0,706.0"/>
    <path d="M 185.0,744.0 L 204.0,733.0 L 279.0,721.0 L 322.0,706.0"/>
    <path d="M 113.0,799.0 L 99.0,917.0 L 107.0,956.0"/>
    <path d="M 191.0,814.0 L 225.0,890.0"/>
    <path d="M 274.0,800.0 L 307.0,859.0"/>
    <path d="M 342.0,778.0 L 389.0,822.0 L 401.0,851.0"/>
    <path d="M 408.0,390.0 L 441.0,398.0 L 503.0,393.0 L 831.0,336.0 L 894.0,343.0"/>
    <path d="M 559.0,242.0 L 586.0,256.0 L 597.0,278.0 L 607.0,342.0 L 614.0,511.0"/>
    <path d="M 713.0,196.0 L 739.0,221.0 L 746.0,236.0 L 720.0,416.0 L 703.0,438.0"/>
    <path d="M 629.0,486.0 L 695.0,464.0 L 737.0,460.0 L 757.0,467.0"/>
    <path d="M 466.0,294.0 L 497.0,320.0 L 504.0,344.0 L 507.0,562.0 L 513.0,575.0 L 551.0,576.0 L 668.0,551.0 L 787.0,540.0 L 837.0,553.0"/>
    <path d="M 436.0,709.0 L 486.0,716.0 L 826.0,674.0 L 874.0,678.0 L 905.0,689.0"/>
    <path d="M 597.0,593.0 L 609.0,599.0 L 627.0,630.0 L 625.0,877.0 L 617.0,994.0 L 629.0,1063.0"/>
    <path d="M 597.0,723.0 L 590.0,730.0 L 584.0,766.0 L 530.0,841.0 L 459.0,909.0 L 364.0,968.0"/>
    <path d="M 653.0,717.0 L 709.0,793.0 L 819.0,904.0 L 849.0,917.0 L 956.0,936.0"/>
  </g>
</svg>
