<svg xmlns="http://www.w3.org/2000/svg" viewBox="0 0 1024 1024">
  <g style="fill:none;stroke:#000000;stroke-width:50;stroke-linecap:round;stroke-linejoin:round;" transform="scale(1, 1) translate(0, 0)">
    <path d="M 276.0,295.0 L 355.0,293.0 L 444.0,270.0 L 481.0,270.0"/>
    <path d="M 358.0,156.0 L 392.0,187.0 L 386.0,330.0 L 372.0,354.0"/>
    <path d="M 92.0,423.0 L 106.0,429.0 L 145.0,429.0 L 415.0,363.0 L 480.0,354.0 L 507.0,358.0"/>
    <path d="M 316.0,404.0 L 360.0,450.0"/>
    <path d="M 489.0,448.0 L 431.0,451.0 L 208.0,512.0 L 188.0,515.0 L 163.0,509.0"/>
    <path d="M 333.0,502.0 L 295.0,569.0 L 233.0,640.0 L 170.0,691.0 L 132.0,713.0"/>
    <path d="M 353.0,536.0 L 359.0,530.0 L 383.0,533.0 L 408.0,556.0 L 382.0,622.0 L 366.0,645.0 L 339.0,664.0 L 307.0,640.0 L 305.0,632.0"/>
    <path d="M 622.0,162.0 L 643.0,179.0 L 653.0,197.0 L 636.0,248.0 L 578.0,365.0 L 517.0,445.0"/>
    <path d="M 618.0,343.0 L 634.0,336.0 L 684.0,333.0 L 794.0,304.0 L 836.0,305.0"/>
    <path d="M 712.0,357.0 L 729.0,375.0 L 696.0,449.0 L 661.0,494.0 L 605.0,538.0 L 582.0,547.0 L 578.0,555.0"/>
    <path d="M 576.0,413.0 L 605.0,421.0 L 713.0,528.0 L 821.0,610.0 L 937.0,616.0"/>
    <path d="M 511.0,565.0 L 493.0,575.0 L 462.0,641.0 L 416.0,698.0"/>
    <path d="M 498.0,621.0 L 558.0,605.0 L 588.0,616.0 L 537.0,689.0 L 521.0,699.0"/>
    <path d="M 308.0,741.0 L 332.0,758.0 L 345.0,782.0 L 392.0,946.0"/>
    <path d="M 357.0,742.0 L 376.0,751.0 L 590.0,706.0 L 647.0,704.0 L 669.0,712.0 L 690.0,738.0 L 639.0,894.0 L 629.0,914.0 L 608.0,913.0"/>
    <path d="M 432.0,833.0 L 532.0,807.0 L 562.0,803.0 L 581.0,808.0"/>
    <path d="M 474.0,749.0 L 497.0,766.0 L 500.0,782.0 L 500.0,861.0 L 486.0,885.0"/>
    <path d="M 407.0,932.0 L 437.0,919.0 L 600.0,891.0"/>
    <path d="M 212.0,945.0 L 204.0,1005.0 L 175.0,1097.0"/>
    <path d="M 346.0,983.0 L 391.0,1043.0 L 400.0,1068.0"/>
    <path d="M 503.0,967.0 L 550.0,1014.0 L 566.0,1042.0"/>
    <path d="M 704.0,937.0 L 791.0,1012.0 L 815.0,1051.0 L 824.0,1085.0"/>
  </g>
</svg>
