<svg xmlns="http://www.w3.org/2000/svg" viewBox="0 0 1024 1024">
  <g style="fill:none;stroke:#000000;stroke-width:50;stroke-linecap:round;stroke-linejoin:round;" transform="scale(1, 1) translate(0, 0)">
    <path d="M 262.0,208.0 L 281.0,228.0 L 288.0,246.0 L 274.0,277.0 L 211.0,375.0 L 170.0,423.0 L 146.0,440.0"/>
    <path d="M 266.0,340.0 L 353.0,327.0 L 386.0,341.0 L 306.0,468.0 L 281.0,486.0"/>
    <path d="M 116.0,515.0 L 141.0,537.0 L 147.0,551.0 L 188.0,754.0"/>
    <path d="M 170.0,520.0 L 186.0,525.0 L 335.0,488.0 L 384.0,489.0 L 399.0,497.0 L 416.0,517.0 L 385.0,663.0 L 370.0,702.0 L 350.0,693.0"/>
    <path d="M 208.0,621.0 L 301.0,597.0 L 337.0,600.0"/>
    <path d="M 249.0,526.0 L 271.0,544.0 L 272.0,557.0 L 272.0,661.0 L 269.0,674.0 L 259.0,683.0"/>
    <path d="M 205.0,722.0 L 223.0,712.0 L 333.0,691.0"/>
    <path d="M 129.0,785.0 L 113.0,914.0 L 119.0,948.0"/>
    <path d="M 203.0,807.0 L 231.0,868.0 L 233.0,887.0"/>
    <path d="M 282.0,801.0 L 306.0,835.0 L 314.0,858.0"/>
    <path d="M 353.0,773.0 L 390.0,816.0 L 397.0,833.0"/>
    <path d="M 513.0,299.0 L 551.0,306.0 L 585.0,303.0 L 728.0,269.0 L 796.0,264.0"/>
    <path d="M 466.0,429.0 L 487.0,445.0 L 499.0,466.0 L 532.0,588.0"/>
    <path d="M 507.0,429.0 L 535.0,436.0 L 746.0,393.0 L 810.0,393.0 L 828.0,411.0 L 834.0,427.0 L 791.0,531.0 L 791.0,554.0"/>
    <path d="M 560.0,328.0 L 597.0,360.0 L 608.0,512.0 L 608.0,522.0 L 599.0,530.0"/>
    <path d="M 679.0,308.0 L 705.0,325.0 L 714.0,340.0 L 699.0,487.0 L 682.0,513.0"/>
    <path d="M 547.0,554.0 L 555.0,560.0 L 754.0,521.0"/>
    <path d="M 537.0,649.0 L 605.0,652.0 L 715.0,627.0 L 764.0,627.0"/>
    <path d="M 444.0,764.0 L 488.0,770.0 L 670.0,732.0 L 821.0,710.0 L 856.0,711.0 L 904.0,722.0"/>
    <path d="M 638.0,765.0 L 662.0,780.0 L 668.0,794.0 L 669.0,912.0 L 662.0,963.0 L 647.0,987.0 L 555.0,949.0"/>
    <path d="M 508.0,834.0 L 494.0,889.0 L 457.0,968.0"/>
    <path d="M 765.0,820.0 L 854.0,894.0 L 875.0,947.0"/>
  </g>
</svg>
