<svg xmlns="http://www.w3.org/2000/svg" viewBox="0 0 1024 1024">
  <g style="fill:none;stroke:#000000;stroke-width:50;stroke-linecap:round;stroke-linejoin:round;" transform="scale(1, 1) translate(0, 0)">
    <path d="M 260.0,198.0 L 281.0,216.0 L 291.0,235.0 L 282.0,264.0 L 223.0,384.0 L 183.0,444.0 L 149.0,480.0"/>
    <path d="M 263.0,362.0 L 352.0,348.0 L 385.0,360.0 L 306.0,484.0 L 276.0,517.0"/>
    <path d="M 116.0,547.0 L 143.0,570.0 L 150.0,593.0 L 192.0,798.0"/>
    <path d="M 178.0,578.0 L 192.0,560.0 L 292.0,535.0 L 302.0,527.0 L 355.0,513.0 L 408.0,516.0 L 432.0,540.0 L 410.0,672.0 L 393.0,731.0 L 399.0,750.0"/>
    <path d="M 212.0,657.0 L 321.0,633.0 L 356.0,635.0"/>
    <path d="M 257.0,560.0 L 272.0,570.0 L 280.0,588.0 L 280.0,692.0 L 276.0,711.0 L 267.0,721.0"/>
    <path d="M 208.0,766.0 L 229.0,751.0 L 359.0,719.0"/>
    <path d="M 127.0,848.0 L 129.0,899.0 L 112.0,992.0"/>
    <path d="M 205.0,860.0 L 225.0,916.0 L 226.0,942.0"/>
    <path d="M 288.0,835.0 L 316.0,878.0 L 326.0,911.0"/>
    <path d="M 386.0,810.0 L 432.0,863.0 L 440.0,893.0"/>
    <path d="M 560.0,318.0 L 618.0,322.0 L 765.0,288.0 L 811.0,286.0"/>
    <path d="M 512.0,415.0 L 537.0,437.0 L 544.0,452.0 L 580.0,614.0"/>
    <path d="M 568.0,417.0 L 580.0,428.0 L 751.0,390.0 L 821.0,382.0 L 843.0,388.0 L 867.0,424.0 L 806.0,589.0"/>
    <path d="M 621.0,500.0 L 734.0,479.0 L 773.0,483.0"/>
    <path d="M 597.0,592.0 L 647.0,576.0 L 791.0,550.0"/>
    <path d="M 647.0,181.0 L 690.0,220.0 L 685.0,627.0 L 670.0,650.0"/>
    <path d="M 512.0,694.0 L 553.0,706.0 L 655.0,674.0 L 799.0,638.0 L 805.0,641.0"/>
    <path d="M 811.0,608.0 L 842.0,653.0 L 851.0,679.0"/>
    <path d="M 452.0,804.0 L 488.0,811.0 L 515.0,807.0 L 593.0,787.0 L 853.0,744.0 L 900.0,742.0 L 954.0,754.0"/>
    <path d="M 718.0,684.0 L 742.0,696.0 L 752.0,714.0 L 753.0,988.0 L 746.0,1029.0 L 727.0,1052.0 L 696.0,1044.0 L 631.0,1013.0"/>
    <path d="M 564.0,854.0 L 633.0,904.0 L 646.0,931.0"/>
  </g>
</svg>
