<svg xmlns="http://www.w3.org/2000/svg" viewBox="0 0 1024 1024">
  <g style="fill:none;stroke:#000000;stroke-width:50;stroke-linecap:round;stroke-linejoin:round;" transform="scale(1, 1) translate(0, 0)">
    <path d="M 244.0,194.0 L 265.0,212.0 L 275.0,232.0 L 258.0,280.0 L 193.0,403.0 L 154.0,457.0 L 133.0,476.0"/>
    <path d="M 250.0,360.0 L 291.0,357.0 L 336.0,345.0 L 369.0,357.0 L 320.0,439.0 L 259.0,516.0"/>
    <path d="M 100.0,547.0 L 127.0,570.0 L 133.0,589.0 L 176.0,794.0"/>
    <path d="M 156.0,556.0 L 171.0,560.0 L 353.0,512.0 L 384.0,513.0 L 411.0,531.0 L 416.0,540.0 L 394.0,672.0 L 377.0,730.0 L 383.0,750.0"/>
    <path d="M 213.0,653.0 L 308.0,631.0 L 341.0,633.0"/>
    <path d="M 244.0,556.0 L 264.0,574.0 L 264.0,690.0 L 260.0,709.0 L 251.0,719.0"/>
    <path d="M 196.0,765.0 L 214.0,751.0 L 345.0,716.0"/>
    <path d="M 111.0,848.0 L 114.0,882.0 L 96.0,988.0"/>
    <path d="M 189.0,862.0 L 206.0,905.0 L 210.0,938.0"/>
    <path d="M 272.0,831.0 L 300.0,874.0 L 310.0,907.0"/>
    <path d="M 370.0,806.0 L 416.0,861.0 L 425.0,899.0"/>
    <path d="M 552.0,247.0 L 613.0,250.0 L 752.0,211.0 L 808.0,209.0"/>
    <path d="M 496.0,351.0 L 487.0,410.0 L 466.0,474.0"/>
    <path d="M 512.0,377.0 L 532.0,387.0 L 645.0,355.0 L 863.0,316.0 L 897.0,333.0 L 906.0,351.0 L 844.0,411.0"/>
    <path d="M 645.0,267.0 L 670.0,281.0 L 679.0,294.0 L 678.0,416.0 L 665.0,585.0 L 669.0,620.0"/>
    <path d="M 542.0,461.0 L 581.0,477.0 L 603.0,494.0"/>
    <path d="M 518.0,564.0 L 555.0,577.0 L 574.0,591.0"/>
    <path d="M 748.0,441.0 L 785.0,455.0 L 799.0,468.0"/>
    <path d="M 751.0,553.0 L 786.0,567.0 L 806.0,583.0"/>
    <path d="M 495.0,729.0 L 554.0,733.0 L 774.0,691.0 L 795.0,692.0 L 809.0,700.0 L 837.0,729.0 L 790.0,896.0 L 764.0,914.0"/>
    <path d="M 517.0,846.0 L 597.0,849.0 L 694.0,826.0 L 740.0,826.0"/>
    <path d="M 485.0,975.0 L 499.0,981.0 L 531.0,978.0 L 762.0,941.0 L 802.0,940.0 L 826.0,949.0"/>
  </g>
</svg>
