<svg xmlns="http://www.w3.org/2000/svg" viewBox="0 0 1024 1024">
  <g style="fill:none;stroke:#000000;stroke-width:50;stroke-linecap:round;stroke-linejoin:round;" transform="scale(1, 1) translate(0, 0)">
    <path d="M 268.0,207.0 L 293.0,240.0 L 292.0,261.0 L 219.0,382.0 L 161.0,450.0 L 113.0,492.0"/>
    <path d="M 249.0,381.0 L 278.0,383.0 L 351.0,358.0 L 373.0,360.0 L 390.0,370.0 L 325.0,473.0 L 267.0,540.0"/>
    <path d="M 121.0,567.0 L 154.0,594.0 L 204.0,795.0"/>
    <path d="M 188.0,597.0 L 196.0,580.0 L 210.0,574.0 L 341.0,533.0 L 386.0,526.0 L 407.0,535.0 L 424.0,556.0 L 396.0,681.0 L 376.0,740.0 L 380.0,758.0"/>
    <path d="M 227.0,666.0 L 320.0,638.0 L 355.0,638.0"/>
    <path d="M 267.0,577.0 L 288.0,595.0 L 286.0,694.0 L 281.0,713.0 L 271.0,724.0"/>
    <path d="M 216.0,766.0 L 235.0,754.0 L 349.0,724.0"/>
    <path d="M 140.0,831.0 L 108.0,949.0 L 108.0,983.0"/>
    <path d="M 203.0,844.0 L 231.0,893.0 L 233.0,919.0"/>
    <path d="M 290.0,826.0 L 320.0,866.0 L 330.0,891.0"/>
    <path d="M 368.0,802.0 L 418.0,858.0 L 429.0,894.0"/>
    <path d="M 642.0,176.0 L 732.0,216.0 L 760.0,247.0"/>
    <path d="M 567.0,351.0 L 583.0,359.0 L 620.0,356.0 L 714.0,336.0 L 847.0,295.0 L 894.0,293.0"/>
    <path d="M 493.0,326.0 L 526.0,355.0 L 536.0,381.0 L 522.0,629.0 L 504.0,786.0 L 487.0,878.0 L 458.0,976.0 L 428.0,1021.0"/>
    <path d="M 618.0,458.0 L 673.0,456.0 L 759.0,429.0 L 798.0,409.0 L 831.0,410.0 L 859.0,434.0 L 834.0,547.0 L 814.0,568.0"/>
    <path d="M 571.0,560.0 L 619.0,561.0 L 733.0,529.0 L 920.0,488.0 L 965.0,493.0"/>
    <path d="M 602.0,636.0 L 620.0,641.0 L 655.0,636.0 L 807.0,595.0 L 848.0,593.0 L 866.0,600.0"/>
    <path d="M 573.0,716.0 L 595.0,737.0 L 600.0,775.0 L 596.0,869.0 L 577.0,975.0 L 574.0,1026.0"/>
    <path d="M 628.0,728.0 L 637.0,734.0 L 694.0,723.0 L 835.0,687.0 L 868.0,692.0 L 890.0,711.0 L 895.0,957.0 L 885.0,1000.0 L 869.0,1023.0 L 841.0,1014.0 L 775.0,976.0"/>
    <path d="M 658.0,829.0 L 672.0,829.0 L 763.0,797.0 L 804.0,795.0"/>
    <path d="M 646.0,919.0 L 663.0,919.0 L 783.0,885.0 L 818.0,889.0"/>
    <path d="M 689.0,365.0 L 723.0,385.0 L 731.0,403.0 L 724.0,1030.0"/>
  </g>
</svg>
