<svg xmlns="http://www.w3.org/2000/svg" viewBox="0 0 1024 1024">
  <g style="fill:none;stroke:#000000;stroke-width:50;stroke-linecap:round;stroke-linejoin:round;" transform="scale(1, 1) translate(0, 0)">
    <path d="M 270.0,205.0 L 290.0,222.0 L 299.0,244.0 L 267.0,317.0 L 231.0,378.0 L 166.0,460.0"/>
    <path d="M 271.0,354.0 L 360.0,335.0 L 397.0,348.0 L 349.0,430.0 L 289.0,507.0"/>
    <path d="M 133.0,536.0 L 161.0,569.0 L 192.0,755.0"/>
    <path d="M 180.0,539.0 L 192.0,545.0 L 359.0,504.0 L 387.0,504.0 L 414.0,523.0 L 419.0,531.0 L 387.0,685.0 L 376.0,717.0 L 355.0,723.0"/>
    <path d="M 222.0,643.0 L 311.0,619.0 L 353.0,620.0"/>
    <path d="M 258.0,543.0 L 280.0,570.0 L 280.0,672.0 L 268.0,693.0"/>
    <path d="M 210.0,734.0 L 245.0,719.0 L 347.0,703.0"/>
    <path d="M 114.0,810.0 L 101.0,936.0 L 105.0,967.0 L 112.0,974.0"/>
    <path d="M 190.0,820.0 L 211.0,874.0 L 214.0,900.0"/>
    <path d="M 263.0,799.0 L 287.0,841.0 L 292.0,864.0"/>
    <path d="M 337.0,783.0 L 388.0,834.0 L 396.0,860.0"/>
    <path d="M 540.0,210.0 L 594.0,248.0 L 610.0,279.0"/>
    <path d="M 775.0,171.0 L 794.0,199.0 L 767.0,247.0 L 713.0,316.0"/>
    <path d="M 497.0,365.0 L 528.0,367.0 L 827.0,315.0 L 860.0,314.0 L 910.0,325.0"/>
    <path d="M 493.0,438.0 L 517.0,473.0 L 519.0,644.0 L 525.0,680.0"/>
    <path d="M 539.0,463.0 L 549.0,452.0 L 742.0,409.0 L 801.0,415.0 L 821.0,433.0 L 815.0,473.0 L 815.0,600.0 L 809.0,638.0 L 783.0,644.0"/>
    <path d="M 593.0,370.0 L 614.0,387.0 L 613.0,440.0 L 597.0,518.0 L 569.0,561.0"/>
    <path d="M 677.0,359.0 L 699.0,372.0 L 696.0,430.0 L 702.0,489.0 L 729.0,507.0 L 762.0,513.0 L 772.0,508.0"/>
    <path d="M 605.0,593.0 L 691.0,572.0 L 722.0,575.0"/>
    <path d="M 546.0,662.0 L 558.0,652.0 L 774.0,626.0"/>
    <path d="M 432.0,770.0 L 466.0,778.0 L 622.0,756.0 L 855.0,736.0 L 911.0,741.0 L 943.0,752.0"/>
    <path d="M 697.0,656.0 L 722.0,673.0 L 737.0,695.0 L 733.0,995.0 L 710.0,1037.0 L 679.0,1029.0 L 600.0,986.0"/>
    <path d="M 524.0,830.0 L 586.0,873.0 L 599.0,900.0"/>
  </g>
</svg>
