<svg xmlns="http://www.w3.org/2000/svg" viewBox="0 0 1024 1024">
  <g style="fill:none;stroke:#000000;stroke-width:50;stroke-linecap:round;stroke-linejoin:round;" transform="scale(1, 1) translate(0, 0)">
    <path d="M 283.0,180.0 L 305.0,214.0 L 287.0,253.0 L 205.0,357.0 L 147.0,413.0 L 112.0,437.0"/>
    <path d="M 284.0,308.0 L 302.0,299.0 L 371.0,288.0 L 393.0,295.0 L 405.0,307.0 L 337.0,407.0 L 291.0,458.0"/>
    <path d="M 132.0,496.0 L 154.0,513.0 L 164.0,530.0 L 208.0,714.0"/>
    <path d="M 183.0,500.0 L 195.0,505.0 L 351.0,463.0 L 387.0,459.0 L 410.0,464.0 L 431.0,487.0 L 400.0,626.0 L 387.0,661.0 L 390.0,682.0"/>
    <path d="M 237.0,594.0 L 337.0,568.0 L 358.0,572.0"/>
    <path d="M 274.0,500.0 L 295.0,521.0 L 292.0,638.0 L 279.0,653.0"/>
    <path d="M 225.0,694.0 L 256.0,679.0 L 351.0,655.0"/>
    <path d="M 125.0,755.0 L 108.0,863.0 L 115.0,907.0"/>
    <path d="M 196.0,766.0 L 219.0,818.0 L 218.0,856.0"/>
    <path d="M 282.0,756.0 L 315.0,815.0"/>
    <path d="M 357.0,729.0 L 398.0,783.0"/>
    <path d="M 523.0,311.0 L 565.0,346.0 L 576.0,366.0"/>
    <path d="M 789.0,234.0 L 805.0,265.0 L 717.0,350.0"/>
    <path d="M 499.0,437.0 L 549.0,441.0 L 764.0,396.0 L 803.0,391.0 L 837.0,396.0"/>
    <path d="M 624.0,194.0 L 648.0,210.0 L 667.0,235.0 L 649.0,554.0 L 657.0,603.0"/>
    <path d="M 630.0,447.0 L 600.0,496.0 L 561.0,539.0 L 487.0,594.0 L 463.0,604.0"/>
    <path d="M 678.0,440.0 L 686.0,454.0 L 720.0,483.0 L 833.0,563.0 L 911.0,577.0 L 972.0,578.0"/>
    <path d="M 505.0,601.0 L 520.0,613.0 L 524.0,623.0 L 519.0,636.0 L 467.0,708.0 L 436.0,733.0"/>
    <path d="M 487.0,705.0 L 554.0,686.0 L 570.0,687.0 L 582.0,700.0 L 547.0,784.0 L 484.0,878.0 L 414.0,946.0 L 369.0,973.0"/>
    <path d="M 457.0,766.0 L 493.0,802.0 L 496.0,818.0"/>
    <path d="M 660.0,684.0 L 719.0,687.0 L 830.0,664.0 L 862.0,664.0"/>
    <path d="M 639.0,733.0 L 658.0,760.0 L 633.0,848.0 L 663.0,850.0 L 848.0,819.0 L 915.0,832.0"/>
    <path d="M 729.0,598.0 L 762.0,629.0 L 764.0,659.0 L 759.0,1079.0"/>
  </g>
</svg>
