<svg xmlns="http://www.w3.org/2000/svg" viewBox="0 0 1024 1024">
  <g style="fill:none;stroke:#000000;stroke-width:50;stroke-linecap:round;stroke-linejoin:round;" transform="scale(1, 1) translate(0, 0)">
    <path d="M 262.0,233.0 L 282.0,250.0 L 291.0,272.0 L 259.0,345.0 L 223.0,406.0 L 158.0,488.0"/>
    <path d="M 263.0,382.0 L 352.0,363.0 L 389.0,377.0 L 300.0,521.0 L 279.0,536.0"/>
    <path d="M 141.0,564.0 L 169.0,598.0 L 200.0,787.0"/>
    <path d="M 197.0,585.0 L 220.0,570.0 L 367.0,532.0 L 406.0,536.0 L 422.0,550.0 L 428.0,559.0 L 388.0,740.0 L 378.0,751.0 L 353.0,747.0"/>
    <path d="M 230.0,671.0 L 319.0,647.0 L 361.0,648.0"/>
    <path d="M 268.0,574.0 L 285.0,587.0 L 288.0,601.0 L 288.0,700.0 L 285.0,714.0 L 276.0,722.0"/>
    <path d="M 218.0,766.0 L 269.0,746.0 L 356.0,731.0"/>
    <path d="M 122.0,842.0 L 110.0,947.0 L 111.0,987.0 L 120.0,1002.0"/>
    <path d="M 198.0,851.0 L 224.0,909.0 L 229.0,935.0"/>
    <path d="M 276.0,828.0 L 308.0,881.0 L 311.0,902.0"/>
    <path d="M 358.0,810.0 L 403.0,863.0 L 414.0,900.0"/>
    <path d="M 479.0,355.0 L 500.0,373.0 L 512.0,395.0 L 544.0,567.0"/>
    <path d="M 526.0,358.0 L 543.0,366.0 L 772.0,320.0 L 811.0,320.0 L 838.0,328.0 L 858.0,351.0 L 830.0,460.0 L 805.0,528.0 L 782.0,531.0"/>
    <path d="M 578.0,448.0 L 628.0,444.0 L 744.0,420.0 L 788.0,422.0"/>
    <path d="M 578.0,247.0 L 613.0,283.0 L 632.0,475.0 L 632.0,499.0 L 622.0,509.0"/>
    <path d="M 706.0,188.0 L 743.0,222.0 L 725.0,442.0 L 720.0,476.0 L 705.0,492.0"/>
    <path d="M 561.0,549.0 L 596.0,534.0 L 778.0,509.0"/>
    <path d="M 534.0,637.0 L 562.0,643.0 L 621.0,640.0 L 735.0,617.0 L 783.0,618.0"/>
    <path d="M 517.0,720.0 L 545.0,744.0 L 576.0,860.0"/>
    <path d="M 566.0,722.0 L 575.0,730.0 L 591.0,729.0 L 741.0,694.0 L 761.0,697.0 L 790.0,721.0 L 770.0,770.0 L 750.0,780.0"/>
    <path d="M 592.0,840.0 L 609.0,829.0 L 686.0,815.0 L 745.0,807.0 L 788.0,811.0"/>
    <path d="M 527.0,886.0 L 582.0,937.0 L 589.0,966.0"/>
    <path d="M 717.0,831.0 L 742.0,851.0 L 746.0,864.0 L 716.0,947.0 L 699.0,968.0"/>
    <path d="M 418.0,1013.0 L 455.0,1022.0 L 540.0,1009.0 L 850.0,981.0 L 884.0,984.0 L 932.0,1000.0"/>
  </g>
</svg>
