<svg xmlns="http://www.w3.org/2000/svg" viewBox="0 0 1024 1024">
  <g style="fill:none;stroke:#000000;stroke-width:50;stroke-linecap:round;stroke-linejoin:round;" transform="scale(1, 1) translate(0, 0)">
    <path d="M 250.0,224.0 L 269.0,244.0 L 276.0,263.0 L 263.0,291.0 L 205.0,385.0 L 147.0,452.0 L 126.0,468.0"/>
    <path d="M 249.0,364.0 L 332.0,348.0 L 364.0,361.0 L 355.0,382.0 L 267.0,498.0 L 237.0,524.0"/>
    <path d="M 104.0,548.0 L 130.0,569.0 L 139.0,587.0 L 185.0,762.0"/>
    <path d="M 150.0,550.0 L 166.0,555.0 L 344.0,514.0 L 362.0,512.0 L 389.0,523.0 L 405.0,545.0 L 385.0,601.0 L 353.0,729.0"/>
    <path d="M 208.0,644.0 L 285.0,623.0 L 323.0,620.0"/>
    <path d="M 246.0,552.0 L 261.0,564.0 L 267.0,584.0 L 264.0,697.0 L 251.0,712.0"/>
    <path d="M 197.0,755.0 L 207.0,744.0 L 295.0,721.0 L 324.0,719.0 L 331.0,728.0"/>
    <path d="M 109.0,805.0 L 93.0,919.0 L 98.0,959.0"/>
    <path d="M 189.0,822.0 L 204.0,888.0"/>
    <path d="M 274.0,806.0 L 291.0,867.0"/>
    <path d="M 347.0,779.0 L 368.0,815.0 L 372.0,836.0"/>
    <path d="M 633.0,186.0 L 668.0,216.0 L 669.0,342.0 L 655.0,352.0"/>
    <path d="M 700.0,277.0 L 709.0,266.0 L 793.0,248.0 L 813.0,250.0"/>
    <path d="M 521.0,399.0 L 538.0,409.0 L 754.0,352.0 L 830.0,342.0 L 845.0,348.0 L 862.0,370.0 L 803.0,433.0"/>
    <path d="M 469.0,395.0 L 494.0,418.0 L 501.0,435.0 L 492.0,600.0 L 470.0,724.0 L 443.0,818.0 L 409.0,898.0 L 348.0,997.0 L 323.0,1023.0"/>
    <path d="M 553.0,493.0 L 613.0,489.0 L 689.0,459.0 L 746.0,448.0"/>
    <path d="M 619.0,410.0 L 640.0,434.0 L 644.0,526.0 L 652.0,541.0 L 668.0,550.0 L 718.0,555.0 L 762.0,538.0 L 774.0,527.0 L 772.0,486.0 L 777.0,473.0"/>
    <path d="M 536.0,622.0 L 561.0,653.0 L 585.0,799.0"/>
    <path d="M 578.0,629.0 L 604.0,631.0 L 750.0,595.0 L 783.0,593.0 L 802.0,600.0 L 820.0,622.0 L 783.0,764.0 L 774.0,765.0"/>
    <path d="M 627.0,704.0 L 703.0,684.0 L 737.0,685.0"/>
    <path d="M 662.0,633.0 L 676.0,649.0 L 676.0,741.0 L 668.0,751.0"/>
    <path d="M 600.0,788.0 L 643.0,774.0 L 739.0,757.0 L 751.0,757.0 L 759.0,765.0"/>
    <path d="M 499.0,856.0 L 523.0,879.0 L 552.0,986.0 L 563.0,996.0"/>
    <path d="M 535.0,856.0 L 555.0,864.0 L 670.0,838.0 L 767.0,823.0 L 805.0,824.0 L 831.0,855.0 L 802.0,947.0 L 789.0,962.0 L 776.0,966.0"/>
    <path d="M 604.0,874.0 L 612.0,878.0 L 630.0,989.0"/>
    <path d="M 694.0,853.0 L 717.0,873.0 L 702.0,953.0 L 687.0,986.0"/>
    <path d="M 417.0,1026.0 L 466.0,1033.0 L 605.0,1013.0 L 862.0,989.0 L 924.0,994.0 L 953.0,1005.0"/>
  </g>
</svg>
