<svg xmlns="http://www.w3.org/2000/svg" viewBox="0 0 1024 1024">
  <g style="fill:none;stroke:#000000;stroke-width:50;stroke-linecap:round;stroke-linejoin:round;" transform="scale(1, 1) translate(0, 0)">
    <path d="M 420.0,169.0 L 437.0,199.0 L 421.0,227.0 L 376.0,278.0 L 321.0,313.0"/>
    <path d="M 430.0,252.0 L 545.0,231.0 L 580.0,242.0 L 558.0,280.0 L 523.0,313.0"/>
    <path d="M 275.0,352.0 L 304.0,368.0 L 333.0,432.0 L 360.0,517.0"/>
    <path d="M 331.0,384.0 L 344.0,366.0 L 401.0,352.0 L 648.0,315.0 L 688.0,317.0 L 708.0,327.0 L 728.0,357.0 L 661.0,489.0"/>
    <path d="M 417.0,428.0 L 546.0,404.0 L 582.0,408.0"/>
    <path d="M 478.0,358.0 L 502.0,380.0 L 498.0,442.0 L 485.0,457.0"/>
    <path d="M 374.0,501.0 L 386.0,491.0 L 586.0,465.0 L 622.0,465.0 L 634.0,475.0"/>
    <path d="M 264.0,510.0 L 245.0,571.0 L 202.0,653.0"/>
    <path d="M 405.0,544.0 L 439.0,583.0 L 453.0,610.0"/>
    <path d="M 559.0,520.0 L 614.0,575.0 L 626.0,598.0"/>
    <path d="M 737.0,495.0 L 827.0,569.0 L 848.0,602.0 L 857.0,634.0"/>
    <path d="M 278.0,635.0 L 293.0,665.0 L 269.0,701.0 L 234.0,736.0 L 174.0,772.0"/>
    <path d="M 285.0,717.0 L 348.0,700.0 L 368.0,698.0 L 388.0,706.0 L 368.0,737.0 L 319.0,777.0"/>
    <path d="M 191.0,800.0 L 216.0,818.0 L 236.0,851.0 L 271.0,944.0"/>
    <path d="M 235.0,805.0 L 250.0,809.0 L 423.0,767.0 L 455.0,772.0 L 473.0,789.0 L 459.0,861.0 L 435.0,906.0 L 407.0,906.0"/>
    <path d="M 279.0,862.0 L 379.0,838.0 L 407.0,841.0"/>
    <path d="M 327.0,806.0 L 346.0,822.0 L 345.0,864.0 L 332.0,883.0"/>
    <path d="M 290.0,925.0 L 300.0,912.0 L 379.0,890.0 L 408.0,890.0"/>
    <path d="M 198.0,972.0 L 186.0,1036.0 L 192.0,1067.0"/>
    <path d="M 245.0,977.0 L 274.0,1023.0 L 280.0,1047.0"/>
    <path d="M 317.0,962.0 L 346.0,1000.0 L 349.0,1016.0"/>
    <path d="M 391.0,942.0 L 435.0,983.0 L 449.0,1015.0"/>
    <path d="M 663.0,635.0 L 677.0,665.0 L 653.0,701.0 L 618.0,736.0 L 558.0,772.0"/>
    <path d="M 669.0,717.0 L 732.0,700.0 L 752.0,698.0 L 772.0,706.0 L 752.0,737.0 L 703.0,777.0"/>
    <path d="M 575.0,800.0 L 600.0,818.0 L 621.0,852.0 L 655.0,944.0"/>
    <path d="M 619.0,805.0 L 634.0,809.0 L 807.0,767.0 L 839.0,772.0 L 857.0,789.0 L 843.0,861.0 L 819.0,906.0 L 791.0,906.0"/>
    <path d="M 664.0,862.0 L 758.0,839.0 L 791.0,841.0"/>
    <path d="M 712.0,806.0 L 730.0,822.0 L 729.0,864.0 L 716.0,883.0"/>
    <path d="M 674.0,925.0 L 684.0,912.0 L 763.0,890.0 L 792.0,890.0"/>
    <path d="M 582.0,972.0 L 570.0,1036.0 L 576.0,1067.0"/>
    <path d="M 629.0,977.0 L 658.0,1023.0 L 665.0,1048.0"/>
    <path d="M 701.0,962.0 L 730.0,1000.0 L 733.0,1016.0"/>
    <path d="M 775.0,942.0 L 819.0,983.0 L 833.0,1015.0"/>
  </g>
</svg>
