<svg xmlns="http://www.w3.org/2000/svg" viewBox="0 0 1024 1024">
  <g style="fill:none;stroke:#000000;stroke-width:50;stroke-linecap:round;stroke-linejoin:round;" transform="scale(1, 1) translate(0, 0)">
    <path d="M 296.0,213.0 L 307.0,223.0 L 321.0,255.0 L 302.0,294.0 L 218.0,404.0 L 136.0,479.0"/>
    <path d="M 290.0,355.0 L 367.0,337.0 L 399.0,338.0 L 420.0,348.0 L 364.0,442.0 L 338.0,478.0 L 319.0,490.0"/>
    <path d="M 134.0,533.0 L 167.0,570.0 L 204.0,773.0"/>
    <path d="M 175.0,532.0 L 199.0,538.0 L 390.0,494.0 L 423.0,496.0 L 435.0,506.0 L 451.0,524.0 L 417.0,671.0 L 399.0,724.0 L 403.0,742.0"/>
    <path d="M 232.0,637.0 L 339.0,609.0 L 377.0,612.0"/>
    <path d="M 282.0,533.0 L 303.0,553.0 L 306.0,579.0 L 305.0,683.0 L 300.0,702.0 L 290.0,712.0"/>
    <path d="M 223.0,755.0 L 366.0,713.0"/>
    <path d="M 104.0,882.0 L 159.0,898.0 L 436.0,807.0"/>
    <path d="M 599.0,250.0 L 689.0,306.0 L 712.0,343.0"/>
    <path d="M 504.0,484.0 L 557.0,486.0 L 689.0,453.0 L 820.0,429.0 L 854.0,428.0 L 907.0,438.0"/>
    <path d="M 663.0,590.0 L 684.0,580.0 L 764.0,594.0 L 788.0,610.0 L 801.0,631.0 L 741.0,850.0 L 710.0,911.0 L 694.0,932.0 L 667.0,950.0 L 555.0,879.0"/>
    <path d="M 613.0,499.0 L 647.0,525.0 L 623.0,601.0 L 583.0,680.0 L 524.0,776.0 L 485.0,823.0 L 428.0,884.0 L 389.0,917.0 L 373.0,922.0 L 371.0,930.0"/>
  </g>
</svg>
