<svg xmlns="http://www.w3.org/2000/svg" viewBox="0 0 1024 1024">
  <g style="fill:none;stroke:#000000;stroke-width:50;stroke-linecap:round;stroke-linejoin:round;" transform="scale(1, 1) translate(0, 0)">
    <path d="M 452.0,161.0 L 468.0,197.0 L 442.0,234.0 L 370.0,297.0 L 290.0,346.0"/>
    <path d="M 462.0,258.0 L 513.0,254.0 L 574.0,240.0 L 610.0,249.0 L 612.0,256.0 L 593.0,286.0 L 550.0,338.0 L 523.0,353.0"/>
    <path d="M 284.0,395.0 L 310.0,414.0 L 319.0,431.0 L 367.0,606.0"/>
    <path d="M 336.0,396.0 L 358.0,405.0 L 559.0,368.0 L 651.0,357.0 L 685.0,359.0 L 701.0,369.0 L 723.0,400.0 L 658.0,571.0"/>
    <path d="M 408.0,486.0 L 563.0,459.0 L 616.0,463.0"/>
    <path d="M 485.0,398.0 L 507.0,418.0 L 510.0,435.0 L 509.0,529.0 L 495.0,549.0"/>
    <path d="M 387.0,578.0 L 401.0,584.0 L 625.0,556.0 L 635.0,565.0"/>
    <path d="M 124.0,678.0 L 184.0,696.0 L 392.0,667.0 L 817.0,634.0 L 893.0,662.0"/>
    <path d="M 343.0,738.0 L 370.0,768.0 L 374.0,784.0 L 375.0,859.0 L 359.0,993.0 L 360.0,1048.0"/>
    <path d="M 400.0,775.0 L 412.0,764.0 L 527.0,741.0 L 585.0,723.0 L 620.0,726.0 L 645.0,748.0 L 650.0,757.0 L 651.0,975.0 L 638.0,1021.0 L 641.0,1077.0"/>
    <path d="M 400.0,889.0 L 411.0,879.0 L 487.0,866.0 L 546.0,862.0 L 567.0,868.0"/>
    <path d="M 386.0,1019.0 L 412.0,1008.0 L 593.0,989.0"/>
  </g>
</svg>
