<svg xmlns="http://www.w3.org/2000/svg" viewBox="0 0 1024 1024">
  <g style="fill:none;stroke:#000000;stroke-width:50;stroke-linecap:round;stroke-linejoin:round;" transform="scale(1, 1) translate(0, 0)">
    <path d="M 285.0,206.0 L 296.0,215.0 L 310.0,247.0 L 276.0,305.0 L 194.0,411.0 L 131.0,464.0"/>
    <path d="M 288.0,332.0 L 362.0,312.0 L 386.0,312.0 L 413.0,324.0 L 352.0,437.0 L 314.0,488.0"/>
    <path d="M 136.0,525.0 L 167.0,562.0 L 205.0,765.0"/>
    <path d="M 188.0,528.0 L 198.0,531.0 L 361.0,495.0 L 396.0,493.0 L 421.0,502.0 L 440.0,523.0 L 415.0,656.0 L 399.0,710.0 L 403.0,734.0"/>
    <path d="M 228.0,629.0 L 345.0,606.0 L 373.0,611.0"/>
    <path d="M 275.0,534.0 L 291.0,545.0 L 301.0,562.0 L 298.0,675.0 L 293.0,692.0 L 282.0,701.0"/>
    <path d="M 226.0,743.0 L 242.0,731.0 L 364.0,704.0"/>
    <path d="M 107.0,872.0 L 161.0,891.0 L 461.0,787.0"/>
    <path d="M 549.0,340.0 L 605.0,346.0 L 771.0,308.0 L 810.0,311.0"/>
    <path d="M 499.0,478.0 L 549.0,515.0 L 564.0,531.0 L 575.0,558.0"/>
    <path d="M 803.0,402.0 L 824.0,436.0 L 742.0,523.0 L 726.0,533.0"/>
    <path d="M 470.0,679.0 L 528.0,687.0 L 685.0,659.0 L 840.0,641.0 L 927.0,659.0"/>
    <path d="M 618.0,369.0 L 666.0,401.0 L 666.0,1066.0"/>
  </g>
</svg>
