<svg xmlns="http://www.w3.org/2000/svg" viewBox="0 0 1024 1024">
  <g style="fill:none;stroke:#000000;stroke-width:50;stroke-linecap:round;stroke-linejoin:round;" transform="scale(1, 1) translate(0, 0)">
    <path d="M 263.0,207.0 L 282.0,229.0 L 288.0,253.0 L 254.0,315.0 L 174.0,419.0 L 113.0,478.0 L 104.0,480.0"/>
    <path d="M 256.0,354.0 L 345.0,334.0 L 372.0,346.0 L 320.0,443.0 L 277.0,496.0"/>
    <path d="M 106.0,533.0 L 127.0,550.0 L 136.0,570.0 L 171.0,778.0"/>
    <path d="M 158.0,533.0 L 169.0,544.0 L 325.0,504.0 L 367.0,501.0 L 380.0,509.0 L 399.0,531.0 L 374.0,661.0 L 353.0,719.0 L 355.0,740.0"/>
    <path d="M 199.0,636.0 L 292.0,618.0 L 327.0,621.0"/>
    <path d="M 237.0,547.0 L 256.0,559.0 L 260.0,572.0 L 259.0,694.0 L 244.0,707.0"/>
    <path d="M 189.0,753.0 L 209.0,742.0 L 308.0,720.0 L 319.0,712.0"/>
    <path d="M 79.0,897.0 L 131.0,912.0 L 367.0,832.0 L 419.0,809.0"/>
    <path d="M 474.0,390.0 L 496.0,416.0 L 501.0,445.0 L 496.0,735.0"/>
    <path d="M 519.0,405.0 L 532.0,409.0 L 622.0,381.0 L 654.0,378.0 L 684.0,406.0 L 678.0,530.0 L 685.0,679.0 L 677.0,741.0"/>
    <path d="M 548.0,484.0 L 570.0,493.0 L 589.0,516.0 L 585.0,660.0 L 576.0,732.0 L 561.0,792.0 L 536.0,853.0 L 491.0,910.0 L 420.0,958.0 L 397.0,966.0"/>
    <path d="M 615.0,806.0 L 678.0,867.0 L 696.0,908.0"/>
    <path d="M 764.0,449.0 L 786.0,474.0 L 790.0,605.0 L 784.0,669.0 L 790.0,708.0"/>
    <path d="M 869.0,271.0 L 909.0,302.0 L 914.0,320.0 L 910.0,616.0 L 918.0,913.0 L 901.0,953.0 L 819.0,920.0 L 790.0,901.0"/>
  </g>
</svg>
