<svg xmlns="http://www.w3.org/2000/svg" viewBox="0 0 1024 1024">
  <g style="fill:none;stroke:#000000;stroke-width:50;stroke-linecap:round;stroke-linejoin:round;" transform="scale(1, 1) translate(0, 0)">
    <path d="M 263.0,207.0 L 282.0,229.0 L 288.0,253.0 L 254.0,315.0 L 174.0,419.0 L 113.0,478.0 L 104.0,480.0"/>
    <path d="M 256.0,354.0 L 345.0,334.0 L 372.0,346.0 L 320.0,443.0 L 277.0,496.0"/>
    <path d="M 106.0,533.0 L 127.0,550.0 L 136.0,570.0 L 171.0,778.0"/>
    <path d="M 158.0,533.0 L 169.0,544.0 L 325.0,504.0 L 367.0,501.0 L 380.0,509.0 L 399.0,531.0 L 374.0,661.0 L 353.0,719.0 L 355.0,740.0"/>
    <path d="M 199.0,636.0 L 292.0,618.0 L 327.0,621.0"/>
    <path d="M 237.0,547.0 L 256.0,559.0 L 260.0,572.0 L 259.0,694.0 L 244.0,707.0"/>
    <path d="M 189.0,753.0 L 209.0,742.0 L 308.0,720.0 L 319.0,712.0"/>
    <path d="M 79.0,897.0 L 131.0,912.0 L 367.0,832.0 L 419.0,809.0"/>
    <path d="M 630.0,254.0 L 651.0,271.0 L 666.0,298.0 L 641.0,351.0 L 543.0,508.0 L 487.0,578.0 L 444.0,618.0"/>
    <path d="M 681.0,358.0 L 679.0,371.0 L 746.0,442.0 L 866.0,548.0 L 911.0,560.0 L 969.0,564.0"/>
    <path d="M 537.0,607.0 L 596.0,611.0 L 714.0,580.0 L 754.0,581.0"/>
    <path d="M 476.0,727.0 L 526.0,730.0 L 660.0,700.0 L 780.0,681.0 L 854.0,693.0"/>
    <path d="M 669.0,741.0 L 633.0,757.0 L 602.0,815.0 L 568.0,862.0 L 592.0,871.0 L 596.0,897.0 L 762.0,854.0 L 772.0,861.0"/>
    <path d="M 744.0,777.0 L 836.0,889.0 L 848.0,916.0 L 853.0,952.0"/>
  </g>
</svg>
