<svg xmlns="http://www.w3.org/2000/svg" viewBox="0 0 1024 1024">
  <g style="fill:none;stroke:#000000;stroke-width:50;stroke-linecap:round;stroke-linejoin:round;" transform="scale(1, 1) translate(0, 0)">
    <path d="M 291.0,182.0 L 303.0,192.0 L 316.0,219.0 L 293.0,270.0 L 218.0,373.0 L 132.0,456.0"/>
    <path d="M 280.0,338.0 L 322.0,336.0 L 371.0,321.0 L 408.0,325.0 L 421.0,333.0 L 404.0,369.0 L 341.0,465.0 L 318.0,485.0"/>
    <path d="M 139.0,516.0 L 161.0,534.0 L 172.0,557.0 L 212.0,758.0"/>
    <path d="M 190.0,518.0 L 202.0,525.0 L 375.0,485.0 L 412.0,483.0 L 435.0,490.0 L 456.0,513.0 L 414.0,706.0 L 419.0,722.0"/>
    <path d="M 239.0,620.0 L 330.0,601.0 L 358.0,598.0 L 377.0,603.0"/>
    <path d="M 286.0,523.0 L 312.0,543.0 L 312.0,667.0 L 309.0,682.0 L 299.0,690.0"/>
    <path d="M 227.0,735.0 L 247.0,722.0 L 370.0,701.0 L 383.0,692.0"/>
    <path d="M 123.0,880.0 L 180.0,895.0 L 464.0,791.0"/>
    <path d="M 531.0,231.0 L 591.0,284.0 L 609.0,324.0"/>
    <path d="M 754.0,174.0 L 775.0,189.0 L 785.0,205.0 L 683.0,354.0"/>
    <path d="M 537.0,435.0 L 597.0,439.0 L 781.0,396.0 L 832.0,392.0"/>
    <path d="M 539.0,579.0 L 581.0,584.0 L 759.0,549.0 L 800.0,553.0"/>
    <path d="M 473.0,720.0 L 526.0,726.0 L 627.0,705.0 L 859.0,673.0 L 940.0,687.0"/>
    <path d="M 636.0,456.0 L 675.0,480.0 L 667.0,1060.0"/>
  </g>
</svg>
