<svg xmlns="http://www.w3.org/2000/svg" viewBox="0 0 1024 1024">
  <g style="fill:none;stroke:#000000;stroke-width:50;stroke-linecap:round;stroke-linejoin:round;" transform="scale(1, 1) translate(0, 0)">
    <path d="M 296.0,199.0 L 315.0,220.0 L 322.0,241.0 L 299.0,289.0 L 226.0,390.0 L 170.0,452.0 L 139.0,476.0"/>
    <path d="M 284.0,351.0 L 371.0,329.0 L 391.0,330.0 L 412.0,340.0 L 370.0,425.0 L 315.0,507.0"/>
    <path d="M 144.0,537.0 L 169.0,560.0 L 175.0,577.0 L 213.0,785.0"/>
    <path d="M 205.0,560.0 L 229.0,544.0 L 354.0,514.0 L 399.0,506.0 L 436.0,511.0 L 459.0,536.0 L 430.0,683.0 L 415.0,726.0 L 419.0,750.0"/>
    <path d="M 236.0,649.0 L 348.0,624.0 L 389.0,627.0"/>
    <path d="M 290.0,549.0 L 314.0,571.0 L 313.0,695.0 L 308.0,712.0 L 298.0,721.0"/>
    <path d="M 233.0,766.0 L 250.0,755.0 L 380.0,721.0"/>
    <path d="M 119.0,916.0 L 176.0,931.0 L 391.0,859.0 L 460.0,830.0"/>
    <path d="M 576.0,215.0 L 657.0,260.0 L 676.0,289.0"/>
    <path d="M 494.0,393.0 L 532.0,399.0 L 556.0,396.0 L 760.0,348.0 L 831.0,349.0"/>
    <path d="M 670.0,402.0 L 703.0,422.0 L 698.0,465.0 L 676.0,534.0 L 647.0,583.0 L 609.0,620.0 L 573.0,642.0 L 466.0,673.0"/>
    <path d="M 519.0,467.0 L 570.0,488.0 L 686.0,595.0 L 804.0,671.0 L 874.0,684.0 L 984.0,688.0"/>
    <path d="M 519.0,724.0 L 555.0,755.0 L 551.0,814.0 L 537.0,879.0 L 514.0,927.0 L 492.0,956.0 L 424.0,1007.0"/>
    <path d="M 687.0,703.0 L 704.0,713.0 L 723.0,737.0 L 724.0,1055.0"/>
  </g>
</svg>
