<svg xmlns="http://www.w3.org/2000/svg" viewBox="0 0 1024 1024">
  <g style="fill:none;stroke:#000000;stroke-width:50;stroke-linecap:round;stroke-linejoin:round;" transform="scale(1, 1) translate(0, 0)">
    <path d="M 280.0,199.0 L 299.0,220.0 L 305.0,237.0 L 293.0,269.0 L 221.0,377.0 L 170.0,435.0 L 123.0,476.0"/>
    <path d="M 273.0,357.0 L 281.0,350.0 L 349.0,333.0 L 384.0,344.0 L 308.0,491.0 L 294.0,500.0"/>
    <path d="M 123.0,536.0 L 153.0,572.0 L 189.0,773.0"/>
    <path d="M 170.0,534.0 L 185.0,544.0 L 358.0,507.0 L 385.0,507.0 L 410.0,527.0 L 415.0,535.0 L 376.0,725.0 L 379.0,747.0"/>
    <path d="M 221.0,640.0 L 315.0,619.0 L 345.0,623.0"/>
    <path d="M 261.0,545.0 L 285.0,571.0 L 282.0,690.0 L 277.0,709.0 L 268.0,717.0"/>
    <path d="M 211.0,756.0 L 215.0,749.0 L 327.0,728.0 L 344.0,720.0"/>
    <path d="M 95.0,896.0 L 146.0,913.0 L 424.0,818.0"/>
    <path d="M 472.0,376.0 L 499.0,410.0 L 495.0,567.0 L 502.0,603.0"/>
    <path d="M 560.0,261.0 L 583.0,273.0 L 600.0,302.0 L 605.0,466.0 L 598.0,633.0"/>
    <path d="M 644.0,382.0 L 699.0,383.0 L 776.0,361.0 L 808.0,362.0 L 825.0,369.0 L 804.0,459.0 L 772.0,528.0 L 720.0,582.0 L 681.0,604.0 L 640.0,615.0"/>
    <path d="M 637.0,441.0 L 679.0,465.0 L 778.0,574.0 L 841.0,619.0 L 977.0,646.0"/>
    <path d="M 487.0,791.0 L 542.0,800.0 L 676.0,781.0 L 744.0,765.0 L 801.0,764.0"/>
    <path d="M 605.0,674.0 L 643.0,712.0 L 638.0,898.0 L 623.0,919.0"/>
    <path d="M 418.0,956.0 L 472.0,965.0 L 627.0,943.0 L 800.0,928.0 L 856.0,933.0 L 899.0,948.0"/>
  </g>
</svg>
