<svg xmlns="http://www.w3.org/2000/svg" viewBox="0 0 1024 1024">
  <g style="fill:none;stroke:#000000;stroke-width:50;stroke-linecap:round;stroke-linejoin:round;" transform="scale(1, 1) translate(0, 0)">
    <path d="M 271.0,226.0 L 296.0,256.0 L 293.0,273.0 L 256.0,348.0 L 224.0,397.0 L 162.0,465.0"/>
    <path d="M 255.0,385.0 L 328.0,361.0 L 364.0,369.0 L 316.0,464.0 L 285.0,500.0"/>
    <path d="M 125.0,531.0 L 151.0,553.0 L 196.0,767.0"/>
    <path d="M 183.0,555.0 L 194.0,544.0 L 223.0,534.0 L 351.0,501.0 L 376.0,500.0 L 390.0,508.0 L 407.0,527.0 L 371.0,704.0 L 374.0,727.0"/>
    <path d="M 225.0,636.0 L 305.0,616.0 L 338.0,619.0"/>
    <path d="M 260.0,546.0 L 280.0,563.0 L 281.0,670.0 L 280.0,682.0 L 270.0,694.0"/>
    <path d="M 214.0,737.0 L 232.0,726.0 L 336.0,698.0"/>
    <path d="M 97.0,866.0 L 146.0,882.0 L 405.0,787.0"/>
    <path d="M 457.0,373.0 L 485.0,411.0 L 488.0,514.0 L 482.0,674.0 L 472.0,768.0 L 477.0,812.0"/>
    <path d="M 500.0,383.0 L 519.0,388.0 L 581.0,366.0 L 603.0,373.0 L 618.0,387.0 L 617.0,748.0 L 608.0,774.0 L 612.0,817.0"/>
    <path d="M 509.0,574.0 L 519.0,562.0 L 565.0,562.0"/>
    <path d="M 499.0,777.0 L 516.0,759.0 L 574.0,755.0"/>
    <path d="M 637.0,507.0 L 715.0,502.0 L 901.0,461.0 L 954.0,467.0"/>
    <path d="M 778.0,235.0 L 803.0,250.0 L 822.0,276.0 L 817.0,447.0 L 829.0,893.0 L 815.0,940.0 L 806.0,950.0 L 689.0,893.0"/>
    <path d="M 660.0,610.0 L 716.0,655.0 L 737.0,697.0"/>
  </g>
</svg>
