<svg xmlns="http://www.w3.org/2000/svg" viewBox="0 0 1024 1024">
  <g style="fill:none;stroke:#000000;stroke-width:50;stroke-linecap:round;stroke-linejoin:round;" transform="scale(1, 1) translate(0, 0)">
    <path d="M 261.0,196.0 L 278.0,214.0 L 284.0,231.0 L 268.0,268.0 L 203.0,365.0 L 141.0,427.0"/>
    <path d="M 247.0,342.0 L 282.0,340.0 L 319.0,327.0 L 357.0,337.0 L 315.0,417.0 L 264.0,490.0"/>
    <path d="M 109.0,519.0 L 131.0,537.0 L 138.0,551.0 L 176.0,735.0"/>
    <path d="M 160.0,542.0 L 183.0,525.0 L 313.0,490.0 L 352.0,488.0 L 370.0,496.0 L 387.0,515.0 L 351.0,676.0 L 354.0,699.0"/>
    <path d="M 203.0,613.0 L 289.0,595.0 L 317.0,599.0"/>
    <path d="M 240.0,528.0 L 256.0,540.0 L 261.0,560.0 L 260.0,658.0 L 251.0,669.0"/>
    <path d="M 197.0,707.0 L 200.0,701.0 L 310.0,679.0 L 322.0,672.0"/>
    <path d="M 73.0,839.0 L 123.0,853.0 L 393.0,751.0"/>
    <path d="M 481.0,368.0 L 493.0,374.0 L 605.0,342.0 L 617.0,348.0 L 634.0,370.0 L 617.0,452.0 L 609.0,536.0 L 598.0,564.0 L 580.0,556.0"/>
    <path d="M 494.0,484.0 L 497.0,474.0 L 521.0,465.0 L 567.0,463.0"/>
    <path d="M 488.0,581.0 L 499.0,568.0 L 537.0,560.0 L 557.0,560.0 L 562.0,568.0"/>
    <path d="M 427.0,356.0 L 454.0,382.0 L 462.0,406.0 L 467.0,595.0 L 456.0,768.0 L 462.0,793.0 L 490.0,784.0 L 578.0,714.0 L 583.0,701.0"/>
    <path d="M 566.0,646.0 L 615.0,705.0 L 632.0,752.0"/>
    <path d="M 764.0,471.0 L 769.0,455.0 L 873.0,421.0 L 886.0,420.0 L 907.0,436.0 L 899.0,572.0 L 879.0,652.0 L 868.0,674.0 L 847.0,696.0 L 794.0,670.0"/>
    <path d="M 686.0,435.0 L 721.0,466.0 L 725.0,502.0 L 715.0,1074.0"/>
  </g>
</svg>
