<svg xmlns="http://www.w3.org/2000/svg" viewBox="0 0 1024 1024">
  <g style="fill:none;stroke:#000000;stroke-width:50;stroke-linecap:round;stroke-linejoin:round;" transform="scale(1, 1) translate(0, 0)">
    <path d="M 302.0,202.0 L 326.0,241.0 L 298.0,296.0 L 212.0,404.0 L 127.0,480.0"/>
    <path d="M 282.0,355.0 L 344.0,344.0 L 362.0,335.0 L 386.0,336.0 L 413.0,350.0 L 331.0,497.0 L 311.0,515.0"/>
    <path d="M 133.0,552.0 L 162.0,586.0 L 189.0,702.0 L 204.0,799.0"/>
    <path d="M 183.0,558.0 L 199.0,563.0 L 379.0,516.0 L 408.0,517.0 L 434.0,536.0 L 439.0,554.0 L 413.0,707.0 L 401.0,744.0 L 407.0,763.0"/>
    <path d="M 231.0,663.0 L 340.0,633.0 L 370.0,636.0"/>
    <path d="M 280.0,560.0 L 297.0,573.0 L 300.0,589.0 L 300.0,701.0 L 287.0,726.0"/>
    <path d="M 224.0,773.0 L 240.0,761.0 L 372.0,727.0"/>
    <path d="M 109.0,919.0 L 164.0,934.0 L 460.0,815.0"/>
    <path d="M 484.0,389.0 L 504.0,407.0 L 515.0,428.0 L 557.0,649.0"/>
    <path d="M 533.0,392.0 L 549.0,401.0 L 787.0,361.0 L 840.0,367.0 L 865.0,396.0 L 852.0,435.0 L 834.0,534.0 L 810.0,603.0 L 815.0,624.0"/>
    <path d="M 591.0,517.0 L 714.0,490.0 L 764.0,492.0"/>
    <path d="M 572.0,633.0 L 593.0,622.0 L 643.0,617.0 L 774.0,589.0"/>
    <path d="M 643.0,405.0 L 674.0,420.0 L 680.0,460.0 L 674.0,886.0 L 671.0,897.0 L 658.0,908.0"/>
    <path d="M 521.0,776.0 L 547.0,782.0 L 602.0,780.0 L 704.0,764.0 L 791.0,742.0 L 832.0,744.0"/>
    <path d="M 442.0,948.0 L 492.0,957.0 L 847.0,917.0 L 898.0,922.0 L 943.0,937.0"/>
  </g>
</svg>
