<svg xmlns="http://www.w3.org/2000/svg" viewBox="0 0 1024 1024">
  <g style="fill:none;stroke:#000000;stroke-width:50;stroke-linecap:round;stroke-linejoin:round;" transform="scale(1, 1) translate(0, 0)">
    <path d="M 286.0,216.0 L 311.0,246.0 L 313.0,255.0 L 302.0,276.0 L 266.0,337.0 L 202.0,421.0 L 143.0,476.0"/>
    <path d="M 258.0,381.0 L 345.0,353.0 L 381.0,362.0 L 370.0,393.0 L 309.0,503.0 L 289.0,521.0"/>
    <path d="M 124.0,551.0 L 146.0,570.0 L 156.0,589.0 L 200.0,794.0"/>
    <path d="M 179.0,551.0 L 194.0,561.0 L 369.0,518.0 L 400.0,521.0 L 427.0,541.0 L 432.0,548.0 L 411.0,661.0 L 390.0,734.0 L 395.0,758.0"/>
    <path d="M 226.0,656.0 L 322.0,632.0 L 357.0,635.0"/>
    <path d="M 267.0,560.0 L 288.0,576.0 L 292.0,609.0 L 288.0,714.0 L 274.0,729.0"/>
    <path d="M 217.0,771.0 L 235.0,761.0 L 346.0,736.0 L 355.0,729.0"/>
    <path d="M 98.0,903.0 L 147.0,919.0 L 338.0,853.0 L 350.0,854.0 L 425.0,823.0"/>
    <path d="M 477.0,297.0 L 506.0,331.0 L 514.0,411.0 L 512.0,704.0 L 494.0,883.0 L 500.0,946.0"/>
    <path d="M 544.0,318.0 L 556.0,330.0 L 811.0,283.0 L 858.0,318.0 L 867.0,807.0 L 866.0,869.0 L 853.0,906.0 L 856.0,969.0"/>
    <path d="M 569.0,483.0 L 577.0,488.0 L 627.0,488.0 L 695.0,479.0 L 751.0,462.0 L 788.0,457.0 L 803.0,461.0"/>
    <path d="M 636.0,335.0 L 668.0,357.0 L 673.0,367.0 L 660.0,560.0 L 656.0,585.0 L 642.0,600.0"/>
    <path d="M 564.0,609.0 L 587.0,638.0 L 610.0,796.0"/>
    <path d="M 608.0,631.0 L 617.0,623.0 L 727.0,600.0 L 745.0,605.0 L 760.0,623.0 L 757.0,635.0 L 733.0,700.0 L 715.0,712.0"/>
    <path d="M 626.0,742.0 L 634.0,749.0 L 702.0,735.0 L 760.0,740.0"/>
    <path d="M 529.0,910.0 L 550.0,894.0 L 796.0,870.0"/>
  </g>
</svg>
