<svg xmlns="http://www.w3.org/2000/svg" viewBox="0 0 1024 1024">
  <g style="fill:none;stroke:#000000;stroke-width:50;stroke-linecap:round;stroke-linejoin:round;" transform="scale(1, 1) translate(0, 0)">
    <path d="M 296.0,210.0 L 315.0,232.0 L 321.0,255.0 L 287.0,317.0 L 208.0,421.0 L 139.0,484.0"/>
    <path d="M 289.0,356.0 L 356.0,338.0 L 385.0,339.0 L 405.0,348.0 L 336.0,469.0 L 309.0,501.0"/>
    <path d="M 141.0,536.0 L 159.0,552.0 L 174.0,590.0 L 204.0,779.0"/>
    <path d="M 191.0,535.0 L 201.0,546.0 L 208.0,545.0 L 373.0,503.0 L 399.0,503.0 L 426.0,524.0 L 431.0,532.0 L 410.0,644.0 L 386.0,726.0 L 391.0,742.0"/>
    <path d="M 233.0,637.0 L 325.0,619.0 L 361.0,623.0"/>
    <path d="M 270.0,548.0 L 290.0,561.0 L 295.0,596.0 L 292.0,695.0 L 279.0,711.0"/>
    <path d="M 221.0,754.0 L 231.0,745.0 L 341.0,721.0 L 352.0,713.0"/>
    <path d="M 111.0,896.0 L 168.0,911.0 L 383.0,839.0 L 452.0,810.0"/>
    <path d="M 544.0,375.0 L 617.0,376.0 L 730.0,345.0 L 796.0,341.0"/>
    <path d="M 633.0,187.0 L 677.0,223.0 L 670.0,454.0 L 654.0,476.0"/>
    <path d="M 508.0,516.0 L 553.0,522.0 L 659.0,500.0 L 829.0,477.0 L 898.0,490.0"/>
    <path d="M 537.0,575.0 L 554.0,602.0 L 538.0,630.0 L 482.0,693.0 L 447.0,716.0"/>
    <path d="M 749.0,551.0 L 851.0,621.0 L 866.0,637.0 L 883.0,674.0"/>
    <path d="M 608.0,651.0 L 625.0,679.0 L 564.0,780.0 L 494.0,855.0 L 424.0,906.0 L 413.0,906.0 L 412.0,912.0"/>
    <path d="M 636.0,724.0 L 667.0,707.0 L 711.0,695.0 L 756.0,711.0 L 725.0,804.0 L 679.0,893.0 L 633.0,946.0 L 585.0,981.0 L 517.0,1013.0 L 443.0,1028.0"/>
    <path d="M 581.0,795.0 L 597.0,796.0 L 611.0,806.0 L 706.0,914.0 L 781.0,980.0 L 829.0,1013.0 L 965.0,1029.0"/>
  </g>
</svg>
