<svg xmlns="http://www.w3.org/2000/svg" viewBox="0 0 1024 1024">
  <g style="fill:none;stroke:#000000;stroke-width:50;stroke-linecap:round;stroke-linejoin:round;" transform="scale(1, 1) translate(0, 0)">
    <path d="M 284.0,199.0 L 303.0,220.0 L 310.0,240.0 L 287.0,288.0 L 214.0,388.0 L 127.0,476.0"/>
    <path d="M 274.0,348.0 L 365.0,329.0 L 400.0,340.0 L 339.0,455.0 L 304.0,501.0"/>
    <path d="M 136.0,533.0 L 166.0,568.0 L 205.0,781.0"/>
    <path d="M 191.0,537.0 L 207.0,542.0 L 362.0,504.0 L 392.0,506.0 L 419.0,526.0 L 424.0,533.0 L 382.0,731.0 L 387.0,746.0"/>
    <path d="M 229.0,640.0 L 322.0,617.0 L 357.0,619.0"/>
    <path d="M 273.0,547.0 L 292.0,561.0 L 293.0,686.0 L 279.0,711.0"/>
    <path d="M 226.0,751.0 L 231.0,744.0 L 339.0,721.0 L 358.0,709.0"/>
    <path d="M 107.0,912.0 L 160.0,930.0 L 453.0,827.0"/>
    <path d="M 573.0,297.0 L 606.0,339.0 L 614.0,423.0 L 609.0,792.0 L 595.0,908.0 L 600.0,982.0"/>
    <path d="M 479.0,478.0 L 508.0,482.0 L 575.0,472.0 L 587.0,480.0"/>
    <path d="M 459.0,610.0 L 485.0,614.0 L 529.0,608.0 L 577.0,597.0 L 588.0,586.0"/>
    <path d="M 439.0,765.0 L 481.0,770.0 L 558.0,729.0 L 572.0,728.0 L 576.0,722.0 L 589.0,724.0"/>
    <path d="M 689.0,229.0 L 743.0,282.0 L 745.0,782.0 L 735.0,919.0 L 740.0,1013.0"/>
    <path d="M 768.0,458.0 L 783.0,446.0 L 816.0,440.0 L 882.0,430.0 L 917.0,432.0"/>
    <path d="M 775.0,600.0 L 783.0,589.0 L 804.0,585.0 L 881.0,576.0 L 900.0,579.0"/>
    <path d="M 774.0,739.0 L 788.0,725.0 L 889.0,709.0 L 943.0,722.0"/>
  </g>
</svg>
