<svg xmlns="http://www.w3.org/2000/svg" viewBox="0 0 1024 1024">
  <g style="fill:none;stroke:#000000;stroke-width:50;stroke-linecap:round;stroke-linejoin:round;" transform="scale(1, 1) translate(0, 0)">
    <path d="M 263.0,207.0 L 282.0,229.0 L 288.0,253.0 L 254.0,315.0 L 174.0,419.0 L 113.0,478.0 L 104.0,480.0"/>
    <path d="M 256.0,354.0 L 345.0,334.0 L 372.0,346.0 L 320.0,443.0 L 277.0,496.0"/>
    <path d="M 106.0,533.0 L 127.0,550.0 L 136.0,570.0 L 171.0,778.0"/>
    <path d="M 158.0,533.0 L 169.0,544.0 L 325.0,504.0 L 367.0,501.0 L 380.0,509.0 L 399.0,531.0 L 374.0,661.0 L 353.0,719.0 L 355.0,740.0"/>
    <path d="M 199.0,636.0 L 292.0,618.0 L 327.0,621.0"/>
    <path d="M 237.0,547.0 L 256.0,559.0 L 260.0,572.0 L 259.0,694.0 L 244.0,707.0"/>
    <path d="M 189.0,753.0 L 209.0,742.0 L 308.0,720.0 L 319.0,712.0"/>
    <path d="M 79.0,897.0 L 131.0,912.0 L 367.0,832.0 L 419.0,809.0"/>
    <path d="M 502.0,305.0 L 526.0,326.0 L 533.0,346.0 L 569.0,553.0"/>
    <path d="M 548.0,313.0 L 568.0,315.0 L 667.0,286.0 L 711.0,281.0 L 738.0,286.0 L 755.0,302.0 L 761.0,313.0 L 732.0,475.0 L 720.0,513.0 L 725.0,537.0"/>
    <path d="M 576.0,425.0 L 584.0,414.0 L 608.0,406.0 L 655.0,403.0 L 670.0,408.0"/>
    <path d="M 589.0,519.0 L 595.0,508.0 L 689.0,494.0"/>
    <path d="M 436.0,630.0 L 478.0,639.0 L 585.0,618.0 L 828.0,585.0 L 900.0,599.0"/>
    <path d="M 620.0,633.0 L 652.0,664.0 L 648.0,852.0 L 665.0,894.0"/>
    <path d="M 683.0,766.0 L 692.0,759.0 L 791.0,742.0 L 829.0,746.0"/>
    <path d="M 483.0,721.0 L 509.0,753.0 L 489.0,832.0 L 449.0,914.0 L 418.0,956.0 L 377.0,997.0"/>
    <path d="M 529.0,807.0 L 529.0,820.0 L 540.0,837.0 L 612.0,895.0 L 713.0,958.0 L 779.0,990.0 L 822.0,997.0 L 949.0,986.0"/>
  </g>
</svg>
