<svg xmlns="http://www.w3.org/2000/svg" viewBox="0 0 1024 1024">
  <g style="fill:none;stroke:#000000;stroke-width:50;stroke-linecap:round;stroke-linejoin:round;" transform="scale(1, 1) translate(0, 0)">
    <path d="M 283.0,196.0 L 301.0,215.0 L 309.0,235.0 L 286.0,283.0 L 189.0,415.0 L 143.0,456.0"/>
    <path d="M 255.0,367.0 L 335.0,346.0 L 372.0,356.0 L 316.0,464.0 L 286.0,499.0"/>
    <path d="M 115.0,536.0 L 141.0,560.0 L 149.0,577.0 L 184.0,762.0"/>
    <path d="M 164.0,541.0 L 179.0,545.0 L 339.0,502.0 L 381.0,500.0 L 393.0,507.0 L 411.0,527.0 L 387.0,652.0 L 366.0,723.0 L 370.0,739.0"/>
    <path d="M 217.0,633.0 L 306.0,615.0 L 345.0,619.0"/>
    <path d="M 253.0,540.0 L 276.0,561.0 L 276.0,683.0 L 273.0,698.0 L 263.0,706.0"/>
    <path d="M 202.0,747.0 L 222.0,735.0 L 327.0,715.0 L 341.0,707.0"/>
    <path d="M 98.0,876.0 L 118.0,885.0 L 157.0,890.0 L 416.0,791.0"/>
    <path d="M 453.0,333.0 L 494.0,333.0 L 564.0,320.0 L 746.0,272.0 L 769.0,276.0 L 785.0,290.0 L 794.0,302.0 L 774.0,397.0 L 772.0,552.0 L 788.0,699.0 L 811.0,788.0 L 848.0,868.0 L 888.0,914.0 L 929.0,935.0 L 946.0,933.0 L 957.0,899.0 L 962.0,782.0"/>
    <path d="M 694.0,402.0 L 677.0,395.0 L 637.0,393.0 L 576.0,436.0 L 474.0,483.0"/>
    <path d="M 443.0,582.0 L 469.0,615.0 L 493.0,742.0"/>
    <path d="M 472.0,580.0 L 495.0,589.0 L 644.0,551.0 L 664.0,552.0 L 693.0,576.0 L 677.0,640.0 L 657.0,659.0"/>
    <path d="M 509.0,716.0 L 538.0,703.0 L 646.0,683.0 L 693.0,689.0"/>
    <path d="M 550.0,471.0 L 573.0,483.0 L 577.0,501.0 L 574.0,793.0 L 570.0,809.0 L 559.0,817.0"/>
    <path d="M 411.0,863.0 L 458.0,878.0 L 660.0,813.0 L 679.0,814.0"/>
    <path d="M 668.0,745.0 L 732.0,850.0 L 737.0,900.0"/>
  </g>
</svg>
