<svg xmlns="http://www.w3.org/2000/svg" viewBox="0 0 1024 1024">
  <g style="fill:none;stroke:#000000;stroke-width:50;stroke-linecap:round;stroke-linejoin:round;" transform="scale(1, 1) translate(0, 0)">
    <path d="M 302.0,228.0 L 327.0,258.0 L 329.0,267.0 L 318.0,288.0 L 228.0,421.0 L 159.0,488.0"/>
    <path d="M 272.0,396.0 L 367.0,377.0 L 405.0,388.0 L 335.0,506.0 L 311.0,527.0"/>
    <path d="M 135.0,562.0 L 158.0,579.0 L 169.0,602.0 L 208.0,794.0"/>
    <path d="M 190.0,563.0 L 206.0,569.0 L 382.0,529.0 L 417.0,534.0 L 439.0,554.0 L 444.0,561.0 L 421.0,672.0 L 398.0,749.0 L 403.0,770.0"/>
    <path d="M 228.0,669.0 L 337.0,645.0 L 372.0,647.0"/>
    <path d="M 281.0,568.0 L 303.0,584.0 L 307.0,603.0 L 305.0,709.0 L 291.0,731.0"/>
    <path d="M 227.0,775.0 L 243.0,764.0 L 364.0,738.0"/>
    <path d="M 115.0,909.0 L 138.0,921.0 L 175.0,924.0 L 444.0,835.0"/>
    <path d="M 635.0,200.0 L 649.0,207.0 L 670.0,233.0 L 633.0,302.0 L 579.0,381.0"/>
    <path d="M 492.0,401.0 L 511.0,417.0 L 524.0,442.0 L 561.0,641.0"/>
    <path d="M 536.0,404.0 L 565.0,411.0 L 749.0,378.0 L 791.0,390.0 L 812.0,418.0 L 786.0,531.0 L 768.0,592.0 L 761.0,603.0 L 739.0,606.0"/>
    <path d="M 568.0,521.0 L 590.0,507.0 L 620.0,499.0 L 665.0,492.0 L 696.0,497.0"/>
    <path d="M 579.0,616.0 L 613.0,601.0 L 728.0,586.0"/>
    <path d="M 503.0,723.0 L 561.0,732.0 L 667.0,719.0 L 780.0,696.0 L 818.0,702.0"/>
    <path d="M 509.0,860.0 L 571.0,867.0 L 727.0,835.0 L 794.0,832.0"/>
    <path d="M 619.0,751.0 L 650.0,777.0 L 648.0,946.0 L 633.0,962.0"/>
    <path d="M 394.0,1001.0 L 448.0,1010.0 L 578.0,992.0 L 853.0,971.0 L 889.0,974.0 L 938.0,992.0"/>
  </g>
</svg>
