<svg xmlns="http://www.w3.org/2000/svg" viewBox="0 0 1024 1024">
  <g style="fill:none;stroke:#000000;stroke-width:50;stroke-linecap:round;stroke-linejoin:round;" transform="scale(1, 1) translate(0, 0)">
    <path d="M 291.0,214.0 L 301.0,223.0 L 315.0,255.0 L 293.0,295.0 L 212.0,400.0 L 147.0,456.0"/>
    <path d="M 280.0,350.0 L 371.0,324.0 L 406.0,329.0 L 408.0,337.0 L 360.0,422.0 L 307.0,491.0"/>
    <path d="M 137.0,536.0 L 155.0,552.0 L 168.0,578.0 L 200.0,767.0"/>
    <path d="M 175.0,537.0 L 196.0,544.0 L 381.0,495.0 L 411.0,497.0 L 425.0,504.0 L 443.0,525.0 L 406.0,688.0 L 394.0,714.0 L 365.0,707.0"/>
    <path d="M 226.0,641.0 L 328.0,616.0 L 365.0,619.0"/>
    <path d="M 282.0,542.0 L 298.0,553.0 L 300.0,591.0 L 296.0,698.0 L 283.0,710.0"/>
    <path d="M 218.0,748.0 L 247.0,736.0 L 344.0,717.0 L 361.0,723.0"/>
    <path d="M 115.0,884.0 L 140.0,894.0 L 172.0,896.0 L 432.0,780.0"/>
    <path d="M 509.0,399.0 L 528.0,417.0 L 539.0,444.0 L 573.0,675.0"/>
    <path d="M 562.0,403.0 L 577.0,411.0 L 614.0,398.0 L 793.0,364.0 L 820.0,368.0 L 840.0,386.0 L 848.0,402.0 L 831.0,447.0 L 790.0,634.0"/>
    <path d="M 600.0,529.0 L 724.0,501.0 L 760.0,503.0"/>
    <path d="M 658.0,410.0 L 680.0,425.0 L 684.0,453.0 L 680.0,598.0 L 666.0,613.0"/>
    <path d="M 592.0,656.0 L 603.0,648.0 L 712.0,626.0 L 754.0,622.0 L 763.0,635.0"/>
    <path d="M 481.0,787.0 L 461.0,872.0 L 436.0,936.0"/>
    <path d="M 559.0,790.0 L 593.0,871.0 L 632.0,911.0 L 653.0,925.0 L 716.0,948.0 L 804.0,959.0 L 853.0,951.0 L 875.0,938.0 L 856.0,883.0 L 812.0,797.0"/>
    <path d="M 643.0,710.0 L 706.0,760.0 L 727.0,802.0"/>
    <path d="M 840.0,674.0 L 935.0,745.0 L 956.0,786.0"/>
  </g>
</svg>
