<svg xmlns="http://www.w3.org/2000/svg" viewBox="0 0 1024 1024">
  <g style="fill:none;stroke:#000000;stroke-width:50;stroke-linecap:round;stroke-linejoin:round;" transform="scale(1, 1) translate(0, 0)">
    <path d="M 300.0,215.0 L 325.0,248.0 L 313.0,282.0 L 246.0,381.0 L 156.0,472.0"/>
    <path d="M 277.0,379.0 L 364.0,357.0 L 404.0,368.0 L 351.0,470.0 L 319.0,511.0"/>
    <path d="M 156.0,541.0 L 186.0,576.0 L 221.0,769.0"/>
    <path d="M 213.0,543.0 L 229.0,550.0 L 360.0,514.0 L 399.0,509.0 L 434.0,520.0 L 451.0,539.0 L 424.0,681.0 L 409.0,720.0 L 389.0,711.0"/>
    <path d="M 248.0,644.0 L 350.0,618.0 L 390.0,619.0"/>
    <path d="M 294.0,552.0 L 314.0,565.0 L 318.0,576.0 L 317.0,685.0 L 303.0,708.0"/>
    <path d="M 241.0,751.0 L 246.0,743.0 L 354.0,719.0 L 366.0,719.0 L 376.0,727.0"/>
    <path d="M 104.0,878.0 L 154.0,895.0 L 420.0,807.0"/>
    <path d="M 561.0,213.0 L 589.0,245.0 L 562.0,325.0 L 527.0,387.0 L 465.0,453.0"/>
    <path d="M 577.0,354.0 L 662.0,343.0 L 770.0,313.0 L 812.0,313.0"/>
    <path d="M 518.0,450.0 L 543.0,483.0 L 563.0,661.0"/>
    <path d="M 563.0,457.0 L 575.0,463.0 L 707.0,430.0 L 733.0,436.0 L 750.0,452.0 L 753.0,468.0 L 715.0,621.0 L 718.0,643.0"/>
    <path d="M 580.0,558.0 L 584.0,549.0 L 627.0,538.0 L 674.0,539.0"/>
    <path d="M 582.0,639.0 L 590.0,630.0 L 682.0,612.0"/>
    <path d="M 548.0,674.0 L 567.0,701.0 L 504.0,807.0 L 435.0,881.0 L 358.0,933.0"/>
    <path d="M 566.0,759.0 L 622.0,753.0 L 690.0,732.0 L 718.0,735.0 L 738.0,745.0 L 698.0,850.0 L 679.0,885.0 L 639.0,936.0 L 593.0,973.0 L 531.0,1004.0 L 460.0,1025.0 L 427.0,1028.0"/>
    <path d="M 533.0,806.0 L 561.0,818.0 L 700.0,957.0 L 772.0,1009.0 L 808.0,1025.0 L 956.0,1044.0"/>
  </g>
</svg>
