<svg xmlns="http://www.w3.org/2000/svg" viewBox="0 0 1024 1024">
  <g style="fill:none;stroke:#000000;stroke-width:50;stroke-linecap:round;stroke-linejoin:round;" transform="scale(1, 1) translate(0, 0)">
    <path d="M 271.0,208.0 L 294.0,242.0 L 289.0,262.0 L 262.0,312.0 L 216.0,376.0 L 151.0,440.0"/>
    <path d="M 266.0,353.0 L 357.0,325.0 L 393.0,338.0 L 378.0,369.0 L 301.0,474.0 L 278.0,491.0"/>
    <path d="M 120.0,511.0 L 149.0,543.0 L 192.0,755.0"/>
    <path d="M 179.0,532.0 L 185.0,522.0 L 346.0,491.0 L 382.0,490.0 L 403.0,498.0 L 420.0,513.0 L 424.0,521.0 L 391.0,681.0 L 381.0,703.0 L 361.0,694.0"/>
    <path d="M 223.0,612.0 L 307.0,598.0 L 344.0,602.0"/>
    <path d="M 260.0,528.0 L 277.0,544.0 L 278.0,560.0 L 277.0,660.0 L 263.0,682.0"/>
    <path d="M 211.0,719.0 L 226.0,710.0 L 304.0,694.0 L 331.0,693.0 L 347.0,702.0"/>
    <path d="M 108.0,858.0 L 130.0,869.0 L 163.0,874.0 L 404.0,795.0"/>
    <path d="M 506.0,272.0 L 535.0,280.0 L 580.0,280.0 L 758.0,246.0 L 812.0,248.0"/>
    <path d="M 465.0,399.0 L 496.0,436.0 L 528.0,579.0"/>
    <path d="M 492.0,398.0 L 523.0,407.0 L 772.0,376.0 L 813.0,381.0 L 833.0,399.0 L 838.0,421.0 L 809.0,514.0 L 797.0,534.0 L 774.0,523.0"/>
    <path d="M 555.0,305.0 L 584.0,324.0 L 593.0,341.0 L 606.0,500.0 L 606.0,511.0 L 596.0,519.0"/>
    <path d="M 682.0,285.0 L 716.0,313.0 L 699.0,485.0 L 693.0,501.0 L 683.0,508.0"/>
    <path d="M 544.0,540.0 L 553.0,546.0 L 728.0,523.0 L 750.0,525.0 L 756.0,535.0"/>
    <path d="M 538.0,633.0 L 560.0,640.0 L 597.0,640.0 L 719.0,617.0 L 767.0,618.0"/>
    <path d="M 444.0,752.0 L 489.0,759.0 L 602.0,736.0 L 837.0,704.0 L 914.0,718.0"/>
    <path d="M 640.0,753.0 L 662.0,769.0 L 673.0,800.0 L 670.0,931.0 L 662.0,962.0 L 647.0,986.0 L 560.0,946.0"/>
    <path d="M 512.0,829.0 L 497.0,884.0 L 457.0,964.0"/>
    <path d="M 768.0,812.0 L 858.0,888.0 L 876.0,924.0 L 879.0,945.0"/>
  </g>
</svg>
