<svg xmlns="http://www.w3.org/2000/svg" viewBox="0 0 1024 1024">
  <g style="fill:none;stroke:#000000;stroke-width:50;stroke-linecap:round;stroke-linejoin:round;" transform="scale(1, 1) translate(0, 0)">
    <path d="M 290.0,200.0 L 309.0,218.0 L 317.0,239.0 L 303.0,266.0 L 231.0,374.0 L 176.0,434.0 L 151.0,452.0"/>
    <path d="M 271.0,356.0 L 363.0,341.0 L 397.0,357.0 L 309.0,488.0 L 281.0,507.0"/>
    <path d="M 120.0,535.0 L 146.0,558.0 L 154.0,580.0 L 196.0,766.0"/>
    <path d="M 170.0,541.0 L 190.0,546.0 L 366.0,503.0 L 397.0,502.0 L 420.0,510.0 L 438.0,532.0 L 437.0,542.0 L 400.0,693.0 L 385.0,729.0 L 386.0,751.0"/>
    <path d="M 216.0,637.0 L 317.0,613.0 L 357.0,616.0"/>
    <path d="M 267.0,543.0 L 282.0,554.0 L 288.0,568.0 L 289.0,682.0 L 285.0,698.0 L 275.0,705.0"/>
    <path d="M 214.0,751.0 L 229.0,739.0 L 254.0,733.0 L 357.0,717.0"/>
    <path d="M 110.0,875.0 L 159.0,890.0 L 397.0,807.0"/>
    <path d="M 488.0,308.0 L 521.0,345.0 L 560.0,498.0"/>
    <path d="M 512.0,307.0 L 522.0,304.0 L 544.0,313.0 L 786.0,274.0 L 825.0,274.0 L 848.0,282.0 L 867.0,310.0 L 809.0,454.0 L 807.0,480.0"/>
    <path d="M 627.0,318.0 L 631.0,373.0 L 644.0,441.0 L 651.0,449.0"/>
    <path d="M 718.0,300.0 L 743.0,322.0 L 722.0,407.0 L 706.0,439.0"/>
    <path d="M 576.0,485.0 L 591.0,476.0 L 762.0,450.0 L 775.0,443.0"/>
    <path d="M 647.0,521.0 L 678.0,560.0 L 665.0,933.0 L 674.0,1040.0"/>
    <path d="M 572.0,605.0 L 549.0,612.0 L 498.0,687.0 L 452.0,726.0"/>
    <path d="M 594.0,728.0 L 566.0,741.0 L 540.0,792.0 L 482.0,870.0 L 430.0,922.0 L 392.0,949.0"/>
    <path d="M 764.0,586.0 L 847.0,631.0 L 878.0,668.0"/>
    <path d="M 769.0,740.0 L 879.0,836.0 L 895.0,860.0 L 903.0,891.0"/>
  </g>
</svg>
