<svg xmlns="http://www.w3.org/2000/svg" viewBox="0 0 1024 1024">
  <g style="fill:none;stroke:#000000;stroke-width:50;stroke-linecap:round;stroke-linejoin:round;" transform="scale(1, 1) translate(0, 0)">
    <path d="M 278.0,237.0 L 297.0,256.0 L 305.0,276.0 L 293.0,303.0 L 261.0,363.0 L 213.0,429.0 L 158.0,484.0"/>
    <path d="M 262.0,398.0 L 359.0,374.0 L 390.0,386.0 L 325.0,505.0 L 303.0,523.0"/>
    <path d="M 136.0,553.0 L 165.0,585.0 L 201.0,785.0"/>
    <path d="M 190.0,555.0 L 206.0,562.0 L 369.0,527.0 L 398.0,530.0 L 422.0,547.0 L 428.0,555.0 L 388.0,736.0 L 390.0,759.0"/>
    <path d="M 230.0,652.0 L 323.0,635.0 L 361.0,639.0"/>
    <path d="M 267.0,564.0 L 288.0,579.0 L 294.0,602.0 L 290.0,701.0 L 274.0,725.0"/>
    <path d="M 220.0,767.0 L 237.0,755.0 L 354.0,730.0"/>
    <path d="M 99.0,893.0 L 150.0,911.0 L 412.0,823.0"/>
    <path d="M 520.0,279.0 L 545.0,301.0 L 552.0,318.0 L 592.0,510.0"/>
    <path d="M 580.0,304.0 L 588.0,292.0 L 605.0,285.0 L 732.0,262.0 L 780.0,264.0 L 804.0,283.0 L 812.0,294.0 L 763.0,473.0 L 767.0,493.0"/>
    <path d="M 595.0,390.0 L 604.0,382.0 L 656.0,369.0 L 702.0,362.0 L 721.0,367.0"/>
    <path d="M 610.0,483.0 L 625.0,472.0 L 733.0,456.0"/>
    <path d="M 486.0,596.0 L 529.0,594.0 L 600.0,572.0 L 615.0,577.0 L 633.0,597.0 L 631.0,879.0 L 622.0,942.0 L 608.0,958.0 L 544.0,935.0 L 538.0,928.0 L 526.0,928.0"/>
    <path d="M 489.0,664.0 L 537.0,707.0 L 544.0,722.0"/>
    <path d="M 421.0,873.0 L 457.0,881.0 L 585.0,779.0"/>
    <path d="M 694.0,582.0 L 753.0,577.0 L 823.0,551.0 L 839.0,557.0 L 860.0,580.0 L 857.0,771.0 L 862.0,924.0 L 856.0,957.0 L 840.0,980.0 L 754.0,942.0"/>
    <path d="M 700.0,646.0 L 747.0,681.0 L 758.0,699.0"/>
    <path d="M 676.0,825.0 L 708.0,837.0 L 823.0,759.0 L 823.0,753.0"/>
  </g>
</svg>
