<svg xmlns="http://www.w3.org/2000/svg" viewBox="0 0 1024 1024">
  <g style="fill:none;stroke:#000000;stroke-width:50;stroke-linecap:round;stroke-linejoin:round;" transform="scale(1, 1) translate(0, 0)">
    <path d="M 229.0,321.0 L 251.0,327.0 L 289.0,326.0 L 457.0,290.0 L 495.0,291.0"/>
    <path d="M 254.0,406.0 L 301.0,408.0 L 428.0,377.0 L 479.0,379.0"/>
    <path d="M 352.0,189.0 L 387.0,223.0 L 374.0,437.0 L 360.0,454.0"/>
    <path d="M 179.0,507.0 L 191.0,512.0 L 237.0,508.0 L 405.0,461.0 L 469.0,450.0 L 489.0,453.0"/>
    <path d="M 367.0,527.0 L 374.0,533.0 L 401.0,536.0 L 424.0,552.0 L 428.0,561.0 L 410.0,612.0 L 388.0,649.0 L 363.0,666.0 L 325.0,628.0 L 325.0,621.0"/>
    <path d="M 345.0,506.0 L 338.0,531.0 L 306.0,580.0 L 247.0,645.0 L 169.0,709.0 L 104.0,744.0"/>
    <path d="M 603.0,181.0 L 624.0,196.0 L 635.0,215.0 L 622.0,264.0 L 572.0,376.0 L 516.0,460.0"/>
    <path d="M 600.0,372.0 L 689.0,353.0 L 795.0,316.0 L 830.0,319.0"/>
    <path d="M 726.0,393.0 L 704.0,397.0 L 686.0,464.0 L 648.0,525.0 L 615.0,552.0 L 558.0,578.0"/>
    <path d="M 564.0,451.0 L 601.0,464.0 L 743.0,591.0 L 790.0,618.0 L 815.0,627.0 L 942.0,645.0 L 951.0,639.0"/>
    <path d="M 490.0,579.0 L 507.0,607.0 L 503.0,618.0 L 454.0,685.0 L 412.0,722.0"/>
    <path d="M 505.0,652.0 L 558.0,637.0 L 593.0,649.0 L 543.0,719.0 L 524.0,730.0"/>
    <path d="M 336.0,774.0 L 369.0,810.0 L 404.0,953.0"/>
    <path d="M 373.0,771.0 L 399.0,779.0 L 605.0,737.0 L 642.0,735.0 L 670.0,744.0 L 688.0,770.0 L 632.0,921.0 L 631.0,944.0"/>
    <path d="M 448.0,857.0 L 550.0,833.0 L 585.0,836.0"/>
    <path d="M 492.0,779.0 L 513.0,793.0 L 518.0,811.0 L 516.0,882.0 L 502.0,899.0"/>
    <path d="M 422.0,947.0 L 453.0,934.0 L 601.0,905.0"/>
    <path d="M 224.0,1030.0 L 283.0,1047.0 L 495.0,1018.0 L 749.0,1000.0 L 773.0,1003.0 L 829.0,1024.0"/>
  </g>
</svg>
