<svg xmlns="http://www.w3.org/2000/svg" viewBox="0 0 1024 1024">
  <g style="fill:none;stroke:#000000;stroke-width:50;stroke-linecap:round;stroke-linejoin:round;" transform="scale(1, 1) translate(0, 0)">
    <path d="M 217.0,292.0 L 261.0,326.0 L 272.0,342.0"/>
    <path d="M 449.0,235.0 L 459.0,259.0 L 403.0,314.0 L 391.0,315.0 L 391.0,323.0"/>
    <path d="M 166.0,384.0 L 182.0,404.0 L 191.0,428.0 L 182.0,557.0 L 188.0,600.0"/>
    <path d="M 205.0,396.0 L 224.0,407.0 L 314.0,397.0 L 394.0,376.0 L 439.0,373.0 L 459.0,382.0 L 475.0,402.0 L 471.0,512.0 L 463.0,551.0"/>
    <path d="M 309.0,220.0 L 346.0,254.0 L 335.0,416.0 L 331.0,578.0 L 336.0,608.0"/>
    <path d="M 257.0,444.0 L 273.0,462.0 L 268.0,490.0 L 247.0,541.0 L 228.0,567.0"/>
    <path d="M 376.0,445.0 L 414.0,498.0"/>
    <path d="M 583.0,200.0 L 612.0,231.0 L 606.0,253.0 L 561.0,356.0 L 522.0,410.0"/>
    <path d="M 586.0,353.0 L 683.0,338.0 L 771.0,310.0 L 802.0,311.0"/>
    <path d="M 650.0,370.0 L 672.0,386.0 L 675.0,396.0 L 651.0,468.0 L 633.0,497.0 L 587.0,541.0 L 527.0,567.0"/>
    <path d="M 554.0,429.0 L 598.0,450.0 L 666.0,509.0 L 756.0,563.0 L 792.0,574.0 L 906.0,577.0"/>
    <path d="M 425.0,569.0 L 437.0,597.0 L 409.0,637.0 L 351.0,690.0 L 314.0,709.0"/>
    <path d="M 440.0,637.0 L 510.0,627.0 L 534.0,618.0 L 566.0,626.0 L 548.0,660.0 L 511.0,705.0 L 490.0,719.0"/>
    <path d="M 272.0,752.0 L 301.0,778.0 L 345.0,946.0"/>
    <path d="M 331.0,781.0 L 341.0,765.0 L 426.0,748.0 L 569.0,723.0 L 629.0,726.0 L 657.0,759.0 L 599.0,923.0"/>
    <path d="M 391.0,844.0 L 416.0,844.0 L 522.0,822.0 L 560.0,826.0"/>
    <path d="M 453.0,763.0 L 474.0,782.0 L 473.0,878.0 L 459.0,899.0"/>
    <path d="M 359.0,939.0 L 392.0,928.0 L 567.0,908.0 L 577.0,902.0"/>
    <path d="M 186.0,1018.0 L 242.0,1037.0 L 480.0,1008.0 L 712.0,994.0 L 784.0,1020.0"/>
  </g>
</svg>
