<svg xmlns="http://www.w3.org/2000/svg" viewBox="0 0 1024 1024">
  <g style="fill:none;stroke:#000000;stroke-width:50;stroke-linecap:round;stroke-linejoin:round;" transform="scale(1, 1) translate(0, 0)">
    <path d="M 283.0,180.0 L 305.0,214.0 L 287.0,253.0 L 205.0,357.0 L 147.0,413.0 L 112.0,437.0"/>
    <path d="M 284.0,308.0 L 302.0,299.0 L 371.0,288.0 L 405.0,305.0 L 331.0,416.0 L 281.0,472.0"/>
    <path d="M 124.0,496.0 L 155.0,527.0 L 204.0,730.0"/>
    <path d="M 185.0,519.0 L 197.0,507.0 L 314.0,478.0 L 384.0,467.0 L 409.0,475.0 L 427.0,494.0 L 399.0,651.0 L 390.0,675.0 L 394.0,695.0"/>
    <path d="M 229.0,602.0 L 329.0,574.0 L 358.0,576.0"/>
    <path d="M 273.0,506.0 L 291.0,521.0 L 292.0,531.0 L 289.0,641.0 L 276.0,664.0"/>
    <path d="M 224.0,705.0 L 238.0,694.0 L 359.0,662.0"/>
    <path d="M 100.0,847.0 L 155.0,861.0 L 400.0,755.0"/>
    <path d="M 523.0,311.0 L 565.0,346.0 L 576.0,366.0"/>
    <path d="M 789.0,234.0 L 805.0,265.0 L 717.0,350.0"/>
    <path d="M 499.0,436.0 L 522.0,441.0 L 572.0,436.0 L 769.0,395.0 L 806.0,392.0 L 837.0,398.0"/>
    <path d="M 624.0,194.0 L 648.0,210.0 L 667.0,235.0 L 649.0,554.0 L 657.0,603.0"/>
    <path d="M 630.0,451.0 L 598.0,498.0 L 547.0,552.0 L 513.0,578.0 L 462.0,604.0"/>
    <path d="M 678.0,441.0 L 697.0,464.0 L 756.0,512.0 L 833.0,563.0 L 911.0,577.0 L 972.0,578.0"/>
    <path d="M 499.0,604.0 L 517.0,624.0 L 504.0,652.0 L 454.0,723.0 L 428.0,745.0"/>
    <path d="M 487.0,705.0 L 554.0,686.0 L 570.0,687.0 L 582.0,700.0 L 547.0,784.0 L 484.0,878.0 L 414.0,946.0 L 369.0,973.0"/>
    <path d="M 457.0,766.0 L 493.0,802.0 L 496.0,818.0"/>
    <path d="M 660.0,684.0 L 719.0,687.0 L 830.0,664.0 L 862.0,664.0"/>
    <path d="M 639.0,733.0 L 658.0,760.0 L 633.0,848.0 L 663.0,850.0 L 848.0,819.0 L 915.0,832.0"/>
    <path d="M 729.0,598.0 L 762.0,629.0 L 764.0,659.0 L 759.0,1079.0"/>
  </g>
</svg>
