<svg xmlns="http://www.w3.org/2000/svg" viewBox="0 0 1024 1024">
  <g style="fill:none;stroke:#000000;stroke-width:50;stroke-linecap:round;stroke-linejoin:round;" transform="scale(1, 1) translate(0, 0)">
    <path d="M 262.0,215.0 L 274.0,223.0 L 290.0,253.0 L 274.0,289.0 L 223.0,383.0 L 166.0,457.0 L 142.0,476.0"/>
    <path d="M 249.0,379.0 L 326.0,355.0 L 365.0,364.0 L 320.0,446.0 L 283.0,492.0"/>
    <path d="M 109.0,524.0 L 138.0,559.0 L 176.0,763.0"/>
    <path d="M 158.0,529.0 L 170.0,535.0 L 359.0,495.0 L 382.0,500.0 L 399.0,515.0 L 404.0,522.0 L 379.0,669.0 L 367.0,707.0 L 370.0,731.0"/>
    <path d="M 206.0,629.0 L 301.0,608.0 L 337.0,611.0"/>
    <path d="M 246.0,536.0 L 266.0,549.0 L 271.0,584.0 L 268.0,683.0 L 255.0,699.0"/>
    <path d="M 193.0,743.0 L 222.0,728.0 L 334.0,702.0"/>
    <path d="M 86.0,881.0 L 97.0,888.0 L 138.0,894.0 L 380.0,783.0"/>
    <path d="M 597.0,193.0 L 669.0,227.0 L 690.0,253.0"/>
    <path d="M 519.0,327.0 L 541.0,340.0 L 562.0,340.0 L 671.0,325.0 L 791.0,298.0 L 836.0,299.0"/>
    <path d="M 462.0,320.0 L 488.0,343.0 L 497.0,362.0 L 497.0,429.0 L 480.0,600.0 L 461.0,704.0 L 433.0,795.0 L 394.0,879.0 L 319.0,987.0"/>
    <path d="M 561.0,442.0 L 602.0,446.0 L 747.0,417.0 L 781.0,425.0 L 803.0,443.0 L 779.0,561.0 L 762.0,576.0"/>
    <path d="M 538.0,540.0 L 561.0,544.0 L 846.0,496.0 L 896.0,496.0 L 938.0,506.0"/>
    <path d="M 547.0,629.0 L 585.0,631.0 L 758.0,603.0 L 793.0,604.0 L 810.0,612.0"/>
    <path d="M 511.0,708.0 L 532.0,726.0 L 542.0,750.0 L 544.0,782.0 L 542.0,865.0 L 523.0,1022.0"/>
    <path d="M 554.0,712.0 L 579.0,723.0 L 780.0,683.0 L 794.0,684.0 L 822.0,703.0 L 829.0,715.0 L 838.0,952.0 L 828.0,1014.0 L 822.0,1023.0 L 809.0,1021.0 L 779.0,1012.0 L 749.0,993.0 L 734.0,992.0"/>
    <path d="M 591.0,809.0 L 636.0,805.0 L 705.0,788.0 L 739.0,786.0 L 761.0,792.0"/>
    <path d="M 584.0,894.0 L 721.0,874.0 L 772.0,879.0"/>
    <path d="M 641.0,383.0 L 676.0,413.0 L 678.0,435.0 L 667.0,1055.0"/>
  </g>
</svg>
