<svg xmlns="http://www.w3.org/2000/svg" viewBox="0 0 1024 1024">
  <g style="fill:none;stroke:#000000;stroke-width:50;stroke-linecap:round;stroke-linejoin:round;" transform="scale(1, 1) translate(0, 0)">
    <path d="M 223.0,268.0 L 259.0,306.0 L 242.0,508.0 L 208.0,644.0 L 180.0,717.0 L 125.0,813.0 L 84.0,863.0"/>
    <path d="M 93.0,509.0 L 151.0,511.0 L 331.0,443.0 L 362.0,445.0 L 371.0,454.0 L 335.0,713.0 L 340.0,770.0 L 364.0,762.0 L 388.0,742.0 L 469.0,642.0"/>
    <path d="M 609.0,182.0 L 631.0,198.0 L 641.0,215.0 L 603.0,281.0 L 555.0,342.0 L 557.0,352.0"/>
    <path d="M 497.0,347.0 L 513.0,359.0 L 528.0,388.0 L 526.0,620.0 L 518.0,728.0 L 534.0,747.0"/>
    <path d="M 564.0,368.0 L 582.0,371.0 L 620.0,354.0 L 727.0,325.0 L 744.0,328.0 L 765.0,347.0 L 772.0,365.0 L 715.0,539.0"/>
    <path d="M 553.0,470.0 L 561.0,459.0 L 627.0,440.0 L 652.0,436.0 L 673.0,441.0"/>
    <path d="M 552.0,550.0 L 621.0,528.0 L 693.0,516.0"/>
    <path d="M 553.0,631.0 L 677.0,605.0 L 725.0,602.0"/>
    <path d="M 549.0,691.0 L 566.0,721.0 L 666.0,699.0 L 852.0,674.0 L 877.0,681.0 L 902.0,709.0 L 864.0,916.0 L 835.0,993.0 L 810.0,1016.0 L 776.0,1003.0 L 714.0,965.0"/>
    <path d="M 445.0,803.0 L 438.0,876.0 L 414.0,960.0"/>
    <path d="M 526.0,805.0 L 556.0,874.0 L 554.0,900.0"/>
    <path d="M 620.0,779.0 L 661.0,841.0 L 663.0,859.0"/>
    <path d="M 723.0,755.0 L 771.0,809.0 L 782.0,845.0"/>
  </g>
</svg>
