<svg xmlns="http://www.w3.org/2000/svg" viewBox="0 0 1024 1024">
  <g style="fill:none;stroke:#000000;stroke-width:50;stroke-linecap:round;stroke-linejoin:round;" transform="scale(1, 1) translate(0, 0)">
    <path d="M 270.0,212.0 L 295.0,243.0 L 290.0,267.0 L 234.0,362.0 L 142.0,460.0"/>
    <path d="M 261.0,361.0 L 352.0,336.0 L 389.0,346.0 L 322.0,474.0 L 301.0,493.0"/>
    <path d="M 120.0,535.0 L 147.0,562.0 L 154.0,579.0 L 192.0,762.0"/>
    <path d="M 154.0,533.0 L 189.0,537.0 L 370.0,491.0 L 395.0,491.0 L 411.0,502.0 L 427.0,519.0 L 426.0,529.0 L 384.0,713.0 L 386.0,734.0"/>
    <path d="M 222.0,628.0 L 318.0,608.0 L 353.0,611.0"/>
    <path d="M 263.0,537.0 L 282.0,551.0 L 288.0,572.0 L 287.0,689.0 L 275.0,705.0"/>
    <path d="M 211.0,747.0 L 217.0,739.0 L 342.0,712.0 L 354.0,704.0"/>
    <path d="M 88.0,888.0 L 141.0,907.0 L 412.0,819.0"/>
    <path d="M 468.0,359.0 L 491.0,381.0 L 501.0,404.0 L 532.0,575.0"/>
    <path d="M 517.0,364.0 L 538.0,371.0 L 782.0,324.0 L 823.0,325.0 L 835.0,332.0 L 854.0,355.0 L 824.0,481.0 L 803.0,535.0 L 807.0,553.0"/>
    <path d="M 569.0,452.0 L 590.0,453.0 L 739.0,422.0 L 765.0,427.0"/>
    <path d="M 562.0,251.0 L 598.0,291.0 L 617.0,501.0 L 617.0,510.0 L 607.0,519.0"/>
    <path d="M 694.0,192.0 L 721.0,214.0 L 730.0,235.0 L 707.0,477.0 L 700.0,495.0 L 689.0,503.0"/>
    <path d="M 553.0,542.0 L 565.0,549.0 L 776.0,516.0"/>
    <path d="M 525.0,629.0 L 548.0,635.0 L 597.0,634.0 L 723.0,606.0 L 771.0,606.0"/>
    <path d="M 493.0,708.0 L 513.0,723.0 L 525.0,744.0 L 552.0,856.0"/>
    <path d="M 532.0,707.0 L 554.0,718.0 L 726.0,682.0 L 747.0,683.0 L 774.0,708.0 L 751.0,767.0 L 734.0,772.0"/>
    <path d="M 568.0,837.0 L 583.0,827.0 L 717.0,804.0 L 771.0,811.0"/>
    <path d="M 515.0,870.0 L 570.0,921.0 L 577.0,950.0"/>
    <path d="M 721.0,831.0 L 744.0,857.0 L 711.0,936.0 L 688.0,967.0"/>
    <path d="M 402.0,1005.0 L 454.0,1013.0 L 583.0,995.0 L 843.0,975.0 L 891.0,982.0 L 924.0,996.0"/>
  </g>
</svg>
