<svg xmlns="http://www.w3.org/2000/svg" viewBox="0 0 1024 1024">
  <g style="fill:none;stroke:#000000;stroke-width:50;stroke-linecap:round;stroke-linejoin:round;" transform="scale(1, 1) translate(0, 0)">
    <path d="M 263.0,207.0 L 282.0,229.0 L 288.0,253.0 L 254.0,315.0 L 174.0,419.0 L 113.0,478.0 L 104.0,480.0"/>
    <path d="M 256.0,354.0 L 345.0,334.0 L 372.0,346.0 L 320.0,443.0 L 277.0,496.0"/>
    <path d="M 106.0,533.0 L 127.0,550.0 L 136.0,570.0 L 171.0,778.0"/>
    <path d="M 158.0,533.0 L 169.0,544.0 L 325.0,504.0 L 367.0,501.0 L 380.0,509.0 L 399.0,531.0 L 374.0,661.0 L 353.0,719.0 L 355.0,740.0"/>
    <path d="M 199.0,636.0 L 292.0,618.0 L 327.0,621.0"/>
    <path d="M 237.0,547.0 L 256.0,559.0 L 260.0,572.0 L 259.0,694.0 L 244.0,707.0"/>
    <path d="M 189.0,753.0 L 209.0,742.0 L 308.0,720.0 L 319.0,712.0"/>
    <path d="M 79.0,897.0 L 131.0,912.0 L 367.0,832.0 L 419.0,809.0"/>
    <path d="M 578.0,188.0 L 651.0,227.0 L 677.0,261.0"/>
    <path d="M 469.0,355.0 L 510.0,360.0 L 616.0,335.0 L 756.0,313.0 L 806.0,309.0 L 843.0,312.0 L 873.0,322.0"/>
    <path d="M 482.0,429.0 L 506.0,449.0 L 513.0,466.0 L 561.0,681.0"/>
    <path d="M 538.0,430.0 L 544.0,440.0 L 555.0,443.0 L 752.0,403.0 L 774.0,402.0 L 808.0,411.0 L 830.0,435.0 L 789.0,630.0 L 794.0,662.0"/>
    <path d="M 572.0,495.0 L 586.0,505.0 L 591.0,518.0 L 611.0,609.0"/>
    <path d="M 606.0,495.0 L 617.0,499.0 L 687.0,480.0 L 701.0,482.0 L 722.0,497.0 L 713.0,534.0 L 696.0,542.0"/>
    <path d="M 626.0,588.0 L 629.0,580.0 L 676.0,570.0 L 736.0,568.0"/>
    <path d="M 573.0,658.0 L 588.0,647.0 L 705.0,629.0 L 736.0,629.0 L 743.0,639.0"/>
    <path d="M 517.0,720.0 L 546.0,755.0 L 577.0,944.0"/>
    <path d="M 576.0,749.0 L 591.0,736.0 L 748.0,706.0 L 779.0,705.0 L 809.0,726.0 L 813.0,737.0 L 766.0,911.0 L 769.0,931.0"/>
    <path d="M 581.0,837.0 L 594.0,826.0 L 657.0,810.0 L 700.0,808.0 L 711.0,813.0"/>
    <path d="M 592.0,918.0 L 625.0,905.0 L 738.0,890.0"/>
    <path d="M 399.0,1020.0 L 452.0,1029.0 L 623.0,1005.0 L 858.0,988.0 L 892.0,991.0 L 943.0,1009.0"/>
  </g>
</svg>
