<svg xmlns="http://www.w3.org/2000/svg" viewBox="0 0 1024 1024">
  <g style="fill:none;stroke:#000000;stroke-width:50;stroke-linecap:round;stroke-linejoin:round;" transform="scale(1, 1) translate(0, 0)">
    <path d="M 251.0,358.0 L 283.0,360.0 L 339.0,349.0 L 574.0,266.0 L 620.0,263.0"/>
    <path d="M 343.0,171.0 L 405.0,194.0 L 450.0,275.0 L 489.0,323.0 L 552.0,383.0 L 642.0,447.0 L 720.0,486.0 L 788.0,504.0 L 815.0,505.0 L 843.0,495.0 L 842.0,446.0 L 821.0,347.0"/>
    <path d="M 585.0,166.0 L 680.0,200.0 L 703.0,224.0"/>
    <path d="M 430.0,433.0 L 395.0,432.0 L 362.0,492.0 L 347.0,500.0"/>
    <path d="M 274.0,516.0 L 289.0,526.0 L 304.0,553.0 L 298.0,838.0 L 313.0,858.0"/>
    <path d="M 323.0,522.0 L 346.0,530.0 L 516.0,484.0 L 552.0,492.0 L 572.0,520.0 L 519.0,667.0"/>
    <path d="M 329.0,610.0 L 341.0,599.0 L 404.0,583.0 L 464.0,572.0 L 485.0,577.0"/>
    <path d="M 330.0,684.0 L 347.0,674.0 L 496.0,642.0"/>
    <path d="M 332.0,759.0 L 340.0,750.0 L 472.0,722.0 L 499.0,719.0 L 520.0,724.0"/>
    <path d="M 324.0,859.0 L 346.0,831.0 L 415.0,812.0 L 700.0,771.0 L 724.0,770.0 L 741.0,777.0 L 768.0,807.0 L 734.0,958.0 L 708.0,1017.0 L 686.0,1034.0 L 599.0,987.0"/>
    <path d="M 211.0,858.0 L 204.0,918.0 L 178.0,986.0 L 175.0,1013.0"/>
    <path d="M 304.0,895.0 L 331.0,939.0 L 342.0,972.0"/>
    <path d="M 414.0,876.0 L 455.0,927.0 L 462.0,948.0"/>
    <path d="M 548.0,860.0 L 583.0,889.0 L 606.0,921.0"/>
  </g>
</svg>
