<svg xmlns="http://www.w3.org/2000/svg" viewBox="0 0 1024 1024">
  <g style="fill:none;stroke:#000000;stroke-width:50;stroke-linecap:round;stroke-linejoin:round;" transform="scale(1, 1) translate(0, 0)">
    <path d="M 126.0,404.0 L 152.0,428.0 L 157.0,440.0 L 188.0,644.0"/>
    <path d="M 183.0,428.0 L 196.0,417.0 L 298.0,387.0 L 332.0,382.0 L 344.0,388.0 L 365.0,412.0 L 363.0,421.0 L 331.0,525.0 L 304.0,542.0"/>
    <path d="M 212.0,600.0 L 224.0,586.0 L 294.0,570.0 L 364.0,572.0"/>
    <path d="M 607.0,158.0 L 629.0,179.0 L 635.0,198.0 L 592.0,261.0 L 555.0,298.0"/>
    <path d="M 470.0,320.0 L 496.0,341.0 L 506.0,365.0 L 505.0,659.0 L 497.0,748.0 L 511.0,768.0"/>
    <path d="M 519.0,322.0 L 550.0,328.0 L 699.0,285.0 L 734.0,283.0 L 755.0,295.0 L 777.0,330.0 L 697.0,525.0"/>
    <path d="M 530.0,437.0 L 560.0,419.0 L 614.0,407.0 L 656.0,410.0"/>
    <path d="M 530.0,538.0 L 541.0,529.0 L 602.0,511.0 L 659.0,503.0 L 677.0,492.0"/>
    <path d="M 535.0,646.0 L 544.0,637.0 L 698.0,607.0 L 750.0,611.0"/>
    <path d="M 524.0,769.0 L 556.0,737.0 L 682.0,710.0 L 842.0,686.0 L 872.0,688.0 L 896.0,705.0 L 911.0,725.0 L 908.0,740.0 L 856.0,953.0 L 832.0,1006.0 L 803.0,1031.0 L 720.0,983.0"/>
    <path d="M 336.0,825.0 L 345.0,895.0 L 338.0,995.0"/>
    <path d="M 454.0,838.0 L 479.0,892.0 L 484.0,922.0"/>
    <path d="M 571.0,809.0 L 606.0,857.0 L 611.0,876.0"/>
    <path d="M 671.0,782.0 L 721.0,834.0 L 734.0,874.0"/>
  </g>
</svg>
