<svg xmlns="http://www.w3.org/2000/svg" viewBox="0 0 1024 1024">
  <g style="fill:none;stroke:#000000;stroke-width:50;stroke-linecap:round;stroke-linejoin:round;" transform="scale(1, 1) translate(0, 0)">
    <path d="M 207.0,379.0 L 249.0,383.0 L 382.0,349.0 L 424.0,349.0"/>
    <path d="M 147.0,425.0 L 173.0,451.0 L 152.0,588.0 L 172.0,590.0 L 388.0,538.0 L 451.0,548.0"/>
    <path d="M 313.0,404.0 L 336.0,413.0 L 347.0,429.0 L 335.0,917.0 L 312.0,960.0 L 227.0,910.0"/>
    <path d="M 312.0,584.0 L 303.0,593.0 L 298.0,626.0 L 282.0,658.0 L 220.0,743.0 L 147.0,817.0 L 72.0,867.0"/>
    <path d="M 650.0,165.0 L 670.0,181.0 L 680.0,199.0 L 634.0,273.0 L 582.0,341.0 L 569.0,344.0"/>
    <path d="M 521.0,347.0 L 537.0,359.0 L 553.0,384.0 L 550.0,623.0 L 542.0,730.0 L 556.0,748.0"/>
    <path d="M 589.0,375.0 L 599.0,364.0 L 631.0,353.0 L 722.0,332.0 L 754.0,330.0 L 773.0,341.0 L 789.0,368.0 L 746.0,526.0"/>
    <path d="M 574.0,461.0 L 584.0,451.0 L 654.0,435.0 L 709.0,435.0"/>
    <path d="M 576.0,544.0 L 594.0,533.0 L 674.0,516.0 L 712.0,514.0 L 719.0,524.0"/>
    <path d="M 576.0,623.0 L 749.0,593.0 L 770.0,596.0"/>
    <path d="M 569.0,748.0 L 589.0,722.0 L 854.0,678.0 L 883.0,678.0 L 914.0,702.0 L 919.0,711.0 L 905.0,775.0 L 892.0,905.0 L 880.0,964.0 L 866.0,999.0 L 839.0,1021.0 L 747.0,963.0"/>
    <path d="M 451.0,822.0 L 453.0,876.0 L 440.0,935.0 L 440.0,962.0"/>
    <path d="M 542.0,814.0 L 576.0,868.0 L 580.0,891.0"/>
    <path d="M 641.0,787.0 L 681.0,836.0 L 688.0,855.0"/>
    <path d="M 736.0,763.0 L 795.0,814.0 L 807.0,846.0"/>
  </g>
</svg>
