<svg xmlns="http://www.w3.org/2000/svg" viewBox="0 0 1024 1024">
  <g style="fill:none;stroke:#000000;stroke-width:50;stroke-linecap:round;stroke-linejoin:round;" transform="scale(1, 1) translate(0, 0)">
    <path d="M 306.0,163.0 L 329.0,192.0 L 269.0,286.0 L 240.0,317.0"/>
    <path d="M 177.0,315.0 L 201.0,336.0 L 208.0,361.0 L 204.0,615.0 L 195.0,727.0 L 209.0,746.0"/>
    <path d="M 236.0,331.0 L 250.0,344.0 L 324.0,318.0 L 389.0,307.0 L 416.0,314.0 L 432.0,329.0 L 439.0,340.0 L 401.0,482.0 L 387.0,509.0 L 366.0,498.0"/>
    <path d="M 230.0,446.0 L 240.0,435.0 L 280.0,423.0 L 321.0,416.0 L 341.0,420.0"/>
    <path d="M 227.0,535.0 L 243.0,523.0 L 351.0,498.0"/>
    <path d="M 227.0,627.0 L 239.0,616.0 L 346.0,597.0 L 387.0,601.0"/>
    <path d="M 222.0,747.0 L 241.0,721.0 L 400.0,684.0 L 441.0,682.0 L 478.0,714.0 L 452.0,908.0 L 430.0,975.0 L 406.0,994.0 L 319.0,942.0"/>
    <path d="M 83.0,810.0 L 87.0,879.0 L 79.0,950.0"/>
    <path d="M 164.0,813.0 L 176.0,848.0 L 180.0,886.0"/>
    <path d="M 252.0,792.0 L 284.0,858.0"/>
    <path d="M 341.0,767.0 L 378.0,824.0"/>
    <path d="M 635.0,245.0 L 716.0,290.0 L 745.0,327.0"/>
    <path d="M 519.0,419.0 L 528.0,467.0 L 504.0,523.0 L 498.0,559.0"/>
    <path d="M 556.0,453.0 L 579.0,462.0 L 792.0,411.0 L 820.0,412.0 L 853.0,440.0 L 820.0,485.0 L 778.0,528.0"/>
    <path d="M 760.0,590.0 L 775.0,611.0 L 780.0,630.0 L 713.0,690.0 L 608.0,768.0"/>
    <path d="M 564.0,595.0 L 585.0,618.0 L 593.0,638.0 L 582.0,803.0 L 590.0,882.0 L 606.0,919.0 L 638.0,943.0 L 707.0,964.0 L 753.0,966.0 L 827.0,957.0 L 872.0,939.0 L 904.0,911.0 L 908.0,793.0"/>
  </g>
</svg>
