<svg xmlns="http://www.w3.org/2000/svg" viewBox="0 0 1024 1024">
  <g style="fill:none;stroke:#000000;stroke-width:50;stroke-linecap:round;stroke-linejoin:round;" transform="scale(1, 1) translate(0, 0)">
    <path d="M 444.0,261.0 L 373.0,259.0 L 294.0,320.0 L 219.0,364.0 L 200.0,369.0 L 197.0,379.0"/>
    <path d="M 120.0,360.0 L 161.0,393.0 L 165.0,421.0 L 171.0,601.0 L 160.0,717.0 L 163.0,734.0 L 168.0,741.0 L 205.0,730.0 L 292.0,661.0"/>
    <path d="M 227.0,548.0 L 400.0,497.0 L 444.0,497.0"/>
    <path d="M 273.0,360.0 L 296.0,369.0 L 309.0,390.0 L 314.0,484.0 L 348.0,651.0 L 386.0,732.0 L 402.0,755.0 L 425.0,772.0 L 438.0,776.0 L 448.0,760.0 L 474.0,679.0"/>
    <path d="M 124.0,897.0 L 227.0,884.0 L 349.0,858.0 L 409.0,868.0"/>
    <path d="M 661.0,166.0 L 674.0,173.0 L 692.0,200.0 L 610.0,331.0 L 594.0,335.0"/>
    <path d="M 529.0,338.0 L 553.0,362.0 L 559.0,383.0 L 542.0,715.0 L 556.0,734.0"/>
    <path d="M 590.0,379.0 L 601.0,362.0 L 661.0,342.0 L 772.0,321.0 L 792.0,333.0 L 812.0,364.0 L 758.0,534.0"/>
    <path d="M 580.0,462.0 L 593.0,450.0 L 651.0,439.0 L 690.0,435.0 L 711.0,441.0"/>
    <path d="M 580.0,547.0 L 590.0,538.0 L 696.0,517.0 L 721.0,516.0 L 730.0,527.0"/>
    <path d="M 577.0,643.0 L 589.0,633.0 L 681.0,614.0 L 734.0,607.0 L 755.0,613.0"/>
    <path d="M 569.0,735.0 L 589.0,709.0 L 861.0,657.0 L 891.0,657.0 L 920.0,680.0 L 924.0,687.0 L 890.0,925.0 L 866.0,997.0 L 841.0,1018.0 L 811.0,1004.0 L 738.0,953.0"/>
    <path d="M 540.0,789.0 L 516.0,905.0 L 519.0,927.0"/>
    <path d="M 601.0,801.0 L 628.0,840.0 L 638.0,870.0"/>
    <path d="M 682.0,770.0 L 689.0,787.0 L 722.0,826.0 L 728.0,847.0"/>
    <path d="M 759.0,754.0 L 820.0,812.0 L 829.0,838.0"/>
  </g>
</svg>
