<svg xmlns="http://www.w3.org/2000/svg" viewBox="0 0 1024 1024">
  <g style="fill:none;stroke:#000000;stroke-width:50;stroke-linecap:round;stroke-linejoin:round;" transform="scale(1, 1) translate(0, 0)">
    <path d="M 220.0,198.0 L 242.0,231.0 L 237.0,251.0 L 206.0,299.0 L 150.0,365.0 L 99.0,415.0 L 67.0,436.0"/>
    <path d="M 219.0,382.0 L 244.0,420.0 L 235.0,446.0 L 156.0,562.0 L 96.0,628.0 L 69.0,645.0"/>
    <path d="M 166.0,589.0 L 167.0,618.0 L 177.0,637.0 L 178.0,730.0 L 162.0,925.0 L 166.0,987.0"/>
    <path d="M 288.0,353.0 L 335.0,357.0 L 400.0,339.0 L 448.0,338.0"/>
    <path d="M 237.0,542.0 L 282.0,543.0 L 372.0,517.0 L 418.0,511.0 L 474.0,523.0"/>
    <path d="M 332.0,561.0 L 360.0,575.0 L 370.0,594.0 L 374.0,903.0 L 369.0,951.0 L 347.0,989.0 L 294.0,969.0 L 235.0,936.0"/>
    <path d="M 673.0,199.0 L 686.0,208.0 L 698.0,230.0 L 618.0,335.0 L 611.0,337.0 L 605.0,354.0 L 590.0,353.0"/>
    <path d="M 530.0,356.0 L 552.0,374.0 L 560.0,406.0 L 552.0,657.0 L 543.0,737.0 L 544.0,749.0 L 554.0,759.0"/>
    <path d="M 586.0,371.0 L 602.0,383.0 L 731.0,343.0 L 768.0,339.0 L 788.0,346.0 L 809.0,375.0 L 793.0,409.0 L 750.0,548.0"/>
    <path d="M 582.0,480.0 L 592.0,470.0 L 670.0,450.0 L 708.0,454.0"/>
    <path d="M 582.0,568.0 L 591.0,558.0 L 730.0,525.0"/>
    <path d="M 580.0,657.0 L 592.0,645.0 L 611.0,644.0 L 658.0,627.0 L 732.0,611.0 L 752.0,615.0"/>
    <path d="M 567.0,760.0 L 591.0,732.0 L 713.0,706.0 L 874.0,681.0 L 897.0,684.0 L 915.0,698.0 L 924.0,710.0 L 900.0,852.0 L 876.0,958.0 L 860.0,991.0 L 829.0,1016.0 L 739.0,970.0"/>
    <path d="M 520.0,819.0 L 501.0,892.0 L 473.0,956.0"/>
    <path d="M 594.0,818.0 L 626.0,869.0 L 634.0,897.0"/>
    <path d="M 685.0,802.0 L 718.0,842.0 L 733.0,872.0"/>
    <path d="M 766.0,772.0 L 825.0,825.0 L 834.0,854.0"/>
  </g>
</svg>
