<svg xmlns="http://www.w3.org/2000/svg" viewBox="0 0 1024 1024">
  <g style="fill:none;stroke:#000000;stroke-width:50;stroke-linecap:round;stroke-linejoin:round;" transform="scale(1, 1) translate(0, 0)">
    <path d="M 220.0,282.0 L 282.0,325.0 L 295.0,352.0"/>
    <path d="M 434.0,204.0 L 457.0,232.0 L 372.0,346.0"/>
    <path d="M 185.0,439.0 L 223.0,442.0 L 422.0,395.0 L 435.0,400.0 L 454.0,422.0 L 437.0,468.0 L 417.0,477.0"/>
    <path d="M 210.0,572.0 L 220.0,557.0 L 375.0,515.0 L 408.0,508.0 L 460.0,512.0"/>
    <path d="M 166.0,535.0 L 185.0,563.0 L 169.0,682.0 L 215.0,676.0 L 423.0,616.0 L 460.0,613.0 L 478.0,620.0 L 496.0,642.0 L 464.0,741.0 L 447.0,760.0 L 399.0,738.0"/>
    <path d="M 293.0,443.0 L 319.0,468.0 L 315.0,815.0 L 306.0,955.0 L 317.0,1028.0"/>
    <path d="M 295.0,672.0 L 285.0,681.0 L 273.0,722.0 L 236.0,772.0 L 164.0,852.0 L 83.0,922.0"/>
    <path d="M 671.0,197.0 L 695.0,223.0 L 647.0,306.0 L 605.0,360.0"/>
    <path d="M 547.0,359.0 L 572.0,385.0 L 576.0,400.0 L 574.0,641.0 L 567.0,735.0 L 580.0,751.0"/>
    <path d="M 599.0,371.0 L 616.0,376.0 L 742.0,339.0 L 770.0,336.0 L 790.0,345.0 L 810.0,375.0 L 761.0,545.0"/>
    <path d="M 599.0,469.0 L 645.0,454.0 L 717.0,445.0"/>
    <path d="M 601.0,562.0 L 616.0,549.0 L 702.0,526.0 L 738.0,523.0"/>
    <path d="M 600.0,652.0 L 705.0,615.0 L 760.0,613.0"/>
    <path d="M 594.0,752.0 L 611.0,726.0 L 672.0,710.0 L 849.0,679.0 L 877.0,679.0 L 901.0,693.0 L 914.0,710.0 L 888.0,918.0 L 872.0,968.0 L 842.0,999.0 L 760.0,957.0"/>
    <path d="M 446.0,837.0 L 441.0,904.0 L 425.0,967.0"/>
    <path d="M 531.0,825.0 L 564.0,876.0"/>
    <path d="M 619.0,794.0 L 663.0,850.0"/>
    <path d="M 720.0,782.0 L 770.0,816.0 L 786.0,847.0"/>
  </g>
</svg>
