<svg xmlns="http://www.w3.org/2000/svg" viewBox="0 0 1024 1024">
  <g style="fill:none;stroke:#000000;stroke-width:50;stroke-linecap:round;stroke-linejoin:round;" transform="scale(1, 1) translate(0, 0)">
    <path d="M 151.0,315.0 L 184.0,341.0 L 190.0,361.0 L 196.0,460.0 L 184.0,627.0 L 166.0,721.0 L 135.0,814.0 L 95.0,897.0 L 66.0,938.0"/>
    <path d="M 215.0,326.0 L 234.0,337.0 L 425.0,294.0 L 451.0,305.0 L 470.0,327.0 L 475.0,742.0 L 468.0,821.0 L 454.0,850.0 L 419.0,842.0 L 350.0,813.0"/>
    <path d="M 246.0,471.0 L 300.0,470.0 L 369.0,447.0 L 419.0,441.0"/>
    <path d="M 305.0,363.0 L 333.0,391.0 L 327.0,520.0 L 316.0,543.0"/>
    <path d="M 260.0,569.0 L 295.0,569.0 L 369.0,552.0 L 417.0,554.0"/>
    <path d="M 231.0,646.0 L 256.0,673.0 L 277.0,799.0"/>
    <path d="M 283.0,666.0 L 288.0,659.0 L 343.0,643.0 L 376.0,642.0 L 389.0,654.0 L 390.0,664.0 L 373.0,715.0 L 359.0,720.0"/>
    <path d="M 293.0,767.0 L 308.0,758.0 L 356.0,747.0 L 401.0,753.0"/>
    <path d="M 664.0,206.0 L 687.0,237.0 L 658.0,287.0 L 619.0,341.0 L 607.0,348.0 L 605.0,358.0"/>
    <path d="M 552.0,355.0 L 569.0,366.0 L 585.0,397.0 L 578.0,653.0 L 570.0,725.0 L 583.0,741.0"/>
    <path d="M 626.0,390.0 L 628.0,378.0 L 746.0,348.0 L 789.0,351.0 L 810.0,369.0 L 813.0,382.0 L 772.0,535.0 L 775.0,550.0"/>
    <path d="M 608.0,473.0 L 617.0,461.0 L 635.0,456.0 L 698.0,446.0 L 717.0,451.0"/>
    <path d="M 603.0,558.0 L 612.0,548.0 L 704.0,533.0 L 731.0,525.0 L 743.0,515.0"/>
    <path d="M 605.0,641.0 L 617.0,630.0 L 686.0,620.0 L 762.0,610.0 L 791.0,616.0"/>
    <path d="M 597.0,743.0 L 616.0,718.0 L 635.0,713.0 L 865.0,676.0 L 893.0,678.0 L 922.0,701.0 L 927.0,708.0 L 908.0,785.0 L 894.0,893.0 L 866.0,982.0 L 840.0,1003.0 L 751.0,950.0"/>
    <path d="M 549.0,816.0 L 542.0,868.0 L 511.0,963.0"/>
    <path d="M 607.0,818.0 L 631.0,858.0 L 644.0,905.0"/>
    <path d="M 674.0,802.0 L 714.0,850.0 L 724.0,877.0"/>
    <path d="M 751.0,775.0 L 802.0,830.0 L 812.0,863.0"/>
  </g>
</svg>
