<svg xmlns="http://www.w3.org/2000/svg" viewBox="0 0 1024 1024">
  <g style="fill:none;stroke:#000000;stroke-width:50;stroke-linecap:round;stroke-linejoin:round;" transform="scale(1, 1) translate(0, 0)">
    <path d="M 301.0,199.0 L 372.0,236.0 L 405.0,273.0"/>
    <path d="M 136.0,387.0 L 194.0,392.0 L 434.0,336.0 L 487.0,338.0"/>
    <path d="M 208.0,449.0 L 236.0,476.0 L 268.0,588.0"/>
    <path d="M 251.0,446.0 L 263.0,454.0 L 381.0,418.0 L 394.0,421.0 L 415.0,441.0 L 399.0,489.0 L 380.0,504.0"/>
    <path d="M 280.0,545.0 L 288.0,550.0 L 368.0,528.0 L 425.0,529.0"/>
    <path d="M 185.0,650.0 L 202.0,657.0 L 235.0,657.0 L 344.0,614.0 L 371.0,608.0 L 391.0,612.0 L 408.0,631.0 L 406.0,636.0 L 345.0,695.0 L 342.0,705.0 L 334.0,706.0"/>
    <path d="M 287.0,709.0 L 320.0,728.0 L 338.0,756.0 L 353.0,838.0 L 348.0,919.0 L 338.0,954.0 L 321.0,978.0 L 304.0,989.0 L 232.0,950.0"/>
    <path d="M 97.0,835.0 L 147.0,851.0 L 448.0,736.0"/>
    <path d="M 681.0,170.0 L 693.0,177.0 L 710.0,205.0 L 623.0,314.0 L 607.0,342.0 L 586.0,355.0"/>
    <path d="M 536.0,351.0 L 561.0,376.0 L 564.0,392.0 L 562.0,652.0 L 554.0,728.0 L 567.0,744.0"/>
    <path d="M 588.0,365.0 L 602.0,370.0 L 764.0,335.0 L 799.0,347.0 L 815.0,377.0 L 748.0,556.0"/>
    <path d="M 584.0,473.0 L 615.0,457.0 L 648.0,449.0 L 686.0,444.0 L 705.0,448.0"/>
    <path d="M 584.0,555.0 L 595.0,545.0 L 693.0,524.0 L 730.0,522.0"/>
    <path d="M 588.0,628.0 L 592.0,634.0 L 611.0,635.0 L 728.0,617.0 L 765.0,620.0"/>
    <path d="M 584.0,694.0 L 597.0,722.0 L 726.0,700.0 L 867.0,688.0 L 895.0,705.0 L 909.0,723.0 L 890.0,803.0 L 874.0,935.0 L 851.0,999.0 L 829.0,1019.0 L 795.0,1007.0 L 731.0,969.0"/>
    <path d="M 467.0,795.0 L 470.0,843.0 L 452.0,938.0"/>
    <path d="M 555.0,813.0 L 581.0,878.0"/>
    <path d="M 646.0,797.0 L 670.0,831.0 L 678.0,854.0"/>
    <path d="M 723.0,766.0 L 782.0,815.0 L 791.0,841.0"/>
  </g>
</svg>
