<svg xmlns="http://www.w3.org/2000/svg" viewBox="0 0 1024 1024">
  <g style="fill:none;stroke:#000000;stroke-width:50;stroke-linecap:round;stroke-linejoin:round;" transform="scale(1, 1) translate(0, 0)">
    <path d="M 78.0,497.0 L 133.0,494.0 L 281.0,445.0 L 330.0,439.0"/>
    <path d="M 201.0,237.0 L 232.0,262.0 L 242.0,278.0 L 216.0,579.0 L 198.0,603.0"/>
    <path d="M 105.0,618.0 L 132.0,648.0 L 161.0,819.0"/>
    <path d="M 157.0,640.0 L 174.0,627.0 L 250.0,601.0 L 281.0,603.0 L 297.0,620.0 L 279.0,697.0 L 263.0,707.0"/>
    <path d="M 177.0,771.0 L 193.0,752.0 L 236.0,739.0 L 300.0,736.0"/>
    <path d="M 345.0,325.0 L 372.0,350.0 L 379.0,392.0 L 377.0,546.0 L 368.0,648.0 L 350.0,741.0 L 307.0,862.0 L 238.0,976.0"/>
    <path d="M 397.0,333.0 L 409.0,339.0 L 469.0,322.0 L 502.0,345.0 L 502.0,611.0 L 496.0,865.0 L 487.0,912.0 L 477.0,924.0 L 462.0,920.0 L 390.0,884.0"/>
    <path d="M 403.0,505.0 L 425.0,491.0 L 465.0,493.0"/>
    <path d="M 393.0,638.0 L 400.0,628.0 L 418.0,621.0 L 461.0,625.0"/>
    <path d="M 694.0,171.0 L 710.0,188.0 L 714.0,208.0 L 664.0,280.0 L 662.0,291.0 L 648.0,301.0 L 647.0,314.0 L 627.0,325.0"/>
    <path d="M 585.0,327.0 L 605.0,346.0 L 612.0,366.0 L 592.0,701.0 L 592.0,714.0 L 603.0,725.0"/>
    <path d="M 626.0,333.0 L 653.0,343.0 L 772.0,310.0 L 799.0,316.0 L 816.0,333.0 L 821.0,343.0 L 768.0,510.0 L 761.0,522.0 L 736.0,520.0"/>
    <path d="M 628.0,445.0 L 641.0,433.0 L 691.0,421.0 L 733.0,425.0"/>
    <path d="M 628.0,526.0 L 635.0,515.0 L 735.0,499.0"/>
    <path d="M 624.0,617.0 L 633.0,611.0 L 724.0,596.0 L 771.0,593.0"/>
    <path d="M 616.0,725.0 L 636.0,701.0 L 860.0,656.0 L 889.0,657.0 L 917.0,681.0 L 892.0,872.0 L 879.0,932.0 L 864.0,969.0 L 837.0,994.0 L 747.0,949.0"/>
    <path d="M 581.0,783.0 L 583.0,829.0 L 572.0,902.0"/>
    <path d="M 644.0,775.0 L 666.0,829.0 L 667.0,845.0"/>
    <path d="M 706.0,748.0 L 734.0,813.0"/>
    <path d="M 777.0,739.0 L 812.0,779.0 L 822.0,811.0"/>
  </g>
</svg>
