<svg xmlns="http://www.w3.org/2000/svg" viewBox="0 0 1024 1024">
  <g style="fill:none;stroke:#000000;stroke-width:50;stroke-linecap:round;stroke-linejoin:round;" transform="scale(1, 1) translate(0, 0)">
    <path d="M 263.0,277.0 L 303.0,326.0 L 311.0,349.0"/>
    <path d="M 485.0,205.0 L 485.0,227.0 L 425.0,267.0"/>
    <path d="M 373.0,171.0 L 400.0,201.0 L 393.0,283.0 L 366.0,383.0 L 323.0,445.0"/>
    <path d="M 424.0,353.0 L 456.0,380.0 L 470.0,404.0"/>
    <path d="M 510.0,280.0 L 539.0,306.0 L 552.0,328.0"/>
    <path d="M 743.0,188.0 L 753.0,214.0 L 700.0,257.0 L 687.0,260.0 L 686.0,268.0"/>
    <path d="M 611.0,164.0 L 636.0,193.0 L 629.0,270.0 L 602.0,345.0 L 569.0,397.0 L 556.0,408.0"/>
    <path d="M 641.0,309.0 L 709.0,358.0 L 720.0,379.0"/>
    <path d="M 210.0,458.0 L 223.0,487.0 L 221.0,502.0 L 184.0,592.0 L 183.0,635.0"/>
    <path d="M 251.0,488.0 L 261.0,497.0 L 274.0,496.0 L 479.0,456.0 L 740.0,419.0 L 799.0,419.0 L 818.0,428.0 L 836.0,457.0 L 752.0,531.0"/>
    <path d="M 483.0,487.0 L 457.0,496.0 L 437.0,529.0 L 417.0,542.0"/>
    <path d="M 348.0,551.0 L 361.0,560.0 L 373.0,586.0 L 367.0,838.0 L 380.0,856.0"/>
    <path d="M 396.0,575.0 L 406.0,564.0 L 506.0,536.0 L 569.0,522.0 L 607.0,525.0 L 624.0,543.0 L 629.0,558.0 L 587.0,660.0 L 583.0,667.0 L 573.0,668.0"/>
    <path d="M 392.0,639.0 L 402.0,628.0 L 428.0,621.0 L 502.0,607.0 L 529.0,609.0"/>
    <path d="M 397.0,699.0 L 410.0,688.0 L 438.0,681.0 L 562.0,659.0"/>
    <path d="M 397.0,768.0 L 403.0,759.0 L 502.0,740.0 L 562.0,732.0 L 582.0,735.0"/>
    <path d="M 390.0,857.0 L 408.0,833.0 L 459.0,819.0 L 719.0,787.0 L 758.0,794.0 L 784.0,823.0 L 744.0,1000.0 L 730.0,1036.0 L 701.0,1060.0 L 622.0,1015.0"/>
    <path d="M 252.0,864.0 L 249.0,925.0 L 226.0,995.0 L 223.0,1025.0"/>
    <path d="M 360.0,890.0 L 402.0,970.0"/>
    <path d="M 476.0,884.0 L 508.0,920.0 L 520.0,944.0"/>
    <path d="M 586.0,855.0 L 634.0,904.0 L 653.0,942.0"/>
  </g>
</svg>
