<svg xmlns="http://www.w3.org/2000/svg" viewBox="0 0 1024 1024">
  <g style="fill:none;stroke:#000000;stroke-width:50;stroke-linecap:round;stroke-linejoin:round;" transform="scale(1, 1) translate(0, 0)">
    <path d="M 236.0,221.0 L 278.0,234.0 L 429.0,192.0 L 462.0,195.0 L 483.0,218.0 L 466.0,243.0 L 414.0,289.0 L 408.0,301.0 L 401.0,300.0"/>
    <path d="M 341.0,290.0 L 400.0,337.0"/>
    <path d="M 165.0,398.0 L 199.0,400.0 L 422.0,353.0 L 463.0,357.0 L 478.0,372.0 L 431.0,428.0"/>
    <path d="M 350.0,392.0 L 364.0,470.0 L 355.0,515.0 L 349.0,522.0 L 279.0,506.0"/>
    <path d="M 344.0,385.0 L 297.0,412.0 L 251.0,472.0 L 191.0,522.0 L 143.0,553.0 L 104.0,569.0"/>
    <path d="M 630.0,158.0 L 648.0,174.0 L 655.0,191.0 L 652.0,201.0 L 591.0,304.0 L 538.0,361.0"/>
    <path d="M 623.0,298.0 L 709.0,287.0 L 811.0,260.0 L 857.0,258.0"/>
    <path d="M 724.0,309.0 L 739.0,326.0 L 740.0,340.0 L 709.0,401.0 L 681.0,436.0 L 650.0,465.0 L 611.0,489.0 L 536.0,507.0"/>
    <path d="M 608.0,345.0 L 669.0,398.0 L 820.0,504.0 L 949.0,521.0"/>
    <path d="M 455.0,468.0 L 475.0,493.0 L 416.0,575.0"/>
    <path d="M 339.0,582.0 L 357.0,601.0 L 363.0,619.0 L 347.0,858.0 L 359.0,880.0"/>
    <path d="M 387.0,597.0 L 404.0,601.0 L 464.0,581.0 L 572.0,561.0 L 576.0,556.0 L 616.0,554.0 L 641.0,560.0 L 658.0,587.0 L 614.0,698.0 L 616.0,714.0"/>
    <path d="M 380.0,674.0 L 396.0,660.0 L 439.0,650.0 L 507.0,636.0 L 537.0,639.0"/>
    <path d="M 380.0,732.0 L 401.0,720.0 L 572.0,688.0 L 585.0,681.0"/>
    <path d="M 380.0,783.0 L 445.0,783.0 L 497.0,769.0 L 576.0,760.0"/>
    <path d="M 370.0,881.0 L 389.0,856.0 L 474.0,838.0 L 677.0,823.0 L 740.0,813.0 L 761.0,821.0 L 778.0,839.0 L 780.0,863.0 L 746.0,995.0 L 720.0,1053.0 L 693.0,1070.0 L 614.0,1017.0"/>
    <path d="M 253.0,895.0 L 242.0,951.0 L 216.0,1024.0"/>
    <path d="M 361.0,912.0 L 391.0,974.0 L 393.0,992.0"/>
    <path d="M 464.0,895.0 L 492.0,938.0 L 500.0,965.0"/>
    <path d="M 576.0,886.0 L 631.0,928.0 L 642.0,954.0"/>
  </g>
</svg>
