<svg xmlns="http://www.w3.org/2000/svg" viewBox="0 0 1024 1024">
  <g style="fill:none;stroke:#000000;stroke-width:50;stroke-linecap:round;stroke-linejoin:round;" transform="scale(1, 1) translate(0, 0)">
    <path d="M 190.0,226.0 L 243.0,269.0 L 259.0,305.0"/>
    <path d="M 396.0,171.0 L 419.0,200.0 L 343.0,310.0"/>
    <path d="M 136.0,395.0 L 193.0,397.0 L 435.0,340.0 L 471.0,338.0"/>
    <path d="M 151.0,499.0 L 181.0,502.0 L 236.0,493.0 L 398.0,451.0 L 430.0,457.0 L 449.0,473.0 L 448.0,482.0 L 416.0,597.0 L 399.0,610.0"/>
    <path d="M 89.0,600.0 L 114.0,607.0 L 141.0,606.0 L 406.0,547.0 L 488.0,533.0 L 523.0,538.0"/>
    <path d="M 138.0,687.0 L 179.0,687.0 L 399.0,635.0 L 430.0,633.0 L 452.0,640.0"/>
    <path d="M 209.0,418.0 L 238.0,442.0 L 240.0,508.0 L 233.0,776.0 L 208.0,922.0 L 208.0,965.0"/>
    <path d="M 306.0,397.0 L 323.0,407.0 L 333.0,424.0 L 329.0,932.0 L 341.0,1004.0"/>
    <path d="M 216.0,700.0 L 207.0,707.0 L 196.0,751.0 L 147.0,823.0 L 113.0,865.0 L 58.0,916.0"/>
    <path d="M 369.0,722.0 L 419.0,750.0 L 435.0,776.0"/>
    <path d="M 679.0,167.0 L 699.0,183.0 L 708.0,201.0 L 644.0,291.0 L 616.0,323.0 L 608.0,322.0"/>
    <path d="M 558.0,323.0 L 583.0,345.0 L 589.0,378.0 L 583.0,644.0 L 575.0,732.0 L 588.0,749.0"/>
    <path d="M 605.0,334.0 L 628.0,345.0 L 759.0,314.0 L 795.0,318.0 L 813.0,333.0 L 818.0,343.0 L 778.0,483.0 L 764.0,510.0 L 737.0,506.0"/>
    <path d="M 608.0,441.0 L 620.0,429.0 L 680.0,412.0 L 725.0,412.0"/>
    <path d="M 604.0,518.0 L 615.0,507.0 L 636.0,501.0 L 740.0,486.0"/>
    <path d="M 607.0,620.0 L 721.0,594.0 L 772.0,589.0"/>
    <path d="M 602.0,749.0 L 623.0,721.0 L 850.0,675.0 L 874.0,682.0 L 900.0,707.0 L 871.0,913.0 L 847.0,992.0 L 823.0,1012.0 L 755.0,963.0 L 747.0,963.0"/>
    <path d="M 487.0,817.0 L 491.0,851.0 L 476.0,959.0"/>
    <path d="M 563.0,808.0 L 584.0,858.0 L 585.0,879.0"/>
    <path d="M 638.0,792.0 L 670.0,847.0"/>
    <path d="M 723.0,766.0 L 779.0,814.0 L 790.0,845.0"/>
  </g>
</svg>
