<svg xmlns="http://www.w3.org/2000/svg" viewBox="0 0 1024 1024">
  <g style="fill:none;stroke:#000000;stroke-width:50;stroke-linecap:round;stroke-linejoin:round;" transform="scale(1, 1) translate(0, 0)">
    <path d="M 432.0,225.0 L 394.0,216.0 L 368.0,218.0 L 265.0,283.0 L 173.0,320.0"/>
    <path d="M 136.0,369.0 L 182.0,403.0 L 198.0,440.0"/>
    <path d="M 277.0,322.0 L 318.0,367.0 L 324.0,383.0"/>
    <path d="M 453.0,287.0 L 468.0,315.0 L 377.0,401.0"/>
    <path d="M 277.0,408.0 L 289.0,449.0 L 206.0,533.0 L 199.0,558.0 L 234.0,566.0 L 312.0,553.0"/>
    <path d="M 385.0,453.0 L 399.0,489.0 L 352.0,547.0 L 241.0,651.0 L 230.0,683.0 L 259.0,686.0 L 369.0,658.0 L 394.0,660.0"/>
    <path d="M 382.0,615.0 L 441.0,683.0"/>
    <path d="M 71.0,828.0 L 130.0,833.0 L 345.0,778.0 L 400.0,771.0 L 424.0,774.0"/>
    <path d="M 267.0,709.0 L 284.0,718.0 L 302.0,745.0 L 287.0,820.0 L 256.0,907.0 L 231.0,947.0 L 184.0,997.0 L 140.0,1028.0 L 93.0,1048.0"/>
    <path d="M 312.0,864.0 L 314.0,875.0 L 407.0,941.0 L 426.0,964.0 L 434.0,985.0"/>
    <path d="M 658.0,174.0 L 675.0,183.0 L 693.0,206.0 L 613.0,332.0"/>
    <path d="M 539.0,342.0 L 558.0,358.0 L 571.0,380.0 L 564.0,650.0 L 556.0,723.0 L 570.0,739.0"/>
    <path d="M 581.0,343.0 L 607.0,350.0 L 693.0,323.0 L 775.0,307.0 L 790.0,308.0 L 810.0,320.0 L 829.0,352.0 L 769.0,528.0"/>
    <path d="M 592.0,449.0 L 669.0,430.0 L 732.0,424.0"/>
    <path d="M 592.0,543.0 L 615.0,530.0 L 682.0,513.0 L 729.0,507.0 L 740.0,516.0"/>
    <path d="M 592.0,635.0 L 623.0,620.0 L 713.0,604.0 L 746.0,599.0 L 779.0,604.0"/>
    <path d="M 590.0,735.0 L 607.0,715.0 L 646.0,704.0 L 865.0,668.0 L 897.0,668.0 L 935.0,701.0 L 919.0,774.0 L 906.0,942.0 L 890.0,992.0 L 865.0,1017.0 L 772.0,976.0"/>
    <path d="M 527.0,801.0 L 522.0,867.0 L 503.0,936.0"/>
    <path d="M 606.0,808.0 L 626.0,851.0 L 631.0,877.0"/>
    <path d="M 681.0,784.0 L 719.0,843.0"/>
    <path d="M 762.0,754.0 L 805.0,798.0 L 814.0,813.0 L 818.0,841.0"/>
  </g>
</svg>
