<svg xmlns="http://www.w3.org/2000/svg" viewBox="0 0 1024 1024">
  <g style="fill:none;stroke:#000000;stroke-width:50;stroke-linecap:round;stroke-linejoin:round;" transform="scale(1, 1) translate(0, 0)">
    <path d="M 294.0,197.0 L 373.0,249.0 L 389.0,280.0"/>
    <path d="M 213.0,404.0 L 229.0,411.0 L 265.0,408.0 L 319.0,398.0 L 452.0,358.0 L 493.0,357.0"/>
    <path d="M 152.0,389.0 L 179.0,413.0 L 186.0,430.0 L 186.0,547.0 L 170.0,698.0 L 153.0,770.0 L 111.0,881.0 L 43.0,987.0"/>
    <path d="M 222.0,589.0 L 283.0,587.0 L 476.0,528.0 L 523.0,529.0"/>
    <path d="M 272.0,497.0 L 295.0,508.0 L 306.0,524.0 L 323.0,707.0"/>
    <path d="M 415.0,424.0 L 444.0,457.0 L 420.0,614.0 L 416.0,626.0 L 405.0,632.0"/>
    <path d="M 338.0,685.0 L 347.0,674.0 L 392.0,659.0 L 427.0,653.0 L 450.0,657.0"/>
    <path d="M 220.0,808.0 L 223.0,841.0 L 208.0,940.0"/>
    <path d="M 288.0,788.0 L 316.0,843.0 L 318.0,865.0"/>
    <path d="M 362.0,768.0 L 394.0,819.0"/>
    <path d="M 435.0,733.0 L 461.0,763.0 L 472.0,787.0"/>
    <path d="M 684.0,182.0 L 712.0,214.0 L 660.0,300.0 L 613.0,358.0"/>
    <path d="M 560.0,350.0 L 582.0,371.0 L 587.0,394.0 L 572.0,739.0 L 573.0,752.0 L 584.0,762.0"/>
    <path d="M 614.0,366.0 L 627.0,376.0 L 754.0,339.0 L 784.0,337.0 L 803.0,347.0 L 821.0,379.0 L 763.0,545.0"/>
    <path d="M 605.0,466.0 L 615.0,456.0 L 685.0,439.0 L 729.0,440.0"/>
    <path d="M 604.0,559.0 L 622.0,548.0 L 709.0,529.0 L 726.0,528.0 L 734.0,537.0"/>
    <path d="M 605.0,654.0 L 614.0,646.0 L 747.0,620.0 L 779.0,625.0"/>
    <path d="M 597.0,762.0 L 617.0,737.0 L 658.0,726.0 L 858.0,692.0 L 886.0,694.0 L 915.0,719.0 L 918.0,728.0 L 876.0,926.0 L 848.0,997.0 L 824.0,1017.0 L 742.0,962.0"/>
    <path d="M 475.0,849.0 L 478.0,902.0 L 467.0,984.0"/>
    <path d="M 555.0,832.0 L 582.0,885.0 L 587.0,911.0"/>
    <path d="M 650.0,808.0 L 686.0,870.0"/>
    <path d="M 743.0,779.0 L 787.0,829.0 L 794.0,856.0"/>
  </g>
</svg>
