<svg xmlns="http://www.w3.org/2000/svg" viewBox="0 0 1024 1024">
  <g style="fill:none;stroke:#000000;stroke-width:50;stroke-linecap:round;stroke-linejoin:round;" transform="scale(1, 1) translate(0, 0)">
    <path d="M 256.0,281.0 L 330.0,282.0 L 437.0,254.0 L 484.0,252.0"/>
    <path d="M 355.0,175.0 L 385.0,205.0 L 379.0,300.0 L 364.0,325.0"/>
    <path d="M 153.0,377.0 L 196.0,382.0 L 445.0,328.0 L 499.0,329.0"/>
    <path d="M 274.0,383.0 L 307.0,432.0 L 305.0,448.0"/>
    <path d="M 459.0,363.0 L 442.0,363.0 L 431.0,372.0 L 419.0,402.0 L 400.0,426.0"/>
    <path d="M 252.0,476.0 L 284.0,476.0 L 429.0,436.0 L 465.0,439.0"/>
    <path d="M 185.0,554.0 L 225.0,568.0 L 462.0,493.0"/>
    <path d="M 389.0,470.0 L 374.0,490.0 L 373.0,603.0"/>
    <path d="M 608.0,190.0 L 634.0,222.0 L 621.0,356.0 L 602.0,423.0 L 581.0,470.0 L 532.0,540.0"/>
    <path d="M 538.0,331.0 L 607.0,325.0 L 713.0,293.0 L 748.0,295.0 L 762.0,309.0 L 733.0,396.0 L 730.0,433.0 L 736.0,477.0 L 762.0,522.0 L 830.0,564.0 L 866.0,572.0 L 897.0,570.0 L 907.0,516.0 L 909.0,438.0"/>
    <path d="M 539.0,408.0 L 635.0,465.0 L 660.0,486.0 L 674.0,509.0"/>
    <path d="M 452.0,529.0 L 469.0,547.0 L 436.0,603.0 L 436.0,614.0 L 428.0,620.0"/>
    <path d="M 347.0,627.0 L 371.0,651.0 L 373.0,663.0 L 365.0,911.0 L 379.0,923.0"/>
    <path d="M 402.0,658.0 L 424.0,645.0 L 587.0,600.0 L 635.0,600.0 L 659.0,628.0 L 622.0,736.0 L 624.0,758.0"/>
    <path d="M 396.0,715.0 L 405.0,702.0 L 430.0,696.0 L 535.0,675.0 L 557.0,679.0"/>
    <path d="M 394.0,779.0 L 402.0,772.0 L 588.0,729.0"/>
    <path d="M 393.0,844.0 L 405.0,832.0 L 412.0,835.0 L 474.0,819.0 L 573.0,802.0 L 593.0,807.0"/>
    <path d="M 397.0,919.0 L 408.0,902.0 L 490.0,880.0 L 739.0,842.0 L 763.0,841.0 L 777.0,847.0 L 798.0,871.0 L 796.0,888.0 L 776.0,980.0 L 749.0,1062.0 L 722.0,1085.0 L 638.0,1037.0"/>
    <path d="M 271.0,934.0 L 255.0,993.0 L 213.0,1083.0"/>
    <path d="M 360.0,966.0 L 391.0,1022.0 L 396.0,1042.0"/>
    <path d="M 477.0,946.0 L 513.0,995.0 L 519.0,1014.0"/>
    <path d="M 587.0,918.0 L 648.0,976.0 L 657.0,1002.0"/>
  </g>
</svg>
