<svg xmlns="http://www.w3.org/2000/svg" viewBox="0 0 1024 1024">
  <g style="fill:none;stroke:#000000;stroke-width:50;stroke-linecap:round;stroke-linejoin:round;" transform="scale(1, 1) translate(0, 0)">
    <path d="M 261.0,200.0 L 283.0,219.0 L 295.0,243.0 L 264.0,318.0 L 154.0,505.0 L 107.0,567.0 L 70.0,602.0"/>
    <path d="M 223.0,438.0 L 230.0,447.0 L 234.0,501.0 L 232.0,610.0 L 218.0,740.0 L 224.0,794.0"/>
    <path d="M 388.0,210.0 L 438.0,244.0 L 454.0,260.0 L 466.0,286.0"/>
    <path d="M 284.0,414.0 L 337.0,415.0 L 451.0,381.0 L 497.0,378.0"/>
    <path d="M 303.0,520.0 L 361.0,522.0 L 453.0,497.0 L 488.0,497.0"/>
    <path d="M 311.0,616.0 L 361.0,620.0 L 468.0,591.0 L 497.0,594.0"/>
    <path d="M 370.0,428.0 L 395.0,448.0 L 390.0,672.0 L 375.0,696.0"/>
    <path d="M 253.0,736.0 L 297.0,736.0 L 459.0,703.0 L 524.0,712.0"/>
    <path d="M 157.0,829.0 L 156.0,888.0 L 139.0,952.0 L 137.0,983.0"/>
    <path d="M 243.0,845.0 L 263.0,881.0 L 269.0,906.0"/>
    <path d="M 329.0,816.0 L 355.0,858.0 L 358.0,876.0"/>
    <path d="M 409.0,779.0 L 446.0,829.0 L 448.0,845.0"/>
    <path d="M 664.0,169.0 L 690.0,202.0 L 597.0,321.0 L 583.0,325.0"/>
    <path d="M 546.0,332.0 L 564.0,345.0 L 578.0,366.0 L 577.0,669.0 L 571.0,733.0 L 585.0,751.0"/>
    <path d="M 609.0,336.0 L 618.0,343.0 L 748.0,310.0 L 778.0,312.0 L 801.0,331.0 L 809.0,345.0 L 758.0,496.0 L 746.0,514.0 L 722.0,502.0"/>
    <path d="M 600.0,451.0 L 610.0,439.0 L 661.0,426.0 L 717.0,424.0"/>
    <path d="M 603.0,542.0 L 609.0,530.0 L 699.0,515.0 L 711.0,526.0"/>
    <path d="M 603.0,616.0 L 610.0,623.0 L 651.0,621.0 L 734.0,602.0 L 779.0,602.0"/>
    <path d="M 600.0,696.0 L 616.0,726.0 L 700.0,705.0 L 855.0,680.0 L 881.0,687.0 L 906.0,714.0 L 877.0,925.0 L 852.0,1007.0 L 826.0,1030.0 L 742.0,974.0"/>
    <path d="M 520.0,820.0 L 523.0,871.0 L 516.0,937.0"/>
    <path d="M 587.0,814.0 L 603.0,849.0 L 610.0,886.0"/>
    <path d="M 653.0,793.0 L 676.0,829.0 L 684.0,856.0"/>
    <path d="M 722.0,762.0 L 772.0,803.0 L 786.0,819.0 L 795.0,844.0"/>
  </g>
</svg>
