<svg xmlns="http://www.w3.org/2000/svg" viewBox="0 0 1024 1024">
  <g style="fill:none;stroke:#000000;stroke-width:50;stroke-linecap:round;stroke-linejoin:round;" transform="scale(1, 1) translate(0, 0)">
    <path d="M 144.0,311.0 L 217.0,364.0 L 232.0,394.0"/>
    <path d="M 96.0,521.0 L 157.0,561.0 L 176.0,577.0 L 185.0,594.0"/>
    <path d="M 156.0,987.0 L 142.0,950.0 L 139.0,912.0 L 249.0,665.0"/>
    <path d="M 528.0,254.0 L 474.0,241.0 L 408.0,281.0 L 282.0,327.0"/>
    <path d="M 276.0,385.0 L 314.0,422.0 L 322.0,439.0"/>
    <path d="M 377.0,353.0 L 395.0,370.0 L 414.0,402.0"/>
    <path d="M 531.0,300.0 L 544.0,324.0 L 484.0,384.0 L 472.0,387.0 L 472.0,394.0"/>
    <path d="M 370.0,427.0 L 383.0,463.0 L 308.0,561.0 L 300.0,587.0 L 326.0,596.0 L 386.0,590.0 L 398.0,582.0"/>
    <path d="M 484.0,469.0 L 497.0,501.0 L 443.0,566.0 L 342.0,662.0 L 332.0,676.0 L 331.0,695.0 L 358.0,699.0 L 446.0,673.0 L 475.0,670.0 L 479.0,676.0"/>
    <path d="M 468.0,611.0 L 509.0,662.0 L 516.0,689.0"/>
    <path d="M 254.0,809.0 L 276.0,813.0 L 316.0,808.0 L 433.0,773.0 L 492.0,762.0 L 526.0,764.0"/>
    <path d="M 365.0,715.0 L 386.0,730.0 L 390.0,749.0 L 379.0,827.0 L 355.0,890.0 L 326.0,930.0 L 306.0,946.0 L 266.0,970.0 L 243.0,976.0"/>
    <path d="M 431.0,841.0 L 465.0,867.0 L 482.0,887.0 L 489.0,908.0"/>
    <path d="M 682.0,185.0 L 694.0,192.0 L 711.0,217.0 L 639.0,326.0 L 615.0,356.0 L 607.0,357.0"/>
    <path d="M 571.0,363.0 L 588.0,376.0 L 601.0,401.0 L 593.0,757.0 L 603.0,766.0"/>
    <path d="M 632.0,393.0 L 641.0,383.0 L 670.0,374.0 L 758.0,357.0 L 784.0,363.0 L 801.0,382.0 L 804.0,400.0 L 763.0,538.0 L 754.0,550.0 L 734.0,540.0"/>
    <path d="M 619.0,493.0 L 631.0,481.0 L 666.0,471.0 L 709.0,464.0 L 729.0,468.0"/>
    <path d="M 620.0,570.0 L 672.0,551.0 L 710.0,547.0 L 720.0,555.0"/>
    <path d="M 620.0,664.0 L 653.0,655.0 L 778.0,644.0"/>
    <path d="M 615.0,769.0 L 643.0,741.0 L 776.0,714.0 L 862.0,703.0 L 899.0,721.0 L 908.0,735.0 L 906.0,751.0 L 880.0,919.0 L 861.0,986.0 L 833.0,1013.0 L 754.0,973.0"/>
    <path d="M 555.0,831.0 L 554.0,879.0 L 533.0,961.0"/>
    <path d="M 620.0,828.0 L 640.0,907.0"/>
    <path d="M 694.0,819.0 L 717.0,874.0"/>
    <path d="M 759.0,786.0 L 800.0,843.0 L 805.0,871.0"/>
  </g>
</svg>
