<svg xmlns="http://www.w3.org/2000/svg" viewBox="0 0 1024 1024">
  <g style="fill:none;stroke:#000000;stroke-width:50;stroke-linecap:round;stroke-linejoin:round;" transform="scale(1, 1) translate(0, 0)">
    <path d="M 425.0,163.0 L 437.0,170.0 L 454.0,197.0 L 391.0,287.0 L 375.0,298.0 L 372.0,311.0 L 360.0,312.0"/>
    <path d="M 388.0,361.0 L 396.0,344.0 L 578.0,302.0 L 627.0,298.0 L 648.0,304.0 L 666.0,322.0 L 643.0,461.0 L 623.0,529.0 L 600.0,554.0 L 514.0,508.0"/>
    <path d="M 426.0,404.0 L 479.0,439.0 L 498.0,464.0"/>
    <path d="M 307.0,309.0 L 339.0,343.0 L 347.0,369.0 L 336.0,591.0 L 338.0,683.0 L 382.0,689.0 L 570.0,657.0 L 729.0,644.0 L 801.0,649.0 L 824.0,663.0 L 838.0,680.0 L 789.0,919.0 L 764.0,982.0 L 735.0,1009.0 L 695.0,993.0 L 617.0,946.0"/>
    <path d="M 115.0,851.0 L 140.0,861.0 L 174.0,864.0 L 299.0,840.0 L 599.0,805.0 L 684.0,827.0"/>
  </g>
</svg>
