<svg xmlns="http://www.w3.org/2000/svg" viewBox="0 0 1024 1024">
  <g style="fill:none;stroke:#000000;stroke-width:50;stroke-linecap:round;stroke-linejoin:round;" transform="scale(1, 1) translate(0, 0)">
    <path d="M 180.0,456.0 L 232.0,457.0 L 275.0,447.0 L 325.0,426.0 L 360.0,426.0 L 381.0,435.0 L 368.0,504.0 L 341.0,590.0 L 307.0,664.0 L 281.0,704.0 L 247.0,742.0 L 189.0,785.0 L 140.0,806.0 L 97.0,814.0"/>
    <path d="M 187.0,543.0 L 256.0,599.0 L 371.0,707.0 L 393.0,738.0 L 405.0,775.0"/>
    <path d="M 600.0,187.0 L 625.0,218.0 L 579.0,294.0 L 539.0,342.0 L 538.0,356.0"/>
    <path d="M 553.0,396.0 L 566.0,379.0 L 699.0,344.0 L 743.0,350.0 L 760.0,367.0 L 740.0,504.0 L 718.0,558.0 L 711.0,565.0 L 684.0,556.0 L 634.0,527.0"/>
    <path d="M 578.0,440.0 L 612.0,466.0 L 628.0,489.0"/>
    <path d="M 489.0,351.0 L 514.0,374.0 L 521.0,400.0 L 514.0,651.0 L 519.0,690.0 L 545.0,692.0 L 620.0,677.0 L 816.0,658.0 L 844.0,667.0 L 869.0,697.0 L 853.0,753.0 L 828.0,910.0 L 802.0,971.0 L 776.0,991.0 L 661.0,923.0"/>
    <path d="M 320.0,854.0 L 375.0,864.0 L 528.0,834.0 L 690.0,813.0 L 761.0,831.0"/>
  </g>
</svg>
