<svg xmlns="http://www.w3.org/2000/svg" viewBox="0 0 1024 1024">
  <g style="fill:none;stroke:#000000;stroke-width:50;stroke-linecap:round;stroke-linejoin:round;" transform="scale(1, 1) translate(0, 0)">
    <path d="M 387.0,289.0 L 398.0,311.0 L 390.0,330.0 L 262.0,424.0 L 253.0,425.0 L 249.0,441.0"/>
    <path d="M 196.0,263.0 L 230.0,309.0 L 219.0,389.0 L 226.0,481.0 L 242.0,508.0 L 265.0,520.0 L 300.0,526.0 L 374.0,526.0 L 428.0,518.0 L 464.0,500.0 L 468.0,389.0"/>
    <path d="M 89.0,714.0 L 100.0,722.0 L 145.0,726.0 L 442.0,663.0 L 504.0,664.0"/>
    <path d="M 290.0,586.0 L 313.0,602.0 L 329.0,629.0 L 319.0,1025.0"/>
    <path d="M 647.0,221.0 L 672.0,248.0 L 600.0,368.0 L 589.0,368.0"/>
    <path d="M 608.0,411.0 L 617.0,396.0 L 747.0,360.0 L 780.0,360.0 L 805.0,379.0 L 794.0,474.0 L 772.0,556.0 L 759.0,569.0 L 686.0,531.0"/>
    <path d="M 622.0,458.0 L 658.0,481.0 L 675.0,501.0"/>
    <path d="M 546.0,371.0 L 571.0,396.0 L 576.0,417.0 L 567.0,675.0 L 572.0,709.0 L 595.0,711.0 L 685.0,691.0 L 831.0,671.0 L 856.0,678.0 L 880.0,706.0 L 844.0,911.0 L 821.0,971.0 L 795.0,992.0 L 688.0,937.0"/>
    <path d="M 409.0,847.0 L 462.0,859.0 L 527.0,843.0 L 716.0,819.0 L 784.0,838.0"/>
  </g>
</svg>
