<svg xmlns="http://www.w3.org/2000/svg" viewBox="0 0 1024 1024">
  <g style="fill:none;stroke:#000000;stroke-width:50;stroke-linecap:round;stroke-linejoin:round;" transform="scale(1, 1) translate(0, 0)">
    <path d="M 156.0,405.0 L 166.0,444.0 L 131.0,520.0 L 134.0,564.0"/>
    <path d="M 189.0,429.0 L 206.0,436.0 L 231.0,432.0 L 345.0,407.0 L 357.0,399.0 L 422.0,391.0 L 447.0,401.0 L 465.0,423.0 L 405.0,500.0"/>
    <path d="M 291.0,244.0 L 327.0,281.0 L 323.0,356.0 L 299.0,516.0 L 260.0,651.0 L 234.0,710.0 L 164.0,806.0 L 93.0,868.0 L 43.0,896.0"/>
    <path d="M 313.0,578.0 L 341.0,621.0 L 331.0,795.0 L 340.0,829.0 L 370.0,818.0 L 431.0,769.0 L 435.0,759.0 L 449.0,755.0 L 453.0,741.0 L 463.0,740.0 L 470.0,731.0"/>
    <path d="M 638.0,223.0 L 661.0,252.0 L 584.0,366.0"/>
    <path d="M 600.0,414.0 L 614.0,396.0 L 744.0,359.0 L 776.0,360.0 L 801.0,379.0 L 790.0,474.0 L 768.0,556.0 L 755.0,569.0 L 682.0,531.0"/>
    <path d="M 622.0,458.0 L 658.0,481.0 L 675.0,501.0"/>
    <path d="M 538.0,371.0 L 558.0,388.0 L 568.0,417.0 L 563.0,678.0 L 568.0,707.0 L 594.0,708.0 L 683.0,689.0 L 831.0,670.0 L 856.0,678.0 L 880.0,705.0 L 839.0,912.0 L 813.0,972.0 L 785.0,990.0 L 687.0,931.0"/>
    <path d="M 418.0,862.0 L 469.0,872.0 L 522.0,857.0 L 716.0,823.0 L 785.0,839.0"/>
  </g>
</svg>
