<svg xmlns="http://www.w3.org/2000/svg" viewBox="0 0 1024 1024">
  <g style="fill:none;stroke:#000000;stroke-width:50;stroke-linecap:round;stroke-linejoin:round;" transform="scale(1, 1) translate(0, 0)">
    <path d="M 299.0,201.0 L 317.0,220.0 L 331.0,254.0 L 274.0,410.0 L 216.0,508.0 L 140.0,610.0 L 92.0,662.0 L 37.0,708.0"/>
    <path d="M 349.0,318.0 L 354.0,326.0 L 428.0,369.0 L 460.0,417.0"/>
    <path d="M 203.0,577.0 L 218.0,587.0 L 355.0,548.0 L 374.0,550.0 L 393.0,568.0 L 374.0,714.0 L 353.0,771.0 L 333.0,791.0 L 258.0,763.0"/>
    <path d="M 191.0,583.0 L 180.0,685.0 L 176.0,845.0 L 183.0,895.0 L 204.0,945.0 L 232.0,965.0 L 287.0,981.0 L 338.0,980.0 L 382.0,966.0 L 413.0,944.0 L 420.0,932.0 L 422.0,825.0"/>
    <path d="M 601.0,205.0 L 631.0,232.0 L 585.0,310.0 L 553.0,354.0 L 547.0,354.0"/>
    <path d="M 564.0,400.0 L 575.0,387.0 L 600.0,375.0 L 708.0,351.0 L 740.0,352.0 L 766.0,373.0 L 744.0,506.0 L 734.0,539.0 L 717.0,561.0 L 640.0,525.0"/>
    <path d="M 579.0,445.0 L 613.0,465.0 L 633.0,486.0"/>
    <path d="M 503.0,356.0 L 521.0,370.0 L 533.0,403.0 L 522.0,670.0 L 526.0,705.0 L 552.0,706.0 L 670.0,683.0 L 814.0,665.0 L 835.0,673.0 L 859.0,700.0 L 842.0,769.0 L 821.0,906.0 L 805.0,960.0 L 786.0,990.0 L 769.0,1002.0 L 754.0,1000.0 L 661.0,948.0"/>
    <path d="M 464.0,839.0 L 518.0,847.0 L 598.0,823.0 L 709.0,804.0 L 772.0,821.0"/>
  </g>
</svg>
