<svg xmlns="http://www.w3.org/2000/svg" viewBox="0 0 1024 1024">
  <g style="fill:none;stroke:#000000;stroke-width:50;stroke-linecap:round;stroke-linejoin:round;" transform="scale(1, 1) translate(0, 0)">
    <path d="M 141.0,430.0 L 164.0,435.0 L 220.0,432.0 L 410.0,383.0 L 477.0,377.0"/>
    <path d="M 299.0,197.0 L 329.0,252.0 L 260.0,448.0 L 195.0,589.0 L 181.0,635.0 L 216.0,640.0 L 383.0,610.0 L 442.0,605.0 L 462.0,612.0"/>
    <path d="M 307.0,494.0 L 347.0,537.0 L 339.0,888.0 L 321.0,928.0 L 221.0,886.0"/>
    <path d="M 221.0,732.0 L 196.0,787.0 L 133.0,871.0"/>
    <path d="M 421.0,701.0 L 462.0,746.0 L 475.0,776.0"/>
    <path d="M 646.0,218.0 L 667.0,249.0 L 598.0,353.0 L 578.0,369.0"/>
    <path d="M 593.0,419.0 L 612.0,399.0 L 734.0,370.0 L 768.0,372.0 L 793.0,390.0 L 779.0,522.0 L 763.0,568.0 L 755.0,576.0 L 731.0,568.0 L 682.0,539.0"/>
    <path d="M 622.0,458.0 L 653.0,481.0 L 668.0,503.0"/>
    <path d="M 534.0,367.0 L 556.0,386.0 L 563.0,403.0 L 559.0,674.0 L 564.0,702.0 L 598.0,702.0 L 711.0,678.0 L 836.0,663.0 L 860.0,670.0 L 885.0,697.0 L 849.0,891.0 L 822.0,966.0 L 794.0,988.0 L 688.0,933.0"/>
    <path d="M 422.0,844.0 L 467.0,855.0 L 607.0,829.0 L 716.0,816.0 L 786.0,835.0"/>
  </g>
</svg>
