<svg xmlns="http://www.w3.org/2000/svg" viewBox="0 0 1024 1024">
  <g style="fill:none;stroke:#000000;stroke-width:50;stroke-linecap:round;stroke-linejoin:round;" transform="scale(1, 1) translate(0, 0)">
    <path d="M 293.0,298.0 L 308.0,308.0 L 331.0,340.0 L 345.0,402.0 L 360.0,415.0"/>
    <path d="M 328.0,294.0 L 360.0,308.0 L 390.0,306.0 L 526.0,289.0 L 616.0,270.0 L 631.0,272.0 L 656.0,289.0 L 666.0,306.0 L 647.0,354.0 L 614.0,378.0"/>
    <path d="M 150.0,452.0 L 203.0,460.0 L 375.0,433.0 L 758.0,394.0 L 847.0,413.0"/>
    <path d="M 461.0,176.0 L 479.0,186.0 L 504.0,216.0 L 479.0,363.0 L 453.0,437.0 L 432.0,477.0 L 386.0,528.0 L 330.0,566.0 L 219.0,611.0 L 154.0,621.0"/>
    <path d="M 562.0,440.0 L 660.0,522.0 L 770.0,593.0 L 793.0,603.0 L 939.0,616.0"/>
    <path d="M 530.0,513.0 L 502.0,516.0 L 466.0,570.0"/>
    <path d="M 395.0,599.0 L 417.0,608.0 L 551.0,576.0 L 586.0,575.0 L 602.0,582.0 L 613.0,595.0 L 591.0,711.0 L 580.0,740.0 L 562.0,755.0 L 504.0,723.0"/>
    <path d="M 441.0,657.0 L 489.0,686.0"/>
    <path d="M 353.0,595.0 L 372.0,613.0 L 379.0,634.0 L 371.0,790.0 L 376.0,826.0 L 402.0,827.0 L 497.0,807.0 L 738.0,780.0 L 761.0,787.0 L 779.0,806.0 L 783.0,813.0 L 755.0,965.0 L 733.0,1025.0 L 708.0,1044.0 L 615.0,989.0"/>
    <path d="M 154.0,947.0 L 206.0,960.0 L 584.0,910.0 L 660.0,932.0"/>
  </g>
</svg>
