<svg xmlns="http://www.w3.org/2000/svg" viewBox="0 0 1024 1024">
  <g style="fill:none;stroke:#000000;stroke-width:50;stroke-linecap:round;stroke-linejoin:round;" transform="scale(1, 1) translate(0, 0)">
    <path d="M 296.0,213.0 L 323.0,233.0 L 333.0,248.0 L 324.0,415.0 L 308.0,441.0"/>
    <path d="M 353.0,340.0 L 368.0,329.0 L 466.0,313.0 L 485.0,315.0"/>
    <path d="M 231.0,467.0 L 255.0,476.0 L 400.0,442.0 L 421.0,446.0 L 452.0,471.0 L 433.0,531.0 L 408.0,550.0"/>
    <path d="M 233.0,619.0 L 249.0,603.0 L 379.0,580.0 L 430.0,577.0 L 467.0,585.0"/>
    <path d="M 175.0,460.0 L 202.0,483.0 L 212.0,503.0 L 205.0,631.0 L 192.0,710.0 L 164.0,814.0 L 130.0,895.0 L 95.0,952.0 L 60.0,994.0"/>
    <path d="M 635.0,205.0 L 660.0,232.0 L 588.0,352.0 L 577.0,352.0"/>
    <path d="M 591.0,399.0 L 606.0,378.0 L 729.0,343.0 L 773.0,347.0 L 789.0,362.0 L 775.0,486.0 L 759.0,544.0 L 747.0,558.0 L 670.0,523.0"/>
    <path d="M 610.0,442.0 L 646.0,465.0 L 663.0,485.0"/>
    <path d="M 534.0,354.0 L 553.0,370.0 L 562.0,404.0 L 552.0,648.0 L 556.0,686.0 L 592.0,686.0 L 655.0,671.0 L 828.0,650.0 L 852.0,658.0 L 876.0,685.0 L 832.0,901.0 L 806.0,963.0 L 778.0,983.0 L 684.0,933.0"/>
    <path d="M 351.0,846.0 L 407.0,856.0 L 500.0,833.0 L 674.0,806.0 L 748.0,823.0"/>
  </g>
</svg>
