<svg xmlns="http://www.w3.org/2000/svg" viewBox="0 0 1024 1024">
  <g style="fill:none;stroke:#000000;stroke-width:50;stroke-linecap:round;stroke-linejoin:round;" transform="scale(1, 1) translate(0, 0)">
    <path d="M 220.0,198.0 L 238.0,223.0 L 241.0,246.0 L 206.0,299.0 L 150.0,365.0 L 99.0,415.0 L 68.0,436.0"/>
    <path d="M 219.0,382.0 L 245.0,425.0 L 227.0,459.0 L 156.0,562.0 L 107.0,618.0 L 70.0,645.0"/>
    <path d="M 166.0,589.0 L 167.0,618.0 L 177.0,637.0 L 178.0,654.0 L 175.0,800.0 L 162.0,932.0 L 167.0,987.0"/>
    <path d="M 288.0,353.0 L 337.0,357.0 L 412.0,337.0 L 448.0,338.0"/>
    <path d="M 238.0,543.0 L 284.0,542.0 L 415.0,511.0 L 474.0,524.0"/>
    <path d="M 332.0,561.0 L 360.0,575.0 L 370.0,594.0 L 374.0,903.0 L 369.0,951.0 L 347.0,989.0 L 317.0,980.0 L 235.0,938.0"/>
    <path d="M 611.0,205.0 L 641.0,233.0 L 568.0,354.0 L 557.0,354.0"/>
    <path d="M 577.0,400.0 L 588.0,382.0 L 707.0,351.0 L 739.0,352.0 L 764.0,372.0 L 748.0,516.0 L 736.0,548.0 L 718.0,561.0 L 699.0,555.0 L 648.0,522.0"/>
    <path d="M 589.0,445.0 L 623.0,465.0 L 643.0,486.0"/>
    <path d="M 513.0,357.0 L 526.0,364.0 L 542.0,392.0 L 538.0,645.0 L 544.0,681.0 L 568.0,683.0 L 683.0,659.0 L 826.0,641.0 L 855.0,658.0 L 869.0,677.0 L 852.0,746.0 L 829.0,900.0 L 805.0,967.0 L 775.0,990.0 L 693.0,944.0 L 671.0,939.0"/>
    <path d="M 445.0,834.0 L 498.0,845.0 L 691.0,807.0 L 757.0,825.0"/>
  </g>
</svg>
