<svg xmlns="http://www.w3.org/2000/svg" viewBox="0 0 1024 1024">
  <g style="fill:none;stroke:#000000;stroke-width:50;stroke-linecap:round;stroke-linejoin:round;" transform="scale(1, 1) translate(0, 0)">
    <path d="M 352.0,177.0 L 364.0,200.0 L 365.0,219.0 L 297.0,298.0 L 289.0,326.0 L 331.0,335.0 L 372.0,330.0 L 384.0,322.0"/>
    <path d="M 441.0,237.0 L 454.0,268.0 L 347.0,389.0 L 339.0,420.0 L 363.0,426.0 L 468.0,404.0"/>
    <path d="M 573.0,172.0 L 586.0,193.0 L 587.0,211.0 L 532.0,288.0 L 517.0,322.0 L 583.0,325.0 L 609.0,314.0"/>
    <path d="M 672.0,229.0 L 684.0,262.0 L 648.0,308.0 L 597.0,359.0 L 583.0,366.0 L 573.0,400.0 L 601.0,406.0 L 719.0,381.0"/>
    <path d="M 145.0,512.0 L 201.0,529.0 L 487.0,487.0 L 767.0,462.0 L 843.0,485.0"/>
    <path d="M 462.0,542.0 L 430.0,540.0 L 383.0,593.0 L 375.0,591.0"/>
    <path d="M 379.0,609.0 L 403.0,620.0 L 563.0,587.0 L 588.0,584.0 L 612.0,590.0 L 620.0,601.0 L 615.0,654.0 L 602.0,707.0 L 589.0,732.0 L 567.0,752.0 L 521.0,725.0"/>
    <path d="M 423.0,664.0 L 456.0,685.0 L 471.0,705.0"/>
    <path d="M 335.0,599.0 L 353.0,617.0 L 361.0,639.0 L 354.0,793.0 L 360.0,827.0 L 384.0,828.0 L 534.0,800.0 L 746.0,777.0 L 766.0,784.0 L 784.0,803.0 L 789.0,811.0 L 786.0,827.0 L 751.0,965.0 L 723.0,1017.0 L 702.0,1031.0 L 608.0,989.0"/>
    <path d="M 183.0,932.0 L 233.0,944.0 L 576.0,895.0 L 652.0,915.0"/>
  </g>
</svg>
