<svg xmlns="http://www.w3.org/2000/svg" viewBox="0 0 1024 1024">
  <g style="fill:none;stroke:#000000;stroke-width:50;stroke-linecap:round;stroke-linejoin:round;" transform="scale(1, 1) translate(0, 0)">
    <path d="M 356.0,210.0 L 320.0,210.0 L 245.0,313.0 L 228.0,322.0"/>
    <path d="M 251.0,376.0 L 258.0,364.0 L 283.0,352.0 L 367.0,336.0 L 379.0,329.0 L 412.0,331.0 L 436.0,350.0 L 425.0,446.0 L 403.0,528.0 L 389.0,540.0 L 322.0,507.0"/>
    <path d="M 268.0,418.0 L 299.0,443.0 L 313.0,465.0"/>
    <path d="M 190.0,335.0 L 216.0,361.0 L 220.0,383.0 L 211.0,639.0 L 215.0,673.0 L 241.0,676.0 L 278.0,666.0 L 419.0,648.0 L 443.0,656.0 L 468.0,683.0 L 456.0,734.0 L 437.0,889.0 L 416.0,951.0 L 390.0,972.0 L 295.0,915.0"/>
    <path d="M 54.0,844.0 L 109.0,860.0 L 384.0,758.0"/>
    <path d="M 614.0,245.0 L 691.0,294.0 L 713.0,332.0"/>
    <path d="M 527.0,417.0 L 538.0,449.0 L 500.0,542.0 L 494.0,574.0"/>
    <path d="M 564.0,470.0 L 609.0,453.0 L 780.0,413.0 L 808.0,410.0 L 837.0,418.0 L 853.0,442.0 L 831.0,474.0 L 774.0,532.0"/>
    <path d="M 760.0,590.0 L 775.0,611.0 L 780.0,630.0 L 713.0,690.0 L 621.0,754.0 L 618.0,767.0 L 610.0,767.0"/>
    <path d="M 572.0,593.0 L 599.0,627.0 L 587.0,762.0 L 590.0,869.0 L 606.0,915.0 L 637.0,939.0 L 682.0,955.0 L 761.0,960.0 L 828.0,951.0 L 862.0,938.0 L 893.0,909.0 L 904.0,784.0"/>
  </g>
</svg>
