<svg xmlns="http://www.w3.org/2000/svg" viewBox="0 0 1024 1024">
  <g style="fill:none;stroke:#000000;stroke-width:50;stroke-linecap:round;stroke-linejoin:round;" transform="scale(1, 1) translate(0, 0)">
    <path d="M 153.0,349.0 L 204.0,355.0 L 375.0,318.0 L 424.0,318.0"/>
    <path d="M 218.0,378.0 L 245.0,398.0 L 250.0,410.0 L 204.0,533.0 L 187.0,549.0"/>
    <path d="M 64.0,558.0 L 89.0,587.0 L 96.0,611.0 L 91.0,821.0 L 99.0,850.0"/>
    <path d="M 122.0,601.0 L 129.0,586.0 L 148.0,579.0 L 369.0,531.0 L 404.0,533.0 L 425.0,550.0 L 423.0,715.0 L 417.0,784.0 L 401.0,843.0 L 386.0,862.0 L 380.0,861.0 L 331.0,836.0 L 304.0,813.0"/>
    <path d="M 175.0,596.0 L 186.0,601.0 L 199.0,619.0 L 199.0,823.0"/>
    <path d="M 265.0,572.0 L 293.0,591.0 L 297.0,601.0 L 283.0,838.0"/>
    <path d="M 603.0,209.0 L 628.0,235.0 L 597.0,294.0 L 554.0,355.0 L 545.0,356.0"/>
    <path d="M 561.0,399.0 L 579.0,380.0 L 698.0,352.0 L 728.0,355.0 L 752.0,374.0 L 733.0,527.0 L 720.0,555.0 L 711.0,564.0 L 687.0,556.0 L 638.0,527.0"/>
    <path d="M 583.0,443.0 L 618.0,469.0 L 632.0,490.0"/>
    <path d="M 502.0,359.0 L 529.0,385.0 L 533.0,404.0 L 524.0,643.0 L 528.0,682.0 L 554.0,683.0 L 642.0,664.0 L 812.0,642.0 L 836.0,650.0 L 861.0,677.0 L 823.0,896.0 L 796.0,975.0 L 767.0,999.0 L 663.0,935.0"/>
    <path d="M 441.0,828.0 L 455.0,837.0 L 491.0,841.0 L 589.0,815.0 L 699.0,801.0 L 766.0,816.0"/>
  </g>
</svg>
