<svg xmlns="http://www.w3.org/2000/svg" viewBox="0 0 1024 1024">
  <g style="fill:none;stroke:#000000;stroke-width:50;stroke-linecap:round;stroke-linejoin:round;" transform="scale(1, 1) translate(0, 0)">
    <path d="M 445.0,174.0 L 533.0,214.0 L 555.0,241.0"/>
    <path d="M 241.0,325.0 L 287.0,333.0 L 477.0,305.0 L 724.0,284.0 L 791.0,303.0"/>
    <path d="M 384.0,343.0 L 412.0,366.0 L 399.0,472.0 L 400.0,517.0"/>
    <path d="M 552.0,322.0 L 574.0,344.0 L 569.0,466.0 L 582.0,527.0"/>
    <path d="M 286.0,413.0 L 265.0,465.0 L 216.0,543.0"/>
    <path d="M 654.0,397.0 L 757.0,454.0 L 795.0,508.0"/>
    <path d="M 446.0,496.0 L 455.0,521.0 L 399.0,573.0 L 401.0,579.0"/>
    <path d="M 400.0,615.0 L 413.0,603.0 L 435.0,597.0 L 592.0,566.0 L 614.0,565.0 L 624.0,571.0 L 633.0,582.0 L 627.0,639.0 L 616.0,695.0 L 597.0,732.0 L 584.0,747.0 L 570.0,750.0 L 519.0,724.0"/>
    <path d="M 447.0,640.0 L 466.0,651.0 L 491.0,679.0"/>
    <path d="M 347.0,575.0 L 371.0,602.0 L 367.0,782.0 L 372.0,815.0 L 407.0,816.0 L 523.0,796.0 L 755.0,775.0 L 776.0,783.0 L 794.0,802.0 L 796.0,825.0 L 777.0,906.0 L 754.0,978.0 L 741.0,998.0 L 719.0,1014.0 L 623.0,975.0"/>
    <path d="M 176.0,928.0 L 232.0,943.0 L 352.0,922.0 L 571.0,900.0 L 618.0,906.0 L 660.0,921.0"/>
  </g>
</svg>
