<svg xmlns="http://www.w3.org/2000/svg" viewBox="0 0 1024 1024">
  <g style="fill:none;stroke:#000000;stroke-width:50;stroke-linecap:round;stroke-linejoin:round;" transform="scale(1, 1) translate(0, 0)">
    <path d="M 157.0,376.0 L 180.0,382.0 L 229.0,380.0 L 376.0,342.0 L 425.0,342.0"/>
    <path d="M 97.0,480.0 L 112.0,494.0 L 124.0,518.0 L 126.0,593.0 L 118.0,732.0 L 96.0,857.0 L 97.0,888.0"/>
    <path d="M 150.0,510.0 L 156.0,500.0 L 200.0,479.0 L 216.0,483.0 L 233.0,502.0 L 231.0,587.0 L 242.0,825.0 L 239.0,875.0 L 225.0,904.0 L 182.0,886.0 L 166.0,873.0 L 149.0,872.0"/>
    <path d="M 144.0,631.0 L 187.0,677.0 L 194.0,696.0"/>
    <path d="M 289.0,453.0 L 313.0,481.0 L 319.0,527.0 L 313.0,789.0 L 304.0,861.0 L 309.0,900.0"/>
    <path d="M 338.0,467.0 L 348.0,471.0 L 400.0,448.0 L 412.0,451.0 L 429.0,469.0 L 436.0,660.0 L 441.0,848.0 L 435.0,889.0 L 425.0,902.0 L 353.0,878.0"/>
    <path d="M 341.0,627.0 L 384.0,675.0 L 390.0,697.0"/>
    <path d="M 617.0,213.0 L 634.0,229.0 L 641.0,245.0 L 564.0,360.0"/>
    <path d="M 579.0,404.0 L 596.0,385.0 L 706.0,358.0 L 738.0,359.0 L 764.0,378.0 L 745.0,531.0 L 732.0,559.0 L 722.0,568.0 L 706.0,563.0 L 646.0,527.0"/>
    <path d="M 594.0,448.0 L 625.0,472.0 L 639.0,491.0"/>
    <path d="M 518.0,360.0 L 536.0,373.0 L 548.0,394.0 L 546.0,653.0 L 553.0,687.0 L 590.0,688.0 L 685.0,671.0 L 833.0,657.0 L 850.0,664.0 L 875.0,692.0 L 856.0,772.0 L 837.0,904.0 L 813.0,967.0 L 787.0,989.0 L 679.0,941.0"/>
    <path d="M 469.0,824.0 L 487.0,833.0 L 519.0,836.0 L 704.0,802.0 L 740.0,804.0 L 782.0,816.0"/>
  </g>
</svg>
