<svg xmlns="http://www.w3.org/2000/svg" viewBox="0 0 1024 1024">
  <g style="fill:none;stroke:#000000;stroke-width:50;stroke-linecap:round;stroke-linejoin:round;" transform="scale(1, 1) translate(0, 0)">
    <path d="M 197.0,257.0 L 276.0,312.0 L 298.0,350.0"/>
    <path d="M 128.0,457.0 L 204.0,508.0 L 220.0,530.0"/>
    <path d="M 182.0,938.0 L 167.0,911.0 L 159.0,863.0 L 241.0,649.0"/>
    <path d="M 287.0,489.0 L 342.0,490.0 L 446.0,457.0 L 484.0,456.0"/>
    <path d="M 415.0,506.0 L 394.0,523.0 L 388.0,605.0 L 392.0,615.0 L 372.0,632.0"/>
    <path d="M 260.0,687.0 L 304.0,695.0 L 431.0,643.0 L 501.0,606.0"/>
    <path d="M 630.0,194.0 L 654.0,222.0 L 575.0,340.0 L 567.0,341.0"/>
    <path d="M 594.0,383.0 L 602.0,367.0 L 712.0,337.0 L 753.0,342.0 L 768.0,356.0 L 762.0,471.0 L 745.0,540.0 L 736.0,550.0 L 669.0,530.0"/>
    <path d="M 605.0,445.0 L 644.0,464.0 L 664.0,483.0"/>
    <path d="M 529.0,347.0 L 545.0,360.0 L 560.0,395.0 L 555.0,665.0 L 559.0,697.0 L 613.0,694.0 L 679.0,675.0 L 824.0,655.0 L 848.0,662.0 L 873.0,690.0 L 836.0,912.0 L 815.0,975.0 L 788.0,1000.0 L 691.0,949.0"/>
    <path d="M 346.0,856.0 L 401.0,869.0 L 522.0,842.0 L 720.0,814.0 L 789.0,833.0"/>
  </g>
</svg>
