<svg xmlns="http://www.w3.org/2000/svg" viewBox="0 0 1024 1024">
  <g style="fill:none;stroke:#000000;stroke-width:50;stroke-linecap:round;stroke-linejoin:round;" transform="scale(1, 1) translate(0, 0)">
    <path d="M 199.0,351.0 L 262.0,352.0 L 354.0,329.0 L 407.0,309.0 L 453.0,309.0"/>
    <path d="M 302.0,207.0 L 335.0,241.0 L 318.0,419.0 L 311.0,439.0 L 300.0,448.0"/>
    <path d="M 133.0,477.0 L 142.0,513.0 L 106.0,602.0 L 105.0,637.0"/>
    <path d="M 163.0,494.0 L 180.0,500.0 L 371.0,450.0 L 397.0,445.0 L 421.0,449.0 L 444.0,473.0 L 393.0,539.0"/>
    <path d="M 178.0,601.0 L 213.0,610.0 L 309.0,574.0 L 343.0,571.0 L 364.0,577.0 L 380.0,593.0 L 363.0,622.0 L 328.0,661.0 L 325.0,673.0 L 318.0,674.0"/>
    <path d="M 272.0,681.0 L 295.0,691.0 L 317.0,711.0 L 333.0,749.0 L 345.0,825.0 L 337.0,920.0 L 319.0,962.0 L 295.0,984.0 L 202.0,946.0"/>
    <path d="M 104.0,822.0 L 157.0,837.0 L 464.0,708.0"/>
    <path d="M 617.0,213.0 L 634.0,229.0 L 641.0,245.0 L 564.0,360.0"/>
    <path d="M 578.0,405.0 L 586.0,392.0 L 608.0,380.0 L 706.0,358.0 L 738.0,359.0 L 764.0,378.0 L 745.0,531.0 L 732.0,559.0 L 722.0,568.0 L 706.0,563.0 L 646.0,527.0"/>
    <path d="M 594.0,448.0 L 625.0,472.0 L 639.0,491.0"/>
    <path d="M 518.0,358.0 L 545.0,388.0 L 536.0,660.0 L 540.0,694.0 L 577.0,694.0 L 637.0,680.0 L 771.0,667.0 L 808.0,658.0 L 832.0,658.0 L 849.0,665.0 L 874.0,693.0 L 857.0,762.0 L 832.0,919.0 L 813.0,967.0 L 787.0,989.0 L 679.0,941.0"/>
    <path d="M 400.0,843.0 L 448.0,853.0 L 689.0,813.0 L 765.0,829.0"/>
  </g>
</svg>
