<svg xmlns="http://www.w3.org/2000/svg" viewBox="0 0 1024 1024">
  <g style="fill:none;stroke:#000000;stroke-width:50;stroke-linecap:round;stroke-linejoin:round;" transform="scale(1, 1) translate(0, 0)">
    <path d="M 94.0,472.0 L 153.0,474.0 L 433.0,425.0 L 494.0,438.0"/>
    <path d="M 169.0,352.0 L 208.0,379.0 L 240.0,565.0"/>
    <path d="M 362.0,258.0 L 389.0,275.0 L 402.0,294.0 L 369.0,461.0 L 342.0,552.0"/>
    <path d="M 107.0,615.0 L 128.0,632.0 L 149.0,665.0 L 176.0,862.0 L 192.0,920.0"/>
    <path d="M 150.0,619.0 L 180.0,631.0 L 411.0,590.0 L 436.0,598.0 L 458.0,621.0 L 437.0,827.0 L 430.0,868.0 L 413.0,896.0 L 413.0,947.0"/>
    <path d="M 212.0,757.0 L 327.0,736.0 L 379.0,741.0"/>
    <path d="M 265.0,636.0 L 290.0,656.0 L 295.0,670.0 L 294.0,825.0 L 290.0,839.0 L 279.0,849.0"/>
    <path d="M 208.0,895.0 L 224.0,880.0 L 385.0,861.0"/>
    <path d="M 660.0,226.0 L 683.0,254.0 L 654.0,310.0 L 606.0,378.0"/>
    <path d="M 616.0,423.0 L 631.0,406.0 L 753.0,372.0 L 787.0,374.0 L 812.0,392.0 L 803.0,502.0 L 787.0,580.0 L 773.0,596.0 L 705.0,559.0"/>
    <path d="M 643.0,472.0 L 676.0,493.0 L 691.0,513.0"/>
    <path d="M 554.0,379.0 L 581.0,405.0 L 585.0,427.0 L 576.0,686.0 L 581.0,721.0 L 633.0,717.0 L 831.0,680.0 L 862.0,684.0 L 893.0,715.0 L 858.0,915.0 L 836.0,971.0 L 811.0,991.0 L 715.0,935.0"/>
    <path d="M 482.0,840.0 L 533.0,849.0 L 600.0,834.0 L 743.0,817.0 L 817.0,833.0"/>
  </g>
</svg>
