<svg xmlns="http://www.w3.org/2000/svg" viewBox="0 0 1024 1024">
  <g style="fill:none;stroke:#000000;stroke-width:50;stroke-linecap:round;stroke-linejoin:round;" transform="scale(1, 1) translate(0, 0)">
    <path d="M 151.0,453.0 L 190.0,455.0 L 278.0,435.0 L 306.0,436.0"/>
    <path d="M 122.0,567.0 L 180.0,569.0 L 395.0,516.0 L 452.0,519.0"/>
    <path d="M 222.0,582.0 L 244.0,600.0 L 245.0,612.0 L 248.0,767.0 L 244.0,783.0 L 232.0,789.0"/>
    <path d="M 274.0,674.0 L 283.0,662.0 L 330.0,660.0"/>
    <path d="M 123.0,682.0 L 153.0,713.0 L 165.0,802.0 L 153.0,813.0"/>
    <path d="M 92.0,847.0 L 143.0,861.0 L 356.0,772.0"/>
    <path d="M 322.0,265.0 L 333.0,271.0 L 351.0,301.0 L 349.0,503.0 L 371.0,667.0 L 416.0,818.0 L 437.0,857.0 L 467.0,889.0 L 483.0,893.0 L 501.0,860.0 L 507.0,824.0 L 503.0,805.0 L 514.0,775.0"/>
    <path d="M 414.0,330.0 L 471.0,380.0 L 479.0,404.0"/>
    <path d="M 652.0,206.0 L 675.0,234.0 L 645.0,289.0 L 597.0,357.0"/>
    <path d="M 613.0,399.0 L 622.0,384.0 L 741.0,358.0 L 777.0,360.0 L 800.0,378.0 L 779.0,527.0 L 764.0,558.0 L 756.0,564.0 L 734.0,556.0 L 689.0,527.0"/>
    <path d="M 631.0,443.0 L 666.0,467.0 L 683.0,489.0"/>
    <path d="M 550.0,364.0 L 576.0,388.0 L 581.0,408.0 L 579.0,645.0 L 584.0,674.0 L 611.0,675.0 L 696.0,655.0 L 834.0,639.0 L 858.0,648.0 L 882.0,674.0 L 862.0,753.0 L 843.0,880.0 L 815.0,957.0 L 787.0,982.0 L 684.0,937.0"/>
    <path d="M 527.0,812.0 L 535.0,821.0 L 561.0,823.0 L 737.0,790.0 L 789.0,804.0"/>
  </g>
</svg>
