<svg xmlns="http://www.w3.org/2000/svg" viewBox="0 0 1024 1024">
  <g style="fill:none;stroke:#000000;stroke-width:50;stroke-linecap:round;stroke-linejoin:round;" transform="scale(1, 1) translate(0, 0)">
    <path d="M 301.0,199.0 L 372.0,236.0 L 405.0,273.0"/>
    <path d="M 136.0,387.0 L 194.0,392.0 L 434.0,336.0 L 487.0,338.0"/>
    <path d="M 208.0,449.0 L 236.0,476.0 L 268.0,588.0"/>
    <path d="M 251.0,446.0 L 263.0,454.0 L 381.0,418.0 L 394.0,421.0 L 415.0,441.0 L 399.0,489.0 L 380.0,504.0"/>
    <path d="M 280.0,545.0 L 288.0,550.0 L 368.0,528.0 L 425.0,529.0"/>
    <path d="M 185.0,650.0 L 202.0,657.0 L 235.0,657.0 L 344.0,614.0 L 371.0,608.0 L 391.0,612.0 L 408.0,631.0 L 406.0,636.0 L 345.0,695.0 L 342.0,705.0 L 334.0,706.0"/>
    <path d="M 287.0,709.0 L 320.0,728.0 L 338.0,756.0 L 353.0,838.0 L 348.0,919.0 L 338.0,954.0 L 321.0,978.0 L 304.0,989.0 L 232.0,950.0"/>
    <path d="M 97.0,835.0 L 147.0,851.0 L 448.0,736.0"/>
    <path d="M 628.0,222.0 L 650.0,251.0 L 614.0,319.0 L 588.0,360.0 L 576.0,368.0 L 575.0,378.0"/>
    <path d="M 593.0,414.0 L 601.0,399.0 L 727.0,370.0 L 761.0,370.0 L 788.0,390.0 L 767.0,539.0 L 752.0,570.0 L 744.0,576.0 L 722.0,568.0 L 677.0,539.0"/>
    <path d="M 607.0,459.0 L 642.0,483.0 L 659.0,505.0"/>
    <path d="M 530.0,378.0 L 555.0,403.0 L 558.0,421.0 L 548.0,672.0 L 555.0,709.0 L 838.0,669.0 L 861.0,676.0 L 884.0,703.0 L 845.0,905.0 L 822.0,963.0 L 795.0,984.0 L 696.0,933.0"/>
    <path d="M 412.0,844.0 L 466.0,854.0 L 721.0,804.0 L 791.0,822.0"/>
  </g>
</svg>
