<svg xmlns="http://www.w3.org/2000/svg" viewBox="0 0 1024 1024">
  <g style="fill:none;stroke:#000000;stroke-width:50;stroke-linecap:round;stroke-linejoin:round;" transform="scale(1, 1) translate(0, 0)">
    <path d="M 177.0,355.0 L 217.0,355.0 L 390.0,304.0 L 413.0,311.0 L 428.0,327.0 L 428.0,340.0 L 395.0,455.0 L 377.0,468.0"/>
    <path d="M 74.0,463.0 L 119.0,467.0 L 246.0,434.0 L 440.0,394.0 L 494.0,394.0"/>
    <path d="M 175.0,537.0 L 198.0,540.0 L 376.0,494.0 L 432.0,497.0"/>
    <path d="M 263.0,203.0 L 301.0,227.0 L 309.0,245.0 L 300.0,357.0 L 292.0,1005.0"/>
    <path d="M 121.0,597.0 L 149.0,625.0 L 151.0,725.0 L 143.0,808.0 L 129.0,882.0 L 109.0,939.0 L 78.0,999.0 L 54.0,1028.0"/>
    <path d="M 415.0,541.0 L 446.0,577.0 L 443.0,1041.0"/>
    <path d="M 205.0,688.0 L 235.0,718.0 L 232.0,787.0 L 197.0,869.0 L 158.0,915.0"/>
    <path d="M 335.0,693.0 L 367.0,744.0 L 384.0,789.0 L 388.0,822.0 L 381.0,843.0"/>
    <path d="M 618.0,205.0 L 645.0,232.0 L 618.0,283.0 L 566.0,356.0"/>
    <path d="M 578.0,400.0 L 593.0,382.0 L 722.0,351.0 L 755.0,351.0 L 781.0,373.0 L 760.0,506.0 L 741.0,551.0 L 731.0,561.0 L 720.0,558.0 L 654.0,525.0"/>
    <path d="M 596.0,445.0 L 628.0,465.0 L 648.0,486.0"/>
    <path d="M 518.0,356.0 L 545.0,384.0 L 536.0,669.0 L 541.0,704.0 L 567.0,706.0 L 685.0,683.0 L 829.0,665.0 L 850.0,673.0 L 874.0,701.0 L 857.0,770.0 L 836.0,906.0 L 808.0,981.0 L 781.0,1004.0 L 676.0,948.0"/>
    <path d="M 483.0,835.0 L 535.0,843.0 L 702.0,804.0 L 772.0,821.0"/>
  </g>
</svg>
