<svg xmlns="http://www.w3.org/2000/svg" viewBox="0 0 1024 1024">
  <g style="fill:none;stroke:#000000;stroke-width:50;stroke-linecap:round;stroke-linejoin:round;" transform="scale(1, 1) translate(0, 0)">
    <path d="M 175.0,298.0 L 206.0,327.0 L 214.0,345.0 L 227.0,500.0 L 230.0,516.0 L 242.0,523.0"/>
    <path d="M 235.0,308.0 L 252.0,318.0 L 388.0,287.0 L 407.0,292.0 L 422.0,304.0 L 432.0,318.0 L 403.0,476.0 L 380.0,500.0"/>
    <path d="M 248.0,433.0 L 257.0,420.0 L 293.0,408.0 L 322.0,420.0 L 314.0,501.0 L 298.0,510.0"/>
    <path d="M 133.0,517.0 L 143.0,546.0 L 111.0,623.0 L 105.0,673.0"/>
    <path d="M 164.0,565.0 L 177.0,556.0 L 450.0,507.0 L 476.0,517.0 L 486.0,528.0 L 438.0,592.0"/>
    <path d="M 204.0,621.0 L 222.0,639.0 L 228.0,655.0 L 230.0,728.0 L 215.0,873.0 L 190.0,976.0 L 188.0,1014.0"/>
    <path d="M 254.0,651.0 L 264.0,642.0 L 362.0,615.0 L 378.0,621.0 L 397.0,642.0 L 402.0,939.0 L 396.0,966.0 L 380.0,992.0 L 298.0,955.0"/>
    <path d="M 249.0,759.0 L 260.0,747.0 L 301.0,741.0 L 332.0,745.0"/>
    <path d="M 236.0,852.0 L 257.0,839.0 L 297.0,834.0 L 332.0,841.0"/>
    <path d="M 641.0,237.0 L 676.0,267.0 L 642.0,335.0 L 604.0,394.0 L 591.0,399.0"/>
    <path d="M 591.0,408.0 L 622.0,422.0 L 766.0,377.0 L 789.0,379.0 L 808.0,399.0 L 787.0,528.0 L 774.0,575.0 L 762.0,596.0 L 750.0,608.0 L 666.0,567.0"/>
    <path d="M 653.0,479.0 L 692.0,497.0 L 712.0,519.0"/>
    <path d="M 554.0,407.0 L 570.0,417.0 L 585.0,452.0 L 576.0,691.0 L 582.0,728.0 L 622.0,726.0 L 656.0,714.0 L 826.0,679.0 L 855.0,680.0 L 886.0,707.0 L 862.0,911.0 L 839.0,992.0 L 811.0,1018.0 L 706.0,961.0"/>
    <path d="M 486.0,876.0 L 531.0,881.0 L 718.0,836.0 L 780.0,849.0"/>
  </g>
</svg>
