<svg xmlns="http://www.w3.org/2000/svg" viewBox="0 0 1024 1024">
  <g style="fill:none;stroke:#000000;stroke-width:50;stroke-linecap:round;stroke-linejoin:round;" transform="scale(1, 1) translate(0, 0)">
    <path d="M 135.0,315.0 L 161.0,341.0 L 189.0,467.0"/>
    <path d="M 185.0,334.0 L 192.0,325.0 L 233.0,310.0 L 257.0,303.0 L 275.0,307.0 L 288.0,321.0 L 274.0,389.0 L 261.0,395.0"/>
    <path d="M 206.0,445.0 L 213.0,436.0 L 248.0,425.0 L 305.0,425.0"/>
    <path d="M 343.0,281.0 L 364.0,303.0 L 385.0,416.0"/>
    <path d="M 387.0,299.0 L 404.0,286.0 L 436.0,275.0 L 475.0,275.0 L 488.0,289.0 L 487.0,301.0 L 475.0,347.0 L 462.0,355.0"/>
    <path d="M 399.0,395.0 L 415.0,386.0 L 456.0,380.0 L 504.0,384.0"/>
    <path d="M 228.0,513.0 L 280.0,516.0 L 385.0,491.0 L 424.0,491.0"/>
    <path d="M 92.0,636.0 L 124.0,645.0 L 156.0,644.0 L 379.0,594.0 L 467.0,581.0 L 498.0,587.0"/>
    <path d="M 290.0,644.0 L 265.0,666.0 L 248.0,737.0 L 285.0,737.0 L 352.0,718.0 L 389.0,720.0 L 417.0,742.0 L 414.0,796.0 L 402.0,849.0 L 375.0,921.0 L 334.0,965.0 L 326.0,967.0 L 304.0,953.0 L 247.0,905.0"/>
    <path d="M 644.0,234.0 L 667.0,262.0 L 640.0,313.0 L 588.0,385.0"/>
    <path d="M 607.0,396.0 L 620.0,408.0 L 734.0,377.0 L 753.0,377.0 L 780.0,384.0 L 792.0,398.0 L 771.0,547.0 L 763.0,568.0 L 748.0,585.0 L 685.0,554.0"/>
    <path d="M 626.0,468.0 L 657.0,492.0 L 671.0,511.0"/>
    <path d="M 550.0,391.0 L 574.0,413.0 L 580.0,433.0 L 575.0,717.0 L 622.0,715.0 L 686.0,699.0 L 854.0,677.0 L 877.0,684.0 L 900.0,711.0 L 864.0,915.0 L 841.0,974.0 L 815.0,995.0 L 723.0,945.0"/>
    <path d="M 460.0,848.0 L 514.0,857.0 L 587.0,839.0 L 741.0,816.0 L 809.0,833.0"/>
  </g>
</svg>
