<svg xmlns="http://www.w3.org/2000/svg" viewBox="0 0 1024 1024">
  <g style="fill:none;stroke:#000000;stroke-width:50;stroke-linecap:round;stroke-linejoin:round;" transform="scale(1, 1) translate(0, 0)">
    <path d="M 172.0,387.0 L 196.0,393.0 L 248.0,388.0 L 426.0,342.0 L 468.0,341.0"/>
    <path d="M 303.0,230.0 L 326.0,244.0 L 340.0,263.0 L 280.0,421.0 L 233.0,513.0 L 193.0,569.0 L 136.0,629.0 L 83.0,673.0"/>
    <path d="M 354.0,430.0 L 446.0,491.0 L 470.0,514.0 L 486.0,545.0"/>
    <path d="M 141.0,474.0 L 184.0,511.0 L 189.0,535.0"/>
    <path d="M 447.0,399.0 L 456.0,413.0 L 455.0,423.0 L 435.0,445.0 L 424.0,445.0"/>
    <path d="M 214.0,588.0 L 214.0,613.0 L 245.0,759.0"/>
    <path d="M 237.0,601.0 L 246.0,590.0 L 267.0,584.0 L 376.0,563.0 L 407.0,563.0 L 425.0,570.0 L 440.0,589.0 L 439.0,598.0 L 402.0,720.0 L 403.0,743.0"/>
    <path d="M 251.0,673.0 L 258.0,665.0 L 320.0,649.0 L 349.0,646.0 L 365.0,651.0"/>
    <path d="M 257.0,743.0 L 269.0,732.0 L 354.0,720.0 L 372.0,711.0"/>
    <path d="M 303.0,745.0 L 326.0,773.0 L 329.0,889.0 L 322.0,946.0 L 303.0,972.0 L 223.0,936.0"/>
    <path d="M 196.0,813.0 L 176.0,879.0 L 145.0,940.0"/>
    <path d="M 355.0,839.0 L 415.0,873.0 L 440.0,902.0"/>
    <path d="M 648.0,230.0 L 671.0,258.0 L 616.0,350.0 L 597.0,376.0 L 588.0,375.0"/>
    <path d="M 594.0,394.0 L 601.0,401.0 L 627.0,400.0 L 742.0,371.0 L 781.0,377.0 L 792.0,389.0 L 781.0,506.0 L 765.0,563.0 L 757.0,572.0 L 697.0,543.0"/>
    <path d="M 627.0,467.0 L 662.0,491.0 L 679.0,513.0"/>
    <path d="M 546.0,387.0 L 565.0,402.0 L 577.0,430.0 L 568.0,677.0 L 573.0,718.0 L 610.0,717.0 L 697.0,698.0 L 845.0,677.0 L 869.0,684.0 L 892.0,711.0 L 856.0,915.0 L 833.0,974.0 L 807.0,995.0 L 711.0,939.0"/>
    <path d="M 464.0,840.0 L 511.0,850.0 L 738.0,813.0 L 813.0,829.0"/>
  </g>
</svg>
