<svg xmlns="http://www.w3.org/2000/svg" viewBox="0 0 1024 1024">
  <g style="fill:none;stroke:#000000;stroke-width:50;stroke-linecap:round;stroke-linejoin:round;" transform="scale(1, 1) translate(0, 0)">
    <path d="M 173.0,300.0 L 204.0,299.0 L 275.0,278.0 L 295.0,285.0 L 312.0,306.0 L 269.0,479.0"/>
    <path d="M 154.0,353.0 L 194.0,380.0 L 204.0,395.0"/>
    <path d="M 117.0,495.0 L 149.0,496.0 L 231.0,445.0 L 249.0,427.0"/>
    <path d="M 377.0,271.0 L 422.0,270.0 L 494.0,253.0 L 510.0,260.0 L 530.0,282.0 L 513.0,336.0 L 485.0,479.0"/>
    <path d="M 369.0,324.0 L 425.0,365.0"/>
    <path d="M 357.0,446.0 L 389.0,447.0 L 480.0,386.0"/>
    <path d="M 368.0,515.0 L 339.0,522.0 L 294.0,588.0 L 205.0,675.0 L 136.0,726.0 L 101.0,743.0"/>
    <path d="M 350.0,564.0 L 372.0,566.0 L 456.0,613.0 L 487.0,636.0 L 512.0,674.0"/>
    <path d="M 325.0,623.0 L 336.0,637.0 L 340.0,656.0 L 317.0,688.0 L 264.0,745.0 L 210.0,781.0"/>
    <path d="M 367.0,698.0 L 382.0,728.0 L 355.0,771.0 L 285.0,840.0 L 223.0,881.0"/>
    <path d="M 398.0,796.0 L 415.0,834.0 L 369.0,895.0 L 319.0,944.0 L 271.0,979.0 L 195.0,1017.0"/>
    <path d="M 674.0,222.0 L 691.0,238.0 L 695.0,250.0 L 666.0,304.0 L 622.0,364.0 L 625.0,370.0"/>
    <path d="M 635.0,410.0 L 646.0,392.0 L 766.0,358.0 L 800.0,361.0 L 820.0,378.0 L 809.0,496.0 L 792.0,556.0 L 784.0,564.0 L 721.0,531.0"/>
    <path d="M 650.0,458.0 L 686.0,481.0 L 703.0,501.0"/>
    <path d="M 574.0,374.0 L 600.0,401.0 L 602.0,418.0 L 595.0,709.0 L 640.0,710.0 L 689.0,694.0 L 876.0,662.0 L 901.0,669.0 L 926.0,695.0 L 894.0,901.0 L 873.0,962.0 L 847.0,984.0 L 747.0,929.0"/>
    <path d="M 488.0,836.0 L 541.0,846.0 L 618.0,826.0 L 757.0,804.0 L 827.0,822.0"/>
  </g>
</svg>
