<svg xmlns="http://www.w3.org/2000/svg" viewBox="0 0 1024 1024">
  <g style="fill:none;stroke:#000000;stroke-width:50;stroke-linecap:round;stroke-linejoin:round;" transform="scale(1, 1) translate(0, 0)">
    <path d="M 183.0,279.0 L 200.0,288.0 L 236.0,290.0 L 372.0,245.0 L 404.0,248.0 L 423.0,270.0 L 420.0,277.0 L 339.0,356.0"/>
    <path d="M 269.0,345.0 L 337.0,390.0"/>
    <path d="M 93.0,454.0 L 130.0,455.0 L 401.0,398.0 L 432.0,398.0 L 452.0,406.0 L 461.0,417.0 L 452.0,432.0 L 407.0,480.0"/>
    <path d="M 337.0,436.0 L 346.0,514.0 L 335.0,561.0 L 330.0,566.0 L 282.0,547.0 L 274.0,549.0"/>
    <path d="M 330.0,433.0 L 297.0,456.0 L 266.0,495.0 L 223.0,532.0 L 178.0,560.0 L 116.0,585.0"/>
    <path d="M 125.0,634.0 L 144.0,651.0 L 151.0,668.0 L 155.0,718.0 L 153.0,829.0 L 135.0,937.0 L 136.0,973.0"/>
    <path d="M 170.0,636.0 L 182.0,646.0 L 402.0,604.0 L 418.0,608.0 L 436.0,624.0 L 441.0,634.0 L 445.0,828.0 L 438.0,943.0 L 426.0,967.0 L 345.0,935.0"/>
    <path d="M 277.0,682.0 L 258.0,686.0 L 225.0,727.0 L 201.0,745.0"/>
    <path d="M 325.0,661.0 L 370.0,692.0 L 380.0,707.0"/>
    <path d="M 199.0,786.0 L 221.0,806.0 L 246.0,901.0"/>
    <path d="M 243.0,797.0 L 246.0,790.0 L 318.0,767.0 L 334.0,771.0 L 348.0,786.0 L 337.0,826.0 L 319.0,841.0"/>
    <path d="M 255.0,878.0 L 304.0,861.0 L 361.0,860.0"/>
    <path d="M 648.0,230.0 L 671.0,258.0 L 616.0,350.0 L 597.0,376.0 L 588.0,375.0"/>
    <path d="M 594.0,394.0 L 601.0,401.0 L 627.0,400.0 L 742.0,371.0 L 781.0,377.0 L 792.0,389.0 L 781.0,506.0 L 765.0,563.0 L 757.0,572.0 L 697.0,543.0"/>
    <path d="M 627.0,467.0 L 662.0,491.0 L 679.0,513.0"/>
    <path d="M 546.0,387.0 L 565.0,402.0 L 577.0,430.0 L 571.0,717.0 L 601.0,717.0 L 714.0,694.0 L 853.0,677.0 L 877.0,684.0 L 900.0,711.0 L 861.0,913.0 L 838.0,971.0 L 811.0,992.0 L 712.0,941.0"/>
    <path d="M 468.0,845.0 L 482.0,854.0 L 512.0,858.0 L 740.0,812.0 L 804.0,827.0"/>
  </g>
</svg>
