<svg xmlns="http://www.w3.org/2000/svg" viewBox="0 0 1024 1024">
  <g style="fill:none;stroke:#000000;stroke-width:50;stroke-linecap:round;stroke-linejoin:round;" transform="scale(1, 1) translate(0, 0)">
    <path d="M 469.0,164.0 L 542.0,195.0 L 563.0,221.0"/>
    <path d="M 321.0,282.0 L 351.0,296.0 L 696.0,239.0 L 755.0,246.0"/>
    <path d="M 254.0,263.0 L 283.0,292.0 L 290.0,313.0 L 271.0,479.0 L 229.0,662.0 L 190.0,759.0 L 142.0,847.0 L 89.0,921.0 L 57.0,954.0"/>
    <path d="M 421.0,318.0 L 438.0,348.0 L 425.0,373.0 L 368.0,447.0 L 317.0,488.0"/>
    <path d="M 402.0,436.0 L 410.0,470.0 L 402.0,552.0 L 406.0,597.0"/>
    <path d="M 573.0,319.0 L 554.0,327.0 L 517.0,388.0 L 457.0,447.0"/>
    <path d="M 531.0,401.0 L 539.0,438.0 L 530.0,556.0 L 534.0,597.0"/>
    <path d="M 629.0,290.0 L 671.0,319.0"/>
    <path d="M 576.0,369.0 L 619.0,373.0 L 681.0,363.0 L 726.0,348.0 L 763.0,349.0"/>
    <path d="M 602.0,441.0 L 713.0,416.0 L 749.0,419.0"/>
    <path d="M 599.0,501.0 L 719.0,478.0 L 764.0,482.0"/>
    <path d="M 651.0,390.0 L 668.0,408.0 L 665.0,521.0 L 656.0,539.0"/>
    <path d="M 555.0,576.0 L 732.0,548.0 L 757.0,547.0 L 806.0,557.0"/>
    <path d="M 488.0,578.0 L 465.0,580.0 L 427.0,637.0"/>
    <path d="M 447.0,674.0 L 455.0,663.0 L 476.0,657.0 L 633.0,626.0 L 657.0,630.0 L 668.0,643.0 L 664.0,692.0 L 652.0,741.0 L 640.0,764.0 L 633.0,773.0 L 614.0,779.0 L 570.0,756.0"/>
    <path d="M 476.0,695.0 L 511.0,718.0 L 527.0,737.0"/>
    <path d="M 391.0,634.0 L 415.0,666.0 L 407.0,810.0 L 413.0,843.0 L 431.0,845.0 L 660.0,805.0 L 782.0,793.0 L 802.0,800.0 L 820.0,819.0 L 824.0,828.0 L 797.0,948.0 L 767.0,1021.0 L 746.0,1037.0 L 658.0,989.0"/>
    <path d="M 223.0,953.0 L 271.0,964.0 L 379.0,944.0 L 626.0,913.0 L 690.0,933.0"/>
  </g>
</svg>
