<svg xmlns="http://www.w3.org/2000/svg" viewBox="0 0 1024 1024">
  <g style="fill:none;stroke:#000000;stroke-width:50;stroke-linecap:round;stroke-linejoin:round;" transform="scale(1, 1) translate(0, 0)">
    <path d="M 115.0,270.0 L 126.0,275.0 L 181.0,275.0 L 357.0,240.0 L 394.0,244.0"/>
    <path d="M 109.0,386.0 L 92.0,448.0 L 64.0,514.0"/>
    <path d="M 119.0,440.0 L 144.0,425.0 L 231.0,402.0 L 403.0,367.0 L 445.0,367.0 L 468.0,390.0 L 474.0,406.0 L 411.0,472.0"/>
    <path d="M 224.0,297.0 L 248.0,310.0 L 254.0,327.0 L 251.0,628.0"/>
    <path d="M 139.0,486.0 L 184.0,499.0 L 200.0,513.0"/>
    <path d="M 126.0,562.0 L 184.0,589.0"/>
    <path d="M 314.0,473.0 L 361.0,488.0 L 379.0,501.0"/>
    <path d="M 315.0,559.0 L 368.0,582.0 L 376.0,592.0"/>
    <path d="M 59.0,755.0 L 107.0,759.0 L 231.0,729.0 L 271.0,731.0"/>
    <path d="M 142.0,642.0 L 177.0,682.0 L 166.0,1071.0"/>
    <path d="M 149.0,777.0 L 141.0,782.0 L 140.0,823.0 L 122.0,882.0 L 83.0,948.0 L 49.0,980.0"/>
    <path d="M 200.0,815.0 L 215.0,834.0 L 250.0,860.0 L 264.0,888.0"/>
    <path d="M 289.0,667.0 L 309.0,688.0 L 318.0,723.0 L 311.0,1018.0 L 315.0,1044.0"/>
    <path d="M 336.0,677.0 L 349.0,687.0 L 396.0,668.0 L 429.0,664.0 L 451.0,674.0 L 466.0,692.0 L 471.0,959.0 L 469.0,985.0 L 458.0,1014.0 L 461.0,1066.0"/>
    <path d="M 342.0,807.0 L 352.0,795.0 L 378.0,789.0 L 411.0,794.0"/>
    <path d="M 338.0,896.0 L 351.0,885.0 L 378.0,880.0 L 411.0,887.0"/>
    <path d="M 340.0,997.0 L 350.0,988.0 L 373.0,982.0 L 415.0,986.0"/>
    <path d="M 653.0,207.0 L 675.0,233.0 L 606.0,349.0 L 596.0,354.0 L 596.0,362.0"/>
    <path d="M 604.0,408.0 L 624.0,388.0 L 749.0,353.0 L 783.0,353.0 L 807.0,373.0 L 796.0,468.0 L 774.0,550.0 L 762.0,563.0 L 689.0,526.0"/>
    <path d="M 629.0,445.0 L 681.0,487.0"/>
    <path d="M 544.0,360.0 L 565.0,379.0 L 573.0,396.0 L 569.0,654.0 L 574.0,689.0 L 601.0,691.0 L 704.0,669.0 L 845.0,649.0 L 875.0,656.0 L 899.0,682.0 L 858.0,912.0 L 835.0,975.0 L 805.0,1000.0 L 702.0,941.0"/>
    <path d="M 514.0,821.0 L 557.0,829.0 L 731.0,795.0 L 780.0,796.0 L 812.0,806.0"/>
  </g>
</svg>
