<svg xmlns="http://www.w3.org/2000/svg" viewBox="0 0 1024 1024">
  <g style="fill:none;stroke:#000000;stroke-width:50;stroke-linecap:round;stroke-linejoin:round;" transform="scale(1, 1) translate(0, 0)">
    <path d="M 242.0,311.0 L 256.0,317.0 L 298.0,313.0 L 421.0,281.0 L 461.0,278.0"/>
    <path d="M 332.0,327.0 L 349.0,344.0 L 348.0,392.0 L 329.0,410.0"/>
    <path d="M 241.0,461.0 L 367.0,427.0 L 379.0,419.0 L 409.0,418.0 L 432.0,442.0 L 412.0,491.0 L 391.0,500.0"/>
    <path d="M 241.0,566.0 L 258.0,557.0 L 378.0,531.0 L 422.0,528.0 L 439.0,534.0"/>
    <path d="M 335.0,563.0 L 354.0,580.0 L 348.0,630.0 L 332.0,642.0"/>
    <path d="M 187.0,290.0 L 211.0,316.0 L 219.0,341.0 L 219.0,473.0 L 205.0,697.0 L 252.0,694.0 L 300.0,677.0 L 414.0,651.0 L 463.0,656.0"/>
    <path d="M 565.0,184.0 L 589.0,216.0 L 563.0,273.0 L 526.0,327.0 L 487.0,366.0"/>
    <path d="M 591.0,272.0 L 650.0,270.0 L 754.0,246.0 L 802.0,246.0"/>
    <path d="M 623.0,309.0 L 646.0,333.0 L 642.0,399.0 L 632.0,405.0"/>
    <path d="M 670.0,351.0 L 723.0,327.0 L 785.0,322.0"/>
    <path d="M 504.0,408.0 L 525.0,447.0 L 528.0,542.0 L 523.0,553.0 L 517.0,681.0 L 521.0,736.0"/>
    <path d="M 548.0,446.0 L 747.0,400.0 L 767.0,401.0 L 790.0,417.0 L 803.0,437.0 L 796.0,530.0 L 802.0,667.0 L 794.0,734.0"/>
    <path d="M 678.0,429.0 L 691.0,440.0 L 693.0,457.0 L 651.0,568.0 L 613.0,629.0 L 574.0,669.0 L 555.0,680.0"/>
    <path d="M 569.0,516.0 L 678.0,572.0 L 731.0,608.0 L 748.0,632.0"/>
    <path d="M 593.0,467.0 L 630.0,502.0"/>
    <path d="M 549.0,560.0 L 588.0,591.0"/>
    <path d="M 705.0,504.0 L 745.0,535.0"/>
    <path d="M 640.0,627.0 L 676.0,658.0"/>
    <path d="M 541.0,724.0 L 554.0,713.0 L 565.0,716.0 L 604.0,707.0 L 732.0,695.0 L 762.0,686.0"/>
    <path d="M 258.0,823.0 L 287.0,845.0 L 301.0,870.0 L 325.0,976.0 L 341.0,983.0"/>
    <path d="M 310.0,825.0 L 336.0,837.0 L 631.0,791.0 L 694.0,793.0 L 708.0,804.0 L 724.0,832.0 L 691.0,931.0 L 660.0,958.0"/>
    <path d="M 424.0,846.0 L 420.0,855.0 L 431.0,912.0 L 443.0,971.0 L 451.0,980.0"/>
    <path d="M 537.0,819.0 L 569.0,851.0 L 544.0,942.0 L 536.0,964.0 L 524.0,976.0"/>
    <path d="M 134.0,1019.0 L 192.0,1030.0 L 465.0,999.0 L 794.0,977.0 L 855.0,982.0 L 901.0,998.0"/>
  </g>
</svg>
