<svg xmlns="http://www.w3.org/2000/svg" viewBox="0 0 1024 1024">
  <g style="fill:none;stroke:#000000;stroke-width:50;stroke-linecap:round;stroke-linejoin:round;" transform="scale(1, 1) translate(0, 0)">
    <path d="M 289.0,235.0 L 322.0,242.0 L 458.0,219.0 L 500.0,220.0"/>
    <path d="M 240.0,319.0 L 265.0,342.0 L 272.0,359.0 L 292.0,479.0"/>
    <path d="M 294.0,328.0 L 321.0,329.0 L 338.0,320.0 L 350.0,322.0 L 442.0,302.0 L 477.0,306.0 L 494.0,325.0 L 456.0,450.0"/>
    <path d="M 339.0,385.0 L 381.0,416.0 L 395.0,443.0"/>
    <path d="M 589.0,215.0 L 645.0,218.0 L 732.0,200.0 L 784.0,200.0"/>
    <path d="M 568.0,294.0 L 584.0,309.0 L 597.0,335.0 L 610.0,437.0"/>
    <path d="M 600.0,296.0 L 618.0,303.0 L 674.0,288.0 L 767.0,276.0 L 791.0,284.0 L 808.0,306.0 L 773.0,435.0"/>
    <path d="M 655.0,357.0 L 695.0,391.0 L 705.0,414.0"/>
    <path d="M 515.0,435.0 L 556.0,488.0"/>
    <path d="M 381.0,535.0 L 411.0,541.0 L 478.0,534.0 L 546.0,523.0 L 678.0,487.0 L 719.0,489.0"/>
    <path d="M 324.0,509.0 L 343.0,530.0 L 353.0,553.0 L 321.0,688.0 L 282.0,808.0 L 241.0,896.0 L 204.0,953.0 L 149.0,1017.0 L 109.0,1052.0"/>
    <path d="M 399.0,646.0 L 438.0,646.0 L 657.0,592.0 L 705.0,595.0 L 715.0,601.0 L 728.0,625.0 L 688.0,709.0 L 665.0,717.0"/>
    <path d="M 440.0,578.0 L 466.0,607.0 L 468.0,702.0 L 459.0,710.0"/>
    <path d="M 567.0,536.0 L 592.0,561.0 L 573.0,664.0 L 565.0,685.0 L 555.0,691.0"/>
    <path d="M 377.0,741.0 L 407.0,743.0 L 615.0,699.0 L 654.0,698.0"/>
    <path d="M 414.0,863.0 L 422.0,852.0 L 443.0,847.0 L 494.0,841.0 L 509.0,847.0"/>
    <path d="M 360.0,791.0 L 389.0,820.0 L 391.0,833.0 L 384.0,911.0 L 371.0,972.0 L 374.0,986.0 L 410.0,981.0 L 520.0,921.0"/>
    <path d="M 750.0,765.0 L 758.0,801.0 L 681.0,851.0 L 626.0,878.0 L 619.0,889.0"/>
    <path d="M 577.0,763.0 L 600.0,792.0 L 594.0,898.0 L 603.0,965.0 L 622.0,996.0 L 667.0,1017.0 L 744.0,1027.0 L 802.0,1022.0 L 841.0,1009.0 L 875.0,989.0 L 889.0,975.0 L 886.0,862.0"/>
  </g>
</svg>
