<svg xmlns="http://www.w3.org/2000/svg" viewBox="0 0 1024 1024">
  <g style="fill:none;stroke:#000000;stroke-width:50;stroke-linecap:round;stroke-linejoin:round;" transform="scale(1, 1) translate(0, 0)">
    <path d="M 345.0,298.0 L 420.0,301.0 L 542.0,278.0 L 618.0,254.0 L 673.0,253.0"/>
    <path d="M 466.0,169.0 L 487.0,180.0 L 508.0,206.0 L 507.0,411.0 L 497.0,570.0"/>
    <path d="M 329.0,356.0 L 343.0,389.0 L 318.0,428.0 L 241.0,506.0 L 183.0,541.0"/>
    <path d="M 320.0,465.0 L 338.0,464.0 L 376.0,488.0 L 388.0,506.0"/>
    <path d="M 664.0,305.0 L 676.0,322.0 L 681.0,344.0 L 666.0,367.0 L 601.0,434.0 L 542.0,469.0"/>
    <path d="M 624.0,442.0 L 654.0,443.0 L 700.0,463.0 L 724.0,479.0 L 742.0,502.0"/>
    <path d="M 479.0,451.0 L 456.0,522.0 L 359.0,630.0 L 262.0,715.0 L 107.0,819.0"/>
    <path d="M 522.0,495.0 L 533.0,505.0 L 537.0,520.0 L 669.0,621.0 L 730.0,663.0 L 805.0,703.0 L 868.0,717.0 L 984.0,725.0"/>
    <path d="M 514.0,636.0 L 488.0,641.0 L 412.0,736.0 L 329.0,806.0 L 273.0,838.0"/>
    <path d="M 458.0,726.0 L 515.0,709.0 L 551.0,705.0 L 590.0,711.0 L 601.0,722.0 L 565.0,789.0 L 450.0,936.0 L 337.0,1038.0 L 246.0,1096.0"/>
    <path d="M 404.0,833.0 L 516.0,898.0 L 537.0,921.0 L 549.0,947.0"/>
  </g>
</svg>
