<svg xmlns="http://www.w3.org/2000/svg" viewBox="0 0 1024 1024">
  <g style="fill:none;stroke:#000000;stroke-width:50;stroke-linecap:round;stroke-linejoin:round;" transform="scale(1, 1) translate(0, 0)">
    <path d="M 207.0,382.0 L 227.0,386.0 L 275.0,381.0 L 398.0,345.0 L 439.0,343.0"/>
    <path d="M 280.0,202.0 L 304.0,218.0 L 322.0,241.0 L 308.0,577.0 L 312.0,663.0"/>
    <path d="M 179.0,427.0 L 195.0,451.0 L 181.0,484.0 L 141.0,542.0 L 105.0,572.0"/>
    <path d="M 204.0,500.0 L 234.0,536.0"/>
    <path d="M 409.0,406.0 L 424.0,426.0 L 417.0,444.0 L 385.0,492.0 L 362.0,518.0 L 351.0,520.0 L 348.0,529.0"/>
    <path d="M 437.0,473.0 L 437.0,479.0 L 461.0,496.0 L 476.0,516.0"/>
    <path d="M 287.0,521.0 L 275.0,556.0 L 203.0,626.0 L 136.0,678.0 L 52.0,726.0"/>
    <path d="M 331.0,561.0 L 346.0,575.0 L 363.0,578.0 L 410.0,604.0 L 434.0,633.0"/>
    <path d="M 275.0,699.0 L 252.0,706.0 L 202.0,776.0 L 138.0,837.0 L 122.0,841.0 L 120.0,847.0"/>
    <path d="M 262.0,738.0 L 346.0,713.0 L 385.0,718.0 L 398.0,737.0 L 347.0,830.0 L 309.0,884.0 L 260.0,937.0 L 219.0,970.0 L 165.0,1000.0 L 114.0,1020.0 L 80.0,1026.0"/>
    <path d="M 218.0,792.0 L 242.0,797.0 L 358.0,873.0 L 445.0,918.0 L 556.0,969.0 L 674.0,1009.0 L 715.0,1017.0 L 915.0,984.0"/>
    <path d="M 576.0,371.0 L 597.0,376.0 L 648.0,373.0 L 823.0,328.0 L 867.0,329.0"/>
    <path d="M 681.0,392.0 L 704.0,417.0 L 636.0,542.0 L 613.0,558.0"/>
    <path d="M 497.0,575.0 L 518.0,595.0 L 524.0,609.0 L 561.0,867.0"/>
    <path d="M 548.0,601.0 L 559.0,589.0 L 595.0,579.0 L 763.0,548.0 L 846.0,541.0 L 877.0,558.0 L 891.0,586.0 L 865.0,757.0 L 851.0,817.0 L 835.0,845.0 L 835.0,879.0"/>
    <path d="M 608.0,592.0 L 627.0,609.0 L 634.0,633.0 L 643.0,789.0 L 630.0,805.0"/>
    <path d="M 737.0,572.0 L 758.0,584.0 L 766.0,607.0 L 762.0,753.0 L 759.0,778.0 L 745.0,791.0"/>
    <path d="M 663.0,664.0 L 671.0,654.0 L 695.0,649.0 L 723.0,646.0 L 739.0,654.0"/>
    <path d="M 664.0,745.0 L 672.0,734.0 L 706.0,727.0 L 720.0,726.0 L 734.0,735.0"/>
    <path d="M 582.0,847.0 L 591.0,839.0 L 669.0,827.0 L 758.0,817.0 L 813.0,818.0"/>
  </g>
</svg>
