<svg xmlns="http://www.w3.org/2000/svg" viewBox="0 0 1024 1024">
  <g style="fill:none;stroke:#000000;stroke-width:50;stroke-linecap:round;stroke-linejoin:round;" transform="scale(1, 1) translate(0, 0)">
    <path d="M 455.0,176.0 L 538.0,218.0 L 567.0,247.0"/>
    <path d="M 320.0,349.0 L 355.0,361.0 L 405.0,358.0 L 718.0,298.0 L 769.0,298.0"/>
    <path d="M 244.0,323.0 L 279.0,361.0 L 281.0,375.0 L 268.0,531.0 L 241.0,669.0 L 204.0,780.0 L 157.0,878.0 L 111.0,946.0 L 69.0,994.0"/>
    <path d="M 302.0,612.0 L 352.0,614.0 L 494.0,579.0 L 546.0,582.0"/>
    <path d="M 393.0,435.0 L 434.0,479.0 L 414.0,1020.0"/>
    <path d="M 404.0,628.0 L 396.0,634.0 L 382.0,703.0 L 342.0,782.0 L 298.0,854.0 L 216.0,959.0"/>
    <path d="M 449.0,675.0 L 503.0,716.0 L 514.0,733.0"/>
    <path d="M 562.0,559.0 L 628.0,560.0 L 783.0,521.0 L 837.0,523.0"/>
    <path d="M 643.0,385.0 L 669.0,406.0 L 688.0,433.0 L 685.0,822.0 L 677.0,1042.0"/>
    <path d="M 658.0,579.0 L 641.0,665.0 L 617.0,714.0 L 563.0,802.0 L 488.0,894.0"/>
    <path d="M 710.0,615.0 L 727.0,670.0 L 771.0,745.0 L 804.0,796.0 L 854.0,855.0 L 979.0,900.0"/>
  </g>
</svg>
