<svg xmlns="http://www.w3.org/2000/svg" viewBox="0 0 1024 1024">
  <g style="fill:none;stroke:#000000;stroke-width:50;stroke-linecap:round;stroke-linejoin:round;" transform="scale(1, 1) translate(0, 0)">
    <path d="M 469.0,190.0 L 539.0,219.0 L 570.0,250.0"/>
    <path d="M 326.0,331.0 L 340.0,338.0 L 451.0,332.0 L 700.0,282.0 L 741.0,284.0"/>
    <path d="M 252.0,304.0 L 275.0,322.0 L 290.0,348.0 L 276.0,520.0 L 250.0,659.0 L 218.0,759.0 L 178.0,848.0 L 133.0,924.0 L 72.0,999.0"/>
    <path d="M 331.0,492.0 L 378.0,496.0 L 479.0,471.0 L 524.0,469.0"/>
    <path d="M 426.0,383.0 L 451.0,411.0 L 438.0,628.0 L 444.0,661.0"/>
    <path d="M 425.0,511.0 L 417.0,516.0 L 411.0,542.0 L 390.0,572.0 L 301.0,664.0"/>
    <path d="M 466.0,528.0 L 503.0,569.0"/>
    <path d="M 559.0,466.0 L 614.0,470.0 L 731.0,438.0 L 789.0,434.0"/>
    <path d="M 642.0,349.0 L 669.0,379.0 L 662.0,529.0 L 667.0,637.0"/>
    <path d="M 642.0,487.0 L 608.0,544.0 L 533.0,624.0"/>
    <path d="M 684.0,478.0 L 695.0,506.0 L 790.0,610.0 L 849.0,630.0 L 886.0,633.0"/>
    <path d="M 634.0,673.0 L 576.0,663.0 L 511.0,698.0 L 411.0,733.0 L 397.0,732.0 L 389.0,739.0"/>
    <path d="M 365.0,797.0 L 392.0,802.0 L 449.0,799.0 L 614.0,760.0 L 679.0,755.0"/>
    <path d="M 264.0,904.0 L 309.0,911.0 L 428.0,888.0 L 730.0,847.0 L 801.0,862.0"/>
    <path d="M 471.0,733.0 L 499.0,748.0 L 508.0,763.0 L 497.0,893.0 L 506.0,972.0 L 523.0,1000.0 L 566.0,1024.0 L 646.0,1035.0 L 741.0,1033.0 L 804.0,1023.0 L 852.0,1008.0 L 876.0,992.0 L 880.0,845.0"/>
  </g>
</svg>
