<svg xmlns="http://www.w3.org/2000/svg" viewBox="0 0 1024 1024">
  <g style="fill:none;stroke:#000000;stroke-width:50;stroke-linecap:round;stroke-linejoin:round;" transform="scale(1, 1) translate(0, 0)">
    <path d="M 467.0,165.0 L 542.0,207.0 L 566.0,242.0"/>
    <path d="M 303.0,318.0 L 332.0,327.0 L 453.0,318.0 L 659.0,277.0 L 735.0,265.0 L 763.0,267.0"/>
    <path d="M 227.0,292.0 L 268.0,338.0 L 253.0,515.0 L 228.0,669.0 L 198.0,765.0 L 165.0,842.0 L 103.0,948.0 L 52.0,1010.0"/>
    <path d="M 319.0,470.0 L 349.0,474.0 L 398.0,469.0 L 468.0,448.0 L 521.0,446.0"/>
    <path d="M 404.0,366.0 L 422.0,381.0 L 431.0,400.0 L 424.0,696.0"/>
    <path d="M 345.0,517.0 L 363.0,552.0 L 347.0,605.0 L 318.0,662.0 L 280.0,698.0"/>
    <path d="M 483.0,507.0 L 502.0,528.0 L 502.0,638.0"/>
    <path d="M 560.0,447.0 L 583.0,453.0 L 623.0,451.0 L 732.0,423.0 L 804.0,417.0"/>
    <path d="M 647.0,327.0 L 677.0,361.0 L 671.0,668.0"/>
    <path d="M 588.0,500.0 L 606.0,523.0 L 596.0,552.0 L 563.0,615.0 L 538.0,644.0"/>
    <path d="M 743.0,472.0 L 762.0,494.0 L 765.0,508.0 L 759.0,551.0 L 763.0,618.0 L 777.0,642.0 L 796.0,652.0 L 852.0,652.0 L 883.0,636.0 L 886.0,536.0"/>
    <path d="M 489.0,680.0 L 502.0,708.0 L 502.0,729.0 L 403.0,825.0 L 392.0,850.0 L 441.0,861.0 L 511.0,858.0 L 534.0,847.0"/>
    <path d="M 636.0,727.0 L 646.0,750.0 L 646.0,773.0 L 555.0,862.0 L 435.0,964.0 L 423.0,998.0 L 451.0,1005.0 L 649.0,963.0 L 663.0,961.0 L 672.0,969.0"/>
    <path d="M 648.0,891.0 L 730.0,977.0 L 748.0,1027.0 L 748.0,1053.0"/>
  </g>
</svg>
