<svg xmlns="http://www.w3.org/2000/svg" viewBox="0 0 1024 1024">
  <g style="fill:none;stroke:#000000;stroke-width:50;stroke-linecap:round;stroke-linejoin:round;" transform="scale(1, 1) translate(0, 0)">
    <path d="M 264.0,380.0 L 316.0,391.0 L 698.0,337.0 L 739.0,338.0 L 763.0,345.0"/>
    <path d="M 358.0,252.0 L 400.0,293.0 L 402.0,302.0 L 422.0,501.0 L 409.0,518.0"/>
    <path d="M 601.0,205.0 L 621.0,224.0 L 637.0,252.0 L 591.0,484.0 L 571.0,503.0"/>
    <path d="M 107.0,570.0 L 164.0,581.0 L 440.0,542.0 L 822.0,509.0 L 876.0,516.0 L 916.0,532.0"/>
    <path d="M 274.0,646.0 L 306.0,673.0 L 359.0,889.0"/>
    <path d="M 334.0,652.0 L 350.0,662.0 L 629.0,621.0 L 686.0,627.0 L 717.0,665.0 L 693.0,725.0 L 651.0,868.0"/>
    <path d="M 396.0,753.0 L 551.0,731.0 L 603.0,736.0"/>
    <path d="M 468.0,565.0 L 494.0,580.0 L 504.0,606.0 L 501.0,816.0 L 485.0,837.0"/>
    <path d="M 378.0,880.0 L 397.0,870.0 L 608.0,845.0 L 627.0,838.0"/>
    <path d="M 439.0,950.0 L 401.0,950.0 L 359.0,988.0 L 297.0,1029.0 L 200.0,1069.0"/>
    <path d="M 598.0,923.0 L 715.0,998.0 L 747.0,1034.0 L 761.0,1066.0"/>
  </g>
</svg>
