<svg xmlns="http://www.w3.org/2000/svg" viewBox="0 0 1024 1024">
  <g style="fill:none;stroke:#000000;stroke-width:50;stroke-linecap:round;stroke-linejoin:round;" transform="scale(1, 1) translate(0, 0)">
    <path d="M 470.0,247.0 L 409.0,239.0 L 327.0,288.0 L 276.0,310.0 L 265.0,309.0 L 260.0,316.0 L 238.0,316.0 L 228.0,326.0"/>
    <path d="M 152.0,423.0 L 210.0,428.0 L 382.0,388.0 L 449.0,378.0 L 471.0,382.0"/>
    <path d="M 334.0,309.0 L 357.0,320.0 L 367.0,333.0 L 355.0,534.0 L 359.0,574.0"/>
    <path d="M 338.0,422.0 L 249.0,529.0 L 160.0,584.0"/>
    <path d="M 382.0,450.0 L 428.0,470.0 L 447.0,494.0"/>
    <path d="M 586.0,211.0 L 596.0,218.0 L 611.0,246.0 L 554.0,348.0 L 504.0,401.0"/>
    <path d="M 595.0,331.0 L 746.0,300.0 L 772.0,300.0 L 792.0,322.0 L 767.0,429.0 L 730.0,509.0 L 696.0,537.0 L 649.0,509.0"/>
    <path d="M 616.0,344.0 L 631.0,358.0 L 637.0,384.0 L 597.0,451.0 L 543.0,506.0"/>
    <path d="M 522.0,532.0 L 491.0,533.0 L 370.0,651.0 L 271.0,719.0 L 190.0,765.0 L 108.0,797.0"/>
    <path d="M 522.0,562.0 L 534.0,561.0 L 678.0,662.0 L 787.0,722.0 L 835.0,729.0 L 976.0,729.0"/>
    <path d="M 471.0,670.0 L 496.0,692.0 L 511.0,715.0 L 511.0,934.0 L 506.0,978.0 L 492.0,1007.0 L 457.0,1000.0 L 382.0,970.0"/>
    <path d="M 338.0,741.0 L 393.0,783.0 L 406.0,802.0"/>
    <path d="M 231.0,943.0 L 282.0,947.0 L 439.0,843.0"/>
    <path d="M 632.0,707.0 L 644.0,736.0 L 565.0,799.0"/>
    <path d="M 583.0,858.0 L 717.0,936.0 L 742.0,959.0 L 765.0,1001.0"/>
  </g>
</svg>
