<svg xmlns="http://www.w3.org/2000/svg" viewBox="0 0 1024 1024">
  <g style="fill:none;stroke:#000000;stroke-width:50;stroke-linecap:round;stroke-linejoin:round;" transform="scale(1, 1) translate(0, 0)">
    <path d="M 112.0,284.0 L 137.0,306.0 L 146.0,324.0 L 196.0,526.0"/>
    <path d="M 166.0,286.0 L 178.0,297.0 L 419.0,253.0 L 453.0,253.0 L 475.0,262.0 L 494.0,285.0 L 452.0,441.0 L 436.0,474.0 L 406.0,463.0"/>
    <path d="M 220.0,370.0 L 244.0,397.0 L 255.0,421.0"/>
    <path d="M 391.0,327.0 L 401.0,341.0 L 355.0,411.0"/>
    <path d="M 215.0,507.0 L 221.0,498.0 L 373.0,465.0 L 389.0,467.0 L 397.0,476.0"/>
    <path d="M 283.0,292.0 L 309.0,311.0 L 312.0,343.0 L 310.0,663.0 L 295.0,688.0"/>
    <path d="M 204.0,603.0 L 259.0,606.0 L 363.0,581.0 L 407.0,583.0"/>
    <path d="M 138.0,736.0 L 185.0,752.0 L 364.0,693.0 L 421.0,666.0"/>
    <path d="M 109.0,819.0 L 94.0,884.0 L 64.0,960.0"/>
    <path d="M 193.0,815.0 L 227.0,867.0 L 234.0,890.0"/>
    <path d="M 285.0,782.0 L 334.0,851.0"/>
    <path d="M 381.0,754.0 L 420.0,791.0 L 433.0,815.0"/>
    <path d="M 637.0,212.0 L 655.0,223.0 L 678.0,252.0 L 661.0,311.0 L 572.0,504.0 L 502.0,620.0 L 454.0,677.0"/>
    <path d="M 670.0,369.0 L 671.0,386.0 L 747.0,478.0 L 837.0,568.0 L 868.0,583.0 L 986.0,608.0"/>
    <path d="M 592.0,569.0 L 654.0,608.0 L 679.0,644.0"/>
    <path d="M 503.0,758.0 L 558.0,770.0 L 735.0,714.0 L 759.0,719.0 L 776.0,737.0 L 697.0,911.0 L 658.0,971.0 L 642.0,1024.0"/>
  </g>
</svg>
