<svg xmlns="http://www.w3.org/2000/svg" viewBox="0 0 1024 1024">
  <g style="fill:none;stroke:#000000;stroke-width:50;stroke-linecap:round;stroke-linejoin:round;" transform="scale(1, 1) translate(0, 0)">
    <path d="M 86.0,277.0 L 111.0,297.0 L 118.0,312.0 L 172.0,516.0"/>
    <path d="M 139.0,282.0 L 155.0,290.0 L 370.0,250.0 L 418.0,254.0 L 444.0,284.0 L 379.0,488.0"/>
    <path d="M 185.0,361.0 L 222.0,415.0"/>
    <path d="M 346.0,327.0 L 358.0,341.0 L 319.0,403.0"/>
    <path d="M 186.0,507.0 L 207.0,495.0 L 360.0,461.0"/>
    <path d="M 252.0,289.0 L 276.0,308.0 L 279.0,336.0 L 270.0,649.0 L 255.0,671.0"/>
    <path d="M 163.0,598.0 L 211.0,601.0 L 346.0,574.0 L 373.0,579.0"/>
    <path d="M 102.0,713.0 L 144.0,728.0 L 394.0,653.0"/>
    <path d="M 109.0,808.0 L 100.0,883.0 L 78.0,954.0"/>
    <path d="M 187.0,801.0 L 209.0,850.0 L 213.0,874.0"/>
    <path d="M 274.0,783.0 L 306.0,829.0 L 311.0,851.0"/>
    <path d="M 353.0,757.0 L 390.0,800.0 L 397.0,817.0"/>
    <path d="M 507.0,342.0 L 527.0,363.0 L 532.0,387.0 L 445.0,555.0 L 440.0,577.0 L 491.0,576.0 L 540.0,559.0"/>
    <path d="M 592.0,450.0 L 611.0,482.0 L 549.0,586.0 L 471.0,700.0 L 469.0,730.0 L 492.0,733.0 L 553.0,709.0 L 578.0,702.0 L 584.0,706.0"/>
    <path d="M 576.0,643.0 L 615.0,700.0 L 624.0,736.0"/>
    <path d="M 649.0,528.0 L 684.0,535.0 L 852.0,497.0 L 873.0,501.0 L 889.0,518.0 L 853.0,777.0 L 814.0,900.0 L 793.0,933.0 L 767.0,952.0 L 693.0,905.0"/>
    <path d="M 757.0,234.0 L 793.0,276.0 L 792.0,292.0 L 766.0,480.0 L 727.0,643.0 L 679.0,767.0 L 634.0,853.0 L 578.0,939.0 L 501.0,1026.0"/>
  </g>
</svg>
