<svg xmlns="http://www.w3.org/2000/svg" viewBox="0 0 1024 1024">
  <g style="fill:none;stroke:#000000;stroke-width:50;stroke-linecap:round;stroke-linejoin:round;" transform="scale(1, 1) translate(0, 0)">
    <path d="M 120.0,328.0 L 153.0,366.0 L 204.0,574.0"/>
    <path d="M 170.0,332.0 L 187.0,341.0 L 420.0,303.0 L 457.0,303.0 L 483.0,312.0 L 502.0,335.0 L 471.0,464.0 L 447.0,531.0 L 451.0,549.0"/>
    <path d="M 226.0,411.0 L 258.0,465.0"/>
    <path d="M 398.0,373.0 L 408.0,389.0 L 363.0,451.0"/>
    <path d="M 220.0,556.0 L 229.0,549.0 L 413.0,517.0"/>
    <path d="M 294.0,339.0 L 320.0,361.0 L 322.0,393.0 L 314.0,713.0 L 299.0,735.0"/>
    <path d="M 202.0,651.0 L 271.0,657.0 L 394.0,636.0 L 435.0,638.0"/>
    <path d="M 140.0,776.0 L 183.0,793.0 L 376.0,742.0 L 465.0,711.0"/>
    <path d="M 160.0,875.0 L 138.0,958.0 L 116.0,995.0 L 109.0,1022.0"/>
    <path d="M 242.0,865.0 L 272.0,934.0 L 270.0,960.0"/>
    <path d="M 332.0,843.0 L 372.0,903.0 L 376.0,925.0"/>
    <path d="M 422.0,815.0 L 453.0,848.0 L 468.0,877.0"/>
    <path d="M 511.0,546.0 L 538.0,554.0 L 570.0,553.0 L 848.0,505.0 L 910.0,511.0"/>
    <path d="M 651.0,233.0 L 701.0,274.0 L 690.0,631.0 L 672.0,655.0"/>
    <path d="M 548.0,689.0 L 583.0,696.0 L 808.0,663.0 L 874.0,675.0"/>
    <path d="M 540.0,810.0 L 575.0,850.0 L 612.0,1001.0"/>
    <path d="M 576.0,808.0 L 604.0,821.0 L 770.0,789.0 L 807.0,796.0 L 834.0,824.0 L 807.0,903.0 L 775.0,931.0"/>
    <path d="M 629.0,978.0 L 644.0,968.0 L 774.0,954.0 L 834.0,961.0"/>
  </g>
</svg>
