<svg xmlns="http://www.w3.org/2000/svg" viewBox="0 0 1024 1024">
  <g style="fill:none;stroke:#000000;stroke-width:50;stroke-linecap:round;stroke-linejoin:round;" transform="scale(1, 1) translate(0, 0)">
    <path d="M 129.0,343.0 L 154.0,365.0 L 161.0,385.0 L 200.0,583.0"/>
    <path d="M 183.0,353.0 L 205.0,357.0 L 397.0,317.0 L 437.0,315.0 L 458.0,325.0 L 477.0,352.0 L 460.0,391.0 L 418.0,549.0"/>
    <path d="M 217.0,433.0 L 248.0,465.0 L 257.0,487.0"/>
    <path d="M 382.0,400.0 L 391.0,417.0 L 343.0,479.0"/>
    <path d="M 214.0,572.0 L 224.0,564.0 L 367.0,535.0 L 388.0,534.0 L 394.0,542.0"/>
    <path d="M 280.0,359.0 L 306.0,374.0 L 309.0,412.0 L 302.0,705.0 L 288.0,724.0"/>
    <path d="M 192.0,657.0 L 253.0,658.0 L 329.0,640.0 L 362.0,625.0 L 416.0,624.0"/>
    <path d="M 131.0,762.0 L 176.0,779.0 L 399.0,723.0 L 442.0,706.0"/>
    <path d="M 148.0,860.0 L 141.0,918.0 L 111.0,1011.0"/>
    <path d="M 227.0,861.0 L 254.0,917.0 L 261.0,946.0"/>
    <path d="M 320.0,841.0 L 344.0,879.0 L 356.0,912.0"/>
    <path d="M 402.0,809.0 L 434.0,838.0 L 453.0,867.0 L 456.0,883.0"/>
    <path d="M 654.0,203.0 L 667.0,222.0 L 673.0,248.0 L 642.0,303.0 L 580.0,379.0 L 512.0,434.0"/>
    <path d="M 650.0,338.0 L 691.0,334.0 L 745.0,314.0 L 784.0,317.0 L 795.0,330.0 L 736.0,447.0 L 697.0,501.0 L 659.0,541.0 L 578.0,602.0 L 527.0,627.0 L 468.0,642.0"/>
    <path d="M 588.0,405.0 L 638.0,451.0 L 646.0,476.0"/>
    <path d="M 719.0,536.0 L 737.0,570.0 L 698.0,632.0 L 610.0,724.0 L 523.0,777.0"/>
    <path d="M 727.0,643.0 L 850.0,628.0 L 875.0,636.0 L 887.0,655.0 L 806.0,791.0 L 755.0,857.0 L 695.0,917.0 L 637.0,963.0 L 555.0,1012.0 L 489.0,1038.0 L 429.0,1050.0"/>
    <path d="M 634.0,730.0 L 653.0,742.0 L 695.0,790.0 L 707.0,823.0"/>
  </g>
</svg>
