<svg xmlns="http://www.w3.org/2000/svg" viewBox="0 0 1024 1024">
  <g style="fill:none;stroke:#000000;stroke-width:50;stroke-linecap:round;stroke-linejoin:round;" transform="scale(1, 1) translate(0, 0)">
    <path d="M 135.0,331.0 L 169.0,375.0 L 204.0,563.0"/>
    <path d="M 160.0,331.0 L 170.0,328.0 L 192.0,336.0 L 279.0,316.0 L 418.0,295.0 L 448.0,303.0 L 470.0,328.0 L 421.0,507.0 L 423.0,529.0"/>
    <path d="M 227.0,417.0 L 259.0,462.0"/>
    <path d="M 378.0,366.0 L 392.0,382.0 L 349.0,446.0"/>
    <path d="M 221.0,531.0 L 261.0,532.0 L 362.0,507.0 L 373.0,506.0 L 384.0,516.0"/>
    <path d="M 283.0,337.0 L 308.0,349.0 L 315.0,388.0 L 310.0,669.0 L 296.0,690.0"/>
    <path d="M 200.0,626.0 L 244.0,632.0 L 366.0,607.0 L 411.0,606.0"/>
    <path d="M 140.0,730.0 L 180.0,745.0 L 442.0,673.0"/>
    <path d="M 138.0,823.0 L 130.0,893.0 L 110.0,962.0"/>
    <path d="M 211.0,821.0 L 247.0,881.0 L 251.0,901.0"/>
    <path d="M 309.0,791.0 L 334.0,817.0 L 358.0,855.0"/>
    <path d="M 405.0,759.0 L 450.0,803.0 L 458.0,828.0"/>
    <path d="M 643.0,213.0 L 708.0,248.0 L 737.0,283.0"/>
    <path d="M 561.0,399.0 L 584.0,406.0 L 621.0,406.0 L 805.0,367.0 L 848.0,368.0"/>
    <path d="M 578.0,479.0 L 613.0,519.0 L 623.0,549.0"/>
    <path d="M 754.0,425.0 L 775.0,460.0 L 738.0,553.0 L 709.0,589.0"/>
    <path d="M 468.0,633.0 L 505.0,641.0 L 895.0,585.0 L 962.0,601.0"/>
    <path d="M 537.0,718.0 L 562.0,745.0 L 567.0,763.0 L 571.0,876.0 L 560.0,969.0 L 564.0,1018.0"/>
    <path d="M 588.0,728.0 L 599.0,736.0 L 619.0,733.0 L 775.0,698.0 L 801.0,714.0 L 814.0,731.0 L 815.0,959.0 L 803.0,989.0 L 748.0,973.0"/>
    <path d="M 600.0,858.0 L 607.0,847.0 L 700.0,834.0 L 732.0,839.0"/>
    <path d="M 594.0,978.0 L 605.0,965.0 L 727.0,953.0 L 757.0,959.0"/>
  </g>
</svg>
