<svg xmlns="http://www.w3.org/2000/svg" viewBox="0 0 1024 1024">
  <g style="fill:none;stroke:#000000;stroke-width:50;stroke-linecap:round;stroke-linejoin:round;" transform="scale(1, 1) translate(0, 0)">
    <path d="M 116.0,319.0 L 148.0,355.0 L 192.0,562.0"/>
    <path d="M 150.0,316.0 L 172.0,323.0 L 243.0,310.0 L 253.0,302.0 L 393.0,280.0 L 426.0,289.0 L 446.0,313.0 L 445.0,322.0 L 392.0,515.0 L 395.0,529.0"/>
    <path d="M 209.0,405.0 L 237.0,437.0 L 242.0,452.0"/>
    <path d="M 354.0,371.0 L 365.0,385.0 L 331.0,439.0"/>
    <path d="M 207.0,540.0 L 349.0,507.0 L 362.0,498.0"/>
    <path d="M 263.0,323.0 L 286.0,333.0 L 294.0,356.0 L 290.0,656.0 L 288.0,680.0 L 275.0,696.0"/>
    <path d="M 179.0,630.0 L 234.0,631.0 L 337.0,605.0 L 389.0,602.0"/>
    <path d="M 124.0,749.0 L 166.0,759.0 L 359.0,695.0 L 417.0,666.0"/>
    <path d="M 134.0,832.0 L 131.0,888.0 L 109.0,979.0"/>
    <path d="M 212.0,836.0 L 240.0,887.0 L 242.0,907.0"/>
    <path d="M 284.0,798.0 L 314.0,842.0 L 322.0,870.0"/>
    <path d="M 358.0,766.0 L 405.0,812.0 L 413.0,835.0"/>
    <path d="M 610.0,225.0 L 631.0,254.0 L 595.0,325.0 L 558.0,380.0 L 544.0,391.0 L 535.0,427.0 L 571.0,426.0 L 722.0,389.0 L 733.0,395.0"/>
    <path d="M 707.0,337.0 L 759.0,379.0 L 778.0,414.0"/>
    <path d="M 447.0,552.0 L 502.0,554.0 L 636.0,523.0 L 797.0,495.0 L 873.0,505.0"/>
    <path d="M 591.0,438.0 L 612.0,463.0 L 555.0,591.0 L 497.0,674.0 L 452.0,716.0 L 415.0,739.0"/>
    <path d="M 674.0,547.0 L 690.0,547.0 L 783.0,655.0 L 852.0,712.0 L 972.0,732.0"/>
    <path d="M 608.0,625.0 L 624.0,650.0 L 608.0,682.0 L 549.0,746.0 L 511.0,773.0 L 497.0,774.0 L 494.0,782.0"/>
    <path d="M 662.0,700.0 L 679.0,728.0 L 644.0,783.0 L 555.0,869.0 L 516.0,894.0 L 501.0,895.0 L 498.0,902.0"/>
    <path d="M 721.0,787.0 L 741.0,824.0 L 671.0,922.0 L 585.0,1006.0 L 488.0,1065.0"/>
  </g>
</svg>
