<svg xmlns="http://www.w3.org/2000/svg" viewBox="0 0 1024 1024">
  <g style="fill:none;stroke:#000000;stroke-width:50;stroke-linecap:round;stroke-linejoin:round;" transform="scale(1, 1) translate(0, 0)">
    <path d="M 302.0,227.0 L 335.0,249.0 L 345.0,268.0 L 397.0,437.0"/>
    <path d="M 359.0,228.0 L 381.0,237.0 L 620.0,198.0 L 648.0,199.0 L 669.0,211.0 L 687.0,244.0 L 642.0,371.0 L 624.0,403.0 L 626.0,432.0"/>
    <path d="M 399.0,335.0 L 424.0,323.0 L 517.0,307.0 L 569.0,310.0"/>
    <path d="M 418.0,422.0 L 426.0,410.0 L 569.0,392.0 L 586.0,384.0"/>
    <path d="M 107.0,542.0 L 156.0,552.0 L 448.0,509.0 L 855.0,473.0 L 935.0,495.0"/>
    <path d="M 246.0,639.0 L 280.0,675.0 L 312.0,783.0"/>
    <path d="M 285.0,638.0 L 309.0,647.0 L 448.0,621.0 L 687.0,592.0 L 713.0,599.0 L 731.0,626.0 L 705.0,686.0 L 683.0,695.0"/>
    <path d="M 324.0,758.0 L 355.0,743.0 L 410.0,737.0 L 419.0,731.0"/>
    <path d="M 580.0,743.0 L 591.0,734.0 L 612.0,730.0 L 674.0,722.0 L 724.0,724.0"/>
    <path d="M 526.0,628.0 L 558.0,651.0 L 559.0,663.0 L 554.0,1000.0"/>
    <path d="M 413.0,647.0 L 431.0,657.0 L 448.0,684.0 L 447.0,884.0 L 458.0,971.0 L 476.0,1008.0 L 516.0,1043.0 L 572.0,1060.0 L 670.0,1063.0 L 768.0,1054.0 L 834.0,1040.0 L 871.0,1021.0 L 875.0,1010.0 L 882.0,893.0"/>
    <path d="M 282.0,845.0 L 288.0,834.0 L 382.0,813.0 L 407.0,812.0 L 416.0,821.0"/>
    <path d="M 224.0,816.0 L 252.0,845.0 L 285.0,1006.0"/>
    <path d="M 288.0,913.0 L 298.0,903.0 L 361.0,889.0 L 399.0,891.0"/>
    <path d="M 300.0,979.0 L 308.0,972.0 L 397.0,956.0 L 416.0,954.0 L 432.0,961.0"/>
    <path d="M 575.0,816.0 L 586.0,808.0 L 624.0,805.0 L 631.0,799.0 L 695.0,787.0 L 722.0,788.0 L 736.0,799.0 L 745.0,815.0 L 706.0,955.0"/>
    <path d="M 583.0,877.0 L 588.0,867.0 L 622.0,861.0 L 668.0,865.0"/>
    <path d="M 575.0,957.0 L 583.0,950.0 L 673.0,939.0 L 684.0,933.0"/>
  </g>
</svg>
