<svg xmlns="http://www.w3.org/2000/svg" viewBox="0 0 1024 1024">
  <g style="fill:none;stroke:#000000;stroke-width:50;stroke-linecap:round;stroke-linejoin:round;" transform="scale(1, 1) translate(0, 0)">
    <path d="M 290.0,286.0 L 320.0,311.0 L 356.0,478.0"/>
    <path d="M 351.0,290.0 L 363.0,301.0 L 388.0,299.0 L 591.0,263.0 L 611.0,266.0 L 649.0,299.0 L 621.0,368.0 L 595.0,383.0"/>
    <path d="M 374.0,452.0 L 390.0,439.0 L 575.0,411.0 L 645.0,420.0"/>
    <path d="M 226.0,558.0 L 254.0,580.0 L 261.0,597.0 L 312.0,838.0"/>
    <path d="M 285.0,563.0 L 308.0,574.0 L 449.0,548.0 L 663.0,519.0 L 706.0,521.0 L 733.0,531.0 L 755.0,560.0 L 705.0,734.0 L 681.0,791.0 L 684.0,813.0"/>
    <path d="M 362.0,684.0 L 392.0,685.0 L 573.0,654.0 L 618.0,661.0"/>
    <path d="M 331.0,824.0 L 351.0,814.0 L 630.0,777.0 L 650.0,769.0"/>
    <path d="M 465.0,448.0 L 485.0,466.0 L 492.0,481.0 L 498.0,528.0 L 487.0,775.0 L 490.0,862.0 L 502.0,906.0 L 528.0,941.0 L 570.0,964.0 L 635.0,979.0 L 753.0,980.0 L 834.0,964.0 L 892.0,931.0 L 895.0,788.0"/>
  </g>
</svg>
