<svg xmlns="http://www.w3.org/2000/svg" viewBox="0 0 1024 1024">
  <g style="fill:none;stroke:#000000;stroke-width:50;stroke-linecap:round;stroke-linejoin:round;" transform="scale(1, 1) translate(0, 0)">
    <path d="M 260.0,217.0 L 288.0,241.0 L 312.0,332.0"/>
    <path d="M 311.0,234.0 L 336.0,219.0 L 423.0,199.0 L 443.0,219.0 L 428.0,260.0 L 414.0,271.0"/>
    <path d="M 328.0,318.0 L 342.0,308.0 L 411.0,292.0 L 454.0,296.0"/>
    <path d="M 511.0,183.0 L 537.0,208.0 L 557.0,306.0"/>
    <path d="M 564.0,204.0 L 570.0,197.0 L 653.0,178.0 L 686.0,180.0 L 702.0,198.0 L 687.0,234.0 L 668.0,248.0"/>
    <path d="M 573.0,288.0 L 589.0,280.0 L 655.0,269.0 L 708.0,275.0"/>
    <path d="M 300.0,372.0 L 327.0,393.0 L 339.0,417.0 L 368.0,538.0"/>
    <path d="M 353.0,378.0 L 371.0,383.0 L 592.0,340.0 L 652.0,344.0 L 674.0,372.0 L 626.0,510.0"/>
    <path d="M 415.0,448.0 L 552.0,423.0 L 589.0,427.0"/>
    <path d="M 506.0,376.0 L 491.0,394.0 L 492.0,469.0 L 477.0,491.0"/>
    <path d="M 385.0,530.0 L 391.0,523.0 L 607.0,489.0"/>
    <path d="M 84.0,611.0 L 143.0,627.0 L 258.0,603.0 L 464.0,572.0 L 835.0,535.0 L 919.0,560.0"/>
    <path d="M 257.0,654.0 L 280.0,668.0 L 294.0,697.0 L 316.0,776.0"/>
    <path d="M 304.0,658.0 L 346.0,659.0 L 637.0,616.0 L 664.0,618.0 L 686.0,645.0 L 664.0,680.0 L 640.0,691.0"/>
    <path d="M 328.0,762.0 L 380.0,743.0 L 401.0,750.0"/>
    <path d="M 547.0,735.0 L 582.0,721.0 L 638.0,714.0 L 681.0,719.0"/>
    <path d="M 495.0,653.0 L 524.0,671.0 L 520.0,989.0"/>
    <path d="M 405.0,668.0 L 434.0,691.0 L 427.0,878.0 L 436.0,976.0 L 451.0,1010.0 L 478.0,1037.0 L 502.0,1050.0 L 557.0,1065.0 L 618.0,1070.0 L 727.0,1065.0 L 787.0,1057.0 L 825.0,1045.0 L 850.0,1029.0 L 859.0,888.0"/>
    <path d="M 274.0,848.0 L 278.0,839.0 L 392.0,817.0 L 404.0,807.0"/>
    <path d="M 213.0,827.0 L 242.0,855.0 L 276.0,1003.0"/>
    <path d="M 285.0,916.0 L 289.0,908.0 L 332.0,897.0 L 361.0,894.0 L 377.0,899.0"/>
    <path d="M 295.0,983.0 L 301.0,972.0 L 358.0,961.0 L 398.0,957.0 L 408.0,964.0"/>
    <path d="M 542.0,810.0 L 565.0,798.0 L 614.0,794.0 L 639.0,784.0 L 695.0,780.0 L 704.0,786.0 L 718.0,812.0 L 691.0,914.0 L 680.0,937.0 L 667.0,936.0"/>
    <path d="M 548.0,871.0 L 553.0,862.0 L 570.0,859.0 L 599.0,856.0 L 633.0,862.0"/>
    <path d="M 540.0,944.0 L 552.0,935.0 L 645.0,925.0 L 656.0,918.0"/>
  </g>
</svg>
