<svg xmlns="http://www.w3.org/2000/svg" viewBox="0 0 1024 1024">
  <g style="fill:none;stroke:#000000;stroke-width:50;stroke-linecap:round;stroke-linejoin:round;" transform="scale(1, 1) translate(0, 0)">
    <path d="M 333.0,216.0 L 365.0,251.0 L 374.0,272.0 L 382.0,459.0 L 396.0,552.0"/>
    <path d="M 392.0,237.0 L 416.0,246.0 L 528.0,218.0 L 593.0,212.0 L 604.0,216.0 L 624.0,238.0 L 632.0,251.0 L 622.0,343.0 L 619.0,474.0 L 607.0,550.0"/>
    <path d="M 407.0,349.0 L 420.0,337.0 L 471.0,325.0 L 513.0,320.0 L 536.0,327.0"/>
    <path d="M 410.0,435.0 L 423.0,424.0 L 484.0,413.0 L 520.0,411.0 L 543.0,418.0"/>
    <path d="M 415.0,536.0 L 436.0,519.0 L 537.0,502.0 L 556.0,502.0 L 567.0,514.0"/>
    <path d="M 191.0,520.0 L 209.0,529.0 L 228.0,552.0 L 217.0,634.0 L 221.0,674.0 L 252.0,675.0 L 370.0,645.0 L 396.0,650.0 L 409.0,665.0 L 399.0,751.0 L 394.0,967.0 L 404.0,1027.0"/>
    <path d="M 144.0,815.0 L 183.0,823.0 L 223.0,818.0 L 354.0,787.0 L 369.0,770.0"/>
    <path d="M 235.0,850.0 L 254.0,864.0 L 258.0,877.0 L 230.0,934.0 L 176.0,1006.0 L 122.0,1054.0"/>
    <path d="M 763.0,447.0 L 783.0,499.0 L 745.0,576.0 L 717.0,591.0"/>
    <path d="M 607.0,636.0 L 628.0,646.0 L 715.0,626.0 L 757.0,625.0 L 779.0,632.0"/>
    <path d="M 547.0,622.0 L 576.0,651.0 L 583.0,675.0 L 586.0,858.0 L 574.0,989.0 L 584.0,1053.0"/>
    <path d="M 615.0,807.0 L 630.0,795.0 L 746.0,771.0 L 768.0,772.0 L 795.0,790.0 L 791.0,956.0 L 808.0,1020.0"/>
  </g>
</svg>
