<svg xmlns="http://www.w3.org/2000/svg" viewBox="0 0 1024 1024">
  <g style="fill:none;stroke:#000000;stroke-width:50;stroke-linecap:round;stroke-linejoin:round;" transform="scale(1, 1) translate(0, 0)">
    <path d="M 201.0,282.0 L 229.0,288.0 L 273.0,286.0 L 427.0,253.0 L 487.0,250.0"/>
    <path d="M 341.0,167.0 L 373.0,199.0 L 368.0,318.0 L 362.0,336.0 L 352.0,345.0"/>
    <path d="M 265.0,381.0 L 304.0,379.0 L 423.0,350.0 L 459.0,354.0"/>
    <path d="M 233.0,448.0 L 258.0,473.0 L 281.0,568.0"/>
    <path d="M 266.0,444.0 L 278.0,451.0 L 406.0,416.0 L 427.0,435.0 L 413.0,481.0 L 398.0,491.0"/>
    <path d="M 294.0,546.0 L 308.0,537.0 L 394.0,513.0 L 434.0,516.0"/>
    <path d="M 235.0,577.0 L 277.0,623.0"/>
    <path d="M 383.0,535.0 L 394.0,545.0 L 399.0,563.0 L 381.0,608.0 L 368.0,613.0"/>
    <path d="M 145.0,692.0 L 177.0,703.0 L 194.0,702.0 L 360.0,641.0 L 414.0,615.0"/>
    <path d="M 535.0,326.0 L 589.0,326.0 L 731.0,282.0 L 777.0,279.0"/>
    <path d="M 614.0,173.0 L 651.0,208.0 L 641.0,377.0 L 627.0,396.0"/>
    <path d="M 540.0,432.0 L 598.0,427.0 L 692.0,392.0 L 731.0,403.0 L 703.0,474.0 L 661.0,529.0 L 619.0,558.0 L 584.0,572.0 L 511.0,589.0"/>
    <path d="M 526.0,503.0 L 604.0,521.0 L 740.0,564.0 L 799.0,592.0 L 826.0,622.0"/>
    <path d="M 481.0,623.0 L 457.0,627.0 L 379.0,706.0 L 295.0,754.0"/>
    <path d="M 458.0,662.0 L 566.0,643.0 L 588.0,647.0 L 606.0,664.0 L 563.0,726.0 L 510.0,782.0 L 400.0,868.0 L 336.0,903.0 L 276.0,927.0 L 209.0,944.0 L 152.0,947.0"/>
    <path d="M 420.0,697.0 L 572.0,800.0 L 745.0,885.0 L 802.0,901.0 L 954.0,893.0"/>
    <path d="M 489.0,872.0 L 554.0,900.0 L 582.0,929.0"/>
    <path d="M 453.0,975.0 L 562.0,1045.0 L 594.0,1089.0"/>
  </g>
</svg>
