<svg xmlns="http://www.w3.org/2000/svg" viewBox="0 0 1024 1024">
  <g style="fill:none;stroke:#000000;stroke-width:50;stroke-linecap:round;stroke-linejoin:round;" transform="scale(1, 1) translate(0, 0)">
    <path d="M 204.0,276.0 L 265.0,282.0 L 394.0,262.0 L 452.0,246.0 L 487.0,249.0"/>
    <path d="M 335.0,183.0 L 366.0,212.0 L 362.0,300.0 L 348.0,317.0"/>
    <path d="M 239.0,350.0 L 277.0,355.0 L 413.0,324.0 L 465.0,327.0"/>
    <path d="M 225.0,405.0 L 252.0,431.0 L 272.0,508.0"/>
    <path d="M 263.0,404.0 L 274.0,411.0 L 404.0,382.0 L 425.0,386.0 L 443.0,405.0 L 429.0,436.0 L 415.0,445.0"/>
    <path d="M 285.0,496.0 L 303.0,485.0 L 406.0,466.0 L 449.0,472.0"/>
    <path d="M 240.0,521.0 L 288.0,569.0"/>
    <path d="M 396.0,489.0 L 408.0,504.0 L 387.0,545.0 L 375.0,552.0"/>
    <path d="M 152.0,606.0 L 193.0,621.0 L 404.0,566.0 L 478.0,537.0"/>
    <path d="M 512.0,298.0 L 538.0,303.0 L 598.0,300.0 L 740.0,266.0 L 783.0,267.0"/>
    <path d="M 601.0,179.0 L 633.0,211.0 L 628.0,342.0 L 622.0,362.0 L 613.0,370.0"/>
    <path d="M 531.0,399.0 L 588.0,395.0 L 672.0,372.0 L 698.0,378.0 L 712.0,391.0 L 682.0,471.0 L 631.0,525.0 L 567.0,550.0 L 505.0,561.0"/>
    <path d="M 534.0,437.0 L 582.0,461.0 L 681.0,546.0 L 767.0,599.0 L 836.0,606.0 L 915.0,605.0"/>
    <path d="M 466.0,593.0 L 441.0,591.0 L 411.0,630.0 L 395.0,634.0"/>
    <path d="M 284.0,652.0 L 313.0,677.0 L 348.0,810.0"/>
    <path d="M 339.0,657.0 L 349.0,666.0 L 361.0,665.0 L 419.0,656.0 L 444.0,646.0 L 489.0,646.0 L 594.0,628.0 L 651.0,634.0 L 671.0,662.0 L 627.0,775.0 L 628.0,798.0"/>
    <path d="M 397.0,725.0 L 431.0,725.0 L 528.0,705.0 L 564.0,709.0"/>
    <path d="M 362.0,803.0 L 380.0,795.0 L 598.0,763.0"/>
    <path d="M 450.0,663.0 L 473.0,686.0 L 450.0,766.0 L 422.0,816.0 L 374.0,868.0 L 357.0,875.0"/>
    <path d="M 146.0,907.0 L 198.0,919.0 L 353.0,898.0 L 774.0,865.0 L 829.0,869.0 L 883.0,886.0"/>
    <path d="M 498.0,817.0 L 529.0,848.0 L 523.0,1093.0"/>
  </g>
</svg>
