<svg xmlns="http://www.w3.org/2000/svg" viewBox="0 0 1024 1024">
  <g style="fill:none;stroke:#000000;stroke-width:50;stroke-linecap:round;stroke-linejoin:round;" transform="scale(1, 1) translate(0, 0)">
    <path d="M 156.0,414.0 L 207.0,419.0 L 323.0,395.0 L 466.0,352.0 L 509.0,356.0"/>
    <path d="M 313.0,245.0 L 350.0,281.0 L 339.0,468.0 L 323.0,487.0"/>
    <path d="M 218.0,524.0 L 255.0,528.0 L 388.0,497.0 L 446.0,498.0"/>
    <path d="M 178.0,623.0 L 201.0,638.0 L 215.0,657.0 L 243.0,758.0"/>
    <path d="M 217.0,620.0 L 249.0,626.0 L 385.0,594.0 L 419.0,595.0 L 443.0,621.0 L 428.0,653.0 L 399.0,674.0"/>
    <path d="M 258.0,738.0 L 274.0,725.0 L 389.0,698.0 L 452.0,698.0"/>
    <path d="M 216.0,799.0 L 246.0,830.0 L 259.0,854.0"/>
    <path d="M 401.0,744.0 L 418.0,779.0 L 390.0,840.0 L 377.0,855.0"/>
    <path d="M 120.0,936.0 L 175.0,954.0 L 509.0,839.0"/>
    <path d="M 535.0,492.0 L 593.0,494.0 L 687.0,469.0 L 786.0,431.0 L 848.0,428.0"/>
    <path d="M 623.0,205.0 L 670.0,246.0 L 652.0,583.0 L 630.0,615.0"/>
    <path d="M 524.0,649.0 L 589.0,648.0 L 688.0,616.0 L 724.0,619.0 L 743.0,629.0 L 704.0,761.0 L 668.0,834.0 L 637.0,877.0 L 592.0,920.0 L 530.0,959.0 L 462.0,983.0 L 427.0,987.0"/>
    <path d="M 523.0,719.0 L 569.0,743.0 L 690.0,877.0 L 781.0,951.0 L 831.0,976.0 L 970.0,988.0"/>
  </g>
</svg>
