<svg xmlns="http://www.w3.org/2000/svg" viewBox="0 0 1024 1024">
  <g style="fill:none;stroke:#000000;stroke-width:50;stroke-linecap:round;stroke-linejoin:round;" transform="scale(1, 1) translate(0, 0)">
    <path d="M 271.0,219.0 L 287.0,254.0 L 193.0,356.0 L 178.0,358.0"/>
    <path d="M 131.0,361.0 L 162.0,388.0 L 204.0,578.0"/>
    <path d="M 210.0,467.0 L 218.0,455.0 L 234.0,450.0 L 271.0,448.0"/>
    <path d="M 332.0,332.0 L 429.0,333.0 L 446.0,343.0 L 458.0,361.0 L 403.0,536.0 L 404.0,558.0"/>
    <path d="M 341.0,441.0 L 394.0,437.0 L 407.0,429.0 L 408.0,421.0"/>
    <path d="M 221.0,546.0 L 229.0,551.0 L 380.0,523.0"/>
    <path d="M 101.0,640.0 L 120.0,653.0 L 137.0,681.0 L 138.0,797.0 L 128.0,893.0 L 134.0,930.0 L 167.0,918.0 L 226.0,866.0"/>
    <path d="M 168.0,674.0 L 221.0,696.0"/>
    <path d="M 168.0,756.0 L 174.0,766.0 L 203.0,773.0 L 225.0,788.0"/>
    <path d="M 256.0,603.0 L 273.0,615.0 L 285.0,635.0 L 279.0,771.0 L 284.0,782.0 L 279.0,791.0 L 276.0,885.0 L 283.0,925.0 L 327.0,898.0 L 357.0,871.0 L 360.0,860.0 L 376.0,850.0"/>
    <path d="M 311.0,668.0 L 317.0,677.0 L 354.0,693.0"/>
    <path d="M 307.0,752.0 L 311.0,763.0 L 354.0,785.0"/>
    <path d="M 373.0,613.0 L 392.0,629.0 L 406.0,652.0 L 409.0,773.0 L 438.0,885.0 L 478.0,957.0 L 501.0,986.0 L 539.0,1014.0 L 559.0,1018.0 L 571.0,994.0 L 598.0,882.0"/>
    <path d="M 570.0,418.0 L 594.0,443.0 L 579.0,489.0 L 544.0,555.0 L 491.0,621.0 L 467.0,636.0 L 466.0,643.0"/>
    <path d="M 645.0,285.0 L 678.0,300.0 L 787.0,465.0 L 851.0,541.0 L 889.0,559.0 L 983.0,583.0"/>
    <path d="M 520.0,647.0 L 559.0,655.0 L 752.0,615.0 L 776.0,618.0 L 792.0,635.0 L 767.0,801.0 L 749.0,862.0 L 732.0,894.0 L 702.0,918.0 L 626.0,876.0"/>
    <path d="M 604.0,670.0 L 627.0,692.0 L 611.0,738.0 L 569.0,815.0 L 525.0,875.0 L 498.0,898.0"/>
  </g>
</svg>
