<svg xmlns="http://www.w3.org/2000/svg" viewBox="0 0 1024 1024">
  <g style="fill:none;stroke:#000000;stroke-width:50;stroke-linecap:round;stroke-linejoin:round;" transform="scale(1, 1) translate(0, 0)">
    <path d="M 338.0,261.0 L 303.0,257.0 L 234.0,326.0 L 183.0,365.0 L 184.0,371.0"/>
    <path d="M 128.0,374.0 L 161.0,398.0 L 220.0,591.0"/>
    <path d="M 211.0,459.0 L 221.0,464.0 L 253.0,459.0 L 273.0,464.0"/>
    <path d="M 305.0,356.0 L 331.0,359.0 L 383.0,343.0 L 418.0,342.0 L 433.0,351.0 L 451.0,377.0 L 428.0,451.0 L 407.0,555.0"/>
    <path d="M 327.0,449.0 L 331.0,444.0 L 341.0,448.0 L 402.0,436.0"/>
    <path d="M 234.0,573.0 L 252.0,560.0 L 327.0,540.0 L 358.0,535.0 L 384.0,541.0"/>
    <path d="M 128.0,641.0 L 159.0,670.0 L 161.0,736.0 L 150.0,866.0 L 154.0,897.0 L 178.0,897.0 L 239.0,862.0"/>
    <path d="M 197.0,671.0 L 199.0,676.0 L 226.0,678.0 L 247.0,688.0"/>
    <path d="M 189.0,753.0 L 194.0,761.0 L 238.0,778.0"/>
    <path d="M 265.0,599.0 L 284.0,613.0 L 298.0,634.0 L 294.0,889.0 L 299.0,897.0 L 319.0,891.0 L 378.0,846.0"/>
    <path d="M 330.0,653.0 L 335.0,661.0 L 370.0,676.0"/>
    <path d="M 322.0,746.0 L 328.0,758.0 L 356.0,768.0 L 370.0,782.0"/>
    <path d="M 391.0,591.0 L 415.0,615.0 L 429.0,641.0 L 430.0,714.0 L 442.0,799.0 L 454.0,840.0 L 475.0,881.0 L 496.0,907.0 L 535.0,939.0 L 604.0,974.0 L 679.0,994.0 L 764.0,1001.0 L 840.0,998.0 L 884.0,983.0 L 912.0,962.0 L 923.0,822.0"/>
    <path d="M 597.0,284.0 L 617.0,303.0 L 626.0,322.0 L 615.0,352.0 L 546.0,478.0 L 518.0,517.0 L 485.0,548.0"/>
    <path d="M 581.0,459.0 L 784.0,425.0 L 816.0,430.0 L 840.0,455.0 L 828.0,688.0 L 816.0,763.0 L 798.0,827.0 L 770.0,873.0 L 751.0,888.0 L 688.0,852.0 L 685.0,845.0 L 673.0,845.0"/>
    <path d="M 511.0,596.0 L 538.0,624.0 L 569.0,755.0"/>
    <path d="M 553.0,598.0 L 575.0,604.0 L 645.0,587.0 L 678.0,590.0 L 694.0,609.0 L 693.0,619.0 L 675.0,673.0 L 653.0,688.0"/>
    <path d="M 585.0,731.0 L 598.0,720.0 L 642.0,712.0 L 682.0,711.0 L 703.0,717.0"/>
  </g>
</svg>
