<svg xmlns="http://www.w3.org/2000/svg" viewBox="0 0 1024 1024">
  <g style="fill:none;stroke:#000000;stroke-width:50;stroke-linecap:round;stroke-linejoin:round;" transform="scale(1, 1) translate(0, 0)">
    <path d="M 271.0,219.0 L 287.0,254.0 L 193.0,356.0 L 178.0,358.0"/>
    <path d="M 131.0,361.0 L 162.0,388.0 L 204.0,578.0"/>
    <path d="M 210.0,467.0 L 218.0,455.0 L 234.0,450.0 L 271.0,448.0"/>
    <path d="M 332.0,332.0 L 429.0,333.0 L 446.0,343.0 L 458.0,361.0 L 403.0,536.0 L 404.0,558.0"/>
    <path d="M 341.0,441.0 L 394.0,437.0 L 407.0,429.0 L 408.0,421.0"/>
    <path d="M 221.0,546.0 L 229.0,551.0 L 380.0,523.0"/>
    <path d="M 113.0,635.0 L 146.0,669.0 L 145.0,778.0 L 130.0,886.0 L 135.0,915.0 L 168.0,906.0 L 234.0,861.0"/>
    <path d="M 184.0,673.0 L 231.0,698.0"/>
    <path d="M 173.0,757.0 L 180.0,768.0 L 201.0,773.0 L 225.0,789.0"/>
    <path d="M 248.0,603.0 L 265.0,615.0 L 277.0,635.0 L 266.0,893.0 L 274.0,923.0 L 309.0,908.0 L 374.0,850.0"/>
    <path d="M 298.0,669.0 L 323.0,675.0 L 353.0,692.0"/>
    <path d="M 294.0,755.0 L 354.0,785.0"/>
    <path d="M 378.0,609.0 L 403.0,644.0 L 395.0,725.0 L 409.0,826.0 L 436.0,890.0 L 474.0,933.0 L 492.0,936.0 L 499.0,923.0 L 522.0,838.0"/>
    <path d="M 585.0,347.0 L 643.0,353.0 L 784.0,323.0 L 830.0,325.0"/>
    <path d="M 662.0,379.0 L 694.0,399.0 L 652.0,629.0 L 633.0,651.0"/>
    <path d="M 561.0,523.0 L 635.0,523.0 L 755.0,496.0 L 787.0,503.0 L 810.0,530.0 L 784.0,612.0 L 757.0,636.0"/>
    <path d="M 508.0,681.0 L 558.0,688.0 L 688.0,668.0 L 876.0,650.0 L 914.0,654.0 L 945.0,665.0"/>
    <path d="M 551.0,777.0 L 571.0,793.0 L 583.0,814.0 L 620.0,1006.0"/>
    <path d="M 601.0,777.0 L 617.0,787.0 L 765.0,757.0 L 786.0,762.0 L 807.0,777.0 L 816.0,788.0 L 788.0,890.0 L 767.0,906.0"/>
    <path d="M 636.0,942.0 L 657.0,951.0 L 781.0,932.0 L 822.0,941.0"/>
  </g>
</svg>
