<svg xmlns="http://www.w3.org/2000/svg" viewBox="0 0 1024 1024">
  <g style="fill:none;stroke:#000000;stroke-width:50;stroke-linecap:round;stroke-linejoin:round;" transform="scale(1, 1) translate(0, 0)">
    <path d="M 310.0,257.0 L 273.0,254.0 L 190.0,336.0 L 153.0,368.0 L 144.0,367.0"/>
    <path d="M 97.0,367.0 L 126.0,395.0 L 168.0,583.0"/>
    <path d="M 174.0,478.0 L 179.0,468.0 L 221.0,460.0 L 242.0,464.0"/>
    <path d="M 289.0,360.0 L 315.0,363.0 L 360.0,349.0 L 404.0,345.0 L 434.0,372.0 L 381.0,561.0"/>
    <path d="M 313.0,454.0 L 386.0,445.0"/>
    <path d="M 187.0,569.0 L 203.0,558.0 L 329.0,537.0 L 362.0,537.0"/>
    <path d="M 89.0,650.0 L 119.0,682.0 L 116.0,786.0 L 102.0,885.0 L 106.0,921.0 L 130.0,918.0 L 205.0,873.0"/>
    <path d="M 167.0,683.0 L 217.0,708.0"/>
    <path d="M 157.0,779.0 L 210.0,799.0"/>
    <path d="M 237.0,619.0 L 258.0,643.0 L 262.0,664.0 L 253.0,875.0 L 261.0,919.0 L 275.0,915.0 L 325.0,879.0 L 329.0,866.0 L 343.0,858.0"/>
    <path d="M 288.0,680.0 L 292.0,688.0 L 304.0,688.0 L 338.0,706.0"/>
    <path d="M 280.0,765.0 L 318.0,784.0 L 338.0,804.0"/>
    <path d="M 363.0,622.0 L 400.0,672.0 L 400.0,776.0 L 422.0,891.0 L 445.0,934.0 L 472.0,964.0 L 516.0,991.0 L 577.0,1014.0 L 647.0,1031.0 L 782.0,1037.0 L 856.0,1029.0 L 894.0,1016.0 L 923.0,995.0 L 927.0,874.0"/>
    <path d="M 568.0,345.0 L 582.0,351.0 L 631.0,349.0 L 813.0,316.0 L 835.0,318.0"/>
    <path d="M 610.0,421.0 L 633.0,443.0 L 662.0,570.0"/>
    <path d="M 657.0,436.0 L 679.0,424.0 L 758.0,412.0 L 773.0,404.0 L 806.0,406.0 L 816.0,412.0 L 828.0,430.0 L 810.0,504.0 L 794.0,543.0 L 799.0,560.0"/>
    <path d="M 663.0,497.0 L 672.0,488.0 L 702.0,480.0 L 752.0,475.0"/>
    <path d="M 677.0,550.0 L 680.0,542.0 L 708.0,536.0 L 767.0,531.0"/>
    <path d="M 692.0,574.0 L 704.0,598.0 L 663.0,681.0 L 657.0,699.0 L 662.0,714.0 L 784.0,761.0 L 833.0,801.0"/>
    <path d="M 779.0,614.0 L 787.0,648.0 L 768.0,693.0 L 740.0,735.0 L 723.0,754.0 L 673.0,788.0 L 606.0,809.0"/>
    <path d="M 597.0,657.0 L 650.0,655.0 L 828.0,625.0 L 853.0,624.0 L 900.0,634.0"/>
    <path d="M 510.0,322.0 L 540.0,358.0 L 546.0,429.0 L 546.0,659.0 L 538.0,876.0 L 586.0,878.0 L 682.0,860.0 L 793.0,852.0 L 847.0,851.0 L 878.0,861.0"/>
  </g>
</svg>
