<svg xmlns="http://www.w3.org/2000/svg" viewBox="0 0 1024 1024">
  <g style="fill:none;stroke:#000000;stroke-width:50;stroke-linecap:round;stroke-linejoin:round;" transform="scale(1, 1) translate(0, 0)">
    <path d="M 453.0,170.0 L 467.0,195.0 L 417.0,257.0 L 404.0,265.0"/>
    <path d="M 346.0,270.0 L 369.0,290.0 L 385.0,315.0 L 399.0,458.0 L 417.0,528.0"/>
    <path d="M 394.0,278.0 L 418.0,286.0 L 504.0,264.0 L 618.0,245.0 L 662.0,254.0 L 685.0,279.0 L 659.0,415.0 L 638.0,485.0 L 643.0,504.0"/>
    <path d="M 418.0,363.0 L 428.0,351.0 L 477.0,343.0 L 566.0,330.0 L 597.0,334.0"/>
    <path d="M 428.0,432.0 L 435.0,422.0 L 481.0,414.0 L 581.0,401.0 L 600.0,406.0"/>
    <path d="M 437.0,501.0 L 444.0,489.0 L 578.0,475.0 L 604.0,466.0"/>
    <path d="M 297.0,565.0 L 321.0,581.0 L 340.0,612.0 L 361.0,716.0 L 383.0,781.0"/>
    <path d="M 352.0,575.0 L 377.0,584.0 L 647.0,548.0 L 713.0,556.0 L 731.0,577.0 L 736.0,593.0 L 684.0,740.0"/>
    <path d="M 416.0,665.0 L 443.0,667.0 L 579.0,645.0 L 612.0,645.0 L 631.0,652.0"/>
    <path d="M 497.0,583.0 L 519.0,603.0 L 522.0,620.0 L 520.0,711.0 L 507.0,724.0"/>
    <path d="M 397.0,764.0 L 416.0,756.0 L 630.0,732.0 L 645.0,731.0 L 659.0,739.0"/>
    <path d="M 96.0,847.0 L 148.0,859.0 L 480.0,820.0 L 841.0,801.0 L 897.0,809.0 L 933.0,823.0"/>
    <path d="M 374.0,853.0 L 406.0,878.0 L 395.0,940.0 L 376.0,992.0 L 338.0,1041.0 L 313.0,1060.0 L 269.0,1080.0"/>
    <path d="M 626.0,839.0 L 650.0,863.0 L 649.0,1039.0 L 662.0,1097.0"/>
  </g>
</svg>
