<svg xmlns="http://www.w3.org/2000/svg" viewBox="0 0 1024 1024">
  <g style="fill:none;stroke:#000000;stroke-width:50;stroke-linecap:round;stroke-linejoin:round;" transform="scale(1, 1) translate(0, 0)">
    <path d="M 490.0,179.0 L 535.0,219.0 L 526.0,412.0 L 509.0,436.0"/>
    <path d="M 564.0,317.0 L 577.0,306.0 L 687.0,286.0 L 731.0,289.0"/>
    <path d="M 315.0,314.0 L 359.0,354.0 L 374.0,440.0 L 389.0,448.0"/>
    <path d="M 134.0,499.0 L 192.0,507.0 L 467.0,463.0 L 813.0,425.0 L 873.0,431.0 L 907.0,443.0"/>
    <path d="M 383.0,517.0 L 398.0,545.0 L 383.0,574.0 L 342.0,631.0 L 288.0,676.0"/>
    <path d="M 395.0,609.0 L 405.0,608.0 L 435.0,623.0 L 464.0,654.0"/>
    <path d="M 591.0,493.0 L 616.0,525.0 L 602.0,560.0 L 571.0,610.0 L 514.0,667.0"/>
    <path d="M 612.0,596.0 L 625.0,596.0 L 663.0,617.0 L 684.0,643.0"/>
    <path d="M 298.0,731.0 L 336.0,740.0 L 419.0,735.0 L 637.0,701.0 L 681.0,702.0"/>
    <path d="M 380.0,761.0 L 397.0,781.0 L 367.0,833.0 L 316.0,885.0 L 297.0,901.0 L 285.0,902.0 L 282.0,910.0"/>
    <path d="M 401.0,841.0 L 410.0,838.0 L 436.0,856.0 L 456.0,890.0"/>
    <path d="M 621.0,752.0 L 594.0,758.0 L 555.0,831.0 L 526.0,869.0 L 499.0,887.0 L 498.0,896.0"/>
    <path d="M 595.0,821.0 L 605.0,820.0 L 650.0,847.0 L 673.0,879.0"/>
    <path d="M 174.0,708.0 L 212.0,745.0 L 219.0,764.0 L 228.0,838.0 L 221.0,982.0 L 223.0,1001.0 L 229.0,1005.0 L 255.0,1006.0 L 413.0,967.0 L 616.0,936.0 L 736.0,927.0 L 751.0,944.0"/>
    <path d="M 779.0,647.0 L 796.0,661.0 L 821.0,704.0 L 770.0,1071.0"/>
  </g>
</svg>
