<svg xmlns="http://www.w3.org/2000/svg" viewBox="0 0 1024 1024">
  <g style="fill:none;stroke:#000000;stroke-width:50;stroke-linecap:round;stroke-linejoin:round;" transform="scale(1, 1) translate(0, 0)">
    <path d="M 295.0,215.0 L 314.0,226.0 L 334.0,249.0 L 330.0,435.0 L 325.0,450.0 L 315.0,458.0"/>
    <path d="M 355.0,349.0 L 373.0,338.0 L 468.0,317.0 L 485.0,319.0"/>
    <path d="M 171.0,361.0 L 205.0,394.0 L 218.0,470.0 L 205.0,483.0"/>
    <path d="M 59.0,533.0 L 75.0,539.0 L 108.0,539.0 L 432.0,450.0 L 462.0,444.0 L 500.0,446.0"/>
    <path d="M 206.0,533.0 L 227.0,558.0 L 216.0,584.0 L 188.0,632.0 L 137.0,680.0"/>
    <path d="M 230.0,617.0 L 255.0,626.0 L 269.0,640.0"/>
    <path d="M 364.0,489.0 L 386.0,513.0 L 381.0,531.0 L 357.0,589.0 L 319.0,632.0"/>
    <path d="M 385.0,588.0 L 393.0,584.0 L 425.0,604.0"/>
    <path d="M 174.0,717.0 L 234.0,715.0 L 354.0,676.0 L 389.0,673.0"/>
    <path d="M 207.0,736.0 L 226.0,759.0 L 220.0,778.0 L 200.0,826.0 L 155.0,875.0"/>
    <path d="M 231.0,818.0 L 256.0,846.0"/>
    <path d="M 345.0,722.0 L 359.0,744.0 L 341.0,797.0 L 324.0,828.0 L 290.0,864.0"/>
    <path d="M 365.0,801.0 L 393.0,831.0"/>
    <path d="M 77.0,743.0 L 96.0,763.0 L 110.0,793.0 L 110.0,865.0 L 97.0,971.0 L 142.0,966.0 L 256.0,922.0 L 393.0,886.0 L 410.0,868.0"/>
    <path d="M 426.0,726.0 L 450.0,762.0 L 428.0,949.0"/>
    <path d="M 579.0,413.0 L 601.0,425.0 L 624.0,452.0 L 629.0,774.0 L 628.0,801.0 L 613.0,822.0"/>
    <path d="M 654.0,626.0 L 658.0,615.0 L 675.0,604.0 L 715.0,601.0"/>
    <path d="M 498.0,655.0 L 532.0,690.0 L 549.0,837.0 L 535.0,853.0"/>
    <path d="M 481.0,894.0 L 512.0,899.0 L 527.0,895.0 L 641.0,833.0 L 709.0,787.0"/>
    <path d="M 886.0,516.0 L 905.0,556.0 L 852.0,600.0 L 781.0,647.0 L 780.0,656.0"/>
    <path d="M 720.0,296.0 L 748.0,314.0 L 767.0,346.0 L 753.0,511.0 L 750.0,755.0 L 756.0,857.0 L 773.0,924.0 L 808.0,947.0 L 864.0,952.0 L 902.0,946.0 L 941.0,924.0 L 947.0,917.0 L 959.0,772.0"/>
  </g>
</svg>
