<svg xmlns="http://www.w3.org/2000/svg" viewBox="0 0 1024 1024">
  <g style="fill:none;stroke:#000000;stroke-width:50;stroke-linecap:round;stroke-linejoin:round;" transform="scale(1, 1) translate(0, 0)">
    <path d="M 315.0,214.0 L 352.0,246.0 L 353.0,384.0 L 349.0,398.0 L 338.0,405.0"/>
    <path d="M 379.0,313.0 L 421.0,298.0 L 483.0,298.0"/>
    <path d="M 183.0,330.0 L 217.0,363.0 L 225.0,422.0 L 212.0,439.0"/>
    <path d="M 48.0,493.0 L 82.0,499.0 L 114.0,495.0 L 427.0,410.0 L 477.0,403.0 L 495.0,407.0"/>
    <path d="M 223.0,493.0 L 238.0,508.0 L 237.0,514.0 L 207.0,574.0 L 184.0,603.0 L 145.0,636.0"/>
    <path d="M 237.0,577.0 L 243.0,574.0 L 274.0,595.0"/>
    <path d="M 391.0,442.0 L 412.0,467.0 L 406.0,485.0 L 369.0,550.0 L 331.0,584.0"/>
    <path d="M 410.0,537.0 L 437.0,547.0 L 454.0,565.0"/>
    <path d="M 191.0,673.0 L 242.0,674.0 L 375.0,634.0 L 408.0,632.0"/>
    <path d="M 228.0,691.0 L 249.0,715.0 L 244.0,730.0 L 223.0,779.0 L 179.0,827.0"/>
    <path d="M 251.0,781.0 L 257.0,779.0 L 283.0,801.0"/>
    <path d="M 369.0,678.0 L 383.0,696.0 L 374.0,725.0 L 346.0,779.0 L 311.0,816.0"/>
    <path d="M 389.0,751.0 L 391.0,759.0 L 423.0,783.0"/>
    <path d="M 84.0,713.0 L 111.0,741.0 L 119.0,763.0 L 122.0,812.0 L 115.0,915.0 L 158.0,913.0 L 307.0,865.0 L 432.0,840.0 L 448.0,823.0"/>
    <path d="M 470.0,627.0 L 498.0,670.0 L 464.0,938.0"/>
    <path d="M 595.0,345.0 L 609.0,352.0 L 699.0,320.0 L 754.0,309.0 L 771.0,319.0 L 788.0,340.0 L 753.0,569.0 L 742.0,590.0 L 724.0,594.0"/>
    <path d="M 598.0,492.0 L 609.0,478.0 L 642.0,464.0 L 686.0,456.0 L 699.0,459.0"/>
    <path d="M 601.0,613.0 L 617.0,599.0 L 708.0,579.0"/>
    <path d="M 536.0,332.0 L 565.0,362.0 L 571.0,379.0 L 577.0,494.0 L 575.0,744.0 L 561.0,949.0 L 583.0,951.0 L 596.0,980.0 L 722.0,868.0"/>
    <path d="M 879.0,657.0 L 843.0,651.0 L 743.0,753.0 L 745.0,759.0"/>
    <path d="M 599.0,661.0 L 638.0,694.0 L 654.0,718.0 L 725.0,787.0 L 858.0,891.0 L 981.0,900.0"/>
  </g>
</svg>
