<svg xmlns="http://www.w3.org/2000/svg" viewBox="0 0 1024 1024">
  <g style="fill:none;stroke:#000000;stroke-width:50;stroke-linecap:round;stroke-linejoin:round;" transform="scale(1, 1) translate(0, 0)">
    <path d="M 325.0,218.0 L 366.0,255.0 L 358.0,423.0 L 343.0,449.0"/>
    <path d="M 389.0,344.0 L 428.0,329.0 L 509.0,319.0"/>
    <path d="M 193.0,329.0 L 231.0,364.0 L 246.0,461.0 L 236.0,471.0"/>
    <path d="M 77.0,524.0 L 92.0,529.0 L 138.0,528.0 L 432.0,450.0 L 487.0,440.0 L 520.0,443.0"/>
    <path d="M 216.0,539.0 L 232.0,550.0 L 215.0,597.0 L 174.0,650.0 L 156.0,663.0"/>
    <path d="M 248.0,589.0 L 249.0,598.0 L 280.0,624.0"/>
    <path d="M 388.0,498.0 L 404.0,518.0 L 390.0,559.0 L 363.0,602.0 L 336.0,627.0"/>
    <path d="M 418.0,564.0 L 418.0,571.0 L 452.0,604.0"/>
    <path d="M 176.0,721.0 L 204.0,719.0 L 364.0,672.0 L 413.0,672.0"/>
    <path d="M 218.0,745.0 L 231.0,768.0 L 224.0,792.0 L 198.0,838.0 L 164.0,872.0"/>
    <path d="M 240.0,818.0 L 240.0,824.0 L 277.0,855.0"/>
    <path d="M 360.0,717.0 L 372.0,746.0 L 348.0,796.0 L 311.0,837.0"/>
    <path d="M 377.0,796.0 L 402.0,812.0 L 416.0,831.0"/>
    <path d="M 81.0,751.0 L 110.0,787.0 L 113.0,802.0 L 113.0,871.0 L 104.0,952.0 L 150.0,951.0 L 287.0,913.0 L 423.0,892.0 L 443.0,886.0 L 451.0,875.0"/>
    <path d="M 475.0,691.0 L 503.0,729.0 L 471.0,955.0"/>
    <path d="M 647.0,233.0 L 672.0,252.0 L 685.0,272.0 L 660.0,358.0 L 598.0,496.0 L 543.0,587.0 L 513.0,622.0"/>
    <path d="M 685.0,382.0 L 685.0,396.0 L 726.0,441.0 L 843.0,553.0 L 872.0,565.0 L 986.0,584.0"/>
    <path d="M 612.0,573.0 L 690.0,620.0 L 713.0,654.0"/>
    <path d="M 556.0,785.0 L 579.0,789.0 L 600.0,784.0 L 742.0,730.0 L 764.0,732.0 L 787.0,750.0 L 791.0,755.0 L 781.0,777.0 L 682.0,905.0"/>
    <path d="M 604.0,887.0 L 727.0,988.0 L 746.0,1010.0 L 763.0,1055.0"/>
  </g>
</svg>
