<svg xmlns="http://www.w3.org/2000/svg" viewBox="0 0 1024 1024">
  <g style="fill:none;stroke:#000000;stroke-width:50;stroke-linecap:round;stroke-linejoin:round;" transform="scale(1, 1) translate(0, 0)">
    <path d="M 315.0,225.0 L 353.0,257.0 L 347.0,431.0 L 342.0,449.0 L 332.0,458.0"/>
    <path d="M 376.0,356.0 L 433.0,335.0 L 481.0,325.0 L 505.0,328.0"/>
    <path d="M 193.0,360.0 L 228.0,390.0 L 246.0,468.0 L 258.0,472.0"/>
    <path d="M 60.0,533.0 L 82.0,538.0 L 131.0,535.0 L 427.0,457.0 L 455.0,451.0 L 495.0,455.0"/>
    <path d="M 259.0,552.0 L 234.0,552.0 L 192.0,632.0 L 147.0,681.0"/>
    <path d="M 231.0,611.0 L 243.0,608.0 L 267.0,625.0 L 279.0,644.0"/>
    <path d="M 380.0,492.0 L 401.0,510.0 L 365.0,586.0 L 327.0,632.0"/>
    <path d="M 387.0,581.0 L 401.0,581.0 L 417.0,591.0 L 441.0,618.0"/>
    <path d="M 183.0,717.0 L 238.0,717.0 L 367.0,678.0 L 400.0,676.0"/>
    <path d="M 228.0,736.0 L 245.0,753.0 L 235.0,779.0 L 204.0,834.0 L 194.0,838.0 L 193.0,848.0 L 177.0,857.0 L 169.0,872.0"/>
    <path d="M 239.0,819.0 L 240.0,828.0 L 267.0,848.0 L 269.0,864.0"/>
    <path d="M 351.0,713.0 L 366.0,724.0 L 353.0,768.0 L 334.0,801.0 L 303.0,832.0"/>
    <path d="M 352.0,796.0 L 395.0,808.0 L 414.0,829.0"/>
    <path d="M 78.0,728.0 L 102.0,749.0 L 115.0,771.0 L 121.0,833.0 L 119.0,948.0 L 158.0,944.0 L 300.0,902.0 L 410.0,884.0 L 424.0,878.0 L 431.0,867.0"/>
    <path d="M 461.0,663.0 L 488.0,703.0 L 452.0,950.0"/>
    <path d="M 560.0,363.0 L 588.0,387.0 L 628.0,558.0"/>
    <path d="M 621.0,374.0 L 633.0,381.0 L 770.0,344.0 L 807.0,347.0 L 829.0,370.0 L 800.0,467.0 L 773.0,486.0"/>
    <path d="M 644.0,544.0 L 662.0,531.0 L 760.0,513.0 L 814.0,507.0 L 835.0,513.0"/>
    <path d="M 682.0,546.0 L 714.0,576.0 L 709.0,812.0 L 725.0,838.0"/>
    <path d="M 739.0,673.0 L 760.0,662.0 L 827.0,645.0 L 868.0,643.0"/>
    <path d="M 574.0,693.0 L 599.0,717.0 L 583.0,790.0 L 553.0,854.0 L 516.0,900.0"/>
    <path d="M 611.0,788.0 L 623.0,806.0 L 721.0,872.0 L 837.0,934.0 L 986.0,925.0"/>
  </g>
</svg>
