<svg xmlns="http://www.w3.org/2000/svg" viewBox="0 0 1024 1024">
  <g style="fill:none;stroke:#000000;stroke-width:50;stroke-linecap:round;stroke-linejoin:round;" transform="scale(1, 1) translate(0, 0)">
    <path d="M 320.0,240.0 L 342.0,254.0 L 360.0,278.0 L 363.0,436.0 L 348.0,448.0"/>
    <path d="M 390.0,356.0 L 406.0,347.0 L 470.0,334.0 L 512.0,335.0"/>
    <path d="M 185.0,341.0 L 225.0,374.0 L 240.0,448.0 L 241.0,467.0 L 231.0,477.0"/>
    <path d="M 78.0,523.0 L 108.0,531.0 L 145.0,528.0 L 397.0,465.0 L 457.0,455.0 L 487.0,459.0"/>
    <path d="M 235.0,537.0 L 251.0,551.0 L 245.0,573.0 L 215.0,629.0 L 180.0,663.0"/>
    <path d="M 271.0,589.0 L 271.0,598.0 L 304.0,632.0"/>
    <path d="M 391.0,504.0 L 408.0,528.0 L 402.0,546.0 L 389.0,578.0 L 347.0,627.0"/>
    <path d="M 422.0,571.0 L 424.0,579.0 L 457.0,607.0"/>
    <path d="M 214.0,716.0 L 266.0,709.0 L 375.0,678.0 L 405.0,674.0 L 421.0,679.0"/>
    <path d="M 243.0,728.0 L 262.0,750.0 L 252.0,782.0 L 219.0,844.0 L 187.0,875.0"/>
    <path d="M 271.0,806.0 L 271.0,813.0 L 296.0,837.0"/>
    <path d="M 362.0,719.0 L 379.0,738.0 L 371.0,774.0 L 355.0,812.0 L 317.0,864.0"/>
    <path d="M 396.0,784.0 L 396.0,795.0 L 429.0,829.0"/>
    <path d="M 94.0,747.0 L 126.0,777.0 L 134.0,804.0 L 139.0,952.0 L 187.0,945.0 L 320.0,904.0 L 430.0,884.0 L 451.0,866.0"/>
    <path d="M 475.0,703.0 L 502.0,741.0 L 467.0,955.0"/>
    <path d="M 573.0,379.0 L 594.0,385.0 L 633.0,384.0 L 811.0,345.0 L 852.0,344.0"/>
    <path d="M 666.0,237.0 L 700.0,266.0 L 696.0,330.0 L 682.0,405.0 L 656.0,460.0 L 618.0,507.0 L 560.0,548.0"/>
    <path d="M 721.0,433.0 L 782.0,467.0 L 809.0,502.0"/>
    <path d="M 491.0,616.0 L 538.0,619.0 L 659.0,590.0 L 879.0,551.0 L 915.0,551.0 L 961.0,561.0"/>
    <path d="M 548.0,694.0 L 572.0,722.0 L 593.0,867.0"/>
    <path d="M 594.0,714.0 L 610.0,703.0 L 672.0,686.0 L 693.0,691.0 L 708.0,708.0 L 705.0,722.0 L 692.0,769.0 L 673.0,784.0"/>
    <path d="M 608.0,830.0 L 619.0,820.0 L 667.0,807.0 L 720.0,810.0"/>
    <path d="M 772.0,594.0 L 810.0,630.0 L 810.0,1000.0 L 788.0,1045.0 L 748.0,1034.0 L 684.0,1002.0"/>
  </g>
</svg>
