<svg xmlns="http://www.w3.org/2000/svg" viewBox="0 0 1024 1024">
  <g style="fill:none;stroke:#000000;stroke-width:50;stroke-linecap:round;stroke-linejoin:round;" transform="scale(1, 1) translate(0, 0)">
    <path d="M 295.0,205.0 L 315.0,217.0 L 332.0,237.0 L 327.0,411.0 L 322.0,430.0 L 312.0,439.0"/>
    <path d="M 354.0,351.0 L 396.0,334.0 L 480.0,321.0"/>
    <path d="M 185.0,321.0 L 217.0,355.0 L 231.0,446.0 L 218.0,461.0"/>
    <path d="M 95.0,506.0 L 116.0,511.0 L 157.0,507.0 L 357.0,448.0 L 419.0,436.0 L 448.0,438.0"/>
    <path d="M 221.0,517.0 L 237.0,531.0 L 218.0,584.0 L 182.0,642.0 L 159.0,663.0"/>
    <path d="M 245.0,589.0 L 246.0,596.0 L 280.0,626.0"/>
    <path d="M 383.0,480.0 L 400.0,503.0 L 391.0,529.0 L 368.0,578.0 L 332.0,615.0"/>
    <path d="M 412.0,553.0 L 413.0,561.0 L 441.0,577.0 L 457.0,595.0"/>
    <path d="M 194.0,692.0 L 259.0,681.0 L 355.0,654.0 L 385.0,650.0 L 401.0,655.0"/>
    <path d="M 230.0,722.0 L 243.0,739.0 L 234.0,766.0 L 209.0,815.0 L 174.0,849.0"/>
    <path d="M 248.0,789.0 L 248.0,800.0 L 274.0,829.0"/>
    <path d="M 361.0,694.0 L 375.0,712.0 L 362.0,758.0 L 342.0,797.0 L 307.0,835.0"/>
    <path d="M 382.0,768.0 L 384.0,777.0 L 416.0,802.0"/>
    <path d="M 108.0,746.0 L 128.0,770.0 L 137.0,793.0 L 125.0,902.0 L 130.0,924.0 L 157.0,922.0 L 322.0,867.0 L 416.0,847.0 L 431.0,833.0"/>
    <path d="M 456.0,682.0 L 475.0,705.0 L 481.0,726.0 L 452.0,900.0"/>
    <path d="M 519.0,291.0 L 545.0,318.0 L 573.0,450.0"/>
    <path d="M 568.0,312.0 L 577.0,301.0 L 618.0,288.0 L 644.0,280.0 L 660.0,283.0 L 677.0,300.0 L 663.0,360.0 L 641.0,377.0"/>
    <path d="M 591.0,421.0 L 596.0,414.0 L 645.0,400.0 L 675.0,395.0 L 697.0,399.0"/>
    <path d="M 720.0,255.0 L 746.0,283.0 L 773.0,408.0"/>
    <path d="M 760.0,258.0 L 772.0,263.0 L 850.0,242.0 L 873.0,259.0 L 862.0,321.0 L 842.0,339.0"/>
    <path d="M 787.0,378.0 L 831.0,360.0 L 893.0,359.0"/>
    <path d="M 600.0,515.0 L 661.0,518.0 L 744.0,495.0 L 796.0,493.0"/>
    <path d="M 508.0,636.0 L 553.0,641.0 L 664.0,615.0 L 845.0,584.0 L 892.0,584.0 L 937.0,594.0"/>
    <path d="M 649.0,645.0 L 671.0,665.0 L 639.0,762.0 L 671.0,765.0 L 732.0,746.0 L 794.0,737.0 L 821.0,746.0 L 840.0,769.0 L 809.0,926.0 L 793.0,974.0 L 771.0,1010.0 L 738.0,1033.0 L 654.0,973.0"/>
  </g>
</svg>
