<svg xmlns="http://www.w3.org/2000/svg" viewBox="0 0 1024 1024">
  <g style="fill:none;stroke:#000000;stroke-width:50;stroke-linecap:round;stroke-linejoin:round;" transform="scale(1, 1) translate(0, 0)">
    <path d="M 317.0,223.0 L 351.0,256.0 L 344.0,402.0 L 339.0,419.0 L 329.0,427.0"/>
    <path d="M 376.0,307.0 L 395.0,314.0 L 470.0,298.0 L 505.0,299.0"/>
    <path d="M 188.0,333.0 L 223.0,366.0 L 234.0,433.0 L 224.0,443.0"/>
    <path d="M 49.0,487.0 L 68.0,496.0 L 104.0,499.0 L 207.0,472.0 L 456.0,422.0 L 523.0,422.0"/>
    <path d="M 234.0,498.0 L 249.0,515.0 L 240.0,539.0 L 211.0,585.0 L 161.0,628.0"/>
    <path d="M 252.0,574.0 L 259.0,572.0 L 283.0,593.0"/>
    <path d="M 379.0,456.0 L 400.0,480.0 L 394.0,503.0 L 357.0,577.0 L 320.0,615.0"/>
    <path d="M 400.0,559.0 L 407.0,554.0 L 433.0,564.0 L 453.0,581.0"/>
    <path d="M 188.0,685.0 L 250.0,675.0 L 348.0,647.0 L 396.0,647.0"/>
    <path d="M 231.0,696.0 L 249.0,718.0 L 242.0,744.0 L 218.0,791.0 L 179.0,833.0"/>
    <path d="M 246.0,788.0 L 272.0,810.0"/>
    <path d="M 357.0,690.0 L 371.0,708.0 L 363.0,734.0 L 339.0,777.0 L 303.0,817.0"/>
    <path d="M 369.0,776.0 L 390.0,787.0 L 400.0,800.0"/>
    <path d="M 106.0,699.0 L 128.0,723.0 L 139.0,747.0 L 129.0,915.0 L 167.0,914.0 L 271.0,879.0 L 394.0,851.0 L 410.0,836.0"/>
    <path d="M 451.0,660.0 L 474.0,698.0 L 425.0,902.0"/>
    <path d="M 637.0,353.0 L 647.0,359.0 L 667.0,356.0 L 785.0,320.0 L 815.0,319.0 L 845.0,344.0 L 824.0,404.0 L 802.0,416.0"/>
    <path d="M 633.0,474.0 L 638.0,480.0 L 654.0,478.0 L 789.0,447.0 L 831.0,445.0 L 851.0,450.0"/>
    <path d="M 572.0,336.0 L 591.0,351.0 L 605.0,376.0 L 600.0,531.0 L 577.0,688.0 L 554.0,775.0 L 508.0,884.0 L 464.0,959.0 L 423.0,1011.0"/>
    <path d="M 635.0,571.0 L 654.0,576.0 L 694.0,572.0 L 816.0,538.0 L 854.0,537.0"/>
    <path d="M 700.0,595.0 L 719.0,614.0 L 700.0,652.0 L 659.0,710.0 L 655.0,727.0 L 684.0,728.0 L 769.0,701.0 L 824.0,696.0"/>
    <path d="M 795.0,638.0 L 851.0,686.0 L 871.0,726.0"/>
    <path d="M 636.0,830.0 L 700.0,829.0 L 788.0,801.0 L 845.0,794.0"/>
    <path d="M 707.0,740.0 L 723.0,750.0 L 735.0,781.0 L 732.0,906.0 L 719.0,921.0"/>
    <path d="M 556.0,965.0 L 589.0,967.0 L 881.0,922.0 L 949.0,936.0"/>
  </g>
</svg>
