<svg xmlns="http://www.w3.org/2000/svg" viewBox="0 0 1024 1024">
  <g style="fill:none;stroke:#000000;stroke-width:50;stroke-linecap:round;stroke-linejoin:round;" transform="scale(1, 1) translate(0, 0)">
    <path d="M 331.0,258.0 L 360.0,278.0 L 370.0,293.0 L 369.0,494.0 L 368.0,505.0 L 355.0,518.0"/>
    <path d="M 392.0,405.0 L 406.0,393.0 L 462.0,380.0 L 516.0,382.0"/>
    <path d="M 201.0,404.0 L 241.0,438.0 L 259.0,525.0 L 273.0,530.0"/>
    <path d="M 77.0,580.0 L 101.0,590.0 L 152.0,590.0 L 454.0,524.0 L 509.0,515.0 L 546.0,520.0"/>
    <path d="M 328.0,589.0 L 358.0,621.0 L 341.0,682.0 L 303.0,761.0 L 270.0,808.0 L 230.0,849.0"/>
    <path d="M 364.0,707.0 L 366.0,714.0 L 437.0,756.0 L 457.0,788.0"/>
    <path d="M 141.0,687.0 L 166.0,717.0 L 174.0,737.0 L 174.0,813.0 L 161.0,925.0 L 203.0,923.0 L 342.0,880.0 L 462.0,858.0 L 480.0,853.0 L 488.0,841.0"/>
    <path d="M 493.0,618.0 L 525.0,653.0 L 515.0,869.0 L 519.0,911.0"/>
    <path d="M 842.0,457.0 L 853.0,477.0 L 856.0,499.0 L 555.0,712.0 L 549.0,725.0"/>
    <path d="M 598.0,260.0 L 629.0,282.0 L 655.0,313.0 L 643.0,800.0 L 654.0,885.0 L 674.0,932.0 L 706.0,958.0 L 768.0,973.0 L 861.0,971.0 L 900.0,955.0 L 910.0,948.0 L 912.0,938.0 L 910.0,796.0"/>
  </g>
</svg>
