<svg xmlns="http://www.w3.org/2000/svg" viewBox="0 0 1024 1024">
  <g style="fill:none;stroke:#000000;stroke-width:50;stroke-linecap:round;stroke-linejoin:round;" transform="scale(1, 1) translate(0, 0)">
    <path d="M 273.0,274.0 L 312.0,307.0 L 313.0,473.0 L 308.0,487.0 L 297.0,493.0"/>
    <path d="M 343.0,391.0 L 354.0,382.0 L 440.0,369.0"/>
    <path d="M 149.0,377.0 L 179.0,401.0 L 189.0,418.0 L 204.0,512.0 L 193.0,521.0"/>
    <path d="M 62.0,573.0 L 112.0,577.0 L 364.0,505.0 L 436.0,498.0"/>
    <path d="M 265.0,590.0 L 291.0,619.0 L 280.0,676.0 L 249.0,761.0 L 195.0,837.0"/>
    <path d="M 291.0,726.0 L 297.0,742.0 L 341.0,781.0 L 353.0,815.0"/>
    <path d="M 111.0,686.0 L 132.0,708.0 L 146.0,739.0 L 146.0,818.0 L 131.0,946.0 L 167.0,943.0 L 275.0,903.0 L 367.0,881.0 L 381.0,864.0"/>
    <path d="M 388.0,638.0 L 420.0,672.0 L 411.0,927.0"/>
    <path d="M 563.0,405.0 L 585.0,417.0 L 608.0,444.0 L 613.0,766.0 L 612.0,793.0 L 597.0,814.0"/>
    <path d="M 638.0,618.0 L 642.0,607.0 L 659.0,596.0 L 699.0,593.0"/>
    <path d="M 481.0,618.0 L 517.0,655.0 L 531.0,831.0 L 516.0,846.0"/>
    <path d="M 465.0,886.0 L 505.0,890.0 L 625.0,825.0 L 693.0,779.0"/>
    <path d="M 870.0,508.0 L 889.0,548.0 L 836.0,592.0 L 765.0,639.0 L 764.0,648.0"/>
    <path d="M 704.0,288.0 L 731.0,305.0 L 751.0,338.0 L 734.0,518.0 L 733.0,695.0 L 740.0,847.0 L 758.0,917.0 L 783.0,935.0 L 832.0,943.0 L 886.0,938.0 L 925.0,916.0 L 931.0,909.0 L 943.0,764.0"/>
  </g>
</svg>
