<svg xmlns="http://www.w3.org/2000/svg" viewBox="0 0 1024 1024">
  <g style="fill:none;stroke:#000000;stroke-width:50;stroke-linecap:round;stroke-linejoin:round;" transform="scale(1, 1) translate(0, 0)">
    <path d="M 469.0,173.0 L 537.0,204.0 L 571.0,239.0"/>
    <path d="M 319.0,328.0 L 344.0,336.0 L 395.0,333.0 L 704.0,270.0 L 759.0,266.0"/>
    <path d="M 251.0,302.0 L 273.0,321.0 L 286.0,344.0 L 265.0,535.0 L 233.0,674.0 L 195.0,777.0 L 137.0,889.0 L 82.0,965.0 L 49.0,998.0"/>
    <path d="M 426.0,366.0 L 469.0,399.0"/>
    <path d="M 356.0,451.0 L 438.0,447.0 L 521.0,424.0 L 553.0,422.0"/>
    <path d="M 362.0,493.0 L 385.0,516.0 L 396.0,541.0"/>
    <path d="M 490.0,454.0 L 504.0,470.0 L 481.0,523.0 L 463.0,548.0"/>
    <path d="M 295.0,586.0 L 344.0,590.0 L 516.0,553.0 L 552.0,550.0 L 577.0,555.0"/>
    <path d="M 328.0,645.0 L 344.0,663.0 L 348.0,679.0 L 347.0,755.0 L 336.0,854.0 L 313.0,945.0 L 309.0,989.0"/>
    <path d="M 372.0,652.0 L 379.0,658.0 L 401.0,654.0 L 483.0,629.0 L 499.0,633.0 L 519.0,653.0 L 516.0,741.0 L 524.0,938.0 L 516.0,977.0 L 504.0,990.0 L 490.0,988.0 L 418.0,959.0"/>
    <path d="M 364.0,757.0 L 376.0,747.0 L 408.0,740.0 L 449.0,743.0"/>
    <path d="M 358.0,839.0 L 368.0,831.0 L 398.0,826.0 L 433.0,824.0 L 449.0,831.0"/>
    <path d="M 671.0,430.0 L 809.0,401.0"/>
    <path d="M 619.0,351.0 L 635.0,362.0 L 649.0,383.0 L 634.0,520.0 L 666.0,521.0 L 753.0,497.0 L 781.0,501.0 L 788.0,509.0 L 788.0,529.0 L 775.0,560.0 L 764.0,579.0 L 741.0,597.0"/>
    <path d="M 649.0,640.0 L 662.0,629.0 L 729.0,616.0 L 769.0,615.0 L 791.0,622.0"/>
    <path d="M 599.0,607.0 L 617.0,625.0 L 624.0,650.0 L 612.0,826.0 L 618.0,912.0 L 633.0,961.0 L 651.0,980.0 L 701.0,1002.0 L 755.0,1009.0 L 842.0,1002.0 L 883.0,987.0 L 909.0,970.0 L 920.0,954.0 L 920.0,832.0"/>
    <path d="M 641.0,720.0 L 654.0,711.0 L 735.0,695.0 L 780.0,693.0"/>
    <path d="M 636.0,798.0 L 644.0,792.0 L 746.0,775.0 L 780.0,776.0"/>
    <path d="M 636.0,864.0 L 672.0,869.0 L 796.0,855.0"/>
  </g>
</svg>
