<svg xmlns="http://www.w3.org/2000/svg" viewBox="0 0 1024 1024">
  <g style="fill:none;stroke:#000000;stroke-width:50;stroke-linecap:round;stroke-linejoin:round;" transform="scale(1, 1) translate(0, 0)">
    <path d="M 309.0,272.0 L 348.0,304.0 L 348.0,482.0 L 332.0,495.0"/>
    <path d="M 379.0,388.0 L 392.0,377.0 L 450.0,365.0 L 496.0,367.0"/>
    <path d="M 173.0,373.0 L 215.0,411.0 L 232.0,513.0 L 222.0,523.0"/>
    <path d="M 76.0,573.0 L 126.0,579.0 L 434.0,498.0 L 485.0,491.0 L 503.0,495.0"/>
    <path d="M 296.0,589.0 L 322.0,615.0 L 298.0,714.0 L 277.0,761.0 L 219.0,837.0"/>
    <path d="M 321.0,725.0 L 324.0,736.0 L 375.0,778.0 L 390.0,813.0"/>
    <path d="M 136.0,685.0 L 166.0,726.0 L 171.0,770.0 L 151.0,946.0 L 199.0,942.0 L 256.0,919.0 L 376.0,886.0 L 414.0,879.0 L 429.0,891.0"/>
    <path d="M 432.0,634.0 L 464.0,669.0 L 455.0,923.0"/>
    <path d="M 544.0,359.0 L 572.0,383.0 L 612.0,554.0"/>
    <path d="M 605.0,370.0 L 617.0,377.0 L 754.0,340.0 L 791.0,343.0 L 813.0,366.0 L 784.0,463.0 L 757.0,482.0"/>
    <path d="M 628.0,540.0 L 646.0,527.0 L 716.0,513.0 L 798.0,503.0 L 819.0,509.0"/>
    <path d="M 671.0,544.0 L 698.0,559.0 L 705.0,573.0 L 699.0,808.0 L 719.0,839.0"/>
    <path d="M 731.0,672.0 L 745.0,658.0 L 832.0,637.0 L 852.0,639.0"/>
    <path d="M 562.0,670.0 L 584.0,696.0 L 570.0,745.0 L 534.0,817.0 L 483.0,881.0"/>
    <path d="M 583.0,768.0 L 608.0,796.0 L 689.0,858.0 L 821.0,940.0 L 969.0,938.0"/>
  </g>
</svg>
