<svg xmlns="http://www.w3.org/2000/svg" viewBox="0 0 1024 1024">
  <g style="fill:none;stroke:#000000;stroke-width:50;stroke-linecap:round;stroke-linejoin:round;" transform="scale(1, 1) translate(0, 0)">
    <path d="M 263.0,385.0 L 311.0,393.0 L 674.0,323.0 L 734.0,328.0"/>
    <path d="M 467.0,200.0 L 485.0,215.0 L 500.0,243.0 L 468.0,379.0 L 429.0,463.0 L 379.0,525.0 L 339.0,559.0 L 247.0,607.0"/>
    <path d="M 519.0,380.0 L 548.0,401.0 L 540.0,493.0 L 553.0,527.0 L 572.0,542.0 L 640.0,556.0 L 725.0,554.0 L 803.0,529.0 L 809.0,510.0 L 806.0,410.0"/>
    <path d="M 680.0,378.0 L 691.0,410.0 L 681.0,427.0 L 571.0,504.0 L 486.0,544.0"/>
    <path d="M 673.0,225.0 L 744.0,258.0 L 779.0,295.0"/>
    <path d="M 291.0,704.0 L 336.0,713.0 L 387.0,711.0 L 562.0,686.0 L 678.0,661.0 L 727.0,664.0"/>
    <path d="M 368.0,611.0 L 409.0,655.0 L 422.0,803.0 L 436.0,812.0"/>
    <path d="M 563.0,593.0 L 594.0,627.0 L 573.0,778.0 L 555.0,802.0"/>
    <path d="M 171.0,855.0 L 223.0,866.0 L 438.0,837.0 L 783.0,809.0 L 828.0,814.0 L 878.0,832.0"/>
    <path d="M 442.0,932.0 L 407.0,935.0 L 336.0,1000.0 L 273.0,1037.0 L 232.0,1053.0"/>
    <path d="M 583.0,900.0 L 693.0,975.0 L 717.0,1001.0 L 737.0,1046.0"/>
  </g>
</svg>
